<svg xmlns="http://www.w3.org/2000/svg" viewBox="0 0 316.23 342.55"><defs><style>.cls-1{fill:#007293;}.cls-2{fill:#1d1d1b;}.cls-3{fill:#fff;}.cls-4{fill:#e32021;}.cls-5{fill:#e30613;}</style></defs><g id="Ebene_2" data-name="Ebene 2"><g id="Ebene_1-2" data-name="Ebene 1"><path class="cls-1" d="M123.53,92a17.19,17.19,0,0,0-4.14-4.24c-1.61-1.37-2.49-3.45-3.54-5.24-1.39-2.37-3.31-5.09-3.86-7.75-1.1,0-1.64,2.39-2.53,3.21A14.73,14.73,0,0,1,108,79.08l0,0c-1.7-3,1.14-3.76,2.16-6.12.59-1.36,0-4.24-.09-5.69a38.49,38.49,0,0,1,.06-8.24c.23-1.84,0-4.49,1.28-5.91a83,83,0,0,1-9.12-.34,125.2,125.2,0,0,1-35.56-7.94c-1.1-.43-2.16-.93-3.21-1.44,1.1,3.46-.24,8.5-1.22,11.2A25,25,0,0,1,57.48,63c-1.3,1.43-3.1,2.87-5.11,2.71-.23.81-.56,1.63-.75,2.34-.87,3.24-1.65,6.6-2.19,9.9-1.15,7.1-2.63,14-3.81,21.11-.85,5.12-1.36,9,4.49,11,8,2.74,17.34,2.07,25.72,2.66,1.81.13,6.53,1.76,8.12,1.18,1.76-.63,3.06-4.37,3.79-5.9,2.05-4.31,4.13-8.6,6.5-12.75,1.16-2,2.45-3.94,3.66-5.92.4-.65,1.43-3.8,2.34-3.75,1.12.06,2.91,6.23,3.5,7.24A41.13,41.13,0,0,1,107,98.78a7.23,7.23,0,0,0,1.39,2.3c.48.54,1.36,2,2.13,2.06a7,7,0,0,0,2.66-1.16c.81-.61,1.35-1.49,2.21-2.09,1.24-.87,2.76-1.44,4.07-2.22C121.39,96.51,125,94.51,123.53,92Z"/><path class="cls-1" d="M301.33,111.35v-.09c.06-.22.14-.42.21-.63-6.88-1.32-10.42-8.94-10.77-15.34-.17-3.1.25-6.58,2.11-9.17a7.58,7.58,0,0,1,3.86-2.85l-1.24-.19a38.78,38.78,0,0,1-4.84-1.63,35,35,0,0,0-5.36-1.13c-1.4-.19-3.7-.17-4.68-1.45-1.62-2.12,1.49-5.62,2.66-7.22a56.13,56.13,0,0,0,4-5.89c.89-1.59,1.49-3.34,2.37-5a40.57,40.57,0,0,0,3.48-8.39c.77-2.77.12-6-.73-8.72-1-3.1-2.41-6.14-5.41-7.79-.69-.38-1.37-.77-2-1.16a8.79,8.79,0,0,1-1.81-1.11,3.58,3.58,0,0,0-1-.9,20,20,0,0,1-1.84-1,12.76,12.76,0,0,0-2.52-1.08l-.66-.2a17.09,17.09,0,0,0-6.77-.69c-.56.07-1.12.18-1.67.3-2.18.5-4.07,1.63-6.18,2.27a5.94,5.94,0,0,0-3.93,4.28c-.09.43-.27.78-.32,1.22a7.71,7.71,0,0,1-.14,1c-.18.6-.43,1.08-.59,1.68a3.89,3.89,0,0,0-.12,1.12c0,.33.14.65.15.95s-.22.44-.38.68-.29.52-.43.78a5,5,0,0,0-.52,1.58,7.09,7.09,0,0,0,.81,4.88c.23.36.55.68.75,1.05.1.19.16.2.06.38s-.39.35-.55.52-.48.66-.74,1a8,8,0,0,1-1.14,1,10.17,10.17,0,0,0-1.34,1.65,22.33,22.33,0,0,0-1.38,2.1c-.32.59-.58,1.28.06,1.72a7.74,7.74,0,0,0,1.79.79,12.55,12.55,0,0,1,1.15.6,10.2,10.2,0,0,0,1.63.49c.58.19.54.6.54,1.14,0,1.07.1,2.14.16,3.21a11,11,0,0,0,.49,2.83c.1.29.12.49.41.57s.51-.13.81-.09a9.4,9.4,0,0,0,1,.17,6.93,6.93,0,0,1,.91,0c.65.1,1,.84,1.16,1.38s.38,1.29.62,1.93a3.09,3.09,0,0,1,.12,1.76c0,.11,0,.22,0,.33-.07,1.32.59,2.83-.38,3.93-1.2,1.36-5.29,1.64-7,1.77-.59,0-1.22,0-1.81,0s-1.25.2-1.9.2a26.28,26.28,0,0,0-3.3.39,12.13,12.13,0,0,0-1.58.27,17.59,17.59,0,0,0-2.64.93c-1.11.47-2.26.84-3.34,1.38a3.63,3.63,0,0,0-.82.59,13.87,13.87,0,0,0-1.6,1.74.92.92,0,0,1-.28.24,2.07,2.07,0,0,0-.39.33c-.32.29-.62.59-.92.89l-.3.28c-.24.22-.46.46-.7.69a8.65,8.65,0,0,0-.82.9,1.53,1.53,0,0,1-.56.42,13.33,13.33,0,0,0-1.87,1.22c-1.41,1-2.82,2-4.21,3q-1.59,1.2-3.12,2.49c-5,4.21-8.6,9.37-12.81,14.23a89.34,89.34,0,0,1-9.75,9.21A23.49,23.49,0,0,0,199.6,124a36.28,36.28,0,0,1,12.82,1.89c.46-.33.93-.64,1.3-.94a36.74,36.74,0,0,0,3.4-3.44,11.86,11.86,0,0,1,2.16-1.49c.86-.57,1.72-1.12,2.56-1.73,2.38-1.76,4.86-3.42,7.22-5.22s4.91-3.71,7.19-5.77c.65-.59,2.37-2.65,3.3-2.43s1.35,2,1.71,2.77c1.6,3.47,2.32,7.27,3.48,10.89,2.22,6.92,3.45,14.18,5.77,21.14a27.66,27.66,0,0,1,.86,4.14c.24,1.42.53,2.8.68,4.21,0,.36.15.85.21,1.25a8.65,8.65,0,0,0,.74,2.46,2.52,2.52,0,0,0,1.71,1.23,6.27,6.27,0,0,0,2.36.16c.68-.07,1.37,0,2.07,0a28.8,28.8,0,0,0,4.63-.63c2.8-.55,5.77-1.47,8.65-1.18,4.16.41,12.65,2.23,14.61-2.5a52.32,52.32,0,0,0,1.8-7.07c2-8.26,7.48-14.56,10.25-22.95C299.88,116.33,300.46,113.78,301.33,111.35Z"/><path class="cls-2" d="M304.25,223.58c-.68,9.86-.75,19.85-1,29.72-.27,9-.71,17.95-.68,27,0,3.38.16,6.89-.65,10.19a18.26,18.26,0,0,0-.61,3.2c-.18,2.54,1,1.61,3,1.94.44,2.21,1.83,7.2-1.65,7.61-1.35.16-2.78-.2-4.1.07s-2.83.71-4.26,1c-5.11.9-10.42.79-15.52,1.48-3.36.46-6.83,1.41-10.25.91a35.44,35.44,0,0,1-1.54-4.56c-.59-2.5-.06-2.46,2.12-2.76.41-2.44.17-5.19.41-7.62.1-1.13-.05-2.31.07-3.42.74-6.94-.12-14.48-.35-21.53-.24-7.75-.49-15.5-.47-23.26,0-9-1.73-17.76-2.63-26.66-.38-3.69-.67-7.37-1-11-.16-2-.92-4.2-.68-6.16a126.53,126.53,0,0,1-.67,14.68c-.29,3.85,0,7.72-.39,11.58-.62,7-1.31,13.94-2.23,20.88-1.39,10.48-1.74,21.05-2.24,31.6-.37,7.66-3.24,14.62-3.67,22.3.29.05,3.71,1,3.69.86a25,25,0,0,1,.08,6.23c-.37,2.25-1,2.8-3.16,2.79a74.38,74.38,0,0,1-12.88-.69,51.72,51.72,0,0,1-9.38-2.2c-1.08-.4-2.13-1-3.21-1.32-.71-.22-1.58,0-2.19-.58-1.13-1.09-.6-3.47-.61-5s1-3.15,2.72-1.78c.7-4.36.61-9.1.81-13.51.25-5.35.4-10.7.52-16.05.29-13.74-.19-27.64.57-41.37.42-7.46.69-14.92,1.15-22.37.41-6.62,0-13.15,2.14-19.56,1.74-5.28,3.81-10.36,5.74-15.51,1.13-3,2-6.05,3.27-9.12.92-2.17,3.52-8.51,6.09-9.31a4.54,4.54,0,0,0,.12-.53c2.7-.3,5.44.27,8.17.27h21.66c1.84,0,3.73.11,5.57,0,1.66-.1,3.58-.75,5.25-.35,2,.48,2.47,1.94,3.28,3.61,2.69,5.57,4.05,11.64,6.36,17.37,2.43,6,2.86,13,3.28,19.48A235.58,235.58,0,0,1,304.25,223.58Z"/><path class="cls-3" d="M249.35,150.28c1.13,1.46-.6,4.44-.28,6.18,3.67-.59,7.74,0,11.59,0,5.93.12,11.74-.65,17.68-.65,4.94,0,12.61-1.22,17.26.28-1.31-3-1.76-6.1-5.49-6.54-2.86-.33-6,1-8.92,1-2.4,0-4.8,0-7.2,0-5.05,0-10.05.64-15.12.32a71.1,71.1,0,0,0-10.13-.28,2.13,2.13,0,0,0,.29,1.27"/><path class="cls-1" d="M165,143.81a13.84,13.84,0,0,1-5.9-1.86,8.55,8.55,0,0,0,4.46,2.7c4.67,1,10.23-.27,15.54-.73C174.39,143.78,169.62,144.28,165,143.81Z"/><path class="cls-1" d="M237.78,108.73c-.57-3.66-.95-7.39-2.24-10.89a38,38,0,0,0-3-6.37,17.72,17.72,0,0,0-2.22-3.33c-.73-.78-1.36-1.63-2-2.45a14.19,14.19,0,0,1-1.07-1.13c-.23-.35-.24-.81-.48-1.14a6.38,6.38,0,0,0-.8-.66c-.67-.6-1.37-1.18-2.09-1.73-5.25-4-12.63-6.64-19-7.84a17.68,17.68,0,0,0-4.54,0c-1.85.14-3.71.34-5.56.43-1.54.08-3.08,0-4.61,0-.55,0-1.09-.12-1.65-.14s-.79-.14-1.21-.14-.48,0-.61-.47a18.2,18.2,0,0,1-.7-2.8,8.26,8.26,0,0,1,0-1.86c.77-.07,1.51-.84,2.06-1.32s1.29-1.05,1.9-1.62,1.38-1.12,2-1.74.84-1.33,1.47-1.67a5.32,5.32,0,0,1,2-.22,17.63,17.63,0,0,0,2.76-.76,6.64,6.64,0,0,0,2.6-1.45c.87-.72.79-1.28.79-2.36a6.75,6.75,0,0,0-2.13-5.32c-1.4-1.5-1.25-3.63-2-5.42-1.81-4.21-2-9-4-13.09-.87-1.79-1.74-3.6-3.69-4.39-1.76-.72-3.71-.82-5.49-1.54a19.59,19.59,0,0,0-11.37-.81c-1.74.37-3.65,1.9-5.16,2.87a15.51,15.51,0,0,0-5.23,5.24c-1.75,2.88-2.8,6.16-4.61,9-.21.33-.54.55-.75.89a4.22,4.22,0,0,0-.51,1.67,31.48,31.48,0,0,0,0,7.26,21.41,21.41,0,0,0,2.12,7,15.29,15.29,0,0,0,4.12,4.36,3.81,3.81,0,0,0,1.39.84,1.39,1.39,0,0,1,.63.18c.24.17.43.39.67.55.53.36,1,.79,1.51,1.17a3.81,3.81,0,0,0,1.71.71c.31.08.79.12.9.42a4.83,4.83,0,0,1,0,1.26v3a2.6,2.6,0,0,1,0,.56c0,.17-.14.31-.13.48a8.66,8.66,0,0,0-1.72.43,8,8,0,0,1-2,.54,9.06,9.06,0,0,0-1.18.15,3.6,3.6,0,0,1-1.46.07c-.46-.06-.88,0-1.34-.07-.65-.06-1.32-.12-2-.14s-1.46,0-2.18,0c-.48,0-.92.24-1.4.25a8.93,8.93,0,0,0-1.71.17,20.69,20.69,0,0,1-3.58.49c-2.79,0-5.41,0-7.86,1.23-6.93,3.35-12.63,9.49-18.57,14.4-3.75,3.09-7.2,6.59-11.09,9.58a91.76,91.76,0,0,0-9.87,8.14c-2.38,2.43-5,5.34-5.29,8.72-.3,3.66,1.46,6.45,3.8,9.1a46.36,46.36,0,0,0,16.29,11.46c1.81.74,3.71,1.26,5.55,1.91a40.27,40.27,0,0,0,5.12,1.78c.73.15,1.55.33,2.26.5.87.21,1.68.51,2.52.72,1.5.36,3,.84,4.56,1.26,3.5,1,5.91,3.48,7.79,6.39a6.61,6.61,0,0,0,1.27,1.31c.38.37.63,1.13,1,1.54,1.1,1.23,2.16,2.83,3.62,3.73,2.14,1.31,2.68-.61,1.84-2.34a8.53,8.53,0,0,0-1.78-2.22c-.42-.42-1.51-1.3-1.55-1.75a39.31,39.31,0,0,1,3.76,2.05c.46.29,4.49,3.1,4.33,1-.07-.94-2.38-2.12-3-2.59a22.11,22.11,0,0,1-3.27-2.93c1.75-.35,3.6,1.08,5.25,1.42a7,7,0,0,0,2.28.06c.73-.11,1.08-.53,1.75-.81-.52-1.75-3.26-2.5-4.54-3.49-.8-.62-.76-1.26-.76-2.28a7.19,7.19,0,0,1,0-1.47c.09-.39.56-.48.42-1a83.75,83.75,0,0,0-8.58-2.05,55.13,55.13,0,0,1-6.7-1.6,8.38,8.38,0,0,1-3.13-1.34,9.68,9.68,0,0,0-3.54-2.3,42.55,42.55,0,0,1-4.73-2,34.25,34.25,0,0,1-5.92-3.23c-1-.75-2.25-1.08-3.19-2-.73-.7-2-1.66-2.15-2.68-.17-1.23.92-2,1.69-2.81,1.14-1.13,2.27-2.33,3.47-3.44,2.48-2.28,4.38-5.08,7-7.32,2.21-1.91,4.27-4,6.58-5.77l.47-.36c1.21-.94,3.17-3.42,4.9-2.94,1.09.29,1.56,1.57,2.1,2.47s1.2,2,1.76,3.07a56.24,56.24,0,0,1,5.4,13.06c1.29,5.06,1.48,10.54,3.49,15.4,3.21,7.81,10.42,7.69,17.87,7.45a52.2,52.2,0,0,1,10.38.38c1.06.17,3,1.11,3.86.25s1.35-3.19,1.83-4.48c1.49-4,2.17-8.31,4.1-12.14a49.27,49.27,0,0,1,3.9-7,24,24,0,0,1,3.9-3.65c1.19-1,2.8-2.18,3.28-3.75.55-1.78,1-3.54,1.4-5.39a26.75,26.75,0,0,1,2-5.85,13.38,13.38,0,0,1,1-1.63c.56-.77,1.5-2.12,2.5-2.27,1.49-.23,2.75,1.1,3.76,2a34.19,34.19,0,0,1,3.28,3.31A14.07,14.07,0,0,1,221,107c.35,1.07.59,2.17.93,3.23a4.63,4.63,0,0,0,1.27,1.73c1.41,1.58,1.77,4.24,1.58,6.28a5.91,5.91,0,0,0-1.68,1.46,14.83,14.83,0,0,1-1.62,1.21,27.51,27.51,0,0,1-2.64,1.7c-.94.56-1.75,1.41-2.63,2a53.51,53.51,0,0,0-5.78,4.8c-3.8,3.66-7.76,6.83-10.93,11.07-1.05,1.41-2.9,3.09-4.72,3.22-1.29.08-3.8-1.24-4.47.51-.17.43,0,.95-.12,1.4-.05.26-.4.53-.46.81a2.82,2.82,0,0,0,.71,2.3c.62.86,1.41,1.62,2.08,2.45.85,1.05,1.19,2.22,2,3.27,1.3-.76,1.89-2.28,3-3.26.91-.77,2-1.43,2.91-2.14,1.56-1.2,3-2.5,4.49-3.8a22.91,22.91,0,0,1,6.16-4.25,42.55,42.55,0,0,0,9-4.81,41.75,41.75,0,0,1,4.43-3c.87-.48,1.79-.88,2.63-1.36s1.91-.88,2.79-1.44c.66-.43,1.31-1,1.94-1.37a12.15,12.15,0,0,0,3.56-2.61,17.51,17.51,0,0,0,3-8.15,26.44,26.44,0,0,0-.39-8C237.94,109.76,237.86,109.24,237.78,108.73Z"/><path class="cls-3" d="M164,48.27a14.68,14.68,0,0,1,2-2.46,29,29,0,0,1,3-1.9,25.72,25.72,0,0,1,2.2-1.42,2.83,2.83,0,0,1,2.47.19,2.28,2.28,0,0,1,.84,1.17c.06.15.18,1.2.25,1.24a5.49,5.49,0,0,0-2.89-.46,5.42,5.42,0,0,0-2,.82c-1,.52-2,1-2.94,1.52a10.2,10.2,0,0,1-2.92,1.3"/><path class="cls-3" d="M183.86,45a11,11,0,0,1,2.49.25,4.52,4.52,0,0,1,1.73.67c1.25.74,2.43,1.58,3.7,2.25a14.32,14.32,0,0,0-.27-1.43,1.71,1.71,0,0,0-.75-.71c-1.23-.82-2.26-1.89-3.74-2.31a15.2,15.2,0,0,0-3.37-1c-.39,0-.89-.13-1.08.26a2.91,2.91,0,0,0,.13,1.49c.22.63.26.58.84.52Z"/><path class="cls-3" d="M167,51.08c.59.2,2.36-1.71,3.58-1.73s2.51,1,3.75.86c-.24,2.68-5.37,2.24-6.75.74a.35.35,0,0,0-.32.29"/><path class="cls-2" d="M170.75,49.69a7.55,7.55,0,0,1,2.06.2,6.55,6.55,0,0,1,1.12.34,2.15,2.15,0,0,0,.5.12c.08,0,.19,0,.12-.1s-.16-.08-.22-.14l-.06-.07a1.57,1.57,0,0,1-.19-.26c0-.05-.07-.14-.14-.13s-.07.09-.1.12-.14.24-.25.13a.57.57,0,0,1-.13-.27s0-.16-.06-.18-.09.3-.18.1a4.23,4.23,0,0,1-.13-.51c-.12,0-.29.33-.33.42s0,.13-.11.14-.1,0-.13-.08a1.61,1.61,0,0,1-.14-.5c0-.06,0-.15-.08-.14s-.08,0-.11.06a.65.65,0,0,0-.18.31c0,.09-.07.21-.17.11s-.14-.36-.21-.53-.16-.31-.21-.48c0,.1,0,.21-.07.31l-.15.3a1.52,1.52,0,0,0-.06.2s0,.07-.07.05S171,49,171,49a2.22,2.22,0,0,1-.11-.39,1,1,0,0,0-.08-.3c0-.06,0,0-.05,0a2.84,2.84,0,0,1-.33.56,2.2,2.2,0,0,0-.17.25s0,.1-.08.11-.19-.33-.2-.41-.06-.31-.09-.46,0-.16-.07-.19-.08.17-.12.22-.2.32-.29.48-.2.38-.31.56-.06.1-.14.09a.44.44,0,0,1-.17-.08,1.3,1.3,0,0,1-.23-.18,2.57,2.57,0,0,0-.33-.33l.08.14c.05.09.13.16.18.25a2.13,2.13,0,0,0,.16.25s.08.09,0,.12a.71.71,0,0,1-.21,0,2.08,2.08,0,0,1-.5.07,3.18,3.18,0,0,1-1-.31c0,.47.59.53.91.64a1.77,1.77,0,0,1-.79.15c-.25,0-.34-.24-.55-.32,0,.52.79.55,1.12.65-.47.17-.91,0-1.31.13a1.38,1.38,0,0,0,1,.26c.39,0,.51.09.85.32a4.63,4.63,0,0,0,2.47.86,6.36,6.36,0,0,0,2.57-.35,3.54,3.54,0,0,0,1.69-1.55,3.54,3.54,0,0,1-.62.53,3.85,3.85,0,0,1-.93.7,5,5,0,0,1-1.79.3,12,12,0,0,1-1.77-.26c-.35-.06-.7-.11-1.05-.18s-.72-.09-.84-.25a.23.23,0,0,1-.18-.09A4.37,4.37,0,0,1,170.75,49.69Z"/><path class="cls-2" d="M171.24,49.32a1.46,1.46,0,0,0-.36.09,1.56,1.56,0,0,0-.48.14,1.59,1.59,0,0,0-.74.82,1.14,1.14,0,0,0,.06.55,1.41,1.41,0,0,0,.24.51,3.09,3.09,0,0,0,.37.43,1.44,1.44,0,0,0,.45.29,1.06,1.06,0,0,0,.49.11,1.81,1.81,0,0,0,.57-.06,2.35,2.35,0,0,0,.52-.37,5.68,5.68,0,0,0,.6-.5,1,1,0,0,0,.28-.54.82.82,0,0,0-.18-.52,1.56,1.56,0,0,0-.42-.43,2.3,2.3,0,0,0-.33-.21c-.09,0-.15-.11-.24-.16A1.8,1.8,0,0,0,171.24,49.32Z"/><path class="cls-3" d="M183.31,51c1.16-.91,2.15-2,3.8-1.93,1.28.07,2.1,1.18,3.31,1.27a5.11,5.11,0,0,1-3.48,1.52c-1.39,0-2.46-.63-3.85-.87"/><path class="cls-2" d="M186.38,49.22a2,2,0,0,0-1.39.71c-.15.19-.16.35-.39.49a5.69,5.69,0,0,1-.56.26,6.11,6.11,0,0,0-1,.54c-.12-.72,1.05-.77.65-1.62.12.18.48.41.68.2s-.15-.5-.22-.68c.29.34.47.19,1,.19.08-.23-.15-.48-.2-.7.14.11.29.39.48.41s.29-.14.4-.16c.09-.46-.19-.71-.24-1.14.41.24.67.77,1.14.9s.85-.28,1.18-.6c.05.38-.47.78-.75,1a1.35,1.35,0,0,0,1.52-.59,1.41,1.41,0,0,1-.67.89,1.65,1.65,0,0,0,1.5-.43c0,.14,0,.3-.09.44s-.19.28-.4.4c.17.5,1.69-.08,1.76-.55,0,.26-.31,1.62-.79,1.17.14.36-1.09.81-1.35,1a4.58,4.58,0,0,1-1.92.55,4.39,4.39,0,0,1-2-.29,5.83,5.83,0,0,0-1.78-.45,15.55,15.55,0,0,1,1.67.07,16.52,16.52,0,0,0,2.22.34,3.46,3.46,0,0,0,1.91-.27,8.21,8.21,0,0,0,1.33-1c-.62.11-1.14-.38-1.68-.64A4.19,4.19,0,0,0,186.38,49.22Z"/><path class="cls-2" d="M186.86,48.61a1.68,1.68,0,0,0-1.23,1c-.28.77.22,1.18.74,1.63.34.29.47.57,1,.53a1.63,1.63,0,0,0,.82-.38,2.26,2.26,0,0,0,.49-.83,1,1,0,0,0-.19-1C188.17,49.14,187.42,48.5,186.86,48.61Z"/><path class="cls-3" d="M191.69,73.07a2.33,2.33,0,0,1,1.88-1.51c1.18-.12,2.53.48,3.75.57s2.67.13,4,.22A69.49,69.49,0,0,1,213.21,74c1.39.35,2.78.67,4.17,1a6.05,6.05,0,0,1,1.84.56,9.25,9.25,0,0,0,1.29.84,14.2,14.2,0,0,1,1.73,1,19,19,0,0,1,4.48,3.79,67.38,67.38,0,0,1,3.9,5.55,30.75,30.75,0,0,1,3.54,6.83c.84,2.37,1.89,4.64,2.66,7a48.32,48.32,0,0,1,1.67,5.9,19.34,19.34,0,0,1,.52,3.93,23.18,23.18,0,0,0,0,3.23c.05.43.15.84.2,1.27a8,8,0,0,1,0,1.83c-.14,1.15-.18,2.32-.31,3.47s-.61,5.25-2.49,5.17c.24.44.79.42,1.21.62.25,1.74-1.06,3.46-2.17,4.67a5.84,5.84,0,0,1-1.2,1.08c-.55.31-.53.23-1.13,0-1-.32-2.07-.58-3.09-.93a122.26,122.26,0,0,1-13.78-5.53c-1-.48-1.83-1.1-2.8-1.57a1.67,1.67,0,0,1-1.08-1.36,4.62,4.62,0,0,1,.59-2c.21-.57.19-1.36.54-1.83s1.42-.7,2-.82c.88-.19.9-.4,1.09-1.25a22.16,22.16,0,0,0,.15-4.69,22.26,22.26,0,0,0-.58-4.86c-.31-1.38-1-2.62-1.27-4a7.26,7.26,0,0,0-1.58-3.32c-1.26,1.57-1.28,4.09-1.87,5.95a38.27,38.27,0,0,1-2.46,6.59,33.91,33.91,0,0,1-4.17,6.45c-1.3,1.48-2.49,3.06-3.78,4.54a53.28,53.28,0,0,0-4.31,5.73c-1.22,1.9-2.05,4-3.21,5.9a4.73,4.73,0,0,0-.94,2.62,9.44,9.44,0,0,1-.6,2.35c-.26,1.23-.38,2.37-.66,3.58s-.17,2.94-1.56,3.28a28.43,28.43,0,0,1-4.43.3c-1.61.13-3.21.16-4.84.16-3.08,0-6.17,0-9.22-.15a38.86,38.86,0,0,1-9.23-1.37,36.59,36.59,0,0,0-5-1.46,19.23,19.23,0,0,0-.17-2c-.17-.64-.42-1.23-.64-1.87-.47-1.38-.81-2.75-1.39-4.11a148.34,148.34,0,0,0-6.76-14,90.8,90.8,0,0,1-4.13-8.33c-.42-1-.5-2-.86-3a9.58,9.58,0,0,1-.58-3.36c0-.61.16-1-.47-.94a1.62,1.62,0,0,0-.73.39,21.87,21.87,0,0,0-3.31,2.49c-.82.79-1.79,1.42-2.65,2.14-1.21,1-2.34,2-3.45,3.14-.85.85-1.77,1.65-2.61,2.48a15.62,15.62,0,0,1-1.58,1.57c.29,1,1.1,1.69.64,2.84s-2.41,2-3.46,2.64a23.25,23.25,0,0,0-2.18,1.57c-.46.38-.67.66-1.14.32a5.36,5.36,0,0,1-.9-1.45c-.41-.71-.71-1.46-1-2.19-.81-1.73-1.78-3.28-2.65-5-1-1.93-2-3.94-2.85-5.94-.48-1.07-.78-2.22-1.25-3.29a14.19,14.19,0,0,0-1.21-2.32c-.69-1.07-1.52-2.07-2.11-3.19s-.91-2.23,0-3.39c.44-.56.88-1.12,1.34-1.65a12.1,12.1,0,0,1,1-1.32c1-.82,3,.51,4.25.35s2.45-1.41,3.4-2.18c1.33-1.09,2.79-2.16,4.21-3.11,2.16-1.46,3.81-3.66,5.91-5.26,3.57-2.74,6.76-6,10.3-8.8,3.77-3,7.44-6.56,12.45-7,2.55-.24,4.92.06,7.5.06.92,0,2.62-.34,3.46,0,1.25.5,1.47,2,2.37,3.11,1.6,2,4,4.67,6.34,5.82,3.23,1.6,7.24.45,10.43-.55a15.13,15.13,0,0,0,4.09-1.65c.64-.42,1.12-1.14,1.78-1.5s1.49-.27,2-.65A4.94,4.94,0,0,0,191.69,73.07Z"/><path class="cls-2" d="M122.1,110.58a45.9,45.9,0,0,0-12.28-7.29c.55.91,1.21,1.75,1.78,2.63a14.19,14.19,0,0,1,1.21,2.32c.47,1.07.77,2.22,1.25,3.29.9,2,1.85,4,2.85,5.94.87,1.7,1.84,3.25,2.65,5,.34.73.64,1.48,1,2.19a5.36,5.36,0,0,0,.9,1.45c.47.34.68.06,1.14-.32a23.25,23.25,0,0,1,2.18-1.57c1-.66,3-1.38,3.46-2.64a1.68,1.68,0,0,0,.13-.55A110.41,110.41,0,0,1,122.1,110.58Z"/><path class="cls-2" d="M167,145.64a.23.23,0,0,1,0-.11c-12.52-20.31-21.25-42.62-32.13-63.8-1.71,1.53-3.41,3-5.22,4.44-2.1,1.6-3.75,3.8-5.91,5.26-1.42.95-2.88,2-4.21,3.11-.41.33-.84.73-1.29,1.11.7.6,1.4,1.2,2.1,1.82a54.7,54.7,0,0,1,6,6.41c2.49,3,4.93,6.06,7.41,9.07.53-.48,1.07-.94,1.63-1.42.86-.72,1.83-1.35,2.65-2.14a21.87,21.87,0,0,1,3.31-2.49,1.62,1.62,0,0,1,.73-.39c.63-.05.47.33.47.94a9.58,9.58,0,0,0,.58,3.36c.36,1,.44,2,.86,3a90.8,90.8,0,0,0,4.13,8.33q3.43,6.24,6.26,12.8c3.18,3.19,6.35,6.4,9.43,9.7a.17.17,0,0,1,.22.07c.19.24.37.49.54.74l.07.07a.27.27,0,0,1,.06.1l.45.64c.85.16,1.71.28,2.57.38C167.4,146.33,167.19,146,167,145.64Z"/><path class="cls-2" d="M172.5,143.14c-.28-1.65-.46-3.3-.63-5-.38-3.8-.72-7.61-1.08-11.42-.74-7.92-1.66-15.81-2.64-23.71-1-7.56-2.12-15.16-2.54-22.77-.13-2.46-.2-5-.36-7.43-.58-1-.91-2-1.93-2.45-.84-.34-2.54,0-3.46,0-2.58,0-5-.3-7.5-.06A13.34,13.34,0,0,0,147.21,72c4.81,12.4,7.8,25.42,11.51,38.18,2.05,7,4.47,14,6.7,20.95.58,1.82,1.15,3.64,1.69,5.46s.89,3.69,1.54,5.42a32.9,32.9,0,0,1,1.17,3.47,9.3,9.3,0,0,1,.31,1.41c.36,0,.72,0,1.09.06L173,147A26.21,26.21,0,0,0,172.5,143.14Z"/><path class="cls-2" d="M181.88,139.91C184.8,133,188,126.15,191,119.24q4.8-11,9.38-22,5-11.89,9.67-23.88a84.12,84.12,0,0,0-8.82-1c-1.28-.09-2.64-.13-4-.22s-2.57-.69-3.75-.57a2.33,2.33,0,0,0-1.88,1.51A4.94,4.94,0,0,1,190.38,75c-.56.38-1.42.3-2,.65s-1.14,1.08-1.78,1.5a15.13,15.13,0,0,1-4.09,1.65h0c-.29,2.23-.63,4.45-.94,6.66-1,7.31-1.62,14.69-2.24,22-.65,7.69-1.27,15.38-1.71,23.07-.31,5.5-.35,11.06-1.16,16.52l2.7,0C180,144.68,180.89,142.28,181.88,139.91Z"/><path class="cls-2" d="M190.57,144.24a8.27,8.27,0,0,1-2.6,2.5c-.28.14-.53-.28-.25-.42,1.44-.72,2.4-2.3,3.35-3.54.13-.18.28-.35.42-.53.14-.82.26-1.62.44-2.47a9.44,9.44,0,0,0,.6-2.35,4.73,4.73,0,0,1,.94-2.62c1.16-1.95,2-4,3.21-5.9a53.28,53.28,0,0,1,4.31-5.73c1.29-1.48,2.48-3.06,3.78-4.54a33.91,33.91,0,0,0,4.17-6.45,38.27,38.27,0,0,0,2.46-6.59c.28-.87.43-1.9.64-2.9-2.34,3.19-4.68,6.38-6.93,9.63-4.34,6.3-8.89,12.47-12.8,19-3,5.09-5.47,10.49-8.36,15.64.44,0,.89,0,1.33-.08a28.43,28.43,0,0,0,4.43-.3c1.39-.34,1.29-2.1,1.56-3.28h0C191,143.65,190.8,143.94,190.57,144.24Z"/><path class="cls-2" d="M216.12,107a22.26,22.26,0,0,1,.58,4.86c0,.24,0,.48,0,.73,6-5.62,12.45-10.7,18.5-16.22-.36-.91-.72-1.81-1.05-2.73a30.75,30.75,0,0,0-3.54-6.83c-1.1-1.64-2.17-3.32-3.38-4.88-2.8,3.91-5.75,7.72-8.54,11.65-1.61,2.28-3.26,4.53-4.92,6.78a7.56,7.56,0,0,1,1.07,2.63C215.14,104.36,215.81,105.6,216.12,107Z"/><path class="cls-2" d="M239,114.12c-6.3,1.57-12.7,2.67-19,4.27l.37.17a.21.21,0,0,1,.21.1c1.14.55,2.26,1.13,3.39,1.7,4.1,2.06,8.36,4.37,13,5,1.38-.7,1.74-3.91,1.88-5s.17-2.32.31-3.47a8,8,0,0,0,0-1.83C239.14,114.69,239.08,114.4,239,114.12Z"/><path class="cls-2" d="M228.08,130.21a24.58,24.58,0,0,1-4.68-4.93c-1.33-2-2-4.21-3.12-6.25l-.73-.35a17.75,17.75,0,0,0-3.33-1.23,1.42,1.42,0,0,1-.76.33c-.58.12-1.61.28-2,.82s-.33,1.26-.54,1.83a4.62,4.62,0,0,0-.59,2,1.67,1.67,0,0,0,1.08,1.36c1,.47,1.83,1.09,2.8,1.57a112.77,112.77,0,0,0,12,4.89Z"/><path class="cls-2" d="M204.85,172.41c-.62-2.33-1.21-4.67-1.85-7-.57-2.06-1-4.09-1.74-6.09a24.81,24.81,0,0,0-1.56-3.63c-.76-1.42-1.11-2.91-1.73-4.38-.37-.89-.79-1.77-1.12-2.68a7.1,7.1,0,0,0-2.62-3.84,10.46,10.46,0,0,0-3.91-1.63,11.45,11.45,0,0,0-2.34-.12c-1.54.07-3.07.16-4.63.16-2.54,0-5.1.15-7.66.15-3.72,0-7.39-.16-11.09-.15-2,0-4-.34-6-.16a7.33,7.33,0,0,0-2.78,1.29,19.18,19.18,0,0,0-2.14,1.56,73.74,73.74,0,0,0-6.08,5.38c-.5.48-1.09.79-1.56,1.28a10.26,10.26,0,0,0-1.16,1.55c-.46.72-1,1.33-1.37,2.07a139.17,139.17,0,0,0-7.2,17.58A92,92,0,0,0,132,191.92c-.38,3.14-1,6.26-1.29,9.36-.25,2.56-.34,5.12-.63,7.68-.83,7.33-1.17,14.76-1.73,22.14-.62,8.09-1.08,16.2-1.05,24.32,0,6.34-.44,12.67-.91,19a43.63,43.63,0,0,0,0,7.84c.27,2.82-.94,5.3-1.42,8-.11.6.18,1.08-.08,1.7-.66,1.56-.73.69-1.48,1.42-1.1,1.08-1.29,1-1.55,2.61s.36,2.77.53,4.21c.14,1.18-.17,2.73.5,3.68,1.58,2.24,6.41-.3,8.91-.55,3.32-.32,6.55.55,9.87.54a40.13,40.13,0,0,0,11.07-1.17c1.19-.32,2.36-.23,3.55-.52,1.9-.45,3.48-.47,4.26-2.46.92-2.36,0-5.43-.88-7.62-2.34-5.78-.76-12.69-.25-18.8.64-7.77,1.43-15.52,1.93-23.3.22-3.46.77-7,.73-10.42a115.86,115.86,0,0,1,.13-12.22c.56-6.29,1.46-12.6,2.16-18.82.47-4.2,1.39-8.34,2-12.32.23-1.62.42-3.14.62-4.77.11-.89.09-3.25.88-3.74,1.6,2.28,2.07,5.34,2.57,8,2,10.75,1.23,22.31.93,33.18a319.88,319.88,0,0,0,1,35.3c.43,5,.3,10.4,1.28,15.35.3,1.51,1.09,2.8,1.3,4.32.29,2.07-.24,4.3-.24,6.39,0,1.58.33,3.49-.39,4.88s-1.94,1-2.67,2c-1.62,2.41,1.31,6.26,3.18,7.11,2.68,1.22,5.59.09,8.27-.41,6.7-1.23,14.2-.26,21.07-1.6,2.38-.46,5.91-.42,6.67-3.1a14.28,14.28,0,0,0-.62-7.77c-3-.44-5.53.27-4-3.63,3.07-7.67,2.46-15.86,3.05-24,.29-4,.59-7.93.84-11.9C211.89,225.14,211.79,198.59,204.85,172.41Z"/><path class="cls-1" d="M143,43.29c-1.22-3.62-6.44-3.53-9.49-3.33-4.32.29-8.51.72-11.87,3.72A35,35,0,0,1,116,48.15,40.8,40.8,0,0,0,111.45,51c-1.3,1-3.14,1.95-4,3.24-1.74,2.5-2.43,7.21-2.3,10.37a12.61,12.61,0,0,0,1.65,6.11c2,3.4,5.63,3.43,9,4.35a70.27,70.27,0,0,0,15.1,2.64c.89.05,1.77.08,2.65.2a3.31,3.31,0,0,0,2.05-.52c1-.49,2-1.12,3-1.56,1.31-.56,2.61-1.09,3.89-1.72a49.15,49.15,0,0,0,4.67-2.83,12,12,0,0,0,3.35-2.6A25.28,25.28,0,0,0,152,66.33c1-1.69,2.3-3.15,2.65-5.16.56-3.26-.25-6.48-1.36-9.53-1.22-3.35-2.88-7.08-6.6-8.06a41.39,41.39,0,0,1-4.59-1.83,5.82,5.82,0,0,0-4.61.17c-.51.22-1,.47-1.5.73"/><path class="cls-1" d="M133.81,131.77a10.49,10.49,0,0,1-5.13,1.65,11.77,11.77,0,0,0-2.14,0,33.09,33.09,0,0,0-3.45,1.13c-2.39.78-4.81,1.47-7.27,2-6.14,1.4-12.31,2.69-18.45,4.11-3,.68-6,1.39-8.91,2.16-2.2.57-6.25.67-6.77,3.3-.13.64-.17,1.4-.25,2-.15,1.24,0,2.6-1.24,3.34a7.88,7.88,0,0,1-4.57.69,4.57,4.57,0,0,1-4.31-3.77c-.57-2.55-.67-6.1.8-8.34,1.77-2.66,4.82-3.31,7.32-5,2.87-1.92,6.31-3,9.52-4.32,2.83-1.13,5.59-2.47,8.42-3.63,2.43-1,4.92-1.82,7.35-2.81,1.37-.56,2.78-1,4.15-1.56a36.79,36.79,0,0,1,3.45-1.42c2.2-.67,4.2-1.86,6.34-2.7,1.79-.7,3.46-1.6,5.28-2.26a19.47,19.47,0,0,1,3.78-1.15c.94-.13,1.86,0,2.77,0a2.93,2.93,0,0,0,1.75-1.11c.54-.51.85-1.23,1.4-1.7.81-.7,1.15.32,1.57,1s.95,1.23,1.4,1.87c1.22,1.72,2.95,4,3.29,6.1a8.66,8.66,0,0,1-.57,4A12.32,12.32,0,0,1,133.81,131.77Z"/><path class="cls-3" d="M35.33,97.21q.26-1.23.54-2.46c.79-3.3,1.81-6.55,2.83-9.8s2-6.49,2.83-9.79c.39-1.63.73-3.27,1-4.92.12-.82.22-1.64.29-2.47a3.39,3.39,0,0,0,.05-.64,2.11,2.11,0,0,1-.05-.35c0-.32.38-.62.59-.84a9.28,9.28,0,0,1,.91-.77,10.51,10.51,0,0,1,1.83-1.45,18.33,18.33,0,0,1,2.3-.91,4.31,4.31,0,0,0,1-.52,5.87,5.87,0,0,0,.83-.66,38.21,38.21,0,0,0,5.64-7.37,6.13,6.13,0,0,0,.67-1.42c.08-.27.16-.52.26-.79.27-.75.46-1.52.72-2.27a14.88,14.88,0,0,0,.93-4.56,11.47,11.47,0,0,0-.53-3.54c-.15-.5-.65-1.39-1.21-1.55.08-.15.69-.19.87-.21a2.07,2.07,0,0,1,1.39.26,3.5,3.5,0,0,1,.69.75c.61.69,1.75.76,2.53,1.17,2.54,1.32,4.49.59,7.06,1.14,3,.66,5.85,2.17,8.88,2.84,1.65.36,3.35.73,4.93,1.13s2.74-.09,4.28.09c.56,3.74,2.41,7.19,4,10.78a29.15,29.15,0,0,0,6.13,9,30.29,30.29,0,0,0,9,6.18,15.26,15.26,0,0,0,4.84.86c1.22.13,2.91-.22,3.16,1.39.12.78.15,3.37-.6,3.65a3,3,0,0,0-1.08-.8c-.24-.13-5,5.53-5.58,6-1.67,1.33-3.08,1.41-4.21,3.44-2.21,4-4.57,7.62-6.86,11.43-5.47,9.09-9.07,18.93-14.39,28-1.6,2.74-4.51,11-7.16,12.7-2.89,1.83-10.75-1.32-14.19-1.78a126.11,126.11,0,0,1-16.06-3.41c-3.85-1-11.18-1.32-11.93-5.77-.65-3.89,1.44-10.17,1.49-14.63A93.66,93.66,0,0,1,35.33,97.21Z"/><path class="cls-4" d="M42.51,70.24c-.2,1.34-.46,2.66-.76,4,4.44-5,9-9.91,13.57-14.72s9.5-9.84,14.59-14.38l1.46-1.29c-.7-.23-1.4-.43-2.12-.59-2.44-.52-4.33.11-6.68-1L58.36,46.4a16.89,16.89,0,0,1-.84,3.38c-.26.75-.45,1.52-.72,2.27-.1.27-.18.52-.26.79a6.13,6.13,0,0,1-.67,1.42,38.21,38.21,0,0,1-5.64,7.37,5.87,5.87,0,0,1-.83.66,4.31,4.31,0,0,1-1,.52,18.33,18.33,0,0,0-2.3.91,10.51,10.51,0,0,0-1.83,1.45,9.28,9.28,0,0,0-.91.77c-.21.22-.56.52-.59.84a2.11,2.11,0,0,0,.05.35,3.39,3.39,0,0,1-.05.64C42.73,68.6,42.63,69.42,42.51,70.24Z"/><path class="cls-4" d="M62.25,74.16Q74.19,60.83,85.86,47.28a8.53,8.53,0,0,1-2.8-.07c-1.58-.4-3.28-.77-4.93-1.13L77.76,46c-3.18,3.75-6.58,7.3-10,10.87-5.29,5.57-10.65,11.08-16,16.58q-7,7.17-14,14.4c-.7,2.29-1.37,4.59-1.93,6.91q-.28,1.23-.54,2.46a73.36,73.36,0,0,0-1.08,7.92C43.79,95,53,84.52,62.25,74.16Z"/><path class="cls-4" d="M37,133.17l3.87-5.12C50.47,115.38,60.06,102.74,69.52,90,77.18,79.69,85,69.36,91.37,58.23l-.07-.15c-.74-1.71-1.54-3.39-2.25-5.09-4.51,6.69-9.28,13.21-14.22,19.59C65.27,84.92,55.15,96.84,45.2,108.87q-6.31,7.63-12.69,15.2a17,17,0,0,0-.15,5C32.73,131.24,34.69,132.42,37,133.17Z"/><path class="cls-4" d="M63.64,139c6.73-11.08,13.27-22.27,19.86-33.44,3.92-6.66,8-13.22,12-19.85,2-3.28,3.92-6.58,5.74-10,.72-1.34,1.4-2.69,2.11-4a31.25,31.25,0,0,1-5.92-4.58c-.47-.46-.91-.95-1.34-1.44a105.74,105.74,0,0,1-6.65,13.82C85.83,85.88,81.82,92,78,98.3c-4.19,6.82-8.35,13.65-12.63,20.42-3.87,6.12-7.76,12.23-11.58,18.38,2.2.46,4.41.85,6.58,1.13A33.31,33.31,0,0,1,63.64,139Z"/><path class="cls-4" d="M114.42,75.53c-.25-1.61-1.94-1.26-3.16-1.39a20.65,20.65,0,0,1-4-.55l-.12.15-.34.45a.27.27,0,0,1,0,.17C100,85.76,93.47,97.29,87.44,109.1c-3,5.83-5.72,11.76-8.53,17.67a152.08,152.08,0,0,1-7.23,13.8,5.21,5.21,0,0,0,2.86-.56c2.65-1.69,5.56-10,7.16-12.7,5.32-9.1,8.92-18.94,14.39-28,2.29-3.81,4.65-7.44,6.86-11.43,1.13-2,2.54-2.11,4.21-3.44.62-.5,5.34-6.16,5.58-6a3,3,0,0,1,1.08.8C114.57,78.9,114.54,76.31,114.42,75.53Z"/><path class="cls-2" d="M83.28,161.52c.94,5.16,3,10.7,3.69,15.9.9,6.81.78,13.76.78,20.77,0,19.94-2.22,39.48-3.15,59.31-.55,11.51-1.4,23.18-1.15,34.7a29.61,29.61,0,0,1-1,8.3c-.52,2.21-1,5.37,2.25,5.05.06,1.26.68,2.35.73,3.45.09,1.76-.3,1.28-2.22,1.69-2.73.58-5.15,1.84-7.94,2.22a72.25,72.25,0,0,1-10.42.41c-2.67,0-5,.79-7.73.45.06-1.83-.77-4.32-1.14-6.23a17.82,17.82,0,0,1-.43-5.65l2.46-.16c.44-2.29-.45-4.85-.45-7.24,0-18.76-1.05-37.61-1-56.44,0-11.66,1.15-22.36,0-33.83A148,148,0,0,0,50,174.31c-4.15,7.47-1.82,18.25-2.54,26.9-1.15,13.93-1.77,27.83-1.77,41.88s-1,28,0,41.94c.23,3.37,1.08,7.12.72,10.48-.27,2.55-2.4,5.3-1.91,7.89.32,1.69,1,1.15,2.25,1.94,1.54,1,1.45,1.26,1.44,3.27,0,3.29.09,5.12-3.65,5.24-3.28.09-6.38.16-9.53.54a43.27,43.27,0,0,1-10,.09c-3.31-.36-6.47.41-9.83.41s-4.73,0-4.71-3.66c0-1.86-1.12-7.71,1.48-7.94.69-1.88-1.62-5.26-2.15-7.13-.7-2.5-1.43-5.15-1.95-7.55-.55-2.57-.21-5.06-.49-7.7-.39-3.72-1.38-7.36-1.59-11.09s.4-7.62.54-11.36A228,228,0,0,1,8.63,233c1.84-12.12,4.34-24.74,4.47-37,.09-9.52.63-19,.63-28.63,0-7.15-.38-14.87,2.4-21.39,1.51-3.54,4.39-6.85,8.1-8s6.85-3.28,8.34-7.08c1.44-.26,4,1.65,5.4,2.3a34.37,34.37,0,0,0,5.49,2.24,33.4,33.4,0,0,0,6.33.88c2.39.19,4.56,1.14,6.94,1.51,3.91.62,8.13-.08,12.05.5,1.25.19,3.65.33,4.72,1.09,2.51,1.76,3.24,6.58,4.84,9.14A37.27,37.27,0,0,1,83.28,161.52Z"/><path class="cls-3" d="M128.5,47.82a6.2,6.2,0,0,0-.56,1.79c-.29,1.49-.7,3.34.29,4.73a3.25,3.25,0,0,0,2,1.1A1.76,1.76,0,0,0,132,54.33a5,5,0,0,0,.7-2.13,4.75,4.75,0,0,0-.84-2.83c-.24-.42-.46-.85-.73-1.25s-.65-1.24-1-1.41C129.48,46.44,128.75,47.35,128.5,47.82Z"/><path class="cls-3" d="M129.89,68.11a5.24,5.24,0,0,0,.18,2.34,4.64,4.64,0,0,0,1.24,1.69c.69.46,1.4-.58,1.69-1.16a5.94,5.94,0,0,0,.43-2.61c0-1.45-.12-3.69-1.63-4.44S130,67.23,129.89,68.11Z"/><path class="cls-2" d="M129.74,46.86a5.34,5.34,0,0,1,1.41,1.08,4.2,4.2,0,0,1,.63,2.11,7.79,7.79,0,0,1-.14,2.46l-.3,1.27c0,.21-.09.42-.13.63s-.13.38-.06.5.48,0,.62-.08a2.31,2.31,0,0,1,1-.46c.18,0,.37,0,.55,0s-.39-.41-.45-.55a1.8,1.8,0,0,1,.53-.28c.14,0,.28,0,.42-.05-.05-.1-.06-.21-.1-.31l-.14-.36c0-.08-.13-.16-.16-.24s0-.2,0-.32c.33-.08.32-.34.28-.64s-.33-.65-.2-.88.23-.13.32-.2.1-.21,0-.37a1.09,1.09,0,0,0-.23-.29c-.09-.09-.3-.2-.35-.31s.08-.19.17-.27a.23.23,0,0,0,0-.33,2.87,2.87,0,0,0-.91-.67A8.25,8.25,0,0,1,131,47c-.25-.24-.57-1-1-.75a2,2,0,0,1-.51.28,1.92,1.92,0,0,0-.51.22,3.87,3.87,0,0,0-1,1.2,7.75,7.75,0,0,0-.88,4.08c0,1.1.09,2.44,1,3.16.61.5,1.88.95,2.57.45-.78-.54-1.72-.68-2.23-1.59a6.49,6.49,0,0,1-.64-2.81c-.09-1.67.42-4,2.11-4.55"/><path class="cls-2" d="M130.68,63.82a1,1,0,0,1,.84-.08,4.77,4.77,0,0,1,.8.22,6,6,0,0,1,.78.44c.24.13.46.29.7.41s.39.12.52.26c-.25,0-.5.11-.76.14,0,.13.29.27.36.32a1.74,1.74,0,0,1,.41.36,3.79,3.79,0,0,0,.42.38,2.15,2.15,0,0,1,.53.41c-.32.2-.76.15-.91.54a.74.74,0,0,0-.07.21c0,.15.07.16.18.24s.37.34.35.5a.87.87,0,0,0-.7.9.45.45,0,0,0,.23.38c.13.1.36.26.18.38s-.34,0-.48.07a1.08,1.08,0,0,0-.55.31A7.54,7.54,0,0,0,133,71c-.19.25-.38.49-.59.72a1.34,1.34,0,0,1-.32.31,5.63,5.63,0,0,1,.37-.62,3.78,3.78,0,0,0,.31-1.23,29.1,29.1,0,0,0,.08-3.1,3.81,3.81,0,0,0-.63-2.36,5.57,5.57,0,0,0-1.32-.92,7.48,7.48,0,0,1-.42,1.8,8.13,8.13,0,0,0-.3,2.41,5.6,5.6,0,0,0,.53,2.52c.32.62.88,1.09,1.19,1.71-.78.34-1.58-.55-1.95-1.15a4.64,4.64,0,0,1-.54-3,11.85,11.85,0,0,1,.62-2.94c.19-.53.64-1.72,1.33-1.57"/><path class="cls-2" d="M135.21,43.65a7.37,7.37,0,0,1,.22.87c.13.3.35.57.49.87a5.64,5.64,0,0,1,.39,2.61,15.7,15.7,0,0,1-.47,3.5c-.22,1-.71,1.86-.92,2.82s1.34.18,1.25-.54c.35.22.58.28.92,0a3.23,3.23,0,0,0,.66-1,2.41,2.41,0,0,1,.29-.4,2.72,2.72,0,0,0,.79-1.88,2.61,2.61,0,0,1-.06-.59,4.65,4.65,0,0,0,0-1.29,13,13,0,0,0-.95-2,4,4,0,0,0-.41-.89c-.15-.25-.39-.38-.53-.59-.25-.38-.27-.8-.66-1.14a1.64,1.64,0,0,0-1.91-.14"/><path class="cls-2" d="M138.85,70.66c.42-.21.7-1.1.81-1.55a11.68,11.68,0,0,1,.45-2,.05.05,0,0,0,.06,0c.09-.8-1.06-4.17-1.93-3.31-.08-.8-.16-1.61-1-1.94-.3-.12-.64-.06-.94-.18a11.45,11.45,0,0,0-1.11-.55,1.48,1.48,0,0,0-1.19.25.91.91,0,0,1-1,.07c-.31-.14-1.63-.53-1.59.24a4.22,4.22,0,0,1,1.49.4c.53.31.47.84.84,1.27.23.26.5.16.81.22a1.58,1.58,0,0,1,1,.72,5.46,5.46,0,0,0,.6,1c.25.24.58.32.76.62.39.63,0,1.55.31,2.19,1,0-.14,2.67-.64,3s-1.11.21-1,.72c.06.35.46.15.17.61.81.16,1.46-.83,2.19-1.07s.92-.3,1.18-1"/><path class="cls-2" d="M128.27,52.84a1.48,1.48,0,0,0,1.91.77,2.45,2.45,0,0,0,1.57-1.79,3.24,3.24,0,0,0,.06-1.2,2.09,2.09,0,0,0-.46-.87c-.23-.26-.45-.24-.81-.24a1.8,1.8,0,0,0-1.78.83A2.59,2.59,0,0,0,128.27,52.84Z"/><path class="cls-2" d="M132.62,66.76c.35-.37-1.24-.58-1.5-.54-1.09.19-1.4,1.61-1.34,2.52a1.73,1.73,0,0,0,2.46,1.41c1.57-.67,1.2-2.79.38-3.87"/><path class="cls-5" d="M115.51,58c-.9,1.42-1.58,2.64-1.34,4.41a13.1,13.1,0,0,0,.57,2c.11.36,1,2.65,1.61,1.87a4.7,4.7,0,0,0,.48-1.23,4.13,4.13,0,0,0,.16-2.8,8.86,8.86,0,0,1,0-2.95c.08-.51.23-2.19-.65-2.05"/><path class="cls-1" d="M94.75,51.1c.14.15.29-.05.57-.29"/><path class="cls-1" d="M282.38,305.29c0,2.36.5,4.69.71,7a47.2,47.2,0,0,0,.69,6.55c.14.57,0,2.09.32,2.54.6.89,1.68.79,2.73,1,2,.44,4.5.24,6.31,1,.43-3.44-.29-6.9-.29-10.34s.38-7.11-.06-10.5a15.32,15.32,0,0,0-5.88.65c-1,.25-4.43,1.34-4.88,1"/><path class="cls-1" d="M238.76,305c.4,2.08-.65,5-.7,7.32-.07,3.19-1,6.62-.7,9.77.25,2.69,2.44,1.68,4.54,1.39s4.61.54,6.57-.4a41.63,41.63,0,0,0,.41-7.43,61.61,61.61,0,0,0,0-7.19c-.25-2-1.39-2.57-3.15-2.77-.95-.11-4.64-.76-4.9-.35"/><path class="cls-2" d="M117.62,53.76c.36.44.67,1,1.27,1s.48-.16.9.41.73,1.2,1.12,1.79A7.91,7.91,0,0,1,122,60c.09.42.22.83.28,1.26a3.3,3.3,0,0,1-.34,1.57.79.79,0,0,0,.2.93,1.63,1.63,0,0,1,.48,1.14,5,5,0,0,1-.69,1.23,13,13,0,0,0-.7,1.46,2.79,2.79,0,0,0-.21,1.3c0,.23.19.46.22.69s0,.38,0,.54a7.89,7.89,0,0,0-1,1.89c-.35.8-1,1.88-.61,2.77.19.46,1.35,1.11,1.22,1.62-.18.74-1.45.47-1.9.32a3.3,3.3,0,0,1-.9-.4,3.67,3.67,0,0,1-.77-1A7.16,7.16,0,0,1,116,72.72a11.87,11.87,0,0,1-.71-2.64c0-.68.46-1.23.54-1.84,0-.35-.12-.6-.15-.93a3.41,3.41,0,0,1,.32-1.15,13.77,13.77,0,0,0,.14-2.32,11.33,11.33,0,0,0,.14-3,10.61,10.61,0,0,1-.14-1.69,1.45,1.45,0,0,0-.32-1.13,3.85,3.85,0,0,0-1-.43,7.46,7.46,0,0,1-1.11-.61,6,6,0,0,1-1.89-2.13,3.29,3.29,0,0,1-.62-2.31,6.28,6.28,0,0,0,.17-1.38,6.41,6.41,0,0,1,.06-1.52,4.44,4.44,0,0,1,.49-1.09,4.8,4.8,0,0,1,.87-1.13,2.8,2.8,0,0,1,.83-.49c.41-.15,1.34-.39,1.55.14s-.12,1.13-.24,1.62a2.47,2.47,0,0,0-.09,1c0,.16.19.24.26.37a3.44,3.44,0,0,1,.19.75,1.9,1.9,0,0,0,.5.66c.26.26.75.58.46,1a.69.69,0,0,1,0-.25C116.88,52.23,117.32,53.38,117.62,53.76Z"/><path class="cls-1" d="M79,310.64a1.09,1.09,0,0,0,0,.18c0,.71.49,1.08.6,1.71s.19,1.48.36,2.21a19.32,19.32,0,0,0,.92,2.65,5.88,5.88,0,0,0,.58,1.18c.24.38.77.58.46,1s-.79.41-1.12.5c-.68.19-1.47.3-2.2.49a15,15,0,0,1-6.07.34,19.09,19.09,0,0,1-4.4-1c-.17-1.26.53-2.59.55-3.91a39.64,39.64,0,0,0-.2-4.75c-.08-.78-.29-1.58-.3-2.39s.7-1.2,1.36-1.35a3.64,3.64,0,0,1,.57,0c.39,0,.79-.15,1.18-.18.59-.05,1.2,0,1.8,0,1,0,2.07-.1,3.11-.1.69,0,2-.13,2.5.41a1.3,1.3,0,0,1,.21.95,8.51,8.51,0,0,0,.1,1.05A8,8,0,0,1,79,310.64Z"/><path class="cls-1" d="M32.89,323.24c1.84-.18,3.72-.09,5.56-.13,1.39,0,.57-2.18.27-2.93s-.74-1.43-1-2.19a6.32,6.32,0,0,1-.49-2.08s.05,0,.08,0c0-.37-.22-.68-.3-1a11.33,11.33,0,0,1-.27-1.26,11.83,11.83,0,0,1,.1-3.09c.14-.89.07-1.36-.8-1.72a9.15,9.15,0,0,0-2.1-.6,8.41,8.41,0,0,0-2.51.09l-1.35.29c-.42.09-.85.08-1.26.2a20.44,20.44,0,0,0-2.44,1c-.73.31-1.44.72-1.6,1.57a4.87,4.87,0,0,0,.51,3,6.09,6.09,0,0,1,.88,1.92,11.09,11.09,0,0,1,0,3.59,4.76,4.76,0,0,1-.4,1.62c-.35.7-1,1.71-.45,2.46a1.93,1.93,0,0,0,1.93.57c.7-.19,1.28-.6,2-.73C30.48,323.53,31.69,323.36,32.89,323.24Z"/><path class="cls-5" d="M26.2,319.61c-.44,1.13-1.75,2-2.31,3.05a9.6,9.6,0,0,0-.74,1.71,10.11,10.11,0,0,0-.13,1.91c-.15,2.7,1,5.46,1.3,8.05a9.91,9.91,0,0,0,.32,1.64c.11.4.16,1.06.48,1.33s.91.46,1.32.77a6.5,6.5,0,0,0,1.41.9c2.56,1.09,5.37,1.11,8.12,1.26,1.36.08,2.67.26,4.05.34a4.41,4.41,0,0,0,3.26-.62c.84-.69.44-2.45.34-3.41-.07-.7-.21-1.44-.25-2.13a15.13,15.13,0,0,0-.14-2.22c-.11-.58-.17-1.28-.3-1.89s-.43-1.22-.61-1.82a27.51,27.51,0,0,1-.91-3.31,19.72,19.72,0,0,0-.88-3.7,17.55,17.55,0,0,0-1.29-2.32c-.19-.36-.44-.65-.65-1s-.22-.69-.49-.84c-.26.45-.49,3.17-1.33,3-.1-.49-.21-1-.3-1.44s-.3-.91-.42-1.39a7.84,7.84,0,0,1-1.6-.46,15.37,15.37,0,0,0-1.62-.41,12.79,12.79,0,0,0-1.64-.12c-.49,0-1.27-.21-1.67,0s-.61.86-.86,1.27a6,6,0,0,0-.68,1.46,4.18,4.18,0,0,1-.16.58c-.19.39-.21.38-.5.36s-.7-.44-1.11-.47a1.18,1.18,0,0,1,.24-.31"/><path class="cls-5" d="M69.68,316.54c-.24-.09-.89.22-1.23.38s-1.13.38-1.33.77a5.67,5.67,0,0,0-.19,1.38,10.92,10.92,0,0,0-.08,1.51c0,.59.11,1.25.17,1.86.08,1,.06,2.08.18,3.09.16,1.3,0,2.63.27,3.94a11.2,11.2,0,0,0,.51,2.65,9.44,9.44,0,0,0,.94,1.45c.35.53.63,1.12,1,1.64a7.93,7.93,0,0,0,2.7,2.46,2,2,0,0,0,1.29.1,14.73,14.73,0,0,1,2.65-.21c1.86,0,3.78.46,5.65.61.48,0,.87.23,1.31,0a2.53,2.53,0,0,0,1-1.3,16.36,16.36,0,0,0,1.23-6.1,8.31,8.31,0,0,0-.61-4.09c-.85-1.75-1.6-3.59-2.28-5.42a34.13,34.13,0,0,1-.95-3.74,2.88,2.88,0,0,0-1.65-2.07c-1-.27-1.07,1-1,1.7A7.61,7.61,0,0,1,79,319.7c-.86.18-.67-1.44-.69-1.92s-.09-1-.08-1.53a9.48,9.48,0,0,1,0-1.07,7.52,7.52,0,0,0-2-.08c-.74,0-1.44-.2-2.19-.19-.53,0-1.26,0-1.63.42s-.3.88-.45,1.43-.25.92-.41,1.35-.24,1.1-.83.61a3.58,3.58,0,0,1-.73-2.57"/><path class="cls-3" d="M40.2,342.13a3.34,3.34,0,0,0,.38-.17c.39-.2.59-.61,1-.85.68-.42,1.34-.24,1.81-.91a2.78,2.78,0,0,0,.5-.81c.07-.37-.13-.69-.12-1.07a4.19,4.19,0,0,0-.38-2c-.93.58-2,.67-3,1.2a6.57,6.57,0,0,1-3,.65,31.07,31.07,0,0,1-6-.42A12.72,12.72,0,0,1,27,336.54a7.25,7.25,0,0,1-1.61-1.25,3.86,3.86,0,0,0-1.19-1.12,11.45,11.45,0,0,0,.22,3,21.32,21.32,0,0,0,.56,2.71c.14.48.46.54.83.83a12.18,12.18,0,0,0,1.32,1,3.19,3.19,0,0,0,1.41.26,15.08,15.08,0,0,0,1.52.12c1.1,0,2.09.22,3.17.23,1.35,0,2.63.23,4,.24a7.94,7.94,0,0,0,4.63-1.17c.56-.39,1.25-1.28,1.92-1.43a4.78,4.78,0,0,0,0-1.51c-.06-.28-.28-.54-.36-.82a4.15,4.15,0,0,1-.08-1.17"/><path class="cls-3" d="M67.65,331.43c.21.21.23.7.31,1,.19.71.3,1.43.46,2.13a4.73,4.73,0,0,0,1.24,2.37A8.7,8.7,0,0,0,73,338.6a15.32,15.32,0,0,0,3.45.08,22.91,22.91,0,0,0,3.1,0c.86-.12,1.7-.28,2.55-.42a4.71,4.71,0,0,0,2.18-.85c.62-.55.62-1.52.74-2.33a23.23,23.23,0,0,0,.36-2.62c-.34-.13-1.32.35-1.67.47a14.24,14.24,0,0,1-2.74.67,36,36,0,0,1-6.23.24,17.31,17.31,0,0,1-2.06-.29,14,14,0,0,1-2.07-.71,8.19,8.19,0,0,1-3.32-1.59c.27.1.48-.07.73-.11"/><path class="cls-3" d="M29.55,331.87c.11.18,1.29-.71,1.52-.85a8,8,0,0,1,3.5-1,4.92,4.92,0,0,1,2.23.21,3.84,3.84,0,0,1,1.05.53c.18.13.3.33.49.42-.56-1.72-3-1.87-4.57-1.53a8.64,8.64,0,0,0-2.43,1,8.44,8.44,0,0,0-1,.58c-.37.29-.4.83-.71,1"/><path class="cls-3" d="M29.2,329.53c.61-.32,1.07-1,1.66-1.41a4.77,4.77,0,0,1,2.59-.83c1.21,0,3.08.4,3.7,1.52.26-.65-.78-1.3-1.26-1.49a6.61,6.61,0,0,0-2.7-.38,5.56,5.56,0,0,0-2.33.85c-.43.25-1.48.91-1.43,1.5"/><path class="cls-3" d="M29.08,326.83a14.48,14.48,0,0,0,1.64-1.29,3.76,3.76,0,0,1,2.67-1,6.4,6.4,0,0,1,3.51,1.52c-.61-.6-1-1.31-1.75-1.72a3.93,3.93,0,0,0-2.34-.35,9,9,0,0,0-2.2.88c-.62.26-2.05,1.05-1.88,1.91"/><path class="cls-3" d="M28.14,324.36l.1.08c.09-.84,1.6-1.48,2.25-1.75a6.8,6.8,0,0,1,2.7-.56,3.28,3.28,0,0,1,1.88.33,3.81,3.81,0,0,1,.94.81c.1-2-2.62-2.13-4-1.84a6.37,6.37,0,0,0-2.68,1.06c-.51.39-1.42,1-1.28,1.76"/><path class="cls-3" d="M30.61,319.9c-.66-.06-1.32-.86-1.76-1.26a10.44,10.44,0,0,1-1.53-1.44c-.46-.62-.93-2.43.12-2.82s2.45.85,2.79,1.86l.47,1.43a3.49,3.49,0,0,1,.26,1.38c.1-.67-.69-1.68-1.15-2.11s-1.67-1.53-1.9-.67.74,1.72,1.26,2.2c.33.31.71.48,1.06.76s.43.5.71.61c.09-.57-.06-1,.22-1.58a7.52,7.52,0,0,1,1.65-2.14c1-.87,2.83-1.33,3.76,0a2.58,2.58,0,0,1-.79,3.48,5.07,5.07,0,0,1-2.8.74c-.36,0-.73,0-1.09,0a3.25,3.25,0,0,1-1,.1c-.07-.38,2-.66,2.31-.77a4.83,4.83,0,0,0,2.14-1.32c.53-.69.33-1.25-.48-1.53a2,2,0,0,0-2.23.6c-1.15,1.23-2.19,2.71-3.87,3.25-1,.32-2.05.35-3,.61a3.89,3.89,0,0,0-2.22,1.3c-.2.31-.15.77-.38,1a2.3,2.3,0,0,1,1.18-.9c.53-.1,1.15.26,1.62.11a2.58,2.58,0,0,1,1.43-1.28c.62-.27,1.35-.57,2-.81a4.61,4.61,0,0,1,1.77-.47,16.4,16.4,0,0,1,2.11.09,15.24,15.24,0,0,1,2.23.26c.81.21,1.63.5,2.47.73a23.21,23.21,0,0,1,3.51,1.14c.31.15.44.3.74.13.14-.09.36-.46.51-.6-.81.27-1.52-.15-2.3-.35-1-.24-2-.31-2.91-.61a11.72,11.72,0,0,0-5.67-.32h0"/><path class="cls-3" d="M73.2,330.66c.15,0,.8-.85,1.06-1.06A7.52,7.52,0,0,1,78,328.42a5.26,5.26,0,0,1,2.4,0,3.32,3.32,0,0,1,1.51,1.36,2.35,2.35,0,0,0-1.64-1.65,7.83,7.83,0,0,0-1.68-.25,7.22,7.22,0,0,0-1.61,0,5,5,0,0,0-3.84,3c.07,0,.1,0,.09-.1"/><path class="cls-3" d="M72.77,327.88a.31.31,0,0,1,.13.06,5.72,5.72,0,0,1,1.69-1.16,12.1,12.1,0,0,1,2.66-.43,4.32,4.32,0,0,1,2.39.16c.39.18.9.94,1.27.92.28-.79-1.3-1.37-1.81-1.51a4.26,4.26,0,0,0-1.34-.19c-.57,0-1.12-.14-1.68-.11a5.36,5.36,0,0,0-3.21,1.18c-.27.23-1.51,1.52-1.09,1.82a.26.26,0,0,0,0-.21"/><path class="cls-3" d="M72,325.09c.13.33.52-.21.66-.34a3.65,3.65,0,0,1,1.25-.85,7,7,0,0,1,2.73-.42,4.67,4.67,0,0,1,2.46.45c.47.26.89.68,1.36.9.16-.52-.8-1.34-1.17-1.55a5.68,5.68,0,0,0-2.87-.34,3.45,3.45,0,0,0-2.57.66c-.51.41-1.91,1.28-1.74,2"/><path class="cls-3" d="M71.7,322.83a.33.33,0,0,1,.13.07,6.7,6.7,0,0,1,1.48-1.17,6.39,6.39,0,0,1,2-.39,6.6,6.6,0,0,1,4.65,1.22c-.57-1-2.17-1.73-3.19-2.24a10.51,10.51,0,0,0-2.45-.87c-.94-.21-5.55-.55-5.23-2.18.12-.62,1-.79,1.52-.85a2.69,2.69,0,0,1,1.86.67c.49.35.91.8,1.39,1.15a10.76,10.76,0,0,1,1,.65c.12.12.15.29.29.41a14.35,14.35,0,0,0-2.75-1.84c-.42-.16-2.65-.21-1.91.73a2.54,2.54,0,0,0,1.27.54,4.32,4.32,0,0,1,1.1.32c.45.19.91.38,1.36.54a6.88,6.88,0,0,0,1.27.44c.08-.23-.09-.3-.09-.52a1.52,1.52,0,0,1,.3-.77,8.82,8.82,0,0,1,1.29-1.68,4.78,4.78,0,0,1,2.62-1.4c.54-.07,1.31-.1,1.68.41,1,1.41-1.49,2.63-2.4,3.12a11.32,11.32,0,0,1-2.57.88,4.64,4.64,0,0,0-1.63.6c.38-.48,1.34-.59,1.89-.81a16.65,16.65,0,0,0,2.13-1A4.61,4.61,0,0,0,80,317.76c.45-.69-.31-.92-.94-.83a6.09,6.09,0,0,0-3,1.85c-.53.5-1,1.4-1.72,1.65a1.69,1.69,0,0,0,.44-1.36,2.9,2.9,0,0,0-.83-1.39c-.92-1-.93-2-1-3.29.18.12.42.06.64.09a3.08,3.08,0,0,0-.18,1.4,5.59,5.59,0,0,0,.54,1.48,4.91,4.91,0,0,0,.75,1.07,9.29,9.29,0,0,1,.79,1.21c-1.45.82-3.22.8-4.68,1.6a6.84,6.84,0,0,0-2.78,3.5,2.89,2.89,0,0,0,.83,0,2.57,2.57,0,0,1,.74-1.73,13.25,13.25,0,0,1,1.53-1.37,8.27,8.27,0,0,1,1.84-1c.74-.31,1.47-.44,2.13-.76"/><path class="cls-1" d="M155.61,140.89c-1-2.61-6,3.56-6.59,4.3-1,1.3-3.25,3.22-3.57,4.83-.42,2.19,4.84,5.14,6.61,4.8,2-.37-1.41-2.69.35-3.66,1.41-.78,3.4,1.47,5,.41,1.84-1.25-1.54-2.18-2-2.78-1.66-2.17,1.88-2.35,3-2.31,1,0,3.81.56,4.27-.76s-2.33-1.65-3.06-1.79a10,10,0,0,1-2.28-.56C156.2,142.84,156,141.94,155.61,140.89Z"/><path class="cls-2" d="M247.73,80.37a10.31,10.31,0,0,0-3.66.61,6.12,6.12,0,0,0-2.47,1.91c-.25.33-.46.66-.73,1l-.37.44a.13.13,0,0,1,0,.12c.29-.23.58-.45.88-.66a1.92,1.92,0,0,1,.31-.18,1.6,1.6,0,0,1,1.85.6c.79,1.07,0,3.6-.29,4.71-.87,3.11-2.74,5.87-3.56,9-.28,1.09-.43,2.15-.71,3.23-.18.75-1.14,2.47-1,3.19.07.43.89,1.22,1.17,1.64a14,14,0,0,1,1.15,2.87,196.54,196.54,0,0,1,6.22,19.92A143.83,143.83,0,0,1,249.17,143c.42,2.67.4,5.73,1.19,8.23,7.92.63,15.45,3.21,23.51,3.21,6.17,0,12.16-.68,18.18-.91.06-2.27-1-4.45-.82-6.87a23.38,23.38,0,0,1,1.51-6.63c1.7-4.58,3.74-9,5.47-13.52,2.18-5.7,4.88-11.52,6.92-17.27,1.9-5.34,2.45-10.63,3.38-16.19.17-1,.37-1.94.5-2.92a9.18,9.18,0,0,0-.14-3.87,4.82,4.82,0,0,0-.89-1.69,5.64,5.64,0,0,0-.81-.81,2.86,2.86,0,0,1-.42-.36c-.08-.08-.12-.19-.21-.26a4.5,4.5,0,0,0-1-.49c-.31-.14-.6-.33-.91-.46-.62-.24-1.21-.54-1.84-.77a12.64,12.64,0,0,0-1.85-.38l-1.5-.25a6.42,6.42,0,0,0-.87-.09c-.36,0-.7-.08-1.05-.08l-.94,0c-.36,0-.74,0-1.1,0a18.6,18.6,0,0,0-2.11-.2,17,17,0,0,1-2.13-.19l-.44,0c-.24,0-.68-.12-.88.08s-.06.28-.08.4l0,.54a19.2,19.2,0,0,1-.14,2c-.52,3.52-4,6.93-6.21,9.61-2.51,3-5.09,6.06-7.86,8.9-1.76,1.79-3.51,4.87-5.62,6.07-1-4.12-5.22-7.14-7.47-10.53-2.89-4.37-5.11-9.42-8.23-13.59-.53-.71-1.74-2.86-2.44-3.24C251,79.88,248.94,80.34,247.73,80.37Z"/><path class="cls-5" d="M243.55,87.76A86.57,86.57,0,0,0,254,87l2.32-.34c-.46-.73-.91-1.47-1.39-2.17-3.78-.38-7.56,0-11.32-.3C244.14,85,243.85,86.58,243.55,87.76Z"/><path class="cls-5" d="M309.13,88A5.46,5.46,0,0,0,307.64,84a8.43,8.43,0,0,0-2.08-1.45,78.66,78.66,0,0,1-15.79-.83,11.6,11.6,0,0,1-.11,1.26,8.79,8.79,0,0,1-1,2.78A161,161,0,0,0,309.13,88Z"/><path class="cls-5" d="M283.91,101.2c7.73.1,15.47,0,23.2.22.21-1.16.42-2.32.6-3.49-2.28-.24-4.56-.48-6.84-.74-6.47-.73-12.88-1.77-19.36-2.3C279.74,97,277.93,99.05,276,101,278.65,101.11,281.28,101.17,283.91,101.2Z"/><path class="cls-5" d="M265.51,100.7a31.83,31.83,0,0,1-3-3.66c-.5-.74-.94-1.53-1.4-2.3a175.73,175.73,0,0,0-20.27,0,20.76,20.76,0,0,0-1.11,3c-.19.72-.32,1.43-.47,2.14C248,100,256.75,100.38,265.51,100.7Z"/><path class="cls-5" d="M241.46,111.9c7.35.33,14.75-.32,22.1-.29q12.79.06,25.57.4c4.91.13,9.83.3,14.75.47.31-.8,1.22-3.5,1.51-4.31-4.56-.25-9.11,0-13.68-.26-17.07-.85-34.84.55-51.89-.64.16.46.3.93.48,1.41C240.7,109.73,241.08,110.82,241.46,111.9Z"/><path class="cls-5" d="M262.24,134.4q11.67.18,23.33-.06c3.16-.07,6.32-.16,9.47-.25.63-1.51,1.26-3,1.88-4.52q-6.72.15-13.46.24c-8.06.1-16.13,0-24.19,0a91.13,91.13,0,0,1-12.61-.62c.38,1.56.71,3.12,1,4.69C252.5,134.31,257.36,134.33,262.24,134.4Z"/><path class="cls-5" d="M268.44,150q11.74.84,23.5,1.79a23.91,23.91,0,0,1-.71-5.26,19.9,19.9,0,0,1,.51-3.36c-2,.08-4,.19-6,.25-12,.38-24.45,1-36.55-.19.23,1.65.34,3.42.57,5.12C255.94,149.4,262.18,149.53,268.44,150Z"/><path class="cls-5" d="M261.53,123.14c9.11-.08,18.22-.34,27.33-.71q5.56-.23,11.13-.48c.14-.33,2-4.45,2.14-4.79-4.52,0-9.68.24-14.21.26-7.83,0-16,0-23.85,0-6.51,0-14.37.91-20.74-.52.37,1.21,1.35,5.1,1.7,6.31C250.52,123.5,256.08,123.18,261.53,123.14Z"/><path class="cls-1" d="M238.93,150.48c1.28,1.31,2.76,2.43,4,3.83s2.21,3.15,3.63,4.36c1,.83,1.87,1.73,2.85,2.57s2.07,2.32,3.45,2c0-.76.45-1.18-.18-1.87s-1.45-.83-2-1.38c-.91-.83-2.9-2.14-2.63-3.49,1-.38,2.15,1.46,2.85,2a6.12,6.12,0,0,0,1.55.83,4.38,4.38,0,0,0,1.75.32,1.32,1.32,0,0,0,.75-1.72c-.8-1.55-4.25-.9-3.79-3.32.39-2,3.06.59,4.27-.37.72-.58-.13-1.24-.6-1.51a11.3,11.3,0,0,0-1.89-.83,6.51,6.51,0,0,1-1.87-.67,4,4,0,0,1-1.14-3.13,15.25,15.25,0,0,0-.44-4c-.33-1.15-1.07-1-2.09-.63-1.18.44-2.56,1.34-3.82.62-.49-.28-.87-.73-1.37-1a18.68,18.68,0,0,0-2.38-.94,9,9,0,0,1-2.92-2.36c-.94-1-1.68-2.32-2.62-3.37a26.28,26.28,0,0,1-3.29-4.61,38.57,38.57,0,0,0-3-4.57c-.38-.5-.75-1.09-1.16-1.54a12.23,12.23,0,0,0-2.06-1.6c-1.34-1-2.57-2.05-3.93-3a9.69,9.69,0,0,0-3.95-1.56c-1.53-.31-3.1-.55-4.65-.75-.59-.07-1.12-.32-1.72-.36a6.49,6.49,0,0,1-1.08,0,5.84,5.84,0,0,0-.92-.3,5.28,5.28,0,0,0-2.45.37,8.45,8.45,0,0,0-3.8,3c-.31.43-.72.74-1.05,1.16a2.3,2.3,0,0,0-.4,1.57,8.81,8.81,0,0,0,1.26,4.14,13.19,13.19,0,0,0,2.3,2.24,17.74,17.74,0,0,0,3.72,2.79c3.65,2,7.41,3.93,11,6.2,3.86,2.48,8,4.47,11.89,6.85a41.64,41.64,0,0,0,4.38,2.09c.61.28,1.21.63,1.82.89.33.14,1.14.54,1.48.44a.37.37,0,0,0,0-.23"/><path class="cls-5" d="M283,314.11c0,.3.64.48.83.78a5.76,5.76,0,0,1,.58,1.53c.11.48,0,3.44.68,3.2.35-1.13.47-2.31.85-3.43.13-.41.28-.85.69-.95a7.48,7.48,0,0,1,1.64,0,11.4,11.4,0,0,1,1.76.12,1.79,1.79,0,0,1,1,.3,4.66,4.66,0,0,1,.53,2.19c0,.29.15,1.91.6,1.7s.39-1.15.37-1.52a15,15,0,0,1,.25-2.41c.05-.34.18-1.14.48-1.37.82-.65.92,1.9,1,2.28a18.25,18.25,0,0,1,.07,2,15.12,15.12,0,0,0,.21,1.9c.24,1.59.42,3.18.55,4.76.09,1,.23,2,.23,3.06a17.72,17.72,0,0,1-.16,2.32,2.69,2.69,0,0,1-.28,1.13,5.06,5.06,0,0,1-.55.84,4.77,4.77,0,0,1-1.59,1.15,19.59,19.59,0,0,1-2.78.89c-.31.07-.62.24-.92.3a3.91,3.91,0,0,1-1.08-.08,7.49,7.49,0,0,1-2.35-.36,5.56,5.56,0,0,1-2.1-1.55,5.07,5.07,0,0,1-.9-1.72,7.79,7.79,0,0,1-.24-1c-.09-.45,0-.9-.06-1.35a45.21,45.21,0,0,1,0-5.46c0-1.56-.15-3.07-.15-4.62a18.43,18.43,0,0,1,0-2.35c.05-.42.3-2.05,1-2h0"/><path class="cls-1" d="M138.67,313.32c-.85.25-.53-5.45-.53-6.82,0-2.23-.88-4.67-.44-6.71,1.59,0,3.08-1,4.62-1.14a25.75,25.75,0,0,1,5.69.09c-.28,2.4,1.14,5,1.12,7.65,0,3.09.31,6.42-.07,9.47-3.53.43-7.62.52-10.75-1.09a3.82,3.82,0,0,0,.36-.92"/><path class="cls-2" d="M138,312.58a2.48,2.48,0,0,0-.73.82,14,14,0,0,0-1.22,2.77,19.9,19.9,0,0,0-.25,5.29c0,2.21.07,4.4.26,6.59a19.33,19.33,0,0,0,.38,3.76c.12.39.27.41.62.67a3.48,3.48,0,0,0,1.2.52,9.17,9.17,0,0,0,3.58.09,17.43,17.43,0,0,1,1.77,0c.56,0,1.09-.1,1.65-.1,1.13,0,2.25-.09,3.39-.09.94,0,2.37.33,3.09-.36.9-.87.92-2.27.92-3.46,0-1,0-1.91-.07-2.86-.15-1.32-.4-2.6-.67-3.9-.49-2.42-1.27-4.75-1.67-7.16a12.33,12.33,0,0,0-.82-3.59c-.39.18-.59,1.16-.63,1.55s.09,1.37-.25,1.55a30.08,30.08,0,0,1-.91-3.48c-.14-.64-.06-1.29-.21-1.92-.08-.36-.22-.64-.34-1s-.09-.81-.32-1.07a2.19,2.19,0,0,0-1.17-.4c-1-.09-2-.18-2.93-.18a1.57,1.57,0,0,0-.89.11c-.29.23-.39.85-.51,1.18a38.44,38.44,0,0,0-1.53,4.62c-.08.35-.15,2.24-.67,2-.21-.11-.48-.78-.59-1a4.74,4.74,0,0,0-.54-1c.13,0,.14-.06.24-.08"/><path class="cls-3" d="M136.27,331.36a10.12,10.12,0,0,0,.16,1.64,9.78,9.78,0,0,0,.29,1.56c.31.89,1.57,1.13,2.4,1.19a31.14,31.14,0,0,0,4.32,0c1.83-.13,3.67,0,5.5-.16a9.07,9.07,0,0,0,3.6-.79,2.29,2.29,0,0,1,1-.42c.37-.72-.15-1.86-.32-2.6-.08-.36-.28-1.85-.69-2s-1.18.7-1.54.79a7,7,0,0,1-2.46-.05l-9.25-1a10,10,0,0,1-1.68-.34c-.36-.11-1.07-.49-1.43-.38a25.11,25.11,0,0,0,.17,4.75"/><path class="cls-3" d="M142.13,323.3c.15-.14,0-.24.11-.44a2.76,2.76,0,0,1,.64-.76,5.36,5.36,0,0,1,2.54-1.37,3.3,3.3,0,0,1,1.92.06,9.81,9.81,0,0,1,1.12.73,2.42,2.42,0,0,1-.35-.44,2.49,2.49,0,0,0-1.81-.9,4.63,4.63,0,0,0-2.25.25,2.56,2.56,0,0,0-1.72,2.49.28.28,0,0,0,.26-.27"/><path class="cls-3" d="M141.77,319.45c0,.07,0,.1-.08.08a1.4,1.4,0,0,1,.64-1.28,7.36,7.36,0,0,1,1.45-.81,5.86,5.86,0,0,1,1.3-.54,3,3,0,0,1,2.48.55,12.25,12.25,0,0,1,1.18.95,7.88,7.88,0,0,1-1-1.06,3.09,3.09,0,0,0-2.13-.91,4.18,4.18,0,0,0-2.67.85c-.52.36-1.37,1.1-1.33,1.79a.87.87,0,0,0,.36,0"/><path class="cls-3" d="M140.85,315.88c.24-.05.39-.37.57-.53a7.49,7.49,0,0,1,.82-.67,4.83,4.83,0,0,1,2.84-.82,7,7,0,0,1,3,.78c.31.16.94.44,1,.86-.38,0-.83-.54-1.19-.72a6.52,6.52,0,0,0-3.52-.72,10.3,10.3,0,0,0-3.68,1.17c-.58.32-1.32.69-1.31,1.44.22-.4.37-.42.83-.43"/><path class="cls-3" d="M143.41,313.77c-.13.16-.25,0-.49,0a6,6,0,0,0-1.34-.06,3.36,3.36,0,0,1-2.27-.55c-.36-.28-2-2-1.28-2.64.32-.28,1.26.18,1.57.33.67.32,1.33.67,2,1,.51.27,2.17.9,2,1.73-1-.45-1.8-1.19-2.77-1.66a5.35,5.35,0,0,0-2-.62c-.57-.05-.78.3-.85.84-.14,1.27,1.58,1.49,2.57,1.54a7.44,7.44,0,0,1,2.41.62c.4.16.55.06.69-.37a13,13,0,0,1,.43-1.53,3.55,3.55,0,0,1,2.89-2.2c1-.07,1.92.69,1.23,1.63a5.48,5.48,0,0,1-1.54,1.19,4.51,4.51,0,0,1-.89.48c-.26.09-.56.1-.82.19a2.19,2.19,0,0,0-.88.55,4.61,4.61,0,0,0,.6-.57,6.23,6.23,0,0,1,1.28-.73c.47-.22,1.35-.64,1.48-1.18.18-.74-.77-.89-1.29-.83a2.46,2.46,0,0,0-1.47,1c-.64.86-.55,2-1.27,2.75-.48.5-1.07.89-1.57,1.39-.3.3-1.16,1.33-1,1.8.37-.12.52-.72.89-.93a3.43,3.43,0,0,1,1.38-.35,4,4,0,0,1,.19-1.37c.12-.26.37-.86.62-1a3.48,3.48,0,0,0,1.78.78,3.27,3.27,0,0,1,1.45.76c.21.23.35.6.62.73.12-.75-.14-1.74-1-1.73a6.61,6.61,0,0,1-2.64-.36c0,.1.09.11.17.17"/><path class="cls-1" d="M192.06,308.61c-1.19-1.48-1.07-6.36-2.55-8.78,1.86-.95,3.65-.41,5.72-.61,1.88-.19,3.43-.61,4.18,2.06.57,2,.24,5.11.51,7.21a27.62,27.62,0,0,1,.42,7.38,44.25,44.25,0,0,1-6.2-1c-3-.94-.46-5.47-3.13-7.34"/><path class="cls-2" d="M192.05,311.76c-.1.34-.59.69-.8,1a4.71,4.71,0,0,0-.95,2.32c-.13,2.37.62,4.66.95,7,.15,1.13.44,2.25.6,3.39.09.7.32,1.44.39,2.13a23.34,23.34,0,0,0,.36,2.47,5.51,5.51,0,0,0,1.48,2.45,4.19,4.19,0,0,0,1.19,1,2.32,2.32,0,0,0,1.17.15,20.54,20.54,0,0,0,4.29-.34c1.9-.39,3.72-1,5.6-1.5,0-.61.11-1.21.1-1.86,0-1.21-.27-2.44-.39-3.64-.1-1-.25-2-.37-3-.13-1.15-.07-2.31-.24-3.45a35.2,35.2,0,0,0-.92-5,9.11,9.11,0,0,0-.92-2.39c-.35-.55-.72-1.13-1.07-1.65-.66-1-1.16-1.81-2.49-1.62-.25,1.86,0,3.81-.3,5.66-.29-.15-.33-1.22-.37-1.53-.1-.74-.19-1.5-.25-2.23a20.15,20.15,0,0,0-.48-3.73,2.32,2.32,0,0,0-.91.15,7.59,7.59,0,0,1-1.78.2c-.87,0-1.87,0-2.24.92a3,3,0,0,0-.09,1.12,10.76,10.76,0,0,1-.3,1.68,15.41,15.41,0,0,0-.16,1.81,10.34,10.34,0,0,0-.09,1.13,4.41,4.41,0,0,1-.83-1.54c-.06-.25-.12-.54-.18-.81,0-.1-.12-.26-.08-.35a8.2,8.2,0,0,1,.72-.57"/><path class="cls-3" d="M196.54,333.28a13.8,13.8,0,0,0,4.92-.21c1.22-.25,2.78-.12,3.8-1a2.46,2.46,0,0,0,1-2.13,11.66,11.66,0,0,0-.12-2c0-.32,0-1.19-.36-1.41s-1.11.12-1.44.23a24.43,24.43,0,0,1-3.59.78c-1.7.25-4.91,1.46-6.41.05-.46-.42-.89-.94-1.34-1.41a3.67,3.67,0,0,1-1.18-2.14c-.37.38-.19,2.35-.11,3,.11.87.4,1.82.57,2.72a5.87,5.87,0,0,0,.69,2.22C193.64,333,195.51,333.11,196.54,333.28Z"/><path class="cls-3" d="M196.17,321.28h0a2.48,2.48,0,0,1,2.38-1.66,2.39,2.39,0,0,1,1.58.37c.31.19.49.57.79.72.32-.85-1.47-1.69-2.1-1.64-.81.06-2.09.73-2,1.65"/><path class="cls-3" d="M195.81,319.17c.21-.26.41-.65.66-.95a3.18,3.18,0,0,1,2-1,2.78,2.78,0,0,1,1.52.14c.33.17.57.49.89.65.06-.23-.43-.54-.62-.65a2.63,2.63,0,0,0-1.37-.34,2.69,2.69,0,0,0-1.75.45,2.79,2.79,0,0,0-.74.9c-.15.3-.11.65-.27.94"/><path class="cls-3" d="M194.25,316.79c.06.08.07.08,0,0-.18-.58.89-1.13,1.25-1.39a5.31,5.31,0,0,1,2.32-.94,2.9,2.9,0,0,1,2.91.82c0-.48-.5-.93-.83-1.17a2.36,2.36,0,0,0-1.8-.3,11.38,11.38,0,0,0-2.25.94,4.18,4.18,0,0,0-1.27.72c-.2.22-.21.51-.36.75"/><path class="cls-3" d="M198.84,313.11c-.14.19-.28.4-.53.42a.65.65,0,0,1-.48-.2c-.24-.18-.46-.38-.71-.56s-.63-.5-1-.74a6.07,6.07,0,0,0-.74-.45,6.74,6.74,0,0,0-1-.49,3.55,3.55,0,0,0-.72-.15,2.49,2.49,0,0,0-.77,0,3.26,3.26,0,0,0-.82.19c-.28.1-.67.39-.64.73a1,1,0,0,0,.32.6,1.61,1.61,0,0,0,.84.4,5.71,5.71,0,0,1,.91.21,12,12,0,0,0,2.25.7,12.92,12.92,0,0,1,1.76.14c-.24,0-.45.17-.67.19A4.64,4.64,0,0,1,196,314l-.71-.09c-.24,0-.48-.09-.72-.13-.4-.07-.8-.19-1.2-.25a8.56,8.56,0,0,1-1.85-.49,1.11,1.11,0,0,1-.82-1,.9.9,0,0,1,.27-.69,2.74,2.74,0,0,1,.66-.61,2.7,2.7,0,0,1,1.14-.38,4,4,0,0,1,1.79.19,7.3,7.3,0,0,1,1.47.69c.23.14.46.26.68.4a6.26,6.26,0,0,1,.49.41c.27.26.55.49.79.77l.25.26c0,.05.11.17.17.19a1.25,1.25,0,0,0,.16-.24,1.6,1.6,0,0,1,.39-.43c.15-.14.27-.32.41-.46a2.24,2.24,0,0,0,.31-.43,8.66,8.66,0,0,1,.74-1.15,2.47,2.47,0,0,1,1.27-.77c.33-.08,1.16-.25,1.37.13.45.86-1.73,1.64-2.19,1.93a7.78,7.78,0,0,0-1,.82,9.33,9.33,0,0,1-.84.55c-.19.14-.36.37-.6.43.26-.42.84-.57,1.23-.81a7.45,7.45,0,0,0,1-.91c.37-.35,1.25-1.14,1.08-1.75-.64.11-1.08.8-1.46,1.26S199.3,312.52,198.84,313.11Z"/><path class="cls-3" d="M197.47,313.88c-.07.06-.22,0-.31,0a2.7,2.7,0,0,0-.92.48,8.06,8.06,0,0,0-1.07.86c-.47.47-.92,1-1.4,1.45a10.37,10.37,0,0,1-1.73,1.36,6.51,6.51,0,0,1-1,.57,2.81,2.81,0,0,1-1.21.21,1.3,1.3,0,0,1,.83.69c0-.1.15-.25.21-.31a4.76,4.76,0,0,1,.63-.56,6.32,6.32,0,0,1,1.1-.64c.25-.13.51-.24.76-.36a9.48,9.48,0,0,0,1.27-.65,7.06,7.06,0,0,0,2.12-2.06,5.56,5.56,0,0,0,.37-.78.88.88,0,0,1,.18-.29.67.67,0,0,0,.09.53,3.47,3.47,0,0,1,.5,1.19,3.19,3.19,0,0,1-.22,1.29c-.14.46-.25.94-.37,1.41s-.21.77-.34,1.15c0,.1-.12.26-.09.36s.11-.24.16-.32.24-.41.46-.41.54.25.81.19a1.13,1.13,0,0,0-.05-.32,3.93,3.93,0,0,0-.06-.48c0-.27-.06-.53-.1-.79s-.14-.61-.19-.91a9.48,9.48,0,0,1-.09-1.6,1.09,1.09,0,0,0-.12-.58c-.08-.15-.26-.26-.31-.42"/><path class="cls-5" d="M236.64,315.74a2.87,2.87,0,0,1,.33-.9c.18-.26.34-.25.65-.21.07.52.09,1.07.15,1.59s-.11,1.25.22,1.6a1,1,0,0,0,1.16.11c.5-.28.55-.59.68-1.12s.1-1,.23-1.43c.17-.61.45-.79,1-1.05a9.64,9.64,0,0,1,2.46-.77,3,3,0,0,1,1.57.33c.54.21,1.62.18,1.92.69s0,1.31.08,1.91a6.1,6.1,0,0,0,.2.79,7.85,7.85,0,0,0,.2,1c.25.66.77,0,1-.4a4.67,4.67,0,0,0,.2-1c.07-.38.18-.74.25-1.12a7.59,7.59,0,0,1,.5-1.48c1.58.09,1.38,2.38,1.38,3.51,0,.7,0,1.4,0,2.09a7.24,7.24,0,0,1,0,1.68,11.21,11.21,0,0,0-.24,1.74c-.13,1.41-.07,2.86-.29,4.26a31.07,31.07,0,0,0-.75,4.75c0,.55.16,1.21-.32,1.57a7.77,7.77,0,0,1-1.86.83,6.82,6.82,0,0,1-2.57.48c-.61,0-1.21,0-1.81.05-1.49.05-3.16.2-4.32-.9a19.3,19.3,0,0,1-1.53-1.73,6.24,6.24,0,0,1-1.16-2.94,5,5,0,0,1-.22-.93c0-.29.09-.57.09-.87,0-.93.15-1.82.15-2.75v-2.81a19.22,19.22,0,0,1,.08-2.41c.1-.77.15-1.56.28-2.33C236.44,317,236.51,316.35,236.64,315.74Z"/><path class="cls-2" d="M242,336.77a5.65,5.65,0,0,1-.59,0,6.36,6.36,0,0,1-2.07-.91,15,15,0,0,1-1.65-1,5.49,5.49,0,0,1-1.81-2.86,6.3,6.3,0,0,1-.16-1.51c0-.37-.21-1.54.48-1.34.5.15.8,1.05,1.17,1.41a6.51,6.51,0,0,0,2.06,1.33,6.79,6.79,0,0,0,1.63.29,11.5,11.5,0,0,0,1.18.08,8.27,8.27,0,0,0,2.28-.14,6.56,6.56,0,0,0,2-.74,8.24,8.24,0,0,0,1.41-1.23c.31-.32.63-1,1.16-.94,1.21.2.77,2.4.67,3.17-.06.44,0,.92-.08,1.36s-.19.31-.43.48l-.92.58a11.28,11.28,0,0,1-1.67.83,21.24,21.24,0,0,1-2.58.89A6.93,6.93,0,0,1,242,336.77Z"/><path class="cls-2" d="M238.75,326.54a12.18,12.18,0,0,1,1.16-1.09,5.72,5.72,0,0,1,3.73-.66,5.58,5.58,0,0,1,2.64,1,9,9,0,0,1,1,1,2.29,2.29,0,0,0-.39-1.14,3,3,0,0,0-1.69-1.09,7.52,7.52,0,0,0-3,0,6.19,6.19,0,0,0-1.65.44c-.45.22-.56.57-.75,1"/><path class="cls-2" d="M238.75,324.32c.08-.09,0-.15.07-.24a1.06,1.06,0,0,1,.27-.29,7.51,7.51,0,0,1,1.31-1,8.28,8.28,0,0,1,3.61-1.21,3.79,3.79,0,0,1,3,.84c.42.41.75,1,1.18,1.37-.24-.37-.43-.8-.69-1.17a4.34,4.34,0,0,0-2.16-1.35,5,5,0,0,0-3.16-.08,7.13,7.13,0,0,0-1.81,1,4,4,0,0,0-1.39,1.47"/><path class="cls-2" d="M238.23,319.44a6.65,6.65,0,0,1,1.74-1.33,15.06,15.06,0,0,1,2.55-.88,10.16,10.16,0,0,1,3.71-.5,3,3,0,0,1,2,.84c.24.25,1,.9.84,1.28a9.4,9.4,0,0,1-1-.84,5.44,5.44,0,0,0-2.89-1.1,8.67,8.67,0,0,0-5.14,1.45,5.15,5.15,0,0,0-1.38,1.15"/><path class="cls-2" d="M239.07,321.53c.05,0,.19-.14.29-.21a10.47,10.47,0,0,1,1.38-.79,7.65,7.65,0,0,1,3.84-.89c1.17,0,3.45.07,3.86,1.47.06-.34-.4-1.06-.6-1.31a2.59,2.59,0,0,0-2.25-.94,13.16,13.16,0,0,0-2.92.52,7.39,7.39,0,0,0-3.6,1.89"/><path class="cls-2" d="M242.91,317.17h-1.52c-1.13,0-2.19.35-3.24-.2-.73-.39-2.06-1.48-1.61-2.47a2.75,2.75,0,0,1,1.87-1.16,4.94,4.94,0,0,1,3.35.51,4.33,4.33,0,0,1,1.86,1.58,3.79,3.79,0,0,1,.53,1.52,10.08,10.08,0,0,0-3.58-2.65,3.68,3.68,0,0,0-1.85-.46c-.53.08-1.44.41-1.41,1.05.05.8.94,1,1.59,1.16s1.23.3,1.84.48a7.93,7.93,0,0,1,1.58.68c.35.19.76.29,1.09.47a16.55,16.55,0,0,1,2.13-3.12,9,9,0,0,1,2.38-1.56,3.17,3.17,0,0,1,1.25-.25,2.54,2.54,0,0,1,1.34.06,2.33,2.33,0,0,1,1.17,1.43,2,2,0,0,1-.78,2.2c-1.1.9-2.67.85-4,1.33a7.93,7.93,0,0,1-2.55.51,1,1,0,0,1-.68-.14,6.68,6.68,0,0,0,1.72-.52,18.85,18.85,0,0,0,2.59-.77,2.37,2.37,0,0,0,1.47-1.17c.16-.34.47-.95.26-1.31s-.81-.45-1.19-.46a3.25,3.25,0,0,0-1.84.37,11.16,11.16,0,0,0-2.29,2.41c-.46.51-.83,1.29-1.53,1.45a11.44,11.44,0,0,1-1.43.2c-.3,0-.61,0-.92,0a7.36,7.36,0,0,1-.81.06,4.33,4.33,0,0,0-2.83.87,8,8,0,0,1-2,1.28,9.61,9.61,0,0,1-2.29.52c-.36.06-.72.06-1.08.11-.18,0-.63,0-.74.23s.34.51.39.76c.19,0,.47-.29.64-.38a8.37,8.37,0,0,1,1.48-.52,13.41,13.41,0,0,1,1.61-.47c.59-.12,1.19-.15,1.79-.23a11.13,11.13,0,0,0,3.14-1c.54-.26,1.06-.5,1.58-.8.32-.19.6-.42.93-.6a1.14,1.14,0,0,1,.79-.1c.19.07.35.28.54.36s.65.31,1,.46c.67.31,1.41.53,2.06.87s1.42.93,2.21,1.27a16.9,16.9,0,0,0,3,.87,28.06,28.06,0,0,0,5.1.39c-.3-.23-.93-.11-1.29-.2a1.34,1.34,0,0,1-.92-.5,1.31,1.31,0,0,0-1.15-.67,17.79,17.79,0,0,1-2.31,0,13.16,13.16,0,0,1-5-2.28,8.38,8.38,0,0,0-1.64-.82,2.89,2.89,0,0,0-.66-.16.89.89,0,0,0-.57.16.23.23,0,0,0,.25.12"/><path class="cls-2" d="M294.6,329.46a.73.73,0,0,1,.37-.31,3.24,3.24,0,0,1,.17,1.66,8.21,8.21,0,0,1-.15,1.8,3.81,3.81,0,0,1-.5,1.5,3.68,3.68,0,0,1-1.15,1.14,7.14,7.14,0,0,1-3.11,1.58,12.91,12.91,0,0,1-4.32-.57,8.09,8.09,0,0,1-2-1,1.82,1.82,0,0,1-1-1.17,4.88,4.88,0,0,0-.43-1.25,5,5,0,0,1-.52-1.21,7.71,7.71,0,0,1,0-1.36,10.11,10.11,0,0,1,0-1.35c.28-.12.58.55.72.75a1.67,1.67,0,0,0,.49.5c.22.12.45.08.66.19.58.31,1.14.6,1.7.93a10.49,10.49,0,0,0,3.23.8c.46.1,1,.08,1.43.15a5,5,0,0,0,1.29.07,4.08,4.08,0,0,0,1.36-.59,3.4,3.4,0,0,0,.75-.41,2.45,2.45,0,0,0,.36-.6C294.17,330.41,294.33,329.83,294.6,329.46Z"/><path class="cls-2" d="M284.49,322.11c.34-2.16,3.31-2.21,5-2.17s2.79.88,2.48,2.75c-.32-.3-.47-.88-.89-1.23a4.27,4.27,0,0,0-2-.74,5.47,5.47,0,0,0-2.42.26,11,11,0,0,0-1.53.93"/><path class="cls-2" d="M286.46,329.42c.14-1.91,4.28-.8,5.3,0,.93-3-7.07-2-6.68.42"/><path class="cls-2" d="M284.49,325.87c.62.11,1.2-.39,1.76-.6a6.49,6.49,0,0,1,2.43-.39c1.4,0,2.85-.16,3.53,1.31-.41-.45-.52-1-1-1.4a4.32,4.32,0,0,0-2.93-.9c-1.45,0-4.79.53-4.35,2.77"/><path class="cls-2" d="M287.45,318.75a3.05,3.05,0,0,0-.79-.19,9,9,0,0,0-1.37,0c-1.25,0-2.5,0-3.75,0s-2.18-.91-3-2c-.5-.66-1.2-1.66-.75-2.57s2.13-.59,2.92-.59a6.17,6.17,0,0,1,3.53.84c1.86,1.12,2.18,2.78,3,4.64,0-1.8-3-2.83-4.35-3.27-.78-.26-4.06-1.83-3.38.37.43,1.42,2.84,1.55,4,1.77,1.46.28,4.25.56,5.15,2a13,13,0,0,0,3.7-2.75c1.21-1.08,3.59-1.14,4.5.41,1.13,1.9-2.85,2.71-4.12,2.56s-3.2-.6-4.27.16c1.25-.06,2.62-.65,3.89-.76.77-.07,3.62-.34,3.18-1.78s-5.72,1.89-6.7,2.36a4.46,4.46,0,0,0-1.43-3.15c-.53-.51-1.88-1.63-1.54-2.49a2.08,2.08,0,0,0,.92.16,8.82,8.82,0,0,0,1.21,2.18c.56.87,1.6,1.59,1.37,2.7-1.75-.05-3.62,1.66-5.11,2.4-1.27.63-1.72,1-1.79,2.51.28-1.23,3.2-1.17,4.19-1.52a2.5,2.5,0,0,0,1.55-1.18,8.84,8.84,0,0,1,.54-1,6.46,6.46,0,0,1,1-.79"/><path class="cls-5" d="M189.69,55.88a5.65,5.65,0,0,1-1-.13,8.85,8.85,0,0,0-2.12,0c-1.47.32-1.9,2.7-1.34,3.87.84,1.81,3.67,1.91,5.12.87a2.36,2.36,0,0,0,.64-3c-.31-.8-1-1.23-1.34-2"/><path class="cls-5" d="M168.36,56.73c-1.2-.06-1.62,1-1.88,2.08a2.08,2.08,0,0,0,0,1.57c.44.69,1.33.64,2,.63,1.13,0,3.18-.29,2.89-1.83a4.32,4.32,0,0,0-1.71-2.32,2.08,2.08,0,0,0-1.35-.26"/><path class="cls-3" d="M194,50.77a12,12,0,0,0,.44-1.84c0-.32,0-1.08-.24-1.29-.9-.76-.8-2.28-.89-3.34-.26-3.22-1.25-6-2.08-9.11a31.68,31.68,0,0,0-1.78-5.54,3.64,3.64,0,0,0-1-1.47c-.84-.59-1.43.07-2.2.49-3,1.6-6.14,3-9.19,4.36-3.34,1.53-7,2.39-10,4.62-1.63,1.21-3.28,2.43-5,3.55a5.88,5.88,0,0,0-1.71,1.22c-.43.64-.29,1.4-.61,2.16a18.14,18.14,0,0,0-1.17,3.66,6,6,0,0,0,.24,3.75c.15.4.16.81.28,1.21s.51.91.3,1.17-1.21.15-1.46.21a3.73,3.73,0,0,0-1.2.46c-.85.52-.86,1.5-.87,2.42A2.33,2.33,0,0,0,157.64,60a11.76,11.76,0,0,1,3.61,1.72c1.61,1.16,2.77,2.79,4.38,3.94,2.16,1.55,4.49,2.2,5.13,5.09a6.21,6.21,0,0,1-1.67,5.9c-1.49,1.33-2.66-.32-3.78-1.35-1.37-1.25-3.06-2.71-5-2.86-.7-.06-1.67,0-2.13-.56s-.14-1.53-.15-2.14c0-1.5-1.11-2.45-1.71-3.73-.28-.59-.59-1.2-.82-1.79-.34-.84,0-1.39-.09-2.23a5.58,5.58,0,0,0-.88-1.82c-.62-1-1.51-2-2.2-3A8.12,8.12,0,0,1,151,51a7.87,7.87,0,0,1,1-2.36c.35-.63.88-.93.72-1.72-.21-1-.81-1.78-.67-2.81a5.14,5.14,0,0,0-.54-2.61A38.82,38.82,0,0,1,149.3,34a19.25,19.25,0,0,1-.18-6.51c.23-1.36,1-2.87.79-4.27A8.75,8.75,0,0,0,149,21a7.4,7.4,0,0,1-.14-5,6.66,6.66,0,0,1,4.47-4.66,9.86,9.86,0,0,0,2.49-.89c.62-.46.53-1.49.63-2.18a5,5,0,0,1,.43-1.56,6.58,6.58,0,0,1,3.48-2.63C163.26,2.82,166.4,2,169.41,1c2.15-.72,4.41-1.42,6.68-.75,1.19.35,2.27,1,3.44,1.48a16.71,16.71,0,0,0,3.19.94,21.32,21.32,0,0,0,3.66.26c1,0,1.68-.65,2.59-.69,1.26,0,2.55,1.93,3.32,2.68a12.75,12.75,0,0,0,2.16,1.72c1.21.76,2.22,1.75,3.51,2.4.6.3.94.14,1.51.28.82.21,1.14,1.5,1.36,2.17,1.25,3.81,2.19,7.59,3.95,11.22A13.91,13.91,0,0,1,206,30c-.14,2.27-1.05,5-3.24,6-.43.21-1.25.29-1.51.68a3.8,3.8,0,0,0-.09,2.09,8.69,8.69,0,0,0,.56,1.77,8.33,8.33,0,0,1,.34,1.91,4.51,4.51,0,0,1,.17,1.15c-.07.52-.48.64-.86.94-1.09.91.78,2.63,1,3.7a5,5,0,0,1-.32,2.82c-.93,2.94.33,6,.25,9,0,1.93-1.12,2.55-2.45,3.81-.61.59-1.16,1.22-1.81,1.78s-.63.56-.73,1.4c-.12,1,.08,2.09,0,3.12-.12,1.48-.66,1.13-1.87,1.24-1.43.14-.85.74-1,1.86s-.69,1.65-1.81,1.68-3.24.85-4.34.42-1.67-2.16-2-3.12a10.82,10.82,0,0,1-.21-1.88,5.85,5.85,0,0,1-.21-1.66c.23-1.6,1.19-1.33,2.24-2.13,1.76-1.34,2.42-3.66,3.79-5.35.44-.55.8-1.32,1.44-1.66s1.54-.1,2.3-.26A3.74,3.74,0,0,0,198.56,56c0-1.09.19-3.3-1.24-3.54-1-.15-1.66,1.32-2.45,1.18S193.92,51.39,194,50.77Z"/><path class="cls-2" d="M119.63,41.94c.4-.32.79-.63,1.18-1a13.67,13.67,0,0,1,1.29-1.14,8.66,8.66,0,0,1,1.32-.58c.33-.14.72-.18,1-.34s.78-.42,1.16-.63a9.55,9.55,0,0,1,2.31-1c.73-.19,1.48-.35,2.22-.57a18.52,18.52,0,0,1,2.38-.62c.58-.1,1.16-.28,1.75-.35a18.79,18.79,0,0,0,2.25-.19,9.1,9.1,0,0,1,1.63-.35,16,16,0,0,1,4.93.07,6,6,0,0,1,2.51,1.2,21.87,21.87,0,0,1,1.67,1.92,12,12,0,0,0,3.34,2.73A2,2,0,0,1,152,42.78a4.63,4.63,0,0,0,1.86,2.49c.46.41.42.71.26,1.27-.27,1-.51,1.48.38,2,1.32.76.85,2,1.52,3.21.33.59.91,1,1.29,1.54a3.26,3.26,0,0,1,.3,2.12c-.06.93-.21,1.12.6,1.53.52.26.78.46.83,1.1a13.19,13.19,0,0,1-.32,2.33c0,.71,0,1.44-.08,2.14s.08.42.42.75a1,1,0,0,1,.3,1,8.25,8.25,0,0,1-1.78,4.6c.67.35-.15,1.7-.43,2.08-.95,1.28-2.6,1.28-4.06,1.28s-2.23,1.07-3.3,2c-.29.26-1,1.09-1.52.94-.3-.1-.2-.31-.38-.58a8.75,8.75,0,0,1-3.93,2.46,5.34,5.34,0,0,1-2.66.14c-.45-.11-1.11-.47-1.55-.24-.26.14-.44.76-.57,1a4,4,0,0,1-.71.92,2.68,2.68,0,0,1-2.21.79c-1.79-.13-3.64-2-5.4-.8-.32.21-.58.66-1,.55s-.87-.93-1.36-1.17a1.61,1.61,0,0,0-.92-.16c-.44.08-.75.48-1.23.39A6.54,6.54,0,0,1,124,77c-.44-.36-.81-1-1.26-1.3-.3-.2-.74-.14-1-.53.81-.59,1.73-.06,2.57,0,.65.08.16-.23.64-.54s1.14.69,1.6.79c1,.23,1.45-1,2.53-.85.69.13,1.1.49,1.82.15s1.17-.91,2-1,1.85.09,2.74-.07a6.54,6.54,0,0,0,2.88-1.93,2.36,2.36,0,0,1,2.27-.59,3.08,3.08,0,0,0,2.62-.82,8.39,8.39,0,0,0,1.44-2.06,3.81,3.81,0,0,0,.57-1.14,5.46,5.46,0,0,0-.17-1.55,11.13,11.13,0,0,0-.31-2.62c.69.24,1.76-5.07,1.66-6.14-.11-1.25-.11-2.93-.86-4-.47-.66-1.16-.13-1.65-.55s-.41-1.17-.57-1.61a2.77,2.77,0,0,0-.85-1.31c-.55-.36-1-.1-1.49.22-.27.19-.81.8-1.19.66s-.4-1.05-.92-1.12-.69,1-1.18,1.18c-.3-.2-.27-.75-.39-1.07a7.65,7.65,0,0,0-.8-1.31A3.88,3.88,0,0,1,136.1,46c0-.61.39-2,0-2.4s-1.16.19-1.54.53c-.1-.91-1.13-2.88-2.15-1.58-.21-.41-.08-.66-.55-.45s-1,1.46-1.29,2c-.16-.35-.35-1.17-.74-1.25a4.8,4.8,0,0,0-.32.85c-.37-.31-.5-1-1.1-1.09-.45-.07-.93.35-1.41.39a2.74,2.74,0,0,0-1.69.5c-.71.6-1.09,1.6-2.14,1.62-.66,0-1-.24-1.53.33-.81.88-.87,2.35-1.87,3.07-.56.41-1.23,0-1.84.19s-1.08.72-1.71.57c-1.22-.29-1-2.34-1.08-3.24a1.12,1.12,0,0,1,.3-.85,5.75,5.75,0,0,1,.93-.69c.16-.13.28-.33.45-.46s.63-.36.91-.6C118.34,42.94,119,42.44,119.63,41.94Z"/><path class="cls-5" d="M268.37,65.32a18.28,18.28,0,0,1-1.86.6,7.47,7.47,0,0,1-4.52.42,4.7,4.7,0,0,1-1.33-.7,3.93,3.93,0,0,1-.77-1c-.19-.32-.43-.61-.62-.94s-.52-.74-.32-1,.57-.13.81-.13a21.63,21.63,0,0,1,2.18.11c.43,0,.86,0,1.28.12s.48.26.73.33c.52.14,1.28-.38,1.89-.32a13.74,13.74,0,0,1,1.38.43,8.36,8.36,0,0,1,1.22.3,2.38,2.38,0,0,0,.84.18c.16,0,.6-.17.62.1a4.74,4.74,0,0,1-.46.67,3.37,3.37,0,0,1-.71.65A2,2,0,0,1,268.37,65.32Z"/><path class="cls-2" d="M262.29,39.17c-.43.06-.94-.31-1.41-.33a4,4,0,0,0-1,.08c-.48.12-.81.11-1.13.51s-.69.75-.75,1.12a4,4,0,0,0,.73-.15,4.56,4.56,0,0,1,.82-.08,6.52,6.52,0,0,1,1.46.22c.74.19,1.52.51,2.26.77a7.4,7.4,0,0,1,1,.46c.22.12.6.44.85.44.63,0,.47-1.08.23-1.4a2.13,2.13,0,0,0-.57-.51c-.24-.16-.67-.22-.72-.56"/><path class="cls-2" d="M281.89,47.47c0-.13-.24-.57-.29-.81a4,4,0,0,0-.13-.69,5.61,5.61,0,0,0-1.5-1.89,4.53,4.53,0,0,0-1.39-1c-.51-.22-.91-.61-1.39-.84s-.73-.32-1.08-.51a4.22,4.22,0,0,0-1.36-.39,5.2,5.2,0,0,0-2.15.08,5.27,5.27,0,0,0-1.94.92c-.28.21-.63.41-.25.7.22.17.69.1,1,.1h1a8.77,8.77,0,0,1,1.15-.09c.92.09,1.66.78,2.59.78a2.19,2.19,0,0,1,1.92.93,11.33,11.33,0,0,1,1.05,1.74,13.76,13.76,0,0,1,.73,1.68c.14.37.34,1.07.78,1.18a1.21,1.21,0,0,0,1.06-.38,1.59,1.59,0,0,0,.23-.65c0-.19-.06-.5.08-.65"/><path class="cls-3" d="M278.23,49s-.31-.12-.41-.19a2.06,2.06,0,0,1-.39-.39,1.56,1.56,0,0,0-.83-.39c-.7-.22-1.36-.56-2.07-.71a2.09,2.09,0,0,0-.86-.09l-1.11.18a1.64,1.64,0,0,0-.92.56c-.12.13-.49.5-.45.69a6.11,6.11,0,0,1,.65.38,7.5,7.5,0,0,0,3,1.12,4.69,4.69,0,0,0,2,0,5.77,5.77,0,0,0,.91-.32,1.75,1.75,0,0,0,.57-.35"/><path class="cls-2" d="M278.61,49.72c.18-.1-.5-.64-.59-.73a3.66,3.66,0,0,0-1.85-1.17c-.56-.1-1.1-.34-1.68-.39-.29,0-.57-.06-.86-.11a2.25,2.25,0,0,0-1.42.4,1.23,1.23,0,0,0-.52.44c-.09.21,0,.48-.09.7a1.27,1.27,0,0,0-.15-.31c-.05-.12-.06-.27-.11-.4s-.17-.61-.35-.75c.11.09.24.3.37.24s0-.39,0-.58c.12.15.46.75.68.64,0-.19-.27-.63-.15-.8s.42.3.5.45c.16-.05.2-.32.28-.47s.35-.63.5-.66c.33-.07.33.66.38.91.08-.24.44-1.3.77-1.18s.11.79.25,1c.28-.15.46-.58.81-.58a1.5,1.5,0,0,1,.06.84c.25.17.54-.54.84-.39s.2.86.31,1.1c.2-.1.4-.66.71-.56s.15.72.31.9.45-.27.69-.27,0,.92.13,1.14c.1,0,.32-.33.42-.42.15.34,0,.73.09,1a1.29,1.29,0,0,1-.59.41c-.31.12-.58.26-.89.38a5.59,5.59,0,0,1-1.22.23,2.2,2.2,0,0,1-1.08,0,8.29,8.29,0,0,1-2.27-.93,4.39,4.39,0,0,0-1.22-.73c.67.21,1.31.57,2,.77a5.59,5.59,0,0,0,1.8.44,8.28,8.28,0,0,0,2.13-.37l.74-.21a5.61,5.61,0,0,1,.66-.26.14.14,0,0,0,0-.11"/><path class="cls-2" d="M275.55,50.6c.56,0,1.66-.09,1.65-.85,0-.3-.1-.59-.1-.9a1.36,1.36,0,0,0-.34-1,2.1,2.1,0,0,0-1.29-.58,1.74,1.74,0,0,0-1.39.41,1.37,1.37,0,0,0-.41.82,2.16,2.16,0,0,0,.56,1.72A2.56,2.56,0,0,0,275.55,50.6Z"/><path class="cls-2" d="M271.91,50.65a2.54,2.54,0,0,1-.57,1.48,3.64,3.64,0,0,0-.34,1.66c0,.49.18.53.57.73a8,8,0,0,1,.32-1.54,5.86,5.86,0,0,1,.6-1.55c.22-.46,0-.75-.58-.62"/><path class="cls-2" d="M278.35,50.9c0,.31.51.91.66,1.17s.75,1,.76,1.29c.21,0,.43-.19.64-.25a11.73,11.73,0,0,0-1.07-1.47,2,2,0,0,0-.43-.56c-.16-.08-.09,0-.24,0s-.22.22-.4,0"/><path class="cls-2" d="M276.12,51.56c0,1,.22,2,.26,3a2.29,2.29,0,0,0,.64,0c-.11-.47-.06-1.05-.17-1.55a5.94,5.94,0,0,1-.32-1.48,5.42,5.42,0,0,0-.57,0"/><path class="cls-2" d="M273.73,51.72c.19.11-.05,1.21-.08,1.49s-.06.54-.09.83a2.27,2.27,0,0,0-.07.73,3.57,3.57,0,0,0,.8,0,11.63,11.63,0,0,0,0-1.56,3.79,3.79,0,0,0-.1-1.47c-.23-.05-.39,0-.56-.18"/><path class="cls-2" d="M270.34,49.91c.35.45-1.32,1.28-1.56,1.71.16.07.34.11.49.19s.22.21.4.24c.1-.3.46-.58.67-.82a3.39,3.39,0,0,0,.44-.56c.07-.13.1-.11.14-.27a.49.49,0,0,1,.08-.23.31.31,0,0,1-.33-.35"/><path class="cls-5" d="M166.94,43.59c.53-.5.5-1.62.5-2.44,0-1.08.34-2.09.23-3.13a36.62,36.62,0,0,1,1,3.59c.3,1,.3,1-.5,1.74a4.58,4.58,0,0,1-1.46,1"/><path class="cls-5" d="M185.85,42.61c0,.18,0,.26.18.22a10,10,0,0,0,.86-2.42c.27-.76.88-2.08.68-2.88,0,2.06.72,3.93.94,5.78-.46-.33-.91-.08-1.44-.2s-.52-.68-1.22-.5"/><path class="cls-5" d="M173.57,66.92a11,11,0,0,0,3.63,1.52c1.06.24,3.24.43,3.65-1-1.86.08-2.38-.76-3.78-1.76-1-.7-.89,0-1.83.5-.47.23-1.66.47-2.07.05a.94.94,0,0,0,.4-.25"/><path class="cls-3" d="M177,64.28l.11.09c.11-.58-1-1.1-1.45-1.16a4.17,4.17,0,0,0-2,.4c-.65.22-1.75.66-2.42.31-.26-.14-.38-.44-.66-.61a5.39,5.39,0,0,0-.92-.48c.65,1.52,1.21,3.2,3.12,3.56a5.87,5.87,0,0,0,2.61-.1c.48-.18,1.15-1.09,1.58-1.05.08.41.52.67.83.91s.86.79,1.31,1.11a3.9,3.9,0,0,0,3.52.24,5.45,5.45,0,0,0,3.2-4.42c0-.38.36-1.19,0-1.43a5.48,5.48,0,0,1-1.71,1.53,6.24,6.24,0,0,1-2.54.43c-.91,0-1.76-.13-2.68-.13a2.62,2.62,0,0,0-1.06.13c-.3.12-.52.37-.83.49a1.36,1.36,0,0,0,.29-.49"/><path class="cls-2" d="M175.35,50.54a23,23,0,0,1,0,2.53,29.08,29.08,0,0,1,.1,3c0,1,.07,1.9.14,2.85,0,.58-.3,2.48.11,2.75a3.16,3.16,0,0,0-1.7-.49,2,2,0,0,0,1.35,2.09,2.35,2.35,0,0,1,1.07.8c.33.44.4.71.91.3s.39-.61,1.07-.67a7.11,7.11,0,0,0,1.6-.13,1.35,1.35,0,0,0,1.08-1.08c.07-.38-.07-1.28-.66-1.05,0,.34.09.82-.11,1.09s-.76.34-1.11.37c-.74,0-2.12-.2-2.17.92-.3,0-.88-.4-1.18-.52s-.65-.43-1-.42a.85.85,0,0,1,0-.5c1-.06.91-.57.92-1.49s-.26-1.47-.27-2.28"/><path class="cls-2" d="M257.79,43.43a6.56,6.56,0,0,0,1.8,1.8,3.92,3.92,0,0,0,1.55.41,1.76,1.76,0,0,0,.66-.09,2.24,2.24,0,0,1,.46-.15c-.1.32-.56.64-.77.91a7.35,7.35,0,0,1-.82,1.12c-.06-.6.37-1.2.4-1.77A5.73,5.73,0,0,1,260,47.57a7.86,7.86,0,0,0,0-1.68c-.46.26-.75.92-1.21,1.19a2.5,2.5,0,0,1,.4-1.27c-.23,0-.49.33-.66.48a2,2,0,0,1-.71.48c-.14-.48.58-1.05.47-1.62-.43.05-.61.81-1.13.8.05-.56,1.08-1,.88-1.69-.32-.07-.58.11-.88.15s-.47-.14-.72-.08c.61.09.75-.84.25-1.08a5.33,5.33,0,0,0,1.19.49c0-.05,0-.09-.06-.14,0,.12.07,0,.15.07"/><path class="cls-3" d="M94.67,105.94a94.26,94.26,0,0,0,6.76-11,24,24,0,0,1,2.16-3.63,37.84,37.84,0,0,0,2.78-3.9,48.28,48.28,0,0,1,3.25-5.06,27.44,27.44,0,0,0,2.25-3.23c.13-.24,1.88-3,.49-2.57-.38.13-1.09,1.5-1.37,1.84-.95,1.17-2.11,2.24-3,3.45-1.22,1.69-2.74,3.12-4,4.77-1.61,2.11-2.85,4.48-4.4,6.6-1.71,2.34-2.82,5.11-4.19,7.63-.87,1.59-1.67,3.14-2.62,4.68-1.59,2.54-2.82,5.27-4.33,7.86-.89,1.54-1.92,3-2.89,4.47a14.59,14.59,0,0,0-1.71,2.7,18.3,18.3,0,0,1,1.39-2c.82-1.18,1.6-2.38,2.5-3.52s1.67-2.29,2.56-3.4C91.81,109.81,93.33,108,94.67,105.94Z"/><path class="cls-2" d="M263.61,58.82l.07.08a.33.33,0,0,1-.26,0c-.3-.42.52-1.19.85-1.42a8,8,0,0,1,2.13-1.35,9.83,9.83,0,0,1,5.73-.23,5.55,5.55,0,0,1,2.29,1.23c.78.76,1.42,1.66,2.23,2.39,1.63,1.46,2.73,3.43,4.24,5a20.84,20.84,0,0,0,3.16,3,13.72,13.72,0,0,0,3.93,1.6,11,11,0,0,0,4.61.1,7.34,7.34,0,0,0,3.85-1.59,13,13,0,0,0,1.7-2.61,6,6,0,0,0,.9-1.82,7.43,7.43,0,0,0,.07-1.42c0-1.5-.87-3.12-2.5-3.18a2,2,0,0,0-1.79.7,3,3,0,0,0-.62,1.58c-.49-.48-.38-1.85-.19-2.49A3.19,3.19,0,0,1,297,56a5.52,5.52,0,0,1,4.78,2.53,8.93,8.93,0,0,1,1.07,3.06,10.23,10.23,0,0,1,.26,3.73A17.26,17.26,0,0,1,299.33,73a9.92,9.92,0,0,1-3,2.53,5.17,5.17,0,0,1-2.47.36,11.66,11.66,0,0,1-2.87-.55,27.94,27.94,0,0,0-4.28-.51,28.48,28.48,0,0,1-9.8-2.79,9,9,0,0,1-2.28-1.4,19.06,19.06,0,0,0-1.71-1.53c-1.25-.94-2.24-2.17-3.39-3.21a6.66,6.66,0,0,0-4.48-2.09,5.87,5.87,0,0,0-2.08.61c-.72.25-1.46.14-1.36-.79a14.3,14.3,0,0,1,.71-2.92c.16-.47.29-.94.46-1.4.1-.26.25-.84.6-.81"/><path class="cls-2" d="M261.84,63v0c0-1.47.66-3.17-.12-4.55a5.84,5.84,0,0,0-3.2-2.65,12.55,12.55,0,0,0-2.82-.6,5.17,5.17,0,0,0-2.47.31c-.79.34-1.07,1.19-1.71,1.72a3.56,3.56,0,0,1-2.69.75,18.79,18.79,0,0,1-3.75-.9,6.07,6.07,0,0,1-3.75-2.76c-1.09-2.21.54-4.28,2.72-4.66a2.78,2.78,0,0,1,2.62.61c.55.61.36,1.28.28,1.95.05-.35.38-.62.5-1a1.33,1.33,0,0,0-.16-1.38c-.9-1.34-2.65-1.68-4.07-2.21-2-.73-4.19-1.27-6,.34-1.48,1.35-2,3.77-2,5.68a10.69,10.69,0,0,0,.21,2.77,13,13,0,0,0,1.07,2.89,15,15,0,0,0,3.62,4.48,13.13,13.13,0,0,0,5.54,2.68,22.25,22.25,0,0,0,5.24.87,13.51,13.51,0,0,0,4-.21A10.19,10.19,0,0,0,258.2,66a22.54,22.54,0,0,0,2.4-1.85c.47-.45,1.29-1.17,1.14-1.9"/><path class="cls-1" d="M263.93,53.51c-.12.22-.4.29-.5.54a2,2,0,0,0,0,.82c.1.42.57.64.76,1,.46.91-.15,2.14-.57,2.92a5,5,0,0,1-2,1.9,7.58,7.58,0,0,1-3.12.72c-.59.06-1.16.27-1.75.29a7,7,0,0,1-1.66-.13,8.42,8.42,0,0,1-3-1c-.68-.44-1.67-1.12-1-1.93a5.57,5.57,0,0,1,1.2-1,7.9,7.9,0,0,0,1.27-1.25A22.46,22.46,0,0,0,256,53.7c.39-.59.64-1.25,1-1.87.12-.23.57-.82.44-1"/><path class="cls-2" d="M257.44,41.12a2,2,0,0,0-.05.42,4,4,0,0,1,0,.91c-.09.33-.15.68-.26,1s-.23.38-.24.64c-.06-.12,0-.26,0-.41a.53.53,0,0,0-.15-.26,2.15,2.15,0,0,0-.43-.42c-.2-.14-.4-.2-.61-.32a5.22,5.22,0,0,1-.7-.54c-.64-.59-1.45-1.76-.65-2.56a.59.59,0,0,1,1,.05.69.69,0,0,1,.11.56c0,.12-.14.28-.1.39.28-.3-.31-.89-.54-.54a1.18,1.18,0,0,0,.25,1.38c.39.36.77.23,1-.22a3.45,3.45,0,0,0,.21-1.53c0-.58.11-1.16.2-1.73a8.56,8.56,0,0,1,.4-1.82c.14-.36.39-.65.53-1a7.32,7.32,0,0,1,1.46-2.77c.82-.83,1.6-1.62,2.45-2.43.41-.38.68-.81,1.06-1.19a4.79,4.79,0,0,1,1.35-.82,16.82,16.82,0,0,1,3.17-.9,28.19,28.19,0,0,1,4.39-.66c1.52-.13,3.05.1,4.55.09a13,13,0,0,1,2.64.22,21,21,0,0,1,2.21.43c.8.27,1,1.2,1.48,0a3.32,3.32,0,0,1,1.75-2.19,3.93,3.93,0,0,1,2.62.12,4.5,4.5,0,0,1,2.2,1.61,2.48,2.48,0,0,1,.45,1.16c0,.17,0,1.21-.23,1.24a3.71,3.71,0,0,1-1.69,0c-.35-.2-.29-.7-.68-.92-.38,1.07,2.79.64.95-1.26a1.77,1.77,0,0,0-2.91.49c-.46,1.25.41,2.58,1.24,3.44A20.23,20.23,0,0,0,289,33a19.47,19.47,0,0,1,4.91,5.69,13.83,13.83,0,0,1,1.88,5,13.94,13.94,0,0,1,.25,4.55,24,24,0,0,1-2.17,6.23c-.6,1.3-1.26,2.58-1.88,3.87a13.79,13.79,0,0,0-.59,1.37,4.53,4.53,0,0,1-.86,1.24c-.18.25-.53.82-.64.22a5.94,5.94,0,0,1,.13-1.52,7.2,7.2,0,0,0-.16-2.36c-.12-.56-.36-1.11-.52-1.65-.07-.25-.12-.78-.32-.93a2.35,2.35,0,0,0-1.75,0,3,3,0,0,0-1.22,2.27c0,.63.51,1.87,1.36,1.52a1.13,1.13,0,0,0,.35-1c-.18-.46-.71-.16-.79.2.07-.84,1.14-.75,1.45-.13a1.36,1.36,0,0,1-.23,1.27,1.94,1.94,0,0,1-1.07.53,1.75,1.75,0,0,1-1.83-.91,3.64,3.64,0,0,1-.45-2.22,3.25,3.25,0,0,1,.29-1,5.79,5.79,0,0,0,.32-2.43,11.44,11.44,0,0,1,.51-3c.19-.9.41-1.79.57-2.7.08-.43.1-.89.16-1.31a.88.88,0,0,0-.35-1c-1-.72-2.08-1.36-3.09-2.09s-2.24-1.39-3.36-2.11a10.57,10.57,0,0,0-1.46-.76c-.46-.21-.92-.4-1.36-.59-.86-.36-1.7-.81-2.55-1.2s-1.89-.74-2.81-1.16-1.57-.72-2.37-1c-.49-.19-.91-.46-1.39-.67s-1-.41-1.51-.63a3,3,0,0,1-.87-.49,2.82,2.82,0,0,0-.94-.36A9,9,0,0,1,263.5,33a3.6,3.6,0,0,0-1.23-.25,1.33,1.33,0,0,0-1.14.47,13.61,13.61,0,0,0-2.26,3.3c-.11.19-.3.37-.39.56a2.82,2.82,0,0,0-.09.71,8.36,8.36,0,0,1-.36,1.79c-.14.44-.35.84-.5,1.27a3.18,3.18,0,0,0-.06,1c0,.23,0,.45,0,.68a1,1,0,0,1-.12.6c-.09.13-.29.3-.31.45s-.09.1-.11.09"/><path class="cls-2" d="M257,46.93c.05,0,.07,0,.06-.06-.2,0-.36.27-.46.42s-.34.35-.49.54c-.46.57.05.88.07,1.45a1.87,1.87,0,0,0,.25-.42c.08-.18.16-.35.27-.55a2.81,2.81,0,0,1,.35-.5c.11-.11.48-.5.46-.65s-.5-.29-.65-.37"/><path class="cls-2" d="M259,47.83c.13.26-.35.89-.47,1.13s-.13.32-.21.48-.29.39-.21.6c.44.1.8-.74.94-1s.64-1.1-.12-1.18"/><path class="cls-2" d="M256.39,45.19c0,.14.2.39.13.54s-.32.17-.41.24-.15.21-.26.26c.09-.25.16-1.28.54-1.25"/><path class="cls-2" d="M262.46,78.46c.11.36-.08,1.47.3,2.14a9.74,9.74,0,0,0,2.45,2.51,13.26,13.26,0,0,0,6.33,3c2,.26,4.09-1,5.57-2.26A11.2,11.2,0,0,0,279.72,81c.46-.82.15-1.88.67-2.68a.46.46,0,0,0,0,.36c1.67.19-1,5.42-1.69,6.25a6.62,6.62,0,0,1-4,2.39c-1.73.14-3.25.67-5.08.3a12,12,0,0,1-7-4.41A7.1,7.1,0,0,1,261,79.93c-.12-1.47,1.07-1.75,2.17-1.93a2.34,2.34,0,0,1,0,1"/><path class="cls-2" d="M265.65,84.84c.15.08.1.32.45.29.26,2-1.11,3.59-1.23,5.57-.55,0-.76-.58-1.4-.5,0-1.76,2.18-3.4,1.69-5.36"/><path class="cls-2" d="M279.89,81.4c.51.35,1.22.66,1.72,1s.63,1.1,1,1.81a6,6,0,0,0-1.05-1.09c-.62-.35-1.49,0-1.88-.73a1.86,1.86,0,0,0,.7-1.28"/><path class="cls-2" d="M263,81.4c.11.72.87,1,.95,1.67a32.77,32.77,0,0,0-3.35,2c-.31-.92-.73-.64-.05-1.38.45-.49,1.09-.69,1.51-1.26a.39.39,0,0,1,.45.22"/><path class="cls-2" d="M270.56,87.05c.56.6.24,2.33.24,3.14v3.24a49.61,49.61,0,0,0,0,6.1,6.51,6.51,0,0,0,1.65,0,29.86,29.86,0,0,0,0-6.34c-.21-2-.27-3.88-.53-5.86-.47,0-.95.09-1.19-.28"/><path class="cls-2" d="M277.19,86.07c.42,1,1.64,3.7,2.76,3.25,1.63-.66-1-3.3-1.34-4.44-.7,0-1.11.87-1.91.7"/><path class="cls-2" d="M268.35,86.07a6.16,6.16,0,0,1-.49,2.21c-.19.75-.44,1.57-.69,2.26a8.74,8.74,0,0,0-.35,1.86c-.07.53-.58,1.41-.39,2,.56.15.8.69,1.39.76a33.67,33.67,0,0,1,.59-4.35c.26-1,1.09-2.37,1.13-3.44a1.26,1.26,0,0,1-1-.78"/><path class="cls-2" d="M274,86.8c0,1.35.87,3,1.17,4.42a36.24,36.24,0,0,1,.84,4.89,3.71,3.71,0,0,1,1.38-.76c.21-.87-.25-1.4-.45-2.15-.29-1-.4-2-.74-3s-.73-1.76-1-2.7c-.42-1.49-.45-.44-1.71-.74"/><path class="cls-2" d="M263.93,83.86c.08.76-1.15,2-1.63,2.46a.73.73,0,0,1,.95.7c1.08-.41,2.09-3.07.68-3.65"/><path class="cls-2" d="M280.87,79.93c.63,0,1.06.6,1.68.78a.82.82,0,0,1,0,.65,1.87,1.87,0,0,1-1.93-.94"/><path class="cls-2" d="M261,80.42c.06.72-.9.82-1.44,1a6.57,6.57,0,0,0,.46,1.1,2.05,2.05,0,0,1,1.23-.89"/><path class="cls-1" d="M277.86,132.51a7.55,7.55,0,0,0,.28-1.7c0-.43.05-.87.11-1.29s.18-.77.25-1.15a2.09,2.09,0,0,0,.1-.59c-.05-.13-.33-.14-.46-.18a16.24,16.24,0,0,1-2.2-.74,3.05,3.05,0,0,0-.67-.13c-.39-.06-.78-.16-1.17-.22a8.24,8.24,0,0,1-1.81-.44,4.46,4.46,0,0,1-2.16-1.81c-.52-.91-1.46-1.47-2-2.34-.16-.25-.24-.55-.39-.8s-.29-.5-.41-.76a14.33,14.33,0,0,1-.73-1.88,5.33,5.33,0,0,1-.12-1.91,5.92,5.92,0,0,1,.19-1.57,2,2,0,0,0,.22-1.29.41.41,0,0,0-.35-.33c-.67-.18-1.92,1-2.4,1.41a9.45,9.45,0,0,0-1.14,1,2.64,2.64,0,0,0-.46,1.58,2.15,2.15,0,0,0,.15.63,2.88,2.88,0,0,1,0,.72,3.6,3.6,0,0,1-.08.56,6.41,6.41,0,0,1-1.66-.52,4,4,0,0,0-1.84-.68,4.1,4.1,0,0,0-1.73.56,8.87,8.87,0,0,1-1.9.82,1.56,1.56,0,0,0-1.12,1.16,3.9,3.9,0,0,0-.47,1.87c0,.24.24,1,0,1.1-.06,0-.2,0-.28.05a1,1,0,0,0-.25.19,5.27,5.27,0,0,0-.48.58,2.24,2.24,0,0,0-.46,1.47,9.36,9.36,0,0,0,.53,1.73c.17.5-.25,1-.38,1.44a.8.8,0,0,0,0,.61.42.42,0,0,1,0,.1,3.07,3.07,0,0,0,.17.42,9.79,9.79,0,0,0,.81,1c.14.16.29.29.44.45s.21.17.3.27a1.63,1.63,0,0,1,.23.35,4.15,4.15,0,0,0,.43.51,2.14,2.14,0,0,0,1.31.54,27.9,27.9,0,0,0,3.88.09h1.15c.27,0,.55,0,.82-.07s.83,0,1.24-.1a14.34,14.34,0,0,1,1.46-.11,8,8,0,0,1,2.15.41c.61.11,1.24,0,1.85.13a25.07,25.07,0,0,1,2.88.61,39.09,39.09,0,0,0,5.35,1.42C277.79,135.82,277.76,132.81,277.86,132.51Z"/><path class="cls-1" d="M313,138.34a8.63,8.63,0,0,0,1.1-3.45c.17-1.28-.34-2.62-.17-3.86.2-1.54,1.37-2.93,1.62-4.53.34-2.2,1.1-5,.33-7.21s-.83-4.91-1.39-7.32c-.32-1.34.6-2.42.63-3.76,0-1.6-.08-3.11.09-4.73.41-3.77.92-7.7-.64-11.3a24.66,24.66,0,0,0-2.86-4.64c-1.43-1.93-4-4.78-6.63-4.52-2.19.21-4.45.54-6.16,2.07-3.65,3.28-7.59,11-5.64,16,.64,1.63,1.51,5.55,3.29,6.26,1.33.54,5.57-1.52,4.17,2a15.68,15.68,0,0,0-.82,4.14,30,30,0,0,0-.13,4.83,24.9,24.9,0,0,0,.88,5.36c.48,1.66,1.57,3.08,2.08,4.66-.63.09-1.33-.29-2-.3-.91,0-1.77.15-2.7.06a41.75,41.75,0,0,1-5.2-1c-1.34-.29-2.79-.53-4.18-.8a30.26,30.26,0,0,0-4.15-.06c-2.57-.18-5.6-.58-8.13,0-1.34.3-2.67.71-4,1a12.14,12.14,0,0,1-2,.23,2.43,2.43,0,0,1-.81-.09,1.61,1.61,0,0,0-.84.06,3.64,3.64,0,0,0-2.21,2.3c-.14.31-.21.67-.32,1a1.44,1.44,0,0,0,0,1.15c.15.35.6.49.93.61s.93.32,1.4.47c1,.32,2.13.51,3.16.89a3.21,3.21,0,0,1,.64.42,3.14,3.14,0,0,1,.78.62,1.11,1.11,0,0,0,.5.35c.6.22,1.15.52,1.75.75,4.17,1.62,8.48,2.63,12.77,4,1.86.6,3.87,1.3,5.72,1.79a19.26,19.26,0,0,0,4.47.68,25.56,25.56,0,0,1,4.38,1c2.26.47,4.46.77,6.57-.53C311,141.91,312.11,139.88,313,138.34Z"/><path class="cls-1" d="M57.58,41a.22.22,0,0,1,0-.27,14.65,14.65,0,0,0-6.22-.88c-10.2.9-22,13.72-28.1,21-4.22,5-8,10.4-12.08,15.48a67,67,0,0,1-5.34,6.28,14.9,14.9,0,0,0-2.2,2.08,25.33,25.33,0,0,0-1.75,3.59A20.55,20.55,0,0,0,.29,91.13C-.49,93.67.38,95.61,2,97.44a60.55,60.55,0,0,0,5.59,5.94c2.82,2.37,5.46,4.91,8.27,7.23,2.42,2,5,3.76,7.45,5.67s5.32,3,8.13,4.3a43.61,43.61,0,0,0,6.59,2.35c2.32.64,4.35,1.55,6.68,1,.11-.9,0-1.76.24-2.63a8.85,8.85,0,0,0,.33-2.67c-.13-1.71-1.53-1.76-2.94-2.14-3.19-.87-6.55-3.83-9.39-5.57a28.45,28.45,0,0,1-9.29-8.88c-1.22-2-2.56-3.91-3.8-5.89-.53-.85-1-1.72-1.62-2.53-.41-.56-1.46-1.39-1.38-2.12.17-1.4,3-2.44,4.05-3.13,5.94-4,10.9-9.65,15.35-15.34a37.1,37.1,0,0,1,6.54-6.29.23.23,0,0,1,.07-.2c.77-.7,1.54-1.45,2.36-2.09a6.49,6.49,0,0,1,1.48-.82,7.17,7.17,0,0,1,2.91-1.33A19.8,19.8,0,0,0,56,55a20.43,20.43,0,0,0,2.29-7.37C58.45,45.57,58.77,42.79,57.58,41Z"/><path class="cls-1" d="M56.53,129.85l.09-.19c.07-.12.05-.18.2-.24a2.64,2.64,0,0,1,.48-.14c.39-.08.65-.51.8-.88a2,2,0,0,0,.17-.65,1.28,1.28,0,0,0-.09-.48c-.08-.38.58-.66.84-.86s.47-.31.52-.66a3.94,3.94,0,0,0,.06-.77,1,1,0,0,0-.22-.58c-.17-.2-.18-.23,0-.41a4.39,4.39,0,0,1,.4-.33c.08-.09.15-.21.23-.3s.34-.35.5-.53a1,1,0,0,0-.08-1.36c-.54-.57-1.32-.87-1.91-1.39A3.7,3.7,0,0,1,57.8,119a1.63,1.63,0,0,1,.34-1.6c.34-.48.79-.89,1.17-1.34.52-.62,1.06-1.2.93-2a5,5,0,0,0-.66-1.7c-.2-.36-.39-1-.9-.93s-.59.65-.78,1a6.71,6.71,0,0,1-1.65,2.22,6.94,6.94,0,0,1-1.87.76,9.24,9.24,0,0,1-2.3.69c-.75.05-1.44.42-2.19.46a8.31,8.31,0,0,0-1.13.17,1.16,1.16,0,0,1-.49,0c-.11,0-.2-.09-.3-.11a3.22,3.22,0,0,0-.87.06c-.37,0-.71.12-1.08.12s-.62,0-.94,0a5.51,5.51,0,0,1-1.56-.34c-.31-.1-.61-.23-.93-.3s-.62-.09-.93-.14a5.86,5.86,0,0,0-2.17,0c-.37.08-.76.08-1.13.15a.65.65,0,0,0-.46.56c-.08.36-.1.74-.16,1.12-.1.62-.08,1.26-.18,1.88a9.94,9.94,0,0,0-.35,2.08.62.62,0,0,0,.13.37.76.76,0,0,0,.35.17,4.85,4.85,0,0,0,.75.19c.4.06.75.23,1.15.3a2.83,2.83,0,0,1,.42.07,2.76,2.76,0,0,1,.44.25c.38.2.78.35,1.16.55a4.57,4.57,0,0,1,.67.58c.69.55,1.41,1,2.14,1.55,1.13.8,2.18,2.17,3.59,2.61a15.9,15.9,0,0,1,2.49.85,23.21,23.21,0,0,0,2.27.63,6.84,6.84,0,0,0,2,.67,5,5,0,0,0,.67-.05,2,2,0,0,0,.93-.21c.11-.08.11-.24.13-.36A.49.49,0,0,1,56.53,129.85Z"/></g></g></svg>