<?xml version="1.0" encoding="utf-8"?>
<!-- Generator: Adobe Illustrator 16.0.4, SVG Export Plug-In . SVG Version: 6.00 Build 0)  -->
<!DOCTYPE svg PUBLIC "-//W3C//DTD SVG 1.1//EN" "http://www.w3.org/Graphics/SVG/1.1/DTD/svg11.dtd">
<svg version="1.1" id="Ebene_1" xmlns="http://www.w3.org/2000/svg" xmlns:xlink="http://www.w3.org/1999/xlink" x="0px" y="0px"
	 width="328px" height="268px" viewBox="0 0 328 268" enable-background="new 0 0 328 268" xml:space="preserve">
<g>
	<path d="M119.523,83.116c0.814,2.159,1.556,2.862,2.808,2.92c2.99,0.145,5.985,0.087,8.966,0.066
		c5.894-0.043,11.759-0.499,17.665-0.357c8.587,0.201,17.191,0.896,25.769,0.874c4.604-0.016,9.245-0.846,13.879-0.236
		c-0.174-0.899-0.672-2.84-0.551-3.772c-0.41,0.82-1.368,0.392-1.917,0.283c-1.977-0.395-3.946-0.725-5.923-0.982
		c-5.677-0.738-11.316,0.191-16.93,0.638c-6.663,0.523-13.403,0.053-20.088,0.282c-5.257,0.182-10.534,0.224-15.801,0.272
		c-1.745,0.017-3.505-0.099-5.263-0.461c-0.652-0.133-1.348-0.367-1.986-0.24c-0.015,0.104-0.011,0.208,0.011,0.32"/>
	<g>
		<path fill="#245977" d="M103.337,127.817c-0.367-0.635-0.702-1.289-0.968-1.941c-0.847-2.06-1.43-4.135-1.43-6.346
			c0-0.598,0.062-1.176,0.606-1.553c0.485-0.344,1.164-0.4,1.682-0.707c0.587-0.346,1.022-0.91,1.497-1.376
			c0.777-0.767,1.483-1.253,2.524-1.651c1.183-0.457,2.397-0.834,3.658-1.028c1.672-0.259,2.908-0.777,4.432-1.425
			c0.424-0.184,0.885-0.396,1.349-0.465c0.324-0.049,0.695-0.211,1.017-0.223c0.505-0.023,1.057,0.275,1.551,0.429
			c0.7,0.215,1.336,0.558,1.975,0.911c1.137,0.629,2.236,1.57,3.234,2.389c0.588,0.48,1.491,0.711,1.926,1.319
			c0.45,0.623,0.344,1.136,0.279,1.829c-0.103,1.11-0.303,2.196-0.427,3.304c-0.15,1.33-0.604,2.662-1.264,3.833
			c-0.195,0.348-0.439,0.875-0.78,1.095c-0.269,0.179-0.604,0.189-0.882,0.363c-0.317,0.194-0.612,0.45-0.886,0.695
			c-0.359,0.32-0.507,0.87-0.783,1.259c-0.314,0.444-0.689,0.869-1.141,1.189c-0.415,0.291-0.938,0.386-1.381,0.636
			c-0.737,0.42-1.158,1.415-2.022,1.641c-0.329,0.087-0.354-0.085-0.542-0.239c-0.525-0.424-1.078,0.379-1.451,0.771
			c-0.753,0.792-1.542,1.409-2.599,1.793c-0.985,0.357-2.291-0.238-3.192-0.671c-1.29-0.626-2.139-1.554-3.136-2.5
			c-0.657-0.62-1.454-1.2-1.967-1.947C103.911,128.759,103.617,128.293,103.337,127.817z"/>
		<path fill="#FFFFFF" d="M112.308,119.869c-0.132,0.057-0.525-0.269-0.636-0.369c-0.193-0.178-0.368-0.424-0.493-0.649
			c-0.207-0.372-0.39-0.777-0.438-1.202c-0.03-0.296,0.08-0.545,0.273-0.782c0.102-0.122,0.204-0.225,0.316-0.337
			c0.155-0.158,0.319-0.306,0.48-0.461c0.109-0.1,0.225-0.3,0.335-0.351c-0.057,0.725-0.387,1.407-0.247,2.146
			c0.119,0.648,0.25,1.406,0.523,1.989c-0.024,0-0.132,0.03-0.081,0.025"/>
		<path fill="#245977" d="M67.398,148.86c3.92,4.065,9.754,7.578,15.534,8.667c1.128,0.21,2.387,0.169,3.24-0.591
			c0.437-0.384,1.976-2.523,1.59-3.225c-0.553-1.001-2.468,1.071-3.167,1.14c-1.09,0.107-2.837-0.755-3.642-1.369
			c-0.228-0.171-0.496-0.304-0.676-0.562c0.609-0.074,1.68,0.196,2.078-0.375c0.607-0.887-0.71-1.09-1.346-1.412
			c-1.832-0.941-3.91-1.294-5.908-1.951c-1.138-0.372-2.466-0.679-3.453-1.292c-0.531-0.333-1.621-1.668-2.186-1.76
			c-1.093-0.175-3.136,3.277-1.266,3.671"/>
		<path fill="#245977" d="M108.41,114.605c0.056,0.039,0.091,0.031,0.107-0.025c-0.387-0.646-0.425-1.207,0.051-1.918
			c0.439-0.645,1.438-1.069,2.173-1.238c1.309-0.281,2.738-0.926,3.932-0.179c-0.029,0.369,0.067,0.747-0.158,1.023
			c-0.16,0.191-0.45,0.317-0.651,0.434c-0.309,0.207-0.627,0.4-0.939,0.591c-0.963,0.592-2.247,1.728-3.385,1.608"/>
		<path d="M110.88,115.735c0.107,0.113-0.488,1.11-0.539,1.364c-0.117,0.514-0.008,1.082,0.236,1.547
			c0.241,0.485,0.684,0.659,1.11,0.969c0.273,0.195,0.799,0.722,1.167,0.655c-0.349-0.233-0.687-0.58-1.004-0.864
			c-0.396-0.333-0.55-0.716-0.726-1.19c-0.188-0.479-0.325-0.822-0.271-1.296c0.04-0.37,0.107-0.738,0.12-1.11
			c-0.043,0.049-0.045,0.08-0.007,0.126c0.042-0.005,0.085-0.01,0.128-0.038"/>
		<path d="M111.014,117.096c0,0,0.035,0.013,0.064,0.023c-0.072-0.355,0.442-0.517,0.689-0.385c0.255,0.118,0.628,0.651,0.44,0.937
			c-0.162,0.23-0.688,0.325-0.926,0.195c-0.247-0.142-0.539-0.693-0.266-0.936"/>
		<path d="M112.501,119.887l-0.043,0.066c-0.376-0.55-0.714-1.169-0.789-1.836c-0.075-0.729,0.23-1.394,0.843-1.857
			c-0.183,0.105-0.344,0.566-0.397,0.76c-0.118,0.338-0.104,0.671-0.102,1.022c0.019,0.365,0.112,0.646,0.23,0.993
			c0.064,0.177,0.107,0.343,0.172,0.521c0.059,0.156,0.059,0.31,0.129,0.445c-0.148,0.059-0.266-0.081-0.322-0.21"/>
		<path fill="#FF0000" d="M168.276,242.654c0.972,0.604,2.063,0.976,2.978,1.664c0.756,0.568,1.337,0.714,2.28,0.861
			c1.119,0.179,2.301,0,3.484,0c4.029,0,8.092-0.147,12.111,0c1.809,0.062,3.692,0.079,5.466,0.325
			c1.428,0.196,2.979,0.338,4.438,0.223c1.397-0.105,4.066-0.677,4.43-2.268c-0.822-0.009-1.7-0.162-2.545-0.236
			c-0.924-0.072-1.875-0.148-2.818-0.221c-3.147-0.257-6.269-0.543-9.424-0.978c-3.56-0.496-7.138-1.11-10.661-1.841
			c-2.423-0.508-4.812-1.427-7.243-1.653c0.05-0.491-0.201-1-0.239-1.503c-0.112-1.2-0.094-1.51-1.356-1.804
			c-0.979-0.231-2.015-0.273-3.021-0.308c-0.694-0.02-1.338-0.174-2.029-0.174c-0.518,0-1.563-0.23-1.873,0.235
			c-0.286,0.438,0.068,1.688,0.086,2.188c0.061,1.616-0.018,3.243-0.254,4.845c0.474,0.003,0.89,0.282,1.315,0.351
			c0.452,0.073,0.923-0.045,1.323,0.088c0.112-0.579,0.466-1.038,0.596-1.604C166.271,240.953,167.436,242.132,168.276,242.654z"/>
		<g>
			<path fill="#FF0000" d="M125.623,214.804c-0.341,0.519,0.027,1.039,0.291,1.496c0.338,0.602,0.574,1.193,0.793,1.845
				c0.435,1.294,1.552,2.662,1.711,4.01c-0.764,0.261-1.548,0.433-2.315,0.69c-0.885,0.297-0.582,0.926-0.381,1.693
				c0.139,0.507,0.192,1.033,0.32,1.558c0.146,0.572,0.092,1.085,0.114,1.657c0.045,0.981,0.022,2.093,0.21,3.054
				c0.488,2.521,0.973,4.846,0.905,7.165c-0.05,1.705,0.501,2.191-1.157,3.464c-2.471,1.9-6.533,1.974-9.51,2.456
				c-3.176,0.507-6.412,0.512-9.633,0.712c-1.943,0.122-6.315,0.592-7.744-0.28c3.153-0.807,6.382-1.406,9.417-2.589
				c2.587-1.005,5.941-1.236,7.858-3.365c1.535-1.703,2.446-4.285,2.84-6.482c0.479-2.675-0.689-4.368-0.938-6.911
				c-0.119-1.226,0.028-2.082,0.329-3.266c0.12-0.457,0.47-1.062,0.35-1.511c-0.135-0.498-0.675-0.906-0.789-1.468
				c-0.558,0.192-1.247,0.489-1.65-0.055c-0.204-0.268-0.188-0.748-0.302-1.063c-0.117-0.32-0.278-0.6-0.336-0.959
				c1.782-0.628,3.547-1.364,5.431-1.76c1.285-0.267,3.204-0.835,4.423-0.243"/>
			<path d="M125.713,224.896c0.107-0.709-2.215-1.038-2.872-0.688c0.375,0.163,0.439,0.477,0.557,0.848
				c0.87-0.143,1.869-0.303,2.492,0.481c-0.059-0.178-0.099-0.368-0.154-0.547"/>
			<path d="M126.06,228.616c0.229-0.479-1.953-0.786-2.412-0.607c0.107,0.287,0.381,0.588,0.218,0.916
				c0.698-0.459,1.739-0.079,2.277,0.402c0.073-0.093,0.111-0.225,0.119-0.356"/>
			<path d="M126.151,230.958c-0.477-0.545-1.885-0.416-2.508-0.169c0.047,0.251,0.111,0.505,0.196,0.745
				c0.885-0.15,1.765-0.587,2.433,0.207c0.237-0.218,0.392-0.764,0.051-0.929"/>
			<path d="M127.231,234.592c-0.367-0.104-0.632-0.531-1.044-0.681c-0.571-0.218-1.028-0.158-1.593,0.032
				c0.047,0.292,0.195,0.587,0.114,0.862c0.419-0.045,0.547-0.271,1.004-0.216c0.483,0.058,1.07,0.336,1.2,0.788
				c0.12-0.007,0.175-0.026,0.277-0.07c-0.107-0.295-0.085-0.592-0.112-0.877"/>
			<path d="M127.142,238.096c-0.363-0.558-1.537-1.723-2.67-1.157c0.184,0.277,0.495,0.957,0.318,1.304
				c1.023-0.685,1.827-0.181,2.549,0.494c0.038-0.179,0.015-0.386-0.074-0.567"/>
			<path d="M126.899,240.708c-0.367-0.265-0.311-0.882-0.636-1.238c-0.318-0.345-0.703-0.431-1.176-0.419
				c0.051,0.436-0.017,0.648-0.208,1.057c1.081-0.547,1.482,0.38,1.849,1.075C126.787,241.01,126.861,240.88,126.899,240.708"/>
			<path d="M125.543,223.084c0.483-0.46,1.034-1.313,0.984-1.982c-0.039-0.597-0.49-1.55-1.043-1.789
				c-0.896-0.38-1.228,0.237-1.098,0.974c0.137,0.737,0.493,1.388,1.326,1.531c-1.416-0.342-3.808-2.935-1.103-3.345
				c1.129-0.17,1.634,0.64,1.933,1.495c0.225,0.635,0.516,2.256-0.383,2.566c0.502,0.514,4.896,1.95,2.831,2.958
				c-0.551,0.271-1.453,0.03-1.903-0.356c-0.561-0.481-0.6-1.358-0.459-1.999c-0.948-0.076-0.478,1.999-0.211,2.418
				c0.826,1.297,2.332,1.192,3.446,0.229c1.118-0.969,0.488-1.56-0.515-2.201c-0.703-0.455-1.635-0.983-2.521-0.912
				c-0.448,0.032-1.068,0.398-1.434,0.239"/>
		</g>
		<path d="M192.426,242.337c-0.693,0.482-0.59,1.312-1.523,1.174c0.327-0.666,0.968-1.548,1.623-1.374"/>
		<path d="M189.978,242.038c-0.762,0.315-1.06,1.434-1.927,1.071c0.19-0.384,1.267-1.528,1.727-1.071"/>
		<path d="M186.714,241.736c-0.696,0.365-1.098,0.938-1.429,1.659c-0.222-0.074-0.466-0.111-0.703-0.184
			c0.381-0.726,1.16-1.323,1.926-1.573"/>
		<path d="M182.737,240.944c-0.045,0.616-1.412,0.884-1.526,1.753c-0.167-0.304-0.472-0.418-0.811-0.378
			c0.226-0.409,1.942-2.041,2.443-1.577"/>
		<path d="M179.268,240.443c-0.45,0.423-1.149,0.663-1.141,1.379c-0.313-0.028-0.635-0.086-0.984-0.101
			c0.051-0.447,1.46-1.78,1.923-1.278"/>
		<path d="M176.719,240.043c-0.567,0.304-1.066,0.846-1.037,1.484c-0.33-0.118-0.726-0.19-1.1-0.306
			c0.421-0.956,1.749-1.555,2.748-1.276"/>
		<path d="M173.661,239.247c-0.658,0.488-1.088,0.664-1.35,1.487c-0.246-0.324-0.585-0.285-0.983-0.31
			c-0.009-0.569,1.763-1.135,2.226-1.075"/>
		<path d="M171.927,238.651c-0.482,0.639-1.499,0.521-1.834,1.354c-0.117-0.32-0.479-0.374-0.709-0.533
			c0.31-0.171,0.672-0.498,1.011-0.604c0.329-0.102,1.243-0.021,1.328-0.021"/>
		<path d="M170.701,237.755c-0.641,0.49-1.008-1.042-1.241-1.393c-0.511-0.756-1.975-1.062-2.633-0.306
			c-0.704,0.81-0.202,1.969,0.611,2.467c0.499,0.31,2.042,0.696,2.418,0.042c-0.71-0.15-1.247,0.291-1.932-0.189
			c-0.592-0.407-0.939-0.878-0.305-1.424c1.325-1.128,1.741,1.063,2.862,1.285c0.354-0.91,0.756-1.636,1.546-2.304
			c0.836-0.711,2.471-1.442,3.036-0.096c0.432,1.038-0.713,2.538-1.685,2.935c-1.166,0.473-1.379-0.331-2.173-0.983
			c-0.13,0.859,1.209,0.563,1.62,0.337c0.61-0.346,1.121-1.046,1.041-1.768c-0.182-1.571-2.799,1.071-3.082,1.775
			c-0.18,0.055-0.347,0.021-0.488-0.08"/>
		<path fill="#245977" d="M154.567,91.624c0.032,0.167,0.045,0.341,0.049,0.521c0.658-0.959,2.545-1.229,3.576-1.275
			c-0.154,0.007,0.29-1.156,0.361-1.259c0.269-0.37,0.647-0.618,1.048-0.833c0.932-0.494,1.735-1.084,2.249-2.033
			c0.224-0.408,0.681-1.502-0.125-1.557c-0.65-0.047-1.255,0.998-1.877,1.186c-1.288,0.389-2.867-0.438-4.138-0.635
			c-1.65-0.253-3.301-0.486-4.941-0.794c-2.021-0.374-4.415-1.098-5.846,0.767c0.963,0.254,2.172,0.21,3.212,0.179
			c-0.905,0.129-2.346-0.181-3.146,0.25c-1.097,0.604,1.122,1.171,1.574,1.222c0.823,0.088,1.416,0.039,2.15,0.38
			c0.544,0.252,1.132,0.329,1.7,0.513c0.833,0.273,1.562,0.603,2.316,1.055C153.717,89.901,154.389,90.569,154.567,91.624z"/>
		<path fill="#245977" d="M124.069,112.731c2.64,1.071,4.793-1.262,6.012-3.146c0.885,1.452,1.754,2.427,2.135,4.196
			c0.413,1.918,0.573,3.852,1.006,5.77c-2.609-0.619-4.206-1.063-6.772-0.345c-0.07-1.75-0.998-5.074-2.466-6.115
			c0.014,0.307,0.158,0.488,0.244,0.772"/>
		<path fill="#FF0000" d="M130.636,110.531c1.401-2.752,4.868-4.503,7.386-6.07c3.701-2.302,8.497-5.241,12.977-5.56
			c11.099-0.786,20.084,5.316,25.66,14.088c2.99,4.71,5.205,11.359,6.127,16.51c1.73,9.672,0.874,19.887-2.436,29.175
			c-1.089,3.059-2.862,9.558-6.469,10.702c-3.327,1.057-9.419-1.494-12.806-1.999c-2.186-0.323-4.027-0.4-6.051-1.238
			c-1.375-0.567-2.703-1.242-3.938-2.058c-0.931-0.617-0.949-0.893-0.954-1.947l-4.255,8.788c-0.336-0.192-0.665-0.397-1.003-0.581
			c-0.503-2.594-1.317-5.824-0.438-8.241c0.949-2.597,3.806-4.358,6.022-5.812c2.356-1.547,4.651-3.219,7.122-4.556
			c1.659-0.899,3.318-1.685,4.817-2.769c1.588-1.148,3.167-1.505,4.406-3.112c1.381-1.777,2.551-3.695,3.194-5.852
			c0.84-2.795,1.576-5.847,1.033-8.845c-0.652-3.602-2.935-8.335-5.322-11.2c-1.093-1.314-2.562-2.414-3.919-3.487
			c-1.576-1.258-2.817-2.395-4.781-3.147c-5.396-2.062-10.327-1.148-15.339,1.557c-0.883,0.476-1.724,0.944-2.539,1.517
			c-0.607,0.436-0.742,0.964-1.205,1.353c-0.892,0.735-3.279,0.561-4.23,0.024C131.609,116.59,129.573,112.633,130.636,110.531z"/>
		<path fill="#245977" d="M156.462,157.863c-8.967,0.594-15.479,13.469-9.138,20.046c3.193,3.307,7.758,3.358,12.121,3.316
			c6.384-0.06,12.77-0.01,19.152-0.01c5.622,0,11.364-0.271,16.854,0.476c4.016,0.548,11.852-0.145,15.04,1.775
			c-3.75,2.061-7.039,5.017-10.899,6.907c-3.591,1.755-7.351,3.175-11.117,4.535c-1.588,0.577-3.043,1.048-4.406,2.014
			c-1.405,0.997-3.388,1.091-5.063,1.379c-1.369,0.237-2.736,0.469-4.109,0.686c-1.805,0.286-3.625,0.538-5.418,0.918
			c-1.956,0.41-3.732,0.91-5.576,1.708c-2.105,0.909-4.146,1.86-6.324,2.625c-1.37,0.48-2.809,0.501-4.188,1.026
			c-2.014,0.765-4.215,1.938-5.281,3.788c-0.601,1.038-1.028,2.37-0.232,3.43c1.025,1.366,1.862,0.943,3.305,0.611
			c3.964-0.919,8.088-1.363,12.014-2.474c1.276-0.363,2.5-0.843,3.746-1.224c6.139-1.873,12.102-4.289,18.135-6.472
			c8.982-3.245,17.981-6.513,26.566-10.646c5.423-2.608,10.884-6.106,14.639-10.8c1.678-2.094,2.467-4.117,2.24-6.884
			c-0.305-3.689-5.212-3.904-8.317-4.515c-12.218-2.397-24.732-3.63-37.072-5.333c-3.512-0.486-7.021-1.023-10.504-1.716
			c-1.473-0.293-2.755-0.372-4.201-0.979C167.503,161.668,162.297,157.474,156.462,157.863z"/>
		<path fill="#245977" d="M114.627,168.373c-5.747,0.396-11.42,0.51-17.129,1.204c-3.093,0.378-7.639-0.44-8.188,3.303
			c-0.587,4.004,1.169,9.342,3.616,12.34c1.821,2.229,4.265,4.027,6.82,5.572c4.618,2.799,9.789,5.445,14.643,7.876
			c7.323,3.661,13.684,8.651,20.459,13.192c6.449,4.324,12.861,9.064,18.24,14.699c1.565,1.638,3.189,3.232,4.937,4.691
			c0.631,0.529,1.395,0.909,1.986,1.457c0.674,0.626,1.147,1.425,1.863,2.035c0.464,0.394,1.144,0.909,1.314,1.503
			c1.304,0.129,2.535-0.187,3.834-0.096c1.08,0.079,2.69,0.369,3.459-0.544c-0.38-1.137-1.771-1.794-2.663-2.493
			c-1.134-0.897-2.193-1.919-3.215-2.919c-4.868-4.779-9.867-9.552-14.857-14.271c-3.812-3.608-8.146-6.718-12.275-9.946
			c-3.988-3.121-8.579-5.547-12.628-8.594c-2.212-1.668-4.784-3.205-7.229-4.555c-2.594-1.426-5.05-3.096-7.534-4.71
			c-2.548-1.652-5.446-3.21-7.777-5.112c1.188-1.138,6.039,0.568,7.646,0.653c7.699,0.401,16.123,0.437,23.744-0.9
			c5.621-0.986,11.052-2.818,16.052-5.231c3.567-1.721,10.136-4.607,8.032-9.261c-1.354-2.999-4.844-5.361-8.069-6.232
			c-4.049-1.096-6.485,1.229-10.156,2.556C131.627,167.452,122.984,167.796,114.627,168.373z"/>
		<path d="M118.058,108.262c2.388,0.148,4.385,1.452,6.679,1.875c2.173,0.397,3.471-0.284,5.509-1.106
			c3.584-1.451,7.025-3.418,8.617-6.982c-4.272-0.339-8.635-0.191-12.711-0.749c-2.571-0.351-5.095-0.873-7.677-1.274
			c-7.073-1.104-13.456-2.291-20.712-1.255c-12.146,1.732-25.538,7.109-32.998,17.098c-3.543,4.753-4.623,10.79-3.185,16.245
			c1.006,3.829,1.939,7.868,3.844,11.364c0.882,1.618,2.57,7.899,4.451,3.561c1.38-3.183-2.71-6.621-3.057-9.902
			c-0.606-5.719,0.712-11.924,4.822-16.163c5.267-5.435,13.088-10.716,20.477-13.092
			C100.575,105.161,109.471,107.73,118.058,108.262z"/>
		<path d="M167.617,100.904c-0.516-0.504-2.722-0.679-3.451-0.842c-2.431-0.546-4.714-0.709-7.216-0.909
			c-4.726-0.384-9.142-0.892-13.666,0.738c-3.926,1.418-8.35,3.727-11.435,6.635c-0.677,0.638-1.011,1.554-1.537,2.295
			c-0.273,0.383-0.586,0.73-1.001,0.978c-0.39,0.235-0.764,0.594-0.8,1.073c-0.031,0.443,0.014,0.898,0.067,1.323
			c0.166-0.268,0.367-0.354,0.619-0.545c0.201-0.146,0.346-0.396,0.555-0.527c0.044,0.184,0.229,0.335,0.338,0.479
			c0.116,0.16,0.19,0.389,0.338,0.504c0.466-0.636,1.56-0.976,1.891-1.681c0.203-0.429,0.316-0.974,0.479-1.444
			c0.141-0.411,0.452-0.969,0.468-1.385c0.244,0.381,0.078,1.249-0.011,1.672c0-0.335,0.452-0.709,0.729-0.867
			c0.511-0.292,1.147-0.296,1.711-0.462c1.006-0.293,1.976-0.752,2.934-1.175c2.121-0.946,4.516-1.367,6.796-1.82
			c1.015-0.2,2.078-0.313,3.105-0.47c1.253-0.191,2.511-0.332,3.772-0.438c1.658-0.135,3.32-0.198,4.982-0.193
			c3.324,0.008,6.911,0.179,9.869,1.793c0.24-0.777,0.418-1.567,0.5-2.354C167.731,102.56,168.327,101.596,167.617,100.904z"/>
		<g>
			<path d="M138.636,120.116c-0.173-2.103,0.275-4.694-2.406-5.291c-2.137-0.471-4.372,1.277-4.938,3.212
				c-0.877,3.02,0.11,6.44,0.831,9.441c0.824,3.442,1.546,6.812,2.302,10.271c0.482,2.181,1.192,15.464,5.286,8.087
				c2.154-3.881,4.34-7.887,5.908-12.026c2.719-7.181,4.966-14.411,7.903-21.491c2.537-6.109,4.448-12.043,5.545-18.426
				c0.26-1.509,0.851-3.589,0.184-5.126c-1.823-0.197-3.827,0.653-5.642,1.076c-0.049,1.464-0.575,2.374-1.225,3.698
				c-1.001,2.034-1.874,4.189-2.6,6.326c-1.629,4.768-2.89,9.628-4.565,14.359c-2.26,6.354-4.138,13.166-5.25,19.569
				c-0.458-0.572-0.413-2.646-0.456-3.376c-0.074-1.165-0.089-2.318-0.212-3.479C139.074,124.763,138.813,122.363,138.636,120.116z"
				/>
			<path d="M143.641,113.999c2.902-1.097,7.357-1.65,9.813,0.66c4.684,4.402-0.617,16.629-2.629,21.549
				c-2.86,6.994-9.021,13.017-16.965,14.722c-4.222,0.907-8.793,0.361-12.998,1.399c-4.419,1.091-8.975,2.596-13.444,3.834
				c-4.19,1.162-8.13,3.059-12.253,4.411c-2.099,0.69-4.029,1.047-6.208,1.401c-1.796,0.292-4.137,0.067-5.828,0.835
				c4.414,4.294,12.654,4.772,18.8,4.294c3.213-0.251,6.934-0.859,9.99-1.918c2.766-0.958,5.223-3.399,7.895-4.67
				c-3.641,10.705-7.542,20.319-14.795,29.443c-5.933,7.469-15.58,15.425-23.621,19.026c3.166-1.463,7.528-1.688,11.048-2.759
				c4.116-1.249,8.099-2.887,12.077-4.505c5.477-2.227,10.667-4.586,16.366-6.194c3.657-1.034,7.091-2.32,10.477-4.271
				c9.396-5.41,17.939-12.465,25.446-20.003c7.408-7.439,12.788-16.968,16.326-26.511c1.672-4.501,1.637-8.353,1.635-13.294
				c0-5.813-2.072-9.562-5.704-13.935c-0.281-0.342-0.864-0.768-1.062-1.163c-0.304-0.613,0.19-0.899,0.535-1.519
				c0.524-0.949,1.27-2.12,0.497-3.056c-2.222-2.684-5.554-4.355-8.955-5.301c-0.489-0.135-0.981-0.259-1.477-0.367
				c-2.432-0.534-4.938-0.739-7.429-0.642c-1.243,0.048-2.483,0.169-3.711,0.359c-0.57,0.085-1.165,0.153-1.716,0.332
				c-0.428,0.142-0.88,0.082-1.303,0.229c-0.561,0.194-1.08,0.527-1.612,0.758c-0.384,0.162-0.784,0.342-1.136,0.555
				c-0.952,0.582-2.052,0.953-2.988,1.576c-0.774,0.517-1.489,1.087-2.246,1.63c-0.398,0.287-0.819,0.492-1.271,0.706
				c-0.524,0.243-0.867,0.522-1.25,0.936c0.565,0.045,1.188-0.088,1.683,0.157c-0.361,0.243-0.971,0.329-1.385,0.459
				c-0.443,0.14-0.912,0.178-1.304,0.375c-0.4,0.2-0.665,0.456-1.136,0.566c0.034,0.462-0.139,0.985-0.217,1.439
				c-0.081,0.481-0.23,1.007-0.267,1.48c-0.024,0.391,0.059,0.825,0.059,1.241c0,0.499-0.076,0.93-0.186,1.396
				c0.568-0.244,1.226-0.205,1.852-0.205c0.148,0,0.324,0.026,0.468,0c0.545-0.101,0.505-0.982,0.998-1.253
				c0.818-0.457,1.604,0.22,2.439,0.017c1.859-0.446,3.419-2.081,4.895-3.157C142.402,114.657,142.984,114.249,143.641,113.999z"/>
		</g>
		<path d="M124.023,111.614c0.021-0.059-0.665-0.602-0.739-0.665c-0.247-0.215-0.516-0.476-0.811-0.632
			c-0.601-0.325-1.403-0.633-2.087-0.734c-0.263-0.039-0.442,0.092-0.694,0.128c-0.19,0.022-0.387-0.044-0.582-0.089
			c-0.545-0.126-1.379-0.2-1.915-0.008c-0.446,0.164-0.749,0.313-1.246,0.316c-0.159,0-0.337-0.041-0.509-0.036
			c-0.322,0.003-0.513,0.107-0.724,0.328c-0.146,0.148-0.403,0.468-0.357,0.697c0.056,0.286,0.352,0.024,0.539,0.13
			c-0.206,0.491-1.164,0.497-1.615,0.356c-0.321-0.102-0.541-0.233-0.89-0.158c-0.282,0.063-0.775,0.243-0.794,0.574
			c0.183,0.093,0.354,0.021,0.542,0.149c0.278,0.199,0.386,0.357,0.748,0.396c0.4,0.044,0.812,0.029,1.21-0.005
			c0.429-0.033,1.078-0.236,1.485-0.063c0.226,0.09,0.339,0.322,0.48,0.501c0.183,0.232,0.404,0.461,0.625,0.666
			c0.306,0.281,0.713,0.516,0.883,0.905c0.279,0.642,0.23,1.371,0.244,2.051c0.005,0.259-0.081,0.526-0.021,0.776
			c0.079,0.33,0.287,0.615,0.351,0.954c0.089,0.484,0.25,0.576,0.393,0.903c0.303,0.7,0.487,1.463,0.699,2.087
			c0.306,0.884,0.917,0.976,1.486,1.652c0.499,0.593,0.261,1.189,0.547,1.887c0.47,1.139,1.191,1.847,0.186,3.063
			c-0.298,0.359-0.708,0.729-1.009,1.07c-0.438,0.492-0.854,0.562-1.344,0.925c-0.504,0.38-0.81,1.014-1.057,1.565
			c1.202-0.044,2.821-0.139,3.575-1.1c0.261-0.33,0.4-0.435,0.791-0.548c0.408-0.118,0.896-0.235,1.213-0.509
			c0.247-0.202,0.392-0.473,0.558-0.721c0.212-0.31,0.425-0.23,0.752-0.371c0.731-0.327,1.286-0.803,1.866-1.341
			c0.147-0.133,0.22-0.311,0.312-0.479c0.117-0.218,0.247-0.33,0.438-0.491c0.269-0.228,0.536-0.554,0.765-0.825
			c0.512-0.605,0.166-1.549,0.377-2.257c0.293-0.967,1.178-1.149,1.519-1.949c0.39-0.929-0.657-1.403-0.651-2.152
			c0.011-0.853,0.943-1.148,1.089-2.049c0.198-1.187-0.429-1.085-1.186-1.673c0.703-2.125-1.322-1.209-2.285-2.275
			c-0.708-0.793,0.013-1.09-1.315-1.44C125.14,110.936,124.357,110.79,124.023,111.614z M121.347,121.253
			c-0.062-0.177,0.021-0.385,0.049-0.563c0.032-0.269-0.129-0.512-0.33-0.71c-0.156-0.151-0.662-0.3-0.539-0.586
			c0.092-0.22,0.407-0.23,0.255-0.539c-0.121-0.224-0.344-0.224-0.427-0.489c-0.064-0.223-0.1-0.404-0.225-0.593
			c-0.092-0.139-0.15-0.129-0.103-0.317c0.017-0.066,0.081-0.205,0.137-0.261c0.218,0.012,0.336,0.133,0.504,0.256
			c0.244,0.168,0.507,0.306,0.743,0.475c0.178,0.129,0.41,0.308,0.545,0.476c0.094,0.128,0.089,0.295,0.14,0.44
			c0.051,0.147,0.12,0.194,0.223,0.307c0.235,0.262,0.321,0.619,0.344,0.959c0.021,0.312-0.095,0.611-0.201,0.9
			c-0.14,0.387-0.548,0.749-0.991,0.409C121.411,121.362,121.368,121.309,121.347,121.253z"/>
		<path d="M114.215,129.715c-0.438,0.103-1.216-0.169-1.5-0.476c-0.52-0.562-0.696-1.177-0.745-1.906
			c-0.029-0.457,0.026-0.917,0.177-1.348c0.064-0.189,0.147-0.422,0.166-0.62c0.02-0.218-0.091-0.417-0.094-0.635
			c0.11,0.212,0.094,0.491,0.147,0.722c0.06,0.248,0.083,0.47,0.119,0.718c0.045,0.358,0,0.619,0.24,0.908
			c0.057,0.063,0.213,0.2,0.198,0.294c-0.011,0.046-0.171,0.12-0.209,0.164c-0.18,0.228,0.107,0.379,0.296,0.561
			c0.192,0.182,0.297,0.294,0.547,0.417c0.255,0.122,0.478,0.234,0.651,0.449c0.104,0.126,0.118,0.198,0.281,0.266
			c0.105,0.044,0.253,0.009,0.269,0.135c-0.117,0.049-0.24,0.034-0.356,0.101c-0.1,0.057-0.147,0.18-0.25,0.202
			c-0.182,0.04-0.515-0.104-0.708-0.09"/>
		<path d="M111.148,120.814c0,0-0.026,0.032-0.019,0.062c-0.652-0.087-1.264-0.469-1.784-0.832
			c-0.622-0.427-0.906-1.004-1.083-1.697c-0.112-0.453-0.199-0.831-0.092-1.288c0.054-0.229,0.177-0.674,0.381-0.791
			c0.054,0.24,0.183,0.459,0.365,0.623c0.252,0.229,0.166,0.165,0.064,0.466c-0.06,0.174,0.043,0.42,0.131,0.576
			c0.147,0.251,0.443,0.35,0.579,0.531c0.164,0.228,0.19,0.596,0.188,0.853c-0.002,0.277,0.11,0.475,0.325,0.659
			c0.097,0.087,0.199,0.143,0.287,0.245c0.092,0.118,0.145,0.261,0.266,0.349c0.094,0.065,0.215,0.065,0.295,0.157
			c0.064,0.075,0.097,0.19,0.135,0.244"/>
		<path fill="#FFFFFF" d="M115.628,127.347c0.092,0.111,0.183,0.229,0.273,0.345c0.135,0.177,0.322,0.363,0.451,0.525
			c-0.639-0.067-1.271-0.031-1.733-0.558c-0.311-0.339-0.418-0.876-0.536-1.297c-0.112-0.428-0.132-0.961,0.023-1.386
			c-0.045,0.122,0.188,0.536,0.251,0.653c0.088,0.181,0.198,0.341,0.315,0.499C114.984,126.544,115.309,126.944,115.628,127.347z"/>
		<path d="M114.598,125.086c0.073,0.102-0.031,0.354-0.005,0.515c0.029,0.206,0.096,0.415,0.158,0.598
			c0.089,0.262,0.188,0.542,0.306,0.798c0.309,0.637,1.194,0.888,1.878,0.982c-0.438,0.212-1.393-0.739-1.596-1.021
			c-0.15-0.238-0.285-0.489-0.432-0.726c-0.132-0.217-0.193-0.535-0.347-0.725"/>
		<path d="M114.203,126.646c0.026,0.063,0.021,0.068,0.005,0.012c-0.134-0.332-0.209-0.512-0.029-0.854
			c0.158-0.299,0.448-0.286,0.665-0.004c0.135,0.176,0.313,0.644,0.147,0.854c-0.062,0.071-0.375,0.177-0.47,0.194
			c-0.227,0.005-0.244-0.115-0.458-0.204c0.021-0.047,0.048-0.095,0.094-0.118"/>
		<path d="M114.12,124.437c-0.201,0.965-0.45,1.975,0.089,2.915c0.424,0.737,1.058,1.381,2.001,1.458
			c-0.708-0.458-1.344-1.218-1.714-1.97c-0.183-0.355-0.329-0.779-0.376-1.169c-0.056-0.381,0.055-0.752,0.027-1.147
			c0.086,0.059,0.132,0.136,0.161,0.22"/>
		<path fill="#FF0000" d="M122.039,121.368c-0.005-0.025,0.086-0.338,0.115-0.45c0.046-0.186,0.11-0.369,0.14-0.556
			c0.051-0.35,0.053-0.655-0.067-1c-0.276-0.79-0.745-1.389-1.395-1.917c0.054,0.313,0.429,0.623,0.619,0.889
			c0.279,0.398,0.411,0.88,0.572,1.336c0.142,0.381,0.23,0.774,0.209,1.179c-0.011,0.266-0.086,0.818-0.458,0.509
			c-0.376-0.315-0.54-0.982-0.68-1.422c-0.18-0.562-0.518-1.151-0.521-1.751c-0.005-0.29,0.06-0.556,0.132-0.846
			c-0.057,0.207,0.089,0.6,0.115,0.821c0.035,0.323,0.107,0.643,0.198,0.957c0.118,0.383,0.239,0.774,0.429,1.13
			c0.11,0.202,0.239,0.404,0.345,0.614c0.085,0.173,0.133,0.394,0.238,0.542"/>
		<path d="M181.761,192.721c-3.033,1.036-6.155,0.651-9.24,1.253c-2.519,0.491-5.053,1.212-7.553,1.837
			c-1.59,0.401-3.809,0.222-5.285,1.016c1.892,4.202,6.109,7.612,8.855,11.338c1.867,2.533,3.185,5.826,5.155,8.132
			c1.912-2.93,6.639-3.506,9.703-4.938c7.402-3.457,14.583-7.225,22.204-10.257c8.906-3.548,17.303-9.002,24.553-15.056
			c2.861-2.389,5.013-4.561,4.994-8.319c-0.017-2.801-1.642-3.948-4.322-4.845c-5.335-1.784-10.567-3.736-15.968-5.312
			c-9.309-2.715-18.939-3.258-28.533-4.825c-6.812-1.114-13.204-3.036-19.699-4.608c-2.771-0.669-4.75,0.118-7.227,1.515
			c-3.299,1.858-7.172,4.152-11.03,4.688c-3.476,0.479-7.146-0.796-10.683-0.564c-4.757,0.31-8.98,1.242-13.648,1.892
			c-2.866,0.402-5.722,0.568-8.515,1.272c-5.241,1.327-9.562,1.929-15.088,1.909c-2.665-0.008-5.392,0.184-8.052,0.389
			c-1.778,0.137-4.542,0.18-5.85,1.588c-4.804,5.167,4.928,11.548,7.387,15.493c1.597,2.558,3.935,4.666,5.921,6.944
			c6.021,6.903,13.536,11.739,20.956,17.043c1.202,0.863,2.3,1.841,3.333,2.894c2.721-1.805,4.624-4.576,7.625-6.271
			c1.687-0.949,3.118-1.838,4.925-2.233c1.385-0.303,2.972-0.396,4.199-0.961c-1.606-1.392-3.818-2.19-5.782-3.1
			c-3.48-1.614-6.329-3.95-9.46-6.088c-2.836-1.937-5.606-3.726-8.497-5.487c-1.335-0.811-4.963-2.538-4.683-4.304
			c7.702,0.716,14.51-0.609,22.304-2.216c2.958-0.609,6.853-1.912,9.919-1.327c1.131,0.218,1.939,0.979,2.979,1.511
			c1.548,0.792,3.316,1.058,4.981,1.333c8.404,1.386,16.659,1.918,25.287,1.918c3.461,0,6.875-0.034,10.319-0.316
			c3.053-0.25,5.908-1.213,8.98-1.254c0.56-0.006,1.008-0.301,1.612-0.284c0.095,0.686,0.09,1.438-0.006,2.119
			c-1.194,0.624-2.659,0.394-3.936,0.67c-1.572,0.347-3.122,0.969-4.656,1.515C187.104,189.537,184.899,191.643,181.761,192.721z"/>
		<path fill="#FFFFFF" d="M162.789,235.826c-0.601-0.209-1.87-2.016-2.476-2.66c-0.819-0.869-1.767-1.684-2.794-2.359
			c-2.505-1.657-5.018-3.63-7.087-5.804c-0.406-0.43-0.801-0.729-1.42-0.824c-0.608-0.094-1.213,0.196-1.67-0.234
			c-0.796-0.738,0.636-1.583-0.403-2.307c-1.013-0.707-2.719,0.418-2.892-1.293c-0.045-0.447,0.329-1.103,0.012-1.428
			c-0.419-0.434-0.977,0.055-1.377,0.083c-0.185-1.071,4.364-2.511,5.22-3.06c0.804-0.516,1.729-1.513,2.665-1.687
			c1.953-0.362,0.916,1.389,1.393,2.256c0.677,1.246,2.601-0.863,2.64,0.93c0.01,0.566-0.479,0.973-0.013,1.319
			c0.408,0.304,1.466,0.104,1.955,0.261c1.443,0.475,0.363,1.787,1.281,2.49c0.298,0.227,0.941,0.34,1.317,0.594
			c0.43,0.283,0.781,0.614,1.117,1.021c0.76,0.923,1.257,1.944,2.009,2.91c0.732,0.933,1.515,1.689,2.221,2.644
			c0.942,1.274,2.185,2.33,3.244,3.527c0.497,0.562,2.965,2.511,2.804,3.335c-1.195,0.449-2.562,0.286-3.861,0.286
			c-1.36,0-2.655,0.135-4.026,0.135"/>
		<g>
			<path d="M162.562,235.628c0.108-0.258,0.544-0.342,0.802-0.455c0.959-0.419,1.908-0.855,2.87-1.264
				c0.771-0.327,1.549-0.635,2.344-0.901c0.58,0.535,1.187,1.083,1.644,1.723c0.117,0.167,0.385,0.513,0.306,0.727
				c-0.052,0.14-0.283,0.328-0.396,0.437c-0.145,0.137-0.312,0.251-0.506,0.321c-0.551,0.199-1.072,0.331-1.664,0.331
				c-0.611,0-1.216-0.086-1.826-0.086c-0.351,0.003-0.704-0.01-1.049-0.04c-0.52-0.047-1.051-0.005-1.557-0.088
				c-0.358-0.055-0.932-0.087-0.99-0.523C162.531,235.74,162.54,235.679,162.562,235.628z"/>
			<path d="M165.371,229.73c0.73,0.808,1.534,1.559,2.267,2.37c-2.069,0.756-4.036,1.748-6.078,2.566
				c-0.471-0.56-0.943-1.179-1.246-1.501c-0.179-0.19-0.385-0.361-0.572-0.544C161.891,232.198,163.731,231.144,165.371,229.73z"/>
			<path d="M162.673,226.522c0.611,0.723,1.237,1.376,1.814,2.155c0.035,0.049,0.078,0.093,0.117,0.143
				c-1.673,1.46-3.598,2.561-5.907,2.787c-0.031,0.002-0.052,0.017-0.081,0.022c-0.355-0.286-0.717-0.57-1.097-0.823
				c-0.147-0.098-0.291-0.205-0.438-0.306C159.392,229.79,161.718,228.622,162.673,226.522z"/>
			<path d="M160.428,223.36c0.5,0.652,0.909,1.339,1.371,2.023c0,0-0.017,0.021-0.02,0.035c-0.639,2.481-3.483,3.587-5.94,4.221
				c-0.741-0.537-1.469-1.104-2.183-1.686C156.197,227.006,158.453,225.093,160.428,223.36z"/>
			<path d="M146.939,221.638c-0.26-0.179-0.561-0.238-0.869-0.26c2.446-0.971,4.785-2.622,6.124-4.6
				c0.803,0.595,2.368-0.954,2.405,0.661c0.01,0.566-0.479,0.973-0.013,1.319c0.074,0.054,0.182,0.077,0.285,0.104
				c-0.786,2.624-4.788,4.18-7.74,4.746C146.928,222.955,147.822,222.255,146.939,221.638z"/>
			<path d="M151.636,215.354c-1.261,2.491-4.481,4.637-7.482,5.438c-0.05-0.124-0.088-0.268-0.105-0.446
				c-0.045-0.447,0.329-1.103,0.012-1.428c-0.419-0.434-0.977,0.055-1.377,0.083c-0.185-1.071,4.364-2.511,5.22-3.06
				c0.804-0.516,1.729-1.513,2.665-1.687c1.116-0.207,1.254,0.275,1.258,0.888C151.754,215.189,151.688,215.256,151.636,215.354z"/>
			<path d="M156.12,218.961c0.158,0.008,0.307,0.024,0.422,0.059c1.443,0.475,0.363,1.787,1.281,2.49
				c0.298,0.227,0.941,0.34,1.317,0.594c0.175,0.115,0.331,0.245,0.483,0.38c-1.946,1.715-4.324,3.835-6.978,4.62
				c-0.772-0.679-1.523-1.374-2.214-2.101c-0.331-0.351-0.662-0.607-1.105-0.745C152.362,223.346,155.485,221.609,156.12,218.961z"
				/>
		</g>
		<path fill="#FFFFFF" d="M125.478,214.982c1.068,0.054,2.026-0.408,3.01-0.765c1.371-0.501,2.703-1.039,4.109-1.522
			c1.501-0.515,2.871-1.21,4.363-1.723c1.063-0.365,1.96-0.885,2.998-1.303c1.082-0.434,2.155-0.943,3.23-1.415
			c0.824-0.363,2.255-0.66,2.896-1.227c0.531-0.467,0.173-1.462,0.804-1.827c0.49-0.282,0.659,0.264,1.086,0.173
			c0.646-0.142,0.301-0.665,0.352-1.055c0.424-0.07,0.487,0.378,0.872,0.42c0.693,0.081,0.663-0.604,0.688-1.074
			c0.834-0.335,0.801,0.431,1.526,0.293c-0.017-0.299,0.12-0.591,0.433-0.664c0.452-0.104,0.236,0.135,0.387,0.464
			c0.271,0.576,0.428,1.142,0.643,1.749c0.273,0.766,0.9,1.276,1.335,2.005c0.549,0.918,1.122,1.88,1.478,2.869
			c0.386,1.059,1.989,3.572-0.143,3.408c-0.286-0.021-0.417-0.307-0.775-0.227c-0.451,0.098-0.492,0.521-0.694,0.852
			c-0.184,0.295-0.179,0.459-0.52,0.569c-0.421,0.139-0.896-0.088-0.923-0.528c-0.622-0.112-0.394,0.422-0.537,0.745
			c-0.298,0.662-0.262,0.312-0.867,0.08c-0.766-0.297-1.843,0.199-2.586,0.487c-2.307,0.894-4.665,1.634-6.987,2.513
			c-2.93,1.106-5.917,1.982-8.847,3.102c-1.548,0.594-3.896,1.516-5.302,0.328c-0.906-0.768-1.637-1.631-2.169-2.668
			c-0.31-0.603-0.417-1.121-0.529-1.765c-0.092-0.528-0.564-1.444-0.428-1.951c0.802-0.231,1.735-0.162,2.544-0.453"/>
		<g>
			<g>
				<path d="M134.223,212.064c-0.541,0.226-1.077,0.454-1.639,0.648c-0.521,0.177-1.008,0.372-1.514,0.559
					c1.337,2.471,2.664,4.956,4.339,7.207c1.161-0.399,2.323-0.792,3.483-1.194C136.982,217.147,135.513,214.587,134.223,212.064z"
					/>
				<path d="M140.678,213.417c-0.704-0.983-1.503-2.027-2.002-3.155c-0.56,0.261-1.118,0.518-1.729,0.728
					c-0.623,0.214-1.223,0.469-1.823,0.721c1.3,2.535,2.775,5.123,4.735,7.227c0.593-0.211,1.193-0.414,1.782-0.641
					c0.698-0.265,1.402-0.503,2.106-0.752C142.718,216.173,141.677,214.81,140.678,213.417z"/>
				<path d="M143.509,208.147c-0.11,0.039-0.238,0.081-0.332,0.123c-1.079,0.473-2.149,0.98-3.231,1.414
					c-0.133,0.056-0.248,0.115-0.375,0.171c0.659,1.595,1.963,3.118,2.941,4.45c0.715,0.974,1.447,1.938,2.17,2.903
					c1.046-0.362,2.083-0.738,3.118-1.126C146.142,213.541,144.467,210.989,143.509,208.147z"/>
				<path d="M147.172,205.144c-0.087-0.007-0.181,0.006-0.297,0.074c-0.634,0.363-0.274,1.361-0.803,1.826
					c-0.373,0.33-1.017,0.565-1.646,0.78c0.954,2.839,2.643,5.381,4.3,7.921c0.741-0.291,1.753-0.73,2.49-0.449
					c0.038,0.015,0.059,0.031,0.09,0.047C149.864,211.967,148.263,208.651,147.172,205.144z"/>
				<path d="M155.385,213.763c0.045,0.02,0.089,0.039,0.146,0.043c2.132,0.162,0.527-2.348,0.148-3.407
					c-0.363-0.992-0.935-1.952-1.483-2.871c-0.437-0.729-1.062-1.24-1.334-2.004c-0.215-0.609-0.372-1.174-0.643-1.748
					c-0.153-0.327,0.064-0.569-0.388-0.465c-0.124,0.03-0.198,0.111-0.27,0.194C153.116,206.823,154.164,210.323,155.385,213.763z"
					/>
				<path d="M150.602,203.719c-0.171-0.108-0.361-0.187-0.73-0.035c-0.022,0.467,0.007,1.152-0.688,1.073
					c-0.386-0.043-0.447-0.491-0.872-0.423c-0.037,0.312,0.148,0.7-0.092,0.918c1.062,3.294,2.562,6.428,3.926,9.61
					c0.025-0.246,0.055-0.467,0.476-0.39c0.026,0.441,0.498,0.666,0.92,0.529c0.341-0.11,0.337-0.275,0.519-0.573
					c0.127-0.205,0.2-0.436,0.337-0.609C153.206,210.423,152.158,206.976,150.602,203.719z"/>
				<path d="M130.156,213.611c-0.556,0.21-1.123,0.417-1.684,0.621c-0.337,0.124-0.668,0.252-1.004,0.374
					c1.438,2.407,2.838,4.871,4.555,7.08c0.271-0.101,0.532-0.198,0.771-0.287c0.556-0.214,1.115-0.392,1.676-0.588
					C132.821,218.55,131.491,216.073,130.156,213.611z"/>
			</g>
			<path fill="#FF0000" d="M126.567,214.978c-0.725,0.176-1.509,0.164-2.2,0.365c-0.137,0.505,0.338,1.423,0.428,1.952
				c0.111,0.641,0.219,1.161,0.527,1.764c0.534,1.037,1.262,1.9,2.173,2.669c0.934,0.795,2.293,0.636,3.557,0.275
				C129.379,219.795,127.993,217.354,126.567,214.978z"/>
		</g>
		<path d="M72.316,147.986c0.824-0.263,1.321-0.872,1.988-1.343c0.827-0.582,1.658-1.149,2.453-1.776
			c1.708-1.343,3.323-2.788,4.938-4.229c2.007-1.791,4.519-3.427,6.802-4.964c0.676-0.456,1.488-0.74,2.206-1.133
			c0.315-0.176,0.891-0.41,1.074-0.726c0.231-0.401-0.135-0.841-0.352-1.188c-0.508-0.809-1.174-1.571-1.621-2.421
			c-0.386-0.738-0.697-1.51-1.091-2.244c-0.269-0.506-0.634-0.983-0.9-1.472c0.423-0.115,0.831-0.542,1.231-0.743
			c0.497-0.245,0.99-0.439,1.501-0.634c0.712-0.27,0.728-0.155,1.057,0.425c0.341,0.601,0.673,1.179,0.949,1.805
			c0.489,1.091,0.762,2.216,1.354,3.285c0.452,0.814,0.862,1.589,1.384,2.363c0.395,0.581,0.72,1.19,1.118,1.756
			c0.907,1.288,2.067,2.452,3.187,3.6c0.959,0.985,2.092,1.84,3.214,2.645c0.956,0.688,1.928,1.418,2.882,2.084
			c1.087,0.758,2.23,1.404,3.319,2.154c-0.279,0.452-1.015,0.717-1.401,1.114c-0.335,0.339-0.641,0.958-1.092,1.123
			c-1.548-1.357-3.444-2.296-5.184-3.383c-0.457-0.281-0.95-0.507-1.42-0.771c-0.242-0.14-0.486-0.282-0.711-0.449
			c-0.196-0.145-0.382-0.517-0.66-0.524c-0.062-0.003-0.152,0.036-0.251,0.089c-0.739,0.72-1.661,1.273-2.405,2.007
			c-1.012,0.997-1.957,2.012-3.063,2.928c-2.35,1.949-4.184,4.312-6.36,6.412c-0.506,0.489-0.793,0.741-1.475,0.921
			c-0.602,0.154-1.358,0.215-2.002,0.138c-0.006,0-0.013,0-0.013,0c-0.101,0.047-0.197,0.086-0.305,0.088
			c-0.229,0.005-0.849-0.22-1.093-0.322c-0.847-0.357-1.652-0.912-2.488-1.323c-0.159-0.08-0.31-0.171-0.464-0.257
			c-0.371-0.178-0.728-0.376-1.065-0.594c-0.202-0.115-0.401-0.234-0.606-0.342c-0.716-0.376-1.488-0.684-2.149-1.143
			c-0.656-0.456-1.045-0.973-1.59-1.502C72.865,149.1,72.157,148.527,72.316,147.986z"/>
		<path d="M118.479,129.352c-0.453,0.389-1.11,0.708-1.419,1.229c-0.413,0.689,0.317,0.672,0.66,1.091
			c-0.198,0.163-0.483,0.343-0.646,0.545c-0.146,0.18-0.239,0.302-0.44,0.425c-0.463,0.286-1.006,0.511-1.488,0.779
			c-0.22,0.121-0.44,0.171-0.665,0.262c-0.365,0.134-0.59,0.357-0.926,0.542c-1.35,0.738-2.919,1.076-4.343,0.422
			c-0.778-0.358-1.532-0.48-2.379-0.606c-0.48-0.069-0.942-0.159-1.331-0.449c-0.324-0.243-0.558-0.582-0.896-0.813
			c-0.218-0.151-1.162-0.442-0.829-0.771c-0.396-0.137-1.183-0.378-1.526-0.061c0.115-0.399,0.013-0.676-0.118-1.044
			c-0.136-0.382-0.378-0.746-0.525-1.13c-0.089-0.231-0.037-0.499-0.153-0.719c-0.244,0.288-0.349,0.782-0.429,1.143
			c-0.147-0.776-0.392-1.589-0.478-2.391c-0.121-1.123-0.319-2.228-0.445-3.358c-0.037-0.337-0.014-0.716-0.113-1.043
			c-0.08-0.264-0.225-0.459-0.255-0.742c-0.077-0.702,0.186-1.441,0.357-2.117c0.124-0.491,0.226-1.007,0.424-1.451
			c0.571-1.257,1.433-2.236,2.586-3.043c0.523-0.367,1.009-0.766,1.548-1.114c0.474-0.31,1.009-0.514,1.478-0.823
			c0.566-0.371,1.084-0.67,1.728-0.926c0.365-0.145,1.003-0.594,1.39-0.583c-0.132,0.384-0.344,0.739-0.405,1.174
			c0.904,0.076,2.172-0.897,2.967-1.3c0.19-0.099,0.478-0.343,0.631-0.179c0.295,0.312-0.166,0.415-0.347,0.483
			c-0.346,0.139-0.472,0.332-0.786,0.542c-0.611,0.414-1.525,0.642-2.205,0.971c-1.115,0.539-2.365,0.958-3.317,1.732
			c-0.395,0.321-0.888,0.558-1.253,0.914c-0.475,0.468-0.743,1.203-0.986,1.802c-0.11,0.287-0.296,0.548-0.314,0.854
			c-0.019,0.256,0.062,0.532,0.057,0.777c-0.011,0.736-0.08,1.418,0.048,2.153c0.129,0.738,0.236,1.479,0.488,2.177
			c0.223,0.616,0.611,1.187,0.724,1.82c-0.005-0.25-0.102-0.386,0.135-0.511c0.15-0.075,0.574-0.036,0.757-0.093
			c-0.058,0.417-0.287,0.763-0.343,1.186c0.104,0.037,0.251,0.091,0.363,0.102c0.124,0.005,0.253-0.144,0.365-0.121
			c0.467,0.1,0.29,0.513,0.324,0.847c0.075,0.693,0.601,0.425,1.104,0.645c-0.027,0.264-0.175,0.472-0.285,0.68
			c0.312,0.016,0.556-0.396,0.891-0.111c0.322,0.265,0.104,0.838,0.053,1.163c0.271,0.054,0.476-0.13,0.798-0.01
			c0.447,0.166,1.059,0.929,0.941,1.363c0.654,0.015,1.282-0.055,1.956,0.138c-0.03,0.138-0.06,0.281-0.084,0.414
			c0.306-0.013,0.582-0.03,0.918,0.028c0.41,0.074,0.653,0.151,0.968-0.161c0.298-0.296,0.39-0.491,0.811-0.647
			c0.458-0.174,0.992-0.249,1.408-0.499c0.424-0.25,0.641-0.659,0.998-0.986c0.375-0.343,0.804-0.609,1.229-0.883
			c0.568-0.366,1.164-1.01,1.786-1.248c-0.006,0.42,0.198,0.453-0.209,0.775C119.114,128.838,118.785,129.092,118.479,129.352z"/>
	</g>
	<g>
		<path fill="#245977" d="M128.249,85.264c0.056,0.023,0.11,0.047,0.163,0.07c0.748,0.333,1.554,0.378,2.378,0.42
			c1.131,0.057,2.268,0.187,3.398,0.211c1.044,0.021,1.997-0.108,3.023-0.303c1.698-0.318,3.959-1.013,4.45-2.874
			c0.487-1.845,0.499-3.891,0.644-5.805c0.505-6.651,0.626-13.322,1.043-19.981c0.119-1.893,0.395-3.761,0.443-5.658
			c0.037-1.476,0.125-3.008,0.285-4.469c0.113-1.023,0.193-2.045,0.289-3.067c0.049-0.518,0.127-1.135,0.298-1.627
			c0.102-0.293,0.384-0.568,0.265-0.886c-1.483,0.356-2.902,0.874-4.341,1.376c-0.73,0.254-1.575,0.431-2.333,0.592
			c-1.225,0.258-2.483,0.727-3.761,0.562c-0.755-0.097-1.681-0.13-2.457,0.101c-0.788,0.236-1.568,0.391-2.374,0.139
			c-0.418-0.132-0.922-0.332-1.357-0.347c-0.837-0.025-1.462,0.552-1.976-0.308c-0.376-0.633-0.493-1.376-0.743-2.06
			c-0.416-1.14-0.771-2.444-1.646-3.337c1.2-0.276,2.388-0.149,3.599-0.292c1.904-0.226,3.846-0.359,5.751-0.308
			c2.226,0.062,4.343,0.419,6.519,1.021c1.346,0.371,2.576,0.854,3.693,1.688c0.5,0.374,0.931,0.783,1.499,1.026
			c-0.225,0.338-1.157,0.812-1.571,1.037c-0.79,0.427-1.601,0.827-2.453,1.123c-2.119,0.735-4.262,1.683-6.505,1.949
			c-1.989,0.235-3.965,0.183-5.968,0.128c-2.019-0.056-4.036-0.394-5.931-1.087c-0.824-0.301-1.603-0.433-2.423-0.771
			c-0.493-0.203-0.958-0.469-1.415-0.721c-0.78-0.429-2.081-1.033-2.44-1.905c0.35,0.127,0.76,0.48,1.122,0.655
			c0.402,0.192,0.765,0.395,1.169,0.605c0.887,0.462,1.787,0.811,2.672,1.297c-0.37-0.396-0.488-1.231-0.728-1.732
			c-0.282-0.594-0.589-1.168-0.93-1.756c-0.141-0.243-0.228-0.564-0.533-0.589c-0.2-0.016-0.734,0.294-0.933,0.389
			c-0.34,0.162-0.672,0.331-0.997,0.528c-0.165,0.099-0.685,0.432-0.748,0.609c-0.082,0.227,0.117,0.614,0.173,0.867
			c0.147,0.672,0.2,1.359,0.29,2.039c0.208,1.575,0.564,3.125,0.777,4.696c0.542,4.014,1.386,7.983,1.864,12.023
			c0.225,1.906,0.512,3.802,0.754,5.706c0.241,1.894,0.389,3.802,0.812,5.669c0.521,2.297,1.137,4.558,1.748,6.849
			c0.3,1.119,0.618,2.232,0.932,3.335c0.178,0.623,0.326,1.312,0.728,1.779c0.363,0.422,0.955,0.566,1.488,0.713
			C126.718,84.797,127.516,84.962,128.249,85.264z"/>
		<path fill="#FEA621" d="M122.41,46.481c-0.621-0.157-1.161-0.528-1.76-0.746c-0.435-0.158-1.136-0.49-1.458,0.034
			c-0.152,0.249,0.088,0.594,0.137,0.847c0.07,0.371,0.134,0.744,0.197,1.115c0.562,3.307,0.934,6.645,1.32,9.975
			c0.265,2.271,0.997,4.525,1.559,6.742c0.622,2.45,0.84,4.995,1.138,7.517c0.274,2.329,0.582,4.839,1.333,7.029
			c0.302,0.883,0.93,1.661,1.46,2.452c1.255,1.871,3.947,1.453,5.965,1.471c1.149,0.012,2.239,0.671,3.393,0.622
			c1.195-0.052,2.161-0.732,3.228-1.172c1.234-0.509,1.515-1.565,1.872-2.822c0.551-1.942,0.749-4.187,0.976-6.21
			c0.543-4.9,0.336-10.035,0.287-14.972c-0.035-3.601,0.289-7.158-0.129-10.74c-0.077-0.663-0.249-1.903-0.871-2.311
			c-0.542-0.355-1.972,0.555-2.732,0.718c-2.229,0.479-4.62,0.536-6.854,0.929c-2.048,0.36-4.086,0.538-6.092,0.084
			C124.396,46.82,123.393,46.73,122.41,46.481z"/>
		<g>
			<path fill="#FFFFFF" stroke="#FFFFFF" stroke-width="0.3044" stroke-miterlimit="10" d="M136.155,78.903
				c0.022,0.171-0.155,0.734,0.346,0.59c0.156-0.047,0.275-0.222,0.15-0.362c-0.14-0.164-0.561-0.047-0.749-0.025"/>
			<path fill="#FFFFFF" stroke="#FFFFFF" stroke-width="0.3044" stroke-miterlimit="10" d="M132.232,79.485
				c-0.022,0.127,0.22,0.458,0.516,0.24c0.337-0.252-0.195-0.627-0.392-0.373"/>
			<path fill="#FFFFFF" stroke="#FFFFFF" stroke-width="0.3044" stroke-miterlimit="10" d="M133.679,77.143
				c-0.124,0.197,0.047,0.575,0.393,0.412c0.367-0.169-0.121-0.612-0.32-0.364"/>
			<path fill="#FFFFFF" stroke="#FFFFFF" stroke-width="0.3044" stroke-miterlimit="10" d="M136.376,75.51
				c-0.021,0.034,0.105,0.058-0.049,0.071c-0.053,0.211,0.09,0.421,0.359,0.342c0.051-0.232-0.059-0.438-0.373-0.348"/>
			<path fill="#FFFFFF" stroke="#FFFFFF" stroke-width="0.3044" stroke-miterlimit="10" d="M133.256,74.165
				c0.132,0.197,0.558,0.507,0.69,0.096c0.082-0.243-0.439-0.663-0.581-0.337"/>
			<path fill="#FFFFFF" stroke="#FFFFFF" stroke-width="0.3044" stroke-miterlimit="10" d="M130.446,75.408
				c0.025,0.059,0.071,0.092,0.097,0.151c0.075,0,0.112,0.005,0.183-0.018c0.04-0.199-0.213-0.351-0.354-0.178"/>
			<path fill="#FFFFFF" stroke="#FFFFFF" stroke-width="0.3044" stroke-miterlimit="10" d="M128.906,78.105
				c0.403,0.73,0.577-0.21,0.061-0.063"/>
			<path fill="#FFFFFF" stroke="#FFFFFF" stroke-width="0.3044" stroke-miterlimit="10" d="M127.126,77.572
				c0.004,0.042,0.122,0.653,0.299,0.311c0.104-0.198-0.205-0.428-0.362-0.245"/>
			<path fill="#FFFFFF" stroke="#FFFFFF" stroke-width="0.3044" stroke-miterlimit="10" d="M127.634,74.886
				c-0.03,0.031-0.112,0.396,0.181,0.372c0.298-0.023,0.174-0.432-0.12-0.436"/>
			<path fill="#FFFFFF" stroke="#FFFFFF" stroke-width="0.3044" stroke-miterlimit="10" d="M130.551,71.632
				c-0.051,0.134-0.132,0.509,0.205,0.433c0.332-0.069,0.154-0.396-0.135-0.386"/>
			<path fill="#FFFFFF" stroke="#FFFFFF" stroke-width="0.3044" stroke-miterlimit="10" d="M132.409,68.157
				c-0.005,0.087,0.03,0.488,0.321,0.353c0.281-0.133,0.065-0.576-0.263-0.473"/>
			<path fill="#FFFFFF" stroke="#FFFFFF" stroke-width="0.3044" stroke-miterlimit="10" d="M135.072,66.812
				c-0.041,0.027-0.02,0.078-0.116,0.084c-0.02,0.09-0.004,0.234,0.036,0.319c0.53,0.039,0.277-0.722-0.055-0.388"/>
			<path fill="#FFFFFF" stroke="#FFFFFF" stroke-width="0.3044" stroke-miterlimit="10" d="M132.759,64.692
				c-0.156,0.206,0.288,0.507,0.585,0.285c0.309-0.227-0.143-0.66-0.401-0.479"/>
			<path fill="#FFFFFF" stroke="#FFFFFF" stroke-width="0.3044" stroke-miterlimit="10" d="M131.033,62.324
				c0.013,0.038,0.111,0.109,0.104,0.206c0.555,0.094,0.428-0.613-0.064-0.544c-0.013,0.034-0.016,0.069,0.002,0.104"/>
			<path fill="#FFFFFF" stroke="#FFFFFF" stroke-width="0.3044" stroke-miterlimit="10" d="M128.78,58.367
				c0.077,0.565,0.804-0.438,0.049-0.226c-0.008,0.055-0.005,0.106,0.01,0.16"/>
			<path fill="#FFFFFF" stroke="#FFFFFF" stroke-width="0.3044" stroke-miterlimit="10" d="M132.665,58.649
				c-0.147,0.173,0.231,0.52,0.368,0.187c0.11-0.266-0.335-0.486-0.521-0.283"/>
			<path fill="#FFFFFF" stroke="#FFFFFF" stroke-width="0.3044" stroke-miterlimit="10" d="M131.782,56.414
				c0.021,0.159,0.089,0.63,0.51,0.384c0.392-0.233-0.141-0.716-0.385-0.456"/>
			<path fill="#FFFFFF" stroke="#FFFFFF" stroke-width="0.3044" stroke-miterlimit="10" d="M131.784,54.129
				c-0.056,0.147,0.009,0.689,0.47,0.462c0.364-0.182-0.027-0.57-0.398-0.47"/>
			<path fill="#FFFFFF" stroke="#FFFFFF" stroke-width="0.3044" stroke-miterlimit="10" d="M138.346,71.224
				c-0.048,0.161,0.328,0.506,0.575,0.21c0.337-0.394-0.69-0.664-0.653-0.256"/>
			<path fill="#FFFFFF" stroke="#FFFFFF" stroke-width="0.3044" stroke-miterlimit="10" d="M139.124,68.506
				c-0.399,0.03-0.155,0.764,0.271,0.53c0.402-0.222-0.07-0.799-0.543-0.498"/>
			<path fill="#FFFFFF" stroke="#FFFFFF" stroke-width="0.3044" stroke-miterlimit="10" d="M134.228,71.311
				c0.111,0.295,0.701,0.259,0.684-0.092c-0.021-0.378-0.962-0.47-0.84-0.062"/>
			<path fill="#FFFFFF" stroke="#FFFFFF" stroke-width="0.3044" stroke-miterlimit="10" d="M125.86,68.017
				c0.132,0.243,0.538,0.475,0.643,0.042c0.047-0.197-0.123-0.367-0.393-0.347c-0.272,0.022-0.299,0.154-0.38,0.375"/>
			<path fill="#FFFFFF" stroke="#FFFFFF" stroke-width="0.3044" stroke-miterlimit="10" d="M125.878,71.669
				c0.032-0.013,0.059,0.03-0.057,0.016c0.008,0.194,0.286,0.16,0.469,0.095c0.18-0.286-0.143-0.567-0.509-0.434
				c-0.025,0.086-0.066,0.195-0.048,0.282"/>
			<path fill="#FFFFFF" stroke="#FFFFFF" stroke-width="0.3044" stroke-miterlimit="10" d="M125.188,75.176
				c-0.09,0.209,0.269,0.652,0.452,0.276c0.091-0.184-0.167-0.492-0.401-0.459c-0.279,0.038-0.249,0.309-0.288,0.497"/>
			<path fill="#FFFFFF" stroke="#FFFFFF" stroke-width="0.3044" stroke-miterlimit="10" d="M124.823,77.902
				c-0.074,0.242-0.008,0.738,0.425,0.692c0.498-0.051,0.241-0.734-0.194-0.598c-0.007,0.08-0.014,0.199,0.02,0.274"/>
			<path fill="#FFFFFF" stroke="#FFFFFF" stroke-width="0.3044" stroke-miterlimit="10" d="M128.947,80.213
				c0.192,0.22,1.031,0.374,0.811-0.153c-0.167-0.403-0.994-0.111-0.593,0.242"/>
			<path fill="#FFFFFF" stroke="#FFFFFF" stroke-width="0.3044" stroke-miterlimit="10" d="M136.913,80.64
				c-0.106,0.211,0.1,0.537,0.361,0.294c0.158-0.149,0.047-0.735-0.246-0.477"/>
			<path fill="#FFFFFF" stroke="#FFFFFF" stroke-width="0.3044" stroke-miterlimit="10" d="M137.955,78.407
				c-0.458,0.877,1.112,0.558,0.553,0.046"/>
			<path fill="#FFFFFF" stroke="#FFFFFF" stroke-width="0.3044" stroke-miterlimit="10" d="M140.255,77.509
				c0.102-0.005-0.025,0.008-0.054,0.014c-0.077,1.082,1.164-0.382,0.033-0.185"/>
			<path fill="#FFFFFF" stroke="#FFFFFF" stroke-width="0.3044" stroke-miterlimit="10" d="M139.324,76.018
				c-0.005,0.25,0.393,0.62,0.559,0.164c0.103-0.283-0.408-0.516-0.648-0.325"/>
			<path fill="#FFFFFF" stroke="#FFFFFF" stroke-width="0.3044" stroke-miterlimit="10" d="M140.821,74.699
				c-0.036,0.242,0.196,0.365,0.351,0.077c0.17-0.318-0.187-0.501-0.528-0.397"/>
			<path fill="#FFFFFF" stroke="#FFFFFF" stroke-width="0.3044" stroke-miterlimit="10" d="M138.241,74.435
				c0.486,0.555,0.811-0.498-0.034-0.284"/>
			<path fill="#FFFFFF" stroke="#FFFFFF" stroke-width="0.3044" stroke-miterlimit="10" d="M136.208,74.104
				c0.017,0.036,0.112,0.106,0.104,0.203c0.422,0.188,0.641-0.396,0.21-0.472"/>
			<path fill="#FFFFFF" stroke="#FFFFFF" stroke-width="0.3044" stroke-miterlimit="10" d="M136.057,72.81
				c-0.02,0.307,0.517,0.517,0.637,0.15"/>
			<path fill="#FFFFFF" stroke="#FFFFFF" stroke-width="0.3044" stroke-miterlimit="10" d="M137.732,72.438
				c0.117-0.017-0.047,0.015-0.052,0.017c-0.356,0.571,0.733,0.285,0.335,0.064"/>
			<path fill="#FFFFFF" stroke="#FFFFFF" stroke-width="0.3044" stroke-miterlimit="10" d="M135.939,70.651
				c0.21,0.522,0.899-0.146,0.311-0.265"/>
			<path fill="#FFFFFF" stroke="#FFFFFF" stroke-width="0.3044" stroke-miterlimit="10" d="M136.476,69.389
				c-0.056,0.516,0.758,0.256,0.326-0.153"/>
			<path fill="#FFFFFF" stroke="#FFFFFF" stroke-width="0.3044" stroke-miterlimit="10" d="M130.303,53.219
				c0.123,0.063-0.158-0.015-0.195-0.028c-0.034,0.146,0.018,0.481,0.304,0.365c0.265-0.109,0.106-0.487-0.19-0.441"/>
			<path fill="#FFFFFF" stroke="#FFFFFF" stroke-width="0.3044" stroke-miterlimit="10" d="M127.462,52.47
				c0.029,0.146,0.174,0.321,0.43,0.228c0.018-0.204-0.349-0.911-0.53-0.499"/>
			<path fill="#FFFFFF" stroke="#FFFFFF" stroke-width="0.3044" stroke-miterlimit="10" d="M125.802,48.896
				c0.076,0.193,0.395,0.461,0.562,0.181c0.126-0.215-0.25-0.451-0.377-0.371"/>
			<path fill="#FFFFFF" stroke="#FFFFFF" stroke-width="0.3044" stroke-miterlimit="10" d="M127.665,47.191
				c-0.044-0.015-0.086-0.024-0.128-0.032c-0.02,0.096-0.002,0.23,0.032,0.322c0.301,0.039,0.52-0.136,0.427-0.383"/>
			<path fill="#FFFFFF" stroke="#FFFFFF" stroke-width="0.3044" stroke-miterlimit="10" d="M128.36,45.513
				c-0.044-0.006-0.087,0.003-0.124,0.022c-0.068,0.267,0.184,0.297,0.332,0.124c0.153-0.172,0.064-0.493-0.187-0.551"/>
			<path fill="#FFFFFF" stroke="#FFFFFF" stroke-width="0.3044" stroke-miterlimit="10" d="M129.33,42.658
				c-0.001,0.112,0.139,0.335,0.357,0.233c0.232-0.107,0.112-0.593,0.004-0.677"/>
			<path fill="#FFFFFF" stroke="#FFFFFF" stroke-width="0.3044" stroke-miterlimit="10" d="M129.595,40.229
				c0.002,0.098,0.021,0.17,0.146,0.205c0.157-0.261,0.181-0.467,0.132-0.754"/>
			<path fill="#FFFFFF" stroke="#FFFFFF" stroke-width="0.3044" stroke-miterlimit="10" d="M127.07,38.642
				c-0.004,0.068,0.069,0.123,0.032,0.215c0.447,0.063,0.582-0.828,0.115-0.69"/>
			<path fill="#FFFFFF" stroke="#FFFFFF" stroke-width="0.301" stroke-miterlimit="10" d="M128.915,71.219
				c-0.052,0.159-0.032,0.408-0.276,0.428c-0.05-0.104-0.092-0.213-0.113-0.324"/>
			<path fill="#FFFFFF" stroke="#FFFFFF" stroke-width="0.3044" stroke-miterlimit="10" d="M128.169,49.704
				c-0.274,0.135-0.224,0.915,0.216,0.664c0.279-0.163,0.252-0.879-0.224-0.724"/>
			<path fill="#FFFFFF" stroke="#FFFFFF" stroke-width="0.3044" stroke-miterlimit="10" d="M128.713,55.519
				c-0.049-0.102-0.062-0.174-0.208-0.138c-0.007,0.176-0.018,0.543,0.32,0.474c0.328-0.073,0.132-0.619,0.108-0.818"/>
			<path fill="#FFFFFF" stroke="#FFFFFF" stroke-width="0.3044" stroke-miterlimit="10" d="M130.423,54.23
				c0.064,0.021-0.136-0.022-0.183,0.132c-0.026,0.104-0.005,0.301,0.097,0.353c0.429,0.224,0.389-0.382,0.341-0.56
				c-0.042-0.011-0.085-0.01-0.126,0.005"/>
			<path fill="#FFFFFF" stroke="#FFFFFF" stroke-width="0.3044" stroke-miterlimit="10" d="M130.279,56.534
				c0.126,0.039-0.083,0.021-0.124,0.021c-0.017,0.306,0.106,0.515,0.508,0.381c0.023-0.137-0.016-0.269-0.117-0.373
				c-0.051,0-0.091,0.022-0.115,0.065"/>
			<path fill="#FFFFFF" stroke="#FFFFFF" stroke-width="0.3044" stroke-miterlimit="10" d="M131.231,58.763
				c0.062,0.149,0.367,0.509,0.599,0.23c0.16-0.197-0.109-0.392-0.325-0.264"/>
			<path fill="#FFFFFF" stroke="#FFFFFF" stroke-width="0.3044" stroke-miterlimit="10" d="M130.291,60.127
				c0,0.064,0.036,0.188,0.044,0.273c0.252,0.003,0.667-0.119,0.363-0.321"/>
			<path fill="#FFFFFF" stroke="#FFFFFF" stroke-width="0.3044" stroke-miterlimit="10" d="M129.278,62.591
				c0.05-0.005,0.07-0.021,0.051-0.057c-0.24,0.279,0.371,0.568,0.656,0.213c0.263-0.33-0.133-0.815-0.254-0.385"/>
			<path fill="#FFFFFF" stroke="#FFFFFF" stroke-width="0.3044" stroke-miterlimit="10" d="M131.103,66.998
				c-0.117-0.062-0.256-0.157-0.416-0.116c0.035,0.337,0.64,0.666,0.946,0.354c0.281-0.291-0.174-0.884-0.42-0.479"/>
			<path fill="#FFFFFF" stroke="#FFFFFF" stroke-width="0.3044" stroke-miterlimit="10" d="M129.587,68.72
				c-0.055-0.045-0.153-0.074-0.22-0.101c-0.196,0.253,0.224,0.521,0.531,0.413c0.424-0.147,0.249-0.656-0.202-0.555"/>
			<path fill="#FFFFFF" stroke="#FFFFFF" stroke-width="0.3044" stroke-miterlimit="10" d="M127.267,70.02
				c0.121,0.136,0.304,0.595,0.681,0.551c0.539-0.063,0.277-0.804-0.14-0.614"/>
			<path fill="#FFFFFF" stroke="#FFFFFF" stroke-width="0.3044" stroke-miterlimit="10" d="M128.248,72.533
				c0.016,0.194,0.479,0.35,0.714,0.19c0.475-0.329-0.328-0.62-0.674-0.531c-0.016,0.036-0.018,0.07,0.001,0.106"/>
			<path fill="#FFFFFF" stroke="#FFFFFF" stroke-width="0.3044" stroke-miterlimit="10" d="M131.009,73.178
				c-0.435,0.385,1.221,0.588,0.543-0.064"/>
			<path fill="#FFFFFF" stroke="#FFFFFF" stroke-width="0.3044" stroke-miterlimit="10" d="M132.779,72.452
				c-0.069,0.377,0.513,0.315,0.476-0.056"/>
			<path fill="#FFFFFF" stroke="#FFFFFF" stroke-width="0.3044" stroke-miterlimit="10" d="M131.849,69.82
				c0.016,0.084-0.011,0.28,0.092,0.351c0.169,0.11,0.381,0.1,0.419-0.124"/>
			<path fill="#FFFFFF" stroke="#FFFFFF" stroke-width="0.3044" stroke-miterlimit="10" d="M133.419,67.981
				c-0.244,0.287,0.638,0.89,0.491,0.056"/>
			<path fill="#FFFFFF" stroke="#FFFFFF" stroke-width="0.3044" stroke-miterlimit="10" d="M134.658,66.234
				c-0.032,0.214,0.218,0.506,0.368,0.185"/>
			<path fill="#FFFFFF" stroke="#FFFFFF" stroke-width="0.301" stroke-miterlimit="10" d="M130.484,70.293
				c0.056,0.214-0.007,0.413-0.348,0.374c-0.15-0.315,0.24-0.506,0.437-0.215"/>
			<path fill="#FFFFFF" stroke="#FFFFFF" stroke-width="0.3044" stroke-miterlimit="10" d="M121.283,38.013
				c0.062,0.078,0.154,0.135,0.279,0.13c0.048-0.153-0.021-0.283-0.212-0.246c-0.015,0.034-0.016,0.073,0.001,0.108"/>
			<path fill="#FFFFFF" stroke="#FFFFFF" stroke-width="0.3044" stroke-miterlimit="10" d="M128.79,36.897
				c0.074,0.141,0.15,0.428,0.388,0.249c0.222-0.171,0.006-0.604-0.199-0.385"/>
			<path fill="#FFFFFF" stroke="#FFFFFF" stroke-width="0.301" stroke-miterlimit="10" d="M127.754,67.644
				c0.077,0.235-0.205,0.45-0.382,0.225c-0.197-0.251,0.256-0.637,0.439-0.288"/>
			<path fill="#FFFFFF" stroke="#FFFFFF" stroke-width="0.301" stroke-miterlimit="10" d="M128.409,64.086
				c-0.026,0.169-0.096,0.348-0.273,0.428c-0.162-0.174-0.14-0.731,0.207-0.42"/>
			<path fill="#FFFFFF" stroke="#FFFFFF" stroke-width="0.301" stroke-miterlimit="10" d="M128.354,61.352
				c0.054,0.174-0.041,0.465-0.27,0.479c-0.056-0.128-0.057-0.271,0.013-0.392"/>
			<path fill="#FFFFFF" stroke="#FFFFFF" stroke-width="0.301" stroke-miterlimit="10" d="M126.796,60.677
				c-0.001,0.109,0.02,0.169-0.095,0.236c-0.021-0.066-0.044-0.146-0.039-0.221"/>
			<path fill="#FFFFFF" stroke="#FFFFFF" stroke-width="0.301" stroke-miterlimit="10" d="M127.899,56.171
				c0.373,1.474-2.031-0.34,0.12-0.269"/>
			<path fill="#FFFFFF" stroke="#FFFFFF" stroke-width="0.301" stroke-miterlimit="10" d="M128.138,53.081
				c0.005,0.011,0.014,0.375,0.031,0.491c-0.729,0.029-0.574-0.841,0.058-1.013"/>
			<path fill="#FFFFFF" stroke="#FFFFFF" stroke-width="0.301" stroke-miterlimit="10" d="M128.952,49.795
				c-0.12,0.109-0.133,0.227-0.411,0.156c-0.059-0.129-0.035-0.209-0.039-0.342c0.14-0.049,0.269-0.057,0.42-0.067"/>
		</g>
		<path fill="#E5E5E5" d="M115.685,42.208c-0.219-1.851,0.922-3.447,2.126-4.766c1.567-1.712,3.545-3.165,5.539-4.349
			c0.986-0.585,1.91-0.976,3.095-0.957c1.021,0.017,2.033,0.138,3.043,0.128c1.244-0.014,2.439-0.429,3.672-0.415
			c1.159,0.015,2.379,0.248,3.414,0.759c1.122,0.555,2.286,0.812,3.22,1.697c0.97,0.923,1.205,2.433,2.265,3.258
			c0.452,0.352,0.739,0.598,1.023,1.112c0.345,0.629,1.044,0.854,1.496,1.392c0.099,0.116,0.172,0.241,0.275,0.35
			c0.152,0.16,0.351,0.236,0.52,0.373c0.31,0.25,0.545,0.469,0.624,0.865c0.079,0.398,0.014,0.851-0.162,1.217
			c-0.15,0.317-0.468,0.451-0.758,0.617c-0.364,0.21-1.068,0.601-1.497,0.418c-0.166-0.07-0.156-0.178-0.228-0.314
			c-0.094-0.18-0.179-0.238-0.393-0.289c-0.382-0.09-0.8-0.005-1.166,0.112c-0.311,0.1-0.504,0.304-0.791,0.415
			c-0.312,0.122-0.659,0.078-0.985,0.126c-0.341,0.05-0.708,0.146-1.016,0.304c-0.205,0.104-0.382,0.245-0.597,0.328
			c-0.376,0.143-0.706,0.079-1.089,0.117c-0.244,0.023-0.483,0.17-0.713,0.258c-0.229,0.086-0.465,0.166-0.689,0.265
			c-0.436,0.191-0.695,0.597-1.107,0.841c-0.185,0.109-0.528,0.275-0.722,0.087c-0.158-0.156-0.143-0.369-0.342-0.526
			c-0.399-0.316-0.958-0.078-1.442-0.123c-0.438-0.042-0.88-0.04-1.325-0.04c-0.83,0-1.512,0.383-2.32,0.535
			c-0.924,0.174-1.849-0.169-2.738-0.372c-0.84-0.192-1.676-0.373-2.489-0.658c-0.68-0.238-1.429-0.468-2.023-0.876
			c-0.56-0.384-1.283-0.375-1.938-0.462c-0.868-0.114-1.208-0.414-1.93-0.869c-0.302,0.536-0.079,1.39-0.055,2.014
			c0.027,0.691,0.026,1.379,0.098,2.086c0.056,0.561,0.131,1.49-0.569,1.579c-0.662,0.085-0.806-0.705-0.985-1.165
			c-0.148-0.381-0.193-0.796-0.188-1.202c0.005-0.397,0.134-0.815,0.103-1.206C115.87,43.99,115.789,43.089,115.685,42.208z"/>
	</g>
	<g>
		<path fill="#245977" d="M175.907,82.398c-0.055,0.025-0.11,0.053-0.164,0.08c-0.754,0.38-1.589,0.476-2.444,0.57
			c-1.173,0.128-2.346,0.33-3.52,0.425c-1.086,0.088-2.085,0.019-3.168-0.109c-1.788-0.21-4.19-0.76-4.832-2.586
			c-0.638-1.811-0.794-3.851-1.08-5.754c-0.995-6.605-1.592-13.258-2.498-19.877c-0.258-1.881-0.675-3.729-0.86-5.619
			c-0.144-1.47-0.342-2.994-0.613-4.442c-0.189-1.014-0.344-2.028-0.517-3.044c-0.087-0.512-0.212-1.124-0.425-1.604
			c-0.127-0.286-0.439-0.543-0.338-0.868c1.569,0.262,3.081,0.688,4.613,1.099c0.777,0.207,1.669,0.33,2.47,0.441
			c1.291,0.18,2.634,0.569,3.952,0.324c0.777-0.146,1.738-0.238,2.563-0.057c0.835,0.186,1.658,0.291,2.479-0.014
			c0.425-0.156,0.936-0.39,1.388-0.431c0.869-0.078,1.561,0.458,2.033-0.434c0.347-0.654,0.417-1.403,0.627-2.101
			c0.354-1.165,0.631-2.489,1.477-3.437c-1.268-0.199-2.494,0.003-3.764-0.063c-1.998-0.103-4.026-0.115-6.004,0.059
			c-2.312,0.202-4.489,0.693-6.71,1.431c-1.374,0.457-2.619,1.017-3.724,1.922c-0.494,0.404-0.912,0.841-1.487,1.12
			c0.258,0.321,1.262,0.735,1.709,0.934c0.852,0.377,1.723,0.726,2.63,0.966c2.258,0.599,4.553,1.409,6.906,1.532
			c2.086,0.109,4.137-0.068,6.218-0.251c2.097-0.184,4.172-0.648,6.093-1.46c0.837-0.353,1.637-0.533,2.466-0.924
			c0.499-0.233,0.964-0.528,1.421-0.809c0.782-0.478,2.093-1.164,2.404-2.058c-0.354,0.149-0.756,0.529-1.121,0.726
			c-0.404,0.219-0.767,0.442-1.173,0.679c-0.891,0.518-1.801,0.923-2.688,1.465c0.357-0.419,0.421-1.261,0.634-1.776
			c0.252-0.609,0.53-1.203,0.843-1.811c0.13-0.252,0.197-0.578,0.515-0.622c0.206-0.028,0.783,0.247,0.996,0.329
			c0.366,0.14,0.724,0.288,1.076,0.463c0.179,0.088,0.741,0.388,0.82,0.562c0.102,0.222-0.079,0.62-0.118,0.876
			c-0.105,0.68-0.112,1.37-0.157,2.054c-0.105,1.585-0.367,3.155-0.478,4.735c-0.281,4.043-0.878,8.058-1.089,12.12
			c-0.1,1.918-0.264,3.828-0.383,5.743c-0.116,1.905-0.134,3.82-0.444,5.709c-0.379,2.327-0.858,4.623-1.333,6.947
			c-0.232,1.137-0.485,2.269-0.734,3.389c-0.141,0.633-0.245,1.329-0.631,1.821c-0.348,0.444-0.953,0.626-1.498,0.807
			C177.47,81.835,176.649,82.05,175.907,82.398z"/>
		<path fill="#FEA621" d="M179.242,43.319c0.634-0.196,1.171-0.603,1.778-0.857c0.44-0.185,1.146-0.561,1.519-0.059
			c0.176,0.238-0.05,0.6-0.081,0.854c-0.047,0.374-0.088,0.75-0.127,1.126c-0.352,3.336-0.502,6.69-0.67,10.039
			c-0.114,2.282-0.716,4.58-1.146,6.828c-0.474,2.485-0.52,5.038-0.651,7.575c-0.121,2.342-0.264,4.866-0.89,7.102
			c-0.252,0.899-0.851,1.716-1.346,2.539c-1.173,1.946-4.005,1.699-6.103,1.847c-1.194,0.084-2.281,0.811-3.484,0.835
			c-1.248,0.025-2.3-0.594-3.441-0.964c-1.32-0.431-1.686-1.468-2.147-2.698c-0.709-1.904-1.074-4.131-1.452-6.137
			c-0.912-4.856-1.06-9.995-1.357-14.925c-0.218-3.597-0.807-7.127-0.626-10.729c0.034-0.667,0.125-1.916,0.745-2.361
			c0.537-0.39,2.089,0.428,2.893,0.543c2.354,0.337,4.844,0.242,7.195,0.492c2.157,0.23,4.289,0.278,6.344-0.303
			C177.199,43.782,178.237,43.63,179.242,43.319z"/>
		<g>
			<path fill="#FFFFFF" stroke="#FFFFFF" stroke-width="0.3109" stroke-miterlimit="10" d="M167.233,76.552
				c-0.012,0.171,0.213,0.722-0.317,0.611c-0.166-0.038-0.303-0.204-0.183-0.354c0.134-0.173,0.58-0.082,0.776-0.072"/>
			<path fill="#FFFFFF" stroke="#FFFFFF" stroke-width="0.3109" stroke-miterlimit="10" d="M171.355,76.883
				c0.032,0.126-0.196,0.473-0.52,0.272c-0.369-0.23,0.159-0.638,0.382-0.397"/>
			<path fill="#FFFFFF" stroke="#FFFFFF" stroke-width="0.3109" stroke-miterlimit="10" d="M169.686,74.637
				c0.143,0.189-0.009,0.577-0.38,0.437c-0.395-0.146,0.083-0.619,0.309-0.384"/>
			<path fill="#FFFFFF" stroke="#FFFFFF" stroke-width="0.3109" stroke-miterlimit="10" d="M166.765,73.179
				c0.024,0.032-0.106,0.063,0.056,0.067c0.069,0.207-0.063,0.425-0.351,0.363c-0.068-0.228,0.03-0.439,0.363-0.37"/>
			<path fill="#FFFFFF" stroke="#FFFFFF" stroke-width="0.3109" stroke-miterlimit="10" d="M169.915,71.639
				c-0.123,0.204-0.545,0.54-0.711,0.138c-0.104-0.236,0.409-0.689,0.58-0.372"/>
			<path fill="#FFFFFF" stroke="#FFFFFF" stroke-width="0.3109" stroke-miterlimit="10" d="M172.926,72.701
				c-0.022,0.06-0.067,0.095-0.091,0.155c-0.077,0.007-0.115,0.014-0.19-0.004c-0.056-0.197,0.198-0.364,0.356-0.201"/>
			<path fill="#FFFFFF" stroke="#FFFFFF" stroke-width="0.3109" stroke-miterlimit="10" d="M174.719,75.295
				c-0.369,0.755-0.615-0.173-0.068-0.061"/>
			<path fill="#FFFFFF" stroke="#FFFFFF" stroke-width="0.3109" stroke-miterlimit="10" d="M176.533,74.649
				c-0.003,0.042-0.081,0.66-0.288,0.329c-0.123-0.192,0.183-0.439,0.358-0.268"/>
			<path fill="#FFFFFF" stroke="#FFFFFF" stroke-width="0.3109" stroke-miterlimit="10" d="M175.814,72.001
				c0.034,0.029,0.146,0.386-0.161,0.383c-0.312-0.004-0.211-0.42,0.094-0.443"/>
			<path fill="#FFFFFF" stroke="#FFFFFF" stroke-width="0.3109" stroke-miterlimit="10" d="M172.551,68.938
				c0.062,0.13,0.173,0.499-0.184,0.445c-0.349-0.05-0.188-0.387,0.113-0.396"/>
			<path fill="#FFFFFF" stroke="#FFFFFF" stroke-width="0.3109" stroke-miterlimit="10" d="M170.371,65.587
				c0.011,0.088,0.004,0.491-0.31,0.373c-0.302-0.114-0.107-0.571,0.241-0.488"/>
			<path fill="#FFFFFF" stroke="#FFFFFF" stroke-width="0.3109" stroke-miterlimit="10" d="M167.506,64.414
				c0.043,0.024,0.026,0.077,0.128,0.077c0.025,0.09,0.02,0.234-0.017,0.32c-0.549,0.073-0.34-0.703,0.029-0.389"/>
			<path fill="#FFFFFF" stroke="#FFFFFF" stroke-width="0.3109" stroke-miterlimit="10" d="M169.763,62.151
				c0.178,0.195-0.264,0.523-0.589,0.322c-0.337-0.206,0.103-0.669,0.385-0.504"/>
			<path fill="#FFFFFF" stroke="#FFFFFF" stroke-width="0.3109" stroke-miterlimit="10" d="M171.391,59.678
				c-0.01,0.039-0.108,0.117-0.094,0.213c-0.57,0.129-0.488-0.585,0.027-0.547c0.017,0.033,0.021,0.069,0.006,0.104"/>
			<path fill="#FFFFFF" stroke="#FFFFFF" stroke-width="0.3109" stroke-miterlimit="10" d="M173.455,55.586
				c-0.04,0.569-0.867-0.386-0.067-0.223c0.013,0.055,0.014,0.105,0.002,0.161"/>
			<path fill="#FFFFFF" stroke="#FFFFFF" stroke-width="0.3109" stroke-miterlimit="10" d="M169.434,56.114
				c0.167,0.163-0.204,0.533-0.37,0.21c-0.134-0.259,0.313-0.507,0.521-0.315"/>
			<path fill="#FFFFFF" stroke="#FFFFFF" stroke-width="0.3109" stroke-miterlimit="10" d="M170.193,53.827
				c-0.01,0.16-0.047,0.635-0.502,0.415c-0.424-0.207,0.095-0.723,0.367-0.479"/>
			<path fill="#FFFFFF" stroke="#FFFFFF" stroke-width="0.3109" stroke-miterlimit="10" d="M170.031,51.547
				c0.066,0.144,0.038,0.688-0.457,0.491c-0.392-0.159-0.012-0.571,0.382-0.494"/>
			<path fill="#FFFFFF" stroke="#FFFFFF" stroke-width="0.3109" stroke-miterlimit="10" d="M164.411,69.025
				c0.062,0.157-0.305,0.526-0.583,0.245c-0.378-0.37,0.672-0.707,0.662-0.297"/>
			<path fill="#FFFFFF" stroke="#FFFFFF" stroke-width="0.3109" stroke-miterlimit="10" d="M163.411,66.361
				c0.417,0.006,0.215,0.753-0.244,0.546c-0.435-0.195,0.017-0.801,0.528-0.53"/>
			<path fill="#FFFFFF" stroke="#FFFFFF" stroke-width="0.3109" stroke-miterlimit="10" d="M168.704,68.852
				c-0.096,0.301-0.713,0.302-0.719-0.05c-0.006-0.377,0.967-0.529,0.868-0.114"/>
			<path fill="#FFFFFF" stroke="#FFFFFF" stroke-width="0.3109" stroke-miterlimit="10" d="M177.174,65.032
				c-0.119,0.251-0.524,0.507-0.665,0.083c-0.062-0.194,0.102-0.375,0.384-0.372c0.285,0.006,0.323,0.136,0.422,0.352"/>
			<path fill="#FFFFFF" stroke="#FFFFFF" stroke-width="0.3109" stroke-miterlimit="10" d="M177.415,68.678
				c-0.035-0.01-0.06,0.034,0.059,0.013c0.006,0.194-0.285,0.178-0.48,0.126c-0.207-0.276,0.107-0.577,0.499-0.467
				c0.032,0.084,0.083,0.191,0.069,0.279"/>
			<path fill="#FFFFFF" stroke="#FFFFFF" stroke-width="0.3109" stroke-miterlimit="10" d="M178.379,72.134
				c0.108,0.205-0.232,0.669-0.45,0.307c-0.108-0.179,0.139-0.504,0.385-0.485c0.293,0.021,0.281,0.293,0.334,0.479"/>
			<path fill="#FFFFFF" stroke="#FFFFFF" stroke-width="0.3109" stroke-miterlimit="10" d="M178.951,74.833
				c0.095,0.237,0.062,0.736-0.392,0.717c-0.521-0.018-0.304-0.716,0.16-0.607c0.011,0.08,0.027,0.197-0.001,0.275"/>
			<path fill="#FFFFFF" stroke="#FFFFFF" stroke-width="0.3109" stroke-miterlimit="10" d="M174.824,77.401
				c-0.184,0.231-1.047,0.438-0.854-0.102c0.146-0.413,1.026-0.174,0.634,0.203"/>
			<path fill="#FFFFFF" stroke="#FFFFFF" stroke-width="0.3109" stroke-miterlimit="10" d="M166.568,78.333
				c0.125,0.203-0.066,0.541-0.354,0.316c-0.178-0.141-0.103-0.731,0.222-0.492"/>
			<path fill="#FFFFFF" stroke="#FFFFFF" stroke-width="0.3109" stroke-miterlimit="10" d="M165.325,76.171
				c0.539,0.846-1.117,0.627-0.57,0.08"/>
			<path fill="#FFFFFF" stroke="#FFFFFF" stroke-width="0.3109" stroke-miterlimit="10" d="M162.869,75.42
				c-0.105,0.002,0.027,0.007,0.058,0.01c0.156,1.075-1.237-0.308-0.048-0.182"/>
			<path fill="#FFFFFF" stroke="#FFFFFF" stroke-width="0.3109" stroke-miterlimit="10" d="M163.733,73.872
				c0.022,0.249-0.366,0.645-0.569,0.198c-0.128-0.275,0.388-0.539,0.65-0.365"/>
			<path fill="#FFFFFF" stroke="#FFFFFF" stroke-width="0.3109" stroke-miterlimit="10" d="M162.082,72.651
				c0.054,0.239-0.179,0.376-0.359,0.1c-0.198-0.307,0.159-0.513,0.521-0.432"/>
			<path fill="#FFFFFF" stroke="#FFFFFF" stroke-width="0.3109" stroke-miterlimit="10" d="M164.748,72.223
				c-0.467,0.585-0.878-0.445,0.015-0.285"/>
			<path fill="#FFFFFF" stroke="#FFFFFF" stroke-width="0.3109" stroke-miterlimit="10" d="M166.838,71.764
				c-0.013,0.039-0.108,0.115-0.093,0.21c-0.426,0.216-0.695-0.355-0.252-0.456"/>
			<path fill="#FFFFFF" stroke="#FFFFFF" stroke-width="0.3109" stroke-miterlimit="10" d="M166.905,70.462
				c0.042,0.306-0.502,0.55-0.651,0.19"/>
			<path fill="#FFFFFF" stroke="#FFFFFF" stroke-width="0.3109" stroke-miterlimit="10" d="M165.137,70.197
				c-0.125-0.009,0.049,0.012,0.055,0.013c0.411,0.549-0.743,0.331-0.344,0.087"/>
			<path fill="#FFFFFF" stroke="#FFFFFF" stroke-width="0.3109" stroke-miterlimit="10" d="M166.876,68.301
				c-0.183,0.536-0.947-0.088-0.343-0.244"/>
			<path fill="#FFFFFF" stroke="#FFFFFF" stroke-width="0.3109" stroke-miterlimit="10" d="M166.228,67.075
				c0.095,0.512-0.769,0.304-0.35-0.133"/>
			<path fill="#FFFFFF" stroke="#FFFFFF" stroke-width="0.3109" stroke-miterlimit="10" d="M171.507,50.545
				c-0.124,0.07,0.164-0.025,0.202-0.041c0.046,0.144,0.016,0.481-0.291,0.384c-0.283-0.093-0.146-0.48,0.167-0.454"/>
			<path fill="#FFFFFF" stroke="#FFFFFF" stroke-width="0.3109" stroke-miterlimit="10" d="M174.409,49.616
				c-0.02,0.148-0.158,0.331-0.431,0.255c-0.032-0.203,0.299-0.934,0.516-0.532"/>
			<path fill="#FFFFFF" stroke="#FFFFFF" stroke-width="0.3109" stroke-miterlimit="10" d="M175.884,45.943
				c-0.065,0.197-0.378,0.484-0.572,0.216c-0.146-0.206,0.229-0.467,0.367-0.394"/>
			<path fill="#FFFFFF" stroke="#FFFFFF" stroke-width="0.3109" stroke-miterlimit="10" d="M173.825,44.36
				c0.045-0.018,0.087-0.029,0.131-0.04c0.027,0.094,0.019,0.23-0.011,0.323c-0.312,0.059-0.55-0.103-0.471-0.354"/>
			<path fill="#FFFFFF" stroke="#FFFFFF" stroke-width="0.3109" stroke-miterlimit="10" d="M172.982,42.729
				c0.047-0.009,0.092-0.002,0.132,0.014c0.09,0.262-0.171,0.309-0.338,0.146c-0.171-0.163-0.101-0.488,0.156-0.561"/>
			<path fill="#FFFFFF" stroke="#FFFFFF" stroke-width="0.3109" stroke-miterlimit="10" d="M171.771,39.942
				c0.011,0.111-0.119,0.343-0.354,0.256c-0.249-0.093-0.158-0.586-0.052-0.677"/>
			<path fill="#FFFFFF" stroke="#FFFFFF" stroke-width="0.3109" stroke-miterlimit="10" d="M171.325,37.533
				c0.006,0.099-0.009,0.172-0.137,0.215c-0.184-0.25-0.222-0.454-0.191-0.744"/>
			<path fill="#FFFFFF" stroke="#FFFFFF" stroke-width="0.3109" stroke-miterlimit="10" d="M173.839,35.79
				c0.01,0.068-0.062,0.126-0.018,0.215c-0.461,0.093-0.665-0.789-0.168-0.682"/>
			<path fill="#FFFFFF" stroke="#FFFFFF" stroke-width="0.3073" stroke-miterlimit="10" d="M174.223,68.421
				c0.064,0.155,0.062,0.406,0.318,0.41c0.045-0.107,0.08-0.219,0.095-0.331"/>
			<path fill="#FFFFFF" stroke="#FFFFFF" stroke-width="0.3109" stroke-miterlimit="10" d="M173.479,46.899
				c0.295,0.118,0.297,0.901-0.177,0.677c-0.303-0.145-0.325-0.859,0.181-0.735"/>
			<path fill="#FFFFFF" stroke="#FFFFFF" stroke-width="0.3109" stroke-miterlimit="10" d="M173.323,52.738
				c0.044-0.104,0.054-0.178,0.206-0.15c0.021,0.176,0.058,0.541-0.3,0.493c-0.347-0.053-0.18-0.609-0.17-0.81"/>
			<path fill="#FFFFFF" stroke="#FFFFFF" stroke-width="0.3109" stroke-miterlimit="10" d="M171.454,51.562
				c-0.066,0.024,0.139-0.031,0.199,0.12c0.035,0.103,0.026,0.3-0.076,0.358c-0.43,0.25-0.43-0.356-0.395-0.537
				c0.043-0.014,0.089-0.015,0.132-0.003"/>
			<path fill="#FFFFFF" stroke="#FFFFFF" stroke-width="0.3109" stroke-miterlimit="10" d="M171.765,53.852
				c-0.126,0.047,0.09,0.016,0.132,0.013c0.039,0.303-0.075,0.52-0.502,0.413c-0.033-0.136-0.002-0.27,0.096-0.381
				c0.054-0.003,0.097,0.017,0.125,0.059"/>
			<path fill="#FFFFFF" stroke="#FFFFFF" stroke-width="0.3109" stroke-miterlimit="10" d="M170.933,56.136
				c-0.056,0.154-0.347,0.531-0.605,0.27c-0.182-0.188,0.085-0.399,0.319-0.284"/>
			<path fill="#FFFFFF" stroke="#FFFFFF" stroke-width="0.3109" stroke-miterlimit="10" d="M172.007,57.438
				c0.006,0.064-0.023,0.19-0.026,0.274c-0.262,0.021-0.702-0.075-0.399-0.296"/>
			<path fill="#FFFFFF" stroke="#FFFFFF" stroke-width="0.3109" stroke-miterlimit="10" d="M173.234,59.833
				c-0.053-0.002-0.073-0.017-0.058-0.054c0.271,0.265-0.345,0.591-0.667,0.256c-0.296-0.313,0.081-0.822,0.237-0.401"/>
			<path fill="#FFFFFF" stroke="#FFFFFF" stroke-width="0.3109" stroke-miterlimit="10" d="M171.647,64.349
				c0.119-0.069,0.257-0.174,0.427-0.144c-0.015,0.338-0.62,0.705-0.96,0.414c-0.312-0.273,0.117-0.894,0.403-0.506"/>
			<path fill="#FFFFFF" stroke="#FFFFFF" stroke-width="0.3109" stroke-miterlimit="10" d="M173.348,65.97
				c0.053-0.047,0.154-0.083,0.222-0.114c0.221,0.239-0.197,0.534-0.524,0.447c-0.45-0.121-0.306-0.641,0.172-0.568"/>
			<path fill="#FFFFFF" stroke="#FFFFFF" stroke-width="0.3109" stroke-miterlimit="10" d="M175.853,67.12
				c-0.116,0.144-0.273,0.613-0.669,0.593c-0.565-0.028-0.345-0.784,0.103-0.622"/>
			<path fill="#FFFFFF" stroke="#FFFFFF" stroke-width="0.3109" stroke-miterlimit="10" d="M175.01,69.691
				c-0.003,0.195-0.475,0.38-0.73,0.235c-0.517-0.298,0.299-0.64,0.664-0.573c0.02,0.035,0.022,0.068,0.008,0.106"/>
			<path fill="#FFFFFF" stroke="#FFFFFF" stroke-width="0.3109" stroke-miterlimit="10" d="M172.184,70.509
				c0.479,0.358-1.229,0.665-0.57-0.029"/>
			<path fill="#FFFFFF" stroke="#FFFFFF" stroke-width="0.3109" stroke-miterlimit="10" d="M170.288,69.897
				c0.102,0.372-0.509,0.349-0.497-0.024"/>
			<path fill="#FFFFFF" stroke="#FFFFFF" stroke-width="0.3109" stroke-miterlimit="10" d="M171.072,67.213
				c-0.01,0.084,0.03,0.279-0.07,0.355c-0.169,0.12-0.39,0.123-0.445-0.098"/>
			<path fill="#FFFFFF" stroke="#FFFFFF" stroke-width="0.3109" stroke-miterlimit="10" d="M169.309,65.477
				c0.274,0.271-0.601,0.929-0.507,0.087"/>
			<path fill="#FFFFFF" stroke="#FFFFFF" stroke-width="0.3109" stroke-miterlimit="10" d="M167.896,63.812
				c0.049,0.211-0.19,0.519-0.369,0.207"/>
			<path fill="#FFFFFF" stroke="#FFFFFF" stroke-width="0.3073" stroke-miterlimit="10" d="M172.524,67.597
				c-0.044,0.218,0.036,0.412,0.389,0.351c0.134-0.322-0.286-0.488-0.469-0.187"/>
			<path fill="#FFFFFF" stroke="#FFFFFF" stroke-width="0.3109" stroke-miterlimit="10" d="M179.816,34.795
				c-0.06,0.081-0.153,0.145-0.282,0.146c-0.06-0.149,0.002-0.283,0.204-0.259c0.018,0.034,0.021,0.072,0.005,0.108"/>
			<path fill="#FFFFFF" stroke="#FFFFFF" stroke-width="0.3109" stroke-miterlimit="10" d="M171.928,34.157
				c-0.067,0.146-0.127,0.437-0.386,0.273c-0.244-0.156-0.049-0.604,0.181-0.396"/>
			<path fill="#FFFFFF" stroke="#FFFFFF" stroke-width="0.3073" stroke-miterlimit="10" d="M175.178,64.779
				c-0.062,0.24,0.245,0.438,0.415,0.2c0.186-0.264-0.313-0.619-0.479-0.26"/>
			<path fill="#FFFFFF" stroke="#FFFFFF" stroke-width="0.3073" stroke-miterlimit="10" d="M174.245,61.271
				c0.04,0.167,0.124,0.339,0.314,0.409c0.157-0.186,0.093-0.74-0.245-0.406"/>
			<path fill="#FFFFFF" stroke="#FFFFFF" stroke-width="0.3073" stroke-miterlimit="10" d="M174.109,58.538
				c-0.044,0.177,0.076,0.461,0.315,0.462c0.048-0.132,0.039-0.274-0.041-0.391"/>
			<path fill="#FFFFFF" stroke="#FFFFFF" stroke-width="0.3073" stroke-miterlimit="10" d="M175.683,57.765
				c0.009,0.109-0.009,0.17,0.116,0.23c0.017-0.067,0.034-0.15,0.023-0.224"/>
			<path fill="#FFFFFF" stroke="#FFFFFF" stroke-width="0.3073" stroke-miterlimit="10" d="M174.215,53.338
				c-0.282,1.495,2.091-0.469-0.143-0.261"/>
			<path fill="#FFFFFF" stroke="#FFFFFF" stroke-width="0.3073" stroke-miterlimit="10" d="M173.751,50.269
				c-0.006,0.012,0.012,0.377,0.001,0.492c0.762-0.016,0.537-0.875-0.132-1.006"/>
			<path fill="#FFFFFF" stroke="#FFFFFF" stroke-width="0.3073" stroke-miterlimit="10" d="M172.671,47.041
				c0.132,0.102,0.154,0.218,0.438,0.129c0.053-0.132,0.022-0.211,0.018-0.342c-0.15-0.04-0.283-0.04-0.441-0.041"/>
		</g>
		<path fill="#E5E5E5" d="M185.937,38.627c0.097-1.86-1.202-3.383-2.549-4.621c-1.751-1.611-3.911-2.935-6.069-3.989
			c-1.067-0.522-2.056-0.854-3.287-0.76c-1.062,0.081-2.105,0.267-3.156,0.32c-1.296,0.066-2.568-0.272-3.851-0.181
			c-1.205,0.088-2.457,0.398-3.498,0.974c-1.128,0.625-2.321,0.955-3.229,1.898c-0.908,0.944-1.131,2.291-1.936,3.238
			c-0.569,0.672-1.055,1.399-1.588,2.113c-0.51,0.682-1.218,0.858-1.654,1.586c-0.788,1.319-0.873,3.331-0.465,4.802
			c0.138,0.496,0.314,1.999,1.19,1.844c0.593-0.106,0.784-1.359,0.948-1.86c0.191-0.582-0.062-1.562,0.231-2.079
			c0.37-0.647,1.264-0.561,1.836-0.423c0.33,0.08,0.545,0.271,0.853,0.364c0.347,0.104,0.768,0.024,1.129,0.072
			c0.761,0.103,1.49,0.354,2.236,0.529c0.732,0.172,1.525,0.119,2.251,0.308c0.408,0.105,0.675,0.326,1.113,0.373
			c0.365,0.04,0.764,0.064,1.13,0.059c0.749-0.012,1.529,0.018,2.27-0.05c0.66-0.061,1.53-0.346,1.898,0.346
			c0.375,0.702,0.06,1.5,0.409,2.198c0.392,0.782,1.452,0.648,2.062,0.086c0.553-0.51,0.665-1.417,1.252-1.921
			c0.315-0.271,0.655-0.193,0.963-0.365c0.295-0.165,0.548-0.496,0.858-0.688c1.001-0.62,1.922-1.514,2.963-2.04
			c0.599-0.303,1.185-0.344,1.854-0.471c0.896-0.169,1.228-0.489,1.946-0.99c0.352,0.518,0.181,1.383,0.199,2.007
			c0.021,0.691,0.07,1.379,0.047,2.088c-0.02,0.563-0.032,1.496,0.704,1.54c0.693,0.042,0.788-0.753,0.942-1.226
			c0.128-0.39,0.144-0.806,0.109-1.211c-0.033-0.396-0.196-0.806-0.192-1.197C185.87,40.417,185.892,39.513,185.937,38.627z"/>
	</g>
	<path fill="#E5E5E5" d="M143.579,45.126c0.569,1.23,0.479,2.571,1.03,3.768c0.512,1.111,1.312,4.182-1.04,3.86
		c-1.304-0.179-0.793-2.717-0.793-3.719c0-1.124-0.151-2.85,0.291-3.89c0.149-0.048,0.342-0.049,0.491,0
		c0.032,0.123,0.039,0.254,0.021,0.381"/>
</g>
</svg>
