<?xml version="1.0" encoding="utf-8"?>
<!-- Generator: Adobe Illustrator 16.0.4, SVG Export Plug-In . SVG Version: 6.00 Build 0)  -->
<!DOCTYPE svg PUBLIC "-//W3C//DTD SVG 1.1//EN" "http://www.w3.org/Graphics/SVG/1.1/DTD/svg11.dtd">
<svg version="1.1" id="Ebene_1" xmlns="http://www.w3.org/2000/svg" xmlns:xlink="http://www.w3.org/1999/xlink" x="0px" y="0px"
	 width="328px" height="268px" viewBox="0 0 328 268" enable-background="new 0 0 328 268" xml:space="preserve">
<g>
	<g>
		<path fill="#245977" d="M61.475,73.649c-0.078,0.206-1.396,2.314-1.57,1.993c-0.478-0.89-0.061-1.397,0.197-2.188
			c0.276-0.841,0.346-1.691,0.301-2.524c-0.043-0.834,0.054-1.707-0.583-2.379c-0.558-0.586-1.542-0.583-1.444-1.608
			c0.032-0.346,0.248-0.656,0.35-0.998c0.111-0.375,0.113-0.828,0.193-1.223c0.158-0.794,0.436-1.549,0.85-2.214
			c0.457-0.734,0.873-1.422,1.826-0.924c0.766,0.398,0.789,1.662,0.935,2.411c0.22,1.123,0.265,2.313,0.183,3.454
			c-0.074,0.989-0.244,1.987-0.459,2.963c-0.141,0.64-0.115,1.356-0.358,1.97c-0.007,0.018-0.013,0.037-0.019,0.053
			c-0.005,0.016-0.01,0.03-0.023,0.061c-0.034,0.087-0.07,0.17-0.096,0.257C61.668,73.052,61.586,73.361,61.475,73.649z"/>
		<path fill="#FF0000" d="M60.494,68.469c-0.514-0.092-0.825-0.687-1.276-0.774c-0.415-0.081-0.595,0.475-0.719,0.841
			c-0.296,0.899-0.229,1.901-0.144,2.827c0.057,0.63,0.092,1.249,0.236,1.869c0.111,0.48,0.519,0.918,0.79,1.311
			c0.333,0.481,0.672,0.555,1.128,0.902c0.511,0.387,1.027,0.778,1.499,1.211c0.989,0.906,1.786,1.915,2.915,2.653
			c0.409,0.27,0.857,0.537,1.348,0.595c0.526,0.063,0.937,0.081,1.402,0.388c0.792,0.521,1.633,1.821,2.567,0.795
			c-0.084-0.585-0.771-0.791-1.141-1.126c-0.481-0.434-0.89-0.869-1.06-1.519c0.539-0.515,1.499,0.681,1.916,0.93
			c0.44,0.262,0.93,0.25,1.374,0.466c0.392,0.191,0.724,0.507,1.058,0.776c0.494,0.396,1.162,1.126,1.774,1.132
			c0.37,0.005,0.9-0.26,0.576-0.73c-0.171-0.246-0.772-0.263-1.044-0.405c-0.412-0.217-0.586-0.508-0.865-0.821
			c-0.312-0.351-0.723-0.417-1.108-0.658c-0.271-0.171-0.624-0.416-0.854-0.646c-0.33-0.334-0.439-0.651-0.703-1.042
			c-0.436-0.64-1.154-1.184-1.893-1.425c-0.785-0.256-1.666-0.333-2.117-1.146c-0.328-0.588-0.621-1.103-0.925-1.699
			c-0.303-0.593-0.624-0.767-1.28-0.866c-0.482-0.075-1.391,0.166-1.701-0.294c-0.664-0.981,1.177-0.57,1.591-0.616
			c0.552-0.064,1.58-0.096,1.494-0.873c-0.099-0.892-1.298-0.598-1.851-0.369c-0.579,0.236-1.532,0.159-0.811-0.534
			c0.323-0.311,1.16-0.948,0.729-1.511c-0.464,0.256-1.079,0.105-1.589,0.245C61.375,68.476,60.945,68.552,60.494,68.469z"/>
		<path fill="#245977" d="M60.863,61.957c-0.26,0.39-0.508,0.789-0.703,1.213c-0.484,1.062-1.08,2.123-1.333,3.27
			c-0.224,1.021-0.3,2.045-0.378,3.084c-0.076,1.049-0.01,2.111,0.244,3.126c0.111,0.442,0.137,0.853,0.267,1.296
			c0.078,0.264,0.188,0.517,0.292,0.766c0.168,0.402,0.393,1.044,0.773,1.311c-0.115-0.013-0.257-0.098-0.361-0.132
			c-0.333-0.11-0.682-0.172-1.022-0.252c-0.794-0.188-1.565-0.451-2.354-0.641c-2.018-0.483-3.997-1.123-6.032-1.572
			c-0.96-0.213-1.913-0.458-2.87-0.681c-0.953-0.219-1.918-0.392-2.848-0.707c-1.144-0.385-2.266-0.816-3.4-1.251
			c-0.556-0.21-1.107-0.433-1.652-0.648c-0.308-0.125-0.65-0.238-0.867-0.468c-0.196-0.211-0.24-0.522-0.287-0.806
			c-0.066-0.407-0.11-0.827-0.226-1.223c-0.009-0.03-0.017-0.059-0.026-0.089c-0.132-0.404-0.111-0.821-0.09-1.252
			c0.029-0.588,0.023-1.184,0.07-1.77c0.043-0.542,0.16-1.027,0.312-1.55c0.249-0.862,0.723-1.999,1.699-2.161
			c0.965-0.157,2.008-0.059,2.992-0.038c3.416,0.072,6.824,0.349,10.24,0.469c0.974,0.035,1.939-0.015,2.908,0.055
			c0.756,0.058,1.54,0.09,2.294,0.08c0.528-0.007,1.052,0.003,1.58,0.005c0.265,0.002,0.585-0.007,0.845-0.071
			c0.154-0.04,0.309-0.171,0.465-0.093c-0.005,0.014-0.012,0.028-0.016,0.044C61.2,61.435,60.977,61.786,60.863,61.957z"/>
		<path fill="#FFFFFF" stroke="#FFFFFF" stroke-width="0.1266" stroke-miterlimit="10" d="M43.619,64.773
			c-0.076-0.01-0.316,0.082-0.257-0.158c0.021-0.078,0.097-0.134,0.155-0.078c0.072,0.064,0.022,0.267,0.014,0.358"/>
		<path fill="#FFFFFF" stroke="#FFFFFF" stroke-width="0.1266" stroke-miterlimit="10" d="M43.371,66.655
			c-0.055,0.014-0.197-0.098-0.103-0.243c0.107-0.164,0.271,0.085,0.161,0.184"/>
		<path fill="#FFFFFF" stroke="#FFFFFF" stroke-width="0.1266" stroke-miterlimit="10" d="M44.379,65.935
			c-0.086,0.061-0.248-0.015-0.178-0.182c0.071-0.179,0.264,0.049,0.156,0.147"/>
		<path fill="#FFFFFF" stroke="#FFFFFF" stroke-width="0.1266" stroke-miterlimit="10" d="M45.077,64.623
			c-0.014,0.009-0.024-0.048-0.03,0.025c-0.09,0.027-0.182-0.04-0.146-0.169c0.099-0.027,0.188,0.022,0.15,0.174"/>
		<path fill="#FFFFFF" stroke="#FFFFFF" stroke-width="0.1266" stroke-miterlimit="10" d="M45.66,66.099
			c-0.084-0.06-0.218-0.259-0.041-0.328c0.104-0.043,0.285,0.201,0.145,0.272"/>
		<path fill="#FFFFFF" stroke="#FFFFFF" stroke-width="0.1266" stroke-miterlimit="10" d="M45.128,67.459
			c-0.024-0.01-0.039-0.033-0.064-0.044c-0.001-0.035-0.001-0.054,0.009-0.087c0.085-0.024,0.15,0.098,0.076,0.167"/>
		<path fill="#FFFFFF" stroke="#FFFFFF" stroke-width="0.1266" stroke-miterlimit="10" d="M43.97,68.231
			c-0.313-0.185,0.091-0.28,0.028-0.03"/>
		<path fill="#FFFFFF" stroke="#FFFFFF" stroke-width="0.1266" stroke-miterlimit="10" d="M44.202,69.077
			c-0.02-0.002-0.282-0.051-0.136-0.14c0.087-0.053,0.186,0.093,0.107,0.17"/>
		<path fill="#FFFFFF" stroke="#FFFFFF" stroke-width="0.1266" stroke-miterlimit="10" d="M45.358,68.797
			c-0.015,0.016-0.171,0.06-0.161-0.081c0.01-0.144,0.186-0.09,0.188,0.051"/>
		<path fill="#FFFFFF" stroke="#FFFFFF" stroke-width="0.1266" stroke-miterlimit="10" d="M46.755,67.361
			c-0.057,0.027-0.22,0.068-0.187-0.094c0.031-0.159,0.172-0.078,0.166,0.061"/>
		<path fill="#FFFFFF" stroke="#FFFFFF" stroke-width="0.1266" stroke-miterlimit="10" d="M48.248,66.427
			c-0.036,0.004-0.21-0.008-0.152-0.148c0.057-0.136,0.25-0.039,0.205,0.119"/>
		<path fill="#FFFFFF" stroke="#FFFFFF" stroke-width="0.1266" stroke-miterlimit="10" d="M48.824,65.136
			c-0.01,0.019-0.033,0.009-0.037,0.058c-0.037,0.01-0.1,0.004-0.136-0.016c-0.019-0.251,0.31-0.14,0.166,0.025"/>
		<path fill="#FFFFFF" stroke="#FFFFFF" stroke-width="0.1266" stroke-miterlimit="10" d="M49.74,66.215
			c-0.089,0.077-0.219-0.131-0.123-0.275c0.097-0.151,0.285,0.058,0.207,0.184"/>
		<path fill="#FFFFFF" stroke="#FFFFFF" stroke-width="0.1266" stroke-miterlimit="10" d="M50.762,67.01
			c-0.016-0.005-0.046-0.051-0.087-0.046c-0.042-0.265,0.263-0.213,0.233,0.024c-0.016,0.007-0.031,0.007-0.045,0"/>
		<path fill="#FFFFFF" stroke="#FFFFFF" stroke-width="0.1266" stroke-miterlimit="10" d="M52.469,68.039
			c-0.244-0.031,0.188-0.39,0.098-0.027c-0.023,0.006-0.047,0.004-0.068-0.001"/>
		<path fill="#FFFFFF" stroke="#FFFFFF" stroke-width="0.1266" stroke-miterlimit="10" d="M52.343,66.185
			c-0.075,0.071-0.225-0.105-0.081-0.174c0.114-0.059,0.21,0.152,0.123,0.243"/>
		<path fill="#FFFFFF" stroke="#FFFFFF" stroke-width="0.1266" stroke-miterlimit="10" d="M53.306,66.577
			c-0.069-0.008-0.271-0.035-0.166-0.238c0.099-0.191,0.308,0.057,0.197,0.176"/>
		<path fill="#FFFFFF" stroke="#FFFFFF" stroke-width="0.1266" stroke-miterlimit="10" d="M54.29,66.546
			c-0.063,0.028-0.296,0.006-0.2-0.219c0.078-0.176,0.246,0.006,0.203,0.184"/>
		<path fill="#FFFFFF" stroke="#FFFFFF" stroke-width="0.1266" stroke-miterlimit="10" d="M46.922,63.626
			c-0.07,0.024-0.219-0.15-0.092-0.273c0.169-0.166,0.287,0.322,0.111,0.312"/>
		<path fill="#FFFFFF" stroke="#FFFFFF" stroke-width="0.1266" stroke-miterlimit="10" d="M48.09,63.218
			c-0.012,0.192-0.328,0.084-0.227-0.123c0.095-0.195,0.342,0.023,0.213,0.253"/>
		<path fill="#FFFFFF" stroke="#FFFFFF" stroke-width="0.1266" stroke-miterlimit="10" d="M46.887,65.597
			c-0.125-0.048-0.111-0.332,0.04-0.329c0.163,0.005,0.204,0.456,0.028,0.402"/>
		<path fill="#FFFFFF" stroke="#FFFFFF" stroke-width="0.1266" stroke-miterlimit="10" d="M48.318,69.559
			c-0.106-0.061-0.206-0.252-0.02-0.306c0.084-0.027,0.158,0.053,0.148,0.182c-0.008,0.131-0.064,0.146-0.16,0.187"/>
		<path fill="#FFFFFF" stroke="#FFFFFF" stroke-width="0.1266" stroke-miterlimit="10" d="M46.745,69.597
			c0.005-0.015-0.014-0.026-0.007,0.026c-0.083-0.001-0.068-0.133-0.042-0.222c0.124-0.091,0.245,0.061,0.188,0.238
			c-0.038,0.014-0.084,0.036-0.123,0.027"/>
		<path fill="#FFFFFF" stroke="#FFFFFF" stroke-width="0.1266" stroke-miterlimit="10" d="M45.236,69.971
			c-0.09,0.046-0.281-0.119-0.121-0.213c0.08-0.044,0.214,0.073,0.199,0.186c-0.016,0.135-0.133,0.125-0.215,0.145"/>
		<path fill="#FFFFFF" stroke="#FFFFFF" stroke-width="0.1266" stroke-miterlimit="10" d="M44.062,70.182
			c-0.105,0.037-0.317,0.013-0.301-0.194c0.023-0.239,0.318-0.125,0.26,0.084c-0.033,0.005-0.086,0.01-0.119-0.005"/>
		<path fill="#FFFFFF" stroke="#FFFFFF" stroke-width="0.1266" stroke-miterlimit="10" d="M43.062,68.238
			c-0.095-0.091-0.162-0.49,0.064-0.39c0.174,0.074,0.049,0.475-0.103,0.287"/>
		<path fill="#FFFFFF" stroke="#FFFFFF" stroke-width="0.1266" stroke-miterlimit="10" d="M42.867,64.432
			c-0.09,0.052-0.229-0.042-0.126-0.171c0.064-0.076,0.317-0.032,0.206,0.114"/>
		<path fill="#FFFFFF" stroke="#FFFFFF" stroke-width="0.1266" stroke-miterlimit="10" d="M43.828,63.904
			c-0.376,0.231-0.241-0.524-0.02-0.263"/>
		<path fill="#FFFFFF" stroke="#FFFFFF" stroke-width="0.1266" stroke-miterlimit="10" d="M44.213,62.792
			c0.001-0.048-0.004,0.014-0.006,0.026c-0.466,0.05,0.162-0.56,0.079-0.018"/>
		<path fill="#FFFFFF" stroke="#FFFFFF" stroke-width="0.1266" stroke-miterlimit="10" d="M44.855,63.218
			c-0.106,0.006-0.268-0.178-0.071-0.265c0.122-0.053,0.222,0.188,0.142,0.305"/>
		<path fill="#FFFFFF" stroke="#FFFFFF" stroke-width="0.1266" stroke-miterlimit="10" d="M45.422,62.486
			c-0.104,0.019-0.157-0.091-0.033-0.167c0.137-0.086,0.215,0.082,0.171,0.248"/>
		<path fill="#FFFFFF" stroke="#FFFFFF" stroke-width="0.1266" stroke-miterlimit="10" d="M45.539,63.717
			c-0.24-0.226,0.213-0.395,0.121,0.012"/>
		<path fill="#FFFFFF" stroke="#FFFFFF" stroke-width="0.1266" stroke-miterlimit="10" d="M45.684,64.685
			c-0.016-0.006-0.046-0.053-0.087-0.046c-0.083-0.2,0.169-0.314,0.202-0.108"/>
		<path fill="#FFFFFF" stroke="#FFFFFF" stroke-width="0.1266" stroke-miterlimit="10" d="M46.24,64.741
			c-0.131,0.013-0.223-0.24-0.065-0.301"/>
		<path fill="#FFFFFF" stroke="#FFFFFF" stroke-width="0.1266" stroke-miterlimit="10" d="M46.4,63.935
			c0.006-0.057-0.008,0.022-0.008,0.024c-0.246,0.177-0.124-0.348-0.029-0.162"/>
		<path fill="#FFFFFF" stroke="#FFFFFF" stroke-width="0.1266" stroke-miterlimit="10" d="M47.17,64.77
			c-0.226-0.095,0.062-0.433,0.115-0.154"/>
		<path fill="#FFFFFF" stroke="#FFFFFF" stroke-width="0.1266" stroke-miterlimit="10" d="M47.714,64.499
			c-0.222,0.032-0.112-0.363,0.066-0.16"/>
		<path fill="#FFFFFF" stroke="#FFFFFF" stroke-width="0.1266" stroke-miterlimit="10" d="M54.684,67.243
			c-0.028-0.059,0.007,0.076,0.012,0.095c-0.062,0.017-0.206-0.004-0.156-0.141c0.047-0.127,0.209-0.056,0.189,0.086"/>
		<path fill="#FFFFFF" stroke="#FFFFFF" stroke-width="0.1266" stroke-miterlimit="10" d="M55.009,68.594
			c-0.062-0.011-0.138-0.078-0.098-0.204c0.087-0.01,0.394,0.156,0.216,0.248"/>
		<path fill="#FFFFFF" stroke="#FFFFFF" stroke-width="0.1266" stroke-miterlimit="10" d="M56.551,69.344
			c-0.084-0.034-0.198-0.185-0.078-0.267c0.09-0.064,0.193,0.113,0.159,0.174"/>
		<path fill="#FFFFFF" stroke="#FFFFFF" stroke-width="0.1266" stroke-miterlimit="10" d="M46.936,68.138
			c-0.068,0.027-0.177,0.022-0.184,0.137c0.044,0.023,0.09,0.042,0.139,0.052"/>
		<path fill="#FFFFFF" stroke="#FFFFFF" stroke-width="0.1266" stroke-miterlimit="10" d="M56.199,68.222
			c-0.057,0.132-0.394,0.117-0.285-0.096c0.069-0.137,0.377-0.131,0.311,0.098"/>
		<path fill="#FFFFFF" stroke="#FFFFFF" stroke-width="0.1266" stroke-miterlimit="10" d="M53.695,68.035
			c0.043,0.021,0.074,0.027,0.061,0.096c-0.076,0.007-0.234,0.016-0.205-0.146c0.031-0.158,0.266-0.071,0.353-0.062"/>
		<path fill="#FFFFFF" stroke="#FFFFFF" stroke-width="0.1266" stroke-miterlimit="10" d="M54.248,67.202
			c-0.01-0.033,0.009,0.062-0.058,0.088c-0.044,0.011-0.128,0.005-0.151-0.043c-0.098-0.203,0.164-0.19,0.242-0.17
			c0.002,0.02,0.002,0.039-0.003,0.059"/>
		<path fill="#FFFFFF" stroke="#FFFFFF" stroke-width="0.1266" stroke-miterlimit="10" d="M53.256,67.297
			c-0.018-0.059-0.008,0.041-0.008,0.059c-0.133,0.012-0.223-0.042-0.165-0.238c0.059-0.013,0.115,0.003,0.161,0.051
			c0,0.026-0.012,0.044-0.029,0.059"/>
		<path fill="#FFFFFF" stroke="#FFFFFF" stroke-width="0.1266" stroke-miterlimit="10" d="M52.295,66.871
			c-0.064-0.03-0.22-0.169-0.1-0.282c0.084-0.081,0.169,0.045,0.113,0.151"/>
		<path fill="#FFFFFF" stroke="#FFFFFF" stroke-width="0.1266" stroke-miterlimit="10" d="M51.709,67.338
			c-0.027,0.001-0.082-0.014-0.117-0.019c-0.002-0.12,0.051-0.32,0.137-0.178"/>
		<path fill="#FFFFFF" stroke="#FFFFFF" stroke-width="0.1266" stroke-miterlimit="10" d="M50.648,67.854
			c0.004-0.024,0.011-0.034,0.026-0.024c-0.122,0.118-0.247-0.172-0.095-0.311c0.143-0.129,0.352,0.051,0.168,0.115"/>
		<path fill="#FFFFFF" stroke="#FFFFFF" stroke-width="0.1266" stroke-miterlimit="10" d="M48.75,67.038
			c0.027,0.056,0.066,0.122,0.051,0.199c-0.146-0.014-0.287-0.299-0.154-0.449c0.126-0.14,0.381,0.071,0.207,0.195"/>
		<path fill="#FFFFFF" stroke="#FFFFFF" stroke-width="0.1266" stroke-miterlimit="10" d="M48.01,67.785
			c0.018,0.025,0.032,0.074,0.045,0.103c-0.109,0.098-0.225-0.098-0.18-0.248c0.063-0.204,0.282-0.126,0.239,0.089"/>
		<path fill="#FFFFFF" stroke="#FFFFFF" stroke-width="0.1266" stroke-miterlimit="10" d="M47.453,68.911
			c-0.059-0.058-0.256-0.136-0.238-0.317c0.027-0.26,0.346-0.145,0.266,0.059"/>
		<path fill="#FFFFFF" stroke="#FFFFFF" stroke-width="0.1266" stroke-miterlimit="10" d="M46.371,68.475
			c-0.084-0.006-0.153-0.224-0.084-0.338c0.141-0.234,0.268,0.148,0.229,0.312c-0.015,0.009-0.03,0.01-0.045,0.002"/>
		<path fill="#FFFFFF" stroke="#FFFFFF" stroke-width="0.1266" stroke-miterlimit="10" d="M46.089,67.162
			c-0.165,0.211-0.254-0.578,0.026-0.262"/>
		<path fill="#FFFFFF" stroke="#FFFFFF" stroke-width="0.1266" stroke-miterlimit="10" d="M46.4,66.305
			c-0.164,0.039-0.139-0.24,0.021-0.228"/>
		<path fill="#FFFFFF" stroke="#FFFFFF" stroke-width="0.1266" stroke-miterlimit="10" d="M47.533,66.716
			c-0.035-0.007-0.121,0.008-0.15-0.04c-0.047-0.081-0.044-0.181,0.053-0.202"/>
		<path fill="#FFFFFF" stroke="#FFFFFF" stroke-width="0.1266" stroke-miterlimit="10" d="M48.324,65.941
			c-0.126,0.121-0.385-0.294-0.025-0.233"/>
		<path fill="#FFFFFF" stroke="#FFFFFF" stroke-width="0.1266" stroke-miterlimit="10" d="M49.074,65.326
			c-0.092,0.019-0.219-0.097-0.08-0.173"/>
		<path fill="#FFFFFF" stroke="#FFFFFF" stroke-width="0.1266" stroke-miterlimit="10" d="M47.331,67.376
			c-0.091-0.024-0.178,0.007-0.16,0.169c0.136,0.069,0.218-0.119,0.092-0.208"/>
		<path fill="#245977" stroke="#FFFFFF" stroke-width="0.1382" stroke-miterlimit="10" d="M61.242,71.364
			c-0.033-0.027-0.059-0.071-0.057-0.131c0.066-0.024,0.122,0.009,0.106,0.098c-0.016,0.008-0.031,0.008-0.047,0"/>
		<path fill="#FFFFFF" stroke="#FFFFFF" stroke-width="0.1266" stroke-miterlimit="10" d="M48.477,68.648
			c-0.102-0.032-0.195,0.104-0.096,0.186c0.107,0.091,0.272-0.13,0.123-0.216"/>
		<path fill="#FFFFFF" stroke="#FFFFFF" stroke-width="0.1266" stroke-miterlimit="10" d="M50.007,68.289
			c-0.071,0.016-0.149,0.05-0.183,0.136c0.076,0.077,0.314,0.059,0.18-0.103"/>
		<path fill="#FFFFFF" stroke="#FFFFFF" stroke-width="0.1266" stroke-miterlimit="10" d="M51.185,68.28
			c-0.075-0.022-0.2,0.026-0.206,0.138c0.055,0.023,0.115,0.023,0.168-0.012"/>
		<path fill="#FFFFFF" stroke="#FFFFFF" stroke-width="0.1266" stroke-miterlimit="10" d="M51.477,69.017
			c-0.047,0.004-0.072-0.007-0.102,0.05c0.029,0.007,0.064,0.02,0.096,0.015"/>
		<path fill="#FFFFFF" stroke="#FFFFFF" stroke-width="0.1266" stroke-miterlimit="10" d="M53.416,68.432
			c-0.637-0.159,0.148,0.968,0.115-0.061"/>
		<path fill="#FFFFFF" stroke="#FFFFFF" stroke-width="0.1266" stroke-miterlimit="10" d="M54.746,68.279
			c-0.005-0.001-0.162-0.001-0.211-0.009c-0.014,0.348,0.361,0.262,0.435-0.042"/>
		<path fill="#FFFFFF" stroke="#FFFFFF" stroke-width="0.1266" stroke-miterlimit="10" d="M56.159,67.847
			c-0.048,0.058-0.099,0.067-0.065,0.2c0.054,0.027,0.09,0.013,0.146,0.013c0.021-0.066,0.023-0.127,0.028-0.204"/>
		<path fill="#FF0000" d="M51.17,64.117c0.271,0.141,0.533,0.286,0.801,0.413c1.008,0.48,2.215,0.355,3.266,0.72
			c0.699,0.245,1.606,0.45,2.123,1.022c0.517,0.571-0.223,1.422-0.203,2.172c0.026,0.983,0,1.987,0.105,2.975
			c0.1,0.919,0.527,1.772,0.631,2.679c-0.395-0.007-0.701-0.184-1.057-0.329c-0.448-0.18-0.947-0.261-1.414-0.383
			c-1.06-0.276-2.113-0.571-3.168-0.866c-2.081-0.584-4.161-1.169-6.271-1.633c-1.032-0.226-2.03-0.534-3.035-0.856
			c-0.995-0.322-2.041-0.624-2.822-1.364c-0.622-0.585-0.688-1.534-0.58-2.354c0.059-0.427,0.181-0.825,0.211-1.256
			c0.021-0.313,0.027-0.687,0.089-0.99c0.103-0.511,0.487-1.171,0.804-1.581c0.319-0.412,0.838-0.298,1.354-0.275
			c0.85,0.038,1.713,0.022,2.569-0.017c0.784-0.042,1.429-0.061,2.179,0.19c0.678,0.225,1.324,0.536,1.989,0.795
			c0.604,0.238,1.212,0.395,1.803,0.637C50.76,63.908,50.968,64.012,51.17,64.117z"/>
		<path fill="#FFFFFF" stroke="#FFFFFF" stroke-width="0.1266" stroke-miterlimit="10" d="M41.557,64.398
			c-0.067-0.006-0.289,0.076-0.232-0.145c0.018-0.069,0.088-0.123,0.142-0.069c0.065,0.059,0.021,0.244,0.011,0.326"/>
		<path fill="#FFFFFF" stroke="#FFFFFF" stroke-width="0.1266" stroke-miterlimit="10" d="M41.326,66.125
			c-0.049,0.012-0.18-0.091-0.094-0.223c0.1-0.149,0.247,0.076,0.146,0.167"/>
		<path fill="#FFFFFF" stroke="#FFFFFF" stroke-width="0.1266" stroke-miterlimit="10" d="M42.251,65.466
			c-0.077,0.055-0.228-0.015-0.163-0.167c0.067-0.167,0.242,0.045,0.146,0.135"/>
		<path fill="#FFFFFF" stroke="#FFFFFF" stroke-width="0.1266" stroke-miterlimit="10" d="M42.895,64.268
			c-0.014,0.007-0.021-0.046-0.028,0.022c-0.081,0.023-0.165-0.037-0.134-0.157c0.092-0.024,0.173,0.022,0.139,0.161"/>
		<path fill="#FFFFFF" stroke="#FFFFFF" stroke-width="0.1266" stroke-miterlimit="10" d="M43.425,65.62
			c-0.077-0.055-0.198-0.239-0.036-0.3c0.096-0.039,0.261,0.184,0.133,0.25"/>
		<path fill="#FFFFFF" stroke="#FFFFFF" stroke-width="0.1266" stroke-miterlimit="10" d="M42.934,66.864
			c-0.021-0.008-0.035-0.03-0.057-0.04c-0.001-0.032-0.004-0.049,0.005-0.081c0.081-0.019,0.138,0.091,0.071,0.155"/>
		<path fill="#FFFFFF" stroke="#FFFFFF" stroke-width="0.1266" stroke-miterlimit="10" d="M41.871,67.569
			c-0.287-0.17,0.082-0.255,0.025-0.027"/>
		<path fill="#FFFFFF" stroke="#FFFFFF" stroke-width="0.1266" stroke-miterlimit="10" d="M42.082,68.344
			c-0.018-0.001-0.258-0.047-0.124-0.127c0.079-0.049,0.171,0.086,0.099,0.154"/>
		<path fill="#FFFFFF" stroke="#FFFFFF" stroke-width="0.1266" stroke-miterlimit="10" d="M43.142,68.092
			c-0.013,0.014-0.155,0.054-0.147-0.077c0.01-0.128,0.17-0.081,0.172,0.051"/>
		<path fill="#FFFFFF" stroke="#FFFFFF" stroke-width="0.1266" stroke-miterlimit="10" d="M44.426,66.777
			c-0.055,0.026-0.203,0.064-0.172-0.083c0.027-0.147,0.156-0.071,0.152,0.055"/>
		<path fill="#FFFFFF" stroke="#FFFFFF" stroke-width="0.1266" stroke-miterlimit="10" d="M66.74,77.269
			c-0.034,0.005-0.193-0.009-0.139-0.139c0.051-0.124,0.227-0.032,0.186,0.112"/>
		<path fill="#FFFFFF" stroke="#FFFFFF" stroke-width="0.1266" stroke-miterlimit="10" d="M46.326,64.746
			c-0.01,0.02-0.031,0.01-0.033,0.052c-0.037,0.01-0.093,0.003-0.126-0.014c-0.017-0.229,0.285-0.128,0.151,0.021"/>
		<path fill="#FFFFFF" stroke="#FFFFFF" stroke-width="0.1266" stroke-miterlimit="10" d="M47.164,65.737
			c-0.084,0.071-0.201-0.119-0.114-0.254c0.09-0.137,0.261,0.056,0.189,0.172"/>
		<path fill="#FFFFFF" stroke="#FFFFFF" stroke-width="0.1266" stroke-miterlimit="10" d="M48.097,66.469
			c-0.015-0.005-0.042-0.047-0.081-0.044c-0.037-0.242,0.242-0.193,0.213,0.024c-0.012,0.007-0.027,0.007-0.041,0"/>
		<path fill="#FFFFFF" stroke="#FFFFFF" stroke-width="0.1266" stroke-miterlimit="10" d="M49.659,67.415
			c-0.226-0.03,0.171-0.358,0.089-0.025c-0.022,0.005-0.043,0.003-0.064-0.002"/>
		<path fill="#FFFFFF" stroke="#FFFFFF" stroke-width="0.1266" stroke-miterlimit="10" d="M49.546,65.714
			c-0.067,0.067-0.204-0.096-0.074-0.159c0.105-0.052,0.192,0.14,0.112,0.225"/>
		<path fill="#FFFFFF" stroke="#FFFFFF" stroke-width="0.1266" stroke-miterlimit="10" d="M50.428,66.077
			c-0.062-0.008-0.248-0.032-0.152-0.218c0.093-0.175,0.283,0.054,0.182,0.16"/>
		<path fill="#FFFFFF" stroke="#FFFFFF" stroke-width="0.1266" stroke-miterlimit="10" d="M51.328,66.052
			c-0.057,0.025-0.271,0.002-0.182-0.201c0.071-0.162,0.226,0.005,0.186,0.171"/>
		<path fill="#FFFFFF" stroke="#FFFFFF" stroke-width="0.1266" stroke-miterlimit="10" d="M65.797,75.565
			c-0.062,0.022-0.199-0.137-0.082-0.249c0.154-0.153,0.263,0.294,0.1,0.283"/>
		<path fill="#FFFFFF" stroke="#FFFFFF" stroke-width="0.1266" stroke-miterlimit="10" d="M66.97,77.938
			c-0.013,0.175-0.302,0.075-0.209-0.112c0.087-0.179,0.314,0.021,0.194,0.231"/>
		<path fill="#FFFFFF" stroke="#FFFFFF" stroke-width="0.1266" stroke-miterlimit="10" d="M65.238,76.881
			c-0.117-0.046-0.102-0.306,0.035-0.303c0.148,0.005,0.187,0.418,0.025,0.368"/>
		<path fill="#FFFFFF" stroke="#FFFFFF" stroke-width="0.1266" stroke-miterlimit="10" d="M45.851,68.796
			c-0.097-0.054-0.187-0.229-0.016-0.28c0.077-0.023,0.144,0.049,0.136,0.169c-0.009,0.119-0.061,0.135-0.147,0.169"/>
		<path fill="#FFFFFF" stroke="#FFFFFF" stroke-width="0.1266" stroke-miterlimit="10" d="M44.41,68.829
			c0.006-0.016-0.012-0.027-0.006,0.024c-0.076-0.002-0.063-0.125-0.037-0.203c0.111-0.086,0.223,0.054,0.172,0.216
			c-0.035,0.012-0.079,0.034-0.113,0.026"/>
		<path fill="#FFFFFF" stroke="#FFFFFF" stroke-width="0.1266" stroke-miterlimit="10" d="M43.027,69.167
			c-0.084,0.042-0.258-0.11-0.109-0.195c0.072-0.042,0.195,0.068,0.181,0.171c-0.016,0.124-0.121,0.112-0.196,0.132"/>
		<path fill="#FFFFFF" stroke="#FFFFFF" stroke-width="0.1266" stroke-miterlimit="10" d="M41.951,69.356
			c-0.096,0.036-0.289,0.013-0.272-0.178c0.021-0.217,0.289-0.115,0.233,0.079c-0.03,0.002-0.077,0.008-0.107-0.006"/>
		<path fill="#FFFFFF" stroke="#FFFFFF" stroke-width="0.1266" stroke-miterlimit="10" d="M41.039,67.574
			c-0.086-0.083-0.146-0.449,0.062-0.36c0.158,0.069,0.044,0.436-0.097,0.264"/>
		<path fill="#FFFFFF" stroke="#FFFFFF" stroke-width="0.1266" stroke-miterlimit="10" d="M62.881,75.041
			c-0.346,0.211-0.22-0.483-0.02-0.243"/>
		<path fill="#FFFFFF" stroke="#FFFFFF" stroke-width="0.1266" stroke-miterlimit="10" d="M42.106,62.588
			c0.001-0.045-0.003,0.011-0.005,0.023c-0.427,0.047,0.15-0.514,0.072-0.017"/>
		<path fill="#FFFFFF" stroke="#FFFFFF" stroke-width="0.1266" stroke-miterlimit="10" d="M42.693,62.98
			c-0.098,0.004-0.242-0.165-0.064-0.244c0.113-0.049,0.205,0.174,0.129,0.279"/>
		<path fill="#FFFFFF" stroke="#FFFFFF" stroke-width="0.1266" stroke-miterlimit="10" d="M63.364,72.547
			c-0.097,0.018-0.145-0.083-0.03-0.157c0.125-0.076,0.197,0.077,0.155,0.229"/>
		<path fill="#FFFFFF" stroke="#FFFFFF" stroke-width="0.1266" stroke-miterlimit="10" d="M64.883,75.584
			c-0.219-0.21,0.195-0.361,0.111,0.01"/>
		<path fill="#FFFFFF" stroke="#FFFFFF" stroke-width="0.1266" stroke-miterlimit="10" d="M43.449,64.323
			c-0.014-0.004-0.041-0.045-0.078-0.043c-0.075-0.181,0.154-0.284,0.184-0.098"/>
		<path fill="#FFFFFF" stroke="#FFFFFF" stroke-width="0.1266" stroke-miterlimit="10" d="M43.961,64.378
			c-0.122,0.012-0.205-0.223-0.059-0.278"/>
		<path fill="#FFFFFF" stroke="#FFFFFF" stroke-width="0.1266" stroke-miterlimit="10" d="M44.105,63.638
			c0.008-0.051-0.005,0.022-0.004,0.025c-0.226,0.161-0.112-0.32-0.025-0.147"/>
		<path fill="#FFFFFF" stroke="#FFFFFF" stroke-width="0.1266" stroke-miterlimit="10" d="M44.812,64.405
			c-0.206-0.086,0.058-0.396,0.104-0.137"/>
		<path fill="#FFFFFF" stroke="#FFFFFF" stroke-width="0.1266" stroke-miterlimit="10" d="M45.311,64.158
			c-0.203,0.03-0.102-0.329,0.06-0.145"/>
		<path fill="#FFFFFF" stroke="#FFFFFF" stroke-width="0.1266" stroke-miterlimit="10" d="M51.688,66.689
			c-0.025-0.051,0.006,0.071,0.012,0.087c-0.057,0.017-0.189,0-0.144-0.128c0.043-0.118,0.192-0.052,0.173,0.078"/>
		<path fill="#FFFFFF" stroke="#FFFFFF" stroke-width="0.1266" stroke-miterlimit="10" d="M51.984,67.93
			c-0.059-0.012-0.127-0.074-0.09-0.187c0.08-0.01,0.359,0.144,0.196,0.226"/>
		<path fill="#FFFFFF" stroke="#FFFFFF" stroke-width="0.1266" stroke-miterlimit="10" d="M53.395,68.618
			c-0.076-0.029-0.183-0.169-0.074-0.243c0.088-0.059,0.181,0.104,0.149,0.161"/>
		<path fill="#FFFFFF" stroke="#FFFFFF" stroke-width="0.1266" stroke-miterlimit="10" d="M54.064,67.783
			c0.008,0.02,0.011,0.039,0.016,0.056c-0.039,0.01-0.092,0.004-0.129-0.012c-0.016-0.127,0.055-0.226,0.151-0.189"/>
		<path fill="#FFFFFF" stroke="#FFFFFF" stroke-width="0.1266" stroke-miterlimit="10" d="M54.728,67.463
			c0.003,0.018-0.001,0.036-0.008,0.052c-0.105,0.035-0.116-0.076-0.049-0.143c0.067-0.07,0.194-0.034,0.216,0.075"/>
		<path fill="#FFFFFF" stroke="#FFFFFF" stroke-width="0.1266" stroke-miterlimit="10" d="M60.264,73.144
			c-0.045,0-0.133-0.058-0.092-0.156c0.041-0.103,0.233-0.055,0.267-0.007"/>
		<path fill="#FFFFFF" stroke="#FFFFFF" stroke-width="0.1266" stroke-miterlimit="10" d="M63.742,75.965
			c-0.039,0-0.066-0.006-0.081-0.061c0.104-0.071,0.185-0.085,0.298-0.066"/>
		<path fill="#245977" stroke="#245977" stroke-width="0.1266" stroke-miterlimit="10" d="M57.438,67.952
			c-0.025,0.005-0.047-0.027-0.084-0.01c-0.025-0.197,0.327-0.262,0.273-0.058"/>
		<path fill="#FFFFFF" stroke="#FFFFFF" stroke-width="0.1266" stroke-miterlimit="10" d="M44.588,67.491
			c-0.062,0.024-0.162,0.018-0.168,0.125c0.041,0.024,0.084,0.041,0.127,0.049"/>
		<path fill="#FFFFFF" stroke="#FFFFFF" stroke-width="0.1266" stroke-miterlimit="10" d="M53.074,67.589
			c-0.053,0.122-0.36,0.11-0.262-0.086c0.064-0.125,0.346-0.12,0.286,0.088"/>
		<path fill="#FFFFFF" stroke="#FFFFFF" stroke-width="0.1266" stroke-miterlimit="10" d="M50.781,67.413
			c0.041,0.021,0.068,0.024,0.055,0.091c-0.07,0.003-0.214,0.012-0.188-0.137c0.029-0.144,0.244-0.064,0.322-0.055"/>
		<path fill="#FFFFFF" stroke="#FFFFFF" stroke-width="0.1266" stroke-miterlimit="10" d="M51.289,66.65
			c-0.008-0.03,0.009,0.059-0.051,0.081c-0.043,0.012-0.119,0.005-0.141-0.039c-0.088-0.184,0.15-0.174,0.221-0.154
			c0.004,0.017,0.004,0.037-0.002,0.054"/>
		<path fill="#FFFFFF" stroke="#FFFFFF" stroke-width="0.1266" stroke-miterlimit="10" d="M62.286,73.192
			c-0.016-0.055-0.009,0.037-0.009,0.056c-0.12,0.01-0.203-0.043-0.149-0.22c0.053-0.011,0.104,0.004,0.147,0.047
			c0,0.021-0.01,0.041-0.027,0.051"/>
		<path fill="#FFFFFF" stroke="#FFFFFF" stroke-width="0.1266" stroke-miterlimit="10" d="M49.502,66.344
			c-0.061-0.027-0.201-0.155-0.092-0.26c0.078-0.072,0.155,0.043,0.104,0.14"/>
		<path fill="#FFFFFF" stroke="#FFFFFF" stroke-width="0.1266" stroke-miterlimit="10" d="M48.963,66.771
			c-0.025,0-0.073-0.015-0.107-0.018c-0.002-0.111,0.047-0.294,0.127-0.162"/>
		<path fill="#FFFFFF" stroke="#FFFFFF" stroke-width="0.1266" stroke-miterlimit="10" d="M47.99,67.241
			c0.004-0.022,0.01-0.03,0.023-0.025c-0.111,0.11-0.225-0.156-0.084-0.284c0.131-0.119,0.321,0.048,0.152,0.105"/>
		<path fill="#FFFFFF" stroke="#FFFFFF" stroke-width="0.1266" stroke-miterlimit="10" d="M60.992,73.131
			c0.023,0.053,0.061,0.111,0.045,0.183c-0.132-0.014-0.264-0.273-0.139-0.411c0.113-0.127,0.35,0.066,0.189,0.18"/>
		<path fill="#FFFFFF" stroke="#FFFFFF" stroke-width="0.1266" stroke-miterlimit="10" d="M45.572,67.17
			c0.018,0.026,0.029,0.068,0.04,0.094c-0.099,0.09-0.203-0.092-0.161-0.227c0.057-0.189,0.258-0.118,0.218,0.081"/>
		<path fill="#FFFFFF" stroke="#FFFFFF" stroke-width="0.1266" stroke-miterlimit="10" d="M45.061,68.202
			c-0.053-0.051-0.235-0.126-0.217-0.294c0.025-0.234,0.316-0.13,0.242,0.056"/>
		<path fill="#FFFFFF" stroke="#FFFFFF" stroke-width="0.1266" stroke-miterlimit="10" d="M44.069,67.798
			c-0.076-0.004-0.138-0.207-0.075-0.311c0.129-0.213,0.244,0.139,0.209,0.291c-0.015,0.005-0.027,0.005-0.041,0"/>
		<path fill="#FFFFFF" stroke="#FFFFFF" stroke-width="0.1266" stroke-miterlimit="10" d="M69.127,78.458
			c-0.15,0.196-0.23-0.528,0.027-0.238"/>
		<path fill="#FFFFFF" stroke="#FFFFFF" stroke-width="0.1266" stroke-miterlimit="10" d="M44.102,65.81
			c-0.148,0.035-0.125-0.221,0.021-0.207"/>
		<path fill="#FFFFFF" stroke="#FFFFFF" stroke-width="0.1266" stroke-miterlimit="10" d="M45.14,66.192
			c-0.033-0.007-0.111,0.006-0.138-0.038c-0.045-0.072-0.04-0.166,0.049-0.185"/>
		<path fill="#FFFFFF" stroke="#FFFFFF" stroke-width="0.1266" stroke-miterlimit="10" d="M64.135,74.328
			c-0.113,0.109-0.35-0.271-0.021-0.215"/>
		<path fill="#FFFFFF" stroke="#FFFFFF" stroke-width="0.1266" stroke-miterlimit="10" d="M46.555,64.92
			c-0.086,0.016-0.2-0.091-0.073-0.16"/>
		<path fill="#FFFFFF" stroke="#FFFFFF" stroke-width="0.1266" stroke-miterlimit="10" d="M44.955,66.793
			c-0.086-0.021-0.164,0.009-0.148,0.156c0.123,0.064,0.197-0.111,0.084-0.193"/>
		<path fill="#245977" stroke="#245977" stroke-width="0.1266" stroke-miterlimit="10" d="M57.686,70.484
			c-0.029-0.027-0.052-0.067-0.051-0.121c0.062-0.022,0.113,0.006,0.098,0.088c-0.014,0.007-0.029,0.01-0.042,0.002"/>
		<path fill="#245977" stroke="#245977" stroke-width="0.1266" stroke-miterlimit="10" d="M58.128,67.182
			c-0.058-0.031-0.169-0.062-0.101-0.169c0.067-0.099,0.239-0.01,0.152,0.084"/>
		<path fill="#FFFFFF" stroke="#FFFFFF" stroke-width="0.1266" stroke-miterlimit="10" d="M45.998,67.961
			c-0.092-0.029-0.177,0.094-0.088,0.171c0.1,0.083,0.25-0.121,0.113-0.196"/>
		<path fill="#FFFFFF" stroke="#FFFFFF" stroke-width="0.1266" stroke-miterlimit="10" d="M47.402,67.638
			c-0.066,0.013-0.138,0.045-0.17,0.125c0.069,0.069,0.287,0.053,0.166-0.095"/>
		<path fill="#FFFFFF" stroke="#FFFFFF" stroke-width="0.1266" stroke-miterlimit="10" d="M48.479,67.633
			c-0.067-0.022-0.183,0.023-0.188,0.123c0.049,0.024,0.105,0.022,0.154-0.009"/>
		<path fill="#FFFFFF" stroke="#FFFFFF" stroke-width="0.1266" stroke-miterlimit="10" d="M48.746,68.31
			c-0.043,0.002-0.067-0.01-0.093,0.044c0.025,0.006,0.058,0.016,0.086,0.014"/>
		<path fill="#FFFFFF" stroke="#FFFFFF" stroke-width="0.1266" stroke-miterlimit="10" d="M47.217,66.479
			c-0.582-0.148,0.134,0.886,0.105-0.056"/>
		<path fill="#FFFFFF" stroke="#FFFFFF" stroke-width="0.1266" stroke-miterlimit="10" d="M45.421,65.566
			c-0.002-0.001-0.147-0.001-0.192-0.008c-0.012,0.319,0.332,0.241,0.4-0.037"/>
		<path fill="#FFFFFF" stroke="#FFFFFF" stroke-width="0.1266" stroke-miterlimit="10" d="M53.038,67.247
			c-0.042,0.054-0.089,0.062-0.062,0.183c0.051,0.023,0.084,0.012,0.136,0.014c0.021-0.063,0.021-0.119,0.026-0.186"/>
		<path fill="#FFFFFF" stroke="#FFFFFF" stroke-width="0.1266" stroke-miterlimit="10" d="M61.197,70.396
			c0.014,0.006,0.041,0.048,0.077,0.044c0.035,0.244-0.245,0.189-0.214-0.027c0.014-0.006,0.029-0.006,0.043,0.001"/>
		<path fill="#FFFFFF" stroke="#FFFFFF" stroke-width="0.1266" stroke-miterlimit="10" d="M59.649,69.426
			c0.222,0.031-0.178,0.354-0.089,0.023c0.021-0.005,0.041-0.003,0.062,0.002"/>
		<path fill="#FFFFFF" stroke="#FFFFFF" stroke-width="0.1266" stroke-miterlimit="10" d="M59.733,71.126
			c0.071-0.065,0.204,0.1,0.073,0.161c-0.106,0.05-0.191-0.143-0.11-0.226"/>
		<path fill="#FFFFFF" stroke="#FFFFFF" stroke-width="0.1266" stroke-miterlimit="10" d="M55.933,68.16
			c0.076,0.034,0.179,0.172,0.067,0.245c-0.084,0.059-0.176-0.107-0.143-0.162"/>
		<path fill="#FFFFFF" stroke="#FFFFFF" stroke-width="0.1266" stroke-miterlimit="10" d="M55.247,68.986
			c-0.005-0.021-0.008-0.038-0.012-0.057c0.038-0.008,0.091-0.002,0.128,0.013c0.014,0.132-0.059,0.227-0.154,0.191"/>
		<path fill="#FFFFFF" stroke="#FFFFFF" stroke-width="0.1266" stroke-miterlimit="10" d="M54.58,69.297
			c-0.001-0.02,0.004-0.038,0.01-0.057c0.105-0.029,0.116,0.08,0.047,0.147c-0.068,0.066-0.195,0.029-0.215-0.081"/>
		<path fill="#FFFFFF" stroke="#FFFFFF" stroke-width="0.1266" stroke-miterlimit="10" d="M53.447,69.733
			c0.044-0.002,0.133,0.059,0.09,0.156c-0.044,0.104-0.234,0.053-0.268,0.003"/>
		<path fill="#FFFFFF" stroke="#FFFFFF" stroke-width="0.1266" stroke-miterlimit="10" d="M52.486,69.861
			c0.039,0,0.068,0.007,0.082,0.062c-0.104,0.071-0.187,0.081-0.299,0.06"/>
		<path fill="#FFFFFF" stroke="#FFFFFF" stroke-width="0.1266" stroke-miterlimit="10" d="M51.881,68.759
			c0.023,0,0.045,0.031,0.082,0.014c0.021,0.198-0.33,0.259-0.273,0.053"/>
		<path fill="#FFFFFF" stroke="#FFFFFF" stroke-width="0.1266" stroke-miterlimit="10" d="M56.235,69.194
			c0.056-0.12,0.362-0.101,0.261,0.091c-0.066,0.124-0.349,0.116-0.284-0.093"/>
		<path fill="#FFFFFF" stroke="#FFFFFF" stroke-width="0.1266" stroke-miterlimit="10" d="M58.916,70.092
			c0.015,0.053,0.008-0.038,0.009-0.054c0.121-0.01,0.202,0.042,0.146,0.22c-0.053,0.01-0.104-0.005-0.146-0.049
			c0-0.024,0.011-0.042,0.027-0.053"/>
		<path fill="#FFFFFF" stroke="#FFFFFF" stroke-width="0.1266" stroke-miterlimit="10" d="M59.787,70.498
			c0.061,0.027,0.201,0.159,0.088,0.26c-0.078,0.074-0.153-0.044-0.102-0.138"/>
		<path fill="#FFFFFF" stroke="#FFFFFF" stroke-width="0.1266" stroke-miterlimit="10" d="M60.334,70.079
			c0.024,0,0.073,0.018,0.107,0.02c0,0.111-0.053,0.292-0.129,0.159"/>
		<path fill="#FFFFFF" stroke="#FFFFFF" stroke-width="0.1266" stroke-miterlimit="10" d="M61.312,69.628
			c-0.003,0.02-0.009,0.03-0.023,0.02c0.112-0.108,0.223,0.161,0.08,0.287c-0.131,0.115-0.321-0.055-0.15-0.108"/>
		<path fill="#FFFFFF" stroke="#FFFFFF" stroke-width="0.1266" stroke-miterlimit="10" d="M51.67,66.225
			c0.029,0.027,0.052,0.067,0.049,0.124c-0.061,0.02-0.111-0.008-0.097-0.093c0.016-0.005,0.032-0.007,0.044,0"/>
		<path fill="#FFFFFF" stroke="#FFFFFF" stroke-width="0.1266" stroke-miterlimit="10" d="M51.178,69.521
			c0.056,0.032,0.168,0.066,0.096,0.171c-0.068,0.095-0.238,0.004-0.148-0.087"/>
		<path fill="#FFFFFF" stroke="#FFFFFF" stroke-width="0.1252" stroke-miterlimit="10" d="M61.908,69.238
			c0.067-0.012,0.138-0.043,0.171-0.122c-0.068-0.071-0.288-0.057-0.167,0.093"/>
		<path fill="#FFFFFF" stroke="#FFFFFF" stroke-width="0.1252" stroke-miterlimit="10" d="M60.83,69.226
			c0.068,0.023,0.184-0.021,0.191-0.12c-0.051-0.025-0.107-0.025-0.154,0.007"/>
		<path fill="#FFFFFF" stroke="#FFFFFF" stroke-width="0.1252" stroke-miterlimit="10" d="M60.574,68.546
			c0.043-0.001,0.066,0.009,0.094-0.043c-0.025-0.009-0.057-0.018-0.088-0.014"/>
		<path fill="#FFFFFF" stroke="#FFFFFF" stroke-width="0.1252" stroke-miterlimit="10" d="M58.788,69.047
			c0.58,0.158-0.12-0.887-0.106,0.054"/>
		<path fill="#FFFFFF" stroke="#FFFFFF" stroke-width="0.1266" stroke-miterlimit="10" d="M56.266,69.538
			c0.046-0.054,0.092-0.059,0.066-0.182c-0.051-0.024-0.084-0.015-0.137-0.017c-0.02,0.063-0.023,0.12-0.029,0.187"/>
	</g>
	<path fill="#245977" d="M118.027,108.432c-0.555,1.336-2.7,2.453-4.176,3.129c-1.99,0.913-3.699,1.976-5.785,2.813
		c-4.116,1.656-8.004,3.625-12.438,3.926c-3.775,0.255-7.607,0.103-11.409,0.007c-7.051-0.177-12.837-0.123-18.863-4.097
		c-1.132-0.747-2.241-1.691-3.253-2.563c-2.188-1.889-3.886-4.004-5.859-6.221c-1.672-1.88-3.111-3.936-4.566-6.018
		c-1.502-2.154-3.801-4.368-4.986-6.643c-2.781-5.338-2.51-10.632-3.245-16.083c-0.411-3.042-0.989-5.883-1.667-8.977
		c-0.449-2.041-0.477-6.25,2.717-6.333c1.277,1.986,0.004,5.03,1.291,6.598c0.598-0.68,0.481-8.84,3.275-6.12
		c1.672,1.626-0.439,6.081,0.757,8.237c1.071-1.817,0.091-6.257,3.206-6.36c0.953-0.031-1.278,6.272-1.436,6.721
		c0.809-1.938,2.623-3.101,4.541-3.625c1.685,3.204-0.881,5.103-2.823,7.327c-2.312,2.647-1.357,6.037-0.788,9.017
		c1.251,6.551,3.699,13.595,9.014,18.074c5.084,4.289,11.223,6.858,17.441,8.449c3.498,0.895,6.932,0.354,10.278-0.181
		c3.794-0.604,7.315-1.016,11.132-2.071c4.076-1.126,8.131-3.126,12.008-4.953c4.033-1.903,7.984,5.61,3.41,6.358"/>
	<path fill="#FF0000" d="M172.896,166.115c-3.147-0.48-6.264-0.662-9.533-0.442c-3.519,0.236-6.48-1.396-9.656-2.562
		c-3.105-1.137-6.307-2.551-8.804-4.827c-9.509-8.652-11.491-21.63-15.454-33.126c-1.02-2.96-2.446-7.361-1.746-10.542
		c0.841-3.814,2.797,2.562,4.479,0.317c0.598-0.802,0.594-2.1,0.546-3.052c-0.151-2.964-0.481-6.097-1.94-8.745
		c-0.788-1.425-1.801-3.218-3.591-3.384c-0.395-0.036-0.813-0.026-1.212-0.046c-0.434-0.021-0.649-0.022-1.051-0.19
		c-0.319-0.13-0.66-0.199-1.004-0.224c-0.85-0.058-1.71,0.152-2.523,0.389c-2.648,0.756-5.962,3.392-7.921-0.084
		c-1.256,2.317-1.646,5.105-3.021,7.345c-0.986,1.6-3.478,3.019-5.293,3.362c-0.62,0.115-1.611,0.569-2.216,0.174
		c-0.673-0.439-0.377-1.334-0.959-1.823c-0.287-0.241-1.047,2.957-1.056,3.236c-0.037,1.195,0.152,2.697,0.508,3.837
		c0.504,1.621,0.89,3.293,1.35,4.927c0.422,1.496,0.614,3.068,0.923,4.595c0.364,1.81,1.462,3.49,2.069,5.242
		c1.264,3.641,2.247,7.323,3.853,10.887c1.517,3.365,3.167,6.54,4.569,9.976c2.652,6.504,4.89,12.911,9.279,18.423
		c2.152,2.703,4.682,4.706,6.986,7.25c1.939,2.144,3.779,4.167,6.285,5.637c2.872,1.684,6.013,3.122,9.057,4.358
		c1.889,0.764,3.524,1.412,5.394,2.009c2.03,0.649,3.538,0.486,5.675,0.625c3.584,0.23,7.158,0.649,10.851,0.001
		c1.632-0.284,3.528-0.477,5.335-0.597c1.996-0.135,3.899,0.365,5.927-0.062c0.604-1.436,1.112-3.785,1.202-5.375
		c0.121-2.08,0.562-3.802,0.74-5.762c0.198-2.168,0.207-4.289,0.344-6.477c0.111-1.799,1.203-3.886,0.706-5.723
		c-2.175,1.103-6.421,0.879-8.733,0.508C173.139,166.152,173.018,166.134,172.896,166.115z"/>
	<path fill="#245977" d="M157.648,91.747c3.047-2.418,6.066-5.3,8.249-8.335c1.047-1.458,2.514-3.167,3.316-4.68
		c0.782-1.485,0.478-2.882,1.056-4.364c0.453-1.167,1.279-3.982,3.086-3.705c2.979,0.46,0.617,3.239,0.155,4.564
		c-1.32,3.783-2.407,6.841-4.804,10.184c1.986-2.156,9.455-9.39,12.176-6.97c-1.271,4.033-10.75,7.191-10.113,11.045
		c5.631-0.405,8.607-4.492,14.602-2.042c-2.365,3.992-11.652,3.078-12.188,7.947c2.777,0.903,6.268,0.643,8.319,2.728
		c-1.963,3.272-5.909,1.924-9.011,1.81c-3.187-0.116-5.76,0.643-8.74,1.62c-9.834,3.229-16.715,12.061-27.83,9.733
		c-1.448-0.301-2.912-0.525-4.371-0.783c-0.777-0.138-1.555-0.282-2.33-0.445c-0.359-0.077-0.725-0.15-1.082-0.244
		c-0.291-0.077-0.611-0.087-0.899-0.181c-0.336-0.111-0.681-0.322-0.933-0.559c-0.824-0.764-1.136-1.885-1.376-2.972
		c-0.198-0.887-0.19-2.077,0.147-2.929c0.182-0.462,0.338-0.901,0.795-1.151c0.32-0.175,0.695-0.312,1.056-0.361
		c0.846-0.114,1.741-0.093,2.594-0.084c1.896,0.019,3.787,0.205,5.674,0.372c3.115,0.274,6.292,0.497,9.378-0.192
		C149.57,100.636,153.665,94.914,157.648,91.747z"/>
	<g>
		<path fill="#245977" d="M80.723,83.872c-0.434,0.105-1.107-0.413-1.307,0.179c-0.171,0.505,0.412,0.816,0.257,1.325
			c-0.136,0.45-0.644,0.668-0.812,1.129c-0.364,1-0.01,1.769,0.389,2.648c0.445,0.98,0.982,1.914,1.578,2.808
			c1.211,1.816,2.651,3.482,4.243,4.964c0.493,0.46,1.004,0.9,1.532,1.316c1.701,1.337,3.508,1.979,5.357,3.13
			c2.576,1.604,4.377,3.636,7.16,4.86c1.436,0.63,2.328,1.646,3.271,2.948c0.275,0.381,2.6,4.713,2.467,4.736
			c2.795-0.453,5.494-3.58,6.939-5.779c0.915-1.395,1.891-4.201,1.756-5.86c-0.188-2.341-2.811-2.828-4.426-4.259
			c-1.258-1.121-3.043-2.138-4.119-3.452c-1.342-1.643-0.294-2.501,0.047-4.506c0.277-1.605,0.137-3.402-0.217-4.847
			c-0.655-2.673-2.221-4.995-4.949-5.721c-1.292-0.343-2.88-0.417-4.197-0.159c-0.82,0.159-1.486,0.449-2.348,0.449
			c-0.833,0.001-1.657-0.129-2.488-0.161c-0.965-0.035-1.635-0.035-2.309-0.777c-0.541-0.597-0.954-1.315-1.488-1.911
			c-0.441-0.491-1.281-1.228-1.988-1.15c-0.725,0.081-1.154,1.401-1.271,2.027c-0.233,1.254,0.526,3.646-0.724,4.533
			c-0.67,0.472-1.48-0.199-2.127,0.098C80.182,82.796,81.318,83.727,80.723,83.872z"/>
		<path d="M93.223,80.968c0.004,0.028,0.006,0.058,0.007,0.086c0.083,0.392,0.909,0.223,1.208,0.195
			c0.213-0.02,0.412,0.017,0.607-0.022c0.238-0.048,0.474-0.081,0.716-0.071c0.595,0.026,1.134,0.041,1.685,0.264
			c0.653,0.264,1.289,0.579,1.8,1.065c0.427,0.403,0.831,0.898,0.932,1.513c0.093,0.558-0.235,1.343-0.588,1.755
			c-0.372,0.432-0.755,0.846-1.231,1.151c-0.41,0.264-0.859,0.419-1.288,0.617c-0.046-0.247,0.32-0.523,0.458-0.686
			c0.231-0.277,0.453-0.664,0.582-0.998c0.122-0.316,0.186-0.678,0.093-1.005c-0.128-0.446-0.276-0.991-0.534-1.375
			c-0.357-0.53-0.715-0.878-1.307-1.123c-0.466-0.19-0.957-0.277-1.445-0.359c-0.396-0.067-0.809-0.158-1.205-0.26
			c-0.158-0.04-0.311-0.098-0.465-0.136c-0.104-0.027-0.326-0.021-0.374-0.101"/>
		<path d="M94.475,86.688c-0.352,0.073-0.742-0.291-0.971-0.521c-0.348-0.343-0.451-0.701-0.527-1.174
			c-0.143-0.862,0.084-1.554,0.769-2.068c-0.399,0.051-0.827-0.085-1.223-0.091c0.114,0.131,0.293,0.223,0.457,0.267
			c-0.372,0.274-0.713,0.575-1.044,0.884c0.023,0.041,0.033,0.061,0.068,0.091c0.146-0.056,0.481-0.122,0.584,0.021
			c-0.156,0.146-0.336,0.258-0.469,0.421c-0.148,0.182-0.209,0.403-0.326,0.604c0.219,0.056,0.814-0.084,0.582,0.279
			c-0.08,0.122-0.24,0.193-0.33,0.323c-0.109,0.159-0.28,0.501-0.278,0.697c0.147-0.009,0.377-0.201,0.544-0.262
			c0.191-0.067,0.428-0.091,0.615-0.03c-0.144,0.442-0.15,0.981-0.096,1.434c0.149-0.131,0.518-0.902,0.808-0.71
			c-0.099,0.453-0.076,0.825,0.109,1.248c0.126-0.373,0.235-1.049,0.478-1.315c0.055,0.527,0.308,1.053,0.796,1.29
			c-0.183-0.505-0.458-1.015-0.584-1.575"/>
		<path d="M106.551,81.542c0-0.33-0.021-0.653-0.081-0.945c-0.175-0.863-0.538-1.624-0.985-2.369
			c-0.298-0.493-0.679-1.143-1.113-1.511c-0.547-0.462-1.277-0.655-1.883-1.023c-0.75-0.457-1.556-1.062-2.328-1.43
			c-0.072,0.367-0.023,0.764-0.094,1.132c-0.065,0.342-0.267,0.68-0.33,1.022c-0.172,0.907-0.034,1.317-0.974,1.686
			c-1.095,0.428-3.739-0.471-4.351,0.966c0.721,0.143,1.445,0.115,2.154,0.302c0.756,0.2,1.377,0.321,2.182,0.335
			c-0.551,0.169-1.025,0.331-1.629,0.278c0.093,0.009,0.375,0.318,0.525,0.364c0.209,0.065,0.436,0.042,0.652,0.031
			c0.475-0.027,0.909-0.122,1.387-0.031c0.826,0.156,1.879,0.664,2.123,1.562c0.525,1.938-1.648,4.027-2.896,5.124
			c-0.422,0.372-0.986,0.67-1.337,1.111c0.457,0.073,1.04-0.045,1.429-0.258c-0.997,1.502-2.918,2.206-4.094,3.458
			c0.441-0.12,0.91-0.215,1.381-0.245c0.506-0.033,1.078-0.127,1.572-0.034c-0.441,0.786-1.576,1.066-1.871,2.054
			c0.838-0.679,2.025-0.463,3.061-0.425c0.625,0.022,1.171,0.162,1.803,0.181c0.67,0.021,1.246,0.137,1.426,0.824
			c0.188,0.711,0.348,1.154,0.852,1.728c0.684,0.779,1.854,1.231,2.841,1.482c1.403,0.358,2.838,0.48,4.251,0.081
			c1.26-0.357,2.5-0.71,3.639-1.396c1.27-0.763,2.576-1.312,3.743-2.26c0.981-0.795,1.982-1.614,2.859-2.524
			c0.812-0.846,1.677-1.557,2.628-2.24c1.113-0.804,2.212-1.424,3.586-1.41c0.723,0.007,1.297-0.179,1.977-0.387
			c0.773-0.239,1.518,0.071,2.299-0.017c0.619-0.067,1.17-0.604,1.709-0.893c0.471-0.253,1.152-0.441,1.555-0.816
			c0.358,0.15,0.505,0.775,0.835,1.052c0.317,0.265,0.737,0.716,1.203,0.601c0.054-0.33,0.015-0.677,0.079-1.002
			c0.477,0.43,1.506,2.358,2.131,2.233c0.158-0.493-0.299-0.934-0.493-1.35c-0.19-0.405-0.408-0.815-0.586-1.215
			c0.726,0.431,1.459,1.265,2.388,1.122c0.192-0.575-0.938-1.536-1.346-1.881c0.946,0.064,1.795,0.871,2.762,0.43
			c-0.322-0.613-1.675-0.559-2.191-1.114c0.062-0.302,0.668-0.41,0.914-0.515c0.34-0.146,0.594-0.354,0.914-0.541
			c-0.059-0.504-2.049-0.245-2.452-0.343c0.29-0.743,1.745-0.646,2.071-1.374c-0.836-0.152-1.734,0.001-2.575-0.131
			c0.147-0.642,1.03-0.892,1.17-1.537c-0.996,0.265-1.726,0.72-2.428,1.529c-0.298,0.343-0.589,0.752-0.918,1.116
			c-0.286,0.316-0.986,0.799-0.983,1.277c-0.394-0.499-0.967-1.06-1.53-1.279c-0.79-0.307-1.446,0.016-2.209,0.175
			c-0.683,0.14-1.339,0.322-2.026,0.505c-0.99,0.264-1.947,0.622-2.908,0.977c-1.436,0.532-2.756,1.037-4.059,1.889
			c-0.918,0.599-1.695,1.377-2.62,1.966c-0.996,0.637-1.901,1.385-2.923,1.99c-1.144,0.677-2.225,1.471-3.444,2.004
			c-0.961,0.419-2.331,0.972-3.378,0.617c-0.838-0.284-1.054-1.154-1.13-1.958c-0.13-1.396-0.249-2.634-0.716-3.959
			c-0.263-0.741-0.78-1.188-1.295-1.711c-0.516-0.521-0.088-0.984-0.018-1.637C106.504,82.54,106.551,82.032,106.551,81.542z"/>
		<path d="M80.777,82.482c-0.055,0.062-0.064,0.063-0.028,0.007c0.13-0.271,0.737-0.188,0.927-0.032
			c0.25,0.207,0.393,0.756,0.525,1.045c0.339,0.737,0.537,1.598,1.02,2.227c-0.244-0.187-0.322-0.244-0.664-0.247
			c-0.365-0.004-0.699,0.115-1.072,0.115c-0.576-0.004-1.277-0.143-1.729-0.507c-0.338-0.272-0.975-0.959-0.272-1.208
			c0.521-0.187,1.043,0.202,1.604,0.142c-0.146-0.217-0.336-0.511-0.418-0.772c-0.133-0.415-0.039-0.619,0.189-0.92"/>
		<path d="M105.098,77.42c-0.551,0.182-0.707-4.86-0.66-6.019c0.119-3.005,0.408-4.323,1.971-6.78
			c0.695-1.09,1.473-2.162,2.004-3.346c0.217-0.482,0.555-0.981,0.67-1.495c0.064-0.292,0.068-0.617-0.07-0.885
			c-0.121-0.231-0.39-0.329-0.412-0.621c1.243-0.109,2.418,0.507,3.578,0.692c1.251,0.2,2.382-1.086,3.533-1.485
			c-0.904-0.001-1.889-0.065-2.771-0.229c0.104-0.407,0.427-0.768,0.6-1.157c0.181-0.404,0.32-0.854,0.565-1.208
			c-0.603,0.575-1.425,0.771-2.046,1.277c0.016-0.808,0.504-1.866,0.893-2.553c-0.879,0.253-1.724,1.141-2.55,1.569
			c0.07-0.728,0.281-1.941-0.024-2.583c-0.466,0.159-0.969,1.404-1.262,1.764c-0.154-0.697-0.414-2.112-1.062-2.524
			c-0.578,0.471-0.194,1.935-0.348,2.593c-0.371-0.455-0.598-1.463-1.154-1.735c-0.514-0.25-0.506,0.925-0.48,1.353
			c0.033,0.495,0.166,1.005,0.23,1.484c0.055,0.413,0.02,0.869,0.107,1.275c0.131,0.586,0.682,0.937,0.81,1.496
			c-0.573,0.046-1.13,0.646-1.392,1.12c-1.479,2.683-3.428,5.029-4.738,7.846c-1.046,2.246-1.113,6.012-0.926,8.613
			c0.062,0.876,0.406,2.337,1.244,2.799c0.585,0.323,1.658-0.209,2.281,0.029c0.832,0.312,1.131,0.993,1.75,1.476"/>
		<path d="M86.079,85.38c-0.233-0.254-0.405-0.648-0.798-0.731c-0.395-0.084-0.877-0.034-1.281-0.047
			c-0.51-0.016-0.765-0.239-1.002-0.709c-0.172-0.336-0.172-0.697-0.246-1.059c-0.055-0.264-0.174-0.501-0.238-0.761
			c-0.128-0.521,0.354-0.717,0.784-0.548c0.2,0.08,0.319,0.22,0.538,0.27c0.333,0.072,0.682,0.001,1.015,0.102
			c0.367,0.112,0.626,0.505,0.839,0.82C86.165,83.432,86.808,84.659,86.079,85.38z"/>
		<path d="M81.608,80.363c0.483-0.249,1.286-0.869,1.764-0.325c0.399,0.451,0.346,1.344,0.194,1.888
			c-0.156,0.567-0.529,0.887-1.105,0.661c-0.383-0.149-0.69-0.451-1.062-0.623c-0.326-0.149-0.68-0.209-1.029-0.268
			c-0.602-0.1-0.494-0.352-0.071-0.615C80.729,80.814,81.164,80.59,81.608,80.363z"/>
		<path fill="#FFFFFF" d="M93.121,85.593c-0.112-0.188-0.174-0.402-0.222-0.615c-0.038-0.162-0.051-0.324-0.062-0.49
			c-0.014-0.243,0.068-0.504,0.156-0.727c0.08-0.2,0.186-0.383,0.308-0.56c0.072-0.104,0.169-0.206,0.187-0.337
			c0.025,0.038,0.01,0.074,0.016,0.111c0.01,0.038,0.031,0.071,0.045,0.109c0.023,0.07,0.035,0.148,0.043,0.222
			c0.016,0.173-0.025,0.346-0.002,0.518c0.027,0.213,0.11,0.425,0.155,0.635c0.032,0.161,0.056,0.322,0.09,0.484
			c0.081,0.413,0.2,0.813,0.376,1.199c0.084,0.18,0.201,0.35,0.308,0.515c0.035,0.056,0.217,0.229,0.183,0.31
			c-0.064-0.003-0.13,0.019-0.196,0.009c-0.079-0.012-0.164-0.062-0.231-0.097c-0.15-0.085-0.291-0.188-0.418-0.303
			c-0.117-0.103-0.264-0.224-0.323-0.37C93.439,85.976,93.251,85.804,93.121,85.593z"/>
		<path d="M93.285,85.675c-0.346-0.033-0.485-0.482-0.496-0.789c-0.012-0.408,0.275-0.662,0.632-0.748
			c0.267-0.062,0.531,0.004,0.673,0.251c0.07,0.125,0.074,0.256,0.119,0.386c0.023,0.066,0.054,0.105,0.047,0.183
			c-0.009,0.081-0.045,0.166-0.081,0.236c-0.04,0.079-0.099,0.149-0.169,0.198c-0.068,0.048-0.154,0.063-0.22,0.111
			C93.635,85.618,93.483,85.695,93.285,85.675z"/>
	</g>
	<g>
		<path d="M102.092,108.767c0.486,0.014,0.946-0.152,1.441-0.18c0.949-0.059,2.111,0.234,2.824,0.876
			c0.394,0.355,0.648,0.87,0.962,1.293c0.407,0.549,0.917,1.085,1.527,1.403c0.413,0.214,0.958,0.333,1.416,0.414
			c0.355,0.065,0.743-0.018,1.091,0.071c-0.286,0.487-1.262,0.588-1.751,0.667c-1.576,0.249-3.57,0.417-5.056-0.242
			c-0.74-0.329-1.415-0.825-2.047-1.33c-0.344-0.278-0.557-0.489-0.645-0.938c-0.071-0.377-0.364-1.413-0.106-1.734
			c-0.245,0.418-0.948,0.603-1.376,0.689c-0.637,0.127-1.248,0.1-1.835-0.18c-1.277-0.601-1.913-2.354-1.292-3.656
			c0.162,0.003,0.228,0.142,0.371,0.22c0.189,0.102,0.518,0.146,0.732,0.193c0.658,0.15,1.242,0.189,1.863,0.51
			c0.75,0.387,1.889,1.351,1.787,2.304"/>
		<path d="M102.254,108.468c0.209,0.472,1.346,0.431,1.791,0.447c0.692,0.027,1.359,0.063,2.036,0
			c0.667-0.061,1.384-0.057,2.026-0.232c0.875-0.242,1.649-0.89,2.389-1.419c1.792-1.279,2.656-3.363,3.262-5.416
			c0.164-0.552,0.449-1.451,0.309-2.056c-0.078-0.347-0.644-0.35-0.971-0.435c-0.422-0.111-0.828-0.353-1.246-0.481
			c-0.135,0.515-0.339,0.999-0.522,1.506c-0.329,0.914-0.914,1.686-1.349,2.552c-0.887,1.779-2.693,2.98-4.466,3.684
			c-1.089,0.432-2.208,0.895-3.368,0.851c-0.541-0.021-0.873,0.043-0.705,0.665c0.113,0.413,0.623,1.299,1.156,1.188"/>
	</g>
	<path fill="#245977" d="M246.733,95.938c0.829,1.472,1.409,3.059,2.325,4.484c0.84,1.313,1.541,2.763,2.452,4.01
		c1.563,2.143,2.97,4.409,4.267,6.737c1.994,3.585,5.97,8.969,4.562,13.262c-1.326,4.038-7.036,8.696-10.007,11.371
		c-7.286,6.574-14.857,12.366-23.276,17.97c-1.485,0.99-2.861,3.427-4.801,2.846c-0.849-0.253-2.284-1.066-3.022-1.751
		c-1.752-1.628-2.811-4.243-0.971-6.093c2.021-2.028,4.717-3.721,7.037-5.38c1.407-1.008,2.906-1.882,4.262-2.974
		c2.963-2.385,6.241-4.254,9.059-6.823c1.186-1.079,2.475-2.012,3.648-3.104c1.065-0.992,2.151-1.966,3.241-2.937
		c1.705-1.517,3.364-3.086,5.246-4.335c0.247-0.165,0.843-0.439,0.905-0.735c0.082-0.378-0.51-1.311-0.652-1.658
		c-0.598-1.473-1.275-2.978-2.025-4.391c-1.318-2.487-2.744-4.955-4.035-7.482c-1.266-2.473-2.773-4.793-3.963-7.307
		c-0.424-0.896-0.955-1.75-1.27-2.698c-0.311-0.943-0.324-1.984-0.673-2.909c-0.552-1.468-1.329-3.329-2.538-4.346
		c-1.82-1.535-4.172-3.448-2.627-6.111c0.656-1.129,1.5-2.147,2.598-2.941c2.085-1.505,4.575-2.663,6.974-3.472
		c2.114-0.713,4.282-1.552,6.45-2.086c0.912-0.226,2.955-0.928,3.828-0.297c0.98,0.712-0.532,1.914-1.08,2.424
		c0.945,0.396,1.943-0.417,2.759,0.045c0.273,1.772-2.518,1.451-2.476,2.638c0.626,0.071,1.107,0.513,1.723,0.589
		c0.291,1.36-2.098,1.396-2.793,1.488c-1.233,0.165-2.158,0.647-3.129,1.535c-1.972,1.798-3.646,4.879-3.289,7.675
		C245.576,94.229,246.234,95.048,246.733,95.938z"/>
	<path d="M189.365,157.329c2.445-1.877,4.596-4.145,7.085-5.955c2.567-1.867,5.169-3.521,7.617-5.572
		c1.91-1.596,3.681-3.398,5.469-5.135c0.541-0.521,1.726-2.115,2.374-2.281c1.298-0.333,3.086,2.17,4.002,2.985
		c1.648,1.466,3.062,3.19,4.799,4.548c2.684,2.095,5.134,4.141,7.523,6.586c4.719,4.827,9.562,10.146,13.059,15.994
		c1.428,2.387,2.636,4.935,3.662,7.521c1.105,2.786,4.535,5.047,4.475,8.186c-0.025,1.261-0.43,2.634-0.629,3.882
		c-0.404,2.531-0.561,5.294-1.234,7.765c-0.875,3.213-2.924,5.654-4.242,8.669c-0.959,2.188-2.564,4.279-4.385,5.733
		c-1.652-1.071-3.672-1.408-5.359-2.615c-2.258-1.614-4.763-2.842-7.234-3.884c-2.338-0.983-4.934-2.02-7.473-2.357
		c-4.275-0.568-8.824-0.183-13.148-0.203c-4.002-0.02-7.592-0.579-11.551-1.215c-3.126-0.499-6.252-0.999-9.379-1.498
		c-0.11-0.018-0.219-0.037-0.328-0.053c-3.556-0.573-7.119-1.218-10.543-2.364c-1.699-0.569-3.359-1.261-4.941-2.107
		c-0.572-0.305-1.029-0.742-1.581-1.063c-0.67-0.39-1.538-0.646-2.277-0.874c-0.91-0.279-1.667-0.694-2.519-1.159
		c-0.851-0.463-1.994-0.676-2.965-0.831c-0.73-0.118-2.382-0.64-2.943-0.137c0.362,0.123,0.694,0.1,1.05,0.075
		c0.958-0.063,1.758,0.312,2.665-0.27c0.631-0.4,1.41-1.242,1.82-1.913c1.617-2.648,2.557-5.557,3.408-8.524
		c0.805-2.802,1.897-5.437,2.288-8.329c0.146-1.088,0.014-2.213-0.225-3.272c-0.151-0.664-0.147-1.631-0.646-2.189
		c0.393,0.184,1.246-0.035,1.653-0.064c0.656-0.044,1.269-0.151,1.918-0.213c1.212-0.112,2.475-0.165,3.7-0.276
		c1.601-0.146,3.004-0.549,4.495-1.151c0.864-0.349,1.702-0.737,2.559-1.104c0.308-0.134,0.643-0.212,0.938-0.374
		c0.332-0.181,0.369-0.376,0.6-0.626c0.549-0.6,1.423-1.142,2.119-1.547C186.528,159.251,187.993,158.382,189.365,157.329z"/>
	<g>
		<path d="M161.976,164.943c0.032,4.685-1.495,9.523-3.077,13.91c-0.975,2.707-2.048,5.705-3.554,8.159
			c-0.622,1.018-1.782,2.378-2.804,2.95c-0.625-0.691-1.047-0.827-0.309-1.615c0.666-0.711,1.186-1.53,1.756-2.317
			c1.683-2.331,3.189-5.093,3.976-7.926c0.368-1.334,0.712-2.736,1.086-4.051c0.368-1.297,0.409-2.485,0.4-3.848
			c-0.009-1.134-0.015-2.266-0.024-3.397c-0.004-0.763,0.301-2.444-0.155-3.026c0.532-0.211,1.237,0.484,1.679,0.679
			c0.423,0.186,1.049,0.605,1.479,0.627"/>
		<path d="M152.096,189.031c0.059,0.03,0.319-1.062,0.445-1.374c0.285-0.714,0.904-1.073,1.312-1.705
			c0.389-0.604,0.377-1.44,0.318-2.134c-0.052-0.678-0.477-1.212-0.5-1.831c-0.629,1.059-1.807,2.09-2.357,3.334
			c-0.729,1.64,0.008,2.719,0.596,4.171c0.523,1.292-0.266,3.021-1.175,3.995c-0.586,0.626-2.707,2.365-3.666,2.006
			c0.463-1.398,0.509-2.859,1.419-4.04c0.912-1.19,2.383-2.229,3.884-2.293c0.104-0.573,0.278-1.114,0.466-1.668"/>
		<path d="M152.357,189.454c0.566,0.706,1.322,1.303,1.641,2.317c0.323,1.031,0.025,2.108,0.235,3.155
			c0.438-0.267,1.98-3.074,1.768-3.681c-0.147-0.418-0.302-0.184-0.62-0.33c-0.453-0.207-0.734-0.582-1.107-0.885
			c-0.426-0.352-1.055-0.564-1.413-0.931c0.923-0.35,1.916-0.618,2.833-1.111c0.542-0.285,1.483-0.749,1.754-1.319
			c-0.537-0.078-0.984-0.038-1.455-0.203c-0.284-0.1-0.218-0.361-0.612-0.23c-0.218,0.072-0.394,0.575-0.512,0.741
			c-0.385,0.545-0.925,1.17-1.476,1.546c-0.4,0.273-1.861,0.969-2.389,0.948"/>
	</g>
	<path fill="#245977" d="M233.63,188.026c2.959-0.478,5.981,1.257,8.735,1.981c1.7,0.445,3.6,0.672,5.305,0.934
		c1.842,0.284,3.758,0.614,5.652,1.006c4.396,0.904,8.559,1.723,13.006,2.549c1.894,0.351,3.483,0.622,5.372,0.699
		c2.368,0.101,4.595,1.266,6.947,1.458c3.049,0.253,6.298-0.267,9.352-0.437c2.067-0.116,3.995-0.291,5.976-0.782
		c0.95-0.235,1.83-0.22,2.767-0.628c0.976-0.424,1.812-0.341,2.793,0.049c3.837,1.525,3.888,6.22,3.048,9.695
		c-0.928,3.843,0.273,7.43,1.728,11.06c0.623,1.56,1.454,3.169,1.875,4.786c-0.391,0.215-0.801,0.389-1.23,0.513
		c-0.424-1.128-1.789-2.308-2.617-3.171c-0.864,1.025,0.063,3.177-0.486,4.463c-1.423-0.139-1.807-3.16-2.438-4.263
		c-0.15-0.032-0.27,0.019-0.354,0.148c0.151,1.116,0.344,2.306,0.251,3.39c-1.052,0.599-1.835-2.375-2.225-3.079
		c-1.503,0.119,1.074,3.886-1.106,3.949c-0.571-0.78-1.111-1.126-1.414-2.169c-0.26-0.896-0.092-1.8-0.026-2.737
		c0.122-1.742,0.228-3.725,0.042-5.417c-0.222-1.999-0.321-3.822-2.057-5.281c-2.979-2.506-5.89-3.14-9.625-3.435
		c-1.437-0.115-2.83-0.055-4.193-0.119c-2.736-0.134-5.576-0.187-8.366,0.115c-5.295,0.57-10.96,0.907-16.223,0.187
		c-2.492-0.342-5.371-0.625-8.005-0.788c-2.984-0.186-5.789-0.875-8.605-1.208c-2.559-0.301-5.541-1.336-7.753-2.598
		c-1.063-0.605-2.246-1.018-2.261-2.512c-0.031-2.8,2.578-7.391,5.453-8.206C233.172,188.113,233.401,188.063,233.63,188.026z"/>
</g>
</svg>
