<?xml version="1.0" encoding="utf-8"?>
<!-- Generator: Adobe Illustrator 16.0.4, SVG Export Plug-In . SVG Version: 6.00 Build 0)  -->
<!DOCTYPE svg PUBLIC "-//W3C//DTD SVG 1.1//EN" "http://www.w3.org/Graphics/SVG/1.1/DTD/svg11.dtd">
<svg version="1.1" id="Ebene_1" xmlns="http://www.w3.org/2000/svg" xmlns:xlink="http://www.w3.org/1999/xlink" x="0px" y="0px"
	 width="328px" height="268px" viewBox="0 0 328 268" enable-background="new 0 0 328 268" xml:space="preserve">
<g>
	<path d="M132.924,56.513c-0.878-2.382-3.38-5.688-6.367-4.909c-1.648,0.43-3.705,3.032-3.142,4.713
		c0.603,1.798,2.938,1.78,2.886,4.171c-0.084,3.81-5.586,3.917-4.006,7.752c1.408,3.417,3.653,4.031,3.634,8.271
		c-0.012,2.488-0.306,4.757,1.388,6.786c1.143,1.369,3.042,2.848,4.303,0.711c2.145,1.523,2.779,3.789,5.776,4.068
		c3.817,0.354,8.955-2.101,9.704-6.244c0.632-3.494-2.095-9.868-3.564-13.112c-1.877-4.143-5.626-6.109-10.078-4.562
		C132.147,61.957,133.847,59.015,132.924,56.513z"/>
	<g>
		<path d="M40.754,120.562c0.509,0.152,1.605-0.711,2.128-0.943c0.906-0.405,1.936-0.747,2.882-0.944
			c2.566-0.536,5.188-1.198,7.774-1.684c1.982-0.372,4.087-0.381,6.115-0.414c1.873-0.03,3.61-0.006,5.396,0.32
			c0.446,0.081,1.473,0.308,1.679,0.829c0.33,0.833-0.638,1.952-1.125,2.396c-0.713,0.648-1.536,1.161-2.343,1.639
			c-1.775,1.052-3.377,2.142-5.333,2.775c-2.295,0.743-4.626,1.226-7.006,1.457c-1.931,0.187-3.99,0.057-5.806-0.731
			c-1.073-0.467-2.195-1.03-3.155-1.762c-0.419-0.32-1.114-1.321-1.001-1.915c0.029-0.155,0.073-0.294,0.259-0.393"/>
		<path fill="#245977" d="M68.499,123.484c1.261,0.12,2.556,0.091,3.511,1.186c1.06,1.22,1.206,3.615,1.206,5.223
			c0,2.061-0.479,4.234-1.946,5.567c-0.717,0.649-1.868,1.255-2.764,1.489c-0.546,0.142-1.186,0.04-1.768,0.095
			c-0.072,2.7-0.853,5.55-1.335,8.244c-0.236,1.327-0.446,2.507-1.37,3.408c-0.955,0.932-2.467,1.227-3.685,1.521
			c-3.841,0.928-7.972,1.807-11.884,0.786c-2.218-0.578-5.067-1.041-5.693-3.754c-0.368-1.601-0.567-3.207-0.908-4.808
			c-0.272-1.271-0.476-2.556-0.647-3.838c-0.48-3.578-1.216-7.153-1.945-10.681c-0.413-2.002-0.957-3.748-1.411-5.682
			c-0.163-0.692-0.693-1.711-0.446-2.415c0.349-0.99,1.278-2.122,1.944-2.852c1.978-2.165,4.74-2.666,7.293-3.413
			c1.623-0.475,3.369-0.704,5.04-0.842c1.538-0.126,3.021-0.338,4.575-0.338c3.439,0,6.43,1.145,9.648,2.334
			c0.621,0.229,1.916,0.287,2.39,0.812c0.509,0.559,0.04,1.929-0.011,2.624C68.268,118.532,68.63,123.495,68.499,123.484z
			 M68.671,125.807c0.254,0.358,0.049,1.148-0.003,1.588c-0.108,0.946-0.233,1.879-0.375,2.822
			c-0.173,1.174-0.236,2.384-0.277,3.629c1.357-1.221,2.611-2.999,2.794-5.001c0.107-1.195-0.688-4.3-2.232-3.038 M67.093,116.367
			c-0.404-0.225-1.457-0.369-2.026-0.526c-1.103-0.304-2.244-0.434-3.352-0.604c-2.299-0.352-4.485-0.86-6.863-0.86
			c-4.361,0-8.859,0.718-12.798,2.859c-0.87,0.473-3.952,2.174-1.747,3.354c0.943,0.504,2.08,0.592,3.091,0.789
			c1.337,0.263,2.658,0.325,4.017,0.44c2.86,0.244,5.912,0.089,8.796-0.125c2.858-0.212,5.828-1.081,8.475-2.308
			c0.997-0.463,3.349-1.618,2.317-3.228"/>
		<path fill="#FD1813" d="M52.076,104.377c0.367-0.157,0.94-0.629,1.173-0.989c0.252-0.393,0.089-0.927,0.382-1.09
			c0.803-0.448,1.463,0.661,1.146,1.428c-0.273,0.664-1.303,0.995-1.842,1.276c-0.255,0.133-0.623,0.236-0.719,0.577
			c-0.169,0.618,0.214,0.355,0.469,0.521c0.223,0.145,0.42,0.482,0.241,0.766c-0.185,0.292-0.761,0.198-1.036,0.271
			c-0.581,0.156-0.74,0.902-0.523,1.443c0.4,1.005,2.039,1.297,1.517,2.692c-0.583,1.554-2.046-0.201-2.633-0.912
			c-0.438-0.536-0.874-0.998-1.187-1.658c-0.423-0.9-0.078-2.372,0.465-3.132C50.229,104.596,51.147,104.773,52.076,104.377z"/>
		<path fill="#FD1813" d="M56.496,116.192c-0.238,1.004-1.496,1.924-1.078,3.086c0.204,0.565,0.826,1.125,0.161,1.676
			c-0.477,0.395-3.662,0.401-3.388-0.433c0.482,0.006,1.007-0.466,0.729-1.028c-0.258-0.525-1.036-0.653-1.448-1.017
			c-0.446-0.391-0.874-0.917-1.164-1.467c-0.688-1.313-0.256-2.65,0.577-3.736c0.668-0.869,2.445-1.456,2.867-2.45
			c0.707-1.671-2.49-2.247-1.672-3.36c0.497-0.677,2.839,1.29,3.106,1.98c0.765,1.976-0.725,2.732-1.54,4.018
			c-0.469,0.743-0.956,4.138,0.741,2.773c0.391-0.314,0.617-1.205,0.353-1.675c-0.154-0.272-0.528-0.347-0.639-0.646
			c-0.16-0.438,0.539-1.431,0.923-1.625c0.67-0.338,1.102,0.659,1.284,1.212C56.579,114.311,56.698,115.344,56.496,116.192z"/>
		<path fill="#FD1813" d="M56.99,110.043c0.575,0.253,1.481-1.495,1.733-1.938c0.27-0.474,0.483-0.966,0.567-1.52
			c0.052-0.328,0.129-0.936-0.127-1.202c-0.722-0.751-0.534,1.536-1.104,1.194c-0.138-0.082-0.182-0.882-0.235-1.073
			c-0.126-0.45-0.163-0.695-0.528-0.972c-0.234-0.177-0.456-0.316-0.656-0.003c-0.142,0.23-0.191,0.568-0.206,0.843
			c-0.044,0.777,0.372,1.145,0.605,1.796c0.226,0.625,0.104,1.226-0.169,1.794c-0.11,0.233-0.208,0.485-0.161,0.767
			c0.09,0.521,0.48,0.359,0.716,0.046"/>
	</g>
	<path fill="#245977" d="M152.712,107.742c-1.668-0.325-3.146-0.826-4.12-2.266c-1.012-1.494-1.138-3.382-1.937-4.984
		c-0.48-0.963-0.792-1.852-0.896-2.986c-0.118-1.278,0.112-2.651,0.563-3.833c0.219-0.571,0.387-1.169,0.675-1.714
		c0.198-0.375,0.871-0.879,0.95-1.189c0.257-0.994-1.289-2.781-1.385-3.879c-0.136-1.562-0.016-2.905,0.312-4.514
		c0.581-2.865,2.283-5.898,4.288-8.152c4.791-5.383,12.326-6.546,18.776-3.312c1.543,0.768,2.434,2.062,3.613,3.27
		c1.118,1.151,2.244,2.105,2.87,3.636c2.177,5.284,2.977,13.232,3.646,18.891c0.378,3.218-1.531,6.848-4.09,8.796
		c-2.36,1.797-5.46,1.882-8.278,2.512c-2.498,0.55-4.962,0.687-7.559,0.172c-1.245-0.25-2.51-0.604-3.756-0.527
		C155.001,107.742,154.105,108.015,152.712,107.742z"/>
	<path fill="#245977" d="M214.108,29.575c-1.376,1.422-1.149,4.208-1.684,6.066c-0.869,3.057-1.927,6.08-2.804,9.146
		c-2.195,7.67-3.072,15.771-5.194,23.444c-2.666,9.657-3.539,20.113-6.56,29.688c-1.507,0.019-2.531,1.615-3.92,2.131
		c-1.994,0.735-3.07-0.188-4.974-0.688c0.791-6.919,2.753-13.92,4.14-20.763c1.65-8.142,3.164-16.286,5.791-24.077
		c2.206-6.543,3.183-13.414,5.019-20.163c0.753-2.76,0.997-7.54,3.89-7.801c1.856-0.162,7.278,1.425,7.625,3.274"/>
	<path d="M171.213,86.688c0.608-1.966-4.183-5.35-5.835-6.295c-1.959-1.11-6.437,0.941-6.608,3.417
		c0.521-0.097,1.039,0.136,1.6,0.188c0.602,0.053,0.897-0.101,1.442-0.13c1.051-0.053,2.404,0.162,3.401,0.268
		c1.817,0.196,4.862,1.398,6.07,2.79c-0.078-0.15-0.143-0.317-0.227-0.466"/>
	<path d="M152.468,83.862c-0.985-0.903-3.651-6.745-5.206-3.393c-0.115,0.24-0.494,1.667-0.343,1.872
		c0.363,0.495,0.996,0.026,1.584-0.004c1.157-0.054,2.537,0.789,3.271,1.599c-0.108-0.03-0.219-0.053-0.324-0.073"/>
	<path fill="#FFFFFF" d="M163.246,90.925c0.707-0.059,1.452-0.574,2.011-0.96c0.354-0.245,0.698-0.513,0.989-0.828
		c0.353-0.384,0.344-0.639,0.192-1.133c-0.117-0.379-0.216-0.768-0.454-1.098c-0.521-0.725-1.31-0.891-2.172-0.891
		c-0.81,0-1.474,0.173-2.151,0.601c-0.439,0.276-1.03,0.509-1.341,0.938c-0.209,0.287,0.031,0.423,0.14,0.709
		c0.152,0.403,0.144,0.86,0.365,1.239C161.261,90.246,162.317,91,163.246,90.925z"/>
	<path fill="#FFFFFF" d="M148.088,86.385c-0.242,0.766-0.334,1.89,0.649,2.166c0.809,0.229,1.867-0.271,2.3-0.943
		c0.194-0.305,0.367-0.496,0.332-0.861c-0.031-0.307-0.067-0.604-0.162-0.899c-0.172-0.544-0.516-1.104-1.113-1.263
		C148.961,84.284,148.379,85.461,148.088,86.385z"/>
	<path d="M163.285,90.488c-0.988,0.31-1.619-0.557-1.723-1.289c-0.06-0.429-0.022-0.774,0.373-1.023
		c0.356-0.225,1.103-0.443,1.485-0.204c0.285,0.179,0.521,0.468,0.671,0.762C164.494,89.518,164.126,90.225,163.285,90.488z"/>
	<path d="M150.689,87.688c-0.563,0.653-1.436,0.88-1.922,0.025c-0.208-0.362-0.28-0.802-0.244-1.213
		c0.036-0.393,0.241-1.026,0.657-1.186c0.6-0.23,1.307,0.077,1.687,0.549C151.336,86.449,151.148,87.158,150.689,87.688z"/>
	<path fill="#FF0000" d="M155.178,89.548c1.932,0.294,2.337,1.772,1.727,3.558c-0.793,2.35-4.022,2.378-5.856,1.257
		c-2.186-1.336-1.388-3.879,0.876-4.758c1.591-0.618,5.413-0.371,4.434,2.158"/>
	<path fill="#245977" d="M149.63,93.84c0.015-0.068,0.024-0.127,0.04-0.191"/>
	<path fill="#245977" d="M173.062,107.093c0.317,0.826,0.582,2.521,0.877,3.773c0.449,1.886,1.416,3.608,2.256,5.352
		c0.424,0.882,0.695,2.096,1.275,2.889c1.46,1.983,4.118-1.138,5.022-2.484c2.041-3.034,3.113-7.121,4.396-10.5
		c0.878-2.329,1.865-4.784,2.423-7.195c1.421,0.406,2.886,0.785,4.412,0.201c1.396-0.531,2.614-1.7,3.992-2.228
		c0.742,1.778-0.146,4.837-0.521,6.694c-0.506,2.494-1.021,4.989-1.519,7.485c-0.746,3.764-2.11,7.573-3.763,11.004
		c-1.582,3.279-2.463,5.936-2.041,9.835c0.44,4.133,0.382,8.197,0.826,12.234c0.414,3.745,1.607,7.306,1.726,11.104
		c0.045,1.541,0.436,3.25,0.353,4.773c-0.067,1.192-0.77,1.542-1.705,2.221c-1.822,1.327-4.029,1.884-5.991,2.988
		c-2.621,1.467-5.282,2.827-7.94,4.222c-2.682,1.412-5.427,2.728-8.117,4.109c-1.046,0.533-2.179,1.195-2.83,2.136
		c-0.637-0.574-0.749-2.044-1.002-2.878c-0.345-1.145-0.599-2.348-0.967-3.467c-0.889-2.686-1.732-5.356-2.689-8.033
		c-0.521-1.454-1.328-2.875-1.746-4.35c-0.299-1.076-0.214-2.225-0.403-3.314c-0.139-0.779-0.33-1.488-0.657-2.201
		c-0.569-1.213-1.127-2.644-2.012-3.623c-0.48,1.487-0.385,3.081-0.961,4.54c-0.912,0.056-2.3-1.742-2.796-2.391
		c-2.823-3.713-4.498-7.971-4.982-12.634c-0.225-2.169,0.423-3.802,1.363-5.663c0.447-0.876,1.12-1.828,1.683-2.694
		c0.894-1.375,1.623-2.122,3.17-2.691c1.529-0.559,3.167-0.788,4.741-1.186c2.225-0.561,4.312-1.492,6.143-2.888
		c1.204-0.919,2.929-1.75,3.922-2.849c2.164-2.392,0.835-6.87,0.032-9.62c-0.145-0.495-0.396-0.956-0.543-1.438
		c-0.295-0.965-0.573-0.852,0.423-1.062c0.884-0.187,3.411,0.215,3.813-0.428"/>
	<path fill="#FF0000" d="M243.13,224.009c-3.883,5.052-24.499-6.555-29.507-9.016c-7.686-3.772-12.159-4.605-20.881-4.806
		c-15.986-0.365-32.036-0.002-47.949-0.107c-4.98-0.032-8.094,3.23-12.584,4.7c-3.248,1.068-6.668,1.578-9.902,2.306
		c-6.424,1.443-12.42,2.352-18.683,4.257c-6.238,1.896-11.386,5.434-17.018,8.508c-2.171,1.185-5.097,3.034-7.125,0.75
		c-1.43-1.604-0.14-6.339-1.305-8.47c2.644-0.474,7.327-1.214,5.391-4.686c-1.452-2.598-5.421-1.709-7.857-1.655
		c-0.908,0.02-1.216,0.066-1.416-0.895c-0.121-0.599-0.194-1.324,0.127-1.87c0.406-0.694,1.365-1.088,1.975-1.596
		c0.72-0.594,1.337-1.294,2.114-1.816c1.25-0.832,2.549-1.552,3.839-2.374c1.646-1.051,3.645-1.683,5.44-2.453
		c1.953-0.841,3.983-1.51,6.025-2.117c12.214-3.635,22.97-10.852,34.854-15.841c6.118-2.563,12.326-4.225,18.674-6.061
		c2.267-0.656,6.694-1.491,7.872-3.89c0.738-1.501,0.573-4.057,0.609-5.717c0.043-2.074-0.075-4.143-0.253-6.207
		c-0.177-2.079-0.751-4.257-1.276-6.26c-0.56-2.124-0.732-4.306-1.344-6.414c-0.337-1.154-0.812-2.207-1.169-3.343
		c-0.316-1.012-0.394-1.513-0.018-2.468c0.672-1.704,1.45-3.297,1.707-5.2c0.32-2.391,0.003-4.959-0.097-7.442
		c-0.058-1.359-0.301-2.717-0.338-4.077c-0.023-0.908-0.327-2.519,0.303-3.245c0.605-0.692,1.513-1.028,2.355-1.346
		c0.63-0.238,1.984-1.408,2.58-1.055c0.334,0.201,0.499,1.234,0.622,1.57c0.319,0.857,0.732,1.678,1.18,2.489
		c0.651,1.18,1.31,2.338,1.877,3.575c0.265,0.566,0.285,1.362,0.881,1.582c0.25,0.097,0.928-0.027,1.203-0.026
		c0.758-0.002,1.546,0.014,2.309-0.075c1.055-0.118,2.147-0.221,3.194-0.396c1.863-0.314,4.022-0.553,5.39-1.91
		c1.035-1.028,1.382-1.773,1.663-3.155c0.225-1.111,0.451-2.226,0.678-3.338c0.416-2.067,0.407-4.183,0.879-6.153
		c0.434-1.794,3.605-1.344,4.817-2.463c-0.013,0.065-0.03,0.131-0.046,0.199c0.396,0.454-0.067,3.034-0.088,3.681
		c-0.054,1.611-0.147,3.23-0.324,4.831c-0.411,3.651-0.771,7.305-0.223,10.981c0.449,2.993,2.799,5.128,6.002,3.999
		c2.291-0.806,1.999-3.326,2.085-5.168c0.822,0.598,1.393,2.101,1.737,3.011c0.271,0.713,0.62,1.442,0.771,2.187
		c0.224,1.087,0.33,2.229,0.538,3.334c1.958,10.353,0.41,21.129,5.42,30.829c2.188,4.233,5.519,12.68,9.651,15.139
		c5.481,3.265,14.798,3.316,20.756,6.032c11.801,5.393,22.533,14.228,34.26,20.098c3.18,1.591,6.976,1.53,5.742,5.168
		c-0.656,1.951-6.301,5.774-8.253,7.091c-2.739,1.843-4.513,2.502-7.604,2.881c-3.651,0.443-8.465,1.677-11.854,1.758"/>
	<path fill="#245977" d="M242.362,230.03c-3.659,0.928-7.239,2.029-10.926,2.992c-0.846,0.22-1.691,0.434-2.538,0.646
		c-0.701,0.176-1.15,0.162-1.837,0.144c-1.445-0.041-2.744,1.044-4.006,1.576c-1.329,0.561-2.794,0.907-4.239,1.04
		c-0.852,0.078-1.795,0.044-2.602,0.287c-1.591,0.48-1.058,2.874-1.041,4.079c0.014,0.996,0.369,1.936,0.823,2.817
		c0.325,0.631,0.673,1.261,1.02,1.884c0.369,0.662,0.904,1.44,0.991,2.204c0.08,0.687-0.346,0.617-0.911,0.669
		c-0.635,0.057-1.227,0.181-1.85,0.329c-1.003,0.238-1.993,0.575-2.977,0.872c-1.146,0.345-1.958,0.912-3.22,0.819
		c-0.857-0.062-1.837-0.454-2.081-1.311c-0.225-0.785-0.087-1.616-0.061-2.449c0.05-1.536,0.403-2.943,0.972-4.37
		c0.454-1.144,1.135-2.15,1.619-3.273c0.488-1.132,1.447-1.847,2.326-2.708c1.008-0.988,2.172-1.973,2.518-3.387
		c0.199-0.814,0.621-0.875,1.381-1.275c0.774-0.409,1.549-0.82,2.321-1.234c6.12-3.285,12.127-6.781,17.9-10.623
		c3.674-2.445,4.883-0.434,8.524,1.039c1.98,0.802,3.894,1.966,5.601,3.223c0.881,0.649,2.17,1.543,2.714,2.505
		c0.825,1.461-2.818,2.389-3.704,2.542C246.854,229.455,244.56,229.472,242.362,230.03z"/>
	<path d="M174.188,146.014c0.328-0.369-0.691-1.82-0.508-2.395c0.162-0.519,1.147-0.742,1.454-1.271
		c0.353-0.608,0.596-1.328,0.333-2.021c-0.281-0.748-0.842-0.931-1.474-1.257c-0.172,0.552-0.127,0.648,0.095,1.069
		c0.221,0.413,0.392,0.521,0.044,1.023c-0.519,0.751-1.565,0.632-2.369,0.414c-0.117-0.589,0.112-1.034,0.506-1.447
		c0.462-0.479,0.397-0.477,0.389-1.119c-1.47-0.224-2.661,0.989-2.778,2.316c-0.136,1.534,1.143,1.79,2.377,2.155
		c0.093,0.767,0,1.731,0.228,2.493c0.165,0.56,0.059,0.312,0.643,0.251c0.424-0.046,0.789-0.016,1.151-0.173
		c-0.088-0.052-0.182-0.078-0.287-0.078"/>
	<path d="M181.488,143.458c-0.377-0.025-0.748-0.89-0.996-1.188c-0.311-0.362-0.518-0.688-1.019-0.77
		c-0.869,1.296-1.032,3.025-1.485,4.517c-0.37-0.104-0.941,0.023-1.29,0.172c0.278-1.097,0.792-2.078,1.102-3.187
		c0.291-1.029,0.521-2.127,0.837-3.161c0.069,0.062,0.152,0.054,0.227,0.176c0.025-0.256,0.191-0.587,0.453-0.573
		c-0.009,0.142,0.063,0.287,0.043,0.431c0.105-0.112,0.295-0.285,0.474-0.33c-0.033,0.146-0.018,0.318-0.077,0.467
		c0.162-0.142,0.37-0.24,0.585-0.26c-0.047,0.173-0.174,0.34-0.278,0.494c0.161-0.093,0.289-0.056,0.449-0.041
		c0.009,0.178-0.043,0.366-0.141,0.49c0.839,0.461,1.259,1.867,2.23,2.118c-0.225,0.069-0.546-0.102-0.796,0.11
		c-0.243,0.191-0.167,0.531-0.416,0.683c-0.017-0.059-0.015-0.11,0.014-0.164"/>
	<path fill="#FFFFFF" d="M178.621,143.517c-0.143,0.525-0.264,1.062-0.391,1.588c-0.219-0.248-0.438-0.492-0.835-0.437
		c-0.073,0.01-0.141,0.033-0.205,0.052c0.188-0.481,0.376-0.969,0.53-1.478C178.067,143.178,178.42,143.251,178.621,143.517z"/>
	<path fill="#FFFFFF" d="M180.812,142.761c0.314-0.17,0.602-0.436,0.776-0.736c0.289,0.362,0.6,0.682,1.014,0.788
		c-0.225,0.069-0.546-0.102-0.796,0.11c-0.243,0.191-0.167,0.531-0.416,0.683c-0.017-0.059-0.015-0.11,0.014-0.164l0.085,0.017
		C181.252,143.438,181.019,143.093,180.812,142.761z"/>
	<path fill="#FFFFFF" d="M179.375,139.813c-0.007,0.145,0.006-0.09-0.013,0.049c0.103-0.107,0.293-0.282,0.474-0.327
		c-0.033,0.145-0.021,0.324-0.079,0.468c0.162-0.14,0.371-0.236,0.587-0.266c-0.048,0.178-0.176,0.345-0.28,0.5
		c0.162-0.093,0.29-0.06,0.448-0.042c0.01,0.178-0.041,0.367-0.14,0.49c0.109,0.062,0.209,0.133,0.301,0.219
		c-0.093,0.345-0.319,0.679-0.614,0.884c-0.058-0.054-0.256-0.182-0.325-0.222c0.005-0.251,0.171-0.42,0.198-0.738
		c0.054-0.723-0.066-0.859-0.549-0.973C179.45,139.78,179.271,139.81,179.375,139.813z"/>
	<path fill="#FFFFFF" d="M178.639,139.831c0.068,0.064-0.149,0.112-0.079,0.233c0.01-0.071,0.007-0.033,0.039-0.11
		c0.302,0.313,0.336,0.249,0.618,0.638c0.07,0.101,0.248,0.671,0.257,0.908c-0.044-0.016,0.062,0.003,0.001-0.007
		c-0.094,0.142-0.18,0.291-0.26,0.442c-0.196-0.225-0.465-0.367-0.852-0.384c-0.061,0.001-0.121-0.003-0.188,0
		C178.321,140.976,178.468,140.394,178.639,139.831z"/>
	<path fill="#FFFFFF" d="M163.533,147.164c-0.685-1.405-1.596-2.861-2.161-4.375c-0.195-0.521-0.318-1.06-0.526-1.582
		c-0.215-0.526-0.642-0.391-1.108-0.242c-0.349,0.112-0.308,0.079-0.28,0.379c0.032,0.282,0.191,0.563,0.269,0.849
		c0.159,0.62,0.381,1.216,0.585,1.819c0.291,0.854,0.729,1.655,0.984,2.516c0.095,0.334,0.18,0.786,0.381,1.076
		c0.22,0.321,0.294,0.218,0.653,0.111c0.347-0.104,0.899-0.048,1.072-0.242"/>
	<path d="M168.165,148.792c-0.296-0.392-0.148-1.479-0.21-1.982c-0.07-0.611-0.09-1.207-0.084-1.796
		c0.892-0.455,1.897-1.439,1.907-2.488c0.016-1.247-1.646-1.29-2.391-0.629c-0.768,0.674-0.26,1.681-0.232,2.509
		c0.028,0.909,0.157,1.878,0.04,2.734c-0.625-0.865-1.044-1.922-1.624-2.837c-0.313-0.5-0.563-1.139-0.951-1.576
		c-0.406-0.454-0.989-0.141-1.49,0.092c-0.941,0.443-1.117,2.376-0.358,3.056c0.416,0.376,1.024,0.517,1.579,0.584
		c0.483,0.059,1-0.14,1.495,0.027c0.441,0.149,0.655,0.869,0.76,1.276c0.107,0.432,0.066,0.901,0.231,1.296
		c0.296-0.038,0.851-0.142,1.014-0.061 M165.044,145.398c0.278,0.376-0.673,0.423-0.886,0.35c-0.445-0.157-0.718-0.64-0.895-1.021
		c-0.432-0.938,0.229-1.344,1.014-1.658c0.201,0.299,0.298,0.642,0.444,0.965c0.174,0.389,0.551,0.876,0.4,1.319 M167.945,144.165
		c-0.158-0.378-0.207-1.024-0.119-1.416c0.089-0.401,0.688-0.68,1.122-0.515c0.875,0.328-0.432,2.049-1.065,1.918"/>
	<path d="M180.105,145.842c0,0-3.438,0.019-5.665,0.289c-5.462,0.663-11.023,0.8-16.453,1.887c-0.708,2.062,1.101,5.924,1.802,8.015
		c0.702,2.096,1.38,6.436,2.67,8.046c2.107,2.625,14.859-0.129,18.092-2.104C180.172,158.27,180.105,145.842,180.105,145.842z"/>
	<path d="M161.241,149.458c-0.246-1.208-0.354-2.408-0.601-3.622c-0.198-0.985-0.499-1.999-0.679-2.965
		c-0.108-0.01-0.274,0.022-0.374,0.073c0.144,0.467,0.011,1.142-0.014,1.64c-0.045,0.847-0.057,1.704-0.081,2.559
		c-0.021,0.633,0.069,1.234,0.01,1.859c-0.063,0.529-0.129,1.034-0.181,1.569c0.209-0.229,0.603-0.342,0.897-0.45
		c0.312-0.111,0.824-0.443,0.993-0.457"/>
	<path fill="#245977" d="M160.087,143.103c0.422-0.389,0.86-1.514,0.532-2.162c-0.295-0.582-1.248-1.316-1.034-2.034
		c-0.101,0.84-0.666,1.574-0.652,2.437c0.005,0.692,0.222,1.742,0.863,2.069c0.017-0.084,0.096-0.148,0.1-0.248
		c0.044,0.021,0.062,0.057,0.062,0.057"/>
	<path fill="#FFFFFF" d="M215.696,237.837c0.287,0.064,1.64-0.653,1.953-0.776c1.289-0.51,2.602-0.856,3.94-1.23
		c1.88-0.529,3.728-1.117,5.605-1.624c0.867-0.233,1.71-0.476,2.561-0.45c0.454,0.012,0.802,0.144,1.259,0.239
		c0.434,0.093,0.854,0.035,1.259,0.146c0.959-1.36-0.321-2.942-1.018-4.087c-1.048-1.729-2.333-3.062-3.872-4.351
		c-0.767-0.644-1.604-1.554-2.664-1.026c-0.426,0.212-0.748,0.619-1.135,0.887c-0.312,0.218-0.722,0.386-1.07,0.577
		c0.167,0.656,0.188,0.987-0.521,1.241c-0.259,0.093-0.67,0.137-0.877,0.336c-0.257,0.24-0.158,0.534-0.333,0.812
		c-0.278,0.454-1.237,0.482-1.694,0.801c-0.716,0.503-0.873,0.533-1.736,0.413c-0.307,0.884-1.146,1.206-1.987,1.438
		c-0.918,0.248-1.694,0.771-2.492,1.242c-0.902,0.534-1.622,1.287-2.532,1.817c-0.67,0.394-1.401,1.023-2.096,1.281
		c1.068,0.374,2.199,0.558,3.31,0.833c1.079,0.265,1.813,1.163,2.801,1.575c0.012,0.127-0.041,0.221-0.134,0.303"/>
	<path fill="#FF0000" d="M212.911,232.403c0.783-0.466,1.55-0.978,2.455-1.222c0.842-0.231,1.681-0.554,1.987-1.438
		c0.863,0.12,1.021,0.09,1.736-0.413c0.446-0.311,1.367-0.353,1.666-0.779c2.095,1.766,4.038,3.676,5.586,5.903
		c-1.586,0.446-3.157,0.927-4.752,1.375c-1.074,0.297-2.122,0.604-3.165,0.967C216.477,235.473,214.806,233.788,212.911,232.403z"/>
	<path d="M175.471,71.756c0.415-1.219,0.319-2.924,0.158-4.17c-0.207-1.549-0.766-3.26-1.639-4.578
		c-1.785-2.69-4.924-4.71-7.989-5.766c-2.302-0.803-4.617-0.773-6.896,0.051c-2.617,0.954-4.351,2.88-5.522,5.305
		c-0.855,1.762-1.734,3.501-1.992,5.456c-0.108,0.803-0.26,1.609-0.309,2.413c-0.026,0.323-0.259,1.092-0.123,1.359
		c0.692-0.248,1.367-0.407,2.078-0.576c2.098-0.501,4.506-0.116,6.648-0.039c3.661,0.123,7.304,0.868,10.906,1.493
		c1.907,0.329,3.801,0.759,5.699,1.143c0.7,0.14,1.462,0.321,2.167,0.323c-0.137-0.113-0.21-0.032-0.296-0.021"/>
	<path fill="#FF0000" d="M175.595,78.378c0.38,0.262,0.751,0.527,1.056,0.845c0.675,0.708,0.68,1.478,0.85,2.299
		c0.425-0.428,0.788-0.809,1.148-1.304c0.699-0.971,0.839-1.484,0.791-2.676c-0.055-1.388-0.04-2.776-0.265-4.155
		c-0.128-0.741-0.244-1.539-0.62-2.209c-0.172-0.3-0.492-0.422-0.744-0.628c-0.341-0.291-0.618-0.647-0.939-0.951
		c-0.672-0.642-1.393-1.229-2.152-1.767c-1.942-1.386-4.024-2.274-6.341-2.922c-4.418-1.232-9.424-1.764-13.869-0.539
		c-2.395,0.659-5.022,1.923-6.53,3.858c-0.615,0.789-1.163,1.535-1.576,2.43c-0.516,1.115-0.748,2.16-0.99,3.36
		c-0.271,1.331-0.391,2.399-0.024,3.73c0.237,0.859,0.591,1.852,1.251,2.512c0.47,0.477,0.543,0.256,0.775-0.253
		c0.193-0.407,0.416-0.799,0.717-1.142c0.478-0.541,0.984-1.1,1.459-1.649c0.592-0.681,1.297-1.349,1.979-1.944
		c0.877-0.77,1.919-1.108,3.038-1.506c3.772-1.348,7.926-0.628,11.782,0.184c1.907,0.396,3.612,1.179,5.384,1.916
		c1.031,0.428,1.91,0.932,2.719,1.681C174.83,77.851,175.218,78.113,175.595,78.378z"/>
	<path fill="#245977" d="M60.15,228.341c3.321-0.436,6.64-0.903,9.934-1.513c2.393-0.438,4.809-1.121,7.227-1.297
		c1.296-0.094,2.596-0.343,3.906-0.371c1.345-0.028,2.8,0.04,4.106-0.197c1.153-0.208,1.658-1.205,1.737-2.36
		c0.146-2.155-0.125-4.396-1.212-6.308c-0.273-0.482-0.656-0.914-0.979-1.367c-0.25-0.353-0.5-0.908-0.819-1.192
		c-0.391-0.348-0.46-0.17-1.022,0.036c-1.169,0.428-2.408,0.68-3.626,0.983c-2.467,0.616-4.924,0.864-7.418,1.329
		c-0.975,0.181-1.967,0.097-2.937,0.244c-2.925,0.443-5.988,0.556-8.968,0.826c-3.151,0.286-6.302,0.587-9.453,0.863
		c-6.727,0.588-6.747,5.997-9.606,11.215C47.199,230.914,53.772,229.178,60.15,228.341z"/>
	<path fill="#245977" d="M150.08,144.107c-4.972,0.315-10.729,2.754-14.937,5.316c-3.582,2.176-7.514,3.748-11.152,5.795
		c-2.942,1.664-7.063,2.649-10.366,1.46c-2.556-0.918-4.685-2.654-7.175-3.651c-2.676-1.069-5.195-2.445-7.857-3.535
		c-3.396-1.39-6.644-3.089-9.77-5.053c-3.552-2.232-6.871-4.332-10.226-6.897c-2.159-1.652-4.297-3.635-6.715-4.918
		c-1.7-0.901-3.633-0.745-5.253-1.55c-2.756-1.366-5.271-7.873-1.023-9.03c1.989-0.544,2.985,1.758,4.403,2.275
		c2.121,0.773,4.12,0.356,6.195,0.448c7.318,0.316,6.947,7.186,12.08,10.63c3.861,2.595,9.252,4.179,13.639,5.751
		c4.197,1.505,8.478,3.337,12.584,4.749c2.592,0.895,3.568,0.36,6.119-0.544c3.589-1.264,7.613-2.494,10.982-4.254
		c4.206-2.204,7.362-5.86,11.496-8.276c3.17-1.854,6.384-3.966,9.929-4.987c-0.376,0.022-0.321,0.272-0.525,0.44"/>
	<path fill="#245977" d="M222.196,23.983c-1.99-0.873-4.147,2.152-6.074,2.45c0.366-2.102,5.237-9.493,2.319-11.395
		c-1.347,1.352-3.79,7.06-5.852,6.216c-0.75-2.533-0.882-6.443-2.935-8.369c-3,1.448,0.483,7.121-2.42,8.624
		c-2.478,1.283-6.006-1.42-8.455-1.597c-1.509,2.769,1.244,4.273,2.771,5.959c2.023,2.231,2.077,4.808,2.082,7.71
		c0.007,3.406-0.565,6.86-1.288,10.11c0.974,0.12,2.032,0.12,3.003,0c0.167-0.021,2.666-6.153,3.175-6.839
		c1.251-1.683,2.84-3.062,4.544-4.278C215.883,30.565,222.27,28.007,222.196,23.983z"/>
	<path fill="#FF0000" d="M49.601,218.217c0.069,0.269,3.083-0.137,3.646-0.234c1.213-0.215,2.139-1.31,3.351-1.381
		c1.132-0.068,1.868,1.118,2.95,0.387c1.223-0.829,1.592-2.35,3.253-2.709c1.781-0.379,1.309,1.591,2.392,1.849
		c0.21,0.052,1.015-0.357,1.312-0.382c0.707-0.048,0.861,0.054,1.17,0.622c0.561,1.055,0.766,2.369,1.191,3.487
		c0.67,1.762,1.459,3.521,1.74,5.423c0.245,1.663,0.204,3.355-1.228,4.443c-1.834,1.396-1.47-1.205-2.464-2.018
		c-1.24,0.755-1.936,3.044-3.769,1.997c-1.028-0.591-1.541-1.197-2.811-0.544c-0.951,0.492-1.661,1.365-2.747,1.753
		c-1.798,0.647-3.55-0.575-5.341-0.102c-1.085,0.287-2.241,0.99-3.403,0.95c-1.01-0.035-1.136-0.644-1.88-1.05
		c-0.205-0.844,0.229-1.945,0.403-2.792c0.258-1.282,0.421-2.525,0.514-3.829c0.086-1.161,0.181-2.236,0.416-3.39
		c0.167-0.827,0.188-2.177,0.714-2.854"/>
	<path fill="#FFFFFF" d="M68.225,229.637c-1.484-0.688-2.151-4.536-2.537-6.099c-0.277-1.108-0.393-2.333-0.466-3.474
		c-0.064-1.007-0.271-2.297-0.003-3.26c0.293-1.045,1.541-1.267,2.275-0.495c0.772,0.811,1.009,2.516,1.283,3.52
		c0.353,1.294,0.628,2.606,1.013,3.89c0.381,1.289,1.153,2.73,1.074,4.08c-0.076,1.279-2.011,2.365-2.925,1.262"/>
	<path fill="#FFFFFF" d="M61.269,215.264c-0.393,1.039-0.028,3.011,0.366,4.106c0.648,1.807,1.079,3.45,1.338,5.375
		c0.148,1.082,0.518,3.2-0.213,4.229c-0.395,0.554-0.789,0.047-1.384,0.09c-0.575,0.041-1.033,0.593-1.649,0.478
		c-0.066-1.254-0.108-2.596-0.025-3.905c0.081-1.31,0.3-2.607,0.259-3.917c-0.037-1.277-0.338-2.591-0.152-3.873
		c0.154-1.06,1.312-1.561,1.332-2.607"/>
	<path fill="#FFFFFF" d="M56.678,216.853c-0.104,1.021-0.062,2.559-0.09,3.762c-0.031,1.316-0.51,2.589-0.671,3.907
		c-0.169,1.375-0.309,2.734-0.254,4.091c0.021,0.513,0.12,1.014,0.16,1.519c0.031,0.373,0.214,0.957,0.155,1.28
		c-0.529,0.034-1.621-0.318-2.149-0.513c-0.169-0.064-0.887-0.345-0.979-0.451c-0.323-0.374-0.076-0.688-0.015-1.182
		c0.223-1.818,0.688-3.758,0.735-5.593c0.021-0.819-0.099-1.701-0.172-2.505c-0.056-0.591-0.451-1.675-0.211-2.257
		c0.18-0.431,1.074-0.956,1.491-1.268C55.22,217.23,55.957,216.633,56.678,216.853"/>
	<path fill="#FF0000" d="M152.871,100.805c-0.709-0.073-1.092-0.601-1.609-1.004c-0.276-0.215-0.455-0.256-0.791-0.217
		c-0.44,0.054-0.886-0.025-1.33,0.017c-0.366,0.035-0.27,0.45-0.12,0.708c0.185,0.323,0.384,0.595,0.764,0.617
		c0.378,0.023,0.743-0.037,1.089,0.126c0.244,0.116,0.438,0.257,0.631,0.446c0.423,0.42,0.797,0.761,1.424,0.85
		c0.572,0.08,1.146,0.083,1.724,0.112c0.455,0.024,1.067,0.183,1.491-0.033c0.225-0.116,0.462-0.369,0.606-0.572
		c-0.124-0.025-0.279-0.277-0.362-0.375c-0.13-0.15-0.266-0.273-0.424-0.405c-0.374-0.316-1.024-0.706-1.543-0.606
		C153.871,100.574,153.467,100.865,152.871,100.805z"/>
	<path fill="#FF0000" d="M152.506,105.431c-1.719-0.142-3.478-1.154-3.615-2.978c-0.032-0.42,0.146-0.785,0.179-1.195
		c0.019-0.236-0.106-0.83,0.142-0.954c-0.017,0.34,0.223,0.724,0.338,1.034c0.101,0.275,0.198,0.66,0.432,0.858
		c0.184,0.157,0.512,0.222,0.736,0.334c0.558,0.277,1.146,0.496,1.748,0.658c0.544,0.146,1.102,0.271,1.667,0.287
		c0.546,0.015,0.967-0.019,1.331-0.422c0.15-0.168,0.241-0.371,0.386-0.544c0.247-0.293,0.419-0.6,0.727-0.833
		c0.258,0.138,0.23,0.49,0.179,0.72c-0.106,0.479-0.331,0.936-0.493,1.394c-0.149,0.419-0.573,0.778-0.941,1.015
		C154.504,105.33,153.469,105.51,152.506,105.431z"/>
	<path fill="#FF0000" d="M165.381,95.125c1.712-1.171,5.049,2.484,1.908,4.367c-3.627,2.181-4.991-3.688-2.255-4.141"/>
	<path fill="#FF0000" d="M146.539,97.126c-0.979-0.198-0.957-1.291-0.808-2.053c0.095-0.481,0.251-0.953,0.432-1.409
		c0.092-0.232,0.1-0.467,0.185-0.688c0.089-0.234,0.316-0.467,0.489-0.647c0.19-0.201,0.376-0.192,0.583,0.003
		c0.283,0.264,0.182,0.599,0.158,0.938c-0.048,0.705-0.084,1.457-0.394,2.106C147.094,95.565,146.493,97.117,146.539,97.126z"/>
	<path d="M174.026,76.724c-0.844,0.402,0.21,4.445-1.509,2.016c-0.311-0.438-0.812-1.963-1.52-1.66
		c-0.572,0.247-0.148,1.689-1.132,1.552c-0.229-0.667-0.798-2.639-1.646-2.37c-0.77,0.244-0.96,2.106-1.658,0.89
		c-0.613-1.066-0.336-2.179-1.583-1.114c-0.159,0.136-1.072,1.13-1.299,1.13c-0.489,0-0.689-1.135-0.869-1.488
		c-0.711-1.386-0.967-0.031-1.56,0.622c-0.991,1.092-0.895-0.965-1.743-1.369c-1.144-0.547-1.955,1.804-2.671,2.449
		c-1.158,1.052-1.375-0.05-1.875-0.993c-0.889,0.326-0.837,1.906-1.726,2.272c-0.684,0.282-0.858-0.646-1.479-0.903
		c-0.552,1.469-1.83,0.646-2.894,1.226c0.885-0.837,1.521-1.938,2.404-2.801c0.807-0.787,1.696-1.806,2.659-2.407
		c1.043-0.653,2.388-0.937,3.568-1.246c2.23-0.585,4.613-0.752,6.93-0.551c2.57,0.225,5.36,0.745,7.715,1.771
		c1.339,0.583,1.604,1.148,2.376,2.178c1.033,1.375,1.288,3.06,2.727,4.188c-0.788-0.191-2.14-0.613-2.637-1.235"/>
	<path d="M218.5,235.552c-1.456-0.729-2.845-1.73-4.114-2.736c-0.386-0.305-0.699-0.673-1.129-0.924
		c-0.598-0.348-1.188-0.55-1.599-1.14c-0.228-0.33-0.44-0.664-0.657-1.002c-0.297-0.466-0.765-1.075-1.205-0.471
		c-0.955,1.312-1.023,2.867-1.023,4.439c0,0.942-0.077,1.848-0.148,2.774c-0.094,1.246-0.511,2.35-0.988,3.495
		c-0.66,1.584-1.26,3.299-1.674,4.959c-0.347,1.389-0.556,3.35,0.299,4.62c0.409,0.609,0.882,0.95,1.561,1.24
		c2.646,1.131,5.735,0.729,8.488,0.231c1.809-0.328,3.637-0.36,5.489-0.36c0.86,0,1.645-0.04,2.482-0.221
		c0.436-0.094,0.854-0.179,1.315-0.143c0.644,0.05,1.197,0.112,1.854,0.113c0.711,0.002,1.422,0.096,2.118,0.227
		c1.679,0.313,3.275,0.89,4.999,1.025c1.061,0.083,2.161,0.376,3.104-0.216c0.85-0.534,1.31-1.681,1.473-2.604
		c0.172-0.976,0.144-1.804-0.302-2.442c-0.274-0.394-0.706-0.715-1.346-0.956c-1.04-0.39-2.058-0.616-3.21-0.532
		c-1.083,0.077-2.143,0.38-3.228,0.496c-1.478,0.157-2.962,0.124-4.422-0.182c-1.465-0.309-2.931-0.464-4.379-0.838
		c-1.363-0.352-3.073-0.549-3.865-1.798c-1.238-1.95,0.068-4.038,1.653-5.259c0.346-0.266,1.136-0.92,1.577-0.85
		c-0.209-0.152-0.674-0.094-0.938-0.149C219.968,236.199,219.164,235.884,218.5,235.552z"/>
	<path d="M47.679,231.457c-0.451,0.308-1.411-0.31-1.916-0.374c-0.929-0.118-2.001-0.075-2.918,0.08
		c-1.713,0.286-3.457,0.562-5.116,1.057c-1.014,0.302-2.022,0.728-3.041,0.915c-1.139,0.208-2.808-0.873-3.409-1.759
		c-1.636-2.41,0.497-6.154,1.422-8.462c0.592-1.477,0.746-2.984,0.977-4.539c0.294-1.971,0.711-3.925,0.609-5.93
		c-0.2-3.966-0.708-7.88-0.708-11.862c0.001-1.222,0.105-2.48,0.325-3.662c0.133-0.706,0.413-1.691,1.288-1.772
		c2.527-0.234,3.175,3.321,3.651,5c0.772,2.71,1.705,5.348,2.616,8.014c0.861,2.518,1.142,5.505,3.002,7.555
		c0.588,0.646,1.202,1.278,2.108,1.479c0.979,0.218,2.048,0.163,3.015,0.504c-0.426,0.929-0.771,1.729-1.021,2.76
		c-0.334,1.378-0.717,2.712-0.956,4.107c-0.262,1.52-0.331,2.962-0.331,4.503c0,0.745-0.348,2.587,0.202,3.175"/>
	<path d="M182.559,70.92C182.866,70.92,182.866,70.92,182.559,70.92"/>
	<path d="M177.715,79.489c0.538-0.939,0.429-2.849,0.757-4.079c0.546-2.049,1.422-2.819,2.888-4.211
		c2.216-2.104,5.585-3.873,5.688-7.356c0.089-3.011-3.095-6.077-0.482-9.044c1.116-1.268,2.901-0.765,3.919-1.652
		c1.073-0.936,1.262-2.916,1.827-4.143c4.239-0.774,0.409,6.327,2.068,8.979c0.926,1.481,2.722,1.679,3.381,3.624
		c0.705,2.081-0.771,3.554,0.446,5.225c0.864,1.185,3.054,1.621,4.192,2.88c1.23,1.359,1.974,2.999,2.431,4.854
		c1.018,4.126-0.51,8.305-5.448,8.705c-0.205,2.896-0.602,6.575-4.837,5.553c-1.35-0.326-2.372-1.811-3.562-2.062
		c-1.513-0.319-1.541,0.357-2.953,0.724c-2.825,0.731-6.014,1.142-8.549-0.913c-1.403-1.138-5.019-3.156-4.001-4.847"/>
</g>
</svg>
