<svg xmlns="http://www.w3.org/2000/svg" viewBox="0 0 194.95 348.47"><defs><style>.cls-1{fill:#007293;}.cls-2{fill:#fff;}.cls-3{fill:#e30613;}.cls-4{fill:#1d1d1b;}</style></defs><g id="Ebene_2" data-name="Ebene 2"><g id="Ebene_1-2" data-name="Ebene 1"><path class="cls-1" d="M71,233.08l-4.08-16.44L53.54,209.9s-5.8,17.43-5.08,24.4S52,254.17,52,254.17l5.12,28,9,56.25-9.25,3.08-10.79,6.94,30.43-1.8,2-5.54-2.35-6-1.73-21.3L70.87,293.4l-1-11.15L68.49,262,67,241.33Z"/><polygon class="cls-1" points="64.36 231.71 95.16 214.48 105.4 193.63 94.12 195.29 54.8 206.25 52.31 232.79 64.36 231.71"/><path class="cls-1" d="M86,201.72l1.84,8.64,10.52.63,15.09-5.73s47.1-33.8,49.52-34.49,16.46-16.52,16.46-16.52l5.75-3.33,7.61-6.32,2.2-6.53-10.58,1.3-7.75,7.74-4.47,2.16-27.63,21.6-38.45,18.19s-7.34-1.78-7.86-1.3-10.41,6.6-10.45,7S86,201.72,86,201.72Z"/><path class="cls-2" d="M47.61,133s37.69-12.87,40.23-8.15,3.68,29.82,7.25,47.49c3.12,15.42,4.35,21,4.35,21l4,16-2.9,5.07-6.53-12S83.12,190.11,72.25,197s-12.51,16.2-12.51,16.2l9.61,14.25,1,5.63s-18.71-18.74-20-19.43c-2.73-1.42-2.38-6.14-2.38-6.14s8.42-32.09,5.15-40.79-9.78-26.47-9.78-26.47Z"/><path class="cls-1" d="M85,142.67l6.33-4.62s2.46,1.65,7.67-19.72c1.91-7.85-4.46-15.84-3.58-25.43C96.9,76.36,91.8,55,91.8,55s5.88,2.9,16.88,11.42a130.65,130.65,0,0,0,21.49,13.5l8.19,11.41,28.47,12.32-7.17-10.38L140.27,77.66s-18.42-24.1-27-28.79S88.82,33.12,88.82,33.12,73,43,71.11,50c-2.53,9.57-6.65,15.26-7.77,27.43-.82,8.84-2.13,11.06-2,18.08.07,6.18.3,10.39.3,10.39S63.14,96,43.19,81c-11.28-8.5-25.08-27.62-25.08-27.62S33,51.26,46.25,43.48,80,21.35,80,21.35l6.13,3.12L119.43,0,79,11.42,21.69,33.73,8.39,43.07.77,52.73s13.76,42.76,21.94,57.89c3.95,7.32,47.19,40.75,30.19,29.58Z"/><path class="cls-2" d="M66.29,71.23l42.39,5.39L101,97.43l-.76,15.42s4.62,13.87-.78,20-13.7,9.78-13.7,9.78l-34.47,2.85L0,121.33S12.33,99,26.21,85.87,66.29,71.23,66.29,71.23Z"/><polygon class="cls-3" points="87.84 124.85 88.7 131.97 45.7 146.69 44.3 142.45 87.84 124.85"/><polygon class="cls-3" points="89.05 136.28 88.73 143.72 48.73 152.43 46.67 148.47 89.05 136.28"/><polygon class="cls-3" points="89.53 150.53 90.16 156.7 51.42 162.4 50 157.02 89.53 150.53"/><polygon class="cls-3" points="91.43 162.4 93.17 167.78 54.59 174.43 53.8 168.1 91.43 162.4"/><path class="cls-3" d="M97.72,177.5S54,182.13,54.13,185.29c0,.18.51-5.71.51-5.71l40.45-7.24Z"/><polygon class="cls-3" points="98.9 183.12 53.96 195.33 53.96 190.89 96.84 179.68 98.9 183.12"/><polygon class="cls-3" points="53.64 199.12 98.55 187.08 98.93 192.01 51.99 206.5 53.64 199.12"/><polygon class="cls-3" points="11.6 121.18 13.32 116.87 17.05 122.61 11.6 121.18"/><polygon class="cls-3" points="17.34 112.28 20.21 107.69 23.36 113.72 17.34 112.28"/><polygon class="cls-3" points="24.87 101.7 28.98 95.12 31.86 104.58 24.87 101.7"/><polygon class="cls-3" points="33.92 90.6 40.91 85.66 39.67 94.3 33.92 90.6"/><polygon class="cls-3" points="46.66 82.79 54.88 81.14 51.59 88.54 46.66 82.79"/><polygon class="cls-3" points="62.28 79.09 69.97 80.13 63.52 87.72 62.28 79.09"/><polygon class="cls-3" points="79.14 79.09 87.77 79.5 82.02 88.13 79.14 79.09"/><polygon class="cls-3" points="98.46 80.73 105.45 86.08 97.22 91.83 98.46 80.73"/><polygon class="cls-3" points="116.95 88.13 120.66 96.77 111.2 96.77 116.95 88.13"/><polygon class="cls-3" points="129.7 104.58 132.58 113.62 120.66 111.15 129.7 104.58"/><polygon class="cls-3" points="9.66 126.36 9.66 131.71 16.24 129.65 9.66 126.36"/><polygon class="cls-3" points="8.94 137.92 8.94 145.63 15.88 139.47 8.94 137.92"/><polygon class="cls-3" points="92.47 199.98 100.25 195.81 101.4 200.39 95.18 204.31 92.47 199.98"/><polygon class="cls-3" points="51.3 211.44 54.69 208.65 56.42 213.91 53.76 216.75 51.11 213.53 51.3 211.44"/><polygon class="cls-3" points="56.96 219.75 59.42 222.41 61.31 218.2 59.8 216.33 56.96 219.75"/><polygon class="cls-3" points="70.61 233.36 72.51 231.47 70.8 228.24 67.8 230.35 70.61 233.36"/><polygon class="cls-3" points="66.36 229.21 69.43 227.46 67.12 223.9 64.46 226.93 66.36 229.21"/><polygon class="cls-3" points="63.56 225.88 65.08 222.84 63.56 220.75 60.53 223.41 63.56 225.88"/><path class="cls-2" d="M65,199.79S58.49,215,61.31,218.6c1.35,1.73,4.81,5.51,8,10,3.46,4.91,15.56,7,15.56,7l10.06-9.49a54.34,54.34,0,0,0-.23-15.55c-1.43-7.41-12.19-14.1-12.19-14.1s-8-4.09-10.89-3.25S65,199.79,65,199.79Z"/><path class="cls-3" d="M94,217.79A1.84,1.84,0,1,1,92.2,216,1.81,1.81,0,0,1,94,217.79Z"/><path class="cls-3" d="M77.09,228.37a1.84,1.84,0,1,1-1.84-1.79A1.82,1.82,0,0,1,77.09,228.37Z"/><path class="cls-1" d="M84.32,214.15A5.84,5.84,0,0,1,86.45,211a4.64,4.64,0,0,1,3.31-.55S89.28,213.53,88,214A9.19,9.19,0,0,1,84.32,214.15Z"/><path class="cls-2" d="M89.19,212.38a1.81,1.81,0,1,1-1.8-2A1.89,1.89,0,0,1,89.19,212.38Z"/><path class="cls-4" d="M88.69,212.75a1.3,1.3,0,1,1-1.3-1.34A1.32,1.32,0,0,1,88.69,212.75Z"/><path class="cls-1" d="M68.38,225s.26-2.72,2.17-3.6a7.62,7.62,0,0,1,4.15-.45s-.88,3.17-2.15,3.67A14.13,14.13,0,0,1,68.38,225Z"/><path class="cls-2" d="M73.65,223a2.25,2.25,0,1,1-2.24-2.23A2.23,2.23,0,0,1,73.65,223Z"/><path class="cls-4" d="M73,223.33a1.45,1.45,0,1,1-1.44-1.46A1.46,1.46,0,0,1,73,223.33Z"/><path class="cls-4" d="M82.86,228.92s3.07.3,3.84-.43,1-3,1.17-3.2a1.32,1.32,0,0,0,.09-.65,3.93,3.93,0,0,1-1.09,1.6A5.64,5.64,0,0,1,84,228c-1,.13-2.07.47-1.85.65A2.54,2.54,0,0,0,82.86,228.92Z"/><polygon class="cls-3" points="96.73 207.25 102.27 204.81 103.11 208.28 98.33 210.62 96.73 207.25"/><path class="cls-4" d="M61.08,216.42l4.23-4.8,1-5.48,2.29,3.66L70.1,203l3,3.54,5.82-7.08a2.51,2.51,0,0,1,3.43.69c1.71,1.94,2.51.79,2.62.45s1.66-.37,1.66-.37A26,26,0,0,1,90.76,204c.91,1.37,3.34.5,3.34.5l.67-4.83s-13.56-16.46-18.69-14.52c-2.24.84-10.2.76-13.51,2.5-4.29,2.26-7.52,8.31-8.68,10.18-2,3.31-1.08,13.81-.17,17.35s5.88,4,6.57,5,1.14,4.68-.92,4.23-2.85,1.59-2,1.82,4.9.57,4.9,0-.11-5.14,0-5.59A26.92,26.92,0,0,0,61.08,216.42Z"/><path class="cls-4" d="M62.12,220.58c.39-.39.41-1.4.59-1.94a11.76,11.76,0,0,1,.81-1.77c.67-1.21,1.86-2,2.55-3.12.85.33.6,1.87.48,2.56a6.5,6.5,0,0,1-.72,2,15,15,0,0,0,2.5-3.21,12.4,12.4,0,0,0,.9-2.54c.12-.41.27-1.09.7-1.27a1,1,0,0,0,1.17.76,4.41,4.41,0,0,1,.84-2.15c.62.43,1.68.28,2.39.64a9,9,0,0,1-.11-1.8l.21,0c.33-1.1,3.54-2.09,4.28-1.4.22-.5-.27-1-.21-1.53,0,0,.11,0,.15,0s0-.1.08-.14a13.9,13.9,0,0,0,1.21,1.08,11.51,11.51,0,0,1,.39-2.36c.23.08.21.36.38.56.2-.31.24-.91.62-1.11.55-.29,1.55.14,2.1.28a4.35,4.35,0,0,1,1.55.55c.45.31.8.76,1.26,1.05a4.89,4.89,0,0,1-.37-1.88c0-.68.89-1,1.47-1.12.27-.06.42.06.64,0s.39-.34.67-.44a2.71,2.71,0,0,1,1.33.1c.28.08.12.31.46.13.11-.06.22-.34.26-.45.72-2.15-1.58-4-3.26-4.59a17.43,17.43,0,0,0-9.21-.82,31.16,31.16,0,0,0-8.39,2.69A20.15,20.15,0,0,0,64,203.71,29.88,29.88,0,0,0,61.06,208,5.79,5.79,0,0,0,60,211c.08,1.49.76,2.24.81,3.73,0,.6-.39,1-.52,1.67s1.24,1.77,1.2,2.36c-.05.86,1.11,1.06.62,2,0-.07,0-.09.06-.15"/><path class="cls-4" d="M93,201.29c.79,2.08,2,5.06,1.62,7.33-2.63-1.17-3.76-5.65-4.35-8,1.48-.24,2.8.08,3.1,1.63"/><path class="cls-4" d="M62.33,218.64c.87.38,1.19,1.58,1.53,2.35a12.4,12.4,0,0,0,1.74,2.83c.75.92,1.25,1.31,1,2.59a3.41,3.41,0,0,1-2.13,2.69,5.24,5.24,0,0,0,.11-3.7c-.63,1.79-1.65,2.64-3.64,1.93,1.5-2.56.79-5.7,1-8.67a.69.69,0,0,1,.8.22"/></g></g></svg>