<svg xmlns="http://www.w3.org/2000/svg" viewBox="0 0 258.49 258.81"><defs><style>.cls-1{fill:#007293;}.cls-2{fill:#1d1d1b;}.cls-3{fill:#e30613;}</style></defs><g id="Ebene_2" data-name="Ebene 2"><g id="Ebene_1-2" data-name="Ebene 1"><path class="cls-1" d="M181.71,142.33c-1-2.94-1.77-6.33-3.23-9.09s-14-4.06-16.82-5.2c-3.24-1.34-5.64,2-9,2.13.32,2.49-1.5.54-3.45,2.48-1.65,1.64-8.68,8.17-12.51,10-5.45,2.56-6.71.56-12.46-.18-2.6-.34-9.75-.47-15.35-1.13-.37,0-31.25-.48-31.62-.52-4.79-.46-48.18.06-50,.43s-11.37,1.7-15.36.64L12,142h-.05l-.1-.2a3.19,3.19,0,0,1-.7-.27c-2.86-1.47-7.38-4.95-10-1.05-1.46,2.14-1.73,7,.81,8.44,2.77,1.55,7.13.11,9.9-.24a.35.35,0,0,0,.26,0l0,0h0c1.91-.24,5.1-.89,6.8-1.1S69.48,151,73.8,151.05c3.66,0,20-.46,26.61,2.29,3,1.25,9.14-.28,11.88,1.38,1.27.77,6.3,4.18,7.3,5.1,2,1.83,6.75,8.71,6.74,12.06,0,1.83.37,10,0,11.54-1,3.64-5.29,44.35-7.53,51.58-1.1,3.55-1.89,6.95-3.09,10.44-.93,2.68-1.17,5-2,7.61a.61.61,0,0,0-.24.51c0,.21.19.36.38.37l.13,0a.09.09,0,0,1,0,.05.34.34,0,0,0,.43.26l.24.14a1.18,1.18,0,0,1,.18.21,1.2,1.2,0,0,0,.51.27,14.76,14.76,0,0,1,1.46.68,5.89,5.89,0,0,0,.94.24,1.67,1.67,0,0,0,.94,0,1.14,1.14,0,0,0,.41-.24c.08-.08,0-.19.08-.29s.1-.14.13-.22.07-.24.11-.37l.23-.78.51-1.74c.38-1.34.77-2.68,1.15-4l1.26-4.42c.43-1.49.85-3,1.27-4.47s.79-2.78,1.18-4.17l1-3.52c.24-.83.47-1.66.71-2.49.06-.24.13-.47.2-.71,1.18-4.14,6.06-25.89,6.68-28.14.66-2.43,1.77-5.08,2.56-7.59,1.19-3.72,4.67-8.61,6.38-12.32s8.15-10.45,11.56-13c6.13-4.48,8.77-10,16-11.71,3.68-.86,12.92-9.44,11.67-13.31"/><path class="cls-1" d="M150.46,129.37c-.4-.07-3.15-1.47-4.48-1.8a49.59,49.59,0,0,1-5.71-1.46c-3.37-1.31-18.54-6.22-22.36-7.87-4-1.72-7.71-3.88-11.69-5.6-1.49-.64-8.5-1.67-10.35-2.14-3.38-.86-6.35-3.83-9.7-5-3-1.1-15.52-10.65-18.61-12.24C62.77,90.75,57,88.9,51.3,89.47c-3,.3-4.28,1.08-7.56,1S26.89,87.52,29,86.13c1.92-3.22,15.37-1.52,18.12-2.87a72.71,72.71,0,0,0,8-4.49C58,77,59.82,76.47,62.93,78c2.8,1.42,4.42,4.13,7.07,5.79,5.45,3.42,12.31,5.55,18.27,8,6.41,2.66,12,6.82,18.73,9,8.41,2.67,42.59,7.58,50.77,9.7,3.1.81,6.13,1.57,9.4,2.4,3.49.88,6.73,2.16,10.32,2.18,1.81,0,8.91-3.29,10.56-4.74,2.6-2.28,8.64-14.78,10.27-17.82,3.65-6.88,15.42-21,20.74-30.57,4.79-8.66,5.19-15.24,9.58-23.95,1.37-2.73,2-5.79,3.21-8.59,2.58-6.07,5.52-13,7.9-15.36s-.08-2.62,1.63-5.51c1.31-2.22,1.56-1.6,5.14-1.85,4.81-.33,9.58-7.87,11.85-6.56.7.41-1.74,5.81-2.22,6.69A12.17,12.17,0,0,1,252,11.49c-1.67,1.28-4.36,2.39-5.42,5.74S241.61,27.41,241,30.82s-3.66,17.79-5.25,21.86c-3.84,9.86-5.45,20.5-11.21,29.58-2.56,4-3.24,8.4-5.87,12.37-2.29,3.46-9.53,24.05-12.8,28.53-3.82,5.23-6.79,10.56-11.46,15.17-1.48,1.47-3.78,2.57-5.26,4s-3.62,1.67-5,3.3-2.42,1.13-4.3,2.51c-1.14.85-2.39,2.55-3.76,3a8.45,8.45,0,0,1-2.65-.11,18.36,18.36,0,0,0-8.68-12c-2.32-1.47-4.9-2.31-7.2-4-1.37-1-2.48-2.2-3.89-3.13a20.09,20.09,0,0,1-3.2-2.53"/><path class="cls-2" d="M71.73,82.21c-.52,3-2.39,5.39-5,8a30.25,30.25,0,0,0-4.41,4.72c-1.05,1.62-.29,3.52.07,5.32s1.69,3.84,3.88,3c1.27-.48,1.36-2.35,2.71-3a15.53,15.53,0,0,1,3.1-.74c1.35.08,2.24,2.55,3.07,3.66,2.24,3,2.4-.48,5,.43,1,3.39,4.62,1.72,6.34,4s2.49,5.88,5.66,6.36a15.05,15.05,0,0,0,4.25-.41c2.06-.25,13.24,2.6,13.9,2.59,1.41,0,2.55.77,3.83,1.13a29.37,29.37,0,0,1,4.69,1.39c1.26.56,2.42,1.46,3.71,2,2,.78,4.26,1.13,6.32,1.85,1.77.62,3.6,1.61,5.36,2.24a72.31,72.31,0,0,0,9.29,2.22c1.26.28,2.6,1.9,3.85,2.24,1.48.4,3.06,2.31,4.63,2.61s3.16-2,4.64-1.22c2.48,1.24,4.93,2.38,7.37,3.75,3.55,2,6.12,5.61,9.59,7.9a16.76,16.76,0,0,1,3.86,3.36c1,1.3,1.35,2.74,3.47,2.26,1.19-.27,2.6-1.2,3.85-1.62a19.83,19.83,0,0,0,5.52-3.27c2.91-2.1,6.3-3.53,8.06-6.58a50.35,50.35,0,0,1,3.6-4.88c1.24-1.65,2.77-3.63,4-5.34,1.44-2,6.19-13.58,7.62-17,.75-1.77,1.19-3.46,2-5.24.9-2.09,2.19-3.29,2.73-5.39,1.42-5.6,6.1-9.7,7.51-15.3.74-3-.55-3,1.85-2.52s2.84-1.16,2.72-3c-.09-1.31-1.58-3.12-.87-4.22s4.06-.61,3.15-2.83a3,3,0,0,1-1.84-1.47c1.27-1.11,2.79.82,4-.83s-.93-2.7-1.49-4c2-.64,5.44-3.26,2.59-4.86-1.55-.86-1.72,0-3.08.31a9.09,9.09,0,0,1-3.89-.29c-2.31-.66-4.2-2.47-6.55-3-.84-.19-2.86-.41-3.4.38-1,1.49,1.36,1.64,1.79,2.44-1.67,1.78-3.06.47-5,1.21-.52.2-2.15,2-2,2.67.23.9,1.87.66,2.32,1.39-1.53.6-6.28,1.84-5.73,4.16a4.08,4.08,0,0,1,1.81.49c1,2.31-5.54.79-4.53,4.38.4-.06,1,.17,1.43.11.38,3.16-2.52,5.28-4.23,7.81s-3.39,4.28-4.77,6.91c-1.72,3.29-4.07,6.07-5,9.62a60.51,60.51,0,0,1-4.9,9.09c-.61.84-1.32,2.78-2.43,3.18a8.16,8.16,0,0,1-2.32.07,8.35,8.35,0,0,0-3,.76c-2.84,1-8,.7-10.93.1-3.29-.68-6.32-1.44-9.56-2-1.56-.28-3-.5-4.71-.65s-4-.09-5.83-.35c-2.72-.38-5.8-2-8.47-2.91a32.66,32.66,0,0,0-10-1.56,60.38,60.38,0,0,1-20.55-3.41c-3.23-1.14-6.76-1.36-9.88-2.6-2.61-1-5.33-3.06-7.78-4.46-3.48-2-6.41-4.76-10-6.36-1.81-.81-3.64-.84-5.45-1.49-1.36-.48-2.53-1-3.84-1.39a18.1,18.1,0,0,1-3.14-1c0,.71-.35-.87-.35-.87"/><path class="cls-1" d="M119.7,253a7.83,7.83,0,0,0-4.29-.24,10,10,0,0,0-2.06.62c-.54.23-.65.92-.66,1.45a3.48,3.48,0,0,0,.19.95,4.08,4.08,0,0,0,1.61,2.58c1.36.69,2.41.35,3.86.23,1.66-.15,9.06-.78,10.75-1,2.16-.29,4.29,1.8,5.07.79-.48-1.58-3.19-3.28-4.64-3.68s-9.71-1.5-9.71-1.5l-.12-.19"/><path class="cls-3" d="M180.65,149.11c1.8-2.57,1-12.56-.48-15.33s-15.64-5.74-18.42-6.89c-3.24-1.33-7,.68-10.36.85.32,2.49-1.61,2.88-3.56,4.82-1.65,1.64-7.72,8-11.55,9.78-2.78,1.3-4.35.58-6.1.28a38.7,38.7,0,0,1-.86,4.18,13.67,13.67,0,0,1-3.51,4.32,29.27,29.27,0,0,1-7.9,4.59c-1.32.55-2.68,1-4,1.45,1.7,1.13,3.86,2.63,4.85,3.43a30.66,30.66,0,0,1,3.76-1.55,16.9,16.9,0,0,1,6.55-1.12,15.88,15.88,0,0,1,3.93.81,6.08,6.08,0,0,1,2.24,1.24,3,3,0,0,1,.52,3.47,14.23,14.23,0,0,1-3.32,4.33,64.11,64.11,0,0,1-5.4,4.59l-1.16.89c0,1.37.15,4.74.16,7.47q.74-.25,1.44-.54c1.83-.71,3.64-1.47,5.48-2.14a24.89,24.89,0,0,1,9.08-1.87,11.93,11.93,0,0,1,3.25.52,56.06,56.06,0,0,1,8.35-8.25c6.12-4.49,8.76-10,16-11.71a18.7,18.7,0,0,0,11.1-7.62"/><path class="cls-1" d="M124.07,172.88c-2.36,2.3.09,4-.25,5.74-.65,3.29-2.44,9.12-5.38,10.65-3.92,2-10.38,2.55-14.34-.2a3.61,3.61,0,0,1-1.53-2.3,7.9,7.9,0,0,0-.53-1.4,10.24,10.24,0,0,1-.54-1.87,17.67,17.67,0,0,1-.47-3.82c0-1.92,1.58-3.5,2.69-4.89a8.34,8.34,0,0,1,1.57-1.57,7.88,7.88,0,0,1,1.69-1c.34-.13.61-.33.94-.45s.5-.11.76-.18a3.94,3.94,0,0,0,2.13-1.39,12.67,12.67,0,0,1,2.07-1.7,21,21,0,0,0,3.5-4c.92-1.31,1.78-2.65,2.76-3.91,2.42-3.09,7.94-2.52,10.51,1,1.47,2,1.86,4.08,1.47,5.18a8,8,0,0,1-2.36,3.61c-1.15.89-3.53,1.41-4.69,2.54"/><path class="cls-3" d="M117.36,174.25a3.55,3.55,0,0,0-.79-.14,1.7,1.7,0,0,1-.94-.15c-.13-.12-.71-.19-1-.46s-.47-.88-1.14-1a10.27,10.27,0,0,1,2.74.48c.64.26,2.08,1,1.84,1.76a4.92,4.92,0,0,0-.7-.47"/><path class="cls-2" d="M105.36,176.71a2.23,2.23,0,0,0,1.06,1.51,4.36,4.36,0,0,0,1.25.62l-.13.56-1.5-.24.08-.32-.49-.5Z"/><path class="cls-2" d="M110.14,178.57a2.48,2.48,0,0,1-1.83.4,4,4,0,0,1-1.32-.37l-.32.49,1.21.78.18-.28.71,0Z"/><path class="cls-2" d="M114,180a2.21,2.21,0,0,0,1,1.51,4,4,0,0,0,1.26.62l-.14.56-1.49-.24.08-.32-.5-.5Z"/><path class="cls-2" d="M119,181a2.19,2.19,0,0,1-1.68,1.05,5.85,5.85,0,0,1-1.69.09v.6l1.87.37v-.35l.74-.28Z"/><path class="cls-2" d="M118,180.36a1.79,1.79,0,0,1-.66.26,1.33,1.33,0,0,1-.7-.23,1.61,1.61,0,0,1-.59-.91,2.09,2.09,0,0,1,.66,0,5.13,5.13,0,0,1,.87.19c.25.06.61.46.36.66a.12.12,0,0,1,0-.1"/><path class="cls-2" d="M108.65,177.47c-.48-.2-.84-.22-1-.67a1,1,0,0,1,.15-1,5.36,5.36,0,0,1,1.29.76c.18.13.54.68.35.8a1.31,1.31,0,0,1-.77.1"/><path class="cls-2" d="M123.26,178.1c0-.1,0-.11,0,0,.12,1.06.95,2.56-.61,2.8-.05,1.29.14,2.36-1.46,2.6,0,.66.25,1.3,0,1.94s-1,1.15-1.63.8a1.26,1.26,0,0,1-1.38,2.07c.78,1-2.13,2.07-2.24.65.08.57-.69,1.17-1.19,1.34a1.33,1.33,0,0,1-1.71-.79c-.2.59-1.37.76-1.93.67-.81-.13-.88-.78-1.16-1.35a2.25,2.25,0,0,1-2,.52,1.52,1.52,0,0,1-.49-2,.17.17,0,0,1,0,.22,3.55,3.55,0,0,1-1.88.07c-.4-.19-.38-.53-.58-.83s.08-.24-.18-.38-.5.1-.65.12c-.36,0-.26.23-.54-.1a3.61,3.61,0,0,1-.23-1c0-.2,0-.46,0-.64s.12-.13.06-.26-.35-.19-.4-.24a2.14,2.14,0,0,1-.74-1.86.34.34,0,0,1,.12-.27c0-.1-.07-.25-.08-.33,0-.35-.18-.76-.22-1.15-.1-1-.11-2.86,1.53-2.75-.7-.69,0-1.24.43-1.83s.47-1.23,1.21-1.61c.54-.26.47-.22.49-.78s.17-.62.59-.87c.2-.12.4-.18.59-.31s0-.29.24-.39.91.1.91-.46c1.5,0,.37-2.21-.83-1.55a.38.38,0,0,0,.38.44,2.46,2.46,0,0,0-1.36-.88c-1.19-.21-1.17.53-1.06,1.35-.36-.62-.68-1-1.33-.9a3.54,3.54,0,0,0-.74.23c-.42.22-.78.67-1.25.79a5.05,5.05,0,0,1-1.45-.12,3.33,3.33,0,0,0-1.72.46c-1.35.78-.71,1.7,0,2.63-.48-1.18-1.9-.35-2.35.47s.17,1.75.14,2.64c-1.23-.55-1.66.69-1.53,1.78.08.62.67,1.74.12,2.23-.19.18-.52.19-.73.37a2.51,2.51,0,0,0-.68,1.23A15,15,0,0,0,93.5,186c-.52.14-.82.11-1.24.53a2.43,2.43,0,0,0-.86,1.72,2.79,2.79,0,0,0,2.91,3.09,1.57,1.57,0,0,0-1.5,1.83c.17,1,1.36,1.59,2.16,2a4.5,4.5,0,0,0,2.34.41c-.43,1.19.26,1.89,1.41,2.48,2.22,1.12,5,1.19,6.18-1.2-.13,1.18,1.95,1.53,2.79,1.56a3.42,3.42,0,0,0,2.77-1.21c.29-.35.71-.9.57-1.38-.11,1.25,1.94,1.19,2.74.94a7.71,7.71,0,0,0,2.85-1.88,6,6,0,0,0,1.75-2c-.41.85.67,1.46,1.46,1.48a3.38,3.38,0,0,0,2.6-1.22c.41-.52.73-1.46,0-1.82.34,1,1.85.89,2.5.24a5.64,5.64,0,0,0,1-2.54c.1-.48.33-1.42,0-1.84,1,.27,1.41.17,1.67-1,.2-.91,1.17-4.61-.7-4.59a.4.4,0,0,0,.54.43,4.45,4.45,0,0,0-.52-2.77,2.76,2.76,0,0,0-1.21-1.25c-.24-.1-.75-.25-.63.16.45-.09.36-1.91.29-2.27a1.39,1.39,0,0,0-.9-1.11c-.86-.2-1,.84-.93,1.45-.09-.32-.45-.68-.84-.49a7.14,7.14,0,0,0,.51,2.5"/><path class="cls-2" d="M122.87,177.25s-.12-.07.1.12c.23-.58,1.25-1.41,1.12-2.06a.78.78,0,0,0-.5,0c.28,1,1.63-.89,1.76-1.13a4,4,0,0,0,.34-1.93,1.27,1.27,0,0,0-.34,0c.92,0,1.54-2.71.07-2.42a.17.17,0,0,0,0,.22c.53-.07.66-1.41.67-1.87a1.14,1.14,0,0,0-.53-1.22,1.76,1.76,0,0,0,.22-1.1c0-.35-.43-1.07-1-.7-.37.25-.12.95.32.73.26-.14.25-1.15.22-1.38A1.53,1.53,0,0,0,124,163.2c-.73-.15-.86.11-1.21-.53-.56-1-1.7-1.74-2.54-.57.19-1.39-2.31-1.32-2.13.1.39-1.55-3.1-.37-2.05.74a.69.69,0,0,0,0-.32c-.85-.16-2.28.3-1.75,1.4-.74-.66-2.52.46-1.84,1.36a2,2,0,0,0-1.8,1c-.24.35-.65,1.5-.15,1.78,0-1-1.38.48-1.48.67s-.38,1.72.27,1.35c-.43,1,2,.87,2-.38-.19.53.27.6.65.66a1.13,1.13,0,0,0,1.35-.76c-.42,1.14,2,1.46,1.64.5-.81.18.35,1.69,1.23,1a1.22,1.22,0,0,0,1.57.64.93.93,0,0,0,1.55.5c-.09.41-.31.52,0,.89s.75.53,1.08.35c-.47.52-.14.93.33,1.23-1,.61-.38,1.15.44,1.49-.4,0-.75.63-.73,1a1.05,1.05,0,0,0,.84.85c.06.5-.27.88-.23,1.38s.61.62.71,1.07-.49.92.11,1.4a1,1,0,0,0,1.49-.11,6.84,6.84,0,0,0,.48-1.38,5.94,5.94,0,0,0,.57-1.5c.12-1-.5-1.69-.42-2.73"/><path class="cls-2" d="M121.32,177.28a1.19,1.19,0,0,1-.06-.36.88.88,0,0,0-.76.27c-.08-.47-.55-.47-.93-.35a1.21,1.21,0,0,0-.09.49c.14-.11.1-.16.06-.36-.34,0-.68.08-1,.07-.09-.45-.81-.53-1.12-.3a.18.18,0,0,0,0-.17.78.78,0,0,0-.22,0c0-.1-.09-.24-.08-.34-.35.44-1,.5-1.22-.13-.29.32-.69.1-.68-.31-.47,0-1,.07-1.13-.52-.43,0-.74-.09-.71-.54-.41.32-.86-.12-.58-.48-.29,0-1.1.07-.71-.44-.74.14-1.06-.28-1.16-.92-.27,0-.48.27-.77.18s-.5-.79-.53-1.08c-.4.33-.78,0-.83-.43s.09-.37.17-.67,0-.42.09-.64c.22-.91,2.68-2.23,3-.85a2.5,2.5,0,0,1,1.5-.38c.2.29.41.8-.1.89,1.11-.44.77,1.91-.12,1.66a.17.17,0,0,1,0-.21.79.79,0,0,1,.48-.05c.34.67-.51.57-.64,1,.36.15.47,2.09,1.32,1.36.06.39.87.44,1.22.49.22.64.91.36,1.37.5.23.07.32.26.6.3s.19-.13.29-.14.18.11.36.07c.81-.15.58-.29.4-.91-.08-.3-.2-.33.11-.63s.59-.39.64,0c-.5-.25.21-.8.47-1,.94-.58,1.11-.08,1.48.67.24.47.75.88.95,1.38s.19,1.4-.45,1.39c.2.25.42.57.2.87s-.88,0-1.18.37"/><path class="cls-1" d="M148.2,153.14c-.29,0-.42.13-.39.41,1,1.44,3.1.8,4.68.64a6.65,6.65,0,0,0,5.64-3.65c2.42-5-2.09-10.42-7.17-11-9.39-1-9.13,12.35-1.54,14.4l-.37-.18"/></g></g></svg>