<svg xmlns="http://www.w3.org/2000/svg" viewBox="0 0 364.98 236.71"><defs><style>.cls-1{fill:#007293;}.cls-2{fill:#1d1d1b;}.cls-3{fill:#fff;}.cls-4{fill:#e30613;}</style></defs><g id="Ebene_2" data-name="Ebene 2"><g id="Ebene_1-2" data-name="Ebene 1"><path class="cls-1" d="M37.7,29a236.32,236.32,0,0,0-7.83,35.88c-.9,7-3,14-3.85,20.85a121.3,121.3,0,0,1-1.83,12.78,110,110,0,0,0-2,13.54c-.45,4-1.54,8.14.78,12.15a5.9,5.9,0,0,1-4.11-1.66c-1.12-1-2.47-1.64-3.64-2.59-1.46-1.2-2.39-.78-3.8.37a7.29,7.29,0,0,0-1.56,1.42c-.63.9.15,1.08,1,1.28a2,2,0,0,0,1.87-.31c1.25-.64,2.13.46,2.94,1.19,1.06,1,3.22,1.7,3.83,3s-1.5,2-2.57,1.89c-.66-.09-.89-.32-1.63-.11-.52.14-1,.4-1.51.55a1.78,1.78,0,0,0-1.47,2.2,15.22,15.22,0,0,0,1.42,3.12c.25.5.57,1,.82,1.45s.41,1.27.83,1.54c.83.54,2.5-.18,2-1.34-.22-.57-.91-.85-1.3-1.28a6.59,6.59,0,0,1-.82-1.14c-.47-.93-.5-2.35.69-2.54,2.07-.32,3,.57,4.21,2a4.39,4.39,0,0,0-1.29,4.46c.22.65,2,0,2.32-.24a5.36,5.36,0,0,0,1.4-2.07c.39-.78.89-1.56,1.22-2.37.48-1.18,1-1.19,2.11-1.89A11.43,11.43,0,0,1,28,129.82c1.22-.46,4,1.19,4.65-.69.26-.8-.33-1.11-1-1.55a7.14,7.14,0,0,1-2-2,4.51,4.51,0,0,1-1-2.94,46.17,46.17,0,0,0,0-5.76,30,30,0,0,1,.71-7.39c.18-.71.7-4.08,1.32-4.2a9.7,9.7,0,0,1,.62-2.48c.42-1.33.68-2.7,1-4.06C33.56,94,33.64,89,34.09,84.17c.32-3.43.61-6.87.91-10.29.34-3.76.85-7.56,1.33-11.31.53-4.11,1.62-8,2.49-12.09.65-3,1.37-6.07,2.26-9.06a25.42,25.42,0,0,1,1.51-4.51c.23-.44.6-.69.8-1.12.29-.61.39-1.31.76-1.95.19-.31.93-1.71,1.32-1.71.62,0,1.9,2,2.21,2.43a26.91,26.91,0,0,1,2.72,4.17c1.25,2.35,2.13,4.92,3.16,7.38.5,1.19,1,2.4,1.61,3.55s1.68,2.4,2.39,3.65c.87,1.55,1.84,3.17,2.62,4.79s1.61,3,2.37,4.62c1,2,1.84,3.92,2.62,5.92,1,2.56,1.91,5.19,2.75,7.78.48,1.48,1.27,2.86,1.79,4.33.86,2.46,1.83,4.88,2.76,7.3,1.56,4.08,2.74,8.33,4.58,12.3,1.92,4.17,3.38,8.58,5.12,12.83.6,1.45,1.4,2.79,2,4.25a34.89,34.89,0,0,0,1.57,3.4q1.78,3.6,3.63,7.16c.76,1.46,1.75,4.38,3.82,4.14a7.35,7.35,0,0,0,2.37-1,37.55,37.55,0,0,1,3.66-1.51c2-.75,4.55-1.37,5.68-3.38.89-1.58.3-3.26-.48-4.75a53.17,53.17,0,0,0-3.88-6.71c-2.68-3.66-5.42-7.23-8-10.91-.81-1.14-1.44-2.36-2.23-3.5-.66-1-1.16-2-1.74-3-.84-1.43-1.8-2.78-2.64-4.21C82.65,87.71,80,82,77.09,76.38s-5.27-11.32-7.83-17c-1.35-3-2.64-6-4.05-9-1.26-2.65-2.67-5.22-3.95-7.85-2.19-4.5-4-9.19-6.46-13.57-2-3.6-3.56-7.31-5.94-10.68-.49-.7-1-1.44-1.54-2.09A6.68,6.68,0,0,0,46,14.85c-.9-.58-2.17.31-3.12.74A3.73,3.73,0,0,0,40.38,18c-.66,1.8-.68,3.74-1.1,5.58-.19.84-.59,1.53-.79,2.35C38.23,27,38,28,37.7,29Z"/><path class="cls-2" d="M230.32,46.29c3.5,3.92,6.73,8.09,10.58,11.63,4.11,3.79,7.07,8.87,10.21,13.36,2.49,3.56,5.13,7,7.76,10.38,2.39,3.06,4.3,7.29,7.32,9.73s7.08.22,10.32-.48c2.45-.53,5.35-.19,7.61-1.46,1.32-.75,1.28-2,2.24-2.85,1.25-1.15,3.64-1.22,5.18-2,4.12-2.18,7.26-.28,11.44-.39-1.68-.46-2.9-1.69-4.3-2.63-2-1.38-4-2.62-6-4.13C287.6,73.48,282.62,69.17,277.6,65,272.91,61,269,56.36,264.34,52.58c-5.16-4.17-10.28-8.79-15.06-13.31s-9.69-8.85-14.21-13.54c-3.19-3.31-6.72-6.51-9.8-9.9C221.49,11.7,217,8.45,212.68,5c-1.81-1.45-3.15-2.63-5.38-3.21-1.91-.49-4.15-.83-6.16-1.24A33.87,33.87,0,0,0,194.37,0c-1.69,0-4.34-.12-5.84.56-2.68,1.24-3,4.56-3.79,7.05-.93,2.91-2.9,5.45-4.39,8.11-3.66,6.56-6.3,13.61-8.94,20.62a560,560,0,0,0-18,58.49c-.77,3-1.44,6.11-1.92,9.17-.23,1.48-.29,2.95-.6,4.43a49.93,49.93,0,0,0-1,5.16,46.9,46.9,0,0,1-1.66,6.55c-1,3.82-2,7.72-3.3,11.45s-2,7.52-3.13,11.27c-.74,2.54-1.24,5.17-2.05,7.69s-1.47,5.37-2.17,8.05c-.34,1.28-.47,2.62-.84,3.87-.25.83-.77,2.2.08,2.89.32.25,1.12.17,1.54.23.68.1,1.41.16,2.07.25,2.56.35,5.11.78,7.68,1,.63,0,1.27.22,1.91.28.95.08,1.95,0,2.91,0,1.66,0,3.29.15,5,.14a22.28,22.28,0,0,1,3.25.28,12.4,12.4,0,0,0,1.65.13c.45,0,.82-.17,1.22-.16.16-1.34.23-2.67.4-4,.24-1.91.3-3.83.55-5.74.38-3,.74-6,1.12-9.05.53-4.13,1.32-8.23,2.06-12.34.84-4.71,1.4-9.5,2.51-14.16.68-2.85,1-5.76,1.61-8.63.42-2,.86-4,1.2-6,.83-4.94,1.53-9.79,3.19-14.54.6-1.73,1-3.5,1.61-5.22.53-1.45,1-2.91,1.58-4.34.69-1.82,1-3.78,1.76-5.55a35.4,35.4,0,0,0,1.61-4c1.21-3.91,2.61-7.76,3.95-11.63,2.23-6.43,4.67-12.75,6.32-19.24a34.14,34.14,0,0,1,3.29-8.65c1.19-2.15,2.72-7.5,5.43-8.14,2.9-.68,8.2,3.36,10.37,4.92a127,127,0,0,1,14.16,11.37C228,43.72,229.17,45,230.32,46.29Z"/><path class="cls-1" d="M33.92,130c-1.13,3.51.66,7.9-1.24,11.13-.62,1.05-1.79,1.61-2.2,2.78a2.51,2.51,0,0,0,1.69,3.23c1.63.43,3.82-1.29,5.22-.18.53.42.77,1.41,1.14,2a14.18,14.18,0,0,0,1.66,2c3.22,3.4,9.57,4.5,13.92,3.19a47.82,47.82,0,0,0,6.9-2.59c3.15-1.5,6-3.27,9.48-3.73a33.42,33.42,0,0,1,6.63-.39,21.19,21.19,0,0,1,5,1.09c1.79.56,3.62.88,5.33,1.58a26.36,26.36,0,0,0,2.72.92A26.05,26.05,0,0,1,93,152.45c1.34.54,3,.3,4.42.3,3.82,0,9.42-.69,10.76-5,.75-2.4,0-4.67-1.09-6.87-1.14-2.4-2.39-4.57-5-5.73a15.44,15.44,0,0,0-4.54-1.22c-1.21-.13-2.37-.45-3.57-.65s-2.55.3-3.81.28a36.83,36.83,0,0,1-9.59-1.17,41.36,41.36,0,0,1-4.52-1.24,8.52,8.52,0,0,1-2.8-2.2c-1.38-1.38-2.77-2.73-4.3-4-3.51-2.94-7.9-5.48-12.54-6.12a34.74,34.74,0,0,0-13.47,1c-2,.54-4.06,2.63-5.45,4.06a19.55,19.55,0,0,0-2.5,3A13.53,13.53,0,0,0,33.92,130Z"/><path class="cls-2" d="M26.79,153.09c-.63-.05-.65-.27-.82-.85a19.81,19.81,0,0,1-.49-2c-.37-2-.38-4-.67-6-.11-.79-.08-1.59-.21-2.37s-.33-1.55-.4-2.32-.32-1.63-.34-2.46a14,14,0,0,1,.1-2,4.8,4.8,0,0,1,.9-2.5c.47-.65,1-.64,1.81-.55a2,2,0,0,0,1.11-.09c.24-.2.31-.69.38-1,0-.13.06-.25.08-.39a1.84,1.84,0,0,1,.06-.53c.05-.13.29-.13.41-.16a6.46,6.46,0,0,1,2.05-.19,1.72,1.72,0,0,1,.63.16,1.68,1.68,0,0,1,.4.3,3.12,3.12,0,0,1,.55.54c.12.16.19.34.31.49a1,1,0,0,0,.5.36,9.81,9.81,0,0,0,1.33,0A.58.58,0,0,1,35,132c.1.24.15.49.26.73s.06.15.2.15.25,0,.38,0a1.22,1.22,0,0,1,.33,0c.11,0,.11.15.14.26a5.76,5.76,0,0,1,.26,1.3c0,.47.09.94.14,1.4a1.56,1.56,0,0,1,0,.43.82.82,0,0,1-.2.26,1.3,1.3,0,0,1-.25.1.58.58,0,0,0-.14,0c-.08,0,0,0-.08.1s0,.19-.06.29a1.23,1.23,0,0,0-.08.53c0,.12.06.23.07.35,0,.4,0,.79,0,1.19,0,.8.14,1.59.21,2.39v0c.09,1.13.23,2.29.34,3.39.18,1.79.41,3.59.51,5.38.06.95-.33.93-1.09,1.19s-1.21.66-1.87.86-1,.36-1.51.54a5.79,5.79,0,0,1-1.67.19A29.82,29.82,0,0,1,26.79,153.09Z"/><path class="cls-2" d="M25.82,143.51a19.58,19.58,0,0,0-.16-2.29,16.58,16.58,0,0,1-.22-2.11c0-.35.16-.93-.13-1.2a1,1,0,0,0-.73-.18c-.13,0-.32,0-.42.08a.89.89,0,0,0-.2.44,3.2,3.2,0,0,0-.1.42c0,.16,0,.23-.17.24a2.36,2.36,0,0,1-.46,0c-.32,0-.64-.09-1-.09a8.66,8.66,0,0,0-1.61,0c-.21,0-.41.13-.62.15s-.22.06-.31,0-.11-.21-.15-.3a2.4,2.4,0,0,0-.48-.94,1.19,1.19,0,0,0-.6-.2,5.18,5.18,0,0,0-1.36.06c-.7.1-1.27,0-1.34.76s0,1.86,0,2.78a28.86,28.86,0,0,0,.24,3.83c.12.94.35,2,.46,2.91s.07,1.9.27,2.81a5.27,5.27,0,0,0,.14.6c.11,0,.23,0,.34,0a3.88,3.88,0,0,0,.59,0c.23,0,.46,0,.69,0a4.64,4.64,0,0,1,.65-.11c.07,0,.15,0,.2,0a1.18,1.18,0,0,0,.07-.2c.05-.13,0-.27.09-.4l.19-.34c.38,0,.8.17,1.2.22a12.2,12.2,0,0,0,1.71,0c.48,0,1,0,1.47,0a6.23,6.23,0,0,0,1.44.11A54.2,54.2,0,0,0,25.82,143.51Z"/><path class="cls-3" d="M20.56,139.65c0,.11.1.1,0,.22,1.12.92,1,2.74,1,4a10.45,10.45,0,0,1-.27,2.79,4.73,4.73,0,0,0-.44,2.12c.34-.35.84-.19,1.3-.25A19.62,19.62,0,0,0,22,146v-2.32a7.37,7.37,0,0,0-.28-2.3c-.15-.5-.44-1.63-1.06-1.74"/><path class="cls-3" d="M29.48,130.61a9.82,9.82,0,0,1,0,1.33c-.3,0-.69-.07-.93.13-.14-.86-.09-1.26.71-1.46"/><path class="cls-2" d="M43.82,132.28c-.08.06-.93-.16-1.18-.15a11.73,11.73,0,0,0-1.78.07c-.52.08-1,.21-1.55.24-.9.06-1.8.08-2.7.08-.35,0-1.07.13-1.38-.05.18.14.21.46.26.67a5.82,5.82,0,0,0,1.56-.07c.83-.12,1.69-.18,2.52-.25s1.6-.14,2.41-.14a4.66,4.66,0,0,0,1.67-.05c0,.29-.54.6-.77.82a2.54,2.54,0,0,1-1.23.74,12,12,0,0,0-1.58.75,8.78,8.78,0,0,1-1.07.42l-1.71.71c-.2.09-.84.52-1,.37a2.11,2.11,0,0,1-.08-.84,8.51,8.51,0,0,0,1.65-.23c.93-.3,1.86-.62,2.78-.94.77-.27,1.43-.73,2.16-1.05a4,4,0,0,0,1.16-.61.15.15,0,0,0-.13,0"/><path class="cls-3" d="M36.18,133.07c0,.1,0,.31,0,.41s0,.3,0,.44,0,.43,0,.65a8.29,8.29,0,0,0,.48,2.14,3.49,3.49,0,0,0,.47,1.1c.32.38.54.35.94.09a19.21,19.21,0,0,0,2.31-2c.69-.62,1.4-1.2,2.12-1.78a7.17,7.17,0,0,0,.75-.71c.13-.13.51-.57.36-.71a1.09,1.09,0,0,0-.59-.1c-.41,0-.84.06-1.26,0a11,11,0,0,0-2.22-.07c-.66.08-1.31.3-2,.38a10.1,10.1,0,0,1-1.23,0h.21"/><path class="cls-2" d="M37.13,133c.34.13.36.37.48.66a3.8,3.8,0,0,1,.21.82c.06.47.19.94.24,1.41a2.38,2.38,0,0,1-.05.8.76.76,0,0,1-.13.29c-.14.14-.2.08-.37,0a2.63,2.63,0,0,1-1-1.49,3.73,3.73,0,0,1-.29-1.51,1.38,1.38,0,0,1,.11-.61c.09-.18.21-.25.3,0"/><path class="cls-2" d="M44.68,128.35c-.32,0-.79.22-1.11.31a16.42,16.42,0,0,0-1.58.65c-1.06.41-2.07,1-3.14,1.34-1.25.42-2.49.95-3.67,1.39-.14-.55.35-.68.75-.88.56-.28,1.16-.52,1.75-.75,1.25-.47,2.44-1.07,3.69-1.53a10,10,0,0,0,1.52-.59,9.81,9.81,0,0,1,1.24-.73,1.42,1.42,0,0,1,1.38.49c.26.24.93.61,1,1-.77.16-1.64-.68-2.36-.38"/><path class="cls-2" d="M76.34,130.74l.26.2a3.62,3.62,0,0,0-1.17-1.64c-1.14-1.17-2.23-2.52-3.37-3.76a58.53,58.53,0,0,1-5.41-6.07c-1.37-1.93-2.3-3.53-4.34-4.89a21.86,21.86,0,0,0-6.77-3c-4.28-1.09-8.82-2.85-13.06-.84A26.11,26.11,0,0,1,36.71,113c-2,.43-4,.1-6.06.37-.54,1.6,2.63,3.21,3.62,4.22,1.19,1.22.95,3,1.16,4.51-1,.47-2.16.11-2.67,1.21a15.08,15.08,0,0,1,2,1.36c.85.66.51,1,1.82.46,1.71-.71,3.1-2,4.89-2.74a15.32,15.32,0,0,1,6.09-1.14,21,21,0,0,1,3.41.32,23,23,0,0,0,3.63.64,24.84,24.84,0,0,1-.89,8.79c-.37,1.68-.65,3.46-1,5.19-.13.7-.44,1.41-.62,2.13a15,15,0,0,1-.5,2.4,14,14,0,0,1,1.86.28c.43.12,1.36.6,1.79.32s1.07-2.87,1.25-3.55c.76-.12,1.57,0,2.34-.1.06-1.33.74-2.65.7-3.88,1.09.14,1.21-.86,1.84-1.49A6.17,6.17,0,0,1,63.82,131c2-.4,4.39.67,6.33,1S74,133.18,76,133.41c1.15.14,5.42.6,6.08-.17-1.49,0-5.26-1.67-6.08-2.81"/><path class="cls-1" d="M122.07,150.25A9.22,9.22,0,0,1,120,156c-2.33,3.32-5.44,6.28-8.2,9.25-3.89,4.2-7.58,8.63-11.57,12.73a49.32,49.32,0,0,1-7.69,5.9,35.2,35.2,0,0,1-6.76,3.36c-3.89,1.64-7.94,3.28-11.65,5.26-4.15,2.22-8.77,3.42-13.16,5-3.68,1.3-7.4,2.74-11.08,3.95-6.28,2.08-12.52,4.27-18.79,6.38a76.77,76.77,0,0,1-9,2.77,68.74,68.74,0,0,0-8.87,2.18c-2.93,1-7.3.8-10.28.06a3.94,3.94,0,0,1-2.59-1.36c-.63-.92-.26-1.75.11-2.7a42.1,42.1,0,0,1,2.73-5.3c.64-1.1,1.45-2.11,2.08-3.21A45.38,45.38,0,0,1,8,195.39c1.84-2.46,3.39-5,5-7.57a76.25,76.25,0,0,0,4.17-7.1c1.41-2.91,3.18-5.74,4.06-8.86.6-2.13,1.13-4.29,1.67-6.4.26-1,.51-2,.84-3,.6-1.75,1-2.68.06-4.35a8.16,8.16,0,0,0-1.32-1.77,5.92,5.92,0,0,0-3.31-1.29A6.55,6.55,0,0,1,15,153.46c-1.44-1.42-2.79-3-4.3-4.31-1.08-1-3.92-3.09-2.85-4.81a2.67,2.67,0,0,1,1.42-.93,6.72,6.72,0,0,1,1.48-.38c1.35.18.48,2.06.55,2.95a3.72,3.72,0,0,0,1.42,2.62c.49.44,1.6,1.82,2.22,1.77,0-.54.35-.86.18-1.45a7.22,7.22,0,0,0-.93-1.46,11.34,11.34,0,0,1-1.09-3.27c-.1-.39-.47-1.07-.3-1.52.11-.28.84-.74,1.07-.91.64-.46,1.66-1.51,2.54-1.26.11.61.27,1.3.36,1.85.13.8-.14.81-.57,1.38a4.48,4.48,0,0,0-.87,2.8A4,4,0,0,0,17,149c.68.59,1.37,1.67,2.25,2,1.15.38,1.28-1,1.4-1.89.34-2.33-.08-4.69-.08-7,0-.85,0-3.14,1.46-2.69,1,.3,1.2,2.57,1.3,3.32a23.86,23.86,0,0,1-.25,4.77c-.09,1.33-.18,3.05,1.19,3.79a2.46,2.46,0,0,0,1.5.19c.31-.07.63-.23,1-.31a9.06,9.06,0,0,0,1.09-.42,6.21,6.21,0,0,0,1.69-1.36,5.67,5.67,0,0,1,1.83-1.21c.41-.16,1.59-.41,1.75.19s-.4,1.29-.79,1.84-.79.85-1.11,1.35a4.13,4.13,0,0,0-.6,1.83,11.27,11.27,0,0,0-.06,1.16c0,.41-.08.8-.07,1.21,0,1-.14,1.94-.14,2.93a25.26,25.26,0,0,1-.61,5.88c-.32,1.39-.84,2.76-1.15,4.14a77.11,77.11,0,0,1-3,9.52,26,26,0,0,1-3,6.28c-1.56,2.13-3.06,4.4-4.41,6.68s-2.68,4.4-4.06,6.64c-.74,1.2-3.07,4.66-1.37,5.6s4.12.11,5.72-.4c4.43-1.41,8.62-2.34,13.07-3.86a56.36,56.36,0,0,0,8.26-3.19c2.9-1.52,5.94-3.3,8.68-5,3.89-2.47,7.39-5.66,11.41-7.9,6.38-3.55,12-8.24,18.28-11.89,2.94-1.7,5.86-3.51,8.74-5.37,1.09-.7,2-1.44,3.17-2.05,3.39-1.84,5.82-3,8.52-5.84,2.94-3.1,5.73-6.35,8.53-9.58a13.61,13.61,0,0,1,6-4.23c2.48-.83,6.63-1.91,8.6.46a7.38,7.38,0,0,1,0,8.83"/><path class="cls-4" d="M89.33,155.38c0,.11,0,.22,0,.33,0,1.49.09,3,.17,4.45.06,1.18-.18,2.78.35,3.84.71,1.43,3,1.77,4.2,2.57a13.91,13.91,0,0,1,4,4.1c1.7,2.5,3.1,7.13,5.93,4.18,1.48-1.53,3-3,4.62-4.52,1.37-1.3,2.37-2.93,3.65-4.27a12.56,12.56,0,0,1,5-3c5.41-2,11.62-3.79,17.35-3.74,6.76.06,13.52.24,20.28.24,8.34,0,16.69.08,25-.57,8.75-.69,17.82-1.25,26.41-3,13.07-2.72,27.09-5.39,38.91-11.94,3.72-2.06,6.95-4.93,10.55-7.2,1.72-1.08,16-10.11,16.51-9.58a7.62,7.62,0,0,1-1.16-1.67c-2-4.25-5.53-7.58-8.5-11.14-1.35-1.61-1.83-3.49-3.16-5.07-1.5-1.8-3.5-3.12-4.92-5-.66-.87-1.22-1.82-1.89-2.7a26.53,26.53,0,0,0-3.43-3.76,73.74,73.74,0,0,0-7.3-5.61c-2.81-2-5.53-4.3-8.84-5.37-2.79-.9-5.52-1.75-8.26-2.76-1.19-.45-.56-.56-2-.2a17.87,17.87,0,0,0-3.08,1.57c-1.92,1-3.85,2-5.84,2.82-4.35,1.88-9,3.65-13.23,5.8C189,99.94,177.26,106.46,165,110.41c-11.36,3.67-22.38,8.85-34,11.67-6.9,1.66-13.59,3.93-20.75,3.35A37.92,37.92,0,0,0,98,126.53c-2,.49-3.92,1.15-5.85,1.83-.53.18-4.27,1.27-4.23,1.53.15,1,.47,2,.7,3a6.09,6.09,0,0,1,1.54.45,10,10,0,0,0,1.65.13,20.64,20.64,0,0,1,3.77.85c1.38.4,2.84.48,4,1.42a8.49,8.49,0,0,1,2,3.31,33.47,33.47,0,0,1,1.29,3.64c.29,1.17.69,2.34-.07,3.46-.62.92-2.19,1.56-3.16,2a49.23,49.23,0,0,1-5.85,2.23c-1,.32-2,.73-3,1.05a5.14,5.14,0,0,1-1.47.34c.06.49-.16,1.09-.16,1.65S89.3,154.73,89.33,155.38Z"/><path class="cls-3" d="M93.1,150.66c-.75.27-1.5.56-2.27.8a5.14,5.14,0,0,1-1.47.34,1.6,1.6,0,0,1,0,.31c1.35-.07,2.71-.07,4.07,0C93.29,151.63,93.26,151.13,93.1,150.66Z"/><path class="cls-3" d="M100.41,152.44v0a3.81,3.81,0,0,1-.21-.82c-.16-.65-.29-1.3-.43-2-.1-.46-.19-.91-.29-1.37-.93.42-1.89.82-2.86,1.18l.27,1.58a6.82,6.82,0,0,1,.13.89.06.06,0,0,1,0,.06v.33s0,0,0,0c1.08.11,2.16.24,3.23.39l.37.06C100.52,152.68,100.46,152.56,100.41,152.44Z"/><path class="cls-3" d="M93.75,133.83c-.2-1.9-1.06-3.65-1.56-5.47-.31.1-1.58.48-2.65.84a26.34,26.34,0,0,0,.92,4.21c.46.07.91,0,1.39.08a14.61,14.61,0,0,1,1.9.34Z"/><path class="cls-3" d="M104,153.35l1.43.22s0-.1.08-.14l0,0s0,0,0,0a.53.53,0,0,0,.11-.21c0-.09.13-.1.15,0a10.5,10.5,0,0,0,.83-4.74,35,35,0,0,0-.71-6.77,44.23,44.23,0,0,0-2.52-8.56,20.34,20.34,0,0,0-1.67-3.29,6.7,6.7,0,0,0-1.7-1.93c-.37,0-.8-.51-1-.73s-.45-.43-.67-.65l-.27.06c-1,.25-2,.54-3,.85a11.82,11.82,0,0,1,2.71,4.2A26.06,26.06,0,0,1,99,135.34a4.5,4.5,0,0,1,.65.42,8.49,8.49,0,0,1,2,3.31,33.47,33.47,0,0,1,1.29,3.64c.29,1.17.69,2.34-.07,3.46a2.87,2.87,0,0,1-.54.57q.28.62.54,1.23A12.64,12.64,0,0,1,104,153a.61.61,0,0,1,0,.3Z"/><path class="cls-3" d="M111.93,150.63c-.21-8.68-1.22-17.51-5.3-25.29a37.59,37.59,0,0,0-5.89.61l.1.08a.07.07,0,0,1,.09-.09,4,4,0,0,1,1,.72,13.84,13.84,0,0,1,1.07,1,13.4,13.4,0,0,1,1.81,2.37,26.7,26.7,0,0,1,2.34,5.27c.66,2,1.3,4,1.79,6a56.14,56.14,0,0,1,1.16,6.94c.12,1.19.21,2.37.28,3.56a32.68,32.68,0,0,1,.16,3.43,10.94,10.94,0,0,1,1.3.82.08.08,0,0,1,.12,0C112,154.16,112,152.4,111.93,150.63Z"/><path class="cls-3" d="M120.17,153a85,85,0,0,0-.79-14.87,55.25,55.25,0,0,0-3.61-12.75c-.42,0-.85.08-1.28.1a.93.93,0,0,1,0,.13c.84,3.31,1.53,6.67,2,10,.35,2.38.63,4.77.82,7.17s.26,4.92.37,7.38.24,4.91.18,7.36c0,1.07-.07,2.14-.19,3.2a4.5,4.5,0,0,1-.66,2.24h0l0,.08.07,0c.82-.3,1.67-.59,2.53-.88C119.93,159.11,120.11,156.05,120.17,153Z"/><path class="cls-3" d="M131.84,146.32c-1.35-4.27-2.89-8.46-4.46-12.65-1.21-3.24-2.39-6.51-3.29-9.85-1.43.35-2.86.68-4.3,1,3.1,7.21,4.23,15.13,5.23,22.86.16,1.27.32,2.53.55,3.79.25,1.46.52,2.93.72,4.4a25.91,25.91,0,0,1,.32,4.4h0a36.31,36.31,0,0,1,7.93-.92l1.42,0C134.43,155,133.21,150.64,131.84,146.32Z"/><path class="cls-3" d="M182.36,154a192.85,192.85,0,0,1-15.2-20.43c-4.25-6.55-8.24-13.43-13.76-19-3,1.12-5.94,2.26-8.93,3.34q2.88,4.55,5.57,9.2c3.94,6.74,7.72,13.58,11.76,20.27,2.49,4.11,5.08,8.17,7.86,12.09,3.39-.07,6.77-.22,10.14-.48l6.53-.51Q184.3,156.26,182.36,154Z"/><path class="cls-3" d="M197.83,142.8a175.83,175.83,0,0,1-14.75-18.67,194.82,194.82,0,0,1-10.2-16.6c-2.6,1.06-5.23,2-7.88,2.88q-1.2.39-2.4.81,2.06,3.68,4.22,7.3a237.16,237.16,0,0,0,14,20.83,164,164,0,0,0,15.78,18.13c3.25-.39,6.48-.88,9.64-1.53l3.95-.82Q203.7,149.26,197.83,142.8Z"/><path class="cls-3" d="M216.88,138.61c-5.07-6.35-9.67-13.05-14.25-19.76a65.87,65.87,0,0,1-6.51-11.12A23.75,23.75,0,0,1,194,97.5c-3.53,1.81-7.08,3.62-10.66,5.35a53.72,53.72,0,0,0,7.19,10.8c2.69,3.29,5.53,6.46,8.3,9.69,3.1,3.62,6.21,7.23,9.4,10.77s6.44,7,9.81,10.42c2.42,2.41,4.91,4.76,7.42,7.08.86-.23,1.71-.47,2.56-.72A119.66,119.66,0,0,1,216.88,138.61Z"/><path class="cls-3" d="M271,125.56a29.21,29.21,0,0,0-4.12-6.07c-.9.93-2.45.89-3.68.67a24.84,24.84,0,0,1-6.66-2.46c-2-1-3.95-2.11-5.84-3.29-2.26-1.41-4.37-3-6.5-4.63a72.65,72.65,0,0,1-9.55-8.12,36.36,36.36,0,0,1-3.87-4.79,30.09,30.09,0,0,1-2.84-5,6.5,6.5,0,0,1-1.38-1.66,16.1,16.1,0,0,1-2-7.15c-1.68.79-3.29,1.62-4.89,2.44a8,8,0,0,0-.12,2A17.76,17.76,0,0,0,222.21,95a51.15,51.15,0,0,0,5.24,7.33,91.41,91.41,0,0,0,6.52,7,106.82,106.82,0,0,0,18.71,14.57,65,65,0,0,0,13.56,6.48c3.11-1.84,5.73-3.29,5.94-3.07A7.62,7.62,0,0,1,271,125.56Z"/><path class="cls-3" d="M245.48,133.69A96.31,96.31,0,0,1,227.69,119a69.06,69.06,0,0,1-12.26-16.89c-1.91-3.9-3.22-9.28-1.83-13.62-3.26,1.4-6.65,2.74-9.94,4.24a8.54,8.54,0,0,0,.41,3,27.06,27.06,0,0,0,1.69,4.32c.57,1.22,1.21,2.42,1.86,3.6s1.41,2.66,2.11,4a199,199,0,0,0,11.88,19.72,118.21,118.21,0,0,0,15.19,18.14c.61.59,1.23,1.16,1.86,1.73a66.29,66.29,0,0,0,6.46-3.13,96,96,0,0,0,8.43-5.78A77.68,77.68,0,0,1,245.48,133.69Z"/><path class="cls-3" d="M155.27,152.36c-2.4-3.88-5-7.63-7.56-11.4a142,142,0,0,1-12-20.15c-1.56.46-3.13.88-4.71,1.27l-.61.15c.88,2,1.76,4,2.67,6,3.9,8.56,8.07,17,12.61,25.24q1.68,3.06,3.44,6.08c1.91,0,3.82,0,5.73,0h4.83C158.19,157.15,156.75,154.74,155.27,152.36Z"/><path class="cls-3" d="M107.15,160.12c-5.15-3.63-11.61-4.77-17.83-4.81a.15.15,0,0,1,0,.07c0,.11,0,.22,0,.33,0,.86,0,1.71.07,2.57a42.69,42.69,0,0,1,9.37,2.59,23.15,23.15,0,0,1,7.83,5.19,19.85,19.85,0,0,1,2.67,3.53c1-1.14,1.88-2.43,2.93-3.53l.23-.23A19.21,19.21,0,0,0,107.15,160.12Z"/><path class="cls-3" d="M101.08,167.48c-2.92-2.83-7.24-6.43-11.57-6.06a5.67,5.67,0,0,0,.35,2.58c.71,1.43,3,1.77,4.2,2.57a13.91,13.91,0,0,1,4,4.1c1.7,2.5,3.1,7.13,5.93,4.18.66-.68,1.33-1.35,2-2A66.84,66.84,0,0,0,101.08,167.48Z"/><path class="cls-1" d="M271.69,115.24a14.22,14.22,0,0,0-2.76,1.8,9.89,9.89,0,0,1-1.31,1,9.63,9.63,0,0,0-1.11.46,10,10,0,0,0-1.13.93,2.78,2.78,0,0,1-1.12.77,3.36,3.36,0,0,1-1.25-.16,8.55,8.55,0,0,1-1.67-.27,17.12,17.12,0,0,1-1.7-.74c-.52-.23-1.09-.45-1.6-.69-2-.94-3.91-2-5.86-3-.46-.25-.94-.46-1.37-.75s-.73-.56-1.07-.83c-.84-.68-1.68-1.26-2.57-1.86-2-1.36-3.94-2.77-5.93-4.19-1-.69-2-1.25-2.9-2a10.38,10.38,0,0,1-1.18-1c-.22-.22-.77-.62-.81-.91A15.7,15.7,0,0,0,239,102a16.55,16.55,0,0,1,1.85-1.39,4.5,4.5,0,0,0,.79-.48c.27-.25.51-.51.8-.75.67-.54,1.38-1,2.07-1.57.33-.25.61-.56.95-.8s.81-.44,1.2-.68a31.32,31.32,0,0,1,5.52-2.77c.48-.17,1-.38,1.44-.58l1.95-.83c1-.45,2.12-.81,3.17-1.24.43-.17.86-.36,1.3-.55a76.74,76.74,0,0,1,9.05-3.13c4.82-1.44,11.08-4,14.48.65,2.84,3.87,3.55,9.14,2.84,13.79-.46,3-1.23,5.7-2,8.63-.62,2.47-.65,5-2,7.15.89-1.43-4.48-2.71-4.94-2.75A12.47,12.47,0,0,0,271.69,115.24Z"/><path class="cls-1" d="M129.36,175.36c-1.27,0-2.53,0-3.79,0-.37,0-.73-.09-1.09-.12s-.7.06-1,0-.48-.17-.73-.24a1.53,1.53,0,0,1-.76-.41c-.35-.38-.15-.84,0-1.28a1.19,1.19,0,0,0-.6-1.5c-1-.7-2.06.36-2.55,1.17a3,3,0,0,0-.42.71,1.78,1.78,0,0,0,0,.65c0,.24.07.47.1.7s0,.56.29.8a9,9,0,0,0,.93.48,1.8,1.8,0,0,1,.53.46c.22.41-.27.76-.63.84-1.33.29-2.79-1.53-4-.28-.37.39-.77,1.09-.14,1.41a5.64,5.64,0,0,0,2,.29c.6.06,1.45,0,1.69.75a.76.76,0,0,1-.84.94,9.61,9.61,0,0,1-1.55-.49,1.83,1.83,0,0,0-1.93.45c-.72,1,1,1.59,1.63,1.74.36.07.7.08,1.06.12a1.45,1.45,0,0,1,.74.25c.4.39-.43.83-.74.89a2.68,2.68,0,0,1-1.28-.2c-.33-.13-.62-.3-.94-.46s-.51-.33-.8-.44a5.13,5.13,0,0,0-2.27-.26,3,3,0,0,0-2.23.84,3.41,3.41,0,0,0-.42,2.31,2.49,2.49,0,0,0,1.5,2.24,8,8,0,0,0,3.85.75,15.05,15.05,0,0,0,4-.34c.44-.12.89-.2,1.32-.33s.65-.26,1-.39c.69-.28,1.36-.56,2-.87s1.07-.52,1.6-.79a6.83,6.83,0,0,1,1.26-.48,9.11,9.11,0,0,1,1.36-.37,16.65,16.65,0,0,1,1.73,0,11.82,11.82,0,0,0,1.18-.13,4.09,4.09,0,0,1,1.56,0,4.81,4.81,0,0,0,1.65,0,21.09,21.09,0,0,1,4.49.14c1.25.15,2.49.32,3.72.56a36.13,36.13,0,0,1,5.67,1.29c.78.29,1.58.49,2.37.74a10.6,10.6,0,0,0,3.31.47c.35,0,.69,0,1-.05s.92,0,1.37,0a10.63,10.63,0,0,0,1.78-.27l.18-.07a6.17,6.17,0,0,0,3.86-4.88c.77-4.28-2.4-4-3.95-7.09a4.43,4.43,0,0,1,.19-4.18,13.84,13.84,0,0,0,1.05-4.61c.06-.51.06-1,.14-1.5a6.13,6.13,0,0,0,.11-1.6,11.94,11.94,0,0,1-2-.39c-.95-.16-1.84-.37-2.77-.48-1.68-.2-3.45-.34-5.12-.55-.33,0-.49-.23-.78.06a4.74,4.74,0,0,0-.42,1.14c-.51,2.16-.63,4.82-1.81,6.75a7.79,7.79,0,0,1-1.44,1.54,18,18,0,0,1-2.8,2.37,5.87,5.87,0,0,1-1.78.73c-.65.14-1.31.25-2,.37s-1.49.22-2.22.28a17.23,17.23,0,0,1-1.76,0c-.38,0-.75-.12-1.14-.14C131.75,175.37,130.55,175.36,129.36,175.36Z"/><path class="cls-2" d="M274.88,113c.45.65-6.12,4.45-7.32,5.39-3.85,3-5.88,7.5-9.18,11-1.15,1.22-2.57,2.11-3.67,3.39-1.77,2-2.85,4.64-4.4,6.86a86.89,86.89,0,0,1-12,14.42c-5.49,5-10.44,10.34-16,15.21-6.29,5.5-12.53,11.66-19.41,16.53-6.07,4.31-13,8.81-18.09,14-3,3-7.2,6.13-9.05,10.27a11.58,11.58,0,0,0-.21,10.06,9.94,9.94,0,0,0,5.87,5.83c2.44.71,5.41-.17,8,0,8.44.76,17,1.63,25.45,2.61,6.24.72,12.8,0,19,.57,8.87.78,18,.37,26.87,1.26s17.93.57,26.83,1.57l6.25.71c1.66.19,3.82.46,5.28-.45,2.35-1.46,4-5.08,4.22-7.68a63.2,63.2,0,0,0-.07-13.19c-1.26-.31-2.46.26-3.69.38a35.27,35.27,0,0,1-4.93,0c-2.76-.09-5.46-.84-8.23-.91-3.47-.09-6.9-.66-10.39-.93-5.8-.44-11.81,0-17.63,0-18.26,0-36.36-2.85-54.61-2.26,1.69-1.55,4-2.49,5.93-3.71a88.17,88.17,0,0,1,9.41-4.87,98.9,98.9,0,0,0,11.24-6.19c3.79-2.44,7.63-4.9,11.21-7.67,10.47-8.08,22-15.6,30.66-25.63,3.65-4.22,8.32-7.29,12-11.39,3.82-4.3,8.28-7.88,12.27-11.92,2.08-2.1,4.32-3.94,6.51-5.94a57.34,57.34,0,0,0,6.45-7.73,95.93,95.93,0,0,0,7.29-10.58c5.75-10-2.51-27.45-12.93-31.65-5.5-2.22-11-1.69-16.93-1.73-2.49,0-4.22,1.25-6.48,2.16-2.46,1-6.36,2.11-9,2-.29,2.52.78,4.57,1.32,6.77.59,2.46,1.18,4.94,1.81,7.34.58,2.21,3.27,15.68.46,16.47"/><path class="cls-1" d="M294.51,222.45c-.41-1.49-1.39-2.94-1.37-4.51a17.68,17.68,0,0,1,3.66-.31l3.78.1a22.86,22.86,0,0,0,6.91-1.11c5.28-1.47,10.25-3.08,15.72-3.61,4.43-.42,4.61-5.46,8-7.68,3.87-2.53,6.27-1.06,7,2.87.57,2.89,1.46,5.23,4.29,6.49,3,1.34,6.21,2.29,9.09,3.83,2.41,1.28,5.1,2.08,7.55,3.35a8.22,8.22,0,0,1,2.64,2,18.53,18.53,0,0,1,1,1.69,4,4,0,0,1,0,.77c0,.4.19.77.25,1.16a11.1,11.1,0,0,0,.38,2c.25.73.78,1.32,1.1,2A4.92,4.92,0,0,1,365,234c-.18,1.5-1.88,2.45-3.2,2.62s-3.2.37-3.71-1.27a2.26,2.26,0,0,1,.36-2.26c.24-.35.93-1.39.23-1.62a4,4,0,0,0-.49,0c-.12,0-.28-.11-.44-.07-.42.11-.38.42-.42.76a12.26,12.26,0,0,1-.27,2.19,3,3,0,0,1-1.18,1.83,3.22,3.22,0,0,1-2-.06,1.2,1.2,0,0,1-1-1.44c.18-.61,1-.85,1.11-1.5a.77.77,0,0,0-.41-.79,2.41,2.41,0,0,0-.86-.4c-.5,0-.72,1.36-.82,1.78a2.63,2.63,0,0,1-1.41,1.76c-.35.16-.75.2-1.12.34a4.64,4.64,0,0,1-1.61.25c-.86,0-2.18-.37-2-1.43.1-.71.95-1.23,1.52-1.54s1.35-.61,1.34-1.41a2.34,2.34,0,0,0-1-1.75c-.5-.39-.63-.24-.94.24a5.63,5.63,0,0,1-1.07,1.26c-.64.48-2.3,1.17-2.45-.09-.13-1.06,1.34-1,1.18-1.93-.12-.76-1-1.29-1.61-1.63a14,14,0,0,1-1.66-1.09,13.77,13.77,0,0,0-4.25-2.74c-2.64-.84-5.57.46-8.25.69-6.38.53-12.7,1.47-19.07,2-2.72.21-5.27.21-7.84.3-2.26.07-4.53,1.27-6.79.51C294.73,225.72,295,224.2,294.51,222.45Z"/></g></g></svg>