<svg xmlns="http://www.w3.org/2000/svg" viewBox="0 0 187.56 409.22"><defs><style>.cls-1{fill:#1d1d1b;}.cls-2{fill:#e30613;}.cls-3{fill:#007293;}.cls-4,.cls-7{fill:none;stroke:#080000;stroke-linecap:round;stroke-linejoin:round;}.cls-4{stroke-width:1.04px;}.cls-5{fill:#fff;}.cls-6{fill:#080000;}.cls-7{stroke-width:0.97px;}</style></defs><g id="Ebene_2" data-name="Ebene 2"><g id="Ebene_1-2" data-name="Ebene 1"><path class="cls-1" d="M133.49,344.47a41.61,41.61,0,0,0,4.85-.17c.92-.08,3.11-.45,3.82.13.55.45.69,3,.84,3.73s.12,1.51.21,2.26c.07.5.61,1.57.5,2-.14.57-3.12,1.67-3.75,2.05-1.14.68-2.58,2-3.81,2.42-.28,1,1,2.36,1.4,3.26a35.66,35.66,0,0,0,2.54,4.91c1.75,2.86,3.59,5.31,3.9,8.71a51.37,51.37,0,0,1-.25,9.45,20.42,20.42,0,0,1-1.45,5.7c-.83,2.12-1.51,4.43-2.47,6.48-.65,1.39-2.07,2.35-3.12,3.42-1.45,1.48-2.43,1.69-4.18,2.39-2.41,1-4.69,2.48-7.36,2.71-1.9.17-3.73-.47-5.64-.32-2.54.18-5.71.17-7.94-1.32a3.67,3.67,0,0,1-1.48-2.89c-.17-1.16-.69-2.41-.84-3.47-.23-1.65.35-1.6,1.75-2a34.89,34.89,0,0,0,4.12-1.82c2.2-1,4.49-1.84,6.65-2.91s3.92-1.49,5-4a15.4,15.4,0,0,0,.77-6.94,57,57,0,0,0-1.25-7.24c-.47-2.54-.71-5.16-1.29-7.66-.86-3.75-.5-7.59-1.16-11.34-.37-2.07-1.4-4.08.85-5.25A19.91,19.91,0,0,1,133.49,344.47Z"/><path class="cls-1" d="M34.93,385.44a31.65,31.65,0,0,1,6.32-1.8c1.29-.31,2.71-.52,3.91-.94,1-.36,2.81-1.45,3.85-1.19.06,1.81,1,3.67,1.14,5.56a48.67,48.67,0,0,0,1.52,6.8c.41,1.73.38,3.55.77,5.29.21.94.65,1.83.85,2.79a8,8,0,0,1,.44,2.19c-1.64.36-3.41.16-5.06.51s-3,1.76-4.67,1.55c-.08-1.11-1-2.05-1.54-2.95-.75-1.21-.84-2-2.25-1.15a10.37,10.37,0,0,0-3,2.21,20.07,20.07,0,0,1-2,2.77c-1.67,1.65-4.63.78-6.81.66a36.18,36.18,0,0,0-8.51.57c-5.09,1-10.15,1.53-14.9-.36C.42,406.15-.71,400.2.39,396.08s4.11-5.27,8.13-4.76c2,.25,4.05.18,6.06.55a22.8,22.8,0,0,1,5.33,2c1.51.72,2.75,1.91,4.48,1.95a7.92,7.92,0,0,0,5.36-1.58,5.42,5.42,0,0,0,2-5C31.26,386.61,32.8,386.44,34.93,385.44Z"/><path class="cls-2" d="M43.81,254.88c.53.42,1.15.15,1.77.12,1.59-.1,3.14,0,4.74-.16,7.89-.76,15.83-.58,23.75-.89s16.1-1.72,24.13-1.86c2.75-.05,5.43.13,8.17.31a18.94,18.94,0,0,0,4.32.14,17.65,17.65,0,0,0-2.83,4.57A10.07,10.07,0,0,0,107,261c-.22,3.19-1,6.32-1.39,9.49-1,7.82-.75,15.69-.92,23.55a169.25,169.25,0,0,0,.43,19.64l1.14,12a66.82,66.82,0,0,0,2.36,12.11,22.17,22.17,0,0,0,1.33,3.54c.27.56.58,1.81,1.19,2.11.85.42,2.33-.54,3.21-.54s1.94,0,2.93.06c.59,2.55,1.07,5,1.9,7.51a78,78,0,0,1,2.27,8.65c.39,1.9,0,4.12.53,6a16.34,16.34,0,0,0,1.13,2.14c.7,1.36.39,1.41-1,2-2.43,1.08-5.13.75-7.63,1.72a44.08,44.08,0,0,1-8.85,2.2c-2.35.39-4.65,1.09-7,1.53-1.86.34-3.59,1.12-5.58,1.06A54.74,54.74,0,0,0,90.29,366c-2.13-6.31-4.55-12.46-6-19-1.59-7.31-5.08-14.14-8.36-20.76a19.23,19.23,0,0,1-6.15-1.4c-1.33-.5-2.75-.83-4.1-1.34-1.72-.65-1.82-.56-2.73,1.06a86,86,0,0,0-6.32,14A47.56,47.56,0,0,0,55,345.81c-.72,4.08-2,8-2.57,12.12-.47,3.34-1.77,6.47-2.8,9.65A76.12,76.12,0,0,0,48,375.11c-.29,1.28-.44,2.64-.73,3.83-.18.74.17.55-.43,1.12s-1.78.53-2.56.6c-4.44.4-8.87.84-13.3,1.26-2.58.25-5.17.41-7.74.73-.9.11-3.15.28-3.86.84-.29-6.13-1.15-12.23-1.45-18.35-.5-10.35-.32-20.75.21-31.11.23-4.43.92-8.82,1.18-13.23.19-3-1.35-6.7.29-9.51,1.15-2,2.81-3.19,3.76-5.34,1.16-2.64,2.64-5.22,4-7.76,3.06-5.67,6.33-11.22,9.09-17.05A57,57,0,0,0,39,274.77c.61-1.81,1.62-3.48,2.15-5.33.66-2.36,1.34-4.75,1.91-7.06.47-1.92,1.51-4.79,1.14-6.71,0-.21,0-.2,0,0"/><path d="M40.27,135.93c1.27-2.92,7-7.5,10.14-10,1.07-.84,2.05-1.88,3.12-2.69,1.33-1,2.58-1.15,3.81-1.86,1.76-1,3.24-2.73,5-3.81s3.72-1.93,5.67-3c2.49-1.35,3.18-3.53,5.23-5.07,1.82-1.37,4.61-.63,6.75-1.42a27.48,27.48,0,0,0,6.4-2.94c-1,3.47,3.73,6.86,5.8,9.1,2.82,3.07,5.41,6.52,8.21,9.51,1.37,1.46,2.83,2.38,4.09,3.9,1.63,2,3.28,4.08,4.75,6.16,1.14,1.6,2.7,2.95,3.79,4.57,1.45,2.17,1.13,4.33,1.11,6.94,0,6.14,2,12.49,2.49,18.75.73,8.55,1.3,16.93,1.3,25.56v23.94c0,2.48-.78,5.09-.63,7.39.34-1.35-.41-2.51-.65-3.72-.37-1.83-.36-3.7-.6-5.56-.54-4.25-1.25-8.77-2-13-.52-2.73-1.37-9.14-3.94-10.76-3.35-2.11-4.62,1.91-4.77,4.43-.53,8.9,0,18,0,26.9a80,80,0,0,0,2.53,19.78c1.36,5.52,4.46,11.79,3.68,17.4-3,1.43-7.21.81-10.49,1.51-3.55.76-7.58,2.5-11.37,2.88-3.59.36-7.25-.12-10.86.13-3.31.22-6.3,1.48-9.49,1.94-4.24.6-9-.55-13.25-.83a33.53,33.53,0,0,1-7.58-1.18c-3.35-1-6.68-2.31-10-3.42-4.43-1.47-1.92-3.23-1.38-6.61.31-1.93,0-3.79.46-5.68.51-2.28.89-4.67,1.41-7,1.69-7.5,2.51-15.27,4.54-22.73a42.09,42.09,0,0,0,1.77-12,113,113,0,0,0-.66-13.23c-.32-2.75.3-2.54-1.88-3.77-4.13-2.33-4.64-2.08-4.82-7-.16-4.18-.22-8.36-.22-12.54V143.51"/><polygon class="cls-2" points="61.01 108.23 61.01 129.21 73 119.62 89.78 129.21 95.78 111.83 73.6 116.62 61.01 108.23"/><path class="cls-3" d="M156.7,33.14a8,8,0,1,1-8-8A8,8,0,0,1,156.7,33.14Z"/><path class="cls-2" d="M94.79,8a8,8,0,1,1-8-8A8,8,0,0,1,94.79,8Z"/><path class="cls-3" d="M46.31,28.38a8,8,0,1,1-8-8A8,8,0,0,1,46.31,28.38Z"/><path class="cls-2" d="M169.08,100.22a8,8,0,1,1-8-8A8,8,0,0,1,169.08,100.22Z"/><path class="cls-3" d="M161.07,158.76a8,8,0,1,1-8-8A8,8,0,0,1,161.07,158.76Z"/><polygon class="cls-3" points="86.92 111.26 76.6 87.33 98.12 83.33 100.68 64.34 92.79 48 57.45 49.21 57.24 69.81 73.21 104.21 71.13 113.07 86.92 111.26"/><path class="cls-2" d="M90.33,67.13a3.29,3.29,0,1,0,3.26-2.87A3.08,3.08,0,0,0,90.33,67.13Z"/><path class="cls-2" d="M68.6,73.53a3.29,3.29,0,1,0,3.26-2.87A3.09,3.09,0,0,0,68.6,73.53Z"/><path class="cls-4" d="M71.6,61.47v4.27"/><path class="cls-5" d="M88.4,45.53,82.29,35.39,71.73,33.14l-7.76,2c-.51-.58-1-1.34-1.81-1.56a1.44,1.44,0,0,0-1.64.73.54.54,0,0,0,0,.35,1.52,1.52,0,0,0,.27,1.43,3.57,3.57,0,0,0,.68.6L54.23,42.2l-2.72,7.08,4.11,7.3L50.3,60.86l6.94,9V63.27l6.54-7.51,21.56-6.54L95,52.08l1.14-7.9Z"/><path class="cls-6" d="M86.94,78.26c1.21,1.12,3.17-1,3.79-1.9"/><path class="cls-7" d="M86.78,58c.55.65.94,1.42,1.43,2.11.32.47.6,1.37,1.12,1.62"/><path class="cls-2" d="M36,100.22a8,8,0,1,1-8-8A8,8,0,0,1,36,100.22Z"/><path class="cls-5" d="M80.76,137a4.45,4.45,0,1,1-4.45-4.45A4.46,4.46,0,0,1,80.76,137Z"/><path class="cls-5" d="M83.76,156a5.22,5.22,0,1,1-5.21-5.21A5.22,5.22,0,0,1,83.76,156Z"/><path class="cls-5" d="M83.11,177.41a5.22,5.22,0,1,1-5.22-5.21A5.22,5.22,0,0,1,83.11,177.41Z"/><path class="cls-5" d="M84.28,197.64a5.22,5.22,0,1,1-5.22-5.21A5.22,5.22,0,0,1,84.28,197.64Z"/><path class="cls-5" d="M84.28,221.52a5.22,5.22,0,1,1-5.22-5.21A5.22,5.22,0,0,1,84.28,221.52Z"/><path class="cls-5" d="M86,242.54a5.22,5.22,0,1,1-5.22-5.21A5.22,5.22,0,0,1,86,242.54Z"/><polygon class="cls-5" points="45.86 128.21 51.01 125.49 55.85 265.85 49.49 265.24 45.86 128.21"/><polygon class="cls-5" points="103.04 123.9 108.18 127.83 100.62 260.63 96.08 261.24 103.04 123.9"/><polygon class="cls-3" points="21.68 186 17.18 200.4 43.79 221.48 38.71 242.31 46.5 257.49 51.3 257.9 47.36 247.84 56.97 260.65 60.91 258.7 53.63 249.04 56.39 249.08 65.23 258.47 66.73 256.36 58.79 246.28 68.78 253.69 70.75 252.02 59.66 234.99 61.57 227.89 62.91 230.25 67.77 230.95 63.01 219.77 54.92 212.37 38.38 203.32 21.68 186"/><path class="cls-3" d="M62.36,178a8,8,0,1,1-8-8A8,8,0,0,1,62.36,178Z"/><path class="cls-2" d="M37.27,137c.59,1.62-26.74,39.55-26.74,39.55v30.68H26.78l10.5-21.76L40,180.56l1.27-45.41Z"/><polygon class="cls-2" points="121.72 137.82 142.11 194.26 139.71 204.34 139.95 216.61 137.71 219.18 128.58 221 126.97 221.38 122 222.8 116.06 220.84 114.46 169.01 112.19 139 121.72 137.82"/><path class="cls-3" d="M123.54,211.92c0,.07,4.87,7.38,4.87,7.38l9.81-3.23,9.08-4.23,26.54,4.47,13.72-5.81L185,206.33l-15.48,2.75,15.06-6.58-3.94-3.32L169.1,204l-.53-1.15,12.21-7.19-4.82-.74-8.85,6.22-1.1-1.88,8.16-5.73-4.08-1.11-5.18,5.21-8.21-2-2.76-3.1.75-6.45-1.95-.9L148.89,190l-6,10.9-14.24,4.81S124,210.52,123.54,211.92Z"/><path class="cls-1" d="M88.4,45.53,82.29,35.39,71.73,33.14l-7.76,2c-.51-.58-1-1.34-1.81-1.56a1.44,1.44,0,0,0-1.64.73.54.54,0,0,0,0,.35,1.52,1.52,0,0,0,.27,1.43,3.57,3.57,0,0,0,.68.6L54.23,42.2l-2.72,7.08,4.11,7.3L50.3,60.86l6.94,9V63.27l6.54-7.51,21.56-6.54L95,52.08l1.14-7.9Z"/><path class="cls-1" d="M55.69,271.77A3.26,3.26,0,0,0,52.84,270a5.68,5.68,0,0,0-3.36,1.53,3.73,3.73,0,0,0-.88,3.37,4.43,4.43,0,0,0,1.18,2.29,5.6,5.6,0,0,0,1.7.83,4,4,0,0,0,3.89-.34,2.89,2.89,0,0,0,1.16-3.12A7.05,7.05,0,0,0,55.69,271.77Z"/><path class="cls-1" d="M98.84,267c0,.09,0,.09,0,0-1-1.63-3.44.24-4.12,1.31-1.34,2.13-.79,7.18,2.45,7.28,1.35,0,3-1.18,4-2a4.19,4.19,0,0,0,1.36-3.44A3.62,3.62,0,0,0,100.4,267c-.34-.2-1.76-.83-2-.44"/><path class="cls-3" d="M33.75,385.76c-.5.2-2.39-5.54-2.9-6.57,1.36-1.28,4.44-1.92,6.24-2.6a28,28,0,0,1,3.33-.84,5.15,5.15,0,0,1,2.54-.3A14.57,14.57,0,0,0,44,379.84c.36,1.05,1.46,3.35,1.13,4.38-3.46,1.45-6.78,2.66-10.56,2.66h.63"/><path class="cls-3" d="M117.47,351.31c.64.62.65,3.91.76,4.89a19.7,19.7,0,0,0,1.16,5.06c.85.22,1.07-.54,1.77-.7a12.59,12.59,0,0,1,2.53,0,39,39,0,0,0,4.84-.05c.75-3.56-2-7.49-2.23-11-1.72-.83-2.34.07-4,.32s-3.21.14-4.79.44c0,.23.06.32.34.28"/></g></g></svg>