<svg xmlns="http://www.w3.org/2000/svg" viewBox="0 0 123.37 311.99"><defs><style>.cls-1{fill:#007293;}.cls-2{fill:#e30613;}.cls-3{fill:#fff;}.cls-4{fill:#1d1d1b;}.cls-5{fill:none;stroke:#1d1d1b;stroke-linecap:round;stroke-linejoin:round;stroke-width:0.45px;}</style></defs><g id="Ebene_2" data-name="Ebene 2"><g id="Ebene_1-2" data-name="Ebene 1"><path class="cls-1" d="M83.61,16.31S80,9.81,76.19,12.18s-11.54,8.69-11.54,8.69.9,11.54,4.19,15.34,10.69,5.64,10.69,5.64l12.07-9-.89-6.14Z"/><path class="cls-2" d="M67.33,34.71c.26.27-7.25-9.07-10.41-14-3.31-5.1-7.64-10.49-5.35-14.55,1.85-3.27,9.42-1.86,15-.29s15.15,7.62,15.15,7.62S75.16,12.91,70,19.45C66.84,23.39,66.38,33.73,67.33,34.71Z"/><path class="cls-3" d="M65.92,33.15c-1.2-2-1.24-5.11-1.19-7.4a21.14,21.14,0,0,1,2.69-9.28c1.2-2.13,3.27-5,5.79-5.6,1.74-.4,3.3.41,5,.66-1.32-.68-3.49-2.57-5-2.66-1.92-.12-5.36,2.38-6.66,3.8C64.43,15,63.28,19,62.84,22c-.31,2.11-.93,5.17.07,7.21.43.85,1.26,1.57,1.74,2.39a6.37,6.37,0,0,0,1.56,2.1"/><path class="cls-1" d="M106.89,58.3a.75.75,0,0,1,.57.05c.32,1.26,1,2.29,1.3,3.6.55,2.18,1.11,4.28,1.65,6.49,1.39,5.65,3.09,11.35,4,17.08.49,2.92,1.28,5.68,2,8.55.93,3.63,2.15,7.17,3,10.82a93.61,93.61,0,0,0,3,11.29,10,10,0,0,1,1,4.61c-4.25,1.68-7.35,5.36-10.47,8.64-3.62,3.8-7.59,7-11.32,10.68-2.19,2.14-4.14,4.46-6.43,6.52a98.87,98.87,0,0,0-9.48,9.94c-.88,1.05-2,3.92-3.24,4.37-1.55-1.43-2.15-4.58-2.64-6.42-.67-2.51,1-3,2.48-4.79,1.12-1.36,2.27-2.61,3.47-3.93,1.35-1.48,2.2-3.46,3.45-5A73,73,0,0,1,95,134.35c2.42-2.39,4.25-5.09,6.52-7.54a38.53,38.53,0,0,1,9.33-7c1.27-.74,2.41-.79,2.17-2.42a23.51,23.51,0,0,0-1.39-4.12c-1.28-3.58-1.54-7.18-2.34-10.9-.63-3-1.28-6.69-3-9.26s-6.32-14.41-6.3-17.73-.37-6.83.7-10c1-2.92,3.07-3.84,5.3-5.56.18-.06.26,0,.22.27Z"/><path class="cls-1" d="M50.09,63.74c.07.55-.18.84-.72.84-1.86-1.45-5.3-1.74-7.64-2.34-2.58-.67-5.61-1.51-8.16-2.05-6.2-1.31-12.07-1.53-18.42-2.4C12,57.36,2.3,57.1.42,53.93S3,47.31,4.55,45.16C7.14,41.58,31.92,8.34,37.14,3.91,39.28,2.1,39.54.58,42.29.1s5.53.86,8,1.36,5.58.68,10.25,2.62c-.34,1.37-5,.2-8.32.73.81,1.43,2.13,2.72,1.5,4.56-1.68.38-3.09-1.22-4.24-2.06.27,2.52,2.83,2.81,2.52,5.37-3.92.31-5.71-8.33-9.34-4.5C41.43,9.45,20,38.36,18.1,40c-1.6,1.33-5.81,6.12-6.58,8,2.17.35,9.26-1.52,11.46-1.35,2.44.2,10.52,0,13,0,5.68,0,14.66-3,18.2-1.79,4.84,1.69-5.76,6.11-3.94,10.54a21.47,21.47,0,0,1,2,7.64c0,1.43-1.41,6.16-3,3"/><path class="cls-1" d="M29.77,223.82c.33,9.39,22.48,66,22.48,66s2.91,4.4-2.51,7.45c-1.8,1-11.13,7.66-12.41,8.74-1.16,2.08,2.21,3.36,2.21,3.36l15.87-4.17,6.15-3.59,1.55-3-2.23-6.77-18.45-70Z"/><path class="cls-1" d="M73.2,226.44s-.81,26.1-.3,35.88,2.89,31.83,2.89,31.83l-1.59,7.06,1.45,3.58L91.18,311l8,1s2.18-3.42-1-5.68c-3.81-2.73-10.83-8.5-11.94-10.87-2-4.31-2.33-10.29-1.87-20.88.14-3.1.58-48.12.58-48.12Z"/><path class="cls-4" d="M95,51.1a21.2,21.2,0,0,0-3.21,1.47l-5.35,6.5L67.21,55.84a34.07,34.07,0,0,0-8-8.1,17.14,17.14,0,0,1-3.49-3.32c-.85.15-1.88-.54-2.68-.45a10.75,10.75,0,0,0-3.43.59c-2,.82-4.47,1-5.22,7.13L51,72.38,50.17,85l-4,59,1,10.88,32.11-.38.55-7.1,24-75.4,4.18-12.86c-.35-.43-.15-1.75-.52-2.16C104.37,53.51,100.3,51.89,95,51.1Z"/><path class="cls-1" d="M71.38,37.67c.37.51.23,1.69.26,2.32A23.23,23.23,0,0,1,71,46.47c-1.1,4.84-2.1,9.51-4.17,14,.89,0,.73,1.69,1.26,2.42,1.68,2.29,5.82,5.59,15-.64,1.43-3.39-.85-12.71-.85-12.71l1.42-12.14L77.51,38.8a30.39,30.39,0,0,1-5.28-.93Z"/><polygon class="cls-3" points="59.43 47.44 49.37 154.08 55.41 154.08 65.42 52.54 59.43 47.44"/><polygon class="cls-3" points="86.31 57.64 69.01 149.55 76.57 149.55 91.98 52.5 86.31 57.64"/><path class="cls-2" d="M43.32,143.5,81.85,145s7.56,19.64,8.32,27.95,1.51,22.67,1.51,25.69-2.27,6,.76,8.31,0,6.8,0,6.8L97,218.31l-9.83,4.53L69,221.33l-6.8-3.78,3-10.58-3.78-3L66,200.17l-6.8-17.38-7.48,20,2.94,6.31-5.43,2.5,2.41,2.22L50,215.65l-2.49,5.86-25.29-3.2L15.94,213l2.78-10.41L17.4,200l3.08-5-.29-3.23,5.43-4.4,2.19-7Z"/><path class="cls-4" d="M26.7,218.31l3,8.31H44.08v-8.31s-2-1.19-8-1.39S26.7,218.31,26.7,218.31Z"/><path class="cls-4" d="M72.89,220.67,72.13,229l14.35.76-.75-8.32A15.36,15.36,0,0,0,80,220,67.74,67.74,0,0,0,72.89,220.67Z"/><path class="cls-3" d="M55.15,149.47a2.56,2.56,0,1,1-2.56-2.55A2.56,2.56,0,0,1,55.15,149.47Z"/><path class="cls-3" d="M76.49,150a2.55,2.55,0,1,1-2.55-2.55A2.55,2.55,0,0,1,76.49,150Z"/><path class="cls-2" d="M73.75,58s-11.21,4.31-12.6,3.76,1.16-15,1.16-15l12,4.82Z"/><path class="cls-2" d="M78.54,58.13,79.89,53s11.2-8.14,11.18-6.14-.62,13.4-1.82,14.63S78.54,58.13,78.54,58.13Z"/><path class="cls-1" d="M80.65,54.66a3.9,3.9,0,1,1-3.9-3.89A3.91,3.91,0,0,1,80.65,54.66Z"/><path class="cls-2" d="M79.37,29.82a1.21,1.21,0,1,1-1.65-.13A1.17,1.17,0,0,1,79.37,29.82Z"/><path class="cls-2" d="M88,22.9a1.17,1.17,0,0,1,0,1.62,1.16,1.16,0,0,1-1.57-.37A1,1,0,1,1,88,22.9Z"/><path class="cls-2" d="M84.93,32.4s2.53-.71,3-1.44a7.75,7.75,0,0,0,.79-2.4s.06-.5-.09-.29A5,5,0,0,1,87.83,30a10.92,10.92,0,0,1-2,1.59c-.32.22-1.13.41-1,.6Z"/><path class="cls-1" d="M74.13,25.15a2,2,0,0,1,1.13-2.24,2.47,2.47,0,0,1,2.39.13,3.62,3.62,0,0,1-1.54,1.61A4.43,4.43,0,0,1,74.13,25.15Z"/><path class="cls-1" d="M81.13,19.69s-.71-1.27.13-1.92a1.74,1.74,0,0,1,1.64-.33s-.06.91-.37,1.18S81.13,19.69,81.13,19.69Z"/><path class="cls-4" d="M76.25,22.75a1,1,0,0,1-.16,1.45,1,1,0,1,1,.16-1.45Z"/><path class="cls-4" d="M82.19,17.47a.77.77,0,0,1-.12,1.08A.76.76,0,0,1,81,18.43a.77.77,0,0,1,.12-1.08A.76.76,0,0,1,82.19,17.47Z"/><path class="cls-5" d="M76.58,25a7,7,0,0,1,1.24,1.48"/><path class="cls-5" d="M82.55,19.11a6,6,0,0,1,1.18,1.23"/><path class="cls-5" d="M80.79,17.35c-.09-.38-.73-.77-1-1.06"/><path class="cls-5" d="M74.64,22.69c0-.3-.74-.93-1-1.12"/><path class="cls-2" d="M67.21,36.12c0-.78-.61-1.8-.71-2.75-.11-1.13,0-2.39,0-3.55a18.82,18.82,0,0,1,2.32-8.77,13.52,13.52,0,0,1,4-4.86c1.43-1.1,2.8-2.66,4.5-3.22,2.14-.69,4.81-.81,6.18,1.21-.2.33-.38.62-.56,1-.69-.33-.88-1-1.73-1.23a3.91,3.91,0,0,0-2.38.48A23.47,23.47,0,0,0,73.5,17a16.6,16.6,0,0,0-3.84,5.1,22.14,22.14,0,0,0-1.46,3.17,23.4,23.4,0,0,0-1,2.91,14.81,14.81,0,0,0,.68,6.54c.22.6,1.37,1.86.35,2.21s-1.66-1.12-1.36-1.89"/><path class="cls-1" d="M92.2,137.25c-1,1.13-2.07,2.29-3,3.52-1.25,1.57-2.1,3.55-3.45,5-1.2,1.32-2.35,2.57-3.47,3.93-1.48,1.8-3.15,2.28-2.48,4.79.49,1.84,1.09,5,2.64,6.42,1.23-.45,2.36-3.32,3.24-4.37A98.15,98.15,0,0,1,94.68,147Q93.56,142.12,92.2,137.25Z"/></g></g></svg>