<svg xmlns="http://www.w3.org/2000/svg" viewBox="0 0 448.82 391.65"><defs><style>.cls-1{fill:#007293;}.cls-2{fill:#1d1d1b;}.cls-3{fill:#e30613;}.cls-4{fill:#fff;}</style></defs><g id="Ebene_2" data-name="Ebene 2"><g id="Ebene_1-2" data-name="Ebene 1"><path class="cls-1" d="M72.63,166.74c-.92-9.6.77-22.34.47-33-.6-20.8,1.76-41.52,1.36-62.25-.19-10,1-19.86,1.53-29.78.48-8.05-.38-16.52-.38-24.68,0-3.4-.91-6.24,3.42-5.85,2.21.2,8.39.22,8.74,2.94.2,1.64-2.08,4.64-2.8,5.93-2,3.55-1.59,7-1.59,11.06,0,7.8,1.45,15,1.45,22.81,0,14-.76,27.92-.67,41.89.08,13.07-1.61,26.25-2.2,39.39-.66,14.42-.51,29-2.21,43.44-.39,3.34-1.12,9.24-5.9,7.26-7.53-3.11-2.53-15.92-3.24-21.21"/><path class="cls-2" d="M119.79,338.66c-3.68-.58-7.3-1.14-8.48-5.63-.79,3.43-3,6.15-4.73,9.05-1.34,2.2-3.48,3.62-5.12,5.62,1,1.26,2.64,2,4,3,2.12,1.5,2.09.71,4.12-.08-.5,2.14,2.25,3.89,3.78,4.85a83,83,0,0,0,8.39,4.18c4.8,2.26,10,1.55,15,.64a12.12,12.12,0,0,0,5.21-1.81c.86-.6,4-3.54,1.76-4.43-.39-.16-2.07.67-2.53.77-1.14.26-2.29.35-3.45.6a25.86,25.86,0,0,1-7.46.83c-4-.31-10.18-2.51-12.37-5.78-2.89-4.32,1.88-8.5,2.68-12.65"/><path class="cls-1" d="M124.79,327.84c-2.47,4.57-6.21,8.78-8.55,13.49-1.48.16-4.24-1.92-4.5-3.6-.29-1.94,2.62-5.31,3.6-6.81s2.32-5.46,4-5.93,4.81,2.46,5.52,3.73"/><path class="cls-2" d="M125.7,330.2a17.92,17.92,0,0,0,1.77-3.64c1.3-3.43,2.17-7.05,3.41-10.52,1.93-5.46,3.64-11,5.81-16.36,2.3-5.69,4.64-11.18,7.19-16.77,2.2-4.8,3.83-9.76,6-14.59,2.69-6.09,6.84-12.76,6.29-19.64-.18-2.15-.36-4.18-2.63-5-2.48-.9-5.85-.35-8.48-.26-10.35.34-18.46,7-28,10.7a47.35,47.35,0,0,0-6.68,3.62C103.16,261.88,85.21,266.39,92,278c2.89,4.94,5,5.16,9.49,2.37,5.29-3.27,10.35-6.91,15.67-10.14,5-3,10.09-5.86,15.09-8.86.8-.48,8-6.35,8.62-4.64,1.69,4.67-3.39,11.85-5.35,16a210.52,210.52,0,0,0-8.3,20.37c-2.21,6.32-3.85,12.62-6.64,18.78s-11.48,13.86-3.6,19c1.59,1,3.49,1.66,5.08,2.6,1.43.86,2.72,1.85,3.76.47.79-1,.75-4.65,1.92-4.77"/><path class="cls-2" d="M121.51,360.06c0,1.06-.06,2.29,0,3.38,1.7.94,4.66.92,6.55,1.1a40.74,40.74,0,0,0,6.81,0,18.06,18.06,0,0,0-.8-3.34,33.94,33.94,0,0,0-6.83-.84c-1.4-.11-4.77-1.09-5.78-.26"/><path class="cls-3" d="M106.85,355a.6.6,0,0,0-.21.14,10.75,10.75,0,0,0,2,.63c2.23.56,4.48,1.33,6.67,2.05.89.3,1.88.48,2.8.69,1.08.25,2.16.52,3.23.82.69.19,8.2,2.32,5.48,3.4-1.61.64-4-.38-5.57-.72-2.71-.57-5.4-1.19-8.09-1.94-1.18-.33-2.42-.62-3.57-1a18.49,18.49,0,0,1-2.21-.74c-.47-.22-.76-.61-1.29-.75"/><path class="cls-2" d="M68.44,318.19c-10-7.77-22.85-7.46-33.6-4.43-26.25,7.4-49.64,41.32-23.26,66.63,20,19.15,56.75,12.79,66.64-10.87C84.42,354.69,83.65,330,68.44,318.19ZM11.6,337.09c.77-1,1.58-1.94,2.4-2.87a49.81,49.81,0,0,1,14.79-11.66c2.73-1.4,5.53-3,8.65-3.2a67.87,67.87,0,0,1,15.65,1.14,26.93,26.93,0,0,1,16,9.08,31.75,31.75,0,0,1,5.53,9.95c1.23,3.71,1,7.19,1.17,10.94a29.3,29.3,0,0,1-1.28,8.83,61.07,61.07,0,0,1-3,8.37,36.17,36.17,0,0,1-4.52,7.66c-.65.84-1.36,1.6-2,2.42a28.92,28.92,0,0,1-2.24,2.8,32.3,32.3,0,0,1-4.26,2.86c-5.72,3.89-11.64,6-18.47,5.51A33.94,33.94,0,0,1,25.84,385c-3.31-1.88-7.47-4-10.15-6.74-7.13-7.3-10.23-18.46-9.61-28.55C6.37,345,8.7,340.83,11.6,337.09Z"/><path class="cls-3" d="M62,308.65l-1.39,2.69c-1.32,2.53-2.76,5-3.89,7.57s-2.24,5-3.28,7.58c-.84,2.05-1.59,4.16-2.52,6.17-.68,1.49-1.49,2.89-2,4.46-.39,1.16-.78,2.32-1.18,3.44s-.52,2.31-1,3.43-.92,1.89-1.27,2.9c-.23.63-.37,1.3-.59,1.92-.17.46-.55.94-.67,1.38-.39,1.39,1.28,1.05,2.22,1a27.14,27.14,0,0,1,3.93,0c4,.46,8.2,1,12.28,1.48,7.29.87,14.7,1.29,21.87,2.24,3,.4,6,.69,9.06,1.28,1.61.32,3.2.65,4.74,1a11.48,11.48,0,0,1,3.14.83,1.78,1.78,0,0,1,.17.49c0-.11-5.51-.61-6.1-.68-2.44-.25-5-.34-7.42-.43-1.64-.06-3.26-.21-4.9-.37-2-.19-4.1-.06-6.09-.3-3.22-.38-6.38-1-9.61-1.41-2-.25-3.92-.47-5.85-.74-1.28-.17-2.64-.44-3.93-.49-1.49-.06-3-.08-4.47-.18s-2.8-.48-4.19-.45a8.45,8.45,0,0,0-2.93.82c-1.43.59-1.6,1.38-2.51,2.48a8.68,8.68,0,0,1-1.36,1.13c-1.14.93-2.28,1.3-3.47.27-2.17-1.88-2.53-4.69.37-6a13.87,13.87,0,0,0,2.52-1.55c2-1.5,2.13-4.21,3-6.37,1.1-2.68,2.49-5.23,3.61-7.89,1.81-4.32,3.46-8.65,5.48-12.91,1.77-3.73,3.16-7.59,4.91-11.34,1.59-3.41,3-6.86,4.67-10.24,1.05-2.16,2.15-4.31,3.2-6.46.4-.83,1.11-1.36,1.49-2.16s.57-2.06.94-3c.25-.66.66-1.34,1-2,.44-.89,1.16-3,2.44-2.7.32,2.9-1.82,6.23-3.2,8.64-1,1.75-1.54,3.64-2.48,5.41C65.13,302.54,63.58,305.61,62,308.65Z"/><path class="cls-3" d="M172.3,289.71a106.56,106.56,0,0,1,9.84-8.3,25.65,25.65,0,0,0,2.28-2c.69-.61,2.12-1.61,3.08-1.05a1.85,1.85,0,0,1,.67,1.64,10.58,10.58,0,0,1-1,4.63c-.59,1.44-2.24,2.12-3.55,2.83-2.48,1.34-4.32,4.11-6.54,6.34-4.68,4.72-9.9,8-14.59,12.87-9.37,9.74-19.21,17.86-29.17,26.28-5.5,4.64-10.67,10.62-16.24,15.38-2.31,2-4.57,3.83-6.8,5.95-1.86,1.79-6,7.58-8.45,4.78.49-2.79,2.68-3.92,4.18-5.14A68.52,68.52,0,0,0,110.9,349q6.81-6.81,13.65-13.56c8.45-8.32,16.59-17.12,25.32-24.93C157.42,303.73,164.74,296.4,172.3,289.71Z"/><path class="cls-3" d="M83.3,303.65c1,2.35,1.9,4.75,3,7.08,1.37,2.92,2.64,5.78,3.8,8.79.49,1.26.94,2.54,1.45,3.81a16,16,0,0,0,1.13,2,20.3,20.3,0,0,1,1,3c1.43,4.3,3.43,8.39,4.89,12.69a63,63,0,0,0,2.81,7.41,44.68,44.68,0,0,1,2.88,8c-1.27-.14-2,1.18-3.2,1.18,0-2.4-1.12-4.62-1.62-6.93a66.64,66.64,0,0,0-3-10.09c-1.84-4.63-4.27-9-6.45-13.44-.83-1.7-.8-3.52-1.62-5.24-1-2.18-2.27-4.27-3.28-6.48-1.08-2.37-2.18-4.76-3.16-7.17-1.42-3.5-3.06-7-4.22-10.6a36.62,36.62,0,0,0-1.9-4.54c-.53-1.1-.77-2.3-1.29-3.39a22.5,22.5,0,0,1-1.78-4.55c-.15-.63-.33-1,0-1.52.17-.33.88-1.11,1.3-1s.62.9.76,1.22c1.12,2.49,2.23,5,3.28,7.52,1.22,3,2.17,6,3.64,8.88C82.29,301.37,82.81,302.5,83.3,303.65Z"/><path class="cls-3" d="M185.69,277.94c-.89,1.34-.23,2.66-1.69,3.52a10.45,10.45,0,0,1-3.51.7c-2.28.15-4.61.28-6.9.45-13.2,1-26.61,2.63-39.82,4.56a218.59,218.59,0,0,1-25,2.61c-3.76.1-7.52.44-11.33.7a45.27,45.27,0,0,1-5.8.22c-1.74-.12-1.77-.65-2.7-1.79,1.76-1.42,4.07-.85,6.36-1,7.59-.58,15.14-3.39,22.8-3.89,8-.52,16.29-1.47,24.42-2s16.6-1.42,24.75-2c3-.21,5.92-1,8.86-1.4,1.59-.23,6.84-.26,7.9-1.44"/><path class="cls-3" d="M204.23,346.51a5.13,5.13,0,0,1-1.74,2.29,4.08,4.08,0,0,1-5.45-.7c-1.58-1.84-.67-2.26.25-3.77,2.63-4.33-1.5-9.81-2.85-14.44-1.95-6.71-3.32-13.75-5.05-20.52-1.41-5.57-4.69-10.17-5.6-15.89q-.75-4.68-1.54-9.36c-.13-.78-.26-1.56-.4-2.33s-.57-1.59-.37-2.31a1.14,1.14,0,0,1,1.52-.76c.51.28.85,1,1.3,1.43a10.91,10.91,0,0,1,1.93,1.91c1.45,2.09.77,5.22,1.38,7.6,1,3.83,2,7.8,3.19,11.63,1.35,4.27,3,8.28,4.35,12.42a94.6,94.6,0,0,1,3.46,11.87c1,5.2,2.54,10.56,2.38,15.83C204.48,341.06,205.22,344.05,204.23,346.51Z"/><path class="cls-2" d="M161.23,357.17c4.52,11.08,17.51,19.43,29.24,19.89,6.33.25,12.33,1.87,18.7.57a33.25,33.25,0,0,0,8.68-3c2.53-1.27,5-2.45,7.55-3.52s3.91-3.29,5.78-5.56c3.21-3.87,6.53-7.58,8-12.46a36.72,36.72,0,0,0,1.55-12.17,33.15,33.15,0,0,0-.55-6c-.55-2.65-2.25-5.13-2.95-7.83a21.69,21.69,0,0,0-4.36-8.56A36.35,36.35,0,0,0,218.69,308c-.87-.35-1.82-.63-2.72-1a28.54,28.54,0,0,0-7-1.92,34.4,34.4,0,0,0-8.22.4c-3.69.44-7.65.53-11.28,1.34a40.1,40.1,0,0,0-6.57,2.08c-4.63,1.91-8.3,4.74-12.41,7.44-3,2-6.42,4.62-8,7.89-.67,1.41-1.16,2.94-1.72,4.36a37.35,37.35,0,0,0-2.21,12.23,35.15,35.15,0,0,0,.69,7.43c.53,2.73.71,5.45,1.67,8.1ZM165,346.09a16.73,16.73,0,0,1-.09-3.73c.18-1.31.25-2.67.51-4a39.82,39.82,0,0,1,2.11-8.44,38.54,38.54,0,0,1,5.36-8.81c1.5-1.88,3.33-3.89,5.61-4.83a71.48,71.48,0,0,1,19.05-5.39,45.81,45.81,0,0,1,13.53.38,38.78,38.78,0,0,1,11.25,4.48c2.87,1.6,5.83,3.13,7.6,5.9a36,36,0,0,1,3,6.43,34,34,0,0,1,1.61,8.39,28.42,28.42,0,0,1,.18,8.08,40.08,40.08,0,0,1-2.38,7.55c-2.43,6.15-6.66,11-12,15.09-4.93,3.85-11,5.1-16.64,7.45a14.77,14.77,0,0,1-3,1.08,32.62,32.62,0,0,1-6.72.69,30.52,30.52,0,0,1-16.55-5.31,24.55,24.55,0,0,1-8.2-9.26,52.94,52.94,0,0,1-3.66-10.13,30.9,30.9,0,0,1-.53-4.84C165,346.63,165,346.37,165,346.09Z"/><path class="cls-2" d="M67.21,273c2.43,1.18,4.13,3.58,6.88,4.13a19.17,19.17,0,0,0,5.71.07,29.15,29.15,0,0,0,6.54-1.78,5,5,0,0,1,2.24-.4c.93.08,1,.51,1.77.81.35,2.8-3.73,3.23-5.65,4.05a43.37,43.37,0,0,0-4.62,2c-1.84,1.09-3.42,2.48-5.33,3.45s-4,2.06-6.2,2a15.32,15.32,0,0,1-7.68-2.75c-2.88-2-4.88-6.9-2.36-10C60.5,272.08,64.57,271.74,67.21,273Z"/><path class="cls-2" d="M165.88,278.6c-4.88,1.88-11.51,5.11-8.18,11.33,4,7.41,13.49,7.71,20.72,5.36,5.74-1.87,10.7-5,10.49-11.32-.15-4.91-.62-9.79-1.14-14.67-.21-1.9.23-3.24-1.7-3.86-3.28-1.06-7-.17-10.18-1.57-1.55-.69-3.5-2.56-3.84-4.34a5.07,5.07,0,0,1,2-4.75,10.63,10.63,0,0,1,6.84-1.57c2.1.36,4.6,3.61,6.82,1.83,2.44-1.95-1.38-3.77-2.84-4.22-4.24-1.3-8.2-1.77-12.4,0s-6.38,8.59-3.74,12.44c3,4.37,9.77,4.47,14.38,4.69.58,4.71.8,9.42.94,14.27.06,2.19.52,4-.89,5.67s-5,2.74-7,3.26c-3.74,1-8.76,2.59-11.91-.5-4.57-4.45-.74-7.51,4-8.88.15-1.42-.77-3.06-1.44-2.74"/><path class="cls-2" d="M104.78,361.62c-2.75.23-5.84-2.6-5.3-5.48.36-1.85,3.46-4.15,5.26-3.22C107.62,354.41,109.45,361.23,104.78,361.62Z"/><path class="cls-3" d="M79,360.74c.68,1.17,3.33,1.64,4.55,1.83a6.12,6.12,0,0,0,1.8.24c.44-.18.39-1.14.45-1.62a6.73,6.73,0,0,0,.14-1.79,21.64,21.64,0,0,1-4.73-1.81c-.85-.43-1.66-.94-2.48-1.45-.36-.22-.76-.34-1.1-.56s-.48-.59-1-.42c.42.8.66,1.7,1.08,2.54S78.47,359.84,79,360.74Z"/><path class="cls-3" d="M80.54,358.19a20.33,20.33,0,0,0-.9,2.33,7.38,7.38,0,0,0-1-2.53c-.26-.57-.86-1.26-.81-1.89a7.41,7.41,0,0,1,1.28,1.07,5.92,5.92,0,0,0,1.33.72"/><path class="cls-3" d="M103.77,359.29c-.51.34-1.52-.16-2.06-.28-1.47-.31-2.95-.54-4.43-.77L89.71,357a36.41,36.41,0,0,1-3.77-.55,5.44,5.44,0,0,0-2.13-.38,10.32,10.32,0,0,1,0-1.84c.92-.28,2.37.35,3.3.48,2.89.4,5.7,1.43,8.64,1.41,1.59,0,3.19.24,4.77.29,1.11.05,2.24-.15,3.35-.1.06.67.2,1.95-.7,2.05"/><path class="cls-4" d="M103.18,354.9c3.23.45,3.37,5.89,0,4.9-2.84-.84-1.07-6.22,1-4.62"/><path class="cls-1" d="M89.52,165c-.26,1-.62,2.84-1.35,3.64s-1.66.74-2.66.8a8.65,8.65,0,0,1-6-2c-1.25-1-2.49-2.46-3.33-.36-.53,1.34.39,3.8-1.58,3.29a23.44,23.44,0,0,1-5.32-2.6c-.71-.4-1.36-.5-1.59-1.37s.24-2.24.25-3.16a64.59,64.59,0,0,0-.67-8.13c-.3-2.29-1.27-4.3-1.77-6.5-.89-3.9-1.58-10,1.23-13.35,1.35-1.61,4.36-2.24,6.31-2.6,3.46-.64,5.86.9,8.56,2.73,1.1.74,2.08,1,3,2.09A16,16,0,0,1,87.35,142a5,5,0,0,1,.27,2.4c-.05.32-.09.66-.17,1s-.19.49-.27.74a1.59,1.59,0,0,0-.08.71c.08.58,0,.81.4,1.24a4,4,0,0,0,1.14.76,2.54,2.54,0,0,0,2.63,0c.49-.42.44-1.12.94-1.49a1.35,1.35,0,0,1,1.77.26A2.06,2.06,0,0,1,92.54,151c-.65.13-1.26.06-1.73.63a2.71,2.71,0,0,0-.55,1.86,4,4,0,0,0,.16,1,3.6,3.6,0,0,1,0,.73,2.25,2.25,0,0,1-.31,1.1,2.12,2.12,0,0,1-.59.64c-.1.09-.35.29-.35.43,0,.33.71.34.91.35a2.38,2.38,0,0,1,1.14.28c.57.42.14,1.34,0,1.87s-.47,1.12-.66,1.7c-.09.28-.19.57-.3.84a6.3,6.3,0,0,0-.34.69C89.75,163.72,89.66,164.37,89.52,165Z"/><path class="cls-3" d="M90.94,158.8c-1.28,1-3.12,1.16-4.74,1.63s-3.24,1-4.87,1.31a4.8,4.8,0,0,1-2.23.29c-1-.34-1.26-1.95-1.56-2.82-.25-.69-.42-2-1-2.52a4.33,4.33,0,0,0-1.1-.38c-.63-.09-.58-.24-.82.34-.32.81,0,2.36,0,3.24a17.33,17.33,0,0,0,.52,3.13c.84,3.71,3.49,6.86,6.46,9.19a10.5,10.5,0,0,0,4.68,2,15.38,15.38,0,0,0,4.35.69c1.62-.17,2.29-1.38,2.68-2.85a15.33,15.33,0,0,0,.27-7.46,23.94,23.94,0,0,0-1.55-4.37,9.94,9.94,0,0,0-.85-2"/><path class="cls-3" d="M65.68,153.14c.52,1.4-2.27,3-3.53,2.67.12.84,1.33,1.74,2.05,2.07s.82.1,1.4-.09a16.72,16.72,0,0,1-1.36,2.1c-.35.39-1.82,1.47-1.64,2.06.21.74,1.38.52,1.93.41a3.1,3.1,0,0,0,2.3-1.16c.78-1,.83-2.29,1.35-3.44.16-.34.35-.68.53-1a13.54,13.54,0,0,0,.73-1.86,3.62,3.62,0,0,0-.14-1.95c-.25-1.21-.75-2.94-.44-4.12.64-2.44,3,1.77,3.59,1.67a15.18,15.18,0,0,0,.07-2.43c0-.91.47-1.24.77-2.05a4.7,4.7,0,0,0-.06-2.41,4.64,4.64,0,0,1,.29-2.62,5.84,5.84,0,0,1,5.18-3.58c2.07-.21,4.89-.25,6.5,1.26a6.06,6.06,0,0,0,1.39.91,9.59,9.59,0,0,0-1.26-3.88,7.53,7.53,0,0,0-1.52-1.8,40.58,40.58,0,0,0-4.4-2.63c-1.31-.77-2.89-.68-4.36-.71s-3.11-.5-4.59,0a7.8,7.8,0,0,0,2.94-5.88A5.54,5.54,0,0,0,72,120.36c-1.41-1.55-2.73-1.75-4.71-1.72-4.87.1-11.52,2.87-11.75,8.52-.11,2.7,1.71,5.63,3.79,7.26a9.33,9.33,0,0,0,2.81,1.34,6.35,6.35,0,0,0,1.12.44c.15,0,1.35-.17,1.36-.14.21.43-.23.89-.38,1.26a4.52,4.52,0,0,0-.22,1.13,12.12,12.12,0,0,0-.21,3.4,47.58,47.58,0,0,0,1.38,6.42,2.79,2.79,0,0,1-.06,2.43c-.79,1.35-2.21,1.13-3.52,1.36a4.57,4.57,0,0,0,2.62,1.37A12.56,12.56,0,0,0,65.68,153.14Z"/><path class="cls-3" d="M89.23,154c.62-.05,1.43-.68,2.14-.85,1-.24,1.35,0,2,.8.91,1,1,2.6,2.48,2.85a6.61,6.61,0,0,1-2,.68c-1.17.31-1.38-.13-2.08-.92a4,4,0,0,0-1.38-1.16c-.7-.25-1,0-1.16-1-.41.32-1.64-.05-2.28,0a3.26,3.26,0,0,0-2,.84c-1.05,1-2,3.57-3.85,3.22.52,1.61,3.71,1.25,4.74.49,1.5-1.11,1.71-3.56,3.31-4.34"/><path class="cls-3" d="M87.38,143.49a6.2,6.2,0,0,1,.16,1,.63.63,0,0,1-.09.41,1.44,1.44,0,0,1-.49.26,5.2,5.2,0,0,1-.78.1,2.12,2.12,0,0,0-.83.36c-.13.07-.18.12-.33,0a2.15,2.15,0,0,1,.49-1.11,2.42,2.42,0,0,1,1.61-.95"/><path class="cls-3" d="M82.42,146.08c-.52,0-.85-.55-1.39-.58a1.66,1.66,0,0,0-1.25.77,10,10,0,0,0-1,2.63,8,8,0,0,1,1.65-2c.54-.44,2-.24,2.17-.76"/><path class="cls-4" d="M87.53,146.7c0-.08-.07-.17-.11-.19s-.12,0-.16,0c-.21,0-.64-.12-.76.18a2.36,2.36,0,0,0,.22,1.15c0,.15.06.38.2.41a.45.45,0,0,0,.33-.1,1.89,1.89,0,0,0,.27-.29.47.47,0,0,0,.17-.35,2.09,2.09,0,0,0-.11-.7Z"/><path class="cls-4" d="M83,148.81a1.45,1.45,0,0,1,0,.36,1,1,0,0,1-.06.43c-.11.23-.39.29-.59.38a5.07,5.07,0,0,1-.83.28,1,1,0,0,1-1.16-.67,1,1,0,0,1-.06-.49c.11-.59.84-.7,1.33-.72a4.64,4.64,0,0,1,.91.06c.15,0,.28,0,.36.17A.7.7,0,0,1,83,148.81Z"/><path class="cls-2" d="M83,148.49a1,1,0,0,1,0,1c-.12.24-.3.26-.54.32a.34.34,0,0,1-.45-.19,1.21,1.21,0,0,1-.14-.6.81.81,0,0,1,.23-.59.76.76,0,0,1,.63-.06A.39.39,0,0,1,83,148.49Z"/><path class="cls-2" d="M87.36,146.78c.18-.13.37.17.42.41a.78.78,0,0,1-.53.92c-.92.14-.33-2.34.28-1.39"/><path class="cls-2" d="M83,148.49a1.68,1.68,0,0,0-1.67-.34,1.6,1.6,0,0,0-.86.58,2.76,2.76,0,0,0-.3.5c-.07.11-.23.2-.29.31-.17.36,1.19.64,1.41.68a1.89,1.89,0,0,0,1-.23c.19-.11.51-.22.63-.41a3.18,3.18,0,0,1-1.42.36,1.91,1.91,0,0,1-.74-.21c-.14-.07-.3-.22-.48-.19a1.81,1.81,0,0,1,.51-.56,1.77,1.77,0,0,1,.88-.5,2.79,2.79,0,0,1,.82-.07,1.34,1.34,0,0,1,.55.19c0-.07-.06-.12-.06-.2"/><path class="cls-4" d="M61.63,209.87c1,5.8,1.28,11.79,2,17.64,1.47,11.12-2.57,23.11-1,34.05.42,3,26,5.66,29,4,11.79-6.32-.14-36.73.79-47.43,1-11.47,2.16-29.74-4.65-39.55-3.41-4.9-8.63-6.54-13.62-9.09a20,20,0,0,1-6.87-5.28c-2.24-2.82-2.62.53-3.42,2.64-1.49,3.9-3,7.66-3.43,11.92a106.49,106.49,0,0,0,1.06,30.51C61.56,209.48,61.59,209.68,61.63,209.87Z"/><path class="cls-2" d="M106.11,277a13.75,13.75,0,0,1-3-4.55c-1-2.52-1.87-5-2.77-7.61-1.15-3.28-2.1-6.2-3.07-9.54-2.25,3.52-4.53,5.61-8.69,6.31a47.34,47.34,0,0,1-14,.35,53.92,53.92,0,0,1-6.08-1c-1.47-.37-3.14-1.43-4.69-1.29-1.11,5-2.41,10.43.26,15.08,3.17,5.49,8.39,9.21,13.75,12.37,5,2.93,10.71,3.67,16,5.87a89.58,89.58,0,0,0,18.14,5.41c9.18,1.72,18.46,3.91,27.55,5.3,3.17.47,6.13,2,9.22,2.82a90.6,90.6,0,0,0,11.21,2c1,.15,2.06.19,3.1.33.72,5.47-13.68,6.89-16.85,7.66a126.94,126.94,0,0,1-19.77,3.24c-12.5,1-25.51,3.91-37.9,3.78,3.77,3.14,7.34,15.47,12.91,15,1.14-.08,2.81-1.3,4.1-1.57,3.88-.79,8-.24,12-.93,5.74-1,11.37-1.92,16.84-3.81,9.78-3.37,19.45-7.57,29.23-10.59,5-1.55,19.23-3.3,17.89-11.17-1.21-7.1-9.16-9.69-15.23-11.5-8.57-2.56-16.8-6-25.07-9-7.84-2.86-15.93-5-23.65-8.17-2.5-1-5.23-1.08-7.64-2.1A11.48,11.48,0,0,1,106.11,277Z"/><path class="cls-2" d="M80.87,329.58c-.16,0,.06,0,.06,0,.49,1.81.68,3.74,1.1,5.57a4.73,4.73,0,0,0,1.76,2.77,11.42,11.42,0,0,1-3,.47c-1.2.17-2.36.65-3.57.83-.58.09-1.91.26-2,.91-.13.82.74,1.83,1.08,2.49s.8,1.58,1.14,2.37a12.09,12.09,0,0,0,1.8,2.62c2.63,3.36,6.31,5.26,9.9,7.42a20.35,20.35,0,0,0,3.33,1.83,3.9,3.9,0,0,1,1.63.89c.48.48.91,1.4.4,2s-2.17.87-3,1a14.71,14.71,0,0,1-3.44-.22,13,13,0,0,1-4.06-1,46.29,46.29,0,0,1-4.21-2.42c-2.25-1.42-4.52-2.9-6.62-4.52A38.76,38.76,0,0,1,70,350.15,13.45,13.45,0,0,1,67.59,347c-.57-1-1.1-1.94-1.62-3a24.3,24.3,0,0,0-1.3-2.41c-.26-.39-.54-1.29-1-1.46a3.09,3.09,0,0,1-1,.61c-.68.39-1.33.79-2,1.21s-.65.48-.86-.08-.34-1.23-.54-1.83a23.24,23.24,0,0,0-1.9-3.84c-.28-.5-1-1.66-.48-2s1.08-.28,1.53-.58.86-.69,1.29-1a8.86,8.86,0,0,1,4-1.52,52.78,52.78,0,0,1,10-.9,18.34,18.34,0,0,0,4.32-.38,6.84,6.84,0,0,0,1.66-.53,9.2,9.2,0,0,1,1-.6c.09.74.1,1.94.76,2.42"/><path class="cls-1" d="M84.72,329.5c1.85-.23,3.66-.73,5.48-1.08,1.3-.25,2.51-1.22,3.88-.46a8.56,8.56,0,0,1,2.79,2.63c.57.88,1.21,3.07.08,3.82a4.12,4.12,0,0,1-2.25.31,2.82,2.82,0,0,1-.85-.35,7.49,7.49,0,0,0-2.12-.21,17.94,17.94,0,0,0-5.21.53c-1,.25-2,.55-3,.81a3.64,3.64,0,0,0-1.42.45,5.55,5.55,0,0,1-.46-1.58c-.19-.59-.31-1.21-.45-1.82a9.75,9.75,0,0,1-.43-2.95C82,329.43,83.38,329.67,84.72,329.5Z"/><path class="cls-1" d="M184.39,249.51c-1.27,1.45-4,2.61-4,4.87a2.25,2.25,0,0,0,1,2.07c.92.57,2.28.05,3.34,0s2.32.27,3.21-.29,1.22-2,1.39-3a11.3,11.3,0,0,0,0-2.54,10,10,0,0,1,.78-3.79"/><path class="cls-2" d="M102,21.77a70.67,70.67,0,0,1,6-9.46,6,6,0,0,0-2-.61c-1.63-3.45-4.3-6.14-5.44-9.89-8,1.06-14.55,4.28-22.39,4-4.94-.17-17.32-.25-21,3.14,3.26,1.59,8.2,1.35,11.77,2.51S75.85,14,79.43,15.24c7.22,2.56,17.68,2.13,23.92,7.07-.43-.47-.8-.37-1.33-.54"/><path class="cls-1" d="M208.16,216.76l.73-1.15c-2.74,4.38-4.93,8.78-7.35,13.36-.65,1.23-1.32,2.46-1.93,3.7a21.55,21.55,0,0,1-1.88,3.9c-1,1.29-1.94,2.76-3,4a18,18,0,0,0-2.71,5.69,24,24,0,0,1-2.38,4.55c-1.31,2.16-2.94,5.44-6,4.59-4.07-1.12-.49-5.47,1.06-7.89,3.94-6.14,6.62-12.69,10.5-18.75,5.68-8.9,10.06-18.6,15.58-27.53a28.6,28.6,0,0,0,2.57-4.61c.75-2,1.51-3.83,2.34-5.77.57-1.3,1.43-2.4,2-3.69.3-.68.24-1.45.53-2.15a12.82,12.82,0,0,1,1-1.48c.88-1.52,1.47-3.28,2.2-4.88,1.54-3.39,3.14-6.76,4.76-10.12,3.17-6.58,6.42-13.12,9.46-19.76,1.89-4.15,2-8.69,6.45-10.82,4.77-2.27,10.56-.49,14.37,2.77a15,15,0,0,1,2.24,2.38,8.84,8.84,0,0,1,1.95,5.73c-.22,4.22-3.21,8.74-5.18,12.27-3.43,6.15-4.86,13.56-6.91,20.28a40.89,40.89,0,0,1-9.09,15.91c-6.22,6.94-12.68,13.61-18.58,20.84-3.51,4.29-6.23,9.05-9.53,13.6-3.73,5.13-7.54,10.2-11.12,15.44-1.77,2.58-3.48,5.2-5.1,7.88a68.81,68.81,0,0,1-4,6.47c-.7-.37-2.17-1.07-2.34-1.89s.65-2.15,1-2.77c.83-1.62,1.33-3.41,2.15-5,.71-1.38,1.73-2.68,2.52-4,2-3.53,4.1-7.05,6.3-10.49q3.57-5.6,7.15-11.19c4.91-7.67,9.82-13.63,13.18-22.22,1.27-3.25,2.43-6.92,2-10.46-.13-1.14-4.3-8.93-4.63-8.17.18-.41.35-.81.52-1.22"/><path class="cls-1" d="M205.1,204.11c-1.6-.89-4.28-2.67-3-4.55a17,17,0,0,1,1.42-1.56c.46-.51,1.1-1,1.49-1.5a5.87,5.87,0,0,0,.58-2.43c0-.18.06-.36.08-.55.13-1.3.36-1.76-1-2.3-.63-.25-2.51-.31-2.74-1.13-.29-1,.9-1.89,1.84-1.66,1.09.26.85,1.16,2,.29a11.3,11.3,0,0,0,2-2.13,25.08,25.08,0,0,0,1.84-3.38c.51-1,.9-2.29,1.86-3a7.31,7.31,0,0,1,3.78-1.06,6,6,0,0,1,2.5.2,15.37,15.37,0,0,1,2.24,1.4c1.34,1,2.43,2.49,4,3.25,1.3.61,3,1.68,4.45,1.33a5.49,5.49,0,0,0,1.83-.9c.33-.22.66-.61,1-.43s.59.78.81,1c.5.61,1,1.21,1.52,1.83,1.65,2.11,5.16,5.14,3.68,7.85-.92,1.66-2.6,2.83-3.91,4.21s-2.9,3-4.31,4.51c-1.23,1.33-2.37,2.69-3.72,3.93a9.13,9.13,0,0,1-6.3,2.2,26.5,26.5,0,0,1-5.88-.4,22.09,22.09,0,0,1-6.49-2.65c-1.71-.94-3.9-2.07-4.21-4.06a6.27,6.27,0,0,1-.08-2.51c.42-1.45,1.62-2.18,2.53-3.26a.61.61,0,0,0,.12-.16"/><path class="cls-4" d="M212.85,197.65a.86.86,0,0,1-1.21-.58,4,4,0,0,1,.15-1.52,9.22,9.22,0,0,1,.33-1.33c.13,0,.18-.1.3-.13a3,3,0,0,1,1.11,0,1.6,1.6,0,0,1,.86.59,2.83,2.83,0,0,0,.43.42c.18.11.42.16.54.34.28.41-.69.85-.93,1C213.86,196.77,213.47,197.41,212.85,197.65Z"/><path class="cls-2" d="M215.59,195.55a8.44,8.44,0,0,0-1.24.62,3.73,3.73,0,0,1-1,.66c-.61.17-1.93-.24-1.66-1.1-.26.79-.06,2.25,1,2a4.53,4.53,0,0,0,1.25-.74,11.6,11.6,0,0,1,1.57-.9c.63-.28.52-.38,0-.81a5.33,5.33,0,0,0-1-.77c-.63-.34-2.14-.92-2.66,0a3.31,3.31,0,0,1,3.61,1.41c-.09.07-.17,0-.28,0"/><path class="cls-2" d="M212.73,194.52a.94.94,0,0,0-1.08.73,1.61,1.61,0,0,0,.48,1.2.7.7,0,0,0,.53,0,1.07,1.07,0,0,0,.86-.8A.93.93,0,0,0,212.73,194.52Z"/><path class="cls-3" d="M209.93,184.07c.08,0,.34.29.49.36a1.85,1.85,0,0,0,.57.15,11.32,11.32,0,0,0,1.43.1,6,6,0,0,1,2.55.49,4,4,0,0,0-1.47,0,7.05,7.05,0,0,1-1.58.15,2.94,2.94,0,0,1-1.4-.39c-.29-.19-.82-.52-.65-.94,0,.07.07.1.09.17"/><path class="cls-3" d="M215.25,185.19c-.35-.37-1-.38-1.52-.54a5.28,5.28,0,0,1-1.23-.77,1.89,1.89,0,0,0-1-.34c-.33,0-.74-.24-1.06,0-.11.09-.27.38-.19.53s.34.11.5.1"/><path class="cls-2" d="M224.91,193.63a28.55,28.55,0,0,0-.13,3.07,21.5,21.5,0,0,0,0,2.78,3.25,3.25,0,0,0,.48,1.32,9.22,9.22,0,0,0,2.26,3c.69.47,1.61.8,2.36,1.21.32.18.88.32.8.71s-.9.67-1.14.81a9.52,9.52,0,0,0-2.9,2.48c-1.06,1.33-1.74,2.89-3.39,3.57a23.26,23.26,0,0,1-5.15.92c-3.92.63-7.11.57-10.85-1.14-3-1.34-4.29-3.6-5.81-6.26-.6-1-2.59-5-1.47-6.16s2.79,2.39,4.21,2.53a.91.91,0,0,0,.75-.23c.12-.11.68-1,.54-1.14.73.57,1,2,2,2.25.74.21,1.63-.52,2.39-.56s.77.65,1.64.5c.59-.09.7-1,1.66-1,.18,0,1.26.7,1.54.77a24.66,24.66,0,0,0,4.38.79c2.73.09,4-3.83,4.17-6.25.19-3.21-2.41-5.82-4.7-7.7.92-1.57,2.14-1.69,2.17-3.92,0-1.31-.38-2.81-1.64-3.41-.19-.09-.39-.21-.58-.31a13.19,13.19,0,0,0-1.38-.62,4.74,4.74,0,0,0-2-.34,3.68,3.68,0,0,0-1.89.61c-.39.26-1,.8-1.06,1.31-.14-.18-.14-.71-.21-1s-.27-.95-.63-1c-.64-.12-1.06,1.13-1.1,1.57a3.64,3.64,0,0,1,.29-1.71,4,4,0,0,1,1.25-1.93,6.08,6.08,0,0,1,2.06-1.12,9.77,9.77,0,0,1,2-.11,7.23,7.23,0,0,1,5.25,1.63,10.06,10.06,0,0,1,1.26,1.18,16.18,16.18,0,0,1,2.51,4.17,11.92,11.92,0,0,1,.34,3.11c0,.89,0,1.8,0,2.7S225,192.66,224.91,193.63Z"/><path class="cls-4" d="M205.55,195.67c-.24.36,1.33,1.47,1.8,1.35s.43-.55.43-.89,0-.71,0-1,0-.67-.25-.8a1.53,1.53,0,0,0-1,0c-.28.08-1.61,1-1.26,1.31"/><path class="cls-2" d="M205.32,195.59h0c.48.56,1.35,1.66,2.23,1.42.67-.18.62-1.13.64-1.68a1.12,1.12,0,0,0-1.35-1.29,2.45,2.45,0,0,0-1.76,1.42c.19-.6,1.18-.85,1.7-.93.34-.06.67-.07.86.22s.09.58.21.84a1.86,1.86,0,0,1-1.42.6c-.5-.13-.82-.62-1.3-.76"/><path class="cls-2" d="M206.33,196.28s-.05,0,0-.05c.79,0,1-1.44.19-1.61-.36-.07-.75.36-.82.71s.58,1.13.68.9"/><path class="cls-2" d="M218.07,187.05c0-.07,0,0,0,0a7.45,7.45,0,0,0-3,1.32,3.15,3.15,0,0,1-1.25.46,3.38,3.38,0,0,1-1.4-.26,4.91,4.91,0,0,0-1.6-.29c-.38,0-.8.43-1,0-.11-.21-.15-.45-.29-.67a3.13,3.13,0,0,0-.62-.69c-.49-.38-1.07-.65-1.58-1-.32-.2-.55-.5-.85-.73s-.64-.33-.59-.6c.83-.4,1.68.14,2.4.45a16.4,16.4,0,0,0,3.57,1,34.37,34.37,0,0,0,4.29.5,4,4,0,0,1,2.32.48.1.1,0,0,1-.08,0"/><path class="cls-1" d="M332.5,33.05c5.48-3.65,9.36-4.6,16.08-4.14,11.61.8,23.35,3.18,34.68,5.8,9.43,2.18,16.23,4.57,26.09,2.18A82.32,82.32,0,0,1,421.14,35c2.13-.2,8.84-1.91,10.29.45,2.23,3.6-5.73,4.39-7.73,3.69-3.83-1.35-6-2.32-9.85-.05-3.66,2.16-7.81,8.09-12.53,7.28-3.83-.65-8.14-1.83-12.06-2.12-4.57-.34-9.19,1.67-13.79,1.66-6.3,0-12.56-1.94-18.9-2-7.25-.14-14.07-1.54-20,3.34C331.32,51.47,327.13,57,322,61.32a303.44,303.44,0,0,0-22.21,21.06c-4.32,4.5-6.86,10.79-10.83,15.65a189.07,189.07,0,0,0-12.77,17.83c-3.41,5.34-6.76,10.19-8.15,16.43-2.64.86-3.82,7.61-6.58,9.54-6.29,4.4-15.5-3.9-17.21-9.37-1.94-6.24.45-11.53,1.25-17.61,1.77-13.4-15.82-14.92-12.83-27.65,7.94-1.45,16.62,6.79,22.24,11.48,2.22,1.84,6.79,8.51,9.58,8.66,4.49.24,5.94-7.12,8-9.9,3.83-5.28,8.56-9.84,12.54-15,8.19-10.6,18.05-22.12,27.89-31.24,3.3-3.05,6.84-5.84,10-8.85,3-2.84,5.28-6.27,8.65-8.62C331.85,33.49,332.18,33.27,332.5,33.05Z"/><path class="cls-2" d="M225,196c1.28-2.41,1.1-4.78,1.73-7.36.51-2.11,1.1-4.2,1.46-6.35a52.67,52.67,0,0,1,1.07-5.46c.37-1.37,1.16-3,.77-4.28-1.69,1.48-3.62,2.61-5.36,4-1.37,1.1-2.48,3.14-4.05,3.78s1-4.68,1-4.63c.94-2.22,1.4-4.75,2.25-7,2.05-5.55,4.41-11,6.41-16.57,1.64-4.59,2.7-9,5.38-13.18,1.47-2.29,2.54-5,4.39-6.84a47.57,47.57,0,0,1,5.64-4.63c1.2.7,1.89,2.27,3.12,3.22a20.56,20.56,0,0,0,4.61,2.52c2.31,1,4.55,1.83,6.8,2.92,1.48.73,3.45.58,4.72,1.43-.67,1-.19,2.41-.35,3.56a27.81,27.81,0,0,1-1,3.37c-.93,3.3-1.84,6.38-2.95,9.56-2.65,7.61-4.35,15.59-6.92,23.16-2.24,6.58-5.34,14.1-9.61,19.71a29.83,29.83,0,0,1-7.38,6.55c-1.89,1.28-3.94,2.31-5.74,3.73a48,48,0,0,0-3.58,3.68A11.07,11.07,0,0,0,225.8,213c-2.08,3.26-4.08,6.55-6.17,9.82-.78,1.23-1.49,2.58-2.38,3.73-.63.82-2.25,2-2.58,2.83-.48,1.21.6,1.94.16,3s-2.6,1.52-3.52.9a21.63,21.63,0,0,1,0,3.86c-2.13.49-2.42-1.16-3.8-1.58-.81-.24-1,.65-1.85.19-.72-.37-.95-1.25-1.51-1.76-1.09-1-7.84-3-3.8-5.07,1.13-.58,2.3.83,3.46-.52.28-.33,0-1.42.33-2,.45-.71.89-.78,1.35-1.21,2-1.94,4.09-3.87,6-5.94,2-2.22,2.7-4.86,3.87-7.59a55.36,55.36,0,0,1,4.46-7.66C221.49,201.39,223.47,198.76,225,196Z"/><path class="cls-2" d="M254.1,137.75a13.54,13.54,0,0,1-7-4.71c-.86-1.16-1-1.6-2.56-2-.93-.26-2-.17-2.85-.74-1.91-1.32-1.67-4-1.42-6a13.87,13.87,0,0,0-.84-6.79c-1.88-5.11-6.08-8-10.53-10.58-4.08-2.4-7.6-5.9-11.44-8.69-5.73-4.15-11.55-8.26-17.6-12-7.17-4.47-14-9.47-21.15-13.86S163.52,64.61,156,60.63c-8.82-4.69-17.57-9.11-25.72-15.06-3.76-2.74-6.94-5.76-10.43-8.74-1.11-.95-2.7-1.23-2.88-2.65-.11-.83.84-2.11,1.08-2.9.7-2.32,1-4.72,1.77-7,.68-2,.94-5.6,3.13-6.28,2.37-.73,6.19,1,8.25,2.07,3.43,1.7,7,3,10.52,4.77,12.38,6.27,24.64,12.78,36.73,19.66C184.72,48,190.4,52.17,196.41,56a117.22,117.22,0,0,0,12.41,6.88c3.44,1.64,6.38,3.93,10,5.15a76.65,76.65,0,0,0,13.22,3.5c4,.56,8.08.73,12.09,1.39,2.56.43,5.42.17,8,.8,5.72,1.4,12.08-.51,17.67-2.36C282.13,67.29,293,58.87,303.75,52c5.18-3.31,9.51-7.56,14.25-11.47,3.09-2.56,5.84-5.5,8.93-8,2.72-2.24,6-5.14,9.47-6.07,3-.79,6.33.37,9.55.18,6.91-.39,13.58.62,20.26,1.1s15,1.35,21.32,3.4c1.26.41,2.11-.06,3.25.42-3.51,5.44-1.53,14.79-4.36,20.59-4.43-3.33-11-1.74-16-2.45-6-.85-12-2-18.19-2.41-12.49-.86-18.33,7.47-26.52,15.43-4.68,4.54-9,9.76-13.89,14.31-5.32,5-11.69,8.55-16.14,14.26-7.87,10.08-15.53,19.92-21.06,32.19-2.72,6-5.53,11.94-9.7,17.4C261,138.45,258.21,139,254.1,137.75Z"/><path class="cls-2" d="M402.71,36.36c-1.53,1.91-1.86,5.67-3.2,8-1,1.78-3.63,3.71-4.11,5.48,2.29.25,3.55,2.4,5.61,3.19,4.87,1.87,7.2-1.09,10-4.37a15.4,15.4,0,0,1,9.19-5.73c5.13-1,10.25-2.05,15.3-3.33,3.77-1,10.36-1.64,13.35-4.27-6-6.4-18-4.27-25.54-2.69-3.79.8-7.38,1.69-11.23,2.46-3.28.66-7.29-.34-10.48.78.17.93.72,1,1.36,1.51"/><path class="cls-1" d="M180.17,279q1.13-1.69,2.22-3.42c.77-1.19,1.53-2.39,2.29-3.58.91-1.42,1.57-2.88,2.45-4.29,4-6.43,8.53-12.44,12.61-18.82A23.89,23.89,0,0,0,203,242.4c.16-.61.32-1.94-.19-2.44a3.09,3.09,0,0,0-3.58-.25c-.75.56-1.33,2-1.84,2.84a33.61,33.61,0,0,1-2.27,3.37c-1.92,2.3-3.4,5-5.28,7.36-4.24,5.21-7.73,11.13-11.38,16.84-1.06,1.66-1.88,3.41-2.94,5.05s-2.41,3.18-3.63,4.78a34.29,34.29,0,0,1-4.53,4.41,13.37,13.37,0,0,1-1.77,1.76,16.2,16.2,0,0,0-1.51,1.23,9.52,9.52,0,0,0-1.6,1.24,3.15,3.15,0,0,0-.42,3.68c1.17,2.45,4.72,3.57,7.23,3.13,3.78-.65,4.27-4.87,5.3-7.82a13.67,13.67,0,0,1,2.14-3.8C177.94,282.24,179.07,280.63,180.17,279Z"/><path class="cls-2" d="M203,208.47c-1.68.41-1.7,3.27-2.19,4.75a45.28,45.28,0,0,1-2.93,6.18c-1.55,3-2.52,8.46-5.08,10.83-3.81-2.29-5.76,2.34-1.08,3.23-1.29.81-4.86-.64-5,2-.06,1.9,1.32,1.93,2.8,1.59s2.65-.62,3.92.26c1.05.74,1.77,1.65,3.14,1.79,2.08.22,2-2.37,2-3.89,0-.52.13-.66.56-1.06a3.75,3.75,0,0,0,1-2.28,7.17,7.17,0,0,1,1-2.18,34.21,34.21,0,0,0,3.31-5.21c2-4.67,5.72-8.88,8.13-13.53-2.45-2-7.25-.66-9.8-3"/><path class="cls-1" d="M117.94,19.75c-.86-1.7-4.46-2.25-6.2-2.9-2.54-1-5.1-2.14-7.7-3-2.25-.76-3.84-1.21-4.24,1.62A10.78,10.78,0,0,0,99.73,19c.38,1.07,1.36,1.11,2.5,1.67,4.77,2.36,9.16,5.53,14,7.86,1.82.89,4.29,2.56,6.31,2.81a7.58,7.58,0,0,0,3.27-.83c1.58-.68,1.92-.91,1.46-2.64C126,23.18,120,20,115.75,18.73"/><path class="cls-1" d="M81,4.1c1.06,2,3,4.59,5.31,5.12a4.61,4.61,0,0,0-.8-5.35c1,2.17,3,4,5.53,3.38C93.07,2.39,87.7.36,83.87,0S71.7,1.11,76.21,6.23C79.3,9.73,84.75,9,81,4.1Z"/><path class="cls-4" d="M88.46,201.44c0,2.81-.16,5.62-.42,8.26-2.05,1.12-5.64.47-8,.47s-7.18,1-9.26.33c-2.6-.79-2.47-7.11-2.72-9.68-.46-4.86-2.63-11.54,1.16-15.62,3.55-3.8,11-3.89,14.86-.8a9.85,9.85,0,0,1,4,7.25C88.37,194.78,88.49,198.12,88.46,201.44Z"/><path class="cls-1" d="M74.88,206.1c2,13.57,9.07,29.1,14.56,42.23,4,9.47,7.83,19.2,12.2,28.56,1.66,3.55,3.79,11.18,8.23,7.86,4-3,7.2-13.38,9.45-17.89,1.65-3.34,2.85-6.89,4.43-10.26A47,47,0,0,1,126.2,252c.42-.68.87-1.35,1.36-2,.23-.3.47-.6.72-.89s.65-.39,1-.67a5.57,5.57,0,0,1,1.47-.77c.32-.14.57-.36.88-.51s.51-.17.76-.29a5.35,5.35,0,0,0,1.47-.91c.18-.24.11-.46-.06-.75a9.41,9.41,0,0,0-1.9-2.27,8.18,8.18,0,0,0-5.57-2,5.81,5.81,0,0,0-4.21,2.19,17,17,0,0,0-3.31,5.33,21.78,21.78,0,0,0-.66,2.18,10.94,10.94,0,0,1-.87,1.87c-.31.64-.63,1.25-1,1.88-1.08,1.89-2.22,3.76-3.4,5.6s-2.06,4.1-3.53,5.84c-.25.28-.68,1.05-1.12.95s-.51-.67-.66-1c-.8-1.7-1.72-3.35-2.51-5.07-.69-1.5-1.36-3-2.07-4.52-1.06-2.25-1.69-4.66-2.67-6.94a55.88,55.88,0,0,1-2.56-7.79,20.63,20.63,0,0,0-2-5.71A12.38,12.38,0,0,1,94.29,232a13.18,13.18,0,0,0-.53-1.61c-.65-1.8-1.39-3.58-2.13-5.35a141.85,141.85,0,0,1-5.86-16.71c-.73-2.63-.33-6.2-3.63-6.62-1.64-.21-5.66,3-7.28,3.65-.58.24-.83.55-1.43.75"/></g></g></svg>