<svg xmlns="http://www.w3.org/2000/svg" viewBox="0 0 209.57 413.03"><defs><style>.cls-1{fill:#007293;}.cls-2{fill:#fff;}.cls-3{fill:#1d1d1b;}.cls-4{fill:#e30613;}</style></defs><g id="Ebene_2" data-name="Ebene 2"><g id="Ebene_1-2" data-name="Ebene 1"><path class="cls-1" d="M78.22,304.75c.93,3.76,1.78,7.63,3.76,11,.57,1,1.2,1.82,1.79,2.71.47.71,1.79,2.41,1.86,3.27s-.72,1.59-.69,2.66a4.64,4.64,0,0,0,1.17,2.51,4.43,4.43,0,0,1,1.06,2.43c.08,1.18.15,2.29.29,3.46.32,2.57.5,11.33,1,13.93.42,2.05.37,4.23.73,6.31s.7,4.12.9,6.17a52.71,52.71,0,0,0,10.93-.61c-.18-.76-.36-1.52-.55-2.26-.94-3.78-2-7.47-2.94-11.27-.51-2.08-1.22-10.25-1.82-12.27-.36-1.21-.78-2.43-1.1-3.66a5.65,5.65,0,0,0-1-2.29c1.72.43.65-2.82.41-3.44-.31-.82-.51-.9-.19-1.92.25-.77.44-1.67.74-2.49,1.94-5.42,5.88-20,6-25.87.07-4.94.29-9.65-.49-14.5-.28-1.71-.54-3.45-.75-5.18-.1-.84-.14-1.63-.23-2.48-.05-.46-.17-1.85-.57-2.17-.15.09-.56.13-.68.21l-20-1.73a10.43,10.43,0,0,1-.49,3,32,32,0,0,0-.44,3.46,51.92,51.92,0,0,0-.07,10.05C77.24,287.65,77.29,301,78.22,304.75Z"/><path class="cls-1" d="M121.48,370c.21-2,.63-4.12,1-6.1s.35-4.08.83-6c.6-2.48,3.57-27.64,3.94-30.09.16-1.12.24-2.18.34-3.31a3.86,3.86,0,0,1,1.18-2.31,4.28,4.28,0,0,0,1.33-2.41c0-1-.87-1.72-.79-2.54s1.58-2.44,2.11-3.12c.66-.86,1.38-1.68,2-2.59,2.23-3.22,3.2-6.91,4.24-10.5s2.9-16.77,3.3-20.51a42.71,42.71,0,0,0-.08-9.59,29.47,29.47,0,0,0-.49-3.32,8.19,8.19,0,0,1-.56-2.83l-22.57,1.65c-.14-.07-.6-.11-.77-.2-.45.31-.58,1.64-.64,2.08-.11.81-.15,1.56-.27,2.37-.23,1.65-.53,3.31-.84,4.94-.88,4.64-.63,9.14-.55,13.86.1,5.65,2.77,20,5,25.14.34.78.55,1.65.83,2.38.36,1,.14,1.05-.22,1.84-.27.59-1.48,3.7.47,3.28a4.94,4.94,0,0,0-1.1,2.19c-.37,1.18-.83,2.34-1.25,3.5-.68,1.93-4.26,26.51-4.83,28.5-1,3.63-2.26,7.15-3.33,10.77-.08.25-.15.51-.22.77C113.57,368.22,117.51,369.12,121.48,370Z"/><path class="cls-1" d="M134.82,134.92c1.13.17,5.83-2.08,7.34-2.65,2.72-1,5.42-2.12,8.17-3.06,5-1.72,12.91-1.88,18.17-3,12-2.63,22.71-5,33.75-10,1.65-.75,8.32-2.9,7.19-5.28C209.05,110,185,96.07,177.18,93c-4.58-1.78-26.64-8-32.67-10-4.12-1.43-8.26-2.67-11.76-5-1.49-1-2.6-3.11-4.25-2.34-1,.47-2.8,3-3.34,3.88a174,174,0,0,0,16.45,7.11c7,2.74,48.28,24,55.13,25.52-3-.1-5.16,1.09-8.08,1.29S133.2,121.14,132,121s-6.51,1.81-7.64,1.45c-2-.62-.9,6.15.3,8.47.79,1.54,2.44,7.31,5.35,6.64"/><path class="cls-1" d="M86.3,117.35c.37.05.52,0,.44-.3-8.2-6.63-20-9-29.18-14.53C52.4,99.41,25.83,81.61,21.75,78.87c.36-1,36.39-2.84,42.61-3.25,5.68-.37,11.28-1.53,17-1.74,4.19-.16,8.86,0,13.07-.51.49-2.17-.77-4.52-1.39-6.54-.88-2.92-2.79-2-5.8-2.17-9.57-.62-19.13.06-28.75,0a150.27,150.27,0,0,0-15.43.9c-4.92.48-10,0-14.9.44-5.21.51-10.61,1.08-15.75,1.64-4.12.43-8.37.14-12.46.59.57,2.18,3.59,4.51,5.27,6.19,3.46,3.43,6.31,7.19,9.82,10.55,4.31,4.13,9.48,7.47,14.25,11.11,2.67,2,5.1,4.37,7.65,6.53,3.3,2.8,7.31,5,10.78,7.62,6.1,4.63,11.54,9.94,18.12,14.12,3.48,2.2,6.46,4.78,9.89,7,2.84,1.84,4.24,0,6.13-2.09s5.13-3.51,4.88-6.6"/><path class="cls-1" d="M91.61,82c-.23.52-.24.55,0,.09.75-4.26,8.31-6.62,12.37-7.29,4.74-.79,12,.86,16.25,3.48,3.68,2.28,5.59,9.9,5.38,13.73-.26,5.08-2.7,8-4.94,13.1-1.92,4.36-4.28,3.61-8,6.68-1.28,1.05-1.85,5.81-6.47,4.68-7.31-1.8-6.74-2.33-9.86-5-4.64-4-8.81-10.23-8.31-16,.43-5,.48-9.6,3.3-14.2a2.21,2.21,0,0,1,1.35.37"/><path class="cls-2" d="M96,96.06c.46-.87,1.81-1.14,2.79-1.16,1.22,0,2.07.81,3,1.25,0-.11,0-.05-.13-.11a2.91,2.91,0,0,1-2.61.95c-.7-.06-2.87-.24-2.71-1.23a.44.44,0,0,1,.33.2"/><path class="cls-2" d="M112.16,98.33a6.38,6.38,0,0,1,1.17-.73,2.5,2.5,0,0,1,1.48.1c1.2.29,1.86,1.21,2.73,1.93a15.94,15.94,0,0,1-3.1.11,5.14,5.14,0,0,1-1.37-.28,5.37,5.37,0,0,1-.74-.26c-.18-.1-.27-.26-.45-.38a.27.27,0,0,1,.1-.23.8.8,0,0,1,.26.09"/><path class="cls-1" d="M97.83,94.83c0,.29-.4.46-.46.8a1.1,1.1,0,0,0,.36.82c.46.44,1.2,1.08,1.89.57.49-.39,1-1.28.35-1.79a2.41,2.41,0,0,0-2-.37"/><path class="cls-1" d="M113.91,97.55c0,.2-.74.12-1,.31a1.1,1.1,0,0,0-.18,1.17c.37.74,1.59.82,2.32.79.5,0,.65-.13.78-.61.08-.31.18-.87-.15-1.12a4.69,4.69,0,0,0-1.16-.51c-.37-.14-1.18-.33-1.27.21"/><path class="cls-3" d="M99.3,95.53c-.39-.08-.61-.3-1,0s-.38.68.1.88c.81.36,1.26-.81.4-.9"/><path class="cls-3" d="M114.7,98.41c-.08-.38-.66-.19-.79.1s.19.79.62.8c1.06.06.69-1.64-.17-1.31"/><path class="cls-4" d="M100.59,106.52c.13.11.13.36.22.52a2.54,2.54,0,0,0,.41.52,20.19,20.19,0,0,0,1.14,1.79,4.39,4.39,0,0,0,2.29.77c.94.1,2-.62,2.85-1.07a2.16,2.16,0,0,0,1.18-2.14,9.38,9.38,0,0,1-.89.5l-1,.31a6.87,6.87,0,0,1-2.27.28,4.8,4.8,0,0,1-1.92-.58c-.31-.14-.62-.3-.92-.45s-.56-.38-.91-.31c0,.12.08.21.13.31"/><path class="cls-2" d="M102.93,107a3.5,3.5,0,0,1,.23,1.13,6.89,6.89,0,0,1,0,1.37,1.73,1.73,0,0,0,.93.07c.42,0,.41-.19.42-.48a6.27,6.27,0,0,1,.14-1.8,3.06,3.06,0,0,0-.86-.18c-.3-.07-.61-.23-.88-.13l.16.06"/><path class="cls-2" d="M104.65,107.3c.14.11,0,.36,0,.48s0,.47,0,.7.26.7.15.94a1.62,1.62,0,0,0,.58.11,4.57,4.57,0,0,1,.65.18c.17-.13,0-.41,0-.59-.16-.69,0-.26-.08-.83,0-.12,0-.43-.09-.56a6.37,6.37,0,0,0-1-.37"/><path class="cls-4" d="M100.06,106.11c.13,0,.25.29.38.42a2.36,2.36,0,0,0,.62.47,8.11,8.11,0,0,0,1.37.72,6.82,6.82,0,0,0,2.18.15,6.41,6.41,0,0,0,2.81-.15,3.51,3.51,0,0,0,1.16-.75,4.44,4.44,0,0,0,.66-.87,11.65,11.65,0,0,0-2.15.65,6.82,6.82,0,0,1-2.59.09c-.86-.07-1.75-.12-2.63-.25a2.64,2.64,0,0,1-.94-.26c-.28-.15-.62-.59-.81-.35"/><path class="cls-1" d="M88.87,86.69c.62.2-.12-1.32-.3-1.67s-.87-1.75-1.6-1.7c-1.78.12-1.2,3.88-1.2,5a37.92,37.92,0,0,0,0,5.74,2.9,2.9,0,0,0,1,1.84c1,.83,1.24.18,2.08-.42"/><path class="cls-1" d="M124.86,95c.56.27.82-1,1.63-.68.51,2.26-.59,4.07-1.58,6.17a7.25,7.25,0,0,1-2,2.62c-.53.42-1.87,1.66-2.56,1.38a.52.52,0,0,1,.47-.44"/><path class="cls-3" d="M88.19,84.33c-.35-1.63,1.28-4,2.17-5.21A17.13,17.13,0,0,1,92,77.21c1-1,2.44-1.35,3.87-1.8a25.33,25.33,0,0,1,3-1.12c1.39-.26,2.67-.57,4.07-1,1.84-.51,4-.23,5.92-.24A17.48,17.48,0,0,1,116,74.34a18.79,18.79,0,0,1,5,4c1.5,1.5,3.45,2.89,4.72,4.58,1.16,1.53.78,3.79.78,5.66a9.74,9.74,0,0,0,.22,3.11c.37,1,.64,1.5.19,2.6-.9,2.21-3,4.11-4.19,6.18a8,8,0,0,0,1.16-3.31c.16-1.88-.25-3.68-.25-5.53s.37-4.26,0-6.15c-.19-1-1.17-1.66-1.91-2.37s-1.67-1.74-2.56-2.46c-1.85-1.48-3.72-1.7-6-2.14a23.19,23.19,0,0,0-6.91-.36,36.93,36.93,0,0,0-6,.89,23.85,23.85,0,0,0-2.87,1.2c-1,.43-2.15.78-3.1,1.19-1.61.7-2.06,2.76-2.84,4.11a10.34,10.34,0,0,0-1.15,3.52c-.11,1-1.38,4.28-1.24,5.2-.15-1.55.19-4.27,0-5.92A18.19,18.19,0,0,0,88.19,84.33Z"/><path class="cls-4" d="M122,78.9s-.89-1.35-1.79-.59c-1.42,1.19-1.15,4,.16,4.43a4.39,4.39,0,0,0,4-.13c1.26-.85.39-1.36.39-1.36s19.95-18.45,20.86-18.82c1.76-.73,16.5-8.88,21.66-13.46s15.83-18.22,15.83-18.22,1.89-1.53,1.87-2-4.32-4.88-4.62-4.88-.86.93-1.18,1.28S164.83,33,160.12,37.36c-5.33,4.92-15.31,19-17,21.86S122,78.9,122,78.9Z"/><path class="cls-3" d="M179.23,25.12l3.93,5.63s2-1.69,1.87-2-4-4.9-4.62-4.88S179.23,25.12,179.23,25.12Z"/><polygon class="cls-3" points="142.72 59.78 145.67 62.43 124.81 81.25 122 78.9 142.72 59.78"/><path class="cls-3" d="M96.38,78.43s-1.8.12-1.52,1.26c.46,1.78,3.32,2.91,4.44,2s2.16-2,2-3.53-1.14-1-1.14-1-7.9-26.07-7.8-27.05c.19-1.85-.25-18.45-2.12-25.11S80.41,2.6,80.41,2.6,79.86.24,79.37,0s-7,1.34-7.14,1.6.47,1.19.63,1.62.36,16.18,2.23,22.35C77.2,32.53,85.93,48,87.86,50.77S96.38,78.43,96.38,78.43Z"/><path class="cls-4" d="M72.86,3.24l7.55-.64S79.76.11,79.37,0,72.5,1.1,72.23,1.62,72.86,3.24,72.86,3.24Z"/><polygon class="cls-4" points="88.19 51.38 92.31 50.13 100.11 77.18 96.38 78.43 88.19 51.38"/><path class="cls-1" d="M97.44,64.79c0,.11.07.22.11.33-.74,0-2.39-.12-3,.38C93,66.8,95.85,67.09,96.93,67c-.72.53-1.57.84-1.6,1.81a2.73,2.73,0,0,0,1.8.48,3,3,0,0,0-1.23,1.94,2,2,0,0,0,1.74.35c-1,2.84.59,1.92,2.79,2,1.55-2.48.35-7.11-2.78-8.33"/><path class="cls-1" d="M123,75.15c1,.66,2.53,2.09,3.77,2.42.53-.73.85-1.54.23-2.31a1.13,1.13,0,0,0,1.18,1c.73-.72,0-1.6-.39-2.33a3.59,3.59,0,0,0,1.08.74c.37-.57.56-1.23.94-1.8a1.44,1.44,0,0,0,1.18.71,8.53,8.53,0,0,0,.92-2.13c-1.31-.94-1.72-2.28-3.7-2.53a6.36,6.36,0,0,0-4.36,1.33,3.38,3.38,0,0,0-1.71,3.42c.28,1.38,2.2,2,2.06,3.42"/><path class="cls-3" d="M89,120.24a3.88,3.88,0,0,1-1.61-1.77c-.22-.41-.67-1.57-1.16-1.75a12,12,0,0,1-1.4,2.46c-.44.8-.83,1.63-1.27,2.41-1.07,1.9-2,3.87-2.87,5.83-.5,1-1.51,1.6-2.36,2.41s-1.73,1.42-2.59,2.12a2.31,2.31,0,0,0-.64.86,9,9,0,0,0-.38,1.59c-.24,1.12-.74,2.2-1,3.32-.48,2.14-.5,4.31-1,6.45s-.86,4.25-1.29,6.39c-.37,1.88-.9,3.76-1.22,5.65-.19,1.17-.49,2.31-.76,3.47a4.58,4.58,0,0,0-.34,1.84,14.15,14.15,0,0,0,2.06,0c3.13-.09,6.28-.57,9.4-.88a114.13,114.13,0,0,1,13.33-.57c4.51.09,9,.47,13.54.46,1.63,0,3.23.08,4.84.12,2.19,0,4.38-.06,6.56.07,4.48.29,9,.3,13.47.55,1.45.09,3,0,4.39.16.78.08,1.58,0,2.36.11a10.88,10.88,0,0,0,2.48.19c.12-.41-.18-1-.26-1.44-.27-1.41-.88-2.74-1.27-4.13-.62-2.18-1.7-4.22-2.38-6.38-.87-2.78-1.52-5.58-2.56-8.32a20.58,20.58,0,0,0-2.27-4.2,35.25,35.25,0,0,1-2.8-5.11,48,48,0,0,0-5.13-8.23c-.36-.5-1.09-1.61-1.77-1.8a5,5,0,0,0-2.14.11,27.5,27.5,0,0,1-6.91.53c-1.36,0-3.06-.38-3.48-1.75a7.24,7.24,0,0,1-.25-2,12.69,12.69,0,0,0-.22-1.54c-.07-.63-.07-1.24-.16-1.86-.83-.2-1.66-.2-2.5-.34s-1.89-.38-2.84-.59c-.47-.1-.93-.08-1.4-.18a14.07,14.07,0,0,1-1.59-.52,9.2,9.2,0,0,1-2-.93c-.41-.25-1.34-.93-1.86-.56-.16.11-.19.53-.21.71-.06.39,0,.8-.12,1.2a20.82,20.82,0,0,1-1.63,5.48A3.37,3.37,0,0,1,94.69,121a3.17,3.17,0,0,1-2.56.2A29,29,0,0,1,89,120.24Z"/><path class="cls-1" d="M86.38,233.62a5,5,0,0,0,3.41,2.57c1.3.11,2.67,0,4,0a101.13,101.13,0,0,1,12.8,1.16c8.72,1.07,16.28,2.2,24.6-.73a48.68,48.68,0,0,0,.09-7.35c0-3-1.07-17.79-2.25-21.94a104,104,0,0,1-3.3-14.23c-1.64-12.51-2.44-25.54-3-38.09a70.69,70.69,0,0,0-16.39.4c-2.85.38-5.66,1.26-8.52,1.58-2.44.26-4.84.31-7.31.59-.41,2.94.15,5.84.49,8.66a77.4,77.4,0,0,1,0,8.75v19.15c0,7-.91,13.58-1.14,20.44-.11,3.41-.19,16.11-1.7,17Z"/><path class="cls-3" d="M109,226.7c-.66-.4-.49-1.16-.4-1.78a1.57,1.57,0,0,0,1-.57,3.21,3.21,0,0,0-1.83-.21,4.44,4.44,0,0,0,.23,2A8.51,8.51,0,0,1,109,226.7Z"/><path class="cls-3" d="M112.83,105.19c-1-1-1.07-2.16-2.74-2.22a5.18,5.18,0,0,0-3.39,1.21c-.24.2-.63.64-1,.67s-.4-.55-.32-.83a.91.91,0,0,0-.53,1,.31.31,0,0,0,.08.19h0c-.94-.64-1-1.72-2.33-2.27a4,4,0,0,0-3.43.14c-1,.5-2.12,1.54-3.29,1.63s-2.67-1.76-1.13-1.83c-1.67-.29-1.69,2-.89,2.85,1,1.15,2.82.93,4.08.46,1.49-.57,2-1,3.61-.71.83.18,2.94.69,3.5-.25.21.07.54,0,.74,0s.3.15.48.19.49.07.72.1a19.65,19.65,0,0,0,2.54.23,5.75,5.75,0,0,1,2.64.46c1.43.6,4.1,1.3,4.61-.84C116,106.61,113.74,106.09,112.83,105.19Zm-7.84,0h0l.06,0Z"/><path class="cls-3" d="M103.78,102.43c-.06-.41.69-1.07.62-.32,0,.16-.12.56-.32.61s-.17-.32-.17-.48"/><path class="cls-3" d="M106,101.62c.3.26.17.58.18.92-.63.15-.63-.46-.54-.85a.31.31,0,0,0,.18-.07"/><path class="cls-3" d="M101.57,94.29l.17.08a2.83,2.83,0,0,0-.07-.63,7.46,7.46,0,0,0-.14-.93,7.37,7.37,0,0,0-.41-1.5,4.07,4.07,0,0,1,0,.78c-.18-.15-.19-.46-.28-.68a1.86,1.86,0,0,0-.44-.67c-.08.26.08.57,0,.85-.41-.07-.35-1-.85-1-.07.29.15.62.11.92-.44-.07-.94-.61-1.4-.54a.8.8,0,0,0,0,.46c-.17-.12-.29-.31-.5-.4a2.15,2.15,0,0,0-.75-.13,4.6,4.6,0,0,0-1.69.26c-.49.17-1,.24-1.48.4a3.65,3.65,0,0,0-.5.15c-.12.06-.18.15-.31.18,0,.37.64,1.06.92,1.27a2,2,0,0,0,.91.36,1.19,1.19,0,0,0,.57.29,2.36,2.36,0,0,1,.74-.54c.37-.1.73-.18,1.09-.31.17-.06.35-.07.53-.12a6.62,6.62,0,0,1,.77,0,7.18,7.18,0,0,1,1.78.55,1.26,1.26,0,0,1,.54.4.49.49,0,0,1,0,.26l.55.28,0,0Z"/><path class="cls-3" d="M112,96.65l-.17,0a0,0,0,0,1,0,0A.27.27,0,0,0,112,96.65Z"/><path class="cls-3" d="M121.11,95.44a2,2,0,0,0-.31-.27,9.72,9.72,0,0,0-3.69-1.23c-.34,0-.67,0-1,0a1.88,1.88,0,0,0-.58,0c-.13,0-.27.11-.41.05.07-.15.32-.1.3-.29a2.62,2.62,0,0,0-.79,0c-.18,0-.43.24-.62.17,0-.28.44-.42.48-.66a3,3,0,0,0-1.21.8,5.5,5.5,0,0,0,.23-.61,2.08,2.08,0,0,0-.62.47c-.1.09-.21.29-.36.25s.09-.32,0-.48a1.11,1.11,0,0,0-.53.5c-.07.09-.21.54-.33.55-.27,0-.19-1.09-.18-1.29a3,3,0,0,0-.39,1,2.52,2.52,0,0,0-.11.77,4.47,4.47,0,0,0,0,.47.58.58,0,0,0,0,.29.1.1,0,0,1,0,0,1.52,1.52,0,0,0,.22.48c0,.18,0,.31.11.45a1.63,1.63,0,0,1,.17-.22l.2,0c.31-.53,1-.53,1.59-.53a17.3,17.3,0,0,0,2.25-.22,6.39,6.39,0,0,1,.92.21A12.17,12.17,0,0,1,119,97.24a12.92,12.92,0,0,1,1.31,1.07c-.08-.21-.13-.43-.19-.64a6.27,6.27,0,0,1,.3-.64,5.93,5.93,0,0,1,.66-1.22C121.2,95.59,121.24,95.64,121.11,95.44Z"/><path class="cls-3" d="M88.54,358.88a100.06,100.06,0,0,0,15.67-1.23c.61,4.15-.09,8.58-.56,12.41-.25,2.14.23,4.17-.46,6.12a22.78,22.78,0,0,0-1.64,5.74,63.23,63.23,0,0,1-1.32,6.43c-.25,1.15-.87,4.39-2,5.3-1.45,1.2-4.64,1.83-6.49,2.6s-3.75,1.5-5.72,2.28c-3.57,1.43-6.76,4.28-10.68,4.46-3.47.16-7.67-1.38-9.37-4.46-1.57-2.8-4-7.68-2.32-10.65,1.82-3.33,8.83-5.18,11.87-2.26,3.2-3.1,5.48-7.07,9-9.78,2.37-1.82,2.4-4,2-7.12-.22-1.77-2-6.64,0-7.86Z"/><path class="cls-3" d="M107.74,363.7c-.55,1.6-.24,4.56-.74,6.25-.36.1-.57,4.23-.93,4.3-.59,3.92-2.78,5.6-2.75,7.49s4.85,9.05,4.85,9.05,9,9.7,13.79,13.81a54.21,54.21,0,0,0,6.44,5.29c2.14,1.35,4.27,1.53,6.55,2.1,3,.75,4.31,1.63,7.22.52,2.26-.87,4.51-2.18,6.74-3,4.53-1.64,9-3.09,6.27-9.2-.84-1.86-2.24-4.31-4.41-4.81-2.77-.63-5,1.27-8,.22-4.14-1.48-8.16-5-12-7.27a47.41,47.41,0,0,1-6.93-4.9c-1.67-1.63-.39-5.26-.18-7.89.33-4.46,4.43-8.53-1.94-9.07-2.58-.22-1.87-2.71-4.17-3C117.61,363.6,110,363,107.74,363.7Z"/><path class="cls-3" d="M82.58,237.8c-.48,1-.94,2.1-1.39,3.16-1.37,3.3-3,6.48-4.29,9.82a53.37,53.37,0,0,0-1.69,5.29c-1,3.85-1.64,8.38,1.18,11.7,3,3.58,9.35,7.05,14.44,5.7s11.52-4,14.34-9.6c.72.18,1,1.73,1.43,2.38a11.82,11.82,0,0,0,2.91,2.74c2.43,1.8,4.63,3.78,7.85,4.4,6.83,1.31,17.4-.71,21.21-9.56A27.73,27.73,0,0,0,137.15,239c-2.15-3.6-5.4-11.47-10.65-9.67-2.53.86-4.62,2.28-7.41,2.31-3.07,0-6.35-1-9.3-1.73a41.71,41.71,0,0,0-8.82-.74,42.19,42.19,0,0,1-4.63-.75c-1.53-.17-3.11,0-4.64-.18-2.1-.25-2.46-.62-3.89,1.15a32.4,32.4,0,0,0-2.1,2.61A52.2,52.2,0,0,0,82.58,237.8Z"/><path class="cls-4" d="M75.17,264.6c-1.46.22-4.51,2.55-4.61,4.38-.07,1,1.54,1.63,2.32,1.71,1.33.13,1-.34,2.24-1.1a5.85,5.85,0,0,0-.6,3.73c.39,2.36.71.62,2-.11,1.69-.94.59.39,1.34,1.31,1,1.19,1.39-.21,2.29-.81-.64,2.18,1.2,3.13,2.25.79.48,1.09.81,4.32,2.69,1.86.16.94,0,3.18,1.57,2.48.88-.39,1.34-2.16,1.69-3-.33.5-.76,1.62-.14,1.91s1.56-1.54,1.95-2.08c-.14.62,0,1.65.65,1.78.83.17,2-2.15,2.45-2.67,0,.5,0,1.88.55,2.11,1.1.43,2.75-2.09,3-3-.59,2.93,3.86.87,2.55-1.87-.26.93.27,2,1.26,1.84,1.15-.2,1.5-2,2-2.81.15.3.54.37.68.55a3.13,3.13,0,0,0,.09-3.1c-.46-1-.63-1-1.71-1.07-1.83-.05-2.68.84-4.55,1.66a22,22,0,0,1-8.94,2.11A16.09,16.09,0,0,1,80.93,269c-1.2-.63-2.47-.82-3.51-1.61-.77-.58-2.1-2.35-3.15-2.26-.71,1.27,1,1.77,2,1"/><path class="cls-4" d="M113.29,270.73a12.33,12.33,0,0,0,4.72,1.16c1.82-.08,3.56-.18,5.37-.32a16.24,16.24,0,0,0,4.75-1.38,22.26,22.26,0,0,0,4.61-1.92,15.92,15.92,0,0,0,3.72-4.36c.71-1.29,1.65-4.42,3.08-4.13.82.17,2,2.81,2,3.78.07,2.4-3.41,3.83-2.87.85.42,1.71.79,4-.5,5.74a1.55,1.55,0,0,1-.82-1c-.58,1-.88,2.08-1.46,3.05a2.26,2.26,0,0,1-.54-1.65c-.56.93-.87,2.05-1.42,3a1.54,1.54,0,0,1-.48-1.21c-.58,1.77-2.64,4.26-3.57,2-.42.43-1.12,2-1.64,2.06-1,.13-.45-1.84-1-2.3-.22.55-1.19,2.44-1.82,2.51-.88.09-.89-1.4-1.19-2-1,2.11-2.51,3.53-2.84.75a9.88,9.88,0,0,1-1.81,2.42c-.47-.27-.48-.95-.66-1.38-.28.65-1.24,2.2-2,2.23-1,.06-.83-1.21-.22-2.09-1.5,2.86-3.35-.35-1.19-1.21-.73.52-2.16,1.57-2.94,1.21s-.28-1.66-.29-2.49c-.58.91-2,2.65-2.87,1.75.27-.87.57-2.14,1.53-2.19-.17.81-1.35,1.88-1.57.65a8.14,8.14,0,0,1,1.24-2.86c.86-.77,3.47-1.25,3.88-.24"/></g></g></svg>