<svg xmlns="http://www.w3.org/2000/svg" viewBox="0 0 196.64 349.6"><defs><style>.cls-1{fill:#007293;}.cls-2{fill:#e30613;}.cls-3{fill:#1d1d1b;}.cls-4{fill:#fff;}</style></defs><g id="Ebene_2" data-name="Ebene 2"><g id="Ebene_1-2" data-name="Ebene 1"><path class="cls-1" d="M118.63,329.45a18.61,18.61,0,0,1,.61-5.82c.68-2.18,1.08-4.3,1.59-6.53,1-4.23,1.35-9.34-1.58-12.93-1.08-1.32-2.76-2.12-3.91-3.33s-2-2.68-3.13-3.93c-.58.26-1.17,1.27-1.67,1.73s-1.06,1-1.62,1.48c-1.54,1.18-3.66,2-5,3.33-.86.84-.68,1.61-.1,2.56a14.26,14.26,0,0,1,1.92,3.51,40.11,40.11,0,0,1,.88,6.47,41,41,0,0,1,0,8.58c-.21,1.84-1,4.65-2.48,5.93-1.35,1.12-3.36,2.84-5.19,3.11.07,1.2-.85,2.43.4,3.32a9.92,9.92,0,0,0,3.15,1,42,42,0,0,0,4.17.8c1.83.3,3.76.93,5.63.78a9.41,9.41,0,0,0,5.43-2.53C119.27,335.27,118.63,331.59,118.63,329.45Z"/><path d="M32.07,167.51c0,15.71,6.63,32,10.39,47.13,3.42,13.79,10.87,27.43,17.07,39.69,4.51,8.92,12,18.27,17.68,26.64,2,2.94,4,5.85,6.16,8.7,4.63,6.23,9.7,13.22,16.25,17.61,7.12,4.77,15.28-3.79,15.58-10.94.12-2.86-3.88-5.16-5.75-7-3.6-3.49-6.21-8.08-8.67-12.41-10-17.67-13.33-38-20.68-56.78,4.67,8.32,15.25,20.88,19.36,29.51,4.79,10.07,9.73,20.32,15.08,30.13a47.28,47.28,0,0,0,6.27,8.39c1.37,1.59,2.11,3.8,3.15,5.61,1.21,2.12,2.48,4.2,3.67,6.34a46.84,46.84,0,0,0,3.25,5.74c1.23,1.63,2.85,1.15,4.85,1.15,3.52,0,7.14-.26,10.64,0,3.32.23,6.57,1,9.81-.37,1-.4,1.83-1,2.8-1.39s2.2-.2,3-.62c1.5-.78.85-2.6.35-3.89-1.52-3.94-4.05-7.69-6.13-11.35-3.54-6.25-7.1-12.53-11-18.56s-7.5-12.73-11-19.1c-7-12.77-15.6-25.5-21.41-39.1-2.79-6.51-5.45-12.8-8.08-19.41-3.28-8.28-8-13.14-16-17.4-14-7.52-41.07-14.69-55.41-6.5l1-.67"/><path class="cls-2" d="M133.72,75.47s10.68,7.79,11.37,13.4,3.66,28.18,5.74,32.32S123,170.44,123,170.44L14.45,136,1.89,132.73,0,111.71l12.88-20.9L50.75,48.1s11-1.42,12.63-2.17,13.88,8.53,13.88,8.53l4.56-8.85,7.86,9,9.06,9.07-8.06,41.79,8.49-34.28,3-9.94,14.42-3.31,4.63,10.87Z"/><path class="cls-1" d="M79.09,39.58l4,13.34,13,15.4,3.22-1.53,7.54-3.14,15-7.49c2.58-7.73-1.55-31.67-1.55-31.67L99.9,18.25,84.67,25.18Z"/><path class="cls-3" d="M93.7,18.37a53.69,53.69,0,0,1,14.65.77,68.39,68.39,0,0,1,16.92,6.15c-.16-11.32-7-21.91-18.74-24.67-14-3.28-22.8,6.86-22.74,20.23A38,38,0,0,1,93.7,18.37Z"/><path class="cls-2" d="M125.25,23.62v-.18a59.9,59.9,0,0,0-18.34-6.51,50.38,50.38,0,0,0-14.4-.42c-3.72.5-7.11,2-10.67,3.08A36,36,0,0,0,74.74,29c-1.16,2.14-.64,6.51-.18,9.11.76,1,1.19,1.33,1.9,2.4,2.07,3.08,2,6.76,4.17,5,1.26-1,.43-5.08,1.4-6.71a47.53,47.53,0,0,1,3.49-4.84c1.2-1.55,2.84-4.12,4.27-5.09.09.22.4.51.5.78a31.21,31.21,0,0,0,6.79-2.88c.93-.5,1.67-1.67,2.71-1.56,1.31.15,1.71,2,3.23,1.88,2.09-.22,3.3-3.95,5.45-4.26,2.93-.42,8,2.71,10.16,4.57,4.06,3.48,3,9.35,4.19,14,.73,2.82-2.16,10,1.87,9.63,2.89-.26,2.7-5.58,4.21-7.56,2.31-3.06,2.31-3.06,2.14-8.5C130.87,29.82,129.32,26.69,125.25,23.62Z"/><polygon class="cls-3" points="70.45 136.41 58.32 134.39 58.53 132.74 69.66 133.54 70.45 136.41"/><path class="cls-4" d="M95.08,39.59S90.84,36.33,89.35,37a2.52,2.52,0,0,0-1.65,1.72A2.59,2.59,0,0,0,89.93,41C92.11,41.31,95.08,39.59,95.08,39.59Z"/><path class="cls-4" d="M113.76,42.18A6.37,6.37,0,0,0,112,40a3.07,3.07,0,0,0-3.19-.16,2.47,2.47,0,0,0-1.12,2.1s1.21,2.22,3.31,2.17C113.53,44,113.76,42.18,113.76,42.18Z"/><path class="cls-3" d="M90.67,38.71a1.48,1.48,0,0,1-2.93-.36,1.48,1.48,0,0,1,2.93.36Z"/><path class="cls-3" d="M110.69,41.69a1.48,1.48,0,1,1-1.3-1.57A1.46,1.46,0,0,1,110.69,41.69Z"/><path class="cls-3" d="M87,34.63s1.52-4.46,4.89-4.16Z"/><path class="cls-3" d="M112.94,32.69s4.54,1.31,4.39,4.69Z"/><path class="cls-2" d="M93.08,56.41c1.94.82,6.23-.68,6.23-.68l1.84.51,1.79-.71s.83,1.81,3.9.42c2.08-.93-5.16,3.94-6.67,3.93C98.89,59.87,91.18,55.62,93.08,56.41Z"/><path class="cls-4" d="M97.24,111.43l4.08,1.35-2-1,5-.9.49,3,3.42,1.13-1.57-.52,4.11-.77-.16,2.08,2.76,1.88-1.87-1.27,4.77.3-.4,2.68,2.14,1.83-.8-.68,3.4-.45.15,1.78,2.12,1.32-.52-.32,2.83.48-.24,2,2.39,1.4-.62-.53,2.63-.27-.67,2,1.48,1.15-.31-.25,2.94.59-.56,1.66,1.5,1.82-.27-.53,2.53-.65v1.92l.85,1.92-.24-.54,2.55.35-.78,2.32a4.38,4.38,0,0,0,1.56.52c.41-.08.41,1,.41,1l1.84-.28-.5,1.49,2.06.17-.94.93,1.43,0-.43,1.29,1.89-.05-.56,1.68,1.54-.69-45.19,56.41-3.92,5.29-.35-1.48-1.53.87-.23-1.57-1,.67.37-1.87-1.27.45.33-1.38-1.67.56.14-1.57-1.63.83L91,199l-1.19,1L89.61,198l-1.6-.05-.62-1.56-.31.89-.29-2-1.14,1.2-.27-2.16-1.61.65-.85-1.49-.85.24-.6-1.49-.79.52-.63-1.49-.72,1-.11-1.17-1.92,1v-1.92l-1.1,1.05-.28-1.88-1,1.46,0-1.78-.53,1.6L74,188.84l-.33,1-.51-1.41-1.35.92,0-1.38-1.09,1.41-.15-1.45-.43,1.27Z"/><polygon class="cls-4" points="43.8 177.76 23.7 170.39 47.57 96.87 50.89 94.69 68.95 102.02 43.8 177.76"/><polygon class="cls-3" points="63.96 113.12 53.48 109.63 54.46 106.71 65.35 111.1 63.96 113.12"/><polygon class="cls-3" points="54.76 143.01 43.62 139.32 44.38 137.09 55.68 140.19 54.76 143.01"/><polygon class="cls-3" points="53.15 147.84 42.02 144.15 41.96 141.66 53.89 145.62 53.15 147.84"/><polygon class="cls-3" points="49.58 158.61 38.44 154.91 38.99 153.3 50.31 156.37 49.58 158.61"/><polygon class="cls-3" points="47.77 164.02 36.64 160.33 38.01 158.29 48.51 161.79 47.77 164.02"/><polygon class="cls-3" points="45.71 170.2 34.74 166.08 35.48 163.84 46.6 167.53 45.71 170.2"/><polygon class="cls-3" points="60.11 128.67 48.45 124.8 49.16 122.68 60.28 126.37 60.11 128.67"/><polygon class="cls-3" points="57.52 134.67 46.9 131.14 47.29 128.3 58.4 131.99 57.52 134.67"/><polygon class="cls-3" points="61.87 123.37 50.4 118.92 51.11 116.78 62.94 120.12 61.87 123.37"/><polygon class="cls-3" points="50.31 182.31 43.48 176.95 68.95 102.02 77.35 100.94 50.31 182.31"/><polygon class="cls-3" points="101.32 112.78 73.48 187.62 97.69 111.58 101.32 112.78"/><polygon class="cls-3" points="105.62 114.22 108.18 115.06 73.48 187.62 105.62 114.22"/><polygon class="cls-3" points="111.45 116.46 113.32 117.72 74.57 187.28 111.45 116.46"/><polygon class="cls-3" points="115.82 119.44 117.96 121.27 77.57 184.3 115.82 119.44"/><polygon class="cls-3" points="120.72 121.92 122.77 123.24 82.88 180.09 120.72 121.92"/><polygon class="cls-3" points="124.9 125.41 127.29 126.81 89.58 173.37 124.28 125.81 124.9 125.41"/><polygon class="cls-3" points="91.31 175.37 130.11 129.2 128.63 128.05 91.31 175.37"/><polygon class="cls-3" points="132.18 131.21 133.68 133.02 101.64 167.78 132.18 131.21"/><polygon class="cls-3" points="136.23 134.44 136.78 135.68 105.83 167.68 136.23 134.44"/><polygon class="cls-3" points="139.87 138.33 117.31 158.71 138.8 138.04 139.87 138.33"/><polygon class="cls-3" points="97.24 111.43 96.1 109.24 77.35 100.94 50.31 182.31 70.14 189.21 97.24 111.43"/><polygon class="cls-3" points="110.46 218.88 97.5 205.58 146.61 143.88 162.57 160.99 110.46 218.88"/><path class="cls-4" d="M147.64,154.87a1,1,0,1,1-.57-1.32A1,1,0,0,1,147.64,154.87Z"/><path class="cls-4" d="M150.48,155.81a1,1,0,1,1-1.81-.6,1,1,0,1,1,1.81.6Z"/><path class="cls-4" d="M152.9,158.9a1,1,0,1,1-.56-1.33A1,1,0,0,1,152.9,158.9Z"/><path class="cls-4" d="M150.88,161.93a1,1,0,0,1-1.25.7,1,1,0,0,1-.56-1.31,1,1,0,1,1,1.81.61Z"/><path class="cls-4" d="M147.21,159.57a1,1,0,0,1-1.24.72,1.09,1.09,0,0,1,.68-2A1,1,0,0,1,147.21,159.57Z"/><path class="cls-4" d="M129.81,182.78a1,1,0,0,1-1.24.73,1.09,1.09,0,0,1,.68-2A1,1,0,0,1,129.81,182.78Z"/><path class="cls-4" d="M125.75,183.9a1,1,0,1,1-1.82-.59,1,1,0,0,1,1.26-.73A1,1,0,0,1,125.75,183.9Z"/><path class="cls-4" d="M130.94,187.1a1,1,0,0,1-1.23.74,1,1,0,0,1-.58-1.34,1,1,0,1,1,1.81.6Z"/><path class="cls-4" d="M108.85,201.75a1,1,0,1,1-1.81-.59,1,1,0,1,1,1.81.59Z"/><path class="cls-4" d="M127.11,187.89a1,1,0,0,1-1.25.73,1,1,0,0,1-.56-1.33,1,1,0,0,1,1.25-.71A1,1,0,0,1,127.11,187.89Z"/><path class="cls-4" d="M126.91,191.53a1,1,0,1,1-1.82-.58,1,1,0,0,1,1.25-.74A1,1,0,0,1,126.91,191.53Z"/><path class="cls-4" d="M125.43,196a1,1,0,1,1-.57-1.32A1,1,0,0,1,125.43,196Z"/><path class="cls-4" d="M112.62,205.41a1,1,0,1,1-1.82-.6,1,1,0,1,1,1.82.6Z"/><path class="cls-4" d="M115.49,202.82a1,1,0,1,1-1.82-.6,1.06,1.06,0,0,1,1.25-.74A1,1,0,0,1,115.49,202.82Z"/><path class="cls-4" d="M122.35,199.18a1,1,0,0,1-1.25.71,1,1,0,0,1-.55-1.32,1,1,0,0,1,1.25-.73A1,1,0,0,1,122.35,199.18Z"/><path class="cls-4" d="M112.39,197a1,1,0,1,1-1.82-.6,1,1,0,1,1,1.82.6Z"/><path class="cls-4" d="M122.49,190.62a1,1,0,0,1-1.23.73,1.09,1.09,0,0,1,.68-2.06A1,1,0,0,1,122.49,190.62Z"/><path class="cls-4" d="M116.16,194.74a1,1,0,0,1-1.25.71,1,1,0,0,1-.57-1.31,1,1,0,1,1,1.82.6Z"/><path class="cls-4" d="M118.63,190.32a1,1,0,1,1-1.81-.6,1,1,0,1,1,1.81.6Z"/><path class="cls-4" d="M121.19,194.59a1,1,0,0,1-1.24.72,1,1,0,0,1-.57-1.34,1,1,0,1,1,1.81.62Z"/><path class="cls-4" d="M114.76,198.93a1,1,0,1,1-1.81-.6,1.05,1.05,0,0,1,1.26-.74A1,1,0,0,1,114.76,198.93Z"/><path class="cls-4" d="M118.69,199.09a1,1,0,1,1-1.82-.61,1,1,0,1,1,1.82.61Z"/><path class="cls-4" d="M129.87,179.55a1,1,0,0,1-1.24.73,1.05,1.05,0,0,1-.57-1.34,1,1,0,0,1,1.25-.71A1,1,0,0,1,129.87,179.55Z"/><path class="cls-4" d="M143.8,158.44a1.05,1.05,0,0,1-1.26.72,1.1,1.1,0,0,1,.69-2.06A1.05,1.05,0,0,1,143.8,158.44Z"/><path class="cls-4" d="M145.76,164a1,1,0,0,1-1.25.72,1,1,0,0,1-.59-1.32,1,1,0,1,1,1.84.6Z"/><path class="cls-4" d="M148,166.35a1,1,0,1,1-1.82-.6,1,1,0,1,1,1.82.6Z"/><path class="cls-4" d="M144.31,168.35a1,1,0,0,1-1.26.72,1.09,1.09,0,0,1,.68-2A1,1,0,0,1,144.31,168.35Z"/><path class="cls-4" d="M141.11,163.5a1,1,0,0,1-1.25.72,1,1,0,0,1-.58-1.32,1,1,0,0,1,1.26-.74A1.07,1.07,0,0,1,141.11,163.5Z"/><path class="cls-4" d="M136.36,166.11a1,1,0,0,1-1.24.73,1,1,0,0,1-.56-1.33,1,1,0,0,1,1.24-.73A1,1,0,0,1,136.36,166.11Z"/><path class="cls-4" d="M133.74,171a1,1,0,1,1-.58-1.33A1,1,0,0,1,133.74,171Z"/><path class="cls-4" d="M126.55,178.45a1,1,0,0,1-1.25.72,1.09,1.09,0,1,1,1.25-.72Z"/><path class="cls-4" d="M122.87,186.49a1,1,0,0,1-1.24.73,1,1,0,0,1-.57-1.34,1,1,0,1,1,1.81.61Z"/><path class="cls-4" d="M137.5,170.4a1,1,0,1,1-.56-1.34A1,1,0,0,1,137.5,170.4Z"/><path class="cls-4" d="M131,176.05a1,1,0,1,1-.56-1.32A1,1,0,0,1,131,176.05Z"/><path class="cls-4" d="M140.76,167.56a1,1,0,0,1-1.25.74A1,1,0,0,1,139,167a1,1,0,0,1,1.25-.73A1,1,0,0,1,140.76,167.56Z"/><path class="cls-4" d="M136.72,175.62a1,1,0,0,1-1.26.71,1.09,1.09,0,0,1,.68-2.05A1.06,1.06,0,0,1,136.72,175.62Z"/><path class="cls-4" d="M141.07,173.42a1,1,0,1,1-1.82-.6,1,1,0,0,1,1.25-.71A1,1,0,0,1,141.07,173.42Z"/><path class="cls-1" d="M41.66,108.41l-12.19-1.84s-6.95,3.22-7.09,3.34c-4.26,3.86-4.49,3.35-6.88,8.31L26,128.41,37.2,137s7.2-.53,7.49-.65c.64-.26-.16-1.43-.16-1.43l3.21,1.1,1.61-3.11-3.19-2.83,5.81-.52,1.29-2.74-4-4.06,6.46,1.08,2.75-4.38-9.4-6.19Z"/><path class="cls-1" d="M146.43,186.33l-.69,7.85-2.45,1.08-1.87,3.13-2.64,3.45-2.5.91-2.9,2-3.73.11-4-4.5-3.93-11.95a1.94,1.94,0,0,1,.77-2.32c.91-.48,3.56,1.19,3.56,1.19a36.51,36.51,0,0,1-3.07-4.78c-.37-1.11,3.12-1.33,3.12-1.33l4,3.32s-1-3.38-.38-4.86,3-.59,3-.59l3,3.24a5.19,5.19,0,0,1-.2-3,1.92,1.92,0,0,1,2-1.08l5.4,3.47Z"/><polygon class="cls-4" points="77.45 100.62 81 102.55 48.97 183.45 47.6 181.23 77.45 100.62"/><path class="cls-1" d="M138.15,303.61h-.06a26.62,26.62,0,0,0,9.24-1.24,17.14,17.14,0,0,1,3.92-1c3-.33,3.17-.89,4.08,2.16.7,2.37,1.66,4.66,2.45,7a75.56,75.56,0,0,0,4.2,9.52c1.12,2.25,2.33,4.31,3.23,6.58a31.63,31.63,0,0,0,3.56,7.18c3.18,4.24,10,5.54,14.92,6.13,4.19.51,11.29.65,12.95,5.25-.62.79-1.7.41-2.58.56.2.56.49,1.18.67,1.74-1.09,1.4-5.85,1.82-7.46,2a48,48,0,0,1-10.09-.33c-3.85-.51-7.66.75-11.48.39-3-.29-7.56-.28-9.1-3.44-1.2-2.44-.76-5.89-1.53-8.51-1.07-3.64-3-7.19-4.2-10.93a71.69,71.69,0,0,0-5.76-13.48c-.94-1.67-1.83-3.36-2.85-5-.72-1.15-2.11-2.89-2.2-4.21"/></g></g></svg>