<svg xmlns="http://www.w3.org/2000/svg" viewBox="0 0 246.65 372.62"><defs><style>.cls-1{fill:#1d1d1b;}.cls-2{fill:#007293;}.cls-3{fill:#fff;}.cls-4{fill:#e30613;}.cls-5{fill:#b2e0f9;}</style></defs><g id="Ebene_2" data-name="Ebene 2"><g id="Ebene_1-2" data-name="Ebene 1"><path class="cls-1" d="M143.33,234.05c1.34,3.74,5.59-1.31,6.72-2.39,2.71-2.59,2.65-3.08,1.41-6.75-1-2.88.17-6.73-.26-9.74a7.46,7.46,0,0,1,.16-3.88c.47-1.55,1.3-2.6.82-4.27a8.25,8.25,0,0,0-2.68-3.59c-2.69-1.36-2.64.88-3.75-2.3-.64-1.82-1.14-4.24-3.3-4.89s-4.38,1.39-6,2.6a2.26,2.26,0,0,0-2.9-3c-1.77.59-2.35,2.86-3.16,4.25-3.47-3.32-5.68.44-7.86,2.61-.7-2.86-1.91.42-2.81.7-1.27.4-3.94-1.13-5.4-1.29a7.3,7.3,0,0,0-.26,3.22c-3.22-5.44-10.39,2.07-7.91,6.31-3.5-.76-7.45-.12-7.64,4.3,0,.77.41,1.57.34,2.35-.1,1.17-.4.94-.9,2.11-.83,1.93-1.52,3.31-1,5.48.3,1.31,1.6,2.87,1.73,4.12.15,1.53-.84,2.92-.89,4.61-.18,5.14,3.69,6.36,6.77,2.5-.87,4.67,6.67,1.61,8.26.7-.87,3.1,4.83,2.8,6.33,1.29-3.36,3.79,11.37,11.55,11.09,4.79.78,4.76,12.52,1,8.61-2.92C142.57,243.37,146.28,236.51,143.33,234.05Z"/><path class="cls-2" d="M142,230.78c.13.67,1.28,0,1.63-.2a3,3,0,0,0,1.22-1.67c.48-1.61-.37-2.41-1.29-3.66.46-.73,1.31-1.11,1.74-1.94a9.49,9.49,0,0,0,.86-2.62,11.2,11.2,0,0,0-.55-5.57,9.46,9.46,0,0,0-9.93-6.11,9,9,0,0,0-2.81,1,7.43,7.43,0,0,0-2.48,1.4c-1.37,1.4-2.08,3.26-3.17,4.8A7.67,7.67,0,0,0,126,218.8c-.25.9-1.16,1.21-1.71,2a6.23,6.23,0,0,0,0,6.4c.93,1.55,2.68,2.3,4.13,3.29a11.13,11.13,0,0,0,4.27,1.81,9,9,0,0,1,2.26.55,7.71,7.71,0,0,0,2.07.87c1.6.3,2.37.21,3.53-.9"/><path class="cls-3" d="M133.39,219.72s.09.27,0,0c.79-.85,1.34-1.57,2.7-1.07a2.9,2.9,0,0,1,1.55,2.11c-.58-.17-.72.52-1.07.8a1.83,1.83,0,0,1-1.71.25c-.49-.24-1.7-1.91-1.29-2.31"/><path class="cls-3" d="M142.35,222.39c0,.11.09.13.12,0,.16-.54.68-1.3,1.34-1.22s.77.88.72,1.47c-.16,2.11-2.34.66-1.8-.34"/><path class="cls-1" d="M135.89,220.32c-.08-.67-2.12.3-1,1.24a.86.86,0,0,0,1.28-.33c.39-.67-.07-.84-.27-1.15"/><path class="cls-1" d="M144.26,222.15c.17-.79-2-.77-1.51.68s2.26-.24,1.26-1.33"/><path class="cls-4" d="M139.76,222.87c-1.16-.28-1.74.47-1.8,1.61-.09,1.51,1.73,2.25,3,2,1.56-.25,1.69-1.87.61-2.88-.77-.71-3-1.43-3,.22"/><path class="cls-2" d="M141.93,226.54s0-.08,0-.11"/><path class="cls-1" d="M137.47,220.77c.06-.07-.57-.73-.72-.87a2.24,2.24,0,0,0-.92-.56,2.58,2.58,0,0,0-1.4-.14,4,4,0,0,0-1.06.47c0-.27.14-.52.19-.79a.66.66,0,0,0,.15.27c.12-.16.17-.37.31-.54,0,.07.08.21.12.29.08-.11.16-.44.3-.49s.13.26.14.38c.21-.12.27-.49.53-.56a3.41,3.41,0,0,1,0,.42c.16-.16.3-.48.53-.54,0,.2,0,.38-.05.57.15-.09.25-.43.46-.41a1.51,1.51,0,0,0,0,.73,1.36,1.36,0,0,1,.41-.45c.09.13-.05.39,0,.56.1,0,.35-.29.47-.22s0,.52,0,.65c.16-.07.27-.42.5-.36,0,.28-.14.57-.15.85.11-.11.2-.3.32-.43a1.93,1.93,0,0,1-.06.76,1.1,1.1,0,0,1,0,.49"/><path class="cls-1" d="M142.49,222.27c-.23-.37.27-1.18.64-1.27a.83.83,0,0,1,0,.22c.17-.1.22-.36.4-.45.05.11,0,.23,0,.31.07-.11.22-.37.35-.35a1.93,1.93,0,0,0,0,.34c.07-.08.15-.21.27-.25a1.64,1.64,0,0,0,0,.38l.18-.19a1.22,1.22,0,0,1,0,.47c.1,0,.17-.18.29-.17s-.05.34,0,.45a1.27,1.27,0,0,0,.13-.19,1.37,1.37,0,0,0,0,.61c0,.13,0,.26-.07.39.14-.55-.51-1.1-1-1.21s-1.08.69-1.33,1"/><path class="cls-1" d="M146.1,213.06a.89.89,0,0,0-.17.67,7.43,7.43,0,0,1-3-.79c-1-.56-1.41-1.61-2.6-1.66s-1.27,1.13-2.61.67c-.73-.25-1.33-1.33-1.89-1.83a5.86,5.86,0,0,1-2.45,2.35c-.51.31-1.29.07-1.64.43-.56.58-.22,1.32-.63,1.92-.67,1-2,1.31-2.67,2.25s-.62,3.13-1,4.3c-.73-.61-.78-1.76-1-2.78-.91-.27-1.91-.38-2.82-.66-1.16-7,3.63-12.58,10.33-14.07a12.48,12.48,0,0,1,7.86,1.11c1.79,1,6.4,5.55,4,7.28"/><path class="cls-1" d="M133.21,217.89c.07,0,0,0,0,0,0-.27.45-.57.65-.74.39-.31.78-.6,1.19-.89a7.25,7.25,0,0,1,1.92-1.07,1.28,1.28,0,0,1,1.69,1.52c-.3-.05-.58-.3-.94-.34a6,6,0,0,0-1.87.32,6.68,6.68,0,0,0-2.68,1.15"/><path class="cls-1" d="M145.8,221.09c-.15-.08-.18-1.05-.25-1.33a5.24,5.24,0,0,0-.48-1.23,3.51,3.51,0,0,0-1.32-1.16c.07-.22.05-.47.14-.71a1.38,1.38,0,0,1,1,.79,9.42,9.42,0,0,1,.55,1.57,4.13,4.13,0,0,1,.37,2.36"/><path class="cls-2" d="M139.83,238.38c1.5-1.14,3.22-1.3,4.84-2.24a19.07,19.07,0,0,0,4-3.64,67.44,67.44,0,0,1,10.91-9.11c4.24-2.81,7.62-6.47,11.3-9.95a107.37,107.37,0,0,0,10-11.25c1.74-2.19,4.17-4,5.85-6.2s2.44-4.29,5.06-6c1.87-1.22,5.27-3.13,6.2.26.17.61-.21,3.69-.67,4-1.59,1.09-.36-1.67-1.72-2a1.54,1.54,0,0,0-.1-.52c-2.32,2.61-5.09,4.94-6.65,7.91-1.92,3.69-5.66,6.63-8.49,9.63-3.92,4.14-7,8.94-11.1,12.89s-7.85,8.47-12.48,11.63c-2.66,1.82-5.72,3.12-8.38,5-2.09,1.46-3.93,3.1-6,4.47-1.82,1.2-3.92,2.14-5.61,3.44-1.12.85-2.4,2.27-3.93,1.39-.32-2.34,1.6-4.13,2.92-5.84a12.89,12.89,0,0,1,2-2.48c1-.79,1.3-.59,2.49-1"/><path class="cls-5" d="M150.09,66.67c7.16-.74,14.89.17,22,1.32a149.09,149.09,0,0,1,25.21,6.33,112.16,112.16,0,0,1,25.39,12.36c5.22,3.48,11.14,7.77,13.48,13.83a38.62,38.62,0,0,1,2.25,8.71c.36,2.53,1.31,7.07.42,9.15.39-.91-.07-3-.11-3.94-.07-1.52-.14-3-.22-4.56-.16-3.06-.3-6.25.77-9.17.58-1.59,2.1-5,4.08-5a2.24,2.24,0,0,1,1.83.91c.29.34.64,1.83,1,1.91,1,.23-.37-4.92-.51-5.7-.91-5,.4-10,.15-15-.31-6.1-.77-12.19-1.56-18.25-.93-7.06-2.15-13.69-5.39-20a91.43,91.43,0,0,0-5-8c-1.36-2.12-2.27-4.27-4.08-6.07-2.2-2.18-4.53-4.24-6.75-6.39C204,.47,169.27-6.22,146.65,8.38a15.2,15.2,0,0,1-2.83,1.83,6.24,6.24,0,0,0-2.1.85c-1.54,1.16-3.06,2.35-4.57,3.54a37,37,0,0,0-8,8.08c-1.38,2-3.08,3.88-4.35,5.95-1.9,3.09-3.26,6.36-5.07,9.46-.75,1.3-1.56,2.55-2.21,3.86-1.73,3.49-3.75,7.08-5.11,10.7a48.73,48.73,0,0,1-3.25,6.89,31.24,31.24,0,0,0-2.49,6.64c-.71,2.45-1.84,4.64-1.82,7.22.92-.84,1.92-2.34,3.25-2.52,2-.28,2.52,1.82,2.55,3.39,0,2.06-.79,4-1.28,6a58.66,58.66,0,0,1-3.76,11c-3.52,7.38-7.19,14.14-5.52,22.45.82-2.23.94-5.21,1.49-7.74.7-3.19,1.28-6.5,2.23-9.63a26.7,26.7,0,0,1,6.39-11,13,13,0,0,1,4.18-2.62c1.87-.88,3.41-2.45,5.07-3.67a65.37,65.37,0,0,1,24-11.28A53,53,0,0,1,150.09,66.67Z"/><path class="cls-3" d="M130.5,59.71c1.4-.38,2.72-1.68,3.91-2.5a52.86,52.86,0,0,1,8-5.05,127,127,0,0,1,13.95-5c10.21-3.23,20.53-3.67,31.09-2.34,11,1.37,21.08,7.24,30,13.35,3.49,2.4,7.92,5.38,10.45,8.87,3,4.12,5.14,9.21,7.31,13.82.73,1.54,1.49,3.13,2.22,4.61-1.5-1.57-1.78-3.85-2.61-5.75a43.42,43.42,0,0,0-5.1-8c-4.52-6.1-11-11.41-17.22-15.67C196.12,44.93,172.26,37.43,153,45c-11.41,4.5-20.91,11.67-30.44,19.28a2.58,2.58,0,0,0,.34-.5"/><path class="cls-3" d="M140.45,39.56a12.43,12.43,0,0,0,2-1.48,44.42,44.42,0,0,1,5.23-3.37,81.35,81.35,0,0,1,15.91-7.21,72.4,72.4,0,0,1,29.29-2.95c15.61,1.58,27,13.76,35.79,25.47-3.08-5.11-4.86-10-9.55-14-6.64-5.57-14.37-10.37-22.81-12.51-6-1.51-12-1.25-18.06-.6s-12.44,1.48-18.27,4c-2.81,1.19-5.06,3.14-7.74,4.52a58.6,58.6,0,0,0-7.08,3.86c-1.17.83-4.85,4.7-5.74,4.51"/><path class="cls-3" d="M201.42,15.08a47,47,0,0,1,7.8,4.92A24.14,24.14,0,0,1,213,24a14.31,14.31,0,0,0,2.58,3c.69-1-.76-3.28-1.39-4.11a26.53,26.53,0,0,0-3-3.14A37.78,37.78,0,0,0,205.82,16a28.56,28.56,0,0,0-5.14-2.54c-2.81-1.1-5.7-2.35-8.75-2.61a54.37,54.37,0,0,0-10.52.15c-6.59.74-12.31,3.33-18.35,5.78a64.48,64.48,0,0,0-7.75,3.35,51.27,51.27,0,0,0-7.05,4.24c-.93.76-1.81,1.57-2.74,2.34a10.18,10.18,0,0,0-2.1,1.75c4.57-2.57,8.79-5.78,13.51-8.11,2.88-1.42,5.85-2.51,8.8-3.77,5.55-2.37,11-4.38,17-5.12C189.09,10.65,195.78,12.31,201.42,15.08Z"/><path class="cls-3" d="M123.8,31.41c.53-.87,1.08-1.74,1.62-2.6a56.76,56.76,0,0,1,9.67-11.13c4.94-4.42,9.85-9.29,16.07-11.86A69,69,0,0,1,164.6,1.53a40.6,40.6,0,0,1,7.71-.82,51.69,51.69,0,0,1,9.83.71c-.13,0-.24-.12-.37-.15A44.93,44.93,0,0,0,165.21.42a55.68,55.68,0,0,0-9.12,2.46,38.51,38.51,0,0,0-4.3,1.65,57.07,57.07,0,0,0-11.45,6.7,62.85,62.85,0,0,0-10.85,11.14A128.86,128.86,0,0,0,120.11,36c-1.48,2.48-2.57,5.12-3.89,7.66s-2.71,5-3.81,7.64-1.94,5.5-3,8.26c-.76,1.89-1.54,3.84-2.4,5.72a23.87,23.87,0,0,0-1.56,3.6c-.39,1.45,0,3-.54,4.46,1.06-2.67,1.6-5.61,2.57-8.37.39-1.11.79-2.26,1.25-3.31s1.17-2.11,1.68-3.26c2.19-4.9,4.76-9.68,6.63-14.7A35.84,35.84,0,0,1,120.36,37C121.53,35.14,122.66,33.26,123.8,31.41Z"/><path class="cls-5" d="M239,112.52c1.1,2.36-1,6.57-2,8.78a72.08,72.08,0,0,0-3.62,12.51,62.42,62.42,0,0,1-1.75,6.41,28.36,28.36,0,0,1-2.27,4.93c-2,3.63-4.4,7.21-6.16,11-2.67,5.72-6.23,11.38-9.22,17-.88,1.63-2.27,2.91-3.29,4.47a42.08,42.08,0,0,1-2.77,3.82c-2.07,2.53-4.13,4.85-6.41,7.21a28.73,28.73,0,0,1-3.12,3c-.86.65-2.35,2.54-3.45,2.49-3.63-.16-.35-7.15.42-8.7,1.65-3.32,3.68-6.48,5.36-9.74,1.83-3.54,3.48-7.11,5.3-10.65,1.62-3.15,3.61-6,5.21-9.16s3.65-6.09,5.41-9.2c1.54-2.74,3-5.53,4.61-8.33.94-1.59,1.82-3.11,2.9-4.66.88-1.25,2-2.3,2.86-3.58,1.25-1.89,2.31-3.9,3.57-5.79,1.85-2.77,3.7-5.51,5.44-8.31,1.64-2.61,3.85-4.79,5.64-7.29a44.2,44.2,0,0,0,3.31-5.15c.6-1.15,2.19-3.56,1.41-4.81-2.34,5.7-6.84,9.93-9.91,15.19s-7.1,10.29-10.42,15.52c-3.55,5.57-7.24,11.34-10.61,17.13-3.77,6.45-7,13-10.47,19.68-2.87,5.58-5.53,11.1-8.5,16.52-1.31,2.39-3.48,5.11-4.16,7.64-.33,1.24-.21,3.91,1.2,4.61s2.69-1.58,3.65-2.45c1.23-1.12,2.57-2.14,3.77-3.35,2.2-2.22,4.38-4.63,6.58-7,6.11-6.46,10.45-13.66,14.35-21.59,2.19-4.48,5.08-8.5,7.23-13a79.3,79.3,0,0,0,5.25-16c1-4.35,1.77-9.86,3.74-13.7"/><path class="cls-1" d="M118.94,227.8c-.17,1.49-1.36,3.29-2,4.66s-1.45,3-2.24,4.44c-.58,1.1-1,2.47-1.56,3.66a26.06,26.06,0,0,1-2.31,4.07c-2.76,4.2-6.27,7.87-9,12.07-2.11,3.2-4.78,6-6.64,9.4a5.27,5.27,0,0,0-.73,2.07c-.1,1,.15,1.08,1,1.54,2.08,1.21,4.07,2.64,6.17,3.83,6.09,3.46,12.78,5.51,19.47,7.69-.2-1.53.52-3,1.08-4.43a64.4,64.4,0,0,0,2.32-7.21,56.87,56.87,0,0,1,2.83-8.18c.93-2.09,1.59-4.38,2.61-6.38a88.74,88.74,0,0,1,4.81-9c1.79-2.71,3.77-5.28,5.71-7.72a27.74,27.74,0,0,0-3.42-2.48c-2.89,2.18-6.14,9-10.36,6.58a6,6,0,0,1-3-5.27c.06-2.16-.33-5,.42-7.07-1.56-1.24-3.39-1.34-5.12-2.13a2.93,2.93,0,0,0,1.25.61"/><path class="cls-3" d="M113.1,240.59a27,27,0,0,1-2.3,4c-.32.48-.65,1-1,1.42a114.11,114.11,0,0,0,19,11.28,23.86,23.86,0,0,1,1-2.3c.77-1.51,1.5-3.05,2.28-4.56C125.73,247.25,119.4,243.94,113.1,240.59Z"/><path class="cls-3" d="M123.71,231.28l-1.87-.88q-1.59-.74-3.21-1.44a34.55,34.55,0,0,1-1.72,3.5c-.54,1.09-1.08,2.2-1.64,3.29a85.36,85.36,0,0,1,8.4,2.53,5.77,5.77,0,0,1-.09-1.1A41.84,41.84,0,0,1,123.71,231.28Z"/><path class="cls-3" d="M136.31,236.39c-1.44,1.35-3,3.57-4.67,5.06q2.37,1,4.7,2.15c1.31-1.82,2.66-3.57,4-5.25l-1.21-.95Z"/><path class="cls-3" d="M119.16,260.55A55,55,0,0,1,105.23,252c-1.08,1.38-2.15,2.77-3.14,4.22,6.26,3.88,12.28,8.14,18.85,11.5,1.15.59,2.32,1.15,3.49,1.7a60.9,60.9,0,0,1,2-6.17A76.8,76.8,0,0,1,119.16,260.55Z"/><path class="cls-3" d="M99.36,260c-1,1.27-2,2.53-2.86,3.86.79.47,1.56.94,2.34,1.43,6.36,4,12.48,8.37,18.94,12.22,1.1.66,2.21,1.3,3.33,1.93a20.1,20.1,0,0,1,1-2.63c.31-.78.6-1.58.87-2.39A206.32,206.32,0,0,1,99.36,260Z"/><path class="cls-1" d="M140.34,361.61c.62,1.33,2.44.52,3.51.1.61-.24.94-.32,1.26-.85s.17-1.06.5-1.39c.45.65,1.27.38,1.94.39s1.5.09,2.24.15c1.49.14,3,0,4.45.12a20.72,20.72,0,0,0,4.58.13c1.23-.1,2.76-.44,4,0s2.13,2.31,2.63,3.54c.27.65.62,1.12.06,1.67a5.91,5.91,0,0,1-2.12.9c-2.92.86-6.13.85-9.14,1.39a18.81,18.81,0,0,1-2.06.42,8.81,8.81,0,0,1-1.71.22c-.28.76,0,2-.7,2.55a3.8,3.8,0,0,1-1.65.41c-.72.17-1.32.27-2,.5-1,.32-2,.32-3.06.61a2.11,2.11,0,0,1-1.38.06,7.66,7.66,0,0,1-.82-1c-1.08-1.39-2.63-3.19-2.79-5.08a4.08,4.08,0,0,1,.62-2.9c.28-.37.55-.82.83-1.12s.81-.41,1-.83"/><path class="cls-1" d="M140.22,362.06c.25,0-1.43-3.37-1.66-3.82a5.22,5.22,0,0,0-.74-.93c-.4-.38-.42-.33-.92-.36-.66,0-1.24-.4-.9-1.11a7.78,7.78,0,0,1-1.07.21.75.75,0,0,1,.4-1.2,1,1,0,0,1-.49-1.27,2.64,2.64,0,0,1,.4-.57c.35-.27.4-.05.73-.05a2,2,0,0,0,1.38-.55,3.94,3.94,0,0,1,1.57-.58c.94-.13,2.37-1.14,3.27-.85,1.2.37,0,.65,0,1.12s1.1.11,1.12.7a1.4,1.4,0,0,1-.55.41c.06.67,1.21,0,.84,1-.15.43-.25.28-.15.77a4.5,4.5,0,0,0,.51,1,17.83,17.83,0,0,1,.65,2,19.73,19.73,0,0,1,.75,1.93,2.84,2.84,0,0,1-.58,2,2.24,2.24,0,0,1-1.48,1c-1.33.39-2.25-.38-3-1.37"/><path class="cls-3" d="M134.81,353.86a2.27,2.27,0,0,0,1.07.15,5.92,5.92,0,0,0,1.12-.07,12.24,12.24,0,0,0,2-.69,8.79,8.79,0,0,0,.9-.34c.25-.14.49-.37.74-.53a4.89,4.89,0,0,1,1.67-.85c0,.29-.25.5-.23.81-.15.07-.32.11-.49.2s-.2.18-.33.28a3.57,3.57,0,0,1-1,.51c-.36.14-.71.3-1.07.42s-.76.12-1.11.21a7.38,7.38,0,0,0-1.05.41,2.28,2.28,0,0,1-1.19.1,5,5,0,0,1-.77-.16c-.09,0-.36-.1-.39-.2s.26-.3.38-.15"/><path class="cls-3" d="M136,355.76c.11,0,.23.14.35.18a2.65,2.65,0,0,0,.54.09,3.34,3.34,0,0,0,1.09.06,14.74,14.74,0,0,0,2.2-.55,7.71,7.71,0,0,0,1.93-.88,1.28,1.28,0,0,0,.39-.85,2.93,2.93,0,0,0,.15-.76c-.27.08-.2.38-.37.55a2.55,2.55,0,0,1-.88.36c-.62.18-1.24.11-1.85.35a14.63,14.63,0,0,0-1.76.77,12,12,0,0,1-1.63.55"/><path class="cls-3" d="M138.19,357.54a2.3,2.3,0,0,0,1.45-.19,15.68,15.68,0,0,0,1.74-.67c.21-.11.45-.28.65-.41s.47-.24.67-.4.43-.86.76-1a6.58,6.58,0,0,1,.29.92c.12.36-.14.66-.37,1a4.27,4.27,0,0,1-1.94,1.24,4.8,4.8,0,0,1-1.95.69.92.92,0,0,1-.68-.26c-.08-.11-.41-.87-.41-.87"/><path class="cls-3" d="M144.42,357.7c.39.06-.18,1.36-.34,1.58a2.4,2.4,0,0,1-.65.58c-.16.1-.39.17-.56.28s-.32.26-.52.36a4.59,4.59,0,0,1-1.81.47c-.2,0-.54,0-.66-.17s-.06-.36-.11-.48a3.69,3.69,0,0,1-.17-.5c.37.32,1,0,1.41-.13a4.27,4.27,0,0,0,1.41-.76c.37-.33.78-.62,1.13-1s.37-.72.63-1a8,8,0,0,1,.39,1.17"/><path class="cls-3" d="M140.2,361.77a1.72,1.72,0,0,0,1.37.3,13.89,13.89,0,0,0,1.73-.47,6.92,6.92,0,0,0,1.39-.76c.38-.23.46-.65.73-.95a1.74,1.74,0,0,1,.09,1.95,5.92,5.92,0,0,1-2.17,1.21,2.65,2.65,0,0,1-2.08.29c-.38-.18-1.22-1.22-.78-1.6"/><path class="cls-2" d="M103.4,293.19c1.16.54,1.44,2.6,2,3.67,1,1.85,2.22,3.88,3.39,5.62,1.55,2.3,3.24,4.39,4.71,6.7,3.11,4.94,5.66,10.39,8.81,15.31a89.17,89.17,0,0,1,7.78,15c.95,2.45,2.22,4.46,3.15,6.88a51.09,51.09,0,0,0,2.66,6.62c2.35.18,3.42-1.38,5.34-2.05-.44-1.72-1.39-3.3-1.88-5s-.82-3.81-1.25-5.43c-1-3.57-2.63-7.06-3.52-10.6-.43-1.72-2.13-3.72-2.17-5.47,0-1.1.72-3,.93-4.18.7-4.13-2.08-6.17-4.53-8.91a18.64,18.64,0,0,1-2.74-3.28c-.87-1.57-1.6-3.31-2.37-4.88-1.59-3.25-3.08-6.57-4.76-9.77-.41-.78-1.72-3.4-2.53-3.74-1.24-.54-3.65.28-5.06.43-2.71.26-8.79.23-7.49,4.35"/><path class="cls-1" d="M17.09,298.06c-1.45.21-1.79-1.89-2-3.09a2.37,2.37,0,0,1,0-1.62c.22-.46.8-.77.9-1.25-.8,0-1-.93-1.41-1.51s-.9-1.31-1.35-1.93c-.94-1.26-1.64-2.7-2.55-3.93a23.29,23.29,0,0,1-2.64-4c-.59-1.18-1.15-2.74-2.17-3.6s-3.11-.58-4.41-.32c-.7.14-1.28.09-1.43.91a6.81,6.81,0,0,0,.41,2.42c.89,3.12,2.67,6,3.88,9a20.68,20.68,0,0,0,.78,2.08,9.44,9.44,0,0,0,.76,1.66c-.48.7-1.65,1.15-1.75,2.11a4.38,4.38,0,0,0,.57,1.71c.25.74.5,1.34.69,2.1.31,1.11.86,2,1.17,3.1.11.38.35,1.07.72,1.26a6.14,6.14,0,0,0,1.32.14c1.76.17,4.11.52,5.78-.43a4.11,4.11,0,0,0,2.09-2.21,12,12,0,0,0,.47-1.39c.11-.52-.1-1,.16-1.36"/><path class="cls-1" d="M16.78,298.43c-.14-.23,3.6-.66,4.11-.7a4.23,4.23,0,0,1,1.18.13c.53.14.51.17.81.61s1,.89,1.42.17a7.76,7.76,0,0,0,.41,1.08c.62,0,.89-.46.79-1.05a.91.91,0,0,0,1.33-.29,2.67,2.67,0,0,0,.25-.68c0-.47-.18-.4-.36-.69a2.33,2.33,0,0,1-.31-1.56,4.12,4.12,0,0,0-.37-1.74c-.4-.91-.35-2.78-1.09-3.43-1-.85-.55.37-.93.66s-.7-.91-1.2-.6a1.8,1.8,0,0,0,0,.73c-.59.34-.64-1.1-1.32-.16-.28.38-.1.39-.57.58a4,4,0,0,1-1.14.13,17.61,17.61,0,0,0-2,.54,15.62,15.62,0,0,0-2,.44c-.68.24-1,1-1.34,1.66a2.62,2.62,0,0,0-.06,1.93,2.67,2.67,0,0,0,2.78,1.86"/><path class="cls-3" d="M26.61,298.56c-.31-.15-.52-.57-.71-.86a6.71,6.71,0,0,1-.57-1.05,14.7,14.7,0,0,1-.53-2.2c-.06-.34-.17-.68-.2-1s0-.65,0-1a5.5,5.5,0,0,0-.22-2c-.21.22-.27.51-.54.67,0,.18.08.36.1.55a2.59,2.59,0,0,1,0,.47,4.37,4.37,0,0,0,.11,1.17c.08.4.14.81.24,1.19a10.45,10.45,0,0,0,.43,1.12,9.87,9.87,0,0,1,.24,1.18,2.58,2.58,0,0,0,.57,1.13,5.29,5.29,0,0,0,.55.6c.07.07.29.27.39.24s.1-.41-.09-.43"/><path class="cls-3" d="M24.39,298.65c-.09-.1-.24-.14-.34-.22a3,3,0,0,1-.37-.43,3.76,3.76,0,0,1-.65-.94,17.21,17.21,0,0,1-.76-2.3,9.76,9.76,0,0,1-.32-2.24,1.35,1.35,0,0,1,.49-.84,2.53,2.53,0,0,1,.56-.57c.08.28-.21.39-.26.65a3,3,0,0,0,.18,1,19.93,19.93,0,0,1,.73,1.86,17.7,17.7,0,0,1,.33,2,14.58,14.58,0,0,0,.43,1.78"/><path class="cls-3" d="M21.67,297.66a2.72,2.72,0,0,1-.64-1.43,16.66,16.66,0,0,1-.39-1.94c0-.25,0-.56,0-.82s-.05-.55,0-.82.48-.89.45-1.28a5.19,5.19,0,0,0-.93.27c-.37.09-.48.5-.61.88a4.77,4.77,0,0,0,0,2.46,5.45,5.45,0,0,0,.5,2.14c.13.21.36.46.59.47s.95-.13.95-.13"/><path class="cls-3" d="M18.11,292.15c-.27-.31-1.05.94-1.13,1.21a2.66,2.66,0,0,0-.13.92c0,.21.07.45.07.66s0,.44,0,.68a5.06,5.06,0,0,0,.6,1.89c.12.19.29.5.51.5s.33-.15.46-.18a3.45,3.45,0,0,0,.51-.13c-.47-.15-.58-.9-.67-1.35a4.79,4.79,0,0,1-.14-1.68c.07-.53.09-1.07.2-1.59a12.24,12.24,0,0,1,.52-1.17,9.6,9.6,0,0,0-1.19.32"/><path class="cls-3" d="M17,298.28a1.83,1.83,0,0,1-1-1,15.93,15.93,0,0,1-.55-1.82,7.54,7.54,0,0,1-.13-1.7c0-.47.29-.78.39-1.19a1.69,1.69,0,0,0-1.68,1,6.62,6.62,0,0,0,.18,2.64,2.92,2.92,0,0,0,.91,2c.36.24,1.69.39,1.77-.22"/><path class="cls-2" d="M94.6,291.86c-1.09-.72-3,.21-4.17.31a62.86,62.86,0,0,1-6.58.18c-2.77-.06-5.45-.38-8.18-.37-5.85,0-11.8.9-17.66.9a82.36,82.36,0,0,0-16.8,1.64c-2.57.55-4.94.57-7.49,1.12a47.37,47.37,0,0,1-7,1.43c-1.45-2-.73-3.86-1.22-6,1.67-.6,3.51-.65,5.22-1.19s3.63-1.46,5.22-2c3.51-1.21,7.35-1.71,10.8-2.94,1.68-.6,4.28-.23,5.76-1.2.93-.6,2.09-2.35,3-3.24,3.06-3,6.3-1.68,9.94-1.06a17.06,17.06,0,0,0,4.25.57c1.78-.12,3.64-.46,5.38-.67,3.58-.45,7.19-1,10.78-1.35.88-.08,3.79-.41,4.52.12,1.14.8,1.78,3.44,2.44,4.78,1.26,2.6,4.64,8,.48,9.25"/><path class="cls-4" d="M82.37,295c1.47.42,2.93.92,4.48,1.29,2.24.54,4.52.93,6.79,1.29a28.79,28.79,0,0,1,6.89,2.45c2.5,1.11,4.15,3.13,6.23,4.79a27.8,27.8,0,0,1,2.47,2c.38.38.74,1.32,1.26,1.52a2,2,0,0,0,2-1.07c.07-.66-.86-1.56-.79-2.42a14.74,14.74,0,0,1,.32-2.72c.54-1.79,2.51-2.75,4.14-3.41a4.47,4.47,0,0,1,5.22,1c1.27,1.48,1.71,3.41,2.75,4.87.23-1,1.43-1.32,1.38-2.19a10.67,10.67,0,0,0-1.3-2.89,61.7,61.7,0,0,0-3.67-6.5,9.74,9.74,0,0,1-1.45-5.51,10.36,10.36,0,0,1,.44-3.18c.26-.87,1.81-3.2,1.44-3.87-.53-1-3.48-1.23-4.45-1.57-2.59-.9-5-1.77-7.46-2.91-.72-.33-1.44-.62-2.14-1-2.77-1.45-5.43-3.1-8.23-4.49-1.26-.62-3-2.09-4.51-1.65-.81.24-1,1-1.51,1.55a8.69,8.69,0,0,1-2.6,1.6c-2,1-4,2.09-6,3a46.62,46.62,0,0,1-4.79,1.88,7.6,7.6,0,0,0-2.06.73c-.58.48-.31,1-.09,1.75,0,.07,4.09-.46,4.68-.19a3.83,3.83,0,0,1,1.92,3.63,8.93,8.93,0,0,1-3,6.78,8.07,8.07,0,0,1-2.69,1,39.15,39.15,0,0,0-4.07,1.41,2.43,2.43,0,0,0,.59,1.86c.55.58,1.29.51,2.15.44A15.43,15.43,0,0,1,82.37,295Z"/><path class="cls-2" d="M128.73,230.83a3.51,3.51,0,0,1-4.92.8c-1.52,1.48-1.35,5.68-1.27,7.58.11,2.42,1.28,5.77,3.72,6.83,2.69,1.17,5.64-1.41,7.24-3.36,1.26-1.53,3.52-4.07,3.84-6-2.57-.12-3.56-2.35-3.66-4.65a14.67,14.67,0,0,0-2.67-.55l-3.24-.87"/><path class="cls-2" d="M119.9,228.49c-1-5.1.41-10.17,1.53-15.55.72-3.43,1.17-6.9,1.65-10.36a15.2,15.2,0,0,1,1-4.32c.6-1.32.39-2.75.6-4.15.18-1.14.25-2.33.43-3.46a39.67,39.67,0,0,0,.43-6.56,20.19,20.19,0,0,0-.28-3.43,5.6,5.6,0,0,1,0-3c.35-.74,1.19-1.24,1.64-1.93s.37-1.84-.39-2.21-2.36.52-3,.93A3.2,3.2,0,0,0,122,177.1c-.42,2.7-1,5.36-1.43,8.1-.61,4.11-1,8.35-1.83,12.46-.52,2.48-1,5-1.63,7.42-.29,1.13-.59,2.24-1,3.34a27.88,27.88,0,0,0-.88,2.84,72.15,72.15,0,0,0-1.83,21c.22,3.32-.17,8.65,3.08,6,2.08-1.72,3.1-8.53,3.87-11.4"/><path class="cls-4" d="M140.31,229.58c-.25-.09-.34-.42-.7-.42a1,1,0,0,1-.73-.3,3.68,3.68,0,0,1-1.27-.1,2.63,2.63,0,0,0,1.56.71c.32.06.7-.06,1,.15a1.41,1.41,0,0,1,.37.59c-.49-.3-1,.12-1.58-.08a2,2,0,0,1-1-.95"/><path class="cls-4" d="M134.59,223.09c-.8-.36-1.93-.69-2.34.36a2.14,2.14,0,0,0,1,2.59,1.45,1.45,0,0,0,1.8-.94c.23-.59-.2-1.89-.83-1.93"/><path class="cls-4" d="M144.9,227.22a1.06,1.06,0,0,0-.75.18,2,2,0,0,0-.47,1c-.09.48-.05,1.77.67,1.78a7.36,7.36,0,0,0,.59-2.79"/><path class="cls-3" d="M127.52,69.2l.45-.28a36.13,36.13,0,0,1,8.41-3.82,82.74,82.74,0,0,1,9.42-2.28c2.74-.46,5.46-.36,8.28-.6A94.65,94.65,0,0,1,183,63.94c7.6,1.74,15.51,2.42,22.74,5.64,8.53,3.81,17.61,8.65,24,15.57,4.08,4.4,7.6,8.22,8.1,14.21.4,4.79,1,9.36,1.38,14.07.43-4.28-3.21-10.11-5.42-13.59-3.16-5-6.46-8.65-11.83-11.36-5.94-3-11.82-5.53-17.76-8.38a113.18,113.18,0,0,0-21.41-7.72c-7.17-1.83-14.94-2.22-22.39-3-6.57-.69-12.25-.88-18.74.71A72.61,72.61,0,0,0,120,79.78a53.47,53.47,0,0,0-14.43,13.41c-.88,1.21-2.47,3-2.61,4.52-.12-2.06,1.44-4.52,2.53-6.24,1.23-1.92,2.52-3.92,3.86-5.75s2.9-3.68,4.35-5.48a35.12,35.12,0,0,1,5.82-5.47A79.53,79.53,0,0,1,127.52,69.2Z"/><path class="cls-2" d="M193.56,191.89c.65,1.18.17,5.59,2.59,4.89s1.43-5,.83-6.41"/><path class="cls-3" d="M91.73,270.94a24,24,0,0,0,1.94-3.6c.62.1,1.72,1.25,2.22,1.7,1,.88,2.12,1.74,3.11,2.64s2.1,2.13,3.27,3.08c1.43,1.15,3.11,2.05,4.54,3.19a29.88,29.88,0,0,0,7.23,4.36c1.82.76,3.95,1.72,6,1.32a7.87,7.87,0,0,0-.78,2.88,11,11,0,0,0,.28,3.12c-.19-.64-3.22-1.83-3.83-2.28a47.84,47.84,0,0,0-4.1-3.14c-2.95-1.74-6-3.35-8.85-5.22-2.21-1.46-4.35-3-6.46-4.64-.8-.61-1.62-1.1-2.45-1.71-.57-.43-1.41-1.43-2.08-1.52"/><path class="cls-1" d="M95.6,274c.86-1,1.75-1.9,2.57-2.88-.83-.72-1.72-1.42-2.53-2.13C94.86,270,93.89,271,93,272.07l.46.39C94.18,273,94.9,273.44,95.6,274Z"/><path class="cls-1" d="M103.34,275.62c-.49-.33-1-.67-1.42-1a18.17,18.17,0,0,1-1.38-1.24c-.61.67-1.23,1.33-1.81,2l-.49.57c1.12.82,2.25,1.61,3.39,2.38C102.21,277.42,102.78,276.52,103.34,275.62Z"/><path class="cls-1" d="M107.92,280.22l.65-.88c-.72-.5-1.42-1-2.11-1.57l-.7-.52a18.84,18.84,0,0,1-1.58,2.7c.93.57,1.87,1.11,2.82,1.65C107.28,281.14,107.59,280.68,107.92,280.22Z"/><path class="cls-1" d="M114.27,282.38l-.59-.24a27.27,27.27,0,0,1-2.66-1.3c-.33.63-.68,1.25-1,1.85l-.27.49,1.47.85a15,15,0,0,1,1.61,1.13C113.26,284.21,113.75,283.28,114.27,282.38Z"/><path class="cls-1" d="M119.64,283.45a5.84,5.84,0,0,1-2.28,0c-.52,1.34-1.11,2.66-1.66,4,1,.55,3.28,1.51,3.44,2.06a11.08,11.08,0,0,1-.27-3.13A7.85,7.85,0,0,1,119.64,283.45Z"/><path class="cls-5" d="M100.85,112.33c-.56,3.17.21,6.11.4,9.25a64.29,64.29,0,0,0,.66,7.18,29.25,29.25,0,0,0,1.86,6.8c1.59,3.68,3,7.37,4.34,11.19a84.52,84.52,0,0,0,4.34,9.42c2,4.07,3.56,8.37,5.58,12.46,1.37,2.77,3.22,5.34,4.78,8,1.18,2,3.3,4.83,6,4.45.77-2.09-1.11-5.1-1.81-7.06a100.4,100.4,0,0,1-3-11.33c-1.28-5.55-3.36-10.67-4.65-16.15-1.69-7.17-3.08-14.3-4.27-21.57-.61-3.77-1.29-7.43-1.92-11.25-1.12-6.88-2-13.92-3.39-20.78-.7-3.42-1.37-6.9-2.28-10.23-.42-1.54-.76-3.23-1.15-4.78a17.57,17.57,0,0,1-.6-2.8c-.07-.87,1-4.84-.85-3.7.9,4.42,1.19,9,2,13.44.78,4.16,2,8.13,2.74,12.36,1.47,9,2.53,18.1,4.23,27.13,1.63,8.64,2.87,17.49,5.38,26.06,1.16,3.94,1.76,7.94,3.29,11.79,1.46,3.67,2.68,7.09,4.16,10.55.79,1.84,2.16,5.16,1.64,7.15-1.45,0-3.17-2.64-4-3.66a37.07,37.07,0,0,1-3.43-4.62,87.44,87.44,0,0,1-4.92-9.15c-2.22-4.69-4.37-9.25-6.38-14s-3.1-9.95-5.37-14.65-2.15-9.55-2.9-14.59c-.26-1.71-.07-3.68-.23-5.31"/><path class="cls-2" d="M125.25,177.36c.11.25.33.39.48.61a5,5,0,0,1,.42,1.13,4.81,4.81,0,0,0,1,1.9,2,2,0,0,0,2.73-.32,2.88,2.88,0,0,0,.61-1.41c.06-.71-.74-1.56-1-2.2a5.45,5.45,0,0,0-2.57-3.09,4.49,4.49,0,0,0-1.31-.36,2.17,2.17,0,0,1-.07.24"/><path class="cls-2" d="M125.49,176.92a15.26,15.26,0,0,0,.12,2.79.82.82,0,0,0,.37.59c.31.23.35.2.65,0a3.38,3.38,0,0,0,.63.73,1,1,0,0,0,1,.21,3.38,3.38,0,0,0,1.46-.52c.31-.2.75-.44.87-.8s.17-.71.3-1a1.94,1.94,0,0,0,.26-1.21,6.63,6.63,0,0,0-1.3-1.77,4.44,4.44,0,0,0-1.68-1.39,9.68,9.68,0,0,0-1.76-.71"/><path class="cls-2" d="M197.36,189a14.06,14.06,0,0,1,1.54,4.37c.12.56.42,1.71,0,2.15s-1.72.46-2.26.56c-.88.16-3,.5-3.47-.61-.39-.92.77-3.39,1.34-4"/><path class="cls-2" d="M123.3,177.92a2.53,2.53,0,0,0,1,.24,4,4,0,0,1,1.1.13c.44.11,1.06.22.63.82s-1.26.57-1.89.51a.8.8,0,0,1-.63-.27c-.14-.2-.37-.74-.24-.95"/><path class="cls-2" d="M191.75,190.65c.83.7,2.67-.31,3,1.42.39,2-2.23.26-3,1.2l.11-.05"/><path class="cls-2" d="M194.18,191.37a7.76,7.76,0,0,0-1.29,1.17c-.32.4-.51,1-1,1.24a1.12,1.12,0,0,1,.12-.84"/></g></g></svg>