<svg xmlns="http://www.w3.org/2000/svg" viewBox="0 0 284.36 236.95"><defs><style>.cls-1{fill:#e30613;}.cls-2{fill:#1d1d1b;}.cls-3,.cls-7{fill:#007293;}.cls-4,.cls-5,.cls-6{fill:#fff;}.cls-5{opacity:0.3;}.cls-6{opacity:0.5;}.cls-7{opacity:0.8;}</style></defs><g id="Ebene_2" data-name="Ebene 2"><g id="Ebene_1-2" data-name="Ebene 1"><path class="cls-1" d="M70.14,97.8c-.13,2.42-9.73,1.84-11.24,1.83-4.54,0-11.17-2.08-14.79,1.52-2.13,2.13-2.06,6.89-2.61,9.78a267.07,267.07,0,0,1-7.64,30.43c-5.8,18.38-11.15,37.56-22.39,53.21,3.7.45,6.52,1.52,10.43,1.46,4.24-.07,8.46-.86,12.78-.46,7.18.67,13.71,1.52,21,.91,3.41-.29,6.81-.75,10.36-1a253.09,253.09,0,0,1,38.45-.06c11.19.89,21.77-3.46,32.76-3-8-11.09-13-28.27-15.19-42-1.93-11.83-5.9-23.21-7.89-35-.7-4.2.11-9.86-4.5-11.64-3.95-1.52-10.36,1.36-14.75.8-3.19-.42-4.49,1-7.67,1a95.91,95.91,0,0,1-16.28-1c-1.78-.31-3.27-.7-3-2.78a4.72,4.72,0,0,1,.75-2c.43-.57,1.12-.63,1.44-1.14"/><path class="cls-2" d="M67.8,88.07c2.43,2.89,1,12.47.12,16.26,3.53,0,7.53,1.36,11,1.94,3.33.55,7.51.72,10.56,1.73,1-3.19,2.2-7.31,1.84-10.66-3.52-1.54-7.32-1.73-10.75-2.9-2.1-.71-4.38-1.19-6.43-2-1.84-.75-4.85-3.18-4.55-1.62"/><path class="cls-2" d="M115.23,68.33c1.61-1.81,4.63-8.23,6.53-11.44,2.47-4.19,6.63-8.48,7.88-13.14-.26,0-.52,0-.78-.09-2.42-5.9-5.86-17.28-12.07-20,.2,4.1-4.15,3.87-7.35,4,1.7-6.44-.94-11.65-3.89-17.51-.73-1.45-1.69-4.5-3.14-5.33s-5.06.06-6.68.25A26.35,26.35,0,0,0,85.11,8.29c-2.33,1.44-1.91,2-4.19.87-6-3-12.15-7.76-18.8-9.16-1,3.47-1.58,6.72-3.4,10.05-1.56,2.83-4.6,4.75-4.21,8.19-4.83,1-10,.54-14.51,2.86-4.22,2.15-4.27,3.5.58,4.06,2.7.31,10.86-.09,12.1,2.91,1,2.49-7.38,5.13-9.4,6.7-5.08,3.94-13.86,13.53-11,20.17,1.37,3.18,4.22,14.43,7.84,15.5,0-1.71-2.24-8.83.82-8.66,1.78,4.15,2.89,9,4.78,13.45,1.14,2.67,2.67,5.26,3.73,7.94,1,2.49.79,2.31-.21,4.26-1.34,2.62-2.72,6,1.57,6.95,1.62.35,3.45-.62,5.08-.52a13.24,13.24,0,0,1,4.49,1.06c.84.55,1,2.41,2.33,2.3,1.08-.1,1.49-2.18,2.42-2.67,1.22-.63,2.78,0,3.94-.84.85.86,2.24,1,3,1.4"/><path class="cls-3" d="M113.06,75.38a12.39,12.39,0,0,0-.38-2.53,1.27,1.27,0,0,1,0-.8c-.78-.69-1.65-1.29-2.54-1.93.55-2.15,2.37-3.76,2.77-6.13a23.24,23.24,0,0,0,.09-7.12,28.58,28.58,0,0,0-5.76-13.25c-6.92-9-18.77-11.61-29.46-7.23-2.55,1-4.14,3-6.17,4.74s-3.85,3.06-5,5.39C64.26,51,64,56.16,62.47,60.81a19.8,19.8,0,0,0-1,7.26,4.66,4.66,0,0,1-.62,2.43,1.23,1.23,0,0,1,.33.87c.06,4.55-.46,9.38,2,13.48a35.65,35.65,0,0,0,7.48,8.48c2,.54,4,1,5.94,1.52a29.4,29.4,0,0,0,12,1.09,24.25,24.25,0,0,1,6-.43c2.2.28,3.59.81,5.84.53,4.21-.52,6.06-1.35,8.07-5l.5-1.41a1.24,1.24,0,0,1-.42-1.77C110.83,84,112,79.7,113.06,75.38Z"/><path class="cls-2" d="M75.63,60.26c0-1.3,1-1.59,1.65-2.44a10.13,10.13,0,0,0,1.12-2.07l1.52-.07c.06-.65,0-1.33.07-2,.23,0,.61-.12.84-.07.06-.58,0-1.18.07-1.77.59.09,1.31.44,1.82,0a2.17,2.17,0,0,1-.28-1.57c.92-.1,1.83.3,2.72.15a1.52,1.52,0,0,1-.39-1.3,22.75,22.75,0,0,0,2.89.63c0-.39.12-.9.07-1.3,2.08-.15,5,3.54,5.4,5.4-.6-.1-1.15-.53-1.77-.66a18,18,0,0,0-3.2,0c-1.91,0-3,0-4.51,1.19s-2.79,2.65-4.23,3.91c-1.17,1-3.16,2.71-4.76,2.89-.44,0-1.06,0-.66-.54"/><path class="cls-4" d="M80.57,64.51c0,.06.43.59,0,0,1.3-2.71,2.11-4.9,5.88-4.75,2.47.1,4.17,2,5.5,4-1.56,0-1.37,1.84-2,2.78a4.8,4.8,0,0,1-4,2c-1.43-.22-5.74-3.36-5-4.66"/><path class="cls-4" d="M104.9,64c.21.24.33.25.35,0,0-1.46.67-3.73,2.36-4.05,1.84-.35,2.61,1.56,3,3,1.26,5.3-5.31,3.46-4.75.58"/><path class="cls-2" d="M89.47,62.06c-.71-1.56-5,2.4-1.4,3.82A2.23,2.23,0,0,0,91,64.05c.44-1.95-.84-2-1.58-2.59"/><path class="cls-2" d="M111,61.81c-.19-2.08-5.57-.31-3.2,2.86,2.59,3.47,5.43-2.35,2.07-4.26"/><path class="cls-1" d="M97.4,64.07c-3.11.26-4,2.53-3.21,5.4,1,3.77,6.09,4.16,9.16,2.6,3.66-1.86,2.72-5.93-.77-7.56-2.46-1.14-8.57-1.16-7.34,2.91"/><path class="cls-3" d="M107.14,74.56c0-.11,0-.2,0-.3"/><path class="cls-2" d="M68,52.25l-.78.09"/><path class="cls-4" d="M109.7,89.22a24.36,24.36,0,0,0,.84-3c1-4.8,3.1-10,2-14.89a1.38,1.38,0,0,1,.08-.89,8.72,8.72,0,0,0-1.27,0,2.07,2.07,0,0,1-1.51-.36c-1-.62-1.87-1.48-2.87-2.13-1.48-1-2.78-3.06-4.69-3.34a10.62,10.62,0,0,0-5.21.77,15.25,15.25,0,0,0-2,.84c-.34.17-.64.39-1,.56a17.16,17.16,0,0,1-2,.53,10.65,10.65,0,0,0-1.86,1.14c-1.28.87-2.5,1.81-3.86,2.55-3.95,2.16-7.45,2.5-12,2.84-.38,1.25.11,2.59.26,3.83s.12,2.39.24,3.58a21.57,21.57,0,0,1,.1,2.55,24.53,24.53,0,0,1-.6,4.8,4.29,4.29,0,0,0-.12,1.91,6.2,6.2,0,0,0,1.24,1.73c.52.61,1.13,1.19,1.71,1.76a25.32,25.32,0,0,0,5.77,3.65A30.21,30.21,0,0,0,90,100.41a21.48,21.48,0,0,0,5.89.49A30.88,30.88,0,0,0,109.7,89.22Z"/><path class="cls-3" d="M109.7,89.23a24.53,24.53,0,0,0,.84-3c.78-3.71,2.2-7.63,2.3-11.5a3.75,3.75,0,0,1-.78-.38c-1.16-.71-2.19-1.64-3.31-2.42l-.24-.15c-1.68-1.11-3.13-2.55-4.84-3.62a19.84,19.84,0,0,0-2.32-1.33,3.13,3.13,0,0,0-2.8,0c-.75.26-1.42.5-2.17.78-3.22,1.23-5.46,3.57-8.37,5.25-3.51,2-8,2.55-11.93,3.57C75.84,78.92,76,81.52,76,84s-.77,4.51.76,6.63c2.42,3.37,7.12,5.27,11.08,6.22,5.5,1.33,10.1.68,15.4-.42A34.6,34.6,0,0,0,109.7,89.23Z"/><path class="cls-5" d="M109.7,89.23a24.53,24.53,0,0,0,.84-3c.78-3.72,2.21-7.64,2.3-11.52a11.06,11.06,0,0,0-2.33-1.17,3.69,3.69,0,0,1-1.59-.55,7.44,7.44,0,0,1-.68-.58c-.65-.61-1.21-1.3-1.85-1.91A34.12,34.12,0,0,0,103,67.12c-1-.68-2.11-1.52-3.43-1.2a10.9,10.9,0,0,0-2.75,1.59c-.93.52-1.93.79-2.88,1.25-2.2,1-3.8,2.9-5.89,4.1-3.51,2-8,2.55-11.93,3.57C75.84,78.92,76,81.52,76,84s-.77,4.51.76,6.63c2.42,3.37,7.12,5.27,11.08,6.22,5.5,1.33,10.1.68,15.4-.42A34.6,34.6,0,0,0,109.7,89.23Z"/><path class="cls-5" d="M76.75,90.67C75.22,88.55,76,86.52,76,84s-.15-5.12.09-7.61c3.91-1,8.42-1.55,11.93-3.57,1.54-.89,2.72-2.23,4.3-3S95.4,68.66,96.9,68c1.34-.62,3.47-2.08,5-1.87,1.25.17.64,1-.06,1.43s-1.55.74-2.29,1.1a10,10,0,0,0-2.14,1.09c-.44.37-.92,1.07-.7,1.64s1.18.62,1.77.83a19.9,19.9,0,0,1,4.05,1.53c-.33.79-2.88.41-3.73.65-1.5.43-1.5,1.1-1.62,2.51,1,.18.74,1,1.3,1.59s1.79.44,1.43,1.6A13.25,13.25,0,0,0,95.43,82c-1,.57-1.45.39-1.61,1.75A6.79,6.79,0,0,0,94,86.54c.41,1.07,3.69,2.66,3.17,3.63-.18.32-1.7.79-2.14,1.28a2.76,2.76,0,0,0-.73,2.46c1.83.68,8,.71,7.19,3.63C93.05,98.17,81.93,97.88,76.75,90.67Z"/><path class="cls-6" d="M109.23,77.61c1,.18,2,.13,2.93.36l.32.07s0-.07,0-.11a47,47,0,0,0-5.31-1.37c-2.76-.45-5.47-1.18-8.27-1.38a41.8,41.8,0,0,0-7.83.32c-2,.25-4,.64-6,1-1.71.26-3.47.52-5.14.92-.89.22-1.73.51-2.57.76.45-.07.92-.14,1.35-.24,1.09-.23,2.17-.34,3.25-.59s2-.45,3-.58a17.44,17.44,0,0,1,3.39,0c1.42.1,2.8.14,4.19.35s2.58.36,3.89.51c3.11.37,6.16-.28,9.29-.28A19.18,19.18,0,0,1,109.23,77.61Z"/><path class="cls-6" d="M104.55,83.87a15,15,0,0,0,1.64,0c.47,0,.93.14,1.41.17a24.82,24.82,0,0,0,2.75-.1c.24,0,.49,0,.74,0,.11-.46.23-.92.35-1.38l-1,.06c-1.32.09-2.6.18-3.9.35s-2.68.51-4,.7-2.94.46-4.36.73a15,15,0,0,1-1.64.23c.93,0,1.78-.23,2.75-.28,1.14-.06,2.23-.41,3.37-.5A7.3,7.3,0,0,1,104.55,83.87Z"/><path class="cls-6" d="M91.58,83.56c-1.14-.2-2.25-.35-3.38-.51s-2.09-.21-3.13-.28a17.82,17.82,0,0,0-3.26.23c-1.07.12-2.12.53-3.2.68a5.85,5.85,0,0,1-2.6,0c.21.27.91.23,1.27.28a11.94,11.94,0,0,0,1.72.11A17.54,17.54,0,0,0,80.78,84c.62-.06,1.22-.3,1.85-.34,1.15-.07,2.35,0,3.52-.05s2.48,0,3.71.05a12.81,12.81,0,0,1,3.24.47,11.16,11.16,0,0,0,2.39.49,4,4,0,0,1-.77-.15A23.64,23.64,0,0,0,91.58,83.56Z"/><path class="cls-6" d="M96.7,93.9c1.19-.13,2.38-.31,3.54-.53,2.35-.45,4.66-1.07,6.93-1.73l1-.32c.25-.32.5-.63.74-1-1.14.22-2.27.44-3.38.61a69.19,69.19,0,0,1-21.45-.18,49.11,49.11,0,0,1-5.49-1.21A11.28,11.28,0,0,1,77.05,89c-.21-.09-1.08-.69-1.25-.38s.54.65.71.73c1.18.5,2.57.57,3.79,1s2.78.76,4.16,1.22a62.19,62.19,0,0,0,6.34,1.83c1.13.22,2.28.43,3.42.59a5.77,5.77,0,0,0,1.17.15C95.83,94.12,96.24,94,96.7,93.9Z"/><path class="cls-7" d="M112.35,78a38.32,38.32,0,0,1-4.57-.71c-2-.26-4.1-.42-6.14-.56-2.28-.16-4.61-.3-6.91-.29-2,0-4-.28-6-.12a8.4,8.4,0,0,0-1.58.35,10.87,10.87,0,0,1,1.59.17c1,.12,2.1.22,3.14.39a40.28,40.28,0,0,0,6.46.71,28.17,28.17,0,0,0,4.1-.39c1.23-.18,2.43-.25,3.65-.35a14.92,14.92,0,0,1,2.5,0,9.66,9.66,0,0,1,1.08.14,11.11,11.11,0,0,1,1.46.25"/><path class="cls-3" d="M100.67,91.21c-1.43.05-2.86.18-4.28.18-3.77,0-7.19-.49-10.81-.61a45.34,45.34,0,0,1,4.64,1.3,22.47,22.47,0,0,0,6.58.33,39.7,39.7,0,0,0,6.28-1.2C102.28,91.21,101.47,91.17,100.67,91.21Z"/><path class="cls-3" d="M104.37,91.18a10.41,10.41,0,0,0,1.85-.24l.08,0a20.08,20.08,0,0,0-2.88.21l-.34.08C103.52,91.21,104,91.21,104.37,91.18Z"/><path class="cls-3" d="M89.06,83.13a19.41,19.41,0,0,0-4-.47,9.82,9.82,0,0,0-2.65.19,17.38,17.38,0,0,0-2.07.51,6,6,0,0,1,2.09-.23,16.71,16.71,0,0,1,2.91-.08l2.46.2c.57,0,1.1-.08,1.66-.08"/><path class="cls-3" d="M105.79,83.17c.25,0,.49,0,.74,0,.65,0,1.33-.06,2-.12l2.84-.21.09-.36c-.48,0-1,0-1.43.06-.84,0-1.68.14-2.53.2l-1,.16.15,0a5.94,5.94,0,0,0-1.48.36C105.27,83.29,105.61,83.19,105.79,83.17Z"/><path class="cls-4" d="M74.73,76.57a1.09,1.09,0,0,1,0,.36,2.87,2.87,0,0,1-1.93-1.38,15.7,15.7,0,0,1-1.7-3.15c-.7-1.85-1.16-3.69-2.67-5.18A5.73,5.73,0,0,0,66,65.84a2.3,2.3,0,0,0-1.87,0C63,66.41,62.66,68,62.78,69a14.17,14.17,0,0,0,1.46,3.73A34.28,34.28,0,0,0,66,76.49c.77,1.34,1.61,2.62,2.42,3.94.35.57.78,1.1,1.16,1.68.58.86.79,1.86,1.43,2.68.76,1,1.34,2.1,2.06,3.11.38.53.72,1.08,1.11,1.6s.71.85.67,1.45c-.4.07-.91-.32-1.23-.52A11.11,11.11,0,0,1,71,87.94a3.88,3.88,0,0,1-.74-1.31,3.16,3.16,0,0,0-.35-1.21c-.42-.66-.82-1.34-1.24-2-.82-1.28-1.29-2.73-2-4-.62-1.14-1.38-2.22-2.08-3.31-.55-.86-1-1.78-1.62-2.61a6.61,6.61,0,0,1-1.62-4.32A6.81,6.81,0,0,1,63,65.53a1.89,1.89,0,0,1,1.61-1,11,11,0,0,1,2,.16c.23-.48,1.8.63,2.09.85a6.77,6.77,0,0,1,1.79,2c.64,1.1,1.26,2.24,2,3.3.34.49.64,1,1,1.46.2.28,1,1.42,1.33,1.35"/><path class="cls-2" d="M106.9,38.16a2.18,2.18,0,0,0,.09,1.78,20,20,0,0,1-8,.4c-2.93-.59-4.75-2.85-7.75-2.05-2.75.75-2.27,3.77-6,3.7-2,0-4.36-2.23-6.14-3-.32,2.85-2.25,5.45-4.24,7.7-1,1.16-3.14,1.19-3.73,2.36-.93,1.86.49,3.42,0,5.21-.89,3-3.91,4.77-4.88,7.62s.93,8.19,1,11.34c-2.3-1-3.31-3.72-4.71-6-2.48,0-5,.55-7.53.57C46.6,51.44,54.11,34,69.58,25A32.84,32.84,0,0,1,90,21.6c5.2,1,20.28,8.61,15.73,14.75"/><path class="cls-3" d="M64.29,69.75a10.19,10.19,0,0,0-1.59-2.54c-.85-.72-3-.26-3.73.46s-.37,2.45-.18,3.43a14.57,14.57,0,0,0,2.05,4.75A3.16,3.16,0,0,0,65.12,77"/><path class="cls-2" d="M112.5,61.4a8.41,8.41,0,0,0-2.33-5.63c-1.35-1.5-2.82-1.75-4.64-2.09.35-1.06.45-2.31.88-3.4a3.27,3.27,0,0,1,1.32,1.94c-.06-.32-.17-1.34.27-1.47.74-.24.62,1.06,1,1.39s.65-.35,1.15.2.22,1.41.57,2c.68-.49,1.74,2.41,2,3.21.46,1.44,0,3,0,4.55"/><path class="cls-2" d="M1.17,81c-.45,1.11-1.66,1.16-1,1.72v.51C1.5,85,3,84.24,4.8,84.94c1.07.43,1.67,1.56,2.5,2.31S56,141.13,56.75,141.78c3.3,2.77,6,5.92,9.13,8.77,1,.88,1.84,1.76,2.77,2.65a14.23,14.23,0,0,0-2.26,6.31c-1.11,9.24,9.41,17.15,15.13,22.48,2.37,2.19,6.18,6.43,9.78,6.35s7.08-1.76,6.4-5.44c-.81-4.35-5.59-9.52-8.6-12.87-.62-.68-1.26-1.32-1.87-2,.17-.16.35-.3.52-.45.42-.4,10.16,11.58,11.36,12.54,4.06,3.22,34,38.87,32.19,43.37-1.05,2.6-3.19,6.86-2.87,9.74a4.49,4.49,0,0,0,2.19,3.18c1.75,1,2.31.43,3.22-1.07,1.23-2.05,2.27-4.37,3.7-6.32s3.82-2.93,5.7-4.56c1.64-1.44,3.23-2.88,5-4.18a27.25,27.25,0,0,1,4.1-2.42c1-.49,2.77-.87,3.21-1.91-2.58-.64-6,.16-8.77-.15a16.06,16.06,0,0,1-8.27-3c-1.8-1.43-33.5-32.72-35.06-34.55a62.37,62.37,0,0,1-5.09-6A98.63,98.63,0,0,0,91.79,164l.23-.16c.64.39,2.4,1.07,3.2.67,1.57-.75.15-2.18-.72-3-1-.94-2.32-1.65-3.27-.84a4.52,4.52,0,0,0-1,1.51c-.53-.61-1-1.26-1.58-1.87a14.32,14.32,0,0,1,1.5-1.07c1.6-.92,3.32-1.35,1.32-3.06-1.71-1.46-2.36-.49-3.3.91A9.78,9.78,0,0,1,87,158.41l-2.17-2.48a5.94,5.94,0,0,0,1.35-.15,1.91,1.91,0,0,0,.63-3.46c-1.64-1.17-2.23.2-3.09,1.1a7.35,7.35,0,0,1-.67.56,37.76,37.76,0,0,0-5.5-4.4c-1.73-1.21-3.19-1.57-5-.38a17,17,0,0,0-2.44,2C67.06,147.81,17,92.08,13.33,89c-3-2.52-5-4.7-6.22-5.62C5.27,82,6.32,79.69,4.88,78.14A8.82,8.82,0,0,0,1.17,81Zm70.26,74.92q1.95,2,3.88,4c-1.17.91-2.27,1.86-3.37,2.8C70.36,160.09,69.15,156.9,71.43,155.92Zm1.88,9c1.2-1.07,2.4-2.14,3.67-3.19.83.9,1.68,1.79,2.54,2.69-1.4,1-2.78,2.09-4.09,3.2-.37-.46-.76-.88-1.12-1.34S73.69,165.46,73.31,164.91Zm6.45-5.42c.88.93,1.79,1.84,2.68,2.76l-.65.5c-.91-.86-1.83-1.75-2.77-2.67C79.27,159.89,79.51,159.7,79.76,159.49Zm3.87,9.09c-.92.7-3.46,2.32-4.21,3.8-1-1.07-1.89-2.26-2.83-3.39,1.1-.9,3-2,4-2.66l.48-.33c.83.85,1.69,1.71,2.57,2.59Zm6.28,7c.9,1.41,2.64,3,3,4.64.53,2.42-.09,2.05-2.06,1.49a16.38,16.38,0,0,1-6-3.89c-1.48-1.34-2.87-2.79-4.25-4.26,1.5-1.18,2.94-2.41,4.39-3.62l.42.42A30.26,30.26,0,0,1,89.91,175.55Zm-3.51-9.28-.48.4c-.79-.8-1.62-1.58-2.47-2.35l.59-.42c.38.39.76.81,1.16,1.2S86,165.88,86.4,166.27Zm-8.35-8.45-.76.58c-.68-.65-1.36-1.31-2-1.91l-.66-.67A7.94,7.94,0,0,1,78.05,157.82Z"/><path class="cls-3" d="M46.18,105.32c1.21,1.1,4.14-.82,5.75-.4s3.52,3.14,4.31,4.75c2,4.14,1.93,9.91,1.63,14.44-.34,5.15-3.12,10.41-5.41,14.9a79.05,79.05,0,0,0-5.14,14c-2,7.12-2.8,14.19-3.91,21.42-.56,3.64-.92,7.42-1.2,11.09-.11,1.52-.19,3-.18,4.55s-.55,3-.35,4.34c.83-1,1.19-3.47,1.59-4.88.92-3.28,2-6.59,3.06-9.87,1.55-4.88,3.12-9.59,4.37-14.56,1.13-4.48,2.22-9,3.36-13.49.7-2.75,1-5.72,2.22-8.26.14-.31.6-1.29.93-1.44.68-.3,1.42.84,2,1.29,1.16.94,2.44,1.67,3.66,2.48a13.34,13.34,0,0,1,1.95,1.64c.48.44,1.64,1,2,1.52.93,1.38,0,5.07-.35,6.59-2.53,10.17-4.78,20.47-8,30.48-2,6.42-4.62,12.92-8.91,18.16-.89,1.08-1.91,2.11-2.79,3.17a10.59,10.59,0,0,1-1.83,2.17c-1.24.86-3.52.55-4.88.21-3.78-1-7.69-1.1-11.49-1.74-1.66-.28-3.1-.27-3.81-2-1-2.37-.78-5.59-.94-8.13a166.25,166.25,0,0,1,.4-22.76c.41-5.68.64-11.25,2-16.76.7-2.92,1.18-5.93,2-8.81,1.13-3.79,2.72-7.46,4-11.22,3.18-9.7,4.66-20.18,11-28.37.46-.59,2.22-3.79,3-3.12"/><path class="cls-3" d="M57.42,142.23c.84-.65,1.51-2.31,2.18-3.18a19.2,19.2,0,0,1,2.9-2.94c1.3-1.11,2.78-2.59,4.52-3,1.52-.33,3.4.59,4.7,1.29,2.68,1.44,5.37,2.8,8.14,4a10.42,10.42,0,0,1,4.46,2.91c.53.69,2,2.56,1.49,3.47-.82,1.61-5.62-.85-6.65-1.42-.35-.18-.69-.38-1-.58,1.19,1.42,3.18,2.26,4.5,3.55a10,10,0,0,1,2.87,4,5.63,5.63,0,0,1-4.39-.77c-1.46-.87-3.12-2.22-4.81-2.56.47.41,2.82,2.12,2.7,2.75-.26,1.3-3.14,0-3.68-.31a10.34,10.34,0,0,0-4.08-1.22c-1.3,0-2.15,1.33-3.21,2-1.26.77-2.2-.07-3.34-.87a24.58,24.58,0,0,0-3.49-2.36,6.34,6.34,0,0,1-2.93-2.52c-.46-.73-1.53-1.94-1.15-2.89.12-.31.62-.49.73-.94"/><path class="cls-2" d="M167.14,89.23c-4.45,7.61-11.57-5.18-13.58-8-4.83-6.79-4.49-7.84-.28-15.34,3.3-5.88,2.4-14.76,4.58-21.16,1.17-3.43,1.62-5.11,1.25-8.53-.39-3.58-1.76-6.22,0-9.67,1.07-2.12,5.1-6.1,7.3-6.73,6.4-1.85,5.35,3,9.09-3.47,2.14-3.7,4.22-8.78,9.18-9.31,5.21-.55,8.93,4.85,11.94,8.16a5,5,0,0,1,7.53-5.38c3.61,2,3.94,7.23,5.12,10.6,8.88-5.8,12.14,3.34,16,9,2.71-6,4,1.71,5.82,2.7,2.59,1.39,9-.86,12.25-.58.46,2.36-.16,4.84-.77,7.12,9.24-10.54,21.7,8.85,14.58,17.07,7.9-.21,16.21,2.83,14.81,12.56-.25,1.7-1.55,3.27-1.72,5-.25,2.59.48,2.21,1.09,5,1,4.57,1.93,7.86,0,12.41-1.19,2.73-4.66,5.59-5.45,8.28-1,3.28.61,6.73,0,10.44-1.74,11.29-10.65,12.35-15.74,2.64,0,10.56-15.13.76-18.21-1.88.6,7.11-11.64,4.1-14.28.18,5.73,9.67-29.43,20.5-26,5.86-3.67,10.06-27.56-3.12-17.48-10C165,109.9,159.72,93.39,167.14,89.23Z"/><path class="cls-3" d="M171.4,82.65c-.55,1.41-2.79-.49-3.44-1.12a6.6,6.6,0,0,1-2-4.16c-.38-3.71,1.8-5.1,4.3-7.44-.68-1.79-2.37-3-3-5a20.38,20.38,0,0,1-.79-6.08A25,25,0,0,1,170,47c4.91-8.38,14.61-11.86,24.05-9.23,2.26.63,3.8,2.12,5.68,3.42s3.55,2.22,4.8,4.1c2.41,3.61,3.19,8,4.91,11.79a17.26,17.26,0,0,1,1.62,6.1c.16,2.07,2,3.12,2.91,5,2.05,4.25.54,10.51-2.58,14-2.64,3-6.74,3.9-10.32,5.47a24.37,24.37,0,0,1-10,2.17A20.45,20.45,0,0,0,186,90c-1.81.47-2.93,1.06-4.86,1.06-3.59,0-5.24-.53-7.3-3.43"/><path class="cls-2" d="M200,58.36c.27-2.77-7-6-9.46-6.86-2.9-1-8.29,2.9-7.85,6.24a8,8,0,0,1,2.17-.16,11.89,11.89,0,0,0,1.89-.55,32.78,32.78,0,0,1,4.58-.52c2.47-.21,6.84.61,8.82,2.15-.14-.18-.27-.39-.42-.56"/><path class="cls-2" d="M174.37,59.43c-1.56-1-6.67-8-7.83-3.17a6.31,6.31,0,0,0,.05,2.57c.61.57,1.33-.22,2.1-.41a6.48,6.48,0,0,1,4.77,1.29,3.31,3.31,0,0,0-.44,0"/><path class="cls-4" d="M194.63,62.07s-.3.54,0,0c-1.37-2.19-2.27-4-5.43-3.46-2.08.33-3.3,2.18-4.22,4,1.31-.14,1.33,1.44,2,2.17a4,4,0,0,0,3.6,1.27c1.18-.33,4.49-3.47,3.77-4.5"/><path class="cls-4" d="M174.1,64.17c-.15.23-.25.25-.29,0-.13-1.24-.95-3.11-2.4-3.21s-2,1.6-2.19,2.91c-.51,4.66,4.82,2.41,4.06,0"/><path class="cls-2" d="M187.15,61.07c.44-1.41,4.48,1.54,1.57,3.13a1.9,1.9,0,0,1-2.64-1.27c-.57-1.62.51-1.8,1.07-2.38"/><path class="cls-2" d="M168.84,63.29c-.05-1.79,4.66-.84,3,2.12C170,68.64,167,64,169.65,62"/><path class="cls-1" d="M179.5,66.29c2.64-.11,3.59,1.75,3.25,4.28-.42,3.32-4.7,4.19-7.44,3.17-3.27-1.21-2.89-4.79-.12-6.55,1.95-1.22,7.09-1.88,6.47,1.74"/><path class="cls-3" d="M173.28,73.42v-.27"/><path class="cls-3" d="M208,85c.64,1,1.45,3.2,2.18,4.79a37.22,37.22,0,0,0,4.44,6.53,25.1,25.1,0,0,0,2.47,3.51c2.48,2.26,5.17-2.57,6-4.59,1.82-4.38,7.79.85,9.75,3.1a18.78,18.78,0,0,1,4.18,7.51c.54,2.31-.32,3.74-.32,5.91,0,5.49,3,12.71,4.71,18,1.55,4.87,4.1,9.29,5.28,14.31.48,2,1.46,4.2,1.75,6.25.24,1.6-.61,2.25-1.66,3.39-2.07,2.23-4.85,3.54-7.16,5.51-3.09,2.63-6.26,5.12-9.41,7.66s-6.48,5-9.68,7.54a10.25,10.25,0,0,0-3.19,3.57c-1-.6-1.55-2.52-2.1-3.57-.77-1.43-1.43-3-2.22-4.35-1.91-3.35-3.75-6.68-5.74-10-1.08-1.8-2.54-3.48-3.49-5.33-.69-1.35-.88-2.9-1.43-4.3a12.18,12.18,0,0,0-1.47-2.76,20.47,20.47,0,0,0-3.65-4.3c-.23,2.1.32,4.2-.05,6.29-1.2.3-3.52-1.73-4.36-2.46a34,34,0,0,1-10-15.51c-.89-2.82-.47-5.16.29-7.88a42.79,42.79,0,0,1,1.5-4,7.69,7.69,0,0,1,3.49-4.39,65.06,65.06,0,0,1,6-2.8,22.6,22.6,0,0,0,7.39-5.41c1.35-1.54,3.42-3.08,4.44-4.8,2.23-3.73-.74-9.34-2.55-12.79-.32-.62-.78-1.17-1.11-1.77-.65-1.21-1-1,.28-1.52,1.12-.48,4.59-.59,4.95-1.55"/><path class="cls-2" d="M210.07,140.28c0-.66-2.31-1.28-2.63-2s.55-1.75.41-2.57a2.77,2.77,0,0,0-4.06-2.41,1.4,1.4,0,0,0,1,1c.6.24.87.2.94,1,.12,1.23-1.07,2-2.1,2.48a2.11,2.11,0,0,1-.74-1.94c.06-.9,0-.83-.58-1.49a3.37,3.37,0,0,0-.87,4.8c1.21,1.71,2.77.86,4.37.17a21,21,0,0,0,2.42,2.39c.66.44.33.27.89-.3a5,5,0,0,0,1-1.17.89.89,0,0,0-.37.17"/><path class="cls-3" d="M229,131.16c-.51.06-1.23-1-1.65-1.32a2.24,2.24,0,0,0-1.55-.76c-.81,1.95-.56,4.28-.76,6.38a3.15,3.15,0,0,0-1.67.56c.08-1.53.49-3,.61-4.51s.12-3,.26-4.42c.1.06.22,0,.34.17,0-.34.1-.83.45-.87,0,.19.17.36.18.56a1.45,1.45,0,0,1,.54-.56,4.47,4.47,0,0,1,0,.64,1.43,1.43,0,0,1,.71-.5,2.24,2.24,0,0,1-.24.73.84.84,0,0,1,.58-.17,1,1,0,0,1-.05.69c1.24.39,2.18,2.15,3.53,2.24-.28.15-.74,0-1,.35s-.08.75-.37,1a.28.28,0,0,1,0-.22"/><path class="cls-4" d="M225.19,132c-.05.73-.07,1.48-.09,2.21a1.26,1.26,0,0,0-1.24-.37,1.92,1.92,0,0,0-.25.12c.12-.68.24-1.38.31-2.1A1.21,1.21,0,0,1,225.19,132Z"/><path class="cls-4" d="M227.89,130.41a2.73,2.73,0,0,0,.84-1.18,2.79,2.79,0,0,0,1.55.79c-.28.15-.74,0-1,.35s-.08.75-.37,1a.28.28,0,0,1,0-.22H229C228.66,131.2,228.25,130.8,227.89,130.41Z"/><path class="cls-4" d="M225.19,126.86c0,.2,0-.12,0,.07a1.6,1.6,0,0,1,.54-.56,4.61,4.61,0,0,1,0,.64,1.64,1.64,0,0,1,.71-.5,2.29,2.29,0,0,1-.24.74.79.79,0,0,1,.58-.17,1,1,0,0,1-.05.69,1.92,1.92,0,0,1,.46.21,2.15,2.15,0,0,1-.58,1.33,3.61,3.61,0,0,0-.49-.21c-.06-.34.12-.6.06-1-.12-1-.31-1.13-1-1.15C225.28,126.8,225.05,126.88,225.19,126.86Z"/><path class="cls-4" d="M224.22,127.07c.1.07-.17.19,0,.34,0-.1,0,0,0-.16a4.94,4.94,0,0,1,1,.69,4.14,4.14,0,0,1,.59,1.14c-.07,0,.08,0,0,0a5,5,0,0,0-.23.65,1.53,1.53,0,0,0-1.24-.29l-.24,0C224.1,128.68,224.15,127.87,224.22,127.07Z"/><path class="cls-4" d="M220.51,137.74c-1.29-1.69-2.89-3.39-4-5.26-.4-.64-.71-1.32-1.13-2s-1-.36-1.54,0c-.43.24-.38.18-.27.58s.41.69.59,1.06c.38.78.83,1.51,1.27,2.26.61,1.06,1.41,2,2,3.09a5.12,5.12,0,0,0,.8,1.33c.38.37.45.22.9,0s1.18-.29,1.36-.59"/><path class="cls-2" d="M217.79,140.32c-.49-.44-.59-1.92-.81-2.58a19,19,0,0,1-.6-2.36c1.06-.84,2.14-2.4,1.87-3.8-.31-1.66-2.54-1.29-3.35-.22s.11,2.3.37,3.39a24.36,24.36,0,0,1,.79,3.63c-1.06-1-1.91-2.29-2.92-3.36a17.59,17.59,0,0,0-1.69-1.85c-.66-.5-1.35.07-1.95.51-1.14.83-.85,3.44.34,4.15a4,4,0,0,0,2.26.37,9.31,9.31,0,0,1,2-.35c.63.09,1.11,1,1.35,1.51a12.75,12.75,0,0,0,.66,1.66,3.94,3.94,0,0,1,1.33-.34m-4.7-4.07c.47.43-.78.74-1.08.7a2.54,2.54,0,0,1-1.46-1.13c-.83-1.14-.06-1.85.9-2.46a9.22,9.22,0,0,1,.85,1.17c.33.46,1,1,.88,1.64m3.43-2.3a3.82,3.82,0,0,1-.54-1.85,1.2,1.2,0,0,1,1.36-1c1.24.21,0,2.83-.9,2.82"/><path class="cls-2" d="M228.12,134.6s-4.56.91-7.45,1.84c-7.08,2.29-14.43,3.9-21.35,6.74-.38,2.92,3.06,7.59,4.55,10.19s3.57,8.19,5.72,10c3.51,2.95,19.71-4,23.47-7.45C231.56,151.1,228.12,134.6,228.12,134.6Z"/><path class="cls-2" d="M203.7,144.34c-.66-1.55-1.12-3.11-1.78-4.66-.53-1.26-1.2-2.53-1.7-3.76a1,1,0,0,0-.47.19,7.74,7.74,0,0,1,.42,2.18c.16,1.14.38,2.28.58,3.42.14.85.42,1.63.51,2.47s.11,1.41.18,2.13a3.21,3.21,0,0,1,1.08-.83c.38-.22,1-.79,1.19-.86"/><path class="cls-3" d="M200.45,136.19a3,3,0,0,0,.12-3c-.54-.7-2-1.43-1.92-2.44.09,1.15-.46,2.27-.21,3.41.2.92.76,2.26,1.71,2.53,0-.12.08-.22.06-.36a.2.2,0,0,1,.1.06"/><path class="cls-2" d="M185.34,62.67c-.1-.18,1.55-1.36,1.91-1.61a5,5,0,0,1,2.25-.85,5.75,5.75,0,0,1,3.1.28A9.66,9.66,0,0,1,194.7,62c0-.6-.1-1.18-.08-1.8a2,2,0,0,1-.44.53c-.19-.4-.22-.89-.45-1.31-.13.14-.27.42-.39.57-.12-.25-.17-1-.44-1.18s-.39.5-.47.76c-.41-.35-.37-1.18-.92-1.42a5.2,5.2,0,0,0-.27.88c-.28-.42-.47-1.18-1-1.4,0,.44-.09.84-.11,1.27-.3-.26-.37-1-.83-1.09a3.38,3.38,0,0,1-.26,1.6,3.61,3.61,0,0,0-.69-1.16c-.27.26-.07.88-.22,1.23-.2-.12-.64-.77-.94-.67s-.15,1.15-.18,1.44c-.3-.22-.39-1-.92-1-.07.63.05,1.3,0,1.93-.19-.29-.32-.75-.52-1.09a4.5,4.5,0,0,0-.17,1.7,2.58,2.58,0,0,0-.15,1.09"/><path class="cls-2" d="M173.82,63.85c.67-.7-.1-2.67-.86-3a1.9,1.9,0,0,0-.15.46c-.34-.28-.34-.87-.69-1.15-.15.21-.09.5-.17.68-.11-.27-.33-.9-.62-.92a4.57,4.57,0,0,1-.12.74,2,2,0,0,0-.48-.66,6.5,6.5,0,0,1-.22.84,3.84,3.84,0,0,0-.32-.5,2.81,2.81,0,0,0-.28,1c-.2-.14-.31-.46-.57-.49-.13.31,0,.76-.17,1-.07-.16-.14-.31-.2-.48a3.3,3.3,0,0,1-.15,1.34,6.61,6.61,0,0,0,0,.89c-.08-1.26,1.55-2.2,2.62-2.23,1.25-.05,2.07,2,2.5,2.68"/><path class="cls-2" d="M169.78,42.25a1.87,1.87,0,0,1,.1,1.53,16.75,16.75,0,0,0,6.81-.49c2.4-.8,3.71-2.93,6.32-2.55,2.39.35,2.29,3,5.39,2.54,1.69-.23,3.44-2.35,4.86-3.21.55,2.4,2.45,4.43,4.35,6.15,1,.89,2.77.69,3.38,1.63,1,1.5-.06,3,.57,4.46,1.05,2.44,3.77,3.67,4.87,6s.06,7.1.31,9.8c1.84-1.05,2.41-3.52,3.36-5.65,2.09-.22,4.3-.06,6.39-.29,5.4-14.8-2.7-29-16.63-35a27.45,27.45,0,0,0-17.51-.83c-4.27,1.36-16.18,9.46-11.73,14.24"/><path class="cls-4" d="M170.73,84.16c-.29-.81-4.22-3.8-4.42-4.7-.9-4.07,1-4.9,1.66-7.4a3.46,3.46,0,0,1,.91-1.21,6.87,6.87,0,0,1,1-1.73c.35-.47.71-.56,1.16-1a12.79,12.79,0,0,1,2.19-2c1.33-.81,2.49-2.6,4.21-2.84a10.29,10.29,0,0,1,4.67.65,18.25,18.25,0,0,1,1.8.72c.3.14.57.33.89.48a17.16,17.16,0,0,0,1.78.45,9,9,0,0,1,1.67,1c1.14.72,2.24,1.52,3.46,2.15,3.53,1.83,6.67,2.12,10.77,2.41.34,1-.1,2.2-.23,3.25s-.11,2-.22,3a17.26,17.26,0,0,0-.09,2.16,19.65,19.65,0,0,0,.54,4.07,3.45,3.45,0,0,1,.11,1.62,5.33,5.33,0,0,1-1.11,1.47c-.47.51-1,1-1.53,1.49a23.06,23.06,0,0,1-5.18,3.09,27.56,27.56,0,0,1-6.35,2.33,20.64,20.64,0,0,1-5.28.41A27.34,27.34,0,0,1,170.73,84.16Z"/><path class="cls-3" d="M170.73,84.16c-.29-.8.2.89,0,0-.34-1.54-4.46-1-4.72-6.48-.25-5,2-4.13,1.91-5.81a4.43,4.43,0,0,0,.7-.32c1-.6,2-1.39,3-2l.21-.13c1.5-.94,2.81-2.16,4.34-3.08a19.78,19.78,0,0,1,2.08-1.12,3,3,0,0,1,2.51,0c.67.22,1.28.42,1.94.66,2.89,1,4.89,3,7.51,4.45,3.14,1.71,7.18,2.17,10.69,3,.22,2.11.07,4.32.08,6.45s.69,3.82-.68,5.62c-2.17,2.85-6.39,4.47-9.93,5.27-4.93,1.13-9.06.58-13.8-.36A29.42,29.42,0,0,1,170.73,84.16Z"/><path class="cls-5" d="M170.73,84.16c-.52-1.42-4.06-2.18-4.67-5.57-.56-3.19.2-4.17,1.93-6.63a9.94,9.94,0,0,1,2-1.1,3.41,3.41,0,0,0,1.42-.47,7.31,7.31,0,0,0,.62-.48c.57-.53,1.08-1.11,1.65-1.63a29.79,29.79,0,0,1,3.08-2.85,4,4,0,0,1,3.07-1,10.17,10.17,0,0,1,2.47,1.34c.82.45,1.72.68,2.58,1.06,2,.89,3.4,2.46,5.28,3.48,3.14,1.71,7.18,2.17,10.69,3,.22,2.11.07,4.32.08,6.45s.69,3.82-.68,5.62c-2.17,2.85-6.39,4.47-9.93,5.27-4.93,1.13-9.06.58-13.8-.36A29.42,29.42,0,0,1,170.73,84.16Z"/><path class="cls-5" d="M200.27,85.39c1.37-1.8.69-3.52.68-5.62s.14-4.34-.08-6.45c-3.51-.86-7.55-1.32-10.69-3-1.38-.75-2.44-1.89-3.86-2.57s-2.77-1-4.11-1.58-3.11-1.76-4.49-1.58c-1.12.14-.58.88.05,1.21s1.39.62,2.06.93a9.62,9.62,0,0,1,1.91.92c.39.31.83.91.62,1.39s-1.05.53-1.58.71a18.42,18.42,0,0,0-3.63,1.3c.3.67,2.58.34,3.35.54,1.34.37,1.34.94,1.45,2.13-.91.16-.66.88-1.17,1.35s-1.61.37-1.28,1.36a12,12,0,0,1,4,1.62c.92.48,1.3.32,1.45,1.48a5.45,5.45,0,0,1-.16,2.39c-.37.91-3.31,2.26-2.84,3.08.16.27,1.51.67,1.91,1.07a2.26,2.26,0,0,1,.66,2.09c-1.64.58-7.16.6-6.45,3.08C185.66,91.75,195.62,91.5,200.27,85.39Z"/><path class="cls-6" d="M171.16,74.32c-.87.15-4.25.74-5.12.93h0s2.19-.63,2.18-.66A44.06,44.06,0,0,1,173,73.43c2.48-.38,4.91-1,7.42-1.17a39.06,39.06,0,0,1,7,.27c1.81.21,3.6.54,5.41.81,1.52.23,3.1.45,4.6.79.8.18,1.55.43,2.3.64-.4-.06-.82-.12-1.21-.2-1-.2-1.94-.3-2.91-.51s-1.78-.38-2.64-.49a16.34,16.34,0,0,0-3.05,0c-1.26.09-2.5.11-3.75.29s-2.31.31-3.49.44c-2.78.32-5.52-.24-8.32-.24A17.69,17.69,0,0,0,171.16,74.32Z"/><path class="cls-6" d="M175.35,79.62a14.42,14.42,0,0,1-1.47,0c-.42,0-.83.12-1.26.14-.85,0-1.67,0-2.47-.09-.22,0-3.8-.63-4-.64-.11-.39.07-.19,0-.58.3,0,3.68.06,4,.08,1.18.08,2.33.16,3.49.29s2.41.44,3.61.6,2.63.39,3.91.62a14.05,14.05,0,0,0,1.47.19c-.83,0-1.61-.19-2.46-.23-1-.05-2-.35-3-.43A7.11,7.11,0,0,0,175.35,79.62Z"/><path class="cls-6" d="M187,79.36c1-.17,2-.29,3-.43s1.87-.18,2.8-.24a16.73,16.73,0,0,1,2.92.2c1,.1,1.91.44,2.87.58a5.54,5.54,0,0,0,2.33,0c-.19.23-.81.2-1.13.24a12.88,12.88,0,0,1-1.55.1c-.54,0-1.06-.06-1.6-.11s-1.09-.25-1.65-.28c-1-.06-2.1,0-3.16,0s-2.22,0-3.32,0a11.61,11.61,0,0,0-2.91.39,10.66,10.66,0,0,1-2.14.42,3.83,3.83,0,0,0,.69-.13A22,22,0,0,1,187,79.36Z"/><path class="cls-6" d="M182.39,88.13c-1.07-.11-2.13-.27-3.18-.45-2.1-.39-4.17-.91-6.21-1.47-.3-.08-.6-.18-.9-.27l-.65-.81c1,.18,2,.37,3,.51a65.16,65.16,0,0,0,19.22-.15,43.77,43.77,0,0,0,4.92-1A9.34,9.34,0,0,0,200,84c.19-.08,1-.59,1.13-.32s-.49.55-.65.61c-1,.43-2.3.5-3.39.85s-2.49.64-3.73,1a58.08,58.08,0,0,1-5.68,1.55c-1,.19-2.05.37-3.07.5a6.15,6.15,0,0,1-1.05.13C183.17,88.31,182.8,88.17,182.39,88.13Z"/><path class="cls-7" d="M168.36,74.66a36.51,36.51,0,0,0,4.1-.6c1.81-.23,3.67-.35,5.5-.48,2-.13,4.13-.25,6.19-.25,1.78,0,3.59-.23,5.37-.1a8.33,8.33,0,0,1,1.42.3,11.73,11.73,0,0,0-1.43.14c-.93.11-1.88.19-2.81.33a37.66,37.66,0,0,1-5.8.61,28.27,28.27,0,0,1-3.67-.33c-1.1-.15-2.17-.22-3.27-.3a15.27,15.27,0,0,0-2.24,0c-.33,0-.65.08-1,.13a9.18,9.18,0,0,0-1.31.21"/><path class="cls-3" d="M178.83,85.84c1.28,0,2.56.16,3.84.16,3.38,0,6.44-.42,9.68-.52-1.4.2-3,.82-4.16,1.1a20.93,20.93,0,0,1-5.89.28,38.62,38.62,0,0,1-5.64-1C177.38,85.85,178.11,85.82,178.83,85.84Z"/><path class="cls-3" d="M175.51,85.82a9.29,9.29,0,0,1-1.66-.2l-.07,0a17.81,17.81,0,0,1,2.58.18l.3.07C176.28,85.85,175.89,85.85,175.51,85.82Z"/><path class="cls-3" d="M189.24,79a18.93,18.93,0,0,1,3.62-.4,9.48,9.48,0,0,1,2.38.16,16.22,16.22,0,0,1,1.86.43,6.07,6.07,0,0,0-1.88-.2,16.16,16.16,0,0,0-2.6-.06l-2.21.17c-.51,0-1-.07-1.48-.07"/><path class="cls-3" d="M174.24,79c-.22,0-.45,0-.66,0-.59,0-1.2-.06-1.78-.11l-2.55-.18c-3.19-.16-3.16-.06-3.19-.16.44,0,4-.12,4.39-.09.75,0,1.5.11,2.26.17.11,0,.68.09.92.13l-.13,0a6.2,6.2,0,0,1,1.32.3C174.7,79.14,174.4,79,174.24,79Z"/><path class="cls-4" d="M207,66.21a1.81,1.81,0,0,1,0-.25c0-.23,0-.46,0-.69a1.2,1.2,0,0,1-.15-.69,5.62,5.62,0,0,0-1,1.21c-.57.92-1.13,1.89-1.79,2.79-.31.42-.58.82-.89,1.23C203,70.05,202.33,71,202,71l.07,2.47a1.07,1.07,0,0,0,0,.31,2.55,2.55,0,0,0,1.73-1.17,12.79,12.79,0,0,0,1.52-2.66,14.93,14.93,0,0,1,1.72-3.63S207,66.24,207,66.21Z"/><path class="cls-4" d="M213.35,66.67a1,1,0,0,1-.52,0h0a2.75,2.75,0,0,1,0,.41,11.54,11.54,0,0,1-1.3,3.15,28.46,28.46,0,0,1-1.61,3.16c-.7,1.14-1.45,2.22-2.17,3.34-.32.48-.7.93-1,1.42-.52.73-.71,1.58-1.28,2.28s-1.21,1.77-1.85,2.63c-.34.45-.64.92-1,1.36s-.64.71-.61,1.23a2.07,2.07,0,0,0,1.11-.44,9.75,9.75,0,0,0,2.39-2.12,3.27,3.27,0,0,0,.67-1.11,2.28,2.28,0,0,1,.31-1c.37-.56.73-1.14,1.11-1.69.74-1.09,1.15-2.32,1.81-3.44.56-1,1.24-1.87,1.87-2.79.49-.74.91-1.51,1.45-2.22a5.93,5.93,0,0,0,1.45-3.16A2.67,2.67,0,0,1,213.35,66.67Z"/><path class="cls-1" d="M196.48,109.06c1,2.33,4.9,2.59,7,2.59a16.74,16.74,0,0,0,8.56-2.54,13.89,13.89,0,0,0,6.2-7.17c.45-1.2.21-2.68.74-3.79.41-.87,1.58-1.2,2.4-1.65,7.81,11.39,16.79,21.94,25,33,5.06,6.78,8.61,14.81,12.91,22.13,3.27,5.57,6.72,11.47,10,17,2.48,4.15,8.63,11.36,9,15.86-6.38,2.75-12.28,6.35-19.38,6.9-4.36.34-8,0-12.19,1-4.9,1.14-9.45,2.87-14.38,3.2-8.65.56-17.8-1.42-26.33-2.48-6.93-.87-13.86-1.26-20.93-1.86-.9-10.74.63-22.05,1.52-32.73.76-9.22,2.83-17.65,5-26.59a84.14,84.14,0,0,0,1.91-9.53c.26-2.1.67-3.18.29-5.29-.28-1.5-2.12-2.46-1.7-4.21.33-1.36,4.61-1.92,4.72-3.76,0,.1,0,.2,0,.31"/><path class="cls-2" d="M254.76,103.08c-.64-.58-.82-1.39-1-1.07l-.27-.14c-.76.42-.18,1.63-.33,2.63-.1.61-.61.73-.91,1.09s-22.24,18.85-22.49,19.2c-1.05,1.5-2.37,2.49-3.47,3.88-.34.42-.7.78-1.05,1.17a15.8,15.8,0,0,0-3.58-3.1c-5-3.07-7.82,2-9.9,4.42-.86,1-2.62,2.49-2.13,4.92s1.78,5.16,3.62,5.63c2.18.56,4.3-1.32,5.68-2.48.28-.24.54-.5.81-.75l.3.46c.26.38-4.82,3.85-5.17,4.41-1.43,2.25-4.65,4.16-7,5.12-3.59,1.45-6.32,4.54-9.29,7a33.74,33.74,0,0,1-5.36,4.14c-1.89,1-2.78.49-4.6-.14-1.39-.48-3.79-.4-3.27,1.91.27,1.2,2.33,3.44,3.13,4.46,1.23,1.57,5.9,5.48,5.75,7.44.08-.72.22-.78.78-1.05.18-2.23.09-5,1.2-6.93s3.45-3.71,5.16-5.23c3.07-2.76,6.54-4.79,9.32-7.92,2.12-2.37,5.23-6,8.2-7.29a19.85,19.85,0,0,0,3.55-2.28c0,.07.08.12.12.2a3,3,0,0,0,0,2c.59,1.23,1.16.65,1.47.27a1.57,1.57,0,0,0,0-2,5.82,5.82,0,0,0-.91-1c.26-.21.53-.39.78-.59.27.43.54.86.75,1.27.68,1.3,1.11,2.56,1.76,1.66s0-1.46-.88-2.44c-.29-.33-.55-.73-.83-1.12l1-.82a7.23,7.23,0,0,0,.24.94c.41,1.13,1.51,2,1.88,1.29s-.37-1.53-.95-2.34c-.13-.18-.24-.39-.37-.58a9.32,9.32,0,0,0,1.63-2.56c.42-.85.43-1.73-.4-3.2-.44-.77-.89-1.48-1.36-2.14,1.41-1.23,24.45-20.52,25.61-22.2.95-1.38,1.84-2.17,2.18-2.73.53-.86,1.84.41,2.47-.16A14,14,0,0,0,254.76,103.08ZM224.14,131c-.54.53-1.09,1.05-1.64,1.57-.62-1-1.25-2-1.88-3A2.63,2.63,0,0,1,224.14,131Zm-4.47-1c.7,1.06,1.41,2.14,2.11,3.25-.37.32-.73.66-1.09,1-.72-1.19-1.44-2.38-2.18-3.53.2-.13.37-.29.57-.41A4.94,4.94,0,0,1,219.67,130Zm3.61,5.66-1.11,1.09-.34-.56c.34-.38.69-.78,1-1.17C223,135.23,223.15,135.44,223.28,135.66ZM219,136a23.59,23.59,0,0,0-2.5-3.77c.44-.38.95-.69,1.43-1,.6,1,1.39,2.49,1.88,3.34l.23.4c-.34.34-.69.69-1,1.06Zm-2.88,2.42c-.63.25-1.25,1-2.06.83-1.2-.25-1.08-.57-1-1.75a5.14,5.14,0,0,1,1.3-3,16.76,16.76,0,0,1,1.71-1.76c.8,1.3,1.62,2.57,2.43,3.85-.06.06-.12.11-.17.17A5.93,5.93,0,0,1,216.12,138.37Zm4.43,0c-.1-.15-.19-.29-.27-.43.32-.32.63-.68.93-1l.29.49c-.16.16-.33.31-.48.47S220.7,138.21,220.55,138.38ZM224,135l-.39-.66.75-.85.27-.27A2.73,2.73,0,0,1,224,135Z"/><path class="cls-3" d="M227.83,94.44c-3,.49-5.33,2.48-3.88,5.82.92,2.12,3.6,3.31,5.28,4.74a121.63,121.63,0,0,1,9.15,8.89c4.08,4.35,6.49,9.51,9.35,14.74,1.25,2.28,2.18,4.48,3.59,6.64.87,1.34,3.25,2.78,3.35,4.14a78.11,78.11,0,0,1-11.74-2.12c-2.25-.57-4.73-.86-7.08-1.3-4.09-.77-8.07-1.81-12.11-2.89-1.71-.45-4.78-.56-6.29-1.39-1.7-.94-1.73-3.29-3.19-4.21-2.13-1.33-4.37.8-4.56,2.89s1.74,3.84,2.42,5.88c-2,.44-3.42-1-5.2-1.36s-2.76.39-4.16,1.14c1.56,2.3,4.47,3,6.91,4.18-1.41,1.31-3.25.85-5.19,1-1.3.08-5,1.1-2.72,3.09s8.24-1.77,10.71-1.27c-1.48,1.34-4.43,5.39-6.82,5.14,4.76,4.42,10.56-5.23,13.55-7.56,3.34-2.61,10.41,1.44,14.23,2.61,7.82,2.38,15.64,4.39,23,8,5.4,2.66,10.72,5.08,16.75,5.32,1.73.07,3.48,0,5.22,0,3.64,0,6-.27,5.94-4.53s-3.44-7-6.62-9.41a121.64,121.64,0,0,1-9.85-9.16c-3.29-3.18-6.29-6.74-9.35-10.12s-6.59-6.48-9.66-9.84c-5.28-5.78-10.43-11.21-16.06-16.68C231.31,95.35,230.05,94.08,227.83,94.44Z"/></g></g></svg>