<svg xmlns="http://www.w3.org/2000/svg" viewBox="0 0 167.44 296.64"><defs><style>.cls-1{fill:#007293;}.cls-2{fill:#1d1d1b;}.cls-3{fill:#e30613;}.cls-4{fill:#fff;}</style></defs><g id="Ebene_2" data-name="Ebene 2"><g id="Ebene_1-2" data-name="Ebene 1"><path class="cls-1" d="M79.2,92.42c.08.46.94.55,1.34.72a14.39,14.39,0,0,1,1.69,1.1,20.18,20.18,0,0,0,3.48,1.56c1.58.64,3.33,1,4.92,1.52,2,.66,3.75,1.79,5.71,2.48,1.68.6,3.44,1.34,5.11,2,.61.25,1.15.58,1.75.77a11.91,11.91,0,0,1,1.7.53c2.3,1,4.73,1.6,7,2.53a7.11,7.11,0,0,1,2.5,1.26c-.32,1.77-1.4,1.85-2.29,2.7s-1.65,1.58-2.5,2.28a16.36,16.36,0,0,1-1.23,1.08c-.64.4-1.14,1.32-1.74.78a18.86,18.86,0,0,0-2.09-1.38,14.07,14.07,0,0,0-1.91-.76,65.56,65.56,0,0,0-7.37-3c-1.2-.37-2.4-.39-3.58-.68a36.4,36.4,0,0,0-3.68-.81c-2.2-.37-4.37-.62-6.57-.89a3.26,3.26,0,0,1-2.28-1c-.84-1-.63-1.63-.33-2.75A6.8,6.8,0,0,0,77.72,97,5.46,5.46,0,0,1,77,95.84c-.13-.53.18-.89.43-1.45s1-2.15,1.5-2.23a2.1,2.1,0,0,1,.13.26l.67,0"/><path class="cls-2" d="M91.36,130.55a108.49,108.49,0,0,1,7.12-8.79c2.44-2.56,5-5,7.59-7.41,4-3.67,8-7.38,12.34-10.66,2-1.51,3.82-3.19,5.65-4.82,2.11-1.85,5.38-4,8.39-3.87,2,.06,10.78.07,11.45,1.66.38.9,3.76,8.52,3.95,9.45s-7.74,2.15-8.44,3c-1,1.17-5-2-6-.82a30.68,30.68,0,0,1-4.69,4.28c-1.54,1.19-3.07,2.41-4.71,3.44-2.14,1.34-4.38,2.65-6.64,3.78-3,1.5-5.6,3.79-8.33,5.68s-5.3,4.07-8,6a44.89,44.89,0,0,0-4.71,3.85,78.21,78.21,0,0,1-6,5.17,19.94,19.94,0,0,1-2.31,1.67A7.06,7.06,0,0,1,86,143c-2.22.16-.63-3.67-.17-4.6A13.09,13.09,0,0,1,88,134.45,38,38,0,0,0,91.36,130.55Z"/><path class="cls-2" d="M141.74,119.55c2.66-.69,3.93.16,5.44,2.19,4.62,6.21,4.41,14.78,1.9,21.53a80.27,80.27,0,0,1-6.51,13c-1.89,3.15-3.52,6.44-5.44,9.63a112.09,112.09,0,0,0-5.3,10.64c-.94,2.07-2,4.09-2.79,6.25-.45,1.28-.88,2.7-1.43,3.91a24.53,24.53,0,0,1-4.18,6.46c-1.18-.25-2.36-2.37-3.49-3a16.83,16.83,0,0,1-3.58-2.88c.31-3.31,2.14-6.86,3.46-9.9,1-2.25,1.66-4.79,2.45-7.15.92-2.73,2-5.37,3-8.08,2-5.67,3.92-11.35,6-17,1.53-4.17,3-8.43,4.78-12.5.5-1.08,1.7-5.8,1.7-5.7S137.32,120.67,141.74,119.55Z"/><path class="cls-2" d="M91.76,140.86c-1,2.85,2.12,6.31,4,8,3.48,3.18,8.26,5.32,12.3,7.72.87.55,2.68,2.13,3.76,1.89.85-.19,1.76-1.52,2.34-2.15,5.66-6.45,10.94-13.35,16.32-20,1-1.28,2.32-2.24,3.39-3.45a24.65,24.65,0,0,1,2.52-2.59c1.78-1.51,3.41-1.46,5.47-1.08,1.45.27,1.52.64,1.56,2.14,0,1.16,0,2.32,0,3.49.08,5-.24,10.11,0,15.16s0,9.92,0,14.94c0,4.63,1.84,9.47,1.59,14-.27,4.91-.53,20.63,1.54,20.16a29.51,29.51,0,0,0,9.74-4.1c.14-1.41-.32-2.61-.17-3.26.38-1.81.23-4,.49-5.84,1-6.84,3.65-14.1,3.88-21a65.5,65.5,0,0,1,.77-6.54q.3-2.81.79-5.57a72.91,72.91,0,0,0,1.38-10.25c.17-6.61.93-13.28.69-19.89a42.68,42.68,0,0,0-1.23-10.34,22.92,22.92,0,0,0-2-4,13.9,13.9,0,0,0-2.34-3.63c-2.65-2.54-7-3.26-10.41-4.1a25.21,25.21,0,0,0-4.05-.59c-2.25-.17-4.27,1.15-6.3,2a71.44,71.44,0,0,0-12,5.72,39.77,39.77,0,0,0-6.12,5.18c-2.55,2.44-5.26,4.7-8,6.91-3.79,3.08-7.2,6.41-10.87,9.59-1.44,1.24-2.73,2.66-4.11,3.94-.34.32-1.1.89-1.72,1.51a25.75,25.75,0,0,1-1.5,3.2A18.68,18.68,0,0,0,91.76,140.86Z"/><path class="cls-1" d="M65.65,89.66c1.06,1.56,9,9.21,10,7.74.52-.73,7-10.39,7.56-11.11a24.07,24.07,0,0,0,1.49-2c1-1.67,2-1.81,2.84.05a24.94,24.94,0,0,0,2.19,4.27c1,1.35,2.53,2.6,4.21,2.51A10.69,10.69,0,0,0,98.05,90a36,36,0,0,1,3.83-2,9,9,0,0,0,2.66-1.34,66.27,66.27,0,0,0,4.89-5c1.73-1.74,3.66-2.71,5-4.86a25.21,25.21,0,0,0,2.82-7,16.37,16.37,0,0,0,0-6.16A64.82,64.82,0,0,0,116,56.07a44.89,44.89,0,0,0-2.75-6.66c-1.17-2.61-3.19-6-5.57-7.56a14.29,14.29,0,0,0-8.58-2.52,51.44,51.44,0,0,0-9.78,1.48C83.3,42,79.47,46.05,77.1,51.5a24.52,24.52,0,0,0-1.56,8.28c-.23,2.9-1.09,5.72-1,8.6a39.86,39.86,0,0,1,0,6.65,6.08,6.08,0,0,1-1.4,3.3c-.65.73-6.94,2-7.8,2.57a23.56,23.56,0,0,0,.1,2.91h0S65.12,88.87,65.65,89.66Z"/><path class="cls-3" d="M86.2,192.82c.56-1.16.76,4.51-.39,5.11-3.46,6.71-16.73,5.55-23.15,6.87-9.17,1.86-16.14-10.55-24.08-16.78-13.91-10.89-23.73-10.83-23.83-28.73-.07-16.9,6-37.24,15.93-50.23,5.22-6.81,11.43-11.64,18.07-16.9,5.58-4.45,10.18-12.07,18-11.77-3.22,10.16,5.26,15.15,12,20.52,0,13.54-10.37,20.74-8.37,32.55,1.52,9.06-2.66,16.45-1.18,25.38.52,3,7,7.64,8.44,10.36,2.2,4.35,6.34,6.38,9.75,9.83,2.17,2.19,3.91-.42,4.65,2.51,1.17,4.64-1,6.76-3.39,10.7"/><path class="cls-1" d="M160.9,141.51c.25.07.49-.46.66-.6a6.94,6.94,0,0,1,1-.65c.45-.3,1.22-1.52.2-1.64-.14,0-.31.11-.43.15a1.41,1.41,0,0,1-.59.09,13.18,13.18,0,0,0-3.32.33,25.73,25.73,0,0,1-2.6.46c-.72.11-1.35-.3-2.06-.19a4.92,4.92,0,0,0-1.73.82c-.61.38-.35.65-1.15.49-1.45-1.14-7.72-2.77-9.06-4.05a42.24,42.24,0,0,0-7.64-5.82,226.35,226.35,0,0,0-24.92-13c-3.91-1.71-7.48-4.62-11.27-6.24-1.92-.82-3.87-2.1-5.69-3-2.5-1.18-4.66-2.94-7.17-4.11-2.34-1.12-4.91-1.76-7.14-3.1a14.83,14.83,0,0,1-1.23-1c-.24,0-7.31-5-12.8,1.16-1.86,2.08-2.88,3.23-2.27,5.8a21,21,0,0,0,3.54,7.1,13.29,13.29,0,0,0,6.21,4.87s7.89.51,8.85,1.13c6.13,4,14,5.65,20.4,9.28s30.53,13.28,33.86,14.43a37.43,37.43,0,0,1,7.7,3.23c1.27.75,6.25,1.62,7.51,2.42.2.13,5.39,5.06,8.33,4.85,2.23-.17,9.13-4.94,9.35-7.11.17-1.65-.56-4.74-.86-6.39-.41-2-1.23-3.45-2.8-1.52-1.76,2.12.79,2.2-2.14,2.09-2.3-.12-1.27,0-3.33-1a18.88,18.88,0,0,0-3.22-1.3.18.18,0,0,1-.12,0"/><path class="cls-2" d="M2.92,129.85a59,59,0,0,0-2.6,16.08c-.09,3.18-.39,6.24-.31,9.41,0,2.23.56,4.47.57,6.67,0,5.27,3.33,10.58,6.21,14.9a111.56,111.56,0,0,0,10.44,13.46c5.07,5.5,11.51,9.69,17.88,13.51a139.8,139.8,0,0,0,14.66,8,45.47,45.47,0,0,0,10.08,2.57,28.31,28.31,0,0,0,8.76-.12,32.5,32.5,0,0,0,9.25-3.08,60.07,60.07,0,0,0,7.89-4c4.84-3.19,8.22-8.35,12-12.37,1.91-2.06,4-3.83,5.45-6.3,1.73-2.92,3.74-5.56,5.51-8.51l6.42-10.7c2-3.3,4.58-6.7,6.06-10.24-1.09-1.65-3.31-3-4.93-4.28-3.86-3-7.65-6.08-11.56-9a67.36,67.36,0,0,1-7.52-6.18c-1.41-1.41-2.75-3.09-4.63-4A69.76,69.76,0,0,0,84.6,149.6c-2.22,5-6.63,9.24-7.86,14.36-.8-1.2-1.11-3.58-1.43-5-.53-2.19-1.08-4.39-1.55-6.62-.82-4-2-8.16-2.09-12.24a44.76,44.76,0,0,1,1.64-12.67,23.43,23.43,0,0,1,1.84-5.1c.52-1,.86-1.61,1.32-2.72-.39-.24-1.31.06-1.68-.13-.56,2.24-1.93,3.46-1.85,5.55.07,1.79-.87,3.28-1.47,5a9.21,9.21,0,0,1-2.21,4.1c-1-.6-2.42-.61-3.54-.9S63.23,132.44,62,132c-2.59-.9-5.17-1.68-7.5-3.44-5.18-3.92-3-10.47-2.55-16.21a29,29,0,0,1,.6-4c1.11-4.94,3.72-9.89,8-12.82,2.9-2,7.28-3.3,10.41-1.09a36.66,36.66,0,0,1,4.49,4.41c.47,0,3.14,3,3.57,3.06,1.13-1.73-3-7.29-4.07-8.61-1.54-1.88-3-3.3-5.49-3.15a18.32,18.32,0,0,0-6.79,2c-1,.51-1.87,1.35-3,1.85a11.39,11.39,0,0,0-3,1.51c-.66-1.73-1.89-3.7-1.13-5.61s3-3.81,4.43-5.26A11.42,11.42,0,0,1,64.51,82c1.16-.37,1.24.1,2-.83s3.33-.58,3.76-1.52c-1.14-.64-2.52-3.24-4-3A9.62,9.62,0,0,0,64,77.74c-1.67.79-3.56,1.27-5.29,1.9-2.94,1.07-5.89,2.12-8.71,3.43-3.17,1.5-6.24,3.15-9.37,4.74-9.1,4.57-18.29,9.24-25,17.18C9.58,112.2,5.77,121,2.92,129.85Z"/><path class="cls-3" d="M99.19,83.48c-.44-1.5-2.56-1.82-3.14-2.3-.78,1.6,1.26,3.24,2.36,3.92,1.59,1,2.86.78,4.48-.12a11.56,11.56,0,0,1-1.68-1.37c-.72-.54-1.24.32-2-.13"/><path class="cls-3" d="M130.66,247.29a24.81,24.81,0,0,0,2.52-2.5,26.17,26.17,0,0,0,2.12-2.43c2.92-3.74,5.15-8.62,7-12.85,1-2.22,2.32-4.21,3.21-6.45s1.85-4.47,2.69-6.74a64.28,64.28,0,0,1,4.67-10,43.93,43.93,0,0,0,2.21-4.25,6.89,6.89,0,0,0,.66-1.63c.08-.34,1.7-5.43,1.82-6.56.28-2.64.56-5.35.67-8a17,17,0,0,1,.57-3.94,5.38,5.38,0,0,1,.38-.95,25.8,25.8,0,0,1-4,1.19,36.27,36.27,0,0,1-6.12.89,14.4,14.4,0,0,1-5.69-.62c-.09.58-.24,1.17-.33,1.77a19.78,19.78,0,0,0-.09,3.61c.08,3-.9,5.72-1.07,8.73a16.86,16.86,0,0,1-.4,4.76c-.74,2.29-2.38,1.42-4.32,1.21-2.66-.3-3.91.67-4.63,3.14a62.21,62.21,0,0,0-1.74,6.65c-.2,1,.45,5.45,1.16,6,1.77,1.48.86,3.49.47,5.32-.47,2.13-1,3.94-1.61,6A86.77,86.77,0,0,0,128.07,244C127.86,245.65,128.39,249,130.66,247.29Z"/><path class="cls-3" d="M98.77,225.89c3.18-2.22,6-5.54,8.45-8.41,1.28-1.52,2.77-2.77,4-4.29s2.46-3.13,3.63-4.7a49.82,49.82,0,0,1,5.94-6.79c1-.88,1.84-1.84,2.7-2.8a62,62,0,0,0,3.76-5.9c.8-2.06,1.59-4.16,2.24-6.3a13,13,0,0,1,1.32-3c.32-.6,1-1.12,1.43-1.77-2.62.94-5.94-.15-8.33-1.17a17.68,17.68,0,0,1-4.21-2.47,10.63,10.63,0,0,1-.87-.77c.08,1-1.27-.1-1.2,2.25a27,27,0,0,1-1,4.33c-.58,2.45-2,4.34-2.73,6.74-.39,1.24-3.59,4.18-5.12,3.47-2.1-1-3.33-.5-4.45,1.26-1,1.59-3.07,9.26-3.16,10.06-.28,2.58,0,3-.75,4.39-.81,1.62-1.64,2.92-2.57,4.42-2.13,3.37-2.53,11.32-1.72,10.93S98.05,226.38,98.77,225.89Z"/><path class="cls-2" d="M74.86,161.2c-.17-.29,1.2-2.22,1.55-2.83a49.16,49.16,0,0,0,2.25-5.22,87.42,87.42,0,0,0,3.42-9.33c.69-2.1,1.4-4.22,2-6.31.17-.52,1.23-3.43,1.5-3.44a7,7,0,0,0,.92,1.49c.29.55.47,1.16.74,1.7.51.93,1.06,1.85,1.6,2.86s1.19,1.94,1,3.2a11.87,11.87,0,0,1-1.19,3.2A66.51,66.51,0,0,1,81.91,157l-6.65,10.63Z"/><path class="cls-2" d="M102.39,67.24c-.71-.74-2.06-.4-3.11-.6-1.26-.24-2.78,0-1.62,1.53a3.23,3.23,0,0,1,2.9-.18,35.41,35.41,0,0,1,3.79,1.62,4.91,4.91,0,0,0-2-2.37"/><path class="cls-2" d="M113.41,77.45c-.22-1.59-1-2.45-3.23-5.36-.25.19-.31,1.57-.35,1.87A4.33,4.33,0,0,1,112,76.09a15,15,0,0,1,.75,1.5c.24.57-.27.83,0,1.35.64-.78.39-.52.65-1.49"/><path class="cls-4" d="M98.05,70.25c.23,0,.47-.1.68-.11s.49-.36.78-.35a4.91,4.91,0,0,1,1.74.44c.58.26,2,1.72,1.29,2.51-.32.38-.71-.18-1-.42s-.55-.81-1-1A11.89,11.89,0,0,0,99,70.88c-.48-.14-.37,0-.84-.14-.16-.32,0-.37.08-.53"/><path class="cls-4" d="M108.21,76.72c.23-.35.83-.22,1.11,0a2.7,2.7,0,0,1,1.12,1.2,3.42,3.42,0,0,1,.54,1.27,4.26,4.26,0,0,1,0,.51c0,.2.11.46,0,.59a3.94,3.94,0,0,0-.78-1.2,3.73,3.73,0,0,0-1-.83c-.38-.21-.79-.41-1.16-.64s.13-.58.37-.82"/><path class="cls-1" d="M100,71.1c0-.08,0-.18,0-.28s0-.19,0-.29a.54.54,0,0,1,.22-.46c.35-.23.69,0,1,.16.15.07.28.16.45.25a.5.5,0,0,1,.22.39c.13.38-.3.8-.57,1,0,0,0,0,0,0s-.16-.2-.26-.28a1.27,1.27,0,0,0-.33-.22c-.1-.06-.2-.09-.32-.15a1.62,1.62,0,0,1-.31-.1"/><path class="cls-2" d="M101.21,70.87c0-.13-.29-.24-.41-.24a.35.35,0,0,0-.39.23c-.12.24.14.52.52.61s.57-.11.54-.35-.54-.78-.69-.59"/><path class="cls-1" d="M108.88,77.8c0-.11.09-.19.11-.29s0-.21,0-.31a.49.49,0,0,1,.33-.41c.34-.1.59.27.84.52a4.59,4.59,0,0,0,.36.41.82.82,0,0,1,.13.49c0,.42-.45.73-.76.85,0,0,0,0,0,0s-.1-.28-.17-.38a1.13,1.13,0,0,0-.27-.34.81.81,0,0,0-.26-.26c-.08-.09-.18-.17-.24-.24"/><path class="cls-2" d="M110,78a.56.56,0,0,0-.31-.38.31.31,0,0,0-.4.09c-.15.22,0,.6.35.84s.53.07.57-.17-.33-1-.52-.86"/><path class="cls-4" d="M42.35,86.88c-.73,1.42,0,.44-.15.32.3,3.26,1.81,5.64-2.14,7-3.56,1.22-5.63.06-7.73-2.84,1.62-.42,3-1.83,4.28-2.69a17.81,17.81,0,0,1,5.7-2.09c-.29.07-.57.14-.86.23"/><path class="cls-4" d="M41.07,111.3c-.08-3.52-6.44-3.62-8.71-2.22-1.91,1.19-2.44,5.58-.76,7.2,3.3,3.22,12.73-2.45,9.47-5"/><path class="cls-4" d="M24.1,99.82c1.13-.3,1.51-1.23,2.66-.83,1.52.55,1.34,1.94,1,3.16a7.17,7.17,0,0,1-3.09,4.45c-2.38,1.35-4.37.82-3.65-2.12a7.74,7.74,0,0,1,3.16-4.15"/><path class="cls-4" d="M23.36,140.13c2.05-6.39-8.29-7.56-7.71-.36.61,7.51,8.35,3.32,8.11-2.44"/><path class="cls-4" d="M18.65,119.09c-3.32-2-7.53,3.91-4.77,6.64,3.42,3.39,7-4.34,5.77-6.88"/><path class="cls-4" d="M43.13,130.29c-.12.15-.22.3-.35.44-.21-2.2-3.19-2.26-4.74-1.22s-2.11,4.45-1.09,6c3.72,5.62,8.54-6.22,4.78-6.5"/><path class="cls-4" d="M54.08,104.77s-.36.23-.16-.37c-2.12.15-3.47.57-4.65,2.27s-1.8,4-.5,5.54c3.93,4.59,4.77-4.85,5.27-6.82a.87.87,0,0,0-.73.67"/><path class="cls-4" d="M54.71,92.16c-.23.5-.26.54-.13.11.47-2.45-3.65-2.4-5.1-1.54-2.75,1.59-2.3,5.44-1.25,7.93,2.75,6.61,10.36-4.26,7.12-6.13"/><path class="cls-4" d="M59.14,84.86c-.06.17,1.77-1,1.69-.84,2.54-2.3-.7-5-5-3.1-3.68,1.6-.55,8.35,3.35,5.15.08-.32,1.82-1.76,1.64-2"/><path class="cls-4" d="M61.11,139.36c-.54-3.59-9-.26-7.55,4.59.77,2.51,3.79,2.37,5.71.9,1.44-1.1,2.32-3.69,3.07-5.25a1.78,1.78,0,0,0-1.85-.63"/><path class="cls-4" d="M43.32,151.75c0-4.5-9.84-.27-7,4.9,1,1.79,4.28,1.07,5.43-.13s2.36-6.14.49-6.67"/><path class="cls-4" d="M18.9,161.31c-.49-1.86-.81-1.66-3-1.4-2.63.27-2.52,2.27-2.15,4.33s2.62,5.44,5.1,3.49c1.3-1,1.65-5.54.1-6.42"/><path class="cls-4" d="M9.2,142.06c-3.06,2.73-3.6,6.8-2.1,10.73,4.36.44,5.53-11.11,1.89-10.43"/><path class="cls-4" d="M3.09,160.94c-.43.12-.44.12-.07,0,3.89-1.34,3.5,6.26,1.32,7.74-.27.18-.43,0-.48-.35"/><path class="cls-4" d="M5,127.39c-.43.09-.44.09-.06,0,4.73,0-1.07,8.63-2.27,9.75-1.07-1.68.75-8.52,2.27-9.75"/><path class="cls-4" d="M11.77,180.44c-.06.18-.15.34-.23.52,1.34.18,2.07-1,3.3-1.28a3,3,0,0,1,3.7,1.78c1.2,2.35,1.78,5.67.34,7.83a37.83,37.83,0,0,1-4-4c-1.29-1.45-1.47-2.07-2.92-4"/><path class="cls-4" d="M36.25,168.52c.09.43.1.45,0,.06-.43-3.55-8.12.89-6.47,4.79.6,1.44,2.77,1.89,4.15,1.19a5.39,5.39,0,0,0,2.29-5.51"/><path class="cls-4" d="M55.9,161.8c-.12.14-.2.29-.33.44-1.26-4-11.54,3.1-7.37,7.33s10.35-6.29,6.43-8.53"/><path class="cls-4" d="M66.09,150.57c-1.23.34-2.65-.51-4,1.4-.93,1.37-1.23,4.16-.25,5.64,3.14,4.68,9.67-3.4,6.16-5.89"/><path class="cls-4" d="M76.19,171.36c-.42.11-.44.11,0,0,2.08-1.87-2.6-3.27-4-2.88a5.28,5.28,0,0,0-3.51,5.23c.32,6.54,9.46,3.56,7.54-2.39"/><path class="cls-4" d="M79.65,189.46c-.4.16-.43-1.2-.38-1.52.24-.17.17.9.06.66-2.76-2.11-6.29,4.27-3.84,6.12,4.14,3.13,5.83-4.28,3.78-6.78"/><path class="cls-4" d="M62,184.13c-.62,1-1.28.39-1.92,1a7.29,7.29,0,0,0-1.71,2.39c-.66,1.34-2,4.2-.11,5.06,2.87,1.31,4.66-5.17,4.12-6.88"/><path class="cls-4" d="M49,179.79c-1.28.22-9.94,1.26-5.14,4.93,2.93,2.26,6.31-2.14,5.14-4.93"/><path class="cls-4" d="M36.75,193.32c-.43.13-.45.13-.08,0,2.78-.62,8.42,1.79,6.16,5.37-1.52,2.49-6.93-2-6.76-4,.27-.21-.09-.81.25-.81"/><path class="cls-4" d="M60,206.32c-.36.56,0-.34-.81-.73a6.71,6.71,0,0,0-3.27-.44c-2,.19-3.89,1.19-2.94,3.47,1.17,2.77,9.17,3.09,7.29-1.29"/><path class="cls-4" d="M39.6,204.92c1.24.81,3.33.18,3.43,2.75a19.89,19.89,0,0,0-3.81-2.1"/><path class="cls-4" d="M27.34,184.13c.11.43.12.45,0,.08-.93-1.72,1.41-4.39,3.31-4.2,2.17.24,2,4,1.51,5.64-1.23,4.4-4.79,3.48-5.05-.82"/><path class="cls-4" d="M78.5,204.38l-.32.45c-1-3.23-7.4.79-7.36,3.66,0,2.25,1.94,3,3.85,2.3,2.44-.9,1.88-3,2.56-5"/><path class="cls-4" d="M94.59,194.94c-.25.52.74-.33.88-.76.46-2.57-10-1.86-7.52,4.59,2.14,5.57,8.72.13,7.52-4.59"/><path class="cls-4" d="M87.53,166.89c.13.41.13.42.07,0-1-.83-3.73-.83-4.91.05-1.69,1.23-2.19,6.16-.15,7.59,5.08,3.55,9.56-6.47,5.51-7.8"/><path class="cls-4" d="M101.32,176.45c-1.08.69-3.81-.33-5.45,1.44-1.36,1.45-2.21,6.72-.71,8.25,4.19,4.28,9.08-6.21,6.16-9.69"/><path class="cls-4" d="M99.78,161.65c-1.23,1.92-3.58.39-4.22,3.22a3.65,3.65,0,0,0,3.8,4.64c3.81-.16,6.53-8.7,1.31-8.63"/><path class="cls-4" d="M94.17,152.21c-1.24.73-4.27.35-5.52,1.89a4,4,0,0,0,.88,5.65c4.27,2.69,9.4-4.4,5.78-7.3"/><path class="cls-4" d="M115.61,168.53c-.71.08.62-.22-.74-.94a4,4,0,0,0-2.31-.48,5.68,5.68,0,0,0-4.35,2.3c-1.45,2.14-1.69,7.63,1.25,8.7,1.2-1.06,2.19-3.05,3.1-4.47s2.93-3.35,2.52-5"/><path class="cls-4" d="M116.75,153.6c-1.26.34-3.25,3.16-2.08,4.88s5.54,1.06,6.32-.66c-1.23-2-5.48-2.63-6-4.87"/><path class="cls-4" d="M106.52,151.83a5.07,5.07,0,0,0-.54-2c-3.93-.28-5.35,7.84-.71,7.71,4.82-.14,5-6,1.79-8.07"/><path class="cls-4" d="M98.36,138.7c-.7,1.47-1.55,4-.48,5.15,1.41,1.5,4.38.51,5.92-.1-1.26-1-3.56-2.31-4-3.79"/><path class="cls-4" d="M89.31,143.67c-.23,1.43,2.52,1.56,1.43,4-.58,1.29-4,3-5.43,3,1.32-2.24,3.3-3.95,4.13-6.49"/><path class="cls-4" d="M73,139.08c-1.62,1.54-3.08,3.18-3,5.61.09,1.87,1.29,4.3,3.21,4.56A22.56,22.56,0,0,0,73,139.08"/><path class="cls-4" d="M69.88,89.66c-.68,0-1.43,1.74-1.39,2.38s.33.51.82.59.79.25,1.22.12c.67-.2,1-1.47,1-2.12,0-.42,0-.77-.44-1s-1,.23-1.21,0"/><path class="cls-4" d="M75.88,97.27s.57-.39.86-.36a2.35,2.35,0,0,1,.92.49,4,4,0,0,1,.79,2.08c-.44.28-1-.7-1.26-.94-.39-.41-1.25-.83-1.47-1.36"/><path class="cls-4" d="M68,76.52c-.84.21-.63,1.69-.39,2.26.37.89,1.48.84,2.3.52,1.17-.45.86-1,.1-1.65a10,10,0,0,0-1.88-1.17"/><path class="cls-4" d="M76.31,121.28c-.06,0-.06.07,0,.07a1.55,1.55,0,0,0-.76.13c-.55.13-.52.1-.68.57s-.34,1.3-.1,1.64c.31,0,.62.22.9,0a4.45,4.45,0,0,1,.82-2.11.83.83,0,0,1-.21.06"/><path class="cls-2" d="M112.08,248.11a3,3,0,0,0,0-.42,2.76,2.76,0,0,1,.79,1.71,5.08,5.08,0,0,1,0,2.14c-.28.63-1.47,1.29-2.07,1.63a7.38,7.38,0,0,1-4.75,1.11c.3.76,1,1.22,1.27,2s.32,1.89.89,2.35c.29-1.29,2.58-2.56,3.66-3.14a8.23,8.23,0,0,1,3.88-.88c1.35,0,2.45,1.16,3.31,2.19s1.76,2.07,2.64,3.12c3.19,3.73,4.37,9.07,5.89,13.66.77,2.31,2,4.55,2.36,6.91a46.19,46.19,0,0,0,1.05,6.11c.95,3.3,4,10.71,8.44,10,2.3-.39,4.52-1.95,4.72-4.42.16-2.1-.12-4.37-.12-6.47s.2-4.18.05-6.27.22-4.52-.23-6.49c-.61-2.7-3.84-3.21-6.21-3.42-2-.15-4.23,1-6-.17s-3-3.85-4-5.8a61.84,61.84,0,0,0-3.38-5.86c-2.15-3.35-4.25-6.59-7.44-8.79-1.38-1-1.82-3-3.54-3.17-3.19-.26-.65,2.58-.57,4.09"/><path class="cls-2" d="M80,229.88c.18,4.13-7.5,1.86-9.65.27-.32,1.43-1.29,4.68-1,5.91.07.28,6.57-.05,7.47.36,2.06,1,2.49,2.27,2.56,4.39.19,6.87-2.64,12.41-5.47,18.42-1.05,2.2-1.68,4.69-3.06,6.63A44.72,44.72,0,0,0,67.41,271c-1.6,3-4.51,10.5-.77,13.05,1.93,1.3,4.62,1.71,6.46.06,1.55-1.4,2.92-3.24,4.38-4.78s3-2.88,4.37-4.49,3.26-3.13,4.31-4.85c1.4-2.37-.54-5-2.15-6.76-1.36-1.52-3.71-2.23-4.21-4.28s.43-4.91,1.09-6.95a61.84,61.84,0,0,0,1.6-6.58c.76-3.91,1.47-7.68.67-11.5-.33-1.63.79-3.45-.35-4.74-2.15-2.39-2.27,1.41-3.23,2.57"/><path class="cls-2" d="M117.83,69.14s-.14,0,0,.18c-1-.55-2.14-2.63-2.82-3.6a28.21,28.21,0,0,0-4.55-5c-1.67-1.43-3.25-2.92-4.87-4.43a18.13,18.13,0,0,0-2.76-2.58,7.11,7.11,0,0,1-1.43,2.13,47.06,47.06,0,0,0-4.47,4.57c-1.55,1.77-3.15,3.5-4.57,5.37-.55.7-1.12,1.38-1.69,2.09-.31.39-1.16,1.7-1.62,1.89-.61.22-1.31-.37-1.76-.74a13.08,13.08,0,0,0-2.35-1.51A25.91,25.91,0,0,1,82,66a21.61,21.61,0,0,0-2.52-1.61,22.25,22.25,0,0,1-3.33-1.61,17.78,17.78,0,0,0-1.54-1.24c-.6-.34-1.32-.41-1.83-1s-.45-1.46-.73-2.25c-1.71-4.95,1.25-11.06,4.41-14.89,2.24-2.69,5.42-5.47,8.77-6.68a7.27,7.27,0,0,1,2.4-.35,42.89,42.89,0,0,0,4.42-.59,48.52,48.52,0,0,1,5.86-.61,36.58,36.58,0,0,1,5.63-.17,18.84,18.84,0,0,1,6.85,2.53,13.54,13.54,0,0,1,5,5.95,75.43,75.43,0,0,1,3.48,8c1.37,4,1.72,8.21,2.58,12.35a33.63,33.63,0,0,1,.59,4.49c.1,1.64,0,3.37.2,5a44,44,0,0,1,.2,4.47,25,25,0,0,1,.17,3.75,7.75,7.75,0,0,1-1.37-1.14A13.47,13.47,0,0,0,118.88,79a25.4,25.4,0,0,1-3.6-2.22c-1.24-1,.13-2.53.55-3.77a18.36,18.36,0,0,0,.44-2c.16-.64.66-1.36.57-2"/><path class="cls-2" d="M108.05,38.13c2.58-2.62,5.16-5,6.58-8.33a31.81,31.81,0,0,0,1.93-17,12.94,12.94,0,0,0-7-10.17c-2.87-1.47-6-2.89-9.72-2.53-4.49.42-8.34,2.77-12,6.44-4.89,4.95-9.66,10-15.53,13.54a19.14,19.14,0,0,1-10.71,3,32.13,32.13,0,0,1-5.91-1,16.78,16.78,0,0,0-3.43-1,5.91,5.91,0,0,1,1.47,2.33,7.41,7.41,0,0,0,2.74,3.07c2,1.4,4.84,1.27,7.63.74,4.21-.81,8.21-1.21,12.5-2.88S85,21.46,89.24,20.21c3.49-1,6.94-2.21,10.43-3a5.54,5.54,0,0,1,5.7,1.88c1.55,1.61,1.44,4.25,1.21,6.78a33.26,33.26,0,0,0,.15,6.41c.19,1.86.78,3.89.57,5.87a4.78,4.78,0,0,1-.39-.39"/></g></g></svg>