<svg xmlns="http://www.w3.org/2000/svg" viewBox="0 0 263.32 390.83"><defs><style>.cls-1{fill:#007293;}.cls-2{fill:#fff;}.cls-3{fill:#1d1d1b;}.cls-4{fill:#e30613;}</style></defs><g id="Ebene_2" data-name="Ebene 2"><g id="Ebene_1-2" data-name="Ebene 1"><path class="cls-1" d="M65,359.57c-9.7-6.34-4.9-24.46-9.45-34.05a16,16,0,0,1,2.89-3.36c3.34,1.42,7.16,5.79,10.42,4.15,2.48-1.24,2.27-3.07,5.38-3.2,3.64-.15,7.15,4.4,8.46-1.09,1.14-4.81,2.51-9.62,3.32-14.5a49.23,49.23,0,0,0,.6-7.77,11.29,11.29,0,0,1,.61-4.61c4,4.36,6.81,10.22,9.22,15.62,1.45,3.23,3.45,5.6,2.75,9.35-.77,4.09-1.79,8.06-2.37,12.23s-.5,8-2,12a63.31,63.31,0,0,1-3.62,7.95,19.88,19.88,0,0,1-15,10.22A18.69,18.69,0,0,1,65,359.57Z"/><path class="cls-2" d="M76.46,343c-.94-1.24-2.29-2.89-4.16-3.36a10.32,10.32,0,0,0-6.41.38c1.76,2.44,3,5.24,6.21,6.11a11,11,0,0,0,6.48-.29c-.75-1.81-1.25-3.29-3.09-4.15"/><path class="cls-3" d="M66.07,340.25a11.43,11.43,0,0,0,4.14,5.11c1.49,1,4,1.94,5,3.59a1.92,1.92,0,0,0-.55-1.47,8.7,8.7,0,0,1,3.77,2.35,6.19,6.19,0,0,0-1.44-2.4c1.07-.08,3.55.7,4.22,1.61a10.37,10.37,0,0,0-3.24-2.31c1-.28,2.07-.42,3.07-.77-1.45-.3-2.47-.22-3.1-1.73a9.16,9.16,0,0,0-3.07-3.94,7.28,7.28,0,0,0-4.8-1.12c-1.06.06-3.19.08-3.79,1.16,2.07.38,4,.21,6,.95a6.8,6.8,0,0,1,2.9,1.73,20.74,20.74,0,0,0,2.1,2.4c-1.07,1.42-5,.54-6.23-.05-.72-.34-5.2-3.1-4.49-3.87"/><path class="cls-3" d="M73.67,346.84c1.82,1,4.25-.41,3-2.54-.93-1.61-3-2-3.61-.36l0,.12c-.45,1.32.38,3.23,2,3.08a3.17,3.17,0,0,0,2-1.18c.59-1.25-2.4-3.27-3.48-2.6A2.08,2.08,0,0,0,73.67,346.84Z"/><path class="cls-4" d="M78,327.19c.31.06.31-.29,0-.29a.75.75,0,0,0-.51.28,2.6,2.6,0,0,0-.23.4,1.87,1.87,0,0,1-.28.35c-.15.17-.56.41-.46.66s.48.18.68.22.38.26.51.48a1.08,1.08,0,0,0,.68.5,14.55,14.55,0,0,1,1.85.54,5.94,5.94,0,0,1,1.87,1.52c.36.43.73.85,1.1,1.27a3.44,3.44,0,0,1,.7.95,6.71,6.71,0,0,0-.51-1.59c-.24-.59-.47-1.19-.71-1.78a6.19,6.19,0,0,0-1.85-2.24,7.3,7.3,0,0,0-1.5-1,3.39,3.39,0,0,0-.68-.29,2.28,2.28,0,0,1-.78-.31"/><path class="cls-3" d="M58.15,342.8c-1.25-1.16-2.35-.61-3.42.6.4-.45.79-1.11,1.36-1.26a2.44,2.44,0,0,1,1.53.3c-.79-1.07-2.07-.68-2.85.31.72-.83,2-2.45,3.15-1.41-.71-1-3,0-3.09,1.05a5,5,0,0,1,1.46-2,2.46,2.46,0,0,1,2.21.32,3.94,3.94,0,0,0-.34,2.41"/><path class="cls-3" d="M78,363.6a14.92,14.92,0,0,0,9.28-4.52c2.36-2.56,5.32-4.88,6.37-8.45A34.61,34.61,0,0,0,95.1,345c.22-1.83-.26-3.76.52-5.42-1.51,1.77-3.41,3.3-4.87,5.24s-2.14,6.38-4.19,7.39c-2.46,1.22-2.23-2.85-1.42-4.26.55-1,3.39-3.53,1.68-4.46a2.92,2.92,0,0,0,.21,1.34c-1.35,2.15-4.06,2.72-4.76,5.49-1.1,4.26-.09,7.72-5.64,8.15-3,.24-5.95.26-8.6-1.42a41,41,0,0,1-5.79-5c-1.24-1.17-2.37-2.29-4.14-1.89-1.49.34-3.37,2.35-3.39,4,1.68-.91,3.6,0,5,1.3a19,19,0,0,1,1.69,2.27C65.55,362.39,72.08,364.12,78,363.6Z"/><path class="cls-3" d="M114.61,321.29l-.59-.16c-3-.8-5.45-3.05-8.61-3.2a10.18,10.18,0,0,0-8.55,4c-.49.65-.48,1.49-1.38,1.34a7.59,7.59,0,0,1-1.92-.83c-1.33-.64-2.63-1.21-3.91-1.92s-2.58-1.32-3.82-2c0,0,.73-2.83.8-3.09.59-2.23,1.26-5.7.15-7.9a18.1,18.1,0,0,0-2-2.62c-1.78-2.17-4.42-3.23-6.55-5-3.09-2.59-7.38-2.4-10.5-5.17s-5.17-7.45-6.7-11.28c-1.77-4.46-3.89-8.67-5.75-13.08-1.08-2.57-2-5.23-3.15-7.75-1.76-3.73-1.93-7.76-3.39-11.48-1.3-3.33-3.14-6.53-4.49-9.88-4.2-10.39-8.5-20.73-13.33-30.82-1.94-4-3.92-8.06-6-12-1.86-3.54-3.81-7-5.93-10.35a25.23,25.23,0,0,1-3.12-8c-1.66-6.33-8.26-8.83-13.76-10.09-3.52-.81-2.07-3.43.91-3.22,2.6.17,5.09,1.3,7.72,1.19A47.14,47.14,0,0,0,8,162.78c-.56-1-3.78-3.71-2.51-4.91,1.92-1.83,6,6.09,7.6,6.86.83-1.39-.66-4.95-.93-6.55a31.09,31.09,0,0,1-.5-7.52c4-1,3.24,10.62,6.34,12.35.36-3.23-.67-11.23,1.87-13.49,1.06-.94,2.62,4.41,2.67,4.86a33.68,33.68,0,0,1,.09,5.22c0,.92-.55,7.49,1.75,5.67C26,164,27,158.69,29.31,159c3.58.42-.52,6-1.28,7.13a13.28,13.28,0,0,0-2.32,11.08c.91,4.38,3.14,8.14,5.14,12,2.53,4.92,5.07,9.79,7.69,14.66,1.37,2.56,2.86,5.14,4.05,7.78,3,6.67,5.92,13.44,9.12,20.07,1.71,3.55,3,7.27,4.76,10.81,2.66,5.28,5.12,12.35,9.65,16.24,1.7,1.46,4,2.24,6,3.15,3.92,1.77,6.38.12,10.32-.48s7.92-2.13,12.09-1.73c4.44.41,10.23,3.52,13.32,6.87s4.48,6.71,6.4,10.79a65.29,65.29,0,0,1,4.11,9.84c1,3.52.73,6.58.87,10.18.06,1.57-.26,3.46.08,5,.31,1.32,1.52,2.55,2.36,3.56a28.26,28.26,0,0,0,7,6c4.66,2.88,9.69,5.52,15.05,6.58,3.62.71,8,2.33,11.7,1.52s7.62-3.57,10.81-5.6a185.81,185.81,0,0,0,26.42-20.86,21.13,21.13,0,0,0,3.47-3.41,16.46,16.46,0,0,0,1.62-4.78c.16-.57.86-4.17,1.68-4s.49,4.19.64,4.82c.93,3.85,4-6.24,5.81-3.47.86,1.31-.74,3.52.05,4.86s3.9.37,5.14.12c.73,2.39-6.74.91-5.92,4.31a6.57,6.57,0,0,1,4.56.09c1,.4,3.08,1.38,1.81,2.55s-4.55.18-6.12.36c-1.93.22-.88,1,.11,2.15.55.64,2.85,2.79,1.79,3.7s-4.07-1.6-4.83-2.16c-1.13-.84-2.41-2.28-3.92-1.75-1.74.62-3.34,3.09-4.56,4.42-2.67,2.91-5.33,5.82-8.07,8.65-4.8,4.94-9.87,10-15.69,13.61-2,1.26-3.69,3.2-5.79,4.28-2.63,1.35-5.74.75-8.56.8a96.92,96.92,0,0,1-13.61-1.09c-4.91-.6-9.84-.89-14.7-2C123.09,324.7,119,322.55,114.61,321.29Z"/><path class="cls-3" d="M114.61,321.29l-.59-.16c-3-.8-5.45-3.05-8.61-3.2-2.51-.12-6.23.53-6.6,3.7-.2,1.73.88,2.95,1.13,4.56.28,1.86-1.54,1.79-2.66,1.09s-1.9-1.57-2.89-2.3a18.78,18.78,0,0,0-4.86-2.54c-2-.72-4-1.2-6-1.73a6.08,6.08,0,0,1-2.22-.82c.79-.68,1.1-2.36,1.47-3.34a24.26,24.26,0,0,0,1.25-4.1c.24-1.31.46-2.61.74-3.91a4.13,4.13,0,0,0,0-2.94c-.27-.5-.65-.9-1-1.37-.14-.23-.18-.47-.33-.68-1.26-1.73-3.64-2.38-5.23-3.7-3.09-2.59-7.38-2.4-10.5-5.17s-5.17-7.45-6.7-11.28c-1.77-4.46-3.89-8.67-5.75-13.08-1.08-2.57-2-5.23-3.15-7.75-1.76-3.73-1.93-7.76-3.39-11.48-1.3-3.33-3.14-6.53-4.49-9.88-4.2-10.39-8.5-20.73-13.33-30.82-1.94-4-3.92-8.06-6-12-1.86-3.54-3.81-7-5.93-10.35a25.23,25.23,0,0,1-3.12-8c-1.66-6.33-8.26-8.83-13.76-10.09-3.52-.81-2.07-3.43.91-3.22,2.6.17,5.09,1.3,7.72,1.19A47.14,47.14,0,0,0,8,162.78c-.56-1-3.78-3.71-2.51-4.91,1.92-1.83,6,6.09,7.6,6.86.83-1.39-.66-4.95-.93-6.55a31.09,31.09,0,0,1-.5-7.52c4-1,3.24,10.62,6.34,12.35.36-3.23-.67-11.23,1.87-13.49,1.06-.94,2.62,4.41,2.67,4.86a33.68,33.68,0,0,1,.09,5.22c0,.92-.55,7.49,1.75,5.67C26,164,27,158.69,29.31,159c3.58.42-.52,6-1.28,7.13a13.28,13.28,0,0,0-2.32,11.08c.91,4.38,3.14,8.14,5.14,12,2.53,4.92,5.07,9.79,7.69,14.66,1.37,2.56,2.86,5.14,4.05,7.78,3,6.67,5.92,13.44,9.12,20.07,1.71,3.55,3,7.27,4.76,10.81,2.66,5.28,5.12,12.35,9.65,16.24,1.7,1.46,4,2.24,6,3.15,3.92,1.77,6.38.12,10.32-.48s7.92-2.13,12.09-1.73c4.44.41,10.23,3.52,13.32,6.87s4.48,6.71,6.4,10.79a65.29,65.29,0,0,1,4.11,9.84c1,3.52.73,6.58.87,10.18.06,1.57-.26,3.46.08,5,.31,1.32,1.52,2.55,2.36,3.56a28.26,28.26,0,0,0,7,6c4.66,2.88,9.69,5.52,15.05,6.58,3.62.71,8,2.33,11.7,1.52s7.62-3.57,10.81-5.6a185.81,185.81,0,0,0,26.42-20.86,21.13,21.13,0,0,0,3.47-3.41,16.46,16.46,0,0,0,1.62-4.78c.16-.57.86-4.17,1.68-4s.49,4.19.64,4.82c.93,3.85,4-6.24,5.81-3.47.86,1.31-.74,3.52.05,4.86s3.9.37,5.14.12c.73,2.39-6.74.91-5.92,4.31a6.57,6.57,0,0,1,4.56.09c1,.4,3.08,1.38,1.81,2.55s-4.55.18-6.12.36c-1.93.22-.88,1,.11,2.15.55.64,2.85,2.79,1.79,3.7s-4.07-1.6-4.83-2.16c-1.13-.84-2.41-2.28-3.92-1.75-1.74.62-3.34,3.09-4.56,4.42-2.67,2.91-5.33,5.82-8.07,8.65-4.8,4.94-9.87,10-15.69,13.61-2,1.26-3.69,3.2-5.79,4.28-2.63,1.35-5.74.75-8.56.8a96.92,96.92,0,0,1-13.61-1.09c-4.91-.6-9.84-.89-14.7-2C123.09,324.7,119,322.55,114.61,321.29Z"/><path class="cls-4" d="M60.83,251.61A29.71,29.71,0,0,0,64.37,257a47.45,47.45,0,0,0-7.77.3c-2.08.24-4.1.42-6.09.49a58.59,58.59,0,0,0-1.66-6.28C52.83,251.64,56.84,251.47,60.83,251.61Z"/><path class="cls-4" d="M37.27,201.49l1.27,2.39c.47.88,1,1.78,1.45,2.67-2,3.42-4.14,6.72-5.55,10.46l-.21.6c-.77-1.72-1.58-3.42-2.38-5.13C33.54,208.76,35.62,205.21,37.27,201.49Z"/><path class="cls-1" d="M25.69,177a19.75,19.75,0,0,0-8.9-2.09c-1.31,0-2.61,0-3.92.08C10,172.23,5.78,170.81,2.06,170c-3.52-.81-2.07-3.43.91-3.22,2.6.17,5.09,1.3,7.72,1.19A47.14,47.14,0,0,0,8,162.78c-.56-1-3.78-3.71-2.51-4.91,1.92-1.83,6,6.09,7.6,6.86.83-1.39-.66-4.95-.93-6.55a31.09,31.09,0,0,1-.5-7.52c4-1,3.24,10.62,6.34,12.35.36-3.23-.67-11.23,1.87-13.49,1.06-.94,2.62,4.41,2.67,4.86a33.68,33.68,0,0,1,.09,5.22c0,.92-.55,7.49,1.75,5.67C26,164,27,158.69,29.31,159c3.58.42-.52,6-1.28,7.13A13.25,13.25,0,0,0,25.69,177Z"/><path class="cls-1" d="M198.56,297a4.89,4.89,0,0,0-.52.25,20,20,0,0,0-4.75-4.23,14.84,14.84,0,0,0,2.85-2.86,16.46,16.46,0,0,0,1.62-4.78c.16-.57.86-4.17,1.68-4s.49,4.19.64,4.82c.93,3.85,4-6.24,5.81-3.47.86,1.31-.74,3.52.05,4.86s3.9.37,5.14.12c.73,2.39-6.74.91-5.92,4.31a6.57,6.57,0,0,1,4.56.09c1,.4,3.08,1.38,1.81,2.55s-4.55.18-6.12.36c-1.93.22-.88,1,.11,2.15.55.64,2.85,2.79,1.79,3.7s-4.07-1.6-4.83-2.16C201.35,297.9,200.07,296.46,198.56,297Z"/><path class="cls-4" d="M166.62,314.18a23.78,23.78,0,0,1-.69,9.19,27.66,27.66,0,0,1-1.94,4.78,12.88,12.88,0,0,1-5.5.66,30.83,30.83,0,0,0,4.81-12.5c1-.64,2-1.29,2.95-1.89Z"/><path class="cls-4" d="M126.87,310.71c.67,4.6,1.16,10.47,2.6,15.37-.63-.12-1.26-.24-1.89-.38-.36-.08-.71-.18-1.06-.27-.27-1.9-.4-3.66-.52-4.9-.32-3.6-.46-7.21-.85-10.8,0-.12,0-.25,0-.38C125.68,309.83,126.27,310.28,126.87,310.71Z"/><path class="cls-3" d="M170.67,252.06c.8.26,1.59.49,2.36.73a15.46,15.46,0,0,0,4.16,1c1.14.05,2.88-.29,3.88.47,1.74,1.32,2,7.58,2.36,9.69,1,5.22,1.42,10.62,2.32,15.89,2.14,12.44,4,24.93,8.57,36.76,3.83,10,6.12,20.47,10.49,30.26A90.64,90.64,0,0,1,210.74,366c.78,3.92,1,7.92,1.67,11.86s.94,9.38-.81,13c-2.51-2.51-3.51-7-4.59-10.31-2-6-4.8-13.35-10-17.18-1.9-1.39-5.6-2.85-6.72-5.18-1-2.06,3-7.38,5-8-4.76-14.72-10.24-29.32-15.21-44-1.62-4.81-3.2-9.65-4.86-14.46-1.56-4.55-3.75-8.84-5.22-13.42-2.78-8.7-5.43-17.14-8.81-25.5a48.48,48.48,0,0,1-2-5.07c3.08,1.5,6.55,2.39,9.74,3.73C169.53,251.67,170.1,251.87,170.67,252.06Z"/><path class="cls-4" d="M179.17,272.4c-1.66,3.2-3.49,6.35-4.89,9.7a32.41,32.41,0,0,0-1.29,3.82c-.8-1.91-1.61-3.82-2.32-5.76a44.56,44.56,0,0,1,3.13-7.23c2.62-4.84,6.95-8.69,9-13.72.15,1,.27,2.05.37,2.94A48.55,48.55,0,0,1,179.17,272.4Z"/><path class="cls-4" d="M195.31,350.16c-.12-.35-.24-.7-.35-1.05a25.31,25.31,0,0,0,4.56-4.21,13,13,0,0,0,2.57-4.88c.83,2.32,1.71,4.62,2.72,6.87A90.64,90.64,0,0,1,210.74,366c.78,3.92,1,7.92,1.67,11.86s.94,9.38-.81,13c-2.51-2.51-3.51-7-4.59-10.31-2-6-4.8-13.35-10-17.18-1.9-1.39-5.6-2.85-6.72-5.18C189.3,356.1,193.26,350.78,195.31,350.16Z"/><path class="cls-4" d="M182.62,313.46q-1.27-3.65-2.52-7.31l-.07-.22a62.42,62.42,0,0,0,7.7,4.47,44.83,44.83,0,0,1,5.62,3.5c.32.91.63,1.83,1,2.73.79,2.07,1.51,4.15,2.2,6.25C193.09,318.69,187.29,316.54,182.62,313.46Z"/><path class="cls-1" d="M253.77,215.12A16.71,16.71,0,0,1,252,214c-.91-.68-.77-1.18-1-2.28a2.9,2.9,0,0,0-.63-1.12,7.74,7.74,0,0,0-2.31-2.11,9.65,9.65,0,0,0-6-1.33c-3.54.4-7.37,2.71-10.34,4.4-3.49,2-7.54,4.6-10,8a14,14,0,0,0-1.46,2.46,25.38,25.38,0,0,0-.67,2.88c-.62,2.24-2,3.49-3.61,5.06a11.13,11.13,0,0,1-3,1.86c-.85.39-2.15.92-2.94.14a2.46,2.46,0,0,0-1.1,2.55,23.13,23.13,0,0,0,2.24,6.72,15.41,15.41,0,0,0,2.81,4.06,9,9,0,0,0,2.6,2c1,.41,4.78-2.09,5.88-2.57,2.7-1.18,5.4-2.64,8.05-3.94s4.92-2.41,7.55-3.57a30.67,30.67,0,0,1,7.95-2.2,26,26,0,0,0,3.48-.57,10.91,10.91,0,0,0,4.75-3.27,2.54,2.54,0,0,0,.85-1.69c0-.93-.36-1-.78-1.71-.54-.88.67-1.9.21-2.84-.23-.47-.55-.55-.59-1.14a1.05,1.05,0,0,1,.54-1.15A13.41,13.41,0,0,1,259,221a6.63,6.63,0,0,0,1.79-.55c.25-.13.46-.12.66-.34s.51-.55.74-.84a5.87,5.87,0,0,0,.73-1.23,3.89,3.89,0,0,0,.39-1.08.55.55,0,0,0-.11-.47.66.66,0,0,0-.5-.15c-.42,0-.83,0-1.25.07s-.89.18-1.35.23-.82.11-1.22.13a4.66,4.66,0,0,1-.75,0,3.28,3.28,0,0,1-1-.23,10.24,10.24,0,0,0-1.1-.39A14.1,14.1,0,0,1,253.77,215.12Z"/><path class="cls-3" d="M246.17,212.55c.31-.13.65-.17,1-.28a2.36,2.36,0,0,1,.84-.15,1,1,0,0,1,.72.31.44.44,0,0,1-.13.55,1.32,1.32,0,0,1-.72.37c-.31,0-.62,0-.93,0a5.39,5.39,0,0,0-.8.16,2.42,2.42,0,0,0-.9.5,6.31,6.31,0,0,0-.84.71,8.46,8.46,0,0,0-.86,1.2c-.15.25-.24.64-.5.77a2.26,2.26,0,0,1-.85.21,2.68,2.68,0,0,1-1.13-.06c-.29-.11-.54-.27-.83-.37a2.18,2.18,0,0,1-.58-.27,2,2,0,0,0,1.33.09,2.58,2.58,0,0,0,1.13-.63c.16-.15.25-.33.4-.47s.37-.28.53-.44.5-.55.76-.82a5.17,5.17,0,0,1,.73-.6c.15-.1.31-.17.46-.27a1.62,1.62,0,0,1,.56-.23C245.74,212.75,246,212.63,246.17,212.55Z"/><path class="cls-2" d="M247.9,218.12a2.74,2.74,0,0,1-.55.13,5.91,5.91,0,0,1-.95.18,2,2,0,0,1-.94-.22c-.21-.1-.38-.24-.58-.35a.86.86,0,0,1-.29-.19l-.2-.25a3.22,3.22,0,0,0,.85-.64c.42-.31.85-.65,1.29-.93s.55-.41.86-.57a6.58,6.58,0,0,1,.72-.32,6.16,6.16,0,0,1,.67-.26.54.54,0,0,1,.45.06c.28.14,1,.43,1,.8a1.32,1.32,0,0,1-.19.6,3.47,3.47,0,0,1-.81,1.24A3.74,3.74,0,0,1,247.9,218.12Z"/><path class="cls-3" d="M249.94,215.78a1.11,1.11,0,0,1,0,.64,1.24,1.24,0,0,1-1.12.86,1.22,1.22,0,0,1-1.43-.83.91.91,0,0,1,.7-1.29C248.72,215,249.77,215.09,249.94,215.78Z"/><path class="cls-3" d="M254.5,225.31c-.38,0-.75.47-1.07.68s-.79.56-1.22.81c-.67.38-1.53.47-2.15.88.25.46,1.21.51,1.67.5a13.11,13.11,0,0,1,1.88,0c.29,0,.5.12.7-.18s0-.46-.14-.73,0-.4.2-.72a2.26,2.26,0,0,0,.32-.86,1.86,1.86,0,0,0-.44-.61"/><path class="cls-1" d="M75.86,132.5a27.55,27.55,0,0,1,2.7-7.53,30.08,30.08,0,0,1,6.59-8.24,32.78,32.78,0,0,1,20.37-8.16,77.39,77.39,0,0,1,15.13,1.23c2.45.43,4.95.81,7.37,1.47,4.47,1.22,9.07,2.06,13.53,3.31,1.3.36,2.46,1.25,3.79,1.46,3.62.59,8.42-1.67,10.93-4.25,2.08-2.13,3.6-6.7,6.54-7.82.14.24.42.45.56.69.77-.56,1.78-3.38,2.67-3.4,1.8-.05,1.06,2.56.76,3.34,1.4-.56,1.24-2.36,3-2.4,2.82,2.53-2.72,7.19-4.29,8.7-3.14,3-3.8,5.39-3.82,9.68,0,1.49.27,3.82-.32,5.11-.76,1.64-2.8,2.18-4.4,2.43-1.82.29-4.05.68-5.67-.44s-2.19-2.25-4-2.87c-2.09-.74-4.35-2-6.63-2.69-5-1.51-10.2-1.8-15.31-2.61-3.11-.49-6.3-1.64-9.4-2a44.19,44.19,0,0,0-9.32.39c-3,.36-6,2.28-8.25,4.3-4.55,4.07-6.58,11.76-6.88,17.8-.31,6.45-.89,13,.18,19.39,1.26,7.5,3.19,15.06-1.1,21.75-1.53,2.39-7.72,5.44-10.47,4.14-3.21-1.53-2.59-8.18-3.18-11.12-.45-2.2-1.55-3.79-1.74-6.1-.24-3,0-6-.32-9.06-.6-6.11-2.42-11.73-.87-17.8C74.8,138.29,75.22,135.36,75.86,132.5Z"/><path class="cls-1" d="M162.48,295.05a1.23,1.23,0,0,1,0-.2c-.26-3.67,3.64-7.81,5.36-10.74,2.46-4.17,5.66-7.83,8.21-12,2.18-3.54,4.2-7.19,6.33-10.77,1.87-3.15,4.35-5.92,4.84-9.67,0-.36-3.35.25-3.66.36a17.15,17.15,0,0,1-1.6.69A13.77,13.77,0,0,1,180,253c-.79.06-1.56.08-2.37.08a67.26,67.26,0,0,1-13.45-1.75,63.81,63.81,0,0,1-11-3.18,24.32,24.32,0,0,0-4.67-1.86,14.79,14.79,0,0,1-4.18-1.52c-6.86-3.36-13.76-6.63-20.46-10.33a134.07,134.07,0,0,1-12.74-7.89c-5.41-3.82-10.38-8.24-15.5-12.43-5.3-4.34-11.17-8.49-16.14-13.08C75,196.87,68.9,192.2,65.73,186.78S59,176.37,56.2,170.83c-3.73-7.42-5-14.6-6.05-22.88a150.4,150.4,0,0,1-.27-34.13q.87-8.64,2.49-17.16c.48-2.5,1.31-3.6,2.5-5.66,1.31-2.24,1.42-5.06,2.11-7.54A73.93,73.93,0,0,1,61.7,70.9a80.33,80.33,0,0,1,9.6-14.48,62.52,62.52,0,0,1,11-11.1c9.65-7.32,19.32-13.54,30.83-17.1C120,26.09,130,26.69,134.78,20c1.68-2.31,1.51-5.32,2-8,.35-1.89.45-8.63,2.15-9.65a1.54,1.54,0,0,1,2.21.79A3.22,3.22,0,0,0,141.3,1c1-1.52,2.66-.88,2.52.82,2-1.21,5-3.77,4.41.57-.37,2.72-2.3,4.66-3.17,7.12a21.27,21.27,0,0,0-1.19,8c.11,3.21,3.87,8,2.48,10.93a4.55,4.55,0,0,1-3.22,2.23c-2.29.1-4.17-1.38-6.34-1.63-2-.24-4.27.66-6.14,1.16a147.13,147.13,0,0,0-22.21,8C102.07,41.05,96,44.33,90.87,49.44a59.67,59.67,0,0,0-7.17,8.11c-2.47,3.51-4.43,7.12-6.59,10.9-5.67,9.9-6.43,21.15-9.7,31.9-2.91,9.55-4.53,18.39-4.24,28.41.11,3.86,0,7.29,1.14,11.07,1.5,5.14,3.63,10.11,5.38,15.16,1.38,4,2.45,8.89,4.54,12.51,1,1.81,2.48,3.33,3.62,5.07.85,1.3,1.17,3.17,2.71,3.63,5,1.48,10-1.34,15,1,6.58,3.08,13.43,4,19.22,8.76,4.79,3.94,8.7,9.19,13,13.85,6.41,7,14.63,11.48,22.7,16A72.72,72.72,0,0,0,166.55,223c6.56,1.8,15.22,2.33,21.95,2.29,4.19,0,9.45-1.27,13-1.19a9,9,0,0,1,1.55.16,9.3,9.3,0,0,1,5.12,3,16.17,16.17,0,0,1,1.86,2.55c.29.47.55.95.81,1.43s.39,1.15.86,1.27a2,2,0,0,0,.49,0,9.34,9.34,0,0,0,1.18-.07c.32,0,.35.13.54.42a17.61,17.61,0,0,1,1,2c1.2,2.47,2.5,4.87,3.53,7.42a11.58,11.58,0,0,1,.83,2.64,2.37,2.37,0,0,1-.05,1.6c-.35.55-1.28.6-1.82.81a23.71,23.71,0,0,1-2.45.86,29.62,29.62,0,0,1-5.26.58,9.58,9.58,0,0,0-2.82.9,24.47,24.47,0,0,0-3.65,1.84c-.95.56-1.91,1.53-3,1.72-.55.1-1,0-1.46.32-1.11.81-1.64,2.46-2.4,3.58a39.77,39.77,0,0,0-1.78,3.86c-.79,1.5-1.87,2.8-2.75,4.23a96.86,96.86,0,0,1-5.8,9c-4.22,5.4-11.18,10.42-10,18.2a50.93,50.93,0,0,0,3.27,11.85c.94,2.24,1.79,4.52,2.7,6.79.71,1.76,1.54,3.49,1.35,5.43a22.84,22.84,0,0,1-3.6-3.15c-1.61-1.67-3.45-3.22-5.2-4.8-2.37-2.15-4.74-4.32-7.06-6.55C165.71,300.23,162.8,297.73,162.48,295.05Z"/><path class="cls-3" d="M70.08,174.08c3.07-2.16,6.09-4.59,9.59-5.65a12.79,12.79,0,0,0,7,6.45,27.94,27.94,0,0,0,5.13-3.83c2.37,2.27,4.33,4.75,6.81,6.52l2.88.34c7.25.9,16.76,4.51,20.94,11,3.15,4.89,4.86,10.37,8.45,14.94a9.84,9.84,0,0,0,4.71,3.46c6.5,2.24,12.55,6.2,18.95,8.85,1.31.55,2.56,1.2,3.84,1.81l1.89.88c1.27.59,2.57,1.2,3.89,1.68.4.15.77.38,1.15.56a13.3,13.3,0,0,0,1.65.55,36.2,36.2,0,0,0,5.65,1.12,32.56,32.56,0,0,0,4.83.31,44.43,44.43,0,0,0,4.9-.27,50.64,50.64,0,0,1,5.65-.24,56.51,56.51,0,0,0,5.65.22,17.84,17.84,0,0,1,3.53-.41,17.2,17.2,0,0,1,7.27,2.1c1.41.85,2.57,2.28,3.89,3.27a13.6,13.6,0,0,1,3.23,3.15c-3.13,0-5-3.75-7.86-4.44a17.39,17.39,0,0,0-4.89-.07c-1.34.11-3.81.21-4.9,1.2-2.61,2.38,3.19,4.31,4.6,4.77a47.49,47.49,0,0,1,5.72,2.06c1.7.82,4,1.58,5.17,3.05a11.56,11.56,0,0,1,1.1,1.68,9.82,9.82,0,0,1,.88,1.78,5.37,5.37,0,0,1,.29,1.58,8.24,8.24,0,0,1-.46,3.28,7.84,7.84,0,0,1-.6.94,6.52,6.52,0,0,1-.75,1c-.32.35-.66.66-1,1a4.71,4.71,0,0,1-.58.6c-.74.52-1.59.93-2.38,1.38a9.85,9.85,0,0,0-1.2.73,4,4,0,0,1-1,.43c-.4.16-.81.27-1.21.39s-.76.24-1.14.33a2.85,2.85,0,0,0-.87.33,5.17,5.17,0,0,0-.65.59c-.18.17-.75.44-.92.12s.35-.61.55-.76c.53-.38,1.1-.7,1.62-1.09,1.57-1.19,3.44-1.91,5-3a8.13,8.13,0,0,0,2-2.6,8.92,8.92,0,0,0,1.05-3,6.37,6.37,0,0,0-.52-3.28,3.7,3.7,0,0,0-1.22-1.62,11.1,11.1,0,0,0-3.56-2,15.74,15.74,0,0,0-3.47-.65c-1.43-.1-2.9-.22-4.34-.24s-2.73-.08-4.1-.08c-1.71,0-3.42.09-5.13.19a58.41,58.41,0,0,0-8.85,1c-2.82.62-5.75.95-8.33,2.36a6.24,6.24,0,0,0-2.81,2.8,2.09,2.09,0,0,0-.1,1.66,12,12,0,0,0,1,1.55,9.88,9.88,0,0,0,5.3,3.68,29.74,29.74,0,0,0,6.15,1c1,.1,2,.2,3,.34a10.39,10.39,0,0,1,3.18.63,8.67,8.67,0,0,1,1.18.69c.43.29.71.31.61.9s-.2,1-.29,1.46c-.24,1.44-2.72,1-3.7,1h-4.49c-3,0-6-.18-9-.43a50,50,0,0,1-9-1.62,36.47,36.47,0,0,1-5.53-1.9c-1.45-.65-2.89-1.42-4.39-2-3.16-1.14-6.38-2.16-9.53-3.4-1.14-.45-2.27-.91-3.4-1.38-6.17-2.57-13-4.86-18.43-8.52-6.52-4.41-11.77-10.16-18.18-14.57-4-2.78-7.78-4.44-11.58-7.62a74.84,74.84,0,0,1-10.8-11.79c-5.65-7.47-13.93-13-18-21.79C63.7,177.58,67.24,176.07,70.08,174.08Z"/><path class="cls-2" d="M61.54,179.23c1.73,2.3,3.82,4.93,5.59,7.44,1.37,1.94,2.85,3.74,4.31,5.59,1,1.23,2.17,2.15,3.21,3.26.26-.33.65-.34,1-.49A26,26,0,0,1,73,192.08c-1.34-1.8-2.82-3.5-4.2-5.29s-2.86-3.45-4.21-5.22a4.88,4.88,0,0,1-.88-1.69,3.07,3.07,0,0,0-.78-1.53c-.4.32-.79.9-1.25,1.08.07.06.13.16.2.21"/><path class="cls-2" d="M64.92,177.2c-.16.29,1.93,2.36,2.27,2.73,1.94,2.2,3.69,4.6,5.59,6.84,1.1,1.29,2.26,2.54,3.28,3.86a21.92,21.92,0,0,0,2,2.39,2.6,2.6,0,0,1,1.16-1.18c-1.07-.09-1.84-2.12-2.41-2.87-1.42-1.87-2.75-3.82-4.06-5.77a37.5,37.5,0,0,1-2.6-4.3c-.33-.66-.66-1.28-1-1.93-.21-.39-.26-.94-.64-1.2a14.45,14.45,0,0,1-1.72.71c-.55.24-.94.7-1.56.73"/><path class="cls-2" d="M71,173.69c0,.28.47.76.66,1.07.48.85.82,1.84,1.27,2.73,1.12,2.21,2.51,4.25,3.59,6.47a46.63,46.63,0,0,0,4.12,6.77,2.15,2.15,0,0,1,.67-.35c-1.81-2.62-3-5.62-4.55-8.52-1.65-3.09-3.12-6.39-4.63-9.39a10.16,10.16,0,0,1-1.57,1.35.71.71,0,0,0,.2.25"/><path class="cls-2" d="M73.94,171.73c.37.46.83.73,1.21,1.19.8,1,1.46,2.15,2.2,3.21,1.42,2,2.73,4.13,4.07,6.19.63,1,1.38,1.76,2.06,2.7a12,12,0,0,1,.7,1.33c.19.32.58.66.67,1a3.68,3.68,0,0,1,.92-.61c-.28-1.19-1.35-2.24-2-3.22-1.21-1.89-2.57-3.66-3.81-5.53-1.64-2.47-3.33-4.94-4.69-7.41-.32.26-1.36,1-1.36,1.28"/><path class="cls-2" d="M76.54,170l2.13,2.41c1.77,2,3.07,4.43,4.82,6.45s3.5,4.35,5.57,5.81a3.18,3.18,0,0,1,.5-.92c-2.3-3.09-5.17-5.87-7.71-8.75L79,171.77c-.44-.49-.8-1-1.19-1.51s-.67-.68-1.4-.45a1.31,1.31,0,0,0,.27.35"/><path class="cls-2" d="M79.11,168.73c.6-.21,2.77,3.34,3.17,3.92a19.67,19.67,0,0,0,4.33,4.92,24.3,24.3,0,0,0,3.86,2.87c.49.24.61.42,1.09,0s.43-.78,1-.88A7.36,7.36,0,0,0,91,178.53c-.59-.43-1.22-.89-1.84-1.3-1.49-1-2.8-2.23-4.23-3.31A39.13,39.13,0,0,1,79.49,169"/><path class="cls-2" d="M97.63,177.83a25,25,0,0,1-2.38-3.4,22.88,22.88,0,0,0-2.41-3.83c-.3.31-.71.39-1,.67.59.22.75,1.1,1.06,1.56.51.74,1.31,1.17,1.82,1.91a21.1,21.1,0,0,0,2.6,3.21.82.82,0,0,1,.68-.22c-.22,0-.27-.18-.43-.31"/><path class="cls-2" d="M90.8,171.94a3.67,3.67,0,0,1-.93.8c1.29,1.32,2.44,2.74,3.68,4.14.42.48.9,1.32,1.53,1.37.09,0,.23-.11.32-.11a4.28,4.28,0,0,1,.54,0,2.93,2.93,0,0,1,.73.12c-.45-.44-1-.74-1.53-1.22a10.5,10.5,0,0,1-1.39-1.88c-.45-.67-1-1.29-1.33-2-.22-.43-.79-1.56-1.22-1.6"/><path class="cls-2" d="M89.51,173.65c-.35.08-.63.37-1,.48.82.07,1.54,1.81,2.09,2.42a10.46,10.46,0,0,0,2,1.93.73.73,0,0,1,.53-.23c-1.35-1.42-2.41-3.32-3.76-4.74,0,.09,0,.13,0,.22"/><path class="cls-2" d="M87.72,174.45c-.12.09-.34.23-.53.35.41.1,1,1.28,1.31,1.18s-.45-1.56-.7-1.76"/><path class="cls-2" d="M122.47,236.15c-1.81-.79-3.43-2.5-5.08-3.67s-3.66-2.43-5.34-3.86-3.47-2.57-5.17-3.77c-.56-.39-1.17-.81-1.72-1.23-.75-.57-1.27-.83-.69-1.71,3,2.72,6,5.31,9.11,7.84A51.06,51.06,0,0,0,118.4,233c.7.44,4.22,2.4,4,3.09"/><path class="cls-2" d="M122.66,233.72c0,.07-.17.11-.09.11a114.93,114.93,0,0,0-9.53-8.94,59.13,59.13,0,0,0-7.12-5.86,3.82,3.82,0,0,1,.64-.63c2.8,2.19,6,4.07,8.75,6.4,1.67,1.41,3.31,2.86,5,4.26a17,17,0,0,1,3,2.65c-.63.5-.54,1.3-1,1.9"/><path class="cls-2" d="M121.08,225.81c-1.89-1.66-3.93-3.17-5.75-4.86-2.2-2.06-4.64-4-6.94-5.81,1.13-1.84,2.38.43,3.37,1.21a33,33,0,0,1,4.39,4.15,28.34,28.34,0,0,0,4.15,3.63c.64.49,1.35,1,2,1.5s1.45.8,1.78,1.43c.21.42-.94,1.12-1.24,1s-.46-.81-.61-1A9,9,0,0,0,121.08,225.81Z"/><path class="cls-2" d="M122.94,222.69c-2-1.89-3.85-3.91-5.85-5.74a52.3,52.3,0,0,0-5.43-4.45c1.11-1.08,2.35-.18,3.44.68A30.67,30.67,0,0,1,119,217a44.18,44.18,0,0,0,3.54,3.8c.77.69,1.51,1.43,2.33,2.05,1,.79.9.94-.14,1.8C124.73,224.58,123.06,222.8,122.94,222.69Z"/><path class="cls-2" d="M124.84,219a27,27,0,0,1-4.52-3.54c-1.61-1.76-3.55-3.41-5.24-4.94.62,0,1.4-.72,2-.59s1.19.94,1.62,1.43c1.26,1.42,2.46,3,3.82,4.32,1.13,1.09,2.5,1.89,3.61,2.91.52.48.93,1,1.46,1.41.31.24.81.31.81.8a.68.68,0,0,1-1,.54c-.26-.14-.53-.82-.78-1.06A15.66,15.66,0,0,0,124.84,219Z"/><path class="cls-2" d="M129.25,219.3a23,23,0,0,1-2.72-2.1,33.48,33.48,0,0,1-3.31-3.11,39.47,39.47,0,0,1-4.9-5.56,7.72,7.72,0,0,1,2.07-.64c.8,2.41,3,4.56,4.67,6.47a18.63,18.63,0,0,0,2.43,2.14c.66.54,1.92,1.27,2.32,2.05-.35.27-.41.65-.75.91a1.27,1.27,0,0,1-.36-.37"/><path class="cls-2" d="M130.82,217.23a63.62,63.62,0,0,1-4.84-4.87,65.05,65.05,0,0,1-4.53-5.16,2,2,0,0,0,1.2-.59,45.32,45.32,0,0,1,4.91,5.72,23.18,23.18,0,0,0,2.59,2.72,9.89,9.89,0,0,1,1.18,1.12c.3.69-.45.7-.62,1.35"/><path class="cls-2" d="M132.86,214.88c-.62,0-1.82-1-2.39-1.44-1.15-.82-2.16-1.81-3.25-2.7A25.07,25.07,0,0,1,123,206.5a6.29,6.29,0,0,1,.74-.72c1.61,1.54,3.06,3.34,4.64,4.86a30.5,30.5,0,0,0,2.53,2,18.69,18.69,0,0,1,2.44,1.74c-.08.23-.14.06-.26.08"/><path class="cls-2" d="M135,212.63c-1.4-1.38-3.12-3-4.75-4.36a31.26,31.26,0,0,0-2.85-2.15,6.92,6.92,0,0,1-2-1.53c.4-.05.64-.33,1-.45,1.62,1.37,3.22,2.79,4.81,4.35.48.47,4.37,3.58,3.81,4.14"/><path class="cls-2" d="M136.91,211.35c-2-.76-3.71-3.09-5.37-4.46-.71-.59-1.51-1-2.23-1.49-.5-.34-1.49-.86-1.78-1.45.37-.09.62-.46.93-.7a62,62,0,0,0,4.54,4.34c.76.74,1.46,1.48,2.22,2.22.44.42,1.46,1,1.6,1.44"/><path class="cls-2" d="M138.47,209.47c-2-.95-3.63-2.81-5.44-4.12-1.19-.85-3-1.32-3.87-2.59a1.74,1.74,0,0,1,.55-.53,28.48,28.48,0,0,1,5,3.78c.71.61,1.46,1.23,2.18,1.83.55.47,1.51,1.5,2.21,1.57a.22.22,0,0,1-.14.17"/><path class="cls-3" d="M250.5,215.1c-.47,0-.94-.59-1.5-.62a2.6,2.6,0,0,0-1.17.32c-.81.41-1.51,1.17-2.48,1.16.1.19.43.14.64.19a5.49,5.49,0,0,1-1.72,1,1.09,1.09,0,0,0,.59.1c-.13.2-.35.22-.48.43.58,0,1.18.59,1.74.76a3,3,0,0,0,1.93-.08,5.61,5.61,0,0,0,2.48-3.06,5.78,5.78,0,0,1-5.4,2.6,4.44,4.44,0,0,0,1.23-.77,8.69,8.69,0,0,1,1.21-.88c.89-.46,1.87-.64,2.78-1l-.07.15"/><path class="cls-1" d="M180.22,205.67a186,186,0,0,1-12.37-22.5,186.27,186.27,0,0,0-9.54-18.61c-3.4-5.56-6.45-10.75-7.78-17.32a47.92,47.92,0,0,1-1.12-9.9c0-3.46,1.42-6,1.73-9.38,1.18,2.73.39,6.69,1.12,9.74a21.78,21.78,0,0,0,3.25,7c3.42,5.06,7.39,9.77,10.35,15.28,4,7.39,6.89,15.23,10.83,22.64,2.35,4.42,4.84,8.75,7.43,13,2.45,4.07,5,8,7.75,11.89,1.55,2.23,3.18,4.4,4.92,6.47,2.88,3.42,6.19,6.39,9.13,9.72.54.62,1.48,1.61,1.3,2.52-1.41-.81-2.66-1.92-4.25-2.31a40.87,40.87,0,0,0-7.14-1c-1.14-.08-2.28,0-3.42-.07-.91,0-1.8-.25-2.7-.35s-1.77,0-2.28-.83a16.43,16.43,0,0,1-1.1-3.14,76.07,76.07,0,0,0-3.4-7c-.45-.9-.51-1.86-.93-2.75A27.33,27.33,0,0,0,180.22,205.67Z"/><path class="cls-3" d="M222,223.32c.35.32.45.83.9,1.09,1.93,1.07,3.24-1.74,3.14-3.28a4.63,4.63,0,0,1,1.11-3.54,2.53,2.53,0,0,1,2.56-1.12c3.24.19,5.28,3.72,5,7A4,4,0,0,1,234,226c-.42.44-1.28,1.15-1.84.73a2.63,2.63,0,0,1,0-.56c-.38,1.6,1.62,1.91,2.48.94,1.15-1.31.94-3.33.71-4.95a9.22,9.22,0,0,0-1.86-4.73c-1.06-1.43-.76-4.55,1.32-4.77s4.19-.12,6.2-.88c1.13-.43,2-1.32,3.16-1.71a37.68,37.68,0,0,1,4.7-1.09c.74-.14,1.5-.39,1.36-1.42s-2.82-1.88-3.63-2.21a16.18,16.18,0,0,0-5.36-1.29,8.3,8.3,0,0,0-2.56.54,11.06,11.06,0,0,1-2,.21,15.24,15.24,0,0,0-5.35,2.2c-1.91,1.08-3.62,2.58-5.43,3.79a12.49,12.49,0,0,0-4.72,4.74c-.8,1.69-1.7,4.08-1.44,6,.05.37.12,1.05.42,1.3s1.15.09,1.59.25A.93.93,0,0,1,222,223.32Z"/><path class="cls-3" d="M76,267.36a30.49,30.49,0,0,1-.64,4.16c-.31,1.21-1.1,2.39-1.18,3.62,2,.49,4.07.78,6.06,1.43s4.37,2.37,6.59,1.92c2-.42,4.06-1,6-1.54,1.53-.44,4.41-2.66,6-2.26.24,7.35,3.13,14.86,4.16,22.09,2.82-.54,5.64-1.32,8.5-1.95,2.68-.59,5.57-2.32,8-.6.55-5.24-.51-10.53-.47-15.67,0-2.22,1.46-4.51,2.34-6.57a44.59,44.59,0,0,1,5.34-8.55,77,77,0,0,0,4.41-7.61c3.26-5.88,6.2-12,9.31-18,2.43-4.68,4.19-11.25,8-14.93,2.34-2.23,6-1.52,8.89-1.46,3.47.08,6.94,0,10.41.06,2.57,0,8.37,3,6.31-3.08-1-3-3.17-5.33-4.83-8-2.37-3.76-2.45-8.69-2-13.72s1.47-9.86,1.42-13.95c-.11-10-1.26-19.92-1.85-29.86-.55-9.23-.44-18.47-1-27.68-.5-8.94-2.33-17.71-4-26.46-.8-4.11-.45-8.14-.94-12.23a40.11,40.11,0,0,1,1.27-15.1c.77-3,1.8-6.26.89-9.35-.82-2.81-3.11-4.63-4.66-7-4.54-6.9-.61-14.53-2.76-21.84s-4.8,4.15-5,6.52c-.64,9.09-1.34,18.46-1,27.53.32,9.49,1.22,19,1.27,28.44.08,14.94,1.73,29.71,1.11,44.69-.25,5.84-.91,11.66-1.69,17.45-.38,2.85-.85,5.69-1.21,8.54-.27,2.15.15,4.19,0,6.32-.14,2.87-.21,5.82-.53,8.69-.28,2.42-.61,4.71-1,7.12-.18,1.25-.16,3.1-.73,4.19-2.56-.31-5.6,2.77-7.85,3.81-3,1.37-5.84,3.08-8.85,4.28-2.62,1.05-5.27,1.83-7.81,3.11-.94.47-2.44.9-3.16,1.71-.86,1-1.17,2.74-1.8,3.89-2,3.62-4.58,6.74-6.48,10.4a58.38,58.38,0,0,1-5.21,8.12c-3.12,4.18-6.63,8.22-10,12.13-3.74,4.27-7.41,8.6-11.14,12.87-1.14,1.29-2.15,2.67-3.19,4.06-.74,1-1.44,2-2.25,2.93a24,24,0,0,1-2,1.54C76.77,263.56,76.21,265.23,76,267.36Z"/><path class="cls-4" d="M160.72,85.21c-1.2-1.65-2.41-3.26-3.49-4.85a39,39,0,0,1-6.15-12.69c-.66-2.69-1.13-5.41-1.52-8.14.13-6.57.61-13.21,1.07-19.71.16-2.37,2.83-13.77,5-6.52s-1.78,14.94,2.76,21.84c1.55,2.35,3.84,4.17,4.66,7,.91,3.09-.12,6.36-.89,9.35A41.25,41.25,0,0,0,160.72,85.21Z"/><path class="cls-4" d="M167,199.71a46.61,46.61,0,0,0-5.5-6.13c-4.11-4-10-8.44-12.75-14.05.17-2.25.24-4.52.35-6.74.06-1.15,0-2.28-.09-3.41a48.77,48.77,0,0,0,10.75,16.34,47.74,47.74,0,0,1,7.61,9.38q-.1.83-.18,1.65C167.1,197.75,167,198.73,167,199.71Z"/><path class="cls-4" d="M143.51,219.72c-2.06-3.79-4.6-7.62-5.68-11.87a24,24,0,0,1-.27-10.52c.49-.25,1-.5,1.49-.73.12,0,.24-.12.36-.18-1.18,5.27,1.31,11,4.27,16.13,1.59,2.74,3.94,6,5.88,9.55a4.85,4.85,0,0,0-1.17.82,15.62,15.62,0,0,0-2.18,2.69A41.62,41.62,0,0,0,143.51,219.72Z"/><path class="cls-4" d="M117.48,257.6c-4.72-.22-9.07-2.22-13.51-3.74-4-1.37-12.64-4.57-17.73-2.7l5.61-6.49c6.25.44,13.64,3.43,17.39,4.85,4.8,1.81,9.84,4.48,15.08,4a18,18,0,0,0,10.23-4.33c-.93,1.81-1.88,3.6-2.84,5.39C127.93,257.54,121.58,257.8,117.48,257.6Z"/><path class="cls-4" d="M151.28,149.5c.21-2.08.39-4.17.52-6.26,2.35-4.66,5.31-9.05,7.92-13.64a39,39,0,0,0,5.09-14q.42,2.88.7,5.77C164.43,132.31,157.51,140.71,151.28,149.5Z"/><path class="cls-1" d="M198.23,326.52a5.93,5.93,0,0,0-2.79,1.41c-.46.41-1.7,2.24-2.22,1-.7-1.61,3.3-3.63,3.69-4.94-.69-.15-1.2.45-1.85.59a3.1,3.1,0,0,1-2.18-.49c-1.85-.91.07-1.31,1.21-1.84.35-.16,1.6-.45,1.67-.9.13-.88-1.2-.55-1.67-.63-1.09-.21-3.82-1.46-4.43-2.48,1.41-.43,3.39-.89,4.82-.22-.3-1.81-2.26-2-3.54-2.72-1.71-1-1.77-2.77.47-2.77,1.66,0,3.25.89,4.93,1s3.26.51,3.85,2.32c.48,1.49,0,3.08.56,4.6.5,1.36,1.48,2.51,1.54,4s-.59,3.15-.66,4.74c-.06,1.42,1.09,3.52.61,4.83-.82,2.23-3.27-1.38-3.59-2.39a16.46,16.46,0,0,1-.33-2.81,11.69,11.69,0,0,0-1.06-3.2"/><path class="cls-1" d="M169.51,186a.43.43,0,0,1-.49.26c-5-9.51-14.09-16.14-19.1-25.67-3.86-7.35-5.66-14.63-4-23,.85-4.26,2.23-5.4,5.58-7.52.47,3.81-.29,7.57.34,11.47.74,4.59,3.82,7,6.22,10.82,2.84,4.52,6.13,8.65,9.11,13,1.75,2.56,3.35,5.12,3.67,8.27a18.9,18.9,0,0,1-.2,6.33c-.37,1.72-1.14,3.7-1.16,5.48,0,.22.14.21.29,0"/></g></g></svg>