<svg xmlns="http://www.w3.org/2000/svg" viewBox="0 0 368.49 295.45"><defs><style>.cls-1{fill:#007293;}.cls-2{fill:#1d1d1b;}.cls-3{fill:#fff;}.cls-4{fill:#e30613;}</style></defs><g id="Ebene_2" data-name="Ebene 2"><g id="Ebene_1-2" data-name="Ebene 1"><path class="cls-1" d="M82.85,123.22A24.89,24.89,0,0,0,87,118.66c.47-1,2.77-6.78,2.06-7C86,110.88,84.68,92,85.56,89.37A35.36,35.36,0,0,1,92.75,77.7c5-4.88,8-5.32,14.94-4.61A48.2,48.2,0,0,1,116.11,75c3.52,1,6.11,3.29,8.75,5.74a14.59,14.59,0,0,1,4,6.1,19,19,0,0,1,.58,6.86c-.6,7.9-4.49,15.61-8.79,22.16a96.84,96.84,0,0,1-5.81,7.84c-.9,1.1-1.9,2.07-2.88,3.09s-2.2,2.07-3.33,3.14a14.84,14.84,0,0,1-8.61,3.93,16.79,16.79,0,0,1-9-1.55,10.22,10.22,0,0,1-4.12-4.39,47.48,47.48,0,0,1-2-4.37,3.39,3.39,0,0,0-1.89-1.83h0S82.52,123.23,82.85,123.22Z"/><path class="cls-1" d="M107.94,126.33c0-.6-5.29.37-5.71.49A15.62,15.62,0,0,0,97,129.49c-2.56,2.1-5.35,5.4-5,8.89a8.71,8.71,0,0,0,2.15,4.47,16.66,16.66,0,0,0,4.43,3.46,15.84,15.84,0,0,0,4.5,2,31.57,31.57,0,0,1,5,1.55,59.29,59.29,0,0,0,11.75,3.64c2.71.61,5.38,1.33,8.15,1.89,2.36.46,4.83.71,7.22,1.13,3.91.69,7.69,2.1,11.66,2.61,1.7.24,3.35.6,5.07.72,1.36.12,2.92-.2,4.22.22s2.07,2.32,3.65,2.46c1.39.12,2.31-1.39,2.84-2.53a13.23,13.23,0,0,0,1.13-3.69c.2-1.56-.4-3.23-.17-4.85a34.17,34.17,0,0,0,.54-5.65,33.39,33.39,0,0,0-.62-4.36,91.9,91.9,0,0,1-.83-11.42c-.23-4.43-1.44-8.93-1.76-13.4-.15-2.08-.63-4.07-.83-6.2a43.07,43.07,0,0,0-.56-4.7,12.06,12.06,0,0,1-.38-2.16c0-.8.38-1.68.38-2.51A8.67,8.67,0,0,0,159,98a14.3,14.3,0,0,0-4.56-5.5,29.86,29.86,0,0,0-5.63-3.06,10,10,0,0,0-4.87-.78c-1.29.19-2.52,0-3.76.6,1,1.27,3.48,1,4.73,1.57-.85.43-1.89.44-2.76.82-.45.2-1.6,1-1.59,1.55,1.13.71,2.79.33,4,.47.77.08,3.66.24,3.84,1.24-.37.34-1.93.32-2.46.37a5,5,0,0,0-2.24.63c-1.85,1.16.75,1.58,1.75,1.57,1.44,0,2.76-.15,3.52,1.27.65,1.22,1.16,2.43,1.82,3.61a20,20,0,0,1,2.68,8.09c.23,3-.54,5.93-.87,9.08-.59,5.5-.86,11-1.24,16.54a42.08,42.08,0,0,0,.15,6.16,31.55,31.55,0,0,0,1.35,6c-.27-1.53-2-2.79-3.09-3.78a27.4,27.4,0,0,0-4.82-3c-1.59-.87-3-2-4.61-2.92s-3.44-1.53-5-2.5c-3.43-2.16-7.69-3.14-11.49-4.5s-7.93-1.79-11.83-3.1c-1-.33-2-.59-3-.87-1.22-.34-3.06-.89-4.12.08"/><path class="cls-1" d="M204.46,173.13a46.06,46.06,0,0,1,8,3.48c1.89,1,4.32,1.94,5.15,4.09,1,2.56.11,6-.08,8.64-.31,3.81-.6,7.6-1,11.4-.8,7.83,1.09,16,3.16,23.46,1.74,6.39,3.95,12.38,6.22,18.48a24.19,24.19,0,0,1,1.42,6.44c.16,1.68.54,3.56.11,5.2a16.05,16.05,0,0,1-1,2,12.74,12.74,0,0,0-.22,3.75c.12,3.34.38,5.86,2.46,8.55a12.37,12.37,0,0,0,7.49,3.94c2.37.37,3.73-.42,5.41-1.94,4.65-4.23,10.66-2.61,16.21-1.53,2,.4,4,.72,6,1,1.71.25,3.27,1,4.92,1.39a7.8,7.8,0,0,0,4.12-.63c1.43-.51,2.71-1.1,4.09-1.71,1.59-.7,4.59-2,4.6-4s-1.88-4.47-3.75-4.73a4.13,4.13,0,0,0-2.37.61,8.37,8.37,0,0,1-3,.65c-2.13.17-3.57.73-5.79.12a41.64,41.64,0,0,1-12.08-6.1,26.24,26.24,0,0,0-3.46-1.78,26.79,26.79,0,0,1-3-2.12c-2-1.32-3-2.1-3.73-4.44a29.25,29.25,0,0,1-.89-7.61c-.15-3.52-.75-7.08-.65-10.63.13-3.93.36-7.79.61-11.72a48.77,48.77,0,0,0,.23-9.12,34.09,34.09,0,0,1,.46-10.62c.58-3.11,1.46-6.06,1.89-9.1.38-2.67,1.32-5.05,1.44-7.78.13-2.31-.54-4.26-1.05-6.54-.6-2.73-.58-4.82-2.67-6.76a22.27,22.27,0,0,0-6.57-4.4c-3.18-1.34-6.32-2.89-9.44-4.5l-2.12-1.08C218.49,162.48,211.34,167.66,204.46,173.13Z"/><path class="cls-1" d="M125,230.05c.16,1.55,1.25,3.07,3.56,4.42,3.1,1.83,5.16,4.05,8.22,5.8,5.56,3.15,9.87,1.63,15.93.22a45.82,45.82,0,0,0,12.19-4.83,50.79,50.79,0,0,0,5.67-3.66c1.45-1.06,3.71-2.34,4.64-4,.4-.66.75-1.34,1.14-2a44.49,44.49,0,0,0,2.19-4.57,10.55,10.55,0,0,1,3.42-4c1.26-1.05,2.45-2.48,3.86-3.57,3.4-2.59,6.75-5.28,10.37-7.71,3.4-2.31,6.07-5,9.22-7.47a23.91,23.91,0,0,0,3.91-3.41c1.15-1.41,2.24-2.78,3.44-4.12,1.88-2.09,3.23-4.71,5.13-6.88a40.09,40.09,0,0,1,3.4-2.72,14.13,14.13,0,0,1,4.35-2.41,25,25,0,0,0,4.51-2.49c1.12-.7,2.8-1,3.38-2.35.46-1.06.59-2.36,1-3.47.56-1.42.88-3,1.88-4.2,9.56,2.37,21.33,5,31,2.34,4.89-1.34,9.72-3.54,14.46-5.4,5-2,8.85-4.75,14.47-5.41,2.19-.26,4.47-.05,6.55-.51a16.71,16.71,0,0,1,4.52-.23,49.5,49.5,0,0,1,6,.74c3.26.59,6.48,1.57,9.79.77a12.67,12.67,0,0,0,8.42-6.36c1-1.73.59-5.28,1.07-7.2.42-1.71.27-3.76.55-5.5.44-2.61,1.92-3.21,3.4-5.47s2.06-5,2.94-7.63a22.66,22.66,0,0,1,2.24-4.25,15.12,15.12,0,0,0,1.65-4.45,13,13,0,0,0,.57-4.26,3.84,3.84,0,0,0-2.43-2.82c-1.52-.66-2.71.22-3.94,1.06a10.22,10.22,0,0,0-3.4,2.85,27,27,0,0,1-2.14,3.73c-.93,1.11-1.88,2-2.9,3a40.76,40.76,0,0,1-3.33,3.21,8.45,8.45,0,0,0-2,1.93c-.28.52-.55,1-.89,1.53s-.56.93-.88,1.39a21.38,21.38,0,0,1-2,2.51c-3,3.3-6.54,6.37-11.14,7.21a56.87,56.87,0,0,1-7,.67,19.33,19.33,0,0,1-3.57.07c-.67-.06-1.34-.24-2-.29s-1.37.16-2,.09c-2.5-.18-5-1-7.53-1.21-3.2-.23-5.78-.86-9-.64s-6.64.59-9.94.65c-5.11.13-10.2,1.42-15.36,1.72-2.12.12-4.27.05-6.39.14a27,27,0,0,1-5.82-.05A27.25,27.25,0,0,0,236,140c-2.26,0-4.53.37-6.8.45A12.11,12.11,0,0,0,223,142c-1.89,1.28-3.41,2.87-5.33,4.14-.85.57-1.53,1.18-2.34,1.76-1,.64-1.92,1.39-2.91,2-5.15,3.24-11.09,4.83-16.47,7.54-5.55,2.79-10.73,6.4-16.23,9.18-10.6,5.35-19.26,12.94-29.09,19.55-3.62,2.42-7.65,4.52-10.18,7.9-3.17,4.19-5.65,8.57-8.53,13-3,4.61-13.25,17-8,22.79"/><path class="cls-2" d="M117.87,230.85a22.75,22.75,0,0,0-3.52-3.68c-1.41-1.33-2.48-2.74-3.81-4-2.83-2.75-5.41-5.51-8.26-8.2s-4.78-5.9-7.5-8.69-4.77-6.3-7-9.61a64,64,0,0,1-5.64-11c-2.11-4.85-2.62-10.28-4.31-15.25a47.06,47.06,0,0,1-2.19-13.92c-.12-3.5.75-6.59,1.09-10a25.27,25.27,0,0,1,1-6.29c.75-2.15.69-4.21,1.32-6.4s1.08-4.21,1.67-6.29a28.2,28.2,0,0,1,1-3.11,4.53,4.53,0,0,1,1.44-2.42,2.71,2.71,0,0,1,.56-.31,11.7,11.7,0,0,1,4.1-.79,9.31,9.31,0,0,0-.65.94,8.22,8.22,0,0,0-.8,3.38,10.54,10.54,0,0,0,.4,2.23c.45,2.37.36,4.71,1.46,6.95a23.11,23.11,0,0,0,6,8.06c4.77,4,13.93.94,16.75-4.49,1.35-2.6.53-7.17,3.45-8a14.25,14.25,0,0,1,4-.53c1.87.23,2.7,2.36,3.82,4.05,2.23,3.3,4.63,5.88,6.75,9.23s1.77,6.89,2.68,10.78c1.74,7.15,1.28,14.71,3.23,21.6a25.46,25.46,0,0,0,3.95,8.51,6.93,6.93,0,0,0,4.21,3,4.44,4.44,0,0,1,1.89.74,11.45,11.45,0,0,0,2.53.49c-.18.37-.71.52-1,.8s-.83.69-1.29,1a7.77,7.77,0,0,0-3.51,4.58c-.6,2.83.46,5.74.95,8.51a70.27,70.27,0,0,0,3.2,10.55c.78,2.26,2.28,3.86,3.74,5.57a29.25,29.25,0,0,0,11.25,8,39.45,39.45,0,0,0,6.19,2.15,9.23,9.23,0,0,0,2.92-.26,15.79,15.79,0,0,1,3.57,0c.79,0,1.21.33.75,1.14a9,9,0,0,1-1.63,1.7,13.67,13.67,0,0,1-3.36,2.38l-1.77.93c-1.85.85-3.41,2.12-5.19,3.16a40.89,40.89,0,0,1-7,3.2,27.11,27.11,0,0,1-12.46,1.58c-2-.3-4.18-.47-6.21-.83a16.21,16.21,0,0,1-5-2c-1.24-.72-2.37-1.55-3.6-2.28a37.17,37.17,0,0,1-3.73-2.36c-1-.75-2-1.7-3.07-2.49a19.9,19.9,0,0,1-4.81-4.18"/><path class="cls-1" d="M114.33,114.18c-3.89,1.16-7.84,2.14-11.72,3.32a15.78,15.78,0,0,1-4,.9,31.64,31.64,0,0,0-5.26.42A23.69,23.69,0,0,0,89.44,120a11.1,11.1,0,0,0-1.74.7c-.53.35-1.07.72-1.6,1.09a4.33,4.33,0,0,0-2.16,2.5,10.46,10.46,0,0,0-.24,3.39c.24,3.8,2.26,6.63,3.77,9.94A15.79,15.79,0,0,0,89,140.51a13.52,13.52,0,0,0,3.33,2.87,12.15,12.15,0,0,0,8.66,1.76,14.5,14.5,0,0,0,3.55-1.17,18.93,18.93,0,0,0,3-2.2c1-.75,1.95-1.62,2.89-2.43,3.13-2.61,7.14-3.9,10.78-5.75,3.19-1.62,6.31-2.63,9.33-4.07,3.29-1.57,6.32-3.06,9.73-4.37,1.59-.58,3.06-1.41,4.69-2a53.73,53.73,0,0,0,5.31-1.89c6.55-3.31,7.23-10.63,10.39-16.45,1.77-3.23,3.12-6.56,4.94-9.76s2.78-7.21,4.84-10.23a47.23,47.23,0,0,1,4.09-5.07l2-2.2A13.12,13.12,0,0,1,178.44,76a11.13,11.13,0,0,0,1.3-1.35,30.2,30.2,0,0,0,2-3.17c.82-1.32,1.57-2,.61-3.34-.81-1.17-1.18-2.49-2-3.72a66.12,66.12,0,0,0-4.82-6.74c-1-1.15-2.74-4.35-4.56-4.18-1,.09-1,.93-.86,1.71a15.14,15.14,0,0,1,.1,3.23c-.09,2.67-.08,5.75-1.33,8.21-.63,1.17-2.28,2.71-2.88.09-.18-.76.93-1.42.7-2.16-.49-1.5-1.75-.47-2.56.15-1.9,1.45-1.24,1.88-.95,4.09a27.82,27.82,0,0,1,.11,4.29,15.94,15.94,0,0,1-2.74,9c-1.86,2.86-4.33,5.58-5.92,8.61s-3.09,6.44-4.6,9.69c-.66,1.43-1.72,2.77-2.53,4.18-.69,1.12-1.85,3.28-2.82,4-3.58,2.58-10.29,2.45-14.62,2.76A75.42,75.42,0,0,0,114.33,114.18Z"/><path class="cls-2" d="M306,159.78c-1.32,2.6-4.36,4.82-6.37,6.94a23.16,23.16,0,0,1-8.19,5.24,15.64,15.64,0,0,1-9.49.73c-2.64-.63-6.17-1.65-8-3.91,1.89-4.26,6.92-1.91,10.18-1.78a15.55,15.55,0,0,0,10.66-3.21c3.53-2.58,6-6.1,8.8-9.49a41.17,41.17,0,0,0,6.71-11.72A78.66,78.66,0,0,0,315,117.69c.11-5.5,2-16-3.78-43.75-.82-4-5.85-21.32-8.23-25.69-2.57-4.74-13.53-22.4-16.73-26.12a33.38,33.38,0,0,0-10.83-8.65,69.69,69.69,0,0,0-7.11-3.34A34.48,34.48,0,0,0,262.08,9c-4.58-.57-8.74-.16-12.77,2.08a31.31,31.31,0,0,0-9.34,8c-3,3.84-4,8.49-6,12.83-4.29,9.5-5.72,20-7.9,30a135.14,135.14,0,0,0-2.63,28.1,56.29,56.29,0,0,0,1.47,13.05c1,4.27,1.24,8.45,2.1,12.64a117.91,117.91,0,0,0,3.72,12.58c.69,2,1.59,3.88,2.35,5.89.68,1.71.72,4.36,2.28,5.54-4.65,3.49-10.17-6.51-11.6-9.76-2.13-4.82-3.54-10-5.23-15-3.15-9.37-3.05-20.15-2.74-29.79.4-12.33,2.59-24.78,4.87-36.83,2.22-11.66,7.06-23,13.28-33.23,2.68-4.47,7.27-7.94,11.69-10.73,3.24-2,8.11-4.74,12.1-4.41,13.15,1,27.66,9,35.65,19.66a94.36,94.36,0,0,1,8.86,14.39c3.54,7.16,5.35,14.61,8.32,22,5.18,12.74,7,26.84,9.32,40.43,1.41,8.48-.2,40.73-3.25,47.23a57,57,0,0,1-3.07,6.57C312.07,152.62,306,159.78,306,159.78Z"/><path class="cls-3" d="M220.87,122.28c.87,2.62,1.77,5.23,2.88,7.73.06.15.15.35.24.52.83.22,1.69.42,2.53.58,1.87.36,3.76.62,5.65.91-.18-.41-.31-.82-.48-1.24C228.66,127.4,224.14,125.33,220.87,122.28Z"/><path class="cls-3" d="M225.7,107.49a66.38,66.38,0,0,0-5.54-5.72,24.75,24.75,0,0,1-4.46-5.65,86.23,86.23,0,0,0,.67,9.23c1.68,3.15,4.28,5.75,6.88,8.37a30.11,30.11,0,0,1,4.72,5.91c-.37-1.31-.7-2.59-1-3.87C226.43,113,226.12,110.26,225.7,107.49Z"/><path class="cls-3" d="M223.48,88.2c-2.8-3.35-6.13-6.43-7.23-10.36q-.33,3.7-.47,7.39c-.07,2.09-.11,4.25-.12,6.39.33.26.69.51,1.05.76,2.24,1.54,5,2.92,7.14,4.74a57.72,57.72,0,0,1-.42-7.05C223.42,89.45,223.46,88.83,223.48,88.2Z"/><path class="cls-3" d="M218.2,63.35a1,1,0,0,1-.1-.16c-.33,2.11-.69,4.2-1,6.32.88.85,1.86,1.58,2.76,2.38a15.44,15.44,0,0,1,3.67,4.56c.13.26.25.54.38.82q.31-4,.87-8.1A40,40,0,0,1,218.2,63.35Z"/><path class="cls-3" d="M223.59,42.31a16,16,0,0,1-.53-3.39,84.93,84.93,0,0,0-2.41,9.48c-.16.87-.32,1.75-.47,2.62a11.57,11.57,0,0,0,1.19,2.66,36.57,36.57,0,0,0,5.15,6.11l1.68-8.29A26.69,26.69,0,0,1,223.59,42.31Z"/><path class="cls-3" d="M234.79,30a13.59,13.59,0,0,1-4.1-9.09c-1.32,2.53-2.57,5.09-3.71,7.7.06.31.1.64.18,1A29.17,29.17,0,0,0,230.32,37c.34.59.71,1.19,1.07,1.78.76-2.31,1.58-4.63,2.57-6.86C234.27,31.29,234.53,30.65,234.79,30Z"/><path class="cls-3" d="M268.36,10.14l.37.14a10.69,10.69,0,0,0,2.6-6.84,51.43,51.43,0,0,0-5.88-2,13.59,13.59,0,0,1-1.75,7.76A26.89,26.89,0,0,1,268.36,10.14Z"/><path class="cls-3" d="M280.85,16.9c1.57.16,3-1.16,3.86-2.68a8.82,8.82,0,0,0,.9-2.38A54.87,54.87,0,0,0,278.67,7a9.29,9.29,0,0,1-.52,3.22,10,10,0,0,1-2,3.53A27,27,0,0,1,280.85,16.9Z"/><path class="cls-3" d="M296.89,24.8c-1.14-1.76-2.31-3.47-3.52-5.11a6.22,6.22,0,0,1-.49-.61,13.49,13.49,0,0,1-1.83,3.27,6,6,0,0,1-2.9,2.21c1,1.4,2.18,3.17,3.46,5.12C294,29.54,296,27.32,296.89,24.8Z"/><path class="cls-3" d="M305.9,43c-.82-2.28-1.66-4.57-2.68-6.81a5,5,0,0,1-2.31,1.13,7.84,7.84,0,0,1-5-1c1.45,2.28,2.83,4.51,4,6.48A7.39,7.39,0,0,0,305.9,43Z"/><path class="cls-3" d="M312.77,62.25c-.66-2.1-1.39-4.18-2.22-6.21-.37-.93-.68-1.85-1-2.76a7.41,7.41,0,0,1-4.62-.53c.85,2.28,1.75,5,2.63,7.8A9.27,9.27,0,0,0,312.77,62.25Z"/><path class="cls-3" d="M311.9,77.1a7.24,7.24,0,0,0,4.88,1.4c-.38-2-.79-3.93-1.23-5.89A10,10,0,0,1,310.8,72c.21.83.36,1.5.46,2C311.5,75.05,311.7,76.05,311.9,77.1Z"/><path class="cls-3" d="M319,92.23a1.23,1.23,0,0,1,.19,0c-.35-2.13-.7-4.25-1.07-6.4a10.15,10.15,0,0,1-4.92-1.7c.33,1.95.59,3.76.84,5.51A8.21,8.21,0,0,0,319,92.23Z"/><path class="cls-3" d="M320.37,108.2c0-3.3,0-6.28-.18-8.61a5.93,5.93,0,0,1-1.84-.2,8.79,8.79,0,0,1-3.46-1.92c.35,3.87.47,7,.49,9.76A9.8,9.8,0,0,0,320.37,108.2Z"/><path class="cls-3" d="M314.5,125a14.09,14.09,0,0,0,3.61,4.33c.33.25.69.45,1.06.68.38-3.76.68-7.88.9-12a4.36,4.36,0,0,1-1.22-.3,9.37,9.37,0,0,1-3.71-2.43c-.05.84-.1,1.63-.1,2.32C315,120.13,314.8,122.59,314.5,125Z"/><path class="cls-3" d="M314.58,148.38c.73-1.55,1.35-3.2,2-4.68a22.42,22.42,0,0,0,1.32-4.75,11,11,0,0,1-4.86-5.89c-.53,2.32-1.18,4.57-1.88,6.79A11.67,11.67,0,0,0,314.58,148.38Z"/><path class="cls-3" d="M302.6,161.27a14.17,14.17,0,0,0,1.16,1.45,13.59,13.59,0,0,0,2.23-2.94l2.35-2.84a9.3,9.3,0,0,1-3.5-4.29c-.41.55-.81,1.14-1.24,1.65-.91,1.11-1.79,2.22-2.69,3.32A11.32,11.32,0,0,0,302.6,161.27Z"/><path class="cls-3" d="M295.45,163.26c-.22.19-.44.37-.65.53a16.43,16.43,0,0,1-4.78,2.5c0,2.1-.26,4.18-.48,6.26.62-.17,1.24-.35,1.89-.59a23.92,23.92,0,0,0,4.56-2.32A25,25,0,0,1,295.45,163.26Z"/><path class="cls-3" d="M284.46,167l-.32,0c-2-.09-4.54-.95-6.7-.72a11.17,11.17,0,0,1-1.19,4.38,21.88,21.88,0,0,0,5.69,2c.47.11.91.18,1.36.24C283.71,171,284.12,169,284.46,167Z"/><path class="cls-3" d="M258.39.1a4.9,4.9,0,0,0-.67-.07,15.14,15.14,0,0,0-7.25,1.74,6.9,6.9,0,0,0-1.14,3.16c-.2,1.85.13,4.23,1.77,5.32a19,19,0,0,1,7.33-1.41A14.55,14.55,0,0,1,258.39.1Z"/><path class="cls-3" d="M241.19,7.52a35.33,35.33,0,0,0-4.28,3.79,12,12,0,0,0,2.21,9c.27-.4.55-.8.85-1.19A30.57,30.57,0,0,1,243.9,15,15.44,15.44,0,0,1,241.19,7.52Z"/><path class="cls-2" d="M145,186.38c1.84-4.5,1.25-10.17,1-11.83-.72-4.67-11.32-5.74-11.65-1.74.21.91-.36,2.35.55,2.23,9.13-1.1,7.24,6,5.32,10-1.84,3.92-3.79,9.88-5.75,14-4.11,8.6-9.06,17.37-15.13,24.35-3.06,3.52-5.4,6.81-8.55,10.25-3.29,3.62-7.1,7-10.12,10.73-5.24,6.51-11.93,11.79-18.38,17.33-3.54,3-7,6.55-10.78,9.13-3.31,2.25-7.94,7.75-26.67,14.66-2.53.95-19.61,4.05-21.45,3.68-3.55-.76-9-4.4-10.76-7.4s-4.68-6.34-5.09-10c-.52-4.37,2.14-12.06,3.06-16.27,7.27-32.59,46.25-58.51,54.09-63.94,3.54-2.46,6.79-5.53,10.59-7.4,1.17-.58,5.13-1.65,5.46-2.92.25-1-1-3.45-.88-4.8-7.34.44-33.58,17.36-39,22.36-6.26,5.76-27.3,32-31.88,41.75C1.09,257.44-.59,265.78.16,271.08c.69,5,2.28,9.64,5.6,13.5s7,5.9,11.7,8.12c8.05,3.78,17.71,3.19,26.21,1.05,7.75-1.94,15.09-3.3,22-7.41,6.23-3.73,11.67-8.66,17.36-13.07a143.54,143.54,0,0,0,16.17-14.68c11.83-12.45,24.23-25.48,31.56-41.12C135.86,206.69,143.57,190,145,186.38Z"/><path class="cls-4" d="M141.69,180.72c1-.21,2-.48,2.86-.7l1.78-.52a30.35,30.35,0,0,0-.27-5,3.69,3.69,0,0,0-1.06-2,15.65,15.65,0,0,0-4.82,3.16C141.82,176.75,142.05,178.7,141.69,180.72Z"/><path class="cls-4" d="M130.7,206.51a8.56,8.56,0,0,0,3.88,2.87c1.56-3.35,3.16-6.82,4.65-10a6.37,6.37,0,0,1-4.31-1.26c-.13.29-.26.63-.4.91C133.33,201.5,132,204,130.7,206.51Z"/><path class="cls-4" d="M128.47,221.94c.65-1.17,1.3-2.34,1.89-3.55a9.34,9.34,0,0,1-1.3-.85,12.31,12.31,0,0,1-2.82-3.49c-1.31,2-2.69,4-4.14,5.91C123.19,221.62,125.9,222.1,128.47,221.94Z"/><path class="cls-4" d="M118.24,237.16q3-3.85,5.77-7.93c-2.76-.26-5.63-1.54-6.51-3.61-1.83,2.21-3.48,4.37-5.4,6.55A7.8,7.8,0,0,0,118.24,237.16Z"/><path class="cls-4" d="M90.29,267.21c2.79-2.49,5.49-5.06,8.06-7.74-3-1.31-5.53-3.46-6-6.45-2.48,2.23-5,4.42-7.59,6.61C83.59,263.51,86.66,266.12,90.29,267.21Z"/><path class="cls-4" d="M72.68,277.88a6.67,6.67,0,0,0,3,1.28c2.24-1.8,4.47-3.61,6.72-5.38-2.88-1.7-5-5-4.57-8.09a58,58,0,0,1-6.27,5.12,27.44,27.44,0,0,0-2.19,1.67A9.57,9.57,0,0,0,72.68,277.88Z"/><path class="cls-4" d="M61.57,288.4a42.94,42.94,0,0,0,4.17-2.11L68,284.85A9.76,9.76,0,0,1,66,283.1a8.92,8.92,0,0,1-2.12-6.61,75.67,75.67,0,0,1-6.69,3.74C56.57,283.31,58.85,286.46,61.57,288.4Z"/><path class="cls-4" d="M39.11,294.64c1.56-.25,3.09-.56,4.58-.93l6.41-1.59a11.57,11.57,0,0,1-5.68-6.52c-1,.31-2.87.73-5.13,1.17A12.24,12.24,0,0,0,39.11,294.64Z"/><path class="cls-4" d="M7.59,271.75a15.17,15.17,0,0,1,0-3,9.93,9.93,0,0,0-5.31-1.41,7.54,7.54,0,0,0-2.29.49A18.1,18.1,0,0,0,.17,271,36.57,36.57,0,0,0,1,275,15.63,15.63,0,0,1,8.6,275,10.54,10.54,0,0,1,7.59,271.75Z"/><path class="cls-4" d="M8,242.68c-.6,1.33-1.18,2.61-1.7,3.86a11.15,11.15,0,0,1,5.45,4.83A63.46,63.46,0,0,1,14,245.25,27.08,27.08,0,0,0,8,242.68Z"/><path class="cls-4" d="M15.13,230.58c-1.3,1.9-2.51,3.7-3.52,5.31A29.06,29.06,0,0,0,18,237.42c.64-1.09,1.33-2.17,2-3.23A22.12,22.12,0,0,1,15.13,230.58Z"/><path class="cls-4" d="M34.65,205.53c-1.67,1.94-3.49,4.12-5.4,6.45a.15.15,0,0,0,0,.06,19.3,19.3,0,0,0,3.63,6c1.56-1.65,3.14-3.24,4.71-4.76A23.86,23.86,0,0,1,34.65,205.53Z"/><path class="cls-4" d="M56,188.14c-2,1.23-3.86,2.46-5.63,3.65A13.28,13.28,0,0,0,53.09,200c1.58-1.23,3.06-2.35,4.46-3.36C56.82,193.93,55.87,190.86,56,188.14Z"/><path class="cls-4" d="M68.06,181.15c-2.19,1.17-4.48,2.45-6.81,3.82a15.68,15.68,0,0,0-.25,1.75,11.91,11.91,0,0,0,1.2,6.58l2.54-1.76c1.54-1.07,3-2.25,4.52-3.4A10.8,10.8,0,0,1,68.06,181.15Z"/><path class="cls-4" d="M78.7,176.61a26.45,26.45,0,0,0-4.41,1.52,13.24,13.24,0,0,0-.22,6.74c.41-.24.83-.52,1.26-.74.72-.35,2.45-.88,3.78-1.52A17,17,0,0,1,78.7,176.61Z"/><path class="cls-4" d="M44,196.29c-1.31,1-2.38,1.83-3.08,2.48s-1.46,1.42-2.38,2.41a20.28,20.28,0,0,0,4.38,7.21q2.51-2.2,4.91-4.19A16,16,0,0,1,44,196.29Z"/><path class="cls-4" d="M23.59,219.13c-1.38,1.78-2.73,3.56-4,5.33.14.17.27.36.4.52a18.17,18.17,0,0,0,4,3.63c1.17-1.58,2.42-3.1,3.66-4.61A20.06,20.06,0,0,1,23.59,219.13Z"/><path class="cls-4" d="M8.46,258.11A15.18,15.18,0,0,0,4,255l-.9-.32c-.74,2.07-1.36,4-1.81,5.69a9.61,9.61,0,0,1,1.61.11A8.14,8.14,0,0,1,6.59,262a7.94,7.94,0,0,1,1.49,1.55.21.21,0,0,1,.22.12c.06.13.12.27.19.41.34-1.53.76-3,1.13-4.47A10.77,10.77,0,0,0,8.46,258.11Z"/><path class="cls-4" d="M11.65,280.11c-2.73.15-5.64,1.68-6,4.22a1,1,0,0,0,.15.2,27.18,27.18,0,0,0,3.13,3.06,5.3,5.3,0,0,1,.67-.5,14.22,14.22,0,0,1,6.26-2,14.06,14.06,0,0,1-3.17-3.39C12.37,281.19,12,280.65,11.65,280.11Z"/><path class="cls-4" d="M23.46,289.12a13.3,13.3,0,0,1-2.56-.89,5.84,5.84,0,0,0-3,3.73,5.78,5.78,0,0,0-.1.81A28.83,28.83,0,0,0,25.63,295a6.62,6.62,0,0,1,.1-1.15,10.59,10.59,0,0,1,2.89-5.2A26,26,0,0,1,23.46,289.12Z"/><path class="cls-4" d="M101.65,251a14.82,14.82,0,0,0,3.51,1.24c2.46-2.65,4.91-5.34,7.29-8.09a6.08,6.08,0,0,1-2.61-1.42,6.77,6.77,0,0,1-1.83-6.17,103.79,103.79,0,0,0-7.28,7.76c-.83,1-1.69,2-2.59,3A7.33,7.33,0,0,0,101.65,251Z"/><path class="cls-4" d="M142.05,193.13c1.11-2.46,2-4.5,2.6-5.81a38.3,38.3,0,0,1-5.26-.27c-.7,1.67-1.4,3.52-2.12,5.36A13.8,13.8,0,0,0,142.05,193.13Z"/><path class="cls-2" d="M98.25,97.59s.06.13.09.18c.83-1.22,1.39-2.39,2.85-3.12a5.06,5.06,0,0,1,2.39-.61c.42.07.26-.14.63.16a7.69,7.69,0,0,1,.35.86c-2.24,1-4.65,1-5.83,3.44"/><path class="cls-2" d="M120.66,96.1a7.47,7.47,0,0,1,2.06,1.42,3.09,3.09,0,0,1,1.11,2.1c.16,1.09.11,1.19-.71,1.86.25-1.24-.33-2.2-1-3.29s-1.57-.94-2.9-1.54c.24.18-2.58.34-.91-.36A5.92,5.92,0,0,1,120.66,96.1Z"/><path class="cls-2" d="M104.26,99.73a.66.66,0,0,0,.06.2c-1.13-.65-2.33,1.1-.94,1.66a1.4,1.4,0,0,0,1.74-.78c.21-.47,0-1.52-.58-1.18"/><path class="cls-2" d="M118.16,102c-.06.27-1,.42-1.21,1.22.73.55,1.28.32,1.91-.23-.07-.43-.18-.89-.7-1"/><path class="cls-2" d="M321.54,160a51.46,51.46,0,0,1-6.56-1.22s.17-1.63.19-1.87c.17-1.86,2.7-3.38,3.95-4.13,3.43-2,7-2.74,8.78-6.69,1.4-3.18,1.22-17.73-5.8-16.32-1.24-2.49,5.95-12.66,6.6-15.49.95-4.16,2.65-8.32,3.47-12.48,1.24-6.38-.79-16-3.38-22.21,1.68,1.43,3.62.54,5.49.92,1.42.33,3.5,1.73,5,2.4,3.94,1.71,8.77,1.47,11.75-1.8,1.53.68,1.6,2.55,2.79,3.89a8.55,8.55,0,0,0,4.58,2.56c3.49.63,6-2.42,9.77-1.41.48-.5.41,1.79-.6,3.43s-2.45,2.61-3.62,4.07c-2.22,2.76-4.3,5.92-6.45,8.52-4.62,5.58-8.93,12-13.33,18-5,6.79-7.65,14.85-10.25,22.77-.52,1.55-1.72,6.89-2.17,8.51-.95,3.31-3.7,6.81-5.42,7.67A14.25,14.25,0,0,1,321.54,160Z"/><path class="cls-2" d="M234.74,260.08c5.26.73,7.9-.42,11.34-1.29,4.79-1.23,2.55-6.57,6.66-5.05,4.58,1.7,11,3.3,15.86,2.8,3.67-.38,12.52-1.39,13.93-5.16,2.66.85,10.49,3.86,11.74-.3,2,1.8,2.35,3.9,4.73,5.43s6,3.3,8.56,2.47c2.21,8.1,8,11.39,15.44,14.53-8.67-.4-17-1.63-25.58-2.67-9.26-1.11-19.24,1.54-28.71,1.47-8-.07-16.47-3.67-24-1.71-3.31.85-8.54,4-11.79,2.46-4.84-2.31-9.13-7.83-6.67-16.92Z"/><path class="cls-4" d="M95.58,96.1c.28,0,.58-.82.74-1.07.31-.52.74-.91,1.09-1.39a9.28,9.28,0,0,1,1.9-2c.71-.48,7.09.32,7.9.49s2.48.7,3.3,1,1.91,3.48,3,3.3A5.82,5.82,0,0,0,116,94.91c.74-.69.78-.81,1.73-.68,2.21.27,3.21.22,5.4.67a26.33,26.33,0,0,1,2.85.81,7.54,7.54,0,0,1,1.51.8,3.47,3.47,0,0,1,1.14,1,6.27,6.27,0,0,1,.07,2.33,6.24,6.24,0,0,1-.53,2.62,43.13,43.13,0,0,1-2,4.33,17.14,17.14,0,0,0-.92,1.93c-.18.39-.23.62-.6.76s-.62,0-1-.19a5.46,5.46,0,0,0-1.9-.57,11.76,11.76,0,0,1-2.54-.47c-.73-.26-1.43-.68-2.17-.9s-2.14-.46-2.89-.7a11,11,0,0,1-1.94,2c-1,.41-1.49.16-2.33-.55-.4-.34-1.82-2.07-2.06-2.36s-1.6-.46-2-.59a15,15,0,0,0-2.61-.27,13.39,13.39,0,0,1-2.71-.33,23.74,23.74,0,0,1-2.39-1,3.35,3.35,0,0,1-1.86-1.62,11.3,11.3,0,0,1-.85-3.36,3.09,3.09,0,0,1,.08-1.86C95.93,95.83,95.58,96.1,95.58,96.1Z"/><path class="cls-3" d="M110.27,98.62c.27,0,.72-2.3.79-2.57A12.53,12.53,0,0,0,108,94.74a54,54,0,0,0-6.12-1.19c-1-.16-1.46-.35-2,.58-1,1.57-2.11,3.22-1.94,5.06.08.9,3.51,2.46,4.35,2.73C103.78,102.39,110.27,98.62,110.27,98.62Z"/><path class="cls-3" d="M117,97a10.24,10.24,0,0,0-.53,3.48c.12.53,3.22,4.31,3.37,4.61s4.88,1.46,5.19,1a12.37,12.37,0,0,0,1.47-3,21.72,21.72,0,0,0,.81-2.6c.09-.39.16-.81.23-1.19.13-.55.18-.17-.25-.47s-.59-.48-.86-.65a3.6,3.6,0,0,0-1.16-.32,13.17,13.17,0,0,0-3-.55C121.31,97.27,117,97,117,97Z"/><path class="cls-4" d="M98.65,93.36a.46.46,0,0,1,.18.1c-.1.46-.58.84-.83,1.23s-.87,1.54-1.15,2c-.7-.73-2-1.57-2.77-2.32-.33-.33.23-1,.11-1.47s-.15-.81-.25-1.23c-.21-.91-.28-2.19-1.44-2.24s-1.41,1.07-2.24,1.45a7.9,7.9,0,0,1-.84-1.21,5.93,5.93,0,0,1-.63-1.16,15.54,15.54,0,0,0-1.59-3.25,4.57,4.57,0,0,0-.62-.7c-.12-.12-.6-.47-.64-.61-.16-.4.28-1,.41-1.43s.35-1,.44-1.48a3.79,3.79,0,0,1,.57-1.39c.51,1.18,1.46,2.26,2,3.46.8,1.59,2.27,2.6,3.18,4.11.34.55,5.71,5.9,5.71,5.9Z"/><path class="cls-2" d="M119.47,100.68a2.63,2.63,0,0,0,2.34,1.74,4.37,4.37,0,0,0,1.84-.11,10.87,10.87,0,0,1,1.66-.57,3.6,3.6,0,0,0-3-1.75A9.61,9.61,0,0,0,119.47,100.68Z"/><path class="cls-2" d="M100.35,97.52c-.34.25,1.22.72,1.52.79a16.43,16.43,0,0,0,2,.46c.85.1,2.52-.27,3-1.12-.58-1.12-2.77-1.8-4-1.71a4.71,4.71,0,0,0-2.25.84C100.11,97.15,100.35,97.52,100.35,97.52Z"/><path class="cls-2" d="M129.94,94.88a1.13,1.13,0,0,1-.41.65c-.84-.86-.45-3.11-.54-4.3a37.42,37.42,0,0,0-.61-5,79,79,0,0,0-3.55-10.81,21.68,21.68,0,0,0-5.26-7.44c-2.06-2.1-5.17-3.43-7.81-5s-5.63-1.4-8.43-.87c-3,.58-4.91,1.87-7.58,3.2-2.47,1.24-5.48,2.26-7.61,3.91s-3.59,4.63-4.87,7.37c-2.44,5.19-2,10.07-1.46,15.57.25,2.33.56,4.74.87,7.15.35,2.84,2.86,3.62,3.64,6.17-.64-3.6,3.89-9.4,6.43-11.18A34.43,34.43,0,0,1,105.82,89c4.63-.72,9.68-1.83,13.94.24,2.42,1.16,4.53,1.23,6.35,3.42,1.09,1.32,3,3.19,3.46,4.68a1.22,1.22,0,0,0,.41-.66"/><path class="cls-4" d="M112.06,113.5c1,0,2.66-1.06,2.63-2.12a2.75,2.75,0,0,0-.65-2.08c-.36-.3-1.9,0-2.83.07-1.57.07-2.94-2.08-3.32-1.52-2.83,4-8-1.51-8.9-3.33S90.61,81.08,87.32,73.65c-.87-2-3.74-13.88-4-14.3a7.53,7.53,0,0,0-2.67-1.24c-3.07,1.2-1.78,3.12-3.08,2.9,0,.67,5.65,15.42,7.15,18.22,1.74,3.25,7.54,21.28,8.19,22.6.79,1.56.9,3,2,4.44.9,1.17,2.37,3.63,3.5,4.51.68.54,1.72.66,2.43,1.13a6.66,6.66,0,0,0,2.16.83,19.44,19.44,0,0,0,2.54.76c.73.12,1.56,0,2.25.14a13,13,0,0,0,2.37.14"/><path class="cls-1" d="M83.21,121.89l-.9,1.07Z"/></g></g></svg>