<svg xmlns="http://www.w3.org/2000/svg" viewBox="0 0 153.36 362.55"><defs><style>.cls-1{fill:#007293;}.cls-2{fill:#e30613;}.cls-3{fill:#1d1d1b;}.cls-4{fill:#fff;}</style></defs><g id="Ebene_2" data-name="Ebene 2"><g id="Ebene_1-2" data-name="Ebene 1"><path class="cls-1" d="M70.92,242l15.89,59.62,66.12,19.26S123.49,289.34,94,291.44L88.13,234.9Z"/><path class="cls-1" d="M50.63,209.51l-14.78,64.6s-17.42,85.2-17,88.31S49,313.48,50.52,294s-3.34-22.64-3.34-22.64l32-58.68Z"/><path class="cls-1" d="M15.8,73.59C8.08,70.28,0,61.1,0,61.1S.25,31.59,2.45,23.51c1.84-6.75,8.82-20.94,8.82-20.94L16.77,0l2.58,7.71-4.41,5.51-4,2.58L7.61,26.57l.71,33.14,26.87,7.48s5.29-5.64,8.08-4C50.45,67.26,47.38,65.67,51,69l8,2.82,2.87-11,7.26,0-.8,12.52,10.1,1.18s4.73-5.94,8.94-6.18c2.16-.12,6.75,3.52,11.43,3.72a94,94,0,0,0,14.19-.7l12.49-3.56-3.9-44.11-4.9-4.39-6.84-1.05-.18-5.95,5.79-2.63,8.34,5.18s3.15,2.68,4.16,10.05c2.73,20,3.92,32.13,3.8,37-.46,17.42,4.51,14.9-8.11,18s-37.37,3.84-37.37,3.84L78.9,113.48l-1.39,34.61-24.32-5.27-3.31-21.26L48.78,83s1-2.19-2.57-2.94S19.73,75.28,15.8,73.59Z"/><path class="cls-2" d="M53.21,69.21l2.63.67,3.42,15.5,2.94,4.78L73.36,72.54l2.63.87S72.48,85.75,77.26,92c.7.93.72,3.79,4.78,4.41,1,.15,1.83-2.2,1.83-2.2l-4.41,20.94,2.21,98.2-28.29-5.18-4-90.45L48.6,89.05l4-9.91Z"/><path class="cls-1" d="M53.45,46.11l1.72-2.44s-1.57,9.92,0,12.62a20.23,20.23,0,0,0,6,6.32c1.89,1.2,6.3,1.5,6.3,1.5l5-6s2.21-11.42,1.89-13.53-10.08-6.91-10.08-6.91l-8.16,6.5"/><path class="cls-3" d="M61.06,45.6l3.15-4s4.93,2.94,6,3.67a13.47,13.47,0,0,1,2.57,3.31l.73,4-1,5.52,3.26-3L77.59,50s2.21,5.14,5.88,4,8.08-9.55,7-11.76S82,33.11,80.16,35.68s-4,8.45-4,8.45-1.83-9.55-8.81-11.75c-6.4-2-6.62-1.84-11.76,1.83C53.73,35.51,50.41,43,50.41,43s-2.2-6.25-8.45-6.61C37.19,36.14,32.41,46.7,36.08,50S46,59.56,48.21,55.89a18.92,18.92,0,0,0,2.57-6.62L53,52.21l1.57,1.44.52-6.08Z"/><path class="cls-2" d="M52.79,155.18l-52,34.7S-3.36,224.94,29.9,242c38.91,20,67.11.63,68.35,0,15.79-8.09,76.29-6,47.41-65.71L80.07,161.1s-4.5,42.56-11.82,41.79-13.86-5.78-13.86-5.78Z"/><path class="cls-2" d="M58.89,53.58a.88.88,0,1,1-.88-.89A.88.88,0,0,1,58.89,53.58Z"/><path class="cls-2" d="M71.22,54.26a1,1,0,1,1-1-1A1,1,0,0,1,71.22,54.26Z"/><path class="cls-3" d="M61.63,57.78c.93.75,3,1.74,3.61.12-.54,0-3-.25-3.32-.22s-.58-.24-.51-.13"/><path class="cls-4" d="M57.41,48.79c.23-.06.45-.37.71-.51a1.79,1.79,0,0,1,.94-.19c.66,0,1.18.13,1.8.16.15,1-.78,1.37-1.55,1.54a2.58,2.58,0,0,1-2.1-.61,1.84,1.84,0,0,1,.4-.44"/><path class="cls-4" d="M67.38,48.54a4.61,4.61,0,0,1,1.7,0,3.24,3.24,0,0,1,1.49,1c-.71.05-1.15.72-2,.6a1.69,1.69,0,0,1-1.45-1.55c.18,0,.25-.07.4-.11"/><path class="cls-1" d="M59.8,48.93a.88.88,0,1,1-.87-.88A.88.88,0,0,1,59.8,48.93Z"/><path class="cls-1" d="M69.61,49.29a.88.88,0,1,1-.88-.87A.88.88,0,0,1,69.61,49.29Z"/><path class="cls-4" d="M11,196.62A2.63,2.63,0,1,1,8.34,194,2.63,2.63,0,0,1,11,196.62Z"/><circle class="cls-4" cx="14.65" cy="209.59" r="2.63"/><path class="cls-4" d="M25.34,225.89a2.81,2.81,0,1,1-2.8-2.8A2.81,2.81,0,0,1,25.34,225.89Z"/><path class="cls-4" d="M40.41,239a3.33,3.33,0,1,1-3.33-3.33A3.33,3.33,0,0,1,40.41,239Z"/><path class="cls-4" d="M56.54,242.55a2.63,2.63,0,1,1-2.63-2.63A2.62,2.62,0,0,1,56.54,242.55Z"/><path class="cls-4" d="M67.76,243.25A2.28,2.28,0,1,1,65.48,241,2.28,2.28,0,0,1,67.76,243.25Z"/><path class="cls-4" d="M81.78,241.84a1.93,1.93,0,1,1-1.93-1.92A1.93,1.93,0,0,1,81.78,241.84Z"/><path class="cls-4" d="M93.69,239.91a2.8,2.8,0,1,1-2.8-2.8A2.8,2.8,0,0,1,93.69,239.91Z"/><path class="cls-4" d="M106.31,235.53a2.28,2.28,0,1,1-2.28-2.28A2.28,2.28,0,0,1,106.31,235.53Z"/><path class="cls-4" d="M117.53,229.92a2.28,2.28,0,1,1-2.28-2.27A2.28,2.28,0,0,1,117.53,229.92Z"/><path class="cls-4" d="M132.25,224.67a2.63,2.63,0,1,1-2.63-2.63A2.63,2.63,0,0,1,132.25,224.67Z"/><path class="cls-4" d="M141,218.88a1.41,1.41,0,1,1-1.41-1.4A1.4,1.4,0,0,1,141,218.88Z"/><path class="cls-4" d="M146.27,211.35a1.93,1.93,0,1,1-1.92-1.93A1.92,1.92,0,0,1,146.27,211.35Z"/><path class="cls-4" d="M147.32,204.51a1.4,1.4,0,1,1-1.4-1.4A1.39,1.39,0,0,1,147.32,204.51Z"/><path class="cls-4" d="M147,195.92a1.23,1.23,0,1,1-1.22-1.22A1.23,1.23,0,0,1,147,195.92Z"/><path class="cls-4" d="M145.92,189.09a1.4,1.4,0,1,1-1.4-1.4A1.4,1.4,0,0,1,145.92,189.09Z"/><path class="cls-4" d="M144.52,181.38a.7.7,0,1,1-.7-.7A.7.7,0,0,1,144.52,181.38Z"/><path class="cls-4" d="M143.12,177.7a.88.88,0,1,1-.88-.88A.88.88,0,0,1,143.12,177.7Z"/><path class="cls-4" d="M7.82,189.44a1.06,1.06,0,1,1-1.06-1.05A1.06,1.06,0,0,1,7.82,189.44Z"/><path class="cls-4" d="M49.53,163.5a1.41,1.41,0,1,1-1.41-1.4A1.41,1.41,0,0,1,49.53,163.5Z"/><path class="cls-4" d="M51.63,168.76a1.05,1.05,0,1,1-1.05-1A1,1,0,0,1,51.63,168.76Z"/><path class="cls-4" d="M61.8,173.84a2.28,2.28,0,1,1-2.28-2.28A2.29,2.29,0,0,1,61.8,173.84Z"/><path class="cls-4" d="M72.31,173a1.75,1.75,0,1,1-1.75-1.75A1.75,1.75,0,0,1,72.31,173Z"/><path class="cls-4" d="M79.32,168.76a1,1,0,1,1-1-1A1,1,0,0,1,79.32,168.76Z"/><path class="cls-4" d="M82.13,165.08a1.23,1.23,0,1,1-1.23-1.23A1.23,1.23,0,0,1,82.13,165.08Z"/><polygon class="cls-4" points="44.97 168.06 11.32 189.09 13.42 193.29 44.97 168.06"/><polygon class="cls-4" points="48.83 174.72 22.19 209.07 27.09 216.78 48.83 174.72"/><polygon class="cls-4" points="57.59 179.98 38.66 230.1 49.53 233.25 57.59 179.98"/><polygon class="cls-4" points="67.05 181.38 66.7 234.66 75.47 234.66 67.05 181.38"/><polygon class="cls-4" points="73.01 179.98 92.64 229.4 101.41 224.14 73.01 179.98"/><polygon class="cls-4" points="79.67 175.07 113.67 219.94 125.59 213.98 79.67 175.07"/><polygon class="cls-4" points="84.58 171.91 135.41 203.46 138.21 194 84.58 171.91"/><polygon class="cls-4" points="85.98 168.06 136.81 183.13 134.35 175.77 85.98 168.06"/><path class="cls-4" d="M57.72,91.94a2.85,2.85,0,1,1-2.85-2.85A2.84,2.84,0,0,1,57.72,91.94Z"/><path class="cls-4" d="M73.47,94a2.4,2.4,0,1,1-2.4-2.4A2.39,2.39,0,0,1,73.47,94Z"/></g></g></svg>