<svg xmlns="http://www.w3.org/2000/svg" viewBox="0 0 346.74 372.54"><defs><style>.cls-1{fill:#1d1d1b;}.cls-2{fill:#007293;}.cls-3{fill:#e30613;}.cls-4,.cls-5{fill:#fff;}.cls-4{stroke:#fff;stroke-miterlimit:10;stroke-width:1.55px;}</style></defs><g id="Ebene_2" data-name="Ebene 2"><g id="Ebene_1-2" data-name="Ebene 1"><path class="cls-1" d="M225.49,124.56c-.18.44-.1.58.22.43,2.64-1.65,6.44-2.41,9.25-3.32,2.66-.86,6.13-2.74,9-1.89,9.9,2.88-6.56,11.73.81,14.84,4.5,1.89,17.53.93,13.89,9.38-1.52,3.51-5.7,5.57-8.81,7.79s-6.42,5.05-9.86,6.93c1-9.79-5.09-26.09-15.29-29.76a.4.4,0,0,1,.15-.65"/><path class="cls-2" d="M211.94,136.9c-.75,1.58-3.28,3.12-4.82,4.06s-3.31,1.22-4.9,2a4.16,4.16,0,0,0-2.55,4.81,16.44,16.44,0,0,1,.47,1.93c.1,1.81-.8,3.08-1.56,4.59-1.17,2.29-2.42,4.62-2.29,7.29a13.28,13.28,0,0,0,1.4,5.19,9.39,9.39,0,0,0,3.07,3.83,23.59,23.59,0,0,0,3.49,1.48,11.44,11.44,0,0,1,3.49,2.2,3,3,0,0,1,1.14,1.86c.11.87-.14,1.25.41,2,1.07,1.49,2.6,2.51,3.11,4.27a11.42,11.42,0,0,0,2.29-2.21,41.38,41.38,0,0,1,3.32-3.56c2.57-2.29,5.2-4.52,7.82-6.81,1.8-1.58,3.8-2.95,5.55-4.58,1.57-1.45,3.49-2.87,4.37-4.89,1.79-4.14.14-8.94-1.6-12.85-.62-1.36-1.57-2.53-2.3-3.84a31.31,31.31,0,0,0-4-5.78,19,19,0,0,0-5.18-4.4,5.22,5.22,0,0,0-5.88.25,29.85,29.85,0,0,0-3.34,2.34c-1.89,1.55-3.58,3.19-5.6,4.64s-3.82,1.46-6.21,1.52c-2.62.06-2.5,2.45-1.87,4.39a5.33,5.33,0,0,1,.53,2.91,13.31,13.31,0,0,1-1,2.55,52.47,52.47,0,0,0-2.37,6.68c-1.57,5.38,2.1,9.89,6.87,12.19,1.29.62,4.4,2.06,4.41,3.79,0,1.12-1,2.37-1.64,3.18A29.17,29.17,0,0,1,204,180.7c-.72.7-2.1,1.53-2.52,2.41-1.16,2.42,2,6.23,3.78,7.42a8,8,0,0,0,5.9,1,3.42,3.42,0,0,0,1.79-.81c-1.06-2.64-.43-6.33.63-8.89a12.54,12.54,0,0,1,2.14-3.38c.52-.61,1.08-1.17,1.63-1.73a8.84,8.84,0,0,0,1.33-1.25.65.65,0,0,1-.24,0"/><path class="cls-1" d="M224.36,159.5c2.08-.37,3-6.23,3.06-8.14s-2.23-3.75-3.89-4.3a3.92,3.92,0,0,0-1.59-.2c-.1,0-.66.07-.68.2s.65.49.74.58c.28.26.59.52.84.8A11.35,11.35,0,0,1,224,150.1a6.35,6.35,0,0,1,.91,3.09,20.18,20.18,0,0,1-.11,3.73,8.16,8.16,0,0,1-.29,1.28,5.14,5.14,0,0,0-.23.79,2.62,2.62,0,0,1-.12.68c.1-.14.23-.27.32-.42"/><path class="cls-1" d="M216.37,141.28c-.82-1.09-2.43-7.5-4.54-4.37a5,5,0,0,0-.66,1.84c.27.57,1,.2,1.56.28a4.76,4.76,0,0,1,2.94,2.2l-.3-.13"/><path class="cls-2" d="M204.45,150.76l.14-.13"/><path class="cls-3" d="M200.26,152.93c0,.1,0,.14.07.11a3.38,3.38,0,0,1,2.1-1.69,1.63,1.63,0,0,1,1,.18c.52.31.36.75.69,1.11.55.59,2,0,2.09,1.25,0,.3-.21.78-.22,1.12a7.32,7.32,0,0,1-.14,1.33,6,6,0,0,1-1.22,2.51c-.71.84-1.34.81-2.38.5-1.4-.43-3.44-1.56-3.15-3.36.16-1,.91-2.91,1.91-3.17"/><path class="cls-2" d="M214.55,176.05c-.27.87-1.13,2.4-1.69,3.6a28.09,28.09,0,0,0-1.61,5.72c-1.34,5.91.52,3.16,4.3,4.79,3.51,1.51,3.86,6.19,3.32,9.42a16.82,16.82,0,0,1-5,8.65c-1.21,1-2.83.89-3.87,1.69-2,1.54-3.62,4.91-4.94,7-2,3.29-3.35,6.9-5.66,10-.94,1.27-1.71,2.9-2.74,4.08-.81.92-1.59.76-2.75.73-2.28-.06-4.37-1-6.62-1.32-3-.45-6-1-8.94-1.54s-6-1.17-9-1.73a7.36,7.36,0,0,0-3.58,0c-.15-.87.7-2.12,1-2.95.44-1.14,1-2.27,1.42-3.4,1-2.72,2-5.41,3-8.16.51-1.5.77-3.15,1.37-4.6a32.68,32.68,0,0,1,1.78-2.93,9.18,9.18,0,0,0,.87-2.19,15.06,15.06,0,0,0,.7-4.17c-1.31.9-2.24,2.25-3.63,3.07-.75-.53-.71-2.84-.69-3.68a25.9,25.9,0,0,1,4.06-13.3,10,10,0,0,1,4.66-3.72,31,31,0,0,1,3-1.12,5.77,5.77,0,0,1,4.2-.21,48.87,48.87,0,0,1,4.5,2,16.64,16.64,0,0,0,6.67,1.49c1.53,0,3.42.41,4.9.15,3.22-.59,5-5,6.11-7.75.2-.49.29-1,.48-1.51.38-.95.09-1,1-.58s2.55,2.29,3.27,2"/><path class="cls-3" d="M171.64,310.38c-6.13,3.76-11.71,8.49-17.57,12.78-4.72,3.45-9.07,7.55-13.43,11.36-3.84,3.35-6.74,7.85-10.13,11.61a80.12,80.12,0,0,1-12.87,11.1c-11.2,8-20.26,14.5-34.49,14.52-14.46,0-26.26-11.06-34.15-22.12-3.54-5-6.37-10-9.47-15.1-2.36-3.87-6-8.11-5.21-12.85.62-3.92,2.79-8.05,4.36-11.67,2.34-5.39,6.17-17.85,14.37-14.66,6.29,2.46,8.66,16.48,10.51,22.43,2.55,8.18,4.92,21.74,13.6,25.77,8.35,3.88,17.59-2,23.86-7.47,8.35-7.23,14.66-16.77,21.28-25.7,4.79-6.46,9.29-14.22,11.7-21.94,1.06-3.4,1.29-6.85,2.55-10.31,1.44-3.91,3.14-7.74,4.4-11.72,1.13-3.57,2.05-7.08,3.3-10.62,2.82-8,5.53-15.83,9.33-23.59a185.64,185.64,0,0,1,13.29-22.29c2.7-4,5.32-8,8-11.92a53.36,53.36,0,0,1,7.93-9.36c1.66-1.56,3.45-3,5-4.66,2-2.2,4.8-5.45,8.27-4.43,1.22.35,5.34,1.27,5.5,2.75.1,1-1.54,2.12-2.16,2.73-1,1-2.13,1.89-3.12,2.89a13.53,13.53,0,0,0-2.87,3.66,7,7,0,0,0-.84,2.72c0,1,.84,1.49,1.69,2a14.94,14.94,0,0,0,3.42,1.44,15.81,15.81,0,0,1,2.67,1.2c1.36.69,3.66-.32,4.67-1.39,1.69-1.76,3.09-3.86,4.77-5.67.65-.71,1.34-1.39,1.95-2.16s.71-1.32,1.79-.92c.67.25,1.36.74,2,1s1.66.51,2.05,1c-.49,1-2,1.77-2.88,2.51a17.91,17.91,0,0,0-2.7,3.12c-2,2.7-3.11,6.56-4.09,9.77a28.06,28.06,0,0,0-1,4.3c-.21,1.41.74,2,.68,3.24a17.78,17.78,0,0,1-1.41,4c-1.11,2.94-2.93,5.53-4.25,8.36a99.24,99.24,0,0,0-4.27,12.1c-2.34,7.43-4.45,13.43-2.1,21.19,2.07,6.83,7.16,10.87,14,12.7,4.13,1.11,8.7,1.07,12.86,1.59A107.41,107.41,0,0,0,250,274a181.75,181.75,0,0,0,42.37-10.87c11.14-4.37,21.24-8.46,28.88-18.31,6.49-8.35,9.24-22.2-1.07-27.9-4.3,1.58-5.05,5.16-6.63,8.78-3.16.59-12.12.45-14.13-1.39-5.08-4.65-.76-15.39,3.11-19.07,5.38-5.12,12.27-8.27,19.47-7.64,17.09,1.47,23.2,25.1,24,38.9,1.23,21.53-11.76,37.34-29.53,47.84-20.33,12-41.52,16.47-65.06,15.67-11.4-.39-22.82.95-34.24,1.12-12.13.18-26.68.66-38.05,5.38A54.93,54.93,0,0,0,171.64,310.38Z"/><path class="cls-4" d="M203.55,198.63q3.12,1.16,6.28,2.12a21,21,0,0,1,1.77-3.59q-2.25-1-4.42-2.09c-.68.86-1.37,1.72-2.12,2.5A5.33,5.33,0,0,1,203.55,198.63Z"/><path class="cls-4" d="M183.46,188.07a74.14,74.14,0,0,0,9.2,5.73,9,9,0,0,1,.78-2.22,12.62,12.62,0,0,1,2.59-3.37,34.83,34.83,0,0,1-6.49-6c-.62.61-1.19,1.24-1.71,1.81C186.47,185.45,184.93,186.73,183.46,188.07Z"/><path class="cls-4" d="M169.63,205.85c5.64,5.33,13.37,8.77,20.43,11.35a118.82,118.82,0,0,0,14.37,4.27,30.21,30.21,0,0,0,1.78-3.72c.4-1.06,1.35-2.87,1.4-4s-.88-1.83-.67-3.24c0-.15.06-.28.08-.42A101.18,101.18,0,0,1,194.88,207c-6.85-2.27-13.69-5.38-18.92-10.43-.36.49-.71,1-1.06,1.48Q172.25,201.9,169.63,205.85Z"/><path class="cls-4" d="M141,266.42c-.6,1.9-1.31,3.76-2,5.62a69.81,69.81,0,0,0,7.49,1.43,161,161,0,0,0,20.35,1.33A102.29,102.29,0,0,0,202.69,269a17.23,17.23,0,0,1-5.82-6.52A86.17,86.17,0,0,1,145.25,253l-1,2.76C143,259.34,142.1,262.85,141,266.42Z"/><path class="cls-4" d="M145,306.13c7.24,3.36,15.65,6.34,23.8,6.13.95-.64,1.92-1.27,2.89-1.87a54.34,54.34,0,0,1,7.43-3.84,65.82,65.82,0,0,1,16.4-4.1,86.07,86.07,0,0,0,10.82-9.3c5.46-5.58,10.48-12.23,12.7-19.8-1.6-.13-3.22-.26-4.83-.44-12.62,9.49-26.32,17.28-42.26,19.94a122,122,0,0,1-23.27,2c-5.09-.13-11.26-.59-15.57-3.73a64.56,64.56,0,0,1-3,6.73A137.2,137.2,0,0,0,145,306.13Z"/><path class="cls-4" d="M119.19,314.66c1.41,6.46,6.46,12.27,11.22,16.37a57.4,57.4,0,0,0,7.92,5.78,31.29,31.29,0,0,1,2.33-2.28c3.09-2.7,6.19-5.55,9.41-8.21a61,61,0,0,1-8.65-4.07c-6.34-3.6-13.21-8.75-16.5-15.57-.86,1.27-1.72,2.52-2.6,3.7Q120.75,312.51,119.19,314.66Z"/><path class="cls-4" d="M99.24,337.59c2.72,8.75,7.34,17.27,14.06,22.75l4.36-3.09a85.49,85.49,0,0,0,11.6-9.8,51.15,51.15,0,0,1-10.21-8.93A41.84,41.84,0,0,1,111,325.57,80.38,80.38,0,0,1,101,336.09C100.47,336.59,99.86,337.09,99.24,337.59Z"/><path class="cls-4" d="M65.21,365.93a32.37,32.37,0,0,0,18,5.83h.29a65.1,65.1,0,0,1-.48-27,13.47,13.47,0,0,1-5.8-1.24,12.49,12.49,0,0,1-1.84-1.08C70.14,349.59,66.21,357.59,65.21,365.93Z"/><path class="cls-4" d="M44.18,313.29a30.77,30.77,0,0,1,15.82-8c-1.61-4.58-3.78-8.71-6.94-9.95-8.2-3.19-12,9.27-14.37,14.66-1.56,3.61-3.74,7.75-4.35,11.67a10.5,10.5,0,0,0,1.19,6.2A34.8,34.8,0,0,1,44.18,313.29Z"/><path class="cls-4" d="M68,332a120.1,120.1,0,0,1-3.69-11.72,27.37,27.37,0,0,0-22.92,17.34c2.43,4.07,4.81,8.09,7.65,12.07.43.62.89,1.22,1.35,1.83C53.13,341.71,58.8,332.86,68,332Z"/><path class="cls-4" d="M243,274.63a108.87,108.87,0,0,1-14.45-.31,14.84,14.84,0,0,1,.78,5.21,57,57,0,0,1-2.16,14.91c-.57,2.16-1.23,4.32-2,6.45,8.74-.42,17.49-1.14,26.21-.84H252C252.91,291.87,247.65,281.27,243,274.63Z"/><path class="cls-4" d="M309.42,209.68a25.86,25.86,0,0,1,8.52,8.51,8.7,8.7,0,0,1,1.1-.72,58,58,0,0,0-3.76-13.87,18,18,0,0,0-2.69-4.66,28.76,28.76,0,0,0-10.08,6.34,15.77,15.77,0,0,0-2.81,3.83A11.47,11.47,0,0,1,309.42,209.68Z"/><path class="cls-4" d="M297.14,219.39a7.49,7.49,0,0,0,2.25,5c2,1.84,11,2,14.15,1.39.41-1,.77-1.9,1.16-2.81A20.17,20.17,0,0,0,297.14,219.39Z"/><path class="cls-4" d="M334.4,213.76a26,26,0,0,0,4-4.47c-3-5-7.05-9.06-12.33-10.79,1.69,7.2,2.57,15.94-3.26,20.38a12.62,12.62,0,0,1,1.53,1.67A35.39,35.39,0,0,0,334.4,213.76Z"/><path class="cls-4" d="M343.55,221.91c-5,3.29-10.64,4.87-16.62,5.68a21.59,21.59,0,0,1-.81,7.59c6.11,2.19,13.12,1.8,19.8.62A73.21,73.21,0,0,0,343.55,221.91Z"/><path class="cls-4" d="M322.71,242.73c-.47.74-1,1.46-1.48,2.13a40.71,40.71,0,0,1-5.78,6c8,1.71,18.32,6.94,23.1,13.29A45,45,0,0,0,345,248.74C337.67,246.36,330.46,243.33,322.71,242.73Z"/><path class="cls-4" d="M318.91,268.51c-4.21-4.31-10.65-8.89-17.09-9.26-3.05,1.38-6.21,2.64-9.47,3.92-.86.34-1.73.66-2.59,1,8.06,1.89,16.07,6.22,21.19,12.61a20.72,20.72,0,0,1,4.23,8.33c.42-.24.84-.46,1.26-.71a80.19,80.19,0,0,0,8.34-5.65A21.69,21.69,0,0,0,318.91,268.51Z"/><path class="cls-4" d="M275,268.9c-4.09,1.13-8.23,2.15-12.43,3,9.1,6,16,15.91,15.37,26.54a110.91,110.91,0,0,0,21.43-5.82C296.63,282.45,284.56,273.66,275,268.9Z"/><path class="cls-4" d="M153,233.59c7.42,4.75,17.26,6.47,25.28,8.91a105.2,105.2,0,0,0,17,4.06c.59-2.69,1.47-5.41,2.4-8.35.35-1.14.71-2.28,1.07-3.42A108.84,108.84,0,0,1,178,231.14c-6.66-1.89-13.5-4.53-19.09-8.73-1.89,3.21-3.7,6.48-5.34,9.81C153.37,232.67,153.19,233.13,153,233.59Z"/><path class="cls-1" d="M196.26,217.46s-2.72-2.12-4.65-3.29c-4.73-2.87-9.2-6.22-14.18-8.72-1.87,1.23-2.88,5.47-3.65,7.59s-3,6.06-3,8.16c0,3.43,11.81,9.15,15.61,9.57C188.46,227.54,196.26,217.46,196.26,217.46Z"/><path class="cls-2" d="M297.43,258.41c.79-6.17,1.49-12.34,1.94-18.54a40.16,40.16,0,0,0,.12-8.27c-.32-2.36-.62-5,.24-7.31,1-2.59,2.69-3.29,5-4.33s4.88-1.58,6.87.72c1.19,1.38,1.17,2.79.9,4.65-.67,4.48-2.49,8.91-4,13.18-2.07,5.76-4.53,11.72-5.94,17.72,5.61-4.19,11-8.08,17.16-11.14,6.79,4.21-3.06,17.45-7.91,19.45-3.33,1.38-7.3,2.11-10.84,3.37C294.41,270.26,296.82,263.25,297.43,258.41Z"/><path class="cls-3" d="M303.61,254.25a8.82,8.82,0,0,0,.46-2.05,36.87,36.87,0,0,1,1.21-4c.62-1.85,1.18-3.72,1.82-5.55a8.69,8.69,0,0,1,1.08-2.37,6.41,6.41,0,0,1,.92-.88c.32-.3.51-.68.84-.94-.6-1.61-2.66-1.51-4-1.62a17.07,17.07,0,0,0-5.88.55c-1,.24-2.23.38-2.39,1.56a10.14,10.14,0,0,0,.11,1.46c0,.39-.09.82-.13,1.23.65.25.94.43.76,1.17a2.22,2.22,0,0,0-.22.91c.05.35.36.45.49.76.22.5-.29,1.3-.29,1.86a1.73,1.73,0,0,1-.64,1.67,2.55,2.55,0,0,1,.08,2.48,10.59,10.59,0,0,0-.37,2.79c-.06,1.06.16,2.09.1,3.16a18.32,18.32,0,0,1-.12,2.48c.92-.65,1.72-1.46,2.58-2.2s2-.79,2.93-1.35a.35.35,0,0,1,.18.29"/><path class="cls-5" d="M298.48,242.37a16,16,0,0,1,2.27-.34,11,11,0,0,1,6.31,1c0-.11.07-.21.1-.32a8.83,8.83,0,0,1,1.08-2.37c.07-.09.14-.14.21-.22-2.63-.3-5.1.72-7.67,1.15-.63.1-1.79.24-2.92.5C298.22,241.91,298.44,242.06,298.48,242.37Z"/><path class="cls-5" d="M298.42,246.94a15.6,15.6,0,0,1,3.13.14,7.59,7.59,0,0,1,3.7,1.43l.09-.27c.12-.35.23-.69.34-1a8.8,8.8,0,0,0-4.87-1.1,23.51,23.51,0,0,0-2.35.12c0,.05,0,.12,0,.17A3.18,3.18,0,0,1,298.42,246.94Z"/><path class="cls-5" d="M304,252.85c0-.28.08-.54.11-.65.07-.33.19-.65.29-1a7.64,7.64,0,0,0-3.88-.15,8.37,8.37,0,0,0-3,1.56c0,.23,0,.46-.05.69a15.17,15.17,0,0,0,.05,1.79A11.17,11.17,0,0,1,304,252.85Z"/><path class="cls-1" d="M305.55,253.69c-.53-.18-.26-1.44-.62-1.83s-1.16-.18-1.64-.15a8.85,8.85,0,0,0-2.05.19,7.35,7.35,0,0,0-2.14,1.24c-2.55,1.79-2.07,5.18-2.59,8-.12.6-.25,1.2-.33,1.82s-.37,1.27-.47,1.92c-.22,1.41.34,3.19,1.84,3.58a5.29,5.29,0,0,0,2.61-.22c.78-.18,1.57-.29,2.34-.49a47.68,47.68,0,0,0,6.49-2.1c1.15-.48,2.23-1,3.33-1.56a14,14,0,0,0,3.06-1.8,10.6,10.6,0,0,0,2-2.13,31,31,0,0,1,2.55-3.58c1.35-1.57,4.08-3.85,3.83-6.2a9.47,9.47,0,0,0-2.12-5.42c-1.09-1.26-2.86-.13-3.94.54a44.7,44.7,0,0,0-4.15,2.91c-2.54,2-4.81,4.41-7.53,6"/><path class="cls-1" d="M202.37,158.59c2.23.58,2.34-2.57,1.83-3.87a3.87,3.87,0,0,0-1.75-2.05c-1.53-.6-1.22.57-2.26,1-1.25.55-4-.05-5.44-.17-1.85-.15-3.59-.3-5.42-.61-6.89-1.2-14.41-2.2-20.14,2-11.76,8.55-21.23,25.62-15.46,40.35a39.07,39.07,0,0,0,4.63,7.92c1.71,2.37,2.53,5.89,5.14,7.47,1.62-2,3.81-4,5.23-6.13,1.19-1.82,1-1.81-.58-3.38a21.44,21.44,0,0,1-4.27-7.18,24.76,24.76,0,0,1-1.64-5.84c-.67-4.91-.09-11.26,2.08-15.71A27,27,0,0,1,175.67,161c5.38-3,13.6-4.42,19.73-3.92a22.11,22.11,0,0,1,4.15.52c1.53.45,2.23,2.06,3.71,1.28"/><path class="cls-2" d="M43,312.69c10.2-4.52-4.63-20.62-8.65-24.65a143.47,143.47,0,0,1-9.5-10.87c-2.43-3-4.12-8.7-9-7.42s-6.47,7-9.1,10.64A22.26,22.26,0,0,1,4,283.19a8.79,8.79,0,0,0-2,2.32c-.72,1.6-.2,3.68.21,5.31a10.58,10.58,0,0,0,1.66,3.72c.44.62,1,1.78,1.88,1.89,1.46.17,1.87-3.13,2-4.16A6.87,6.87,0,0,1,9,289c.54-.63,1.55-.93,2.22-1.46,1.72-1.35,3.55-2.81,5.88-2.59,4.44.42,9.67,7,12.23,10.15a53.08,53.08,0,0,1,4.45,7.41A21.77,21.77,0,0,0,38,308,16.48,16.48,0,0,1,39.26,309c.37.44.66,1,1,1.41A8.39,8.39,0,0,0,43,312.69Z"/><path class="cls-1" d="M13.88,286.12c-.41,0-1.41.83-1.69,1.11A6.62,6.62,0,0,0,11,288.94a10.92,10.92,0,0,0-1,2.68c-.23,1.14.43,2.44.59,3.57a3.55,3.55,0,0,1-.93,3.16,4.2,4.2,0,0,1-2.34,1.35,3.14,3.14,0,0,1-2.46-1.21,15.28,15.28,0,0,1-3.16-5c-.85-2-2-4.18-1.61-6.38a5.46,5.46,0,0,1,1.38-2.41c.58-.67,1.47-1,2.07-1.67.84-1,1.62-2,2.52-3a7.53,7.53,0,0,0,.74-.84c-.21-.26-.55-.59-.42-1a7.86,7.86,0,0,1,1.21-1.85c.87-1.18,1.87-2.29,2.81-3.42a40.06,40.06,0,0,1,2.86-3.37c.39-.36.78-.71,1.13-1.1.14-.16.27-.44.4-.56a1.14,1.14,0,0,1,1.13-.09,14.07,14.07,0,0,1,2.5,1.05,14.25,14.25,0,0,1,4.39,3.64c.75,1,1.42,2,2.16,3,.25.35.56.67.84,1s.58.46.7.74c-.24-.05-.48.15-.67.33-.42.39-.76.85-1.19,1.26a39.19,39.19,0,0,0-2.91,3.25,32.48,32.48,0,0,0-2.54,3.56c-.22.35-.45.72-.65,1.09a3.05,3.05,0,0,1-.59.9,5.1,5.1,0,0,1-1.19-.64c-.42-.3-.65-.76-1.08-1.06a1.26,1.26,0,0,0-1.14-.18c-.35.08-.88.13-1.09.49"/><path class="cls-3" d="M18.7,286.38c.14-.14,1.27.64,1.5.75a12.11,12.11,0,0,1,1.61.81,8.54,8.54,0,0,1,1.81,1.53,10.68,10.68,0,0,0,1.62,1.68,14.88,14.88,0,0,1,1.67,1.79c.23.28.42.64.66.88s.17.13.15.37a2.16,2.16,0,0,0,0,.67.57.57,0,0,0,.28.44c.17.09.34,0,.37.24s-.56.75-.12,1c.19.11.38-.19.51-.08s-.05.51-.09.63c-.12.43-.24.75.33.71a1.75,1.75,0,0,0,.85-.49,1.15,1.15,0,0,0,.39-.4c.08-.21,0-.43.13-.66.18-.41.6-.69.76-1.1.24-.57.31-1.21.55-1.8a3.29,3.29,0,0,1,.72-1.24c.33-.29.82-.35,1.18-.64s.79-.85,1.25-1a1.34,1.34,0,0,1,.6.06,4.43,4.43,0,0,0,.73,0c.31,0,.81.17,1.11-.08s0-.56-.1-.82c-.15-.52-.75,0-.87-.39,0-.14.05-.43,0-.61a2.63,2.63,0,0,0-.1-.56c-.21-.47-.64-.06-1-.27s-.4-.66-.53-1c-.25-.64-.62,0-1.05-.27-.26-.15-.39-.57-.61-.77a1,1,0,0,0-.46-.18c-.25-.07-.32-.22-.45-.45a6.13,6.13,0,0,0-.65-1c-.64-.75-.87-1.78-1.63-2.45a3,3,0,0,1-.85-1,1.8,1.8,0,0,0-.62-.84c-.33-.18-.67,0-1-.36a6.08,6.08,0,0,1-.62-.86c-.34-.63-.89-1-1.62-.41a21.46,21.46,0,0,0-2.12,1.93c-.36.38-.69.81-1.06,1.2s-.84.79-1.26,1.19a4.77,4.77,0,0,0-1.08,1.16c-.2.33-.4.7-.61,1.05s-1,1.66-.34,1.73"/><path class="cls-5" d="M28.35,285.55c.94-.65,1.9-1.23,2.87-1.78a4.15,4.15,0,0,0,.24.34c.06.06.09.15.14.21a25.55,25.55,0,0,0-2.66,2.21A24.75,24.75,0,0,0,25,291a10,10,0,0,1-1.2-1.24A18.18,18.18,0,0,1,28.35,285.55Z"/><path class="cls-5" d="M24.49,280.32c.75-.62,1.51-1.2,2.27-1.79l0,0a6,6,0,0,0,.62.85c.29.35.63.18,1,.37a1,1,0,0,1,.36.35,21.94,21.94,0,0,0-8.27,7.07l-.25-.12c-.24-.11-1.31-.86-1.49-.75C20,284,22.6,281.86,24.49,280.32Z"/><path class="cls-5" d="M28.34,295.5c0-.24-.2-.15-.37-.24a.54.54,0,0,1-.28-.44,2.15,2.15,0,0,1,0-.67c0-.24.06-.18-.14-.37a2.23,2.23,0,0,1-.19-.24,60.22,60.22,0,0,1,6-5.93l1.12-1a.28.28,0,0,1,.09.07c-.83,1-1.65,2-2.4,3a29.89,29.89,0,0,0-4.08,6.7C27.94,296.14,28.37,295.78,28.34,295.5Z"/><path class="cls-3" d="M215.32,133.47c.85-1.33-1-5.77.28-8.06,2.09-3.69,6.29-2.17,9.08-.28,5.27,3.55,10.83,8.68,13.9,14.87,3.43,6.9,5.07,15.89,1,22.85-.84,1.43-4.74,7.32-7.23,5.33-1.78-1.42,2.52-6.44,2.93-8.3,1.32-6.14-1.55-13.59-4.52-18.69-3.58-6.14-7.89-8.55-14.39-6.26"/><path class="cls-1" d="M211.71,141.58a5.43,5.43,0,0,1-2.11-.38c-.46-.24-.92-1-1.4-1.13-.13.36-.54.49-.41,1s.72.57,1.06.66a3.78,3.78,0,0,0,3,0"/><path class="cls-1" d="M217.9,149.69c-1,1.25-.7,2.78,0,4.19a3.7,3.7,0,0,0,3.82,1.89c-.71-.85-1.82-1.34-2.49-2.36s-1.61-2.52-1.12-3.82"/><path class="cls-2" d="M181,184.34c1.58-1.25,3.1-2.76,5-3.48a3.78,3.78,0,0,0,1.72-.93c-3.55-1.72-7.62-.29-11.41-.23a21.71,21.71,0,0,1-6-.82c-1-.28-2.13-.37-3.18-.66s-1.86-.95-2.88-.7c-1.22.29-1.24,1.85-1.34,2.95s0,2.21,0,3.29a19.66,19.66,0,0,0,1,6.6c1.19,3.58,2.44,6.88,5.91,8.75.94.51,1.2.86,1.95,0s1.15-2.64,1.63-3.67a58,58,0,0,1,3.91-7.07A17.36,17.36,0,0,1,181,184.34Z"/><path class="cls-2" d="M146,174.44a22.2,22.2,0,0,0,2.92.65c1.38.24,3.49,0,3.67,1.51s-.77,3.11-1,4.56a32.22,32.22,0,0,0-.53,5.16c0,1.78-.27,3.62.55,5.26-2.52-1.27-5-2.63-7.52-3.9-2.93-1.46-6.08-2.92-9.11-4.31-5.37-2.47-10.61-5.28-16-7.79-3.82-1.79-7.68-3.46-11.45-5.31-2.12-1.05-4.4-1.87-6.27-3.35s-3.23-4.65-1.39-6.58a11.52,11.52,0,0,1,3.2-2.08,37,37,0,0,1,7.63-2.9c2.84-.72,5.65-1.61,8.44-2.34a38.17,38.17,0,0,1,3.82-.82c5.17-.73,10.52-2.39,15.68-3.67,4-1,8.14-1.59,12.19-2.56a41,41,0,0,1,12-1.31c3.36.18,6.92.48,10,1.88a17.46,17.46,0,0,1,6.93,6.24c1.55,2.16,3.92,6.57,3.63,9.3a1.8,1.8,0,0,1-1.31,1.79c-.46.2-2.41.74-2.91.3-.91-.79.44-1.57.55-2.27.16-1-.69-1.66-1.42-1.23-1.24.74-1.3,4.62-3.21,4.09-.07-.81.46-4-.07-4.38-1-.7-2.4,1.65-2.91,2.23-1,1.13-2.87,2.24-2.48-.35.25-1.64,1.4-2.77,1.14-4.6-1.42-.36-3.17,3.24-3.84.74-.38-1.41.92-3.36-.43-4.48-.94-.78-2.88-.44-4-.35-4.33.35-8.64,1.63-12.83,2.69-6.78,1.72-14.07,2.8-21.05,4.85-1.24.37-8,1.4-7.64,3,.2.93,3.25,2.93,4.11,3.39a23.3,23.3,0,0,0,2.52,1,34.16,34.16,0,0,0,6,1.59c3.63.69,7.39,2.43,10.7,3.83A15.61,15.61,0,0,0,146,174.44Z"/><path class="cls-2" d="M170.76,145.24c.68.93,3.31,1,4.51,1,1.88-.12,3.86-1.8,5.61-1.71.82.05,1.53.69,1.07,1.66-.26.57-1.7,1.33-2.24,1.65s-4.48,2.05-2.94,2.65"/><path class="cls-1" d="M157.4,169.24c-1.66,0-3.22-.6-4.87-.2-1.35.33-3.07,2.13-3.84-.29-.51-1.59,3.4-7.82,5.54-6.4,1,.64.43,3.1.52,4.12a7.3,7.3,0,0,1,3.36.52c.33,1.25.22,2.95-1.48,2.64"/><path class="cls-1" d="M154.72,195.88a4.35,4.35,0,0,1-.78.34c-.35.17-.68.36-1,.5s-.29.14-.58-.1a8.47,8.47,0,0,0-.84-.64c-.51-.32-1.18-.77-1.34.13a3.77,3.77,0,0,0,.44,2.37,3.23,3.23,0,0,0,1.41,1.61c.56.23,1,.28,1.1-.41,0-.16,0-.67.08-.8s.52-.08.7-.1a11.6,11.6,0,0,0,1.7-.29c.26-.07.31,0,.27-.33a3.72,3.72,0,0,0-.39-.9,14.13,14.13,0,0,0-.61-1.44"/><path class="cls-1" d="M161.72,209.25c-.23.32-.69.81-1.12.72a10.92,10.92,0,0,1-1.6-.74c-1.42-.53-.71,1.71-.29,2.3a9.16,9.16,0,0,0,1.7,1.65c.38.27,1.23.65,1.71.39s.17-1.07.28-1.54.84-.56,1-1.09c.25-.77-1.36-1.06-1.46-1.69"/><path class="cls-1" d="M180.38,152.21c.32-.11.67-1,.48-1.77-.45.05-1-.13-1.47-.09-1.08-2,1.64-4.09,3.58-3.07,1.48.78.14,1.55-.08,2.27-.32,1,.2,2,0,3.13a1.64,1.64,0,0,1-1.51-.22"/><path class="cls-1" d="M198.45,238.17c2.33,2.2,7,3.33,9.92,4.53a57.4,57.4,0,0,0,15.49,3.73c11.39,1.1,24,.77,35-2.46,5.27-1.56,11-3.53,15.46-6.71s8-8.19,12-12c7.23-7,13.11-14.22,17.56-23.07a153.11,153.11,0,0,0,12.27-35.26c2.14-9.31,5.68-18.57,7.12-28.09,1.2-7.93,1.14-16,1.14-24.13,0-16.84-.46-34.42-6.31-50.38-6.47-17.61-11.48-31-29.64-39.35-8-3.68-18.6-8.92-27.17-10.15a81,81,0,0,0-32.86,2.37c-4.77,1.4-9.81,3.21-14.73,4.46-11.4,2.91-19.35,7.25-25.56,17.4-1.94,3.16-4.11,6.33-4.74,10.13-1.13,6.87.12,14.58,2.38,21,5.37,15.31,16.39,22.62,32.53,22.61,30,0,45.83-27.45,43.72-54.58C260.26,15.18,236.2,0,214.45,0c-16,0-27.61,6.08-41.15,14.62a97.36,97.36,0,0,0-16.73,13.47,195.87,195.87,0,0,0-18.15,21.49c-5.82,7.8-11,15.5-18.45,21.83-5.81,4.91-10.86,11.49-17.79,14.94-2.75,1.38-5.65,1.73-8.38,3.21-3.33,1.81-6.37,4-10,5.13C75.35,97.41,61.46,98,53.62,93.23c-5.54-3.34-9.79-8-14.68-12.1-3-2.5-5.31-3.41-9.33-3.11-4.43.33-4.53,1.82-5.81,5.87-2.09,6.65-2.25,14.51-1.51,21.86A49.66,49.66,0,0,0,29.86,127c1.1,1.76,2.57,6.18,4.52,7.1s5.81-1.48,7.76-2.54c6.59-3.56,10.41-10.29,15.8-15.22s9.57-7.74,17.1-7.62c6.89.11,11.62-2.46,17.1-6.33a53.92,53.92,0,0,1,10.16-5.83c4.46-1.81,8.82-2.33,13-5a90,90,0,0,0,13.33-10.49c6.81-6.44,10.66-13.83,16.23-21.23,4.41-5.85,8.22-11.67,13.28-16.94,15.56-16.25,33.75-30.7,57.92-29.67,33.82,1.45,35.79,75.27.74,67.25-12.18-2.79-22.95-18.38-19.7-30.66,4-15.09,27.69-23.24,41.34-24.11,13-.83,27.32,1.22,37.66,9.18C289.93,45.57,300,58,304.69,75c2.8,10.22,2.7,21.36,2.7,32,0,12.45-1.5,23.79-3.76,36-2.14,11.58-5.81,22.42-9.52,33.65-1.81,5.49-4.45,10-7.23,15-2.59,4.61-5,10.78-9,14.35-5.72,5.12-13.41,10-20,14.17A60.56,60.56,0,0,1,231.49,229c-8.36.66-15.65,1.67-23.22-1.55-4.35-1.85-5.5-1.6-6.73,3-.53,2-2.49,8.31-.51,9.31"/><path class="cls-5" d="M27.94,93c.55.7.64.74.25.12-.88-3.33.16-11.28,5.42-9.12,3.11,1.28,4.81,9.62,5.21,12.33,1.27,8.61,2,19.53-.9,27.49-.67,1.84-.85,4.26-3.31,4-1.27-.11-3.66-2.79-4.39-3.79-2.82-3.85-3.62-9.21-4.75-13.56a41.26,41.26,0,0,1-.88-14.18c.61-5.4,4-7.73,7.52-11.65"/><path class="cls-2" d="M218.48,193c4.58,0,8.29-1.94,12.34-3.84,7.14-3.37,15-5.65,22.31-8.62,7.16-2.88,14.46-5.58,21.16-9.42,6-3.41,12.25-6.36,17.52-10.76,2.57-2.14,5.08-5.53,8.33-6.6.5,3.33-1.12,7.24-2.18,10.38a26.41,26.41,0,0,1-4,7.75c-3.69,4.7-10.65,6.05-15.9,8.65-6.36,3.16-13.18,5.74-19.51,9.18-6.09,3.3-12.07,6.91-18.33,9.92-3.32,1.61-6.72,2.85-10.13,4.22a67.65,67.65,0,0,1-15.63,4.69c-2.32.33-4.41.94-3.76-2.1A39.71,39.71,0,0,1,215.18,196c1.1-1.89,2.91-3.42,4-5.38"/><path class="cls-2" d="M323.91,151.43c5.1-3.08,9.81-18.5,5.23-24.59-1.91-2.53-7.19-6.3-10.5-4.68-4.05,2-3.46,8.74,1.16,9-2.34-.08-4,1.58-3.51,3.92a11.81,11.81,0,0,0,3.51.12c-2.53-.12-6.75,1.1-5.24,4.66s5.62.09,8.46.88c.34,3.68-3.91,9-3,12.25,1.75,6.53,7.75-5.24,8.58-7.72"/><path class="cls-1" d="M216.43,244.66a9,9,0,0,1-.11,3.15c-.44-.23-1.92-.24-2.37-.48-1.34,4.13,3.84,4,6.29,3-.38-2.52-2.42-2.7-1.21-5.72"/><path class="cls-1" d="M234.59,244.66c.51,1.84-2.5,7.49.66,7.15,4.8-.49.06-4.81,1.93-7.15"/><path class="cls-1" d="M250.79,243.36c-.9,3.95,2.19,4.67,5.08,3.13a4.69,4.69,0,0,0,.11-1.83"/><path class="cls-1" d="M265.7,241.42c1.73,4.5,5.67.21,5.19-3.25"/><path class="cls-5" d="M308.29,176.13a.23.23,0,0,1-.18.14c0,1.11-.11,2.32.83,3.14,1.2,1,2,.06,2.26-1.31.37-1.95-2.27-3.65-3.56-2"/><path class="cls-5" d="M310.57,161.44c-.44.78-1,2.16-.63,3.11.46,1.16,2.38,1.74,3.25.78,2.61-2.86-2.82-5.93-3.11-4.05"/><path class="cls-5" d="M313,146.6c-.22.84-.94,1.7-.54,2.94s1.53,2.31,2.86,2c1.92-.49,2-3.47,1-4.75s-3.32-1.77-3.6.17"/><path class="cls-5" d="M314,137.46c-.88,1.15.62,4.68,2.56,4.21-2.14-1.09-2.52-2.59-2.4-4.7"/><path class="cls-5" d="M316.77,113.47c.14.85-.83,1.89.13,3a1.78,1.78,0,0,0,2.41.31c2.68-2.1-2-5.28-2.54-3.74"/><path class="cls-5" d="M317.91,98.14c-1.94.84-.36,4.19,1.18,3.28,1.72-1-.24-5.45-2-4.42"/><path class="cls-5" d="M311.71,85.09c-.16,1.65,2.74,4.72,3.4,2.22a2.49,2.49,0,0,0-1.48-3c-.65-.25-1.88-.46-1.59.63"/><path class="cls-5" d="M307.31,67.14c.29-.06-.12,0-.12,0a4.8,4.8,0,0,0-.07,3c.32.81,1.54,2.14,2.47,1.61,1.74-1,.05-5.38-1.93-4.88a.44.44,0,0,0,0,.3"/><path class="cls-5" d="M300.29,59.31c-.21,1.61,3.63,4.4,3.59,1.43,0-2.29-4.49-3.48-3.59-.94"/><path class="cls-5" d="M292.63,50.33c.8.91,1.2,1.94,2.4,2.45s2.06.32,1.56-1.14a3.18,3.18,0,0,0-3-2c-1.1.12-1.91,1.21-.5,1.8"/><path class="cls-5" d="M307.47,185.75c-.42,1.28-1.51,2.25-1.64,3.84-.07.91.27,2.65,1.64,2,.93-.43,1.25-2.32,1.14-3.21-.06-.48-.75-2.48-1.47-1.67"/><path class="cls-5" d="M303.39,197.5c-.41,1.17-1.46,2-1.31,3.39s1.08,1.4,1.84.69c1.24-1.17.84-5.05-1.18-3.26"/><path class="cls-5" d="M299.31,208.1c-.85-.14-1.9,2.47-1.77,3.41,1.14.19,2.45-2.25,2.24-3.22a1.06,1.06,0,0,0-.47,0"/><path class="cls-5" d="M294.25,216.9c0,.22,0-.31,0-.31-1.16.09-4.1,2.55-4.06,3.9.05,1.71,1.81-.13,2.3-.64a6.27,6.27,0,0,0,1.62-3.6"/><path class="cls-1" d="M307.23,106.81c-3.76,1.35-4.06-7.54-3.78-10.79a3.55,3.55,0,0,1,3.78.66"/><path class="cls-1" d="M306.45,87.32c-1.17,2.48-3.4-2-3.9-3.89-.62-2.42-1.48-5.08,1.56-6.24"/><path class="cls-1" d="M301.77,68.61c.07.58-.18.87-.75.88-2.38-1.19-4.53-4.38-2.36-6.34"/><path class="cls-1" d="M145.82,55c1.27.75,2,2.92,3.06,3.35,1.8.76,4.2-1,5.36-.11,3.75,2.86-1.53,9.14-4.4,9.13.21-1-.45-2.64-.24-3.67-2.82.24-7.33-1.68-5.34-4.8"/><path class="cls-1" d="M130.25,78A10.4,10.4,0,0,0,135,82.7c2,1,4.31-2.5,2.94,2.24-1.56,5.42-9.82,7.74-7,.18-2.76,0-3.8-2.32-4.58-4"/><path class="cls-1" d="M109.2,91.22c-.07.58.18.87.76.87.86-1,2.26-1.08,3-1.55-.08,1.63,0,5.24,1.46,6.37,1.94,1.51,4.71-2,6.35.49,2.93,4.37-7.24,7.62-9.89,7-.12-2.38.55-3.24-.11-5.19-.33-1-3.33-4-3.91-4.83"/><path class="cls-1" d="M87.59,104.37c1.54.27,2.2.86,3.75.11.73,4,3,3.78,6.27,3.13,1.35,4.24-4.93,7.32-8.34,6.77.17-1.33-.4-3.09-.25-4.42a13.87,13.87,0,0,1-4.55-3.25"/><path class="cls-1" d="M196.52,48.34c-.1,1.35,9.37,8.2,11.39,9.83,5,4,10.16,7.91,15.14,12,6,4.93,11.21,12.63,17,4.09-9.54-2.56-17.52-10.46-25.53-15.85-5.83-3.92-11.63-10.24-17.85-13-1.81,1.22-2.4,2.67-.2,3.78"/><path class="cls-1" d="M209,35.08c6.18,4.59,15.54,7.86,22.23,13,4.53,3.5,8.37,7.8,13.44,10.28,4.57-6-13.73-14-17.75-16.46-4.35-2.69-15.77-12.59-20.92-11.41-.06,1.33-.85,2.53-.89,3.78"/><path class="cls-1" d="M258.35,59.21c.75.73,1.84,2.28,2.91,2.08s2.33-.57,3.47.22c3.23,2.22.54,7.23-2.08,8.7a1.66,1.66,0,0,1-2.41-1c-.34-1-.06-2-.55-3s-.95-1-1.76-1.49a2.59,2.59,0,0,1-.73-3.23"/><path class="cls-1" d="M245.34,79.89a8.57,8.57,0,0,1,1.78,1.57,37,37,0,0,0,2.72,2.88c.93.72,1.57,0,2.61-.23a5.42,5.42,0,0,1,3.93,1.11,2.62,2.62,0,0,1,1.25,3.6c-.94,2.28-4.09,4.28-6.62,3.89-2-.32-2.53-2.26-2.52-4a3.23,3.23,0,0,0-1.47-3c-.55-.39-1.19-.62-1.74-1-1.23-.84-1.27-2-2.15-3.17"/><path class="cls-1" d="M101.4,86.15c-.44-1.15,3.1-2.57,4.68-2.34"/><path class="cls-1" d="M119.33,72.12a4.18,4.18,0,0,1,1.07-2.81c1.26-1.3,2.51-.88,4-1.87"/><path class="cls-1" d="M134.15,55.36c-.48-2.31,2.21-4.52,4.68-5.85"/></g></g></svg>