<svg xmlns="http://www.w3.org/2000/svg" viewBox="0 0 171.12 401.37"><defs><style>.cls-1{fill:#fff;}.cls-2{fill:#e30613;}.cls-3{fill:#007293;}.cls-4{fill:#1d1d1b;}</style></defs><g id="Ebene_2" data-name="Ebene 2"><g id="Ebene_1-2" data-name="Ebene 1"><path class="cls-1" d="M34.54,177.22c3.13,3.19.64,12.29,1.45,17.09,8.43,3.25,19.27,2.88,28.4,3.72,6,.54,12,0,18.21-.48,4.66-.38,11.17,1,15.33-.4-1.06-7.56,2-14.52,1.34-22.21-.47-5.54,1.41-3.75-4.23-5.39-4.82-1.39-9.57-2.72-14.69-2.72-14.39,0-34-4.53-43.87,9.08a10.59,10.59,0,0,0,2.81,0"/><path class="cls-2" d="M62.67,186.75c.11-6.91,1.18-13.69,1.85-20.55,0,0,0,0,0-.08a56,56,0,0,0-14.22,1.1.84.84,0,0,1,.21.56c-.31,7.6-1.29,15.13-1,22.74.07,2.13.2,4.26.32,6.38,4.5.41,9,.6,13.28.94C62.82,194.14,62.61,190.45,62.67,186.75Z"/><path class="cls-2" d="M93.5,169a53.68,53.68,0,0,0-10.84-2.09c-1.37,10.23-2.62,20.49-2.47,30.79l2.66-.2a67.51,67.51,0,0,1,7.8.19C90.58,188.05,92.45,178.56,93.5,169Z"/><path class="cls-2" d="M38.31,173.7l-3.53,3.44c3.15,3.18.4,12.37,1.21,17.17,1.12.43,2.52.7,3.71,1C39.28,188.9,38.66,180.13,38.31,173.7Z"/><path class="cls-3" d="M63.09,29.29A33.24,33.24,0,0,0,61.58,45a6.89,6.89,0,0,0,2,3.8A11.88,11.88,0,0,0,70,51.86a5.65,5.65,0,0,1,3.91,4.29,15.53,15.53,0,0,1,.4,6.25,56.65,56.65,0,0,1-1.7,7.45c-.56,1.79-.94,4.06-2.44,5.36.74-.32,1.43,2.26,2.25,2.29s2.71,1,3.63,1c1.62,0,2.81-3.66,4.48-3.83,0-3.66.18-7.5.2-11.28a28.18,28.18,0,0,1,.3-5.57,28.14,28.14,0,0,1,.83-2.89c.49-1.45.74-4.29,2.42-4.87,2.1-.71,4.35-.32,6.4-1.35,2.81-1.42,4.91-4.38,6.12-7.16.6-1.36,1.43-2.87,1.32-4.39-.1-1.33,2.61-2.92,2.67-4.24s-4.26-1.58-4.38-3c-.28-3.1.27-7.21-1.66-9.63a22.17,22.17,0,0,0-2.15-2.57,14,14,0,0,0-4.81-2.83,23.75,23.75,0,0,0-8.59-1.35c-2,.09-4.07.07-6.08.27-.66.07-1.29.2-1.93.31A48.14,48.14,0,0,0,63.09,29.29Z"/><path class="cls-1" d="M72.15,70.34c.45,1.17-12.32,1.49-13.78,0,.44,1.53,4.64,3.9,5.25,5.28.45-.23.4.76.91,1-.3,1.2.63,1.61.66,2.88,0,1.7,0,3.35.07,5.1,0,4.75.89,9.82.83,14.82a275.47,275.47,0,0,0,1.35,28.86c.49,5.35,1.37,10.68,2.27,16,.58,3.31.51,7.21,1.7,10.36,3-3.9,3.37-9.73,4.48-14.43.8-3.42,1.47-6.88,2.42-10.28a103.69,103.69,0,0,0,3-12.18c1.19-7.8,1.94-15.59,3.13-23.36.59-3.81,1.16-7.62,1.75-11.42a24.39,24.39,0,0,0,.43-7,4.78,4.78,0,0,0,3-1.08c-1.94-1.39-1.94-2.66-2.86-4.68a10.9,10.9,0,0,1-4.43,1.33,7.48,7.48,0,0,0-2.42.53c-.62.65-.19,1.92-1,2.7-1,1.06-4.3,2-5.69,1.14-.94-.61-1.44-3.66-1-4.6.22.14-.12-.81.06-.68"/><path class="cls-2" d="M101.44,80.24c3.07,12.22,6.67,24.31,8.24,36.8a3.45,3.45,0,0,0-.78-.05c-2.91.21-1.76,5-1.58,7.31.47,5.58,1.44,11.1,2.17,16.65a126.69,126.69,0,0,0,4.11,19.51,60.58,60.58,0,0,1,1.55,7.36c.28,1.7,1.26,3.31,1.41,4.9-7.22-.05-15,.15-22.42.74-10.26.82-20.37.65-30.51.59-6.32,0-16.47-1.8-22.15,1.54C39,177,38.1,178.34,35,179c-2.43.49-4.94.68-7.35,1.27-4.3,1-8.77,3-13.13,3.95-.12-3.6,1.09-7.87,1.72-11.46.82-4.6,1.2-9.18,2.27-13.77.95-4.05,1.2-8.63,2.34-12.55,1.28-4.4,3.1-8.42,4.2-12.87,1.73-7,5.28-13.76,7.5-20.61,1.23-3.83,2.6-7.68,4.06-11.38,1-2.59,2.4-7.93,1.58-7.4A81.19,81.19,0,0,1,40.9,81.47c1.42-5,.55-.45,3.25-5,.46.07,1.24-.84,1.53-1.1.91-.82,1.78-1.69,2.66-2.54s1.78-1.73,2.71-2.55a4,4,0,0,1,3.31-1.05c1.23.06,2.48.05,3.71.14a36.54,36.54,0,0,1,6.86.6c-.48.92-.3,2.16-.38,3.19a10.18,10.18,0,0,0-.15,3.06c.25,1.13.45,2.24.62,3.4.39,2.69.77,5.39,1.21,8.07.5,3.08,1.92,6,2.15,9.25.57,8.14.41,16.13,1.28,24.3.52,4.9.94,9.59,1.24,14.54.31,5.1.41,10.17.39,15.32,0,1.46-.61,4.39,0,5.7.73,1.69,2.57,1.53,4.33,1.7.58-6.15.43-12.36,1.12-18.47s1.71-11.86,2.2-18c.64-8.05.1-16.11-.18-24.15-.21-6.15,3.17-10.76,3-16.84a14.25,14.25,0,0,1,.24-4c.31-1.11,1.28-2.09,1-3.29-.15-.84-.81-1.29-1-2.06.48-.23,1.07-.25,1.57-.43s1-.45,1.46-.66a5.4,5.4,0,0,1,1.79-.74c.56,0,.67.5,1,.87a27.15,27.15,0,0,0,3.32,2.37c1.62,1.23,3.6,1.81,5.22,2.93A52.1,52.1,0,0,1,101.44,80.24Z"/><path class="cls-4" d="M83.29,29.77c.25.25-.05-.09-.09-.17a7.11,7.11,0,0,1,6.64-2.06c-.74.32-.51,1.1-.91,1.36s-1.6.16-2.2.28c-1.25.24-2.31,1.26-3.37,1.43"/><path class="cls-1" d="M89.5,32.27c-2.12,2.34-2.82,1.32-5.75,1.08,1.3-1.31,3.77-4,5.52-1.58a.71.71,0,0,1-.28.36"/><path class="cls-3" d="M86.32,31.28a6.92,6.92,0,0,0-.61.7,1.18,1.18,0,0,0-.13,1.16,1.25,1.25,0,0,0,1.8.54c.67-.36,1.43-1.28.92-2a1.66,1.66,0,0,0-2.1-.29"/><path class="cls-4" d="M87,32.86c-.44.31,1,1.3,1.37.38a.63.63,0,0,0-.47-.82c-.42-.16-.56.08-.92.14"/><path class="cls-2" d="M96.18,25.52c.17-.12.77.21,1.24.09a2.54,2.54,0,0,0,1.4-1.25,2.92,2.92,0,0,0-.14-3c1.53-.68.27-2.78-.48-3.56a5.74,5.74,0,0,0-3.15-1.67c-.92-.21-.7,0-1-.76a6.4,6.4,0,0,0-1.67-2.2,10.09,10.09,0,0,0-4-2.68c-.81-.26-.91-.15-1.32-.94a12.1,12.1,0,0,0-1.14-1.83,5.45,5.45,0,0,0-3.47-2.46c-.69-.11-1.61.24-2.23,0s-1.5-1.3-2-1.72C76.39,2.23,74.67,1,72.39.88a5,5,0,0,0-4.52,1.74C67.26,3.23,66,3.69,66,4.67c-1.15-1.2-3.45-.33-4.9,0a16.91,16.91,0,0,0-4.89,1.83c-3.75,2.16-5.3,6.34-5.1,10.45-2.42-1.17-5.57,2.1-6.33,4.1a10.28,10.28,0,0,0-.51,5.46,12.66,12.66,0,0,0,4.42,6.92,1.76,1.76,0,0,0,0-.54c-2.36.55-3.59,4.92-3.71,7a5.27,5.27,0,0,0,1.47,4c1.91,2.08,6.74,3,9,1,.67,2.62,5.38,5.76,7.48,3,1.7-2.2,1.65-6.49.88-8.91,2.18-.26,2.71-3.51,3.8-4.87,2-2.47,3.15-3.94,4-7a12.57,12.57,0,0,1,.66,2.23,28.48,28.48,0,0,1-.8,3.55c-.29,1.55-.59,2.09,1.18,2.1,1.58,0,2-.63,2.35-1.95a5.44,5.44,0,0,1,.54-1,14.33,14.33,0,0,0,1.23-3,5,5,0,0,1,2.1-3.12,12.45,12.45,0,0,1,1.79-1.16,2.66,2.66,0,0,1,.67-.23c.56-.09.35.06.84.17.85.21,1.76.46,2.61.62,1,.17,1.59-.56,2.57-.85a6.5,6.5,0,0,1,3.15-.36c1.24.22,1.37.63,1.8,1.66s1.46,3.91,3,3.37c1.38-.47,1.86-2.3,1.59-3.53"/><path class="cls-4" d="M63.21,65.87c.48-4.47,3.06-9,5.33-12.67,3.11-.36,2.93,5.14,6,5,1.52,0,2.09-1.52,3.91-.88a3,3,0,0,1,2.08,3.43c2.12-1.66,6-3.69,8.77-3.84-.28,2.32-.51,7.13-3.93,6.42.56.45,2.38,3.1,2.2,4.05a21.72,21.72,0,0,1-3.28,3.83c-2.76.53-3.32-5.36-4.49-6.81-3.24,4.87-5,2.82-7.44-1.1C71.46,65,65.41,66.12,63.21,65.87Z"/><path class="cls-2" d="M63.46,13.75c1.74.09,1.86-3.22,1.49-4.48-.73-2.56-3.18-5.15-5.9-5.18a3.71,3.71,0,0,0,.08.81C62.08,2.23,55.1.06,53.49,0c-1.83,0-4.75.17-6,1.77-.88,1.15-.47,2.3-.51,3.62-6.84-3.47-15.09,11.33-9.7,13.26.1-2.45-2.46.69-2.81,1.29a14,14,0,0,0-1.36,9.79,8.12,8.12,0,0,0,5,5.4c2,.55,3.08-.2,2.47-2.26a.44.44,0,0,0-.49,0c0,3.28,1.51,8.87,6,8.12,3-.49,3.39-4,4-6.12,1.36,6.2,8.42-2.34,7.57-6,1,3.45,4.54-.4,5.56-1.59,1.47-1.72,2.91-4.56,2.4-6.82,3.21,1.68.88-8.86-1.26-6.19"/><path class="cls-4" d="M65.27,4.11c-.15.22-3.88.58-4.89.95A25.62,25.62,0,0,0,54.2,8.63a16,16,0,0,0-6.06,10.29c-5.07-1.06,4.18-10,5.56-11,1.87-1.36,4.15-1.55,6.2-2C61.27,5.57,64.15,4,65,4.07"/><path class="cls-2" d="M89.06,12c.87,0,2.68.28,3.5-.57S93.3,9,92.05,8.83c.82,0,1.8-.14,1.44-1.33-.27-.9-1.64-1.08-2.41-1.2a8.23,8.23,0,0,0-2.67-.16c-.41.07-.58.31-1,.24s-.78-.45-1.1-.61a4.52,4.52,0,0,0-2.14-.58c-1,.09-1.06.78-1.24,1.63-.22,1.09-.49,2.12.28,3.06a5.58,5.58,0,0,0,2.12,1.23,1.7,1.7,0,0,0,1.39,2.29c1.1.29,1.9-.56,2.76-1.1"/><path class="cls-3" d="M40.24,376.74c.15-.33,6.17,4.95,7.74,6.33,5.74,5.07,9.29,15.51-1.38,17.15-3.21.49-7-.75-9.93-1.27-7.13-1.22-12.72.6-19.39,1.7-2.66.43-7.27,1.46-9.8-.16-3.93-2.51-.77-4.83,2.23-6.15,3.47-1.54,6.79-1.31,10.42-2,2.47-.46,18.43-5.27,12.09-9.3,1.46-1.64,7.63-6.07,5.69-8.06"/><path class="cls-3" d="M116.05,368.41c-2.14,2.27-4,5.75-5.64,8.44-1.87,3.13-2.68,6.45-4.2,9.55-3.39-1.39-7.42-2.09-10.75-3.72,1.82-3.34,2.55-7.53,3.81-11.09,1-2.77,1.7-7.88,3.89-9.9,2.88,3.4,9.32,2.89,12.79,6.25"/><path class="cls-3" d="M96.21,382.23c-3.56,1.82-4.5,11.23-2.28,14.48,4,5.76,8.87,1.64,13.41.38,5-1.38,9.53.91,14.25,2.36,4.52,1.38,9.2,2.32,14,.79,2-6.13-9.51-9.74-13.71-10.61-3.14-.65-5.9-.9-8.34-3.08-2.92-2.63-3-5.75-4.22-9.6-3.81.51-6.72,1.52-10.22,2.22"/><path class="cls-2" d="M31.71,371.42c.31.33.22,1.05.28,1.47a16,16,0,0,1,.22,3,35,35,0,0,0,0,5.7,14.43,14.43,0,0,0,.58,3.8,17.79,17.79,0,0,1,3.1-.29,41.49,41.49,0,0,1,6.69.19c1.7.16,3.44.28,5.15.27a21.91,21.91,0,0,0,2.29,0,3.83,3.83,0,0,0-.25-1.13,9.43,9.43,0,0,1-.27-1.5,13.16,13.16,0,0,1,.2-3.86c.39-2.16.76-4.3,1.11-6.46.1-.67.18-1.36.26-2,0-.42.19-.62-.24-.72a9.82,9.82,0,0,0-2.3,0c-4.93,0-9.85-.13-14.78,0-.66,0-1.45.27-2,.23"/><path class="cls-1" d="M36.83,369.93c.07,2.2.13,4.42.19,6.64,0,1.33.13,2.66.11,4,0,.84.25,1.65.3,2.49a5.25,5.25,0,0,0,.13,1.82c.25.46,1.08.48,1.52.52.7.05,1.36,0,2,.06a7.39,7.39,0,0,0,1.85.27c.66-.11.88-.77.91-1.38.09-1.73-.07-3.48.08-5.2.14-1.46,0-2.9.25-4.36.1-.79.18-1.6.29-2.4s.18-1.37.32-2c.22-1-.62-.82-1.35-.91-1.87-.2-3.64.54-5.51.38a3.76,3.76,0,0,0-1.25-.06"/><path class="cls-1" d="M98.07,366.91c.2.12,0,1,0,1.27,0,.76-.09,1.52-.17,2.27-.18,1.59-.43,3.15-.51,4.74,0,.9,0,1.81,0,2.71a11.35,11.35,0,0,0-.14,2,2.49,2.49,0,0,1,1.4.09c.54.13,1.08.2,1.62.31,1.59.32,3.16.87,4.72,1.3,1.36.36,2.69.82,4,1.23a12.6,12.6,0,0,0,1.51.3,8.38,8.38,0,0,0,1.46.24c.49-1.47,1.21-2.94,1.7-4.45.38-1.16.93-2.26,1.34-3.41.28-.79.48-1.61.77-2.41a30.65,30.65,0,0,0,1-3.27,20.48,20.48,0,0,1,.79-2.28c-.94.43-2.43-.09-3.37-.22-2-.27-3.86-.77-5.82-1.08s-3.85-.71-5.74-1.14a14.49,14.49,0,0,0-3.79-.4"/><path class="cls-2" d="M103,364.46a9.6,9.6,0,0,1,.08,2.1c0,.89-.06,1.76-.09,2.65,0,1.9-.11,3.81-.2,5.71-.09,2.19,0,4.4-.18,6.53a4.86,4.86,0,0,1,1.76.55c.85.31,1.67.42,2.52.67a18.57,18.57,0,0,0,2,.52,5.76,5.76,0,0,0,1.61.35,5.63,5.63,0,0,1,.53-1.87c.35-1.06.52-2.2.81-3.28s.65-2.3.88-3.49a22.24,22.24,0,0,1,.61-2.74c.47-1.47.67-3.14,1.26-4.55a13.57,13.57,0,0,0-2.37-.69c-1.42-.37-2.89-.56-4.33-.79a8.65,8.65,0,0,1-2.12-.64c-.46-.19-.94-.28-1.4-.45a5.56,5.56,0,0,0-1-.43.35.35,0,0,1,.1-.24"/><path class="cls-2" d="M99,364.81c-.4.19-1,0-1.48.15-.24.09-.18,0-.24.31l-.12.77c-.18,1.48-.28,3-.38,4.53-.07,1.23-.22,2.44-.28,3.67-.05,1-.22,2.05-.18,3.08,0,.56.07,1.09.07,1.65a1.92,1.92,0,0,0,0,.59c.11.33.21.22.51.25.14,0,.24.1.38.1,0-.44-.16-.9-.15-1.38s.11-1.12.16-1.67c.11-1.29,0-2.6.2-3.89.12-1,.34-1.9.53-2.85.15-.74.2-1.51.38-2.23a10.7,10.7,0,0,0,.41-1.5c.07-.39,0-1.15.11-1.39"/><path class="cls-4" d="M63,69.14c-.64.29.41.55-.27.6a21.47,21.47,0,0,0-.32,3.88c-.14,1.5,0,3.08,0,4.59,0,3.14,1,6.34,1.39,9.46.38,3.29.57,6.48.81,9.79.28,3.9.73,7.84,1,11.75.24,3.74.76,7.42,1.06,11.15.24,3,.74,5.92.71,8.91,0,2.32,0,4.79.11,7.12.24,4.24.14,8.53.82,12.7.54,3.33.69,6.76,1.53,10.09a30.39,30.39,0,0,0,1.11,3.34,3.49,3.49,0,0,0,1.42,1.86,7.39,7.39,0,0,0,4.59,1.69,15.57,15.57,0,0,0,.77-3.41,39.19,39.19,0,0,0,.3-4.48c0-3.42-.82-6.53-1.26-9.86-.47-3.57.39-7.35,1.21-10.87.58-2.53.83-5.14,1.45-7.63s1.21-5,2-7.42a11.41,11.41,0,0,0,.45-4c0-4.57-.14-9.37.65-13.84,1-5.72,3.19-11.23,4-17,.46-3.15.37-6.45.79-9.57a15,15,0,0,1,.56-3.33c.53-1.4,1.44-1.22,2.78-.88-1.47-1.84-2.84-4.43-5.38-3.3-1,.43-2.45.71-3,1.62-.75,1.26-1,3.27-1.31,4.68a37.81,37.81,0,0,0-1.15,8.92A51.37,51.37,0,0,1,78,98.46a109.63,109.63,0,0,0-3.31,27.35c0,4.57,0,9.14-.35,13.66-.29,3.64-.46,7.36-.47,11a45.43,45.43,0,0,0,.65,9.68c-.83-.43-1.25-2-1.54-2.86a11.71,11.71,0,0,1-.74-3.33c-.19-2.89-.48-5.75-.65-8.62-.32-5.28-.06-10.61-.5-15.9-.25-3,0-5.93-.39-8.85-.4-3.12-.89-6.33-1.12-9.38-.22-2.78-.21-5.53-.39-8.34-.2-3.07-.65-6.15-1.11-9.19-.72-4.85-1.7-9.76-2.52-14.65a42.12,42.12,0,0,1-.26-7c0-.47,0-1,0-1.44s.31-.89.15-1.29c-.35-.87-1.72-.24-2.44-.16"/><path class="cls-1" d="M83.07,40.26c-.22,0-.32-.07-.32-.29.88-1,2.87-1.5,3-3.18,4.81.46,8.87-8.42,13-5.49,2,1.39,2.37,3.37,1.81,5.66-.92,3.78-2.82,8.59-7.08,8.86-3.12.2-9.68-2.8-11.26-5.55a4.13,4.13,0,0,1,1.49-.11"/><path class="cls-1" d="M83.2,40.85c-.28-.27-1.51.13-2,.2a16.05,16.05,0,0,0-2,.65c-2,.56-3.87,1.32-5.84,1.74-1.42.3-3,.49-4.43.69a10.52,10.52,0,0,1-2.44.12c-.46,0-1.59-.54-1.89-.19a.43.43,0,0,0,.12,0c.35.35,1.66.37,2.13.41a16.58,16.58,0,0,0,2.44.06,29,29,0,0,0,5.23-.71c2.73-.6,5.9-1.43,8.15-3.19"/><path class="cls-1" d="M79.73,34.83c-1.59-.41-4.21-.17-5-1.9,1.74,1.28,3.92,1,6,1.47a18.37,18.37,0,0,1,5.75,3A37.09,37.09,0,0,0,79.73,34.83Z"/><path class="cls-1" d="M85.56,37.87a1.59,1.59,0,0,1,.84.81h.28c.11-.2.17-.4.11-.5"/><path class="cls-3" d="M91.27,42a15.83,15.83,0,0,0,6.94.88c-1.87-.69-4.86.2-6.33-.84a.47.47,0,0,1,.56.25"/><path class="cls-3" d="M92.74,39.38c2.35,0,4.89.37,7-.63a1.55,1.55,0,0,0,0-.8,57.13,57.13,0,0,1-5.5,1.72"/><path class="cls-3" d="M93.32,35.87c.92,1,6.38-1.21,6.09-2.84a13,13,0,0,1-5.5,3.13"/><path class="cls-3" d="M101.66,79.8c-.14,4.09,3.61,9.81,5.56,14,2.59,5.6,4.11,11.72,5.78,17.56,3.37,11.83,8.25,23,12.63,34.2,2.35,6,2.7,7.06-2.4,11.67A39.52,39.52,0,0,1,111.6,165c-8.72,3.45-22.43,8.31-29.72-.53,2-2,4.3-.74,6.63-.2-2.76-.9-4.42-3.73-4.87-6.07,1.73.93,3.45,2,5.23,3a22.21,22.21,0,0,1-1.77-3c6.05,1.05,8.7,4.6,15,1.79,4.6-2.06,9.89-5.53,12.82-9.69-3.91-2.65-2.08-10.89-2.51-15.15-.58-5.61-3.06-11-4.31-16-1.44-5.86-2.56-11.39-4-17.17-1-4-1-14.16-3.37-16.88"/><path class="cls-4" d="M.52,172.34c.61.81.1,1.71.81,1.45l.37.24c1.84-.16,2-1.59,3.27-2.56.79-.57,1.86-.51,2.78-.77.76-.23,60.42-11.09,61.23-11.36,3.47-1.14,6.92-1.67,10.38-2.67,1.06-.32,2.08-.55,3.13-.82A12.08,12.08,0,0,0,86,160.27c6.16,4.91,16.53.86,22.91-.89,2.63-.74,7.39-1.58,8.92-4.22s1.88-5.87-1.07-7c-3.5-1.35-9.34-.21-13.09.47-.76.14-1.51.31-2.26.47,0-.2-.06-.39-.09-.58-.1-.48,12.84-2.17,14.07-2.61,4.13-1.49,43.09-7.19,45.54-3.89,1.4,1.91,3.52,5.34,5.73,6.39a3.74,3.74,0,0,0,3.26-.16c1.53-.8,1.34-1.47.67-2.79-.93-1.8-2.14-3.57-2.91-5.47s-.41-4.06-.75-6.13c-.31-1.83-.64-3.61-.79-5.46a23.46,23.46,0,0,1,.08-4c.08-.92.61-2.38.05-3.17-1.6,1.58-2.55,4.39-4,6.25a13.5,13.5,0,0,1-5.81,4.63c-1.84.66-38.45,9.58-40.46,9.88a51,51,0,0,1-6.58,1,83.63,83.63,0,0,0-8.9,1,1.93,1.93,0,0,1,0-.25c.56-.27,1.84-1.24,1.91-2,.15-1.47-1.51-1.08-2.47-.81-1.13.33-2.22.94-2,2a3.4,3.4,0,0,0,.66,1.35c-.68.12-1.37.2-2,.32a10.56,10.56,0,0,1-.09-1.57c0-1.55.49-3-1.62-2.31-1.82.58-1.41,1.49-.82,2.79a8.28,8.28,0,0,1,.42,1.44l-2.76.46a5.68,5.68,0,0,0,.5-1.05,1.61,1.61,0,0,0-2.21-2c-1.58.67-.85,1.69-.58,2.72.06.23.06.49.1.73a31.07,31.07,0,0,0-5.61,2c-1.64.71-2.55,1.6-2.47,3.4a14,14,0,0,0,.36,2.65c-3.85.73-66.21,12-70.06,13.28-3.15,1.06-5.62,1.54-6.81,2-1.85.68-3-1.07-4.76-.73A7.37,7.37,0,0,0,.52,172.34Zm85.16-17.29c1.54-.34,3.08-.67,4.64-1,.13,1.25.33,2.46.52,3.68C88.22,157.68,85.38,157.13,85.68,155.05ZM93,157.69c-.24-1.33-.48-2.68-.67-4.06,1-.19,2-.4,3.07-.62.11,1.46.27,2.93.48,4.36-.49.06-1,.16-1.46.21S93.56,157.67,93,157.69Zm-1-7c1.06-.22,2.12-.47,3.18-.7l.06.68c-1,.28-2.06.55-3.15.82C92,151.17,92,150.92,92,150.65Zm8.27,1.25c.09,1,.13,3.52.86,4.72-1.2.22-2.47.36-3.7.53-.16-1.19-.08-3-.14-4.06,0-.17,0-.32,0-.49l3-.7Zm7.8-1.42c1.42,0,3.34-.57,4.68-.1,2,.69,1.43,1,.16,2.16a14,14,0,0,1-5.48,2.59c-1.63.47-3.29.83-5,1.17-.19-1.61-.43-3.19-.65-4.77.16,0,.32-.07.48-.12A25.74,25.74,0,0,1,108,150.48Zm-8.23-1.6c0,.18,0,.36.07.53-.93.22-1.87.46-2.79.72,0-.2,0-.41,0-.6.46-.11.93-.19,1.39-.31ZM90,151.13c0,.27,0,.55.08.81-.77.19-1.55.39-2.27.6-.26.05-.51.1-.77.17A6.75,6.75,0,0,1,90,151.13Z"/><path class="cls-3" d="M64.56,156.58c-1,.7-3.34,1.85-4.8,1.38-.59-.19-.78-.57-1.25-.91A6.45,6.45,0,0,0,57,156.3a9.37,9.37,0,0,0-2.45-.65c-.47,2.73-2.38,5.31-3.47,7.77a2.2,2.2,0,0,1,.76.16,9.54,9.54,0,0,1,2.33,1.86,14.14,14.14,0,0,0,2.94,1.91c2.16,1,4,.38,5.87-.24a11.33,11.33,0,0,0,5-3c.29-.3.71-.58.41-1a2.21,2.21,0,0,0-1.34-.51,3.64,3.64,0,0,0-1,.14,6.12,6.12,0,0,0,.83-.65c.42-.4,1.58-1.5,1.26-2-.74-1.28-3.63.9-4.74.42,1.73-.58,3.62-1.75,3.77-3.43,0-.57.49-2.18-.83-2.06C65.7,155.11,65.08,156.21,64.56,156.58Zm.39,7,.57-.38A1,1,0,0,1,65,163.62Z"/><path class="cls-4" d="M33.29,194c.65-.07,1,.22,1,.86-4.45,5.73-5.76,14.31-7.78,21.27-3.67,12.74-6.5,25.24-9.16,38.11-2.37,11.44-4.93,22.37-4,34.21.61,8.28,1.6,16.55,1.56,24.84-.08,16.14,7,30.8,10.78,46.61.49,2,1,5.65,2.38,7.15,2.4,2.61,5,1.48,8.8,1.79,5.82.48,12.08,1.26,18.31.74-2.43-22.54,2.67-47.4,4.58-70.19.89-10.64,1.61-21.2,3.51-31.59,1.12-6.12,1.31-19.1,6.76-23,2.26,14.26.13,30.12,1.75,44.78A223.73,223.73,0,0,0,81,333.88c2.63,8.15,5.84,15.75,9.22,23.57,2.16,5,1.57,8.32,7,10.72,8.39,3.7,22.74,1.18,31.71-.34,1.81-18.66-.29-37.33-2.81-55.82-.95-7,.39-13.09-.19-19.89-.67-8-3.38-15.73-4.57-23.64-1.35-8.93-2.58-17.22-4.64-26.16-3.1-13.46-5.92-33.52-15.76-44-8.79-9.41-22.6-2.51-33.39-2.51H50.86c-4.6,0-12.87-1.53-16.69.88"/><path class="cls-3" d="M44.28,76.44c-.54,1.57-5.08,1.67-7,3.33a34.65,34.65,0,0,0-8,10.15c-3.93,7.27-5.65,16.19-7.33,24.12-1.51,7.09-5.47,17.76-2.32,24.73,1.5,3.31,4.58,5.16,7.56,7,3.35,2.08,6.39,4.36,9.58,6.6,2.85,2,5.66,4,8.43,6.12,1.64,1.27,3.38,2.51,5,3.77s2,2.16,3.39,1c.57-.49,1.68-3.43,1.87-4.29.47-2.16-.6-3-2-4.85a67.17,67.17,0,0,0-8.65-9.51c-4.55-4.08-13.13-11.42-11.89-18.25.93-5.18,3.82-10.78,5.27-15.83a157.69,157.69,0,0,0,3.52-17c.34-1.93,5.81-17.54,2.53-17"/></g></g></svg>