<svg xmlns="http://www.w3.org/2000/svg" viewBox="0 0 356.87 323.93"><defs><style>.cls-1,.cls-6,.cls-7{fill:none;}.cls-1,.cls-5,.cls-7{stroke:#1d1d1b;}.cls-1{stroke-width:0.76px;}.cls-2{fill:#e30613;}.cls-3,.cls-5{fill:#fff;}.cls-4{fill:#1d1d1b;}.cls-5,.cls-7{stroke-miterlimit:10;}.cls-5{stroke-width:2.93px;}.cls-7{stroke-width:1.19px;}.cls-8{fill:#007293;}</style></defs><g id="Ebene_2" data-name="Ebene 2"><g id="Ebene_1-2" data-name="Ebene 1"><path class="cls-1" d="M42.66,284c4.17,9.2-7,13.11-12.86,6.71-3-3.22-1.67-8.91-8.14-7.28-3.64.92-7.64,8.67-5.79,12.33"/><path class="cls-2" d="M7.36,296.31c0,.11,0,.16-.11.15-1.12-.73-2.1-1.79-3.19-2.61-.92-.67-1.92-1.12-2.88-1.71A5.05,5.05,0,0,1,0,291.39c1.32-.55,3.06-.25,4.42,0,1.53.25,3.1.24,4.64.45a12,12,0,0,0,1.83.34,4.5,4.5,0,0,1,.36-1.07c.24-.8.49-1.64.65-2.47s.27-1.35.41-2a6.35,6.35,0,0,1,.27-1.34,30.07,30.07,0,0,0,1.63,3c.7,1.49,1.61,2.92,2.36,4.36.25.48.41.56,1,.59,1.14.06,2.3-.07,3.44-.05s2.4,0,3.6.07a5.35,5.35,0,0,0,1.74,0c-.92,1.2-2.88,1.52-4,2.5-.67.59-1.12,1.41-1.77,2a6.21,6.21,0,0,1-1,.63c-.42.26-.73.44-.59.94s.7.85.94,1.21a17,17,0,0,1,1.55,4.09c.57,1.68,1.14,3.35,1.83,5a30,30,0,0,0,1.23,3c-.73-1.93-2.85-3.37-4.09-5s-2-3-3-4.52c-.36-.54-.38-1-1-.68A20.06,20.06,0,0,0,14.73,304,47.17,47.17,0,0,1,10,307.78a43.84,43.84,0,0,0-4,2.92,6.61,6.61,0,0,0-1.63,1.47,6.21,6.21,0,0,0,2.25-2.43c1-1.54,2.13-3,3.19-4.48.7-1,1.39-1.93,2.16-2.85.24-.28.86-.81.58-1.22a20.38,20.38,0,0,1-4.93-.2,35.24,35.24,0,0,0-5.14-.2c-.33,0-1.36.21-1.61-.1a6.14,6.14,0,0,0,1.26-.62c.89-.45,1.82-.88,2.71-1.34.52-.27,3.11-2.07,3.47-1.66"/><path class="cls-2" d="M82.45,160.43l68,7.69-9.81,98.74L191.06,218s40.88,110.72,41.15,104.4-9.16-102.57-9.16-102.57L329,273.7l-76.88-90.93,104.78-33.39L245.35,137.19,304,54l-92.51,50L210.86,0l-46,94L88.31,37.48l48.44,85.1Z"/><path class="cls-3" d="M103.52,156.69,156,163.13,146,256.82,194.17,209s31.7,88.6,31.18,87-4.14-83.85-4.14-83.85l90.91,48.46-68.07-81.85,92.07-26.89L235.6,140.83l50-70.17-81.16,42.9L207.09,16l-38.56,84.17S97,48,97.85,48.54s49.8,73.54,49.8,73.54Z"/><polygon class="cls-2" points="113.29 154.24 159.35 160.31 150.42 247.06 196.21 203.3 221.55 278.07 219.48 207.68 299.59 250.06 238.87 175.88 317.94 153.72 230.45 142.83 273.78 80.03 201.62 117.65 202.53 37.91 173.29 106.99 112.19 63.26 154.94 123.76 113.29 154.24"/><path class="cls-4" d="M129.84,290c2.38-4.35,1.12-19.47-7.24-25.27-17-12.61-32.36-13.55-41.28-2.7l-1.87,2.29.2.54c-.07.15-.15.3-.21.45a9.59,9.59,0,0,1-.92,1.67,19.35,19.35,0,0,0-3.25,7.35,32.61,32.61,0,0,0-.11,13.84,60.88,60.88,0,0,0,2.32,8.58,22.27,22.27,0,0,0,5.43,8.1,25.77,25.77,0,0,0,10.6,6.29C99.42,312.94,113,309.71,116,307,116.81,306.21,129.08,291.37,129.84,290Zm-10.65.59a39.25,39.25,0,0,1-5.12,6.35c-2.28,1.28-9.92,7.37-18,4.42a18.12,18.12,0,0,1-5.92-3.61,11.86,11.86,0,0,1-3-4.37,51.23,51.23,0,0,1-1.83-6.89,22.56,22.56,0,0,1,0-9.68c.78-3.35,3.89-8,4.2-8.41,10.73-12.6,26,.15,29.34,6.84S120,286.61,119.19,290.55Z"/><path class="cls-5" d="M95.19,295.57c1.94,1.12,4,1.67,6,.71,1.63-.82,3.17-1.47,3.82-3.21s-.46-4.45-1.71-6.15c-2.35-3.2-7.6-5.15-10-2.11-1.26,1.6-2.33,3.16-2,5.36A13.07,13.07,0,0,0,95.19,295.57Z"/><path class="cls-4" d="M97.46,286.64a3.68,3.68,0,0,1,3.87,4.09,3.17,3.17,0,0,1-3.89,3c-2.41-.56-2.4-1.89-3.16-4C94.28,289.67,95.36,286.72,97.46,286.64Z"/><path class="cls-6" d="M99.56,283s0-.3.07-.59a20,20,0,0,1,.73-3c.78-2.57,1.85-5,2.54-7.64a54.57,54.57,0,0,1,2.74-8,1.41,1.41,0,0,0-.29.4"/><path class="cls-7" d="M101.72,285.11c.48.23,2-1,2.32-1.27,2.25-1.78,4.34-3.77,6.67-5.46,1.22-.89,2.44-1.7,3.62-2.66,1-.82,2-1.75,3-2.54A14.93,14.93,0,0,1,119,272l-.17.11"/><path class="cls-7" d="M99.5,282.73c0,.1.07.1.1,0a7.17,7.17,0,0,1,.56-3c1-3.22,2-6.44,3.16-9.58.6-1.64,1.23-3.25,1.72-4.92.08-.24.29-1.31.37-1.25"/><path class="cls-7" d="M96.16,282.94c.13-.24-.08-.48-.16-.73-.25-.69-.43-1.47-.61-2.17-.91-3.55-1.94-7.09-3-10.58-.46-1.51-.63-3.11-1.1-4.6-.1-.29-.29-1.14-.56-1.29A1.78,1.78,0,0,0,91,264"/><path class="cls-7" d="M94,283.68c0-.4-.84-.87-1.09-1.14-1.1-1.21-2.22-2.37-3.38-3.52-1.68-1.66-3.42-3.28-5-5-.65-.69-1.77-1.7-1.91-2.71.2-.05.19.07.28.19"/><path class="cls-7" d="M91.7,286.4c-.43-.28-.83-.58-1.24-.88-1.53-1.11-3.31-1.9-4.92-2.87-1.37-.82-2.68-1.72-4.07-2.52-.35-.21-1-.47-1.23-.84a.75.75,0,0,1,.36-.1"/><path class="cls-7" d="M90.81,289.46c-.54.3-1.92.72-2.66,1.08a14.44,14.44,0,0,1-4.28,1.1l.36-.08"/><path class="cls-7" d="M92.31,293.31A11.51,11.51,0,0,0,90.74,296c-.38.74-.7,1.53-1.06,2.28a4.94,4.94,0,0,0-.71,2,1.06,1.06,0,0,0,.46-.38"/><path class="cls-7" d="M95.31,295.12c-.2,1.16-.89,2.34-1.19,3.5a21.83,21.83,0,0,0-.82,4.14,3.21,3.21,0,0,0,.23,1.34c.21-.08.23-.28.25-.55"/><path class="cls-7" d="M97.3,297a1.49,1.49,0,0,1,.31,1c.14,1.12.25,2.24.4,3.35s.34,3.22,1.2,3.93c0-.09,0-.2,0-.3"/><path class="cls-7" d="M101,296.74c.61,1,1.17,2.09,1.75,3.14,1.06,1.9,1.77,4.42,3.28,6l-.06-.22"/><path class="cls-7" d="M104.58,293.35c.88,1.2,2.29,1.83,3.3,2.91,1.74,1.82,3.25,3.83,5.07,5.57a.49.49,0,0,0-.32-.34"/><path class="cls-7" d="M106,290.7a6,6,0,0,0,2,.86,23.28,23.28,0,0,0,4.12.89c1.63.16,3.25.35,4.87.56a12.62,12.62,0,0,1,3.22,1.09,8.91,8.91,0,0,0-1.55-.84"/><path class="cls-7" d="M103.28,286.85a5.74,5.74,0,0,0,2.56-.2,40.61,40.61,0,0,0,8.1-2.27,85.12,85.12,0,0,1,10.31-3.05c.1,0,.09,0,0,0"/><path class="cls-7" d="M101.61,283.43c0,.11,0,.11,0,0a1.73,1.73,0,0,0-.28-.1,131.26,131.26,0,0,1,8.25-11.5,59.51,59.51,0,0,0,3.92-5.5,6.53,6.53,0,0,0,1.1-2.07"/><path class="cls-7" d="M96.93,261.51A5.62,5.62,0,0,1,97,263.2c0,1.45-.09,2.91-.1,4.36a76.46,76.46,0,0,0,.68,9.69c.2,1.52.11,3.16.17,4.67,0,.39.21,1.48,0,1.8,0-.07,0-.14,0-.21"/><path class="cls-8" d="M30.5,284.3c.46.15.21-2.38.22-3.39a45.92,45.92,0,0,1,.8-7.11c1.15-6.86,4.87-13.33,8-19.52,3-6,6.07-11.95,9.51-17.74,2.43-4.12,5.09-8.13,7.73-12.11,4.8-7.24,11.08-12.94,17.16-19,7.13-7.18,16.12-12,23.56-18.81a50.09,50.09,0,0,1,12.18-7.81c6-3,11.72-6.33,18-9a98.79,98.79,0,0,1,18.17-5.64c3.61-.79,7.45-2.08,11.12-2.35.5,8.18,4.27,16.35,9.7,22.88,4.21,5,9.64,7,15.73,8.69,3.61,1,8.15,3.06,11.76,3.22,1,1.47-.1,4.05-.47,5.58a59.55,59.55,0,0,1-2.58,8.49c-4.62,11.38-13.42,20.8-21,30.23-5.28,6.53-10.18,13.24-16.69,18.61-6.1,5-12.56,9.31-18.79,14.1-4.42,3.41-10.37,5.68-15.21,8.5-6.63,3.86-13.79,6.38-20.87,9.2-5.06,2-10.48,3-15.55,4.91a69.59,69.59,0,0,1-9.35,3.2c-6,1.32-12.6,3.12-18.52,3.09A28,28,0,0,1,45.82,301c-3.69-1.32-5.72-5-8.36-7.81-1.42-1.5-3.14-2.69-4.31-4.47-.8-1.19-2.29-4.56-1.39-5.75a1.45,1.45,0,0,1,.34,1"/><path class="cls-3" d="M85.67,196.4c1.86-1.08,20.72-10.16,23.15-11.65-1,1.06-4.36,8.79-5.42,11.21-1.6,3.68-4.29,8.41-4.86,12.51,3.25-1.34,23-7.59,28.55-11.12-.47,1.69-5.48,13.72-7.17,18.15-1,2.61-3.86,11.3-3.71,13.07,1.3-.14,24.25-10.35,25.78-11.62-1.32,4.41-9.81,26.74-11.25,29.59,1.21.11,2-.87,2.94-1.5,2.48-1.68,17.7-9.76,21.59-13.23-3,5-8.56,22.81-9.88,27.28,6.39-1.84,12.25-6.95,16.11-7.75-4.74,6.94-24.79,20.88-30,24.26-6.9,4.52-13.7,8.86-21.53,11.3-6.09,1.9-12.7,4.88-19.44,5.28,20.47-15,32.68-16.66,33.66-23.71-1.54-.12-32.88,9.28-35.32,11.26,4.8-2.57,20-23.64,20-23.64S73.73,268.94,66.53,269.4c6.42-7.3,28.81-28.26,28.81-28.26s-30.95,16.43-37.57,18.11c2.06-1.22,20.09-37.16,20.09-37.16s-26.5,19.77-29.56,21c-.59-2,10.21-22.19,13-26.26,2.93-4.31,20.42-19.5,22.33-19.57"/><path class="cls-4" d="M154.71,159.76c-2.73,3.85,1.36,14.48,3.54,18.06,1.58,2.59,3.21,5.6,5,8s4.62,4,6.95,5.68c5.12,3.6,11.75,5.93,17.71,7.45,2.64.67,6.17,1.34,7.58-1.69.77-1.67-.77-7.85-3.6-6,.26,3.19.41,4.73-3.32,3.59-2.58-.8-4.22-2.57-6.8-3.56-2.31-.89-4.55-1.33-6.67-2.44a25.37,25.37,0,0,1-6.23-4.88,39.22,39.22,0,0,1-8.53-12.08c-.48-1.11-1.05-2.76-1.38-3.73s-1.5-3-1.6-4,.43-2.61,1.7-2.64c.94,0,2.2,2,2.94,2.55.82-2-1.75-5.73-3.85-6.09a3.2,3.2,0,0,0-3.4,1.75"/><path class="cls-6" d="M72.11,317.55c-2.08,0-5.49-3.32-7.14-4.46a28.59,28.59,0,0,1-7.68-7.67c-2.61-3.82-4.71-9.06-4.41-13.76.38-5.72,2.89-11.78,5.57-16.76,2.4-4.46,4.38-8.36,8.44-11.57,9.29-7.35,23.17-10.57,34.82-8.62a30.56,30.56,0,0,1,17.65,8.87c5.66,5.67,10.47,11.92,12.18,19.77,1.27,5.84,1.37,10.15-1,15.79-4.75,11.4-15.48,16.24-26.35,19.69-6.25,2-12.18,4.46-18.59,4.25-3.43-.11-13.14-1.37-14.6-5.19a9.46,9.46,0,0,0-2.63.48"/><path class="cls-4" d="M109.36,302.25c2.38-4.34,1.11-19.47-7.24-25.27-17-12.61-32.37-13.55-41.29-2.7L59,276.57l.19.54c-.06.15-.14.3-.21.45a9.24,9.24,0,0,1-.92,1.67,19.42,19.42,0,0,0-3.25,7.35,32.45,32.45,0,0,0-.1,13.84A60.85,60.85,0,0,0,57,309a22.2,22.2,0,0,0,5.44,8.1A25.67,25.67,0,0,0,73,323.39c5.91,1.84,19.53-1.39,22.46-4.11C96.32,318.51,108.6,303.66,109.36,302.25Zm-10.65.59a39.81,39.81,0,0,1-5.13,6.35c-2.28,1.28-9.92,7.37-18,4.42A18.22,18.22,0,0,1,69.61,310a12,12,0,0,1-3-4.37,53,53,0,0,1-1.83-6.88,22.92,22.92,0,0,1,0-9.69c.78-3.35,3.89-7.95,4.2-8.41,10.73-12.59,26,.16,29.35,6.84S99.51,298.9,98.71,302.84Z"/><path class="cls-5" d="M74.7,307.86c1.94,1.12,4,1.68,6,.71,1.63-.82,3.17-1.47,3.83-3.21s-.47-4.45-1.72-6.15c-2.34-3.2-7.59-5.15-10-2.11-1.26,1.6-2.33,3.16-2,5.36A13,13,0,0,0,74.7,307.86Z"/><path class="cls-4" d="M77,298.93A3.69,3.69,0,0,1,80.85,303,3.17,3.17,0,0,1,77,306c-2.42-.56-2.41-1.89-3.16-4C73.8,302,74.87,299,77,298.93Z"/><path class="cls-6" d="M79.07,295.27c.05,0,0-.31.08-.6a18.79,18.79,0,0,1,.72-3c.79-2.57,1.85-5,2.54-7.64a54.57,54.57,0,0,1,2.74-8,2.27,2.27,0,0,0-.29.4"/><path class="cls-7" d="M81.24,297.4c.48.23,2-1,2.31-1.27,2.26-1.78,4.35-3.76,6.68-5.46,1.22-.89,2.44-1.7,3.61-2.65s2-1.76,3-2.55a15,15,0,0,1,1.62-1.2l-.17.11"/><path class="cls-7" d="M79,295c0,.1.06.1.1,0a7.32,7.32,0,0,1,.55-3c1-3.22,2-6.43,3.16-9.58.61-1.63,1.24-3.25,1.73-4.92.07-.24.28-1.3.37-1.25"/><path class="cls-7" d="M75.67,295.23c.13-.24-.07-.48-.16-.73-.24-.69-.43-1.47-.61-2.17-.9-3.55-1.94-7.09-3-10.58-.46-1.51-.62-3.11-1.1-4.6-.09-.29-.29-1.15-.56-1.28a2.46,2.46,0,0,0,.23.42"/><path class="cls-7" d="M73.49,296c0-.4-.85-.87-1.1-1.14-1.09-1.21-2.21-2.37-3.38-3.52-1.67-1.66-3.41-3.27-5-5-.66-.69-1.78-1.7-1.92-2.71.21-.05.19.07.29.2"/><path class="cls-7" d="M71.21,298.69c-.43-.28-.82-.58-1.24-.88-1.53-1.11-3.3-1.89-4.91-2.87-1.38-.82-2.69-1.72-4.07-2.53-.35-.2-1.05-.46-1.24-.83a.78.78,0,0,1,.36-.1"/><path class="cls-7" d="M70.32,301.75c-.54.29-1.92.72-2.67,1.08a14.3,14.3,0,0,1-4.27,1.1l.36-.08"/><path class="cls-7" d="M71.82,305.6a11.48,11.48,0,0,0-1.56,2.64c-.39.74-.71,1.53-1.07,2.28a4.92,4.92,0,0,0-.7,2,1,1,0,0,0,.45-.38"/><path class="cls-7" d="M74.83,307.42c-.2,1.15-.9,2.33-1.19,3.49a21.07,21.07,0,0,0-.82,4.14,2.92,2.92,0,0,0,.23,1.34c.2-.08.23-.29.24-.55"/><path class="cls-7" d="M76.81,309.33a1.41,1.41,0,0,1,.31.95c.15,1.12.25,2.24.4,3.36s.34,3.22,1.2,3.93l0-.31"/><path class="cls-7" d="M80.53,309c.61,1,1.17,2.1,1.75,3.14,1.06,1.9,1.78,4.42,3.28,6L85.5,318"/><path class="cls-7" d="M84.09,305.64c.88,1.2,2.29,1.83,3.31,2.91,1.73,1.82,3.25,3.83,5.06,5.57a.47.47,0,0,0-.32-.34"/><path class="cls-7" d="M85.46,303a6,6,0,0,0,2,.86,24.34,24.34,0,0,0,4.13.9c1.63.15,3.24.34,4.87.56a12.27,12.27,0,0,1,3.21,1.08,9.2,9.2,0,0,0-1.54-.84"/><path class="cls-7" d="M82.79,299.14a5.79,5.79,0,0,0,2.57-.2,39.89,39.89,0,0,0,8.09-2.28,86.51,86.51,0,0,1,10.32-3c.09,0,.08,0,0,0"/><path class="cls-7" d="M81.13,295.73c0,.1,0,.1,0,0s-.16-.08-.28-.1a129.31,129.31,0,0,1,8.26-11.5A58.73,58.73,0,0,0,93,278.64a6.48,6.48,0,0,0,1.1-2.08"/><path class="cls-7" d="M76.44,273.8a6,6,0,0,1,.12,1.69c0,1.45-.1,2.91-.1,4.36a72.93,72.93,0,0,0,.68,9.69c.2,1.52.11,3.16.16,4.67,0,.39.21,1.48,0,1.8a1.55,1.55,0,0,0,0-.21"/><path class="cls-3" d="M174.87,156.55c.95.12-.85-2-1.29-2.41a5,5,0,0,0-3.29-1.1c-3.11.18-4,2.83-6.2,4.57-3.45,2.81-7.7,5.62-6.4,10.69.67,2.63,2.17,4.92,3.32,7.23a18.43,18.43,0,0,0,5,6.78c3.58,2.91,6.86,5.87,11.06,8.07,2.82,1.48,5.61,1.86,8.62,2.87a27.07,27.07,0,0,0,3.74,1.35c1.2.21,3.15.37,3.64-.8s-.4-3.38-.69-4.71a23.15,23.15,0,0,1-.44-4.83c0-3,2.71-6.11.47-9-.65.15-1.09-.22-1.7-.06-.39.11-.9.75-1.25.92-1.52.75-2.53.18-3.64-.78-2.63-2.28-2.58-5.75-3.6-8.92a63.62,63.62,0,0,0-3.7-9.26c-.72-1.44-1-2.07-2.33-2.74-1-.5-2.44-1.39-3.49-1.24"/><path class="cls-4" d="M187.46,191.66c1.08.59,3.3-1.75,4.73-2.07,2.54-.57,3.66.8,4.72,3.11,1,2.11-1.43,10.17-4.42,9.7a25.89,25.89,0,0,1-.77-3.21c0,3.18-2.91,4.8-3.46.76,0,1.44-1.23,3.2-2.91,3a9.41,9.41,0,0,1-.69-4.57c.13-.68.5-1.08.66-1.7s.05-1.4.2-2c.69-2.83,4-3.94,6.78-4.59"/><path class="cls-2" d="M168,158.1a9.23,9.23,0,0,0,2.57,4.47,1.58,1.58,0,0,1,.32.36s-3.49,2.51-3.62,2.66a13.87,13.87,0,0,1-2.39-4.94C164.81,160.54,168,158.1,168,158.1Z"/><path class="cls-3" d="M197.82,159.33c-1.53,1.71-2.9,3.58-4.34,5.35-1.9,2.34-4.41,4.14-6.34,6.44-1.43,1.72-2.08,3.45-3.27,5.24-1.84,2.76-5.05,4.88-4.85,8.55,0,.9-.19,4.55.66,5.1,1.08.71,3.34-1.45,4.15-2a61.78,61.78,0,0,0,8.94-7.76,80.34,80.34,0,0,1,11.31-9.62c4.56-3.42,8.59-6.92,13.39-10,4.43-2.79,23.21-15.12,28-18.49a105,105,0,0,0,9.33-7.66c1.69-1.53,3.65-3,5.26-4.57a20.19,20.19,0,0,0,1.31-1.88c.61-.75,1.86-1.39,2.25-2.14.81-1.58-.64-3.49-1-4.85-.4-1.53.09-3.63-.79-5-2.1-3.19-5.95.1-8.51,1.21C249.07,119.15,205.05,151.26,197.82,159.33Z"/><path class="cls-4" d="M260.77,123.61c.82.07,3.52-2,6.11-3.09,1.2-.53,2.43-1.39,3.87-1.22s2.15,1.59,3.39,1.2a14.71,14.71,0,0,1,.36-2.38c.7.71,1.47.44,2.35,0a6.82,6.82,0,0,0-.14-4.29,3.44,3.44,0,0,0,4,.52c.63-2.88-2.6-1.4.09-3.27C282.68,109.8,304,95.93,306,94.78c-.24-.78-19.23,10-19.23,10l-8.7,4.09s-3-3.08-6.45-1.13a11.3,11.3,0,0,0-4.29,4.36c-.92,1.65-.91,1.66-2.84,2.57a18.24,18.24,0,0,0-3.88,2.31,5.17,5.17,0,0,1-.84-.5,19.19,19.19,0,0,0-.44,4.5A5.26,5.26,0,0,0,260.77,123.61Z"/><path class="cls-8" d="M295.09,102.63a70,70,0,0,0,7.44-5.14c4.47-3.65,8-6.74,8-6.79,2.33-1.74-6.28-7.13-8.34-9.14a24.13,24.13,0,0,0-11.69-6.49c-4.23-1.13-8-1.51-12-3.36-4.85-2.25-8.84-5.29-13.06-8.64-3-2.39-5.42-5.82-8.39-8.5-1.46-1.33-2.46-3.17-3.81-4.62s-3.07-4.19-4.71-4.92a7.29,7.29,0,0,1-.72-.65c-.87,3.83,2.25,7.72,3.46,11.39A22.83,22.83,0,0,1,251.88,68c-3.55-1.64-7.32-2-11.38-2.85a43.36,43.36,0,0,1-6-1.36c-1.59-.57-4-3.68-5.26-3.51.48,2.83,2.32,5.93,3.2,8.81,1.09,3.57,1.79,7.77,3.74,11,4.48,7.4,12.71,10.55,20.47,12.76,3.26.92,7.29,1.2,10.47,1.82a50,50,0,0,1,9,2.2c4.48,1.71,9.05,5.89,12.55,9.33C289.17,105.79,293.6,103.49,295.09,102.63Z"/><path class="cls-3" d="M259.49,67.4a2.91,2.91,0,0,1,3.33.63,15.87,15.87,0,0,1,2.26,2.79,2.65,2.65,0,0,1-.36,3.45,12.91,12.91,0,0,1-7,4c-1.24.3-2.44.44-3.64.67-1.59.31-4.51.58-5.91,1.16a7,7,0,0,0,2.63,1.76c.8.3,5.06,1.11,5.92,1.51a13.58,13.58,0,0,0,2.36,1.1,19.42,19.42,0,0,0-1.5,1.27,5.2,5.2,0,0,1-1.44,1.33c-1.77-2.28-4.25-2.32-6.67-3.14a15.52,15.52,0,0,1-3.69-1.49c-.58-.38-2.36-1.9-2.24-2.56.82-.1,2-1.71,2.63-2.32.25-.26.63-.82,1-.89s6,0,8.07-.88c1.42-.58,6.26-1.67,6.67-3.33.3-1.27-.82-2.5-2.69-1.9a11.37,11.37,0,0,0-3.35,2c-.39-.71-1.09-1-1.56-1.62A8.93,8.93,0,0,1,256.84,69,9.84,9.84,0,0,1,259.49,67.4Z"/><path class="cls-3" d="M261.46,85.64c.38-.57.79-1.12,1.17-1.68a20.83,20.83,0,0,1,3.44-3.82c1.26-1.07,2.33-2.42,3.64-3.44a7.62,7.62,0,0,1,3.75-1.77c3.75-.15,4.25,3.57,3.14,6.35-1.27,3.19-3.75,5.53-6.36,7.66a9.06,9.06,0,0,1-6.95,2,2.94,2.94,0,0,1-2-1.45c-.41-.56-1.08-2.51-.29-2.93A4.76,4.76,0,0,1,261.46,85.64Zm3.67-1a2,2,0,0,0,1.07,3.08c1.19.29,2.32-.71,3.16-1.43a13.8,13.8,0,0,0,2.84-2.87c.56-.88,1.56-2.28,1.45-3.33-.18-1.7-2.48-1.36-3.17-.84A71.88,71.88,0,0,0,265.13,84.64Z"/><path class="cls-3" d="M282,80.13a8,8,0,0,1-.15,1c-.07.32-.38.78-.29,1.09.56,0,1.2-.06,1.81-.07a12.16,12.16,0,0,1,1.81,0c0,.34-.73.83-1,1.07A24.29,24.29,0,0,1,282,85c-1.35,1-2.35,2.32-3.59,3.44-1,.93-1.9,1.93-2.85,2.89-.47.48-1,.92-1.5,1.39a12.05,12.05,0,0,0-1,.89c.65.13,1.27,0,1.91.08a13.75,13.75,0,0,0,1.45.49c0-.41.68-.7,1-1A12.38,12.38,0,0,1,278.75,92c1.65-1.24,2.75-2.83,4.37-4.11s3.23-3,4.87-4.45c.62-.56,1.1-1.16,1.67-1.75.21-.21.42-.4.63-.6a4.58,4.58,0,0,1,.65-.6,6,6,0,0,1-1.06-.19l-1.19-.46a6.3,6.3,0,0,0-.95-.4c-.43-.09-.35.11-.74.2s-.86,0-1.25.07-.89.14-1.3.18-2,0-2.26.37"/><path class="cls-3" d="M291.74,88.78c0,.06,0,.07.05,0,.16-.52.15-1,.34-1.54a4.61,4.61,0,0,1,.85-1.35,3.39,3.39,0,0,1,3.07-1.39,4.12,4.12,0,0,1,1.59.58A4,4,0,0,1,299,86.3c.73,1.22,1.28,2.67.2,3.86a9.51,9.51,0,0,1-1.41,1.2,4.41,4.41,0,0,1-1.34.57,10.54,10.54,0,0,1-1.23.21,3.58,3.58,0,0,1-1.14.21c-.19.53-.56,1-.75,1.57-.28.75-.65,1.44-.9,2.2-.55,1.68-1.12,3.82-3,4.53a4.21,4.21,0,0,1-2.17-.06,7.71,7.71,0,0,1-3.18-1.53,6,6,0,0,1-1.34-2.6,3.49,3.49,0,0,1-.2-1.16,6.72,6.72,0,0,1,0-1.1,3.41,3.41,0,0,1,1.67-2.36,7.41,7.41,0,0,1,2.29-.93c.64-.14,1.31-.2,2-.28.44-.06.86,0,1.32-.1s.91,0,1.19-.2.29-.67.45-1a5.64,5.64,0,0,0,.46-.92m1.69.93c0,.26.06.51,0,.74.16-.11.42,0,.6-.07s.37-.16.55-.22a13.46,13.46,0,0,0,1.33-.51c.4-.16,1.22-.36,1.34-.79a1.33,1.33,0,0,0-.25-1.28,2,2,0,0,0-2.71.1,2.72,2.72,0,0,0-.74,1.17c-.09.37-.09.74-.18,1.12a.13.13,0,0,1-.12,0m-3.84,3.35a6.18,6.18,0,0,0-2.11.46,4,4,0,0,0-1.84,1.2c-.77,1.11.21,2.87,1.35,3.27a2.39,2.39,0,0,0,1.54.17c.48-.2.73-1,1-1.43a6.38,6.38,0,0,0,.71-2c0-.26.07-.48.12-.74a4.52,4.52,0,0,0,.2-.72,1.21,1.21,0,0,1,0-.19c-.21-.1-.41.09-.6.08s-.47-.11-.73-.13"/><path class="cls-2" d="M256.68,117.46c0,.54-.25.72-.41,1.17a5.91,5.91,0,0,0-.32,1.57,4.24,4.24,0,0,0,.36,2.8c.54,1,3,4.59,4,2.67-3.34-1.49-2.07-4.62-2.22-7.55-.52-.23-1,.13-1.49.1"/><path class="cls-3" d="M207.57,150.68c.78,2.89-1,9.25-2.37,12.27a23.9,23.9,0,0,1-7,9c-2.95,2.4-6.36,4.66-10.14,2.6s-5-6.33-5.81-10c-2.47-10.76,2.82-19.08,11.19-25.74,4.24-3.37,9.83-4.17,12.32,1.94a30.87,30.87,0,0,1,2,6.12c.3,2.32-.9,4.9.56,6.89"/><path class="cls-4" d="M209.13,146.17c0-1.92.05-3.7-.13-5.66-.38-4-4.57-6.82-8.4-7.55s-7.94-2-11.81-2.47c-4.13-.53-7.68,2.83-10.31,5.64-3.14,3.34-4.39,8.07-6.18,12.24-2,4.65,1.95,7.36,5.29,9.93a7.93,7.93,0,0,0,2.21,1.54c1.33.31,2.25-1.2,2.84-2.11,1.52-2.41,2.54-5.08,4-7.43,1.08-1.72,2.24-4.05,4.21-4.77a11.78,11.78,0,0,1,5.89-.32,33.23,33.23,0,0,1,4.83,1.91,29.92,29.92,0,0,1,4,2c1.38.82,2.18,1.39,2.53,3a10.3,10.3,0,0,1,.43,2.24c0,.74-.27,1.41-.22,2.08,1.54-.17,1.38-3.75,1.29-4.81S209.15,147.58,209.13,146.17Z"/><path class="cls-4" d="M196.58,158.54a3.25,3.25,0,0,1-.16,1.39,2.13,2.13,0,0,1-2.29,1.75,17.25,17.25,0,0,1-3.08-.16,3.36,3.36,0,0,1-1.82-2.15c-.67-2.17-1-5.12,1.94-5.35,2.55-.21,4.73,3.31,4.58,3.15A4.72,4.72,0,0,1,196.58,158.54Z"/><path class="cls-4" d="M204.7,157.79c2.8-.54,3,2.24,3.26,4.21.18,1.36-.21,1.77-1.65,1.92a9.11,9.11,0,0,1-3,.09c-1.42-.4-4.43-3.48-2.44-4.87A23.27,23.27,0,0,1,204.7,157.79Z"/><path class="cls-4" d="M195.74,159.5a16.87,16.87,0,0,0,5.1,2c1.06-1.12-2.22-1.77-3-2.22s-2-1.59-3-1.59c-.3.48,0,1,.08,1.52"/><path class="cls-4" d="M174.5,152.5c1.4,6.36,2.77,12,5.43,17.43,1,2.1,3.86,4.54,3.85,7,0,3.48-4.83,3.85-7.74,3.32-.14,2.68,4.75,4.12,6.84,3.12,2.6-1.24,2.65-5.54,4.7-6.59.64-.33,3.61,0,4.66-.17,1.27-.24,3.21-.36,4.27-1.09.63-.44,1.37-2,1.9-2.62.83-.91,2.12-1.52,3-2.82-1.36-.16-3.33,1.24-4.82,1.68-1.86.55-3.35,1.44-5,1.9-4.55,1.24-5.57-2.85-6.84-6.3-2.35-6.32-1.09-20.37-11.36-16.82.46,5.23,2.83,9.23,5.92,13.35"/><path class="cls-2" d="M192.44,168.47c.28.13.65,0,.94-.1s.72-.35,1-.31a1.49,1.49,0,0,0,.68.72.92.92,0,0,0,.6.17c.2,0,.42-.27.6-.25s.55.68.83.88a8.57,8.57,0,0,0,.95.43,2.78,2.78,0,0,1-1.59.08c-.53-.08-1.08.06-1.59,0a2.93,2.93,0,0,1-1.22-.43,3.8,3.8,0,0,1-.95-1"/></g></g></svg>