<svg xmlns="http://www.w3.org/2000/svg" xmlns:xlink="http://www.w3.org/1999/xlink" viewBox="0 0 365.84 328.9"><defs><style>.cls-1{fill:none;}.cls-2{fill:#e30613;}.cls-3{fill:#fff;}.cls-4{fill:#007293;}.cls-5{fill:#1d1d1b;}.cls-6{fill:#e63027;}.cls-7{fill:url(#Neues_Musterfeld_4);}</style><pattern id="Neues_Musterfeld_4" data-name="Neues Musterfeld 4" width="30.31" height="30.31" patternTransform="translate(-1317.56 1325.37) rotate(124.65) scale(2.07)" patternUnits="userSpaceOnUse" viewBox="0 0 30.31 30.31"><rect class="cls-1" width="30.31" height="30.31"/><rect class="cls-2" width="30.34" height="30.34"/><path class="cls-3" d="M1.7,10.76A1.7,1.7,0,0,1,0,12.46a1.7,1.7,0,0,1-1.7-1.7A1.7,1.7,0,0,1,0,9.07,1.7,1.7,0,0,1,1.7,10.76Z"/><path class="cls-3" d="M9,10.76a1.7,1.7,0,1,1-1.7-1.69A1.7,1.7,0,0,1,9,10.76Z"/><path class="cls-3" d="M16.68,10.76A1.7,1.7,0,1,1,15,9.07,1.7,1.7,0,0,1,16.68,10.76Z"/><path class="cls-3" d="M24.33,10.76a1.7,1.7,0,1,1-1.7-1.69A1.7,1.7,0,0,1,24.33,10.76Z"/><path class="cls-3" d="M32,10.76a1.7,1.7,0,1,1-1.7-1.69A1.7,1.7,0,0,1,32,10.76Z"/><path class="cls-3" d="M5.49,15.75a1.7,1.7,0,1,1-1.7-1.7A1.7,1.7,0,0,1,5.49,15.75Z"/><path class="cls-3" d="M12.82,15.75a1.7,1.7,0,1,1-1.7-1.7A1.7,1.7,0,0,1,12.82,15.75Z"/><path class="cls-3" d="M20.47,15.75a1.7,1.7,0,1,1-1.7-1.7A1.7,1.7,0,0,1,20.47,15.75Z"/><path class="cls-3" d="M28.13,15.75a1.7,1.7,0,1,1-1.7-1.7A1.7,1.7,0,0,1,28.13,15.75Z"/><path class="cls-3" d="M35.78,15.75a1.7,1.7,0,1,1-1.7-1.7A1.7,1.7,0,0,1,35.78,15.75Z"/><path class="cls-3" d="M1.73,20.28A1.7,1.7,0,0,1,0,22a1.7,1.7,0,0,1,0-3.4A1.7,1.7,0,0,1,1.73,20.28Z"/><path class="cls-3" d="M9.05,20.28a1.7,1.7,0,1,1-1.7-1.7A1.7,1.7,0,0,1,9.05,20.28Z"/><path class="cls-3" d="M16.71,20.28a1.7,1.7,0,1,1-1.7-1.7A1.7,1.7,0,0,1,16.71,20.28Z"/><path class="cls-3" d="M24.36,20.28a1.7,1.7,0,1,1-1.69-1.7A1.7,1.7,0,0,1,24.36,20.28Z"/><path class="cls-3" d="M32,20.28a1.7,1.7,0,1,1-1.7-1.7A1.7,1.7,0,0,1,32,20.28Z"/><path class="cls-3" d="M5.53,25.26a1.7,1.7,0,1,1-1.7-1.69A1.7,1.7,0,0,1,5.53,25.26Z"/><path class="cls-3" d="M12.85,25.26a1.7,1.7,0,1,1-1.7-1.69A1.7,1.7,0,0,1,12.85,25.26Z"/><path class="cls-3" d="M20.5,25.26a1.7,1.7,0,1,1-1.7-1.69A1.7,1.7,0,0,1,20.5,25.26Z"/><path class="cls-3" d="M28.16,25.26a1.7,1.7,0,1,1-1.7-1.69A1.7,1.7,0,0,1,28.16,25.26Z"/><path class="cls-3" d="M35.81,25.26a1.7,1.7,0,1,1-1.69-1.69A1.7,1.7,0,0,1,35.81,25.26Z"/><path class="cls-3" d="M1.73,30.29A1.7,1.7,0,0,1,0,32a1.7,1.7,0,0,1-1.7-1.7A1.7,1.7,0,0,1,0,28.59,1.7,1.7,0,0,1,1.73,30.29Z"/><path class="cls-3" d="M9.05,30.29a1.7,1.7,0,1,1-1.7-1.7A1.7,1.7,0,0,1,9.05,30.29Z"/><path class="cls-3" d="M16.71,30.29a1.7,1.7,0,1,1-1.7-1.7A1.7,1.7,0,0,1,16.71,30.29Z"/><path class="cls-3" d="M24.36,30.29a1.7,1.7,0,1,1-1.69-1.7A1.7,1.7,0,0,1,24.36,30.29Z"/><path class="cls-3" d="M32,30.29a1.7,1.7,0,1,1-1.7-1.7A1.7,1.7,0,0,1,32,30.29Z"/><path class="cls-3" d="M1.73,0A1.7,1.7,0,0,1,0,1.66,1.7,1.7,0,0,1-1.67,0,1.7,1.7,0,0,1,0-1.74,1.7,1.7,0,0,1,1.73,0Z"/><path class="cls-3" d="M9.05,0a1.7,1.7,0,0,1-1.7,1.7A1.7,1.7,0,0,1,5.66,0a1.7,1.7,0,0,1,1.69-1.7A1.7,1.7,0,0,1,9.05,0Z"/><path class="cls-3" d="M16.71,0A1.7,1.7,0,0,1,15,1.66,1.7,1.7,0,0,1,13.31,0,1.7,1.7,0,0,1,15-1.74,1.7,1.7,0,0,1,16.71,0Z"/><path class="cls-3" d="M24.36,0a1.7,1.7,0,0,1-1.69,1.7A1.7,1.7,0,0,1,21,0a1.7,1.7,0,0,1,1.7-1.7A1.7,1.7,0,0,1,24.36,0Z"/><path class="cls-3" d="M32,0a1.7,1.7,0,0,1-1.7,1.7A1.7,1.7,0,0,1,28.62,0a1.7,1.7,0,0,1,1.7-1.7A1.7,1.7,0,0,1,32,0Z"/><path class="cls-3" d="M5.53,5.94a1.7,1.7,0,1,1-1.7-1.69A1.7,1.7,0,0,1,5.53,5.94Z"/><path class="cls-3" d="M12.85,5.94a1.7,1.7,0,1,1-1.7-1.69A1.7,1.7,0,0,1,12.85,5.94Z"/><path class="cls-3" d="M20.5,5.94a1.7,1.7,0,1,1-1.7-1.69A1.7,1.7,0,0,1,20.5,5.94Z"/><path class="cls-3" d="M28.16,5.94a1.7,1.7,0,1,1-1.7-1.69A1.7,1.7,0,0,1,28.16,5.94Z"/><path class="cls-3" d="M35.81,5.94a1.7,1.7,0,1,1-1.69-1.69A1.7,1.7,0,0,1,35.81,5.94Z"/></pattern></defs><g id="Ebene_2" data-name="Ebene 2"><g id="Ebene_1-2" data-name="Ebene 1"><path class="cls-4" d="M19.79,89.92a20.69,20.69,0,0,0-.21,2.75c0,1-.12,2.08,0,3.13.19,3,0,5.88.26,8.87s.95,6.23,1.42,9.33a36.44,36.44,0,0,0,3,8.86c.42,1,1,1.83,1.42,2.83.63,1.73.81,3.6,1.43,5.35a56.86,56.86,0,0,0,3.15,6.65c.58,1.14.81,1.87,2.06,1.26a33.07,33.07,0,0,0,4.68-3.32c1.05-.74,1.91-1.59,3-2.23a26.55,26.55,0,0,0,3.75-2.78c2.18-1.87,4.23-3.84,6.38-5.77a76.79,76.79,0,0,0,9.21-10.19c1.45-1.87,3-3.67,4.46-5.52A81.65,81.65,0,0,0,69,101.76a114.66,114.66,0,0,0,6.56-10.63,23.25,23.25,0,0,1,1.8-3.29,3,3,0,0,0,.8-2.19,74.87,74.87,0,0,0-.85-7.92c-.09-.54,0-1.12-.5-1.22a2.8,2.8,0,0,0-1.05.31,6.17,6.17,0,0,1-2.29.65,23.66,23.66,0,0,1-4.68-.84,19,19,0,0,0-1.92-.79,1.85,1.85,0,0,0-1.88.69,16.83,16.83,0,0,0-2.51,3.58c-.7,1.2-1.5,2.33-2.16,3.56-1.42,2.67-2.57,5.49-4.07,8.11a38.61,38.61,0,0,0-2.58,6.3c-.8,2.23-2,2.9-3.61,4.68-5.06,5.71-9.7,11-14.19,17.09.71-.95-2.55-10.3-2.87-11.58-.7-2.76-2.06-5.26-2.47-8.1-.17-1.16-.42-2.27-.63-3.41s-.25-2.22-.41-3.31-.5-2-.61-3.11c-.18-1.81-.43-3.6-.68-5.4a7,7,0,0,1,0-1.89,10.47,10.47,0,0,0-.4-2.41,7.74,7.74,0,0,0-1.23-3.79,5.33,5.33,0,0,0-3.68-2,9.52,9.52,0,0,0-2.33.15,5.55,5.55,0,0,1-1.86.17A5,5,0,0,1,17,74.43,12.53,12.53,0,0,0,15,73.17a10,10,0,0,0-1.85-.54c-.68-.12-1.24,0-1.25.78,0,.58.46,1.09.73,1.57.37.65.14,1-.66.9-.62-.09-3.84-.24-4.52-.24a12.15,12.15,0,0,1-2-.06c-.53-.1-1.26-.08-1.67-.48s-.93-3-1.63-2.39c-.33.28.27,1.68-.42,1.58-.41-.06-.51-1-1-1C-.43,73.1.13,75.9.17,76.51a4.23,4.23,0,0,0,1.59,3.11A12.7,12.7,0,0,0,3,80.43a4.49,4.49,0,0,0,1.76.4c1.37.18,2.79.23,4.16.36,1.55.14,3.11.29,4.6.57a7.31,7.31,0,0,1,2,.5c.62.31,3.54,1,3.81,1.65a4.86,4.86,0,0,1,.48,1.59c.05.68.19,1.26.29,1.91A9,9,0,0,1,19.79,89.92Z"/><path class="cls-4" d="M79.56,66.25a7.52,7.52,0,0,0-.17-1,8.48,8.48,0,0,0-.86-2.75,21.09,21.09,0,0,0-2.42-3.21,23,23,0,0,1-2-3.48,23.35,23.35,0,0,1-1.38-2.68,26.36,26.36,0,0,1-.81-2.89,17.57,17.57,0,0,1-.69-2.82,17.15,17.15,0,0,1,.4-5.1c.23-1,.54-2,.83-3a21,21,0,0,1,.93-2.81,10.6,10.6,0,0,1,3.85-4.73c3.47-2.37,8-1.32,11.76-.68a16,16,0,0,1,7,2.44c1.42,1,2.77,2.11,3.1,3.91.25,1.35-.25,2.66-.37,4a11.61,11.61,0,0,1-.56,3.47c-.12.29-.19.59-.31.87s-.23.42-.11.8c.32,1,1,2,1.29,3a12.76,12.76,0,0,1,.86,2.76,4,4,0,0,1,0,1.19c-.06.15-.33.32-.41.51a5.7,5.7,0,0,0-.38,1.58c-.13.73-.23,1.46-.34,2.18a26.21,26.21,0,0,1-.7,3.72,3.12,3.12,0,0,1-2.32,2.19,33.51,33.51,0,0,1-3.32,1,2.47,2.47,0,0,0-2.14,1.41,3.88,3.88,0,0,0-.23,1.67,4.49,4.49,0,0,0,.06,1.1A7.32,7.32,0,0,0,91.32,71"/><path class="cls-4" d="M199.27,138.08c-1.94.88-3.93,1.66-5.83,2.41-4.3,1.72-8.59,3.44-13,4.91a18.94,18.94,0,0,1-3.57,1.14c-1.51.15-2.49-.55-3.81-1.14-.78-.36-2.29-1.14-2.37-2.13-.05-.69,1.15-2,1.72-2.36,1.24-.76,2.82-.72,4.2-1,1-.25,2-.75,3-1.08,2-.67,4.3-.91,6-2.2,2.48-1.83,4.92-3.61,7.45-5.35,3.2-2.21,6.39-4.47,9.57-6.71a9.7,9.7,0,0,0,2.66-2.34,31.89,31.89,0,0,1,4.78-5.08c2.45-2.26,4.7-4.83,7.09-7.21,1.42-1.42,2.6-3.06,3.89-4.59s2.69-2.43,4-3.8c1.64-1.75,3.17-3.61,4.78-5.37.77-.84,1.61-1.63,2.33-2.5a17,17,0,0,1,1.74-1.95,18.42,18.42,0,0,1,2.14-1.61c.81-.54,1.62-1.11,2.48-1.59a7.18,7.18,0,0,1,2.91-1.2,2.17,2.17,0,0,1,2,1.09,2.58,2.58,0,0,1,.32,2.12c-.34,2.15-1.76,3.75-2.43,5.74a14.14,14.14,0,0,1-3.46,5c-2.43,2.43-5.14,4.47-7.4,7.05a72,72,0,0,1-5.08,5.58,146.61,146.61,0,0,0-11.67,12.36c-.9,1.06-1.55,2.27-2.45,3.29s-2.25,1.9-3.28,2.95A29.12,29.12,0,0,1,199.27,138.08Z"/><path class="cls-4" d="M79,63.66c2.21,4.1-.89,10.8-4.06,13.55-1.51,1.31-3.16,2.18-4.58,3.48a32.73,32.73,0,0,0,4,4.42c1.48,1.61,3,3.42,4.59,4.89,2.34,2.14,5.59,5.17,9.06,4.68,4.53-.65,7.13-4.15,9-7.92a35.65,35.65,0,0,0,1.76-5.32c.66-2.15-.36-4.19,1.21-5.92.56-.62,2-2,.68-2.49a10.15,10.15,0,0,0-1.46-.12c-.67-.1-1.32-.2-2-.36-1.63-.37-3.52-.48-5-1.38-1.09-.65-2.72-2.47-2-3.79"/><path class="cls-4" d="M119.49,126.43a79.5,79.5,0,0,1-8-10.77c-1.25-2.1-2.17-4.4-3.34-6.53-2-3.55-4.46-6.82-6.2-10.51-1.42-3.05-2-6.37-3.58-9.38-.72-1.33-1.66-1.67-2.77-2.62-.31-.26-.2-.27-.16-.73a15.59,15.59,0,0,1,.18-2.28c.29-1.27.54-2.58.82-3.86s.41-6.44,1.4-7c.55-.3,1.8.38,2.36.48,1.32.24,2.68.06,4,.59a8.77,8.77,0,0,1,4.4,4.18c2.65,4.91,4.68,10.32,7.17,15.37,2.33,4.74,4.75,9.37,7.1,14.07,1.92,3.83,3.71,8.51,6.61,11.72,2.3,2.56,7.56,2.87,10.75,3.94a88.87,88.87,0,0,1,12.06,5.55,45.88,45.88,0,0,0,9,4.14c1.34.45,2.53,1.2,3.86,1.64,2.19.72,4.45,2.14,6.67,2.6,2.41.5,5.19-.28,7.39,1.09,1.42.88,8.35,6.12,7,8.08-2.2-.8-4.12-2.27-6.27-3.05-.09,1,1.78,2.63,2.12,3.76s.48,3.1-.39,4.17c-1.17-.19-1.94-2-2.52-2.86-.77-1.16-1.42-2.5-2.13-3.59,0,1.24-.23,8.6-3,7,0-1.93.57-5.1-.47-6.84-.68,1.16-1,2.85-2.36,3.48-2.76,1.29-1.61-3.77-1.75-5-.24-2-1.39-2.26-3.16-2.41a122.09,122.09,0,0,1-14.61-2.1c-3.32-.69-9.32-2.9-12.62-3.68a57.47,57.47,0,0,1-8.41-2.38,30.7,30.7,0,0,1-3.07-1.38c-1.7-1-2.89-1.76-4.94-1.65C121,129.83,120.47,127.57,119.49,126.43Z"/><path class="cls-5" d="M84.69,47.2A13.34,13.34,0,0,0,86,46.39c.61-.31,1.14-.67,1.75-.93a4.49,4.49,0,0,0,2.46-1.79,1,1,0,0,1,.13,1.21,1.18,1.18,0,0,0,.43-.37,1.19,1.19,0,0,1-.6,1.41c-.56.14-1.33.06-1.9.16a3.12,3.12,0,0,0-1.58.7,6.2,6.2,0,0,0-1.42,1,1.07,1.07,0,0,1-.23-.55"/><path class="cls-3" d="M90.49,47.3a1.36,1.36,0,0,1,0,1.59c-.72-.86-2.54.08-3.49-.26a5,5,0,0,1,3.44-1s0,.09,0,.13"/><path class="cls-5" d="M89.81,47.57a1.36,1.36,0,0,1,0,1c-.16.29-.4.49-.67.17a.71.71,0,0,1,0-.77c.17-.42.54-.44,1-.25"/><path class="cls-4" d="M125.13,264.45c-.14-10.19-.51-20.44-1.3-30.64-2.55.39-5.11.76-7.65,1.17-3.07.49-6.26,1.23-9.46,1.81a2.81,2.81,0,0,1,.08.31c.31,1.43,1.21,2.66,1.39,4.09.28,2.14-.26,23.81-.08,28.52.28,7.7,2.52,15.8,3.8,23.35.81,4.74,1.79,9.51,2.4,14.29.85,6.61-2.06,12.78-1.54,19.38,4.18,2.29,15.68,2.55,16-4.2.15-3.56-1.81-7.65-2.51-10.93C123.08,296.76,125.32,279.63,125.13,264.45Z"/><path class="cls-4" d="M69.55,241.15q.8-4.16,1.73-8.28c-3-.45-5.89-.85-8.85-1.12-3.24-.3-7.12-.2-10.58-1a448.53,448.53,0,0,0-.3,48.37c.16,4.06.38,8.12.61,12.18.12,2,.23,4.05.35,6.08a25.37,25.37,0,0,1,.16,2.6,21.21,21.21,0,0,1-.54,2.61c-.17,1.11-.46,2.2-.7,3.27a14.81,14.81,0,0,1-3.53,6.65c-2.18,2.38-5.08,3.76-8,5.21-2.09,1.05-4.07,2.28-6,3.49-1.1.69-2.83,1-3.75,1.93-.33.33-.37.58-.79.83a3.39,3.39,0,0,1-1.59.23c-.74,0-2.46-.27-2.51.8s1.33,2.06,2.14,2.41c2.31,1,5.09,1,7.54,1.19a27.7,27.7,0,0,0,8-.08c3-.65,5.91-1.08,8.9-1.57a25.4,25.4,0,0,1,5.26-.71,45.77,45.77,0,0,1,5.09.69c1.32.22,2.67.44,4,.53s2.54.08,2.68-1.51c.24-2.71-1.12-5.53-1.71-8.13s-1-5-1.5-7.52c-.36-1.88-1.21-4.26-.66-6.13a47.77,47.77,0,0,0,1.2-6.86c1.07-7.59,3.14-15.85,3.14-23.57,0-4.71-1.38-26.34-1.18-28.49C68.38,243.85,69.27,242.59,69.55,241.15Z"/><path class="cls-4" d="M253.43,83.55c-1.22.51-8.8,1.94-8.87.69,0-.62-.25-8.76-.28-9.38a17.31,17.31,0,0,1-.16-1.73c0-1.35-.46-1.81-1.69-1.06a17.17,17.17,0,0,1-2.92,1.66,3.73,3.73,0,0,1-3.43-.15,7.68,7.68,0,0,1-2-2.22,24.18,24.18,0,0,0-1.5-2.63,6.59,6.59,0,0,1-1.08-1.81c-.51-1.52-.64-3.2-1-4.79s-1.14-3-1.11-4.74a17.59,17.59,0,0,1,.95-5.15,11.61,11.61,0,0,1,2.36-3.58,45.22,45.22,0,0,1,3.6-4,30.86,30.86,0,0,1,4.16-2.84c1.66-1.08,4.17-2.29,6.16-2.27a10.18,10.18,0,0,1,6,1.81A36.65,36.65,0,0,1,257.89,46c3.11,3,3.83,6.82,3.18,10.9a17,17,0,0,1-2.21,5.43c-.95,1.78-1.5,3.75-2.65,5.41a26,26,0,0,0-2.48,3.89,4.23,4.23,0,0,0-.43,2.46c.11.68,3.36,3.84,3.67,4.49a18.93,18.93,0,0,1-1.17,1.66h0S254,83.29,253.43,83.55Z"/><path class="cls-3" d="M241.14,85.69a5.15,5.15,0,0,1-.8.82c-.76.62-1.76,1-2.53,1.54s-1.44,1.19-2.16,1.75-.56.33-.42,1c.09.49.29.92.42,1.4A32.12,32.12,0,0,1,236.1,96c.32,2.55.16,5.12.45,7.67.77-1.1,1.85-1.31,3-1.75.54-.19,1.92-1.4,2.45-1.08s.25,2.74.16,3.32c-.32,2.11-1.43,3.78-1.75,6s-.05,4.44-.42,6.62a68.41,68.41,0,0,0-1,11.77c0,5-.41,9.88-.87,14.7s-1.87,9.32-1.5,14.13c3.52.51,8.37-2,11.68-3.22,4.94-1.89,9.78-3.36,14.7-5.41,2.52-1,2.27-.43,2.45-3.54a42.15,42.15,0,0,0,0-5.39c-.33-4.67-1.44-9.55-1.86-14.18-.81-8.81-1.61-18-1.58-27,0-2.27-.59-4.53-.71-6.8a8.38,8.38,0,0,1,.27-3.27c.5-1.37,1.35-1.55,2.71-1.65a5.39,5.39,0,0,1,1.27,0c.28,0,.54.22.83.14a36,36,0,0,1,.54-4.61,18.9,18.9,0,0,1,.47-2.21,11.41,11.41,0,0,1,.62-1.69c.1-.26.33-.57.19-.83s-1.22-.55-1.55-.72a15,15,0,0,1-1.46-.85c-.83-.54-1.65-1.06-2.46-1.61a3.35,3.35,0,0,0-1.59-.78,5.89,5.89,0,0,0-1.88.25c-.62.15-1.19.56-1.86.66-.49.08-.54,0-.77.44a8.94,8.94,0,0,0-.49,1.16,11.21,11.21,0,0,1-3.3,4.93,7.1,7.1,0,0,1-2.75,1.75,7.41,7.41,0,0,1-1.49,0c-.68,0-1.36.09-2,.09a15.64,15.64,0,0,1-2.52-.31C242.25,82.36,242.12,84.47,241.14,85.69Z"/><path class="cls-2" d="M235.91,67.21c.83-.71,2.2-.1,2.73-.16-.13,1.23-1.95,1.43-2.87,1.41a2.84,2.84,0,0,1-2.63-1.76,7.76,7.76,0,0,0,1.51-.17c.64,0,.63.66,1.26.68"/><path class="cls-5" d="M171.77,319.75a17.22,17.22,0,0,1,0-2.48,15.73,15.73,0,0,1,.09-2.27,42.81,42.81,0,0,1,2.71-9.84c.57-1.59.87-3.24,1.5-4.79s1.23-3.13,1.92-4.67a44.52,44.52,0,0,0,2.51-7.29,28.63,28.63,0,0,1,.94-3.21,5.79,5.79,0,0,1,.45-1.13c.13-.2,1.79-3.53,2.28-4.15,1.14-1.46,2.32-2.93,3.55-4.33a10.57,10.57,0,0,0,1.64-2.24,4,4,0,0,0,.27-.66,18.25,18.25,0,0,0,1.43,2.55,26.18,26.18,0,0,0,2.66,3.45,10.06,10.06,0,0,0,3.19,2.49c-.24.34-.45.71-.7,1.05a12,12,0,0,1-1.72,1.84c-1.5,1.47-2.31,3.29-3.7,4.87a11.76,11.76,0,0,0-2.1,2.56c-.74,1.5.51,1.88,1.6,2.73a2.61,2.61,0,0,1,.81,3.84,39.29,39.29,0,0,1-2.35,4.16c-.41.62-2.88,2.5-3.51,2.43-1.62-.13-2.14,1.32-2.84,2.41-.79,1.31-1.4,2.46-2.11,3.8a59.53,59.53,0,0,1-5.54,8.49C174,320.32,172.1,321.71,171.77,319.75Z"/><path class="cls-5" d="M295.68,322a11.89,11.89,0,0,1-1.5-.46c-.88-.37-1.68-.94-2.53-1.37-1.83-.92-3.74-1.74-5.66-2.54-1-.42-1.85-1-2.83-1.43a27,27,0,0,1-3-1.56c-.7-.45-.81-1-1.16-1.61-.65-1.12-1.36-2.23-1.93-3.36a15.85,15.85,0,0,1-1.35-6.07,24.78,24.78,0,0,1,.17-5.31,15.41,15.41,0,0,0,.32-3.47,45.43,45.43,0,0,0-4.93-1.17c-1-.19-2.07-.34-3.06-.55-.47-.1-1.6-.46-1.89-.26s-.49,1.12-.52,1.49a7.19,7.19,0,0,0,.08,2.17,43.62,43.62,0,0,1,.93,7.33,55.79,55.79,0,0,1-.19,6.21,29.38,29.38,0,0,1-1.05,5.28c-.21.71-.44,1.4-.67,2.1a10.17,10.17,0,0,0-.63,1.91,2.89,2.89,0,0,0,1.65,2.83,6.23,6.23,0,0,0,3.61.79c1,0,2,.15,3.05.23a33,33,0,0,0,4.43.24c2.35-.14,2.72-.37,4.08,0,1.63.36,3,.76,4.53,1.22a21.12,21.12,0,0,0,2.86.5,14.45,14.45,0,0,0,1.84.23c.92,0,1.79-.15,2.69-.19s2,0,3-.13c1.35-.18,3.09-.08,4.28-.62.58-.28,1.08-.69.23-1-.61-.22-1.25-.5-1.85-.65-.76-.21-1.51-.39-2.3-.6Z"/><path class="cls-5" d="M240.65,56.34c.7.14,1,1.08,1.53,1.62s1,1.67-.28,1.54a2.39,2.39,0,0,0-1-1.8A25.72,25.72,0,0,0,238.52,56a3.35,3.35,0,0,1,2.13.3"/><path class="cls-5" d="M229.85,58.73c.49-1,1.16-1.41,3.33-2.82.12.17-.14,1.1-.17,1.31a3.07,3.07,0,0,0-1.91.93c-.31.3-.52.48-.83.83s0,.61-.32.88c-.25-.65-.15-.42-.1-1.13"/><path class="cls-3" d="M241.52,59.88c-.13-.09-.24-.24-.37-.33s-.14-.38-.33-.49a3.21,3.21,0,0,0-1.2-.4c-.44-.07-1.84.25-1.7,1,.05.34.48.17.71.12a2.6,2.6,0,0,1,1-.23,11.22,11.22,0,0,1,1.12.36c.34.09.22.13.55.24.22-.14.16-.21.15-.34"/><path class="cls-3" d="M233.05,59.84c0-.29-.42-.44-.65-.45a2,2,0,0,0-1.12.28,2.36,2.36,0,0,0-.78.55,1.44,1.44,0,0,0-.19.31c-.07.11-.24.22-.24.33a3.18,3.18,0,0,1,1.85-.51c.3,0,.62.06.92.07s.14-.39.09-.63"/><path class="cls-4" d="M240,59.64a1.42,1.42,0,0,1,.08-.18,1.07,1.07,0,0,1,.14-.16.42.42,0,0,0,0-.36c-.13-.26-.43-.25-.67-.28s-.22,0-.36,0a.45.45,0,0,0-.29.13c-.21.19-.1.6,0,.83,0,0,0,0,0,0s.17-.06.25-.07a2.8,2.8,0,0,1,.29,0,1.41,1.41,0,0,1,.25,0,1,1,0,0,0,.22,0"/><path class="cls-5" d="M239.53,59.23a1.27,1.27,0,0,1,.58,0,.23.23,0,0,1,.15.28c0,.18-.29.25-.54.16s-.29-.27-.19-.41.62-.24.64-.08"/><path class="cls-4" d="M232.24,60.21c0-.06,0-.13,0-.2a1.14,1.14,0,0,1,.1-.19.35.35,0,0,0,0-.36c-.17-.2-.46-.07-.7,0s-.23.07-.37.09a.55.55,0,0,0-.25.25c-.18.23,0,.59.12.78,0,0,0,0,0,0s.16-.14.24-.16a.77.77,0,0,1,.29-.1.71.71,0,0,1,.26-.06l.23,0"/><path class="cls-5" d="M231.87,59.94c0-.08.22-.12.32-.11a.22.22,0,0,1,.21.22c0,.17-.24.32-.52.35s-.35-.16-.28-.32.58-.46.63-.3"/><path class="cls-4" d="M224,222.27c-.11.29-2.54,0-2.84,0a5.79,5.79,0,0,1-2.24-.57,5.75,5.75,0,0,0-4.55-.16,14.27,14.27,0,0,0-2.79,1.08c-.55.3-1.14.7-1.12,1.33,0,.9-.15,1.84-.18,2.76-.11,3.58-.22,6.27-1.89,9.64-3.53,7.13-7.82,13.79-11.26,20.83-1.61,3.34-3.36,6.28-4.68,9.61s-3.65,5.54-2,9.11a16,16,0,0,0,3.43,4.17c1.69,1.68,2,2.45,3.66.68,2.2-2.31,3.52-7.14,4.93-10,3.66-7.45,6.35-14.93,10-22.43,3.95-8,7.81-16.54,11.13-24.88C223.72,223,223.84,222.65,224,222.27Z"/><path class="cls-5" d="M229.86,61.2c-1.08.79-5.58-7.8-2.32-7.8-2.6-1-3.41-2.75-2.76-5.42s1.6-3.12,4.24-2.39c-1.55-1.61-1.44-3.33-.38-5.29,1.7-3.15,5.26-3.24,8.29-2.38-1.16-1.82-.9-3.33.39-5.07,1-1.44,3.49-3.66,5.13-1.58.18-1.13-.39-7.27,2.08-6.38-.39-1-2.11-1.45-2.71-2.68a6.76,6.76,0,0,1-.6-3.83c.28-1.75.9-4,2.93-4.17,1.13-.12,4,.82,4.38,1.78-2.93-2.34,3-4.61,4.81-4.41,2.15.22,6.14,3.46,5,5.9a.33.33,0,0,1-.38-.1c.05-1.43,2.59-1.92,3.7-2,2.59-.1,3.95,1.45,5.16,3.55s2.57,4.78,1.8,7.21c-.4,1.28-1.33,1.67-2.17,2.49.79-1.25,2.66-.23,3.33.69a5,5,0,0,1,0,5.18c-1.57,2.89-4.33,4.61-7.44,3.86,1.22.16,1.27,1.17,1.13,2.17-.26,1.9-1.52,2.34-3.32,2.44a6.11,6.11,0,0,1-5.58-2.77c1.21,1.9,4.27,1.88,5.91,3.39,1.38,1.29,1.92,5,.2,6.28,2.08.46,3.34,1.57,3.33,4,0,1.77-1.19,2.1-2.18,3.15,2.65.23.14,7.36-3.19,6.47-.17.48-.75.82-.86,1.24-.18.6.25,1.4-.06,2.23s-1.23,2.37-2.35,2.39c-.69,0-1.25-.27-.63-1.15.11.27.06.3,0,.68-2.39.12-2.43-5.23-.61-4.59-2.33-.2-1.29-6.63,1.19-5.66-3.52-.9-5.88-3-4.65-6.81-.9,1.67-5.19.42-5.08-1.54-.14,1.91-3.14,3-4.74,2.16.06-.19,0-.46.1-.65-.78-.3-1.64.64-2.3.39-1-.41-.67-1.68-.35-2.52-.72,1.17-1.08,2-2.43,2.48s-1,.08-1.72,1.11c-.53.77-.27,1-1.12,1.52-.54.34-1.21.24-1.75.67-.83.68-.48.43-.71,1.36-.38,1.51-.46,3.25-1,4.7.33.29.28,0,.48-.09"/><path class="cls-3" d="M241.52,64.24a26.32,26.32,0,0,0,2.18-1.57c.9-.62,1.76-1.15,2.72-2,1.36-1.13,3.7-4.12,4.82-4.69a10,10,0,0,1-2.41,2.75c-.91.85-1.82,1.8-2.74,2.66-.74.71-4.46,3.24-4.73,3.85"/><path class="cls-3" d="M241.94,67.68c.58-.09,2.07-1.46,2.82-2a14.87,14.87,0,0,0,3-3,40.64,40.64,0,0,0,2.58-3.55c.48-.69,1.24-2.46,2-2.68,0,.33-.52.78-.74,1.06l-.68,1a21,21,0,0,1-1.68,2c-.62.67-1.18,1.4-1.78,2.08a19.31,19.31,0,0,1-1.79,1.94c-1,.91-2.12,1.78-3.24,2.6"/><line class="cls-3" x1="239.42" y1="69.21" x2="239.48" y2="69.22"/><path class="cls-3" d="M234.9,62.45c.89-.53,1.61,0,2.31.52A10.12,10.12,0,0,0,240,64.05a7.93,7.93,0,0,1,1.46.43c.46.22.46.83.61,1.31a7.91,7.91,0,0,1,.33,3.41A7.55,7.55,0,0,1,241,72.26a6.22,6.22,0,0,1-2.88,2.13,4.94,4.94,0,0,1-3.33-.34,5.2,5.2,0,0,1-2-2.09,23.31,23.31,0,0,1-1.48-2.74,12.54,12.54,0,0,1-.54-1.24,2.86,2.86,0,0,1,.16-1.57,5.32,5.32,0,0,1,.76-1.43,4.55,4.55,0,0,1,1.66-1.36C234,63.31,234.34,62.79,234.9,62.45Z"/><path class="cls-5" d="M233,60.12c.06.2-.56,1.63.1,1.28.45-.23-.24-1.06-.06-1.45"/><path class="cls-3" d="M231.59,65.2c-.24,0-.7-.88-.8-1.14-.14-.41-.12-.92-.27-1.28a3.57,3.57,0,0,0,.88,2.94"/><path class="cls-6" d="M130.33,243.67c-.31-.25-1.39-.49-1.56-.77-.79-1.26,0-.41.31-1.45.57-2.11,2-2.43-.22-4.32-1.33-1.15-2.41-.43-2.52-2.67-.09-1.61.66-2.47,0-4s-2.57-2.2-3.12-3.91c-.88-2.78-.91-7.44-1.42-10.51-.44-2.68-.44-5.14-.66-7.85-.39-4.95-1.41-10.06-1.82-15C118.44,182,117.89,171,116,160c-2-11.24-5.62-22-8.54-32.92-1.69-6.35-2.78-13.55-3.85-20.17-.36-2.23-1.14-4.72-1.34-7.15-.79-9.4.38-18.92-.42-28.35-1.32-.15-2.37.52-3.76.39.41,6.36-4.86,17.45-11.74,18.89a9,9,0,0,1-4.18-.15,14.65,14.65,0,0,1-1.67-.63,3.56,3.56,0,0,1-.41-.17,4.78,4.78,0,0,1-.84-.57c-.24-.19-.51-.36-.77-.53s-.4-.26-.59-.4-.42-.37-.64-.54A8.26,8.26,0,0,1,75.58,86c-.43-.59-1-1.13-1.33-1.76A10.24,10.24,0,0,1,72.9,81c-.12-.61-.39-1.19-.52-1.8-.06-.3-.14-.6-.18-.91s-.08-.4-.11-.6a1.35,1.35,0,0,0-.06-.41.44.44,0,0,0-.3-.13c-.28-.06-.57,0-.86-.09a7.32,7.32,0,0,1-1.36-.34c-.46-.16-.9-.36-1.36-.54l-.64-.27c-.17-.06-.51-.18-.6,0a2.47,2.47,0,0,0,0,.38c0,.33-.07.66-.11,1-.13,1.09-.3,2.17-.36,3.26a41.52,41.52,0,0,1-.45,6.73c-.15,1.67-.34,3.34-.57,5-.07.55-.15,1.1-.26,1.65-.48,3.1-1.08,6.18-1.77,9.25a90.24,90.24,0,0,1-2.85,15.65c0,.19-.07.39-.1.58-1,7.6-2.2,15.46-3.08,22.83-1.05,8.71-.76,17.29-1.42,26.13C54.44,187.71,54.33,207,51,226.26c-.5,2.92-.2,5.93-2,8.08-1.5,1.83-3.22,3.92.73,3.67-.12,1.32-1.81,1.48-2.2,2.73-.49,1.61.63,2.37,1.43,3.43-1,.59-3.42,1-3,2.61s3.46,1.26,4.59,1.34c3.46.26,6.84,1.51,10.4,1.77,2.86.22,7.53,1.84,10.19,1.28a3.08,3.08,0,0,0,2.33-3.52c-.11-1.67-1.81-2.2-2-3.47-.23-1.91,2.53-2.11,2.38-3.94-.08-1-.88-.73-1.19-1.43-.12-.28-1-.23-1.12-.57-.26-.94.63-.43.74-1,.27-1.19,1.44-2.09,1.18-3.6-.3-1.75-1.61-2.25-1.58-4.27,0-4.94,1.91-9.36,3.47-14C77.19,210.2,79,205,81,199.91c4,5.38,6.56,11.36,8.93,17.79,2.09,5.67,4.18,12.5,8.23,17.06,1.67,1.88,4.06,3.88,3.36,6.15-.85,2.81-2.87,3,0,5.17,1.51,1.16,1.3.42.86,2-.35,1.32-1.64,1.77-1.2,3.37,3.23.28,5,1,8.1,1.24a63.35,63.35,0,0,0,10.49,0c3.4-.31,7.42-.12,9.69-2.63C131.24,248.07,133,245.83,130.33,243.67Z"/><path class="cls-3" d="M63.29,233.92c-4.88-.67-9.53-2.21-12.58-5.15a16.31,16.31,0,0,1-.64,3.59C54.52,233.25,58.72,234.84,63.29,233.92Z"/><path class="cls-3" d="M57.83,238.5a30.28,30.28,0,0,0,14.07,0c-.13-.06-.23-.12-.26-.22-.26-.94.63-.43.74-1,.21-.93,1-1.69,1.15-2.7a82.79,82.79,0,0,1-14.66,2.51A40.48,40.48,0,0,1,51,237a15.52,15.52,0,0,0,5.77,2.1A.93.93,0,0,1,57.83,238.5Z"/><path class="cls-3" d="M61.89,248.39a48.08,48.08,0,0,1-13.16-4.57c.09.11.2.23.29.35-1,.59-3.42,1-3,2.61s3.46,1.26,4.59,1.34c3.46.26,6.84,1.51,10.4,1.77,2.86.22,7.53,1.84,10.19,1.28a3,3,0,0,0,2.3-3.08C70.05,249.78,65.44,249.14,61.89,248.39Z"/><path class="cls-3" d="M60.77,243.76a68.35,68.35,0,0,0,11.91,2.18,3.51,3.51,0,0,1-1.11-1.76c-.14-1.15.8-1.68,1.54-2.32a112.09,112.09,0,0,1-13.58-.49c-3.28-.38-7.09-1-9.93-2.91-.3.61-1,1-1.46,1.46C52.41,240.78,56.54,242.69,60.77,243.76Z"/><path class="cls-3" d="M126.39,230.44a3.2,3.2,0,0,0-.34-.53,44.29,44.29,0,0,1-11.85,7.27,31.15,31.15,0,0,1-11,1.87A23.48,23.48,0,0,0,113.9,239a.85.85,0,0,1,.94.38c.81-.18,1.61-.32,2.41-.55a34.16,34.16,0,0,0,9.13-4,1.76,1.76,0,0,1,0-.34C126.25,232.85,127,232,126.39,230.44Z"/><path class="cls-3" d="M104.85,242.63s-.07,0-.11,0l-4.15.32a2.2,2.2,0,0,0-.53,1.47c10.23.84,20.29.21,29.5-4.14.44-.9.74-1.44,0-2.36C122.76,243.23,113.12,242.66,104.85,242.63Z"/><path class="cls-3" d="M116.12,247.28c5,0,10,.34,15,.59a2.9,2.9,0,0,0-.79-4.2c-.31-.25-1.39-.49-1.56-.77a.61.61,0,0,1-.07-.14c-7.62,3.21-15.77,4.09-24.1,3.79C108.26,247.63,112.34,247.25,116.12,247.28Z"/><path class="cls-3" d="M119,251c-5.08-.17-11.68-.22-17-2.09-.49.77-1.15,1.32-.81,2.53,3.23.28,5,1,8.1,1.24a63.35,63.35,0,0,0,10.49,0c2.87-.26,6.17-.18,8.5-1.66C125,251.23,121.72,251.13,119,251Z"/><path class="cls-3" d="M103.38,104.32c0-.18-.09-.39-.12-.58-4,2.38-12.15,2.7-14.42,2.77a82.27,82.27,0,0,1-18.6-1.34,37.07,37.07,0,0,1-6.87-2,2.81,2.81,0,0,1-.08.31c-.22,1.88-.47,3.74-.73,5.6,6.74,2.76,14.9,3.88,21.45,4.67,3.84.46,14.93,2,20.92-.51C104.38,110.24,103.85,107.24,103.38,104.32Z"/><path class="cls-3" d="M100.9,92.48c-1.57.53-3.08,1.8-4.64,2.46a35.94,35.94,0,0,1-10.7,2.58,44.83,44.83,0,0,1-11-.38C73.71,97,67.2,95.78,65,94.8c-.23,1.4-.47,2.79-.74,4.17,11.66,2.57,23.7,2.67,35-1.13a12.67,12.67,0,0,0,1.8-.6c.89-.5.76-.51.84-1.55A13.63,13.63,0,0,0,102,93.3C101.91,92.13,102,92.12,100.9,92.48Z"/><path class="cls-3" d="M73.09,81.74c-2-.2-4.79.35-6.69-.36A47.84,47.84,0,0,1,66.08,87a35.57,35.57,0,0,0,5.81,1.23c.44.06.88.12,1.33.16s.65,0,1,0c.85.1,1.7,0,2.54.11a9.68,9.68,0,0,1,1.59.38,2.24,2.24,0,0,0,.91.24,2.35,2.35,0,0,0-.47-.36c-.15-.12-.31-.22-.46-.33a7.24,7.24,0,0,1-.82-.54c-.3-.26-.61-.49-.89-.78s-.69-.69-1-1.07A13.78,13.78,0,0,1,73.09,81.74Z"/><path class="cls-3" d="M93.51,85.22l-.06.08a1.24,1.24,0,0,0,.54,0,1.22,1.22,0,0,1,.46-.09l1.19,0A23.35,23.35,0,0,0,98.16,85a8.79,8.79,0,0,0,3.11-.86c1.23-.67.6-1.5.64-2.85a32.12,32.12,0,0,0,.16-3.92,5.26,5.26,0,0,0-2.36.38,7.76,7.76,0,0,1-1.74.06c-.2,0-.64,0-.81.11s-.07.2-.1.29-.08.2-.11.31a2.35,2.35,0,0,1-.23.57c-.23.41-.45.82-.65,1.25-.43.91-.71,1.89-1.19,2.78a8.06,8.06,0,0,1-.69,1.16Z"/><path class="cls-3" d="M105.48,118.88c-1.25,1-2.85,1.09-4.32,1.53a30.43,30.43,0,0,1-5.44,1.15,56.74,56.74,0,0,1-11.21.06c-7.69-.64-16.49-2.11-23-6.73-.31,1.42-.7,2.82-1.14,4.2,9.83,9.79,26.33,10.6,38.69,5.76,2.51-1,4.6-2.56,7-3.69A3.66,3.66,0,0,0,105.48,118.88Z"/><path class="cls-5" d="M92.15,22.73a3.78,3.78,0,0,0,.83-.24,3.91,3.91,0,0,1,1.32-.08,4.85,4.85,0,0,1,2.53,1.27,5.44,5.44,0,0,1,1.33,2.77,3.09,3.09,0,0,1,.08.61c.21,0,.45,0,.66,0a3,3,0,0,1,1.65,1.22,4.45,4.45,0,0,1,.64,3.5,14.19,14.19,0,0,1-.31,1.44c0,.11-.25.6-.12.75s.41.05.6.25a2.81,2.81,0,0,1,.38,2.16c-.11.94.36,1.68.41,2.58a6.85,6.85,0,0,1-.31,1.94c-.3,1.33-1.28,1.54-2.21,2.31a4.24,4.24,0,0,1-.91.55c.06-.32-.12-.6-.16-.9-.12-.71-.33-1.37-.46-2.08,0-.23,0-.65-.23-.8s-.79,0-1.09-.06-.59-.33-.74-.67a1.73,1.73,0,0,1-2,.67c-2.4-.61-3.34-1-5.2.81-.83.81-2.25,2.12-3.53,1.85s-1.12-1.5-2.32-1.07c-.8.29-1,1.67-1.91,1.91-1.4.37-2.2-1.52-3.35-2.06,0,1.21-1.18,2.43-1.92,3.36,1.55.08,2.54,3,2.87,4.19.6,2.19-1.34,4.19-3.41,2.73a17.15,17.15,0,0,1,1.2,4.13c.14,1.59-1.37,4-3.15,3C74.44,61,75.16,62.72,72,62.9s-5.1-1.57-6.81-3.9c-.14,1.07.14,2-.79,2.86s-2.83.64-4,.24c-2.74-1-4-3.33-2.49-5.89a6.91,6.91,0,0,1-3.4-4.14,6.9,6.9,0,0,1-.43-3.39c.21-.94,1.57-1.47,1.68-2s-.55-1.22-.76-1.66A6.66,6.66,0,0,1,54.38,42,4.76,4.76,0,0,1,58.79,37c-1.6-3.73,1.87-10.26,6.35-9.94-1.57-1.51.45-5.39,2-6.32,2.15-1.31,3.76.07,5.17,1.63-.25-1.82,1.78-3.8,3.43-4.1,2.15-.38,3.51.79,5,2.14a3.43,3.43,0,0,1,2.88-1.88c1.37-.19,1.88.46,3,.93s6.39.74,5.16,3A.52.52,0,0,0,92.15,22.73Z"/><path class="cls-7" d="M74.3,14.72c-2-2-4.07-4-6.1-6-1-1-2.23-2.91-3.43-3.48-1,1-.41,3.38-.43,4.67A39.82,39.82,0,0,0,64.81,15c.17,2.13.47,4.2.45,6.33a8.75,8.75,0,0,0,0,1.85c.1.45.13.91.21,1.37s.24,1.1.3,1.65a6.53,6.53,0,0,0,.08,1.47c.13.42.48.46.88.59A13.77,13.77,0,0,0,70,29a14.82,14.82,0,0,0,4.41-.05,8.45,8.45,0,0,0,4.5-2.44c.62-.72,1.15-1.48,1.72-2.22a3.74,3.74,0,0,0,1-2.16c0-.35-.35-.56-.58-.82s-.35-.4-.53-.59a14.33,14.33,0,0,0-1.33-1c-.59-.5-1.13-1.07-1.67-1.61C76.44,17,75.39,15.83,74.3,14.72Z"/><path class="cls-5" d="M64,5.73c-.5-.43.18.06.32.14.94-1.49,3.14-2.19,2.49-4.17s-3.43-1.91-5-1.22C56.08,2.93,59.35,9.54,64.31,6"/><path class="cls-3" d="M74.13,21.18c1.06-1.32-3.24-3-4.36-.7-1.65,3.44,5.28,2.67,4.31.48"/><path class="cls-3" d="M88.52,54.26a3,3,0,0,1,1.2-.76A14.3,14.3,0,0,0,91,52.59a11.77,11.77,0,0,0,1.64-1.15,5.1,5.1,0,0,0,1.17-1.24,6.57,6.57,0,0,1,1-1.45,1.57,1.57,0,0,1,1.33-.32,2.24,2.24,0,0,1,1.23.21c.16.12.2.29.33.42a3.9,3.9,0,0,0,.71.49c.31.2.66.23,1,.43.45.28.62,1.32.77,1.82a7,7,0,0,1,.35,2.14c0,.46,0,.94,0,1.4-.09,1.25-.38,2.5-.57,3.74a8.22,8.22,0,0,1-.48,1.83,6.92,6.92,0,0,1-.71,1.38c-.28.44-.45,1.08-.87,1.39a2.15,2.15,0,0,1-1.29.43A9.25,9.25,0,0,1,95,63.85c-.49-.1-.93-.12-1.41-.24A7.76,7.76,0,0,1,90.7,62a11.71,11.71,0,0,1-2.37-2.65,3.44,3.44,0,0,0-1.4-1.15c-.7-.36-1.49-.53-2.16-1-1.22-.79-2.51-1.47-3.69-2.33a12.19,12.19,0,0,1-2.15-2c-.27-.32-1.18-1.05-.83-1.52a12.86,12.86,0,0,1,1.09,1.12,15.89,15.89,0,0,0,2.39,1.85c1.32.85,2.72,1.64,4.06,2.45.72.44,1.85.7,2.43,1"/><path class="cls-3" d="M97.68,46c-.05.28-1.15.47-1.46.44.25.56,1.26.82,1.7,1.2,0-.4.14-1.43-.18-1.7"/><path class="cls-5" d="M98.28,43.87l-1.7.22c-.68.11-.87-.54-1.29-.86a.88.88,0,0,0,0,.66,2.5,2.5,0,0,1-.41-.07c.22,1.34,4,1.71,3.49,0"/><path class="cls-5" d="M97.25,46.35c-.17.26.18,1.26.51.75a1.5,1.5,0,0,0,0-.76c-.17-.32-.5-.19-.56.13"/><path class="cls-3" d="M88.92,53.88c-.31-.24-.91-.17-1.3-.29-.59-.2-1.22-.34-1.8-.59-1-.4-1.86-.92-2.76-1.4a20.78,20.78,0,0,0-2.26-1.14c-.68-.27-1.33-.5-2-.8a3.69,3.69,0,0,0,0,.47,17.66,17.66,0,0,1,1.58.89A21.44,21.44,0,0,0,83,52.12c1,.36,1.89.76,2.84,1.16a11.42,11.42,0,0,0,2.75,1"/><path class="cls-3" d="M64.65,133.74c-.57-.39-2,3,.6,3.35s1.75-3.23-.4-3.35"/><path class="cls-3" d="M78.39,141.91c-2,.2-1.32,3.57.4,4,3.34.81,2.06-4.08-.4-3.59"/><path class="cls-3" d="M96.32,138.12c-2.39.64,0,4.84,1.65,3,1.8-2-1.14-4.23-3-3.2"/><path class="cls-3" d="M82.57,133.14c-.65,1.83,1.24,4.3,3.32,3,2.86-1.84-2-5.17-3.11-3.16"/><path class="cls-3" d="M64.45,149.28c.45.56,0,1.48,1,2a2.3,2.3,0,0,0,2.35-.62c1.75-2.22-2.82-4.15-3-2.35"/><path class="cls-3" d="M71.82,158.84c-1-.49-1.28,5,1.6,3.95,3.35-1.25-.89-6-2.4-3.55"/><path class="cls-3" d="M86.16,155.85c-2.24-1.29-2.78,4.46.21,4.39,2.82-.07,1.73-4.21-1-3.79"/><path class="cls-3" d="M102.3,152.87c-2.93-.21-2.56,4.8.2,3.95a2.24,2.24,0,0,0,1.1-3.14c-.6-.9-1.55-.81-2.5-.81"/><path class="cls-3" d="M106.08,140.51c-1.7.9-.22,5.05,2,3.74,2.37-1.39.39-3.64-1.59-3.54"/><path class="cls-3" d="M104.49,126.57c-1,.65-.9,4.93,1.24,3.85s-.52-4.7-2.24-3.45"/><path class="cls-3" d="M94.33,129c-1.17,1.92,1.53,3.14,3.15,2.45,2.9-1.25-1.14-4.67-2.55-2.85"/><path class="cls-3" d="M76.2,129.36c-.91.6-.66,3.71,1.44,3.2,2.39-.58.64-4.58-.84-3.6"/><path class="cls-3" d="M63.05,126c-2,.09-1.58,3.74.59,3.59a1.68,1.68,0,0,0,1.58-2.19c-.45-1.1-1.82-1.18-2.76-1.2"/><path class="cls-3" d="M58.67,140.91c-.93,1.37-.66,4.76,1.65,4.39s.82-3.94-1.25-3.59"/><path class="cls-3" d="M60.67,160.63c-1.23-.78-1.64-.12-1.81,1.26s0,3.2,1.9,2.88c1-.16,2.34-1.56,2.08-2.7-.23-1-2.53-2.76-3.37-1.64"/><path class="cls-3" d="M73.42,173.78c-1.26,0-1.79.36-2,1.69s-.08,3,1.4,3.3c4.27,1,2.14-6.16.2-4.59"/><path class="cls-3" d="M89.15,170.59c-1.24,0-2.11-.06-2.75,1.24s-.89,3.61.7,4.27c1.24.51,2.78-.55,3.21-1.71s-.74-3.8-2.15-3.6"/><path class="cls-3" d="M91.14,146.09c-3.6.87-1.4,5.78,2,5,4.41-1-1.14-6.41-2-4.4"/><path class="cls-3" d="M111.86,158.44c-1.4.79-2.34,1.54-2.39,3.24a2.66,2.66,0,0,0,2.19,2.89c5.09,1.26,2.06-6.78-.2-5.73"/><path class="cls-3" d="M98.71,163.62c-1.84.38-1.84,3.34-.56,4.35s3.57.35,4-1.11c.59-1.89-3.55-4.56-3.85-2.44"/><path class="cls-3" d="M109.67,172.39c-2.85-3.1-5.28,5.2-1.15,5.38,5.09.23,1.45-8.3-1.44-5.18"/><path class="cls-3" d="M96.52,177.76c-2.32.35-.66,7.31,2.93,5.6s-.51-7.53-2.73-5"/><path class="cls-3" d="M110.27,184.93c-3.54-2.83-5.14,5.76-1.06,5.2,5-.68.8-7.74-2.13-5.39"/><path class="cls-3" d="M93.93,193.1a3.72,3.72,0,0,0,0,3,2,2,0,0,0,3.36.36c2.28-2.36-1.69-5.88-4.14-4.38"/><path class="cls-3" d="M83.18,184.93c-1,2.09-.7,5.08,2.34,4.59,3.48-.55,1.41-5.22-1.35-4.59"/><path class="cls-3" d="M67.24,188.12c-.17,1.59-1.21,4.7,1.93,4.39,1.28-.12,3.5-1.06,3-2.79s-3.26-2.52-4.76-2.39"/><path class="cls-3" d="M61.06,176.37c-.81,1.49-1.28,6.12,1.95,4.55,2.27-1.09-.25-5.18-2.14-4.75"/><path class="cls-3" d="M56.08,169c-1.22,1-.61,4.49,1.79,4.18s1.83-4.8-.59-4.78"/><path class="cls-3" d="M56.68,192.9c-1.71,0-2,6.15,1.28,5.54,4.73-.85-.23-7-1.28-5.93"/><path class="cls-3" d="M69.23,200.87c-1.51,0-1.77.2-2,1.75-.28,1.83.8,3.31,2.8,2.84,4.15-1,1.52-6.13-1.8-6"/><path class="cls-3" d="M54.89,210.24c-1.38,2,.79,6.11,3,3.78,1.77-1.85-1-4.94-3.18-4.35a.58.58,0,0,0,0,.37"/><path class="cls-3" d="M68.43,213.22c-1.84-.44-2.27,5.86.9,5.39a3,3,0,0,0,2.08-3.75c-.36-1-2.66-2.52-3.38-1.24"/><path class="cls-3" d="M59.47,219.4c-1.12,2.16.75,6.46,3.4,4.24,1.22-1,1-2.51-.1-3.54s-2.18-1.65-3.3-.5"/><path class="cls-3" d="M68.23,226.57c-2-.53-3.4,5-.65,5.54s6-3.84,2.45-5.14"/><path class="cls-3" d="M79.19,194.1c-2.77-.57-4.41,4.73-1.18,5.35,3.68.7,4.39-5.37,1.18-5.15"/><path class="cls-3" d="M95.52,203.66c-4.23-2.18-6,6.92-1.48,6,3.9-.79,2-5.94-1.3-5.79"/><path class="cls-3" d="M103.09,200.47c-3.42-.82-3.78,5.22-.39,5,3.55-.23,1.08-5.9-1.4-5.59"/><path class="cls-3" d="M116.64,197.09c-1,0-2-.18-2.79.4-1.52,1-1.84,4.08-.21,5.14s4.2-.36,4.38-2.36c.09-.88-1-3.83-2.37-3.58"/><path class="cls-3" d="M109.87,208c-2.53-.25-3,6.73,1.15,5.55,3.73-1.07,1.34-7.5-2-6"/><path class="cls-3" d="M101.1,212.42c-2.18.2-1.53,6.33,1.64,5.15,5.06-1.87-1.15-8.2-2-5.54"/><path class="cls-3" d="M101.7,223.58c-3-.35-3.42,5-.3,5a2.8,2.8,0,0,0,2.54-2.7c-.12-1.05-2.21-4-3.63-3.68"/><path class="cls-3" d="M115.44,218c-2.55-.4-3.93,7.6.22,6.09,2.81-1,1.83-5.2-1-5.09"/><path class="cls-3" d="M119.23,211.23c-2,.12-1.69,4.62.45,5,2.73.47,2.28-3.86.35-4.39"/><path class="cls-3" d="M115.44,229a2,2,0,0,0-2.55,1c-.91,1.48-.66,3.81,1.16,4.42s3.7-1.74,3.4-3.47-2.23-2.25-3.8-2.18"/><path class="cls-3" d="M103.29,231.35c-2.13.76-1.8,4.38.6,4.59,3.36.29,4.3-5.38.6-5.19"/><path class="cls-3" d="M90,219.8c1.29-.26,2.56-1.37,3.23.55a4,4,0,0,1-1.19,4.2,9.19,9.19,0,0,1-1.25-5.35"/><path class="cls-3" d="M53.69,223.18c-1.09.95-2.13,3.23.21,3.75a2,2,0,0,0,2.39-2.12c-.06-1.24-1.3-1.81-2.4-2"/><path class="cls-4" d="M268.52,77.74a109.41,109.41,0,0,0,9.31,5.83c4.2,2.56,8.51,5,12.77,7.36s8.82,4.66,13.29,6.77a17.52,17.52,0,0,1,1.83,1,20.87,20.87,0,0,0,4,1.93c1.3.47,2.59.85,3.84,1.4s2.55,1.33,3.86,1.94a76.56,76.56,0,0,0,7.73,2.81,46.79,46.79,0,0,0,8,2.05q5.61.84,11.27,1.16c2,.1,3.92.17,5.88.18,1.65,0,2.51-1.4,4.09-1.61,1.78-.23,3.34.5,5.07.49h2.77c.91,0,2.63-.42,3.48-.4,1,2.93-5.28,1.77-6.23,3a1.4,1.4,0,0,1,.28.92,7.3,7.3,0,0,0-2.56.57c-.52.36-.6,1-1.06,1.47-1,.91-2.66,1-3.9.79a20.63,20.63,0,0,0-3.06-.37,6.53,6.53,0,0,0-2.25.2,5,5,0,0,1-1.61.33c-1.72.06-3.45,0-5.17,0-9.28-.12-18.43-3.48-27.05-6.7-3.37-1.25-6.71-2.82-10.15-3.92a77.72,77.72,0,0,1-10.16-3.55c-7.17-3.44-14.39-7.11-21.23-11.1a36.76,36.76,0,0,1-6-4.4c-1.38-1.26-1.6-2.35-1.59-4.17,0-1.53.05-3.66,1.79-4.21"/><path class="cls-4" d="M275.35,281.08c0,3-.09,6.05-.31,9.07-.16,2.24.17,5.37-1.26,7.24a5.25,5.25,0,0,1-2.62,1.73c-3.13,1.09-3.38-2.73-3.57-4.78-.23-2.5-1.18-4.91-1.38-7.41-.3-3.65,0-7.44,0-11.1,0-7.36.17-14.55-1.16-21.56-1.27-6.7-2.47-13.33-3.92-19.74-.85-3.76-.83-7.82-1.45-11.62-.52-3.18-1.94-6.37-1.86-9.7,2.05-.56,3.72.55,5.78.55s3.7-1.19,5.88-.64c4.24,1,2.61,7,2.61,11.1A170.15,170.15,0,0,0,274.71,253C276.32,262.23,275.35,271.56,275.35,281.08Z"/><path class="cls-2" d="M259.91,43a4.34,4.34,0,0,0-1-1.81,9.62,9.62,0,0,0-2.51-1.69c-1.49-.86-3.27-1.87-5-1.89,1,0,2-.4,3.1-.07a18.07,18.07,0,0,1,3,1.27,4.81,4.81,0,0,1,2.22,2.08c.26.44,1.29,2.3.47,2.56a1,1,0,0,1-.25-.45"/><path class="cls-5" d="M91.89,55.43c2.87,0,5-.28,7.35-1.87.06,1.21-2.26,1.59-3.19,1.87-.65.21-1.41.42-2.07.57-.49.11-2.08,0-1.71-.19"/><path class="cls-5" d="M92.46,57.89c.87,1,6.64,1.16,6.78-.54-.63.65-2.1.45-3,.54a32.37,32.37,0,0,1-3.34.38h.32"/><path class="cls-5" d="M93,60.92a8.79,8.79,0,0,0,3,.95c1.33.1,1.68-.28,2.57-1.16-1.32.9-4.06.88-5.54.36.16-.19.29-.13.51-.15"/><path class="cls-5" d="M232,66.41c.72,1.34,6.38,2.12,7.7,1.12a11.54,11.54,0,0,1-3.53-.37c-.89-.13-2.85.14-3.41-.56"/><path class="cls-5" d="M231.77,68.11c1.09,1.78,6.88,2.62,8.31.83-1.28.85-7.5.69-8.24-.62.32,0,.34.21.5.36"/><path class="cls-5" d="M233.1,71.52c2.34,1.72,4.35.54,6.76,0a21.66,21.66,0,0,1-3.16.38c-1.19.08-2-.61-3.19-.61-.26-.35-.43-.61-.41-.72"/><path class="cls-5" d="M268.84,121.23c.31,4,.61,8,1,12,1.76,19.77,3.88,39,8.45,58.05A84.54,84.54,0,0,1,280.18,203c.26,2.73,2.48,8.34.42,10.81-1.76,2.11-8.07,2-10.69,2.42-4.2.68-8.47.89-12.74,1.46s-8.49.9-12.71,1.48-8.8.68-12.9,2.05c-4.8,1.61-9.56,3.45-14.25,5.23-3.75,1.42-5.75.14-9.56-.49.06-2.18,1.7-4.63,2.38-6.79.78-2.44.92-5,1.46-7.45,1.52-6.85,5.69-11.94,7.64-18.48,2.58-8.61,5.52-17.25,7.06-26.12,2-11.18,5.8-22,7.55-33.26.82-5.22,2-10.38,3-15.57.3-1.63,1.25-3.05,1.59-4.64a22,22,0,0,0,.07-4.06c.09-3.92.58-7.83.58-11.76s-.86-7.44-.6-11.06a5.63,5.63,0,0,0,2.17-.32,11.74,11.74,0,0,0,5,6.48c3,1.79,5.43.48,7.77-2,4.91-5.16,5.75-11.38,6.32-18.22a2.84,2.84,0,0,1,1.53,0c.58.19,1.92,12.29,2.32,13.72a132.4,132.4,0,0,1,3,14C267.66,107.32,268.28,114.26,268.84,121.23Z"/><path class="cls-2" d="M209.53,222c1.06-.35.3.06.25-.07,2.19.61,3.63,2,5.06-.63,1.27-2.31.73-3.89-1-5.71a10.88,10.88,0,0,1-2.38,2.63,12.81,12.81,0,0,0-2.13,3.7l.26-.57"/><path class="cls-2" d="M266.56,178.14c.81-2.3,5.12-1,6.34.44,1,1.21.42,4.23-1.06,4.93-2.92,1.4-8-4.41-5.28-5.37"/><path class="cls-2" d="M258.32,183.86c-.68-.45-.74-1.14-1.6-1.13-1.14,0-1.32,1-1.39,1.86a5,5,0,0,0,1.11,3.61c1.3,1.42,2.76,1.5,2.91-.6a5.35,5.35,0,0,0-1.21-3.43"/><path class="cls-2" d="M262.51,129.38c0-4.67,7.2-3.17,5.26,1.45-2,4.83-6.33.38-4.92-3.4"/><path class="cls-2" d="M262.83,104.29c2.67-.63,4.2,4.23,1.75,5.43-3,1.5-3.75-4.4-2.38-5.81"/><path class="cls-2" d="M259.64,113.56a2.92,2.92,0,0,1,.14.38c.62-1.41,2.63-.81,3.45.22a3.64,3.64,0,0,1-.56,4.21c-3.72,2.9-4.4-6-1.81-5.34"/><path class="cls-2" d="M257.83,94.3s.19.24.18-.2a3.74,3.74,0,0,1,2.63,2.51c.42,1.35.33,3.06-.87,3.78-3.62,2.16-2.16-4.26-2-5.67a.61.61,0,0,1,.34.61"/><path class="cls-2" d="M271.07,202.31c.05.39.07.43.07.11.21-1.72,3-.79,3.75.1,1.51,1.65.36,4.1-.88,5.52-3.28,3.76-6-5.09-3.46-5.61"/><path class="cls-2" d="M250,109.11c0,.13-1-1.06-.95-.92-1.22-2.08,1.55-3.14,4-1,2.12,1.86-1.44,5.64-3.36,2.67,0-.23-.86-1.56-.66-1.71"/><path class="cls-2" d="M245.6,115.62c1.14-2.25,6.09,1.8,4.08,4.68-1.06,1.49-3.07.74-4-.65-.73-1-.75-3-.92-4.14a1.28,1.28,0,0,1,1.38,0"/><path class="cls-2" d="M254.87,127.71c1-3,6.66,2,3.6,4.75-1,1-3.11-.23-3.63-1.28s-.24-4.57,1.13-4.51"/><path class="cls-2" d="M264.63,139.37c.72-1.13.9-.93,2.34-.27,1.71.76,1.2,2.05.51,3.34s-2.94,3-4.19,1.18c-.63-1,.1-4,1.34-4.25"/><path class="cls-2" d="M258.41,201c1.47,2.47.95,5.28-.9,7.55-3-.67-1.31-8.55,1-7.3"/><path class="cls-2" d="M270.55,147.19a1.19,1.19,0,0,0,.28.1c-.4.58-1.13.44-1.68.81a1.59,1.59,0,0,0-.65,2.06c.49,1.3,1.57,2.71,2.94,2.92a21.22,21.22,0,0,0-.1-3,26.1,26.1,0,0,0-.51-2.56"/><path class="cls-2" d="M256,140.33c-.15.27-.17.28,0,0,1-2.26,5.25,2.37,3.3,4.58a2.25,2.25,0,0,1-3-.12,3.68,3.68,0,0,1-.35-4.14"/><path class="cls-2" d="M244.23,131.58c.06.12.08.25.14.36,1.71-2.35,7.07,4.6,3.35,6.47s-5.58-6.42-2.45-7.06"/><path class="cls-2" d="M239.82,121.93c.76.51,1.91.25,2.38,1.81a4,4,0,0,1-1,3.78c-3.12,2.4-5.76-4.36-2.86-5.25"/><path class="cls-2" d="M236.05,188.72c.25.16.27.17,0,0-1-1.67,2.45-1.59,3.32-1A3.67,3.67,0,0,1,240.6,192c-1.63,4.26-7.12.28-4.55-3.23"/><path class="cls-2" d="M248.14,174.24c.24.19.55-.7.59-.93-.13-.15-.31.56-.2.43,2.33-.79,3.31,4.19,1.27,4.88-3.47,1.16-3-4.1-1.07-5.31"/><path class="cls-2" d="M235.27,145c.21.79.79.55,1.09,1.07A5.34,5.34,0,0,1,237,148c.15,1,.45,3.22-1,3.36-2.22.24-2-4.44-1.29-5.45"/><path class="cls-2" d="M245,145c.82.42,6.42,3,2.38,4.38-2.45.86-3.76-2.79-2.38-4.38"/><path class="cls-2" d="M250.26,156.61c.27.18.29.18.06,0-1.73-1-6-.67-5.3,2.19.48,2,5.1.19,5.41-1.19-.13-.19.24-.52,0-.59"/><path class="cls-2" d="M231.83,160.11c.12.45,0-.23.7-.3a4.72,4.72,0,0,1,2.3.41c1.31.57,2.34,1.64,1.21,2.94-1.38,1.58-6.82,0-4.61-2.44"/><path class="cls-2" d="M248.83,217.2c-1,.25-2.27-.61-2.89,1.07a13.06,13.06,0,0,1,3-.56"/><path class="cls-2" d="M258.59,152.59c-.18.26-.19.27,0,0,1-.93,0-3.21-1.32-3.49-1.49-.32-2.18,2.22-2.24,3.39-.12,3.17,2.48,3.34,3.57.55"/><path class="cls-2" d="M232.18,174.66c0,.13.1.26.12.37,1.38-1.92,4.81,2.15,4.15,4-.5,1.47-1.94,1.55-3.08.67-1.45-1.12-.62-2.39-.64-3.85"/><path class="cls-2" d="M258.24,168.65c.06.4-.43-.37-.43-.69.25-1.8,7.15,1,4.07,4.68-2.65,3.21-5.89-1.83-4.07-4.68"/><path class="cls-2" d="M226.82,181.39c-.17.23-.17.23,0,0a3.59,3.59,0,0,1,3.29,1.1c.87,1.18.13,4.56-1.55,5-4.18,1.24-5-6.37-2-6.35"/><path class="cls-2" d="M238.19,200.09c.57.69,2.63.62,3.35,2.15.59,1.25,0,4.92-1.31,5.6-3.75,1.91-4.76-6.09-2-7.75"/><path class="cls-2" d="M248.26,186.83c.4,1.54,2.32,1,2.13,3a2.57,2.57,0,0,1-3.56,2.24c-2.52-.94-2.49-7.19,1-6"/><path class="cls-2" d="M264.75,187.59c.67.74,2.8,1.15,3.31,2.44a2.79,2.79,0,0,1-1.82,3.55c-3.45.85-5.36-5-2.31-6.09"/><path class="cls-2" d="M265,161.13c.46.21-.36-.28.7-.46a3,3,0,0,1,1.66.2,4,4,0,0,1,2.43,2.46c.5,1.74-.53,5.41-2.73,5.48a14.33,14.33,0,0,1-1.11-3.63c-.26-1.06-1.26-2.85-.62-3.84"/><path class="cls-2" d="M226.05,223.12c-.81-.44-1.71-2.66-.63-3.64s4,.2,4.22,1.49c-1.15,1.14-4.18.88-4.94,2.29"/><path class="cls-2" d="M221.7,202.83a3.22,3.22,0,0,1,.8-1.17c2.7.67,1.89,6.34-1.19,5.25s-2.06-5,.54-5.73"/><path class="cls-2" d="M277.45,188.29c-.17,1-2,.48-1.83,2.3.11,1,2,2.84,3,3.21-.41-1.78-1.37-3.34-1.38-5.2"/><path class="cls-2" d="M238.85,106c1.21,1,2.32,2.06,2.33,3.75,0,1.31-.71,3-2.05,3.32a15.48,15.48,0,0,1-.28-7.07"/><path class="cls-2" d="M251.06,94.36c.44.17.59,1.47.42,1.88s-.34.27-.67.21a2,2,0,0,1-.86-.19c-.41-.27-.32-1.18-.22-1.62.07-.28.18-.51.51-.54s.6.36.82.26"/><path class="cls-2" d="M242.29,90s-.33.35-.34.55a1.85,1.85,0,0,0,.23.71,3.17,3.17,0,0,0,1.35.77c.24-.28-.37-.81-.51-1s-.44-1-.77-1.16"/><path class="cls-2" d="M261.16,84.87c.41.43-.26,1.23-.62,1.47-.56.39-1.2-.06-1.58-.56-.52-.71-.13-.91.57-1a7.21,7.21,0,0,1,1.55,0"/><path class="cls-2" d="M238.49,86.9s0,.06,0,0a1.49,1.49,0,0,1,.5.19c.36.17.35.15.39.49s0,.93-.15,1.13c-.22,0-.46.07-.63-.1a3,3,0,0,0-.29-1.54l.15.07"/><path class="cls-2" d="M264.84,215.47c-.6-1.09-2.93-2.7-4.14-1.92-1.41.92-.4,3-.36,4.18.52-.57,1.39-.6,2.16-.86a13.82,13.82,0,0,1,2.35-.79c-.11-.08-.1-.18-.17-.26"/><path class="cls-2" d="M227.52,198.27c.56-1.43,0-5.22-2.32-3.78a2.42,2.42,0,0,0-.11,3.91C225.85,199,227.07,199.39,227.52,198.27Z"/><path class="cls-2" d="M232.11,210.32c-2.12.7-.72,3.52,1,3.77,2.29.33,2.67-4.16,0-3.64"/><path class="cls-2" d="M243.75,100.25c-.57-.68-1.92-.17-2.09.61a2.64,2.64,0,0,0,1.81,2.7c2.23.73,2.52-2.88.64-3.52"/><path class="cls-2" d="M260.9,72.76c-.36-.11-1,.83-1.09,1.22a3.13,3.13,0,0,0-.22,1.73,1.85,1.85,0,0,0,2.31,1.21c.08-.31-.14-.67-.19-.94s-.09-.77-.18-1.13a9.81,9.81,0,0,1-.27-2.09"/></g></g></svg>