<svg xmlns="http://www.w3.org/2000/svg" viewBox="0 0 186.04 401.41"><defs><style>.cls-1{fill:#1d1d1b;}.cls-2{fill:#007293;}.cls-3{fill:#fff;}.cls-4{fill:none;}.cls-5{fill:#e30613;}.cls-6{fill:#e63027;}</style></defs><g id="Ebene_2" data-name="Ebene 2"><g id="Ebene_1-2" data-name="Ebene 1"><path class="cls-1" d="M117.17,86.35c-1.36-1.4-5.71.52-7.79.2-.71,3.66-6.64,9.22-8.85,12.19a87.57,87.57,0,0,0-9.45,17c-4.62,10.66-29.2,29.91-34.76,40,6.45,5.52,26.73,8,26.73,8l27.72-2.38,10.33-17.92s-4-44.46-4-55.31Z"/><path class="cls-1" d="M127.66,73.25c1.13-.13,2.29.14,3.41,0-.68-.77-2-1.15-2.91-1.88s-1.62-2-2.37-2.42c-.72.55-2.46,1.19-2.93,1.9-1.09,1.68-1.56,3.47-3,4.88a21,21,0,0,0-3.17,5.12A23.43,23.43,0,0,0,114.77,86c-.46,1.78-.3,3.73-.78,5.57-1,3.84-2.67,7.59-3.85,11.42-2,6.55-4.15,13.55-4.15,20.43,0,1.63-.17,2.23,1.33,3.12s3.09,1.47,4.57,2.33a22.46,22.46,0,0,1,5.57,4.7c.7.77,1.43,2.47,2.36,2.83a42.84,42.84,0,0,0,.06-6.51,45.85,45.85,0,0,0,0-4.69,41.48,41.48,0,0,1,.53-9.69,24.5,24.5,0,0,1,2.69-7.61c.58-1.14,1.32-2.24,1.89-3.4s1.11-2.66,2.4-3c0-.6-.49-1.06-.76-1.59a4.51,4.51,0,0,1-.42-1.76c-.14-1.45,0-3,0-4.4,0-2.82-.2-5.91.5-8.52.32-1.24.23-2.63.48-3.91s.62-3.33.18-4.57C127,75.77,126.4,73.42,127.66,73.25Z"/><path class="cls-1" d="M128.89,74.16c.81,1,1.22,2.85,1.77,4,.87,1.93,1.92,3.68,3,5.57,1.88,3.37,3.69,7,5.5,10.52,3.45,6.89,4.05,15.79,8.62,21.86-.46-10.47-.67-21.44-.67-32.25V76.12c0-2.93-.78-5.59,2.6-4.56,3.75,1.17,6.21,5.92,8.91,8.62,2.22,2.22,3.13,2.47,2,5.53a12.91,12.91,0,0,0-1.15,6.62c.59,6,.67,12.07.67,18.22,0,9.75,2.12,22.65-2.06,31.06-3.79.83-5.87-2.13-8.46-4.41-4.1-3.61-6.65-7.16-9.81-11.6-3.51-4.93-6.73-10.08-10.37-14.92-1.76-2.35-4.37-3.9-6.16-6.14s-1.69-5-1.46-8.15c.32-4.35,1.22-9,1.9-13.32.53-3.28,1.55-7.49,1.43-10.75,1.57-.18,5-.81,4.46,1.84"/><path class="cls-2" d="M119,53.86a.24.24,0,0,1,.14.29c-.6.51-1.18,1-1.79,1.53a8.7,8.7,0,0,1-.93.7,2.44,2.44,0,0,1-.84.27,2,2,0,0,1-.69,0,1.83,1.83,0,0,1-.84-.46,2.67,2.67,0,0,1-.6-.61c-.13-.17-.23-.35-.37-.5L113,55c-.14,0-.15.05-.22.14-.4.6-.7,1.3-1,1.92a3.87,3.87,0,0,0-.59,1.29,3.33,3.33,0,0,1-.64,1.22c-.59.92-1.2,1.82-1.76,2.76-.08.17-.18.32-.27.49A37,37,0,0,0,106,67.35c-.57,1.49.53,2.8,1.51,3.93L108.91,73a4,4,0,0,0,1.47,1.38c1.53.57,3.43-1.47,4.71-2.15a37.19,37.19,0,0,0,5.84-3.45,4.09,4.09,0,0,0,.73-.64,6.08,6.08,0,0,1,.83-.69c.21-.21.45-.35.68-.54a10.28,10.28,0,0,1,.81-.67c.13-.09.27-.07.4-.13-.16-.31-.4-.57-.59-.87s-.51-.82-.76-1.24a3.09,3.09,0,0,1-.46-1.8c.09-.69.8-.95,1.25-1.39.18-.19.36-.38.56-.57s.24-.17.24-.28-.12-.22-.16-.27c-.28-.38-.65-.68-.92-1.06a28.88,28.88,0,0,1-1.64-2.49c-.27-.49-.54-1-.85-1.46s-.88-.82-1.07-1.26a.52.52,0,0,1,.31,0"/><path class="cls-3" d="M55.17,353.7c2.48.34,2.68,7.74,3.58,9.4a46.66,46.66,0,0,1,15.55,0c.26-1.15-2.39-8.77-3-9.83-1.18-1.94-1.45-2.36-3.77-2.38a24.6,24.6,0,0,0-10.21,2.46c-.3-.17-1.19,0-.9-.18"/><path class="cls-1" d="M62.13,356.44a12.35,12.35,0,0,0,2.95,1,22,22,0,0,0,7.85-.92,42.43,42.43,0,0,1,5.34,2.05c.16-.16.36-2.69.58-2.85a1.6,1.6,0,0,1,.78-.11c0,.06-2,8.66-1.73,9.42s11.82,19,11.72,19.7c0,.26-1,4.9-1.17,5.26s-.11.65-.56.7S82,387.21,80.31,386c-1-.69-13.46-12.42-13.76-13.08a20.68,20.68,0,0,0-2.66-2.5c-.26,0-2.92,2.79-3.24,2.88s-8.94-7.09-9.49-7.48c-.18-.14-.42-.29-.59-.42A20.61,20.61,0,0,1,52,362.52a40.37,40.37,0,0,1-.24-4.06c.05-.55,4.32-5.12,4.68-5.32S61.33,356.08,62.13,356.44Z"/><path class="cls-1" d="M61.36,151.41l-.21.21h.2A.23.23,0,0,0,61.36,151.41Z"/><path class="cls-1" d="M71.3,350.55c2.44-.52,6.22-1.21,7-2.19-1.32-2.33-1.59-5.28-2.3-7.9-1-3.86-2.41-7.62-3.85-11.41-1.73-4.55-3-9.2-4.41-13.82-.37-4.47-.71-8.3-.93-10.36-.69-6.26-.35-34.79-.35-34.79L67.59,256l-3.84-14.56s-6.23-53-8.92-75.46c.35-1.2.73-2.39,1.07-3.6a41.53,41.53,0,0,1,2.5-6.52,19.31,19.31,0,0,1,1.87-3.16c.15-.22.7-.61.66-.88l.22-.22a12.54,12.54,0,0,1-2.27-.32,15,15,0,0,1-2.67-.83c-1.34-.45-2.6-1-3.94-1.3-.84-.84-2-1.38-2.86-2.09C45.34,143.67,41.87,138.89,38,135c-2.77-2.76-6.13-8.53-8.65-11.46-1.5-1.83-6.87-3.57-6.87-3.57s-8.46,8.74-9.93,10.75a42.34,42.34,0,0,0-6.31,14.57c-2.59,10.44-2.5,22.52-1.15,33.37,1.54,12.19,17.75,84,18.2,85.56.67,2.28,3,15.62,2.89,15,0,0,1.34,11.29,1.9,12.82,1.08,3.07,2,6,2.93,9.13.41,1.38.79,2.76,1.16,4.13.55,3.08,1,5.6,1.3,7,1.19,5.78,4.92,28.69,6.29,34.16.17.73,1.49,1.51,3.5,2.29.43,2.5.26,4.26,3.72,5,4.05.86,8.29,0,12.3-.63l.61-.11c6.4,1.26,12.13,2.12,13.33,2.15A15.67,15.67,0,0,1,71.3,350.55Z"/><path class="cls-3" d="M78,143.06s-11.47,8.11-12.24,8.26c-14,2.73-24.34-8.36-21.93-11.43.46-.6,40.62-66.53,53.13-79,2.44-2.45,20,23.14,20.64,24,.21.34-4.34,1.63-4.13,2.16-1.17,1.69-2.5,3.41-2.86,5.43C110.54,92.81,78,143.06,78,143.06Z"/><path class="cls-4" d="M145.47,80v.22"/><path class="cls-3" d="M89.91,80.57c.2,0,.2,0,0,0a11.18,11.18,0,0,1-2.13-1.68c-.22,1.49.3,1.48,1.34,2.18.34.24.54.85,1,.72a.71.71,0,0,0,.23-1.25"/><path class="cls-3" d="M83.49,90.07h0a11.54,11.54,0,0,1-2.15-1.68c-.21,1.49.29,1.49,1.34,2.21.34.2.52.82,1,.67s.71-1,.25-1.2"/><path class="cls-3" d="M76.32,100.06c.19,0,.19,0,0,0a11.43,11.43,0,0,1-2.14-1.67c-.23,1.48.28,1.48,1.33,2.19.33.23.51.81,1,.69a.7.7,0,0,0,.23-1.23"/><path class="cls-3" d="M68.39,109.06c.17,0,.21,0,0,0a10.39,10.39,0,0,1-2.1-1.65c-.2,1.45.29,1.45,1.31,2.15.34.22.5.79,1,.67a.68.68,0,0,0,.25-1.19"/><path class="cls-3" d="M62.81,118.43h0a11.52,11.52,0,0,1-2.08-1.62c-.21,1.44.29,1.41,1.3,2.14.34.22.51.78,1,.66a.66.66,0,0,0,.22-1.18"/><path class="cls-3" d="M55.89,129c.2,0,.2,0,0,0a10.89,10.89,0,0,1-2.09-1.63c-.22,1.45.28,1.44,1.31,2.14.32.22.49.8,1,.67a.67.67,0,0,0,.22-1.19"/><path class="cls-4" d="M134.53,68.39a.27.27,0,0,0,.06-.15"/><path class="cls-1" d="M96.73,44.28A18.36,18.36,0,0,0,99.6,45.8c1.1.64,2.11,1.51,3.22,2.13a22.31,22.31,0,0,1,7.67,6.79c1.7,2.8-7.51,11.35-8.41,15.39-.21.9-.49,1.77-.67,2.68s-.06,2.11-.35,3.09a6.82,6.82,0,0,1-1,2c-.32.4-.53.36-.9.55a12.54,12.54,0,0,1-1.28.69c-.76.06-2.82-2.07-3.37-2.48a31.9,31.9,0,0,1-3.6-2.87c-1-1-2-2.19-3-3.21C86.31,69,84.53,67.82,83.35,66c-.58-.87-1.31-1.63-1.9-2.49a5.3,5.3,0,0,1-1.28-3.66c.16-2.49,2.46-4.82,4.29-6.4a57.7,57.7,0,0,1,7.81-5.48c.55-.32,2.62-1.21,2.51-1.94"/><path class="cls-3" d="M127.58,68.61c-1-1.35-2.63-3.08-3.71-4.37-.27-.33-4.87,3.54-5.57,3.91-1.76.94-10.38,5.56-10.7,5.84-.14-.85,1.15-6.76,1.4-7.51a12.24,12.24,0,0,0,.62-2.47c.16-1.32,3.78-8.33,4.1-8.72s.62-1.14.62-1.14-2.34-.29-3.47-.29S99.09,58.91,99,61c1-.29,2.36-.76,3.35-.33s.8,1.65.46,2.56c-.47,1.24-1.09,2.44-1.62,3.68a9.6,9.6,0,0,1-1.66,2.93v.07a23.73,23.73,0,0,1-1.72,4,48.17,48.17,0,0,1-3,5.63,28.11,28.11,0,0,0-1.48,2.83,18.55,18.55,0,0,0-1.07,2.31c-.68,1.9-1.71,3.67-2.5,5.52-.57,1.41-1.39,2.68-2,4.06s-1,2.59-1.53,3.87a7.39,7.39,0,0,0-.73,2.7,15.91,15.91,0,0,0,.38,2A7.23,7.23,0,0,0,88,106.37c.57.51,1.79,1,2.52.62a6.79,6.79,0,0,0,.72-.7,6.22,6.22,0,0,1,1.47-.86,26.41,26.41,0,0,0,2.8-1.57,33.77,33.77,0,0,1,3.18-1.75,5.52,5.52,0,0,0,1.82-1.19,14.59,14.59,0,0,0,1.92-3.43,6.3,6.3,0,0,1,1.12-1.93c1-1,2-1.82,2.92-2.79a35.93,35.93,0,0,0,2.59-3.18,18.39,18.39,0,0,1,1.35-1.92,13,13,0,0,0,1.28-1.4c.23-.31,4.11-1.41,4.57-2.16,1.21-2,3-3.6,3.95-5.72.41-.91.72-1.87,1.15-2.81s1-1.7,1.41-2.58a6.18,6.18,0,0,1,1.73-2.41,3,3,0,0,1,2.35-.52,3.71,3.71,0,0,1,.55.43c.43.33.33.31.39.82,0,.33.15.38,0,.73s-.32.53-.44.84c.61,0,1.35-1.29,1.3-1.82A5.12,5.12,0,0,0,127.58,68.61Z"/><path class="cls-1" d="M104,78.71h0c-1-.1-1.4,2.54.15,2.44.61,0,.94-.57,1.1-1.14.19-.74-.24-1.19-.79-1.62"/><path class="cls-1" d="M99.65,85.7c-.39.32-1.83.81-1,1.75s1.7-.71.83-1.27"/><path class="cls-1" d="M94,94.3c0,.11,0,.13.1.06-.76-.91-1.87.43-1.24,1.25a.84.84,0,0,0,1.33,0A1.46,1.46,0,0,0,94,94"/><path class="cls-1" d="M89.09,100.63c-.24.37-.88.53-1,1.15a.82.82,0,0,0,.83,1c.68,0,1-.47,1-1.14s-.36-.74-1-1"/><path class="cls-1" d="M84.72,106.49c.08.26-.34.09-.62.19a1.85,1.85,0,0,0-.86.74c-.42.65-.44,1.24.33,1.55s1.12-.09,1.43-.73a1.86,1.86,0,0,0-.78-2.24"/><path class="cls-1" d="M78.7,113.14a.74.74,0,0,0,.12.13c-.92.13-1.41,1.56-.44,1.83a.81.81,0,0,0,1.1-.62c.18-.59-.14-.83-.29-1.34"/><path class="cls-1" d="M72.86,119.32c.07.2-.18,0-.34.31a3.61,3.61,0,0,0-.15.82c-.06.56.23,1.4,1,1.15,1.23-.42.53-2.13-.5-2.28"/><path class="cls-1" d="M66.85,125.81c-.87.32-.61,2,.49,1.35s.09-1.59-.81-1.51"/><path class="cls-1" d="M61.15,130.52l.11.13c-.6.3-1.54,1.39-1.12,2,.94,1.41,2.66-1.63,1.18-1.84"/><path class="cls-1" d="M55.31,136.7c.14.1.15.11,0,.05-1.12-.39-1.76,1.79-.35,1.89.72.06,1.09-.45,1.26-1.13.23-.9-.18-1-.94-1"/><path class="cls-5" d="M112,65.81s0,.07-.1,0a2.93,2.93,0,0,0-.09-.57,1.75,1.75,0,0,1,0-.82c.07-.23.17-.44.25-.66a.82.82,0,0,1,.18-.39,2.08,2.08,0,0,1,1-.35,3.47,3.47,0,0,1,.46-.13,2.07,2.07,0,0,1,.88.28c.36.16.68.38,1,.56a4.33,4.33,0,0,1,.85.6A3.94,3.94,0,0,1,117,65a1,1,0,0,1,.19.53,3.25,3.25,0,0,1-.1,1c-.15.45-.48.82-.67,1.27a2.16,2.16,0,0,1-.44.76l-.32.36a1.86,1.86,0,0,1-.22.27.6.6,0,0,1-.57,0,6.92,6.92,0,0,1-1.36-.55,2.88,2.88,0,0,1-1.14-.93,3,3,0,0,1-.33-.94c0-.22-.11-.43-.16-.65s0-.14,0-.24,0-.16.08-.31"/><path class="cls-5" d="M111.12,60.33l-1.41,3.27a6.6,6.6,0,0,0,2.72,3.77,16.23,16.23,0,0,0,3.24,2.18s2.63-1.4,4.12-2.42-2.74.24-5-1.85A18.19,18.19,0,0,1,111.12,60.33Z"/><path class="cls-3" d="M45.25,348.76c.8.85-.49,2-.15,2.9.57.11,1.15.92,1.58,1.31a15.29,15.29,0,0,0,2.09,1.84A17.43,17.43,0,0,0,51.48,356c.89.38,1.68.86,2.57,1.21a23.19,23.19,0,0,0,5.18,1.55,13.12,13.12,0,0,0,2.94-.11c.75-.08,2.08,0,2.64-.59-.7.14-1.57-.75-2.1-1.14a4.41,4.41,0,0,1-1.63-1.83c-.3-.63-.34-2-.83-2.5a11.85,11.85,0,0,0-1.51-.38c-.72-.25-1.44-.38-2.17-.56-2.11-.53-4.19-1.09-6.23-1.71-.93-.27-1.76-.59-2.71-.87-.53-.14-1.07-.11-1.61-.21a5.8,5.8,0,0,0-1.26-.34.66.66,0,0,0,.31.2"/><path class="cls-1" d="M52.26,354.28a14.72,14.72,0,0,0,3,2.2,27.2,27.2,0,0,0,9.23,2,53.74,53.74,0,0,1,5.27,4.28c.23-.11,1.43-2.78,1.74-2.87a1.91,1.91,0,0,1,.93.18c-.07.05-5.53,8.65-5.57,9.57s6.16,25.21,5.77,25.94c-.13.26-3,4.93-3.34,5.26s-.38.66-.9.54-5.3-6-6.78-8c-.87-1.15-10.5-18.7-10.61-19.52a23.8,23.8,0,0,0-2-3.74c-.31-.09-4.39,1.91-4.78,1.88s-7.44-11.13-7.91-11.77c-.14-.22-.36-.47-.5-.69s2.56-2.37,2.71-2.56a44.77,44.77,0,0,1,1.27-4.5c.27-.59,6.85-3.91,7.34-4C47.37,348.46,51.49,353.58,52.26,354.28Z"/><path class="cls-4" d="M103.53,27.78v.06"/><path class="cls-5" d="M132.85,93.46a.69.69,0,0,0,.07.15,1.21,1.21,0,0,1,0,.19c0,.12.05.25.06.36a4.12,4.12,0,0,1,0,.86,6.72,6.72,0,0,1-.1.8,6.58,6.58,0,0,0-.12.86c-.15,1-.09,2.11-.21,3.14-.07.53.17,1.68.17,2.23s-.3.37-.36.89c0,.28-.1.56-.15.85,0,.11,0,.24-.18.24s-.19-.15-.23-.26-.24-.33-.13-.59.69-3,.75-3.47a6.11,6.11,0,0,0,0-.74c0-.24,0-.48,0-.73v-.73c0-.15,0-.28,0-.42a1.12,1.12,0,0,0,0-.55"/><line class="cls-4" x1="130.93" y1="118.52" x2="130.95" y2="118.52"/><path class="cls-1" d="M100.58,77.19l0,0c-2.79-.06-2.85-4-5-5.49-2.6-1.76-3.86-2.37-5.33-5-1.81-3.3-5.5-5.74-4.85-9.31.54-2.84,1.28-6.12,3.86-8.07a22.43,22.43,0,0,1,7.18-3.74,8.5,8.5,0,0,1,1.76-.36.08.08,0,0,1,0-.07,1.93,1.93,0,0,0,.25,0c-3.62-2.45-12.86-2.44-12.86-2.44L81.09,44l-4.23.73-6.73,4.62-20.7,13.8L0,87s3.43,12.15,6,17.47c2.92,6,5.76,12.8,9.94,18.37,4.61,6.17,10.64,9.36,16.75,13.92,4.76,3.54,8.64,8.83,14.42,11,6.45-8.59,12.77-17.39,19.85-25.72C74.67,113,81,102.71,88,93c3-4.2,6.18-8,9.49-12,.53-.65,1.93-2.76,2.54-3.1l.81-.43C100.74,77.3,100.67,77.27,100.58,77.19Z"/><path class="cls-1" d="M119.37,24.85a91.31,91.31,0,0,0-3.44-9.37c-1,.09-1.89.41-2.88.55-1.48.22-3,.07-4.49.25a60,60,0,0,1-7.09.53c-1.57,0-3,.14-4.61.27s-3.49.07-5.19.26c-2.79.3-5.69.34-8.46.81-6.19,1.06-12.6,1.31-18.54,3.26-6.93,2.25-14.23,2.46-21.11,4.92-2.69,1-5.51,1.69-8.24,2.52-1.65.5-3.93.87-4.86,2.54-1.42,2.52.46,3.39,2.47,4.38,2.27,1.14,4.61,2.22,6.91,3.34A79.13,79.13,0,0,0,52.6,44.24c4.8,1.32,9.39,2.25,14.12,3.45a79.65,79.65,0,0,1,8.84,2.59,25.16,25.16,0,0,0,6.07,1.15,6.66,6.66,0,0,0,2.67-.28c.57-.18,1.21-.63,1.85-.53l7.19-4.53.22.17c.21-1.15-1.79-2.72-2.42-3.56-.75-1-1-2.54-2.06-3.33s-2.71-.35-4-.66c-.64-.14-1.17-.51-1.81-.67s-1.46-.25-2.19-.48A53.45,53.45,0,0,0,72.57,36a49,49,0,0,1-5.32-.73,14.88,14.88,0,0,0-3.91-.59c2,.13,4.14-.85,6-1.34,1.72-.44,3.46-.45,5.25-.73,5.39-.83,10.81-1.22,16.17-1.72,2.9-.26,5.82-.5,8.72-.74,1.71-.16,3.42-.12,5.1-.27,1.48-.14,2.93-.26,4.42-.26a33.16,33.16,0,0,0,6.38-.82c1.13-.19,2.34-.39,3.48-.53l1.09-.16A23.31,23.31,0,0,0,119.37,24.85Z"/><path class="cls-1" d="M123.09,28.36c0-.55-.47-1.23-.55-1.85s-.19-1.45-.26-2.12a11.53,11.53,0,0,0-1.6-5.07c-1.43-2.39-2.58-4.82-4.59-6.85-1.18-1.21-2.74-.93-4.2,0-.84.54-.71.81-.51,1.78a12.39,12.39,0,0,0,.49,2.65h-.13a90.78,90.78,0,0,1,3.41,9.3,24.65,24.65,0,0,1,.64,3.3,3.65,3.65,0,0,1,1.39,0c-.13,2.68,1.78,1.35,3.26.81C121.64,29.84,123.21,30,123.09,28.36Z"/><path class="cls-4" d="M113.09,60.54v.07"/><path class="cls-4" d="M130.3,43c0,.07,0,.14-.06.22"/><path class="cls-4" d="M131.31,36.89c.05.07.07.14.11.19"/><path class="cls-2" d="M165.72,36.31c-4.29-8.74-16.85-12.53-23.36-10.23a21.84,21.84,0,0,1-3.54,1s-11.27,7-12.71,8.35c-1.68,1.58-4.89,7.48-4.89,7.48s-1.43,4.41-1.77,6.24a12,12,0,0,0,1.39,8c2.35,3.81,9.95,8.1,15.35,8.34,2.46.11,15.47-5.07,17.59-5.56C155.29,59.59,173.52,52.2,165.72,36.31Z"/><path class="cls-6" d="M126.33,51.54c-.21,1.29-1.87,1.82-2.46,2.93s-.5,1.34.35,2.15c1,1,2.19,0,3.16-.56,1.15-.64,1.56,0,2.78.06a8.5,8.5,0,0,0-1-3.56c-.88-1.24-2.66-1.4-3.09-1"/><path class="cls-2" d="M174.44,83.4c-.84-1.28-4.53-3.18-5.88-3.65-.78-.28-3.61-1.29-2.67-2.23.72-.72,3.43,0,4.36.11.77.08,10.08,1.11,10.78.83,1.69-.66,1-1.87-.3-2.34s-14.38-1-13.62-2.84c1.08.06,2.07-.71,3.2-.76s13.47-2.51,14.63-3.08a1.59,1.59,0,0,0,.65-2.59c-.8-.85-13.67,2.39-14.6,2.49-1.19.14-2.25.83-3.53.7-2-.23-1.83-1-.61-1.89,1.61-1.19,10.29-4.44,11-5.87a4.91,4.91,0,0,0,.4-1.55c-1.92-.7-10.72,2.69-12.5,3.33-1.47.53-2.67,2.1-4.26,2.43-1.82.37-3.08-1.78-3.68-3.19-.82-1.88-.75-3-3.27-3.28-1.31,2.56,1.37,5.87.21,8.37a2.89,2.89,0,0,1-1.48,1.28c-2,2.28-3.09,5.81-.2,7.87,1.44,1,1.08,3.31,3,3.78.28.07.57.12.88.17a20.22,20.22,0,0,1,2.39-1.37c1.21-.48,2.46.12,3.61.7,2.45,1.23,7,4.3,9.91,4.45C174.32,85.35,175.63,85.2,174.44,83.4Z"/><path class="cls-2" d="M134.94,17.23c-1.47.25-2.11-.15-.87-1.66.83-1,2-1.28,3-2,.73-.58,8.8-5.45,8.77-6.57s-1.88-.78-2.93-.41a66.92,66.92,0,0,0-8.49,5.36c-.81.74-2,.92-2.76,1.72C129.81,12.92,139,3.08,139.54,2s.26-2.51-1.39-1.77c-.68.3-6.79,7.78-7.28,8.36s-2,3.08-3,3.1c-1.3,0,0-2.59.37-3.32.62-1.25,3-5.11,2.76-6.53-.39-2-1.41-1.22-2.42-.12-1.92,2.11-4.16,7.34-5,9.86-.42,1.19-.88,2.45-2.05,3a24.27,24.27,0,0,1-2.77.82.16.16,0,0,1-.1.14c-2.18,1.08-1.55,4.41-.1,5.81a11.3,11.3,0,0,1,2.16,2.74A5.88,5.88,0,0,0,122.44,26c.11,0,.22,0,.33,0,1.2,0,2.36-.94,3.48-.54,2.51.87,2.88,4.9,5.54,5.7,1.55-2,.77-2.64.07-4.45-.53-1.36-1.1-3.65.41-4.66,1.35-.9,3.25-.67,4.65-1.36,1.68-.81,8.75-4.58,9.64-6.37C144.36,12.67,137.44,16.81,134.94,17.23Z"/><path class="cls-2" d="M137.44,28.7c0,.1-.05.14-.14.1a2.76,2.76,0,0,0-2.57-2,6,6,0,0,0-3.8,1.5c-1.68,1.38-4,2.53-4.19,4.86.5.34.9.88,1.49.87a3.68,3.68,0,0,0,1.23-.38c.58-.18,1.16-.38,1.72-.58,1.74-.61,4.52-1.07,5.51-2.66"/><path class="cls-2" d="M158.41,57.39c.06.06.07.11,0,.16.88.34.5,1.55,0,2.08a8,8,0,0,1-2.59,1.55,16.53,16.53,0,0,1-2.63,1.23,6.42,6.42,0,0,1-2.82-.14c-.87-.11-1.68,0-1.8-1S150.06,60.19,151,60a43.23,43.23,0,0,0,4.45-1.12c1-.33,1.82-1,2.79-1.24"/><path class="cls-1" d="M130.26,52.59c3.13.77,5.45,2.14,6.72,5.21.57,1.35-2.48,6,4,6-2.33,1.3-7.34,1.29-9.14-.19-2.11-1.76-3.83-4-3.79-6.58A15.38,15.38,0,0,1,129.2,53a20.34,20.34,0,0,1-5.08-2.18c-1.65-1.31-1.71-10-.28-12.37.76,5.8-.54,2.85,4.19,4,2.55.63,3.15,7.39,2.36,9.36C130.3,51.69,130.26,52.59,130.26,52.59Z"/><path class="cls-1" d="M139.55,31.87c-.06.05-.06.07,0,.06.91-.53,2-.1,3,0a7.33,7.33,0,0,1,3.1.5,4.81,4.81,0,0,1,1.86,1.72,1.39,1.39,0,0,1,.19,1.18c-.11.42-.36.58-.55.92.6-.38,1.22-.72,1.78-1.14a10.71,10.71,0,0,0,.84-.81c.2-.19.53-.48.53-.75-.21,0-.43.12-.65.14s-.36,0-.55.05c-.51-.65-.48-1.89-.66-2.67-.3.21-.55.6-.88.71a6.4,6.4,0,0,0-2.24-1.34c-.63-.27-1.25-.56-1.92-.78-.16.15,0,.62.09.79a2.51,2.51,0,0,1-1.19.39c-.39.07-.72.21-1.09.27A6.47,6.47,0,0,0,139,32c.1-.11.28-.08.41,0"/><path class="cls-1" d="M153.35,45.8c0,.15.67-.28.84-.34a2.72,2.72,0,0,1,1.16-.22,3,3,0,0,1,1.91.35c-.28.17-.65.24-.93.41a4.57,4.57,0,0,1,2.81,2.71c-.3-.06-.83-.25-1.08,0,0,.26,0,.5,0,.77a5,5,0,0,1-.09,1,4.72,4.72,0,0,1-.1,1.12,6.77,6.77,0,0,1-.43.8.71.71,0,0,0-.12-.64c-.21,0-.28.41-.4.57s-.36.45-.5.7a5.13,5.13,0,0,1-1.1,1.41c-.87.77-1.47,1-1.31.82a5.52,5.52,0,0,0,2.07-4,13.75,13.75,0,0,0,0-1.7,5.2,5.2,0,0,0-.39-1.8,3.47,3.47,0,0,0-1.23-1.35c-.49-.28-1-.05-1.56,0,.18-.05.33-.09.41-.25"/><path class="cls-5" d="M134,37.65c-.19.73-.79,1.2-1.33,1.06a1.19,1.19,0,0,1-1-1.56,2.13,2.13,0,0,1,.94-1.2C132.94,35.77,134.21,37,134,37.65Z"/><path class="cls-5" d="M145.23,59.5a1.27,1.27,0,0,1-1.7,0,1.19,1.19,0,0,1,.2-1.85,2.12,2.12,0,0,1,1.5-.33C145.58,57.36,145.82,59.07,145.23,59.5Z"/><path class="cls-1" d="M135.79,28.47s-.2-.58-.37-.68a1.91,1.91,0,0,0-.81-.18,7,7,0,0,0-.8.11,1.65,1.65,0,0,0-.87.27c.17.13.51-.18.69-.22a1.45,1.45,0,0,1,.83.07,1.49,1.49,0,0,1,.59.52c.21.34,0,.48-.07.78.17-.1.8-.21.8-.46"/><path class="cls-1" d="M129.44,30c0,.09-.22.25-.29.35s-.19.26-.28.4a2.81,2.81,0,0,0-.56.88c-.11.42.16.69.55.59a.67.67,0,0,0,.42-.22c.11-.12.17-.45-.11-.29.12.24-.31.46-.47.27s.13-.55.22-.75.64-.95.47-1.19a.32.32,0,0,0-.18.14"/><path class="cls-1" d="M157.37,58.4c.17,0,.53.07.55.36s-.22.39-.32.51a2.46,2.46,0,0,1-.48.43,3.09,3.09,0,0,1-.29.17c-.11.1-.18.21-.31.26a4.13,4.13,0,0,0,.88-.78c.07-.08.28-.28.22-.41s-.37-.14-.48-.06c.28-.08.17-.41.47-.41"/><path class="cls-1" d="M153.53,61.42c0,.19-1.39.27-1.64.24a1.11,1.11,0,0,1-.4-.13,1,1,0,0,0-.25-.11,2.24,2.24,0,0,1-.31-.05c-.22-.21.15-.19.23-.19a2.53,2.53,0,0,1,.4-.12.24.24,0,0,0-.09-.11,1.27,1.27,0,0,0-.69.28c.13.37.84.48,1.19.44l.74-.06a2.11,2.11,0,0,0,.75-.08"/><path class="cls-1" d="M139.41,34.16c0,.24,1.93.53,2.31.73a4.11,4.11,0,0,1,1.81,1.94,4.83,4.83,0,0,1,.14,2.45c0,.56.14,1.77-.32,2.19a18.57,18.57,0,0,0-.12-2.22,4.71,4.71,0,0,0-.83-2.18A4.47,4.47,0,0,0,141,35.36c-.52-.33-1.08-.65-1.56-1a.14.14,0,0,1,.16.11.34.34,0,0,1-.19.14"/><path class="cls-1" d="M147.54,47.47c1.45.76,3,1.52,3.72,3.19a4.29,4.29,0,0,1-.1,4.11,8.72,8.72,0,0,0-.85-4.28,6.51,6.51,0,0,0-1.16-1.72c-.44-.46-1-.72-1.53-1.17a.72.72,0,0,0,.13.45"/><path class="cls-1" d="M142.21,36a.76.76,0,0,1,0,.11c-.39-.45-1.11,0-1.2.48s.22,1.5.78,1.56a1.38,1.38,0,0,0,1.19-1c.06-.44-.36-1.42-1-1.32"/><path class="cls-1" d="M150.89,51c.06.09.07.09,0,0-.31-.52-.48-.81-1.09-.93s-.84.26-.69.82c.11.38.54,1.11,1,1.11a1.94,1.94,0,0,0,.72-.41c.24-.26.09-.42.2-.79a.78.78,0,0,0-.26,0"/><path class="cls-1" d="M135.38,46.28c.25.32,0,1,0,1.41s.19.85.26,1.26a2.42,2.42,0,0,0,1.25,1.81,3.42,3.42,0,0,0,1.22.39c.1,0,.39-.06.46,0,.24.18.06.13.12.35.16.48.29,1.49,1.1,1.35-.15-.53-.1-1.52-.6-1.78-.35-.19-.76-.18-1.12-.4a5.49,5.49,0,0,1-1-.7,3.92,3.92,0,0,1-1.38-3.84c.1.12.07.2.06.35"/><path class="cls-1" d="M147.9,48.78c.06.18.5.33.69.53a8.14,8.14,0,0,1,.62.83,11.85,11.85,0,0,1,.73,1.24c.53,1.08,0,2.45-.59,3.45.71-.34.41-2.57.25-3.13s-.34-.89-.51-1.33a11,11,0,0,1-.59-1.19"/><path class="cls-1" d="M143.21,40.59l.11,0a7,7,0,0,0-1.6-2.94,3.37,3.37,0,0,0-3.28-.89,2.92,2.92,0,0,1,1.4.29,5.29,5.29,0,0,1,1.44,1,5.8,5.8,0,0,1,1.06,1.35c.17.27.35.48.52.76s.35.4.46.64c.22-.12.16-.44,0-.64"/><path class="cls-5" d="M132.46,92.84c.4.14.63,1.33.66,1.75.07.75,0,1.56,0,2.31,0,1.82-.32,3.57-.32,5.41,0,1.63.09,4.83-1.22,1.32-.3-.77-1.09-8.6-1.55-9.37s-1-.92-1.29-1.58"/><path class="cls-5" d="M131.57,103.45c.39.47.35,1.28.84,1.75a3,3,0,0,0,2.08.53c1.34-.13,4.15-2,4.15-2l.9-5s-2.83,0-2.94.08c-.28.08-.49.55-.64.78a4.21,4.21,0,0,1-3.45,2.16h0"/><path class="cls-5" d="M105.75,68.34c-1.88,1.81-1.84,3.68-2.43,6-1.07,4.35-1.84,10.73,0,15a10.86,10.86,0,0,0,5,5.26c2.62,1.53,4.82,1.54,7.8,1.54a23.64,23.64,0,0,0,7.21-1.54c2.2-.67,5.16-.82,7,.66.88.7,1.57,1.64,2.38,2.4-.12-1.22.48-2.45.3-3.78-.14-1.11-.6-1.42-1.25-2.33-1.16-1.61-4.48-2.47-6.57-2.71-4.9-.56-9,1.37-13.62,0-2.2-.65-4-4.27-3.82-6.58.18-2,2.55-4.52,3.75-6,.89-1.11,3-3.17,3-3.17s-.65-6.66-.62-7.3C112.67,65.41,107.5,66.67,105.75,68.34Z"/><path class="cls-1" d="M109.15,50.87c-1.26,1.34-11.85-8.36-13.58-9.71-.62-.47-1.85-2-2.67-2-.45,0-2.14,1.49-2.64,1.78-1.33.76-5,2.28-5.58,3.68.94.67,2.3,1.06,3.32,1.64A29,29,0,0,0,91.16,48c2,.81,4.45,1.48,6.57,2.44,1.88.86,3.16,2.81,5.29,2.16a42.25,42.25,0,0,0,6.06-2.23.91.91,0,0,0,.07-.74"/><path class="cls-5" d="M92.79,48.16,94,47.41a41.78,41.78,0,0,1,3.64-2.19l2-1L98.11,43,95.76,44.2c-1.26.69-2.51,1.4-3.71,2.19a16,16,0,0,0-1.34,1l.27.12C91.55,47.73,92.17,47.94,92.79,48.16Z"/><path class="cls-5" d="M98.44,50.44c1-.7,2.11-1.34,3.18-2,.61-.37,1.22-.73,1.84-1.08-.62-.48-1.24-1-1.86-1.49l-1.39.79c-1.21.71-2.43,1.41-3.59,2.19l-.61.44c.52.2,1,.4,1.54.63A7,7,0,0,1,98.44,50.44Z"/><path class="cls-5" d="M100.85,52a2.8,2.8,0,0,0,2,.11,49.41,49.41,0,0,0,5.09-1.78,11.67,11.67,0,0,1-2.12-1.22Z"/><path class="cls-5" d="M88.34,46.07c.37-.24.73-.49,1.09-.74a33.31,33.31,0,0,1,3.49-2c1.19-.6,2.39-1.18,3.59-1.77-.51-.43-.9-.76-1.13-.94a8,8,0,0,1-.65-.61c-1.18.58-2.38,1.13-3.55,1.72a29.71,29.71,0,0,0-3.24,1.88c-.65.44-1.31.87-2,1.26a20.25,20.25,0,0,1,1.87.86Z"/><path class="cls-3" d="M118.15,15.12a.27.27,0,0,0,.17.08,11.25,11.25,0,0,1,1.15-1.14c.38-.33.62-.79,1-1.05a2.12,2.12,0,0,1,.22.61c.12.3.28.59.4.89.27.65.5,1.36.71,2,.51,1.72.93,3.46,1.43,5.18.33,1.1.56,2.26.91,3.29a5.09,5.09,0,0,1,.5,2.29,6.31,6.31,0,0,1-1.94,0c-.37-.08-.56-.5-.7-.84-.52-1.26-.69-2.63-1.15-3.92-.6-1.7-1.2-3.39-1.68-5.12a15.29,15.29,0,0,1-.8-2.15"/><path class="cls-3" d="M150.73,68.64c.77.29,1.94,1.94,2.7,2.53,1.08.84,2.1,1.8,3.12,2.69,1.38,1.18,3.69,4.59,5.47,5,.07.78-1.41,2-2.16,2.28-2.14-1.79-4.09-3.77-6.37-5.4s-3.15-3.3-2.49-6a5.58,5.58,0,0,1-.58.18"/><path class="cls-3" d="M165.73,54.85c.18.43.41.38.79.59a13.66,13.66,0,0,1,1.93,1,17,17,0,0,0,2.38,1.71c.72.36,1.43.74,2.14,1.1.92.47,1.26.77,2,.08a23.86,23.86,0,0,0,6-8.23c1.11-2.71,1-5.29,1.23-8.14a13.14,13.14,0,0,0-.44-4.58c-.67-2.47-.77-5-1.4-7.49a33.76,33.76,0,0,0-7.85-14.1,21.24,21.24,0,0,0-15-7.14,33.35,33.35,0,0,0-9.06,1.15c.93,2.56.18,6.13.19,8.82,0,.46-.07,1.45.31,1.83s.31-.51.52-.42a4.82,4.82,0,0,1,1.33.95A27.13,27.13,0,0,1,155.71,28c2,3,4.2,5.84,6.07,9a59.65,59.65,0,0,1,3.36,7.57,15.7,15.7,0,0,1,1.3,4.27,13.89,13.89,0,0,1,.12,1.93,5.82,5.82,0,0,0-.06,1.76"/><path class="cls-1" d="M146.13,22.68c.81.57,3.56-2,4.65-2.15,1.69-.28,4,1.93,5.2,3a32.9,32.9,0,0,1,9.35,12.68c1.57,3.74,2.88,7.23,2.69,11.27a27,27,0,0,1-.78,6.27c-.29,1-.68,1-1.63,1.42-.69.29-1.82.33-2.33.75.66-1.19.35-2.34.16-3.56a37.8,37.8,0,0,0-.83-4.35,79.47,79.47,0,0,0-3.6-9.14,45.24,45.24,0,0,0-5.21-9.7,12.63,12.63,0,0,0-3.74-3.72c-1.07-.6-2.16-2.08-3.13-2.5a.4.4,0,0,0,.11.37"/><path class="cls-5" d="M146.17,22.41a.24.24,0,0,1,0,.27c.7-.13,2,.83,2.62,1.13a8,8,0,0,1,2.36,1.5,28.71,28.71,0,0,1,3.42,4c1.15,1.61,2.2,3.31,3.33,5a36.42,36.42,0,0,1,2.86,6.24,53.26,53.26,0,0,1,2.38,6.24c.48,1.71,1.34,3.84,1.36,5.62a7.44,7.44,0,0,1-.47,2.43c-.44,1-1.1,1-1.25-.16a32.42,32.42,0,0,0-1.17-5A70.47,70.47,0,0,0,159,42.31,75.56,75.56,0,0,0,155,34.79c-1.31-2.37-2.52-4.95-4.39-6.92-1.06-1.13-2.22-2.07-3.32-3.16A21.51,21.51,0,0,0,145,23.19c.38-.28.84-.24.92-.69"/><path class="cls-1" d="M145.54,22.68c-.51.5-3.78-.68-4.59-.73a11.83,11.83,0,0,1,2.05,1.3c.32.4,3.06,2.27,4.08,3A31.22,31.22,0,0,1,156,37.08c4.35,8.88,5.38,19.78,5.58,20.48a5.34,5.34,0,0,1,.38,2c-.24-1.59.87-2.77,1.26-4.16.26-.88-.26-1.46-.49-2.28s-.14-1.68-.31-2.41c-.8-3.47-1.85-6.94-2.82-10.4a20,20,0,0,0-2.46-4.67,33,33,0,0,0-3-4.43c-1.6-1.94-2.92-3.92-4.65-5.75a10.43,10.43,0,0,0-3.72-2.79,3.54,3.54,0,0,1,.16.34"/><path class="cls-5" d="M163.31,34.3a7.8,7.8,0,0,1-.82-2.07c-.1-.72.48-1.45.33-2.14a4.1,4.1,0,0,0,1.12-.76c.24-.18.56-.15.78-.37s.11-.6.29-.77c1-1,1.84.41,2.86.49a9.22,9.22,0,0,1,1.41,0,3.84,3.84,0,0,1,1.42.38c.25.17.21.56.43.77s.47.26.69.44c.5.43.81.6.94,1.31-.74.43-1.13.35-1.42,1.13-.21.6.19,1.37,0,2a1.39,1.39,0,0,1-.46.7c-.36.42-.44.27-.67.78s-.13,1.16-.91,1.37-.92-.59-1.62-.77-1.18.44-1.92.46c-1.06,0-2.7-1.84-2.28-3"/><path class="cls-1" d="M168,31.42a.08.08,0,0,0,0,0c.25-.06.49-.22.75-.31a5.58,5.58,0,0,1,.81-.18c.15,0,.51-.13.64,0s-.33.38-.45.45c-.51.28-1.09.45-1.61.71-.15.08-.15.07-.15.23a1.84,1.84,0,0,0,0,.41,2.5,2.5,0,0,0,.34.65c-.18.12-.41.24-.59.08a2.62,2.62,0,0,1-.37-.68c-.07-.12,0-.19-.21-.17a1.73,1.73,0,0,0-.37.11c-.26.1-.51.18-.77.29l-.33.14c-.16,0-.16,0-.19.16a1.42,1.42,0,0,0,0,.79,2.11,2.11,0,0,0,.72.88c.32.25.73.19,1.11.26a2.75,2.75,0,0,1-1.74.31,1.43,1.43,0,0,1-.5-.18,1.92,1.92,0,0,1-.36-.44,5.4,5.4,0,0,1-.44-.78,4.57,4.57,0,0,1-.3-2.22,1.82,1.82,0,0,1,.39-.8,1.48,1.48,0,0,1,.65-.48c0,.06.1.1.1.16s-.09.14-.13.19a1.74,1.74,0,0,0-.39.58,1.51,1.51,0,0,0,0,.6c0,.14,0,.33.07.44.21.26.86,0,1.1-.08a5,5,0,0,0,1-.41,2.9,2.9,0,0,0-.14-.77,3.32,3.32,0,0,1-.19-.86c.18-.13.46-.07.67-.11a2.71,2.71,0,0,1,.12.58,2.08,2.08,0,0,0,.21.59.72.72,0,0,1,.41,0"/><path class="cls-1" d="M148.72,11.43c.39.09,1-.35,1.46-.4a22.78,22.78,0,0,1,2.34-.07c1.76,0,3.51.17,5.27.25a14.65,14.65,0,0,1,8.15,3.07,46.73,46.73,0,0,1,4.46,3.82,26,26,0,0,1,3.09,4.45c.39.63.86,1.17,1.27,1.8A11.21,11.21,0,0,1,176,26.77c.2.53.5,1,.69,1.56s.43.89.59,1.35c.41,1.1.89,2.16,1.26,3.27,1.78,5.39,1,11.19-.35,16.59a16.41,16.41,0,0,1-2.76,6.31c-.41.53-.82,1.11-1.21,1.67s-1.17,1.31-1.14,1.82c.75.22,1,.62,1.66.13a18.09,18.09,0,0,0,1.44-1.21,21.66,21.66,0,0,0,2.76-2.9,26.37,26.37,0,0,0,2.56-3.64,21.17,21.17,0,0,0,1.78-4.95c.58-2.33.15-4.67-.07-7q-.44-4.56-1.16-9.07a41.43,41.43,0,0,0-2.43-9.21,30.66,30.66,0,0,0-1.74-3.55,20,20,0,0,0-3.24-4.14,20.3,20.3,0,0,0-8-4.78,30.73,30.73,0,0,0-11.39-1.76,10.93,10.93,0,0,0-4.65,1.41c-1,.61-2.12,1.24-2.25,2.51a3.44,3.44,0,0,0,.36.28.13.13,0,0,0,.18-.12"/><path class="cls-1" d="M111.59,15.33a2,2,0,0,1,.38.39c.16.15.3.32.45.49a5,5,0,0,1,.82,1.08c.33.69.54,1.43.84,2.13.13.32.21.65.34,1a3.72,3.72,0,0,1,.24.58,29.2,29.2,0,0,1,.76,4.55,11.61,11.61,0,0,1,.19,2.82.72.72,0,0,1-.33.06,3,3,0,0,0-.66.21c-.25.09-.51.17-.76.24-.41.13-.8.32-1.21.42A17.48,17.48,0,0,1,107,30c-1.85-.15-3.73,0-5.59-.13-.84-.05-1.68,0-2.49-.16.06-.38.15-.81.2-1.22a8.18,8.18,0,0,0,0-2.37,20,20,0,0,0-1.91-5.62,12.84,12.84,0,0,0-1.61-2.6,5.53,5.53,0,0,0-.75-.78c-.13-.1-.63-.36-.59-.51a7.78,7.78,0,0,1,1.19-.06c.43,0,.81-.05,1.23-.05h4.13a13.28,13.28,0,0,0,2.44-.24,18.74,18.74,0,0,1,2-.09c.66-.07,1.34,0,2,0,.39,0,.77-.14,1.16-.18s.84-.09,1.25-.12.51-.08.78-.09a4.12,4.12,0,0,0,.7-.05c.16,0,.73,0,.82-.08a.26.26,0,0,0-.15,0"/><path class="cls-5" d="M101.86,29.68c1,0,2,0,3.07,0,.11-.31.2-.63.28-.95a16.74,16.74,0,0,0,.05-7.22A10.25,10.25,0,0,0,104,18.27a18,18,0,0,0-1.55-2.15,12.36,12.36,0,0,1-1.93.17h-.42A12.12,12.12,0,0,1,101.12,18a12.44,12.44,0,0,1,1.25,4.39,22.2,22.2,0,0,1-.29,6.3C102,29,101.94,29.34,101.86,29.68Z"/><path class="cls-5" d="M111.81,29.25l.58-.14.43-.14a24.79,24.79,0,0,0,.38-5.57,19.14,19.14,0,0,0-2.13-7.9h-.27c-.22,0-.48,0-.7.05a3.42,3.42,0,0,0-.46,0,22.31,22.31,0,0,1,1.81,4.53A17.41,17.41,0,0,1,111.81,29.25Z"/><path class="cls-5" d="M107.42,22.89a17.07,17.07,0,0,1,.09,2,29.84,29.84,0,0,1-.35,4.9,12.53,12.53,0,0,0,1.62,0,20.92,20.92,0,0,0,.94-4.71,18.73,18.73,0,0,0-.55-6.83,9.8,9.8,0,0,0-1.08-2.46h0c-.39.05-.77.16-1.16.19-.66.05-1.34-.06-2,0l-.39,0a13,13,0,0,1,2.3,4.49A12.78,12.78,0,0,1,107.42,22.89Z"/><path class="cls-5" d="M99.62,29.59l.84,0a23.15,23.15,0,0,0,0-7.43,9.61,9.61,0,0,0-3.2-5.9h-.61a18.89,18.89,0,0,1,1.77,4.31A32.58,32.58,0,0,1,99.6,28C99.62,28.53,99.63,29.06,99.62,29.59Z"/><path class="cls-1" d="M146.8,77.55a1.57,1.57,0,0,0,.54.18,2.21,2.21,0,0,1,.77.3c.8.52,1.63.92,2.46,1.39.57.32,1.18.56,1.75.87A13.28,13.28,0,0,1,154,81.45c1,.77,1.91,1.65,2.87,2.48a14.49,14.49,0,0,1,2.59,2.72c.23.36.65.75.7,1.19a17.53,17.53,0,0,1,0,2c0,.93,0,1.88.06,2.8s0,1.72.05,2.56.06,1.44.14,2.16.15,1.3.17,2c0,.34,0,.7,0,1a2.77,2.77,0,0,1,0,.65,3.77,3.77,0,0,0-.48-.4c-.25-.12-.51-.2-.75-.33-.92-.48-1.83-1.06-2.78-1.48-.6-.26-1.21-.56-1.82-.78a16,16,0,0,0-1.82-.42,8.6,8.6,0,0,0-1.24-.17,3,3,0,0,0-.79,0,6.08,6.08,0,0,0-1.44.57,10.54,10.54,0,0,0-1.18.67,3.43,3.43,0,0,0-.86.84,6,6,0,0,0-.36.52,2.81,2.81,0,0,1-.29.54,6.66,6.66,0,0,1,.06-.76,9.55,9.55,0,0,1,.05-1.2c.05-.36.05-.74.08-1.1a8.24,8.24,0,0,0,0-1.49c-.13-.87-.15-1.8-.23-2.69s-.06-1.75-.07-2.6-.16-1.92-.19-2.88,0-2.21-.1-3.28c-.19-1.73-.56-3.61.06-5.29a6.66,6.66,0,0,0,.29-1.41.14.14,0,0,1,.11,0"/><path class="cls-5" d="M160,96.21a26.56,26.56,0,0,0-4.54-1.42,20.06,20.06,0,0,0-3.27-.52,12.33,12.33,0,0,0-3.69.18,5.21,5.21,0,0,0-1.44.54v0a7.42,7.42,0,0,1,0,1.49c0,.24,0,.49,0,.74a2.54,2.54,0,0,1,.36-.29,10.43,10.43,0,0,1,2.24-1.06,12,12,0,0,1,7.85.31,15.16,15.16,0,0,1,3.12,1.5c0-.43-.07-.86-.12-1.28Z"/><path class="cls-5" d="M146.25,81.47c.06.71.16,1.42.23,2.1,0,.12,0,.25,0,.38a18.34,18.34,0,0,0,3,.78,25.37,25.37,0,0,1,3.9,1,57.47,57.47,0,0,1,6.8,3.06c0-.29,0-.58,0-.88C155.83,85.28,150.92,83.62,146.25,81.47Z"/><path class="cls-5" d="M152.42,87.6c-1.59-.31-3.2-.58-4.81-.76-.34,0-.68-.06-1-.07v.07c0,.67.08,1.34.13,2,1.24,0,2.47-.2,3.71-.3a18.07,18.07,0,0,1,2.21,0,16.5,16.5,0,0,1,2.1.26c1.85.33,3.67.76,5.48,1.24,0-.29,0-.58,0-.86C157.61,88.69,155,88.11,152.42,87.6Z"/><path class="cls-5" d="M160,92a20.91,20.91,0,0,0-5-1,48.38,48.38,0,0,0-5.5-.37,18.73,18.73,0,0,0-2.7.16c0,.55,0,1.11.06,1.64,0,.38.06.76.09,1.15a12,12,0,0,1,3-1.24,14.71,14.71,0,0,1,4.77-.38,12.39,12.39,0,0,1,4.27,1,13,13,0,0,1,1.32.72c0-.51,0-1,0-1.53Z"/></g></g></svg>