<svg xmlns="http://www.w3.org/2000/svg" xmlns:xlink="http://www.w3.org/1999/xlink" viewBox="0 0 197.73 280.69"><defs><style>.cls-1,.cls-13,.cls-8{fill:none;}.cls-10,.cls-11,.cls-12,.cls-2,.cls-5,.cls-6,.cls-7{fill:#fff;}.cls-3{fill:#007293;}.cls-4{fill:#1d1d1b;}.cls-10,.cls-11,.cls-12,.cls-13,.cls-5,.cls-6,.cls-7,.cls-8{stroke:#1d1d1b;stroke-miterlimit:10;}.cls-5{stroke-width:3.05px;}.cls-6{stroke-width:3.24px;}.cls-7{stroke-width:2.64px;}.cls-8{stroke-width:1.28px;}.cls-9{fill:#e30613;}.cls-10{stroke-width:3.87px;}.cls-11{stroke-width:4.13px;}.cls-12{stroke-width:3.36px;}.cls-13{stroke-width:1.63px;}.cls-14{fill:url(#Neues_Musterfeld_1);}</style><pattern id="Neues_Musterfeld_1" data-name="Neues Musterfeld 1" width="255.33" height="255.33" patternTransform="translate(-644.85 4649.6) rotate(-90) scale(9.11)" patternUnits="userSpaceOnUse" viewBox="0 0 255.33 255.33"><rect class="cls-1" width="255.33" height="255.33"/><path class="cls-2" d="M255.33,0H0V255.33H255.33ZM10.48,24.67a2.32,2.32,0,1,1-2.31-2.32A2.32,2.32,0,0,1,10.48,24.67Zm0,29.5a2.32,2.32,0,1,1-2.31-2.32A2.32,2.32,0,0,1,10.48,54.17Zm0,29.5a2.32,2.32,0,1,1-2.31-2.32A2.32,2.32,0,0,1,10.48,83.67Zm0,29.5a2.32,2.32,0,1,1-2.31-2.32A2.32,2.32,0,0,1,10.48,113.17Zm0,29.5a2.32,2.32,0,1,1-2.31-2.32A2.32,2.32,0,0,1,10.48,142.67Zm0,29.5a2.32,2.32,0,1,1-2.31-2.32A2.32,2.32,0,0,1,10.48,172.17Zm0,29.5a2.32,2.32,0,1,1-2.31-2.32A2.32,2.32,0,0,1,10.48,201.67Zm0,29.5a2.32,2.32,0,1,1-2.31-2.32A2.32,2.32,0,0,1,10.48,231.17ZM28,6.67a2.32,2.32,0,1,1-2.31-2.32A2.32,2.32,0,0,1,28,6.67Zm19.5,18a2.32,2.32,0,1,1-2.31-2.32A2.32,2.32,0,0,1,47.48,24.67Zm0,29.5a2.32,2.32,0,1,1-2.31-2.32A2.32,2.32,0,0,1,47.48,54.17Zm0,29.5a2.32,2.32,0,1,1-2.31-2.32A2.32,2.32,0,0,1,47.48,83.67Zm0,29.5a2.32,2.32,0,1,1-2.31-2.32A2.32,2.32,0,0,1,47.48,113.17Zm0,29.5a2.32,2.32,0,1,1-2.31-2.32A2.32,2.32,0,0,1,47.48,142.67Zm0,29.5a2.32,2.32,0,1,1-2.31-2.32A2.32,2.32,0,0,1,47.48,172.17Zm0,29.5a2.32,2.32,0,1,1-2.31-2.32A2.32,2.32,0,0,1,47.48,201.67Zm0,29.5a2.32,2.32,0,1,1-2.31-2.32A2.32,2.32,0,0,1,47.48,231.17ZM65,6.67a2.32,2.32,0,1,1-2.31-2.32A2.32,2.32,0,0,1,65,6.67Zm19.5,18a2.32,2.32,0,1,1-2.31-2.32A2.32,2.32,0,0,1,84.48,24.67Zm0,29.5a2.32,2.32,0,1,1-2.31-2.32A2.32,2.32,0,0,1,84.48,54.17Zm0,29.5a2.32,2.32,0,1,1-2.31-2.32A2.32,2.32,0,0,1,84.48,83.67Zm0,29.5a2.32,2.32,0,1,1-2.31-2.32A2.32,2.32,0,0,1,84.48,113.17Zm0,29.5a2.32,2.32,0,1,1-2.31-2.32A2.32,2.32,0,0,1,84.48,142.67Zm0,29.5a2.32,2.32,0,1,1-2.31-2.32A2.32,2.32,0,0,1,84.48,172.17Zm0,29.5a2.32,2.32,0,1,1-2.31-2.32A2.32,2.32,0,0,1,84.48,201.67Zm0,29.5a2.32,2.32,0,1,1-2.31-2.32A2.32,2.32,0,0,1,84.48,231.17ZM102,6.67a2.32,2.32,0,1,1-2.31-2.32A2.32,2.32,0,0,1,102,6.67Zm19.5,18a2.32,2.32,0,1,1-2.31-2.32A2.32,2.32,0,0,1,121.48,24.67Zm0,29.5a2.32,2.32,0,1,1-2.31-2.32A2.32,2.32,0,0,1,121.48,54.17Zm0,29.5a2.32,2.32,0,1,1-2.31-2.32A2.32,2.32,0,0,1,121.48,83.67Zm0,29.5a2.32,2.32,0,1,1-2.31-2.32A2.32,2.32,0,0,1,121.48,113.17Zm0,29.5a2.32,2.32,0,1,1-2.31-2.32A2.32,2.32,0,0,1,121.48,142.67Zm0,29.5a2.32,2.32,0,1,1-2.31-2.32A2.32,2.32,0,0,1,121.48,172.17Zm0,29.5a2.32,2.32,0,1,1-2.31-2.32A2.32,2.32,0,0,1,121.48,201.67Zm0,29.5a2.32,2.32,0,1,1-2.31-2.32A2.32,2.32,0,0,1,121.48,231.17ZM139,6.67a2.32,2.32,0,1,1-2.31-2.32A2.32,2.32,0,0,1,139,6.67Zm19.5,18a2.32,2.32,0,1,1-2.31-2.32A2.32,2.32,0,0,1,158.48,24.67Zm0,29.5a2.32,2.32,0,1,1-2.31-2.32A2.32,2.32,0,0,1,158.48,54.17Zm0,29.5a2.32,2.32,0,1,1-2.31-2.32A2.32,2.32,0,0,1,158.48,83.67Zm0,29.5a2.32,2.32,0,1,1-2.31-2.32A2.32,2.32,0,0,1,158.48,113.17Zm0,29.5a2.32,2.32,0,1,1-2.31-2.32A2.32,2.32,0,0,1,158.48,142.67Zm0,29.5a2.32,2.32,0,1,1-2.31-2.32A2.32,2.32,0,0,1,158.48,172.17Zm0,29.5a2.32,2.32,0,1,1-2.31-2.32A2.32,2.32,0,0,1,158.48,201.67Zm0,29.5a2.32,2.32,0,1,1-2.31-2.32A2.32,2.32,0,0,1,158.48,231.17ZM176,6.67a2.32,2.32,0,1,1-2.31-2.32A2.32,2.32,0,0,1,176,6.67Zm19.5,18a2.32,2.32,0,1,1-2.31-2.32A2.32,2.32,0,0,1,195.48,24.67Zm0,29.5a2.32,2.32,0,1,1-2.31-2.32A2.32,2.32,0,0,1,195.48,54.17Zm0,29.5a2.32,2.32,0,1,1-2.31-2.32A2.32,2.32,0,0,1,195.48,83.67Zm0,29.5a2.32,2.32,0,1,1-2.31-2.32A2.32,2.32,0,0,1,195.48,113.17Zm0,29.5a2.32,2.32,0,1,1-2.31-2.32A2.32,2.32,0,0,1,195.48,142.67Zm0,29.5a2.32,2.32,0,1,1-2.31-2.32A2.32,2.32,0,0,1,195.48,172.17Zm0,29.5a2.32,2.32,0,1,1-2.31-2.32A2.32,2.32,0,0,1,195.48,201.67Zm0,29.5a2.32,2.32,0,1,1-2.31-2.32A2.32,2.32,0,0,1,195.48,231.17ZM213,6.67a2.32,2.32,0,1,1-2.31-2.32A2.32,2.32,0,0,1,213,6.67Zm19.5,18a2.32,2.32,0,1,1-2.31-2.32A2.32,2.32,0,0,1,232.48,24.67Zm0,29.5a2.32,2.32,0,1,1-2.31-2.32A2.32,2.32,0,0,1,232.48,54.17Zm0,29.5a2.32,2.32,0,1,1-2.31-2.32A2.32,2.32,0,0,1,232.48,83.67Zm0,29.5a2.32,2.32,0,1,1-2.31-2.32A2.32,2.32,0,0,1,232.48,113.17Zm0,29.5a2.32,2.32,0,1,1-2.31-2.32A2.32,2.32,0,0,1,232.48,142.67Zm0,29.5a2.32,2.32,0,1,1-2.31-2.32A2.32,2.32,0,0,1,232.48,172.17Zm0,29.5a2.32,2.32,0,1,1-2.31-2.32A2.32,2.32,0,0,1,232.48,201.67Zm0,29.5a2.32,2.32,0,1,1-2.31-2.32A2.32,2.32,0,0,1,232.48,231.17ZM250,6.67a2.32,2.32,0,1,1-2.31-2.32A2.32,2.32,0,0,1,250,6.67Zm-222,30a2.32,2.32,0,1,1-2.31-2.31A2.31,2.31,0,0,1,28,36.71Zm37,0a2.32,2.32,0,1,1-2.31-2.31A2.31,2.31,0,0,1,65,36.71Zm37,0a2.32,2.32,0,1,1-2.31-2.31A2.31,2.31,0,0,1,102,36.71Zm37,0a2.32,2.32,0,1,1-2.31-2.31A2.31,2.31,0,0,1,139,36.71Zm37,0a2.32,2.32,0,1,1-2.31-2.31A2.31,2.31,0,0,1,176,36.71Zm37,0a2.32,2.32,0,1,1-2.31-2.31A2.31,2.31,0,0,1,213,36.71Zm37,0a2.32,2.32,0,1,1-2.31-2.31A2.31,2.31,0,0,1,250,36.71ZM28,66.76a2.32,2.32,0,1,1-2.31-2.31A2.31,2.31,0,0,1,28,66.76Zm37,0a2.32,2.32,0,1,1-2.31-2.31A2.31,2.31,0,0,1,65,66.76Zm37,0a2.32,2.32,0,1,1-2.31-2.31A2.31,2.31,0,0,1,102,66.76Zm37,0a2.32,2.32,0,1,1-2.31-2.31A2.31,2.31,0,0,1,139,66.76Zm37,0a2.32,2.32,0,1,1-2.31-2.31A2.31,2.31,0,0,1,176,66.76Zm37,0a2.32,2.32,0,1,1-2.31-2.31A2.31,2.31,0,0,1,213,66.76Zm37,0a2.32,2.32,0,1,1-2.31-2.31A2.31,2.31,0,0,1,250,66.76ZM28,96.81a2.32,2.32,0,1,1-2.31-2.31A2.32,2.32,0,0,1,28,96.81Zm37,0a2.32,2.32,0,1,1-2.31-2.31A2.32,2.32,0,0,1,65,96.81Zm37,0a2.32,2.32,0,1,1-2.31-2.31A2.32,2.32,0,0,1,102,96.81Zm37,0a2.32,2.32,0,1,1-2.31-2.31A2.32,2.32,0,0,1,139,96.81Zm37,0a2.32,2.32,0,1,1-2.31-2.31A2.32,2.32,0,0,1,176,96.81Zm37,0a2.32,2.32,0,1,1-2.31-2.31A2.32,2.32,0,0,1,213,96.81Zm37,0a2.32,2.32,0,1,1-2.31-2.31A2.32,2.32,0,0,1,250,96.81ZM28,126.86a2.32,2.32,0,1,1-2.31-2.32A2.32,2.32,0,0,1,28,126.86Zm37,0a2.32,2.32,0,1,1-2.31-2.32A2.32,2.32,0,0,1,65,126.86Zm37,0a2.32,2.32,0,1,1-2.31-2.32A2.32,2.32,0,0,1,102,126.86Zm37,0a2.32,2.32,0,1,1-2.31-2.32A2.32,2.32,0,0,1,139,126.86Zm37,0a2.32,2.32,0,1,1-2.31-2.32A2.32,2.32,0,0,1,176,126.86Zm37,0a2.32,2.32,0,1,1-2.31-2.32A2.32,2.32,0,0,1,213,126.86Zm37,0a2.32,2.32,0,1,1-2.31-2.32A2.32,2.32,0,0,1,250,126.86Zm-222,30a2.32,2.32,0,1,1-2.31-2.31A2.31,2.31,0,0,1,28,156.9Zm37,0a2.32,2.32,0,1,1-2.31-2.31A2.31,2.31,0,0,1,65,156.9Zm37,0a2.32,2.32,0,1,1-2.31-2.31A2.31,2.31,0,0,1,102,156.9Zm37,0a2.32,2.32,0,1,1-2.31-2.31A2.31,2.31,0,0,1,139,156.9Zm37,0a2.32,2.32,0,1,1-2.31-2.31A2.31,2.31,0,0,1,176,156.9Zm37,0a2.32,2.32,0,1,1-2.31-2.31A2.31,2.31,0,0,1,213,156.9Zm37,0a2.32,2.32,0,1,1-2.31-2.31A2.31,2.31,0,0,1,250,156.9ZM28,187a2.32,2.32,0,1,1-2.31-2.31A2.31,2.31,0,0,1,28,187Zm37,0a2.32,2.32,0,1,1-2.31-2.31A2.31,2.31,0,0,1,65,187Zm37,0a2.32,2.32,0,1,1-2.31-2.31A2.31,2.31,0,0,1,102,187Zm37,0a2.32,2.32,0,1,1-2.31-2.31A2.31,2.31,0,0,1,139,187Zm37,0a2.32,2.32,0,1,1-2.31-2.31A2.31,2.31,0,0,1,176,187Zm37,0a2.32,2.32,0,1,1-2.31-2.31A2.31,2.31,0,0,1,213,187Zm37,0a2.32,2.32,0,1,1-2.31-2.31A2.31,2.31,0,0,1,250,187ZM28,217a2.32,2.32,0,1,1-2.31-2.31A2.32,2.32,0,0,1,28,217Zm37,0a2.32,2.32,0,1,1-2.31-2.31A2.32,2.32,0,0,1,65,217Zm37,0a2.32,2.32,0,1,1-2.31-2.31A2.32,2.32,0,0,1,102,217Zm37,0a2.32,2.32,0,1,1-2.31-2.31A2.32,2.32,0,0,1,139,217Zm37,0a2.32,2.32,0,1,1-2.31-2.31A2.32,2.32,0,0,1,176,217Zm37,0a2.32,2.32,0,1,1-2.31-2.31A2.32,2.32,0,0,1,213,217Zm37,0a2.32,2.32,0,1,1-2.31-2.31A2.32,2.32,0,0,1,250,217ZM28,247a2.32,2.32,0,1,1-2.31-2.31A2.32,2.32,0,0,1,28,247Zm37,0a2.32,2.32,0,1,1-2.31-2.31A2.32,2.32,0,0,1,65,247Zm37,0a2.32,2.32,0,1,1-2.31-2.31A2.32,2.32,0,0,1,102,247Zm37,0a2.32,2.32,0,1,1-2.31-2.31A2.32,2.32,0,0,1,139,247Zm37,0a2.32,2.32,0,1,1-2.31-2.31A2.32,2.32,0,0,1,176,247Zm37,0a2.32,2.32,0,1,1-2.31-2.31A2.32,2.32,0,0,1,213,247Zm37,0a2.32,2.32,0,1,1-2.31-2.31A2.32,2.32,0,0,1,250,247Z"/></pattern></defs><g id="Ebene_2" data-name="Ebene 2"><g id="Ebene_1-2" data-name="Ebene 1"><path class="cls-3" d="M83.5,203c0,.08.07.15.12.23-.92.41-3.8-.65-3.38,1.36a15.9,15.9,0,0,1,2.05.66c.94.72-.08.53-.42.77s-1.23.42-1,1.16,1.5.29,2,.93c-.75.83-.5,1.45.19,2A4.33,4.33,0,0,1,84.67,212c.3.62.81,1.31,1.07,1.85a3.56,3.56,0,0,1,.08,2.77c-.36,1.16-.94,1.45.46,2.08a13.46,13.46,0,0,0,2.91.71,12.51,12.51,0,0,0,6-.55c1.07-.33,3.83-1.13,4-2.41.13-1.55-2.35-2.22-2.9-3.61A10.41,10.41,0,0,1,96,210.1a11.82,11.82,0,0,0-1-2.36,8.06,8.06,0,0,1-.3-1.17c.12-.45.85-.46,1-.93.29-1-1.53-1.33-2.21-1,.38-1.43-1.25-1.35-2.12-1.25a10.09,10.09,0,0,1-3.51,0c-1.12-.23-2.1-1-3.15-1.07s-2.19,1-3.39.49"/><path class="cls-4" d="M85.29,220.68c-.1-.63-.3-1.22-.43-1.82-.07-.39-.11-.5.33-.52.25,0,.55,0,.8.06a10.73,10.73,0,0,0,2,0c.43,0,2.12,0,2,.49-.5.21-.7.78-1,1.15s-.51.81-.29,1.24c.45-.25.8-.67,1.25-.89s1-.58,1.53-.85,1.35-.45,2-.78,1.16-.61,1.76-.92a7.27,7.27,0,0,0,1.91-1.12c.4-.38.91-.76,1-1.26a1.47,1.47,0,0,0-.48-1.3,2.27,2.27,0,0,1-.72-1.41c1-.3,1.53.16,2.31.62.41.22.84.35,1.07.75s.52.8.83,1.21a7.11,7.11,0,0,1,1.09,2,9.43,9.43,0,0,1,.27,1c.06.38.27.59.18,1a6.15,6.15,0,0,1-3.28,4c-.91.45-1.84.86-2.71,1.28-.64.3-1.28.65-1.94.94-.85.38-1.54,1-2.38,1.36-1.4.67-2.76,1.54-4.14,2.29-.87.48-1.58,1.19-2.45,1.67a16.67,16.67,0,0,1-1.76.84c-.91.4-1.85.66-2.74,1.09a3.44,3.44,0,0,1-2.69.3c-1.66-.75-.57-2.73-.08-3.9a32.94,32.94,0,0,1,2.67-4c.67-1.06,1.29-2.17,2.06-3.21.3-.4.63-.79.9-1.21s.33-.73.89-.73c.17.21.11.75.46.76"/><path class="cls-4" d="M147.47,217.53c-4.68.66-15.83,11.68-15.78,23.16-.57,23.91,7.09,38.64,20.47,39.75l2.8.25.34-.55c.13-.05.29-.06.46-.11a8.24,8.24,0,0,1,1.79-.24,16.32,16.32,0,0,0,7.53-1.78A32,32,0,0,0,176,269.06a70.64,70.64,0,0,0,5.47-7.74A28.38,28.38,0,0,0,184.78,251a34.83,34.83,0,0,0-.87-13.85c-1.81-6.65-11.78-17.07-15.51-18C167.34,218.92,149,217.3,147.47,217.53Zm6.3,9.43a32,32,0,0,1,7.78.56c2.23,1.25,11.18,4.33,13.33,13.74a24.25,24.25,0,0,1,.4,7.78,15.27,15.27,0,0,1-1.73,5.66,63.21,63.21,0,0,1-4.41,6.19,22.91,22.91,0,0,1-7.56,6.33c-3.05,1.47-8.36,1.59-8.89,1.6-15.71-1.65-14.1-24-10.7-31.46S150.26,228.77,153.77,227Z"/><path class="cls-5" d="M170.82,245.77c-.18-2.52-.89-4.83-2.69-6-1.54-1-2.89-1.95-4.6-1.43s-3.26,3.34-3.88,5.59c-1.23,4.24.13,10.37,3.82,10.58,1.94.12,3.74.09,5.27-1.66C169.53,252,170.94,247.5,170.82,245.77Z"/><path class="cls-4" d="M162.6,249.51a4.6,4.6,0,0,1,1.08-6.23,2.82,2.82,0,0,1,4.46,1.62c.89,2.58-.16,3.44-1.42,5.55C166.72,250.45,163.82,251.39,162.6,249.51Z"/><path class="cls-6" d="M153.69,246.72c-.21-2.51-1-4.8-3.07-5.94-1.74-1-3.3-2-5.24-1.44s-3.66,3.32-4.37,5.59c-1.38,4.23.16,10.36,4.36,10.58,2.2.12,4.23.1,6-1.66C152.24,253,153.84,248.48,153.69,246.72Z"/><path class="cls-4" d="M145.46,250.48a4.63,4.63,0,0,1,1.1-6.23,2.81,2.81,0,0,1,4.45,1.63c.89,2.6-.18,3.44-1.43,5.53C149.58,251.41,146.69,252.36,145.46,250.48Z"/><path class="cls-7" d="M151.68,246.88c-.16-2.08-.83-4-2.45-4.95-1.38-.8-2.62-1.64-4.16-1.2s-2.91,2.77-3.5,4.65c-1.1,3.52.15,8.63,3.47,8.81,1.76.1,3.39.08,4.77-1.36A13.35,13.35,0,0,0,151.68,246.88Z"/><path class="cls-4" d="M143.44,250.55a4.61,4.61,0,0,1,1.09-6.22A2.81,2.81,0,0,1,149,246c.89,2.58-.16,3.45-1.42,5.56C147.56,251.51,144.68,252.43,143.44,250.55Z"/><path class="cls-4" d="M164.44,245.6a6.28,6.28,0,0,0,0,1,.84.84,0,0,0,0,.28l.16,0a.69.69,0,0,1-.17.1c0,.44,0,.87,0,1.33s.09,1.29-.31,1.52-.88,0-1.15,0-.61.06-.91.08a35,35,0,0,1-4.39-.33c-1.08,0-2.15-.16-3.2-.17a10.73,10.73,0,0,1-2.14-.17l.54-.95a1.77,1.77,0,0,1-.56-.51l-.32,0a.4.4,0,0,1,.29-.13,1.5,1.5,0,0,1-.18-.48,4.06,4.06,0,0,1,.16-1.43c.18-.56.39-.9,1.07-.81a10.86,10.86,0,0,0,1.64.15c1.68.05,3.31-.06,5,0,.89,0,1.84.12,2.73.06a9.82,9.82,0,0,0,1.12-.13c.31-.06.63-.26,1-.17C164.73,245.09,164.49,245.32,164.44,245.6Z"/><path class="cls-8" d="M160.14,252.86c.08-.09.08-.09,0,0a11.11,11.11,0,0,0-.86,2.51c-.79,2.26-1.86,4.39-2.78,6.59a45.11,45.11,0,0,0-2,5.32,11.67,11.67,0,0,1-.46,1.81c0-.13,0-.16.11-.27"/><path class="cls-8" d="M159.21,251.06s-.12.07-.23.17a3.31,3.31,0,0,0-.53.6,19.35,19.35,0,0,1-4.1,3.21,34.53,34.53,0,0,0-3.92,2.54c-1.14.94-2.42,1.66-3.51,2.68-.73.7-1.44,1.41-2.2,2.08a11.46,11.46,0,0,0-1.44,1.24,1.79,1.79,0,0,1,.25-.22"/><path class="cls-8" d="M159,248.77c-.21-.11-.61.09-.86.15-.52.15-1.05.22-1.56.33-2,.4-4,1.13-5.93,1.7-1.35.4-2.64.94-4,1.32s-2.8.56-4.18,1c-.4.14-.79.21-1.17.33s-.84.33-1.06.22"/><path class="cls-8" d="M159.28,246.58s.06-.05.08-.09a5.73,5.73,0,0,0-1.86-.56c-1.07-.33-2.13-.6-3.2-.88-1.64-.41-3.25-1-4.87-1.39-1.44-.4-2.87-.91-4.26-1.4-.8-.29-1.62-.39-2.37-.61a5.63,5.63,0,0,0-1.75-.44"/><path class="cls-8" d="M158.55,244.39a41.24,41.24,0,0,1-3.5-2.3,19.93,19.93,0,0,0-2.71-1.58,10.15,10.15,0,0,1-1.76-1.39c-.59-.46-1.21-.93-1.77-1.45a29.57,29.57,0,0,0-3.12-2.44,19.65,19.65,0,0,1-1.66-1.16"/><path class="cls-8" d="M159.88,242.22a3.25,3.25,0,0,0-.49-.35,4.85,4.85,0,0,1-.89-1.21,45.56,45.56,0,0,0-3.59-4.33c-1.48-1.67-2.85-3.44-4.18-5.23-.61-.83-1.22-1.67-1.87-2.49-.17-.23-.53-.81-.77-.91.36.43.62,1,1,1.37"/><path class="cls-8" d="M161.27,240.48c0-.35-.37-.74-.46-1.09a17.76,17.76,0,0,1-.23-1.91,17.47,17.47,0,0,0-.38-1.71c-.69-2.85-1.5-5.73-2.08-8.6a1.25,1.25,0,0,1,.47.75"/><path class="cls-8" d="M162.51,237.67a5.62,5.62,0,0,1,.18-1.22c.13-1.11.15-2.21.25-3.33.23-1.81.59-3.68.66-5.51a6.71,6.71,0,0,1,0-1.35c.12.19.05.45.06.7"/><path class="cls-8" d="M166,238.37a5.5,5.5,0,0,1,.72-2.13,37.83,37.83,0,0,0,1.22-3.91c.12-.42.3-1.29.73-1.51a.65.65,0,0,1,0,.31"/><path class="cls-8" d="M168.14,239.66c.74-.79,1.49-1.66,2.24-2.48a16.14,16.14,0,0,1,3.21-2.62"/><path class="cls-8" d="M170.71,241.48a.07.07,0,0,0-.06-.09,8.77,8.77,0,0,0,2.21-.29,14.86,14.86,0,0,1,3.51-.43h-.17"/><path class="cls-8" d="M171.74,244.85c.45-.52,4.6.68,4.48.09"/><path class="cls-8" d="M171.4,246.72c.68,0,1.21.48,1.74.86s1.41,1.4,2.11,1.4"/><path class="cls-8" d="M170.67,248.79c.61-.29,2.74,5.51,3,6.29l-.1-.09"/><path class="cls-8" d="M170.13,252.33s.06,0,0-.06a8.06,8.06,0,0,0,.24,2.7,30.75,30.75,0,0,0,.5,3.29c.05.23.14.88.27,1"/><path class="cls-8" d="M162.73,255.21a32.65,32.65,0,0,0-1.13,3.68c-.49,1.93-.7,4-1.38,5.85a6.11,6.11,0,0,0-.44,1.57,8.07,8.07,0,0,1-.3,1.57c-.11.31-.55,1.22-.25,1.42"/><path class="cls-8" d="M150.52,255.46c.17.15.09.58.09.82,0,1.78,0,3.56,0,5.34-.05,2-.1,4.07-.14,6.06"/><path class="cls-8" d="M152.29,254.57a.25.25,0,0,1,.19,0,3.21,3.21,0,0,0,.32,1c.64,1.88,1.2,3.79,2,5.61.64,1.46,1.39,2.83,2.14,4.21.54,1,1.75,2.42,1.9,3.66-.12,0,0-.1-.08-.19"/><path class="cls-8" d="M153.63,251.58c0-.07,0-.11.05-.13a41,41,0,0,0,5.89,7.22,33.47,33.47,0,0,0,3.69,3c.78.61,1.53,1.3,2.33,1.91a2.39,2.39,0,0,1,.74.6.62.62,0,0,1-.36-.1"/><path class="cls-8" d="M147.8,255.63c0,.3-.37,1.19-.45,1.62-.37,1.6-.79,3.2-1.28,4.8a27,27,0,0,0-.91,3.9,7.19,7.19,0,0,0-.15,1.29c0-.11,0-.21,0-.3"/><path class="cls-8" d="M143.69,241a1,1,0,0,1-.47-.42,7.58,7.58,0,0,1-.53-1.35,18.22,18.22,0,0,0-.92-2c-.52-1.16-1.08-2.31-1.68-3.44a5,5,0,0,0-.72-1.16c.13.11.26.25.38.37"/><path class="cls-8" d="M146.66,239.44c.14-.21.08-.45.09-.71,0-.83.06-1.66.05-2.49a39.6,39.6,0,0,1,.53-5.23c.13-1,.34-2,.51-3.07a5.55,5.55,0,0,1,.22-1.12.53.53,0,0,1,0,.25"/><path class="cls-8" d="M149.74,241.39a3.26,3.26,0,0,0,.4-1.21c.44-1.64,1.1-3.27,1.67-4.85.24-.66,3.83-10.39,5-9.65"/><path class="cls-8" d="M153,241.44c.11-.17.09-.35.2-.5a5.06,5.06,0,0,1,.73-.66c1.45-1.36,2.66-3,4.1-4.36s3.07-2.8,4.7-4.14a12.18,12.18,0,0,0,2.63-2.27"/><path class="cls-8" d="M153.28,244.79c.56-.34,1.06-.83,1.6-1.2,1.19-.87,2.47-1.54,3.65-2.36,1-.75,2-1.52,3-2.29a61.74,61.74,0,0,1,6.11-4.07,39.65,39.65,0,0,0,4.32-2.41.81.81,0,0,0-.38,0"/><path class="cls-8" d="M150.71,266c.28.2,0,1.29,0,1.6-.1.88,0,1.8-.06,2.69"/><path class="cls-4" d="M174,181.66c.77,1.56,3.68,1.93,5,3.5,1.17,1.38,1,.79,1.08,2.54a18.87,18.87,0,0,1-.64,3.75c-.63,3.57-1.06,8.4-4.43,10.42-3.65,2.18-10.07,2-14.17,1.9a154.61,154.61,0,0,0-16.26.78c-4,.31-8,.4-12.25.76-4,.35-8.24-.25-12.14.11-1.37.09-4.72.4-6-.49-1.59-1.11-1-4.86-.47-6.74,1.7-5.45,10.73-6,15.56-7.63a176.8,176.8,0,0,1,24.5-6.93,67.52,67.52,0,0,1,11.2-.79c2.35-.05,7-1.48,8.73.44"/><path class="cls-9" d="M156.46,132.27c.79.65,1.38,1.7,2.47,2.55,1.65,1.28,3.36,2.48,5,3.79a62.94,62.94,0,0,1,9.56,9.85c3.79,4.82,5.76,32.92,3.23,35.76-5.18,5.76-5.23,10-15.11,10.43-4.46.21-11.27-1.56-15.83-2.47-1.83-.35-7.3-3.88-8.82-5.5-9.8-10.53-25.68-16.25-25.68-16.25l6.48,15.83s14.84,26.65,18.23,31.36c1,1.33,2.25,1.6,3.44,2.62a6.74,6.74,0,0,1,2,3.91c.95,4.33-8.2,5-8.2,5s-14.56-9.47-16.16-12.33c-2.08-3.72-31.65-44.29-31.81-57.41-.07-9.31,4.56-18.06,16.5-20.25a16.59,16.59,0,0,1,8.13.22c2.73.85,5.75,1.47,8.31,2.26s2.62-2.1,5-1.11c1.32.55,3.18-.52,4.64-.11,1.21.36,3.27-.76,4.51-.57,1.32-4.07,5.66-2.74,9.71-4.71,3.56-1.74,6.7-5.51,9.51-7.65"/><path class="cls-4" d="M112.61,34.75c.31.1.34.2.13.32-1.27-1-3.74-1.37-5.23-1.8a8.8,8.8,0,0,0-5.49.06A96.58,96.58,0,0,0,91.13,38L76.92,61.74s-9,20.8-16.33,27.11c-3.83,3.29-17.82,19.42-20.1,23.09-1.33,2.16-7.41,6.12-7,8.17.25,1.35,4.57,8.94,6.16,10.13,2,1.53,14.64-9.12,17.77-12.06C59.43,116.27,81.06,99,81.06,99S93.51,83.59,98.52,81.45c-.25,5.69,3,35.27,3,35.27S97,129.38,96.78,131.61c1.14.95,15.17,11,18.71,11.62a29.11,29.11,0,0,0,11.11.17c3.15-.7,36.31-.44,39-2.75,1.73-1.49-5.55-9.6-5.59-11.7-.06-2.65.73-33.57,3.17-34.2,1.77,2.1,8.63,25.09,8.16,27.9,0,0-2,7.16-2.78,10.26s-26.88,9.74-31.05,12.75c-2.82,2.05-13.56,5.72-15.6,7.35.27,3.41,2.68,6,4.12,8.8,1.68,3.18,2.17,4.57,2,8.59,2.32.24,5.58-1.47,8.07-2,2.2-.51,23.78-2.68,23.78-2.68l25-19.65s9.55-30.8,10.4-35.49c.5-2.79,2.43-13.08,2.45-16,0-5.9-5.72-29.58-9.54-35-3.39-4.83-10.51-17.31-16-17.37-2.56,0-12.94,1.28-13.53-.58Z"/><path class="cls-2" d="M160.44,38.77a.26.26,0,0,0-.12.22.23.23,0,0,1,.12.06,2.52,2.52,0,0,0,.7.44c.26.13.5.25.76.4a7.54,7.54,0,0,0,2.49.83,12.76,12.76,0,0,1,3.39.91A10.45,10.45,0,0,1,169.71,43a20.49,20.49,0,0,1,1.61,1.47,9.61,9.61,0,0,1,1.3,1.93,13.08,13.08,0,0,1,1.51,4.07,38.21,38.21,0,0,1,.68,6.14,26.76,26.76,0,0,1-.75,3.89s-2.42,5.3-2.79,6.31-.82,1.87-1.14,2.81A18.15,18.15,0,0,1,167,73.86c-1.22.9-6.67,2.58-7.93,2.88a21.55,21.55,0,0,1-3.31.54c-.68,0,.14-.66,1.12-1a5.47,5.47,0,0,0,3.11-2,11,11,0,0,0,1.58-9.37c-.9-3.11-4.43-4.61-7.18-5.67a11.79,11.79,0,0,0-6.24-.94,49.34,49.34,0,0,0-5.48,2.09c-1.86.85-3.7,1.6-5.53,2.48a19.83,19.83,0,0,0-2.85,1.5c-1.08.74-2.2,1.4-3.31,2.11-1.33.87-3,2-3.53,3.55s-.91,9.91-1,11.15c0,.9-.11,5-.32,6.08-.22,1.33-.82,5.95-.78,6.95s-3.83,10-4.55,13.87a12.64,12.64,0,0,1-.36,2.1c-.55,1.59-1.28,3.13-1.78,4.77-.29.92-1,3.58-1.12,3.66,0,0-1.36,4.11-1.52,4.78-.23,1-1.42,5.48-1.74,6.71a46.91,46.91,0,0,0-1.22,7c-.08.67-.12,1.34-.14,2,0,.2.07.81,0,.88l-3.18-1-.41-.06c.1-.76-.06-1.48,0-2.2s.12-1.65.15-2.49a23.13,23.13,0,0,1,.44-3c.19-1.1,4.26-15.74,4.67-16.73a100.61,100.61,0,0,0,3.47-11.15c.24-1.32,1.93-10.65,2.08-12.18.22-2.38,1.45-12.17,1.65-13.34s.65-5.2.82-6.12a7.28,7.28,0,0,0-.32-4.85,27.24,27.24,0,0,0-3-4.36,18.07,18.07,0,0,0-2.32-2.39,24.76,24.76,0,0,0-2-1.69c-1.53-1-3-2.12-4.51-3.07a15.37,15.37,0,0,0-2-1.19,9,9,0,0,0-2-.6c-.77-.12-1.51-.18-2.29-.23a2.35,2.35,0,0,0-1,.16c-.52.2-1,.3-1.55.52-3,1.39-6.36,2.42-8.69,4.75-.25.28-.53.49-.77.74s-.27.5-.58.29a2.46,2.46,0,0,1-.71-1.37,15,15,0,0,1-.15-4,52.75,52.75,0,0,1,.55-5.44c.18-1.07.62-2.1.89-3.15.17-.68.33-1.38.53-2a18.25,18.25,0,0,1,2.53-4.95,34.77,34.77,0,0,1,3.1-3.42,9.86,9.86,0,0,1,2.36-1.89c.84-.47,1.71-.81,2.55-1.29.22-.14.81-.34.92-.61l.58-1.2,1.82,0Z"/><path class="cls-2" d="M139.9,60.61c.45-.83.92-1.61,1.39-2.41a51.58,51.58,0,0,0,3.26-6,72,72,0,0,0,2.36-7,41.62,41.62,0,0,0,.08-8l-.15-.37c-1.29-3.42-2.2-7.27-4.33-10.3-1.52-2.16-4-4.87-6.54-5.77a11.36,11.36,0,0,0-4.76-.13c-2.16.21-4.34-.2-6.49-.2-1.37,0-2.74.11-4.11.24l-.47-.51c-.88,0-1.75.08-2.6.17a12.21,12.21,0,0,0-1.45.18,10.31,10.31,0,0,0-2.35,1.89,13.7,13.7,0,0,0-3.3,5,24.67,24.67,0,0,0-1.49,9.9,49.72,49.72,0,0,0,.66,4.93c.18.92.22,1.86.4,2.77s.61,1.94.88,2.88c.57,2.1,1.36,4.18,2,6.29a18.69,18.69,0,0,0,3,6.77,22,22,0,0,0,4.18,4.39,17.49,17.49,0,0,0,4.8,2.28,11.41,11.41,0,0,0,10.71-2.34c1.35-1.22,2.2-2.83,3.53-4C139.36,61.05,139.63,60.82,139.9,60.61Z"/><path class="cls-3" d="M127.43,34.21c.52-.79,2.66-1,3.31-.66a6.08,6.08,0,0,1,1.28.78c.2.19.72.81.54,1.22-.26.58-1.42.85-1.85.84a4.24,4.24,0,0,1-1.55-.26,3.19,3.19,0,0,1-2-1.94.61.61,0,0,1,.41-.11"/><path class="cls-3" d="M118.51,35.31c.06.1.07.13,0,0a4.81,4.81,0,0,0-2.62-1.22c-.85-.13-2.11,0-2.41.87a5.73,5.73,0,0,0,2.91,1.1c.66,0,2-.12,2-.93"/><path class="cls-4" d="M134.93,49.06A5,5,0,0,0,136.32,48a2,2,0,0,0,.64-2.14c-.25-.68-.71-.9-1.29-.44-.4.31,0,1,.46.64a1.38,1.38,0,0,0,.08.17,1.46,1.46,0,0,1-.75,1.49,6.93,6.93,0,0,1-1.91,1,7.08,7.08,0,0,1-3.72.42l-.16,0a2.3,2.3,0,0,1-.28-.06,10.91,10.91,0,0,1-2.3-.71s-3.73,1.83-5.57,1.81S118,48.23,118,48.23l-.81,1.37s-4.28.29-6.27.44a.67.67,0,0,1-.12-.06q-.34-.12-.18-.51c.2.07.3-.22.16-.36-.3-.29-.72,0-.81.35a1.73,1.73,0,0,0,0,.68.3.3,0,0,0,.06.18c0,.07.12.25.12.17.58,1.32,2.81,5.6,6.7,5.26,2.26.15,5.16-2.52,5.16-2.52a13,13,0,0,0,9.48,2.49c6-.55,8.06-7.21,8.06-7.21S138,48.65,134.93,49.06Z"/><path class="cls-4" d="M148.06,23.23c.54,1.11,2.82,1.17,3.86,1.32a4.71,4.71,0,0,1,3.53,2.09A10.32,10.32,0,0,1,157.39,36a18.11,18.11,0,0,1-2.34,5c-1,1.31-2.21,1.26-3.76,1.39-.5.06-1.73.38-2.1.07s-.48-1.77-.52-2.23c-.13-1.73.07-3.31-.07-5q-.28-3-.54-5.91c-.13-1.44-1.31-4.39-.13-5.53.13,0,.2,0,.19.19"/><path class="cls-4" d="M108.16,28.51c0,.14,0,.22-.16.22-.35-.27-.71-.11-1.12-.11a7.16,7.16,0,0,0-1.54,0,4.34,4.34,0,0,0-2.25,1.63c-1.3,1.65-1.59,4.3-1.61,6.32a9.45,9.45,0,0,0,3.18,6.57,15.19,15.19,0,0,0,5.41,2.8,15,15,0,0,0-.53-4.17,34.52,34.52,0,0,1-.42-4.79c-.26-2.9-.32-5.72-.6-8.59,0,.11,0,.19,0,.31"/><path class="cls-9" d="M120.41,56a.26.26,0,0,1,.11,0l.18-.05A1.46,1.46,0,0,1,120.41,56Z"/><path class="cls-9" d="M129,56.88c-1.11-.44-4,.13-4.67,0a25.35,25.35,0,0,1-3.78-.84l-.17.06-.19,0a.2.2,0,1,0,0,.4c-.07,0,.3.23.42.28a2.77,2.77,0,0,1,.83.7,3.64,3.64,0,0,0,.94.59,2.28,2.28,0,0,0,.73.19,5.8,5.8,0,0,0,.94.19,3.9,3.9,0,0,0,1.45-.09,3.55,3.55,0,0,0,.78-.06A3.41,3.41,0,0,0,128,57.23C128.59,57.06,129.09,56.91,129,56.88Z"/><path class="cls-4" d="M119.6,33.14c0,.1,0,.11,0,0-.28-.8-1-1.14-1.81-1.49a24.42,24.42,0,0,1-2.26-1.22,9,9,0,0,0-2.16-1.18c-.71-.11-1.55.52-2.13.73-.08,1.06,1.56.38,1.92.41a9.16,9.16,0,0,1,2.7,1,13.28,13.28,0,0,1,2.61,1c.35.25,1.37,1.83,1.44.71"/><path class="cls-4" d="M126.53,32a.29.29,0,0,0,.11.11c.44-.75,2.08-1.27,2.91-1.62,1-.39,2.14-.57,3.19-.92s1.66-.33,1.86.58c.07.28.05.59.13.89s.36.48.2.9a4.43,4.43,0,0,0-3.44-1.17c-1.15,0-3.81.32-4.78,1.21a1.15,1.15,0,0,0,.49.07"/><path class="cls-2" d="M116.7,33.5a1.82,1.82,0,0,0-.74.09c-.4.13-1,.22-1.26.58a1.73,1.73,0,0,0,0,1.36A2.49,2.49,0,0,0,116.05,37a1.33,1.33,0,0,0,1.52-.24,1.58,1.58,0,0,0,.28-1.18A2.49,2.49,0,0,0,117,34a2.61,2.61,0,0,0-1-.56"/><path class="cls-2" d="M132.3,33.33h0a4.26,4.26,0,0,1-.71-.25,3.31,3.31,0,0,0-1.18-.06c-1.18.21-2.37,1-2.47,2.09a1.27,1.27,0,0,0,.24.94,1.14,1.14,0,0,0,.82.34,4.31,4.31,0,0,0,2.82-1c.37-.35.73-.87.63-1.29a2.09,2.09,0,0,0-.61-1c-.1-.07-.41-.38-.57-.33"/><path class="cls-4" d="M116.37,34.48c.08.07-.14-.08-.2-.11a5.08,5.08,0,0,0-.52-.15.5.5,0,0,0-.65.47,1.08,1.08,0,0,0,.74,1.24.87.87,0,0,0,1.12-.4.92.92,0,0,0-.64-1.14s0,0,0,0"/><path class="cls-4" d="M131.41,33.83c.05.08-.11,0-.18,0s-.21,0-.31-.08a1.58,1.58,0,0,0-.75,0c-.58.16-1.31,1-1.16,1.53.25.82,1.45.67,2.09,0a.79.79,0,0,0-.14-1.29"/><path class="cls-4" d="M147.76,9.56l-6.1-8.31L130.67,0S121.73.8,120,1.34c-2.66.82-11.84,10.32-12.65,13.73a21,21,0,0,0-.49,4.47,56.41,56.41,0,0,0,.19,6.63c.4,4.29.44,8.9,1.37,13.07.27,1.17.31,2.45.5,3.67.22,1.45.61,3,1,4.38.36,1.58,3.36,10.9,6.25,14.54a28.6,28.6,0,0,0,4.18,4A10.26,10.26,0,0,0,122,67h0a16.61,16.61,0,0,0,1.85,1c.13.08.25.27.18.3a5.11,5.11,0,0,0-1.5.42.19.19,0,0,0-.07.24,4.71,4.71,0,0,0,.74,1,1.57,1.57,0,0,0,.27.33h0l0,.05s0,0,.06,0a.22.22,0,0,0,.21,0,.17.17,0,0,0,.13,0,1.27,1.27,0,0,0,.19-.13c.16-.09.07-.3,0-.34a7,7,0,0,1,2.25-1l.09,0a.76.76,0,0,1,.21,0,2.82,2.82,0,0,0,1.92.67,3.47,3.47,0,0,0,2.75-1.06,8.84,8.84,0,0,0,2-.78,3.6,3.6,0,0,0,.7-.3,39.81,39.81,0,0,0,6.23-4.76c.73-.73,7.67-8.25,8.05-9.08.74-1.72.75-3.85.94-5.67a69.16,69.16,0,0,0,.13-12.63,114.44,114.44,0,0,1-.53-11.69C148.81,18.77,147.76,9.56,147.76,9.56ZM147.2,43c-.08.75-.21,1.49-.33,2.22a23.48,23.48,0,0,1-1.51,4.31c-.48,1.19-1.11,2.37-1.52,3.61a11.76,11.76,0,0,1-.91,2,34.25,34.25,0,0,0-2.31,3,6.37,6.37,0,0,0-.56,1.06c-.33.51-.66,1-1,1.52-.42.69-.83,1.45-1.32,2.14-.69.6-1.41,1.15-2.07,1.75-.49.45-1,.89-1.5,1.33A13.38,13.38,0,0,1,132.88,67a8.78,8.78,0,0,0-.85.33,17.25,17.25,0,0,1-2.76.63,5.88,5.88,0,0,1-2.92-.07c-.56-.17-3.84-1.21-4.26-1.47A20,20,0,0,1,120,64.82a18.56,18.56,0,0,1-3.76-4.48,51.29,51.29,0,0,1-2.63-4.47,19.59,19.59,0,0,1-1-2.71c-.25-.73-.52-1.47-.74-2.23a7.6,7.6,0,0,0-.51-2.29q-.16-.54-.3-1a45.8,45.8,0,0,0-.52-4.85c-.66-3.07-1.92-6.42-1.38-9.69a11.31,11.31,0,0,1,1.58-4,13.36,13.36,0,0,1,1-1.58c.48-.65.9-.7,1.75-.93a39.25,39.25,0,0,1,6.76-1.12c2.24-.21,4.48-.65,6.79-.81a22.37,22.37,0,0,1,8,1.13,8.86,8.86,0,0,1,4.81,3.06c1.85,2.73,2,6.3,3.45,9.15.6,1.19,1.86,2,2.76,2.92a3,3,0,0,1,1.16,1.88C147.23,42.82,147.21,42.93,147.2,43Z"/><path class="cls-9" d="M122.62,44a.68.68,0,0,1,.2-.07c-.71-.35-2.21,1.63-1.8,2.25.8,1.21,3,1.45,4.15,1s2.1-1.54,1-2.74a3.07,3.07,0,0,0-3.78-.54"/><path class="cls-9" d="M91,145.6c.26-2.49,3.4-6.14,5.22-8.43,2.14-2.7,8.2-5,8.2-5l6.12-.38s6.26,1.68,7.9,5.42c.67,1.5,2.82,2.1,5.5,4.19.76.6,17,8.51,5,6.17-4.23-.82-18.09,2.1-19.84,2.36a86.56,86.56,0,0,1-13.25,1c-1.64,0-3.83,0-5.16-1-2.25-1.75-.49-2.57.86-4.22.31-.07.55.11.69.54"/><path d="M48.62,184.84l1,1C49.58,185.45,49.17,185.09,48.62,184.84Z"/><path class="cls-3" d="M91,127.09c.13.14.25.26.39.43a1,1,0,0,0-.1-.64,22.61,22.61,0,0,1-1.62-1.68Z"/><path class="cls-9" d="M94.82,204.45c-.59-2-1.36-4-1.61-4.73-1.29-3.58-3-7.84-3.78-11.71s-2.93-7.45-3.64-11.39c-.62-3.47-10-20.84-8.91-24.25,1.48.25,2.36,2,3.89,2.27,2.07.4,9,8.11,10.6,7,3.13-2.22,2.59-11.51,4.52-14.89.86-1.5.88-4.12,1.66-5.74s4.48-6.08,3.13-7.1c-2-1.51-7.08-5.56-7.14-5.37-.13-.16-.26-.29-.38-.43s-.32-.77.29-.2c-.41-1-5.38-8-6.72-10.3-2.58-4.53-9.45-11.71-9.45-11.71l-10.75-3-7.11,10.51S73.85,176.19,75.58,180c.88,2,3.75,9.39,4.15,11.19.22.95,1.14,5.06,2.28,8.86,1.16.54,2.34,1.06,3.59,1.5C88.62,202.61,91.73,203.51,94.82,204.45Z"/><path class="cls-4" d="M149,221.08c-2.9-1.25-6.09-1.66-9-2.88s-5.92-1.59-9-2.51c-10.16-3-20.17-6-30.08-9.62-2.69-1-5.44-1.82-8.18-2.64-3.1-.93-6.21-1.84-9.23-2.88-1.25-.43-2.42-1-3.59-1.49-1.5-.68-3-1.39-4.55-2a45.83,45.83,0,0,1-6.89-3,53.89,53.89,0,0,0-6.32-3.49c-1.81-.82-3.6-1.42-5.42-2.19s-3.15-1.75-4.87-2.5c-.82-.36-1.52-1-2.34-1.36s-1.78-.46-2.27-1.12l1.46,1.49c.55.25,1,.61,1,1l-1-1c-2.1-.92-6.55-.51-4.67,2.6,1.45,2.4,6,5,8.6,5.88,8.66,3.06,17.56,5.28,26.16,8.78l2.53,1L93.13,208c4.48,1.78,9,3.55,13.47,5.18,4.92,1.8,9.72,4.37,14.69,5.81s10.37,1.75,15.13,3.57a39.74,39.74,0,0,0,9.88,2.12c1.06.09,3.78.54,4.57-.53C152,222.6,150.07,221.55,149,221.08Z"/><path class="cls-4" d="M127.68,168c-1.94-.56-4-.46-6-1a26.85,26.85,0,0,1-3.56-1.56c-2.17-.93-4.55-1.1-6.71-2-4.81-2-10.12-1.84-15-2.75-4.24-.75-8.6-1.8-12.91-2.24-2.11-.22-4.09-.09-6.19-.72S73.13,156,71,155.3c-2.37-.78-4.92-1.21-7.24-2.29-2-.94-3.76-2.11-5.88-2.7-4-1.11-7.48-1.71-10.76-4.21-6.48-4.89-11.7-11.23-16.61-17.62a31.52,31.52,0,0,0-8.07-7.64c-1.69-1.12-3.44-2.15-5.07-3.24s-2.89-2.7-4.66-3.06c-3-.57-6.51-.25-8.52,2.26-3,3.73.08,5.82,3,8.08,3.44,2.72,7.93,4.42,11.73,7,3.27,2.24,6.27,5,9.41,7.42a20.48,20.48,0,0,1,3.85,3.58c.52.73.85,1.7,1.59,2.18l1.09-.74c.34.72,1.43,1.41,2.09,2.13A27.5,27.5,0,0,1,39,149.39c1.36,2.05,3,3.22,3.35,5.65.75,5.32,3.09,7.87,1.2,14.07-.84,2.79-.33,4.06-3.85,9.08-2.1,3-4,1.16-7,3.18-5.87,3.95-11.31,18.2-14.13,24.37-1.8,4-1.6,8.69-2.82,12.92-1.08,3.71-1.09,8.9-1.86,12.63.52,1,1.85,1,2.58,2,1.35-.1,3.94-.35,5.31-1.84,1.65-7.35.23-16.18,3.05-23.19A66.67,66.67,0,0,1,30,197.5c2.44-3.79,2.29-5.5,6.3-5.39s6.3,2.21,8.69,4.8c2.68,2.9,2.49,19.54,1.44,28.09-.24,1.91-2.52,13.47-2.52,16.65A29.6,29.6,0,0,0,49.3,240c.15-.22.29-.47.43-.7,1.19-6.75,4.81-14.8,5-21.43.11-3.42,1.07-16-.33-18.88-1.29-2.69-2.15-6.19-3.3-8.92a21.1,21.1,0,0,1-1.45-6.94,96,96,0,0,1,1.08-11.61,32.3,32.3,0,0,1,1.41-5.4c.49-1.65.3-3.62,1.32-5,1.48-1.94,2.86-1.53,5-1.45,1.93.07,3.61-.69,5.52.11,3.53,1.49,5.72,3.26,9.77,3.95,3.7.64,7.12,2.32,10.73,3.28,4.39,1.2,8.79,1.64,13.21,2.78,4,1,8.38,2,12,3.53a70.73,70.73,0,0,0,15.12,5c3.17.54,9.31,2.38,9.44-2.59C134.4,171.43,131.38,169.11,127.68,168Z"/><path class="cls-4" d="M15.29,268.05C9.7,265.31-2.37,250,.41,236.12c5-29,18.33-44.88,35.85-42.89l3.69.42.27.73.59.25a10.25,10.25,0,0,0,2.27.74,22.44,22.44,0,0,1,9.27,4A41.32,41.32,0,0,1,64.27,213a87.09,87.09,0,0,1,5.2,10.69,33.37,33.37,0,0,1,1.89,13.27,39.3,39.3,0,0,1-4.43,16.52C63.05,261,47.7,271.28,42.67,271.28,33.44,271.28,21.88,271.28,15.29,268.05Zm10.36-9.82a44.88,44.88,0,0,0,10.17,1.27c3.18-1,15.45-2.43,20.44-13.25a27.7,27.7,0,0,0,2.39-9.31,17.66,17.66,0,0,0-.92-7.25,69.74,69.74,0,0,0-4.19-8.58,29.17,29.17,0,0,0-8.27-9.53c-3.58-2.54-10.39-4-11.08-4.19-20.65-1.94-23.89,25.52-21.27,35.33S21.55,255.15,25.65,258.23Z"/><path class="cls-10" d="M52.12,239.78c-.84,3-2.31,5.6-4.9,6.52-2.2.77-4.2,1.63-6.28.57s-3.37-4.84-3.67-7.73c-.57-5.44,2.62-12.48,7.44-11.82,2.54.34,4.85.84,6.42,3.33C51.92,231.94,52.68,237.72,52.12,239.78Z"/><path class="cls-4" d="M42.39,233.21A5.41,5.41,0,0,0,42.3,241a3.81,3.81,0,0,0,6.15-.84c1.75-2.91.6-4.2-.54-7.05C47.91,233.1,44.4,231.25,42.39,233.21Z"/><path class="cls-11" d="M30.24,234.31c-.87,3-2.49,5.59-5.38,6.44-2.48.73-4.7,1.55-7.09.42s-3.93-4.93-4.32-7.82c-.78-5.46,2.66-12.48,8.14-11.71,2.87.42,5.49.94,7.33,3.5C29.84,226.44,30.83,232.26,30.24,234.31Z"/><path class="cls-4" d="M20.51,227.76a5.45,5.45,0,0,0-.08,7.79,3.79,3.79,0,0,0,6.14-.86c1.76-2.9.61-4.2-.52-7.05C26.05,227.64,22.54,225.8,20.51,227.76Z"/><path class="cls-12" d="M27.67,233.63c-.7,2.5-2,4.64-4.32,5.38-2,.64-3.75,1.32-5.66.4s-3.09-4.08-3.41-6.48c-.57-4.55,2.22-10.39,6.58-9.79,2.27.33,4.38.76,5.82,2.87C27.42,227.09,28.16,231.92,27.67,233.63Z"/><path class="cls-4" d="M17.94,227.15a5.41,5.41,0,0,0-.09,7.79A3.79,3.79,0,0,0,24,234.1c1.75-2.91.61-4.21-.52-7.06C23.47,227,20,225.19,17.94,227.15Z"/><path class="cls-4" d="M36,236.34a4.22,4.22,0,0,1,.2-1.16,1.77,1.77,0,0,1,.05-.32l.21.07c0-.06-.12-.11-.18-.17.07-.53.16-1.07.27-1.61s.44-1.55,0-1.93c-.3-.24-1.11-.21-1.48-.31l-1.16-.31c-1.83-.54-3.79-.37-5.74-.7-1.4-.26-2.78-.34-4.16-.59a13.34,13.34,0,0,0-2.81-.33l.47,1.28a2.63,2.63,0,0,0-.86.48l-.41-.12c0,.12.21.18.35.22a1.77,1.77,0,0,0-.32.53,4.63,4.63,0,0,0-.14,1.77c.09.73.28,1.19,1.17,1.26.73,0,1.39.1,2.19.22,2.15.38,4.24.9,6.38,1.27,1.16.2,2.42.3,3.54.61.48.13.94.26,1.42.42s.75.5,1.19.45C36.23,237.05,36,236.69,36,236.34Z"/><path class="cls-13" d="M40,228.56c.07.12.09.12.06,0a13.62,13.62,0,0,1-.53-3.25c-.5-2.94-1.34-5.75-2-8.65a54.22,54.22,0,0,1-1.35-6.92,17.1,17.1,0,0,0-.16-2.31c-.06.16,0,.22.07.36"/><path class="cls-13" d="M38.37,230.49s-.11-.12-.23-.27-.37-.57-.57-.85a24.62,24.62,0,0,0-4.5-4.9,48,48,0,0,1-4.47-4.06c-1.24-1.4-2.72-2.61-3.88-4.12-.8-1-1.55-2-2.34-3.06a13.52,13.52,0,0,1-1.58-1.84,2,2,0,0,0,.28.3"/><path class="cls-13" d="M37.52,233.2c-.26.09-.76-.29-1.07-.42-.62-.28-1.27-.52-1.91-.76-2.48-1-4.86-2.38-7.25-3.56-1.65-.81-3.22-1.78-4.85-2.61s-3.5-1.35-5.2-2.22c-.48-.25-.95-.46-1.42-.7s-1-.6-1.31-.53"/><path class="cls-13" d="M37.45,235.91a.79.79,0,0,0,0,.13,8.41,8.41,0,0,1-2.52.22c-1.45.1-2.91.18-4.35.24-2.2.09-4.4.35-6.6.48-1.94.11-3.91.38-5.84.63-1.09.14-2.17.06-3.2.15a8.13,8.13,0,0,1-2.36.08"/><path class="cls-13" d="M36,238.39a48,48,0,0,0-5.05,1.9A32,32,0,0,1,27,241.5a15.34,15.34,0,0,0-2.63,1.23c-.86.44-1.75.84-2.6,1.31a42.19,42.19,0,0,1-4.63,2.19c-.8.3-1.63.59-2.42,1"/><path class="cls-13" d="M37.14,241.34c-.18.11-.47.18-.69.29A6.46,6.46,0,0,0,35,242.87a56.8,56.8,0,0,1-5.63,4.33c-2.31,1.64-4.49,3.44-6.63,5.27-1,.85-2,1.72-3,2.52-.28.25-.88.86-1.22.92.58-.41,1-1,1.63-1.4"/><path class="cls-13" d="M38.53,243.79c-.05.42-.66.8-.84,1.19-.36.7-.48,1.51-.77,2.22a18,18,0,0,1-.89,2c-1.57,3.28-3.3,6.56-4.69,9.89a1.89,1.89,0,0,0,.75-.76"/><path class="cls-13" d="M39.46,247.47a7.13,7.13,0,0,0-.05,1.53c-.09,1.37-.35,2.71-.45,4.08-.17,2.25-.13,4.61-.5,6.83a11.85,11.85,0,0,0-.26,1.62c.21-.19.19-.52.25-.83"/><path class="cls-13" d="M44.13,247.51a6.34,6.34,0,0,0,.44,2.74,46.57,46.57,0,0,1,.63,5c.06.55.09,1.63.6,2a1.12,1.12,0,0,0,.08-.38"/><path class="cls-13" d="M47.17,246.48c.84,1.14,1.56,2.38,2.32,3.56A22.27,22.27,0,0,0,53,254"/><path class="cls-13" d="M51,244.93a.13.13,0,0,1-.09.11,11.74,11.74,0,0,1,2.77.88,20.89,20.89,0,0,0,4.44,1.42,1.2,1.2,0,0,0-.23-.05"/><path class="cls-13" d="M53.05,241.12c.49.73,6.13.33,5.82,1"/><path class="cls-13" d="M53.08,238.78a4.06,4.06,0,0,0,2.46-.59c.84-.36,2.14-1.34,3.05-1.19"/><path class="cls-13" d="M52.64,236.1c.71.48,4.85-6,5.34-6.84l-.13.06"/><path class="cls-13" d="M52.75,231.69c.09,0,.09.06,0,.09a9.48,9.48,0,0,1,.95-3.22c.43-1.3.86-2.59,1.42-3.85.12-.26.4-1,.57-1.11"/><path class="cls-13" d="M43.92,226.38a40.54,40.54,0,0,1-.59-4.75,70.36,70.36,0,0,0-.38-7.42,8.29,8.29,0,0,1-.22-2,8.36,8.36,0,0,0,0-2c0-.4-.39-1.59,0-1.8"/><path class="cls-13" d="M28.22,223c.27-.11.24-.65.31-1,.37-2.14.88-4.29,1.25-6.43.44-2.47.85-4.94,1.27-7.35"/><path class="cls-13" d="M30.3,224.51a.26.26,0,0,0,.24,0,4,4,0,0,1,.66-1.14c1.27-2.1,2.44-4.3,3.88-6.3,1.18-1.57,2.47-3.06,3.77-4.51.93-1.09,2.83-2.51,3.32-4-.17,0-.1.1-.15.23"/><path class="cls-13" d="M31.31,228.47a.14.14,0,0,0,0,.17,51,51,0,0,1,9.34-7.26,44.14,44.14,0,0,1,5.45-2.75c1.17-.54,2.31-1.18,3.48-1.73a3.06,3.06,0,0,0,1.1-.54,1.17,1.17,0,0,0-.49,0"/><path class="cls-13" d="M24.73,222.1c0-.38-.17-1.51-.19-2-.08-2-.26-4.08-.5-6.11a34.48,34.48,0,0,1-.25-5,7.21,7.21,0,0,1,.12-1.55c0,.11,0,.22-.06.35"/><path class="cls-13" d="M16,238.81a1.49,1.49,0,0,0-.7.37,9.93,9.93,0,0,0-1,1.52c-.5.79-1.09,1.47-1.65,2.21-1,1.27-2,2.52-3,3.74a5.83,5.83,0,0,1-1.21,1.22,3.27,3.27,0,0,0,.58-.39"/><path class="cls-13" d="M19.42,241.36a1.57,1.57,0,0,1,0,.91c-.16,1-.33,2-.53,3a44.78,44.78,0,0,0-.57,6.43c-.05,1.3,0,2.56-.06,3.83a8.42,8.42,0,0,0,0,1.42.69.69,0,0,0,.07-.29"/><path class="cls-13" d="M23.86,239.8a4,4,0,0,1,.24,1.55c.18,2.09.64,4.22,1,6.29.16.86,2.48,13.5,4.12,12.89"/><path class="cls-13" d="M28.16,240.55c.08.24,0,.46.13.68a11.39,11.39,0,0,0,.77,1c1.55,2,2.72,4.24,4.27,6.29s3.28,4.13,5.06,6.14c1,1.07,2.27,2.13,2.86,3.43"/><path class="cls-13" d="M29.24,236.58c.64.54,1.18,1.24,1.79,1.86,1.31,1.33,2.81,2.45,4.14,3.77,1.16,1.12,2.25,2.31,3.35,3.49a86,86,0,0,0,6.9,6.45c1.6,1.34,3.6,2.45,5,4a1.23,1.23,0,0,1-.5-.06"/><path class="cls-13" d="M31,210.3c.4-.17.34-1.53.38-1.92a33,33,0,0,1,.52-3.26"/><path class="cls-4" d="M156.76,203.36c-.32,1.83-.64,3.64-1.1,5.42a23.74,23.74,0,0,1-1.53,3.32c-.36.79-.7,1.58-1.06,2.36-.42,1-1.1,1.82-1.53,2.76-.33.68-.58,1.43-.9,2.12-.52,1.16-.95,2.31-1.47,3.42A102.46,102.46,0,0,1,143.06,233c-1.84,2.86-4.11,5.45-5.9,8.35-1,1.63-2,3.16-3,4.71-.14.22-.67,1-1,.94s-.57-1.2-.62-1.52c-.24-2.28,2.12-4.24,3.18-6.07.87-1.41,1.51-3,2.23-4.44a53.47,53.47,0,0,1,2.82-4.78,54.76,54.76,0,0,0,4.11-7.26c2.08-4.84,4.31-9.74,6.17-14.73a18,18,0,0,1,3.55-5.83c.75-.79,2.47-1,2.07.58"/><path class="cls-4" d="M151.92,209c-.2-.35,0-.65,0-1a2.13,2.13,0,0,0-.79-1.27c-.77-.68-1.64-1.22-2.45-1.86a1.06,1.06,0,0,1-.07-1.84,5.75,5.75,0,0,1,3.73-.92,21.67,21.67,0,0,1,4.1.32c1.17.2,1.4.62.82,1.72a16.1,16.1,0,0,1-2.9,3.4c-.49.54-1.34,1.49-.95,2.25"/><path class="cls-4" d="M160.64,201.28c.12.14.13.16,0,.05-2.37-1.1-3.88,2.13-4.08,4-.07.67-.18,1.88.47,2.34s1.73-.18,2.41-.43,1.65-.24,2-.93a1.52,1.52,0,0,0-.53-1.68c-.28-.26-1.21-.87-1.6-.73s-.81,1.23-.33,1.47a2.45,2.45,0,0,1-.08-.29,3,3,0,0,1,1,.17c.61,2.25-4.33.86-2.14-1.42.64-.66,1.85-.59,2.63-1,.31-.15.81-.29.8-.77a1.29,1.29,0,0,0-1-1,1,1,0,0,0-.11.48"/><path class="cls-4" d="M149.64,220a4.9,4.9,0,0,1,.87,1.31,11.09,11.09,0,0,0,1.61,2.06c1.6,1.72,2.23,4.26,3.33,6.34,1.65,3.16,3.45,6.29,5.38,9.3a12.39,12.39,0,0,0,3,3.33c.54.4,1.18.85,1.72.28.74-.8.58-2.55.42-3.55-.77-4.91-4.07-9.24-6.67-13.36A63.69,63.69,0,0,0,155,219.4a12.83,12.83,0,0,0-2.38-2.15c-.61-.46-1.37-1.11-2.21-.73-2,1-.73,3.63.09,4.89.37.59.7,1.17,1,1.79"/><path class="cls-4" d="M164.48,238.61a11.94,11.94,0,0,1-2.48.31c-3.32.44-6.72.4-10,.91-3.55.56-7.1.95-10.62,1.67a18.35,18.35,0,0,0-6.14,2c-1.33.86-3.3,1.47-3.88,3.15-.31.94.49,1.8,1.35,2.18a7,7,0,0,0,3.7.11c1.89-.24,3.67-1,5.58-1.27a37.49,37.49,0,0,0,7.28-1.34c2.94-1,5.78-2.52,8.63-3.85,1.56-.73,3.12-1.41,4.63-2.27a7.34,7.34,0,0,0,1.57-.94c.65-.62-.16-1.35-.6-.85"/><path class="cls-4" d="M51.48,192.55c.66.11,1.41.85,2.12,1.24a28.22,28.22,0,0,1,4,2.56c1.63,1.28,3.14,2.7,4.76,4,2,1.64,3.65,3.69,5.73,5.28,1.51,1.13,2.89,2.33,4.47,3.37,2.87,1.93,5.8,3.68,8.57,5.78,3.66,2.78,7.72,5.18,11.55,7.74,1.17.78,2.36,1.57,3.49,2.44,2.18,1.68,4.65,2.92,6.85,4.6,3.16,2.42,6.57,4.7,9.91,6.84,2.94,1.89,5.79,3.94,8.66,5.93,1.19.86,2.3,1.82,3.55,2.57s2.33,1.27,3.49,1.92c1.68,1,3.65,2.54,5.7,2.54.88,0,.95-.58,1.47-1.3a5.45,5.45,0,0,0,1.11-2.46c.28-2.47-2.8-3.87-4.66-4.83-2.27-1.16-4.68-2.07-6.91-3.34a72.76,72.76,0,0,1-9-6.33c-1.68-1.36-3.6-2.36-5.29-3.7-2.07-1.62-4.27-3.09-6.44-4.62-3.21-2.31-6.36-5-9.76-7-7.07-4.19-14-8.58-21.34-12.29a128.17,128.17,0,0,1-14.25-7.83c-1.19-.83-2.39-1.68-3.62-2.39a10.29,10.29,0,0,0-4.36-1,1.12,1.12,0,0,0-.12.63,1.9,1.9,0,0,0,.67.13"/><path class="cls-4" d="M116.26,226c.29.33.3.37,0,.13a12.7,12.7,0,0,0-8.24-.43c-4,1.18-5.79,4-6.81,8-.89,3.54-1.09,6.49,1.26,9.48,2.77,3.56,7,4.79,11.23,5.56,8,1.43,12.46-7.22,10.42-14-1.51-5.14-6.33-9.47-11.83-9.78a4.17,4.17,0,0,0,.17,1.19"/><path class="cls-4" d="M113.79,242.59c.93,1,1.12,2.77,1.83,4,1.06,1.85,2.48,3.6,3.52,5.46.74,1.33,1.72,4.79,3.06,5.75,1.53,1.12,2.15-.78,2.16-2.24,0-3.19-2.63-6.93-4.42-9.54-1.35-1.93-3.41-5-5.68-5.81-.66,1.23.32,2.15,1.07,3"/><path class="cls-4" d="M105.19,234.87c.35.06.38.06.07,0-1.42-.46-2.76-1.62-4.19-2.3a21.34,21.34,0,0,1-5.39-3,8.92,8.92,0,0,1-3.05-3.87c-.26-.68-.74-1-.73-1.87s.6-1.05.72-1.89c3.32.2,6.64,3.41,9.37,5.2a40.33,40.33,0,0,1,3.37,2.67c.77.64,2.59,1.19,2.89,1.85"/><path class="cls-3" d="M142.38,232.6c0-1.21,1.29-3.74-.87-3.86.27-1.17-.09-3.8-1.37-4.25a18.23,18.23,0,0,0-2.95.23,12.28,12.28,0,0,0-2.5.09,6.68,6.68,0,0,0-4.54,2.92c-1.44,1.82-1.16,1.56.47,2.88-.69.23-1.6.91-1.31,1.76.37,1,1.51.42,2.15.95s1.53,2.63,2.07,3.5a6.59,6.59,0,0,1,1.05,5.25c-.31,1.74-3.88,8.88-3.42,10.55a5.85,5.85,0,0,0,2.71.45c1,0,3.84-1,5-.86,2.32.43,5.47-3.53,6.92-1.55-1.26-.3-.09-2.4-.06-3.37a15.8,15.8,0,0,0-.65-3,26.81,26.81,0,0,0-2.11-7C142.06,235.63,141.72,232.79,142.38,232.6Z"/><path class="cls-4" d="M130.17,249.78c.15-.8.19-1.61.33-2.39.07-.51.08-.64.54-.48.25.09.55.27.8.38a11,11,0,0,0,2,.8c.45.13,2.17.82,1.82,1.41-.6,0-1,.66-1.46,1a1.68,1.68,0,0,0-.8,1.38c.55-.13,1.09-.48,1.66-.57s1.26-.28,1.89-.38c.78-.13,1.57,0,2.38-.14s1.45-.29,2.18-.4a7.11,7.11,0,0,0,2.43-.6,3.31,3.31,0,0,0,1.56-1.09,2.3,2.3,0,0,0,.05-1.82,3.25,3.25,0,0,1-.16-2c1.16.06,1.5.82,2.1,1.7a3.17,3.17,0,0,1,.8,1.37c.1.62.19,1.18.34,1.81a10,10,0,0,1,.28,2.94c0,.45,0,.86-.11,1.31s0,.84-.24,1.3a7.19,7.19,0,0,1-5,3.58c-1.11.16-2.23.29-3.3.43-.78.12-1.6.25-2.39.35-1,.13-2,.57-3,.69-1.72.24-3.47.74-5.19,1.08-1.09.23-2.1.79-3.21,1a21,21,0,0,1-2.13.31c-1.09.1-2.16,0-3.25.19a3.25,3.25,0,0,1-2.87-.75c-1.41-1.61.53-3.61,1.52-4.8,1.22-1.5,3-2.53,4.4-3.81,1.13-1,2.19-2.13,3.44-3.09.45-.36,1-.71,1.4-1.1s.65-.76,1.21-.53c.08.3-.18,1,.15,1.12"/><path class="cls-14" d="M33.59,116.74c.32.37.33.43,0,.17-4.78-5.64-15.25-1.35-18.2,4.2-3.24,6.13-1.67,11.75,2.72,16.38.11-.25,0-.38-.27-.35.59,1.23,4.65,1.84,6.07,2.41,2.37,1,4.56,2,4.46-1.11-.06-2,.59-4,3.08-4.19C35,134,35.05,136.51,35,139c2.1,1.16,4.52-1.78,5.73-3,.8-.85,4-6.19,1-6.06"/><path class="cls-14" d="M120,153c-.59.69-3.18.11-4.28.19-1.84.13-3.76-.12-5.64,0-3,.14-5.43.6-7.17,3.45-1.58,2.58-1.62,6.55-2.14,9.53s-2,6,.6,8a14.9,14.9,0,0,0,8.23,3.43c1.71.1,6.24-.18,7.52-1.84,1.12-1.43-.12-1.76-1-2.79-1.25-1.37-1.62-1.72-.73-3.16,1.39-2.28,4.13-2.75,6.37-2.72a8.73,8.73,0,0,0,1.12,2.84c.69,1.3.93,2.15,2.85,2,2.93-.21,3-3.22,3.74-5.49,1-3.27,1.37-5.31-.94-8.49a12.21,12.21,0,0,0-4-3.31c-.94-.56-3.06-1.09-3.43-1.89"/><path class="cls-9" d="M112.37,209.43c-.2.89,1,2.25,1.46,3a15.93,15.93,0,0,0,2,2.7c.79.82,1.49,1.72,2.21,2.62a6,6,0,0,0,3.27,1.87c4.2,1.37,8.32,2.94,12.59,3.93,1.28.3,2.61.4,3.84.57a13.68,13.68,0,0,0,1.82.15c.71,0,1.15.13,1.13-.72a7.85,7.85,0,0,0-1-2.84,6.91,6.91,0,0,0-2.1-2.67,24,24,0,0,1-3.16-2.28c-.8-.76-1.29-1.78-2.1-2.6a13.61,13.61,0,0,0-4.58-2.81c-1-.44-2-.94-3-1.47a8.22,8.22,0,0,0-3.5-1.41,28,28,0,0,0-5.58.29,6.57,6.57,0,0,0-1.57.39c-.43.21-.81.55-1.24.75"/></g></g></svg>