<svg xmlns="http://www.w3.org/2000/svg" viewBox="0 0 373.83 330.27"><defs><style>.cls-1{fill:#1d1d1b;}.cls-2{fill:#007293;}.cls-3{fill:#fff;}.cls-4{fill:#e30613;}.cls-5{fill:#e63027;}</style></defs><g id="Ebene_2" data-name="Ebene 2"><g id="Ebene_1-2" data-name="Ebene 1"><path class="cls-1" d="M269.28,50.18c-.14,8.48-3.89,16.16-5.09,24.38a62.43,62.43,0,0,0,1.15,23.84c1.85,6.9,5.76,14.8,12.17,18.65,6,3.59,18,2.17,23.1-2,6.68-5.54,10.27-13.36,14.34-20.66s8.42-15.24,12.55-22.83c3.06-5.64,6.44-14.29,12.21-17.67,2-1.18,4.46-1.44,6.56-2.48,3.22-1.59,6-3.85,9.39-5.24,4.54-1.87,9.84-2.7,14.21-4.7,4.89-2.25,4.4-7.76,3-12.12-1.12-3.48-2.11-7.14-4.56-10.17C363.16,12.75,357,8.89,349.41,6.21S332.2,0,324.06,0c-4.62,0-11.3.12-15.2,2.93-2.45,1.77-2,2.76-1.72,5.39.51,4.54.44,9.27,2.09,13.62,1.49,3.93,4.78,6.71,6.24,10.61,1.38,3.67,3.4,7.26,4.42,11.07a38.85,38.85,0,0,1-.51,23.72c-2.38,7.25-7.19,14.09-10.53,20.91-5.2,10.61-13.36,31.32-27.89,20.67-5.52-4-10.82-10.52-10.66-17.61.19-8.93,4.9-18,7.1-26.5,4.45-17.25,3.11-37.61-14.08-47.18-14-7.81-32.26-6.83-46.39.49-7.45,3.85-14.55,7.44-20.3,13.69-2.87,3.11-5.91,6.11-8.77,9.28-2.41,2.66-5,5.36-6.6,8.58-.4.79-.8,1.53-1.24,2.29a10.3,10.3,0,0,0-1,1.91,4.3,4.3,0,0,1,1.69.66c.85.49,1.75.84,2.64,1.27a11.8,11.8,0,0,0,1.69.79c.57.18,1.16.25,1.72.45s1.15.39,1.77.59c.36.11.51.21.79,0s.42-.74.55-1a13.59,13.59,0,0,1,1.4-2.39A45.53,45.53,0,0,1,196,49a82.68,82.68,0,0,1,7.58-6.92,8.21,8.21,0,0,1,1.66-.92,12.69,12.69,0,0,0,1.94-1.42q2-1.5,4-2.94,3.15-2.22,6.43-4.22c7.55-4.56,15.1-8.52,24.07-9,5-.27,15-.12,18.92,3.42,6.08,5.41,8.72,14.89,8.72,22.7Z"/><path class="cls-2" d="M120.21,193.13c-.08,3,0,8.45,4.21,8.45,1.67,0,3.29-.44,5-.37a19.63,19.63,0,0,1,6.23,1c.72.27,1.24.76,1.94,1a10.75,10.75,0,0,1,2.81,1.27,10.74,10.74,0,0,0,3.7,2.24,13.52,13.52,0,0,0,4.32.27c.8-.08,2.71-.72,2.63-1.85-.06-.91-2.08-2.11-2.75-2.67-1.33-1.09-2.8-2.1-4.06-3.23s-2.09-2.28-3.23-3.36c-1.53-1.45-3-3.06-4.58-4.39a27,27,0,0,1-3-2.35c-2.9-3.19-3.87-7.49-5.11-11.47a39.11,39.11,0,0,0-1.74-4.55,10.5,10.5,0,0,1-.9-2.24c-.12-.74,0-1.4-.22-2.15-.25-.94-.52-1.88-.79-2.82q-.89-2.92-2-5.81c-1.14-3.06-2-6.25-3.16-9.32-.55-1.46-1.24-2.73-1.86-4.14a48.07,48.07,0,0,0-2-4.76c-.63-1.13-1.34-2.21-2-3.34a20.94,20.94,0,0,0-1.6-3.13c-1.59-2-3.36.34-4.75,1.27-1.62,1.09-3.48,2-5.18,2.91s-3,1.77-4.57,2.58c-1.12.6-2.86,1.17-3.48,2.31s.6,2.65,1,3.82c.86,2.25,1.51,4.54,2.45,6.74a50.08,50.08,0,0,0,3.14,6.72c.73,1.17,1.53,2.22,2.2,3.3a10,10,0,0,1,1.51,3.76c1.14,7.33,9.16,10.58,13.33,16.23a15.43,15.43,0,0,1,2.54,4.27C120.73,190.53,120.24,191.92,120.21,193.13Z"/><path class="cls-2" d="M285,128.16c-1.35,2.69-2.4,5.73-3.38,7.88-2.49,5.49-4.7,11-7,16.52a104,104,0,0,1-13.11,22.37c-2.7,3.56-5.23,6.82-9.09,9.31-3.31,2.13-7.09,2.86-10.35,4.56-7,3.66-14.13,8.16-21.45,10.94a51.11,51.11,0,0,1-12.37,3.1c-2.92.29-8.76,1.52-11.4-.27-3.17-2.14,1.81-7.72,2.83-10.35,1.29-3.33,3.11-4,6-4.82,1.62-.46,3.15-.34,4.8-.77s3-.93,4.42-1.18c4.89-.82,9.58-1.45,14.44-2.45,2.35-.49,4.76-1.43,7.08-1.73,2-.26,4.48.5,6.4-.2s3.88-4.44,5.25-6.15a70.58,70.58,0,0,1,7.73-8.64c2.82-2.5,5.07-6.16,7.13-9.46,5-8,9.39-16.49,13.73-24.89,1.8-3.47,2.74-7.85,5.05-11,2.44,1.19,3.9,2.52,6.88,2.29A14.18,14.18,0,0,0,285,128.16Z"/><path class="cls-1" d="M128.82,155a23.44,23.44,0,0,1-3,0,19.46,19.46,0,0,1-2-.35c-1.21-.23-2.44-.21-3.66-.39a28.15,28.15,0,0,1-9.82-3.45A28,28,0,0,0,107,149.2c-2.7-1.31-4.6-3.82-6.17-6.38a20.94,20.94,0,0,0-4.29.62c-2.07.52-4.56,1.29-6,3,3.68,5.49,9.15,10.87,14.47,13.11a53.19,53.19,0,0,0,9,2.71,23.49,23.49,0,0,1,3.84,1,6.12,6.12,0,0,0,2.88.36c2.09-.18,3.87.78,5.9.91,2.65.17,5.5-.47,8.14-.68,2.93-.24,6.71-.81,9.45-.59-2.16-3.24-.9-8-1.27-11.84C138,152.85,133.75,154.64,128.82,155Z"/><path class="cls-1" d="M189.71,59.89C180.94,54,169.35,50.8,159,50c-3-.25-6.14,0-9.15,0-3.93,0-7.9,1.25-11.8,1.14-2.55-.08-5.16.8-7.66,1.44s-5.12,1.72-7.51,2.51a33.42,33.42,0,0,0-9.34,4.53,84.8,84.8,0,0,0-8.61,6.85A80,80,0,0,0,90.67,83.67c-7.77,12.66-9.76,30-6.77,45.29a57.4,57.4,0,0,1,11.72-.9A103.68,103.68,0,0,1,95,115a84,84,0,0,1,1.33-15.67C97.1,95,98,89.82,100,85.77a23.74,23.74,0,0,1,2.58-4.21,42.2,42.2,0,0,1,4.92-5.36,70.58,70.58,0,0,1,6.5-5.77,73.29,73.29,0,0,1,9.08-5.28c5.23-2.61,11.64-4,17.33-5a60.47,60.47,0,0,1,15.36-.65c5.41.38,10.43,2.48,15.52,4.3a46.52,46.52,0,0,1,15.35,8.7A48.85,48.85,0,0,1,201.9,96.52a37,37,0,0,1,1.27,10,50.7,50.7,0,0,1-1,9.59c-.55,2.83-1.74,5.73-1.92,8.6-.36,5.73-3.09,10.89-6.28,15.62-1.25,1.85-2.69,3.54-3.73,5.39A23.89,23.89,0,0,1,188.6,149l-.42.56a3.41,3.41,0,0,1-.48.45,2.27,2.27,0,0,0-.71.86c-.16.49.37.6.73.64a4.23,4.23,0,0,1,1.26.31c.49.21,1,.41,1.47.57a3.37,3.37,0,0,0,1,.15.84.84,0,0,0,.7-.46,1.81,1.81,0,0,0,0-1.59,1.62,1.62,0,0,1-.12-.69,2.42,2.42,0,0,1,.69-1.32,10,10,0,0,0,.89-1.24c.65-.89,1.36-1.74,2.05-2.6.29-.35.58-.71.85-1.09a30.84,30.84,0,0,0,3.44-7.16,98.08,98.08,0,0,1,4.15-9.31,51.34,51.34,0,0,0,2.38-5,33.24,33.24,0,0,0,2.11-6.66c.37-2.46,1.18-4.74,1.74-7.16.68-3,.07-6,.41-8.94a14.28,14.28,0,0,0-1.14-7.54c-1.13-3-1.88-6.12-3.34-9s-3.15-5.42-4.72-8.12-3-5.16-4.73-7.6a27.42,27.42,0,0,0-5.92-6.29C190.48,60.41,190.1,60.14,189.71,59.89Z"/><path class="cls-2" d="M176.1,178.36a3.72,3.72,0,0,0-1-2.23c-.72-.81-1.82-1-2.75-1.44a18.11,18.11,0,0,0-2.5-1.45,2.75,2.75,0,0,1-1.57-1.1,13.14,13.14,0,0,1-1.6-2.57,30.56,30.56,0,0,1-1.3-5.42,16.27,16.27,0,0,1-.28-4,12.44,12.44,0,0,1,2.06-6.18,8.22,8.22,0,0,1,2.34-2,11.84,11.84,0,0,1,2.81-1.54,14,14,0,0,0,4.69-2.28c.93-.7,1.86-2.38,3.21-1.82,1.11.45.79,2.69,1.2,3.63a4.09,4.09,0,0,0,1,1.45,3.39,3.39,0,0,0,1.68.86c.61.12,1.38.57,2,.07.85-.73,1-1.06,2.25-.89.39.05.63.68,1.08.8s.89-.85,1.68-.24c.5.38.37,1.48.34,2a3,3,0,0,0,.74,2.3,14.11,14.11,0,0,1,1.55,1.65c.78,1.34.26,3.17,0,4.56a16.34,16.34,0,0,1-1.28,4.89c-.64,1.16-1.21,2.16-1.89,3.27a5.32,5.32,0,0,0-.77,1.45,11.25,11.25,0,0,0,0,4.13c.17,1.1.72,2,1,3.11a20.45,20.45,0,0,1,.22,2.07c.08.48.4,1,.15,1.49a23.55,23.55,0,0,1-15.44-2.78A3.5,3.5,0,0,0,176.1,178.36Z"/><path class="cls-1" d="M174.09,155.1a17.48,17.48,0,0,0-1.13-3.62c1.15.17,1.41,1,1.58,2s.61,2,.84,3.12a5.57,5.57,0,0,1-1.3-2.64"/><path class="cls-3" d="M176.05,155.28s-.08-.26-.11-.37a11.77,11.77,0,0,0-.33-1.16c-.19-.5-.43-1-.66-1.46-.12-.26-.38-.45-.23-.74a1.42,1.42,0,0,1,.62-.57,1.12,1.12,0,0,1,.81-.15c.36.09.42.36.48.7a6.22,6.22,0,0,1,0,1.43,9.6,9.6,0,0,1-.27,1c0,.21-.12,1.08-.34,1.11"/><path class="cls-1" d="M176.43,151.41c-.2,0-.35-.15-.56-.12a.59.59,0,0,0-.49.35.79.79,0,0,0,.28,1c.45.24.8-.17.84-.59a.93.93,0,0,0-.12-.6c-.14-.16-.4-.13-.51-.27"/><path class="cls-4" d="M191.4,153.05c-.08.82-1.24,1.51-1.87,2.1-.26.25-1.65,2.27-2.08,2.07s-.16-1.27-.19-1.61a6.63,6.63,0,0,0-.42-1.63,1.9,1.9,0,0,1-.14-1.49c.21-.6,1.16-1.61,1.76-.85.1.13.25.19.35.32s.17.19.23.29,0,.38,0,.53,0,.41,0,.62,0,.36,0,.55-.09.36-.1.55a.75.75,0,0,0,0,.15c.14-.1.2-.4.23-.57s.05-.39.07-.6a2.32,2.32,0,0,1,.29-1,1.56,1.56,0,0,1,.65-.57,1.83,1.83,0,0,1,.47,0c.17,0,.23.14.34.27A1.17,1.17,0,0,1,191.4,153.05Z"/><path class="cls-2" d="M141.15,157.51a47.2,47.2,0,0,1-1.87-12.78c0-5-.81-9.28,1.74-14,1.83-3.4,4.23-6.6,6.16-10,2.31-4,7.45-6.14,11.84-7.33,2.35-.63,4.47-1.46,7-1.43,1.33,0,2.67,0,4,0a20.85,20.85,0,0,1,3.6.53,17,17,0,0,1,6.1,2.57,25.47,25.47,0,0,1,2.72,2c.65.58,1.44,1,2.1,1.55a5.39,5.39,0,0,0,1.39,1.13c.47.18,1.18-.08,1.71-.07,1.27,0,2.54-.25,3.72.33.24.12.9.46,1,.71s-.41.77-.5.93a10.13,10.13,0,0,1-.48.92,19.08,19.08,0,0,0-1.56,3.33c-.29.82-.43,1.62-.64,2.46s-.47,1.48-.7,2.26a12.39,12.39,0,0,0-.35,1.58c0,.3,0,.85-.18,1.1-.41.48-1.19-.64-1.52-1-.94-.87-1.91-1.77-2.79-2.7a25.32,25.32,0,0,1-2.42-3.7c-.36-.54-.48-1.11-1.08-1.45-.77-.43-1.55-.75-2.27-1.23-3-2-6-4.2-9.72-4.73a10.77,10.77,0,0,0-2.72-.18,7.58,7.58,0,0,0-2.22.71,26.78,26.78,0,0,0-3.46,1.86c-2.65,1.82-6,3.66-7.23,6.69-2.27,5.68-5.62,14.84-3,20.8,1.51,3.4,5.16,6,7,9.4,2.23,4.16,3.91,8.58,5.89,12.81,1.89,4.06,3.48,7.09,3.28,11.67a7.29,7.29,0,0,1-1.3,4.59c-.22.32-3,3.6-2.49,3.9a48.16,48.16,0,0,1-4.85-3.24c-3-2.35-6.2-5.39-7.93-8.86-1.45-2.92-2-6.28-3.41-9.33A80.36,80.36,0,0,1,141.15,157.51Z"/><path class="cls-1" d="M155.64,156a9.13,9.13,0,0,0,1.19.7c1.48-3.38,3.64-6.94,5.46-10.26a60.81,60.81,0,0,0,4.54-9.83c1.38-4,2.86-7.38,3.56-11.68,1-5.86,1.18-11.8,1.58-17.71A82.24,82.24,0,0,1,174.78,89c.11-.36.22-.73.35-1.09a43.49,43.49,0,0,1,4.24-8.11c.79-1.3,1.58-2.6,2.28-4a17.85,17.85,0,0,1,1-1.82,8.35,8.35,0,0,0,.75-2c.06-.18.29-.59.24-.79s-.68-.61-.9-.8a17.82,17.82,0,0,0-2.87-2.37,20.28,20.28,0,0,0-3.41-1.31,4.81,4.81,0,0,0-2.55-.52,5.54,5.54,0,0,1-.63,1.38,4.58,4.58,0,0,0-.41,1.43c-.2,1-.47,2.16-.73,3.21-1.4,5.88-3.84,11.44-5.83,17.14s-3.56,11.74-3.17,17.88c.46,7.22,1.33,14.24-1.08,21.09a78.65,78.65,0,0,1-5.89,12,51.91,51.91,0,0,1-2.58,5c-.4.56-3.6,3-3.52,3.5C150.5,151.27,153.32,154.36,155.64,156Z"/><path class="cls-1" d="M173.8,175c.41-.19,1.61.14,2.18.11a15.35,15.35,0,0,1,2.54.18c1.74.17,3.52.17,5.27.24,1.94.07,3.91,0,5.86.06.53,0,1.71-.16,2.17.2s.19,1.19.14,1.82c-.09,1.06-.33,2.1-.41,3.15a5.51,5.51,0,0,0,.23,2.77c.43.73,1.19.88,1.91,1.18a7.23,7.23,0,0,1,1.79,1.34,13.72,13.72,0,0,0,2.06,1.42c1.25.81,2,1.6,3.54,1.85.93-2.38,2.57.73.53.78.74.55,1.53,2.13-.15,2.07a1.64,1.64,0,0,1-.35,2.29,3,3,0,0,1,.31.15,2.29,2.29,0,0,1-.27,1.09h-.3c.36.6.5,2.77-.52,2.76.13.5.09,1.23-.47,1.27.61.29.45,1,0,1.39.67.66-.16,2.37-.88,1.93.8,1.45-3.78,1.36-2-.55.37-.4-1.89-.25-2-.21-1.13.28-2.22.75-3.33,1.09A24.37,24.37,0,0,1,187,204.6a37.42,37.42,0,0,1-6.78.38,54.87,54.87,0,0,1-10.23-1.3,4.93,4.93,0,0,1-3.45-2.35,17.44,17.44,0,0,1-1.25-3.31c-.25-1,.06-2.09-.53-3a7.14,7.14,0,0,0-1.83-1.53,15.42,15.42,0,0,0-4.62-2.82c.67-2.09.64-4.29,1.73-6.31s3.47-3,4.71-4.76c.77.09.95.89,1.53,1.32a4.31,4.31,0,0,0,2.63.6,31.22,31.22,0,0,0,3.64-.32,10,10,0,0,0,.4-2.86,8.74,8.74,0,0,0,.21-3.08"/><path class="cls-1" d="M117.73,145.33h.15"/><path class="cls-1" d="M95.11,104.66c5.41.18,11.72,4.32,17.09,6.24,7.68,2.73,15.17,5.67,23,7.79,5.56,1.5,11,3,16.59,4.4,2.06.52,4.15.82,6.26,1.39,1.73.46,4.44,1.84,6.18,1.21a11.62,11.62,0,0,0-.56-3c-12.47-2.56-26.25-5.18-37.63-11.37-6.87-3.75-14.39-6.32-21.36-9.85-2.36-1.19-5.35-3-7.9-3.28-2-.25-1.3-.68-2.38.91A4.72,4.72,0,0,0,94,103c.75-.1.5-.48.66-1"/><path class="cls-1" d="M180.62,162.93a3.45,3.45,0,0,1,2.93-.83c1.09.19,1.5,1,2,1.88a2.75,2.75,0,0,1,2.92-.19c.79.53,1,1.4,1.46,2.12.77-.19,1.23-.61,2.1-.47a1.79,1.79,0,0,1,.8.25c.26.18.44.78.66.88.48.2,1.58-.29,2.24-.15a3,3,0,0,1,1.9,1.51,24.36,24.36,0,0,1,1.09,2.32c.18.35.22.49.56.63.5.22.31,0,.75-.17.85-.42,3.75-1.27,3.8.5a3.07,3.07,0,0,1,1.38-2c.47-.29,2.14-.6,2.19.23a11.13,11.13,0,0,1,2.53-.79c.45-.13,1-.56,1.5-.45s.61.76,1,.53c.18-.1.23-1.15.34-1.39a2,2,0,0,1,1.05-1.06c.56-.27,1.86-.32,2.24.23.7-.86.93-1.36,2.18-1.59a4.55,4.55,0,0,1,2.2,0,7,7,0,0,1,1,.77,8.76,8.76,0,0,1,1.31-3.06,2,2,0,0,1,3-.2c.13-.92,1.3-1.58,2.14-1.81a2.85,2.85,0,0,1,2.52.62c.61-.82,1.1-1.68,2.21-1.63a2.37,2.37,0,0,1,1.39.38c.49.47.13.47-.33.77,1.26.32,2.39-.79,3.69,0,.48.31.43.87.79,1.16.6.47,1.89-.23,2.45-.39a2.18,2.18,0,0,1,1.82.06c.68.37.87.52,1.63.11a4.38,4.38,0,0,0,1.16-1c.14-.14.31-.23.46-.38s.33-.37.49-.57a27.7,27.7,0,0,0,1.59-2.54c.2-.35.54-.78,1-.59a1.21,1.21,0,0,1,.58.71,1.39,1.39,0,0,1-.41,1.13,3.7,3.7,0,0,0-.74.93c-.06.15-.18.45-.07.61s.31.09.45.1a2.31,2.31,0,0,1,.52.12.73.73,0,0,1,.53.67,1.32,1.32,0,0,1-.41.82c-.45.54-1.19.78-1.68,1.28-.31.31-.47.83,0,1.06s1.09.32,1.38.74-.06,1-.32,1.15a4.15,4.15,0,0,1-1.58.56c-.22,0-.29,0-.34.24a1.61,1.61,0,0,0,0,.69,2.09,2.09,0,0,0,1.23,1,4.41,4.41,0,0,1,1,.53c.1.07.32.26.33.39,0,.4-.83.55-1.1.55a4.5,4.5,0,0,1-3.23-1.52,9.27,9.27,0,0,0-1.09-1.17c-.31-.25-.7-.42-1-.68-.15-.12-.28-.37-.47-.43a.65.65,0,0,0-.42.13,4.59,4.59,0,0,1-1,.61,5.63,5.63,0,0,1-2.26.45c-.79-.24-1.58-1.74-2.27-2.27-.69.74-.79.91-2,.81s-1.07-.57-1.83-1.14-1,.36-1.64.83-1.77,1.08-2.47.21c-.46.49-.41,1.22-1.13,1.52-.87.36-1.07-.58-1.62.15-.38.49-.42,1.11-1,1.51-.8.59-.94-.2-1.74-.11a1.23,1.23,0,0,1-1.31,1.23c-.84,0-1-.81-1.66-.33s-.82,1.2-1.64,1.42-1.1-.34-1.53-.82c-.31.5-.67,1.32-1.25,1.59s-1.32-.36-1.85-.1c-.37.18-.53.93-.9,1.22-.83.63-2.54.91-3.32,0a5.16,5.16,0,0,1-1.48,1.7,2.81,2.81,0,0,1-1,.31c-.64,0-.46-.35-.91-.67-.73-.53-1.13.65-1.92.86-.62.16-2-.38-2.07-1.12-.71,1.06-.87,1.54-2.34,1.63-1,0-2.25-.12-2.3-1.31a1.66,1.66,0,0,1-2.17-2.31c-1.08-.21-2.42-.53-2.09-1.92a6.21,6.21,0,0,0-2.15,0,3.42,3.42,0,0,1-1.19-.08c-.61-.22-.32-.57-.73-.82-.25-.16-.62.11-.87.16a2.73,2.73,0,0,1-1.17,0c-.9-.16-1.49-.5-1.34-1.53-.78.45-3.56.42-3.18-1.13a4.74,4.74,0,0,1-2.27.69,2,2,0,0,1-1.14-.23c-.3-.22-.35-.73-.74-.79-.61-.1-1.49.62-2,.91a5.79,5.79,0,0,1-2.33.45c-.48.05-.68.27-.65-.31a5.38,5.38,0,0,1,.49-1.66c.41-1,1-1.9,1.47-2.8a12,12,0,0,0,.73-1.88,5.83,5.83,0,0,1,1.17.16c.47.17.61.41,1.13.44C178.77,161.78,180.76,162.75,180.62,162.93Z"/><path class="cls-1" d="M175,167.39c-.44.31-.19,1-.09,1.54s.11,1.26.18,1.91c.15,1.25.82,2.72-.23,3.78-.47.47-.87.37-1.49.27s-1.09-.16-1-1c.22-1.29,1.1-2.36,1.43-3.65.44-1.7.5-3.44.79-5.17"/><path class="cls-1" d="M166,149.06c.6.13,1.34.94,2,.62.3-.14.5-.51.84-.67a4.47,4.47,0,0,1,1.07-.29c.39-.06,1.44-.66,1.73-.45s.26.71.31.89a8.08,8.08,0,0,1,.32.9c.07.62-.63,1.15-1.2,1.14-.33,1-.19,2-.43,3s-1,2-1.07,3.06a4.12,4.12,0,0,0,1.18,2.38,4.55,4.55,0,0,0,2.62,1.3,9.16,9.16,0,0,0,1.28.3c.46,0,.93-.13,1.37-.14a5.12,5.12,0,0,1,1.24.24c.57.14,1,.14,1.14.76a4.4,4.4,0,0,0-1.42.71c-.69.36-.94.22-1.14,1-.7,2.82-.27,6.52,2.8,7.5,1.38.44,2.84-.67,4.25.58,2,1.74,2.42,4.44-.47,4.78-1.18.14-2.5-.5-3.72-.46-1.86.06-3.69.8-5.56.93a9.67,9.67,0,0,1-7.77-3c-1.76-1.62-6-5.6-5-7.95a2.7,2.7,0,0,0-.29-2.39,6.64,6.64,0,0,1-.36-4,4,4,0,0,1,.49-1.5c.27-.4.54-.59.54-1.1,0-1.35-.75-2.81-.18-4.14.49-1.16,1.84-1.62,2.8-2.27S164.52,148.73,166,149.06Z"/><path class="cls-1" d="M167.53,150c-.91-.44-1.2-2.8-.63-3.94l.47,0c-.18-.47-.84-1.27-.82-1.86,0-1.37,1.08-1.06,1.75-2,1-1.4,0-3.32,2.27-3.48.78-.06,1.44.44,2.18.27,1.26-.3.74-.37,1-1.13.17-.56-.7-1,.25-1.6.6-.37,2,.13,2.58.26-.2-1.62.88-2.11,2.25-1.14.11-1.63,1.16-1.87.26-3.33-.51-.82-1.94-2.12-2.95-2.14,1.67-.51-1.24-5.17-3-2.77.49-1.34-1.36-1.51-2.14-1,0-.9-1.15-1.5-2-1.55a9,9,0,0,1,.84-1.4h.45c.82-1.6,3.15-1.81,3.32.29,1.45-.94,2.17.43,2.92,1.47,1-.81,1.9-.26,1.66,1a1.64,1.64,0,0,1,1.93,2.12,1.53,1.53,0,0,1,1.37,2.25c1.35.07,1.27,1.57.51,2.3,1.74.32.88,2.22.09,3,.86.73.6,1.92-.66,1.82.44,1.4-1.3,1.79-2.31,1.39-1,2-1.5,1.66-3.31,1.12,1.2,1.83-.8,2.26-2.36,1.87-.28.77-.23,2.45-1.34,2.05a.4.4,0,0,1,.13-.45c.55,1.06-.88,1.7-1.81,1.92.73.51,2.6,2,.52,2.39,2,1-1.82,3.89-3,4.15a1,1,0,0,1-.08-1.07"/><path class="cls-2" d="M135,262a21.53,21.53,0,0,0,1.94,4.77c4.46,6.83,7.06,14.27,9.56,22,1.92,6,3.42,12.13,4.76,18.23,1.46,6.63,2.08,13.39-4.93,17a48.89,48.89,0,0,1-18.74,5.36c-5.09.37-10.11.52-15.17.89-5.45.39-36-1-41.06-.89-9.19.24-19.38-.55-28.14-3.63-1.86-.66-3.84-1.15-5.68-1.83a18.36,18.36,0,0,1-4.61-3c-2.59-1.94-5.49-4.87-6.31-8.06-.26-1-.19-4.55.54-5.27,1-1,3.78.57,4.89,1.08a13.54,13.54,0,0,0,4.09,1.29c1.34.17,2.6.54,4,.85a19,19,0,0,0,9.52-.7,56.22,56.22,0,0,0,7.71-2.85c2.46-1.17,5.06-2.66,7.72-3.29a60,60,0,0,1,14-1.63c6.24,0,11.92,1,18,2.09a81.18,81.18,0,0,1,13.57,4.13c.16-2-1.74-3.78-2.76-5.34-1.24-1.86-2.06-4-3.12-6-2.2-4.13-4.59-8.72-5.36-13.36C98,275.21,96.53,265,105.2,259.58c1.42-.89,2.42-2,3.71-2.92a17.06,17.06,0,0,1,5.33-2.24,22,22,0,0,1,10.7-.55c3.27.71,7.15,2.89,9,5.79A11.56,11.56,0,0,1,135,262Z"/><path class="cls-2" d="M79.84,320.25c1.29-3,2.7-7.29,1.43-10.51-.93-2.34-1.55-6.26-4.18-7.31-1.44-.57-3.8-.18-5.42-.18a28.76,28.76,0,0,0-11,2.62c-3.45,1.42-7,4.48-10.71,4.86a6.4,6.4,0,0,1-5-1.81c-1-1.16-.34-3-.49-4.43a8.2,8.2,0,0,0-1.35-4c-1.43-1.9-3.83-2.29-6.07-2.27-5.24.06-10.18,2.61-15.4,2.63-5,0-8.32-4.09-13.4-4.08-2.22,0-4.55.18-6.39,1.51-2.12,1.54-2.67,3.09-.37,4.38,3,1.69,6.43,1.56,9.39,3.43,2,1.28,3.62,3.12,5.56,4.51a33.7,33.7,0,0,1,4.88,3.76c3.53,3.63,8.33,6.13,12.83,8.38,15.57,7.8,28.06,7.75,44.79,2.49"/><path class="cls-4" d="M181.05,155.82c-.35.2-1.76-.3-2.45.54a2,2,0,0,0,.85,3.1c2.83,1.33,4.48-2.45,1.79-3.85"/><path class="cls-2" d="M94.05,201.21c-1.45,1.42-2.88,2.86-4.32,4.29s-2.81,3.44-4.43,4.35c-2.35,1.32-3.62-1.45-4.63-3.31a63.78,63.78,0,0,1-4.75-11.35,92.06,92.06,0,0,1-4.31-28,81.18,81.18,0,0,1,3-23.61,37.75,37.75,0,0,1,4.93-10.44,23.79,23.79,0,0,1,16.27-9.71,9.86,9.86,0,0,1,3.85-.25,14,14,0,0,1,4.17,2.51,30,30,0,0,1,7,7.37c2.36,3.54,4.55,7,5.49,11.15.46,2,1.63,6.68-.3,8.33-2.16,1.83-7-1.66-8.85-3-.71-.52-1.53-.91-2.24-1.49-1.18-.95-3.5-4.33-5.23-3.75-2.61.87.22,3.78,1,4.81.9,1.25,1.76,2.52,2.63,3.78a69,69,0,0,1,4.91,8c3.2,6.35,7.43,16,4.71,23.32-1.26,3.39-5.4,5.58-8.08,7.71A136.65,136.65,0,0,0,94.05,201.21Z"/><path class="cls-5" d="M200.61,227.33a12.67,12.67,0,0,1-4.34,2.43c-1.13.35-2.43.52-2.52,2s1.32,2.65,2,3.69a17.6,17.6,0,0,1,2.37,4.28c1.82,5.58,1.41,12.21.39,17.89a29.6,29.6,0,0,1-3.5,9c-1.4,2.55-3,3.78-5.21,5.49a25.35,25.35,0,0,1-6.56,3.28,46.25,46.25,0,0,1-4.72,1.79,32.61,32.61,0,0,1-5.63.65,29,29,0,0,1-10.15-.94A26.9,26.9,0,0,1,158,275a14.62,14.62,0,0,1-1.92-1.29c-.71-.51-1.57-.75-2.26-1.3A9.91,9.91,0,0,1,151.9,270a14.64,14.64,0,0,0-1.86-2.36c-.44-.46-1.44-2.11-2.13-2.06-.28,1.93.7,3.95,1.63,5.61s1.58,3.21,2.5,4.69c-1.66,1.67-3.86,2.5-5.85,3.68-.53.31-1.05.55-1.57.84a5.6,5.6,0,0,1-1.81.55c-1.78.4-3.48.91-5.24,1.36a33.63,33.63,0,0,1-8.32.67c-3,0-6.59.47-9.44-.51a41.77,41.77,0,0,1-4.13-1.4,20,20,0,0,0-2.37-1c-1-.3-1.77-.05-2.75-.35-2.65-.81-5.23-1.83-7.8-2.85A32.9,32.9,0,0,1,91.41,269a41.17,41.17,0,0,1-6.45-8.5A43.08,43.08,0,0,1,83,256.12c-.3-.73-.4-1.52-.69-2.25-.87-2.19-2.39-4.25-3.43-6.39a75.93,75.93,0,0,1-3-7.08,57.39,57.39,0,0,1-3.34-13.79c-1.3-12.6,1.92-28,11.69-36.85,9.1-8.32,20.36-9.67,28.44-20.12,7.19,6.06,7.57,21.67,9.8,30.43,1.48,5.82,3.11,12.29,6.38,17.43,3.17,5,12.32,7.62,17.91,8.44a19,19,0,0,0,4.33.54c10-.82,10.75-17.48,11.93-24.4.7-4.12.82-7.92,1.16-12a41.26,41.26,0,0,1,.88-5.17c.67-3.21,3.16-6.56,6.79-4.34-2.14.81-2.29,4.45-2.83,6.28a39.62,39.62,0,0,0-2,8.71c-.27,4.3,5.78,9.52,10,7.2,1.8-1,1.62-3.14,2-4.9a29.49,29.49,0,0,1,3.64-8.95,12.32,12.32,0,0,1,1.14-1.64,30.26,30.26,0,0,1,2.39-2,6.45,6.45,0,0,1,8.49-.54c1,.76,3.44,1.79,3.17,3.28-2-.93-4.92-.94-7.06-1.07-.85-.06-1.33.94-1.67,1.62a20.19,20.19,0,0,0-.87,2.1,8.6,8.6,0,0,0-.59,1.68c-.31,2.63-1.71,7.08.77,9.11s6.54-1.09,8.52,1.35c1.76,2.17,4,3.87,5.62,6.21,2.74,3.9,3.82,8.06,2,12.8A14,14,0,0,1,200.61,227.33Z"/><path class="cls-1" d="M197.06,187.76c-.58.25-2.46-.5-3.46-.57-1.51-.12-2.77-.43-4,.21-3,1.48-2.71,5.12-3.17,7.86a19.72,19.72,0,0,0-.08,5.79,8.16,8.16,0,0,0,1,3.15c1,1.68,4.17,3.26,6,3.69,4.61,1.08,7.73-2.72,5.12-6.57"/><path class="cls-1" d="M194.4,230.19c-1.44,1.69-7.73,2.24-10.77,2.48a32.27,32.27,0,0,1-6-.11c-2.88-.29-4-1.21-6.46-2.68a37,37,0,0,1-6-4.48,39.35,39.35,0,0,1-5.43-5.67,3.16,3.16,0,0,1-.65-2.27,8.85,8.85,0,0,1,.58-2.8,20.33,20.33,0,0,1,1.51-2.37,12.92,12.92,0,0,0,.55,3.11,10.29,10.29,0,0,0,1.45,3.11c.37.45.82.53,1.25.82.6.42,1.11,1.11,1.68,1.58a40.58,40.58,0,0,0,8.44,4.9A38.39,38.39,0,0,0,185.64,229c3,.46,6.35.17,9.51.48a1.77,1.77,0,0,1-.75,1.52"/><path class="cls-3" d="M160.49,216.33c-.23.37-.91,2.11.37,2.19s.66-2.35-.37-1.82"/><path class="cls-3" d="M163.15,220.1c-1,.43-.56,2.54.54,2a1.42,1.42,0,0,0,.46-1.44c-.16-.27-.92-.48-1.08-.29"/><path class="cls-3" d="M166.65,223.41c0,.18.17-.16-.09-.1s-.32.33-.35.63a1,1,0,0,0,.93,1.22c.6.05,1.32-.5,1-1.17-.13-.26-1.4-1.09-1.37-.4"/><path class="cls-3" d="M171,225.89c-1.21.67.07,2.55,1.33,2,.59-.25,1-.87.61-1.4-.2-.3-1.43-1.16-1.48-.46"/><path class="cls-3" d="M176.12,228c-1.09.34-1.56,2.29-.17,2.57a1.33,1.33,0,0,0,1.35-1.47c-.11-.39-1.06-1.15-1.37-.73"/><path class="cls-3" d="M180.9,229.75c-1.27-.21-1,1.64.06,1.75,1.79.19,1-2-.24-2a.28.28,0,0,0,0,.18"/><path class="cls-3" d="M185.58,230.3c-.7-.13-.34,2.14,1.06,1.38s-.74-2.22-1.15-1.56"/><path class="cls-3" d="M190.46,230.12c-1,.38,0,1.69.85,1.34a.85.85,0,0,0,.5-1c-.16-.42-.65-.46-1.08-.44"/><path class="cls-1" d="M190.11,261.93c.3,1-2.2,4.34-3,5.21a10.77,10.77,0,0,1-4.77,2.62c-3,.9-7.83.05-10.5-1.6-4.68-2.9-9.73-11.87-5.57-17a12,12,0,0,1,7.2-4.54,4.76,4.76,0,0,1,3.51.75c1.15.9,1.36,2.47,1.81,3.8a1.92,1.92,0,0,0,3.25,1,19.81,19.81,0,0,0,1.31-1.53,4.18,4.18,0,0,1,1.56-1c3.11-1.28,5.72,1.35,6.66,4.13a7.43,7.43,0,0,1,.21,4.85c-.56,1.46-.86,3.63-2.11,4.77"/><path class="cls-3" d="M186,251.54c-.1-.69-1.84.08-2.28.33a8.32,8.32,0,0,0-2,1.63,6,6,0,0,0-1.55,5.35c.56,1.92,2,3.72,4.21,3.8s3.68-1.28,4.7-3a6.2,6.2,0,0,0,.21-6.19,4.24,4.24,0,0,0-1.66-1.95,4.59,4.59,0,0,0-1.4-.45c-.48-.07-.84.24-1.27.2"/><path class="cls-5" d="M182.64,257.52a.74.74,0,0,0,.78-.25,2.1,2.1,0,0,0,.28-.77,1,1,0,0,0-.63-1.2,1.46,1.46,0,0,0-1.3.83A1.23,1.23,0,0,0,182.64,257.52Z"/><path class="cls-1" d="M181.32,253.6a.94.94,0,0,1,0,.2,1,1,0,0,0,.12.32,1.22,1.22,0,0,0,.33.44,1.46,1.46,0,0,0,.58.27c.14,0,.25-.05.38-.05a3.84,3.84,0,0,0-.36-.14,3.65,3.65,0,0,1-.45-.32,2.18,2.18,0,0,1-.68-.77s0,0,0,0"/><path class="cls-1" d="M184.32,256a1.26,1.26,0,0,0,1.45,1.11c.06,0,.26-.12.23-.21a3.13,3.13,0,0,0-.55-.14c-.36-.15-1-.4-1.14-.82"/><path class="cls-1" d="M134.23,283.2a36.17,36.17,0,0,1-3.93.13c-1.29,0-2.58.16-3.87.21-1.08,0-2.13-.06-3.19.08-2.37.32-4.94-.41-7.3-.61-7.38-.62-14.73-2.72-20.74-7.15a61.47,61.47,0,0,1-14.73-14.94,62.33,62.33,0,0,1-9-20.81c-1.8-7.69-2.31-15.53-2.9-23.4-.4-5.36,1-9.77,3-14.66A39.14,39.14,0,0,1,80,189.47c3.63-3.86,7.91-6.31,12.12-9.45,4.36-3.24,9.2-5.92,13.72-9,1.17-.81,2-2.07,3.15-2.82a12,12,0,0,0,1.16-.66c.47-.38.71-1,1.22-1.33,1.15,1.35,1.59,3.19,2.74,4.56.62.74,1.94,1.62,1.11,2.67a3.3,3.3,0,0,1-2,.83,2.3,2.3,0,0,0-1.21.25c-.5.26-1,.57-1.49.78-1.28.51-2.49,1.23-3.72,1.85a22.18,22.18,0,0,1-4.4,1.57,17.12,17.12,0,0,0-3.85,1.82c-2.37,1.31-4.68,2.67-7,4.09-1.42.88-2.83,1.75-4.18,2.71A14.72,14.72,0,0,0,85.06,189a16.88,16.88,0,0,0-1.17,1.64c-1.2,1.65-2.6,3.15-3.81,4.79a40,40,0,0,0-5.55,10.3c-4.14,11.19.17,24,2.76,34.55a56.3,56.3,0,0,0,6.39,14.89c1.24,2.09,2.21,4.34,3.58,6.37a39.55,39.55,0,0,0,10.09,10,57.28,57.28,0,0,0,6.05,4.22,67.61,67.61,0,0,0,7.85,3.47c4.14,1.65,8.4,3.1,12.89,3.1a52.43,52.43,0,0,0,5.46-.46c1.11-.12,2.29-.18,3.4-.34.44-.06,1-.08,1.4-.13a25.08,25.08,0,0,0,3.51-.55,43.06,43.06,0,0,0,5.11-1.31,26.52,26.52,0,0,0,2.52-.92c.81-.4,1.68-.67,2.51-1s1.53-.57,2.24-.92,1.4-1.21,2-1.21c-.1,1,1.07,1.95,0,2.56-.85.49-1.81.76-2.71,1.17s-1.91,1-2.91,1.45C142.71,282.34,138.47,282.73,134.23,283.2Z"/><path class="cls-1" d="M111.18,177.1c.53,1.22,2.15,1,2.83,0s-.62-2.4-1.74-2A1.63,1.63,0,0,0,111.18,177.1Z"/><path class="cls-1" d="M106.16,181.36c.72-.32,1.12-1.69.34-2.22s-1.74.38-1.74,1.17S105.28,181.76,106.16,181.36Z"/><path class="cls-1" d="M100.17,186a1.72,1.72,0,0,0,1-2.73,1.87,1.87,0,0,0-3,.17A2.08,2.08,0,0,0,100.17,186Z"/><path class="cls-1" d="M94.69,189.22c1.33-.32.91-2,.27-2.78-1-1.22-1.8.17-1.71,1.24C93.32,188.54,93.62,189.49,94.69,189.22Z"/><path class="cls-1" d="M89.78,193.85a1.68,1.68,0,0,0,.59-2.87,1.57,1.57,0,0,0-1.59-.19C87.11,191.26,87.92,194.49,89.78,193.85Z"/><path class="cls-1" d="M84.6,198.1a1.51,1.51,0,0,0,.17-2.43,1.25,1.25,0,0,0-2.08.82C82.72,197.54,83.54,198.65,84.6,198.1Z"/><path class="cls-1" d="M80,205a1.78,1.78,0,0,0,1.08-2.77c-.73-1-2.49-.28-2.66.87C78.3,204.11,78.91,205.24,80,205Z"/><path class="cls-1" d="M77.12,214.33a1.54,1.54,0,0,0,1.87-2c-.12-.48-.42-1.19-.93-1.33a2.06,2.06,0,0,0-2,1.35A1.53,1.53,0,0,0,77.12,214.33Z"/><path class="cls-1" d="M78.24,224.71c2.4.25,2.09-4.15-.16-4C76.13,220.76,76.6,224.53,78.24,224.71Z"/><path class="cls-1" d="M77.38,230.74c-.36,1.1-1.51,4.9.94,4.57,3.16-.44.75-6.6-.94-4"/><path class="cls-1" d="M81.64,244c2.49-.58.72-5-1.22-3.4C79.24,241.51,79.87,244.36,81.64,244Z"/><path class="cls-1" d="M84.3,247.17c-1.81.11-1.47,3.58.57,3.48,3.57-.17,0-5.26-1.15-2.9"/><path class="cls-1" d="M87.77,257.56c2.55-.3.32-3.94-1.14-3A1.65,1.65,0,0,0,87.77,257.56Z"/><path class="cls-1" d="M93.52,264.2c1.25-.33,1.14-2.08.21-2.76s-2,.35-1.92,1.41S92.45,264.49,93.52,264.2Z"/><path class="cls-1" d="M97.47,268.89a1.67,1.67,0,1,0,3.26-.56A1.67,1.67,0,1,0,97.47,268.89Z"/><path class="cls-1" d="M108.75,275.15c.84-1.58-1.74-3.6-3-2.3C104.26,274.36,107.55,277.44,108.75,275.15Z"/><path class="cls-1" d="M112.85,276c-.43.72-.6,2.8,1.44,2.32,2.64-.63-.2-3.45-1.15-2.32"/><path class="cls-1" d="M119.19,277.17c-.7.59-.3,3.13,1.69,2.61,2.51-.64.38-3.85-.82-2.61"/><path class="cls-1" d="M127,277.17c.09,1-.22,3.86,2,2.6,1.95-1.1.42-3.23-1.44-2.89"/><path class="cls-1" d="M134.71,276.25a1.48,1.48,0,1,0,2.51,1.57A1.48,1.48,0,0,0,134.71,276.25Z"/><path class="cls-1" d="M144.28,274.86c1.87-.29,1.79,2.84.05,2.55a2.68,2.68,0,0,0-.34-1.68"/><path class="cls-1" d="M192.85,141.73c-.11.13-1.67-.76-1.91-.91a6.1,6.1,0,0,1-2.19-1.87,4.64,4.64,0,0,1-.5-1.65c-.08-.57-.28-1.12-.39-1.69-.7-3.71.75-7.58,2.36-10.89a17,17,0,0,1,2.62-4.24,5.21,5.21,0,0,1,4.38-1.68,9.72,9.72,0,0,1,3,.92c.43.19.75.16.93.6s.34.84.19,1.17c-.07.14-.37.37-.48.52s-.23.56-.48.65a3.58,3.58,0,0,0-1.25-.82,14.1,14.1,0,0,0-2.78-.75c-.44-.07-1.83-.35-2.14.11a2.19,2.19,0,0,0,0,.3,4,4,0,0,1-.24.46c-.21.38-.41.76-.61,1.15a19.7,19.7,0,0,0-1,2.59c-.39,1.18-.82,2.35-1.12,3.55s-.75,2.53-1.06,3.82a8.13,8.13,0,0,0-.45,2.93c.09.54.79,1.12,1.17,1.49a11.54,11.54,0,0,0,2.2,1.74,6.68,6.68,0,0,1,.93.6c.15.12.49.36.49.58s-.45.85-.59,1.09-.49.94-.78,1"/><path class="cls-2" d="M190.56,131.51a26.2,26.2,0,0,1-3.05-1.22,1.82,1.82,0,0,1-.45-2.39c.84-.93,3.64,1.33,4.53,1.67-.09-1.67-4-1.92-3.31-3.77s3.49,1.24,4.58,1.18c-.82-1-2.1-1.53-2.83-2.6s-.83-2.32.65-2.34a8.8,8.8,0,0,1,3.33,1c.86.38,1.06,2,1.21,3a9.53,9.53,0,0,1-1.33.73c.63.52,1.55,1.3,1.32,2.28a2.3,2.3,0,0,1-2.31,1.3c1,1.38,0,2.14-1.3,2.46s-2.37.56-2.64-1.09a4.68,4.68,0,0,1,1.6-.19"/><path class="cls-2" d="M293,120.41c-.36.29-.74.56-1.1.81a14.13,14.13,0,0,1-1.58,1.07c-.36.2-.73.42-1.08.64-.19.11-2.48,1.46-2,1.75a29,29,0,0,0-3.79-2.47,11.54,11.54,0,0,1-1.27-.5c-.44-.24-.37-.09-.29-.64a2.15,2.15,0,0,0-.18-1.84c-.4-.5-1.08-.75-1.52-1.22s-.81-.73-1.18-1.12a9.84,9.84,0,0,1-1-1.69c-.37-.58-1.15-1.77.05-2s1.44,1.83,2.06,2.4c1.2,1.12,2.29-.81,2.8-1.73,1.18-2.15,1-4.88,2.18-7,.63-1.15,1.27.2,1.34.89a8.2,8.2,0,0,1-.2,2.21,13.82,13.82,0,0,0-.34,2.49c0,.62.34,3.11.89,1.35A3.16,3.16,0,0,1,287.8,112c.85-.55,1.4.06,2,.68.42.44.37.26.21.85a2.78,2.78,0,0,0-.25,1,1.41,1.41,0,0,0,.7.8c.46.24.72,0,1.12-.19.85-.5,1.68-1,2.66-.56a4.07,4.07,0,0,1,.93.53c.36.31,0,.52-.3.65-.64.23-1.61.31-2,.95-.13.22-.16.47-.31.69,0,.07-.68.95-.35,1a1.27,1.27,0,0,0,.81-.25c.23-.13.48-.46.76-.49s.58.37.62.63a1.43,1.43,0,0,1-.33,1A6.24,6.24,0,0,1,293,120.41Z"/><path class="cls-3" d="M310.85,6.62c.91,11,16.25,17.92,24.84,21.32,5.76,2.27,12.16,3.31,18.3,5,3.32.93,5.38,2.58,9.1,2.56,2,0,4.06.51,6,.23.8-.12,4.6-2.62,4-2.68-6.39-.61-12.63-.33-18.69-1.58a75,75,0,0,1-19.28-6.76c-5.23-2.65-10.65-5.07-15.08-9.12-3.71-3.39-5.79-7.64-9.79-10.47-1.76,2.59.55,4.07,3.05,4.51"/><path class="cls-1" d="M101.91,81.15c3.85-.57,9,3.65,12.79,5.21,5.21,2.15,11.27,3.13,16.61,3.93,5.94.9,12,3,17.77,4.94,4.84,1.59,10.81,4.48,15.63,5.13-.18-3.51,1.73-4.46-1.94-6-2.68-1.15-5.81-1.33-8.6-2.39-5.67-2.16-11.88-3.1-17.91-4.19a98.16,98.16,0,0,1-16.6-5c-4.87-1.83-10.21-4.66-15.12-5.64a24.79,24.79,0,0,1-1.62,4.5"/><path class="cls-1" d="M269.28,93.83c.75.46,3-1.2,4.19-.91,1.6.38,1.76,2.75,3.85,2.36.17-2.3.25-4.22-1.42-6-2,.75-5.85,2.15-7.12,1.47"/><path class="cls-1" d="M269.79,83.18c1.49.68,2.25-.42,4,.08-.19,1.53,1.33,4.25,3.05,2.49.75-.77.09-5.5,0-6.56-2,.2-2.18,3.31-5,1.46"/><path class="cls-1" d="M273.34,72a2.52,2.52,0,0,0,3,1.09c-.06.54.25,1.36.15,1.89,3,.09,1.45-4.21,2.4-5.93-1.51.09-.82,1.24-1.82,1.58a11.21,11.21,0,0,1-3.7.36"/><path class="cls-1" d="M275.37,104a12.27,12.27,0,0,0,2.46-2.41c-1-.81-.67-1-.86-2.08,1.7-.38,4.1,2.5,4.94,3.88-4.05-.21-3.48,1.79-3.5,5.17"/><path class="cls-1" d="M293.55,104.56c.1,1,.17,1.93.31,2.89.05.39,0,.67.28,1a4.77,4.77,0,0,0,.9.71c.31.21,1.25.85,1,1.2a3.47,3.47,0,0,1-1.37.94,1.57,1.57,0,0,1-1.14.17c-.39-.12-.54-.48-.69-.82a2.56,2.56,0,0,0-.72-.81,10.31,10.31,0,0,1-1-1.74c-.9-1.36-2.16-1.39-3.52-.62C287.65,104.79,291.4,104.27,293.55,104.56Z"/><path class="cls-1" d="M301.24,103.47c-1.2-2.51-3.33-2.38-5.51-2.11-.83-2.55,1.65-3.91,3.38-4.94.5,4.49.21,3.78,3.65,6"/><path class="cls-1" d="M276.89,62.39a2.7,2.7,0,0,0,2.45-1,18.08,18.08,0,0,1,0,3.45,2.44,2.44,0,0,1-1.94-1"/><path class="cls-1" d="M269.28,48.69c-2.93-.28-1.21,3.74-1.44,6a2.07,2.07,0,0,0,2.46-1.44"/><path class="cls-1" d="M265.23,33.47c-.15,2.51-1.39,6.64,3,5.58"/><path class="cls-1" d="M260.66,26.37a15.45,15.45,0,0,1,.95,3.48c-.68-.13-1.73.29-2.41.16.25,3.27,5.09,1.8,4.5-1.61"/><path class="cls-1" d="M251.53,23.33c.58,4.79-9.44,4.84-10.14,0"/><path class="cls-1" d="M234.29,23.84c-.22,2.64-6.68,6-8.12,3.55"/><path class="cls-1" d="M97.09,76.08c.22.14.23.23,0,.27-2,0-2.58,1.19-4.16,2-2.2,1.06-3.93-.12-3.17-2.48.68-2.11,2.17-3.91,4.18-2.47.78.56.55.91,1.59,1.2s1.92-.29,2.78.25"/><path class="cls-1" d="M86.94,99.92c0,.4-3.78-.73-4.7-.77s-1.33-.07-1.89.5.05,1.64-1,1.56c-2.25-.17-.92-7.63,2.74-7.08a4.52,4.52,0,0,1,.59,2.45c1.11.1,2.69-.34,3.51.55"/><path class="cls-1" d="M172.15,98.4a3.42,3.42,0,0,1,2.29,1.51c.69,1.53-.8,2.16-2,2.57-.5-.17-.09-.13,0-.28"/><path class="cls-1" d="M169.62,125.28c1,.33,2.45.72,2,2.28a1.67,1.67,0,0,1-2.55.76"/><path class="cls-1" d="M283.27,110.6c.19,0,.36-1.31.4-1.61s.27-.78.34-1.2,0-.23-.24-.44a.74.74,0,0,1-.25-.51c0-.44.6-.38.9-.3s.59.34.44.69a6.63,6.63,0,0,0-.4,1c-.21.84-.38,1.65-.54,2.51-.11.56-.36.94-.8.3"/><path class="cls-1" d="M306.69,96.24c0,.22,0-.08,0-.1-1.13-.52-2.58-.29-3.78-.56-.63-.14-1.17-.28-1.38-1a4.63,4.63,0,0,1,.07-2c.13-.47.74-1.67,1.44-1.09.37.3,0,1.34.24,1.76.51,1,2.24.58,3.18,1.14"/><path class="cls-1" d="M141.8,224.33c-.44-.58-1.69-.63-2.34-.89a19.45,19.45,0,0,0-2.91-1.13,18.84,18.84,0,0,1-4.22-1.7c-1.56-.79-2.27-1.87-3.39-3.17a20.22,20.22,0,0,1-3.5-5.79c-1.24-3.38-1.67-6.71-2.62-10.13-1.08-3.92-1.85-7.93-2.67-11.84-.43-2-.49-4.18-.84-6.28-.13-.78-.17-1.59-.33-2.36a6.4,6.4,0,0,0-.52-1.85c-.85-1.22-3,1.11-3.93,1.65a23.52,23.52,0,0,0-3.71,2.36c-2,1.78-4.65,2.85-6.89,4.26a27.23,27.23,0,0,0-5.67,5A36.56,36.56,0,0,0,95,197.45c-1.24,1.92-2.84,3.59-4,5.57a37.68,37.68,0,0,0-4.77,13.24,28.91,28.91,0,0,0-.51,8.19A51.24,51.24,0,0,0,88,235.32c1.1,3,2,6.31,3.72,9.09a79.22,79.22,0,0,0,5.08,8.08,58,58,0,0,0,6.43,6.85,32.88,32.88,0,0,0,4.4,3.68c1.38.89,2.79,1.72,4.21,2.56a36.14,36.14,0,0,0,3.9,1.78,35.85,35.85,0,0,0,3.32,1.4,28.39,28.39,0,0,0,5.2,1.06,21.45,21.45,0,0,0,9-.81c2.81-.88,5.78-1.27,8.61-1.87,1.18-.25,2.35-.73,3.52-1a5.27,5.27,0,0,0,1.48-.59c.45-.28.6-.66,1.2-.66,0-.55-1.65-2-2.05-2.51a14.47,14.47,0,0,1-2-3.85c-.62-1.45-1.52-2.82-2.12-4.27s-1.18-3.14-1.69-4.73a59.59,59.59,0,0,1-1.9-10.14,42.83,42.83,0,0,1,0-5.55,13.42,13.42,0,0,1,.63-4.77,8.59,8.59,0,0,1,1.55-2.87c.91-1,1.83-.7,3-.87.1-.49-1.38-1.26-1.83-1.33"/></g></g></svg>