<svg xmlns="http://www.w3.org/2000/svg" viewBox="0 0 184.06 410.47"><defs><style>.cls-1{fill:#007293;}.cls-2{fill:#1d1d1b;}.cls-3{fill:#e30613;}</style></defs><g id="Ebene_2" data-name="Ebene 2"><g id="Ebene_1-2" data-name="Ebene 1"><path class="cls-1" d="M74,120.73c-1.29,1-12.54.3-14.6,1s-16.18,6.81-16.87,8.48-2.58,24.1-3.1,29.33c-.22,2.17-.57,9.08-.78,10.28-1-1.09-3.38-8-4.09-9.85-.81-2.18-6.48-14.07-8.45-17.78-.35-.66-.78-2-1.6-2s-15,3.22-15.81,3.7a10.47,10.47,0,0,1-5.81,1.35c.84.17,13.3-1.32,14.15-1.11a10.17,10.17,0,0,1,3.31,1.36c2,1.23,3.43,2.19,4.6,4.31,3.13,5.69,5.15,12.05,7.63,18.11,1.66,4.07,3.18,8.16,5,12.16.49,1,2.71,5.22,3.48,5.7,1.1.68,2.74-5.34,3-7.16.81-4.91,4.51-22.76,4.93-26.86a78.35,78.35,0,0,1,1.8-11c.45-1.86.52-4.17,2.13-5.16a9.38,9.38,0,0,1,5.32-1.32,62.12,62.12,0,0,1,.06,7.84v10.06c0,2.64,4.14,29,3.84,32.43-.47,5.32-7.29,17.32-7.52,18.47-.31,1.46,0,1.64,1.08,2.59a18.17,18.17,0,0,0,11.45,4.2c3.18.07,17.49.28,21.39,0,2.81-.2,7.14.13,9.62-1.52,1-.68.46-1.26.14-2.42-.63-2.28-10.88-18.24-11.32-22.2C86.65,180,93.8,159,93.8,155.84a98.51,98.51,0,0,1,.83-10,37,37,0,0,0,0-7.95c-.18-1.52.5-3.23.8-4.69s.19-2.95.54-4.4c6.89,2.6,14.66,4.37,21.71,7.81,4.15,2,14.26,8.28,15.22,7.74s1.8-2.3,2.57-3.21a72.64,72.64,0,0,1,10-9.68l.85-.7,5.64-4.62,7.75-6.33,3.67-3a35.66,35.66,0,0,0,3.46-3,7.68,7.68,0,0,0,1.1-1.24,8.83,8.83,0,0,1,.74-1c.19-.24.35-.52.51-.76s.39-.38.56-.6.56-.66.84-1,.5-.63.3-1.07a.76.76,0,0,0-1-.45c.44-.55,1.46-1.08.77-1.91a2.83,2.83,0,0,0-1.08-.63,2.46,2.46,0,0,0-1.07-.2,2.38,2.38,0,0,1,1.07-.61c.05-.47,0-1.1-.42-1.35a2.61,2.61,0,0,0-1.39-.19c.36-.4,1-.54,1.28-1.07s-.16-1.14-.63-1.4a3.59,3.59,0,0,0-2.08-.13,6.09,6.09,0,0,0-.87.1,2.1,2.1,0,0,1-.9.06c-.26-.12-.22-.52-.31-.75a5.83,5.83,0,0,0-.36-.9c-.17-.33-.25-.63-.65-.53s-.46.3-.6.6c-.68,1.24-.49,2.82-.49,4.21a10.57,10.57,0,0,1-.91,4.3c-.33.71-.62,1.47-.89,2.21a7.19,7.19,0,0,1-1.43,2.72,15.62,15.62,0,0,1-2.83,2.23c-2.51,1.75-5.2,3.24-7.73,5-1.76,1.19-9.72,8.16-12.12,10.17-1.82,1.52-4,2.51-5.52,4.4-2.6-1.47-25.57-11.61-26.81-12.26-1.48-.77-10.79-2.77-11.37-2.84s-5.3,1.38-5.91,1.38c-.23-1-2.12-15.45-2-16.39-3.41-.44-2.85,1.79-6.11,1-1.47-.35-2.11-1.28-3.46-1-1,.18.47,15.8-1,16.93"/><path class="cls-2" d="M97.53,150.53a2.22,2.22,0,0,1-1.45-1.15l-.14.06V139.7l-7.88-2.88,1-5.59,1-4.7,2.53-7.72-2-.27-1.7,8.37-2.71,8.29-9.85,5.56L69.43,132l-3.7-12.84-.88.5,2.59,8.57.26,4.43-5.46.52L58.5,137.6l-.1,11.6a7.63,7.63,0,0,0-2.5,1.92l-.2.2.73.74.2-.2a8,8,0,0,1,2-1.63l.17.26a4,4,0,0,1-.92.94,3.68,3.68,0,0,0-1.54,2l1,.22c.1-.5.63-1,1.17-1.38.21-.18.43-.37.65-.58V154h1v-2.17h.25a11.23,11.23,0,0,0,0,2.17c0,.35,0,.7,0,1h1c0-.36,0-.72,0-1.09a12,12,0,0,1,0-2s0-.08,0-.13h.16a2.42,2.42,0,0,1,0,.38c0,1.13-.12,2.2.55,2.72l.64-.83c-.25-.19-.19-1.18-.16-1.83,0-.15,0-.29,0-.44h.73v.58c0,1,0,2.12.84,2.78l.61-.83c-.42-.33-.42-1.1-.4-1.93v-.6h.91a5.62,5.62,0,0,1,0,.58c0,.16,0,.33,0,.48a8.08,8.08,0,0,0,.16,1.48,6.2,6.2,0,0,1,.09,1.64l1,.13a6.56,6.56,0,0,0-.11-1.93,9,9,0,0,1-.14-1.31c0-.13,0-.27,0-.41s0-.44,0-.66h1.08c0,.2,0,.41.07.61a10.6,10.6,0,0,1,.11,2.28l1,.12a11.47,11.47,0,0,0-.12-2.53c0-.14,0-.27,0-.41l1.26.1c0,.2,0,.41-.07.63a3.21,3.21,0,0,0,.38,2.48l.78-.67c-.3-.37-.21-1-.12-1.69,0-.21,0-.45.06-.67l1,.07a8.9,8.9,0,0,1-.12,1.18,5,5,0,0,0,.07,2.68l1-.39a4,4,0,0,1,0-2.13,11,11,0,0,0,.14-1.26l1,.07c0,.27,0,.54-.09.83-.14,1-.31,2.2.4,3l.79-.68c-.42-.47-.29-1.32-.16-2.21a8.85,8.85,0,0,0,.09-.9l1.23.1v3.35h1v-3.28l.51,0c0,.21,0,.42,0,.6,0,.34.09.68.12,1a10,10,0,0,1,.16,1.64h1a16,16,0,0,0-.15-1.77c-.06-.31-.09-.63-.13-1a2.2,2.2,0,0,1,0-.44l.33,0,.6.15-.16.3a2.67,2.67,0,0,1,.11,1,3.07,3.07,0,0,0,.55,2.08l.76-.7a2.61,2.61,0,0,1-.28-1.4,5.44,5.44,0,0,0-.08-1l1.17.3a3.15,3.15,0,0,1,.13,1.76c0,.26,0,.5,0,.7h1c0-.17,0-.39,0-.63a6.43,6.43,0,0,0,0-1.52l1.75.44a5.18,5.18,0,0,0,.32,2.46l.94-.46a4.66,4.66,0,0,1-.23-2.05l1-.37a8.06,8.06,0,0,1,.1,1.14,5,5,0,0,0,.32,2l.92-.48a4.79,4.79,0,0,1-.22-1.56,7.18,7.18,0,0,0-.14-1.49l.49-.2a2.23,2.23,0,0,1,0,.36,8.29,8.29,0,0,1,.12,1.31h1a11.28,11.28,0,0,0-.14-1.47c0-.2,0-.4-.07-.59l.91-.36a.1.1,0,0,1,0,.07,8.79,8.79,0,0,1,.32,2.54l1,.13a9.73,9.73,0,0,0-.33-2.89c0-.08,0-.16,0-.23l.55-.21a7.24,7.24,0,0,1,.1,1.88l1,.16a8.1,8.1,0,0,0-.12-2.24.71.71,0,0,1,0-.2l.94-.36,0,0a3.86,3.86,0,0,1,1,1.19,5.4,5.4,0,0,0,1,1.37l.69-.8a4.24,4.24,0,0,1-.83-1.11,5.68,5.68,0,0,0-.79-1.1l.85-.32a3.19,3.19,0,0,0,1.68,1.18,7.37,7.37,0,0,1,.82.38l.51-.92c-.33-.17-.64-.31-.93-.43"/><path class="cls-2" d="M165,109.74c-.91-9.37-6.21-102.7-5.95-109,.07-1.91,1.28,1.15,1.35-.74.48,1.73,5.81,115.19,7.09,123.55a15.56,15.56,0,0,1,.17,1.92c0,.27-.93,1.08-1.07.72-.22-.62-1.08-11.54-1.59-16.45"/><path class="cls-1" d="M165.9,101.17a14.05,14.05,0,0,0-2.72,1.64,1.74,1.74,0,0,0-.87,1.69c.33.07.53-.12.8-.26a5.43,5.43,0,0,1,1.16-.47,7.5,7.5,0,0,0,1.2-.61,2.76,2.76,0,0,0,.85-.64c-.62.6-1.56,1-2.23,1.54a6.77,6.77,0,0,0-1.05,1.32c-.15.25-.45.72-.24,1s.84.23,1.12.12a6.18,6.18,0,0,0,1.38-.87,13.06,13.06,0,0,0,1.07-.9,5.27,5.27,0,0,1,.63-.52,15.41,15.41,0,0,1-1.19,1.63c-.27.45-.44.94-.7,1.41a4.32,4.32,0,0,0-.53,1.18.54.54,0,0,0,.36.68c.4.11.81-.33,1.05-.6a16.76,16.76,0,0,0,1-1.34,6.69,6.69,0,0,1,.75-1c.39.32-1.3,2.11-1.4,2.28a8.58,8.58,0,0,0-.79,1.74,2.11,2.11,0,0,0-.16,1.55c.67,1.31,2.38-.75,2.89-1.21.85-.77,2.09-1.73,2.1-3a3.7,3.7,0,0,0-.15-1.7,8,8,0,0,0-.65-.88c-.35-.49-.64-1-1-1.52a18.22,18.22,0,0,0-1.86-2c-.32-.33-1.08-1-1.1-.17"/><path class="cls-1" d="M139.5,223.2a24.33,24.33,0,0,0-9.26,7.26,60.71,60.71,0,0,1-4.09,4.79c-1.27,1.25-4.53,3.54-4.09,5.54,7.17.93,38.73-3.65,38.39-3.29-1.22,1.24-12.49,12.43-13.55,13.81-1.56,2-24.17,27.49-34.27,37.51-3.49,3.43-22.1,17.57-24.55,19.29-2.15,1.5-1.08,2.16-2,5.54-1.1,2.24,5.56,3.79,7.22,6.26,1.48,2.24,13.58,11.15,15.54,9.5-1.68-3.16-3.83-1.89-7-9.58-.81-1.95-3.8-9.56-5.1-10.25.71-1.14,23.76-19.43,30.3-24.68,10.05-8.06,20.72-15.18,30.21-23.88a137.09,137.09,0,0,0,11.4-12.44c2.59-3.05,12.65-16.32,14.27-20,1-2.32,2.26-7.84-.5-9.55-1.31-.79-19.44,3.17-23.69,3-2-.06-19.11,2-19.19,1.11"/><path class="cls-1" d="M65.11,253.88a11.2,11.2,0,0,0-1.28.27,21.76,21.76,0,0,0-2.8,1,25.91,25.91,0,0,1-2.62,1.22c-.52.16-1.15.16-1.45.69a5.59,5.59,0,0,0-.33,2.92,12.94,12.94,0,0,0,.38,2.24,5,5,0,0,0,.51,1.13,5.38,5.38,0,0,1,.43,1.43c.64,3.13.12,6.3.43,9.45.57,5.84,1.36,11.79,2.1,17.59a181.34,181.34,0,0,1,1,18.94c.11,5.57,4.88,42.4,6.86,55.29,1.75,11.6,2.69,17.85,3.87,29.53-.41,4.77-3.11,3.94-6,5.41-3.95,2.08-5.66,5.91-9.13,6.42-3.48,7.27,8.17-.81,13.56-.19,6.43-.42,12,2.26,12.79,1.22.73-5,.07-5.79-.76-10.66-.85-5.11-4.7-21.22-4.63-30.71,0-4.42-1-45.71-1-54.77,0-5,1-9.71,1-14.71s.94-9.15,1-14A137,137,0,0,1,80,269c.49-4,1.14-8.32.56-12.43A25.73,25.73,0,0,0,65.11,253.88Z"/><path class="cls-1" d="M69.75,74.9c.14-.58.84-.94,1.22-1.4a17.38,17.38,0,0,1,1.42-1.56,8.87,8.87,0,0,1,4.7-2.65,9.06,9.06,0,0,1,7.25,1.26c1.41,1,3.34,1.62,4.48,3a1.6,1.6,0,0,1,.4,1.27,7.12,7.12,0,0,0,.28,1.83A60.52,60.52,0,0,1,91,83a38.74,38.74,0,0,1,.86,6.49,23.86,23.86,0,0,1,0,4.39c-.18.89-2,6.21-2,6.21s-7.28,6.72-8.19,6.51L76,105.25,71.86,101s-3.56-8.51-3.69-9.44a35.39,35.39,0,0,1,.18-9.75c.22-1.33.54-2.67.84-3.94a8.39,8.39,0,0,1,.42-1.52c.19-.46.85-1.2.84-1.66"/><path class="cls-3" d="M66.28,80.94c.19-.26-1.64-1.36-1.94-1.51a3.8,3.8,0,0,0-1.59-.51c-.43.06-.87.72-.87.72l-1.59-2,1.34-.94-1.31-3.5.57-.22-.71-1.83,2.11-1.81-3-3,.16-1.89,1.22-1.37-.31-.4c-.35-.43-1.21-1.33-1.21-1.33l-.8-2.63,3.95-2.13-.85-.43,3.37,1.33L66.71,55l.05-1.85,4.67-.63.87-2L75,53.53l2.87-2.88,2.34.57.57,3.22.81.22,1-.62,1.57-.6,2.37.66-.19,2.68,4-2,2.15,1.13,1.25,1.22,2-.66,1.46,1.06-.79,2.2,2.13.61-.94,2.18,1.08.14,1.7,1.37-.6,2.86,1.21,2.16-.9,1.29-1.29.51s-.47,2.17-.57,2.92.29.84.29.84l1,1.66L99.25,78a13,13,0,0,0-1,.8,3.71,3.71,0,0,0-.22.94l-.43,1.67-.64.88-1.08.4v.58a3.73,3.73,0,0,0-.79.73c-.17.25-.15.63-.26.91-.11-.43-.58-.78-.8-1.19a7.11,7.11,0,0,0-.78-1.34,7.3,7.3,0,0,0-2.85-1.63A29.82,29.82,0,0,0,85.88,80a18.74,18.74,0,0,0-3-.15c-.72,0-.74-2.72-1.37-3a23.35,23.35,0,0,0-4.77-1.68c-1.16-.12-2.41,3.08-3.57,3a1.56,1.56,0,0,0-1.51.26,10,10,0,0,1-1.84,1.13,10.82,10.82,0,0,0-3,1.33.27.27,0,0,0,.14-.25"/><path class="cls-3" d="M67.51,82.18a.39.39,0,0,1,.28,0,6.39,6.39,0,0,1,0,.9s.31.42.45.65a5.76,5.76,0,0,1,.46,1.79,17.68,17.68,0,0,1,0,1.9l-.44,1.22L68,90.2l-.41,1s-.08,1.41-.07,1.48-.47,2.93-.47,2.93H65.54l-.79,4.17L62,100l-1.57,2.14-1.82-2.89-2,.54L56.37,97l-.21-.23-1.37-.8.77-3.11,0-1.35.74-1.79,2.17-1.17L57.54,87l1.34-2.63L64.73,83l1.4-.66s.63-.26.47-.27"/><path class="cls-3" d="M94.66,82.65c.53.6,3.21,1,3.21,1l2,.38.58,3,2,2.45.18,2.1,1.22,1,1.38,3.13-.66,1.72-.39,1.1a6.06,6.06,0,0,1,0,2.25,4.68,4.68,0,0,1-3.56,2.53A7,7,0,0,1,98,103l-.91-.75-1.4,1-2.15.54-.8-2.49-1.93-1.52,0-2.86-1-.21L91,94.41l1.65-4.5a8.45,8.45,0,0,0-.18-2c-.11-.29-.33-.53-.43-.81a3.34,3.34,0,0,1-.16-.92,3,3,0,0,1,.28-2A2.6,2.6,0,0,1,94,83.42"/><path class="cls-2" d="M74.25,82c-.1,0,0,.2-.27.18-.07.49-.16,1,.42,1.06s.72-.4.6-.91c-.27-.12-.6-.33-.75,0"/><path class="cls-2" d="M86.51,83.27c-.62-.23-1.1,2.19.33,1.86,1.22-.29.25-1.65-.45-2a.36.36,0,0,0,0,.29"/><path class="cls-3" d="M76.42,103.4c.6,0,1.76-.4,1.88-1.1.6-.19,1.77,1,2.15-.17.39.26.6.86,1,1.19s1.14.35,1.28.06c-.07.52-1.48.6-1.71.57a10.4,10.4,0,0,0-2-.28c-.72.13-1.76.83-1.66,1.51.26,1.76,5.86.9,5.35-.45-.92.73-5.23-.42-4.93-.42"/><path class="cls-2" d="M87.75,82.33c-.88-.22-2.34-.69-3,.34a2.84,2.84,0,0,0-.21,1.68c.18.79.91,1,1.58,1.09,1.17.22,3,.38,2.88-1.4a1.8,1.8,0,0,0-2.15-1.71M75.19,80.64c-.14.1-1-.1-1.38,0a2.42,2.42,0,0,0-1.56,1.67c-.21,1.42.85,2.18,2.15,2.34a1.88,1.88,0,0,0,2-2.18,1.75,1.75,0,0,0-.66-1.35c-.31-.27-1-.76-1.35-.35m-7.8,1.08c.42-.27-.07-1.89-.13-2.39a38.33,38.33,0,0,1-.34-4.41c0-1.6-.16-3.17-.16-4.78a21,21,0,0,1,0-3.55c1,.44,1.44,2.38,1.84,3.27.84,1.76,1.65,3.55,2.47,5.34.19.41.29.67.72.79.28.1.66,0,.94,0s.68.23,1,.28a27.5,27.5,0,0,0,3.66.2c2.92.06,5.94.4,8.87.65a27,27,0,0,1,3.55.54c1,.22,1,.16,1.39-.73a41.11,41.11,0,0,1,3.65-6,22.2,22.2,0,0,0,1.6-2.65,10.85,10.85,0,0,1,.78-1.25,5.54,5.54,0,0,1,.56-.95,3,3,0,0,1-.12,1.23A11.82,11.82,0,0,0,96.81,69c-.07,1.42-.19,2.87-.35,4.29-.33,3-.93,5.88-1.22,8.86-.23,2.09-.16,4.23-.59,6.27-.29,1.37-.29,2.24-2,2a21.32,21.32,0,0,1-3.95-.81c-.72-.25-1.44-.4-2.17-.59a19.1,19.1,0,0,0-2-.63c-2.38-.25-4.79-.24-7.17-.44a35.39,35.39,0,0,0-7,0c-.77.08-1.24.29-1.91-.2a3.63,3.63,0,0,1-1.38-1.53,12.07,12.07,0,0,1-.49-4.3"/><path class="cls-2" d="M98.8,207.16l50,11.62s-26.41,54.1-78.74,45.5c-54-8.86-53.73-31.06-58.56-38.68l43.21-22.54a40.25,40.25,0,0,0,23,6.39,128.35,128.35,0,0,0,21-2.29"/><path class="cls-2" d="M77.91,191.14a3.36,3.36,0,0,1,.78,2.81q-.93.28-.78-.87"/><path class="cls-3" d="M9.35,151.38c0,3.87-2.53,13.74-2.4,16.05.11,1.84,3.14,6.73,4.19,7.79,2.11,2.12,6.91,9.4,8,7.6,1.14-2-3-22.47-2.81-23.74.22-1.78,1.64-2.63,1.67-4.42-.9-.59-2.59-7.18-2.74-9.24a32.34,32.34,0,0,1,.69-5.91,4.34,4.34,0,0,0-3.16-1.34c-3.07.3-4.85,2.07-6.25,4.68-1.86,3.48-6.12,4.66-6.32,5-.43.71.16,1.21-.17,2,1.13-.5,7.82-2.47,7.82-2.47a7.35,7.35,0,0,1,1.53,4"/><path class="cls-3" d="M92.19,319.29c2.41,3,6.46,12.38,8,14.12,1.21,1.39,6.61,3.37,8.09,3.56,3,.37,11.24,3.15,10.94,1.09-.33-2.28-16.17-15.88-16.82-17-.92-1.54-.34-3.08-1.42-4.52-1.07.09-6.45-4.05-7.84-5.59A32.65,32.65,0,0,1,90,305.9a4.34,4.34,0,0,0-3.31.89c-2.23,2.13-2.55,4.61-2,7.53.67,3.89-2,7.45-1.91,7.84.1.81.88.86,1.08,1.64.57-1.09,4.64-6.75,4.64-6.75a7.27,7.27,0,0,1,3.69,2.24"/><path class="cls-2" d="M100.74,316.88a1.3,1.3,0,0,1,.2-.57,28.92,28.92,0,0,0,1.79-3.57c.07-.21.33-1,.36-1s.19.25.24.37c.57,1.35,1,2.75,1.49,4.15a3.3,3.3,0,0,1,.13,2.54,1.7,1.7,0,0,1-2.36.55,7.29,7.29,0,0,1-1.72-1.78c0-.06-.11-.18-.12-.21,0-.18,0-.32-.16-.42a4.68,4.68,0,0,1-1-.69c-.49-.67-2.21-2.3-2.43-2.54s-1-1.1-1.21-1.38a1.43,1.43,0,0,0-.39-.42,19.87,19.87,0,0,0,.15,3.93,10.94,10.94,0,0,0,.23,1.11c.13.56,1.28,3.2,2,3.6a1.94,1.94,0,0,0,2.61-1.44,7,7,0,0,0,.13-.9v-.76a1.24,1.24,0,0,0,0,.43c0,.14.39,1.56.39,1.79a7.38,7.38,0,0,1-1,2.76c-.19.21-2.48,1.46-2.55,1.69.21.11,1.54,1.58,1.87,1.33.05,0,.8-.57.93-.72a13.85,13.85,0,0,0,.79-1.41,9.75,9.75,0,0,0,.54-3.52,5.69,5.69,0,0,0-.16-1.29c-.09-.22-.47-.65-.47-.69-.15,0-.34-.45-.38-.4"/><path class="cls-2" d="M16.36,158.34c-.23-.13-.17-.5-.25-.75-.24-.82-.51-1.64-.82-2.44s-.6-1.57-.84-2.39c-.06-.19-.25-1.2-.57-.82a2.17,2.17,0,0,0-.26.79,14,14,0,0,0-.35,1.42c-.1.76-.36,1.47-.42,2.24,0,.61-.07,1.2-.07,1.81a32.42,32.42,0,0,0,0,3.27,3.36,3.36,0,0,0,.42,1.75.92.92,0,0,0,1.24.08,3.57,3.57,0,0,0,.82-1.69,8.44,8.44,0,0,0,.41-1.05c.08-.32.24-.6.3-.92.1-.55,0-1.19.39-1.66a2.62,2.62,0,0,0,0,.28"/><path class="cls-2" d="M16.36,158.18c.23,0,.5-.37.69-.5a12.76,12.76,0,0,0,1.71-1.42c.54-.54,1.06-1.08,1.58-1.64.13-.13.25-.27.37-.4s.07-.17.19-.18.32.4.39.53a9.28,9.28,0,0,1,.58,1.6,17.65,17.65,0,0,1,.61,2.12,18,18,0,0,1,.11,3.2,6.89,6.89,0,0,1-.83,3,1.34,1.34,0,0,1-2.11.47,7.22,7.22,0,0,1-1.29-1.52,11.18,11.18,0,0,1-1.23-2.15,10.2,10.2,0,0,1-.56-1.86,7,7,0,0,1-.21-1.09v.13"/><path class="cls-2" d="M16.2,158.82a3.58,3.58,0,0,1,0,.8c-.15.74-.34,1.5-.51,2.24a33,33,0,0,1-1.18,3.52,4.66,4.66,0,0,1-.6,1.32c-.07.08-.15.21-.22.28s-.07,0-.15.1-.4.18-.4.36a7.38,7.38,0,0,1,1.24.92,2.5,2.5,0,0,1,.29-.9,18.74,18.74,0,0,0,.62-1.78c.35-1,.64-2.07.9-3.1.06-.25,0-.49.05-.72a.29.29,0,0,1,.13-.18,2,2,0,0,0,0-.49c0-.43,0-.87,0-1.31a3,3,0,0,0,0-.84,1.94,1.94,0,0,1-.13-.3,1.11,1.11,0,0,0-.08-.37.49.49,0,0,1,0,.12"/><path class="cls-2" d="M16.2,158.26c.42.55.3,1.28.43,1.9s.33,1.43.52,2.14a7.76,7.76,0,0,0,.88,2c.22.34.41.7.65,1,.1.14.34.32.32.5-.6.12-1.31.34-1.84-.1a1.12,1.12,0,0,1-.35-.69,3.1,3.1,0,0,1,0-.6,6.53,6.53,0,0,0-.3-1,17.65,17.65,0,0,1-.39-1.75,7.42,7.42,0,0,1-.1-1.49,8.88,8.88,0,0,1,0-1.71.26.26,0,0,1,.15,0"/><path class="cls-3" d="M55,202.14a1.51,1.51,0,0,0-.38-.1.76.76,0,0,1,0-.26c-.12.24-.46.45-.66.64s-.71.6-1.08.89a6.87,6.87,0,0,1-.75.49,1.38,1.38,0,0,1-.63.31c0,.17.18.25.27.39a.51.51,0,0,1,.09.18c.07.07.23.15.28.21a.37.37,0,0,1,.05.23c.12.12.28.23.41.34a6.5,6.5,0,0,0,.76.56,14.56,14.56,0,0,0,1.56.57c.54.26,1,.6,1.47.9s.85.47,1.27.71a6.26,6.26,0,0,0,1.27.63,4.08,4.08,0,0,1,.77.25,13.3,13.3,0,0,0,2.75,1.17,7.75,7.75,0,0,1,1.51.59,9.3,9.3,0,0,0,1.75.52,18.21,18.21,0,0,0,4.11.23,36.47,36.47,0,0,0,3.77,0c1.13-.12,2.3-.15,3.44-.16.91,0,1.8-.17,2.71-.21,1.42,0,2.84-.36,4.26-.48,1.2-.1,2.39-.26,3.59-.37a33.2,33.2,0,0,0,4.1-.6,33.54,33.54,0,0,0,3.71-.93,5.41,5.41,0,0,0,1.47-.64,2,2,0,0,1,.51-.57c.29-.2.62-.31.9-.54a5.58,5.58,0,0,1,.91-.71c.39-.21.58-.36.4-.77-.3-.72-1.22-1-1.35-1.87-.27.82-1,.93-1.7,1.16-.24.08-.44.23-.68.3a7.61,7.61,0,0,0-1,.28A13.92,13.92,0,0,1,93,206a23.42,23.42,0,0,1-3.34.51,28.77,28.77,0,0,1-3.59.27H83.71c-1.5,0-3,.1-4.48.1a81.91,81.91,0,0,1-8.72-.49c-1.62-.18-3.18-.42-4.77-.72a33.23,33.23,0,0,1-3.8-1.14c-2-.62-4-1.31-5.89-2.12-.31-.13-1-.56-1.39-.51.21-.06.33.09.27.3"/><text/></g></g></svg>