<svg xmlns="http://www.w3.org/2000/svg" viewBox="0 0 195.64 406.4"><defs><style>.cls-1{fill:#007293;}.cls-2{fill:#e30613;}.cls-3{fill:#1d1d1b;}.cls-4{fill:#fff;}</style></defs><g id="Ebene_2" data-name="Ebene 2"><g id="Ebene_1-2" data-name="Ebene 1"><path class="cls-1" d="M29.35,224.63c-1.24,5.24-2.66,11.53-2.61,16.84s.37,9.85.36,15.06c3.38,1.33,7.27,1.8,10.34,3.33,2.24,1.1,6.53,4.18,9.06,3.9a120.67,120.67,0,0,1,6.06-13.47c2.2-4.19,4.93-8.79,5.6-13.7.52-3.76-.59-4.14-4-6.36s-7.83-3.25-11.57-4.69c-2.27-.88-12.81-.25-12.72,0"/><path class="cls-1" d="M106.39,193c-.13.62-.17.66,0,.12.58-4.18,10.82-10.49,14.4-12.24,4.82-2.36,12.85,4,17.24,6.5,3.51,2,2.53,3.65.47,7.08a33.76,33.76,0,0,1-6.76,7.85c-4.29,3.78-10.88,11.73-17,11.75-1.66-3.63-2.85-6.76-5.3-10-1.56-2.08-3.49-6.86-6.24-7.27.61-.72,1.34-.4,2.33-.05"/><path class="cls-2" d="M48,188.87c-.1.18,0,.28.16.27,1.91-1.44,3.43-2.32,4.6-4.59A21.27,21.27,0,0,0,54.73,178a121.55,121.55,0,0,0,1.62-15.47c.16-6.83,2-13.55,2.64-20.32A87.5,87.5,0,0,0,58.47,127a4.86,4.86,0,0,0-.44-1.67c-.45-1-.91-1-1.91-1.25-1.48-.45-3-.52-4.47-.84-2.9-.62-4.88-2.9-7-4.76a6.15,6.15,0,0,1-3.63,1.18c-2.15,0-2-2.29-1.29-3.87a.94.94,0,0,1,.86.38c.15-.61.33-2.06.93-2.39.93-.51,1.53.53,1.89,1,0-.67-.21-1.54.23-2.13a1.06,1.06,0,0,1,1.9.25,6,6,0,0,1,.6-3.67c.59-.77,2.24-.68,2.3.54a4,4,0,0,1,.13-3.09c.47-.85,2.82-1.39,2.3-.37A3.67,3.67,0,0,1,52,103.3c.91-.57,1.69,0,1.82,1-.41-.92.54-2.29,1.62-2,.89.29,1.11,1.87.66,2.62,1.94-2.25,2.94,2,2.18,3.45-.58,1.06-2.14,2.16-1.75,3.27.17.47,1,1.15,1.4,1.53a24.89,24.89,0,0,1,2,2.33,7.62,7.62,0,0,0,3.13,2.74A44.41,44.41,0,0,0,68,120c1.37.4,3.61,1.57,5,1.51s2.43-1.68,3-2.63c.21-.37.59-1.43,1.16-1.38.89.07.55,1.79.31,2.27.58-2.36,2.5-.71,2.46,1,.1-.63.54-1.77,1.25-1.82,1.08-.09,1.1,1.67,1.26,2.31.21-.47.85-2,1.57-1.73s.56,2.17.5,2.66c.7-.38.3-1.95,1-2.4,1.3-.89,1,1.3,1.42,1.78.09-.71.75-2.09,1.68-1.68.32.13.86,1.65.92,2,.13.68-.16,1.26.17,2a4.56,4.56,0,0,0,1.93,1.81c1.33.67,2.72,1.4,4.13,2,1.17.48,2.27,1.41,3.45.83a8.05,8.05,0,0,0,2.52-2.41,15.59,15.59,0,0,0,2.29-2.84c.53-1.15.51-3,1.63-3.75,2.27-1.53,1.4,1.84,1.13,2.75,0-.67,1.77-2.39,2.49-1.63s-.59,2.64-.84,3.41c-.25-.49,1-1.32,1.59-1,1.11.56-.49,2.44-1.12,2.83.43-.33,1.9-1.11,2.48-.69.83.59-.23,1.5-.35,2.12a2.4,2.4,0,0,1,2.17,0c-.15.73-.38,2.32-1.35,2.25.44-.59,1.52-1.08,1.89-.35s-.57,1.87-1,2.35c2.72.64-1.15,2.81-1.75,3.42,1,1-.87,1.64-1.38,2.08,1.59.42-.44,1.77-1.25,1.72,1.08,1.51-1.8,2-1.89,1.41.55.71-1,.55-1.42.53a3,3,0,0,1-1.77-.78,11.28,11.28,0,0,0-4.16-1.69c-.12.45-.44.61-.6,1s-.2.95-.39,1.39c-.42,1-1,1.8-1.36,2.81-.69,2.19-1.56,4.46-2.26,6.78q-2,6.94-4.12,13.88c-2.94,9.9-5.11,20.56-5.15,30.71,0,1.09-.08,2.33,0,3.44a12.66,12.66,0,0,0,.4,3.35,30.21,30.21,0,0,0-3.21.27,43.34,43.34,0,0,1-5.94.17c-1.65-.12-3.35,0-5-.18-2.37-.21-4.44-1.11-6.72-1.52a86.18,86.18,0,0,1-9.23-2.48,16.52,16.52,0,0,1-6.92-4A4.69,4.69,0,0,1,46.83,191c-.11-.81.76-2.91,1.94-2.19"/><path class="cls-3" d="M120.35,212.94c.23-1.44.58-4.68-.4-5.88.29.41.56.27,1,.44a6.7,6.7,0,0,0-4.26-8.92c.74-3.32-5.76-6.43-7.85-5.26-.25-.67-2.11-1.65-2.44-1.8-1.08-.49-5.17-2.07-5.19.2-.18-1.82-4.8-3.72-5.79-1.68a7.75,7.75,0,0,0-2.36-.19,23,23,0,0,1-2.45-.39c-.25.45-.6.65-.83,1.09-.66-.08-1.28-.36-1.93-.45-.14.84-.75.65-1.07,1.17a7.61,7.61,0,0,0-.64,1.92,12.7,12.7,0,0,0-.86,4.13c.06,1.34.74,2.87.69,4.15a1.55,1.55,0,0,1-.14.58,8.11,8.11,0,0,1-.4-2.2,14.54,14.54,0,0,1-4-.25c.24-1.77.64-3.54.83-5.33.26-2.28.74-4.46,1-6.75s.37-4.67.81-6.94c1.92-9.86,3.58-19.69,6.47-29.36.68-2.34,1.64-4.57,2.3-6.89.84-2.94,2.63-5.5,3.8-8.3a54.06,54.06,0,0,0,2.27-8.58,7.44,7.44,0,0,1-.73-.62l1.55.81c-.88-.61-1.14-1.37-2.27-1.46l-.11.21c-1.12,2.39-2.48,4.44-3.72,6.73-2.89,5.26-4.41,11.34-6.13,17.14-1.49,5-3.22,10.07-4.22,15.16-1.94,9.75-3.86,19.17-4.49,29.05-.1,1.66-.2,3.25-.19,4.86-3-.27-5.93-.87-8.91-1.3a6.45,6.45,0,0,1-3.6-.4.52.52,0,0,1-.26-.27c-2.61-.56-5.17-1.37-7.73-2.19.17-1.13.39-2.36.57-3.54.33-2.13.9-4.33,1.1-6.5.87-9,3.26-18,4.75-26.89.78-4.7,2-9.31,2.41-14,.39-4.49,1-8.93,1.47-13.4.25-2.4.48-4.83.76-7.22.21-1.55-.43-3.68.2-5.19-.86-.28-3.46-.44-4.11-.68-.56.73-.14,2.22-.19,3a24.41,24.41,0,0,0,.13,3.53,58.59,58.59,0,0,1-.1,9.82,198.36,198.36,0,0,1-2.62,19.68c-1.2,6.66-2,13.18-3.1,19.8a120.19,120.19,0,0,1-3.13,15.12c-.54,1.84-.91,3.65-1.39,5.49-1.39-.39-2.77-.75-4.17-1a.18.18,0,0,1-.21.18,3.56,3.56,0,0,0-1-.12l-.07.09c-.15-.09-.32-.18-.46-.28a2.17,2.17,0,0,1-1-1.12l.61-.71c.16-2.75,3.28-5,3.48-7.74s-4.68-3.72-5.5-1.23c1.63-2.72-2.44-6.58-4.59-4.3.73-2.43-5.47-3.87-5.46-1-1.19-2.69-4.54-1.61-6.08.11-.8-2.88-3.67-1.73-5.49-.65-.87-3.23-5.26-.7-6.15,1.11-1.42-3.86-9.27,4.17-9.11,6.89a2.76,2.76,0,0,0,.07.49,6.77,6.77,0,0,0-.44,1.25s-.65,4.1-2.87-1.46a23.51,23.51,0,0,0-1,5,4.42,4.42,0,0,0,1.17,3.19c.48.59,2.09,1.43,2.31,2.14.47,1.58-3.34.41-2.59,2.65.39,1.13,2.78,1.76,3.38,3.1a3.88,3.88,0,0,0-1.73,0c-.25.62.71,2.57,1.08,3.2.84,1.44,2.34,1.59,3.78,2.27-1,2.09-1.55,3.47-.33,5.87a4.61,4.61,0,0,0,1.5,1.82c.31.13.63.25,1,.36a0,0,0,0,0,0,0,2.55,2.55,0,0,0,1.94-1,8.92,8.92,0,0,0-.33,2.77,8.08,8.08,0,0,0,2.83,4.47c1.76,1.12,4.51,1.35,5.86-.37.72.4,1,2.71,1.25,3.47a11.76,11.76,0,0,0,.48,1.08c.05,0,.11.06.15.13.14.31.25.62.37.93l.05,0a6.47,6.47,0,0,0,2.61,2.38c2.09,1,6.71,2.17,7.59-.94,1.09.28.88,1.51,1.1,2.48a8.66,8.66,0,0,0,3,4.88c2.16,1.33,6.2.72,6.69-2.23.49,1.84,1.23,3.59,3.08,4.45a3.32,3.32,0,0,0,4.69-1.9c1,1.24,1.38,2.71,3,3.45,2.56,1.18,2.48.1,3.47-1.87,1.5,2.31,3.55,4.36,6.71,4.44s4.12-3.34,5-5.7c1.07,0,1.67.83,2.51,1.33A19.58,19.58,0,0,0,85.25,239a4.72,4.72,0,0,0,2.16-.38c.64-.51,1.25-1,1.86-1.58,1-1.56,1.51-3.74,2.32-5.6.93,0,1.79.94,2.74,1.12,1.42.27,2.08-.15,3.25-1.06a5.55,5.55,0,0,0,1.79-2.07c.44-1.08.1-2.14.35-3.2,1.66,1.93,3.31,3,6,1.76a7.16,7.16,0,0,0,1.19-.9.49.49,0,0,1,.23-.08c.69-.82.76-1.83,1.34-3,.76,2.4,4.36,1.57,5.71.22,2.07-2,2-4.26,3.14-6.72.28.32.89.42,1.17.62C119.61,216.83,120.09,214.64,120.35,212.94Z"/><path class="cls-1" d="M80.09,118.72c.47.39,1.3-3.08,1.57-3.94l2-6.68a96.11,96.11,0,0,0,3.29-12.37c.58-3.53,1.24-7.84,0-11.18-.29-.76-1.21-1.16-.29-1.82.58-.4,1.78.24,2.41.43,1.77.54,4.12,0,5.68,1-.52,3.23-1.77,6.52-2.41,9.67-.75,3.73-2.21,7.45-3.29,11.1a85.21,85.21,0,0,0-2.52,9.71c-.56,3.44-.56,7-.83,10.56-2.12-.35-7.06-3.58-5.7-6.06"/><path class="cls-1" d="M94.92,83.7C96.39,84.91,99,78.06,99.33,77a13.9,13.9,0,0,0,.07-9.35c-1.06-3-2.79-6-5.53-7.56-2.56-1.5-6-3.51-9.09-1.82C81.94,59.78,80,63.78,79,66.73a29.88,29.88,0,0,0-1.91,10.48c.19,4.23,2.89,5.41,6.57,6.36,1.61.44,3.13.12,4.73.31a24.41,24.41,0,0,0,4.62.38c1.22-.1,4.31-.36,4.38-2.23"/><path class="cls-3" d="M79.14,67.74c1,1.88-8.12,3.49-9.63,3.89-3.21.87-6.43,2.06-9.65,2.84-2.13.51-4.12,1.4-6.25,2.09-.9.29-2.58.28-3.12,1.27-.79,1.36,0,1.25,1,1.79,2.81,1.66,5.86.41,8.89-.15a56.38,56.38,0,0,1,20.15,0c3.42.63,4.77-3.18,4.31-6.09a5.2,5.2,0,0,0-1.46-3.22c-.65-.68-2.61-2.56-3.68-1.93a.6.6,0,0,0-.39.4"/><path class="cls-3" d="M84.73,74.64c2.31,2.31,8,4.67,11.14,2.81,1.41-.84,6.35-8.86,3.33-9.32-.71,1.55-.8,3.31-1.84,4.63a6.88,6.88,0,0,1-3.93,2.45c-3.84,1-6.57-1-10.35-1.37a1.7,1.7,0,0,0,1.28.69"/><path class="cls-4" d="M88.2,68.42c1.35-1.7,6.7-.3,5.83,2.14-.36,1-3.09.61-3.8.49-1.57-.26-2.42-.7-2.5-2.27a1.07,1.07,0,0,1,.72.12"/><path class="cls-3" d="M88.35,68.45a6.37,6.37,0,0,0-.15-1,2.79,2.79,0,0,1,0-1A4.54,4.54,0,0,1,89.34,64a4.25,4.25,0,0,0-.07,3.49c.09-.14,0-.26.07-.38a4.13,4.13,0,0,1,.24-.9,1.48,1.48,0,0,1,.68-.85c-.09.35-.3.56-.32,1s.07,1,.35,1.07a4.12,4.12,0,0,0,.46-.6c.1-.15.2-.58.32-.64a7.84,7.84,0,0,1-.1,1.29c.5.26.74-1,1-1a3.46,3.46,0,0,0,0,.72,3,3,0,0,1-.17.77c.27-.23.6-.19.89-.46a1.76,1.76,0,0,0,.41-.83,15.84,15.84,0,0,1,0,2c.27.13.47-.42.73-.49,0,.48.4.9,0,1.33s-1.19.1-1.67-.11c-.92-.39-2.57-1.83-3.54-.73a1.25,1.25,0,0,0,.41-.11"/><path class="cls-3" d="M90.38,68.09c-.16-.34-.66-.21-.93-.09a1.58,1.58,0,0,0-.71,1.06A1.53,1.53,0,0,0,90,71c.89.23,2-.48,1.81-1.45a2,2,0,0,0-.59-1.07c-.3-.27-1.09-.72-1.21,0"/><path class="cls-4" d="M51.57,79.33a.21.21,0,0,0,.19.18,8.33,8.33,0,0,1,2.52-1,19.12,19.12,0,0,1,3.45-.34c.87-.08,1.74-.19,2.6-.28.69-.07,1.33,0,2,0,1.41-.1,2.84-.07,4.27-.19,1.75-.13,3.53-.13,5.27-.19s3.2-.36,4.77-.52,3.13-.82,4.67-1a3.25,3.25,0,0,0,2.11-1.39,3.92,3.92,0,0,1-.3,1.46,2.72,2.72,0,0,1-1.25.58c-1.15.32-2.22.31-3.39.52a21.2,21.2,0,0,1-4.18.55c-1,0-2.19,0-3.3,0-2.39,0-4.8.41-7.23.42a64.65,64.65,0,0,0-7.78.75c-.88.12-1.83.28-2.68.48a8.53,8.53,0,0,1-2,.44.35.35,0,0,1,.37-.41"/><path class="cls-3" d="M77.88,66.56c.77-2.8.15-6.12.66-9.06A15.21,15.21,0,0,1,90.23,45.3a4.27,4.27,0,0,1,3.2.12c1.12.65,1.25,1.88,2,2.88.87-3.65,3.08-5.06,6.62-6.23A17,17,0,0,1,112.79,42c-1.07-2.55,5.46-2.41,6.77-2,3.85,1.12,1.91,4.35,1.57,7.26a16.58,16.58,0,0,1,7.4-.19c3.55.69,7.64,3.37,8.15,7.27.22,1.71-1.81,4.17.2,4.6.71.14,1.7-.29,2.49-.2a12.2,12.2,0,0,1,3.32,1,4.44,4.44,0,0,1,2.56,4.68c-.11,1.9-2,3.73-.18,4.9.62.39,1.59.28,2.22.63a6.28,6.28,0,0,1,2.37,3.35c1.14,2.89,0,4.84-.35,7.68,1.24.52,2.1.59,3,1.62A9.85,9.85,0,0,1,154.64,90c-.46,3-3,8.75-6.59,8.69a.59.59,0,0,1,.2-.64c3.53.1-1.67,9.7-2.89,11-2.93,3.14-7.15,6.47-10.54,2.79-.2,3.17-5.76,7.37-8.42,7.53-4.11.24-6.57-3.7-7.79-7.12-1.25,3-5.44,2.28-8,1.8-3.73-.7-9.39-3.65-9.74-8,1.16,1.58-1.5,3.4-3,1.57-3.06-3.62-2-8.08-2-12.3-2.42-1.62-2.89-4.83-1.73-7.44A15.2,15.2,0,0,0,95,86.13c.19-.63-.14-.95,0-1.58.35-1.21,1.3-1.67,2-2.62a15.62,15.62,0,0,0,1.72-3.12,15.32,15.32,0,0,0,1.58-4c.28-2.09-1.08-4.54-2.06-6.34a34,34,0,0,0-3-4.91,8.6,8.6,0,0,0-2.45-2.66,16.23,16.23,0,0,0-4.09-1.21c-2.31-.39-4.68-.27-6.44,1.7a13.14,13.14,0,0,0-1.64,2.84,26.13,26.13,0,0,1-1.83,2.92,2.76,2.76,0,0,0-1.48,0,1.55,1.55,0,0,1,1.74-.65"/><path class="cls-1" d="M112.66,129.61c.77.73,6.32-6.35,7.35-7.42,3.54-3.68,7.32-7.14,10.49-11.25C136.55,103.15,141,94.52,145,85.71a154,154,0,0,0,7.14-20,70.49,70.49,0,0,0,2-10.69,36,36,0,0,0,.41-9.22c-.22-1.41-.64-6.86-2-7.11-1-3.71-3.36-6.94-5-10.48a99.36,99.36,0,0,0-6.86-11.77c-2.77-4.23-5.88-6.75-10-9.5-.76-.5-1-1.29-2.11-1.35-.81,0-2.17.67-2.16,1.79,0,2,3.9,2.09,3.46,4.58-1.15-.28-5.61-3.23-6.52-1.08-.79,1.84,3.17,2.59,3.69,3.84-1.57-.19-6.15-2.72-7-.3s5.19,2.1,5.92,3.69c-1.73-1.1-3.79.72-4.5,2.21,3,1.27,6.16.68,9.16,1.57,3.42,1,4.73,4.16,5.88,7.28a104.18,104.18,0,0,1,3.82,13.21c.7,3,2,5.84,2.59,8.81A20.77,20.77,0,0,1,142.4,62a84.19,84.19,0,0,1-3.23,9.5c-1.4,3.2-3.38,6.34-4.82,9.41s-2.63,6.52-4.41,9.56a137.71,137.71,0,0,1-8.83,13.39c-2.63,3.52-5.19,7.51-8,11-1.64,2-3.31,4.06-4.77,6.22-1.28,1.87-3.18,3.28-3.23,5.47s.72,3.34,2.59,4.49c2.13,1.3,4.38.62,6.42-1"/><path class="cls-1" d="M43.58,114.31c-2.65-2.49-4.14-7.4-5.7-10.65-2.13-4.48-2.86-8.89-3.43-13.78C33.28,79.8,32.38,70,34.29,60s4.58-19.68,10.16-28.17C49.67,23.88,56.58,17.66,64,11.84A46.73,46.73,0,0,1,75.34,5.46a67.32,67.32,0,0,1,12.4-4.35c4-.83,9.16-1.7,13-.57a5.57,5.57,0,0,1,2.52,1c1.23,1.21.63,1.39-.58,1.86a35.84,35.84,0,0,0-5.32,2.14c1.34.58,5.55-1.9,6,.93.34,2.48-5.78.63-6,3,1.33,1,5.72-1.65,6.21,1s-6.07.19-5.8,3.15c1.24.79,2.67-.28,3.76.43a2.35,2.35,0,0,1-.4,1.36c-1.52-.23-3.2.07-4.74,0-1.84-.14-3.59-.75-5.41-.89a17.06,17.06,0,0,0-10.18,1.83,55.53,55.53,0,0,0-8.72,5c-3.14,2.42-6,5.32-9.15,7.76-3.56,2.71-5.8,6.28-8.27,9.91-2.27,3.34-4.77,6.81-6.31,10.7-1.4,3.53-2.49,7-3.57,10.68A43.12,43.12,0,0,0,43.21,71.2c-.57,10.28.94,22.83,6.69,31.62,1.84,2.8,5.62,5.64,3,9-1.38,1.77-7.2,6-9.4,4.39a8.57,8.57,0,0,0,.33-2.65"/><path class="cls-2" d="M46.85,120.91a2.7,2.7,0,0,0,.28.31,18,18,0,0,0-2.86-2.52c-1.27,3.11-8.28.11-5.85-3a5.48,5.48,0,0,1,3,0c-2.65-2.09,1-4,2.72-1.81-.86-.9-.34-2,.08-3,.74.12,1.43.41,2.16.53a2.52,2.52,0,0,1,.62-2.28c.47-.49,1.52-1.43,1.73-.24-.66-.8-.21-2,.22-3,.91.16,2.26.26,2.28,1.37-.72-.63-.3-1.88.11-2.69.35.3.72.41.92.9,0-1.25,1.78-1.57,2.09-.52a1,1,0,0,1-.24-1.54,4.3,4.3,0,0,1,1.72.52,3,3,0,0,0,.15.73,5.73,5.73,0,0,0,.35-.59c2.25-.16,1.28,1.8,1.11,3a1.42,1.42,0,0,1,1.44.13c.14,1.93-4.43,4.38-1.4,6,0,2.36-2.82,3.72-4.34,5-.67.58-4.72,3.87-4.93,3.38"/><path class="cls-2" d="M102.85,124.68c.79.74,1.49-1.21,1.78-1.89a15.56,15.56,0,0,1,.53-1.87c.29-.5.89-.63,1.25-1.16,1.12.18,1,2.39.55,3.2a3.27,3.27,0,0,1,2.67-1c-.06,1.33.07,2.19-.89,3.16a2.44,2.44,0,0,1,2.47-.27,2.89,2.89,0,0,1-.88,2,2.91,2.91,0,0,1,2.18.38,1.76,1.76,0,0,1-1.1,1.65,6.33,6.33,0,0,0,1.76.14,2.55,2.55,0,0,1-1.17,2.07,2.5,2.5,0,0,1,1.84-.25c0,1.67-2.27,2.88-3.52,3.7-1.91,1.26-3.78.32-5.22-1.13a9.7,9.7,0,0,1-2.36-3.93,3.23,3.23,0,0,1-.07-2.83c.46-.84,1.5-.95,1.77-1.88"/><path class="cls-2" d="M77.27,119.83c0,.11,0,.13.1,0,.39-.69.75-1.24,1.59-.85.67.32.78.89.81,1.64a1.74,1.74,0,0,1,2.06-1.59c1.23.38.85,2,.59,2.87.18-.53.66-2.44,1.54-1.92.65.38.05,2,.35,2.51.37-.73.39-1.87,1.09-2.36,1.06-.75,1.18.68,1.3,1.35.16.9.25,1.79.48,2.68a16.66,16.66,0,0,1,.39,2c.06.39.27,1.16,0,1.49-1.76-.1-3.58.4-5.35-.09a8.28,8.28,0,0,1-3.41-2.69,4.55,4.55,0,0,1-.91-2.6,5,5,0,0,1,.54-2.77"/><path class="cls-3" d="M134.35,189.21c-.32,1.7-2.9,3.93-4,5.15-1.9,2-3.39,4.38-5.31,6.46a31,31,0,0,1-4.93,4.3c-1.58,1.1-3.77,1.68-5.09,3,1,.39,1.3,1.57,2.22,1.76,1.16-1.78,3.18-2.41,4.94-3.55a47.29,47.29,0,0,0,6.14-5.13c3.42-3.19,6.35-6,6.94-10.95a1.41,1.41,0,0,0-1-.25,1.06,1.06,0,0,0-.23.68"/><path class="cls-3" d="M108.44,195.86c-.1.27,0,.41.21.4a74.43,74.43,0,0,0,8.18-6.57,24.7,24.7,0,0,0,3.75-3.83c.86-1.19,1.57-2.71,2.51-3.78a3.92,3.92,0,0,1,1.45,1.59,69.18,69.18,0,0,1-8.14,9c-1.52,1.34-3,2.71-4.67,3.93-1.34,1-3.07,2.57-3.7-.07a8.36,8.36,0,0,1,1,.27"/><path class="cls-3" d="M195.64,56.29c-5.31-2-11.78,2.57-16.6,4.48-2.07.82-4.65,1.67-6.77,1.47a5.26,5.26,0,0,1-3.22-1.4c-.79-.69-1.54-2-2.47-2.25-2,2.36-1.48,5.67-1.35,8.35.12,2.85-1.14,6.17-1.87,9.07-1.71,6.88-3.81,13.68-5.5,20.48A96.15,96.15,0,0,1,154,108.26c-1.59,4-2.75,8.43-4.6,12.39-1.11,2.37-1.52,5.09-2.66,7.54-1.5,3.19-2.52,6.62-3.75,9.92-2.08,5.54-4.76,10.76-7.13,16.18a79.07,79.07,0,0,1-11,17.55,62.21,62.21,0,0,1-4.35,5.45,18.78,18.78,0,0,0-2.91,3.23c-.28,0-.51.07-.53.32a.15.15,0,0,0,.12,0l.14,0c-.37,0-.55.69-.58,1s-.09.33.12.47.46.18.58,0a2.65,2.65,0,0,0-.59,1.17c.38.18.77-.1,1-.33,0,.33-.09.64.23.86s.42-.1.69-.32c0,.24-.39.59-.18.82s.7-.2.83-.35a1.25,1.25,0,0,0,0,1c.39.58.76-.09,1.13-.24a2.21,2.21,0,0,0,0,1.25c.32.58.81,0,1.11-.28,0,.32-.26.88,0,1.18.49.53.83-.32,1.22-.45,0,.33-.33.84-.2,1.15.28.66.91-.33,1.09-.52,0,.31-.24.66,0,1,.28.49.64.18.77-.22-.07.27-.36.88-.22,1.13.29.52.86-.33,1.05-.54-.12.43-.36,1,0,1.32.56.5.77-.43,1.19-.57.11.2,0,.49,0,.7a.68.68,0,0,0,.3.62c.51.38.71-.26,1.1-.47a3.18,3.18,0,0,1,0,.76,1.25,1.25,0,0,0,.22.9c.6.65.71-.34,1.1-.52,0,.34-.53,1.15-.17,1.31s.77-.76.94-1c-.13.45-.41,1.23-.06,1.63s.76,0,1-.48c-.16.37-.31.78-.05,1,.5.38.78-.78,1-1-.11.38-.37,1-.19,1.34.38.91.93-.48,1.16-.72-.08.31-.43,1.13-.06,1.34.53.28.56-.85.89-.87.07.34-.27,1.19.12,1.41s.93-1,1.15-1.26c.08.3-.35,2,0,2s.48-.54.65-1c-.14.36-.24.78-.11.94.44.55,1.09-1,1.12-1.26-.07.25-.35.86-.15,1.09.38.4.87-1,.92-1.19-.09.37-.4,1.26.23,1.21s.68-.6.79-1.1c0,.16,0,.32.05.35s.57-.68.67-.86a3.86,3.86,0,0,0,.27-.59c.88-.75,1.47-2.78,2-3.77,1-1.84,1.62-3.79,2.49-5.64a60.91,60.91,0,0,0,4.5-11.61c1-4.13,2.76-8.21,4.15-12.18,1.6-4.61,3.18-9.24,5.1-13.74,3.66-8.58,6-17.78,8.3-26.92a166.85,166.85,0,0,0,4.3-22.09c.36-3.14,1.17-6.21,1.13-9.26a36.11,36.11,0,0,1,.38-4.67,24.56,24.56,0,0,1,.65-4.56c.31-1,.57-2,.82-3,.37-1.45.63-3.3,1.48-4.42,1.95-2.57,5.49-2.48,8.35-3.38C188.42,66.65,195,62.1,195.64,56.29Z"/><path class="cls-3" d="M30.12,244.48c.35-2.11,3.58-17.34,3.94-17.83a1.54,1.54,0,0,1,2.52-.26c-.44,4.6-2.28,9.18-3.43,13.79a79,79,0,0,0-2.43,12.45c-1.68-.18-1.14.21-2.71-.42C28.05,251.4,29.88,246,30.12,244.48Z"/><path class="cls-3" d="M49,245.55a73.31,73.31,0,0,0-2.74,7.1c-.58,2.07-.68,5.09-2.3,6.43A5.69,5.69,0,0,0,46.9,259c1.75-4.25,2.57-9.07,4.21-13.13.92-2.29,1.13-5,2-7.27.74-2,1.89-4.21,2.13-6.69-1.4-.37-2.15.39-3.39,1.43C51.84,233.37,50.11,242.69,49,245.55Z"/><path class="cls-3" d="M26.49,382.87c0-6.16-.48-12.62.71-18.87s2.22-12.77,3-19.13c.73-5.95,2.08-11.67,2.8-17.59,1.34-11.09.77-22.73,4.63-33.8,2.21-6.33,4.72-12.72,7.07-19,1.93-5.12,5.66-10.76,6.43-16.48-.1,0-.16-.07-.25-.09a1.1,1.1,0,0,0,0-.78,1.41,1.41,0,0,0-.28.68h0c.09-.37.28-1.19-.12-1.21s-.41.58-.47,1l0,0a2.48,2.48,0,0,0-.05-1.21c-.28,0-.41.59-.48,1a.1.1,0,0,0-.05,0c0-.58.11-1.6-.15-1.76s-.34.15-.4.47c0-.47-.21-.94-.71-1s-.54.57-.69,1l-.06-.06c-.07-.35,0-.72-.09-1.06-.2,0-.32.37-.39.7l-.13-.1c0-.66-.14-1.47-.5-1.51s-.32.38-.42.76l0,0c0-.62,0-1.44-.54-1.36a6,6,0,0,0-.27.65l-.14-.1c.1-.48.18-1,.27-1.43a2.21,2.21,0,0,0-.43,1c.12-.47.42-1.57,0-2s-.92.06-1.24.33l-.49.54c-.17-.13-.33-.27-.5-.39.1-.58.37-1.33,0-1.51s-.65.65-.73.93c.11-.39.21-1.26-.43-1.23-.31,0-.45.35-.58.67a1.25,1.25,0,0,0-.12-.08,1.54,1.54,0,0,0,0-1,1.54,1.54,0,0,0-.51.67c-.12-.35.42-1.45-.06-1.7s-1.23.74-1.57,1.15l-.08,0c0-.32.14-.8-.23-.82-.22,0-.37.38-.46.66h0c.07-.5.33-1.44-.17-1.45s-1.08.8-1.12,1.25c.09-1.27-1-.72-1.48,0H34.7c0-.35-.05-.86-.34-1-.49-.14-.81.61-.88,1h0c0-.33.19-1.27-.32-1.28s-.63.78-.67,1.07c0-.45.25-1.43-.45-1.18s-.52,1-.71,1.5c-.19-.55,0-1.49-.91-.92-.47.3-.41.7-.62,1.14-.09-.26-.14-1.09-.63-.82-.26.13-.25.76-.37,1-.13-.25,0-1.38-.68-1-.28.18-.3.73-.36,1-.16-.27-.21-1-.72-.86-.27.07-.39.82-.37,1.19h0c-.08-.44-.19-1.48-.73-1.27s-.23,1-.19,1.3c0-.29-.33-1.64-.89-1.28-.24.14-.23,1-.13,1.35h-.09c-.2-.33-.33-.79-.74-.83a1.86,1.86,0,0,0,.14,1.11H23.8c-.34-.34-.8-1-1.19-.68s.15.93.42,1.17c1.1,2.23.24,5.24.19,7.48a53.21,53.21,0,0,1-2.07,11.42,99.49,99.49,0,0,0-2.07,11.49c-.5,3.89-1.63,7.76-2.15,11.75-1.11,8.42-2,16.74-2.26,25.27-.21,6.11-.86,13.29-1.66,19.36-1.66,12.92-4.63,24.68-3,36.83.77,5.78-3.47,10.61-5.53,15.78-.77,2-8.12,15.09-2.1,15.64l.63-.07c.88-1.88,3.69-3.43,5.17-5,1.81-1.87,4.06-3.59,5.76-5.47a42.77,42.77,0,0,0,4.73-6.94c1.37-2.36,1.71-5.48,3.42-7.64.62,1.54,0,5.32,1.06,6.18C26,389.7,26.49,384.09,26.49,382.87Z"/></g></g></svg>