<svg xmlns="http://www.w3.org/2000/svg" viewBox="0 0 259.93 137.36"><defs><style>.cls-1{fill:#e30613;}.cls-2{fill:#007293;}.cls-3{fill:#fff;}.cls-4{fill:#1d1d1b;}</style></defs><g id="Ebene_2" data-name="Ebene 2"><g id="Ebene_1-2" data-name="Ebene 1"><path class="cls-1" d="M249.67,2.42l4.89-.94a4.82,4.82,0,0,1-1.62-.27s-.2-.12,1-1.21c-1.5,1-4.8.63-4.8.63l.14,1.76Z"/><path class="cls-2" d="M249.19.63l.24,3.16.21,0L249.39.65Z"/><path class="cls-1" d="M243.59,11.64s3.41-1.63,6-8.22c2.19,7,5.19,7.9,5.19,7.9a30.2,30.2,0,0,0,3.1,10.74l-5.46,1.23s.16-4.64-2.42-4.56-1.83,4.62-1.83,4.62l-7.91.39A23.61,23.61,0,0,0,243.59,11.64Zm1.59.82-.93-.24a50.9,50.9,0,0,1-2.11,10.84H244Zm4,.46.18,5.64,1.28-.14L249.9,13Zm-4.49,10,2.3-.14-.16-10-.8-.14Zm9.06.08,1.06-.09-2.69-10.36-.71.11ZM252.44,12.5l2.85,10.42L256,23s-2.59-10.66-2.68-10.63S252.44,12.5,252.44,12.5Zm1.25-.33,2.81,10.66,1.06-.46A57.35,57.35,0,0,1,254.4,11.9Zm-8.56-.38s3.8-3.19,4.17-7.33c-.05,3-4.94,7.11-5.06,7.14Zm4.39-7.31a10.89,10.89,0,0,1-4,7.43,12.14,12.14,0,0,0,3.25.39Zm0,7.76,2.82-.33c-2-.75-2.71-7.4-2.71-7.4Zm3.22-.45,1.5-.35s-2.76-1.19-4.36-6.55A13.7,13.7,0,0,0,252.76,11.79Z"/><path class="cls-3" d="M251.24,1.19s0-.33,0-.33l.2.26.34-.15-.11.28.41.15-.47.11,0,.36-.29-.25-.36.25.14-.42-.43-.22Z"/><path class="cls-3" d="M250.38,13a4.87,4.87,0,0,0,.59-.13l2.38,10.06-.62.13a6.73,6.73,0,0,0-.92-4l-.69-.45Z"/><path class="cls-3" d="M248,12.86l.5,0,.14,6a2.35,2.35,0,0,0-1.19,2.14C247.35,22.69,248,12.86,248,12.86Z"/><path class="cls-2" d="M204.83,43.72s12.41-6.41,18.1-9.79c6.12-3.65,18.42-14.13,19.78-14.71s8,0,8.69,0a26.45,26.45,0,0,0,3.5-.41s.83.69-.38,1.08-3.5,1.21-3.5,1.21l.36.93s5.39,3.14,6.76,2.46,1.79-.18,1.79-.18l-1.05,1.28-1.95.36s-6.38-2.8-9-2.39-8.54,5-10.55,6.68-16.21,11-18.84,12.43S206.82,49.83,205,50,204.83,43.72,204.83,43.72Z"/><path class="cls-2" d="M82.28,68.94,38.5,78.45,36.23,62.71l1.35-10L24.23,50.3l8.18,8.18-3.5,25.87s-1,3.85,2.32,4.48S80.85,81,80.85,81a52.58,52.58,0,0,1-11.42,9.54c-7.3,4.6-28.35,18.77-28.35,18.77l-17.33-18L15.14,79,0,82.82l14.65,5.29,18.67,29.05s3.19,5.14,6.3,4.28c6.13-1.7,44.5-18.85,44.5-18.85l3.62-1.75Z"/><path class="cls-1" d="M131.26,75.74c-2.45-4.4-5.27-8.62-7.94-12.88-.61.27-2.16.7-2.16.7-3.18.7-6.59.19-9.87-.07A140.64,140.64,0,0,1,96.68,62c-7.68-1.41-14.48-5.23-21-9.12-1,4.75-.78,9.49-.84,14.3a126,126,0,0,0,4.23,32.87c3.52,13.26,12.5,28,26.14,32.79a20.38,20.38,0,0,0,5.24,1.11c.83-4.3.48-8.64.91-13,.63-6.39,2.52-12.47,4-18.67s3.56-13.77,7.18-19a32.38,32.38,0,0,1,3.52-3.91c1.15-1.16,2.52-1.6,3.65-2.54a2.17,2.17,0,0,0,.62-.79Z"/><path class="cls-3" d="M82.63,96.26a219.51,219.51,0,0,1,24.46-13.37c4.17-2,8.38-3.88,12.61-5.71a73,73,0,0,0,9.63-4.76c-.61-1-1.24-2-1.88-3.06a49.24,49.24,0,0,1-8.91,2.81c-6.25,1.52-12.36,3.45-18.54,5.21-8,2.28-16,4.41-24.14,6.33a130.77,130.77,0,0,0,2.89,15.12Q80.67,97.53,82.63,96.26Z"/><path class="cls-3" d="M131.07,75.42c-4.17,3.65-9.47,5.84-14.33,8.36a52.66,52.66,0,0,0-7.95,5c-2.71,2.08-5.33,4.28-7.83,6.6a128,128,0,0,0-16.38,18.4c3.87,7,9.26,13.29,16,17.05.2-1.6.45-3.19.76-4.77,2.73-13.73,9.44-26.23,18.19-37a32.13,32.13,0,0,1,3-5.61,31.8,31.8,0,0,1,3.53-3.91c1.14-1.17,2.51-1.61,3.65-2.54a2.26,2.26,0,0,0,.62-.79l.86-.38Z"/><path class="cls-3" d="M117.8,65.38a40.42,40.42,0,0,1-11,.76,93.18,93.18,0,0,1-15.74-2.53c-4.37-1-8.74-2.08-13.08-3.2l-3.1-.81c-.1,2.5-.06,5-.09,7.54,0,1.55,0,3.12.06,4.7h.05a171.53,171.53,0,0,0,30.55-1.67c4.57-.72,9.12-1.67,13.6-2.84a56.71,56.71,0,0,0,5.9-1.85c-.47-.73-.93-1.47-1.4-2.21A20.89,20.89,0,0,1,117.8,65.38Z"/><path class="cls-4" d="M74.29,52.5c-1.76,1.41-1.45,2.67.81,3.32-2.11.24-1.81.91-2.85,2.24.84.4,1.3,1.31,2.18,1.7-1.27.82-1.69,2-2.42,3.33,1.53.21,1.47.79,2.94,0-3.13,1.21-3.63,6.81-.54,4.73-1.62,1.5-3.41,5.29-.11,4.81-1.15.94-1.36,2.14-2,3.44.72-.31,1.34-.08,2.27-.88-2,1.54-1.75,6,.7,4.28-.89,1.94-4.52,8.31.35,6-1.09,2.1-1.87,11,1,6.63-.44,1-2.42,3.9-2.14,4.91.64,2.29,2.26,2,3.36.27-2,3.31-.39,10.4,1.65,5.37-.92,1.89-3.19,5.19-1.79,7.26s4,1.51,4.94-.7c-2.4,3.85.82,11.86,2.73,6.38-3.08,4.79.92,9.83,3.82,5.1-2.5,3.36,3.53,8,4.43,5.59-2.92,3.27,2.09,7.91,4,4.26-3.3,2.32,2.15,7.16,3.51,2.25-1.52,2.09-1,2.23,1.08,2.93.47-.94,2.35-.7,2.55-1.76-3.7,4.49,2.15,4.48,3.43.39-1.06,2.19.64,3.42,2-.37-.9,1.54-.53,1.54.16,3.06,1-1.36,1.47-2.66,1-4-4.25,1.55-10.81-1.24-15-5.45-3.33-3.36-4-8.74-6.72-12.6-2.45-3.5-6-6.28-8-10.06-4-7.48-4-19.06-5.07-27.53-1.21-9.58-2.93-15.46-.52-24.68C75.82,53.19,74.7,52.69,74.29,52.5Z"/><path class="cls-4" d="M194.44,19a14.44,14.44,0,0,0-2.7,4.07c-1,2.12-1.06,4.46-2,6.55-.71,1.53-.91,3.3-2,4.65-.84,1.07-2,1.94-2.26,3.28a2.77,2.77,0,0,0,.15,1.72,6,6,0,0,1,1.62-.67c2.07-.45,4.59-.35,6.53-1.22s3-2.77,4.25-4.25l.31-.37a6.23,6.23,0,0,1,.38-1.23c.3-.67.81-1.13,1.11-1.76,2.08-4.44-1.45-9.72-5.44-11.54l.63.44A.9.9,0,0,0,194.44,19Z"/><path class="cls-2" d="M139.17,40.89c-2.52,2.25-10.79,4-14.73,4.81a162.45,162.45,0,0,1-18.09,3c-7.66.76-15.65.09-23.38.1-3.79,0-11,1-12.89,4.13.23.29.12.38.44.35a20.55,20.55,0,0,0,5.4-1.92C75,52,72.79,53,72.24,53.89c.07,0,.16.23.3.18a26.23,26.23,0,0,0,4.07-2c-.18.38-2.56,1.64-2.68,2.07.15.05.34.3.49.26,1.08-.29,2.74-.81,3.83-1.24.12-.12.12-.12,0,0-.46.71-1.47,1.65-1.53,2.51,0,.22.14.27.4.29a15.76,15.76,0,0,1,5.56-2.57c2.12-.49,5.31-.16,7.47,0,5.68.46,11.51,1.9,17.24,2.67,0,0,23.74-3.14,33.3-10.17a18,18,0,0,0,2.37-1.64C141.45,43.86,139.17,40.89,139.17,40.89Z"/><path class="cls-1" d="M204.59,42.88s-14.85,3.87-16.76,1.91a13,13,0,0,1-2.45-3.2s-4.37.54-4.7-2.32-8.17-5.36-8.17-5.36l-9.27-2.62-25,8.49,3.87,7.54,13.59-4c-12.22,7.43-19,12.1-31.45,19.09-.21.12-.42.23-.64.33,2.68,4.26,5.49,8.48,8,12.88a53.87,53.87,0,0,1,11.13-3.68c2.89-.48,27.14-12.83,30-13.31s3.76,2.68,6.3,0,3.73-5.13,4.61-5.23S207,51.09,207,51.09Z"/><path class="cls-3" d="M197.34,23l-.61,4.47A17.3,17.3,0,0,0,197.94,30c.43.56-1.52,1-1.52,1a25.59,25.59,0,0,0-.7,3.16,1.83,1.83,0,0,1-.5,1.29c-.67.61-4.54-1.36-6-.32-2,1.41-3.86,6.4-3.86,6.4s-.62,3-2.7,2.5-5.34-6.62-5.34-6.62l9-14.13,9.46-2.6Z"/><path class="cls-4" d="M196.27,21.49a1.92,1.92,0,0,0,.21-1.63,8.57,8.57,0,0,0-2-2.49s-6.93-3.63-11.26-1.52S172.53,25,171.16,25.18s-7.26-3.68-8.61-4.88-4.7-2.66-5.43-2.25a3.74,3.74,0,0,1-2.6.49c-.64-.25-1.14-1.49-4.08-2.23s-5-3.2-6.62-.9-3.65,4.56-3.66,7.09,2.2,6.2,3.41,7.21,1.72,2.25,3.6,3.35a14.74,14.74,0,0,0,9.6,1.3c3.49-.88,7.67-2.17,9.8-1.54s4.87,1.5,7.29,2.33a8,8,0,0,0,5.4-.11c1.07-.36,5-5.25,8-7.78a69.15,69.15,0,0,1,9-5.77h0l-.28-.4.28.4"/><path class="cls-1" d="M194,27.46a1.52,1.52,0,0,1-.28,2,1.64,1.64,0,0,1-2.09-.07,1.77,1.77,0,0,1,.19-2.13A1.91,1.91,0,0,1,194,27.46Z"/><path class="cls-2" d="M193.78,25.7c.43,0,.85-.28,1.29-.3a5.9,5.9,0,0,1,1.39.07.65.65,0,0,1,0,.31c-.93-.08-2.64.07-2.55,0"/><path class="cls-1" d="M195.47,32.45a2,2,0,0,1-1.48-.62,1.7,1.7,0,0,0,1.07.92,5.93,5.93,0,0,0,.83.24s.36-.42-.08-.54Z"/></g></g></svg>