<svg xmlns="http://www.w3.org/2000/svg" xmlns:xlink="http://www.w3.org/1999/xlink" viewBox="0 0 291.05 376.3"><defs><style>.cls-1{fill:none;}.cls-2{fill:#fff;}.cls-3{fill:#007293;}.cls-4{fill:#1d1d1b;}.cls-5{fill:#e63027;}.cls-6{fill:#e30613;}.cls-7{fill:url(#Neues_Musterfeld_1);}</style><pattern id="Neues_Musterfeld_1" data-name="Neues Musterfeld 1" width="255.33" height="255.33" patternTransform="translate(456.54 7.26) scale(0.03)" patternUnits="userSpaceOnUse" viewBox="0 0 255.33 255.33"><rect class="cls-1" width="255.33" height="255.33"/><path class="cls-2" d="M255.33,0H0V255.33H255.33ZM10.48,24.67a2.32,2.32,0,1,1-2.31-2.32A2.32,2.32,0,0,1,10.48,24.67Zm0,29.5a2.32,2.32,0,1,1-2.31-2.32A2.32,2.32,0,0,1,10.48,54.17Zm0,29.5a2.32,2.32,0,1,1-2.31-2.32A2.32,2.32,0,0,1,10.48,83.67Zm0,29.5a2.32,2.32,0,1,1-2.31-2.32A2.32,2.32,0,0,1,10.48,113.17Zm0,29.5a2.32,2.32,0,1,1-2.31-2.32A2.32,2.32,0,0,1,10.48,142.67Zm0,29.5a2.32,2.32,0,1,1-2.31-2.32A2.32,2.32,0,0,1,10.48,172.17Zm0,29.5a2.32,2.32,0,1,1-2.31-2.32A2.32,2.32,0,0,1,10.48,201.67Zm0,29.5a2.32,2.32,0,1,1-2.31-2.32A2.32,2.32,0,0,1,10.48,231.17ZM28,6.67a2.32,2.32,0,1,1-2.31-2.32A2.32,2.32,0,0,1,28,6.67Zm19.5,18a2.32,2.32,0,1,1-2.31-2.32A2.32,2.32,0,0,1,47.48,24.67Zm0,29.5a2.32,2.32,0,1,1-2.31-2.32A2.32,2.32,0,0,1,47.48,54.17Zm0,29.5a2.32,2.32,0,1,1-2.31-2.32A2.32,2.32,0,0,1,47.48,83.67Zm0,29.5a2.32,2.32,0,1,1-2.31-2.32A2.32,2.32,0,0,1,47.48,113.17Zm0,29.5a2.32,2.32,0,1,1-2.31-2.32A2.32,2.32,0,0,1,47.48,142.67Zm0,29.5a2.32,2.32,0,1,1-2.31-2.32A2.32,2.32,0,0,1,47.48,172.17Zm0,29.5a2.32,2.32,0,1,1-2.31-2.32A2.32,2.32,0,0,1,47.48,201.67Zm0,29.5a2.32,2.32,0,1,1-2.31-2.32A2.32,2.32,0,0,1,47.48,231.17ZM65,6.67a2.32,2.32,0,1,1-2.31-2.32A2.32,2.32,0,0,1,65,6.67Zm19.5,18a2.32,2.32,0,1,1-2.31-2.32A2.32,2.32,0,0,1,84.48,24.67Zm0,29.5a2.32,2.32,0,1,1-2.31-2.32A2.32,2.32,0,0,1,84.48,54.17Zm0,29.5a2.32,2.32,0,1,1-2.31-2.32A2.32,2.32,0,0,1,84.48,83.67Zm0,29.5a2.32,2.32,0,1,1-2.31-2.32A2.32,2.32,0,0,1,84.48,113.17Zm0,29.5a2.32,2.32,0,1,1-2.31-2.32A2.32,2.32,0,0,1,84.48,142.67Zm0,29.5a2.32,2.32,0,1,1-2.31-2.32A2.32,2.32,0,0,1,84.48,172.17Zm0,29.5a2.32,2.32,0,1,1-2.31-2.32A2.32,2.32,0,0,1,84.48,201.67Zm0,29.5a2.32,2.32,0,1,1-2.31-2.32A2.32,2.32,0,0,1,84.48,231.17ZM102,6.67a2.32,2.32,0,1,1-2.31-2.32A2.32,2.32,0,0,1,102,6.67Zm19.5,18a2.32,2.32,0,1,1-2.31-2.32A2.32,2.32,0,0,1,121.48,24.67Zm0,29.5a2.32,2.32,0,1,1-2.31-2.32A2.32,2.32,0,0,1,121.48,54.17Zm0,29.5a2.32,2.32,0,1,1-2.31-2.32A2.32,2.32,0,0,1,121.48,83.67Zm0,29.5a2.32,2.32,0,1,1-2.31-2.32A2.32,2.32,0,0,1,121.48,113.17Zm0,29.5a2.32,2.32,0,1,1-2.31-2.32A2.32,2.32,0,0,1,121.48,142.67Zm0,29.5a2.32,2.32,0,1,1-2.31-2.32A2.32,2.32,0,0,1,121.48,172.17Zm0,29.5a2.32,2.32,0,1,1-2.31-2.32A2.32,2.32,0,0,1,121.48,201.67Zm0,29.5a2.32,2.32,0,1,1-2.31-2.32A2.32,2.32,0,0,1,121.48,231.17ZM139,6.67a2.32,2.32,0,1,1-2.31-2.32A2.32,2.32,0,0,1,139,6.67Zm19.5,18a2.32,2.32,0,1,1-2.31-2.32A2.32,2.32,0,0,1,158.48,24.67Zm0,29.5a2.32,2.32,0,1,1-2.31-2.32A2.32,2.32,0,0,1,158.48,54.17Zm0,29.5a2.32,2.32,0,1,1-2.31-2.32A2.32,2.32,0,0,1,158.48,83.67Zm0,29.5a2.32,2.32,0,1,1-2.31-2.32A2.32,2.32,0,0,1,158.48,113.17Zm0,29.5a2.32,2.32,0,1,1-2.31-2.32A2.32,2.32,0,0,1,158.48,142.67Zm0,29.5a2.32,2.32,0,1,1-2.31-2.32A2.32,2.32,0,0,1,158.48,172.17Zm0,29.5a2.32,2.32,0,1,1-2.31-2.32A2.32,2.32,0,0,1,158.48,201.67Zm0,29.5a2.32,2.32,0,1,1-2.31-2.32A2.32,2.32,0,0,1,158.48,231.17ZM176,6.67a2.32,2.32,0,1,1-2.31-2.32A2.32,2.32,0,0,1,176,6.67Zm19.5,18a2.32,2.32,0,1,1-2.31-2.32A2.32,2.32,0,0,1,195.48,24.67Zm0,29.5a2.32,2.32,0,1,1-2.31-2.32A2.32,2.32,0,0,1,195.48,54.17Zm0,29.5a2.32,2.32,0,1,1-2.31-2.32A2.32,2.32,0,0,1,195.48,83.67Zm0,29.5a2.32,2.32,0,1,1-2.31-2.32A2.32,2.32,0,0,1,195.48,113.17Zm0,29.5a2.32,2.32,0,1,1-2.31-2.32A2.32,2.32,0,0,1,195.48,142.67Zm0,29.5a2.32,2.32,0,1,1-2.31-2.32A2.32,2.32,0,0,1,195.48,172.17Zm0,29.5a2.32,2.32,0,1,1-2.31-2.32A2.32,2.32,0,0,1,195.48,201.67Zm0,29.5a2.32,2.32,0,1,1-2.31-2.32A2.32,2.32,0,0,1,195.48,231.17ZM213,6.67a2.32,2.32,0,1,1-2.31-2.32A2.32,2.32,0,0,1,213,6.67Zm19.5,18a2.32,2.32,0,1,1-2.31-2.32A2.32,2.32,0,0,1,232.48,24.67Zm0,29.5a2.32,2.32,0,1,1-2.31-2.32A2.32,2.32,0,0,1,232.48,54.17Zm0,29.5a2.32,2.32,0,1,1-2.31-2.32A2.32,2.32,0,0,1,232.48,83.67Zm0,29.5a2.32,2.32,0,1,1-2.31-2.32A2.32,2.32,0,0,1,232.48,113.17Zm0,29.5a2.32,2.32,0,1,1-2.31-2.32A2.32,2.32,0,0,1,232.48,142.67Zm0,29.5a2.32,2.32,0,1,1-2.31-2.32A2.32,2.32,0,0,1,232.48,172.17Zm0,29.5a2.32,2.32,0,1,1-2.31-2.32A2.32,2.32,0,0,1,232.48,201.67Zm0,29.5a2.32,2.32,0,1,1-2.31-2.32A2.32,2.32,0,0,1,232.48,231.17ZM250,6.67a2.32,2.32,0,1,1-2.31-2.32A2.32,2.32,0,0,1,250,6.67Zm-222,30a2.32,2.32,0,1,1-2.31-2.31A2.31,2.31,0,0,1,28,36.71Zm37,0a2.32,2.32,0,1,1-2.31-2.31A2.31,2.31,0,0,1,65,36.71Zm37,0a2.32,2.32,0,1,1-2.31-2.31A2.31,2.31,0,0,1,102,36.71Zm37,0a2.32,2.32,0,1,1-2.31-2.31A2.31,2.31,0,0,1,139,36.71Zm37,0a2.32,2.32,0,1,1-2.31-2.31A2.31,2.31,0,0,1,176,36.71Zm37,0a2.32,2.32,0,1,1-2.31-2.31A2.31,2.31,0,0,1,213,36.71Zm37,0a2.32,2.32,0,1,1-2.31-2.31A2.31,2.31,0,0,1,250,36.71ZM28,66.76a2.32,2.32,0,1,1-2.31-2.31A2.31,2.31,0,0,1,28,66.76Zm37,0a2.32,2.32,0,1,1-2.31-2.31A2.31,2.31,0,0,1,65,66.76Zm37,0a2.32,2.32,0,1,1-2.31-2.31A2.31,2.31,0,0,1,102,66.76Zm37,0a2.32,2.32,0,1,1-2.31-2.31A2.31,2.31,0,0,1,139,66.76Zm37,0a2.32,2.32,0,1,1-2.31-2.31A2.31,2.31,0,0,1,176,66.76Zm37,0a2.32,2.32,0,1,1-2.31-2.31A2.31,2.31,0,0,1,213,66.76Zm37,0a2.32,2.32,0,1,1-2.31-2.31A2.31,2.31,0,0,1,250,66.76ZM28,96.81a2.32,2.32,0,1,1-2.31-2.31A2.32,2.32,0,0,1,28,96.81Zm37,0a2.32,2.32,0,1,1-2.31-2.31A2.32,2.32,0,0,1,65,96.81Zm37,0a2.32,2.32,0,1,1-2.31-2.31A2.32,2.32,0,0,1,102,96.81Zm37,0a2.32,2.32,0,1,1-2.31-2.31A2.32,2.32,0,0,1,139,96.81Zm37,0a2.32,2.32,0,1,1-2.31-2.31A2.32,2.32,0,0,1,176,96.81Zm37,0a2.32,2.32,0,1,1-2.31-2.31A2.32,2.32,0,0,1,213,96.81Zm37,0a2.32,2.32,0,1,1-2.31-2.31A2.32,2.32,0,0,1,250,96.81ZM28,126.86a2.32,2.32,0,1,1-2.31-2.32A2.32,2.32,0,0,1,28,126.86Zm37,0a2.32,2.32,0,1,1-2.31-2.32A2.32,2.32,0,0,1,65,126.86Zm37,0a2.32,2.32,0,1,1-2.31-2.32A2.32,2.32,0,0,1,102,126.86Zm37,0a2.32,2.32,0,1,1-2.31-2.32A2.32,2.32,0,0,1,139,126.86Zm37,0a2.32,2.32,0,1,1-2.31-2.32A2.32,2.32,0,0,1,176,126.86Zm37,0a2.32,2.32,0,1,1-2.31-2.32A2.32,2.32,0,0,1,213,126.86Zm37,0a2.32,2.32,0,1,1-2.31-2.32A2.32,2.32,0,0,1,250,126.86Zm-222,30a2.32,2.32,0,1,1-2.31-2.31A2.31,2.31,0,0,1,28,156.9Zm37,0a2.32,2.32,0,1,1-2.31-2.31A2.31,2.31,0,0,1,65,156.9Zm37,0a2.32,2.32,0,1,1-2.31-2.31A2.31,2.31,0,0,1,102,156.9Zm37,0a2.32,2.32,0,1,1-2.31-2.31A2.31,2.31,0,0,1,139,156.9Zm37,0a2.32,2.32,0,1,1-2.31-2.31A2.31,2.31,0,0,1,176,156.9Zm37,0a2.32,2.32,0,1,1-2.31-2.31A2.31,2.31,0,0,1,213,156.9Zm37,0a2.32,2.32,0,1,1-2.31-2.31A2.31,2.31,0,0,1,250,156.9ZM28,187a2.32,2.32,0,1,1-2.31-2.31A2.31,2.31,0,0,1,28,187Zm37,0a2.32,2.32,0,1,1-2.31-2.31A2.31,2.31,0,0,1,65,187Zm37,0a2.32,2.32,0,1,1-2.31-2.31A2.31,2.31,0,0,1,102,187Zm37,0a2.32,2.32,0,1,1-2.31-2.31A2.31,2.31,0,0,1,139,187Zm37,0a2.32,2.32,0,1,1-2.31-2.31A2.31,2.31,0,0,1,176,187Zm37,0a2.32,2.32,0,1,1-2.31-2.31A2.31,2.31,0,0,1,213,187Zm37,0a2.32,2.32,0,1,1-2.31-2.31A2.31,2.31,0,0,1,250,187ZM28,217a2.32,2.32,0,1,1-2.31-2.31A2.32,2.32,0,0,1,28,217Zm37,0a2.32,2.32,0,1,1-2.31-2.31A2.32,2.32,0,0,1,65,217Zm37,0a2.32,2.32,0,1,1-2.31-2.31A2.32,2.32,0,0,1,102,217Zm37,0a2.32,2.32,0,1,1-2.31-2.31A2.32,2.32,0,0,1,139,217Zm37,0a2.32,2.32,0,1,1-2.31-2.31A2.32,2.32,0,0,1,176,217Zm37,0a2.32,2.32,0,1,1-2.31-2.31A2.32,2.32,0,0,1,213,217Zm37,0a2.32,2.32,0,1,1-2.31-2.31A2.32,2.32,0,0,1,250,217ZM28,247a2.32,2.32,0,1,1-2.31-2.31A2.32,2.32,0,0,1,28,247Zm37,0a2.32,2.32,0,1,1-2.31-2.31A2.32,2.32,0,0,1,65,247Zm37,0a2.32,2.32,0,1,1-2.31-2.31A2.32,2.32,0,0,1,102,247Zm37,0a2.32,2.32,0,1,1-2.31-2.31A2.32,2.32,0,0,1,139,247Zm37,0a2.32,2.32,0,1,1-2.31-2.31A2.32,2.32,0,0,1,176,247Zm37,0a2.32,2.32,0,1,1-2.31-2.31A2.32,2.32,0,0,1,213,247Zm37,0a2.32,2.32,0,1,1-2.31-2.31A2.32,2.32,0,0,1,250,247Z"/></pattern></defs><g id="Ebene_2" data-name="Ebene 2"><g id="Ebene_1-2" data-name="Ebene 1"><path class="cls-3" d="M102,51.39c-.37.12.49-1.28.57-1.42A6.26,6.26,0,0,1,104.07,48a3.49,3.49,0,0,1,2.94-.88,4.92,4.92,0,0,1,4.32,4.17,4.77,4.77,0,0,1-.08,2c-.23.52-.88.91-1.29,1.26a4.7,4.7,0,0,1-3.17,1.15c-2.05,0-4.52-1.16-5-3.45a4.79,4.79,0,0,1,.67-3.52,10.87,10.87,0,0,1,1.11-1.33c.37-.4.7-1.12,1.31-1"/><path class="cls-4" d="M52.92,185.13a.53.53,0,0,1-.41,0c-.06-.74-.77-.73-1.34-.61a.91.91,0,0,0,0,.61,1.19,1.19,0,0,0,.83,0,1.67,1.67,0,0,0-.2-1.32"/><path class="cls-3" d="M60.21,226.45c-.72.81-.17,2.52-.06,3.45a41.06,41.06,0,0,1,.06,4.84,43.94,43.94,0,0,1-.52,8.75c-.66,3.35-.73,6.81-1.57,10.11-.9,3.56-1.44,7.24-2.34,10.83a23.47,23.47,0,0,0-.78,2.89,13.06,13.06,0,0,0,.53,3.92c.66,3.44.42,7,.76,10.55.73,7.38,1.57,14.77,1.57,22.22,0,3.07.33,6.1.26,9.23s-.27,6.15-.26,9.26a17.18,17.18,0,0,1-.53,4.25c-.34,1.34,0,1.82-1.54,2.34a16.87,16.87,0,0,1-3.91.86,11.59,11.59,0,0,1-3.07.23c-1.46-6.45-1.32-13.64-.62-20.27s0-13.21-.67-19.75a74.51,74.51,0,0,1-.32-7.91c0-3.12-.53-6.26-.52-9.4a39.72,39.72,0,0,0-.71-8.07c-.95-4.58-1.32-9.3-1.95-13.93-.7-5.29-1.8-10.78-1.76-16.17,0-4.4-.8-9,.25-13.27a26.32,26.32,0,0,1,1.64-5.57c.37-.78,1.31-3.34,2.27-3.41s2.51,2.55,3,3.19c1.44,1.72,3.06,3.22,4.54,4.88.66.75,1.22,1.67,1.86,2.45s1.15,1.27,1,2.18"/><path class="cls-4" d="M39.09,186.88c1,1.16,3.49-.57,5-.82a37.83,37.83,0,0,1,5.73,0c4.23,0,8.64-.37,12.67.75a58.12,58.12,0,0,0,15.24,1.6c1.87,0,3.74,0,5.61,0,2.19,0,4.18.94,6.24.91-.65,5.14.72,9.94.72,15.52s.46,11.6-.1,17.12c-3.69-1-5.17-1.91-8.76,1a16,16,0,0,0-5.81,9.9c-2.83.72-6.35-.65-9.37-.66-1,0-3.57.6-4.46.05-1.13-.68-1.59-2.87-2.63-4-4.73-5-11.09-5.58-16.2-8.74-.65-5.53-.19-10.74-.71-16.33-.22-2.35-1-5.24-1.27-7.82-.24-2-1.56-4.6-1.3-6.77V190"/><path class="cls-3" d="M117.52,229.3c-3.36-1.26-6.67-2.11-10.12-3.15-1.9-.56-3.56-1.25-5.55-1.91-1.54-.51-3.41-.27-5.07-.77-1.43-.43-2.84-1.14-4.42-1.56a7.8,7.8,0,0,0-1-.18c-.45-.71-1.59-1-3.07-.9l.71.44a2.51,2.51,0,0,1-.83-.44c-6.81.43-20.44,7.79-9.21,13a101.84,101.84,0,0,1,11.49,6.82c4.83,3.09,9.71,4,15,5.05-.5,8.23-8.5,16.5-11.79,23.52-1,2.12-1.49,4.07-2.68,6.07s-3,3-4.3,4.88A21,21,0,0,0,84.33,285c2.56.22,5.13.23,7.7.29a31,31,0,0,1,4.49-7.6c4.17-5.59,8.67-10.91,12.93-16.36,5.37-6.88,12.36-11.53,13.12-22.08C123,233.31,122.2,231.05,117.52,229.3Z"/><path class="cls-4" d="M91.63,265.63c.12,2,3.88,3.23,5.17,3.8a57.9,57.9,0,0,0,5.71,2.71c0,2.39-1.65,5.09-2.77,6.9-1.46,2.37-2.13,4.86-3.32,7.37-1.32,2.77-2.57,5.18-3.76,8.1-.89,2.18-1.94,4.53-3,6.57-.54,1.05-1,2.84-1.7,3.54,1.08.65,2.1.33,3.2.43a23.82,23.82,0,0,1,3.58.92c2.38.62,4.41,1.6,6.61,2.31-.14,1.94-.26,3.43-1.81,4.22-1.12.57-3.19.48-4.46.63a23.83,23.83,0,0,1-8.42-1c-2.83-.72-5.28-2.29-8.28-2.66-.76-.09-1.15-.59-1.79,0s-.23,2.25-.82,2.81c-1.43,1.33-2.62-1.28-3.69-2,.1-1.45,1.46-3.67,2.1-4.9a36.48,36.48,0,0,1,2.34-4c2.7-3.92,4.2-7.84,6.06-12.41,1.78-4.38,3.88-8.55,5.11-12.94a32.67,32.67,0,0,1,2.06-6.15c.74-1.43,2-2.51,2.66-4"/><path class="cls-4" d="M44.23,328.24c4.73.27,9.36-1.45,14-1.23,1,1.4.19,5.63.2,7.34a65.49,65.49,0,0,1-.14,6.73c-.58,4.95-2,10.41-1.46,15.59.32,3.24-.09,8.6,2.93,10.52,2,1.28,3.53,2,5.33,3.82a18.39,18.39,0,0,0,4.59,3.61c-4.4,3.61-8.28.54-13.45-1.14-1.68-.55-3.95-2.06-5.61-2.22-2.71-.27-2.6,3.38-4.93,3.86C43.84,373,44,373.66,44.76,371a19.09,19.09,0,0,0,.53-4.68c.12-4.6-.63-9.19,0-13.69,1.12-7.61,0-16.33-.51-24.17"/><path class="cls-3" d="M71.44,0c-.47.8-3.58.86-4.59,1a10.3,10.3,0,0,1-2.3.34c-.93,0-1.58-.52-2.57-.29a15.17,15.17,0,0,0-.33,5.38,10.22,10.22,0,0,0,4.87.74c1.66,0,3.11.55,4.87.29A11.49,11.49,0,0,0,72.1.72"/><path class="cls-3" d="M26,6.35c.24,0,.34,0,.28.24a31.14,31.14,0,0,1-4.54,2.93c-2.4,1.22-5.2,1-7.57,2-2.2.9.23,3.37,1.08,4.8.61,1,1.38,3.95,2.86,4.16,1.06.14,3.51-2.47,4.6-3,2-1,4-1.89,5.9-2.83.84-.42,2-.56,2-1.73,0-.71-1.06-2.35-1.42-3.07C28.6,8.51,27.21,6.4,25.7,7"/><path class="cls-3" d="M88.85,122.13l.27.22c.23-4.36,2.81-8.49,4.31-12.6,2.66-7.25,3.3-14.57,4.61-22.09.37-2.1.72-4.34,1-6.49.3-2.43.1-4.9.39-7.32.45-3.78,0-7.69.24-11.54.31-5.63,1-11.43,1.67-17,.3-2.39,0-4.87.3-7.25a14.18,14.18,0,0,0,.35-4.42c-.29-1.56-1.57-2.63-2.4-3.95a99.24,99.24,0,0,0-8.21-11.14C86.71,13,81.7,6.92,76,2.48c-1.06-.83-3.42-3-4.82-2.38C70.35,1.82,69,5.92,69.79,7.94c.41,1.09,2.19,1.87,3,2.71A52.25,52.25,0,0,1,77,16.13a44.74,44.74,0,0,1,4.57,6.81c1.18,2.47,2.38,5,3.67,7.41,2.19,4.21,4.59,8.27,6.65,12.56a19.13,19.13,0,0,1,1.49,3.51c.4,1.7-.17,3.45-.26,5.13a144.65,144.65,0,0,1-2,17.17c-1,5.72-2.48,11.46-2.62,17.27-.11,4.42-.89,8.85-1.3,13.24-.22,2.37-.6,4.78-1,7.11-.24,1.37-.4,2.78-.67,4.16-.18,1-.54,2.09-.65,3.06-.17,1.58-.64,3.53-.24,5.14s1.86,3.11,2.22,4.8"/><path class="cls-3" d="M87.49,159.25a90.4,90.4,0,0,1-.08-9.46c0-6.58-.76-13.14.08-19.69.72-5.57,3.49-11.69.31-17-1.59-2.68-3.29-3.68-6.08-5-1.59-.75-3.28-1.23-4.92-1.88-1.3-.52-2.49-1.5-3.84-1.88a48.23,48.23,0,0,1-.07-7.51c0-.44-.37-10.72-.56-11.11-.46-1-.13,8.73-1,8.37a21.51,21.51,0,0,1-3.54-1.88c-2.76-1.79-5.61-3.75-8.32-5.5-1.37-.9-4.39-3.32-6.13-2.7a3.15,3.15,0,0,0-.08.71c-.27,0-.42.1-.42.36.81,1,.87,2.57,1.22,3.8a21.15,21.15,0,0,1,1.19,4.92c.09,2.83.18,5.7-2.76,6.82a31.17,31.17,0,0,1-6,1.44c.24,1.24.43,2.46.56,3.59.58,5.07.69,11.47-2.44,15.75a41.74,41.74,0,0,0-.85,6.79c-.3,2.71-1.08,5.46-1.08,8.5v17c0,1.63,0,3.27,0,4.9,0-.07-.1-.14-.15-.21a17.24,17.24,0,0,1,.06,3.59h0a4,4,0,0,1,.09-1c0,2.86,0,5.72,0,8.57-.07,3.55-.8,7.11-.79,10.65,0,1.38,0,2.75,0,4.13s-.63,2.72-.33,4.1c1.72.38,3.33.56,5.06.81s3,1.06,4.71,1.14c1.9.1,3.89-.58,5.74-.84a44.48,44.48,0,0,1,6.38-.66c8.22,0,16,3.38,24.28,2.2,1.39-2.79,1-7.11,1.26-10.27a83.7,83.7,0,0,0,.38-10.88C89.25,166.25,87.87,162.8,87.49,159.25Z"/><path class="cls-5" d="M52.69,100.29a6.86,6.86,0,0,1,1.11,2.6,13,13,0,0,1,.5,4.49c0,1.53.05,3.06.06,4.59,0,1,.29,1.93.37,3a10.89,10.89,0,0,1-1.38,6.85,11.53,11.53,0,0,1-4.52,3.64,8,8,0,0,1-1.78.78,14.54,14.54,0,0,1-2.29.19,6.2,6.2,0,0,1-2.21.16c-.7-.17-1.42-.73-1.92,0a9.88,9.88,0,0,0-.76,2.69c-.31,1.14-.43,2.4-.63,3.58a40.92,40.92,0,0,0-.4,7.11c0,4.4,0,8.81,0,13.22,0,6.28.6,12.63.71,18.92,0,2,.19,4.08.19,6.14,0,.56-.3,2.19,0,2.61s.83.13,1.19.22.58.28.92.33c1.07.13,1.61-.74,2.47-1.15s2.28-.06,3.3,0c2.15.19,4.23.43,6.35.79s4.1.71,6.15.89c2.27.2,4.63,0,6.91,0,2.63,0,5.21-.16,7.81-.38,1.82-.16,3.74.27,5.55,0,2.19-.31,4.46-.65,6.71-.77a37.07,37.07,0,0,1,4.06-.35,14.57,14.57,0,0,1-.47-4.68c0-1.89.18-3.7.18-5.58,0-3.67-.83-7-1.26-10.49-.1-.89-.11-1.88-.17-2.75s-.16-1.65-.18-2.47c0-1.84,0-3.72-.22-5.55a58.21,58.21,0,0,1-.13-6.35c0-2.4.35-4.68.35-7.08a16.56,16.56,0,0,0-.17-3.54c-.14-.61-.65-.85-1.08-1.3a16,16,0,0,1-1.39-1.88,12.66,12.66,0,0,1-2.18-7.26c0-1.42-.18-2.76-.18-4.2a33.81,33.81,0,0,0-.17-4.18,19.77,19.77,0,0,0-.4-3.7,1.27,1.27,0,0,0-.85-1c-.47-.2-1.19,0-1.61-.3a5.75,5.75,0,0,0-.18,2.17,17.6,17.6,0,0,1-.32,2.42c-.19,1.69-.27,3.34-.44,5-.42,4.19-3.47,6-7.1,6.41a6.08,6.08,0,0,1-2.17,0,4.83,4.83,0,0,1-1.53-.37c-.55-.33-1-.78-1.52-1.08A10.48,10.48,0,0,1,64.12,119,31.53,31.53,0,0,1,61,113c-.68-1.74-.87-3.53-1.43-5.27-.46-1.45-1.07-3-1.52-4.32a19.85,19.85,0,0,0-1.16-3.49c-.42-.76-1.63-2.3-2.64-1.88a8.89,8.89,0,0,0-2.64,2.4,1.55,1.55,0,0,1,1.93.58"/><path class="cls-4" d="M27.49,14.94c-.26-1.26-1.43-3.15-1.78-4.81a10.8,10.8,0,0,1-.44-3.49c.29-1.53,1-1.29,2.16-1.36,2-.11,4.17,0,6.12,0,1.3,0,4.34-.63,5.42.29,2.17,1.81-1.26,9.18-3.35,10.07-1.35.58-4.07-.16-5.53-.17s-3.51.31-3.19-1.84"/><path class="cls-4" d="M62.46.55c-.87,1.17-4.26.63-5.81.82-.52,1.33,1.44,6.26,2.57,7.24s1.79,0,3.24-.4c1.19-.28,3.32-.41,4.18-1.23-2.32-.06-2.08-5.69-3.78-6.43"/><path class="cls-3" d="M44.52,120.76c.28.22.3.26,0,.12a15.29,15.29,0,0,1-2.1-1.84,33.64,33.64,0,0,1-3-2.41c-.74-.8-1.43-1.75-2.1-2.61-1.69-2.14-3.73-3.89-5.26-6.17-4.59-6.85-9.28-13.8-13.41-21-1.63-2.83-3-6-4.8-8.62a43.23,43.23,0,0,1-2.66-3.79C9.51,71.15,7,68.27,4.86,65.2c-1.4-2-4-4.45-4.75-6.78a14.52,14.52,0,0,1,.06-3.76,93.94,93.94,0,0,1,2-9.91C3,40.8,4,36.93,4.8,33s2.44-7.5,3.79-11.27A35.18,35.18,0,0,1,11,16.58c.69-1.26,2.24-3,2.35-4.5.95,0,2,1.15,2.88,1.68,1.22.75,2.42,1.25,3.63,2,2.53,1.53-1.21,5.41-1.89,7.53-1.12,3.51-2.51,7-3.37,10.69s-1.49,7.53-2.31,11.29a24.16,24.16,0,0,0-.9,4.86c0,1.31,1.11,2.06,1.8,3.16,2.22,3.52,3.93,7,6.73,10.2,3.54,4,6.12,8.74,9.38,13,1.4,1.82,3.11,3.31,4.53,5.14a50.5,50.5,0,0,1,3.5,5.56c2,3.32,4.24,6.46,6.09,9.89a60.89,60.89,0,0,0,3.93,6.3,9.77,9.77,0,0,1,2,6.45,52.17,52.17,0,0,1-.7,7.14c-2.11.14-2.3,4.07-3,5.48a.78.78,0,0,1-.6.06"/><path class="cls-4" d="M45.51,57.11c-1.63-.06-3.44,2.67-3.89,4.13a14,14,0,0,1-1.42,3.5c-.4.66-3.24,3.63-2.6,4.25.51-.22,2.86-1.86,2.88-.75,0,.45-.94,1.09-1.18,1.51a1.76,1.76,0,0,0-.22,1.55A4.29,4.29,0,0,1,39.57,73c0,1.55-.2,3.07,0,4.62.09,1-.05,3.55.73,4.24,1.12-.63,1.14-3,2-4,.63.8,1.64,4,2.52,4.15-.33-1-.75-1.47,0-2.44-.09.83,1,2.18,1.43,2.91a26.15,26.15,0,0,0,1.92,2.65A23.72,23.72,0,0,0,50,87.8c.89.92,2.22,1.62,3,2.62.26-.39.11-1,.24-1.53.07-.23.33-.63.36-.83,0-.46-.25-.63-.41-1.09a7.72,7.72,0,0,1-.06-.83c-.1-.33-.34-.61-.47-.93-.32-.69-.51-1.3-.9-2a30.13,30.13,0,0,1-2.13-4.63A28.28,28.28,0,0,1,48,73.94a24,24,0,0,1,0-4.48A22.08,22.08,0,0,1,48.14,65c.69-3.15,1.17-5.89,3.63-8.38a53.31,53.31,0,0,1,6.16-5.24c.86-.63,1.94-1.12,1.35-2.24S57.64,47.31,57,46.3c-1.35.47-1.08,1.6-1.29,2.59-.52-.63-.79-1.5-1.27-2.15-.95.15-.39,1.41-.78,1.94-.53.7-1-.5-1.71-.31a4.27,4.27,0,0,0,.21,1.3,6.44,6.44,0,0,0-1.2,1c-.55.42-1.12.78-1.67,1.18a17.76,17.76,0,0,0-2.79,2.4c-.61.69-3.51,3.66-2.71,4.5"/><path class="cls-2" d="M63.23,50.41c-.19-.79-1.28-.31-1.82-.15-.78.23-1.67,0-2.33.43-.45-.37-.3-1.06-.41-1.56s-.32-1.25-.46-1.89a12.32,12.32,0,0,1-.05-5.2c.58-2.39,1.78-5.81,4.36-6.89a24.34,24.34,0,0,1,.82,7.65c0,1.41-.23,2.9-.18,4.31s-.42,2.69,1.23,2.67,3.41-.18,5.11-.24c1.86-.06,3.71-.12,5.54-.1s3.82.11,5.77,0c2.2-.1,4.41-.25,6.61-.36,1.68-.09,3.25-.49,4.9-.67s3.1-.2,4.64-.32c2.21-.17,4.5-.4,6.72-.44a31.34,31.34,0,0,1,3.6-.13c-1.45.06-2.9,1.91-3.16,3.22a3,3,0,0,0,2.15,3.79,5,5,0,0,0,4.25-.95c1.13-.9.78-3.72-.67-4a4.69,4.69,0,0,1,2,3.79c.1,1.41-1,2.12-1.93,3-1.41,1.34-2.81,2.73-4.11,4.22A44.54,44.54,0,0,1,101.69,65c-1.75,1.51-3.16,3.37-4.88,5a54.7,54.7,0,0,0-8.67,9.83,98,98,0,0,1-8.3,10.13,24.13,24.13,0,0,1-2.77,2.94c-.79.63-1.35.16-2.19,0-2.23-.29-4.51.08-6.72-.11a25,25,0,0,1-7-2.09,19.52,19.52,0,0,1-5.48-3.22,23.79,23.79,0,0,1-2.16-1.92,36.24,36.24,0,0,1-2.23-3.27c-2.39-3.29-4.27-8-4-12.28a41.09,41.09,0,0,1,3-13.2A14.36,14.36,0,0,1,53.68,52,12,12,0,0,0,55,50.64c.32-.38,1.35-.87,1.42-1.24a1.78,1.78,0,0,0-.49.66"/><path class="cls-2" d="M48.52,60.6a34.11,34.11,0,0,0-1.8-3.25,47.43,47.43,0,0,1-3.25-4.67,38,38,0,0,1-2.15-4.28c-.26-.62-.48-1.34-.69-1.92-.12-.34-.45-.82-.41-1.18.17-1.19,2.39-.19,3.19,0,2.41.51,4.55.94,6.46,2.55a18.94,18.94,0,0,1,5.28,7.21c-1.15,1.3-2.13,2.79-3.36,4-.46.47-2.06,2.27-2.68,1.82"/><path class="cls-4" d="M59.56,70.33c.81-1.68,2.57-3.07,4.46-2.22s2.34,2.88,1.32,4.72-2.68,1.92-4.26.6a5.09,5.09,0,0,1-1.45-2.3,6.77,6.77,0,0,1,.22-2.23"/><path class="cls-2" d="M51.17,77.07c.18.72.92,1.21-.36,1.64a3,3,0,0,1-.41-1.19c.07-.56.67-.54.93-.12s.11,1.45-.42.88.37-.81.4-.57-1.68,1.2-2,1.37c-.73.42-1.48.82-2.24,1.18s-1.4.81-2,.32a1.87,1.87,0,0,1-.43-2c.58,2.54,4.75-1.83,6.13-.51a.34.34,0,0,1-.26.18"/><path class="cls-4" d="M50.5,77.89c-.35-.24,0-.82.36-.73a1.1,1.1,0,0,1,.64,1c0,.27-.22.91-.58.82s-.52-1-.14-1.25"/><path class="cls-4" d="M103.18,50.56c-.36.46-.49.55-.28,1.08a5.51,5.51,0,0,0,.71,1.28,1.56,1.56,0,0,0,2.27-.13c1.37-1.4-1.49-3.25-2.74-2.34a1.65,1.65,0,0,0,.23.46"/><path class="cls-4" d="M107.9,48c.14,0,.15,0,0,0-.79-.28-.43,1.3-.29,1.64.28.71.89,1.09,1.57.67,1.4-.85,0-3.36-1.29-2.6a.37.37,0,0,0,.1.23"/><path class="cls-4" d="M110.79,52.82l.21.1c-1,.66-1.9,2-2.88,2.75A63.71,63.71,0,0,1,102,60c-2,1.25-4,2.59-6,3.74-1.29.73-2.84,2.08-4.29,2.18-.79-1.06-.74-1.51.42-1.5a6.07,6.07,0,0,0,3-1.22c2-1.18,4.09-2.11,6.15-3.3s4-2.1,5.87-3.4a19.44,19.44,0,0,0,2.31-2.13c.29-.28.52-.65.79-.91s1.13-.47,1.15-1"/><path class="cls-3" d="M242.72,152.12a73.91,73.91,0,0,1-.09-8.81c0-6.12-.8-12.22.09-18.32.76-5.18,3.7-10.88.33-15.87-1.69-2.49-3.49-3.42-6.45-4.67-1.68-.7-3.48-1.15-5.22-1.75-1.37-.48-2.64-1.4-4.07-1.74a38.83,38.83,0,0,1-.07-7c0-.42-2.47-14.33-2.67-14.68-.49-.91-8.7,6.89-11.58,5.26-1.45-.84-4.65-3.09-6.5-2.52a2.78,2.78,0,0,0-.08.66c-.29,0-.45.09-.45.33.86.94.93,2.4,1.29,3.54a17.06,17.06,0,0,1,1.27,4.59c.09,2.63.19,5.3-2.93,6.34a36.31,36.31,0,0,1-6.35,1.34c.26,1.16.46,2.29.59,3.35.62,4.71.74,10.66-2.59,14.64a34.84,34.84,0,0,0-.89,6.33c-.32,2.52-1.15,5.08-1.15,7.91v15.78c0,1.53,0,3,0,4.57a1.46,1.46,0,0,0-.16-.21,13.92,13.92,0,0,1,.06,3.35h0a3.38,3.38,0,0,1,.1-.88c0,2.66,0,5.32,0,8-.08,3.3-.85,6.61-.84,9.9,0,1.28,0,2.56,0,3.84s-.66,2.54-.35,3.82c1.82.36,3.53.52,5.37.76s3.21,1,5,1.06c2,.09,4.13-.55,6.09-.78a53.38,53.38,0,0,1,6.77-.62c8.71,0,17,3.14,25.74,2.05,1.47-2.6,1-6.62,1.35-9.56a69.53,69.53,0,0,0,.39-10.12C244.58,158.64,243.12,155.43,242.72,152.12Z"/><path class="cls-4" d="M205.82,97.25A6.29,6.29,0,0,1,207,99.67a10.89,10.89,0,0,1,.52,4.17c0,1.43,0,2.86.06,4.28,0,1,.31,1.8.4,2.74a9.17,9.17,0,0,1-1.46,6.38,12.1,12.1,0,0,1-4.8,3.38,8.89,8.89,0,0,1-1.89.73,19.27,19.27,0,0,1-2.42.18,7.27,7.27,0,0,1-2.35.15c-.74-.16-1.5-.68-2,0a8.56,8.56,0,0,0-.8,2.51,33.83,33.83,0,0,0-.67,3.33,33.1,33.1,0,0,0-.42,6.62c0,4.1,0,8.2,0,12.3,0,5.85.63,11.75.75,17.61,0,1.9.2,3.79.2,5.71,0,.53-.32,2,0,2.43s.88.13,1.26.2a7.7,7.7,0,0,0,1,.31c1.12.13,1.69-.69,2.61-1.06s2.42-.06,3.5,0c2.28.18,4.49.4,6.74.74s4.35.66,6.52.82c2.41.2,4.91,0,7.32,0,2.79,0,5.53-.14,8.29-.35,1.93-.14,4,.25,5.88,0,2.33-.29,4.74-.61,7.11-.72,1.46-.06,2.86-.4,4.31-.32a12,12,0,0,1-.49-4.35c0-1.76.19-3.45.19-5.2,0-3.41-.88-6.5-1.33-9.76-.12-.83-.12-1.75-.19-2.56s-.17-1.54-.19-2.3c-.05-1.72,0-3.46-.23-5.17a46.22,46.22,0,0,1-.15-5.9c0-2.24.38-4.36.38-6.59a13.81,13.81,0,0,0-.18-3.3c-.15-.57-.7-.79-1.15-1.21a13.41,13.41,0,0,1-1.46-1.75,10.7,10.7,0,0,1-2.32-6.76c0-1.31-.19-2.56-.19-3.91a26.34,26.34,0,0,0-.19-3.89,16.42,16.42,0,0,0-.42-3.43,1.26,1.26,0,0,0-.9-.91c-.5-.19-1.26,0-1.71-.27a4.48,4.48,0,0,0-.18,2,16.72,16.72,0,0,1-.34,2.25c-.21,1.58-.29,3.11-.46,4.66-.45,3.9-3.7,5.55-7.54,6a7.38,7.38,0,0,1-2.3,0,5.39,5.39,0,0,1-1.63-.34c-.58-.31-1-.73-1.61-1a10.52,10.52,0,0,1-4.11-3.47,28.82,28.82,0,0,1-3.26-5.55c-.72-1.62-.92-3.28-1.51-4.91-.5-1.34-1.14-2.75-1.62-4a16.58,16.58,0,0,0-1.23-3.25c-.44-.7-1.72-2.14-2.8-1.75a9.3,9.3,0,0,0-2.8,2.24,1.79,1.79,0,0,1,2,.54"/><path class="cls-4" d="M158.19,186.28c.48,1.55,2.3,3.81,2.95,5.86.4,1.28,1.1,3,.92,4.32-.27,1.94-1.32,1.7-3,1.88-2.8.3-5.92.39-8.7.51-1.85.07-6.13,1.13-7.75.08-3.24-2.08,1-11.57,3.9-12.86,1.88-.83,5.82-.12,7.9-.24s5-.68,4.7,2"/><path class="cls-2" d="M193.93,191.64c.5,5.2,0,20.89,3.74,17.32s12,1.09,16.61,5.71c1,1,1.46,3.05,2.55,3.69.86.51,3.31-.05,4.31-.05,2.93,0,6.34,1.29,9.08.61.47-3.78,3-7.18,5.62-9.21,3.48-2.71,4.91-1.83,8.48-.94.54-5.14.09-10.74.09-15.94s-1.32-9.65-.69-14.43c-2,0-3.92-.86-6-.86-1.81,0-3.62,0-5.43,0-5,0-24.14,3.11-25.9,3.38-1.48.23-11.49-3.3-12.45-4.38C193.9,176.54,193.72,189.45,193.93,191.64Z"/><path class="cls-6" d="M203.79,180.41c-1.26-.35-2.81-.85-4.32-1.39,0,1.55-.14,3.09-.2,4.63-.14,4.06-.35,8.11-.53,12.16s-.31,8.31-.25,12.47a7,7,0,0,1,5.45-.17C203.65,198.89,204.51,189.62,203.79,180.41Z"/><path class="cls-6" d="M213.74,179.72l-4.27.66c0,2.5-.2,5-.25,7.52-.09,4.26.09,8.54.4,12.79.27,3.65.65,7.28,1.07,10.92a28.2,28.2,0,0,1,3.56,3c1,1,1.43,2.9,2.44,3.61C215.05,205.47,215.31,192.5,213.74,179.72Z"/><path class="cls-6" d="M228.69,196.8a51.17,51.17,0,0,1-1.95-11.62c-.05-2.42,0-4.84,0-7.25-2.22.25-4.77.59-7.31.95.16,3.85.1,7.7.26,11.56a82.59,82.59,0,0,0,2.31,15.29,112.12,112.12,0,0,0,3.9,13.12,11.15,11.15,0,0,0,4.23,0,13.49,13.49,0,0,1,2.95-6.53C231.66,207.16,230,202,228.69,196.8Z"/><path class="cls-6" d="M237.67,177.5h-5.55c2.67,10.38,3,21.15,4.23,31.78a5.85,5.85,0,0,1,4.36-1.37C240.42,197.7,239.85,187.5,237.67,177.5Z"/><path class="cls-3" d="M205.7,111.69c-2.87,5.12-11.1,7.26-15.83,10.91-5.27,4.07-28.28,17.09-32.08,21.14.45,3.5,19.38,18.88,20.78,23.32s2,6.39-.36,11c-1.92,3.87-8.42,18.36-11.48,18.62-2.65.22-5.14-2.46-6.71-4.18-2-2.2-3.05-7.17-3.05-7.17s13-10.08,12.17-13.13c-.6-2.16-19.53-23.63-22.14-25.8-2.27-1.89,2-9.59,3.93-11.08,1-.76,4.2-3.13,8.2-6,6.75-4.9,15.72-11.37,19.9-14.44,3-2.16,10.69-21.69,18.87-16.68C197.9,98.18,209.15,105.52,205.7,111.69Z"/><path class="cls-3" d="M243.79,130c-3.09-4.53-5.22-15-4.4-21.44.34-2.58,2.61-1.58,3.17-4.24.81-3.93,1.08-8,1.89-12,1.29-6.3,2.79-13.3,4.15-19.72.9-4.27,1.49-8.67,2-12.94.21-1.8,3.16-18.47,3.16-18.47s-16.61-11.54-18.57-12.58c-2.52-1.34-7,2.8-9.71,3.43-3.58.83-5.67,1.55-8.49-.95-1.21-1.06-3.48-6.81-3.48-6.81L235,18l7.61,2.38,14.74,8s8.26,6.55,8,10.9c-.28,5-13.36,62.42-14.74,69.5C249.28,115.42,243.67,132.24,243.79,130Z"/><path class="cls-3" d="M173.36,105.73c.1-.29.43-.46.68-.62a7,7,0,0,1,2-.83,3.24,3.24,0,0,1,2.79.48,5.51,5.51,0,0,1,1.44,6.08,3.83,3.83,0,0,1-2.51,2.52,5.46,5.46,0,0,1-1.93-.12,7.68,7.68,0,0,1-1.92-.45,12,12,0,0,1-1.84-1.08,2.52,2.52,0,0,1-.85-2.11,5,5,0,0,1,.08-1.4,9.83,9.83,0,0,1,.67-1.73,5.19,5.19,0,0,1,1.62-1.81,10.28,10.28,0,0,1,1.63-.9,3.9,3.9,0,0,1,1.26-.47"/><path class="cls-4" d="M186,60.86c1.48.85,2.54-4.07,3.09-5.37a15.51,15.51,0,0,1,3.57-5.2c3-3.06,6.39-6.5,10.88-7.16a19,19,0,0,1,7.31.91c1.92.61,4.31,3,6.16,3.28,2.26.3,2.11-1.73,4.21-3,2.8-1.68,7.65-3.25,10.94-3.12,11.46.44,21,7.29,27.75,15.6,3.83,4.69,5.08,10.08,6.52,15.5,1.74,6.61,3.23,16.4,7.92,22,3.47,4.1,11.54,6.78,16.71,8.91-4.36-.13-7.47.11-11.48-1.66a34.26,34.26,0,0,1-12.22-9.71c-4.78-5.69-9.52-12.06-14.92-17.4-4.28-4.23-8.05-7.71-13.78-9.37-6.48-1.88-11-3.91-15.66-8.73-.49,2.11,1.55,4.37,2.14,6.33a39.5,39.5,0,0,1,1.15,7.76c.24,2.49,1,4.78,1.29,7.15.39,2.87-1.19,4.44-3.28,6.34,1-7.32-4.86-15.89-10.87-20.19-3.62-2.6-6.57-2.93-11.19-3.46s-8.94,1-13.54.56c-1.46-3.74,3.75-3.1,4.45-4.7"/><path class="cls-2" d="M184.11,68.35c-.73-.33,0-1.25.26-1.71.4-.69.33-1.57.95-2.08-.26-.49-1-.5-1.45-.7s-1.17-.54-1.77-.8A13.43,13.43,0,0,0,177,62c-2.49.06-6.16.48-7.8,2.67a26.93,26.93,0,0,0,7.39,2.3c1.41.26,2.93.36,4.32.69s2.76.16,2.37,1.69-.95,3.11-1.38,4.68-.95,3.42-1.35,5.12-.74,3.56-1.27,5.35c-.59,2-1.23,4-1.84,6.06-.46,1.53-1.22,2.91-1.75,4.4s-.91,2.83-1.37,4.24c-.66,2-1.41,4.1-1.94,6.15a28.45,28.45,0,0,0-.94,3.31c.39-1.33,2.54-2.3,3.9-2.28,1.82,0,3.24,1,3.28,2.76a4.69,4.69,0,0,1-1.9,3.74c-1.14.87-3.86,0-3.79-1.41a4.65,4.65,0,0,0,3.3,2.62c1.38.37,2.32-.47,3.45-1.18,1.65-1,3.34-2.06,5.1-3a45.08,45.08,0,0,0,5.22-3c1.89-1.32,4.05-2.25,6-3.53a58.64,58.64,0,0,1,11.69-6.06,103.74,103.74,0,0,0,11.91-5.65,25.36,25.36,0,0,0,3.53-2c.81-.6.46-1.22.54-2,.21-2.12,1.09-4.16,1.4-6.25a23.06,23.06,0,0,0-.49-6.93,18,18,0,0,0-2-5.73,21.51,21.51,0,0,0-1.42-2.39,37.15,37.15,0,0,0-2.74-2.73,20.35,20.35,0,0,0-11.29-6.13,44.49,44.49,0,0,0-13.77.14,15.22,15.22,0,0,0-5.56,2.12,14.11,14.11,0,0,1-1.59.91c-.45.22-1.16,1.07-1.55,1.07a1.88,1.88,0,0,1,.77-.32"/><path class="cls-2" d="M197.51,56.76a33.54,33.54,0,0,1-2.82-2.33,46.83,46.83,0,0,0-3.9-4A39.8,39.8,0,0,0,187,47.63c-.56-.37-1.23-.71-1.75-1-.31-.18-.72-.58-1.08-.61-1.22-.08-.72,2.18-.73,2.95,0,2.34-.08,4.41,1.07,6.51a18.56,18.56,0,0,0,6,6.35c1.55-.81,3.24-1.41,4.75-2.31.57-.34,2.71-1.46,2.4-2.12"/><path class="cls-4" d="M204.68,69c-1.85.41-3.61,1.77-3.2,3.69s2.33,2.75,4.39,2.18,2.5-2.11,1.55-3.84a5,5,0,0,0-2-1.81,7.4,7.4,0,0,0-2.26-.24"/><path class="cls-2" d="M213.24,62.54c.67.31,1,1.09,1.71,0,.05-.09-.92-.61-1.09-.63-.57,0-.68.51-.33.84s1.41.4,1-.21-.88.18-.66.26,1.58-1.32,1.8-1.55c.59-.6,1.15-1.21,1.68-1.84s1.12-1.14.77-1.8a2,2,0,0,0-1.87-.79c2.38,1-2.88,4-1.88,5.58a.37.37,0,0,0,.24-.2"/><path class="cls-4" d="M214.21,62.08c-.16-.37-.81-.19-.81.19s.48.72.83.79,1,0,.94-.37-.92-.7-1.2-.39"/><path class="cls-4" d="M175.3,105.42c.54-.23.66-.34,1.14,0a5.14,5.14,0,0,1,1.11.91c.57.67.09,1.66-.64,2.08-1.7,1-2.88-2-1.7-3a1.53,1.53,0,0,1,.4.31"/><path class="cls-4" d="M171.7,109.28c0,.14,0,.15,0,0-.1-.78,1.38-.13,1.69.07.64.4.88,1,.31,1.59-1.16,1.11-3.33-.67-2.29-1.73a.39.39,0,0,1,.21.14"/><path class="cls-4" d="M175.84,112.94l0,.22a38,38,0,0,1,3.38-2.13,65.43,65.43,0,0,0,5.69-4.81c1.67-1.6,3.46-3.2,5-4.84,1-1,2.7-2.21,3.12-3.55-.87-.94-1.32-1-1.58.1a5.9,5.9,0,0,1-1.88,2.54c-1.63,1.65-3,3.37-4.65,5s-3,3.33-4.68,4.76a21.53,21.53,0,0,1-2.63,1.71c-.34.21-.77.35-1.09.55s-.71,1-1.23.87"/><path class="cls-4" d="M214.15,22.91c-1.4,1.65-6.85.89-9.34,1.16-.83,1.87,2.31,8.81,4.13,10.2s2.87-.07,5.21-.57c1.89-.39,5.31-.58,6.7-1.73-3.72-.08-3.35-8-6.08-9.06"/><path class="cls-3" d="M204.45,205c1.5.78,7.47,3.71,8.76,5,3.42,3.32,18,30.91,20,32.73a8.33,8.33,0,0,1,3,4.65c1.25,4.69-5.3,17.9-7.77,21.85-1.57,2.53-7.76,12.48-9,14.6-2.21,3.63-7.49,7.84-8.48,12.26-1.59.44-2.22-2.61-2.88-3.94-1-2-1.61-2.62-1-5,1-3.85,12.12-27,13.07-28.89.61-1.21,2.81-3.39,2.78-4.9s-8-10.64-9.55-13.27c-2.18-3.61-12.94-14.71-14.41-18.28-1.57-3.86-3.66-8.57-3.16-12.91C196.49,208.35,203.09,204.27,204.45,205Z"/><path class="cls-3" d="M230.15,215.37c1.82-4.81,2.82-6.68,7.1-9.06,2.82-1.57,5-.46,7.64,1.17,4.72,2.93,4.3,8.84,3.86,13.26-.55,5.56-.61,11.33-1.57,17.06-1.06,6.31-3.5,12.3-5.88,18.43-1.79,4.6-1.09,9.67-.89,14.35.25,5.67.28,11.44,0,17.1-.34,6.53-.68,12.91.09,19.44.47,3.94-.43,3.48-3.83,3.65-2,.1-4.16,1.28-5.43-1.09-.86-1.6-.28-5.31-.67-7.17a76.42,76.42,0,0,1-1.22-8.47c-.71-6.79-.51-13.77-.47-20.23,0-5.18.12-10.4.17-15.59,0-3.5-.28-6.94-.5-10.42-.32-5.35,2-10.33,2.18-15.61a41.54,41.54,0,0,0-.93-11.87A7.84,7.84,0,0,1,230.15,215.37Z"/><path class="cls-4" d="M241.46,299.05c-.63,1.79-4.37,2-5.7,2.22a55.83,55.83,0,0,1-5.89,1.12c-.64,2.15.18,4.95.73,6.84.71,2.46.67,4.86,1.11,7.39.48,2.8,1,5.24,1.32,8.14.24,2.17.59,4.53,1,6.6.23,1.06.2,2.78.64,3.57-1.16.34-5.14,14.32-6.17,14.15a49.57,49.57,0,0,0,8.27,1.28c2.77,0,2.54-9.26,5.37-8.9.71.09,1.2-.27,1.62.42s-.37,2.07,0,2.71c1,1.53,2.72-.54,3.87-.92.29-1.32-.37-3.64-.64-4.88a30.56,30.56,0,0,0-1.1-4.14c-1.43-4.15-1.78-8-2.29-12.54-.48-4.35-1.31-8.58-1.29-12.81a29.79,29.79,0,0,0-.28-6c-.3-1.46-1.14-2.71-1.38-4.24"/><path class="cls-4" d="M205.28,285.62c3.76,2.42,8.5,3.21,12.19,5.54.11,1.6-2.83,4.56-3.74,5.92a62.25,62.25,0,0,1-3.71,5.26c-3.1,3.66-7.19,7.32-9.51,11.67-1.45,2.71-4.65,6.77-3.19,9.7,1,1.93,1.87,3.2,2.36,5.51a16,16,0,0,0,1.85,5c-5.54.8-7.1-3.43-10.46-7.17-1.1-1.22-2.16-3.47-3.44-4.38-2.1-1.48-3.94,1.47-6.13.77-.37-2.58-.61-1.94,1.42-3.67a19.1,19.1,0,0,0,2.93-3.46c2.55-3.6,4.38-7.58,7.32-10.84,5-5.51,8.69-12.93,12.46-19.39"/><path class="cls-7" d="M199.17,153l-3.59-7.05a23.37,23.37,0,0,1,3.07-1.4,2.76,2.76,0,0,1,1,0,7.68,7.68,0,0,1,1.29.92,3.69,3.69,0,0,1,.29,1.11,1.4,1.4,0,0,1-.38,1.24,8.34,8.34,0,0,1-2,1.41l1.42,3.14Zm-1.91-6.49.65,1.13.32.56s.62-.24.75-.31a7.27,7.27,0,0,0,.78-.47s.25-.71.25-.71-.06-.85-.29-.94a1,1,0,0,0-.59,0l-.77.23Z"/><path class="cls-7" d="M201.25,143.78s1.15-.28,1.22-.27.58,2.15.58,2.15l.41,1.54s.4,1.54.42,1.63a9.42,9.42,0,0,0,1.66-.25,6.93,6.93,0,0,1,1.07-.16l.24.11.21.82-2.7.61c-.21,0-1.39.35-1.39.35s-.12-.46-.13-.48l-.09-.19Z"/><path class="cls-7" d="M205.61,142.7l.68-.24a2.53,2.53,0,0,0,.45-.19s1.39,4.73,1.46,4.79a1.58,1.58,0,0,0,1.17.5.75.75,0,0,0,.54-.32,1,1,0,0,0,.09-.19,4.64,4.64,0,0,0-.07-.82c-.05-.14-.92-3.6-.92-3.6l-.3-.87,1-.32s1.45,4.51,1.49,4.71a4.88,4.88,0,0,1,0,1.32,3.4,3.4,0,0,1-.72.91,6.64,6.64,0,0,1-1.21.54,2,2,0,0,1-1.11,0,1.33,1.33,0,0,1-.57-.37l-.3-.51Z"/><path class="cls-7" d="M212.13,145.58a.2.2,0,0,0,0,.15c0,.1,0,.68,0,.75s0,.18,0,.18a3.54,3.54,0,0,0,1,.52,7.14,7.14,0,0,0,2-.05l.73-.33a2.26,2.26,0,0,0,.61-1.07c.08-.54,0-1.54-.43-1.82l-.62-.38a2.5,2.5,0,0,0-1.21-.27,8.08,8.08,0,0,0-1.33.15s-.29-.66-.29-.66a.74.74,0,0,1,.26-.42,7,7,0,0,1,1.2-.24,2,2,0,0,1,.37,0l1.63.65.37-.84a3.86,3.86,0,0,0-2.27-1,7.56,7.56,0,0,0-1.45.3,1.87,1.87,0,0,0-1.24,1.39c-.17,1,.11,1.24.12,1.26a3.16,3.16,0,0,0,.77.54c.26.06.88.21.91.2a1.77,1.77,0,0,1,1,0,1.62,1.62,0,0,1,.59.42,1.2,1.2,0,0,1,.12.55.93.93,0,0,1-.18.35,2.22,2.22,0,0,1-.73.05l-1-.17Z"/><path class="cls-7" d="M220.86,139.83a2.71,2.71,0,0,1,1.21,1.77c0,.26-.19,2.08-.19,2.08s-.42,1.36-.46,1.42-.9,1.15-1.37.8a3.59,3.59,0,0,1-1.1-2.18,7.78,7.78,0,0,1-.09-1.44c0-.2.12-1,.13-1.23a6.11,6.11,0,0,1,.67-1.23A1.28,1.28,0,0,1,220.86,139.83Zm-1.81-1.41a1.14,1.14,0,0,0-.48.34,5.92,5.92,0,0,0-.84,3.27,13.06,13.06,0,0,0,1,4.09,3.78,3.78,0,0,0,1.52,1.07,2,2,0,0,0,.9-.17c.06,0,1.1-.86,1.1-.86l1.72,2.21,1.22-1.8,0-.23L223.33,145a18.58,18.58,0,0,0,.35-4,3.58,3.58,0,0,0-1.16-2.25,4.22,4.22,0,0,0-1.85-.52A4.28,4.28,0,0,0,219.05,138.42Z"/><path class="cls-7" d="M225.28,138.52s.05-.44.13-.46a2.69,2.69,0,0,1,.62,0,5.66,5.66,0,0,1,.31.67s-.39,1.78-.4,1.87,0,.29,0,.29l-.41.71-.43-.15Z"/><polygon class="cls-7" points="230.68 141.67 229.29 148.85 227.76 148.33 229.25 141.3 230.68 141.67"/><polygon class="cls-7" points="233.3 142.71 234.63 142.98 233.32 148.43 236.3 148.93 235.94 150.36 231.83 149.06 233.3 142.71"/><polygon class="cls-7" points="236.94 150.74 237.03 150.75 240.83 152.25 241.41 151.14 238.32 150.22 238.73 149.17 240.81 150.03 241.38 148.69 239.26 147.9 239.78 146.61 242.83 147.47 243.1 146.59 238.97 144.87 236.94 150.74"/><polygon class="cls-7" points="229.16 139.96 230.56 139.49 231.24 140.54 231.79 139.98 230.76 138.64 228.94 139.46 229.16 139.96"/><path class="cls-7" d="M45.52,161.72,41,155.38a24,24,0,0,1,2.8-1.94,2.9,2.9,0,0,1,1-.21,7.48,7.48,0,0,1,1.39.68,3.8,3.8,0,0,1,.44,1.05,1.43,1.43,0,0,1-.2,1.29A8.13,8.13,0,0,1,44.64,158l1.83,2.86Zm-2.77-6.09.79,1,.39.5s.57-.35.69-.44a8.92,8.92,0,0,0,.68-.61c0-.05.16-.74.16-.74s-.19-.83-.42-.88a1,1,0,0,0-.58,0l-.72.37Z"/><path class="cls-7" d="M46.25,152.25s1.08-.48,1.15-.48.87,2,.87,2l.61,1.45s.62,1.46.64,1.55a9.41,9.41,0,0,0,1.59-.55,7.68,7.68,0,0,1,1-.35,1.6,1.6,0,0,0,.24.06l.32.78s-2.34,1-2.54,1.08-1.31.6-1.31.6-.17-.43-.19-.45a1.63,1.63,0,0,1-.11-.17S46.25,152.25,46.25,152.25Z"/><path class="cls-7" d="M50.34,150.4,51,150s.37-.22.4-.27,2,4.44,2.09,4.49a1.52,1.52,0,0,0,1.22.28.81.81,0,0,0,.48-.41,1.85,1.85,0,0,0,.06-.2,4.64,4.64,0,0,0-.19-.8c-.07-.13-1.4-3.41-1.4-3.41l-.41-.81.94-.49s2,4.2,2.11,4.39a4.69,4.69,0,0,1,.2,1.31,3.69,3.69,0,0,1-.57,1,8,8,0,0,1-1.1.75,2,2,0,0,1-1.08.15,1.13,1.13,0,0,1-.61-.26l-.37-.45Z"/><path class="cls-7" d="M57.1,152.09a.16.16,0,0,0,0,.16c0,.09.1.66.1.74s0,.18,0,.18a3.5,3.5,0,0,0,1,.34,6.88,6.88,0,0,0,2-.41l.65-.45a2.47,2.47,0,0,0,.46-1.18c0-.55-.21-1.53-.69-1.73l-.65-.26a2.42,2.42,0,0,0-1.21,0,7.93,7.93,0,0,0-1.28.39s-.38-.6-.38-.6a.81.81,0,0,1,.2-.47,7.5,7.5,0,0,1,1.14-.46,1.84,1.84,0,0,1,.35-.08l1.68.36.24-.9a3.6,3.6,0,0,0-2.35-.61,7.17,7.17,0,0,0-1.37.56,2,2,0,0,0-1,1.59c0,1.08.28,1.22.29,1.23a2.65,2.65,0,0,0,.83.4c.26,0,.88,0,.91,0a1.84,1.84,0,0,1,1-.16,1.46,1.46,0,0,1,.63.32,1,1,0,0,1,.19.52.89.89,0,0,1-.12.37,2.22,2.22,0,0,1-.71.19H58Z"/><path class="cls-7" d="M64.78,144.83a2.62,2.62,0,0,1,1.43,1.53c.06.26.11,2.1.11,2.1s-.22,1.42-.25,1.5-.72,1.29-1.22,1a3.46,3.46,0,0,1-1.38-2,7.07,7.07,0,0,1-.29-1.41c0-.19,0-1,0-1.24a6.7,6.7,0,0,1,.48-1.34A1.26,1.26,0,0,1,64.78,144.83Zm-2-1.08a1.23,1.23,0,0,0-.42.43,6.23,6.23,0,0,0-.36,3.39,13.17,13.17,0,0,0,1.58,3.87,3.75,3.75,0,0,0,1.63.79,2.07,2.07,0,0,0,.85-.33c.06,0,1-1.05,1-1.05l2,1.88.93-2-.06-.22-2-1a19.29,19.29,0,0,0-.23-4.05,3.45,3.45,0,0,0-1.45-2,4.11,4.11,0,0,0-1.87-.18A4.22,4.22,0,0,0,62.82,143.75Z"/><path class="cls-7" d="M68.9,142.74s0-.44,0-.48a3.28,3.28,0,0,1,.6-.15,5.31,5.31,0,0,1,.4.61s-.12,1.83-.13,1.92,0,.3,0,.3l-.29.77-.44-.08Z"/><polygon class="cls-7" points="74.6 144.9 74.26 152.26 72.69 152.02 73.15 144.78 74.6 144.9"/><polygon class="cls-7" points="77.29 145.46 78.62 145.49 78.12 151.13 81.09 151.08 80.94 152.57 76.75 152.02 77.29 145.46"/><polygon class="cls-7" points="81.97 152.77 82.06 152.76 85.96 153.56 86.38 152.37 83.24 152 83.49 150.89 85.64 151.37 86 149.94 83.83 149.54 84.15 148.16 87.24 148.47 87.38 147.54 83.12 146.59 81.97 152.77"/><polygon class="cls-7" points="72.88 143.47 74.17 142.76 74.98 143.67 75.44 143.02 74.25 141.88 72.59 143.02 72.88 143.47"/></g></g></svg>