<svg xmlns="http://www.w3.org/2000/svg" viewBox="0 0 211.6 353.78"><defs><style>.cls-1{fill:#007293;}.cls-2{fill:#1d1d1b;}.cls-3{fill:#e30613;}.cls-4{fill:#fff;}.cls-5{fill:#e63027;}</style></defs><g id="Ebene_2" data-name="Ebene 2"><g id="Ebene_1-2" data-name="Ebene 1"><path class="cls-1" d="M93.9,75.58c-2.36.57-4.43,1.91-6.7,2.75-2,.73-4,1.21-6,1.8a8.53,8.53,0,0,0-6.07,7.54c-.17,2-.09,5.86,2.68,5.89,1.38,0,2.69.39,4.07.44a20.87,20.87,0,0,0,5-.49c4.3-.91,8.09-3,11.86-5.2,1.92-1.1,3.77-2.35,5.63-3.54,1.61-1,3.29-2,5-2.94,1.37-.76,2.78-1.54,4.2-2.17a41.61,41.61,0,0,1,5.25-1.91c2.38-.71,4.78-.26,7-1.54,1.74-1,3.61-2.89,2.23-5-1-1.58-3.51-3.08-5-4.29-4.19-3.46-9.23-6-13.76-9-2-1.3-3.69-2.75-5.55-4.05-2.26-1.58-5.75-2.47-5.24-5.69s3.27-6,3.45-9.31c-1.75-1.6-3.61,2.26-4.08,3.66-.15-1.28-.57-3.58-2-3.92-.57,1.23-.21,3-.16,4.24-.93-1.77-4.94-3-3,.21.64,1.08,1.9,1.49,2.16,2.79.37,1.83-.58,4-.25,5.9.68,4,3.67,5.84,6.42,8.4,1.52,1.4,2.94,2.9,4.55,4.2,2.89,2.31,6.62,3.84,9.2,6.42-1.78-.41-2.68,0-4.34.43a51.84,51.84,0,0,0-6.93,2C100.49,74.49,97.09,74.8,93.9,75.58Z"/><path class="cls-1" d="M30.13,47.08a1.12,1.12,0,0,0,1.45-.47c-.76-13.74,12.86-27,26.33-27.61,5.31-.25,10.32-.18,14.81,2.63.34.19.66.19.94.33s.47.42.74.64c2.68,2.08,3.84,4.8,7,4.76,1.77,0,6.24-1.9,7.92-2.16A8.61,8.61,0,0,0,95,21.41a2.06,2.06,0,0,0,.17-2c-.14-.5-1-1.68-.63-2.14s1.48-.13,1.85.23c1.85,1.55,1.29,4.27.71,6.3a13.56,13.56,0,0,1-.93,3.12c-.28.43-.74.81-1.06,1.38s-.71,1.24-1.06,1.9a45.25,45.25,0,0,1-2.27,4.14c-.7,1-2,1.91-1.32,3.25.14.29,2.63,18.39,2.87,19.92.22,1.35,1,2.61,1.22,3.89s-1.33,2.45-2.26,3.21a15.62,15.62,0,0,1-3.43,1.81,50.67,50.67,0,0,1-4.91,1.81c-2.55.88-4.67,2.54-7.13,3.59C75,72.61,73,73,71.16,73.67a13.83,13.83,0,0,1-8.18.94,38,38,0,0,1-7.84-3.16c-.11-.06-.23-.1-.32-.14A70.52,70.52,0,0,1,39.18,60.73c-2.6-2.19-8-10.65-6.31-14.14"/><path class="cls-2" d="M68.28,35.19a1.29,1.29,0,0,1,1.88,1.13,1.49,1.49,0,0,1-1.53,1.39c-.55,0-1.55-.48-1.31-1.16A7.72,7.72,0,0,1,68.28,35.19Z"/><path class="cls-2" d="M78.6,28.19A1,1,0,0,1,78,29.75a1.13,1.13,0,0,1-1.25-1c-.07-.42.15-1.22.69-1.14A6.39,6.39,0,0,1,78.6,28.19Z"/><path class="cls-2" d="M63.38,34.21c-1.93.25-1.68,1.68-3.54,2,3.83,6.43,5.2,15.21,8.23,22.09-5.83-.27-5-4-8.65-8.29-3.89-4.59-5.09-2.08-6,2.63-1.68,8.64,9.33,14.42,9.81,22.22-1.91.13-5-1.93-6.85-2.59-3-1-6-1.47-8.89-2.28a41.88,41.88,0,0,1-14.12-6.73A15.18,15.18,0,0,1,28,56.65c-1.24-3,.26-7.77-1.06-10.36-1.24-2.32-4.3-.49-6.82-.62-4.67-.25-8.59-3.51-12.33-6.39C.54,33.72-1.17,24.05.7,15.38,2.55,7.05,9,4,16.37,1.51,20.05.25,22.6-1,26,1.33a53.2,53.2,0,0,1,8.57,7.38,18.86,18.86,0,0,1,4,8c.72,3,.24,6.6.88,9.81,3.59-5.85,10.19-8.3,17-9.17a24.44,24.44,0,0,1,19.29,6.27S64.46,30.67,63.38,34.21Z"/><path class="cls-3" d="M71.45,42.34c-.91,1.29-.83,3.51.43,4.42,1.47,1.13,4.08,1.34,5-.58.75-1.67.17-4-1.86-4.26C75,41.92,72.13,41.35,71.45,42.34Z"/><path class="cls-2" d="M58.69,323.21c.61,0,.87-.49,1.36-.55.66-.1,1.47.42,2.08.6a17.5,17.5,0,0,0,3.44.78,5.64,5.64,0,0,0,2.84-.2c1-.34,1.37-1.37,2.27-1.84a7.44,7.44,0,0,0,4.22,4.28c2.11.92,4.07,2.27,6.23,3.11s4.21,1.56,6.27,2.4c1.66.7,4.52,1.54,5.51,3.12,1.22,1.94.43,4.58-.39,6.54-.3.68-.66,1.91-1.36,2.31a6.48,6.48,0,0,1-3.64.27,104.67,104.67,0,0,1-16.23-4c-.51-.22-1.6-1-2.15-.79a8.83,8.83,0,0,0-1.39,2,11.18,11.18,0,0,1-1.49,2.2c-.86.67-1.52.25-2.58,0-2.2-.58-4.54-1-6.77-1.65-.79-.24-1.67-.57-2.46-.76s-2.1.11-2.59-.51c-.89-1.19.36-5.41.57-6.77.34-2.17.7-4.39,1.18-6.54a25.24,25.24,0,0,1,1.45-5.2c.47-1.14,2.34-3.8,3.89-3.65a6.42,6.42,0,0,0,1.76,3.15c.74.75,2.45,2.24,3.36.84"/><path class="cls-2" d="M59,319.55c.1,0,.18-.54.22-.77s.12-.65.22-1a20.77,20.77,0,0,1,.69-2c.48-1.31,1.62-2.47,1.49-3.95-1-.14-1.56-.26-2-1.33-.1-.3-.41-.92-.08-1.2a1.5,1.5,0,0,1,1,.07c-.18-.39-.6-1-.41-1.51a.92.92,0,0,1,1.27-.33c-.3-.37-1.46-2.1-.41-2.3a3.73,3.73,0,0,1,.86.1,12.35,12.35,0,0,0,1.33.34c1.81,0,3.5.64,5.27.85.5.06,1,.07,1.52.14s.88.15,1.33.23,1.06.08,1.59.19.66.27,1.07.65,1.36.57,1.29,1.33-1.08.87-1.41,1.4c.26.17.59.83.41,1.11a4.06,4.06,0,0,1-1.06.7c-.09.36.63.56.39,1.08-.15.35-.82.61-1.1.84a7.19,7.19,0,0,0-.77.66,5.18,5.18,0,0,0-.43,1.33,10.21,10.21,0,0,0-.31,2.54,18.11,18.11,0,0,1-.55,3,4.3,4.3,0,0,1-1.34,2.05,2.9,2.9,0,0,1-1.29.61,13.19,13.19,0,0,1-2,.75,5.31,5.31,0,0,1-3.29-.59,6.38,6.38,0,0,1-1.23-.74,8.71,8.71,0,0,1-1-1.18,3.52,3.52,0,0,1-.84-1.68c0-.2-.17-.44-.23-.65a3.64,3.64,0,0,0-.22-1.09"/><path class="cls-4" d="M60.85,306.28a3.94,3.94,0,0,0,1.52.75,19.73,19.73,0,0,0,2,.65c1.25.24,2.51.08,3.75.24a29.61,29.61,0,0,0,3.41.34c.55,0,1,.06,1.56.11a3,3,0,0,0,.86.1,2.85,2.85,0,0,1,.74-.1c.09.65.24,1-.3,1.43a2,2,0,0,1-1.57.65c-.89,0-1.72-.21-2.61-.23a5.25,5.25,0,0,1-2.19-.55c-.64-.27-1.32-.51-1.95-.8a17.92,17.92,0,0,0-1.89-.86c-1.08-.33-2.92-.36-3.51-1.62"/><path class="cls-4" d="M60.2,309.13a5.57,5.57,0,0,0,2.53.95,11.2,11.2,0,0,1,2.85,1.43,6.92,6.92,0,0,0,1.3.59,12.32,12.32,0,0,0,1.66.44,11.29,11.29,0,0,0,3.18,0,6.07,6.07,0,0,0,2.08-1c.22-.15.62-.63.2-.85-.22-.12-.85.42-1.08.52a5.51,5.51,0,0,1-2.85.34c-.87-.15-1.66-.57-2.52-.8-.66-.19-1.3-.2-1.94-.45s-1.34-.54-2-.71c-.5-.13-3.43-.21-3.29-.91"/><path class="cls-4" d="M61.74,312c.41,0,.6.39.89.63s1,.59,1.41.88a6.44,6.44,0,0,0,2.79,1.13,20.08,20.08,0,0,0,5.1-.22,7.53,7.53,0,0,1-.57,1.52,1.47,1.47,0,0,1-1.29.78c-.64.06-1.23-.12-1.87-.11a10.46,10.46,0,0,1-2.22-.23,6.74,6.74,0,0,1-1.71-.45,7.55,7.55,0,0,1-1.33-1.06,3.8,3.8,0,0,1-1.18-1,3.3,3.3,0,0,1-.13-1.61"/><path class="cls-4" d="M60.53,315.05a3.26,3.26,0,0,0,.41,1.44,2.72,2.72,0,0,0,1.13,1.07,7.7,7.7,0,0,0,3,1,13,13,0,0,0,2.94-.13c.49-.06.92-.14,1.42-.19s1-.39,1.31-.33c0,.5.3,1.08,0,1.61a2.57,2.57,0,0,1-1.3.9,2.93,2.93,0,0,1-1.74.23c-1-.25-1.9-.4-2.87-.67a11,11,0,0,1-3.53-1.64,2.46,2.46,0,0,1-1-1.42c0-.35-.31-1.52.23-1.55"/><path class="cls-4" d="M59.32,318.67c.41,2.12,2.38,2.59,4.39,2.85,1.75.22,3.78.8,5.6.34.37-.11.81-.23.88.32a1.72,1.72,0,0,1-.58,1.19,3.3,3.3,0,0,1-2.17.91,8.73,8.73,0,0,1-2.85-.12A17.69,17.69,0,0,1,62.05,323a5.57,5.57,0,0,1-1.5-.7,5.64,5.64,0,0,1-.75-1.1c-.34-.52-1.19-2.13-.26-2.51"/><path class="cls-1" d="M92.24,242.9c-.59-2.44,13.17-37.62,11.44-39.29-4.18,9.11-19.51-10.25-23.88-1.69-.12.25-5.33,57.74-7.87,64.45S66.92,279,64.82,287c-.66,2.48-1.8,5.41-2,7.73-.15,1.43.17,2.92,0,4.36-.1,1.06-.78,3.95-.76,4.72.16,5.26,7,3.86,10.82,3.37.48-10.79,8.14-22.24,10.67-32.63C85,268.6,86.74,263,88,257.22,89,252.75,93.46,247.93,92.24,242.9Z"/><path class="cls-3" d="M81.8,180.15c1.87,2.41-.54,6.87-1,9.43a32.76,32.76,0,0,1-3,8.95c-1.59,3.5-3.7,5.33,1.27,6.67,2.58.7,7.19,1.77,10,1.13,6.28-1.38,3-14.15,1.77-18.39-.7-2.51-.68-6.24-2.35-8.36a3.57,3.57,0,0,0-3.33-1.66c-2.56.18-2.12,2-3.35,3.89"/><path class="cls-1" d="M94.83,210.3c-2.59,3.57-1.07,4.21-.84,6.14.42,3.34,1.08,7.07,1.81,10.35,1,4.33,2.29,8.42,3.13,12.71,1.79,9.18,2.42,18.77,4.26,27.95a140.19,140.19,0,0,1,2.9,26.85c0,4.2.72,7.93.72,12.09,0,3.72-.41,7.76.12,11.41,3.4,1.63,5.9-.07,9.15,0,.34-2.8-.16-5.71.11-8.55s1-6.15,1.28-8.81c.64-5.89.17-12,.89-17.86.35-2.81-1-6.78-.08-9.41.62-1.65,3.53-3.75,3.83-5.69,1.27-8.07.48-10.4-1.58-15.91-.88-2.37-1.84-4-2.19-6.47-.38-2.86-.47-5.86-.71-8.66-.49-5.75-.78-11.58-1.43-17.32-.16-1.4-.6-6.06-1.6-7-1.53-1.53-5.61-1.7-7.79-2.3C102.61,208.63,94.83,210.3,94.83,210.3Z"/><path class="cls-2" d="M108.53,333.22c.15,2.34,3.33,2.19,5.16,2.18a3.17,3.17,0,0,0,2.37-.53c.63-.49.89-1.49,1.55-1.79.31,1.23,1.68,1.3,2.68,1.72s2.18,1,3.24,1.51c2.15,1.07,4.48,1.72,6.58,2.77a33.39,33.39,0,0,0,6.73,2.85c1.9.55,4.38.93,6,2.28,1.67,1.5,1.83,4.69,1.86,6.8,0,1.13.29,2.06-.88,2.53a10.11,10.11,0,0,1-3.69.13c-4.85-.42-9.62-2.3-14.43-3.24a27.55,27.55,0,0,1-3.31-.57,14.2,14.2,0,0,1-2.68-.65c-.86,1-1.15,2.94-2.51,3.39a6.32,6.32,0,0,1-2.7-.35c-1.17-.17-2.13-.35-3.29-.42-1.75-.13-3.24-.71-4.92-.86a3.35,3.35,0,0,1-2.09-.72,11.77,11.77,0,0,1-.61-2c-.81-2.71-2.06-6.29-1.21-9.2a6.52,6.52,0,0,1,2.59-4,19.36,19.36,0,0,1,1.9-1.18c.72-.33,1.45-.15,1.93-.67"/><path class="cls-5" d="M59.52,81.2c1.87,1.66,0,7.47.36,10.08a81.19,81.19,0,0,0,2.57,11.36,192.91,192.91,0,0,1,4.65,19.68C69.46,136.25,73.58,149,77,162.56c1.75,7,3.33,14.19,5,21.41,1.65,6.94,2.76,13.85,5.49,20.36a25.14,25.14,0,0,0,4,6.36c2.73,2.92,5.21,2.24,9,2.19a100,100,0,0,1,11,.74c2.12.2,8.28,1.57,9.72.07,3.87-4.07,6.48-48.54-.9-49.36-3.78-11.21-9.19-21.83-12.88-33-3.14-9.36-6.15-19-8.88-28.33-2.44-8.44-4.81-17.65-9.6-25.71-2.65-4.42-7.24-3.77-12.3-3.22a57.06,57.06,0,0,0-14.44,3.85C62.69,79.44,59.52,81.2,59.52,81.2Z"/><path class="cls-2" d="M106.91,81.36c.33,1.35,1.54.93,2.44,1.66.61-.66,1.15-2.19,2.09-2.32,1.82-.27,1.42,1.39,1.19,2.47-.43,1.53-1.46,4.82-2.83,5.93-1.8-.64-2.07-2.33-1-3.75-.91-.43-2-.82-3-1.19a.42.42,0,0,1-.09.5"/><path class="cls-2" d="M55.83,136.78s1.6,20.93,7.17,28.94,37.75,3.33,37.75,3.33S90.66,155.7,89,149.8,55.83,136.78,55.83,136.78Z"/><path class="cls-2" d="M121.88,118.61c-.27-.21-.27-.21,0,0,1.27.65,3.32,0,4.66-.34.38.45,1.53,1.55,1.53,2.19,0,1.41-.48.79-1.36,1.11-1.46.64-3.28.93-4.55,1.88-1.38-.52-.84-2.89-1.31-4"/><path class="cls-2" d="M98.36,165.55l-.17-.18a29.51,29.51,0,0,0,7.09-4.72c5.47-5.1,10.4-9.47,13.72-16.38,1.77-3.67,2.3-8.44,3-12.48a41,41,0,0,0,.11-11.12c-.71-6.24-5.11-13-9.4-17.55-3-3.11-6.47-7.86-10.71-9.23s-9.78-.91-14.16.19c-4.83,1.18-8.94,4-12.72,7.4s-6.53,8.24-10,12.2a54.82,54.82,0,0,0-6.7,10.1c-2.1,3.88-2.66,8.51-2.49,13,.55,2.35,3.14,4.26,4.93,5.49a51,51,0,0,0,10.72,5.45,50.47,50.47,0,0,0,11.41,3.05,19.71,19.71,0,0,0,6.29.11,11.71,11.71,0,0,0-.31-1.91c-.3-1.18-1-1.78-1.51-2.91-1.11-2.39-.81-5.42-.63-8,.2-4,.41-8.95,2.8-12.3,2.07-3,5-5.06,8.72-4.79,2.09.21,3.36,1.15,5.08,2.4s2.68,3.93,2.86,6.17c.28,3-2.68,6.21-4.07,8.76-1.63,3-2.35,6.79-4.47,9.48-1.82,2.35-4.56,3.23-7.26,4.34a4.77,4.77,0,0,1-1,.28,2.09,2.09,0,0,1,0-.56,19.5,19.5,0,0,1-5.65.07,49.85,49.85,0,0,1-13-3.4A46.49,46.49,0,0,1,59,142.27c-1.63-1.26-3.51-3-4.12-5.15a46.32,46.32,0,0,1-10.47-12.49c-1.75-3.38-3.16-6.69-2.88-10.62s2.67-7.53,5-10.78c4.28-6,8.51-12,14.7-15.83,5.94-3.73,13.4-4.36,20.2-4.51,7.87-.1,14.9.39,22.1,2.89a95.36,95.36,0,0,1,11.94,5.56,92.16,92.16,0,0,1,10.43,5.88c5.57,4,11,8.11,16.49,12.18,1.37,1,3.31,2.1,2.43,4.07-.8,1.78-1.3.62-2.47.85-.22,0-2.23,1.13-1.7,1.65,2,1.85,3.85,5,6.93,5,5.38-.05-.4-3.77-1.69-5,1.46-.45,1.29-2.22,2.91-1.9,1.2.23,3,2.41,4,3.18,2.73,2.27,5.68,3.56,8.57,5,3.18,1.55,4.86,2.25,7.27-.65s3.16-5.44,3.8-8.92A69.49,69.49,0,0,1,175.28,101c.44-1.18,2.23-2.86,2.4-4.07.3-1.82-1.53-2.08-2.71-1.72-.72,1.17-1.43,2.77-1.72,3.34-.95,1.84-1.91,3.61-2.65,5.4-1.15,2.74-3,6-5.88,7.12s-6.7-1.23-9.15-2.91c-3-2-5.42-4.17-8.22-6.28a55.45,55.45,0,0,1-7.16-7.13A21.84,21.84,0,0,0,136,91.2c-1.6-1.13-2.72-2.47-4.35-3.58a76.34,76.34,0,0,0-9-5.83c-3-1.57-6-3.59-9.18-4.91-3-1.25-6.19-2.54-9.36-3.83s-6.52-2.86-9.8-3.47c-8.52-1.61-17.06-.9-25.59.57-6.41,1.13-12.44,2.79-17.49,7.06a54.51,54.51,0,0,0-8.88,8.89c-4.17,5.64-6.17,11.77-8.36,18.36-1.3,4-2.74,8.36-3,12.65a42.9,42.9,0,0,0,1.57,12.64c1.27,4.68,3.88,8,6.33,11.95a69.55,69.55,0,0,0,7.86,10.12,68.94,68.94,0,0,0,9.59,8.82C68.79,167.49,84.83,170.8,98.36,165.55Z"/><path class="cls-2" d="M104,170.85c-.24-.19-.43-.41-.67-.61-1.36-1.25-2.78-2.62-4.2-3.93-11.57,4.65-25,3.17-36.63-1.54,2.2,4.5,4.75,8.9,6.89,13.43,1.1,2.32,2.34,3.45,3.58,5.7.26.58,2.49,2.43,2.83,3C87,183.38,95.59,178.66,104,170.85Z"/><path class="cls-2" d="M75,186.77c-.43-1,.64.22,1.94,1.42,1.91,1.72,3.35,3.71,5.19,5.38s4,3.18,6,4.76c1.79,1.54,3.44,3,5.16,4.38a248.94,248.94,0,0,0,28.59,20,84.72,84.72,0,0,1,12.21,8.66c1.63,1.47,2.76,3.45,4.56,4.71.76.52,1.74.76,2.48,1.28a13.31,13.31,0,0,1,2.39,2.75,99.85,99.85,0,0,1,6.49,8.47c1.33,2.08,2.25,4.52,3.48,6.7s3.1,3.55,4.81,5.36c3,3.12,5.25,6.41,9.5,8,3.78,1.41,8.27,1.5,12.3,1.07,4.88-.5,8.27-3.14,12.14-6a32.44,32.44,0,0,0,6.39-7,51.67,51.67,0,0,0,5.41-9.28c2.39-5.32,6-10.47,7-16.32,1.13-6.63.33-13.55-.05-20.17a150.68,150.68,0,0,0-4.9-28.63,99.15,99.15,0,0,0-5-13.84,84.91,84.91,0,0,0-5.48-11.27c-3.33-5.48-6.42-10.95-10.86-15.6-2.71-2.9-7.87-4.85-11.62-6A12.94,12.94,0,0,0,168,135c-1.3.15-2.73.79-4,.81-.79,3.3-3.71,6.75-5.61,9.54a46.94,46.94,0,0,1-8.66,9.3c-2.92,2.53-6.16,4.89-9.24,7.2a41.75,41.75,0,0,1-8.64,5.34,51.19,51.19,0,0,1-17.89,3.68,27,27,0,0,1-8.94-1.3c-1-.39-5.91-2.22-5.5-3.23"/><path class="cls-4" d="M196.38,253.5c2,0,2.7-3.68,3.19-5.26.76-2.38,2.19-4.24,2.94-6.62a60.45,60.45,0,0,0,2.63-11.85,89.13,89.13,0,0,0,.48-11,63.6,63.6,0,0,0-.68-6.56c-.3-2.84-.3-5.67-.66-8.46-.6-5.24-2.59-10.55-4.15-15.6-.9-3-1.53-6.27-2.67-9.2-.91-2.29-2.06-4.51-3-6.71-2-4.77-3-9.91-5.29-14.57-1.63-3.29-3.59-6.25-5.42-9.32-2.54-4.31-9.78-11.91-14.6-6.43-2.84,3.25-4.14,7.57-6.21,11.42A57.41,57.41,0,0,0,158,164.77a98.55,98.55,0,0,0-3.36,14.47c-.42,2.91-.66,5.7-1.23,8.52-.41,2.06-1.46,4.09-2,6.17s-.46,3.94-.92,5.88c-.78,3.44-.48,6.88-.76,10.35-.43,5.42-.15,11-.09,16.45a65.17,65.17,0,0,0,3.06,17.66c.92,2.93,2.07,5.76,3,8.66a14.77,14.77,0,0,0,5.3,7.33c3.31,2.63,7.17,3.11,11.05,3.92,3.52.7,7.7,1.25,11.08-.31s6.22-3.74,9.27-5.52a14.77,14.77,0,0,0,4-4.22c1.55-2.21,1.81-3.28,1.76-6.21"/><path class="cls-2" d="M118.81,141.65c-.09,1.34,3.71,2.77,4.88,3.38.89-1,1.22-2.91,2.18-3.58,5.95,1,2.66,8.53-1.25,10.07-1,.43-2.61.6-2.91-.81-.22-1.22,1.38-1.54.64-2.89-.38-.76-2.36-1.36-3.06-1.64-1-.36-2-1.18-3-1.12-.22-.09-.26-.25,0-.5"/><path class="cls-2" d="M119.34,93.13a6.59,6.59,0,0,0-1,2.37c.83.74,3.9,2,3.77,3.34-.24,2.1-3.59.19-4.47-.2-1.38-.59-4.44-1.61-5.26-3-1.39-2.44,2.65-1.43,3.63-.72.63-.61.12-3.54,0-3.6"/><path class="cls-4" d="M97.65,106.78c-.67-.53-1.25-2.08-2.82-2a3.49,3.49,0,0,0-2.71,3c0,1.5,1.15,1.88,2.41,2,1.89.19,1.79-.89,3.31-1.7"/><path class="cls-4" d="M82.89,123.2c-1-1.81-5.48-4.35-5.79-.55-.24,2.58,4.38,4,5,1"/><path class="cls-4" d="M76,142a4.14,4.14,0,0,0-.41.15c2.72-.66-2.33-6.4-4.55-2.07s5.69,3.22,4.86,1.3"/><path class="cls-4" d="M111.31,112.73c-.61-1.22-1.08-2.24-2.54-2.21a2.3,2.3,0,0,0-2.28,2.47c0,3,4.7,4.14,5.75,1.41"/><path class="cls-2" d="M175.76,96.63c-.19.27-.25.31,0,.07.79-.85.72-2,1.05-3s1.34-2.29,1.3-3.23c2,.79,1.78,1.57.86,3.15-.67,1.07-1.32,2.94-2.12,3.75"/><path class="cls-4" d="M86.75,81a4.33,4.33,0,0,1,.65,1c.22-2.51-1.39-4.47-4-3.68,0,.38-.25,1-.16,1.43-2.94-1.37-5.21,3.1-3.4,4.22-.18-2.48-1.84-1.45-2.75-.5A5.72,5.72,0,0,0,75.49,88a1.47,1.47,0,0,0,.83,0c-1.93,1.23-1.67,6.78,1.36,6.37a3.06,3.06,0,0,0,4.72,2.92c1.23,4,4.16-.34,3.95-2.48-4.35.17-6.11-3.74-5.79-7.43.35-4.86,4.07-5.79,8.48-5.87"/><path class="cls-2" d="M108.09,333.82c.37.14-.18-5.84-.28-6.66a6.48,6.48,0,0,0-.57-1.81c-.37-.79-.41-.75-1.15-1.07-1-.42-1.61-1.3-.7-2.17a12.25,12.25,0,0,1-1.71-.31c-.27-1,.4-1.53,1.28-1.56a1.53,1.53,0,0,1,0-2.18,3.64,3.64,0,0,1,.93-.61c.67-.2.63.15,1.11.34a3.31,3.31,0,0,0,2.38,0,5.87,5.87,0,0,1,2.67,0c1.48.34,4.2-.32,5.38.63,1.55,1.24-.38,1-.69,1.66s1.58.8,1.27,1.69a2.58,2.58,0,0,1-1,.29c-.32,1,1.81.65.64,2-.46.55-.53.27-.67,1.05a6.94,6.94,0,0,0,.18,1.83,30.18,30.18,0,0,1-.18,3.28,26.27,26.27,0,0,1,0,3.32c-.13,1.15-1.13,1.9-2,2.63a3.74,3.74,0,0,1-2.82.7c-2.2-.2-3.11-1.87-3.59-3.77"/><path class="cls-4" d="M104.78,318.47a3.59,3.59,0,0,0,1.49.83,8.59,8.59,0,0,0,1.72.55,20.12,20.12,0,0,0,3.39.14c.51,0,1.05.06,1.54,0s1-.27,1.4-.36a8.06,8.06,0,0,1,3-.29c-.23.39-.64.59-.78,1.06-.27,0-.56,0-.86,0a2.77,2.77,0,0,0-.65.22,5.8,5.8,0,0,1-1.75.21c-.62,0-1.23,0-1.84,0a15.42,15.42,0,0,1-1.77-.34,13.68,13.68,0,0,0-1.81,0A3.64,3.64,0,0,1,106,320a9.58,9.58,0,0,1-1.06-.68c-.11-.09-.47-.37-.46-.52.05-.35.56-.3.65,0"/><path class="cls-4" d="M105.35,322a3.3,3.3,0,0,1,.44.47,4.74,4.74,0,0,0,.75.44,5,5,0,0,0,1.59.72,23.46,23.46,0,0,0,3.6.46,12.74,12.74,0,0,0,3.39-.19c.56-.17.76-.58,1.07-1.05a4.84,4.84,0,0,0,.67-1c-.46,0-.53.44-.88.61a4.29,4.29,0,0,1-1.52,0,27,27,0,0,0-3-.55,25.89,25.89,0,0,0-3.07.1,18.32,18.32,0,0,1-2.75-.1"/><path class="cls-4" d="M107.67,325.91a3.86,3.86,0,0,0,2.29.56,26.75,26.75,0,0,0,3,0c.37-.05.82-.14,1.2-.23a10.19,10.19,0,0,0,1.23-.21c.55-.21,1.14-1,1.73-1.1a8,8,0,0,1-.11,1.54c0,.62-.58.91-1.09,1.24a6.86,6.86,0,0,1-3.62.73c-1,0-2.26.36-3.3-.11-.34-.14-.78-.41-.87-.77S108,326,108,326"/><path class="cls-4" d="M116.88,329.75c.54.32-1.06,1.93-1.43,2.17a3.91,3.91,0,0,1-1.31.48c-.32.06-.67,0-1,.09s-.65.2-1,.23a7.07,7.07,0,0,1-3-.33c-.32-.12-.83-.31-.89-.65s.12-.55.12-.78a4.84,4.84,0,0,1,0-.85c.36.71,1.5.64,2.17.64a6.8,6.8,0,0,0,2.52-.31c.76-.28,1.53-.48,2.27-.82s1-.85,1.55-1.17a13.28,13.28,0,0,1-.09,2"/><path class="cls-4" d="M108.21,333.38a2.84,2.84,0,0,0,1.87,1.24,22.41,22.41,0,0,0,2.84.3,11.26,11.26,0,0,0,2.54-.33c.69-.12,1.06-.7,1.62-1a2.79,2.79,0,0,1-1,3,9.29,9.29,0,0,1-3.92.54c-1.14,0-2.43.09-3.27-.78-.46-.47-1.12-2.52-.25-2.84"/><path class="cls-1" d="M94.37,83.37a13.29,13.29,0,0,0-4.72-2.63c-3.23-.82-7.41.76-8.64,4-1.31,3.44-1.65,7.28-2.14,11A58,58,0,0,0,79.18,109c.41,3.8,1,7.76,1.19,11.59.15,4.43-.09,9,.31,13.42.19,2.21,7.26,12.32,9.94,18.79,1.52,3.64,3.37,7.15,4.34,11,.6,2.31,1,3.05-1.54,3.86-.42.13-1.63.31-1.8.68-.43.92.76,1.64,1.41,1.84-.91.22-2.22.51-2.22,1.93,1.91.95,4.49,1.89,6.5,1.25-.93.42-2.4.77-2.71,1.75-.52,1.62,1.61,2.38,2.79,2.63,2.38.47,5.43.27,6.85-2.12a13.18,13.18,0,0,0,1.56-7.11c-.11-2.16-1.33-3.74-2.46-5.54-1.43-2.29-2.81-4.69-4.08-7.08s-2.87-4.47-3.77-7c-1.64-4.53-3-16.31-2.78-17.27a28.16,28.16,0,0,0,.38-3.08c.29-2.36.22-4.63.46-6.93.62-5.87-.52-11.56.21-17.45.55-4.6,1.7-9.52,1.76-14.16C95.53,88.31,96.23,84.86,94.37,83.37Z"/><path class="cls-5" d="M88.94,50.05c.31.11,1.27-1.82,1.43-2.18s.28-.71.66-.73.66.49,1,.29.3-.75.79-.56a1.24,1.24,0,0,1,.59.89c.16.82-.4,1.25-.75,1.93.56.3,1.36.56,1.29,1.4s-.94,1.14-1.7,1a3.55,3.55,0,0,1-.92-.23,4.79,4.79,0,0,0-.94-.39c-.75-.16-1.61-.7-1.25-1.62"/><path class="cls-5" d="M37.52,31.84c-.65-.48-.89-1.42-1.5-2s-1.93-1.11-2-2.2,1.13-3.12,1.79-1.33c-1.14-.87,0-2.91,1-3.32,1.6-.6,3,.18,3,1.92-.28-1.45,2-1,2.45-.1.49,1.09-.3,2.06-.7,3,1.1-.13,1.21,1.84.92,2.58a1.75,1.75,0,0,1-3,.3c0,1.36.17,2.92-1.69,2.8-1.41-.1-2.78-3-1-2.71"/></g></g></svg>