<svg xmlns="http://www.w3.org/2000/svg" viewBox="0 0 244.32 381.31"><defs><style>.cls-1{fill:#007293;}.cls-2{fill:#1d1d1b;}.cls-3{fill:#fff;}.cls-4{fill:#e30613;}</style></defs><g id="Ebene_2" data-name="Ebene 2"><g id="Ebene_1-2" data-name="Ebene 1"><path class="cls-1" d="M94.54,75.41l-12.29-5.2L77,48.92l5.39-10.79L78.14,21.51S74.39,19.73,73,19.26s-24.13,9-24.13,9l5.71,16.11,13,10L70.88,70l-25,17.72s8.51,15.61,10.4,16.08,26.49,3.78,26.49,3.78L97.85,92.44Z"/><path class="cls-1" d="M127.58,215.78l57.93,135-31.26-31.21s-12.19-10.76-15.81-32.46-2.89-22.93-2.89-22.93-14.44-5.26-24.06-17.49a227.53,227.53,0,0,1-14.8-20.81Z"/><path class="cls-1" d="M91.36,238.81,82.65,305.4,55.8,381.31s-7.91-33.48,2.34-52.95,14.45-30,14.45-30-12.46-29.15-12.72-44.7a225.79,225.79,0,0,1,.81-25.53Z"/><path class="cls-2" d="M74.6,159.82l-65.93,41-6.9,21C44,246,68.49,260.6,68.49,260.6l86-14.74,44.71-64.39-22.57-16.13-57.71,5.81-11.07-27.92V118.37l-4.36-22.74L95,72.82l-8-.6-.33,17.11H67.86L49.67,84.71l-6.14-.85-.45,5.73L45,87.08l13.28,21.77Z"/><path class="cls-3" d="M78.65,102.44a5.12,5.12,0,1,1-6.84-2.36A5.11,5.11,0,0,1,78.65,102.44Z"/><path class="cls-3" d="M96.56,99.57a5.12,5.12,0,1,1-6.84-2.36A5.12,5.12,0,0,1,96.56,99.57Z"/><path class="cls-4" d="M79.08,102.65a5.12,5.12,0,1,1-6.85-2.35A5.13,5.13,0,0,1,79.08,102.65Z"/><path class="cls-4" d="M97,99.78a5.12,5.12,0,1,1-6.84-2.36A5.12,5.12,0,0,1,97,99.78Z"/><path class="cls-1" d="M106.69,119.49S94,73.84,95.65,73.69c1-.1,14.4,45.48,16,45.34,17.62-1.61,74.68-3.87,74.68-3.87l1-4.82,5.38-5.12.17-5.65,7.12,8-10.71,13.91-81.43,8.6Z"/><polygon class="cls-1" points="44.98 87.08 54.39 102.51 52.09 120.17 40 197.63 33.04 266.35 22.33 280.19 7.88 281.57 1.24 288.54 0 282.74 12.02 268.94 22.34 264.32 23.45 251.92 29.01 178.64 40.11 93.53 44.98 87.08"/><path class="cls-2" d="M190.09,113l1.27-45.29L140.57,47.78s22.3-37,66.15-20l2.62-2.3-1,3.24c45,16.85,35,63.14,35,63.14S197,68.44,195.59,69.32s-3.54,44.26-3.54,44.26Z"/><path class="cls-4" d="M61.08,39.56a2.84,2.84,0,1,1-2.84-2.84A2.84,2.84,0,0,1,61.08,39.56Z"/><path class="cls-4" d="M81,35a2.83,2.83,0,1,1-2.83-2.83A2.83,2.83,0,0,1,81,35Z"/><path class="cls-2" d="M79.84,24.63c.39-2.45-2.55-5.5-4.14-7.16-2.93-3-5.82-3-9.82-3a26.73,26.73,0,0,0-9,1.59c-2.65.95-5.27,1.74-7.34,4-1.57,1.69-2.9,4.76-3.69,6.88s-.83,6.68.86,8.61c2.58,2.93,3.48.3,5.09-1.91,1.5-2,2.9-4,4.52-6,1.23-1.51,1.1-2,2.84-1.15.61.3,1.19.87,1.81,1.14,1.13.46.62.39,1.49-.3,2-1.56,3.34-4.23,5.28-5.66,2.2-1.64,4.39-2.89,7.17-1.88A6.19,6.19,0,0,1,78,22a18.21,18.21,0,0,0,1.89,2.64"/><path class="cls-2" d="M49.61,30.26c0-1.73-4.55-4.48-6-5a16.85,16.85,0,0,0-9.41-.64c-3.31.68-6.64,2-8.22,5.25-1.87,3.83-1.31,7.51,0,11.32,1.16,3.38,3.45,6.24,7,6.89s5.56-1.57,7.91-4.23a42.25,42.25,0,0,0,6-8.87,23.87,23.87,0,0,0,1.61-4.32c.58-2.06.58-2.25,2.62-3.41"/><path class="cls-2" d="M74.57,18.18c-.26-2.65,1.27-6.34,2.27-8.76C78,6.49,80.49,2.5,83.34.89c2.44-1.37,6.5-1.18,8.58.68s2.67,4.31,3,6.79A24.46,24.46,0,0,1,94.48,17c-.71,2.77-2.5,3.85-5.19,4.18-5.46.66-10.7-.27-14.58-4.18l.62,0"/><path class="cls-4" d="M204,30.09s-37.15-6.52-50,17.77l11.76,4.65S191.88,28.15,204,30.09Z"/><polygon class="cls-4" points="206.03 31.19 178.96 57.14 191.15 61.93 206.03 31.19"/><path class="cls-4" d="M209.52,35.12,204.68,70l9.93,6s4.75-31.57-.18-36.9S209.52,35.12,209.52,35.12Z"/><path class="cls-4" d="M217.93,38.18s22,18.73,17.76,48.58l-12-8.5C229.28,60.65,217.93,38.18,217.93,38.18Z"/><polygon class="cls-4" points="154.02 226.62 154.21 233.99 157.99 231.55 154.02 226.62"/><polygon class="cls-4" points="182.13 172.97 184.56 179.93 187.41 176.46 182.13 172.97"/><polygon class="cls-3" points="164.07 224.15 166.97 220.38 160.77 217.53 164.07 224.15"/><polygon class="cls-3" points="150.42 242.2 145.04 242.2 145.04 233.99 150.42 242.2"/><polygon class="cls-4" points="138 245.26 131.8 245.26 134.9 235.32 138 245.26"/><polyline class="cls-4" points="173.18 202.03 176.59 195 170.7 195"/><polygon class="cls-3" points="182.7 189.62 184.77 185.07 178.96 182.58 182.7 189.62"/><polygon class="cls-3" points="128.28 248.78 119.79 248.78 122.28 238.1 128.28 248.78"/><polygon class="cls-4" points="116.77 248.73 110.89 250.43 110.89 242 116.77 248.73"/><polygon class="cls-3" points="104.55 250.64 100.47 250.64 102.51 243.44 104.55 250.64"/><polygon class="cls-4" points="92.94 250.43 87.05 252.5 87.82 243.23 92.94 250.43"/><polygon class="cls-3" points="80.97 251.78 75.31 253.44 77.62 244.33 80.97 251.78"/><polygon class="cls-4" points="66.61 253.22 62.81 248.68 69.14 244.12 66.61 253.22"/><polygon class="cls-3" points="54.39 246.42 50.17 242.2 55.4 237.24 54.39 246.42"/><polygon class="cls-4" points="42.82 240.29 39.39 237.24 45.33 230.31 42.82 240.29"/><polygon class="cls-3" points="22.95 230.31 17.72 224.15 22.95 220.84 22.95 230.31"/><polygon class="cls-4" points="11.91 220.84 6.75 217.53 15.5 213.39 11.91 220.84"/><path class="cls-1" d="M59.13,32.22a8,8,0,0,1,1.28-.83c.83-.48,2.65.63,2.65.63s-4.21,1.87-5.14,1.41A12.55,12.55,0,0,1,59.13,32.22Z"/><path class="cls-1" d="M71.13,28.87v0c0-.54-.09-.89.31-1.3A4.44,4.44,0,0,1,73,26.82a24.7,24.7,0,0,0,2.92-.52,4.79,4.79,0,0,1-1.47,1.79,4.59,4.59,0,0,1-1.37.9A6.23,6.23,0,0,1,71.13,28.87Z"/><path class="cls-2" d="M60.55,31.17a.83.83,0,0,0,.11.15c-1-.14-.91,1.84.06,2,.67.09.9-.31.88-.9s-.33-.83-.88-1.08c-.13,0-.19.07-.17.2"/><path class="cls-2" d="M73.09,26.91c.85-.35,2.73.68.94,2.12a1.08,1.08,0,0,1-1.68-.19A1.3,1.3,0,0,1,73.09,26.91Z"/><path class="cls-2" d="M56.84,31.88a.28.28,0,0,0,.32.16c.51-.42,2-3.7,2.66-2.94-.18.46-2.39,2.82-2.74,2.76a1.42,1.42,0,0,0,.11-.33"/><path class="cls-2" d="M71.48,23.41a4.49,4.49,0,0,0,2,.89,10.1,10.1,0,0,0,2.08.68c.38-.88-1.23-.87-1.73-1.08a4.6,4.6,0,0,0-2.44-.64.69.69,0,0,0,.14.68"/><path class="cls-4" d="M66.72,44.93c.1.12.29.16.39.34a2.48,2.48,0,0,0,1.41-1.54c.49-.2.75.42,1.34.28s.73-.77,1.23-.8c.12,0,.41.29.56.32a2.74,2.74,0,0,0,1,0,3.28,3.28,0,0,0,1.46-1c.21,1.33-2.73,2.86-3.73,3.1s-3.56.72-4-.66a9.36,9.36,0,0,1,1.4,0"/></g></g></svg>