<svg xmlns="http://www.w3.org/2000/svg" viewBox="0 0 324.43 337.56"><defs><style>.cls-1{fill:#007293;}.cls-2{fill:#1d1d1b;}.cls-3{fill:#e30613;}</style></defs><g id="Ebene_2" data-name="Ebene 2"><g id="Ebene_1-2" data-name="Ebene 1"><path class="cls-1" d="M322.94,177.58c-.51.79-.15,3.32-.27,4.67-.22,2.18-.48,4.69-.86,6.69-.79,4.07-1.62,8.43-2.55,12.44-1.15,5-2.17,9.77-2.09,14.89a143.13,143.13,0,0,1-.48,16c-.22,2.23-.3,4.51-.53,6.72-.34,3.19-.83,3.09-3.72,3.66-6.71,1.33-14,1.65-20.87,2.05-3.83.22-7.55-.12-11.38.42a67.48,67.48,0,0,1-10.71.8c-4.29-.11-8.56-.94-12.81-.84-1.81,0-6.43.6-7.5-1.1-.81-1.29,0-5.08,0-6.63a162.63,162.63,0,0,1,1.87-16.22c.68-4.85,1.47-9.38.89-14.58a23,23,0,0,0-2.42-7.25c-1-2.06-1.75-4.76-3.13-6.37,1-3.11,3-4.71,5.66-6.17a118.06,118.06,0,0,1,15.76-7.47c9.38-3.45,18.64-7.15,28-10.58,3.41-1.23,6.57-2.6,10.17-3,3-.36,5.82-.71,8.82-.94,1.27-.1,4.95-1.08,6-.32.77.51,1.05,2.69,1.21,3.55.48,2.44.18,4.87.49,7.22"/><path class="cls-1" d="M78.23,24.7c-5.72,2.86-10.83,3.67-18.47,3.42-2,1.82-5.06,4-5.28,7.32-.23,3.54,1.41,4.39.33,8.19-.91,3.24-3.49,5.91-4.39,9.17-.85,3,0,5.79-1.41,8.78,6.93,10.25,21.81,18.18,33.16,21.2,5.67,1.51,10.84,1,16.67,1.85,8.11,1.15,14.79,4.39,23,4.27,4.23-.06,7.55,1.57,11.31,3.9,1.1.7,11.59,9.44,11.3,9.65a19.25,19.25,0,0,0,5.23-6.27c.88-1.58,1.43-3.77,2.83-4.91s3.24-1.31,4.64-2.63a12.61,12.61,0,0,0,2.88-4.3c2.82-6.43,2.67-16.36-1.63-22-1.4-1.83-3-4.07-5.09-5a49.14,49.14,0,0,0-6-1.88c-8-2.19-16.18-.74-23.8-4.84-5.11-2.76-3.46-6.31-4.82-12.09a37.5,37.5,0,0,0-5.88-12.67c-7.93-11-17.46-12.23-28.27-4.93a60.81,60.81,0,0,1-6.34,3.78"/><path class="cls-2" d="M117,13.47c-.4-1.89-1.2-5.07-2.65-6.37-1-.86-1.29,1.13-1.62,1.94-.73,1.79-2.4,1.23-3.17-.18-.44-.79-.66-1.65-1.07-2.46A17.14,17.14,0,0,0,106.31,3c-.87-1-2.91-4-4.42-2.67s-.47,3.87-1.08,5.53c-.88,2.38-3,2.56-5.07,2-2.56-.7-11.87-4.25-11.64,1.35.06,1.36.83,2.84-.12,4-1.2,1.54-2.93,2.42-4,4.12a2.38,2.38,0,0,0,1.68,3.73c1.28.23,2.74-.41,4-.71a35,35,0,0,1,6.25-1.11,28.51,28.51,0,0,1,4.62-.15,13.83,13.83,0,0,1,3.91,1.25c4,1.67,8.75,6,8.71,11.09a19,19,0,0,1-1.17,5.65,18.9,18.9,0,0,1-5.15,7.93C101,46.77,99,48.17,97.26,50c-.8.84-2.72,2.47-.91,3.23.46.2,1,.16,1.49.34s1.11.85,1.49.7.81-1.18,1.06-1.53a17,17,0,0,1,2.07-2.4c2.21-2.3,4.84-5.44,8.14-3.87A9.33,9.33,0,0,1,113.8,49c.91,1.07,1.56,2.07,2.86,2.54a8.08,8.08,0,0,0,3.47.7c.9-.1,2.47-.6,2.92-1.51s0-1.74-.18-2.74a48.42,48.42,0,0,0-1.64-5c-.49-1.48-.88-3-1.49-4.41a17.76,17.76,0,0,1-1.25-4.11c-.25-1.38-.64-2.85-.76-4.26s-.14-2.86-.16-4.28c0-.51.11-1.07.15-1.6a20.21,20.21,0,0,0-.24-2.7,15.55,15.55,0,0,1,.17-1.93,24.39,24.39,0,0,0-.69-6.19"/><path class="cls-2" d="M55.2,40.76c-.12-.22.52.17.75.3.56.33,1.12.64,1.67,1A10.23,10.23,0,0,1,61.51,46a16.41,16.41,0,0,0,4.8,5.57,8.88,8.88,0,0,0,4.37,1.37,5.87,5.87,0,0,1-2.5.69,11.11,11.11,0,0,1-3.77.21,8.88,8.88,0,0,1-3.41-1,14.25,14.25,0,0,1-2.85-2.6c-1.56-1.63-2.3-3.86-3.88-5.4a1.72,1.72,0,0,1-.5-2.1,5.28,5.28,0,0,1,1.64-2.42"/><path class="cls-2" d="M78.83,28.51a12,12,0,0,1,4.24-2.72c.84-.31,1.67-.42,2.51-.77a5.19,5.19,0,0,1,2.27-.39c4.48.05,9.55,1.48,12.87,5a8.28,8.28,0,0,1,2,2.56,4.83,4.83,0,0,1-.43,3.1,20.6,20.6,0,0,1-2.48,4.63,16.66,16.66,0,0,1-3.12,3.8,34.69,34.69,0,0,1-3.07,2.39c.26-.89,1.3-1.62,1.77-2.42a19,19,0,0,0,1.53-3.87,10,10,0,0,0,.58-4.45c-.35-2.09-2.65-3.81-4.21-4.72A8.91,8.91,0,0,0,89,29.13a22.65,22.65,0,0,0-3.77.22,9.65,9.65,0,0,1-4,0c-.7-.17-2.48-.18-2.72-1.06"/><path class="cls-2" d="M88.89,42.39c-.78.61-2.15.1-3-.22a5.3,5.3,0,0,1-2.61-2.49A6.22,6.22,0,0,1,83,33.22a22.39,22.39,0,0,1-3.11,1.24,2.39,2.39,0,0,0,1.42.16,32.38,32.38,0,0,0-1.61,3.63.92.92,0,0,0,.27.16c.3-.34,1-.91,1.47-.65a13.56,13.56,0,0,0-.7,1.68,15,15,0,0,0-.14,2c.6-.1,1.92-1.2,1.74,0-.06.42-.38.8-.45,1.25a5.08,5.08,0,0,0,.07,2.2c.36-.2.71-1,1.07-1.35a2.59,2.59,0,0,1,1.47-.83,10.77,10.77,0,0,0,1.34,3.94c.23-.52.29-3,1.21-2.87A5.6,5.6,0,0,0,88.66,47c-.11-1.15-.58-3.07-.27-4.09a4.19,4.19,0,0,0,3.38,2.48,41.44,41.44,0,0,1-3.17-3.49"/><path class="cls-2" d="M97.68,18.54c0-.31,4.16,1.33,5.21,1.91,1.79,1,4.07,1.93,5.3,3.72,2.7,3.93,2.93,11.4.69,15.51-2.76,5.09-7.35,8.07-11.61,11.48-1.49,1.21-11.56,10.65-6.68,12.54,1.92.75,4.41-1.83,5.62-3.08,2-2.06,3.48-4.77,5.32-7,2-2.44,4.84-5.31,7.85-5.93,2.28-.47,3.42.67,5.26,1.94,1.62,1.12,3.11,3.1,5,3.75,2.14.75,4-.38,6-.78a4.73,4.73,0,0,1,2.21-.06c.65.21,1.32.14,2,.29.47.11.93.28,1.37.38,1.14.28,2.28.6,3.41.91.46.13,2.17,1.09,2.35.13.07-.43-.46-1-.69-1.3-.63-.89-1.31-1.78-2-2.63a43.54,43.54,0,0,1-3.56-5.18c-.54-.92-1.18-1.77-1.73-2.7a2.12,2.12,0,0,1-.38-.9,6.4,6.4,0,0,0,0-.76,18.11,18.11,0,0,0-.54-2.2A46.23,46.23,0,0,0,122,25.1c-1-1.51-4.58-4.93-4.17-6.8"/><path class="cls-3" d="M158.85,74.88a26.58,26.58,0,0,0-2.43-8.61,26,26,0,0,0-5.36-7.77,17.7,17.7,0,0,0-3.48-2.65,10.58,10.58,0,0,0-1.81-.84c-.42-.14-.84-.14-1.25-.27a9.57,9.57,0,0,1,2.2-.24c.76-.06,1.52-.14,2.28-.25,1.6-.21,3.2-.49,4.8-.79,3-.55,5.95-1.2,9-1.48a153,153,0,0,0,24.64-4.17c13.8-3.6,30.95-3.88,44.81-.18,16.17,4.31,34.64,16.94,47.16,28.78,18.81,17.81,35.68,36.13,40.05,63.84,1.68,10.66,4.78,22.14,4.3,32.91-.07,1.56.21,3.3,0,4.75-2.56.07-5.08-.47-7.61-.37a77.68,77.68,0,0,0-8.43,1.18,163.6,163.6,0,0,0-21.9,4.69c-3.35,1-6.27,2.47-9.6,3.37-4.28,1.13-8.67,1.89-12.89,3.29-4,1.34-8.28,1.57-12.28,2.91-3.12,1.05-5.42,2.22-7.16-1.91-1.16-2.74-.87-6.24-1.84-9.16-1.57-4.75-2.91-9.6-4.62-14.3-4.71-13-8.88-28.47-16.45-39.6,3.28,10.25,8.87,18.86,11.3,29.63,1.57,7,6.86,22.28,4.23,29.1-8.47-5.92-20.47-6.28-29.86-9.09-4.78-1.42-12.91-4.94-15.68-9.64-3-5.12-5.06-12.37-7.71-17.95-11.21-23.57-32.29-39.67-47.4-58.29,8.87-.3,24.34-3.21,23-16.89"/><path class="cls-2" d="M179.33,133a33,33,0,0,1,23.93-9c7.11.23,14.41,2.91,18.86,9-.11.22.22.49.38.58l.05,0a18.53,18.53,0,0,1,1.51,2.66.24.24,0,0,0,.1.1c.26.6.53,1.2.8,1.81l-.39,0h-.19a13,13,0,0,0-1.52-1.45c-6.68-5.52-16-4.69-23.53-2.11-6.48,2.2-13.33,6-18.06,11.6a98.44,98.44,0,0,0-5.42-8.89,23,23,0,0,1,3.48-4.37"/><path class="cls-2" d="M196.66,145.86c7.8-1.42,16.32-1.37,23.84,1.6a23.33,23.33,0,0,1,5.31,2.87,14.13,14.13,0,0,1,2.33,2.12,10,10,0,0,0,.7.94c.3.27.76.35,1.09.65a11.85,11.85,0,0,1,1.26,1.07,13.32,13.32,0,0,1,1.84,2.58c.36.79.35,1.94.64,2.86.19.63,1,2.83.51,3.34-.45-.09-.58-.78-.94-1.07a9.66,9.66,0,0,0-1.35-.95c-.48-.27-.73-.62-1.22-.89a37.54,37.54,0,0,0-8-3.74,43.88,43.88,0,0,0-23.92.12,38.11,38.11,0,0,0-10.69,4.69c-1.59-3.87-3-8-4.68-11.6a41.62,41.62,0,0,1,13.27-4.59"/><path class="cls-2" d="M199.47,164.4c8.06-1.8,16.58.32,23.75,4.53a40.46,40.46,0,0,1,14,13.29c0,.33-.63,4.59-.71,4.52-8.47-5.92-20.47-6.27-29.86-9.09-4.73-1.41-12.71-4.86-15.57-9.48a23.91,23.91,0,0,1,8.43-3.77"/><path class="cls-2" d="M210.17,90.48a105.73,105.73,0,0,0,3.33-17.81c.89-9.19.63-18.79-1.86-27.68,2.28,0,4.54.14,6.79.32.2.48.4,1,.58,1.46,4.05,10.8,3.57,23.37,1.63,34.64-.95,5.46-2.1,11.3-4.37,16.3-2.69,5.92-6.85,10.8-9.68,16.61a.24.24,0,0,0,.06.3l-.73-.23a33.59,33.59,0,0,0-5.35-1,10.48,10.48,0,0,1,1.35-4.13c.86-1.75,1.8-3.44,2.75-5.11a39.73,39.73,0,0,0,3-6c.88-2.54,1.74-5.07,2.46-7.68"/><path class="cls-2" d="M234.69,48.35a83.38,83.38,0,0,1,12.54,5.2c-.08.81-.15,1.62-.24,2.43a60.78,60.78,0,0,1-2.12,10.2,133,133,0,0,1-8.14,19.94,96.69,96.69,0,0,1-10.68,17.71,73.71,73.71,0,0,1-6.54,7.33c-2.15,2.08-4.58,4-6.24,6.6a23.6,23.6,0,0,0-2.76-1.6c3.5-6.65,8.24-12.35,11.84-18.92a100.16,100.16,0,0,0,7.77-19,105.2,105.2,0,0,0,4.57-29.9"/><path class="cls-2" d="M216.69,120.15a.22.22,0,0,0,.19,0l1-.66c5.64-3.68,11.41-7.23,16.6-11.67a70.43,70.43,0,0,0,13.58-16.1A119.24,119.24,0,0,0,261.3,61.93c4.2,2.86,8.22,5.92,11.93,9-5.68,12.21-14.67,22.31-24.1,31.07-2.43,2.25-4.88,4.52-7.44,6.57a50.1,50.1,0,0,1-7.85,5c-5.17,2.75-10.68,5.05-15.23,9a23.29,23.29,0,0,0-2.15-2.29,2,2,0,0,1,.23-.14"/><path class="cls-2" d="M277.06,100.52a168.35,168.35,0,0,1-17.43,12.15,146.85,146.85,0,0,1-18.55,9.71c-6,2.63-12.2,5.18-18.62,6.29a.32.32,0,0,0-.14.08,25.13,25.13,0,0,0-2-3.79l.31-.09a108.81,108.81,0,0,0,17.74-7,105.92,105.92,0,0,0,17.11-11.08,79.07,79.07,0,0,0,14.82-14.71c3.61-4.84,5.95-10.55,8.94-15.8l.11.1c3.9,3.68,7.7,7.39,11.33,11.2-4.45,4.42-8.83,8.95-13.64,12.9"/><path class="cls-2" d="M298,115.5a152.67,152.67,0,0,1-37.17,16c-6.27,1.73-12.61,3.34-18.95,4.75a90.26,90.26,0,0,1-10,1.72c-1.67.17-3.34.29-5,.31h-.27c-.76-1.63-1.54-3.22-2.37-4.76.21,0,.41,0,.61,0a28,28,0,0,0,4.48-1,141.66,141.66,0,0,0,20-6.2c6.67-2.74,13.32-5.64,19.84-8.8A104.63,104.63,0,0,0,286.8,107c4.21-3.17,8.31-6.55,12.7-9.4a111.85,111.85,0,0,1,8.25,11.55c-3.17,2.28-6.43,4.42-9.75,6.39"/><path class="cls-2" d="M310.56,137.74C303.65,140,296.62,142,289.63,144s-14,4.1-21.1,5.94c-6.84,1.78-13.76,3.12-20.61,4.88-2.76.72-5.5,1.49-8.3,2.07a26.3,26.3,0,0,0-5.47,1.39c-.76-2.23-1.53-4.49-2.32-6.73,1.53-1.45,4.86-.5,6.52-.18a30.22,30.22,0,0,0,8.6.3,80.5,80.5,0,0,0,19.79-4.05,113.8,113.8,0,0,0,17.81-8.41c6.1-3.47,12.32-6.65,18.59-9.74,3.95-1.95,7.87-3.93,11.72-6.09a79.43,79.43,0,0,1,3.7,12.32c-2.62.84-5.39,1.23-8,2.09"/><path class="cls-2" d="M320,174c-3.24.18-6.47.23-9.69.57a165.93,165.93,0,0,0-20.23,3.65c-6.88,1.63-13.75,3.34-20.54,5.38-6.29,1.9-12.56,3.91-18.81,6-1.7.56-3.4,1.16-5.06,1.85a23.5,23.5,0,0,0-1-2.81c-.9-2-1.65-3.91-2.34-5.86l1.77-.29c2.75-.43,5.5-.72,8.26-1.08a176,176,0,0,0,18.32-4c7-1.75,14-3.58,21-5.24,3.3-.77,6.61-1.53,10-2,3-.47,6-.83,9.06-1.25a70.75,70.75,0,0,0,12.79-2.75q.53,3.69,1,7.37a33,33,0,0,1-4.42.5"/><path class="cls-2" d="M252.25,157.8c5.61-.66,11.26-.9,16.85-1.88,7.09-1.25,14.15-2.72,21.22-4.15,6.38-1.31,12.72-2.52,19.2-3.22a70.46,70.46,0,0,0,11-1.73c.39,2.42.79,4.88,1.18,7.35-4.32.56-8.68.75-13,1a74.48,74.48,0,0,0-18.75,3.25c-6.27,2.06-12.35,4.87-18.7,6.63-3.45.95-7,1.69-10.44,2.58a64.59,64.59,0,0,0-10,3.58c-3,1.36-6.15,3.07-9.35,4-.47.14-.94.25-1.4.35-.8-2.62-1.63-5.27-2.61-8-.63-1.73-1.25-3.5-1.86-5.29,5.13-2.88,11-3.87,16.71-4.52"/><path class="cls-2" d="M205.56,45.11q.27.87.51,1.77c6,23-4.42,46.65-14,66.6a42.71,42.71,0,0,0-6.23,1.26,23,23,0,0,1,1.19-2.31.2.2,0,0,0,.1-.07c4.53-7.1,7.46-15.43,9.58-23.73a129.43,129.43,0,0,0,4.16-33c0-3.36-.19-6.74-.53-10.12,1.72-.17,3.46-.3,5.21-.39"/><path class="cls-2" d="M186.31,58c1.61,7.22,1.26,14.88.13,22.14a99,99,0,0,1-6.76,23.56c-2.92,6.79-6.57,13.43-11.48,18.69-.72.78-1.47,1.53-2.26,2.24-2.51-2.9-5.09-5.71-7.69-8.48a34.05,34.05,0,0,0,3.86-4.58,71.85,71.85,0,0,0,8.37-15.91,99.33,99.33,0,0,0,5.41-19.37,65,65,0,0,0,.8-18.72,35.34,35.34,0,0,0-1.58-7.13c2.45-.41,4.9-.87,7.39-1.41a25,25,0,0,1,3.81,9"/><path class="cls-2" d="M163.46,68.47a57.75,57.75,0,0,1-2,21.38c-1.81,6.39-4.68,12.88-9.33,17.35-.43.41-.88.79-1.33,1.16-5.25-5.49-10.41-10.92-15-16.59,8.86-.3,24.33-3.21,23-16.89-.8-8.35-6.83-18.5-14.47-20.28,3.65,0,8.48-1,12.8-1.77,4,3.92,5.69,10,6.28,15.64"/><path class="cls-1" d="M53.24,259.52c-.73-.51-1.45-1-2.17-1.56-1.39-1-2.78-2-4.24-3a15.62,15.62,0,0,1-2.74-1.77,6.16,6.16,0,0,0-1.16-.74,17.8,17.8,0,0,0-1.64-.94c-.9-.4-1.76-.9-2.65-1.3-.64-.3-1.3-.56-2-.82a8.92,8.92,0,0,0-1.83-.66,5.47,5.47,0,0,1-1.59-.64l-1.89-.93a37.94,37.94,0,0,0-7.24-2.78,11.38,11.38,0,0,0-3.81-.61,3.15,3.15,0,0,1-1.51-.22c-.7-.25-1.41-.42-2.12-.64a12.13,12.13,0,0,0-2-.35,28.53,28.53,0,0,0-3.7,0,17.61,17.61,0,0,1-5.06-.64,6.63,6.63,0,0,1-3.75-3.82c-.34-.86-.7-2-.18-2.83a3.88,3.88,0,0,1,2.31-1.42,4.59,4.59,0,0,1,1.11,0c.29,0,.64.09.9-.15s.37-.46.2-.67-1-.44-1.31-.56c-1.5-.5-3.25-.88-4.35-2.21A3.26,3.26,0,0,1,0,228.41a1.85,1.85,0,0,1,.22-1.35c.36-.49,1-.39,1.52-.36a13.39,13.39,0,0,1,2,.41c.73.15,1.45.28,2.17.5s1.41.61,2.12.88c.56.21,2.06.42,2-.66,0-.62-.71-1.08-1.14-1.32-.77-.44-1.56-.82-2.32-1.29a13.43,13.43,0,0,1-2.46-1.95,25.49,25.49,0,0,1-2.26-2.38c-.38-.5-.95-1.25-.64-1.93a1.59,1.59,0,0,1,1-.88,4.32,4.32,0,0,1,3.9,1.1,17.19,17.19,0,0,1,2.31,2.21,13.57,13.57,0,0,0,1.78,1.85c.67.5,1.95.89,2.18-.32.26-1.47-.91-2.85-1.71-3.84A24,24,0,0,1,7.24,213a9.39,9.39,0,0,1-.83-3,1.42,1.42,0,0,1,.49-1.16c1.09-1,2.57-.11,3.51.67a7.18,7.18,0,0,1,1.7,1.69,13,13,0,0,1,.85,1.49c.3.65.49,1.33.76,2a7.85,7.85,0,0,0,1.11,1.78c.32.43,1.16.92,1.39.1a5.78,5.78,0,0,0-.34-2.84,12.88,12.88,0,0,1-.42-4.67,17,17,0,0,1,.57-2.73,7.67,7.67,0,0,1,1.68-2.59,5.4,5.4,0,0,1,3.64-2,5.89,5.89,0,0,1,3.95,1.67A8.52,8.52,0,0,1,27,205.52a4.9,4.9,0,0,1,.47,2,8.78,8.78,0,0,1-.26,1.82,15.68,15.68,0,0,0-.07,2.37A18.12,18.12,0,0,0,27.8,215a22.3,22.3,0,0,0,.91,3.22c.25.61.51,1.2.81,1.78a14.73,14.73,0,0,0,.61,1.35,11.54,11.54,0,0,0,2.42,2.82c4.21,3.44,9.21,5,14.08,6.84a10.75,10.75,0,0,0,3.88,1c1.31-.07,2.4-1.05,3.57-1.83,1.61-1.08,5.32-2.71,5.69-4.68.23-1.24-.36-3.51-.45-4.85-.09-1.77-.36-3.57-.61-5.32-.56-4-1.13-8-1.75-12a114.44,114.44,0,0,0-4.05-17.06c-1.84-5.87-2.82-12-4.5-17.85-1.58-5.56-2.17-11.26-3.23-16.92s-2.48-11.28-3.28-17c-.47-3.42-.82-6.89-1.16-10.34s-1-6.82-1.26-10.31c-.63-9.42,3.63-18.1,8.85-25.27C52.1,83.34,57.09,79.25,63,77.69,75.49,74.38,88,82.33,97.15,91c18.23,17.18,27.36,49.55,38.76,73.28,6.12,12.74,12.46,25.4,17.8,38.57.53,1.31,1.09,2.62,1.58,3.95.74,2,1.86,3.87,2.75,5.82,1.87,4,4,7.63,5.7,11.62,2.44,5.59,5.14,11,6.83,17,.47,1.67,1,3.65.43,5.33s-1.66,2.65-2.64,3.88A62.66,62.66,0,0,1,155,263a109.9,109.9,0,0,1-10.78,6.52c-1.06.54-2.11,1.54-3.32,1.35-1.67-.25-2.55-2.26-3.17-3.74-2-4.86-3.85-9.76-6.13-14.52-2.49-5.16-4-10.59-6.2-15.86-2.82-6.74-4.94-13.71-8-20.34-2.71-5.82-4.32-12.2-7.35-17.8-1.51-2.79-2.14-6.25-3.23-9.26s-2.55-6.15-3.68-9.27c-2-5.36-3.84-10.78-6-16.1C92.52,152.64,87,141.64,82.94,130.15c-1.49-4.2-3.2-8.38-4.88-12.42-.55-1.31-.58-2.21-1.77-2.28a3.33,3.33,0,0,0-2.94,2c-.85,1.47-.43,2.34-.44,3.94s-.36,3.26-.24,4.82c.26,3,.59,6,1,9,.83,5.58,2.52,11,4,16.29,1,3.69,1.72,7.37,3,11a93.65,93.65,0,0,1,3.14,10.75A78.58,78.58,0,0,1,85.58,188c.1,4.78.23,9.54-.12,14.23-.36,4.52-1.26,9-1.34,13.52a23.55,23.55,0,0,0,1,6.88c.66,2.51.51,5.13,1.28,7.63.65,2.1,1.78,3.94,2.49,6a104.92,104.92,0,0,1,2.92,11.25,19.46,19.46,0,0,1-.92,10.82c-1.43,3.4-3.38,4.91-5.92,6.95a20.2,20.2,0,0,1-17.1,3.62c-2.53-.67-5.44-2.42-7.78-3.69-2.67-1.43-4.39-3.95-6.83-5.66"/><path class="cls-1" d="M161.61,150.29q6.75,10.62,13.58,21.16,4.19,6.41,8.44,12.76,2.13,3.18,4.29,6.33c1,1.43,1.66,3.13,2.66,4.51,1.66,2.26,3.36,4.39,5,6.65.92,1.29,1.68,2.64,2.69,3.83.8.94,1.54,2,2.33,3a9.37,9.37,0,0,1,2,3.81,33.6,33.6,0,0,0-1-4.74c-.53-2.32-1-4.72-1.41-7.07-.38-2.59-.8-5.17-1.13-7.76-.31-2.43-.63-4.83-.87-7.23-.18-1.75-.22-3.51-.4-5.26-.25-2.53-.27-5-.57-7.48-.11-1-.19-3.69.66-4.38a2.47,2.47,0,0,1,1.41-.27c.84,0,1.71-.05,2.54,0,1.39.09,2.72.25,4.09.21a43.69,43.69,0,0,1,4.73.2,22.7,22.7,0,0,1,7,2c2.84,1.21,5.2,3.43,7.81,5.05,1.05.65,2,1.47,3,2.12a4.72,4.72,0,0,1,1.58,1.4,17.17,17.17,0,0,0,2.24,2.27,15.43,15.43,0,0,1,1.86,2.37,10.38,10.38,0,0,1,1.73,3.25,19,19,0,0,1,.29,4.76c0,2.49.35,5,.43,7.47.05,1.46-.16,2.91-.22,4.39-.06,1.33.11,2.67,0,4-.18,1.89.35,3.69.51,5.63s.34,3.89.49,5.82a57.45,57.45,0,0,1,.05,11.58c-1,8.32-4.32,17.48-6.75,25.4-2.28,7.43-2.23,19.17-7.3,25.16-11.23.1-15.6-13.07-21.49-21.47-6.23-8.89-13.25-16.78-19.43-26.17-11.82-18-21.79-37.24-32.1-56.3-11.4-21.09-25.52-40.58-39.59-59.28-6.78-9-12.46-21-22.35-26.48-7.83-4.33-17.06-7.64-24.28,0a17.15,17.15,0,0,0-2.8,4.74c-.9,2-1.28,5.47-3.25,6.62-4.42,2.56-3.36-7-3.16-9.29s2-9.79-1.69-9.23c-2.39.36-5.8,4.66-7,6.63a56,56,0,0,0-4.65,10.18,45.93,45.93,0,0,0-2.19,11.14A14.73,14.73,0,0,1,38,117.65c-.77,1.62-1.54,2.67-2.22.47-.86-2.81-.54-7.42.12-10.14.4-1.64,2.75-7.78.15-8.13-2.36,3.61-3.6,8.24-5.11,12.27a39.08,39.08,0,0,1-2.64,6.39c-1.24,2.11-2.4,2.12-2.73-.66-.27-2.13-.57-4.22.14-6.29s2-4.29,2.77-6.42a65.42,65.42,0,0,1,3.07-6.58c.78-1.63,2.37-4.37,2-6.22-3-.68-5.76,7.8-6.85,10.06A51.69,51.69,0,0,1,20.4,113c-3.36,4.18-3-2.47-2.18-4.93A82.36,82.36,0,0,1,22.71,97.6a54.76,54.76,0,0,1,5.56-9.79A103.5,103.5,0,0,1,35,79.67c2.23-2.41,4.26-5.41,6.54-7.46a16.73,16.73,0,0,1,4.18-3c2.22-1,4.64-.75,7-1.25s3.45-1.64,5.18-3c3.46-2.83,9.1-2,13.14-1.44,9.62,1.35,18.67,5.92,26.69,11.77a106.32,106.32,0,0,1,18.7,17.69c15.49,18.48,31.86,36.35,45.21,57.38"/><path class="cls-2" d="M303.94,300.43c-11.58,21.7-33.14,30.35-54.33,34.83-21.78,4.6-43.57,2.05-64.46-5.48-24.84-8.94-36.55-25.11-44.93-51.53-1.62-5.12-4-11.53-3.13-16.74,10.16-2.53,24.88-13.94,30-23.69-.14.28,12,8.81,13.13,9.54a102.12,102.12,0,0,0,14.57,8.53,43.92,43.92,0,0,0,14.84,4.27c5.13.39,9.61-1.24,14.49-2.57a50.6,50.6,0,0,0,7-2.33,15.31,15.31,0,0,0,7.42-7.29c1.91-3.76,4-7.35,5.89-11.25,1.05-2.19,2.37-4.39,3.21-6.69.45-1.25,1.67-3.71,1.46-5,21.1,5.3,43,6.27,64.68,7.08,1.51.06,6-1.15,6.58.13s-.53,5.23-.71,6.57c-.22,1.59-.47,3.39-.72,5.06-.61,4.18-1.24,8.27-2.24,12.38s-1.89,8.12-2.92,12.14c-.84,3.25-1.2,6.2-1.73,9.43-1.26,7.73-4.55,15.86-8.14,22.58"/><path class="cls-3" d="M314,239.93a7.88,7.88,0,0,0-.28,2.12,8.56,8.56,0,0,0-3.42-.06c-1,.08-2.45-.43-3.37-.13.24-1.06-.19-1.76.69-2.4.48-.35,1.74-.06,2.3-.05a21.79,21.79,0,0,0,4.12-.27,1,1,0,0,1-.61.06"/><path class="cls-3" d="M299.89,240.18a7,7,0,0,0-.34,2.4c-2.27-.83-5.5-.5-7.73-.48.31-.94-.09-1.57.54-2.31a59.21,59.21,0,0,1,6.7.43l-.4-.11"/><path class="cls-3" d="M282.72,239.57c-.35.66-.14,2-.46,2.93-2.07-.64-4.59.14-6.55-.14-.27-2.29,0-2.15,1.9-2.31a23.72,23.72,0,0,0,4.36-.4"/><path class="cls-3" d="M268.8,241c-.2-.05-.24.15-.43-.08-.16.56-.34,1.17-.49,1.74-2.27-.37-4.83-1.39-7.07-1.12a13.88,13.88,0,0,1,.47-2.05c1.07.43,2.31,0,3.45.14a28.6,28.6,0,0,1,4.13,1.1"/><path class="cls-3" d="M254.28,238.63c-.52.59-.81,2-1.37,2.44-.82.65-1,.07-1.91-.27-1.27-.5-3-.42-4-1.47,1.49-3.61,4.4,1.16,6.64,0"/><path class="cls-3" d="M245.17,236.34c-.44.89-.83,1.85-2,1.45a10.25,10.25,0,0,1,1.27-1.64"/><path class="cls-3" d="M319.29,238.58a3.64,3.64,0,0,0-.48-.94c-.37.82-1.66,1.41-1.76,2.23a10.82,10.82,0,0,0,1.38,3.24c.18-.63.72-1.51.83-2a10,10,0,0,1,.37-1.89"/></g></g></svg>