<svg xmlns="http://www.w3.org/2000/svg" viewBox="0 0 312.45 321.15"><defs><style>.cls-1{fill:#007293;}.cls-2{fill:#e30613;}.cls-3{fill:#1d1d1b;}.cls-4{fill:#fff;}</style></defs><g id="Ebene_2" data-name="Ebene 2"><g id="Ebene_1-2" data-name="Ebene 1"><path class="cls-1" d="M145.74,204.14c.61-.08,1.87-2.2,2.63-3.16,1.25-1.58,2.75-3,4.21-4.54,2.38-2.48,4.35-4.78,7.37-5.79,4.43-1.48,8.13-4.57,12.24-6.65a6.47,6.47,0,0,0,2.73-1.83c.83-1.13.67-2.16,1.8-3.06,2-1.59,5.34-.54,6.74,1.2,1.57,1.95,1.92,4.27,3.71,6.2s4.11,3.74,5.09,6.36a6.79,6.79,0,0,1,.19,4.93c-1.5-.13-1.42-2.55-2.45-2.51-.69,0-1.12,1.82-1.62,2.17-2.08,1.46-4-2.06-4.36-4.23-1.14-.57-2.21.08-3.4-.26-.87,1.92,0,4.47.13,6.47.17,2.41-.1,5,.07,7.5.2,3,1,5.74.66,8.8-.16,1.2-3.3,12.42-4,12.22-3.8-1-4.15-2.93-5.84-6.4-1.86-3.85-5.72-6.4-9.16-8.79-2.42-1.68-4.34-4.21-6.93-5.44-2.24-1.06-6.75-2.15-9.05-1.27"/><path class="cls-1" d="M269.72,150.72c1.85-.83,3.69-1.67,5.5-2.51,4.64-2.17,9.1-4.69,13.61-7.05,2.4-1.26,4.51-3,6.83-4.37A29.58,29.58,0,0,1,303,134a17.05,17.05,0,0,0,3.64-1.51c1.54-.88,3.49-1.8,4.54-3.31s1.29-4.33,1.29-6.13c0-1.38-.66-2.75-.84-4.11-.31-2.27,0-6-2.54-7.16-2.24-1-4.67.71-6,2.37s-1.45,4.62-3.51,5.77c-.23-2.63,2.17-9.46-3.08-6.68-2.8,1.48-3.68,7-4.42,9.73-1.18,4.28-4.46,5.94-8.05,7.91-3.32,1.82-6.33,3.69-10,4.79a81.92,81.92,0,0,1-10.75,2.19,62.66,62.66,0,0,0-10.86,2.6c-2,.71-4,1.62-6,2.48-1.64.72-3.29,1.19-4.94,1.88a11.69,11.69,0,0,1-3.15,1.16c-2.55.29-5.26-.13-7.89,0-4.13.13-8.23.39-12.38.53a59.28,59.28,0,0,0-15.29,2.15c-3.18,1-6,2.44-9.31,2.84-5.53.66-11.15,1-16.73,1.46-2.91.26-5.82.61-8.72.88a19.31,19.31,0,0,0-5.86,1.79,92,92,0,0,1-14.81,5c-4,1.11-8.05,3.5-9.25,7.67a56.94,56.94,0,0,0-2.17,18.12,8,8,0,0,1,.12,1.81c.51-2.31,1.43-4,3.76-4.28a36.39,36.39,0,0,0,7.36-1.48c5.5-1.8,10.8-4.24,16.48-5.47,7.47-1.63,14.77-3.59,22.35-4.82,4.36-.7,8.71-1.45,13.08-2.07a54.61,54.61,0,0,0,9.45-1.93c2.14-.69,4.17-1.47,6.36-2,3.74-1,7.52-2.94,11.11-3.54,4.11-.68,8-1,12.11-2.1,3.45-.9,7-1.43,10.48-2.22A113.49,113.49,0,0,0,269.72,150.72Z"/><path class="cls-1" d="M151,224.16c.28-6.75,1.41-21.69-9.71-19-2.7.65-6.29,2.79-9.11,1.27-.85-.46-1-.89-1.15-1.95a10,10,0,0,1,1.13-6.32c2-3.7,4.31-6.94,3.54-11.39-.72-4.23-1.31-8-.54-12.37a27.1,27.1,0,0,1,1.82-5.94c.66-1.53,2.18-2.91,2.53-4.52-3,.44-7.43-.72-10.21-1.92a20.64,20.64,0,0,1-7.82-5.29c-5.19-5.73-1.38-13.84-5.14-19.94a9.48,9.48,0,0,1-.69,2.54c-.31,1.11-.31,2.3-.6,3.41-.5,1.89-1,3.84-1.6,5.72a25,25,0,0,1-2.46,4.63,10.53,10.53,0,0,0-1.16,4.74c-.57,5.21-4.6,9.16-9.27,11.07A17.94,17.94,0,0,1,93,170.28a20.87,20.87,0,0,0-3.47-.33c-1.45.19-3,1.08-4.47,1.47-4,1.1-8.36,1.87-12.54,1.14-1.34-.23-3.27-1.35-4.62-.92-1.52.48-2.58,2.85-3.16,4.16-.83,1.87-.6,4.13-.51,6.08a16.68,16.68,0,0,0,1.46,6.45c1.19,2.39,3.82,5,3.82,7.81,0,3.16-3.4,5.32-5.82,6.68-1.24.7-2.44,1.51-3.74,2.15a29.93,29.93,0,0,0-4,1.83,18,18,0,0,0-4.56,5.47,32,32,0,0,0-4,10.93c-.81,4.55-1.94,8.62-1.3,13.16a45.9,45.9,0,0,0,1.15,6.1,22.34,22.34,0,0,0,1,2.59c1,2.26,3,3.87,4.47,5.8A124.23,124.23,0,0,0,60.67,261c3.34,3.63,6.3,8.29,9,12.43,2.27,3.47,4.42,7.16,6.82,10.61,5.23,7.48,11.05,12.39,19.8,14.88,4.44,1.26,8.68,2.79,13.28.67,3.35-1.54,5.59-4.69,8.2-7.09a65.36,65.36,0,0,0,14.16-19.77c3.17-6.55,7-11.85,10.93-17.92,3.06-4.76,6.3-9.76,7.52-15.37C151.42,234.59,150.82,229.1,151,224.16Z"/><path class="cls-1" d="M165.7,113.08a27.13,27.13,0,0,0-4-3.6c-2.85-2.1-6-4.51-9.26-5.92a30.54,30.54,0,0,0-6.94-1.73c-4.46-.8-9.73.06-13.3,3a30.25,30.25,0,0,0-6.43,6.55c-.48.73-5.14,8.45-4.93,8.66a4.08,4.08,0,0,0-4.27-.81c-1.94.57-3.3,2.9-4.37,4.46a15,15,0,0,0-2,13.17c.6,2.11,1.89,3.93,2.56,6a37.1,37.1,0,0,0,3,6c1.92,3.6,3.24,7.89,6.15,10.86a24.15,24.15,0,0,0,4,3.8,15.32,15.32,0,0,0,9.28,2c2.52-.31,4.62-1.28,7.11-1.9,1.62-.4,3.1-.19,4.22-1.39.81-.86,1.46-1.93,2.31-2.73a16.37,16.37,0,0,1,2.12-1.32c2.12-1.46,4.19-2.85,6.42-4.18,1.7-1,4.15-1.89,4.09-3.87,0-.4-.48-.28-.33-.93.1-.46.69-.72,1-1,.9-.85,1.78-1.68,2.75-2.45,4.32-3.42,5.36-8.61,6.28-13.77.48-2.68,1-5.06.44-7.72A23.8,23.8,0,0,0,165.7,113.08Z"/><path class="cls-2" d="M173.22,125.37c0-.16,0-.31,0-.47-.17-4-1.84-8.21-3.72-11.83a24.27,24.27,0,0,0-8.26-9.13c-1.08-.71-2.16-1.23-3.23-1.94a16.4,16.4,0,0,0-3.76-1.46c-1.82-.64-3.7-1.62-5.46-2.16-4.86-1.51-10.09-2-15-3.35-3.77-1-8.8-3-12.11-.29a22.58,22.58,0,0,0-4.55,5.59,94.49,94.49,0,0,0-5.89,10.27,59.07,59.07,0,0,0-2.64,7.83c-.87,3-2.08,5.83-2.52,8.91a27.42,27.42,0,0,0,.53,10.86c.27,1,.34,2.09.63,3.1a3.06,3.06,0,0,1,.22.95,6,6,0,0,0,.06,1.53,2.9,2.9,0,0,0,.25.61,6.92,6.92,0,0,1,.59,1.44,12.26,12.26,0,0,1,.08,1.36c0,.38,0,.76,0,1.14a10.13,10.13,0,0,1-.08,1.46,3.48,3.48,0,0,1-.34,1.15c-.12.23-.41.5-.43.76s.32.46.54.57c.42.21.85.38,1.28.56a2.45,2.45,0,0,1,.57.32,2.69,2.69,0,0,0,.32.27,1.33,1.33,0,0,0,.52.17,3.55,3.55,0,0,1,.71.26l.77.26a6.5,6.5,0,0,0,1.07.29,13.19,13.19,0,0,0,2.51-.06c.16,0,.35,0,.37-.22s-.09-.32-.11-.48a4.37,4.37,0,0,0-.36-1,6.38,6.38,0,0,1-.19-.72c-.15-.8-.26-1.61-.4-2.42a7.29,7.29,0,0,1-.15-1.13,12.21,12.21,0,0,1,.06-1.48c.17-2,.74-4,1.09-6a68.81,68.81,0,0,1,2.11-8.75c.44-1.38.72-2.81,1.2-4.19,1.11-3.18,1.23-6.6,3.3-9.42,1.4-1.9,4.71-2.17,4.86.77,1.11-1,1.79-3.14,2.89-4.39a11.33,11.33,0,0,1,1-1c.3-.27.63-.51.91-.81a3.44,3.44,0,0,0,.44-.68c.35-.58,1.09,0,1.34.42a2.61,2.61,0,0,1,.22.61c.23.63,1.23.53,1.74.46.66-.08,1.31-.3,2-.34a32.56,32.56,0,0,1,7.89.46,39.11,39.11,0,0,1,12.57,4.67,13.69,13.69,0,0,1,5.57,6c.46.9.95,1.79,1.35,2.72a7.63,7.63,0,0,1,.74,2.92,12.9,12.9,0,0,1-.11,1.86,5.36,5.36,0,0,1-.26,1.12l-.39,1.25a1.91,1.91,0,0,1-.4.74c-.17.19-.37.34-.54.53a6.4,6.4,0,0,0-.7,1,7,7,0,0,0-.63,1.33,11.59,11.59,0,0,1-1.91,3.67c-.93,1.2-2.28,2.3-2.81,3.77-.36,1,.58,1.3,1.6,1.08-.43.09-.69,2.48-.85,2.95a6.71,6.71,0,0,1-1.33,2.26,31,31,0,0,1-3.91,3.69,51,51,0,0,1-5.22,3.85c1.73.87,4.68-1.63,6.07-2.51,2.83-1.78,5.11-4.17,7.93-5.92,3-1.87,4-5.56,5.76-8.5,1.06-1.83,2-3.85,2.93-5.75,2.37-4.61,2.65-11.63-.26-16.08a34.25,34.25,0,0,1-3.93-7,17.23,17.23,0,0,0-7.07-9.09c-3.67-2.18-7.49-3.86-11.83-4a78.06,78.06,0,0,0-8.5.54,18,18,0,0,0-12.69,6"/><path class="cls-3" d="M143.36,218.15c-.42-4.93-1.17-9.48-3.34-14-.41-.84-1-1.41-1-2.24,2.57-.12,4.11,2.81,6.35,3,2.89.32,5.73-2.45,8.79-2.2,2.67.21,5.63,2,8,3.18,5.4,2.67,10.28,6.22,13.47,11.39,1.42,2.31,4.12,6.81,3.64,9.75s-4.28,6.38-6.23,8.52c-2.83,3.09-6.19,5.58-9.06,8.57-2,2.07-4.55,3.45-6.3,5.72-2.28,3-4.7,5.94-7.17,8.87-3.4,4.05-7.12,8.6-11.17,12s-9.18,5.59-13.7,8.26a39.39,39.39,0,0,1-13.36,5.08c-9.75,1.55-18.19,0-28-1.8-16.33-2.93-25.78-13.62-34-27.08-2.84-4.66-5.75-11.47-4.21-17,.9.41,1.39,1.56,2,2.36,1.63,2,3.78,3.7,5.55,5.58a64.73,64.73,0,0,0,6,5.32c2.75,2.28,5.15,4.93,7.91,7.21,2.19,1.81,4.3,3.68,6.52,5.47,2.42,2,4.59,4.17,7.49,5.39A55.82,55.82,0,0,0,95,273c9.24,1.46,18.17-.83,26.3-5,2.84-1.47,5.18-3.87,7.53-6,3.31-3,6.14-7.24,8.49-11,3.43-5.51,6.56-11.48,7.17-18C144.93,228.07,143.77,223,143.36,218.15Z"/><path class="cls-2" d="M101,156.6a30.74,30.74,0,0,1-6.46,6c-4.87,3.24-10.85,3-16.34,4.29-3.78.87-7.29.63-10.48,3.23-2.16,1.76-4.13,4.52-4.32,7.37,0,.61-.16,1.22-.2,1.83a11.06,11.06,0,0,0-.07,1.91c0,.4.23.74.31,1.13.28,1.22.05,2.59.23,3.85a13.33,13.33,0,0,0,1.05,3.18,5.54,5.54,0,0,0,2.07,2.09c.76.59,2.23,1.52,2.33,2.58s-1.11,2.29-2,2.86A25.85,25.85,0,0,1,64.57,198a32.2,32.2,0,0,0-3.42,2.54c-3.21,2.23-7.32,4-9.68,7.19-2,2.78-1.77,7-1.64,10.19a21.89,21.89,0,0,0,2.37,9.52c1.77,3.19,3.5,6.47,5.48,9.54,1.81,2.8,3.58,6.17,6.26,8.2a53.85,53.85,0,0,0,14.68,7.58c5.53,2,11.74,3.69,17.69,2.94,2.7-.34,5.56-.28,8.18-1.09a55,55,0,0,0,6.78-2.82,63.11,63.11,0,0,0,7.65-3.88,22.1,22.1,0,0,0,5.36-5.34c2.46-3.19,4.16-6.87,6.06-10.39a95.38,95.38,0,0,0,5.65-11.7c1.23-3.31,6.45-14.57,3.23-17.72-.94-.92-3.22-.3-4.14-1.64-1.79-2.58,1.92-5.68,2.8-8.2a22.51,22.51,0,0,0,1.46-6.52c.1-2.46-1.06-4.91-.65-7.33a10.54,10.54,0,0,1,1-2.73c.45-.94.7-2,1.13-2.88.32-.68,2.35-10,1.67-10.18-1.21-.39-1.7.13-2.8.51-.88.3-2,.19-2.82.66-2.55,1.51-2.56,5.19-3.21,7.69a11.88,11.88,0,0,0-.3,2.43,14.4,14.4,0,0,1-.24,2.61,30.88,30.88,0,0,1-7.26,13.28,6.81,6.81,0,0,1-5.59,2.16c-1.47,0-3.4,0-4.63-.9a7.8,7.8,0,0,1-2.47-3.94,38.42,38.42,0,0,1-1.93-9.74,60.07,60.07,0,0,1,.31-6.29c.14-2.07-.15-4.14,0-6.21.07-.95.2-1.9.29-2.84a19.63,19.63,0,0,0,0-3c0-.56-.08-1.12-.13-1.68-.07-.76-.13-1.52-.17-2.28a6.43,6.43,0,0,0-.16-1.52,5,5,0,0,0-1.83-2,6.93,6.93,0,0,0-2.61-1.1,15.47,15.47,0,0,0-2.85-.57,6.85,6.85,0,0,0-.11.91,6.93,6.93,0,0,1-1,2.77C102.37,155.08,101.69,155.83,101,156.6Z"/><path class="cls-1" d="M64.66,142.34c1.78,2.8,3.5,5.65,5.13,8.57a24.2,24.2,0,0,0,4.15,5.94,18.71,18.71,0,0,1,4.44,5.08,34,34,0,0,0,3.15,5.4c2.83,3.57,8.25,1.86,12.14,1.26,3.16-.48,6.81,0,9.11-2.63s2.8-6.57,3.07-10c.48-6.14-3.06-9.93-6.47-14.63s-8-8-11.77-12.21C82.78,123.7,77.19,118.84,72,113.74c-3.9-3.86-7.65-8-11.45-11.92-2-2.12-3.59-4.56-5.77-6.58a28,28,0,0,0-4.2-3c-1.92-1.21-1.84-1.43-1.53-3.67.28-2,.43-4.1.62-6.14a92.74,92.74,0,0,0,.46-12.8A54.26,54.26,0,0,0,49.34,62c-.86-4.51-1.08-9.06-1.84-13.6a84.36,84.36,0,0,0-2.79-10.83c-1-3.25-2.49-6.53-2.08-10,.25-2.08.49-4.68,1.42-6.57.78-1.58,2.29-2.54,3.38-3.87,1.53-1.86,3.6-4.78,3.69-7.2-3.16-1.45-5.25,4-7.39,4.91-.72-2.69-.78-5.46-2-8-1-2.11-3.39-5.65-5.4-6.85-1.88,1.32,2.41,7,1.36,9.3C33.82,9.48,34,0,29.24.32c-.62,2.48.3,3.86,1.72,5.93,1.21,1.77,2.68,3.7,1.74,6-1.81.17-10.91-9.88-11.5-6.11-.28,1.76,3.36,4,4.45,5.21s3.21,3.34,2.5,5.14c-1-.1-7.69-2.37-7.4-.4.09.63,3.13,2.19,3.62,2.54,1.1.79,2.39,1.6,3.39,2.49,1.71,1.52,2.71,3.68,3.71,5.74,1.67,3.42.78,6.54.35,10.09-.5,4-.82,8.16-1.27,12.24C29.78,56.09,29.61,63.07,29,70a85.85,85.85,0,0,0,.22,18.14c.48,3.76,1.06,9,3.48,12-2.48,3.11,5.4,8.59,7.65,10.38A75.1,75.1,0,0,1,47,115.94c1.62,1.64,2.78,4,4.06,6C55.58,128.79,60.29,135.43,64.66,142.34Z"/><path class="cls-4" d="M129.41,130.53a4.52,4.52,0,0,1,1.6,0,5.16,5.16,0,0,1,1.92.47,9.38,9.38,0,0,1,1.87,1.51,7.33,7.33,0,0,0,.81.77,5.17,5.17,0,0,1,.92.67c.28.33-.09.78-.38,1l-.25.18c-.14.07-.3.09-.44.16s-.36.2-.54.28a4,4,0,0,1-.57.22,3.53,3.53,0,0,1-2.83-.76,19.11,19.11,0,0,1-2.21-2.1c-.3-.29-.57-.6-.89-.87a5.29,5.29,0,0,1-.53-.64c-.08-.09-.17-.17-.26-.26s-.22-.13-.23-.18.3-.18.41-.19a5.57,5.57,0,0,0,.79-.17"/><path class="cls-4" d="M149.19,140.75a2.67,2.67,0,0,1,1.22-.18,3.36,3.36,0,0,1,.61.14,9.78,9.78,0,0,1,1.56.67,5.93,5.93,0,0,1,1.13.7,5.4,5.4,0,0,1,.92.93,4.12,4.12,0,0,0,.48.54c.13.11.22.23.36.33s.15.18.3.21-.12.27-.19.38-.19.31-.28.46a1.8,1.8,0,0,1-.33.4,4.23,4.23,0,0,1-.89.63,4.1,4.1,0,0,1-3.39.17,5,5,0,0,1-1.45-1,4.5,4.5,0,0,1-1-1.17,3.76,3.76,0,0,1-.35-.83,8.93,8.93,0,0,1-.23-.89,2.71,2.71,0,0,1-.16-1c.05-.31.38-.47.64-.59a1.86,1.86,0,0,1,.43-.2,2.09,2.09,0,0,1,.5,0,5.42,5.42,0,0,1,1.82.37c.12.06.23.14.36.2l.63.28a5.07,5.07,0,0,1,1,.5,5.64,5.64,0,0,1,.72.66,2,2,0,0,0,.44.32l.19.16c.06,0,.15.09.22.14s.3.3.46.43a2.7,2.7,0,0,0,.4.25,3.37,3.37,0,0,0,.32.19"/><path class="cls-3" d="M147.49,141.43a1.52,1.52,0,0,1,.76-1,2.48,2.48,0,0,1,.65-.27l.16,0a.33.33,0,0,1,.14,0,2.51,2.51,0,0,0,.27,0c.2,0,.41,0,.61,0s.54,0,.81,0l.35-.05a1.11,1.11,0,0,1,.25,0c0,.07-.12.17-.17.23s-.2.13-.23.23c.29.07.49.36.76.49a1.42,1.42,0,0,0,.91,0c.12,0,.25,0,.13.1s-.19.2-.17.3.14.09.22.09a2.49,2.49,0,0,1,.72.08c.27.09.56.11.83.19a1.8,1.8,0,0,1-.57.25c0,.31.29.49.53.59a4,4,0,0,0,.49.15,1.67,1.67,0,0,1,.4.07c-.07.09-.55.15-.43.31s.25.13.33.17a1.49,1.49,0,0,0,.45.15l.31,0a.88.88,0,0,1,.23,0,.88.88,0,0,1-.71.11,3,3,0,0,0,.72.29,1.28,1.28,0,0,0,.61.09,1.14,1.14,0,0,1-.56.17,5.47,5.47,0,0,1-.57,0,.82.82,0,0,1-.49-.16c-.17-.17-.28-.38-.45-.55a5.29,5.29,0,0,0-1.42-1c-.72-.35-1.42-.75-2.16-1.06a4.32,4.32,0,0,0-1.94-.38c-.25,0-.48.07-.72.1a2.11,2.11,0,0,0-.43.12,2.26,2.26,0,0,0-.42.26.25.25,0,0,0-.11.35c.07.13.16.24.24.36a10,10,0,0,0,.76,1.08,4.86,4.86,0,0,0,1.6,1.24,9.5,9.5,0,0,0,2.26.74,7.37,7.37,0,0,0,.82.13,1.62,1.62,0,0,0,.72-.13,8.18,8.18,0,0,0,.87-.32,2.65,2.65,0,0,0,.4-.24,2.51,2.51,0,0,1,.32-.25,2.14,2.14,0,0,1-.06.35,2.54,2.54,0,0,1-2,1.56,6.36,6.36,0,0,1-1.51.17,3.18,3.18,0,0,1-.62,0c-.16,0-.31-.13-.47-.17a2.47,2.47,0,0,1-.41-.14,3.22,3.22,0,0,1-1-.6c-.3-.3-.58-.62-.88-.93a3,3,0,0,1-.68-1,6.18,6.18,0,0,1-.23-.73,3.79,3.79,0,0,1-.11-.66,2.73,2.73,0,0,1-.06-.64,1,1,0,0,1,.07-.35c0-.08.16-.1.25-.13"/><path class="cls-3" d="M130.57,129.75c0,.25.17.43.33.65-.46-.33-1.15-.49-1.28-1.1a3.58,3.58,0,0,0,.5,1.13,1.67,1.67,0,0,1-1.47-1.11,1.2,1.2,0,0,0,.44,1.13c-.49.05-.83-.63-1-1,0,.3-.2.61,0,.85-.44-.12-1.23.3-.58.62.27.13,1.08-.29,1.39-.34a6.59,6.59,0,0,1,3.15.65,10.19,10.19,0,0,1,4.54,3.27c-.64,0-1.44,1.09-2.22,1.17a5,5,0,0,1-2.85-1,7.64,7.64,0,0,1-2.13-1.83,5.86,5.86,0,0,1-.74-.84,2.51,2.51,0,0,0-.87-.81,3.61,3.61,0,0,1-.39-.22c.13.16.34.27.49.43a4.19,4.19,0,0,1,.63,1,8.48,8.48,0,0,0,1.05,1.64c.4.44.9.76,1.3,1.18a3.82,3.82,0,0,0,1.43,1.09,3.68,3.68,0,0,0,1.55,0,4.52,4.52,0,0,0,1.48-.6,2.67,2.67,0,0,0,.66-.5,3.87,3.87,0,0,0,.54-.67,1.16,1.16,0,0,0-.09-1,8.76,8.76,0,0,0-.49-1.13c-.17-.29-.32-.58-.49-.85a3,3,0,0,1-.25-.66,2.29,2.29,0,0,0-.06.58,3.83,3.83,0,0,1,.09.56c-.31,0-.57-.31-.76-.53a4,4,0,0,1-.46-.74,2.13,2.13,0,0,0-.33-.61,7.36,7.36,0,0,1,.12.82c0,.15,0,.26-.19.2a1.63,1.63,0,0,1-.45-.38,2.92,2.92,0,0,0-1.36-.56,2.22,2.22,0,0,1-.5-.1A5.47,5.47,0,0,1,130.57,129.75Z"/><path class="cls-3" d="M131.24,133.32a.64.64,0,0,0,.46-.8,1.72,1.72,0,0,0-.67-1,2.53,2.53,0,0,0-.84-.34,1,1,0,0,0-.29,0c-.42.08-.67.8-.69,1.16,0,.8,1.3,1.22,1.92,1a1.25,1.25,0,0,0,.33-2.07,1.6,1.6,0,0,0-2.45.9c-.22.7-.4,1.38.2,2a2.13,2.13,0,0,0,2.45.24,2.38,2.38,0,0,0,1.59-2.6c-.15-.73-1-1.55-1.77-1.3"/><path class="cls-3" d="M150.46,144.64a1.85,1.85,0,0,0,1.17-1.38.29.29,0,0,0,0-.09,2.1,2.1,0,0,0-.81-1.84,1.56,1.56,0,0,0-1.77-.37,1.42,1.42,0,0,0-.65,1,2.24,2.24,0,0,0,.91,2.61,1.79,1.79,0,0,0,2.12-.57,3,3,0,0,0,.9-1.46,1.24,1.24,0,0,0-1-1.67,2.46,2.46,0,0,0-2.61.87c-.68,1.19-.76,3.51.92,3.79"/><path class="cls-4" d="M140,126.67c.31.54.88,4,1.67,2.49.46-.89-.51-2.92-.95-3.69-.76-1.36-1.66-3-3.08-3.72a7.69,7.69,0,0,0-4.33-.86c-1,.11-2.81.42-3.36,1.42C133.73,122.83,138,123,140,126.67Z"/><path class="cls-1" d="M113.57,295.05c4.18,1.41,9.64-4.23,12.15,1.53.64,1.48.29,5.25,2.65,5.43,2.61.21,2.23-4,2.76-5.88a.73.73,0,0,1,.86.15c-.6,2.19,1.54,3,2.94,1.43s-.09-3.75,0-5.16c1.41.37,1.9,1.14,3.31,1.49,3.67-4.21-3-4-5.29-5.24s-3.41-5.47-5.92-6.32c-5.36-1.83-12.47,8.58-14.47,12.29a5.71,5.71,0,0,0,3.14.14"/><path class="cls-2" d="M138.78,157a.29.29,0,0,1,0-.09,2.65,2.65,0,0,1-1,.48,17,17,0,0,0-1.7.34,7.54,7.54,0,0,1-3.86,0c-.45-.15-.84-.41-1.28-.57a3.78,3.78,0,0,1-1.57-.86,11.87,11.87,0,0,1-1.14-1.48c-.43-.6-1.18-1.9-1-2.65,0,.23.92,1.19,1.07,1.4a5.32,5.32,0,0,0,1,1.08,16.52,16.52,0,0,0,3.07,1.79,8.66,8.66,0,0,0,3.43.81c.82,0,2.56.21,3.19-.33a4.18,4.18,0,0,0-.87-.7"/><path class="cls-3" d="M145.17,131.36c.53,1.07-1.12,3.44-1.6,4.42-.89,1.82-1.93,3.59-2.75,5.45-.69,1.59-1.66,3-2.43,4.58-.51,1.05-.66,2.34-2.08,2.46a8.83,8.83,0,0,1-2.94-.22c2.31.42,4.37,2.51,6.78,2.62-.21-1.14-.92-1.71-.44-2.93s1.26-2,1.75-3.07c1.27-2.72,2.44-5.47,3.84-8.12.76-1.43,2.63-3.54,2.81-5.16.11-1-.71-1.59-1.48-2.23-1.55,1.2-1.76,4.15-2.6,5.75"/><path class="cls-4" d="M149.56,135.08a11.13,11.13,0,0,0,1-.67,7.9,7.9,0,0,1,2-.53,8.09,8.09,0,0,1,3.25,0c2.22.48,3.85,3.94,3.38,6.07-.92-1.59-1.69-3.09-3.44-3.76-1.33-.51-4.83-1.78-5.66-.3"/><path class="cls-2" d="M129.42,153.45a5.75,5.75,0,0,1-.9-1.78c1.72.69,3.59,1.17,5.36,1.86a13.48,13.48,0,0,1,2.85,1.65,11.58,11.58,0,0,0,1.76,1.06c-.14.11-.38.09-.56.13s-.56.2-.84.27a5.18,5.18,0,0,1-2.33-.23,14.33,14.33,0,0,1-3.65-2.06c-.51-.32-1-.61-1.53-.95-.22-.15-.76-.46-.75-.73"/><path class="cls-1" d="M83.1,116.91c-.07.13-.1-6.71.64-9.51a28.13,28.13,0,0,1,6.38-11.7,18.87,18.87,0,0,1,15.23-6.55c2.56.06,6.64.12,8.81,1.62.89.61,1.28,1.66,2,2.39,1.22,1.17,2.93,1.62,4.25,2.66s1.79,2.42,2.34,4c1.39,4.09,1.85,8.54,2.59,12.77a43.11,43.11,0,0,1,1,11.37c-.21,2.54-.74,5-1.17,7.53a14.93,14.93,0,0,1-1.81,4.85,44.36,44.36,0,0,1-5.79,8.91c-4.07,4.75-10,8.23-16.13,5.17-13.56-6.72-20-23.3-17.62-37.67"/><path class="cls-3" d="M125.87,129.67a15.93,15.93,0,0,1,.57-2.64,35.2,35.2,0,0,0,.93-7.16,31.69,31.69,0,0,0-.41-7c-.32-3-.7-5.88-1.06-8.79l-.09-.76c-.25-2,.14-4.17-.63-6.09-.91-2.31-3-4.46-4.86-6.06-1.46-1.28-2.53-2.94-4.14-4a40.72,40.72,0,0,0-5.6-2.61c-2.16-1-3.54-1.65-6-1.64-2.16,0-4.6.46-6.82.21-5.14-.57-8,1.34-12,4.32A31.84,31.84,0,0,0,77,97a20.73,20.73,0,0,0-2.68,10.11c.1,7.71,3.44,15.94,6.41,22.93,1.62,3.8,4.94,7,7.6,10A12.2,12.2,0,0,0,87,137a54.05,54.05,0,0,1-4.11-9.28c-.25-.88-.63-1.48.32-1.87,1.59-.66,2.7-.62,2.27-2.46a14.12,14.12,0,0,1,0-5.38,8.46,8.46,0,0,1,.62-2.6c.48-.59,1.86-.24,2.5,0a33,33,0,0,1,3.94,2.08,46.23,46.23,0,0,0,5.08,2,28,28,0,0,0,4.34,1.16c.75.13,2.12.64,2.8.34-.08-1.43-4-4.64-2-5.63a7.33,7.33,0,0,1,1.7-.23,19,19,0,0,0,2.24-.75,21.51,21.51,0,0,1,7.4-.71,33.51,33.51,0,0,1,3.57.81,15.94,15.94,0,0,1,4.31,1.08,5.27,5.27,0,0,1,2,1.8c1,1.35.5,3,.52,4.57a30.69,30.69,0,0,1-1.22,7.43c-.64,2.86-1.11,5.82-1.63,8.7a5.16,5.16,0,0,1,1-2.56c.49.44.31,2.41.35,3.08,0,.86-.23,2.22.38,2.86.58-2.42,1.4-4.69,1.85-7.14C125.54,132.76,125.64,131.2,125.87,129.67Z"/><path class="cls-3" d="M101.33,134.18c-.1.11-.78-1.3-.81-1.42a6.13,6.13,0,0,0-1.13,2c-.51-.35-.12-1.64-.8-2-.45.34-2.14,2-2.57,1.56-.23-.25-.18-1.23-.22-1.56s-.15-.8-.2-1.2c-.72-.35-1.74.64-2.54.27a2.78,2.78,0,0,1,.94-1.66c.45-.41.68-.1,1.19.15a15.64,15.64,0,0,0,3.06,1.07c1.44.35,4.6,1.06,5.47-.7a23.36,23.36,0,0,0,.84,3.13c-.92,0-1.39-.88-2-1.41A19.31,19.31,0,0,1,101.33,134.18Z"/><path class="cls-3" d="M119.54,128.08a7.93,7.93,0,0,0,.33,3.15c-.36-.28-.89-.42-1.21-.73-.25.87-.34,1.81-.59,2.68-.65-.6-.11-1.6-.95-2.11a4.51,4.51,0,0,1-1.52,3,6.33,6.33,0,0,0-.66-2c-.24.35-.3.83-.55,1.2a7.17,7.17,0,0,1-1.15,1.25,6.9,6.9,0,0,0,.08-2.48,9.35,9.35,0,0,1-1.92,1.48,12.52,12.52,0,0,1,.85-2.17c-.36.22-1.51.72-1.9.56,0-.6,1.33-1.53,1.86-1.63.73-.13,1.57.35,2.33.33a6.57,6.57,0,0,0,3-.85C118,129.55,119.48,128.73,119.54,128.08Z"/><path class="cls-2" d="M102.52,143.84c2.23.4,4.19,1.4,6.48.69a8.57,8.57,0,0,0,1.94-.6c.42-.24,1.45-.73,1.42-1.34-.46-.2-1,.23-1.4.41a9.21,9.21,0,0,1-1.87.59,7.58,7.58,0,0,1-3.27.42,4.33,4.33,0,0,1-1.66-.53,4.35,4.35,0,0,0,1.08,0c.38,0,.76.08,1.16.12a7.59,7.59,0,0,0,2.72-.37,20.12,20.12,0,0,0,3.56-1.11c-.66-.14-1.31.16-2,.05s-.82-.45-1.27-.67-.57-.1-.94.25-.7.46-1.27.09-.6-.43-1.19-.13c-1.2.6-2.36,1.36-3.46,2.05"/><path class="cls-3" d="M94.18,126.65a7.18,7.18,0,0,1,4.4-1c1.77.08,4-.25,5.73,0,.35,3.62-8.7-.2-10.1,2.43"/><path class="cls-3" d="M117.94,124.89c-.59.1-1.17.26-1.76.36a8.57,8.57,0,0,0-1.6.23,4.14,4.14,0,0,1-3,.31,4.78,4.78,0,0,1,.39-.74c1.55,0,2.83-1,4.27-1.42a5,5,0,0,1,2-.14c.4.06,1.63.32,1.67.87S118.34,124.82,117.94,124.89Z"/><path class="cls-3" d="M81.94,131.16A14.32,14.32,0,0,0,83,134.21a21.32,21.32,0,0,1,.92,4,23.56,23.56,0,0,0,2,5.57c.62-.8.54-2.64.83-3.74,1.17.56,2.19,2.61,2.93,3.68a8.19,8.19,0,0,0,.92,1.32,10.37,10.37,0,0,0,1.62.94c.69-2-1-3.3-2.17-4.61-1.45-1.6-3.56-4.2-4-6.3"/><path class="cls-1" d="M154.92,207.52c.88,4.34,3.48,8,5.45,11.9,2.31,4.58,4.39,9.29,6.28,14.06,4.94,12.51,8.12,25.76,14.07,37.91,2.18,4.45,6,7.9,7.92,12.37a22.13,22.13,0,0,0,6.71,9c2.46,2,4.86,4.71,8,5.75,2.59.88,7.55,0,9.27,2.67,2.68,4.1-3.76,1-4.62,1.66-3.13,2.32,7.31,3.23,3.52,5.07-1.28.62-2.71-2.15-3.9-.85s1.51,2.2,2.24,2.49c.31,3.16-2.69,0-3.56.09-2.41.17-1.06,1.86.34,2.49,2.88,1.3,5.9.93,4.68,5.24s-5.58,4.34-9.19,3c-4.79-1.82-6.49-5.82-10.15-9.13a38.09,38.09,0,0,0-9.29-6.18c-5.32-2.56-5.35-5.92-6.25-11.43-.69-4.21-2.83-8.09-3-12.23-.18-3.71-3.11-7.25-5.14-10.16-2.37-3.4-5.35-6.18-8.12-9.21a57.65,57.65,0,0,1-12.4-20.39c-1.24-3.66-2.23-7.41-3.59-11a35,35,0,0,1-2.49-9.23c-.21-2.87-.14-5.33-1.15-8.19a24.81,24.81,0,0,1-1.32-6.85c-.16-2.73,1-4.64,2.24-7,.67-1.23,1.37-2.76,2-4a8.56,8.56,0,0,1,1.27-2.44c1.81-1.31,5.77,4.48,6.54,5.67A26.6,26.6,0,0,1,154.92,207.52Z"/><path class="cls-1" d="M36.71,227.55a73.52,73.52,0,0,1,10.4-26.45c2.26-3.57,4.89-6.89,7.29-10.35,1.41-2,3.08-5.87,6.2-4.87A5.35,5.35,0,0,1,64,188.82c.6,1.43.54,3,1,4.41a8.79,8.79,0,0,1,.12,2.61,13.32,13.32,0,0,1-.27,2.65,51.11,51.11,0,0,1-1.27,5.95c-.26.87-.4,1.79-.68,2.66s-.67,1.88-.94,2.84c-.53,1.91-1.15,3.8-1.52,5.78-.27,1.42-.51,2.85-.8,4.27-.15.73-.31,1.46-.5,2.18a13.1,13.1,0,0,1-.71,1.64c-1.14,2.73-2.34,5.43-3.53,8.14-.68,1.55-1.36,3.09-2,4.64a71.79,71.79,0,0,1-5.8,10.17,62.37,62.37,0,0,0-8.37,20.86c-.56,2.65-1.86,5.34-2,8s.77,5.55-.5,8.31a11.23,11.23,0,0,1-5.93,5.64c-2.66.92-5.81.34-8.55,1.25-1.41.48-2.6,1.41-3.93,1.91C14.25,294.12,3,303.19.42,296.35c-1.91-5.12,3.14-4.89,5.52-6.91C4.23,288.18,3,288.19,1.09,288c0-2.52,2.59-1.06,3.23-2,1.29-2-1.94-1.2-3-1.52-.45-3.28,3.78.08,4-2.77-1.22-.32-2.53-.47-3.75-.79-.45-3.35,3.17-1.62,5-1.44a13.26,13.26,0,0,0,6.33-1.18c4.19-1.75,10.21-3.64,12.42-7.91,2.87-5.54,4.83-12.83,5.91-19C32.64,243.41,35.28,235.67,36.71,227.55Z"/><path class="cls-3" d="M45.4,190.84c-2.85,2.46-6.09,5.1-8.23,8.22-1.68,2.45-2.45,6.16-3.52,9-2.88,7.55-5.17,15.47-5.29,23.6a12.08,12.08,0,0,0,.88,5.51c.54,1.28,1.71,2.75,2,4,.92,3.85-2.33,7-2.46,10.57,2.38.88,4.54,2.6,6.75,3.92,1.42.85,5.62,5,7,2.69.55-1,.06-2.88.5-4,.61-1.63,2-2.85,2.49-4.54,3.32.23,4.28-.72,5.74-3.31,1.84-3.27,4.42-5.83,5.83-9.41a49.36,49.36,0,0,0,1.83-7.18c.63-2.72,1.52-5.45,2-8.21.63-3.61,1.64-7.21,2-10.87a29.38,29.38,0,0,1,2.78-11c.79-1.55,2.13-2.55,3.18-3.87,1.45-1.84-.06-2.91-1.46-4.15-3.61-3.21-3.7-8.63-4-13.11a4.83,4.83,0,0,1,0-.85,1.74,1.74,0,0,0,0-.55A15.52,15.52,0,0,1,60.89,180a26.87,26.87,0,0,1-4,2.13,34.28,34.28,0,0,0-6,4C49.12,187.71,47.24,189.25,45.4,190.84Z"/><path class="cls-3" d="M146.69,249.35c.62.92,1.25,1.83,1.9,2.71,2.23,3,5,4.93,6.76,8.39,2.21,4.46,4.75,9.3,9.82,10.95,1.57.51,3.09.16,4.19,1.6.93,1.21,1.43,3.07,2.16,4.36a9.69,9.69,0,0,0,1.3,2.12c.59.34,1.44-.11,2.22-.37,1.9-.62,3.5-1.76,5.43-2.29,1.64-.46,3.44-1,2.71-3.25-.8-2.45-2.83-4.4-3.59-6.8-.65-2,1.35-3.16,1.54-5.3a19.2,19.2,0,0,0-1-6.82c-1.41-5.06-3.22-9.83-4.4-14.94-1.31-5.62-2.77-10.9-4.32-16.45-.84-3-2.46-5.22-4-7.87a43.4,43.4,0,0,0-4.06-5.83,19.76,19.76,0,0,1-1.63-1.8,26.39,26.39,0,0,1-1.44-3c-1.91-4-3.75-8.22-6.61-11.71a14.38,14.38,0,0,0-4.57-4c-2.36-1.14-5,2.48-5.79,4.41a40.83,40.83,0,0,0-2.16,9.06c-.21,1.54-.19,3-.47,4.56s-.73,3.17-1.13,4.74a28.65,28.65,0,0,1-.82,2.88c-.36,1-.82,2-1.08,3s-.51,2.22-.69,3.35c-.55,3.54,1.78,7.5,2.54,11s1.47,7.16,3.14,10.42A68.12,68.12,0,0,0,146.69,249.35Z"/><path class="cls-4" d="M148.53,193a17.85,17.85,0,0,0,3.15-2c-.47-.54-1.09-1-1.62-1.54a2.72,2.72,0,0,0-2.34-1c-4,.51-3.81,5-5.15,7.77a15.93,15.93,0,0,0,5.2-2.73C148,193.35,148.28,193.19,148.53,193Z"/><path class="cls-4" d="M139.48,212a48.38,48.38,0,0,0,7.75-2.18,64.51,64.51,0,0,0,8.88-3.94c.89-.48,3.16-1.23,3.7-2.14.17-.3-.18-1.17-.3-1.48a16.41,16.41,0,0,0-1.38-2.35,27.28,27.28,0,0,1-1.65-2.61c-.21-.46-.28-1.06-.86-1.1-.79-.06-2.67,2.16-3.1,2.71a13.14,13.14,0,0,1-3.52,2.73,26,26,0,0,1-4.09,2.12,26.57,26.57,0,0,1-4,1,22.24,22.24,0,0,1-.27,2.38c-.28,1.61-.73,3.17-1.13,4.74A.83.83,0,0,1,139.48,212Z"/><path class="cls-4" d="M165.17,212c-1-1.33-2-2.62-3-3.89-1.28,5.3-7.24,9.13-12.22,10.57a19.36,19.36,0,0,1-12.45-.42c-.21.92-.4,1.84-.55,2.77a10.87,10.87,0,0,0,.54,4.74C147.53,232.32,162.58,223.12,165.17,212Z"/><path class="cls-4" d="M144,244.91c10.43,5,23.53-3,29.8-12.81-.62-2.32-1.25-4.64-1.91-7A28.5,28.5,0,0,1,159.8,234a36.87,36.87,0,0,1-12.05,2.54c-2.47.09-5.32.07-7.52-1.15a30.51,30.51,0,0,0,2.38,7.07C143,243.25,143.51,244.08,144,244.91Z"/><path class="cls-4" d="M154.34,258.76c8.82.41,18.25-3,24.15-9.39-1-3-1.9-6-2.65-9a37.38,37.38,0,0,1-8.16,7.77c-5.29,3.72-12.17,6.73-18.58,4.59C150.82,254.84,152.81,256.51,154.34,258.76Z"/><path class="cls-4" d="M167.76,271.94a49.28,49.28,0,0,1,7.66-3.73c1.34-.69,2.71-1.33,4.09-1.92-.22-1.73,1.44-2.86,1.62-4.82a11.43,11.43,0,0,0-.06-2.41,27.16,27.16,0,0,1-5.83,4.82c-3.85,2.34-10.25,5.05-15.24,4.06a12,12,0,0,0,5.17,3.46C166.08,271.69,167,271.71,167.76,271.94Z"/><path class="cls-4" d="M67.35,191.72a11.67,11.67,0,0,1-3.41-6.94,22.25,22.25,0,0,1-2.25-5.53c-.37.38-.69.69-.8.78a26.87,26.87,0,0,1-4,2.13l-.08.05a26.06,26.06,0,0,0,10.64,15.12c.45-.47.91-.94,1.32-1.46C70.26,194,68.75,193,67.35,191.72Z"/><path class="cls-4" d="M55.2,197c-2.77-2-6.33-4.87-7.12-8.41-.89.75-1.79,1.5-2.68,2.27s-2.13,1.82-3.2,2.78c3.53,7.91,12.45,12.3,21,13.9a29,29,0,0,1,1.33-5.28A47.29,47.29,0,0,1,55.2,197Z"/><path class="cls-4" d="M35.9,201.5c-.88,2.12-1.5,4.55-2.25,6.52L33,209.85c8.4,6.1,17.39,12.11,27.49,13.94.17-.71.32-1.42.44-2.14.32-1.79.72-3.59,1.09-5.39C52.13,214.89,44,207.88,35.9,201.5Z"/><path class="cls-4" d="M47.43,229.93a58.78,58.78,0,0,1-9.92-5.47c-2.52-1.72-4.82-3.88-7.33-5.65a62.24,62.24,0,0,0-1.42,7.42A73.37,73.37,0,0,1,35,230.49a80.3,80.3,0,0,0,8.45,5.18,37.46,37.46,0,0,0,12.3,4,17.52,17.52,0,0,0,1.3-2.6,26.2,26.2,0,0,0,1.19-4.23A36,36,0,0,1,47.43,229.93Z"/><path class="cls-4" d="M44.62,244.6c-3-1.71-5.95-3.56-8.78-5.56a85.19,85.19,0,0,0-7.41-5,10.4,10.4,0,0,0,.81,3.1c.32.75.85,1.56,1.3,2.36,3.85,2,7.06,5.08,10.93,7.09,2.1,1.1,4.26,2.08,6.42,3a4.22,4.22,0,0,0,2.65-2C48.53,246.69,46.55,245.7,44.62,244.6Z"/><path class="cls-1" d="M77.76,174.46c1.85,5.14,5.39,10.41,10.24,12.83a10.18,10.18,0,0,0,3.84,1.12,8.41,8.41,0,0,1,3.8.59c1.3.71,5.69,2.93,4.83,4.84a2.63,2.63,0,0,0-.47-.06c-1,.22-2.94-1.39-3.79-.48s.82,2.53,1.47,3c2.29,1.84,5.37,2.33,7,4.88,1,1.49.56,2.25-1.18,1.94a15.18,15.18,0,0,1-4.15-1.29c-.84-.42-3.68-2.67-4.57-1.63s1.53,2.74,2.1,3.2a29.09,29.09,0,0,1,4.36,3.86c1.24,1.55,1.07,3.22-1,2a19.58,19.58,0,0,1-4.06-3.59c-.91-.95-2.24-2.93-3.67-3-1.74-.11-.24,2.14.3,2.95a21.69,21.69,0,0,0,3.26,3.44,10.49,10.49,0,0,1,2.33,3.21c.83,1.86-1,2.06-2.1.88a33,33,0,0,1-3.71-5.09c-.5-.79-1.85-4.2-3-4.08-2.23.24,1.43,6.72,1.83,7.88.27.77,1.72,3.66,1,4.44s-2.91-3.11-3.33-3.78a22.75,22.75,0,0,1-2.82-5.42,13.45,13.45,0,0,0-1.41-3.83,35.82,35.82,0,0,0-3.46-3.83c-1.47-1.64-2.82-3.39-4.24-5.07-3.83-4.52-6.75-10.21-9.16-15.61a39.17,39.17,0,0,1-3.32-10.38,15.53,15.53,0,0,1,0-4.86c.86-5.06.4-11,2.75-15.68,1.94-3.85,7.09,2.43,7.59,4.73a37.94,37.94,0,0,1,.63,7c.14,4.68.4,9.9,2,14.49Z"/><path class="cls-3" d="M70.22,152.6a3.74,3.74,0,0,0-1.73-.33,3.46,3.46,0,0,0-1.63.79,1.21,1.21,0,0,0-.46.81c-.06.24-.22.47-.3.71a5.33,5.33,0,0,0-.19.9c-.06.33-.19.6-.25.92a8.78,8.78,0,0,0-.25,1.76c-.14-.13-.28-.06-.44-.07a5.71,5.71,0,0,1-.71-.19c-.43-.11-.89-.2-1.31-.35a5.81,5.81,0,0,1-2.14-.84c-2.33-2.23-1-7.46-.73-10.19a31.62,31.62,0,0,1,1-5.29,5.77,5.77,0,0,1,.37-1.29,3.29,3.29,0,0,0,.3-.85,6,6,0,0,1,.28-.88,2.52,2.52,0,0,0,.52.62c.19.23.33.5.5.73.51.69,1,1.36,1.49,2.05.26.35.57.65.83,1s.46.65.71,1c.51.63.88,1.33,1.38,2,.66.86,1.23,1.84,1.81,2.77s1.4,1.95,2.09,2.93c.39.56.79,1.11,1.19,1.67.81,1.12,1.7,2.19,2.52,3.31s1.75,2.53,2.54,3.85c.43.72.8,1.48,1.24,2.19s.8,1.26,1.15,1.95c.19.38.45.73.61,1.12.06.17.41.82.34,1s-1,.35-1.28.43l-1.4.41c-.78.22-1.88.45-2.19-.55a16.4,16.4,0,0,1-.25-2.64c-.1-1,0-2-.12-3s-.34-2-.46-3A5.12,5.12,0,0,0,74,155.46a16.88,16.88,0,0,0-1.85-1.53A6.45,6.45,0,0,0,70.22,152.6Z"/><path class="cls-3" d="M138.9,186.82a3.81,3.81,0,0,1,.42-2.84,2.72,2.72,0,0,1,1.58-1c1-.36,1.93-.62,2.93-.89,1.58-.41,3.24-.66,4.85-.91,1.24-.2,4.57-2.28,5.32-.87.28.52.05,2.83.07,3.47,0,1.36-.69,8.5-3,8.18-.49-.07-1-.19-1.47-.3a7.07,7.07,0,0,0-1.36-.37,3.28,3.28,0,0,0,.09-1.16,4.38,4.38,0,0,0-.66-1.63,7.05,7.05,0,0,0-.7-1.18,8.8,8.8,0,0,0-2-1.48,5.88,5.88,0,0,0-1.79-.71c-.49-.12-1-.3-1.46.06a4.46,4.46,0,0,0-.69,1,14.18,14.18,0,0,1-1.57,2.1A3.7,3.7,0,0,1,138.9,186.82Z"/><path class="cls-1" d="M140.52,186.05c-1.06,1.12-1.29,2.88-2.14,4.22-1.23,1.92-2.31,3.91-3.36,5.95-.57,1.1-1.14,2.1-1.8,3.13-1.15,1.8-2,3.88-3,5.79-2.39,4.55-5.42,8.69-8.08,13.09-1.67,2.74-3.5,5.37-6.6,6.68-3.52,1.49-4.64-2.24-7.12-3.93-1.52-1-1.85.6-1.31,1.77.45,1,2.94,3.44,2.39,4.41a6.55,6.55,0,0,1-3.58-.64,24.76,24.76,0,0,0-4.08-2.16c-1.61-.5-3.34-.78-5-1.16-.68-.16-1.56-.66-1.78.26-.18.73.66,1.36,1.13,1.75a19.32,19.32,0,0,0,3.31,2.36c1.06.55,4.19.29,4.15,2.15s-3.25.95-4.27.71a21.28,21.28,0,0,0-6.07-.4c-1.28.08-3.91-.1-3.52,1.93.26,1.34,2.36,1.44,3.45,1.46,1.75,0,3.48.07,5.23.2.85.07,1.68.16,2.53.25.42,0,1.8,0,2.11.32,1.17,1.19-2.08,2-2.76,2.3a24.78,24.78,0,0,0-5.3,2.59c-1.06.72-2.84,2.47-.68,3.29,1.53.57,4-.75,5.38-1.25,1.1-.39,4.21-2.43,5.35-1.35.61.59,0,1.71-.21,2.42a7.26,7.26,0,0,0-.19,3.11c.39,1.75,1.9.67,2.69-.39a18.45,18.45,0,0,0,2-3.93c.82-2,2.69-2.73,4.58-3.57,1.15-.51,2.26-1.13,3.4-1.62,2.69-1.17,4.65-3.35,6.9-5.13a57.35,57.35,0,0,0,8.56-8.43,47.91,47.91,0,0,0,6.5-11.12c1.22-2.7,2.31-5.54,3.51-8.27s2.89-5.34,4-8.24c.78-2,3.35-5.58,2.91-7.74-.39-1.88-3.26-2.3-4.81-2.27a7,7,0,0,0-4,1.1A2.77,2.77,0,0,0,140.52,186.05Z"/></g></g></svg>