<?xml version="1.0" encoding="utf-8"?>
<!-- Generator: Adobe Illustrator 16.0.4, SVG Export Plug-In . SVG Version: 6.00 Build 0)  -->
<!DOCTYPE svg PUBLIC "-//W3C//DTD SVG 1.1//EN" "http://www.w3.org/Graphics/SVG/1.1/DTD/svg11.dtd">
<svg version="1.1" id="Ebene_1" xmlns="http://www.w3.org/2000/svg" xmlns:xlink="http://www.w3.org/1999/xlink" x="0px" y="0px"
	 width="334.394px" height="821.858px" viewBox="0 0 334.394 821.858" enable-background="new 0 0 334.394 821.858"
	 xml:space="preserve">
<g>
	<path fill="#245977" d="M269.532,322.367c2.93-0.941,6.412-1.527,9.24-2.523c3.396-1.197,7.117-2.787,10.76-3.357
		c3.385-0.531,6.686-1.49,10.062-1.889c3.338-0.393,7.008-1.578,10.064-1.678c5.223-0.17,4.695,3.535,5.041,7.58
		c0.354,4.145,1.184,8.168,0.879,12.518c-0.814,11.639-2.258,22.582-5.688,33.938c-3.055,10.117-4.459,20.755-7.123,30.998
		c-2.715,10.447-5.816,20.861-9.24,31c-3.744,11.091-7.477,24.057-14.012,33.847c-5.793,8.678-9.893,17.918-14.604,27.25
		c-2.545,5.039-6.459,11.933-5.648,17.83c0.742,5.387,2.451,10.602,4.404,15.779c1.611,4.27,2.416,8.609,4.988,12.461
		c1.986,2.973,3.627,8.504,8.25,7.725c3.672-0.619,10.225-3.645,13.275,0.338c1.34,1.75-0.396,5.818-1.281,7.391
		c-1.701,3.034-2.68,3.258-6.111,3.362c-2.604,0.08-4.434-0.205-6.68-0.865c-1.74-0.51-4.922-2.795-6.639-2.389
		c0.26,2.391-0.691,4.577-2.646,5.899c-1.762-1.545-4.213-6.063-6.576-5.899c0.166,1.911-0.361,3.674-2.039,4.811
		c-3.26-2.08-5.115-1.965-7.537-5.551c-1.76-2.606-4.281-5.202-5.508-7.958c-2.684-6.025-2.439-14.051-6.121-19.564
		c-2.998-4.486-10.924-8.766-7.301-15.514c1.422-2.646,3.588-3.344,5.461-5.279c3.215-3.323,3.789-8.088,5.014-12.287
		c1.688-5.775,4.266-11.375,6.287-17.051c2.844-7.988,4.801-15.409,7.605-23.386c2.695-7.665,3.969-14.832,5.627-22.855
		c1.672-8.094,4.82-15.666,6.975-23.342c1.85-6.6,4.842-13.363,6.539-20.186c0.934-3.752,7.629-17.939,4.219-20.712
		c-9.188,5.293-18.506,10.955-28.611,15.017c-10.68,4.295-25.582,13.256-37.637,8.617c-5.521-2.125-6.227-8.312-7.174-13.432
		c-1.484-8.033-1.352-15.806-1.404-23.941c-0.023-3.668,0.088-7.35,3.361-9.24c2.861-1.65,7.189-3.467,10.547-4.432
		c7.76-2.23,15.664-2.361,23.035-5.391C250.364,326.396,260.462,325.283,269.532,322.367z"/>
	<path fill="#245977" d="M167.484,305.304c3.336,3.57,0.146,15.018,0.83,19.662c0.824,5.594,1.578,11.51,2.551,17.078
		c0.527,3.016,0.717,6.006,1.062,9.025c0.391,3.406,1.273,3.271-1.895,5.506c-5.968,4.213-13.013,4.018-19.566,5.723
		c-4.486,1.168-9.635,3.656-13.408-0.143c-3.533-3.557-2.764-10.398-2.764-15.111c0-14.07-1.652-29.365,0.129-43.312
		c5.172,0.309,11.697-1.855,16.887-2.686c4.617-0.738,11.779,0.439,16.173-1.699"/>
	<path fill="#245977" d="M185.733,245.665c0.867-5.568,1.709-11.301,3.627-16.608c1.861-5.143,2.033-11.273,2.615-16.689
		c0.379-3.537,1.062-8.439-0.5-11.807c-0.699-1.508-1.9-2.006-3.486-2.262c-0.611-0.098-7.123-0.576-7.119-0.436
		c0.025,0.93-0.367,1.855-0.463,2.846c-0.121,1.217-0.312,2.305-0.49,3.508c-0.363,2.461-1.277,4.834-1.527,7.348
		c-0.799,8.045-0.197,15.895-0.098,23.868c-2.197-1.385-2.923-6.002-3.914-8.284c-1.309-3.021-2.982-6.008-4.723-8.844
		c-2.09-3.404-4.154-7.152-5.648-10.873c-1.332-3.312-2.285-6.59-4.02-9.746c-1.131-2.061-2.436-6.033-4.912-5.92
		c-3.398,0.156-5.652,3.404-7.617,6.031c-2.781,3.715-4.607,7.729-6.141,12.07c-1.068,3.02-2.34,6.977-1.025,10.057
		c1.197,2.805,3.541,5.398,5.248,7.947c3.779,5.633,7.502,11.086,11.977,16.161c4.812,5.455,8.13,12.359,13.566,17.318
		c2.494,2.273,4.803,4.678,6.824,7.406c0.754,1.018,2.135,3.885,3.637,3.766c0.205-1.43,0.102-2.535,0.572-3.871
		c0.455-1.293,0.852-2.775,1.018-4.209C183.853,258.212,184.763,251.892,185.733,245.665z"/>
	<path fill="#FFFFFF" d="M236.72,229.129l-219.6-70.324c3.059-21.029,31.643-91.094,33.311-94.039
		c4.016-7.123,13.045-17.008,19.23-21.32c4.209-2.914,41.586-9.027,45.422-8.302c3.837,0.723,15.072,6.65,29.108,16.876
		c14.047,10.236,15.941,19.912,17.826,33.717c3.255,23.746-11.678,72.057-11.678,72.057l94.315,35.076L236.72,229.129z
		 M62.724,134.843l36.835,9.613l18.234,4.996c0,0,7.666-18.172,8.814-22.258c1.143-4.092,5.964-24.385,5.781-26.15
		c-0.189-1.766-9.419-20.141-9.419-20.141S103.868,64.698,97.446,67.47c-5.767,2.469-11.181,7.773-13.052,11.354
		c-1.863,3.586-10.822,21.123-10.822,21.123L62.724,134.843z"/>
	<path fill="#245977" d="M164.595,176.934c5.299-0.018,12.828-2.027,9.863-9.072c-1.162-2.764-2.943-5.387-3.023-8.527
		c-0.098-3.842,4.158-4.168,6.109-6.775c1.58-2.115,0.416-2.82-0.98-4.779c-2.017-2.832-4.685-5.234-6.554-8.137
		c-1.818-2.822-2.314-5.365-3.014-8.59c-1.617-7.459-6.115-19.555-15.542-20.082c-10.328-0.58-22.591-0.789-30.3,7.17
		c-2.041,2.105-5.037,5.477-4.996,8.32c0.039,2.584,0.266,5.375,0.266,8.072c0,3.209,0.008,6.418,0,9.629
		c-0.014,7.039,1.984,13.633,5.25,19.846c2.598,4.943,5.473,9.72,7.09,15.001c1.027,3.352,1.875,7.324,2.072,10.826
		c0.162,2.895-1.084,5.137-1.615,7.873c-1.191,6.148,10.177,3.982,13.908,3.596c2.516-0.262,2.869-1.986,3.359-4.275
		c0.584-2.723,1.225-5.492,2.016-8.186c0.701-2.383,1.484-4.736,2.178-7.168c0.365-1.283,0.729-4.949,2.113-5.613
		c0.635-0.303,4.023,0.396,5.148,0.393C160.25,176.448,162.273,176.94,164.595,176.934z"/>
	<path fill="#FFFFFF" d="M163.441,151.89c1.14,0.377,1.529,1.953,1.98,2.936c0.629,1.361,1.4,2.693,2.484,3.742
		c0.877,0.848,1.402,1.586,1.809,2.764c1.105,3.205,1.973,6.514,3.604,9.509c0.402,0.744,0.531,1.576,0.918,2.271
		c-0.082-0.387,0.104-0.791,0.143-1.17c0.049-0.453-0.031-0.92,0.002-1.375c0.051-0.719,0.439-1.572,0.176-2.271
		c-0.111-0.293-0.395-0.564-0.525-0.881c-0.188-0.451-0.326-0.932-0.475-1.396c-0.615-1.936-1.07-3.916-1.566-5.885
		c-0.268-1.066-0.49-2.42-0.344-3.535c0.121-0.916,0.824-1.656,1.527-2.25c0.992-0.838,1.84-1.793,2.846-2.611
		c0.582-0.475,1.189-0.973,1.427-1.715c0.324-1.002-0.33-1.467-0.883-2.242c-2.017-2.832-4.685-5.234-6.554-8.137
		c-1.818-2.822-2.314-5.365-3.014-8.59c-1.617-7.459-6.115-19.555-15.542-20.082c-2.865-0.16-5.58-0.164-8.336,0.066"/>
	<path d="M115.663,311.931c-4.32-0.586-1.789-7.281-1.93-10.15c-0.186-3.831,0.893-7.559,0.867-11.358
		c-0.059-8.322,0.312-16.617,0.928-24.877c0.482-6.449,1.134-13.018,1.806-19.461c0.641-6.148,0.752-12.307,1.664-18.428
		c1.354-9.104,2.107-18.287,4.43-27.223c0.553-2.119,1.289-4.381,1.391-6.58c0.068-1.436-0.641-2.938-0.5-4.328
		c0.332-3.297,4.525-1.947,6.986-2.199c3.666-0.373,7.322-0.996,11.046-0.98c4.25,0.02,8.553-0.213,12.768-0.584
		c2.514-0.229,3.367,0.182,3.371,3.047c0.002,2.408,0.33,3.805,1.154,6.154c2.074,5.916,3.902,11.98,5.611,18.012
		c3.791,13.377,10.193,25.952,13.884,39.317c1.33,4.82,2.711,9.629,4.232,14.398c3.412,10.678,9.135,20.742,11.699,31.704
		c0.783,3.354,0.938,7.164-2.898,8.475c-5.396,1.842-12.217,1.346-17.833,1.346c-8.363,0-16.728,0-25.091,0
		c-3.932,0-8.297-0.525-12.188-0.023c-1.613,0.207-3.166,1.166-4.752,1.574c-1.916,0.496-3.691,0.105-5.634,0.338
		C122.792,310.57,119.657,312.474,115.663,311.931z"/>
	<path d="M174.802,118.862c-1.449-0.391-3.48-0.504-4.875,0.152c-0.727,0.34-1.367,0.891-1.996,1.379
		c-0.76,0.592-1.439,1.203-1.998,1.994c-0.604,0.865-1.695,2.018-1.105,3.111c0.371,0.693,0.754,1.342,1.152,2
		c0.264-0.326,0.299-0.701,0.615-1.004c0.469-0.449,0.904-0.605,1.443-0.922c0.602-0.352,0.754-0.646,1.521-0.512
		c1.482,0.262,2.979,1.098,3.684,2.465c0.6,1.158,1.225,2.951,0.439,4.189c-0.6,0.949-2.215,0.758-3.092,0.33
		c-1.213-0.59-2.215-1.727-3.053-2.764c-1.006-1.25-1.736-2.777-2.383-4.254c-0.303-0.689-0.436-1.428-0.658-2.139
		c-0.324-1.043-0.734-1.973-0.895-3.053c-0.195-1.318-0.609-2.588-0.883-3.889c-0.168-0.799-0.078-1.738-0.492-2.467
		c-0.416-0.721-1.277-1.141-1.926-1.613c-0.98-0.711-2.094-1.258-3.027-2.031c-1.58-1.314-3.314-2.312-5.184-3.186
		c-0.881-0.41-1.73-0.924-2.539-1.455c-0.398-0.264-0.762-0.602-1.156-0.814c-0.918-0.49-2.314-0.064-3.297,0.104
		c-1.826,0.311-3.572,0.898-5.387,1.332c-1.297,0.311-2.566,0.672-3.836,1.07c-1.08,0.342-2.207,0.49-3.291,0.824
		c-1.335,0.414-2.697,0.787-4.042,1.172c-1.477,0.424-2.816,1.15-4.258,1.666c-3.068,1.096-5.855,2.922-8.541,4.732
		c-2.26,1.523-4.205,3.48-6.242,5.275c-0.322,0.283-0.646,0.598-0.975,0.869c-0.164,0.135-0.449,0.225-0.572,0.402
		c-0.178,0.256-0.123,0.887-0.123,1.201c0.002,0.938,0.033,2,0.322,2.889c0.223,0.68,0.691,1.127,0.832,1.865
		c0.119,0.633,0.137,1.254,0.199,1.885c0.117,1.166,0.08,2.385,0.08,3.576c0,0.396-0.014,0.793-0.033,1.189
		c-0.127,2.422-0.654,4.826-0.619,7.254c0.021,1.451,0.557,2.713,0.795,4.117c0.297,1.748-0.105,3.533,0.018,5.299
		c0.086,1.281,0.379,3.357-0.832,4.242c-1.025,0.748-3.156,1.232-4.408,1.104c-2.846-0.297-5.022-3.184-5.651-5.811
		c-0.34-1.414-0.246-3.502,0.34-4.836c0.66-1.498,1.787-1.783,3.196-2.119c1.285-0.307,3.172-0.188,4.188,0.766
		c1.008,0.949,1.498,2.391,1.297,3.611c0.609,0.15,1.199,0.18,1.812,0.301c0.457,0.09,1.131,0.301,1.543,0.303
		c0.758,0.004,0.744-0.385,0.916-1.098c0.201-0.834,0.443-1.643,0.607-2.486c0.27-1.377,0.275-3.221-0.033-4.586
		c-0.16-0.709-0.27-1.184-0.914-1.562c-0.941-0.549-1.93-1.002-3.014-1.215c-1.182-0.23-2.309-0.275-3.529-0.262
		c-1.637,0.02-3.09,0.596-4.647,1.037c-2.566,0.729-5.246,3.625-6.441,5.949c-1.197,2.332-1.541,4.809-1.783,7.367
		c-0.367,3.91,0.152,8.311,3.275,11.016c2.115,1.832,4.228,3.754,6.77,4.992c2.756,1.341,5.877,1.439,8.865,1.275
		c2.043-0.113,4.076-0.445,6.015-1.117c1.801-0.625,3.457-1.605,5.18-2.414c1.16-0.545,2.42-0.859,3.436-1.674
		c0.738-0.594,1.508-1.334,2.041-2.117c0.561-0.822,0.736-1.832,1.264-2.672c0.619-0.975,1.088-1.936,1.539-2.994
		c0.492-1.158,0.793-2.402,1.261-3.576c0.512-1.295,0.807-2.75,2.043-3.539s2.49-1.682,3.807-2.334
		c0.855-0.422,1.725-0.365,2.414,0.332c1.141,1.152,1.787,2.838,2.58,4.232c0.541,0.953,0.967,1.656,1.115,2.719
		c0.43,0.113,1.281-0.293,1.727-0.416c0.824-0.229,1.662-0.512,2.436-0.875c0.373-0.178,0.793-0.275,1.148-0.434
		c0.428-0.191,0.324-0.445,0.229-0.924c-0.139-0.688-0.285-1.336-0.357-2.039c-0.061-0.6-0.033-1.195-0.092-1.795
		c-0.076-0.809-0.119-1.629-0.232-2.434c-0.086-0.643-0.395-1.242-0.473-1.906c-0.178-1.527-0.334-3.078-0.484-4.615
		c-0.193-1.977-0.422-4.045-0.922-5.955c-0.123-0.473-0.338-0.947-0.412-1.422c-0.061-0.412,0.08-0.91-0.043-1.309
		c-0.129-0.428-0.328-0.631-0.289-1.141c0.043-0.523,0.107-1.01,0.107-1.543c0-0.969,0-1.916,0.096-2.867
		c0.043-0.422,0.01-1.055,0.307-1.33c0.135-0.123,0.49-0.301,0.658-0.406c0.559-0.361,1.219-0.637,1.818-0.93
		c2.051-1.002,4.174-1.949,6.143-3.086c1.242-0.717,2.703-1.436,4.002-1.896c0.396-0.141,0.91-0.805,1.289-0.732
		c0.27,1.125,0.898,2.184,1.32,3.264c0.402,1.033,0.775,2.107,1.131,3.172c0.371,1.123,0.744,2.23,1.178,3.332
		c0.186,0.471,0.404,0.889,0.617,1.363c0.189,0.414,0.312,0.723,0.656,1.016c0.338,0.287,0.52,0.533,0.703,0.973
		c0.332,0.801,0.479,1.662,0.742,2.484c0.352,1.1,0.793,2.215,1.17,3.324c0.352,1.037,0.516,2.125,0.791,3.164
		c0.139,0.525,0.186,1.035,0.305,1.547c0.08,0.334,0.338,0.438,0.592,0.637c0.678,0.529,1.596,0.709,2.438,0.611
		c0.631-0.072,1.127,0.266,1.766,0.188c0.566-0.07,1.084-0.416,1.654-0.543c1.527-0.34,3.513-0.9,4.611-2.121
		c1.318-1.463,1.877-3.271,2.15-5.172c0.299-2.092,0.189-4.449-0.232-6.512c-0.176-0.863-0.316-1.559-0.768-2.314
		c-0.375-0.631-0.771-1.24-1.217-1.826c-0.705-0.93-1.297-2.037-2.367-2.615C176.735,119.401,175.716,119.11,174.802,118.862z"/>
	<path d="M150.215,141.669c0,0.084,0,0.09,0,0.018c0.016-2.418,1.975-4.807,4.09-5.83c0.727-0.352,1.531-0.33,2.332-0.33
		c0.918,0,1.457,0.223,2.164,0.701c-0.252-0.346-1.826,0.375-2.207,0.525c-1.275,0.504-2.607,1.082-3.75,1.846
		c-1.256,0.836-2.127,2.529-2.646,3.896c0.076,0.113,0.189,0.125,0.326,0.096"/>
	<path d="M169.154,132.353c-0.096-0.213-0.311-0.277-0.484-0.426c-0.295-0.258-0.461-0.535-0.852-0.682
		c-0.498-0.186-1.494-0.234-2.043-0.125c-0.59,0.119-1.184,0.664-1.56,1.102c-0.389,0.453-0.391,1.006-0.684,1.449
		c0.305-0.033,0.525-0.357,0.811-0.479c0.232-0.1,0.542-0.107,0.791-0.121c0.359-0.021,0.699,0.076,1.053,0.1
		c0.348,0.025,0.699-0.027,1.045-0.002c0.596,0.047,1.15,0.33,1.693,0.539c0.434,0.168,1.053,0.283,0.947-0.434"/>
	<path fill="#FFFFFF" d="M152.773,142.796c0.053-0.312,0.789-0.947,1.131-1.229c0.686-0.568,1.564-0.896,2.457-1
		c0.725-0.084,1.588-0.102,2.326-0.027c0.502,0.053,1.057,0.229,1.549,0.229c-0.115,0.219-0.221,0.355-0.318,0.594
		c-0.182,0.441-0.416,0.838-0.695,1.236c-0.713,1.012-1.648,1.684-2.869,2.041c-0.984,0.291-1.846,0.65-2.766,0.07
		c-0.572-0.361-0.824-0.633-1.09-1.205c0.092,0.008,0.184,0.01,0.275,0.008"/>
	<path d="M152.16,143.513c0.002,0.082,0.004,0.086,0.006,0.01c-0.256-0.637-0.822-1.059-1.115-1.633
		c0.346,0.16,0.738,0.502,1.088,0.691c0.176-0.434-0.322-1.035-0.297-1.502c0.336,0.293,0.775,0.697,1.225,0.783
		c0.07-0.203-0.066-0.498-0.086-0.717c-0.035-0.354-0.047-0.787,0.076-1.117c0.375-0.99,0.83,0.4,1.262,0.586
		c0.137-0.119,0.152-0.543,0.225-0.742c0.09-0.248,0.258-0.482,0.301-0.75c0.502-0.074,0.25,1.34,0.881,1.098
		c0.113-0.48,0.117-2.035,0.609-2.229c0.25,0.469,0.574,1.096,0.662,1.619c0.277-0.09,0.305-0.666,0.459-0.916
		c0.139-0.225,0.381-0.58,0.623-0.699c0.053,0.324-0.018,1.312,0.201,1.518c0.068-0.387,0.324-0.957,0.719-1.109
		c0.09,0.492-0.061,1.025,0.039,1.518c0.291,0.029,0.699-1.09,0.984-1.316c0.1,0.416-0.127,0.781-0.086,1.186
		c0.121-0.182,0.297-0.299,0.441-0.461c0.207,0.078,0.285,0.803,0.285,1.004c0,0.34-0.234,0.75-0.385,1.051
		c-0.463,0.918-1.238,1.91-2.068,2.514c-0.492,0.355-1.256,0.863-1.857,0.949c-0.457,0.066-0.969,0.102-1.428,0.1
		c-0.561-0.006-1.027-0.055-1.535-0.334c-0.42-0.232-0.744-0.619-1.197-0.803c0.648,0.301,1.191,0.521,1.914,0.521
		c0.797,0,1.412-0.211,2.092-0.584c1.213-0.666,2.693-1.238,3.221-2.592c-0.615-0.295-0.883-0.615-1.629-0.611
		c-0.707,0.002-1.303,0.15-1.967,0.381c-0.742,0.256-1.42,0.545-2.043,1.023c-0.318,0.244-0.623,0.543-0.883,0.85
		c-0.094,0.111-0.256,0.277-0.309,0.408c-0.08,0.199,0.068,0.367-0.121,0.51"/>
	<path d="M154.617,141.259c-0.477,0.549,0.025,1.639,0.506,2.031c0.676,0.549,2.293,0.758,2.93,0.021
		c0.32-0.371,0.363-1.291,0.242-1.76c-0.143-0.547-1.645-1.725-2.041-0.805"/>
	<g>
		<path fill="#FFFFFF" d="M166.55,135.841c-0.104,0.082-0.268,0.213-0.246,0.361c0.021,0.141,0.174,0.248,0.246,0.359
			c0.129,0.193,0.242,0.365,0.4,0.533c0.211,0.225,0.438,0.436,0.668,0.641c0.102,0.09,0.164,0.213,0.25,0.316
			c0.084,0.098,0.131,0.102,0.242,0.137c0.236,0.072,0.461,0.242,0.676,0.359c0.449,0.246,0.941,0.447,1.445,0.236
			c0.27-0.113,0.691-0.318,0.906-0.512c0.248-0.227,0.174-0.344,0.078-0.617c-0.123-0.35-0.129-0.768-0.094-1.133
			c0.055-0.564,0.174-1.115-0.256-1.574c-0.354-0.379-0.902-0.488-1.4-0.459c-0.73,0.045-1.342,0.41-1.971,0.75
			C167.167,135.417,166.841,135.604,166.55,135.841z"/>
		<path d="M165.548,137.411c1.031,0.646,2.129,1.768,3.379,1.949c0.742,0.107,1.891,0.176,2.129-0.721
			c0.104-0.381,0.094-0.742,0.199-1.127c0.119-0.443,0.34-0.838,0.236-1.33c-0.104-0.479-0.436-0.936-0.699-1.332
			c-0.195-0.291-0.486-1.025-0.822-1.117c-0.062,0.449,0.016,0.844,0.244,1.213c-0.115-0.375-0.469-0.902-0.754-1.111
			c-0.072,0.361,0.018,0.748-0.041,1.109c-0.352-0.301-0.689-0.742-1.08-1.004c-0.25,0.301-0.084,0.762-0.146,1.109
			c-0.441-0.02-0.617-0.938-1.09-0.902c-0.055,0.375-0.027,0.797-0.012,1.18c-0.125-0.137-0.592-0.701-0.721-0.695
			c-0.426,0.02-0.283,1.258-0.33,1.543c-0.141-0.078-0.439-0.559-0.598-0.502c-0.203,0.072-0.09,0.926-0.121,1.115
			c-0.137-0.086-0.229-0.305-0.365-0.395c-0.029,0.186-0.129,0.686,0.104,0.793c0.195,0.092,0.52-0.291,0.693-0.369
			c0.244-0.111,0.51-0.146,0.756-0.246c0.371-0.152,0.711-0.375,1.086-0.518c0.992-0.379,2.689-1.316,3.674-0.361
			c-0.051,0.146-0.219,0.172-0.271,0.307c-0.066,0.156,0,0.332-0.018,0.496c-0.027,0.252-0.135,0.643-0.232,0.893
			c-0.256,0.658-0.596,1.355-1.393,1.541c-1.176,0.273-3.186-0.303-3.666-1.525c0.055,0.008,0.111,0.01,0.166,0.008"/>
		<path d="M167.291,136.079c0.082,0.121-0.15,0.5-0.09,0.748c0.102,0.428,0.598,0.729,0.914,0.973
			c0.527,0.408,1.152,0.684,1.836,0.457c1.418-0.467,0.848-2.527-0.203-3.098"/>
	</g>
	<path d="M170.894,159.071c0.82,0.723-0.139,2.174-0.699,2.805c0.346-0.389,1.768,2.068,1.689,2.414
		c-0.195,0.881-2.137,0.598-2.809,0.596c-1.213,0-2.295-0.357-3.465-0.602c-1.298-0.27-2.634-0.271-3.896-0.77
		c-1.008-0.396-2.109-1.068-2.873-1.717c0.688-0.121,1.424,0.043,2.119-0.031c0.674-0.072,1.324-0.322,1.984-0.395
		c0.701-0.076,1.324-0.305,2.007-0.457c1.24-0.271,2.223-0.631,3.279-1.301C168.939,159.165,170.097,158.37,170.894,159.071z"/>
	<path fill="#245977" d="M185.661,183.817c2.283,3.08,4.748-7.375,5.246-8.338c0.422,4.033,0.697,8.496,2.178,12.277
		c0.098,0.246,1.178-0.229,1.311-0.316c0.408-0.271,0.699-0.686,0.922-1.113c0.584-1.125,0.785-2.443,0.943-3.686
		c0.184-1.445,0.25-2.9,0.393-4.35c0.051-0.508,0.143-1.914,0.938-1.787c0.416,0.066,0.713,0.893,0.883,1.221
		c0.262,0.504,0.42,1.045,0.631,1.568c0.277,0.688,0.35,1.436,0.637,2.119c0.283,0.668,0.732,1.236,0.889,1.977
		c0.115,0.541,0.137,1.043,0.137,1.594c0,0.385-0.01,0.732,0.084,1.098c0.111,0.43,0.156,0.531,0.621,0.32
		c1.244-0.562,2.49-1.016,3.334-2.145c0.68-0.91,0.996-1.674,0.803-2.822c-0.242-1.445-1.006-2.705-1.283-4.145
		c-0.104-0.539-0.176-1.086-0.338-1.611c-0.129-0.418-0.326-0.801-0.408-1.234c-0.143-0.75-0.371-1.262-0.943-1.805
		c-1.254-1.186-2.992-1.641-4.518-2.355c-0.693-0.324-1.41-0.504-2.092-0.865c-0.445-0.236-0.855-0.492-1.33-0.654
		c-0.371-0.127-0.742-0.215-1.127-0.336c-0.658-0.207-1.232-0.721-1.887-0.979c-0.723-0.285-1.5-0.477-2.281-0.408
		c-0.652,0.059-1.295,0.236-1.949,0.318c-1.678,0.207-3.238-0.004-4.854-0.414c-0.428-0.109-0.803-0.227-1.203-0.398
		c-0.52-0.221-1.043-0.117-1.6-0.154c-0.916-0.062-1.734-0.58-2.672-0.477c-0.759,0.084-1.068,0.951-0.572,1.502
		c0.251,0.279,0.542,0.379,0.884,0.531c0.477,0.209,0.902,0.494,1.354,0.736c0.807,0.433,1.623,0.773,2.465,1.107
		c0.947,0.377,1.943,0.58,2.906,0.928c0.447,0.16,0.941,0.371,1.25,0.732c0.221,0.26,0.275,0.613,0.314,0.947
		c0.105,0.869-0.047,1.756-0.061,2.613c-0.014,0.916-0.195,1.877-0.299,2.783c-0.053,0.463-0.189,0.914-0.225,1.381
		c-0.039,0.486,0.164,0.896,0.098,1.365C185.093,181.588,184.993,182.917,185.661,183.817z"/>
	<path fill="#FFFFFF" d="M125.741,197.002c0.004,0.373,0.312,0.355,0.104,0.66c-0.439-1.408,3.318-3.119,4.318-3.787
		c2.134-1.424,4.353-2.797,6.806-3.295c3.084-0.625,7.244-2.113,10.168-1.314c6.689,1.826,12.898,6.482,15.686,12.863
		c2.863,6.553,4.597,13.297,6.343,20.207c3.719,14.725,5.121,28.469,5.125,43.569c0.004,11.482,0.789,23.189,1.66,34.633
		c0.72,9.508,2.591,18.984,2.595,28.426c0.004,7.52,1.689,14.59,0.721,22.166c-2.088,0.27-4.458,0.27-6.548,0
		c-1.299-8.023-0.98-16.732-0.98-24.93c0-9.908-0.424-19.504-1.512-29.237c-0.443-3.943-0.188-8.047-0.189-12.039
		c-0.002-4.412-0.863-8.223-0.852-12.625c0.01-4.262-0.367-8.053-0.871-12.1c-0.328-2.641,0.832-5.484,0.268-8.08
		c-0.484-2.232-1.971-3.324-2.918-5.318c-3.019-6.348-3.648-15.211-5.064-22.086c-0.902-4.396-2.02-8.973-3.604-13.162
		c-1.154-3.057-2.094-6.164-4.635-8.621c-2.191-2.119-4.59-3.549-7.414-4.232c-3.25-0.789-5.953,0.094-8.443,1.83
		c-3.242,2.264-3.525,6.35-3.525,10.197c-0.004,6.322-0.246,12.693,0.488,18.943c0.408,3.467,1.129,6.936,1.117,10.497
		c-0.02,5.74,1.309,11.18,1.318,16.969c0.01,6.598-0.756,13.168-1.418,19.723c-1.15,11.367-0.189,23.307-0.189,34.741
		c0,8.838,0,17.674,0,26.512c0,6.902,1.578,13.973,0.721,20.68c-1.832,0.232-4.083-0.336-5.871,0.084
		c-1.59,0.373-2.412,1.643-4.064,1.637c0.082-1.844-0.82-3.242-1.041-4.977c-0.324-2.523,0.381-5.201,0.086-7.729
		c-0.674-5.762-1.287-11.404-1.936-17.16c-1.039-9.238-1.123-19.119-0.561-28.395c0.629-10.393-1.178-20.799-1.113-31.19
		c0.033-5.287,0-10.576,0-15.865c0-5.764-0.227-11.576,0.314-17.295c0.658-6.979,1.129-13.942,1.695-20.899
		c0.336-4.123,0.689-8.328,1.184-12.363c0.182-1.475,0.504-2.998,0.838-4.422c0.4-1.717,1.939-3.916,1.998-5.627"/>
	<path fill="#FFFFFF" d="M119.696,481.936c0.143-1.598,0.199-3.182,0.344-4.375c1.021-8.432,1.922-16.864,3.232-25.261
		c1.271-8.146,0.908-16.554,1.92-24.752c0.664-5.375,1.826-11.283,0.236-16.582c-1.596-5.316-1.674-10.434-2.217-15.947
		c-0.365-3.711-0.227-7.533-0.738-11.215c-0.357-2.574-1.213-5.184-1.25-7.795c-0.07-4.814-0.699-9.482-1.184-14.279
		c-0.408-4.055,0.025-8.305-0.502-12.305c-0.264-1.996-0.885-4.33-0.365-6.375c0.084-0.332,0.691-1.309,0.865-1.709
		c0.254-0.58,0.48-1.176,0.768-1.787c1.127-2.396,2.055,0.084,4.312,0.426c3.867,0.582,7.847,1.396,11.621,2.639
		c4.801,1.58,9.627,1.975,14.545,2.898c4.088,0.77,7.312-0.045,11.182-1.691c3.75-1.596,8.125-2.795,11.675-5.041
		c0.641-0.404,1.277-1.484,2-1.682c2.003-0.547,1.089,0.773,2.298,1.117c1.408,0.4,0.422,0.945,2.59,0.691
		c1.285-0.148,2.715-1.523,3.984-1.945c2.467-0.82,5.715-1.193,8.359-1.453c7.121-0.697,13.957-2.535,20.986-3.594
		c4.832-0.729,9.479-1.496,14.348-2.451c3.137-0.615,10.021-3.621,13.254-2.418c0.531,3.244-0.238,6.68,0.084,9.959
		c0.432,4.387,1.723,8.121,1.725,12.785c0.004,7.678-0.691,15.922,0.793,23.324c0.857,4.273,2.342,8.277,2.588,12.727
		c0.23,4.166-0.246,4.449-3.217,6.828c-4.824,3.861-9.633,7.789-14.404,11.719c-5.082,4.188-9.43,9.148-14.289,13.236
		c-2.512,2.115-4.512,4.416-6.928,6.559c-2.256,2.002-5.195,2.98-7.232,5.25c-1.305,1.453-3.779,3.932-4.594,5.655
		c-1.32,2.799-0.611,7.141-0.611,10.351c0,4.276,0.246,8.646-0.127,12.904c-0.303,3.459-1.154,6.559,0.24,9.899
		c2.471,5.918,6.111,9.662,5.807,16.688c-3.934,0.787-8.338,0.576-12.326,0.143c-2.074-0.225-4.217-0.572-6.303-0.848
		c-3.146-0.414-6.166-0.451-9.39-0.451c-9.259,0-18.451,0.84-27.642,1.623c-5.939,0.506-11.92,0.895-17.869,1.488
		c-1.932,0.193-3.83,0.143-5.754,0.301c-1.484,0.125-2.732,0.678-4.26,0.365C119.163,486.266,119.506,484.088,119.696,481.936z"/>
	<path fill="#245977" d="M216.673,211.391c-1.453,4.764-2.877,9.557-4.285,14.369c-4.135,14.125-13.006,25.733-17.572,39.6
		c-1.623,4.93-1.307,17.057-7.02,8.426c-0.832-1.256-1.727-2.506-2.406-3.955c-1.51-3.215-3.117-6.07-5.055-9.17
		c-1.193-1.906-2.203-3.938-3.477-5.775c-1.134-1.635-2.605-2.139-3.873-3.451c-2.068-2.141-1.965-7.197-2.277-9.998
		c-0.996-8.981-2.875-17.709-5.293-26.471c-1.035-3.742-2.775-6.865-5.402-10.098c-1.844-2.266-3.93-4.223-6.639-5.393
		c-2.029-0.877-3.947-2.34-6.039-2.998c-4.807-1.502-11.258,0.148-15.139,3.219c-7.421,5.873-9.755,15.986-5.99,24.449
		c2.643,5.938,5.414,11.545,8.996,17.022c3.381,5.17,7.012,9.982,10.867,14.715c7.691,9.439,14.227,20.297,20.669,30.662
		c5.189,8.346,10.544,16.733,16.255,24.686c1.949,2.717,4.359,4.838,6.953,7.08c1.225,1.057,3.373,3.08,5.223,1.969
		c1.545-0.926,1.426-4.143,1.877-5.639c1.51-5.014,3.332-9.988,4.691-15.135c2.666-10.094,5.535-19.395,9.828-28.825
		c1.096-2.406,2.348-4.92,3.561-7.246c1.744-3.346,3.596-6.566,5.066-9.891c3.105-7.016,5.773-14.398,6.992-21.967
		c0.986-6.117,3.764-12.113,5.754-17.986c2.1-6.191,3.648-13.271,7.564-18.426c1.186-1.562,3.605-3.631,4.176-5.486
		c0.824-2.682-1.227-4.703-3.436-6.547c-4.258-3.555-8.863-3.623-13.666-5.777c-3.447-1.547-5.883-3.146-9.855-2.93
		c-13.152,0.717-0.439,8.951,1.848,14.381c2.154,5.115,0.549,11.475-1.031,16.535C217.911,207.352,217.29,209.37,216.673,211.391z"
		/>
	<path fill="#245977" d="M137.385,547.798c0.111,0.006,0.223,0.012,0.336,0.018c1.719,0.09,3.467,0.355,5.172,0.525
		c1.955,0.197,3.941-0.01,5.914,0.121c3.975,0.262,7.926,0.604,11.91,0.816c4.089,0.219,8.755-0.346,12.728,0.342
		c0.324-1.143,0.539-2.463,0.723-3.641c0.184-1.16,0.084-2.358,0.293-3.51c0.654-3.607,1.471-7.117,2.088-10.74
		c1.281-7.529,3.195-15.082,3.439-22.77c0.117-3.748,0.062-7.543,0.305-11.288c0.211-3.261,0.738-6.509,0.975-9.781
		c0.283-3.879,1.09-7.887,0.584-11.85c-3.027-0.135-5.767-1.562-8.886-1.984c-3.035-0.41-6.516,0.016-9.568,0.016
		c-3.359,0-6.584,0.162-9.895,0.562c-5.334,0.646-10.658,1.248-15.986,1.662c-2.779,0.215-5.715,0.277-8.472,0.639
		c-1.279,0.168-2.818,0.742-4.057,0.705c-0.34,2.131,0.51,4.168,0.289,6.406c-0.32,3.262-0.654,6.576-0.656,9.873
		c-0.004,7.56,0.691,14.82,1.609,22.23c0.43,3.465,0.572,6.928,0.967,10.41c0.348,3.055,0.549,6.359,0.631,9.445
		c0.068,2.527,0.389,5.078,0.945,7.506c0.25,1.094,0.703,2.922,0.602,4.026C132.045,547.706,134.711,547.671,137.385,547.798z"/>
	<path fill="#245977" d="M157.148,609.492c0.715-3.25,0.248-6.542,1.07-9.781c0.17-0.662,0.438-1.332,0.129-1.986
		c-1.691-0.373-3.73-0.137-5.514-0.137c-2.621,0-5.205-0.117-7.818-0.117c-4.281,0-8.508,0.104-12.695,0.367
		c-0.121,1.824,0.076,3.821,0.252,5.633c0.244,2.542-0.379,5.009-0.438,7.536c-0.092,3.986,0,7.986,0,11.973
		c0,3.264,0.434,6.377,0.5,9.512c0.068,3.156,0.523,6.207,0.723,9.33c0.057,0.898-0.297,1.559,0.568,1.846
		c0.709,0.232,1.791-0.049,2.537,0c0.984,0.064,1.955,0.236,2.947,0.352c2.322,0.271,4.586,0.58,6.945,0.58
		c1.145,0,2.285,0.027,3.408-0.123c0.732-0.1,1.594-0.414,2.297-0.123c0.193-0.883-0.074-1.777,0-2.66
		c0.074-0.887,0.303-1.775,0.387-2.672c0.201-2.189,0.363-4.383,0.797-6.543c0.754-3.748,1.498-7.576,2.002-11.387
		C155.734,617.414,156.316,613.277,157.148,609.492z"/>
	<path fill="#245977" d="M138.379,694.857c0,2.799,0.043,5.598,0.107,8.395c0.027,1.256-0.062,2.436,0.293,3.654
		c0.299,1.021,0.41,1.943-0.021,2.939c-0.951,2.199-1.4,4.578-2.258,6.836c-1.432,3.764-3.635,7.348-6.087,10.543
		c-1.914,2.49-3.592,4.773-3.277,8.068c0.174,1.828,1.02,3.764,1.771,5.41c0.771,1.688,2.929,3.031,4.494,3.811
		c1.854,0.926,3.869,1.434,5.877,1.9c1.965,0.457,3.9,1.123,5.895,1.436c2.418,0.379,4.428,0.842,6.625,1.955
		c2.375,1.205,4.65,2.811,6.588,4.639c1.631,1.541,3.133,2.838,4.195,4.797c0.561,1.031,1.035,2.271,1.998,2.982
		c1.406,1.041,3.16,1.371,4.789,1.879c2.855,0.891,5.859,1.18,8.88,1.18c1.307,0,2.609,0.035,3.883-0.154
		c1.227-0.182,2.201-0.693,3.271-1.273c0.629-0.34,2.564-1.312,2.293-2.168c-0.096-0.301-1.006-1.129-1.352-1.27
		c-0.256-0.105-1.352-0.242-1.578-0.168c-0.098,0.516,2.041,1.088,2.469,1.242c1.262,0.455,2.236,0.693,3.479,0.117
		c1.053-0.488,1.986-1.479,1.873-2.689c-0.131-1.406-1.363-1.631-2.363-2.131c1.824,0.018,3.744-1.566,4.65-3.135
		c0.463-0.805,0.705-1.934,0.162-2.738c-0.586-0.869-1.322-0.561-2.264-0.68c-0.166-0.566,0.623-1.574,0.793-2.105
		c0.264-0.818,0.326-1.691,0.324-2.564c-0.004-1.848-0.176-3.422-1.27-4.979c-0.924-1.316-2.174-1.871-3.629-1.059
		c-1.641,0.914-2.957,2.33-4.088,3.832c-0.797,1.061-1.49,1.848-2.762,2.328c-2.354,0.887-5.277,1.57-7.808,1.637
		c-2.484,0.066-4.689-1.816-6.477-3.262c-1.115-0.902-2.17-1.828-3.059-2.967c-0.634-0.816-1.31-1.504-1.81-2.395
		c-0.373-0.662-0.643-1.355-0.977-2.037c-1.928-3.92-3-8.119-3.92-12.373c-0.432-1.998-0.928-3.902-1.432-5.877
		c-0.256-1.004-0.611-1.963-0.602-3.008c0.008-0.982-0.029-1.943-0.113-2.928c-0.195-2.254-0.48-4.502-0.898-6.727
		c-0.438-2.328-0.518-4.479-0.785-6.906c-0.117-1.061-0.018-4.727-1.121-5.266c-0.445-0.219-1.592,0.006-2.102,0.006
		c-1.512,0-3.025,0-4.537,0c-1.363,0-2.832-0.113-4.1,0.207c-1.689,0.426-3.379,0.424-5.109,0.424c0.363,0,0.727,0,1.088,0"/>
</g>
</svg>
