<?xml version="1.0" encoding="utf-8"?>
<!-- Generator: Adobe Illustrator 16.0.4, SVG Export Plug-In . SVG Version: 6.00 Build 0)  -->
<!DOCTYPE svg PUBLIC "-//W3C//DTD SVG 1.1//EN" "http://www.w3.org/Graphics/SVG/1.1/DTD/svg11.dtd">
<svg version="1.1" id="Ebene_1" xmlns="http://www.w3.org/2000/svg" xmlns:xlink="http://www.w3.org/1999/xlink" x="0px" y="0px"
	 width="283.46px" height="145.594px" viewBox="0 0 283.46 145.594" enable-background="new 0 0 283.46 145.594"
	 xml:space="preserve">
<g>
	<path d="M218.233,36.458c0.125-0.888-0.798-3.062-1.273-4.195c-0.677-1.616-1.182-1.578-2.78-1
		c0.641,0.763,0.947,1.893,1.304,2.782c0.375,0.937,0.844,1.905,1.084,2.863c0.5,0.246,0.844-0.355,1.421-0.203"/>
	<g>
		<path fill="#245977" d="M116.546,76.154c3.894-0.291,8.598,0.189,12.157,1.874c2.043,0.968,3.913,1.762,5.842,2.963
			c4.833,3.01,9.908,6.445,12.358,11.766c1.058,2.297,2.298,5.63,1.167,8.114c-0.617,1.354-1.721,1.922-3.117,1.937
			c-1.877,0.019-3.705,0.405-5.58,0.563c-1.61,0.135-3.268,0.021-4.833-0.314c-2.136-0.458-4.302-0.554-6.438-0.926
			c-2.972-0.518-5.975-0.811-8.959-1.227c-3.047-0.425-5.977-1.358-8.999-1.829c-1.814-0.284-3.507,0.102-5.311,0.216
			c-2.936,0.185-5.397-0.659-8.126-1.614c-0.691-0.242-1.387-0.379-2.167-0.11c-0.842,0.29-1.52,1.027-2.433,1.176
			c-0.95,0.155-2.221,0.104-3.197-0.053c-1.652-0.266-3.038-0.894-4.455-1.777c-1.15-0.716-3.14-0.822-4.59-0.777
			c-3.613,0.113-7.542-0.731-11.229-0.76c-1.435-0.011-2.846-0.244-4.243-0.146c-0.901,0.063-1.848-0.019-2.757-0.058
			c-3.964-0.171-8.033-0.765-11.989-0.734c-2.342,0.018-4.65-0.534-6.993-0.492c-1.949,0.035-4.395,0.091-6.115,1.084
			c-1.458,0.842-2.381,2.287-3.862,3.07c-0.76,0.402-1.122,0.682-1.615,1.402c-0.556,0.814-0.345,1.421-0.634,2.316
			c-0.538,1.661-3.041,2.524-3.447,0.297c-0.118-0.645,0.094-2.209,0.422-2.753c0.199-0.331,0.897-0.57,0.751-0.955
			c-0.155-0.407-0.665-0.341-0.998-0.318c-0.558,0.038-0.553,0.554-1.126,0.121c-0.287-0.217-0.417-0.611-0.286-0.958
			c0.115-0.304,0.489-0.432,0.773-0.512c0.192-0.054,0.347-0.046,0.514-0.176c0.101-0.077,0.284-0.23,0.133-0.351
			c-0.112-0.09-0.368-0.032-0.494-0.007c-0.209,0.04-0.42,0.116-0.635,0.071c-0.167-0.035-0.318-0.119-0.486-0.154
			c-0.298-0.064-0.392-0.321-0.175-0.559c0.212-0.233,0.613-0.351,0.917-0.387c-0.274,0.065-0.612,0.063-0.826-0.149
			c-0.276-0.275-0.221-0.733-0.19-1.087c0.031-0.363,0.035-0.932,0.361-1.155c0.32-0.22,0.583-0.622,0.824-0.936
			c0.114-0.15,0.208-0.315,0.322-0.465c0.114-0.15,0.282-0.218,0.445-0.303c0.214-0.113,0.424-0.264,0.669-0.295
			c0.273-0.034,0.547-0.067,0.82-0.11c1.623-0.257,2.631-0.764,3.753-2.065c1.045-1.211,1.694-2.214,2.064-3.779
			c0.402-1.698,1.703-3.027,3.495-2.944c2.045,0.095,3.56,1.678,5.434,2.292c3.111,1.02,6.622-0.622,9.373-1.877
			c2.334-1.065,5.029-1.62,7.466-2.493c5.7-2.041,11.492-1.345,17.293,0.09c1.356,0.336,2.645,0.774,4.03,1.139
			c1.523,0.401,3.072,0.546,4.609,0.874c0.717,0.154,2.131,0.696,2.97,0.473c0.354-0.094,0.646-0.557,0.95-0.778
			c0.547-0.399,1.24-0.779,1.838-1.073c2.316-1.14,4.889-2.409,7.462-2.915c1.627-0.32,3.267-0.757,4.9-0.871
			c1.491-0.104,3.046-0.046,4.511-0.194C111.417,76.296,113.987,76.344,116.546,76.154z"/>
		<path fill="#FF0000" d="M180.566,68.501c-1.092,0.116-2.921,1.603-3.918,2.183c-1.722,1.003-3.658,1.949-5.125,3.299
			c-1.465,1.349-2.986,1.147-4.829,0.878c-1.059-0.155-3.079,0.12-3.97-0.342c-0.541-0.28-1.498-1.476-1.847-1.912
			c-0.642-0.799-1.313-1.602-2.133-2.25c-4.919-3.889-9.909-8.007-16.055-9.594c-0.987-0.255-2.005-0.551-3.018-0.685
			c-1.205-0.16-2.063,0.178-3.196,0.487c-0.98,0.268-1.952,0.654-2.942,0.869c-0.575,0.125-1.157,0.084-1.697,0.343
			c-1.714,0.817-2.944,2.817-4.497,3.923c-2.016,1.435-4.006,2.959-5.513,4.966c-1.006,1.339-1.217,3.233-1.054,4.84
			c0.189,1.856-0.181,3.717-0.028,5.573c0.114,1.389,0.326,2.801,0.806,4.092c0.465,1.251,1.385,2.559,2.101,3.551
			c1.102,1.526,2.353,2.851,3.706,4.104c3.203,2.966,6.457,5.439,10.371,7.407c2.195,1.104,4.088,1.772,6.48,2.188
			c1.956,0.34,3.953,0.338,5.918,0.44c2.421,0.125,4.852,0.204,7.277,0.189c2.442-0.014,4.697,0.059,7.088,0.562
			c5.795,1.222,11.997,0.177,17.699-1.097c2.226-0.498,4.436-1.067,6.645-1.632c3.873-0.992,8.08-1.639,11.835-3.007
			c3.412-1.243,7.408-2.018,10.607-3.739c-1.218-0.757-3.084-1.298-4.481-2.007c-4.454-2.259-8.523-5.655-12.748-8.347"/>
		<path d="M230.976,69.959c-0.056-0.717,0.022-1.463,0.1-2.176c0.076-0.701,0.623-1.325,0.972-1.921
			c0.624-1.068,1.221-2.152,1.83-3.229c0.161-0.286,0.324-0.571,0.487-0.855c0.062-0.109,0.103-0.223,0.159-0.333
			c0.062-0.121,0.208-0.221,0.314-0.3c0.104-0.078,0.227-0.136,0.339-0.201c0.181-0.105,0.355-0.226,0.538-0.324
			c0.339-0.182,0.719-0.326,1.081-0.455c0.43-0.153,0.881-0.255,1.331-0.331c0.366-0.062,0.76-0.088,1.13-0.093
			c0.366-0.005,0.736-0.037,1.102,0.002c0.271,0.029,0.552,0.089,0.797,0.207c0.146,0.071,0.389,0.148,0.347,0.357
			c-0.028,0.144-0.187,0.301-0.295,0.386c-0.121,0.094-0.229,0.123-0.377,0.143c-0.137,0.018-0.274,0.025-0.411,0.048
			c-0.167,0.028-0.324,0.083-0.489,0.125c-0.354,0.089-0.703,0.16-1.044,0.287c-0.128,0.048-0.257,0.085-0.375,0.162
			c-0.118,0.076-0.193,0.173-0.288,0.273c0.355-0.094,0.738-0.116,1.108-0.114c0.486,0.001,1.062,0.109,1.458,0.414
			c0.151,0.116,0.256,0.27,0.362,0.423c0.122,0.176,0.214,0.319,0.256,0.537c0.051,0.26,0.032,0.612-0.066,0.86
			c-0.089,0.223-0.271,0.446-0.53,0.47c-0.267,0.025-0.515-0.18-0.718-0.329c-0.129-0.093-0.261-0.177-0.409-0.236
			c-0.166-0.068-0.332-0.163-0.503-0.211c-0.231-0.065-0.456-0.107-0.69-0.032c-0.185,0.059-0.357,0.156-0.54,0.222
			c-0.291,0.104-0.603,0.312-0.72,0.616c0.425,0,0.807-0.208,1.242-0.122c0.628,0.126,0.823,0.907,0.959,1.464
			c0.129,0.526,0.229,1.082,0.418,1.587c0.179,0.477,0.442,0.849,0.506,1.382c-0.791,0.307-1.055-0.187-1.474-0.806
			c-0.302-0.446-0.935-1.255-1.479-1.433c-0.405-0.133-1.106,0.216-1.455,0.46c-0.406,0.284-0.568,0.696-0.562,1.191
			c0.007,0.649,0.65,1.088,0.829,0.265c0.178-0.817,0.195-1.655,1.286-1.362c1.104,0.297,0.162,2.01-0.066,2.639
			c-0.165,0.454-0.472,1.12-0.085,1.527c0.44,0.464,1.306,0.765,1.875,1.031c1.049,0.488,2.421,0.615,3.564,0.784
			c0.799,0.118,1.598,0.374,2.359,0.645c0.734,0.262,1.486,0.458,2.213,0.744c0.761,0.298,1.526,0.577,2.298,0.839
			c0.735,0.25,1.421,0.666,2.114,1.012c0.838,0.419,1.628,0.915,2.445,1.373c0.68,0.38,1.333,0.685,1.951,1.187
			c1.065,0.866,2.13,1.72,3.219,2.554c1.31,1.004,2.462,2.207,3.744,3.241c0.487,0.394,1.042,0.956,1.647,1.14
			c0.67,0.204,1.233,0.534,1.833,0.903c1.501,0.926,3.817,2.608,2.655,4.646c-1.493,2.616-5.787,3.075-8.413,3.649
			c-3.3,0.72-6.869,0.561-10.246,0.958c-2.459,0.29-4.761,0.638-7.15,1.21c-2.349,0.562-4.667,1.297-7.095,1.425
			c-5.193,0.275-10.024-1.018-15.028-2.005c-1.452-0.285-3.127-0.191-4.662-0.36c-3.201-0.353-6.9,0.753-10.181,1.593
			c-5.639,1.443-11.519,2.799-17.293,3.539c-2.126,0.271-3.954-3.143-5.17-4.635c-1.817-2.232-3.601-4.497-5.598-6.569
			c-3.903-4.051-7.353-8.56-10.277-13.393c-0.457-0.754-0.603-1.042,0.164-1.745c0.562-0.516,1.326-0.66,1.996-1.006
			c1.733-0.896,3.09-2.341,4.801-3.26c1.953-1.047,3.799-2.108,5.611-3.394c1.721-1.221,3.478-1.737,4.853-3.4
			c1.433-1.732,4.9-3.12,7.152-3.213c2.204-0.091,4.88,0.683,7.044,1.586c1.464,0.611,3.151,1.312,4.384,2.336
			c1.056,0.877,2.048,1.656,3.312,2.25c0.453,0.213,0.954,0.422,1.387,0.673c0.682,0.393,1.633,0.984,2.012,1.7
			c0.497,0.941,0.256,1.937,0.432,2.948c0.14,0.807,0.965,2.15,1.598,2.604c0.96,0.689,1.806,1.259,3.004,1.398
			c0.58,0.067,1.143,0.179,1.772,0.097c0.555-0.072,1.064-0.336,1.59-0.477c1-0.271,1.729,0.168,2.564,0.654
			c0.845,0.492,1.706,1.105,2.608,1.57c0.63,0.323,1.169,0.812,1.803,1.149c0.621,0.331,1.211,0.729,1.878,0.954
			c0.675,0.227,1.36,0.426,2.041,0.639c1.255,0.394,2.575,0.512,3.867,0.741c2.657,0.47,5.489,1.196,8.083,2.208
			c1.385,0.541,2.716,1.293,4.031,1.962c0.496,0.253,0.909,0.516,1.24,0.966c0.135,0.185,0.31,0.349,0.53,0.423
			c0.242,0.082,0.446-0.041,0.678-0.101c0.206-0.052,0.412-0.105,0.617-0.158c0.733-0.188,1.53-0.322,2.215-0.625
			c-1.576-0.493-3.256-0.66-4.862-1.048c-0.979-0.236-1.977-0.61-2.896-1.02c-0.476-0.212-0.917-0.467-1.366-0.731
			c-0.441-0.259-0.904-0.469-1.328-0.762c-0.354-0.244-0.714-0.483-1.067-0.73c-0.35-0.244-0.725-0.468-1.007-0.797
			c-0.625-0.729-1.208-1.524-1.793-2.289c-0.805-1.055-1.538-2.163-2.426-3.147c-0.252-0.278-0.563-0.485-0.861-0.707
			c-0.272-0.202-0.508-0.443-0.766-0.656c-0.862-0.714-1.635-1.668-1.888-2.776C231.056,70.993,231.015,70.452,230.976,69.959z"/>
		<path d="M203.854,64.552c-2.08-0.651-4.506-1.733-6.544-3.185c-2.22-1.581-4.151-3.525-6.223-5.269
			c-2.413-2.03-4.747-4.174-7.164-6.183c-1.802-1.497-3.938-2.66-5.975-4.056c-1.028-0.704-2.034-1.739-3.212-2.24
			c-1.125-0.478-2.409-0.734-3.576-1.104c-1.887-0.598-4.337-0.858-5.844,0.658c-3.767,3.79-3.963,9.072-4.685,13.893
			c-0.331,2.202-0.162,4.438-0.251,6.656c-0.05,1.241-0.178,2.489-0.533,3.683c-0.159,0.536-0.35,1.274-0.708,1.712
			c-0.169,0.208-0.377,0.33-0.501,0.588c-0.119,0.25-0.146,0.524-0.104,0.797c0.062,0.405,0.614,0.823,0.881,1.104
			c0.271,0.286,0.622,0.482,0.969,0.655c0.269,0.133,0.769,0.221,0.838,0.546c0.052,0.243,0.086,0.488,0.147,0.732
			c0.102,0.407,0.299,0.732,0.506,1.094c0.21,0.366,0.501,0.678,0.69,1.06c0.168,0.34,0.011,0.73,0.054,1.101
			c0.029,0.243,0.017,0.502,0.074,0.74c0.05,0.205,0.117,0.406,0.168,0.611c0.063,0.255,0.1,0.54,0.235,0.771
			c0.15,0.256,0.398,0.428,0.672,0.529c0.188,0.069,0.37,0.047,0.562,0.055c0.136,0.005,0.302-0.016,0.416,0.05
			c0.09,0.053,0.17,0.234,0.297,0.195c0.171-0.052-0.034-0.282-0.066-0.401c-0.065-0.236-0.062-0.481-0.097-0.722
			c-0.029-0.203-0.105-0.367-0.117-0.577c-0.01-0.19-0.054-0.375-0.075-0.566c-0.029-0.259,0.016-0.55,0.004-0.81
			c-0.02-0.444,0.156-0.803,0.014-1.244c-0.113-0.351-0.101-0.73-0.1-1.096c0.001-0.958,0.02-1.913,0.098-2.868
			c0.041-0.498,0.062-0.962,0.159-1.451c0.122-0.609,0.313-1.201,0.496-1.793c0.189-0.612,0.351-1.231,0.533-1.845
			c0.45-1.513,0.829-3.046,1.228-4.573c0.095-0.366,0.192-0.732,0.292-1.097c0.459-1.693-0.011-3.166,0.251-4.763
			c0.249-1.518,0.981-3.322,0.541-4.858c0.859,0.607,1.533,2.709,2.288,3.695c1.189,1.553,2.4,2.419,4.062,3.305
			c1.22,0.651,2.579,1.127,4.011,1.575c0.721,0.226,1.459,0.534,2.198,0.688c1.075,0.226,1.31,0.079,1.931,0.841
			c0.713,0.878,1.087,2.072,1.786,2.972c0.966,1.244,2.085,2.383,3.534,2.995c1.836,0.777,3.354-0.617,4.992-1.492
			c1.466-0.783,3.348-1.933,4.912-2.364"/>
		<path fill="#245977" d="M111.754,77.328c0.063,0.202,0.126,0.403,0.189,0.603c1.436,4.583,2.592,9.11,4.484,13.587
			c0.636,1.506,1.32,3.031,1.599,4.656c0.117,0.683,0.009,1.255,0.013,1.916c0.005,0.865,0.347,1.755,0.413,2.626
			c0.038,0.496-0.036,0.997,0.037,1.485c0.145,0.981,0.46,1.957,0.578,2.953c0.132,1.121,0.063,2.173,0.19,3.263
			c0.247,2.124,0.166,4.477,0.662,6.548c0.151,0.628,0.08,1.193-0.253,1.765c-0.26,0.445-0.775,0.639-0.907,1.136
			c-0.092,0.347-0.062,0.978,0.232,1.203c0.992,0.762,1.165-1.022,1.938-0.906c-0.713,0.994,0.092,2.25,1.207,1.641
			c0.052-0.856,0.18-2.36,1.468-1.895c0.17,1.278-0.278,1.899,1.256,1.937c1.374,0.034,1.339-0.248,1.76-1.426
			c0.855-2.391,2.598-0.082,3.426,1.112c0.533,0.77,0.687,1.269,1.699,0.868c0.783-0.31,1.417-1.169,1.408-2.036
			c-0.022-1.956-2.244-2.493-2.943-4.066c-0.692-1.556-0.304-3.448-1.102-5.009c-0.224-0.438-0.514-0.868-0.705-1.322
			c-0.208-0.497-0.126-0.805-0.194-1.324c-0.073-0.564-0.287-1.065-0.329-1.649c-0.112-1.591-0.529-3.25-0.542-4.83
			c-0.015-1.869,1.213-3.533,1.054-5.489c-0.203-2.494,0.138-4.715,0.138-7.187c0-2.238-0.108-4.383-0.309-6.577
			c-0.218-2.375,0.251-4.786-0.009-7.181c-0.092-0.848-0.845-4.832-1.577-4.911c-0.261,1.883-0.062,3.964-0.056,5.881
			c0.006,1.867-0.346,3.866-0.608,5.555c1.263,0.39,2.951-0.71,4.165-0.948c2.452-0.483,4.623-1.484,6.828-2.697
			c2.868-1.577,4.135-4.677,5.137-7.562c0.985-2.837,0.573-6.998-0.49-9.545c-0.722-1.728-1.224-3.294-2.429-4.783
			c-2.02-2.496-3.829-5.151-6.168-7.336c-2.573-2.402-4.401-5.483-7.083-7.811c-2.45-2.126-6.37-2.377-9.497-2.377
			c-4.018,0-6.356,4.367-7.007,7.98c-0.949,5.271-1.042,10.333-1.048,15.724C108.371,66.297,110.13,72.134,111.754,77.328z"/>
		<path fill="#245977" d="M211.702,63.175c-0.218-0.107-0.415-0.244-0.572-0.432c-0.297-0.355-0.765-0.715-1.009-1.108
			c-0.266-0.429-0.41-1.027-0.636-1.48c-0.226-0.452-0.274-0.88-0.394-1.358c-0.129-0.517-0.122-0.961-0.006-1.481
			c0.115-0.519,0.134-1.063,0.277-1.577c0.193-0.688,1.08-1.93,1.926-1.438c0.146-0.169,0.222-0.716,0.247-0.929
			c0.049-0.407-0.057-0.831,0.019-1.234c0.101-0.543,0.379-1.08,0.493-1.632c0.176-0.852,0.346-1.253,0.82-1.962
			c0.383-0.573,0.877-1.039,1.441-1.427c1.125-0.774,2.43-1.216,3.672-1.75c1.447-0.621,3.098-0.783,4.649-0.92
			c1.238-0.109,2.567-0.004,3.794,0.201c0.74,0.124,1.708,0.131,2.28,0.702c0.51,0.508,0.968,1.093,1.324,1.718
			c0.633,1.109,1.275,2.249,2.014,3.306c0.708,1.013,0.63,2.171,0.215,3.299c-0.406,1.106,0.705,2.155,1.678,2.402
			c1.382,0.352,2.676,0.552,4.106,0.552c0.634,0,1.325-0.064,1.821,0.375c0.51,0.452,0.887,1.069,0.487,1.712
			c-0.284,0.456-0.787,0.677-1.274,0.797c-0.569,0.141-1.062,0.409-1.563,0.688c-0.758,0.421-1.395,0.85-1.981,1.517
			c-0.926,1.053-1.249,2.345-1.848,3.586c-0.285,0.589-0.533,1.232-0.936,1.759c-0.73,0.958-1.751,1.661-2.897,2.044
			c-0.6,0.201-1.192,0.367-1.804,0.522c-0.776,0.196-1.583,0.181-2.369,0.305c-0.284,0.044-0.555,0.053-0.759,0.279
			c-0.125,0.14-0.25,0.394-0.335,0.566c-0.163,0.328-0.214,0.705-0.322,1.05c-0.182,0.578-0.512,1.103-0.756,1.656
			c-0.633,1.43-1.091,2.892-1.706,4.322c-0.514,1.196-0.891,2.397-2.205,2.938c-0.714,0.294-1.375,0.322-2.123,0.422
			c-0.959,0.128-1.592-0.122-2.522-0.246c-1.097-0.148-1.874-0.279-2.828-0.911c-1.073-0.71-2.247-1.715-3.008-2.765
			c-1.013-1.4-1.854-3.335-2.215-5.025c-0.282-1.322-0.235-2.63,0.521-3.766c0.481-0.722,1.158-1.12,1.917-1.481
			c0.294-0.141,0.558-0.379,0.854-0.485c0.402-0.145,0.564-0.035,0.885-0.378c0.239-0.255,0.436-0.587,0.606-0.891
			c0.335-0.598,0.656-1.098,0.559-1.83C212.055,63.326,211.872,63.26,211.702,63.175z"/>
		<path fill="#FFFFFF" d="M221.532,54.596c-0.35,0.12-0.773,0.34-1.062,0.574c-0.348,0.282-0.615,0.647-0.866,1.016
			c-0.098,0.144-0.342,0.387-0.373,0.556c-0.04,0.223,0.286,0.234,0.436,0.257c0.214,0.033,0.417,0.051,0.628,0.103
			c0.358,0.087,0.718,0.131,1.078,0.184c0.354,0.052,0.712,0.089,1.071,0.098c0.163,0.004,0.32,0,0.48,0.021
			c0.142,0.019,0.295-0.019,0.426-0.076c0.159-0.07,0.326-0.135,0.484-0.208c0.105-0.049,0.197-0.144,0.287-0.218
			c0.119-0.099,0.239-0.198,0.36-0.296c0.125-0.102,0.232-0.212,0.327-0.344c0.025-0.036,0.096-0.127,0.098-0.17
			c0.002-0.046-0.06-0.109-0.087-0.143c-0.147-0.179-0.33-0.339-0.509-0.483c-0.256-0.207-0.473-0.445-0.713-0.668
			C223.059,54.296,222.174,54.376,221.532,54.596z"/>
		<path fill="#FFFFFF" d="M230.1,54.654c0,0.026-0.001,0.028-0.001,0.005c0.042-0.131,0.104-0.241,0.182-0.355
			c0.144-0.21,0.277-0.429,0.423-0.637c0.25-0.355,0.51-0.659,0.817-0.96c0.122-0.119,0.779-0.685,0.927-0.311
			c0.052,0.131,0.008,0.387-0.018,0.517c-0.049,0.255-0.079,0.51-0.108,0.768c-0.046,0.403-0.152,0.847-0.036,1.229
			c-0.449-0.023-0.892-0.042-1.339-0.066c-0.252-0.013-0.982,0.074-0.909-0.381"/>
		<path d="M219.176,56.784c-0.018-0.039,0.023-0.19,0.038-0.251c0.071-0.288,0.143-0.577,0.215-0.865
			c0.066-0.262,0.122-0.536,0.165-0.802c0.019-0.119,0.055-0.28-0.011-0.393c0.011,0.318-0.002,0.655,0.038,0.972
			c0.253,0.083,0.389-0.468,0.436-0.63c0.07-0.242,0.104-0.495,0.179-0.736c0.021-0.064,0.03-0.182,0.063-0.219
			c0.033,0.177,0.026,0.893,0.32,0.861c0.206-0.022,0.294-0.469,0.346-0.611c0.052-0.14,0.225-0.581,0.402-0.599
			c0.059,0.245-0.144,0.591,0.01,0.824c0.107-0.001,0.153-0.109,0.214-0.181c0.133-0.159,0.28-0.316,0.425-0.462
			c0.126-0.126,0.306-0.356,0.513-0.304c0.016,0.146-0.005,0.269-0.035,0.411c-0.019,0.09-0.068,0.234,0.046,0.281
			c0.266,0.108,0.473-0.422,0.742-0.343c0.019,0.188,0.113,0.343,0.195,0.51c0.039,0.079,0.071,0.174,0.122,0.245
			c0.032,0.043,0.173,0.193,0.224,0.193c0.166,0.001,0.23-0.427,0.433-0.494c0.023,0.436,0.101,1.271,0.697,1.001
			c0.087,0.099,0.015,0.393,0.028,0.523c0.014,0.146,0.051,0.324,0.147,0.438c-0.151,0.018-0.389-0.231-0.491-0.32
			c-0.235-0.207-0.485-0.4-0.782-0.508c-0.324-0.118-0.636-0.261-0.975-0.318c-0.383-0.064-0.787-0.057-1.163,0.039
			c-0.314,0.08-0.56,0.231-0.85,0.367c-0.216,0.101-0.472,0.195-0.657,0.354c-0.091,0.078-0.145,0.19-0.219,0.28
			c-0.067,0.082-0.157,0.17-0.228,0.26c-0.089,0.113-0.15,0.236-0.232,0.353c0.453-0.021,0.862,0.286,1.33,0.284
			c0.283-0.002,0.543,0.004,0.819-0.056c0.284-0.061,0.571-0.014,0.854-0.095c0.51-0.145,0.976-0.418,1.46-0.629
			c0.289-0.125,0.697-0.387,1.014-0.232c0.076,0.524-0.427,0.965-0.875,1.132c-0.356,0.133-0.724,0.279-1.107,0.294
			c-0.426,0.017-0.852,0.039-1.281,0.03c-0.341-0.007-0.682-0.067-1.025-0.063c-0.229,0.002-0.467-0.032-0.688-0.086
			c-0.287-0.072-0.842-0.243-0.919-0.581"/>
		<path d="M222.661,54.845c0.001,0.03,0.08,0.057,0.126,0.101c0.07,0.068,0.12,0.196,0.157,0.285
			c0.122,0.297,0.23,0.674,0.099,0.984c-0.23,0.548-0.926,1.042-1.525,1.045c-0.526,0.003-0.923-0.729-0.899-1.208
			c0.018-0.361,0.364-0.651,0.647-0.81c0.336-0.187,0.751-0.421,1.144-0.43"/>
		<path fill="#FFFFFF" d="M219.143,57.344c-0.143,0.282-0.277,0.576-0.424,0.858c-0.089,0.17-0.188,0.334-0.272,0.507
			c-0.045,0.091-0.118,0.217-0.133,0.321c0.065-0.077,0.222-0.009,0.288,0.027c0.114,0.062,0.237,0.145,0.361,0.184
			c0.037,0.011,0.08,0.014,0.109,0.033c0.018-0.123,0.012-0.23,0.048-0.354c0.051-0.172,0.08-0.347,0.141-0.515
			c0.042-0.114,0.085-0.227,0.131-0.339c0.027-0.066,0.069-0.116,0.103-0.176c0.017-0.03,0.021-0.073,0.04-0.102
			c0.042-0.064,0.131-0.101,0.164-0.168c-0.096-0.018-0.171-0.103-0.251-0.154c-0.073-0.046-0.194-0.08-0.253-0.141"/>
		<path fill="#FFFFFF" d="M220.764,57.789c0.006,0.094-0.017,0.198-0.03,0.291c-0.035,0.263-0.107,0.51-0.157,0.771
			c-0.062,0.327-0.081,0.668-0.229,0.971c0.046,0.011,0.074-0.01,0.115-0.015c0.071-0.008,0.153-0.004,0.224,0
			c0.17,0.01,0.36,0.018,0.517,0.08c-0.007-0.143-0.013-0.296,0.011-0.438c0.045-0.268,0.116-0.514,0.123-0.789
			c0.004-0.184,0.059-0.365,0.102-0.542c0.017-0.067,0.055-0.177,0.049-0.241c-0.1-0.006-0.192-0.04-0.285-0.075
			c-0.074-0.028-0.145-0.068-0.224-0.078c-0.085-0.011-0.142,0.006-0.215-0.055"/>
		<path fill="#FFFFFF" d="M222.772,57.772c-0.009,0.024,0.028,0.098,0.035,0.139c0.026,0.183,0.031,0.373,0.054,0.558
			c0.042,0.343,0.029,0.688,0.03,1.033c0,0.152-0.035,0.31-0.014,0.46c0.26-0.25,0.717-0.123,1.042-0.175
			c-0.055-0.122-0.111-0.255-0.156-0.386c-0.055-0.164-0.077-0.338-0.133-0.501c-0.045-0.129-0.085-0.261-0.111-0.396
			c-0.037-0.198-0.076-0.381-0.139-0.572c-0.04-0.118-0.033-0.244-0.07-0.361c-0.076-0.017-0.201,0.021-0.28,0.031
			c-0.134,0.016-0.255,0.068-0.392,0.069"/>
		<path fill="#FFFFFF" d="M224.798,57.396c-0.01,0.053,0.041,0.132,0.066,0.175c0.084,0.144,0.183,0.281,0.271,0.423
			c0.183,0.291,0.261,0.631,0.422,0.933c0.034,0.064,0.031,0.102,0.088,0.097c0.063-0.005,0.131-0.057,0.189-0.085
			c0.213-0.104,0.458-0.173,0.678-0.243c-0.025-0.014-0.027-0.031-0.043-0.055c-0.042-0.062-0.084-0.121-0.131-0.18
			c-0.176-0.223-0.343-0.463-0.527-0.678c-0.185-0.216-0.357-0.441-0.508-0.682c-0.014-0.022-0.054-0.131-0.079-0.139
			c-0.039-0.011-0.08,0.057-0.106,0.09c-0.071,0.088-0.123,0.173-0.216,0.241c-0.058,0.042-0.216,0.091-0.189,0.187"/>
		<path d="M230.025,54.728c-0.031-0.025,0.062-0.329,0.073-0.394c0.051-0.278,0.13-0.551,0.168-0.832
			c0.064-0.471,0.068-0.971,0.193-1.427c0.083,0.009,0.155,0.451,0.174,0.54c0.044,0.2,0.061,0.396,0.093,0.594
			c0.063-0.017,0.083-0.105,0.108-0.164c0.082-0.192,0.139-0.399,0.209-0.596c0.068-0.188,0.123-0.431,0.261-0.583
			c0.044,0.229-0.03,0.485,0.011,0.715c0.176-0.268,0.328-0.826,0.714-0.857c0.026,0.161-0.105,0.319-0.041,0.478
			c0.092-0.033,0.117-0.119,0.175-0.188c0.087-0.102,0.18-0.209,0.281-0.298c0.129-0.114,0.271-0.221,0.417-0.313
			c0.083-0.052,0.224-0.178,0.318-0.194c0.04,0.142-0.105,0.406-0.157,0.533c-0.051,0.125-0.098,0.25-0.156,0.371
			c-0.03,0.062-0.088,0.133-0.081,0.201c0.199,0.027,0.331-0.05,0.511-0.125c0.171-0.072,0.45-0.21,0.634-0.193
			c-0.032,0.214-0.358,0.324-0.519,0.41c-0.161,0.085-0.33,0.182-0.469,0.291c-0.112,0.088-0.226,0.233-0.293,0.359
			c-0.046,0.087-0.126,0.305-0.211,0.342c0.064-0.109,0.108-0.299,0.136-0.43c0.034-0.16-0.047-0.289-0.16-0.407
			c-0.23-0.24-0.645-0.043-0.862,0.142c-0.349,0.298-0.505,0.811-0.742,1.192c-0.14,0.225-0.305,0.392-0.504,0.562
			c0.14,0.142,0.477,0.136,0.66,0.135c0.27,0,0.545,0.029,0.794-0.085c0.158-0.073,0.455-0.254,0.522-0.429
			c0.069-0.178-0.031-0.493,0.067-0.643c0.031,0.309,0.166,0.768-0.034,1.05c-0.17,0.241-0.426,0.462-0.709,0.547
			c-0.136,0.042-0.255,0.048-0.401,0.048c-0.168,0-0.292-0.042-0.454-0.082c-0.177-0.043-0.298-0.12-0.429-0.249
			c-0.083-0.082-0.212-0.133-0.268-0.238"/>
		<path d="M232.188,52.967c0.104,0.324,0.011,0.69-0.07,1.003c-0.078,0.299-0.198,0.695-0.484,0.859
			c-0.155,0.089-0.314,0.06-0.477,0.01c-0.154-0.048-0.345-0.003-0.484-0.099c-0.136-0.094-0.105-0.325-0.105-0.474
			c0-0.397,0.066-0.821,0.265-1.169c0.126-0.222,0.267-0.368,0.475-0.515c0.113-0.08,0.218-0.107,0.349-0.136
			C231.987,52.372,232.104,52.707,232.188,52.967z"/>
		<path d="M216.436,53.4c-0.005-0.077,0.058-0.173,0.086-0.243c0.057-0.14,0.143-0.259,0.229-0.382
			c0.182-0.257,0.411-0.537,0.631-0.762c0.192-0.196,0.36-0.425,0.576-0.596c0.32-0.253,0.648-0.516,0.998-0.726
			c0.781-0.468,1.667-0.827,2.588-0.738c0.428,0.042,0.822,0.168,1.237,0.279c0.46,0.123,0.865,0.383,1.273,0.623
			c0.345,0.203,0.673,0.452,0.963,0.731c0.079,0.076,0.454,0.3,0.381,0.46c-0.044,0.098-0.198,0.069-0.288,0.078
			c-0.107,0.011-0.159,0.027-0.267-0.005c-0.139-0.042-0.275-0.1-0.409-0.155c-0.27-0.109-0.535-0.21-0.828-0.239
			c-0.347-0.033-0.73-0.027-1.078-0.007c-0.821,0.046-1.821,0.111-2.528,0.571c-0.545,0.354-1.06,0.855-1.477,1.359
			c-0.194,0.234-0.448,0.488-0.58,0.767c-0.084,0.18-0.112,0.399-0.256,0.549c-0.255,0.266-0.517-0.04-0.697-0.244
			c-0.269-0.305-0.666-0.611-0.661-1.051"/>
		<path d="M231.203,49.147c-0.106-0.011-0.198,0.048-0.292,0.088c-0.194,0.081-0.38,0.157-0.557,0.271
			c-0.4,0.262-0.642,0.631-0.943,0.989c-0.241,0.287-0.379,0.541-0.481,0.901c-0.049,0.173-0.087,0.375-0.083,0.559
			c0.114-0.141,0.297-0.286,0.445-0.386c0.203-0.137,0.404-0.286,0.627-0.391c0.426-0.201,0.842-0.3,1.311-0.297
			c0.182,0.001,0.358-0.031,0.542-0.027c0.135,0.003,0.24,0.046,0.367,0.082c0.222,0.062,0.398,0.175,0.622,0.028
			c0.169-0.112,0.371-0.33,0.396-0.542c0.049-0.408-0.196-0.863-0.479-1.139c-0.217-0.21-0.621-0.471-0.94-0.462
			c-0.088,0.002-0.205,0.043-0.294,0.062c-0.155,0.033-0.255,0.178-0.401,0.211"/>
		<path d="M227.171,65.998c-0.204,0.23-1.416-0.034-1.796-0.289c-0.592-0.397-0.673-0.823-0.947-1.357
			c0.487-0.674,0.695-0.022,1.15,0.131c0.562,0.19,1.12-0.185,1.727-0.103c0.126,0.442,0.465,0.779,0.547,1.259
			c0.088,0.02,0.177,0.038,0.265,0.057c0.388,0.96-1.616,1.673-2.247,1.617c-0.952-0.086-1.95-1.32-1.788-2.304"/>
		<path d="M215.444,36.725c-0.42,0.357-0.781,0.771-1.104,1.223c-0.552,0.768-0.862,1.743-1.083,2.661
			c-0.434,1.802-0.395,3.693-0.508,5.527c-0.047,0.772-0.265,1.47-0.261,2.24c0.001,0.291-0.081,0.547-0.104,0.835
			c-0.024,0.286-0.002,0.57-0.051,0.851c-0.008,0.05-0.002,0.102-0.011,0.153c-0.24-0.182,0.633-1.061,0.786-1.2
			c0.305-0.279,0.643-0.544,0.984-0.773c0.627-0.419,1.328-0.666,1.984-1.021c1.158-0.627,2.274-1.313,3.558-1.65
			c1.176-0.308,2.363-0.677,3.587-0.695c1.571-0.022,3.104-0.023,4.574,0.538c0.201,0.077,0.379,0.149,0.569,0.249
			c0.257,0.135,0.46,0.422,0.712,0.541c0.197,0.093,0.396,0.07,0.426-0.171c0.021-0.165-0.036-0.321-0.087-0.475
			c-0.045-0.136-0.06-0.28-0.105-0.416c-0.08-0.235-0.295-0.467-0.464-0.643c-0.537-0.558-1.113-1.073-1.618-1.662
			c-0.254-0.297-0.541-0.556-0.819-0.829c-0.266-0.26-0.452-0.557-0.674-0.855c-0.455-0.61-1.021-1.127-1.549-1.669
			c-0.245-0.252-0.525-0.435-0.79-0.668c-0.269-0.238-0.503-0.52-0.773-0.762c-0.261-0.233-0.554-0.423-0.814-0.652
			c-0.244-0.215-0.476-0.441-0.732-0.639c-0.463-0.358-0.89-0.806-1.463-0.945c-0.377-0.092-0.728-0.045-1.101,0.034
			c-0.325,0.069-0.672,0.021-1.005,0.057C216.758,35.99,216.029,36.228,215.444,36.725z"/>
		<path fill="#FFFFFF" d="M231.708,55.184c-0.325,0.233-0.158,0.492-0.173,0.846c0.125-0.04,0.249-0.125,0.379-0.164
			c0.076-0.25-0.283-0.525-0.206-0.726"/>
		<path fill="#FFFFFF" d="M232.475,54.839c-0.125,0.078,0.502,0.538,0.547,0.636c-0.038,0.033-0.219,0.172-0.258,0.176
			c-0.095,0.01-0.22-0.14-0.297-0.195c-0.091-0.064-0.354-0.167-0.335-0.316c0.009-0.067,0.204-0.274,0.258-0.301"/>
		<path fill="#FFFFFF" d="M221.104,49.189c-0.05,0.002-0.188-0.203-0.254-0.277c-0.222-0.251-0.399-0.545-0.566-0.835
			c-0.161-0.278-0.337-0.532-0.468-0.819c-0.057-0.127-0.147-0.378-0.279-0.435c-0.005,0.024-0.011,0.049-0.017,0.074
			c-0.171,0.024-0.327,0.018-0.498,0.058c-0.023,0.202,0.042,0.355,0.111,0.543c0.138,0.373,0.13,0.793,0.224,1.18
			c0.097,0.4,0.191,0.755,0.222,1.154c0.208-0.158,0.629-0.203,0.889-0.245c0.112-0.018,0.229-0.025,0.338-0.062
			c0.141-0.049,0.241-0.164,0.383-0.206"/>
		<path fill="#FFFFFF" d="M230.602,48.672c-0.092-0.085-0.254-0.337-0.331-0.462c-0.116-0.187-0.199-0.365-0.331-0.543
			c-0.093-0.125-0.165-0.231-0.222-0.375c-0.034-0.087-0.07-0.172-0.105-0.258c-0.015-0.036-0.08-0.211-0.105-0.229
			c-0.07-0.046-0.367,0.005-0.476,0.019c-0.016,0.078,0.082,0.27,0.11,0.357c0.08,0.241,0.164,0.457,0.214,0.712
			c0.069,0.349,0.152,0.692,0.234,1.039c0.045,0.19,0.164,0.407,0.169,0.599c0.22-0.307,0.525-0.504,0.799-0.772"/>
		<path fill="#FD1813" d="M238.317,57.529c0.41-0.165,1.158-0.121,1.339,0.352c0.264,0.688-0.35,1.143-0.976,0.957
			c-0.297-0.088-0.536-0.189-0.645-0.504C237.931,58.03,237.995,57.659,238.317,57.529z"/>
		<path fill="#FD1813" d="M219.208,60.238c1.369,0.658,0.896,3.001-0.816,2.637c-0.563-0.12-0.947-0.691-0.816-1.32
			c0.168-0.81,0.995-1.169,1.633-1.481"/>
		<path fill="#FD1813" d="M190.443,73.403c-0.021,0.152,0.333,0.438,0.455,0.783c0.103,0.293,0.125,1.048,0.008,1.323
			c-0.302,0.705-1.438,0.881-2.088,0.664c-0.612-0.205-1.33-1.29-1.306-1.947c0.04-1.106,1.499-1.146,2.281-1.151"/>
		<path fill="#FD1813" d="M203.932,88.378c0.076,0.477,0.57,0.598,0.654,1.152c0.075,0.493,0.021,0.946-0.29,1.325
			c-0.571,0.696-2.246,0.744-2.846,0.034c-0.5-0.592-0.659-1.736,0.084-2.317c0.708-0.553,1.857-0.522,2.722-0.522"/>
		<path d="M150.201,86.189c0.778-0.073,0.926,0.96,0.857,1.55c-0.126,1.09-1.309,1.363-2.213,1.315
			c-0.485-0.026-0.73-0.165-0.908-0.628c-0.139-0.361-0.217-0.818-0.072-1.181c0.177-0.444,0.633-0.734,1.045-0.914
			c0.349-0.152,0.756-0.394,1.149-0.356"/>
	</g>
</g>
</svg>
