<?xml version="1.0" encoding="utf-8"?>
<!-- Generator: Adobe Illustrator 16.0.4, SVG Export Plug-In . SVG Version: 6.00 Build 0)  -->
<!DOCTYPE svg PUBLIC "-//W3C//DTD SVG 1.1//EN" "http://www.w3.org/Graphics/SVG/1.1/DTD/svg11.dtd">
<svg version="1.1" id="Ebene_1" xmlns="http://www.w3.org/2000/svg" xmlns:xlink="http://www.w3.org/1999/xlink" x="0px" y="0px"
	 width="283.46px" height="425.2px" viewBox="0 0 283.46 425.2" enable-background="new 0 0 283.46 425.2" xml:space="preserve">
<g>
	<path d="M187.792,353.829c1.631,0.014,3.184-0.005,4.853-0.167c0.917-0.089,3.107-0.454,3.815,0.127
		c0.55,0.452,0.692,2.994,0.839,3.724c0.148,0.736,0.121,1.519,0.216,2.264c0.062,0.499,0.602,1.566,0.499,1.969
		c-0.146,0.572-3.127,1.674-3.756,2.05c-1.142,0.684-2.577,2.021-3.805,2.419c-0.282,0.992,1.026,2.357,1.402,3.265
		c0.681,1.644,1.588,3.373,2.531,4.906c1.755,2.859,3.593,5.313,3.906,8.709c0.296,3.202,0.027,6.305-0.25,9.447
		c-0.18,2.033-0.721,3.814-1.456,5.707c-0.821,2.115-1.51,4.431-2.468,6.473c-0.653,1.391-2.063,2.355-3.116,3.427
		c-1.45,1.476-2.434,1.686-4.182,2.391c-2.415,0.973-4.691,2.475-7.364,2.71c-1.9,0.167-3.729-0.47-5.636-0.329
		c-2.542,0.189-5.713,0.175-7.939-1.314c-1.068-0.715-1.309-1.726-1.48-2.895c-0.17-1.16-0.689-2.404-0.837-3.463
		c-0.232-1.655,0.352-1.599,1.745-2.041c1.419-0.449,2.754-1.179,4.124-1.819c2.203-1.029,4.486-1.849,6.645-2.91
		c2.254-1.107,3.923-1.494,4.992-3.975c0.911-2.114,0.924-4.693,0.774-6.937c-0.174-2.597-0.788-4.769-1.252-7.247
		c-0.474-2.538-0.713-5.158-1.288-7.654c-0.864-3.75-0.502-7.589-1.164-11.338c-0.365-2.069-1.401-4.085,0.85-5.25
		C181.591,354.734,184.856,353.805,187.792,353.829z"/>
	<path d="M89.226,394.8c2.043-0.955,4.169-1.288,6.323-1.807c1.294-0.311,2.713-0.514,3.91-0.939
		c0.995-0.354,2.807-1.443,3.854-1.188c0.062,1.812,0.984,3.67,1.142,5.56c0.19,2.279,0.996,4.571,1.516,6.797
		c0.406,1.736,0.379,3.554,0.765,5.291c0.209,0.94,0.652,1.829,0.858,2.793c0.125,0.587,0.54,1.677,0.435,2.189
		c-1.636,0.366-3.413,0.157-5.056,0.506c-1.571,0.333-2.99,1.763-4.671,1.557c-0.078-1.112-0.974-2.05-1.538-2.958
		c-0.751-1.209-0.845-1.956-2.255-1.144c-0.91,0.524-2.362,1.323-3.013,2.207c-0.739,1.004-1.113,1.873-2.027,2.773
		c-1.672,1.648-4.627,0.781-6.808,0.66c-2.625-0.146-5.802,0.024-8.516,0.569c-5.087,1.022-10.142,1.528-14.898-0.361
		c-4.532-1.801-5.657-7.75-4.554-11.873c1.104-4.122,4.11-5.271,8.127-4.757c1.989,0.255,4.05,0.177,6.059,0.555
		c1.869,0.353,3.637,1.184,5.334,1.99c1.503,0.714,2.746,1.907,4.474,1.95c1.872,0.046,3.979-0.365,5.362-1.58
		c1.417-1.244,2.409-3.093,2.03-5.005C85.561,395.965,87.098,395.796,89.226,394.8z"/>
	<path fill="#FF0000" d="M98.108,264.241c0.534,0.416,1.148,0.15,1.771,0.112c1.59-0.098,3.139-0.002,4.744-0.157
		c7.893-0.76,15.827-0.583,23.752-0.89c8.042-0.311,16.097-1.722,24.13-1.862c2.75-0.048,5.421,0.128,8.161,0.313
		c1.365,0.093,2.968,0.384,4.324,0.142c-1.258,1.326-2.032,2.936-2.832,4.564c-0.603,1.229-0.753,2.531-0.845,3.853
		c-0.222,3.194-0.979,6.32-1.389,9.494c-1.01,7.813-0.751,15.683-0.923,23.546c-0.144,6.568-0.188,13.112,0.43,19.639
		c0.378,3.998,0.757,7.996,1.135,11.993c0.398,4.202,1.225,8.036,2.361,12.105c0.355,1.275,0.781,2.352,1.336,3.543
		c0.263,0.565,0.576,1.809,1.188,2.11c0.854,0.421,2.325-0.541,3.209-0.537c0.917,0.003,1.941,0.006,2.935,0.057
		c0.581,2.552,1.063,4.984,1.891,7.507c0.943,2.875,1.665,5.697,2.271,8.653c0.391,1.901-0.029,4.119,0.536,5.972
		c0.197,0.645,0.8,1.499,1.129,2.136c0.703,1.359,0.388,1.416-1.005,2.033c-2.429,1.077-5.121,0.748-7.628,1.715
		c-2.945,1.136-5.74,1.689-8.843,2.205c-2.355,0.392-4.659,1.093-7.034,1.531c-1.861,0.343-3.595,1.12-5.576,1.056
		c-0.447-3.213-1.697-6.625-2.743-9.716c-2.136-6.312-4.55-12.463-5.976-19.006c-1.59-7.302-5.073-14.14-8.354-20.755
		c-2.349-0.147-3.945-0.573-6.151-1.398c-1.33-0.498-2.751-0.831-4.103-1.343c-1.721-0.653-1.816-0.556-2.724,1.061
		c-2.512,4.472-4.675,9.229-6.329,14.032c-0.781,2.266-1.232,4.837-1.654,7.215c-0.725,4.079-1.987,8.019-2.569,12.122
		c-0.475,3.347-1.769,6.47-2.802,9.656c-0.807,2.486-1.102,5.003-1.654,7.524c-0.281,1.281-0.434,2.642-0.726,3.835
		c-0.18,0.733,0.168,0.549-0.431,1.119c-0.615,0.585-1.778,0.532-2.558,0.601c-4.436,0.392-8.869,0.839-13.302,1.259
		c-2.575,0.244-5.17,0.407-7.735,0.725c-0.905,0.112-3.155,0.282-3.867,0.838c-0.282-6.124-1.148-12.223-1.443-18.342
		c-0.5-10.358-0.325-20.75,0.207-31.113c0.227-4.429,0.918-8.816,1.184-13.23c0.183-3.037-1.355-6.699,0.281-9.513
		c1.156-1.988,2.819-3.19,3.764-5.336c1.161-2.637,2.637-5.219,4.009-7.762c3.058-5.668,6.333-11.224,9.09-17.05
		c1.003-2.121,1.777-4.155,2.521-6.368c0.609-1.814,1.624-3.482,2.146-5.334c0.666-2.359,1.345-4.744,1.915-7.062
		c0.47-1.914,1.51-4.785,1.136-6.711c-0.02-0.207-0.018-0.192,0.004,0.042"/>
	<path d="M94.569,145.291c1.276-2.925,6.998-7.504,10.143-9.966c1.072-0.841,2.05-1.872,3.123-2.682
		c1.321-0.997,2.574-1.156,3.807-1.865c1.759-1.012,3.241-2.725,5.038-3.808c1.944-1.172,3.723-1.929,5.671-2.983
		c2.488-1.347,3.185-3.53,5.227-5.066c1.827-1.374,4.617-0.634,6.756-1.426c2.359-0.874,4.293-1.503,6.396-2.935
		c-1.033,3.467,3.73,6.855,5.797,9.098c2.827,3.068,5.413,6.525,8.212,9.508c1.37,1.46,2.831,2.382,4.094,3.899
		c1.629,1.955,3.275,4.08,4.75,6.159c1.138,1.604,2.703,2.952,3.79,4.579c1.451,2.17,1.125,4.323,1.107,6.932
		c-0.042,6.148,1.959,12.492,2.494,18.75c0.731,8.552,1.296,16.937,1.296,25.566c0,5.453,0,10.906,0,16.359c0,2.528,0,5.055,0,7.583
		c0,2.477-0.783,5.086-0.629,7.39c0.337-1.353-0.409-2.518-0.651-3.725c-0.367-1.832-0.361-3.698-0.6-5.562
		c-0.543-4.244-1.246-8.768-2.05-13.011c-0.518-2.729-1.37-9.133-3.935-10.751c-3.355-2.116-4.619,1.905-4.769,4.426
		c-0.531,8.896,0,17.991,0,26.904c0,6.916,0.878,13.067,2.527,19.773c1.358,5.526,4.454,11.797,3.68,17.402
		c-2.966,1.43-7.209,0.808-10.488,1.512c-3.551,0.763-7.584,2.497-11.371,2.879c-3.589,0.363-7.257-0.121-10.865,0.126
		c-3.306,0.226-6.296,1.487-9.49,1.942c-4.242,0.605-8.979-0.554-13.247-0.831c-2.59-0.168-5.083-0.424-7.577-1.175
		c-3.353-1.01-6.681-2.316-9.986-3.419c-4.427-1.477-1.914-3.235-1.375-6.611c0.308-1.931,0.041-3.793,0.46-5.684
		c0.505-2.278,0.883-4.667,1.402-6.961c1.695-7.495,2.511-15.267,4.547-22.729c1.14-4.173,1.77-7.522,1.77-12.035
		c0-4.517-0.156-8.898-0.664-13.233c-0.323-2.752,0.301-2.542-1.881-3.772c-4.126-2.328-4.635-2.079-4.819-6.967
		c-0.158-4.18-0.217-8.36-0.217-12.543c0-4.288,0.002-8.576,0-12.864c0-3.576,0-7.021,0-10.601"/>
	<polygon fill="#FF0000" points="115.314,117.588 115.314,138.565 127.301,128.976 144.085,138.565 150.077,121.184 
		127.901,125.979 	"/>
	<circle fill="#245977" cx="202.98" cy="42.497" r="8.016"/>
	<circle fill="#FF0000" cx="141.078" cy="17.373" r="8.016"/>
	<circle fill="#245977" cx="92.599" cy="37.741" r="8.017"/>
	<circle fill="#FF0000" cx="215.368" cy="109.573" r="8.016"/>
	<circle fill="#245977" cx="207.351" cy="168.119" r="8.016"/>
	<polygon fill="#245977" points="141.218,120.614 130.898,96.693 152.418,92.684 154.984,73.697 147.09,57.362 111.746,58.572 
		111.543,79.166 127.509,113.569 125.431,122.428 	"/>
	<ellipse fill="#FF0000" cx="147.894" cy="76.487" rx="3.259" ry="2.874"/>
	<ellipse fill="#FF0000" cx="126.16" cy="82.89" rx="3.261" ry="2.875"/>
	<path fill="none" stroke="#000000" stroke-width="1.0439" stroke-linecap="round" stroke-linejoin="round" d="M125.903,70.828
		c0-0.208,0-0.22,0-0.038c0,1.446,0,2.894,0,4.34c0,0.184,0,0.17,0-0.036"/>
	<path fill="#FFFFFF" d="M142.698,54.892l-6.106-10.148l-10.558-2.249l-7.765,2.044c-0.509-0.584-0.975-1.343-1.809-1.562
		c-0.69-0.184-1.414,0.198-1.641,0.734c-0.049,0.114-0.055,0.233-0.032,0.346c-0.167,0.475-0.044,1.03,0.277,1.434
		c0.182,0.226,0.427,0.415,0.677,0.592l-7.212,5.471l-2.723,7.082l4.115,7.297l-5.321,4.283l6.941,8.948v-6.536l6.535-7.514
		l21.563-6.534l9.637,2.855l1.14-7.904L142.698,54.892z"/>
	<path d="M141.236,87.622c1.217,1.119,3.173-1.021,3.798-1.9"/>
	<path fill="none" stroke="#000000" stroke-width="0.9712" stroke-linecap="round" stroke-linejoin="round" d="M141.08,67.354
		c0.552,0.653,0.94,1.419,1.428,2.116c0.325,0.466,0.602,1.367,1.123,1.613"/>
	<circle fill="#FF0000" cx="82.298" cy="109.573" r="8.016"/>
	<circle fill="#FFFFFF" cx="130.612" cy="146.391" r="4.451"/>
	<circle fill="#FFFFFF" cx="132.848" cy="165.317" r="5.214"/>
	<circle fill="#FFFFFF" cx="132.192" cy="186.771" r="5.215"/>
	<circle fill="#FFFFFF" cx="133.364" cy="207" r="5.215"/>
	<circle fill="#FFFFFF" cx="133.364" cy="230.878" r="5.215"/>
	<circle fill="#FFFFFF" cx="135.062" cy="251.901" r="5.214"/>
	<g>
		<polygon fill="#FFFFFF" points="100.165,137.567 105.308,134.844 110.146,275.205 103.795,274.6 		"/>
		<polygon fill="#FFFFFF" points="157.338,133.259 162.479,137.192 154.917,269.99 150.379,270.594 		"/>
	</g>
	<polygon fill="#245977" points="75.981,195.362 71.478,209.752 98.09,230.841 93.015,251.666 100.803,266.85 105.603,267.253 
		101.661,257.195 111.271,270.012 115.206,268.061 107.927,258.402 110.688,258.437 119.529,267.824 121.027,265.715 
		113.087,255.637 123.083,263.044 125.051,261.378 113.961,244.343 115.874,237.244 117.215,239.611 122.065,240.307 
		117.311,229.125 109.218,221.724 92.675,212.68 	"/>
	<circle fill="#245977" cx="108.644" cy="187.345" r="8.016"/>
	<g>
		<path fill="#FF0000" d="M91.57,146.32c0.589,1.621-26.735,39.551-26.735,39.551v30.68h16.244l10.501-21.765l2.745-4.872
			l1.266-45.404L91.57,146.32z"/>
		<polygon fill="#FF0000" points="176.016,147.179 196.409,203.617 194.014,213.693 194.251,225.972 192.008,228.54 
			182.885,230.362 181.27,230.732 176.298,232.158 170.356,230.203 168.762,178.371 166.493,148.361 		"/>
	</g>
	<path fill="#245977" d="M177.837,221.278c-0.021,0.074,4.87,7.382,4.87,7.382l9.809-3.231l9.08-4.234l26.542,4.47l13.722-5.807
		l-2.542-4.17l-15.478,2.752l15.062-6.583l-3.94-3.317l-11.565,4.83l-0.531-1.154l12.216-7.19l-4.817-0.741l-8.851,6.22
		l-1.103-1.875l8.158-5.731l-4.079-1.113L219.21,207l-8.214-1.975l-2.754-3.098l0.745-6.448l-1.948-0.897l-3.844,4.736
		l-5.971,10.903l-14.243,4.803C182.982,215.024,178.254,219.878,177.837,221.278z"/>
	<path d="M142.698,54.892l-6.106-10.148l-10.558-2.249l-7.765,2.044c-0.509-0.584-0.975-1.343-1.809-1.562
		c-0.69-0.184-1.414,0.198-1.641,0.734c-0.049,0.114-0.055,0.233-0.032,0.346c-0.167,0.475-0.044,1.03,0.277,1.434
		c0.182,0.226,0.427,0.415,0.677,0.592l-7.212,5.471l-2.723,7.082l4.115,7.297l-5.321,4.283l6.941,8.948v-6.536l6.535-7.514
		l21.563-6.534l9.637,2.855l1.14-7.904L142.698,54.892z"/>
	<path d="M109.988,281.125c-0.583-0.931-1.678-1.91-2.851-1.747c-1.257,0.175-2.454,0.608-3.353,1.527
		c-0.833,0.851-1.163,2.216-0.886,3.375c0.196,0.818,0.543,1.706,1.185,2.283c0.477,0.427,1.12,0.601,1.698,0.837
		c1.362,0.556,2.652,0.432,3.884-0.341c1.148-0.722,1.31-1.846,1.162-3.117C110.719,283.005,110.489,281.924,109.988,281.125z"/>
	<path d="M153.14,276.355c0,0.091,0.002,0.094,0.008,0.011c-1.036-1.627-3.436,0.239-4.114,1.312
		c-1.344,2.129-0.792,7.174,2.449,7.281c1.347,0.044,3.053-1.185,3.985-1.995c1.003-0.872,1.42-2.124,1.363-3.436
		c-0.07-1.588-0.857-2.426-2.13-3.179c-0.339-0.201-1.762-0.836-2.008-0.441"/>
	<path fill="#245977" d="M88.055,395.122c-0.504,0.198-2.39-5.54-2.907-6.574c1.365-1.284,4.441-1.917,6.241-2.604
		c1.069-0.409,2.241-0.57,3.331-0.833c0.683-0.165,1.832-0.568,2.54-0.305c0.074,1.67,0.564,2.867,1.085,4.391
		c0.361,1.057,1.459,3.354,1.128,4.381c-3.458,1.45-6.783,2.656-10.565,2.656c0.21,0,0.419,0,0.629,0"/>
	<path fill="#245977" d="M171.773,360.671c0.638,0.616,0.647,3.902,0.76,4.889c0.217,1.895,0.496,3.29,1.157,5.056
		c0.848,0.223,1.076-0.541,1.769-0.703c0.726-0.169,1.784,0.018,2.529,0.018c1.591,0,3.279,0.144,4.842-0.056
		c0.747-3.559-2.015-7.488-2.231-10.992c-1.719-0.831-2.341,0.069-4.01,0.325c-1.584,0.243-3.205,0.143-4.787,0.435
		c-0.054,0.229,0.06,0.324,0.342,0.287"/>
</g>
</svg>
