<?xml version="1.0" encoding="utf-8"?>
<!-- Generator: Adobe Illustrator 16.0.4, SVG Export Plug-In . SVG Version: 6.00 Build 0)  -->
<!DOCTYPE svg PUBLIC "-//W3C//DTD SVG 1.1//EN" "http://www.w3.org/Graphics/SVG/1.1/DTD/svg11.dtd">
<svg version="1.1" id="Ebene_1" xmlns="http://www.w3.org/2000/svg" xmlns:xlink="http://www.w3.org/1999/xlink" x="0px" y="0px"
	 width="283.46px" height="425.2px" viewBox="0 0 283.46 425.2" enable-background="new 0 0 283.46 425.2" xml:space="preserve">
<g>
	<path fill="#245977" d="M121.499,269.75l15.889,59.622l66.12,19.255c0,0-29.444-31.548-58.889-29.445l-5.909-56.537L121.499,269.75
		z"/>
	<path fill="#245977" d="M101.207,237.253l-14.786,64.6c0,0-17.413,85.197-16.998,88.304c0.417,3.107,30.161-48.941,31.671-68.437
		c1.509-19.496-3.339-22.644-3.339-22.644l32.021-58.68L101.207,237.253z"/>
	<path fill="#245977" d="M66.371,101.329c-7.713-3.306-15.795-12.489-15.795-12.489s0.245-29.507,2.449-37.589
		c1.838-6.746,8.816-20.939,8.816-20.939l5.509-2.571l2.573,7.714l-4.408,5.51l-4.041,2.571L58.19,54.308l0.706,33.147l26.867,7.476
		c0,0,5.294-5.639,8.083-4.042c7.175,4.113,4.108,2.525,7.714,5.877l7.997,2.82l2.864-11.026l7.26-0.05l-0.794,12.519l10.101,1.186
		c0,0,4.731-5.945,8.939-6.182c2.157-0.122,6.743,3.521,11.424,3.72c6.812,0.291,14.196-0.701,14.196-0.701l12.487-3.557
		l-3.896-44.118l-4.907-4.383l-6.834-1.049l-0.178-5.959l5.784-2.629l8.343,5.186c0,0,3.146,2.679,4.155,10.053
		c2.733,19.984,3.929,32.128,3.8,36.993c-0.459,17.419,4.515,14.898-8.104,18.029c-12.62,3.131-37.37,3.844-37.37,3.844
		l-7.347,29.755l-1.394,34.609l-24.318-5.263l-3.312-21.263l-1.098-38.574c0,0,1.031-2.19-2.573-2.938
		C93.031,107.007,70.31,103.016,66.371,101.329z"/>
	<path fill="#FF0000" d="M103.784,96.948l2.635,0.674l3.414,15.498l2.94,4.775l11.166-17.618l2.628,0.877
		c0,0-3.506,12.333,1.269,18.578c0.705,0.923,0.716,3.783,4.775,4.408c0.967,0.149,1.837-2.204,1.837-2.204l-4.411,20.939
		l2.206,98.206l-28.282-5.185l-4.045-90.449l-0.734-28.654l4.041-9.918L103.784,96.948z"/>
	<path fill="#245977" d="M104.026,73.848l1.722-2.438c0,0-1.575,9.919,0,12.624c1.576,2.707,4.095,5.109,5.987,6.312
		c1.891,1.203,6.303,1.503,6.303,1.503l5.042-6.011c0,0,2.205-11.422,1.89-13.527c-0.313-2.103-10.082-6.912-10.082-6.912
		l-8.159,6.504"/>
	<path d="M111.637,73.339l3.147-4.041c0,0,4.935,2.94,6.039,3.675c1.102,0.734,2.57,3.306,2.57,3.306l0.735,4.041l-1.048,5.519
		l3.253-2.947l1.835-5.143c0,0,2.206,5.143,5.878,4.041c3.674-1.101,8.083-9.55,6.981-11.755c-1.104-2.205-8.45-9.184-10.287-6.612
		c-1.837,2.572-4.041,8.449-4.041,8.449s-1.838-9.551-8.817-11.755c-6.395-2.019-6.614-1.836-11.756,1.837
		c-1.817,1.299-5.142,8.816-5.142,8.816s-2.204-6.245-8.449-6.612c-4.77-0.281-9.552,10.287-5.879,13.593
		c3.676,3.306,9.919,9.55,12.125,5.877c2.204-3.673,2.57-6.613,2.57-6.613l2.203,2.939l1.572,1.439l0.517-6.082L111.637,73.339z"/>
	<path fill="#FF0000" d="M103.365,182.92l-52.05,34.701c0,0-4.099,35.06,29.158,52.136c38.909,19.981,67.116,0.633,68.353,0
		c15.79-8.086,76.291-6.009,47.408-65.702l-65.588-15.215c0,0-4.502,42.558-11.819,41.788c-7.317-0.771-13.865-5.777-13.865-5.777
		L103.365,182.92z"/>
	<circle fill="#FF0000" cx="108.587" cy="81.315" r="0.88"/>
	<circle fill="#FF0000" cx="120.818" cy="81.999" r="0.979"/>
	<path d="M112.207,85.522c0.924,0.749,3.023,1.743,3.611,0.118c-0.546-0.028-2.96-0.254-3.321-0.221c-0.28,0-0.583-0.236-0.51-0.132
		"/>
	<path fill="#FFFFFF" d="M107.982,76.532c0.232-0.059,0.456-0.376,0.713-0.513c0.33-0.174,0.568-0.19,0.941-0.188
		c0.655,0.003,1.178,0.128,1.796,0.158c0.155,0.949-0.781,1.375-1.547,1.536c-0.889,0.186-1.404-0.168-2.098-0.603
		c0.094-0.157,0.235-0.323,0.396-0.44"/>
	<path fill="#FFFFFF" d="M117.953,76.281c0.584-0.045,1.082-0.213,1.703-0.037c0.669,0.191,1.004,0.549,1.486,1.042
		c-0.703,0.058-1.143,0.726-1.989,0.6c-0.708-0.105-1.489-0.779-1.443-1.547c0.173,0.013,0.244-0.071,0.394-0.107"/>
	<circle fill="#245977" cx="109.5" cy="76.669" r="0.877"/>
	<circle fill="#245977" cx="119.305" cy="77.034" r="0.877"/>
	<circle fill="#FFFFFF" cx="58.917" cy="224.365" r="2.629"/>
	<circle fill="#FFFFFF" cx="65.227" cy="237.334" r="2.629"/>
	<circle fill="#FFFFFF" cx="73.113" cy="253.634" r="2.804"/>
	<circle fill="#FFFFFF" cx="87.66" cy="266.779" r="3.331"/>
	<circle fill="#FFFFFF" cx="104.485" cy="270.285" r="2.629"/>
	<circle fill="#FFFFFF" cx="116.052" cy="270.986" r="2.279"/>
	<circle fill="#FFFFFF" cx="130.423" cy="269.583" r="1.928"/>
	<circle fill="#FFFFFF" cx="141.466" cy="267.654" r="2.805"/>
	<circle fill="#FFFFFF" cx="154.61" cy="263.273" r="2.278"/>
	<circle fill="#FFFFFF" cx="165.828" cy="257.665" r="2.278"/>
	<circle fill="#FFFFFF" cx="180.198" cy="252.407" r="2.629"/>
	<circle fill="#FFFFFF" cx="190.189" cy="246.623" r="1.402"/>
	<circle fill="#FFFFFF" cx="194.921" cy="239.087" r="1.927"/>
	<circle fill="#FFFFFF" cx="196.499" cy="232.251" r="1.402"/>
	<circle fill="#FFFFFF" cx="196.323" cy="223.665" r="1.227"/>
	<circle fill="#FFFFFF" cx="195.096" cy="216.829" r="1.402"/>
	<circle fill="#FFFFFF" cx="194.396" cy="209.117" r="0.701"/>
	<circle fill="#FFFFFF" cx="192.818" cy="205.437" r="0.876"/>
	<circle fill="#FFFFFF" cx="57.34" cy="217.179" r="1.052"/>
	<circle fill="#FFFFFF" cx="98.702" cy="191.24" r="1.402"/>
	<circle fill="#FFFFFF" cx="101.155" cy="196.498" r="1.052"/>
	<circle fill="#FFFFFF" cx="110.094" cy="201.582" r="2.278"/>
	<circle fill="#FFFFFF" cx="121.135" cy="200.705" r="1.752"/>
	<circle fill="#FFFFFF" cx="128.847" cy="196.498" r="1.052"/>
	<circle fill="#FFFFFF" cx="131.475" cy="192.817" r="1.227"/>
	<polygon fill="#FFFFFF" points="95.546,195.796 61.895,216.828 63.998,221.034 	"/>
	<polygon fill="#FFFFFF" points="99.403,202.458 72.763,236.808 77.669,244.521 	"/>
	<polygon fill="#FFFFFF" points="108.165,207.715 89.237,257.84 100.104,260.995 	"/>
	<polygon fill="#FFFFFF" points="117.629,209.117 117.28,262.397 126.042,262.397 	"/>
	<polygon fill="#FFFFFF" points="123.59,207.715 143.219,257.139 151.982,251.881 	"/>
	<polygon fill="#FFFFFF" points="130.248,202.808 164.25,247.675 176.169,241.716 	"/>
	<polygon fill="#FFFFFF" points="135.157,199.653 185.982,231.2 188.787,221.736 	"/>
	<polygon fill="#FFFFFF" points="136.558,195.796 187.385,210.87 184.931,203.509 	"/>
	<circle fill="#FFFFFF" cx="105.445" cy="119.681" r="2.852"/>
	<circle fill="#FFFFFF" cx="121.649" cy="121.735" r="2.397"/>
</g>
</svg>
