<?xml version="1.0" encoding="utf-8"?>
<!-- Generator: Adobe Illustrator 16.0.4, SVG Export Plug-In . SVG Version: 6.00 Build 0)  -->
<!DOCTYPE svg PUBLIC "-//W3C//DTD SVG 1.1//EN" "http://www.w3.org/Graphics/SVG/1.1/DTD/svg11.dtd">
<svg version="1.1" id="Ebene_1" xmlns="http://www.w3.org/2000/svg" xmlns:xlink="http://www.w3.org/1999/xlink" x="0px" y="0px"
	 width="283.46px" height="425.2px" viewBox="0 0 283.46 425.2" enable-background="new 0 0 283.46 425.2" xml:space="preserve">
<pattern  x="-1253.84" y="-455.2" width="255.333" height="255.332" patternUnits="userSpaceOnUse" id="Neues_Musterfeld_1" viewBox="0 -255.332 255.333 255.332" overflow="visible">
	<g>
		<polygon fill="none" points="0,0 255.333,0 255.333,-255.332 0,-255.332 		"/>
		<path fill="#FFFFFF" d="M255.333-255.332H0V0h255.333V-255.332z M10.478-230.666c0,1.277-1.035,2.312-2.312,2.312
			s-2.312-1.035-2.312-2.312s1.035-2.312,2.312-2.312S10.478-231.943,10.478-230.666z M10.478-201.166
			c0,1.277-1.035,2.312-2.312,2.312s-2.312-1.034-2.312-2.312s1.035-2.312,2.312-2.312S10.478-202.443,10.478-201.166z
			 M10.478-171.666c0,1.277-1.035,2.312-2.312,2.312s-2.312-1.034-2.312-2.312s1.035-2.312,2.312-2.312
			S10.478-172.943,10.478-171.666z M10.478-142.166c0,1.277-1.035,2.312-2.312,2.312s-2.312-1.034-2.312-2.312
			s1.035-2.312,2.312-2.312S10.478-143.443,10.478-142.166z M10.478-112.666c0,1.277-1.035,2.312-2.312,2.312
			s-2.312-1.034-2.312-2.312s1.035-2.312,2.312-2.312S10.478-113.943,10.478-112.666z M10.478-83.166
			c0,1.277-1.035,2.312-2.312,2.312s-2.312-1.034-2.312-2.312s1.035-2.312,2.312-2.312S10.478-84.443,10.478-83.166z M10.478-53.666
			c0,1.277-1.035,2.312-2.312,2.312s-2.312-1.034-2.312-2.312s1.035-2.312,2.312-2.312S10.478-54.943,10.478-53.666z M10.478-24.166
			c0,1.277-1.035,2.312-2.312,2.312s-2.312-1.034-2.312-2.312s1.035-2.312,2.312-2.312S10.478-25.443,10.478-24.166z
			 M27.978-248.666c0,1.277-1.035,2.312-2.312,2.312s-2.312-1.035-2.312-2.312s1.035-2.312,2.312-2.312
			S27.978-249.943,27.978-248.666z M47.478-230.666c0,1.277-1.035,2.312-2.312,2.312s-2.312-1.035-2.312-2.312
			s1.035-2.312,2.312-2.312S47.478-231.943,47.478-230.666z M47.478-201.166c0,1.277-1.035,2.312-2.312,2.312
			s-2.312-1.034-2.312-2.312s1.035-2.312,2.312-2.312S47.478-202.443,47.478-201.166z M47.478-171.666
			c0,1.277-1.035,2.312-2.312,2.312s-2.312-1.034-2.312-2.312s1.035-2.312,2.312-2.312S47.478-172.943,47.478-171.666z
			 M47.478-142.166c0,1.277-1.035,2.312-2.312,2.312s-2.312-1.034-2.312-2.312s1.035-2.312,2.312-2.312
			S47.478-143.443,47.478-142.166z M47.478-112.666c0,1.277-1.035,2.312-2.312,2.312s-2.312-1.034-2.312-2.312
			s1.035-2.312,2.312-2.312S47.478-113.943,47.478-112.666z M47.478-83.166c0,1.277-1.035,2.312-2.312,2.312
			s-2.312-1.034-2.312-2.312s1.035-2.312,2.312-2.312S47.478-84.443,47.478-83.166z M47.478-53.666c0,1.277-1.035,2.312-2.312,2.312
			s-2.312-1.034-2.312-2.312s1.035-2.312,2.312-2.312S47.478-54.943,47.478-53.666z M47.478-24.166c0,1.277-1.035,2.312-2.312,2.312
			s-2.312-1.034-2.312-2.312s1.035-2.312,2.312-2.312S47.478-25.443,47.478-24.166z M64.978-248.666
			c0,1.277-1.035,2.312-2.312,2.312s-2.312-1.035-2.312-2.312s1.035-2.312,2.312-2.312S64.978-249.943,64.978-248.666z
			 M84.478-230.666c0,1.277-1.035,2.312-2.312,2.312s-2.312-1.035-2.312-2.312s1.035-2.312,2.312-2.312
			S84.478-231.943,84.478-230.666z M84.478-201.166c0,1.277-1.035,2.312-2.312,2.312s-2.312-1.034-2.312-2.312
			s1.035-2.312,2.312-2.312S84.478-202.443,84.478-201.166z M84.478-171.666c0,1.277-1.035,2.312-2.312,2.312
			s-2.312-1.034-2.312-2.312s1.035-2.312,2.312-2.312S84.478-172.943,84.478-171.666z M84.478-142.166
			c0,1.277-1.035,2.312-2.312,2.312s-2.312-1.034-2.312-2.312s1.035-2.312,2.312-2.312S84.478-143.443,84.478-142.166z
			 M84.478-112.666c0,1.277-1.035,2.312-2.312,2.312s-2.312-1.034-2.312-2.312s1.035-2.312,2.312-2.312
			S84.478-113.943,84.478-112.666z M84.478-83.166c0,1.277-1.035,2.312-2.312,2.312s-2.312-1.034-2.312-2.312
			s1.035-2.312,2.312-2.312S84.478-84.443,84.478-83.166z M84.478-53.666c0,1.277-1.035,2.312-2.312,2.312s-2.312-1.034-2.312-2.312
			s1.035-2.312,2.312-2.312S84.478-54.943,84.478-53.666z M84.478-24.166c0,1.277-1.035,2.312-2.312,2.312s-2.312-1.034-2.312-2.312
			s1.035-2.312,2.312-2.312S84.478-25.443,84.478-24.166z M101.978-248.666c0,1.277-1.035,2.312-2.312,2.312
			s-2.312-1.035-2.312-2.312s1.035-2.312,2.312-2.312S101.978-249.943,101.978-248.666z M121.478-230.666
			c0,1.277-1.035,2.312-2.312,2.312s-2.312-1.035-2.312-2.312s1.035-2.312,2.312-2.312S121.478-231.943,121.478-230.666z
			 M121.478-201.166c0,1.277-1.035,2.312-2.312,2.312s-2.312-1.034-2.312-2.312s1.035-2.312,2.312-2.312
			S121.478-202.443,121.478-201.166z M121.478-171.666c0,1.277-1.035,2.312-2.312,2.312s-2.312-1.034-2.312-2.312
			s1.035-2.312,2.312-2.312S121.478-172.943,121.478-171.666z M121.478-142.166c0,1.277-1.035,2.312-2.312,2.312
			s-2.312-1.034-2.312-2.312s1.035-2.312,2.312-2.312S121.478-143.443,121.478-142.166z M121.478-112.666
			c0,1.277-1.035,2.312-2.312,2.312s-2.312-1.034-2.312-2.312s1.035-2.312,2.312-2.312S121.478-113.943,121.478-112.666z
			 M121.478-83.166c0,1.277-1.035,2.312-2.312,2.312s-2.312-1.034-2.312-2.312s1.035-2.312,2.312-2.312
			S121.478-84.443,121.478-83.166z M121.478-53.666c0,1.277-1.035,2.312-2.312,2.312s-2.312-1.034-2.312-2.312
			s1.035-2.312,2.312-2.312S121.478-54.943,121.478-53.666z M121.478-24.166c0,1.277-1.035,2.312-2.312,2.312
			s-2.312-1.034-2.312-2.312s1.035-2.312,2.312-2.312S121.478-25.443,121.478-24.166z M138.978-248.666
			c0,1.277-1.035,2.312-2.312,2.312s-2.312-1.035-2.312-2.312s1.035-2.312,2.312-2.312S138.978-249.943,138.978-248.666z
			 M158.478-230.666c0,1.277-1.035,2.312-2.312,2.312s-2.312-1.035-2.312-2.312s1.035-2.312,2.312-2.312
			S158.478-231.943,158.478-230.666z M158.478-201.166c0,1.277-1.035,2.312-2.312,2.312s-2.312-1.034-2.312-2.312
			s1.035-2.312,2.312-2.312S158.478-202.443,158.478-201.166z M158.478-171.666c0,1.277-1.035,2.312-2.312,2.312
			s-2.312-1.034-2.312-2.312s1.035-2.312,2.312-2.312S158.478-172.943,158.478-171.666z M158.478-142.166
			c0,1.277-1.035,2.312-2.312,2.312s-2.312-1.034-2.312-2.312s1.035-2.312,2.312-2.312S158.478-143.443,158.478-142.166z
			 M158.478-112.666c0,1.277-1.035,2.312-2.312,2.312s-2.312-1.034-2.312-2.312s1.035-2.312,2.312-2.312
			S158.478-113.943,158.478-112.666z M158.478-83.166c0,1.277-1.035,2.312-2.312,2.312s-2.312-1.034-2.312-2.312
			s1.035-2.312,2.312-2.312S158.478-84.443,158.478-83.166z M158.478-53.666c0,1.277-1.035,2.312-2.312,2.312
			s-2.312-1.034-2.312-2.312s1.035-2.312,2.312-2.312S158.478-54.943,158.478-53.666z M158.478-24.166
			c0,1.277-1.035,2.312-2.312,2.312s-2.312-1.034-2.312-2.312s1.035-2.312,2.312-2.312S158.478-25.443,158.478-24.166z
			 M175.978-248.666c0,1.277-1.035,2.312-2.312,2.312s-2.312-1.035-2.312-2.312s1.035-2.312,2.312-2.312
			S175.978-249.943,175.978-248.666z M195.478-230.666c0,1.277-1.035,2.312-2.312,2.312s-2.312-1.035-2.312-2.312
			s1.035-2.312,2.312-2.312S195.478-231.943,195.478-230.666z M195.478-201.166c0,1.277-1.035,2.312-2.312,2.312
			s-2.312-1.034-2.312-2.312s1.035-2.312,2.312-2.312S195.478-202.443,195.478-201.166z M195.478-171.666
			c0,1.277-1.035,2.312-2.312,2.312s-2.312-1.034-2.312-2.312s1.035-2.312,2.312-2.312S195.478-172.943,195.478-171.666z
			 M195.478-142.166c0,1.277-1.035,2.312-2.312,2.312s-2.312-1.034-2.312-2.312s1.035-2.312,2.312-2.312
			S195.478-143.443,195.478-142.166z M195.478-112.666c0,1.277-1.035,2.312-2.312,2.312s-2.312-1.034-2.312-2.312
			s1.035-2.312,2.312-2.312S195.478-113.943,195.478-112.666z M195.478-83.166c0,1.277-1.035,2.312-2.312,2.312
			s-2.312-1.034-2.312-2.312s1.035-2.312,2.312-2.312S195.478-84.443,195.478-83.166z M195.478-53.666
			c0,1.277-1.035,2.312-2.312,2.312s-2.312-1.034-2.312-2.312s1.035-2.312,2.312-2.312S195.478-54.943,195.478-53.666z
			 M195.478-24.166c0,1.277-1.035,2.312-2.312,2.312s-2.312-1.034-2.312-2.312s1.035-2.312,2.312-2.312
			S195.478-25.443,195.478-24.166z M212.978-248.666c0,1.277-1.035,2.312-2.312,2.312s-2.312-1.035-2.312-2.312
			s1.035-2.312,2.312-2.312S212.978-249.943,212.978-248.666z M232.478-230.666c0,1.277-1.035,2.312-2.312,2.312
			s-2.312-1.035-2.312-2.312s1.035-2.312,2.312-2.312S232.478-231.943,232.478-230.666z M232.478-201.166
			c0,1.277-1.035,2.312-2.312,2.312s-2.312-1.034-2.312-2.312s1.035-2.312,2.312-2.312S232.478-202.443,232.478-201.166z
			 M232.478-171.666c0,1.277-1.035,2.312-2.312,2.312s-2.312-1.034-2.312-2.312s1.035-2.312,2.312-2.312
			S232.478-172.943,232.478-171.666z M232.478-142.166c0,1.277-1.035,2.312-2.312,2.312s-2.312-1.034-2.312-2.312
			s1.035-2.312,2.312-2.312S232.478-143.443,232.478-142.166z M232.478-112.666c0,1.277-1.035,2.312-2.312,2.312
			s-2.312-1.034-2.312-2.312s1.035-2.312,2.312-2.312S232.478-113.943,232.478-112.666z M232.478-83.166
			c0,1.277-1.035,2.312-2.312,2.312s-2.312-1.034-2.312-2.312s1.035-2.312,2.312-2.312S232.478-84.443,232.478-83.166z
			 M232.478-53.666c0,1.277-1.035,2.312-2.312,2.312s-2.312-1.034-2.312-2.312s1.035-2.312,2.312-2.312
			S232.478-54.943,232.478-53.666z M232.478-24.166c0,1.277-1.035,2.312-2.312,2.312s-2.312-1.034-2.312-2.312
			s1.035-2.312,2.312-2.312S232.478-25.443,232.478-24.166z M249.978-248.666c0,1.277-1.035,2.312-2.312,2.312
			s-2.312-1.035-2.312-2.312s1.035-2.312,2.312-2.312S249.978-249.943,249.978-248.666z M27.978-218.619
			c0,1.277-1.035,2.312-2.312,2.312s-2.312-1.035-2.312-2.312s1.035-2.311,2.312-2.311S27.978-219.896,27.978-218.619z
			 M64.978-218.619c0,1.277-1.035,2.312-2.312,2.312s-2.312-1.035-2.312-2.312s1.035-2.311,2.312-2.311
			S64.978-219.896,64.978-218.619z M101.978-218.619c0,1.277-1.035,2.312-2.312,2.312s-2.312-1.035-2.312-2.312
			s1.035-2.311,2.312-2.311S101.978-219.896,101.978-218.619z M138.978-218.619c0,1.277-1.035,2.312-2.312,2.312
			s-2.312-1.035-2.312-2.312s1.035-2.311,2.312-2.311S138.978-219.896,138.978-218.619z M175.978-218.619
			c0,1.277-1.035,2.312-2.312,2.312s-2.312-1.035-2.312-2.312s1.035-2.311,2.312-2.311S175.978-219.896,175.978-218.619z
			 M212.978-218.619c0,1.277-1.035,2.312-2.312,2.312s-2.312-1.035-2.312-2.312s1.035-2.311,2.312-2.311
			S212.978-219.896,212.978-218.619z M249.978-218.619c0,1.277-1.035,2.312-2.312,2.312s-2.312-1.035-2.312-2.312
			s1.035-2.311,2.312-2.311S249.978-219.896,249.978-218.619z M27.978-188.571c0,1.277-1.035,2.312-2.312,2.312
			s-2.312-1.035-2.312-2.312c0-1.276,1.035-2.312,2.312-2.312S27.978-189.848,27.978-188.571z M64.978-188.571
			c0,1.277-1.035,2.312-2.312,2.312s-2.312-1.035-2.312-2.312c0-1.276,1.035-2.312,2.312-2.312S64.978-189.848,64.978-188.571z
			 M101.978-188.571c0,1.277-1.035,2.312-2.312,2.312s-2.312-1.035-2.312-2.312c0-1.276,1.035-2.312,2.312-2.312
			S101.978-189.848,101.978-188.571z M138.978-188.571c0,1.277-1.035,2.312-2.312,2.312s-2.312-1.035-2.312-2.312
			c0-1.276,1.035-2.312,2.312-2.312S138.978-189.848,138.978-188.571z M175.978-188.571c0,1.277-1.035,2.312-2.312,2.312
			s-2.312-1.035-2.312-2.312c0-1.276,1.035-2.312,2.312-2.312S175.978-189.848,175.978-188.571z M212.978-188.571
			c0,1.277-1.035,2.312-2.312,2.312s-2.312-1.035-2.312-2.312c0-1.276,1.035-2.312,2.312-2.312S212.978-189.848,212.978-188.571z
			 M249.978-188.571c0,1.277-1.035,2.312-2.312,2.312s-2.312-1.035-2.312-2.312c0-1.276,1.035-2.312,2.312-2.312
			S249.978-189.848,249.978-188.571z M27.978-158.524c0,1.277-1.035,2.312-2.312,2.312s-2.312-1.035-2.312-2.312
			s1.035-2.312,2.312-2.312S27.978-159.801,27.978-158.524z M64.978-158.524c0,1.277-1.035,2.312-2.312,2.312
			s-2.312-1.035-2.312-2.312s1.035-2.312,2.312-2.312S64.978-159.801,64.978-158.524z M101.978-158.524
			c0,1.277-1.035,2.312-2.312,2.312s-2.312-1.035-2.312-2.312s1.035-2.312,2.312-2.312S101.978-159.801,101.978-158.524z
			 M138.978-158.524c0,1.277-1.035,2.312-2.312,2.312s-2.312-1.035-2.312-2.312s1.035-2.312,2.312-2.312
			S138.978-159.801,138.978-158.524z M175.978-158.524c0,1.277-1.035,2.312-2.312,2.312s-2.312-1.035-2.312-2.312
			s1.035-2.312,2.312-2.312S175.978-159.801,175.978-158.524z M212.978-158.524c0,1.277-1.035,2.312-2.312,2.312
			s-2.312-1.035-2.312-2.312s1.035-2.312,2.312-2.312S212.978-159.801,212.978-158.524z M249.978-158.524
			c0,1.277-1.035,2.312-2.312,2.312s-2.312-1.035-2.312-2.312s1.035-2.312,2.312-2.312S249.978-159.801,249.978-158.524z
			 M27.978-128.477c0,1.277-1.035,2.312-2.312,2.312s-2.312-1.034-2.312-2.312c0-1.277,1.035-2.312,2.312-2.312
			S27.978-129.753,27.978-128.477z M64.978-128.477c0,1.277-1.035,2.312-2.312,2.312s-2.312-1.034-2.312-2.312
			c0-1.277,1.035-2.312,2.312-2.312S64.978-129.753,64.978-128.477z M101.978-128.477c0,1.277-1.035,2.312-2.312,2.312
			s-2.312-1.034-2.312-2.312c0-1.277,1.035-2.312,2.312-2.312S101.978-129.753,101.978-128.477z M138.978-128.477
			c0,1.277-1.035,2.312-2.312,2.312s-2.312-1.034-2.312-2.312c0-1.277,1.035-2.312,2.312-2.312S138.978-129.753,138.978-128.477z
			 M175.978-128.477c0,1.277-1.035,2.312-2.312,2.312s-2.312-1.034-2.312-2.312c0-1.277,1.035-2.312,2.312-2.312
			S175.978-129.753,175.978-128.477z M212.978-128.477c0,1.277-1.035,2.312-2.312,2.312s-2.312-1.034-2.312-2.312
			c0-1.277,1.035-2.312,2.312-2.312S212.978-129.753,212.978-128.477z M249.978-128.477c0,1.277-1.035,2.312-2.312,2.312
			s-2.312-1.034-2.312-2.312c0-1.277,1.035-2.312,2.312-2.312S249.978-129.753,249.978-128.477z M27.978-98.429
			c0,1.277-1.035,2.312-2.312,2.312s-2.312-1.035-2.312-2.312s1.035-2.312,2.312-2.312S27.978-99.706,27.978-98.429z M64.978-98.429
			c0,1.277-1.035,2.312-2.312,2.312s-2.312-1.035-2.312-2.312s1.035-2.312,2.312-2.312S64.978-99.706,64.978-98.429z
			 M101.978-98.429c0,1.277-1.035,2.312-2.312,2.312s-2.312-1.035-2.312-2.312s1.035-2.312,2.312-2.312
			S101.978-99.706,101.978-98.429z M138.978-98.429c0,1.277-1.035,2.312-2.312,2.312s-2.312-1.035-2.312-2.312
			s1.035-2.312,2.312-2.312S138.978-99.706,138.978-98.429z M175.978-98.429c0,1.277-1.035,2.312-2.312,2.312
			s-2.312-1.035-2.312-2.312s1.035-2.312,2.312-2.312S175.978-99.706,175.978-98.429z M212.978-98.429
			c0,1.277-1.035,2.312-2.312,2.312s-2.312-1.035-2.312-2.312s1.035-2.312,2.312-2.312S212.978-99.706,212.978-98.429z
			 M249.978-98.429c0,1.277-1.035,2.312-2.312,2.312s-2.312-1.035-2.312-2.312s1.035-2.312,2.312-2.312
			S249.978-99.706,249.978-98.429z M27.978-68.382c0,1.277-1.035,2.312-2.312,2.312s-2.312-1.034-2.312-2.312
			c0-1.277,1.035-2.312,2.312-2.312S27.978-69.659,27.978-68.382z M64.978-68.382c0,1.277-1.035,2.312-2.312,2.312
			s-2.312-1.034-2.312-2.312c0-1.277,1.035-2.312,2.312-2.312S64.978-69.659,64.978-68.382z M101.978-68.382
			c0,1.277-1.035,2.312-2.312,2.312s-2.312-1.034-2.312-2.312c0-1.277,1.035-2.312,2.312-2.312S101.978-69.659,101.978-68.382z
			 M138.978-68.382c0,1.277-1.035,2.312-2.312,2.312s-2.312-1.034-2.312-2.312c0-1.277,1.035-2.312,2.312-2.312
			S138.978-69.659,138.978-68.382z M175.978-68.382c0,1.277-1.035,2.312-2.312,2.312s-2.312-1.034-2.312-2.312
			c0-1.277,1.035-2.312,2.312-2.312S175.978-69.659,175.978-68.382z M212.978-68.382c0,1.277-1.035,2.312-2.312,2.312
			s-2.312-1.034-2.312-2.312c0-1.277,1.035-2.312,2.312-2.312S212.978-69.659,212.978-68.382z M249.978-68.382
			c0,1.277-1.035,2.312-2.312,2.312s-2.312-1.034-2.312-2.312c0-1.277,1.035-2.312,2.312-2.312S249.978-69.659,249.978-68.382z
			 M27.978-38.334c0,1.277-1.035,2.312-2.312,2.312s-2.312-1.035-2.312-2.312s1.035-2.312,2.312-2.312S27.978-39.611,27.978-38.334z
			 M64.978-38.334c0,1.277-1.035,2.312-2.312,2.312s-2.312-1.035-2.312-2.312s1.035-2.312,2.312-2.312S64.978-39.611,64.978-38.334z
			 M101.978-38.334c0,1.277-1.035,2.312-2.312,2.312s-2.312-1.035-2.312-2.312s1.035-2.312,2.312-2.312
			S101.978-39.611,101.978-38.334z M138.978-38.334c0,1.277-1.035,2.312-2.312,2.312s-2.312-1.035-2.312-2.312
			s1.035-2.312,2.312-2.312S138.978-39.611,138.978-38.334z M175.978-38.334c0,1.277-1.035,2.312-2.312,2.312
			s-2.312-1.035-2.312-2.312s1.035-2.312,2.312-2.312S175.978-39.611,175.978-38.334z M212.978-38.334
			c0,1.277-1.035,2.312-2.312,2.312s-2.312-1.035-2.312-2.312s1.035-2.312,2.312-2.312S212.978-39.611,212.978-38.334z
			 M249.978-38.334c0,1.277-1.035,2.312-2.312,2.312s-2.312-1.035-2.312-2.312s1.035-2.312,2.312-2.312
			S249.978-39.611,249.978-38.334z M27.978-8.287c0,1.277-1.035,2.312-2.312,2.312s-2.312-1.035-2.312-2.312
			s1.035-2.312,2.312-2.312S27.978-9.564,27.978-8.287z M64.978-8.287c0,1.277-1.035,2.312-2.312,2.312s-2.312-1.035-2.312-2.312
			s1.035-2.312,2.312-2.312S64.978-9.564,64.978-8.287z M101.978-8.287c0,1.277-1.035,2.312-2.312,2.312s-2.312-1.035-2.312-2.312
			s1.035-2.312,2.312-2.312S101.978-9.564,101.978-8.287z M138.978-8.287c0,1.277-1.035,2.312-2.312,2.312s-2.312-1.035-2.312-2.312
			s1.035-2.312,2.312-2.312S138.978-9.564,138.978-8.287z M175.978-8.287c0,1.277-1.035,2.312-2.312,2.312s-2.312-1.035-2.312-2.312
			s1.035-2.312,2.312-2.312S175.978-9.564,175.978-8.287z M212.978-8.287c0,1.277-1.035,2.312-2.312,2.312s-2.312-1.035-2.312-2.312
			s1.035-2.312,2.312-2.312S212.978-9.564,212.978-8.287z M249.978-8.287c0,1.277-1.035,2.312-2.312,2.312s-2.312-1.035-2.312-2.312
			s1.035-2.312,2.312-2.312S249.978-9.564,249.978-8.287z"/>
	</g>
</pattern>
<g>
	<g>
		<path fill="#245977" d="M130.047,321.125c0.053,0.078,0.079,0.149,0.124,0.229c-0.916,0.403-3.797-0.65-3.38,1.36
			c0.454,0.188,1.699,0.392,2.047,0.66c0.941,0.719-0.081,0.524-0.419,0.765c-0.435,0.284-1.229,0.417-0.978,1.163
			c0.258,0.783,1.502,0.286,1.966,0.925c-0.749,0.838-0.498,1.452,0.195,2.047c0.879,0.737,1.12,0.838,1.618,1.877
			c0.302,0.623,0.808,1.314,1.066,1.85c0.428,0.861,0.409,1.662,0.082,2.771c-0.358,1.158-0.936,1.452,0.461,2.074
			c0.925,0.398,1.876,0.526,2.909,0.712c2.062,0.373,3.991,0.043,5.957-0.552c1.067-0.321,3.823-1.129,3.947-2.409
			c0.133-1.548-2.355-2.217-2.906-3.604c-0.349-0.897-0.071-1.823-0.188-2.729c-0.124-0.907-0.722-1.566-1.006-2.368
			c-0.054-0.167-0.327-1.03-0.301-1.163c0.123-0.454,0.844-0.462,0.985-0.934c0.294-1.023-1.528-1.333-2.204-0.961
			c0.373-1.429-1.253-1.351-2.125-1.247c-1.291,0.143-2.179,0.277-3.513,0.01c-1.111-0.229-2.1-0.975-3.147-1.067
			c-1.158-0.043-2.188,0.98-3.389,0.49"/>
		<path d="M131.842,338.837c-0.104-0.623-0.301-1.218-0.427-1.813c-0.071-0.392-0.115-0.508,0.33-0.526
			c0.249,0,0.551,0.046,0.8,0.063c0.642,0.037,1.281,0.06,1.958-0.018c0.427-0.046,2.115-0.046,1.974,0.489
			c-0.509,0.211-0.703,0.774-0.962,1.146c-0.266,0.391-0.517,0.81-0.292,1.245c0.444-0.256,0.801-0.673,1.254-0.897
			c0.506-0.247,1.022-0.577,1.528-0.845c0.633-0.31,1.352-0.453,2.02-0.781c0.598-0.293,1.156-0.614,1.762-0.916
			c0.611-0.295,1.423-0.659,1.91-1.122c0.393-0.382,0.909-0.765,1.015-1.264c0.141-0.515-0.179-0.916-0.479-1.298
			c-0.367-0.479-0.703-0.78-0.722-1.413c1.014-0.302,1.529,0.161,2.312,0.623c0.407,0.22,0.836,0.348,1.067,0.746
			c0.266,0.417,0.518,0.809,0.835,1.21c0.465,0.585,0.836,1.334,1.085,2.038c0.108,0.338,0.207,0.631,0.275,0.968
			c0.055,0.382,0.268,0.588,0.172,1.005c-0.348,1.607-1.566,3.174-3.274,4.027c-0.907,0.446-1.841,0.854-2.713,1.28
			c-0.64,0.292-1.28,0.643-1.938,0.934c-0.846,0.384-1.538,0.98-2.376,1.359c-1.405,0.669-2.764,1.539-4.143,2.29
			c-0.872,0.479-1.583,1.19-2.455,1.676c-0.559,0.305-1.165,0.6-1.752,0.837c-0.915,0.398-1.859,0.66-2.748,1.085
			c-0.783,0.373-1.858,0.678-2.686,0.302c-1.662-0.746-0.569-2.729-0.079-3.894c0.613-1.415,1.795-2.667,2.667-4.027
			c0.666-1.058,1.291-2.17,2.063-3.203c0.302-0.401,0.632-0.799,0.898-1.216c0.223-0.339,0.328-0.733,0.89-0.724
			c0.169,0.206,0.114,0.747,0.461,0.756"/>
		<g>
			<path d="M194.022,335.689c-4.68,0.657-15.83,11.686-15.784,23.165c-0.569,23.906,7.089,38.632,20.469,39.75l2.803,0.243
				l0.339-0.552c0.133-0.044,0.293-0.053,0.463-0.108c0.559-0.105,1.126-0.248,1.785-0.24c2.482,0.043,4.891-0.506,7.533-1.777
				c3.947-1.912,7.931-5.158,10.875-8.954c1.983-2.562,3.823-4.927,5.463-7.739c2.142-3.698,2.905-7.284,3.359-10.29
				c0.656-4.499,0.354-9.264-0.87-13.852c-1.807-6.644-11.775-17.067-15.503-17.992C213.888,337.079,195.553,335.46,194.022,335.689
				z M200.319,345.115c1.918-0.275,6.5,0.25,7.779,0.561c2.233,1.253,11.188,4.33,13.331,13.74c0.375,1.415,0.801,5.192,0.4,7.78
				c-0.383,2.555-0.873,4.153-1.733,5.664c-1.264,2.118-2.774,4.091-4.403,6.191c-2.136,2.729-4.961,5.069-7.566,6.324
				c-3.041,1.475-8.353,1.593-8.884,1.607c-15.707-1.653-14.104-24.036-10.701-31.458
				C191.941,348.078,196.807,346.929,200.319,345.115z"/>
			<path fill="#FFFFFF" stroke="#000000" stroke-width="3.0456" stroke-miterlimit="10" d="M217.375,363.926
				c-0.187-2.519-0.889-4.821-2.695-5.951c-1.539-0.961-2.89-1.949-4.598-1.421c-1.742,0.54-3.256,3.333-3.878,5.582
				c-1.228,4.242,0.125,10.378,3.816,10.582c1.939,0.126,3.736,0.089,5.272-1.662C216.085,370.159,217.491,365.657,217.375,363.926z
				"/>
			<path d="M209.147,367.667c-1.323-2.019-0.87-4.955,1.086-6.223c1.76-1.174,3.746-0.517,4.455,1.619
				c0.889,2.576-0.16,3.439-1.421,5.548C213.268,368.611,210.368,369.554,209.147,367.667z"/>
			<path fill="#FFFFFF" stroke="#000000" stroke-width="3.2446" stroke-miterlimit="10" d="M200.239,364.883
				c-0.204-2.514-1.042-4.808-3.07-5.939c-1.734-0.98-3.298-1.974-5.238-1.44c-1.975,0.534-3.654,3.317-4.374,5.584
				c-1.378,4.233,0.17,10.362,4.366,10.583c2.198,0.124,4.225,0.099,5.983-1.664C198.788,371.136,200.388,366.637,200.239,364.883z"
				/>
			<path d="M192.013,368.638c-1.299-2.01-0.852-4.945,1.104-6.232c1.742-1.168,3.717-0.508,4.446,1.632
				c0.889,2.599-0.179,3.443-1.434,5.534C196.129,369.573,193.24,370.516,192.013,368.638z"/>
			<path fill="#FFFFFF" stroke="#000000" stroke-width="2.6408" stroke-miterlimit="10" d="M198.229,365.044
				c-0.16-2.088-0.826-4.016-2.444-4.953c-1.379-0.801-2.618-1.637-4.163-1.2c-1.566,0.46-2.906,2.773-3.497,4.65
				c-1.104,3.521,0.145,8.627,3.472,8.812c1.759,0.098,3.386,0.08,4.765-1.367C197.063,370.232,198.346,366.496,198.229,365.044z"/>
			<path d="M189.993,368.709c-1.307-2.003-0.86-4.945,1.086-6.216c1.763-1.167,3.735-0.526,4.455,1.619
				c0.888,2.576-0.161,3.451-1.425,5.557C194.109,369.668,191.23,370.593,189.993,368.709z"/>
			<path d="M210.988,363.764c-0.05,0.305-0.009,0.657-0.009,0.961c-0.016,0.089-0.016,0.176-0.009,0.286l0.16-0.037
				c-0.037,0.037-0.105,0.069-0.167,0.096c-0.013,0.444-0.025,0.873-0.019,1.326c-0.007,0.382,0.089,1.298-0.318,1.52
				c-0.259,0.142-0.875,0-1.149,0.025c-0.266,0.037-0.604,0.056-0.906,0.074c-1.443,0.151-2.89-0.284-4.392-0.321
				c-1.078-0.018-2.146-0.169-3.194-0.178c-0.73-0.009-1.468-0.019-2.143-0.169l0.542-0.95c-0.274-0.169-0.444-0.33-0.561-0.509
				l-0.327,0.03c0.051-0.083,0.167-0.11,0.291-0.128c-0.071-0.142-0.143-0.275-0.177-0.479c-0.037-0.465,0.026-0.996,0.16-1.431
				c0.179-0.562,0.39-0.897,1.067-0.81c0.549,0.08,1.058,0.151,1.644,0.151c1.681,0.046,3.311-0.06,4.974-0.016
				c0.888,0.016,1.831,0.113,2.729,0.053c0.383-0.028,0.755-0.053,1.121-0.126c0.311-0.062,0.621-0.265,0.951-0.176
				C211.282,363.249,211.043,363.48,210.988,363.764z"/>
			<path fill="none" stroke="#000000" stroke-width="1.2821" stroke-miterlimit="10" d="M206.693,371.02
				c0.082-0.087,0.082-0.087,0.036-0.025c-0.435,0.657-0.613,1.779-0.86,2.507c-0.792,2.26-1.861,4.394-2.774,6.59
				c-0.75,1.744-1.515,3.503-2.038,5.32c-0.16,0.577-0.206,1.314-0.453,1.805c-0.02-0.128,0.053-0.151,0.105-0.271"/>
			<path fill="none" stroke="#000000" stroke-width="1.2821" stroke-miterlimit="10" d="M205.76,369.225
				c0.018,0-0.115,0.063-0.229,0.169c-0.215,0.169-0.366,0.392-0.526,0.595c-1.199,1.298-2.649,2.312-4.099,3.209
				c-1.351,0.854-2.688,1.512-3.922,2.538c-1.138,0.943-2.427,1.668-3.515,2.684c-0.728,0.7-1.438,1.405-2.194,2.079
				c-0.442,0.412-1.084,0.767-1.441,1.239c0.062-0.081,0.169-0.143,0.25-0.213"/>
			<path fill="none" stroke="#000000" stroke-width="1.2821" stroke-miterlimit="10" d="M205.521,366.93
				c-0.206-0.115-0.613,0.087-0.863,0.151c-0.516,0.152-1.042,0.223-1.557,0.328c-1.992,0.402-3.947,1.128-5.933,1.705
				c-1.352,0.395-2.641,0.937-4.003,1.319c-1.396,0.412-2.8,0.561-4.185,0.989c-0.403,0.133-0.792,0.211-1.166,0.33
				c-0.285,0.087-0.844,0.327-1.06,0.219"/>
			<path fill="none" stroke="#000000" stroke-width="1.2821" stroke-miterlimit="10" d="M205.832,364.742
				c0.026-0.037,0.062-0.053,0.081-0.089c-0.552-0.374-1.237-0.398-1.861-0.559c-1.067-0.33-2.135-0.602-3.201-0.881
				c-1.635-0.417-3.253-0.95-4.873-1.388c-1.439-0.407-2.861-0.916-4.259-1.403c-0.801-0.287-1.62-0.392-2.367-0.616
				c-0.61-0.192-1.101-0.426-1.749-0.435"/>
			<path fill="none" stroke="#000000" stroke-width="1.2821" stroke-miterlimit="10" d="M205.104,362.548
				c-1.158-0.631-2.377-1.513-3.498-2.296c-0.88-0.625-1.768-1.11-2.711-1.582c-0.66-0.321-1.19-0.925-1.76-1.388
				c-0.594-0.462-1.211-0.934-1.771-1.451c-1.014-0.916-2.045-1.69-3.122-2.443c-0.569-0.382-1.137-0.73-1.662-1.159"/>
			<path fill="none" stroke="#000000" stroke-width="1.2821" stroke-miterlimit="10" d="M206.428,360.377
				c-0.114-0.126-0.32-0.224-0.49-0.348c-0.398-0.32-0.604-0.792-0.888-1.208c-1.076-1.576-2.349-2.917-3.593-4.332
				c-1.477-1.672-2.846-3.435-4.171-5.228c-0.614-0.831-1.228-1.673-1.876-2.493c-0.169-0.229-0.526-0.808-0.765-0.907
				c0.355,0.428,0.613,0.953,1.003,1.365"/>
			<path fill="none" stroke="#000000" stroke-width="1.2821" stroke-miterlimit="10" d="M207.824,358.642
				c0.009-0.348-0.372-0.747-0.462-1.094c-0.16-0.623-0.143-1.273-0.234-1.905c-0.078-0.577-0.238-1.144-0.379-1.708
				c-0.688-2.853-1.495-5.733-2.073-8.604c0.222,0.159,0.393,0.444,0.47,0.747"/>
			<path fill="none" stroke="#000000" stroke-width="1.2821" stroke-miterlimit="10" d="M209.062,355.831
				c-0.046-0.389,0.141-0.843,0.185-1.218c0.126-1.112,0.142-2.212,0.249-3.333c0.223-1.806,0.587-3.682,0.66-5.513
				c0-0.453-0.056-0.916,0.032-1.342c0.126,0.183,0.055,0.451,0.063,0.7"/>
			<path fill="none" stroke="#000000" stroke-width="1.2821" stroke-miterlimit="10" d="M212.555,356.527
				c0.027-0.838,0.389-1.369,0.713-2.127c0.532-1.209,0.825-2.622,1.227-3.914c0.116-0.416,0.3-1.291,0.729-1.511
				c0.024,0.115,0.024,0.197,0.011,0.311"/>
			<path fill="none" stroke="#000000" stroke-width="1.2821" stroke-miterlimit="10" d="M214.688,357.822
				c0.747-0.79,1.495-1.662,2.239-2.486c0.918-1.042,2.083-1.85,3.215-2.617"/>
			<path fill="none" stroke="#000000" stroke-width="1.2821" stroke-miterlimit="10" d="M217.257,359.638
				c0.012-0.043-0.006-0.08-0.059-0.089c0.746,0.046,1.483-0.142,2.211-0.284c1.204-0.259,2.279-0.463,3.513-0.436
				c-0.044,0-0.114,0-0.167,0"/>
			<path fill="none" stroke="#000000" stroke-width="1.2821" stroke-miterlimit="10" d="M218.292,363.008
				c0.454-0.515,4.598,0.686,4.48,0.09"/>
			<path fill="none" stroke="#000000" stroke-width="1.2821" stroke-miterlimit="10" d="M217.951,364.883
				c0.685-0.043,1.211,0.472,1.745,0.856c0.576,0.389,1.403,1.405,2.108,1.405"/>
			<path fill="none" stroke="#000000" stroke-width="1.2821" stroke-miterlimit="10" d="M217.226,366.949
				c0.603-0.287,2.735,5.513,2.994,6.287c-0.033-0.027-0.07-0.064-0.096-0.082"/>
			<path fill="none" stroke="#000000" stroke-width="1.2821" stroke-miterlimit="10" d="M216.681,370.486
				c0.046-0.016,0.063-0.025,0.009-0.052c-0.188,0.837,0.123,1.822,0.238,2.697c0.135,1.099,0.252,2.203,0.509,3.288
				c0.046,0.231,0.133,0.881,0.261,0.971"/>
			<path fill="none" stroke="#000000" stroke-width="1.2821" stroke-miterlimit="10" d="M209.283,373.369
				c-0.447,1.208-0.819,2.411-1.132,3.682c-0.487,1.928-0.699,3.984-1.376,5.853c-0.188,0.508-0.402,1.021-0.446,1.565
				c-0.053,0.559-0.133,1.056-0.3,1.571c-0.109,0.314-0.545,1.221-0.252,1.424"/>
			<path fill="none" stroke="#000000" stroke-width="1.2821" stroke-miterlimit="10" d="M197.072,373.625
				c0.17,0.145,0.09,0.573,0.09,0.82c-0.044,1.777,0.016,3.558,0,5.334c-0.053,2.02-0.099,4.067-0.136,6.059"/>
			<path fill="none" stroke="#000000" stroke-width="1.2821" stroke-miterlimit="10" d="M198.843,372.728
				c0.07-0.019,0.125,0,0.193,0.027c-0.018,0.33,0.207,0.703,0.312,1.014c0.641,1.884,1.202,3.787,1.982,5.611
				c0.642,1.456,1.388,2.826,2.137,4.206c0.54,0.997,1.751,2.428,1.902,3.667c-0.116-0.03-0.046-0.101-0.083-0.197"/>
			<path fill="none" stroke="#000000" stroke-width="1.2821" stroke-miterlimit="10" d="M200.177,369.741
				c-0.018-0.073,0.007-0.109,0.051-0.132c1.621,2.692,3.746,5.005,5.898,7.219c1.119,1.166,2.426,2.063,3.682,3.041
				c0.782,0.615,1.529,1.297,2.339,1.911c0.239,0.17,0.578,0.33,0.738,0.604c-0.114,0.009-0.252-0.036-0.366-0.105"/>
			<path fill="none" stroke="#000000" stroke-width="1.2821" stroke-miterlimit="10" d="M194.351,373.794
				c-0.044,0.293-0.364,1.184-0.453,1.612c-0.365,1.607-0.79,3.2-1.271,4.799c-0.384,1.254-0.728,2.592-0.916,3.906
				c-0.046,0.348-0.178,0.953-0.15,1.292c0.009-0.11,0.018-0.208,0.018-0.307"/>
			<path fill="none" stroke="#000000" stroke-width="1.2821" stroke-miterlimit="10" d="M190.243,359.114
				c-0.213-0.089-0.337-0.222-0.473-0.419c-0.248-0.364-0.354-0.941-0.532-1.353c-0.239-0.692-0.587-1.351-0.917-2.017
				c-0.518-1.166-1.075-2.319-1.68-3.441c-0.215-0.401-0.419-0.852-0.719-1.163c0.13,0.104,0.256,0.247,0.379,0.371"/>
			<path fill="none" stroke="#000000" stroke-width="1.2821" stroke-miterlimit="10" d="M193.212,357.603
				c0.143-0.215,0.083-0.454,0.09-0.714c0.034-0.833,0.062-1.663,0.053-2.489c0.009-1.761,0.284-3.506,0.523-5.227
				c0.136-1.033,0.349-2.047,0.516-3.069c0.056-0.338,0.082-0.792,0.216-1.121c0.018,0.063,0.018,0.16,0,0.252"/>
			<path fill="none" stroke="#000000" stroke-width="1.2821" stroke-miterlimit="10" d="M196.29,359.549
				c0.259-0.339,0.293-0.792,0.4-1.209c0.445-1.637,1.102-3.265,1.669-4.854c0.243-0.659,3.835-10.388,4.981-9.642"/>
			<path fill="none" stroke="#000000" stroke-width="1.2821" stroke-miterlimit="10" d="M199.589,359.604
				c0.108-0.169,0.089-0.357,0.203-0.508c0.17-0.248,0.516-0.454,0.733-0.659c1.447-1.361,2.655-2.979,4.096-4.357
				c1.521-1.484,3.07-2.8,4.696-4.135c0.863-0.703,2.001-1.335,2.633-2.276"/>
			<path fill="none" stroke="#000000" stroke-width="1.2821" stroke-miterlimit="10" d="M199.829,362.946
				c0.559-0.339,1.067-0.826,1.603-1.199c1.19-0.864,2.471-1.539,3.654-2.358c1.013-0.747,2.01-1.521,2.995-2.286
				c1.964-1.511,4.002-2.809,6.11-4.073c1.395-0.817,3.034-1.415,4.32-2.411c-0.123-0.023-0.247-0.06-0.379-0.023"/>
			<path fill="none" stroke="#000000" stroke-width="1.2821" stroke-miterlimit="10" d="M197.261,384.164
				c0.284,0.197,0.025,1.289-0.027,1.6c-0.098,0.875-0.037,1.795-0.064,2.688"/>
		</g>
		<path d="M220.587,299.823c0.777,1.557,3.681,1.932,5.014,3.495c1.172,1.379,0.996,0.795,1.086,2.544
			c0.06,1.149-0.444,2.597-0.642,3.744c-0.632,3.573-1.067,8.405-4.429,10.42c-3.654,2.179-10.076,2.058-14.177,1.904
			c-5.041-0.196-11.061,0.403-16.253,0.783c-4.037,0.311-8.032,0.392-12.257,0.755c-3.965,0.348-8.233-0.247-12.14,0.107
			c-1.369,0.09-4.721,0.401-6.02-0.487c-1.591-1.113-1.048-4.856-0.472-6.74c1.706-5.445,10.736-5.977,15.563-7.631
			c7.926-2.722,16.212-5.38,24.5-6.926c3.734-0.687,7.389-0.723,11.197-0.792c2.355-0.045,6.98-1.479,8.731,0.444"/>
		<path fill="#FF0000" d="M203.012,250.431c0.793,0.653,1.38,1.702,2.473,2.546c1.644,1.283,3.361,2.482,4.964,3.797
			c3.673,3.034,6.777,6.277,9.567,9.845c3.781,4.819,5.754,32.919,3.229,35.756c-5.187,5.765-5.232,10.037-15.111,10.436
			c-4.463,0.204-11.276-1.559-15.837-2.475c-1.823-0.346-7.3-3.874-8.812-5.493c-9.8-10.529-25.683-16.258-25.683-16.258
			l6.482,15.83c0,0,14.834,26.651,18.23,31.363c0.987,1.333,2.242,1.601,3.433,2.624c1.271,1.066,1.743,2.587,2.036,3.911
			c0.943,4.322-8.206,5-8.206,5s-14.558-9.47-16.16-12.336c-2.072-3.718-31.649-44.286-31.802-57.405
			c-0.078-9.316,4.554-18.06,16.498-20.249c2.757-0.486,5.362-0.655,8.128,0.215c2.729,0.856,5.752,1.477,8.313,2.257
			c2.475,0.776,2.617-2.097,4.999-1.104c1.318,0.545,3.173-0.522,4.633-0.112c1.219,0.364,3.271-0.765,4.511-0.57
			c1.322-4.07,5.66-2.738,9.717-4.712c3.559-1.742,6.697-5.509,9.507-7.649"/>
		<path d="M159.161,152.907c0.312,0.099,0.34,0.205,0.126,0.319c-1.266-0.985-3.736-1.37-5.222-1.795
			c-2.053-0.605-3.565-0.508-5.496,0.055c-3.903,1.19-10.883,4.693-10.883,4.693l-14.213,23.725c0,0-9.025,20.801-16.335,27.106
			c-3.825,3.291-17.814,19.423-20.098,23.095c-1.326,2.152-7.408,6.118-7.034,8.165c0.257,1.351,4.57,8.943,6.161,10.126
			c2.019,1.529,14.648-9.115,17.778-12.057c2.036-1.912,23.664-19.182,23.664-19.182s12.449-15.403,17.465-17.545
			c-0.249,5.692,3.05,35.269,3.05,35.269s-4.589,12.662-4.793,14.893c1.138,0.951,15.173,11.002,18.71,11.616
			c3.888,0.65,7.428,0.953,11.109,0.169c3.146-0.7,36.309-0.435,38.959-2.747c1.727-1.488-5.55-9.598-5.584-11.705
			c-0.062-2.643,0.729-33.57,3.164-34.202c1.77,2.106,8.635,25.096,8.162,27.905c0,0-1.979,7.157-2.781,10.262
			c-0.799,3.15-26.882,9.74-31.045,12.744c-2.828,2.056-13.563,5.719-15.605,7.354c0.275,3.406,2.684,6.03,4.125,8.796
			c1.672,3.182,2.169,4.57,2.002,8.59c2.321,0.247,5.584-1.468,8.073-2.029c2.198-0.506,23.778-2.683,23.778-2.683l25.035-19.647
			c0,0,9.552-30.794,10.395-35.491c0.499-2.784,2.437-13.083,2.455-15.981c0.009-5.894-5.718-29.577-9.544-35.017
			c-3.386-4.831-10.508-17.307-15.994-17.369c-2.569-0.027-12.94,1.277-13.536-0.582L159.161,152.907z"/>
		<path fill="#FFFFFF" d="M206.995,156.925c-0.086,0.064-0.123,0.133-0.123,0.229c0.037,0.009,0.083,0.021,0.123,0.055
			c0.133,0.17,0.499,0.339,0.696,0.444c0.256,0.126,0.497,0.25,0.756,0.392c0.691,0.418,1.679,0.703,2.491,0.837
			c1.197,0.204,2.335,0.398,3.396,0.906c0.675,0.337,1.353,0.889,1.931,1.386c0.559,0.472,1.104,0.934,1.605,1.47
			c0.547,0.576,0.908,1.241,1.301,1.928c0.711,1.245,1.263,2.669,1.512,4.066c0.329,2.061,0.682,4.035,0.676,6.143
			c-0.007,0.943-0.73,3.895-0.745,3.885c0,0-2.419,5.303-2.792,6.315c-0.367,0.943-0.82,1.868-1.141,2.81
			c-0.256,0.712-2.303,3.629-3.111,4.224c-1.221,0.907-6.67,2.589-7.925,2.889c-1.058,0.252-2.221,0.449-3.315,0.536
			c-0.677,0.027,0.143-0.657,1.127-0.999c1.272-0.435,2.295-0.833,3.104-1.974c1.914-2.674,2.51-6.214,1.584-9.364
			c-0.899-3.118-4.43-4.615-7.185-5.671c-1.966-0.765-4.135-1.326-6.243-0.943c-0.802,0.148-4.421,1.601-5.479,2.091
			c-1.859,0.845-3.7,1.6-5.522,2.477c-0.987,0.483-1.966,0.875-2.855,1.507c-1.076,0.737-2.195,1.396-3.31,2.106
			c-1.332,0.866-3.013,1.974-3.529,3.549c-0.463,1.458-0.907,9.914-0.95,11.15c-0.025,0.897-0.107,4.982-0.324,6.085
			c-0.219,1.324-0.814,5.949-0.779,6.942c0.024,1.042-3.83,9.96-4.546,13.875c-0.123,0.704-0.123,1.397-0.363,2.098
			c-0.543,1.594-1.28,3.132-1.779,4.767c-0.283,0.925-0.971,3.585-1.119,3.663c0,0-1.36,4.107-1.514,4.776
			c-0.238,1.023-1.422,5.481-1.741,6.716c-0.595,2.303-0.997,4.686-1.227,7.04c-0.073,0.669-0.119,1.337-0.133,2.001
			c-0.012,0.2,0.069,0.811-0.055,0.882l-3.176-1.005c-0.145-0.019-0.275-0.036-0.41-0.062c0.092-0.753-0.068-1.476-0.024-2.195
			c0.034-0.827,0.116-1.653,0.148-2.491c0.046-0.985,0.271-2.001,0.446-2.97c0.186-1.101,4.252-15.741,4.669-16.728
			c0.756-1.804,3.14-9.213,3.469-11.153c0.24-1.323,1.931-10.651,2.081-12.18c0.22-2.376,1.443-12.167,1.645-13.341
			c0.206-1.129,0.65-5.202,0.819-6.12c0.293-1.653,0.499-3.297-0.321-4.845c-0.837-1.547-1.904-3.013-3.031-4.364
			c-0.711-0.847-1.46-1.683-2.322-2.385c-0.659-0.559-1.315-1.227-2.019-1.699c-1.529-0.994-2.979-2.116-4.511-3.068
			c-0.654-0.417-1.332-0.897-1.992-1.191c-0.646-0.265-1.25-0.462-1.998-0.595c-0.776-0.124-1.514-0.179-2.297-0.228
			c-0.398-0.013-0.627,0.031-0.984,0.155c-0.518,0.197-1.051,0.305-1.548,0.518c-2.961,1.394-6.367,2.427-8.697,4.758
			c-0.249,0.274-0.524,0.49-0.766,0.737c-0.214,0.213-0.267,0.499-0.577,0.293c-0.383-0.266-0.633-0.969-0.712-1.37
			c-0.293-1.305-0.221-2.694-0.15-4.021c0.116-1.829,0.24-3.617,0.551-5.44c0.177-1.076,0.622-2.102,0.889-3.15
			c0.168-0.683,0.329-1.379,0.534-2.045c0.569-1.751,1.441-3.451,2.524-4.953c0.899-1.218,2.063-2.349,3.104-3.413
			c0.713-0.749,1.478-1.409,2.356-1.894c0.838-0.472,1.708-0.81,2.551-1.291c0.215-0.142,0.811-0.339,0.918-0.605l0.577-1.2
			l1.824,0.043L206.995,156.925z"/>
		<g>
			<path fill="#FFFFFF" d="M186.453,178.766c0.444-0.827,0.917-1.61,1.388-2.402c1.158-1.946,2.358-3.895,3.265-5.985
				c0.979-2.248,1.619-4.666,2.356-6.997c0.3-2.651,0.286-5.319,0.08-7.968c-0.055-0.124-0.099-0.242-0.15-0.373
				c-1.292-3.425-2.198-7.267-4.333-10.301c-1.52-2.159-3.993-4.872-6.536-5.77c-1.502-0.531-3.164-0.268-4.766-0.132
				c-2.151,0.21-4.331-0.197-6.483-0.197c-1.369,0.018-2.738,0.105-4.107,0.24l-0.472-0.515c-0.879,0.028-1.753,0.081-2.605,0.17
				c-0.48,0.036-0.962,0.096-1.449,0.188c-0.891,0.513-1.716,1.2-2.348,1.892c-1.371,1.442-2.706,3.104-3.301,4.963
				c-1.059,3.237-1.788,6.498-1.493,9.904c0.177,1.656,0.339,3.4,0.659,4.927c0.184,0.917,0.22,1.86,0.407,2.766
				c0.233,0.953,0.604,1.939,0.873,2.88c0.57,2.1,1.367,4.181,1.974,6.298c0.675,2.391,1.439,4.786,3.006,6.766
				c1.237,1.593,2.56,3.185,4.188,4.394c1.449,1.06,3.12,1.701,4.801,2.278c3.55,1.181,7.977,0.124,10.706-2.34
				c1.346-1.218,2.197-2.831,3.524-4.027C185.91,179.208,186.179,178.979,186.453,178.766z"/>
			<path fill="#245977" d="M173.978,152.374c0.523-0.792,2.667-0.999,3.317-0.668c0.417,0.214,0.943,0.48,1.28,0.783
				c0.194,0.195,0.721,0.81,0.533,1.218c-0.257,0.586-1.415,0.852-1.85,0.845c-0.527,0.007-1.129-0.089-1.548-0.259
				c-0.96-0.374-1.751-1.021-2.026-1.938c0.117-0.091,0.269-0.125,0.409-0.114"/>
			<path fill="#245977" d="M165.066,153.466c0.055,0.108,0.062,0.13,0.019,0.011c-0.516-0.705-2.044-1.131-2.626-1.213
				c-0.843-0.132-2.104,0.019-2.409,0.865c0.943,0.586,2.057,1.155,2.91,1.104c0.657-0.046,1.975-0.119,2.036-0.935"/>
			<path d="M181.485,167.224c0.513-0.274,1.003-0.641,1.386-1.06c0.569-0.593,0.924-1.305,0.638-2.143
				c-0.246-0.682-0.71-0.897-1.286-0.441c-0.4,0.307,0.044,0.957,0.46,0.636c0.018,0.073,0.055,0.128,0.08,0.178
				c0.056,0.669-0.204,1.157-0.756,1.484c-0.533,0.458-1.246,0.724-1.905,0.989c-1.215,0.472-2.459,0.623-3.723,0.419
				c-0.063-0.007-0.107-0.007-0.16-0.019c-0.101-0.011-0.188-0.034-0.274-0.052c-1.424-0.295-2.304-0.712-2.304-0.712
				s-3.727,1.825-5.568,1.807c-1.868-0.037-3.512-1.923-3.512-1.923l-0.811,1.378c0,0-4.277,0.286-6.27,0.435
				c-0.043-0.014-0.079-0.043-0.123-0.06c-0.225-0.082-0.286-0.247-0.179-0.508c0.204,0.063,0.302-0.222,0.16-0.365
				c-0.293-0.286-0.715-0.018-0.811,0.355c-0.071,0.248-0.053,0.421-0.034,0.676c-0.012,0.073,0.025,0.125,0.053,0.186
				c0.036,0.063,0.124,0.242,0.124,0.162c0.578,1.326,2.812,5.603,6.705,5.264c2.251,0.154,5.159-2.516,5.159-2.516
				s3.417,3.042,9.479,2.482c6.046-0.543,8.057-7.204,8.057-7.204S184.569,166.814,181.485,167.224z"/>
			<path d="M194.609,141.388c0.542,1.113,2.817,1.177,3.859,1.319c1.645,0.256,2.517,0.755,3.531,2.088
				c2.052,2.72,2.926,5.966,1.946,9.318c-0.454,1.603-1.422,3.789-2.347,5.042c-1.005,1.317-2.205,1.264-3.763,1.39
				c-0.498,0.062-1.724,0.382-2.097,0.07c-0.367-0.32-0.481-1.77-0.518-2.223c-0.133-1.732,0.071-3.309-0.071-4.998
				c-0.194-1.974-0.373-3.948-0.542-5.916c-0.124-1.438-1.308-4.39-0.124-5.528c0.124-0.011,0.195,0.044,0.188,0.188"/>
			<path d="M154.715,146.67c0.028,0.135-0.027,0.222-0.16,0.222c-0.356-0.275-0.71-0.114-1.12-0.114
				c-0.515,0.009-1.005-0.161-1.538-0.034c-0.899,0.167-1.689,0.932-2.251,1.628c-1.307,1.644-1.591,4.295-1.616,6.321
				c-0.027,2.562,1.44,4.838,3.183,6.564c1.529,1.456,3.521,2.088,5.405,2.807c0.108-1.375-0.24-2.861-0.524-4.169
				c-0.348-1.52-0.292-3.234-0.426-4.792c-0.258-2.899-0.311-5.72-0.595-8.591c0.007,0.105,0.018,0.188,0.032,0.312"/>
			<g>
				<path fill="#FF0000" d="M166.96,174.186c0.018,0,0.083,0.019,0.109,0.035l0.187-0.053
					C167.148,174.186,167.052,174.186,166.96,174.186z"/>
				<path fill="#FF0000" d="M175.523,175.041c-1.11-0.444-4.053,0.133-4.677,0.019c-1.084-0.188-2.696-0.444-3.777-0.838
					l-0.169,0.064c-0.082-0.018-0.135-0.037-0.188-0.037c-0.27,0.037-0.241,0.435,0.026,0.398c-0.063,0.02,0.304,0.234,0.427,0.287
					c0.318,0.117,0.586,0.455,0.827,0.693c0.268,0.275,0.598,0.417,0.942,0.596c0.177,0.099,0.442,0.151,0.722,0.188
					c0.303,0.087,0.62,0.151,0.943,0.186c0.496,0.073,0.994,0.029,1.447-0.081c0.246,0,0.515-0.009,0.782-0.062
					c0.756-0.167,1.185-0.561,1.708-1.065C175.143,175.224,175.64,175.075,175.523,175.041z"/>
			</g>
			<path d="M166.152,151.297c-0.026,0.105-0.026,0.115,0.007,0.007c-0.275-0.808-1.021-1.147-1.805-1.495
				c-0.773-0.346-1.555-0.799-2.267-1.216c-0.614-0.36-1.529-1.07-2.161-1.184c-0.701-0.108-1.548,0.517-2.125,0.728
				c-0.08,1.058,1.557,0.382,1.921,0.412c0.872,0.043,1.939,0.636,2.694,0.957c0.854,0.339,1.878,0.533,2.614,1.041
				c0.349,0.25,1.37,1.835,1.44,0.712"/>
			<path d="M173.078,150.203c0.036,0.035,0.063,0.088,0.109,0.106c0.444-0.747,2.088-1.273,2.917-1.617
				c1.039-0.394,2.141-0.57,3.191-0.918c1.077-0.346,1.653-0.337,1.859,0.58c0.069,0.275,0.05,0.585,0.124,0.888
				c0.077,0.364,0.361,0.48,0.206,0.897c-0.802-0.833-2.011-1.218-3.444-1.172c-1.153,0.025-3.805,0.321-4.775,1.216
				c0.143,0.043,0.312,0.089,0.49,0.066"/>
			<path fill="#FFFFFF" d="M163.253,151.659c-0.188-0.062-0.579,0.046-0.739,0.087c-0.398,0.138-1.03,0.225-1.26,0.582
				c-0.205,0.311-0.181,0.97-0.011,1.36c0.283,0.632,0.693,1.211,1.359,1.452c0.598,0.21,1.129,0.176,1.522-0.241
				c0.284-0.305,0.284-0.739,0.275-1.184c-0.046-0.524-0.409-1.181-0.882-1.557c-0.247-0.213-0.648-0.5-0.959-0.555"/>
			<path fill="#FFFFFF" d="M178.852,151.492c0.035,0.006,0.035,0.006,0-0.007c-0.27-0.037-0.462-0.165-0.712-0.243
				c-0.348-0.08-0.783-0.124-1.174-0.064c-1.185,0.216-2.375,1.052-2.474,2.093c-0.036,0.348,0.037,0.684,0.241,0.938
				c0.188,0.252,0.506,0.298,0.816,0.342c0.855,0.117,2.152-0.447,2.821-1.031c0.371-0.35,0.728-0.875,0.632-1.291
				c-0.08-0.355-0.338-0.745-0.613-0.987c-0.101-0.074-0.41-0.382-0.563-0.33"/>
			<path d="M162.923,152.639c0.081,0.069-0.141-0.08-0.203-0.105c-0.16-0.064-0.357-0.11-0.516-0.151
				c-0.295-0.065-0.588,0.041-0.652,0.469c-0.068,0.625,0.252,1.097,0.74,1.239c0.4,0.112,0.954,0.069,1.121-0.403
				c0.195-0.577-0.24-0.969-0.639-1.141c-0.036-0.032-0.036-0.05,0.015-0.05"/>
			<path d="M177.962,151.989c0.053,0.081-0.107-0.018-0.177-0.032c-0.092-0.037-0.215-0.037-0.312-0.073
				c-0.233-0.046-0.481-0.083-0.755,0c-0.582,0.16-1.31,1.039-1.159,1.53c0.248,0.819,1.452,0.666,2.09-0.056
				c0.411-0.407,0.337-1.11-0.141-1.289"/>
			<path d="M194.307,127.722l-6.093-8.309l-10.992-1.253c0,0-8.937,0.799-10.688,1.344c-2.661,0.82-11.838,10.316-12.652,13.724
				c-0.357,1.456-0.447,2.985-0.49,4.469c-0.064,2.216-0.009,4.43,0.186,6.635c0.4,4.286,0.446,8.894,1.378,13.064
				c0.267,1.172,0.312,2.455,0.497,3.673c0.223,1.449,0.604,2.981,0.962,4.382c0.354,1.575,3.36,10.894,6.251,14.534
				c1.184,1.484,2.723,2.791,4.181,3.984c0.533,0.444,1.104,0.818,1.717,1.138l0,0c0.436,0.309,1.671,0.932,1.851,1.005
				c0.133,0.078,0.247,0.265,0.176,0.293c-0.447,0.123-1.138,0.167-1.502,0.425c-0.062,0.06-0.117,0.161-0.062,0.239
				c0.167,0.338,0.453,0.659,0.737,0.971c0.068,0.114,0.151,0.215,0.268,0.33h0.007c0.019,0.019,0.027,0.046,0.027,0.046
				c0.028,0.006,0.037,0.018,0.053,0.05c0.062,0.055,0.143,0.037,0.213,0.018c0.046,0,0.09,0,0.133-0.042
				c0.055-0.037,0.138-0.081,0.188-0.136c0.16-0.086,0.072-0.3-0.051-0.336c0.726-0.41,1.403-0.854,2.246-0.996
				c0.029-0.009,0.073-0.027,0.098-0.037c0.065-0.016,0.145-0.009,0.207-0.009c0.559,0.436,1.058,0.669,1.918,0.669
				c0.856,0.009,2.234-0.256,2.748-1.058c0.688-0.179,1.396-0.443,2.001-0.774c0.243-0.087,0.48-0.178,0.705-0.302
				c0.87-0.339,5.076-3.567,6.232-4.758c0.73-0.74,7.665-8.252,8.048-9.081c0.739-1.727,0.749-3.852,0.937-5.674
				c0.389-4.199,0.515-8.384,0.13-12.627c-0.363-3.986-0.569-7.727-0.532-11.693C195.364,136.932,194.307,127.722,194.307,127.722z
				 M193.755,161.175c-0.08,0.742-0.213,1.488-0.337,2.216c-0.276,1.456-0.936,2.915-1.506,4.304
				c-0.485,1.191-1.108,2.373-1.521,3.618c-0.21,0.685-0.568,1.328-0.906,1.974c-0.806,0.971-1.617,1.948-2.311,3.009
				c-0.24,0.353-0.4,0.703-0.562,1.064c-0.329,0.509-0.666,1.005-0.977,1.522c-0.41,0.685-0.827,1.449-1.316,2.134
				c-0.688,0.604-1.407,1.156-2.073,1.749c-0.486,0.458-1.005,0.897-1.495,1.337c-0.37,0.312-0.86,0.784-1.323,1.076
				c-0.284,0.105-0.567,0.204-0.847,0.328c-0.906,0.366-1.813,0.428-2.757,0.639c-0.933,0.206-2.052,0.206-2.923-0.078
				c-0.562-0.169-3.841-1.209-4.263-1.468c-0.764-0.487-1.368-1.032-2.078-1.618c-1.53-1.287-2.706-2.8-3.762-4.483
				c-0.918-1.5-1.861-2.88-2.633-4.465c-0.438-0.86-0.685-1.819-0.987-2.71c-0.247-0.728-0.518-1.475-0.737-2.23
				c-0.009-0.794-0.261-1.539-0.508-2.296c-0.115-0.355-0.213-0.703-0.303-1.049c-0.16-1.6-0.188-3.29-0.518-4.847
				c-0.663-3.068-1.918-6.42-1.385-9.694c0.222-1.415,0.817-2.757,1.582-4.027c0.302-0.534,0.659-1.111,1.021-1.582
				c0.482-0.65,0.899-0.696,1.744-0.925c2.152-0.595,4.529-0.925,6.76-1.122c2.243-0.206,4.482-0.648,6.795-0.808
				c2.551-0.177,5.539,0.336,7.984,1.129c1.778,0.567,3.711,1.44,4.803,3.059c1.857,2.729,2.026,6.297,3.45,9.153
				c0.604,1.191,1.86,1.956,2.767,2.913c0.543,0.535,1.102,1.104,1.156,1.887C193.78,160.98,193.762,161.088,193.755,161.175z"/>
			<path fill="#FF0000" d="M169.176,162.127c0.06-0.037,0.124-0.046,0.195-0.069c-0.712-0.35-2.205,1.635-1.798,2.249
				c0.802,1.218,3.041,1.451,4.145,1.012c1.165-0.472,2.108-1.539,1.005-2.738c-0.987-1.067-2.905-1.271-3.78-0.545"/>
		</g>
		<path fill="#FF0000" d="M137.499,263.757c0.258-2.487,3.406-6.139,5.228-8.431c2.134-2.692,8.192-5.044,8.192-5.044l6.127-0.378
			c0,0,6.26,1.672,7.896,5.418c0.668,1.502,2.82,2.095,5.496,4.186c0.766,0.598,16.968,8.508,4.952,6.177
			c-4.23-0.825-18.087,2.093-19.839,2.358c-4.277,0.664-8.928,1.03-13.251,1.016c-1.636,0.014-3.832,0.046-5.156-0.984
			c-2.25-1.747-0.49-2.569,0.854-4.21c0.311-0.071,0.55,0.103,0.693,0.538"/>
		<path d="M95.169,302.999l0.985,1.023C96.128,303.605,95.72,303.248,95.169,302.999z"/>
		<path fill="#245977" d="M137.525,245.25c0.124,0.142,0.25,0.263,0.382,0.429c0.053-0.188,0-0.395-0.098-0.635
			c-0.604-0.57-1.156-1.156-1.617-1.681L137.525,245.25z"/>
		<path fill="#FF0000" d="M141.374,322.609c-0.595-1.992-1.359-4.012-1.617-4.73c-1.289-3.577-3.022-7.835-3.778-11.704
			c-0.782-3.993-2.928-7.453-3.639-11.394c-0.621-3.475-10.004-20.844-8.908-24.249c1.483,0.25,2.364,1.981,3.894,2.267
			c2.063,0.401,8.99,8.112,10.592,6.99c3.131-2.217,2.596-11.508,4.524-14.887c0.864-1.502,0.883-4.117,1.663-5.737
			c0.74-1.527,4.475-6.082,3.123-7.105c-1.991-1.509-7.077-5.556-7.133-5.369c-0.133-0.16-0.259-0.286-0.382-0.428
			c0,0-0.319-0.772,0.284-0.204c-0.408-1.007-5.371-7.967-6.714-10.298c-2.579-4.529-9.452-11.709-9.452-11.709l-10.752-3.008
			l-7.106,10.504c0,0,14.425,62.808,16.159,66.634c0.881,1.98,3.753,9.389,4.152,11.185c0.214,0.953,1.139,5.06,2.277,8.867
			c1.164,0.534,2.34,1.061,3.592,1.496C135.169,320.768,138.281,321.675,141.374,322.609z"/>
		<path d="M195.543,339.245c-2.898-1.252-6.09-1.662-9.044-2.889c-2.866-1.172-5.914-1.584-9.043-2.505
			c-10.166-3.045-20.172-6.021-30.086-9.616c-2.686-0.987-5.442-1.823-8.182-2.643c-3.095-0.929-6.209-1.838-9.223-2.88
			c-1.255-0.435-2.427-0.961-3.592-1.492c-1.504-0.683-2.988-1.388-4.554-2.028c-2.32-0.933-4.73-1.708-6.885-3.023
			c-2.176-1.323-4.081-2.491-6.321-3.487c-1.814-0.817-3.602-1.422-5.426-2.187c-1.751-0.719-3.147-1.754-4.863-2.5
			c-0.827-0.364-1.528-0.985-2.339-1.369c-0.712-0.319-1.787-0.46-2.277-1.113l1.46,1.486c0.551,0.25,0.959,0.607,0.985,1.023
			l-0.985-1.023c-2.1-0.923-6.545-0.506-4.669,2.599c1.45,2.401,6.021,4.964,8.6,5.884c8.662,3.064,17.562,5.275,26.162,8.778
			c0.828,0.339,1.682,0.688,2.534,1.04c3.949,1.611,7.925,3.228,11.891,4.84c4.474,1.779,8.957,3.549,13.463,5.184
			c4.927,1.795,9.721,4.366,14.689,5.807c4.938,1.424,10.372,1.754,15.13,3.567c2.899,1.076,6.608,1.857,9.887,2.125
			c1.06,0.092,3.772,0.54,4.564-0.531C198.54,340.761,196.619,339.707,195.543,339.245z"/>
		<path d="M174.228,286.166c-1.934-0.552-4.04-0.454-5.967-1.005c-1.292-0.339-2.35-1.048-3.559-1.557
			c-2.17-0.932-4.554-1.104-6.706-2.001c-4.819-2.038-10.129-1.84-15.021-2.747c-4.241-0.756-8.606-1.805-12.912-2.249
			c-2.116-0.215-4.09-0.089-6.189-0.719c-2.116-0.606-4.188-1.717-6.34-2.431c-2.374-0.781-4.927-1.209-7.238-2.285
			c-2.036-0.941-3.763-2.106-5.889-2.704c-4.044-1.111-7.479-1.706-10.759-4.206c-6.474-4.891-11.694-11.229-16.603-17.616
			c-2.366-3.096-4.822-5.522-8.075-7.646c-1.69-1.123-3.442-2.153-5.071-3.238c-1.555-1.014-2.889-2.701-4.658-3.059
			c-2.987-0.569-6.51-0.247-8.52,2.26c-2.987,3.725,0.08,5.822,2.972,8.08c3.44,2.716,7.931,4.424,11.728,6.993
			c3.272,2.241,6.271,4.973,9.409,7.418c1.361,1.077,2.819,2.184,3.852,3.581c0.524,0.732,0.854,1.698,1.593,2.18l1.083-0.747
			c0.348,0.728,1.433,1.415,2.091,2.134c0.828,0.907,1.396,1.955,2.079,2.954c1.362,2.042,3.007,3.22,3.354,5.646
			c0.746,5.325,3.085,7.872,1.199,14.069c-0.844,2.791-0.329,4.062-3.85,9.078c-2.099,2.972-3.947,1.163-6.964,3.183
			c-5.868,3.952-11.302,18.197-14.131,24.375c-1.796,3.984-1.6,8.682-2.818,12.913c-1.077,3.709-1.085,8.902-1.859,12.63
			c0.524,1.021,1.85,0.976,2.58,2.001c1.351-0.097,3.939-0.349,5.316-1.841c1.647-7.345,0.225-16.178,3.042-23.184
			c1.396-3.469,3.185-7.675,5.185-10.762c2.437-3.795,2.287-5.503,6.298-5.387c3.868,0.122,6.303,2.205,8.695,4.792
			c2.676,2.898,2.482,19.548,1.434,28.093c-0.241,1.909-2.518,13.472-2.518,16.645c1.387-0.247,4.428-1.129,5.361-1.607
			c0.152-0.222,0.286-0.464,0.428-0.693c1.191-6.759,4.812-14.807,5.034-21.433c0.104-3.423,1.066-16.016-0.33-18.88
			c-1.289-2.693-2.152-6.189-3.299-8.92c-0.72-1.813-1.521-5.005-1.458-6.945c0.061-3.752,0.551-7.896,1.083-11.605
			c0.285-2.011,0.864-3.627,1.415-5.403c0.49-1.646,0.293-3.622,1.315-4.955c1.478-1.942,2.864-1.53,4.979-1.452
			c1.932,0.073,3.612-0.692,5.522,0.11c3.524,1.493,5.718,3.26,9.773,3.947c3.692,0.641,7.115,2.322,10.727,3.279
			c4.393,1.204,8.793,1.639,13.204,2.786c3.984,1.03,8.387,1.955,12.034,3.528c4.657,2.001,9.969,4.076,15.116,4.973
			c3.176,0.54,9.318,2.381,9.446-2.588C180.949,289.588,177.937,287.269,174.228,286.166z"/>
		<g>
			<path d="M61.837,386.211c-5.583-2.736-17.651-18.09-14.877-31.935c4.962-29.007,18.328-44.875,35.849-42.891l3.688,0.426
				l0.277,0.73c0.176,0.08,0.39,0.16,0.587,0.25c0.693,0.265,1.413,0.613,2.267,0.737c3.219,0.568,6.162,1.85,9.275,4.057
				c4.66,3.278,9,8.206,11.917,13.525c1.956,3.583,3.753,6.901,5.202,10.688c1.885,5.026,2.002,9.532,1.885,13.277
				c-0.204,5.612-1.725,11.304-4.421,16.515c-3.884,7.567-19.235,17.85-24.267,17.85C79.989,389.439,68.428,389.439,61.837,386.211z
				 M72.197,376.393c2.403,0.817,8.439,1.316,10.174,1.271c3.185-0.962,15.448-2.429,20.437-13.259
				c0.854-1.61,2.276-6.083,2.392-9.31c0.106-3.176-0.149-5.214-0.916-7.249c-1.103-2.882-2.588-5.658-4.188-8.575
				c-2.118-3.856-5.212-7.391-8.278-9.534c-3.576-2.541-10.387-4.034-11.072-4.185c-20.658-1.941-23.896,25.513-21.272,35.33
				C62.096,370.727,68.098,373.31,72.197,376.393z"/>
			<path fill="#FFFFFF" stroke="#000000" stroke-width="3.8737" stroke-miterlimit="10" d="M98.673,357.941
				c-0.837,3.013-2.312,5.601-4.9,6.516c-2.205,0.774-4.197,1.635-6.279,0.568c-2.107-1.099-3.369-4.835-3.673-7.728
				c-0.569-5.433,2.624-12.476,7.443-11.816c2.534,0.337,4.849,0.834,6.413,3.333C98.476,350.095,99.231,355.876,98.673,357.941z"/>
			<path d="M88.942,351.366c-2.179,2.111-2.311,5.765-0.087,7.789c2,1.85,4.696,1.55,6.146-0.842
				c1.751-2.908,0.603-4.204-0.535-7.052C94.466,351.26,90.952,349.411,88.942,351.366z"/>
			<path fill="#FFFFFF" stroke="#000000" stroke-width="4.1268" stroke-miterlimit="10" d="M76.796,352.469
				c-0.872,3.018-2.49,5.587-5.389,6.438c-2.472,0.73-4.695,1.557-7.089,0.426c-2.419-1.129-3.931-4.934-4.321-7.826
				c-0.773-5.458,2.668-12.474,8.146-11.709c2.864,0.417,5.488,0.944,7.327,3.503C76.388,344.6,77.383,350.423,76.796,352.469z"/>
			<path d="M67.06,345.917c-2.172,2.115-2.277,5.753-0.081,7.789c1.992,1.851,4.694,1.548,6.144-0.852
				c1.763-2.903,0.605-4.199-0.524-7.052C72.598,345.802,69.094,343.961,67.06,345.917z"/>
			<path fill="#FFFFFF" stroke="#000000" stroke-width="3.3588" stroke-miterlimit="10" d="M74.226,351.794
				c-0.702,2.5-2.01,4.641-4.321,5.38c-1.983,0.632-3.754,1.317-5.664,0.4c-1.913-0.934-3.088-4.089-3.407-6.483
				c-0.569-4.552,2.214-10.395,6.58-9.791c2.268,0.33,4.375,0.756,5.816,2.872C73.968,345.248,74.714,350.079,74.226,351.794z"/>
			<path d="M64.488,345.312c-2.188,2.106-2.304,5.753-0.091,7.789c1.984,1.859,4.706,1.547,6.146-0.843
				c1.753-2.91,0.613-4.208-0.524-7.054C70.019,345.205,66.517,343.354,64.488,345.312z"/>
			<path d="M82.539,354.499c-0.026-0.376,0.126-0.784,0.198-1.155c0.016-0.109,0.026-0.215,0.053-0.321l0.213,0.068
				c-0.036-0.061-0.123-0.114-0.179-0.169c0.071-0.531,0.161-1.076,0.269-1.607c0.071-0.464,0.442-1.55-0.037-1.933
				c-0.303-0.237-1.111-0.209-1.483-0.308c-0.357-0.099-0.784-0.204-1.156-0.314c-1.832-0.541-3.798-0.373-5.747-0.701
				c-1.395-0.256-2.781-0.339-4.16-0.586c-0.962-0.179-1.913-0.367-2.812-0.338l0.472,1.282c-0.383,0.151-0.648,0.292-0.854,0.479
				l-0.408-0.117c0.046,0.123,0.206,0.179,0.349,0.222c-0.127,0.153-0.232,0.286-0.321,0.534c-0.169,0.545-0.204,1.211-0.144,1.763
				c0.09,0.728,0.277,1.19,1.176,1.261c0.728,0.037,1.386,0.099,2.187,0.222c2.152,0.384,4.243,0.9,6.377,1.273
				c1.164,0.197,2.419,0.293,3.546,0.604c0.472,0.133,0.936,0.265,1.416,0.426c0.393,0.153,0.748,0.499,1.191,0.447
				C82.78,355.208,82.523,354.853,82.539,354.499z"/>
			<path fill="none" stroke="#000000" stroke-width="1.6306" stroke-miterlimit="10" d="M86.56,346.717
				c0.072,0.125,0.091,0.125,0.062,0.02c-0.417-0.889-0.372-2.297-0.532-3.247c-0.498-2.935-1.334-5.747-2.02-8.646
				c-0.535-2.285-1.112-4.588-1.352-6.926c-0.099-0.73,0.045-1.646-0.161-2.312c-0.053,0.167,0.037,0.222,0.072,0.364"/>
			<path fill="none" stroke="#000000" stroke-width="1.6306" stroke-miterlimit="10" d="M84.924,348.646
				c0.034,0.009-0.107-0.115-0.231-0.266c-0.222-0.265-0.374-0.57-0.568-0.847c-1.21-1.857-2.846-3.458-4.502-4.907
				c-1.547-1.372-3.111-2.507-4.471-4.057c-1.236-1.403-2.722-2.605-3.879-4.114c-0.798-1.03-1.547-2.056-2.337-3.068
				c-0.499-0.589-1.228-1.184-1.584-1.841c0.071,0.115,0.195,0.222,0.276,0.309"/>
			<path fill="none" stroke="#000000" stroke-width="1.6306" stroke-miterlimit="10" d="M84.07,351.359
				c-0.258,0.09-0.756-0.286-1.067-0.419c-0.621-0.284-1.271-0.517-1.913-0.764c-2.479-1.002-4.854-2.372-7.245-3.558
				c-1.655-0.806-3.221-1.777-4.856-2.605c-1.708-0.824-3.495-1.351-5.194-2.221c-0.479-0.249-0.951-0.462-1.422-0.696
				c-0.338-0.167-1.005-0.602-1.308-0.533"/>
			<path fill="none" stroke="#000000" stroke-width="1.6306" stroke-miterlimit="10" d="M83.999,354.072
				c0,0.037,0.019,0.081,0.034,0.124c-0.782,0.312-1.67,0.16-2.524,0.222c-1.449,0.107-2.908,0.186-4.348,0.241
				c-2.197,0.096-4.403,0.348-6.6,0.48c-1.938,0.115-3.913,0.385-5.842,0.632c-1.085,0.142-2.171,0.06-3.202,0.151
				c-0.835,0.087-1.512,0.222-2.357,0.079"/>
			<path fill="none" stroke="#000000" stroke-width="1.6306" stroke-miterlimit="10" d="M82.505,356.554
				c-1.636,0.46-3.415,1.216-5.051,1.891c-1.299,0.526-2.543,0.863-3.868,1.218c-0.936,0.249-1.779,0.81-2.632,1.227
				c-0.864,0.435-1.753,0.837-2.606,1.31c-1.558,0.863-3.051,1.552-4.624,2.186c-0.801,0.303-1.628,0.596-2.419,0.978"/>
			<path fill="none" stroke="#000000" stroke-width="1.6306" stroke-miterlimit="10" d="M83.696,359.496
				c-0.188,0.117-0.472,0.186-0.693,0.296c-0.605,0.284-0.988,0.797-1.468,1.236c-1.733,1.617-3.706,2.942-5.638,4.336
				c-2.304,1.64-4.49,3.435-6.625,5.267c-0.988,0.852-1.992,1.724-3.006,2.523c-0.284,0.251-0.881,0.856-1.228,0.917
				c0.579-0.409,1.006-1.014,1.636-1.398"/>
			<path fill="none" stroke="#000000" stroke-width="1.6306" stroke-miterlimit="10" d="M85.085,361.948
				c-0.056,0.422-0.667,0.802-0.846,1.191c-0.355,0.705-0.479,1.506-0.765,2.225c-0.239,0.703-0.595,1.342-0.891,1.977
				c-1.573,3.281-3.306,6.56-4.694,9.886c0.283-0.149,0.595-0.435,0.755-0.753"/>
			<path fill="none" stroke="#000000" stroke-width="1.6306" stroke-miterlimit="10" d="M86.009,365.632
				c-0.134,0.471-0.018,1.055-0.044,1.527c-0.09,1.372-0.354,2.713-0.454,4.084c-0.17,2.249-0.125,4.604-0.497,6.828
				c-0.09,0.536-0.25,1.095-0.258,1.619c0.202-0.194,0.187-0.524,0.247-0.826"/>
			<path fill="none" stroke="#000000" stroke-width="1.6306" stroke-miterlimit="10" d="M90.687,365.667
				c-0.179,1.021,0.195,1.754,0.436,2.739c0.365,1.609,0.438,3.397,0.632,5.045c0.053,0.548,0.089,1.626,0.596,2.006
				c0.053-0.114,0.07-0.229,0.08-0.38"/>
			<path fill="none" stroke="#000000" stroke-width="1.6306" stroke-miterlimit="10" d="M93.72,364.636
				c0.844,1.14,1.564,2.381,2.321,3.567c0.951,1.493,2.258,2.762,3.528,3.975"/>
			<path fill="none" stroke="#000000" stroke-width="1.6306" stroke-miterlimit="10" d="M97.517,363.088
				c-0.019,0.051-0.045,0.105-0.098,0.117c0.952,0.113,1.866,0.515,2.774,0.877c1.502,0.623,2.827,1.131,4.438,1.415
				c-0.09-0.025-0.16-0.037-0.231-0.043"/>
			<path fill="none" stroke="#000000" stroke-width="1.6306" stroke-miterlimit="10" d="M99.606,359.283
				c0.489,0.729,6.126,0.33,5.815,0.994"/>
			<path fill="none" stroke="#000000" stroke-width="1.6306" stroke-miterlimit="10" d="M99.632,356.943
				c0.891,0.213,1.673-0.284,2.464-0.596c0.836-0.357,2.135-1.341,3.051-1.184"/>
			<path fill="none" stroke="#000000" stroke-width="1.6306" stroke-miterlimit="10" d="M99.188,354.257
				c0.711,0.488,4.855-5.969,5.346-6.838c-0.045,0.018-0.081,0.045-0.134,0.062"/>
			<path fill="none" stroke="#000000" stroke-width="1.6306" stroke-miterlimit="10" d="M99.304,349.855
				c0.089,0.027,0.089,0.052,0.026,0.082c-0.045-1.094,0.613-2.207,0.951-3.212c0.427-1.305,0.863-2.597,1.422-3.857
				c0.117-0.259,0.4-1.015,0.57-1.104"/>
			<path fill="none" stroke="#000000" stroke-width="1.6306" stroke-miterlimit="10" d="M90.473,344.538
				c-0.294-1.603-0.489-3.146-0.595-4.749c-0.16-2.454,0.044-5.007-0.374-7.418c-0.124-0.654-0.267-1.323-0.222-1.983
				c0.061-0.687,0.079-1.313-0.019-2c-0.044-0.398-0.393-1.592,0.035-1.795"/>
			<path fill="none" stroke="#000000" stroke-width="1.6306" stroke-miterlimit="10" d="M74.776,341.141
				c0.268-0.115,0.24-0.648,0.304-0.961c0.374-2.144,0.88-4.286,1.255-6.427c0.435-2.475,0.843-4.938,1.27-7.356"/>
			<path fill="none" stroke="#000000" stroke-width="1.6306" stroke-miterlimit="10" d="M76.849,342.67
				c0.089,0.046,0.152,0.055,0.239,0.019c0.081-0.39,0.445-0.801,0.659-1.141c1.279-2.097,2.445-4.295,3.886-6.296
				c1.176-1.573,2.473-3.064,3.771-4.515c0.925-1.085,2.828-2.51,3.318-3.957c-0.169-0.009-0.098,0.097-0.15,0.229"/>
			<path fill="none" stroke="#000000" stroke-width="1.6306" stroke-miterlimit="10" d="M77.863,346.626
				c-0.034,0.065-0.019,0.128,0.026,0.172c2.747-2.866,6.02-5.108,9.338-7.256c1.715-1.122,3.609-1.88,5.459-2.75
				c1.165-0.542,2.304-1.184,3.479-1.735c0.348-0.142,0.817-0.24,1.093-0.533c-0.149-0.025-0.337-0.019-0.49,0.036"/>
			<path fill="none" stroke="#000000" stroke-width="1.6306" stroke-miterlimit="10" d="M71.282,340.262
				c0.017-0.382-0.17-1.507-0.187-2.047c-0.081-2.042-0.268-4.08-0.508-6.118c-0.177-1.625-0.302-3.333-0.248-4.964
				c0.019-0.416-0.009-1.172,0.124-1.557c-0.026,0.11-0.044,0.224-0.062,0.35"/>
			<path fill="none" stroke="#000000" stroke-width="1.6306" stroke-miterlimit="10" d="M62.506,356.971
				c-0.295,0.05-0.472,0.192-0.703,0.371c-0.393,0.392-0.685,1.05-0.996,1.52c-0.498,0.788-1.085,1.47-1.646,2.209
				c-0.985,1.271-1.963,2.516-3.005,3.744c-0.373,0.426-0.737,0.916-1.209,1.216c0.204-0.105,0.391-0.25,0.577-0.392"/>
			<path fill="none" stroke="#000000" stroke-width="1.6306" stroke-miterlimit="10" d="M65.973,359.521
				c0.134,0.312,0.018,0.607-0.035,0.907c-0.159,0.999-0.329,2.022-0.525,3.018c-0.418,2.125-0.462,4.293-0.569,6.438
				c-0.053,1.296-0.044,2.56-0.061,3.83c0,0.428-0.073,0.973,0.008,1.415c0.045-0.071,0.071-0.194,0.071-0.293"/>
			<path fill="none" stroke="#000000" stroke-width="1.6306" stroke-miterlimit="10" d="M70.411,357.964
				c0.248,0.462,0.194,1.025,0.239,1.543c0.178,2.088,0.641,4.222,1.004,6.292c0.152,0.863,2.475,13.5,4.119,12.895"/>
			<path fill="none" stroke="#000000" stroke-width="1.6306" stroke-miterlimit="10" d="M74.714,358.707
				c0.081,0.247,0.018,0.46,0.127,0.682c0.168,0.336,0.551,0.666,0.771,0.98c1.549,2.008,2.723,4.239,4.27,6.287
				c1.609,2.162,3.282,4.135,5.061,6.146c0.951,1.066,2.267,2.125,2.862,3.43"/>
			<path fill="none" stroke="#000000" stroke-width="1.6306" stroke-miterlimit="10" d="M75.792,354.736
				c0.64,0.545,1.183,1.245,1.786,1.859c1.317,1.337,2.812,2.454,4.145,3.773c1.157,1.12,2.25,2.31,3.353,3.494
				c2.152,2.312,4.481,4.382,6.892,6.447c1.601,1.341,3.603,2.455,5.016,3.994c-0.178,0.009-0.319,0-0.498-0.064"/>
			<path fill="none" stroke="#000000" stroke-width="1.6306" stroke-miterlimit="10" d="M77.515,328.461
				c0.393-0.169,0.34-1.53,0.375-1.923c0.07-1.083,0.338-2.175,0.523-3.26"/>
		</g>
		<path d="M203.314,321.523c-0.319,1.832-0.642,3.637-1.102,5.422c-0.321,1.15-1.042,2.244-1.532,3.311
			c-0.361,0.792-0.7,1.58-1.056,2.368c-0.428,0.966-1.104,1.813-1.531,2.756c-0.33,0.683-0.586,1.429-0.897,2.116
			c-0.524,1.163-0.952,2.31-1.475,3.425c-1.699,3.512-3.915,6.836-6.111,10.278c-1.838,2.864-4.109,5.451-5.895,8.35
			c-0.987,1.627-1.992,3.164-3.008,4.712c-0.134,0.215-0.665,1.007-1.005,0.943c-0.453-0.097-0.567-1.2-0.622-1.521
			c-0.238-2.285,2.117-4.242,3.186-6.072c0.862-1.415,1.504-2.963,2.223-4.439c0.811-1.646,1.841-3.229,2.818-4.785
			c1.504-2.397,2.997-4.668,4.109-7.256c2.089-4.845,4.312-9.744,6.174-14.736c0.78-2.106,2.034-4.178,3.556-5.825
			c0.745-0.792,2.463-1.03,2.062,0.58"/>
		<path d="M198.469,327.169c-0.196-0.348,0.019-0.65-0.046-1.023c-0.077-0.503-0.392-0.923-0.79-1.271
			c-0.775-0.678-1.646-1.218-2.456-1.851c-0.682-0.513-0.789-1.236-0.068-1.849c1.005-0.843,2.463-0.907,3.734-0.917
			c1.385-0.017,2.731,0.083,4.1,0.321c1.173,0.197,1.395,0.623,0.816,1.717c-0.701,1.351-1.91,2.349-2.899,3.407
			c-0.49,0.531-1.342,1.483-0.95,2.248"/>
		<path d="M207.192,319.442c0.115,0.135,0.133,0.158,0.027,0.053c-2.367-1.101-3.879,2.125-4.074,3.984
			c-0.069,0.676-0.187,1.878,0.471,2.34c0.74,0.513,1.726-0.176,2.402-0.426c0.649-0.252,1.655-0.243,2.017-0.934
			c0.298-0.598-0.105-1.254-0.532-1.683c-0.276-0.257-1.208-0.87-1.602-0.729c-0.497,0.17-0.809,1.23-0.33,1.477
			c-0.025-0.091-0.059-0.196-0.078-0.292c0.339,0.009,0.66,0.053,0.979,0.169c0.613,2.249-4.33,0.861-2.144-1.424
			c0.642-0.66,1.856-0.586,2.634-0.952c0.311-0.152,0.808-0.293,0.799-0.774c0.009-0.426-0.639-1.067-1.031-1.041
			c-0.062,0.134-0.133,0.331-0.104,0.482"/>
		<path d="M196.193,338.196c0.398,0.374,0.596,0.838,0.87,1.31c0.453,0.792,0.998,1.403,1.611,2.061
			c1.599,1.726,2.23,4.259,3.325,6.342c1.653,3.165,3.448,6.287,5.38,9.3c0.815,1.291,1.796,2.41,3.004,3.329
			c0.536,0.398,1.183,0.852,1.717,0.284c0.738-0.801,0.578-2.555,0.418-3.549c-0.766-4.909-4.071-9.241-6.668-13.367
			c-1.396-2.216-2.696-4.363-4.313-6.348c-0.687-0.838-1.495-1.495-2.376-2.152c-0.613-0.453-1.369-1.106-2.205-0.721
			c-2.017,0.961-0.73,3.622,0.089,4.881c0.364,0.591,0.701,1.177,1.049,1.791"/>
		<path d="M211.034,356.774c0.028,0.179-2.01,0.24-2.482,0.302c-3.324,0.447-6.722,0.403-10.037,0.917
			c-3.551,0.561-7.106,0.943-10.619,1.665c-2.134,0.46-4.304,0.854-6.146,2.025c-1.325,0.854-3.299,1.468-3.878,3.151
			c-0.311,0.934,0.49,1.795,1.352,2.178c1.184,0.524,2.49,0.249,3.699,0.105c1.887-0.24,3.673-0.959,5.575-1.261
			c2.438-0.372,4.939-0.499,7.286-1.344c2.933-1.042,5.778-2.516,8.624-3.849c1.566-0.729,3.123-1.415,4.634-2.27
			c0.499-0.274,1.146-0.542,1.574-0.943c0.647-0.623-0.16-1.348-0.603-0.854"/>
		<path d="M98.033,310.71c0.656,0.107,1.412,0.854,2.115,1.243c1.396,0.802,2.73,1.521,4.002,2.562
			c1.627,1.28,3.14,2.694,4.757,3.977c2.055,1.635,3.655,3.691,5.736,5.28c1.505,1.131,2.891,2.332,4.464,3.371
			c2.875,1.933,5.808,3.675,8.573,5.774c3.663,2.784,7.719,5.181,11.552,7.744c1.173,0.783,2.356,1.565,3.486,2.438
			c2.188,1.678,4.651,2.924,6.85,4.606c3.164,2.411,6.577,4.696,9.914,6.839c2.935,1.891,5.788,3.938,8.655,5.93
			c1.189,0.852,2.3,1.813,3.555,2.569c1.129,0.703,2.329,1.264,3.487,1.914c1.681,0.962,3.654,2.542,5.699,2.542
			c0.882,0.009,0.95-0.577,1.476-1.296c0.517-0.742,1.012-1.557,1.111-2.463c0.276-2.464-2.809-3.869-4.669-4.831
			c-2.267-1.154-4.678-2.063-6.901-3.334c-3.131-1.813-6.216-4.047-9.052-6.333c-1.681-1.36-3.6-2.363-5.289-3.699
			c-2.075-1.617-4.271-3.087-6.441-4.621c-3.21-2.308-6.366-5.019-9.765-7.02c-7.069-4.188-13.979-8.582-21.332-12.288
			c-4.849-2.448-9.828-4.819-14.255-7.835c-1.194-0.826-2.393-1.673-3.621-2.392c-1.19-0.705-2.97-0.966-4.358-1.049
			c-0.105,0.158-0.142,0.444-0.123,0.629c0.195,0.062,0.461,0.153,0.675,0.135"/>
		<path d="M162.807,344.199c0.296,0.33,0.302,0.375,0.055,0.135c-2.473-1.129-5.79-1.157-8.243-0.438
			c-4.047,1.181-5.79,4.012-6.804,8.002c-0.889,3.542-1.095,6.493,1.255,9.481c2.774,3.558,6.96,4.785,11.229,5.559
			c7.986,1.431,12.461-7.221,10.425-13.989c-1.513-5.141-6.332-9.47-11.828-9.782c0.037,0.365,0.019,0.879,0.161,1.191"/>
		<path d="M160.343,360.749c0.925,0.979,1.122,2.775,1.832,4.021c1.061,1.85,2.476,3.602,3.518,5.463
			c0.736,1.324,1.721,4.79,3.059,5.752c1.533,1.121,2.147-0.784,2.159-2.24c0.043-3.197-2.625-6.938-4.421-9.543
			c-1.352-1.932-3.406-4.964-5.675-5.815c-0.666,1.233,0.321,2.159,1.067,3.041"/>
		<path d="M151.745,353.03c0.346,0.061,0.374,0.061,0.071,0.03c-1.424-0.465-2.766-1.621-4.19-2.299
			c-1.982-0.941-3.743-1.566-5.397-3.004c-1.449-1.264-2.356-2.062-3.048-3.869c-0.26-0.683-0.738-1.04-0.73-1.869
			c0-0.783,0.605-1.049,0.72-1.886c3.317,0.199,6.644,3.407,9.375,5.197c1.209,0.774,2.275,1.795,3.37,2.666
			c0.771,0.641,2.587,1.193,2.89,1.85"/>
		<path fill="#245977" d="M188.936,350.761c0-1.209,1.288-3.741-0.873-3.858c0.269-1.175-0.089-3.798-1.375-4.252
			c-0.465-0.167-2.358,0.225-2.945,0.225c-0.871,0.037-1.637-0.105-2.5,0.096c-2.258,0.49-3.219,1.227-4.543,2.917
			c-1.433,1.822-1.158,1.557,0.473,2.88c-0.688,0.231-1.603,0.909-1.31,1.763c0.366,1.012,1.511,0.417,2.152,0.95
			c0.641,0.543,1.528,2.626,2.062,3.497c1.121,1.866,1.422,3.114,1.051,5.254c-0.311,1.734-3.879,8.881-3.416,10.549
			c0.685,0.407,1.896,0.462,2.707,0.444c0.966-0.037,3.841-1.04,4.959-0.852c2.321,0.425,5.479-3.536,6.919-1.551
			c-1.255-0.3-0.081-2.401-0.055-3.37c0-0.9-0.442-2.044-0.646-2.979c-0.536-2.358-0.943-4.848-2.11-7.007
			C188.614,353.786,188.269,350.949,188.936,350.761z"/>
		<path d="M176.726,367.936c0.144-0.791,0.188-1.61,0.322-2.384c0.069-0.507,0.087-0.638,0.54-0.48
			c0.257,0.089,0.559,0.27,0.809,0.375c0.632,0.311,1.271,0.614,1.992,0.799c0.455,0.132,2.178,0.827,1.825,1.412
			c-0.598,0.046-1.033,0.659-1.462,1.021c-0.425,0.359-0.852,0.758-0.799,1.378c0.552-0.124,1.085-0.479,1.655-0.568
			c0.614-0.096,1.263-0.284,1.894-0.382c0.783-0.124,1.573-0.017,2.384-0.142c0.737-0.124,1.447-0.286,2.177-0.391
			c0.777-0.115,1.745-0.211,2.428-0.604c0.561-0.284,1.248-0.532,1.565-1.095c0.346-0.577,0.197-1.2,0.044-1.813
			c-0.177-0.709-0.398-1.245-0.158-1.999c1.156,0.053,1.502,0.817,2.1,1.697c0.327,0.453,0.701,0.783,0.8,1.369
			c0.099,0.623,0.193,1.182,0.346,1.813c0.23,0.925,0.32,1.974,0.274,2.936c-0.026,0.454-0.051,0.865-0.114,1.316
			c-0.105,0.502,0.018,0.836-0.238,1.298c-1.017,1.823-2.899,3.247-5.01,3.576c-1.11,0.159-2.23,0.294-3.297,0.436
			c-0.783,0.115-1.604,0.25-2.387,0.348c-1.021,0.124-1.955,0.568-2.984,0.692c-1.718,0.24-3.469,0.741-5.185,1.078
			c-1.095,0.231-2.102,0.79-3.212,1.042c-0.694,0.13-1.413,0.247-2.136,0.307c-1.092,0.099-2.159,0.027-3.242,0.188
			c-0.98,0.126-2.189,0.046-2.876-0.746c-1.404-1.61,0.536-3.613,1.521-4.804c1.22-1.493,2.954-2.523,4.405-3.812
			c1.128-1.042,2.186-2.127,3.432-3.086c0.453-0.364,0.969-0.712,1.403-1.104c0.367-0.338,0.65-0.755,1.209-0.524
			c0.083,0.303-0.174,0.978,0.153,1.122"/>
		<pattern  id="SVGID_1_" xlink:href="#Neues_Musterfeld_1" patternTransform="matrix(0 -9.1063 9.1063 0 49782.2109 -57734.6328)">
		</pattern>
		<path fill="url(#SVGID_1_)" d="M80.139,234.899c0.322,0.371,0.33,0.435,0.027,0.167c-4.785-5.64-15.252-1.342-18.203,4.208
			c-3.245,6.124-1.673,11.748,2.72,16.377c0.107-0.256,0.026-0.379-0.267-0.354c0.589,1.229,4.644,1.843,6.066,2.411
			c2.365,0.97,4.562,2.001,4.464-1.104c-0.062-1.974,0.587-4.012,3.076-4.195c3.531-0.252,3.576,2.256,3.477,4.772
			c2.1,1.158,4.519-1.777,5.736-3.032c0.801-0.852,4.021-6.188,0.962-6.062"/>
		<pattern  id="SVGID_2_" xlink:href="#Neues_Musterfeld_1" patternTransform="matrix(0 -9.1063 9.1063 0 49782.2109 -57734.6328)">
		</pattern>
		<path fill="url(#SVGID_2_)" d="M166.544,271.162c-0.596,0.687-3.186,0.105-4.277,0.188c-1.842,0.132-3.762-0.124-5.643-0.037
			c-3.054,0.133-5.431,0.598-7.173,3.444c-1.584,2.587-1.618,6.553-2.136,9.534c-0.516,2.942-1.965,5.976,0.598,7.977
			c2.337,1.832,5.192,3.279,8.226,3.43c1.716,0.107,6.241-0.179,7.524-1.841c1.117-1.429-0.119-1.758-1.051-2.782
			c-1.246-1.371-1.619-1.724-0.73-3.166c1.39-2.276,4.135-2.748,6.37-2.72c0.026,0.842,0.737,2.097,1.119,2.846
			c0.693,1.298,0.932,2.15,2.846,2.018c2.935-0.211,3.059-3.22,3.746-5.496c0.975-3.262,1.369-5.31-0.937-8.485
			c-1.129-1.52-2.471-2.39-4.055-3.315c-0.941-0.552-3.06-1.085-3.432-1.887"/>
	</g>
	<path fill="#FF0000" d="M158.921,327.591c-0.204,0.89,1.015,2.251,1.459,2.977c0.551,0.924,1.255,1.92,1.991,2.7
		c0.793,0.821,1.495,1.724,2.207,2.626c0.88,1.117,1.92,1.419,3.272,1.864c4.197,1.369,8.323,2.944,12.593,3.933
		c1.28,0.302,2.605,0.403,3.842,0.568c0.613,0.084,1.172,0.151,1.812,0.151c0.714,0,1.158,0.128,1.14-0.715
		c-0.027-0.971-0.632-1.974-1.03-2.843c-0.444-0.943-1.209-2.059-2.102-2.672c-1.1-0.756-2.203-1.362-3.164-2.278
		c-0.802-0.763-1.292-1.781-2.098-2.596c-1.354-1.355-2.812-2.044-4.581-2.816c-1.024-0.442-2.017-0.934-3.017-1.465
		c-1.104-0.586-2.201-1.378-3.502-1.41c-1.885-0.044-3.752-0.042-5.582,0.284c-0.518,0.092-1.124,0.188-1.566,0.398
		c-0.438,0.208-0.811,0.545-1.246,0.746"/>
</g>
</svg>
