<?xml version="1.0" encoding="utf-8"?>
<!-- Generator: Adobe Illustrator 16.0.4, SVG Export Plug-In . SVG Version: 6.00 Build 0)  -->
<!DOCTYPE svg PUBLIC "-//W3C//DTD SVG 1.1//EN" "http://www.w3.org/Graphics/SVG/1.1/DTD/svg11.dtd">
<svg version="1.1" id="Ebene_1" xmlns="http://www.w3.org/2000/svg" xmlns:xlink="http://www.w3.org/1999/xlink" x="0px" y="0px"
	 width="283.46px" height="425.2px" viewBox="0 0 283.46 425.2" enable-background="new 0 0 283.46 425.2" xml:space="preserve">
<g>
	<path fill="#245977" d="M117.922,309.219c0.925,3.757,1.772,7.63,3.757,10.99c0.567,0.961,1.201,1.817,1.787,2.713
		c0.471,0.708,1.791,2.409,1.862,3.265c0.08,0.869-0.719,1.596-0.693,2.661c0.025,0.974,0.645,1.777,1.178,2.514
		c0.595,0.83,0.978,1.435,1.051,2.423c0.082,1.183,0.15,2.29,0.297,3.466c0.32,2.567,0.496,11.331,1.028,13.928
		c0.419,2.048,0.369,4.233,0.729,6.312c0.354,2.009,0.705,4.114,0.9,6.172c3.634,0.172,7.322-0.03,10.931-0.614
		c-0.185-0.757-0.357-1.517-0.545-2.264c-0.949-3.779-2.025-7.465-2.945-11.271c-0.505-2.079-1.219-10.244-1.819-12.263
		c-0.363-1.217-0.78-2.429-1.104-3.658c-0.189-0.707-0.457-1.764-0.972-2.296c1.718,0.436,0.647-2.816,0.407-3.433
		c-0.313-0.823-0.516-0.91-0.192-1.924c0.248-0.767,0.438-1.675,0.738-2.495c1.944-5.413,5.884-19.949,5.97-25.861
		c0.074-4.943,0.292-9.655-0.488-14.506c-0.279-1.712-0.536-3.447-0.747-5.176c-0.1-0.845-0.14-1.635-0.235-2.481
		c-0.049-0.463-0.165-1.85-0.565-2.167c-0.155,0.082-0.562,0.128-0.68,0.205l-19.988-1.725c0.092,0.928-0.292,2.068-0.496,2.96
		c-0.245,1.087-0.307,2.32-0.44,3.467c-0.353,3.169-0.353,6.87-0.065,10.045C116.934,292.115,116.988,305.425,117.922,309.219z"/>
	<path fill="#245977" d="M161.178,374.422c0.214-2.033,0.631-4.121,1.041-6.104c0.41-1.986,0.353-4.077,0.826-6.033
		c0.601-2.479,3.575-27.636,3.938-30.088c0.166-1.12,0.248-2.18,0.342-3.311c0.079-0.945,0.513-1.523,1.185-2.313
		c0.599-0.707,1.303-1.474,1.328-2.402c0.03-1.018-0.872-1.718-0.786-2.541c0.082-0.823,1.576-2.445,2.105-3.123
		c0.664-0.859,1.378-1.675,2.019-2.594c2.237-3.211,3.202-6.909,4.243-10.499c1.05-3.625,2.898-16.766,3.298-20.504
		c0.324-3.03,0.324-6.569-0.079-9.596c-0.146-1.097-0.215-2.277-0.493-3.315c-0.23-0.852-0.664-1.943-0.558-2.828l-22.569,1.649
		c-0.136-0.073-0.595-0.116-0.773-0.199c-0.445,0.307-0.578,1.633-0.635,2.072c-0.108,0.813-0.151,1.566-0.268,2.373
		c-0.236,1.652-0.532,3.308-0.842,4.943c-0.88,4.637-0.629,9.141-0.55,13.862c0.097,5.651,2.764,19.959,4.958,25.134
		c0.336,0.783,0.553,1.652,0.832,2.382c0.362,0.972,0.139,1.054-0.218,1.838c-0.271,0.594-1.481,3.701,0.462,3.284
		c-0.582,0.505-0.882,1.517-1.097,2.191c-0.366,1.176-0.833,2.336-1.246,3.496c-0.681,1.934-4.267,26.512-4.837,28.498
		c-1.042,3.635-2.254,7.157-3.328,10.77c-0.076,0.257-0.146,0.515-0.218,0.776C153.264,372.687,157.212,373.593,161.178,374.422z"/>
	<path fill="#245977" d="M174.518,139.388c1.128,0.169,5.829-2.084,7.342-2.649c2.718-1.015,5.423-2.126,8.17-3.063
		c5.048-1.719,12.906-1.881,18.168-3.031c12.001-2.623,22.715-4.986,33.75-10.021c1.646-0.75,8.322-2.902,7.192-5.285
		c-0.39-0.829-24.404-14.8-32.259-17.844c-4.586-1.774-26.641-7.957-32.674-10.048c-4.119-1.424-8.262-2.667-11.754-5.037
		c-1.498-1.015-2.608-3.116-4.26-2.339c-1.001,0.469-2.796,3.01-3.331,3.879c5.37,2.76,10.938,4.958,16.443,7.108
		c6.999,2.742,48.284,24.03,55.135,25.517c-3.047-0.096-5.159,1.09-8.087,1.298c-3.066,0.225-55.459,7.733-56.702,7.591
		c-1.234-0.152-6.518,1.814-7.646,1.456c-1.972-0.62-0.902,6.144,0.299,8.47c0.796,1.541,2.445,7.31,5.358,6.636"/>
	<path fill="#245977" d="M126.001,121.822c0.37,0.05,0.515-0.049,0.437-0.307c-8.201-6.625-19.985-9.001-29.178-14.53
		c-5.163-3.11-31.736-20.904-35.808-23.649c0.36-1.039,36.389-2.835,42.604-3.246c5.686-0.376,11.284-1.534,17.054-1.745
		c4.19-0.159,8.862-0.017,13.066-0.505c0.493-2.175-0.765-4.517-1.386-6.546c-0.888-2.911-2.793-1.977-5.801-2.167
		c-9.567-0.619-19.131,0.062-28.753,0c-5.083-0.03-10.372,0.406-15.433,0.898c-4.916,0.479-10.001-0.037-14.899,0.442
		c-5.212,0.51-10.611,1.084-15.752,1.637c-4.114,0.439-8.363,0.145-12.455,0.598c0.565,2.182,3.592,4.51,5.271,6.182
		c3.459,3.434,6.304,7.191,9.817,10.551c4.312,4.131,9.48,7.471,14.248,11.11c2.677,2.036,5.102,4.369,7.653,6.533
		c3.303,2.799,7.306,4.983,10.776,7.617c6.106,4.637,11.539,9.943,18.121,14.12c3.478,2.2,6.466,4.781,9.888,6.965
		c2.849,1.834,4.249-0.016,6.134-2.088c1.952-2.151,5.131-3.513,4.879-6.599"/>
	<path fill="#245977" d="M131.312,86.418c-0.232,0.522-0.248,0.549-0.044,0.092c0.746-4.259,8.312-6.622,12.365-7.292
		c4.745-0.788,12.042,0.862,16.254,3.477c3.683,2.279,5.586,9.899,5.384,13.732c-0.261,5.082-2.705,8.033-4.943,13.102
		c-1.922,4.361-4.275,3.608-8.037,6.682c-1.278,1.048-1.851,5.81-6.469,4.676c-7.31-1.795-6.748-2.333-9.867-4.994
		c-4.641-3.961-8.804-10.221-8.308-16.036c0.43-4.977,0.482-9.599,3.305-14.197c0.488-0.026,0.942,0.099,1.342,0.371"/>
	<path fill="#FFFFFF" d="M135.69,100.525c0.456-0.866,1.811-1.141,2.791-1.16c1.218-0.023,2.068,0.812,3.041,1.252
		c-0.036-0.105-0.011-0.053-0.133-0.109c-0.607,0.77-1.59,1.031-2.614,0.952c-0.692-0.062-2.871-0.238-2.708-1.235
		c0.132,0.009,0.255,0.085,0.33,0.201"/>
	<path fill="#FFFFFF" d="M151.861,102.795c0.418-0.252,0.688-0.562,1.164-0.727c0.506-0.179,0.998-0.02,1.48,0.095
		c1.2,0.291,1.867,1.213,2.736,1.934c-0.984,0.1-2.072,0.211-3.106,0.113c-0.459-0.046-0.911-0.113-1.368-0.278
		c-0.236-0.086-0.525-0.152-0.737-0.265c-0.185-0.102-0.276-0.261-0.455-0.379c0-0.092,0.022-0.159,0.102-0.228
		c0.079,0.016,0.192,0.039,0.262,0.086"/>
	<path fill="#245977" d="M137.531,99.295c-0.044,0.294-0.406,0.464-0.46,0.804c-0.04,0.25,0.135,0.61,0.356,0.819
		c0.457,0.436,1.202,1.08,1.891,0.565c0.492-0.38,0.973-1.279,0.354-1.788c-0.43-0.351-1.586-0.648-2.046-0.371"/>
	<path fill="#245977" d="M153.609,102.019c-0.051,0.201-0.746,0.119-0.978,0.31c-0.3,0.262-0.341,0.867-0.182,1.17
		c0.37,0.74,1.593,0.816,2.316,0.789c0.499-0.02,0.647-0.132,0.78-0.608c0.086-0.313,0.182-0.871-0.146-1.126
		c-0.291-0.228-0.79-0.37-1.16-0.505c-0.377-0.143-1.182-0.334-1.275,0.21"/>
	<path d="M138.995,99.996c-0.387-0.079-0.604-0.293-0.981-0.029c-0.421,0.294-0.373,0.68,0.103,0.885
		c0.813,0.36,1.259-0.816,0.405-0.908"/>
	<path d="M154.399,102.875c-0.082-0.373-0.66-0.185-0.79,0.106c-0.154,0.327,0.189,0.786,0.615,0.802
		c1.062,0.061,0.698-1.642-0.169-1.317"/>
	<path fill="#FF0000" d="M140.293,110.987c0.122,0.115,0.122,0.363,0.216,0.519c0.108,0.179,0.25,0.37,0.409,0.525
		c0.255,0.269,0.837,1.58,1.141,1.789c0.775,0.515,1.34,0.667,2.289,0.769c0.941,0.1,2-0.624,2.854-1.073
		c0.794-0.424,1.319-1.316,1.177-2.135c-0.303,0.145-0.555,0.371-0.896,0.5c-0.301,0.105-0.627,0.212-0.941,0.313
		c-0.717,0.245-1.501,0.271-2.271,0.275c-0.671,0-1.305-0.304-1.919-0.579c-0.312-0.142-0.626-0.3-0.926-0.449
		c-0.286-0.146-0.561-0.384-0.911-0.314c-0.027,0.119,0.082,0.208,0.131,0.314"/>
	<path fill="#FFFFFF" d="M142.633,111.452c0.176,0.347,0.176,0.78,0.223,1.131c0.059,0.473-0.012,0.925-0.034,1.368
		c0.228,0.151,0.688,0.089,0.923,0.066c0.425-0.037,0.412-0.186,0.425-0.483c0.033-0.585-0.06-1.263,0.141-1.794
		c-0.216-0.133-0.622-0.133-0.864-0.186c-0.301-0.065-0.604-0.227-0.876-0.125c0.054,0.02,0.105,0.039,0.156,0.06"/>
	<path fill="#FFFFFF" d="M144.348,111.767c0.136,0.109,0.017,0.357,0.021,0.485c0.003,0.242-0.008,0.47-0.021,0.701
		c-0.01,0.285,0.258,0.694,0.146,0.938c0.185,0.101,0.386,0.08,0.585,0.106c0.23,0.037,0.399,0.102,0.649,0.179
		c0.165-0.132-0.005-0.41-0.044-0.589c-0.154-0.687-0.008-0.264-0.072-0.829c-0.01-0.119,0.048-0.43-0.094-0.559
		c-0.126-0.112-0.804-0.297-0.989-0.366"/>
	<path fill="#FF0000" d="M139.756,110.574c0.137,0.037,0.257,0.291,0.379,0.423c0.169,0.198,0.402,0.337,0.621,0.476
		c0.433,0.281,0.886,0.502,1.372,0.72c0.687,0.298,1.406,0.077,2.182,0.146c0.908,0.079,2.024,0.184,2.813-0.152
		c0.474-0.205,0.8-0.394,1.157-0.747c0.147-0.152,0.632-0.73,0.657-0.873c-0.77,0.073-1.444,0.446-2.15,0.655
		c-0.912,0.271-1.637,0.151-2.585,0.083c-0.868-0.067-1.759-0.119-2.63-0.242c-0.324-0.032-0.645-0.112-0.943-0.268
		c-0.277-0.148-0.616-0.585-0.809-0.343"/>
	<path fill="#245977" d="M128.569,91.157c0.614,0.205-0.123-1.316-0.302-1.672c-0.243-0.499-0.865-1.744-1.602-1.694
		c-1.782,0.115-1.193,3.878-1.193,5.019c0,1.811-0.297,3.949-0.006,5.741c0.122,0.73,0.43,1.352,1.017,1.839
		c0.999,0.83,1.246,0.176,2.086-0.419"/>
	<path fill="#245977" d="M164.556,99.497c0.558,0.268,0.822-0.998,1.629-0.681c0.509,2.257-0.585,4.074-1.573,6.176
		c-0.476,1.025-1.138,1.88-2.025,2.613c-0.526,0.427-1.864,1.663-2.56,1.385c0.04-0.241,0.194-0.386,0.474-0.439"/>
	<path d="M127.889,88.797c-0.354-1.629,1.275-3.972,2.174-5.21c0.479-0.662,1.024-1.315,1.602-1.907
		c1.043-1.051,2.446-1.349,3.87-1.804c1.024-0.328,2-0.926,3.045-1.118c1.387-0.257,2.673-0.572,4.073-0.952
		c1.831-0.504,3.989-0.227,5.912-0.233c2.281-0.014,5.072,0.248,7.168,1.232c1.89,0.886,3.556,2.558,5,4.012
		c1.496,1.501,3.442,2.892,4.711,4.581c1.164,1.533,0.78,3.793,0.78,5.663c0,1.035-0.105,2.148,0.228,3.11
		c0.368,1.042,0.639,1.5,0.185,2.601c-0.896,2.211-3.032,4.104-4.183,6.176c0.515-0.658,1.062-2.316,1.15-3.308
		c0.167-1.88-0.247-3.681-0.242-5.535c0.01-1.927,0.365-4.26,0.01-6.146c-0.197-1.038-1.172-1.659-1.913-2.372
		c-0.856-0.817-1.665-1.732-2.56-2.452c-1.846-1.484-3.719-1.709-6.018-2.142c-2.238-0.42-4.61-0.635-6.914-0.36
		c-1.982,0.234-4.057,0.33-5.962,0.885c-0.979,0.285-1.922,0.787-2.868,1.204c-0.979,0.43-2.153,0.776-3.096,1.184
		c-1.613,0.703-2.059,2.762-2.848,4.113c-0.56,0.959-1.002,2.416-1.141,3.523c-0.118,0.944-1.388,4.279-1.243,5.201
		c-0.148-1.55,0.189-4.269,0-5.918C128.651,91.438,128.399,90.311,127.889,88.797z"/>
	<path fill="#FF0000" d="M161.703,83.371c0,0-0.893-1.357-1.795-0.594c-1.417,1.189-1.15,3.972,0.158,4.431
		c1.32,0.449,2.779,0.737,4.049-0.128c1.263-0.855,0.393-1.365,0.393-1.365s19.949-18.448,20.861-18.819
		c1.758-0.724,16.496-8.873,21.664-13.453c5.178-4.603,15.828-18.221,15.828-18.221s1.888-1.533,1.871-2.025
		c-0.018-0.496-4.322-4.88-4.626-4.875c-0.312,0.014-0.856,0.929-1.174,1.272c-0.314,0.336-14.407,7.865-19.119,12.229
		c-5.32,4.92-15.31,19.025-16.982,21.866C181.146,66.538,161.703,83.371,161.703,83.371z"/>
	<path d="M218.933,29.587l3.923,5.628c0,0,1.973-1.687,1.877-2.02c-0.1-0.354-4.032-4.894-4.626-4.875
		C219.513,28.349,218.933,29.587,218.933,29.587z"/>
	<polygon points="182.422,64.245 185.369,66.896 164.508,85.714 161.703,83.371 	"/>
	<path d="M136.077,82.899c0,0-1.794,0.115-1.518,1.259c0.456,1.78,3.317,2.907,4.436,2.009c1.116-0.899,2.161-2.022,1.952-3.526
		c-0.195-1.491-1.137-0.995-1.137-0.995s-7.897-26.065-7.803-27.043c0.192-1.857-0.254-18.453-2.123-25.118
		c-1.855-6.646-9.778-22.415-9.778-22.415s-0.546-2.366-1.034-2.58c-0.499-0.228-7.006,1.337-7.147,1.595
		c-0.149,0.271,0.471,1.19,0.631,1.62c0.188,0.429,0.366,16.182,2.229,22.351c2.115,6.946,10.847,22.362,12.771,25.177
		C129.495,58.052,136.077,82.899,136.077,82.899z"/>
	<path fill="#FF0000" d="M112.556,7.706l7.551-0.635c0,0-0.647-2.498-1.034-2.58c-0.391-0.089-6.872,1.081-7.147,1.595
		C111.617,6.612,112.556,7.706,112.556,7.706z"/>
	<polygon fill="#FF0000" points="127.889,55.852 132.008,54.603 139.811,81.646 136.077,82.899 	"/>
	<path fill="#245977" d="M137.134,69.255c0.036,0.109,0.072,0.225,0.113,0.337c-0.739-0.029-2.394-0.119-2.981,0.374
		c-1.562,1.305,1.281,1.592,2.365,1.463c-0.727,0.529-1.575,0.837-1.603,1.812c0.543,0.34,1.184,0.567,1.805,0.482
		c-0.65,0.479-1.091,1.14-1.239,1.936c0.483,0.4,1.188,0.486,1.742,0.351c-0.962,2.835,0.588,1.923,2.789,2.016
		c1.557-2.476,0.354-7.102-2.779-8.324"/>
	<path fill="#245977" d="M162.742,79.614c1.025,0.665,2.529,2.098,3.766,2.423c0.534-0.731,0.852-1.537,0.231-2.306
		c0.105,0.577,0.515,0.961,1.177,0.964c0.732-0.714-0.027-1.6-0.391-2.326c0.242,0.33,0.76,0.549,1.081,0.737
		c0.372-0.572,0.558-1.227,0.944-1.795c0.225,0.411,0.635,0.661,1.174,0.708c0.396-0.661,0.732-1.404,0.927-2.129
		c-1.317-0.941-1.728-2.277-3.699-2.531c-1.57-0.197-3.143,0.457-4.36,1.329c-1.169,0.839-1.998,1.953-1.714,3.419
		c0.281,1.385,2.204,2.055,2.059,3.42"/>
	<path d="M128.701,124.707c-0.781-0.386-1.219-1.057-1.609-1.767c-0.225-0.413-0.674-1.573-1.16-1.751
		c-0.274,0.938-0.936,1.622-1.398,2.464c-0.44,0.8-0.839,1.623-1.277,2.409c-1.068,1.895-1.943,3.862-2.867,5.826
		c-0.5,1.047-1.512,1.603-2.36,2.412c-0.817,0.776-1.729,1.417-2.594,2.114c-0.272,0.225-0.509,0.562-0.632,0.866
		c-0.203,0.506-0.281,1.064-0.386,1.583c-0.238,1.12-0.741,2.204-0.984,3.324c-0.481,2.145-0.501,4.313-0.97,6.451
		c-0.473,2.127-0.869,4.252-1.296,6.394c-0.373,1.88-0.901,3.754-1.214,5.645c-0.196,1.169-0.49,2.313-0.766,3.469
		c-0.131,0.548-0.47,1.279-0.344,1.844c0.654,0.072,1.405,0.047,2.062,0.021c3.137-0.096,6.286-0.569,9.405-0.886
		c4.418-0.443,8.883-0.637,13.322-0.562c4.516,0.089,9.036,0.469,13.549,0.452c1.624-0.003,3.226,0.086,4.838,0.119
		c2.191,0.046,4.378-0.057,6.56,0.077c4.479,0.284,8.985,0.293,13.472,0.547c1.445,0.087,2.944,0.024,4.383,0.162
		c0.783,0.076,1.579,0.027,2.365,0.112c0.808,0.093,1.659,0.275,2.475,0.183c0.127-0.403-0.178-1.038-0.253-1.441
		c-0.271-1.401-0.88-2.732-1.272-4.124c-0.619-2.177-1.7-4.22-2.376-6.381c-0.876-2.782-1.521-5.584-2.562-8.323
		c-0.555-1.483-1.38-2.853-2.269-4.193c-1.098-1.649-2.007-3.325-2.805-5.113c-1.288-2.898-3.251-5.618-5.131-8.232
		c-0.357-0.499-1.091-1.605-1.773-1.804c-0.59-0.172-1.553-0.02-2.131,0.116c-2.258,0.529-4.582,0.581-6.914,0.529
		c-1.365-0.03-3.058-0.38-3.482-1.754c-0.192-0.645-0.251-1.342-0.249-2.007c0-0.542-0.158-1.024-0.217-1.539
		c-0.073-0.628-0.073-1.24-0.163-1.861c-0.826-0.194-1.658-0.201-2.497-0.34c-0.966-0.168-1.892-0.383-2.847-0.588
		c-0.462-0.1-0.925-0.083-1.396-0.186c-0.546-0.129-1.065-0.33-1.593-0.512c-0.682-0.231-1.379-0.552-1.979-0.932
		c-0.406-0.248-1.333-0.936-1.854-0.566c-0.162,0.113-0.188,0.539-0.212,0.71c-0.062,0.397-0.052,0.804-0.122,1.203
		c-0.313,1.854-0.805,3.764-1.632,5.481c-0.234,0.482-0.691,0.78-1.16,1.115c-0.647,0.458-1.825,0.475-2.558,0.205
		C130.794,125.302,129.702,125.206,128.701,124.707z"/>
	<path fill="#245977" d="M126.082,238.087c0.132,0.76,2.004,2.448,3.409,2.574c1.298,0.109,2.672,0,3.975,0
		c4.411,0,8.476,0.617,12.799,1.156c8.727,1.07,16.281,2.197,24.602-0.734c0.381-2.353,0.086-4.943,0.097-7.342
		c0.02-2.961-1.076-17.798-2.254-21.945c-1.302-4.58-2.68-9.543-3.299-14.226c-1.64-12.514-2.444-25.54-3.054-38.097
		c-5.163-0.594-11.317-0.264-16.39,0.41c-2.852,0.38-5.66,1.256-8.52,1.573c-2.436,0.261-4.844,0.308-7.306,0.588
		c-0.412,2.945,0.148,5.839,0.486,8.665c0.334,2.848,0,5.885,0,8.747c0,6.392,0,12.772,0,19.156c0,6.962-0.909,13.578-1.137,20.435
		c-0.116,3.414-0.188,16.113-1.707,16.982L126.082,238.087z"/>
	<path d="M148.69,231.167c-0.659-0.4-0.493-1.163-0.399-1.778c0.399-0.069,0.724-0.264,0.978-0.568
		c-0.551-0.225-1.183-0.344-1.834-0.208c-0.106,0.75,0.098,1.767,0.237,2.015C147.672,230.628,148.157,230.836,148.69,231.167z"/>
	<path d="M152.526,109.658c-1.005-0.995-1.067-2.164-2.739-2.224c-1.242-0.04-2.436,0.447-3.387,1.213
		c-0.242,0.201-0.629,0.638-0.968,0.667c-0.41,0.033-0.399-0.549-0.321-0.823c-0.388,0.083-0.588,0.615-0.536,0.972
		c0.011,0.087,0.04,0.143,0.084,0.183h0.006l-0.003,0.006c-0.944-0.647-1.054-1.728-2.337-2.271
		c-1.189-0.495-2.303-0.402-3.426,0.136c-1.042,0.506-2.118,1.537-3.293,1.627c-1.113,0.082-2.669-1.759-1.126-1.824
		c-1.673-0.288-1.689,1.952-0.893,2.851c1.024,1.144,2.823,0.93,4.079,0.456c1.493-0.565,2.051-1.031,3.614-0.703
		c0.823,0.175,2.934,0.688,3.499-0.255c0.208,0.072,0.533-0.022,0.738,0.03c0.169,0.042,0.304,0.155,0.481,0.195
		c0.234,0.05,0.483,0.061,0.721,0.092c0.837,0.103,1.691,0.238,2.538,0.236c1.093-0.004,1.707,0.062,2.644,0.456
		c1.428,0.598,4.097,1.302,4.607-0.839C155.655,111.079,153.441,110.56,152.526,109.658z M144.685,109.671
		c-0.006-0.006-0.012-0.014-0.012-0.014c0.019-0.006,0.017-0.006,0.039-0.006l0.052,0.014
		C144.741,109.668,144.741,109.668,144.685,109.671z"/>
	<path d="M143.482,106.896c-0.066-0.406,0.687-1.063,0.614-0.317c-0.013,0.162-0.123,0.556-0.317,0.607
		c-0.354,0.086-0.176-0.317-0.176-0.482"/>
	<path d="M145.703,106.086c0.297,0.264,0.165,0.578,0.178,0.918c-0.631,0.148-0.628-0.456-0.538-0.849
		c0.05,0.003,0.132-0.03,0.176-0.069"/>
	<path d="M141.271,98.76l0.163,0.08c0.033-0.169-0.046-0.447-0.063-0.628c-0.022-0.311-0.082-0.622-0.139-0.932
		c-0.082-0.506-0.231-1.054-0.417-1.504c0.005,0.242,0.041,0.543-0.01,0.78c-0.181-0.152-0.188-0.456-0.279-0.678
		c-0.092-0.211-0.265-0.555-0.437-0.674c-0.076,0.262,0.079,0.572,0.043,0.856c-0.414-0.072-0.351-0.995-0.851-1.042
		c-0.076,0.285,0.146,0.622,0.109,0.922c-0.445-0.073-0.941-0.618-1.404-0.548c-0.017,0.158-0.025,0.324,0.046,0.465
		c-0.175-0.125-0.294-0.31-0.501-0.399c-0.229-0.096-0.516-0.128-0.758-0.135c-0.574-0.02-1.141,0.076-1.685,0.261
		c-0.489,0.171-0.991,0.244-1.48,0.403c-0.159,0.053-0.359,0.075-0.502,0.151c-0.119,0.06-0.175,0.152-0.304,0.182
		c-0.041,0.37,0.637,1.058,0.918,1.269c0.252,0.199,0.595,0.311,0.905,0.358c0.166,0.145,0.371,0.264,0.575,0.29
		c0.196-0.227,0.457-0.4,0.741-0.542c0.363-0.096,0.729-0.178,1.089-0.311c0.172-0.06,0.351-0.072,0.523-0.115
		c0.266-0.017,0.528-0.027,0.772-0.01c0.604,0.04,1.209,0.347,1.777,0.552c0.258,0.088,0.401,0.24,0.542,0.396
		c0.029,0.053,0.047,0.116,0.047,0.261l0.551,0.274l0.026,0.026V98.76z"/>
	<path d="M151.677,101.123l-0.168-0.02c-0.003,0.006-0.01,0.006-0.01,0.006C151.552,101.126,151.617,101.136,151.677,101.123z"/>
	<path d="M160.807,99.904c-0.055-0.086-0.224-0.192-0.31-0.261c-0.407-0.324-0.962-0.485-1.44-0.68
		c-0.721-0.298-1.474-0.552-2.251-0.552c-0.337,0-0.667-0.01-0.991-0.046c-0.176-0.024-0.4-0.043-0.575-0.017
		c-0.131,0.017-0.274,0.105-0.41,0.049c0.071-0.146,0.321-0.099,0.296-0.284c-0.229-0.037-0.565-0.05-0.791,0
		c-0.18,0.042-0.426,0.231-0.613,0.162c-0.021-0.278,0.438-0.417,0.481-0.661c-0.413,0.092-0.915,0.509-1.209,0.803
		c0.062-0.191,0.172-0.399,0.221-0.608c-0.229,0.092-0.453,0.308-0.62,0.469c-0.093,0.09-0.203,0.288-0.354,0.248
		c-0.044-0.172,0.086-0.313,0.047-0.482c-0.219,0.069-0.404,0.317-0.532,0.502c-0.062,0.092-0.202,0.541-0.324,0.555
		c-0.271,0.02-0.195-1.09-0.183-1.288c-0.204,0.257-0.3,0.687-0.39,1c-0.076,0.278-0.108,0.479-0.108,0.766
		c0,0.129,0.022,0.301,0.038,0.47c-0.021,0.063-0.021,0.155,0.011,0.291c0,0,0.013,0.017,0.013,0.029
		c0.04,0.195,0.133,0.337,0.215,0.482c0.034,0.175-0.035,0.308,0.11,0.45c0.04-0.087,0.114-0.145,0.171-0.222l0.202,0.023
		c0.307-0.532,1.041-0.535,1.587-0.535c0.745,0,1.503-0.123,2.249-0.218c0.304,0.057,0.611,0.099,0.926,0.211
		c0.827,0.3,1.655,0.688,2.377,1.15c0.508,0.324,0.878,0.71,1.31,1.064c-0.078-0.208-0.131-0.423-0.185-0.637
		c0.076-0.225,0.192-0.44,0.294-0.645c0.202-0.423,0.377-0.863,0.662-1.219C160.9,100.062,160.937,100.112,160.807,99.904z"/>
	<path d="M128.234,363.353c5.572,0,10.692-0.453,15.679-1.229c0.603,4.14-0.099,8.572-0.562,12.405
		c-0.257,2.138,0.227,4.174-0.463,6.12c-0.7,1.979-1.387,3.429-1.641,5.739c-0.23,2.036-0.863,4.405-1.316,6.434
		c-0.254,1.144-0.869,4.389-1.977,5.297c-1.45,1.196-4.64,1.828-6.482,2.598c-1.9,0.796-3.758,1.5-5.728,2.287
		c-3.563,1.424-6.753,4.272-10.677,4.458c-3.468,0.161-7.666-1.377-9.375-4.458c-1.564-2.809-3.954-7.683-2.319-10.657
		c1.828-3.331,8.836-5.178,11.874-2.257c3.199-3.103,5.482-7.075,9.017-9.785c2.369-1.814,2.405-3.999,2.03-7.115
		c-0.218-1.774-1.981-6.642-0.033-7.865L128.234,363.353z"/>
	<path d="M147.435,368.167c-0.548,1.606-0.238,4.56-0.741,6.256c-0.355,0.096-0.565,4.229-0.926,4.295
		c-0.59,3.916-2.784,5.598-2.748,7.488c0.033,1.89,4.844,9.048,4.844,9.048s9.049,9.702,13.8,13.819
		c2.049,1.781,4.125,3.833,6.435,5.284c2.145,1.348,4.27,1.529,6.546,2.104c2.967,0.75,4.316,1.623,7.22,0.512
		c2.27-0.865,4.518-2.17,6.744-2.977c4.527-1.642,9.022-3.089,6.272-9.2c-0.84-1.863-2.241-4.306-4.409-4.804
		c-2.771-0.638-5.032,1.265-7.967,0.215c-4.139-1.481-8.155-4.957-11.971-7.27c-1.87-1.137-5.264-3.278-6.934-4.904
		c-1.673-1.623-0.387-5.257-0.185-7.881c0.337-4.461,4.434-8.535-1.934-9.077c-2.588-0.219-1.874-2.704-4.177-3.004
		C157.305,368.071,149.648,367.439,147.435,368.167z"/>
	<g>
		<path d="M122.282,242.265c-0.483,1.041-0.944,2.098-1.391,3.167c-1.378,3.293-3.003,6.48-4.298,9.815
			c-0.654,1.682-1.205,3.541-1.683,5.289c-1.05,3.852-1.645,8.385,1.181,11.7c3.047,3.578,9.35,7.048,14.435,5.706
			c5.138-1.348,11.523-3.998,14.34-9.604c0.719,0.178,0.993,1.727,1.431,2.376c0.759,1.11,1.863,1.98,2.908,2.746
			c2.437,1.8,4.63,3.777,7.851,4.399c6.832,1.311,17.403-0.712,21.214-9.563c3.72-8.629,2.604-18.085-1.418-24.834
			c-2.151-3.601-5.408-11.476-10.658-9.676c-2.522,0.866-4.619,2.284-7.405,2.315c-3.066,0.034-6.346-0.989-9.298-1.733
			c-2.693-0.68-6.012-0.684-8.82-0.738c-1.671-0.032-3.062-0.563-4.633-0.748c-1.524-0.179-3.111-0.006-4.635-0.187
			c-2.107-0.25-2.466-0.621-3.89,1.156c-0.692,0.862-1.517,1.68-2.103,2.604C124.238,238.307,123.218,240.255,122.282,242.265z"/>
		<path fill="#FF0000" d="M114.869,269.068c-1.457,0.217-4.516,2.547-4.611,4.38c-0.065,1.048,1.543,1.634,2.318,1.708
			c1.334,0.133,1.045-0.337,2.243-1.093c-0.666,1.06-0.778,2.628-0.599,3.72c0.391,2.362,0.705,0.628,2.051-0.109
			c1.684-0.932,0.583,0.39,1.332,1.31c0.979,1.195,1.396-0.209,2.292-0.807c-0.636,2.185,1.2,3.136,2.251,0.794
			c0.48,1.092,0.812,4.314,2.688,1.858c0.161,0.939,0.007,3.184,1.573,2.482c0.884-0.394,1.339-2.162,1.694-2.968
			c-0.334,0.495-0.761,1.616-0.142,1.904c0.739,0.338,1.557-1.537,1.951-2.077c-0.143,0.614,0.009,1.647,0.65,1.775
			c0.823,0.168,2.021-2.151,2.444-2.666c0.022,0.498-0.012,1.877,0.549,2.104c1.104,0.432,2.752-2.089,3.026-2.96
			c-0.597,2.926,3.853,0.862,2.548-1.875c-0.26,0.929,0.272,2.003,1.259,1.839c1.148-0.199,1.504-1.975,2.044-2.81
			c0.144,0.302,0.539,0.375,0.676,0.549c0.727-0.844,0.46-2.323,0.089-3.098c-0.463-0.971-0.629-1.034-1.705-1.071
			c-1.829-0.05-2.679,0.843-4.554,1.656c-2.928,1.271-5.994,2.164-8.941,2.113c-2.795-0.058-5.07-1.005-7.371-2.215
			c-1.199-0.63-2.471-0.828-3.502-1.609c-0.775-0.58-2.102-2.35-3.154-2.262c-0.707,1.267,1.032,1.772,1.952,1.017"/>
		<path fill="#FF0000" d="M152.984,275.194c1.556,0.554,2.993,1.238,4.72,1.166c1.827-0.081,3.562-0.178,5.37-0.327
			c1.681-0.146,3.098-0.707,4.756-1.377c1.457-0.586,3.255-0.966,4.605-1.915c1.269-0.896,3.021-3.073,3.725-4.364
			c0.709-1.287,1.651-4.417,3.079-4.126c0.822,0.167,2.01,2.805,2.035,3.778c0.069,2.402-3.401,3.831-2.863,0.846
			c0.415,1.71,0.787,4.001-0.501,5.742c-0.403-0.174-0.688-0.562-0.821-1.023c-0.579,0.965-0.88,2.084-1.464,3.051
			c-0.386-0.356-0.549-1.032-0.537-1.652c-0.564,0.935-0.874,2.051-1.424,2.993c-0.314-0.25-0.471-0.7-0.479-1.208
			c-0.572,1.771-2.632,4.264-3.565,1.986c-0.423,0.432-1.122,2.001-1.645,2.065c-1.027,0.131-0.446-1.844-1.046-2.302
			c-0.218,0.546-1.194,2.445-1.818,2.511c-0.879,0.095-0.89-1.399-1.192-1.969c-0.948,2.108-2.511,3.526-2.843,0.748
			c-0.546,0.743-1.031,1.892-1.812,2.425c-0.468-0.277-0.473-0.951-0.655-1.382c-0.28,0.648-1.235,2.199-1.987,2.232
			c-0.997,0.056-0.831-1.211-0.224-2.097c-1.504,2.859-3.35-0.347-1.187-1.206c-0.73,0.514-2.159,1.568-2.947,1.204
			c-0.866-0.394-0.271-1.659-0.284-2.483c-0.585,0.904-2.026,2.646-2.876,1.745c0.271-0.869,0.574-2.14,1.53-2.192
			c-0.162,0.817-1.35,1.88-1.562,0.65c-0.071-0.396,0.915-2.569,1.236-2.856c0.858-0.766,3.467-1.253,3.881-0.235"/>
	</g>
</g>
</svg>
