<?xml version="1.0" encoding="utf-8"?>
<!-- Generator: Adobe Illustrator 16.0.4, SVG Export Plug-In . SVG Version: 6.00 Build 0)  -->
<!DOCTYPE svg PUBLIC "-//W3C//DTD SVG 1.1//EN" "http://www.w3.org/Graphics/SVG/1.1/DTD/svg11.dtd">
<svg version="1.1" id="Ebene_1" xmlns="http://www.w3.org/2000/svg" xmlns:xlink="http://www.w3.org/1999/xlink" x="0px" y="0px"
	 width="283.46px" height="425.2px" viewBox="0 0 283.46 425.2" enable-background="new 0 0 283.46 425.2" xml:space="preserve">
<g>
	<g>
		<path d="M158.92,98.038c-1.354-1.4-5.709,0.514-7.787,0.201c-0.71,3.661-6.643,9.213-8.848,12.188
			c-3.698,4.985-6.977,11.206-9.453,16.969c-4.617,10.661-29.202,29.911-34.762,39.95c6.448,5.52,26.734,7.973,26.734,7.973
			l27.723-2.381l10.324-17.921c0,0-3.955-44.465-3.955-55.312L158.92,98.038z"/>
		<path d="M169.417,84.941c1.122-0.132,2.29,0.139,3.403-0.032c-0.678-0.772-2.017-1.154-2.906-1.884
			c-0.762-0.639-1.619-2.042-2.373-2.416c-0.717,0.546-2.461,1.185-2.928,1.893c-1.092,1.684-1.559,3.475-2.984,4.884
			c-1.354,1.348-2.296,3.458-3.169,5.124c-0.825,1.58-1.479,3.318-1.938,5.132c-0.459,1.782-0.297,3.737-0.779,5.575
			c-1.02,3.838-2.67,7.593-3.846,11.423c-2.003,6.542-4.151,13.542-4.151,20.428c0,1.627-0.171,2.233,1.323,3.122
			c1.457,0.855,3.092,1.464,4.578,2.329c2.261,1.294,3.771,2.748,5.569,4.702c0.693,0.763,1.426,2.461,2.359,2.826
			c0.328-2.078,0.054-4.398,0.054-6.509c0-1.535,0.164-3.177,0.008-4.689c-0.342-3.215,0.11-6.493,0.53-9.695
			c0.343-2.592,1.442-5.169,2.687-7.608c0.584-1.136,1.316-2.243,1.892-3.401c0.53-1.083,1.106-2.655,2.399-2.974
			c0.016-0.603-0.49-1.067-0.765-1.59c-0.302-0.592-0.35-1.082-0.418-1.768c-0.141-1.448,0-2.951,0-4.392
			c0-2.819-0.203-5.91,0.497-8.52c0.328-1.247,0.234-2.632,0.482-3.91c0.227-1.198,0.624-3.331,0.186-4.579
			C168.787,87.454,168.156,85.103,169.417,84.941z"/>
		<path d="M170.639,85.852c0.811,0.981,1.224,2.842,1.77,4.048c0.872,1.924,1.922,3.677,2.981,5.568
			c1.885,3.372,3.691,6.962,5.499,10.521c3.449,6.892,4.056,15.785,8.628,21.859c-0.468-10.467-0.679-21.438-0.679-32.246
			c0-2.61,0.008-5.201,0-7.796c-0.016-2.927-0.771-5.592,2.602-4.556c3.754,1.168,6.215,5.912,8.916,8.614
			c2.219,2.218,3.123,2.469,1.948,5.534c-0.866,2.229-1.411,3.972-1.154,6.619c0.593,6.011,0.678,12.072,0.678,18.224
			c0,9.749,2.111,22.645-2.062,31.055c-3.793,0.834-5.872-2.134-8.458-4.414c-4.103-3.605-6.65-7.157-9.812-11.597
			c-3.512-4.93-6.729-10.076-10.373-14.921c-1.761-2.352-4.368-3.894-6.159-6.135c-1.885-2.36-1.69-5.007-1.465-8.154
			c0.32-4.353,1.225-9.023,1.908-13.315c0.531-3.287,1.542-7.49,1.426-10.753c1.574-0.181,5.03-0.812,4.461,1.845"/>
	</g>
	<path fill="#245977" d="M160.734,65.542c0.124,0.077,0.171,0.179,0.143,0.297c-0.602,0.505-1.186,1.034-1.793,1.532
		c-0.297,0.251-0.607,0.484-0.928,0.694c-0.278,0.185-0.537,0.194-0.848,0.272c-0.201,0.046-0.483,0.062-0.687,0.03
		c-0.311-0.03-0.606-0.28-0.841-0.46c-0.219-0.163-0.451-0.396-0.6-0.615c-0.125-0.17-0.226-0.348-0.367-0.497
		c-0.028-0.031-0.107-0.131-0.107-0.131c-0.14-0.049-0.156,0.052-0.227,0.146c-0.396,0.592-0.693,1.294-1.043,1.917
		c-0.232,0.405-0.523,0.81-0.592,1.293c-0.07,0.444-0.397,0.84-0.639,1.214c-0.59,0.919-1.207,1.821-1.761,2.765
		c-0.085,0.163-0.179,0.319-0.271,0.484c-0.804,1.478-1.887,2.966-2.477,4.556c-0.562,1.492,0.537,2.801,1.51,3.93
		c0.475,0.554,0.967,1.129,1.449,1.705c0.428,0.499,0.824,1.144,1.473,1.379c1.532,0.57,3.432-1.471,4.711-2.148
		c1.978-1.051,4.08-2.048,5.84-3.451c0.264-0.202,0.529-0.379,0.732-0.638c0.217-0.281,0.568-0.459,0.824-0.691
		c0.219-0.205,0.452-0.352,0.688-0.538c0.271-0.219,0.521-0.483,0.808-0.67c0.134-0.086,0.265-0.069,0.404-0.133
		c-0.163-0.312-0.404-0.568-0.591-0.863c-0.256-0.414-0.515-0.826-0.764-1.247c-0.303-0.528-0.529-1.176-0.458-1.793
		c0.085-0.69,0.801-0.956,1.252-1.392c0.181-0.188,0.36-0.381,0.561-0.568c0.079-0.071,0.235-0.171,0.235-0.287
		c0-0.071-0.117-0.212-0.164-0.268c-0.28-0.38-0.646-0.684-0.918-1.057c-0.592-0.802-1.137-1.644-1.637-2.493
		c-0.271-0.491-0.545-0.987-0.848-1.456c-0.279-0.458-0.882-0.825-1.076-1.263c0.094-0.052,0.194-0.062,0.312-0.046"/>
	<path fill="#FFFFFF" d="M96.926,365.389c2.477,0.335,2.679,7.74,3.582,9.394c4.393-0.874,10.792-0.812,15.544,0.045
		c0.265-1.151-2.392-8.769-3.052-9.834c-1.176-1.939-1.443-2.354-3.771-2.375c-3.518-0.04-7.21,1.073-10.207,2.46
		c-0.297-0.172-1.186,0.03-0.897-0.187"/>
	<path d="M103.887,368.129c0.926,0.416,1.939,0.813,2.945,0.99c1.775,0.289,6.346-0.28,7.848-0.927
		c0.211-0.077,4.83,1.745,5.343,2.055c0.157-0.161,0.358-2.693,0.585-2.848c0.146-0.118,0.607-0.118,0.771-0.11
		c-0.032,0.055-1.955,8.66-1.73,9.415c0.18,0.677,11.829,19.009,11.727,19.707c-0.022,0.259-1.012,4.893-1.174,5.251
		c-0.141,0.312-0.109,0.655-0.562,0.7c-0.35,0.048-5.848-3.465-7.575-4.695c-0.997-0.692-13.456-12.421-13.761-13.076
		c-0.188-0.363-2.539-2.507-2.655-2.507c-0.265,0.007-2.929,2.797-3.247,2.881c-0.272,0.058-8.939-7.085-9.492-7.475
		c-0.172-0.14-0.414-0.293-0.585-0.427c-0.14-0.165,1.371-2.655,1.426-2.86c0.061-0.216-0.374-2.936-0.233-4.057
		c0.046-0.554,4.314-5.123,4.679-5.317C98.413,364.704,103.085,367.771,103.887,368.129z"/>
	<g>
		<path d="M103.115,163.101l-0.211,0.208c0.065-0.003,0.131-0.006,0.197-0.014C103.133,163.232,103.139,163.169,103.115,163.101z"/>
		<path d="M113.053,362.232c2.441-0.52,6.219-1.21,7-2.184c-1.324-2.331-1.588-5.28-2.296-7.907
			c-1.044-3.853-2.414-7.613-3.854-11.405c-1.73-4.55-2.993-9.204-4.409-13.824c-0.372-4.465-0.708-8.298-0.933-10.351
			c-0.686-6.268-0.344-34.792-0.344-34.792l1.122-14.062l-3.831-14.556c0,0-6.238-52.967-8.926-75.467
			c0.348-1.2,0.728-2.39,1.068-3.595c0.615-2.213,1.518-4.441,2.5-6.521c0.528-1.111,1.144-2.173,1.868-3.161
			c0.155-0.219,0.7-0.614,0.663-0.879l0.223-0.221c-0.746,0.037-1.541-0.218-2.271-0.324c-0.928-0.126-1.775-0.531-2.665-0.826
			c-1.346-0.453-2.605-0.964-3.948-1.3c-0.833-0.845-2.015-1.386-2.856-2.095c-4.073-3.404-7.538-8.187-11.416-12.049
			c-2.771-2.762-6.137-8.533-8.651-11.461c-1.503-1.829-6.876-3.568-6.876-3.568s-8.457,8.736-9.922,10.754
			c-3.1,4.378-5.062,9.393-6.315,14.563c-2.585,10.442-2.499,22.528-1.146,33.376c1.535,12.188,17.741,84.009,18.193,85.56
			c0.668,2.28,2.989,15.622,2.897,14.995c0,0,1.338,11.292,1.891,12.827c1.081,3.069,2.032,6.036,2.936,9.127
			c0.405,1.382,0.79,2.758,1.163,4.129c0.543,3.084,0.998,5.604,1.291,7.008c1.199,5.784,4.921,28.694,6.291,34.162
			c0.179,0.729,1.495,1.509,3.509,2.29c0.428,2.504,0.26,4.264,3.719,5.005c4.049,0.858,8.286,0.047,12.295-0.637
			c0.205-0.035,0.407-0.069,0.611-0.104c6.397,1.257,12.135,2.114,13.328,2.144C114.1,365.571,113.496,363.958,113.053,362.232z"/>
	</g>
	<path fill="#FFFFFF" d="M119.758,154.745c0,0-11.479,8.113-12.242,8.262c-14.023,2.733-24.343-8.355-21.938-11.432
		c0.47-0.6,40.627-66.533,53.135-79.048c2.437-2.453,20.036,23.136,20.636,23.97c0.217,0.342-4.339,1.626-4.128,2.157
		c-1.169,1.696-2.5,3.411-2.858,5.434C152.292,104.501,119.758,154.745,119.758,154.745z"/>
	<path fill="none" d="M187.227,91.684c0,0.054,0,0.149,0,0.227"/>
	<g>
		<path fill="#FFFFFF" d="M131.658,92.26c0.201,0,0.201,0.024,0.029,0.024c-0.7-0.272-1.572-1.237-2.133-1.675
			c-0.227,1.486,0.294,1.479,1.34,2.181c0.342,0.24,0.536,0.842,1.02,0.716c0.577-0.163,0.693-0.996,0.233-1.246"/>
		<path fill="#FFFFFF" d="M125.24,101.754c0.187,0,0.203,0.006,0.023,0.006c-0.693-0.271-1.58-1.231-2.15-1.682
			c-0.209,1.488,0.289,1.488,1.34,2.212c0.344,0.201,0.521,0.816,1.021,0.67c0.585-0.141,0.708-0.982,0.249-1.206"/>
		<path fill="#FFFFFF" d="M118.076,111.743c0.188,0,0.188,0.024,0.03,0.024c-0.685-0.266-1.587-1.23-2.147-1.676
			c-0.228,1.488,0.285,1.48,1.338,2.197c0.326,0.226,0.506,0.811,1.029,0.691c0.567-0.163,0.684-0.995,0.23-1.237"/>
		<path fill="#FFFFFF" d="M110.143,120.745c0.17,0,0.21,0,0.021,0.017c-0.685-0.251-1.548-1.199-2.103-1.645
			c-0.202,1.449,0.297,1.449,1.311,2.152c0.342,0.216,0.498,0.784,0.986,0.666c0.569-0.14,0.678-0.957,0.242-1.19"/>
		<path fill="#FFFFFF" d="M104.564,130.113c0.179,0,0.195,0,0.008,0c-0.662-0.24-1.527-1.207-2.078-1.619
			c-0.21,1.44,0.287,1.417,1.301,2.143c0.342,0.224,0.512,0.778,1.012,0.659c0.561-0.138,0.669-0.964,0.217-1.183"/>
		<path fill="#FFFFFF" d="M97.643,140.681c0.202,0,0.202,0,0.029,0.007c-0.676-0.256-1.524-1.204-2.094-1.635
			c-0.211,1.458,0.281,1.447,1.316,2.143c0.319,0.226,0.49,0.801,0.996,0.67c0.569-0.141,0.662-0.958,0.219-1.185"/>
	</g>
	<path fill="none" d="M176.285,80.074c0,0,0.055-0.071,0.055-0.148"/>
	<path d="M138.486,55.965c0.896,0.762,1.893,0.943,2.865,1.518c1.098,0.64,2.11,1.518,3.225,2.134
		c1.962,1.097,5.037,3.036,7.67,6.789c1.697,2.797-7.516,11.347-8.41,15.389c-0.211,0.902-0.498,1.775-0.67,2.679
		c-0.203,1.021-0.062,2.117-0.35,3.099c-0.165,0.554-0.646,1.542-0.99,1.955c-0.318,0.397-0.529,0.36-0.903,0.554
		c-0.187,0.094-1.12,0.669-1.276,0.685c-0.763,0.062-2.826-2.071-3.371-2.478c-1.277-0.958-2.461-1.727-3.606-2.872
		c-1.036-1.052-1.954-2.188-3.03-3.208c-1.571-1.519-3.354-2.704-4.539-4.558c-0.577-0.869-1.309-1.634-1.9-2.49
		c-0.823-1.183-1.387-2.204-1.276-3.667c0.163-2.484,2.46-4.814,4.292-6.396c2.42-2.079,5.1-3.845,7.811-5.48
		c0.545-0.319,2.615-1.208,2.506-1.94"/>
	<path fill="#FFFFFF" d="M169.332,80.298c-0.996-1.354-2.634-3.083-3.707-4.376c-0.271-0.327-4.875,3.544-5.576,3.91
		c-1.761,0.949-10.381,5.562-10.691,5.84c-0.148-0.841,1.145-6.753,1.393-7.508c0.28-0.77,0.523-1.684,0.623-2.468
		c0.158-1.324,3.777-8.325,4.098-8.716c0.311-0.505,0.623-1.142,0.623-1.142s-2.336-0.297-3.475-0.288
		c-1.151,0.015-11.773,5.047-11.852,7.086c1.028-0.287,2.359-0.764,3.342-0.329c1.058,0.468,0.801,1.652,0.467,2.555
		c-0.477,1.245-1.098,2.445-1.621,3.685c-0.419,0.973-0.886,2.125-1.658,2.935c-0.008,0.016,0,0.041-0.008,0.062
		c-0.404,1.403-1.059,2.727-1.713,4.025c-0.941,1.885-1.838,3.886-3.014,5.631c-0.577,0.85-0.998,1.91-1.479,2.827
		c-0.39,0.739-0.787,1.527-1.074,2.313c-0.677,1.898-1.705,3.669-2.493,5.521c-0.576,1.402-1.393,2.672-1.992,4.051
		c-0.561,1.275-1.021,2.593-1.527,3.876c-0.304,0.819-0.786,1.808-0.731,2.696c0.048,0.645,0.233,1.41,0.382,2.038
		c0.287,1.269,1.113,2.657,2.103,3.537c0.569,0.506,1.799,1.044,2.522,0.612c0.281-0.17,0.475-0.48,0.726-0.698
		c0.435-0.398,0.958-0.593,1.47-0.857c0.959-0.482,1.908-0.98,2.797-1.565c1.036-0.645,2.072-1.224,3.178-1.752
		c0.669-0.325,1.309-0.629,1.82-1.192c0.851-0.94,1.371-2.296,1.924-3.433c0.336-0.717,0.554-1.354,1.122-1.931
		c0.958-0.952,1.985-1.815,2.92-2.788c0.96-1.012,1.745-2.072,2.585-3.177c0.477-0.631,0.795-1.355,1.348-1.925
		c0.468-0.476,0.888-0.856,1.285-1.401c0.227-0.311,4.11-1.409,4.564-2.158c1.213-1.993,3.005-3.598,3.954-5.714
		c0.406-0.918,0.724-1.869,1.146-2.811c0.428-0.896,0.981-1.705,1.417-2.578c0.382-0.787,0.968-1.947,1.729-2.414
		c0.6-0.367,1.659-0.812,2.352-0.522c0.164,0.07,0.396,0.317,0.545,0.428c0.429,0.329,0.334,0.313,0.389,0.824
		c0.04,0.33,0.148,0.384,0,0.728c-0.116,0.293-0.318,0.527-0.442,0.84c0.613,0.008,1.353-1.285,1.3-1.814
		C170.312,81.834,169.877,81.054,169.332,80.298z"/>
	<g>
		<path d="M145.791,90.4c0.146,0,0.146,0,0.023,0c-1.036-0.102-1.402,2.538,0.148,2.437c0.614-0.038,0.941-0.569,1.097-1.138
			c0.194-0.739-0.241-1.191-0.786-1.619"/>
		<path d="M141.407,97.384c-0.39,0.327-1.839,0.817-0.982,1.752c0.825,0.88,1.698-0.707,0.825-1.269"/>
		<path d="M135.723,105.988c0.021,0.109,0.053,0.132,0.101,0.055c-0.756-0.91-1.868,0.437-1.239,1.253
			c0.328,0.444,0.989,0.444,1.324,0c0.343-0.474,0.141-1.198-0.186-1.626"/>
		<path d="M130.847,112.32c-0.241,0.366-0.888,0.529-0.981,1.145c-0.084,0.568,0.296,0.948,0.826,0.973
			c0.684,0.041,0.996-0.475,0.974-1.137c-0.032-0.708-0.366-0.74-0.974-0.98"/>
		<path d="M126.471,118.176c0.086,0.265-0.343,0.094-0.615,0.194c-0.344,0.125-0.646,0.399-0.865,0.739
			c-0.42,0.647-0.437,1.239,0.336,1.543c0.701,0.266,1.113-0.086,1.424-0.725c0.43-0.863-0.093-1.665-0.778-2.242"/>
		<path d="M120.451,124.828c0.038,0.045,0.068,0.092,0.117,0.13c-0.92,0.133-1.401,1.558-0.437,1.831
			c0.575,0.162,0.942-0.078,1.104-0.624c0.173-0.593-0.138-0.824-0.293-1.337"/>
		<path d="M114.609,131.002c0.07,0.201-0.178,0.015-0.334,0.319c-0.086,0.18-0.133,0.606-0.154,0.817
			c-0.055,0.562,0.232,1.401,0.987,1.145C116.348,132.864,115.646,131.158,114.609,131.002"/>
		<path d="M108.607,137.497c-0.873,0.318-0.616,1.978,0.481,1.346c1.114-0.647,0.095-1.587-0.81-1.51"/>
		<path d="M102.906,142.207c0.046,0.047,0.078,0.086,0.108,0.133c-0.6,0.298-1.542,1.387-1.12,2.032
			c0.934,1.419,2.662-1.626,1.183-1.839"/>
		<path d="M97.066,148.382c0.139,0.101,0.147,0.117,0.022,0.057c-1.112-0.392-1.753,1.788-0.349,1.891
			c0.723,0.056,1.096-0.45,1.26-1.137c0.234-0.896-0.18-0.958-0.934-0.973"/>
	</g>
	<path fill="#FFFFFF" d="M160.275,76.154"/>
	<path fill="#FF0000" d="M153.749,77.497c-0.016,0.047-0.047,0.067-0.093,0.053c0-0.172-0.056-0.396-0.094-0.577
		c-0.047-0.263-0.055-0.561,0.022-0.818c0.071-0.224,0.164-0.435,0.243-0.66c0.053-0.141,0.061-0.273,0.188-0.389
		c0.27-0.258,0.684-0.266,1.01-0.351c0.156-0.037,0.289-0.11,0.461-0.125c0.295-0.017,0.623,0.156,0.879,0.28
		c0.359,0.157,0.678,0.374,1.013,0.561c0.312,0.173,0.601,0.358,0.857,0.6c0.194,0.18,0.389,0.405,0.538,0.616
		c0.107,0.179,0.186,0.326,0.186,0.528c0,0.358,0.016,0.685-0.094,1.036c-0.155,0.444-0.482,0.817-0.67,1.262
		c-0.123,0.294-0.217,0.521-0.443,0.763c-0.102,0.115-0.211,0.241-0.318,0.364c-0.079,0.088-0.119,0.188-0.219,0.268
		c-0.156,0.131-0.373,0.106-0.576,0.054c-0.469-0.134-0.919-0.321-1.355-0.554c-0.443-0.241-0.871-0.498-1.138-0.934
		c-0.187-0.304-0.265-0.607-0.333-0.941c-0.041-0.212-0.11-0.43-0.156-0.646c-0.016-0.078-0.016-0.141-0.023-0.236
		c-0.023-0.192-0.048-0.162,0.084-0.312"/>
	<path fill="#FF0000" d="M152.869,72.015l-1.401,3.27c0,0,0.265,1.869,2.718,3.77c2.453,1.907,3.238,2.187,3.238,2.187
		s2.625-1.408,4.12-2.422c1.401-0.933-2.74,0.235-5.032-1.853C154.225,74.871,152.869,72.015,152.869,72.015z"/>
	<path fill="#FFFFFF" d="M87.005,360.443c0.794,0.849-0.491,2.042-0.156,2.907c0.576,0.106,1.153,0.92,1.582,1.305
		c0.693,0.647,1.284,1.312,2.095,1.841c0.832,0.536,1.798,0.842,2.709,1.23c0.889,0.381,1.682,0.864,2.57,1.207
		c1.705,0.631,3.473,1.362,5.179,1.556c0.981,0.103,1.977,0,2.935-0.108c0.756-0.085,2.08-0.039,2.648-0.59
		c-0.701,0.131-1.572-0.757-2.103-1.14c-0.709-0.528-1.292-1.034-1.636-1.836c-0.297-0.632-0.334-2.019-0.826-2.501
		c-0.132-0.115-1.26-0.303-1.51-0.382c-0.717-0.241-1.44-0.38-2.174-0.56c-2.102-0.522-4.181-1.082-6.221-1.705
		c-0.935-0.271-1.761-0.593-2.711-0.872c-0.529-0.142-1.072-0.109-1.617-0.212c-0.391-0.078-0.789-0.342-1.256-0.335
		c0.095,0.126,0.187,0.133,0.305,0.194"/>
	<path d="M94.013,365.967c0.903,0.81,1.885,1.627,2.976,2.204c1.883,0.988,7.273,2.125,9.234,2.007c0.266,0,4.797,3.746,5.272,4.276
		c0.232-0.109,1.426-2.779,1.737-2.866c0.209-0.077,0.73,0.101,0.926,0.18c-0.062,0.047-5.528,8.651-5.567,9.57
		c-0.047,0.796,6.16,25.206,5.771,25.939c-0.125,0.257-2.999,4.93-3.342,5.256c-0.272,0.289-0.373,0.661-0.901,0.546
		c-0.405-0.087-5.298-6.028-6.776-8.006c-0.871-1.15-10.496-18.698-10.605-19.516c-0.07-0.473-1.916-3.689-2.04-3.736
		c-0.312-0.094-4.393,1.907-4.781,1.877c-0.352-0.041-7.438-11.128-7.912-11.774c-0.142-0.219-0.357-0.469-0.499-0.686
		c-0.094-0.226,2.561-2.368,2.711-2.562c0.146-0.218,0.686-3.342,1.27-4.5c0.271-0.585,6.852-3.91,7.343-3.988
		C89.124,360.142,93.242,365.271,94.013,365.967z"/>
	<path fill="none" d="M145.285,39.471c0,0.023,0,0.037,0,0.061"/>
	<path fill="#FF0000" d="M174.604,105.147c0.009,0.063,0.047,0.095,0.07,0.148c0.008,0.062-0.016,0.132-0.008,0.187
		c0.016,0.125,0.047,0.257,0.062,0.367c0.031,0.271,0,0.583-0.023,0.854c-0.03,0.281-0.038,0.539-0.101,0.804
		c-0.07,0.294-0.086,0.567-0.117,0.856c-0.156,1.019-0.094,2.11-0.217,3.146c-0.063,0.522,0.178,1.682,0.178,2.227
		c0,0.53-0.304,0.368-0.365,0.889c-0.031,0.281-0.102,0.561-0.148,0.849c-0.016,0.117-0.039,0.243-0.18,0.243
		c-0.154,0.005-0.187-0.149-0.232-0.258c-0.117-0.211-0.234-0.336-0.125-0.592c0.077-0.228,0.686-2.998,0.747-3.475
		c0.032-0.239,0.032-0.497,0.032-0.731c0.015-0.24,0.03-0.483,0.03-0.733c0-0.241,0-0.489,0-0.729c0-0.148-0.03-0.281-0.03-0.421
		c0-0.171,0.039-0.413-0.057-0.555"/>
	<line fill="none" x1="172.688" y1="130.206" x2="172.703" y2="130.206"/>
	<g>
		<path d="M142.333,88.881l-0.022-0.055c-2.789-0.056-2.851-3.966-5.047-5.489c-2.601-1.762-3.862-2.368-5.327-5.017
			c-1.813-3.302-5.505-5.748-4.851-9.312c0.536-2.843,1.277-6.121,3.854-8.075c2.058-1.581,4.564-2.959,7.181-3.731
			c0.476-0.171,1.106-0.287,1.761-0.366c0-0.046,0.039-0.07,0.039-0.07c0.156,0.009,0.193,0,0.256,0
			c-3.621-2.452-12.863-2.437-12.863-2.437l-4.472,1.364l-4.228,0.731l-6.735,4.623L91.18,74.848L41.753,98.676
			c0,0,3.435,12.148,5.98,17.468c2.92,6.043,5.763,12.802,9.944,18.378c4.603,6.166,10.638,9.353,16.749,13.917
			c4.761,3.542,8.639,8.829,14.415,11.041c6.449-8.59,12.771-17.397,19.85-25.721c7.733-9.073,14.088-19.366,21.01-29.11
			c2.984-4.204,6.184-7.965,9.494-12.046c0.529-0.647,1.931-2.756,2.538-3.092c0.374-0.202,0.616-0.334,0.811-0.435
			C142.496,88.99,142.426,88.958,142.333,88.881z"/>
		<path d="M161.125,36.538c-0.967-3.187-2.14-6.311-3.438-9.373c-1.009,0.087-1.897,0.41-2.887,0.555
			c-1.479,0.218-2.989,0.062-4.485,0.251c-2.288,0.264-4.641,0.527-7.094,0.527c-1.564,0-3.053,0.139-4.604,0.264
			c-1.688,0.142-3.495,0.072-5.192,0.267c-2.796,0.303-5.692,0.334-8.458,0.81c-6.191,1.058-12.606,1.308-18.549,3.254
			c-6.922,2.258-14.227,2.462-21.109,4.93c-2.688,0.965-5.507,1.682-8.24,2.515c-1.644,0.5-3.925,0.866-4.86,2.54
			c-1.416,2.523,0.469,3.387,2.477,4.385c2.266,1.134,4.61,2.219,6.907,3.331c4.121,1.995,8.544,3.966,12.757,5.134
			c4.804,1.324,9.397,2.249,14.126,3.455c3.129,0.795,5.949,1.481,8.838,2.587c1.83,0.709,4.096,0.926,6.065,1.146
			c0.936,0.109,1.809-0.024,2.671-0.281c0.569-0.18,1.216-0.623,1.854-0.529l7.188-4.524c0.077,0.056,0.147,0.117,0.218,0.171
			c0.21-1.152-1.783-2.727-2.414-3.565c-0.747-1.029-1.035-2.539-2.063-3.326c-1.082-0.834-2.71-0.35-3.986-0.66
			c-0.64-0.143-1.177-0.507-1.808-0.671c-0.678-0.179-1.464-0.248-2.196-0.476c-2.661-0.786-5.66-1.254-8.519-1.597
			c-1.807-0.227-3.567-0.304-5.32-0.731c-1.36-0.326-2.381-0.584-3.907-0.584c2.023,0.124,4.134-0.849,6.034-1.342
			c1.729-0.441,3.465-0.451,5.249-0.731c5.397-0.831,10.816-1.221,16.175-1.72c2.903-0.256,5.816-0.499,8.721-0.74
			c1.706-0.156,3.42-0.124,5.101-0.271c1.48-0.141,2.928-0.258,4.424-0.258c2.25,0.008,4.204-0.422,6.378-0.816
			c1.129-0.196,2.336-0.39,3.473-0.53c0.264-0.031,0.67-0.105,1.093-0.166C161.57,38.687,161.441,37.581,161.125,36.538z"/>
		<path d="M164.848,40.045c-0.039-0.553-0.475-1.224-0.553-1.846c-0.086-0.749-0.188-1.448-0.264-2.121
			c-0.211-1.905-0.594-3.424-1.597-5.076c-1.435-2.382-2.579-4.811-4.587-6.844c-1.185-1.207-2.741-0.928-4.205,0
			c-0.841,0.537-0.709,0.811-0.514,1.783c0.154,0.857,0.154,1.837,0.498,2.642c-0.047,0-0.09,0.012-0.134,0.013
			c1.287,3.042,2.456,6.141,3.413,9.302c0.323,1.068,0.458,2.194,0.635,3.295c0.554-0.076,1.112-0.125,1.396-0.027
			c-0.133,2.687,1.775,1.355,3.256,0.81C163.391,41.531,164.963,41.688,164.848,40.045z"/>
	</g>
	<path fill="none" d="M154.84,72.23c0,0.018,0,0.048,0,0.064"/>
	<g>
		<path fill="none" d="M172.049,54.694c-0.016,0.076-0.023,0.14-0.054,0.225"/>
		<path fill="none" d="M173.062,48.581c0.047,0.062,0.069,0.133,0.108,0.188"/>
		<path fill="#245977" d="M207.475,47.997c-4.293-8.737-16.853-12.528-23.363-10.232c-1.113,0.39-3.855,1.153-3.543,0.965
			c0,0-11.268,6.993-12.701,8.348c-1.682,1.582-4.897,7.477-4.897,7.477c0.054,0.085-1.426,4.417-1.769,6.245
			c-0.234,1.215-0.568,4.877,1.394,8.053c2.353,3.807,9.946,8.1,15.351,8.334c2.459,0.108,15.472-5.07,17.59-5.562
			C197.038,71.273,215.276,63.891,207.475,47.997z"/>
		<path fill="#FD1813" d="M168.086,63.223c-0.21,1.29-1.877,1.822-2.461,2.935c-0.516,1.021-0.499,1.34,0.35,2.149
			c0.997,0.973,2.188-0.015,3.162-0.562c1.145-0.638,1.558,0,2.78,0.062c-0.047-0.405-0.218-2.461-0.989-3.558
			c-0.881-1.239-2.663-1.4-3.092-0.982"/>
		<path fill="#245977" d="M216.195,95.086c-0.842-1.276-4.532-3.184-5.887-3.652c-0.779-0.278-3.605-1.292-2.663-2.228
			c0.716-0.715,3.426,0.017,4.359,0.11c0.764,0.079,10.077,1.105,10.778,0.825c1.69-0.653,0.981-1.86-0.304-2.336
			c-1.168-0.452-14.376-0.951-13.62-2.835c1.082,0.054,2.071-0.715,3.2-0.764c1.185-0.031,13.473-2.509,14.633-3.084
			c1.005-0.498,1.533-1.633,0.653-2.585c-0.803-0.856-13.675,2.384-14.6,2.493c-1.193,0.14-2.251,0.825-3.529,0.691
			c-1.992-0.226-1.838-0.986-0.613-1.891c1.611-1.185,10.294-4.431,10.97-5.865c0.188-0.409,0.328-0.911,0.397-1.549
			c-1.914-0.701-10.723,2.693-12.496,3.325c-1.473,0.537-2.672,2.104-4.261,2.438c-1.823,0.366-3.076-1.784-3.684-3.192
			c-0.817-1.884-0.747-2.959-3.27-3.279c-1.31,2.562,1.368,5.864,0.217,8.365c-0.265,0.598-0.856,0.964-1.487,1.283
			c-1.971,2.281-3.092,5.81-0.195,7.873c1.434,1.03,1.076,3.302,2.976,3.775c0.281,0.071,0.576,0.118,0.88,0.174
			c0.811-0.468,1.588-1.061,2.39-1.373c1.216-0.479,2.462,0.117,3.614,0.695c2.445,1.23,7.025,4.307,9.913,4.453
			C216.07,97.041,217.379,96.886,216.195,95.086z"/>
		<path fill="#245977" d="M176.691,28.919c-1.466,0.25-2.111-0.148-0.866-1.667c0.825-0.988,2.026-1.275,2.96-2.009
			c0.732-0.577,8.793-5.451,8.768-6.571c-0.031-1.248-1.885-0.78-2.928-0.406c-1.207,0.428-7.631,4.549-8.487,5.356
			c-0.817,0.749-2.056,0.921-2.765,1.723c-1.807-0.74,7.398-10.575,7.92-11.673c0.568-1.216,0.258-2.508-1.387-1.769
			c-0.686,0.305-6.791,7.787-7.281,8.363c-0.592,0.71-2,3.076-2.99,3.1c-1.299,0.031,0.009-2.593,0.366-3.324
			c0.624-1.247,3.037-5.103,2.765-6.526c-0.396-2.025-1.41-1.224-2.422-0.117c-1.923,2.109-4.158,7.342-5.053,9.858
			c-0.414,1.191-0.875,2.453-2.05,2.975c-0.823,0.366-1.845,0.53-2.772,0.818c-0.007,0.055-0.029,0.108-0.1,0.14
			c-2.174,1.076-1.55,4.407-0.094,5.81c0.896,0.856,1.564,1.684,2.155,2.741c0.468,0.811,1.037,1.425,1.761,1.932
			c0.109,0.016,0.225,0.046,0.335,0.046c1.198,0.024,2.36-0.942,3.48-0.545c2.508,0.872,2.874,4.905,5.538,5.708
			c1.549-1.979,0.77-2.64,0.07-4.454c-0.531-1.355-1.105-3.652,0.412-4.663c1.348-0.898,3.247-0.672,4.65-1.357
			c1.674-0.81,8.742-4.578,9.633-6.369C186.113,24.355,179.191,28.492,176.691,28.919z"/>
		<path fill="#245977" d="M179.191,40.382c-0.008,0.108-0.047,0.142-0.141,0.103c-0.468-1.178-1.168-1.815-2.57-1.955
			c-1.277-0.119-2.843,0.715-3.793,1.494c-1.689,1.379-3.979,2.538-4.196,4.858c0.497,0.342,0.903,0.882,1.493,0.874
			c0.414,0,0.867-0.243,1.231-0.375c0.577-0.188,1.154-0.384,1.722-0.584c1.736-0.606,4.516-1.068,5.506-2.663"/>
		<path fill="#245977" d="M200.161,69.076c0.063,0.057,0.069,0.111,0.038,0.164c0.88,0.336,0.499,1.542,0.025,2.08
			c-0.68,0.771-1.705,1.082-2.596,1.549c-0.84,0.446-1.729,0.935-2.623,1.232c-0.896,0.303-1.924-0.031-2.819-0.142
			c-0.872-0.11-1.681-0.032-1.8-1.036c-0.1-0.98,1.426-1.051,2.314-1.245c1.526-0.343,2.966-0.624,4.447-1.121
			c0.98-0.328,1.82-0.981,2.795-1.239"/>
		<path d="M172.01,64.281c3.131,0.764,5.451,2.134,6.728,5.208c0.562,1.347-2.483,6.014,3.964,6.028
			c-2.328,1.299-7.342,1.284-9.134-0.194c-2.118-1.752-3.839-3.95-3.793-6.574c0.023-1.425,1.177-4.103,1.177-4.103
			s-3.652-1.051-5.078-2.181c-1.65-1.308-1.713-9.969-0.279-12.366c0.756,5.793-0.545,2.844,4.189,4.003
			c2.554,0.638,3.154,7.397,2.359,9.367C172.057,63.377,172.01,64.281,172.01,64.281z"/>
		<path d="M181.301,43.557c-0.055,0.048-0.055,0.072,0.016,0.064c0.904-0.53,2.024-0.104,2.958-0.031
			c1.075,0.1,2.135-0.047,3.101,0.499c0.738,0.412,1.432,0.98,1.854,1.714c0.248,0.451,0.317,0.7,0.193,1.183
			c-0.108,0.421-0.357,0.583-0.545,0.925c0.6-0.387,1.216-0.723,1.777-1.144c0.301-0.233,0.568-0.553,0.839-0.812
			c0.203-0.191,0.53-0.474,0.53-0.747c-0.211-0.037-0.436,0.12-0.654,0.142c-0.171,0.031-0.357,0-0.545,0.047
			c-0.516-0.652-0.482-1.893-0.662-2.665c-0.304,0.204-0.554,0.593-0.879,0.703c-0.625-0.646-1.442-0.999-2.242-1.341
			c-0.632-0.271-1.246-0.56-1.917-0.778c-0.164,0.147-0.03,0.624,0.085,0.788c-0.365,0.278-0.747,0.317-1.19,0.396
			c-0.39,0.07-0.717,0.21-1.083,0.271c-0.816,0.133-1.449,0.493-2.195,0.928c0.107-0.108,0.287-0.077,0.411-0.054"/>
		<path d="M195.107,57.489c0.016,0.149,0.662-0.28,0.832-0.341c0.391-0.173,0.748-0.226,1.168-0.226
			c0.57-0.015,1.449-0.048,1.901,0.35c-0.273,0.172-0.647,0.24-0.926,0.419c1.37,0.312,2.241,1.535,2.81,2.71
			c-0.295-0.069-0.826-0.254-1.082-0.03c-0.016,0.257,0.031,0.5,0.031,0.77c0.029,0.352-0.047,0.663-0.085,1.021
			c-0.039,0.352,0.022,0.757-0.101,1.114c-0.111,0.297-0.289,0.531-0.429,0.802c0.085-0.219-0.008-0.442-0.125-0.644
			c-0.21,0.054-0.28,0.41-0.397,0.574c-0.156,0.242-0.358,0.452-0.498,0.7c-0.297,0.522-0.639,0.997-1.105,1.404
			c-0.867,0.776-1.465,0.979-1.309,0.825c0.195-0.18,2.023-1.598,2.07-3.98c0.008-0.561,0.047-1.16-0.014-1.697
			c-0.071-0.561-0.094-1.262-0.391-1.807c-0.288-0.509-0.686-1.045-1.225-1.348c-0.488-0.281-1.041-0.048-1.563,0
			c0.18-0.048,0.335-0.093,0.413-0.248"/>
		<path fill="#FF0000" d="M175.764,49.335c-0.195,0.734-0.793,1.201-1.332,1.062c-0.6-0.143-1.323-0.663-0.996-1.56
			c0.18-0.529,0.506-0.957,0.941-1.199C174.689,47.461,175.959,48.634,175.764,49.335z"/>
		<path fill="#FF0000" d="M186.984,71.182c-0.607,0.427-1.361,0.427-1.705-0.018c-0.373-0.506-0.606-1.354,0.203-1.852
			c0.49-0.291,0.996-0.416,1.496-0.329C187.334,69.047,187.568,70.752,186.984,71.182z"/>
		<path d="M177.547,40.155c-0.046-0.016-0.203-0.576-0.373-0.678c-0.219-0.123-0.568-0.18-0.811-0.186
			c-0.273-0.009-0.538,0.093-0.803,0.115c-0.319,0.048-0.607,0.063-0.864,0.273c0.163,0.124,0.507-0.187,0.688-0.226
			c0.255-0.031,0.605-0.055,0.831,0.071c0.219,0.116,0.467,0.302,0.592,0.521c0.211,0.342-0.016,0.477-0.077,0.778
			c0.171-0.102,0.802-0.21,0.802-0.46"/>
		<path d="M171.193,41.674c-0.008,0.094-0.219,0.25-0.29,0.35c-0.093,0.143-0.187,0.267-0.278,0.406
			c-0.188,0.24-0.483,0.567-0.562,0.873c-0.108,0.42,0.156,0.692,0.547,0.598c0.186-0.029,0.287-0.084,0.42-0.225
			c0.109-0.119,0.178-0.451-0.11-0.289c0.126,0.242-0.31,0.461-0.468,0.266c-0.17-0.218,0.127-0.547,0.22-0.749
			c0.108-0.241,0.638-0.948,0.468-1.191c-0.071,0.022-0.141,0.08-0.172,0.148"/>
		<path d="M199.127,70.091c0.17,0.037,0.529,0.069,0.551,0.356c0.023,0.18-0.225,0.389-0.327,0.508
			c-0.123,0.17-0.311,0.304-0.474,0.436c-0.094,0.077-0.211,0.102-0.297,0.171c-0.107,0.094-0.18,0.203-0.311,0.257
			c0.373-0.217,0.607-0.489,0.879-0.786c0.071-0.077,0.281-0.28,0.226-0.405c-0.062-0.172-0.374-0.14-0.481-0.063
			c0.279-0.076,0.171-0.403,0.475-0.411"/>
		<path d="M195.279,73.104c0,0.193-1.387,0.271-1.637,0.239c-0.17-0.023-0.248-0.046-0.396-0.124
			c-0.078-0.046-0.164-0.094-0.258-0.115c-0.054-0.018-0.271-0.018-0.304-0.049c-0.225-0.21,0.147-0.187,0.226-0.192
			c0.141-0.024,0.281-0.119,0.398-0.119c-0.016-0.037-0.047-0.086-0.086-0.107c-0.266,0.045-0.467,0.092-0.693,0.279
			c0.133,0.375,0.841,0.483,1.192,0.444c0.232-0.017,0.497-0.04,0.739-0.062c0.227-0.014,0.545,0.018,0.747-0.085"/>
		<path d="M181.159,45.842c0.033,0.24,1.933,0.535,2.314,0.73c0.794,0.398,1.417,1.129,1.806,1.939
			c0.389,0.823,0.172,1.58,0.141,2.451c-0.016,0.562,0.141,1.77-0.318,2.189c0.038-0.7-0.071-1.494-0.117-2.213
			c-0.048-0.848-0.397-1.447-0.834-2.185c-0.437-0.742-0.746-1.264-1.426-1.707c-0.521-0.336-1.081-0.646-1.565-1.014
			c0.087-0.007,0.142,0.032,0.164,0.117c-0.046,0.062-0.101,0.108-0.187,0.134"/>
		<path d="M189.29,59.156c1.456,0.762,3.046,1.519,3.722,3.188c0.553,1.32,0.747,2.816-0.102,4.117
			c0.125-1.395-0.24-3.014-0.849-4.282c-0.286-0.616-0.692-1.246-1.159-1.721c-0.444-0.46-1.044-0.718-1.527-1.171
			c-0.016,0.173,0.039,0.313,0.127,0.446"/>
		<path d="M183.965,47.725c-0.01,0.031-0.023,0.072-0.04,0.115c-0.39-0.456-1.114,0.025-1.2,0.477
			c-0.092,0.443,0.219,1.504,0.779,1.557c0.461,0.049,1.121-0.538,1.191-0.987c0.062-0.443-0.365-1.419-0.958-1.317"/>
		<path d="M192.646,62.686c0.055,0.093,0.062,0.093,0.016,0.012c-0.305-0.519-0.476-0.815-1.09-0.932
			c-0.561-0.11-0.842,0.265-0.686,0.823c0.102,0.376,0.537,1.108,0.973,1.108c0.141,0,0.615-0.288,0.725-0.406
			c0.24-0.263,0.093-0.421,0.196-0.795c-0.087-0.015-0.181-0.03-0.259-0.015"/>
		<path d="M177.134,57.965c0.249,0.319-0.022,1.021,0.009,1.416c0.053,0.423,0.186,0.843,0.256,1.254
			c0.148,0.812,0.538,1.404,1.254,1.816c0.367,0.201,0.794,0.327,1.223,0.389c0.094,0,0.391-0.062,0.459,0
			c0.234,0.178,0.056,0.125,0.117,0.342c0.164,0.482,0.289,1.496,1.105,1.355c-0.156-0.529-0.107-1.52-0.606-1.782
			c-0.343-0.187-0.757-0.179-1.122-0.399c-0.341-0.2-0.669-0.42-0.973-0.7c-0.553-0.521-1.143-1.237-1.309-1.979
			c-0.094-0.481-0.256-1.393-0.069-1.858c0.093,0.116,0.069,0.194,0.054,0.349"/>
	</g>
	<path d="M189.656,60.464c0.062,0.188,0.498,0.335,0.686,0.53c0.232,0.258,0.436,0.553,0.621,0.834
		c0.26,0.396,0.523,0.809,0.733,1.237c0.528,1.084-0.046,2.453-0.591,3.45c0.707-0.344,0.411-2.57,0.248-3.131
		c-0.147-0.453-0.342-0.889-0.506-1.325c-0.156-0.389-0.506-0.808-0.6-1.197"/>
	<path d="M184.96,52.281l0.117,0.022c-0.335-1.067-0.803-2.141-1.604-2.937c-0.88-0.88-2.058-1.191-3.28-0.886
		c0.328-0.11,1.076,0.152,1.402,0.287c0.553,0.217,0.975,0.566,1.434,0.949c0.459,0.413,0.732,0.832,1.066,1.347
		c0.172,0.268,0.343,0.482,0.515,0.764c0.141,0.243,0.35,0.396,0.467,0.638c0.219-0.123,0.157-0.436,0.038-0.638"/>
	<path fill="#FF0000" d="M174.215,104.524c0.397,0.14,0.624,1.331,0.66,1.753c0.071,0.748-0.016,1.558-0.016,2.312
		c0,1.822-0.318,3.567-0.318,5.406c0,1.634,0.094,4.835-1.222,1.317c-0.298-0.764-1.083-8.601-1.544-9.363
		c-0.389-0.653-1.027-0.927-1.293-1.579"/>
	<path fill="#FF0000" d="M173.319,115.139c0.389,0.467,0.351,1.277,0.84,1.752c0.476,0.445,1.457,0.577,2.079,0.521
		c1.348-0.125,4.151-1.953,4.151-1.953l0.903-4.961c0,0-2.829,0.029-2.943,0.077c-0.273,0.086-0.491,0.554-0.637,0.786
		c-0.867,1.223-1.879,2.133-3.451,2.15c-0.118,0-0.118,0,0.029,0"/>
	<path fill="#FF0000" d="M147.504,80.025c-1.883,1.809-1.846,3.684-2.43,6.027c-1.068,4.354-1.838,10.732-0.008,15.022
		c1.012,2.384,2.679,3.947,4.953,5.264c2.625,1.527,4.827,1.534,7.803,1.542c2.6,0.016,4.928-0.842,7.21-1.542
		c2.203-0.675,5.163-0.825,6.993,0.654c0.881,0.701,1.565,1.645,2.376,2.407c-0.117-1.222,0.481-2.453,0.303-3.785
		c-0.14-1.107-0.6-1.418-1.253-2.328c-1.162-1.612-4.477-2.469-6.564-2.71c-4.906-0.562-8.972,1.369-13.621,0
		c-2.203-0.646-4.025-4.268-3.822-6.581c0.18-1.984,2.545-4.523,3.745-6.004c0.896-1.105,3.013-3.161,3.013-3.161
		s-0.646-6.667-0.621-7.305C154.427,77.098,149.258,78.359,147.504,80.025z"/>
	<path d="M150.906,62.557c-1.268,1.339-11.855-8.356-13.586-9.705c-0.614-0.479-1.845-2.04-2.667-1.98
		c-0.452,0.03-2.145,1.487-2.645,1.778c-1.322,0.761-4.995,2.275-5.577,3.677c0.942,0.666,2.297,1.059,3.317,1.636
		c0.999,0.566,2.144,1.34,3.167,1.745c2.047,0.812,4.443,1.475,6.57,2.444c1.88,0.854,3.16,2.805,5.291,2.15
		c2.024-0.621,4.248-1.321,6.059-2.224c0.124-0.235,0.147-0.486,0.07-0.746"/>
	<g>
		<path fill="#FF0000" d="M134.538,59.847c0.392-0.245,0.778-0.496,1.163-0.752c1.183-0.787,2.385-1.517,3.637-2.19
			c0.649-0.349,1.301-0.692,1.953-1.039c-0.502-0.424-0.984-0.836-1.433-1.219c-0.784,0.409-1.565,0.822-2.341,1.243
			c-1.26,0.687-2.51,1.398-3.712,2.184c-0.47,0.307-0.906,0.646-1.345,0.99c0.088,0.041,0.182,0.087,0.269,0.12
			C133.307,59.414,133.918,59.631,134.538,59.847z"/>
		<path fill="#FF0000" d="M140.195,62.131c1.029-0.702,2.109-1.342,3.178-1.983c0.608-0.369,1.223-0.729,1.838-1.083
			c-0.614-0.478-1.24-0.978-1.861-1.486c-0.465,0.261-0.93,0.523-1.391,0.792c-1.203,0.708-2.426,1.407-3.584,2.188
			c-0.206,0.14-0.408,0.288-0.609,0.437c0.52,0.199,1.035,0.406,1.533,0.633C139.613,61.77,139.908,61.944,140.195,62.131z"/>
		<path fill="#FF0000" d="M142.604,63.666c0.6,0.253,1.24,0.343,1.987,0.113c1.681-0.516,3.493-1.088,5.097-1.783
			c-0.561-0.218-1.296-0.651-2.129-1.216C145.902,61.733,144.249,62.695,142.604,63.666z"/>
		<path fill="#FF0000" d="M130.097,57.752c0.366-0.239,0.725-0.49,1.083-0.732c1.11-0.755,2.303-1.372,3.498-1.982
			c1.187-0.603,2.385-1.184,3.582-1.766c-0.506-0.432-0.895-0.762-1.126-0.942c-0.175-0.136-0.399-0.359-0.647-0.608
			c-1.186,0.577-2.381,1.131-3.558,1.721c-1.122,0.563-2.194,1.173-3.235,1.873c-0.654,0.438-1.312,0.876-2,1.26
			c0.641,0.281,1.307,0.547,1.869,0.865C129.735,57.537,129.918,57.646,130.097,57.752z"/>
	</g>
	<path fill="#FFFFFF" d="M159.898,26.812c0.047,0.044,0.115,0.065,0.175,0.078c0.36-0.419,0.735-0.778,1.151-1.139
		c0.382-0.334,0.617-0.791,1.037-1.054c0.133,0.154,0.148,0.425,0.223,0.61c0.121,0.299,0.275,0.586,0.398,0.886
		c0.271,0.657,0.502,1.368,0.709,2.057c0.513,1.717,0.93,3.455,1.436,5.173c0.323,1.101,0.556,2.269,0.907,3.295
		c0.261,0.756,0.601,1.468,0.495,2.288c-0.537,0.07-1.401,0.136-1.934,0.015c-0.373-0.08-0.563-0.504-0.705-0.847
		c-0.516-1.257-0.69-2.632-1.146-3.914c-0.604-1.699-1.205-3.389-1.686-5.126c-0.189-0.685-0.732-1.473-0.795-2.145"/>
	<path fill="#FFFFFF" d="M192.484,80.331c0.772,0.288,1.935,1.936,2.697,2.53c1.084,0.84,2.098,1.796,3.125,2.681
		c1.375,1.187,3.683,4.593,5.47,4.966c0.071,0.778-1.409,2.028-2.167,2.274c-2.135-1.787-4.083-3.761-6.367-5.399
		c-2.233-1.606-3.146-3.297-2.49-6.009c-0.189,0.07-0.381,0.131-0.574,0.184"/>
	<g>
		<path fill="#FFFFFF" d="M207.482,66.532c0.18,0.433,0.412,0.387,0.793,0.591c0.66,0.357,1.266,0.528,1.925,1.007
			c0.84,0.604,1.466,1.248,2.386,1.709c0.717,0.362,1.425,0.733,2.14,1.099c0.914,0.47,1.254,0.771,2.01,0.074
			c2.424-2.238,4.718-5.028,6.028-8.228c1.104-2.704,1.025-5.284,1.229-8.136c0.113-1.61-0.008-3.015-0.437-4.58
			c-0.675-2.469-0.771-5.023-1.401-7.491c-1.365-5.33-4.199-10.017-7.849-14.103c-3.767-4.217-9.244-6.962-14.964-7.138
			c-3.168-0.098-6.156,0.442-9.059,1.149c0.93,2.556,0.175,6.134,0.193,8.815c0.006,0.461-0.078,1.457,0.304,1.839
			c0.238,0.237,0.31-0.514,0.522-0.428c0.551,0.225,0.891,0.587,1.33,0.954c1.898,1.585,3.482,3.971,4.834,6.056
			c1.957,3.019,4.199,5.844,6.068,8.972c1.4,2.344,2.299,5.054,3.357,7.573c0.596,1.42,1.122,2.766,1.301,4.268
			c0.075,0.627,0.131,1.301,0.123,1.934c-0.006,0.571-0.246,1.229-0.066,1.759"/>
		<path d="M187.887,34.371c0.807,0.563,3.557-1.965,4.65-2.15c1.688-0.287,3.973,1.928,5.2,2.966
			c4.156,3.521,7.233,7.642,9.347,12.679c1.57,3.744,2.877,7.227,2.685,11.27c-0.1,2.031-0.19,4.307-0.78,6.268
			c-0.287,0.957-0.674,1.026-1.629,1.428c-0.684,0.285-1.812,0.328-2.328,0.742c0.657-1.184,0.355-2.334,0.162-3.556
			c-0.221-1.414-0.428-2.925-0.83-4.354c-0.872-3.099-2.334-6.126-3.598-9.14c-1.393-3.318-3.062-6.859-5.211-9.698
			c-1.071-1.418-2.156-2.829-3.744-3.718c-1.071-0.602-2.154-2.077-3.129-2.496c-0.029,0.136,0.008,0.258,0.109,0.363"/>
		<path fill="#FF0000" d="M187.928,34.099c0.037,0.105,0.023,0.194-0.041,0.272c0.696-0.139,1.972,0.829,2.614,1.123
			c0.917,0.422,1.634,0.809,2.358,1.504c1.312,1.258,2.386,2.561,3.422,4.002c1.152,1.608,2.2,3.304,3.332,4.99
			c1.238,1.844,1.986,4.16,2.857,6.234c0.869,2.072,1.791,4.12,2.383,6.239c0.479,1.715,1.344,3.842,1.355,5.627
			c0.005,0.698-0.196,1.787-0.469,2.427c-0.434,1.021-1.098,1.022-1.245-0.164c-0.21-1.693-0.702-3.41-1.175-5.016
			c-0.734-2.486-1.558-4.891-2.584-7.34c-1.128-2.688-2.572-5.021-3.951-7.517c-1.312-2.37-2.525-4.957-4.389-6.93
			c-1.062-1.122-2.227-2.061-3.32-3.158c-0.676-0.679-1.584-0.957-2.286-1.521c0.388-0.275,0.847-0.236,0.927-0.686"/>
		<path d="M187.296,34.363c-0.512,0.5-3.783-0.675-4.595-0.728c0.418,0.265,1.725,0.901,2.05,1.305
			c0.321,0.4,3.065,2.263,4.085,2.995c3.58,2.568,7.033,6.93,8.946,10.833c4.355,8.883,5.376,19.775,5.581,20.479
			c0.152,0.526,0.494,1.434,0.377,1.994c-0.24-1.585,0.873-2.77,1.268-4.156c0.252-0.884-0.261-1.457-0.494-2.281
			c-0.225-0.797-0.138-1.674-0.308-2.406c-0.808-3.472-1.849-6.942-2.819-10.405c-0.498-1.775-1.588-3.15-2.465-4.667
			c-0.918-1.588-1.854-2.987-3.033-4.426c-1.597-1.947-2.916-3.919-4.645-5.752c-0.958-1.017-2.339-2.338-3.717-2.796
			c0.054,0.112,0.107,0.229,0.154,0.345"/>
		<path fill="#FF0000" d="M205.059,45.99c-0.152-0.179-0.738-1.526-0.818-2.078c-0.1-0.718,0.481-1.443,0.331-2.135
			c0.466-0.143,0.755-0.503,1.117-0.765c0.243-0.176,0.567-0.148,0.788-0.367c0.137-0.139,0.107-0.599,0.284-0.77
			c1.046-1.018,1.839,0.409,2.866,0.493c0.455,0.041,0.872-0.15,1.41-0.045c0.423,0.078,1.046,0.121,1.418,0.383
			c0.246,0.173,0.205,0.555,0.423,0.77c0.211,0.211,0.476,0.257,0.69,0.441c0.502,0.424,0.812,0.596,0.945,1.308
			c-0.741,0.435-1.131,0.349-1.416,1.127c-0.217,0.602,0.187,1.378,0.033,1.968c-0.096,0.358-0.196,0.402-0.457,0.7
			c-0.357,0.411-0.438,0.264-0.672,0.772c-0.262,0.569-0.126,1.165-0.911,1.371c-0.771,0.199-0.923-0.59-1.614-0.766
			c-0.758-0.19-1.184,0.439-1.922,0.454c-1.058,0.021-2.699-1.836-2.286-2.949"/>
		<path d="M209.74,43.106c-0.006,0.016-0.009,0.027-0.012,0.042c0.256-0.065,0.495-0.224,0.75-0.308
			c0.263-0.086,0.542-0.14,0.812-0.182c0.148-0.021,0.515-0.137,0.639-0.004c0.202,0.219-0.322,0.386-0.451,0.453
			c-0.509,0.276-1.088,0.443-1.61,0.711c-0.144,0.073-0.146,0.071-0.147,0.23c-0.002,0.128,0.01,0.286,0.041,0.408
			c0.066,0.244,0.226,0.459,0.346,0.652c-0.186,0.112-0.414,0.239-0.59,0.076c-0.168-0.151-0.273-0.478-0.379-0.679
			c-0.065-0.124-0.051-0.193-0.201-0.172c-0.117,0.015-0.262,0.074-0.375,0.115c-0.256,0.093-0.514,0.173-0.772,0.282
			c-0.106,0.043-0.218,0.107-0.326,0.139c-0.157,0.045-0.159-0.008-0.194,0.163c-0.052,0.249-0.048,0.551,0.043,0.789
			c0.144,0.371,0.408,0.634,0.721,0.879c0.323,0.253,0.732,0.192,1.105,0.268c-0.57,0.215-1.131,0.477-1.733,0.304
			c-0.183-0.051-0.355-0.069-0.504-0.183c-0.153-0.115-0.251-0.278-0.354-0.438c-0.165-0.257-0.322-0.488-0.443-0.778
			c-0.288-0.684-0.379-1.486-0.297-2.223c0.035-0.298,0.216-0.565,0.388-0.798c0.138-0.187,0.421-0.41,0.644-0.476
			c0.022,0.062,0.105,0.097,0.105,0.153c0,0.076-0.094,0.141-0.134,0.191c-0.15,0.176-0.312,0.362-0.383,0.586
			c-0.061,0.194-0.022,0.403-0.002,0.597c0.015,0.137-0.032,0.326,0.063,0.439c0.219,0.258,0.863-0.007,1.102-0.082
			c0.343-0.104,0.744-0.219,1.056-0.404c0.017-0.27-0.096-0.512-0.146-0.773c-0.054-0.265-0.207-0.593-0.184-0.857
			c0.177-0.13,0.454-0.076,0.663-0.11c0.108,0.19,0.061,0.373,0.12,0.58c0.056,0.195,0.108,0.407,0.211,0.586
			c0.116-0.06,0.292-0.015,0.417,0"/>
		<path d="M190.475,23.119c0.384,0.083,1.002-0.352,1.463-0.402c0.752-0.082,1.57-0.067,2.337-0.072
			c1.757-0.016,3.513,0.172,5.271,0.253c2.842,0.133,5.938,1.286,8.152,3.069c1.502,1.209,3.125,2.436,4.451,3.819
			c1.211,1.264,2.203,2.991,3.096,4.449c0.386,0.634,0.855,1.176,1.27,1.798c0.535,0.806,0.875,1.538,1.215,2.426
			c0.201,0.527,0.5,1.009,0.699,1.554c0.167,0.45,0.422,0.896,0.589,1.355c0.401,1.098,0.888,2.157,1.255,3.266
			c1.786,5.396,0.959,11.196-0.346,16.597c-0.553,2.287-1.334,4.436-2.759,6.302c-0.41,0.536-0.822,1.11-1.212,1.67
			c-0.3,0.434-1.168,1.319-1.142,1.828c0.745,0.215,0.984,0.612,1.659,0.123c0.471-0.337,1.003-0.81,1.438-1.202
			c0.976-0.881,1.963-1.845,2.758-2.903c0.896-1.189,1.853-2.271,2.568-3.637c0.851-1.623,1.33-3.153,1.778-4.951
			c0.582-2.333,0.146-4.673-0.073-7.017c-0.285-3.037-0.679-6.053-1.161-9.069c-0.497-3.118-1.214-6.271-2.427-9.203
			c-0.509-1.229-1.07-2.398-1.742-3.554c-0.93-1.6-1.946-2.826-3.243-4.144c-2.177-2.208-5.022-3.785-7.966-4.774
			c-3.556-1.196-7.63-2.014-11.391-1.763c-1.618,0.109-3.294,0.62-4.65,1.413c-1.035,0.604-2.117,1.239-2.252,2.504
			c0.108,0.094,0.246,0.202,0.365,0.286c0.105,0.024,0.164-0.019,0.18-0.127"/>
	</g>
	<path d="M153.34,27.019c0.146,0.079,0.27,0.269,0.387,0.386c0.156,0.154,0.297,0.321,0.442,0.489
		c0.3,0.347,0.622,0.677,0.822,1.088c0.335,0.688,0.542,1.423,0.837,2.128c0.135,0.315,0.213,0.648,0.342,0.963
		c0.08,0.199,0.191,0.375,0.245,0.582c0.374,1.481,0.615,3.035,0.763,4.556c0.088,0.927,0.326,1.879,0.188,2.821
		c-0.117,0.059-0.199,0.045-0.328,0.059c-0.242,0.025-0.444,0.125-0.668,0.207c-0.248,0.091-0.504,0.166-0.756,0.243
		c-0.406,0.124-0.797,0.314-1.208,0.418c-1.851,0.463-3.741,0.835-5.661,0.677c-1.855-0.152-3.73-0.032-5.589-0.133
		c-0.841-0.045-1.687-0.039-2.493-0.156c0.06-0.376,0.148-0.812,0.199-1.221c0.099-0.765,0.079-1.605-0.047-2.365
		c-0.329-1.979-1.021-3.838-1.907-5.626c-0.444-0.896-0.97-1.838-1.617-2.601c-0.231-0.269-0.468-0.556-0.751-0.777
		c-0.123-0.096-0.623-0.359-0.59-0.514c0.389-0.061,0.785-0.059,1.197-0.059c0.428,0,0.803-0.047,1.225-0.047
		c1.375,0,2.754,0,4.13,0c0.837,0,1.624-0.088,2.442-0.244c0.637-0.123,1.34-0.022,1.979-0.085c0.662-0.067,1.34,0.043,2.003-0.01
		c0.388-0.03,0.772-0.137,1.155-0.186c0.418-0.054,0.838-0.087,1.256-0.12c0.26-0.019,0.51-0.08,0.775-0.085
		c0.223-0.005,0.479-0.016,0.698-0.047c0.165-0.024,0.731,0.008,0.821-0.087c-0.047-0.02-0.096-0.022-0.146-0.013"/>
	<g>
		<path fill="#FF0000" d="M143.614,41.362c1.022,0.027,2.05,0.017,3.073,0.034c0.105-0.314,0.199-0.632,0.275-0.946
			c0.554-2.336,0.548-4.878,0.051-7.223c-0.249-1.171-0.66-2.244-1.288-3.271c-0.461-0.754-0.986-1.473-1.557-2.149
			c-0.638,0.101-1.269,0.167-1.929,0.167h-0.414c0.389,0.535,0.744,1.095,1.047,1.686c0.703,1.366,1.089,2.855,1.25,4.382
			c0.217,2.077,0.095,4.255-0.287,6.306C143.773,40.686,143.697,41.024,143.614,41.362z"/>
		<path fill="#FF0000" d="M153.563,40.935c0.194-0.047,0.388-0.091,0.581-0.139c0.145-0.035,0.284-0.092,0.425-0.142
			c0.327-1.838,0.482-3.705,0.386-5.572c-0.146-2.771-0.861-5.456-2.131-7.896c-0.114,0.002-0.218,0.004-0.275,0.013
			c-0.219,0.031-0.477,0.043-0.698,0.047c-0.155,0.003-0.306,0.022-0.454,0.045c0.777,1.433,1.37,2.979,1.809,4.529
			C153.99,34.615,154.393,38.016,153.563,40.935z"/>
		<path fill="#FF0000" d="M149.175,34.581c0.073,0.668,0.093,1.343,0.093,2.016c0.002,1.627-0.09,3.282-0.355,4.899
			c0.545,0.022,1.084,0.001,1.623-0.045c0.497-1.526,0.801-3.118,0.936-4.718c0.193-2.269,0.104-4.628-0.543-6.822
			c-0.254-0.854-0.607-1.704-1.088-2.463c-0.007,0-0.014,0-0.02,0.002c-0.383,0.049-0.768,0.154-1.156,0.188
			c-0.663,0.051-1.342-0.059-2.004,0.007c-0.126,0.014-0.259,0.017-0.391,0.018c1.095,1.282,1.803,2.924,2.305,4.492
			C148.824,32.943,149.085,33.754,149.175,34.581z"/>
		<path fill="#FF0000" d="M141.371,41.272c0.278,0.016,0.559,0.027,0.837,0.038c0.349-2.454,0.435-4.997-0.029-7.438
			c-0.427-2.248-1.376-4.464-3.199-5.898h-0.608c0.783,1.343,1.346,2.812,1.768,4.311c0.678,2.412,1.109,4.902,1.219,7.408
			C141.377,40.217,141.385,40.746,141.371,41.272z"/>
	</g>
	<path d="M188.557,89.239c0.146,0.093,0.373,0.143,0.537,0.18c0.299,0.063,0.504,0.127,0.766,0.297
		c0.799,0.521,1.638,0.924,2.467,1.392c0.566,0.316,1.172,0.56,1.747,0.864c0.618,0.332,1.163,0.748,1.722,1.168
		c1.017,0.769,1.91,1.646,2.868,2.481c0.906,0.791,1.935,1.706,2.587,2.712c0.236,0.361,0.648,0.751,0.704,1.192
		c0.083,0.658,0,1.385,0,2.048c0,0.938-0.028,1.883,0.063,2.807c0.083,0.843-0.04,1.715,0.043,2.559
		c0.072,0.726,0.061,1.438,0.146,2.155c0.077,0.641,0.15,1.298,0.166,1.953c0.009,0.341-0.031,0.696,0,1.035
		c0.021,0.229,0.084,0.416,0.047,0.655c-0.159-0.123-0.283-0.304-0.479-0.399c-0.244-0.12-0.509-0.198-0.75-0.327
		c-0.922-0.487-1.824-1.065-2.78-1.486c-0.603-0.262-1.205-0.558-1.823-0.773c-0.588-0.206-1.204-0.298-1.812-0.42
		c-0.412-0.082-0.821-0.157-1.241-0.179c-0.268-0.012-0.52-0.091-0.79-0.045c-0.479,0.077-0.996,0.361-1.437,0.569
		c-0.415,0.195-0.805,0.425-1.181,0.672c-0.342,0.227-0.62,0.504-0.863,0.839c-0.132,0.18-0.254,0.332-0.361,0.521
		c-0.093,0.162-0.164,0.394-0.288,0.534c-0.034-0.229,0.063-0.515,0.063-0.757c0-0.405-0.005-0.801,0.047-1.201
		c0.045-0.36,0.049-0.74,0.074-1.098c0.033-0.46,0.064-1.033,0.002-1.487c-0.126-0.878-0.15-1.806-0.23-2.693
		c-0.075-0.848-0.056-1.751-0.072-2.599c-0.02-0.958-0.16-1.924-0.181-2.885c-0.023-1.068,0.011-2.205-0.106-3.273
		c-0.188-1.738-0.555-3.614,0.064-5.29c0.167-0.452,0.219-0.931,0.291-1.414c0.036-0.016,0.072-0.019,0.111-0.009"/>
	<g>
		<path fill="#FF0000" d="M201.766,107.897c-1.45-0.652-3.004-1.043-4.545-1.421c-1.072-0.264-2.172-0.438-3.272-0.521
			c-1.222-0.093-2.484-0.102-3.685,0.178c-0.5,0.117-0.998,0.29-1.441,0.544c0,0.011,0.002,0.021,0.004,0.028
			c0.062,0.456,0.031,1.029-0.002,1.488c-0.018,0.241-0.028,0.491-0.045,0.743c0.117-0.104,0.233-0.208,0.364-0.294
			c0.675-0.446,1.48-0.782,2.243-1.054c2.514-0.889,5.369-0.567,7.844,0.304c1.075,0.379,2.143,0.883,3.127,1.508
			c-0.031-0.431-0.073-0.86-0.123-1.281C202.078,108.041,201.922,107.968,201.766,107.897z"/>
		<path fill="#FF0000" d="M188.004,93.16c0.059,0.705,0.158,1.412,0.233,2.097c0.014,0.124,0.02,0.25,0.028,0.376
			c0.971,0.371,1.997,0.585,3.013,0.785c1.329,0.257,2.627,0.53,3.901,0.995c2.338,0.854,4.596,1.915,6.803,3.063
			c0.003-0.287,0.019-0.584,0.027-0.883C197.579,96.97,192.674,95.305,188.004,93.16z"/>
		<path fill="#FF0000" d="M194.174,99.287c-1.594-0.315-3.197-0.585-4.814-0.759c-0.338-0.035-0.678-0.058-1.018-0.073
			c0,0.024,0,0.052,0.002,0.076c0.013,0.667,0.084,1.335,0.133,2.001c1.239-0.038,2.469-0.196,3.705-0.293
			c0.734-0.056,1.475-0.093,2.214-0.058c0.706,0.034,1.399,0.146,2.095,0.269c1.848,0.323,3.674,0.757,5.485,1.239
			c0-0.289,0.002-0.579,0.004-0.865C199.365,100.378,196.773,99.799,194.174,99.287z"/>
		<path fill="#FF0000" d="M201.735,103.635c-1.608-0.586-3.309-0.87-5.005-1.053c-1.825-0.193-3.665-0.374-5.5-0.369
			c-0.902,0-1.807,0.029-2.697,0.161c0.006,0.552,0.016,1.108,0.063,1.64c0.034,0.379,0.058,0.767,0.085,1.151
			c0.945-0.537,1.949-0.968,3.01-1.234c1.543-0.391,3.184-0.514,4.77-0.388c1.471,0.117,2.926,0.421,4.271,1.04
			c0.459,0.212,0.895,0.462,1.324,0.724c-0.004-0.51,0.027-1.021,0.008-1.531C201.954,103.732,201.848,103.675,201.735,103.635z"/>
	</g>
</g>
</svg>
