<?xml version="1.0" encoding="utf-8"?>
<!-- Generator: Adobe Illustrator 16.0.4, SVG Export Plug-In . SVG Version: 6.00 Build 0)  -->
<!DOCTYPE svg PUBLIC "-//W3C//DTD SVG 1.1//EN" "http://www.w3.org/Graphics/SVG/1.1/DTD/svg11.dtd">
<svg version="1.1" id="Ebene_1" xmlns="http://www.w3.org/2000/svg" xmlns:xlink="http://www.w3.org/1999/xlink" x="0px" y="0px"
	 width="283.46px" height="425.2px" viewBox="0 0 283.46 425.2" enable-background="new 0 0 283.46 425.2" xml:space="preserve">
<g>
	<path fill="#FFFFFF" d="M114.86,187.102c3.132,3.186,0.637,12.289,1.451,17.085c8.43,3.252,19.271,2.889,28.394,3.723
		c6.054,0.546,12.024,0.005,18.219-0.477c4.656-0.382,11.165,1.012,15.329-0.397c-1.065-7.562,2.002-14.527,1.336-22.211
		c-0.473-5.541,1.407-3.754-4.232-5.394c-4.816-1.392-9.567-2.724-14.692-2.717c-14.384,0.034-34.011-4.529-43.871,9.079
		c1.005,0.203,1.795,0.009,2.811-0.035"/>
	<g>
		<path fill="#FF0000" d="M142.992,196.626c0.108-6.906,1.178-13.688,1.848-20.542c0.003-0.042,0.035-0.049,0.044-0.084
			c-4.867-0.123-9.746,0.028-14.225,1.104c0.118,0.158,0.215,0.328,0.208,0.562c-0.311,7.598-1.285,15.122-1.021,22.735
			c0.071,2.135,0.203,4.256,0.325,6.383c4.493,0.408,9.016,0.6,13.282,0.934C143.141,204.025,142.93,200.332,142.992,196.626z"/>
		<path fill="#FF0000" d="M173.819,178.854c-3.555-0.993-7.114-1.849-10.836-2.097c-1.375,10.234-2.623,20.495-2.476,30.797
			c0.887-0.068,1.768-0.137,2.661-0.203c2.318-0.186,5.086,0.061,7.799,0.19C170.902,197.926,172.772,188.439,173.819,178.854z"/>
		<path fill="#FF0000" d="M118.634,183.577l-3.532,3.442c3.143,3.185,0.398,12.371,1.21,17.167c1.119,0.435,2.522,0.709,3.712,1.021
			C119.599,198.778,118.983,190.016,118.634,183.577z"/>
	</g>
	<path fill="#245977" d="M143.407,39.168c-1.667,5.01-2.347,10.423-1.503,15.669c0.248,1.548,0.931,2.679,2.002,3.805
		c1.715,1.808,4.025,2.584,6.386,3.102c2.043,0.454,3.39,2.328,3.911,4.285c0.501,1.896,0.744,4.325,0.398,6.256
		c-0.422,2.473-0.956,5.068-1.698,7.446c-0.559,1.795-0.94,4.061-2.441,5.357c0.74-0.32,1.432,2.26,2.253,2.291
		c0.905,0.023,2.704,1.01,3.621,0.993c1.629-0.032,2.817-3.657,4.484-3.835c-0.015-3.66,0.177-7.496,0.198-11.279
		c0.016-1.859-0.08-3.693,0.304-5.567c0.213-0.998,0.504-1.931,0.83-2.887c0.491-1.45,0.742-4.292,2.419-4.868
		c2.103-0.717,4.347-0.325,6.396-1.359c2.808-1.417,4.909-4.379,6.12-7.152c0.604-1.367,1.429-2.872,1.319-4.394
		c-0.094-1.327,2.609-2.921,2.669-4.243c0.068-1.42-4.255-1.578-4.38-2.986c-0.272-3.096,0.277-7.213-1.654-9.635
		c-0.686-0.854-1.347-1.827-2.156-2.566c-1.331-1.217-3.1-2.26-4.807-2.833c-2.754-0.929-5.674-1.479-8.591-1.345
		c-2.016,0.085-4.068,0.072-6.08,0.268c-0.658,0.071-1.288,0.203-1.927,0.308C147.865,28.258,145.09,34.15,143.407,39.168z"/>
	<path fill="#FFFFFF" d="M152.47,80.222c0.449,1.169-12.324,1.485-13.785,0.052c0.445,1.527,4.647,3.896,5.252,5.275
		c0.452-0.227,0.401,0.76,0.908,0.949c-0.3,1.205,0.637,1.611,0.66,2.88c0.021,1.702,0.055,3.356,0.073,5.099
		c0.043,4.752,0.887,9.825,0.834,14.821c-0.115,9.687,0.449,19.225,1.347,28.866c0.493,5.352,1.367,10.68,2.272,15.967
		c0.577,3.306,0.507,7.207,1.702,10.355c3.014-3.9,3.368-9.726,4.471-14.424c0.801-3.422,1.477-6.885,2.424-10.284
		c1.136-4.07,2.384-7.979,3.033-12.179c1.191-7.798,1.939-15.594,3.13-23.354c0.586-3.817,1.157-7.622,1.752-11.429
		c0.329-2.08,0.774-4.945,0.426-7.008c0.983-0.041,2.344-0.376,3.004-1.078c-1.943-1.395-1.948-2.663-2.864-4.675
		c-1.526,0.824-2.734,1.138-4.431,1.328c-0.47,0.061-2.137,0.225-2.419,0.527c-0.62,0.647-0.188,1.915-0.952,2.701
		c-1.043,1.059-4.302,2.013-5.688,1.134c-0.943-0.608-1.441-3.658-1.028-4.591c0.213,0.135-0.125-0.812,0.06-0.681"/>
	<path fill="#FF0000" d="M181.763,90.122c3.07,12.214,6.671,24.31,8.232,36.803c-0.267-0.032-0.52-0.079-0.777-0.05
		c-2.907,0.203-1.755,5.017-1.573,7.301c0.465,5.588,1.438,11.105,2.166,16.655c0.872,6.696,2.224,13.051,4.111,19.509
		c0.731,2.488,1.125,4.829,1.548,7.358c0.282,1.701,1.263,3.317,1.407,4.902c-7.214-0.046-14.979,0.153-22.421,0.741
		c-10.256,0.82-20.365,0.648-30.501,0.589c-6.322-0.04-16.472-1.799-22.156,1.535c-2.44,1.43-3.377,2.755-6.449,3.383
		c-2.432,0.49-4.944,0.681-7.351,1.274c-4.302,1.049-8.768,2.995-13.13,3.944c-0.116-3.597,1.086-7.868,1.722-11.452
		c0.816-4.601,1.202-9.188,2.267-13.77c0.949-4.059,1.201-8.635,2.337-12.56c1.283-4.399,3.106-8.42,4.209-12.87
		c1.726-6.961,5.278-13.753,7.495-20.609c1.229-3.83,2.604-7.671,4.062-11.376c1.027-2.587,2.396-7.927,1.579-7.399
		c0.507-4.287,1.496-8.559,2.678-12.676c1.423-5.012,0.552-0.455,3.256-4.992c0.453,0.063,1.238-0.846,1.527-1.104
		c0.913-0.82,1.779-1.688,2.663-2.535c0.886-0.862,1.771-1.738,2.708-2.553c1.082-0.945,1.836-1.104,3.306-1.049
		c1.236,0.055,2.482,0.049,3.714,0.134c2.234,0.147,4.681,0.034,6.859,0.602c-0.486,0.923-0.298,2.163-0.386,3.195
		c-0.088,1.043-0.37,2.016-0.141,3.053c0.249,1.133,0.448,2.245,0.616,3.403c0.387,2.694,0.771,5.387,1.207,8.073
		c0.498,3.079,1.924,6.002,2.153,9.249c0.567,8.139,0.404,16.13,1.275,24.295c0.524,4.903,0.947,9.598,1.246,14.543
		c0.306,5.098,0.406,10.168,0.385,15.322c-0.007,1.455-0.605,4.39-0.032,5.697c0.73,1.689,2.563,1.531,4.328,1.699
		c0.573-6.152,0.426-12.361,1.118-18.473c0.68-6.01,1.711-11.854,2.198-18c0.638-8.043,0.099-16.104-0.181-24.145
		c-0.206-6.148,3.169-10.76,3.006-16.836c-0.038-1.304-0.107-2.717,0.238-3.974c0.31-1.109,1.275-2.093,1.032-3.296
		c-0.158-0.838-0.818-1.285-1.047-2.058c0.48-0.23,1.069-0.249,1.576-0.433c0.504-0.174,0.968-0.44,1.46-0.658
		c0.446-0.205,1.306-0.763,1.789-0.734c0.561,0.024,0.671,0.498,1.024,0.865c0.891,0.931,2.263,1.569,3.319,2.375
		c1.623,1.227,3.604,1.803,5.226,2.924C178.454,87.181,180.143,88.673,181.763,90.122z"/>
	<path d="M163.613,39.651c0.25,0.245-0.05-0.092-0.092-0.173c1.962-1.949,3.93-2.412,6.641-2.059
		c-0.746,0.319-0.514,1.099-0.912,1.361c-0.521,0.333-1.599,0.158-2.196,0.277c-1.257,0.241-2.316,1.26-3.371,1.437"/>
	<path fill="#FFFFFF" d="M169.82,42.148c-2.125,2.346-2.825,1.326-5.754,1.084c1.307-1.311,3.777-4.023,5.52-1.581
		c-0.056,0.149-0.135,0.267-0.272,0.355"/>
	<path fill="#245977" d="M166.64,41.16c-0.01,0.028-0.467,0.464-0.612,0.697c-0.225,0.41-0.312,0.703-0.125,1.166
		c0.291,0.694,1.119,0.903,1.8,0.535c0.669-0.354,1.421-1.281,0.92-2.009c-0.401-0.589-1.549-0.705-2.109-0.286"/>
	<path d="M167.286,42.737c-0.436,0.31,0.958,1.306,1.37,0.386c0.175-0.41-0.158-0.715-0.464-0.824
		c-0.426-0.153-0.557,0.078-0.924,0.145"/>
	<path fill="#FF0000" d="M176.497,35.401c0.178-0.124,0.769,0.208,1.243,0.09c0.576-0.146,1.088-0.704,1.4-1.254
		c0.58-1.018,0.382-2.026-0.141-2.991c1.527-0.673,0.272-2.772-0.477-3.559c-0.865-0.923-1.899-1.388-3.152-1.669
		c-0.925-0.208-0.706,0.036-1.042-0.759c-0.413-0.963-0.933-1.465-1.673-2.201c-1.139-1.144-2.488-2.193-4.046-2.682
		c-0.811-0.252-0.907-0.148-1.324-0.94c-0.355-0.68-0.66-1.2-1.139-1.821c-0.886-1.17-1.932-2.254-3.467-2.463
		c-0.687-0.109-1.609,0.239-2.234,0.036c-0.558-0.182-1.495-1.298-2.016-1.716c-1.722-1.357-3.436-2.626-5.724-2.711
		c-2.17-0.084-3.102,0.318-4.515,1.74c-0.614,0.613-1.868,1.071-1.896,2.048c-1.15-1.198-3.459-0.334-4.904-0.054
		c-1.655,0.334-3.419,0.995-4.893,1.837c-3.748,2.156-5.297,6.337-5.1,10.448c-2.417-1.172-5.57,2.103-6.323,4.099
		c-0.672,1.759-0.833,3.619-0.518,5.462c0.417,2.416,2.447,5.434,4.424,6.916c0,0,0.076-0.447,0.032-0.536
		c-2.358,0.546-3.598,4.916-3.71,6.979c-0.079,1.536,0.407,2.855,1.469,4.014c1.911,2.074,6.738,2.955,9.022,0.967
		c0.665,2.621,5.372,5.758,7.476,3.031c1.704-2.198,1.649-6.492,0.877-8.911c2.178-0.264,2.714-3.513,3.798-4.875
		c1.952-2.468,3.15-3.932,3.961-7.015c0,0,0.683,1.797,0.667,2.23c-0.059,1.207-0.591,2.376-0.808,3.552
		c-0.288,1.551-0.587,2.089,1.184,2.101c1.583,0.014,1.991-0.632,2.355-1.954c0.095-0.322,0.369-0.679,0.535-0.973
		c0.503-0.951,0.953-1.942,1.229-2.994c0.392-1.434,0.867-2.213,2.102-3.123c0.57-0.413,1.153-0.851,1.786-1.159
		c0.191-0.086,0.468-0.209,0.669-0.232c0.568-0.084,0.35,0.062,0.841,0.171c0.856,0.213,1.769,0.461,2.617,0.618
		c1.025,0.173,1.589-0.557,2.563-0.85c1.065-0.312,2.037-0.564,3.156-0.361c1.234,0.22,1.373,0.635,1.798,1.659
		c0.443,1.115,1.463,3.913,3.027,3.378c1.385-0.478,1.86-2.301,1.592-3.535"/>
	<path d="M143.533,75.75c0.479-4.466,3.052-8.992,5.331-12.666c3.104-0.364,2.926,5.139,5.978,5.047
		c1.522-0.033,2.086-1.521,3.906-0.876c1.584,0.563,2.22,1.68,2.079,3.421c2.122-1.658,6-3.688,8.768-3.837
		c-0.273,2.321-0.502,7.134-3.929,6.419c0.566,0.452,2.384,3.106,2.206,4.053c-0.073,0.368-2.965,3.768-3.278,3.828
		c-2.761,0.531-3.325-5.36-4.494-6.811c-3.243,4.877-5.01,2.818-7.445-1.095C151.777,74.896,145.732,76,143.533,75.75z"/>
	<path fill="#FF0000" d="M143.775,23.629c1.745,0.091,1.863-3.217,1.492-4.476c-0.728-2.565-3.178-5.15-5.896-5.181
		c0.031,0.297-0.014,0.508,0.075,0.812c2.955-2.67-4.028-4.844-5.637-4.898c-1.83-0.049-4.748,0.171-5.96,1.775
		c-0.881,1.146-0.473,2.302-0.515,3.619c-6.833-3.473-15.083,11.329-9.695,13.261c0.104-2.456-2.456,0.69-2.811,1.285
		c-1.66,2.878-2.068,6.534-1.36,9.79c0.479,2.182,2.752,4.787,4.973,5.406c1.958,0.551,3.075-0.205,2.464-2.261
		c-0.168-0.104-0.326-0.097-0.489,0.011c-0.026,3.279,1.517,8.869,6.025,8.121c3.005-0.495,3.386-3.975,3.975-6.128
		c1.365,6.202,8.419-2.339,7.57-6.021c1.018,3.459,4.544-0.398,5.562-1.59c1.468-1.717,2.914-4.553,2.405-6.814
		c3.204,1.684,0.873-8.856-1.267-6.189"/>
	<path d="M145.592,13.994c-0.153,0.215-3.885,0.572-4.889,0.945c-2.177,0.809-4.328,2.172-6.188,3.57
		c-3.051,2.293-5.684,6.483-6.059,10.296c-5.07-1.065,4.186-10.015,5.567-11.025c1.868-1.364,4.152-1.55,6.192-2.013
		c1.379-0.318,4.255-1.891,5.089-1.818"/>
	<path fill="#FF0000" d="M169.375,21.91c0.873,0.005,2.688,0.281,3.507-0.568c0.692-0.725,0.74-2.461-0.511-2.629
		c0.818,0.004,1.801-0.143,1.441-1.329c-0.275-0.906-1.647-1.085-2.41-1.206c-0.805-0.145-1.833-0.294-2.673-0.16
		c-0.407,0.072-0.585,0.315-1.031,0.244c-0.337-0.05-0.777-0.455-1.1-0.614c-0.674-0.312-1.385-0.63-2.142-0.573
		c-1.047,0.086-1.055,0.773-1.238,1.628c-0.222,1.084-0.486,2.114,0.284,3.057c0.603,0.721,1.389,0.858,2.116,1.229
		c-0.349,1.1,0.167,1.969,1.392,2.293c1.096,0.288,1.903-0.563,2.764-1.099"/>
	<path fill="#245977" d="M120.561,386.625c0.147-0.337,6.169,4.949,7.737,6.328c5.743,5.07,9.288,15.508-1.375,17.146
		c-3.212,0.486-6.958-0.748-9.938-1.266c-7.122-1.225-12.716,0.599-19.385,1.696c-2.656,0.434-7.272,1.459-9.804-0.155
		c-3.927-2.517-0.771-4.831,2.234-6.159c3.465-1.532,6.793-1.307,10.42-1.993c2.471-0.464,18.431-5.275,12.091-9.304
		c1.454-1.64,7.627-6.066,5.687-8.062"/>
	<g>
		<path fill="#245977" d="M196.372,378.295c-2.147,2.262-4.037,5.746-5.643,8.436c-1.867,3.13-2.678,6.453-4.204,9.555
			c-3.391-1.398-7.414-2.094-10.745-3.727c1.817-3.336,2.546-7.53,3.804-11.084c0.978-2.773,1.7-7.881,3.893-9.908
			c2.886,3.409,9.317,2.893,12.791,6.25"/>
		<path fill="#245977" d="M176.533,392.107c-3.56,1.82-4.507,11.236-2.285,14.48c3.961,5.762,8.875,1.639,13.412,0.386
			c5.02-1.381,9.533,0.911,14.248,2.354c4.519,1.379,9.198,2.326,14.017,0.791c2-6.133-9.504-9.739-13.703-10.607
			c-3.14-0.648-5.904-0.898-8.342-3.086c-2.923-2.623-2.999-5.74-4.223-9.592c-3.809,0.509-6.717,1.518-10.217,2.219"/>
	</g>
	<path fill="#FF0000" d="M112.028,381.299c0.313,0.332,0.223,1.057,0.285,1.473c0.16,1.007,0.251,1.984,0.215,3.009
		c-0.077,1.908-0.199,3.811,0.036,5.704c0.154,1.24,0.084,2.663,0.576,3.801c0.973-0.232,2.095-0.244,3.104-0.299
		c2.222-0.124,4.479-0.031,6.688,0.189c1.699,0.165,3.441,0.289,5.146,0.273c0.749-0.011,1.555,0.119,2.294,0.029
		c0.038-0.325-0.169-0.795-0.25-1.124c-0.135-0.502-0.22-0.981-0.273-1.505c-0.145-1.287-0.028-2.591,0.201-3.859
		c0.388-2.164,0.764-4.297,1.109-6.463c0.104-0.667,0.18-1.354,0.259-2.01c0.05-0.42,0.192-0.619-0.234-0.716
		c-0.687-0.177-1.608-0.028-2.303-0.028c-4.927-0.006-9.856-0.135-14.781,0.016c-0.655,0.013-1.445,0.275-2.028,0.233"/>
	<path fill="#FFFFFF" d="M117.154,379.815c0.064,2.198,0.125,4.413,0.188,6.632c0.039,1.338,0.125,2.664,0.107,3.993
		c-0.009,0.839,0.254,1.647,0.297,2.487c0.026,0.471-0.1,1.398,0.131,1.824c0.251,0.463,1.079,0.479,1.526,0.518
		c0.696,0.053,1.354-0.031,2.034,0.065c0.571,0.074,1.285,0.35,1.855,0.263c0.661-0.104,0.875-0.764,0.903-1.382
		c0.093-1.724-0.071-3.476,0.087-5.194c0.131-1.464,0.047-2.897,0.241-4.359c0.103-0.788,0.182-1.605,0.298-2.397
		c0.112-0.687,0.181-1.372,0.32-2.04c0.22-0.975-0.627-0.824-1.351-0.91c-1.87-0.205-3.644,0.539-5.509,0.377
		c-0.43-0.023-0.827-0.184-1.253-0.059"/>
	<g>
		<path fill="#FFFFFF" d="M178.385,376.79c0.207,0.122,0.021,0.987-0.006,1.272c-0.052,0.756-0.087,1.519-0.167,2.271
			c-0.185,1.59-0.436,3.144-0.511,4.741c-0.04,0.891,0,1.802-0.047,2.708c-0.036,0.636-0.235,1.382-0.15,2.002
			c0.409-0.17,1.007-0.018,1.406,0.086c0.542,0.133,1.075,0.195,1.62,0.312c1.592,0.316,3.159,0.871,4.719,1.297
			c1.363,0.363,2.692,0.818,4.025,1.229c0.497,0.152,1.001,0.207,1.512,0.297c0.472,0.085,1,0.258,1.457,0.245
			c0.498-1.474,1.216-2.944,1.701-4.446c0.379-1.168,0.934-2.263,1.339-3.409c0.281-0.798,0.483-1.611,0.77-2.413
			c0.405-1.084,0.739-2.181,1.003-3.27c0.188-0.779,0.514-1.527,0.79-2.28c-0.937,0.429-2.432-0.091-3.364-0.221
			c-1.963-0.274-3.862-0.775-5.829-1.078c-1.935-0.294-3.843-0.716-5.732-1.146c-1.153-0.27-2.573-0.455-3.792-0.397"/>
		<path fill="#FF0000" d="M183.282,374.34c0.123,0.464,0.101,1.539,0.079,2.103c-0.024,0.887-0.06,1.755-0.091,2.644
			c-0.05,1.903-0.11,3.814-0.201,5.717c-0.094,2.19-0.021,4.4-0.185,6.527c0.541-0.043,1.247,0.35,1.767,0.549
			c0.846,0.312,1.664,0.42,2.52,0.67c0.667,0.207,1.338,0.396,2.007,0.52c0.467,0.098,1.179,0.427,1.613,0.355
			c-0.029-0.648,0.341-1.275,0.532-1.869c0.348-1.062,0.511-2.208,0.806-3.286c0.317-1.171,0.651-2.298,0.88-3.485
			c0.172-0.918,0.335-1.869,0.611-2.739c0.465-1.469,0.67-3.144,1.263-4.55c-0.681-0.348-1.608-0.488-2.369-0.697
			c-1.426-0.367-2.896-0.56-4.33-0.787c-0.804-0.131-1.389-0.328-2.125-0.635c-0.46-0.198-0.937-0.283-1.398-0.452
			c-0.334-0.128-0.683-0.374-1.043-0.433c0-0.085,0.038-0.178,0.102-0.243"/>
		<path fill="#FF0000" d="M179.33,374.689c-0.405,0.19-1.026-0.018-1.478,0.153c-0.238,0.091-0.185,0.03-0.238,0.31
			c-0.046,0.246-0.087,0.511-0.126,0.769c-0.178,1.476-0.275,3.032-0.378,4.53c-0.074,1.232-0.217,2.439-0.279,3.672
			c-0.053,1.03-0.223,2.043-0.186,3.078c0.015,0.561,0.079,1.091,0.073,1.654c-0.007,0.189-0.022,0.416,0.035,0.582
			c0.109,0.338,0.21,0.219,0.51,0.251c0.132,0.019,0.232,0.103,0.374,0.103c-0.022-0.444-0.16-0.904-0.148-1.385
			c0.021-0.539,0.11-1.112,0.16-1.668c0.107-1.29,0.053-2.6,0.204-3.891c0.119-0.969,0.341-1.895,0.527-2.849
			c0.146-0.735,0.199-1.504,0.383-2.225c0.133-0.497,0.334-0.988,0.41-1.5c0.066-0.397,0.012-1.157,0.11-1.395"/>
	</g>
	<path d="M143.327,79.024c-0.637,0.291,0.41,0.546-0.27,0.596c-0.335,1.164-0.209,2.64-0.319,3.876
		c-0.139,1.508-0.009,3.08-0.022,4.599c-0.025,3.137,1.041,6.335,1.396,9.451c0.377,3.294,0.569,6.481,0.812,9.797
		c0.28,3.897,0.722,7.842,0.97,11.747c0.232,3.742,0.755,7.418,1.059,11.153c0.242,2.972,0.739,5.916,0.711,8.91
		c-0.02,2.319-0.027,4.783,0.104,7.12c0.245,4.235,0.142,8.531,0.821,12.701c0.54,3.33,0.689,6.754,1.532,10.09
		c0.288,1.154,0.693,2.218,1.106,3.333c0.379,1.033,0.63,1.183,1.421,1.867c1.4,1.21,2.8,1.513,4.596,1.685
		c0.392-0.925,0.64-2.441,0.765-3.41c0.186-1.471,0.291-2.975,0.297-4.477c0.014-3.426-0.813-6.53-1.255-9.861
		c-0.475-3.569,0.394-7.347,1.205-10.875c0.58-2.524,0.83-5.139,1.458-7.627c0.623-2.49,1.207-4.991,2.05-7.423
		c0.479-1.388,0.438-2.526,0.445-3.981c0.021-4.573-0.142-9.377,0.658-13.848c1.024-5.72,3.187-11.223,4.039-16.982
		c0.458-3.154,0.37-6.449,0.784-9.572c0.148-1.125,0.175-2.325,0.561-3.332c0.532-1.4,1.444-1.217,2.779-0.877
		c-1.469-1.842-2.839-4.438-5.381-3.299c-0.973,0.428-2.442,0.701-3.001,1.616c-0.747,1.262-0.958,3.266-1.307,4.675
		c-0.721,2.943-1.134,5.892-1.145,8.929c-0.021,4.365-0.798,8.521-1.888,12.738c-2.332,9.046-3.262,18.019-3.308,27.345
		c-0.022,4.57,0.03,9.141-0.344,13.668c-0.295,3.639-0.463,7.358-0.475,11.029c-0.013,3.268-0.02,6.612,0.651,9.676
		c-0.827-0.431-1.25-2.032-1.545-2.863c-0.404-1.15-0.655-2.124-0.734-3.33c-0.19-2.891-0.479-5.744-0.649-8.618
		c-0.318-5.276-0.062-10.612-0.503-15.899c-0.25-2.946-0.019-5.926-0.392-8.853c-0.396-3.115-0.883-6.327-1.119-9.38
		c-0.214-2.779-0.21-5.529-0.385-8.334c-0.199-3.074-0.652-6.156-1.108-9.191c-0.729-4.853-1.705-9.765-2.522-14.652
		c-0.383-2.287-0.273-4.668-0.261-7.028c0-0.474-0.032-0.969,0.005-1.442c0.033-0.371,0.312-0.893,0.153-1.291
		C145.419,78.307,144.047,78.938,143.327,79.024"/>
	<path fill="#FFFFFF" d="M163.391,50.143c-0.216,0.023-0.326-0.072-0.326-0.287c0.887-1.049,2.874-1.509,3.014-3.185
		c4.813,0.457,8.87-8.418,12.978-5.494c1.963,1.397,2.371,3.375,1.813,5.666c-0.919,3.782-2.815,8.593-7.08,8.861
		c-3.123,0.2-9.679-2.808-11.259-5.556c0.503-0.152,0.964-0.141,1.49-0.104"/>
	<path fill="#FFFFFF" d="M163.521,50.729c-0.278-0.264-1.516,0.131-1.958,0.199c-0.66,0.107-1.381,0.458-2.048,0.652
		c-1.975,0.562-3.865,1.32-5.835,1.742c-1.425,0.303-2.96,0.487-4.43,0.693c-0.807,0.114-1.627,0.182-2.44,0.114
		c-0.462-0.038-1.59-0.539-1.886-0.193c0.033,0.028,0.071,0.045,0.114,0.052c0.354,0.356,1.658,0.369,2.133,0.416
		c0.809,0.079,1.624,0.092,2.436,0.058c1.757-0.062,3.512-0.327,5.231-0.707c2.735-0.607,5.901-1.434,8.151-3.196"/>
	<path fill="#FFFFFF" d="M160.046,44.715c-1.588-0.411-4.208-0.175-4.962-1.908c1.736,1.279,3.92,0.971,5.966,1.477
		c2.282,0.563,3.844,1.72,5.753,2.957C164.644,46.188,162.372,45.319,160.046,44.715z"/>
	<path fill="#FFFFFF" d="M165.882,47.752c0.345,0.162,0.708,0.447,0.84,0.805c0.105,0.018,0.163,0.013,0.273,0
		c0.118-0.197,0.174-0.395,0.118-0.498"/>
	<path fill="#245977" d="M171.591,51.9c1.577,0.803,5.104,1.097,6.943,0.884c-1.878-0.69-4.868,0.194-6.334-0.84
		c0.238-0.063,0.422,0.019,0.563,0.244"/>
	<path fill="#245977" d="M173.055,49.262c2.357,0,4.894,0.365,6.978-0.633c0.062-0.322,0.057-0.482-0.009-0.803
		c-1.803,0.754-3.69,1.173-5.503,1.729"/>
	<path fill="#245977" d="M173.642,45.749c0.914,0.983,6.379-1.204,6.087-2.834c-0.833,1.086-4.151,2.936-5.5,3.126"/>
	<path fill="#245977" d="M181.979,89.682c-0.138,4.085,3.607,9.805,5.564,14.033c2.589,5.598,4.108,11.714,5.775,17.557
		c3.37,11.834,8.255,23.042,12.631,34.197c2.346,5.979,2.699,7.063-2.402,11.668c-3.528,3.187-7.335,6.005-11.632,7.707
		c-8.713,3.448-22.43,8.312-29.716-0.533c2.029-1.949,4.295-0.742,6.63-0.202c-2.763-0.9-4.424-3.73-4.874-6.063
		c1.73,0.931,3.448,2.027,5.235,3.012c-0.877-0.969-1.157-2.123-1.771-3.02c6.051,1.054,8.699,4.605,15.029,1.789
		c4.596-2.053,9.893-5.53,12.817-9.688c-3.906-2.651-2.072-10.884-2.51-15.146c-0.575-5.616-3.054-10.949-4.304-15.99
		c-1.448-5.856-2.56-11.391-3.959-17.168c-0.964-3.988-1.039-14.164-3.377-16.879"/>
	<path d="M80.836,182.219c0.609,0.812,0.106,1.712,0.818,1.45l0.367,0.243c1.836-0.157,1.983-1.59,3.265-2.559
		c0.792-0.577,1.867-0.51,2.779-0.772c0.765-0.226,60.422-11.091,61.238-11.359c3.461-1.141,6.921-1.667,10.374-2.676
		c1.062-0.315,2.087-0.549,3.137-0.812c0.765,1.654,1.905,3.12,3.54,4.421c6.159,4.907,16.527,0.858,22.905-0.895
		c2.629-0.737,7.386-1.585,8.917-4.223c1.56-2.701,1.881-5.869-1.071-7.019c-3.491-1.35-9.338-0.211-13.083,0.469
		c-0.768,0.143-1.517,0.314-2.259,0.468c-0.042-0.194-0.062-0.386-0.096-0.575c-0.101-0.483,12.847-2.168,14.076-2.608
		c4.129-1.495,43.09-7.19,45.539-3.892c1.402,1.911,3.517,5.343,5.732,6.395c1.003,0.48,2.271,0.342,3.26-0.165
		c1.531-0.797,1.338-1.471,0.664-2.792c-0.927-1.796-2.134-3.566-2.911-5.465c-0.809-1.984-0.408-4.059-0.743-6.137
		c-0.309-1.824-0.643-3.603-0.79-5.457c-0.103-1.341-0.05-2.689,0.075-4.021c0.081-0.92,0.612-2.382,0.053-3.164
		c-1.601,1.578-2.551,4.387-4.008,6.25c-1.539,1.977-3.434,3.747-5.819,4.625c-1.833,0.662-38.45,9.578-40.459,9.881
		c-2.239,0.363-4.316,0.934-6.575,1.002c-2.963,0.103-5.961,0.611-8.898,1.033c-0.005-0.086-0.021-0.154-0.018-0.25
		c0.565-0.274,1.842-1.243,1.912-1.998c0.149-1.463-1.509-1.078-2.468-0.803c-1.13,0.326-2.219,0.938-2.049,1.988
		c0.064,0.476,0.374,0.904,0.656,1.346c-0.674,0.121-1.368,0.207-2.046,0.32c-0.047-0.531-0.119-1.068-0.094-1.563
		c0.046-1.556,0.499-2.989-1.62-2.313c-1.814,0.58-1.407,1.486-0.814,2.789c0.197,0.447,0.295,0.943,0.421,1.436
		c-0.923,0.15-1.845,0.307-2.761,0.465c0.17-0.325,0.374-0.649,0.5-1.055c0.372-1.284-0.771-2.604-2.212-1.984
		c-1.579,0.666-0.853,1.69-0.583,2.719c0.059,0.227,0.059,0.49,0.106,0.73c-1.93,0.424-3.898,1.251-5.617,2.002
		c-1.636,0.705-2.551,1.602-2.469,3.395c0.036,0.938,0.168,1.813,0.368,2.656c-3.852,0.73-66.212,11.992-70.064,13.277
		c-3.155,1.055-5.622,1.536-6.811,1.979c-1.852,0.686-3.016-1.067-4.757-0.725C80.153,178.963,80.411,181.634,80.836,182.219z
		 M166,164.932c1.54-0.342,3.081-0.672,4.635-0.99c0.138,1.248,0.337,2.457,0.527,3.675
		C168.537,167.561,165.703,167.012,166,164.932z M173.318,167.574c-0.238-1.336-0.476-2.679-0.671-4.059
		c1.021-0.193,2.037-0.401,3.068-0.629c0.117,1.462,0.276,2.936,0.481,4.362c-0.484,0.065-0.967,0.161-1.459,0.209
		C174.37,167.5,173.879,167.548,173.318,167.574z M172.283,160.534c1.053-0.228,2.119-0.476,3.174-0.708
		c0.022,0.227,0.044,0.452,0.062,0.686c-1.015,0.274-2.058,0.545-3.146,0.818C172.353,161.055,172.319,160.799,172.283,160.534z
		 M180.548,161.783c0.092,0.971,0.127,3.519,0.86,4.719c-1.202,0.221-2.466,0.362-3.702,0.532c-0.154-1.193-0.077-3.027-0.136-4.065
		c-0.002-0.163-0.009-0.322-0.022-0.49c0.98-0.217,1.988-0.455,3.005-0.699L180.548,161.783z M188.353,160.362
		c1.419-0.021,3.334-0.569,4.679-0.097c1.971,0.686,1.425,0.969,0.159,2.15c-1.452,1.319-3.594,2.051-5.478,2.596
		c-1.632,0.467-3.293,0.827-4.957,1.164c-0.191-1.605-0.43-3.186-0.652-4.764c0.169-0.045,0.323-0.074,0.485-0.121
		C184.42,160.816,186.473,160.389,188.353,160.362z M180.115,158.762c0.031,0.182,0.05,0.357,0.075,0.525
		c-0.93,0.221-1.868,0.465-2.795,0.729c-0.019-0.207-0.031-0.417-0.041-0.602c0.457-0.11,0.924-0.195,1.382-0.312
		C179.183,159.003,179.656,158.881,180.115,158.762z M170.322,161.009c0.019,0.275,0.052,0.548,0.074,0.814
		c-0.769,0.192-1.543,0.392-2.265,0.593c-0.258,0.059-0.516,0.109-0.773,0.171C168.168,161.797,169.212,161.322,170.322,161.009z"/>
	<path fill="#245977" d="M144.877,166.459c-1,0.703-3.34,1.848-4.798,1.377c-0.586-0.184-0.777-0.564-1.246-0.908
		c-0.475-0.346-0.958-0.517-1.515-0.742c-0.829-0.336-1.626-0.561-2.446-0.656c-0.471,2.729-2.386,5.31-3.469,7.775
		c0.253,0.019,0.512,0.05,0.758,0.153c0.89,0.354,1.641,1.269,2.328,1.86c0.836,0.719,1.924,1.424,2.944,1.917
		c2.154,1.036,3.956,0.376,5.861-0.249c2.071-0.664,3.695-1.514,5.042-2.942c0.288-0.304,0.708-0.584,0.414-0.996
		c-0.201-0.282-0.984-0.501-1.342-0.509c-0.266-0.012-0.652,0.061-0.953,0.146c0.298-0.206,0.595-0.428,0.832-0.653
		c0.418-0.397,1.58-1.501,1.261-2.046c-0.743-1.275-3.625,0.907-4.745,0.428c1.73-0.588,3.62-1.754,3.771-3.437
		c0.04-0.562,0.496-2.181-0.824-2.062C146.021,164.988,145.397,166.086,144.877,166.459z M145.267,173.502
		c0.174-0.109,0.385-0.26,0.577-0.381C145.679,173.292,145.512,173.467,145.267,173.502z"/>
	<path d="M113.604,203.884c0.654-0.074,0.983,0.215,0.99,0.856c-4.453,5.729-5.766,14.309-7.78,21.275
		c-3.679,12.734-6.504,25.237-9.168,38.104c-2.369,11.44-4.928,22.373-4.049,34.209c0.612,8.281,1.601,16.55,1.561,24.844
		c-0.079,16.137,6.952,30.796,10.783,46.605c0.493,2.04,1.002,5.652,2.378,7.154c2.403,2.612,5,1.476,8.799,1.785
		c5.826,0.48,12.081,1.262,18.316,0.745c-2.434-22.539,2.666-47.403,4.574-70.194c0.893-10.634,1.616-21.201,3.514-31.584
		c1.121-6.123,1.31-19.104,6.756-22.966c2.266,14.262,0.128,30.119,1.751,44.78c1.658,15,4.594,29.887,9.242,44.261
		c2.633,8.147,5.844,15.755,9.221,23.576c2.156,5.001,1.565,8.312,7.032,10.721c8.382,3.694,22.737,1.177,31.709-0.349
		c1.808-18.652-0.289-37.329-2.811-55.812c-0.949-6.973,0.385-13.09-0.191-19.891c-0.674-7.975-3.381-15.734-4.575-23.64
		c-1.348-8.931-2.572-17.224-4.634-26.159c-3.106-13.46-5.924-33.525-15.766-44.059c-8.79-9.402-22.597-2.504-33.385-2.504
		c-5.565,0-11.128,0-16.692,0c-4.596,0-12.869-1.53-16.692,0.877"/>
	<path fill="#245977" d="M124.597,86.324c-0.536,1.569-5.077,1.667-7.038,3.326c-3.336,2.819-5.94,6.292-8.027,10.146
		c-3.931,7.271-5.654,16.194-7.337,24.12c-1.507,7.099-5.465,17.763-2.315,24.729c1.499,3.31,4.576,5.166,7.564,7.026
		c3.343,2.077,6.386,4.359,9.579,6.602c2.842,1.991,5.656,3.977,8.422,6.114c1.645,1.273,3.382,2.51,4.974,3.772
		c1.539,1.217,2.011,2.16,3.392,0.973c0.571-0.491,1.682-3.43,1.87-4.295c0.466-2.16-0.6-3.036-1.989-4.844
		c-2.626-3.422-5.313-6.521-8.653-9.517c-4.554-4.08-13.125-11.414-11.892-18.244c0.93-5.188,3.821-10.787,5.276-15.832
		c1.628-5.636,2.526-11.312,3.516-16.996c0.335-1.922,5.812-17.533,2.535-17.043"/>
</g>
</svg>
