<?xml version="1.0" encoding="utf-8"?>
<!-- Generator: Adobe Illustrator 16.0.4, SVG Export Plug-In . SVG Version: 6.00 Build 0)  -->
<!DOCTYPE svg PUBLIC "-//W3C//DTD SVG 1.1//EN" "http://www.w3.org/Graphics/SVG/1.1/DTD/svg11.dtd">
<svg version="1.1" id="Ebene_1" xmlns="http://www.w3.org/2000/svg" xmlns:xlink="http://www.w3.org/1999/xlink" x="0px" y="0px"
	 width="443.501px" height="425.2px" viewBox="0 0 443.501 425.2" enable-background="new 0 0 443.501 425.2" xml:space="preserve">
<pattern  x="-940.38" y="-1820.801" width="30.313" height="30.314" patternUnits="userSpaceOnUse" id="Neues_Musterfeld_4" viewBox="1.699 -31.985 30.313 30.314" overflow="visible">
	<g>
		<polygon fill="none" points="32.013,-1.672 1.699,-1.672 1.699,-31.985 32.013,-31.985 		"/>
		<polygon fill="#FF0000" points="32.041,-1.644 1.699,-1.644 1.699,-31.985 32.041,-31.985 		"/>
		<g>
			<path fill="#FFFFFF" d="M3.397-21.221c0,0.938-0.761,1.699-1.699,1.699C0.761-19.521,0-20.282,0-21.221
				c0-0.938,0.761-1.698,1.698-1.698C2.637-22.919,3.397-22.158,3.397-21.221z"/>
			<path fill="#FFFFFF" d="M10.721-21.221c0,0.938-0.761,1.699-1.699,1.699c-0.938,0-1.698-0.761-1.698-1.699
				c0-0.938,0.761-1.698,1.698-1.698C9.96-22.919,10.721-22.158,10.721-21.221z"/>
			<path fill="#FFFFFF" d="M18.376-21.221c0,0.938-0.761,1.699-1.699,1.699c-0.938,0-1.698-0.761-1.698-1.699
				c0-0.938,0.761-1.698,1.698-1.698C17.615-22.919,18.376-22.158,18.376-21.221z"/>
			<path fill="#FFFFFF" d="M26.031-21.221c0,0.938-0.761,1.699-1.699,1.699c-0.938,0-1.698-0.761-1.698-1.699
				c0-0.938,0.761-1.698,1.698-1.698C25.271-22.919,26.031-22.158,26.031-21.221z"/>
			<path fill="#FFFFFF" d="M33.687-21.221c0,0.938-0.761,1.699-1.699,1.699c-0.938,0-1.698-0.761-1.698-1.699
				c0-0.938,0.761-1.698,1.698-1.698C32.926-22.919,33.687-22.158,33.687-21.221z"/>
		</g>
		<g>
			<path fill="#FFFFFF" d="M7.192-16.234c0,0.938-0.761,1.699-1.699,1.699c-0.938,0-1.698-0.761-1.698-1.699
				c0-0.938,0.761-1.698,1.698-1.698C6.432-17.933,7.192-17.172,7.192-16.234z"/>
			<path fill="#FFFFFF" d="M14.516-16.234c0,0.938-0.761,1.699-1.699,1.699c-0.938,0-1.698-0.761-1.698-1.699
				c0-0.938,0.761-1.698,1.698-1.698C13.755-17.933,14.516-17.172,14.516-16.234z"/>
			<path fill="#FFFFFF" d="M22.171-16.234c0,0.938-0.761,1.699-1.699,1.699c-0.938,0-1.698-0.761-1.698-1.699
				c0-0.938,0.761-1.698,1.698-1.698C21.41-17.933,22.171-17.172,22.171-16.234z"/>
			<path fill="#FFFFFF" d="M29.826-16.234c0,0.938-0.761,1.699-1.699,1.699c-0.938,0-1.698-0.761-1.698-1.699
				c0-0.938,0.761-1.698,1.698-1.698C29.065-17.933,29.826-17.172,29.826-16.234z"/>
			<path fill="#FFFFFF" d="M37.481-16.234c0,0.938-0.761,1.699-1.699,1.699c-0.938,0-1.698-0.761-1.698-1.699
				c0-0.938,0.761-1.698,1.698-1.698C36.721-17.933,37.481-17.172,37.481-16.234z"/>
		</g>
		<g>
			<path fill="#FFFFFF" d="M3.43-11.707c0,0.938-0.761,1.699-1.699,1.699c-0.938,0-1.698-0.761-1.698-1.699
				c0-0.938,0.761-1.698,1.698-1.698C2.669-13.405,3.43-12.645,3.43-11.707z"/>
			<path fill="#FFFFFF" d="M10.753-11.707c0,0.938-0.761,1.699-1.699,1.699c-0.938,0-1.698-0.761-1.698-1.699
				c0-0.938,0.761-1.698,1.698-1.698C9.992-13.405,10.753-12.645,10.753-11.707z"/>
			<path fill="#FFFFFF" d="M18.408-11.707c0,0.938-0.761,1.699-1.699,1.699c-0.938,0-1.698-0.761-1.698-1.699
				c0-0.938,0.761-1.698,1.698-1.698C17.647-13.405,18.408-12.645,18.408-11.707z"/>
			<path fill="#FFFFFF" d="M26.063-11.707c0,0.938-0.761,1.699-1.699,1.699c-0.938,0-1.698-0.761-1.698-1.699
				c0-0.938,0.761-1.698,1.698-1.698C25.303-13.405,26.063-12.645,26.063-11.707z"/>
			<path fill="#FFFFFF" d="M33.719-11.707c0,0.938-0.761,1.699-1.699,1.699c-0.938,0-1.698-0.761-1.698-1.699
				c0-0.938,0.761-1.698,1.698-1.698C32.958-13.405,33.719-12.645,33.719-11.707z"/>
		</g>
		<g>
			<path fill="#FFFFFF" d="M7.225-6.721c0,0.938-0.761,1.699-1.699,1.699c-0.938,0-1.698-0.761-1.698-1.699
				c0-0.938,0.761-1.698,1.698-1.698C6.464-8.419,7.225-7.658,7.225-6.721z"/>
			<path fill="#FFFFFF" d="M14.548-6.721c0,0.938-0.761,1.699-1.699,1.699c-0.938,0-1.698-0.761-1.698-1.699
				c0-0.938,0.761-1.698,1.698-1.698C13.787-8.419,14.548-7.658,14.548-6.721z"/>
			<path fill="#FFFFFF" d="M22.203-6.721c0,0.938-0.761,1.699-1.699,1.699c-0.938,0-1.698-0.761-1.698-1.699
				c0-0.938,0.761-1.698,1.698-1.698C21.442-8.419,22.203-7.658,22.203-6.721z"/>
			<path fill="#FFFFFF" d="M29.858-6.721c0,0.938-0.761,1.699-1.699,1.699c-0.938,0-1.698-0.761-1.698-1.699
				c0-0.938,0.761-1.698,1.698-1.698C29.098-8.419,29.858-7.658,29.858-6.721z"/>
			<path fill="#FFFFFF" d="M37.514-6.721c0,0.938-0.761,1.699-1.699,1.699c-0.938,0-1.698-0.761-1.698-1.699
				c0-0.938,0.761-1.698,1.698-1.698C36.753-8.419,37.514-7.658,37.514-6.721z"/>
		</g>
		<g>
			<path fill="#FFFFFF" d="M3.43-1.699C3.43-0.761,2.669,0,1.73,0C0.793,0,0.032-0.761,0.032-1.699c0-0.938,0.761-1.698,1.698-1.698
				C2.669-3.397,3.43-2.637,3.43-1.699z"/>
			<path fill="#FFFFFF" d="M10.753-1.699C10.753-0.761,9.992,0,9.054,0C8.116,0,7.355-0.761,7.355-1.699
				c0-0.938,0.761-1.698,1.698-1.698C9.992-3.397,10.753-2.637,10.753-1.699z"/>
			<path fill="#FFFFFF" d="M18.408-1.699C18.408-0.761,17.647,0,16.709,0c-0.938,0-1.698-0.761-1.698-1.699
				c0-0.938,0.761-1.698,1.698-1.698C17.647-3.397,18.408-2.637,18.408-1.699z"/>
			<path fill="#FFFFFF" d="M26.063-1.699C26.063-0.761,25.303,0,24.364,0c-0.938,0-1.698-0.761-1.698-1.699
				c0-0.938,0.761-1.698,1.698-1.698C25.303-3.397,26.063-2.637,26.063-1.699z"/>
			<path fill="#FFFFFF" d="M33.719-1.699C33.719-0.761,32.958,0,32.02,0c-0.938,0-1.698-0.761-1.698-1.699
				c0-0.938,0.761-1.698,1.698-1.698C32.958-3.397,33.719-2.637,33.719-1.699z"/>
		</g>
		<g>
			<path fill="#FFFFFF" d="M3.43-32.028c0,0.938-0.761,1.699-1.699,1.699c-0.938,0-1.698-0.761-1.698-1.699
				c0-0.938,0.761-1.698,1.698-1.698C2.669-33.727,3.43-32.966,3.43-32.028z"/>
			<path fill="#FFFFFF" d="M10.753-32.028c0,0.938-0.761,1.699-1.699,1.699c-0.938,0-1.698-0.761-1.698-1.699
				c0-0.938,0.761-1.698,1.698-1.698C9.992-33.727,10.753-32.966,10.753-32.028z"/>
			<path fill="#FFFFFF" d="M18.408-32.028c0,0.938-0.761,1.699-1.699,1.699c-0.938,0-1.698-0.761-1.698-1.699
				c0-0.938,0.761-1.698,1.698-1.698C17.647-33.727,18.408-32.966,18.408-32.028z"/>
			<path fill="#FFFFFF" d="M26.063-32.028c0,0.938-0.761,1.699-1.699,1.699c-0.938,0-1.698-0.761-1.698-1.699
				c0-0.938,0.761-1.698,1.698-1.698C25.303-33.727,26.063-32.966,26.063-32.028z"/>
			<path fill="#FFFFFF" d="M33.719-32.028c0,0.938-0.761,1.699-1.699,1.699c-0.938,0-1.698-0.761-1.698-1.699
				c0-0.938,0.761-1.698,1.698-1.698C32.958-33.727,33.719-32.966,33.719-32.028z"/>
		</g>
		<g>
			<path fill="#FFFFFF" d="M7.225-26.042c0,0.938-0.761,1.699-1.699,1.699c-0.938,0-1.698-0.761-1.698-1.699
				c0-0.938,0.761-1.698,1.698-1.698C6.464-27.74,7.225-26.979,7.225-26.042z"/>
			<path fill="#FFFFFF" d="M14.548-26.042c0,0.938-0.761,1.699-1.699,1.699c-0.938,0-1.698-0.761-1.698-1.699
				c0-0.938,0.761-1.698,1.698-1.698C13.787-27.74,14.548-26.979,14.548-26.042z"/>
			<path fill="#FFFFFF" d="M22.203-26.042c0,0.938-0.761,1.699-1.699,1.699c-0.938,0-1.698-0.761-1.698-1.699
				c0-0.938,0.761-1.698,1.698-1.698C21.442-27.74,22.203-26.979,22.203-26.042z"/>
			<path fill="#FFFFFF" d="M29.858-26.042c0,0.938-0.761,1.699-1.699,1.699c-0.938,0-1.698-0.761-1.698-1.699
				c0-0.938,0.761-1.698,1.698-1.698C29.098-27.74,29.858-26.979,29.858-26.042z"/>
			<path fill="#FFFFFF" d="M37.514-26.042c0,0.938-0.761,1.699-1.699,1.699c-0.938,0-1.698-0.761-1.698-1.699
				c0-0.938,0.761-1.698,1.698-1.698C36.753-27.74,37.514-26.979,37.514-26.042z"/>
		</g>
	</g>
</pattern>
<g>
	<path fill="#245977" d="M70.466,145.047c-0.14,0.887-0.188,1.836-0.211,2.752c-0.03,1.039-0.118,2.08-0.055,3.136
		c0.198,2.964,0.023,5.878,0.267,8.861c0.26,3.124,0.952,6.23,1.416,9.331c0.466,3.106,1.759,5.988,2.995,8.867
		c0.414,0.961,1.041,1.824,1.412,2.824c0.639,1.732,0.813,3.602,1.436,5.349c0.812,2.274,2.053,4.511,3.146,6.653
		c0.583,1.143,0.81,1.873,2.061,1.262c1.729-0.837,3.129-2.209,4.685-3.318c1.046-0.744,1.91-1.592,3.017-2.233
		c1.312-0.762,2.591-1.79,3.747-2.78c2.179-1.867,4.236-3.842,6.382-5.766c3.368-3.018,6.437-6.623,9.207-10.189
		c1.452-1.87,2.983-3.68,4.466-5.527c1.889-2.338,3.58-4.859,5.184-7.378c2.232-3.5,4.744-6.93,6.564-10.633
		c0.549-1.112,1.083-2.272,1.8-3.286c0.547-0.771,0.852-1.205,0.796-2.193c-0.154-2.634-0.4-5.32-0.845-7.921
		c-0.092-0.54,0.045-1.116-0.503-1.216c-0.275-0.053-0.771,0.212-1.05,0.31c-0.736,0.265-1.504,0.7-2.292,0.646
		c-1.598-0.107-3.158-0.416-4.681-0.839c-0.653-0.183-1.271-0.684-1.912-0.785c-0.909-0.144-1.294,0.105-1.886,0.693
		c-1.042,1.037-1.78,2.314-2.51,3.577c-0.696,1.202-1.496,2.332-2.154,3.562c-1.425,2.668-2.57,5.48-4.074,8.105
		c-1.135,1.982-1.818,4.187-2.581,6.302c-0.799,2.231-2.03,2.897-3.609,4.68c-5.06,5.707-9.697,11.013-14.187,17.091
		c0.707-0.955-2.55-10.304-2.874-11.583c-0.696-2.755-2.062-5.261-2.467-8.101c-0.167-1.16-0.419-2.268-0.627-3.412
		c-0.197-1.085-0.257-2.218-0.416-3.303c-0.158-1.053-0.5-2.044-0.609-3.117c-0.184-1.802-0.426-3.598-0.677-5.393
		c-0.098-0.712-0.028-1.21,0.037-1.896c0.077-0.796-0.288-1.626-0.398-2.408c-0.197-1.426-0.372-2.58-1.235-3.793
		c-0.757-1.066-2.35-1.915-3.674-2c-0.797-0.052-1.561,0.025-2.332,0.154c-0.567,0.095-1.266,0.281-1.856,0.174
		c-0.584-0.105-1.229-0.422-1.724-0.742c-0.655-0.425-1.209-0.968-1.928-1.262c-0.533-0.219-1.292-0.439-1.851-0.537
		c-0.686-0.119-1.242,0.01-1.255,0.777c-0.01,0.575,0.463,1.091,0.735,1.573c0.364,0.643,0.134,1.005-0.659,0.895
		c-0.621-0.087-3.841-0.239-4.523-0.239c-0.662,0-1.388,0.049-2.006-0.062c-0.534-0.096-1.265-0.08-1.672-0.473
		c-0.283-0.272-0.928-2.987-1.636-2.393c-0.326,0.275,0.271,1.676-0.419,1.579c-0.402-0.057-0.504-0.946-1.026-1.021
		c-1.156-0.168-0.604,2.629-0.56,3.244c0.092,1.197,0.592,2.335,1.591,3.101c0.381,0.294,0.841,0.578,1.251,0.819
		c0.549,0.32,1.118,0.308,1.755,0.393c1.374,0.18,2.791,0.234,4.167,0.362c1.542,0.143,3.105,0.292,4.598,0.573
		c0.636,0.117,1.388,0.195,1.97,0.494c0.615,0.317,3.541,1.048,3.81,1.648c0.231,0.516,0.44,1.053,0.481,1.594
		c0.05,0.678,0.184,1.266,0.288,1.914C70.875,143.301,70.586,144.291,70.466,145.047z"/>
	<path fill="#245977" d="M130.23,121.381c0.036-0.14-0.124-0.756-0.169-1.035c-0.154-0.967-0.387-1.883-0.858-2.747
		c-0.659-1.214-1.562-2.153-2.415-3.208c-0.857-1.068-1.348-2.286-1.998-3.477c-0.48-0.884-1.009-1.736-1.375-2.682
		c-0.364-0.938-0.557-1.918-0.807-2.896c-0.236-0.923-0.625-1.87-0.692-2.815c-0.135-1.728,0.016-3.414,0.397-5.103
		c0.229-1.015,0.545-2.019,0.828-3.021c0.266-0.951,0.543-1.906,0.93-2.812c0.826-1.945,2.104-3.529,3.853-4.727
		c3.469-2.371,7.979-1.324,11.763-0.68c2.446,0.422,4.95,0.937,6.975,2.436c1.422,1.049,2.776,2.113,3.104,3.919
		c0.249,1.348-0.251,2.66-0.369,3.981c-0.108,1.194-0.101,2.354-0.564,3.476c-0.115,0.287-0.184,0.593-0.306,0.873
		c-0.157,0.374-0.228,0.411-0.106,0.795c0.317,1.004,0.944,1.987,1.285,3.005c0.287,0.863,0.789,1.854,0.858,2.752
		c0.022,0.283,0.141,0.941,0.041,1.195c-0.062,0.153-0.326,0.32-0.412,0.514c-0.228,0.486-0.296,1.049-0.38,1.573
		c-0.124,0.729-0.229,1.464-0.336,2.185c-0.184,1.26-0.346,2.486-0.706,3.72c-0.341,1.176-1.194,1.888-2.312,2.19
		c-1.094,0.299-2.212,0.856-3.321,1.037c-0.933,0.15-1.729,0.455-2.143,1.411c-0.234,0.547-0.23,1.054-0.23,1.665
		c0,0.372-0.026,0.743,0.062,1.103c0.187,0.773,0.736,1.429,1.164,2.088"/>
	<path fill="#245977" d="M249.946,193.205c-1.943,0.885-3.932,1.662-5.829,2.416c-4.307,1.715-8.597,3.438-12.983,4.904
		c-1.155,0.386-2.411,1.025-3.571,1.144c-1.513,0.153-2.487-0.548-3.808-1.144c-0.781-0.357-2.29-1.135-2.366-2.13
		c-0.052-0.688,1.142-2.01,1.715-2.36c1.236-0.755,2.825-0.712,4.2-1.043c1.043-0.248,1.993-0.748,3.003-1.082
		c2.029-0.674,4.3-0.915,6.032-2.198c2.479-1.828,4.916-3.612,7.442-5.353c3.206-2.209,6.396-4.468,9.575-6.707
		c1.004-0.713,1.985-1.348,2.657-2.339c1.278-1.88,3.105-3.537,4.78-5.087c2.454-2.26,4.703-4.831,7.086-7.202
		c1.424-1.426,2.6-3.067,3.896-4.599c1.222-1.439,2.69-2.431,3.969-3.793c1.643-1.75,3.168-3.609,4.783-5.377
		c0.771-0.836,1.609-1.621,2.328-2.492c0.552-0.659,1.092-1.379,1.739-1.956c0.684-0.612,1.374-1.106,2.134-1.608
		c0.819-0.543,1.628-1.105,2.486-1.588c0.862-0.49,1.917-1.16,2.913-1.199c0.897-0.029,1.412,0.377,1.943,1.093
		c0.494,0.656,0.442,1.335,0.321,2.12c-0.337,2.147-1.756,3.748-2.426,5.738c-0.613,1.834-2.106,3.642-3.464,5.004
		c-2.428,2.436-5.143,4.473-7.396,7.049c-1.679,1.926-3.188,3.812-5.082,5.579c-4.146,3.862-7.999,8.046-11.668,12.36
		c-0.901,1.061-1.553,2.273-2.449,3.291c-0.968,1.1-2.25,1.907-3.288,2.952C256.229,190.014,253.144,191.754,249.946,193.205z"/>
	<path fill="#245977" d="M129.642,118.793c2.216,4.099-0.891,10.797-4.06,13.546c-1.511,1.31-3.154,2.185-4.58,3.482
		c0.906,1.503,2.736,3.096,3.953,4.421c1.48,1.611,2.992,3.423,4.593,4.885c2.334,2.139,5.584,5.178,9.061,4.682
		c4.527-0.647,7.125-4.146,9.021-7.916c0.822-1.642,1.217-3.561,1.76-5.324c0.666-2.152-0.359-4.188,1.21-5.918
		c0.566-0.619,1.984-2.044,0.688-2.488c-0.41-0.142-1.041-0.049-1.469-0.119c-0.663-0.102-1.312-0.206-1.975-0.359
		c-1.628-0.378-3.521-0.486-5.004-1.381c-1.083-0.652-2.722-2.477-1.944-3.797"/>
	<path fill="#245977" d="M170.163,181.562c-2.806-3.254-5.83-7.074-8.026-10.771c-1.248-2.104-2.175-4.402-3.346-6.526
		c-1.967-3.559-4.454-6.825-6.193-10.519c-1.428-3.043-1.959-6.361-3.583-9.373c-0.717-1.328-1.661-1.677-2.771-2.625
		c-0.31-0.261-0.202-0.27-0.161-0.729c0.061-0.777,0.009-1.529,0.181-2.281c0.287-1.271,0.539-2.576,0.818-3.862
		c0.27-1.259,0.413-6.438,1.4-6.978c0.556-0.303,1.804,0.382,2.357,0.486c1.329,0.237,2.685,0.053,3.959,0.59
		c1.963,0.822,3.363,2.247,4.397,4.172c2.646,4.918,4.678,10.319,7.167,15.371c2.333,4.742,4.749,9.374,7.103,14.072
		c1.918,3.831,3.706,8.508,6.604,11.721c2.299,2.555,7.566,2.865,10.751,3.943c3.178,1.08,9.301,3.922,12.061,5.544
		c2.761,1.645,5.876,3.126,8.991,4.145c1.337,0.444,2.534,1.194,3.859,1.64c2.188,0.723,4.456,2.136,6.671,2.595
		c2.408,0.505,5.188-0.275,7.391,1.093c1.42,0.879,8.348,6.125,7.023,8.078c-2.208-0.794-4.124-2.266-6.27-3.047
		c-0.098,0.944,1.777,2.629,2.118,3.759c0.37,1.213,0.474,3.096-0.393,4.169c-1.173-0.192-1.94-1.991-2.521-2.859
		c-0.773-1.16-1.423-2.5-2.125-3.591c-0.02,1.245-0.236,8.604-3.028,7.054c-0.019-1.932,0.571-5.105-0.468-6.84
		c-0.683,1.16-1.004,2.849-2.356,3.479c-2.764,1.287-1.61-3.77-1.753-4.979c-0.242-1.964-1.385-2.267-3.161-2.411
		c-4.864-0.402-9.821-1.114-14.606-2.102c-3.319-0.689-9.321-2.897-12.623-3.675c-2.845-0.688-5.67-1.279-8.41-2.389
		c-1.062-0.434-2.109-0.846-3.063-1.381c-1.703-0.975-2.898-1.758-4.948-1.646C171.698,184.964,171.147,182.702,170.163,181.562z"/>
	<path d="M135.361,102.332c0.409-0.145,0.843-0.588,1.276-0.813c0.603-0.308,1.135-0.667,1.749-0.927
		c1.035-0.426,1.882-0.832,2.454-1.792c0.323,0.223,0.357,0.886,0.136,1.214c0.169-0.094,0.314-0.214,0.432-0.374
		c0.178,0.521-0.131,1.273-0.604,1.408c-0.562,0.145-1.327,0.064-1.905,0.157c-0.667,0.103-1.077,0.328-1.578,0.707
		c-0.466,0.334-1.036,0.547-1.419,1.029c-0.114-0.148-0.219-0.371-0.229-0.553"/>
	<path fill="#FFFFFF" d="M141.168,102.429c0.365,0.674,0.299,1.062-0.019,1.593c-0.716-0.861-2.531,0.075-3.49-0.257
		c0.83-0.638,2.307-1.205,3.441-0.999c0.045,0.047,0.049,0.092-0.022,0.134"/>
	<path d="M140.479,102.696c0.065,0.337,0.143,0.639-0.038,0.97c-0.157,0.298-0.401,0.493-0.67,0.172
		c-0.173-0.218-0.161-0.503-0.042-0.766c0.177-0.418,0.543-0.438,0.953-0.25"/>
	<path fill="#245977" d="M175.802,319.577c-0.135-10.19-0.511-20.436-1.302-30.634c-2.548,0.382-5.105,0.755-7.65,1.163
		c-3.066,0.495-6.256,1.233-9.451,1.814c0.022,0.104,0.052,0.203,0.074,0.306c0.315,1.43,1.211,2.66,1.396,4.097
		c0.273,2.133-0.265,23.805-0.084,28.517c0.283,7.7,2.518,15.796,3.803,23.348c0.804,4.747,1.785,9.51,2.401,14.289
		c0.847,6.616-2.06,12.78-1.543,19.387c4.18,2.283,15.678,2.551,15.966-4.205c0.148-3.557-1.807-7.648-2.503-10.926
		C173.751,351.89,175.996,334.758,175.802,319.577z"/>
	<path fill="#245977" d="M120.224,296.277c0.528-2.771,1.114-5.525,1.733-8.272c-2.948-0.454-5.896-0.856-8.854-1.128
		c-3.237-0.299-7.115-0.199-10.576-0.954c-1.099,16.076-0.939,32.264-0.306,48.366c0.161,4.062,0.379,8.12,0.613,12.178
		c0.115,2.027,0.233,4.056,0.348,6.082c0.055,0.857,0.199,1.748,0.165,2.598c-0.039,0.89-0.397,1.746-0.54,2.617
		c-0.177,1.104-0.461,2.194-0.704,3.262c-0.57,2.466-1.813,4.793-3.529,6.653c-2.183,2.378-5.075,3.758-7.962,5.21
		c-2.085,1.049-4.072,2.281-6.025,3.494c-1.105,0.688-2.835,1.021-3.749,1.932c-0.338,0.33-0.371,0.578-0.791,0.825
		c-0.428,0.248-1.105,0.229-1.598,0.226c-0.736-0.004-2.454-0.27-2.505,0.804c-0.049,1.015,1.332,2.059,2.141,2.411
		c2.305,1.012,5.086,0.998,7.544,1.193c2.664,0.206,5.375,0.483,8.022-0.088c2.975-0.643,5.915-1.078,8.906-1.564
		c1.708-0.28,3.514-0.797,5.257-0.709c1.691,0.088,3.429,0.41,5.086,0.688c1.325,0.222,2.677,0.437,4.036,0.532
		c1.351,0.101,2.533,0.081,2.678-1.512c0.241-2.712-1.121-5.531-1.71-8.129c-0.566-2.517-1.025-5.02-1.501-7.522
		c-0.359-1.883-1.213-4.256-0.657-6.127c0.649-2.195,0.881-4.593,1.202-6.863c1.066-7.591,3.141-15.848,3.139-23.568
		c0.007-4.712-1.387-26.345-1.18-28.492C119.053,298.983,119.948,297.717,120.224,296.277z"/>
	<path fill="#245977" d="M304.105,138.685c-1.219,0.505-8.801,1.937-8.873,0.683c-0.034-0.621-0.253-8.762-0.279-9.377
		c-0.031-0.568-0.177-1.074-0.158-1.73c0.047-1.35-0.458-1.809-1.694-1.058c-1.012,0.62-1.784,1.224-2.921,1.661
		c-1.095,0.408-2.483,0.543-3.43-0.149c-0.78-0.567-1.547-1.408-2.024-2.22c-0.509-0.881-0.893-1.834-1.505-2.637
		c-0.444-0.598-0.812-1.068-1.075-1.804c-0.511-1.521-0.641-3.199-1.006-4.796c-0.376-1.681-1.134-2.994-1.11-4.734
		c0.054-1.705,0.403-3.626,0.956-5.156c0.504-1.355,1.393-2.485,2.357-3.578c1.188-1.344,2.264-2.779,3.601-3.971
		c1.2-1.079,2.808-1.99,4.159-2.839c1.666-1.075,4.168-2.29,6.162-2.274c2.369,0.029,4.038,0.502,6.049,1.813
		c2.023,1.333,3.538,2.964,5.248,4.61c3.113,2.953,3.832,6.82,3.183,10.899c-0.321,2.003-1.251,3.665-2.211,5.436
		c-0.954,1.772-1.504,3.751-2.646,5.403c-0.892,1.283-1.852,2.516-2.483,3.891c-0.339,0.715-0.57,1.585-0.428,2.465
		c0.105,0.678,3.354,3.841,3.664,4.485c0.188-0.13-1.161,1.663-1.161,1.663l0,0l0,0
		C306.479,135.371,304.714,138.424,304.105,138.685z"/>
	<path fill="#FFFFFF" d="M291.813,140.824c-0.229,0.288-0.489,0.563-0.804,0.82c-0.754,0.614-1.753,0.967-2.526,1.534
		c-0.749,0.555-1.438,1.187-2.158,1.753c-0.689,0.545-0.559,0.329-0.425,1.021c0.091,0.482,0.294,0.92,0.42,1.4
		c0.311,1.207,0.296,2.555,0.453,3.787c0.324,2.552,0.161,5.12,0.448,7.666c0.773-1.096,1.848-1.305,3.026-1.744
		c0.531-0.196,1.915-1.398,2.45-1.084c0.616,0.363,0.244,2.742,0.156,3.322c-0.321,2.112-1.431,3.782-1.752,5.971
		c-0.323,2.186-0.044,4.437-0.417,6.618c-0.667,3.879-0.969,7.731-0.969,11.771c0,4.964-0.413,9.879-0.873,14.697
		c-0.446,4.76-1.872,9.326-1.5,14.133c3.517,0.505,8.37-1.952,11.682-3.216c4.94-1.891,9.778-3.368,14.697-5.417
		c2.521-1.051,2.271-0.424,2.451-3.54c0.099-1.74,0.137-3.651,0.011-5.391c-0.332-4.671-1.439-9.542-1.864-14.181
		c-0.804-8.811-1.61-18.027-1.577-27.007c-0.021-2.27-0.592-4.528-0.708-6.802c-0.048-1.057-0.107-2.255,0.266-3.269
		c0.499-1.368,1.351-1.544,2.714-1.65c0.399-0.03,0.863-0.067,1.266,0c0.286,0.045,0.541,0.218,0.834,0.138
		c0.021-1.52,0.319-3.093,0.54-4.604c0.111-0.744,0.274-1.485,0.467-2.208c0.165-0.597,0.376-1.132,0.62-1.696
		c0.107-0.257,0.334-0.57,0.191-0.832c-0.157-0.283-1.221-0.551-1.548-0.721c-0.508-0.251-0.994-0.534-1.46-0.841
		c-0.834-0.544-1.653-1.067-2.461-1.614c-0.491-0.333-0.969-0.736-1.594-0.785c-0.635-0.053-1.289,0.111-1.871,0.254
		c-0.628,0.152-1.195,0.559-1.86,0.661c-0.493,0.076-0.543-0.013-0.779,0.439c-0.203,0.383-0.338,0.766-0.486,1.164
		c-0.716,1.925-1.721,3.621-3.296,4.927c-0.816,0.678-1.689,1.507-2.756,1.745c-0.514,0.114-0.974-0.046-1.483-0.038
		c-0.681,0.011-1.366,0.09-2.051,0.09c-0.922,0-1.675-0.176-2.525-0.309C292.92,137.494,292.79,139.603,291.813,140.824z"/>
	<path fill="#FF0000" d="M286.58,122.345c0.829-0.712,2.207-0.104,2.731-0.167c-0.127,1.234-1.947,1.434-2.868,1.41
		c-1.302-0.033-2.001-0.62-2.629-1.761c0.513,0.069,1.002-0.141,1.513-0.168C285.963,121.613,285.957,122.318,286.58,122.345"/>
	<path d="M222.448,374.883c-0.129-0.809-0.04-1.723-0.045-2.481c-0.026-0.728,0.013-1.527,0.095-2.269
		c0.346-3.293,1.586-6.822,2.707-9.839c0.565-1.593,0.868-3.245,1.497-4.796c0.627-1.55,1.235-3.129,1.917-4.673
		c0.977-2.276,1.968-4.853,2.515-7.28c0.232-1.091,0.581-2.148,0.941-3.211c0.118-0.376,0.246-0.793,0.453-1.134
		c0.126-0.199,1.787-3.532,2.277-4.151c1.139-1.459,2.321-2.929,3.551-4.329c0.646-0.671,1.187-1.43,1.634-2.237
		c0.117-0.205,0.191-0.424,0.27-0.664c0.386,0.89,0.911,1.729,1.435,2.548c0.801,1.214,1.674,2.39,2.659,3.456
		c0.775,0.83,1.939,1.975,3.193,2.492c-0.244,0.34-0.455,0.709-0.7,1.041c-0.516,0.723-1.074,1.23-1.718,1.841
		c-1.501,1.472-2.313,3.294-3.703,4.869c-0.725,0.812-1.622,1.559-2.104,2.565c-0.741,1.502,0.512,1.883,1.599,2.732
		c1.493,1.159,1.65,2.262,0.812,3.836c-0.716,1.415-1.424,2.793-2.347,4.164c-0.408,0.619-2.878,2.498-3.513,2.43
		c-1.616-0.13-2.14,1.312-2.837,2.409c-0.791,1.308-1.4,2.456-2.116,3.796c-1.565,3.009-3.511,5.836-5.535,8.492
		C224.667,375.449,222.774,376.838,222.448,374.883z"/>
	<path d="M346.354,377.137c-0.513-0.129-1.031-0.265-1.496-0.46c-0.885-0.37-1.688-0.938-2.539-1.365
		c-1.825-0.923-3.736-1.739-5.656-2.542c-1.006-0.421-1.846-0.973-2.826-1.432c-1.052-0.486-2.081-0.953-3.031-1.558
		c-0.7-0.448-0.807-1.001-1.163-1.612c-0.65-1.113-1.354-2.227-1.933-3.357c-1.014-1.985-1.156-4.036-1.344-6.068
		c-0.16-1.77-0.057-3.576,0.165-5.312c0.144-1.123,0.442-2.302,0.325-3.466c-1.538-0.47-3.292-0.872-4.935-1.179
		c-1.021-0.188-2.063-0.34-3.057-0.548c-0.469-0.099-1.602-0.458-1.889-0.255c-0.366,0.255-0.488,1.113-0.524,1.488
		c-0.069,0.707-0.064,1.463,0.078,2.17c0.462,2.436,0.897,4.88,0.932,7.33c0.035,2.082,0.016,4.164-0.189,6.212
		c-0.185,1.826-0.537,3.526-1.045,5.282c-0.212,0.705-0.445,1.397-0.674,2.094c-0.212,0.624-0.549,1.264-0.632,1.914
		c-0.161,1.141,0.474,2.072,1.649,2.824c1.148,0.732,2.213,0.77,3.608,0.789c1.005,0.008,2.04,0.157,3.056,0.232
		c1.428,0.115,3.005,0.334,4.425,0.246c2.353-0.146,2.72-0.371,4.084-0.041c1.627,0.355,2.978,0.754,4.532,1.213
		c0.927,0.282,1.895,0.354,2.854,0.5c0.617,0.094,1.23,0.227,1.848,0.238c0.914,0.026,1.786-0.156,2.687-0.195
		c0.991-0.046,1.997-0.016,2.97-0.134c1.351-0.176,3.089-0.072,4.275-0.62c0.582-0.274,1.08-0.682,0.236-0.972
		c-0.611-0.22-1.25-0.501-1.852-0.655c-0.761-0.207-1.515-0.384-2.296-0.598C346.786,377.244,346.574,377.193,346.354,377.137z"/>
	<path d="M291.327,111.466c0.693,0.143,1.014,1.081,1.523,1.628c0.621,0.664,1.046,1.667-0.274,1.539
		c-0.135-0.897-0.409-1.359-0.999-1.799c-1.068-0.813-1.578-1.173-2.386-1.662C289.697,111.03,290.877,111.138,291.327,111.466"/>
	<path d="M280.52,113.858c0.496-0.996,1.166-1.405,3.336-2.821c0.123,0.174-0.138,1.106-0.168,1.311
		c-0.797,0.078-1.377,0.412-1.916,0.928c-0.308,0.307-0.519,0.482-0.831,0.836c-0.288,0.328,0.003,0.611-0.316,0.881
		C280.369,114.342,280.473,114.566,280.52,113.858"/>
	<path fill="#FFFFFF" d="M292.192,115.01c-0.126-0.09-0.237-0.241-0.371-0.325c-0.165-0.118-0.141-0.386-0.325-0.497
		c-0.336-0.206-0.795-0.336-1.202-0.4c-0.443-0.066-1.837,0.255-1.698,0.981c0.045,0.346,0.479,0.17,0.712,0.12
		c0.329-0.085,0.631-0.265,0.963-0.226c0.354,0.054,0.781,0.257,1.126,0.354c0.334,0.097,0.222,0.135,0.547,0.242
		c0.224-0.139,0.158-0.206,0.149-0.34"/>
	<path fill="#FFFFFF" d="M283.726,114.969c-0.014-0.291-0.42-0.438-0.647-0.444c-0.417-0.023-0.783,0.077-1.128,0.279
		c-0.258,0.142-0.586,0.288-0.779,0.548c-0.094,0.094-0.116,0.195-0.189,0.306c-0.066,0.11-0.233,0.222-0.233,0.337
		c0.222-0.184,0.646-0.34,0.927-0.413c0.291-0.084,0.615-0.123,0.92-0.097c0.296,0.02,0.623,0.059,0.921,0.062
		c0.38,0.008,0.134-0.391,0.089-0.625"/>
	<path fill="#245977" d="M290.704,114.767c0.033-0.048,0.045-0.124,0.085-0.181c0.033-0.062,0.088-0.1,0.132-0.152
		c0.062-0.106,0.089-0.251,0.041-0.365c-0.132-0.256-0.423-0.246-0.668-0.281c-0.11-0.013-0.225-0.006-0.359-0.021
		c-0.092-0.011-0.21,0.062-0.289,0.138c-0.209,0.185-0.105,0.594-0.024,0.822c0.046-0.014,0.012,0.034,0.012,0.034
		c0.084,0.008,0.172-0.058,0.253-0.067c0.103-0.025,0.203,0.004,0.286,0c0.076,0,0.153,0.02,0.256,0.039
		c0.06,0.019,0.17,0.051,0.214,0.051"/>
	<path d="M290.207,114.363c0.069-0.053,0.509-0.076,0.576-0.036c0.146,0.075,0.179,0.201,0.149,0.281
		c-0.028,0.184-0.285,0.253-0.538,0.165C290.172,114.685,290.104,114.501,290.207,114.363c0.069-0.088,0.612-0.248,0.64-0.084"/>
	<path fill="#245977" d="M282.915,115.344c0.016-0.066,0.026-0.135,0.053-0.207c0.016-0.064,0.066-0.123,0.101-0.191
		c0.054-0.114,0.03-0.265-0.046-0.352c-0.173-0.199-0.457-0.077-0.699-0.012c-0.126,0.026-0.232,0.07-0.373,0.092
		c-0.096,0.039-0.195,0.148-0.249,0.242c-0.182,0.236-0.012,0.597,0.125,0.779c0.05-0.006,0.021,0.047,0.021,0.047
		c0.089-0.039,0.16-0.139,0.24-0.165c0.077-0.057,0.199-0.077,0.285-0.097c0.075-0.042,0.169-0.049,0.266-0.061
		c0.062-0.02,0.166-0.027,0.227-0.045"/>
	<path d="M282.541,115.072c0.045-0.08,0.228-0.121,0.327-0.113c0.154,0.033,0.2,0.117,0.208,0.217
		c0.01,0.176-0.242,0.328-0.525,0.354c-0.244,0.014-0.348-0.154-0.276-0.314c0.06-0.109,0.579-0.464,0.633-0.308"/>
	<path fill="#245977" d="M274.654,277.403c-0.11,0.287-2.536,0.011-2.84-0.024c-0.779-0.083-1.54-0.193-2.236-0.568
		c-1.489-0.816-2.962-0.586-4.554-0.157c-0.912,0.245-1.975,0.636-2.794,1.079c-0.548,0.299-1.139,0.693-1.117,1.328
		c0.021,0.903-0.153,1.84-0.184,2.756c-0.109,3.586-0.22,6.27-1.884,9.643c-3.533,7.127-7.817,13.787-11.259,20.836
		c-1.61,3.332-3.367,6.273-4.685,9.607c-1.332,3.374-3.647,5.536-2.034,9.104c0.69,1.545,2.26,3.016,3.424,4.174
		c1.688,1.683,1.972,2.455,3.659,0.685c2.202-2.316,3.519-7.147,4.935-10.025c3.66-7.448,6.347-14.925,10.024-22.424
		c3.954-8.049,7.815-16.546,11.135-24.884C274.394,278.16,274.514,277.775,274.654,277.403z"/>
	<path d="M280.534,116.326c-1.075,0.795-5.581-7.795-2.32-7.795c-2.599-1.026-3.405-2.754-2.764-5.422
		c0.651-2.782,1.6-3.122,4.241-2.387c-1.552-1.613-1.437-3.333-0.38-5.295c1.701-3.152,5.267-3.238,8.288-2.377
		c-1.159-1.818-0.893-3.332,0.397-5.071c1.041-1.437,3.49-3.662,5.13-1.577c0.18-1.128-0.397-7.275,2.074-6.384
		c-0.39-0.954-2.108-1.452-2.71-2.677c-0.574-1.182-0.769-2.557-0.598-3.827c0.277-1.753,0.896-3.966,2.926-4.179
		c1.137-0.12,3.961,0.822,4.39,1.779c-2.938-2.336,2.97-4.602,4.81-4.405c2.141,0.225,6.133,3.461,4.97,5.901
		c-0.141,0.051-0.283,0.018-0.38-0.1c0.041-1.431,2.584-1.925,3.692-1.964c2.591-0.103,3.951,1.452,5.161,3.549
		c1.177,2.066,2.57,4.783,1.8,7.218c-0.402,1.271-1.325,1.667-2.163,2.482c0.785-1.244,2.656-0.224,3.322,0.695
		c1.038,1.459,0.878,3.553-0.003,5.176c-1.573,2.895-4.334,4.612-7.439,3.857c1.212,0.164,1.263,1.172,1.128,2.171
		c-0.266,1.906-1.526,2.347-3.321,2.442c-2.47,0.133-4.124-0.854-5.578-2.769c1.209,1.899,4.271,1.877,5.909,3.394
		c1.375,1.283,1.922,4.955,0.196,6.279c2.086,0.455,3.345,1.562,3.333,4.037c-0.006,1.773-1.194,2.099-2.185,3.152
		c2.657,0.229,0.141,7.359-3.188,6.469c-0.164,0.48-0.751,0.822-0.862,1.235c-0.172,0.605,0.259,1.408-0.052,2.231
		c-0.318,0.842-1.238,2.37-2.357,2.393c-0.69,0.016-1.25-0.271-0.63-1.152c0.108,0.272,0.065,0.303-0.019,0.685
		c-2.389,0.115-2.427-5.234-0.612-4.593c-2.327-0.195-1.29-6.628,1.195-5.658c-3.518-0.902-5.88-3.007-4.648-6.816
		c-0.899,1.678-5.189,0.425-5.083-1.534c-0.142,1.905-3.139,3.001-4.738,2.154c0.054-0.19,0.025-0.458,0.097-0.647
		c-0.773-0.299-1.64,0.646-2.302,0.393c-0.994-0.406-0.67-1.682-0.346-2.52c-0.719,1.172-1.079,2.002-2.428,2.477
		c-1.262,0.448-1.008,0.08-1.723,1.113c-0.53,0.773-0.275,0.961-1.122,1.516c-0.536,0.344-1.206,0.246-1.746,0.674
		c-0.834,0.682-0.482,0.429-0.709,1.356c-0.379,1.515-0.463,3.253-0.961,4.708c0.323,0.283,0.277,0.003,0.479-0.093"/>
	<path fill="#FFFFFF" d="M292.189,119.365c0.354-0.129,1.549-1.12,2.182-1.562c0.907-0.626,1.764-1.15,2.721-1.95
		c1.362-1.131,3.698-4.127,4.818-4.689c-0.664,1.285-1.657,2.044-2.402,2.748c-0.913,0.849-1.827,1.803-2.745,2.661
		c-0.741,0.707-4.458,3.241-4.73,3.849"/>
	<path fill="#FFFFFF" d="M292.614,122.811c0.582-0.095,2.074-1.462,2.82-1.979c1.222-0.852,2.01-1.791,2.981-2.955
		c0.934-1.114,1.767-2.341,2.583-3.55c0.473-0.69,1.237-2.46,1.995-2.677c-0.049,0.325-0.519,0.784-0.735,1.061
		c-0.248,0.328-0.442,0.627-0.684,0.961c-0.494,0.691-1.114,1.346-1.685,1.969c-0.616,0.667-1.179,1.399-1.776,2.08
		c-0.589,0.665-1.113,1.347-1.793,1.938c-1.035,0.914-2.119,1.78-3.232,2.604"/>
	<line fill="#FFFFFF" x1="290.095" y1="124.338" x2="290.157" y2="124.354"/>
	<path fill="#FFFFFF" d="M285.57,117.578c0.896-0.531,1.612,0.057,2.315,0.519c0.773,0.501,1.831,0.837,2.779,1.079
		c0.491,0.127,1.008,0.225,1.455,0.433c0.464,0.217,0.468,0.83,0.612,1.31c0.321,1.056,0.51,2.333,0.333,3.416
		c-0.18,1.113-0.758,2.17-1.393,3.059c-0.645,0.904-1.822,1.784-2.878,2.13c-1.03,0.328-2.332,0.109-3.327-0.342
		c-0.858-0.392-1.482-1.315-1.964-2.093c-0.552-0.901-1.052-1.769-1.484-2.733c-0.188-0.41-0.388-0.808-0.535-1.24
		c-0.154-0.437,0.005-1.118,0.16-1.569c0.159-0.494,0.446-1.012,0.758-1.437c0.429-0.585,1.025-1.037,1.659-1.362
		C284.653,118.443,285.012,117.916,285.57,117.578z"/>
	<path d="M283.673,115.253c0.064,0.198-0.562,1.63,0.103,1.276c0.444-0.232-0.236-1.059-0.058-1.453"/>
	<path fill="#FFFFFF" d="M282.268,120.327c-0.248,0.057-0.707-0.881-0.8-1.138c-0.143-0.409-0.122-0.918-0.274-1.281
		c-0.327,0.801,0.293,2.293,0.88,2.939"/>
	<path fill="#FD1813" d="M181.007,298.801c-0.311-0.25-1.39-0.49-1.565-0.771c-0.79-1.26,0.025-0.405,0.313-1.455
		c0.57-2.108,1.956-2.428-0.219-4.312c-1.33-1.153-2.412-0.438-2.524-2.669c-0.085-1.617,0.659-2.472,0.05-4.022
		c-0.617-1.584-2.569-2.196-3.116-3.912c-0.884-2.774-0.916-7.44-1.419-10.506c-0.446-2.681-0.438-5.143-0.658-7.854
		c-0.397-4.95-1.419-10.057-1.828-14.989c-0.93-11.212-1.48-22.212-3.394-33.21c-1.96-11.238-5.627-21.967-8.544-32.924
		c-1.688-6.348-2.779-13.544-3.851-20.166c-0.36-2.23-1.138-4.719-1.341-7.149c-0.788-9.397,0.387-18.92-0.413-28.353
		c-1.324-0.148-2.372,0.518-3.767,0.389c0.409,6.363-4.859,17.454-11.732,18.89c-1.387,0.287-2.824,0.237-4.186-0.144
		c-0.581-0.163-1.114-0.402-1.667-0.628c-0.141-0.058-0.274-0.106-0.41-0.171c-0.311-0.142-0.571-0.376-0.841-0.576
		c-0.245-0.185-0.508-0.362-0.768-0.527c-0.2-0.129-0.403-0.263-0.593-0.404c-0.223-0.164-0.421-0.366-0.646-0.536
		c-0.618-0.473-1.178-1.073-1.638-1.701c-0.432-0.593-0.95-1.132-1.325-1.762c-0.608-1.028-1.125-2.081-1.351-3.254
		c-0.119-0.61-0.39-1.19-0.521-1.804c-0.065-0.302-0.139-0.604-0.184-0.91c-0.029-0.203-0.074-0.4-0.106-0.601
		c-0.019-0.114,0.002-0.304-0.06-0.405c-0.059-0.095-0.191-0.111-0.298-0.134c-0.283-0.058-0.575-0.043-0.861-0.088
		c-0.452-0.068-0.923-0.183-1.358-0.337c-0.468-0.162-0.905-0.363-1.364-0.549c-0.213-0.085-0.431-0.189-0.645-0.266
		c-0.161-0.057-0.507-0.18-0.592,0.019c-0.045,0.108-0.037,0.269-0.051,0.385c-0.035,0.327-0.075,0.653-0.114,0.979
		c-0.127,1.083-0.297,2.172-0.36,3.26c0.05,2.209-0.13,4.464-0.452,6.723c-0.148,1.678-0.338,3.346-0.566,5.006
		c-0.073,0.553-0.153,1.103-0.257,1.646c-0.479,3.102-1.087,6.183-1.769,9.252c-0.662,5.293-1.282,10.588-2.852,15.648
		c-0.03,0.195-0.077,0.39-0.1,0.584c-0.972,7.595-2.207,15.456-3.088,22.828c-1.041,8.709-0.755,17.292-1.416,26.132
		c-1.45,19.384-1.562,38.717-4.865,57.935c-0.506,2.926-0.207,5.931-1.968,8.08c-1.5,1.835-3.216,3.92,0.729,3.672
		c-0.117,1.32-1.802,1.478-2.192,2.736c-0.496,1.609,0.628,2.361,1.429,3.422c-0.995,0.596-3.426,0.961-3.002,2.617
		c0.391,1.524,3.458,1.256,4.595,1.341c3.451,0.257,6.839,1.501,10.398,1.769c2.857,0.219,7.529,1.832,10.186,1.279
		c1.676-0.349,2.438-1.822,2.331-3.523c-0.107-1.672-1.81-2.199-1.959-3.474c-0.23-1.91,2.529-2.105,2.379-3.936
		c-0.082-1.042-0.882-0.73-1.186-1.427c-0.129-0.287-1.036-0.229-1.125-0.571c-0.255-0.938,0.627-0.437,0.745-0.972
		c0.261-1.19,1.437-2.095,1.175-3.603c-0.304-1.745-1.606-2.246-1.582-4.271c0.053-4.936,1.913-9.358,3.468-13.995
		c1.748-5.197,3.556-10.379,5.562-15.486c4.008,5.371,6.564,11.354,8.934,17.79c2.089,5.67,4.182,12.499,8.232,17.053
		c1.672,1.885,4.053,3.882,3.36,6.156c-0.852,2.809-2.878,2.992-0.03,5.171c1.508,1.156,1.301,0.414,0.862,2.029
		c-0.358,1.316-1.647,1.764-1.203,3.363c3.227,0.287,4.988,0.981,8.099,1.241c3.3,0.28,7.194,0.282,10.489-0.019
		c3.402-0.312,7.421-0.119,9.688-2.631C181.915,303.198,183.694,300.958,181.007,298.801z"/>
	<path fill="#FFFFFF" d="M113.964,289.055c-4.879-0.674-9.525-2.219-12.576-5.152c-0.121,1.26-0.275,2.474-0.64,3.586
		C105.196,288.381,109.391,289.966,113.964,289.055z"/>
	<path fill="#FFFFFF" d="M108.503,293.63c4.437,1.04,9.486,1.132,14.069-0.044c-0.129-0.053-0.232-0.114-0.259-0.214
		c-0.255-0.938,0.627-0.437,0.745-0.972c0.203-0.931,0.942-1.691,1.146-2.699c-4.823,1.237-9.753,2.156-14.663,2.507
		c-2.335,0.165-5.206,0.306-7.92-0.054c1.608,1.068,3.647,1.701,5.771,2.099C107.562,293.834,107.943,293.498,108.503,293.63z"/>
	<path fill="#FFFFFF" d="M112.568,303.52c-4.44-0.943-9.103-2.331-13.163-4.572c0.094,0.117,0.199,0.229,0.291,0.35
		c-0.995,0.596-3.426,0.961-3.002,2.617c0.391,1.524,3.458,1.256,4.595,1.341c3.451,0.257,6.839,1.501,10.398,1.769
		c2.857,0.219,7.529,1.832,10.186,1.279c1.528-0.318,2.255-1.582,2.301-3.082C120.729,304.908,116.112,304.27,112.568,303.52z"/>
	<path fill="#FFFFFF" d="M111.445,298.893c3.932,0.994,7.874,1.89,11.907,2.174c-0.494-0.568-1.024-1.063-1.107-1.761
		c-0.138-1.149,0.799-1.677,1.536-2.313c-4.53,0.039-9.051,0.016-13.579-0.496c-3.276-0.371-7.093-0.988-9.929-2.91
		c-0.296,0.613-0.956,0.965-1.461,1.463C103.079,295.914,107.212,297.816,111.445,298.893z"/>
	<path fill="#FFFFFF" d="M177.062,285.571c-0.082-0.202-0.227-0.356-0.341-0.528c-3.655,2.913-7.51,5.643-11.845,7.269
		c-3.65,1.368-7.322,1.856-11.038,1.864c3.549,0.734,7.013,0.873,10.731-0.057c0.438-0.112,0.736,0.1,0.946,0.379
		c0.804-0.174,1.613-0.322,2.404-0.544c3.349-0.925,6.358-2.288,9.133-4.028c-0.016-0.109-0.034-0.201-0.041-0.332
		C176.927,287.977,177.671,287.122,177.062,285.571z"/>
	<path fill="#FFFFFF" d="M155.522,297.759c-0.051,0-0.065-0.042-0.111-0.05c-1.383,0.111-2.763,0.214-4.146,0.317
		c-0.348,0.567-0.608,0.992-0.528,1.47c10.228,0.847,20.287,0.211,29.493-4.137c0.439-0.896,0.746-1.439,0.013-2.355
		C173.437,298.359,163.798,297.785,155.522,297.759z"/>
	<path fill="#FFFFFF" d="M166.791,302.413c5.011,0.038,10.006,0.337,15.004,0.591c0.804-1.379,0.954-2.808-0.788-4.203
		c-0.311-0.25-1.39-0.49-1.565-0.771c-0.043-0.072-0.038-0.081-0.071-0.14c-7.612,3.21-15.763,4.09-24.094,3.792
		C158.93,302.759,163.014,302.384,166.791,302.413z"/>
	<path fill="#FFFFFF" d="M169.646,306.172c-5.084-0.172-11.683-0.223-16.998-2.089c-0.494,0.765-1.149,1.315-0.812,2.524
		c3.227,0.287,4.988,0.981,8.099,1.241c3.3,0.28,7.194,0.282,10.489-0.019c2.874-0.261,6.173-0.184,8.497-1.658
		C175.648,306.363,172.395,306.264,169.646,306.172z"/>
	<path fill="#FFFFFF" d="M154.052,159.45c-0.031-0.185-0.083-0.387-0.117-0.575c-3.951,2.373-12.153,2.691-14.421,2.761
		c-6.192,0.19-12.509-0.112-18.597-1.34c-2.232-0.447-4.64-1.061-6.871-1.983c-0.022,0.104-0.049,0.206-0.077,0.312
		c-0.228,1.871-0.471,3.739-0.734,5.599c6.736,2.761,14.9,3.879,21.449,4.666c3.844,0.46,14.929,2.033,20.924-0.509
		C155.051,165.375,154.523,162.373,154.052,159.45z"/>
	<path fill="#FFFFFF" d="M151.569,147.606c-1.566,0.53-3.07,1.808-4.636,2.466c-3.399,1.428-7.04,2.244-10.703,2.58
		c-3.674,0.333-7.396,0.19-11.036-0.379c-0.811-0.128-7.321-1.367-9.55-2.339c-0.226,1.394-0.47,2.783-0.741,4.164
		c11.658,2.572,23.699,2.669,35.03-1.133c0.513-0.172,1.323-0.322,1.801-0.594c0.892-0.505,0.764-0.513,0.841-1.55
		c0.058-0.773,0.214-1.615,0.129-2.389C152.579,147.262,152.638,147.248,151.569,147.606z"/>
	<path fill="#FFFFFF" d="M123.763,136.871c-2.011-0.199-4.785,0.352-6.687-0.359c0.003,1.875-0.111,3.742-0.318,5.609
		c1.884,0.584,3.875,0.974,5.804,1.233c0.442,0.059,0.887,0.111,1.332,0.157c0.332,0.033,0.65-0.002,0.985,0.033
		c0.845,0.091,1.698-0.053,2.537,0.101c0.531,0.097,1.08,0.204,1.587,0.384c0.31,0.111,0.574,0.265,0.91,0.236
		c-0.107-0.135-0.334-0.252-0.472-0.359c-0.149-0.115-0.31-0.221-0.458-0.322c-0.277-0.189-0.559-0.313-0.819-0.54
		c-0.299-0.263-0.606-0.498-0.886-0.782c-0.343-0.35-0.689-0.693-1.003-1.07C125.215,139.92,124.295,138.444,123.763,136.871z"/>
	<path fill="#FFFFFF" d="M144.181,140.354c-0.018,0.023-0.034,0.048-0.054,0.073c0.177,0.019,0.369,0.081,0.541,0.019
		c0.166-0.058,0.273-0.086,0.459-0.086c0.396-0.003,0.794-0.008,1.191-0.02c0.841-0.021,1.683-0.068,2.518-0.176
		c1.064-0.135,2.158-0.356,3.111-0.867c1.231-0.662,0.597-1.5,0.639-2.852c0.04-1.309,0.276-2.603,0.158-3.919
		c-0.924-0.134-1.513,0.161-2.362,0.382c-0.561,0.146-1.162,0.052-1.734,0.06c-0.201,0.001-0.646-0.028-0.813,0.11
		c-0.069,0.056-0.069,0.201-0.097,0.291c-0.034,0.105-0.085,0.205-0.112,0.31c-0.058,0.199-0.124,0.394-0.228,0.573
		c-0.233,0.405-0.454,0.82-0.653,1.244c-0.429,0.911-0.71,1.896-1.19,2.783c-0.22,0.405-0.399,0.79-0.688,1.16
		C144.634,139.74,144.407,140.053,144.181,140.354z"/>
	<path fill="#FFFFFF" d="M156.157,174.01c-1.249,1.033-2.855,1.094-4.327,1.534c-1.796,0.532-3.554,0.935-5.434,1.149
		c-3.719,0.424-7.487,0.363-11.214,0.055c-7.685-0.636-16.491-2.109-22.974-6.727c-0.315,1.416-0.704,2.816-1.149,4.202
		c9.833,9.788,26.335,10.596,38.694,5.754c2.507-0.979,4.597-2.562,6.966-3.689C156.923,175.518,156.451,174.649,156.157,174.01z"/>
	<path d="M142.826,77.855c0.286,0,0.563-0.174,0.829-0.236c0.407-0.098,0.901-0.127,1.314-0.082c0.852,0.1,1.943,0.675,2.534,1.276
		c0.728,0.745,1.129,1.757,1.333,2.763c0.032,0.188,0.078,0.428,0.078,0.617c0.211,0.014,0.451-0.031,0.658,0.002
		c0.648,0.113,1.271,0.721,1.646,1.227c0.77,1.035,0.847,2.258,0.644,3.502c-0.08,0.484-0.181,0.957-0.31,1.432
		c-0.031,0.118-0.25,0.607-0.123,0.752c0.149,0.171,0.41,0.051,0.601,0.254c0.505,0.536,0.467,1.489,0.384,2.159
		c-0.115,0.938,0.359,1.677,0.413,2.575c0.038,0.689-0.17,1.322-0.31,1.941c-0.304,1.328-1.287,1.543-2.214,2.312
		c-0.283,0.237-0.593,0.39-0.909,0.547c0.058-0.318-0.118-0.597-0.166-0.896c-0.114-0.711-0.328-1.37-0.46-2.082
		c-0.038-0.23-0.008-0.646-0.229-0.8c-0.261-0.183-0.784-0.012-1.09-0.058c-0.437-0.064-0.59-0.326-0.732-0.67
		c-0.41,0.72-1.266,0.873-2.035,0.67c-2.394-0.613-3.341-0.998-5.202,0.812c-0.83,0.804-2.248,2.114-3.529,1.845
		c-1.19-0.252-1.122-1.492-2.316-1.063c-0.797,0.284-1.017,1.67-1.913,1.905c-1.401,0.368-2.196-1.515-3.343-2.062
		c0.047,1.217-1.188,2.438-1.925,3.361c1.552,0.08,2.543,2.996,2.873,4.195c0.595,2.191-1.342,4.186-3.409,2.729
		c0.481,1.328,1.074,2.775,1.195,4.133c0.14,1.588-1.366,3.997-3.153,2.986c1.154,2.201,1.875,3.945-1.252,4.126
		c-3.204,0.185-5.1-1.569-6.817-3.9c-0.137,1.076,0.146,2.059-0.784,2.867c-1.031,0.896-2.832,0.636-3.97,0.237
		c-2.74-0.965-3.956-3.334-2.496-5.888c-1.702-0.917-2.794-2.312-3.399-4.146c-0.323-0.994-0.663-2.33-0.43-3.391
		c0.213-0.938,1.576-1.471,1.68-2.001c0.086-0.452-0.543-1.214-0.761-1.653c-0.485-1.003-0.672-1.961-0.672-3.069
		c0-2.669,1.905-4.812,4.409-4.935c-1.606-3.726,1.861-10.259,6.346-9.938c-1.572-1.512,0.451-5.393,1.975-6.321
		c2.148-1.314,3.752,0.071,5.166,1.632c-0.25-1.817,1.779-3.805,3.432-4.098c2.145-0.384,3.51,0.791,4.946,2.139
		c0.454-1.17,1.711-1.714,2.878-1.883c1.37-0.191,1.888,0.456,2.992,0.93c1.016,0.428,6.396,0.739,5.158,2.982
		C142.454,77.756,142.631,77.855,142.826,77.855z"/>
	<g>
		
			<pattern  id="SVGID_1_" xlink:href="#Neues_Musterfeld_4" patternTransform="matrix(-1.1756 1.7008 -1.7008 -1.1756 -23282.9883 2282.0435)">
		</pattern>
		<path fill="url(#SVGID_1_)" d="M124.97,69.852c-2.005-2.027-4.069-3.999-6.093-5.998c-0.95-0.952-2.229-2.916-3.43-3.482
			c-1.034,1.036-0.415,3.379-0.438,4.664c-0.062,1.72,0.329,3.347,0.476,5.079c0.169,2.126,0.474,4.198,0.45,6.33
			c-0.006,0.617-0.091,1.263,0.04,1.848c0.103,0.451,0.126,0.907,0.206,1.364c0.091,0.538,0.244,1.105,0.299,1.651
			c0.045,0.464-0.062,1.03,0.085,1.474c0.132,0.415,0.48,0.46,0.879,0.594c1.043,0.356,2.128,0.64,3.23,0.731
			c1.443,0.118,2.971,0.284,4.406-0.047c1.65-0.379,3.409-1.159,4.506-2.44c0.619-0.721,1.149-1.476,1.721-2.221
			c0.404-0.521,1.087-1.459,1.007-2.16c-0.038-0.344-0.348-0.559-0.585-0.817c-0.172-0.196-0.345-0.399-0.521-0.59
			c-0.384-0.414-0.916-0.633-1.335-0.988c-0.588-0.501-1.131-1.071-1.666-1.617C127.113,72.113,126.062,70.962,124.97,69.852z"/>
		<path d="M114.628,60.857c-0.502-0.429,0.173,0.06,0.32,0.143c0.939-1.486,3.139-2.188,2.482-4.17
			c-0.698-2.116-3.425-1.913-5.019-1.223c-5.654,2.456-2.391,9.065,2.572,5.498"/>
		<path fill="#FFFFFF" d="M124.802,76.306c1.06-1.316-3.242-3.017-4.355-0.696c-1.654,3.441,5.282,2.67,4.309,0.485"/>
	</g>
	<path fill="#FFFFFF" d="M139.192,109.392c0.296-0.401,0.773-0.543,1.204-0.762c0.465-0.241,0.849-0.624,1.284-0.907
		c0.582-0.384,1.138-0.68,1.643-1.152c0.439-0.406,0.88-0.711,1.176-1.236c0.287-0.513,0.578-1.032,0.995-1.455
		c0.371-0.373,0.88-0.359,1.33-0.32c0.411,0.033,0.881-0.053,1.234,0.215c0.157,0.121,0.195,0.287,0.326,0.42
		c0.193,0.202,0.478,0.325,0.707,0.482c0.31,0.206,0.667,0.23,0.964,0.43c0.444,0.289,0.614,1.323,0.766,1.822
		c0.224,0.707,0.353,1.38,0.353,2.143c0,0.462,0.034,0.938,0.004,1.396c-0.089,1.253-0.379,2.508-0.57,3.748
		c-0.092,0.616-0.256,1.24-0.479,1.828c-0.192,0.514-0.429,0.912-0.716,1.373c-0.275,0.439-0.445,1.079-0.873,1.391
		c-0.383,0.285-0.807,0.434-1.285,0.43c-0.598-0.004-1.022-0.152-1.596-0.26c-0.486-0.092-0.924-0.115-1.4-0.241
		c-0.944-0.25-2.172-0.927-2.885-1.581c-0.91-0.834-1.736-1.59-2.372-2.649c-0.31-0.516-0.862-0.872-1.397-1.155
		c-0.696-0.363-1.488-0.531-2.159-0.963c-1.226-0.783-2.507-1.469-3.688-2.322c-0.766-0.551-1.551-1.254-2.156-1.979
		c-0.264-0.316-1.178-1.043-0.827-1.519c0.407,0.306,0.714,0.765,1.087,1.125c0.736,0.7,1.543,1.302,2.396,1.853
		c1.314,0.842,2.715,1.637,4.06,2.447c0.723,0.434,1.853,0.699,2.426,0.998"/>
	<path fill="#FFFFFF" d="M148.356,101.108c-0.053,0.28-1.155,0.467-1.465,0.44c0.255,0.557,1.26,0.819,1.699,1.205
		c0.042-0.406,0.141-1.431-0.172-1.706"/>
	<path d="M148.957,99.004c0,0-1.434,0.172-1.7,0.214c-0.679,0.11-0.872-0.54-1.296-0.858c-0.092,0.219-0.042,0.468,0.037,0.659
		c-0.142-0.007-0.291-0.042-0.412-0.068c0.214,1.339,3.972,1.706,3.489-0.021"/>
	<path d="M147.929,101.477c-0.177,0.264,0.177,1.266,0.504,0.75c0.07-0.107,0.116-0.624,0.05-0.754
		c-0.164-0.326-0.494-0.197-0.554,0.125"/>
	<path fill="#FFFFFF" d="M139.599,109.01c-0.313-0.241-0.911-0.17-1.301-0.291c-0.597-0.195-1.225-0.338-1.808-0.584
		c-0.962-0.4-1.858-0.921-2.755-1.406c-0.742-0.406-1.471-0.813-2.266-1.135c-0.678-0.271-1.326-0.505-1.964-0.803
		c-0.012,0.152-0.016,0.314,0,0.471c0.548,0.236,1.048,0.593,1.577,0.885c0.831,0.45,1.684,0.766,2.561,1.103
		c0.955,0.362,1.895,0.761,2.843,1.164c0.862,0.358,1.804,0.911,2.745,1.025"/>
	<path fill="#FFFFFF" d="M115.323,188.873c-0.565-0.391-2.001,2.978,0.6,3.346c2.494,0.348,1.755-3.231-0.4-3.346"/>
	<path fill="#FFFFFF" d="M129.068,197.037c-2.056,0.199-1.327,3.571,0.392,3.989c3.344,0.813,2.066-4.08-0.392-3.591"/>
	<path fill="#FFFFFF" d="M146.993,193.252c-2.387,0.635-0.016,4.834,1.65,2.996c1.803-1.985-1.137-4.229-3.042-3.195"/>
	<path fill="#FFFFFF" d="M133.249,188.271c-0.654,1.83,1.237,4.295,3.312,2.959c2.866-1.842-2.007-5.171-3.109-3.157"/>
	<path fill="#FFFFFF" d="M115.125,204.41c0.448,0.564-0.026,1.478,0.994,1.971c0.684,0.33,1.896-0.051,2.352-0.625
		c1.757-2.211-2.816-4.142-2.948-2.343"/>
	<path fill="#FFFFFF" d="M122.492,213.972c-0.971-0.49-1.282,5.041,1.604,3.952c3.343-1.254-0.888-6.034-2.4-3.555"/>
	<path fill="#FFFFFF" d="M136.836,210.98c-2.239-1.291-2.783,4.464,0.207,4.393c2.824-0.07,1.729-4.212-1.005-3.795"/>
	<path fill="#FFFFFF" d="M152.973,207.996c-2.927-0.211-2.563,4.808,0.198,3.95c1.203-0.374,1.773-2.143,1.105-3.138
		c-0.601-0.894-1.551-0.805-2.503-0.812"/>
	<path fill="#FFFFFF" d="M156.756,195.645c-1.705,0.892-0.22,5.041,1.993,3.74c2.361-1.391,0.382-3.641-1.591-3.541"/>
	<path fill="#FFFFFF" d="M155.163,181.701c-1.026,0.646-0.903,4.934,1.236,3.845c2.098-1.06-0.511-4.695-2.232-3.447"/>
	<path fill="#FFFFFF" d="M145.004,184.088c-1.171,1.918,1.535,3.143,3.15,2.454c2.904-1.251-1.141-4.669-2.553-2.852"/>
	<path fill="#FFFFFF" d="M126.875,184.49c-0.914,0.597-0.657,3.707,1.438,3.201c2.395-0.584,0.642-4.583-0.839-3.604"/>
	<path fill="#FFFFFF" d="M113.727,181.102c-1.962,0.085-1.58,3.74,0.588,3.587c0.979-0.071,2.055-1.044,1.584-2.191
		c-0.456-1.095-1.826-1.177-2.767-1.196"/>
	<path fill="#FFFFFF" d="M109.344,196.043c-0.925,1.362-0.66,4.757,1.65,4.387c2.3-0.373,0.819-3.939-1.25-3.592"/>
	<path fill="#FFFFFF" d="M111.34,215.762c-1.229-0.781-1.635-0.118-1.803,1.256c-0.177,1.443,0.046,3.201,1.896,2.886
		c1.013-0.167,2.339-1.562,2.078-2.7c-0.225-0.97-2.531-2.762-3.365-1.641"/>
	<path fill="#FFFFFF" d="M124.09,228.91c-1.257-0.045-1.784,0.356-2.006,1.686c-0.206,1.243-0.082,2.962,1.397,3.302
		c4.271,0.985,2.142-6.161,0.206-4.59"/>
	<path fill="#FFFFFF" d="M139.826,225.723c-1.24,0.016-2.11-0.064-2.753,1.232c-0.631,1.285-0.888,3.612,0.704,4.271
		c1.237,0.513,2.775-0.551,3.208-1.707c0.436-1.179-0.739-3.797-2.156-3.599"/>
	<path fill="#FFFFFF" d="M141.816,201.221c-3.599,0.866-1.406,5.78,1.955,4.999c4.409-1.021-1.141-6.414-1.955-4.402"/>
	<path fill="#FFFFFF" d="M162.534,213.573c-1.402,0.788-2.342,1.539-2.393,3.233c-0.042,1.501,0.709,2.534,2.189,2.897
		c5.095,1.257,2.061-6.782-0.194-5.732"/>
	<path fill="#FFFFFF" d="M149.388,218.752c-1.839,0.375-1.839,3.342-0.563,4.349c1.174,0.927,3.57,0.352,4.02-1.106
		c0.589-1.895-3.552-4.566-3.854-2.446"/>
	<path fill="#FFFFFF" d="M160.342,227.518c-2.848-3.097-5.275,5.201-1.146,5.387c5.088,0.229,1.447-8.307-1.441-5.188"/>
	<path fill="#FFFFFF" d="M147.192,232.895c-2.318,0.35-0.653,7.303,2.929,5.596c3.64-1.737-0.509-7.531-2.729-4.998"/>
	<path fill="#FFFFFF" d="M160.939,240.064c-3.532-2.836-5.134,5.756-1.054,5.193c4.945-0.678,0.796-7.735-2.131-5.393"/>
	<path fill="#FFFFFF" d="M144.606,248.232c-0.303,1.007-0.575,2.08-0.016,3.031c0.758,1.291,2.318,1.451,3.367,0.359
		c2.274-2.361-1.698-5.883-4.148-4.385"/>
	<path fill="#FFFFFF" d="M133.85,240.064c-1.032,2.083-0.696,5.072,2.342,4.586c3.483-0.555,1.409-5.222-1.346-4.586"/>
	<path fill="#FFFFFF" d="M117.911,243.253c-0.171,1.584-1.202,4.692,1.938,4.39c1.277-0.123,3.498-1.063,3.023-2.789
		c-0.455-1.662-3.258-2.527-4.763-2.398"/>
	<path fill="#FFFFFF" d="M111.737,231.502c-0.814,1.489-1.281,6.115,1.947,4.553c2.267-1.092-0.248-5.182-2.145-4.752"/>
	<path fill="#FFFFFF" d="M106.758,224.129c-1.222,1.012-0.616,4.487,1.79,4.185c2.509-0.321,1.831-4.805-0.597-4.781"/>
	<path fill="#FFFFFF" d="M107.354,248.033c-1.713,0.005-2.05,6.145,1.285,5.539c4.726-0.854-0.234-7.006-1.285-5.937"/>
	<path fill="#FFFFFF" d="M119.907,256.003c-1.514,0.011-1.773,0.194-2.003,1.75c-0.278,1.831,0.796,3.311,2.798,2.839
		c4.149-0.972,1.52-6.131-1.795-5.982"/>
	<path fill="#FFFFFF" d="M105.563,265.365c-1.375,2.002,0.788,6.112,3,3.789c1.766-1.855-1.014-4.941-3.181-4.355
		c-0.049,0.119-0.053,0.241-0.018,0.367"/>
	<path fill="#FFFFFF" d="M119.106,268.354c-1.846-0.444-2.271,5.857,0.894,5.39c1.499-0.218,2.627-2.293,2.084-3.752
		c-0.364-0.977-2.663-2.525-3.375-1.24"/>
	<path fill="#FFFFFF" d="M110.146,274.529c-1.117,2.162,0.746,6.465,3.395,4.236c1.222-1.029,0.957-2.51-0.096-3.535
		c-1.15-1.127-2.178-1.647-3.299-0.503"/>
	<path fill="#FFFFFF" d="M118.907,281.699c-2.051-0.533-3.403,5.021-0.65,5.537c2.652,0.494,5.972-3.833,2.445-5.14"/>
	<path fill="#FFFFFF" d="M129.865,249.227c-2.771-0.562-4.413,4.731-1.18,5.352c3.683,0.705,4.384-5.365,1.18-5.152"/>
	<path fill="#FFFFFF" d="M146.197,258.789c-4.237-2.177-6.036,6.916-1.481,5.995c3.897-0.793,2.049-5.941-1.305-5.793"/>
	<path fill="#FFFFFF" d="M153.769,255.604c-3.429-0.822-3.78,5.219-0.397,5c3.556-0.229,1.087-5.906-1.397-5.596"/>
	<path fill="#FFFFFF" d="M167.315,252.219c-1.029,0-1.963-0.178-2.791,0.397c-1.522,1.047-1.837,4.087-0.211,5.147
		c1.759,1.144,4.199-0.367,4.383-2.365c0.083-0.881-1.051-3.824-2.377-3.578"/>
	<path fill="#FFFFFF" d="M160.54,263.172c-2.53-0.252-2.942,6.726,1.154,5.551c3.734-1.072,1.339-7.499-1.95-5.949"/>
	<path fill="#FFFFFF" d="M151.773,267.555c-2.183,0.192-1.53,6.323,1.644,5.147c5.054-1.871-1.156-8.206-2.039-5.546"/>
	<path fill="#FFFFFF" d="M152.376,278.713c-3.021-0.354-3.422,5.025-0.299,4.987c1.164-0.015,2.694-1.375,2.54-2.7
		c-0.12-1.047-2.214-4.006-3.638-3.684"/>
	<path fill="#FFFFFF" d="M166.116,273.135c-2.553-0.401-3.934,7.599,0.217,6.087c2.815-1.026,1.832-5.199-1.012-5.091"/>
	<path fill="#FFFFFF" d="M169.903,266.36c-2.033,0.122-1.689,4.62,0.451,4.988c2.732,0.474,2.282-3.859,0.345-4.392"/>
	<path fill="#FFFFFF" d="M166.116,284.09c-0.923-0.18-1.768-0.249-2.556,1.029c-0.911,1.479-0.656,3.809,1.167,4.419
		c1.846,0.61,3.693-1.736,3.396-3.473c-0.309-1.806-2.231-2.247-3.798-2.174"/>
	<path fill="#FFFFFF" d="M153.969,286.479c-2.139,0.757-1.8,4.383,0.597,4.587c3.362,0.296,4.299-5.373,0.598-5.186"/>
	<path fill="#FFFFFF" d="M140.622,274.927c1.292-0.257,2.564-1.366,3.232,0.555c0.469,1.358-0.018,3.3-1.193,4.198
		c-1.08-1.668-1.243-3.381-1.243-5.35"/>
	<path fill="#FFFFFF" d="M104.366,278.314c-1.097,0.945-2.13,3.227,0.212,3.746c1.269,0.283,2.459-0.838,2.39-2.124
		c-0.065-1.24-1.305-1.807-2.402-2.021"/>
	<path fill="#245977" d="M319.196,132.866c2.858,2.174,6.213,3.958,9.306,5.838c4.2,2.56,8.512,4.961,12.776,7.356
		c4.316,2.422,8.812,4.662,13.282,6.771c0.636,0.298,1.232,0.661,1.838,1.037c1.286,0.804,2.641,1.428,4.042,1.934
		c1.301,0.467,2.594,0.845,3.843,1.396c1.331,0.578,2.552,1.331,3.865,1.938c2.479,1.14,5.129,1.945,7.726,2.816
		c2.625,0.885,5.322,1.646,7.982,2.044c3.736,0.559,7.495,0.946,11.27,1.161c1.956,0.106,3.92,0.174,5.88,0.187
		c1.646,0.011,2.507-1.401,4.093-1.612c1.774-0.237,3.333,0.498,5.062,0.49c0.928-0.004,1.854-0.004,2.775,0
		c0.91,0.004,2.63-0.421,3.479-0.4c0.959,2.924-5.283,1.764-6.231,3.053c0.199,0.265,0.304,0.586,0.277,0.916
		c-0.755,0.137-1.908,0.125-2.559,0.569c-0.52,0.359-0.597,1.032-1.055,1.47c-0.966,0.914-2.665,0.965-3.901,0.785
		c-1.042-0.149-1.979-0.365-3.065-0.365c-0.808,0-1.477-0.062-2.25,0.197c-0.589,0.195-0.984,0.318-1.605,0.337
		c-1.718,0.058-3.447-0.009-5.171-0.03c-9.277-0.128-18.429-3.484-27.046-6.7c-3.372-1.258-6.714-2.827-10.151-3.919
		c-3.387-1.071-7.005-2.035-10.166-3.556c-7.172-3.44-14.388-7.108-21.228-11.097c-2.099-1.225-4.321-2.822-6.051-4.402
		c-1.375-1.263-1.598-2.346-1.59-4.175c0.004-1.524,0.047-3.652,1.795-4.202"/>
	<path fill="#245977" d="M326.021,336.215c0,3.025-0.091,6.049-0.304,9.068c-0.161,2.234,0.162,5.363-1.266,7.234
		c-0.692,0.906-1.569,1.366-2.621,1.734c-3.128,1.093-3.372-2.729-3.567-4.781c-0.233-2.504-1.179-4.908-1.383-7.414
		c-0.298-3.647-0.004-7.441-0.004-11.101c0-7.353,0.165-14.542-1.163-21.558c-1.269-6.698-2.469-13.324-3.921-19.742
		c-0.849-3.756-0.826-7.812-1.45-11.613c-0.523-3.181-1.936-6.373-1.859-9.699c2.056-0.566,3.725,0.543,5.78,0.547
		c1.992,0.008,3.7-1.187,5.879-0.644c4.239,1.058,2.614,7.023,2.614,11.101c0.003,9.596,0.991,19.321,2.631,28.758
		C326.994,317.356,326.026,326.692,326.021,336.215z"/>
	<path fill="#FF0000" d="M310.585,98.119c-0.004-0.449-0.654-1.4-1.011-1.811c-0.663-0.762-1.648-1.183-2.506-1.685
		c-1.499-0.863-3.278-1.875-5.045-1.892c1.041,0.008,2.043-0.401,3.104-0.071c1.068,0.329,2.003,0.746,3.02,1.267
		c0.986,0.497,1.676,1.115,2.22,2.082c0.254,0.443,1.286,2.304,0.472,2.564C310.715,98.448,310.627,98.287,310.585,98.119"/>
	<path d="M142.568,110.559c2.864,0,5.043-0.283,7.35-1.867c0.058,1.213-2.266,1.584-3.19,1.87c-0.651,0.208-1.41,0.415-2.077,0.568
		c-0.487,0.114-2.073,0.008-1.706-0.192"/>
	<path d="M143.136,113.02c0.873,0.964,6.641,1.161,6.782-0.543c-0.634,0.654-2.108,0.451-3,0.54
		c-1.097,0.107-2.106,0.382-3.347,0.382c0.109,0,0.216,0,0.323,0"/>
	<path d="M143.702,116.048c0.983,0.467,1.91,0.856,3.028,0.95c1.332,0.105,1.688-0.275,2.577-1.158
		c-1.322,0.9-4.062,0.885-5.547,0.358c0.159-0.184,0.293-0.131,0.513-0.15"/>
	<path d="M282.638,121.537c0.719,1.348,6.379,2.121,7.695,1.125c-0.995,0.205-2.514-0.211-3.533-0.367
		c-0.889-0.134-2.849,0.133-3.406-0.567"/>
	<path d="M282.447,123.242c1.092,1.781,6.879,2.617,8.311,0.832c-1.281,0.851-7.499,0.689-8.24-0.62
		c0.321,0.005,0.336,0.211,0.495,0.355"/>
	<path d="M283.771,126.65c2.344,1.715,4.357,0.54,6.761-0.004c-0.994,0.222-2.094,0.313-3.161,0.383
		c-1.187,0.076-2.043-0.605-3.185-0.605c-0.262-0.352-0.427-0.614-0.415-0.724"/>
	<g>
		<path d="M319.511,176.363c0.314,3.975,0.608,7.967,0.965,11.955c1.762,19.773,3.874,39.025,8.453,58.053
			c0.963,4.009,1.515,7.699,1.921,11.761c0.268,2.732,2.482,8.339,0.427,10.804c-1.76,2.111-8.071,1.998-10.693,2.424
			c-4.195,0.682-8.471,0.889-12.741,1.457c-4.265,0.573-8.492,0.9-12.712,1.481c-4.2,0.578-8.801,0.686-12.896,2.056
			c-4.797,1.604-9.557,3.445-14.254,5.225c-3.746,1.417-5.742,0.139-9.559-0.492c0.065-2.178,1.701-4.623,2.388-6.788
			c0.774-2.437,0.912-5.001,1.455-7.447c1.523-6.849,5.688-11.944,7.64-18.477c2.581-8.612,5.521-17.257,7.064-26.128
			c1.945-11.181,5.797-22.035,7.547-33.259c0.814-5.222,1.998-10.376,2.96-15.571c0.301-1.629,1.246-3.049,1.591-4.639
			c0.288-1.334,0.033-2.67,0.069-4.053c0.087-3.929,0.582-7.832,0.582-11.766c0-3.895-0.865-7.443-0.606-11.056
			c0.712,0.075,1.608-0.138,2.176-0.326c0.851,2.574,2.495,5.016,4.964,6.481c3.024,1.792,5.436,0.482,7.774-1.976
			c4.908-5.159,5.745-11.383,6.318-18.222c0.402-0.14,1.129-0.14,1.535,0c0.572,0.193,1.919,12.293,2.32,13.721
			c1.309,4.617,2.154,9.271,2.968,14.027C318.332,162.451,318.959,169.388,319.511,176.363z"/>
		<path fill="#FF0000" d="M260.208,277.078c1.061-0.346,0.3,0.062,0.246-0.068c2.189,0.611,3.629,1.959,5.057-0.63
			c1.27-2.313,0.738-3.895-0.988-5.709c-0.479,1.063-1.626,1.847-2.377,2.625c-0.987,1.063-1.53,2.366-2.135,3.709
			c0.082-0.185,0.175-0.388,0.26-0.577"/>
		<path fill="#FF0000" d="M317.233,233.27c0.815-2.296,5.118-0.972,6.342,0.443c1.022,1.211,0.417,4.228-1.063,4.923
			C319.592,240.045,314.497,234.234,317.233,233.27"/>
		<path fill="#FF0000" d="M308.999,238.988c-0.689-0.443-0.742-1.143-1.606-1.133c-1.136,0.039-1.315,0.988-1.386,1.867
			c-0.107,1.226,0.271,2.701,1.11,3.607c1.3,1.42,2.762,1.496,2.91-0.602c0.09-1.236-0.485-2.422-1.218-3.426"/>
		<path fill="#FF0000" d="M313.185,184.51c0.008-4.668,7.2-3.173,5.255,1.447c-2.028,4.837-6.324,0.379-4.915-3.393"/>
		<path fill="#FF0000" d="M313.501,159.416c2.673-0.629,4.204,4.232,1.753,5.434c-3.023,1.497-3.754-4.4-2.376-5.806"/>
		<path fill="#FF0000" d="M310.318,168.689c0.052,0.131,0.091,0.249,0.136,0.376c0.62-1.41,2.634-0.809,3.453,0.229
			c0.788,1.044,0.456,3.398-0.566,4.208c-3.718,2.893-4.395-5.979-1.807-5.345"/>
		<path fill="#FF0000" d="M308.502,149.432c0,0,0.191,0.238,0.184-0.205c1.39,0.57,2.206,1.129,2.627,2.516
			c0.421,1.346,0.329,3.058-0.865,3.777c-3.626,2.162-2.159-4.264-2.053-5.674c0.231,0.109,0.337,0.311,0.337,0.609"/>
		<path fill="#FF0000" d="M321.742,257.444c0.05,0.384,0.067,0.423,0.067,0.109c0.212-1.723,2.961-0.789,3.753,0.094
			c1.511,1.656,0.363,4.101-0.876,5.521c-3.285,3.764-6.042-5.083-3.46-5.604"/>
		<path fill="#FF0000" d="M300.675,164.242c0,0.129-0.964-1.061-0.948-0.923c-1.218-2.075,1.546-3.143,4.018-0.96
			c2.122,1.863-1.438,5.637-3.36,2.675c0.008-0.229-0.857-1.562-0.657-1.715"/>
		<path fill="#FF0000" d="M296.276,170.75c1.138-2.252,6.087,1.798,4.078,4.684c-1.061,1.49-3.067,0.739-4.033-0.654
			c-0.726-1.037-0.749-2.947-0.916-4.142c0.413-0.278,0.916-0.264,1.378-0.012"/>
		<path fill="#FF0000" d="M305.549,182.837c0.981-2.975,6.659,1.968,3.598,4.749c-1.035,0.969-3.108-0.225-3.629-1.277
			c-0.491-1.023-0.239-4.571,1.124-4.509"/>
		<path fill="#FF0000" d="M315.302,194.496c0.725-1.121,0.898-0.927,2.345-0.268c1.703,0.761,1.202,2.047,0.51,3.344
			c-0.702,1.318-2.94,3.012-4.192,1.178C313.331,197.785,314.065,194.732,315.302,194.496"/>
		<path fill="#FF0000" d="M309.088,256.172c1.462,2.473,0.95,5.277-0.901,7.552c-3.042-0.671-1.311-8.552,0.971-7.306"/>
		<path fill="#FF0000" d="M321.227,202.324c0.095,0.041,0.183,0.072,0.282,0.096c-0.401,0.577-1.137,0.436-1.684,0.811
			c-0.788,0.527-0.958,1.256-0.646,2.063c0.481,1.298,1.568,2.706,2.936,2.919c0.042-0.986,0-1.962-0.101-2.973
			c-0.099-1.003-0.271-1.301-0.513-2.561"/>
		<path fill="#FF0000" d="M306.656,195.457c-0.151,0.269-0.168,0.279-0.037,0.033c1.05-2.258,5.259,2.371,3.304,4.579
			c-0.711,0.822-2.275,0.644-3.043-0.118c-0.965-0.98-1.094-3.169-0.342-4.144"/>
		<path fill="#FF0000" d="M294.907,186.71c0.053,0.122,0.076,0.25,0.138,0.364c1.708-2.351,7.068,4.594,3.346,6.465
			c-3.722,1.902-5.574-6.423-2.45-7.055"/>
		<path fill="#FF0000" d="M290.497,177.061c0.759,0.505,1.904,0.249,2.382,1.807c0.328,1.11-0.077,3.021-1.054,3.781
			c-3.119,2.4-5.757-4.359-2.859-5.244"/>
		<path fill="#FF0000" d="M286.723,243.854c0.253,0.161,0.275,0.168,0.007,0.031c-0.986-1.678,2.459-1.593,3.324-1.029
			c1.37,0.918,1.737,2.859,1.217,4.229C289.64,251.338,284.151,247.363,286.723,243.854"/>
		<path fill="#FF0000" d="M298.812,229.366c0.239,0.19,0.553-0.7,0.588-0.923c-0.126-0.156-0.31,0.559-0.196,0.425
			c2.329-0.792,3.308,4.194,1.272,4.885c-3.469,1.161-3-4.103-1.076-5.31"/>
		<path fill="#FF0000" d="M285.944,200.123c0.209,0.783,0.785,0.543,1.093,1.063c0.329,0.547,0.541,1.263,0.636,1.952
			c0.146,1.018,0.451,3.219-1.033,3.357c-2.213,0.241-2.007-4.432-1.288-5.443"/>
		<path fill="#FF0000" d="M295.624,200.107c0.817,0.418,6.418,3.01,2.382,4.387C295.55,205.351,294.245,201.699,295.624,200.107"/>
		<path fill="#FF0000" d="M300.938,211.736c0.27,0.18,0.285,0.184,0.061,0.021c-1.736-1.021-6.046-0.664-5.303,2.195
			c0.477,1.974,5.094,0.186,5.409-1.191c-0.13-0.19,0.238-0.521,0.018-0.589"/>
		<path fill="#FF0000" d="M282.505,215.236c0.115,0.453,0.05-0.229,0.704-0.301c0.794-0.092,1.599,0.131,2.294,0.414
			c1.309,0.572,2.346,1.642,1.212,2.943c-1.378,1.572-6.824,0.033-4.612-2.447"/>
		<path fill="#FF0000" d="M299.508,272.328c-0.999,0.256-2.271-0.612-2.894,1.07c0.973-0.273,2.067-0.523,3.001-0.558"/>
		<path fill="#FF0000" d="M309.261,207.724c-0.177,0.253-0.184,0.265-0.029,0.044c0.988-0.932,0.014-3.204-1.318-3.492
			c-1.493-0.318-2.182,2.221-2.236,3.392c-0.12,3.173,2.474,3.343,3.568,0.556"/>
		<path fill="#FF0000" d="M282.85,229.795c0.046,0.127,0.1,0.256,0.125,0.362c1.375-1.913,4.806,2.149,4.154,4.044
			c-0.504,1.469-1.949,1.549-3.085,0.666c-1.448-1.119-0.616-2.389-0.643-3.852"/>
		<path fill="#FF0000" d="M308.915,223.781c0.062,0.398-0.428-0.376-0.428-0.693c0.244-1.794,7.151,0.965,4.068,4.68
			c-2.653,3.213-5.891-1.824-4.068-4.68"/>
		<path fill="#FF0000" d="M277.494,236.516c-0.172,0.233-0.172,0.237-0.054,0c0.83-0.344,2.691,0.273,3.293,1.107
			c0.871,1.179,0.126,4.554-1.547,5.052c-4.182,1.239-5.021-6.376-2.008-6.358"/>
		<path fill="#FF0000" d="M288.866,255.225c0.566,0.689,2.625,0.613,3.35,2.145c0.589,1.252,0.019,4.923-1.312,5.604
			C287.151,264.883,286.14,256.88,288.866,255.225"/>
		<path fill="#FF0000" d="M298.931,241.96c0.404,1.545,2.323,1.04,2.135,3.054c-0.168,1.833-1.83,2.863-3.559,2.234
			c-2.527-0.937-2.495-7.184,0.978-5.994"/>
		<path fill="#FF0000" d="M315.427,242.717c0.666,0.742,2.795,1.156,3.304,2.445c0.531,1.434-0.401,3.212-1.82,3.553
			c-3.45,0.847-5.356-4.969-2.307-6.094"/>
		<path fill="#FF0000" d="M315.669,216.264c0.458,0.207-0.367-0.279,0.699-0.46c0.686-0.103,1.06-0.014,1.658,0.192
			c1.068,0.359,2.121,1.396,2.428,2.465c0.502,1.738-0.53,5.412-2.734,5.482c-0.584-0.967-0.812-2.501-1.109-3.634
			c-0.261-1.056-1.256-2.848-0.614-3.839"/>
		<path fill="#FF0000" d="M276.721,278.253c-0.803-0.44-1.71-2.661-0.623-3.64c0.988-0.882,3.98,0.195,4.217,1.485
			c-1.155,1.14-4.179,0.88-4.937,2.296"/>
		<path fill="#FF0000" d="M272.374,257.959c0.121-0.42,0.505-0.861,0.796-1.172c2.701,0.671,1.89,6.346-1.19,5.248
			c-3.219-1.152-2.056-5.049,0.546-5.723"/>
		<path fill="#FF0000" d="M328.12,243.416c-0.169,1.004-2.037,0.483-1.822,2.301c0.11,0.977,2.014,2.844,2.993,3.209
			c-0.406-1.775-1.364-3.334-1.382-5.198"/>
		<path fill="#FF0000" d="M289.521,161.109c1.214,0.997,2.32,2.063,2.331,3.754c0.028,1.305-0.711,3.043-2.047,3.318
			C289.128,165.984,289.115,163.389,289.521,161.109"/>
		<path fill="#FF0000" d="M301.736,149.49c0.442,0.166,0.584,1.465,0.421,1.88c-0.154,0.432-0.341,0.269-0.675,0.21
			c-0.314-0.063-0.589-0.008-0.857-0.187c-0.406-0.278-0.321-1.179-0.222-1.62c0.073-0.283,0.176-0.514,0.516-0.547
			C301.218,149.207,301.513,149.594,301.736,149.49"/>
		<path fill="#FF0000" d="M292.967,145.08c0.011,0.032-0.329,0.35-0.341,0.555c-0.012,0.172,0.135,0.544,0.229,0.706
			c0.264,0.337,0.916,0.634,1.351,0.77c0.239-0.28-0.374-0.808-0.516-0.99c-0.24-0.32-0.436-0.964-0.77-1.163"/>
		<path fill="#FF0000" d="M311.829,139.998c0.417,0.437-0.254,1.232-0.612,1.477c-0.563,0.383-1.202-0.062-1.581-0.564
			c-0.525-0.707-0.129-0.912,0.566-1.012c0.51-0.068,1.113-0.007,1.553,0.033"/>
		<path fill="#FF0000" d="M289.161,142.026c0.036,0.037,0.03,0.062-0.003,0.043c0.129-0.013,0.337,0.118,0.492,0.195
			c0.368,0.167,0.353,0.144,0.392,0.486c0.047,0.267,0.057,0.933-0.149,1.128c-0.219-0.047-0.463,0.068-0.632-0.096
			c0.077-0.478-0.076-1.084-0.283-1.547c0.05,0.032,0.092,0.059,0.142,0.073"/>
		<path fill="#FF0000" d="M315.515,270.597c-0.598-1.083-2.928-2.693-4.138-1.917c-1.409,0.924-0.402,2.974-0.363,4.18
			c0.521-0.566,1.386-0.601,2.158-0.861c0.804-0.279,1.529-0.654,2.352-0.788c-0.109-0.079-0.097-0.183-0.167-0.265"/>
		<path fill="#FF0000" d="M278.191,253.4c0.562-1.429-0.022-5.219-2.315-3.775c-1.459,0.912-1.316,2.902-0.111,3.905
			C276.526,254.165,277.742,254.518,278.191,253.4z"/>
		<path fill="#FF0000" d="M282.787,265.449c-2.127,0.704-0.727,3.521,1.005,3.771c2.292,0.332,2.668-4.161,0.038-3.645"/>
		<path fill="#FF0000" d="M294.422,155.385c-0.563-0.686-1.921-0.18-2.088,0.601c-0.237,1.122,0.777,2.37,1.808,2.706
			c2.234,0.732,2.525-2.879,0.64-3.521"/>
		<path fill="#FF0000" d="M311.575,127.895c-0.358-0.11-0.963,0.822-1.095,1.217c-0.178,0.544-0.371,1.156-0.213,1.726
			c0.248,0.923,1.405,1.577,2.303,1.21c0.081-0.311-0.132-0.664-0.189-0.937c-0.08-0.38-0.088-0.77-0.173-1.134
			c-0.162-0.677-0.265-1.387-0.272-2.082"/>
	</g>
</g>
</svg>
