<?xml version="1.0" encoding="utf-8"?>
<!-- Generator: Adobe Illustrator 16.0.4, SVG Export Plug-In . SVG Version: 6.00 Build 0)  -->
<!DOCTYPE svg PUBLIC "-//W3C//DTD SVG 1.1//EN" "http://www.w3.org/Graphics/SVG/1.1/DTD/svg11.dtd">
<svg version="1.1" id="Ebene_1" xmlns="http://www.w3.org/2000/svg" xmlns:xlink="http://www.w3.org/1999/xlink" x="0px" y="0px"
	 width="411.784px" height="425.2px" viewBox="0 0 411.784 425.2" enable-background="new 0 0 411.784 425.2" xml:space="preserve">
<g>
	<path d="M294.284,128.355c-0.136,8.483-3.894,16.169-5.095,24.382c-1.119,7.65-0.772,16.672,1.154,23.842
		c1.854,6.902,5.762,14.799,12.172,18.648c5.975,3.59,18.006,2.175,23.093-2.039c6.687-5.536,10.276-13.361,14.341-20.655
		c4.143-7.435,8.422-15.24,12.553-22.838c3.065-5.636,6.442-14.287,12.215-17.667c2.01-1.175,4.458-1.438,6.553-2.475
		c3.225-1.598,6.033-3.856,9.389-5.241c4.541-1.876,9.843-2.698,14.215-4.707c4.891-2.249,4.397-7.754,2.994-12.12
		c-1.118-3.479-2.104-7.141-4.55-10.17c-5.154-6.383-11.356-10.248-18.904-12.923c-7.538-2.674-17.215-6.23-25.348-6.213
		c-4.62,0.01-11.306,0.115-15.2,2.93c-2.457,1.774-2.022,2.763-1.724,5.39c0.515,4.538,0.445,9.275,2.088,13.617
		c1.49,3.932,4.778,6.714,6.248,10.618c1.377,3.663,3.394,7.259,4.417,11.063c2.214,8.235,2.213,15.451-0.508,23.727
		c-2.381,7.247-7.198,14.089-10.538,20.908c-5.195,10.611-13.358,31.312-27.883,20.671c-5.523-4.048-10.819-10.527-10.665-17.615
		c0.195-8.931,4.9-17.975,7.101-26.5c4.454-17.25,3.111-37.612-14.076-47.184c-14.018-7.809-32.26-6.825-46.396,0.495
		c-7.446,3.854-14.547,7.441-20.301,13.693c-2.863,3.111-5.907,6.109-8.765,9.273c-2.412,2.668-4.951,5.363-6.604,8.588
		c-0.4,0.783-0.803,1.521-1.236,2.289c-0.35,0.622-0.755,1.247-0.949,1.906c0.575,0.052,1.176,0.359,1.689,0.657
		c0.845,0.492,1.747,0.843,2.642,1.272c0.566,0.271,1.077,0.609,1.688,0.795c0.567,0.171,1.161,0.241,1.716,0.441
		c0.623,0.221,1.155,0.391,1.77,0.59c0.366,0.118,0.517,0.217,0.792,0.016c0.279-0.203,0.418-0.738,0.551-1.029
		c0.384-0.838,0.853-1.651,1.397-2.395c1.375-1.873,2.981-3.542,4.632-5.199c2.415-2.426,4.882-4.812,7.584-6.92
		c0.546-0.425,1.052-0.625,1.655-0.918c0.702-0.341,1.32-0.946,1.941-1.418c1.322-1.002,2.658-1.986,4.014-2.946
		c2.094-1.479,4.235-2.89,6.429-4.217c7.543-4.559,15.096-8.524,24.068-9.013c4.945-0.271,14.954-0.113,18.918,3.422
		c6.075,5.416,8.724,14.891,8.724,22.697C294.287,128.042,294.286,128.198,294.284,128.355z"/>
	<path fill="#245977" d="M145.216,271.312c-0.081,3.016,0.042,8.442,4.211,8.444c1.667,0,3.287-0.434,4.97-0.371
		c2.084,0.076,4.259,0.264,6.229,1.002c0.72,0.27,1.237,0.763,1.933,1.038c1.02,0.399,1.893,0.595,2.816,1.276
		c1.175,0.865,2.226,1.879,3.696,2.236c1.318,0.32,2.916,0.411,4.321,0.27c0.804-0.08,2.71-0.717,2.631-1.851
		c-0.062-0.909-2.084-2.111-2.754-2.665c-1.321-1.091-2.795-2.105-4.051-3.237c-1.148-1.034-2.093-2.276-3.238-3.358
		c-1.526-1.444-2.96-3.055-4.579-4.391c-0.977-0.807-2.096-1.406-2.957-2.35c-2.901-3.189-3.871-7.484-5.115-11.472
		c-0.494-1.579-1.049-3.032-1.74-4.549c-0.292-0.641-0.771-1.548-0.892-2.241c-0.128-0.735-0.032-1.398-0.229-2.141
		c-0.249-0.946-0.51-1.887-0.789-2.823c-0.583-1.956-1.235-3.894-1.945-5.808c-1.139-3.063-2.016-6.256-3.165-9.328
		c-0.545-1.456-1.236-2.725-1.853-4.134c-0.682-1.559-1.156-3.255-2.01-4.766c-0.635-1.125-1.339-2.209-1.968-3.339
		c-0.547-0.983-0.883-2.256-1.591-3.129c-1.594-1.968-3.362,0.341-4.757,1.275c-1.62,1.084-3.475,1.96-5.178,2.904
		c-1.566,0.863-3.053,1.77-4.573,2.587c-1.116,0.598-2.86,1.167-3.477,2.308c-0.666,1.229,0.6,2.644,1.048,3.82
		c0.858,2.248,1.517,4.537,2.456,6.739c0.964,2.251,1.837,4.623,3.133,6.714c0.729,1.174,1.529,2.221,2.207,3.309
		c0.705,1.135,1.275,2.322,1.502,3.753c1.149,7.334,9.16,10.581,13.339,16.229c0.928,1.255,2.078,2.762,2.534,4.271
		C145.734,268.706,145.248,270.099,145.216,271.312z"/>
	<path fill="#245977" d="M309.965,206.344c-1.351,2.689-2.403,5.73-3.38,7.872c-2.493,5.49-4.699,10.979-6.992,16.524
		c-3.214,7.773-7.99,15.624-13.107,22.368c-2.705,3.563-5.229,6.825-9.093,9.312c-3.313,2.128-7.093,2.856-10.352,4.562
		c-7.003,3.661-14.132,8.157-21.453,10.938c-3.849,1.463-8.367,2.698-12.37,3.097c-2.916,0.289-8.756,1.525-11.394-0.265
		c-3.169-2.146,1.811-7.725,2.826-10.348c1.295-3.335,3.115-4.024,6.001-4.827c1.624-0.453,3.149-0.342,4.797-0.77
		c1.51-0.386,2.961-0.932,4.424-1.176c4.89-0.821,9.58-1.45,14.436-2.453c2.355-0.486,4.763-1.428,7.08-1.73
		c1.968-0.258,4.48,0.504,6.404-0.195c1.857-0.677,3.878-4.447,5.252-6.155c2.447-3.045,4.908-6.127,7.731-8.636
		c2.82-2.506,5.066-6.158,7.126-9.458c4.999-8.014,9.39-16.492,13.734-24.892c1.794-3.469,2.734-7.854,5.042-10.972
		c2.449,1.188,3.908,2.521,6.885,2.284C312.136,202.53,310.967,204.343,309.965,206.344z"/>
	<path d="M153.823,233.127c-0.977,0.061-1.983,0.062-3.024-0.01c-0.664-0.046-1.34-0.232-1.992-0.35
		c-1.218-0.226-2.44-0.206-3.668-0.391c-1.97-0.29-4.009-0.786-5.838-1.544c-1.339-0.557-2.755-1.121-3.978-1.904
		c-1.053-0.68-2.195-1.007-3.325-1.546c-2.703-1.311-4.603-3.825-6.171-6.382c-1.459,0.053-2.927,0.279-4.298,0.622
		c-2.062,0.515-4.552,1.288-6.01,2.976c3.688,5.494,9.157,10.876,14.478,13.115c2.892,1.219,5.93,2.021,8.984,2.709
		c1.293,0.288,2.635,0.48,3.84,0.975c0.939,0.381,1.87,0.445,2.88,0.361c2.094-0.184,3.87,0.78,5.904,0.913
		c2.646,0.172,5.496-0.472,8.137-0.686c2.93-0.235,6.715-0.803,9.451-0.588c-2.159-3.239-0.904-8.04-1.268-11.834
		C162.981,231.031,158.751,232.822,153.823,233.127z"/>
	<path d="M214.717,138.065c-8.773-5.877-20.359-9.082-30.721-9.939c-3.002-0.248-6.142,0.027-9.156,0.014
		c-3.927-0.021-7.895,1.252-11.795,1.137c-2.556-0.074-5.162,0.807-7.66,1.439c-2.545,0.643-5.123,1.729-7.508,2.517
		c-3.621,1.197-6.265,2.386-9.344,4.529c-3.011,2.104-5.896,4.366-8.607,6.846c-5.52,5.047-10.338,10.865-14.251,17.237
		c-7.774,12.669-9.758,30.02-6.776,45.294c3.843-0.783,7.792-0.915,11.721-0.896c-0.584-4.392-0.625-8.872-0.653-13.033
		c-0.032-5.247,0.374-10.502,1.324-15.665c0.81-4.416,1.715-9.54,3.741-13.59c0.757-1.515,1.553-2.904,2.585-4.211
		c1.531-1.934,3.058-3.696,4.919-5.359c2.148-1.924,4.15-4.154,6.501-5.777c2.885-1.994,5.93-3.706,9.082-5.28
		c5.224-2.608,11.631-3.945,17.321-5.04c4.801-0.926,10.345-1.012,15.362-0.65c5.41,0.387,10.434,2.48,15.523,4.304
		c5.595,2.007,10.841,4.724,15.347,8.701c7.231,6.385,12.818,14.708,15.231,24.056c0.887,3.434,1.274,6.284,1.274,9.995
		c0,3.218-0.413,6.431-1.024,9.587c-0.553,2.836-1.741,5.734-1.923,8.602c-0.356,5.734-3.084,10.89-6.28,15.623
		c-1.25,1.844-2.689,3.54-3.723,5.385c-0.597,1.059-0.874,2.272-1.622,3.24c-0.144,0.183-0.278,0.372-0.42,0.561
		c-0.14,0.18-0.311,0.3-0.483,0.456c-0.268,0.248-0.59,0.493-0.706,0.854c-0.163,0.489,0.364,0.603,0.728,0.638
		c0.443,0.043,0.845,0.143,1.261,0.315c0.494,0.205,0.964,0.405,1.466,0.565c0.301,0.094,0.633,0.148,0.957,0.148
		c0.308,0,0.534-0.192,0.693-0.452c0.313-0.511,0.191-1.064,0.013-1.596c-0.076-0.231-0.14-0.437-0.119-0.688
		c0.035-0.463,0.364-0.998,0.69-1.322c0.351-0.356,0.599-0.826,0.892-1.234c0.648-0.895,1.359-1.74,2.05-2.599
		c0.29-0.358,0.577-0.718,0.848-1.09c1.649-2.264,2.415-4.637,3.443-7.16c1.281-3.149,2.533-6.31,4.146-9.316
		c0.841-1.571,1.722-3.368,2.38-5.026c0.804-2.04,1.785-4.508,2.113-6.661c0.37-2.464,1.178-4.739,1.736-7.156
		c0.685-2.979,0.068-5.97,0.406-8.946c0.33-2.897-0.085-4.762-1.134-7.537c-1.135-3.019-1.883-6.124-3.338-9.022
		c-1.405-2.802-3.153-5.414-4.729-8.118c-1.497-2.57-2.954-5.164-4.729-7.604c-1.671-2.297-3.581-4.607-5.915-6.282
		C215.481,138.586,215.102,138.323,214.717,138.065z"/>
	<path fill="#245977" d="M201.108,256.542c-0.059-0.795-0.394-1.574-0.981-2.235c-0.72-0.812-1.823-0.972-2.75-1.438
		c-0.951-0.48-1.45-1.09-2.5-1.452c-0.672-0.236-1.164-0.476-1.573-1.093c-0.533-0.804-1.269-1.652-1.599-2.575
		c-0.622-1.705-1.016-3.625-1.307-5.415c-0.22-1.323-0.389-2.669-0.277-4.007c0.181-2.127,0.797-4.467,2.066-6.174
		c0.639-0.864,1.446-1.408,2.333-1.976c0.899-0.577,1.781-1.223,2.811-1.54c1.786-0.549,3.214-1.15,4.695-2.275
		c0.926-0.706,1.857-2.379,3.207-1.827c1.112,0.456,0.795,2.691,1.199,3.63c0.229,0.533,0.543,1.063,0.98,1.459
		c0.519,0.469,1.022,0.717,1.683,0.854c0.613,0.127,1.383,0.576,1.958,0.076c0.854-0.733,0.986-1.066,2.255-0.896
		c0.389,0.053,0.625,0.684,1.072,0.804c0.438,0.116,0.896-0.854,1.681-0.246c0.499,0.39,0.376,1.485,0.339,2.046
		c-0.059,0.909,0.131,1.56,0.749,2.299c0.457,0.549,1.193,1.036,1.548,1.654c0.776,1.338,0.262,3.166,0.03,4.556
		c-0.258,1.557-0.521,3.495-1.285,4.887c-0.635,1.163-1.208,2.159-1.891,3.274c-0.267,0.428-0.643,0.941-0.764,1.448
		c-0.302,1.296-0.171,2.812,0.036,4.127c0.173,1.101,0.719,2.045,0.987,3.114c0.17,0.669,0.113,1.394,0.218,2.072
		c0.076,0.479,0.394,1.029,0.148,1.492c-5.182,0.879-10.782-0.111-15.441-2.787C201.032,257.8,201.155,257.165,201.108,256.542z"/>
	<path d="M199.091,233.282c0.135-0.207-0.88-3.126-1.124-3.627c1.144,0.174,1.406,1.016,1.58,2.038
		c0.173,1.046,0.605,2.02,0.837,3.112c-0.728-0.892-1.038-1.494-1.303-2.641"/>
	<path fill="#FFFFFF" d="M201.058,233.462c-0.018-0.012-0.089-0.263-0.119-0.369c-0.106-0.39-0.178-0.785-0.327-1.161
		c-0.194-0.498-0.435-0.977-0.659-1.459c-0.121-0.264-0.381-0.45-0.233-0.746c0.12-0.239,0.393-0.456,0.625-0.57
		c0.243-0.125,0.534-0.223,0.804-0.149c0.359,0.09,0.423,0.361,0.479,0.705c0.068,0.471,0.058,0.943,0.008,1.423
		c-0.043,0.366-0.191,0.668-0.274,1.022c-0.044,0.21-0.124,1.078-0.342,1.117"/>
	<path d="M201.434,229.586c-0.199-0.025-0.347-0.142-0.558-0.117c-0.233,0.03-0.394,0.139-0.496,0.347
		c-0.154,0.319-0.068,0.831,0.284,1.018c0.452,0.238,0.795-0.17,0.834-0.592c0.015-0.207,0.007-0.444-0.12-0.6
		c-0.14-0.164-0.398-0.133-0.508-0.268"/>
	<path fill="#FF0000" d="M216.408,231.226c-0.082,0.828-1.24,1.51-1.87,2.106c-0.266,0.251-1.654,2.263-2.089,2.07
		c-0.376-0.162-0.151-1.274-0.183-1.61c-0.058-0.613-0.22-1.054-0.418-1.63c-0.201-0.582-0.357-0.913-0.148-1.495
		c0.216-0.602,1.164-1.608,1.761-0.85c0.104,0.134,0.251,0.195,0.354,0.327c0.067,0.097,0.165,0.188,0.224,0.286
		c0.083,0.133,0.038,0.377,0.038,0.531c0.005,0.205-0.051,0.41-0.034,0.618c0.012,0.178,0.034,0.364,0.026,0.546
		c-0.014,0.186-0.082,0.363-0.098,0.551c-0.005,0.047,0,0.103,0.004,0.15c0.139-0.098,0.203-0.402,0.228-0.566
		c0.03-0.197,0.051-0.395,0.072-0.602c0.031-0.347,0.105-0.695,0.29-0.996c0.141-0.228,0.395-0.469,0.649-0.57
		c0.135-0.058,0.321-0.045,0.47-0.058c0.169-0.013,0.224,0.149,0.338,0.272C216.326,230.632,216.43,230.937,216.408,231.226z"/>
	<path fill="#245977" d="M166.157,235.689c-1.167-4.163-1.887-8.436-1.876-12.782c0.011-5.022-0.81-9.279,1.745-14.015
		c1.832-3.399,4.23-6.6,6.153-9.95c2.312-4.027,7.459-6.146,11.846-7.332c2.347-0.635,4.469-1.456,6.974-1.426
		c1.331,0.018,2.678,0.007,4.017,0.048c1.216,0.039,2.409,0.278,3.597,0.531c2.166,0.457,4.262,1.304,6.099,2.566
		c0.938,0.64,1.861,1.281,2.724,2.051c0.647,0.581,1.438,0.967,2.094,1.552c0.385,0.336,0.896,0.945,1.392,1.132
		c0.474,0.173,1.18-0.081,1.713-0.073c1.273,0.028,2.537-0.252,3.718,0.326c0.239,0.118,0.905,0.461,0.95,0.713
		c0.041,0.219-0.412,0.771-0.497,0.928c-0.156,0.304-0.296,0.622-0.479,0.921c-0.642,1.086-1.133,2.134-1.56,3.327
		c-0.292,0.827-0.437,1.624-0.647,2.464c-0.203,0.784-0.47,1.482-0.693,2.256c-0.148,0.51-0.275,1.06-0.348,1.588
		c-0.037,0.291,0.026,0.844-0.186,1.095c-0.406,0.482-1.185-0.641-1.523-0.963c-0.931-0.87-1.908-1.766-2.783-2.7
		c-1.011-1.078-1.621-2.466-2.428-3.694c-0.354-0.543-0.471-1.114-1.079-1.452c-0.765-0.426-1.548-0.745-2.264-1.228
		c-2.975-2.01-6.004-4.204-9.72-4.732c-0.824-0.122-1.884-0.289-2.723-0.18c-0.75,0.098-1.541,0.384-2.217,0.712
		c-1.193,0.575-2.367,1.107-3.464,1.861c-2.648,1.816-6.019,3.661-7.233,6.69c-2.268,5.68-5.613,14.838-2.96,20.801
		c1.513,3.397,5.165,5.943,7.016,9.4c2.225,4.152,3.909,8.572,5.884,12.81c1.893,4.058,3.48,7.091,3.285,11.661
		c-0.083,1.93-0.168,2.896-1.306,4.598c-0.211,0.314-2.981,3.6-2.487,3.894c-1.632-0.968-3.294-2.035-4.847-3.239
		c-3.021-2.345-6.201-5.383-7.931-8.853c-1.456-2.929-1.998-6.286-3.412-9.335C168.915,243.805,167.316,239.8,166.157,235.689z"/>
	<path d="M180.644,234.128c0.415,0.287,0.816,0.525,1.185,0.703c1.48-3.386,3.642-6.945,5.465-10.262
		c1.784-3.238,3.341-6.306,4.543-9.826c1.378-4.048,2.854-7.381,3.553-11.682c0.951-5.859,1.188-11.801,1.586-17.716
		c0.399-5.964,1.012-12.113,2.804-18.153c0.108-0.367,0.227-0.73,0.354-1.09c1.024-2.895,2.641-5.508,4.234-8.113
		c0.794-1.297,1.581-2.6,2.283-3.949c0.324-0.623,0.611-1.237,1.001-1.816c0.398-0.592,0.514-1.3,0.749-1.971
		c0.066-0.187,0.288-0.597,0.244-0.791c-0.073-0.318-0.685-0.616-0.907-0.804c-0.954-0.801-1.712-1.745-2.864-2.365
		c-1.138-0.612-2.228-0.927-3.408-1.309c-0.789-0.255-1.731-0.753-2.55-0.521c-0.101,0.495-0.403,0.932-0.631,1.376
		c-0.26,0.504-0.311,0.904-0.415,1.435c-0.194,0.99-0.472,2.159-0.722,3.207c-1.403,5.882-3.845,11.442-5.833,17.136
		c-2.006,5.744-3.56,11.743-3.17,17.879c0.456,7.228,1.33,14.249-1.083,21.094c-1.547,4.389-3.692,8.021-5.892,12.01
		c-0.884,1.6-1.518,3.563-2.576,5.042c-0.396,0.558-3.604,3.035-3.515,3.498C175.504,229.454,178.327,232.536,180.644,234.128z"/>
	<path d="M198.807,253.14c0.403-0.193,1.609,0.136,2.179,0.107c0.892-0.047,1.668,0.094,2.541,0.184
		c1.739,0.174,3.519,0.174,5.267,0.238c1.937,0.075,3.913,0.037,5.858,0.062c0.533,0.009,1.712-0.165,2.17,0.204
		c0.478,0.382,0.194,1.184,0.139,1.818c-0.093,1.055-0.326,2.092-0.408,3.147c-0.061,0.782-0.176,2.073,0.23,2.765
		c0.427,0.736,1.188,0.883,1.909,1.186c0.645,0.269,1.274,0.867,1.788,1.342c0.63,0.578,1.354,0.97,2.06,1.422
		c1.253,0.804,1.997,1.596,3.544,1.85c0.927-2.385,2.572,0.727,0.533,0.779c0.732,0.549,1.527,2.122-0.157,2.062
		c0.455,0.69,0.465,1.826-0.347,2.289c0.104,0.049,0.208,0.104,0.31,0.156c0.016,0.319-0.111,0.816-0.271,1.093
		c-0.102-0.011-0.199-0.011-0.3-0.002c0.361,0.601,0.502,2.772-0.521,2.757c0.129,0.501,0.089,1.232-0.474,1.272
		c0.617,0.288,0.457,0.993,0.021,1.389c0.669,0.655-0.16,2.367-0.875,1.929c0.795,1.455-3.782,1.363-2.035-0.546
		c0.372-0.406-1.882-0.253-2.034-0.218c-1.133,0.282-2.217,0.753-3.33,1.096c-1.505,0.464-3.022,1.097-4.61,1.264
		c-2.264,0.239-4.483,0.55-6.785,0.373c-3.405-0.258-6.916-0.4-10.227-1.301c-1.388-0.375-2.796-0.977-3.452-2.349
		c-0.47-0.982-1.006-2.256-1.253-3.309c-0.244-1.015,0.069-2.086-0.527-3.022c-0.392-0.621-1.244-1.097-1.828-1.53
		c-1.396-1.038-2.881-2.32-4.619-2.813c0.665-2.098,0.638-4.298,1.726-6.315c1.08-1.998,3.468-2.946,4.708-4.763
		c0.769,0.09,0.951,0.891,1.53,1.322c0.726,0.545,1.773,0.626,2.636,0.6c0.33-0.008,3.57-0.19,3.634-0.314
		c0.395-0.771,0.281-2.018,0.406-2.862c0.139-0.925,0.441-2.204,0.211-3.08"/>
	<path d="M142.737,223.506c0.051,0.003,0.102,0,0.148,0"/>
	<path d="M120.111,182.839c5.416,0.182,11.717,4.323,17.093,6.236c7.676,2.731,15.164,5.671,23.041,7.797
		c5.553,1.5,11.005,2.98,16.591,4.397c2.062,0.521,4.152,0.819,6.258,1.386c1.725,0.465,4.44,1.84,6.18,1.213
		c-0.052-0.994-0.25-2.051-0.564-2.989c-12.464-2.56-26.249-5.179-37.623-11.373c-6.878-3.741-14.395-6.316-21.36-9.844
		c-2.36-1.194-5.355-2.956-7.906-3.279c-1.965-0.249-1.294-0.686-2.381,0.903c-0.643,0.94-0.96,2.817-0.483,3.873
		c0.75-0.098,0.495-0.479,0.66-1.012"/>
	<path d="M205.625,241.108c0.592-0.759,2.043-0.973,2.931-0.826c1.09,0.184,1.494,0.964,2,1.881c0.838-0.49,1.959-0.821,2.913-0.191
		c0.793,0.527,1.018,1.398,1.466,2.121c0.766-0.197,1.227-0.613,2.098-0.474c0.323,0.048,0.542,0.085,0.796,0.249
		c0.266,0.18,0.447,0.777,0.667,0.877c0.474,0.206,1.578-0.286,2.235-0.148c0.925,0.191,1.394,0.766,1.902,1.512
		c0.503,0.744,0.676,1.559,1.089,2.326c0.185,0.346,0.222,0.482,0.561,0.627c0.503,0.217,0.308,0.042,0.747-0.174
		c0.856-0.422,3.75-1.266,3.802,0.506c0.044-0.768,0.777-1.645,1.38-2.021c0.474-0.293,2.141-0.601,2.192,0.229
		c0.756-0.463,1.67-0.527,2.531-0.789c0.447-0.136,1.009-0.565,1.5-0.455c0.415,0.09,0.604,0.758,0.977,0.536
		c0.178-0.107,0.234-1.158,0.344-1.394c0.215-0.479,0.537-0.827,1.044-1.065c0.561-0.262,1.865-0.318,2.246,0.238
		c0.694-0.869,0.931-1.363,2.183-1.597c0.622-0.12,1.569-0.282,2.191-0.039c0.377,0.144,0.71,0.562,1.045,0.769
		c0.389-1.055,0.524-2.164,1.307-3.053c0.868-0.979,2-0.987,2.965-0.208c0.129-0.92,1.297-1.578,2.137-1.803
		c0.988-0.266,1.717,0.066,2.521,0.615c0.606-0.821,1.096-1.674,2.213-1.633c0.41,0.016,1.086,0.094,1.385,0.38
		c0.496,0.473,0.137,0.471-0.324,0.771c1.252,0.319,2.39-0.786,3.685,0.031c0.482,0.31,0.428,0.869,0.793,1.161
		c0.599,0.474,1.889-0.228,2.45-0.387c0.69-0.192,1.177-0.281,1.815,0.062c0.68,0.366,0.875,0.521,1.637,0.105
		c0.452-0.247,0.814-0.599,1.159-0.977c0.14-0.147,0.312-0.236,0.455-0.383c0.176-0.182,0.336-0.372,0.491-0.572
		c0.611-0.793,1.077-1.687,1.591-2.54c0.204-0.351,0.542-0.777,0.987-0.584c0.266,0.119,0.507,0.43,0.583,0.702
		c0.11,0.377-0.167,0.86-0.411,1.136c-0.267,0.299-0.571,0.549-0.736,0.924c-0.068,0.151-0.181,0.451-0.076,0.611
		c0.084,0.133,0.31,0.089,0.452,0.102c0.174,0.012,0.355,0.067,0.516,0.121c0.293,0.1,0.546,0.357,0.536,0.673
		c-0.014,0.333-0.202,0.568-0.407,0.814c-0.454,0.546-1.19,0.781-1.685,1.283c-0.314,0.311-0.47,0.826-0.016,1.055
		c0.426,0.218,1.086,0.324,1.379,0.747c0.201,0.293-0.066,0.957-0.323,1.152c-0.421,0.326-1.074,0.435-1.58,0.551
		c-0.219,0.052-0.291,0.031-0.339,0.244c-0.044,0.211-0.033,0.484,0.032,0.688c0.165,0.509,0.77,0.819,1.222,1.022
		c0.341,0.149,0.694,0.295,0.987,0.528c0.101,0.075,0.321,0.261,0.331,0.388c0.037,0.399-0.831,0.549-1.105,0.556
		c-1.244,0.021-2.377-0.641-3.224-1.526c-0.368-0.387-0.664-0.831-1.092-1.163c-0.317-0.248-0.707-0.423-1.015-0.678
		c-0.147-0.125-0.275-0.379-0.468-0.433c-0.141-0.036-0.297,0.059-0.416,0.127c-0.326,0.189-0.599,0.499-0.96,0.615
		c-0.488,0.154-1.76,0.604-2.264,0.449c-0.789-0.248-1.578-1.743-2.267-2.272c-0.698,0.735-0.795,0.909-1.963,0.811
		c-1.112-0.095-1.07-0.567-1.827-1.146c-0.765-0.585-0.956,0.367-1.643,0.832c-0.753,0.513-1.775,1.083-2.473,0.212
		c-0.461,0.491-0.406,1.219-1.126,1.516c-0.868,0.362-1.069-0.576-1.62,0.151c-0.379,0.496-0.426,1.113-0.973,1.514
		c-0.803,0.589-0.943-0.196-1.74-0.113c-0.091,0.79-0.523,1.209-1.305,1.23c-0.846,0.028-1.02-0.812-1.661-0.326
		c-0.579,0.438-0.826,1.194-1.647,1.413c-0.699,0.187-1.095-0.34-1.522-0.819c-0.313,0.506-0.677,1.321-1.251,1.594
		c-0.639,0.309-1.324-0.364-1.857-0.1c-0.368,0.182-0.521,0.928-0.896,1.216c-0.834,0.634-2.543,0.912-3.317,0.042
		c-0.438,0.603-0.799,1.33-1.48,1.7c-0.226,0.125-0.761,0.323-1.02,0.316c-0.641-0.025-0.463-0.353-0.91-0.674
		c-0.735-0.526-1.133,0.653-1.919,0.86c-0.622,0.164-2.024-0.382-2.068-1.117c-0.72,1.053-0.876,1.534-2.348,1.622
		c-0.964,0.057-2.246-0.112-2.301-1.301c-1.378,0.771-3.041-0.97-2.161-2.317c-1.083-0.211-2.424-0.532-2.096-1.914
		c-0.585-0.251-1.549-0.018-2.146-0.018c-0.397-0.002-0.787,0.074-1.192-0.072c-0.611-0.227-0.316-0.574-0.729-0.825
		c-0.253-0.155-0.616,0.116-0.875,0.165c-0.417,0.083-0.732,0.037-1.167-0.041c-0.897-0.166-1.489-0.499-1.337-1.536
		c-0.782,0.452-3.566,0.423-3.181-1.128c-0.778,0.396-1.387,0.688-2.267,0.688c-0.376,0-0.82,0.008-1.146-0.226
		c-0.3-0.221-0.349-0.732-0.737-0.794c-0.61-0.095-1.488,0.62-1.985,0.911c-0.704,0.408-1.542,0.365-2.324,0.449
		c-0.486,0.055-0.681,0.272-0.651-0.303c0.029-0.549,0.283-1.172,0.49-1.667c0.407-0.975,1.002-1.899,1.468-2.796
		c0.317-0.602,0.504-1.199,0.734-1.883c0.019-0.061,1.074,0.128,1.17,0.163c0.465,0.165,0.604,0.41,1.125,0.442
		C203.769,239.956,205.765,240.929,205.625,241.108z"/>
	<path d="M200.008,245.569c-0.44,0.312-0.182,1.019-0.088,1.536c0.118,0.644,0.11,1.261,0.186,1.914
		c0.152,1.255,0.819,2.722-0.237,3.776c-0.469,0.471-0.867,0.375-1.485,0.273c-0.744-0.124-1.091-0.16-0.957-0.981
		c0.215-1.291,1.101-2.36,1.43-3.65c0.436-1.7,0.495-3.435,0.783-5.168"/>
	<path d="M191.02,227.235c0.605,0.13,1.347,0.945,2.003,0.627c0.302-0.146,0.497-0.516,0.843-0.674
		c0.339-0.151,0.703-0.227,1.062-0.286c0.393-0.065,1.442-0.664,1.732-0.451c0.167,0.122,0.264,0.707,0.315,0.893
		c0.072,0.271,0.292,0.63,0.322,0.899c0.067,0.619-0.639,1.149-1.206,1.137c-0.328,0.959-0.186,1.974-0.432,2.993
		c-0.245,0.997-1.03,2.031-1.066,3.058c-0.027,0.844,0.665,1.769,1.178,2.375c0.691,0.811,1.614,1.057,2.617,1.304
		c0.418,0.1,0.858,0.264,1.281,0.297c0.461,0.038,0.936-0.129,1.375-0.14c0.39-0.011,0.831,0.145,1.236,0.242
		c0.575,0.143,0.972,0.137,1.141,0.765c-0.575,0.083-0.911,0.44-1.42,0.703c-0.688,0.359-0.936,0.222-1.143,1.056
		c-0.693,2.814-0.262,6.518,2.809,7.494c1.379,0.44,2.84-0.668,4.251,0.585c1.952,1.733,2.415,4.439-0.474,4.779
		c-1.182,0.14-2.499-0.501-3.721-0.46c-1.855,0.061-3.692,0.802-5.559,0.931c-3.166,0.218-5.448-0.841-7.774-2.983
		c-1.756-1.618-6.036-5.597-5.042-7.944c0.37-0.873,0.088-1.513-0.296-2.39c-0.563-1.292-0.61-2.574-0.354-3.971
		c0.092-0.525,0.189-1.055,0.488-1.501c0.272-0.401,0.535-0.596,0.535-1.101c-0.002-1.35-0.749-2.812-0.182-4.142
		c0.491-1.157,1.848-1.618,2.8-2.272C189.392,228.327,189.527,226.911,191.02,227.235z"/>
	<path d="M192.53,228.22c-0.905-0.441-1.198-2.8-0.626-3.939c0.155,0.004,0.312,0.012,0.469,0.021
		c-0.181-0.471-0.842-1.273-0.821-1.861c0.051-1.366,1.079-1.062,1.751-1.971c1.032-1.396-0.034-3.318,2.271-3.484
		c0.774-0.056,1.442,0.44,2.182,0.271c1.252-0.292,0.736-0.366,0.969-1.131c0.171-0.556-0.702-0.986,0.242-1.591
		c0.6-0.379,1.962,0.128,2.584,0.257c-0.2-1.618,0.88-2.114,2.254-1.142c0.101-1.631,1.154-1.874,0.257-3.326
		c-0.507-0.828-1.946-2.12-2.953-2.146c1.667-0.507-1.234-5.163-2.976-2.765c0.484-1.338-1.366-1.514-2.141-1.013
		c-0.044-0.898-1.151-1.498-2.039-1.547c0.236-0.456,0.486-0.965,0.841-1.4c0.148,0.004,0.296,0.004,0.444,0.004
		c0.819-1.596,3.156-1.809,3.327,0.291c1.44-0.933,2.166,0.433,2.917,1.471c1.006-0.81,1.898-0.256,1.662,1.026
		c1.295-0.275,2.212,0.778,1.93,2.111c1.256,0.192,1.861,1.06,1.363,2.253c1.356,0.074,1.271,1.569,0.515,2.305
		c1.742,0.314,0.884,2.214,0.089,3.018c0.863,0.727,0.604,1.915-0.66,1.819c0.436,1.396-1.297,1.794-2.31,1.392
		c-1.011,2.016-1.501,1.662-3.312,1.116c1.205,1.829-0.799,2.267-2.36,1.868c-0.275,0.771-0.232,2.45-1.336,2.054
		c-0.054-0.18-0.009-0.326,0.13-0.448c0.548,1.055-0.879,1.693-1.813,1.922c0.731,0.504,2.601,1.991,0.52,2.388
		c2.022,1.02-1.818,3.887-2.967,4.153c-0.286-0.369-0.213-0.65-0.079-1.073"/>
	<g>
		<path fill="#245977" d="M160.011,340.179c0.572,1.604,0.973,3.283,1.946,4.773c4.452,6.826,7.057,14.268,9.551,21.979
			c1.928,5.953,3.421,12.123,4.765,18.228c1.456,6.629,2.08,13.393-4.927,16.967c-5.845,2.98-12.168,4.894-18.744,5.367
			c-5.086,0.37-10.113,0.517-15.166,0.884c-5.457,0.394-36.003-1.021-41.067-0.884c-9.191,0.241-19.376-0.552-28.136-3.636
			c-1.86-0.655-3.837-1.146-5.681-1.83c-1.795-0.662-3.116-1.901-4.607-3.018c-2.591-1.944-5.488-4.869-6.316-8.056
			c-0.259-0.984-0.187-4.554,0.549-5.277c0.989-0.976,3.777,0.568,4.881,1.078c1.315,0.611,2.66,1.12,4.09,1.295
			c1.34,0.166,2.604,0.538,4.014,0.846c3.181,0.694,6.442,0.233,9.522-0.694c2.635-0.792,5.274-1.707,7.707-2.856
			c2.457-1.164,5.062-2.652,7.725-3.284c4.575-1.086,9.189-1.63,14.024-1.63c6.238,0,11.92,1.024,17.997,2.088
			c4.666,0.822,9.195,2.529,13.571,4.135c0.163-1.987-1.732-3.787-2.76-5.341c-1.236-1.858-2.057-4.011-3.112-5.985
			c-2.205-4.124-4.595-8.715-5.368-13.362c-1.426-8.57-2.937-18.813,5.73-24.202c1.426-0.891,2.419-1.972,3.714-2.928
			c1.481-1.091,3.579-1.738,5.327-2.239c3.441-0.988,7.184-1.312,10.704-0.547c3.271,0.716,7.148,2.896,8.979,5.789
			C159.394,338.575,159.72,339.368,160.011,340.179z"/>
		<path fill="#245977" d="M104.841,398.427c1.287-3.037,2.705-7.289,1.427-10.507c-0.927-2.341-1.547-6.258-4.179-7.308
			c-1.438-0.571-3.798-0.182-5.414-0.182c-3.912,0-7.419,1.135-11.041,2.623c-3.451,1.421-7.033,4.472-10.709,4.855
			c-1.612,0.167-3.891-0.562-4.966-1.808c-1.006-1.164-0.338-3.024-0.486-4.432c-0.139-1.348-0.522-2.892-1.353-3.993
			c-1.43-1.894-3.826-2.291-6.062-2.268c-5.249,0.059-10.189,2.606-15.409,2.628c-5.016,0.019-8.312-4.085-13.392-4.077
			c-2.224,0.003-4.559,0.183-6.395,1.514c-2.119,1.532-2.668,3.084-0.373,4.375c3.023,1.695,6.438,1.563,9.391,3.427
			c2.029,1.282,3.62,3.122,5.566,4.518c1.738,1.244,3.376,2.219,4.873,3.757c3.536,3.629,8.332,6.13,12.833,8.385
			c15.566,7.795,28.065,7.746,44.794,2.483"/>
	</g>
	<path fill="#FF0000" d="M206.049,233.997c-0.348,0.201-1.751-0.294-2.441,0.543c-0.886,1.077-0.295,2.56,0.841,3.096
		c2.839,1.336,4.485-2.444,1.798-3.842"/>
	<path fill="#245977" d="M119.048,279.386c-1.448,1.422-2.878,2.863-4.312,4.299c-1.315,1.318-2.814,3.433-4.437,4.348
		c-2.343,1.322-3.621-1.453-4.624-3.308c-1.932-3.562-3.548-7.481-4.749-11.354c-2.906-9.335-4.314-18.286-4.314-28.037
		c0-7.892,0.71-16.028,3.031-23.609c1.157-3.784,2.735-7.239,4.93-10.44c3.679-5.369,9.889-8.855,16.271-9.715
		c1.256-0.168,2.6-0.585,3.844-0.248c1.481,0.399,2.965,1.608,4.17,2.509c2.726,2.034,5.102,4.546,6.989,7.373
		c2.36,3.538,4.544,6.968,5.483,11.144c0.459,2.034,1.635,6.68-0.302,8.328c-2.155,1.838-6.992-1.656-8.841-2.995
		c-0.714-0.517-1.53-0.914-2.24-1.486c-1.186-0.956-3.503-4.333-5.234-3.753c-2.614,0.873,0.224,3.78,0.969,4.813
		c0.896,1.242,1.757,2.515,2.626,3.777c1.777,2.579,3.503,5.203,4.916,8.005c3.195,6.355,7.432,16.043,4.71,23.326
		c-1.263,3.383-5.399,5.581-8.077,7.705C126.131,273.028,122.449,276.054,119.048,279.386z"/>
	<path fill="#FD1813" d="M225.613,305.515c-1.278,1.063-2.747,1.937-4.34,2.427c-1.131,0.35-2.435,0.52-2.519,1.976
		c-0.076,1.343,1.32,2.656,2.013,3.69c0.912,1.36,1.851,2.72,2.364,4.286c1.825,5.581,1.413,12.205,0.394,17.889
		c-0.577,3.215-1.956,6.127-3.505,8.971c-1.392,2.549-2.991,3.773-5.203,5.489c-1.874,1.452-4.387,2.464-6.561,3.274
		c-1.603,0.593-3.05,1.373-4.72,1.798c-1.934,0.495-3.692,0.479-5.634,0.642c-3.405,0.284-6.862-0.017-10.153-0.94
		c-1.647-0.464-3.253-1.081-4.778-1.858c-0.734-0.375-1.279-0.827-1.92-1.288c-0.707-0.507-1.569-0.747-2.257-1.303
		c-0.743-0.601-1.381-1.558-1.889-2.366c-0.542-0.865-1.159-1.631-1.865-2.364c-0.438-0.454-1.437-2.103-2.125-2.053
		c-0.279,1.925,0.693,3.948,1.623,5.604c0.865,1.54,1.584,3.211,2.502,4.692c-1.655,1.668-3.855,2.497-5.845,3.676
		c-0.529,0.314-1.052,0.556-1.568,0.847c-0.624,0.35-1.118,0.393-1.814,0.547c-1.782,0.398-3.485,0.908-5.241,1.355
		c-2.681,0.684-5.455,0.671-8.319,0.671c-3.04,0-6.587,0.474-9.442-0.503c-1.356-0.463-2.829-0.8-4.134-1.403
		c-0.779-0.36-1.54-0.781-2.361-1.038c-0.966-0.303-1.776-0.055-2.757-0.355c-2.647-0.808-5.226-1.823-7.795-2.845
		c-4.31-1.716-8.138-4.518-11.349-7.842c-2.405-2.489-4.817-5.48-6.457-8.501c-0.766-1.412-1.338-2.897-1.945-4.388
		c-0.297-0.728-0.402-1.521-0.691-2.25c-0.87-2.19-2.388-4.249-3.426-6.389c-1.12-2.31-2.132-4.674-3.017-7.084
		c-1.629-4.441-2.851-9.068-3.338-13.784c-1.302-12.604,1.924-27.952,11.688-36.857c9.106-8.312,20.363-9.67,28.448-20.113
		c7.187,6.058,7.568,21.664,9.795,30.427c1.479,5.823,3.107,12.287,6.378,17.425c3.174,4.982,12.319,7.626,17.909,8.449
		c1.44,0.21,2.838,0.653,4.334,0.531c10.053-0.82,10.745-17.471,11.927-24.4c0.705-4.111,0.821-7.915,1.165-12.004
		c0.152-1.821,0.518-3.504,0.874-5.176c0.676-3.204,3.168-6.56,6.795-4.34c-2.146,0.812-2.292,4.456-2.83,6.281
		c-0.852,2.898-1.766,5.682-1.956,8.714c-0.266,4.304,5.787,9.522,10.028,7.198c1.794-0.985,1.612-3.139,2.035-4.902
		c0.724-3.031,1.937-6.331,3.638-8.948c0.368-0.567,0.687-1.13,1.145-1.637c0.72-0.793,1.606-1.309,2.383-2.015
		c2.389-2.16,5.825-2.638,8.493-0.537c0.96,0.758,3.441,1.793,3.176,3.283c-1.971-0.933-4.919-0.943-7.066-1.078
		c-0.848-0.054-1.331,0.946-1.664,1.629c-0.326,0.672-0.631,1.387-0.874,2.1c-0.189,0.551-0.518,1.097-0.59,1.681
		c-0.309,2.621-1.708,7.077,0.77,9.105c2.487,2.038,6.543-1.093,8.519,1.347c1.76,2.17,3.964,3.869,5.62,6.217
		c2.742,3.893,3.817,8.059,2.006,12.801C228.901,302.032,227.425,304.003,225.613,305.515z"/>
	<path d="M222.064,265.944c-0.577,0.249-2.463-0.502-3.462-0.579c-1.505-0.112-2.766-0.421-4.031,0.212
		c-2.969,1.481-2.707,5.126-3.171,7.864c-0.284,1.656-0.356,4.136-0.072,5.784c0.208,1.202,0.375,2.123,1.003,3.158
		c1.023,1.674,4.17,3.252,6.048,3.688c4.61,1.078,7.735-2.722,5.126-6.574"/>
	<g>
		<path d="M219.406,308.367c-1.44,1.688-7.732,2.242-10.773,2.479c-2.119,0.164-3.879,0.101-5.977-0.11
			c-2.885-0.286-4.01-1.204-6.467-2.682c-2.136-1.284-4.167-2.781-6-4.474c-1.944-1.787-3.861-3.521-5.429-5.672
			c-0.534-0.727-0.694-1.384-0.643-2.274c0.053-0.992,0.211-1.874,0.571-2.796c0.347-0.894,1.082-1.584,1.519-2.367
			c0.133,1.095,0.156,2.076,0.545,3.111c0.397,1.05,0.71,2.236,1.446,3.111c0.377,0.449,0.82,0.522,1.256,0.82
			c0.6,0.416,1.104,1.102,1.679,1.572c2.525,2.064,5.501,3.508,8.434,4.902c3.596,1.71,7.153,2.57,11.074,3.171
			c3.003,0.46,6.349,0.171,9.51,0.477c0.041,0.664-0.293,1.153-0.746,1.527"/>
		<path fill="#FFFFFF" d="M185.492,294.508c-0.229,0.368-0.906,2.11,0.375,2.19c1.189,0.074,0.652-2.351-0.375-1.822"/>
		<path fill="#FFFFFF" d="M188.157,298.277c-1.024,0.434-0.56,2.538,0.532,2.005c0.365-0.18,0.666-1.112,0.469-1.438
			c-0.164-0.272-0.921-0.485-1.089-0.291"/>
		<path fill="#FFFFFF" d="M191.655,301.589c-0.032,0.177,0.164-0.161-0.09-0.102c-0.282,0.068-0.325,0.335-0.353,0.633
			c-0.052,0.602,0.265,1.16,0.929,1.219c0.601,0.055,1.319-0.498,0.977-1.169c-0.131-0.258-1.4-1.092-1.375-0.399"/>
		<path fill="#FFFFFF" d="M195.973,304.069c-1.209,0.67,0.07,2.553,1.333,2.036c0.588-0.243,0.968-0.862,0.605-1.394
			c-0.198-0.299-1.426-1.163-1.48-0.459"/>
		<path fill="#FFFFFF" d="M201.121,306.182c-1.083,0.339-1.561,2.285-0.166,2.565c0.677,0.131,1.541-0.778,1.346-1.469
			c-0.105-0.39-1.057-1.146-1.364-0.728"/>
		<path fill="#FFFFFF" d="M205.9,307.929c-1.265-0.205-0.968,1.64,0.067,1.748c1.781,0.189,1.026-2.033-0.248-2.016
			c-0.021,0.056-0.022,0.119-0.004,0.178"/>
		<path fill="#FFFFFF" d="M210.587,308.479c-0.702-0.133-0.339,2.14,1.056,1.384c1.495-0.809-0.739-2.226-1.149-1.564"/>
		<path fill="#FFFFFF" d="M215.46,308.298c-0.964,0.385-0.038,1.695,0.854,1.344c0.359-0.143,0.647-0.621,0.504-1.001
			c-0.161-0.423-0.658-0.466-1.083-0.438"/>
	</g>
	<g>
		<path d="M215.113,340.113c0.304,1.01-2.195,4.339-3.02,5.207c-1.286,1.344-3.015,2.093-4.771,2.618
			c-3.009,0.898-7.83,0.055-10.502-1.602c-4.681-2.895-9.729-11.865-5.562-16.963c1.958-2.389,4.091-3.904,7.2-4.547
			c1.032-0.214,2.602,0.047,3.503,0.754c1.153,0.901,1.36,2.466,1.813,3.801c0.508,1.498,1.849,2.016,3.253,0.949
			c0.482-0.363,0.854-1.098,1.303-1.531c0.524-0.497,0.875-0.717,1.56-1.004c3.11-1.28,5.724,1.356,6.661,4.129
			c0.522,1.548,0.789,3.357,0.218,4.857c-0.559,1.453-0.868,3.627-2.111,4.765"/>
		<path fill="#FFFFFF" d="M210.968,329.72c-0.106-0.687-1.844,0.08-2.287,0.326c-0.697,0.385-1.427,1.036-1.973,1.635
			c-1.248,1.365-2.093,3.495-1.556,5.348c0.561,1.921,2.034,3.723,4.208,3.803c2.11,0.08,3.68-1.285,4.704-3.049
			c1.15-1.973,1.267-4.153,0.208-6.189c-0.407-0.773-0.875-1.561-1.659-1.957c-0.411-0.205-0.938-0.387-1.397-0.448
			c-0.479-0.063-0.841,0.243-1.276,0.205"/>
		<path fill="#FD1813" d="M207.647,335.702c0.295,0.067,0.588-0.009,0.778-0.252c0.182-0.227,0.199-0.501,0.279-0.769
			c0.148-0.481-0.125-1.069-0.63-1.2c-0.267-0.067-0.487,0.079-0.719,0.197c-0.267,0.132-0.508,0.331-0.582,0.629
			C206.628,334.866,207.073,335.563,207.647,335.702z"/>
		<path d="M206.32,331.778c0.024,0.044,0.02,0.135,0.029,0.201c0.017,0.114,0.07,0.215,0.123,0.316
			c0.091,0.172,0.178,0.33,0.335,0.447c0.155,0.117,0.386,0.233,0.581,0.266c0.137,0.024,0.245-0.047,0.374-0.047
			c-0.105-0.071-0.243-0.085-0.359-0.145c-0.16-0.085-0.308-0.207-0.448-0.316c-0.261-0.198-0.548-0.474-0.681-0.773
			c0,0-0.004-0.007,0.013,0.023"/>
		<path d="M209.323,334.148c0.007,0.208,0.088,0.354,0.186,0.54c0.197,0.385,0.834,0.716,1.269,0.57
			c0.058-0.02,0.258-0.119,0.224-0.207c-0.019-0.049-0.47-0.113-0.545-0.143c-0.364-0.146-1.003-0.404-1.139-0.82"/>
	</g>
	<path d="M159.232,361.382c-1.232,0.14-2.616,0.132-3.93,0.132c-1.292,0-2.578,0.159-3.869,0.21
		c-1.079,0.041-2.127-0.064-3.195,0.08c-2.366,0.319-4.933-0.41-7.299-0.611c-7.376-0.627-14.725-2.723-20.739-7.151
		c-5.68-4.182-10.785-9.104-14.727-14.937c-4.285-6.344-7.307-13.377-9.048-20.814c-1.804-7.693-2.314-15.528-2.901-23.399
		c-0.402-5.356,0.971-9.771,2.961-14.662c2.037-5.006,4.842-8.702,8.506-12.583c3.633-3.853,7.91-6.311,12.123-9.444
		c4.365-3.243,9.196-5.921,13.722-9.041c1.169-0.806,1.947-2.075,3.151-2.825c0.379-0.234,0.805-0.376,1.155-0.658
		c0.47-0.381,0.708-1.029,1.226-1.326c1.142,1.346,1.589,3.186,2.738,4.556c0.622,0.741,1.94,1.627,1.107,2.67
		c-0.396,0.497-1.385,0.786-1.987,0.832c-0.524,0.04-0.694-0.023-1.213,0.249c-0.497,0.265-0.968,0.569-1.491,0.779
		c-1.275,0.516-2.492,1.232-3.719,1.855c-1.406,0.711-2.881,1.163-4.403,1.568c-1.355,0.36-2.591,1.122-3.844,1.818
		c-2.37,1.314-4.687,2.672-6.998,4.094c-1.424,0.876-2.833,1.75-4.186,2.707c-0.771,0.547-1.655,0.969-2.308,1.664
		c-0.463,0.492-0.778,1.094-1.172,1.634c-1.198,1.649-2.6,3.148-3.811,4.79c-2.461,3.344-4.125,6.471-5.545,10.307
		c-4.145,11.188,0.17,24.016,2.757,34.545c1.271,5.154,3.659,10.296,6.388,14.891c1.241,2.095,2.216,4.336,3.584,6.371
		c2.752,4.089,6.152,7.119,10.086,9.979c2.022,1.471,3.828,2.994,6.053,4.224c2.509,1.389,5.211,2.416,7.851,3.467
		c4.136,1.645,8.396,3.104,12.891,3.104c1.825,0,3.65-0.274,5.461-0.467c1.109-0.12,2.283-0.177,3.402-0.333
		c0.44-0.061,1.01-0.089,1.391-0.132c1.215-0.135,2.301-0.252,3.511-0.554c1.664-0.414,3.458-0.677,5.118-1.312
		c0.815-0.311,1.683-0.504,2.511-0.914c0.813-0.404,1.682-0.676,2.516-1.023c0.735-0.308,1.527-0.565,2.235-0.922
		c0.563-0.284,1.399-1.209,1.962-1.209c-0.101,0.994,1.072,1.955,0.034,2.557c-0.852,0.494-1.808,0.767-2.709,1.174
		c-0.98,0.445-1.912,1.011-2.912,1.453C167.713,360.522,163.473,360.907,159.232,361.382z"/>
	<g>
		<path d="M136.181,255.28c0.532,1.215,2.155,0.947,2.833-0.023c0.737-1.053-0.625-2.393-1.746-2.01
			C136.574,253.487,135.792,254.395,136.181,255.28z"/>
		<path d="M131.161,259.542c0.723-0.325,1.119-1.691,0.344-2.218c-0.74-0.501-1.746,0.376-1.739,1.161
			C129.773,259.385,130.278,259.937,131.161,259.542z"/>
		<path d="M125.169,264.219c1.321-0.247,1.628-1.682,0.973-2.726c-0.591-0.94-2.495-0.897-2.989,0.167
			C122.66,262.719,123.996,264.438,125.169,264.219z"/>
		<path d="M119.69,267.403c1.329-0.324,0.911-1.996,0.278-2.782c-0.985-1.222-1.807,0.171-1.717,1.238
			C118.325,266.724,118.624,267.666,119.69,267.403z"/>
		<path d="M114.781,272.027c1.244-0.431,1.599-1.975,0.593-2.871c-0.462-0.412-1.038-0.343-1.591-0.188
			C112.117,269.438,112.925,272.669,114.781,272.027z"/>
		<path d="M109.601,276.282c0.958-0.494,0.859-1.758,0.17-2.437c-0.708-0.696-2.104-0.179-2.074,0.82
			C107.727,275.72,108.542,276.828,109.601,276.282z"/>
		<path d="M105.038,283.201c1.216-0.231,1.83-1.741,1.08-2.773c-0.732-1.01-2.494-0.277-2.665,0.873
			C103.305,282.293,103.913,283.416,105.038,283.201z"/>
		<path d="M102.125,292.509c1.37,0.184,2.21-0.686,1.874-2.037c-0.121-0.484-0.42-1.195-0.936-1.327
			c-0.741-0.188-1.81,0.674-1.982,1.346C100.866,291.316,101.19,292.384,102.125,292.509z"/>
		<path d="M103.243,302.886c2.396,0.255,2.089-4.146-0.157-4.038C101.134,298.942,101.602,302.71,103.243,302.886z"/>
		<path d="M102.379,308.915c-0.36,1.104-1.504,4.9,0.943,4.57c3.158-0.434,0.75-6.596-0.943-3.993"/>
		<path d="M106.647,322.129c2.49-0.579,0.716-4.979-1.226-3.401C104.238,319.687,104.872,322.54,106.647,322.129z"/>
		<path d="M109.301,325.354c-1.807,0.102-1.468,3.571,0.574,3.475c3.571-0.173,0.009-5.255-1.155-2.896"/>
		<path d="M112.77,335.74c2.559-0.3,0.329-3.938-1.133-2.966C110.21,333.722,111.143,335.929,112.77,335.74z"/>
		<path d="M118.528,342.381c1.248-0.33,1.138-2.081,0.207-2.757c-1.068-0.775-2.045,0.35-1.922,1.405
			C116.929,342.032,117.45,342.669,118.528,342.381z"/>
		<path d="M122.474,347.073c0.271,2.484,3.72,1.936,3.263-0.56C125.309,344.167,122.221,344.739,122.474,347.073z"/>
		<path d="M133.755,353.334c0.834-1.589-1.741-3.607-3.014-2.307C129.26,352.542,132.553,355.617,133.755,353.334z"/>
		<path d="M137.853,354.194c-0.432,0.719-0.597,2.793,1.437,2.311c2.644-0.622-0.198-3.443-1.15-2.311"/>
		<path d="M144.196,355.347c-0.707,0.594-0.305,3.13,1.688,2.615c2.504-0.646,0.383-3.853-0.822-2.615"/>
		<path d="M151.983,355.347c0.089,0.981-0.223,3.861,2.022,2.6c1.951-1.094,0.419-3.229-1.445-2.889"/>
		<path d="M159.709,354.434c-1.129,1.627,1.537,3.297,2.516,1.562C163.166,354.325,160.698,353.008,159.709,354.434z"/>
		<path d="M169.288,353.04c1.869-0.286,1.786,2.838,0.042,2.551c0.067-0.603-0.038-1.188-0.334-1.685"/>
	</g>
	<path d="M217.851,219.911c-0.103,0.129-1.672-0.762-1.913-0.907c-0.83-0.504-1.667-1.03-2.182-1.878
		c-0.302-0.499-0.414-1.092-0.499-1.646c-0.087-0.572-0.284-1.118-0.392-1.688c-0.702-3.715,0.745-7.582,2.359-10.894
		c0.726-1.491,1.467-2.993,2.622-4.234c1.222-1.312,2.613-1.765,4.379-1.68c0.98,0.045,2.114,0.54,3.007,0.918
		c0.431,0.184,0.754,0.16,0.928,0.602c0.113,0.285,0.337,0.836,0.189,1.162c-0.064,0.141-0.369,0.374-0.474,0.523
		c-0.142,0.198-0.237,0.565-0.487,0.652c-0.397-0.364-0.709-0.624-1.242-0.824c-0.886-0.334-1.851-0.6-2.787-0.746
		c-0.44-0.069-1.823-0.348-2.135,0.109c-0.037,0.055-0.018,0.224-0.041,0.295c-0.048,0.152-0.169,0.328-0.245,0.467
		c-0.208,0.381-0.408,0.761-0.602,1.151c-0.408,0.831-0.7,1.705-0.986,2.585c-0.384,1.177-0.813,2.355-1.117,3.557
		c-0.323,1.275-0.752,2.527-1.059,3.811c-0.208,0.873-0.604,2.018-0.452,2.937c0.089,0.534,0.793,1.113,1.17,1.487
		c0.667,0.664,1.39,1.258,2.195,1.741c0.319,0.191,0.649,0.35,0.936,0.595c0.149,0.127,0.485,0.367,0.492,0.587
		c0.011,0.289-0.455,0.847-0.592,1.089c-0.139,0.243-0.492,0.939-0.78,0.963"/>
	<path fill="#245977" d="M215.565,209.69c-0.943-0.429-2.181-0.668-3.051-1.225c-0.629-0.402-1.042-1.729-0.456-2.383
		c0.842-0.938,3.644,1.327,4.535,1.664c-0.095-1.668-3.949-1.921-3.314-3.768c0.649-1.89,3.49,1.241,4.584,1.185
		c-0.82-0.962-2.101-1.537-2.831-2.606c-0.647-0.951-0.825-2.317,0.654-2.341c1.054-0.019,2.37,0.548,3.322,0.974
		c0.862,0.384,1.066,2.022,1.216,3.006c-0.41,0.307-0.883,0.499-1.328,0.738c0.623,0.515,1.545,1.3,1.312,2.271
		c-0.191,0.791-1.583,1.501-2.307,1.304c1.001,1.384-0.02,2.141-1.298,2.464c-1.383,0.352-2.369,0.561-2.643-1.098
		C214.54,209.681,215.005,209.697,215.565,209.69"/>
	<path fill="#245977" d="M317.96,198.587c-0.359,0.293-0.741,0.561-1.1,0.816c-0.525,0.368-0.998,0.766-1.572,1.07
		c-0.369,0.194-0.732,0.419-1.086,0.632c-0.189,0.112-2.479,1.469-2.041,1.759c-1.271-0.842-2.352-1.809-3.786-2.474
		c-0.404-0.183-0.888-0.275-1.267-0.496c-0.442-0.249-0.378-0.094-0.292-0.644c0.104-0.646,0.256-1.288-0.186-1.844
		c-0.394-0.494-1.073-0.75-1.519-1.214c-0.374-0.394-0.805-0.732-1.174-1.121c-0.457-0.479-0.651-1.144-0.999-1.695
		c-0.364-0.577-1.15-1.771,0.056-1.972c1.101-0.188,1.441,1.836,2.055,2.402c1.206,1.123,2.292-0.807,2.804-1.731
		c1.18-2.146,1.007-4.878,2.174-7.011c0.63-1.148,1.278,0.203,1.345,0.894c0.075,0.737-0.076,1.489-0.199,2.212
		c-0.152,0.869-0.338,1.584-0.338,2.486c0,0.623,0.334,3.114,0.888,1.35c0.216-0.685,0.44-1.431,1.079-1.844
		c0.85-0.552,1.398,0.054,1.987,0.676c0.421,0.445,0.368,0.266,0.212,0.85c-0.085,0.314-0.309,0.719-0.254,1.049
		c0.046,0.312,0.444,0.664,0.706,0.804c0.457,0.239,0.719,0.042,1.117-0.19c0.846-0.496,1.677-1.003,2.665-0.559
		c0.3,0.136,0.672,0.312,0.926,0.529c0.356,0.305,0.043,0.52-0.305,0.646c-0.631,0.229-1.601,0.315-1.983,0.949
		c-0.134,0.219-0.166,0.478-0.309,0.695c-0.043,0.063-0.682,0.943-0.355,0.992c0.275,0.041,0.583-0.11,0.814-0.25
		c0.226-0.139,0.479-0.467,0.755-0.49c0.296-0.031,0.587,0.361,0.625,0.621c0.047,0.334-0.144,0.721-0.333,0.978
		C318.768,197.878,318.378,198.252,317.96,198.587z"/>
	<path fill="#FFFFFF" d="M335.853,84.799c0.909,10.999,16.249,17.924,24.838,21.317c5.765,2.277,12.161,3.312,18.3,5.031
		c3.326,0.932,5.383,2.58,9.104,2.562c1.986-0.01,4.056,0.515,6.035,0.229c0.805-0.118,4.6-2.623,4.041-2.678
		c-6.384-0.615-12.63-0.33-18.689-1.581c-6.903-1.424-12.992-3.576-19.283-6.759c-5.229-2.648-10.649-5.07-15.077-9.119
		c-3.708-3.393-5.788-7.644-9.789-10.473c-1.761,2.586,0.546,4.073,3.055,4.513"/>
	<path d="M126.909,159.332c3.857-0.575,8.992,3.646,12.795,5.21c5.212,2.147,11.265,3.124,16.611,3.932
		c5.942,0.897,12.032,3.05,17.764,4.936c4.845,1.594,10.811,4.482,15.635,5.133c-0.186-3.51,1.732-4.467-1.941-6.037
		c-2.675-1.144-5.81-1.32-8.595-2.381c-5.678-2.161-11.886-3.106-17.918-4.198c-5.617-1.018-11.298-2.957-16.6-4.946
		c-4.869-1.826-10.203-4.664-15.115-5.641c-0.425,1.518-0.929,3.141-1.621,4.5"/>
	<path d="M294.287,172.013c0.75,0.461,2.942-1.207,4.183-0.913c1.604,0.376,1.763,2.753,3.858,2.355
		c0.167-2.294,0.245-4.213-1.422-5.958c-1.971,0.748-5.856,2.154-7.125,1.472"/>
	<path d="M294.794,161.361c1.485,0.683,2.251-0.422,3.98,0.075c-0.192,1.529,1.328,4.254,3.043,2.496
		c0.754-0.771,0.091-5.502-0.012-6.564c-1.985,0.202-2.18,3.312-4.984,1.457"/>
	<path d="M298.345,150.202c0.559,1.105,1.791,1.333,2.966,1.09c-0.062,0.535,0.254,1.361,0.152,1.886
		c3.034,0.089,1.453-4.205,2.399-5.927c-1.509,0.086-0.822,1.235-1.815,1.581c-1.184,0.409-2.36,0.343-3.702,0.356"/>
	<path d="M300.375,182.156c0.456-0.194,1.767-1.541,2.458-2.411c-0.989-0.805-0.671-0.986-0.858-2.076
		c1.697-0.379,4.103,2.497,4.941,3.877c-4.053-0.211-3.481,1.793-3.499,5.174"/>
	<path d="M318.557,182.741c0.095,0.967,0.164,1.926,0.302,2.887c0.056,0.394-0.007,0.672,0.284,1.006
		c0.252,0.287,0.595,0.487,0.906,0.705c0.303,0.213,1.244,0.854,1.027,1.202c-0.24,0.384-0.962,0.759-1.37,0.943
		c-0.355,0.163-0.751,0.281-1.14,0.163c-0.39-0.117-0.538-0.482-0.697-0.817c-0.192-0.408-0.411-0.521-0.715-0.808
		c-0.451-0.432-0.668-1.225-1.016-1.746c-0.9-1.357-2.161-1.387-3.524-0.618C312.649,182.971,316.402,182.446,318.557,182.741z"/>
	<path d="M326.242,181.649c-1.203-2.51-3.33-2.384-5.505-2.107c-0.833-2.549,1.65-3.911,3.375-4.941
		c0.502,4.49,0.208,3.781,3.652,6.034"/>
	<path d="M301.896,140.565c0.887,0.172,1.794-0.258,2.447-0.976c0.11,1.144,0.111,2.304,0,3.445
		c-0.748,0.045-1.371-0.326-1.94-0.949"/>
	<path d="M294.287,126.872c-2.936-0.287-1.21,3.74-1.447,6.008c1.165,0.218,2.031-0.328,2.461-1.444"/>
	<path d="M290.229,111.654c-0.144,2.509-1.389,6.634,3.043,5.58"/>
	<path d="M285.665,104.554c0.402,1.182,0.85,2.312,0.949,3.474c-0.682-0.129-1.733,0.292-2.406,0.165
		c0.246,3.27,5.088,1.8,4.5-1.608"/>
	<path d="M276.535,101.511c0.577,4.788-9.446,4.84-10.144,0"/>
	<path d="M259.29,102.019c-0.213,2.641-6.68,6.039-8.115,3.549"/>
	<path d="M122.09,154.261c0.222,0.139,0.234,0.229,0.038,0.272c-2.023,0.024-2.578,1.191-4.152,1.952
		c-2.199,1.063-3.938-0.119-3.175-2.473c0.683-2.114,2.175-3.909,4.181-2.473c0.783,0.56,0.555,0.914,1.587,1.197
		c0.941,0.258,1.927-0.288,2.788,0.256"/>
	<path d="M111.947,178.098c-0.033,0.406-3.786-0.724-4.706-0.772c-0.885-0.047-1.332-0.061-1.887,0.508
		c-0.485,0.496,0.045,1.641-1.016,1.558c-2.24-0.173-0.913-7.629,2.746-7.08c0.383,0.794,0.67,1.529,0.589,2.452
		c1.106,0.095,2.686-0.346,3.513,0.546"/>
	<path d="M197.157,176.576c0.546,0.079,1.887,0.625,2.288,1.516c0.688,1.524-0.805,2.157-2.044,2.569
		c-0.5-0.172-0.087-0.131,0.01-0.279"/>
	<path d="M194.621,203.458c0.999,0.33,2.452,0.727,2.041,2.282c-0.296,1.122-1.643,1.285-2.548,0.762"/>
	<path d="M308.271,188.78c0.194-0.044,0.359-1.312,0.404-1.61c0.063-0.427,0.271-0.776,0.337-1.202
		c0.05-0.322-0.016-0.227-0.239-0.436c-0.117-0.111-0.269-0.347-0.254-0.514c0.04-0.435,0.606-0.382,0.902-0.302
		c0.384,0.104,0.595,0.338,0.442,0.69c-0.153,0.351-0.311,0.655-0.4,1.016c-0.207,0.841-0.385,1.647-0.543,2.509
		c-0.103,0.562-0.355,0.937-0.799,0.3"/>
	<path d="M331.694,174.422c0.002,0.218-0.016-0.08-0.019-0.101c-1.13-0.521-2.585-0.29-3.784-0.562
		c-0.625-0.141-1.172-0.279-1.374-0.959c-0.156-0.522-0.066-1.454,0.07-1.957c0.128-0.47,0.733-1.672,1.439-1.094
		c0.365,0.3,0.029,1.343,0.238,1.756c0.509,1,2.243,0.586,3.177,1.142"/>
	<path d="M166.799,302.509c-0.438-0.578-1.683-0.626-2.338-0.887c-0.999-0.396-1.853-0.903-2.907-1.137
		c-1.471-0.325-2.845-1.003-4.217-1.695c-1.56-0.788-2.272-1.869-3.395-3.166c-1.381-1.596-2.763-3.791-3.5-5.795
		c-1.243-3.381-1.668-6.707-2.617-10.132c-1.085-3.921-1.85-7.931-2.676-11.842c-0.428-2.032-0.482-4.179-0.836-6.276
		c-0.132-0.779-0.167-1.585-0.333-2.355c-0.112-0.514-0.229-1.45-0.513-1.855c-0.854-1.219-3.055,1.115-3.93,1.647
		c-1.318,0.8-2.55,1.338-3.713,2.364c-2.018,1.781-4.647,2.851-6.89,4.263c-2.131,1.343-4.006,3.161-5.675,5.044
		c-1.364,1.539-2.194,3.242-3.288,4.94c-1.241,1.927-2.837,3.594-4.02,5.575c-2.377,3.983-4.055,8.666-4.771,13.234
		c-0.427,2.73-0.854,5.438-0.507,8.192c0.455,3.59,1.079,7.44,2.32,10.868c1.103,3.045,2.043,6.313,3.724,9.095
		c1.616,2.671,3.119,5.59,5.076,8.078c1.957,2.489,4.124,4.734,6.433,6.853c1.457,1.337,2.73,2.6,4.397,3.675
		c1.383,0.891,2.786,1.726,4.209,2.565c1.26,0.742,2.565,1.174,3.902,1.778c1.083,0.489,2.178,1.023,3.318,1.395
		c1.64,0.534,3.522,0.863,5.201,1.062c3.041,0.357,6.04,0.113,8.97-0.807c2.811-0.885,5.778-1.271,8.613-1.87
		c1.179-0.249,2.348-0.731,3.513-1.01c0.539-0.129,1.051-0.331,1.48-0.593c0.453-0.274,0.606-0.658,1.205-0.662
		c0.042-0.542-1.654-2.033-2.054-2.502c-0.95-1.111-1.455-2.527-2.025-3.854c-0.621-1.446-1.518-2.815-2.118-4.272
		c-0.634-1.542-1.186-3.138-1.692-4.723c-1.035-3.24-1.461-6.815-1.905-10.146c-0.235-1.757,0.008-3.767,0.008-5.544
		c0-1.626,0.068-3.27,0.635-4.775c0.381-1.018,0.814-2.057,1.554-2.869c0.907-0.994,1.829-0.704,3.03-0.875
		c0.093-0.486-1.383-1.253-1.837-1.325"/>
</g>
</svg>
