<?xml version="1.0" encoding="utf-8"?>
<!-- Generator: Adobe Illustrator 16.0.4, SVG Export Plug-In . SVG Version: 6.00 Build 0)  -->
<!DOCTYPE svg PUBLIC "-//W3C//DTD SVG 1.1//EN" "http://www.w3.org/Graphics/SVG/1.1/DTD/svg11.dtd">
<svg version="1.1" id="Ebene_1" xmlns="http://www.w3.org/2000/svg" xmlns:xlink="http://www.w3.org/1999/xlink" x="0px" y="0px"
	 width="411.783px" height="425.2px" viewBox="0 0 411.783 425.2" enable-background="new 0 0 411.783 425.2" xml:space="preserve">
<g>
	<path fill="#245977" d="M58.265,150.464c-3.4,11.466-6.265,23.856-7.827,35.878c-0.908,7-3.028,13.988-3.855,20.848
		c-0.521,4.326-0.885,8.761-1.831,12.786c-1.109,4.712-1.489,8.714-2.033,13.532c-0.452,4.002-1.54,8.147,0.773,12.154
		c-1.475,0.165-3.03-0.756-4.104-1.666c-1.125-0.953-2.476-1.634-3.641-2.586c-1.466-1.196-2.388-0.784-3.801,0.368
		c-0.539,0.438-1.167,0.842-1.565,1.418c-0.624,0.907,0.155,1.081,0.974,1.284c0.918,0.229,1.07,0.097,1.872-0.314
		c1.246-0.64,2.132,0.463,2.938,1.192c1.062,0.961,3.218,1.704,3.832,3.042c0.654,1.426-1.503,2.035-2.568,1.893
		c-0.661-0.088-0.896-0.323-1.631-0.115c-0.518,0.147-0.998,0.403-1.515,0.551c-1.016,0.289-1.734,1.013-1.472,2.203
		c0.223,1.012,0.936,2.139,1.427,3.121c0.251,0.5,0.566,0.969,0.819,1.449c0.216,0.408,0.404,1.271,0.829,1.541
		c0.83,0.533,2.494-0.184,2.032-1.342c-0.227-0.569-0.909-0.854-1.299-1.277c-0.269-0.292-0.643-0.794-0.822-1.146
		c-0.469-0.924-0.505-2.35,0.684-2.534c2.076-0.32,2.952,0.571,4.213,1.982c-1.126,1.247-1.865,2.743-1.292,4.452
		c0.22,0.649,2.007,0.006,2.323-0.234c0.666-0.505,1.048-1.338,1.404-2.068c0.387-0.787,0.885-1.568,1.214-2.375
		c0.482-1.178,1.055-1.189,2.108-1.886c0.729-0.481,1.329-1.032,2.146-1.341c1.215-0.459,4.044,1.191,4.645-0.688
		c0.26-0.809-0.329-1.112-0.958-1.55c-0.763-0.533-1.47-1.176-1.982-1.975c-0.56-0.871-1.102-1.863-0.968-2.942
		c0.245-1.98-0.028-3.728-0.026-5.756c0.003-2.479,0.1-4.979,0.708-7.395c0.176-0.706,0.702-4.073,1.316-4.194
		c0.046-0.861,0.363-1.672,0.622-2.486c0.42-1.325,0.679-2.698,1.009-4.057c1.165-4.78,1.239-9.76,1.693-14.611
		c0.322-3.43,0.605-6.869,0.914-10.29c0.339-3.757,0.85-7.558,1.33-11.31c0.527-4.111,1.616-8.048,2.483-12.09
		c0.653-3.043,1.373-6.072,2.264-9.055c0.435-1.455,0.791-3.166,1.506-4.511c0.233-0.441,0.601-0.695,0.806-1.128
		c0.291-0.609,0.385-1.309,0.761-1.943c0.187-0.315,0.927-1.714,1.32-1.716c0.616-0.004,1.895,2.03,2.208,2.429
		c1.046,1.328,1.917,2.674,2.713,4.171c1.252,2.356,2.134,4.926,3.167,7.386c0.501,1.191,0.993,2.398,1.606,3.552
		c0.685,1.288,1.678,2.392,2.391,3.651c0.875,1.547,1.842,3.166,2.62,4.789c0.746,1.554,1.609,3.049,2.369,4.612
		c0.953,1.964,1.84,3.919,2.621,5.927c0.993,2.553,1.911,5.186,2.753,7.779c0.48,1.479,1.27,2.86,1.788,4.331
		c0.864,2.453,1.827,4.874,2.757,7.294c1.566,4.082,2.744,8.333,4.578,12.305c1.928,4.168,3.381,8.58,5.128,12.824
		c0.598,1.449,1.394,2.797,1.944,4.255c0.445,1.168,1.012,2.284,1.568,3.4c1.194,2.398,2.401,4.784,3.637,7.159
		c0.76,1.464,1.746,4.375,3.821,4.142c0.837-0.095,1.632-0.612,2.368-0.98c1.186-0.591,2.42-1.048,3.659-1.511
		c2.001-0.746,4.552-1.371,5.678-3.38c0.89-1.585,0.299-3.265-0.482-4.754c-1.198-2.283-2.356-4.618-3.881-6.708
		c-2.673-3.658-5.413-7.227-8.016-10.91c-0.806-1.14-1.444-2.355-2.228-3.5c-0.663-0.97-1.159-2.035-1.747-3.045
		c-0.834-1.432-1.797-2.782-2.64-4.21c-3.208-5.429-5.848-11.176-8.768-16.759c-2.874-5.496-5.268-11.319-7.825-16.968
		c-1.356-2.995-2.642-6.021-4.055-8.989c-1.261-2.645-2.67-5.215-3.951-7.847c-2.188-4.503-4.019-9.191-6.456-13.575
		c-2-3.596-3.561-7.303-5.94-10.678c-0.492-0.697-1.009-1.436-1.536-2.088c-0.335-0.415-0.792-1.053-1.291-1.376
		c-0.902-0.587-2.174,0.308-3.125,0.733c-1.316,0.589-1.992,0.968-2.529,2.432c-0.66,1.797-0.675,3.735-1.098,5.584
		c-0.19,0.833-0.59,1.525-0.794,2.344C58.798,148.423,58.566,149.451,58.265,150.464z"/>
	<path d="M250.889,167.736c3.498,3.921,6.724,8.091,10.572,11.637c4.116,3.79,7.068,8.868,10.211,13.357
		c2.492,3.562,5.132,7.015,7.764,10.38c2.392,3.058,4.295,7.286,7.318,9.734c2.966,2.401,7.079,0.22,10.317-0.481
		c2.457-0.531,5.356-0.191,7.614-1.467c1.319-0.746,1.278-1.973,2.234-2.85c1.25-1.145,3.646-1.214,5.186-2.028
		c4.117-2.175,7.256-0.278,11.434-0.391c-1.68-0.453-2.893-1.686-4.298-2.632c-2.04-1.372-4.002-2.613-5.97-4.127
		c-5.111-3.939-10.088-8.245-15.106-12.453c-4.688-3.928-8.588-8.606-13.261-12.384c-5.158-4.169-10.277-8.788-15.062-13.31
		c-4.669-4.41-9.687-8.848-14.203-13.539c-3.19-3.315-6.724-6.516-9.81-9.899c-3.774-4.138-8.239-7.386-12.589-10.887
		c-1.804-1.451-3.15-2.625-5.379-3.203c-1.911-0.496-4.152-0.837-6.16-1.247c-2.296-0.469-4.386-0.47-6.771-0.483
		c-1.689-0.009-4.338-0.127-5.833,0.562c-2.682,1.235-3.007,4.557-3.797,7.042c-0.928,2.915-2.896,5.45-4.383,8.11
		c-3.668,6.562-6.302,13.612-8.949,20.627c-7.142,18.922-12.974,38.821-18.014,58.483c-0.77,3.002-1.444,6.113-1.919,9.177
		c-0.229,1.479-0.295,2.948-0.604,4.422c-0.358,1.715-0.802,3.415-0.978,5.161c-0.229,2.256-1.115,4.364-1.663,6.555
		c-0.954,3.819-2.026,7.723-3.302,11.447c-1.266,3.699-2.029,7.525-3.127,11.274c-0.742,2.539-1.244,5.168-2.047,7.683
		c-0.847,2.647-1.469,5.374-2.176,8.057c-0.334,1.274-0.464,2.617-0.842,3.872c-0.25,0.828-0.762,2.199,0.089,2.883
		c0.319,0.256,1.111,0.17,1.533,0.233c0.683,0.102,1.408,0.155,2.07,0.247c2.559,0.349,5.111,0.782,7.685,0.987
		c0.633,0.051,1.271,0.223,1.903,0.28c0.951,0.087,1.959-0.003,2.916-0.003c1.655,0,3.285,0.146,4.954,0.138
		c1.056-0.006,2.209,0.126,3.259,0.275c0.542,0.075,1.05,0.134,1.647,0.136c0.445,0.002,0.816-0.169,1.214-0.157
		c0.167-1.34,0.232-2.678,0.402-4.021c0.241-1.915,0.304-3.83,0.548-5.747c0.381-2.995,0.744-6.032,1.127-9.044
		c0.527-4.135,1.32-8.236,2.055-12.34c0.843-4.707,1.398-9.502,2.513-14.162c0.68-2.848,1.014-5.764,1.61-8.629
		c0.417-1.995,0.86-3.98,1.198-5.992c0.828-4.935,1.532-9.787,3.188-14.537c0.604-1.729,0.99-3.501,1.616-5.227
		c0.523-1.441,1.03-2.902,1.574-4.338c0.688-1.812,0.979-3.774,1.763-5.549c0.6-1.359,1.167-2.602,1.61-4.036
		c1.21-3.915,2.608-7.767,3.95-11.637c2.228-6.427,4.668-12.741,6.315-19.235c0.792-3.127,1.706-5.784,3.295-8.646
		c1.192-2.149,2.724-7.499,5.428-8.141c2.896-0.686,8.202,3.361,10.374,4.92c4.775,3.428,9.925,7.263,14.156,11.362
		C248.543,165.168,249.731,166.438,250.889,167.736z"/>
	<path fill="#245977" d="M54.486,251.479c-1.132,3.512,0.658,7.9-1.246,11.135c-0.615,1.047-1.786,1.609-2.195,2.774
		c-0.464,1.325,0.276,2.854,1.693,3.229c1.624,0.43,3.816-1.291,5.213-0.18c0.535,0.424,0.774,1.417,1.146,2.004
		c0.455,0.721,1.066,1.43,1.658,2.053c3.223,3.397,9.573,4.496,13.916,3.189c2.372-0.713,4.649-1.525,6.898-2.595
		c3.151-1.499,5.967-3.265,9.479-3.729c2.306-0.305,4.307-0.521,6.631-0.386c1.766,0.103,3.377,0.564,5.046,1.086
		c1.791,0.559,3.613,0.877,5.331,1.576c0.9,0.365,1.791,0.667,2.721,0.929c1.012,0.286,1.803,0.944,2.76,1.331
		c1.337,0.542,2.992,0.305,4.419,0.307c3.813,0.01,9.415-0.691,10.758-4.992c0.748-2.396-0.04-4.666-1.088-6.867
		c-1.144-2.405-2.396-4.575-4.957-5.734c-1.384-0.625-3.043-1.057-4.53-1.215c-1.214-0.129-2.378-0.457-3.572-0.657
		c-1.246-0.208-2.55,0.301-3.813,0.286c-3.116-0.035-6.592-0.303-9.585-1.174c-1.512-0.439-3.063-0.633-4.52-1.238
		c-1.189-0.495-1.918-1.305-2.808-2.197c-1.38-1.387-2.766-2.737-4.298-4.021c-3.511-2.939-7.899-5.479-12.54-6.123
		c-4.364-0.605-9.245-0.199-13.467,0.954c-1.968,0.537-4.063,2.632-5.452,4.061c-0.918,0.947-1.786,1.912-2.501,3.031
		C54.972,249.276,54.83,250.408,54.486,251.479z"/>
	<g>
		<path d="M47.356,274.542c-0.632-0.054-0.656-0.272-0.827-0.855c-0.188-0.638-0.367-1.352-0.489-2.016
			c-0.366-1.98-0.372-3.997-0.665-5.986c-0.116-0.792-0.078-1.598-0.211-2.37c-0.133-0.779-0.326-1.551-0.399-2.327
			c-0.077-0.819-0.316-1.629-0.339-2.455c-0.02-0.661,0.025-1.315,0.095-1.953c0.101-0.938,0.337-1.729,0.898-2.496
			c0.476-0.649,1.038-0.641,1.815-0.548c0.252,0.031,0.9,0.08,1.108-0.092c0.244-0.201,0.311-0.691,0.379-0.979
			c0.03-0.13,0.059-0.259,0.08-0.391c0.026-0.16-0.005-0.392,0.059-0.537c0.058-0.128,0.292-0.122,0.417-0.157
			c0.664-0.183,1.365-0.227,2.047-0.189c0.234,0.012,0.416,0.074,0.632,0.165c0.162,0.066,0.271,0.182,0.402,0.293
			c0.196,0.167,0.388,0.336,0.55,0.546c0.116,0.153,0.184,0.336,0.306,0.49c0.132,0.167,0.288,0.299,0.496,0.358
			c0.433,0.125,0.895-0.047,1.334,0.025c0.194,0.033,0.405,0.132,0.481,0.328c0.094,0.24,0.152,0.494,0.261,0.733
			c0.054,0.119,0.062,0.154,0.196,0.153c0.133-0.002,0.249,0.023,0.382,0.023c0.094,0,0.244-0.029,0.331,0
			c0.104,0.036,0.105,0.158,0.14,0.263c0.136,0.418,0.22,0.865,0.254,1.303c0.037,0.466,0.091,0.938,0.144,1.4
			c0.016,0.124,0.062,0.298,0.028,0.425c-0.019,0.066-0.138,0.224-0.198,0.264c-0.068,0.045-0.176,0.068-0.25,0.096
			c-0.043,0.017-0.107,0.014-0.143,0.03c-0.081,0.038-0.048,0.028-0.072,0.101c-0.035,0.098-0.033,0.195-0.068,0.294
			c-0.059,0.165-0.091,0.358-0.078,0.534c0.009,0.119,0.062,0.225,0.068,0.346c0.021,0.395,0.012,0.792,0.036,1.188
			c0.048,0.799,0.136,1.595,0.203,2.391c0.001,0.009,0.002,0.016,0.003,0.025c0.095,1.123,0.231,2.283,0.342,3.386
			c0.177,1.793,0.41,3.594,0.515,5.381c0.057,0.953-0.333,0.931-1.099,1.189c-0.643,0.216-1.21,0.661-1.868,0.864
			c-0.513,0.157-1.006,0.358-1.505,0.536c-0.532,0.188-1.104,0.162-1.672,0.192C50.104,274.584,48.728,274.658,47.356,274.542z"/>
		<path d="M46.38,264.964c0-0.767-0.067-1.529-0.157-2.291c-0.081-0.694-0.229-1.412-0.223-2.11c0.003-0.35,0.159-0.928-0.128-1.204
			c-0.185-0.176-0.492-0.184-0.728-0.176c-0.13,0.004-0.322-0.011-0.426,0.081c-0.113,0.1-0.156,0.301-0.196,0.439
			c-0.039,0.133-0.082,0.276-0.1,0.413c-0.022,0.165,0.039,0.238-0.165,0.247c-0.155,0.008-0.312-0.002-0.469-0.02
			c-0.317-0.034-0.631-0.096-0.951-0.095c-0.535,0.001-1.082-0.122-1.613-0.019c-0.215,0.042-0.406,0.13-0.625,0.151
			c-0.099,0.011-0.22,0.061-0.309,0.001c-0.094-0.064-0.111-0.207-0.151-0.304c-0.116-0.289-0.222-0.738-0.479-0.942
			c-0.157-0.124-0.404-0.175-0.594-0.193c-0.454-0.048-0.917-0.01-1.36,0.056c-0.708,0.106-1.276-0.029-1.345,0.757
			c-0.079,0.917,0.005,1.867,0,2.787c-0.006,1.231,0.077,2.606,0.238,3.828c0.123,0.94,0.356,1.967,0.468,2.912
			c0.107,0.928,0.067,1.895,0.265,2.809c0.044,0.204,0.077,0.405,0.141,0.603c0.11,0.016,0.228-0.009,0.34,0.002
			c0.196,0.021,0.393,0.03,0.595,0.026c0.225-0.003,0.458-0.018,0.682-0.043c0.221-0.026,0.428-0.111,0.654-0.105
			c0.07,0.004,0.149,0.043,0.199-0.004c0.021-0.02,0.063-0.167,0.074-0.198c0.045-0.134,0.016-0.271,0.085-0.401
			c0.021-0.041,0.187-0.344,0.192-0.342c0.376,0.051,0.795,0.167,1.198,0.226c0.549,0.079,1.154,0,1.71,0
			c0.482,0,0.988-0.046,1.466,0c0.497,0.047,0.921,0.165,1.448,0.106C46.411,269.663,46.38,267.318,46.38,264.964z"/>
		<path fill="#FFFFFF" d="M41.127,261.104c0.002,0.104,0.098,0.098,0.021,0.214c1.112,0.927,0.951,2.739,0.956,4.021
			c0.002,0.889-0.023,1.931-0.274,2.796c-0.163,0.559-0.601,1.551-0.434,2.119c0.334-0.354,0.838-0.192,1.3-0.251
			c0.104-0.849-0.104-1.689-0.104-2.544c0.003-0.773,0-1.547,0-2.321c0-0.848-0.035-1.501-0.274-2.294
			c-0.15-0.5-0.448-1.631-1.068-1.74"/>
		<path fill="#FFFFFF" d="M50.045,252.062c0,0.438,0.035,0.898-0.018,1.326c-0.309,0.041-0.689-0.063-0.936,0.129
			c-0.137-0.855-0.087-1.253,0.709-1.455"/>
	</g>
	<path d="M64.382,253.732c-0.077,0.062-0.924-0.16-1.178-0.156c-0.599,0.002-1.188-0.019-1.783,0.073
		c-0.515,0.08-1.025,0.212-1.547,0.245c-0.901,0.057-1.796,0.074-2.704,0.074c-0.348,0-1.062,0.131-1.377-0.045
		c0.186,0.137,0.213,0.452,0.259,0.662c0.509,0.072,1.062,0.002,1.565-0.068c0.83-0.118,1.682-0.175,2.517-0.251
		c0.802-0.074,1.599-0.141,2.413-0.141c0.443,0,1.257,0.155,1.668-0.05c-0.033,0.298-0.545,0.603-0.771,0.828
		c-0.427,0.432-0.679,0.543-1.227,0.735c-0.543,0.19-1.07,0.484-1.582,0.751c-0.36,0.188-0.7,0.279-1.068,0.424
		c-0.601,0.237-1.142,0.471-1.712,0.71c-0.2,0.085-0.847,0.518-1.016,0.364c-0.073-0.066-0.104-0.731-0.08-0.839
		c0.576-0.075,1.086-0.044,1.655-0.228c0.93-0.301,1.855-0.626,2.779-0.945c0.766-0.266,1.425-0.722,2.163-1.043
		c0.395-0.171,0.84-0.32,1.154-0.613c-0.038-0.026-0.083-0.033-0.13-0.016"/>
	<path fill="#FFFFFF" d="M56.747,254.519c0.045,0.099-0.001,0.31-0.003,0.416c-0.001,0.147-0.006,0.294-0.017,0.439
		c-0.016,0.216-0.044,0.429-0.036,0.646c0.029,0.731,0.265,1.453,0.485,2.144c0.116,0.36,0.223,0.812,0.47,1.103
		c0.316,0.373,0.538,0.342,0.933,0.088c0.869-0.559,1.559-1.332,2.319-2.025c0.682-0.62,1.393-1.199,2.112-1.773
		c0.271-0.215,0.517-0.466,0.756-0.716c0.126-0.13,0.51-0.569,0.353-0.712c-0.122-0.11-0.431-0.093-0.581-0.099
		c-0.418-0.017-0.849,0.06-1.264,0.019c-0.713-0.068-1.489-0.143-2.222-0.062c-0.661,0.075-1.311,0.299-1.967,0.38
		c-0.396,0.05-0.836-0.003-1.235-0.003c0.069,0,0.141,0,0.212,0"/>
	<path d="M57.691,254.441c0.342,0.127,0.36,0.368,0.478,0.661c0.106,0.268,0.171,0.532,0.211,0.816
		c0.063,0.472,0.197,0.939,0.241,1.409c0.025,0.256,0.022,0.561-0.052,0.801c-0.031,0.102-0.05,0.215-0.128,0.295
		c-0.135,0.141-0.2,0.078-0.37-0.033c-0.569-0.375-0.728-0.864-0.97-1.485c-0.186-0.478-0.312-1-0.291-1.517
		c0.009-0.204,0.012-0.429,0.108-0.612c0.09-0.173,0.216-0.249,0.301-0.021"/>
	<path d="M65.247,249.798c-0.328-0.048-0.794,0.228-1.109,0.315c-0.547,0.15-1.057,0.438-1.585,0.646
		c-1.063,0.416-2.065,0.977-3.144,1.341c-1.245,0.419-2.487,0.952-3.669,1.388c-0.14-0.552,0.352-0.678,0.754-0.88
		c0.557-0.279,1.158-0.519,1.75-0.745c1.25-0.477,2.439-1.071,3.693-1.531c0.51-0.188,1.048-0.322,1.517-0.589
		c0.417-0.237,0.802-0.57,1.243-0.734c0.504-0.188,0.994,0.151,1.373,0.491c0.268,0.24,0.934,0.613,0.979,0.995
		c-0.762,0.152-1.631-0.683-2.354-0.382"/>
	<path d="M96.899,252.189c0.089,0.068,0.179,0.135,0.269,0.201c-0.104-0.622-0.737-1.201-1.17-1.645
		c-1.141-1.169-2.238-2.517-3.377-3.756c-1.915-2.084-3.785-3.762-5.411-6.066c-1.364-1.936-2.299-3.537-4.338-4.895
		c-2.109-1.402-4.324-2.43-6.768-3.049c-4.285-1.086-8.823-2.848-13.065-0.839c-1.985,0.941-3.632,1.888-5.764,2.347
		c-2.024,0.436-4.031,0.107-6.065,0.368c-0.537,1.604,2.638,3.215,3.619,4.223c1.193,1.226,0.958,3.032,1.165,4.513
		c-0.949,0.469-2.158,0.104-2.666,1.205c0.769,0.441,1.354,0.826,2.035,1.362c0.849,0.666,0.511,1.015,1.821,0.466
		c1.712-0.717,3.104-2.01,4.886-2.744c1.923-0.792,3.861-1.151,6.092-1.144c1.243,0.005,2.249,0.142,3.413,0.321
		c1.104,0.17,2.528,0.674,3.63,0.639c0.393,3.089-0.243,5.911-0.887,8.797c-0.374,1.679-0.659,3.456-0.965,5.184
		c-0.127,0.707-0.438,1.414-0.616,2.135c-0.196,0.783-0.188,1.647-0.506,2.394c0.671,0.091,1.289,0.125,1.865,0.284
		c0.428,0.116,1.36,0.598,1.787,0.324c0.485-0.313,1.073-2.875,1.25-3.558c0.763-0.112,1.57-0.003,2.339-0.101
		c0.059-1.328,0.741-2.645,0.7-3.874c1.092,0.137,1.213-0.862,1.845-1.492c0.498-0.495,1.711-1.183,2.364-1.312
		c2.027-0.399,4.393,0.672,6.335,0.998c1.9,0.321,3.889,1.156,5.878,1.389c1.151,0.137,5.421,0.591,6.074-0.17
		c-1.487-0.035-5.26-1.67-6.074-2.812"/>
	<path fill="#245977" d="M142.636,271.704c-0.045,2.356-0.764,3.772-2.122,5.713c-2.33,3.323-5.444,6.284-8.201,9.258
		c-3.893,4.199-7.582,8.622-11.571,12.723c-2.298,2.362-4.966,4.022-7.686,5.901c-2.193,1.518-4.338,2.337-6.76,3.359
		c-3.891,1.644-7.942,3.283-11.653,5.268c-4.151,2.218-8.772,3.415-13.158,4.963c-3.682,1.301-7.404,2.742-11.08,3.956
		c-6.28,2.075-12.52,4.262-18.786,6.379c-2.965,1.002-5.911,2.136-8.975,2.767c-2.985,0.614-5.986,1.182-8.873,2.182
		c-2.932,1.017-7.298,0.797-10.279,0.057c-0.972-0.241-1.979-0.458-2.588-1.354c-0.63-0.925-0.259-1.754,0.112-2.705
		c0.695-1.78,1.776-3.65,2.732-5.3c0.639-1.1,1.443-2.108,2.075-3.206c0.926-1.609,1.58-3.329,2.701-4.825
		c1.842-2.461,3.391-5.028,4.962-7.568c1.453-2.349,2.953-4.585,4.172-7.1c1.409-2.911,3.18-5.737,4.059-8.86
		c0.599-2.125,1.126-4.285,1.67-6.396c0.256-0.991,0.506-2.01,0.84-2.986c0.598-1.744,1.004-2.682,0.055-4.346
		c-0.358-0.628-0.801-1.266-1.321-1.768c-0.88-0.849-2.171-1.119-3.308-1.293c-1.609-0.244-2.89-0.476-4.057-1.615
		c-1.446-1.412-2.794-2.954-4.298-4.305c-1.083-0.973-3.927-3.096-2.854-4.809c0.309-0.491,0.909-0.754,1.422-0.928
		c0.321-0.109,1.199-0.417,1.473-0.382c1.352,0.175,0.484,2.057,0.556,2.952c0.088,1.104,0.578,1.863,1.423,2.615
		c0.491,0.438,1.599,1.817,2.219,1.768c-0.008-0.533,0.345-0.855,0.177-1.446c-0.155-0.554-0.648-0.979-0.926-1.459
		c-0.642-1.108-0.817-2.136-1.097-3.272c-0.097-0.389-0.466-1.074-0.294-1.519c0.105-0.277,0.834-0.741,1.068-0.909
		c0.643-0.459,1.656-1.51,2.543-1.258c0.103,0.605,0.262,1.298,0.354,1.85c0.134,0.801-0.142,0.808-0.565,1.381
		c-0.524,0.709-0.981,1.896-0.872,2.8c0.126,1.041,0.843,1.751,1.61,2.433c0.674,0.596,1.365,1.672,2.249,1.971
		c1.151,0.387,1.281-1.012,1.404-1.887c0.331-2.33-0.08-4.693-0.088-7.03c-0.002-0.849-0.028-3.141,1.464-2.689
		c0.975,0.294,1.197,2.572,1.297,3.315c0.21,1.584-0.14,3.196-0.249,4.775c-0.092,1.328-0.181,3.049,1.194,3.786
		c0.404,0.216,1.01,0.296,1.492,0.188c0.314-0.069,0.639-0.223,0.952-0.31c0.379-0.105,0.726-0.258,1.088-0.422
		c0.704-0.319,1.167-0.843,1.695-1.354c0.518-0.502,1.145-0.938,1.831-1.209c0.41-0.16,1.586-0.411,1.747,0.186
		c0.203,0.74-0.398,1.291-0.786,1.839c-0.335,0.478-0.792,0.857-1.116,1.351c-0.379,0.576-0.511,1.172-0.595,1.834
		c-0.049,0.372-0.056,0.788-0.066,1.154c-0.014,0.412-0.071,0.806-0.068,1.217c0.009,0.961-0.136,1.942-0.136,2.924
		c0,2.049-0.149,3.891-0.61,5.88c-0.324,1.396-0.839,2.763-1.149,4.148c-0.727,3.251-1.816,6.391-2.966,9.518
		c-0.773,2.101-1.627,4.447-2.967,6.277c-1.562,2.136-3.062,4.401-4.407,6.682c-1.32,2.239-2.685,4.403-4.06,6.638
		c-0.737,1.197-3.072,4.657-1.371,5.602c1.635,0.909,4.117,0.111,5.716-0.398c4.437-1.416,8.625-2.339,13.071-3.863
		c2.823-0.968,5.464-1.731,8.259-3.19c2.902-1.515,5.944-3.296,8.681-5.032c3.889-2.464,7.397-5.653,11.412-7.892
		c6.381-3.555,11.981-8.241,18.282-11.89c2.94-1.703,5.854-3.512,8.738-5.372c1.091-0.704,2.055-1.444,3.167-2.048
		c3.393-1.84,5.826-3.011,8.52-5.849c2.942-3.101,5.732-6.341,8.53-9.571c1.688-1.951,3.568-3.406,6.015-4.233
		c2.478-0.836,6.627-1.909,8.601,0.454c2.069,2.479,1.866,6.24,0.025,8.837"/>
	<path fill="#FF0000" d="M109.894,276.826c0.004,0.113,0.007,0.225,0.009,0.338c0.005,1.484,0.096,2.967,0.172,4.448
		c0.06,1.178-0.181,2.774,0.35,3.842c0.711,1.431,2.948,1.771,4.195,2.569c1.67,1.068,2.859,2.487,3.95,4.094
		c1.7,2.503,3.1,7.129,5.938,4.182c1.473-1.528,3.031-3.023,4.615-4.521c1.373-1.299,2.367-2.925,3.654-4.271
		c1.38-1.447,3.125-2.33,4.976-3.002c5.409-1.963,11.62-3.793,17.355-3.741c6.76,0.06,13.518,0.238,20.278,0.238
		c8.333,0,16.689,0.081,24.981-0.573c8.741-0.691,17.812-1.247,26.408-3.031c13.072-2.714,27.085-5.386,38.904-11.932
		c3.722-2.062,6.951-4.938,10.553-7.204c1.724-1.084,16.007-10.106,16.508-9.577c-0.371-0.392-0.898-1.123-1.159-1.678
		c-1.992-4.25-5.533-7.578-8.502-11.135c-1.348-1.613-1.822-3.489-3.153-5.073c-1.506-1.793-3.506-3.112-4.926-4.988
		c-0.657-0.865-1.217-1.815-1.886-2.698c-1.081-1.431-2.104-2.537-3.433-3.761c-2.339-2.155-4.755-3.775-7.295-5.605
		c-2.81-2.024-5.538-4.305-8.84-5.373c-2.796-0.904-5.528-1.748-8.265-2.765c-1.193-0.444-0.562-0.561-1.998-0.194
		c-1.031,0.264-2.131,1.083-3.082,1.569c-1.924,0.983-3.85,1.967-5.835,2.822c-4.355,1.875-8.95,3.644-13.233,5.794
		c-11.546,5.796-23.31,12.314-35.568,16.267c-11.364,3.664-22.381,8.851-34.023,11.661c-6.902,1.667-13.593,3.936-20.752,3.356
		c-4.093-0.331-8.211,0.11-12.19,1.098c-1.986,0.494-3.915,1.146-5.844,1.826c-0.53,0.188-4.271,1.271-4.229,1.537
		c0.145,0.95,0.471,2.02,0.699,3.021c0.523-0.012,1.066,0.326,1.536,0.444c0.55,0.139,1.08,0.081,1.651,0.134
		c1.227,0.119,2.528,0.482,3.767,0.843c1.388,0.403,2.848,0.489,4.013,1.426c0.891,0.716,1.596,2.272,1.989,3.309
		c0.461,1.212,0.975,2.379,1.287,3.636c0.29,1.17,0.694,2.349-0.062,3.46c-0.628,0.924-2.19,1.564-3.16,2.013
		c-1.863,0.864-3.902,1.617-5.849,2.233c-1.003,0.317-1.993,0.727-3,1.047c-0.445,0.141-1.021,0.351-1.477,0.339
		c0.06,0.496-0.16,1.096-0.16,1.653C109.762,275.562,109.861,276.182,109.894,276.826z"/>
	<g>
		<path fill="#FFFFFF" d="M113.662,272.109c-0.753,0.267-1.503,0.558-2.264,0.8c-0.445,0.141-1.021,0.351-1.477,0.339
			c0.012,0.101,0.011,0.207,0.004,0.315c1.353-0.072,2.713-0.069,4.072-0.014C113.856,273.078,113.823,272.576,113.662,272.109z"/>
		<path fill="#FFFFFF" d="M120.978,273.891c-0.003-0.014-0.005-0.023-0.003-0.033c-0.118-0.248-0.158-0.583-0.215-0.814
			c-0.154-0.648-0.29-1.301-0.428-1.952c-0.097-0.456-0.192-0.912-0.292-1.368c-0.923,0.421-1.885,0.814-2.855,1.18
			c0.09,0.527,0.18,1.054,0.267,1.583c0.049,0.289,0.125,0.593,0.132,0.888c0,0.027-0.012,0.046-0.028,0.058v0.334
			c0,0.016-0.005,0.028-0.012,0.039c1.082,0.108,2.159,0.24,3.229,0.391c0.125,0.015,0.249,0.034,0.371,0.052
			C121.079,274.132,121.021,274.013,120.978,273.891z"/>
		<path fill="#FFFFFF" d="M114.313,255.277c-0.196-1.9-1.059-3.642-1.562-5.469c-0.303,0.106-1.578,0.484-2.648,0.845
			c0.185,1.425,0.511,2.83,0.918,4.206c0.459,0.071,0.911,0.039,1.394,0.084c0.62,0.061,1.26,0.184,1.9,0.336
			C114.313,255.279,114.313,255.278,114.313,255.277z"/>
		<path fill="#FFFFFF" d="M124.548,274.799c0.476,0.072,0.952,0.142,1.429,0.219c0.022-0.049,0.05-0.095,0.08-0.137
			c0.004-0.009,0.012-0.018,0.017-0.025c0.005-0.011,0.011-0.02,0.02-0.026c0.048-0.065,0.104-0.141,0.109-0.212
			c0.01-0.087,0.134-0.097,0.149-0.023c0.728-1.426,0.832-3.176,0.836-4.74c0.006-2.271-0.281-4.545-0.715-6.771
			c-0.566-2.916-1.369-5.813-2.516-8.558c-0.475-1.137-1.006-2.261-1.676-3.298c-0.459-0.714-0.995-1.439-1.701-1.93
			c-0.367-0.021-0.799-0.507-1.035-0.724c-0.23-0.214-0.456-0.433-0.676-0.657c-0.09,0.021-0.179,0.043-0.269,0.064
			c-1,0.248-1.983,0.536-2.961,0.85c1.228,1.141,2.08,2.66,2.71,4.199c0.502,1.219,0.886,2.48,1.197,3.76
			c0.224,0.119,0.44,0.258,0.646,0.423c0.891,0.716,1.596,2.272,1.989,3.309c0.461,1.212,0.975,2.379,1.287,3.636
			c0.29,1.17,0.694,2.349-0.062,3.46c-0.14,0.206-0.327,0.396-0.543,0.575c0.193,0.406,0.373,0.816,0.54,1.227
			c0.632,1.562,1.23,3.347,1.163,5.066c0.016,0.1,0.015,0.2-0.019,0.293C124.549,274.785,124.549,274.791,124.548,274.799z"/>
		<path fill="#FFFFFF" d="M132.489,272.081c-0.201-8.685-1.211-17.513-5.291-25.295c-1.979,0.049-3.952,0.265-5.899,0.618
			c0.034,0.025,0.07,0.05,0.107,0.074c-0.01-0.052,0.027-0.11,0.089-0.086c0.387,0.151,0.702,0.461,1.016,0.723
			c0.371,0.309,0.737,0.604,1.072,0.953c0.692,0.721,1.297,1.523,1.813,2.376c0.998,1.649,1.72,3.448,2.335,5.271
			c0.663,1.961,1.303,3.952,1.788,5.965c0.549,2.283,0.917,4.607,1.16,6.943c0.121,1.184,0.217,2.37,0.287,3.559
			c0.066,1.139,0.207,2.284,0.156,3.426c0.452,0.246,0.886,0.523,1.3,0.825c0.009-0.052,0.075-0.085,0.118-0.054
			C132.541,275.613,132.531,273.847,132.489,272.081z"/>
		<path fill="#FFFFFF" d="M140.733,274.434c0.101-4.954-0.021-9.97-0.785-14.873c-0.682-4.385-1.915-8.656-3.616-12.751
			c-0.423,0.04-0.848,0.077-1.273,0.103c0.012,0.044,0.023,0.086,0.034,0.13c0.845,3.313,1.533,6.669,2.038,10.052
			c0.354,2.379,0.631,4.771,0.82,7.17c0.194,2.456,0.267,4.914,0.37,7.375c0.104,2.452,0.242,4.908,0.184,7.363
			c-0.024,1.065-0.071,2.137-0.191,3.195c-0.085,0.755-0.185,1.625-0.664,2.248c0,0.002-0.003,0.004-0.006,0.006
			c0.015,0.027,0.028,0.053,0.042,0.078c0.021-0.008,0.045-0.017,0.067-0.025c0.825-0.299,1.669-0.596,2.526-0.882
			C140.498,280.562,140.67,277.5,140.733,274.434z"/>
		<path fill="#FFFFFF" d="M152.408,267.772c-1.35-4.27-2.895-8.463-4.462-12.656c-1.212-3.239-2.393-6.504-3.294-9.845
			c-1.429,0.352-2.86,0.679-4.296,0.949c3.101,7.213,4.231,15.129,5.224,22.86c0.164,1.269,0.327,2.528,0.55,3.787
			c0.259,1.465,0.523,2.93,0.724,4.403c0.198,1.452,0.368,2.929,0.318,4.397c0,0.004,0,0.01-0.001,0.015
			c2.664-0.583,5.349-0.944,7.938-0.921c0.473,0.005,0.945,0.011,1.418,0.016C154.998,276.495,153.775,272.089,152.408,267.772z"/>
		<path fill="#FFFFFF" d="M202.926,275.448c-5.521-6.452-10.584-13.307-15.202-20.431c-4.245-6.549-8.243-13.429-13.758-19.007
			c-2.972,1.123-5.942,2.259-8.929,3.336c1.917,3.03,3.762,6.105,5.57,9.2c3.938,6.746,7.714,13.586,11.758,20.271
			c2.487,4.113,5.078,8.175,7.861,12.097c3.388-0.077,6.771-0.222,10.142-0.487c2.159-0.172,4.338-0.334,6.526-0.51
			C205.546,278.452,204.222,276.963,202.926,275.448z"/>
		<path fill="#FFFFFF" d="M218.393,264.252c-5.327-5.884-10.258-12.126-14.753-18.668c-3.681-5.358-7.072-10.908-10.196-16.606
			c-2.604,1.06-5.229,2.034-7.877,2.888c-0.804,0.26-1.605,0.527-2.407,0.801c1.375,2.453,2.78,4.89,4.228,7.302
			c4.303,7.174,8.924,14.164,13.971,20.837c4.835,6.392,10.058,12.51,15.775,18.129c3.252-0.392,6.48-0.881,9.644-1.537
			c1.308-0.271,2.624-0.543,3.944-0.816C226.417,272.672,222.296,268.562,218.393,264.252z"/>
		<path fill="#FFFFFF" d="M237.441,260.059c-5.063-6.353-9.665-13.053-14.251-19.754c-2.429-3.548-4.806-7.161-6.503-11.127
			c-1.386-3.238-2.305-6.716-2.153-10.224c-3.526,1.804-7.078,3.615-10.661,5.345c1.854,3.908,4.484,7.488,7.19,10.801
			c2.69,3.291,5.533,6.46,8.298,9.689c3.1,3.621,6.216,7.229,9.401,10.774c3.188,3.549,6.442,7.039,9.815,10.413
			c2.417,2.417,4.909,4.761,7.419,7.082c0.856-0.232,1.71-0.472,2.56-0.719C244.545,268.542,240.881,264.373,237.441,260.059z"/>
		<path fill="#FFFFFF" d="M291.582,247.006c-0.973-2.074-2.481-4.1-4.119-6.061c-0.898,0.924-2.453,0.888-3.683,0.67
			c-2.329-0.412-4.557-1.418-6.661-2.465c-2-0.996-3.944-2.106-5.84-3.289c-2.257-1.408-4.365-3.044-6.498-4.63
			c-3.353-2.493-6.665-5.086-9.548-8.125c-1.414-1.49-2.729-3.079-3.871-4.788c-1.062-1.592-2.101-3.226-2.843-4.996
			c-0.549-0.465-1.005-1.044-1.375-1.66c-1.27-2.121-1.823-4.676-1.993-7.15c-1.683,0.787-3.288,1.616-4.888,2.439
			c-0.12,0.643-0.158,1.303-0.115,1.958c0.168,2.66,1.318,5.205,2.625,7.487c1.496,2.61,3.309,5.034,5.241,7.335
			c2.049,2.437,4.229,4.758,6.517,6.97c5.684,5.496,11.953,10.459,18.712,14.567c4.234,2.574,8.786,4.943,13.564,6.483
			c3.104-1.84,5.724-3.29,5.934-3.068C292.37,248.292,291.843,247.561,291.582,247.006z"/>
		<path fill="#FFFFFF" d="M266.048,255.139c-6.495-4.16-12.483-9.15-17.795-14.74c-4.781-5.03-9.201-10.626-12.261-16.887
			c-1.905-3.902-3.221-9.282-1.826-13.621c-3.262,1.399-6.651,2.744-9.94,4.236c-0.087,0.996,0.144,2.037,0.409,2.977
			c0.422,1.487,1.021,2.922,1.685,4.316c0.579,1.223,1.21,2.421,1.864,3.605c0.726,1.314,1.406,2.652,2.111,3.979
			c3.605,6.775,7.512,13.401,11.884,19.713c4.493,6.487,9.478,12.682,15.183,18.147c0.611,0.586,1.232,1.161,1.859,1.729
			c2.211-0.938,4.37-1.971,6.46-3.129c2.98-1.65,5.645-3.823,8.437-5.787C271.324,258.341,268.63,256.793,266.048,255.139z"/>
		<path fill="#FFFFFF" d="M175.833,273.807c-2.403-3.878-4.99-7.628-7.56-11.395c-4.409-6.466-8.733-13.043-12.018-20.154
			c-1.561,0.461-3.131,0.887-4.713,1.269c-0.203,0.049-0.405,0.101-0.607,0.15c0.875,1.997,1.762,3.986,2.666,5.968
			c3.9,8.559,8.068,17,12.608,25.238c1.124,2.04,2.271,4.068,3.441,6.082c1.911,0.021,3.823,0.036,5.735,0.036
			c1.608,0,3.217,0.004,4.826,0.004C178.754,278.604,177.313,276.193,175.833,273.807z"/>
		<path fill="#FFFFFF" d="M127.71,281.572c-5.146-3.632-11.604-4.771-17.821-4.812c0.001,0.022,0.004,0.045,0.005,0.066
			c0.004,0.113,0.007,0.225,0.009,0.338c0.004,0.855,0.034,1.71,0.076,2.562c3.199,0.551,6.371,1.333,9.363,2.595
			c2.901,1.224,5.639,2.903,7.827,5.189c1.031,1.078,1.918,2.263,2.671,3.528c1.027-1.143,1.885-2.431,2.938-3.533
			c0.074-0.078,0.15-0.153,0.226-0.229C131.648,285.051,129.875,283.1,127.71,281.572z"/>
		<path fill="#FFFFFF" d="M121.646,288.934c-2.919-2.831-7.245-6.431-11.571-6.062c-0.016,0.908-0.007,1.865,0.35,2.583
			c0.711,1.431,2.948,1.771,4.195,2.569c1.67,1.068,2.859,2.487,3.95,4.094c1.7,2.503,3.1,7.129,5.938,4.182
			c0.655-0.679,1.328-1.352,2.012-2.021C124.979,292.421,123.378,290.612,121.646,288.934z"/>
	</g>
	<path fill="#245977" d="M292.251,236.692c-1.002,0.456-1.892,1.117-2.753,1.795c-0.42,0.332-0.845,0.782-1.316,1.038
		c-0.363,0.196-0.745,0.204-1.109,0.458c-0.406,0.284-0.758,0.58-1.13,0.929c-0.319,0.301-0.679,0.661-1.114,0.772
		c-0.406,0.105-0.854-0.112-1.255-0.16c-0.564-0.067-1.125-0.099-1.673-0.277c-0.609-0.199-1.114-0.472-1.694-0.732
		c-0.524-0.235-1.09-0.45-1.606-0.695c-1.998-0.943-3.909-1.968-5.854-3.003c-0.463-0.246-0.938-0.459-1.377-0.744
		c-0.35-0.227-0.729-0.562-1.062-0.831c-0.84-0.678-1.682-1.259-2.57-1.858c-2.017-1.364-3.942-2.773-5.933-4.195
		c-0.958-0.685-1.983-1.251-2.902-1.986c-0.424-0.34-0.803-0.608-1.182-1c-0.212-0.219-0.765-0.619-0.803-0.913
		c0.977-0.514,1.786-1.155,2.633-1.856c0.594-0.491,1.206-0.989,1.858-1.394c0.259-0.159,0.566-0.268,0.79-0.479
		c0.264-0.25,0.506-0.511,0.792-0.745c0.672-0.547,1.381-1.048,2.071-1.569c0.335-0.252,0.61-0.566,0.952-0.801
		c0.374-0.261,0.81-0.441,1.196-0.68c1.762-1.078,3.569-2.051,5.524-2.77c0.479-0.178,0.973-0.387,1.444-0.588
		c0.649-0.278,1.292-0.541,1.942-0.822c1.038-0.451,2.124-0.812,3.176-1.24c0.43-0.176,0.859-0.361,1.294-0.553
		c2.919-1.281,5.983-2.217,9.057-3.133c4.815-1.437,11.079-3.986,14.48,0.655c2.835,3.866,3.541,9.142,2.834,13.788
		c-0.457,3.007-1.229,5.7-1.963,8.628c-0.619,2.468-0.646,5.041-1.967,7.151c0.894-1.429-4.476-2.712-4.942-2.749
		C296.218,235.982,293.949,235.92,292.251,236.692z"/>
	<path fill="#245977" d="M149.923,296.814c-1.265,0-2.531,0.025-3.794-0.043c-0.365-0.02-0.725-0.094-1.09-0.125
		c-0.336-0.028-0.7,0.068-1.027,0c-0.244-0.052-0.482-0.17-0.728-0.233c-0.286-0.072-0.559-0.198-0.765-0.416
		c-0.35-0.374-0.142-0.839-0.006-1.28c0.215-0.699-0.018-1.081-0.603-1.5c-0.976-0.697-2.06,0.359-2.544,1.172
		c-0.141,0.236-0.344,0.435-0.426,0.71c-0.064,0.214,0.004,0.431,0.015,0.653c0.01,0.24,0.067,0.467,0.093,0.699
		c0.037,0.323,0.003,0.556,0.294,0.795c0.261,0.217,0.64,0.309,0.929,0.489c0.163,0.102,0.433,0.274,0.527,0.452
		c0.222,0.417-0.268,0.764-0.621,0.84c-1.336,0.29-2.799-1.523-3.994-0.273c-0.371,0.389-0.774,1.087-0.139,1.41
		c0.581,0.296,1.325,0.222,1.969,0.285c0.601,0.058,1.454,0.046,1.693,0.748c0.173,0.512-0.326,0.994-0.846,0.94
		c-0.529-0.056-1.033-0.342-1.55-0.482c-0.635-0.174-1.484-0.137-1.925,0.444c-0.726,0.958,0.975,1.595,1.626,1.736
		c0.359,0.079,0.705,0.086,1.064,0.13c0.219,0.027,0.574,0.082,0.74,0.246c0.395,0.39-0.437,0.832-0.742,0.886
		c-0.422,0.072-0.896-0.055-1.277-0.201c-0.333-0.129-0.624-0.293-0.946-0.451c-0.277-0.135-0.504-0.333-0.793-0.443
		c-0.704-0.268-1.521-0.328-2.274-0.26c-0.737,0.066-1.756,0.176-2.235,0.835c-0.502,0.688-0.44,1.493-0.42,2.313
		c0.027,1.027,0.597,1.778,1.509,2.242c1.244,0.634,2.463,0.75,3.849,0.748c1.335-0.002,2.722,0.024,4.018-0.339
		c0.436-0.121,0.887-0.196,1.318-0.327c0.333-0.101,0.652-0.262,0.975-0.393c0.69-0.277,1.356-0.558,2.035-0.869
		c0.543-0.248,1.07-0.52,1.602-0.795c0.41-0.211,0.812-0.349,1.256-0.481c0.448-0.135,0.903-0.298,1.368-0.363
		c0.573-0.08,1.146-0.019,1.724-0.044c0.396-0.018,0.789-0.071,1.183-0.125c0.547-0.072,1.026-0.092,1.564,0.033
		c0.558,0.131,1.073,0.091,1.643,0.035c1.503-0.145,2.994-0.047,4.489,0.137c1.25,0.154,2.489,0.322,3.729,0.562
		c1.898,0.367,3.856,0.623,5.67,1.292c0.774,0.286,1.58,0.484,2.366,0.738c1.071,0.345,2.193,0.47,3.312,0.469
		c0.349,0,0.687-0.039,1.031-0.049c0.454-0.013,0.919,0.038,1.37-0.007c0.598-0.062,1.19-0.113,1.773-0.279
		c0.061-0.018,0.121-0.041,0.182-0.061c2.139-0.751,3.465-2.71,3.856-4.887c0.769-4.279-2.4-4.009-3.948-7.09
		c-0.725-1.442-0.475-2.785,0.19-4.182c0.7-1.467,0.868-2.981,1.054-4.605c0.059-0.513,0.062-0.995,0.137-1.506
		c0.076-0.515,0.169-1.068,0.109-1.593c-0.603,0.019-1.354-0.288-1.981-0.394c-0.946-0.16-1.841-0.368-2.77-0.48
		c-1.679-0.203-3.449-0.34-5.113-0.548c-0.333-0.042-0.495-0.23-0.785,0.058c-0.142,0.141-0.377,0.967-0.42,1.143
		c-0.511,2.161-0.633,4.814-1.812,6.75c-0.371,0.61-0.93,1.059-1.442,1.541c-0.902,0.845-1.735,1.715-2.798,2.364
		c-0.577,0.351-1.127,0.589-1.776,0.729c-0.646,0.141-1.311,0.257-1.969,0.373c-0.723,0.131-1.491,0.224-2.225,0.283
		c-0.584,0.05-1.17,0.051-1.755,0.043c-0.388-0.006-0.756-0.123-1.144-0.142C152.312,296.818,151.114,296.814,149.923,296.814z"/>
	<path d="M295.445,234.444c0.451,0.646-6.121,4.443-7.318,5.39c-3.853,3.039-5.882,7.5-9.186,10.998
		c-1.151,1.217-2.566,2.107-3.665,3.385c-1.771,2.058-2.85,4.641-4.404,6.859c-3.519,5.021-7.408,10.21-12.02,14.42
		c-5.493,5.015-10.435,10.346-16.008,15.219c-6.291,5.5-12.535,11.655-19.406,16.525c-6.078,4.31-12.975,8.815-18.09,14.009
		c-3,3.045-7.206,6.132-9.06,10.269c-1.679,3.747-1.593,6.422-0.204,10.062c0.952,2.491,3.234,5.06,5.873,5.83
		c2.438,0.712,5.405-0.173,7.942,0.055c8.443,0.754,17.02,1.628,25.451,2.604c6.245,0.72,12.802,0.021,19.007,0.57
		c8.86,0.782,17.961,0.377,26.868,1.258c8.916,0.881,17.925,0.578,26.827,1.574c2.085,0.234,4.218,0.482,6.247,0.713
		c1.662,0.189,3.823,0.461,5.285-0.448c2.352-1.46,3.977-5.087,4.217-7.683c0.386-4.172,0.471-9.057-0.068-13.195
		c-1.258-0.307-2.461,0.259-3.692,0.386c-1.593,0.164-3.326,0.055-4.925,0.002c-2.765-0.093-5.467-0.847-8.236-0.915
		c-3.466-0.087-6.897-0.661-10.383-0.925c-5.802-0.44-11.813,0.013-17.633,0.01c-18.265-0.004-36.366-2.853-54.614-2.265
		c1.694-1.551,4.003-2.49,5.935-3.707c3.023-1.9,6.189-3.348,9.405-4.869c3.775-1.787,7.758-3.934,11.246-6.189
		c3.783-2.447,7.622-4.899,11.207-7.67c10.467-8.088,21.948-15.601,30.657-25.639c3.653-4.212,8.322-7.287,11.97-11.387
		c3.82-4.294,8.285-7.877,12.272-11.917c2.08-2.106,4.324-3.945,6.506-5.938c2.507-2.289,4.363-5.024,6.45-7.729
		c2.647-3.432,5.127-6.826,7.296-10.586c5.753-9.975-2.509-27.449-12.934-31.652c-5.493-2.215-10.989-1.686-16.924-1.729
		c-2.494-0.018-4.229,1.252-6.482,2.16c-2.457,0.99-6.365,2.107-9,2.024c-0.293,2.516,0.78,4.571,1.315,6.771
		c0.598,2.453,1.185,4.939,1.817,7.342c0.58,2.201,3.269,15.679,0.457,16.466"/>
	<path fill="#245977" d="M315.078,343.901c-0.414-1.493-1.398-2.94-1.371-4.506c1.097-0.225,2.491-0.345,3.658-0.312
		c1.228,0.033,2.735,0.071,3.774,0.097c2.453,0.059,4.571-0.464,6.917-1.114c5.281-1.466,10.242-3.079,15.719-3.602
		c4.429-0.422,4.609-5.467,7.992-7.684c3.865-2.534,6.262-1.061,7.038,2.873c0.57,2.888,1.456,5.229,4.287,6.489
		c2.995,1.335,6.212,2.286,9.095,3.824c2.405,1.282,5.098,2.078,7.547,3.354c0.979,0.51,1.936,1.131,2.642,1.993
		c0.281,0.341,0.517,0.718,0.708,1.115c0.092,0.188,0.261,0.385,0.32,0.572c0.075,0.242-0.014,0.52,0.015,0.768
		c0.047,0.398,0.196,0.771,0.253,1.164c0.095,0.66,0.164,1.388,0.383,2.038c0.245,0.733,0.775,1.314,1.095,2.022
		c0.325,0.718,0.455,1.626,0.361,2.441c-0.174,1.496-1.882,2.446-3.201,2.61c-1.417,0.175-3.198,0.376-3.708-1.268
		c-0.275-0.886-0.181-1.483,0.359-2.254c0.247-0.353,0.931-1.396,0.229-1.619c-0.13-0.041-0.348,0.001-0.485-0.015
		c-0.121-0.014-0.278-0.111-0.439-0.068c-0.423,0.109-0.377,0.414-0.418,0.762c-0.082,0.696-0.068,1.516-0.274,2.188
		c-0.2,0.65-0.537,1.488-1.182,1.833c-0.542,0.289-1.448,0.078-2.004-0.061c-0.624-0.156-1.23-0.699-1.01-1.44
		c0.181-0.61,1.004-0.85,1.103-1.507c0.056-0.371-0.127-0.598-0.404-0.783c-0.187-0.124-0.644-0.399-0.858-0.404
		c-0.506-0.01-0.722,1.357-0.828,1.776c-0.19,0.753-0.68,1.429-1.404,1.765c-0.349,0.161-0.753,0.203-1.117,0.337
		c-0.501,0.183-1.084,0.261-1.618,0.252c-0.854-0.015-2.178-0.373-2.027-1.431c0.101-0.711,0.947-1.224,1.521-1.539
		c0.635-0.351,1.347-0.605,1.345-1.408c-0.003-0.713-0.468-1.314-1.014-1.747c-0.501-0.398-0.629-0.239-0.94,0.233
		c-0.268,0.408-0.679,0.966-1.068,1.261c-0.637,0.483-2.302,1.174-2.453-0.084c-0.129-1.069,1.337-0.993,1.183-1.937
		c-0.122-0.754-1.01-1.283-1.61-1.631c-0.583-0.336-1.128-0.664-1.657-1.089c-1.313-1.052-2.617-2.217-4.252-2.735
		c-2.646-0.839-5.571,0.459-8.255,0.683c-6.373,0.532-12.701,1.473-19.069,1.97c-2.72,0.213-5.266,0.217-7.834,0.301
		c-2.265,0.073-4.537,1.272-6.789,0.519C315.293,347.168,315.562,345.648,315.078,343.901z"/>
</g>
</svg>
