<?xml version="1.0" encoding="utf-8"?>
<!-- Generator: Adobe Illustrator 16.0.4, SVG Export Plug-In . SVG Version: 6.00 Build 0)  -->
<!DOCTYPE svg PUBLIC "-//W3C//DTD SVG 1.1//EN" "http://www.w3.org/Graphics/SVG/1.1/DTD/svg11.dtd">
<svg version="1.1" id="Ebene_1" xmlns="http://www.w3.org/2000/svg" xmlns:xlink="http://www.w3.org/1999/xlink" x="0px" y="0px"
	 width="486.79px" height="425.2px" viewBox="0 0 486.79 425.2" enable-background="new 0 0 486.79 425.2" xml:space="preserve">
<g>
	<path fill="#245977" d="M79.981,188.223c-0.919-9.6,0.771-22.34,0.469-32.994c-0.594-20.808,1.767-41.525,1.363-62.252
		c-0.193-9.957,0.949-19.856,1.533-29.781c0.474-8.047-0.382-16.517-0.382-24.678c0-3.406-0.908-6.239,3.424-5.85
		c2.21,0.198,8.389,0.222,8.734,2.938c0.205,1.638-2.084,4.643-2.803,5.931c-1.975,3.549-1.588,6.996-1.588,11.057
		c0,7.805,1.456,15.031,1.456,22.814c0,13.965-0.765,27.919-0.677,41.884c0.082,13.071-1.605,26.256-2.201,39.391
		c-0.657,14.427-0.506,29.047-2.203,43.442c-0.394,3.342-1.127,9.239-5.904,7.263c-7.524-3.114-2.531-15.921-3.241-21.209"/>
	<g>
		<path d="M127.148,360.143c-3.686-0.582-7.303-1.135-8.482-5.627c-0.792,3.426-2.959,6.148-4.729,9.047
			c-1.339,2.201-3.488,3.625-5.128,5.619c1.035,1.263,2.643,2.016,4.01,2.98c2.124,1.502,2.09,0.717,4.124-0.078
			c-0.5,2.137,2.25,3.893,3.783,4.85c2.608,1.629,5.569,2.845,8.384,4.178c4.8,2.268,10.007,1.559,15.027,0.646
			c1.92-0.349,3.599-0.667,5.211-1.81c0.852-0.6,3.988-3.542,1.76-4.435c-0.394-0.157-2.079,0.671-2.532,0.776
			c-1.14,0.258-2.293,0.348-3.45,0.596c-2.496,0.544-4.933,1.017-7.464,0.826c-3.988-0.303-10.175-2.502-12.365-5.78
			c-2.889-4.318,1.881-8.499,2.678-12.646"/>
		<path fill="#245977" d="M132.146,349.322c-2.478,4.568-6.209,8.786-8.555,13.498c-1.48,0.154-4.238-1.929-4.494-3.605
			c-0.291-1.942,2.619-5.309,3.6-6.809c0.885-1.359,2.314-5.462,4.037-5.933c1.647-0.448,4.805,2.466,5.523,3.735"/>
		<path d="M133.055,351.689c0.385-0.32,1.396-2.673,1.765-3.643c1.309-3.432,2.179-7.05,3.411-10.52
			c1.936-5.463,3.639-10.975,5.814-16.364c2.301-5.691,4.638-11.183,7.191-16.769c2.2-4.801,3.832-9.762,5.966-14.591
			c2.694-6.091,6.843-12.754,6.287-19.637c-0.173-2.151-0.355-4.185-2.622-5.005c-2.481-0.898-5.852-0.348-8.479-0.26
			c-10.353,0.344-18.467,7.042-28.031,10.706c-2.383,0.911-4.491,2.343-6.687,3.612c-7.159,4.14-25.109,8.652-18.328,20.247
			c2.89,4.942,4.985,5.158,9.491,2.368c5.29-3.273,10.353-6.91,15.672-10.146c4.984-3.032,10.091-5.855,15.093-8.856
			c0.8-0.48,7.992-6.349,8.615-4.635c1.693,4.661-3.393,11.85-5.35,15.993c-3.111,6.591-5.922,13.54-8.3,20.368
			c-2.21,6.322-3.851,12.627-6.644,18.787c-2.81,6.205-11.476,13.861-3.598,19.018c1.592,1.042,3.488,1.658,5.08,2.604
			c1.432,0.854,2.717,1.852,3.766,0.464c0.781-1.032,0.747-4.645,1.912-4.771"/>
	</g>
	<g>
		<path d="M128.864,381.541c0,1.06-0.06,2.291,0.047,3.382c1.702,0.945,4.66,0.927,6.552,1.101c2.168,0.199,4.659,0.145,6.814-0.041
			c-0.182-1.126-0.416-2.265-0.802-3.341c-2.057-0.624-4.622-0.661-6.829-0.839C133.246,381.69,129.871,380.713,128.864,381.541"/>
		<g>
			<g>
				<path fill="#FF0000" d="M114.207,376.454c-0.084,0.028-0.152,0.078-0.209,0.144c0.621,0.301,1.303,0.455,1.968,0.623
					c2.226,0.569,4.477,1.332,6.663,2.055c0.894,0.296,1.883,0.483,2.803,0.692c1.083,0.251,2.166,0.521,3.231,0.814
					c0.694,0.191,8.199,2.321,5.481,3.4c-1.615,0.643-3.989-0.382-5.57-0.715c-2.713-0.571-5.398-1.194-8.088-1.943
					c-1.18-0.329-2.422-0.622-3.576-1.005c-0.715-0.237-1.531-0.422-2.211-0.739c-0.469-0.225-0.76-0.616-1.283-0.757"/>
				<path d="M75.797,339.672c-10.016-7.764-22.852-7.46-33.606-4.43c-26.243,7.398-49.633,41.325-23.257,66.63
					c19.962,19.148,56.755,12.798,66.641-10.862C91.775,376.175,91.005,351.463,75.797,339.672z M18.95,358.58
					c0.771-0.988,1.579-1.949,2.401-2.879c4.282-4.854,9.004-8.659,14.79-11.652c2.728-1.408,5.53-3.034,8.647-3.208
					c4.957-0.274,10.796,0.216,15.658,1.143c6.037,1.146,11.994,4.091,16.04,9.081c2.417,2.976,4.332,6.373,5.522,9.948
					c1.231,3.716,1.043,7.188,1.17,10.942c0.098,2.926-0.477,6.106-1.271,8.83c-0.858,2.937-1.735,5.625-2.976,8.372
					c-1.303,2.884-2.628,5.21-4.516,7.655c-0.649,0.842-1.364,1.605-2.025,2.427c-0.726,0.905-1.394,1.985-2.235,2.792
					c-1.174,1.133-2.87,1.919-4.263,2.867c-5.725,3.887-11.645,6.032-18.465,5.51c-4.901-0.376-9.947-1.491-14.237-3.942
					c-3.307-1.884-7.471-4.004-10.147-6.744c-7.127-7.301-10.229-18.458-9.611-28.548C13.72,366.498,16.049,362.32,18.95,358.58z"/>
				<path fill="#FF0000" d="M69.382,330.131c-0.462,0.902-0.924,1.802-1.393,2.699c-1.315,2.524-2.753,4.955-3.884,7.562
					c-1.095,2.525-2.243,5.033-3.277,7.578c-0.84,2.053-1.599,4.162-2.524,6.175c-0.684,1.485-1.491,2.89-2.028,4.461
					c-0.395,1.162-0.779,2.323-1.187,3.442c-0.416,1.147-0.514,2.302-0.986,3.428c-0.41,0.979-0.919,1.893-1.271,2.895
					c-0.224,0.639-0.367,1.303-0.587,1.921c-0.168,0.465-0.552,0.939-0.673,1.384c-0.389,1.394,1.278,1.046,2.225,1.01
					c1.314-0.048,2.638-0.153,3.924-0.006c4.044,0.457,8.2,0.98,12.288,1.471c7.288,0.876,14.7,1.294,21.863,2.242
					c3.008,0.398,6.012,0.688,9.067,1.285c1.601,0.313,3.194,0.649,4.74,0.977c0.954,0.197,2.241,0.334,3.134,0.826
					c0.072,0.122,0.152,0.36,0.168,0.499c-0.012-0.113-5.505-0.619-6.096-0.68c-2.439-0.256-4.964-0.34-7.426-0.433
					c-1.634-0.061-3.253-0.207-4.896-0.367c-2.008-0.197-4.102-0.064-6.086-0.301c-3.221-0.386-6.378-1.02-9.616-1.418
					c-1.953-0.243-3.916-0.467-5.847-0.731c-1.28-0.173-2.637-0.443-3.928-0.497c-1.488-0.062-2.979-0.074-4.469-0.176
					c-1.388-0.095-2.799-0.48-4.189-0.451c-1.022,0.021-1.992,0.435-2.931,0.817c-1.437,0.588-1.607,1.378-2.515,2.48
					c-0.372,0.458-0.911,0.764-1.358,1.128c-1.145,0.932-2.279,1.308-3.469,0.272c-2.168-1.882-2.532-4.692,0.366-6.022
					c0.967-0.442,1.673-0.912,2.521-1.549c1.993-1.501,2.134-4.211,3.015-6.369c1.093-2.679,2.489-5.224,3.606-7.89
					c1.81-4.323,3.463-8.653,5.482-12.911c1.768-3.725,3.155-7.59,4.904-11.338c1.596-3.41,3.043-6.862,4.675-10.238
					c1.046-2.166,2.144-4.307,3.198-6.465c0.404-0.822,1.105-1.353,1.493-2.158c0.459-0.952,0.563-2.056,0.938-3.039
					c0.249-0.663,0.657-1.342,0.979-1.986c0.442-0.892,1.164-2.978,2.437-2.705c0.325,2.903-1.816,6.229-3.201,8.646
					c-1.006,1.75-1.533,3.641-2.478,5.407C72.48,324.03,70.937,327.095,69.382,330.131z"/>
				<path fill="#FF0000" d="M179.656,311.191c3.217-2.851,6.42-5.951,9.833-8.293c0.823-0.563,1.53-1.378,2.28-2.036
					c0.693-0.605,2.128-1.603,3.088-1.043c0.574,0.337,0.635,1.046,0.671,1.637c0.095,1.579-0.37,3.19-0.971,4.633
					c-0.599,1.438-2.246,2.117-3.558,2.824c-2.477,1.339-4.312,4.107-6.533,6.344c-4.688,4.714-9.901,8.001-14.591,12.869
					c-9.377,9.738-19.216,17.86-29.173,26.274c-5.502,4.647-10.671,10.625-16.237,15.388c-2.313,1.979-4.573,3.83-6.798,5.952
					c-1.867,1.781-6.01,7.579-8.458,4.771c0.498-2.787,2.685-3.921,4.188-5.136c1.749-1.411,3.201-3.28,4.854-4.925
					c4.543-4.532,9.088-9.062,13.65-13.555c8.447-8.316,16.592-17.123,25.32-24.931C164.77,325.214,172.098,317.886,179.656,311.191
					z"/>
				<path fill="#FF0000" d="M90.652,325.131c1.007,2.356,1.906,4.757,2.992,7.084c1.364,2.922,2.635,5.779,3.799,8.787
					c0.488,1.264,0.945,2.541,1.446,3.815c0.309,0.778,0.759,1.284,1.134,1.987c0.472,0.885,0.682,2.049,0.999,3.004
					c1.429,4.296,3.435,8.389,4.888,12.688c0.861,2.543,1.641,4.994,2.81,7.409c1.266,2.611,2.187,5.348,2.887,7.995
					c-1.274-0.133-2.058,1.186-3.2,1.188c-0.01-2.402-1.119-4.623-1.624-6.929c-0.724-3.325-1.686-6.937-2.946-10.099
					c-1.844-4.629-4.276-8.969-6.452-13.438c-0.829-1.701-0.798-3.522-1.619-5.237c-1.046-2.184-2.272-4.275-3.282-6.477
					c-1.082-2.374-2.176-4.761-3.158-7.177c-1.424-3.493-3.059-6.989-4.217-10.593c-0.516-1.589-1.18-3.034-1.905-4.54
					c-0.529-1.103-0.771-2.309-1.292-3.398c-0.722-1.513-1.373-2.895-1.774-4.546c-0.151-0.632-0.329-0.962-0.048-1.521
					c0.167-0.328,0.873-1.113,1.292-1.008c0.379,0.095,0.622,0.896,0.765,1.219c1.118,2.488,2.233,4.994,3.277,7.521
					c1.222,2.963,2.172,6.039,3.646,8.877C89.645,322.854,90.162,323.988,90.652,325.131z"/>
				<path fill="#FF0000" d="M193.047,299.428c-0.889,1.333-0.23,2.661-1.697,3.521c-0.773,0.45-2.623,0.646-3.504,0.7
					c-2.281,0.148-4.609,0.275-6.905,0.446c-13.2,0.977-26.611,2.629-39.815,4.559c-8.311,1.216-16.703,2.369-25.025,2.609
					c-3.752,0.104-7.516,0.446-11.322,0.701c-1.853,0.125-3.992,0.355-5.801,0.224c-1.742-0.127-1.775-0.65-2.703-1.789
					c1.76-1.428,4.074-0.853,6.363-1.029c7.587-0.586,15.137-3.396,22.796-3.892c8.018-0.519,16.296-1.476,24.421-2.012
					c8.227-0.543,16.596-1.419,24.755-1.975c2.955-0.202,5.914-0.952,8.851-1.393c1.594-0.233,6.844-0.263,7.907-1.441"/>
				<path fill="#FF0000" d="M211.587,367.993c-0.361,0.901-0.957,1.729-1.738,2.293c-1.691,1.228-4.093,0.885-5.452-0.699
					c-1.58-1.843-0.67-2.257,0.248-3.77c2.625-4.334-1.504-9.813-2.851-14.44c-1.952-6.709-3.323-13.756-5.048-20.521
					c-1.416-5.573-4.691-10.173-5.605-15.896c-0.496-3.119-1.012-6.238-1.538-9.354c-0.132-0.778-0.263-1.558-0.396-2.335
					c-0.119-0.702-0.567-1.589-0.372-2.307c0.167-0.602,0.939-1.089,1.521-0.764c0.504,0.28,0.85,1.046,1.3,1.434
					c0.689,0.596,1.405,1.157,1.933,1.914c1.449,2.088,0.771,5.212,1.375,7.597c0.973,3.829,1.99,7.8,3.195,11.625
					c1.346,4.276,2.984,8.283,4.35,12.426c1.281,3.893,2.646,7.694,3.457,11.864c1.016,5.206,2.541,10.567,2.375,15.835
					C211.829,362.542,212.575,365.537,211.587,367.993z"/>
				<path d="M168.588,378.658c4.517,11.081,17.505,19.424,29.237,19.888c6.325,0.251,12.333,1.872,18.698,0.567
					c3.121-0.64,5.73-1.516,8.683-2.998c2.53-1.273,4.954-2.446,7.552-3.517c2.614-1.077,3.904-3.298,5.778-5.56
					c3.204-3.872,6.529-7.584,8.015-12.465c1.24-4.072,1.662-7.805,1.552-12.173c-0.049-1.994-0.144-4.071-0.544-5.995
					c-0.553-2.651-2.252-5.131-2.959-7.835c-0.812-3.124-2.271-6.101-4.354-8.554c-3.821-4.505-8.498-8.319-14.198-10.583
					c-0.877-0.348-1.819-0.634-2.72-0.988c-2.254-0.885-4.586-1.628-7.045-1.922c-2.742-0.328-5.472,0.073-8.217,0.399
					c-3.688,0.439-7.656,0.533-11.28,1.34c-2.245,0.498-4.447,1.197-6.57,2.077c-4.635,1.913-8.301,4.747-12.411,7.442
					c-3.029,1.986-6.418,4.621-7.982,7.895c-0.673,1.407-1.158,2.933-1.722,4.359c-1.515,3.858-2.068,8.201-2.206,12.225
					c-0.084,2.389,0.235,5.068,0.689,7.429c0.528,2.735,0.71,5.453,1.674,8.106C168.36,378.087,168.474,378.373,168.588,378.658z
					 M172.334,367.576c-0.132-1.223-0.245-2.58-0.089-3.73c0.177-1.307,0.247-2.671,0.505-3.982c0.565-2.887,0.936-5.688,2.111-8.44
					c1.342-3.146,3.204-6.091,5.367-8.804c1.496-1.879,3.33-3.892,5.605-4.836c6.178-2.556,12.383-4.596,19.053-5.39
					c4.415-0.527,9.135-0.425,13.526,0.378c3.804,0.695,7.942,2.624,11.255,4.48c2.865,1.605,5.826,3.13,7.597,5.902
					c1.208,1.897,2.202,4.355,2.976,6.431c1.021,2.742,1.29,5.485,1.611,8.391c0.295,2.718,0.667,5.353,0.183,8.078
					c-0.455,2.566-1.421,5.107-2.384,7.549c-2.425,6.151-6.661,10.965-11.965,15.097c-4.928,3.843-10.961,5.092-16.639,7.442
					c-1,0.417-1.879,0.888-2.968,1.087c-2.261,0.413-4.441,0.737-6.717,0.686c-5.845-0.143-11.883-2.01-16.552-5.311
					c-3.564-2.515-6.283-5.43-8.196-9.26c-1.614-3.225-2.76-6.71-3.665-10.128c-0.426-1.594-0.347-3.183-0.529-4.839
					C172.395,368.119,172.364,367.851,172.334,367.576z"/>
				<path d="M74.562,294.512c2.429,1.185,4.128,3.588,6.879,4.135c1.766,0.354,3.928,0.284,5.716,0.07
					c2.327-0.269,4.376-1.016,6.538-1.778c0.796-0.284,1.422-0.474,2.237-0.403c0.927,0.082,1.001,0.509,1.774,0.812
					c0.345,2.797-3.736,3.225-5.652,4.05c-1.551,0.669-3.168,1.188-4.616,2.032c-1.85,1.085-3.426,2.48-5.334,3.442
					c-1.923,0.97-3.998,2.06-6.2,1.967c-2.607-0.114-5.589-1.263-7.683-2.749c-2.883-2.047-4.875-6.906-2.359-10.036
					C67.855,293.569,71.922,293.227,74.562,294.512z"/>
				<path d="M173.232,300.082c-4.881,1.884-11.505,5.113-8.18,11.332c3.964,7.413,13.489,7.711,20.717,5.359
					c5.74-1.867,10.705-5.032,10.499-11.319c-0.158-4.905-0.626-9.792-1.149-14.67c-0.205-1.903,0.232-3.237-1.699-3.863
					c-3.275-1.06-7.006-0.163-10.172-1.569c-1.551-0.688-3.504-2.559-3.84-4.336c-0.335-1.793,0.629-3.678,2.045-4.751
					c1.58-1.198,4.875-1.905,6.837-1.57c2.106,0.358,4.607,3.61,6.827,1.833c2.434-1.948-1.381-3.77-2.843-4.219
					c-4.243-1.301-8.201-1.771-12.403,0.007c-4.169,1.764-6.376,8.591-3.737,12.442c2.989,4.363,9.773,4.472,14.376,4.688
					c0.588,4.714,0.807,9.415,0.942,14.271c0.059,2.193,0.524,3.965-0.892,5.665c-1.412,1.694-4.974,2.74-6.979,3.269
					c-3.735,0.988-8.753,2.583-11.911-0.504c-4.564-4.452-0.734-7.511,3.961-8.88c0.15-1.416-0.766-3.061-1.434-2.74"/>
				<path d="M112.132,383.107c-2.744,0.23-5.843-2.598-5.294-5.48c0.352-1.848,3.457-4.153,5.254-3.224
					C114.972,375.896,116.809,382.72,112.132,383.107z"/>
				<path fill="#FF0000" d="M86.348,382.229c0.678,1.164,3.322,1.641,4.551,1.827c0.377,0.058,1.471,0.366,1.798,0.235
					c0.442-0.176,0.392-1.14,0.45-1.615c0.066-0.573,0.23-1.213,0.135-1.787c-1.654-0.422-3.153-1.005-4.729-1.809
					c-0.852-0.435-1.656-0.946-2.479-1.459c-0.358-0.221-0.764-0.338-1.103-0.557c-0.392-0.257-0.476-0.592-1.023-0.416
					c0.418,0.794,0.66,1.693,1.077,2.533C85.504,380.144,85.822,381.323,86.348,382.229z"/>
				<path fill="#FF0000" d="M87.896,379.674c-0.215,0.357-0.733,1.792-0.906,2.33c0.011-0.781-0.695-1.857-1.008-2.533
					c-0.259-0.57-0.86-1.252-0.807-1.881c0.44,0.191,0.941,0.784,1.277,1.062c0.407,0.339,1.016,0.584,1.333,0.728"/>
			</g>
			<path fill="#FF0000" d="M111.121,380.775c-0.504,0.338-1.515-0.162-2.061-0.277c-1.463-0.312-2.951-0.541-4.426-0.776
				c-2.525-0.396-5.051-0.823-7.566-1.224c-1.28-0.204-2.521-0.223-3.771-0.558c-0.71-0.194-1.349-0.458-2.133-0.377
				c-0.071-0.594-0.087-1.244-0.05-1.839c0.923-0.275,2.366,0.349,3.295,0.479c2.891,0.4,5.7,1.433,8.643,1.411
				c1.596-0.013,3.188,0.237,4.77,0.296c1.111,0.042,2.244-0.157,3.352-0.104c0.064,0.665,0.199,1.948-0.704,2.047"/>
		</g>
		<path fill="#FFFFFF" d="M110.53,376.387c3.233,0.451,3.374,5.893-0.025,4.895c-2.845-0.836-1.071-6.213,0.973-4.611"/>
	</g>
	<g>
		<g>
			<path fill="#245977" d="M96.869,186.451c-0.26,1.029-0.618,2.845-1.35,3.648c-0.696,0.772-1.658,0.738-2.66,0.793
				c-2.322,0.124-4.176-0.597-5.975-1.971c-1.252-0.952-2.495-2.452-3.33-0.352c-0.529,1.339,0.392,3.795-1.579,3.289
				c-1.792-0.461-3.768-1.705-5.319-2.601c-0.708-0.405-1.358-0.505-1.596-1.374c-0.222-0.83,0.247-2.239,0.251-3.155
				c0.006-2.76-0.33-5.431-0.671-8.136c-0.3-2.287-1.265-4.303-1.767-6.502c-0.888-3.892-1.582-9.967,1.234-13.342
				c1.342-1.61,4.352-2.24,6.309-2.605c3.452-0.637,5.854,0.898,8.554,2.727c1.104,0.748,2.078,1.005,2.965,2.091
				c1.127,1.378,2.152,2.873,2.766,4.549c0.258,0.71,0.402,1.653,0.277,2.401c-0.057,0.328-0.092,0.664-0.171,0.989
				c-0.064,0.255-0.19,0.497-0.275,0.745c-0.082,0.225-0.106,0.489-0.077,0.71c0.078,0.581-0.027,0.808,0.396,1.241
				c0.311,0.316,0.737,0.564,1.141,0.753c0.775,0.369,1.89,0.657,2.627,0.034c0.498-0.423,0.443-1.12,0.949-1.486
				c0.521-0.373,1.365-0.268,1.762,0.26c1.059,1.432,0.173,2.982-1.439,3.316c-0.651,0.135-1.258,0.059-1.73,0.633
				c-0.436,0.525-0.562,1.201-0.551,1.861c0.006,0.371,0.074,0.686,0.16,1.04c0.059,0.241,0.033,0.492,0.036,0.729
				c0.003,0.391-0.122,0.759-0.31,1.102c-0.154,0.277-0.356,0.433-0.589,0.633c-0.108,0.089-0.352,0.288-0.354,0.434
				c-0.02,0.333,0.71,0.343,0.914,0.347c0.339,0.009,0.852,0.081,1.133,0.282c0.579,0.418,0.147,1.343-0.006,1.871
				c-0.172,0.58-0.475,1.122-0.66,1.697c-0.091,0.285-0.186,0.571-0.299,0.843c-0.099,0.23-0.27,0.45-0.344,0.688
				C97.104,185.209,97.019,185.857,96.869,186.451z"/>
			<path fill="#FF0000" d="M98.298,180.287c-1.279,1.012-3.12,1.162-4.741,1.63c-1.609,0.465-3.244,0.978-4.873,1.312
				c-0.664,0.137-1.579,0.511-2.227,0.29c-1.018-0.347-1.26-1.957-1.566-2.82c-0.242-0.696-0.416-2.034-0.952-2.521
				c-0.142-0.127-0.908-0.348-1.104-0.378c-0.629-0.095-0.581-0.245-0.816,0.34c-0.327,0.802-0.021,2.36,0.009,3.232
				c0.036,1.02,0.278,2.089,0.514,3.132c0.839,3.711,3.496,6.857,6.465,9.188c1.451,1.135,2.886,1.615,4.674,1.979
				c1.41,0.284,2.893,0.836,4.351,0.691c1.622-0.162,2.293-1.375,2.686-2.848c0.693-2.597,0.802-4.825,0.271-7.457
				c-0.311-1.517-0.955-2.945-1.552-4.374c-0.268-0.635-0.483-1.525-0.851-1.996"/>
			<path fill="#FF0000" d="M73.033,174.623c0.518,1.397-2.266,2.961-3.531,2.676c0.124,0.84,1.333,1.732,2.057,2.063
				c0.588,0.267,0.817,0.101,1.393-0.092c-0.409,0.661-0.838,1.502-1.36,2.102c-0.345,0.392-1.812,1.472-1.64,2.066
				c0.21,0.732,1.38,0.518,1.931,0.41c0.995-0.191,1.664-0.312,2.298-1.161c0.785-1.054,0.839-2.297,1.354-3.44
				c0.158-0.347,0.353-0.677,0.532-1.015c0.287-0.548,0.528-1.269,0.725-1.854c0.22-0.666,0-1.279-0.139-1.951
				c-0.25-1.212-0.751-2.946-0.439-4.117c0.646-2.449,3.015,1.771,3.597,1.664c0.107-0.845,0.09-1.579,0.062-2.426
				c-0.025-0.916,0.474-1.247,0.771-2.056c0.307-0.831,0.065-1.551-0.057-2.41c-0.133-0.965-0.096-1.674,0.285-2.62
				c0.893-2.228,2.854-3.335,5.185-3.573c2.064-0.209,4.889-0.254,6.496,1.256c0.449,0.422,0.864,0.617,1.393,0.91
				c-0.133-1.333-0.577-2.754-1.263-3.875c-0.373-0.604-0.952-1.377-1.521-1.808c-1.318-1.003-2.958-1.796-4.391-2.629
				c-1.317-0.769-2.892-0.677-4.36-0.707c-1.514-0.034-3.115-0.505-4.593,0.01c1.797-1.571,2.846-3.404,2.937-5.877
				c0.062-1.688-0.241-3.062-1.403-4.326c-1.417-1.547-2.732-1.75-4.717-1.714c-4.868,0.098-11.516,2.862-11.747,8.52
				c-0.107,2.696,1.707,5.623,3.784,7.258c0.862,0.677,1.796,0.972,2.812,1.335c0.384,0.138,0.713,0.381,1.125,0.445
				c0.149,0.022,1.347-0.175,1.361-0.14c0.212,0.432-0.232,0.888-0.388,1.262c-0.159,0.395-0.158,0.723-0.215,1.131
				c-0.165,1.193-0.373,2.18-0.208,3.4c0.29,2.142,0.799,4.353,1.379,6.419c0.256,0.92,0.421,1.592-0.064,2.431
				c-0.787,1.35-2.212,1.123-3.519,1.358c0.402,0.546,1.845,1.353,2.625,1.37C72.034,174.928,72.571,174.679,73.033,174.623z"/>
			<path fill="#FF0000" d="M96.585,175.446c0.618-0.051,1.426-0.679,2.139-0.849c1.025-0.238,1.35,0.039,2.048,0.795
				c0.915,0.988,0.955,2.6,2.48,2.85c-0.459,0.354-1.449,0.547-1.99,0.687c-1.172,0.308-1.383-0.129-2.074-0.927
				c-0.328-0.373-0.874-0.98-1.387-1.16c-0.695-0.248-1.023,0.038-1.154-0.984c-0.408,0.321-1.643-0.05-2.282,0.051
				c-0.792,0.122-1.405,0.282-1.97,0.841c-1.054,1.041-2.037,3.562-3.855,3.216c0.529,1.615,3.71,1.251,4.746,0.486
				c1.503-1.11,1.705-3.561,3.305-4.331"/>
			<path fill="#FF0000" d="M94.738,164.979c0.05,0.319,0.152,0.626,0.152,0.954c0.003,0.146,0.003,0.311-0.092,0.414
				c-0.09,0.103-0.355,0.223-0.488,0.257c-0.254,0.07-0.521,0.066-0.779,0.102c-0.311,0.04-0.563,0.196-0.824,0.354
				c-0.134,0.078-0.187,0.127-0.334,0.031c0.09-0.419,0.188-0.782,0.489-1.108c0.425-0.454,0.956-0.931,1.612-0.949"/>
			<path fill="#FF0000" d="M89.77,167.563c-0.517,0.046-0.844-0.55-1.381-0.581c-0.497-0.028-0.986,0.402-1.258,0.774
				c-0.582,0.798-0.668,1.738-1.002,2.628c0.4-0.676,1.04-1.516,1.653-2.008c0.544-0.438,2.011-0.24,2.169-0.764"/>
			<path fill="#FFFFFF" d="M94.881,168.181c-0.033-0.08-0.07-0.167-0.109-0.188c-0.031-0.02-0.113,0.014-0.162,0.021
				c-0.209,0.026-0.639-0.118-0.751,0.177c-0.108,0.287,0.114,0.875,0.213,1.153c0.057,0.152,0.067,0.378,0.202,0.414
				c0.088,0.024,0.256-0.048,0.329-0.103c0.098-0.069,0.181-0.194,0.271-0.286c0.089-0.097,0.16-0.173,0.167-0.353
				c0.01-0.231-0.033-0.48-0.11-0.705C94.919,168.285,94.902,168.234,94.881,168.181z"/>
			<path fill="#FFFFFF" d="M90.344,170.291c0.023,0.121,0.027,0.242,0.019,0.369c-0.005,0.14,0.01,0.293-0.058,0.43
				c-0.109,0.224-0.392,0.285-0.593,0.371c-0.269,0.106-0.544,0.232-0.831,0.289c-0.504,0.093-1.016-0.207-1.158-0.674
				c-0.053-0.157-0.084-0.329-0.055-0.494c0.104-0.583,0.832-0.697,1.321-0.717c0.308-0.012,0.614,0.011,0.916,0.057
				c0.148,0.023,0.281,0.035,0.357,0.175C90.301,170.16,90.323,170.225,90.344,170.291z"/>
			<path d="M90.338,169.979c0.227,0.235,0.164,0.715,0.034,0.994c-0.12,0.247-0.302,0.264-0.534,0.323
				c-0.221,0.052-0.326,0.022-0.449-0.191c-0.097-0.162-0.157-0.401-0.146-0.599c0.008-0.202,0.064-0.447,0.227-0.587
				c0.168-0.146,0.434-0.103,0.637-0.064C90.204,169.875,90.283,169.916,90.338,169.979z"/>
			<path d="M94.709,168.27c0.185-0.131,0.371,0.164,0.424,0.408c0.092,0.448-0.222,0.87-0.529,0.916
				c-0.918,0.142-0.33-2.343,0.283-1.391"/>
			<path d="M90.389,169.972c-0.396-0.466-1.083-0.46-1.672-0.339c-0.333,0.071-0.658,0.326-0.867,0.581
				c-0.129,0.145-0.197,0.327-0.297,0.497c-0.065,0.114-0.229,0.209-0.285,0.314c-0.176,0.355,1.182,0.641,1.402,0.677
				c0.297,0.047,0.723-0.087,0.981-0.229c0.195-0.108,0.512-0.22,0.637-0.405c-0.442,0.163-0.927,0.402-1.429,0.361
				c-0.261-0.023-0.496-0.097-0.732-0.21c-0.143-0.071-0.306-0.224-0.479-0.196c0.092-0.223,0.316-0.4,0.505-0.562
				c0.274-0.244,0.506-0.414,0.876-0.499c0.277-0.065,0.539-0.077,0.822-0.069c0.227,0.008,0.363,0.099,0.557,0.194
				c-0.012-0.075-0.062-0.125-0.062-0.206"/>
		</g>
		<path fill="#FFFFFF" d="M68.98,231.355c1.007,5.8,1.278,11.792,2.054,17.645c1.473,11.117-2.574,23.106-1.044,34.049
			c0.423,3.028,25.961,5.655,29.027,4.01c11.786-6.324-0.145-36.733,0.787-47.438c0.996-11.467,2.162-29.733-4.655-39.543
			c-3.407-4.902-8.63-6.546-13.613-9.091c-2.655-1.355-5.027-2.954-6.873-5.283c-2.238-2.817-2.621,0.533-3.422,2.637
			c-1.487,3.905-2.997,7.665-3.428,11.925c-1.049,10.436-0.823,20.187,1.063,30.505C68.912,230.966,68.947,231.161,68.98,231.355z"
			/>
	</g>
	<g>
		<path d="M113.459,298.499c-1.312-1.349-2.376-2.971-2.986-4.553c-0.972-2.521-1.865-5.055-2.767-7.606
			c-1.155-3.281-2.103-6.203-3.071-9.548c-2.248,3.526-4.527,5.612-8.689,6.317c-4.626,0.787-9.352,0.943-14.012,0.344
			c-2.117-0.271-4.068-0.545-6.078-1.042c-1.469-0.362-3.144-1.429-4.692-1.287c-1.113,4.964-2.408,10.431,0.266,15.079
			c3.164,5.494,8.386,9.208,13.747,12.375c4.955,2.926,10.703,3.668,15.962,5.871c5.817,2.439,11.893,4.231,18.136,5.403
			c9.182,1.725,18.458,3.909,27.551,5.298c3.17,0.479,6.126,1.979,9.221,2.825c3.647,0.995,7.422,1.448,11.206,1.989
			c1.036,0.148,2.065,0.192,3.105,0.332c0.722,5.471-13.678,6.888-16.852,7.66c-6.396,1.562-13.261,2.725-19.774,3.236
			c-12.494,0.986-25.508,3.91-37.901,3.782c3.779,3.14,7.35,15.47,12.916,15.034c1.134-0.086,2.812-1.302,4.103-1.571
			c3.873-0.79,8.014-0.243,11.945-0.934c5.742-1.004,11.368-1.923,16.846-3.812c9.773-3.371,19.443-7.563,29.225-10.584
			c5.037-1.553,19.234-3.309,17.893-11.171c-1.209-7.099-9.163-9.695-15.232-11.506c-8.568-2.557-16.797-6.015-25.069-9.029
			c-7.84-2.855-15.931-4.985-23.651-8.17c-2.497-1.029-5.225-1.078-7.639-2.1C115.836,300.572,114.56,299.631,113.459,298.499z"/>
		<path d="M88.221,351.065c-0.153-0.002,0.064,0.01,0.066,0.01c0.483,1.81,0.678,3.739,1.102,5.567
			c0.227,0.973,0.893,2.273,1.758,2.775c-0.893,0.409-2.085,0.332-3.042,0.468c-1.204,0.173-2.362,0.653-3.57,0.834
			c-0.584,0.09-1.915,0.252-2.013,0.905c-0.13,0.818,0.745,1.826,1.086,2.485c0.387,0.768,0.796,1.589,1.14,2.373
			c0.44,1.012,1.108,1.743,1.799,2.625c2.624,3.353,6.304,5.258,9.897,7.415c1.094,0.657,2.129,1.385,3.334,1.828
			c0.602,0.22,1.143,0.401,1.627,0.891c0.484,0.485,0.914,1.404,0.4,2.023c-0.557,0.668-2.17,0.871-2.959,0.959
			c-1.15,0.127-2.307-0.076-3.439-0.215c-1.348-0.162-2.827-0.414-4.064-1.013c-1.461-0.711-2.83-1.561-4.213-2.424
			c-2.249-1.415-4.517-2.894-6.62-4.517c-1.036-0.805-2.16-1.524-3.114-2.418c-0.979-0.916-1.795-2.027-2.454-3.178
			c-0.562-0.982-1.1-1.94-1.617-2.942c-0.421-0.819-0.788-1.646-1.298-2.411c-0.267-0.393-0.537-1.291-0.963-1.465
			c-0.235,0.307-0.671,0.433-0.996,0.615c-0.68,0.385-1.334,0.785-1.997,1.203c-0.569,0.363-0.646,0.488-0.859-0.074
			c-0.221-0.574-0.337-1.23-0.536-1.829c-0.472-1.388-1.205-2.58-1.902-3.846c-0.274-0.501-1.029-1.659-0.479-2.022
			c0.418-0.273,1.081-0.283,1.533-0.588c0.453-0.302,0.86-0.685,1.287-1.021c1.13-0.889,2.612-1.295,3.991-1.523
			c3.289-0.542,6.689-1.002,10.028-0.905c1.458,0.041,2.915-0.076,4.324-0.379c0.594-0.128,1.104-0.253,1.66-0.524
			c0.336-0.167,0.624-0.494,0.98-0.604c0.082,0.746,0.098,1.938,0.755,2.424"/>
		<path fill="#245977" d="M92.078,350.988c1.842-0.229,3.651-0.737,5.475-1.085c1.305-0.249,2.508-1.221,3.877-0.458
			c1.082,0.604,2.111,1.613,2.79,2.635c0.577,0.875,1.217,3.063,0.087,3.811c-0.544,0.359-1.639,0.384-2.253,0.312
			c-0.389-0.045-0.53-0.22-0.854-0.346c-0.601-0.229-1.476-0.184-2.117-0.215c-1.774-0.085-3.476,0.11-5.205,0.534
			c-1.021,0.25-2.04,0.548-3.05,0.812c-0.453,0.121-1.055,0.14-1.422,0.443c-0.301-0.408-0.309-1.098-0.463-1.58
			c-0.194-0.591-0.31-1.209-0.453-1.812c-0.23-0.949-0.496-1.95-0.426-2.955C89.395,350.92,90.732,351.155,92.078,350.988z"/>
	</g>
	<g>
		<path fill="#245977" d="M191.74,270.998c-1.266,1.447-4.026,2.607-4.014,4.866c0.006,0.854,0.248,1.595,1.029,2.075
			c0.918,0.564,2.281,0.042,3.343-0.011c0.999-0.05,2.315,0.264,3.21-0.294c0.902-0.563,1.217-2.047,1.388-3.002
			c0.154-0.871,0.08-1.621,0.043-2.541c-0.053-1.257,0.346-2.607,0.783-3.783"/>
		<g>
			<path d="M109.378,43.252c1.45-2.842,3.786-6.552,5.966-9.454c-0.748-0.224-1.042-0.587-2.009-0.612
				c-1.634-3.453-4.301-6.139-5.443-9.891c-7.977,1.062-14.551,4.28-22.384,4.019c-4.939-0.165-17.325-0.249-20.95,3.14
				c3.255,1.589,8.199,1.355,11.767,2.512c3.558,1.151,6.879,2.488,10.461,3.76c7.215,2.562,17.68,2.129,23.918,7.066
				C110.275,43.326,109.904,43.427,109.378,43.252"/>
			<g>
				<path fill="#245977" d="M215.513,238.246c0.244-0.383,0.489-0.768,0.733-1.148c-2.739,4.378-4.936,8.777-7.354,13.356
					c-0.65,1.229-1.321,2.464-1.928,3.703c-0.64,1.304-0.984,2.722-1.877,3.9c-0.973,1.285-1.939,2.762-3.002,4.03
					c-1.373,1.637-2.006,3.705-2.709,5.684c-0.614,1.729-1.462,3.024-2.386,4.555c-1.306,2.16-2.936,5.436-6.009,4.589
					c-4.069-1.12-0.486-5.471,1.062-7.885c3.941-6.146,6.622-12.696,10.494-18.759c5.689-8.896,10.062-18.592,15.58-27.522
					c0.933-1.507,1.949-2.986,2.574-4.617c0.752-1.968,1.507-3.828,2.344-5.765c0.564-1.301,1.423-2.398,1.987-3.69
					c0.3-0.685,0.237-1.456,0.528-2.148c0.235-0.554,0.65-0.972,0.949-1.483c0.885-1.516,1.473-3.278,2.201-4.877
					c1.544-3.395,3.146-6.764,4.764-10.124c3.172-6.575,6.414-13.12,9.452-19.76c1.898-4.149,1.984-8.687,6.455-10.815
					c4.768-2.271,10.562-0.492,14.37,2.768c0.793,0.679,1.574,1.479,2.244,2.382c1.207,1.62,2.051,3.568,1.941,5.724
					c-0.213,4.225-3.205,8.745-5.172,12.271c-3.436,6.148-4.859,13.558-6.917,20.283c-1.905,6.229-4.851,11.192-9.083,15.912
					c-6.223,6.941-12.682,13.605-18.586,20.834c-3.508,4.296-6.225,9.053-9.527,13.603c-3.727,5.132-7.541,10.205-11.125,15.439
					c-1.766,2.582-3.479,5.204-5.096,7.884c-1.292,2.14-2.463,4.484-3.979,6.466c-0.705-0.372-2.168-1.069-2.345-1.889
					c-0.159-0.75,0.651-2.152,0.968-2.773c0.824-1.618,1.326-3.405,2.146-4.998c0.714-1.381,1.729-2.674,2.516-4.029
					c2.047-3.528,4.104-7.05,6.299-10.485c2.383-3.731,4.768-7.462,7.153-11.192c4.907-7.674,9.817-13.636,13.179-22.224
					c1.271-3.25,2.433-6.92,2.04-10.462c-0.125-1.133-4.302-8.929-4.625-8.171c0.174-0.405,0.345-0.809,0.519-1.212"/>
				<g>
					<path fill="#245977" d="M212.449,225.597c-1.596-0.894-4.278-2.675-3.03-4.547c0.375-0.569,0.954-1.029,1.429-1.563
						c0.451-0.51,1.095-0.969,1.481-1.496c0.489-0.671,0.444-1.648,0.589-2.437c0.03-0.18,0.055-0.362,0.074-0.545
						c0.133-1.301,0.361-1.762-0.996-2.3c-0.637-0.256-2.514-0.314-2.742-1.13c-0.287-1.01,0.901-1.89,1.836-1.665
						c1.092,0.262,0.858,1.166,1.974,0.295c0.659-0.515,1.485-1.461,1.96-2.133c0.741-1.054,1.274-2.23,1.843-3.381
						c0.503-1.014,0.896-2.293,1.862-2.98c1.062-0.752,2.449-0.975,3.771-1.056c0.693-0.046,1.883-0.11,2.503,0.197
						c0.739,0.369,1.606,0.916,2.238,1.401c1.344,1.038,2.429,2.488,4.032,3.244c1.303,0.611,3.003,1.684,4.455,1.329
						c0.69-0.169,1.258-0.51,1.823-0.894c0.335-0.225,0.659-0.609,0.967-0.43c0.29,0.17,0.586,0.776,0.804,1.047
						c0.502,0.615,1.037,1.207,1.522,1.828c1.649,2.116,5.159,5.143,3.676,7.848c-0.917,1.662-2.598,2.835-3.911,4.214
						c-1.437,1.509-2.896,3.008-4.301,4.514c-1.234,1.325-2.375,2.688-3.723,3.929c-1.746,1.612-3.813,2.109-6.306,2.199
						c-1.958,0.069-3.905-0.029-5.874-0.403c-2.345-0.447-4.409-1.498-6.494-2.65c-1.704-0.939-3.9-2.067-4.212-4.056
						c-0.122-0.761-0.284-1.786-0.073-2.514c0.418-1.451,1.617-2.18,2.531-3.26c0.043-0.05,0.082-0.103,0.12-0.155"/>
					<g>
						<path fill="#FFFFFF" d="M220.205,219.139c-0.508,0.202-1.068-0.023-1.207-0.584c-0.109-0.443,0.061-1.071,0.146-1.522
							c0.085-0.437,0.167-0.89,0.332-1.323c0.123-0.016,0.181-0.104,0.297-0.137c0.283-0.085,0.814-0.052,1.107,0.002
							c0.374,0.065,0.617,0.326,0.866,0.596c0.126,0.143,0.278,0.308,0.429,0.418c0.174,0.111,0.413,0.154,0.537,0.339
							c0.279,0.405-0.69,0.853-0.934,0.995C221.213,218.255,220.826,218.898,220.205,219.139z"/>
						<path d="M222.941,217.032c-0.391,0.194-0.84,0.343-1.24,0.624c-0.34,0.238-0.648,0.553-1.041,0.659
							c-0.604,0.165-1.924-0.237-1.658-1.097c-0.258,0.785-0.062,2.244,0.992,1.983c0.438-0.107,0.883-0.491,1.247-0.733
							c0.503-0.338,1.024-0.651,1.571-0.903c0.632-0.284,0.518-0.378,0.055-0.812c-0.316-0.289-0.635-0.562-1.007-0.769
							c-0.624-0.337-2.136-0.918-2.653-0.004c1.265-0.346,2.93,0.205,3.609,1.412c-0.097,0.073-0.171,0.044-0.281,0.001"/>
						<path d="M220.085,216.004c-0.438-0.092-1.032,0.241-1.082,0.735c-0.038,0.336,0.202,1.022,0.482,1.193
							c0.155,0.094,0.364,0.062,0.526,0.017c0.422-0.115,0.756-0.344,0.859-0.802C221.006,216.555,220.637,216.124,220.085,216.004z
							"/>
					</g>
					<path fill="#FF0000" d="M217.279,205.558c0.087,0.024,0.349,0.283,0.491,0.356c0.196,0.101,0.368,0.114,0.573,0.148
						c0.482,0.072,0.944,0.094,1.426,0.104c0.854,0.012,1.792,0.108,2.553,0.491c-0.462-0.109-0.998-0.03-1.471,0.039
						c-0.541,0.079-1.033,0.184-1.58,0.144c-0.488-0.032-0.988-0.114-1.399-0.386c-0.284-0.187-0.817-0.518-0.651-0.938
						c0.023,0.065,0.07,0.103,0.098,0.164"/>
					<path fill="#FF0000" d="M222.6,206.676c-0.351-0.373-1.029-0.379-1.516-0.539c-0.452-0.155-0.84-0.505-1.234-0.773
						c-0.337-0.239-0.616-0.299-1.014-0.334c-0.33-0.032-0.744-0.244-1.059,0.005c-0.117,0.094-0.275,0.384-0.195,0.536
						c0.092,0.176,0.34,0.108,0.504,0.094"/>
					<path d="M232.264,215.113c-0.082,1.004-0.159,2.062-0.131,3.072c0.026,0.893-0.125,1.883,0.019,2.775
						c0.079,0.484,0.207,0.89,0.484,1.329c0.644,1.015,1.161,2.279,2.255,3.025c0.688,0.468,1.611,0.795,2.362,1.208
						c0.325,0.18,0.879,0.326,0.8,0.71c-0.069,0.324-0.896,0.669-1.14,0.815c-1.216,0.716-2.035,1.39-2.899,2.477
						c-1.062,1.329-1.738,2.887-3.395,3.566c-1.578,0.652-3.452,0.652-5.146,0.926c-3.919,0.632-7.108,0.566-10.854-1.144
						c-2.941-1.342-4.284-3.599-5.809-6.254c-0.594-1.035-2.591-5.045-1.472-6.163c1.128-1.131,2.792,2.385,4.219,2.529
						c0.306,0.031,0.53-0.046,0.748-0.235c0.12-0.109,0.681-1.019,0.533-1.131c0.73,0.561,1.017,1.966,2.037,2.248
						c0.735,0.206,1.623-0.524,2.39-0.567c0.658-0.038,0.771,0.652,1.64,0.508c0.591-0.098,0.7-0.984,1.658-1.03
						c0.185-0.01,1.265,0.696,1.54,0.771c1.105,0.295,3.195,0.75,4.381,0.786c2.73,0.087,4.028-3.83,4.173-6.247
						c0.19-3.211-2.415-5.821-4.707-7.708c0.927-1.568,2.145-1.687,2.17-3.911c0.013-1.317-0.372-2.813-1.636-3.417
						c-0.191-0.088-0.391-0.203-0.578-0.312c-0.445-0.257-0.914-0.409-1.384-0.617c-0.585-0.255-1.396-0.382-2.036-0.339
						c-0.711,0.046-1.28,0.215-1.891,0.613c-0.39,0.254-1.031,0.795-1.061,1.308c-0.143-0.183-0.143-0.714-0.209-0.956
						c-0.073-0.296-0.268-0.959-0.635-1.029c-0.635-0.119-1.058,1.139-1.097,1.574c-0.097-0.505,0.112-1.222,0.292-1.709
						c0.295-0.794,0.567-1.383,1.243-1.934c0.647-0.525,1.279-0.857,2.06-1.113c0.648-0.207,1.359-0.059,2.029-0.118
						c1.884-0.151,3.812,0.417,5.251,1.637c0.465,0.395,0.874,0.706,1.266,1.173c0.367,0.44,0.716,0.891,1.019,1.379
						c0.569,0.92,1.16,1.731,1.488,2.793c0.31,1.006,0.298,2.05,0.344,3.111c0.039,0.896,0.036,1.803,0.002,2.7
						C232.546,213.18,232.341,214.148,232.264,215.113z"/>
					<path fill="#FFFFFF" d="M212.904,217.156c-0.239,0.361,1.328,1.469,1.8,1.345c0.396-0.097,0.433-0.541,0.433-0.884
						c0-0.353,0.031-0.71,0.04-1.035c0.011-0.354,0.039-0.662-0.257-0.798c-0.311-0.144-0.672-0.103-0.988-0.019
						c-0.273,0.075-1.604,1.021-1.263,1.312"/>
					<path d="M212.669,217.078c-0.04-0.036-0.046-0.041-0.007-0.009c0.482,0.553,1.354,1.651,2.23,1.42
						c0.668-0.181,0.62-1.134,0.637-1.686c0.02-0.871-0.455-1.388-1.341-1.286c-0.77,0.086-1.43,0.719-1.765,1.417
						c0.188-0.595,1.184-0.849,1.703-0.933c0.336-0.056,0.667-0.071,0.855,0.221c0.172,0.266,0.088,0.585,0.207,0.845
						c-0.337,0.316-0.974,0.714-1.418,0.597c-0.494-0.131-0.814-0.619-1.301-0.762"/>
					<path d="M213.684,217.766c-0.042-0.021-0.046-0.039-0.009-0.052c0.789,0.035,1.03-1.438,0.187-1.607
						c-0.362-0.073-0.752,0.355-0.818,0.714c-0.061,0.332,0.58,1.128,0.686,0.896"/>
					<path d="M225.429,208.537c0.02-0.072-0.005,0.025-0.006,0.04c-1.022,0.063-2.178,0.769-3.054,1.32
						c-0.39,0.245-0.795,0.385-1.242,0.456c-0.469,0.07-0.959-0.124-1.4-0.258c-0.46-0.144-1.123-0.332-1.601-0.293
						c-0.379,0.032-0.8,0.436-1.042-0.006c-0.113-0.207-0.147-0.456-0.287-0.669c-0.176-0.276-0.379-0.485-0.628-0.69
						c-0.481-0.385-1.061-0.648-1.578-0.988c-0.315-0.207-0.546-0.508-0.848-0.733c-0.176-0.136-0.64-0.331-0.593-0.604
						c0.831-0.398,1.686,0.145,2.403,0.456c1.128,0.492,2.361,0.795,3.573,1.03c1.393,0.272,2.862,0.394,4.286,0.5
						c0.779,0.062,1.705-0.038,2.318,0.474c-0.019,0.022-0.042,0.038-0.075,0.039"/>
				</g>
				<path fill="#245977" d="M339.854,54.537c5.478-3.656,9.362-4.598,16.077-4.139c11.613,0.795,23.35,3.174,34.679,5.797
					c9.432,2.185,16.237,4.565,26.095,2.176c3.617-0.877,7.58-1.501,11.793-1.899c2.124-0.2,8.835-1.902,10.289,0.451
					c2.222,3.603-5.736,4.392-7.733,3.688c-3.825-1.344-5.997-2.314-9.85-0.045c-3.663,2.157-7.813,8.091-12.527,7.282
					c-3.831-0.657-8.143-1.836-12.062-2.124c-4.57-0.336-9.195,1.675-13.795,1.656c-6.293-0.027-12.557-1.932-18.896-2.049
					c-7.246-0.133-14.066-1.538-20.024,3.343c-5.223,4.276-9.418,9.767-14.573,14.133c-7.727,6.544-15.279,13.835-22.212,21.059
					c-4.323,4.503-6.863,10.792-10.827,15.645c-4.586,5.609-8.842,11.688-12.773,17.839c-3.41,5.336-6.764,10.186-8.152,16.423
					c-2.64,0.866-3.822,7.608-6.582,9.542c-6.281,4.4-15.495-3.9-17.203-9.37c-1.947-6.234,0.443-11.53,1.246-17.609
					c1.767-13.4-15.814-14.919-12.824-27.646c7.934-1.449,16.612,6.786,22.238,11.474c2.214,1.846,6.791,8.513,9.574,8.663
					c4.496,0.243,5.943-7.123,7.96-9.903c3.837-5.282,8.564-9.835,12.546-14.995c8.186-10.603,18.046-22.127,27.889-31.24
					c3.297-3.05,6.838-5.846,10.019-8.854c2.997-2.838,5.281-6.264,8.647-8.623C339.205,54.976,339.532,54.752,339.854,54.537z"/>
				<path d="M232.305,217.452c1.277-2.411,1.104-4.773,1.726-7.359c0.509-2.106,1.099-4.202,1.459-6.343
					c0.324-1.91,0.568-3.609,1.075-5.466c0.374-1.366,1.16-3.038,0.768-4.282c-1.684,1.48-3.618,2.612-5.355,4.002
					c-1.376,1.103-2.482,3.143-4.056,3.781c-1.524,0.619,1.021-4.678,1.001-4.635c0.943-2.219,1.405-4.74,2.254-7.044
					c2.047-5.556,4.408-10.992,6.404-16.568c1.646-4.595,2.707-9.012,5.387-13.185c1.467-2.289,2.539-5.03,4.383-6.842
					c1.686-1.655,3.699-3.241,5.648-4.631c1.2,0.706,1.883,2.271,3.117,3.227c1.418,1.098,3.04,1.844,4.607,2.519
					c2.309,0.989,4.556,1.826,6.802,2.923c1.48,0.726,3.45,0.577,4.718,1.428c-0.668,0.968-0.186,2.412-0.351,3.555
					c-0.157,1.102-0.643,2.286-0.949,3.377c-0.933,3.297-1.839,6.379-2.947,9.556c-2.656,7.614-4.347,15.592-6.923,23.159
					c-2.236,6.581-5.343,14.103-9.607,19.713c-2.012,2.647-4.517,4.609-7.381,6.547c-1.892,1.279-3.941,2.311-5.738,3.728
					c-1.309,1.028-2.37,2.508-3.587,3.688c-0.657,0.635-1.104,1.36-1.604,2.145c-2.082,3.258-4.076,6.553-6.166,9.823
					c-0.784,1.228-1.493,2.575-2.383,3.73c-0.632,0.822-2.253,2.001-2.583,2.824c-0.483,1.214,0.603,1.948,0.162,3.05
					c-0.472,1.178-2.604,1.526-3.519,0.902c0.019,1.307,0.211,2.681-0.004,3.857c-2.132,0.494-2.416-1.158-3.799-1.575
					c-0.805-0.245-0.955,0.646-1.852,0.188c-0.717-0.366-0.945-1.25-1.51-1.762c-1.092-0.986-7.836-2.994-3.801-5.064
					c1.136-0.579,2.299,0.826,3.459-0.52c0.285-0.33-0.002-1.42,0.336-1.96c0.449-0.716,0.884-0.778,1.343-1.211
					c2.052-1.938,4.096-3.87,5.964-5.942c2-2.22,2.701-4.858,3.871-7.595c1.121-2.621,2.85-5.129,4.465-7.654
					C228.842,222.871,230.825,220.244,232.305,217.452z"/>
				<path d="M261.451,159.237c-2.761-0.826-5.364-2.455-7.027-4.713c-0.857-1.164-1.008-1.6-2.556-2.022
					c-0.938-0.256-2.019-0.162-2.854-0.737c-1.914-1.321-1.668-4.011-1.424-5.958c0.3-2.386,0.007-4.497-0.838-6.787
					c-1.883-5.112-6.078-7.967-10.532-10.587c-4.074-2.396-7.593-5.894-11.44-8.685c-5.73-4.154-11.545-8.258-17.595-12.031
					c-7.168-4.468-14.004-9.474-21.147-13.859c-7.272-4.466-15.167-7.763-22.643-11.741c-8.818-4.692-17.568-9.114-25.726-15.062
					c-3.752-2.734-6.937-5.756-10.423-8.735c-1.112-0.95-2.702-1.235-2.882-2.649c-0.106-0.832,0.843-2.113,1.078-2.9
					c0.703-2.321,1.003-4.721,1.771-7.032c0.68-2.047,0.943-5.604,3.131-6.28c2.369-0.733,6.188,1.043,8.254,2.068
					c3.428,1.697,7.041,3.006,10.519,4.766c12.382,6.27,24.64,12.783,36.729,19.666c6.228,3.547,11.905,7.701,17.915,11.546
					c3.996,2.556,8.141,4.831,12.418,6.88c3.437,1.646,6.373,3.934,10.039,5.152c4.287,1.424,8.727,2.869,13.213,3.498
					c3.99,0.56,8.085,0.73,12.09,1.393c2.564,0.426,5.426,0.174,7.969,0.799c5.715,1.404,12.078-0.514,17.664-2.364
					c12.335-4.087,23.146-12.503,33.953-19.403c5.183-3.312,9.509-7.561,14.246-11.475c3.094-2.556,5.842-5.497,8.937-8.051
					c2.719-2.24,5.995-5.137,9.467-6.063c2.987-0.795,6.327,0.364,9.545,0.179c6.918-0.395,13.579,0.622,20.267,1.1
					c6.694,0.476,14.999,1.348,21.318,3.401c1.258,0.409,2.105-0.06,3.254,0.418c-3.518,5.438-1.538,14.794-4.362,20.591
					c-4.435-3.328-11.01-1.74-16.03-2.45c-6.039-0.851-11.965-1.982-18.189-2.411c-12.492-0.861-18.338,7.467-26.521,15.426
					c-4.678,4.549-9.038,9.762-13.891,14.312c-5.324,4.99-11.687,8.554-16.143,14.265c-7.867,10.08-15.529,19.912-21.058,32.187
					c-2.72,6.041-5.526,11.945-9.696,17.4C268.316,159.933,265.566,160.468,261.451,159.237z"/>
				<path d="M410.061,57.846c-1.528,1.908-1.859,5.67-3.198,7.989c-1.03,1.785-3.632,3.709-4.106,5.479
					c2.285,0.25,3.547,2.4,5.609,3.189c4.871,1.867,7.195-1.092,9.973-4.373c2.531-2.99,5.268-4.97,9.185-5.724
					c5.134-0.988,10.25-2.052,15.305-3.329c3.766-0.95,10.36-1.639,13.348-4.277c-6.015-6.395-18.022-4.266-25.538-2.682
					c-3.796,0.798-7.386,1.686-11.229,2.457c-3.286,0.658-7.292-0.339-10.48,0.781c0.165,0.926,0.716,0.971,1.356,1.508"/>
				<path fill="#245977" d="M187.522,300.467c0.754-1.129,1.491-2.274,2.223-3.42c0.765-1.193,1.526-2.387,2.288-3.58
					c0.907-1.42,1.573-2.881,2.455-4.293c4.008-6.43,8.529-12.438,12.605-18.814c1.268-1.986,2.699-4.239,3.271-6.471
					c0.159-0.617,0.323-1.945-0.187-2.444c-0.826-0.812-2.645-0.974-3.588-0.251c-0.742,0.565-1.329,2.045-1.84,2.845
					c-0.727,1.136-1.422,2.358-2.27,3.37c-1.918,2.297-3.394,5.034-5.281,7.355c-4.238,5.212-7.727,11.134-11.377,16.845
					c-1.058,1.655-1.883,3.406-2.935,5.044c-1.079,1.684-2.418,3.182-3.63,4.778c-1.338,1.763-2.953,2.959-4.539,4.414
					c-0.584,0.535-1.084,1.359-1.768,1.757c-0.662,0.388-0.896,0.794-1.505,1.229c-0.557,0.396-1.137,0.735-1.602,1.247
					c-0.982,1.08-1.034,2.385-0.418,3.68c1.168,2.452,4.714,3.567,7.229,3.129c3.773-0.656,4.263-4.873,5.3-7.824
					c0.467-1.323,1.229-2.641,2.135-3.8C185.295,303.724,186.426,302.111,187.522,300.467z"/>
				<path d="M210.311,229.959c-1.674,0.408-1.692,3.27-2.19,4.743c-0.751,2.225-1.858,4.097-2.927,6.185
					c-1.549,3.019-2.521,8.463-5.082,10.832c-3.809-2.293-5.759,2.34-1.079,3.224c-1.29,0.812-4.863-0.639-4.951,1.999
					c-0.061,1.903,1.32,1.932,2.8,1.592c1.406-0.326,2.649-0.621,3.918,0.262c1.059,0.737,1.773,1.648,3.148,1.79
					c2.076,0.217,1.982-2.368,2.018-3.89c0.012-0.521,0.131-0.656,0.557-1.061c0.723-0.684,0.79-1.375,0.99-2.279
					c0.178-0.791,0.608-1.504,1.046-2.185c1.122-1.733,2.498-3.277,3.308-5.202c1.972-4.677,5.723-8.885,8.129-13.529
					c-2.454-2.024-7.25-0.669-9.803-3.03"/>
				<path fill="#245977" d="M125.289,41.24c-0.854-1.7-4.451-2.252-6.199-2.904c-2.533-0.947-5.092-2.139-7.695-3.027
					c-2.246-0.767-3.841-1.211-4.239,1.62c-0.134,0.95-0.346,2.798-0.069,3.571c0.38,1.066,1.361,1.109,2.494,1.669
					c4.77,2.352,9.166,5.523,13.979,7.86c1.811,0.883,4.285,2.554,6.304,2.805c0.932,0.117,2.387-0.442,3.271-0.824
					c1.581-0.688,1.923-0.919,1.459-2.648c-1.257-4.697-7.239-7.908-11.491-9.145"/>
			</g>
		</g>
	</g>
	<path fill="#245977" d="M88.377,25.584c1.056,2.01,2.998,4.587,5.305,5.117c0.914-1.607,0.611-4.032-0.801-5.349
		c0.957,2.178,3.041,4.015,5.531,3.383c2.016-4.857-3.359-6.886-7.191-7.207c-3.779-0.317-12.17,1.063-7.652,6.183
		C86.656,31.213,92.101,30.452,88.377,25.584z"/>
	<path fill="#FFFFFF" d="M95.81,222.922c-0.025,2.818-0.159,5.622-0.417,8.265c-2.049,1.117-5.64,0.474-7.995,0.474
		c-2.343,0-7.188,0.948-9.259,0.323c-2.609-0.791-2.479-7.108-2.722-9.677c-0.46-4.861-2.636-11.541,1.161-15.617
		c3.543-3.806,10.986-3.894,14.857-0.802c2.378,1.898,3.791,4.146,4.037,7.246C95.72,216.264,95.84,219.604,95.81,222.922z"/>
	<path fill="#245977" d="M82.236,227.583c2.02,13.568,9.065,29.101,14.56,42.228c3.968,9.479,7.825,19.206,12.199,28.564
		c1.661,3.547,3.793,11.184,8.226,7.857c3.977-2.981,7.207-13.377,9.449-17.892c1.657-3.335,2.852-6.888,4.438-10.259
		c0.737-1.565,1.532-3.109,2.444-4.582c0.423-0.685,0.873-1.354,1.36-1.993c0.23-0.303,0.468-0.603,0.721-0.891
		c0.29-0.331,0.649-0.39,0.997-0.671c0.465-0.377,0.927-0.533,1.469-0.766c0.322-0.141,0.571-0.365,0.883-0.518
		c0.246-0.119,0.514-0.168,0.761-0.291c0.415-0.204,1.187-0.554,1.469-0.91c0.183-0.231,0.11-0.457-0.054-0.746
		c-0.482-0.848-1.189-1.623-1.907-2.271c-1.515-1.365-3.542-2.042-5.571-2.018c-1.672,0.02-3.107,0.951-4.202,2.188
		c-1.355,1.531-2.612,3.376-3.314,5.328c-0.266,0.735-0.466,1.443-0.663,2.188c-0.176,0.667-0.57,1.247-0.865,1.863
		c-0.307,0.646-0.627,1.252-0.983,1.878c-1.078,1.893-2.221,3.767-3.395,5.602c-1.22,1.906-2.061,4.104-3.535,5.838
		c-0.244,0.287-0.681,1.053-1.116,0.955c-0.331-0.075-0.51-0.666-0.66-0.984c-0.803-1.7-1.72-3.348-2.512-5.063
		c-0.693-1.507-1.356-3.021-2.065-4.521c-1.061-2.246-1.692-4.663-2.679-6.94c-1.087-2.509-1.845-5.149-2.551-7.787
		c-0.526-1.968-0.979-3.965-2.058-5.716c-0.712-1.155-1.136-2.444-1.44-3.775c-0.128-0.56-0.33-1.071-0.527-1.611
		c-0.652-1.8-1.391-3.581-2.129-5.353c-2.262-5.418-4.348-11.193-5.865-16.709c-0.727-2.631-0.326-6.202-3.621-6.621
		c-1.648-0.211-5.66,2.978-7.281,3.65c-0.58,0.24-0.836,0.556-1.436,0.749"/>
</g>
</svg>
