<?xml version="1.0" encoding="utf-8"?>
<!-- Generator: Adobe Illustrator 16.0.4, SVG Export Plug-In . SVG Version: 6.00 Build 0)  -->
<!DOCTYPE svg PUBLIC "-//W3C//DTD SVG 1.1//EN" "http://www.w3.org/Graphics/SVG/1.1/DTD/svg11.dtd">
<svg version="1.1" id="Ebene_1" xmlns="http://www.w3.org/2000/svg" xmlns:xlink="http://www.w3.org/1999/xlink" x="0px" y="0px"
	 width="283.46px" height="425.2px" viewBox="0 0 283.46 425.2" enable-background="new 0 0 283.46 425.2" xml:space="preserve">
<g>
	<path fill="#245977" d="M119.411,271.661c-0.771,1.832-2.656,5.794-1.897,7.961c0.798,2.275,5.896,3.528,7.886,4.226
		c3.149,1.101,6.615,1.206,9.817,2.039c2.908,0.754,6.371,0.501,9.43,0.402c1.354-0.04,3.232-0.118,4.308-0.883
		c1.106-0.792,1.418-2.592,1.889-3.914c0.871-2.462,1.623-4.943,2.75-7.376c0.389-0.845,0.85-1.65,1.333-2.446
		c0.242-0.395,0.492-0.785,0.737-1.176c0.365-0.569,0.752-1.168,1.021-1.791c0.251-0.586,0.229-1.243,0.525-1.81
		c0.389-0.736,1.15-1.021,1.679-1.621c1.529-1.74,1.003-5.611,0.484-7.659c-0.66-2.6-1.537-5.2-2.945-7.658
		c-0.443-0.776-1.074-1.398-0.987-2.351c0.068-0.716,0.413-1.461,0.598-2.164c0.434-1.651,0.793-3.416,1.021-5.117
		c0.249-1.836,0.723-3.638,1.104-5.446c0.19-0.912,1.307-3.117,0.023-3.5c-1.251-0.373-2.118,1.027-2.963,1.606
		c-1.161,0.792-3.018,0.839-4.384,0.984c-2.42,0.255-4.998,0.088-7.46,0.088c-2.379,0-4.52,0.258-6.591-0.787
		c-1.228-0.624-2.39-1.387-3.683-1.877c-0.364-0.142-1.49-0.649-1.872-0.399c-0.432,0.284-0.178,0.865-0.134,1.316
		c0.318,3.479,1.046,6.714,2.104,10.049c0.502,1.57,1.055,3.104,1.568,4.668c0.339,1.04,1.302,2.148,0.794,3.133
		c-1.238,2.407-3.488,4.024-4.553,6.565c-0.725,1.729-1.465,3.376-2.871,4.658c-1.387,1.261-2.979,2.268-4.354,3.55
		C121.778,266.806,120.467,269.152,119.411,271.661z"/>
	<path fill="#245977" d="M83.772,392.312c0.231-0.66,0.379-1.356,0.453-2.058c0.084-0.838,0.071-1.683-0.024-2.518
		c-0.3-2.595-0.562-5.196-0.562-7.811c0-1.646,0.089-3.282,0.258-4.908c0.152-1.467,0.109-2.947,0.426-4.393
		c0.734-3.353,1.129-6.821,2.501-10.012c1.007-2.34,1.66-4.827,2.171-7.307c0.278-1.352,0.336-2.613-0.007-3.953
		c-0.358-1.394-1.157-2.659-1.69-4.084c-0.812-2.179-1.89-4.739-0.91-6.996c0.669-1.542,1.965-3.256,3.184-4.411
		c1.349-1.278,2.391-2.759,3.37-4.344c0.418-0.674,0.721-1.408,0.996-2.155c0.281-0.763,0.535-1.543,0.849-2.292
		c0.563-1.334,0.628-2.651,1.107-3.981c0.394-1.093,0.759-2.232,1.294-3.269c1.108-2.141,2.225-4.312,3.281-6.312
		c1.262-2.37,1.934-4.91,3.478-7.097c1.188-1.693,2.513-3.998,3.428-5.831c1.104-2.203,2.134-4.18,3.562-6.238
		c0.896-1.286,2.469-4.447,4.181-4.856c1.846-0.443,4.763,1.899,6.199,2.822c1.921,1.233,3.819,3.255,5.998,3.988
		c-0.277,1.814-1.993,4.391-2.958,5.947c-1.214,1.953-2.094,3.894-3.071,5.976c-1.109,2.362-2.416,4.824-3.856,6.977
		c-2.025,3.027-3.748,6.512-5.562,9.678c-1.78,3.118-3.628,5.888-5.464,8.982c-1.641,2.771-3.413,5.271-4.896,8.066
		c-0.607,1.139-1.153,2.037-1.102,3.361c0.049,1.225,0.228,2.263-0.172,3.446c-0.802,2.367-1.136,4.537-1.136,7.034
		c0,1.648,0,3.299,0,4.949c0,1.724,0.113,3.502-0.205,5.174c-0.376,1.979-0.38,3.992-0.648,6.002
		c-0.162,1.198-0.639,2.22-0.657,3.477c-0.02,1.06-0.266,2.007-0.484,3.042c-0.39,1.833-0.522,3.709-0.973,5.553
		c-0.267,1.085-0.786,2.03-1.144,3.072c-0.267,0.778-0.312,1.57-0.689,2.361c-0.671,1.411-1.564,2.74-1.895,4.287
		c-0.249,1.16-0.976,2.178-1.205,3.339c-0.209,1.064,0.003,2.307,0.124,3.373c0.136,1.196,0.582,1.748,0.215,3.018
		c-0.559,1.944-3.976,3.146-5.771,2.589c-1.084-0.339-2.212-0.494-3.346-0.394c-1.089,0.096-2.1,0.617-3.175,0.69
		c-0.908,0.062-1.592-0.076-2.501,0.237c-1.142,0.393-2.03,1.096-3.094,1.623c-0.689,0.339-1.562,1.063-2.375,1.088
		c-1.379,0.039-0.99-1.172-1.109-2.135c-0.589,0.013-2.805-0.575-2.95-1.381c-0.172-0.975,1.864-1.344,2.512-1.276
		c0.621-1.038-1.266-0.938-1.27-1.898c-0.011-1.338,1.729-0.236,2.355-0.47c0.124-0.572-0.038-0.928-0.231-1.428
		c-0.229-0.593-0.383-0.795-0.383-1.557c-0.005-1.034,0.708-2.744,2.112-2.114c1.012,0.45,1.163,1.986,2.151,2.609
		c0.424,0.265,1.062,0.509,1.552,0.635c1.521,0.383,3.337-1.46,4.599-2.101C82.182,395.332,83.216,393.925,83.772,392.312z"/>
	<path fill="#FFFFFF" d="M38.446,61.417c-0.269,0.166-0.58-0.771-0.783-1.043c-0.381-0.503-0.974-0.769-1.541-0.959
		c-0.586-0.192-1.249-0.236-1.835-0.326c-0.648-0.098-1.38-0.271-1.978-0.343c-2.886-0.345-6.01-0.841-9.008-0.5
		c-1.148,0.131-2.521,0.75-3.652,1.132c-1.201,0.41-2.356,0.46-3.492,0.996c-1.094,0.513-2.134,1.143-2.869,2.01
		c-0.819,0.963-0.575,2.567,0.203,3.529c1.303,1.616,3.878,1.824,5.782,1.824c1.562,0,3.034-0.266,4.573-0.336
		c1.323-0.059,2.684-0.181,3.955-0.498c1.918-0.482,3.935-0.678,5.661-1.706c1.645-0.982,3.258-2.382,4.154-4.111"/>
	<path fill="#245977" d="M128.48,211.76c-3.774,0.187-5.294,2.518-8.172,4.426c-2.573,1.702-5.692,1.778-8.32,3.184
		c-1.396,0.747-2.596,1.847-4.004,2.609c-1.48,0.803-3.039,1.507-4.337,2.6c-0.296,0.25-0.636,0.475-0.875,0.779
		c-0.188,0.237-0.346,0.423-0.608,0.581c-0.737,0.448-1.49,0.875-2.167,1.418c-0.471,0.381-0.954,0.764-1.408,1.164
		c-0.713,0.632-1.442,1.245-2.144,1.891c-0.528,0.488-1.046,1.047-1.459,1.638c-0.169,0.237-0.338,0.475-0.52,0.703
		c-0.142,0.177-0.2,0.287-0.177,0.515c0.012,0.112,0.058,0.255-0.081,0.129c-0.165-0.151-0.241-0.394-0.354-0.58
		c-0.082-0.135-0.16-0.276-0.258-0.401c-0.068-0.089-0.156-0.154-0.202-0.258c-0.096-0.21-0.195-0.406-0.319-0.603
		c-0.285-0.446-0.603-0.873-0.934-1.287c-0.693-0.86-1.447-1.666-2.232-2.446c-1.687-1.671-2.748-3.8-3.766-5.914
		c-0.461-0.954-0.85-1.796-1.576-2.565c-1.546-1.643-3.34-2.885-4.491-4.882c-0.284-0.495-0.935-1.511-0.706-2.122
		c0.317-0.848,1.336-0.288,2.01-0.542c-0.045-1.094-1.5-1.707-2.327-2.133c-0.146-0.073-0.906-0.482-0.559-0.755
		c0.307-0.238,0.879,0.263,1.086,0.444c0.396,0.338,0.753,0.737,1.164,1.059c0.16,0.125,0.494,0.39,0.72,0.313
		c0.372-0.127,0.003-0.855-0.108-1.064c-0.219-0.409-0.469-0.788-0.795-1.114c-0.284-0.283-0.591-0.489-0.899-0.734
		c-0.244-0.195-0.479-0.344-0.669-0.59c-0.068-0.09-0.266-0.255-0.218-0.392c0.279-0.013,0.679,0.214,0.91,0.363
		c0.477,0.31,0.862,0.64,1.232,1.075c0.276,0.321,0.582,0.605,0.901,0.88c0.143,0.125,0.319,0.394,0.526,0.411
		c0.341,0.025,0.202-0.423,0.151-0.615c-0.183-0.715-0.489-1.395-0.745-2.083c-0.202-0.54-0.452-1.082-0.869-1.497
		c-0.489-0.486-1.073-0.647-1.705-0.863c-0.361-0.121-0.684-0.376-1.068-0.397c-0.362-0.021-0.713-0.093-1.072-0.13
		c-0.064-0.008-0.135-0.014-0.201-0.02c-0.489-0.044-1.014-0.099-1.498,0.006c-0.226,0.046-0.43,0.146-0.646,0.217
		c-0.208,0.069-0.506,0.01-0.717-0.021c-0.7-0.105-1.447,0.081-2.09,0.338c-0.573,0.229-1.159,0.416-1.717,0.683
		c-0.812,0.39-1.277,0.932-1.251,1.862c0.039,1.499,0.554,2.899,0.974,4.315c0.146,0.504,0.379,0.947,0.612,1.414
		c0.201,0.406,0.498,0.727,0.738,1.105c0.484,0.765,0.992,1.507,1.512,2.254c1.271,1.832,2.616,3.602,3.949,5.39
		c0.41,0.545,0.835,1.062,1.197,1.644c0.288,0.458,0.528,0.952,0.848,1.394c0.38,0.527,0.93,0.985,1.179,1.578
		c0.285,0.699,0.65,1.368,0.954,2.06c0.423,0.963,0.816,1.938,1.188,2.924c1.077,2.879,3.055,5.107,4.188,7.796
		c1.029,2.443,0.246,5.157,2.828,6.851c3.939,2.583,3.738-1.669,6.69-2.943c1.376-0.594,3.091-0.534,4.536-1.081
		c1.396-0.529,2.835-1.174,4.065-2.026c1.658-1.15,3.146-2.274,4.805-3.422c1.977-1.368,3.975-2.851,6.138-3.912
		c1.543-0.757,3.246-0.987,4.801-1.693c0.847-0.385,9.811-6.669,10.186-5.256c0.591,2.229,1.873,4.43,2.549,6.474
		c1.247,3.758,3.84,2.038,7.442,2.405c3.155,0.32,6.192,1.865,9.493,1.965c2.887,0.087,6.057,0.267,8.893-0.098
		c0.487-3.78-2.967-13.05,1.229-15.273c1.435,1.121,2.203,3.113,3.224,4.538c1.542,2.158,3.062,3.488,5.143,5.193
		c4.378,3.593,7.836,6.554,12.921,9.024c2.283,1.11,4.394,2.743,6.432,4.367c2.468,1.974,3.032,3.055,5.838,1.116
		c3.619-2.507,6.287-6.077,9.62-9.027c3.221-2.849,6.438-6.539,9.358-9.98c3.092-3.634,4.864-8.049,7.418-11.937
		c0.646-0.987,1.354-1.931,2.011-2.911c0.318-0.48,0.629-0.97,0.91-1.475c0.254-0.462,0.36-0.939,0.541-1.428
		c0.184-0.494,0.393-0.947,0.492-1.47c0.245-1.276,0.167-2.613-0.05-3.885c-0.093-0.546-0.188-1.089-0.276-1.635
		c-0.062-0.369-0.084-0.792-0.196-1.145c-0.085-0.264-0.187-0.692-0.406-0.882c-0.159-0.141-0.489-0.153-0.689-0.225
		c-0.606-0.22-1.237-0.467-1.803-0.782c-0.651-0.363-1.388-0.541-2.045-0.89c-0.294-0.156-0.537-0.292-0.885-0.28
		c-0.556,0.017-0.971,0.409-1.412,0.701c-0.738,0.487-1.452,1.113-2.05,1.756c-0.369,0.398-0.745,0.797-1.09,1.219
		c-0.354,0.432-0.761,0.836-1.068,1.302c-0.196,0.296-0.33,0.607-0.495,0.913c-0.112,0.2-0.563,0.778-0.124,0.828
		c0.223,0.027,0.516-0.26,0.669-0.38c0.295-0.23,0.562-0.484,0.84-0.734c0.389-0.345,0.866-0.873,1.404-0.987
		c0.203-0.044,0.276,0.043,0.187,0.253c-0.127,0.295-0.481,0.557-0.709,0.768c-0.78,0.732-1.806,1.499-2.252,2.501
		c-0.152,0.345-0.445,1.432,0.281,1.357c0.338-0.036,0.676-0.328,0.918-0.545c0.271-0.244,0.653-0.809,1.029-0.89
		c0.252-0.052,0.296,0.173,0.27,0.369c-0.052,0.401-0.411,0.753-0.623,1.078c-0.262,0.396-0.684,1.01-0.576,1.511
		c0.079,0.376,0.342,0.489,0.659,0.626c0.251,0.109,0.365,0.196,0.397,0.48c0.067,0.572-0.284,1.328-0.626,1.771
		c-0.335,0.436-0.492,0.936-0.708,1.438c-0.483,1.12-1.052,2.21-1.751,3.211c-0.787,1.131-1.765,2.171-2.982,2.845
		c-2.871,1.585-6.314,1.813-8.936,3.924c-4.364,3.513-6.762,8.422-8.48,13.545c-1.192-1.112-0.992-3.178-1.652-4.669
		c-1.013-2.285-2.777-4.466-4.584-6.174c-2.548-2.411-5.478-3.396-8.701-4.546c-4.223-1.511-7.278-3.921-10.479-7.026
		c-3.109-3.017-6.067-5.013-10.587-4.468c-1.191,0.145-2.567,0.94-3.529,1.658c-1.65,1.232-3.427,2.832-5.384,3.551
		c-1.443,0.528-2.864,0.656-4.396,0.626c-2.792-0.053-2.026-1.984-3.952-2.947c-0.983-0.492-3.005-0.098-4.107-0.151
		C131.404,211.827,129.943,211.688,128.48,211.76z"/>
	<path d="M214.324,189.662c0.065,0.657,0.116,1.314,0.166,1.971c0.09,1.172,0.137,2.366,0.315,3.53
		c0.027,0.187,0.095,0.336,0.165,0.509c0.092,0.232,0.111,0.486,0.15,0.732c0.098,0.573,0.219,1.143,0.296,1.719
		c0.02,0.146,0.091,0.31,0.056,0.455c-0.207,0.068-0.396,0.199-0.542,0.366c-0.118,0.134-0.498,0.213-0.518,0.396
		c-0.038-0.119-0.115-0.23-0.162-0.354c-0.081-0.218-0.135-0.432-0.184-0.663c-0.074-0.352-0.154-0.714-0.2-1.072
		c-0.05-0.385-0.049-0.773-0.145-1.152c-0.121-0.482-0.235-0.958-0.291-1.452c-0.068-0.59-0.133-1.158-0.291-1.731
		c-0.131-0.469-0.227-0.945-0.365-1.408c-0.287-0.961-0.416-1.981-0.552-2.977c-0.301-2.16-0.432-4.346-0.835-6.493
		c-0.999-5.307-1.631-10.952-2.204-16.559c-0.572-5.625-2.162-11.283-3.287-16.789c-1.225-6.008-1.779-12.011-3.103-18.063
		c-4.687-21.419-6.392-42.152-12.354-62.989c0.292-0.15,1.409-0.613,1.818-0.767c0.597,1.944,0.49,3.747,1.275,5.784
		c0.818,2.142,1.56,4.163,2.02,6.329c0.954,4.536,1.518,9.198,2.125,13.784c1.23,9.301,2.288,19.137,4.323,28.628
		c1.087,5.062,1.803,9.897,2.902,14.922c1.07,4.89,1.287,9.807,2.639,14.53c2.803,9.811,2.734,19.841,4.893,29.424
		C213.16,183.506,214.001,186.376,214.324,189.662z"/>
	<path d="M219.235,187.994c-0.001,0.029-0.004,0.06-0.004,0.088c-0.065,2.127-0.027,4.256-0.123,6.383
		c-0.046,1.085-0.127,2.17-0.274,3.249c-0.071,0.523-0.157,1.043-0.267,1.562c-0.039,0.186-0.173,0.396-0.098,0.579
		c0.081,0.189,0.284,0.354,0.471,0.436c0.214,0.096,0.61,0.079,0.829,0.008c0.249-0.085,0.377-0.187,0.473-0.438
		c0.065-0.171,0.077-0.345,0.119-0.509c0.097-0.379,0.077-0.805,0.115-1.201c0.073-0.728,0.138-1.449,0.183-2.181
		c0.029-0.484,0.056-0.976,0.066-1.462c0.015-0.693,0.059-1.387,0.07-2.083c0.011-0.46,0.177-0.805,0.316-1.229
		c0.335-1,0.417-2.14,0.528-3.187c0.12-1.103,0.188-2.211,0.246-3.318c0.106-2.1,0.143-4.21,0.4-6.299
		c0.807-6.59,1.123-13.549,1.376-20.46c0.249-6.938,1.771-14.009,2.723-20.85c1.033-7.465,1.229-14.855,2.386-22.386
		c4.091-26.644,4.486-52.16,10.231-78.214c-0.38-0.156-1.823-0.615-2.352-0.763c-0.586,2.433-0.304,4.629-1.11,7.194
		c-0.853,2.702-1.617,5.241-2.011,7.937c-0.818,5.638-1.138,11.39-1.514,17.061c-0.765,11.49-1.267,23.62-3.029,35.421
		c-0.94,6.294-1.434,12.279-2.397,18.53c-0.931,6.082-0.796,12.114-2.094,18.02c-2.698,12.266-1.767,24.522-3.674,36.453
		C220.178,180.353,219.363,183.944,219.235,187.994z"/>
	<path d="M210.64,55.972c0.24-0.745,0.314-0.799,0.221-0.165c-1.735,4.801-0.061,10.842,0.14,15.578
		c0.257,6.066,1.018,12.388,1.841,18.653c0.822,6.286,0.492,12.905,0.655,19.22c0.184,6.895,1.124,13.581,1.205,20.552
		c0.026,2.378,0.084,4.755,0.165,7.132c0.081,2.365,0.184,4.731,0.304,7.094c0.119,2.343,0.255,4.689,0.4,7.032
		c0.142,2.331,0.295,4.661,0.449,6.991c0.153,2.323,0.305,4.644,0.454,6.964c0.146,2.317,0.287,4.637,0.414,6.954
		c0.127,2.321,0.238,4.64,0.328,6.961c0.09,2.329,0.16,4.657,0.2,6.986c0.04,2.34,0.052,4.683,0.025,7.024
		c-0.023,2.361-0.087,4.723-0.192,7.083c-0.016,0.319-0.028,0.64-0.046,0.961c-0.012,0.261-0.067,0.542-0.062,0.803
		c0.009,0.346,0.421,0.559,0.696,0.67c0.392,0.158,0.883,0.233,1.287,0.091c0.312-0.11,0.404-0.35,0.397-0.661
		c-0.008-0.416-0.056-0.834-0.073-1.249c-0.074-1.701-0.33-3.384-0.085-5.083c0.376-2.575,0.69-4.989,0.649-7.478
		c-0.105-5.215-0.689-10.447-1.198-15.614c-1.038-10.474-2.421-21.477-2.592-32.393c-0.087-5.823-0.541-11.294-0.604-17.08
		c-0.065-5.629-1.11-11.041-0.811-16.571c0.624-11.493-2.093-22.374-2.147-33.43c-0.018-3.729,0.185-7.097-0.312-10.764
		c-0.454-3.357-1.346-7.367-1.06-10.89c-0.576,1.248-1.17,0.715-2.286,0.628"/>
	<path d="M248.579,66.763c0.384-0.602,0.462-0.632,0.228-0.092c-2.625,3.829-2.629,9.626-3.582,13.889
		c-1.222,5.46-2.071,11.277-2.855,17.055c-0.789,5.803-2.648,11.604-4.006,17.262c-1.484,6.177-2.267,12.364-3.854,18.582
		c-0.284,1.11-0.561,2.223-0.833,3.337c-0.557,2.304-1.089,4.613-1.6,6.929c-0.509,2.294-0.996,4.592-1.473,6.892
		c-0.473,2.284-0.934,4.571-1.394,6.86c-0.457,2.278-0.91,4.557-1.369,6.834c-0.46,2.271-0.923,4.542-1.401,6.811
		c-0.477,2.268-0.968,4.533-1.482,6.792c-0.516,2.266-1.055,4.527-1.623,6.779c-0.568,2.266-1.172,4.523-1.81,6.769
		c-0.321,1.132-0.653,2.258-0.995,3.384c-0.322,1.059-0.815,2.177-0.863,3.293c-0.006,0.093-0.014,0.21,0.003,0.302
		c0.023,0.146,0.106,0.202,0.225,0.29c0.148,0.112,0.316,0.226,0.494,0.285c0.192,0.063,0.46,0.186,0.665,0.153
		c0.546-0.084,0.43-0.517,0.471-0.949c0.048-0.507,0.199-1.02,0.33-1.514c0.079-0.3,0.089-0.616,0.182-0.909
		c0.077-0.236,0.162-0.457,0.216-0.699c0.158-0.674,0.355-1.339,0.626-1.975c0.934-2.192,1.777-4.26,2.332-6.489
		c1.149-4.659,1.896-9.463,2.686-14.186c1.597-9.58,3.028-19.717,5.481-29.468c1.303-5.202,2.215-10.18,3.539-15.342
		c1.284-5.025,1.675-10.099,3.244-14.941c3.266-10.062,3.522-20.43,6.106-30.277c0.867-3.318,1.844-6.262,2.29-9.651
		c0.411-3.102,0.597-6.895,1.682-9.953c-0.794,0.962-1.171,0.336-2.112-0.027"/>
	<path d="M69.075,196.942c0.342,1.393,0.625,2.799,0.96,4.196c0.233,0.982,0.491,1.959,0.806,2.92
		c0.148,0.459,0.288,0.955,0.504,1.389c0.081,0.164,0.224,0.205,0.261,0.406c0.031,0.16,0.024,0.33,0.007,0.49
		c-0.037,0.361-0.417,0.638-0.735,0.748c-0.226,0.079-0.562,0.128-0.807,0.102c-0.274-0.033-0.279-0.19-0.373-0.454
		c-0.093-0.261-0.182-0.517-0.249-0.785c-0.11-0.44-0.154-0.892-0.263-1.334c-0.139-0.562-0.246-1.145-0.412-1.702
		c-0.146-0.494-0.305-0.997-0.409-1.5c-0.232-1.103-0.481-2.206-0.782-3.292c-0.106-0.384-0.215-0.768-0.352-1.141
		c-0.131-0.348-0.344-0.663-0.442-1.014c-0.582-2.049-1.017-4.141-1.702-6.156c-1.742-5.113-3.171-10.61-4.535-16.079
		c-1.365-5.489-3.744-10.862-5.638-16.151c-2.068-5.774-3.469-11.634-5.641-17.438c-7.687-20.538-12.315-40.818-21.179-60.595
		c0.266-0.19,1.306-0.809,1.695-1.019c0.864,1.839,1.015,3.639,2.077,5.545c1.115,2.004,2.138,3.898,2.902,5.978
		c1.59,4.356,2.811,8.888,4.061,13.344c2.543,9.03,4.982,18.616,8.349,27.722c1.794,4.854,3.191,9.542,4.995,14.358
		c1.752,4.686,2.668,9.522,4.677,14.005c4.166,9.312,5.521,19.25,9.02,28.431C67.049,191.011,68.289,193.735,69.075,196.942z"/>
	<path d="M75.854,197.075c-0.044,1.585-0.02,3.17-0.063,4.757c-0.028,1.034-0.084,2.067-0.203,3.096
		c-0.059,0.486-0.091,1.018-0.229,1.488c-0.124,0.418-0.134,0.869,0.047,1.284c0.073,0.167,0.179,0.291,0.297,0.423
		c0.158,0.171,0.358,0.336,0.596,0.371c0.186,0.025,0.588-0.1,0.715-0.238c0.097-0.104,0.046-0.25,0.073-0.369
		c0.035-0.163,0.104-0.328,0.139-0.496c0.055-0.249,0.046-0.488,0.068-0.739c0.031-0.398,0.088-0.793,0.12-1.191
		c0.073-0.917,0.032-1.835,0.104-2.752c0.046-0.574,0.041-1.154,0.084-1.73c0.04-0.494,0.078-0.986,0.119-1.479
		c0.035-0.393,0.063-0.787,0.057-1.183c-0.004-0.321-0.075-0.655-0.011-0.974c0.136-0.671,0.192-1.33,0.235-2.016
		c0.128-2.115,0.123-4.242,0.37-6.348c0.659-5.553,0.907-11.424,1.098-17.254c0.189-5.853,1.445-11.812,2.218-17.581
		c0.844-6.296,0.991-12.531,1.934-18.877c3.343-22.467,3.611-43.994,8.334-65.958c-0.315-0.13-1.518-0.522-1.961-0.648
		c-0.48,2.051-0.24,3.904-0.907,6.064c-0.706,2.277-1.335,4.421-1.654,6.692c-0.669,4.753-0.919,9.607-1.221,14.387
		c-0.611,9.691-0.997,19.921-2.438,29.874c-0.765,5.307-1.164,10.356-1.952,15.625c-0.761,5.128-0.632,10.219-1.699,15.195
		c-2.217,10.343-1.414,20.684-2.974,30.742C76.623,190.63,75.952,193.659,75.854,197.075z"/>
	<path d="M61.685,58.73c0.195-0.757,0.265-0.811,0.203-0.161c-1.438,4.865,0.393,11.144,0.782,16.02
		c0.491,6.249,1.475,12.778,2.51,19.251c1.04,6.496,1.005,13.286,1.419,19.789c0.462,7.091,1.626,14.007,1.992,21.174
		c0.035,0.684,0.071,1.368,0.11,2.054c0.129,2.229,0.279,4.458,0.445,6.687c0.165,2.211,0.351,4.421,0.544,6.629
		c0.193,2.196,0.399,4.391,0.613,6.584c0.211,2.183,0.43,4.365,0.649,6.548c0.219,2.175,0.438,4.35,0.652,6.525
		c0.218,2.171,0.43,4.343,0.632,6.513c0.203,2.172,0.396,4.343,0.572,6.514c0.179,2.173,0.342,4.348,0.486,6.525
		c0.144,2.181,0.267,4.364,0.367,6.546c0.097,2.192,0.169,4.387,0.215,6.581c0.021,1.103,0.034,2.204,0.042,3.307
		c0.002,0.554,0.003,1.105,0.002,1.658c-0.002,0.277-0.002,0.554-0.003,0.83c-0.003,0.112,0.023,0.232,0.011,0.338
		c-0.014,0.105-0.081,0.196-0.095,0.3c-0.011,0.105,0.016,0.204,0.041,0.305c0.037,0.152,0.086,0.314,0.195,0.435
		c0.153,0.173,0.405,0.247,0.623,0.289c0.246,0.046,0.46,0.05,0.677-0.069c0.205-0.113,0.239-0.133,0.239-0.377
		c0-0.378,0.052-0.757,0.078-1.135c0.051-0.83,0.095-1.664,0.125-2.496c0.031-0.767,0.049-1.534,0.059-2.3
		c0.006-0.382,0.007-0.767,0.01-1.148c0.002-0.187,0.02-0.383,0-0.568c-0.01-0.107-0.049-0.205-0.052-0.311
		c-0.02-0.549,0.092-1.127,0.13-1.675c0.04-0.553,0.07-1.109,0.089-1.664c0.043-1.097,0.043-2.198-0.021-3.295
		c-0.312-5.364-1.079-10.766-1.776-16.097c-1.418-10.81-3.18-22.18-3.793-33.409c-0.329-5.992-0.984-11.633-1.284-17.584
		c-0.295-5.79-1.504-11.395-1.453-17.066c0.108-11.788-2.908-23.087-3.42-34.454c-0.173-3.833-0.121-7.289-0.741-11.08
		c-0.568-3.47-1.576-7.63-1.452-11.238c-0.494,1.259-1.072,0.684-2.129,0.549"/>
	<path d="M108.667,62.251c0.426-0.655,0.51-0.688,0.253-0.1c-2.91,4.17-2.927,10.476-3.985,15.117
		c-1.363,5.94-2.312,12.268-3.193,18.554c-0.883,6.312-2.944,12.625-4.461,18.784c-1.649,6.719-2.524,13.452-4.295,20.217
		c-0.562,2.148-1.098,4.304-1.616,6.463c-0.514,2.152-1.011,4.308-1.488,6.467c-0.477,2.143-0.94,4.291-1.394,6.437
		c-0.449,2.137-0.893,4.275-1.332,6.414c-0.439,2.131-0.874,4.262-1.311,6.393c-0.438,2.125-0.881,4.25-1.329,6.374
		c-0.45,2.121-0.908,4.24-1.383,6.358c-0.475,2.117-0.962,4.233-1.474,6.342c-0.511,2.119-1.045,4.231-1.603,6.335
		c-0.562,2.117-1.15,4.228-1.771,6.329c-0.312,1.057-0.631,2.112-0.959,3.163c-0.312,0.999-0.595,2.029-0.963,3.003
		c-0.046,0.121-0.079,0.246-0.096,0.376c-0.042,0.359,0.141,0.584,0.369,0.828c0.287,0.311,0.707,0.603,1.146,0.424
		c0.282-0.117,0.583-0.376,0.697-0.665c0.119-0.291,0.136-0.636,0.21-0.943c0.116-0.484,0.213-0.974,0.308-1.462
		c0.241-1.268,0.498-2.53,1.013-3.722c1.036-2.386,1.977-4.636,2.591-7.059c1.283-5.071,2.116-10.295,2.994-15.437
		c1.787-10.422,3.391-21.449,6.117-32.061c1.452-5.659,2.475-11.08,3.942-16.695c1.43-5.466,1.871-10.988,3.617-16.257
		c3.632-10.95,3.937-22.23,6.809-32.945c0.969-3.612,2.051-6.813,2.55-10.5c0.459-3.375,0.672-7.501,1.88-10.829
		c-0.879,1.049-1.299,0.367-2.332-0.025"/>
	<path fill="#245977" d="M8.158,78.582c1.13,1.059,3.75,0.523,5.234,0.523c2.051,0.001,3.796,0.341,5.763,0.522
		c4.166,0.384,7.943-0.522,11.927-0.93c3.818-0.39,7.102-0.942,10.587-2.094c1.646-0.546,3.747-0.616,5.239-1.688
		c1.396-1.006,1.324-2.292,2.046-3.677c-3.049-1.757-7.352-1.033-10.949-1.033c-4.09,0-8.065,0.017-12.04,0.534
		C23.097,71.111,5.388,73.73,7.2,78.489c0.911,0.048,1.075,0.498,1.48,1.138"/>
	<path fill="#245977" d="M73.616,50.827c-6.901,0-14.432-0.396-20.947,1.036c-3.181,0.699-6.226,1.521-8.9,3.678
		c-2.759,2.227-1.452,4.373,1.566,5.659c5.666,2.413,13.086-0.809,18.908-1.351c3.325-0.312,14.62-2.25,12.957-7.895
		c-1.365-0.056-4.584-0.075-5.158-1.126"/>
	<path fill="#245977" d="M127.202,56.587c-0.665-0.56-5.578-1.902-7.68-2.123c-3.234-0.338-6.773,0.029-10.045,0.029
		c-3.339,0-6.675,0-10.014,0c-1.862,0-3.822-0.136-5.678,0.002c-1.651,0.124-3.259,0.686-4.898,0.6
		c-1.069,8.127,16.893,7.778,22.952,7.778c4.531,0,9.062-0.012,13.589,0c1.841,0.004,4.149,0.365,4.595-1.689
		c0.537-2.505-2.993-2.121-3.41-4.074"/>
	<path fill="#245977" d="M107.305,69.157c-0.666-0.559-5.581-1.904-7.684-2.122c-3.232-0.34-6.771,0.027-10.044,0.027
		c-3.339,0-6.676,0-10.012,0c-1.864,0-3.825-0.141-5.679,0c-1.649,0.125-3.256,0.69-4.896,0.604
		c-1.069,8.123,16.891,7.776,22.95,7.776c4.529,0,9.06-0.016,13.589,0c1.838,0.003,4.148,0.364,4.595-1.689
		c0.541-2.507-2.991-2.123-3.412-4.074"/>
	<path fill="#245977" d="M198.237,59.145c0.258,0.036,0.521,0.075,0.781,0.111c-7.655-1.03-15.617,2.246-22.793,4.692
		c-1.258,0.431-6.945,1.391-6.801,3.788c0.185,2.891,6.782,2.045,8.385,1.837c6.389-0.846,12.443-0.581,18.788-2.597
		c2.669-0.849,14.091-3.285,13.173-7.668c-2.035-0.792-3.781-1.193-5.994-1.481c-2.257-0.292-4.147-0.361-6.388,0.111
		c-3.049,0.642-6.218,0.592-9.226,1.347"/>
	<path fill="#245977" d="M265.015,58.943c0.435,0.006,0.462,0.014,0.08,0.027c-3.562-1.734-8.68-1.494-12.571-1.599
		c-3.979-0.107-7.933-0.653-12.005-0.522c-2.43,0.079-5.07,0.964-7.445,1.687c-3.086,0.942-3.614,3.428,0,4.101
		c6.612,1.228,13.782,1.545,20.553,1.545c3.669,0,6.862-0.118,10.339-0.934c2.557-0.6,7.872-0.824,3.67-4.304"/>
	<path fill="#245977" d="M227.165,48.821c4.739,2.111,1.688,4.818-1.712,5.672c-3.924,0.985-8.262,2.419-12.369,3.128
		c-5.488,0.943-10.645,1.049-16.229,1.062c-2.908,0.003-8.103,0.123-9.497-3.261c-1.426-3.458,1.914-5.07,4.587-5.772
		c5.797-1.525,11.024-1.81,16.946-2.223C211.619,47.236,219.39,45.357,227.165,48.821z"/>
	<path fill="#245977" d="M260.054,25.692c1.941,3.21,1.037,6.833-2.104,8.394c-8.601,4.266-19.657,1.246-28.788,0.391
		c-3.132-0.292-9.777,0.501-10.5-3.536c-0.547-3.056,2.83-5.361,5.231-6.441c4.879-2.186,10.356-1.425,15.606-1.425
		c2.441,0,4.88,0.014,7.319,0c1.894-0.014,3.536,0.688,5.381,0.528c0.022-0.003,0.046-0.003,0.065-0.005c0.38,0,0.356,0-0.077,0
		C252.188,23.597,259.255,24.377,260.054,25.692z"/>
	<path fill="#FFFFFF" d="M11.658,75.746c0.087,0.152,0.209,0.209,0.365,0.177c0.326-0.6,1.48-0.706,2.06-0.98
		c0.781-0.369,1.529-0.607,2.364-0.853c1.604-0.477,3.313-0.809,4.92-1.316c1.77-0.557,3.753-0.56,5.579-0.844
		c1.682-0.261,3.265-0.407,5.024-0.407c3.468,0,6.8-0.2,10.258-0.2c0.638,0,1.891-0.251,2.229,0.392
		c0.484,0.922-0.591,1.43-1.214,1.67c-1.604,0.615-3.397,0.922-5.04,1.111c-4.556,0.524-9.089,1.47-13.667,2.046
		c-2.215,0.28-4.617,0.631-6.843,0.613c-1.049-0.008-2.008-0.079-3.019-0.202c-0.704-0.085-2.421-0.283-2.814-0.803"/>
	<path fill="#FFFFFF" d="M71.997,52.214c0.044,0.056,0.089,0.111,0.132,0.167c-0.722,0.183-1.748-0.167-2.544-0.167
		c-0.872,0-1.745,0-2.617,0c-1.875,0-3.65,0-5.43,0.409c-1.775,0.405-3.697,0.331-5.514,0.636c-2.13,0.357-4.171,1.153-6.156,1.921
		c-1.199,0.467-2.905,0.913-3.462,2.214c-0.846,1.969,1.77,2.671,3.266,2.663c4.488-0.023,9.069-0.778,13.427-1.857
		c2.001-0.5,4.007-0.978,5.884-1.962c0.901-0.475,1.772-0.863,2.604-1.458c0.896-0.64,0.85-0.963,0.611-1.96"/>
	<path fill="#FFFFFF" d="M103.574,69.713c0.165,0.307-0.394-0.124-0.63-0.204c-0.613-0.202-1.303-0.315-1.938-0.45
		c-1.924-0.405-3.786-0.701-5.732-0.909c-1.755-0.19-3.581-0.126-5.333-0.259c-1.253-0.092-2.559,0.012-3.814,0.012
		c-2.421,0-4.908,0.082-7.299,0.413c-0.915,0.125-1.899-0.162-2.813-0.015c-0.697,0.109-1.283,0.644-1.972,0.846
		c-0.822,2.115,5.332,2.845,6.359,2.936c2.088,0.188,4.209-0.067,6.288,0.202c1.902,0.247,3.851,0.204,5.777,0.247
		c3.151,0.067,6.32,0.272,9.497,0.199c0.809-0.02,2.137-0.13,2.625-0.799c0.592-0.811-0.299-1.937-0.814-2.619"/>
	<path fill="#FFFFFF" d="M122.881,58.25c0.004,0.162,0.006,0.169,0.009,0.02c-0.217-0.815-2.139-0.848-2.823-1.076
		c-0.883-0.292-1.84-0.676-2.771-0.766c-2.507-0.235-4.997-0.193-7.488,0.017c-2.394,0.201-4.807,0.195-7.248,0.195
		c-1.82,0-3.815-0.251-5.618-0.003c-0.985,0.137-4.565,0.088-2.871,1.664c1.327,1.231,3.259,1.748,5.023,2.003
		c5.525,0.805,11.098,1.566,16.749,1.566c1.618,0,3.307,0.069,4.82-0.444c0.769-0.26,3.463-0.842,3.602-1.931
		c-0.683-0.646-1.81-0.696-2.391-1.447"/>
	<path fill="#FFFFFF" d="M201.978,59.685c0.038,0.062,0.073,0.123,0.111,0.186c-2.437-0.206-4.927,0.592-7.347,1.063
		c-2.205,0.426-4.397,0.864-6.614,1.279c-2.29,0.424-4.627,0.772-6.835,1.466c-1.422,0.448-2.772,1.182-3.993,1.962
		c-0.443,0.281-1.3,0.728-1.358,1.274c-0.111,1.047,1.643,0.852,2.337,0.706c2.238-0.475,4.458-0.85,6.739-1.28
		c5.161-0.97,10.589-1.286,15.315-3.591c0.557-0.273,0.964-0.608,1.531-0.839c0.988-0.404,0.877-1.044,1.85-1.57"/>
	<path fill="#FFFFFF" d="M222.638,49.599c-3.759,0-7.531,0.02-11.26,0.45c-1.491,0.171-2.949,0.328-4.436,0.513
		c-1.141,0.14-2.307-0.06-3.45,0.034c-2.329,0.191-4.827,0.56-7.039,0.973c-1.084,0.2-4.117,0.486-3.585,2.262
		c0.539,1.792,2.824,1.804,4.429,1.804c2.474,0,4.947,0,7.42,0c5.231,0,10.788,0.077,15.699-1.85
		c1.234-0.485,2.32-1.035,3.077-2.133c0.242-0.354,0.733-0.742,0.572-1.256c-0.223-0.707-1.455-0.382-1.829-0.998"/>
	<path fill="#FFFFFF" d="M255.021,25.866c-3.356,0.004-6.665-0.602-10.045-0.602c-1.49,0-2.963,0.074-4.444,0.203
		c-1.54,0.134-3.143,0.159-4.677,0.357c-2.325,0.298-4.485,0.995-6.827,1.256c-1.499,0.167-4.235,0.516-4.832,2.202
		c-0.639,1.804,2.718,2.526,3.959,2.77c2.528,0.498,5.137,0.963,7.707,1.212c2.647,0.257,5.446,0.442,8.137,0.25
		c2.426-0.173,5.053-0.091,7.4-0.599c2.226-0.478,4.216-1.1,5.589-3.031c0.587-0.835,1.042-2.189,0.253-3.017
		c-1.082-1.138-3.232-0.801-4.635-0.801"/>
	<path fill="#E8A103" d="M251.642,25.705c-2.99,0.003-5.935-0.441-8.944-0.441c-1.329,0-2.642,0.054-3.959,0.146
		c-1.374,0.098-2.798,0.117-4.168,0.263c-2.073,0.219-3.995,0.729-6.076,0.918c-1.339,0.123-3.773,0.376-4.306,1.608
		c-0.566,1.318,2.421,1.849,3.521,2.026c2.257,0.364,4.58,0.704,6.867,0.887c2.36,0.186,4.853,0.323,7.251,0.183
		c2.158-0.125,4.5-0.066,6.59-0.437c1.982-0.348,3.755-0.805,4.977-2.217c0.525-0.613,0.926-1.601,0.227-2.204
		c-0.965-0.832-2.879-0.586-4.127-0.586"/>
	<path fill="#FFFFFF" d="M263.516,59.594c0.043,0.056,0.09,0.109,0.131,0.167c-2.558,0.363-5.388-0.861-7.928-1.222
		c-2.59-0.367-5.299-0.911-7.896-0.957c-2.084-0.036-4.14-0.014-6.181,0.213c-0.84,0.092-1.645,0.077-2.46,0.202
		c-0.771,0.116-1.445,0.535-2.185,0.627c-0.446,2.1,3.677,1.861,4.996,2.021c2.809,0.335,5.729,0.357,8.605,0.357
		c2.466,0,4.794,0.202,7.242,0.202c1.252,0,2.408-0.112,3.62-0.246c0.588-0.068,2.754-0.2,2.657-1.162"/>
	<path d="M49.265,42.287c0.357,0.534,0.165,1.54,0.165,2.159c0,0.925-0.104,1.928-0.009,2.843c0.166,1.641,0.193,3.371,0.508,4.979
		c0.238,1.226,0.047,2.8,0.625,3.866c0.292,0.542,0.717,0.715,1.37,0.628c0.553-0.073,1.399-0.113,1.831-0.503
		c0.844-0.759,0.428-2.748,0.296-3.826c-0.175-1.416-0.475-2.876-0.464-4.321c0.013-1.234-0.195-2.613-0.33-3.828
		c-0.073-0.632-0.084-1.262-0.62-1.71c-0.529-0.44-0.844-0.379-1.057-1.11c-0.203-0.717-0.225-1.561-0.322-2.339
		c-0.057-0.471,0.026-2.125-0.806-1.804c-0.214,1.707,0.532,3.199,0.278,4.936c-0.464,0.118-0.774,0.483-1.301,0.361"/>
	<path d="M59.91,55.596c0.2,0.111,0.165-1.157,0.165-1.497c0-0.596,0.051-1.222-0.023-1.806c-1.034,0.054-1.93-0.607-2.345-1.481
		c-0.246-0.511-0.246-0.778-0.292-1.372c-0.026-0.327-0.357-1.186-0.134-1.464c0.287-0.352,0.902,0.031,1.298,0.131
		c0.606,0.152,0.975,0.117,1.533,0.039c0.49-0.065,0.963-0.087,1.421-0.24c0.422-0.139,0.866-0.581,1.343-0.433
		c0.586,1.224,0.233,4.363-1.61,4.321c0.044,0.39-0.139,0.763-0.19,1.142c-0.067,0.478,0.001,1.012,0,1.497
		c-0.004,0.507-0.005,0.845,0.329,1.166c0.268,0.263,0.749,0.245,0.943,0.544c-1.174,0.513-2.72,0.786-4.079,0.59
		c-0.084-0.742,1.129-0.257,1.144-1.136"/>
	<path fill="#FF0000" d="M58.411,49.275c-0.155,1.032,0.991,1.729,1.833,1.827c1.444,0.171,1.62-1.104,1.469-2.302
		c-1.09-0.127-2.165,0.308-3.302,0.308"/>
	<path d="M12.331,68.901c0.304,0.291,0.568,1.33,0.795,1.832c0.273,0.616,0.613,1.116,1.038,1.668
		c0.771,0.997,2.017,1.779,3.19,2.032c2.797,0.612,5.701,0.444,8.617,0.46c1.463,0.005,2.922-0.362,4.324-0.669
		c1.229-0.273,2.229-0.525,3.325-1.203c2.407-1.491,3.837-3.846,4.493-6.446c0.24-0.943,0.336-1.969,0.332-2.996
		c0-1.078,0.467-2.292-0.03-3.301c-0.646-0.064-2.01,1.521-2.467,1.977c-0.769,0.761-1.678,1.385-2.648,1.868
		c-2.497,1.248-5.126,1.456-7.837,1.779c-2.488,0.294-5.22,0.163-7.811,0.172c-2.073,0.008-4.809-1.31-4.461-3.796
		c0.811-0.272,1.567-0.749,2.428-1.068c0.934-0.348,1.897-0.7,2.867-0.953c0.996-0.259,2.011-0.455,2.989-0.674
		c1.135-0.251,2.348-0.517,3.498-0.669c2.337-0.308,4.776,0.139,6.988,0.471c0.509,0.075,1.073,0.271,1.533,0.332
		c0.518,0.069,1.147,0.023,1.632,0.194c0.508,0.175,0.72,0.394,1.325,0.342c0.568-0.05,1.056-0.111,1.639-0.19
		c0.348-0.911-2.711-1.064-3.304-1.271c-1.184-0.412-2.413-0.575-3.658-0.863c-1.365-0.315-2.772-0.338-4.161-0.5
		c-0.673-0.078-1.314-0.244-2.033-0.173c-0.761,0.071-1.399,0.319-2.123,0.465c-2.596,0.521-5.573,1.379-7.989,2.496
		c-1.075,0.496-2.006,1.29-2.492,2.356c-0.534,1.174-0.849,2.845-0.664,4.169c0.146,1.053,0.71,3.343,2.162,3.326"/>
	<path fill="#3B9B2E" d="M15.552,65.43c-0.373-0.041-0.568-0.988-0.146-1.111c0.255-0.071,0.688,0.294,0.872,0.442
		c0.227,0.179,0.599,0.427,0.893,0.282c0.232-0.113,0.285-0.348,0.218-0.588c-0.044-0.15-0.235-0.304-0.182-0.475
		c0.297-0.036,0.338,0.104,0.577,0.2c0.203,0.081,0.457,0.019,0.673,0.038c0.021,0.334,0.276,0.718,0.207,1.057
		c-0.082,0.386-0.396,0.261-0.677,0.308c-0.14,0.334,0.63,0.256,0.769,0.141c0.135-0.114,0.154-0.262,0.338-0.294
		c0.139-0.027,0.423,0.019,0.502,0.142c0.083,0.132-0.008,0.344-0.124,0.43c-0.124,0.09-0.239,0.04-0.389,0.056
		c-0.312,0.033-0.63,0.05-0.96,0.05c-0.627,0-1.288,0.128-1.89-0.046c-0.401-0.12-1.291-0.512-1.023-1.071"/>
	<path fill="#3B9B2E" d="M18.999,65.43c0.142-0.091,0.022-0.463-0.059-0.581c-0.266-0.394-0.688-0.551-0.626-1.097
		c0.038-0.317,0.365-0.727,0.734-0.607c0.268,0.085,0.263,0.581,0.583,0.542c0.261-0.035,0.482-0.524,0.727-0.534
		c0.13-0.001,0.46,0.219,0.58,0.294c0.192,0.123,0.316,0.457,0.537,0.335c0.251-0.138,0.489-0.574,0.535-0.841
		c0.033-0.2-0.065-0.454,0.031-0.631c0.094-0.176,0.453-0.364,0.647-0.33c0.264,0.048,0.144,0.321,0.471,0.232
		c0.157-0.042,0.314-0.123,0.477-0.171c0.204-0.058,0.185-0.067,0.309,0.037c0.175,0.136,0.617,1.133,0.867,0.684
		c0.15-0.273-0.018-0.697,0.203-0.926c0.157-0.162,0.468-0.102,0.681-0.098c0.17,0.006,0.334,0.032,0.479,0.108
		c0.06,0.14-0.113,0.248-0.14,0.376c-0.04,0.202-0.013,0.34,0.195,0.342c0.303,0.001,0.646-0.357,0.577-0.67
		c-0.173-0.084-0.484-0.042-0.616-0.202c-0.165-0.2-0.022-0.484,0.135-0.632c0.258-0.236,1.308-0.894,1.46-0.244
		c0.072,0.298-0.099,0.609,0.094,0.878c0.206,0.286,0.664,0.33,0.831,0.626c0.329,0.582-0.953,0.815-0.772,1.401
		c0.213,0.104,0.313,0.023,0.522-0.054c0.099-0.036,0.295-0.107,0.394-0.078c0.116,0.036,0.177,0.202,0.287,0.251
		c0.264,0.116,0.463-0.217,0.623-0.39c0.162-0.174,0.228-0.315,0.206-0.557c-0.031-0.348-0.147-0.707-0.196-1.059
		c-0.027-0.221-0.174-0.711,0.049-0.874c0.104-0.081,0.492-0.095,0.598-0.014c0.137,0.111,0.082,0.445,0.082,0.599
		c0,0.185-0.053,0.458-0.001,0.63c0.088,0.312,0.358,0.208,0.582,0.288c0.219,0.079,0.392,0.275,0.596,0.392
		c0.322,0.187,1.109,0.438,1.444,0.138c0.131-0.117,0.26-0.45,0.242-0.626c-0.022-0.271-0.334-0.215-0.499-0.405
		c-0.393-0.455,0.342-1.204,0.802-1.062c0.151,0.044,0.254,0.205,0.428,0.255c0.348,0.104,0.356-0.194,0.157-0.437
		c-0.079-0.1-0.339-0.279-0.312-0.436c0.038-0.188,0.529-0.196,0.677-0.134c0.096,0.039,0.142,0.167,0.254,0.186
		c0.139,0.021,0.176-0.075,0.29-0.117c0.225-0.078,0.417-0.004,0.634,0.065c0.187,0.057,0.317,0.104,0.531,0.096
		c0.267-0.006,0.359-0.128,0.434,0.144c0.057,0.196,0.11,0.386,0.159,0.575c0.073,0.259-0.031,0.352-0.274,0.484
		c-0.524,0.287-1.118,0.657-1.486,1.134c-0.309,0.396-0.584,0.672-1.018,0.917c-0.312,0.176-0.603,0.369-0.918,0.548
		c-0.412,0.23-0.872,0.319-1.315,0.486c-0.514,0.194-1.072,0.384-1.613,0.507c-0.957,0.221-1.944,0.253-2.934,0.363
		c-1.133,0.125-2.256,0.252-3.353,0.475c-1.096,0.225-2.287,0.341-3.407,0.34c-0.812-0.001-1.637-0.079-2.419-0.23
		c-0.155-0.033-0.454-0.041-0.582-0.119c-0.192-0.119-0.07-0.194,0.047-0.317c0.199-0.199,0.62-0.524,0.623-0.837"/>
	<path d="M79.191,59.633c0.071,0.266,0,0.744,0,1.074c0,0.801,0,1.6,0,2.4c0,1.541,0,3.084,0,4.625c0,0.791-0.254,1.787,0.632,2.033
		c0.678,0.186,1.456,0.401,2.22,0.313c0.309-0.033,0.877-0.171,1.161-0.34c0.423-0.255,0.312-0.695,0.312-1.137
		c0-1.048,0.11-2.036,0.106-3.084c-0.002-1.188,0.181-2.375,0.212-3.564c0.023-0.894,0.308-1.825,0.195-2.729
		c-0.712-0.089-1.51,0.093-2.224,0.173c-0.843,0.098-1.729,0.023-2.584,0.023c0.062,0,0.12,0,0.182,0"/>
	<path fill="#E8A103" d="M82.469,59.383c0.099,0.035,0.165-1.207,0.209-1.464c0.265-1.508,0.512-3.016,0.657-4.542
		c0.237-2.412,1.015-4.791,1.26-7.167c0.238-0.032,0.532,0.044,0.73-0.083c0.039,1.093-0.434,2.283-0.646,3.353
		c-0.25,1.311-0.465,2.703-0.604,4.016c-0.114,1.087-0.36,2.206-0.557,3.241c-0.106,0.553-0.173,1.051-0.309,1.591
		c-0.064,0.26-0.275,1.284-0.319,1.264"/>
	<path fill="#E8A103" d="M80.358,59.061c0.026,0.023,0.057,0.046,0.088,0.069c0.21-1.418-0.055-2.946,0.129-4.369
		c0.093-0.734-0.079-1.509-0.004-2.246c0.057-0.571,0.305-1.088,0.33-1.668c0.158-0.033,0.336-0.033,0.495,0
		c0.187,1.421,0.017,2.976,0.017,4.415c0,1.476,0.062,2.974-0.122,4.415c-0.239,0.027-0.643,0.116-0.724-0.194"/>
	<path fill="#E8A103" d="M81.998,58.941c0.001-1.689-0.315-3.36-0.315-5.063c0-0.649,0.083-1.36,0.004-2.006
		c-0.07-0.576-0.189-1.18-0.09-1.783c0.132,0.1,0.341,0.052,0.491,0.004c0.032,0.799,0.158,1.604,0.223,2.413
		c0.083,1.028,0.202,2.072,0.325,3.082c0.094,0.773-0.005,1.63-0.005,2.406c0,0.337,0.055,0.723,0,1.053
		c-0.05,0.29-0.368,0.723-0.633,0.317"/>
	<path fill="#E8A103" d="M80.633,59.508c0-2.162-0.319-4.292-0.319-6.442c0-0.848-0.036-1.705-0.125-2.55
		c-0.089-0.826-0.101-1.664-0.205-2.494c-0.391-0.126-0.377,1.196-0.409,1.48c-0.126,1.11-0.005,2.336,0.084,3.443
		c0.087,1.076,0.085,2.164,0.104,3.242c0.011,0.644,0.021,1.287,0.005,1.933c-0.005,0.45-0.167,1.107,0.09,1.501"/>
	<path fill="#3B9B2E" d="M88.015,69.68c0.107,0,0.112,0.001,0.014,0.006c-0.498-0.404-1.231-0.869-1.428-1.574
		c-0.219-0.803,0.28-1.296,0.787-1.829c0.813-0.856,3.104-1.996,4.132-1.022c0.484,0.463,0.669,1.324,0.786,1.931
		c0.133,0.674-0.09,1.424-0.525,1.932c-0.671,0.78-1.523,0.624-2.428,0.718c-0.574,0.058-2.217,0.365-1.991-0.686"/>
	<path fill="#FF0000" d="M88.146,69.549c0.106,0.014,0.111,0.05,0.014,0.108c-0.729-0.148-0.764-1.481-0.827-2.043
		c-0.104-0.894,0.294-1.299,1.201-1.604c0.756-0.253,1.797-0.49,2.498,0.099c0.582,0.492,1.241,1.605,1.045,2.397
		c-0.33,1.335-3.116,1.938-3.701,0.546c-0.357-0.849-0.041-1.599,0.818-1.958c1.093-0.459,1.715-0.048,1.55,1.123
		c0.004-0.002-0.277,0.157-0.222,0.134c0.689-0.386-0.65-0.887-1.066-0.772c-0.714,0.2-0.729,1.08-0.131,1.418
		c0.58,0.326,1.396,0.457,1.838-0.102c0.364-0.471,0.416-1.512,0.03-2c-0.677-0.858-2.821-0.662-3.473,0.131
		c-0.839,1.017,0.357,2.819,1.565,2.652c-0.356,0.001-1.35,0.204-1.271-0.393"/>
	<path fill="#3B9B2E" d="M96.987,71.458c-0.106,0-0.112,0.003-0.013,0.005c0.507-0.403,1.255-0.87,1.45-1.574
		c0.224-0.801-0.282-1.297-0.799-1.829c-0.826-0.857-3.155-1.995-4.2-1.022c-0.492,0.463-0.68,1.322-0.799,1.931
		c-0.136,0.675,0.093,1.424,0.533,1.934c0.684,0.778,1.55,0.623,2.467,0.716c0.585,0.056,2.256,0.366,2.026-0.686"/>
	<path fill="#FF0000" d="M96.857,71.327c-0.111,0.013-0.114,0.05-0.02,0.105c0.741-0.144,0.778-1.481,0.846-2.041
		c0.104-0.891-0.3-1.299-1.222-1.604c-0.769-0.253-1.826-0.49-2.54,0.098c-0.593,0.492-1.263,1.605-1.062,2.398
		c0.336,1.335,3.172,1.937,3.759,0.548c0.364-0.855,0.044-1.601-0.829-1.96c-1.113-0.457-1.741-0.048-1.573,1.122
		c-0.007-0.001,0.282,0.158,0.224,0.135c-0.703-0.386,0.662-0.888,1.085-0.773c0.726,0.202,0.741,1.08,0.132,1.416
		c-0.588,0.329-1.42,0.459-1.865-0.102c-0.374-0.471-0.422-1.511-0.035-1.997c0.688-0.859,2.868-0.661,3.532,0.128
		c0.853,1.019-0.362,2.821-1.591,2.656c0.362,0,1.371,0.201,1.29-0.393"/>
	<path fill="#E8A103" d="M107.283,60.646c-0.769-0.007-2.014-0.938-1.641-1.847c0.099-0.244,0.591-0.623,0.811-0.79
		c0.42-0.324,0.814-0.272,1.31-0.341c-0.072-0.26-0.354-0.148-0.531-0.281c-0.149-0.105-0.21-0.304-0.284-0.454
		c0.335,0.01,0.598-0.19,0.958-0.149c0.31,0.032,0.646,0.032,0.957,0.082c-0.089,0.171-0.289,0.221-0.14,0.454
		c-0.152,0.111-0.327,0.255-0.446,0.376c0.192,0.156,0.365,0.306,0.542,0.467c0.179,0.157,0.439,0.264,0.588,0.428
		c0.335,0.366,0.354,1.351,0.015,1.695c-0.316,0.325-0.978,0.646-1.395,0.69c-0.383,0.042-1.083-0.075-1.339-0.401
		c0.058,0.003,0.126-0.008,0.183,0.003"/>
	<path fill="#E8A103" d="M97.278,59.127c-0.771-0.007-2.015-0.937-1.642-1.846c0.099-0.244,0.593-0.623,0.812-0.79
		c0.419-0.326,0.812-0.271,1.308-0.342c-0.073-0.26-0.354-0.15-0.531-0.281c-0.148-0.107-0.211-0.304-0.286-0.451
		c0.339,0.005,0.6-0.192,0.96-0.152c0.312,0.033,0.645,0.033,0.961,0.081c-0.091,0.173-0.293,0.225-0.143,0.457
		c-0.15,0.11-0.33,0.254-0.445,0.375c0.189,0.156,0.364,0.306,0.541,0.467c0.177,0.158,0.438,0.263,0.589,0.427
		c0.331,0.369,0.349,1.355,0.013,1.699c-0.313,0.321-0.977,0.644-1.394,0.688c-0.381,0.042-1.083-0.076-1.34-0.402
		c0.062,0.004,0.126-0.007,0.184,0.004"/>
	<path fill="#E8A103" d="M101.143,58.714c0.084-0.049-0.435-0.225-0.532-0.257c-0.328-0.11-0.63-0.229-0.917-0.428
		c-0.407-0.289-0.676-0.825-0.688-1.314c-0.013-0.402,0.335-0.911,0.688-1.107c0.442-0.245,0.94-0.213,1.444-0.286
		c-0.057-0.136-0.253-0.292-0.403-0.349c0.238-0.298,0.331-0.233,0.685-0.189c0.313,0.04,0.644-0.029,0.957,0.01
		c0.044,0.208-0.247,0.374-0.318,0.559c-0.111,0.28,0.096,0.23,0.342,0.375c0.477,0.279,0.728,0.73,0.745,1.262
		c0.02,0.623-0.104,1.061-0.691,1.367c-0.492,0.255-0.987,0.146-1.511,0.235c0.108,0.174,0.446-0.105,0.527-0.24
		c0.13-0.208,0.124-0.544,0.155-0.788c0.063,0.261-0.306,0.605-0.482,0.778c-0.17-0.208-0.3-0.578-0.275-0.848
		c0,0.261,0.021,0.54-0.012,0.797c-0.297,0.069-0.466-0.479-0.662-0.607c-0.062,0.179,0.092,0.461,0.207,0.598
		c0.223,0.259,0.512,0.175,0.742,0.363"/>
	<path fill="#E8A103" d="M117.289,59.061c0.086-0.052-0.434-0.225-0.534-0.256c-0.33-0.109-0.629-0.23-0.912-0.432
		c-0.409-0.288-0.678-0.82-0.693-1.312c-0.012-0.401,0.338-0.911,0.689-1.106c0.441-0.246,0.943-0.215,1.447-0.287
		c-0.058-0.136-0.251-0.292-0.403-0.35c0.235-0.298,0.326-0.232,0.681-0.188c0.318,0.038,0.646-0.033,0.96,0.009
		c0.042,0.208-0.246,0.373-0.319,0.562c-0.113,0.276,0.097,0.226,0.341,0.372c0.476,0.279,0.731,0.73,0.745,1.263
		c0.02,0.623-0.102,1.061-0.69,1.366c-0.494,0.256-0.987,0.144-1.513,0.235c0.11,0.175,0.445-0.104,0.53-0.238
		c0.129-0.208,0.122-0.546,0.155-0.79c0.062,0.262-0.311,0.607-0.483,0.78c-0.166-0.209-0.302-0.578-0.276-0.849
		c0,0.264,0.023,0.542-0.01,0.798c-0.298,0.071-0.467-0.478-0.664-0.605c-0.062,0.179,0.095,0.461,0.21,0.596
		c0.223,0.261,0.508,0.177,0.74,0.365"/>
	<path fill="#E8A103" d="M101.695,59.612c0.234,0.077,0.441,0.3,0.69,0.399c0.278,0.112,0.531,0.154,0.832,0.154
		c0.511-0.004,1.072-0.004,1.395-0.48c0.262-0.387,0.284-0.948-0.016-1.314c-0.292-0.357-0.822-0.55-1.102-0.884
		c0.222-0.002,0.803-0.271,0.884-0.484c-0.29-0.002-0.545-0.271-0.823-0.219c-0.199,0.035-0.117,0.159-0.254,0.227
		c-0.141,0.071-0.346,0.024-0.504-0.018c-0.092-0.025-0.257-0.146-0.345-0.148c-0.085,0-0.085,0.121-0.151,0.131
		c-0.049,0.01-0.233-0.014-0.267,0.01c-0.355,0.267,0.235,0.342,0.408,0.432c-0.046,0.36-0.025,0.41,0.4,0.398
		c-0.41,0.313-0.991,0.207-1.234,0.745c-0.201,0.44-0.19,1.368,0.57,1.191"/>
	<path fill="#E8A103" d="M112.391,60.371c0.233,0.075,0.446,0.299,0.69,0.399c0.281,0.111,0.531,0.154,0.831,0.152
		c0.515-0.001,1.071-0.001,1.395-0.478c0.262-0.388,0.289-0.945-0.016-1.314c-0.291-0.357-0.818-0.549-1.101-0.884
		c0.221-0.001,0.802-0.271,0.884-0.482c-0.291-0.004-0.545-0.273-0.82-0.223c-0.204,0.035-0.119,0.162-0.256,0.23
		c-0.14,0.07-0.345,0.021-0.505-0.021c-0.092-0.025-0.256-0.145-0.342-0.146c-0.089-0.002-0.089,0.119-0.152,0.131
		c-0.048,0.007-0.233-0.014-0.267,0.011c-0.358,0.265,0.234,0.342,0.407,0.43c-0.046,0.359-0.027,0.409,0.398,0.398
		c-0.407,0.313-0.985,0.208-1.232,0.744c-0.202,0.444-0.189,1.367,0.569,1.189"/>
	<path fill="#E8A103" d="M106.73,58.576c-0.186,0.294-1.052-0.183-1.246-0.329c-0.334-0.255-0.55-0.585-0.684-0.986
		c-0.098-0.286-0.149-0.791,0.015-1.083c0.238-0.426,0.669-0.517,1.083-0.581c-0.052-0.136-0.256-0.295-0.385-0.403
		c0.51-0.136,0.939,0.046,1.413-0.13c-0.009,0.054,0.026,0.134,0.022,0.189c0.211,0.076,0.307-0.195,0.532-0.113
		c0.024,0.302-0.591,0.486-0.744,0.728c0.173,0.052,0.262,0.187,0.396,0.296c0.101,0.088,0.282,0.154,0.376,0.251
		c0.251,0.271,0.297,0.725,0.328,1.056c0.036,0.396-0.057,0.75-0.413,0.952c-0.23,0.131-0.852,0.449-1.038,0.151"/>
	<path fill="#E8A103" d="M110.733,60.993c-0.186,0.291-1.056-0.187-1.245-0.33c-0.339-0.256-0.549-0.586-0.688-0.986
		c-0.096-0.286-0.149-0.792,0.016-1.086c0.24-0.426,0.668-0.514,1.084-0.578c-0.055-0.138-0.258-0.295-0.382-0.404
		c0.508-0.137,0.933,0.046,1.409-0.13c-0.009,0.054,0.028,0.134,0.022,0.19c0.21,0.073,0.308-0.196,0.533-0.113
		c0.022,0.297-0.59,0.486-0.741,0.73c0.173,0.05,0.257,0.183,0.39,0.294c0.104,0.088,0.288,0.15,0.379,0.251
		c0.254,0.271,0.295,0.725,0.329,1.057c0.036,0.396-0.057,0.748-0.418,0.949c-0.226,0.128-0.846,0.449-1.034,0.155"/>
	<path fill="#E8A103" d="M112.389,58.647c-0.184,0.291-1.055-0.185-1.246-0.33c-0.336-0.255-0.549-0.584-0.686-0.986
		c-0.097-0.286-0.146-0.791,0.018-1.084c0.238-0.425,0.667-0.516,1.081-0.579c-0.054-0.136-0.257-0.295-0.384-0.404
		c0.512-0.134,0.938,0.046,1.411-0.13c-0.009,0.054,0.03,0.134,0.023,0.19c0.21,0.076,0.309-0.195,0.533-0.113
		c0.022,0.3-0.59,0.486-0.741,0.73c0.173,0.05,0.259,0.181,0.391,0.294c0.101,0.086,0.284,0.151,0.376,0.252
		c0.255,0.273,0.298,0.724,0.328,1.058c0.038,0.394-0.055,0.748-0.413,0.949c-0.232,0.129-0.848,0.448-1.035,0.154"/>
	<path fill="#245977" d="M157.349,314.03c0.191,0.738,0.813,1.387,1.174,2.072c0.458,0.866,0.832,1.774,1.17,2.695
		c0.663,1.823,1.152,3.703,1.721,5.557c0.8,2.593,1.146,5.215,1.726,7.836c0.834,3.767,0.328,7.745,0.642,11.595
		c0.151,1.834,0.68,3.539,0.658,5.387c-0.013,1.231,0.579,2.389,1.163,3.42c0.775,1.367,1.436,2.887,1.863,4.401
		c0.419,1.487,0.425,3.049,0.425,4.687c0,3.664,1.043,6.955,2.146,10.403c1.046,3.261,1.823,6.511,2.714,9.827
		c0.903,3.381,1.664,6.805,2.725,10.141c1.011,3.173,2.286,6.253,3.274,9.431c0.415,1.334,0.803,2.699,1.343,3.979
		c0.365,0.864,0.57,1.831,1.509,2.262c0.839,0.385,1.685,0.619,2.604,0.615c0.412,0,0.823-0.088,1.153,0.17
		c0.361,0.283,0.431,1.044,0.121,1.43c-0.375,0.465-2.446-0.02-2.119,0.84c0.451,0.02,2.175,0.018,2.407,0.484
		c0.187,0.378-0.182,0.843-0.554,0.849c-0.255,0.006-0.694-0.399-1.009-0.446c-0.914-0.138-1.445,0.699-0.434,1.012
		c0.334,0.104,1.024,0.236,1.168,0.576c0.158,0.37-0.127,0.753-0.438,0.915c-0.48,0.25-0.843,0.01-1.31-0.046
		c-0.384-0.049-0.777,0.052-1.158-0.027c-0.303-0.062-0.872-0.58-1.168-0.38c-0.548,0.375,0.171,0.654,0.445,0.738
		c0.562,0.171,1.522,0.439,1.729,1.075c0.938,2.914-8.417,0.219-9.66-1.562c-1.376-1.967-1.15-4.67-2.477-6.704
		c-1.021-1.56-3.02-2.324-2.938-4.437c0.07-1.76,0.838-3.591,1.229-5.282c0.211-0.917-0.142-2.017-0.436-2.808
		c-0.345-0.925-0.905-1.645-1.464-2.368c-0.45-0.586-0.988-1.128-1.403-1.74c-0.789-1.167-1.429-2.531-1.985-3.819
		c-0.976-2.245-2.392-4.012-3.426-6.256c-1.093-2.367-1.816-5.292-2.562-7.927c-0.673-2.382-1.305-5.14-1.648-7.758
		c-0.522-3.938-0.986-7.746-2.178-11.28c-1.146-3.385-2.354-6.668-3.379-10.151c-1.067-3.636-2.853-7.175-4.118-10.755
		c-2.021-5.71-4.828-11.185-6.909-16.911c-0.436-1.188-1.119-2.863-1.723-4.114c-0.482-0.991-0.78-2.885-1.638-3.562
		c2.881-1.215,6.092-1.586,8.989-2.767c2.767-1.128,4.896-2.674,8.091-3.034c0.286-0.033,1.918,5.123,2.093,5.635
		C156.19,309.936,156.816,311.972,157.349,314.03z"/>
	<path fill="#E8A103" d="M174.098,63.376c0.049,0.044,0.096,0.088,0.146,0.132c-0.483-1.059-1.821-1.614-2.632-2.396
		c-1.035-1.003-2.095-2.368-2.463-3.807c0.315,0.458,0.884,0.814,1.438,0.594c0.94,2.28,2.609,3.157,4.399,4.598
		c0.283-0.817-0.6-1.644-0.957-2.312c-0.455-0.867-0.549-1.962-1.053-2.794c0.227,0.463,0.784,0.78,1.277,0.796
		c-0.077,0.509,0.21,1.054,0.413,1.527c0.354,0.837,0.612,2.073,1.218,2.737c0.2-0.703,0.085-1.291,0.128-1.982
		c0.056-0.861,0.339-1.71,0.369-2.57c0.054-1.593-0.066-3.394,0.369-4.965c0.271,0.075,0.646,0.063,0.876-0.074
		c0.011,0.658-0.228,1.308-0.249,1.964c-0.027,0.89,0.04,1.8-0.007,2.699c-0.077,1.362-0.151,2.662-0.176,4.021
		c0.42,0.215,0.978-0.075,1.44,0.02c0.251-0.919,0.306-1.947,0.44-2.898c0.107-0.732,0.061-2.531,0.578-3.038
		c0.01,0.315,0.179,0.525,0.49,0.602c0.003,1.829-0.534,3.641-0.534,5.478c0.771,0.11,1.681-1.109,2.198-1.583
		c0.677-0.613,1.331-1.608,2.267-1.278c-0.028,1.921-1.439,2.715-2.121,4.312c-0.611,0.004-1.23-0.204-1.849-0.19
		c-0.819,0.018-1.646,0.23-2.45,0.313c-0.602,0.062-3.188,0.824-3.401,0.302"/>
	<path fill="#3B9B2E" d="M178.494,66.625c0.151,0.021,0.164,0.02,0.03-0.003c-1.435,0.309-4.383,0.722-4.977-1.034
		c-0.116-0.344-0.122-0.793-0.157-1.191c-0.083-0.882-0.063-0.611,0.685-0.837c1.521-0.456-0.6-1.149-0.025-2.217
		c1.093-0.338,1.043,0.972,1.886,0.774c0.112-0.419,0.037-1.605,0.422-1.837c0.65-0.39,0.732,0.956,1.38,0.976
		c0.228-0.774,0.076-1.557,0.665-2.166c0.875-0.903,1.048,0.021,1.02,0.789c-0.022,0.752-0.459,1.814,0.735,1.71
		c0.646-0.056,1.229-0.79,1.787-0.997c-0.068,0.477,0.188,0.795,0.041,1.301c-0.137,0.474-0.647,0.597-0.522,1.203
		c0.57,0.29,1.1-0.333,1.639-0.083c-0.051,1.98-2.519,3.703-4.395,3.456"/>
	<path d="M185.571,60.345c0.33,0.704,0.072,1.472,0.286,2.254c0.13,0.479,0.341,0.882,0.46,1.366
		c0.078,0.306,0.027,0.98,0.281,1.217c0.796,0.757,3.915-0.682,4.946-0.806c0.756-0.09,1.165-0.019,1.26-0.941
		c0.057-0.575-0.228-1.299-0.34-1.914c-0.123-0.678-0.165-1.253-0.229-1.916c-0.06-0.582-0.415-1.269-0.334-1.873
		c-0.814-0.345-1.445-1.138-2.236-1.434c-1.142-0.426-2.26,0.162-3.281-0.113c-0.19,0.689-0.237,1.456-0.34,2.169
		c-0.053,0.355-0.154,0.743-0.155,1.099c-0.006,0.375,0.138,0.769,0.021,1.126"/>
	<path fill="#80BC22" d="M186.379,63.829c-0.034,0.132,0.018,0.212,0.149,0.231c0.796-0.471,2.368-0.442,3.248-0.501
		c0.949-0.063,2.246-0.444,3.217-0.313c-0.077-0.346-0.111-0.728-0.229-1.085c-1.309-0.373-2.396,0.413-3.587,0.575
		c-0.684,0.092-1.475,0.288-2.11,0.261c-0.898-0.033-1.364-0.128-1.043,0.936c0.099,0.071,0.208,0.098,0.332,0.083"/>
	<path fill="#80BC22" d="M186.095,61.916c-0.038,0.134,0.017,0.213,0.146,0.233c0.795-0.471,2.367-0.442,3.247-0.502
		c0.953-0.063,2.247-0.443,3.218-0.312c-0.074-0.346-0.112-0.727-0.23-1.086c-1.305-0.373-2.392,0.416-3.586,0.573
		c-0.683,0.095-1.475,0.288-2.108,0.266c-0.901-0.037-1.363-0.131-1.044,0.937c0.101,0.07,0.208,0.095,0.331,0.077"/>
	<path fill="#80BC22" d="M185.858,59.637c-0.031,0.136,0.018,0.211,0.15,0.234c0.793-0.473,2.366-0.443,3.246-0.502
		c0.952-0.065,2.25-0.447,3.221-0.314c-0.078-0.346-0.116-0.727-0.235-1.088c-1.305-0.369-2.391,0.413-3.587,0.577
		c-0.681,0.092-1.471,0.288-2.108,0.264c-0.899-0.035-1.364-0.128-1.041,0.934c0.095,0.071,0.206,0.098,0.33,0.082"/>
	<path fill="#80BC22" d="M194.449,59.75c0.123-0.015,0.234,0.012,0.334,0.076c-0.107,0.669,0.329,2.023,0.99,2.369
		c0.778,0.405,1.646-0.171,2.349-0.375c0.815-0.237,1.578-0.523,2.364-0.783c0.642-0.213,1.548-0.313,2.108-0.68
		c0.681-0.448,0.409-1.397-0.229-1.955c-0.696-0.605-1.793,0.06-2.517,0.298c-0.941,0.313-1.803,0.364-2.71,0.489
		c-0.618,0.088-1.634,0.747-2.265,0.405c-0.033-0.115-0.029-0.23,0.024-0.344"/>
	<path fill="#FF0000" d="M194.688,59.408c0.043,0.048,0.09,0.092,0.135,0.14c0.103-0.382-0.251-0.403-0.473-0.699
		c-0.28-0.373-0.423-0.588-0.539-1.024c0.557-0.092,1.002,0.611,1.364,0.498c0.741-0.234-0.081-1.21-0.081-1.633
		c0.872-0.205,0.599,1.071,1.305,1.249c1.104,0.279,0.57-1.225,0.832-1.695c0.769-0.004,0.173,1.292,1.165,1.13
		c0.938-0.154,1.021-1.416,1.21-2.094c1.325-0.34,0.389,2.5,1.729,1.199c0.89-0.862,0.787-1.059,1.802-0.111
		c-0.603,0.567-1.991,1.945-0.299,2.189c-0.089,0.344-1.346,0.473-1.733,0.469c-0.872-0.001-1.335,0.019-2.158,0.39
		c-0.605,0.271-1.254,0.697-1.931,0.713c-0.362,0.007-0.741-0.198-1.1-0.175c-0.407,0.023-0.725,0.329-1.123,0.199
		c-0.003-0.211-0.011-0.514,0.074-0.713"/>
	<path d="M17.095,64.928c0.059,0.008,0.152,0.062,0.229,0.114c-0.185-0.046-0.341-0.18-0.504-0.273
		c-0.226-0.129-0.438-0.299-0.652-0.445c-0.309-0.21-0.615-0.409-0.93-0.613c-0.396-0.257-0.831-0.501-1.214-0.778
		c-1.254-0.907-2.697-1.531-4.028-2.308c-0.208-0.121-0.846-0.295-0.602-0.583c0.14-0.169,0.217-0.218,0.436-0.152
		c0.161,0.047,0.329,0.107,0.491,0.192c0.383,0.199,0.742,0.413,1.117,0.614c0.371,0.194,0.697,0.448,1.059,0.655
		c0.5,0.287,0.991,0.584,1.421,0.959c0.409,0.352,0.912,0.6,1.361,0.886c0.417,0.263,0.811,0.53,1.241,0.774
		c0.273,0.153,0.546,0.399,0.85,0.482c-0.001,0.163,0.157,0.387,0.077,0.557c-0.07,0.16-0.335,0.227-0.473,0.121"/>
	<path d="M31.003,62.429c0.104-0.069,0.213-0.25,0.292-0.361c0.304-0.406,0.581-0.846,0.881-1.257
		c0.708-0.962,1.375-1.952,2.086-2.909c0.361-0.489,0.699-1.025,1.088-1.491c0.065-0.083,0.179-0.286,0.278-0.323
		c0.074-0.026,0.312,0.11,0.331,0.202c-0.206,0.158-0.364,0.452-0.517,0.653c-0.237,0.31-0.475,0.642-0.734,0.936
		c-0.287,0.327-0.558,0.677-0.793,1.044c-0.279,0.443-0.493,0.907-0.808,1.331c-0.451,0.609-0.897,1.203-1.29,1.852
		c-0.055,0.099-0.113,0.189-0.176,0.281c-0.04,0.053-0.189,0.299-0.246,0.318c-0.074,0.025-0.169-0.08-0.23-0.117
		c-0.155-0.09-0.158-0.09-0.162-0.281"/>
	<path d="M126.565,255.123c-0.777-1.062-1.836-1.637-2.955-2.151c-2.904-1.329-6.252-1.081-9.525-1.081
		c-2.686,0-7.297,0.782-9.13-1.462c-2.333-2.863,1.562-6.418,4.356-4.487c-1.19-3.494-5.799-2.668-7.398,0.433
		c-1.97,3.806,2.056,7.3,5.496,8.191c6.507,1.677,19.861-3.787,21.62,5.849c-0.008-4.298-6.413-1.212-8.269-0.581
		c-3.048,1.038-5.873,1.969-9.02,3.153c-6.618,2.49-14.365,2.982-21.524,1.779c-2.855-0.478-6.147-1.593-9.125-2.247
		c-3.218-0.71-6.592-1.774-9.814-2.686c-5.958-1.687-13.026-1.795-19.246-0.391c-2.552,0.578-5.426,1.703-6.782,4.146
		c-1.48,2.653-1.6,5.952-3.802,8.345c-2.015,2.187-4.771,3.908-7.876,3.054c-2.043-0.562-5.998-4.041-6.291-6.079
		c0.414,3.297,2.439,5.752,5.104,7.824c2.508,1.953,6.684,1.208,8.944-0.588c2.669-2.12,3.257-5.82,4.713-8.641
		c0.701-1.356,1.521-3.06,2.831-3.936c3.218-2.156,7.715-1.932,11.304-1.552c9.09,0.966,17.87,3.143,26.878,4.8
		c8.033,1.479,15.663,0.558,23.506-1.471c4.793-1.242,9.934-2.979,14.434-4.508c1.373-0.466,2.303-1.578,3.721-1.186
		c1.062,0.29,0.457-0.714,1.264,0.032c1.493,1.376,4.738,4.146,6.498,5.149c1.322,0.759,11.677,3.146,13.228,2.693
		c0.334-0.095,5.106-1.513,5.664-1.826c0.537-0.304,1.036-0.667,1.537-1.029c0.501-0.355,0.868-0.809,1.284-1.252
		c0.199-0.213,0.35-0.459,0.545-0.676c0.139-0.156,0.216-0.321,0.349-0.476c0.119,0.065,0.189,0.2,0.293,0.289
		c0.076,0.061,0.645,0.142,0.686,0.231c0.099,0.201-0.467,0.688-0.505,0.909c-0.091,0.529-0.237,1.054-0.474,1.539
		c-1.002,2.054-3.457,2.842-5.241,4.045c-2.674,1.806-5.978,1.762-9.142,1.09c-3.07-0.65-6.455-0.729-9.414-2.071
		c-3.231-1.468-5.528-4.752-6.257-7.886C129.029,260.414,127.358,256.198,126.565,255.123z"/>
	<path d="M142.738,257.087c0.722,0.771-0.308,2.526,1.543,2.133c0.063-0.498,0.132-1.173-0.114-1.596
		c-0.208-0.357-0.798-0.815-1.035-0.338"/>
	<path fill="#E8A103" d="M194.626,54.776c0.319,0.295,1.314,0.115,1.741,0.115c0.54,0,1.08,0,1.62,0c1.249,0,2.662,0.184,3.83-0.257
		c0.862-0.329,2.085-1.193,2.085-2.179c0-1.109-1.337-1.106-2.207-1.282c-1.144-0.23-2.412-0.109-3.587-0.109
		c-1.084,0-2.168,0-3.251,0c-0.971,0-2.053-0.132-3.014,0c-0.504,0.071-2.171,0.311-2.067,1.133c0.05,0.396,0.865,0.88,1.138,1.095
		c0.477,0.373,0.96,0.682,1.507,0.934c0.489,0.225,1.104,0.582,1.621,0.667c0.19,0.03,1.228,0.054,1.164,0.113"/>
	<path fill="#E8A103" d="M206.108,51.528c0.208-0.133,0.151-0.857,0.377-1.165c0.298-0.409,0.677-0.589,1.107-0.833
		c0.916-0.521,2.005-0.646,3.065-0.811c1.355-0.208,2.667-0.482,4.028-0.645c0.646-0.078,1.234,0.032,1.862,0.094
		c0.48,0.048,0.959-0.027,1.383,0.25c1.242,0.805-0.16,1.685-0.785,2.178c-1.082,0.854-2.503,1.091-3.848,1.367
		c-1.245,0.255-2.706,0.722-3.974,0.582c-0.522-0.06-1.087-0.073-1.599-0.208c-0.365-0.099-1.1-0.27-1.396-0.548
		c-0.259-0.248-0.201-0.286-0.111-0.611"/>
	<path fill="#E8A103" d="M211.903,54.543c0.227,0.361,2.591-0.867,2.994-1.032c1.853-0.755,3.696-1.415,5.587-2.069
		c0.676-0.237,1.375-0.438,2.082-0.498c0.299-0.023,1.127-0.117,1.403,0.023c0.796,0.407,0.441,1.608,0.021,2.073
		c-0.632,0.705-1.581,1.093-2.463,1.416c-1.678,0.611-3.387,1.336-5.123,1.707c-0.852,0.182-2.051,0.252-2.881,0.009
		c-0.395-0.115-1.683-0.853-0.822-1.312c0.02-0.071-0.016-0.1-0.103-0.084"/>
	<path fill="#80BC22" d="M192.31,52.341c0.032,0.023,0.062,0.046,0.096,0.073c0-0.631-1.567-0.717-1.813-1.493
		c-0.309-0.973,0.697-0.909,1.224-0.523c0.435,0.319,0.981,0.521,1.073,1.126c0.054,0.36,0.061,0.734-0.23,0.934
		c-0.276,0.19-0.69,0.088-0.585-0.35"/>
	<path fill="#80BC22" d="M196.005,53.442c0.04-0.019,0.078-0.04,0.108-0.058c-0.566-0.269-1.313,1.116-2.118,1.011
		c-1.015-0.133-0.529-1.019,0.044-1.33c0.477-0.257,0.89-0.669,1.475-0.496c0.353,0.103,0.694,0.257,0.75,0.605
		c0.056,0.334-0.215,0.662-0.563,0.378"/>
	<path fill="#80BC22" d="M194.392,51.991c-0.071,0.039-0.046,0.15-0.207,0.136c-0.247,0.684,1.002,1.339,1.353,0.677
		c0.39-0.736-0.991-1.314-1.376-0.696"/>
	<path fill="#80BC22" d="M197.524,51.296c0.247,0.174,0.791,0.153,0.829,0.58c0.027,0.319-0.354,0.567-0.593,0.555
		c-0.951-0.04-0.494-1.002-0.583-1.483"/>
	<path fill="#80BC22" d="M199.845,51.528c0.096,0.075,0.102,0.086,0.02,0.035c-1-0.416-0.617,1.856,0.565,1.333
		c1.073-0.475-0.342-2.179-0.931-1.253"/>
	<path fill="#80BC22" d="M214.92,53.499c0.097,0.078,0.102,0.089,0.016,0.035c-0.996-0.415-0.613,1.854,0.567,1.333
		c1.073-0.477-0.339-2.179-0.929-1.252"/>
	<path fill="#80BC22" d="M197.643,53.384c0.18,0.265,0.007,0.595,0.221,0.819c0.134,0.133,0.646,0.188,0.821,0.115
		c0.883-0.357-0.162-1.252-0.462-0.819"/>
	<path fill="#80BC22" d="M200.656,53.384c0.277,0.333-0.023,0.565,0.556,0.58c0.291,0.008,0.585-0.096,0.7-0.401
		c0.321-0.851-0.843-0.761-1.371-0.759"/>
	<path fill="#80BC22" d="M207.383,49.44c-0.044,0.322-0.329,0.586-0.122,0.911c0.181,0.283,0.577,0.288,0.819,0.141
		c0.853-0.508-0.173-1.301-0.697-0.821"/>
	<path fill="#80BC22" d="M210.279,49.787c-0.245,0.226-0.62,0.173-0.701,0.704c-0.073,0.468,0.132,0.691,0.588,0.687
		c1.03-0.001,1.084-1.401-0.116-1.273"/>
	<path fill="#80BC22" d="M221.185,52.339c-0.251,0.223-0.625,0.176-0.708,0.702c-0.073,0.471,0.137,0.691,0.586,0.688
		c1.032-0.002,1.086-1.4-0.113-1.273"/>
	<path fill="#80BC22" d="M209.585,48.514c-0.973-0.214-0.778,1.075,0.178,1.164c1.172,0.107,1.227-1.33,0.169-1.282"/>
	<path fill="#80BC22" d="M212.369,48.629c-0.2,0.039-0.432-0.162-0.581-0.112c-0.317,0.108-0.377,0.663-0.35,0.926
		c0.059,0.579,0.343,1.07,0.958,1.042c0.511-0.022,0.902-0.501,0.782-1.045c-0.1-0.471-1.006-0.746-1.391-0.348"/>
	<path fill="#80BC22" d="M215.036,48.629c-0.189,0.296-1.05,0.169-1.168,0.805c-0.114,0.626,0.775,0.984,1.282,0.934
		c0.421-0.042,0.639-0.354,1.038-0.467c0.441-0.124,0.756-0.256,1.117-0.572c-0.386-0.452-0.545-0.7-1.113-0.84
		c-0.699-0.175-1.096,0.515-1.736,0.373"/>
	<path fill="#80BC22" d="M216.892,53.732c-0.188,0.294-1.045,0.169-1.165,0.806c-0.114,0.626,0.775,0.981,1.281,0.932
		c0.417-0.042,0.637-0.354,1.036-0.467c0.442-0.123,0.758-0.254,1.122-0.573c-0.389-0.451-0.554-0.699-1.119-0.841
		c-0.697-0.173-1.094,0.519-1.735,0.375"/>
	<path fill="#80BC22" d="M212.6,48.164c-0.029,0.413-0.012,0.678,0.346,0.899c0.411,0.252,0.964,0.252,1.197-0.202
		c0.504-0.987-0.937-1.641-1.543-0.928"/>
	<path fill="#80BC22" d="M221.876,51.063c-0.029,0.416-0.012,0.676,0.346,0.899c0.41,0.255,0.965,0.255,1.197-0.204
		c0.504-0.989-0.935-1.639-1.543-0.926"/>
	<path fill="#80BC22" d="M217.935,52.341c-0.03,0.412-0.016,0.674,0.347,0.894c0.408,0.256,0.963,0.256,1.194-0.2
		c0.506-0.988-0.936-1.641-1.541-0.927"/>
	<path fill="#FF0000" d="M234.733,27.686c-1.235,1.752-4.693-0.644-4.358-2.709c0.316-1.972,2.729-1.875,4.205-2.108
		c-0.263-3.093,4.28-1.443,5.288-0.121c1.387,1.823,1.922,4.195,3.966,5.499c1.191,0.757,5.924,1.912,6.951,0.321
		c1.937-2.992-5.68-2.693-6.648-3.347c-0.711-0.472-1.659-1.745-2.682-1.066c-0.988,0.651-0.534,2.452,0.726,2.269"/>
	<path fill="#80BC22" d="M234.946,27.897c0.644-1.81,3.815-5.25,5.836-4.654c-0.254,2.175,2.129,1.395,3.529,1.572
		c0.894,4.477-9.236,4.581-8.579,1.902"/>
	<path d="M239.02,60.225c-0.078,0.127-0.664,0.054-0.819,0.054c-0.355,0-0.671-0.056-1.011-0.096
		c-0.318-0.039-0.649-0.052-0.968-0.117c-0.236-0.048-0.408-0.167-0.632-0.227c-0.132-0.896,0.169-1.791,0.405-2.625
		c0.213-0.748,0.283-1.554,0.618-2.246c0.052-0.107,0.119-0.349,0.218-0.43c0.124-0.106,0.307-0.064,0.47-0.064
		c0.436,0,0.86,0.021,1.286,0.052c0.976,0.071,1.949,0.066,2.898,0.226c0.112,0.244,0.115,0.57,0.115,0.845
		c-0.003,0.459,0.02,0.943,0.064,1.401c0.072,0.736,0.2,1.472,0.204,2.208c0,0.336-0.041,0.494-0.339,0.684
		c-0.265,0.168-0.622,0.284-0.937,0.348c-0.393,0.08-0.749,0.151-1.148,0.149c-0.297-0.001-0.627,0.139-0.909,0"/>
	<path fill="#80BC22" d="M238.55,52.917c-0.1,0.563-0.318,1.188-0.189,1.754c0.04,0.154,0.241,0.899,0.504,0.838
		c0.162-0.041,0.143-0.5,0.158-0.611c0.055-0.394,0.105-0.789,0.166-1.183c0.112-0.773,0.241-1.543,0.406-2.311
		c0.081-0.362,0.195-0.72,0.286-1.083c0.052-0.227,0.09-0.538,0.228-0.727c0.116-0.17,0.409-0.278,0.576-0.402
		c0.168-0.127,0.549-0.342,0.639-0.515c-0.213,0.117-0.76,0.246-1.006,0.196c0.049-0.194,0.221-0.406,0.327-0.571
		c0.101-0.156,0.198-0.382,0.344-0.501c-0.165,0.123-0.279,0.238-0.452,0.338c-0.157,0.092-0.411,0.248-0.499,0.403
		c0.019-0.401-0.009-0.801,0.005-1.201c-0.174,0.234-0.267,0.597-0.378,0.877c-0.229-0.305-0.297-0.774-0.525-1.054
		c-0.056,0.326,0.051,0.697,0.106,1.021c0.048,0.24,0.215,0.578,0.208,0.807c-0.007,0.175-0.132,0.448-0.178,0.63
		c-0.065,0.277-0.147,0.546-0.198,0.827C238.916,51.276,238.694,52.083,238.55,52.917z"/>
	<path fill="#80BC22" d="M240.255,55.225c0.058,0.021,0.08-0.257,0.099-0.365c0.025-0.208,0.071-0.406,0.105-0.617
		c0.089-0.523,0.178-1.042,0.28-1.565c0.062-0.309,0.108-0.566,0.108-0.895c0-0.213-0.085-0.674,0.052-0.837
		c0.141,0.128,0.255,0.269,0.392,0.4c0.154-0.112,0.329-0.394,0.569-0.306c-0.006,0.156,0.053,0.43,0.124,0.572
		c0.323-0.012,0.876,0.321,0.596,0.669c-0.284,0.355-0.752-0.075-0.884,0.459c-0.221,0.878-0.441,1.853-0.646,2.746
		c-0.295-0.005-0.502,0.281-0.741-0.046"/>
	<path fill="#80BC22" d="M237.301,54.956c0.008,0.045,0.015,0.047,0.027,0.008c-0.096-0.25-0.105-0.604-0.139-0.873
		c-0.038-0.284-0.027-0.567-0.062-0.856c-0.071-0.562-0.215-1.186-0.143-1.764c0.089-0.028,0.207,0.088,0.262,0.154
		c0.107,0.127,0.081,0.137,0.104,0.325c0.025,0.217,0.069,0.54,0.176,0.741c0.205-0.077,0.096-0.911,0.096-1.122
		c0-0.413,0.01-0.821,0.062-1.226c0.115-0.016,0.242-0.016,0.361,0c0.107,0.849-0.103,1.72-0.103,2.562
		c0.003,0.75,0.087,1.569-0.009,2.312c-0.135,0.019-0.3,0.032-0.424-0.029c-0.126-0.066-0.162-0.204-0.318-0.231"/>
	<path d="M245.732,59.986c0.196,0.105,0.423,0.187,0.663,0.229c0.436,0.075,0.876,0.175,1.315,0.239
		c0.837,0.121,1.803,0.375,2.644,0.127c0.111-0.033,0.276-0.07,0.373-0.141c0.161-0.123,0.119-0.114,0.115-0.298
		c-0.013-0.342-0.047-0.693-0.097-1.032c-0.096-0.64-0.237-1.284-0.365-1.925c-0.052-0.249-0.082-0.498-0.111-0.748
		c-0.011-0.098-0.044-0.196-0.052-0.288c-0.003-0.062,0.038-0.284,0.018-0.323c-0.108-0.164-0.365-0.041-0.538-0.034
		c-0.243,0.007-0.504,0.022-0.755,0.026c-0.743,0.006-1.519-0.081-2.257,0.029c-0.205,0.027-0.406,0.125-0.608,0.163
		c-0.189,0.035-0.369,0.01-0.545,0.048c-0.098,0.152-0.023,0.588-0.03,0.782c-0.017,0.39-0.098,0.771-0.135,1.152
		c-0.058,0.551-0.116,1.428,0.172,1.924c0.103-0.035,0.193-0.105,0.258-0.19"/>
	<path fill="#80BC22" d="M246.111,55.921c0.013,0.018,0.017,0.036,0.022,0.051c-0.112-0.003-0.224-0.09-0.333-0.13
		c-0.149-0.056-0.319-0.083-0.472-0.122c-0.26-0.065-0.512-0.211-0.755-0.259c0.025-0.376,0.273-0.286,0.527-0.146
		c0.086,0.046,0.246,0.195,0.353,0.152c0.089-0.035,0.119-0.205,0.182-0.277c0.193-0.227,0.414-0.034,0.648,0.058
		c0.293,0.115,0.395-0.056,0.603-0.238c0.086-0.071,0.116-0.142,0.232-0.147c0.175-0.01,0.153,0.126,0.281,0.159
		c0.331,0.086,0.317-0.48,0.626-0.486c0.128-0.004,0.219,0.207,0.318,0.285c0.161,0.126,0.169,0.125,0.381,0
		c0.308-0.177,0.503-0.345,0.707,0.009c0.177-0.215,0.659-0.347,0.925-0.315c0.253,0.029,0.489,0.157,0.716,0.244
		c0.112,0.041,0.326,0.083,0.406,0.166c0.062,0.071,0.17,0.323,0.104,0.413c-0.141,0.175-0.491-0.014-0.635,0.152
		c0.112,0.125,0.183,0.498,0.052,0.642c-0.145,0.167-0.443-0.005-0.581-0.109c-0.288-0.218-0.365-0.281-0.729-0.191
		c-0.224,0.054-0.424,0.12-0.643,0.127c-0.263,0.006-0.498-0.073-0.768-0.046c-0.281,0.029-0.586,0.037-0.85,0.071
		c-0.212,0.027-0.443,0.079-0.652,0.1c-0.146,0.014-0.566,0.031-0.678-0.073C246.102,55.982,246.108,55.951,246.111,55.921"/>
	<path fill="#FF0000" d="M245.543,55.333c0.043,0.003,0.054,0.019,0.037,0.05c-0.652-0.006-0.603-0.857-0.118-1.083
		c0.504-0.24,1.076,0.397,0.835,0.883c-0.349-0.042-0.603-0.227-0.728,0.206C245.539,55.389,245.525,55.369,245.543,55.333"/>
	<path fill="#FF0000" d="M247.606,54.864c-0.244-0.052-0.312-0.876,0.043-0.978c0.187-0.056,0.497,0.125,0.6,0.24
		c0.203,0.219,0.236,0.44,0.135,0.708c-0.223,0.027-0.148-0.258-0.304-0.298c-0.131-0.035-0.357,0.246-0.38,0.349
		c-0.035-0.003-0.043-0.022-0.027-0.059"/>
	<path fill="#FF0000" d="M249.65,54.67c-0.008,0.041-0.008,0.046,0,0.008c-0.008-0.321-0.173-0.676,0.299-0.724
		c0.215-0.021,0.701,0.138,0.601,0.436c-0.125-0.019-0.322,0.042-0.437,0.079c-0.14,0.039-0.315,0.176-0.446,0.15"/>
	<g>
		<path d="M254.467,55.456c0.122,0.165,0.13,0.529,0.17,0.734c0.118,0.581,0.261,1.161,0.37,1.739
			c0.086,0.463,0.165,0.93,0.269,1.389c0.037,0.173,0.04,0.386,0.116,0.536c0.2,0.383,0.46,0.345,0.846,0.278
			c0.777-0.128,1.6-0.071,2.383-0.15c0.427-0.042,0.854-0.084,1.281-0.133c0.198-0.021,0.281-0.028,0.373-0.203
			c0.067-0.135,0.07-0.346,0.104-0.507c0.078-0.369,0.153-0.74,0.216-1.11c0.132-0.758,0.251-1.514,0.392-2.271
			c0.062-0.352,0.09-0.706,0.132-1.055c0.019-0.136,0.104-0.521,0.062-0.635c-0.142-0.05-0.334,0.086-0.464,0.138
			c-0.36,0.145-0.689,0.212-1.073,0.24c-0.838,0.06-1.662,0.221-2.486,0.366c-0.565,0.099-1.19,0.069-1.725,0.267
			c-0.173,0.067-0.311,0.124-0.483,0.16c-0.098,0.023-0.285,0.035-0.355,0.115c0.095,0,0.186-0.039,0.251-0.111"/>
		<path fill="#80BC22" d="M255.005,55.133c0.079,0.021-0.027-0.352-0.066-0.472c-0.107-0.325-0.227-0.669-0.362-0.994
			c-0.21-0.498-0.627-0.968-0.763-1.484c-0.369-0.051-0.792,0.076-0.845-0.417c0.118,0.041,0.172,0.159,0.269,0.23
			c-0.078-0.142-0.278-0.334-0.216-0.511c0.127-0.043,0.219,0.06,0.312,0.133c-0.081-0.096-0.123-0.229-0.15-0.354
			c0.208,0.023,0.232,0.233,0.371,0.354c-0.008-0.202-0.018-0.419,0.007-0.621c0.128,0.017,0.222,0.124,0.262,0.248
			c-0.024-0.145,0.014-0.369,0.206-0.3c0.022,0.117,0.077,0.232,0.061,0.355c0.033-0.125,0.059-0.283,0.204-0.306
			c0.067,0.089,0.077,0.21,0.073,0.312c0.123,0.023,0.266-0.169,0.361-0.05c0.078,0.098-0.054,0.29-0.132,0.334
			c0.056-0.062,0.067-0.035,0.129-0.053c0.119,0.282-0.315,0.387-0.508,0.365c0.13,0.081,0.072,0.198,0.088,0.326
			c0.016,0.136,0.055,0.246,0.108,0.381c0.108,0.263,0.244,0.524,0.334,0.802c0.1,0.319,0.201,0.644,0.245,0.978
			c0.02,0.164,0.037,0.315,0.066,0.473c0.022,0.125,0.074,0.298,0.062,0.421c0.102,0.011,0.207,0.011,0.305,0
			c0.018-0.032,0.018-0.064,0.007-0.098"/>
		<path fill="#80BC22" d="M257.476,54.649c0.068,0.025-0.054-0.644-0.062-0.799c-0.146,0.006-0.623-0.018-0.734-0.123
			c-0.208-0.198,0.089-0.726,0.304-0.44c0.008-0.026,0.015-0.053,0.019-0.078c0.101-0.012,0.173,0.065,0.253,0.13
			c-0.029-0.25,0.297-0.359,0.287-0.094c0.116-0.113,0.245-0.004,0.197,0.152c0.031-0.095,0.125-0.121,0.213-0.085
			c-0.003,0.039,0.022,0.1,0.014,0.137c0.116-0.063,0.228-0.121,0.362-0.081c0.012,0.096,0.008,0.194,0.003,0.294
			c0.044-0.028,0.068-0.013,0.105-0.025c0.067,0.195-0.382,0.291-0.521,0.323c-0.021,0.198-0.073,0.626,0.037,0.79
			c-0.121-0.084-0.348,0.016-0.419-0.1"/>
		<path fill="#80BC22" d="M259.949,54.326c0.017,0.011,0.032,0.025,0.047,0.034c0.058-0.388,0.021-0.799,0.077-1.193
			c0.034-0.263,0.092-0.524,0.146-0.776c0.033-0.142,0.011-0.357,0.101-0.471c-0.246-0.162-0.303-0.277-0.25-0.59
			c0.058,0.054,0.107,0.117,0.149,0.183c-0.01-0.083-0.005-0.169,0.011-0.246c0.09,0.048,0.134,0.146,0.146,0.246
			c0.119-0.217,0.31-0.133,0.27,0.108c0-0.091,0.064-0.137,0.156-0.139c-0.008,0.054,0.023,0.139,0.02,0.19
			c0.066-0.046,0.122-0.027,0.195-0.027c-0.006,0.06,0.024,0.146,0.019,0.204c0.076-0.06,0.137-0.163,0.249-0.15
			c-0.008,0.056,0.026,0.143,0.018,0.198c0.096-0.009,0.352,0.01,0.254,0.175c-0.055,0.094-0.264,0.05-0.355,0.05
			c0.049-0.014,0.096,0.005,0.142,0.008c0.111,0.286-0.301,0.222-0.467,0.198c-0.007-0.058-0.053-0.085-0.067-0.129
			c-0.162,0.058-0.196,0.298-0.214,0.46c-0.025,0.214-0.076,0.381-0.11,0.59c-0.064,0.418-0.004,0.859-0.057,1.281
			c-0.16,0.02-0.31,0.035-0.423-0.098"/>
		<path fill="#FF0000" d="M256.779,53.304c0.139,0.028-0.021-0.196-0.042-0.281c-0.03-0.123-0.022-0.284-0.004-0.411
			c0.153-0.031,0.154,0.203,0.275,0.202c0.094-0.002,0.145-0.238,0.202-0.299c0.108,0.089,0.092,0.241,0.173,0.355
			c0.075-0.071,0.387-0.321,0.373-0.001c0.156,0.019,0.192-0.068,0.357,0.019c0.092,0.048,0.027,0.181,0.214,0.156
			c0.02,0.092,0.062,0.166,0.054,0.252c-0.143,0.044-0.429-0.021-0.588-0.041c-0.111-0.015-0.399-0.046-0.48-0.145
			c-0.015,0.063-0.054,0.121-0.065,0.19c-0.176-0.134-0.327-0.142-0.452,0.065c0.033-0.015,0.063-0.037,0.091-0.061"/>
		<path fill="#FF0000" d="M260.272,51.425c0.035,0.005,0.038,0.015,0.016,0.033c-0.117-0.214-0.062-0.48-0.072-0.717
			c0.036,0.066,0.081,0.131,0.122,0.194c0.146-0.017,0.135-0.192,0.244-0.259c0.071,0.085,0.08,0.209,0.073,0.312
			c0.037-0.018,0.102-0.01,0.143-0.042c-0.004,0.061,0.027,0.142,0.023,0.203c0.054-0.042,0.125-0.078,0.195-0.093
			c0.018,0.211,0.229,0.142,0.376,0.163c-0.01,0.056,0.025,0.142,0.016,0.2c0.195,0.021,0.226-0.129,0.319,0.113
			c0.045,0.115,0,0.373-0.098,0.424c-0.008-0.03-0.017-0.061-0.023-0.092c-0.118-0.017-0.311,0.035-0.422-0.017
			c-0.105-0.048-0.22-0.267-0.279-0.365c-0.155,0.024-0.162,0.242-0.354,0.206c-0.02-0.242-0.291-0.171-0.387-0.371"/>
		<path fill="#FF0000" d="M253.124,51.799c0.005,0.041-0.018,0.06-0.055,0.064c-0.203-0.181-0.713-0.363-0.852-0.598
			c0.07,0.023,0.142,0.06,0.195,0.1c0.001-0.084,0.048-0.427,0.112-0.473c0.172-0.105,0.28,0.199,0.369,0.257
			c0.003-0.204,0.131-0.727,0.335-0.333c0.098-0.092,0.122-0.236,0.176-0.361c0.11,0.029,0.123,0.165,0.2,0.25
			c0.009-0.06,0.083-0.345,0.161-0.354c0.106-0.008,0.141,0.185,0.173,0.259c0.183-0.049,0.136-0.098,0.301-0.038
			c0.09,0.036,0.055,0.248,0.23,0.102c0.095,0.147,0.192,0.399,0.146,0.582c-0.095-0.032-0.195-0.094-0.247-0.194
			c0,0.038-0.015,0.081-0.009,0.127c-0.067-0.11-0.056-0.177-0.16-0.241c0.055,0.033-0.21,0.004-0.18,0.004
			c-0.033,0-0.073-0.061-0.136-0.058c-0.013,0.025-0.019,0.05-0.01,0.077c-0.021-0.039-0.077-0.06-0.095-0.083
			c-0.019,0.065-0.07,0.122-0.081,0.194c-0.112-0.254-0.219-0.203-0.255,0.015c-0.031,0.183-0.022,0.451-0.258,0.237
			c-0.035,0.08-0.011,0.172,0.039,0.235c-0.104-0.003-0.169,0.06-0.166,0.164c-0.03,0.005-0.061,0.011-0.087,0.019
			c-0.008,0.073-0.015,0.022-0.014,0.115c0-0.042,0-0.083,0-0.125"/>
		<path fill="#E8A103" d="M255.543,54.972c0.103,0.034,0.011-0.228,0-0.323c-0.029-0.171,0-0.365,0-0.536
			c0-0.277,0.015-0.859,0.43-0.757c0.329,0.083,0.232,0.671,0.159,0.917c-0.048,0.166-0.104,0.266-0.213,0.389
			c-0.081,0.09-0.313,0.28-0.163,0.364"/>
		<path fill="#E8A103" d="M257.638,54.702c-0.084,0.046-0.303-0.326-0.383-0.428c-0.172-0.204-0.442-0.351-0.692-0.379
			c-0.278-0.033-0.582,0.092-0.54,0.431c0.035,0.272,0.389,0.438,0.605,0.522c0.266,0.105,0.502,0.13,0.794,0.124
			c0.376-0.012,0.314-0.224,0.527-0.487c0.176-0.221,0.387-0.286,0.645-0.386c0.303-0.12,0.419-0.156,0.453,0.221
			c0.104-0.092,0.244-0.162,0.363-0.25c0.079-0.057,0.336-0.298,0.437-0.286c0.071,0.007,0.294,0.278,0.308,0.337
			c0.045,0.2-0.213,0.367-0.365,0.461c-0.361,0.219-0.818,0.108-1.188,0.013c-0.343-0.09-0.595,0.09-0.893,0.275
			c0.062-0.051,0.128-0.094,0.196-0.115"/>
	</g>
	<path fill="#FF0000" d="M119.461,239.753c1.232,0.754,2.58-0.518,3.616-0.937c1.298-0.531,2.872-0.484,4.062-1.045
		c0.618,0.713,0.599,1.874,0.514,2.762c-0.132,1.344-0.483,3.916,1.478,3.733c1.818-0.167,3.838-0.159,5.664,0.068
		c2.479,0.313,4.93,0.289,7.439,0.289c2.611-0.002,5.022-0.375,7.598-0.656c2.158-0.238,3.681,0.589,5.714,0.95
		c1.17,0.209,1.998,0.265,3.035,0.711c0.824,0.351,1.85,1.162,2.784,1.159c0.328-2.078,0.595-4.21,0.882-6.312
		c0.202-1.464,0.328-4.277,1.473-5.303c1.222,1.031,3.017,1.704,4.502,2.259c1.852,0.69,3.892,1.764,5.773,2.268
		c1.173-1.19,1.853-3.567,2.463-5.106c1.312-3.306,2.375-6.601,3.89-9.831c0.649-1.377,1.606-2.728,0.922-4.007
		c-0.356-0.674-1.799-1.485-2.406-1.949c-1.783-1.353-3.596-2.705-5.302-4.166c-3.882-3.323-6.691-8.019-10.924-10.665
		c-2.594-1.62-6.754,0.859-9.65,1.465c-1.742,0.365-3.472,1.021-5.203,1.198c-1.895,0.192-3.397-0.252-5.162-0.748
		c-1.331-0.375-3.043-1.086-4.426-1.103c-0.89-0.012-1.466,0.482-2.21,0.729c-0.655,0.217-1.421,0.238-2.134,0.459
		c-0.653,0.202-1.726,1.061-2.294,1.485c-2.916,2.173-6.282,3.559-9.543,5.179c-4.261,2.115-8.314,5.043-12.905,6.242
		c-0.062,0.932,1.938,2.019,2.562,2.815c0.95,1.21,1.756,2.637,2.452,4.036c1.13,2.274,1.841,4.784,2.537,7.216
		C117.102,234.488,118.044,238.887,119.461,239.753z"/>
	<path fill="#245977" d="M150.439,213.474c1.408-0.601,1.922-2.032,2.416-3.364c0.061-0.169,0.118-0.344,0.192-0.507
		c0.061-0.135,0.172-0.194,0.219-0.342c0.085-0.27,0.051-0.569,0.041-0.845c-0.011-0.446-0.264-0.892-0.439-1.292
		c-0.151-0.346-0.416-0.618-0.594-0.947c-0.065-0.115-0.124-0.232-0.195-0.344c-0.271-0.427-0.168-0.828-0.143-1.289
		c0.015-0.303-0.027-0.609-0.008-0.915c0.02-0.323,0.066-0.646,0.131-0.962c0.132-0.659,0.254-1.734,0.69-2.277
		c0.612-0.756,1.438-1.045,2.209-1.55c1.046-0.687,2.154-1.191,3.11-2.035c1.582-1.393,1.802-3.385,2.371-5.274
		c0.239-0.795,0.401-1.397,0.338-2.244c-0.072-0.951-0.162-1.288,0.78-1.462c0.532-0.1,1.754-0.252,1.957-0.821
		c0.186-0.522,0.014-1.458,0.04-2.028c0.021-0.512,0.063-1.028,0.014-1.539c-0.101-1.096-0.687-1.92-1.465-2.669
		c-0.995-0.96-0.876-2.451-1.296-3.729c-1.455-4.453-5.394-7.717-10.067-8.219c-0.756-0.079-1.744-0.471-2.536-0.653
		c-1.226-0.283-2.56-0.526-3.828-0.638c-2.278-0.2-3.719,0.984-5.414,2.225c-3.444,2.519-2.683,8.753-2.548,12.661
		c-0.016-0.462-1.266-0.771-1.594-0.798c-0.267-0.023-0.612-0.041-0.842,0.11c-0.258,0.17-0.56,0.259-0.808,0.45
		c-0.191,0.146-0.312,0.397-0.432,0.599c-0.147,0.246-0.252,0.512-0.338,0.786c-0.076,0.246-0.041,0.586,0.034,0.828
		c0.122,0.399,0.336,0.713,0.561,1.059c0.279,0.426,0.491,0.866,0.394,1.383c-0.111,0.599-0.084,1.224,0.431,1.627
		c0.194,0.152,0.784,0.363,0.946,0.071c0.023-0.037,0.023-0.079,0.049-0.113c0.027-0.035,0.076-0.047,0.097-0.087
		c0.051-0.089,0.026-0.219,0.063-0.315c0.109-0.286,0.396-0.025,0.543,0.089c0.088,0.069,0.178,0.149,0.257,0.229
		c0.128,0.128,0.385,0.28,0.428,0.469c0.052,0.215-0.146,0.496-0.194,0.705c-0.116,0.52-0.105,1.099-0.166,1.629
		c-0.119,1.042-0.239,2.087-0.116,3.134c0.085,0.701,0.184,1.381,0.388,2.052c0.369,1.216,1.116,1.998,2.309,2.398
		c0.93,0.313,1.486,0.388,1.961,1.314c0.093,0.179,0.223,0.359,0.304,0.542c0.095,0.219,0.146,0.503,0.211,0.735
		c0.116,0.409,0.209,0.829,0.314,1.242c0.09,0.363,0.158,0.729,0.225,1.097c0.058,0.31,0.153,0.634,0.11,0.951
		c-0.058,0.445-0.426,0.792-0.804,0.983c-0.405,0.206-0.482,0.563-0.606,0.984c-0.084,0.292-0.105,0.563-0.046,0.863
		c0.069,0.361,0.059,0.752,0.176,1.101c0.236,0.676,0.577,1.337,1.173,1.756c0.435,0.306,0.921,0.564,1.396,0.815
		c0.434,0.227,0.841,0.501,1.271,0.739c0.376,0.209,0.782,0.367,1.12,0.644c0.217,0.183,0.401,0.4,0.636,0.564
		c0.339,0.24,0.734,0.402,1.124,0.538C148.132,213.99,149.321,213.951,150.439,213.474z"/>
	<path d="M137.674,183.519c-0.112-0.221-0.27-0.394-0.248-0.751c0.035-0.538,0.294-1.226,0.45-1.745
		c0.218-0.738,1.025-1.777,1.797-2.023c0.734-0.232,1.938,0.183,2.575,0.486c0.497,0.238,1.542,0.63,1.708,1.188
		c-1.023,0.088-2.002,0.183-3.024,0.525c-0.696,0.231-1.442,0.507-2.017,0.985c-0.724,0.602-0.731,1.188-1.088,1.97"/>
	<path d="M152.87,180.194c-0.034,0.093-0.039,0.1-0.012,0.015c0.983-1.61,4.013,0.054,4.969,0.893
		c0.756,0.665,1.255,1.311,1.445,2.277c0.104,0.534,0.022,0.976-0.084,1.489c-0.199-0.773-0.928-1.021-1.488-1.516
		c-1.402-1.245-2.891-2.64-4.84-2.774"/>
	<path d="M135.634,185.208c-0.162-0.63-0.271-1.268-0.353-1.912c-0.054-0.442-0.033-1.042-0.284-1.428
		c-0.264-0.405-0.785-0.078-0.927-0.408c-0.198-0.472,0.289-1.196,0.192-1.715c-0.104-0.552-0.173-1.086-0.212-1.656
		c-0.062-0.888,0.101-1.758,0.182-2.636c0.091-1.014,0.164-2.054,0.366-3.053c0.334-1.637,1.036-3.432,1.936-4.848
		c0.185-0.288,0.408-0.47,0.63-0.717c0.267-0.292,0.463-0.64,0.739-0.924c0.533-0.55,1.196-0.955,1.862-1.333
		c1.58-0.894,3.148-1.521,4.911-1.95c1.179-0.286,2.338-0.042,3.481,0.234c1.4,0.338,2.771,0.73,4.166,1.076
		c0.857,0.215,1.769,0.535,2.506,1.009c0.055-0.355-0.027-0.59,0.17-0.911c0.396-0.644,0.997-1.201,1.526-1.743
		c0.931-0.953,1.846-1.937,2.861-2.8c1.158-0.983,2.368-1.838,3.636-2.663c3.216-2.093,7.421-2.836,11.146-1.789
		c1.738,0.49,3.498,1.195,4.918,2.331c0.609,0.49,1.041,1.21,1.473,1.855c0.49,0.729,0.898,1.521,1.157,2.367
		c0.562,1.833,0.713,3.898,0.187,5.759c-0.644,2.273-1.858,4.517-3.453,6.267c-2.459,2.692-5.811,4.258-9.381,4.798
		c-0.856,0.128-1.705,0.342-2.565,0.432c-0.396,0.041-0.742-0.072-1.108-0.065c-0.828,0.019-1.794,0.277-2.567-0.203
		c-0.085,0.39,0.128,0.803,0.225,1.143c0.124,0.448,0.306,0.959,0.373,1.428c0.069,0.5,0.015,1.04,0.015,1.545
		c0,0.227-0.031,0.478,0,0.703c0.03,0.211,0.101,0.375,0.079,0.602c0.036-0.604-0.618-1.332-0.956-1.77
		c-0.202-0.257-0.372-0.561-0.625-0.769c-0.242-0.198-0.481-0.224-0.531-0.562c-0.047-0.32-0.024-0.679-0.059-0.996
		c-0.044-0.402-0.048-0.799-0.097-1.195c-0.049-0.419-0.038-0.846-0.155-1.253c-0.117-0.409-0.258-0.566-0.546-0.856
		c-0.322-0.327-0.676-0.385-1.106-0.467c-0.754-0.142-1.519-0.219-2.28-0.294c-1.056-0.106-2.094-0.268-3.15-0.332
		c-1.584-0.096-3.166-0.08-4.757-0.08c-2.831,0-5.656,0.071-8.485,0.077c-0.927,0.001-2.496-0.117-3.154,0.674
		c-0.857,1.024-1.072,2.849-1.214,4.114c-0.084,0.759-0.164,1.555-0.164,2.39c0,0.467-0.003,0.934,0,1.401
		c0.002,0.494-0.191,0.847-0.19,1.294C135.966,185.364,135.712,185.262,135.634,185.208z"/>
	<path d="M153.524,185.222c0.038-0.014,0.078-0.027,0.119-0.042"/>
	<path d="M146.292,182.524c0.615,1.27,0.615,2.863,0.478,4.308c-0.06,0.625-0.102,1.232-0.193,1.878
		c-0.078,0.528-0.504,1.047-0.604,1.579c-0.185-1.291-0.165-2.759-0.004-4.098c0.141-1.167,0.315-2.99-0.635-3.985"/>
	<path fill="#FF0000" d="M147.232,195.731c0.182-0.147,0.33-0.301,0.518-0.482c0.221-0.211,0.67-0.325,0.519-0.717
		c-0.313-0.043-0.561-0.25-0.884-0.295c-0.646-0.09-1.321,0.054-1.96,0.102c-0.867,0.062-1.72,0.048-2.466-0.365
		c-0.149,0.187-0.109,0.403-0.14,0.623c-0.013,0.075-0.052,0.132-0.083,0.2c-0.05,0.102-0.076,0.217-0.092,0.328
		c-0.012,0.089-0.023,0.134-0.081,0.202c-0.024,0.033-0.038,0.071-0.062,0.104c-0.036,0.044-0.08,0.067-0.121,0.098
		c-0.073,0.048-0.133,0.1-0.209,0.142c-0.088,0.049-0.168,0.107-0.257,0.151c-0.117,0.056-0.219,0.11-0.326,0.181
		c-0.115,0.073-0.172,0.177-0.239,0.292c-0.049,0.094-0.103,0.159-0.104,0.267c-0.007,0.254,0.195,0.396,0.398,0.511
		c0.099,0.053,0.191,0.105,0.294,0.145c0.122,0.049,0.233,0.072,0.362,0.095c0.227,0.042,0.479,0.046,0.71,0.023
		c0.298-0.027,0.593-0.012,0.888-0.041c0.297-0.027,0.585-0.102,0.872-0.179c0.263-0.071,0.497-0.174,0.747-0.279
		c0.089-0.036,0.181-0.066,0.265-0.115c0.054-0.03,0.065-0.056,0.101-0.098c0.044-0.061,0.13-0.104,0.193-0.146
		c0.287-0.19,0.588-0.35,0.874-0.538C147.056,195.872,147.147,195.803,147.232,195.731z"/>
	<path d="M158.393,192.012c0.022,0.217,0.027,0.456,0.022,0.723c-0.022,1.537-1.468,2.427-2.867,2.479
		c-0.472,0.018-0.994-0.109-1.452,0.057c-0.549,0.202-0.767,1.149-1.204,1.245c-0.84,0.189-0.977-1.562-1.59-0.186
		c-0.088,0.204-0.345,1.68-0.741,1.458c-0.426-0.238-0.494-1.345-1.13-1.249c-0.576,0.086-0.585,1.087-1.126,1.16
		c-0.345,0.049-0.631-0.468-0.796-0.695c-0.199-0.271-0.445-0.571-0.752-0.728c-0.554-0.281-0.657,0.384-0.949,0.676
		c-0.773,0.776-1.489-2.048-2.038-0.726c-0.061,0.144-0.064,0.398-0.249,0.435c-0.157,0.034-0.295-0.148-0.393-0.25
		c-0.184-0.194-0.289-0.433-0.44-0.648c-0.085-0.121-0.199-0.332-0.364-0.352c-0.392-0.044-0.587,0.569-0.712,0.823
		c-0.212,0.433-0.401,0.062-0.44-0.239c-0.048-0.367-0.128-0.722-0.128-1.093c0-0.134,0.001-0.251,0.03-0.384
		c0.019-0.096,0.069-0.205,0.042-0.303c0.003,0.009-0.501,0.036-0.548,0.033c-0.137-0.012-0.244-0.06-0.37-0.108
		c-0.389-0.153-0.814-0.172-1.204-0.337c-0.553-0.235-1.065-0.631-1.461-1.081c-0.279-0.313-0.486-0.734-0.63-1.128
		c-0.203-0.549-0.138-1.2,0.044-1.749c0.088-0.263,0.241-0.493,0.41-0.71c0.179-0.232,0.352-0.448,0.598-0.611
		c0.356-0.234,0.722-0.405,1.144-0.464c0.077-0.012,0.175-0.052,0.251-0.047c0.119,0.008,0.244,0.048,0.359,0.076
		c0.308,0.066,0.517,0.225,0.688,0.486c0.14,0.215,0.177,0.492,0.121,0.739c-0.029,0.127-0.106,0.306-0.249,0.334
		c-0.061-0.081,0.021-0.135-0.003-0.221c-0.035-0.14-0.2-0.284-0.314-0.359c-0.116-0.075-0.298-0.14-0.407-0.042
		c-0.071,0.062-0.111,0.156-0.128,0.242c-0.014,0.096,0.003,0.166,0.07,0.234c0.072,0.077,0.143,0.162,0.218,0.238
		c0.182,0.179,0.339,0.383,0.577,0.489c0.343,0.152,0.672,0.286,1.04,0.357c0.374,0.071,0.743,0.155,1.113,0.257
		c0.425,0.116,0.821,0.174,1.262,0.174c0.332,0,0.639,0.022,0.966-0.015c0.323-0.041,0.645-0.11,0.958-0.196
		c0.183-0.05,0.384-0.127,0.58-0.085c0.229,0.051,0.378,0.254,0.554,0.394c0.211,0.167,0.457,0.305,0.715,0.384
		c0.194,0.058,0.41,0.086,0.605,0.015c0.302-0.111,0.555-0.317,0.801-0.512c0.099-0.08,0.292-0.258,0.437-0.205
		c0.131,0.049,0.166,0.269,0.228,0.373c0.147,0.253,0.499,0.411,0.774,0.467c0.815,0.165,1.692,0.143,2.518,0.077
		c0.501-0.039,1.005-0.11,1.492-0.237c0.223-0.058,0.442-0.126,0.651-0.217c0.177-0.075,0.413-0.16,0.559-0.283
		c0.157-0.13,0.357-0.272,0.438-0.465c0.105-0.259,0.123-0.56-0.109-0.751c-0.136-0.112-0.319-0.121-0.472-0.022
		c-0.134,0.087-0.192,0.296-0.223,0.443c0.004-0.238-0.013-0.489,0.129-0.688c0.074-0.11,0.192-0.211,0.322-0.254
		c0.399-0.125,0.821,0.185,1.126,0.403c0.332,0.238,0.639,0.517,0.914,0.819C158.139,190.992,158.331,191.44,158.393,192.012z"/>
	<path d="M135.57,193.835c0.054-0.344,0.092-0.689,0.118-1.035c0.03-0.348,0.047-0.7,0.058-1.049
		c0.012-0.333-0.019-0.683,0.026-1.011c0.027-0.215,0.155-0.386,0.224-0.587c0.162-0.475,0.361-1.092,0.095-1.558
		c-0.122-0.212-0.233-0.494-0.409-0.662c-0.196-0.19-0.491-0.138-0.705-0.01c-0.118,0.071-0.204,0.237-0.225,0.381
		c-0.021,0.144,0.007,0.296-0.038,0.436c-0.021,0.075-0.074,0.1-0.111,0.159c-0.043,0.069-0.048,0.162-0.085,0.235
		c-0.144,0.258-0.339,0.494-0.538,0.713c-0.261,0.294-0.578,0.615-0.941,0.784c-0.504,0.234-1.529,0.382-2.006,0.052
		c0.843,0.646,2.416,1.86,2.983,0.344c-0.013,0.358,0,0.713-0.01,1.068c-0.01,0.508-0.341,0.982-0.296,1.413
		C134.334,193.593,135.039,193.485,135.57,193.835z"/>
	<path d="M162.085,187.789c0.511,1.02,0.242,2.265,0.953,3.189c0.312,0.404,0.944,0.936,1.441,1.086
		c0.492,0.147,1.079-0.021,1.584,0.067c-0.646,0.632-2.883,0.446-3.187-0.626c0.013,0.605-0.1,1.098-0.16,1.671
		c-0.071,0.665,0.264,0.903,0.325,1.505c0.023,0.223,0.076,0.768-0.111,0.943c-0.384,0.354-0.342-0.013-0.562-0.288
		c-0.418-0.528-0.633-1.424-0.766-2.075c0.111,0.528-1.086,1.731-1.591,1.714c-1.143-0.039-0.053-2.226,0.007-2.765
		c0.119-1.057,0.059-2.079,0.152-3.146c0.035-0.39,0.058-0.763,0.434-1.001c0.36-0.225,0.806-0.002,1.161-0.274"/>
	<path fill="#245977" d="M215.919,199.164c0.226,0.004,0.474-0.194,0.621-0.348c0.14-0.146,0.267-0.323,0.377-0.494
		c0.145-0.225,0.213-0.482,0.301-0.732c0.146-0.405,0.318-0.782,0.389-1.212c0.014-0.083,0.019-0.166,0.023-0.25
		c0.005-0.176,0.027-0.365,0.004-0.54c-0.018-0.125-0.084-0.227-0.15-0.33c-0.104-0.164-0.272-0.266-0.422-0.389
		c-0.159-0.131-0.327-0.248-0.501-0.359c-0.785-0.514-1.159-0.269-1.295,0.698c-0.099,0.72,0.118,1.356,0.2,2.027
		c0.087,0.709-0.01,1.499-0.01,2.213"/>
	<path fill="#FF0000" d="M154.663,164.728c0.159,0.112,0.337,0.316,0.513,0.463c0.237,0.2,0.471,0.338,0.684,0.569
		c0.547,0.59,0.986,1.272,1.475,1.919c1.218,1.618,2.466,3.25,3.362,5.075c0.47,0.958,0.705,2.052,1.042,3.057
		c0.178,0.53,0.355,1.066,0.502,1.597c0.08,0.293,0.08,0.658,0.268,0.918c0.081,0.107,0.21,0.175,0.301,0.265
		c0.104,0.104,0.184,0.292,0.298,0.355c-0.064-0.149-0.227-0.295-0.312-0.457c-0.117-0.221-0.193-0.393-0.244-0.619
		c-0.148-0.686-0.223-1.41-0.377-2.111c-0.102-0.471-0.061-0.92-0.088-1.395c-0.031-0.579-0.143-1.165-0.204-1.744
		c-0.068-0.616-0.307-1.191-0.464-1.783c-0.188-0.699-0.421-1.391-0.738-2.046c-0.273-0.567-0.687-1.152-1.058-1.653
		c-0.313-0.421-0.688-0.901-1.107-1.218c-0.352-0.267-0.686-0.552-1.028-0.822c-0.227-0.177-0.492-0.298-0.72-0.461
		c-0.376-0.275-0.799-0.584-1.278-0.58c-0.223,0.001-0.386-0.02-0.576,0.09c-0.084,0.046-0.139,0.092-0.209,0.154
		c-0.033,0.033-0.108,0.037-0.133,0.075c-0.04,0.055,0.015,0.128-0.02,0.187c-0.047,0.077-0.034,0.014-0.043,0.009"/>
	<path fill="#FF0000" d="M154.106,164.017c0,0.133,0,0.14,0,0.023c-0.011-1.251-0.725-1.901-1.586-2.771
		c-1.171-1.184-2.993-2.429-4.673-2.641c-2.078-0.265-4.115-0.355-6.218-0.355c-2.494,0-5.084,0.058-7.471-0.795
		c-3.804-1.358-7.495-3.865-7.488-8.332c0.003-3.36,1.134-6.696,4.085-8.275c-0.961,0.175-1.787,1.995-2.172,2.729
		c-0.832,1.586-1.24,3.733-0.522,5.458c0.779,1.879,2.442,3.011,4.148,3.954c0.778,0.429,1.631,0.676,2.474,0.953
		c0.933,0.303,1.832,0.682,2.818,0.803c2.389,0.292,4.86,0.14,7.235,0.505c1.965,0.302,3.811,1.611,5.347,2.803
		c1.705,1.326,3.213,4.099,3.228,6.258"/>
	<path fill="#FF0000" d="M154.269,163.857c0.111-0.329-0.006-1.499,0-2.075c0.014-1.201,1.072-2.545,1.955-3.36
		c0.854-0.79,1.842-1.451,2.7-2.256c1.151-1.081,2.687-2.471,3.333-3.95c0.992-2.27,0.72-4.539-1.124-6.229
		c-0.545-0.499-1.525-0.692-2.236-0.76c-0.917-0.088-1.152,0.394-1.638,1.08c-0.318,0.456-0.742,1.005-0.599,1.601
		c0.16,0.692,0.92,0.586,1.479,0.75c0.603,0.175,0.933,0.387,1.678,0.363c0.761-0.023,1.525-0.236,2.233-0.512
		c1.668-0.653,2.29-2.06,2.862-3.628c0.315-0.863,0.642-1.699,0.88-2.568c0.273-0.99,0.812-1.686,1.369-2.542
		c0.092-0.137,0.102-0.369,0.16-0.459c-0.279,0.427-0.579,0.955-0.881,1.416c-0.222,0.333-0.548,0.576-0.73,0.945
		c-0.206,0.414-0.163,0.876-0.305,1.288c-0.456,1.313-1.437,2.592-2.399,3.545c-0.744,0.74-0.895,0.855-1.887,1.072
		c-0.71,0.155-1.121,0.329-1.906,0.329c-0.472,0-1.331,0.179-1.448-0.475c-0.096-0.541,0.682-1.192,1.125-1.284
		c3.153-0.659,2.674,4.567,1.565,6.075c-0.652,0.886-1.502,1.716-2.279,2.503c-0.755,0.763-1.595,1.647-2.474,2.229
		c-2.229,1.472-2.045,4.476-1.275,6.744"/>
	<path d="M140.296,205.135c-0.18,0.305-0.511,0.467-0.795,0.67c-0.605,0.433-1.039,1.055-1.317,1.741
		c-0.483,1.184-0.239,2.685,0.604,3.651c0.662,0.762,1.481,1.357,2.372,1.831c0.385,0.204,0.909,0.562,1.35,0.594
		c0.196,0.013,0.348-0.017,0.545,0.047c0.271,0.091,0.544,0.187,0.81,0.293c0.276,0.111,0.536,0.24,0.83,0.308
		c0.155,0.037,0.315,0.056,0.458,0.119c0.05,0.354,0.044,0.722,0.083,1.077c0.046,0.471,0.072,0.951,0.139,1.417
		c0.343,0.015,0.672,0.101,1.022,0.09c0.34-0.01,0.681-0.065,1.021-0.094c0.462-0.038,0.931-0.061,1.388-0.127
		c0.761-0.11,1.529-0.222,2.294-0.315c0.205-0.024,0.711-0.018,0.86-0.187c-0.124-0.252-0.194-0.625-0.254-0.914
		c-0.076-0.369-0.182-0.769-0.233-1.115c0.141,0,0.253-0.1,0.368-0.171c0.45-0.282,0.737-0.66,1.11-1.027
		c0.469-0.459,0.752-1.068,1.173-1.567c0.415-0.494,0.525-0.955,0.525-1.582c-0.001-0.588,0.112-1.257-0.218-1.774
		c-0.254-0.399-0.643-0.845-1.017-1.127c-0.205-0.154-0.476-0.229-0.682-0.397c-0.184-0.148-0.323-0.419-0.508-0.552
		c-0.051-0.037-0.087-0.093-0.128-0.135c0.01,0.277-0.007,0.525,0.074,0.773c0.148,0.467,0.357,0.89,0.423,1.385
		c0.119,0.947,0.084,2.308-0.565,3.061c-0.76,0.881-1.891,1.648-3.044,1.806c-0.556,0.077-1.222,0.187-1.782,0.078
		c-0.759-0.146-1.598-0.664-2.255-1.059c-0.923-0.551-1.7-1.301-2.61-1.839c-0.663-0.392-1.275-0.926-1.605-1.609
		c-0.29-0.598-0.273-1.382-0.2-2.039c0.056-0.488,0.414-0.816,0.422-1.31"/>
	<path fill="#FFFFFF" d="M152.756,185.283c-0.009-0.04,0.021-0.109,0.038-0.147c0.026-0.081,0.067-0.138,0.115-0.208
		c0.047-0.075,0.08-0.151,0.127-0.226c0.076-0.124,0.21-0.234,0.315-0.333c0.191-0.183,0.453-0.279,0.71-0.319
		c0.129-0.021,0.257-0.021,0.384-0.031c0.162-0.013,0.327-0.021,0.486,0.005c0.313,0.054,0.656,0.137,0.921,0.325
		c0.22,0.158,0.341,0.375,0.494,0.59c0.213,0.296,0.428,0.636,0.562,0.969c-0.041,0.027-0.134,0.04-0.184,0.052
		c-0.146,0.033-0.298,0.042-0.446,0.064c-0.25,0.032-0.508,0.046-0.761,0.051c-0.282,0.006-0.565,0.037-0.846,0.041
		c-0.477,0.007-0.925-0.092-1.371-0.246c-0.158-0.054-0.319-0.09-0.46-0.184c-0.032-0.022-0.066-0.035-0.091-0.066
		c-0.013-0.017-0.011-0.039-0.021-0.06"/>
	<path fill="#FFFFFF" d="M143.702,184.479c0.011,0.001,0.015-0.002,0.011-0.012c-0.068-0.077-0.108-0.183-0.169-0.266
		c-0.094-0.125-0.211-0.221-0.315-0.334c-0.248-0.272-0.473-0.543-0.815-0.707c-0.345-0.163-0.71-0.073-1.072-0.044
		c-0.324,0.028-0.667,0.039-0.953,0.223c-0.125,0.083-0.253,0.187-0.345,0.308c-0.092,0.12-0.203,0.263-0.268,0.403
		c-0.024,0.052-0.035,0.111-0.059,0.164c-0.014,0.034-0.039,0.062-0.057,0.096c-0.018,0.042-0.027,0.028,0.003,0.062
		c0.026,0.029,0.085,0.044,0.116,0.07c0.124,0.094,0.245,0.192,0.375,0.274c0.247,0.156,0.511,0.283,0.771,0.411
		c0.547,0.267,1.224,0.341,1.819,0.225c0.382-0.073,0.745-0.19,1.05-0.444c0.074-0.061,0.132-0.138,0.18-0.221
		c0.017-0.031,0.03-0.069,0.056-0.092c0.011,0.018-0.002,0.014-0.01,0.023"/>
	<path d="M139.711,183.959c0.132,0.06,0.232,0.208,0.359,0.288c0.257,0.167,0.594,0.304,0.892,0.384
		c0.516,0.139,1.138,0.042,1.673,0.045c0.334,0.003,0.693-0.113,0.974-0.289c0.104-0.065,0.2-0.22,0.28-0.071
		c0.053,0.098,0.059,0.44,0.013,0.521c-0.174,0.308-0.587,0.513-0.903,0.638c-0.477,0.187-1.156,0.095-1.657,0.008
		c-0.337-0.056-0.713-0.245-0.961-0.485c-0.13-0.125-0.829-0.647-0.591-0.88"/>
	<path d="M152.435,185.516c0.16,0.09,0.268,0.266,0.433,0.359c0.24,0.135,0.549,0.208,0.812,0.289
		c0.504,0.154,1.028,0.269,1.553,0.188c0.214-0.032,0.42-0.052,0.631-0.109c0.192-0.054,0.369-0.132,0.56-0.2
		c0.105-0.039,0.179-0.058,0.269-0.128c0.088-0.067,0.118-0.208,0.244-0.192c-0.074,0.1-0.275,0.094-0.403,0.121
		c-0.144,0.029-0.282,0.077-0.43,0.102c-0.212,0.037-0.415,0.023-0.626,0.046c-0.446,0.052-0.85,0.021-1.289-0.046
		c-0.346-0.052-0.578-0.234-0.876-0.399c-0.18-0.1-0.637-0.269-0.717-0.463c0.08,0.02,0.152,0.065,0.236,0.073"/>
	<path d="M153.858,184.585c-0.01,0.031-0.02,0.064-0.027,0.094c-0.096,0.363,0.092,0.763,0.481,0.875
		c0.448,0.131,0.941,0.06,1.266-0.281c0.122-0.128,0.201-0.373,0.166-0.551c-0.026-0.142-0.148-0.413-0.245-0.522
		c-0.128-0.141-0.412-0.112-0.584-0.131c-0.143-0.018-0.285-0.079-0.429-0.081C154.144,183.98,153.954,184.294,153.858,184.585z"/>
	<path d="M142.146,182.881c0.397-0.077,0.515,0.617,0.478,0.878c-0.067,0.457-0.482,0.655-0.878,0.716
		c-0.42,0.065-0.848,0.091-0.992-0.427c-0.041-0.155-0.051-0.526,0-0.678c0.027-0.077,0.151-0.213,0.224-0.251
		c0.07-0.038,0.21-0.031,0.21-0.038"/>
	<path d="M139.758,184.038c0.031,0.027,0.065,0.054,0.102,0.08c-0.031-1.084,1.547-1.18,2.324-1.053
		c0.508,0.083,0.711,0.344,1.002,0.701c0.183,0.225,0.467,0.809,0.795,0.742c0.094-0.527,0.148-1.001,0.273-1.526
		c-0.138,0.313-0.211,0.732-0.47,0.924c0.013-0.421-0.126-1.06-0.517-1.288c-0.15,0.22-0.228,0.667-0.451,0.803
		c-0.07-0.267-0.231-1.184-0.606-1.067c-0.2,0.062-0.122,0.604-0.388,0.613c-0.238,0.009-0.329-0.626-0.578-0.737
		c-0.194,0.271-0.262,0.649-0.421,0.949c-0.419-0.162-0.216-0.354-0.679-0.237c-0.103,0.027-0.102,0.25-0.263,0.26
		c-0.15,0.012-0.326-0.238-0.4-0.348c-0.185,0.371-0.269,1.57,0.276,1.668"/>
	<path d="M152.614,185.372c0.033,0.027,0.068,0.053,0.103,0.081c0.172-2.162,4.24-1.554,4.292,0.638
		c0.197-0.206,0.465-1.858,0.247-2.05c-0.044,0.334-0.136,0.812-0.402,1.047c0.037-0.236-0.206-1.14-0.391-1.25
		c-0.123,0.242-0.119,0.707-0.428,0.675c-0.033-0.365-0.091-1.076-0.483-1.193c-0.097,0.146-0.106,0.505-0.231,0.605
		c-0.33,0.261-0.192-0.054-0.431-0.227c-0.547-0.399-0.528-0.213-0.786,0.304c-0.09-0.171-0.193-0.369-0.373-0.438
		c-0.038,0.232-0.011,0.469-0.038,0.701c-0.446,0.071-0.736-0.371-1.054-0.578c-0.092,0.269,0.095,0.854,0.098,1.198"/>
	<path fill="#FF0000" d="M116.217,277.75c0.162,1.455-1.712,3.269-2.589,4.398c-1.914,2.471-3.528,5.312-5.078,8.012
		c-1.6,2.783-4.603,6.344-4.786,9.514c1.94-0.011,3.978,1.648,5.552,2.663c1.945,1.255,3.674,2.743,5.585,3.968
		c1.471,0.941,3.112,2.782,4.649,3.482c1.723,0.781,3.339-0.501,4.871-1.519c1.28-0.85,2.303-1.974,3.56-2.796
		c0.907-0.589,0.626-1.11,1.736-0.677c0.337,0.133,1.38,1.878,1.691,2.264c2.386,2.973,4.266,6.895,5.932,10.328
		c1.464,3.016,3.274,6.345,4.401,9.458c3.693,0.516,7.021-1.527,10.619-1.984c0.656-0.083,1.32-0.084,1.982-0.08
		c2.117,0.007,4.979,0.359,6.615-1.318c0.724-0.746,0.602-1.668,0.271-2.575c-0.522-1.431-1.208-2.802-1.703-4.242
		c-0.272-0.796-0.312-1.651-0.571-2.437c-0.531-1.59-1.004-3.184-1.424-4.821c-1.144-4.459-2.233-9.034-2.937-13.499
		c-0.41-2.603-0.978-5.15-1.273-7.785c-0.13-1.157-0.562-2.226-0.923-3.319c-0.321-0.985-0.514-2.032-0.741-3.048
		c-0.065-0.292-0.281-0.521-0.274-0.849c-0.313-0.116-0.752,0.107-1.105,0.106c-0.419-0.002-0.838,0-1.255,0
		c-1.12,0-2.165-0.202-3.265-0.25c-1.779-0.074-3.573-0.371-5.333-0.621c-1.624-0.229-3.224-0.302-4.834-0.654
		c-1.885-0.413-3.939-0.826-5.653-1.716c-1.698-0.88-3.359-1.758-4.899-2.878c-1.311-0.95-2.76-1.767-3.963-2.862
		c-0.642-0.579-1.091-1.281-1.152-2.112c-0.332,0.19-0.491,0.576-0.745,0.856c-0.489,0.536-1,1.024-1.475,1.591
		c-1.718,2.057-2.38,4.685-3.967,6.813c-1.411,1.895-3.053,3.536-4.312,5.587c-1.529,2.49-2.451,5.213-3.988,7.679
		c-1.197,1.916-3.293,3.624-4.27,5.479c1.661,0.92,3.052,2.436,4.7,3.461c1.549,0.963,2.943,2.189,4.508,3.126
		c3.468,2.08,6.982,4.174,10.252,6.373c1.539,1.036,1.91,1.354,3.451,0.635c1.351-0.63,2.034-2.153,3.344-2.703
		c1.448-0.604,2.083,0.591,3.474,1.409c1.141,0.672,2.774,1.26,3.523,2.428c0.33,0.072,0.592-0.054,0.778-0.377"/>
	<path fill="#FF0000" d="M118.961,270.178c0.108,0.037,0.186,0.01,0.198-0.097"/>
	<path d="M100.532,297.621c0.368,0.236,1.5-2.092,1.961-2.265c0.155,0.181,0.33,0.34,0.493,0.505
		c0.915,0.934,2.172,1.686,3.325,2.289c1.725,0.905,3.504,1.588,5.11,2.736c0.871,0.621,1.774,1.203,2.668,1.795
		c0.967,0.644,1.874,1.37,2.899,1.909c1.576,0.826,2.957,1.961,4.55,2.77c1.214,0.616,2.437,1.194,3.67,1.755
		c0.427,0.195,1.432,0.489,1.665,0.877c-0.504-0.402-1.791,1.255-2.11,1.55c-0.274,0.254-0.596,0.423-0.873,0.665
		c-0.207,0.179-0.449,0.647-0.773,0.58c-0.229-0.046-0.451-0.459-0.607-0.598c-1.527-1.375-3.633-2.23-5.444-3.188
		c-0.963-0.508-1.921-1.002-2.899-1.478c-0.635-0.306-1.335-0.606-1.922-0.982c-0.537-0.345-1.072-0.7-1.579-1.085
		c-0.743-0.562-1.553-1.01-2.31-1.57c-1.253-0.925-2.54-1.824-3.682-2.889c-0.744-0.694-1.448-1.418-2.267-2.012
		c-0.385-0.28-1.257-0.798-1.479-1.265"/>
	<path d="M141.533,325.336c0.365,0.379,1.501-0.003,1.897-0.122c1.693-0.51,3.402-0.917,5.117-1.354
		c1.83-0.469,3.657-0.99,5.478-1.498c0.65-0.183,1.323-0.338,1.956-0.567c0.522-0.188,1.016-0.481,1.581-0.526
		c0.957-0.077,1.782-0.327,2.698-0.592c0.342-0.098,0.652-0.367,0.895,0c0.248,0.379,0.28,0.968,0.564,1.392
		c0.237,0.352,0.76,0.878,0.797,1.308c0.035,0.468-0.485,0.472-0.866,0.594c-1.042,0.338-2.036,0.832-3.091,1.174
		c-1.298,0.423-2.646,0.617-3.978,0.882c-2.411,0.479-4.664,1.344-7.033,1.941c-1.953,0.492-3.921,0.982-5.873,1.454
		c-0.21,0.052-0.425,0.129-0.622,0.161c-0.085-0.518-0.075-0.923-0.261-1.444c-0.206-0.578-0.535-1.154-0.431-1.777
		c0.025,0.021,0.053,0.045,0.079,0.065"/>
	<path d="M120.151,269.089c-0.164,0.402-0.672,0.774-0.968,1.089c-0.314,0.337-0.645,0.723-0.998,1.016
		c0.136,0.308,0.66,0.69,0.896,0.965c0.442,0.514,0.908,0.985,1.367,1.485c0.991,1.095,2.228,2.111,3.414,2.999
		c1.411,1.058,2.944,2.018,4.479,2.874c0.811,0.454,1.757,0.626,2.612,0.989c0.393,0.168,0.775,0.347,1.168,0.488
		c0.071,0.447-0.089,0.847-0.085,1.277c0.005,0.51,0.409,0.517,0.81,0.707c0.804,0.383,1.678,0.734,2.466,0.97
		c0.727,0.216,1.157,0.049,1.36-0.69c0.118-0.43,0.102-0.852,0.596-0.871c0.083-0.002,0.392,0.154,0.497,0.179
		c0.195,0.047,0.421,0.03,0.616,0.088c1.394,0.423,2.812,0.721,4.262,1.027c0.677,0.143,1.391,0.236,2.076,0.271
		c0.732,0.039,1.454,0.176,2.183,0.199c1.476,0.048,2.693-0.138,4.061-0.674c0.404-0.16,0.696-0.122,1.067-0.348
		c0.286-0.172,0.588-0.353,0.908-0.494c-0.326-0.545-0.499-1.222-0.713-1.834c-0.136-0.396-0.274-1.275-0.572-1.572
		c0.123,1.031-0.653,0.681-1.251,0.741c-0.589,0.057-1.135,0.331-1.717,0.418c-1.024,0.152-2.282-0.021-3.277-0.203
		c-2.795-0.516-5.549-1.201-8.284-2.005c-1.446-0.424-2.878-0.756-4.369-0.991c-1.5-0.238-3.003-0.362-4.358-1.164
		c-1.484-0.883-3.037-1.705-4.404-2.771c-0.866-0.677-1.753-1.33-2.53-2.105c-0.381-0.38-0.799-0.76-1.153-1.159
		c-0.133-0.151-0.198-0.209-0.268-0.399c-0.042-0.108-0.002-0.472-0.012-0.493c0.031,0.062,0.039,0.124,0.021,0.189"/>
	<path d="M127.209,241.732c0.193,0.12,0.417,0.085,0.646,0.11c0.276,0.028,0.551,0.071,0.829,0.104
		c0.534,0.065,1.067,0.117,1.601,0.188c0.805,0.102,1.613,0.122,2.418,0.166c2.175,0.12,4.348,0.146,6.523,0.215
		c1.147,0.035,2.294,0.118,3.444,0.127c1.151,0.011,2.302,0.027,3.454,0.027c1.685,0,3.363-0.055,5.047-0.055
		c1.564,0,3.126,0.03,4.687,0.126c0.755,0.046,1.518,0.064,2.271,0.142c0.644,0.063,1.292,0.074,1.932,0.162
		c0.396,0.054,0.791,0.088,1.184,0.141c0.169,0.02,0.396,0.025,0.553,0.099c-0.05,0.071-0.019,0.262-0.019,0.347
		c0,0.329,0.022,0.668-0.005,0.997c-0.042,0.47-0.026,0.94-0.068,1.411c-0.018,0.181-0.02,0.383,0,0.562
		c0.007,0.094,0.063,0.202,0.042,0.295c-0.09-0.013-0.244-0.146-0.339-0.188c-0.18-0.09-0.338-0.124-0.538-0.162
		c-0.379-0.071-0.779-0.093-1.155-0.182c-0.658-0.157-1.349-0.25-2.019-0.355c-1.877-0.294-3.763-0.554-5.656-0.716
		c-0.941-0.083-1.885-0.132-2.83-0.134c-0.413-0.004-0.828,0.025-1.239,0.047c-0.322,0.018-0.646-0.003-0.969-0.021
		c-0.282-0.016-0.569-0.067-0.853-0.041c-0.677,0.064-1.356,0.136-2.037,0.169c-0.649,0.035-1.31,0.009-1.96,0.007
		c-0.695-0.002-1.391,0.072-2.087,0.082c-0.748,0.012-1.495,0.052-2.239,0.053c-0.612,0.001-1.225-0.053-1.831-0.1
		c-1.028-0.081-2.05-0.211-3.081-0.282c-0.894-0.062-1.807-0.073-2.704-0.073c-0.994,0-1.982-0.106-2.968-0.167
		c-0.022-0.181,0.024-0.373,0.042-0.557c0.02-0.164,0.029-0.324,0.04-0.487c0.015-0.178,0.065-0.354,0.075-0.53"/>
	<path d="M177.799,221.596c-0.838,2.296-1.695,4.603-2.621,6.854c-1.15,2.805-2.067,5.585-3.485,8.265
		c-0.719,1.358-0.957,3.012-1.603,4.202c0.956,0.069,2.429,0.93,3.212,1.334c0.738-0.607,0.985-2.056,1.364-2.903
		c1.008-2.24,1.911-4.562,3.071-6.748c0.776-1.468,1.307-3.048,2.031-4.539c0.579-1.194,1.383-2.35,1.725-3.647
		c0.575-2.193,0.183-5.555-2.276-6.349C178.899,219.312,178.236,220.391,177.799,221.596z"/>
	<path d="M108.768,218.593c0.555,0.086,1.367-0.156,1.958-0.274c0.278-0.054,0.512-0.091,0.792-0.115
		c0.336-0.029,0.306-0.137,0.498,0.203c1.678,2.969,2.808,6.287,4.405,9.331c1.38,2.635,2.784,5.299,3.964,8.027
		c0.353,0.813,0.721,1.612,1.174,2.371c0.177,0.294,0.302,0.595,0.491,0.88c0.102,0.158,0.307,0.383,0.258,0.584
		c-0.341-0.008-0.525,0.253-0.813,0.384c-0.175,0.08-0.393,0.099-0.563,0.183c-0.153,0.076-0.274,0.235-0.434,0.304
		c-0.721,0.31-1.292-0.049-1.659-0.672c-0.479-0.815-0.88-1.622-1.426-2.399c-0.876-1.247-1.468-2.666-2.306-3.965
		c-0.445-0.691-0.691-1.43-1.064-2.149c-0.315-0.612-0.66-1.191-1.033-1.787c-0.767-1.227-1.406-2.458-1.962-3.784
		c-0.474-1.13-1.044-2.174-1.606-3.26c-0.302-0.584-0.591-1.159-0.882-1.742c-0.163-0.326-0.485-0.654-0.252-1.013"/>
	<path fill="#FF0000" d="M144.396,196.285c-0.122-0.05-0.241-0.107-0.364-0.158c-0.268-0.108-0.551-0.196-0.799-0.354
		c-0.298-0.188-0.622-0.323-0.953-0.433c-0.173-0.058-0.259-0.182-0.45-0.178c-0.134,0.004-0.309,0.015-0.436,0.065
		c-0.134,0.052-0.218,0.156-0.307,0.261c-0.122,0.144-0.122,0.244-0.124,0.428c-0.001,0.24,0.11,0.475,0.274,0.642"/>
	<path fill="#FF0000" d="M141.446,196.514c-0.229-0.232-0.431-0.462-0.562-0.76c-0.051-0.112-0.101-0.223-0.146-0.335
		c-0.055-0.135-0.139-0.321-0.098-0.471c0.073-0.265,0.585-0.138,0.761-0.088c0.236,0.065,0.442,0.187,0.66,0.294
		c0.227,0.113,0.459,0.217,0.693,0.317c0.314,0.134,0.646,0.234,0.961,0.372c0.146,0.066,0.314,0.129,0.419,0.256
		c0.099,0.127,0.126,0.323,0.107,0.479c-0.043,0.37-0.516,0.48-0.818,0.521c-0.396,0.053-0.839,0.046-1.225-0.065"/>
	<path fill="#FF0000" d="M141.427,196.944c0.015,0.011,0.015,0.014,0.002,0.005c-0.256-0.109-0.425-0.386-0.581-0.603
		c-0.183-0.253-0.301-0.55-0.477-0.811c-0.086-0.129-0.187-0.259-0.255-0.398c-0.044-0.084-0.135-0.238-0.087-0.34
		c0.088-0.19,0.375-0.19,0.548-0.186c0.188,0.003,0.367,0.092,0.538,0.168c0.161,0.075,0.314,0.158,0.479,0.231
		c0.234,0.102,0.505,0.157,0.72,0.299c0.208,0.141,0.496,0.185,0.734,0.252"/>
</g>
</svg>
