<?xml version="1.0" encoding="utf-8"?>
<!-- Generator: Adobe Illustrator 16.0.4, SVG Export Plug-In . SVG Version: 6.00 Build 0)  -->
<!DOCTYPE svg PUBLIC "-//W3C//DTD SVG 1.1//EN" "http://www.w3.org/Graphics/SVG/1.1/DTD/svg11.dtd">
<svg version="1.1" id="Ebene_1" xmlns="http://www.w3.org/2000/svg" xmlns:xlink="http://www.w3.org/1999/xlink" x="0px" y="0px"
	 width="208px" height="368px" viewBox="0 0 208 368" enable-background="new 0 0 208 368" xml:space="preserve">
<g>
	<path fill="#245977" d="M88.777,84.443c-0.403,0.121-0.82,0.294-1.299,0.535c-1.426,0.719-3.032,1.218-4.646,0.994
		c-1.442-0.201-2.998-0.426-4.479-0.604c-0.806-0.097-1.452-0.296-2.239-0.516c-0.47-0.13-0.962-0.472-1.449-0.509
		c-0.45-0.033-0.903,0.133-1.378,0.152c-1.267,0.05-2.545,0.105-3.808-0.031c-1.562-0.171-2.605,1.889-2.766,3.267
		c-0.21,1.799,0.776,2.761,1.52,4.202c0.134,0.263,0.243,0.537,0.329,0.819c0.076,0.252,0.078,0.512,0.149,0.761
		c0.081,0.287,0.177,0.568,0.26,0.855c0.247,0.842,0.531,1.658,0.866,2.467c0.137,0.327,0.27,0.658,0.412,0.982
		c0.139,0.312,0.321,0.605,0.42,0.934c0.083,0.274,0.157,0.535,0.346,0.759c0.205,0.246,0.457,0.202,0.744,0.288
		c0.181,0.053,0.35,0.125,0.534,0.172c0.218,0.056,0.438,0.085,0.661,0.115c0.438,0.062,0.889,0.082,1.329,0.029
		c0.525-0.061,1.073-0.067,1.601-0.022c0.289,0.024,0.544-0.014,0.799-0.141c0.159-0.079,0.45-0.158,0.527-0.326
		c0.049-0.106,0.067-0.29,0.079-0.407c0.023-0.219,0.027-0.438,0.072-0.655c0.092-0.439,0.329-0.819,0.484-1.235
		c0.14-0.377,0.303-0.733,0.485-1.092c0.054-0.106,0.072-0.217,0.126-0.321c0.053-0.103,0.109-0.206,0.164-0.308
		c0.124-0.234,0.286-0.447,0.413-0.68c0.182-0.333,0.4-0.627,0.629-0.928c0.184-0.237,0.359-0.477,0.559-0.698
		c0.092-0.103,0.2-0.186,0.29-0.29c0.102-0.117,0.209-0.231,0.317-0.34c0.183-0.183,0.374-0.356,0.577-0.517
		c0.256-0.2,0.567-0.312,0.815-0.519c0.236-0.195,0.563-0.294,0.852-0.388c0.648-0.21,1.326-0.297,2.006-0.314
		c0.104-0.003,0.206-0.004,0.31-0.004c0.933,0,2.093-0.206,2.741,0.633c0.247,0.317,0.261,0.742,0.581,1
		c0.447,0.358,1.403,0.326,1.933,0.263c0.222-0.604-0.494-0.949-0.272-1.552c0.924-0.195,1.713,0.959,2.704,0.623
		c1.328-0.449-0.7-1.678,0.184-2.374c0.652-0.513,2.155,0.433,2.814-0.224c1.05-1.044-1.207-1.247-0.902-2.024
		c0.646-0.08,1.312-0.021,1.898,0.132c0.483,0.127,1.209,0.409,1.562-0.188c0.282-0.477,0.031-1.506-0.279-1.887
		c-0.857-1.057-2.122-1.842-3.501-1.925c-1.343-0.081-2.377,0.849-3.692,0.802C90.211,84.176,89.517,84.222,88.777,84.443z"/>
	<path fill="#245977" d="M59.839,335.703c-0.115,0.464-0.274,0.946-0.412,1.387c-0.235,0.76-0.406,1.432-0.328,2.231
		c0.044,0.443,0.108,0.9,0.201,1.345c0.185,0.877,0.116,1.716,0.435,2.581c0.291,0.795,0.702,1.546,0.909,2.372
		c0.325,1.301-0.104,2.743-1.059,3.695c-0.667,0.664-1.603,1.004-2.523,1.115c-0.937,0.111-1.935,0.197-2.88,0.188
		c-2.123-0.018-4.189-0.738-6.327-0.738c-1.542,0-2.974,0.204-4.403,0.371c-0.796,0.094-1.414,0.063-2.168,0.403
		c-1.062,0.482-1.807,0.914-3.017,1.066c-1.138,0.143-2.305,0.182-3.459,0.18c-0.882-0.002-1.696,0.311-2.587,0.183
		c-0.552-0.079-0.471-0.299-1.038,0.005c-0.338,0.182-0.609,0.559-0.927,0.78c-0.589,0.415-1.708,0.396-2.289-0.188
		c-0.76-0.763,0.35-1.102,0.394-1.851c-0.591-0.086-1.217,0.045-1.812-0.032c-0.493-0.064-0.779-0.277-1.255-0.398
		c-0.523-1.477,3.434-0.435,2.695-2.329c-0.548-0.074-1.33,0.102-1.812-0.253c-0.398-0.293-0.65-0.992-0.006-1.252
		c0.476-0.191,1.212,0.324,1.658,0.38c0.577,0.069,0.933-0.228,1.45-0.22c0.104-0.549-1.077-0.702-1.399-1.108
		c-0.521-0.655-0.122-1.253,0.459-1.661c1.018-0.716,2.318,0.233,3.535,0.229c1.253-0.004,2.47-0.01,3.691-0.32
		c1.029-0.262,1.923-0.812,2.923-1.109c1.174-0.35,1.976-0.992,2.979-1.647c1.808-1.183,3.779-2.132,5.653-3.118
		c1.389-0.73,2.5-1.818,3.415-3.082c0.237-0.325,0.562-0.586,0.84-0.887c0.282-0.307,0.504-0.644,0.76-0.982
		c0.386-0.51,0.781-1.011,1.163-1.522c0.247-0.33,0.395-0.709,0.631-1.032c0.097-0.13,0.271-0.385,0.416-0.455
		c0.248-0.119,0.312,0.08,0.524,0.169c0.203,0.085,0.303,0.076,0.494,0.232c0.344,0.28,0.503,0.703,0.829,0.996
		c0.843,0.755,1.797,1.39,2.672,2.106c0.315,0.258,0.888,0.565,1.094,0.928c0.105,0.182,0.03,0.441-0.003,0.671
		C59.928,335.316,59.888,335.508,59.839,335.703z"/>
	<path d="M169.384,209.462c-0.314-0.609-0.741-1.203-1.311-1.785c-1.076-1.1-2.951-0.673-4.456-0.673
		c-3.155,0-6.342,0.092-9.438,0.654c-3.364,0.613-6.701,1.429-10.104,1.818c-4.646,0.532-9.25,1.071-13.798,1.983
		c-3.767,0.756-9.767,2.564-13.516,0.426c2,3.249,2.48,5.635,2.971,9.351c2.513,0.777,6.888-1.928,9.433-2.268
		c3.524-0.469,6.848-0.942,10.01-1.88c3.192-0.945,6.336-1.901,9.875-2.013c1.873-0.061,3.756,0.012,5.631,0
		c1.897-0.014,3.222,0.75,4.946,0.75c-2.462,6.61-3.376,14.016-6.024,21.15c-2.621,7.063-4.789,13.891-6.539,21.18
		c-3.459,1.26-7.062-4.527-8.156-6.981c-1.824-4.093-4.511-7.428-7.246-11.012c-1.1-1.441-2.197-2.883-3.274-4.34
		c-1.367-1.852-2.736-3.724-3.982-5.666c-0.556-0.866-1.102-1.743-1.697-2.58c-0.564-0.797-0.947-1.704-1.464-2.532
		c-1.026-1.645-2.258-3.138-3.226-4.827c-0.37-0.649-0.751-1.294-1.138-1.935c-0.291-0.484-4.137-5.527-4.346-5.749
		c-0.24-0.253-0.487-0.512-0.732-0.766c-1.308-1.354-3.02-2.144-4.558-3.181c-0.879-0.595-1.792-1.132-2.676-1.713
		c-0.744-0.487-1.423-1.056-2.207-1.484c-1.005-0.549-2.081-0.941-3.061-1.545c-0.81-0.5-1.669-0.925-2.56-1.265
		c-0.325-0.123-0.896-0.189-1.143-0.434c-0.228-0.228-0.319-0.7-0.45-0.993c-0.894-1.992-1.801-3.954-2.589-6.011
		c-1.562-4.072-2.86-8.253-3.964-12.535c-0.618-2.407-1.163-4.846-1.671-7.29c-0.479-2.305-0.912-4.62-1.292-6.948
		c-0.478-2.923-0.868-5.863-1.156-8.824c-0.413-4.281-0.845-8.542-1.412-12.8c-0.497-3.718-0.842-7.452-1.292-11.176
		c-0.373-3.084-1.112-6.079-1.646-9.124c-0.801-4.555-1.446-9.138-1.933-13.737c-0.082-0.774-0.166-1.549-0.269-2.32
		c-0.05-0.385-0.104-0.769-0.166-1.152c-0.046-0.298-0.143-0.603-0.123-0.904c0.006-0.07,0.017-0.142,0.017-0.213
		c0-0.364-0.024-0.726-0.024-1.09c0-0.406-0.024-0.81-0.024-1.215c0-0.432,0.061-0.855,0.074-1.286
		c0.024-0.74,0.083-1.483,0.119-2.223c0.034-0.7,0.1-1.396,0.188-2.092c0.083-0.652,0.203-1.294,0.304-1.941
		c0.077-0.505,0.207-1,0.279-1.504c0.035-0.251,0.087-0.506,0.121-0.749c0.024-0.169,0.133-0.389,0.099-0.555
		c-0.108-0.031-0.206,0.091-0.294,0.135c-0.097,0.049-0.195,0.109-0.289,0.169c-0.227,0.144-0.444,0.244-0.693,0.337
		c-0.192,0.072-0.369,0.209-0.556,0.298c-0.499,0.239-1.019,0.442-1.564,0.539c-0.309,0.055-0.619,0.093-0.932,0.118
		c-1.492,0.126-3.005-0.042-4.491,0.101c-0.031,0.248-0.003,0.521-0.003,0.772c0,0.731,0.072,1.444,0.072,2.177
		c0,0.569,0.024,1.134,0.024,1.702c0,0.706,0.054,1.401,0.102,2.104c0.055,0.792,0.094,1.591,0.171,2.383
		c0.043,0.451,0.111,0.902,0.182,1.351c0.06,0.381,0.092,0.762,0.146,1.143c0.054,0.381,0.057,0.768,0.084,1.15
		c0.024,0.363,0.08,0.727,0.115,1.089c0.043,0.435,0.142,0.87,0.146,1.308c0.006,0.529,0.111,1.044,0.171,1.574
		c0.113,1.005-0.019,2.051,0.097,3.044c0.06,0.514,0.06,1.023,0.121,1.53c0.016,0.125,0.016,0.25,0.023,0.376
		c0.373,6.037,1.31,12.034,1.898,18.069c0.467,4.801,1.195,9.632,1.195,14.452c0,0.693,0,1.386,0,2.079
		c0,1.371,0.16,2.635,0.16,3.998c0,2.766-0.098,5.6,0.158,8.31c0.086,0.903-0.071,1.828,0.037,2.728
		c0.13,1.083,0.292,2.249,0.283,3.358c-0.021,2.997-0.176,5.974-0.16,8.955c0.018,3.199-0.22,6.521-0.487,9.712
		c-0.142,1.686,0.13,3.403-0.026,5.092c-0.156,1.667-0.299,3.344-0.285,5.024c0.013,1.664-0.319,3.297-0.319,4.972
		c-0.001,1.501,0,3.003,0,4.504c0,3.149,0.269,6.449-0.125,9.562c-0.28,2.209-0.62,4.354-0.96,6.557
		c-0.201,1.309-0.459,2.738-0.529,4.054c-0.049,0.918,0.217,1.762,0.123,2.697c-0.281,2.823-0.55,5.649-0.874,8.467
		c-0.445,3.873-1.002,7.73-1.464,11.601c-0.444,3.709-0.223,7.865-1.297,11.447c-0.625,2.075-1.93,3.785-2.06,6.009
		c-0.096,1.645,0.457,3.214,0.506,4.845c0.06,2.035-0.566,4.039-0.866,6.035c-1.516,10.09-2.859,20.218-6.062,29.814
		c-0.977,2.926-1.811,5.897-2.623,8.872c-0.406,1.487-0.807,2.978-1.218,4.464c-0.189,0.684-0.438,1.35-0.692,2.012
		c-0.365,0.953-0.727,1.798-1.24,2.68c-0.236,0.403-0.467,0.802-0.712,1.196c-0.389,0.629-0.778,1.171-1.231,1.742
		c-0.198,0.249-0.328,0.53-0.509,0.783c-0.147,0.203-0.339,0.39-0.49,0.6c-0.146,0.205-0.312,0.405-0.472,0.614
		c-0.127,0.168-0.458,0.53-0.481,0.734c0.66,0.027,1.324,0.166,1.95,0.392c0.48,0.174,0.936,0.399,1.383,0.64
		c0.459,0.245,0.857,0.589,1.308,0.852c1.135,0.663,2.641,1.296,3.916,1.45c0.231,0.028,0.606,0.082,0.8-0.055
		c0.166-0.117,0.242-0.459,0.289-0.651c0.146-0.607,0.283-1.218,0.438-1.817c0.29-1.136,0.601-2.367,0.852-3.501
		c0.147-0.661,0.212-1.29,0.378-1.942c0.093-0.365,0.136-0.729,0.218-1.091c0.133-0.589,0.203-1.214,0.49-1.751
		c0.301-0.563,0.513-1.137,0.699-1.75c0.686-2.249,1.378-4.496,2.071-6.744c1.666-5.401,3.34-10.802,4.938-16.225
		c1.15-3.901,2.268-7.828,3.44-11.731c1.105-3.686,2.655-7.169,3.69-10.88c0.948-3.398,1.89-6.8,2.884-10.186
		c0.508-1.725,1.027-3.445,1.57-5.158c0.528-1.667,1.049-3.351,1.541-5.046c0.922-3.18,1.951-6.486,2.518-9.721
		c0.652-3.726,0.8-7.455,1.898-11.108c0.475-1.579,1.231-3.068,1.678-4.649c0.332-1.177,0.758-2.33,1.018-3.525
		c0.031-0.144,0.067-0.284,0.107-0.426c0.081-0.281,0.18-0.56,0.285-0.843c0.314-0.848,0.688-1.755,1.139-2.529
		c0.186-0.318,0.384-0.609,0.591-0.903c0.073-0.105,0.153-0.254,0.249-0.337c0.143-0.123,0.387-0.109,0.513-0.248
		c0.004-0.006,0.009-0.012,0.013-0.018c0.326,0.185,0.634,0.418,0.914,0.725c2.715,2.98,3.96,8.311,5.682,12.106
		c2.201,4.852,4.279,9.806,6.587,14.583c0.989,2.047,1.942,4.296,3.12,6.164c1.403,2.23,2.817,4.356,3.777,6.932
		c0.623,1.674,1.645,3.533,1.654,5.334c0.014,2.073-0.162,4.141-0.295,6.207c-0.126,1.956-0.094,3.914-0.15,5.859
		c-0.005,0.189,0.027,0.393,0.004,0.58c-0.049,0.402-0.137,0.826-0.148,1.234c-0.037,1.378-0.069,2.699-0.262,4.066
		c-0.205,1.462-0.414,2.922-0.637,4.38c-0.499,3.249-1.494,6.209-2.21,9.406c-1.579,7.051-3.117,14.124-4.229,21.305
		c-0.712,4.598-1.556,9.37-1.559,14.021c-0.001,3.196,0.003,6.41,0.687,9.545c0.342,1.571,1.061,3.031,2.572,3.543
		c1.681,0.569,3.347,0.878,5.12,0.879c1.954,0.002,3.803,0.439,5.766,0.465c2.372,0.031,4.874,0.547,7.278,0.245
		c1.18-0.147,2.26-0.683,3.499-0.709c1.235-0.025,2.475,0.03,3.711-0.001c2.099-0.052,4.094-0.463,6.182-0.465
		c1.74-0.001,3.652-0.044,5.428-0.269c-0.372-0.843-0.576-2.076-0.688-2.99c-0.062-0.513-0.074-1.009-0.169-1.448
		c-0.105-0.492-0.335-1.035-0.316-1.544c-0.537,0.016-1.028-0.218-1.598-0.267c-0.689-0.06-1.215,0.157-1.86,0.238
		c-1.685,0.208-3.465-0.427-5.094-0.761c-3.159-0.648-6.549-1.486-9.769-1.98c-2.997-0.46-5.73-1.043-8.465-2.101
		c-0.782-0.304-2.502-0.342-3.043-1.151c-0.648-0.971-0.056-2.635,0.207-3.64c0.421-1.611,0.846-3.226,1.205-4.855
		c0.495-2.242,0.461-4.612,0.99-6.879c0.479-2.047,0.931-4.45,0.925-6.568c-0.008-2.489,0.294-4.638,0.996-6.983
		c0.299-1.004,0.776-1.935,1.184-2.894c0.052-0.121,0.103-0.241,0.15-0.362c0.338-0.846,0.478-1.887,0.956-2.666
		c0.504-0.821,2.88-2.973,3.777-2.497c0.095,0.051,0.183,0.115,0.277,0.175c0.161,0.101,0.315,0.234,0.466,0.355
		c0.2,0.166,0.405,0.328,0.586,0.523c0.093,0.1,0.181,0.208,0.254,0.329c0.065,0.106,0.1,0.25,0.177,0.343
		c0.067,0.079,0.159,0.134,0.229,0.214c0.084,0.099,0.159,0.207,0.228,0.32c0.146,0.241,0.264,0.505,0.371,0.773
		c0.114,0.292,0.216,0.591,0.318,0.89c0.333,0.97,0.49,2,0.605,3.036c0.055,0.491,0.099,0.965,0.081,1.462
		c-0.015,0.44-0.02,0.901,0.056,1.336c0.354-0.173,0.702-0.437,1.037-0.658c0.32-0.212,0.615-0.464,0.933-0.684
		c0.294-0.202,0.613-0.329,0.922-0.497c1.436-0.789,2.922-1.457,4.352-2.269c0.461-0.262,0.906-0.556,1.385-0.772
		c0.337-0.152,0.695-0.221,1.03-0.378c0.685-0.322,1.34-0.772,2.044-1.038c0.481-0.181,0.99-0.403,1.475-0.545
		c0.227-0.064,0.451-0.053,0.678-0.113c0.248-0.067,0.448-0.211,0.689-0.302c-0.163-0.403-0.524-0.735-0.727-1.127
		c-0.162-0.311-0.29-0.639-0.425-0.967c-0.13-0.324-0.313-0.603-0.452-0.921c-0.303-0.685-0.578-1.398-0.824-2.113
		c-0.276-0.793-0.352-1.709-0.484-2.552c-0.208-1.323-0.199-2.904-0.02-4.24c0.093-0.703,0.64-1.175,0.974-1.717
		c0.197-0.319,0.398-0.644,0.62-0.938c0.172-0.227,0.424-0.335,0.649-0.479c0.533-0.341,1.078-0.678,1.55-1.132
		c2.187-2.096,5.225-1.945,7.434-4.193c1.677-1.706,2.736-3.972,3.625-6.16c0.801-1.974,2.082-3.827,2.316-5.948
		c0.121-1.096,0.379-2.087,0.53-3.169c0.331-2.368,0.861-4.767,1.153-7.141c0.139-1.12,0.492-2.277,0.746-3.359
		c0.264-1.13,0.234-2.312,0.481-3.424c0.489-2.21,0.463-4.632,0.685-6.891c0.521-5.297,2.322-10.71,3.975-15.893
		c0.883-2.77,1.589-5.623,2.429-8.404c0.765-2.531,1.807-5.409,2.144-7.936C170.235,213.555,170.396,211.427,169.384,209.462z"/>
	<path fill="#245977" d="M131.583,69.349c0.389-3.1,0.28-6.322,0.116-9.49c0.105-0.02,1.251-0.138,1.355-0.16
		c3.774-0.88,5.424-3.657,5.997-7.432c0.224-1.464-0.202-6.544-0.297-7.313c-0.112-0.846,0.108-1.526-0.267-2.301
		c-9.619,0-17.416,0.029-19.013,0.226c0.035,1.076-0.165,2.219-0.253,3.295c-0.045,0.527-0.163,1.051-0.116,1.611
		c0.291,3.401,0.396,6.723,2.917,9.343c1.644,1.711,4.177,2.611,6.72,2.838c0.032,0.84-0.122,1.86-0.122,2.277
		c0,1.162,0.289,2.646,0.216,3.769c-0.142,2.21,0,4.301,0,6.44c0,1.124,0.047,2.282-0.296,3.367
		c-0.344,1.081-1.086,1.885-2.078,2.417c-0.312,0.167-0.65,0.26-0.99,0.382c-0.625,0.224-1.285,0.496-1.909,0.662
		c-0.292,0.077-0.567,0.19-0.865,0.237c-0.284,0.044-0.619,0.142-0.876,0.272c-0.104,0.053-0.156,0.091-0.17,0.211
		c-0.023,0.209,0.238,0.378,0.393,0.475c0.266,0.164,0.507,0.358,0.774,0.519c0.912,0.545,2.067,0.695,3.073,0.984
		c1.156,0.333,2.34,0.429,3.543,0.43c1.223,0.001,2.44-0.003,3.655-0.155c1.127-0.142,2.229-0.288,3.295-0.688
		c0.431-0.162,0.907-0.294,1.304-0.53c0.229-0.136,0.477-0.292,0.688-0.457c0.102-0.079,0.238-0.159,0.308-0.268
		c0.04-0.065,0.125-0.35,0.021-0.401c-0.154-0.077-0.332-0.102-0.499-0.145c-0.207-0.055-0.41-0.134-0.612-0.205
		c-0.451-0.158-0.908-0.308-1.361-0.468c-0.61-0.215-1.233-0.392-1.852-0.584c-0.211-0.068-0.431-0.122-0.632-0.199
		c-0.32-0.118-0.648-0.288-0.954-0.445c-0.329-0.171-0.626-0.401-0.813-0.727c-0.271-0.475-0.412-1.019-0.507-1.552
		c-0.228-1.267-0.205-2.577-0.125-3.857C131.399,70.932,131.482,70.14,131.583,69.349z"/>
	<path fill="#FF0000" d="M130.053,57.75c-3.053,0.386-7.12-1.482-8.021-4.641c-0.162-0.568-0.342-1.204-0.386-1.765
		c-0.096-1.193-0.566-2.267-0.367-3.507c0.084-0.522,0.453-1.644,1.207-1.436c0.794,0.22,0.598,1.74,1.663,1.423
		c0.248-1.798-2.811-2.966-2.503-4.876c0.176-1.09,1.604-0.904,2.374-0.443c0.69,0.412,1.233,1.216,1.469,1.995
		c0.301,0.996,0.162,2.032,0.234,3.077c0.036,0.511,0.478,2.857,1.543,1.793c0.433-0.433-0.178-0.943,0.02-1.295
		c0.325-0.581,0.893-0.15,1.085,0.251c0.325,0.672,0.015,2.168,1.228,2.116c0.963-0.044,1.119-1.585,0.941-2.367
		c-0.227-0.996-1.232-1.743-1.453-2.739c-0.178-0.811,0.044-2.233,1.12-1.469c0.575,0.408,0.705,1.969,1.774,1.594
		c0.949-0.332,0.479-2.016,0.593-2.751c0.155-1,1.012-2.005,1.714-2.716c0.509-0.514,1.868-1.528,2.525-0.898
		c0.596,0.57,0.367,2.022-0.062,2.636c-0.435,0.619-2.08,2.689-0.229,2.549c-0.077,0.744,0.092,1.797,0.139,2.608
		c0.052,0.906,0.12,1.791,0.12,2.744c0,1.968-0.452,3.983-1.408,5.699c-0.609,1.091-1.182,1.543-2.315,1.819
		C132.07,57.395,131.09,57.619,130.053,57.75z"/>
	<path fill="#FD1813" d="M126.825,45.158c0-1.977,0.252-3.409-1.466-4.714c-0.635-0.482-1.753-0.932-1.192-1.877
		c0.434-0.729,1.514-0.729,2.068-0.253c0.558,0.479,0.487,1.373,1.175,1.733c0.359,0.189,0.539-0.438,0.894,0.129
		c0.199,0.317-0.118,0.856-0.19,1.142c-0.221,0.891,0.087,4.204-1.267,4.26c-0.028-0.33-0.017-0.668-0.021-1.006"/>
	<path fill="#245977" d="M71.222,80.078c-0.043,0.021-0.084,0.04-0.127,0.062c-0.579,0.293-1.222,0.366-1.88,0.438
		c-0.902,0.099-1.805,0.254-2.709,0.327c-0.835,0.068-1.604,0.015-2.438-0.084c-1.376-0.161-3.225-0.585-3.718-1.989
		c-0.49-1.395-0.61-2.965-0.831-4.429c-0.766-5.083-1.225-10.201-1.922-15.295c-0.198-1.447-0.52-2.869-0.662-4.324
		c-0.11-1.13-0.264-2.303-0.472-3.418c-0.146-0.78-0.266-1.561-0.398-2.342c-0.066-0.394-0.163-0.865-0.327-1.233
		c-0.097-0.222-0.337-0.419-0.259-0.669c1.207,0.202,2.37,0.529,3.549,0.845c0.599,0.16,1.284,0.255,1.9,0.341
		c0.994,0.139,2.027,0.438,3.041,0.248c0.599-0.11,1.338-0.183,1.974-0.043c0.642,0.144,1.275,0.224,1.906-0.01
		c0.328-0.121,0.721-0.3,1.067-0.331c0.669-0.061,1.202,0.352,1.565-0.334c0.267-0.504,0.32-1.08,0.482-1.618
		c0.271-0.895,0.486-1.914,1.137-2.643c-0.976-0.153-1.92,0.002-2.896-0.049c-1.538-0.079-3.098-0.089-4.62,0.045
		c-1.779,0.155-3.454,0.533-5.163,1.101c-1.057,0.352-2.016,0.783-2.865,1.479c-0.381,0.312-0.703,0.646-1.145,0.861
		c0.198,0.249,0.971,0.566,1.314,0.72c0.656,0.29,1.326,0.558,2.024,0.742c1.737,0.462,3.503,1.085,5.314,1.18
		c1.604,0.084,3.183-0.053,4.784-0.192c1.613-0.142,3.21-0.499,4.688-1.124c0.645-0.272,1.261-0.41,1.898-0.71
		c0.384-0.181,0.741-0.407,1.093-0.623c0.603-0.368,1.61-0.896,1.851-1.583c-0.272,0.114-0.581,0.407-0.863,0.558
		c-0.311,0.169-0.59,0.341-0.902,0.522c-0.686,0.398-1.386,0.71-2.068,1.127c0.275-0.323,0.324-0.97,0.488-1.366
		c0.194-0.47,0.408-0.926,0.648-1.395c0.1-0.193,0.151-0.444,0.396-0.479c0.159-0.021,0.604,0.19,0.767,0.254
		c0.282,0.108,0.558,0.222,0.828,0.356c0.138,0.067,0.571,0.299,0.632,0.433c0.077,0.17-0.061,0.478-0.092,0.674
		c-0.08,0.523-0.085,1.054-0.12,1.58c-0.081,1.22-0.283,2.429-0.368,3.645c-0.216,3.11-0.675,6.199-0.838,9.325
		c-0.077,1.476-0.202,2.945-0.294,4.42c-0.089,1.467-0.104,2.938-0.342,4.394c-0.292,1.789-0.66,3.556-1.025,5.345
		c-0.18,0.874-0.374,1.746-0.565,2.607c-0.109,0.487-0.189,1.022-0.485,1.402c-0.268,0.342-0.733,0.481-1.152,0.62
		C72.424,79.645,71.793,79.811,71.222,80.078z"/>
	<path fill="#FEA621" d="M73.787,50.007c0.488-0.151,0.902-0.464,1.369-0.659c0.339-0.143,0.883-0.432,1.169-0.046
		c0.135,0.184-0.038,0.462-0.063,0.657c-0.035,0.289-0.066,0.578-0.098,0.866c-0.27,2.568-0.386,5.148-0.515,7.726
		c-0.088,1.756-0.551,3.524-0.882,5.254c-0.364,1.913-0.399,3.877-0.501,5.83c-0.093,1.802-0.202,3.744-0.685,5.464
		c-0.193,0.691-0.654,1.32-1.035,1.954c-0.902,1.498-3.082,1.308-4.695,1.421c-0.92,0.064-1.757,0.624-2.683,0.643
		c-0.96,0.019-1.769-0.456-2.647-0.742c-1.016-0.331-1.298-1.128-1.652-2.075c-0.545-1.466-0.827-3.18-1.117-4.723
		c-0.702-3.738-0.816-7.691-1.045-11.485c-0.168-2.768-0.62-5.482-0.481-8.255c0.026-0.513,0.097-1.474,0.572-1.817
		c0.414-0.299,1.608,0.33,2.227,0.418c1.811,0.26,3.728,0.187,5.538,0.379c1.658,0.178,3.3,0.215,4.881-0.232
		C72.216,50.363,73.016,50.247,73.787,50.007z"/>
	<path fill="#FFFFFF" stroke="#FFFFFF" stroke-width="0.2392" stroke-miterlimit="10" d="M64.547,75.579
		c-0.008,0.132,0.165,0.556-0.244,0.47c-0.127-0.028-0.232-0.157-0.14-0.271c0.103-0.133,0.447-0.062,0.598-0.056"/>
	<path fill="#FFFFFF" stroke="#FFFFFF" stroke-width="0.2392" stroke-miterlimit="10" d="M67.72,75.834
		c0.024,0.097-0.151,0.363-0.399,0.21c-0.285-0.179,0.121-0.491,0.293-0.306"/>
	<path fill="#FFFFFF" stroke="#FFFFFF" stroke-width="0.2392" stroke-miterlimit="10" d="M66.435,74.105
		c0.11,0.146-0.007,0.444-0.292,0.335c-0.304-0.11,0.063-0.476,0.236-0.294"/>
	<path fill="#FFFFFF" stroke="#FFFFFF" stroke-width="0.2392" stroke-miterlimit="10" d="M64.187,72.983
		c0.019,0.025-0.081,0.049,0.043,0.052c0.054,0.16-0.049,0.328-0.27,0.279c-0.053-0.175,0.023-0.339,0.279-0.285"/>
	<path fill="#FFFFFF" stroke="#FFFFFF" stroke-width="0.2392" stroke-miterlimit="10" d="M66.611,71.798
		c-0.096,0.158-0.42,0.417-0.548,0.106c-0.079-0.182,0.314-0.531,0.447-0.286"/>
	<path fill="#FFFFFF" stroke="#FFFFFF" stroke-width="0.2392" stroke-miterlimit="10" d="M68.928,72.616
		c-0.017,0.047-0.053,0.073-0.069,0.12c-0.06,0.005-0.09,0.01-0.147-0.004c-0.043-0.151,0.152-0.28,0.274-0.154"/>
	<path fill="#FFFFFF" stroke="#FFFFFF" stroke-width="0.2392" stroke-miterlimit="10" d="M70.307,74.611
		c-0.283,0.582-0.473-0.133-0.051-0.046"/>
	<path fill="#FFFFFF" stroke="#FFFFFF" stroke-width="0.2392" stroke-miterlimit="10" d="M71.703,74.115
		c-0.001,0.033-0.062,0.508-0.223,0.253c-0.093-0.146,0.142-0.338,0.277-0.206"/>
	<path fill="#FFFFFF" stroke="#FFFFFF" stroke-width="0.2392" stroke-miterlimit="10" d="M71.151,72.077
		c0.024,0.023,0.11,0.298-0.126,0.295c-0.238-0.004-0.161-0.322,0.073-0.341"/>
	<path fill="#FFFFFF" stroke="#FFFFFF" stroke-width="0.2392" stroke-miterlimit="10" d="M68.638,69.721
		c0.049,0.1,0.134,0.385-0.14,0.343c-0.269-0.038-0.145-0.298,0.087-0.305"/>
	<path fill="#FFFFFF" stroke="#FFFFFF" stroke-width="0.2392" stroke-miterlimit="10" d="M66.962,67.143
		c0.009,0.066,0.004,0.377-0.238,0.286c-0.231-0.088-0.083-0.439,0.186-0.376"/>
	<path fill="#FFFFFF" stroke="#FFFFFF" stroke-width="0.2392" stroke-miterlimit="10" d="M64.757,66.24
		c0.034,0.018,0.021,0.059,0.098,0.059c0.021,0.067,0.017,0.181-0.012,0.246c-0.423,0.057-0.262-0.54,0.022-0.299"/>
	<path fill="#FFFFFF" stroke="#FFFFFF" stroke-width="0.2392" stroke-miterlimit="10" d="M66.493,64.498
		c0.137,0.15-0.203,0.403-0.452,0.248c-0.26-0.159,0.079-0.515,0.295-0.388"/>
	<path fill="#FFFFFF" stroke="#FFFFFF" stroke-width="0.2392" stroke-miterlimit="10" d="M67.746,62.595
		c-0.008,0.03-0.083,0.09-0.072,0.164c-0.438,0.1-0.375-0.451,0.021-0.422c0.013,0.026,0.017,0.054,0.004,0.08"/>
	<path fill="#FFFFFF" stroke="#FFFFFF" stroke-width="0.2392" stroke-miterlimit="10" d="M69.335,59.445
		c-0.031,0.438-0.667-0.296-0.052-0.17c0.01,0.041,0.01,0.081,0.001,0.123"/>
	<path fill="#FFFFFF" stroke="#FFFFFF" stroke-width="0.2392" stroke-miterlimit="10" d="M66.24,59.853
		c0.128,0.125-0.156,0.41-0.285,0.161c-0.103-0.199,0.242-0.39,0.401-0.243"/>
	<path fill="#FFFFFF" stroke="#FFFFFF" stroke-width="0.2392" stroke-miterlimit="10" d="M66.825,58.092
		c-0.008,0.124-0.036,0.489-0.387,0.321c-0.326-0.16,0.073-0.558,0.282-0.37"/>
	<path fill="#FFFFFF" stroke="#FFFFFF" stroke-width="0.2392" stroke-miterlimit="10" d="M66.7,56.338
		c0.051,0.11,0.029,0.53-0.352,0.377c-0.302-0.121-0.009-0.438,0.294-0.38"/>
	<path fill="#FFFFFF" stroke="#FFFFFF" stroke-width="0.2392" stroke-miterlimit="10" d="M62.376,69.788
		c0.047,0.12-0.235,0.403-0.448,0.188c-0.292-0.285,0.516-0.544,0.509-0.229"/>
	<path fill="#FFFFFF" stroke="#FFFFFF" stroke-width="0.2392" stroke-miterlimit="10" d="M61.606,67.737
		c0.321,0.004,0.165,0.579-0.188,0.42c-0.333-0.15,0.013-0.616,0.406-0.408"/>
	<path fill="#FFFFFF" stroke="#FFFFFF" stroke-width="0.2392" stroke-miterlimit="10" d="M65.679,69.653
		c-0.073,0.231-0.548,0.233-0.553-0.037c-0.005-0.291,0.744-0.408,0.668-0.09"/>
	<path fill="#FFFFFF" stroke="#FFFFFF" stroke-width="0.2392" stroke-miterlimit="10" d="M72.196,66.715
		c-0.092,0.193-0.403,0.391-0.512,0.064c-0.048-0.149,0.078-0.289,0.296-0.287c0.219,0.005,0.248,0.104,0.324,0.271"/>
	<path fill="#FFFFFF" stroke="#FFFFFF" stroke-width="0.2392" stroke-miterlimit="10" d="M72.382,69.52
		c-0.026-0.007-0.046,0.027,0.046,0.011c0.004,0.15-0.221,0.136-0.37,0.096c-0.159-0.212,0.083-0.443,0.384-0.358
		c0.025,0.065,0.063,0.147,0.054,0.215"/>
	<path fill="#FFFFFF" stroke="#FFFFFF" stroke-width="0.2392" stroke-miterlimit="10" d="M73.124,72.18
		c0.083,0.157-0.179,0.515-0.347,0.235c-0.083-0.137,0.106-0.387,0.296-0.373c0.226,0.016,0.217,0.226,0.257,0.369"/>
	<path fill="#FFFFFF" stroke="#FFFFFF" stroke-width="0.2392" stroke-miterlimit="10" d="M73.564,74.257
		c0.072,0.182,0.047,0.565-0.303,0.552c-0.4-0.015-0.232-0.552,0.125-0.468c0.007,0.062,0.021,0.153-0.002,0.212"/>
	<path fill="#FFFFFF" stroke="#FFFFFF" stroke-width="0.2392" stroke-miterlimit="10" d="M70.389,76.232
		c-0.143,0.178-0.806,0.338-0.657-0.078c0.112-0.317,0.79-0.134,0.487,0.156"/>
	<path fill="#FFFFFF" stroke="#FFFFFF" stroke-width="0.2392" stroke-miterlimit="10" d="M64.036,76.95
		c0.097,0.156-0.052,0.416-0.273,0.243c-0.136-0.108-0.078-0.562,0.171-0.379"/>
	<path fill="#FFFFFF" stroke="#FFFFFF" stroke-width="0.2392" stroke-miterlimit="10" d="M63.079,75.285
		c0.415,0.651-0.859,0.482-0.438,0.062"/>
	<path fill="#FFFFFF" stroke="#FFFFFF" stroke-width="0.2392" stroke-miterlimit="10" d="M61.189,74.708
		c-0.081,0.001,0.021,0.005,0.044,0.008c0.12,0.826-0.952-0.236-0.037-0.14"/>
	<path fill="#FFFFFF" stroke="#FFFFFF" stroke-width="0.2392" stroke-miterlimit="10" d="M61.854,73.518
		c0.018,0.191-0.28,0.495-0.438,0.152c-0.099-0.213,0.299-0.415,0.5-0.281"/>
	<path fill="#FFFFFF" stroke="#FFFFFF" stroke-width="0.2392" stroke-miterlimit="10" d="M60.584,72.578
		c0.041,0.184-0.139,0.289-0.277,0.076c-0.152-0.235,0.123-0.395,0.402-0.332"/>
	<path fill="#FFFFFF" stroke="#FFFFFF" stroke-width="0.2392" stroke-miterlimit="10" d="M62.635,72.248
		c-0.36,0.45-0.676-0.343,0.011-0.22"/>
	<path fill="#FFFFFF" stroke="#FFFFFF" stroke-width="0.2392" stroke-miterlimit="10" d="M64.244,71.896
		c-0.012,0.029-0.085,0.088-0.072,0.161c-0.327,0.166-0.535-0.273-0.194-0.352"/>
	<path fill="#FFFFFF" stroke="#FFFFFF" stroke-width="0.2392" stroke-miterlimit="10" d="M64.296,70.893
		c0.031,0.235-0.386,0.423-0.501,0.147"/>
	<path fill="#FFFFFF" stroke="#FFFFFF" stroke-width="0.2392" stroke-miterlimit="10" d="M62.934,70.689
		c-0.095-0.007,0.038,0.01,0.043,0.01c0.315,0.423-0.572,0.255-0.265,0.067"/>
	<path fill="#FFFFFF" stroke="#FFFFFF" stroke-width="0.2392" stroke-miterlimit="10" d="M64.271,69.229
		c-0.14,0.413-0.729-0.067-0.262-0.188"/>
	<path fill="#FFFFFF" stroke="#FFFFFF" stroke-width="0.2392" stroke-miterlimit="10" d="M63.773,68.286
		c0.072,0.395-0.592,0.234-0.27-0.102"/>
	<path fill="#FFFFFF" stroke="#FFFFFF" stroke-width="0.2392" stroke-miterlimit="10" d="M67.836,55.567
		c-0.096,0.054,0.125-0.02,0.155-0.031c0.035,0.109,0.011,0.37-0.224,0.295c-0.218-0.071-0.112-0.37,0.129-0.35"/>
	<path fill="#FFFFFF" stroke="#FFFFFF" stroke-width="0.2392" stroke-miterlimit="10" d="M70.068,54.853
		c-0.014,0.113-0.121,0.255-0.33,0.195c-0.025-0.156,0.229-0.717,0.396-0.408"/>
	<path fill="#FFFFFF" stroke="#FFFFFF" stroke-width="0.2392" stroke-miterlimit="10" d="M71.204,52.026
		c-0.051,0.151-0.291,0.373-0.44,0.166c-0.113-0.158,0.176-0.358,0.282-0.303"/>
	<path fill="#FFFFFF" stroke="#FFFFFF" stroke-width="0.2392" stroke-miterlimit="10" d="M69.619,50.809
		c0.035-0.015,0.067-0.022,0.102-0.031c0.021,0.072,0.014,0.177-0.009,0.249c-0.238,0.045-0.423-0.079-0.362-0.273"/>
	<path fill="#FFFFFF" stroke="#FFFFFF" stroke-width="0.2392" stroke-miterlimit="10" d="M68.971,49.554
		c0.037-0.008,0.07-0.002,0.102,0.01c0.069,0.201-0.131,0.238-0.259,0.112c-0.132-0.125-0.079-0.375,0.119-0.432"/>
	<path fill="#FFFFFF" stroke="#FFFFFF" stroke-width="0.2392" stroke-miterlimit="10" d="M68.039,47.408
		c0.009,0.086-0.092,0.264-0.273,0.197c-0.19-0.072-0.121-0.451-0.038-0.521"/>
	<path fill="#FFFFFF" stroke="#FFFFFF" stroke-width="0.2392" stroke-miterlimit="10" d="M67.695,45.555
		c0.004,0.076-0.006,0.133-0.104,0.165c-0.142-0.191-0.171-0.349-0.146-0.572"/>
	<path fill="#FFFFFF" stroke="#FFFFFF" stroke-width="0.2392" stroke-miterlimit="10" d="M69.63,44.213
		c0.008,0.053-0.049,0.098-0.014,0.166c-0.354,0.071-0.511-0.606-0.129-0.524"/>
	<path fill="#FFFFFF" stroke="#FFFFFF" stroke-width="0.2365" stroke-miterlimit="10" d="M69.926,69.322
		c0.05,0.121,0.047,0.312,0.244,0.315c0.035-0.082,0.062-0.168,0.074-0.254"/>
	<path fill="#FFFFFF" stroke="#FFFFFF" stroke-width="0.2392" stroke-miterlimit="10" d="M69.354,52.763
		c0.227,0.09,0.228,0.692-0.137,0.521c-0.233-0.111-0.249-0.662,0.139-0.566"/>
	<path fill="#FFFFFF" stroke="#FFFFFF" stroke-width="0.2392" stroke-miterlimit="10" d="M69.233,57.255
		c0.033-0.08,0.041-0.137,0.159-0.115c0.016,0.135,0.044,0.415-0.23,0.379c-0.268-0.04-0.139-0.47-0.131-0.623"/>
	<path fill="#FFFFFF" stroke="#FFFFFF" stroke-width="0.2392" stroke-miterlimit="10" d="M67.795,56.349
		c-0.051,0.02,0.107-0.023,0.153,0.094c0.027,0.078,0.021,0.229-0.059,0.275c-0.331,0.191-0.331-0.274-0.304-0.413
		c0.033-0.011,0.068-0.013,0.102-0.003"/>
	<path fill="#FFFFFF" stroke="#FFFFFF" stroke-width="0.2392" stroke-miterlimit="10" d="M68.035,58.111
		c-0.098,0.036,0.068,0.013,0.101,0.01c0.03,0.233-0.058,0.4-0.386,0.318c-0.025-0.104-0.002-0.207,0.073-0.293
		c0.041-0.003,0.074,0.013,0.097,0.045"/>
	<path fill="#FFFFFF" stroke="#FFFFFF" stroke-width="0.2392" stroke-miterlimit="10" d="M67.394,59.869
		c-0.042,0.118-0.266,0.409-0.466,0.207c-0.14-0.145,0.066-0.307,0.246-0.219"/>
	<path fill="#FFFFFF" stroke="#FFFFFF" stroke-width="0.2392" stroke-miterlimit="10" d="M68.221,60.872
		c0.004,0.049-0.019,0.146-0.02,0.211c-0.202,0.016-0.54-0.058-0.309-0.229"/>
	<path fill="#FFFFFF" stroke="#FFFFFF" stroke-width="0.2392" stroke-miterlimit="10" d="M69.165,62.714
		c-0.04-0.002-0.056-0.013-0.044-0.041c0.209,0.204-0.266,0.455-0.514,0.196c-0.228-0.24,0.063-0.633,0.183-0.309"/>
	<path fill="#FFFFFF" stroke="#FFFFFF" stroke-width="0.2392" stroke-miterlimit="10" d="M67.943,66.188
		c0.092-0.054,0.198-0.134,0.329-0.11c-0.011,0.261-0.478,0.543-0.739,0.319c-0.24-0.211,0.092-0.688,0.311-0.39"/>
	<path fill="#FFFFFF" stroke="#FFFFFF" stroke-width="0.2392" stroke-miterlimit="10" d="M69.252,67.437
		c0.041-0.036,0.119-0.064,0.17-0.088c0.171,0.185-0.15,0.41-0.402,0.344c-0.347-0.093-0.235-0.493,0.132-0.437"/>
	<path fill="#FFFFFF" stroke="#FFFFFF" stroke-width="0.2392" stroke-miterlimit="10" d="M71.18,68.321
		c-0.09,0.11-0.21,0.472-0.515,0.456c-0.435-0.021-0.266-0.604,0.079-0.479"/>
	<path fill="#FFFFFF" stroke="#FFFFFF" stroke-width="0.2392" stroke-miterlimit="10" d="M70.531,70.3
		c-0.002,0.15-0.366,0.293-0.562,0.182c-0.398-0.229,0.229-0.492,0.511-0.441c0.014,0.026,0.017,0.053,0.005,0.082"/>
	<path fill="#FFFFFF" stroke="#FFFFFF" stroke-width="0.2392" stroke-miterlimit="10" d="M68.356,70.93
		c0.368,0.275-0.945,0.512-0.438-0.022"/>
	<path fill="#FFFFFF" stroke="#FFFFFF" stroke-width="0.2392" stroke-miterlimit="10" d="M66.899,70.46
		c0.077,0.284-0.394,0.267-0.384-0.021"/>
	<path fill="#FFFFFF" stroke="#FFFFFF" stroke-width="0.2392" stroke-miterlimit="10" d="M67.502,68.393
		c-0.008,0.065,0.023,0.215-0.055,0.273c-0.131,0.093-0.3,0.096-0.343-0.075"/>
	<path fill="#FFFFFF" stroke="#FFFFFF" stroke-width="0.2392" stroke-miterlimit="10" d="M66.145,67.057
		c0.211,0.209-0.463,0.715-0.391,0.066"/>
	<path fill="#FFFFFF" stroke="#FFFFFF" stroke-width="0.2392" stroke-miterlimit="10" d="M65.058,65.775
		c0.036,0.162-0.146,0.399-0.285,0.159"/>
	<path fill="#FFFFFF" stroke="#FFFFFF" stroke-width="0.2365" stroke-miterlimit="10" d="M68.619,68.688
		c-0.034,0.167,0.027,0.317,0.298,0.271c0.104-0.249-0.219-0.377-0.36-0.144"/>
	<path fill="#FFFFFF" stroke="#FFFFFF" stroke-width="0.2392" stroke-miterlimit="10" d="M74.229,43.447
		c-0.046,0.063-0.117,0.111-0.217,0.113c-0.046-0.115,0.001-0.219,0.156-0.199c0.015,0.026,0.017,0.056,0.005,0.083"/>
	<path fill="#FFFFFF" stroke="#FFFFFF" stroke-width="0.2392" stroke-miterlimit="10" d="M68.159,42.958
		c-0.051,0.111-0.097,0.335-0.297,0.209c-0.187-0.12-0.037-0.464,0.14-0.305"/>
	<path fill="#FFFFFF" stroke="#FFFFFF" stroke-width="0.2365" stroke-miterlimit="10" d="M70.661,66.521
		c-0.049,0.185,0.188,0.336,0.318,0.153c0.144-0.202-0.24-0.476-0.368-0.199"/>
	<path fill="#FFFFFF" stroke="#FFFFFF" stroke-width="0.2365" stroke-miterlimit="10" d="M69.943,63.82
		c0.03,0.129,0.096,0.262,0.242,0.315c0.12-0.143,0.071-0.568-0.189-0.312"/>
	<path fill="#FFFFFF" stroke="#FFFFFF" stroke-width="0.2365" stroke-miterlimit="10" d="M69.838,61.717
		c-0.033,0.137,0.06,0.355,0.242,0.355c0.037-0.101,0.031-0.21-0.03-0.3"/>
	<path fill="#FFFFFF" stroke="#FFFFFF" stroke-width="0.2365" stroke-miterlimit="10" d="M71.049,61.123
		c0.007,0.084-0.007,0.13,0.089,0.178c0.014-0.053,0.026-0.116,0.019-0.173"/>
	<path fill="#FFFFFF" stroke="#FFFFFF" stroke-width="0.2365" stroke-miterlimit="10" d="M69.92,57.716
		c-0.218,1.15,1.608-0.36-0.11-0.2"/>
	<path fill="#FFFFFF" stroke="#FFFFFF" stroke-width="0.2365" stroke-miterlimit="10" d="M69.562,55.354
		c-0.004,0.009,0.009,0.289,0,0.379c0.586-0.013,0.415-0.674-0.1-0.774"/>
	<path fill="#FFFFFF" stroke="#FFFFFF" stroke-width="0.2365" stroke-miterlimit="10" d="M68.731,52.871
		c0.102,0.077,0.118,0.168,0.337,0.1c0.041-0.102,0.017-0.163,0.014-0.265c-0.115-0.03-0.219-0.03-0.34-0.031"/>
	<path fill="#E5E5E5" d="M78.938,46.396c0.075-1.433-0.925-2.604-1.96-3.557c-1.349-1.239-3.01-2.258-4.671-3.069
		c-0.822-0.402-1.582-0.657-2.529-0.584c-0.817,0.062-1.62,0.205-2.429,0.246c-0.997,0.051-1.977-0.21-2.963-0.139
		c-0.927,0.067-1.891,0.307-2.69,0.749c-0.868,0.48-1.787,0.734-2.486,1.461c-0.698,0.727-0.87,1.762-1.488,2.491
		c-0.438,0.518-0.812,1.077-1.223,1.627c-0.392,0.523-0.937,0.66-1.271,1.22c-0.607,1.016-0.673,2.563-0.359,3.695
		c0.106,0.381,0.243,1.538,0.916,1.418c0.457-0.081,0.604-1.045,0.729-1.432c0.147-0.447-0.047-1.201,0.179-1.599
		c0.284-0.498,0.972-0.432,1.413-0.325c0.254,0.06,0.419,0.208,0.656,0.279c0.266,0.08,0.59,0.02,0.868,0.057
		c0.585,0.078,1.146,0.272,1.721,0.406c0.563,0.133,1.174,0.092,1.732,0.236c0.314,0.082,0.52,0.252,0.856,0.288
		c0.281,0.03,0.588,0.049,0.87,0.045c0.576-0.009,1.176,0.014,1.745-0.038c0.509-0.047,1.178-0.267,1.461,0.266
		c0.289,0.54,0.047,1.153,0.315,1.691c0.302,0.602,1.117,0.5,1.587,0.066c0.425-0.393,0.512-1.091,0.964-1.479
		c0.241-0.209,0.504-0.148,0.74-0.281c0.227-0.127,0.421-0.382,0.661-0.529c0.77-0.477,1.479-1.164,2.279-1.57
		c0.461-0.232,0.912-0.264,1.428-0.361c0.688-0.131,0.944-0.377,1.498-0.762c0.27,0.396,0.139,1.062,0.152,1.544
		c0.017,0.532,0.054,1.061,0.036,1.606c-0.015,0.433-0.024,1.15,0.542,1.186c0.533,0.032,0.606-0.58,0.725-0.943
		c0.098-0.3,0.111-0.62,0.084-0.932c-0.025-0.306-0.151-0.621-0.147-0.922C78.888,47.773,78.904,47.078,78.938,46.396z"/>
	<path fill="#245977" d="M100.688,79.863c-2.536-0.954-1.699-7.968-1.465-9.812c0.438-3.529,0.316-7.201,0.13-10.811
		c0.12-0.024,1.418-0.157,1.535-0.184c4.272-1.001,6.142-4.166,6.789-8.466c0.204-1.354-0.031-2.726-0.056-4.073
		c-0.014-0.836,0.026-1.57-0.167-2.404c-0.166-0.72-0.399-1.422-0.567-2.143c-0.735-3.152-2.208-6.184-3.053-9.35
		c-0.4-1.505-0.708-2.993-1.018-4.473c-0.096-0.464-0.082-1.195-0.641-1.406c-0.355-0.134-1.031,0.003-1.41,0.003
		c-0.613,0-1.224,0-1.834,0c-2.056,0-4.104-0.117-6.148-0.14c-0.49-0.006-1.001,0.041-1.49,0.001
		c-0.212-0.017-0.491-0.189-0.686,0.014c-0.146,0.152-0.191,0.867-0.242,1.089c-0.115,0.502-0.283,0.987-0.422,1.482
		c-0.395,1.4-0.748,2.812-1.135,4.212c-0.505,1.821-1.128,3.601-1.707,5.394c-0.471,1.445-0.744,2.965-1.122,4.436
		c-0.297,1.16-0.634,2.386-0.649,3.583c-0.004,0.464-0.042,0.956,0,1.417c0.256,2.864,1.037,5.77,3.07,7.897
		c1.861,1.946,4.729,2.974,7.607,3.23c0.036,0.959-0.137,2.12-0.137,2.596c0,1.323,0.326,3.013,0.242,4.293
		c-0.159,2.518,0,4.899,0,7.338c0,2.245,0.139,4.677-2.127,6.276c-2.53,1.774-3.688,1.689-6.912,2.362
		c4.016-0.052,14.271-0.351,14.518-0.481c0.119,0,0.23-0.004,0.351-0.004c1.317,0,5.304,0.388,6.033-0.211
		c-1.493-0.014-2.98-0.494-4.517-0.592C103.026,80.909,102.288,80.464,100.688,79.863"/>
	<path d="M101.611,26.82c-0.023-0.12-0.158,0.698-0.271,0.984c-0.187,0.469-0.487,0.878-0.699,1.326
		c-0.555,1.156-1.016,2.373-1.564,3.527c-0.518,1.081-1.04,2.113-1.584,3.181c-0.425,0.832-1.605,2.551-1.505,3.501
		c0.796,0.292,0.721-0.102,0.98-0.767c0.235-0.604,0.518-1.229,0.787-1.82c0.569-1.249,1.339-2.364,1.933-3.605
		c0.701-1.471,1.223-3.025,1.992-4.478c0.232-0.44,0.507-0.891,0.666-1.356c0.105-0.311,0.294-0.544,0.043-0.832
		c-0.294-0.342-0.798-0.115-0.925,0.239"/>
	<path fill="#FF0000" d="M117.669,27.854c-0.027-0.318-0.022-0.744,0.117-1.021c0.133-0.262,0.384-0.393,0.585-0.562
		c-0.303-0.102-0.613-0.093-0.899-0.306c-0.341-0.249-0.474-0.697-0.648-1.073c-0.206-0.445-0.435-0.886-0.629-1.327
		c-0.158-0.363-0.217-0.771-0.345-1.153c-0.373,0.056-0.795,0.237-1.152-0.003c-0.419-0.282-0.617-0.925-0.896-1.344
		c-0.408-0.61-0.921-1.104-1.416-1.629c-0.53-0.564-1.112-1.137-1.757-1.518c-0.938-0.553-1.923-0.926-2.935-1.213
		c-0.645-0.183-1.239-0.581-1.863-0.844c-0.398-0.169-0.733-0.469-1.142-0.622l0.203,0.165c-0.688-0.49-1.6-0.856-2.404-1.114
		c-0.582-0.188-1.202-0.33-1.775-0.557c-0.432-0.171-0.638-0.792-1.067-0.904c-0.038,0.128-0.014,0.389-0.081,0.493
		c-0.059,0.094-0.408,0.208-0.511,0.246c-0.557,0.2-1.276,0.051-1.854-0.036c-0.661-0.099-1.127-0.331-1.655-0.764
		c-0.354-0.29-0.676-0.458-1.087-0.627c0.059,0.393,0.09,0.667-0.224,0.891c-0.418,0.3-0.958,0.364-1.448,0.487l-1.361,0.343
		c-0.271,0.068-0.538,0.12-0.807,0.161c-0.256,0.039-0.618-0.065-0.847,0.046c0.393,0.809,1.717,0.862,1.449,1.955
		c-0.204,0.837-0.521,1.427-1.167,1.883c0.415,0.295,0.935,0.434,1.324,0.779c0.371,0.33,0.546,0.765,0.781,1.213
		c0.209,0.394,0.367,0.736,0.449,1.199c0.07,0.399-0.105,0.858,0.024,1.233c0.225-0.036,0.439-0.139,0.664-0.095
		c0.255,0.049,0.603,0.252,0.817,0.392c0.486,0.31,0.885,0.707,1.317,1.119c0.44,0.421,0.883,0.711,1.14,1.289
		c0.22,0.49,0.237,1.051,0.405,1.567c0.393-0.114,0.741-0.146,1.081-0.107c-0.064-0.021-0.127-0.043-0.19-0.064
		c-0.097-0.031-0.08-0.204,0.022-0.191c1.036,0.122,2.042,0.559,2.987,1.062c0.007,0.003,0.011,0.007,0.018,0.01
		c0.724,0.249,1.446,0.577,2.058,1.047c0.042,0.028,0.085,0.059,0.128,0.087c0.02,0.005,0.041,0.01,0.062,0.016
		c0.415,0.109,0.819,0.363,1.095,0.726c0.137,0.177,0.221,0.301,0.29,0.511c0.058,0.181,0.061,0.39,0.206,0.486
		c-0.094-0.562,0.676-0.613,1.007-0.509c0.542,0.175,1.054,0.426,1.607,0.573c0.575,0.154,1.175,0.348,1.688,0.7
		c0.285,0.196,0.548,0.406,0.796,0.653c0.228,0.227,0.468,0.613,0.762,0.724c-0.189-0.915,0.72-1.637,1.487-1.481
		c0.472,0.096,1.044,0.188,1.473,0.429c0.443,0.251,0.784,0.774,1.216,0.992c-0.263-0.876,0.411-1.732,1.005-2.135
		c0.752-0.511,1.806-0.771,2.701-0.591C117.88,29.205,117.725,28.541,117.669,27.854z"/>
	<path fill="#FFFFFF" d="M91.523,14.198c0.627,0.108,1.245,0.338,1.846,0.574c0.623,0.245,1.24,0.513,1.877,0.703
		c0.664,0.202,1.325,0.261,1.999,0.363c0.634,0.097,1.263,0.228,1.886,0.398c0.682,0.188,1.35,0.446,2.034,0.617
		c0.794,0.2,1.596,0.307,2.401,0.364c0.244-0.011,0.488-0.015,0.732-0.019c-2.412-0.707-4.575-2.178-6.793-3.495
		c-0.119-0.019-0.234-0.037-0.345-0.053c-0.661-0.1-1.128-0.331-1.655-0.765c-0.354-0.289-0.676-0.458-1.088-0.626
		c0.059,0.392,0.092,0.665-0.222,0.891c-0.417,0.3-0.958,0.363-1.449,0.486l-1.364,0.344c-0.268,0.068-0.534,0.12-0.805,0.16
		c-0.256,0.039-0.618-0.066-0.848,0.048c0.006,0.012,0.014,0.024,0.021,0.037C90.342,14.262,90.929,14.094,91.523,14.198z"/>
	<path fill="#FFFFFF" d="M92.569,21.218c0.058,0.325-0.049,0.689-0.021,1.015c1.191-0.289,2.343-0.724,3.488-1.162
		c1.195-0.458,2.404-0.876,3.593-1.35c1.123-0.446,2.229-0.93,3.366-1.339c0.627-0.227,1.385-0.449,1.973-0.858
		c0.016-0.016,0.033-0.031,0.048-0.048c-0.49-0.007-0.982-0.023-1.474-0.058c-0.073,0.003-0.147,0.008-0.223,0.012
		c-0.836,0.061-1.669,0.145-2.501,0.233c-1.526,0.165-3.077,0.396-4.622,0.379c-1.379-0.016-2.758,0.064-4.132,0.134
		c-0.464,0.023-0.927,0.048-1.392,0.034c-0.106-0.002-0.241,0.003-0.375-0.009c0.351,0.19,0.736,0.334,1.04,0.604
		c0.369,0.329,0.544,0.765,0.781,1.213C92.328,20.412,92.487,20.756,92.569,21.218z"/>
	<path fill="#FFFFFF" d="M105.088,17.676c-0.705,0.715-1.505,1.307-2.265,1.951c-0.905,0.771-1.684,1.674-2.454,2.599
		c-0.762,0.913-1.487,1.855-2.295,2.723c-0.422,0.455-0.852,0.911-1.234,1.407c0.027,0.123,0.058,0.247,0.096,0.367
		c0.545-0.156,0.999-0.159,1.473-0.032c1.13,0.135,2.27,0.478,3.322,0.959c0.639,0.293,1.326,0.663,1.906,1.157
		c0.213,0.129,0.406,0.297,0.561,0.5c0.108,0.142,0.185,0.251,0.247,0.397c0.091,0.139,0.174,0.285,0.248,0.439
		c0.011-0.072,0.04-0.132,0.081-0.182c-0.06-1.789-0.211-3.582-0.173-5.368c0.026-1.232,0.144-2.463,0.309-3.674
		c0.083-0.613,0.199-1.217,0.305-1.824c0.091-0.525,0.171-1.064,0.115-1.606C105.252,17.555,105.172,17.617,105.088,17.676z"/>
	<path fill="#FFFFFF" d="M105.355,17.103c-0.014-0.055,0.011-0.093,0.047-0.109c-0.07-0.301-0.18-0.6-0.276-0.878
		c-0.074-0.215-0.153-0.428-0.229-0.643c-0.081-0.042-0.164-0.082-0.247-0.113l0.202,0.164c-0.688-0.489-1.601-0.856-2.403-1.115
		c-0.546-0.175-1.121-0.311-1.662-0.512c0.19,0.124,0.381,0.246,0.571,0.373c1.17,0.773,2.302,1.615,3.476,2.381
		c0.035-0.013,0.08-0.003,0.11,0.04c0.01,0.019,0.022,0.036,0.035,0.055c0.02,0.012,0.04,0.025,0.06,0.039
		c0.038,0.023,0.051,0.062,0.044,0.097c0.087,0.103,0.183,0.193,0.283,0.275v-0.002C105.362,17.137,105.359,17.12,105.355,17.103z"
		/>
	<path fill="#FFFFFF" d="M108.363,18.848c0.84,0.457,1.7,0.861,2.554,1.283c1.019,0.5,2.038,1.006,3.073,1.458
		c-0.074-0.145-0.149-0.284-0.229-0.405c-0.048-0.071-0.099-0.143-0.149-0.212c-0.025-0.021-0.051-0.041-0.076-0.061
		c-0.255-0.2-0.518-0.383-0.787-0.558c-0.621-0.405-1.242-0.813-1.873-1.202c-0.719-0.443-1.435-0.888-2.16-1.315
		c-0.496-0.012-0.996,0.027-1.484,0.013c-0.243-0.006-0.516-0.009-0.787-0.043C107.087,18.144,107.724,18.502,108.363,18.848z"/>
	<path fill="#FFFFFF" d="M117.629,27.973c-0.026-0.317-0.023-0.743,0.118-1.02c0.104-0.206,0.281-0.33,0.449-0.458
		c-0.897-0.23-1.721-0.784-2.472-1.393c-1.118-0.909-2.209-1.851-3.363-2.703c-1.201-0.886-2.408-1.747-3.594-2.655
		c-0.896-0.688-1.807-1.361-2.768-1.926c1.059,1.031,2.037,2.159,2.993,3.306c1.059,1.27,2.093,2.518,3.317,3.603
		c0.616,0.546,1.25,1.068,1.875,1.603c0.634,0.542,1.229,1.145,1.867,1.687c0.579,0.494,1.159,0.979,1.791,1.386
		c0.115,0.074,0.231,0.147,0.349,0.221c0.082,0.011,0.161,0.021,0.241,0.037C117.841,29.323,117.685,28.66,117.629,27.973z"/>
	<path fill="#FFFFFF" d="M113.31,30.194c-0.874-1.414-1.717-2.85-2.556-4.286c-1.609-2.755-3.215-5.516-5.037-8.115
		c-0.023-0.021-0.047-0.044-0.07-0.066c0.68,2.671,1.429,5.311,2.234,7.946c0.427,1.398,0.842,2.775,1.393,4.13
		c0.329,0.807,0.668,1.611,0.973,2.429c0.098,0.095,0.197,0.174,0.306,0.214c-0.188-0.915,0.72-1.637,1.488-1.481
		c0.472,0.096,1.045,0.188,1.473,0.429c0.433,0.244,0.769,0.749,1.185,0.977c-0.027-0.044-0.055-0.087-0.084-0.13
		C114.17,31.565,113.735,30.884,113.31,30.194z"/>
	<path d="M106.695,17.291c-0.084,0.27-0.056,0.454-0.064,0.712c-0.012,0.293-0.044,0.293-0.276,0.407
		c-0.48,0.238-0.845,0.44-1.341,0.055c-0.404-0.314-0.704-0.886-0.796-1.404c0.354-0.229,0.649-0.705,0.91-1.053
		c0.268-0.352,0.544-0.693,0.793-1.065c0.171-0.26,0.378-0.784,0.728-0.784c0.48,0.004,0.895,0.852,0.831,1.311
		C107.393,16.102,106.885,16.685,106.695,17.291z"/>
	<path fill="#FF0000" d="M88.117,51.236c1.037,2.517,2.731,4.355,5.167,5.609c2.046,1.052,4.38,0.763,6.524,0.274
		c1.496-0.341,3.478-0.645,4.44-2.002c0.83-1.172,0.989-2.805,1.222-4.175c0.263-1.548,0.631-3.097,0.493-4.732
		c-0.24-2.901-1.89-5.461-2.399-8.288c-1.46-0.122-2.979,0.23-4.367,0.11c-1.742-0.152-3.539-0.254-5.271-0.254
		c-1.219,0-3.541-0.444-4.412,0.373c-0.479,0.448-0.798,1.244-1.003,1.855c-0.1,0.3-0.188,0.543-0.247,0.877
		c-0.124,0.718-0.027,1.408-0.19,2.138c-0.189,0.845-0.351,1.698-0.463,2.557C87.365,47.47,87.379,49.447,88.117,51.236z"/>
	<path fill="#FFFFFF" d="M90.301,52.25c1.002,1.432,2.224,2.753,3.71,3.692c0.562,0.355,1.154,0.657,1.758,0.937
		c0.024,0.013,0.166,0.074,0.353,0.15c-0.108-0.084-0.213-0.173-0.312-0.26c-0.591-0.524-1.108-1.128-1.6-1.747
		c-1.136-1.43-2.329-2.812-3.33-4.345c-1.041-1.592-1.93-3.312-2.421-5.156c-0.209-0.779-0.346-1.568-0.415-2.36
		c-0.178,0.799-0.327,1.606-0.434,2.418c-0.038,0.297-0.069,0.596-0.092,0.896C88.158,48.529,89.077,50.502,90.301,52.25z"/>
	<path fill="#FFFFFF" d="M94.424,49.817c0.865,2.522,1.689,5.106,3.02,7.435c0.01,0.006,0.02,0.016,0.028,0.025
		c0.02-0.019,0.046-0.031,0.071-0.037c-0.031-0.039-0.039-0.092,0.003-0.147c0.001-0.002,0.003-0.003,0.003-0.003
		c-0.017-0.35-0.127-0.703-0.229-1.024c-0.128-0.41-0.216-0.827-0.311-1.247c-0.195-0.867-0.385-1.735-0.575-2.604
		c-0.396-1.808-0.782-3.616-1.166-5.427c-0.637-3.009-1.265-6.021-1.902-9.03c-0.843-0.052-1.933-0.17-2.789-0.04
		c0.917,2.935,1.797,5.881,2.726,8.811C93.653,47.637,94.047,48.72,94.424,49.817z"/>
	<path fill="#FFFFFF" d="M98.945,48c0.051,1.641,0.013,3.308-0.09,4.947c-0.076,1.233-0.148,2.721-0.773,3.852
		c2.804-2.54,3.611-6.698,3.821-10.314c0.167-2.834,0.01-5.701-0.408-8.519c-0.784,0.062-1.56,0.132-2.298,0.067
		c-0.492-0.044-0.99-0.082-1.488-0.116c0.326,1.315,0.539,2.662,0.721,3.999C98.705,43.932,98.884,45.966,98.945,48z"/>
	<path fill="#FFFFFF" d="M101.969,55.705c0.806-0.667,1.595-1.413,2.244-2.234c0.419-0.53,0.79-1.091,1.119-1.674
		c0.048-0.292,0.091-0.578,0.139-0.854c0.263-1.548,0.631-3.097,0.493-4.732c-0.136-1.648-0.729-3.188-1.308-4.729
		c-0.19,3.524-0.251,7.121-1.726,10.393c-0.593,1.313-1.359,2.632-2.233,3.784c-0.3,0.395-0.707,0.922-1.185,1.286
		C100.422,56.87,101.295,56.262,101.969,55.705z"/>
	<path fill="#FFFFFF" d="M99.049,57.228c-0.312,0.142-0.648,0.19-0.998,0.081c-0.027-0.008-0.048-0.021-0.064-0.039v0.001
		c-0.048,0.04-0.102,0.044-0.148,0.028c-0.004,0.06-0.008,0.119-0.018,0.179c0.48-0.058,0.957-0.141,1.429-0.237
		C99.182,57.239,99.116,57.234,99.049,57.228z"/>
	<path fill="#FFFFFF" d="M70.988,275.332c1.175,2.6,2.466,5.155,3.457,7.868c0.386,1.06,0.582,2.081,0.82,3.171
		c0.137,0.622,0.16,1.304,0.256,1.947c0.204,1.389-0.11,2.862,0.167,4.232c0.134-0.071,0.165-0.274,0.215-0.432
		c0.116-0.368,0.305-0.629,0.47-0.971c0.359-0.742,0.623-1.521,0.996-2.258c0.226-0.445,0.538-0.832,0.59-1.332
		c0.049-0.459-0.074-0.906-0.086-1.361c-0.03-1.145-0.181-2.225-0.527-3.324c-0.123-0.393-0.232-0.778-0.317-1.169
		c-0.442-2.017-1.354-4.072-2.239-5.943c-0.369-0.782-0.791-1.538-1.238-2.276c-0.371-0.612-0.791-1.177-1.161-1.777
		c-0.125-0.202-0.206-0.38-0.296-0.59c-0.215-0.499-0.493-0.965-0.726-1.443c-0.418-0.862-0.808-1.707-1.291-2.544
		c-0.254-0.44-0.551-0.874-0.744-1.355c-0.188-0.474-0.257-0.945-0.376-1.44c-0.117-0.481-0.242-0.866-0.316-1.356
		c-0.038-0.254-0.123-1.158-0.326-1.265c-0.002,0.345-0.23,0.793-0.356,1.113c-0.151,0.388-0.345,0.717-0.531,1.084
		c-0.261,0.511-0.202,1.315-0.063,1.864c0.108,0.431,0.359,0.788,0.492,1.205c0.134,0.425,0.231,0.851,0.381,1.272
		C69.084,270.639,69.941,273.014,70.988,275.332z"/>
	<path fill="#FFFFFF" d="M62.375,307.86c-0.491,0.359-0.967,0.732-1.422,1.124c-0.224,0.74-0.439,1.483-0.686,2.22
		c-0.561,1.673-1.066,3.365-1.554,5.062c1.317-1.84,3.15-3.211,5.021-4.441c0.953-0.629,1.925-1.226,2.881-1.85
		c0.649-0.426,1.362-0.806,1.991-1.269c0.185-0.136,0.362-0.279,0.529-0.433c0.114-0.105,0.223-0.217,0.346-0.312
		c0.885-0.681,1.684-1.5,2.379-2.377c0.485-0.611,0.4-0.931,0.338-1.686c-0.09-1.076-0.045-2.202-0.188-3.263
		c-0.365,0.271-0.692,0.947-0.938,1.329c-0.325,0.507-0.801,0.802-1.311,1.089c-0.479,0.271-0.906,0.643-1.364,0.949
		c-1.129,0.756-2.312,1.426-3.463,2.144c-1.245,0.776-2.462,1.6-3.669,2.43c-0.708,0.486-1.496,0.933-2.289,1.253
		c-0.417,0.167-0.773,0.281-0.851,0.713c-0.074,0.414-0.094,0.771-0.248,1.186c-0.279,0.745-0.674,1.438-0.942,2.194
		c-0.2,0.562-0.408,1.169-0.569,1.708c-0.133,0.446-0.014,0.48,0.211,0.849c0.201,0.331,0.271,0.713,0.362,1.082
		c0.077,0.315,0.265,0.699,0.272,1.011c0.377-0.461,0.558-1.307,0.893-1.858c0.427-0.703,0.947-1.217,1.377-1.949"/>
	<path fill="#245977" d="M153.404,336.938c6.864-5.145,3.463-19.839,6.685-27.613c-0.55-0.99-1.282-1.967-2.049-2.729
		c-2.361,1.154-5.063,4.693-7.37,3.367c-1.752-1.009-1.609-2.491-3.809-2.595c-2.573-0.123-5.057,3.571-5.98-0.889
		c-0.807-3.895-1.78-7.801-2.348-11.756c-0.301-2.081-0.423-4.186-0.426-6.298c-0.004-1.211,0.013-2.661-0.432-3.74
		c-2.81,3.532-4.821,8.284-6.525,12.664c-1.023,2.626-2.438,4.546-1.942,7.582c0.541,3.317,1.267,6.538,1.674,9.923
		c0.407,3.382,0.354,6.475,1.401,9.745c0.705,2.204,1.599,4.385,2.562,6.445c2.106,4.506,6.289,7.797,10.603,8.287
		C148.045,339.626,151.194,338.596,153.404,336.938z"/>
	<path fill="#FFFFFF" d="M145.263,323.523c0.671-1.008,1.618-2.345,2.947-2.726c1.374-0.398,3.254-0.401,4.534,0.304
		c-1.244,1.981-2.127,4.253-4.396,4.961c-1.349,0.421-3.307,0.39-4.585-0.241c0.531-1.463,0.887-2.668,2.187-3.36"/>
	<path d="M152.614,321.268c-0.581,1.704-1.653,3.131-2.929,4.14c-1.057,0.839-2.805,1.578-3.502,2.917
		c-0.088-0.411,0.175-0.873,0.387-1.193c-1.022,0.335-1.869,1.002-2.66,1.902c0.25-0.667,0.509-1.455,1.018-1.942
		c-0.757-0.067-2.511,0.567-2.987,1.304c0.731-0.786,1.392-1.457,2.29-1.871c-0.719-0.227-1.463-0.339-2.172-0.625
		c1.029-0.242,1.748-0.176,2.196-1.407c0.483-1.324,1.146-2.292,2.173-3.194c0.934-0.823,2.256-0.979,3.395-0.904
		c0.744,0.051,2.255,0.062,2.685,0.94c-1.467,0.308-2.847,0.167-4.271,0.768c-0.744,0.313-1.499,0.683-2.05,1.401
		c-0.464,0.604-0.937,1.43-1.485,1.947c0.752,1.152,3.511,0.44,4.405-0.041c0.512-0.276,3.68-2.516,3.179-3.14"/>
	<path d="M147.239,326.612c-1.286,0.832-3.007-0.335-2.139-2.064c0.657-1.304,2.119-1.596,2.556-0.289
		c0.012,0.033,0.02,0.067,0.032,0.1c0.319,1.071-0.265,2.615-1.443,2.493c-0.42-0.039-1.257-0.524-1.426-0.952
		c-0.418-1.02,1.702-2.651,2.46-2.108C148.017,324.324,148.274,325.941,147.239,326.612z"/>
	<path fill="#FF0000" d="M144.181,310.673c-0.22,0.05-0.215-0.232,0.001-0.232c0.139,0,0.27,0.115,0.358,0.229
		c0.075,0.096,0.108,0.208,0.165,0.321c0.055,0.107,0.13,0.194,0.198,0.286c0.104,0.135,0.395,0.334,0.324,0.532
		c-0.07,0.202-0.336,0.146-0.479,0.179c-0.191,0.039-0.266,0.212-0.359,0.393c-0.113,0.224-0.27,0.322-0.479,0.401
		c-0.433,0.158-0.899,0.218-1.31,0.437c-0.491,0.259-0.972,0.758-1.325,1.237c-0.258,0.346-0.518,0.688-0.775,1.032
		c-0.152,0.202-0.426,0.5-0.499,0.762c0.042-0.432,0.224-0.884,0.361-1.281c0.169-0.484,0.329-0.973,0.503-1.451
		c0.254-0.72,0.808-1.335,1.307-1.812c0.333-0.315,0.682-0.582,1.067-0.798c0.165-0.092,0.294-0.179,0.477-0.233
		c0.185-0.06,0.388-0.116,0.55-0.251"/>
	<path d="M158.222,323.338c0.88-0.941,1.663-0.495,2.416,0.485c-0.28-0.369-0.557-0.901-0.96-1.028
		c-0.395-0.125-0.754,0.113-1.085,0.248c0.563-0.869,1.466-0.552,2.019,0.249c-0.508-0.672-1.453-1.988-2.227-1.138
		c0.497-0.779,2.094-0.046,2.184,0.845c-0.173-0.484-0.624-1.358-1.031-1.64c-0.374-0.256-1.244-0.068-1.567,0.255
		c0.201,0.44,0.405,1.465,0.242,1.956"/>
	<path d="M144.153,340.202c-2.377-0.239-4.905-1.61-6.563-3.667c-1.674-2.073-3.767-3.956-4.511-6.854
		c-0.376-1.465-0.842-3.052-1.003-4.583c-0.155-1.481,0.185-3.044-0.369-4.393c1.069,1.434,2.418,2.675,3.445,4.25
		c0.974,1.493,1.52,5.173,2.971,5.996c1.736,0.987,1.571-2.316,1.001-3.459c-0.388-0.776-2.396-2.861-1.188-3.616
		c-0.039,0.425,0.046,0.643-0.148,1.084c0.952,1.749,2.87,2.213,3.37,4.456c0.776,3.457,0.059,6.261,3.987,6.612
		c2.136,0.19,4.214,0.204,6.083-1.152c1.517-1.102,2.786-2.654,4.097-4.069c0.882-0.952,1.676-1.857,2.929-1.535
		c1.056,0.274,2.385,1.906,2.398,3.211c-1.188-0.739-2.544-0.009-3.543,1.049c-0.571,0.604-0.731,1.23-1.199,1.844
		C152.983,339.22,148.364,340.626,144.153,340.202z"/>
	<path fill="#FFFFFF" d="M97.826,223.527c1.459-3.077,3.255-6.178,4.016-9.633c0.429-1.944,0.595-3.944,0.485-5.933
		c-0.069-1.273,0.183-2.494-0.019-3.797c-0.115-0.745-0.26-0.678-0.8-0.676c-0.406,0.001-1.011-0.237-1.38-0.102
		c-0.101,0.352,0.198,0.767,0.291,1.093c1.305,4.55-0.666,9.188-2.715,13.232c-0.924,1.825-1.979,3.581-2.947,5.381
		c-0.429,0.798-1.081,1.605-1.449,2.404c-0.361,0.782,0.336,1.536,0.746,2.178c0.336,0.525,0.656,1.038,0.972,1.591
		c0.222,0.388,0.37,1.015,0.565,1.275C95.635,228.131,96.815,225.668,97.826,223.527z"/>
	<path fill="#FFFFFF" d="M116.242,254.245c3.338-0.182,6.419-1.806,9.562-3.035c3.998-1.562,8.852-3.889,13.004-1.743
		c0.804,0.414,1.477,1.062,2.251,1.499c0.093-0.673-0.929-1.382-1.291-1.854c-0.755-0.986-1.602-1.845-2.435-2.759
		c-0.66-0.728-0.951-1.736-1.728-2.323c-0.606-0.459-2.112-0.187-2.843-0.058c-1.387,0.241-2.749,0.623-4.084,1.066
		c-2.257,0.749-4.429,1.706-6.609,2.649c-3.392,1.467-6.962,3.638-10.665,3.277c-1.901-0.185-3.72-0.864-5.304-1.928
		c-0.576-0.387-1.424-1.412-2.146-1.473c-0.656-0.055-1.229,1.049-1.104,1.666c0.048,0.234,0.713,0.846,0.893,1.035
		c0.43,0.455,1.021,0.711,1.479,1.115c0.731,0.648,1.482,0.937,2.34,1.408c0.913,0.503,1.914,0.837,2.93,1.065
		C112.369,254.278,114.324,254.35,116.242,254.245z"/>
	<path fill="#FFFFFF" d="M82.847,149.93c0.853,1.278,1.742,2.579,2.259,4.017c0.252,0.698,0.615,1.396,0.916,2.074
		c0.222,0.5,0.466,1.408,0.776,1.75c0.098-0.566-0.329-1.476-0.452-2.062c-0.232-1.109-0.251-2.261-0.351-3.398
		c-0.166-1.885,0.093-4.846-1.24-6.375c-0.547-0.628-1.318-1.071-1.924-1.643c-0.862-0.815-1.693-1.709-2.402-2.662
		c-0.701-0.941-1.613-1.692-2.356-2.592c-1.939-2.349-3.621-4.949-4.672-7.804c-0.695-1.888-1.693-3.702-1.991-5.714
		c-0.256-1.717-0.514-3.451-0.74-5.171c-0.073-0.544,0.183-1.234-0.116-1.703c-0.24,1.287-0.093,2.608-0.051,3.906
		c0.033,1.034-0.14,2.023-0.172,3.049c-0.038,1.22,0.291,2.437,0.58,3.608c0.351,1.424,0.572,2.882,1.081,4.264
		c0.63,1.706,1.514,3.27,2.328,4.882c0.812,1.608,1.95,2.915,2.95,4.394c0.911,1.346,2.143,2.566,3.197,3.798
		c0.887,1.035,1.597,2.208,2.364,3.358C82.836,149.915,82.842,149.922,82.847,149.93z"/>
	<path d="M145.218,333.465c-0.784,0.392-1.567,0.784-2.349,1.179c-1.541,0.778-3.182,1.433-4.579,2.417
		c-1.112,0.785-2.617,1.67-1.505,3.566c1.208,2.058,3.087,0.274,4.421-0.118c1.076,1.083,2.326,2.164,3.248,3.372
		c0.472,0.618,0.907,1.321,1.435,1.905c1.384,1.533,3.542,2.915,5.358,3.332c2.764,0.631,5.547-0.145,7.755-1.555
		c1.138-0.726,2.216-1.618,3.042-2.749c0.697-0.961,1.742-2.464,1.645-3.868c-0.034-0.48-0.276-0.95-0.408-1.421
		c-0.239-0.842-0.271-1.701-0.484-2.54c-0.344-1.367-0.521-2.594-0.653-3.968c-0.058-0.593-0.112-0.947,0.256-1.296
		c0.369-0.351,1.047-0.553,1.457-0.829c0.479-0.321,1.013-0.627,0.938-1.4c-0.168-1.781-1.81-1.847-2.962-1.775
		c-2.388,0.148-4.814,0.746-7.079,1.34c-1.998,0.524-3.789,1.568-5.626,2.471C147.82,332.167,146.518,332.814,145.218,333.465z"/>
	<path fill="#245977" d="M151.9,350.927c0.279,0.065,0.56,0.13,0.842,0.188c1.237,0.251,2.458,0.648,3.728,0.701
		c0.621,0.025,1.235-0.046,1.854-0.099c0.518-0.045,0.957,0.077,1.49,0.012c0.448-0.055,0.583-0.075,1.021,0.072
		c0.729,0.244,1.411,0.482,2.146,0.643c0.897,0.196,3.741,0.763,3.559-0.805c-1.24-0.297-2.571-0.323-3.865-0.323
		c-0.512,0-1.192,0.089-1.558-0.28c-0.575-0.581,0.427-1.017,0.881-1.277c1.034-0.594,2.306-0.678,3.357-1.259
		c0.051-0.028,0.101-0.057,0.15-0.086c0.365-0.217,0.628-0.543,0.562-1c-0.024-0.168-0.101-0.371-0.23-0.49
		c-0.167-0.154-0.397-0.108-0.609-0.109c-0.292-0.001-0.552,0.101-0.833,0.188c-0.585,0.179-1.157,0.464-1.752,0.605
		c-0.146,0.035-1.382,0.505-1.403,0.164c-0.009-0.128,0.805-0.489,0.937-0.555c0.273-0.137,0.569-0.229,0.837-0.381
		c0.306-0.171,0.581-0.398,0.888-0.57c0.395-0.221,0.754-0.441,1.119-0.699c0.316-0.222,0.581-0.531,0.855-0.808
		c0.358-0.359,0.48-0.689,0.599-1.175c0.091-0.374,0.108-0.755,0.154-1.132c0.026-0.24-0.008-0.525-0.083-0.748
		c-0.202-0.59-1.02-0.156-1.291,0.172c-0.385,0.462-0.6,1.043-0.954,1.523c-0.201,0.271-0.379,0.513-0.601,0.761
		c-0.366,0.405-0.866,0.696-1.206,1.121c-0.249,0.312-0.362,0.549-0.771,0.692c-0.867,0.309-1.556-0.299-1.996-0.996
		c-0.608-0.966-0.244-3.582-1.099-4.32c-1.939-1.672-1.258,1.974-1.307,2.881c-0.037,0.684-0.194,1.428-0.714,1.917
		c-0.425,0.399-1.01,0.544-1.575,0.598c-1.381,0.13-2.776-0.182-4.151,0.074c-0.548,0.101-1.086,0.278-1.629,0.405
		c-0.888,0.207-1.717,0.162-2.62,0.162c-0.459,0-0.904-0.039-1.366-0.039c-0.215,0-0.43-0.008-0.634-0.031
		c-0.188-0.023-0.365-0.067-0.557-0.042c-0.053,0.22-0.16,0.411-0.204,0.63c-0.081,0.398-0.08,0.794-0.083,1.2
		c-0.002,0.404,0.162,1.51,0.499,1.707c0.37,0.217,1.288-0.039,1.712-0.028c0.882,0.021,1.709,0.309,2.607,0.306
		C149.739,350.393,150.813,350.67,151.9,350.927z"/>
	<path d="M27.352,84.144c2.559,0.005,5.1-0.719,7.642-1.16c4.92-0.855,9.761-0.435,14.718-0.326
		c5.832,0.128,11.662,1.258,17.485,1.547c5.706,0.282,11.4,0.947,17.114,0.921c5.972-0.027,12.002,0.141,17.952-0.3
		c5.484-0.406,11.038,0.187,16.521-0.246c6.254-0.49,12.579-0.441,18.834-0.982c3.707-0.32,7.632-0.327,11.279-0.97
		c0.013-0.958-1.081-1.841-1.245-2.874c-3.194,0.66-6.929,0.321-10.268,0.455c-6.003,0.24-12.014,0.805-18.046,1.002
		c-6.797,0.222-13.609,0.48-20.413,0.478c-7.161-0.003-14.261-1.022-21.391-1.461c-4.761-0.292-9.538-0.259-14.323-0.259
		c-5.025,0-9.962-0.244-14.971-0.246c-3.76-0.002-7.524-0.245-11.316-0.245c-2.824,0-5.516,0.245-8.345,0.245
		c-1.038,0-2.136-0.097-3.154,0.038c-0.154,1.078,0.59,4.003,1.436,4.629"/>
	<path fill="#FF0000" d="M41.919,47.38c0.765-0.045,1.53-0.088,2.312-0.064c0.585,0.016,1.124-0.002,1.717-0.021
		c1.291-0.043,0.526,1.165,0.12,1.767c-0.632,0.938-1.609,0.921-2.54,1.44c-1.212,0.679-2.344,1.05-3.744,1.242
		c-1.071,0.146-2.118,0.096-3.212,0.244c-0.988,0.134-1.785,0.091-2.748-0.104c-0.993-0.202-1.995-0.272-3-0.451
		c-0.724-0.127-1.436-0.567-2.127-0.829c-0.567-0.215-3.578-1.873-2.815-2.757c0.433-0.503,1.965,0.544,2.391,0.726
		c1.226,0.521,2.011-0.023,3.288-0.196c1.037-0.141,2.088-0.307,3.132-0.39c0.312-0.024,0.624-0.05,0.935-0.094
		c0.381-0.053,0.768-0.047,1.146-0.125c0.344-0.069,0.702-0.094,1.052-0.136c0.779-0.094,1.562-0.164,2.349-0.176
		C40.757,47.448,41.338,47.413,41.919,47.38z"/>
	<path fill="#245977" d="M45.82,48.221c-0.585,0.33-1.186,0.64-1.819,0.871c-1.575,0.577-3.163,1.312-4.837,1.54
		c-1.484,0.201-2.962,0.188-4.461,0.171c-1.509-0.016-3.021-0.241-4.446-0.736c-0.62-0.215-1.204-0.304-1.822-0.545
		c-0.37-0.146-0.721-0.34-1.065-0.52c-0.555-0.294-1.447-0.699-1.785-1.285c0.007,0.168,0.11,0.386,0.148,0.541
		c0.117,0.499,0.165,1.013,0.242,1.52c0.176,1.175,0.462,2.329,0.641,3.5c0.456,2.994,1.139,5.951,1.547,8.965
		c0.191,1.421,0.43,2.836,0.636,4.257c0.204,1.412,0.338,2.836,0.68,4.227c0.418,1.712,0.906,3.393,1.393,5.098
		c0.237,0.834,0.492,1.661,0.739,2.481c0.141,0.464,0.262,0.976,0.567,1.32c0.276,0.311,0.72,0.411,1.12,0.515
		c0.572,0.147,1.172,0.261,1.724,0.477c0.041,0.017,0.083,0.033,0.123,0.051c0.563,0.24,1.165,0.263,1.782,0.284
		c0.848,0.028,1.697,0.11,2.543,0.113c0.781,0.004,1.491-0.105,2.257-0.264c1.265-0.259,2.946-0.808,3.29-2.206
		c0.34-1.385,0.323-2.913,0.407-4.348c0.293-4.978,0.297-9.965,0.526-14.949c0.063-1.417,0.246-2.816,0.258-4.235
		c0.009-1.104,0.056-2.25,0.158-3.344c0.07-0.768,0.116-1.531,0.176-2.298c0.029-0.386,0.081-0.85,0.201-1.219
		c0.074-0.221,0.28-0.43,0.188-0.665c-0.021,0.006-0.042,0.012-0.062,0.016C46.606,47.792,46.078,48.074,45.82,48.221z"/>
	<path fill="#245977" d="M45.845,46.758c-0.846-0.61-1.772-0.955-2.782-1.216c-1.634-0.422-3.222-0.662-4.887-0.68
		c-1.424-0.015-2.873,0.11-4.294,0.303c-0.936,0.127-1.956,0.004-2.865,0.28c-0.025,0.008-0.052,0.014-0.077,0.021
		c-0.022,0.006-0.045,0.01-0.067,0.016c-0.008,0.002-0.015,0.008-0.023,0.011c-0.126,0.038-0.252,0.081-0.38,0.107
		c-0.438,0.092-0.895,0.174-1.317,0.3c-0.534,0.157-1.067,0.362-1.569,0.592c-0.049,0.017-0.098,0.033-0.145,0.053
		c-0.183,0.062-0.445,0.217-0.56,0.273c-0.252,0.125-0.499,0.257-0.739,0.408c-0.121,0.076-0.506,0.332-0.551,0.465
		c-0.003,0.009,0,0.019-0.002,0.027c0.104,0.045,0.213,0.11,0.322,0.179c0.033,0.048,0.075,0.092,0.135,0.125
		c0.427,0.238,0.846,0.493,1.27,0.737c0.301,0.173,0.654,0.384,0.994,0.441c0.11,0.019,0.209,0.027,0.328,0.036
		c0.156,0.011,0.299,0.023,0.46-0.002c0.175-0.026,0.234-0.104,0.368-0.204c0.254-0.19,0.513-0.252,0.818-0.176
		c0.232,0.059,0.444-0.062,0.664-0.114c0.199-0.046,0.356-0.104,0.546-0.193c0.422-0.196,0.892-0.399,1.37-0.339
		c0.274,0.036,0.521,0.2,0.8,0.205c0.378,0.007,0.75-0.183,1.104-0.291c0.324-0.099,0.622-0.241,0.959-0.285
		c0.278-0.035,0.525,0.096,0.748,0.249c0.213,0.147,0.396,0.254,0.668,0.274c0.482,0.035,0.959-0.114,1.428-0.208
		c0.438-0.089,0.889-0.054,1.332-0.074c0.294-0.015,0.608-0.056,0.901-0.029c0.265,0.025,0.509,0.13,0.764,0.195
		c0.476,0.122,0.993-0.144,1.459-0.213c0.131-0.021,0.263-0.037,0.392-0.011c0.15,0.03,0.234,0.121,0.354,0.204
		c0.104,0.072,0.228,0.208,0.336,0.255c0.083,0.036,0.245,0.002,0.335-0.025c0.286-0.086,0.57-0.231,0.857-0.332
		c0.313-0.108,0.638-0.168,0.947-0.281c0.139-0.051,0.27-0.139,0.414-0.162c0.143-0.022,0.232-0.025,0.314-0.173
		C46.566,47.291,46.219,47.028,45.845,46.758z"/>
	<path fill="#FFFFFF" stroke="#FFFFFF" stroke-width="0.1833" stroke-miterlimit="10" d="M39.773,72.952
		c0.006,0.107-0.155,0.449,0.197,0.39c0.108-0.02,0.203-0.123,0.127-0.217c-0.083-0.111-0.381-0.063-0.51-0.062"/>
	<path fill="#FFFFFF" stroke="#FFFFFF" stroke-width="0.1833" stroke-miterlimit="10" d="M37.047,73.079
		c-0.024,0.078,0.118,0.3,0.336,0.18c0.248-0.136-0.09-0.402-0.242-0.256"/>
	<path fill="#FFFFFF" stroke="#FFFFFF" stroke-width="0.1833" stroke-miterlimit="10" d="M38.197,71.703
		c-0.098,0.116-0.006,0.362,0.241,0.282c0.264-0.084-0.04-0.392-0.194-0.248"/>
	<path fill="#FFFFFF" stroke="#FFFFFF" stroke-width="0.1833" stroke-miterlimit="10" d="M40.157,70.847
		c-0.015,0.02,0.069,0.042-0.038,0.041c-0.05,0.129,0.033,0.27,0.224,0.234c0.051-0.14-0.011-0.276-0.231-0.239"/>
	<path fill="#FFFFFF" stroke="#FFFFFF" stroke-width="0.1833" stroke-miterlimit="10" d="M38.113,69.818
		c0.077,0.131,0.348,0.35,0.467,0.102c0.072-0.147-0.256-0.441-0.376-0.246"/>
	<path fill="#FFFFFF" stroke="#FFFFFF" stroke-width="0.1833" stroke-miterlimit="10" d="M36.103,70.426
		c0.014,0.037,0.043,0.061,0.056,0.101c0.051,0.003,0.077,0.009,0.126-0.001c0.042-0.123-0.122-0.231-0.23-0.133"/>
	<path fill="#FFFFFF" stroke="#FFFFFF" stroke-width="0.1833" stroke-miterlimit="10" d="M34.862,72.017
		c0.228,0.48,0.41-0.097,0.046-0.036"/>
	<path fill="#FFFFFF" stroke="#FFFFFF" stroke-width="0.1833" stroke-miterlimit="10" d="M33.679,71.576
		c0,0.026,0.041,0.415,0.185,0.213c0.084-0.119-0.112-0.281-0.232-0.177"/>
	<path fill="#FFFFFF" stroke="#FFFFFF" stroke-width="0.1833" stroke-miterlimit="10" d="M34.213,69.929
		c-0.024,0.019-0.105,0.239,0.098,0.243c0.205,0.004,0.147-0.258-0.053-0.278"/>
	<path fill="#FFFFFF" stroke="#FFFFFF" stroke-width="0.1833" stroke-miterlimit="10" d="M36.434,68.072
		c-0.044,0.081-0.125,0.311,0.11,0.284c0.233-0.024,0.133-0.239-0.065-0.25"/>
	<path fill="#FFFFFF" stroke="#FFFFFF" stroke-width="0.1833" stroke-miterlimit="10" d="M37.945,66.015
		c-0.01,0.055-0.012,0.308,0.196,0.24c0.202-0.065,0.084-0.356-0.148-0.312"/>
	<path fill="#FFFFFF" stroke="#FFFFFF" stroke-width="0.1833" stroke-miterlimit="10" d="M39.862,65.336
		c-0.029,0.015-0.02,0.049-0.086,0.045c-0.02,0.056-0.019,0.146,0.004,0.201c0.36,0.057,0.239-0.434-0.013-0.243"/>
	<path fill="#FFFFFF" stroke="#FFFFFF" stroke-width="0.1833" stroke-miterlimit="10" d="M38.423,63.872
		c-0.12,0.118,0.162,0.334,0.382,0.214c0.226-0.124-0.053-0.421-0.242-0.324"/>
	<path fill="#FFFFFF" stroke="#FFFFFF" stroke-width="0.1833" stroke-miterlimit="10" d="M37.403,62.289
		c0.007,0.023,0.069,0.074,0.058,0.134c0.373,0.094,0.334-0.356-0.006-0.343c-0.013,0.021-0.017,0.043-0.008,0.065"/>
	<path fill="#FFFFFF" stroke="#FFFFFF" stroke-width="0.1833" stroke-miterlimit="10" d="M36.133,59.682
		c0.014,0.358,0.58-0.224,0.049-0.138c-0.01,0.033-0.011,0.066-0.006,0.1"/>
	<path fill="#FFFFFF" stroke="#FFFFFF" stroke-width="0.1833" stroke-miterlimit="10" d="M38.772,60.092
		c-0.112,0.1,0.123,0.34,0.24,0.14c0.095-0.159-0.194-0.325-0.337-0.209"/>
	<path fill="#FFFFFF" stroke="#FFFFFF" stroke-width="0.1833" stroke-miterlimit="10" d="M38.323,58.644
		c0.002,0.101,0.016,0.398,0.322,0.271c0.282-0.122-0.048-0.455-0.231-0.309"/>
	<path fill="#FFFFFF" stroke="#FFFFFF" stroke-width="0.1833" stroke-miterlimit="10" d="M38.48,57.217
		c-0.047,0.089-0.04,0.432,0.291,0.316c0.262-0.093,0.02-0.357-0.242-0.318"/>
	<path fill="#FFFFFF" stroke="#FFFFFF" stroke-width="0.1833" stroke-miterlimit="10" d="M41.802,68.288
		c-0.045,0.099,0.189,0.336,0.38,0.166c0.257-0.226-0.428-0.457-0.43-0.199"/>
	<path fill="#FFFFFF" stroke="#FFFFFF" stroke-width="0.1833" stroke-miterlimit="10" d="M42.521,66.638
		c-0.274-0.005-0.157,0.468,0.149,0.347c0.291-0.113,0.007-0.503-0.337-0.342"/>
	<path fill="#FFFFFF" stroke="#FFFFFF" stroke-width="0.1833" stroke-miterlimit="10" d="M38.974,68.095
		c0.057,0.189,0.463,0.204,0.476-0.017c0.013-0.237-0.628-0.353-0.57-0.091"/>
	<path fill="#FFFFFF" stroke="#FFFFFF" stroke-width="0.1833" stroke-miterlimit="10" d="M33.469,65.531
		c0.074,0.16,0.336,0.329,0.437,0.065c0.047-0.119-0.059-0.237-0.244-0.24c-0.188-0.002-0.216,0.078-0.286,0.212"/>
	<path fill="#FFFFFF" stroke="#FFFFFF" stroke-width="0.1833" stroke-miterlimit="10" d="M33.23,67.814
		c0.022-0.007,0.037,0.022-0.04,0.006c-0.008,0.122,0.185,0.116,0.314,0.089c0.144-0.17-0.058-0.363-0.318-0.303
		c-0.024,0.052-0.06,0.119-0.053,0.173"/>
	<path fill="#FFFFFF" stroke="#FFFFFF" stroke-width="0.1833" stroke-miterlimit="10" d="M32.517,69.962
		c-0.075,0.126,0.14,0.424,0.291,0.201c0.075-0.109-0.081-0.318-0.243-0.312c-0.194,0.007-0.192,0.178-0.231,0.294"/>
	<path fill="#FFFFFF" stroke="#FFFFFF" stroke-width="0.1833" stroke-miterlimit="10" d="M32.08,71.644
		c-0.068,0.146-0.057,0.46,0.243,0.458c0.343-0.003,0.216-0.443-0.093-0.385c-0.01,0.05-0.022,0.123-0.005,0.173"/>
	<path fill="#FFFFFF" stroke="#FFFFFF" stroke-width="0.1833" stroke-miterlimit="10" d="M34.745,73.336
		c0.117,0.148,0.683,0.295,0.565-0.047c-0.085-0.263-0.672-0.13-0.421,0.115"/>
	<path fill="#FFFFFF" stroke="#FFFFFF" stroke-width="0.1833" stroke-miterlimit="10" d="M40.174,74.083
		c-0.087,0.125,0.031,0.341,0.227,0.206c0.12-0.085,0.083-0.457-0.136-0.312"/>
	<path fill="#FFFFFF" stroke="#FFFFFF" stroke-width="0.1833" stroke-miterlimit="10" d="M41.041,72.751
		c-0.374,0.52,0.724,0.415,0.375,0.062"/>
	<path fill="#FFFFFF" stroke="#FFFFFF" stroke-width="0.1833" stroke-miterlimit="10" d="M42.679,72.328
		c0.068,0.005-0.019,0.004-0.038,0.006c-0.127,0.671,0.823-0.168,0.036-0.113"/>
	<path fill="#FFFFFF" stroke="#FFFFFF" stroke-width="0.1833" stroke-miterlimit="10" d="M42.143,71.341
		c-0.02,0.155,0.227,0.411,0.371,0.138c0.091-0.172-0.243-0.348-0.421-0.243"/>
	<path fill="#FFFFFF" stroke="#FFFFFF" stroke-width="0.1833" stroke-miterlimit="10" d="M43.259,70.608
		c-0.041,0.149,0.109,0.239,0.234,0.069c0.139-0.188-0.093-0.324-0.334-0.281"/>
	<path fill="#FFFFFF" stroke="#FFFFFF" stroke-width="0.1833" stroke-miterlimit="10" d="M41.51,70.287
		c0.296,0.375,0.589-0.262-0.004-0.179"/>
	<path fill="#FFFFFF" stroke="#FFFFFF" stroke-width="0.1833" stroke-miterlimit="10" d="M40.141,69.958
		c0.008,0.024,0.069,0.074,0.057,0.133c0.275,0.144,0.467-0.208,0.177-0.28"/>
	<path fill="#FFFFFF" stroke="#FFFFFF" stroke-width="0.1833" stroke-miterlimit="10" d="M40.125,69.141
		c-0.034,0.19,0.317,0.354,0.425,0.133"/>
	<path fill="#FFFFFF" stroke="#FFFFFF" stroke-width="0.1833" stroke-miterlimit="10" d="M41.298,69.009
		c0.082-0.003-0.032,0.008-0.037,0.007c-0.282,0.336,0.483,0.223,0.226,0.062"/>
	<path fill="#FFFFFF" stroke="#FFFFFF" stroke-width="0.1833" stroke-miterlimit="10" d="M40.192,67.786
		c0.108,0.338,0.626-0.038,0.231-0.147"/>
	<path fill="#FFFFFF" stroke="#FFFFFF" stroke-width="0.1833" stroke-miterlimit="10" d="M40.646,67.028
		c-0.073,0.319,0.502,0.207,0.233-0.075"/>
	<path fill="#FFFFFF" stroke="#FFFFFF" stroke-width="0.1833" stroke-miterlimit="10" d="M37.53,56.559
		c0.079,0.047-0.109-0.02-0.135-0.03c-0.032,0.089-0.02,0.302,0.185,0.248c0.188-0.055,0.106-0.299-0.101-0.288"/>
	<path fill="#FFFFFF" stroke="#FFFFFF" stroke-width="0.1833" stroke-miterlimit="10" d="M35.635,55.919
		c0.009,0.093,0.096,0.212,0.277,0.168c0.025-0.127-0.176-0.59-0.328-0.344"/>
	<path fill="#FFFFFF" stroke="#FFFFFF" stroke-width="0.1833" stroke-miterlimit="10" d="M34.742,53.586
		c0.039,0.126,0.238,0.312,0.372,0.146c0.103-0.124-0.14-0.296-0.231-0.253"/>
	<path fill="#FFFFFF" stroke="#FFFFFF" stroke-width="0.1833" stroke-miterlimit="10" d="M35.341,67.716
		c-0.046,0.096-0.051,0.254-0.218,0.251c-0.026-0.068-0.048-0.139-0.056-0.21"/>
	<path fill="#FFFFFF" stroke="#FFFFFF" stroke-width="0.1833" stroke-miterlimit="10" d="M36.307,54.235
		c-0.196,0.066-0.215,0.557,0.104,0.427c0.202-0.086,0.23-0.533-0.104-0.465"/>
	<path fill="#FFFFFF" stroke="#FFFFFF" stroke-width="0.1833" stroke-miterlimit="10" d="M36.281,57.899
		c-0.025-0.067-0.03-0.113-0.133-0.101c-0.017,0.111-0.049,0.34,0.187,0.317c0.23-0.027,0.134-0.38,0.131-0.506"/>
	<path fill="#FFFFFF" stroke="#FFFFFF" stroke-width="0.1833" stroke-miterlimit="10" d="M37.541,57.197
		c0.044,0.018-0.092-0.021-0.134,0.071c-0.025,0.063-0.024,0.188,0.042,0.227c0.278,0.165,0.293-0.216,0.272-0.33
		c-0.028-0.008-0.059-0.01-0.088-0.003"/>
	<path fill="#FFFFFF" stroke="#FFFFFF" stroke-width="0.1833" stroke-miterlimit="10" d="M37.285,58.627
		c0.083,0.033-0.059,0.009-0.087,0.005c-0.032,0.19,0.038,0.328,0.323,0.27c0.023-0.084,0.006-0.168-0.057-0.24
		c-0.035-0.003-0.063,0.01-0.084,0.034"/>
	<path fill="#FFFFFF" stroke="#FFFFFF" stroke-width="0.1833" stroke-miterlimit="10" d="M37.783,60.076
		c0.033,0.098,0.218,0.341,0.395,0.182c0.124-0.113-0.048-0.253-0.204-0.186"/>
	<path fill="#FFFFFF" stroke="#FFFFFF" stroke-width="0.1833" stroke-miterlimit="10" d="M37.047,60.872
		c-0.006,0.041,0.011,0.12,0.011,0.173c0.173,0.018,0.464-0.033,0.271-0.179"/>
	<path fill="#FFFFFF" stroke="#FFFFFF" stroke-width="0.1833" stroke-miterlimit="10" d="M36.184,62.35
		c0.033-0.001,0.05-0.01,0.038-0.031c-0.184,0.159,0.216,0.377,0.435,0.173c0.203-0.19-0.033-0.519-0.146-0.257"/>
	<path fill="#FFFFFF" stroke="#FFFFFF" stroke-width="0.1833" stroke-miterlimit="10" d="M37.13,65.213
		c-0.076-0.046-0.165-0.114-0.277-0.099c0.003,0.212,0.393,0.454,0.625,0.278c0.213-0.166-0.06-0.562-0.256-0.325"/>
	<path fill="#FFFFFF" stroke="#FFFFFF" stroke-width="0.1833" stroke-miterlimit="10" d="M35.974,66.195
		c-0.035-0.029-0.101-0.055-0.144-0.075c-0.152,0.146,0.116,0.338,0.334,0.289c0.302-0.066,0.217-0.395-0.1-0.357"/>
	<path fill="#FFFFFF" stroke="#FFFFFF" stroke-width="0.1833" stroke-miterlimit="10" d="M34.295,66.867
		c0.072,0.093,0.166,0.392,0.429,0.386c0.373-0.008,0.245-0.485-0.054-0.393"/>
	<path fill="#FFFFFF" stroke="#FFFFFF" stroke-width="0.1833" stroke-miterlimit="10" d="M34.794,68.496
		c-0.002,0.123,0.305,0.248,0.477,0.162c0.348-0.176-0.183-0.407-0.426-0.372c-0.013,0.022-0.016,0.043-0.005,0.066"/>
	<path fill="#FFFFFF" stroke="#FFFFFF" stroke-width="0.1833" stroke-miterlimit="10" d="M36.641,69.065
		c-0.323,0.216,0.798,0.441,0.378-0.007"/>
	<path fill="#FFFFFF" stroke="#FFFFFF" stroke-width="0.1833" stroke-miterlimit="10" d="M37.906,68.72
		c-0.076,0.23,0.327,0.229,0.327-0.005"/>
	<path fill="#FFFFFF" stroke="#FFFFFF" stroke-width="0.1833" stroke-miterlimit="10" d="M37.447,67.019
		c0.005,0.055-0.026,0.176,0.039,0.226c0.11,0.079,0.254,0.085,0.295-0.052"/>
	<path fill="#FFFFFF" stroke="#FFFFFF" stroke-width="0.1833" stroke-miterlimit="10" d="M38.65,65.966
		c-0.188,0.166,0.375,0.595,0.332,0.064"/>
	<path fill="#FFFFFF" stroke="#FFFFFF" stroke-width="0.1833" stroke-miterlimit="10" d="M39.619,64.95
		c-0.037,0.13,0.114,0.329,0.238,0.137"/>
	<path fill="#FFFFFF" stroke="#FFFFFF" stroke-width="0.1833" stroke-miterlimit="10" d="M36.48,67.232
		c0.023,0.138-0.033,0.258-0.264,0.212c-0.082-0.205,0.198-0.301,0.313-0.107"/>
	<path fill="#245977" stroke="#FFFFFF" stroke-width="0.2001" stroke-miterlimit="10" d="M32.394,46.518
		c0.037,0.052,0.098,0.092,0.183,0.1c0.043-0.095,0.004-0.18-0.129-0.168c-0.012,0.021-0.015,0.045-0.006,0.067"/>
	<path fill="#FFFFFF" stroke="#FFFFFF" stroke-width="0.1833" stroke-miterlimit="10" d="M34.792,65.413
		c0.035,0.151-0.172,0.27-0.277,0.117c-0.118-0.169,0.22-0.381,0.321-0.153"/>
	<path fill="#FFFFFF" stroke="#FFFFFF" stroke-width="0.1833" stroke-miterlimit="10" d="M35.484,63.23
		c-0.029,0.104-0.089,0.211-0.216,0.251c-0.101-0.118-0.046-0.466,0.17-0.25"/>
	<path fill="#FFFFFF" stroke="#FFFFFF" stroke-width="0.1833" stroke-miterlimit="10" d="M35.635,61.52
		c0.024,0.112-0.061,0.288-0.219,0.283c-0.028-0.084-0.02-0.172,0.037-0.244"/>
	<path fill="#FFFFFF" stroke="#FFFFFF" stroke-width="0.1833" stroke-miterlimit="10" d="M34.614,61.005
		c-0.01,0.067,0.001,0.106-0.082,0.141c-0.01-0.042-0.02-0.095-0.011-0.14"/>
	<path fill="#FFFFFF" stroke="#FFFFFF" stroke-width="0.1833" stroke-miterlimit="10" d="M35.68,58.257
		c0.154,0.943-1.368-0.335,0.1-0.16"/>
	<path fill="#FFFFFF" stroke="#FFFFFF" stroke-width="0.1833" stroke-miterlimit="10" d="M36.054,56.342
		c0.003,0.006-0.016,0.235-0.012,0.309c-0.502-0.026-0.335-0.561,0.109-0.629"/>
	<path fill="#FFFFFF" stroke="#FFFFFF" stroke-width="0.1833" stroke-miterlimit="10" d="M36.838,54.339
		c-0.09,0.062-0.107,0.134-0.291,0.071c-0.033-0.083-0.011-0.132-0.004-0.214c0.099-0.022,0.188-0.02,0.292-0.019"/>
	<path fill="#FF0000" d="M44.531,60.842c0.162-1.556,0.122-3.143,0.117-4.701c-0.003-1.01-0.004-2.008,0.034-3.028
		c0.033-0.892,0.137-1.613-0.923-1.637c-1.154-0.025-2.385,0.245-3.508,0.496c-1.326,0.296-2.748,1.004-4.152,0.845
		c-1.406-0.158-2.845-0.243-4.249-0.519c-1.306-0.257-2.477-0.981-3.761-1.245c-0.036,0.576,0.181,1.044,0.346,1.576
		c0.207,0.674,0.265,1.409,0.383,2.105c0.273,1.573,0.572,3.143,0.871,4.711c0.59,3.097,1.188,6.194,1.604,9.319
		c0.204,1.529,0.525,3.021,0.873,4.519c0.345,1.486,0.654,3.042,1.62,4.272c0.766,0.976,2.117,1.188,3.303,1.129
		c0.621-0.031,1.203-0.161,1.825-0.151c0.45,0.007,0.987,0.044,1.429-0.009c0.741-0.087,1.733-0.566,2.357-0.977
		c0.625-0.412,0.523-1.182,0.551-1.934c0.046-1.239,0.167-2.492,0.327-3.733c0.472-3.619,0.535-7.289,0.939-10.917
		C44.522,60.924,44.527,60.883,44.531,60.842z"/>
	<path fill="#FFFFFF" stroke="#FFFFFF" stroke-width="0.1833" stroke-miterlimit="10" d="M40.065,75.994
		c0.004,0.1-0.142,0.411,0.182,0.356c0.101-0.019,0.187-0.113,0.116-0.198c-0.077-0.103-0.349-0.059-0.468-0.055"/>
	<path fill="#FFFFFF" stroke="#FFFFFF" stroke-width="0.1833" stroke-miterlimit="10" d="M37.568,76.117
		c-0.022,0.071,0.109,0.274,0.309,0.164c0.227-0.126-0.085-0.368-0.224-0.234"/>
	<path fill="#FFFFFF" stroke="#FFFFFF" stroke-width="0.1833" stroke-miterlimit="10" d="M38.619,74.854
		c-0.09,0.106-0.006,0.332,0.222,0.257c0.241-0.076-0.039-0.356-0.179-0.226"/>
	<path fill="#FFFFFF" stroke="#FFFFFF" stroke-width="0.1833" stroke-miterlimit="10" d="M40.412,74.064
		c-0.015,0.019,0.063,0.038-0.034,0.038c-0.047,0.118,0.03,0.245,0.205,0.214c0.046-0.129-0.011-0.254-0.213-0.219"/>
	<path fill="#FFFFFF" stroke="#FFFFFF" stroke-width="0.1833" stroke-miterlimit="10" d="M38.537,73.128
		c0.071,0.12,0.318,0.319,0.427,0.091c0.067-0.134-0.234-0.403-0.343-0.225"/>
	<path fill="#FFFFFF" stroke="#FFFFFF" stroke-width="0.1833" stroke-miterlimit="10" d="M36.697,73.688
		c0.012,0.035,0.038,0.057,0.051,0.091c0.047,0.005,0.07,0.01,0.116,0c0.036-0.111-0.112-0.212-0.212-0.121"/>
	<path fill="#FFFFFF" stroke="#FFFFFF" stroke-width="0.1833" stroke-miterlimit="10" d="M35.564,75.149
		c0.209,0.439,0.375-0.09,0.041-0.033"/>
	<path fill="#FFFFFF" stroke="#FFFFFF" stroke-width="0.1833" stroke-miterlimit="10" d="M34.479,74.749
		c0.001,0.023,0.038,0.379,0.169,0.194c0.077-0.109-0.102-0.257-0.212-0.161"/>
	<path fill="#FFFFFF" stroke="#FFFFFF" stroke-width="0.1833" stroke-miterlimit="10" d="M34.963,73.238
		c-0.021,0.017-0.094,0.22,0.092,0.223c0.188,0.004,0.136-0.237-0.049-0.255"/>
	<path fill="#FFFFFF" stroke="#FFFFFF" stroke-width="0.1833" stroke-miterlimit="10" d="M36.996,71.532
		c-0.043,0.074-0.115,0.285,0.1,0.26c0.213-0.022,0.121-0.22-0.061-0.229"/>
	<path fill="#FFFFFF" stroke="#FFFFFF" stroke-width="0.1833" stroke-miterlimit="10" d="M38.375,69.643
		c-0.01,0.051-0.012,0.282,0.18,0.221c0.185-0.062,0.075-0.328-0.137-0.284"/>
	<path fill="#FFFFFF" stroke="#FFFFFF" stroke-width="0.1833" stroke-miterlimit="10" d="M40.128,69.017
		c-0.027,0.013-0.017,0.045-0.079,0.042c-0.018,0.051-0.016,0.134,0.006,0.186c0.328,0.051,0.217-0.398-0.012-0.225"/>
	<path fill="#FFFFFF" stroke="#FFFFFF" stroke-width="0.1833" stroke-miterlimit="10" d="M38.807,67.68
		c-0.111,0.109,0.148,0.305,0.35,0.194c0.207-0.113-0.049-0.386-0.223-0.295"/>
	<path fill="#FFFFFF" stroke="#FFFFFF" stroke-width="0.1833" stroke-miterlimit="10" d="M37.869,66.231
		c0.004,0.022,0.062,0.068,0.053,0.123c0.342,0.085,0.305-0.328-0.008-0.314c-0.012,0.019-0.015,0.04-0.005,0.06"/>
	<path fill="#FFFFFF" stroke="#FFFFFF" stroke-width="0.1833" stroke-miterlimit="10" d="M36.697,63.845
		c0.014,0.329,0.531-0.206,0.045-0.125c-0.009,0.031-0.011,0.061-0.004,0.092"/>
	<path fill="#FFFFFF" stroke="#FFFFFF" stroke-width="0.1833" stroke-miterlimit="10" d="M39.118,64.216
		c-0.104,0.092,0.113,0.31,0.22,0.127c0.085-0.146-0.18-0.297-0.31-0.19"/>
	<path fill="#FFFFFF" stroke="#FFFFFF" stroke-width="0.1833" stroke-miterlimit="10" d="M38.701,62.89
		c0.004,0.093,0.018,0.365,0.297,0.247c0.259-0.113-0.045-0.417-0.213-0.282"/>
	<path fill="#FFFFFF" stroke="#FFFFFF" stroke-width="0.1833" stroke-miterlimit="10" d="M38.842,61.582
		c-0.041,0.081-0.035,0.395,0.269,0.29c0.24-0.086,0.017-0.329-0.224-0.291"/>
	<path fill="#FFFFFF" stroke="#FFFFFF" stroke-width="0.1833" stroke-miterlimit="10" d="M41.912,71.718
		c-0.039,0.089,0.176,0.306,0.349,0.15c0.236-0.206-0.393-0.418-0.395-0.182"/>
	<path fill="#FFFFFF" stroke="#FFFFFF" stroke-width="0.1833" stroke-miterlimit="10" d="M42.567,70.203
		c-0.252-0.004-0.144,0.428,0.138,0.317c0.265-0.104,0.006-0.461-0.311-0.312"/>
	<path fill="#FFFFFF" stroke="#FFFFFF" stroke-width="0.1833" stroke-miterlimit="10" d="M39.321,71.547
		c0.053,0.173,0.425,0.185,0.435-0.017c0.012-0.217-0.574-0.321-0.522-0.082"/>
	<path fill="#FFFFFF" stroke="#FFFFFF" stroke-width="0.1833" stroke-miterlimit="10" d="M34.271,69.212
		c0.068,0.147,0.31,0.301,0.4,0.059c0.042-0.109-0.054-0.216-0.225-0.219c-0.172-0.002-0.198,0.071-0.262,0.193"/>
	<path fill="#FFFFFF" stroke="#FFFFFF" stroke-width="0.1833" stroke-miterlimit="10" d="M34.059,71.304
		c0.021-0.006,0.035,0.021-0.037,0.006c-0.007,0.111,0.17,0.106,0.287,0.079c0.133-0.153-0.053-0.332-0.29-0.275
		c-0.021,0.049-0.056,0.108-0.048,0.159"/>
	<path fill="#FFFFFF" stroke="#FFFFFF" stroke-width="0.1833" stroke-miterlimit="10" d="M33.41,73.272
		c-0.068,0.116,0.128,0.389,0.268,0.185c0.067-0.101-0.075-0.292-0.224-0.285c-0.179,0.006-0.176,0.163-0.212,0.27"/>
	<path fill="#FFFFFF" stroke="#FFFFFF" stroke-width="0.1833" stroke-miterlimit="10" d="M33.014,74.813
		c-0.061,0.135-0.051,0.421,0.225,0.419c0.314-0.002,0.197-0.406-0.086-0.352c-0.008,0.046-0.02,0.112-0.004,0.158"/>
	<path fill="#FFFFFF" stroke="#FFFFFF" stroke-width="0.1833" stroke-miterlimit="10" d="M35.46,76.358
		c0.109,0.136,0.626,0.269,0.521-0.045c-0.08-0.24-0.619-0.116-0.388,0.106"/>
	<path fill="#FFFFFF" stroke="#FFFFFF" stroke-width="0.1833" stroke-miterlimit="10" d="M40.435,77.029
		c-0.079,0.115,0.029,0.312,0.209,0.188c0.11-0.078,0.075-0.417-0.125-0.286"/>
	<path fill="#FFFFFF" stroke="#FFFFFF" stroke-width="0.1833" stroke-miterlimit="10" d="M41.227,75.808
		c-0.342,0.477,0.664,0.378,0.345,0.056"/>
	<path fill="#FFFFFF" stroke="#FFFFFF" stroke-width="0.1833" stroke-miterlimit="10" d="M42.726,75.416
		c0.063,0.003-0.018,0.003-0.035,0.006c-0.114,0.614,0.754-0.157,0.032-0.104"/>
	<path fill="#FFFFFF" stroke="#FFFFFF" stroke-width="0.1833" stroke-miterlimit="10" d="M42.231,74.514
		c-0.018,0.142,0.209,0.374,0.341,0.123c0.083-0.157-0.224-0.316-0.387-0.222"/>
	<path fill="#FFFFFF" stroke="#FFFFFF" stroke-width="0.1833" stroke-miterlimit="10" d="M43.253,73.839
		c-0.038,0.137,0.101,0.219,0.217,0.062c0.124-0.173-0.087-0.297-0.31-0.255"/>
	<path fill="#FFFFFF" stroke="#FFFFFF" stroke-width="0.1833" stroke-miterlimit="10" d="M41.649,73.549
		c0.272,0.344,0.538-0.241-0.003-0.164"/>
	<path fill="#FFFFFF" stroke="#FFFFFF" stroke-width="0.1833" stroke-miterlimit="10" d="M40.396,73.25
		c0.006,0.023,0.062,0.067,0.052,0.122c0.253,0.131,0.427-0.191,0.161-0.258"/>
	<path fill="#FFFFFF" stroke="#FFFFFF" stroke-width="0.1833" stroke-miterlimit="10" d="M40.378,72.502
		c-0.031,0.175,0.293,0.323,0.391,0.119"/>
	<path fill="#FFFFFF" stroke="#FFFFFF" stroke-width="0.1833" stroke-miterlimit="10" d="M41.452,72.378
		c0.075-0.002-0.029,0.007-0.033,0.007c-0.258,0.309,0.443,0.202,0.207,0.056"/>
	<path fill="#FFFFFF" stroke="#FFFFFF" stroke-width="0.1833" stroke-miterlimit="10" d="M40.437,71.26
		c0.102,0.312,0.573-0.035,0.212-0.135"/>
	<path fill="#FFFFFF" stroke="#FFFFFF" stroke-width="0.1833" stroke-miterlimit="10" d="M40.851,70.566
		c-0.066,0.292,0.46,0.187,0.215-0.071"/>
	<path fill="#FFFFFF" stroke="#FFFFFF" stroke-width="0.1833" stroke-miterlimit="10" d="M37.969,60.981
		c0.074,0.044-0.098-0.017-0.121-0.026c-0.029,0.082-0.019,0.275,0.17,0.225c0.172-0.048,0.096-0.273-0.094-0.263"/>
	<path fill="#FFFFFF" stroke="#FFFFFF" stroke-width="0.1833" stroke-miterlimit="10" d="M36.231,60.399
		c0.008,0.086,0.089,0.194,0.257,0.155c0.021-0.116-0.164-0.542-0.303-0.315"/>
	<path fill="#FFFFFF" stroke="#FFFFFF" stroke-width="0.1833" stroke-miterlimit="10" d="M35.409,58.265
		c0.036,0.115,0.219,0.286,0.341,0.135c0.094-0.115-0.129-0.272-0.213-0.232"/>
	<path fill="#FFFFFF" stroke="#FFFFFF" stroke-width="0.1833" stroke-miterlimit="10" d="M36.685,57.391
		c-0.028-0.011-0.054-0.019-0.08-0.026c-0.018,0.055-0.017,0.133,0.001,0.188c0.187,0.038,0.333-0.051,0.292-0.196"/>
	<path fill="#FFFFFF" stroke="#FFFFFF" stroke-width="0.1833" stroke-miterlimit="10" d="M37.223,56.467
		c-0.027-0.005-0.055-0.002-0.08,0.006c-0.059,0.149,0.098,0.18,0.202,0.089c0.106-0.09,0.07-0.279-0.084-0.324"/>
	<path fill="#FFFFFF" stroke="#FFFFFF" stroke-width="0.1833" stroke-miterlimit="10" d="M38.007,54.886
		c-0.007,0.064,0.065,0.199,0.21,0.152c0.152-0.048,0.107-0.333,0.043-0.387"/>
	<path fill="#FFFFFF" stroke="#FFFFFF" stroke-width="0.1833" stroke-miterlimit="10" d="M38.322,53.509
		c-0.004,0.057,0.002,0.1,0.078,0.126c0.115-0.141,0.143-0.258,0.129-0.425"/>
	<path fill="#245977" stroke="#245977" stroke-width="0.1833" stroke-miterlimit="10" d="M36.834,52.466
		c-0.007,0.039,0.037,0.073,0.008,0.124c0.277,0.061,0.416-0.442,0.114-0.389"/>
	<path fill="#FFFFFF" stroke="#FFFFFF" stroke-width="0.1833" stroke-miterlimit="10" d="M35.993,71.208
		c-0.042,0.089-0.046,0.233-0.2,0.23c-0.024-0.062-0.043-0.126-0.051-0.191"/>
	<path fill="#FFFFFF" stroke="#FFFFFF" stroke-width="0.1833" stroke-miterlimit="10" d="M36.844,58.855
		c-0.18,0.062-0.195,0.511,0.098,0.392c0.184-0.079,0.21-0.489-0.097-0.426"/>
	<path fill="#FFFFFF" stroke="#FFFFFF" stroke-width="0.1833" stroke-miterlimit="10" d="M36.83,62.213
		c-0.024-0.062-0.028-0.104-0.122-0.091c-0.015,0.101-0.044,0.31,0.172,0.289c0.21-0.025,0.12-0.349,0.118-0.463"/>
	<path fill="#FFFFFF" stroke="#FFFFFF" stroke-width="0.1833" stroke-miterlimit="10" d="M37.982,61.566
		c0.04,0.016-0.084-0.02-0.122,0.066c-0.023,0.058-0.022,0.172,0.039,0.208c0.255,0.149,0.267-0.199,0.247-0.304
		c-0.025-0.007-0.053-0.01-0.079-0.004"/>
	<path fill="#FFFFFF" stroke="#FFFFFF" stroke-width="0.1833" stroke-miterlimit="10" d="M37.752,62.877
		c0.075,0.03-0.055,0.008-0.08,0.006c-0.029,0.174,0.035,0.3,0.295,0.245c0.022-0.077,0.007-0.154-0.051-0.22
		c-0.031-0.002-0.059,0.008-0.077,0.031"/>
	<path fill="#FFFFFF" stroke="#FFFFFF" stroke-width="0.1833" stroke-miterlimit="10" d="M38.211,64.203
		c0.03,0.09,0.199,0.312,0.361,0.166c0.113-0.105-0.044-0.231-0.188-0.17"/>
	<path fill="#FFFFFF" stroke="#FFFFFF" stroke-width="0.1833" stroke-miterlimit="10" d="M37.539,64.934
		c-0.006,0.037,0.01,0.11,0.01,0.159c0.158,0.016,0.426-0.031,0.246-0.164"/>
	<path fill="#FFFFFF" stroke="#FFFFFF" stroke-width="0.1833" stroke-miterlimit="10" d="M36.751,66.29
		c0.031,0,0.045-0.009,0.035-0.03c-0.168,0.147,0.197,0.346,0.397,0.157c0.187-0.175-0.031-0.474-0.134-0.234"/>
	<path fill="#FFFFFF" stroke="#FFFFFF" stroke-width="0.1833" stroke-miterlimit="10" d="M37.625,68.911
		c-0.069-0.043-0.15-0.104-0.253-0.09c0.002,0.195,0.358,0.415,0.571,0.253c0.194-0.151-0.055-0.516-0.235-0.297"/>
	<path fill="#FFFFFF" stroke="#FFFFFF" stroke-width="0.1833" stroke-miterlimit="10" d="M36.567,69.814
		c-0.031-0.027-0.091-0.05-0.131-0.069c-0.14,0.134,0.108,0.31,0.308,0.264c0.275-0.062,0.197-0.361-0.093-0.328"/>
	<path fill="#FFFFFF" stroke="#FFFFFF" stroke-width="0.1833" stroke-miterlimit="10" d="M35.031,70.434
		c0.068,0.084,0.154,0.357,0.394,0.352c0.343-0.008,0.224-0.445-0.05-0.358"/>
	<path fill="#FFFFFF" stroke="#FFFFFF" stroke-width="0.1833" stroke-miterlimit="10" d="M35.492,71.925
		c-0.001,0.112,0.281,0.226,0.438,0.147c0.318-0.162-0.168-0.372-0.391-0.34c-0.012,0.02-0.014,0.039-0.006,0.061"/>
	<path fill="#FFFFFF" stroke="#FFFFFF" stroke-width="0.1833" stroke-miterlimit="10" d="M37.187,72.441
		c-0.297,0.197,0.73,0.402,0.345-0.008"/>
	<path fill="#FFFFFF" stroke="#FFFFFF" stroke-width="0.1833" stroke-miterlimit="10" d="M38.344,72.121
		c-0.068,0.212,0.303,0.209,0.301-0.006"/>
	<path fill="#FFFFFF" stroke="#FFFFFF" stroke-width="0.1833" stroke-miterlimit="10" d="M37.92,70.565
		c0.005,0.049-0.023,0.16,0.036,0.205c0.101,0.071,0.231,0.078,0.27-0.048"/>
	<path fill="#FFFFFF" stroke="#FFFFFF" stroke-width="0.1833" stroke-miterlimit="10" d="M39.019,69.598
		c-0.171,0.152,0.347,0.543,0.306,0.058"/>
	<path fill="#FFFFFF" stroke="#FFFFFF" stroke-width="0.1833" stroke-miterlimit="10" d="M39.904,68.664
		c-0.033,0.12,0.105,0.302,0.219,0.125"/>
	<path fill="#FFFFFF" stroke="#FFFFFF" stroke-width="0.1833" stroke-miterlimit="10" d="M37.035,70.762
		c0.021,0.127-0.029,0.237-0.241,0.196c-0.076-0.188,0.181-0.275,0.287-0.1"/>
	<path fill="#245977" stroke="#245977" stroke-width="0.1833" stroke-miterlimit="10" d="M33.24,51.797
		c0.035,0.047,0.089,0.084,0.168,0.089c0.039-0.087,0.003-0.164-0.118-0.153c-0.013,0.02-0.014,0.042-0.006,0.062"/>
	<path fill="#245977" stroke="#245977" stroke-width="0.1833" stroke-miterlimit="10" d="M38.021,51.56
		c0.037,0.086,0.067,0.253,0.229,0.163c0.149-0.086,0.04-0.346-0.103-0.23"/>
	<path fill="#FFFFFF" stroke="#FFFFFF" stroke-width="0.1833" stroke-miterlimit="10" d="M35.484,69.101
		c0.032,0.138-0.157,0.246-0.255,0.108c-0.107-0.155,0.202-0.352,0.295-0.142"/>
	<path fill="#FFFFFF" stroke="#FFFFFF" stroke-width="0.1833" stroke-miterlimit="10" d="M36.114,67.099
		c-0.028,0.095-0.083,0.193-0.199,0.231c-0.092-0.109-0.043-0.427,0.156-0.23"/>
	<path fill="#FFFFFF" stroke="#FFFFFF" stroke-width="0.1833" stroke-miterlimit="10" d="M36.246,65.532
		c0.022,0.102-0.055,0.263-0.198,0.259c-0.027-0.076-0.02-0.157,0.031-0.224"/>
	<path fill="#FFFFFF" stroke="#FFFFFF" stroke-width="0.1833" stroke-miterlimit="10" d="M35.31,65.062
		c-0.009,0.062,0.003,0.098-0.075,0.13c-0.009-0.039-0.018-0.087-0.01-0.128"/>
	<path fill="#FFFFFF" stroke="#FFFFFF" stroke-width="0.1833" stroke-miterlimit="10" d="M36.279,62.542
		c0.143,0.863-1.254-0.304,0.092-0.147"/>
	<path fill="#FFFFFF" stroke="#FFFFFF" stroke-width="0.1833" stroke-miterlimit="10" d="M36.618,60.787
		c0.003,0.005-0.015,0.216-0.011,0.282c-0.46-0.021-0.308-0.513,0.098-0.576"/>
	<path fill="#FFFFFF" stroke="#FFFFFF" stroke-width="0.1833" stroke-miterlimit="10" d="M37.331,58.949
		c-0.082,0.057-0.099,0.123-0.268,0.067c-0.028-0.076-0.009-0.121-0.004-0.196c0.092-0.021,0.172-0.02,0.269-0.018"/>
	<path fill="#FFFFFF" stroke="#FFFFFF" stroke-width="0.1833" stroke-miterlimit="10" d="M33.776,46.704
		c-0.006-0.022-0.063-0.066-0.054-0.122c-0.345-0.077-0.302,0.333,0.011,0.314c0.012-0.02,0.015-0.04,0.005-0.06"/>
	<path fill="#FFFFFF" stroke="#FFFFFF" stroke-width="0.1833" stroke-miterlimit="10" d="M34.985,49.071
		c-0.018-0.328-0.527,0.215-0.042,0.127c0.008-0.031,0.009-0.061,0.003-0.093"/>
	<path fill="#FFFFFF" stroke="#FFFFFF" stroke-width="0.1833" stroke-miterlimit="10" d="M32.56,48.739
		c0.102-0.093-0.118-0.308-0.222-0.124c-0.084,0.148,0.185,0.295,0.312,0.186"/>
	<path fill="#FFFFFF" stroke="#FFFFFF" stroke-width="0.1833" stroke-miterlimit="10" d="M36.363,54.631
		c-0.039-0.115-0.225-0.282-0.344-0.129c-0.092,0.116,0.132,0.271,0.216,0.229"/>
	<path fill="#FFFFFF" stroke="#FFFFFF" stroke-width="0.1833" stroke-miterlimit="10" d="M35.102,55.525
		c0.027,0.011,0.055,0.018,0.08,0.024c0.016-0.055,0.013-0.133-0.005-0.187c-0.187-0.035-0.332,0.056-0.288,0.2"/>
	<path fill="#FFFFFF" stroke="#FFFFFF" stroke-width="0.1833" stroke-miterlimit="10" d="M34.578,56.457
		c0.027,0.005,0.054,0.001,0.079-0.008c0.057-0.15-0.101-0.178-0.203-0.085c-0.104,0.093-0.065,0.279,0.089,0.323"/>
	<path fill="#FFFFFF" stroke="#FFFFFF" stroke-width="0.1833" stroke-miterlimit="10" d="M33.818,58.051
		c0.008-0.064-0.068-0.198-0.213-0.149c-0.15,0.052-0.101,0.335-0.037,0.388"/>
	<path fill="#FFFFFF" stroke="#FFFFFF" stroke-width="0.1833" stroke-miterlimit="10" d="M33.525,59.433
		c0.004-0.057-0.004-0.099-0.081-0.125c-0.112,0.142-0.139,0.259-0.122,0.427"/>
	<path fill="#FFFFFF" stroke="#FFFFFF" stroke-width="0.1833" stroke-miterlimit="10" d="M35.029,60.451
		c0.006-0.038-0.037-0.072-0.009-0.124c-0.278-0.056-0.409,0.449-0.109,0.391"/>
	<path fill="#FFFFFF" stroke="#FFFFFF" stroke-width="0.1833" stroke-miterlimit="10" d="M34.918,54.062
		c0.18-0.064,0.188-0.514-0.103-0.39c-0.184,0.081-0.204,0.493,0.103,0.423"/>
	<path fill="#FFFFFF" stroke="#FFFFFF" stroke-width="0.1833" stroke-miterlimit="10" d="M33.947,50.057
		c-0.076-0.029,0.054-0.009,0.078-0.007c0.027-0.175-0.039-0.3-0.298-0.24c-0.021,0.076-0.004,0.153,0.055,0.218
		c0.03,0.003,0.058-0.009,0.075-0.031"/>
	<path fill="#FFFFFF" stroke="#FFFFFF" stroke-width="0.1833" stroke-miterlimit="10" d="M33.466,48.737
		c-0.031-0.089-0.204-0.309-0.362-0.159c-0.112,0.106,0.048,0.229,0.189,0.166"/>
	<path fill="#FFFFFF" stroke="#FFFFFF" stroke-width="0.1833" stroke-miterlimit="10" d="M34.127,47.996
		c0.004-0.037-0.013-0.109-0.013-0.158c-0.157-0.014-0.425,0.038-0.245,0.168"/>
	<path fill="#FFFFFF" stroke="#FFFFFF" stroke-width="0.1833" stroke-miterlimit="10" d="M34.894,46.627
		c-0.032,0.002-0.045,0.011-0.035,0.031c0.167-0.149-0.202-0.342-0.4-0.151c-0.183,0.178,0.039,0.474,0.138,0.231"/>
	<path fill="#FFFFFF" stroke="#FFFFFF" stroke-width="0.1833" stroke-miterlimit="10" d="M38.634,61.064
		c-0.035-0.048-0.091-0.084-0.169-0.086c-0.037,0.086,0,0.163,0.12,0.15c0.013-0.02,0.014-0.043,0.006-0.062"/>
	<path fill="#FFFFFF" stroke="#FFFFFF" stroke-width="0.1833" stroke-miterlimit="10" d="M33.857,61.377
		c-0.039-0.085-0.072-0.252-0.231-0.159c-0.147,0.087-0.034,0.346,0.106,0.228"/>
	<path fill="#FFFFFF" stroke="#FFFFFF" stroke-width="0.1812" stroke-miterlimit="10" d="M35.52,45.81
		c0.024-0.096,0.076-0.195,0.193-0.235c0.093,0.107,0.049,0.427-0.152,0.233"/>
	<path fill="#FFFFFF" stroke="#FFFFFF" stroke-width="0.1812" stroke-miterlimit="10" d="M35.411,47.378
		c-0.026-0.101,0.049-0.265,0.194-0.263c0.027,0.076,0.021,0.157-0.029,0.225"/>
	<path fill="#FFFFFF" stroke="#FFFFFF" stroke-width="0.1812" stroke-miterlimit="10" d="M36.354,47.834
		c0.008-0.062-0.003-0.098,0.072-0.133c0.011,0.041,0.021,0.088,0.012,0.13"/>
	<path fill="#FFFFFF" stroke="#FFFFFF" stroke-width="0.1812" stroke-miterlimit="10" d="M35.425,50.369
		c-0.157-0.862,1.26,0.281-0.089,0.148"/>
	<path fill="#FFFFFF" stroke="#FFFFFF" stroke-width="0.1833" stroke-miterlimit="10" d="M34.431,53.977
		c0.08-0.057,0.095-0.124,0.266-0.071c0.03,0.076,0.011,0.121,0.007,0.198c-0.092,0.021-0.171,0.021-0.268,0.021"/>
	<path fill="#FFFFFF" d="M33.422,40.589c0.03,0.267-0.316,0.431-0.372,0.641c0.147,0.041,0.352-0.095,0.481-0.164
		c0.135-0.078,0.258-0.204,0.393-0.268c-0.096,0.172-0.172,0.37-0.27,0.537c-0.061,0.11-0.214,0.199-0.232,0.326
		c0.179-0.046,0.307-0.184,0.441-0.317c0.088-0.091,0.371-0.383,0.503-0.252c-0.2,0.147-0.444,0.35-0.56,0.622
		c0.145-0.168,0.479,0,0.657-0.007c0.1,0.12-0.019,0.736-0.023,0.896c-0.018,0.519,0,1.041-0.018,1.562
		c-0.021,0.708-0.083,1.416-0.079,2.127c0.005,1.055,0.19,2.131,0.232,3.188c0.015,0.359,0.056,0.723,0.103,1.084
		c0.064-0.001,0.133,0.007,0.201,0.032c0.215,0.074,0.461,0.248,0.718,0.406c0.194-0.009,0.389-0.016,0.584-0.023
		c-0.002-0.021-0.005-0.044-0.005-0.064c-0.013-0.293-0.022-0.58-0.038-0.868c-0.054-1.056-0.094-2.095-0.27-3.151
		c-0.159-0.965-0.175-1.938-0.33-2.899c-0.074-0.451-0.106-0.886-0.184-1.33c-0.032-0.174-0.077-0.335-0.092-0.501
		c-0.018-0.159,0-0.358-0.063-0.517c0.162-0.104,0.28-0.298,0.427-0.442c0.077-0.075,0.366-0.276,0.281-0.441
		c-0.322,0-0.594,0.159-0.9,0.227c0.008-0.164,0.17-0.435,0.23-0.6c0.074-0.197,0.211-0.427,0.178-0.676
		c-0.203-0.043-0.454,0.247-0.643,0.311c-0.06-0.33,0.263-0.607,0.24-0.91c-0.097,0.024-0.217,0.089-0.302,0.151
		c-0.117,0.089-0.2,0.318-0.348,0.336c-0.035-0.125,0.026-0.408,0.03-0.558c0.004-0.207-0.008-0.413-0.043-0.619
		c-0.217,0.045-0.346,0.37-0.562,0.447c-0.046-0.157-0.278-0.243-0.383-0.325c-0.182-0.144-0.363-0.308-0.533-0.471
		c-0.35-0.332-0.681-0.688-1.018-1.031c-0.12-0.123-0.241-0.243-0.362-0.363c-0.032,0.046-0.063,0.093-0.095,0.139
		c-0.19,0.332-0.389,0.66-0.579,0.991c0.034,0.032,0.068,0.064,0.104,0.096c0.749,0.653,1.547,1.259,2.263,1.991
		c-0.155,0.131-0.362,0.169-0.515,0.305c0.078,0.035,0.303-0.028,0.415-0.026c0.143,0,0.444,0.021,0.559,0.166
		c-0.104,0.087-0.202,0.087-0.326,0.104c-0.112,0.013-0.19,0.068-0.295,0.102c-0.069,0.022-0.134-0.009-0.193,0.06
		C32.883,40.717,33.322,40.611,33.422,40.589z"/>
	<path fill="#FD1813" d="M31.794,37.387c-0.017-0.144-0.032-0.295-0.024-0.441c-0.089-0.091-0.181-0.18-0.271-0.27
		c-0.034,0.049-0.067,0.098-0.101,0.146c-0.162,0.283-0.329,0.562-0.494,0.843c0.032,0.099,0.062,0.196,0.096,0.295
		c0.359,0.311,0.729,0.609,1.093,0.919c-0.009-0.033-0.019-0.07-0.029-0.106C31.949,38.317,31.85,37.854,31.794,37.387z"/>
	<path fill="#FD1813" d="M33.099,39.94c-0.015,0.071-0.028,0.146-0.04,0.219c-0.115,0.006-0.315,0.06-0.391,0.026
		C32.795,40.075,32.958,40.029,33.099,39.94z"/>
	<path fill="#FD1813" d="M35.159,46.078c-0.188,0.177-0.354,0.397-0.499,0.635c-0.099,0.16-0.189,0.33-0.276,0.502
		c-0.023-0.313-0.041-0.624-0.044-0.938c-0.002-0.235,0.006-0.471,0.016-0.704c0.031-0.064,0.063-0.125,0.099-0.186
		c0.153-0.273,0.328-0.526,0.538-0.726c0.183-0.178,0.396-0.298,0.572-0.484c0.066,0.465,0.105,0.932,0.148,1.396
		C35.531,45.748,35.34,45.904,35.159,46.078z"/>
	<path fill="#FD1813" d="M34.676,50.563c0.066,0,0.134,0.008,0.204,0.033c0.009,0.002,0.017,0.007,0.024,0.01
		c0.391-0.667,0.789-1.324,1.152-2.021c-0.031-0.441-0.071-0.886-0.133-1.331c-0.482,0.527-0.984,1.048-1.382,1.686
		c0.014,0.175,0.023,0.349,0.032,0.522C34.588,49.828,34.628,50.195,34.676,50.563z"/>
	<path fill="#FD1813" d="M35.402,42.985c-0.081,0.051-0.16,0.11-0.235,0.18c-0.104,0.091-0.212,0.18-0.31,0.28
		c-0.172,0.177-0.317,0.393-0.436,0.635c0.012-0.412,0.005-0.826,0.011-1.237c0.11-0.084,0.224-0.155,0.344-0.213
		c0.142-0.067,0.292-0.12,0.449-0.134c0.026-0.004,0.061-0.009,0.092-0.015c0.013,0.056,0.023,0.107,0.034,0.165
		C35.371,42.759,35.389,42.871,35.402,42.985z"/>
	<path fill="#FD1813" d="M35.412,39.695c0.034,0.251-0.103,0.479-0.176,0.679c-0.027,0.073-0.075,0.167-0.121,0.266
		c-0.038-0.002-0.075,0-0.107,0.005c-0.186,0.034-0.365,0.098-0.536,0.181c-0.365,0.174-0.699,0.435-0.977,0.78
		c-0.005,0.003-0.005,0.008-0.003,0.013c-0.022,0.009-0.049,0.019-0.073,0.025c0.018-0.125,0.171-0.216,0.233-0.325
		c0.098-0.168,0.172-0.369,0.27-0.54c-0.123,0.059-0.233,0.163-0.353,0.239c0.103-0.311,0.237-0.602,0.388-0.871
		c0.121-0.216,0.256-0.414,0.396-0.606c0.002,0.018,0.004,0.032,0.008,0.046c0.146-0.019,0.23-0.247,0.348-0.335
		c0.085-0.064,0.206-0.126,0.302-0.153c0.022,0.302-0.3,0.583-0.24,0.91C34.96,39.944,35.21,39.655,35.412,39.695z"/>
	<path fill="#FD1813" d="M33.126,39.826c-0.072-0.075-0.146-0.148-0.221-0.218c-0.101-0.372-0.188-0.749-0.239-1.128
		c-0.027-0.213-0.046-0.44-0.039-0.657c0.081,0.08,0.162,0.159,0.245,0.237c0.17,0.164,0.35,0.326,0.53,0.467
		c0.045,0.037,0.112,0.074,0.178,0.113C33.409,39.021,33.232,39.406,33.126,39.826z"/>
	<path fill="#FFFFFF" d="M70.997,216.8c-0.404-1.478,0.08-3.223,0.425-4.677c0.316-1.341,0.947-2.577,1.493-3.835
		c0.64-1.471,1.221-2.963,1.912-4.411c1.125-2.354,3.043-4.369,4.609-6.43c1.572-2.067,2.683-4.403,4.046-6.601
		c1.154-1.856,1.911-4.151,2.672-6.193c0.646-1.736,1.098-3.597,1.283-5.446c0.158-1.572,0.441-3.783-0.295-5.218
		c0.316,1.433,0.868,2.845,1.287,4.267c0.376,1.278,1.109,2.771,1.243,4.033c0.065,0.606-0.246,0.849-0.443,1.397
		c-0.343,0.952-0.453,1.998-0.672,2.984c-0.657,2.964-1.439,5.979-2.407,8.854c-0.984,2.926-1.829,5.714-3.483,8.363
		c-0.864,1.388-1.621,2.776-2.562,4.118c-0.83,1.184-1.709,2.316-2.611,3.45c-0.949,1.194-2.158,2.322-2.819,3.706
		c-0.397,0.833-0.799,1.729-1.119,2.598c-0.221,0.598-0.469,1.12-0.48,1.759c-0.01,0.563-0.224,0.995-0.151,1.551
		c-0.436-0.783-0.628-1.959-0.843-2.83c-0.109-0.441-0.3-0.856-0.445-1.28c-0.208-0.605-0.028-1.365-0.479-1.919"/>
	<path fill="#245977" d="M119.292,217.946c-0.024-0.122-0.05-0.243-0.078-0.363c-0.152-0.66-0.235-1.317-0.447-1.965
		c-0.129-0.392-0.272-0.776-0.361-1.181c-0.11-0.508-0.049-1.172-0.481-1.526c-0.352-0.286-0.853-0.386-1.284-0.479
		c-0.419-0.091-0.842-0.134-1.261-0.212c-0.446-0.083-0.91-0.208-1.367-0.148c-0.385,0.053-0.786,0.19-1.17,0.205
		c-0.314,0.012-0.613-0.111-0.939-0.08c-0.417,0.04-0.794,0.25-1.194,0.359c-0.372,0.101-0.742,0.248-1.083,0.426
		c-0.413,0.215-1.268,0.562-1.365,1.064c-0.102,0.526,0.648,0.544,1.064,0.499c0.523-0.056,1.068-0.128,1.594-0.144
		c0.596-0.018,1.422-0.099,1.953,0.197c-0.355,0.064-0.746-0.013-1.111,0.033c-0.549,0.066-1.143,0.191-1.652,0.407
		c-0.456,0.192-0.936,0.344-1.389,0.552c-0.218,0.101-0.634,0.18-0.745,0.425c-0.291,0.638,1.718,0.553,2.061,0.592
		c0.506,0.058,1.055-0.007,1.563-0.005c0.635,0.005,1.443-0.252,2.062-0.059c0.227,0.072,0.715,0.492,0.572,0.773
		c-0.075,0.146-0.358,0.142-0.487,0.188c-0.257,0.094-0.479,0.276-0.724,0.393c-1.152,0.543-2.271,1.102-3.324,1.83
		c-0.267,0.186-0.537,0.372-0.626,0.711c-0.103,0.399,0.036,0.555,0.409,0.656c1.168,0.32,2.156-0.084,3.271-0.392
		c0.831-0.229,1.67-0.429,2.485-0.636c0.298-0.074,0.541-0.097,0.853-0.126c0.283-0.026,0.552-0.116,0.854-0.072
		c1.253,0.182,1.854,1.415,2.61,2.276c0.124,0.143,0.329,0.392,0.498,0.197c0.102-0.117,0.03-0.762-0.001-0.91
		c-0.133-0.623-0.377-1.214-0.485-1.847C119.474,219.051,119.398,218.49,119.292,217.946z"/>
	<path fill="#FFFFFF" d="M148.737,246.361c-0.277-1.591,1.458-3.511,2.495-4.363c2.242-1.84,5.013-2.698,7.828-3.379
		c4.229-1.023,7.97-3.093,10.819-6.336c-0.315-1.134-0.91-2.42-0.868-3.722c-0.987,0.374-1.779,2.087-2.823,2.712
		c-1.188,0.712-2.688,1.073-3.997,1.391c-2.913,0.708-5.552,0.685-8.129,2.349c-2.064,1.336-3.41,3.142-4.074,5.405
		c-0.326,1.113-0.716,2.225-1.015,3.441c-0.256,1.041,0.279,4.401-1.175,4.381"/>
	<path fill="#FFFFFF" d="M163.442,202.248c-0.201,0.688-1.297,0.914-1.877,1.253c-0.921,0.537-1.814,1.128-2.505,1.94
		c-2.235,2.633-4.244,5.786-5.621,8.924c-0.636,1.449-1.494,2.798-2.145,4.244c-0.431,0.956-0.525,2.045-1.071,3.035
		c-0.896,1.619-2.396,2.13-3.323,3.396c0.455-0.132,0.841-0.616,0.537-1.142c-0.368-0.637-1.91-0.378-2.463-0.376
		c-0.882,0.004-3.56-0.358-4.018,0.259c1.896-0.611,3.086-4.1,4.323-5.577c1.031-1.233,2.094-2.069,2.908-3.458
		c0.846-1.44,1.453-2.944,2.191-4.448c1.147-2.34,2.438-4.873,4.911-5.938c1.449-0.623,2.891-1.012,4.413-1.242
		c0.846-0.128,3.17,0.03,3.738-0.557"/>
	<path fill="#FFFFFF" d="M110.255,295.169c0.499,0.588,0.458,2.013,0.557,2.793c0.239,1.898,0.208,3.822,0.46,5.738
		c0.429,3.263,0.854,6.617,2.808,9.295c1.364,1.872,2.476,3.007,4.311,4.379c1.431,1.069,2.505,2.12,3.083,3.677
		c-1.035,0.918-1.77,4.619-1.512,5.936c0.035-2.229-4.048-3.838-5.342-5.225c-1.996-2.141-4.242-4.135-5.911-6.631
		c-2.218-3.32-1.202-5.705-0.956-9.324c0.09-1.31,0.143-2.489,0.32-3.746c0.1-0.705-0.181-1.522-0.022-2.212
		c0.127-0.554,0.572-0.598,0.641-1.238"/>
	<path fill="#FFFFFF" d="M119.641,340.222c3.147,0.825-3.58,6.73-4.311,7.283c-0.766,0.579-9.311,6.491-6.082,7.695
		c0.273-2.368,5.215,0.114,6.279-0.001c-0.05-1.919,2.206-4.335,3.479-5.528c1.563-1.466,3.822-2.513,4.952-4.443
		c0.843-1.439,1.04-3.109,0.001-4.372c-1.445-1.758-3.289-0.652-4.944-1.885"/>
</g>
</svg>
