<?xml version="1.0" encoding="utf-8"?>
<!-- Generator: Adobe Illustrator 16.0.4, SVG Export Plug-In . SVG Version: 6.00 Build 0)  -->
<!DOCTYPE svg PUBLIC "-//W3C//DTD SVG 1.1//EN" "http://www.w3.org/Graphics/SVG/1.1/DTD/svg11.dtd">
<svg version="1.1" id="Ebene_1" xmlns="http://www.w3.org/2000/svg" xmlns:xlink="http://www.w3.org/1999/xlink" x="0px" y="0px"
	 width="208px" height="368px" viewBox="0 0 208 368" enable-background="new 0 0 208 368" xml:space="preserve">
<pattern  x="-1026" y="-2" width="255.333" height="255.332" patternUnits="userSpaceOnUse" id="Neues_Musterfeld_1" viewBox="0 -255.332 255.333 255.332" overflow="visible">
	<g>
		<polygon fill="none" points="0,0 255.333,0 255.333,-255.332 0,-255.332 		"/>
		<path fill="#FFFFFF" d="M255.333-255.332H0V0h255.333V-255.332z M10.478-230.666c0,1.277-1.035,2.312-2.312,2.312
			s-2.312-1.035-2.312-2.312s1.035-2.312,2.312-2.312S10.478-231.943,10.478-230.666z M10.478-201.166
			c0,1.277-1.035,2.312-2.312,2.312s-2.312-1.034-2.312-2.312s1.035-2.312,2.312-2.312S10.478-202.443,10.478-201.166z
			 M10.478-171.666c0,1.277-1.035,2.312-2.312,2.312s-2.312-1.034-2.312-2.312s1.035-2.312,2.312-2.312
			S10.478-172.943,10.478-171.666z M10.478-142.166c0,1.277-1.035,2.312-2.312,2.312s-2.312-1.034-2.312-2.312
			s1.035-2.312,2.312-2.312S10.478-143.443,10.478-142.166z M10.478-112.666c0,1.277-1.035,2.312-2.312,2.312
			s-2.312-1.034-2.312-2.312s1.035-2.312,2.312-2.312S10.478-113.943,10.478-112.666z M10.478-83.166
			c0,1.277-1.035,2.312-2.312,2.312s-2.312-1.034-2.312-2.312s1.035-2.312,2.312-2.312S10.478-84.443,10.478-83.166z M10.478-53.666
			c0,1.277-1.035,2.312-2.312,2.312s-2.312-1.034-2.312-2.312s1.035-2.312,2.312-2.312S10.478-54.943,10.478-53.666z M10.478-24.166
			c0,1.277-1.035,2.312-2.312,2.312s-2.312-1.034-2.312-2.312s1.035-2.312,2.312-2.312S10.478-25.443,10.478-24.166z
			 M27.978-248.666c0,1.277-1.035,2.312-2.312,2.312s-2.312-1.035-2.312-2.312s1.035-2.312,2.312-2.312
			S27.978-249.943,27.978-248.666z M47.478-230.666c0,1.277-1.035,2.312-2.312,2.312s-2.312-1.035-2.312-2.312
			s1.035-2.312,2.312-2.312S47.478-231.943,47.478-230.666z M47.478-201.166c0,1.277-1.035,2.312-2.312,2.312
			s-2.312-1.034-2.312-2.312s1.035-2.312,2.312-2.312S47.478-202.443,47.478-201.166z M47.478-171.666
			c0,1.277-1.035,2.312-2.312,2.312s-2.312-1.034-2.312-2.312s1.035-2.312,2.312-2.312S47.478-172.943,47.478-171.666z
			 M47.478-142.166c0,1.277-1.035,2.312-2.312,2.312s-2.312-1.034-2.312-2.312s1.035-2.312,2.312-2.312
			S47.478-143.443,47.478-142.166z M47.478-112.666c0,1.277-1.035,2.312-2.312,2.312s-2.312-1.034-2.312-2.312
			s1.035-2.312,2.312-2.312S47.478-113.943,47.478-112.666z M47.478-83.166c0,1.277-1.035,2.312-2.312,2.312
			s-2.312-1.034-2.312-2.312s1.035-2.312,2.312-2.312S47.478-84.443,47.478-83.166z M47.478-53.666c0,1.277-1.035,2.312-2.312,2.312
			s-2.312-1.034-2.312-2.312s1.035-2.312,2.312-2.312S47.478-54.943,47.478-53.666z M47.478-24.166c0,1.277-1.035,2.312-2.312,2.312
			s-2.312-1.034-2.312-2.312s1.035-2.312,2.312-2.312S47.478-25.443,47.478-24.166z M64.978-248.666
			c0,1.277-1.035,2.312-2.312,2.312s-2.312-1.035-2.312-2.312s1.035-2.312,2.312-2.312S64.978-249.943,64.978-248.666z
			 M84.478-230.666c0,1.277-1.035,2.312-2.312,2.312s-2.312-1.035-2.312-2.312s1.035-2.312,2.312-2.312
			S84.478-231.943,84.478-230.666z M84.478-201.166c0,1.277-1.035,2.312-2.312,2.312s-2.312-1.034-2.312-2.312
			s1.035-2.312,2.312-2.312S84.478-202.443,84.478-201.166z M84.478-171.666c0,1.277-1.035,2.312-2.312,2.312
			s-2.312-1.034-2.312-2.312s1.035-2.312,2.312-2.312S84.478-172.943,84.478-171.666z M84.478-142.166
			c0,1.277-1.035,2.312-2.312,2.312s-2.312-1.034-2.312-2.312s1.035-2.312,2.312-2.312S84.478-143.443,84.478-142.166z
			 M84.478-112.666c0,1.277-1.035,2.312-2.312,2.312s-2.312-1.034-2.312-2.312s1.035-2.312,2.312-2.312
			S84.478-113.943,84.478-112.666z M84.478-83.166c0,1.277-1.035,2.312-2.312,2.312s-2.312-1.034-2.312-2.312
			s1.035-2.312,2.312-2.312S84.478-84.443,84.478-83.166z M84.478-53.666c0,1.277-1.035,2.312-2.312,2.312s-2.312-1.034-2.312-2.312
			s1.035-2.312,2.312-2.312S84.478-54.943,84.478-53.666z M84.478-24.166c0,1.277-1.035,2.312-2.312,2.312s-2.312-1.034-2.312-2.312
			s1.035-2.312,2.312-2.312S84.478-25.443,84.478-24.166z M101.978-248.666c0,1.277-1.035,2.312-2.312,2.312
			s-2.312-1.035-2.312-2.312s1.035-2.312,2.312-2.312S101.978-249.943,101.978-248.666z M121.478-230.666
			c0,1.277-1.035,2.312-2.312,2.312s-2.312-1.035-2.312-2.312s1.035-2.312,2.312-2.312S121.478-231.943,121.478-230.666z
			 M121.478-201.166c0,1.277-1.035,2.312-2.312,2.312s-2.312-1.034-2.312-2.312s1.035-2.312,2.312-2.312
			S121.478-202.443,121.478-201.166z M121.478-171.666c0,1.277-1.035,2.312-2.312,2.312s-2.312-1.034-2.312-2.312
			s1.035-2.312,2.312-2.312S121.478-172.943,121.478-171.666z M121.478-142.166c0,1.277-1.035,2.312-2.312,2.312
			s-2.312-1.034-2.312-2.312s1.035-2.312,2.312-2.312S121.478-143.443,121.478-142.166z M121.478-112.666
			c0,1.277-1.035,2.312-2.312,2.312s-2.312-1.034-2.312-2.312s1.035-2.312,2.312-2.312S121.478-113.943,121.478-112.666z
			 M121.478-83.166c0,1.277-1.035,2.312-2.312,2.312s-2.312-1.034-2.312-2.312s1.035-2.312,2.312-2.312
			S121.478-84.443,121.478-83.166z M121.478-53.666c0,1.277-1.035,2.312-2.312,2.312s-2.312-1.034-2.312-2.312
			s1.035-2.312,2.312-2.312S121.478-54.943,121.478-53.666z M121.478-24.166c0,1.277-1.035,2.312-2.312,2.312
			s-2.312-1.034-2.312-2.312s1.035-2.312,2.312-2.312S121.478-25.443,121.478-24.166z M138.978-248.666
			c0,1.277-1.035,2.312-2.312,2.312s-2.312-1.035-2.312-2.312s1.035-2.312,2.312-2.312S138.978-249.943,138.978-248.666z
			 M158.478-230.666c0,1.277-1.035,2.312-2.312,2.312s-2.312-1.035-2.312-2.312s1.035-2.312,2.312-2.312
			S158.478-231.943,158.478-230.666z M158.478-201.166c0,1.277-1.035,2.312-2.312,2.312s-2.312-1.034-2.312-2.312
			s1.035-2.312,2.312-2.312S158.478-202.443,158.478-201.166z M158.478-171.666c0,1.277-1.035,2.312-2.312,2.312
			s-2.312-1.034-2.312-2.312s1.035-2.312,2.312-2.312S158.478-172.943,158.478-171.666z M158.478-142.166
			c0,1.277-1.035,2.312-2.312,2.312s-2.312-1.034-2.312-2.312s1.035-2.312,2.312-2.312S158.478-143.443,158.478-142.166z
			 M158.478-112.666c0,1.277-1.035,2.312-2.312,2.312s-2.312-1.034-2.312-2.312s1.035-2.312,2.312-2.312
			S158.478-113.943,158.478-112.666z M158.478-83.166c0,1.277-1.035,2.312-2.312,2.312s-2.312-1.034-2.312-2.312
			s1.035-2.312,2.312-2.312S158.478-84.443,158.478-83.166z M158.478-53.666c0,1.277-1.035,2.312-2.312,2.312
			s-2.312-1.034-2.312-2.312s1.035-2.312,2.312-2.312S158.478-54.943,158.478-53.666z M158.478-24.166
			c0,1.277-1.035,2.312-2.312,2.312s-2.312-1.034-2.312-2.312s1.035-2.312,2.312-2.312S158.478-25.443,158.478-24.166z
			 M175.978-248.666c0,1.277-1.035,2.312-2.312,2.312s-2.312-1.035-2.312-2.312s1.035-2.312,2.312-2.312
			S175.978-249.943,175.978-248.666z M195.478-230.666c0,1.277-1.035,2.312-2.312,2.312s-2.312-1.035-2.312-2.312
			s1.035-2.312,2.312-2.312S195.478-231.943,195.478-230.666z M195.478-201.166c0,1.277-1.035,2.312-2.312,2.312
			s-2.312-1.034-2.312-2.312s1.035-2.312,2.312-2.312S195.478-202.443,195.478-201.166z M195.478-171.666
			c0,1.277-1.035,2.312-2.312,2.312s-2.312-1.034-2.312-2.312s1.035-2.312,2.312-2.312S195.478-172.943,195.478-171.666z
			 M195.478-142.166c0,1.277-1.035,2.312-2.312,2.312s-2.312-1.034-2.312-2.312s1.035-2.312,2.312-2.312
			S195.478-143.443,195.478-142.166z M195.478-112.666c0,1.277-1.035,2.312-2.312,2.312s-2.312-1.034-2.312-2.312
			s1.035-2.312,2.312-2.312S195.478-113.943,195.478-112.666z M195.478-83.166c0,1.277-1.035,2.312-2.312,2.312
			s-2.312-1.034-2.312-2.312s1.035-2.312,2.312-2.312S195.478-84.443,195.478-83.166z M195.478-53.666
			c0,1.277-1.035,2.312-2.312,2.312s-2.312-1.034-2.312-2.312s1.035-2.312,2.312-2.312S195.478-54.943,195.478-53.666z
			 M195.478-24.166c0,1.277-1.035,2.312-2.312,2.312s-2.312-1.034-2.312-2.312s1.035-2.312,2.312-2.312
			S195.478-25.443,195.478-24.166z M212.978-248.666c0,1.277-1.035,2.312-2.312,2.312s-2.312-1.035-2.312-2.312
			s1.035-2.312,2.312-2.312S212.978-249.943,212.978-248.666z M232.478-230.666c0,1.277-1.035,2.312-2.312,2.312
			s-2.312-1.035-2.312-2.312s1.035-2.312,2.312-2.312S232.478-231.943,232.478-230.666z M232.478-201.166
			c0,1.277-1.035,2.312-2.312,2.312s-2.312-1.034-2.312-2.312s1.035-2.312,2.312-2.312S232.478-202.443,232.478-201.166z
			 M232.478-171.666c0,1.277-1.035,2.312-2.312,2.312s-2.312-1.034-2.312-2.312s1.035-2.312,2.312-2.312
			S232.478-172.943,232.478-171.666z M232.478-142.166c0,1.277-1.035,2.312-2.312,2.312s-2.312-1.034-2.312-2.312
			s1.035-2.312,2.312-2.312S232.478-143.443,232.478-142.166z M232.478-112.666c0,1.277-1.035,2.312-2.312,2.312
			s-2.312-1.034-2.312-2.312s1.035-2.312,2.312-2.312S232.478-113.943,232.478-112.666z M232.478-83.166
			c0,1.277-1.035,2.312-2.312,2.312s-2.312-1.034-2.312-2.312s1.035-2.312,2.312-2.312S232.478-84.443,232.478-83.166z
			 M232.478-53.666c0,1.277-1.035,2.312-2.312,2.312s-2.312-1.034-2.312-2.312s1.035-2.312,2.312-2.312
			S232.478-54.943,232.478-53.666z M232.478-24.166c0,1.277-1.035,2.312-2.312,2.312s-2.312-1.034-2.312-2.312
			s1.035-2.312,2.312-2.312S232.478-25.443,232.478-24.166z M249.978-248.666c0,1.277-1.035,2.312-2.312,2.312
			s-2.312-1.035-2.312-2.312s1.035-2.312,2.312-2.312S249.978-249.943,249.978-248.666z M27.978-218.619
			c0,1.277-1.035,2.312-2.312,2.312s-2.312-1.035-2.312-2.312s1.035-2.311,2.312-2.311S27.978-219.896,27.978-218.619z
			 M64.978-218.619c0,1.277-1.035,2.312-2.312,2.312s-2.312-1.035-2.312-2.312s1.035-2.311,2.312-2.311
			S64.978-219.896,64.978-218.619z M101.978-218.619c0,1.277-1.035,2.312-2.312,2.312s-2.312-1.035-2.312-2.312
			s1.035-2.311,2.312-2.311S101.978-219.896,101.978-218.619z M138.978-218.619c0,1.277-1.035,2.312-2.312,2.312
			s-2.312-1.035-2.312-2.312s1.035-2.311,2.312-2.311S138.978-219.896,138.978-218.619z M175.978-218.619
			c0,1.277-1.035,2.312-2.312,2.312s-2.312-1.035-2.312-2.312s1.035-2.311,2.312-2.311S175.978-219.896,175.978-218.619z
			 M212.978-218.619c0,1.277-1.035,2.312-2.312,2.312s-2.312-1.035-2.312-2.312s1.035-2.311,2.312-2.311
			S212.978-219.896,212.978-218.619z M249.978-218.619c0,1.277-1.035,2.312-2.312,2.312s-2.312-1.035-2.312-2.312
			s1.035-2.311,2.312-2.311S249.978-219.896,249.978-218.619z M27.978-188.571c0,1.277-1.035,2.312-2.312,2.312
			s-2.312-1.035-2.312-2.312c0-1.276,1.035-2.312,2.312-2.312S27.978-189.848,27.978-188.571z M64.978-188.571
			c0,1.277-1.035,2.312-2.312,2.312s-2.312-1.035-2.312-2.312c0-1.276,1.035-2.312,2.312-2.312S64.978-189.848,64.978-188.571z
			 M101.978-188.571c0,1.277-1.035,2.312-2.312,2.312s-2.312-1.035-2.312-2.312c0-1.276,1.035-2.312,2.312-2.312
			S101.978-189.848,101.978-188.571z M138.978-188.571c0,1.277-1.035,2.312-2.312,2.312s-2.312-1.035-2.312-2.312
			c0-1.276,1.035-2.312,2.312-2.312S138.978-189.848,138.978-188.571z M175.978-188.571c0,1.277-1.035,2.312-2.312,2.312
			s-2.312-1.035-2.312-2.312c0-1.276,1.035-2.312,2.312-2.312S175.978-189.848,175.978-188.571z M212.978-188.571
			c0,1.277-1.035,2.312-2.312,2.312s-2.312-1.035-2.312-2.312c0-1.276,1.035-2.312,2.312-2.312S212.978-189.848,212.978-188.571z
			 M249.978-188.571c0,1.277-1.035,2.312-2.312,2.312s-2.312-1.035-2.312-2.312c0-1.276,1.035-2.312,2.312-2.312
			S249.978-189.848,249.978-188.571z M27.978-158.524c0,1.277-1.035,2.312-2.312,2.312s-2.312-1.035-2.312-2.312
			s1.035-2.312,2.312-2.312S27.978-159.801,27.978-158.524z M64.978-158.524c0,1.277-1.035,2.312-2.312,2.312
			s-2.312-1.035-2.312-2.312s1.035-2.312,2.312-2.312S64.978-159.801,64.978-158.524z M101.978-158.524
			c0,1.277-1.035,2.312-2.312,2.312s-2.312-1.035-2.312-2.312s1.035-2.312,2.312-2.312S101.978-159.801,101.978-158.524z
			 M138.978-158.524c0,1.277-1.035,2.312-2.312,2.312s-2.312-1.035-2.312-2.312s1.035-2.312,2.312-2.312
			S138.978-159.801,138.978-158.524z M175.978-158.524c0,1.277-1.035,2.312-2.312,2.312s-2.312-1.035-2.312-2.312
			s1.035-2.312,2.312-2.312S175.978-159.801,175.978-158.524z M212.978-158.524c0,1.277-1.035,2.312-2.312,2.312
			s-2.312-1.035-2.312-2.312s1.035-2.312,2.312-2.312S212.978-159.801,212.978-158.524z M249.978-158.524
			c0,1.277-1.035,2.312-2.312,2.312s-2.312-1.035-2.312-2.312s1.035-2.312,2.312-2.312S249.978-159.801,249.978-158.524z
			 M27.978-128.477c0,1.277-1.035,2.312-2.312,2.312s-2.312-1.034-2.312-2.312c0-1.277,1.035-2.312,2.312-2.312
			S27.978-129.753,27.978-128.477z M64.978-128.477c0,1.277-1.035,2.312-2.312,2.312s-2.312-1.034-2.312-2.312
			c0-1.277,1.035-2.312,2.312-2.312S64.978-129.753,64.978-128.477z M101.978-128.477c0,1.277-1.035,2.312-2.312,2.312
			s-2.312-1.034-2.312-2.312c0-1.277,1.035-2.312,2.312-2.312S101.978-129.753,101.978-128.477z M138.978-128.477
			c0,1.277-1.035,2.312-2.312,2.312s-2.312-1.034-2.312-2.312c0-1.277,1.035-2.312,2.312-2.312S138.978-129.753,138.978-128.477z
			 M175.978-128.477c0,1.277-1.035,2.312-2.312,2.312s-2.312-1.034-2.312-2.312c0-1.277,1.035-2.312,2.312-2.312
			S175.978-129.753,175.978-128.477z M212.978-128.477c0,1.277-1.035,2.312-2.312,2.312s-2.312-1.034-2.312-2.312
			c0-1.277,1.035-2.312,2.312-2.312S212.978-129.753,212.978-128.477z M249.978-128.477c0,1.277-1.035,2.312-2.312,2.312
			s-2.312-1.034-2.312-2.312c0-1.277,1.035-2.312,2.312-2.312S249.978-129.753,249.978-128.477z M27.978-98.429
			c0,1.277-1.035,2.312-2.312,2.312s-2.312-1.035-2.312-2.312s1.035-2.312,2.312-2.312S27.978-99.706,27.978-98.429z M64.978-98.429
			c0,1.277-1.035,2.312-2.312,2.312s-2.312-1.035-2.312-2.312s1.035-2.312,2.312-2.312S64.978-99.706,64.978-98.429z
			 M101.978-98.429c0,1.277-1.035,2.312-2.312,2.312s-2.312-1.035-2.312-2.312s1.035-2.312,2.312-2.312
			S101.978-99.706,101.978-98.429z M138.978-98.429c0,1.277-1.035,2.312-2.312,2.312s-2.312-1.035-2.312-2.312
			s1.035-2.312,2.312-2.312S138.978-99.706,138.978-98.429z M175.978-98.429c0,1.277-1.035,2.312-2.312,2.312
			s-2.312-1.035-2.312-2.312s1.035-2.312,2.312-2.312S175.978-99.706,175.978-98.429z M212.978-98.429
			c0,1.277-1.035,2.312-2.312,2.312s-2.312-1.035-2.312-2.312s1.035-2.312,2.312-2.312S212.978-99.706,212.978-98.429z
			 M249.978-98.429c0,1.277-1.035,2.312-2.312,2.312s-2.312-1.035-2.312-2.312s1.035-2.312,2.312-2.312
			S249.978-99.706,249.978-98.429z M27.978-68.382c0,1.277-1.035,2.312-2.312,2.312s-2.312-1.034-2.312-2.312
			c0-1.277,1.035-2.312,2.312-2.312S27.978-69.659,27.978-68.382z M64.978-68.382c0,1.277-1.035,2.312-2.312,2.312
			s-2.312-1.034-2.312-2.312c0-1.277,1.035-2.312,2.312-2.312S64.978-69.659,64.978-68.382z M101.978-68.382
			c0,1.277-1.035,2.312-2.312,2.312s-2.312-1.034-2.312-2.312c0-1.277,1.035-2.312,2.312-2.312S101.978-69.659,101.978-68.382z
			 M138.978-68.382c0,1.277-1.035,2.312-2.312,2.312s-2.312-1.034-2.312-2.312c0-1.277,1.035-2.312,2.312-2.312
			S138.978-69.659,138.978-68.382z M175.978-68.382c0,1.277-1.035,2.312-2.312,2.312s-2.312-1.034-2.312-2.312
			c0-1.277,1.035-2.312,2.312-2.312S175.978-69.659,175.978-68.382z M212.978-68.382c0,1.277-1.035,2.312-2.312,2.312
			s-2.312-1.034-2.312-2.312c0-1.277,1.035-2.312,2.312-2.312S212.978-69.659,212.978-68.382z M249.978-68.382
			c0,1.277-1.035,2.312-2.312,2.312s-2.312-1.034-2.312-2.312c0-1.277,1.035-2.312,2.312-2.312S249.978-69.659,249.978-68.382z
			 M27.978-38.334c0,1.277-1.035,2.312-2.312,2.312s-2.312-1.035-2.312-2.312s1.035-2.312,2.312-2.312S27.978-39.611,27.978-38.334z
			 M64.978-38.334c0,1.277-1.035,2.312-2.312,2.312s-2.312-1.035-2.312-2.312s1.035-2.312,2.312-2.312S64.978-39.611,64.978-38.334z
			 M101.978-38.334c0,1.277-1.035,2.312-2.312,2.312s-2.312-1.035-2.312-2.312s1.035-2.312,2.312-2.312
			S101.978-39.611,101.978-38.334z M138.978-38.334c0,1.277-1.035,2.312-2.312,2.312s-2.312-1.035-2.312-2.312
			s1.035-2.312,2.312-2.312S138.978-39.611,138.978-38.334z M175.978-38.334c0,1.277-1.035,2.312-2.312,2.312
			s-2.312-1.035-2.312-2.312s1.035-2.312,2.312-2.312S175.978-39.611,175.978-38.334z M212.978-38.334
			c0,1.277-1.035,2.312-2.312,2.312s-2.312-1.035-2.312-2.312s1.035-2.312,2.312-2.312S212.978-39.611,212.978-38.334z
			 M249.978-38.334c0,1.277-1.035,2.312-2.312,2.312s-2.312-1.035-2.312-2.312s1.035-2.312,2.312-2.312
			S249.978-39.611,249.978-38.334z M27.978-8.287c0,1.277-1.035,2.312-2.312,2.312s-2.312-1.035-2.312-2.312
			s1.035-2.312,2.312-2.312S27.978-9.564,27.978-8.287z M64.978-8.287c0,1.277-1.035,2.312-2.312,2.312s-2.312-1.035-2.312-2.312
			s1.035-2.312,2.312-2.312S64.978-9.564,64.978-8.287z M101.978-8.287c0,1.277-1.035,2.312-2.312,2.312s-2.312-1.035-2.312-2.312
			s1.035-2.312,2.312-2.312S101.978-9.564,101.978-8.287z M138.978-8.287c0,1.277-1.035,2.312-2.312,2.312s-2.312-1.035-2.312-2.312
			s1.035-2.312,2.312-2.312S138.978-9.564,138.978-8.287z M175.978-8.287c0,1.277-1.035,2.312-2.312,2.312s-2.312-1.035-2.312-2.312
			s1.035-2.312,2.312-2.312S175.978-9.564,175.978-8.287z M212.978-8.287c0,1.277-1.035,2.312-2.312,2.312s-2.312-1.035-2.312-2.312
			s1.035-2.312,2.312-2.312S212.978-9.564,212.978-8.287z M249.978-8.287c0,1.277-1.035,2.312-2.312,2.312s-2.312-1.035-2.312-2.312
			s1.035-2.312,2.312-2.312S249.978-9.564,249.978-8.287z"/>
	</g>
</pattern>
<g>
	<g>
		<path fill="#245977" d="M127.596,148.62c-0.343-2.776-0.086-5.707-0.086-8.515c0-5.92-0.772-11.815,0.086-17.712
			c0.733-5.003,3.572-10.513,0.313-15.335c-1.628-2.405-3.371-3.308-6.229-4.512c-1.628-0.677-3.361-1.111-5.043-1.694
			c-1.329-0.462-2.553-1.35-3.938-1.686c-0.372-2.149-0.091-4.566-0.072-6.753c0.005-0.406-2.382-13.845-2.578-14.19
			c-0.471-0.879-8.408,6.657-11.188,5.086c-1.401-0.81-4.499-2.985-6.282-2.433c-0.051,0.188-0.08,0.416-0.08,0.639
			c-0.277-0.018-0.43,0.085-0.435,0.319c0.835,0.91,0.901,2.315,1.253,3.422c0.486,1.534,1.153,2.821,1.219,4.429
			c0.092,2.542,0.188,5.125-2.824,6.132c-1.941,0.652-4.032,0.985-6.137,1.298c0.246,1.113,0.437,2.209,0.57,3.229
			c0.592,4.562,0.709,10.31-2.504,14.158c-0.631,1.971-0.61,4.102-0.863,6.113c-0.309,2.435-1.113,4.911-1.113,7.646v15.252
			c0,1.474,0.014,2.941,0.022,4.413c-0.041-0.062-0.104-0.132-0.157-0.196c0.143,1.078,0.178,2.162,0.062,3.234
			c0,0,0.004-0.005,0.01-0.005c-0.01-0.317,0.039-0.593,0.096-0.85c0.018,2.57,0.018,5.145-0.033,7.712
			c-0.072,3.188-0.818,6.391-0.81,9.572c0.009,1.241-0.005,2.478,0,3.714c0.015,1.267-0.644,2.455-0.339,3.691
			c1.764,0.344,3.41,0.501,5.191,0.729c1.725,0.223,3.104,0.956,4.823,1.031c1.948,0.087,3.991-0.531,5.884-0.757
			c2.217-0.271,4.227-0.603,6.541-0.603c8.426,0,16.402,3.042,24.882,1.986c1.423-2.512,0.982-6.398,1.302-9.237
			c0.354-3.222,0.502-6.495,0.379-9.786C129.395,154.916,127.986,151.812,127.596,148.62z"/>
		<path d="M91.928,95.58c0.601,0.521,0.855,1.606,1.142,2.347c0.524,1.363,0.505,2.583,0.505,4.028c0,1.379,0.048,2.76,0.06,4.135
			c0.016,0.942,0.303,1.737,0.385,2.652c0.184,2.065-0.077,4.437-1.414,6.162c-1.191,1.54-2.873,2.473-4.639,3.271
			c-0.639,0.297-1.146,0.55-1.82,0.704c-0.805,0.188-1.514,0.087-2.344,0.175c-0.699,0.071-1.475,0.305-2.268,0.139
			c-0.717-0.146-1.455-0.651-1.97,0.025c-0.437,0.578-0.59,1.771-0.781,2.419c-0.312,1.031-0.435,2.167-0.642,3.223
			c-0.425,2.101-0.409,4.22-0.409,6.395c0,3.962,0.013,7.927,0,11.892c-0.021,5.655,0.614,11.36,0.727,17.019
			c0.04,1.841,0.192,3.67,0.192,5.521c0,0.511-0.305,1.974,0.022,2.35c0.257,0.3,0.849,0.124,1.214,0.196
			c0.296,0.062,0.602,0.26,0.954,0.301c1.089,0.116,1.641-0.668,2.524-1.029c0.998-0.406,2.342-0.058,3.391,0.024
			c2.199,0.171,4.332,0.382,6.504,0.713c2.066,0.307,4.205,0.63,6.304,0.793c2.325,0.185,4.744,0,7.078,0
			c2.694,0,5.347-0.14,8.01-0.341c1.865-0.137,3.828,0.242,5.681,0.02c2.252-0.28,4.582-0.588,6.88-0.691
			c1.41-0.063,2.759-0.389,4.164-0.319c-0.515-1.247-0.478-2.852-0.478-4.201c0-1.703,0.183-3.335,0.183-5.025
			c0-3.294-0.848-6.279-1.287-9.434c-0.11-0.803-0.115-1.689-0.182-2.478c-0.066-0.745-0.16-1.482-0.181-2.215
			c-0.056-1.662-0.01-3.349-0.228-4.996c-0.233-1.846-0.138-3.814-0.138-5.704c0-2.164,0.365-4.219,0.365-6.37
			c0-1.078,0.077-2.194-0.181-3.19c-0.144-0.547-0.666-0.761-1.104-1.17c-0.552-0.511-0.962-1.108-1.417-1.687
			c-1.508-1.925-2.244-4.164-2.24-6.533c0.004-1.276-0.183-2.482-0.183-3.779c0-1.283,0-2.534-0.18-3.764
			c-0.176-1.162,0-2.197-0.409-3.318c-0.165-0.471-0.333-0.678-0.867-0.877c-0.483-0.184-1.217-0.021-1.656-0.266
			c-0.277,0.563-0.182,1.295-0.177,1.946c0.006,0.753-0.229,1.453-0.328,2.177c-0.202,1.526-0.277,3.005-0.446,4.501
			c-0.435,3.769-3.567,5.368-7.283,5.766c-0.804,0.085-1.446,0.116-2.224-0.033c-0.527-0.101-1.076-0.068-1.571-0.327
			c-0.562-0.297-0.978-0.704-1.558-0.976c-1.691-0.79-2.895-1.908-3.971-3.354c-1.252-1.677-2.33-3.498-3.152-5.366
			c-0.696-1.565-0.893-3.171-1.463-4.745c-0.477-1.298-1.099-2.658-1.562-3.882c-0.398-1.044-0.569-2.175-1.191-3.144
			c-0.422-0.676-1.665-2.069-2.705-1.688c-0.531,0.188-2.483,1.643-2.702,2.158c0.495-0.308,1.733-0.028,1.979,0.524"/>
		<path fill="#FFFFFF" d="M80.437,186.808c0.486,5.029,0.041,20.196,3.619,16.741s11.631,1.06,16.055,5.521
			c0.973,0.979,1.406,2.949,2.458,3.567c0.837,0.491,3.2-0.052,4.171-0.052c2.832,0.009,6.126,1.246,8.772,0.595
			c0.457-3.651,2.937-6.938,5.438-8.9c3.357-2.627,4.742-1.774,8.19-0.912c0.525-4.968,0.093-10.376,0.093-15.402
			c0-5.019-1.284-9.333-0.672-13.953c-1.927,0.028-3.785-0.83-5.842-0.825c-1.743,0.01-3.492,0-5.241,0
			c-4.854,0-23.332,3.007-25.03,3.267c-1.433,0.223-11.104-3.188-12.036-4.232C80.411,172.222,80.233,184.699,80.437,186.808z"/>
		<g>
			<path fill="#FF0000" d="M89.97,175.96c-1.222-0.336-2.718-0.82-4.17-1.342c-0.043,1.493-0.145,2.981-0.195,4.473
				c-0.134,3.92-0.346,7.834-0.513,11.751c-0.171,4.012-0.3,8.037-0.248,12.055c1.415-0.805,3.279-0.753,5.274-0.168
				C89.839,193.82,90.663,184.859,89.97,175.96z"/>
			<path fill="#FF0000" d="M99.581,175.293c-1.549,0.234-2.965,0.453-4.125,0.634c-0.021,2.423-0.188,4.847-0.24,7.271
				c-0.09,4.118,0.094,8.252,0.391,12.362c0.256,3.523,0.625,7.04,1.034,10.551c1.265,0.914,2.443,1.911,3.438,2.913
				c0.938,0.944,1.38,2.8,2.355,3.486C100.853,200.181,101.105,187.646,99.581,175.293z"/>
			<path fill="#FF0000" d="M114.031,191.796c-0.939-3.704-1.802-7.413-1.883-11.227c-0.05-2.336-0.003-4.675,0.046-7.008
				c-2.142,0.243-4.607,0.568-7.062,0.916c0.154,3.722,0.097,7.449,0.254,11.172c0.211,4.997,1.094,9.899,2.236,14.777
				c1.001,4.28,2.232,8.533,3.761,12.686c1.433,0.208,2.838,0.329,4.095,0.02c0.293-2.341,1.423-4.526,2.85-6.312
				C116.901,201.81,115.311,196.841,114.031,191.796z"/>
			<path fill="#FF0000" d="M122.712,173.142c-0.009,0-0.016,0-0.026,0c-1.742,0.008-3.492,0-5.241,0c-0.028,0-0.069,0-0.099,0
				c2.582,10.04,2.895,20.449,4.088,30.725c1.699-1.216,2.902-1.472,4.222-1.327C125.375,192.668,124.817,182.814,122.712,173.142z"
				/>
		</g>
		<path fill="#245977" d="M91.81,109.536c-2.769,4.95-10.719,7.023-15.297,10.554c-5.092,3.929-27.333,16.51-31.001,20.431
			c0.269,2.112,3.148,4.396,4.516,5.8c3.329,3.422,6.837,6.663,10.181,10.07c1.377,1.404,2.765,2.826,3.976,4.379
			c0.577,0.741,0.896,1.818,1.523,2.47c0.931,0.968,2.851,0.593,4.069,0.571c1.171-0.022,1.777-0.175,2.695-0.873
			c1.05-0.797,2.266-1.194,3.31-1.991c0.987-0.754,1.86-1.624,2.876-2.333c0.801-0.561,1.726-0.931,2.543-1.459
			c2.064-1.337,3.691-3.18,6.223-2.74c2.541,0.439,2.507,4.168,3.143,6.059c0.44,1.312,0.788,2.114,0.788,3.646
			c0,1.728,0.317,2.975-1.136,4.127c-3.681,2.919-8.279,4.994-12.633,6.666c-2.303,0.885-4.188,1.662-6.68,1.907
			c-1.51,0.149-3.007,0.042-4.512,0.151c-0.881,0.064-1.229,0.35-2.021-0.274c-0.794-0.626-1.542-1.485-2.236-2.235
			c-4.312-4.667-7.887-9.788-11.984-14.641c-2.971-3.52-6.004-6.988-9.086-10.412c-1.908-2.118-3.779-4.479-5.979-6.312
			c-2.195-1.825,1.947-9.266,3.789-10.703c0.951-0.743,4.065-3.025,7.932-5.832c6.525-4.738,15.193-10.992,19.234-13.956
			c2.856-2.09,10.333-20.963,18.236-16.117C84.278,96.487,95.147,103.573,91.81,109.536z"/>
		<path fill="#245977" d="M126.824,105.893c-2.986,3.49-5.042,11.576-4.246,16.506c0.322,1.985,2.519,1.216,3.054,3.267
			c0.793,3.029,1.047,6.166,1.837,9.247c1.242,4.851,2.689,10.241,4.006,15.183c0.872,3.287,1.438,6.674,1.898,9.96
			c0.196,1.387,3.052,14.222,3.052,14.222s-16.05,8.888-17.945,9.688c-2.443,1.03-6.735-2.155-9.388-2.644
			c-3.458-0.639-5.479-1.191-8.208,0.729c-1.168,0.823-3.36,5.244-3.36,5.244l20.763,4.878l7.351-1.835l14.249-6.145
			c0,0,7.982-5.044,7.744-8.392c-0.269-3.848-12.91-48.057-14.238-53.509C132.136,117.132,126.708,104.184,126.824,105.893z"/>
		<path fill="#245977" d="M107.421,88.295"/>
		<g>
			<path fill="#245977" d="M60.56,103.784c0.1-0.279,0.411-0.45,0.662-0.605c0.538-0.337,1.268-0.651,1.898-0.803
				c0.9-0.217,1.975-0.129,2.692,0.468c1.687,1.401,2.159,3.929,1.399,5.872c-0.39,0.996-1.196,2.198-2.428,2.438
				c-0.613,0.12-1.267-0.012-1.865-0.119c-0.631-0.111-1.288-0.164-1.861-0.435c-0.596-0.285-1.256-0.656-1.775-1.043
				c-0.664-0.495-0.812-1.292-0.822-2.035c-0.008-0.452-0.037-0.914,0.079-1.353c0.152-0.576,0.385-1.128,0.644-1.668
				c0.338-0.7,0.93-1.276,1.572-1.751c0.481-0.356,1.022-0.614,1.568-0.873c0.369-0.177,0.791-0.419,1.223-0.456"/>
			<path d="M72.764,60.415c1.437,0.818,2.454-3.934,2.983-5.195c0.823-1.96,1.885-3.432,3.453-5.024
				c2.906-2.951,6.175-6.279,10.52-6.922c2.093-0.31,5.186,0.281,7.062,0.883c1.862,0.595,4.165,2.938,5.952,3.169
				c2.184,0.29,2.045-1.665,4.068-2.884c2.707-1.629,7.393-3.142,10.579-3.021c11.078,0.425,20.26,7.046,26.818,15.077
				c3.701,4.532,4.913,9.743,6.299,14.982c1.687,6.387,3.128,15.854,7.659,21.212c3.358,3.971,11.157,6.562,16.151,8.618
				c-4.211-0.128-7.22,0.101-11.099-1.611c-4.788-2.112-8.543-5.501-11.806-9.378c-4.63-5.505-9.202-11.657-14.427-16.821
				c-4.139-4.091-7.776-7.451-13.314-9.057c-6.267-1.813-10.637-3.778-15.137-8.432c-0.473,2.037,1.504,4.224,2.069,6.115
				c0.751,2.499,0.853,4.885,1.105,7.497c0.234,2.406,0.942,4.62,1.252,6.908c0.376,2.775-1.147,4.292-3.169,6.131
				c0.916-7.069-4.703-15.357-10.505-19.513c-3.505-2.514-6.348-2.835-10.815-3.339c-4.492-0.51-8.643,0.97-13.09,0.531
				c-1.41-3.611,3.623-2.996,4.298-4.533"/>
			<path fill="#E5E5E5" d="M70.948,67.655c-0.708-0.321-0.019-1.212,0.254-1.658c0.387-0.663,0.32-1.511,0.917-2.007
				c-0.254-0.471-0.953-0.478-1.403-0.678c-0.533-0.232-1.134-0.521-1.713-0.771c-1.501-0.624-3.285-1.099-4.971-1.064
				c-2.416,0.055-5.957,0.465-7.541,2.576c1.941,1.091,4.76,1.767,7.146,2.223c1.36,0.252,2.829,0.352,4.168,0.675
				c1.219,0.301,2.668,0.146,2.289,1.627c-0.378,1.515-0.911,3.011-1.331,4.524c-0.464,1.654-0.919,3.304-1.302,4.95
				c-0.398,1.729-0.721,3.441-1.229,5.172c-0.575,1.954-1.196,3.9-1.779,5.856c-0.443,1.481-1.177,2.815-1.695,4.256
				c-0.491,1.354-0.875,2.735-1.316,4.097c-0.642,1.947-1.365,3.958-1.876,5.938c-0.255,1.023-0.804,2.2-0.91,3.204
				c0.371-1.284,2.457-2.227,3.772-2.21c1.752,0.018,3.123,0.997,3.162,2.673c0.026,1.319-0.646,2.727-1.829,3.616
				c-1.108,0.841-3.733-0.02-3.67-1.368c0.726,1.365,1.519,2.081,3.196,2.539c1.326,0.358,2.241-0.453,3.336-1.14
				c1.59-1.004,3.221-1.99,4.928-2.863c1.686-0.863,3.514-1.799,5.039-2.859c1.833-1.277,3.919-2.178,5.813-3.41
				c3.562-2.322,7.274-4.385,11.295-5.857c3.989-1.464,7.765-3.52,11.509-5.462c1.117-0.575,2.422-1.171,3.418-1.914
				c0.779-0.585,0.439-1.183,0.517-1.953c0.208-2.052,1.06-4.025,1.354-6.042c0.315-2.155-0.102-4.591-0.476-6.698
				c-0.351-1.97-0.92-3.769-1.906-5.538c-0.434-0.773-0.858-1.633-1.368-2.312c-0.746-0.985-1.801-1.73-2.652-2.632
				c-2.631-2.783-6.779-5.393-10.909-5.931c-4.42-0.586-8.839-0.652-13.304,0.133c-1.902,0.334-3.777,1.032-5.381,2.057
				c-0.51,0.32-0.995,0.631-1.534,0.879c-0.437,0.209-1.119,1.033-1.499,1.026c0.215-0.152,0.478-0.257,0.74-0.309"/>
			<path fill="#E5E5E5" d="M83.905,56.45c-0.892-0.732-1.941-1.428-2.73-2.247c-1.238-1.291-2.35-2.656-3.771-3.819
				c-1.184-0.98-2.335-1.926-3.625-2.759c-0.541-0.354-1.182-0.684-1.688-0.988c-0.299-0.176-0.696-0.562-1.046-0.592
				c-1.182-0.084-0.695,2.102-0.705,2.847c-0.027,2.26-0.08,4.267,1.039,6.293c1.288,2.319,3.42,4.646,5.77,6.137
				c1.496-0.783,3.131-1.366,4.582-2.234c0.554-0.324,2.621-1.407,2.324-2.045"/>
			<path d="M90.827,68.24c-1.786,0.403-3.489,1.713-3.091,3.568c0.423,1.972,2.247,2.655,4.242,2.105
				c2.112-0.59,2.418-2.036,1.498-3.711c-0.339-0.617-1.192-1.422-1.894-1.749c-0.656-0.311-1.475-0.143-2.184-0.23"/>
			<path fill="#E5E5E5" d="M99.101,62.038c0.654,0.297,0.969,1.057,1.652-0.003c0.053-0.087-0.891-0.592-1.048-0.608
				c-0.552-0.045-0.663,0.497-0.321,0.812c0.309,0.285,1.365,0.386,0.938-0.203c-0.395-0.542-0.855,0.175-0.634,0.249
				c0.329,0.112,1.519-1.271,1.739-1.493c0.566-0.576,1.104-1.17,1.623-1.782c0.459-0.545,1.078-1.096,0.736-1.734
				c-0.301-0.565-1.154-0.852-1.801-0.765c2.299,1.011-2.782,3.898-1.824,5.39c0.108-0.022,0.189-0.095,0.236-0.194"/>
			<path d="M100.044,61.59c-0.162-0.356-0.785-0.179-0.787,0.185c-0.004,0.344,0.463,0.699,0.801,0.768
				c0.264,0.05,0.922-0.023,0.913-0.363c-0.019-0.396-0.888-0.673-1.164-0.37"/>
			<path d="M62.439,103.483c0.518-0.227,0.631-0.333,1.1-0.033c0.347,0.219,0.81,0.571,1.067,0.88
				c0.553,0.652,0.088,1.608-0.617,2.012c-1.641,0.953-2.785-1.971-1.644-2.916c0.124,0.074,0.296,0.185,0.386,0.296"/>
			<path d="M58.954,107.214c0.004,0.137,0,0.146-0.008,0.017c-0.104-0.756,1.33-0.127,1.629,0.062
				c0.617,0.391,0.854,1.012,0.303,1.541c-1.123,1.078-3.221-0.644-2.213-1.668c0.086,0.023,0.152,0.067,0.201,0.138"/>
			<path d="M62.956,110.748c0.018,0.074,0.029,0.141,0.045,0.209c0.86-0.811,2.293-1.328,3.267-2.05
				c1.882-1.396,3.815-3.059,5.499-4.657c1.623-1.539,3.35-3.093,4.884-4.67c0.979-1.018,2.612-2.142,3.019-3.43
				c-0.844-0.911-1.283-0.955-1.528,0.093c-0.247,1.021-1.052,1.674-1.821,2.453c-1.572,1.597-2.905,3.259-4.49,4.872
				c-1.487,1.506-2.891,3.216-4.525,4.599c-0.814,0.681-1.651,1.103-2.543,1.654c-0.33,0.202-0.74,0.342-1.049,0.53
				c-0.424,0.262-0.689,0.922-1.191,0.84"/>
		</g>
		<path d="M98.178,188.358c-1.354-1.271-6.618-0.682-9.024-0.89c-0.807-1.443,2.234-6.785,3.992-7.855
			c1.854-1.123,2.777,0.057,5.032,0.438c1.83,0.301,5.14,0.446,6.474,1.33c-3.598,0.067-3.23,6.177-5.869,6.978"/>
		<path fill="#245977" d="M90.603,199.696c1.455,0.755,7.225,3.583,8.469,4.795c3.312,3.211,17.429,29.875,19.3,31.633
			c1.479,1.392,2.289,2.248,2.887,4.489c1.207,4.538-5.127,17.302-7.512,21.127c-1.521,2.439-7.5,12.054-8.746,14.101
			c-2.132,3.516-7.239,7.581-8.196,11.856c-1.538,0.419-2.145-2.528-2.785-3.811c-0.956-1.928-1.559-2.528-0.928-4.875
			c0.998-3.713,11.717-26.096,12.635-27.922c0.585-1.17,2.716-3.271,2.686-4.732c-0.025-1.373-7.701-10.285-9.23-12.824
			c-2.107-3.493-12.508-14.218-13.925-17.669c-1.526-3.726-3.544-8.28-3.053-12.475C82.914,202.963,89.296,199.021,90.603,199.696z"
			/>
		<path fill="#245977" d="M115.443,209.746c1.759-4.647,2.729-6.457,6.864-8.756c2.723-1.514,4.827-0.447,7.388,1.135
			c4.557,2.824,4.156,8.535,3.729,12.809c-0.534,5.374-0.595,10.96-1.521,16.49c-1.021,6.101-3.383,11.894-5.684,17.818
			c-1.729,4.445-1.056,9.342-0.857,13.864c0.24,5.479,0.265,11.055-0.015,16.527c-0.32,6.313-0.654,12.483,0.095,18.794
			c0.45,3.803-0.419,3.354-3.702,3.521c-1.934,0.098-4.023,1.243-5.255-1.047c-0.833-1.545-0.268-5.14-0.648-6.93
			c-0.583-2.731-0.883-5.374-1.176-8.186c-0.686-6.563-0.49-13.312-0.45-19.558c0.033-5.011,0.115-10.051,0.163-15.066
			c0.034-3.387-0.273-6.707-0.481-10.071c-0.314-5.173,1.911-9.988,2.106-15.091c0.146-3.789,0.057-7.769-0.904-11.473
			C114.417,211.901,115.443,209.746,115.443,209.746z"/>
		<path d="M126.378,290.621c-0.613,1.736-4.222,1.942-5.507,2.15c-1.961,0.325-3.795,0.977-5.696,1.079
			c-0.612,2.075,0.177,4.788,0.704,6.61c0.692,2.384,0.652,4.702,1.073,7.144c0.467,2.703,0.959,5.069,1.277,7.868
			c0.231,2.093,0.567,4.373,0.98,6.375c0.218,1.03,0.188,2.693,0.609,3.455c-1.113,0.324-4.964,13.838-5.956,13.676
			c-1.07-0.17,5.415,1.24,7.988,1.236c2.675-0.002,2.456-8.945,5.19-8.6c0.693,0.085,1.163-0.261,1.565,0.402
			c0.458,0.764-0.358,2,0.025,2.625c0.918,1.475,2.627-0.529,3.738-0.895c0.279-1.279-0.362-3.515-0.622-4.719
			c-0.26-1.26-0.602-2.719-1.058-3.996c-1.389-4.008-1.725-7.741-2.216-12.122c-0.465-4.202-1.267-8.296-1.248-12.382
			c0.007-1.932,0.107-3.976-0.269-5.799c-0.29-1.409-1.105-2.621-1.333-4.1"/>
		<path d="M91.415,277.646c3.631,2.336,8.207,3.104,11.782,5.357c0.099,1.54-2.741,4.401-3.62,5.712
			c-1.186,1.739-2.227,3.488-3.582,5.092c-3.003,3.532-6.955,7.068-9.193,11.276c-1.405,2.62-4.493,6.547-3.083,9.369
			c0.927,1.873,1.802,3.098,2.276,5.327c0.311,1.481,0.998,3.72,1.793,4.835c-5.359,0.778-6.871-3.311-10.113-6.932
			c-1.058-1.177-2.088-3.349-3.326-4.226c-2.024-1.432-3.812,1.415-5.921,0.736c-0.358-2.494-0.587-1.873,1.372-3.547
			c1.068-0.905,2.012-2.19,2.834-3.345c2.46-3.471,4.23-7.321,7.07-10.476c4.806-5.322,8.404-12.498,12.044-18.732"/>
		<path d="M86.032,148.896c1.535,0.293,4.293-0.254,6.336,0.113c1.274,0.234,3.094,0.422,4.11,1.149
			c1.538,1.104,0.856,1.893,0.28,3.374c-0.996,2.536-2.321,5.248-3.477,7.68c-0.767,1.615-1.774,5.752-3.399,6.664
			c-3.245,1.846-9.458-6.06-9.257-9.114c0.128-1.973,2.504-5.03,3.336-6.862c0.838-1.798,1.646-4.546,3.856-3.11"/>
	</g>
	<g>
		<g>
			<pattern  id="SVGID_1_" xlink:href="#Neues_Musterfeld_1" patternTransform="matrix(0.1114 0 0 0.1114 -6134.6885 -6599.4097)">
			</pattern>
			<path fill="url(#SVGID_1_)" d="M97.209,141.301l-3.241-6.361c0.524-0.381,2.677-1.237,2.776-1.264
				c0.242-0.062,0.654-0.073,0.886-0.027c0.154,0.031,1.1,0.73,1.168,0.829c0.069,0.1,0.183,0.477,0.266,1.005
				c0.081,0.529-0.088,0.777-0.348,1.112c-0.448,0.576-1.828,1.272-1.828,1.272l1.288,2.838L97.209,141.301z M95.482,135.439
				l0.592,1.02l0.288,0.51c0,0,0.562-0.215,0.678-0.277c0.113-0.062,0.662-0.385,0.697-0.429c0.034-0.04,0.233-0.637,0.233-0.637
				s-0.062-0.769-0.261-0.851c-0.182-0.078-0.414-0.083-0.533-0.048c-0.119,0.034-0.695,0.21-0.695,0.21L95.482,135.439z"/>
			<pattern  id="SVGID_2_" xlink:href="#Neues_Musterfeld_1" patternTransform="matrix(0.1114 0 0 0.1114 -6134.6885 -6599.4097)">
			</pattern>
			<path fill="url(#SVGID_2_)" d="M99.088,133.012c0,0,1.035-0.252,1.098-0.239c0.06,0.012,0.526,1.939,0.526,1.939l0.369,1.39
				c0,0,0.366,1.392,0.38,1.477c0.017,0.085,1.43-0.218,1.502-0.229c0.075-0.016,0.903-0.178,0.966-0.143s0.21,0.095,0.21,0.095
				l0.191,0.745c0,0-2.245,0.508-2.433,0.544c-0.189,0.036-1.262,0.316-1.262,0.316s-0.104-0.414-0.115-0.432
				c-0.012-0.016-0.072-0.146-0.078-0.166C100.436,138.294,99.088,133.012,99.088,133.012z"/>
			<pattern  id="SVGID_3_" xlink:href="#Neues_Musterfeld_1" patternTransform="matrix(0.1114 0 0 0.1114 -6134.6885 -6599.4097)">
			</pattern>
			<path fill="url(#SVGID_3_)" d="M103.021,132.04c0,0,0.595-0.202,0.623-0.22c0.027-0.016,0.367-0.128,0.396-0.17
				c0.027-0.04,1.26,4.27,1.318,4.325c0.061,0.058,0.568,0.546,1.059,0.448c0.359-0.072,0.469-0.25,0.492-0.284
				c0.021-0.033,0.078-0.171,0.078-0.171s-0.014-0.613-0.062-0.74c-0.051-0.126-0.836-3.257-0.836-3.257l-0.266-0.783l0.912-0.286
				c0,0,1.303,4.066,1.348,4.25c0.043,0.182,0.078,1.042,0.014,1.19c-0.064,0.149-0.467,0.723-0.648,0.826
				c-0.18,0.104-0.937,0.475-1.092,0.487c-0.152,0.011-0.479,0.141-1.002-0.04c-0.357-0.12-0.516-0.332-0.516-0.332l-0.275-0.46
				L103.021,132.04z"/>
			<pattern  id="SVGID_4_" xlink:href="#Neues_Musterfeld_1" patternTransform="matrix(0.1114 0 0 0.1114 -6134.6885 -6599.4097)">
			</pattern>
			<path fill="url(#SVGID_4_)" d="M108.911,134.639c0,0-0.057,0.051-0.049,0.138c0.008,0.085,0.012,0.608,0,0.671
				c-0.01,0.062-0.013,0.168-0.013,0.168s0.549,0.4,0.878,0.471c0.328,0.072,1.613,0.051,1.829-0.047
				c0.215-0.1,0.653-0.297,0.653-0.297s0.493-0.477,0.559-0.966c0.069-0.493,0.013-1.394-0.396-1.647
				c-0.083-0.05-0.47-0.297-0.553-0.337c-0.093-0.043-0.48-0.267-1.093-0.249c-0.612,0.016-1.193,0.13-1.205,0.141
				c-0.01,0.012-0.26-0.597-0.26-0.597s0.065-0.286,0.234-0.385c0.17-0.097,1.087-0.218,1.087-0.218s0.279-0.037,0.332-0.016
				c0.053,0.024,1.474,0.59,1.474,0.59l0.329-0.763c0,0-1.089-0.995-2.048-0.919c-0.525,0.041-1.271,0.243-1.309,0.268
				c-0.041,0.021-0.959,0.303-1.118,1.255c-0.157,0.953,0.098,1.122,0.109,1.14c0.014,0.018,0.464,0.426,0.693,0.486
				c0.23,0.061,0.79,0.188,0.824,0.188c0.035,0,0.556-0.148,0.882,0.011c0.324,0.157,0.488,0.315,0.529,0.383
				s0.147,0.381,0.11,0.495s-0.114,0.287-0.157,0.316c-0.046,0.026-0.49,0.077-0.667,0.044c-0.179-0.033-0.887-0.153-0.887-0.153
				L108.911,134.639z"/>
			<pattern  id="SVGID_5_" xlink:href="#Neues_Musterfeld_1" patternTransform="matrix(0.1114 0 0 0.1114 -6134.6885 -6599.4097)">
			</pattern>
			<path fill="url(#SVGID_5_)" d="M116.795,129.449c0.678,0.291,1.073,1.356,1.095,1.594c0.021,0.237-0.176,1.878-0.176,1.878
				s-0.381,1.229-0.412,1.289c-0.029,0.058-0.818,1.033-1.24,0.721c-0.796-0.591-0.889-1.636-0.99-1.971
				c-0.106-0.335-0.079-1.127-0.083-1.304c-0.006-0.179,0.104-0.889,0.114-1.106c0.01-0.218,0.607-1.111,0.607-1.111
				S116.117,129.156,116.795,129.449z M115.157,128.171c0,0-0.292,0.108-0.437,0.309c-0.045,0.065-0.902,1.517-0.753,2.953
				c0.148,1.436,0.662,3.403,0.927,3.696c0.268,0.291,0.986,0.915,1.376,0.965c0.389,0.056,0.753-0.152,0.809-0.152
				s0.997-0.779,0.997-0.779l1.547,1.995l1.104-1.628l-0.021-0.205l-1.678-1.258c0,0,0.494-2.735,0.312-3.632
				c-0.19-0.927-0.326-1.291-1.052-2.037c0,0-0.786-0.454-1.668-0.465C115.737,127.92,115.157,128.171,115.157,128.171z"/>
			<pattern  id="SVGID_6_" xlink:href="#Neues_Musterfeld_1" patternTransform="matrix(0.1114 0 0 0.1114 -6134.6885 -6599.4097)">
			</pattern>
			<path fill="url(#SVGID_6_)" d="M120.786,128.269c0,0,0.043-0.399,0.111-0.421c0.068-0.023,0.526-0.05,0.561-0.037
				c0.037,0.009,0.278,0.607,0.278,0.607s-0.345,1.605-0.357,1.686c-0.011,0.079-0.021,0.264-0.021,0.264l-0.364,0.644l-0.391-0.141
				L120.786,128.269z"/>
			<pattern  id="SVGID_7_" xlink:href="#Neues_Musterfeld_1" patternTransform="matrix(0.1114 0 0 0.1114 -6134.6885 -6599.4097)">
			</pattern>
			<polygon fill="url(#SVGID_7_)" points="125.661,131.108 124.408,137.594 123.022,137.125 124.369,130.774 			"/>
			<pattern  id="SVGID_8_" xlink:href="#Neues_Musterfeld_1" patternTransform="matrix(0.1114 0 0 0.1114 -6134.6885 -6599.4097)">
			</pattern>
			<path fill="url(#SVGID_8_)" d="M127.305,135.15l-0.61,2.635l1.228,0.388C127.673,137.176,127.477,136.167,127.305,135.15z"/>
			<pattern  id="SVGID_9_" xlink:href="#Neues_Musterfeld_1" patternTransform="matrix(0.1114 0 0 0.1114 -6134.6885 -6599.4097)">
			</pattern>
			<path fill="url(#SVGID_9_)" d="M126.292,129.097l-0.559-0.729l-1.643,0.747l0.199,0.447l1.264-0.42l0.613,0.943l0.18-0.183
				C126.294,129.64,126.288,129.352,126.292,129.097z"/>
		</g>
	</g>
	<g>
		<g>
			<g>
				<path fill="#245977" d="M88.792,118.774c1.186,0.091,2.373,0.184,3.57,0.382c0.895,0.147,1.727,0.232,2.643,0.325
					c1.995,0.202,0.567,1.901-0.182,2.741c-1.167,1.31-2.667,1.081-4.205,1.687c-2.006,0.79-3.824,1.126-6.016,1.13
					c-1.679,0.004-3.276-0.292-4.99-0.292c-1.547,0-2.764-0.232-4.202-0.732c-1.485-0.517-3.013-0.834-4.521-1.316
					c-1.086-0.347-2.089-1.171-3.097-1.718c-0.827-0.45-5.113-3.624-3.757-4.826c0.771-0.684,2.91,1.247,3.525,1.614
					c1.775,1.058,3.098,0.382,5.096,0.382c1.625,0,3.275-0.037,4.896,0.054c0.484,0.027,0.971,0.053,1.457,0.05
					c0.597-0.002,1.191,0.088,1.787,0.048c0.543-0.037,1.1-0.001,1.646,0.008c1.217,0.019,2.438,0.073,3.647,0.22
					C86.992,118.639,87.892,118.705,88.792,118.774z"/>
				<g>
					<path fill="#FFFFFF" d="M63.51,115.833c0.019,0.062,0.052,0.122,0.074,0.183c0.005-0.043,0.012-0.083,0.024-0.119
						C63.577,115.877,63.541,115.851,63.51,115.833z"/>
					<path fill="#FFFFFF" d="M94.594,121.002c-0.968,0.386-1.956,0.737-2.978,0.961c-2.543,0.56-5.139,1.36-7.759,1.361
						c-2.323,0-4.594-0.328-6.895-0.665c-2.316-0.34-4.595-1.002-6.683-2.058c-0.908-0.459-1.789-0.718-2.689-1.218
						c-0.537-0.302-1.036-0.671-1.529-1.022c-0.791-0.565-2.08-1.374-2.478-2.346c-0.024,0.261,0.09,0.617,0.114,0.863
						c0.078,0.792,0.045,1.591,0.058,2.386c0.024,1.844,0.226,3.679,0.257,5.516c0.078,4.699,0.513,9.387,0.513,14.105
						c0,2.227,0.071,4.451,0.091,6.677c0.021,2.215-0.07,4.433,0.166,6.642c0.287,2.718,0.688,5.405,1.081,8.128
						c0.192,1.33,0.409,2.656,0.619,3.968c0.12,0.743,0.198,1.556,0.598,2.149c0.359,0.535,1.022,0.781,1.616,1.023
						c0.849,0.347,1.746,0.646,2.551,1.093c0.059,0.033,0.119,0.068,0.179,0.103c0.815,0.486,1.735,0.646,2.681,0.807
						c1.295,0.221,2.587,0.525,3.886,0.705c1.2,0.167,2.315,0.147,3.525,0.063c1.997-0.135,4.698-0.628,5.517-2.706
						c0.812-2.059,1.104-4.412,1.531-6.602c1.486-7.59,2.531-15.26,3.92-22.875c0.394-2.164,0.967-4.278,1.279-6.457
						c0.243-1.695,0.553-3.449,0.938-5.11c0.268-1.164,0.5-2.328,0.75-3.496c0.125-0.586,0.301-1.288,0.562-1.831
						c0.159-0.325,0.521-0.604,0.427-0.984c-0.034,0.004-0.067,0.01-0.101,0.014C95.892,120.508,95.021,120.831,94.594,121.002z"/>
					<path fill="#FFFFFF" d="M94.958,118.636c-1.174-1.114-2.526-1.838-4.025-2.448c-2.424-0.988-4.815-1.689-7.371-2.061
						c-2.188-0.32-4.441-0.43-6.666-0.43c-1.465,0-3.008-0.402-4.463-0.166c-0.04,0.007-0.084,0.012-0.125,0.018
						c-0.035,0.004-0.069,0.006-0.105,0.009c-0.014,0.002-0.023,0.011-0.039,0.013c-0.201,0.033-0.402,0.07-0.606,0.086
						c-0.693,0.05-1.41,0.082-2.088,0.187c-0.854,0.13-1.716,0.335-2.535,0.585c-0.077,0.015-0.156,0.029-0.233,0.05
						c-0.293,0.058-0.729,0.24-0.917,0.305c-0.414,0.14-0.821,0.29-1.222,0.472c-0.203,0.093-0.848,0.405-0.944,0.6
						c-0.006,0.014-0.003,0.031-0.009,0.043c0.15,0.091,0.305,0.215,0.459,0.343c0.04,0.079,0.096,0.155,0.18,0.219
						c0.609,0.455,1.198,0.935,1.801,1.398c0.426,0.329,0.925,0.728,1.436,0.887c0.165,0.052,0.316,0.085,0.497,0.122
						c0.239,0.052,0.456,0.1,0.708,0.095c0.275-0.005,0.381-0.111,0.609-0.239c0.43-0.238,0.84-0.279,1.293-0.099
						c0.347,0.138,0.697-0.002,1.046-0.037c0.314-0.03,0.569-0.086,0.88-0.184c0.689-0.216,1.455-0.429,2.176-0.236
						c0.415,0.11,0.761,0.415,1.188,0.481c0.58,0.089,1.191-0.126,1.761-0.217c0.519-0.084,1.005-0.243,1.532-0.239
						c0.436,0.003,0.787,0.257,1.098,0.538c0.299,0.271,0.557,0.475,0.971,0.562c0.734,0.155,1.498,0.024,2.237-0.023
						c0.694-0.044,1.379,0.103,2.065,0.162c0.455,0.039,0.946,0.041,1.391,0.145c0.402,0.093,0.757,0.305,1.134,0.458
						c0.707,0.287,1.558-0.013,2.288-0.024c0.205-0.003,0.41-0.001,0.604,0.066c0.226,0.079,0.335,0.235,0.503,0.388
						c0.146,0.134,0.306,0.367,0.462,0.461c0.122,0.073,0.377,0.055,0.522,0.031c0.457-0.073,0.925-0.237,1.388-0.331
						c0.502-0.104,1.015-0.127,1.516-0.236c0.222-0.049,0.441-0.156,0.669-0.163c0.224-0.006,0.362,0.009,0.519-0.199
						C95.956,119.605,95.476,119.129,94.958,118.636z"/>
				</g>
			</g>
			<g>
				<path fill="#FFFFFF" stroke="#FFFFFF" stroke-width="0.3105" stroke-miterlimit="10" d="M80.171,157.646
					c-0.015,0.167-0.332,0.658,0.221,0.641c0.174-0.008,0.34-0.146,0.242-0.308c-0.105-0.188-0.572-0.177-0.771-0.2"/>
				<path fill="#FFFFFF" stroke="#FFFFFF" stroke-width="0.3105" stroke-miterlimit="10" d="M75.952,157.274
					c-0.053,0.115,0.121,0.485,0.48,0.348c0.409-0.159-0.055-0.64-0.321-0.445"/>
				<path fill="#FFFFFF" stroke="#FFFFFF" stroke-width="0.3105" stroke-miterlimit="10" d="M78.009,155.398
					c-0.176,0.158-0.086,0.557,0.311,0.483c0.424-0.073,0.02-0.609-0.246-0.421"/>
				<path fill="#FFFFFF" stroke="#FFFFFF" stroke-width="0.3105" stroke-miterlimit="10" d="M81.2,154.489
					c-0.029,0.026,0.096,0.078-0.066,0.056c-0.105,0.187-0.008,0.42,0.295,0.407c0.105-0.205,0.04-0.428-0.307-0.416"/>
				<path fill="#FFFFFF" stroke="#FFFFFF" stroke-width="0.3105" stroke-miterlimit="10" d="M78.272,152.484
					c0.09,0.217,0.46,0.607,0.694,0.252c0.143-0.211-0.3-0.732-0.525-0.457"/>
				<path fill="#FFFFFF" stroke="#FFFFFF" stroke-width="0.3105" stroke-miterlimit="10" d="M75.053,152.998
					c0.013,0.061,0.055,0.103,0.065,0.166c0.077,0.017,0.116,0.031,0.195,0.025c0.088-0.18-0.142-0.382-0.328-0.252"/>
				<path fill="#FFFFFF" stroke="#FFFFFF" stroke-width="0.3105" stroke-miterlimit="10" d="M72.815,155.186
					c0.249,0.787,0.65-0.062,0.077-0.045"/>
				<path fill="#FFFFFF" stroke="#FFFFFF" stroke-width="0.3105" stroke-miterlimit="10" d="M71.087,154.263
					c-0.005,0.04-0.024,0.647,0.238,0.365c0.154-0.163-0.111-0.455-0.318-0.318"/>
				<path fill="#FFFFFF" stroke="#FFFFFF" stroke-width="0.3105" stroke-miterlimit="10" d="M72.251,151.84
					c-0.041,0.024-0.211,0.348,0.099,0.396c0.315,0.047,0.282-0.367-0.021-0.44"/>
				<path fill="#FFFFFF" stroke="#FFFFFF" stroke-width="0.3105" stroke-miterlimit="10" d="M76.053,149.449
					c-0.085,0.115-0.257,0.451,0.11,0.459c0.363,0.012,0.253-0.34-0.049-0.397"/>
				<path fill="#FFFFFF" stroke="#FFFFFF" stroke-width="0.3105" stroke-miterlimit="10" d="M78.806,146.6
					c-0.027,0.082-0.084,0.471,0.25,0.41c0.324-0.059,0.204-0.531-0.162-0.509"/>
				<path fill="#FFFFFF" stroke="#FFFFFF" stroke-width="0.3105" stroke-miterlimit="10" d="M81.894,145.955
					c-0.048,0.016-0.04,0.07-0.142,0.051c-0.042,0.081-0.06,0.223-0.035,0.312c0.541,0.16,0.457-0.619,0.03-0.379"/>
				<path fill="#FFFFFF" stroke="#FFFFFF" stroke-width="0.3105" stroke-miterlimit="10" d="M79.985,143.404
					c-0.212,0.158,0.179,0.548,0.541,0.409c0.373-0.143,0.008-0.659-0.305-0.55"/>
				<path fill="#FFFFFF" stroke="#FFFFFF" stroke-width="0.3105" stroke-miterlimit="10" d="M78.747,140.759
					c0.004,0.038,0.091,0.129,0.06,0.219c0.556,0.22,0.59-0.479,0.062-0.53c-0.024,0.031-0.035,0.063-0.024,0.1"/>
				<path fill="#FFFFFF" stroke="#FFFFFF" stroke-width="0.3105" stroke-miterlimit="10" d="M77.335,136.485
					c-0.053,0.554,0.938-0.225,0.104-0.202c-0.021,0.05-0.031,0.1-0.029,0.152"/>
				<path fill="#FFFFFF" stroke="#FFFFFF" stroke-width="0.3105" stroke-miterlimit="10" d="M81.31,137.667
					c-0.193,0.129,0.119,0.545,0.34,0.263c0.178-0.225-0.232-0.54-0.475-0.391"/>
				<path fill="#FFFFFF" stroke="#FFFFFF" stroke-width="0.3105" stroke-miterlimit="10" d="M80.919,135.344
					c-0.017,0.156-0.058,0.617,0.439,0.483c0.46-0.128,0.021-0.709-0.291-0.522"/>
				<path fill="#FFFFFF" stroke="#FFFFFF" stroke-width="0.3105" stroke-miterlimit="10" d="M81.458,133.185
					c-0.091,0.125-0.151,0.653,0.382,0.546c0.422-0.087,0.106-0.546-0.306-0.538"/>
				<path fill="#FFFFFF" stroke="#FFFFFF" stroke-width="0.3105" stroke-miterlimit="10" d="M84.261,150.898
					c-0.089,0.142,0.221,0.555,0.549,0.333c0.443-0.292-0.561-0.79-0.619-0.396"/>
				<path fill="#FFFFFF" stroke="#FFFFFF" stroke-width="0.3105" stroke-miterlimit="10" d="M85.709,148.509
					c-0.421-0.063-0.34,0.687,0.159,0.565c0.47-0.115,0.114-0.772-0.449-0.598"/>
				<path fill="#FFFFFF" stroke="#FFFFFF" stroke-width="0.3105" stroke-miterlimit="10" d="M79.953,150.012
					c0.048,0.304,0.669,0.409,0.733,0.072c0.068-0.36-0.891-0.671-0.857-0.256"/>
				<path fill="#FFFFFF" stroke="#FFFFFF" stroke-width="0.3105" stroke-miterlimit="10" d="M72.022,144.926
					c0.08,0.262,0.447,0.575,0.656,0.19c0.098-0.174-0.041-0.376-0.324-0.421c-0.289-0.042-0.348,0.076-0.484,0.268"/>
				<path fill="#FFFFFF" stroke="#FFFFFF" stroke-width="0.3105" stroke-miterlimit="10" d="M71.181,148.385
					c0.037-0.004,0.053,0.043-0.063,0.002c-0.037,0.185,0.261,0.218,0.464,0.201c0.257-0.229-0.013-0.57-0.425-0.531
					c-0.048,0.075-0.116,0.17-0.116,0.256"/>
				<path fill="#FFFFFF" stroke="#FFFFFF" stroke-width="0.3105" stroke-miterlimit="10" d="M69.636,151.539
					c-0.143,0.178,0.127,0.681,0.406,0.369c0.137-0.152-0.059-0.506-0.31-0.528c-0.3-0.03-0.333,0.232-0.417,0.403"/>
				<path fill="#FFFFFF" stroke="#FFFFFF" stroke-width="0.3105" stroke-miterlimit="10" d="M68.614,154.033
					c-0.135,0.211-0.183,0.695,0.278,0.755c0.529,0.069,0.425-0.637-0.062-0.61c-0.025,0.073-0.062,0.185-0.045,0.265"/>
				<path fill="#FFFFFF" stroke="#FFFFFF" stroke-width="0.3105" stroke-miterlimit="10" d="M72.36,157.19
					c0.15,0.253,0.987,0.597,0.881,0.045c-0.078-0.421-1.009-0.339-0.674,0.09"/>
				<path fill="#FFFFFF" stroke="#FFFFFF" stroke-width="0.3105" stroke-miterlimit="10" d="M80.551,159.469
					c-0.159,0.174-0.022,0.529,0.308,0.363c0.201-0.105,0.223-0.685-0.145-0.51"/>
				<path fill="#FFFFFF" stroke="#FFFFFF" stroke-width="0.3105" stroke-miterlimit="10" d="M82.162,157.602
					c-0.683,0.721,1.026,0.789,0.565,0.175"/>
				<path fill="#FFFFFF" stroke="#FFFFFF" stroke-width="0.3105" stroke-miterlimit="10" d="M84.768,157.292
					c0.104,0.021-0.028,0.002-0.059,0.001c-0.335,1.006,1.3-0.087,0.079-0.166"/>
				<path fill="#FFFFFF" stroke="#FFFFFF" stroke-width="0.3105" stroke-miterlimit="10" d="M84.15,155.663
					c-0.063,0.234,0.263,0.679,0.541,0.287c0.175-0.244-0.302-0.585-0.597-0.46"/>
				<path fill="#FFFFFF" stroke="#FFFFFF" stroke-width="0.3105" stroke-miterlimit="10" d="M86.017,154.769
					c-0.093,0.221,0.12,0.391,0.348,0.155c0.252-0.26-0.076-0.518-0.456-0.501"/>
				<path fill="#FFFFFF" stroke="#FFFFFF" stroke-width="0.3105" stroke-miterlimit="10" d="M83.396,153.91
					c0.377,0.64,0.961-0.279,0.031-0.275"/>
				<path fill="#FFFFFF" stroke="#FFFFFF" stroke-width="0.3105" stroke-miterlimit="10" d="M81.358,153.119
					c0.008,0.039,0.092,0.129,0.061,0.217c0.395,0.278,0.762-0.224,0.33-0.396"/>
				<path fill="#FFFFFF" stroke="#FFFFFF" stroke-width="0.3105" stroke-miterlimit="10" d="M81.504,151.859
					c-0.091,0.285,0.417,0.611,0.627,0.292"/>
				<path fill="#FFFFFF" stroke="#FFFFFF" stroke-width="0.3105" stroke-miterlimit="10" d="M83.337,151.901
					c0.125,0.013-0.053,0.005-0.061,0.003c-0.504,0.458,0.697,0.442,0.336,0.142"/>
				<path fill="#FFFFFF" stroke="#FFFFFF" stroke-width="0.3105" stroke-miterlimit="10" d="M81.891,149.791
					c0.097,0.543,0.972,0.073,0.387-0.178"/>
				<path fill="#FFFFFF" stroke="#FFFFFF" stroke-width="0.3105" stroke-miterlimit="10" d="M82.747,148.721
					c-0.181,0.475,0.729,0.422,0.374-0.067"/>
				<path fill="#FFFFFF" stroke="#FFFFFF" stroke-width="0.3105" stroke-miterlimit="10" d="M80.132,131.974
					c0.113,0.09-0.162-0.052-0.197-0.073c-0.069,0.13-0.096,0.459,0.23,0.418c0.301-0.043,0.226-0.437-0.095-0.463"/>
				<path fill="#FFFFFF" stroke="#FFFFFF" stroke-width="0.3105" stroke-miterlimit="10" d="M77.353,130.597
					c-0.005,0.145,0.104,0.345,0.393,0.316c0.064-0.189-0.148-0.944-0.434-0.597"/>
				<path fill="#FFFFFF" stroke="#FFFFFF" stroke-width="0.3105" stroke-miterlimit="10" d="M76.466,126.824
					c0.033,0.2,0.303,0.528,0.541,0.303c0.184-0.171-0.152-0.484-0.304-0.438"/>
				<path fill="#FFFFFF" stroke="#FFFFFF" stroke-width="0.3105" stroke-miterlimit="10" d="M78.807,125.652
					c-0.043-0.025-0.085-0.044-0.126-0.062c-0.043,0.085-0.059,0.219-0.043,0.313c0.306,0.106,0.573-0.007,0.535-0.263"/>
				<path fill="#FFFFFF" stroke="#FFFFFF" stroke-width="0.3105" stroke-miterlimit="10" d="M79.925,124.228
					c-0.045-0.018-0.092-0.018-0.134-0.009c-0.134,0.236,0.12,0.324,0.316,0.195c0.2-0.128,0.182-0.451-0.064-0.564"/>
				<path fill="#FFFFFF" stroke="#FFFFFF" stroke-width="0.3105" stroke-miterlimit="10" d="M81.607,121.755
					c-0.027,0.106,0.063,0.349,0.317,0.304c0.268-0.046,0.256-0.533,0.162-0.639"/>
				<path fill="#FFFFFF" stroke="#FFFFFF" stroke-width="0.3105" stroke-miterlimit="10" d="M82.455,119.52
					c-0.022,0.093-0.02,0.166,0.103,0.229c0.226-0.21,0.299-0.399,0.316-0.683"/>
				<path fill="#FFFFFF" stroke="#FFFFFF" stroke-width="0.3105" stroke-miterlimit="10" d="M80.202,117.424
					c-0.022,0.064,0.043,0.133-0.019,0.21c0.452,0.166,0.802-0.646,0.282-0.625"/>
				<path fill="#FFFFFF" stroke="#FFFFFF" stroke-width="0.3069" stroke-miterlimit="10" d="M74.447,148.674
					c-0.092,0.137-0.132,0.379-0.389,0.339c-0.026-0.11-0.044-0.224-0.042-0.333"/>
				<path fill="#FFFFFF" stroke="#FFFFFF" stroke-width="0.3105" stroke-miterlimit="10" d="M78.737,128.146
					c-0.316,0.062-0.447,0.812,0.07,0.68c0.328-0.09,0.466-0.772-0.062-0.736"/>
				<path fill="#FFFFFF" stroke="#FFFFFF" stroke-width="0.3105" stroke-miterlimit="10" d="M77.935,133.776
					c-0.025-0.109-0.023-0.181-0.184-0.182c-0.049,0.166-0.146,0.51,0.221,0.524c0.36,0.007,0.285-0.555,0.307-0.749"/>
				<path fill="#FFFFFF" stroke="#FFFFFF" stroke-width="0.3105" stroke-miterlimit="10" d="M80.017,132.958
					c0.064,0.035-0.135-0.053-0.221,0.083c-0.05,0.092-0.074,0.282,0.019,0.357c0.395,0.311,0.493-0.271,0.487-0.451
					c-0.041-0.02-0.088-0.029-0.133-0.024"/>
				<path fill="#FFFFFF" stroke="#FFFFFF" stroke-width="0.3105" stroke-miterlimit="10" d="M79.327,135.104
					c0.12,0.065-0.094,0-0.135-0.011c-0.09,0.286-0.011,0.513,0.439,0.48c0.055-0.124,0.046-0.257-0.035-0.38
					c-0.054-0.013-0.1,0-0.137,0.034"/>
				<path fill="#FFFFFF" stroke="#FFFFFF" stroke-width="0.3105" stroke-miterlimit="10" d="M79.791,137.436
					c0.032,0.156,0.263,0.569,0.568,0.36c0.214-0.149-0.021-0.397-0.276-0.326"/>
				<path fill="#FFFFFF" stroke="#FFFFFF" stroke-width="0.3105" stroke-miterlimit="10" d="M78.493,138.506
					c-0.016,0.061-0.01,0.187-0.02,0.269c0.262,0.062,0.721,0.044,0.453-0.219"/>
				<path fill="#FFFFFF" stroke="#FFFFFF" stroke-width="0.3105" stroke-miterlimit="10" d="M76.857,140.598
					c0.053,0.006,0.079-0.004,0.066-0.042c-0.317,0.209,0.252,0.625,0.633,0.357c0.351-0.251,0.056-0.804-0.173-0.425"/>
				<path fill="#FFFFFF" stroke="#FFFFFF" stroke-width="0.3105" stroke-miterlimit="10" d="M77.718,145.197
					c-0.107-0.087-0.229-0.21-0.406-0.21c-0.041,0.328,0.509,0.78,0.902,0.559c0.362-0.21,0.026-0.877-0.326-0.553"/>
				<path fill="#FFFFFF" stroke="#FFFFFF" stroke-width="0.3105" stroke-miterlimit="10" d="M75.735,146.468
					c-0.047-0.054-0.143-0.106-0.205-0.146c-0.265,0.192,0.109,0.546,0.453,0.515c0.477-0.039,0.416-0.562-0.078-0.572"/>
				<path fill="#FFFFFF" stroke="#FFFFFF" stroke-width="0.3105" stroke-miterlimit="10" d="M73.015,147.151
					c0.093,0.158,0.174,0.635,0.578,0.682c0.575,0.066,0.479-0.694-0.001-0.614"/>
				<path fill="#FFFFFF" stroke="#FFFFFF" stroke-width="0.3105" stroke-miterlimit="10" d="M73.443,149.759
					c-0.03,0.188,0.416,0.445,0.697,0.35c0.571-0.199-0.194-0.664-0.575-0.661c-0.025,0.031-0.035,0.062-0.023,0.101"/>
				<path fill="#FFFFFF" stroke="#FFFFFF" stroke-width="0.3105" stroke-miterlimit="10" d="M76.164,151.02
					c-0.543,0.264,1.133,0.844,0.582,0.066"/>
				<path fill="#FFFFFF" stroke="#FFFFFF" stroke-width="0.3105" stroke-miterlimit="10" d="M78.181,150.75
					c-0.165,0.339,0.457,0.42,0.505,0.06"/>
				<path fill="#FFFFFF" stroke="#FFFFFF" stroke-width="0.3105" stroke-miterlimit="10" d="M77.829,148.04
					c-0.003,0.084-0.076,0.266,0.013,0.354c0.152,0.144,0.374,0.184,0.466-0.02"/>
				<path fill="#FFFFFF" stroke="#FFFFFF" stroke-width="0.3105" stroke-miterlimit="10" d="M79.897,146.672
					c-0.323,0.215,0.453,0.992,0.498,0.168"/>
				<path fill="#FFFFFF" stroke="#FFFFFF" stroke-width="0.3105" stroke-miterlimit="10" d="M81.6,145.312
					c-0.085,0.193,0.107,0.529,0.338,0.261"/>
				<path fill="#FFFFFF" stroke="#FFFFFF" stroke-width="0.3069" stroke-miterlimit="10" d="M76.299,148.167
					c0.008,0.216-0.104,0.391-0.449,0.272c-0.083-0.334,0.366-0.421,0.503-0.102"/>
				<path fill="#FFFFFF" stroke="#FFFFFF" stroke-width="0.3105" stroke-miterlimit="10" d="M74.326,115.466
					c0.046,0.09,0.13,0.163,0.261,0.19c0.085-0.136,0.043-0.273-0.164-0.284c-0.022,0.03-0.032,0.066-0.023,0.103"/>
				<path fill="#FFFFFF" stroke="#FFFFFF" stroke-width="0.3105" stroke-miterlimit="10" d="M82.399,116.179
					c0.045,0.151,0.057,0.439,0.348,0.326c0.271-0.108,0.148-0.57-0.119-0.409"/>
				<path fill="#FFFFFF" stroke="#FFFFFF" stroke-width="0.3069" stroke-miterlimit="10" d="M74.081,145.019
					c0.023,0.24-0.32,0.378-0.452,0.122c-0.145-0.283,0.419-0.541,0.526-0.168"/>
				<path fill="#FFFFFF" stroke="#FFFFFF" stroke-width="0.3069" stroke-miterlimit="10" d="M75.601,141.807
					c-0.068,0.153-0.181,0.307-0.385,0.341c-0.129-0.203,0.027-0.725,0.313-0.349"/>
				<path fill="#FFFFFF" stroke="#FFFFFF" stroke-width="0.3069" stroke-miterlimit="10" d="M76.187,139.208
					c0.016,0.178-0.152,0.43-0.395,0.39c-0.025-0.134,0.006-0.27,0.107-0.367"/>
				<path fill="#FFFFFF" stroke="#FFFFFF" stroke-width="0.3069" stroke-miterlimit="10" d="M74.726,138.203
					c-0.029,0.103-0.021,0.164-0.156,0.201c-0.006-0.068-0.01-0.15,0.014-0.219"/>
				<path fill="#FFFFFF" stroke="#FFFFFF" stroke-width="0.3069" stroke-miterlimit="10" d="M76.935,134.2
					c0.041,1.482-2.033-0.799,0.188-0.225"/>
				<path fill="#FFFFFF" stroke="#FFFFFF" stroke-width="0.3069" stroke-miterlimit="10" d="M77.909,131.334
					c0.004,0.011-0.073,0.359-0.082,0.472c-0.768-0.144-0.398-0.931,0.299-0.945"/>
				<path fill="#FFFFFF" stroke="#FFFFFF" stroke-width="0.3069" stroke-miterlimit="10" d="M79.531,128.417
					c-0.149,0.075-0.192,0.184-0.463,0.051c-0.032-0.136,0.011-0.206,0.039-0.332c0.157-0.013,0.294,0.009,0.454,0.034"/>
			</g>
		</g>
		<path fill="#245977" stroke="#245977" stroke-width="1.1701" stroke-miterlimit="10" d="M90.007,140.018
			c0.574-2.359,0.842-4.809,1.16-7.206c0.204-1.551,0.41-3.087,0.681-4.647c0.237-1.365,0.548-2.452-1.077-2.709
			c-1.77-0.279-3.718-0.119-5.497,0.032c-2.103,0.18-4.435,0.972-6.56,0.436c-2.131-0.536-4.323-0.965-6.426-1.683
			c-1.953-0.665-3.604-2.022-5.524-2.695c-0.173,0.877,0.062,1.642,0.204,2.493c0.18,1.081,0.114,2.224,0.152,3.317
			c0.092,2.477,0.224,4.951,0.356,7.426c0.265,4.884,0.539,9.771,0.528,14.663c-0.006,2.393,0.178,4.752,0.401,7.128
			c0.22,2.357,0.372,4.814,1.602,6.906c0.975,1.66,3.009,2.266,4.843,2.423c0.963,0.082,1.883,0.002,2.838,0.147
			c0.691,0.104,1.509,0.273,2.199,0.285c1.156,0.02,2.782-0.51,3.826-1.012c1.049-0.504,1.052-1.708,1.25-2.858
			c0.328-1.896,0.775-3.798,1.281-5.672c1.477-5.467,2.338-11.098,3.717-16.591C89.978,140.141,89.991,140.079,90.007,140.018z"/>
		<g>
			<path fill="#FFFFFF" stroke="#FFFFFF" stroke-width="0.2844" stroke-miterlimit="10" d="M78.917,163.255
				c-0.016,0.153-0.305,0.604,0.204,0.586c0.157-0.007,0.312-0.134,0.22-0.281c-0.098-0.172-0.524-0.161-0.709-0.182"/>
			<path fill="#FFFFFF" stroke="#FFFFFF" stroke-width="0.2844" stroke-miterlimit="10" d="M75.05,162.925
				c-0.049,0.106,0.112,0.444,0.441,0.317c0.375-0.146-0.054-0.585-0.296-0.407"/>
			<path fill="#FFFFFF" stroke="#FFFFFF" stroke-width="0.2844" stroke-miterlimit="10" d="M76.929,161.202
				c-0.159,0.144-0.076,0.509,0.287,0.441c0.387-0.069,0.016-0.559-0.227-0.386"/>
			<path fill="#FFFFFF" stroke="#FFFFFF" stroke-width="0.2844" stroke-miterlimit="10" d="M79.851,160.36
				c-0.027,0.026,0.089,0.072-0.061,0.052c-0.097,0.171-0.006,0.384,0.271,0.371c0.098-0.188,0.036-0.391-0.282-0.38"/>
			<path fill="#FFFFFF" stroke="#FFFFFF" stroke-width="0.2844" stroke-miterlimit="10" d="M77.163,158.53
				c0.084,0.199,0.422,0.558,0.637,0.229c0.131-0.192-0.276-0.668-0.48-0.416"/>
			<path fill="#FFFFFF" stroke="#FFFFFF" stroke-width="0.2844" stroke-miterlimit="10" d="M74.217,159.01
				c0.011,0.057,0.048,0.094,0.059,0.15c0.071,0.017,0.106,0.029,0.179,0.024c0.08-0.165-0.129-0.35-0.301-0.231"/>
			<path fill="#FFFFFF" stroke="#FFFFFF" stroke-width="0.2844" stroke-miterlimit="10" d="M72.17,161.02
				c0.23,0.719,0.598-0.059,0.071-0.043"/>
			<path fill="#FFFFFF" stroke="#FFFFFF" stroke-width="0.2844" stroke-miterlimit="10" d="M70.585,160.178
				c-0.004,0.037-0.02,0.592,0.22,0.334c0.141-0.15-0.104-0.416-0.293-0.292"/>
			<path fill="#FFFFFF" stroke="#FFFFFF" stroke-width="0.2844" stroke-miterlimit="10" d="M71.644,157.957
				c-0.034,0.021-0.19,0.317,0.096,0.361c0.287,0.043,0.258-0.337-0.024-0.403"/>
			<path fill="#FFFFFF" stroke="#FFFFFF" stroke-width="0.2844" stroke-miterlimit="10" d="M75.124,155.756
				c-0.08,0.106-0.236,0.414,0.1,0.42c0.332,0.01,0.232-0.312-0.045-0.363"/>
			<path fill="#FFFFFF" stroke="#FFFFFF" stroke-width="0.2844" stroke-miterlimit="10" d="M77.638,153.139
				c-0.025,0.075-0.076,0.431,0.23,0.375c0.297-0.056,0.184-0.486-0.15-0.465"/>
			<path fill="#FFFFFF" stroke="#FFFFFF" stroke-width="0.2844" stroke-miterlimit="10" d="M80.464,152.541
				c-0.044,0.014-0.035,0.064-0.13,0.047c-0.037,0.075-0.052,0.203-0.031,0.286c0.495,0.146,0.418-0.567,0.028-0.348"/>
			<path fill="#FFFFFF" stroke="#FFFFFF" stroke-width="0.2844" stroke-miterlimit="10" d="M78.711,150.208
				c-0.194,0.146,0.165,0.502,0.496,0.374c0.343-0.132,0.005-0.604-0.28-0.502"/>
			<path fill="#FFFFFF" stroke="#FFFFFF" stroke-width="0.2844" stroke-miterlimit="10" d="M77.569,147.788
				c0.004,0.035,0.084,0.118,0.057,0.2c0.508,0.2,0.537-0.44,0.055-0.484c-0.022,0.026-0.032,0.058-0.021,0.09"/>
			<path fill="#FFFFFF" stroke="#FFFFFF" stroke-width="0.2844" stroke-miterlimit="10" d="M76.265,143.876
				c-0.046,0.507,0.859-0.208,0.095-0.186c-0.019,0.047-0.027,0.092-0.025,0.141"/>
			<path fill="#FFFFFF" stroke="#FFFFFF" stroke-width="0.2844" stroke-miterlimit="10" d="M79.911,144.949
				c-0.18,0.119,0.108,0.499,0.311,0.24c0.162-0.207-0.215-0.494-0.436-0.357"/>
			<path fill="#FFFFFF" stroke="#FFFFFF" stroke-width="0.2844" stroke-miterlimit="10" d="M79.546,142.822
				c-0.015,0.142-0.049,0.564,0.404,0.441c0.422-0.118,0.019-0.65-0.27-0.479"/>
			<path fill="#FFFFFF" stroke="#FFFFFF" stroke-width="0.2844" stroke-miterlimit="10" d="M80.034,140.842
				c-0.082,0.115-0.137,0.599,0.353,0.501c0.386-0.081,0.094-0.501-0.283-0.493"/>
			<path fill="#FFFFFF" stroke="#FFFFFF" stroke-width="0.2844" stroke-miterlimit="10" d="M82.646,157.063
				c-0.081,0.13,0.204,0.509,0.503,0.305c0.406-0.269-0.516-0.725-0.568-0.361"/>
			<path fill="#FFFFFF" stroke="#FFFFFF" stroke-width="0.2844" stroke-miterlimit="10" d="M83.968,154.871
				c-0.387-0.058-0.311,0.629,0.146,0.518c0.43-0.106,0.104-0.707-0.411-0.547"/>
			<path fill="#FFFFFF" stroke="#FFFFFF" stroke-width="0.2844" stroke-miterlimit="10" d="M78.698,156.262
				c0.043,0.278,0.614,0.374,0.672,0.065c0.062-0.331-0.818-0.613-0.787-0.233"/>
			<path fill="#FFFFFF" stroke="#FFFFFF" stroke-width="0.2844" stroke-miterlimit="10" d="M71.419,151.622
				c0.074,0.239,0.412,0.525,0.604,0.173c0.087-0.16-0.038-0.344-0.301-0.384c-0.264-0.038-0.318,0.07-0.441,0.245"/>
			<path fill="#FFFFFF" stroke="#FFFFFF" stroke-width="0.2844" stroke-miterlimit="10" d="M70.655,154.792
				c0.034-0.003,0.051,0.04-0.057,0.003c-0.033,0.17,0.238,0.199,0.425,0.184c0.235-0.211-0.013-0.523-0.391-0.486
				c-0.044,0.07-0.106,0.157-0.106,0.234"/>
			<path fill="#FFFFFF" stroke="#FFFFFF" stroke-width="0.2844" stroke-miterlimit="10" d="M69.25,157.686
				c-0.13,0.164,0.116,0.624,0.371,0.338c0.126-0.14-0.054-0.463-0.284-0.484c-0.275-0.025-0.304,0.215-0.38,0.371"/>
			<path fill="#FFFFFF" stroke="#FFFFFF" stroke-width="0.2844" stroke-miterlimit="10" d="M68.319,159.974
				c-0.121,0.194-0.166,0.638,0.258,0.69c0.484,0.062,0.389-0.585-0.059-0.559c-0.022,0.067-0.055,0.168-0.039,0.242"/>
			<path fill="#FFFFFF" stroke="#FFFFFF" stroke-width="0.2844" stroke-miterlimit="10" d="M71.76,162.855
				c0.138,0.232,0.905,0.545,0.808,0.041c-0.074-0.386-0.926-0.309-0.617,0.083"/>
			<path fill="#FFFFFF" stroke="#FFFFFF" stroke-width="0.2844" stroke-miterlimit="10" d="M79.269,164.924
				c-0.146,0.16-0.02,0.486,0.281,0.331c0.186-0.097,0.203-0.626-0.133-0.465"/>
			<path fill="#FFFFFF" stroke="#FFFFFF" stroke-width="0.2844" stroke-miterlimit="10" d="M80.739,163.21
				c-0.625,0.661,0.943,0.72,0.519,0.157"/>
			<path fill="#FFFFFF" stroke="#FFFFFF" stroke-width="0.2844" stroke-miterlimit="10" d="M83.126,162.92
				c0.097,0.019-0.027,0.001-0.055,0.001c-0.304,0.921,1.191-0.083,0.071-0.152"/>
			<path fill="#FFFFFF" stroke="#FFFFFF" stroke-width="0.2844" stroke-miterlimit="10" d="M82.554,161.43
				c-0.057,0.214,0.243,0.62,0.498,0.261c0.162-0.225-0.278-0.533-0.547-0.421"/>
			<path fill="#FFFFFF" stroke="#FFFFFF" stroke-width="0.2844" stroke-miterlimit="10" d="M84.265,160.605
				c-0.086,0.202,0.109,0.356,0.32,0.141c0.228-0.239-0.072-0.475-0.423-0.457"/>
			<path fill="#FFFFFF" stroke="#FFFFFF" stroke-width="0.2844" stroke-miterlimit="10" d="M81.86,159.825
				c0.348,0.585,0.879-0.259,0.03-0.253"/>
			<path fill="#FFFFFF" stroke="#FFFFFF" stroke-width="0.2844" stroke-miterlimit="10" d="M79.993,159.105
				c0.006,0.035,0.082,0.116,0.056,0.198c0.36,0.254,0.695-0.206,0.301-0.363"/>
			<path fill="#FFFFFF" stroke="#FFFFFF" stroke-width="0.2844" stroke-miterlimit="10" d="M80.123,157.951
				c-0.085,0.262,0.383,0.558,0.575,0.266"/>
			<path fill="#FFFFFF" stroke="#FFFFFF" stroke-width="0.2844" stroke-miterlimit="10" d="M81.802,157.984
				c0.115,0.012-0.048,0.004-0.055,0.003c-0.46,0.421,0.641,0.403,0.307,0.129"/>
			<path fill="#FFFFFF" stroke="#FFFFFF" stroke-width="0.2844" stroke-miterlimit="10" d="M80.472,156.055
				c0.09,0.498,0.889,0.065,0.354-0.165"/>
			<path fill="#FFFFFF" stroke="#FFFFFF" stroke-width="0.2844" stroke-miterlimit="10" d="M81.253,155.072
				c-0.164,0.436,0.668,0.385,0.345-0.063"/>
			<path fill="#FFFFFF" stroke="#FFFFFF" stroke-width="0.2844" stroke-miterlimit="10" d="M78.816,139.737
				c0.104,0.081-0.147-0.047-0.181-0.068c-0.062,0.121-0.086,0.422,0.213,0.383c0.275-0.038,0.204-0.401-0.088-0.425"/>
			<path fill="#FFFFFF" stroke="#FFFFFF" stroke-width="0.2844" stroke-miterlimit="10" d="M76.267,138.481
				c-0.006,0.134,0.097,0.316,0.361,0.29c0.06-0.174-0.139-0.866-0.398-0.548"/>
			<path fill="#FFFFFF" stroke="#FFFFFF" stroke-width="0.2844" stroke-miterlimit="10" d="M75.445,135.028
				c0.032,0.183,0.277,0.483,0.497,0.276c0.167-0.158-0.142-0.444-0.279-0.401"/>
			<path fill="#FFFFFF" stroke="#FFFFFF" stroke-width="0.2844" stroke-miterlimit="10" d="M77.589,133.948
				c-0.04-0.023-0.08-0.04-0.117-0.057c-0.039,0.079-0.053,0.2-0.037,0.288c0.277,0.097,0.523-0.009,0.488-0.241"/>
			<path fill="#FFFFFF" stroke="#FFFFFF" stroke-width="0.2844" stroke-miterlimit="10" d="M78.608,132.641
				c-0.041-0.016-0.084-0.016-0.125-0.008c-0.119,0.217,0.113,0.296,0.292,0.178c0.184-0.116,0.168-0.414-0.06-0.516"/>
			<path fill="#FFFFFF" stroke="#FFFFFF" stroke-width="0.2844" stroke-miterlimit="10" d="M80.144,130.372
				c-0.025,0.098,0.06,0.319,0.29,0.277c0.245-0.043,0.235-0.489,0.147-0.585"/>
			<path fill="#FFFFFF" stroke="#FFFFFF" stroke-width="0.2844" stroke-miterlimit="10" d="M80.915,128.321
				c-0.018,0.086-0.018,0.152,0.094,0.21c0.207-0.193,0.273-0.366,0.287-0.628"/>
			<path fill="#FFFFFF" stroke="#FFFFFF" stroke-width="0.2844" stroke-miterlimit="10" d="M78.845,126.407
				c-0.02,0.059,0.039,0.12-0.016,0.192c0.414,0.151,0.732-0.594,0.258-0.573"/>
			<path fill="#FFFFFF" stroke="#FFFFFF" stroke-width="0.2812" stroke-miterlimit="10" d="M73.649,155.05
				c-0.082,0.126-0.117,0.349-0.354,0.312c-0.025-0.102-0.043-0.203-0.04-0.305"/>
			<path fill="#FFFFFF" stroke="#FFFFFF" stroke-width="0.2844" stroke-miterlimit="10" d="M77.529,136.233
				c-0.29,0.059-0.407,0.745,0.067,0.622c0.3-0.083,0.426-0.708-0.059-0.674"/>
			<path fill="#FFFFFF" stroke="#FFFFFF" stroke-width="0.2844" stroke-miterlimit="10" d="M76.81,141.392
				c-0.025-0.099-0.021-0.164-0.17-0.164c-0.043,0.153-0.132,0.467,0.204,0.479c0.328,0.006,0.258-0.51,0.278-0.686"/>
			<path fill="#FFFFFF" stroke="#FFFFFF" stroke-width="0.2844" stroke-miterlimit="10" d="M78.714,140.639
				c0.059,0.032-0.123-0.049-0.201,0.076c-0.047,0.084-0.069,0.26,0.018,0.328c0.36,0.283,0.451-0.25,0.444-0.415
				c-0.039-0.018-0.079-0.025-0.123-0.021"/>
			<path fill="#FFFFFF" stroke="#FFFFFF" stroke-width="0.2844" stroke-miterlimit="10" d="M78.087,142.605
				c0.111,0.061-0.084,0-0.123-0.008c-0.08,0.263-0.009,0.469,0.402,0.438c0.051-0.113,0.043-0.235-0.032-0.349
				c-0.047-0.01-0.091,0-0.125,0.032"/>
			<path fill="#FFFFFF" stroke="#FFFFFF" stroke-width="0.2844" stroke-miterlimit="10" d="M78.519,144.74
				c0.028,0.145,0.242,0.521,0.521,0.33c0.196-0.139-0.019-0.365-0.253-0.299"/>
			<path fill="#FFFFFF" stroke="#FFFFFF" stroke-width="0.2844" stroke-miterlimit="10" d="M77.332,145.725
				c-0.015,0.056-0.007,0.17-0.018,0.246c0.239,0.057,0.661,0.04,0.413-0.201"/>
			<path fill="#FFFFFF" stroke="#FFFFFF" stroke-width="0.2844" stroke-miterlimit="10" d="M75.839,147.646
				c0.048,0.006,0.071-0.005,0.061-0.039c-0.29,0.192,0.232,0.572,0.58,0.325c0.321-0.23,0.049-0.736-0.158-0.389"/>
			<path fill="#FFFFFF" stroke="#FFFFFF" stroke-width="0.2844" stroke-miterlimit="10" d="M76.638,151.856
				c-0.098-0.08-0.211-0.191-0.371-0.19c-0.037,0.301,0.466,0.713,0.826,0.51c0.33-0.193,0.022-0.805-0.3-0.507"/>
			<path fill="#FFFFFF" stroke="#FFFFFF" stroke-width="0.2844" stroke-miterlimit="10" d="M74.824,153.025
				c-0.043-0.049-0.132-0.096-0.188-0.133c-0.24,0.177,0.102,0.498,0.418,0.47c0.437-0.037,0.379-0.517-0.072-0.524"/>
			<path fill="#FFFFFF" stroke="#FFFFFF" stroke-width="0.2844" stroke-miterlimit="10" d="M72.332,153.658
				c0.087,0.144,0.164,0.582,0.533,0.623c0.526,0.06,0.436-0.638-0.003-0.562"/>
			<path fill="#FFFFFF" stroke="#FFFFFF" stroke-width="0.2844" stroke-miterlimit="10" d="M72.731,156.047
				c-0.025,0.173,0.385,0.407,0.642,0.317c0.524-0.184-0.181-0.607-0.53-0.604c-0.021,0.029-0.029,0.058-0.021,0.092"/>
			<path fill="#FFFFFF" stroke="#FFFFFF" stroke-width="0.2844" stroke-miterlimit="10" d="M75.229,157.194
				c-0.497,0.242,1.038,0.77,0.532,0.06"/>
			<path fill="#FFFFFF" stroke="#FFFFFF" stroke-width="0.2844" stroke-miterlimit="10" d="M77.073,156.941
				c-0.146,0.312,0.422,0.385,0.465,0.054"/>
			<path fill="#FFFFFF" stroke="#FFFFFF" stroke-width="0.2844" stroke-miterlimit="10" d="M76.746,154.461
				c-0.003,0.076-0.069,0.242,0.013,0.324c0.139,0.131,0.342,0.168,0.426-0.018"/>
			<path fill="#FFFFFF" stroke="#FFFFFF" stroke-width="0.2844" stroke-miterlimit="10" d="M78.638,153.202
				c-0.294,0.198,0.418,0.907,0.457,0.152"/>
			<path fill="#FFFFFF" stroke="#FFFFFF" stroke-width="0.2844" stroke-miterlimit="10" d="M80.193,151.951
				c-0.076,0.178,0.099,0.485,0.312,0.238"/>
			<path fill="#FFFFFF" stroke="#FFFFFF" stroke-width="0.2812" stroke-miterlimit="10" d="M75.345,154.58
				c0.007,0.199-0.094,0.357-0.412,0.251c-0.076-0.305,0.338-0.387,0.463-0.094"/>
			<path fill="#FFFFFF" stroke="#FFFFFF" stroke-width="0.2844" stroke-miterlimit="10" d="M73.458,124.629
				c0.043,0.08,0.119,0.15,0.239,0.173c0.077-0.125,0.039-0.252-0.149-0.26c-0.023,0.027-0.03,0.061-0.023,0.093"/>
			<path fill="#FFFFFF" stroke="#FFFFFF" stroke-width="0.2844" stroke-miterlimit="10" d="M80.858,125.261
				c0.039,0.139,0.051,0.403,0.316,0.3c0.248-0.103,0.135-0.524-0.108-0.377"/>
			<path fill="#FFFFFF" stroke="#FFFFFF" stroke-width="0.2812" stroke-miterlimit="10" d="M73.306,151.702
				c0.022,0.22-0.291,0.347-0.413,0.113c-0.134-0.26,0.383-0.497,0.483-0.156"/>
			<path fill="#FFFFFF" stroke="#FFFFFF" stroke-width="0.2812" stroke-miterlimit="10" d="M74.69,148.756
				c-0.062,0.141-0.166,0.28-0.354,0.314c-0.117-0.187,0.023-0.665,0.289-0.321"/>
			<path fill="#FFFFFF" stroke="#FFFFFF" stroke-width="0.2812" stroke-miterlimit="10" d="M75.22,146.374
				c0.015,0.161-0.139,0.394-0.357,0.357c-0.027-0.122,0.002-0.246,0.095-0.337"/>
			<path fill="#FFFFFF" stroke="#FFFFFF" stroke-width="0.2812" stroke-miterlimit="10" d="M73.878,145.456
				c-0.025,0.095-0.018,0.15-0.141,0.185c-0.006-0.062-0.011-0.137,0.01-0.199"/>
			<path fill="#FFFFFF" stroke="#FFFFFF" stroke-width="0.2812" stroke-miterlimit="10" d="M75.894,141.784
				c0.04,1.357-1.866-0.728,0.172-0.206"/>
			<path fill="#FFFFFF" stroke="#FFFFFF" stroke-width="0.2812" stroke-miterlimit="10" d="M76.779,139.156
				c0.004,0.009-0.066,0.329-0.075,0.431c-0.702-0.128-0.366-0.852,0.271-0.864"/>
			<path fill="#FFFFFF" stroke="#FFFFFF" stroke-width="0.2812" stroke-miterlimit="10" d="M78.259,136.479
				c-0.138,0.069-0.177,0.169-0.426,0.048c-0.027-0.124,0.012-0.189,0.035-0.304c0.146-0.013,0.27,0.007,0.416,0.029"/>
		</g>
		<g>
			<path fill="#245977" stroke="#245977" stroke-width="0.2844" stroke-miterlimit="10" d="M75.233,113.639
				c0.193-0.148-0.173-0.499-0.501-0.365c-0.339,0.138,0.003,0.604,0.288,0.498"/>
			<path fill="#FFFFFF" stroke="#FFFFFF" stroke-width="0.2844" stroke-miterlimit="10" d="M76.413,116.041
				c-0.004-0.035-0.084-0.116-0.058-0.199c-0.513-0.191-0.532,0.449-0.048,0.486c0.021-0.027,0.03-0.059,0.02-0.09"/>
			<path fill="#FFFFFF" stroke="#FFFFFF" stroke-width="0.2844" stroke-miterlimit="10" d="M77.78,119.932
				c0.04-0.508-0.856,0.222-0.092,0.187c0.018-0.046,0.025-0.091,0.023-0.142"/>
			<path fill="#FFFFFF" stroke="#FFFFFF" stroke-width="0.2844" stroke-miterlimit="10" d="M74.119,118.918
				c0.176-0.123-0.118-0.498-0.315-0.237c-0.16,0.21,0.223,0.491,0.441,0.352"/>
			<path fill="#FFFFFF" stroke="#FFFFFF" stroke-width="0.2844" stroke-miterlimit="10" d="M74.517,121.038
				c0.012-0.143,0.041-0.567-0.41-0.436c-0.422,0.126-0.01,0.65,0.275,0.474"/>
			<path fill="#FFFFFF" stroke="#FFFFFF" stroke-width="0.2844" stroke-miterlimit="10" d="M74.06,123.025
				c0.081-0.117,0.127-0.602-0.359-0.493c-0.384,0.085-0.086,0.501,0.289,0.486"/>
			<path fill="#245977" stroke="#245977" stroke-width="0.2844" stroke-miterlimit="10" d="M82.503,112.11
				c-0.078-0.239-0.422-0.521-0.607-0.164c-0.083,0.162,0.043,0.345,0.307,0.38c0.266,0.033,0.317-0.075,0.438-0.253"/>
			<path fill="#FFFFFF" stroke="#FFFFFF" stroke-width="0.2844" stroke-miterlimit="10" d="M75.294,124.111
				c-0.104-0.08,0.149,0.045,0.184,0.063c0.061-0.12,0.078-0.421-0.219-0.378c-0.275,0.043-0.199,0.403,0.094,0.422"/>
			<path fill="#FFFFFF" stroke="#FFFFFF" stroke-width="0.2844" stroke-miterlimit="10" d="M77.865,125.325
				c0.001-0.132-0.103-0.312-0.367-0.282c-0.056,0.175,0.153,0.863,0.408,0.539"/>
			<path fill="#FFFFFF" stroke="#FFFFFF" stroke-width="0.2844" stroke-miterlimit="10" d="M78.741,128.767
				c-0.035-0.185-0.285-0.48-0.502-0.27c-0.166,0.161,0.146,0.443,0.285,0.397"/>
			<path fill="#FFFFFF" stroke="#FFFFFF" stroke-width="0.2844" stroke-miterlimit="10" d="M76.616,129.881
				c0.04,0.021,0.077,0.038,0.116,0.053c0.037-0.08,0.048-0.2,0.033-0.287c-0.28-0.094-0.524,0.017-0.485,0.248"/>
			<path fill="#FFFFFF" stroke="#FFFFFF" stroke-width="0.2844" stroke-miterlimit="10" d="M75.616,131.203
				c0.041,0.015,0.084,0.014,0.123,0.006c0.118-0.219-0.117-0.296-0.294-0.174c-0.18,0.12-0.159,0.417,0.067,0.517"/>
			<path fill="#FFFFFF" stroke="#FFFFFF" stroke-width="0.2844" stroke-miterlimit="10" d="M74.116,133.496
				c0.024-0.098-0.064-0.318-0.295-0.274c-0.244,0.048-0.225,0.495-0.139,0.589"/>
			<path fill="#FFFFFF" stroke="#FFFFFF" stroke-width="0.2844" stroke-miterlimit="10" d="M73.379,135.559
				c0.018-0.086,0.015-0.151-0.099-0.208c-0.203,0.195-0.268,0.37-0.277,0.63"/>
			<path fill="#FFFFFF" stroke="#FFFFFF" stroke-width="0.2844" stroke-miterlimit="10" d="M75.479,137.439
				c0.017-0.059-0.042-0.119,0.012-0.192c-0.417-0.145-0.722,0.604-0.247,0.577"/>
			<path fill="#FFFFFF" stroke="#FFFFFF" stroke-width="0.2844" stroke-miterlimit="10" d="M76.638,127.594
				c0.289-0.062,0.395-0.752-0.077-0.621c-0.3,0.087-0.417,0.715,0.069,0.674"/>
			<path fill="#FFFFFF" stroke="#FFFFFF" stroke-width="0.2844" stroke-miterlimit="10" d="M77.276,122.424
				c0.025,0.099,0.023,0.164,0.17,0.162c0.042-0.153,0.127-0.469-0.211-0.477c-0.328-0.001-0.249,0.513-0.268,0.692"/>
			<path fill="#FFFFFF" stroke="#FFFFFF" stroke-width="0.2844" stroke-miterlimit="10" d="M75.382,123.208
				c-0.059-0.031,0.126,0.046,0.201-0.08c0.047-0.084,0.064-0.26-0.021-0.326c-0.366-0.279-0.447,0.257-0.439,0.421
				c0.04,0.017,0.08,0.024,0.123,0.02"/>
			<path fill="#FFFFFF" stroke="#FFFFFF" stroke-width="0.2844" stroke-miterlimit="10" d="M75.979,121.23
				c-0.111-0.059,0.084-0.001,0.122,0.007c0.078-0.264,0.002-0.469-0.408-0.433c-0.049,0.115-0.039,0.236,0.037,0.349
				c0.049,0.01,0.092-0.003,0.123-0.034"/>
			<path fill="#FFFFFF" stroke="#FFFFFF" stroke-width="0.2844" stroke-miterlimit="10" d="M75.513,119.104
				c-0.03-0.144-0.25-0.518-0.525-0.32c-0.194,0.14,0.026,0.362,0.257,0.294"/>
			<path fill="#FFFFFF" stroke="#FFFFFF" stroke-width="0.2844" stroke-miterlimit="10" d="M76.685,118.101
				c0.014-0.056,0.003-0.171,0.014-0.245c-0.24-0.054-0.662-0.029-0.412,0.207"/>
			<path fill="#FFFFFF" stroke="#FFFFFF" stroke-width="0.2844" stroke-miterlimit="10" d="M78.146,116.156
				c-0.048-0.005-0.07,0.006-0.06,0.04c0.288-0.195-0.239-0.569-0.585-0.316c-0.316,0.235-0.037,0.737,0.166,0.385"/>
			<path fill="#245977" stroke="#245977" stroke-width="0.2844" stroke-miterlimit="10" d="M77.28,111.959
				c0.1,0.077,0.215,0.188,0.375,0.184c0.032-0.301-0.478-0.705-0.836-0.495c-0.326,0.198-0.009,0.804,0.309,0.501"/>
			<path fill="#245977" stroke="#245977" stroke-width="0.2844" stroke-miterlimit="10" d="M73.724,111.92
				c0.073-0.179-0.106-0.484-0.314-0.233"/>
			<path fill="#FFFFFF" stroke="#FFFFFF" stroke-width="0.2844" stroke-miterlimit="10" d="M80.894,139.132
				c-0.045-0.08-0.121-0.147-0.242-0.168c-0.076,0.125-0.035,0.251,0.154,0.257c0.021-0.027,0.029-0.062,0.021-0.095"/>
			<path fill="#FFFFFF" stroke="#FFFFFF" stroke-width="0.2844" stroke-miterlimit="10" d="M73.484,138.618
				c-0.042-0.139-0.06-0.403-0.323-0.293c-0.244,0.104-0.125,0.524,0.115,0.372"/>
			<path fill="#245977" stroke="#245977" stroke-width="0.2812" stroke-miterlimit="10" d="M80.614,112.061
				c-0.025-0.221,0.286-0.352,0.412-0.12c0.138,0.258-0.373,0.502-0.479,0.164"/>
			<path fill="#FFFFFF" stroke="#FFFFFF" stroke-width="0.2812" stroke-miterlimit="10" d="M79.278,115.027
				c0.059-0.141,0.159-0.282,0.346-0.319c0.122,0.185-0.012,0.665-0.281,0.326"/>
			<path fill="#FFFFFF" stroke="#FFFFFF" stroke-width="0.2812" stroke-miterlimit="10" d="M78.786,117.417
				c-0.019-0.16,0.131-0.396,0.354-0.362c0.026,0.121,0,0.246-0.092,0.339"/>
			<path fill="#FFFFFF" stroke="#FFFFFF" stroke-width="0.2812" stroke-miterlimit="10" d="M80.141,118.313
				c0.023-0.094,0.016-0.149,0.139-0.188c0.007,0.064,0.013,0.139-0.009,0.201"/>
			<path fill="#FFFFFF" stroke="#FFFFFF" stroke-width="0.2812" stroke-miterlimit="10" d="M78.185,122.019
				c-0.062-1.357,1.877,0.696-0.168,0.21"/>
			<path fill="#FFFFFF" stroke="#FFFFFF" stroke-width="0.2812" stroke-miterlimit="10" d="M77.341,124.66
				c-0.004-0.009,0.062-0.33,0.066-0.434c0.706,0.118,0.382,0.846-0.258,0.87"/>
			<path fill="#FFFFFF" stroke="#FFFFFF" stroke-width="0.2812" stroke-miterlimit="10" d="M75.904,127.359
				c0.136-0.072,0.174-0.171,0.425-0.055c0.03,0.124-0.008,0.189-0.03,0.305c-0.146,0.014-0.269-0.003-0.417-0.023"/>
		</g>
	</g>
	<g>
		<path fill="#FFFFFF" d="M77.142,106.565c-0.01,0.416-0.577,0.596-0.707,0.906c0.22,0.095,0.562-0.07,0.775-0.15
			c0.224-0.093,0.438-0.26,0.659-0.331c-0.184,0.245-0.341,0.534-0.525,0.771c-0.116,0.157-0.372,0.262-0.426,0.452
			c0.284-0.034,0.509-0.219,0.743-0.397c0.155-0.12,0.652-0.511,0.828-0.28c-0.34,0.185-0.758,0.444-0.992,0.84
			c0.258-0.229,0.736,0.1,1.013,0.126c0.128,0.205-0.182,1.127-0.222,1.373c-0.136,0.795-0.217,1.601-0.352,2.397
			c-0.181,1.085-0.424,2.161-0.566,3.256c-0.212,1.623-0.15,3.314-0.305,4.949c-0.053,0.556-0.065,1.121-0.069,1.687
			c0.101,0.014,0.204,0.039,0.305,0.092c0.313,0.16,0.657,0.478,1.019,0.773c0.301,0.028,0.601,0.058,0.902,0.086
			c0.002-0.034,0.002-0.067,0.006-0.1c0.042-0.453,0.086-0.896,0.122-1.343c0.138-1.635,0.292-3.239,0.241-4.902
			c-0.043-1.516,0.135-3.015,0.096-4.526c-0.018-0.71,0.021-1.384-0.006-2.084c-0.013-0.273-0.048-0.529-0.036-0.787
			c0.006-0.25,0.076-0.551,0.009-0.809c0.272-0.128,0.494-0.4,0.748-0.591c0.137-0.101,0.621-0.349,0.525-0.621
			c-0.496-0.067-0.945,0.121-1.433,0.161c0.048-0.252,0.353-0.633,0.479-0.873c0.157-0.289,0.413-0.613,0.416-1.004
			c-0.304-0.107-0.75,0.287-1.054,0.344c-0.024-0.519,0.53-0.879,0.56-1.348c-0.154,0.018-0.353,0.091-0.496,0.17
			c-0.199,0.111-0.373,0.447-0.604,0.443c-0.028-0.199,0.125-0.622,0.162-0.852c0.05-0.317,0.074-0.635,0.063-0.959
			c-0.343,0.022-0.609,0.495-0.959,0.569c-0.037-0.251-0.377-0.433-0.52-0.581c-0.25-0.256-0.494-0.548-0.722-0.834
			c-0.47-0.582-0.904-1.198-1.351-1.797c-0.158-0.214-0.32-0.424-0.482-0.635c-0.059,0.064-0.116,0.131-0.174,0.194
			c-0.361,0.472-0.734,0.935-1.097,1.403c0.046,0.057,0.093,0.113,0.14,0.169c1.018,1.16,2.119,2.257,3.065,3.532
			c-0.266,0.169-0.592,0.185-0.854,0.361c0.113,0.07,0.473,0.019,0.644,0.045c0.22,0.03,0.679,0.127,0.824,0.373
			c-0.177,0.113-0.328,0.092-0.522,0.092c-0.176-0.003-0.309,0.065-0.476,0.095c-0.112,0.021-0.204-0.041-0.309,0.053
			C76.286,106.65,76.983,106.579,77.142,106.565z"/>
		<g>
			<path fill="#FD1813" d="M75.304,101.304c0.005-0.225,0.014-0.462,0.055-0.685c-0.119-0.158-0.24-0.313-0.361-0.471
				c-0.061,0.067-0.123,0.138-0.184,0.204c-0.308,0.401-0.622,0.796-0.934,1.194c0.027,0.157,0.053,0.314,0.084,0.471
				c0.488,0.555,0.993,1.091,1.488,1.643c-0.006-0.054-0.014-0.113-0.021-0.171C75.351,102.766,75.292,102.031,75.304,101.304z"/>
			<path fill="#FD1813" d="M76.778,105.501c-0.038,0.106-0.072,0.217-0.105,0.328c-0.18-0.016-0.498,0.025-0.607-0.04
				C76.285,105.646,76.546,105.608,76.778,105.501z"/>
			<path fill="#FD1813" d="M78.67,115.367c-0.329,0.232-0.628,0.536-0.901,0.873c-0.184,0.224-0.357,0.467-0.527,0.714
				c0.027-0.487,0.066-0.97,0.128-1.452c0.046-0.362,0.105-0.721,0.169-1.08c0.063-0.091,0.125-0.179,0.191-0.263
				c0.291-0.389,0.614-0.741,0.979-1.006c0.316-0.234,0.67-0.374,0.98-0.623c0.006,0.727-0.032,1.453-0.064,2.178
				C79.312,114.938,78.983,115.137,78.67,115.367z"/>
			<path fill="#FD1813" d="M76.992,122.164c0.102,0.013,0.206,0.038,0.309,0.092c0.011,0.005,0.022,0.015,0.034,0.021
				c0.738-0.944,1.488-1.872,2.191-2.867c0.045-0.686,0.075-1.377,0.074-2.073c-0.851,0.709-1.732,1.406-2.475,2.303
				c-0.017,0.272-0.037,0.542-0.061,0.81C77.011,121.014,76.996,121.588,76.992,122.164z"/>
			<path fill="#FD1813" d="M79.688,110.662c-0.138,0.062-0.271,0.137-0.4,0.227c-0.18,0.119-0.363,0.232-0.534,0.367
				c-0.302,0.236-0.57,0.538-0.802,0.886c0.104-0.631,0.178-1.271,0.273-1.901c0.188-0.104,0.376-0.19,0.574-0.255
				c0.23-0.074,0.473-0.124,0.718-0.112c0.041,0,0.095-0.002,0.144-0.003c0.01,0.088,0.014,0.171,0.018,0.261
				C79.687,110.307,79.688,110.484,79.688,110.662z"/>
			<path fill="#FD1813" d="M80.387,105.605c0.001,0.395-0.256,0.715-0.413,1.007c-0.057,0.106-0.148,0.241-0.239,0.383
				c-0.06-0.009-0.116-0.016-0.167-0.014c-0.291,0.014-0.581,0.074-0.861,0.166c-0.598,0.191-1.166,0.523-1.665,0.997
				c-0.007,0.003-0.007,0.011-0.006,0.017c-0.038,0.01-0.079,0.02-0.118,0.025c0.053-0.189,0.309-0.297,0.426-0.452
				c0.186-0.239,0.343-0.529,0.526-0.773c-0.199,0.063-0.392,0.201-0.591,0.293c0.223-0.455,0.489-0.876,0.777-1.258
				c0.231-0.305,0.479-0.584,0.736-0.85c-0.001,0.027,0,0.051,0.003,0.073c0.228,0,0.404-0.333,0.603-0.443
				c0.145-0.082,0.344-0.151,0.496-0.173c-0.028,0.469-0.582,0.834-0.559,1.348C79.64,105.894,80.084,105.502,80.387,105.605z"/>
			<path fill="#FD1813" d="M76.845,105.331c-0.096-0.13-0.195-0.259-0.293-0.382c-0.08-0.594-0.136-1.189-0.135-1.782
				c0.002-0.334,0.021-0.687,0.076-1.02c0.107,0.139,0.217,0.278,0.328,0.416c0.228,0.287,0.47,0.574,0.718,0.829
				c0.062,0.065,0.158,0.137,0.25,0.211C77.448,104.15,77.097,104.708,76.845,105.331z"/>
		</g>
	</g>
</g>
</svg>
