<?xml version="1.0" encoding="utf-8"?>
<!-- Generator: Adobe Illustrator 16.0.4, SVG Export Plug-In . SVG Version: 6.00 Build 0)  -->
<!DOCTYPE svg PUBLIC "-//W3C//DTD SVG 1.1//EN" "http://www.w3.org/Graphics/SVG/1.1/DTD/svg11.dtd">
<svg version="1.1" id="Ebene_1" xmlns="http://www.w3.org/2000/svg" xmlns:xlink="http://www.w3.org/1999/xlink" x="0px" y="0px"
	 width="585.576px" height="425.2px" viewBox="0 0 585.576 425.2" enable-background="new 0 0 585.576 425.2" xml:space="preserve">
<path fill="#245977" d="M348.01,240.013c0.353-1.547,0.559-3.094,1.277-4.555c0.458-0.93,0.93-1.854,1.377-2.791
	c0.459-0.965,1.305-1.535,1.914-2.372c0.682-0.938,1.499-1.788,2.218-2.709c0.255-0.327,0.56-0.638,0.85-0.935
	c0.527-0.541,0.929-1.163,1.406-1.739c0.692-0.833,1.383-1.645,2.056-2.481c0.875-1.088,1.646-2.281,2.678-3.219
	c0.711-0.646,1.339-1.357,2.064-1.998c0.865-0.763,1.913-1.457,2.538-2.436c0.548-0.857-0.315-2.164-0.652-3.012
	c-0.544-1.369-1.155-2.593-2.311-3.55c-3.188-2.64-7.164-3.39-11.216-3.237c-0.96,0.035-1.521,0.306-2.22,0.914
	c-1.071,0.926-1.483,1.91-1.86,3.215c-0.193,0.664-0.529,1.319-0.904,1.896c-0.485,0.731-0.856,1.534-1.4,2.228
	c-1.339,1.711-2.515,4.096-4.12,5.581c-2.001,1.854-3.162,0.562-5.74,0.263c-2.066-0.238-4.345,0.071-6.163,0.635
	c-5.861,1.812-7.985,5.892-6.888,11.873c0.152,0.833,0.351,1.713,0.348,2.562c-0.002,0.526-0.19,0.959-0.363,1.445
	c-0.281,0.789-0.427,1.621-0.698,2.414c-0.286,0.836-0.728,1.619-0.902,2.491c-0.175,0.87-0.769,1.744-1.679,1.892
	c-0.42,0.069-0.854,0.181-1.284,0.205c-0.213,0.012-0.394-0.096-0.56-0.093c-0.276,0.005-0.266,0.164-0.387,0.413
	c-0.661,1.36,1.021,2.477,2.076,2.996c0.315,0.156,0.628,0.333,0.95,0.473c0.389,0.17,0.583,0.039,0.965,0.022
	c0.301-0.014,0.629,0.12,0.92,0.069c0.337-0.06,0.602-0.196,0.951-0.229c0.703-0.062,1.039,0.262,1.424,0.796
	c0.148,0.208,0.43,0.528,0.526,0.747c0.097,0.217-0.004,0.291,0.205,0.472c0.177,0.151,0.487,0.212,0.71,0.191
	c0.292-0.026,0.534-0.278,0.814-0.061c0.189,0.147,0.201,0.485,0.292,0.7c0.233,0.553,0.799,1.252,1.456,1.369
	c0.405,0.072,0.403-0.227,0.642-0.439c0.194-0.174,0.631-0.438,0.878-0.559c0.19-0.094,0.495-0.203,0.705-0.24
	c0.498-0.09,1.07,0.305,1.602,0.319c0.658,0.021,1.337,0.138,1.945,0.394c0.568,0.238,0.967,0.533,1.593,0.592
	c0.529,0.049,1.029,0.203,1.56,0.23c0.871,0.045,2.04,0.064,2.868-0.211c1.491-0.494,2.595-1.571,3.62-2.729
	c0.832-0.94,1.562-1.771,2.119-2.906c0.284-0.579,0.566-1.159,0.859-1.735c0.325-0.641,0.452-1.374,0.654-2.051
	C347.833,240.755,347.926,240.383,348.01,240.013z"/>
<path d="M324.883,215.55c-0.836-0.121-2.265-0.266-3.044,0.183c-0.519,0.301,0.233,0.755,0.507,1.031
	c0.601,0.606,0.082,1.265-0.62,1.386c-0.394,0.071-0.786,0.037-1.179,0.091c-0.612,0.087-1.161,0.198-1.748,0.426
	c-0.578,0.225-2.132,0.673-1.854,1.56c0.271,0.854,1.492,0.817,2.062,1.354c0.812,0.766,0.519,1.75-0.065,2.582
	c-0.728,1.027-3.781,4.639-1.463,5.416c0.56,0.186,1.295,0.074,1.622,0.688c0.416,0.778,0.475,1.691,0.97,2.457
	c0.481,0.739,1.374,0.578,1.81-0.163c0.313-0.531,0.306-1.288,0.39-1.882c0.146-1.018,0.325-1.984,0.636-2.969
	c0.215-0.689,0.411-1.443,0.733-2.092c0.286-0.577,0.755-1.078,1.179-1.551c1.377-1.539,3.947-2.974,6.016-2.152
	c0.855,0.34,1.392,0.834,2.088,1.41c1.129,0.938,1.825,2.189,2.332,3.551c0.396,1.055,0.609,2.176,1.037,3.215
	c0.203,0.492,0.536,1.604,1.156,0.918c0.161-0.178,0.242-0.436,0.396-0.619c0.13-0.152,0.542-0.357,0.54-0.553
	c0.003-0.192-0.337-0.549-0.438-0.714c-0.261-0.411-0.431-0.851-0.612-1.298c-0.552-1.355-1.377-3.023-0.165-4.255
	c0.475-0.481,0.976-0.777,1.595-1.027c0.59-0.238,1.11-0.374,1.527-0.88c0.354-0.43,0.725-0.902,0.879-1.445
	c0.118-0.416,0.185-1.199-0.106-1.542c-0.268-0.313-0.699-0.288-1.14-0.351c-0.779-0.111-1.546-0.036-2.33-0.055
	c-0.682-0.014-1.356-0.075-2.045-0.028c-0.667,0.046-1.235,0.034-1.887-0.083c-0.607-0.11-1.272-0.162-1.862-0.33
	c-0.582-0.166-1.189-0.387-1.763-0.603c-0.213-0.079-0.42-0.218-0.628-0.315c-0.367-0.175-0.755-0.205-1.137-0.32
	c-0.279-0.084-0.492-0.259-0.752-0.383C326.729,215.833,325.74,215.673,324.883,215.55z"/>
<path d="M324.406,234.968c-0.276-0.645-0.416-1.627-0.378-2.322c0.021-0.428,0.12-0.816,0.123-1.244
	c0.005-0.412,0.081-0.695,0.235-1.08c0.79-1.995,2.248-4.038,4.235-4.979c0.387-0.18,0.94-0.5,1.384-0.492
	c0.475,0.007,0.871,0.366,1.188,0.676c0.564,0.545,1.048,1.16,1.452,1.836c0.401,0.666,0.799,1.229,1.003,1.995
	c0.153,0.579,0.356,1.161,0.442,1.751c-0.316-0.264-0.435-0.844-0.678-1.18c-0.358-0.492-0.854-0.896-1.303-1.288
	c-0.453-0.396-1.101-0.845-1.71-0.96c-0.91-0.172-2.002,0.584-2.646,1.144c-0.555,0.483-1.068,1.004-1.345,1.694
	c-0.227,0.57-0.42,1.125-0.561,1.723c-0.161,0.686-0.277,1.171-0.668,1.785c-0.185,0.285-0.496,1.074-0.897,1.048"/>
<path d="M323.611,224.97c-0.133-0.039,1.262-1.656,1.673-2.029c0.718-0.648,1.492-1.523,2.432-1.793
	c2.057-0.588,5.133,0.483,6.417,2.131c1.591,2.039,2.007,4.557,2.655,6.994c0.228,0.859,2.325,6.848,3.936,4.962
	c0.635-0.741,0.017-2.257-0.28-2.998c-0.488-1.224-1.335-2.301-1.938-3.485c-0.649-1.267-1.319-3.007-1.052-4.447
	c0.202-1.09,0.861-1.424,1.696-2.042c0.737-0.55,1.8-0.907,2.389-1.647c0.671-0.846,0.53-1.84,0.72-2.812
	c0.067-0.339,0.153-0.727,0.358-0.998c0.198-0.26,0.285-0.568,0.458-0.841c0.123-0.188,0.276-0.367,0.396-0.546
	c0.307-0.471,0.635-0.93,0.952-1.381c0.136-0.192,0.819-0.81,0.459-1.034c-0.16-0.101-0.474,0.052-0.646,0.103
	c-0.469,0.143-0.944,0.306-1.408,0.469c-0.882,0.316-1.797,0.598-2.716,0.782c-0.469,0.095-0.926,0.245-1.396,0.344
	c-0.138,0.028-0.294,0.075-0.433,0.032c-0.109-0.033-0.189-0.104-0.306-0.127c-0.318-0.066-0.664-0.077-0.988-0.1
	c-2.189-0.166-4.396,0.049-6.516,0.629c-0.792,0.22-2.797,1.277-3.485,0.801"/>
<path fill="#FF0000" d="M350.364,201.544c1.897-3.609,3.482-7.021,4.854-10.929c2.247-6.413,6.585-13.406,11.528-18.128
	c5.765-5.51,15.172-9.997,22.752-12.26c11.395-3.4,22.475-5.902,33.755-1.146c2.328,0.979,4.667,1.942,6.994,2.929
	c2.353,0.998,4.653,2.225,7.035,3.133c0.551,0.209,0.735,0.089,0.901,0.685c0.136,0.491-0.131,1.224-0.256,1.695
	c-0.278,1.06-0.717,2.059-1.053,3.097c-1.158,3.592-2.26,7.174-3.678,10.688c-1.655,4.108-3.612,8.162-5.009,12.389
	c-0.729,2.207-1.493,4.393-2.258,6.586c-0.195,0.557-0.496,1.103-0.78,1.611c-0.513-0.213-0.847-0.63-1.396-0.81
	c-0.662-0.219-1.433-0.372-2.128-0.442c-3.357-0.342-6.213-1.364-9.575-2.014c-5.981-1.155-12.728-3.113-18.77-2.675
	c4.608,1.083,9.206,0.857,13.783,2.413c0.847,0.287,2.459,0.361,3.093,1.033c0.997,1.051,0.286,2.986-0.168,4.096
	c-1.104,2.703-2.185,5.629-4.276,7.732c-1.334,1.344-2.629,2.62-4.181,3.654c-0.619,0.412-1.291,0.894-1.884,1.322
	c-0.477,0.346-0.903,0.979-1.509,1.119c-0.574,0.129-1.296-0.152-1.874-0.246c-1.552-0.254-3.095-0.572-4.662-0.71
	c-5.293-0.47-10.599,0.278-15.766,1.383c-1.616,0.345-3.226,0.728-4.833,1.12c-0.745,0.184-1.505,0.436-2.268,0.528
	c-0.59,0.075-1.173,0.022-1.763,0.032c-0.299,0.005-0.697,0.062-0.992,0.01c-0.386-0.066-0.371-0.285-0.49-0.611
	c-0.418-1.142-0.747-2.334-1.204-3.477c-0.476-1.195-1.083-2.076-1.887-3.059c-2.519-3.076-5.774-5.641-9.868-6.074
	c-0.984-0.105-2.018,0.018-2.963-0.109c-0.264-0.035-0.678-0.062-0.885-0.274c-0.345-0.362,0.385-1.47,0.547-1.849
	C349.583,203.163,349.947,202.341,350.364,201.544z"/>
<path fill="#FFFFFF" d="M393.538,209.955c1.502-3.484,3.725-6.912,6.761-9.249c1.243-0.955,2.691-1.775,4.269-1.992
	c1.389-0.193,2.73,0.139,3.878,0.908c-1.49,0.525-2.84,1.452-3.998,2.51c-2.837,2.583-4.937,6.054-6.152,9.68
	c-0.571,1.711-0.986,3.567-1.047,5.418c-1.829-0.267-3.729-0.672-5.46-0.843C391.979,214.144,392.706,211.89,393.538,209.955z"/>
<path fill="#FFFFFF" d="M376.746,191.471c-1.716-2.012-3.606-3.883-5.667-5.537c-3.139-2.526-6.724-4.681-10.621-5.766
	c0.598-0.911,1.225-1.8,1.872-2.66c0.23,0.029,0.458,0.06,0.684,0.103c5.008,0.913,9.488,4.064,13.116,7.501
	c1.757,1.663,3.596,3.504,4.84,5.595c1.477,2.479,2.186,5.307,3.581,7.818c0.031,0.056,0.085,0.061,0.13,0.043
	c-0.092,0.081-0.184,0.16-0.271,0.244c-0.632,0.595-1.213,1.242-1.752,1.924c-0.523-0.346-0.867-0.987-1.161-1.52
	c-0.419-0.752-0.791-1.531-1.164-2.31c-0.426-0.886-0.825-1.843-1.41-2.636C378.22,193.316,377.514,192.371,376.746,191.471z"/>
<path fill="#FFFFFF" d="M408.642,161.908c-0.476,6.368-1.741,12.698-3.771,18.753c-0.986,2.94-2.04,5.878-3.164,8.768
	c-0.591,1.51-1.217,3.007-1.961,4.447c-0.369,0.713-0.756,1.414-1.183,2.093c-0.021,0.037-0.049,0.075-0.072,0.112
	c-0.791-0.082-1.578-0.144-2.358-0.172c0.058-0.078,0.114-0.158,0.161-0.24c0.344-0.617,0.535-1.394,0.778-2.055
	c1.14-3.108,2.197-6.287,2.901-9.525c0.728-3.339,1.383-6.704,1.912-10.078c0.498-3.192,0.83-6.361,0.731-9.596
	c-0.074-2.444-0.251-4.894-0.156-7.338c2.126-0.336,4.246-0.557,6.369-0.61C408.84,158.282,408.78,160.097,408.642,161.908z"/>
<path fill="#FFFFFF" d="M436.175,167.362c-0.327,0.285-0.602,0.59-0.883,0.965c-1.164,1.553-2.186,3.182-3,4.947
	c-0.992,2.156-1.881,4.357-2.713,6.582c-1.183,3.158-2.337,6.34-3.344,9.56c-0.564,1.806-1.113,3.62-1.648,5.438
	c-0.395,1.345-0.846,2.772-0.738,4.179c0.084,1.107,0.646,1.895,1.009,2.854c-0.295-0.064-0.509-0.251-0.769-0.389
	c-0.409-0.209-0.879-0.257-1.283-0.472c-0.428-0.23-0.674-0.332-1.18-0.384c-0.948-0.097-1.857-0.25-2.75-0.432
	c0.117-0.266,0.236-0.527,0.354-0.783c0.552-1.209,1.16-2.389,1.737-3.587c1.291-2.683,2.264-5.536,3.28-8.333
	c1.172-3.231,2.305-6.481,3.518-9.701c0.571-1.518,1.147-3.031,1.826-4.503c0.61-1.325,1.264-2.632,1.889-3.952
	c0.903-1.9,1.64-3.82,2.312-5.809c0.911,0.574,2.051,0.871,3.01,1.375c0.512,0.27,1.271,0.575,1.591,1.023
	c-0.514,0.393-1.176,0.645-1.716,1.027C436.493,167.099,436.328,167.229,436.175,167.362z"/>
<path fill="#FFFFFF" d="M412.298,190.327c1.217-2.42,2.589-4.76,3.675-7.244c1.379-3.157,2.666-6.354,3.968-9.545
	c1.177-2.886,2.372-5.729,3.798-8.504c0.797-1.561,1.622-3.158,2.192-4.83c0.993,0.414,1.996,0.831,3,1.252
	c-0.907,1.877-1.968,3.684-2.992,5.5c-1.509,2.674-2.805,5.377-3.658,8.338c-0.87,3.013-1.413,6.125-2.413,9.1
	c-0.543,1.623-1.182,3.211-1.753,4.824c-0.564,1.595-0.958,3.206-1.271,4.869c-0.296,1.555-0.468,3.209-0.952,4.718
	c-0.069,0.221-0.15,0.436-0.235,0.651c-1.167-0.293-2.352-0.588-3.604-0.828c-0.794-0.154-1.602-0.322-2.42-0.495
	C409.903,195.382,411.069,192.77,412.298,190.327z"/>
<path fill="#FFFFFF" d="M358.657,193.45c3.057,1.043,5.78,2.992,8.146,5.157c2.651,2.425,4.976,5.228,6.882,8.272
	c1.733,2.77,3.221,5.809,3.882,9.03c0.098,0.473,0.177,0.954,0.23,1.442c-1.708,0.328-3.407,0.705-5.095,1.107
	c-0.142-0.908-0.395-1.805-0.681-2.64c-0.864-2.532-2.169-4.911-3.665-7.118c-1.648-2.44-3.553-4.725-5.694-6.744
	c-1.978-1.866-4.182-3.578-6.658-4.731c-0.955-0.445-1.973-0.816-3.018-1.034c0.488-1.085,0.949-2.186,1.393-3.318
	C355.801,192.747,357.267,192.976,358.657,193.45z"/>
<path fill="#FFFFFF" d="M356.591,205.142c2.81,1.383,5.312,3.432,7.321,5.828c1.872,2.227,3.508,4.92,3.944,7.848
	c0.04,0.271,0.066,0.539,0.08,0.807c0.013,0.321-3.077,0.629-3.392,0.652c-0.679,0.053-1.326-0.035-2.003,0.018
	c-0.547,0.044-1.096,0.082-1.643,0.123c-0.427,0.033-1.117,0.196-1.451-0.004c0.336-0.207,0.502-0.701,0.849-0.963
	c0.256-0.191,0.572-0.278,0.809-0.52c0.691-0.709,0.383-1.837,0.207-2.672c-0.315-1.496-0.545-3.155-1.282-4.512
	c-0.976-1.799-2.438-3.373-4.35-4.191c-1.823-0.777-3.691-0.945-5.658-0.684c-0.931,0.125-1.604,0.681-2.131,1.426
	c-0.178,0.25-0.377,0.533-0.461,0.825c-0.075,0.261,0.036,0.657-0.069,0.859c0.066-0.126-0.16-0.817-0.168-1.003
	c-0.011-0.293-0.024-0.646,0.063-0.926c0.196-0.635,0.604-1.285,0.876-1.895c0.196-0.438,0.381-0.854,0.604-1.26
	c0.338-0.607,0.419-0.994,1.166-1.129c0.59-0.109,1.213-0.055,1.81-0.021C353.413,203.837,355.072,204.396,356.591,205.142z"/>
<path d="M332.659,244.158c-0.11,0.426-0.271,0.831-0.47,1.233c-0.236,0.474-0.576,1.016-0.979,1.371
	c-0.438,0.385-1.026,0.619-1.548,0.868c-0.804,0.384-1.733,0.483-2.574,0.765c-0.553,0.186-1.218,0.334-1.799,0.045
	c-1.345-0.666,0.539-1.523,0.944-1.862c0.68-0.577,1.39-0.966,2.269-1.119c1.07-0.185,2.221-0.617,3.094-1.27
	c0.678-0.511,0.915-1.028,1.309-1.743c0.438,1.607-1.083,3.334-1.826,4.562c-0.519,0.855-0.97,1.84-1.527,2.671
	c-0.45,0.673-1.079,1.577-1.838,0.704c-0.624-0.715-0.372-1.406-0.226-2.184c-0.486-0.076-0.916,0.15-1.382,0.206
	c-0.309,0.036-1.152,0.001-0.565-0.53"/>
<path fill="#245977" d="M444.646,213.899c-0.471-1.071-0.934-2.165-1.464-3.214c-0.273-0.543-0.679-1.218-1.102-1.661
	c-0.48-0.503-0.947-0.891-1.403-1.439c-0.68-0.816-1.319-1.883-2.13-2.563c-1.119-0.944-2.495-1.575-3.763-2.286
	c-1.084-0.607-2.121-1.193-3.296-1.645c-1.059-0.404-2.01-1.045-3.044-1.51c-0.925-0.418-1.759-1.01-2.709-1.371
	c-0.534-0.203-1.573,0.098-1.67-0.592c-0.11-0.777,0.197-1.738,0.293-2.512c0.076-0.627,0.267-1.256,0.51-1.846
	c0.496-1.197,0.862-2.451,1.192-3.699c0.769-2.894,1.936-5.645,2.784-8.51c0.443-1.49,0.838-2.975,1.372-4.438
	c0.681-1.862,1.486-3.678,2.421-5.423c0.533-0.995,0.996-2.04,1.658-2.974c0.236-0.331,0.449-0.654,0.88-0.752
	c0.392-0.094,0.671,0.131,1.003,0.291c0.381,0.182,0.797,0.271,1.203,0.389c1.083,0.318,2.196,0.529,3.269,0.896
	c1.935,0.662,3.752,1.387,5.617,2.219c1.774,0.794,3.312,2.228,4.682,3.57c2.331,2.282,4.952,4.383,6.967,7.025
	c2.006,2.629,4.091,5.195,6.04,7.865c1.528,2.094,3.533,3.572,4.223,6.234c0.238,0.92-0.179,1.359-0.733,2.074
	c-1.275,1.65-2.761,3.109-4.314,4.488c-2.8,2.484-6.372,4.148-9.364,6.402c-2.05,1.547-3.74,2.833-6.138,3.793
	C446.864,213.017,445.434,213.987,444.646,213.899z"/>
<path d="M440.583,218.817c-2.326,8.029-8.809,16.153-8.155,24.826c0.366,4.873,4.533,22.447,11.39,21.93
	c1.767-0.133,5.539-2.142,7.417-2.738c2.521-0.801,5.412-1.631,7.8-2.849c11.533-5.884,16.659-20.436,19.753-32.142
	c0.796-3.002,1.032-6.07,1.206-9.129c0.067-1.199-0.062-2.359-0.374-3.539c-1.169-4.41-2.907-8.723-5.199-12.678
	c-2.619-4.526-5.782-8.641-9.055-12.693c-1.226-1.514-2.562-2.965-4.009-4.271c-0.578-0.517-1.118-1.34-1.743-1.749
	c-0.262,0.9-0.405,1.422-1.117,2.175c-0.761,0.814-1.574,1.568-2.298,2.421c-2.681,3.162-6.24,5.644-9.428,8.316
	c-2.278,1.912-4.644,3.793-6.828,5.836c-0.405,0.377-1.717,1.283-1.842,1.895c-0.062,0.312,0.3,0.938,0.412,1.25
	c0.211,0.595,0.524,1.162,0.729,1.767c1.041,3.073,2.36,7.054,1.61,10.337C440.774,218.124,440.684,218.47,440.583,218.817z"/>
<path fill="#FF0000" d="M461.578,187.124c-0.062-0.029-0.338-0.604-0.668-0.686c-0.126,0.462-0.571,0.66-0.909,0.938
	c-0.498,0.409-0.942,0.894-1.398,1.36c-0.778,0.79-1.716,1.41-2.472,2.112c0.107,0.28,0.16,0.571,0.365,0.813
	c1.75-1.063,4.1-2.24,4.984-4.28c-0.077,0.05-0.139,0.114-0.189,0.19"/>
<path fill="#FF0000" d="M455.011,193.612c-0.345-0.013-0.586-0.492-0.725-0.791c-1.021,1.508-2.596,2.83-3.817,4.211
	c0.336,0.086,0.449,0.518,0.604,0.814c0.712,0.062,2.178-1.332,2.71-1.816c0.525-0.479,2.475-2.133,0.812-2.281"/>
<path fill="#FF0000" d="M448.649,198.583c-0.345,0.071-0.706,0.543-0.981,0.823c-0.497,0.507-1.027,0.944-1.576,1.399
	c-0.873,0.725-2.042,1.128-2.868,1.829c0.409,0.056,0.605,0.53,0.686,0.892c1.099,0.014,2.533-1.254,3.336-1.943
	c0.765-0.656,1.459-1.275,2.341-1.697c0.066-0.396-0.474-1.221-0.809-1.408c-0.036,0.074-0.075,0.145-0.12,0.211"/>
<path fill="#FF0000" d="M439.35,207.095c-0.11-0.014,0.838-0.77,1.101-0.938c0.508-0.324,1.302-0.586,1.707-0.988
	c-0.402-0.099-0.229-0.644-0.574-0.789c-0.312-0.131-0.771,0.299-1.02,0.457c-0.617,0.391-1.281,0.643-1.937,0.941
	c-0.123,0.537,0.765,1.672,0.9,2.267"/>
<path fill="#FF0000" d="M438.458,206.626c-0.236-0.138-0.706-1.176-1.187-1.541c-0.669-0.51-1.659-1.104-2.449-1.369
	c-1.844-0.616-3.357,0.988-3.413,2.691c-0.051,1.6,1.943,2.766,3.392,2.742c1.377-0.023,2.868-0.75,3.782-1.791
	c-0.871,0.435-2.308,0.909-3.264,0.816c-1.218-0.119-2.912-0.861-2.407-2.412c0.453-1.396,2.492-1.096,3.493-0.561
	c0.771,0.416,2.219,1.422,2.322,2.352c-1.007-0.053-1.507,2.306-1.683,3.039c-0.235,0.992-0.423,2.09,0.825,2.504
	c1.207,0.402,1.808-0.971,1.891-1.967c0.095-1.186-0.021-2.334-0.655-3.254c0.469,0.781,0.191,4.729-1.309,3.804
	c-1.264-0.781,0.504-3.212,0.946-4.065c0.821,0.412,1.524,0.781,2.51,0.621c0.373-0.061,0.975-0.178,1.249-0.418
	c0.398-0.354,0.177-0.553,0.112-1.172c-1.454,0.746-2.77,1.162-4.483,1.289"/>
<path fill="#245977" d="M298.707,247.694c-0.584-0.299-1.168-0.619-1.711-0.988c-0.877-0.596-0.751-1.055-0.969-2.049
	c-0.088-0.381-0.375-0.697-0.615-1.006c-0.6-0.771-1.375-1.396-2.225-1.868c-1.707-0.948-3.755-1.341-5.691-1.099
	c-3.344,0.424-6.927,2.588-9.71,4.178c-3.27,1.869-7.055,4.307-9.291,7.462c-0.5,0.706-1.037,1.518-1.337,2.255
	c-0.347,0.854-0.327,1.657-0.584,2.615c-0.551,2.044-1.826,3.201-3.333,4.654c-0.785,0.75-1.831,1.28-2.816,1.744
	c-0.791,0.369-2.015,0.87-2.775,0.176c-0.778,0.623-1.226,1.312-1.004,2.336c0.45,2.085,1.156,4.207,2.243,6.051
	c0.775,1.315,1.562,2.627,2.725,3.633c0.733,0.637,1.564,1.445,2.493,1.776c0.987,0.349,4.496-1.985,5.526-2.444
	c2.53-1.114,5.061-2.482,7.555-3.711c2.447-1.209,4.613-2.275,7.079-3.377c2.463-1.103,4.809-1.666,7.486-2.137
	c1.102-0.194,2.25-0.25,3.287-0.579c1.841-0.585,3.168-1.696,4.438-3.05c0.408-0.438,0.783-0.917,0.779-1.549
	c-0.006-0.835-0.363-0.916-0.772-1.531c-0.522-0.787,0.606-1.734,0.151-2.576c-0.229-0.424-0.529-0.488-0.58-1.029
	c-0.049-0.512,0.068-0.783,0.494-1.047c1.322-0.814,2.703-1.336,4.211-1.653c0.575-0.122,1.162-0.246,1.686-0.526
	c0.229-0.123,0.434-0.121,0.62-0.321c0.235-0.253,0.467-0.51,0.682-0.78c0.281-0.344,0.49-0.719,0.671-1.121
	c0.136-0.303,0.32-0.658,0.348-0.991c0.013-0.154,0.013-0.322-0.111-0.425c-0.145-0.117-0.3-0.129-0.478-0.119
	c-0.396,0.02-0.785,0.021-1.176,0.076c-0.43,0.059-0.841,0.184-1.272,0.238c-0.385,0.046-0.773,0.111-1.159,0.137
	c-0.232,0.014-0.481,0.013-0.709-0.012c-0.312-0.031-0.69-0.061-0.974-0.186c-0.334-0.146-0.704-0.231-1.053-0.339
	C300.109,248.284,299.386,248.042,298.707,247.694z"/>
<path d="M291.468,245.497c0.295-0.119,0.612-0.164,0.905-0.273c0.248-0.092,0.521-0.138,0.79-0.143
	c0.223-0.006,0.543,0.074,0.688,0.262c0.129,0.171,0.017,0.372-0.115,0.498c-0.2,0.188-0.404,0.312-0.675,0.352
	c-0.29,0.041-0.589-0.025-0.88,0.004c-0.253,0.025-0.511,0.09-0.755,0.16c-0.32,0.086-0.591,0.262-0.842,0.464
	c-0.272,0.214-0.547,0.4-0.783,0.661c-0.303,0.332-0.554,0.725-0.79,1.104c-0.138,0.224-0.219,0.584-0.464,0.705
	c-0.245,0.122-0.525,0.185-0.797,0.204c-0.368,0.027-0.713,0.09-1.075-0.033c-0.271-0.09-0.508-0.238-0.784-0.32
	c-0.196-0.059-0.387-0.123-0.557-0.235c0.411,0.184,0.817,0.158,1.259,0.055c0.402-0.095,0.757-0.318,1.063-0.592
	c0.147-0.135,0.228-0.3,0.372-0.435c0.156-0.144,0.335-0.257,0.485-0.406c0.245-0.248,0.471-0.502,0.713-0.75
	c0.206-0.209,0.433-0.406,0.68-0.562c0.138-0.088,0.287-0.158,0.423-0.25c0.163-0.109,0.342-0.171,0.531-0.219
	C291.069,245.692,291.267,245.579,291.468,245.497z"/>
<path fill="#FFFFFF" d="M293.205,250.521c-0.171,0.056-0.345,0.098-0.515,0.126c-0.307,0.052-0.582,0.176-0.904,0.182
	c-0.307,0.006-0.612-0.06-0.893-0.186c-0.199-0.09-0.36-0.216-0.554-0.309c-0.111-0.05-0.201-0.082-0.279-0.168
	c-0.063-0.072-0.132-0.151-0.191-0.221c0.305-0.094,0.545-0.406,0.796-0.594c0.395-0.293,0.792-0.609,1.208-0.867
	c0.273-0.167,0.513-0.381,0.795-0.537c0.216-0.119,0.454-0.201,0.681-0.303c0.217-0.096,0.411-0.178,0.633-0.242
	c0.172-0.051,0.267-0.027,0.424,0.043c0.267,0.119,0.927,0.373,0.978,0.703c0.027,0.188-0.097,0.387-0.17,0.551
	c-0.191,0.426-0.387,0.836-0.746,1.14C294.116,250.139,293.664,250.376,293.205,250.521z"/>
<path d="M295.098,248.362c0.043,0.156,0.038,0.347-0.035,0.574c-0.166,0.504-0.525,0.721-1.041,0.805
	c-0.591,0.094-1.17-0.131-1.369-0.729c-0.21-0.631,0.032-1,0.639-1.18C293.922,247.647,294.92,247.733,295.098,248.362z"/>
<path d="M299.578,256.913c-0.361,0.041-0.708,0.44-1.004,0.641c-0.387,0.263-0.736,0.517-1.141,0.752
	c-0.629,0.362-1.444,0.456-2.02,0.836c0.248,0.416,1.15,0.447,1.592,0.426c0.607-0.023,1.157-0.069,1.773-0.006
	c0.273,0.029,0.48,0.104,0.659-0.18c0.181-0.291-0.038-0.409-0.141-0.652c-0.136-0.316-0.018-0.366,0.176-0.66
	c0.183-0.279,0.229-0.492,0.29-0.779c-0.082-0.225-0.266-0.377-0.428-0.547"/>
<path fill="#245977" d="M128.906,175.982c0.501-2.334,1.18-4.632,2.416-6.873c1.526-2.758,3.656-5.529,6.101-7.588
	c5.412-4.556,12.04-7.483,19.141-7.764c4.779-0.188,9.643,0.136,14.343,0.845c2.325,0.35,4.699,0.643,6.997,1.2
	c4.254,1.022,8.622,1.711,12.861,2.757c1.238,0.307,2.354,1.088,3.611,1.258c3.439,0.472,7.941-1.668,10.28-4.054
	c1.931-1.97,3.292-6.131,6.048-7.2c0.143,0.212,0.413,0.396,0.547,0.614c0.713-0.527,1.628-3.103,2.469-3.137
	c1.704-0.07,1.043,2.307,0.774,3.014c1.314-0.526,1.138-2.163,2.785-2.227c2.72,2.245-2.45,6.565-3.911,7.968
	c-2.918,2.8-3.505,4.953-3.446,8.842c0.02,1.351,0.32,3.453-0.219,4.635c-0.688,1.508-2.606,2.032-4.114,2.289
	c-1.725,0.293-3.824,0.689-5.376-0.302c-1.56-0.997-2.112-2.002-3.796-2.53c-1.997-0.633-4.151-1.733-6.324-2.32
	c-4.742-1.282-9.687-1.442-14.538-2.084c-2.951-0.393-5.991-1.377-8.927-1.609c-2.716-0.215-6.09,0.135-8.814,0.513
	c-2.808,0.385-5.631,2.18-7.734,4.054c-4.233,3.77-6.03,10.775-6.203,16.262c-0.185,5.849-0.624,11.783,0.501,17.57
	c1.322,6.781,3.272,13.596-0.665,19.734c-1.407,2.197-7.217,5.075-9.837,3.941c-3.067-1.322-2.592-7.363-3.207-10.018
	c-0.462-1.987-1.536-3.406-1.752-5.501c-0.279-2.726-0.123-5.485-0.453-8.208c-0.676-5.525-2.5-10.586-1.133-16.115
	C128,181.257,128.342,178.595,128.906,175.982z"/>
<path fill="#245977" d="M252.889,220.759c-0.936,4.82-1.674,9.709-2.842,14.479c-1.065,4.351-0.438,9.707,0.6,14.058
	c0.949,3.986,2.388,7.73,3.412,11.609c-1.442,0.61-3.837,0.25-5.438,0.285c-2.106,0.049-4.379,0.043-6.511-0.127
	c-3.924-0.315-5.124-0.99-4.966-4.927c0.107-2.696,0.553-5.55,1.321-8.143c1.255-4.243,2.294-8.764,3.287-13.209
	c1.917-8.577,2.76-16.898,4.729-25.589c0.668-2.949,2.152-5.221,2.957-8.131c1.048-3.791,1.972-7.619,2.689-11.486
	c1.165-6.291,1.843-12.422,3.791-18.52c0.935-2.934,1.466-6.568,2.625-9.359c-0.889-1.811-4.564-10.278-2.093-11.584
	c1.435,1.113,0.827,3.766,1.644,5.16c0.311-1.193,0.012-2.631,0.5-3.799c1.296,0.757,0.574,2.553,1.46,3.594
	c1.501-1.061-1.486-8.354,1.285-7.891c3.091,0.517,0.919,6.32,2.68,7.557c2.211-1.178,2.078-5.369,4.299-7.008
	c2.81,2.669-1.662,9.238-2.572,11.963c1.468,0.357,5.231-2.433,5.974,0.082c0.555,1.887-3.261,3.44-4.388,4.205
	c-1.799,1.215-2.634,3.039-3.23,5.252c-1.084,4.018-2.206,7.969-3.448,11.947c-1.346,4.307-2.43,8.798-3.38,13.121
	c-1.877,8.514-2.55,17.109-4.232,25.672C252.995,220.233,252.941,220.495,252.889,220.759z"/>
<path fill="#245977" d="M231.042,313.925c-3.3-4.836-3.269-11.536-1.715-17.309c1.002-3.727,4.817-7.885,5.359-11.346
	c0.872-5.582-4.148-1.164-7.371-0.517c-3.814,0.765-7.521-0.14-11.243-1.048c-6.255-1.53-12.633-3.656-18.515-6.307
	c-11.55-5.205-22.976-9.861-33.623-16.773c-5.194-3.369-9.968-7.285-14.884-10.986c-5.095-3.84-10.726-7.501-15.505-11.576
	c-4.345-3.709-10.207-7.824-13.299-12.691c-3.01-4.736-6.571-9.313-9.293-14.278c-3.657-6.663-4.955-13.149-6.114-20.638
	c-1.587-10.227-1.726-20.641-0.847-30.939c0.446-5.227,1.144-10.434,2.061-15.597c0.407-2.278,1.176-3.292,2.271-5.175
	c1.196-2.057,1.255-4.619,1.863-6.877c1.043-3.878,2.483-7.853,4.254-11.477c2.323-4.748,5.577-9.258,8.833-13.299
	c3.053-3.793,6.205-7.254,10.175-10.254c9.011-6.811,18.055-12.627,28.88-16.055c6.524-2.063,15.939-1.695,20.401-7.834
	c1.548-2.129,1.338-4.85,1.777-7.338c0.306-1.725,0.283-7.834,1.874-8.786c0.814-0.49,1.692-0.087,2.104,0.679
	c0.25-0.572,0.274-1.258,0.091-1.875c0.938-1.393,2.497-0.846,2.4,0.703c1.904-1.141,4.653-3.512,4.177,0.432
	c-0.3,2.472-2.097,4.268-2.871,6.518c-0.822,2.398-1.131,4.637-0.992,7.237c0.159,2.905,3.802,7.153,2.533,9.86
	c-0.467,0.997-1.978,2.016-3.01,2.08c-2.165,0.137-3.97-1.173-6.022-1.367c-1.864-0.176-4.03,0.674-5.8,1.167
	c-7.115,1.984-14.128,4.56-20.881,7.634c-5.975,2.719-11.672,5.795-16.435,10.519c-2.439,2.419-4.645,4.652-6.642,7.483
	c-2.278,3.227-4.07,6.538-6.053,10c-5.199,9.074-5.716,19.291-8.631,29.101c-2.592,8.707-3.97,16.747-3.526,25.825
	c0.172,3.502,0.151,6.61,1.27,10.021c1.516,4.629,3.616,9.096,5.357,13.646c1.377,3.596,2.467,8.011,4.508,11.255
	c1.024,1.627,2.408,2.978,3.52,4.536c0.826,1.159,1.162,2.851,2.623,3.235c4.796,1.253,9.398-1.386,14.22,0.674
	c6.281,2.681,12.781,3.378,18.341,7.597c4.594,3.49,8.385,8.176,12.496,12.324c6.183,6.237,14.042,10.147,21.758,14.131
	c4.9,2.527,10.002,4.822,15.374,6.133c6.243,1.518,14.45,1.838,20.815,1.686c3.97-0.094,8.928-1.318,12.279-1.316
	c0.491,0,0.981,0.037,1.465,0.115c1.891,0.305,3.563,1.277,4.898,2.634c0.68,0.692,1.276,1.464,1.809,2.274
	c0.278,0.419,0.54,0.85,0.788,1.287c0.208,0.364,0.39,1.033,0.84,1.131c0.147,0.031,0.305,0.016,0.458,0.012
	c0.381-0.007,0.742-0.031,1.116-0.084c0.301-0.043,0.337,0.104,0.524,0.369c0.394,0.556,0.674,1.18,0.995,1.78
	c1.176,2.212,2.454,4.365,3.473,6.659c0.342,0.77,0.682,1.543,0.831,2.377c0.079,0.432,0.24,1.055-0.019,1.455
	c-0.323,0.5-1.204,0.566-1.716,0.768c-0.757,0.297-1.507,0.609-2.295,0.823c-5.889,1.595-13.253,0.547-17.735,5.112
	c-4.1,4.175-7.632,11.437-8.417,17.25c-0.512,3.781-0.717,8.94,4.025,9.855c3.689,0.713,12.377-2.055,16.228-2.865
	c17.258-3.635,39.425-13.924,47.552-30.424c1.195-2.427,4.286-11.288,7.44-9.267c-0.678,1.103-0.989,2.646-1.669,3.747
	c4.97,1.726,13.453-9.838,17.807-6.456c-1.383,5.784-9.723,4.136-12.514,8.933c3.89-0.553,8.409-4.877,11.582-4.666
	c-0.999,4.383-6.252,4.375-7.797,7.865c3.175,0.516,5.885-1.589,8.256-3.48c2.885,7.664-8.966,8.42-13.373,10.482
	c-8.053,3.77-15.967,9.33-23.256,14.605c-11.879,8.596-22.788,15.852-37.121,19.749c-6.217,1.69-12.226,2.569-18.012-0.733
	C233.626,316.956,232.146,315.545,231.042,313.925z"/>
<path d="M124.145,213.79c2.871-2.016,5.681-4.277,8.98-5.298c1.377,2.817,3.844,4.576,6.751,5.724
	c1.851-0.927,3.094-2.19,4.792-3.564c2.285,2.015,4.184,4.223,6.562,5.782c0.945,0.089,1.861,0.173,2.726,0.259
	c6.88,0.683,15.941,3.787,20.016,9.609c3.059,4.371,4.769,9.312,8.245,13.393c1.296,1.518,2.71,2.483,4.522,3.045
	c6.187,1.92,11.985,5.396,18.085,7.69c1.252,0.472,2.447,1.038,3.672,1.569c0.595,0.26,1.2,0.502,1.803,0.758
	c1.211,0.515,2.451,1.045,3.704,1.461c0.389,0.127,0.737,0.326,1.104,0.482c0.49,0.211,1.043,0.326,1.564,0.475
	c1.754,0.496,3.571,0.678,5.375,0.908c1.51,0.192,3.057,0.23,4.575,0.201c1.539-0.029,3.109-0.147,4.632-0.342
	c1.768-0.223,3.554-0.281,5.347-0.316c1.735-0.033,3.639,0.301,5.344,0.099c1.159-0.139,2.114-0.497,3.342-0.431
	c2.269,0.123,4.91,0.652,6.917,1.771c1.342,0.749,2.471,2.021,3.736,2.894c1.093,0.752,2.331,1.703,3.108,2.793
	c-2.959,0.048-4.796-3.308-7.512-3.875c-1.332-0.28-3.268-0.123-4.632,0.016c-1.267,0.129-3.608,0.265-4.619,1.182
	c-2.43,2.206,3.091,3.847,4.437,4.244c1.844,0.547,3.688,0.984,5.454,1.758c1.622,0.712,3.842,1.363,4.944,2.68
	c0.396,0.473,0.759,0.959,1.068,1.496s0.659,1.016,0.861,1.604c0.162,0.467,0.292,0.934,0.306,1.43
	c0.031,0.969-0.002,2.066-0.384,2.974c-0.134,0.317-0.368,0.571-0.549,0.863c-0.199,0.324-0.439,0.632-0.696,0.909
	c-0.294,0.317-0.61,0.609-0.911,0.918c-0.18,0.186-0.322,0.406-0.536,0.557c-0.689,0.488-1.491,0.873-2.224,1.291
	c-0.388,0.221-0.778,0.417-1.125,0.687c-0.273,0.212-0.632,0.271-0.946,0.403c-0.369,0.156-0.759,0.262-1.14,0.382
	c-0.347,0.11-0.713,0.224-1.071,0.315c-0.268,0.068-0.591,0.164-0.816,0.314c-0.229,0.154-0.412,0.365-0.609,0.552
	c-0.165,0.154-0.701,0.41-0.865,0.12c-0.181-0.326,0.317-0.561,0.512-0.698c0.492-0.351,1.024-0.656,1.508-1.021
	c1.467-1.105,3.222-1.787,4.703-2.808c0.835-0.576,1.346-1.531,1.865-2.388c0.51-0.842,0.78-1.842,0.946-2.793
	c0.174-1-0.189-2.048-0.552-2.955c-0.243-0.604-0.667-1.057-1.183-1.449c-1.008-0.762-2.178-1.439-3.401-1.782
	c-1.071-0.3-2.188-0.472-3.297-0.529c-1.362-0.071-2.751-0.15-4.114-0.139c-1.294,0.012-2.588-0.022-3.883,0.003
	c-1.619,0.029-3.231,0.137-4.847,0.264c-2.791,0.218-5.631,0.389-8.368,1.019c-2.651,0.611-5.423,0.96-7.84,2.287
	c-1.113,0.611-2.069,1.417-2.607,2.585c-0.204,0.44-0.311,1.059-0.073,1.509c0.255,0.484,0.646,0.946,0.979,1.386
	c1.259,1.668,3.091,2.688,5.075,3.243c1.9,0.532,3.88,0.688,5.837,0.837c0.963,0.072,1.929,0.141,2.89,0.248
	c1.024,0.113,2.063,0.105,3.022,0.518c0.384,0.166,0.765,0.38,1.125,0.604c3.521,2.17-13.312,4.102-15.326,3.925
	c-6.264-0.552-12.526-2.79-17.97-5.396c-0.837-0.4-1.584-0.659-2.498-0.854c-2.462-0.528-4.834-1.407-7.21-2.249
	c-1.086-0.385-2.168-0.779-3.246-1.187c-5.878-2.22-12.413-4.174-17.586-7.39c-6.244-3.881-11.318-9.004-17.457-12.889
	c-3.863-2.445-7.443-3.879-11.096-6.697c-3.747-2.898-7.393-6.805-10.419-10.492c-5.479-6.67-13.408-11.513-17.384-19.43
	C118.168,217.075,121.498,215.643,124.145,213.79z"/>
<path fill="#FFFFFF" d="M116.154,218.606c1.675,2.052,3.702,4.408,5.416,6.645c1.331,1.735,2.76,3.346,4.182,4.994
	c0.943,1.093,2.089,1.91,3.09,2.899c0.237-0.309,0.606-0.327,0.931-0.461c-0.893-0.826-1.711-1.619-2.526-2.631
	c-1.297-1.61-2.73-3.124-4.061-4.721c-1.324-1.587-2.769-3.079-4.079-4.655c-0.457-0.547-0.621-0.877-0.859-1.521
	c-0.146-0.408-0.375-1.136-0.771-1.375c-0.371,0.302-0.729,0.832-1.16,1.006c0.067,0.055,0.122,0.145,0.193,0.188"/>
<path fill="#FFFFFF" d="M119.313,216.708c-0.147,0.267,1.873,2.102,2.196,2.436c1.873,1.954,3.571,4.104,5.415,6.096
	c1.061,1.148,2.176,2.267,3.17,3.447c0.613,0.732,1.206,1.5,1.919,2.129c0.265-0.533,0.6-0.82,1.083-1.088
	c-1.016-0.066-1.78-1.895-2.33-2.562c-1.381-1.668-2.67-3.42-3.951-5.162c-0.897-1.218-1.804-2.514-2.527-3.847
	c-0.323-0.599-0.648-1.154-0.981-1.733c-0.207-0.35-0.264-0.851-0.63-1.076c-0.504,0.305-1.066,0.434-1.612,0.674
	c-0.513,0.226-0.883,0.654-1.463,0.695"/>
<path fill="#FFFFFF" d="M124.965,213.414c0.015,0.257,0.461,0.687,0.639,0.962c0.474,0.758,0.81,1.652,1.249,2.449
	c1.099,1.986,2.453,3.809,3.508,5.805c1.171,2.211,2.522,4.125,4.017,6.059c0.206-0.141,0.404-0.256,0.635-0.326
	c-1.765-2.34-2.943-5.043-4.457-7.645c-1.613-2.768-3.06-5.739-4.548-8.424c-0.493,0.388-0.93,1-1.457,1.252
	c0.047,0.091,0.111,0.16,0.189,0.225"/>
<path fill="#FFFFFF" d="M127.76,211.582c0.357,0.415,0.802,0.654,1.165,1.065c0.772,0.885,1.422,1.923,2.141,2.864
	c1.377,1.802,2.654,3.694,3.954,5.538c0.612,0.861,1.341,1.578,2,2.41c0.296,0.369,0.426,0.791,0.683,1.193
	c0.186,0.291,0.564,0.594,0.649,0.916c0.24-0.248,0.587-0.41,0.86-0.569c-0.284-1.071-1.311-2.007-1.925-2.888
	c-1.181-1.684-2.493-3.265-3.704-4.945c-1.588-2.203-3.23-4.416-4.565-6.629c-0.294,0.238-1.268,0.914-1.262,1.188"/>
<path fill="#FFFFFF" d="M130.188,209.961c0.684,0.717,1.369,1.431,2.057,2.146c1.716,1.783,2.982,3.959,4.679,5.766
	c1.66,1.766,3.383,3.873,5.368,5.166c0.092-0.322,0.266-0.564,0.462-0.842c-2.233-2.76-4.994-5.229-7.455-7.795
	c-0.916-0.954-1.833-1.912-2.75-2.869c-0.423-0.438-0.774-0.887-1.151-1.346c-0.488-0.604-0.652-0.607-1.336-0.385
	c0.067,0.111,0.16,0.234,0.267,0.309"/>
<path fill="#FFFFFF" d="M132.604,208.774c0.563-0.201,2.677,2.975,3.062,3.492c1.248,1.677,2.472,3.207,4.186,4.391
	c1.237,0.854,2.311,1.918,3.708,2.531c0.467,0.204,0.576,0.369,1.023-0.002c0.351-0.292,0.395-0.717,0.937-0.814
	c-0.315-0.38-1.083-0.652-1.511-0.932c-0.573-0.373-1.169-0.776-1.764-1.138c-1.426-0.87-2.689-1.978-4.06-2.927
	c-1.815-1.258-3.829-2.921-5.22-4.373"/>
<path fill="#FFFFFF" d="M150.287,216.688c-0.876-0.922-1.608-1.988-2.312-3.039c-0.762-1.131-1.36-2.463-2.345-3.423
	c-0.279,0.279-0.663,0.366-0.934,0.618c0.561,0.189,0.73,0.981,1.033,1.394c0.487,0.664,1.256,1.044,1.754,1.706
	c0.75,1,1.562,2.019,2.515,2.863c0.17-0.16,0.398-0.245,0.637-0.217c-0.211-0.037-0.253-0.156-0.411-0.269"/>
<path fill="#FFFFFF" d="M143.721,211.472c-0.263,0.249-0.547,0.612-0.864,0.74c1.237,1.176,2.354,2.445,3.551,3.693
	c0.41,0.426,0.873,1.18,1.476,1.209c0.08,0.004,0.208-0.098,0.293-0.101c0.15-0.011,0.297-0.032,0.518-0.028
	c0.239,0.006,0.461,0.033,0.693,0.092c-0.439-0.386-1-0.652-1.469-1.074c-0.557-0.506-0.929-1.096-1.356-1.682
	c-0.434-0.602-0.915-1.152-1.284-1.781c-0.223-0.381-0.777-1.395-1.189-1.424"/>
<path fill="#FFFFFF" d="M142.53,213.046c-0.334,0.084-0.591,0.344-0.934,0.455c0.783,0.051,1.494,1.614,2.02,2.16
	c0.577,0.6,1.244,1.297,1.945,1.71c0.205-0.175,0.245-0.186,0.489-0.217c-1.295-1.264-2.335-2.966-3.634-4.235
	c-0.015,0.084,0.024,0.123,0.039,0.197"/>
<path fill="#FFFFFF" d="M140.845,213.81c-0.104,0.078-0.314,0.207-0.492,0.32c0.393,0.084,1.015,1.145,1.265,1.049
	c0.294-0.113-0.457-1.404-0.695-1.586"/>
<path fill="#FFFFFF" d="M174.801,269.116c-1.726-0.688-3.288-2.209-4.875-3.237c-1.718-1.104-3.505-2.138-5.117-3.403
	c-1.552-1.22-3.328-2.27-4.958-3.324c-0.534-0.346-1.127-0.711-1.653-1.084c-0.712-0.502-1.216-0.729-0.681-1.535
	c2.872,2.408,5.77,4.702,8.762,6.945c1.434,1.068,3.074,1.921,4.619,2.822c0.663,0.387,4.029,2.102,3.817,2.726"/>
<path fill="#FFFFFF" d="M174.934,266.913c-0.017,0.059-0.154,0.096-0.076,0.103c-2.811-2.919-6.071-5.371-9.18-7.941
	c-2.226-1.841-4.463-3.782-6.84-5.178c0.175-0.212,0.378-0.423,0.603-0.587c2.682,1.934,5.714,3.582,8.387,5.646
	c1.607,1.244,3.18,2.535,4.816,3.768c0.968,0.729,2.135,1.402,2.917,2.35c-0.589,0.469-0.495,1.19-0.892,1.747"/>
<path fill="#FFFFFF" d="M173.305,259.771c-1.812-1.47-3.77-2.803-5.52-4.309c-2.119-1.824-4.461-3.578-6.676-5.138
	c1.04-1.688,2.267,0.349,3.217,1.034c1.522,1.103,2.901,2.303,4.224,3.68c1.218,1.273,2.6,2.23,3.991,3.217
	c0.613,0.436,1.297,0.882,1.931,1.324c0.503,0.355,1.383,0.7,1.701,1.271c0.208,0.371-0.871,1.029-1.149,0.918
	c-0.196-0.077-0.452-0.728-0.594-0.905C174.114,260.474,173.691,260.085,173.305,259.771z"/>
<path fill="#FFFFFF" d="M175.014,256.907c-1.896-1.678-3.712-3.475-5.636-5.104c-1.629-1.386-3.473-2.816-5.219-3.93
	c1.035-1.005,2.222-0.209,3.271,0.552c1.343,0.98,2.534,2.147,3.713,3.375c1.11,1.157,2.194,2.384,3.409,3.382
	c0.743,0.611,1.457,1.266,2.247,1.816c0.997,0.696,0.867,0.83-0.108,1.636C176.742,258.59,175.125,257.005,175.014,256.907z"/>
<path fill="#FFFFFF" d="M176.75,253.548c-1.508-1.006-3.059-1.827-4.342-3.13c-1.553-1.573-3.416-3.026-5.044-4.388
	c0.593-0.038,1.318-0.676,1.847-0.567c0.579,0.118,1.142,0.831,1.558,1.267c1.217,1.268,2.376,2.678,3.689,3.846
	c1.089,0.971,2.396,1.669,3.468,2.576c0.498,0.422,0.893,0.867,1.406,1.248c0.298,0.22,0.776,0.268,0.78,0.719
	c0.002,0.488-0.59,0.688-0.957,0.502c-0.247-0.126-0.519-0.732-0.755-0.942C177.914,254.243,177.293,253.907,176.75,253.548z"/>
<path fill="#FFFFFF" d="M180.928,253.722c-0.936-0.436-1.729-1.27-2.61-1.86c-1.201-0.806-2.105-1.8-3.19-2.757
	c-1.676-1.479-3.353-3.167-4.726-4.949c0.575-0.186,1.345-0.629,1.94-0.623c0.805,2.172,2.898,4.081,4.534,5.785
	c0.736,0.768,1.535,1.289,2.341,1.896c0.631,0.473,1.837,1.111,2.227,1.812c-0.321,0.254-0.377,0.6-0.693,0.842
	c-0.115-0.083-0.277-0.205-0.348-0.333"/>
<path fill="#FFFFFF" d="M182.377,251.812c-1.531-1.283-3.224-2.813-4.669-4.328c-1.438-1.5-3.109-2.949-4.371-4.594
	c0.414-0.102,0.827-0.209,1.128-0.558c1.702,1.5,3.336,3.347,4.741,5.097c0.719,0.902,1.702,1.699,2.503,2.422
	c0.222,0.193,1.041,0.806,1.133,0.994c0.299,0.621-0.414,0.645-0.56,1.229"/>
<path fill="#FFFFFF" d="M184.271,249.646c-0.595-0.004-1.746-0.902-2.294-1.26c-1.102-0.721-2.075-1.6-3.118-2.396
	c-1.458-1.112-2.918-2.307-4.101-3.766c0.214-0.237,0.447-0.462,0.691-0.666c1.551,1.367,2.957,2.979,4.48,4.322
	c0.77,0.682,1.602,1.221,2.422,1.807c0.705,0.502,1.783,0.947,2.344,1.53c-0.075,0.214-0.129,0.063-0.242,0.079"/>
<path fill="#FFFFFF" d="M186.251,247.571c-1.345-1.227-3.002-2.665-4.565-3.869c-0.869-0.67-1.798-1.326-2.734-1.897
	c-0.659-0.399-1.473-0.718-1.956-1.349c0.376-0.053,0.597-0.312,0.952-0.431c1.558,1.212,3.099,2.474,4.629,3.856
	C183.039,244.296,186.772,247.053,186.251,247.571"/>
<path fill="#FFFFFF" d="M188.037,246.372c-1.916-0.651-3.561-2.73-5.158-3.945c-0.682-0.519-1.444-0.871-2.141-1.311
	c-0.475-0.3-1.42-0.75-1.703-1.284c0.348-0.087,0.579-0.423,0.866-0.651c1.254,1.409,2.975,2.586,4.376,3.854
	c0.724,0.654,1.405,1.312,2.139,1.969c0.423,0.378,1.398,0.888,1.535,1.28"/>
<path fill="#FFFFFF" d="M189.483,244.64c-1.892-0.828-3.484-2.479-5.22-3.633c-1.141-0.756-2.888-1.141-3.708-2.281
	c0.103-0.172,0.332-0.391,0.508-0.488c1.777,0.878,3.213,2.082,4.776,3.334c0.681,0.547,1.396,1.088,2.089,1.623
	c0.529,0.41,1.457,1.327,2.125,1.386c-0.015,0.072-0.057,0.125-0.133,0.157"/>
<path d="M295.611,247.731c-0.441-0.032-0.896-0.518-1.434-0.537c-0.351-0.011-0.773,0.152-1.099,0.316
	c-0.758,0.381-1.407,1.088-2.331,1.096c0.106,0.164,0.411,0.116,0.612,0.158c-0.5,0.375-1.04,0.756-1.609,0.914
	c0.167,0.072,0.383,0.101,0.562,0.073c-0.122,0.185-0.329,0.214-0.451,0.397c0.548-0.045,1.126,0.518,1.665,0.66
	c0.547,0.145,1.289,0.141,1.824-0.105c1.158-0.533,1.802-1.705,2.297-2.82c-1.266,1.71-2.946,2.596-5.068,2.453
	c0.354-0.077,0.849-0.505,1.146-0.721c0.398-0.291,0.7-0.583,1.138-0.814c0.832-0.438,1.75-0.617,2.612-0.99
	c-0.021,0.047-0.045,0.094-0.067,0.143"/>
<path d="M268.766,255.694c0.329,0.286,0.432,0.75,0.866,0.973c1.842,0.939,3.035-1.633,2.913-3.031
	c-0.108-1.261,0.157-2.209,0.995-3.225c0.767-0.931,1.3-1.104,2.396-1.061c3.073,0.115,5.067,3.271,4.862,6.237
	c-0.055,0.805-0.031,1.729-0.634,2.354c-0.392,0.404-1.192,1.06-1.727,0.688c-0.013-0.159-0.069-0.338-0.035-0.507
	c-0.334,1.462,1.566,1.704,2.355,0.812c1.07-1.209,0.839-3.042,0.593-4.506c-0.288-1.732-0.739-2.883-1.839-4.246
	c-1.035-1.283-0.804-4.117,1.166-4.355c1.975-0.238,3.964-0.18,5.852-0.906c1.064-0.408,1.875-1.236,2.96-1.609
	c1.404-0.478,2.975-0.77,4.425-1.068c0.703-0.145,1.416-0.383,1.269-1.314c-0.143-0.904-2.701-1.656-3.479-1.938
	c-1.647-0.594-3.337-1.042-5.096-1.075c-0.825-0.017-1.634,0.31-2.413,0.54c-0.695,0.205-1.248,0.144-1.932,0.225
	c-1.7,0.207-3.563,1.26-5.03,2.089c-1.787,1.011-3.376,2.409-5.072,3.538c-1.705,1.136-3.461,2.418-4.384,4.379
	c-0.729,1.545-1.538,3.732-1.267,5.455c0.055,0.336,0.135,0.948,0.423,1.168c0.366,0.28,1.089,0.068,1.506,0.203
	C268.573,255.556,268.679,255.618,268.766,255.694z"/>
<g>
	<path fill="#FFFFFF" d="M390.904,196.823c0.018-0.021,0.023-0.051,0.018-0.088c-0.046-0.179-0.088-0.361-0.133-0.54
		c-0.729-3.058-1.382-6.157-2.484-9.114c-1.125-3.021-2.8-5.754-4.763-8.305c-2.974-3.861-6.573-7.094-10.493-9.924
		c1.788-1.552,3.637-2.996,5.455-4.291c4.263,4.181,7.179,9.607,9.48,15.064c0.591,1.402,1.184,2.816,1.672,4.256
		c0.469,1.377,0.751,2.808,0.967,4.244c0.404,2.722,0.578,5.545,1.563,8.135c-0.433,0.203-0.853,0.432-1.256,0.686
		C390.918,196.906,390.909,196.864,390.904,196.823z"/>
	<path fill="#245977" d="M381.398,158.428c-0.084,0.032,0.063-0.278,0.084-0.377c0.043-0.22,0.079-0.432,0.106-0.655
		c0.054-0.461,0.133-0.947,0.137-1.413c0.011-1.331-0.062-2.585-0.596-3.837c-0.436-1.027-1.393-2.15-2.602-2.173
		c-1.243-0.024-2.317,0.741-3.179,1.581c-0.63,0.612-1.252,1.263-1.406,2.162c-0.125,0.746,0.178,1.082,0.749,1.562
		c0.37,0.31,0.748,0.617,1.132,0.908c0.532,0.403,1.129,0.68,1.679,1.047c0.629,0.422,1.233,0.871,1.852,1.295
		c0.364,0.251,0.539,0.314,0.945,0.289c0.306-0.02,0.635,0.082,0.93-0.009c0.422-0.13,0.401-0.976,0.443-1.372"/>
	<path fill="#245977" d="M440.454,107.449c0.213,4.394,0.258,8.794,0.213,13.192c-0.038,3.497,0.396,7.148,0.229,10.592
		c-0.285,5.885-2.648,10.618,4.363,13.617c4.291,1.832,12.014,0.795,15.17-2.933c4.058-4.79,1.631-11.505,1.093-16.987
		c-0.327-3.346-0.502-6.854-1.136-10.201c-0.505-2.654-1.696-5.072-2.025-7.772c-0.332-2.702-0.747-5.35-1.372-8.03
		c-0.577-2.467-1.404-4.908-2.356-7.453c-0.97-2.59-2.514-4.891-2.163-7.775c0.692-5.752,3.203-10.648,1.933-16.723
		c-0.624-2.965-2.103-5.824-3.652-8.409c-1.466-2.444-4.595-5.203-5.141-8.06c-0.465-2.42,2.112-4.161,2.199-6.545
		c0.078-2.233-1.594-4.891-3.836-5.575c-5.508-1.692-9.37,5.636-14.997,5.302c-1.719-0.102-4.168-2.656-6.017-1.576
		c-2.957,1.727,3.228,2.113,2.514,4.074c-1.565-0.244-3.003,0.469-2.669,2.26c1.394,0.17,2.857-0.15,3.909,0.928
		c-0.758,1.092-2.816,1.958-2.717,3.475c1.268,0.357,3.138-0.268,4.038-1.04c-0.093,1.416-0.546,2.886-0.448,4.177
		c3.053,0.521,3.729-2.324,6.42-2.502c2.424-0.162,3.073,4.012,3.49,6.236c0.974,5.178,2.154,11.689,1.096,17.161
		c-0.471,2.438-2.868,4.25-3.538,6.648c-0.753,2.686,0.339,5.509,1.768,7.615c1.785,2.622,3.259,3.823,3.354,7.239
		C440.261,101.464,440.312,104.472,440.454,107.449z"/>
	<path fill="#FF0000" d="M458.563,102.147c0.261,1.085,0.526,2.167,0.832,3.248c0.92,3.266,1.08,6.416,1.548,9.787
		c0.418,2.992,0.698,6.498,0.672,9.348c-0.122,0.856-0.453,1.686-0.44,2.539c-5.926-1.146-9.939-5.445-14.695-8.959
		c-1.721-1.269-3.264-2.318-5.214-3.084c-1.561-0.611-2.476-1.264-2.414-2.934c0.137-3.637,0.088-7.238-0.3-10.816
		c-0.049-0.415-0.091-0.83-0.138-1.246C444.791,97.43,453.322,98.41,458.563,102.147z"/>
	<path fill="#FFFFFF" d="M447.689,98.611c0.622,0.034,1.238,0.095,1.855,0.177c0.466,2.592,0.858,5.2,1.104,7.849
		c0.32,3.481,0.599,7.028,0.474,10.53c-0.028,0.832-0.059,1.664-0.105,2.495c-0.011,0.261,0.03,1.21-0.025,1.614
		c-0.093,0.047-0.166,0.132-0.183,0.243c-1.002-0.795-2.009-1.605-3.031-2.405c1.315-4.873,0.655-10.365,0.303-15.275
		C447.955,102.093,447.845,100.351,447.689,98.611z"/>
	<path fill="#245977" d="M450.284,161.235c-0.404-0.972-0.724-1.975-0.95-2.559c-0.934-2.412-2.003-4.674-2.568-7.158
		c-0.713-3.127-2.204-5.64-3.681-8.317c-3.708-6.721-9.058-10.804-14.677-15.856c-3.811-3.426-7.894-6.742-11.724-10.285
		c-1.868-1.727-3.705-3.177-5.82-4.573c-1.277-0.844-2.74-1.37-3.97-2.296c-0.685-0.514-2.048-1.48-1.497-2.535
		c0.679-1.299,3.212-1.715,4.44-2.194c1.964-0.765,3.634-3.003,4.916-4.595c0.049-0.062,0.485-0.671,0.519-0.66
		c3.225,1.187,6.39,2.52,9.516,4.076c4.821,2.397,9.571,4.509,14.123,7.352c2.551,1.594,5.276,2.891,7.816,4.498
		c2.281,1.445,4.248,3.24,6.673,4.45c4.805,2.401,8.792,5.987,10.449,11.272c1.964,6.259,2.949,12.583,0.736,19.001
		c-1.238,3.595-6.646,15.908-12.577,12.921C451.33,163.435,450.75,162.356,450.284,161.235z"/>
	<path fill="#245977" d="M406.433,100.093c0.658-0.979,1.695-1.574,2.484-2.465c0.78-0.893,1.5-1.877,2.551-2.475
		c1.87-1.064,4.132-1.413,6.289-1.381c1.999,0.027,4.155,0.416,5.969-0.227c1.019-0.363,2.088-0.564,3.127-0.993
		c1.058-0.434,2.326-1.051,3.402-1.306c1.53-0.363,3.301-0.139,4.868-0.292c3.159-0.312,6.332-1.185,9.353-1.923
		c2.932-0.715,5.62-1.773,8.551-2.407c2.834-0.61,6.042-2.624,5.225-5.919c-0.305-1.231-0.646-2.184-1.538-3.115
		c-0.918-0.963-2.726-1.291-2.103-2.802c1.438-3.494,5.24,4.024,6.603,1.18c-0.561-0.493-4.477-3.403-1.472-3.596
		c1.311-0.083,3.238,3.841,4.354,1.981c-0.82-1.301-2.28-3.352-0.604-4.637c0.212,0.048,0.386,0.156,0.525,0.322
		c1.246,0.53,0.358,2.746,1.848,2.752c1.449,0.006,1.104-2.697,1.913-3.314c3.14-2.395,2.636,4.484,2.263,5.865
		c-0.522,1.916-1.593,4.432-1.075,6.453c0.356,1.402,1.664,2.734,2.285,4.08c1.246,2.695,2.309,6.692-0.7,8.668
		c-2.647,1.737-4.93-0.887-7.561-0.082c-2.183,0.67-2.567,2.138-4.043,3.539c-1.538,1.453-3.481,2.396-5.26,3.514
		c-2.322,1.459-5.476,1.849-8.148,2.535c-2.868,0.739-6.221,2.154-9.204,2.264c-3.022,0.111-6.162-0.311-9.219-0.146
		c-1.167,0.062-2.281,0.355-3.441,0.169c-1.569-0.245-3.076-0.709-4.674-0.808c-2.567-0.152-3.563,0.331-5.65,1.771
		c-1.791,1.24-4.758,5.639-7.116,3.176C403.549,107.67,404.454,103.04,406.433,100.093z"/>
	<path d="M383.185,133.859c0.336-0.149,0.688-0.269,1.069-0.337c0.777-0.137,1.49-0.166,2.252-0.434
		c0.968-0.341,1.911-0.786,2.91-1.034c2.368-0.586,4.805-0.85,7.237-1.013c5.81-0.386,11.671-0.308,17.424-0.86
		c4.348-0.419,8.924-0.028,13.218,0.747c7.509,1.357,14.082,4.277,20.854,7.625c2.641,1.303,5.221,2.889,7.922,4.051
		c1.412,0.607,3.073,0.717,4.376,1.537c3.11,1.957,4.561,6.467,4.926,9.902c0.812,7.64-2.29,15.57-5.845,22.176
		c-1.444,2.682-3.105,5.239-5.229,7.442c-2.421,2.513-3.821,1.902-5.797-0.729c-1.589-2.116-3.42-3.014-5.549-4.612
		c-4.593-3.45-8.249-8.005-12.974-11.291c-3.597-2.499-7.244-5.126-10.997-7.19c-1.692-0.929-3.533-1.592-5.309-2.33
		c-3.595-1.494-6.108-1.723-9.934-1.598c-1.806,0.061-3.668-0.018-5.396,0.531c-1.454,0.463-3.009,0.493-4.445,0.992
		c-0.895,0.309-1.853,0.594-2.714,0.993c-1.39,0.644-2.97,1.136-4.375,1.833c-2.844,1.398-5.336,3.504-7.715,5.36
		c0.576-0.45,0.89-3.159,1.093-3.903c0.354-1.322,0.687-2.656,0.877-4.016c0.295-2.096,0.479-6.335-1.975-7.465
		c-1.862-0.857-4.126,2.148-5.137,3.382c-1.281,1.569-2.833,3.731-2.88,5.841c0.005-0.23-0.287-0.66-0.368-0.888
		c-0.345-0.972-0.466-2.001-0.814-2.969c-0.224-0.618-0.567-1.181-0.802-1.794c-0.264-0.689-0.271-1.406-0.169-2.131
		c0.153-1.088,0.376-2.184,0.764-3.211c0.178-0.475,0.241-1.045,0.457-1.502c0.161-0.344,0.325-0.692,0.46-1.062
		c0.172-0.469,0.356-1.057,0.603-1.485c0.189-0.329,0.388-0.596,0.552-0.941c0.212-0.448,0.481-0.814,0.744-1.239
		c0.156-0.254,0.296-0.522,0.459-0.77c0.216-0.33,0.524-0.552,0.771-0.854c0.208-0.256,0.349-0.461,0.601-0.68
		c0.53-0.461,1.062-1.027,1.649-1.41c0.441-0.287,0.797-0.488,1.187-0.855c0.431-0.404,0.95-0.704,1.424-1.053
		c0.087-0.064,0.176-0.128,0.265-0.19c0.881-0.616,1.836-1.112,2.752-1.671C382.132,134.433,382.637,134.104,383.185,133.859z"/>
	<path fill="#FFFFFF" d="M401.817,143.005c-1.167-0.465-2.608-0.701-3.884-0.633c-1.28,0.068-2.842-0.05-4.03,0.525
		c-1.683,0.811-2.742,3.193-2.524,4.98c0.335,2.789,2.605,4.391,4.442,6.289c0.427,0.441,0.796,0.955,1.467,0.838
		c0.634-0.112,1.206-0.379,1.86-0.386c-2.081-1.626-4.427-3.723-3.581-6.702c0.536-1.893,1.716-2.967,3.496-3.617
		c0.737-0.27,1.376-0.545,2.172-0.482c0.563,0.047,1.436,0.455,1.947,0.318c-0.146-0.859-1.202-0.994-1.824-1.061"/>
	<path fill="#FFFFFF" d="M380.305,164.778c0.086-0.77,0.533-1.549,0.842-2.255c0.455-1.05,0.828-2.11,1.047-3.239
		c0.422-2.176,0.984-4.355,0.854-6.617c-0.072-1.292-0.229-2.416-0.019-3.692c0.08-0.479,0.229-0.837,0.509-1.251
		c0.241-0.357,0.983-0.797,1.034-1.201c-0.797,0.196-1.544,0.57-2.341,0.736c-0.73,0.154-1.467,0.346-2.2,0.611
		c-1.641,0.602-3.078,1.322-4.348,2.459c-1.286,1.15-2.723,2.377-3.532,3.896c-0.637,1.194-1.641,3-1.498,4.395
		c0.038,0.365,0.255,0.8,0.272,1.147c0.058-0.814,0.573-1.628,0.929-2.362c0.372-0.768,0.786-1.574,1.328-2.275
		c0.617-0.792,1.16-1.722,1.891-2.377c0.649-0.58,1.432-1.104,2.222-1.469c0.715-0.328,1.546-0.701,2.288-0.33
		c0.765,0.383,1.126,1.156,1.4,1.907c0.736,2.003,0.121,4.452-0.444,6.475c-0.33,1.189-0.606,2.317-0.611,3.556
		c-0.003,0.785,0.073,1.908-0.289,2.625c0.496-0.484,0.974-1.396,1.265-2.02"/>
	<path fill="#245977" d="M400.518,154.386c0.668,0.152,1.356,0.266,2.049,0.382c3.283,0.563,6.551,1.184,9.724,2.225
		c1.57,0.514,3.028,0.869,4.594,1.202c3.022,0.643,5.551,2.082,8.709,2.385c2.245,0.215,4.988,0.897,7.23,0.545
		c0.873-0.139,1.729-0.52,2.054-1.391c0.315-0.838,0.028-1.772-0.075-2.629c-0.117-0.966-0.323-1.923-0.429-2.896
		c-0.236-2.143-0.604-4.289-0.662-6.448c-0.084-3.165-0.229-6.446-0.892-9.554c-0.39-1.821-0.806-3.599-1.374-5.375
		c-0.763-2.391-2.065-4.53-2.998-6.838c-0.928-2.307-2.231-4.345-2.793-6.781c-0.245-1.061-0.589-2.088-0.819-3.143
		c-0.166-0.759-0.165-1.562-0.296-2.316c-0.233-1.339-0.468-2.727-1.191-3.907c-0.408-0.665-0.957-1.363-1.594-1.815
		c-0.431-0.307-1.42-0.775-1.987-0.508c-0.962,0.448-0.118,2.299,0.165,2.916c-1.168-0.881-2.716-2.055-4.177-2.258
		c-1.215-0.168-0.192,1.076,0.149,1.494c0.515,0.627,1.193,1.204,1.539,1.941c-0.417-0.051-0.788-0.449-1.216-0.561
		c-0.513-0.129-1.091-0.289-1.61-0.348c-0.715-0.083-2.107-0.094-2.596,0.5c-0.878,1.068,4.034,2.59,4.54,3.152
		c-1.543-0.514-3.042-1.307-4.677-0.955c-0.646,0.141-0.966,0.693-0.554,1.245c0.456,0.616,1.298,0.735,1.996,0.949
		c1.029,0.313,2.019,0.308,2.979,0.849c0.859,0.49,1.702,1.045,2.49,1.604c1.299,0.924,2.201,2.343,2.885,3.753
		c0.295,0.608,0.392,1.085,0.439,1.74c0.052,0.763,0.356,1.505,0.604,2.223c3.073,8.981,0.173,19.112,3.142,28.097
		c0.422-5.675-7.109-7.334-11.101-8.059c-3.304-0.6-6.709-0.08-10.033-0.513c-2.251-0.295-4.914-1.625-7.195-1.095
		c-5.41,1.257-3.551,6.035-0.388,8.659C398.156,153.692,399.309,154.105,400.518,154.386z"/>
	<path fill="#FF0000" d="M433.915,121.259c2.546-3.166,5.99-6.324,10.272-6.512c0.019,0,0.033-0.01,0.049-0.015
		c1.679,0.939,3.348,1.888,5.01,2.8c5.016,2.746,11.007,5.9,14.731,10.436c4.874,5.939,5.546,13.996,4.126,21.207
		c-0.885,4.505-3.861,9.081-7.579,11.83c-2.21,1.628-4.583,3.056-6.897,4.51c-1.234,0.779-2.821,2.32-4.426,2.652
		c0.123-1.57,0.549-3.277,0.478-4.829c-0.142-3.22-1.866-6.411-3.041-9.372c-1.651-4.168-3.497-8.238-6.438-11.654
		c-1.753-2.035-3.676-3.686-5.3-5.826c-0.6-0.79-1.082-1.666-1.692-2.379c-1.225-1.43-2.738-2.576-4.278-3.715
		C429.98,127.091,431.759,123.944,433.915,121.259z"/>
	<path fill="#FFFFFF" d="M439.153,116.595c1.964,1.693,3.846,3.469,5.619,5.356c4.162,4.429,8.241,9.762,9.306,15.897
		c1.15,6.627-1.836,12.399-6.588,16.893c-0.019,0.015-0.021,0.033-0.033,0.048c-0.127,0.091-0.241,0.194-0.354,0.302
		c-0.162-0.376-0.317-0.752-0.465-1.125c-0.008-0.022-0.019-0.045-0.029-0.073c0.047-0.046,0.095-0.095,0.141-0.144
		c0.018-0.016,0.025-0.035,0.039-0.053c0.057-0.024,0.11-0.062,0.152-0.132c1.325-2.339,3.103-4.177,3.854-6.841
		c0.638-2.274,0.812-4.648,0.443-6.986c-0.858-5.404-3.72-10.313-7.092-14.547c-2.133-2.678-4.503-5.165-7.003-7.521
		C437.785,117.265,438.451,116.897,439.153,116.595z"/>
	<path fill="#245977" d="M424.114,132.028c0.064,0.17,0.136,0.346,0.134,0.531c0,0.102-0.019,0.218-0.046,0.33
		c-0.024,0.098-0.055,0.193-0.085,0.277c-0.038,0.096-0.077,0.17-0.13,0.256c-0.037,0.063-0.044,0.116-0.108,0.162
		c-0.139,0.098-0.285-0.005-0.393-0.102c-0.089-0.08-0.159-0.145-0.221-0.256c-0.051-0.092-0.091-0.193-0.136-0.289
		c-0.132-0.274-0.171-0.568-0.367-0.809c-0.044-0.055-0.057-0.133-0.105-0.182c-0.034-0.033-0.077-0.047-0.109-0.086
		c-0.049-0.057-0.094-0.102-0.154-0.146c-0.143-0.105-0.336-0.285-0.502-0.136c-0.096,0.087-0.134,0.167-0.156,0.296
		c-0.016,0.082-0.051,0.176-0.045,0.262c0.01,0.041,0.018,0.082,0.025,0.124c0.016,0.161,0.069,0.304,0.138,0.452
		c0.125,0.27,0.217,0.568,0.301,0.854c0.028,0.097,0.053,0.193,0.074,0.292c0.02,0.089,0.064,0.168,0.069,0.261
		c0.009,0.138,0.012,0.278,0.012,0.416c0.002,0.329,0.003,0.683-0.061,1.005c-0.037,0.188-0.048,0.33-0.238,0.43
		c-0.471,0.25-0.68-0.476-0.728-0.805c-0.086-0.589-0.222-1.164-0.344-1.746c-0.035-0.164-0.064-0.34-0.121-0.498
		c-0.055-0.153-0.143-0.309-0.218-0.453c-0.104-0.195-0.253-0.402-0.421-0.547c-0.161-0.137-0.352-0.312-0.568-0.344
		c-0.171-0.023-0.379-0.008-0.544,0.059c-0.275,0.109-0.336,0.486-0.355,0.742c-0.019,0.242,0.056,0.458,0.112,0.688
		c0.043,0.178,0.062,0.365,0.1,0.545c0.03,0.146,0.064,0.289,0.088,0.436c0.021,0.134,0.058,0.262,0.079,0.396
		c0.016,0.092,0.061,0.176,0.069,0.27c0.019,0.229,0.05,0.46,0.062,0.689c0.007,0.092-0.009,0.182,0.006,0.275
		c0.014,0.092,0.036,0.184,0.043,0.277c0.015,0.204-0.028,0.404-0.144,0.572c-0.068,0.1-0.136,0.213-0.244,0.275
		c-0.072,0.043-0.185,0.115-0.268,0.132c-0.188,0.036-0.269-0.132-0.322-0.272c-0.091-0.24-0.134-0.512-0.191-0.764
		c-0.03-0.13-0.052-0.262-0.086-0.391c-0.043-0.158-0.095-0.303-0.116-0.468c-0.04-0.327-0.033-0.653-0.076-0.979
		c-0.033-0.265-0.105-0.521-0.139-0.785c-0.013-0.111-0.036-0.223-0.068-0.33c-0.021-0.074-0.068-0.127-0.101-0.197
		c-0.24-0.526-0.315-0.686-0.907-0.539c-0.222,0.055-0.443,0.006-0.663,0.038c-0.283,0.044-0.562,0.171-0.798,0.325
		c-0.142,0.09-0.266,0.117-0.412,0.188c-0.179,0.086-0.289,0.236-0.442,0.365c-0.273,0.232-0.39,0.327-0.755,0.254
		c-0.316-0.065-0.633-0.041-0.774-0.383c-0.076-0.184-0.08-0.243,0.017-0.439c0.09-0.183,0.126-0.311,0.193-0.502
		c0.136-0.383,0.531-0.693,0.835-0.929c0.233-0.182,0.721-0.442,0.243-0.644c-0.377-0.158-0.98-0.098-1.384-0.107
		c-0.173-0.003-0.327-0.019-0.494-0.038c-0.098-0.012-0.18,0.007-0.278-0.008c-0.229-0.032-0.488-0.009-0.721,0.015
		c-0.689,0.067-1.371,0.149-2.062,0.188c-0.354,0.018-0.704,0.039-1.055,0.088c-0.344,0.047-0.706,0.029-1.053,0.054
		c-0.261,0.019-0.523,0.075-0.783,0.072c-0.185-0.001-0.363,0.024-0.548,0.033c-0.248,0.013-0.496,0.009-0.745,0.019
		c-0.549,0.021-1.102,0.088-1.648,0.154c-0.422,0.049-0.844,0.069-1.266,0.128c-0.186,0.026-0.366,0.01-0.554,0.007
		c-0.17-0.002-0.342,0.035-0.508,0.035c-0.073,0-0.149-0.046-0.224-0.047c-0.102-0.002-0.172,0.016-0.278-0.006
		c-0.068-0.014-0.217-0.01-0.272-0.047c-0.123-0.084,0.06-0.176,0.128-0.215c0.064-0.037,0.12-0.1,0.184-0.139
		c0.048-0.029,0.133-0.04,0.188-0.063c0.093-0.041,0.183-0.097,0.275-0.138c0.418-0.188,0.819-0.418,1.237-0.604
		c0.291-0.13,0.56-0.3,0.844-0.439c0.413-0.2,0.843-0.36,1.27-0.524c0.096-0.037,0.206-0.066,0.293-0.123
		c0.06-0.037,0.099-0.094,0.152-0.137c0.077-0.062,0.178-0.087,0.264-0.133c0.097-0.054,0.191-0.111,0.293-0.154
		c0.517-0.219,1.047-0.394,1.574-0.592c0.231-0.088,0.475-0.154,0.709-0.238c0.222-0.078,0.452-0.113,0.676-0.182
		c0.229-0.07,0.471-0.117,0.705-0.164c0.114-0.023,0.219-0.018,0.333-0.033c0.108-0.016,0.203-0.037,0.313-0.041
		c0.215-0.01,0.428-0.057,0.64-0.09c0.255-0.042,0.521-0.018,0.777-0.045c0.23-0.025,0.457-0.029,0.69-0.025
		c0.122,0.002,0.244-0.002,0.366,0c0.313,0.005,0.619,0.051,0.931,0.068c0.277,0.014,0.55,0.062,0.826,0.09
		c0.309,0.029,0.62,0.072,0.928,0.121c0.34,0.054,0.675,0.143,1.017,0.197c0.372,0.062,0.752,0.104,1.129,0.129
		c0.524,0.034,1.043,0.096,1.563,0.159c0.574,0.07,1.158,0.131,1.716,0.295c0.292,0.087,0.563,0.206,0.844,0.32
		c0.194,0.079,0.356,0.201,0.548,0.286c0.168,0.074,0.321,0.163,0.475,0.262c0.093,0.058,0.191,0.098,0.288,0.146
		c0.148,0.077,0.28,0.178,0.423,0.264c0.156,0.094,0.29,0.214,0.431,0.33c0.059,0.049,0.131,0.088,0.185,0.143
		c0.04,0.042,0.059,0.097,0.096,0.139c0.111,0.127,0.195,0.261,0.255,0.422c0.05,0.134,0.078,0.268,0.139,0.398
		c0.032,0.069,0.067,0.139,0.103,0.207c0.04,0.082,0.082,0.191,0.088,0.282c0.014,0.151,0.011,0.294-0.023,0.44
		C424.02,131.773,424.068,131.905,424.114,132.028z"/>
	<path fill="#245977" d="M374.019,152.417c0.594,0.139,1.175,0.336,1.716,0.613c0.304,0.159,0.652,0.244,0.942,0.426
		c0.261,0.162,0.525,0.355,0.773,0.537c0.624,0.461,1.167,1.101,1.687,1.674c1.063,1.172,2.038,2.564,2.703,3.994
		c0.466,1.004,1.028,1.922,1.218,3.042c0.28,1.653,0.461,3.504,0.061,5.16c-0.156,0.647-0.436,1.343-0.271,2.011
		c0.14,0.563,0.202,1.172,0.306,1.749c0.145,0.788,0.184,1.643,0.209,2.443c0.032,1.055-0.056,1.928-0.471,2.909
		c-0.166,0.392-0.36,0.801-0.812,0.869c-0.43,0.062-0.703-0.051-0.981-0.357c-0.078,0.22-0.138,0.451-0.202,0.676
		c-0.258,0.906-0.507,1.812-0.759,2.719c-0.171,0.615-0.293,1.291-0.547,1.879c-0.761,1.752-2.027,3.37-3.529,4.506
		c-1.8,1.361-4.001,3.141-6.297,3.5c-1.479,0.232-3.059,0.074-4.537,0.041c-2.246-0.051-3.455-0.736-5.411-1.733
		c-1.878-0.956-3.338-2.521-4.269-4.401c-0.434-0.877-0.922-1.951-1.032-2.932c-0.469-4.09,0.268-9.041,1.454-12.938
		c-1.31-0.213-0.903-1.438-0.414-2.263c0.287-0.489,0.66-0.853,1.013-1.284c0.443-0.542,0.691-1.184,1.188-1.695
		c0.562-0.582,1.013-1.273,1.663-1.768c0.216-0.162,0.47-0.223,0.644-0.413c0.446-0.493,0.658-1.321,0.947-1.919
		c1.009-2.105,2.268-4.258,4.226-5.604c0.961-0.658,2.233-1.024,3.365-1.258c0.927-0.191,1.861-0.4,2.81-0.467
		c0.659-0.047,1.324,0.047,1.975,0.155C373.595,152.325,373.808,152.368,374.019,152.417z"/>
	<path fill="#FF0000" d="M371.27,155.234c0.703-0.133,1.508,0.001,2.198,0.151c0.558,0.123,1.059,0.356,1.589,0.553
		c0.831,0.305,1.73,0.863,2.218,1.623c0.254,0.395,0.513,0.826,0.661,1.275c0.036,0.113,0.059,0.231,0.11,0.338
		c0.042,0.092,0.098,0.193,0.059,0.3c-0.087,0.007-0.133-0.062-0.199-0.099c-0.13-0.075-0.279-0.135-0.415-0.201
		c-0.486-0.246-0.945-0.541-1.407-0.83c-0.371-0.233-0.718-0.5-1.082-0.742c-0.225-0.148-0.461-0.286-0.685-0.436
		c-0.126-0.084-0.283-0.139-0.415-0.224c-0.282-0.181-0.58-0.341-0.883-0.485c-0.562-0.27-1.118-0.59-1.729-0.736
		c-0.107-0.026-0.318-0.09-0.424-0.043c-0.015-0.107,0.075-0.238,0.133-0.321C371.065,155.262,371.155,155.255,371.27,155.234z"/>
	<path d="M378.146,168.072c0.035-0.606-0.354-1.325-0.819-1.831c-0.495-0.538-0.976-0.811-1.678-1.024
		c-1.038-0.317-2.675-0.296-3.56,0.435c0.075-0.015,0.305-0.203,0.179-0.293c0.261,0.186,0.481-0.604,0.681-0.673
		c0.037,0.118,0.034,0.266,0.076,0.382c0.217-0.075,0.327-0.896,0.551-0.83c0.211,0.062,0.158,0.768,0.154,0.908
		c0.283-0.129,0.24-0.701,0.432-0.928c0.152,0.088,0.086,0.537,0.097,0.705c0.135-0.119,0.3-0.708,0.525-0.689
		c0.248,0.021,0.216,0.63,0.202,0.794c0.105-0.134,0.235-0.675,0.478-0.563c0.204,0.094,0.121,0.711,0.113,0.892
		c0.083-0.122,0.286-0.812,0.456-0.761c0.191,0.06,0.125,0.722,0.118,0.863c0.149-0.102,0.248-0.367,0.325-0.543
		c0.343-0.041,0.368,0.67,0.402,0.879c0.106-0.135,0.171-0.414,0.329-0.461c0.17,0.272,0.119,0.553,0.117,0.856
		c0.213-0.101,0.309-0.69,0.402-0.913c0.054,0.38,0.146,0.782,0.197,1.182c0.037,0.285,0.064,0.568,0.109,0.854
		c0.232-0.27,0.396-0.71,0.515-1.027c-0.142,0.168-0.08,0.678-0.121,0.918c-0.056,0.318,0.012,0.729-0.176,1.007
		c-0.016-0.184-0.077-0.376-0.104-0.566"/>
	<path d="M367.801,163.983c-0.01-0.037,0.317-0.459,0.383-0.626c0.097-0.259,0.121-0.48,0.104-0.755
		c-0.115,0.264-0.334,0.539-0.604,0.666c-0.003-0.454,0.141-0.848,0.075-1.311c-0.238-0.053-0.451,0.584-0.643,0.742
		c-0.027-0.301,0.239-0.686,0.037-0.973c-0.103-0.148-0.066-0.113-0.218,0.005c-0.097,0.073-0.171,0.179-0.266,0.248
		c0.052-0.189,0.056-0.819-0.152-0.894c-0.202-0.075-0.482,0.437-0.558,0.566c0.041-0.264,0.082-0.58-0.068-0.814
		c-0.214,0.033-0.353,0.342-0.508,0.48c-0.05-0.197-0.031-0.791-0.287-0.84c-0.211-0.041-0.413,0.457-0.518,0.604
		c0.029-0.19-0.006-0.377,0.011-0.564c-0.225,0.006-0.361,0.432-0.474,0.602c-0.006-0.162,0.104-0.652-0.194-0.579
		c-0.307,0.075-0.317,0.696-0.569,0.823c0.06-0.596-0.298,0.041-0.418,0.225c-0.129,0.199-0.389,0.455-0.374,0.711
		c0.183-0.117,0.36-0.292,0.559-0.402c0.252-0.142,0.606-0.184,0.895-0.201c0.471-0.027,1.007-0.096,1.473,0.072
		c0.557,0.202,1.095,0.762,1.438,1.234c0.299,0.406,0.39,0.896,0.656,1.311c-0.004,0.028-0.02,0.04-0.048,0.033"/>
	<path d="M371.189,167.079c-0.273-0.171,0.778-2.225,1.006-2.576c0.376-0.589,0.87-1.641,1.57-1.745
		c0.396-0.057,0.688,0.204,1.024-0.075c0.253-0.208,0.333-0.662,0.219-0.945c-0.207-0.514-0.367-0.168-0.68-0.299
		c-0.361-0.152-0.424-0.534-0.274-0.83c0.134-0.264,0.5-0.333,0.595-0.695c0.09-0.348,0.041-0.812-0.337-0.967
		c-0.855-0.349-0.71,1.134-1.375-0.064c-0.381-0.686-1.133-1.318-1.958-1.139c-0.665,0.146-1.462,1.113-0.956,1.805
		c0.721,0.988,1.85-0.405,0.675-0.553c-0.001-0.432,0.514-0.607,0.896-0.504c0.413,0.111,0.565,0.443,0.699,0.84
		c0.107,0.324-0.001,0.814,0.422,0.91c0.424,0.096,0.573-0.5,1.055-0.316c0.119,0.668-0.481,0.398-0.662,0.87
		c-0.154,0.401,0.284,0.562,0.485,0.848c0.271,0.386,0.356,0.558-0.128,0.653c-0.56,0.111-0.72-0.062-1.104,0.498
		c-0.408,0.591-1.905,4.809-1.168,4.964c0.032-0.083,0.029-0.153,0.038-0.243"/>
	<path fill="#FFFFFF" d="M381.635,178.591c-0.574,0.785-0.295,1.824-0.518,2.758c-0.247,1.037-0.857,2.215-1.388,3.168
		c-1.048,1.875-2.197,3.76-3.818,5.166c-3.584,3.102-6.619,3.493-11.178,3.047c-2.198-0.215-4.577-0.491-6.455-1.643
		c-2.235-1.368-2.689-4.025-3.776-6.219c-0.48-0.969-1.29-2.082-1.425-3.201c-0.147-1.246,0.32-2.732,0.347-3.991
		c0.04-1.985,0.124-3.961,0.936-5.823c0.669-1.535,1.975-2.514,2.638-3.994c-0.282,2.376,0.954,4.169,0.896,6.372
		c-0.024,0.948-0.778,2.329,1.099,1.851c0.598-0.152,1.701-1.506,1.764-2.051c1.016,0.77,1.254,1.946,1.882,3.031
		c0.223,0.387,0.383,0.921,0.771,1.215c0.16,0.121,0.275,0.497,0.448,0.571c0.392,0.167,0.639-0.394,0.788-0.337
		c2.643,1.025,3.682,4.764,6.88,2.729c0.962-0.613,1.649-1.353,2.717-1.773c1.46-0.572,1.962-0.007,3.503,0.031
		c2.764,0.072,4.309-2.785,4.077-5.395c-0.136,1.378-0.4,2.615-0.64,3.936c-0.261,1.438-1.045,2.81-1.174,4.213"/>
</g>
<path fill="#245977" d="M406.551,202.174c0.641,0.315,1.386,0.575,1.984,0.958c0.625,0.397,1.124,1.128,1.611,1.518
	c1.227,0.98,2.547,1.83,3.676,2.975c1.292,1.309,2.828,2.352,4.01,3.761c4.319,5.151,10.886,8.833,8.768,16.771
	c-1.153,4.319-5.503,6.669-8.746,9.562c-7.62,6.796-15.413,10.648-25.173,13.993c-14.119,4.839-29.417,6.815-43.553,11.886
	c-5.08,1.822-10.06,3.482-14.214,6.992c-3.405,2.875-11.295,10.214-6.113,1.094c-2.487,0.041-4.521,2.918-7.127,1.902
	c1.776-4.497,10.282-4.551,10.817-8.395c-1.888,0.044-10.198,2.572-5.37-1.799c1.63-1.476,7.196-1.438,9.271-1.509
	c2.691-3.268-2.591-3.138-2.357-5.725c0.352-3.879,4.091,0.261,5.314,0.846c5.243,2.507,10.479-0.707,15.304-3.03
	c6.89-3.321,13.548-6.391,20.454-9.646c9.672-4.562,23.395-6.828,30.561-15.35c0.704-0.835,1.83-1.41,2.307-2.422
	c1.18-2.508-2.131-5.068-3.424-6.725c-0.749-0.96-1.913-1.676-2.678-2.58c-0.709-0.838-2.009-1.547-2.317-2.703
	c-0.158-0.592-0.064-1.762,0.072-2.352c0.162-0.699,0.303-1.416,0.636-2.068c0.793-1.553,1.541-3.129,2.311-4.693
	c0.307-0.619,0.557-1.361,1.011-1.869c0.441-0.492,1.191-0.548,1.803-0.79c0.991-0.394,3.209-1.034,4.174-0.302"/>
<path fill="#FFFFFF" d="M330.232,233.228c-0.051,0.09-0.198,0.117-0.285,0.158c-0.204,0.092-0.39,0.226-0.601,0.305
	c-0.467,0.175-0.943,0.364-1.434,0.469c-0.22,0.047-0.43,0.139-0.649,0.188c-0.193,0.043-0.377,0.086-0.571,0.109
	c-0.199,0.027-0.378,0.09-0.564,0.149c-0.011,0.056,0.036,0.083,0.052,0.136c0.011,0.031,0.011,0.064,0.001,0.098
	c0.007,0.053,0.027,0.08,0.041,0.132c0.018,0.064,0.016,0.149,0.023,0.217c0.013,0.101,0.042,0.2,0.071,0.296
	c0.062,0.197,0.163,0.402,0.296,0.56c0.087,0.104,0.205,0.165,0.299,0.262c0.084,0.084,0.195,0.17,0.298,0.229
	c0.307,0.182,0.675,0.296,1.022,0.265c0.182-0.017,0.385,0.009,0.557-0.056c0.152-0.057,0.298-0.133,0.436-0.211
	c0.116-0.065,0.159-0.15,0.217-0.271c0.039-0.084,0.076-0.188,0.096-0.278c0.009-0.039,0.001-0.076,0.013-0.114
	c0.013-0.046,0.045-0.08,0.056-0.13c0.085-0.348,0.157-0.698,0.31-1.022c0.037-0.082,0.041-0.164,0.075-0.245
	c0.034-0.079,0.079-0.156,0.117-0.233c0.087-0.176,0.159-0.375,0.286-0.518c0.046-0.051,0.055-0.117,0.093-0.172
	c0.048-0.068,0.128-0.125,0.187-0.188c0.085-0.089,0.193-0.168,0.214-0.303c-0.037-0.002-0.07,0.016-0.107-0.017"/>
<path d="M330.777,232.792c-0.048,0.011-0.076,0.041-0.119,0.057c-0.051,0.018-0.136,0.028-0.186,0.041
	c-0.158,0.037-0.309,0.082-0.462,0.136c-0.146,0.05-0.308,0.067-0.448,0.13c-0.189,0.085-0.383,0.174-0.578,0.248
	c-0.177,0.065-0.317,0.174-0.506,0.211c-0.08,0.016-0.14,0.059-0.215,0.088c-0.147,0.057-0.299,0.102-0.448,0.151
	c-0.15,0.052-0.302,0.104-0.453,0.155c-0.094,0.03-0.168,0.082-0.259,0.115c-0.11,0.041-0.216,0.059-0.33,0.082
	c-0.138,0.029-0.27,0.104-0.403,0.135c-0.099,0.023-0.229,0.018-0.332,0.014c-0.049-0.002-0.068-0.014-0.112-0.025
	c-0.046-0.012-0.072-0.002-0.114-0.012c-0.036-0.01-0.061-0.035-0.099-0.041c-0.014-0.004-0.062,0.002-0.081,0.001
	c-0.041-0.001-0.046,0.019-0.09-0.01c-0.04-0.026-0.015-0.079-0.079-0.078c-0.092,0.097,0.343,0.299,0.417,0.315
	c0.085,0.02,0.191,0.014,0.279,0.022c0.053,0.005,0.104,0.028,0.151,0.034c0.042,0.005,0.076-0.02,0.121-0.01
	c-0.006,0.068-0.146,0.146-0.203,0.174c-0.091,0.046-0.194,0.105-0.291,0.148c-0.1,0.043-0.224,0.043-0.328,0.074
	c-0.089,0.028-0.223,0.04-0.285,0.109c0.205,0.193,0.429,0.031,0.635-0.061c0.094-0.043,0.168-0.085,0.271-0.105
	c0.094-0.02,0.185-0.049,0.275-0.08c0.186-0.062,0.34-0.188,0.53-0.234c0.086-0.021,0.166-0.062,0.253-0.072
	c0.107-0.015,0.212-0.051,0.322-0.076c0.269-0.064,0.521-0.162,0.783-0.238c0.13-0.037,0.27-0.086,0.392-0.145
	c0.078-0.039,0.153-0.095,0.231-0.137c0.086-0.047,0.188-0.074,0.271-0.125c0.2-0.123,0.392-0.223,0.615-0.307
	c0.064-0.023,0.103-0.049,0.156-0.088c0.061-0.044,0.13-0.064,0.195-0.102c0.051-0.027,0.205-0.076,0.222-0.135
	c-0.053,0.099-0.089,0.218-0.159,0.304c-0.078,0.094-0.126,0.19-0.182,0.303c-0.063,0.129-0.104,0.247-0.146,0.383
	c-0.015,0.046-0.044,0.081-0.055,0.127c-0.012,0.044-0.005,0.071-0.031,0.126c-0.07,0.143-0.078,0.305-0.138,0.453
	c-0.063,0.16-0.158,0.316-0.234,0.471c-0.057,0.116-0.114,0.232-0.172,0.349c-0.073,0.147-0.1,0.288-0.172,0.435
	c-0.09,0.18-0.163,0.425-0.337,0.539c-0.068,0.043-0.174,0.08-0.253,0.07c-0.05-0.006-0.105-0.012-0.153-0.023
	c-0.075-0.019-0.146-0.023-0.224-0.037c-0.212-0.035-0.406-0.143-0.599-0.245c-0.09-0.048-0.16-0.118-0.221-0.191
	c-0.079-0.093-0.192-0.165-0.25-0.272c0.045,0.12,0.148,0.229,0.208,0.344c0.059,0.111,0.144,0.193,0.234,0.281
	c0.095,0.091,0.184,0.163,0.305,0.223c0.145,0.07,0.289,0.141,0.433,0.213c0.227,0.115,0.566-0.044,0.775-0.152
	c0.313-0.164,0.492-0.408,0.646-0.721c0.151-0.307,0.341-0.615,0.432-0.939c0.05-0.18,0.12-0.348,0.169-0.529
	c0.026-0.101,0.07-0.199,0.077-0.303c0.007-0.08,0.019-0.155,0.032-0.234c0.019-0.113,0.021-0.236,0.046-0.348
	c0.027-0.124,0.071-0.242,0.097-0.365c0.012-0.051,0.041-0.09,0.052-0.141c0.015-0.064,0.015-0.118,0.054-0.178
	c0.053-0.08,0.115-0.105,0.192-0.154c0.025-0.027,0.055-0.053,0.086-0.074c0.04-0.025,0.098-0.023,0.12-0.074"/>
<path d="M326.575,234.774c-0.06,0.243-0.095,0.513,0,0.754c0.108,0.276,0.205,0.566,0.443,0.756
	c0.193,0.152,0.439,0.248,0.662,0.357c0.224,0.109,0.473,0.249,0.73,0.196c0.49-0.101,0.748-0.71,0.464-1.132
	c-0.208-0.307-0.433-0.577-0.756-0.783c-0.157-0.101-0.327-0.176-0.507-0.219c-0.09-0.02-0.211-0.059-0.301-0.014
	c-0.074,0.037-0.073,0.135-0.155,0.163"/>
<path fill="#245977" d="M495.336,260.188c-0.424-0.203-0.85-0.404-1.299-0.569c-2.082-0.772-4.746-1.312-6.597,0.233
	c-0.86,0.719-1.691,1.562-2.194,2.56c-0.429,0.851-0.744,1.829-1.455,2.476c-1.182,1.076-3.077,1.688-4.555,2.205
	c-2.188,0.768-4.306,1.112-6.607,1.428c-4.236,0.581-8.443-0.037-12.636-0.682c-5.15-0.793-10.364-1.359-15.567-0.746
	c-3.672,0.432-6.938,1.939-10.198,3.54c-1.277,0.628-2.561,1.224-3.918,1.624c-1.27,0.375-2.708,1.048-4.04,1.098
	c-1.47,0.054-3.285-0.992-2.539-2.532c1.026-2.118,3.225-3.376,5.323-4.228c2.065-0.838,4.188-1.717,6.328-2.322
	c4.251-1.205,9.142-1.494,12.857-4.101c7.154-5.02,2.845-14.11-1.631-19.355c-1.883-2.207-5.134-6.292-8.229-6.04
	c-3.44,0.283-9.15,6.151-11.688,8.353c-3.155,2.737-5.995,5.792-9.002,8.688c-3.04,2.93-5.781,6.149-8.822,9.106
	c-4.392,4.269-8.84,8.739-12.49,13.666c-2.617,3.535-6.202,7.625-5.139,12.255c0.592,2.574,2.079,4.668,3.435,6.927
	c1.483,2.472,4.561,2.924,7.299,3.329c4.149,0.616,7.761,0.172,11.827-0.875c4.206-1.082,8.366-2.469,12.519-3.721
	c4.201-1.267,8.148-2.982,12.292-4.355c3.551-1.177,7.097-2.182,10.73-3.067c1.311-0.319,2.605-0.584,3.903-0.942
	c1.48-0.409,3.063-0.408,4.577-0.498c2.062-0.122,4.164-0.635,6.197-0.992c4.237-0.746,8.458-1.587,12.649-2.557
	c7.117-1.648,14.455-2.16,21.735-2.393c1.458-0.047,2.89-0.543,4.296-0.883c1.426-0.344,2.621-0.472,4.105-0.48
	c1.043-0.008,2.14-0.09,3.112,0.303c1.519,0.613,3.293,1.754,4.907,1.713c2.374-0.062,0.337-2.701-0.236-3.589
	c-0.61-0.942-0.247-1.767,0.929-1.431c0.979,0.279,1.739,1.047,2.61,1.501c0.86,0.448,1.914,0.535,2.326-0.526
	c0.46-1.187-0.634-2.508-1.556-3.17c-0.79-0.566-2.757-1.135-3.018-2.137c-0.343-1.318,1.148-1.41,1.963-1.332
	c0.88,0.084,3.053,0.148,3.451-0.993c0.356-1.02-1.531-1.827-2.269-1.979c-0.902-0.187-2.709,0.336-3.227-0.727
	c-0.616-1.269,1.614-1.598,2.377-1.945c1.822-0.831,3.392-2.584,2.897-4.764c-0.506-2.234-4.062-4.939-6.13-3.135
	c-1.327,1.16-1.521,3.275-3.031,4.269c-1.049,0.69-2.257,0.377-3.426,0.423c-1.513,0.061-2.856,1.101-4.215,1.705
	c-2.158,0.959-5.629,1.102-7.81,0.186C496.075,260.546,495.706,260.366,495.336,260.188z"/>
<path fill="#245977" d="M406.298,256.951c-1.824,1.285-3.589,2.627-5.259,4.064c-1.147,0.988-2.177,1.679-3.469,2.478
	c-2.707,1.672-4.804,4.337-7.468,6.107c-3.512,2.338-7.764,3.311-11.206,5.688c-3.863,2.668-6.062,6.412-8.908,9.932
	c-2.532,3.128-5.429,5.221-8.651,7.271c-6.507,4.14-12.926,8.58-19.298,12.877c-2.303,1.553-4.521,2.996-6.993,4.279
	c-1.971,1.024-4.206,2.145-6.439,2.221c-1.734,0.059-3.278,0.62-4.678,1.596c-1.104,0.769-2.833,0.626-4.153,0.701
	c-1.732,0.098-3.178,0.753-4.778,1.482c-0.771,0.352-1.541,0.625-2.368,0.828c-0.188-0.047-0.377-0.086-0.569-0.115
	c-0.133,0.14-0.26,0.286-0.379,0.438c-0.227,0.101-0.484,0.142-0.718,0.227c-0.816,0.296-1.095,0.817-1.932,0.535
	c-0.753-0.253-1.52-0.742-2.229-1.104c-0.731-0.374-1.99-0.922-2.395-0.004c-0.285,0.647-0.163,1.717,0.017,2.385
	c0.18,0.664,0.857,1.387,0.885,2.093c0.046,1.193-0.724,1.161-1.485,0.767c-0.76-0.393-1.588-0.965-2.41-0.907
	c-1.036,0.073-1.408,0.921-0.876,1.776c0.335,0.538,1.377,1.213,1.48,1.873c0.09,0.579-0.922,1.178-1.201,1.643
	c-0.576-0.229-1.144-0.318-1.722-0.396c-0.521-0.07-0.76-0.291-1.309,0.037c-1.096,0.656-1.348,2.416-0.266,3.143
	c0.246,0.165,0.685,0.382,0.967,0.479c0.301,0.102,0.609,0.03,0.821,0.09c0.811,0.225,0.853,0.235,0.614,0.994
	c-0.359,1.145-1.614,1.773-1.916,3.033c-0.179,0.744-0.091,2.387,0.158,3.125c0.43,1.272,1.969,1.287,3.012,0.697
	c1.053-0.598,2.241-1.119,3.117-1.92c0.845-0.773,1.492-1.775,2.281-2.449c0.864-0.736,1.791-1.654,2.633-2.331
	c1.071-0.859,2.49-1.089,3.816-1.298c2.429-0.383,5.134,0.135,7.165,1.645c0.737,0.547,1.146,1.135,2.092,1.357
	c0.594,0.141,1.41,0.198,1.919,0.331c1.164,0.304,2.32,0.46,3.259-0.563c2.303-2.507,2.109-6.068,5.009-8.457
	c2.954-2.434,7.166-3.168,10.608-4.661c18.164-7.886,33.789-20.569,51.729-29.065c7.343-3.477,15.371-5.455,22.457-9.497
	c4.626-2.642,8.233-6.579,12.389-9.841c4.588-3.599,9.934-5.633,14.856-8.67c5.359-3.308,10.551-9.058,4.937-14.67
	C436.503,234.253,416.945,249.442,406.298,256.951z"/>
</svg>
