<?xml version="1.0" encoding="utf-8"?>
<!-- Generator: Adobe Illustrator 16.0.4, SVG Export Plug-In . SVG Version: 6.00 Build 0)  -->
<!DOCTYPE svg PUBLIC "-//W3C//DTD SVG 1.1//EN" "http://www.w3.org/Graphics/SVG/1.1/DTD/svg11.dtd">
<svg version="1.1" id="Ebene_1" xmlns="http://www.w3.org/2000/svg" xmlns:xlink="http://www.w3.org/1999/xlink" x="0px" y="0px"
	 width="283.46px" height="425.2px" viewBox="0 0 283.46 425.2" enable-background="new 0 0 283.46 425.2" xml:space="preserve">
<path fill="#245977" d="M185.864,159.579c0.165-0.166,0.358-0.338,0.492-0.532c0.077-0.112,0.103-0.266,0.189-0.367
	c0.204-0.243,0.71-0.29,0.971-0.123c0.315,0.199,0.442,0.649,0.725,0.906c0.724,0.659,1.704,0.908,2.509,1.438
	c1.937,1.278,3.506,2.768,5.489,3.943c1.481,0.879,2.641,2.165,4.103,3.076c1.054,0.658,2.137,1.157,3.069,2
	c1.447,1.31,2.804,2.786,3.954,4.356c2.13,2.905,4.02,5.588,5.259,9.031c1.133,3.149,1.38,7.343,0.988,10.726
	c-0.782,6.762-2.674,12.802-6.264,18.605c-1.701,2.749-3.444,5.232-5.937,7.364c-3.104,2.654-6.706,4.677-10,7.098
	c-1.937,1.423-4.017,3.435-6.229,4.321c0.063-0.985-0.856-2.233-1.312-3.078c-0.826-1.53-0.809-1.614,0.889-2.337
	c3.401-1.448,6.141-3.265,8.67-5.919c4.973-5.221,9.14-11.011,10.299-18.202c1.131-7.021,0.738-14.891-3.665-20.538
	c-2.544-3.264-6.368-6.161-9.567-8.76c-2.295-1.865-5.483-2.679-8.027-3.768c-0.708-0.303-1.201-0.786-1.953-0.983
	c-0.231-1.142,1.017-2.523,1.535-3.361c0.639-1.028,0.969-2.042,1.81-2.97C184.47,160.834,185.218,160.231,185.864,159.579"/>
<path d="M156.842,119.188c-2.205-1.435,2.98-7.777,3.988-8.927c1.924-2.193,3.723-4.355,5.446-6.716
	c1.151-1.576,2.562-3.02,2.545-5.102c-0.014-1.875-1.81-4.321-0.408-6.051c1.24-1.531,3.74,0.04,4.345-2.097
	c0.265-0.929,0.066-2.145,0.066-3.11c0-2.195-0.121-4.79,2.66-5.051c1.178-0.11,4.031,0.239,4.914,1.01
	c0.466,0.405,0.459,1.109,0.798,1.612c0.45,0.668,1.35,1.539,1.919,2.185c3.168,3.597,4.27-0.471,6.702-2.353
	c1.611-1.249,3.409-0.709,5.191-0.346c1.501,0.307,3.353,0.403,4.741,1.179c3.179,1.78,4.754,8.924,9.659,6.9
	c4.463-1.843-0.635-5.771-2.777-6.818c-2.347-1.149-4.82-1.809-7.053-3.176c-1.974-1.209-1.623-1.771-0.094-2.792
	c1.502-1.003,1.54-1.792,0.58-3.446c-0.715-1.232-1.86-2.896-3.304-3.296c-1.2-0.332-9.459-0.774-8.604-3.045
	c1.556,0.048,2.765-1.211,4.223-1.451c0.688-3.001-6.174-2.412-7.62-1.699c-2.195,1.083-3.047,3.469-5.922,3.033
	c0.697-0.917-0.056-3.154-1.012-3.654c-1.223-0.64-4.282,0.225-5.341,0.95c-1.286,0.878-1.107,2.84-1.328,4.455
	c-0.133,0.97,0.411,2.496,0.03,3.369c-0.357,0.82-1.437,1.227-2.265,1.589c-0.941,0.411-1.949,0.652-2.683,1.421
	c-0.511,0.537-0.544,0.922-1.316,1.44c-0.733,0.491-1.485,0.919-2.148,1.504c-0.548,0.484-0.955,1.426-1.569,1.799
	c-2.429,1.47-2.486-1.584-3.072-3.042c-0.518-1.291-1.888-3.075-2.999-3.919c-0.393-0.298-2.87-1.917-3.167-1.845
	c-0.308,0.077-0.681,0.337-1.015,0.442c-0.479,0.151-0.952,0.311-1.44,0.417c-1.09,0.235-2.313,0.09-3.415-0.115
	c-1.32-0.247-2.455-0.193-3.703,0.295c-0.564,0.221-1.123,0.504-1.725,0.602c-0.265,0.041-0.534,0.102-0.634-0.147
	c-0.12-0.297,0.123-0.953,0.183-1.256c0.088-0.445,0.366-1.191,0.228-1.649c-0.258-0.856-1.271-0.748-1.942-0.835
	c-0.08-0.241,0.152-0.617,0.149-0.892c-0.002-0.393,0.064-0.768-0.259-1.05c-0.269-0.234-0.62-0.226-0.719-0.676
	c-0.098-0.446,0.266-0.618,0.513-0.899c0.47-0.535,0.649-1.364,0.325-2.039c-0.237-0.493-0.964-1.499-1.504-0.765
	c-0.228,0.312-0.155,0.692-0.365,0.996c-0.198,0.283-0.542,0.347-0.833,0.507c-0.325,0.178-0.749,0.347-1.04,0.58
	c-0.338,0.273-0.45,0.721-0.749,1.046c-0.259,0.283-0.375,0.541-0.505,0.889c-0.12,0.322-0.175,0.528-0.551,0.593
	c-0.563,0.099-1.128-0.095-1.685,0.102c-0.371,0.131-0.893,0.736-1.236,0.563c-0.408-0.204-0.369-1.319-0.331-1.676
	c0.06-0.586,0.483-1.057,0.594-1.643c0.091-0.481-0.146-0.758-0.589-0.947c-0.769-0.333-0.3,0.334-0.711,0.581
	c-0.157,0.095-0.663-0.034-0.85-0.12c-0.442-0.203-0.44-0.743-0.875-0.914c-0.476-0.188-0.911,0.21-0.98,0.684
	c-0.066,0.456,0.226,0.846,0.158,1.301c-0.247,0.059-0.515-0.345-0.636-0.526c-0.38-0.566-0.458-1.342-0.493-2.011
	c-0.019-0.404,0.036-0.749-0.099-1.132c-0.138-0.394-0.363-0.768-0.625-1.089c-0.494-0.605-1.101-0.511-1.559,0.118
	c-0.73,1-0.813,2.13-0.211,3.193c0.628,1.114,1.694,3.004,0.72,4.249c-0.367,0.47-1.014,0.598-1.252,1.171
	c-0.14,0.334-0.011,0.708-0.055,1.056c-0.024,0.191-0.086,0.348-0.095,0.561c-0.598,0.07-1.259-0.299-1.756,0.175
	c-0.446,0.425-0.786,1.014-1.241,1.45c0-0.035,0.001-0.068,0.005-0.102c-0.178,0.501-0.324,1.002-0.406,1.531
	c-0.114,0.738-0.308,1.113-1.131,0.827c-0.557-0.196-0.827-0.957-1.391-1.055c-0.132,0.887,0.733,1.667,0.555,2.583
	c-1.173-0.196-1.702-3.734-2.796-1.438c-0.458,0.965-0.638,2.149-1.496,2.865c-0.277,0.231-0.928,0.614-1.164,0.143
	c1.247,0.629,1.979,2.077,3.171,2.846c0.752,0.485,1.696,0.818,2.194,1.613c1.202,1.917-0.171,3.272-0.967,4.919
	c-0.887,1.836-0.485,2.847-2.697,2.605c-1.226-0.134-3.334-0.261-4.407,0.394c-1.504,0.919-1.07,2.644-2.146,3.751
	c-0.374,0.385-2.194,1.454-2.739,1.597c-0.401,0.104-0.983-0.191-1.363-0.041c-0.409,0.163-0.27,0.486-0.63,0.698
	c-0.953,0.563-1.336,1.159-2.618,1.023c-1.798-0.19-2.017-1.5-2.955-2.722c-0.691-0.902-2.599-1.712-3.678-0.924
	c-0.984,0.717-0.287,3.052-0.078,3.984c0.386,1.718-0.453,2.065-2.273,2.344c-2.126,0.328-3.384-0.438-5.1-1.51
	c-1.551-0.968-2.968-1.793-4.576-0.439c-1.228,1.033-1.307,2.468-0.338,3.631c1.146,1.376,3.327,2.171,4.996,1.418
	c1.202-0.542,1.473-1.852,2.974-2.116c2.574-0.452,7.241-0.47,8.703,1.673c1.307,1.915,2.444,2.727,4.667,2.978
	c1.25,0.14,3.072,0.356,4.236-0.157c1.622-0.712,2.008-3.234,3.647-3.821c2.045-0.733,5.017,0.147,6.594,1.425
	c1.591,1.286,1.45,3.726,1.444,5.625c-0.011,3.471,0.024,6.715,0.731,10.139c0.481,2.333,1.502,4.97,2.904,6.898
	c1.26,1.733,3.247,2.05,4.618,3.355c-1.713-1.308-1.109-4.705-1.305-6.673c-0.351-3.503-0.405-7.188-0.026-10.761
	c0.318-3.029,0.749-6.062,0.749-9.204c0-1.478-0.089-3.001,0.082-4.454c0.073-0.629,0.014-2.853,0.338-3.355
	c0.532-0.828,2.125-0.589,2.934-0.694c1.945-0.253,3.95-0.797,5.879-1.127c2.921-0.5,5.938-1.265,8.742-1.765
	c2.08-0.373,2.368,1.042,3.627,2.249c2.562,2.454,7.253,2.164,7.988,6.58c0.241,1.45-0.187,2.814,0.253,4.278
	c0.619,2.061,2.108,4.147,1.584,6.423c-0.091,0.401-0.588,0.799-0.666,1.174c-0.149,0.713,0.041,1.454-0.193,2.134
	c-0.56-0.002-1.01-0.249-1.352-0.739"/>
<path fill="#245977" d="M119.436,369.948c-0.821,2.397-1.601,4.758-2.494,7.116c-0.449,1.187-2.516,3.634-1.719,4.958
	c0.542,0.902,1.857,0.883,2.736,1.127c0.802,0.222,1.25,0.718,1.98,1.033c2.19,0.945,4.238,1.156,6.646,0.806
	c1.828-0.265,1.826-1.062,1.472-2.597c-0.541-2.33-1.706-4.754-1.303-7.199c0.414-2.521,1.938-4.82,2.775-7.21
	c1.404-4.01,2.77-7.944,4.353-11.917c1.093-2.745,2.461-5.354,3.363-8.182c1.013-3.181,2.069-6.722,3.694-9.636
	c1.445-2.59,2.109-5.594,3.511-8.231c1.365-2.572,1.047-3.606,0.51-6.344c-1.127-5.727,3.486-10.622-0.335-15.705
	c-1.639-2.182-2.902-5.009-4.209-7.395c-1.832-3.34-3.266-3.071-7.099-2.141c-3.499,0.848-2.671,2.576-2.734,6.154
	c-0.073,4.266,1.387,8.111,1.886,11.961c0.695,5.375,2.477,11.413,1.071,16.807c-0.762,2.925-2.962,5.164-4.212,7.899
	c-2.024,4.427-3.064,9.459-4.417,14.132c-0.6,2.074-2.009,3.645-2.685,5.691C121.252,364.021,120.439,367.015,119.436,369.948"/>
<path d="M167.416,148.34c-0.823,2.186,0.174,5.902,0.832,8.14c0.5,1.694,1.238,3.46,1.451,5.219
	c0.165,1.346-0.387,2.582-0.466,3.908c-0.107,1.838,0.735,3.848,1.312,5.559c0.593,1.758,1.239,3.501,1.682,5.305
	c0.448,1.82,0.977,3.648,1.418,5.477c0.465,1.935,0.125,3.971-0.214,5.864c-0.712,3.958-3.268,7.068-5.99,9.773
	c-1.684,1.674-2.882,3.375-2.746,5.843c0.078,1.39,0.432,2.785,0.999,4.05c0.731,1.631,1.72,3.535,3.069,4.722
	c1.362,1.197,3.068,1.97,4.774,2.514c3.167,1.008,7.13,1.587,10.358,0.511c2.293-0.765,7.279-5.114,9.833-3.224
	c2.21,1.634,1.226,6.049,1.58,8.49c4.092,1.996,8.431-1.319,12.508,0.069c4.979,1.696,2.91,8.725,3.425,12.726
	c3.763,0.539,9.999-0.989,12.385,2.795c2.261,3.584,1.567,8.064,2.227,12.004c6.842-1.15,3.52,23.855-0.748,26.494
	c-3.116,1.927-3.274,1.253-3.965,5.248c-0.485,2.795-0.889,6.604-2.197,9.393c-1.386,2.954-3.271,4.379-5.811,6.212
	c-2.457,1.773-3.093,1.466-5.979,1.852c-5.861,0.783-5.78,7.297-7.793,11.75c-1.174,2.599-2.054,3.858-4.833,4.405
	c-3.244,0.639-3.496,0.241-5.962,2.693c-1.998,1.988-3.266,2.084-5.997,1.999c-1.657-0.051-4.725-1.765-5.999-1.409
	c-1.698,0.476-2.303,2.714-3.659,3.677c-2.072,1.472-4.757,1.15-7.167,1.094c-4.866-0.111-9.692-0.571-14.547-0.903
	c-4.792-0.329-9.597-0.502-14.382-0.92c-3.84-0.336-7.637,0.607-11.192,0.209c-5.408-0.604-11.179-7.169-13.892-11.544
	c-2.001-3.226-2.79-9.309-5.634-11.896c-2.263-2.057-5.258-0.577-8.417-1.338c-8.502-2.048-11.832-12.306-11.76-20.047
	c0.022-2.421,0.57-5.705,0.02-8.045c-0.742-3.146-3.984-4.85-6.047-7.602c-5.354-7.146-5.294-14.202-5.932-22.691
	c-0.264-3.515-2.137-6.344-2.848-9.683c-0.645-3.034-1.467-6.037-2.131-9.09c-0.998-4.59-1.267-9.332-2.739-13.795
	c-0.789-2.39-2.131-4.283-3.545-6.354c-1.788-2.616-2.603-5.579-2.676-8.77c-0.099-4.265,3.309-9.951,6.666-12.462
	c1.265-0.947,2.786-1.643,4.29-2.071c2.138-0.608,4.107,0.917,4.331,3.34c-0.56-3.732,2.762-3.515,4.979-2.256
	c1.938,1.101,4.853,3.583,4.301,6.294c1.283-2.737,4.242-2.793,6.69-0.912c1.576,1.211,2.642,3.173,3.216,5.047
	c0.234,0.76,0.156,2.449,0.724,2.911c3.297-2.373,4.771,3.688,5.407,5.835c0.647,2.187,1.116,1.483,2.915,1.085
	c1.237-0.274,2.802,0.256,3.994,0.596c2.64,0.756,4.121,3.771,6.33,5.274c1.001,0.681,1.796,1.668,2.82,2.289
	c1.247,0.756,2.817,0.9,4.237,0.9c1.385,0,2.559,0.008,3.866-0.463c1.099-0.396,1.965-0.77,2.896-1.557
	c1.836-1.554,2.89-3.825,4.431-5.619c1.685-1.96,1.639-4.672,0.21-6.752c-1.233-1.796-2.808-3.343-3.615-5.408
	c-0.856-2.185-0.594-4.687-0.581-7.044c0.022-4.081-3.12-4.581-5.595-6.936c-0.309-0.295-0.531-0.559-0.922-0.757
	c-0.588-0.298-1.199-0.554-1.795-0.839c-2.029-0.967-4.139-1.658-6.238-2.429c-1.821-0.668-4.043-1.381-6.02-1.311
	c0.353-2.331,2.286-4.342,2.641-6.675c0.396-2.591,0.185-5.587,1.37-8.013c1.425-0.195,2.737,0.382,4.003,0.539
	c1.53,0.189,3.17,0.079,4.731,0.076c1.53-0.004,3.056,0.16,4.569,0.373c0.755,0.107,1.506,0.227,2.261,0.346
	c0.379,0.059,0.756,0.12,1.137,0.177c0.085,0.012,0.187,0.012,0.27,0.04c0.044,0.016,0.061,0.076,0.095,0.085
	c0.171,0.05,0.365,0.002,0.545,0.019c0.3,0.027,0.592,0.099,0.906,0.098c1.041-0.006,2.077,0.057,3.115,0.135
	c0.807,0.061,1.623,0.06,2.432,0.06c0.877,0,1.743,0.056,2.62,0.05c1.116-0.007,2.229-0.201,3.291-0.539
	c0.76-0.243,1.534-0.542,2.312-0.717c0.828-0.187,1.661-0.417,2.477-0.66c1.176-0.351,2.331-0.778,3.526-1.012
	c0.934-0.181,1.87-0.216,2.814-0.305c0.766-0.072,1.554-0.071,2.322-0.009c0.587,0.047,1.221,0.202,1.8,0.027
	c0.437-0.133,0.818-0.43,1.229-0.624c0.539-0.252,1.181-0.481,1.502-1.027c0.563-0.956-0.579-1.331,1.199-1.402
	C161.353,146.795,167.393,148.4,167.416,148.34"/>
<path fill="#245977" d="M156.835,105.53c-0.022-0.792-0.042-1.582-0.039-2.376c0.008-2.965-0.594-5.983-1.819-8.681
	c-0.35-0.769-0.85-1.502-1.316-2.203c-0.637-0.958-1.161-1.287-2.03-1.925c-1.122-0.821-2.339-1.561-3.628-2.066
	c-1.701-0.665-3.615-1.399-5.398-1.773c-3.277-0.688-6.642-0.921-9.917-0.14c-2.396,0.571-4.674,1.64-6.523,3.303
	c-0.793,0.713-1.726,1.564-2.066,2.609c-0.364,1.117-0.645,2.268-1.036,3.381c-1.23,3.51-1.559,7.086-1.534,10.812
	c0.028,3.852,0.239,7.703,0.632,11.534c0.198,1.931,0.441,3.857,0.727,5.777c0.28,1.859,0.734,3.72,0.968,5.576
	c0.199,1.568,0.41,3.022,0.898,4.538c0.492,1.525,1.089,3.013,1.556,4.545c0.566,1.865,1.308,3.726,1.688,5.641
	c0.229,1.167,0.512,2.316,0.716,3.481c0.279,1.587,0.827,3.107,1.148,4.7c0.354,1.756,0.677,3.498,1.132,5.232
	c0.435,1.662,1.254,3.147,1.978,4.693c0.492,1.054,1.194,2.406,2.25,2.966c1.1,0.583,2.255,0.315,3.375,0.003
	c1.168-0.324,2.408-1.032,3.375-1.768c2.379-1.807,3.862-4.739,5.06-7.432c0.554-1.246,0.916-2.542,1.191-3.84
	c0.256-1.204,0.707-2.388,1.088-3.59c0.905-2.848,1.663-5.724,2.635-8.545c0.487-1.411,0.77-2.85,1.162-4.289
	c0.214-0.789,0.312-1.635,0.468-2.453c0.276-1.434,0.702-2.798,0.839-4.261c0.098-1.048,0.313-1.963,0.709-2.933
	c1.011-2.468,0.922-5.36,1.172-7.986c0.233-2.421,0.346-4.836,0.522-7.259C156.946,109.042,156.884,107.287,156.835,105.53"/>
<path d="M153.014,105.689c-2.354-1.319-4.263-6.531-7.674-4.86c-3.417,1.672-5.082,6.821-5.353,10.31
	c-0.271,3.481-0.207,7-0.207,10.514c0,2.174,0.021,4.381-0.161,6.539c-0.171,2.031-0.005,4.137-0.17,6.185
	c-0.055,0.68-0.208,1.313-0.153,2.031c1.581,0.517,0.993-2.661,0.993-3.581c0-2.142,0.343-4.221,0.339-6.364
	c-0.006-3.35,0.286-6.655,0.518-9.954c0.235-3.356,0.492-6.431,2.481-9.261c0.812-1.154,1.935-2.862,3.241-3.496
	c1.323-0.64,2.647,0.413,3.932,0.946c0.823,0.34,2.319,0.275,2.892,0.991"/>
<path fill="#245977" d="M175.75,109.296c-0.19,2.036,1.206,4.508,1.818,6.396c0.707,2.172,0.888,4.387,1.195,6.607
	c0.826,6.014,2.026,12.839,0.595,18.852c-1.848,7.771-3.366,15.394-6.475,22.755c-1.364,3.223-3.114,6.269-5.136,9.114
	c-0.867,1.224-1.648,2.719-2.516,3.856c-0.721,0.943-2.402,2.009-3.443,2.797c-1.659,1.253-3.542,2.303-5.25,3.438
	c-2.831,1.881-5.515,4.101-8.296,6.062c-2.906,2.047-7.319,3.019-10.724,3.941c-3.57,0.969-7.538,1.345-11.268,1.347
	c-3.373,0.001-7.299,0.466-10.557-0.253c-3.111-0.688-6.195-1.539-8.988-2.848c-4.779-2.239-9.366-4.182-13.536-7.408
	c-3.45-2.668-6.865-7.961-7.724-12.342c-0.543-2.773-0.655-5.502-0.655-8.348c0-3.51,1.487-6.928,4.644-8.735
	c1.376-0.788,2.847-1.088,4.342-1.411c1.242-0.268,2.339-0.848,3.639-1.026c1.492-0.204,3.142,0.009,4.649-0.001
	c1.498-0.01,3.009,0.317,4.41,0.654c0.757,0.181,1.545,0.205,2.306,0.372c0.361,0.08,0.827,0.167,1.114,0.419
	c0.145,0.128,0.218,0.202,0.401,0.28c0.174,0.074,0.323,0.15,0.367,0.355c0.08,0.379-0.096,0.884-0.139,1.261
	c-0.052,0.46-0.055,0.938-0.14,1.388c-0.078,0.407-0.147,0.848-0.19,1.256c-0.073,0.689-0.178,1.418-0.38,2.083
	c-0.1,0.328-0.215,0.665-0.324,0.977c-0.055,0.158-0.088,0.312-0.14,0.47c-0.042,0.129-0.134,0.281-0.136,0.416
	c0-0.037-0.147,0.101-0.147,0.101c-0.131,0.033-0.205-0.041-0.306-0.12c-0.182-0.147-0.298-0.182-0.52-0.249
	c-0.619-0.187-1.213-0.435-1.84-0.593c-4.427-1.121-13.32,0.749-14.651,6.045c-0.318,1.265,0.316,3.342,0.608,4.462
	c0.363,1.388,1.002,2.66,1.733,3.97c1.496,2.684,3.375,4.622,6.055,6.119c5.472,3.056,11.655,4.215,17.798,4.896
	c3.792,0.421,7.605,0.954,11.363,0.084c1.434-0.332,2.878-0.343,4.237-0.755c2.777-0.839,5.645-1.962,8.383-2.954
	c2.744-0.993,5.288-2.935,7.717-4.624c1.337-0.929,2.854-1.331,4.171-2.174c2.2-1.412,3.951-2.435,5.601-4.516
	c1.717-2.168,3.245-4.483,4.801-6.771c3.674-5.403,5.947-11.794,7.674-18.077c1.231-4.476,1.821-9.073,1.821-13.7
	c0-4.574-0.025-8.093-2.723-11.849c-0.511-0.711-2.023-1.952-2.244-2.698c-0.222-0.748,1.056-2.591,1.578-3.272
	c0.84-1.098,1.904-1.823,2.879-2.791c0.521-0.518,1.905-1.816,2.036-2.229"/>
<path fill="#FD1813" d="M163.237,95.77c-1.005-1.926-2.016-3.923-3.421-5.618c-1.668-2.01-3.646-2.502-5.991-1.333
	c-1.121,0.56-2.068,1.517-2.93,2.443c-0.879,0.943-1.749,2.098-1.272,3.435c0.314,0.884,1.449,2.186,2.517,1.863
	c0.111-1.305-0.311-4.268,1.723-4.28c3.366-0.023,1.775,3.398,0.811,4.984c-0.569,0.936-0.32,1.219-0.13,2.241
	c0.176,0.955,0.447,4.522,2.035,3.778c1.429-0.669,0.442-4.21,2.325-4.302c-3.566,0.206-0.052,9.02,2.812,6.582
	c1.187-1.009,0.17-2.746-1.202-2.302c0.24-0.078-0.2-1.452,0.934-1.154c0.517,3.61,2.488,7.35,3.926,10.674
	c0.611,1.412,0.915,2.894,1.414,4.337c0.161,0.47,0.518,0.979,0.579,1.473c0.076,0.619-0.297,1.181-0.178,1.799
	c2.012-1.025,4.296-2.057,6.029-3.546c1.491-1.28,2.442-2.531,3.611-4.082c0.885-1.176,2.043-2.72,3.647-2.822
	c-1.138-0.757-2.511-0.8-3.639-1.642c-0.957-0.714-1.781-1.561-2.821-2.16c-2.177-1.253-4.57-2.136-6.534-3.757
	C165.496,100.746,164.402,98.002,163.237,95.77"/>
<path d="M161.724,163.961c-0.786-0.07-1.785-0.276-2.538,0.039c-0.264,0.109-0.485,0.282-0.764,0.365
	c-0.438,0.134-0.88,0.21-1.303,0.399c-0.274,0.122-0.428,0.164-0.733,0.172c-0.22,0.005-0.422,0.084-0.643,0.06
	c-0.213-0.024-0.423-0.078-0.647-0.119c-1.076-0.196-1.938-1.204-2.695-1.944c-0.569-0.555-1.171-1.067-1.405-1.861
	c-0.169-0.582-0.319-1.168-0.485-1.748c-0.142-0.5-0.303-0.992-0.438-1.494c-0.077-0.289-0.133-0.528-0.354-0.744
	c-0.343-0.333-0.796-0.627-0.901-1.112c-0.118-0.547-0.42-1.041-0.594-1.572c-0.09-0.273-0.295-0.532-0.289-0.829
	c0.008-0.461,0.345-0.893,0.386-1.366c0.045-0.554,0.09-1.135,0.3-1.663c0.08-0.197,0.128-0.425,0.266-0.591
	c0.128-0.153,0.313-0.247,0.448-0.4c0.285-0.323,0.692-0.474,1.046-0.714c0.164-0.112,0.318-0.202,0.494-0.281
	c0.531-0.241,0.999-0.582,1.528-0.819c0.526-0.235,1.056-0.501,1.624-0.624c0.383-0.083,0.778-0.184,1.162-0.193
	c0.421-0.01,0.844-0.015,1.26-0.072c0.579-0.079,1.155-0.228,1.742-0.225c0.752,0.002,1.505,0.001,2.258,0
	c0.917-0.003,1.81,0.123,2.716,0.251c0.669,0.096,1.473,0.298,2.098,0.58c0.594,0.266,1.201,0.494,1.783,0.786
	c0.898,0.45,1.613,1.171,2.454,1.709c0.252,0.162,0.507,0.291,0.745,0.473c0.291,0.221,0.539,0.499,0.833,0.724
	c0.333,0.252,0.614,0.608,0.935,0.884c0.234,0.201,0.424,0.45,0.66,0.651c0.234,0.199,0.497,0.269,0.759,0.412
	c0.685,0.375,1.367,0.728,2.115,0.958c2.504,0.771,5.267,1.098,7.847,1.462c0.666,0.093,1.338,0.118,2.004,0.194
	c0.369,0.042,0.734,0.099,1.098,0.175c0.289,0.062,0.569-0.01,0.85,0.066c0.581,0.158,0.972,0.676,1.115,1.248
	c0.172,0.692-0.066,1.199-0.338,1.81c-0.665,1.496-1.722,2.768-2.696,4.062c-0.482,0.642-0.956,1.292-1.36,1.989
	c-1.002,1.726-1.665,3.717-2.418,5.552c-0.405,0.985-0.714,2.242-1.358,3.064c-1.96-0.886-3.632-2.815-5.539-3.882
	c-3.105-1.736-6.438-2.885-9.516-4.695C164.087,164.425,163.062,164.079,161.724,163.961"/>
<path d="M119.841,379.958c-0.8-0.376-1.566-0.846-2.315-1.311c-0.554-0.343-1.559-1.285-2.181-0.379
	c-0.358,0.52-0.218,1.08-0.273,1.655c-0.181,1.874-0.289,3.868,0.184,5.715c0.676,2.646,2.857,4.028,4.842,5.562
	c0.532,0.409,0.801,0.86,1.184,1.414c0.551,0.798,1.235,1.543,1.767,2.369c0.896,1.392,1.649,2.854,2.59,4.225
	c0.472,0.681,1.032,1.329,1.555,1.976c0.976,1.208,1.877,2.462,2.838,3.684c1.35,1.716,3.019,3.22,4.297,4.987
	c-0.036-1.181-0.31-2.278-0.317-3.47c-0.008-1.318-0.084-2.667-0.069-4.015c0.02-1.567-0.037-3.137-0.555-4.636
	c-0.596-1.73-0.929-3.555-1.357-5.317c-0.607-2.492-1.432-4.938-1.401-7.531c0.015-1.225,0.149-2.398,0.161-3.6
	c0.009-1.043,0.259-2.091,0.138-3.158c-0.431-0.063-0.651-0.037-1.032-0.237c-0.334-0.177-0.737-0.529-1.153-0.378
	c-0.284,0.101-0.569,0.511-0.881,0.651c-0.455,0.203-0.916-0.002-1.383,0.124c-0.684,0.185-0.85,1.114-1.162,1.663
	c-0.263,0.461-0.867,1.41-1.439,1.52c-0.605,0.116-1.423-0.775-2.036-0.94c-0.603-0.162-1.189-0.205-1.77-0.463
	C119.994,380.029,119.917,379.993,119.841,379.958"/>
<path d="M97.086,91.987c-0.186,0.096-0.337,0.174-0.523,0.269"/>
<path fill="#FD1813" d="M141.501,150.613c-1.051-0.21-0.916-1.777-1.899-2.145c-0.881-0.33-2.044,0.423-2.849,0.747
	c-1.335,0.537-1.234,0.855-2.281-0.444c-0.723-0.896-1.166-1.98-1.581-3.018c0.349,0.6,1.235,2.184,2.028,2.298
	c1.041,0.149,1.807-1.466,2.921-1.514c0.512-0.021,0.828,0.42,1.236,0.453c0.372,0.031,0.743-0.339,1.055-0.523
	c0.757-0.446,1.448-0.679,1.923,0.276c0.495,0.994-0.175,2.375,0.579,3.241c0.122,0.14,0.716,0.359,0.75,0.463
	c0.113,0.354-0.519,0.786-0.743,0.978c-0.48,0.416-1.001,0.823-1.597,1.051c-1.866,0.709-6.77,0.234-6.482-2.605"/>
<path d="M149.171,87.392c-1.676,1.076-2.487,2.815-4.667,1.767c-1.981-0.954-3.147-1.543-4.373,0.986
	c-0.45,0.932-0.428,2.013-1.278,2.7c-0.826,0.667-1.458,0.177-2.392,0.537c-1.242,0.478-3.536,2.53-3.733,3.873
	c0.029-1.66-0.407-3.847-0.011-5.444c0.346-1.396,2.311-3.329-0.71-2.937c-1.97,0.253-1.57,2.474-3.652,2.142
	c-0.941-0.15-1.474-1.048-2.566-0.59c-0.871,0.366-1.089,1.191-1.451,2.013c-1.642-1.619,0.882-4.278,2.082-5.221
	c2.689-2.116,6.21-3.968,9.623-4.27c2.742-0.243,5.101,0.402,7.651,1.118c2.227,0.623,5.26,0.174,4.017,3.327"/>
<path fill="#FD1813" d="M118.965,81.519c0.091-0.166,0.185-0.328,0.281-0.488c0.34-0.57,0.747-0.961,0.761-1.651
	c0.011-0.537-0.062-0.833,0.306-1.265c0.183-0.213,2.058-1.682,2.321-1.155c0.122,0.245,0.22,0.509,0.22,0.789
	c0.254,0.083,0.575-0.218,0.802-0.31c0.335-0.135,0.581-0.333,0.871-0.471c0.638-0.303,0.891-0.05,1.458,0.298
	c0.588,0.361,0.973,0.52,0.839,1.354c-0.103,0.651-0.406,1.046-0.314,1.816c0.768-0.092,0.978,0.462,1.594-0.149
	c0.272-0.271,0.83-0.935,0.9-1.311c0.435-0.168,1.451,0.57,1.682,0.93c0.467,0.73-0.431,1.525-0.352,2.235
	c0.033,0.298,0.38,0.707,0.473,1.001c0.126,0.391,0.282,0.688,0.457,1.054c0.437,0.914-0.464,1.552-0.917,2.354
	c-0.518,0.915-0.93,1.357-2.035,1.485c-1.042,0.119-1.832,0.322-2.371,1.337c-0.402,0.755-0.578,1.566-0.993,2.311
	c-0.382,0.686-0.785,1.599-0.985,2.365c-0.769,0.284-2.072-1.163-2.562-1.542c-1.101-0.854-2.172-1.965-3.521-2.382
	c-1.313-0.405-1.94-1.279-2.903-2.23c0.449-0.36,0.761-1.018,1.072-1.493c0.474-0.72,0.997-1.398,1.443-2.134
	C118.028,83.382,118.466,82.425,118.965,81.519"/>
<path fill="#FD1813" d="M134.289,76.088c0.222,0.488,0.769,0.657,1.01,1.092c0.252,0.455-0.011,1.08-0.299,1.456
	c-0.319,0.418-0.808,0.897-1.14,1.23c-0.546-0.457-0.563-1.459-0.567-2.098c-0.002-0.378-0.062-0.857,0.167-1.185
	C133.724,76.207,134.094,76.384,134.289,76.088"/>
<path d="M28.166,74.977c0.02-0.2,0.043-0.401,0.071-0.602c0.256-1.841,0.888-3.59,1.61-5.307c0.5-1.192,1.882-7.558,3.882-4.187
	c1.004,1.693,1.296,3.573,1.73,5.504c0.484,2.144,0.398,4.257,0.438,6.419c0.042,2.215,0.312,4.332,0.045,6.542
	c-0.11,0.912-0.038,1.838-0.245,2.741c-0.173,0.749-0.811,1.75-0.486,2.527c0.395,0.024,3.661-0.675,3.727-0.963
	c-0.187,0.839-0.521,1.632-0.75,2.468c-0.155,0.561-0.289,2.079-0.669,2.489c-0.531,0.57-1.323-0.027-1.95,0.39
	c-0.482,0.322-1.133,1.501-1.445,1.985c-1.34,2.083-1.414,4.73-1.48,7.133c-0.028,0.994,0.326,2.45-0.848,2.665
	c-0.927,0.17-3.055-0.665-3.976-0.966c-1.645-0.533-3.115-1.5-4.595-2.344c-2.437-1.386-1.076-5.018-0.526-7.282
	c0.293-1.206,0.511-2.492,0.747-3.693c0.165-0.841,0.076-1.294,0.829-1.628c0.596-0.265,1.236,0.118,1.836-0.287
	c1.169-0.787,0.825-2.188,0.891-3.342c0.109-1.872,0.86-3.69,0.978-5.587C28.077,78.081,28.014,76.511,28.166,74.977"/>
<path fill="#245977" d="M73.731,207.282c1.727-1.664,3.078-4.374,3.55-6.092c1.319-4.798-2.323-10.357-4.424-14.377
	c-1.981-3.792-4.438-7.739-4.762-12.13c-0.162-2.195,0-3.761-0.988-5.806c-0.986-2.045-2.543-3.986-3.873-5.83
	c-8.53-11.818-14.459-26.29-19.458-39.99c-2.47-6.77-4.328-13.151-5.447-20.084c-0.402-2.493-1.105-5.184-1.672-7.633
	c-0.453-1.954-0.544-4.409-1.428-6.219c-2.028,1.719-4.19,6.219-4.773,8.922c-0.337,1.563,0.505,2.464,0.897,4.002
	c1.02,3.981,1.397,8.272,2.312,12.354c1.984,8.857,5.768,17.155,8.627,25.724c1.059,3.174,1.989,6.388,2.857,9.62
	c0.17,0.636,0.29,1.271,0.482,1.909c0.149,0.5,0.263,1.002,0.43,1.498c0.142,0.42,0.326,0.833,0.424,1.268
	c0.118,0.517,0.297,1.015,0.45,1.522c0.27,0.898,0.559,1.799,0.876,2.681c0.371,1.032,0.703,2.089,1.01,3.143
	c0.33,1.134,0.767,2.231,1.208,3.324c0.403,1,0.689,2.06,1.112,3.063c0.64,1.513,1.209,3.068,1.812,4.601
	c0.684,1.739,1.424,3.463,2.066,5.217c0.59,1.61,1.177,3.272,1.903,4.826c0.672,1.442,1.178,2.943,1.708,4.435
	c0.582,1.647,1.07,3.351,1.534,5.038c0.206,0.748,0.449,1.509,0.607,2.267c0.012,0.056,0.014,0.115,0.019,0.17
	c0.031,0.325,0.028,0.64,0.155,0.941c0.167,0.397,0.365,0.786,0.55,1.176c0.368,0.773,0.748,1.542,1.149,2.298
	c0.806,1.523,1.704,2.996,2.738,4.372c1.086,1.444,2.93,4.725,4.705,5.17C71.37,208.983,72.628,208.347,73.731,207.282"/>
<path d="M123.451,395.732c-0.011,0.098-0.042,0.103-0.09,0.016c0.078-1.133-2.023-2.356-2.692-3.014
	c-1.25-1.226-1.989-2.982-3.476-3.952c-0.549-0.357-1.199-0.472-1.727-0.909c-0.364-0.3-0.636-0.67-0.926-1.02
	c-1.084-1.307-2.413-2.675-3.117-4.31c-0.3-0.697-0.546-1.476-0.796-2.19c-0.186-0.537-0.172-0.73,0.13-1.154
	c0.888-1.253,1.999-2.355,2.948-3.563c0.537-0.687,1.203-1.563,2.049-1.851c0.779-0.267,1.821-0.362,2.542,0.031
	c-0.315,0.572-0.82,1.115-1.069,1.737c-0.176,0.44-0.485,1.444-0.492,1.895c-0.014,0.893,3.704,3.242,3.967,2.673"/>
<path d="M133.297,397.398c-0.087-0.011-0.131,0.027-0.134,0.114c0.353,0.53,0.327,1.385,0.462,2.007
	c0.187,0.866,0.206,1.772,0.326,2.649c0.159,1.152,0.399,2.36,0.682,3.478c0.176,0.698,0.41,1.068,0.949,1.539
	c0.437,0.379,0.906,0.767,1.433,0.999c1.167,0.515,2.382,0.422,3.565,0.961c0.74,0.335,2.383,0.841,1.971,1.918
	c-0.381,0.998-1.603,1.746-2.507,2.15c-0.964,0.427-2.128,0.288-3.188,0.256c-0.891-0.026-1.766-0.331-2.659-0.403
	c-0.78-0.062-1.582-0.127-2.35-0.298c-0.974-0.216-2.095-0.563-2.987-0.951c-0.815-0.354-1.051-1.164-1.318-1.941
	c-0.257-0.749-0.089-1.771-0.08-2.562c0.007-0.453,0.055-0.928,0.02-1.378c-0.098-1.196-0.634-2.394-1.07-3.49
	c-0.519-1.298-0.652-2.844-1.003-4.203c-0.141-0.544-0.243-1.114-0.467-1.66c-0.556-1.354-1.63-2.425-2.514-3.6"/>
<path fill="#245977" d="M69.194,119.116c2.049-1.71,3.832-3.426,6.622-3.682c3.339-0.305,6.549,0.399,9.737,0.932
	c3.446,0.578,6.893,1.78,10.217,3.176c0.089,0.038,0.177,0.081,0.265,0.122c1.076-1.37,2.106-2.791,3.122-4.238
	c3.347-4.761,6.501-9.998,9.811-14.789c1.717-2.486,2.935-5.368,4.798-7.718c0.43-0.541,2.08-3.156,2.667-3.337
	c1.07-0.332,6.666,2.893,6.851,3.917c-1.636,1.403-3.484,2.565-4.857,4.201c-1.183,1.411-2.38,2.747-3.487,4.197
	c-2.36,3.091-4.647,6.183-6.636,9.418c-2.461,4-4.962,7.978-7.578,11.877c0.752,0.699,1.497,1.393,2.262,2
	c2.338,1.858,4.837,3.964,6.187,6.687c1.253,2.528,3.25,4.585,4.601,7.1c1.24,2.307,2.819,4.366,3.979,6.645
	c2.348,4.612,3.639,9.214,4.918,14.198c1.131,4.411,0.333,9.946-1.08,14.049c-0.635,1.848-1.584,3.928-2.18,5.867
	c-0.771,2.511-0.55,5.512-0.586,8.097c-0.035,2.451,1.189,4.926,2.59,6.886c1.032,1.443,2.075,2.815,3.331,4.036
	c0.674,0.658,1.519,1.104,2.263,1.671c0.288,0.219,0.389,0.501,0.666,0.736c0.233,0.196,0.5,0.354,0.725,0.559
	c0.21,0.193,0.122,0.244-0.07,0.417c-0.216,0.194-0.444,0.375-0.652,0.577c-0.221,0.214-0.435,0.483-0.673,0.672
	c-0.188,0.148-0.332,0.199-0.478,0.406c-0.072,0.102-0.099,0.158-0.233,0.212c-0.25,0.1-0.521,0.109-0.775,0.211
	c-0.376,0.15-0.788,0.332-1.173,0.446c-0.865,0.255-1.731,0.404-2.657,0.404c-0.515,0-1.086,0.157-1.591,0.043
	c-0.285-0.063-0.551-0.193-0.83-0.268c-0.261-0.069-0.535-0.139-0.763-0.293c-0.45-0.306-0.687-1.027-0.859-1.516
	c-0.101-0.287-0.191-0.577-0.315-0.862c-0.068-0.154-0.162-0.303-0.207-0.466c-0.046-0.167-0.008-0.301-0.076-0.458
	c-0.101-0.229-0.194-0.49-0.339-0.693c-0.095-0.132-0.225-0.226-0.314-0.364c-0.541-0.837-0.784-1.952-1.124-2.884
	c-2.238-6.151-2.979-13.332-2.19-19.841c0.793-6.567,3.564-12.998,1.93-19.678c-2.288-9.355-6.691-17.599-12.872-24.886
	c-1.681-1.983-3.237-3.101-5.206-4.115c-0.825,1.322-1.526,2.645-2.148,4.188c-0.998,2.472-2.867,4.077-4.606,5.997
	c-1.542,1.703-3.067,2.907-5.091,3.962c-1.933,1.005-4.687,2.826-6.94,2.763c-2.342-0.065-4.433-0.958-6.646-1.669
	c-4.75-1.53-9.118-5.542-9.634-10.745C61.295,127.473,64.956,122.651,69.194,119.116 M69.438,133.257
	c0.997,1.569,2.06,1.826,3.984,1.606c2.715-0.307,5.505-0.767,7.965-2.353c1.926-1.242,3.538-3.01,5.47-4.214
	c1.133-0.705,2.187-1.482,3.185-2.313c-1.773-0.604-3.559-1.218-5.251-2.059c-2.889-1.434-6.756-1.584-9.724-0.502
	C71.454,124.74,66.771,129.059,69.438,133.257"/>
<path fill="#245977" d="M182.126,168.23c-1.573,0.413-1.992-1.578-1.992-2.69c0-1.496,0.728-2.401,1.67-3.559
	c1.117-1.375,5.055-4.69,6.519-2.092c-1.275,1.335-1.905,3.084-2.949,4.567c-0.724,1.032-2.378,2.434-2.583,3.773"/>
<path fill="#245977" d="M180.173,165.114c-0.254,0.187-0.175,1.108-0.177,1.427c-0.001,0.512,0.042,1.037,0.456,1.38
	c0.129,0.109,0.237,0.214,0.366,0.33c0.072,0.063,0.152,0.094,0.22,0.147c0.082,0.062,0.161,0.16,0.25,0.211
	c0.173,0.102,0.389,0.106,0.587,0.13c0.168,0.021,0.502,0.013,0.632,0.109c0.114-0.124,0.24-0.228,0.354-0.347
	c0.286-0.301,0.475-0.718,0.777-1.011"/>
<path d="M136.32,114.613c-0.335,0.338-0.057,0.809-0.15,1.256c-0.105,0.515-0.667,1.176-0.935,1.652
	c-0.127,0.223-0.668,0.876-0.723,1.079c-0.105,0.394,0.271,0.821,0.124,1.343c-0.526-0.837,0.127-3.085-0.524-3.654
	c0.085,1.176-0.693,2.415-1.228,3.287c-0.089-0.962-0.258-1.828-0.247-2.825c-0.13,0.772-0.663,1.776-1.403,2.146
	c-0.11-0.72,0.372-1.771,0.129-2.349c-0.499,0.549-0.718,1.24-1.358,1.576c-0.098-0.6-0.205-1.731,0.139-2.233
	c-0.74,0.367-1.511,0.933-2.238,1.341c-0.13-0.685,0.517-1.749,0.967-2.223c-1.111,0.257-1.972,0.774-3.185,0.6
	c0.336-0.553,0.884-1.19,1.341-1.632c-0.704,0.007-1.205,0.705-1.956,0.6c0.153-0.432,2.891-1.372,3.427-1.171
	c0.39,1.439,2.004,1.86,3.298,2.083c1.123,0.194,3.458,0.369,4.092-0.834c-0.123-0.061-0.252-0.074-0.388-0.042"/>
<path d="M152.941,116.411c-0.421,0.836-1.363,1.52-2.219,1.822c-0.825,0.292-1.822,0.812-2.718,0.583
	c-0.322-0.083-0.688-0.305-1.005-0.401c-0.441-0.134-0.632-0.283-0.933-0.646c-0.332-0.397-0.974-0.987-0.988-1.519
	c-0.245,0.213-0.085,1.783-0.144,2.168c-0.155,1.005-0.231,1.985-0.068,2.984c0.151-0.321,0.307-0.661,0.455-0.994
	c0.2-0.453,0.131-1.053,0.357-1.468c-0.073,0.753,0.478,2.396,1.051,2.812c0.292-0.542,0.108-1.375,0.198-1.988
	c0.045-0.03,0.09-0.03,0.136-0.001c0.064,0.404,0.229,0.866,0.41,1.224c0.054-0.28-0.068-1.251,0.347-1.24
	c0.243,0.005,0.458,0.44,0.599,0.61c0.227,0.274,0.492,0.507,0.708,0.789c0.047-0.228,0.097-1.647,0.517-1.569
	c0.2,0.038,0.411,0.888,0.491,1.04c0.137,0.259,0.289,0.712,0.479,0.888c0.057-0.384-0.16-2.171,0.431-2.181
	c0.258-0.005,0.563,0.729,0.74,0.897c0.248,0.235,0.735,0.423,1.062,0.357c0.179-0.532-1.336-1.22-0.399-1.411
	c0.59-0.121,2.208,0.837,2.495,0.082c-0.142-0.171-2.319,0-1.345-0.746c0.459-0.351,2.442-0.868,2.307-1.663
	c-0.348-0.049-0.668,0.068-1.02,0.072c-0.336,0.004-0.702,0.138-1.026,0.075c-0.178-0.499,0.876-1.174,1.164-1.473
	c0.094-0.099,0.55-0.463,0.552-0.629c0.002-0.345-0.504,0.019-0.648,0.085c-0.5,0.228-1.104,0.344-1.491,0.771
	c-0.222,0.246-0.458,0.786-0.741,0.92"/>
<path d="M208.373,61.628c2.836,0.05,7.037,4.289,8.892,0.336c0.654-1.392,0.375-3.056-1.003-3.95
	c-0.388-0.251-1.389-0.244-1.602-0.455c-0.82-0.816-0.121-1.578,0.266-2.303c0.728-1.371,2.041-2.721,3.053-3.875
	c1.055-1.202,2.556-1.803,3.614-2.962c1.748-1.913,1.774-5.752-1.262-5.958c-1.982-0.136-1.799,1.153-2.399,2.689
	c-0.612,1.567-1.928,2.929-3.337,1.417c-1.41-1.511,0.749-1.566,0.459-3.098c-0.372-1.977-3.815-1.095-4.453,0.259
	c-0.586,1.244,0.151,2.438,0.097,3.774c-0.075,1.811-1.039,1.968-2.583,2.615c-1.933,0.81-1.822,1.404-2.06,3.438
	c-0.256,2.188-0.897,2.397-2.907,2.765c-1.608,0.294-4.113,1.154-4.959,2.723c-1.427,2.649,1.079,4.13,3.485,4.062
	C203.984,63.042,205.921,61.584,208.373,61.628"/>
<path d="M240.173,16.155c0.371-0.88,1.265-1.853,2.24-1.996c0.39-0.057,0.938,0.078,1.265,0.308
	c0.348,0.245,0.582,0.969,0.472,1.375c-0.133,0.493-0.817,0.88-1.201,1.143c-0.22,0.149-0.397,0.45-0.488,0.692
	c-0.137,0.369,0.005,0.401,0.285,0.581c0.456,0.292,0.529,0.86,0.816,1.31c0.216,0.339,0.363,0.439,0.754,0.408
	c0.326-0.027,0.551-0.246,0.85-0.356c0.645-0.239,1.354-0.629,1.806-1.179c0.35-0.424,0.521-0.936,0.763-1.421
	c0.231-0.466,0.458-0.931,0.661-1.414c0.277-0.655,0.411-1.285,0.43-2.005c0.014-0.534-0.013-1.14-0.204-1.645
	c-0.47-1.238-1.491-1.752-2.612-2.25c-0.492-0.217-0.939-0.519-1.435-0.732c-0.175-0.074-0.316-0.215-0.496-0.283
	c-0.191-0.074-0.316-0.075-0.497-0.196c-1.983-1.314-5.716-1.177-7.073,0.999c-0.485,0.779-0.485,1.685-0.816,2.447
	c-0.398,0.916-1.398,1.715-1.674,2.692c-1.168,4.102,5.676,7.586,3.012,11.432c-1.27,1.832-3.529,2.912-3.744,5.298
	c-0.121,1.338,0.66,5.777,2.599,4.986c1.07-2.681,3.783-4.171,4.958-6.75c1.12-2.455,0.676-6.915-0.332-9.333
	C239.956,18.931,239.604,17.503,240.173,16.155"/>
<path d="M230.961,41.114c0.001,0.472,0.256,1.875-0.068,2.286c-0.557,0.708-1.944,0.584-2.514-0.008
	c-1.553-1.607,1.157-4.492,2.863-3.906C231.374,40.131,231.45,40.786,230.961,41.114"/>
<path d="M91.825,89.353c-0.87-1.015-1.5-4.435-3.699-4.359c-1.161,0.04-1.257,1.075-1.158,2.06c0.041,0.404,0.336,1.091,0.306,1.438
	c-0.043,0.501-0.468,0.569-0.536,0.918c-0.403,2.092,0.52,3.288,2.735,2.77c0.767-0.181,1.105-0.654,2.064-0.512
	c0.819,0.121,1.492,0.828,2.236,0.835c0.334-2.531-0.986-3.176-3.093-4.018"/>
<path d="M76.683,97.452c1.023-0.51,2.873-1.092,2.317-2.655c-0.103-0.289-0.263-0.555-0.392-0.833
	c-0.16-0.35-0.254-0.732-0.442-1.068c-0.188-0.335-0.441-0.614-0.572-0.979c-0.118-0.327-0.177-0.695-0.342-0.991
	c-0.708-1.256-1.699-2.562-3.079-3.097c-1.146-0.446-1.257-0.101-2.048,0.657c-0.89,0.853-1.688,1.041-2.929,0.881
	c-1.469-0.188-3.014-1.446-4.514-1.183c-1.481,0.258-2.673,2.301-3.244,3.513c-0.54,1.148-0.559,2.258-0.742,3.456
	c-0.15,0.995-0.56,2.051-0.235,3.103c0.545,1.773,3.062,3.649,4.778,4.331c0.728,0.289,2.59,1.057,3.377,0.608
	c0.483-0.276,0.713-1.331,0.971-1.757c0.438-0.719,0.999-1.451,1.73-1.887c0.979-0.584,1.765-0.432,2.8-0.645
	C75.021,98.719,75.826,97.88,76.683,97.452"/>
<path d="M126.397,57.536c-0.952-0.621,0.421-2.711-0.057-3.773c-0.451-1.003-2.605-1.807-2.171-0.043
	c0.129,0.525,0.801,0.508,0.827,1.208c0.024,0.642-0.845,1.313-0.892,2.024c-0.092,1.367,1.341,1.998,1.19,3.151
	c1.408,0.457,1.103-2.126,1.102-2.855"/>
<path d="M109.882,51.523c-1.196,0.716-0.173,2.258-0.005,3.189c0.126,0.702-0.075,2.292,1.115,2.143
	c1.205-0.152,2.285-2.138,1.844-3.261C112.522,52.792,110.899,50.915,109.882,51.523"/>
<path d="M127.017,48.993c-0.108,0.012-0.162-0.036-0.164-0.143c0.555-0.707,0.757-2.07,1-2.946c0.433-1.563,0.595-3.131,0.767-4.722
	c0.109-1.011,0.195-1.948,0.684-2.86c0.351-0.652,0.763-1.06,0.944-1.804c0.336-1.382,0.859-3.382-0.322-4.511
	c-0.481-0.461-1.167-0.867-1.86-0.783c-0.932,0.113-1.445,0.372-1.865,1.281c-0.313,0.679-0.475,1.41-0.738,2.132
	c-0.356,0.973-0.251,1.843-0.144,2.85c0.137,1.289,0.06,2.57,0,3.883c-0.059,1.266-0.196,2.521-0.03,3.786
	c0.127,0.98,0.16,2.004,0.495,2.944c0.171,0.478,0.102,0.561,0.102,1.016c0,0.318,0.018,0.501,0.411,0.477
	c0.306-0.019,0.68-0.635,0.72-0.893"/>
<path d="M111.157,48.256c0.276-0.298,0.474-1.265,0.614-1.697c0.226-0.687,0.032-1.408,0.032-2.113c0-0.693-0.046-1.406,0-2.097
	c0.08-1.194,0.151-2.431,0.318-3.615c0.194-1.37,0.5-2.714,0.796-4.057c0.312-1.422,0.303-2.649-0.532-3.939
	c-0.303-0.466-0.863-1.274-1.405-1.46c-0.693-0.242-1.433,0.103-1.904,0.584c-0.521,0.533-0.911,1.246-1.142,1.948
	c-0.209,0.637-0.14,1.312-0.14,1.991v4.156c0,2.001,0.44,3.9,0.715,5.878c0.132,0.952,0.428,1.907,0.672,2.833
	c0.245,0.928,0.583,2.58,1.831,2.59c0.495,0.004,0.413-0.279,0.582-0.706"/>
<path d="M156.337,117.599c-0.498,0.491,0.396,1.991,0.623,2.465c0.407,0.852,0.846,1.655,1.187,2.531
	c0.297,0.772,0.666,1.692,0.792,2.51c0.147,0.965-0.465,1.732-0.587,2.669c-0.301,2.322,0.638,4.336,3.13,4.337
	c1.298,0.001,3.564-0.74,4.536,0.534c0.75,0.983,1.127,3.005,0.045,3.808c-0.596,0.442-1.418,0.499-2.151,0.496
	c-0.446-0.001-1.921-0.45-2.314-0.142c-0.927,0.726,0.695,3.33,0.509,4.311c-0.14,0.743-0.739,1.213-1.474,1.339
	c-1.001,0.171-1.624-0.391-2.158-1.172c-0.482-0.705-1.062-1.644-1.159-2.494c-0.107-0.941-0.107-2.679-1.301-3.019
	c-0.872-0.246-1.143,0.85-1.862,0.308c-0.72-0.543-0.784-1.605-0.783-2.432c0.002-1.169-0.002-2.314,0.127-3.468
	c0.166-1.442,0.489-2.849,0.66-4.302c0.171-1.449,0.32-2.89,0.496-4.319c0.203-1.652,1.036-3.269,1.024-4.961"/>
<path d="M172.271,135.387c-0.098,0.125-0.195,0.249-0.293,0.372c3.78,0.573,5.21-1.074,7.822-3.52
	c2.585-2.422,7.477-3.881,7.099,1.367c-0.126,1.745-0.587,2.25,1.739,2.579c1.57,0.223,3.659-0.313,5.015,0.426
	c1.031,0.564,2.052,2.082,1.685,3.272c-0.453,1.471-2.695,1.821-3.952,2.309c-0.471,2.174,4.459,2.554,5.822,3.41
	c1.674,1.052,3.327,3.663,0.408,4.505c-2.802,0.808-4.017-0.926-5.831-2.612c-1.976-1.839-3.87-2.943-6.602-2.622
	c-0.16,1.278,0.028,2.622-0.133,3.9c-2.817,0.602-2.812-1.506-4.031-3.419c-1.506-2.365-3.376-2.707-6.09-2.365
	c-1.728,0.218-1.741,0.885-2.99-0.415c-0.577-0.603-1.19-2.096-1.34-2.801c-0.209-0.985-0.166-2.101,0.444-2.926
	c0.799-1.08,1.58-0.792,2.557-1.458"/>
</svg>
