<?xml version="1.0" encoding="utf-8"?>
<!-- Generator: Adobe Illustrator 16.0.4, SVG Export Plug-In . SVG Version: 6.00 Build 0)  -->
<!DOCTYPE svg PUBLIC "-//W3C//DTD SVG 1.1//EN" "http://www.w3.org/Graphics/SVG/1.1/DTD/svg11.dtd">
<svg version="1.1" id="Ebene_1" xmlns="http://www.w3.org/2000/svg" xmlns:xlink="http://www.w3.org/1999/xlink" x="0px" y="0px"
	 width="283.46px" height="425.2px" viewBox="0 0 283.46 425.2" enable-background="new 0 0 283.46 425.2" xml:space="preserve">
<g>
	<path fill="#245977" d="M101.183,200.011c1.758,1.576,3.187,4.061,4.42,6.03c1.594,2.553,2.863,5.213,3.658,8.154
		c1.112,4.113,2.181,8.156,2.178,12.406c0,8.863,2.844,41.725-0.485,54.941c-0.703,2.795-0.546,7.404-0.524,10.463
		c0.04,6.608,0.04,6.608-0.123,13.348c-0.166,7.028-1.659,18.261-1.821,25.463c-0.095,4.242-0.599,8.51-1.007,12.709
		c-0.281,2.9-1.128,5.72-1.277,8.549c-1.001-0.176-2.206-0.443-3.312-0.735c-1.712-0.446-1.233-0.553-1.677-2.063
		c-0.61-2.086-1.384-3.986-1.663-6.088c-0.674-5.105-1.824-23.434-2.458-28.529c-0.625-5.028-0.544-13.522-0.791-15.991
		c-0.308-3.071-0.72-6.272-1.08-9.215c-0.471-3.85-0.03-7.788-0.476-11.657c-0.899-7.836-1.685-30.35-1.734-38.312
		c-0.045-7.406-0.493-15.024,0.22-22.339c0.318-3.295-0.385-6.715-0.098-10.012c0.237-2.691,2.374-11.561,2.122-11.52
		L101.183,200.011z"/>
	<path fill="#245977" d="M129.129,201.089c-12.35,10.101-16.045,28.649-12.19,44.202c1.029,4.146,1.468,13.559,2.123,18.408
		c0.366,2.729,0.993,7.342,2.22,10.568c1.019,2.689,12.883,34.193,14.079,38.033c0.614,1.979,1.557,2.486,1.845,4.482
		c0.235,1.646,2.874,2.293,2.688,4.008c1.232,0.387,2.646-0.093,4.001,0.021c1.29,0.11,2.732,0.431,4.022,0.349
		c3.212-0.201,0.145-4.898-0.667-6.754c-2.168-4.958-1.22-6.391-2.776-11.676c-1.915-6.507-5.954-19.445-6.833-22.253
		c-0.799-2.54-3.142-11.083-3.359-12.618c-0.201-1.426,0.363-2.844,0.657-4.26c1.361-6.555,0.056-37.255,0.02-43.443
		c-0.022-3.719-0.38-7.344-0.402-11.008c-0.013-1.839,0.187-3.822-0.017-5.637c-0.137-1.207-0.089-4.855-0.036-6.195
		C134.255,197.449,130.403,200.044,129.129,201.089z"/>
	<path fill="#245977" d="M141.394,126.941c-1.376-1.645-2.658-1.579-4.065-2.181c-2.432-1.039-4.837-2.362-7.349-3.272
		c-1.619-0.584-8.384-2.152-8.995-2.579c-0.098-0.905-1.077-4.178-1.077-4.178c0.359-0.648,3.577-0.751,4.098-1.189
		c0.849-0.722,1.575-1.589,2.344-2.397c3.165-3.312,6.24-8.021,7.815-12.421c1.807-5.04,2.116-10.499,1.052-15.716
		c-1.059-5.179-4.956-8.204-9.358-10.432c-5.839-2.959-12.566-1.947-17.653,2.248c-5.155,4.256-7.696,9.62-7.038,16.691
		c0.293,3.156,1.019,6.34,2.234,9.256c0.443,1.062,1.225,2.04,1.792,2.996c0.659,1.113,0.808,2.324,1.055,3.595
		c0.31,1.581,0.504,3.501,0.323,5.163c-0.101,0.938,0.046,2.717-0.271,3.607c-0.093,0.26-5.963,0.82-7.302,0.84l-6.056,0.369
		c-1.425,1.303-2.421,0.016-4.042,0.358c-0.202,0.045-0.407,0.106-0.612,0.18c0.304,1.942,0.581,3.886,0.84,5.836
		c0.646,4.87,6.229,12.333,7.237,12.476c-0.11,1.221,0.586,2.652,0.828,3.855c0.256,1.273,0.719,2.781,0.884,3.979
		c0.172,1.255,0.283,2.66,0.452,3.808c0.202,1.394,0.563,2.288,1.015,3.546c0.908,2.528,2.172,3.918,3.819,5.943
		c0.631,0.777,1.145,1.913,2.02,2.484c1.206,0.793,2.901,0.438,4.29,0.434c2.913-0.01,7.216,0.831,9.793-0.641
		c2.977-1.696,6.052-4.342,8.428-6.848c2.34-2.462,5.066-2.432,6.55-5.438c1.76-3.566,8.037-10.438,7.745-14.816
		C142.053,130.428,141.609,129.004,141.394,126.941z"/>
	<path d="M95.148,149.635c-0.433-3.492-0.539-6.898-1.4-10.291c-0.928-3.665-1.527-22.555-0.155-22.73
		c1.066-0.137,1.688-0.027,2.707-0.441c0.646-0.267,0.469-0.391,1.163-0.174c-0.021,1.256,2.766,15.041,2.913,16.527
		c0.303,3.084,0.221,2.437,1.285,5.387c1.097,3.035,9.617,5.776,11.132,5.818c1.458,0.039,11.836-2.964,13.722-5.397
		c1.798-2.31,2.733-6.194,3.387-9.073c0.617-2.73-0.525-6.104,0.155-8.793c0.709,0.598,2.358,0.5,3.293,0.746
		c1.32,0.34,1.251,28.422,0.864,31.857c-0.338,3.021-0.298,6.114-0.279,9.232c0.021,3.444,0.377,6.783,0.4,10.289
		c0.018,3.183-0.209,6.505,0.133,9.661c0.667,6.188,0.639,13.124-0.614,19.087c-1.07,5.092-4.43,9.452-7.096,13.764
		c-1.41,2.283-3.039,4.495-4.594,6.786c-1.302,1.917-6.644,5.515-6.562,7.809c-1.44,0.19-3.504,0.64-4.351,0.194
		c-0.82-0.434-2.399-2.346-2.842-3.26c-0.595-1.242-1.239-2.375-1.954-3.574c-2.849-4.785-6.695-8.805-8.665-14.086
		c-2.067-5.531-3.018-11.401-3.053-17.455c-0.031-5.594,0.95-11.426,0.908-17.042c-0.024-2.958-0.036-5.917-0.054-8.872
		c-0.009-1.489,0.173-3.142-0.028-4.613C95.419,159.96,95.354,151.297,95.148,149.635z"/>
	<path d="M100.351,346.544c0.503,1.644,0.582,2.339,1.631,3.534c1.236,1.403,1.702,0.984,3.486,0.726
		c0.901-1.048,0.987-1.608,1.328-3.011c0.258-1.066,0.516-2.934,0.682-4.268c0.584,3.539,1.001,6.001,2.172,9.279
		c1.118,3.125,3.656,25.564,5.097,28.537c0,0,0,0,9.005,16.61c-2.767-1.132-5.929-4.45-8.928-3.522
		c-1.61,0.497-3.207,0.914-4.241,2.189c-1.321,1.63-1.437,4.486-3.061,5.55c-0.757-1.039-3.21-4.502-4.68-5.102
		c-1.354-0.555-6.387,4.86-6.387,4.86s-3.033-4.896-5.197-3.811c-1.927,0.971-2.89,1.576-4.877,2.05
		c1.786-3.626,1.214-2.239,3.087-5.831c1.562-2.995,2.807-6.094,4.444-9.145c1.664-3.102,2.76-25.471,3.644-28.935
		c0.501-1.975,0.763-3.575,0.752-5.683c-0.013-1.932,1.46-6.148,1.46-6.148L100.351,346.544z"/>
	<path d="M137.205,316.783c2.29,1.773,11.582,7.667,10.27-1.908c2.099,0.742,8.884,13.487,10.524,16.271
		c1.604,2.719,3.574,5.16,5.451,7.783c0.992,1.391,2.039,2.833,3.062,4.154c0.748,0.967,1.662,2.938,2.739,3.479
		c-2.344-0.324-4.812-0.523-7.06-0.033c-3.363,0.732-3.852,3.436-5.437,5.941c0.084-0.23,0.08-0.463-0.008-0.695
		c-2.477-0.975-5.085-1.988-7.853-2.17c-2.511-0.162-5.691,2.777-7.015,4.608c-0.344-2.371-0.462-3.57-2.412-5.278
		c-1.4-1.224-3.349-1.67-5.059-1.91c1.273-1.413,1.56-3.8,2.083-5.551c0.773-2.592,1.229-5.303,1.984-7.92
		c0.592-2.047,0.917-4.596,1.303-6.649c0.208-1.121,0.448-2.479,0.409-3.657C140.149,321.911,137.205,316.783,137.205,316.783z"/>
	<path d="M105.879,107.613c-0.084-3.215-2.175-6.667-3.468-9.471c-1.166-2.527-2.19-5.146-2.427-7.953
		c-0.293-3.486,0.748-6.67,2.32-9.59c1.42-2.635,2.73-5.929,4.904-7.981c4.632-4.375,14.013-3.825,19.227-1.364
		c5.148,2.43,9.246,7.461,9.909,13.154c0.406,3.476-0.063,7.033-0.774,10.139c-0.632,2.771-1.521,7.324-3.685,9.354
		c0.088-3.303-0.357-6.305-0.451-9.442c-0.08-2.768-0.905-6.352-2.843-8.386c-1.975-2.066-5.339-2.059-7.971-2.045
		c-2.856,0.012-6.157-0.326-8.677,0.896c-5.311,2.586-7.751,8.977-6.938,14.841c0.381,2.767,1.491,5.175,2.135,7.823
		C107.385,108.594,105.879,107.613,105.879,107.613"/>
	<path d="M110.069,79.416"/>
	<g>
		<path fill="#FF0000" d="M106.04,91.918c0.247,0.025,0.629-0.6,0.809-0.785c0.346-0.395,0.771-0.65,1.146-0.996
			c0.618-0.537,1.182-1.051,1.929-1.385c0.672-0.276,5.799,1.654,6.437,1.949c0.672,0.326,1.923,1.088,2.548,1.488
			c0.579,0.366,0.955,3.395,1.871,3.445c0.73,0.037,1.718-0.451,2.313-0.811c0.731-0.459,0.79-0.553,1.547-0.264
			c1.774,0.661,2.616,0.814,4.344,1.627c0.758,0.369,1.53,0.83,2.204,1.256c0.372,0.242,0.791,0.651,1.103,0.986
			c0.246,0.25,0.685,0.719,0.762,1.066c0.134,0.553-0.233,1.5-0.36,2.035c-0.202,0.822-0.401,1.496-0.902,2.182
			c-0.813,1.115-1.558,2.415-2.439,3.381c-0.401,0.438-0.753,1.002-1.111,1.501c-0.22,0.299-0.299,0.497-0.633,0.536
			c-0.353,0.056-0.505-0.121-0.775-0.35c-0.476-0.384-0.939-0.695-1.464-0.859c-0.682-0.232-1.423-0.521-2.013-0.904
			c-0.556-0.357-1.059-0.861-1.625-1.201c-0.585-0.332-1.689-0.812-2.264-1.158c-0.3,0.309-1.665,1.276-1.957,1.337
			c-0.904,0.161-1.258-0.153-1.822-0.935c-0.271-0.364-1.132-2.146-1.282-2.447c-0.153-0.305-1.229-0.711-1.547-0.9
			c-0.639-0.371-1.414-0.496-2.11-0.738c-0.703-0.248-1.553-0.42-2.17-0.811c-0.642-0.406-1.201-0.861-1.793-1.338
			c-0.598-0.492-1.098-0.979-1.251-1.772c-0.204-1.05-0.186-2.034-0.094-3.089c0.054-0.527,0.042-1.202,0.402-1.604
			C106.379,91.749,106.04,91.918,106.04,91.918z"/>
		<path fill="#FFFFFF" d="M117.713,96.949c0.219,0.076,1.017-1.861,1.116-2.08c-0.551-0.731-1.598-1.229-2.303-1.735
			c-0.828-0.573-4.074-1.913-4.844-2.224c-0.837-0.336-1.14-0.577-1.766,0.119c-1.067,1.186-2.315,2.398-2.506,4.028
			c-0.094,0.796,2.451,2.817,3.103,3.216C111.681,98.979,117.713,96.949,117.713,96.949z"/>
		<path fill="#FFFFFF" d="M123.578,96.832c-0.348,0.473-1.079,2.399-1.062,2.92c-0.001,0.483,1.88,4.361,1.95,4.656
			c0.11,0.419,3.765,2.209,4.097,1.895c0.635-0.59,1.307-1.557,1.755-2.326c0.393-0.696,0.829-1.373,1.134-2.109
			c0.15-0.328,0.282-0.672,0.408-0.991c0.206-0.454,0.179-0.108-0.119-0.459c-0.204-0.218-0.405-0.528-0.597-0.731
			c-0.253-0.281-0.619-0.349-0.9-0.503c-0.757-0.431-1.532-0.811-2.408-1.063C127.073,97.901,123.578,96.832,123.578,96.832z"/>
		<path d="M124.938,100.514c0.031,1.018,0.797,1.596,1.623,1.969c0.477,0.219,1.048,0.27,1.539,0.262
			c0.469-0.003,1.017-0.262,1.469-0.18c-0.243-1.016-1.209-1.832-2.133-2.096C126.595,100.221,125.078,100.521,124.938,100.514z"/>
		<path d="M109.722,94.082c-0.325,0.142,0.881,0.86,1.115,0.974c0.495,0.254,1.026,0.599,1.56,0.789
			c0.688,0.251,2.128,0.25,2.644-0.404c-0.271-1.09-1.96-2.106-2.979-2.256c-0.619-0.087-1.458,0.017-2.005,0.292
			C109.598,93.707,109.722,94.082,109.722,94.082z"/>
	</g>
	<path fill="#FF0000" d="M110.196,106.754"/>
	<path fill="#FF0000" d="M118.376,111.689c0.852-0.01,2.262-0.89,2.248-1.837c-0.027-0.649-0.006-1.4-0.514-1.87
		c-0.3-0.271-1.613,0.004-2.396,0.006c-1.325,0.035-2.448-1.902-2.783-1.415c-2.449,3.495-6.776-1.499-7.464-3.132
		c-0.672-1.553-6.725-21.042-9.391-27.732c-0.705-1.766-2.946-12.435-3.184-12.811c-0.162-0.238-1.989-1.273-2.233-1.161
		c-2.605,1.013-1.548,2.742-2.641,2.524c-0.048,0.593,4.533,13.845,5.757,16.365c1.423,2.939,6.054,19.104,6.578,20.295
		c0.645,1.41,0.714,2.723,1.602,3.992c0.743,1.066,1.949,3.282,2.893,4.094c0.57,0.484,1.439,0.619,2.032,1.045
		c0.667,0.479,1.097,0.556,1.817,0.789c0.709,0.242,1.401,0.576,2.137,0.723c0.613,0.115,1.313,0.063,1.895,0.169
		c1.242,0.204,2.002,0.169,2.002,0.169"/>
	<path fill="#245977" d="M152.288,330.25c0.82,0.327,1.933,1.195,1.978,2.184c0.053,1.127-1.373,1.564-2.162,1.842
		c-1.316,0.463-2.565,0.885-3.956,1.1c-0.93,0.137-2.192,0.072-3.112-0.185c-0.583-0.159-1.978-0.917-1.89-1.683
		c0.096-0.833,1.539-1.201,2.152-1.344C146.195,331.949,151.113,329.779,152.288,330.25z"/>
	<g>
		<path d="M136.651,196.906c2.772-1.238,4.644-3.682,5.147-4.422c1.403-2.086-4.096-5.721-5.833-4.221
			c-0.237,0.426-1.096,0.81-0.559,1.057c5.654,2.593,1.739,4.564-0.916,5.611c-2.543,1.012-5.945,2.798-8.626,3.842
			c-5.623,2.188-11.789,4.191-17.885,5.141c-3.066,0.48-5.647,1.08-8.74,1.507c-3.24,0.442-6.66,0.63-9.808,1.216
			c-5.443,1.01-11.229,1.092-16.979,1.352c-3.15,0.135-6.437,0.501-9.551,0.383c-2.719-0.107-7.434,0.686-20.566-2.229
			c-1.783-0.389-12.514-4.32-13.399-5.025c-1.688-1.375-3.322-4.48-3.138-6.215c0.166-1.725-0.16-3.941,1.023-5.525
			c1.405-1.904,5.871-4.166,8.015-5.57c16.685-10.812,48.49-9.352,54.973-9.142c2.931,0.085,5.933-0.156,8.776,0.245
			c0.881,0.129,3.5,0.898,4.182,0.488c0.53-0.326,0.784-1.674,1.366-2.18c-4.269-2.047-25.473-3.238-30.44-2.887
			c-5.726,0.404-27.626,4.498-33.972,7.018c-10.959,4.33-15.128,7.155-16.764,9.5c-1.54,2.186-2.464,4.533-2.102,7.08
			c0.389,2.604,1.594,4.465,3.38,6.787c3.029,3.948,8.649,6.636,14.228,8.357c5.075,1.57,9.696,3.25,15.174,3.713
			c4.92,0.397,9.87,0.076,14.755,0.038c4.938-0.03,9.899-0.376,14.717-0.962c11.421-1.391,23.4-2.833,33.552-6.86
			C123.663,202.231,134.434,197.904,136.651,196.906z"/>
		<g>
			<path fill="#FF0000" d="M136.98,193.63c0.631,0.219,1.281,0.406,1.865,0.588c0.397,0.109,0.797,0.216,1.193,0.329
				c0.911-0.883,1.53-1.699,1.79-2.078c0.224-0.34,0.252-0.719,0.168-1.104c-1.255-0.256-2.584-0.297-3.919-0.199
				C138.587,192.087,137.963,192.934,136.98,193.63z"/>
			<path fill="#FF0000" d="M120.846,200.6c0.032,0.816,0.423,1.627,1.057,2.318c2.169-0.863,4.407-1.764,6.484-2.594
				c-0.895-0.452-1.614-1.066-1.914-1.812c-0.191,0.076-0.391,0.17-0.576,0.243C124.257,199.393,122.562,200.014,120.846,200.6z"/>
			<path fill="#FF0000" d="M113.624,206.084c0.814-0.271,1.633-0.541,2.43-0.847c-0.15-0.231-0.289-0.478-0.39-0.733
				c-0.286-0.747-0.324-1.496-0.226-2.242c-1.527,0.42-3.057,0.777-4.601,1.101C110.801,204.354,112.129,205.371,113.624,206.084z"
				/>
			<path fill="#FF0000" d="M102.021,209.062c2.124-0.415,4.229-0.884,6.291-1.419c-1.436-0.938-2.548-2.321-2.237-3.412
				c-1.876,0.33-3.632,0.691-5.554,0.98C100.011,206.532,100.666,208.115,102.021,209.062z"/>
			<path fill="#FF0000" d="M74.767,212.596c2.525-0.148,5.033-0.36,7.505-0.65c-1.16-1.424-1.751-3.056-0.866-4.4
				c-2.257,0.139-4.522,0.243-6.799,0.338C72.466,209.088,73.168,211.062,74.767,212.596z"/>
			<path fill="#FF0000" d="M60.806,211.52c0.256,0.565,0.657,1.039,1.176,1.422c1.952-0.038,3.897-0.09,5.838-0.113
				c-0.947-1.551-0.861-3.501,0.585-4.609c-1.834,0.121-3.681,0.207-5.481,0.141c-0.522-0.027-1.138-0.011-1.872,0.006
				C60.533,209.347,60.348,210.473,60.806,211.52z"/>
			<path fill="#FF0000" d="M50.529,212.353c1.021,0.183,2.06,0.326,3.145,0.425c0.603,0.038,1.224,0.079,1.833,0.117
				c-0.235-0.423-0.404-0.865-0.476-1.327c-0.164-1.249,0.349-2.394,1.375-3.278c-1.438-0.09-3.143-0.25-5.18-0.531
				C49.705,208.811,49.763,210.76,50.529,212.353z"/>
			<path fill="#FF0000" d="M35.574,208.049c0.969,0.372,1.938,0.711,2.917,1.013c1.423,0.443,2.812,0.882,4.189,1.308
				c-0.933-1.327-1.224-2.99-0.641-4.322c-0.678-0.182-1.889-0.58-3.318-1.087C37.263,205.704,35.938,206.898,35.574,208.049z"/>
			<path fill="#FF0000" d="M26.851,189.363c0.277-0.379,0.708-0.776,1.183-1.182c-0.556-0.854-1.33-1.636-2.417-2.172
				c-0.468-0.225-0.962-0.385-1.471-0.495c-0.48,0.458-0.863,0.894-1.163,1.317c-0.412,0.6-0.765,1.213-1.075,1.836
				c1.541,0.402,3.169,1.348,4.267,2.277C26.307,190.382,26.494,189.844,26.851,189.363z"/>
			<path fill="#FF0000" d="M38.361,177.891c-0.85,0.35-1.676,0.687-2.449,1.023c0.985,1.014,1.224,2.298,1.172,3.584
				c1.151-0.637,2.379-1.218,3.634-1.76C40.137,179.727,39.249,178.784,38.361,177.891z"/>
			<path fill="#FF0000" d="M47.012,175.213c-1.463,0.361-2.833,0.717-4.024,1.053c0.901,0.914,1.84,1.802,2.988,2.551
				c0.776-0.239,1.577-0.465,2.38-0.678C47.733,177.205,47.269,176.223,47.012,175.213z"/>
			<path fill="#FF0000" d="M67.612,171.124c-1.68,0.265-3.546,0.585-5.515,0.94c0,0-0.007,0.018-0.005,0.029
				c-0.326,1.068-0.561,2.338-0.309,3.506c1.511-0.182,3.003-0.342,4.47-0.472C66.381,173.75,66.835,172.377,67.612,171.124z"/>
			<path fill="#FF0000" d="M86.286,170.651c-1.578-0.104-3.108-0.185-4.554-0.247c-1.17,1.146-1.793,2.675-1.682,4.093
				c1.358-0.01,2.621-0.013,3.788,0.008C84.482,173.203,85.139,171.689,86.286,170.651z"/>
			<path fill="#FF0000" d="M95.708,171.506c-1.676-0.197-3.453-0.379-5.282-0.535c-0.288,0.199-0.568,0.404-0.818,0.617
				c-0.911,0.816-1.745,1.879-1.876,2.996c0.847,0.023,1.578,0.043,2.102,0.062c1.273,0.04,2.561,0.021,3.84,0.014
				C93.891,173.445,94.556,172.283,95.708,171.506z"/>
			<path fill="#FF0000" d="M76.411,170.263c-1.114-0.003-2.039,0.013-2.681,0.059c-0.59,0.046-1.362,0.126-2.257,0.241
				c-0.532,1.347-0.63,2.867-0.352,4.206c1.502-0.083,2.958-0.149,4.362-0.19C75.224,173.198,75.549,171.583,76.411,170.263z"/>
			<path fill="#FF0000" d="M56.167,173.196c-1.457,0.298-2.901,0.603-4.311,0.911c0.007,0.111,0.007,0.229,0.022,0.33
				c0.106,0.829,0.338,1.809,0.826,2.661c1.261-0.276,2.551-0.507,3.828-0.735C56.214,175.364,56.034,174.248,56.167,173.196z"/>
			<path fill="#FF0000" d="M32.618,184.182c-0.219-0.906-0.646-1.791-1.285-2.59c-0.123-0.143-0.254-0.276-0.374-0.402
				c-1.221,0.602-2.298,1.174-3.222,1.722c0.309,0.163,0.6,0.341,0.859,0.535c0.642,0.481,1.227,1.056,1.483,1.705
				c0.102,0.259,0.241,0.69,0.234,1.069c0.048,0.027,0.094,0.062,0.078,0.117c-0.021,0.07-0.042,0.145-0.054,0.221
				c0.783-0.508,1.601-0.988,2.362-1.439C32.703,184.809,32.688,184.495,32.618,184.182z"/>
			<path fill="#FF0000" d="M25.874,193.926c-1.58-0.764-3.8-1.031-4.993-0.133c0.005,0.045-0.003,0.08,0.005,0.129
				c0.121,0.777,0.315,1.49,0.569,2.168c0.188-0.015,0.38-0.006,0.565,0c1.451,0.099,2.954,0.523,4.258,1.109
				c-0.337-0.85-0.512-1.672-0.459-2.309C25.859,194.581,25.874,194.258,25.874,193.926z"/>
			<path fill="#FF0000" d="M28.977,201.103c-0.371-0.294-0.74-0.698-1.083-1.133c-1.134-0.103-2.266,0.019-3.13,0.584
				c-0.143,0.089-0.255,0.188-0.368,0.29c0.949,1.208,2.151,2.29,3.511,3.264c0.144-0.146,0.312-0.29,0.504-0.426
				c0.998-0.664,2.278-1.061,3.626-1.203C30.446,201.851,29.24,201.319,28.977,201.103z"/>
			<path fill="#FF0000" d="M87.383,209.572c0.401,0.564,0.922,1.08,1.484,1.559c2.399-0.312,4.807-0.648,7.202-1.025
				c-0.428-0.4-0.77-0.848-0.909-1.357c-0.341-1.203,0.323-2.229,1.374-3.02c-2.391,0.256-4.804,0.471-7.075,0.895
				c-0.858,0.162-1.721,0.291-2.596,0.404C86.633,207.846,86.774,208.709,87.383,209.572z"/>
			<path fill="#FF0000" d="M132.372,198.695c1.568-0.646,2.88-1.184,3.697-1.531c-0.993-0.533-1.953-1.086-2.827-1.697
				c-1.037,0.447-2.146,0.974-3.261,1.493C130.607,197.634,131.471,198.21,132.372,198.695z"/>
		</g>
		<path fill="#FF0000" d="M136.245,189.709c0,0,1.023-1.722,2.305-1.486l-3.702-1.664l0.047,2.682L136.245,189.709z"/>
	</g>
	<path fill="#245977" d="M96.537,126.68c-0.262-1.847-0.587-3.656-1.128-5.486c-0.335-1.127-0.581-3.711-1.56-4.258
		c-3.197,2.742-11.311-9.049-13.361-11.146c-1.886-1.926-8.195-12.406-9.901-15.084c-1.785-2.795-3.778-5.231-4.184-8.541
		c-0.104-0.844,3.59-27.523,5.779-33.479c0.606-1.649-0.126-1.39,1.062-2.353c1.128-0.914,2.679-1.952,3.503-3.136
		c1.95-2.813,3.321-4.515,1.729-7.564c-0.025-0.052-0.041-0.096-0.069-0.147c0.35-0.263,0.758-0.312,1.047-0.772
		c0.276-0.446,0.348-0.886-0.074-1.25c-0.319-0.279-0.822-0.476-1.24-0.569c-0.137-0.029-0.475-0.085-0.75-0.167
		c-0.356-1.81,0.09-3.34,1.326-5.205c0.527-0.794,3.188-3.083,2.635-3.945c-1.33-2.062-5.95,4.708-7.942,6.739
		c-1.827,1.865-3.736,3.869-4.688,6.217c-2.081,5.13-4.351,10.691-6.328,16.174c-1.19,3.305-7.039,19.764-7.845,22.842
		c-0.139,0.529-0.013,8.893,0.173,9.813c0.116,0.572,3.393,6.907,5.104,10.064c1.713,3.157,10.12,14.833,12.193,17.53
		c2.005,2.602,12.065,14.159,14.741,16.592c1.964,1.79,7.333,7.438,9.458,8.463C98.53,136.828,96.96,129.666,96.537,126.68z"/>
	<path fill="#245977" d="M108.325,361.039c0.033,0.039,0.062,0.078,0.094,0.117c-2.168-0.252-4.549-0.429-6.81-0.203
		c-1.06,0.106-1.313,0.714-1.785,1.607c-0.462,0.879-0.563,1.464,0.517,1.721c0.639,0.154,1.286,0.162,1.928,0.22
		c0.558,0.051,1.059,0.226,1.641,0.203c1.4-0.05,2.68-0.095,4.013-0.406c0.62-0.138,1.872-0.424,1.949-1.315
		c0.058-0.654-0.922-1.716-1.54-1.801"/>
	<path fill="#245977" d="M139.403,125.525c5.88,2.598,8.271,9.883,9.842,12.608c2.373,4.106,2.357,4.469,4.868,8.487
		c3.25,5.203,6.679,10.193,9.883,15.421c2.503,4.088,5.179,7.748,8.426,11.341c5.589,6.188,11.432,14.377,17.913,19.529
		c2.741,2.18,4.06,2.757,6.82,4.643c1.326,0.904,4.531,5.808,4.285,6.443c-0.246,0.631-4.058-4.757-3.855-4.075
		c0.224,0.751,4.814,6.923,4.765,7.856c-1.01,1.483-4.355-2.747-5.675-4.307c1.176,2.225,6.999,5.33,4.693,5.852
		c-1.462-0.484-5.139-4.047-6.303-4.986c0.235,1.264,4.318,3.643,4.093,4.415c-0.453,0.587-6.358-2.519-8.669-5.526
		c-3.24-4.216-7.015-6.951-10.513-10.865c-6.506-7.275-14.819-13.242-21.47-20.617c-5.37-5.959-10.937-15.307-16.607-21.381
		c-1.756-1.879-4.666-6.039-6.859-4.119c-1.285,1.124,0.467-4.688,1.02-6.295c0.682-1.985,0.979-6.056,2.423-7.42"/>
	<g>
		<g>
			<path d="M189.562,195.211c-2.073,0.125-4.507-0.45-6.523-0.685c-2.109-0.24-4.454-0.954-6.108-1.729
				c-1.848-0.86-3.136-1.646-4.271-2.931c-0.377-0.424-1.078-1.851-1.712-3.031c-0.723-1.349-1.479-3.496-1.072-4.122
				c0.925-0.088,3.915,2.827,4.262,3.561c0.394,0.826,0.747,1.228,1.15,1.688c1.298,1.473,5.106,3.511,7.868,4.158
				c2.838,0.672,5.886,0.756,8.953,0.969c2.94,0.213,6.436,0.136,9.593-0.295c5.787-0.787,11.733-2.15,17.037-4.053
				c3.433-1.23,10.576-2.984,25.698-11.457c2.183-1.22,11.111-7.023,12.982-8.885c2.022-2.016,9.091-10.029,10.261-12.042
				c1.079-1.842,1.821-3.945,1.548-5.885c-0.145-1.082-0.078-2.261-0.436-3.319c-0.268-0.822-0.958-1.724-1.514-2.513
				c-1.256-1.78-2.964-3.175-5.766-4.106c-2.501-0.826-5.366-1.351-8.213-1.502c-3.432-0.193-6.662,0.506-10.035,0.801
				c-7.376,0.649-14.337,2.559-21.325,4.096c-6.468,1.443-12.361,3.354-18.273,5.546c-2.688,0.993-5.28,2.204-7.549,3.542
				c-2.292,1.338-4.782,2.394-7.074,3.672c-2.268,1.273-4.396,2.802-6.463,4.242c-1.001,0.709-1.839,1.465-2.811,2.201
				c-0.608,0.475-4.602,6.365-6.688,9.702c-0.723,1.149-0.507,0.986-0.46,0.773c0.047-0.212-2.127-2.442-2.127-2.442
				s-0.132-0.272,0.947-2.215c2.105-3.791,6.906-9.508,7.66-10.139c2.233-1.879,4.936-3.58,7.431-5.338
				c4.681-3.298,11.376-5.75,17.432-7.863c7.765-2.7,16.225-4.79,24.464-6.759c7.98-1.894,16.654-2.763,25.185-2.903
				c3.7-0.066,7.452,0.777,10.729,1.723c2.396,0.691,5.768,1.817,6.967,3.321c3.983,4.96,4.136,12.015,0.354,17.339
				c-1.58,2.215-3.54,4.457-5.775,6.506c-3.181,2.926-7.145,5.295-10.645,8.059c-6.055,4.805-14.111,8.725-21.709,12.684
				c-4.74,2.461-25.227,9.33-30.311,9.737c-1.656,0.134-3.48,0.413-5.136,0.415C196.118,195.74,189.562,195.211,189.562,195.211z"/>
			<g>
				<path fill="#FFFFFF" d="M193.927,154.189c0,0,0.035-1.598,0.509-2.707c0.437-1.026,0.892-2.059,1.775-2.975
					c-1.87,0.736-4.459,1.961-4.459,1.961l-0.839,5.233L193.927,154.189z"/>
				<path fill="#FFFFFF" d="M204.837,149.057c1.09-1.774,1.822-3.683,3.86-4.988c-1.602,0.496-3.178,1.004-4.732,1.541
					c-1.311,0.455-2.655,0.941-3.983,1.436c-0.048,0.176-0.076,0.363-0.097,0.551c-0.171,1.158-0.065,2.453-0.432,3.654
					c1.358-0.642,2.763-1.243,4.213-1.776C204.044,149.328,204.44,149.197,204.837,149.057z"/>
				<path fill="#FFFFFF" d="M218.337,141.43c0.016-0.033,0.04-0.055,0.063-0.076c-1.419,0.371-2.84,0.723-4.241,1.117
					c-0.217,0.51-0.329,1.028-0.504,1.54c-0.274,0.816-0.766,1.646-1.53,2.366c-0.113,0.107-0.248,0.219-0.376,0.326
					c1.745-0.548,3.517-1.066,5.312-1.559C217.382,143.891,217.571,142.619,218.337,141.43z"/>
				<path fill="#FFFFFF" d="M233.221,138.5c0.592-0.369,1.236-0.688,1.907-0.973c-2.271,0.369-4.515,0.809-6.699,1.323
					c-0.595,0.146-1.189,0.294-1.785,0.44c-0.459,0.305-0.869,0.646-1.228,1.039c-0.898,1.033-1.441,2.146-1.963,3.264
					c1.9-0.436,3.798-0.875,5.709-1.315C230.179,140.898,231.444,139.576,233.221,138.5z"/>
				<path fill="#FFFFFF" d="M244.76,139.68c0.491-1.373,2.123-2.689,4.179-3.57c-2.027,0.111-4.046,0.254-6.058,0.446
					c-0.172,0.093-0.362,0.182-0.53,0.284c-1.395,0.856-2.528,1.818-3.505,2.857c-0.242,0.257-0.479,0.534-0.724,0.797
					c1.697-0.266,3.417-0.506,5.143-0.662C243.771,139.793,244.257,139.74,244.76,139.68z"/>
				<path fill="#FFFFFF" d="M268.792,147.152c0.022,0.049,0.032,0.105,0.05,0.162c1.707,0.193,3.514-0.117,5.133-0.646
					c-0.203-0.873-0.465-1.739-0.832-2.564c-1.67,0.648-3.51,1.162-5.412,1.161C268.155,145.884,268.591,146.536,268.792,147.152z"
					/>
				<path fill="#FFFFFF" d="M269.001,153.192c0.453,0.604,1.781,0.821,3.006,0.771c0.576-0.025,1.203-0.098,1.791-0.227
					c0.314-1.189,0.516-2.395,0.525-3.603c-0.654,0.263-1.42,0.446-2.17,0.559c-0.91,0.124-1.942,0.189-2.896,0.077
					C269.324,151.562,269.219,152.383,269.001,153.192z"/>
				<path fill="#FFFFFF" d="M269.749,160.775c0.685-0.814,1.33-1.631,1.914-2.445c0.063-0.098,0.13-0.209,0.208-0.313
					c-0.922,0.11-1.861,0.142-2.661,0.099c-0.854-0.042-1.826-0.199-2.384-0.531c-0.51,0.678-1.185,1.514-1.945,2.424
					C265.8,160.829,267.885,161.053,269.749,160.775z"/>
				<path fill="#FFFFFF" d="M261.653,168.221c1.119-0.82,2.237-1.652,3.266-2.535c-0.561-0.104-1.077-0.284-1.51-0.568
					c-0.812-0.571-1.135-1.29-1.158-2.037c-0.902,1.051-1.795,2.055-2.601,2.931C259.764,166.896,260.524,167.783,261.653,168.221z"
					/>
				<path fill="#FFFFFF" d="M252.183,175.128c1.066-0.725,2.093-1.466,3.061-2.233c0.442-0.35,0.906-0.673,1.343-1.006
					c-0.744-0.506-1.259-1.158-1.29-1.781c-1.114,0.828-2.495,1.785-3.898,2.742C251.249,173.627,251.548,174.443,252.183,175.128z"
					/>
				<path fill="#FFFFFF" d="M242.703,178.244c-0.151,0.733,0.162,1.49,0.849,2.075c1.08-0.592,2.151-1.193,3.206-1.802
					c-0.657-0.521-1.093-1.17-1.266-1.856c-0.435,0.269-0.793,0.474-1.056,0.622C243.835,177.624,243.278,177.928,242.703,178.244z"
					/>
				<path fill="#FFFFFF" d="M235.839,184.277c0.019,0.027,0.042,0.04,0.055,0.071c1.192-0.617,2.381-1.233,3.576-1.863
					c-0.555-0.682-0.756-1.405-0.674-2.161c-1.083,0.57-2.116,1.084-3.107,1.577C235.306,182.691,235.297,183.529,235.839,184.277z"
					/>
				<path fill="#FFFFFF" d="M226.471,188.465c2.046-0.748,3.871-1.456,5.253-2.051c-0.221-0.209-0.408-0.441-0.522-0.706
					c-0.235-0.555-0.221-1.128-0.03-1.685c-2.27,1.016-4.188,1.794-5.853,2.424C225.334,187.111,225.778,187.827,226.471,188.465z"
					/>
				<path fill="#FFFFFF" d="M214.001,190.244c-0.705,0.721-1.222,1.51-1.402,2.296c-0.037,0.176-0.039,0.353-0.049,0.539
					c2.453-0.733,5.106-1.573,7.696-2.438c-0.11-0.153-0.207-0.325-0.247-0.509c-0.198-0.628-0.095-1.277,0.203-1.891
					c-0.537,0.176-1.044,0.339-1.464,0.498C217.208,189.285,215.62,189.784,214.001,190.244z"/>
				<path fill="#FFFFFF" d="M199.618,195.664c1.209-0.098,2.449-0.257,3.605-0.349c0.795-0.063,1.964-0.289,3.396-0.623
					c-0.098-0.991,0.715-2.193,1.936-3.103c-1.619,0.34-3.236,0.629-4.857,0.891C201.92,193.015,200.213,194.354,199.618,195.664z"
					/>
				<path fill="#FFFFFF" d="M187.453,194.338c-0.19,0.24-0.345,0.49-0.486,0.752c0.886,0.101,1.779,0.166,2.596,0.121
					c0,0,1.125,0.083,2.58,0.191c0.074-0.795,0.6-1.611,1.419-2.25c-0.482-0.021-0.985-0.029-1.453-0.064
					c-1.005-0.069-1.995-0.131-2.995-0.197C188.401,193.31,187.844,193.849,187.453,194.338z"/>
				<path fill="#FFFFFF" d="M183.715,192.232c-0.199-0.038-0.383-0.071-0.56-0.113c-1.299-0.309-2.339-0.68-3.218-1.137
					c-1.31,0.466-2.673,0.867-4.035,1.274c0.322,0.181,0.65,0.362,1.028,0.54c0.863,0.41,1.923,0.788,3.03,1.102
					C181.113,193.256,182.377,192.68,183.715,192.232z"/>
				<path fill="#FFFFFF" d="M271.504,141.25c-0.058-0.086-0.119-0.174-0.194-0.259c-0.688-0.866-2.099-1.597-3.621-2.198
					c-0.787-0.016-1.622,0.107-2.352,0.32c-1.214,0.356-2.567,1.028-2.662,1.866c1.439,0.614,2.535,1.402,3.441,2.301
					C267.394,142.303,269.453,141.641,271.504,141.25z"/>
				<path fill="#FFFFFF" d="M260.884,136.784c-1.249-0.277-2.545-0.507-3.846-0.657c-2.061,0.447-3.952,1.708-4.775,2.872
					c0.344,0.001,0.691,0.012,1.037,0.032c1.312,0.07,2.633,0.227,3.93,0.454C257.938,138.521,259.317,137.473,260.884,136.784z"/>
			</g>
		</g>
		<path fill="#FFFFFF" d="M171.27,187.441c-0.132-0.251,3.859,1.195,4.145,0.657l1.409,1.144c0,0-2.219,2.161-2.809,1.882
			c-0.585-0.278-1.542-1.507-1.542-1.507S171.401,187.695,171.27,187.441z"/>
		<path fill="#FFFFFF" d="M188.264,152.344c0,0-1.831,3.233-1.083,5.459l-2.976,1.992c0,0-1.564-2.775-0.367-4.469L188.264,152.344z
			"/>
		<path fill="#FFFFFF" d="M180.044,158.051c0,0-1.494,2.254,0.258,4.666l-1.9,2.157c0,0-2.126-0.973-1.393-3.705
			c0,0,0.496-0.587,1.271-1.495C179.312,158.465,180.044,158.051,180.044,158.051z"/>
		<path fill="#FFFFFF" d="M174.284,164.656c0,0-1.074,1.758,1.539,3.961l-1.395,2.111c0,0-2.553-0.282-2.071-3.296L174.284,164.656z
			"/>
	</g>
</g>
</svg>
