<?xml version="1.0" encoding="utf-8"?>
<!-- Generator: Adobe Illustrator 16.0.4, SVG Export Plug-In . SVG Version: 6.00 Build 0)  -->
<!DOCTYPE svg PUBLIC "-//W3C//DTD SVG 1.1//EN" "http://www.w3.org/Graphics/SVG/1.1/DTD/svg11.dtd">
<svg version="1.1" id="Ebene_1" xmlns="http://www.w3.org/2000/svg" xmlns:xlink="http://www.w3.org/1999/xlink" x="0px" y="0px"
	 width="283.46px" height="425.2px" viewBox="0 0 283.46 425.2" enable-background="new 0 0 283.46 425.2" xml:space="preserve">
<g>
	<path fill="#245977" d="M52.628,204.605c0.542,0.207,0.94,0.582,1.379,0.942c0.167,0.137,0.33,0.214,0.452,0.402
		c0.167,0.258,0.323,0.543,0.404,0.841c0.069,0.251,0.134,0.52,0.148,0.779c0.012,0.209-0.034,0.416-0.05,0.622
		c-0.017,0.221-0.059,0.424-0.099,0.646c-0.022,0.123-0.037,0.263-0.102,0.371c-0.124,0.205-0.378,0.369-0.56,0.521
		c-0.196,0.166-0.433,0.27-0.659,0.39c-1.191,0.632-2.462,1.211-3.802,1.439c-0.908,0.154-1.834,0.268-2.756,0.275
		c-1.082,0.008-2.158-0.006-3.239-0.049c-0.743-0.029-1.487-0.165-2.231-0.163c-0.798,0.002-1.606-0.099-2.404-0.007
		c-0.376,0.044-0.758,0.118-1.125,0.212c-0.295,0.076-0.559,0.203-0.841,0.311c-0.53,0.203-1.061,0.474-1.564,0.74
		c-1.063,0.564-2.054,1.255-3.178,1.684c-0.483,0.185-0.94,0.261-1.462,0.264c-0.213,0.001-0.424-0.034-0.632-0.072
		c-0.181-0.033-0.375-0.036-0.545-0.105c-0.127-0.053-0.213-0.107-0.357-0.082c-0.194,0.035-0.367,0.139-0.568,0.149
		c-0.289,0.015-0.591-0.025-0.881-0.034c-0.533-0.017-0.801-0.211-0.902-0.756c-0.447,0.302-0.941,0.571-1.482,0.32
		c-0.483-0.224-0.737-0.751-0.836-1.249c-0.044-0.22-0.048-0.492-0.223-0.656c-0.137-0.128-0.297-0.161-0.449-0.261
		c-0.179-0.117-0.353-0.232-0.545-0.325c-0.463-0.223-0.94-0.441-1.428-0.603c-0.201-0.066-0.432-0.113-0.62-0.211
		c-0.16-0.083-0.304-0.081-0.479-0.121c-0.231-0.052-0.478-0.124-0.718-0.129c-0.675-0.014-1.357-0.041-2.033,0.021
		c-0.203,0.018-0.407,0.006-0.61,0.036c-0.179,0.026-0.366,0.047-0.546,0.062c-0.292,0.024-0.581,0.08-0.869,0.143
		c-0.275,0.061-0.555,0.113-0.827,0.187c-0.291,0.078-0.598,0.105-0.882,0.201c-0.222,0.075-0.426,0.158-0.658,0.199
		c-0.498,0.088-1.112,0.16-1.509-0.227c-0.03-0.029-0.059-0.061-0.085-0.094c-0.184-0.235,0.129-0.585,0.296-0.747
		c0.34-0.329,0.766-0.524,1.178-0.746c0.207-0.11,0.433-0.179,0.653-0.254c0.333-0.114,0.661-0.233,0.995-0.344
		c0.389-0.129,0.783-0.243,1.169-0.382c0.231-0.084,0.469-0.169,0.707-0.229c0.246-0.06,0.479-0.15,0.724-0.21
		c1.201-0.299,2.434-0.508,3.657-0.669c0.226-0.03,0.455-0.031,0.682-0.059c0.208-0.025,0.416-0.054,0.623-0.08
		c0.339-0.04,0.675-0.095,1.01-0.162c0.309-0.062,0.713-0.207,0.955-0.414c0.243-0.208,0.539-0.364,0.752-0.607
		c0.171-0.193,0.733-0.437,0.429-0.747c-0.142-0.144-0.276-0.318-0.414-0.478c-0.456-0.533-0.864-1.142-1.298-1.711
		c-0.646-0.847-1.482-2.032-1.478-3.248c0.004-0.616,0.073-1.563,0.623-1.633c0.264-0.035,0.449,0.254,0.669,0.436
		c0.269,0.223,0.555,0.446,0.801,0.726c0.367,0.415,0.786,0.78,1.23,1.111c0.406,0.301,0.819,0.649,1.269,0.888
		c0.425,0.226,0.772,0.43,1.267,0.416c0.515-0.015,1.037-0.112,1.553-0.152c0.596-0.046,1.215-0.168,1.811-0.029
		c0.816,0.19,1.684,0.426,2.465,0.731c1.051,0.411,2.125,0.724,3.16,1.188c0.471,0.211,0.97,0.27,1.45,0.433
		c0.661,0.223,1.323,0.444,1.992,0.651c1,0.309,2.012,0.542,3.05,0.678c0.534,0.069,1.086,0.138,1.624,0.154
		c0.699,0.021,1.402-0.062,2.09-0.177c0.504-0.085,0.901-0.374,1.388-0.51C50.381,204.751,51.541,204.19,52.628,204.605z"/>
	<path fill="#245977" d="M97.752,177.47c-0.363-0.261-0.732-0.519-1.103-0.784c-1.019-0.725-2.066-1.503-3.153-2.07
		c-1.124-0.586-2.269-0.938-3.519-1.227c-1.283-0.296-2.54-0.526-3.854-0.596c-1.522-0.08-2.946,0.583-4.375,1.007
		c-0.67,0.198-1.312,0.472-1.979,0.663c-0.807,0.231-1.561,0.43-2.286,0.887c-1.106,0.698-2.163,1.519-3.222,2.286
		c-0.843,0.61-1.717,1.226-2.42,2.014c-1.092,1.224-2.122,2.434-3.013,3.797c-0.529,0.81-0.904,1.801-1.371,2.655
		c-0.72,1.314-1.35,2.695-1.94,4.071c-0.577,1.347-1.259,2.71-2.014,3.967c-0.25,0.416-0.614,0.739-0.857,1.16
		c-0.356,0.619-0.701,1.263-1.017,1.903c-0.144,0.29-0.31,0.58-0.502,0.834c-0.527,0.695-1.112,1.235-1.775,1.813
		c-0.443,0.387-0.897,0.741-1.368,1.092c-0.551,0.412-1.097,0.835-1.663,1.22c-0.544,0.369-1.188,0.633-1.766,0.944
		c-0.536,0.289-1.104,0.545-1.667,0.762c-0.515,0.198-1.021,0.42-1.546,0.595c-0.353,0.117-0.685,0.234-1.046,0.315
		c-0.38,0.084-0.75,0.187-1.119,0.312c-0.303,0.103-0.579,0.255-0.871,0.398c-0.124,0.061-0.256,0.088-0.382,0.139
		c-0.338,0.135-0.619,0.344-0.836,0.638c-0.125,0.169-0.168,0.375-0.2,0.581c-0.068,0.452-0.022,0.918,0.092,1.358
		c0.072,0.277,0.167,0.545,0.239,0.82c0.162,0.617,0.292,1.22,0.63,1.774c0.345,0.562,1.129,0.653,1.733,0.608
		c0.678-0.051,1.37-0.125,2.045-0.243c1.155-0.202,2.306-0.386,3.438-0.708c0.7-0.2,1.418-0.386,2.094-0.66
		c0.397-0.162,0.793-0.351,1.173-0.552c0.304-0.161,0.595-0.345,0.874-0.546c0.265-0.191,0.505-0.439,0.791-0.597
		c0.182-0.099,0.382-0.147,0.559-0.259c0.306-0.192,0.594-0.427,0.882-0.646c0.748-0.566,1.454-1.27,2.094-1.952
		c0.744-0.792,1.563-1.621,2.122-2.544c0.168-0.277,0.409-0.5,0.575-0.78c0.155-0.26,0.318-0.516,0.455-0.789
		c0.321-0.645,0.698-1.267,1.006-1.919c0.985-2.081,1.706-4.296,2.827-6.313c0.85-1.529,1.418-3.111,2.139-4.687
		c0.897-1.962,2.417-4.419,4.363-5.491c0.806-0.444,1.705-0.717,2.534-1.115c1.198-0.574,2.396-1.205,3.733-1.375
		c0.983-0.125,2.188,0.062,3.191,0.154c1.233,0.114,2.471,0.188,3.675,0.528c1.903,0.537,3.047,1.92,4.675,2.876
		c1.549,0.909,2.19,1.715,2.989,3.403c0.605,1.277,1.244,2.52,1.869,3.8c1.542,3.158,2.323,6.782,2.313,10.256
		c-0.005,1.838,0.388,3.581,0.256,5.48c-0.14,2.009-0.426,4.069-0.756,6.021c-0.301,1.78-0.385,3.572-0.757,5.242
		c-0.669,3.006-0.382,6.189-1.159,9.143c-0.742,2.821-0.412,6.221-0.279,9.136c0.213,4.676,0.977,10.298,3.725,14.192
		c3.334-1.284,2.91-5.51,3.61-8.565c0.559-2.438,1.524-4.869,1.845-7.353c0.364-2.823,0.546-5.533,0.568-8.353
		c0.055-7.274,0.475-14.188-0.099-21.342c-0.208-2.608,0.043-4.899-0.274-7.495c-0.222-1.812-0.615-3.689-1.188-5.442
		c-1.017-3.106-2.4-5.95-4.229-8.671c-0.924-1.375-1.981-2.66-3.152-3.832C99.375,178.676,98.578,178.064,97.752,177.47z"/>
	<path fill="#245977" d="M164.721,219.705c-0.72,1.608-2.282,2.528-3.646,3.558c-2.421,1.829-4.308,4.242-6.734,6.049
		c-2.961,2.207-5.67,4.689-8.619,6.9c-4.262,3.194-8.564,6.439-12.786,9.608c-1.943,1.458-3.794,2.808-5.442,4.655
		c-1.701,1.907-3.75,3.666-5.489,5.556c-1.279,1.391-2.63,2.781-4.217,3.844c-0.776,0.521-1.663,0.714-2.592,0.714
		c-3.97,0-9.251-3.917-12.927-1.053c-0.75-1.924-1.116-2.588-2.549-4.332c-1.082-1.312-2.08-3.248-3.668-3.718
		c0.504-0.831,1.498-1.043,2.232-1.609c1.727-1.337,1.713-3.459,2.46-5.321c0.361-0.9,0.897-1.728,1.231-2.634
		c0.835-2.271,2.136-4.531,3.772-6.358c1.291-1.441,2.736-2.667,4.178-3.953c1.868-1.666,3.503-3.586,5.492-5.123
		c3.958-3.059,7.596-6.428,11.199-9.882c1.288-1.234,2.604-2.564,3.995-3.678c1.21-0.97,2.649-1.699,3.867-2.624
		c1.81-1.376,3.493-2.869,5.315-4.179c3.736-2.686,7.824-4.317,12.528-3.354c2.458,0.503,4.836,1.478,6.925,2.868
		c4.421,2.942,7.632,8.458,5.568,13.842C164.785,219.558,164.754,219.632,164.721,219.705z"/>
	<path fill="#FF0000" d="M109.012,234.41c0.691-0.534,1.491-0.906,2.127-1.52c0.646-0.622,1.044-1.008,1.974-1.208
		c2.211-0.474,4.299,0.42,5.859,1.978c3.571,3.567,0.442,8.524-1.781,12.146c-1.164,1.903-2.924,4.293-4.565,5.797
		c-1.511,1.385-2.629,2.935-4.06,4.4c-0.636,0.655-2.476,2.195-2.512,3.161c1.913-0.055,3.82,0.731,5.625,0.876
		c0.587-3.656,3.962-6.562,6.113-9.431c2.244-3.001,4.309-6.701,8.328-6.965c2.401-0.16,4.985,0.267,7.388,0.399
		c0.715,0.041,2.413,0.536,2.895,0.449c1.029-0.189,1.705-1.378,2.485-2.026c1.748-1.449,3.638-2.898,5.543-4.259
		c1.239-0.888,10.053-7.217,11.515-8.625c1.027-0.995,8.403-5.479,10.735-5.981c3.49-0.749,7.244-1.958,10.969-1.792
		c4.446,0.194,7.5,2.333,10.245,5.854c1.267,1.618,2.673,3.206,3.17,5.214c0.185,0.76-0.048,1.605,0.13,2.376
		c0.23,1.03,1.636,1.545,1.436,2.652c1.077-2.307,3.989-4.261,5.899-5.959c2.764-2.449,5.133-5.455,6.914-8.643
		c1.971-3.533,6.095-10.254,4.428-14.522c-1.004-2.572-5.143-4.497-7.381-5.82c-4.632-2.741-9.833-4.928-15.212-5.736
		c-4.795-0.719-9.606-1.073-14.403-1.693c-4.049-0.523-8.262-1.014-12.32-0.292c-4.745,0.847-9.526,2.693-13.972,4.473
		c-4.122,1.644-7.468,3.561-11.051,6.035c-4.003,2.759-7.849,5.779-11.75,8.702c-4.245,3.179-7.607,7.137-10.8,11.252
		c-2.525,3.261-5.332,6.324-7.87,9.631c-0.75,0.978-1.533,1.985-2.411,2.854c-0.679,0.673-1.62,1.235-2.107,2.078
		c-0.536,0.925-0.826,1.862-1.203,2.854c-0.542,1.43-1.509,3.98,0.577,4.632c0.716-0.84,0.854-2.073,1.343-3.05
		c0.46-0.92,0.962-1.621,1.235-2.576c0.268-0.939,0.86-1.712,1.511-2.431c0.795-0.876,1.655-1.689,2.453-2.545
		c0.746-0.8,1.358-1.714,2.169-2.463C108.788,234.591,108.898,234.498,109.012,234.41z"/>
	<path fill="#FF0000" d="M193.669,253.14C193.891,253.151,193.891,253.151,193.669,253.14"/>
	<path d="M195.498,234.167c1.232,1.746,2.2,4.517,2.752,6.594c0.661,2.485,0.991,4.738,0.991,7.385
		c0.009,5.69-1.733,10.834-2.68,16.269c-0.476,2.718-0.776,5.489-1.235,8.15c-0.532,3.061-1.618,6.034-2.083,9.097
		c-1.256,8.255-5.553,15.526-9.499,22.837c-1.561,2.892-3.435,5.644-5.035,8.488c-1.863,3.291-5.578,5.681-7.016,9.152
		c-1.534,3.711-3.234,7.514-5.467,10.809c-1.997,2.956-4.138,5.886-5.901,8.954c-1.422,2.48-3.924,5.37-4.449,7.945
		c2.415,0.331,4.264,0.886,6.487,1.711c1.109,0.413,1.999,0.698,3.131,0.952c1.347,0.304,2.337,0.071,3.666,0.176
		c0.156-1.059,0.022-2.241,0.402-3.177c0.463-1.146,1.529-2.209,2.177-3.266c1.563-2.556,2.821-5.302,4.072-7.983
		c2.78-5.991,9.083-9.627,13.817-13.895c5.901-5.325,9.8-13.406,14.045-20.167c4.427-7.059,8.372-14.554,11.745-22.145
		c1.919-4.325,4.281-6.058,6.175-10.378c4.15-9.455,6.625-19.365,7.107-29.631c0.217-4.46-1.26-9.102-2.52-13.361
		c-1.602-5.389-5.886-9.773-8.938-14.525c-1.981-3.081-4.149-4.745-7.306-6.194c-0.146,1.042-0.057,2.141-0.208,3.193
		c-0.247,1.769-1.189,3.042-1.926,4.635c-1.11,2.398-2.114,4.823-3.488,7.201c-1.415,2.435-2.93,4.697-4.886,6.772
		c-1.454,1.545-3.472,2.479-4.713,4.044c0.539,0.105,1.057,0.24,1.573,0.402"/>
	<path d="M175.789,338.512c-0.299,1.121-1.7,2.472-2.384,3.581c-0.824,1.347-1.497,2.691-2.07,4.125
		c-1.121,2.8-2.369,6.335-2.257,9.374c1.419,0.214,2.565,0.521,3.884,0.78c1.333,0.265,3.289,0.979,4.633,0.742
		c-0.169-0.664-0.151-1.39-0.053-2.079c0.642-4.517,1.306-8.976,3.357-13.13c1.283-2.598,3.318-4.921,4.917-7.347
		c1.971-3.001,3.804-6.183,5.815-9.179c1.908-2.855,4.771-4.974,6.509-7.968c1.424-2.465,2.934-4.934,4.3-7.434
		c2.588-4.768,4.875-9.597,7.463-14.356c1.378-2.531,2.331-5.247,3.604-7.835c1.256-2.549,2.992-4.72,4.33-7.212
		c1.659-3.106,3.264-5.978,4.505-9.189l2.983-9.823l-44.923,70.054L175.789,338.512z"/>
	<path d="M178.985,356.837c-1.041-0.596,0.001-2.137,0.263-3.134c-3.349,0.052-5.816-0.755-9.13-0.785
		c-0.124,0.355-0.269,0.689-0.434,1.022c-0.095,1.235-0.606,2.399-1.214,3.474c-0.095,0.168-0.625,0.906-1.2,1.636
		c-0.068,0.475-0.087,2.439-0.009,2.803c1.447,0.566,5.313,0.764,5.866,0.824c0.168-0.011,0.333-0.025,0.493-0.039
		c-0.016-0.432,0.242-0.637,0.283-1.029c2.871,0.915,13.21,1.132,14.845,0.711c1.295-0.333,3.516-0.538,4.413-1.625
		c0.206-0.707,1.16-1.556,1.331-2.462C194.523,358.065,180.499,357.693,178.985,356.837z"/>
	<path fill="#FF0000" d="M184.428,358.2c-0.787,0.052-1.561-0.009-2.348-0.08c-0.304-0.014-0.61-0.028-0.934-0.028
		c-0.091,0-0.165-0.029-0.251-0.041c-1.242,0.23-2.647-0.452-4.067-0.95c-2.723-0.961-6.146-0.966-8.2-1.557
		c0.393-1.415-0.071-1.956,0.897-3.645c-4.423,0.05-9.226-1.89-13.58-2.214c-1.019,2.552-3.264,6.197-3.872,9.008
		c0,0,4.755,3.292,7.904,3.205c0.016-0.521,0.341-0.749,0.423-1.221c3.4,1.335,7.915,2.242,11.731,2.449
		c2.238,0.121,4.163-0.025,6.171-0.401c1.598-0.299,4.3-0.37,5.478-1.616c0.274-0.771,1.308-1.646,1.689-2.627
		C185.113,358.424,184.766,358.332,184.428,358.2z"/>
	<path d="M168.552,355.63c-0.027-0.016-0.164-0.187-0.237-0.269c-0.206-0.215-0.505-0.37-0.758-0.523
		c-0.652-0.391-1.643-0.901-2.433-0.874c-0.588,0.021-0.954,0.511-1.159,1.014c-0.322,0.805-0.169,1.586,0.187,2.339
		c0.221,0.461,0.575,1.066,1.086,1.233c0.621,0.205,1.096-0.08,1.603-0.391c0.511-0.315,0.911-0.895,1.218-1.411
		c0.224-0.355,0.242-0.698,0.409-1.065c-0.042,0.183-0.212,0.267-0.317,0.401c-0.165,0.208-0.301,0.416-0.477,0.596
		c-0.363,0.363-0.773,0.589-1.258,0.737c-0.922,0.288-1.687-0.498-1.855-1.36c-0.059-0.285-0.066-0.942,0.089-1.191
		c0.233-0.388,0.735-0.321,1.085-0.18c0.694,0.276,1.247,0.627,1.996,0.781c0.259,0.055,0.525,0.123,0.77,0.212
		c0.034,0.641-0.021,1.31-0.053,1.949c-0.019,0.301-0.009,0.612-0.05,0.913c-0.033,0.208-0.215,0.52-0.151,0.716
		c0.224-0.084,0.409-0.208,0.648-0.267c0.221-0.055,0.447-0.034,0.662-0.117c0.438-0.171,0.087-0.603-0.05-0.929
		c-0.332-0.785-0.66-1.67-0.799-2.487c-0.151-0.854-0.037-2.022,0.899-2.378c0.812-0.31,1.442,0.665,1.525,1.356
		c0.132,1.095-1.301,1.643-2.041,1.015c0.667,0.258,1.178,0.033,1.456-0.623c0.217-0.506,0.164-1.054-0.44-1.154
		c-1.449-0.244-0.75,1.294-1.303,2.008c-0.027-0.011-0.045-0.025-0.077-0.039"/>
	<path fill="#FF0000" d="M177.965,355.379c0.725-0.591,0.94-2.289,1.597-3.131c0.552-0.705,1.926-2.015,2.265-0.468
		c0.465,2.157-1.52,3.439-3.259,3.517c1.034,0.826,2.488-1.678,2.011-2.68c-0.852-0.365-1.189,0.769-1.481,1.365
		c-0.346,0.711-0.769,1.344-1.415,1.803c-0.439-1.785-4.387-2.3-3.2-0.297c0.755,1.273,3.258,1.24,4.304,0.726
		c-0.799,0.447-3.487-0.032-2.962-1.37c0.734-0.153,1.141,0.425,1.643,0.835c0.695,0.562,1.114,0.639,1.947,0.539
		c0.683-0.078,1.506-0.23,2.093-0.609c0.474-0.31,0.817-1.043,1.405-0.693c-0.44,0.141-0.219,0.67-0.059,1.029
		c-1.529-0.208-2.967,0.931-4.492,0.603c-0.019-0.162-0.041-0.399,0.01-0.563"/>
	<path fill="#245977" d="M76.824,277.52c-0.612-3.972-1.004-8.25-0.383-12.469c0.068-0.461,0.172-0.916,0.289-1.367
		c0.106-0.415,0.326-0.832,0.344-1.264c0.017-0.382-0.077-0.768-0.046-1.153c0.04-0.51,0.049-1.013,0.049-1.527
		c0-0.759-0.063-1.505-0.063-2.265c0-1.997-0.092-3.961,0.062-5.955c0.071-0.927,0.426-1.786,0.62-2.688
		c0.141-0.658,0.367-1.262,0.696-1.849c0.148-0.264,0.895-1.243,1.104-1.151c0.154,0.067,0.29,0.556,0.362,0.7
		c0.149,0.299,0.307,0.594,0.442,0.898c0.318,0.714,0.632,1.432,0.965,2.134c0.228,0.48,0.427,0.958,0.614,1.467
		c0.158,0.43,0.402,0.893,0.706,1.234c0.343,0.384,0.601,0.834,0.935,1.229c0.149,0.176,0.419,0.65,0.632,0.75
		c0.496,0.233,1.17-0.655,1.471-0.93c0.488-0.446,0.995-0.882,1.583-1.192c0.379-0.196,0.831,0.027,1.278-0.242
		c0.404-0.251,0.477-0.979,0.867-1.297c0.946-0.78,2.077-0.68,3.267-0.547c2.229,0.255,3.708,0.979,5.433,2.483
		c6.725,5.87,7.746,16.874,4.797,24.853c-2.287,6.194-6.847,9.641-13.557,9.303c-2.848-0.144-6.687-1.15-8.801-3.182
		c-1.102-1.057-1.734-2.216-2.473-3.524c-0.484-0.861-1.539-4.074-2.146-4.353"/>
	<path d="M76.159,275.895c0.156-2.844,0.393-4.423,2.529-6.484c1.954-1.887,3.378-3.086,5.943-2.121
		c3.477,1.301,8.613,3.184,8.563-2.834c0.679,3.567,1.647,7.898-2.305,10.124c1.018,0.411,2.885,0.796,2.926-0.829
		c0.397,1.068,0.137,2.623-0.486,3.556c2.862,0.027,2.787-6.16,3.111-7.975c0.562,0.785,1.114,1.794,1.091,2.862
		c1.992-2.458,1.707-5.854,1.812-8.729c0.657,1.127,0.972,2.645,1.643,3.869c0.831-0.942,0.945-2.57,1.045-3.782
		c3.117,0.586,1.967,10.202,1.664,12.512c-0.589,4.49-3.796,8.91-8.23,10.213c-4.101,1.205-8.583,1.883-12.783,0.101
		c-3.889-1.65-6.519-5.722-7.358-9.72c-0.456-2.178-0.301-4.195-0.18-6.441c0.121-2.298,1.029-4.019,1.454-6.199
		c0.886,1.91,0.347,5.058,1.178,7.103c-0.064-0.164-0.156-0.315-0.271-0.45"/>
	<path d="M123.833,227.099c-0.616,2.218,3.058,3.193,3.423,0.708c0.22-1.495-2.739-3.985-3.099-1.75"/>
	<path d="M132.688,220.163c-0.022,0.881-0.292,1.83,0.931,2.38c1.083,0.49,2.525-0.151,2.67-1.401
		c0.086-0.763-0.456-1.543-1.15-1.986c-1.553-0.988-2.175-0.064-2.481,1.534"/>
	<path d="M141.246,213.743c-0.816,0.735-1.22,3.38,0.872,3.487c3.347,0.173,0.722-4.437-0.62-3.211"/>
	<path d="M150.982,210.031c-0.748-0.463-2.514,3.818,0.841,3.184c0.445-0.908,0.375-4.238-1.383-2.949"/>
	<path d="M158.022,207.236c-2.095-0.496-0.821,3.174,1.15,3.254c3.769,0.15,0.478-5.404-0.607-3.487"/>
	<path d="M167.658,205.375c-2.09-0.876-2.438,3.666,0.05,4.031c2.782,0.413,1.721-4.354-1.104-4.09"/>
	<path d="M174.541,205.483c-2.651-0.203-1.985,4.578,0.826,4.281c3.803-0.397,0.754-5.662-1.09-4.295"/>
	<path d="M186.396,206.658c-1.719-0.788-2.896,4.727,0.812,4.546c3.671-0.182,0.667-5.47-1.09-4.297"/>
	<path d="M195.644,211.928c-2.095,1.063-0.821,5.498,1.612,4.549c3.528-1.37-1.269-6.539-2.178-3.787"/>
	<path d="M203.251,218.166c-1.251,0.954-1.409,4.51,1.079,4.573c3.255,0.087,2.104-6.97-1.314-5.115"/>
	<path d="M97.385,250.823c4.656,0.251,6.365,3.643,6.506,7.744c0.523-0.201,1.217-0.255,1.783-0.183
		c0.749-2.355-1.338-6.309-3.022-7.995c-0.793-0.792-2.481-1.709-3.515-1.545c-1.072,0.176-1.764,1.57-2.715,1.921
		c0.162,0.064,0.301,0.162,0.419,0.294"/>
	<path d="M101.04,251.816c-0.064,1.209,0.458,3.277,1.152,4.268c0.831-0.625,3.104-1.434,3.209-2.767
		c0.119-1.463-2.049-1.844-3.229-2.015c-0.478-2.392-2.709-4.268-4.22-6.176c-0.297,0.977-2.344,2.221-3.038,2.915
		c1.468,1.392,3.436,3.205,5.321,3.999"/>
	<path d="M81.418,263.187c0.419,0.217,0.739,0.522,1.203,0.675c0.454,0.15,0.938,0.107,1.396,0.034
		c0.4-0.066,0.792-0.199,1.144-0.413c0.262-0.158,0.46-0.443,0.747-0.57c-0.898,0.255-1.797,0.796-2.747,0.525
		c-0.959-0.274-1.265-1.208-1.904-1.801c-0.068,0.391-0.205,1.395,0.101,1.644c-0.014-0.062-0.055-0.043-0.092-0.103"/>
	<path fill="#FFFFFF" d="M84.3,262.442c-0.035-0.159-0.113-0.324-0.18-0.47c-0.1-0.219-0.245-0.459-0.439-0.604
		c-0.114-0.086-0.238-0.18-0.361-0.252c-0.076-0.044-0.185-0.095-0.271-0.114c-0.087-0.019-0.183-0.028-0.272-0.036
		c-0.129-0.012-0.261-0.027-0.39-0.005c-0.099,0.016-0.199,0.032-0.298,0.051c-0.06,0.011-0.14,0.02-0.194,0.047
		c-0.052,0.026-0.038,0.067-0.021,0.121c0.018,0.058,0.045,0.117,0.072,0.171c0.102,0.209,0.224,0.388,0.396,0.549
		c0.234,0.221,0.529,0.409,0.836,0.51c0.134,0.044,0.289,0.098,0.429,0.115c0.091,0.01,0.184-0.006,0.273,0.014
		c0.166,0.038,0.333,0.014,0.48,0.012"/>
	<path d="M82.949,261.779c0,0.26-0.067,0.483,0.22,0.562c0.151,0.042,0.306,0.067,0.446-0.014c0.268-0.155,0.387-0.4,0.284-0.71
		c-0.097-0.291-0.372-0.397-0.667-0.281c-0.253,0.1-0.524,0.495-0.346,0.753c0.155,0.224,0.496,0.274,0.746,0.227
		c0.18-0.034,0.242-0.111,0.254-0.296c0.009-0.141-0.009-0.349-0.105-0.462c-0.102-0.12-0.137-0.155-0.292-0.159
		c-0.159-0.003-0.288,0.065-0.442,0.068c-0.005,0.025,0.005,0.044,0.029,0.059"/>
	<path fill="#FD1813" d="M86.79,252.448c0.049,0.08,0.275,0.062,0.385,0.107c0.153,0.062,0.335,0.152,0.47,0.241
		c0.318,0.208,0.611,0.548,0.769,0.9c0.176,0.395,0.243,0.868,0.311,1.289c0.033,0.2,0.076,0.397,0.096,0.6
		c0.011,0.103,0.018,0.419,0.076,0.467c0.084-0.514-0.608-1.079-0.891-1.415c-0.405-0.482-0.904-0.802-1.504-0.936
		c-0.231-0.051-1.14-0.099-0.818-0.473c0.073-0.084,0.198-0.126,0.278-0.201c0.073-0.069,0.134-0.158,0.214-0.229
		c0.215-0.191,0.473-0.409,0.663-0.59"/>
	<path d="M84.645,254.277c0.128,0.152,0.274,0.084,0.452,0.123c0.182,0.043,0.325,0.16,0.464,0.274
		c0.299,0.242,0.705,0.986,1.075,1.004c0.315,0.014,0.771-0.379,0.993-0.58c0.252-0.23,0.646-0.603,0.573-0.981
		c-0.226-0.022-0.812,0.119-1.02,0.242c-0.035-0.223,0.162-0.365,0.112-0.602c-0.274-0.071-0.374,0.206-0.616,0.267
		c-0.009-0.197,0.112-0.546-0.128-0.628c-0.219-0.078-0.386,0.221-0.57,0.274c-0.046-0.107-0.06-0.233-0.055-0.352
		c-0.191-0.057-0.303,0.132-0.502,0.06c-0.073-0.375-0.559,0.123-0.749,0.208c0.029-0.089,0-0.194,0.014-0.283
		c-0.203,0.004-0.383,0.35-0.577,0.463c-0.019-0.025-0.017-0.047,0.006-0.068c0.022,0.148,0.276,0.63,0.375,0.571"/>
	<path fill="#245977" d="M166.5,253.003c-0.001-0.084-0.001-0.168,0-0.253c0.012-1.301-0.242-2.732-0.487-4
		c-0.535-2.771-0.949-5.603-1.457-8.431c-0.444-2.471-0.831-4.917-1.111-7.319c-0.594-5.081-1.442-10.108-1.662-15.238
		c-0.25-5.833,0.343-11.675,1.143-17.446c0.815-5.876,2.172-12.667,4.992-17.976c1.639-3.084,3.583-6.916,6.919-8.518
		c2.79-1.339,6.07,0.792,8.723,1.438c0.456,0.111,0.929,0.265,1.395,0.333c0.949,0.137,1.87-0.214,2.805-0.208
		c0.845,0.005,1.193-0.891,1.176-1.646c-0.012-0.541-0.32-0.918-0.659-1.304c-0.284-0.324-0.275-0.402,0.134-0.517
		c0.556-0.156,1.252-0.191,1.612-0.673c0.326-0.437,0.458-1.217,0.288-1.741c-0.203-0.623-0.7-1.137-1.212-1.511
		c-0.25-0.182-1.013-0.418-0.937-0.835c0.066-0.367,0.796-0.418,1.065-0.55c0.406-0.199,0.938-0.38,1.188-0.776
		c0.555-0.874-0.196-1.904-0.89-2.46c-0.339-0.272-0.731-0.608-1.125-0.783c-0.326-0.145-0.663-0.184-1.002-0.246
		c-0.673-0.123-1.356-0.515-1.964-0.811c-0.676-0.33-1.203-0.857-1.695-1.407c-0.515-0.576-1.274-1.155-1.433-1.955
		c-0.172-0.866,0.141-1.848,0.278-2.7c0.14-0.867,0.053-1.856-0.017-2.729c-0.033-0.42-0.035-0.862-0.117-1.278
		c-0.13-0.659-0.6-1.746-1.385-1.807c-0.406-0.032-0.839,0.083-1.115,0.386c-0.495,0.543-0.56,1.504-0.781,2.181
		c-0.243,0.745-0.336,1.529-0.546,2.284c-0.331,1.194-0.408,2.452-0.813,3.626c-0.331,0.958-0.867,1.405-1.475,2.161
		c-1.054,1.309-1.832,2.832-2.938,4.099c-0.882,1.011-1.97,1.822-2.841,2.856c-1.144,1.357-2.092,2.927-3.25,4.312
		c-2.649,3.168-4.453,7.124-5.813,10.989c-1.785,5.075-3.365,10.236-4.681,15.45c-1.294,5.129-1.333,10.315-1.756,15.537
		c-0.833,10.275,1.653,20.07,2.612,30.146c0.252,2.649,1.439,5.461,2.008,7.975c0.641,2.835,0.325,6.064,0.325,9.025
		c0,6.219-0.574,12.579-6,16.666c-2.604,1.961-5.32,2.731-8.667,2.325c-2.592-0.315-5.486-1.406-7.474-3.145
		c-1.878-1.643-3.509-4.373-4.804-6.53c-0.81-1.349-1.69-2.617-2.36-4.056c-0.668-1.435-0.995-2.901-1.508-4.395
		c-0.77-2.243-0.993-5.341-0.632-7.8c0.167-1.138,0.815-2.422,1.25-3.506c0.462-1.15,0.681-2.352,1.169-3.457
		c-0.996-0.19-2.452,0.099-3.462,0.262c-2.366,0.382-5.116,1.658-7.197,2.848c-2.16,1.235-3.539,3.478-4.121,5.853
		c-0.192,0.785,0.061,2.104-0.495,2.699c-0.29,0.31-1.974,0.597-1.974,1.3c0,0.286,1.61,1.481,1.842,1.757
		c0.667,0.792,1.301,1.659,1.925,2.493c1.395,1.866,2.633,3.885,4.057,5.737c2.598,3.378,4.725,7.225,7.943,10.075
		c1.787,1.583,3.756,2.928,5.52,4.632c3.247,3.137,7.333,5.504,12,4.568c0.886-0.177,1.811-0.787,2.737-1.013
		c1.087-0.265,2.215-0.597,3.25-1.056c3.725-1.65,7.164-5.274,9.318-8.694c1.191-1.892,2.385-4.166,2.988-6.246
		c0.683-2.356,0.9-4.416,1.182-6.754c0.26-2.163,0.491-4.337,0.493-6.518C166.983,256.811,166.523,254.904,166.5,253.003z"/>
</g>
</svg>
