<?xml version="1.0" encoding="utf-8"?>
<!-- Generator: Adobe Illustrator 16.0.4, SVG Export Plug-In . SVG Version: 6.00 Build 0)  -->
<!DOCTYPE svg PUBLIC "-//W3C//DTD SVG 1.1//EN" "http://www.w3.org/Graphics/SVG/1.1/DTD/svg11.dtd">
<svg version="1.1" id="Ebene_1" xmlns="http://www.w3.org/2000/svg" xmlns:xlink="http://www.w3.org/1999/xlink" x="0px" y="0px"
	 width="283.46px" height="425.2px" viewBox="0 0 283.46 425.2" enable-background="new 0 0 283.46 425.2" xml:space="preserve">
<g>
	<path fill="#245977" d="M25.651,201.778c0.048,0.279,0.047,0.563,0.052,0.846c0.008,0.447,0.086,0.894,0.061,1.34
		c-0.014,0.27-0.082,0.527-0.129,0.792c-0.145,0.806,0.007,1.703,0.174,2.494c0.133,0.627,0.284,1.237,0.576,1.811
		c0.148,0.292,0.332,0.542,0.561,0.772c0.242,0.245,0.445,0.52,0.676,0.774c0.514,0.571,1.024,1.164,1.609,1.673
		c0.723,0.627,1.543,1.099,2.311,1.662c0.324,0.236,0.65,0.471,0.98,0.699c1.477,1.029,3.006,1.982,4.582,2.85
		c1.575,0.867,3.196,1.65,4.858,2.334c1.634,0.672,3.309,1.246,5.015,1.702c0.812,0.216,1.631,0.405,2.455,0.563
		c1.786,0.34,3.775,0.273,5.123-0.957c0.689-0.619,3.123-4.078,2.514-5.206c-0.873-1.619-3.9,1.731-5.008,1.841
		c-1.723,0.174-4.482-1.219-5.755-2.213c-0.361-0.277-0.788-0.492-1.069-0.911c0.961-0.12,2.654,0.319,3.283-0.604
		c0.966-1.431-1.119-1.76-2.127-2.281c-2.895-1.519-6.18-2.09-9.345-3.155c-0.836-0.279-1.685-0.521-2.521-0.797
		c-0.842-0.278-1.631-0.626-2.434-0.997c-0.104-0.048-0.223-0.054-0.324-0.105c-0.154-0.077-0.235-0.254-0.363-0.364
		c-0.162-0.14-0.345-0.266-0.518-0.393c-0.2-0.147-0.377-0.334-0.565-0.498c-0.341-0.297-0.692-0.573-1.037-0.864
		c-0.32-0.271-0.61-0.575-0.922-0.855c-0.358-0.322-0.717-0.637-1.071-0.964c-0.312-0.289-0.648-0.53-0.939-0.848
		c-0.295-0.322-0.586-0.63-0.803-0.997c-0.023,0.05,0.004,0.135,0.017,0.202C25.608,201.341,25.614,201.562,25.651,201.778z"/>
	<path fill="#245977" d="M89.435,177.985c-4.915-6.072-3.39-16.524,0.515-20.496c0.662-0.671,2.163-2.424,1.912-2.256
		c0,0,8.961-5.842,10.453-6.443c1.736-0.687,7.151-1.03,7.151-1.03c0.035,0.058,3.71,0.438,5.164,0.808
		c0.97,0.245,3.766,1.238,5.416,3.743c1.981,3.004,2.519,9.998,0.837,14.012c-0.764,1.834-8.996,9.582-10.09,10.952
		C110.035,178.26,98.396,189.058,89.435,177.985z"/>
	<path fill="#245977" d="M93.535,154.781c0.092,0.033,0.128,0.011,0.132-0.064c-0.699-0.734-0.935-1.458-0.552-2.533
		c0.356-0.976,1.502-1.832,2.393-2.269c1.588-0.764,3.218-2.037,4.99-1.413c0.079,0.487,0.324,0.953,0.119,1.388
		c-0.135,0.296-0.468,0.546-0.687,0.764c-0.329,0.36-0.679,0.714-1.022,1.055c-1.043,1.062-2.326,2.935-3.822,3.125"/>
	<path fill="#FF0000" d="M184.363,359.632c1.535,0.977,3.264,1.578,4.709,2.689c1.193,0.914,2.117,1.15,3.606,1.387
		c1.767,0.295,3.638,0,5.511,0c6.365,0,12.79-0.236,19.148,0c2.859,0.109,5.838,0.135,8.636,0.529
		c2.265,0.318,4.72,0.546,7.026,0.361c2.201-0.174,6.425-1.096,6.998-3.666c-1.299-0.008-2.686-0.264-4.021-0.381
		c-1.465-0.12-2.967-0.235-4.455-0.355c-4.979-0.417-9.915-0.877-14.904-1.581c-5.627-0.803-11.281-1.795-16.854-2.975
		c-3.829-0.821-7.601-2.305-11.451-2.667c0.079-0.795-0.312-1.621-0.375-2.434c-0.179-1.934-0.153-2.436-2.146-2.913
		c-1.555-0.372-3.188-0.442-4.781-0.497c-1.098-0.028-2.113-0.28-3.205-0.277c-0.818,0-2.474-0.375-2.959,0.377
		c-0.457,0.706,0.107,2.727,0.13,3.539c0.099,2.609-0.022,5.237-0.396,7.824c0.743,0.004,1.402,0.455,2.078,0.567
		c0.714,0.116,1.458-0.073,2.09,0.14c0.177-0.932,0.736-1.676,0.943-2.588C181.197,356.887,183.038,358.791,184.363,359.632z"/>
	<path fill="#FF0000" d="M116.928,314.631c-0.535,0.843,0.043,1.683,0.457,2.423c0.542,0.971,0.909,1.926,1.26,2.977
		c0.688,2.088,2.45,4.305,2.705,6.482c-1.209,0.418-2.451,0.699-3.664,1.111c-1.396,0.479-0.922,1.498-0.6,2.736
		c0.217,0.82,0.299,1.674,0.506,2.52c0.225,0.924,0.146,1.751,0.183,2.68c0.069,1.584,0.031,3.377,0.323,4.934
		c0.776,4.069,1.549,7.826,1.436,11.572c-0.076,2.754,0.795,3.541-1.83,5.598c-3.902,3.071-10.324,3.19-15.035,3.967
		c-5.018,0.822-10.14,0.828-15.228,1.152c-3.075,0.197-9.985,0.957-12.242-0.457c4.981-1.299,10.086-2.268,14.888-4.182
		c4.09-1.622,9.396-1.994,12.424-5.437c2.424-2.751,3.868-6.923,4.49-10.47c0.759-4.326-1.09-7.062-1.486-11.17
		c-0.186-1.98,0.045-3.363,0.521-5.273c0.193-0.737,0.748-1.72,0.557-2.443c-0.214-0.803-1.071-1.465-1.253-2.373
		c-0.878,0.312-1.971,0.797-2.604-0.086c-0.324-0.43-0.3-1.211-0.481-1.722c-0.183-0.515-0.437-0.967-0.532-1.546
		c2.822-1.014,5.613-2.205,8.592-2.846c2.029-0.429,5.066-1.348,6.99-0.393"/>
	<path d="M117.068,330.939c0.171-1.146-3.502-1.678-4.537-1.114c0.592,0.266,0.695,0.771,0.881,1.372
		c1.375-0.229,2.953-0.489,3.938,0.778c-0.09-0.289-0.158-0.591-0.246-0.883"/>
	<path d="M117.616,336.952c0.362-0.773-3.084-1.272-3.81-0.982c0.168,0.464,0.602,0.949,0.343,1.48
		c1.106-0.736,2.749-0.125,3.6,0.647c0.117-0.149,0.18-0.358,0.188-0.575"/>
	<path d="M117.761,340.731c-0.752-0.877-2.977-0.672-3.968-0.269c0.08,0.403,0.184,0.813,0.314,1.2
		c1.398-0.244,2.791-0.947,3.848,0.339c0.374-0.354,0.621-1.239,0.082-1.503"/>
	<path d="M119.472,346.606c-0.583-0.17-0.999-0.859-1.655-1.102c-0.897-0.352-1.619-0.254-2.514,0.053
		c0.079,0.471,0.309,0.948,0.182,1.395c0.662-0.076,0.861-0.439,1.59-0.352c0.758,0.095,1.684,0.541,1.897,1.277
		c0.185-0.009,0.272-0.044,0.437-0.117c-0.172-0.477-0.135-0.952-0.18-1.418"/>
	<path d="M119.332,352.269c-0.577-0.898-2.434-2.787-4.223-1.871c0.289,0.447,0.782,1.547,0.504,2.104
		c1.615-1.104,2.889-0.29,4.033,0.807c0.055-0.297,0.019-0.629-0.119-0.924"/>
	<path d="M118.947,356.486c-0.583-0.431-0.491-1.425-1.004-1.999c-0.51-0.557-1.118-0.697-1.861-0.68
		c0.082,0.707-0.022,1.051-0.331,1.71c1.71-0.884,2.344,0.614,2.925,1.741C118.766,356.975,118.888,356.768,118.947,356.486"/>
	<path d="M116.801,328.011c0.764-0.739,1.637-2.123,1.561-3.201c-0.067-0.965-0.779-2.503-1.656-2.889
		c-1.415-0.617-1.938,0.385-1.73,1.568c0.211,1.188,0.776,2.244,2.1,2.473c-2.244-0.549-6.021-4.736-1.75-5.398
		c1.79-0.275,2.583,1.029,3.059,2.413c0.355,1.027,0.816,3.645-0.6,4.149c0.785,0.832,7.737,3.147,4.473,4.775
		c-0.873,0.438-2.3,0.05-3.012-0.574c-0.883-0.775-0.95-2.194-0.726-3.233c-1.499-0.12-0.755,3.23-0.336,3.906
		c1.308,2.104,3.688,1.932,5.454,0.374c1.765-1.564,0.77-2.52-0.812-3.557c-1.115-0.736-2.591-1.588-3.993-1.476
		c-0.706,0.056-1.685,0.643-2.266,0.39"/>
	<path d="M222.547,359.118c-1.096,0.781-0.934,2.122-2.405,1.896c0.515-1.07,1.528-2.5,2.564-2.221"/>
	<path d="M218.679,358.634c-1.204,0.512-1.678,2.318-3.048,1.735c0.302-0.62,2.004-2.474,2.727-1.735"/>
	<path d="M213.516,358.151c-1.103,0.588-1.731,1.515-2.255,2.68c-0.353-0.123-0.739-0.182-1.114-0.295
		c0.602-1.174,1.832-2.14,3.046-2.543"/>
	<path d="M207.227,356.866c-0.073,0.998-2.23,1.43-2.413,2.836c-0.263-0.488-0.744-0.679-1.279-0.613
		c0.355-0.66,3.07-3.297,3.86-2.549"/>
	<path d="M201.743,356.056c-0.708,0.688-1.813,1.076-1.799,2.232c-0.502-0.045-1.005-0.137-1.562-0.162
		c0.084-0.725,2.309-2.876,3.041-2.07"/>
	<path d="M197.715,355.415c-0.896,0.486-1.686,1.363-1.639,2.396c-0.521-0.189-1.15-0.307-1.74-0.494
		c0.665-1.543,2.763-2.512,4.346-2.062"/>
	<path d="M192.88,354.128c-1.042,0.788-1.722,1.069-2.13,2.404c-0.395-0.526-0.93-0.467-1.56-0.502
		c-0.014-0.922,2.782-1.834,3.523-1.74"/>
	<path d="M190.139,353.167c-0.764,1.029-2.371,0.836-2.9,2.184c-0.191-0.512-0.758-0.6-1.125-0.862
		c0.496-0.274,1.064-0.802,1.602-0.971c0.521-0.171,1.967-0.036,2.098-0.036"/>
	<path d="M188.197,351.714c-1.008,0.796-1.588-1.686-1.958-2.248c-0.808-1.221-3.128-1.717-4.166-0.493
		c-1.116,1.308-0.317,3.181,0.967,3.987c0.789,0.498,3.229,1.121,3.826,0.064c-1.123-0.244-1.969,0.471-3.059-0.305
		c-0.934-0.662-1.481-1.419-0.48-2.301c2.097-1.824,2.753,1.719,4.523,2.078c0.563-1.469,1.202-2.644,2.45-3.722
		c1.318-1.153,3.901-2.329,4.796-0.157c0.684,1.678-1.12,4.102-2.665,4.742c-1.843,0.764-2.177-0.536-3.434-1.59
		c-0.207,1.389,1.915,0.912,2.561,0.547c0.966-0.561,1.771-1.689,1.644-2.859c-0.286-2.539-4.422,1.73-4.865,2.871
		c-0.284,0.086-0.552,0.037-0.776-0.133"/>
	<path fill="#FF0000" d="M112.004,157.814c1.039,0.302,2.291,1.342,2.435,2.474c0.101,0.792,0.113,2.723-0.794,3.076
		c-0.238-0.517-0.497-1.141-0.931-1.546c-0.239-0.224-0.473-0.225-0.624-0.501c-0.154-0.282,0.038-0.785-0.129-0.999
		c-0.145-0.185-0.963-0.249-1.197-0.303c-0.071-0.526-0.014-1.098-0.137-1.609c-0.096-0.394-0.643-0.702-0.613-1.094
		c0.915-0.452,1.974-0.009,2.703,0.592c0.457,0.376,0.828,0.715,0.205,1.055c-0.32,0.175-1.078,0.292-1.406,0.08
		c-0.587-0.38,0.175-1.016-0.25-1.556c0.539,0.136,1.075,0.301,1.611,0.449"/>
	<path fill="#245977" d="M116.535,150.282c3.605,1.134,6.139-2.256,7.504-4.933c1.345,1.85,2.609,3.055,3.335,5.386
		c0.788,2.528,1.247,5.108,2.052,7.632c-3.508-0.523-5.657-0.934-8.949,0.335c-0.306-2.342-1.946-6.701-4.01-7.924
		c0.061,0.408,0.273,0.638,0.419,1.006"/>
	<path fill="#FF0000" d="M124.855,146.159c2.213-4.447,7.695-7.276,11.673-9.807c5.855-3.723,13.437-8.471,20.517-8.985
		c6.372-0.462,13.04,1.675,19.186,3.089c8.787,2.023,18.38,6.185,25.275,12.236c8.274,7.254,13.799,17.833,16.271,28.335
		c0.827,3.496,1.235,6.77,1.803,10.14c1.781,10.604-0.548,19.396-5.069,28.754c-3.363,6.968-7.34,13.86-11.957,20.086
		c-1.87,2.514-3.854,4.951-5.883,7.321c-1.139,1.325-2.396,3.54-4.183,3.788c-2.219,0.316-5.735-0.43-7.892-1.006
		c-3.822-0.998-7.652-1.5-11.613-2.104c-3.459-0.528-6.365-0.651-9.566-2.006c-2.175-0.913-4.275-2.007-6.227-3.319
		c-1.477-1.003-1.504-1.444-1.512-3.148l-6.727,14.2c-0.527-0.309-1.052-0.642-1.585-0.938c-0.794-4.193-2.084-9.415-0.69-13.318
		c1.5-4.193,6.014-7.041,9.521-9.39c3.725-2.495,7.354-5.199,11.262-7.36c2.619-1.454,5.25-2.723,7.615-4.474
		c2.508-1.856,5.008-2.434,6.969-5.024c2.18-2.878,4.033-5.973,5.049-9.459c1.328-4.516,2.494-9.443,1.635-14.288
		c-1.031-5.822-4.642-13.473-8.42-18.099c-1.725-2.124-4.048-3.897-6.189-5.635c-2.498-2.033-4.459-3.866-7.562-5.087
		c-8.529-3.331-16.328-1.852-24.255,2.517c-1.395,0.768-2.724,1.524-4.013,2.452c-0.961,0.702-1.174,1.557-1.911,2.183
		c-1.399,1.185-5.181,0.905-6.686,0.042C126.392,155.947,123.168,149.552,124.855,146.159z"/>
	<path d="M164.371,221.351c-4.289,0.289-6.582,2.197-9.837,4.75c-6.726,5.268-10.312,13.123-5.792,21.047
		c2.289,4.016,4.982,6.967,8.481,9.951c2.906,2.48,6.173,6.17,9.948,7.02c11.104,2.51,25.09,1.264,36.371,0.479
		c7.096-0.492,14.336-1.088,21.397-1.076c3.103,0.006,10.299-1.387,11.589,2.328c-7.174,5.479-15.914,8.985-24.201,12.318
		c-11.31,4.558-22.779,9.342-34.379,13.357c-11.902,4.115-24.441,7.88-36.028,12.84c-8.628,3.7-17.399,9.475-26.439,11.102
		c0.03,1.529,2.126,5.104,2.979,6.594c0.922,1.607,3.315,2.963,3.357,4.906c18.031-7.424,37.42-12.37,55.747-20.31
		c24.509-10.614,50.145-17.938,74.05-29.698c8.575-4.219,17.205-9.865,23.145-17.449c2.656-3.389,3.902-6.654,3.541-11.126
		c-0.481-5.96-8.237-6.307-13.148-7.29c-19.316-3.875-39.104-5.867-58.613-8.621c-5.551-0.78-11.102-1.651-16.607-2.771
		c-2.326-0.472-4.352-0.602-6.644-1.576C181.832,227.5,173.598,220.728,164.371,221.351z"/>
	<path d="M149.347,226.198c-14.386,10.116-33.854,10.914-51.119,12.135c-9.086,0.638-18.058,0.824-27.079,1.948
		c-4.892,0.606-12.079-0.712-12.948,5.333c-0.931,6.471,1.847,15.096,5.72,19.939c2.878,3.603,6.744,6.504,10.787,9.004
		c7.303,4.52,15.475,8.795,23.146,12.72c11.578,5.916,21.633,13.981,32.348,21.321c10.197,6.98,20.336,14.645,28.839,23.748
		c2.477,2.646,5.042,5.225,7.803,7.58c0.998,0.851,2.207,1.467,3.141,2.353c1.067,1.013,1.816,2.306,2.948,3.288
		c0.733,0.637,1.809,1.473,2.076,2.428c2.066,0.211,4.008-0.301,6.062-0.15c1.708,0.122,4.254,0.592,5.467-0.885
		c-0.593-1.831-2.792-2.895-4.208-4.029c-1.793-1.448-3.47-3.1-5.08-4.714c-7.701-7.722-15.599-15.435-23.489-23.056
		c-6.029-5.828-12.889-10.852-19.412-16.071c-6.304-5.04-13.565-8.962-19.967-13.884c-3.499-2.695-7.561-5.177-11.43-7.361
		c-4.098-2.303-7.984-5.002-11.912-7.607c-4.022-2.675-8.605-5.185-12.298-8.26c1.884-1.84,9.553,0.916,12.094,1.056
		c5.337,0.284,10.564,0.487,15.891,0.487c11.581,0,23.336,0.475,34.845-0.379c4.822-0.357,9.854,0.271,14.551-0.488
		c3.983-0.641,6.995-1.531,10.647-3.147c3.849-1.697,6.163-2.884,5.844-7.617c-0.131-1.827-0.339-4.089-1.028-5.769
		c-1.948-4.746-4.836-4.787-8.668-7.316"/>
	<path d="M92.463,153.929c-0.264,0.44-1.387,0.488-3.006,1.387c-2.884,1.604-4.793,3.423-6.326,6.218
		c-2.039,3.727-3.698,9.632-2.179,13.682c-12.825-0.504-13.147,13.881-4.587,19.252c3.399,2.135,9.499,3.139,13.209,1.124
		c3.021-1.649,5.737-7.855,3.021-9.698c6.574,0.105,7.89-0.884,10.323-2.178c3.145-1.673,6.406-3.751,7.82-7.034
		c-14.529,5.25-31.078-13.174-16.951-22.013C93.875,154.997,92.463,153.929,92.463,153.929z"/>
	<path d="M54.812,216.2c-0.063-0.021-0.628,0.312-0.963,0.461c-0.542,0.248-1.151,0.279-1.736,0.363
		c-1.226,0.17-2.369,0.717-3.597,0.489c-3.081-0.575-5.417-2.503-7.533-4.739c-2.121-2.239-2.704-5.553-2.256-8.503
		c0.179-1.18,0.629-2.258,1.277-3.316c0.533-0.877,1.615-1.737,2.026-2.664c0.316-0.714-0.457-1.382-0.991-2.062
		c-0.674-0.853-1.121-1.71-1.645-2.674c-0.998-1.85-1.715-3.347-2.079-5.394c0.997,0.353,1.692,1.493,2.364,2.256
		c0.873,0.992,1.775,1.894,2.709,2.857c2.706,2.792,5.25,5.761,8.069,8.425c2.612,2.478,5.863,4.631,9.05,6.203
		c1.354,0.666,2.794,1.24,4.201,1.782c1.364,0.522,2.857,0.841,4.184,1.388c1.146,0.477,0.504,1.026-0.432,1.533
		c-0.917,0.494-2.045,0.461-3.111,0.461c-2.312,0-4.557-0.021-6.814,0.166c0.066,1.197-1.153,2.359-2.018,3.076
		c-0.481,0.398-0.943,0.799-1.553,0.896c-0.824,0.133-1.374-0.062-2.145,0.421"/>
	<path d="M129.856,137.054c0.261,0.165,0.273,0.268,0.046,0.325c-3.914-0.158-7.439-0.893-11.332-1.735
		c-7.443-1.613-14.878-3.091-22.369-4.47c-15.42-2.826-32.8-1.708-47.523,3.866c-12.101,4.584-25.886,12.133-33.007,23.487
		c-5.344,8.526-8.474,21.183-4.831,30.851c2.003,5.296,4.752,9.733,8.465,13.974c1.851,2.114,3.884,4.163,6.182,5.742
		c2.172,1.5,3.221,2.155,5.028-0.015c-1.808-0.594-2.671-4.124-3.474-5.721c-1.35-2.672-2.588-5.496-3.691-8.295
		c-2.205-5.602-4.719-11.137-4.7-17.271c0.046-14.785,15.567-25.836,27.983-31.081c9.314-3.937,19.195-7.864,29.327-8.827
		c9.339-0.892,17.51,1.651,26.524,3.704c6.805,1.543,14.014,3.976,20.818,4.404c4.635,0.29,9.744-4.179,8.338-8.938"/>
	<path d="M183.324,130.602c-0.815-0.813-4.302-1.094-5.457-1.355c-3.842-0.887-7.454-1.145-11.409-1.472
		c-7.472-0.625-14.452-1.448-21.603,1.193c-6.213,2.291-13.205,6.02-18.084,10.718c-1.638,1.58-2.47,5.509-5.336,5.695
		c0.088,0.558,1.238,1.218,1.691,1.606c0.606,0.517,1.024,1.108,1.227,1.84c0.607-0.384,1.053-1.163,1.594-1.686
		c0.773-0.75,1.517-1.478,2.262-2.219c1.054-1.052,2.23-2.181,3.473-3.006c0.925-0.616,2.215-0.862,3.282-1.17
		c2.555-0.738,5.471-1.593,8.211-2.013c0.075-0.062,0.11-0.154,0.22-0.185c7.561-2.263,15.697-3.214,23.598-3.198
		c5.248,0.012,10.922,0.292,15.604,2.895c0.376-1.254,0.656-2.527,0.787-3.8C183.504,133.275,184.447,131.719,183.324,130.602z"/>
	<path d="M128.82,157.48c0.298,1.359,0.882,3.163,1.391,4.731c1.744,5.337,1.604,11.292,1.738,16.847
		c0.117,4.742,0.309,9.531,0.675,14.237c0.271,3.481,0.138,7.746,1.06,11.081c1.383,5.02,3.968,1.68,5.516-1.166
		c3.404-6.275,6.863-12.746,9.346-19.439c4.301-11.604,7.846-23.287,12.494-34.725c4.01-9.869,7.033-19.458,8.767-29.768
		c0.409-2.438,1.345-5.801,0.288-8.288c-2.883-0.311-6.053,1.06-8.921,1.743c-0.075,2.365-0.91,3.838-1.935,5.975
		c-1.582,3.287-2.96,6.771-4.112,10.221c-2.569,7.702-4.567,15.559-7.22,23.201c-3.566,10.266-6.541,21.274-8.299,31.619
		c-0.723-0.925-0.65-4.277-0.717-5.456c-0.119-1.884-0.143-3.746-0.339-5.617c-0.359-3.525-0.766-7.405-1.052-11.033
		c-0.214-2.666,0.205-7.429-2.695-8.784c-2.912-1.362-6.727,0.34-6.328,3.922"/>
	<path d="M133.186,151.021c-0.403,0.303-0.807,0.614-1.211,0.93c-1.943,1.521-4.738,4.015-1.592,6.127
		c2.165,1.448,6.307-0.022,8.109-1.197c4.967-3.229,8.58-6.527,14.467-7.983c2.898-0.717,6.486-0.675,9.142,0.285
		c1.468,0.528,2.937,1.225,4.269,2.079c0.976,0.627,2.023,1.958,3.031,2.452c1.714,0.832,2.013-0.168,3.643-1.664
		c1.67-1.536,3.236-2.886,4.719-4.612c0.295-0.348,0.564-0.718,0.842-1.081c-3.939-3.213-9.696-5.041-14.225-5.693
		c-6.648-0.959-14.34-1.113-20.98,0.121c-1.116,1.505-2.167,3.112-3.445,4.456c-1.926,2.031-4.249,3.524-6.285,5.412
		c-1.309,1.197-2.537,2.105-4.112,3.019c-1.164,0.672-2.462,1.539-3.732,1.852c1.231,0.4,2.096,2.07,2.749,3.055
		c0.633,0.965,1.843,2.504,1.998,3.634"/>
	<path fill="#FF0000" d="M148.713,225.888c0.996,2.033,1.882,3.868,2.314,6.151c0.361,1.904,0.244,4.644,1.057,6.117
		c0.587-3.903,0.619-7.827,3.256-11.105c2.847-3.533,6.528-5.263,10.54-6.936c-3.256,0.039-5.759,0.13-8.701,1.175
		c-2.022,0.714-5.878,1.336-6.546,3.832"/>
	<path fill="#FFFFFF" d="M116.699,314.923c1.693,0.086,3.199-0.656,4.758-1.234c2.164-0.812,4.275-1.68,6.495-2.462
		c2.372-0.833,4.542-1.957,6.901-2.784c1.682-0.589,3.098-1.426,4.741-2.103c1.707-0.702,3.403-1.525,5.106-2.29
		c1.302-0.584,3.562-1.064,4.578-1.979c0.834-0.754,0.271-2.363,1.27-2.951c0.775-0.46,1.043,0.429,1.717,0.279
		c1.021-0.23,0.479-1.074,0.559-1.709c0.667-0.109,0.767,0.614,1.377,0.682c1.098,0.133,1.051-0.975,1.084-1.734
		c1.322-0.543,1.27,0.691,2.416,0.473c-0.024-0.482,0.193-0.955,0.684-1.07c0.713-0.173,0.373,0.215,0.611,0.745
		c0.428,0.933,0.677,1.847,1.02,2.826c0.433,1.235,1.42,2.062,2.111,3.243c0.867,1.479,1.77,3.035,2.338,4.637
		c0.602,1.707,3.141,5.77-0.232,5.503c-0.45-0.036-0.66-0.495-1.223-0.369c-0.713,0.163-0.779,0.843-1.101,1.38
		c-0.289,0.479-0.28,0.743-0.824,0.92c-0.661,0.225-1.409-0.143-1.451-0.854c-0.987-0.182-0.624,0.682-0.853,1.203
		c-0.472,1.067-0.414,0.502-1.369,0.131c-1.213-0.48-2.912,0.318-4.088,0.789c-3.65,1.439-7.381,2.638-11.051,4.059
		c-4.627,1.789-9.355,3.201-13.982,5.012c-2.446,0.955-6.169,2.447-8.385,0.529c-1.437-1.243-2.588-2.637-3.432-4.311
		c-0.488-0.974-0.657-1.814-0.831-2.852c-0.15-0.856-0.896-2.336-0.683-3.152c1.268-0.373,2.748-0.266,4.023-0.731"/>
	<path fill="#FF0000" d="M130.369,310.359c-0.851,0.362-1.699,0.731-2.59,1.046c-0.82,0.291-1.595,0.6-2.393,0.9
		c2.116,3.994,4.215,8.013,6.863,11.648c1.833-0.646,3.672-1.281,5.505-1.93C134.735,318.572,132.416,314.438,130.369,310.359z"/>
	<path fill="#FF0000" d="M140.579,312.542c-1.114-1.586-2.378-3.279-3.173-5.098c-0.881,0.42-1.764,0.836-2.729,1.178
		c-0.986,0.346-1.934,0.757-2.885,1.164c2.055,4.097,4.387,8.279,7.489,11.676c0.937-0.34,1.886-0.669,2.819-1.033
		c1.105-0.426,2.219-0.814,3.329-1.215C143.803,316.997,142.158,314.794,140.579,312.542z"/>
	<path fill="#FF0000" d="M145.053,304.026c-0.178,0.066-0.375,0.135-0.525,0.203c-1.704,0.764-3.401,1.586-5.109,2.287
		c-0.206,0.086-0.395,0.184-0.595,0.272c1.042,2.575,3.104,5.038,4.653,7.19c1.131,1.571,2.287,3.129,3.433,4.695
		c1.652-0.59,3.292-1.199,4.929-1.822C149.218,312.743,146.568,308.622,145.053,304.026z"/>
	<path fill="#FF0000" d="M150.847,299.173c-0.14-0.011-0.288,0.014-0.472,0.121c-0.996,0.59-0.434,2.199-1.271,2.953
		c-0.593,0.533-1.603,0.916-2.604,1.264c1.512,4.584,4.183,8.691,6.803,12.797c1.171-0.471,2.771-1.184,3.938-0.729
		c0.062,0.023,0.089,0.053,0.146,0.081C155.104,310.201,152.569,304.845,150.847,299.173z"/>
	<path fill="#FF0000" d="M163.83,313.103c0.069,0.031,0.143,0.063,0.229,0.072c3.371,0.265,0.836-3.799,0.232-5.509
		c-0.566-1.597-1.473-3.155-2.339-4.636c-0.688-1.181-1.681-2.004-2.108-3.242c-0.343-0.979-0.593-1.896-1.02-2.824
		c-0.241-0.529,0.102-0.92-0.613-0.749c-0.196,0.048-0.312,0.181-0.422,0.317C160.244,301.889,161.898,307.547,163.83,313.103z"/>
	<path fill="#FF0000" d="M156.268,296.876c-0.27-0.177-0.568-0.3-1.156-0.058c-0.034,0.753,0.015,1.862-1.086,1.732
		c-0.611-0.069-0.711-0.792-1.379-0.681c-0.062,0.502,0.232,1.131-0.142,1.482c1.679,5.324,4.046,10.383,6.205,15.529
		c0.038-0.398,0.085-0.759,0.749-0.634c0.042,0.714,0.787,1.075,1.455,0.855c0.539-0.181,0.533-0.444,0.822-0.922
		c0.195-0.329,0.314-0.708,0.532-0.991C160.384,307.706,158.73,302.135,156.268,296.876z"/>
	<path fill="#FF0000" d="M123.943,312.858c-0.882,0.339-1.773,0.673-2.658,1.003c-0.535,0.2-1.062,0.409-1.593,0.604
		c2.276,3.888,4.489,7.869,7.204,11.439c0.428-0.156,0.841-0.317,1.219-0.467c0.873-0.342,1.762-0.629,2.643-0.946
		C128.152,320.837,126.054,316.835,123.943,312.858z"/>
	<path fill="#FF0000" d="M118.268,315.069c-1.143,0.28-2.387,0.265-3.479,0.588c-0.215,0.814,0.532,2.297,0.679,3.15
		c0.179,1.04,0.344,1.879,0.835,2.85c0.845,1.678,1.992,3.072,3.432,4.315c1.48,1.28,3.63,1.026,5.626,0.443
		C122.715,322.847,120.524,318.905,118.268,315.069z"/>
	<path fill="#245977" d="M163.012,113.798c-0.273-0.325-0.524-0.573-0.61-1.005c-0.052-0.263-0.112-0.539-0.234-0.779
		c-0.095-0.189-0.244-0.33-0.326-0.528c-0.252-0.611-0.395-1.297-0.558-1.936c-0.316-1.232-0.675-2.461-1.178-3.628
		c-0.209-0.484-0.419-0.938-0.533-1.451c-0.072-0.32,0.051-0.547,0.166-0.863c0.195-0.535,0.471-1.009,0.807-1.472
		c0.807-1.11,1.414-2.325,2.323-3.371c0.493-0.568,0.948-1.123,1.519-1.615c0.262-0.227,0.5-0.547,0.789-0.735
		c0.314-0.204,0.827-0.238,1.203-0.282c0.229-0.026,0.444-0.08,0.668-0.101c0.283-0.026,0.574,0.03,0.857,0.003
		c0.428-0.042,0.85-0.14,1.281-0.185c0.49-0.051,1.003-0.072,1.483-0.156c0.808-0.142,1.628-0.284,2.448-0.284
		c0.869,0,1.742-0.12,2.604-0.113c0.475,0.003,0.946-0.093,1.412-0.157c0.654-0.09,1.342-0.069,2.003-0.069
		c0.86,0,1.665,0.057,2.465,0.384c0.202,0.083,0.442,0.207,0.538,0.418c0.109,0.241,0.143,0.708,0.056,0.956
		c-0.212,0.6-1.062,1.117-1.669,1.189c-1.299,0.155-2.622,0.137-3.926,0.335c-0.92,0.14-1.855,0.228-2.785,0.228
		c-0.459,0-0.926,0.001-1.379,0.054c-0.244,0.028-0.475,0.15-0.688,0.275c-0.114,0.066-0.259,0.096-0.386,0.18
		c-0.188,0.124-0.312,0.274-0.561,0.294c-0.041,0.216,0.54,0.786,0.688,0.953c0.411,0.463,0.822,0.793,0.848,1.456
		c0.02,0.522-0.064,1.077-0.375,1.511c-0.245,0.343-0.611,0.514-1.031,0.472c-0.254-0.025-0.52-0.119-0.744-0.237
		c-0.215-0.113-0.416-0.337-0.666-0.359c0.395,0.483,1.192,1.244,0.885,1.945c-0.209,0.476-0.797,0.793-1.238,0.992
		c-0.299,0.135-0.963,0.252-1.218-0.055c-0.13,0.149,0.192,0.447,0.3,0.562c0.196,0.21,0.322,0.412,0.353,0.692
		c0.058,0.529-0.29,1.064-0.689,1.403c-0.218,0.184-0.382,0.38-0.261,0.684c0.053,0.131,0.17,0.227,0.229,0.359
		c0.091,0.205,0.117,0.439,0.157,0.657c0.085,0.463,0.242,0.876,0.439,1.303c0.207,0.449,0.451,1.029,0.451,1.527
		c0,0.407-0.233,0.625-0.562,0.846c-0.266,0.179-0.576,0.266-0.865,0.412c-0.403,0.206-0.789,0.345-1.235,0.426
		c-0.65,0.119-1.491,0.188-2.081-0.156C163.719,114.505,163.359,114.211,163.012,113.798z"/>
	<path fill="#FFFFFF" d="M100.482,163.285c-0.092-0.178-0.274-0.333-0.385-0.509c-0.186-0.297-0.406-0.656-0.513-0.989
		c-0.189-0.593-0.308-1.198-0.37-1.812c-0.058-0.572-0.176-1.108-0.332-1.658c-0.105-0.376-0.319-1.054-0.826-0.988
		c-0.214,0.028-0.479,0.1-0.662,0.221c-0.227,0.149-0.3,0.505-0.334,0.776c-0.098,0.795-0.133,1.682,0.277,2.41
		c0.387,0.687,1.021,1.125,1.656,1.513c0.213,0.13,0.454,0.225,0.664,0.359c0.09,0.058,0.564,0.458,0.704,0.337
		c0.003-0.016,0.007-0.031,0.009-0.047"/>
	<path d="M96.863,158.062c0.174,0.112-0.273,1.598-0.254,1.946c0.016,0.713,0.339,1.423,0.799,1.961
		c0.466,0.561,1.093,0.658,1.74,0.937c0.414,0.174,1.258,0.709,1.711,0.509c-0.523-0.202-1.068-0.555-1.567-0.831
		c-0.612-0.323-0.938-0.778-1.314-1.345c-0.401-0.575-0.687-0.985-0.769-1.617c-0.066-0.499-0.102-1.005-0.205-1.494
		c-0.035,0.077-0.028,0.121,0.033,0.166c0.057-0.02,0.107-0.042,0.152-0.089"/>
	<path d="M97.289,160.75c0,0,0.047,0.006,0.094,0.013c-0.211-0.444,0.396-0.808,0.754-0.71c0.364,0.077,1.02,0.666,0.87,1.093
		c-0.13,0.358-0.776,0.633-1.124,0.535c-0.359-0.113-0.914-0.75-0.643-1.15"/>
	<path d="M100.275,163.023l-0.028,0.096c-0.659-0.612-1.297-1.318-1.602-2.171c-0.336-0.934-0.155-1.896,0.481-2.688
		c-0.202,0.191-0.26,0.837-0.266,1.116c-0.044,0.474,0.076,0.908,0.197,1.371c0.138,0.473,0.355,0.811,0.612,1.235
		c0.144,0.209,0.247,0.413,0.394,0.63c0.125,0.186,0.172,0.389,0.304,0.547c-0.167,0.118-0.366-0.028-0.479-0.181"/>
	<path fill="#FFFFFF" d="M104.065,168.356c0.04,0.104-0.001,0.267,0,0.393c0.001,0.333-0.011,0.657,0.042,0.984
		c0.102,0.639,0.315,1.212,0.676,1.754c0.432,0.649,1.029,1.09,1.652,1.542c0.383,0.278,0.793,0.405,1.229,0.567
		c0.332,0.124,0.512,0.222,0.841-0.007c0.482-0.335,0.729-1.127,0.124-1.474c-0.323-0.186-0.696,0.035-1.035,0.044
		c-0.416,0.012-0.678-0.104-1.002-0.355c-0.31-0.242-0.524-0.52-0.775-0.803c-0.257-0.289-0.603-0.629-0.759-0.986
		c-0.081-0.185-0.166-0.397-0.208-0.6c-0.03-0.15-0.015-0.362-0.078-0.497c-0.055-0.116-0.236-0.269-0.365-0.221
		c-0.2,0.076-0.165,0.543-0.23,0.706"/>
	<path d="M103.825,168.506c0.05,1.322,0.059,2.728,1.053,3.799c0.78,0.84,1.805,1.495,3.038,1.314
		c-1.059-0.389-2.115-1.199-2.835-2.071c-0.347-0.414-0.674-0.923-0.857-1.423c-0.193-0.481-0.173-1.002-0.337-1.51
		c0.123,0.049,0.209,0.136,0.277,0.232"/>
	<path d="M105.248,172.142c0.059,0.078,0.049,0.086,0.008,0.015c-0.276-0.391-0.434-0.609-0.312-1.115
		c0.111-0.438,0.49-0.509,0.857-0.205c0.229,0.194,0.611,0.755,0.464,1.078c-0.056,0.107-0.425,0.347-0.544,0.394
		c-0.287,0.078-0.345-0.08-0.652-0.13c0.017-0.068,0.033-0.139,0.088-0.181"/>
	<path d="M104.642,169.21c0.132,0.117,0.081,0.475,0.163,0.679c0.104,0.262,0.254,0.519,0.396,0.738
		c0.194,0.315,0.416,0.654,0.65,0.957c0.604,0.744,1.819,0.806,2.73,0.726c-0.494,0.408-2.028-0.556-2.386-0.863
		c-0.269-0.268-0.517-0.554-0.788-0.821c-0.236-0.242-0.415-0.644-0.672-0.846"/>
	<path fill="#FFFFFF" d="M96.87,162.536c-1.386,0-2.52,0.12-3.78,0.75c-0.865,0.432-2.236,1.05-2.707,1.955
		c0.512-0.344,0.89-0.995,1.336-1.428c0.541-0.525,1.194-0.907,1.775-1.378c0.353-0.285,0.753-0.521,1.123-0.806
		c0.248-0.191,0.689-0.723,0.979-0.703c0.109,0.678,0.791,1.695,1.399,1.984"/>
	<path fill="#FFFFFF" d="M104.62,173.661c-0.158,0.173-0.605,0.279-0.876,0.47c-0.467,0.33-0.924,0.804-1.256,1.277
		c-0.352,0.503-0.748,1.341-1.256,1.709c0.348-0.729,0.66-1.485,1.016-2.206c0.193-0.39,0.355-0.66,0.621-1
		c0.252-0.321,0.365-0.766,0.623-1.019c0.312,0.254,0.664,0.667,1.128,0.644"/>
	<path fill="#FF0000" d="M115.245,167.7c-0.168-0.428-1.302-0.705-1.729-0.756c-0.562-0.067-1.009,0.025-1.396,0.409
		c-0.853,0.844-0.933,1.989-0.257,2.965c0.695,1.002,2.016,1.651,3.125,0.866c0.493-0.349,0.948-1.309,1.013-1.9
		c0.093-0.854-0.249-1.389-0.881-1.959"/>
	<path fill="#FF0000" d="M105.869,153.564c0.067-2.065-3.46-3.63-4.742-1.838c-0.603,0.842-0.746,2.566-0.146,3.451
		c0.709,1.047,2.376,1.345,3.439,0.739C105.249,155.443,105.838,154.524,105.869,153.564z"/>
</g>
</svg>
