<?xml version="1.0" encoding="utf-8"?>
<!-- Generator: Adobe Illustrator 16.0.4, SVG Export Plug-In . SVG Version: 6.00 Build 0)  -->
<!DOCTYPE svg PUBLIC "-//W3C//DTD SVG 1.1//EN" "http://www.w3.org/Graphics/SVG/1.1/DTD/svg11.dtd">
<svg version="1.1" id="Ebene_1" xmlns="http://www.w3.org/2000/svg" xmlns:xlink="http://www.w3.org/1999/xlink" x="0px" y="0px"
	 width="283.46px" height="425.2px" viewBox="0 0 283.46 425.2" enable-background="new 0 0 283.46 425.2" xml:space="preserve">
<g>
	<path fill="#FF0000" d="M189.475,377.448c-2.309-1.688-3.753-4.266-6.155-5.976c-1.129-0.803-3.035-1.392-3.258-2.918
		c-0.189-1.291,0.818-3.7,1.357-4.825c1.239-2.563,2.632-4.99,3.787-7.614c1.469-3.334,2.619-6.844,4.423-10.099
		c1.738-3.141,3.452-6.24,4.761-9.574c2.168-5.535,5.497-10.892,6.942-16.602c1.047-4.134-0.289-8.518-2.248-12.156
		c-4.91-9.123-13.646-15.935-22.719-20.455c-5.455-2.721-10.932-4.381-16.755-5.914c-4.741-1.247-9.541-1.219-14.493-1.147
		c-5.448,0.079-11.021,0.795-16.302,2.015c-5.055,1.165-10.819,4.646-14.896,7.958c-2.491,2.025-4.499,3.943-6.604,6.317
		c-1.893,2.132-3.534,4.422-5.565,6.444c-3.843,3.828-7.746,7.61-10.954,11.915c-1.13,1.514-2.076,3.227-3.087,4.75
		c-1.344,2.021-3.038,3.778-4.559,5.654c-3.251,4.007-7.766,8.396-9.141,13.449c-1.097,4.022-3.369,8.088-2.989,12.39
		c0.19,2.133,0.509,3.954,1.327,5.968c0.805,2.001,2.268,3.363,3.659,5.034c4.623,5.556,10.832,9.123,17.648,11.644
		c3.552,1.312,6.837,3.225,10.392,4.484c2.345,0.827,4.671,1.774,6.804,2.932c-1.233,0.28-2.008,2.463-2.667,3.435
		c-0.922,1.361-1.899,2.832-2.976,4.13c-0.934,1.125-1.842,2.294-2.817,3.384c-0.623,0.699-2.101,1.452-2.276,2.315
		c-1.67-0.028-3.974-1.272-5.688-1.742c-2.548-0.698-4.961-1.588-7.349-2.753c-5.889-2.878-11.51-6.56-16.807-10.386
		c-8.905-6.427-18.801-11.836-26.321-19.955c-2.97-3.213-2.792-8.436-2.523-12.608c0.302-4.62,1.778-9.138,3.613-13.268
		c3.251-7.316,8.126-13.515,13.166-19.82c4.032-5.044,7.839-10.352,11.609-15.579c6.733-9.327,13.754-18.451,19.346-28.696
		c1.33-2.438,2.581-4.922,4.046-7.299c1.195-1.933,2.769-3.965,3.735-5.972c1.549-3.216,1.843-6.711,5.686-8.081
		c2.561-0.914,5.397-1.29,8.122-2.144c4.466-1.394,9.275-2.082,13.907-2.691c6.427-0.843,12.481-0.495,18.848,0.247
		c5.372,0.624,11.176,1.401,16.287,3.04c1.8,0.577,3.392,1.574,5.104,2.237c2.097,0.81,4.39,1.376,6.573,2.064
		c8.104,2.549,16.484,4.358,24.822,6.022c8.596,1.714,16.113,6.065,23.555,10.489c6.934,4.121,13.792,7.585,19.333,13.593
		c2.646,2.868,4.788,5.865,5.447,9.687c0.381,2.211,0.052,4.789,0.052,7.044c0,2.742,0.025,5.457-0.475,8.099
		c-0.475,2.538-1.447,4.405-2.843,6.639c-1.963,3.144-3.745,6.403-5.909,9.421c-4.793,6.688-9.496,13.23-14.594,19.694
		c-4.164,5.284-8.325,10.65-12.437,16.014c-3.064,3.993-6.642,7.467-9.868,11.281c-2.477,2.929-5.153,5.642-7.979,8.234
		C190.445,377.193,189.546,377.498,189.475,377.448z"/>
	<path d="M191.377,376.971c-2.708,1.803-5.437,4.918-7.691,7.287c-2.623,2.761-4.219,5.962-6.487,8.768
		c-3.13-2.21-7.064-3.838-10.088-6.269c2.621-2.982,4.33-7.084,6.432-10.421c1.638-2.603,3.549-7.633,6.248-9.198
		c2.154,4.137,8.824,5.091,11.587,9.312"/>
	<path d="M108.638,385.244c0.147-0.351,6.464,5.138,8.109,6.575c6.018,5.27,9.768,16.16-1.363,17.913
		c-3.351,0.527-7.269-0.749-10.384-1.272c-7.445-1.251-13.279,0.678-20.233,1.854c-2.778,0.469-7.595,1.555-10.244-0.123
		c-4.112-2.605-0.829-5.036,2.308-6.438c3.61-1.617,7.087-1.395,10.875-2.125c2.578-0.498,19.225-5.597,12.585-9.776
		c1.513-1.717,7.94-6.369,5.904-8.442"/>
	<path d="M167.979,386.467c-4.045,1.035-7.177,10.413-5.657,14.225c2.706,6.782,8.66,3.717,13.577,3.487
		c5.428-0.251,9.5,3.126,13.965,5.675c4.292,2.448,8.84,4.492,14.102,4.037c3.449-5.786-7.438-12.106-11.517-13.964
		c-3.055-1.387-5.808-2.272-7.784-5.062c-2.381-3.353-1.739-6.542-2.097-10.751c-3.994-0.354-7.191,0.005-10.919-0.093"/>
	<path fill="#245977" d="M168.283,64.592c-1.196-0.882-1.397-11.221-5.156-8.313c-1.432,1.104-2.916,2.176-4.425,3.18
		c-0.541,0.358-1.082,0.828-1.671,1.119c-0.368,0.182-1.169,0.293-1.268,0.767c-0.133,0.646,1.075,1.674,1.505,2
		c0.728,0.552,1.33,0.785,2.259,0.771c0.788-0.014,1.568-0.097,2.372-0.083c1.061,0.021,2.09,0.24,3.15,0.24
		c0.595,0,1.215,0.046,1.807,0c0.315-0.025,0.854-0.212,1.108,0"/>
	<path d="M160.788,134.721c1.072-0.695,3.904-0.968,5.616-1.52c3.794-1.233,7.754-2.237,11.629-3.155
		c5.556-1.305,11.509-1.495,17.162-2.38c2.097-0.33,4.14-0.964,6.14-1.595c1.804-0.57,2.398-0.664,1.976-2.528
		c-0.316-1.415-1.757-2.921-2.456-4.111c-1.308-2.212-2.537-4.474-3.832-6.696c-4.548-7.812-10.158-15.117-14.484-22.983
		c-3.816-6.946-7.807-13.751-11.893-20.537c-1.071-1.781-3.67-7.227-5.699-8.073c-1.871-0.785-6.517,1.509-8.126,2.233
		c-0.014,1.61,1.979,3.395,2.892,4.646c1.657,2.287,2.826,4.779,4.23,7.27c3.168,5.61,6.166,11.342,9.097,17.042
		c3.904,7.578,8.148,15.225,12.138,22.491c-4.552,0.653-9.298,2.288-13.633,3.557c-4.823,1.416-10.146,1.222-14.896,2.749
		c-4.466,1.441-3.714,5.453-1.165,8.378c1.144,1.316,2.909,2.868,4.456,3.743c0.982,0.559,1.674,0.613,2.638,0.924
		c1.81,0.599,1.624,0.742,3.273,2.072"/>
	<path fill="#FFFFFF" d="M138.83,122.142c0.695,1.104-12.342,3.979-14.118,2.804c0.759,1.474,5.537,3.069,6.434,4.355
		c0.423-0.319,0.566,0.706,1.121,0.793c-0.062,1.297,0.976,1.526,1.252,2.824c0.362,1.742,0.724,3.431,1.088,5.212
		c0.998,4.864,2.872,9.898,3.812,15.03c1.817,9.956,4.301,19.62,7.144,29.335c1.577,5.384,3.53,10.676,5.516,15.909
		c1.253,3.277,1.959,7.289,3.812,10.281c2.315-4.6,1.517-10.643,1.707-15.679c0.135-3.671,0.135-7.356,0.429-11.027
		c0.355-4.406,0.853-8.661,0.677-13.096c-0.329-8.23-1.12-16.372-1.443-24.573c-0.162-4.022-0.334-8.042-0.487-12.063
		c-0.079-2.201-0.19-5.226-0.958-7.273c1.001-0.241,2.331-0.846,2.865-1.699c-2.27-1.043-2.53-2.344-3.868-4.223
		c-1.401,1.147-2.577,1.707-4.277,2.244c-0.468,0.15-2.146,0.66-2.38,1.018c-0.505,0.796,0.196,2.004-0.437,2.961
		c-0.856,1.294-4.011,2.925-5.602,2.298c-1.09-0.435-2.205-3.459-1.977-4.499c0.245,0.093-0.283-0.811-0.064-0.706"/>
	<path fill="#FF0000" d="M143.914,157.732c1.956,7.532,4.626,14.712,6.87,22.104c1.047,3.445,1.426,7.234,2.649,10.389
		c2.502-3.417,0.506-12.862,0.835-17.096c0.548-7.108,1.186-14.221,1.186-21.562c0-6.886-0.702-13.644-0.667-20.466
		c0.025-4.391-2.271-11.826-0.681-15.275c1.938,0.828,4.657,5.237,5.868,7.271c2.098,3.531,2.146,8.163,2.781,11.973
		c1.478,8.851,2.13,17.655,2.703,26.57c0.223,3.438,0.478,6.653,0.667,10.156c0.419,7.689,2.143,15.013,3.354,22.695
		c1.267,8.005,4.468,16.128,6.489,24.188c1.457,5.832,5.275,13.854,4.727,19.729c-2.669,0.699-6.996-0.312-9.898-0.552
		c-3.664-0.302-7.285-0.682-11.127-0.682c-11.751,0-23.438,0.366-34.901,1.188c-9.993,0.713-19.059,2.29-28.683,4.671
		c-4.083,1.01-12.689,2.362-14.04,7.252c3.133-7.127,4.057-16.408,6.688-24.104c5.141-15.055,7.937-30.844,11.204-46.566
		c2.109-10.123,4.6-20.712,7.973-30.464c1.494-4.33,2.294-7.735,2.996-12.044c0.503-3.083,0.271-7.722,1.318-10.689
		c1.675-4.732,5.123-7.815,9.845-9.318c1.638-0.519,4.811-1.559,6.512-1.15c2.962,0.71,2.463,2.104,3.693,5.145
		C137.041,132.897,140.697,145.36,143.914,157.732z"/>
	<path fill="#FF0000" d="M198.893,40.417c3.116,0.254,6.999-7.578,8.949-9.866c2.85-3.373,5.404-4.789,9.874-5.258
		c-1.573,1.771-2.805,3.438-3.904,5.445c2.478-0.903,5.558,0.175,8.332-0.258c1.852-0.287,8.984-0.401,9.094-0.578
		c0.106-0.172-6.604,6.227-9.6,7.059c-3.104,0.867-6.46-0.072-9.521,0.853c1.086,0.591,2.086,4.255,2.086,4.255
		s-3.903-0.262-5.749-0.204c-3.976,0.132-7.826,1.448-11.782,1.864C197.342,42.962,198.893,40.417,198.893,40.417z"/>
	<path fill="#245977" d="M99.438,84.208c1.577,5.288,4.24,10.32,8.108,14.307c1.14,1.172,2.401,1.739,3.993,2.058
		c1.72,0.348,2.709-0.089,4.225-0.914c1.127-0.61,2.187-1.298,3.345-1.8c2.175-0.946,4.664-1.219,7.048-0.835
		c2.609,0.419,5.153,1.674,6.75,3.882c1.47,2.04,1.73,4.638,1.905,7.051c0.224,3.058,0.23,6.374-0.264,9.396
		c-0.23,1.398-0.509,2.732-0.671,4.129c-0.118,1.029-0.627,2.249-0.466,3.341c0.831,0.459,2.25,0.556,3.193,0.796
		c1.145,0.291,2.501,0.8,3.734,0.516c2.164-0.498,2.345-4.646,2.603-6.377c0.86-5.753-1.047-11.41-2.703-16.888
		c-1.133-3.75-2.66-8.435-6.051-10.74c-0.949-0.645-4.067-1.255-4.149-2.667c-0.036-0.635,0.896-1.846,1.258-2.341
		c0.663-0.907,1.61-1.513,2.352-2.323c1.854-2.018,2.313-4.184,2.313-6.918c0-1.298-0.178-2.492-0.382-3.729
		c-0.146-0.886-0.283-1.789-0.66-2.61c-0.34-0.742-0.92-1.362-1.09-2.183c-0.293-1.419,0.811-3.348-0.006-4.639
		c-0.796-1.258-4.585,1.205-5.535,0.076c-2.094-2.485-4.089-6.335-7.194-7.256c-1.096-0.315-2.25-0.753-3.379-0.896
		c-1.875-0.244-4.012-0.075-5.811,0.459c-2.919,0.856-5.742,2.136-8.158,4c-1.67,1.283-3.435,2.502-5.036,3.875
		c-0.52,0.452-0.982,0.943-1.466,1.416C96.706,72.206,97.867,78.914,99.438,84.208z"/>
	<path fill="#FFFFFF" d="M95.301,231.281c3.286,3.312,0.721,12.834,1.592,17.843c8.821,3.358,20.141,2.928,29.672,3.76
		c6.326,0.546,12.56-0.047,19.022-0.581c4.868-0.416,11.672,1.016,16.015-0.48c-1.147-7.89,2.026-15.182,1.298-23.207
		c-0.52-5.787,1.452-3.93-4.445-5.61c-5.038-1.438-10.008-2.807-15.355-2.775c-15.025,0.097-35.543-4.584-45.783,9.676
		c1.05,0.211,1.879,0,2.936-0.05"/>
	<g>
		<path fill="#FF0000" d="M124.726,241.104c0.086-7.209,1.17-14.304,1.839-21.466c0.004-0.039,0.036-0.048,0.047-0.083
			c-5.083-0.111-10.181,0.072-14.854,1.212c0.126,0.165,0.23,0.344,0.223,0.589c-0.293,7.933-1.275,15.801-0.968,23.751
			c0.085,2.228,0.233,4.446,0.369,6.665c4.696,0.409,9.419,0.588,13.875,0.921C124.915,248.833,124.679,244.975,124.726,241.104z"/>
		<path fill="#FF0000" d="M156.85,222.406c-3.721-1.026-7.441-1.897-11.331-2.14c-1.395,10.697-2.648,21.418-2.447,32.18
			c0.925-0.079,1.846-0.154,2.778-0.229c2.418-0.2,5.312,0.043,8.146,0.168C153.882,242.341,155.795,232.421,156.85,222.406z"/>
		<path fill="#FF0000" d="M99.72,229.999l-4.164,1.2c3.297,3.31,0.724,12.83,1.592,17.838c1.168,0.448,2.387,0.814,3.626,1.141
			C100.3,243.459,100.114,236.723,99.72,229.999z"/>
	</g>
	<path d="M117.008,72.511c0.358,0.058-0.096-0.046-0.178-0.093c0.501-2.839,1.906-4.424,4.443-5.743
		c-0.444,0.721,0.216,1.248,0.031,1.71c-0.246,0.599-1.271,1.093-1.712,1.559c-0.928,0.957-1.223,2.459-2.019,3.248"/>
	<path d="M130.03,71.256c0.191-0.168,0.283-0.147,0.279,0.043c-1.659,2.409-2.957,3.994-5.404,5.327
		c2.139,0.878,4.785,1.262,6.685-0.366c1.821-1.534,1.71-5.141-0.674-6.022c2.624,0.738,4.236,1.664,7.005,0.312
		c2.583-1.266,3.987-3.14,3.806-6.047c-0.907,1.527-4.001,2.122-5.599,2.702c-1.685,0.617-3.606,1.406-5.069,2.309"/>
	<path fill="#FFFFFF" d="M123.812,70.923c-0.413,3.28-1.62,2.828-4.266,4.38c0.327-1.906,0.817-5.71,3.771-4.664
		c0.043,0.162,0.043,0.316-0.021,0.47"/>
	<path fill="#245977" d="M121.03,71.4c0.011,0.028-0.118,0.674-0.104,0.957c0.055,0.491,0.15,0.795,0.593,1.076
		c0.665,0.423,1.498,0.104,1.862-0.62c0.359-0.703,0.445-1.954-0.415-2.273c-0.703-0.265-1.753,0.33-1.981,1.018"/>
	<path d="M122.119,72.005c-0.19,0.527,1.6,0.538,1.398-0.487c-0.094-0.459-0.56-0.52-0.885-0.43
		c-0.459,0.122-0.434,0.401-0.712,0.682"/>
	<path d="M134.372,75.537c0.81,0.677,0.516,1.713,1.183,1.284l0.423,0.157c1.831-0.602,1.639-2.097,2.713-3.38
		c0.667-0.782,1.771-0.968,2.645-1.456c0.718-0.409,1.794-0.917,2.554-1.376c3.254-1.997,6.645-3.363,9.909-5.212
		c1.012-0.566,1.997-1.054,2.997-1.577c1.17,1.505,2.688,2.717,4.649,3.656c7.439,3.513,17.009-3.094,23.084-6.403
		c2.491-1.369,7.124-3.369,8.047-6.423c0.936-3.12,0.513-6.424-2.764-6.88c-3.871-0.541-9.547,2.022-13.193,3.61
		c-0.744,0.326-1.464,0.677-2.188,1.018c-0.079-0.194-0.147-0.384-0.233-0.566c-0.213-0.466,12.554-5.277,13.692-6.023
		c3.836-2.509,8.668-0.738,11.939,2.029c1.883,1.613,4.857,4.596,7.359,5.13c1.137,0.247,2.396-0.19,3.276-0.946
		c1.373-1.179,1.003-1.817,0.007-2.997c-1.375-1.603-3.029-3.123-4.266-4.865c-1.297-1.818-1.391-4.029-2.227-6.059
		c-0.747-1.785-1.519-3.505-2.106-5.359c-0.435-1.337-0.691-2.717-0.885-4.112c-0.145-0.946,0.043-2.559-0.707-3.219
		c-1.254,1.979-1.544,5.062-2.577,7.313c-1.094,2.373-2.592,4.632-4.816,6.094c-1.701,1.111-3.373,2.054-5.338,2.843
		c-2.195,0.903-4.166,1.976-6.444,2.596c-2.991,0.811-5.918,2.04-8.8,3.176c-0.029-0.089-0.061-0.161-0.08-0.247
		c0.513-0.423,1.572-1.707,1.463-2.488c-0.199-1.528-1.79-0.739-2.698-0.23c-1.069,0.595-2.03,1.484-1.612,2.509
		c0.186,0.47,0.598,0.835,0.996,1.215c-0.665,0.276-1.342,0.538-2.006,0.807c-0.178-0.524-0.377-1.054-0.482-1.563
		c-0.323-1.584-0.197-3.155-2.188-1.961c-1.709,1.028-1.075,1.842-0.163,3.029c0.304,0.409,0.529,0.896,0.771,1.358
		c-0.896,0.377-1.8,0.753-2.689,1.132c0.094-0.373,0.227-0.742,0.251-1.186c0.071-1.398-1.404-2.466-2.724-1.491
		c-1.449,1.047-0.459,1.922,0.054,2.896c0.121,0.219,0.186,0.487,0.283,0.728c-1.857,0.896-3.655,2.205-5.226,3.373
		c-1.495,1.111-2.209,2.237-1.7,4.044c0.265,0.947,0.612,1.807,1.008,2.614c-3.739,1.67-7.469,3.215-11.077,5.445
		c-2.96,1.835-5.348,2.914-6.447,3.642c-1.721,1.147-3.326-0.366-5.018,0.413C132.895,72.393,133.797,75.046,134.372,75.537z
		 M159.846,62.398c1.484-0.724,2.975-1.423,4.471-2.115c0.444,1.237,0.929,2.416,1.419,3.613
		C163.042,64.463,160.039,64.585,159.846,62.398z M167.911,63.338c-0.561-1.301-1.127-2.61-1.654-3.965
		c0.998-0.452,1.977-0.911,2.969-1.38c0.478,1.459,0.979,2.918,1.538,4.323c-0.48,0.183-0.946,0.391-1.437,0.566
		C168.972,63.004,168.479,63.166,167.911,63.338z M165.175,56.423c1.022-0.484,2.041-0.986,3.062-1.477
		c0.074,0.225,0.149,0.447,0.232,0.681c-0.975,0.523-1.972,1.046-3.007,1.581C165.369,56.942,165.273,56.685,165.175,56.423z
		 M173.878,55.709c0.319,0.968,0.979,3.556,2.005,4.599c-1.172,0.513-2.416,0.958-3.632,1.431c-0.443-1.176-0.803-3.062-1.109-4.108
		c-0.052-0.162-0.095-0.327-0.142-0.488C171.943,56.691,172.911,56.196,173.878,55.709L173.878,55.709z M181.47,52.397
		c1.438-0.355,3.258-1.369,4.735-1.219c2.165,0.229,1.681,0.652,0.671,2.143c-1.15,1.699-3.155,2.958-4.936,3.958
		c-1.553,0.868-3.153,1.628-4.767,2.374c-0.583-1.584-1.198-3.133-1.804-4.696c0.162-0.079,0.312-0.143,0.466-0.229
		C177.58,53.802,179.566,52.884,181.47,52.397z M172.706,52.748c0.086,0.168,0.141,0.344,0.209,0.509
		c-0.89,0.452-1.779,0.922-2.666,1.413c-0.066-0.2-0.123-0.408-0.184-0.602c0.44-0.215,0.892-0.416,1.322-0.642
		C171.825,53.207,172.276,52.97,172.706,52.748z M163.29,57.38c0.093,0.272,0.187,0.538,0.275,0.803
		c-0.738,0.387-1.472,0.771-2.156,1.147c-0.255,0.122-0.496,0.236-0.75,0.358C161.305,58.699,162.243,57.968,163.29,57.38z"/>
	<path d="M125.479,61.147c0.079-0.207,0.78-0.279,1.114-0.667c0.408-0.465,0.509-1.254,0.444-1.91
		c-0.114-1.222-0.881-1.965-1.907-2.474c0.896-1.495-1.43-2.534-2.543-2.76c-1.292-0.27-2.453-0.047-3.692,0.466
		c-0.918,0.376-0.589,0.452-1.35-0.025c-0.93-0.578-1.677-0.692-2.749-0.882c-1.662-0.294-3.444-0.383-5.067,0.133
		c-0.843,0.272-0.872,0.419-1.695-0.007c-0.718-0.369-1.291-0.634-2.072-0.878c-1.46-0.466-3-0.768-4.44-0.032
		c-0.648,0.326-1.234,1.172-1.886,1.376c-0.592,0.183-2.062-0.211-2.757-0.262c-2.289-0.129-4.508-0.183-6.52,1.119
		c-1.911,1.227-2.463,2.13-2.821,4.194c-0.157,0.896-0.957,2.033-0.391,2.89c-1.703-0.337-3.158,1.785-4.226,2.896
		c-1.219,1.276-2.33,2.897-3.085,4.502c-1.912,4.086-0.736,8.596,1.901,11.995c-2.768,0.448-3.498,5.133-2.954,7.291
		c0.485,1.914,1.463,3.6,2.833,4.983c1.81,1.821,5.355,3.183,7.936,3.262c0.019,0.007-0.209-0.423-0.298-0.473
		c-1.688,1.878-0.128,6.359,1.015,8.195c0.854,1.362,2.058,2.198,3.665,2.552c2.872,0.631,7.525-1.513,8.292-4.588
		c2.145,1.85,8.048,1.707,8.216-1.885c0.138-2.904-2.486-6.539-4.599-8.152c1.707-1.527,0.216-4.627,0.326-6.441
		c0.189-3.284,0.336-5.252-0.816-8.377c-0.016-0.029,1.663,1.132,1.909,1.513c0.672,1.061,0.918,2.38,1.438,3.52
		c0.681,1.499,0.749,2.14,2.271,1.086c1.362-0.939,1.323-1.735,0.84-3.087c-0.107-0.33-0.086-0.795-0.121-1.147
		c-0.145-1.118-0.353-2.236-0.746-3.298c-0.527-1.463-0.589-2.416-0.073-3.929c0.237-0.703,0.475-1.427,0.833-2.064
		c0.11-0.19,0.271-0.466,0.426-0.606c0.44-0.409,0.337-0.154,0.828-0.355c0.857-0.337,1.784-0.66,2.603-1.043
		c0.981-0.463,1.028-1.431,1.692-2.262c0.716-0.903,1.396-1.707,2.473-2.201c1.198-0.552,1.558-0.279,2.537,0.344
		c1.048,0.681,3.6,2.466,4.609,1.076c0.903-1.244,0.215-3.09-0.756-3.987"/>
	<path d="M135.751,106.943c4.523,1.61,7.309,2.144,6.786-3.954c1.899,0.43,6.192,4.875,8.104,2.653
		c0.219-0.259,0.371-4.918,0.189-5.271c-0.466-0.888-3.679-1.871-4.438-1.871c3.269-1.652,0.326-5.728-0.961-7.808
		c-2.16,1.925-4.018,6.105-4.671,8.84c-1.021-1.512-2.262-2.011-3.929-1.44c-1.904,0.656-1.396,2.24-2.62,3.258
		c-2.437,2.058-5.872-2.56-8.167-0.24c0.264,2.241,3.129,4.514,3.716,6.908c0.591,2.402-2.026,3.424-0.771,5.406
		C130.955,112.198,136.109,108.869,135.751,106.943z"/>
	<path d="M80.748,57.928c1.72-0.613,0.509-3.85-0.351-4.918c-1.732-2.179-5.133-3.685-7.765-2.631
		c0.144,0.273,0.19,0.502,0.396,0.757c1.776-3.764-5.829-3.058-7.403-2.463c-1.781,0.688-4.505,2.072-5.035,4.101
		c-0.388,1.463,0.47,2.417,0.957,3.7c-7.983-0.609-9.997,16.977-4.026,16.676c-0.881-2.405-2.092,1.652-2.192,2.373
		c-0.452,3.438,0.622,7.127,2.616,9.987c1.341,1.907,4.57,3.51,6.965,3.216c2.11-0.255,2.881-1.435,1.469-3.169
		c-0.205-0.032-0.354,0.039-0.466,0.211c1.287,3.173,5.015,7.937,9.069,5.406c2.698-1.682,1.667-5.188,1.365-7.5
		c3.806,5.43,7.186-5.636,4.89-8.848c2.365,2.925,4.223-2.211,4.728-3.764c0.728-2.244,0.979-5.56-0.42-7.536
		c3.771,0.337-2.713-8.897-3.701-5.456"/>
	<path fill="#FF0000" d="M86.212,61.374c0,0.272-2.979,2.821-3.613,3.738c-1.377,1.997-2.399,4.453-3.151,6.765
		c-1.233,3.789-0.979,8.955,0.993,12.442c-4.975,2.13-2.431-11.077-1.85-12.772c0.777-2.288,2.616-3.814,4.09-5.434
		c0.986-1.094,2.498-4.169,3.258-4.607"/>
	<g>
		<path d="M116.766,137.005c1.3,1,2.759,1.703,4.301,1.96c6.843,1.151,13.843-2.309,20.345-3.882
			c8.562-2.075,15.703-5.295,23.884-8.818c8.666-3.735,16.297-3.657,18.028-14.511c1.76-11.052,0.491-22.193,0.721-33.299
			c0.064-3.123-0.151-6.289-0.376-9.479c-0.185-2.495,0.021-5.209-0.674-7.635c-4.263,0.294-9.726-0.578-13.983,0.695
			c0.102,0.874,0.469,1.828,0.541,2.678c0.14,1.516,0.147,2.907,0.012,4.363c-0.287,3.226-0.559,6.563-0.825,9.808
			c-0.536,6.643-0.81,13.54-1.886,20.139c-0.781,4.812-0.744,11.013-6.817,11.852c-9.506,1.298-19.19,1.997-28.661,2.068
			c-8.29,0.075-17.398,0.878-19.907,10.12C110.164,127.817,112.699,133.879,116.766,137.005z"/>
		<path fill="#245977" d="M166.192,50.5c0.045,0.133,0.088,0.262,0.138,0.391c0.208,0.545,0.422,1.047,0.505,1.624
			c0.097,0.674,0.391,1.344,0.593,2.012c0.446,1.484,0.798,2.997,1.021,4.53c0.312,2.147-0.021,3.227,2.315,3.058
			c2.173-0.157,4.359-0.455,6.518-0.613c0.411-0.032,5.788-0.064,5.631-0.548c-0.954-2.986-0.08-6.804-1.102-9.829
			c-0.612-1.828-1.896-3.406-3.093-4.882c-1.138-1.395-1.945-2.746-2.896-4.166c-0.474-0.707-0.827-1.52-1.369-2.18
			c-0.516-0.631-1.025-1.28-1.556-1.896c-0.283-0.326-0.85-0.699-1.262-0.358c-0.308,0.25-0.411,0.839-0.387,1.218
			c0.072,1.108,0.379,2.294,0.789,3.352c0.447,1.158,0.975,2.556,0.867,3.811c-0.362,0.093-0.729-0.211-1.025-0.38
			c-0.446-0.25-0.953-0.491-1.435-0.631c-0.344-0.104-0.738-0.132-1.09-0.186c-0.293-0.043-0.584-0.151-0.855-0.058
			c-0.64,0.229-0.42,1.351-0.295,1.892c0.146,0.635,0.502,1.406,0.456,2.058c-0.22,0.058-0.569-0.068-0.797-0.107
			c-0.307-0.05-0.612-0.125-0.917-0.176c-0.587-0.097-1.104-0.189-1.033,0.577C165.962,49.5,166.046,50.013,166.192,50.5z
			 M173.523,47.045c-0.276-0.137-0.615-0.28-0.921-0.43C172.955,46.701,173.312,46.797,173.523,47.045z"/>
	</g>
	<path fill="#FF0000" d="M219.688,24.277c1.95-2.541,0.855-5.545,4.968-6.768c3.448-1.025,7.134-0.652,9.785-3.413
		c-0.516,3.13-2.645,7.227-4.701,9.665c-1.279,1.51-2.198,2.847-4.26,2.882c-1.691,0.036-3.048-1.251-4.391-1.183"/>
	<path fill="#FF0000" d="M218.01,41.377c2.709,2.448,9.111,5.234,12.761,4.782c4.326-0.534,10.323-6.812,14.692-4.313
		c-2.952-3.66-7.813-3.524-12.043-3.538C228.057,38.28,218.01,41.377,218.01,41.377z"/>
	<path fill="#245977" d="M154.265,57.699c0.021-0.083-0.064-0.624-0.082-0.872c-0.043-0.616,0-1.254,0-1.871
		c0-1.326-0.04-2.63-0.141-3.936c-0.07-0.925-0.017-1.879-0.017-2.811c0-0.624-0.086-1.344,0.097-1.918
		c0.157-0.498,0.404-1.28,1.014-1.265c0.663,0.014,1.055,0.982,1.242,1.502c0.552,1.487,0.727,3.201,0.977,4.735
		c0.086,0.527,0.104,1.064,0.157,1.603c0.036,0.347-0.05,1.151,0.18,1.416c0.509-0.258,0.458-0.957,0.71-1.413
		c0.314-0.566,0.681-0.906,1.325-0.874c0.531,0.021,1.032,0.495,1.506,0.774c0.577,0.337,0.936,0.881,1.249,1.462
		c0.418,0.781,0.694,1.549-0.456,1.567c-0.643,0.01-1.354,0.211-1.979,0.003c-0.936-0.319-2.778-0.695-3.739-0.143
		c-0.63,0.358-1.667,1.237-1.9,1.946c-0.043,0.01-0.086,0.018-0.128,0.029c-0.018,0.089-0.032,0.204-0.015,0.301"/>
</g>
</svg>
