<?xml version="1.0" encoding="utf-8"?>
<!-- Generator: Adobe Illustrator 16.0.4, SVG Export Plug-In . SVG Version: 6.00 Build 0)  -->
<!DOCTYPE svg PUBLIC "-//W3C//DTD SVG 1.1//EN" "http://www.w3.org/Graphics/SVG/1.1/DTD/svg11.dtd">
<svg version="1.1" id="Ebene_1" xmlns="http://www.w3.org/2000/svg" xmlns:xlink="http://www.w3.org/1999/xlink" x="0px" y="0px"
	 width="283.46px" height="425.2px" viewBox="0 0 283.46 425.2" enable-background="new 0 0 283.46 425.2" xml:space="preserve">
<g>
	<path fill="#245977" d="M79.359,308.388c-0.584,0.032-1.169,0.043-1.752,0.08c-0.689,0.044-1.477,0.184-2.121-0.142
		c-0.897-0.453-1.2-1.61-1.648-2.425c-0.7-1.27-1.347-2.559-1.977-3.863c-0.512-1.06-0.896-2.176-1.451-3.23
		c-0.619-1.175-1.216-2.37-1.78-3.575c-0.485-1.036-0.904-2.096-1.553-3.044c-0.706-1.03-1.435-2.007-2.299-2.916
		c-0.964-1.015-1.869-2.082-2.911-3.02c-0.817-0.736-1.618-1.485-2.417-2.243c-0.869-0.824-1.848-1.522-2.714-2.346
		c-0.811-0.771-1.638-1.533-2.466-2.286c-0.94-0.856-1.886-1.734-2.943-2.439c-0.72-0.479-1.403-0.959-2.079-1.496
		c-0.385-0.307-0.823-0.544-1.272-0.452c-0.548,0.113-1.081,0.371-1.571,0.636c-1.134,0.613-2.055,1.454-2.89,2.433
		c-0.52,0.609-1.089,1.19-1.534,1.856c-0.112,0.168-0.196,0.355-0.314,0.521c-0.339,0.471-0.496,0.538-0.128,1.064
		c0.215,0.307,0.495,0.562,0.796,0.784c0.687,0.505,1.491,0.836,2.277,1.153c1.433,0.577,3.323,1.093,4.189,2.49
		c1.679,2.709,6.175,13.062,7.519,15.268c2.318,3.818,1.191,9.422,3.691,13.124c2.442,3.609,7.859,9.462,12.051,9.058
		c1.833-0.175,3.558-0.931,5.203-1.716c0.666-0.318,1.092-0.815,1.822-1.028c0.94-0.275,1.905-0.428,2.812-0.817
		c2.284-0.981,4.416-2.188,6.404-3.663c0.835-0.619,2.314-1.483,2.112-2.722c-0.151-0.93-1.294-1.47-1.962-1.99
		c-1.033-0.804-1.97-1.73-3.013-2.521c-0.634-0.48-1.312-0.865-2.118-0.932c-0.985-0.08-1.974,0.188-2.944,0.312
		C80.039,308.342,79.7,308.368,79.359,308.388z"/>
	<path d="M52.92,277.065c-0.428-0.087-0.813-1.678-1.003-2.147c-0.38-0.961-0.826-1.907-1.142-2.907
		c-0.488-1.494-1.139-3.064-1.445-4.522c-1.306,0.545-2.867,0.526-4.196,0.655c-0.46,0.038-1.268,0.069-1.692,0.351
		c-0.458,0.309-0.687,1.14-0.675,1.669c-0.716-0.37-1.656-0.22-2.483-0.323c-1.387-0.176-2.803-0.297-4.208-0.297
		c-0.653,0-1.283-0.027-1.925-0.082c-0.286-0.022-0.577,0.028-0.862,0.006c-0.295-0.021-0.576-0.111-0.878-0.081
		c-0.787,0.08-1.559,0.269-2.336,0.388c-1.387,0.214-2.766,0.823-4.036,1.405c-1.538,0.706-3.095,1.497-4.403,2.573
		c-0.521,0.427-0.943,0.93-1.348,1.467c-0.267,0.354-0.804,1.144-0.798,1.592c0.004,0.242,0.262,0.592,0.372,0.831
		c0.181,0.388,0.433,0.725,0.646,1.1c0.335,0.583,0.827,1.279,1.537,1.385c0.713,0.105,1.461,0.096,2.188,0.096
		c0.473,0,0.93,0.067,1.398,0.078c0.635,0.013,1.249-0.065,1.873-0.078c1.396-0.028,2.777-0.078,4.186-0.078
		c2.161,0,4.347,0.042,6.429,0.566c0.401,0.101,0.772,0.21,1.147,0.388c0.453,0.214,0.832,0.68,1.206,1.03
		c0.952,0.889,1.91,1.789,2.771,2.771c0.143,0.162,0.306,0.329,0.492,0.439c0.141-0.239,0.108-0.854,0.133-1.141
		c0.032-0.364,0.03-0.715,0.078-1.092c0.051-0.384,0.261-0.715,0.539-1.007c0.488-0.517,1.075-1.045,1.739-1.312
		c1.222-0.487,2.285-1.349,3.571-1.678c0.699-0.181,1.394-0.316,2.104-0.387c0.135-0.013,0.574-0.041,0.683-0.151
		c0.131-0.132,0.15-0.446,0.017-0.532"/>
	<path fill="#FD1813" d="M140.575,225.122c0.887,1.335,1.853,2.729,2.624,3.812c-7.882,7.536-18.237,6.494-28.165,6.197
		c-7.007-0.198-18.507-4.548-23.937,1.809c-1.372,1.61-2.232,3.424-3.035,5.361c-0.782,1.884-1.907,3.608-2.572,5.57
		c-0.534,1.599-0.988,3.205-1.698,4.742c-1.985,4.334-3.642,8.563-5.251,13.022c-1.955,5.434-3.013,11.242-3.973,16.866
		c-0.429,2.55-1.072,5.128-1.395,7.7c-0.32,2.609-0.912,5.729-0.406,8.363c0.203,1.104,0.541,2.182,0.971,3.218
		c0.192,0.465,0.392,0.821,0.686,1.2c0.271,0.35,0.329,0.778,0.479,1.185c0.157,0.426,0.201,0.542-0.113,0.886
		c-0.419,0.459-0.916,0.741-1.297,1.271c-0.396,0.552-0.804,1.318-0.703,2.021c0.049,0.341,0.308,0.743,0.542,1.001
		c0.275,0.304,0.777,0.536,1.117,0.77c0.454,0.313,0.964,0.569,1.441,0.848c0.854,0.497,1.721,1.019,2.65,1.365
		c0.79,0.295,1.541,0.68,2.28,1.084c0.275,0.151,0.638,0.252,0.836,0.465c0.271,0.289,0.434,0.778,0.661,1.111
		c0.655,0.957,1.554,1.499,2.475,2.157c0.44,0.314,0.894,0.613,1.265,1.01c0.221,0.235,0.45,0.647,0.729,0.81
		c0.272,0.158,0.545,0.029,0.745-0.171c0.293-0.293,0.569-0.634,0.895-0.931c0.678-0.619,1.403-1.194,2.089-1.81
		c1.014-0.909,2.156-2.05,3.42-2.605c1.036-0.455,2.264-0.603,3.381-0.383c0.854,0.167,1.783,0.362,2.656,0.461
		c0.463,0.052,0.934,0.013,1.399,0.065c1.234,0.142,2.34-0.171,3.156-1.1c0.898-1.021,2.189-1.695,3.218-2.591
		c1.641-1.431,3.669-3.329,4.791-5.16c2.239-3.681,3.795-7.818,5.362-11.726c0.159,0.216,9.211-10.732,9.211-10.732
		s-6.942,9.602-7.46,11.997c-0.597,2.794-0.919,5.592-1.398,8.398c-0.417,2.452-1.083,4.672-1.029,7.214
		c0.043,1.872,0.454,3.718,1.495,5.313c0.969,1.483,2.381,2.086,3.703,3.079c1.021,0.764,0.857,0.831,0.777,2.113
		c-0.061,0.999-0.065,2.08,0,3.065c0.102,1.463-0.186,4.538,0.974,5.652c0.911,0.868,3.324,1.002,4.543,0.924
		c1.882-0.113,4.416,0.071,6.22-0.72c1.557-0.684,3.199-1.075,3.978-2.69c0.667-1.378,0.396-3.253,0.813-4.787
		c0.436-1.626,1.701-3.14,2.587-4.523c0.927-1.476,1.828-2.77,2.987-4.093c1.465-1.655,2.75-3.172,4.026-5
		c1.319-1.899,2.908-3.66,3.704-5.996c1.042-3.104,1.11-6.438,1.733-9.636c0.752-3.84,1.071-7.697,1.871-11.594
		c1.653-8.01,3.929-16.635,1.969-24.789c-0.722-3.012-1.776-6.004-2.646-8.957c-0.909-3.065-1.016-6.392-1.806-9.481
		c-0.648-2.578-1.652-4.805-3.09-7.026c-0.92-1.392-2.773-3.17-2.722-4.918"/>
	<path d="M137.319,130.492c-0.281,0.088-0.31,0.186-0.119,0.309c1.183-0.915,3.429-1.188,4.781-1.553
		c1.879-0.508,3.249-0.34,4.981,0.291c3.494,1.332,9.693,5.062,9.693,5.062l24.688-6.928c0,0,12.237-6.909,19.595-4.213
		c4.289,1.573,7.983-9.299,11.942-9.613c2.314-0.185,12.588-11.141,14.026-9.896c0.944,0.835,10.299,9.992,10.482,11.898
		c0.264,2.427-19.523,26.67-23.313,28.044c-2.459,0.904-27.801,8.372-27.801,8.372s-33.321,27.022-37.777,24.701
		c0.027,5.603-3.97,34.528-3.97,34.528s3.731,12.637,3.84,14.839c-1.071,0.888-14.109,10.17-17.334,10.624
		c-3.548,0.48-6.756,0.627-10.067-0.292c-2.815-0.823-32.852-1.945-35.184-4.327c-1.504-1.537,5.358-9.202,5.468-11.271
		c0.143-2.59,0.479-33.012-1.706-33.734c-1.684,1.996-12.084,16.152-11.753,18.933c0,0,3.029-0.902,3.646,2.18
		c0.615,3.13-3.118,4.109,0.548,7.238c2.486,2.137,4.06,5.787,5.852,7.483c-0.367,3.336-2.702,8.398-4.108,11.061
		c-1.615,3.06-3.422,2.517-3.399,6.475c-2.107,0.148-10.435-9.45-12.673-10.106c-1.976-0.581-2.479-5.301-2.479-5.301l-3.751-6.803
		c0,0-6.415-15.002-7.025-19.652c-0.362-2.759,3.749-10.272,3.829-13.128c0.182-5.798,6.176-28.824,9.82-34.01
		c3.243-4.599,10.107-16.562,15.079-16.396c2.323,0.075,11.666,1.798,12.266-0.008L137.319,130.492z"/>
	<path fill="#FFFFFF" d="M92.959,132.467c0.064,0.066,0.104,0.134,0.104,0.231c-0.04,0.009-0.082,0.015-0.113,0.042
		c-0.124,0.169-0.469,0.319-0.65,0.413c-0.239,0.113-0.455,0.223-0.7,0.354c-0.642,0.381-1.543,0.619-2.284,0.714
		c-1.086,0.146-2.117,0.3-3.103,0.75c-0.618,0.309-1.251,0.815-1.794,1.278c-0.518,0.443-1.025,0.875-1.499,1.381
		c-0.516,0.547-0.866,1.185-1.246,1.837c-0.687,1.198-1.232,2.578-1.505,3.933c-0.374,2.014-0.763,3.941-0.828,6.01
		c-0.019,0.924,0.529,3.855,0.529,3.855s2.027,5.305,2.335,6.309c0.302,0.947,0.673,1.883,0.94,2.814
		c0.204,0.714,1.959,3.662,2.666,4.279c1.076,0.938,5.946,2.823,7.073,3.17c0.952,0.297,2.001,0.532,2.991,0.668
		c0.61,0.054-0.108-0.654-0.99-1.032c-1.132-0.481-2.038-0.912-2.746-2.065c-1.639-2.708-2.055-6.209-1.121-9.269
		c0.919-3.026,4.166-4.345,6.709-5.266c1.803-0.675,3.781-1.137,5.676-0.675c0.729,0.185,3.95,1.761,4.891,2.29
		c1.653,0.901,3.3,1.728,4.914,2.655c0.883,0.522,1.754,0.953,2.536,1.602c0.948,0.773,1.937,1.464,2.926,2.209
		c1.169,0.907,2.663,2.058,3.069,3.64c0.379,1.45,0.488,9.772,0.488,10.992c-0.005,0.882-0.07,4.899,0.082,5.993
		c0.149,1.311,0.541,5.879,0.48,6.851c-0.072,1.022,3.125,9.947,3.64,13.826c0.092,0.692,0.066,1.378,0.256,2.071
		c0.434,1.588,1.045,3.138,1.446,4.765c0.229,0.918,0.763,3.563,0.892,3.64c0,0,1.089,4.101,1.212,4.765
		c0.179,1.013,1.092,5.44,1.346,6.665c0.461,2.29,0.74,4.646,0.864,6.974c0.048,0.66,0.063,1.321,0.056,1.968
		c0,0.198-0.085,0.797,0.018,0.868l2.918-0.854c0.131-0.014,0.253-0.025,0.374-0.042c-0.064-0.751,0.106-1.446,0.097-2.158
		c0-0.812-0.051-1.627-0.06-2.449c-0.001-0.973-0.169-1.982-0.296-2.938c-0.126-1.094-3.31-15.645-3.663-16.633
		c-0.632-1.807-2.522-9.183-2.764-11.105c-0.168-1.305-1.385-10.545-1.474-12.054c-0.112-2.344-0.887-12.018-1.028-13.18
		c-0.153-1.115-0.406-5.137-0.534-6.049c-0.203-1.635-0.341-3.259,0.447-4.748c0.82-1.483,1.837-2.879,2.896-4.151
		c0.681-0.806,1.393-1.597,2.189-2.254c0.61-0.523,1.229-1.145,1.885-1.584c1.413-0.913,2.765-1.951,4.188-2.827
		c0.609-0.375,1.244-0.821,1.839-1.084c0.599-0.232,1.147-0.406,1.835-0.501c0.707-0.09,1.374-0.115,2.082-0.128
		c0.36,0.006,0.567,0.053,0.891,0.195c0.461,0.213,0.94,0.338,1.385,0.566c2.626,1.496,5.685,2.652,7.709,5.044
		c0.213,0.28,0.46,0.501,0.671,0.758c0.185,0.214,0.218,0.499,0.511,0.306c0.354-0.242,0.607-0.924,0.685-1.311
		c0.313-1.271,0.296-2.643,0.283-3.949c-0.044-1.801-0.095-3.562-0.312-5.369c-0.135-1.062-0.49-2.086-0.704-3.133
		c-0.127-0.672-0.245-1.363-0.416-2.029c-0.449-1.741-1.187-3.449-2.113-4.969c-0.782-1.234-1.795-2.391-2.696-3.477
		c-0.611-0.779-1.288-1.451-2.068-1.972c-0.747-0.491-1.52-0.859-2.261-1.371c-0.187-0.147-0.73-0.367-0.812-0.63l-0.482-1.201
		l-1.655-0.039L92.959,132.467z"/>
	<path fill="#FFFFFF" d="M110.812,154.78c-0.369-0.826-0.777-1.616-1.174-2.411c-0.982-1.965-2.003-3.933-2.755-6.018
		c-0.799-2.254-1.312-4.652-1.894-6.979c-0.191-2.615-0.082-5.235,0.187-7.828c0.071-0.123,0.115-0.237,0.154-0.365
		c1.293-3.312,2.244-7.042,4.271-9.936c1.454-2.061,3.779-4.625,6.112-5.4c1.383-0.456,2.883-0.131,4.321,0.072
		c1.945,0.292,3.928-0.011,5.88,0.076c1.241,0.072,2.474,0.216,3.711,0.405l0.445-0.486c0.789,0.075,1.587,0.153,2.355,0.277
		c0.437,0.053,0.868,0.138,1.301,0.244c0.79,0.546,1.509,1.253,2.054,1.956c1.201,1.475,2.359,3.169,2.83,5.017
		c0.848,3.222,1.397,6.466,1.012,9.792c-0.207,1.62-0.418,3.334-0.76,4.817c-0.201,0.89-0.269,1.817-0.459,2.696
		c-0.249,0.93-0.611,1.881-0.9,2.799c-0.581,2.038-1.367,4.048-1.995,6.105c-0.683,2.317-1.463,4.645-2.954,6.517
		c-1.167,1.521-2.416,3.026-3.942,4.14c-1.341,0.992-2.876,1.549-4.412,2.044c-3.258,1.014-7.229-0.21-9.617-2.749
		c-1.178-1.242-1.896-2.869-3.054-4.1C111.284,155.239,111.056,155.004,110.812,154.78z"/>
	<path fill="#245977" d="M123.004,129.373c-0.451-0.804-2.392-1.094-2.976-0.795c-0.393,0.193-0.879,0.432-1.196,0.707
		c-0.179,0.188-0.68,0.775-0.523,1.186c0.211,0.582,1.253,0.896,1.653,0.906c0.47,0.028,1.021-0.047,1.413-0.189
		c0.862-0.325,1.622-0.924,1.895-1.82c-0.102-0.098-0.234-0.131-0.368-0.126"/>
	<path fill="#245977" d="M131.216,130.133c-0.082,0.086-0.102,0.105-0.018,0.008c0.671-0.493,2.109-0.418,2.635-0.313
		c0.755,0.134,1.784,0.66,1.771,1.542c-0.996,0.255-2.129,0.439-2.843,0.126c-0.533-0.243-1.646-0.718-1.434-1.495"/>
	<path d="M115.7,143.649c-0.456-0.294-0.888-0.669-1.22-1.1c-0.492-0.603-0.784-1.319-0.508-2.134
		c0.252-0.66,0.684-0.854,1.181-0.371c0.358,0.312-0.064,0.935-0.432,0.604c-0.021,0.067-0.058,0.117-0.079,0.163
		c-0.074,0.659,0.143,1.146,0.636,1.493c0.464,0.474,1.096,0.765,1.689,1.05c1.083,0.513,2.205,0.715,3.354,0.563
		c0.062,0,0.099,0,0.144-0.006c0.087-0.009,0.17-0.026,0.249-0.036c1.306-0.234,2.105-0.611,2.105-0.611s3.324,1.951,4.984,2.01
		c1.698,0.039,3.246-1.74,3.246-1.74l0.69,1.385c0,0,3.863,0.463,5.658,0.689c0.044-0.011,0.073-0.036,0.105-0.051
		c0.214-0.072,0.28-0.235,0.189-0.492c-0.189,0.053-0.271-0.224-0.139-0.361c0.28-0.273,0.656,0.012,0.727,0.375
		c0.056,0.252,0.034,0.42,0.012,0.669c0.002,0.076-0.031,0.126-0.062,0.183c-0.028,0.061-0.113,0.235-0.113,0.151
		c-0.567,1.284-2.739,5.388-6.248,4.896c-2.041,0.051-4.588-2.688-4.588-2.688s-3.192,2.842-8.664,2.043
		c-5.455-0.789-7.047-7.417-7.047-7.417S112.924,143.124,115.7,143.649z"/>
	<path d="M104.695,117.719c-0.526,1.07-2.591,1.037-3.539,1.131c-1.5,0.183-2.305,0.645-3.264,1.904
		c-1.955,2.584-2.851,5.738-2.082,9.078c0.359,1.59,1.153,3.776,1.952,5.051c0.866,1.336,1.954,1.329,3.364,1.521
		c0.446,0.08,1.545,0.449,1.89,0.154c0.349-0.299,0.498-1.716,0.551-2.157c0.167-1.7,0.049-3.256,0.228-4.91
		c0.25-1.932,0.472-3.863,0.694-5.792c0.163-1.402,1.333-4.252,0.307-5.423c-0.114-0.017-0.18,0.032-0.18,0.171"/>
	<path d="M140.641,124.566c-0.037,0.14,0.021,0.225,0.128,0.23c0.34-0.255,0.649-0.078,1.027-0.062
		c0.457,0.029,0.912-0.119,1.388,0.029c0.804,0.198,1.498,0.986,1.984,1.692c1.127,1.671,1.295,4.286,1.242,6.278
		c-0.059,2.514-1.461,4.695-3.099,6.318c-1.438,1.363-3.267,1.9-4.994,2.531c-0.041-1.354,0.317-2.802,0.62-4.076
		c0.368-1.478,0.369-3.164,0.547-4.691c0.323-2.83,0.479-5.61,0.833-8.412c-0.01,0.104-0.021,0.176-0.036,0.308"/>
	<path fill="#FF0000" d="M128.612,151.096c0,0-0.077,0.021-0.099,0.031l-0.162-0.062
		C128.447,151.091,128.535,151.096,128.612,151.096z"/>
	<path d="M131.73,125.196c-0.095,0.07-0.095,0.07-0.009-0.005c0.811-0.143,1.418,0.303,2.043,0.781
		c0.617,0.465,1.33,0.889,1.99,1.281c0.558,0.328,1.561,0.751,1.919,1.195c0.377,0.521,0.184,1.492,0.229,2.055
		c-0.886,0.549-0.971-1.086-1.141-1.366c-0.396-0.688-1.363-1.276-1.937-1.735c-0.644-0.541-1.244-1.279-1.985-1.641
		c-0.356-0.174-2.157-0.28-1.215-0.836"/>
	<path fill="#FFFFFF" d="M133.346,129.02c0.188,0,0.482,0.222,0.599,0.306c0.3,0.253,0.812,0.528,0.893,0.933
		c0.072,0.353-0.171,0.951-0.429,1.26c-0.45,0.504-0.984,0.918-1.633,0.927c-0.584,0.02-1.025-0.183-1.22-0.692
		c-0.139-0.363,0-0.771,0.144-1.178c0.212-0.477,0.735-0.972,1.266-1.172c0.276-0.125,0.712-0.262,0.993-0.221"/>
	<path fill="#FFFFFF" d="M118.617,128.303c-0.024,0.007-0.024,0.007,0-0.01c0.251-0.025,0.422-0.138,0.65-0.211
		c0.324-0.055,0.723-0.083,1.076-0.008c1.057,0.261,2.107,1.131,2.153,2.162c0.032,0.344-0.046,0.672-0.243,0.909
		c-0.176,0.243-0.475,0.272-0.747,0.302c-0.78,0.076-1.937-0.534-2.521-1.137c-0.315-0.355-0.629-0.882-0.521-1.287
		c0.085-0.348,0.322-0.721,0.575-0.949c0.101-0.061,0.382-0.353,0.531-0.297"/>
	<path d="M134.218,129.7c-0.097,0.03,0.138-0.033,0.208-0.039c0.156-0.009,0.339,0.008,0.482,0.02
		c0.268,0.034,0.479,0.222,0.405,0.636c-0.138,0.605-0.568,0.939-1.039,0.92c-0.368-0.017-0.842-0.229-0.819-0.719
		c0.019-0.588,0.522-0.826,0.915-0.862c0.044-0.017,0.051-0.033,0.005-0.054"/>
	<path d="M120.808,128.427c-0.051,0.081,0.101-0.015,0.172-0.02c0.077-0.036,0.185-0.031,0.27-0.06
		c0.216-0.035,0.445-0.062,0.694,0.028c0.514,0.186,1.145,1.075,0.992,1.554c-0.251,0.79-1.339,0.594-1.886-0.148
		c-0.362-0.41-0.279-1.1,0.17-1.256"/>
	<path d="M105.431,104.309l5.794-7.914l10.004-0.778c0,0,8.055,1.164,9.628,1.769c2.385,0.916,10.367,10.635,10.983,14.018
		c0.279,1.447,0.309,2.952,0.295,4.408c-0.016,2.187-0.149,4.359-0.391,6.51c-0.502,4.197-0.712,8.724-1.693,12.783
		c-0.275,1.137-0.362,2.402-0.576,3.586c-0.251,1.416-0.647,2.908-1.019,4.27c-0.37,1.531-3.412,10.564-6.149,14.016
		c-1.131,1.41-2.561,2.632-3.918,3.74c-0.5,0.417-1.032,0.753-1.602,1.047l0,0c-0.402,0.283-1.534,0.846-1.697,0.912
		c-0.129,0.068-0.243,0.244-0.175,0.283c0.396,0.14,1.018,0.21,1.343,0.473c0.057,0.07,0.101,0.166,0.046,0.242
		c-0.16,0.324-0.427,0.625-0.694,0.923c-0.065,0.111-0.146,0.208-0.265,0.315v-0.005c-0.015,0.02-0.022,0.052-0.022,0.052
		c-0.029,0-0.036,0.01-0.057,0.037c-0.045,0.051-0.125,0.037-0.184,0.012c-0.044,0-0.082,0-0.12-0.048
		c-0.047-0.038-0.12-0.086-0.17-0.145c-0.146-0.084-0.057-0.294,0.055-0.328c-0.636-0.432-1.243-0.89-1.996-1.066
		c-0.032-0.012-0.069-0.034-0.069-0.034c-0.082-0.021-0.151-0.016-0.206-0.021c-0.516,0.397-0.974,0.612-1.76,0.57
		c-0.774-0.021-2.009-0.338-2.446-1.15c-0.622-0.203-1.252-0.496-1.791-0.846c-0.214-0.097-0.423-0.192-0.635-0.329
		c-0.771-0.367-4.461-3.716-5.48-4.934c-0.633-0.759-6.649-8.425-6.967-9.259c-0.617-1.729-0.552-3.816-0.654-5.611
		c-0.216-4.143-0.184-8.26,0.309-12.409c0.465-3.907,0.785-7.578,0.877-11.466C104.162,113.312,105.431,104.309,105.431,104.309z
		 M104.796,137.2c0.046,0.726,0.147,1.464,0.229,2.181c0.2,1.444,0.755,2.911,1.216,4.299c0.402,1.186,0.926,2.371,1.256,3.618
		c0.168,0.68,0.47,1.327,0.758,1.973c0.696,0.997,1.395,1.99,1.981,3.061c0.213,0.353,0.351,0.699,0.474,1.061
		c0.286,0.521,0.566,1.016,0.84,1.54c0.348,0.691,0.692,1.46,1.107,2.152c0.611,0.615,1.241,1.197,1.823,1.799
		c0.424,0.477,0.881,0.931,1.311,1.385c0.327,0.321,0.76,0.809,1.166,1.107c0.25,0.118,0.506,0.227,0.749,0.363
		c0.81,0.398,1.638,0.487,2.478,0.742c0.833,0.24,1.85,0.289,2.648,0.043c0.518-0.135,3.512-1.03,3.904-1.26
		c0.713-0.453,1.279-0.96,1.94-1.504c1.431-1.206,2.541-2.645,3.555-4.247c0.888-1.438,1.786-2.76,2.536-4.285
		c0.426-0.823,0.684-1.751,0.987-2.618c0.244-0.705,0.516-1.426,0.745-2.166c0.032-0.777,0.292-1.492,0.538-2.233
		c0.111-0.342,0.212-0.681,0.31-1.014c0.197-1.564,0.275-3.222,0.64-4.739c0.697-2.986,1.943-6.232,1.572-9.467
		c-0.144-1.4-0.645-2.75-1.298-4.028c-0.258-0.532-0.554-1.114-0.868-1.597c-0.411-0.654-0.787-0.722-1.547-0.979
		c-1.931-0.679-4.074-1.102-6.069-1.387c-2.039-0.297-4.052-0.819-6.135-1.08c-2.306-0.268-5.025,0.104-7.269,0.775
		c-1.636,0.49-3.41,1.254-4.449,2.811c-1.774,2.602-2.055,6.097-3.428,8.852c-0.604,1.145-1.764,1.839-2.61,2.746
		c-0.509,0.502-1.041,1.033-1.108,1.806C104.79,137.004,104.796,137.105,104.796,137.2z"/>
	<path fill="#FF0000" d="M128.553,140.386c-0.082-0.062-0.171-0.079-0.267-0.123c1-0.481,2.981,2.618,2.393,3.519
		c-1.184,1.8-4.331,2.01-5.837,1.273c-1.604-0.789-2.865-2.466-1.264-4.213c1.431-1.557,4.117-1.738,5.299-0.579"/>
	<path d="M130.977,143.832c1.807,0.234,3.942-0.244,5.285-1.633c1.904-1.977-0.607-3.838-1.202-2.049
		c0.908-0.305,0.908,0.7,0.57,1.4c-0.284,0.627-1.182,0.795-1.714,1.086c-1.163,0.65-2.662,1.531-4.028,1.722"/>
	<path fill="#245977" d="M241.098,105.048c-0.138,0.197-0.282,0.384-0.446,0.548c-0.867,0.869-1.398,1.672-2.114,2.707
		c-0.643,0.93-1.488,1.638-2.193,2.502c-0.554,0.679-0.966,1.584-1.624,2.11c-1.388,1.11-2.617,0.881-3.575-0.456
		c-1.028-1.436-2.215-2.611-3.185-4.057c-0.934-1.391-0.26-2.176,0.941-2.98c1.508-1.008,2.806-2.27,4.329-3.262
		c1.446-0.941,1.878-3.008,2.571-4.469c1.16-2.445,2.007-5.285,0.788-7.755c-0.538-1.091-1.267-2.206-2.064-3.112
		c-0.512-0.581-1.392-1.053-1.646-1.807c-0.391-1.152,0.028-1.977,1.125-2.115c1.755-0.221,4.076,0.738,5.217,2.051
		c1.38,1.586,1.773,2.887,3.917,1.407c2.926-2.021,4.988-4.985,7.679-7.269c0.691-0.586,1.501-1.054,2.181-1.642
		c0.753-0.651,1.386-1.25,2.356-1.581c2.04-0.697,2.84,1.652,1.806,3.229c-1.778,2.711-5.987,4.598-6.503,7.981
		c-0.13,0.853-0.068,0.597,0.578,1.124c0.635,0.518,1.1,0.799,1.071,1.674c-0.034,1.051-1.215,1.962-0.419,2.923
		c0.482,0.584,1.096,0.534,1.436,1.394c0.248,0.627,0.319,1.418,0.156,2.073c-0.207,0.831-0.372,0.892-0.299,1.694
		c0.062,0.682,0.261,1.729-0.171,2.305c-0.906,1.209-3.016,1.11-4.238,0.979c-0.708-0.076-1.64-0.182-2.34-0.012
		c-1.1,0.269-2.193,1.091-3.213,1.58C242.159,103.322,241.767,104.085,241.098,105.048z"/>
	<path fill="#245977" d="M135.577,328.724c-0.88,8.087-1.33,17.792-1.647,26.825c-0.137,4.311-0.622,8.779-0.445,13.09
		c0.165,3.992,2.562,7.598,1.604,11.458c-2.291,1.191-5.039,0.767-7.578,0.432c-0.221-4.236,0.186-8.668,0.342-12.937
		c0.15-4.342-0.81-8.379-1.021-12.306c-0.486-8.729-2.15-17.225-1.094-26.135c2.872-0.111,6.603,0.946,9.131-0.462"/>
	<path d="M154.94,259.271c-0.743-0.06-1.21-1.106-1.691-1.632c-0.901-1.002-2.005-1.836-2.819-2.934
		c-1.609-2.184-2.779-4.689-3.612-7.323c-0.407-1.28-0.813-2.495-0.875-3.816c-0.051-1.172,0.178-2.346-0.029-3.479
		c-0.165,3.581-0.255,6.522,1.152,9.829c1.067,2.535,2.075,6.029,4.089,7.875c1.231,1.115,2.423,1.417,3.869,1.958
		c-0.164-0.016-0.353-0.008-0.534-0.032"/>
	<path d="M126.699,243.617c-0.178,2.74,0.028,5.503,0.37,8.233c0.161,1.282,0.44,3.109,0.009,4.341
		c-0.248,0.68-0.975,1.305-1.444,1.806c-1.241,1.302-2.372,2.593-2.166,4.603c0.211,2.016,0.276,3.941,0.344,5.963
		c0.047,1.629,0.479,3.602,0.211,5.19c-0.161,0.021-0.229,0.027-0.39-0.018c0.095-2.155-0.473-4.565-0.687-6.696
		c-0.127-1.251-0.24-2.485-0.299-3.754c-0.05-0.994-0.297-2.112,0.212-3.028c0.719-1.303,2.206-2.242,3.027-3.537
		c1.079-1.718,0.803-4.233,0.871-6.235c0.03-1.138,0.132-2.292,0.088-3.426c-0.031-0.81,0.219-2.416-0.156-3.125"/>
	<path d="M97.31,244.167c-1.456,3.635-1.761,8.641-4.984,11.165c-0.998,0.778-2.198,1.157-3.332,1.582
		c-1.167,0.439-1.461,0.02-2.348-0.781c0.345,0.961,0.965,2.08,2.023,2.127c0.642,0.024,1.438-0.31,2.111-0.363
		c0.887-0.062,1.545-0.073,2.221-0.745c1.429-1.438,2.423-3.75,2.804-5.791c0.222-1.221,0.565-3.516,0.107-4.697"/>
	<path d="M139.56,322.143c-0.683,1.097-3.001,1.418-4.116,1.619c-1.468,0.256-3.137-0.046-4.619-0.113
		c-2.463-0.118-4.252-1.188-6.225-2.606c1.058,0.459,2.481,0.363,3.678,0.417c1.403,0.07,2.792,0.366,4.075,0.669
		c2.085,0.481,5.17,0.777,7.166,0.008c-0.53-0.014-1.062-0.039-1.574-0.072"/>
	<path d="M91.105,308.436c-0.73,0.98-2.192,0.652-3.163,0.532c-1.766-0.218-3.455-0.273-5.065-1.161
		c-1.258-0.692-3.016-1.448-3.997-2.551c-0.572-0.646-0.883-1.47-1.673-1.909c-0.216,1.056,0.877,2.17,1.523,2.835
		c1.127,1.222,2.612,1.812,4.127,2.338c1.284,0.443,2.618,0.613,3.988,0.678c0.908,0.045,2.5,0.44,3.3-0.017
		c-0.12,0-0.266,0-0.394-0.011"/>
	<path d="M141.516,395.33c-0.229-0.081-0.45-0.183-0.661-0.315c-0.722-0.455-1.273-1.281-1.862-1.875
		c-1.417-1.427-3.252-3.096-4.938-4.069c-0.911-0.525-1.775-0.661-2.749-1.056c-0.629-0.255-1.352-1.036-2.065-0.984
		c-0.715,0.053-0.945,0.709-1.414,1.145c-1.26,1.171-2.077,0.174-3.285-0.601c-0.414-0.266-1.373-0.513-1.624-1.017
		c-0.188-0.393,0.008-1.769,0.065-2.209c0.149-1.353,0.421-2.715,0.65-4.053c0.159-0.9,0.603-1.517,0.805-2.283
		c0.293-1.105,0.042-2.021,0.68-3.123c0.571-0.99,1.998-1.14,3.095-1.329c-1.292,1.768,2.42,2.407,3.343,2.522
		c1.06,0.132,1.663-0.001,2.444-0.562c0.443-0.318,0.102-0.705,0.75-0.649c0.091,0.008,0.702,0.628,0.807,0.704
		c2.556,1.869,4.645,4.384,6.693,6.807c1.223,1.445,2.576,2.648,4.307,3.506c0.9,0.446,1.839,0.617,2.749,0.933
		c0.881,0.305,2.281,0.484,3.006,0.988c1.321,0.918,1.234,3.601,1.244,5.018c0.024,3.577-7.555,3.565-9.75,3
		C143.088,395.643,142.267,395.597,141.516,395.33z"/>
	<path fill="#FF0000" d="M126.43,152.619c-0.093,0.532-1.826,0.141-2.245-0.123c-0.68-0.434-0.974-1.207-1.163-1.881
		c0.364,0.014,0.594,0.414,0.941,0.518c0.351,0.103,1.022,0.029,1.394-0.006c0.87-0.081,1.478-0.574,1.62-1.484
		c0.562,1.006,0.254,2.066-0.337,2.977"/>
	<path d="M115.3,128.895c0.095,0.067,0.104,0.105,0.014,0.129c-0.995-1.218,3.56-2.383,4.388-2.727
		c0.851-0.365,1.605-1.005,2.548-1.086c0.57-0.045,2.497,0.243,2.364-0.812c-1.017-0.098-1.877-0.21-2.874-0.361
		c-1.203-0.182-2.107,0.479-3.161,1.111c-0.872,0.516-1.696,1.101-2.61,1.492c-0.493,0.205-0.689,0.143-0.879,0.634
		c-0.236,0.581,0.12,0.677,0.33,1.2"/>
	<path d="M118.084,130.482c0.36-0.229-0.005-1.725-0.216-2.053c0.253,0.32,0.93,0.795,0.794,1.279
		c0.155-0.346,0.696-1.898,0.199-2.128c0.443,0.431,0.675,0.946,0.736,1.562c0.23-0.135,0.439-0.666,0.55-0.926
		c0.141-0.329,0.312-0.872,0.094-1.201c0.03,0.285,0.412,0.502,0.573,0.725c0.2,0.275,0.278,0.55,0.269,0.883
		c-0.224-0.172,0.085-0.483,0.183-0.655c0.194-0.341,0.235-0.564,0.226-0.954c0.237,0.511,0.667,1.009,0.58,1.613
		c0.196-0.459,1.052-0.67,1.001-1.283c0.177,0.259,0.124,0.732,0.189,1.041c0.079,0.369,0.178,0.714,0.134,1.093
		c-0.178-0.023-0.335-0.293-0.507-0.392c-0.174-0.099-0.369-0.137-0.561-0.182c-0.443-0.105-1.04-0.164-1.499-0.067
		c-0.571,0.12-1.128,0.524-1.585,0.878c-0.197,0.153-0.401,0.32-0.562,0.516c-0.144,0.174-0.159,0.418-0.433,0.418"/>
	<path d="M131.061,130.066c0.372,0.25,0.494-0.643,0.518-0.832c0.026-0.219,0.101-0.43,0.066-0.672
		c-0.023-0.163-0.097-0.297-0.084-0.468c-0.035,0.251,0.173,0.34,0.232,0.556c0.051,0.184-0.086,0.612,0.029,0.756
		c0.37,0.462,0.569-1.389,0.567-1.559c0.066,0.289,0.283,0.518,0.399,0.805c0.121,0.299,0.07,0.58,0.116,0.885
		c0.574-0.315,0.832-0.988,0.813-1.608c0.195,0.429,0.452,1.046,0.12,1.462c0.633-0.32,0.905-0.648,0.878-1.379
		c0.275,0.592,1.143,1.202,0.617,1.9c0.221-0.098,0.507-0.578,0.463-0.815c0.225,0.271,0.474,2.222-0.064,2.123
		c-0.079-0.523-0.129-0.843-0.679-1.093c-0.398-0.182-0.843-0.26-1.248-0.311c-0.433-0.054-0.939,0.023-1.312,0.183
		c-0.369,0.157-0.692,0.478-1.1,0.566"/>
	<path fill="#245977" d="M102.941,233.024c0.209,0.427,0.352,0.898,0.502,1.347c0.248,0.741,0.375,1.634,0.313,2.418
		c-0.022,0.279-0.13,0.546-0.315,0.753c-0.199,0.224-0.428,0.596-0.712,0.714c-0.206,0.086-0.465,0.123-0.692,0.105
		c-0.272-0.021-0.629-0.163-0.895-0.102c-0.06,0.188,0.137,0.347,0.214,0.494c0.134,0.255,0.177,0.526,0.229,0.806
		c0.132,0.707,0.019,1.424-0.286,2.073c-0.291,0.623-0.675,1.137-1.238,1.527c-0.64,0.443-1.195,0.455-1.941,0.38
		c-0.377-0.038-0.764,0.15-0.861,0.549c-0.048,0.199,0.022,0.393-0.048,0.597c-0.111,0.321-0.428,0.635-0.672,0.863
		c-0.577,0.541-1.045,0.604-1.799,0.436c-0.521-0.117-1.135-0.262-1.672-0.197c-0.045,0.394,0.078,0.85-0.373,1.016
		c-0.465,0.171-0.934,0.039-1.289-0.295c-0.558-0.524-1.088-1.131-1.592-1.707c-0.355-0.407-0.548-0.87-0.807-1.335
		c-0.668-1.199-2.057-1.769-2.7-2.993c-0.405-0.771-0.83-1.375-1.51-1.942c-0.878-0.732-1.686-1.554-2.579-2.266
		c-0.311-0.248-0.658-0.387-0.845-0.762c-0.174-0.349-0.245-0.88-0.288-1.254c-0.047-0.406-0.08-0.935-0.026-1.347
		c0.096-0.725,0.659-1.469,0.972-2.117c0.765-1.585,1.641-3.088,2.995-4.231c1.35-1.14,2.58-0.462,4.034,0.026
		c0.868,0.292,1.697,0.452,2.591,0.544c1.215,0.125,2.555,0.023,3.701-0.424c0.508-0.198,1.034-0.197,1.489-0.521
		c0.57-0.404,1.167-1.013,1.601-1.562c0.323-0.408,0.356-1.091,0.296-1.589c-0.062-0.511-0.148-1.131,0.009-1.637
		c0.161-0.518,0.526-0.773,1.079-0.71c0.335,0.038,0.59,0.37,0.805,0.614c0.307,0.349,0.507,0.753,0.755,1.141
		c0.212,0.331,0.531,0.602,0.646,0.988c0.263,0.879,0.246,1.827,0.249,2.733c0.002,0.641-0.032,1.312-0.149,1.939
		c-0.069,0.373-0.127,0.759-0.124,1.138c0.004,0.438-0.16,0.821-0.163,1.268c-0.003,0.429,0.408,0.792,0.585,1.19
		C102.622,232.129,102.725,232.586,102.941,233.024z"/>
</g>
</svg>
