<?xml version="1.0" encoding="utf-8"?>
<!-- Generator: Adobe Illustrator 16.0.4, SVG Export Plug-In . SVG Version: 6.00 Build 0)  -->
<!DOCTYPE svg PUBLIC "-//W3C//DTD SVG 1.1//EN" "http://www.w3.org/Graphics/SVG/1.1/DTD/svg11.dtd">
<svg version="1.1" id="Ebene_1" xmlns="http://www.w3.org/2000/svg" xmlns:xlink="http://www.w3.org/1999/xlink" x="0px" y="0px"
	 width="283.46px" height="425.2px" viewBox="0 0 283.46 425.2" enable-background="new 0 0 283.46 425.2" xml:space="preserve">
<g>
	<path fill="#245977" d="M121.202,96.461l-12.296-5.203l-5.203-21.287l5.383-10.79l-4.287-16.622c0,0-3.754-1.778-5.173-2.25
		c-1.421-0.474-24.123,8.984-24.123,8.984l5.705,16.114l13.019,10.02l3.311,15.609l-25.049,17.721c0,0,8.513,15.606,10.406,16.08
		c1.89,0.475,26.485,3.785,26.485,3.785l15.135-15.136L121.202,96.461z"/>
	<path fill="#245977" d="M154.235,236.827l57.934,134.959l-31.261-31.207c0,0-12.194-10.759-15.814-32.457
		c-3.623-21.702-2.882-22.936-2.882-22.936s-14.439-5.259-24.06-17.486c-9.622-12.217-14.802-20.812-14.802-20.812L154.235,236.827z
		"/>
	<path fill="#245977" d="M118.017,259.861l-8.707,66.592l-26.849,75.905c0,0-7.916-33.476,2.336-52.947
		c10.247-19.464,14.454-30,14.454-30s-12.465-29.152-12.728-44.705c-0.263-15.556,0.814-25.529,0.814-25.529L118.017,259.861z"/>
	<path d="M101.26,180.874l-65.93,41.006l-6.899,20.982c42.2,24.165,66.72,38.785,66.72,38.785l85.958-14.734l44.71-64.389
		l-22.569-16.138l-57.709,5.81l-11.077-27.918v-24.858l-4.36-22.744l-8.424-22.805l-8.025-0.603l-0.324,17.117H94.523l-18.191-4.623
		l-6.139-0.848l-0.452,5.722l1.893-2.51l13.286,21.776L101.26,180.874z"/>
	<g>
		<path fill="#FFFFFF" d="M105.313,123.49c1.242,2.54,0.184,5.607-2.357,6.846c-2.541,1.237-5.607,0.182-6.844-2.355
			c-1.237-2.544-0.184-5.609,2.359-6.849C101.01,119.895,104.074,120.948,105.313,123.49z"/>
		<path fill="#FFFFFF" d="M123.221,120.615c1.242,2.541,0.183,5.604-2.356,6.845c-2.541,1.238-5.608,0.183-6.844-2.359
			c-1.244-2.54-0.185-5.607,2.356-6.846C118.916,117.018,121.981,118.073,123.221,120.615z"/>
	</g>
	<g>
		<path fill="#FF0000" d="M105.734,123.703c1.239,2.542,0.181,5.607-2.357,6.845c-2.543,1.241-5.608,0.184-6.844-2.357
			c-1.242-2.541-0.187-5.606,2.354-6.845C101.428,120.107,104.493,121.163,105.734,123.703z"/>
		<path fill="#FF0000" d="M123.64,120.826c1.239,2.54,0.182,5.605-2.359,6.846c-2.541,1.238-5.605,0.183-6.844-2.357
			c-1.242-2.542-0.182-5.606,2.358-6.844C119.334,117.23,122.4,118.286,123.64,120.826z"/>
	</g>
	<path fill="#245977" d="M133.349,140.536c0,0-12.721-45.645-11.039-45.797c1.047-0.099,14.394,45.478,15.959,45.339
		c17.625-1.61,74.681-3.87,74.681-3.87l0.991-4.818l5.383-5.117l0.162-5.658l7.124,8.009l-10.708,13.909l-81.436,8.601
		L133.349,140.536z"/>
	<polygon fill="#245977" points="71.634,108.126 81.05,123.558 78.748,141.224 66.658,218.679 59.701,287.396 48.99,301.241 
		34.535,302.62 27.896,309.593 26.659,303.786 38.676,289.985 48.998,285.372 50.114,272.974 55.672,199.688 66.767,114.575 	"/>
	<path d="M216.753,134.029l1.261-45.289L167.23,68.833c0,0,22.295-36.995,66.148-19.958l2.62-2.297l-0.958,3.243
		c45.022,16.847,34.983,63.142,34.983,63.142s-46.398-23.47-47.774-22.59c-1.368,0.88-3.539,44.254-3.539,44.254L216.753,134.029z"
		/>
	<circle fill="#FF0000" cx="84.899" cy="60.614" r="2.838"/>
	<circle fill="#FF0000" cx="104.799" cy="56.002" r="2.829"/>
	<path d="M106.498,45.681c0.395-2.454-2.545-5.501-4.14-7.165c-2.929-3.051-5.82-3.019-9.819-3.019c-3.128,0-6.169,0.59-8.968,1.593
		c-2.651,0.946-5.275,1.739-7.34,3.965c-1.575,1.693-2.899,4.763-3.692,6.88c-0.837,2.235-0.833,6.689,0.857,8.611
		c2.579,2.936,3.478,0.301,5.096-1.906c1.495-2.04,2.899-4.035,4.515-6.013c1.229-1.509,1.1-2.022,2.84-1.151
		c0.612,0.304,1.187,0.878,1.811,1.141c1.127,0.466,0.618,0.39,1.49-0.293c1.985-1.561,3.339-4.229,5.278-5.666
		c2.202-1.634,4.396-2.886,7.168-1.876c1.266,0.457,2.248,1.184,3.019,2.26C105.048,43.656,106.332,45.755,106.498,45.681"/>
	<path d="M76.273,51.305c0.006-1.726-4.559-4.476-6.034-5.006c-3.088-1.115-6.182-1.307-9.411-0.642
		c-3.314,0.681-6.636,2.003-8.224,5.252c-1.868,3.829-1.31,7.513,0,11.316c1.164,3.381,3.454,6.248,6.99,6.894
		c3.614,0.659,5.567-1.572,7.912-4.225c2.454-2.784,4.366-5.605,6.044-8.874c0.679-1.324,1.241-2.976,1.613-4.316
		c0.572-2.063,0.576-2.254,2.617-3.415"/>
	<path d="M101.232,39.229c-0.267-2.648,1.27-6.338,2.266-8.761c1.203-2.931,3.653-6.921,6.505-8.527
		c2.432-1.368,6.499-1.178,8.58,0.683c1.979,1.774,2.67,4.308,3.028,6.789c0.381,2.666,0.175,6.13-0.472,8.663
		c-0.707,2.778-2.5,3.854-5.187,4.18c-5.466,0.665-10.705-0.265-14.586-4.176c0.206,0.012,0.413,0.017,0.621,0.017"/>
	<g>
		<path fill="#FF0000" d="M230.682,51.135c0,0-37.154-6.517-50.005,17.774l11.757,4.651
			C192.434,73.561,218.539,49.197,230.682,51.135z"/>
		<polygon fill="#FF0000" points="232.693,52.239 205.62,78.188 217.809,82.977 		"/>
		<path fill="#FF0000" d="M236.176,56.174l-4.84,34.844l9.93,5.963c0,0,4.754-31.567-0.18-36.898
			C236.154,54.75,236.176,56.174,236.176,56.174z"/>
		<path fill="#FF0000" d="M244.593,59.231c0,0,21.964,18.732,17.756,48.577l-11.97-8.495
			C255.934,81.7,244.593,59.231,244.593,59.231z"/>
	</g>
	<polygon fill="#FF0000" points="180.677,247.672 180.869,255.043 184.645,252.596 	"/>
	<polygon fill="#FF0000" points="208.785,194.023 211.219,200.981 214.069,197.505 	"/>
	<polygon fill="#FFFFFF" points="190.733,245.201 193.63,241.435 187.425,238.581 	"/>
	<polygon fill="#FFFFFF" points="177.077,263.25 171.698,263.25 171.698,255.043 	"/>
	<polygon fill="#FF0000" points="164.661,266.311 158.456,266.311 161.556,256.375 	"/>
	<polyline fill="#FF0000" points="199.839,223.084 203.251,216.048 197.356,216.048 	"/>
	<polygon fill="#FFFFFF" points="209.359,210.669 211.427,206.116 205.62,203.634 	"/>
	<polygon fill="#FFFFFF" points="154.936,269.828 146.452,269.828 148.937,259.146 	"/>
	<polygon fill="#FF0000" points="143.424,269.781 137.554,271.479 137.554,263.045 	"/>
	<polygon fill="#FFFFFF" points="131.21,271.688 127.125,271.688 129.168,264.487 	"/>
	<polygon fill="#FF0000" points="119.599,271.479 113.704,273.553 114.477,264.28 	"/>
	<polygon fill="#FFFFFF" points="107.627,272.83 101.97,274.484 104.28,265.38 	"/>
	<polygon fill="#FF0000" points="93.272,274.275 89.472,269.725 95.799,265.172 	"/>
	<polygon fill="#FFFFFF" points="81.05,267.469 76.827,263.25 82.061,258.285 	"/>
	<polygon fill="#FF0000" points="69.475,261.342 66.045,258.285 71.992,251.359 	"/>
	<polygon fill="#FFFFFF" points="49.612,251.359 44.375,245.201 49.612,241.892 	"/>
	<polygon fill="#FF0000" points="38.573,241.892 33.408,238.581 42.161,234.44 	"/>
	<path fill="#245977" d="M85.787,53.273c0.289-0.287,0.925-0.623,1.286-0.833c0.831-0.481,2.649,0.63,2.649,0.63
		s-4.216,1.871-5.144,1.407C84.776,54.171,85.475,53.583,85.787,53.273z"/>
	<path fill="#245977" d="M97.79,49.923c0,0.127,0,0.134,0,0.024c0-0.542-0.087-0.891,0.305-1.297
		c0.312-0.333,1.118-0.639,1.557-0.783c0.618-0.202,2.361-0.207,2.916-0.513c-0.361,0.76-0.795,1.243-1.463,1.787
		c-0.448,0.362-0.807,0.693-1.374,0.904C99.279,50.209,97.79,49.923,97.79,49.923z"/>
	<path d="M87.205,52.224c0.038,0.052,0.079,0.099,0.117,0.147c-0.978-0.137-0.917,1.842,0.06,1.983
		c0.662,0.098,0.893-0.309,0.879-0.896c-0.016-0.655-0.328-0.831-0.884-1.079c-0.129,0.001-0.186,0.068-0.172,0.197"/>
	<path d="M99.749,47.961c0.853-0.354,2.735,0.676,0.942,2.116c-0.534,0.428-1.302,0.477-1.684-0.183
		C98.554,49.114,98.896,48.315,99.749,47.961z"/>
	<path d="M83.5,52.933c0.077,0.131,0.182,0.183,0.32,0.153c0.505-0.42,1.962-3.693,2.657-2.938
		c-0.175,0.461-2.385,2.818-2.734,2.759c0.044-0.106,0.083-0.216,0.11-0.33"/>
	<path d="M98.142,44.464c0.585,0.5,1.142,0.661,1.944,0.886c0.613,0.171,1.485,0.679,2.08,0.679
		c0.382-0.876-1.229-0.871-1.729-1.076c-0.872-0.357-1.472-0.751-2.442-0.641c-0.075,0.255-0.018,0.484,0.148,0.679"/>
	<path fill="#FF0000" d="M93.379,65.984c0.097,0.118,0.292,0.157,0.39,0.332c0.584-0.169,1.265-0.934,1.405-1.534
		c0.491-0.208,0.751,0.418,1.34,0.281c0.526-0.121,0.73-0.771,1.231-0.805c0.125-0.01,0.417,0.29,0.564,0.323
		c0.259,0.062,0.781,0.033,1.029-0.043c0.463-0.143,1.152-0.536,1.457-0.962c0.213,1.337-2.726,2.86-3.721,3.107
		c-1.097,0.276-3.566,0.717-4.031-0.663c0.451-0.072,0.932-0.037,1.395-0.037"/>
</g>
</svg>
