<?xml version="1.0" encoding="utf-8"?>
<!-- Generator: Adobe Illustrator 16.0.4, SVG Export Plug-In . SVG Version: 6.00 Build 0)  -->
<!DOCTYPE svg PUBLIC "-//W3C//DTD SVG 1.1//EN" "http://www.w3.org/Graphics/SVG/1.1/DTD/svg11.dtd">
<svg version="1.1" id="Ebene_1" xmlns="http://www.w3.org/2000/svg" xmlns:xlink="http://www.w3.org/1999/xlink" x="0px" y="0px"
	 width="283.46px" height="425.2px" viewBox="0 0 283.46 425.2" enable-background="new 0 0 283.46 425.2" xml:space="preserve">
<g>
	<g>
		<g>
			<g>
				<path fill="#FF0000" d="M262.351,205.201l4.895-0.94c-0.943,0.001-1.62-0.271-1.62-0.271s-0.206-0.12,1.031-1.21
					c-1.5,1.042-4.802,0.626-4.802,0.626l0.137,1.762C262.109,205.184,262.229,205.194,262.351,205.201z"/>
				<path fill="#245977" d="M261.872,203.412l0.24,3.161l0.205,0.038l-0.247-3.178C262.004,203.425,261.938,203.419,261.872,203.412
					z"/>
				<path fill="#FF0000" d="M256.273,214.422c0,0,3.411-1.636,5.969-8.221c2.185,7.027,5.192,7.9,5.192,7.9
					c0.364,5.615,3.097,10.743,3.097,10.743l-5.456,1.226c0,0,0.16-4.637-2.426-4.557c-2.588,0.081-1.823,4.618-1.823,4.618
					l-7.914,0.389C252.912,226.52,256.505,220.919,256.273,214.422z M257.865,215.237l-0.938-0.241
					c-0.145,4.571-2.102,10.846-2.102,10.846l1.878-0.002L257.865,215.237z M261.875,215.697l0.176,5.644l1.277-0.139l-0.743-5.47
					L261.875,215.697z M257.382,225.717l2.301-0.134l-0.158-10.001l-0.801-0.139L257.382,225.717z M266.442,225.799l1.061-0.087
					l-2.688-10.359l-0.709,0.107L266.442,225.799z M265.126,215.284l2.849,10.414l0.682,0.058c0,0-2.599-10.656-2.685-10.626
					C265.884,215.161,265.126,215.284,265.126,215.284z M266.369,214.954l2.813,10.654l1.06-0.457c0,0-2.182-5.145-3.157-10.47
					L266.369,214.954z M257.81,214.574c0,0,3.798-3.197,4.177-7.336c-0.055,2.992-4.948,7.109-5.064,7.138L257.81,214.574z
					 M262.204,207.256c0,0-0.123,4.213-4.002,7.43c0.875,0.395,3.254,0.391,3.254,0.391L262.204,207.256z M262.222,215.023
					l2.817-0.332c-1.982-0.754-2.705-7.406-2.705-7.406L262.222,215.023z M265.443,214.57l1.498-0.349c0,0-2.763-1.192-4.359-6.547
					C263.313,212.296,265.443,214.57,265.443,214.57z"/>
			</g>
			<path fill="#FFFFFF" d="M263.924,203.967c0.007-0.027,0.041-0.331,0.041-0.331l0.194,0.259l0.34-0.143l-0.108,0.275l0.414,0.151
				l-0.474,0.115l0.018,0.36l-0.283-0.25l-0.363,0.243l0.135-0.417l-0.421-0.217L263.924,203.967z"/>
		</g>
		<path fill="#FFFFFF" d="M263.062,215.755c0.068,0.018,0.592-0.121,0.592-0.121l2.374,10.052l-0.615,0.134
			c0,0,0.218-2.549-0.92-4.015l-0.695-0.456L263.062,215.755z"/>
		<path fill="#FFFFFF" d="M260.64,215.636l0.502,0.024l0.139,6.029c0,0-1.131,0.5-1.191,2.139
			C260.033,225.469,260.64,215.636,260.64,215.636z"/>
	</g>
	<path fill="#245977" d="M217.515,246.501c0,0,12.41-6.408,18.096-9.792c6.121-3.645,18.424-14.126,19.785-14.709
		c1.357-0.585,8.047-0.047,8.685,0.039c0.644,0.085,3.497-0.411,3.497-0.411s0.838,0.692-0.371,1.081
		c-1.207,0.39-3.503,1.211-3.503,1.211l0.354,0.926c0,0,5.393,3.149,6.764,2.467c1.372-0.682,1.786-0.183,1.786-0.183l-1.044,1.278
		l-1.952,0.365c0,0-6.382-2.805-8.997-2.389c-2.616,0.414-8.543,5.025-10.558,6.673c-2.014,1.646-16.208,10.992-18.833,12.43
		c-2.629,1.437-11.72,7.122-13.53,7.259C215.882,252.885,217.515,246.501,217.515,246.501z"/>
	<path fill="#245977" d="M94.963,271.722l-43.785,9.512l-2.268-15.74l1.354-9.994l-13.352-2.417l8.177,8.18l-3.5,25.863
		c0,0-1.01,3.854,2.324,4.485c3.334,0.63,49.617-7.793,49.617-7.793s-4.117,4.946-11.414,9.544
		c-7.301,4.597-28.354,18.769-28.354,18.769l-17.331-18.05l-8.611-12.278l-15.138,3.796l14.646,5.294L46,319.937
		c0,0,3.188,5.143,6.298,4.282c6.138-1.7,44.506-18.853,44.506-18.853l3.613-1.742L94.963,271.722z"/>
	<path fill="#FF0000" d="M143.938,278.517c-2.449-4.4-5.265-8.615-7.939-12.873c-0.605,0.265-2.157,0.701-2.157,0.701
		c-3.18,0.699-6.59,0.188-9.874-0.071c-4.856-0.386-9.787-0.596-14.607-1.483c-7.682-1.41-14.483-5.229-20.987-9.122
		c-0.972,4.751-0.785,9.493-0.842,14.307c-0.126,10.808,1.474,22.453,4.234,32.87c3.513,13.257,12.493,28.023,26.135,32.785
		c1.493,0.521,3.604,1.043,5.24,1.111c0.834-4.299,0.478-8.64,0.91-12.984c0.634-6.389,2.518-12.469,4.056-18.667
		c1.52-6.132,3.555-13.766,7.171-18.958c0.972-1.395,2.317-2.687,3.521-3.91c1.148-1.167,2.519-1.607,3.653-2.54
		c0.293-0.24,0.492-0.504,0.623-0.789C143.285,278.803,143.575,278.675,143.938,278.517z"/>
	<path fill="#FFFFFF" d="M95.312,299.04c7.828-5.025,16.066-9.378,24.463-13.373c4.169-1.982,8.373-3.878,12.609-5.711
		c3.277-1.418,6.589-2.868,9.631-4.756c-0.616-1.026-1.247-2.046-1.886-3.061c-2.832,1.298-5.95,2.085-8.907,2.807
		c-6.245,1.521-12.363,3.454-18.544,5.213c-8.002,2.278-16.042,4.408-24.135,6.334c0.673,5.149,1.656,10.257,2.893,15.118
		C92.713,300.735,94.005,299.876,95.312,299.04z"/>
	<path fill="#FFFFFF" d="M143.749,278.199c-4.166,3.647-9.47,5.839-14.332,8.362c-2.8,1.452-5.449,3.053-7.95,4.974
		c-2.708,2.076-5.321,4.277-7.826,6.594c-6.019,5.571-11.518,11.753-16.383,18.405c3.871,7,9.262,13.285,16.044,17.042
		c0.197-1.596,0.452-3.186,0.765-4.762c2.729-13.73,9.438-26.23,18.187-37.053c0.87-2.033,1.865-3.95,3.022-5.615
		c0.972-1.393,2.319-2.686,3.521-3.908c1.146-1.167,2.519-1.608,3.653-2.54c0.293-0.239,0.494-0.506,0.625-0.789
		c0.209-0.093,0.5-0.22,0.861-0.377C143.875,278.42,143.81,278.309,143.749,278.199z"/>
	<path fill="#FFFFFF" d="M130.479,268.156c-3.604,0.784-7.295,0.982-10.968,0.763c-5.32-0.314-10.563-1.315-15.744-2.531
		c-4.367-1.024-8.735-2.082-13.078-3.195c-1.022-0.263-2.057-0.534-3.094-0.816c-0.1,2.501-0.063,5.012-0.091,7.542
		c-0.02,1.552,0.001,3.122,0.054,4.701c0.019,0.001,0.035,0.001,0.055,0.002c10.204,0.24,20.453-0.092,30.552-1.675
		c4.57-0.714,9.122-1.663,13.599-2.839c1.982-0.522,3.974-1.111,5.901-1.848c-0.471-0.735-0.936-1.47-1.401-2.208
		C134.472,267.058,132.478,267.72,130.479,268.156z"/>
	<path d="M86.976,255.284c-1.766,1.405-1.455,2.668,0.805,3.318c-2.11,0.242-1.807,0.904-2.844,2.238
		c0.836,0.403,1.299,1.306,2.172,1.697c-1.265,0.826-1.686,2.012-2.418,3.33c1.528,0.216,1.469,0.79,2.939-0.04
		c-3.126,1.211-3.628,6.817-0.537,4.73c-1.623,1.502-3.413,5.293-0.112,4.815c-1.152,0.941-1.362,2.135-2.043,3.439
		c0.721-0.308,1.346-0.078,2.274-0.878c-2.03,1.541-1.75,6.004,0.695,4.278c-0.882,1.935-4.518,8.307,0.357,6.032
		c-1.093,2.098-1.872,10.999,1.035,6.627c-0.434,0.97-2.419,3.904-2.137,4.907c0.643,2.294,2.259,2.023,3.358,0.268
		c-1.972,3.314-0.39,10.405,1.649,5.37c-0.922,1.893-3.191,5.195-1.793,7.266c1.442,2.136,3.966,1.509,4.944-0.699
		c-2.402,3.849,0.821,11.854,2.728,6.376c-3.081,4.788,0.926,9.83,3.817,5.105c-2.496,3.356,3.533,8.021,4.433,5.584
		c-2.915,3.267,2.094,7.914,4.002,4.258c-3.304,2.325,2.151,7.16,3.506,2.25c-1.521,2.091-0.975,2.231,1.088,2.933
		c0.466-0.944,2.343-0.695,2.545-1.756c-3.697,4.486,2.149,4.473,3.427,0.391c-1.06,2.188,0.648,3.414,1.99-0.37
		c-0.896,1.535-0.522,1.532,0.165,3.056c0.983-1.359,1.465-2.661,1.01-4.036c-4.251,1.543-10.811-1.249-14.979-5.451
		c-3.331-3.358-4.022-8.742-6.724-12.598c-2.453-3.502-6.005-6.284-8.003-10.066c-3.949-7.476-3.993-19.06-5.066-27.533
		c-1.212-9.575-2.932-15.459-0.518-24.677C88.501,255.971,87.377,255.467,86.976,255.284z"/>
	<path d="M207.123,221.75c-1.073,1.06-2.067,2.67-2.706,4.065c-0.972,2.127-1.056,4.467-2.017,6.556
		c-0.704,1.533-0.912,3.297-1.973,4.653c-0.832,1.065-1.957,1.939-2.253,3.273c-0.139,0.625-0.068,1.202,0.15,1.721
		c0.512-0.292,1.04-0.538,1.619-0.666c2.065-0.452,4.592-0.351,6.524-1.217c1.845-0.828,2.976-2.777,4.254-4.259
		c0.107-0.124,0.209-0.248,0.313-0.37c0.084-0.414,0.195-0.816,0.378-1.229c0.294-0.664,0.809-1.126,1.106-1.76
		c2.079-4.438-1.451-9.714-5.439-11.54l0.63,0.438C207.434,221.451,207.307,221.568,207.123,221.75z"/>
	<path fill="#245977" d="M151.847,243.668c-2.518,2.252-10.782,3.956-14.727,4.807c-5.856,1.262-12.173,2.43-18.085,3.009
		c-7.666,0.751-15.649,0.082-23.386,0.094c-3.791,0.005-11.035,0.947-12.888,4.134c0.232,0.287,0.119,0.376,0.44,0.349
		c1.54-0.132,4.552-1.472,5.397-1.918c-0.874,0.647-3.128,1.582-3.679,2.527c0.071-0.036,0.16,0.232,0.301,0.178
		c0.998-0.388,3.522-1.516,4.067-1.982c-0.176,0.383-2.556,1.647-2.68,2.072c0.149,0.047,0.347,0.299,0.491,0.26
		c1.084-0.288,2.739-0.81,3.833-1.234c0.12-0.122,0.113-0.128-0.014-0.02c-0.463,0.707-1.472,1.642-1.528,2.504
		c-0.014,0.22,0.144,0.269,0.403,0.291c1.034-0.925,3.693-2.138,5.558-2.57c2.12-0.491,5.312-0.16,7.472,0.016
		c5.681,0.467,11.509,1.9,17.233,2.675c0,0,23.741-3.137,33.307-10.166c0.837-0.616,1.672-0.944,2.371-1.644
		C154.13,246.638,151.847,243.668,151.847,243.668z"/>
	<path fill="#FF0000" d="M217.273,245.664c0,0-14.854,3.868-16.76,1.903c-1.903-1.965-2.453-3.199-2.453-3.199
		s-4.366,0.537-4.698-2.319c-0.332-2.858-8.171-5.362-8.171-5.362l-9.266-2.613l-25.007,8.482l3.877,7.54l13.583-4.005
		c-12.217,7.433-18.976,12.101-31.444,19.093c-0.211,0.119-0.426,0.225-0.641,0.326c2.678,4.257,5.49,8.477,7.943,12.877
		c4.489-1.958,8.759-3.284,11.138-3.678c2.888-0.477,27.137-12.83,30.023-13.309c2.888-0.477,3.765,2.682,6.3-0.016
		c2.534-2.698,3.733-5.139,4.616-5.238c0.883-0.098,23.322-2.272,23.322-2.272L217.273,245.664z"/>
	<path fill="#FFFFFF" d="M210.02,225.757l-0.604,4.469c0,0,0.772,2.029,1.204,2.592c0.428,0.564-1.513,1.019-1.513,1.019
		s-0.582,2.032-0.704,3.162c-0.071,0.677-0.212,1.023-0.499,1.29c-0.668,0.614-4.542-1.359-5.98-0.322
		c-1.966,1.418-3.862,6.401-3.862,6.401s-0.622,2.992-2.696,2.502c-2.075-0.49-5.343-6.623-5.343-6.623l8.991-14.125l9.456-2.599
		L210.02,225.757z"/>
	<path d="M208.953,224.273c0,0,0.504-0.699,0.211-1.638c-0.305-0.974-2.015-2.483-2.015-2.483s-6.924-3.634-11.257-1.521
		c-4.331,2.111-10.683,9.176-12.051,9.328c-1.371,0.151-7.258-3.679-8.614-4.876c-1.355-1.193-4.697-2.658-5.428-2.25
		c-0.727,0.407-1.957,0.747-2.595,0.492c-0.639-0.255-1.147-1.497-4.082-2.235c-2.935-0.738-4.962-3.196-6.621-0.895
		c-1.661,2.299-3.65,4.559-3.657,7.087c-0.003,2.529,2.198,6.198,3.411,7.205c1.212,1.006,1.716,2.255,3.592,3.352
		c1.874,1.096,6.111,2.175,9.602,1.299c3.49-0.877,7.668-2.167,9.798-1.541c2.127,0.625,4.876,1.501,7.291,2.333
		c2.417,0.834,4.349,0.252,5.408-0.109c1.061-0.363,5.008-5.253,8.007-7.784C202.95,227.509,208.953,224.273,208.953,224.273
		L208.953,224.273l-0.281-0.404L208.953,224.273"/>
	<path fill="#FF0000" d="M206.656,230.243c0.626,0.988,0.003,1.74-0.284,2.021c-0.475,0.467-1.646,0.452-2.095-0.074
		c-0.433-0.509-0.314-1.737,0.189-2.134C205.094,229.57,206.411,229.854,206.656,230.243z"/>
	<path fill="#245977" d="M206.462,228.48c0.426-0.025,0.851-0.275,1.289-0.303c0.468-0.027,0.923-0.01,1.394,0.076
		c0.011,0.085-0.007,0.224-0.041,0.304c-0.933-0.079-2.646,0.068-2.548,0.043"/>
	<path fill="#FF0000" d="M208.155,235.229c-0.479-0.033-1.225-0.179-1.48-0.624c0.18,0.498,0.583,0.714,1.063,0.927
		c0.207,0.094,0.829,0.234,0.829,0.234s0.366-0.419-0.074-0.538L208.155,235.229z"/>
</g>
</svg>
