<?xml version="1.0" encoding="utf-8"?>
<!-- Generator: Adobe Illustrator 16.0.4, SVG Export Plug-In . SVG Version: 6.00 Build 0)  -->
<!DOCTYPE svg PUBLIC "-//W3C//DTD SVG 1.1//EN" "http://www.w3.org/Graphics/SVG/1.1/DTD/svg11.dtd">
<svg version="1.1" id="Ebene_1" xmlns="http://www.w3.org/2000/svg" xmlns:xlink="http://www.w3.org/1999/xlink" x="0px" y="0px"
	 width="283.46px" height="425.2px" viewBox="0 0 283.46 425.2" enable-background="new 0 0 283.46 425.2" xml:space="preserve">
<g>
	<path fill="#245977" d="M124.893,272.502l-4.087-16.44l-13.323-6.736c0,0-5.801,17.423-5.084,24.394
		c0.715,6.971,3.495,19.872,3.495,19.872l5.116,28.031l9.018,56.248l-9.249,3.083l-10.792,6.937l30.434-1.794l1.956-5.546
		l-2.349-6.042l-1.731-21.3l-3.483-20.39l-1.016-11.149l-1.371-20.25l-1.459-20.667L124.893,272.502z"/>
	<polygon fill="#245977" points="118.3,271.133 149.102,253.905 159.339,233.05 148.062,234.709 108.734,245.673 106.253,272.211 	
		"/>
	<path fill="#245977" d="M139.901,241.145l1.842,8.64l10.517,0.627l15.09-5.734c0,0,47.101-33.798,49.52-34.483
		c2.415-0.684,16.461-16.521,16.461-16.521l5.75-3.33l7.604-6.316l2.208-6.538l-10.584,1.301l-7.745,7.739l-4.478,2.161
		l-27.631,21.601l-38.443,18.19c0,0-7.345-1.778-7.866-1.303c-0.524,0.474-10.402,6.607-10.447,7.041
		C141.655,234.653,139.901,241.145,139.901,241.145z"/>
	<path fill="#FFFFFF" d="M101.547,172.418c0,0,37.693-12.862,40.232-8.148c2.539,4.714,3.679,29.819,7.25,47.496
		c3.116,15.412,4.35,21.03,4.35,21.03l3.99,15.953l-2.898,5.076l-6.526-11.966c0,0-10.88-12.326-21.755-5.438
		c-10.877,6.89-12.51,16.196-12.51,16.196l9.607,14.26l1.035,5.625c0,0-18.716-18.74-20.043-19.432
		c-2.729-1.421-2.382-6.134-2.382-6.134s8.421-32.094,5.156-40.796c-3.264-8.701-9.788-26.466-9.788-26.466L101.547,172.418z"/>
	<path fill="#245977" d="M138.9,182.094l6.327-4.62c0,0,2.463,1.649,7.672-19.719c1.914-7.853-4.464-15.839-3.583-25.433
		c1.521-16.536-3.581-37.888-3.581-37.888s5.882,2.893,16.888,11.419c11.001,8.523,21.491,13.493,21.491,13.493l8.188,11.418
		l28.466,12.314l-7.166-10.381l-19.392-15.62c0,0-18.426-24.096-26.962-28.784c-8.536-4.685-24.485-15.754-24.485-15.754
		s-15.874,9.895-17.718,16.866c-2.531,9.566-6.644,15.259-7.769,27.428c-0.818,8.835-2.128,11.058-2.031,18.08
		c0.078,6.178,0.302,10.385,0.302,10.385s1.532-9.863-18.42-24.913C85.853,111.881,72.045,92.76,72.045,92.76
		s14.84-2.078,28.144-9.861c13.302-7.788,33.768-22.124,33.768-22.124l6.138,3.113l33.275-24.466l-40.427,11.417l-57.31,22.318
		l-13.301,9.339l-7.621,9.653c0,0,13.759,42.765,21.936,57.891c3.957,7.319,47.196,40.754,30.189,29.584L138.9,182.094z"/>
	<path fill="#FFFFFF" d="M120.229,110.648l42.395,5.396l-7.71,20.811l-0.768,15.417c0,0,4.625,13.875-0.772,20.041
		c-5.396,6.166-13.699,9.782-13.699,9.782l-34.47,2.852l-51.265-24.195c0,0,12.332-22.354,26.208-35.458
		C94.021,112.19,120.229,110.648,120.229,110.648z"/>
	<g>
		<polygon fill="#FF0000" points="141.779,164.27 142.644,171.396 99.636,186.112 98.238,181.876 		"/>
		<polygon fill="#FF0000" points="142.992,175.706 142.675,183.146 102.673,191.849 100.614,187.891 		"/>
		<polygon fill="#FF0000" points="143.467,189.953 144.1,196.125 105.363,201.822 103.938,196.439 		"/>
		<polygon fill="#FF0000" points="145.365,201.825 147.107,207.206 108.528,213.853 107.735,207.521 		"/>
		<path fill="#FF0000" d="M151.662,216.92c0,0-43.753,4.629-43.594,7.791c0.01,0.184,0.515-5.706,0.515-5.706l40.446-7.24
			L151.662,216.92z"/>
		<polygon fill="#FF0000" points="152.836,222.546 107.896,234.748 107.896,230.315 150.775,219.099 		"/>
		<polygon fill="#FF0000" points="107.579,238.546 152.486,226.499 152.865,231.434 105.926,245.917 		"/>
	</g>
	<g>
		<polygon fill="#FF0000" points="65.539,160.6 67.26,156.295 70.99,162.035 		"/>
		<polygon fill="#FF0000" points="71.277,151.705 74.148,147.112 77.303,153.138 		"/>
		<polygon fill="#FF0000" points="78.812,141.121 82.923,134.542 85.8,143.998 		"/>
		<polygon fill="#FF0000" points="87.855,130.02 94.845,125.086 93.609,133.721 		"/>
		<polygon fill="#FF0000" points="100.6,122.21 108.822,120.567 105.533,127.965 		"/>
		<polygon fill="#FF0000" points="116.222,118.509 123.906,119.555 117.454,127.144 		"/>
		<polygon fill="#FF0000" points="133.076,118.509 141.708,118.92 135.954,127.554 		"/>
		<polygon fill="#FF0000" points="152.396,120.155 159.388,125.498 151.164,131.254 		"/>
		<polygon fill="#FF0000" points="170.895,127.554 174.599,136.188 165.145,136.188 		"/>
		<polygon fill="#FF0000" points="183.644,143.998 186.517,153.041 174.599,150.576 		"/>
		<polygon fill="#FF0000" points="63.602,165.786 63.602,171.13 70.176,169.076 		"/>
		<polygon fill="#FF0000" points="62.88,177.346 62.88,185.055 69.817,178.888 		"/>
	</g>
	<polygon fill="#FF0000" points="146.414,239.405 154.193,235.23 155.339,239.816 149.115,243.727 	"/>
	<path fill="#FFFFFF" d="M116.048,179.432"/>
	<polygon fill="#FF0000" points="105.235,250.864 108.631,248.068 110.361,253.329 107.703,256.176 105.046,252.95 	"/>
	<polygon fill="#FF0000" points="110.896,259.17 113.364,261.828 115.249,257.618 113.741,255.755 	"/>
	<path fill="none" stroke="#000000" stroke-width="1.7405" d="M117.803,265.538"/>
	<polygon fill="#FF0000" points="124.55,272.786 126.449,270.889 124.739,267.664 121.741,269.774 	"/>
	<polygon fill="#FF0000" points="120.299,268.633 123.365,266.877 121.056,263.321 118.4,266.356 	"/>
	<polygon fill="#FF0000" points="117.501,265.303 119.02,262.266 117.501,260.177 114.468,262.835 	"/>
	<path fill="#FFFFFF" d="M118.976,239.208c0,0-6.547,15.232-3.727,18.817c1.353,1.722,4.815,5.509,8.009,10.039
		c3.465,4.904,15.564,7.022,15.564,7.022l10.059-9.49c0,0,1.183-8.132-0.234-15.55c-1.424-7.418-12.188-14.099-12.188-14.099
		s-8.026-4.097-10.893-3.26C122.699,233.526,118.976,239.208,118.976,239.208z"/>
	<path fill="#FF0000" d="M147.974,257.209c0,0.986-0.821,1.786-1.835,1.786c-1.018,0-1.842-0.8-1.842-1.786
		c0-0.988,0.824-1.789,1.842-1.789C147.152,255.42,147.974,256.221,147.974,257.209z"/>
	<ellipse fill="#FF0000" cx="129.193" cy="267.792" rx="1.838" ry="1.787"/>
	<g>
		<path fill="#245977" d="M138.256,253.57c0,0,0.568-2.178,2.137-3.149c1.6-0.993,3.311-0.552,3.311-0.552s-0.48,3.079-1.748,3.585
			C140.686,253.96,138.256,253.57,138.256,253.57z"/>
		<path fill="#FFFFFF" d="M143.128,251.798c0,1.083-0.808,1.96-1.796,1.96c-0.997,0-1.805-0.877-1.805-1.96
			c0-1.086,0.808-1.964,1.805-1.964C142.32,249.834,143.128,250.711,143.128,251.798z"/>
		<ellipse cx="141.331" cy="252.176" rx="1.303" ry="1.337"/>
	</g>
	<g>
		<path fill="#245977" d="M122.315,264.415c0,0,0.269-2.719,2.171-3.604c1.896-0.885,4.157-0.447,4.157-0.447
			s-0.884,3.167-2.149,3.673C125.227,264.543,122.315,264.415,122.315,264.415z"/>
		<ellipse fill="#FFFFFF" cx="125.345" cy="262.391" rx="2.243" ry="2.223"/>
		<ellipse cx="125.538" cy="262.756" rx="1.446" ry="1.464"/>
	</g>
	<path d="M136.801,268.339c0,0,3.064,0.303,3.842-0.43c0.773-0.733,1.034-3.022,1.164-3.193c0.129-0.174,0.088-0.648,0.088-0.648
		s-0.218,0.777-1.081,1.598c-0.863,0.819-1.854,1.596-2.891,1.724c-1.038,0.129-2.073,0.477-1.854,0.649
		C136.284,268.209,136.801,268.339,136.801,268.339z"/>
	<polygon fill="#FF0000" points="150.67,246.669 156.207,244.231 157.052,247.7 152.268,250.046 	"/>
	<g>
		<g>
			<path d="M115.023,255.838l4.223-4.792l1.024-5.479l2.285,3.654l1.483-6.847l2.964,3.537l5.821-7.076c0,0,1.713-1.255,3.425,0.685
				c1.71,1.941,2.51,0.797,2.623,0.456c0.115-0.343,1.657-0.378,1.657-0.378s3.26,2.468,4.174,3.837
				c0.908,1.371,3.332,0.501,3.332,0.501l0.67-4.839c0,0-13.553-16.456-18.688-14.516c-2.236,0.845-10.203,0.762-13.513,2.503
				c-4.287,2.257-7.515,8.309-8.678,10.178c-2.052,3.31-1.077,13.813-0.163,17.35c0.91,3.539,5.875,3.964,6.561,4.991
				c0.684,1.027,1.142,4.679-0.913,4.224c-2.056-0.457-2.855,1.599-2.056,1.826c0.801,0.227,4.908,0.57,4.908,0
				c0-0.571-0.113-5.138,0-5.593C116.277,259.604,115.023,255.838,115.023,255.838z"/>
		</g>
		<path d="M116.056,259.998c0.392-0.389,0.411-1.397,0.599-1.934c0.204-0.595,0.492-1.224,0.801-1.772
			c0.676-1.204,1.861-1.947,2.552-3.116c0.856,0.328,0.602,1.868,0.487,2.555c-0.121,0.736-0.387,1.306-0.726,1.972
			c0.885-0.888,1.907-2.093,2.503-3.209c0.434-0.815,0.644-1.668,0.898-2.544c0.121-0.405,0.273-1.082,0.701-1.27
			c0.183,0.545,0.559,0.86,1.167,0.763c0.106-0.607,0.356-1.719,0.843-2.149c0.617,0.426,1.683,0.28,2.39,0.641
			c-0.095-0.604-0.138-1.189-0.106-1.805c0.066-0.003,0.138-0.016,0.204-0.017c0.333-1.103,3.545-2.093,4.284-1.4
			c0.221-0.499-0.275-0.999-0.215-1.526c0.025-0.027,0.111-0.009,0.148-0.019c0.032-0.054,0.015-0.109,0.08-0.147
			c0.405,0.376,0.762,0.756,1.21,1.082c-0.034-0.713,0.268-1.642,0.394-2.361c0.23,0.086,0.213,0.36,0.383,0.559
			c0.197-0.303,0.24-0.908,0.62-1.108c0.546-0.287,1.546,0.14,2.095,0.28c0.562,0.146,1.079,0.22,1.557,0.555
			c0.445,0.31,0.793,0.759,1.259,1.05c-0.204-0.392-0.411-1.399-0.376-1.88c0.052-0.68,0.891-0.991,1.477-1.125
			c0.268-0.062,0.417,0.06,0.638,0c0.274-0.077,0.388-0.34,0.665-0.434c0.393-0.132,0.983,0.004,1.335,0.097
			c0.278,0.077,0.123,0.306,0.456,0.126c0.113-0.06,0.225-0.337,0.264-0.452c0.723-2.145-1.579-3.978-3.257-4.587
			c-2.896-1.05-6.194-1.433-9.218-0.815c-2.864,0.585-5.791,1.303-8.387,2.691c-2.227,1.191-4.163,2.511-5.846,4.438
			c-1.139,1.302-2.048,2.787-2.935,4.271c-0.528,0.888-1.115,1.985-1.062,3.062c0.079,1.487,0.767,2.238,0.812,3.727
			c0.017,0.598-0.391,1.04-0.516,1.667c-0.114,0.583,1.235,1.777,1.199,2.36c-0.056,0.859,1.108,1.059,0.619,1.984
			c-0.012-0.076,0.035-0.09,0.059-0.152"/>
	</g>
	<path d="M146.888,240.708c0.792,2.081,2.007,5.066,1.624,7.333c-2.631-1.167-3.764-5.646-4.352-8.041
		c1.481-0.238,2.8,0.078,3.097,1.628"/>
	<path d="M116.266,258.067c0.877,0.371,1.189,1.579,1.535,2.35c0.433,0.977,1.034,1.978,1.735,2.828
		c0.758,0.921,1.255,1.307,0.99,2.59c-0.234,1.158-0.944,2.323-2.126,2.692c0.471-1,0.534-2.658,0.107-3.708
		c-0.631,1.794-1.652,2.642-3.639,1.936c1.5-2.564,0.795-5.699,0.946-8.671c0.375-0.121,0.579,0.001,0.804,0.218"/>
</g>
</svg>
