<?xml version="1.0" encoding="utf-8"?>
<!-- Generator: Adobe Illustrator 16.0.4, SVG Export Plug-In . SVG Version: 6.00 Build 0)  -->
<!DOCTYPE svg PUBLIC "-//W3C//DTD SVG 1.1//EN" "http://www.w3.org/Graphics/SVG/1.1/DTD/svg11.dtd">
<svg version="1.1" id="Ebene_1" xmlns="http://www.w3.org/2000/svg" xmlns:xlink="http://www.w3.org/1999/xlink" x="0px" y="0px"
	 width="283.46px" height="425.2px" viewBox="0 0 283.46 425.2" enable-background="new 0 0 283.46 425.2" xml:space="preserve">
<g>
	<path fill="#245977" d="M143.25,376.73c0-2.058-0.005-3.853,0.604-5.811c0.681-2.188,1.082-4.301,1.587-6.537
		c0.954-4.23,1.359-9.341-1.575-12.923c-1.084-1.324-2.763-2.126-3.912-3.332c-1.17-1.228-2.002-2.679-3.131-3.934
		c-0.58,0.266-1.165,1.273-1.666,1.736c-0.527,0.487-1.06,1.035-1.625,1.472c-1.531,1.185-3.659,1.999-5.019,3.33
		c-0.858,0.841-0.674,1.615-0.101,2.567c0.7,1.165,1.558,2.159,1.92,3.502c0.559,2.062,0.669,4.351,0.88,6.471
		c0.28,2.796,0.283,5.784-0.037,8.58c-0.211,1.845-0.953,4.656-2.482,5.932c-1.347,1.125-3.354,2.84-5.187,3.11
		c0.072,1.205-0.85,2.43,0.395,3.318c0.89,0.635,2.128,0.716,3.155,0.999c1.381,0.38,2.755,0.567,4.165,0.803
		c1.833,0.306,3.762,0.936,5.639,0.78c1.808-0.15,4.191-1.207,5.426-2.53C143.886,382.553,143.25,378.875,143.25,376.73z"/>
	<path d="M56.684,214.795c-0.02,15.711,6.634,32.029,10.392,47.133c3.425,13.782,10.875,27.428,17.071,39.683
		c4.51,8.925,11.991,18.271,17.679,26.647c1.996,2.938,4.041,5.842,6.158,8.692c4.632,6.232,9.705,13.224,16.251,17.611
		c7.119,4.771,15.286-3.79,15.58-10.939c0.117-2.857-3.88-5.16-5.749-6.973c-3.596-3.488-6.206-8.078-8.666-12.406
		c-10.044-17.666-13.331-38.033-20.68-56.781c4.663,8.318,15.246,20.879,19.354,29.516c4.789,10.068,9.732,20.312,15.08,30.124
		c1.772,3.252,3.922,5.661,6.277,8.396c1.363,1.582,2.107,3.801,3.144,5.609c1.212,2.117,2.482,4.201,3.669,6.333
		c1.066,1.918,1.938,4.009,3.254,5.749c1.23,1.625,2.845,1.149,4.851,1.149c3.516,0,7.137-0.264,10.642-0.02
		c3.321,0.231,6.566,0.974,9.808-0.372c0.964-0.4,1.831-1.002,2.795-1.396c0.908-0.372,2.208-0.195,3.001-0.611
		c1.503-0.789,0.85-2.605,0.353-3.895c-1.519-3.94-4.048-7.689-6.128-11.354c-3.546-6.245-7.104-12.527-11.015-18.553
		c-3.897-6.01-7.5-12.727-11.001-19.1c-7.022-12.774-15.596-25.498-21.41-39.1c-2.787-6.517-5.445-12.801-8.074-19.417
		c-3.283-8.271-7.984-13.131-15.946-17.393c-14.051-7.519-41.075-14.688-55.418-6.498c0.35-0.224,0.697-0.452,1.046-0.675"/>
	<path fill="#FF0000" d="M158.338,122.755c0,0,10.675,7.787,11.367,13.396c0.705,5.609,3.662,28.181,5.743,32.328
		c2.069,4.141-27.815,49.25-27.815,49.25L39.07,183.322l-12.566-3.31l-1.888-21.019l12.878-20.896l37.874-42.71
		c0,0,10.983-1.422,12.632-2.178c1.633-0.771,13.881,8.531,13.881,8.531l4.555-8.848l7.864,8.946l9.057,9.073l-8.056,41.793
		l8.489-34.281l2.943-9.939l14.42-3.313l4.634,10.869L158.338,122.755z"/>
	<path fill="#245977" d="M103.706,86.867l4.054,13.342l13.015,15.396l3.223-1.53l7.54-3.137l14.992-7.494
		c2.576-7.729-1.552-31.667-1.552-31.667l-20.459-6.246l-15.228,6.935L103.706,86.867z"/>
	<path d="M118.317,65.653c4.885-0.344,9.835-0.219,14.647,0.776c5.965,1.247,11.558,3.422,16.92,6.147
		c-0.154-11.325-7.004-21.914-18.738-24.67c-14.036-3.279-22.805,6.864-22.738,20.229C111.645,67.024,114.81,65.889,118.317,65.653z
		"/>
	<path fill="#FF0000" d="M149.862,70.906c0.008-0.055,0-0.115,0.008-0.18c-5.782-3.035-11.889-5.494-18.341-6.511
		c-4.736-0.742-9.643-1.057-14.404-0.422c-3.722,0.499-7.112,1.97-10.667,3.079c-2.891,2.537-5.385,6.281-7.1,9.416
		c-1.163,2.143-0.639,6.507-0.184,9.104c0.766,1.016,1.191,1.331,1.898,2.406c2.075,3.074,1.957,6.76,4.17,4.973
		c1.259-1.025,0.436-5.073,1.399-6.703c1.008-1.689,2.295-3.306,3.493-4.847c1.2-1.543,2.841-4.119,4.268-5.088
		c0.088,0.225,0.406,0.516,0.507,0.785c2.171-0.527,4.841-1.81,6.784-2.882c0.935-0.502,1.67-1.672,2.714-1.559
		c1.304,0.147,1.706,2.018,3.229,1.875c2.09-0.211,3.296-3.942,5.453-4.259c2.926-0.416,7.951,2.71,10.151,4.576
		c4.061,3.473,2.965,9.351,4.192,14.011c0.736,2.818-2.163,10.008,1.868,9.627c2.892-0.262,2.7-5.586,4.209-7.562
		c2.318-3.057,2.318-3.057,2.14-8.503C155.49,77.101,153.939,73.973,149.862,70.906z"/>
	<polygon points="95.062,183.698 82.938,181.674 83.146,180.026 94.275,180.822 	"/>
	<path fill="#FFFFFF" d="M119.691,86.876c0,0-4.234-3.262-5.722-2.629c-1.494,0.634-1.655,1.717-1.655,1.717
		s0.154,2.098,2.229,2.363C116.722,88.594,119.691,86.876,119.691,86.876z"/>
	<path fill="#FFFFFF" d="M138.379,89.462c0,0-0.78-1.599-1.735-2.191c-1.199-0.731-2.62-0.615-3.187-0.152
		c-1.272,1.009-1.125,2.098-1.125,2.098s1.213,2.222,3.31,2.166C138.15,91.298,138.379,89.462,138.379,89.462z"/>
	<path d="M115.286,85.998c-0.103,0.765-0.839,1.294-1.646,1.203c-0.788-0.102-1.369-0.806-1.281-1.57
		c0.088-0.76,0.831-1.292,1.626-1.192C114.794,84.542,115.375,85.237,115.286,85.998z"/>
	<path d="M135.305,88.971c-0.103,0.76-0.839,1.299-1.635,1.202c-0.808-0.11-1.384-0.809-1.294-1.567
		c0.096-0.754,0.823-1.295,1.634-1.198C134.812,87.508,135.394,88.216,135.305,88.971z"/>
	<path d="M111.608,81.918c0,0,1.516-4.468,4.893-4.159L111.608,81.918z"/>
	<path d="M137.555,79.977c0,0,4.539,1.308,4.394,4.687L137.555,79.977z"/>
	<path fill="#FF0000" d="M117.691,103.698c1.949,0.821,6.233-0.688,6.233-0.688l1.837,0.512l1.796-0.708
		c0,0,0.824,1.813,3.898,0.423c2.082-0.93-5.156,3.938-6.672,3.927C123.511,107.151,115.794,102.901,117.691,103.698z"/>
	<g>
		<g>
			<path fill="#FFFFFF" d="M121.855,158.712l4.083,1.356l-2.045-0.997l4.995-0.898l0.485,3.044l3.422,1.123l-1.574-0.511
				l4.119-0.777l-0.169,2.078l2.766,1.879l-1.868-1.269l4.767,0.309l-0.396,2.676l2.133,1.825l-0.793-0.674l3.397-0.452l0.154,1.784
				l2.11,1.315l-0.514-0.322l2.825,0.484l-0.235,2.012l2.391,1.4l-0.626-0.536l2.635-0.265l-0.67,2.035l1.479,1.15l-0.309-0.245
				l2.936,0.583l-0.56,1.669l1.507,1.817l-0.278-0.536l2.536-0.644l-0.013,1.922l0.853,1.913l-0.242-0.542l2.546,0.359l-0.772,2.316
				c0,0,1.162,0.603,1.561,0.515c0.402-0.079,0.402,1.038,0.402,1.038l1.841-0.282l-0.493,1.485l2.053,0.176l-0.935,0.93
				l1.426-0.021l-0.426,1.286l1.892-0.052l-0.56,1.683l1.538-0.688l-45.193,56.411l-3.921,5.284l-0.347-1.476l-1.528,0.865
				l-0.229-1.566l-0.963,0.668l0.367-1.869l-1.264,0.448l0.33-1.38l-1.67,0.56l0.139-1.563l-1.633,0.831l0.324-2.133l-1.192,0.966
				l-0.22-1.939l-1.604-0.044l-0.618-1.563l-0.31,0.896l-0.286-2.042l-1.142,1.201l-0.271-2.167l-1.61,0.658l-0.854-1.489
				l-0.846,0.231l-0.597-1.485l-0.793,0.522l-0.626-1.496l-0.721,1.038l-0.112-1.176l-1.926,1.024l-0.007-1.923l-1.097,1.048
				l-0.287-1.879l-0.942,1.465l-0.021-1.783l-0.53,1.597l-0.368-1.773l-0.338,1.01l-0.501-1.413l-1.353,0.918l-0.044-1.377
				l-1.088,1.408l-0.147-1.455l-0.429,1.271L121.855,158.712z"/>
			<polygon fill="#FFFFFF" points="68.416,225.042 48.315,217.671 72.19,144.157 75.509,141.978 93.569,149.305 			"/>
			<g>
				<polygon points="88.575,160.408 78.098,156.915 79.077,153.999 89.965,158.383 				"/>
				<polygon points="79.372,190.291 68.24,186.604 68.991,184.376 80.297,187.479 				"/>
				<polygon points="77.761,195.123 66.637,191.437 66.576,188.944 78.504,192.906 				"/>
				<polygon points="74.191,205.893 63.06,202.2 63.605,200.583 74.927,203.655 				"/>
				<polygon points="72.389,211.309 61.26,207.612 62.626,205.578 73.125,209.074 				"/>
				<polygon points="70.329,217.487 59.358,213.364 60.101,211.123 71.219,214.819 				"/>
				<polygon points="84.727,175.956 73.065,172.084 73.772,169.964 84.896,173.65 				"/>
				<polygon points="82.131,181.958 71.515,178.429 71.904,175.583 83.021,179.276 				"/>
				<polygon points="86.484,170.652 75.016,166.2 75.729,164.07 87.559,167.404 				"/>
			</g>
			<polygon points="74.927,229.59 68.093,224.232 93.569,149.305 101.963,148.224 			"/>
			<g>
				<polygon points="125.938,160.069 98.094,234.905 122.305,158.862 				"/>
				<polygon points="130.235,161.5 132.796,162.341 98.094,234.905 				"/>
				<polygon points="136.069,163.741 137.938,165.01 99.183,234.566 				"/>
				<polygon points="140.439,166.726 142.572,168.55 102.19,231.582 				"/>
				<polygon points="145.331,169.208 147.384,170.523 107.497,227.372 				"/>
				<polygon points="149.518,172.698 151.908,174.098 114.198,220.658 148.892,173.091 				"/>
				<polygon points="115.927,222.659 154.726,176.482 153.247,175.333 				"/>
				<polygon points="156.793,178.49 158.3,180.307 126.256,215.066 				"/>
				<polygon points="160.847,181.729 161.397,182.963 130.442,214.961 				"/>
				<polygon points="164.489,185.611 141.924,205.995 163.414,185.322 				"/>
			</g>
			<polygon points="121.855,158.712 120.716,156.522 101.963,148.224 74.927,229.59 94.76,236.492 			"/>
			<g>
				<polygon points="135.076,266.167 122.113,252.861 171.228,191.166 187.185,208.277 				"/>
				<g>
					<path fill="#FFFFFF" d="M172.257,202.156c-0.177,0.577-0.743,0.881-1.236,0.723c-0.501-0.167-0.757-0.756-0.574-1.313
						c0.192-0.579,0.75-0.898,1.243-0.732C172.206,200.993,172.448,201.597,172.257,202.156z"/>
					<path fill="#FFFFFF" d="M175.096,203.095c-0.183,0.58-0.749,0.885-1.241,0.723c-0.509-0.163-0.76-0.756-0.567-1.322
						c0.184-0.56,0.742-0.889,1.243-0.723C175.03,201.936,175.288,202.529,175.096,203.095z"/>
					<path fill="#FFFFFF" d="M177.518,206.182c-0.192,0.556-0.751,0.882-1.244,0.719c-0.517-0.163-0.758-0.763-0.58-1.333
						c0.198-0.57,0.749-0.875,1.258-0.712C177.449,205.019,177.7,205.612,177.518,206.182z"/>
					<path fill="#FFFFFF" d="M175.493,209.21c-0.183,0.57-0.742,0.885-1.243,0.709c-0.499-0.153-0.758-0.744-0.566-1.31
						c0.192-0.569,0.742-0.898,1.243-0.725C175.427,208.049,175.685,208.637,175.493,209.21z"/>
					<path fill="#FFFFFF" d="M171.83,206.856c-0.185,0.566-0.742,0.889-1.244,0.723c-0.501-0.163-0.749-0.767-0.566-1.333
						c0.191-0.569,0.743-0.875,1.245-0.722C171.771,205.7,172.021,206.286,171.83,206.856z"/>
					<path fill="#FFFFFF" d="M154.431,230.062c-0.184,0.569-0.749,0.896-1.243,0.729c-0.507-0.169-0.765-0.763-0.573-1.333
						c0.191-0.567,0.743-0.872,1.25-0.712C154.364,228.913,154.622,229.502,154.431,230.062z"/>
					<path fill="#FFFFFF" d="M150.37,231.188c-0.191,0.58-0.759,0.896-1.257,0.742c-0.502-0.173-0.76-0.777-0.567-1.333
						c0.185-0.569,0.751-0.899,1.258-0.735C150.297,230.039,150.548,230.631,150.37,231.188z"/>
					<path fill="#FFFFFF" d="M155.557,234.389c-0.183,0.573-0.735,0.898-1.235,0.732c-0.508-0.173-0.759-0.763-0.574-1.333
						c0.192-0.569,0.743-0.885,1.25-0.719C155.49,233.232,155.755,233.823,155.557,234.389z"/>
					<path fill="#FFFFFF" d="M133.465,249.035c-0.185,0.566-0.735,0.895-1.243,0.729c-0.493-0.163-0.751-0.763-0.566-1.322
						c0.19-0.576,0.744-0.885,1.243-0.733C133.406,247.886,133.648,248.476,133.465,249.035z"/>
					<path fill="#FFFFFF" d="M151.726,235.179c-0.192,0.57-0.737,0.896-1.252,0.729c-0.492-0.173-0.743-0.763-0.561-1.329
						c0.192-0.573,0.743-0.889,1.252-0.716C151.665,234.02,151.915,234.609,151.726,235.179z"/>
					<path fill="#FFFFFF" d="M151.525,238.817c-0.19,0.583-0.75,0.898-1.243,0.733c-0.501-0.159-0.765-0.763-0.574-1.319
						c0.192-0.583,0.752-0.889,1.25-0.732C151.468,237.661,151.716,238.265,151.525,238.817z"/>
					<path fill="#FFFFFF" d="M150.046,243.27c-0.19,0.57-0.749,0.896-1.249,0.726c-0.501-0.165-0.759-0.759-0.566-1.326
						c0.191-0.569,0.743-0.884,1.242-0.711C149.974,242.11,150.231,242.701,150.046,243.27z"/>
					<path fill="#FFFFFF" d="M137.231,252.698c-0.183,0.566-0.75,0.896-1.25,0.719c-0.494-0.163-0.758-0.753-0.567-1.322
						c0.192-0.566,0.759-0.899,1.251-0.733C137.165,251.535,137.422,252.138,137.231,252.698z"/>
					<path fill="#FFFFFF" d="M140.108,250.103c-0.191,0.57-0.751,0.899-1.251,0.723c-0.5-0.164-0.758-0.756-0.567-1.323
						c0.192-0.569,0.752-0.885,1.243-0.735C140.034,248.947,140.3,249.533,140.108,250.103z"/>
					<path fill="#FFFFFF" d="M146.964,246.461c-0.184,0.559-0.736,0.888-1.243,0.712c-0.493-0.153-0.75-0.756-0.558-1.323
						c0.183-0.57,0.733-0.885,1.249-0.722C146.905,245.281,147.155,245.884,146.964,246.461z"/>
					<path fill="#FFFFFF" d="M137.004,244.277c-0.191,0.566-0.751,0.896-1.252,0.732c-0.506-0.176-0.757-0.767-0.566-1.336
						c0.192-0.568,0.751-0.884,1.251-0.708C136.938,243.127,137.194,243.718,137.004,244.277z"/>
					<path fill="#FFFFFF" d="M147.11,237.909c-0.167,0.573-0.733,0.888-1.235,0.726c-0.5-0.167-0.75-0.753-0.573-1.336
						c0.184-0.56,0.759-0.875,1.258-0.719C147.052,236.756,147.318,237.342,147.11,237.909z"/>
					<path fill="#FFFFFF" d="M140.777,242.022c-0.191,0.57-0.743,0.898-1.251,0.712c-0.5-0.152-0.758-0.756-0.566-1.312
						c0.183-0.569,0.743-0.895,1.252-0.732C140.704,240.863,140.962,241.457,140.777,242.022z"/>
					<path fill="#FFFFFF" d="M143.25,237.604c-0.185,0.573-0.751,0.888-1.244,0.712c-0.508-0.163-0.759-0.75-0.566-1.31
						c0.183-0.572,0.735-0.888,1.251-0.735C143.183,236.434,143.434,237.037,143.25,237.604z"/>
					<path fill="#FFFFFF" d="M145.809,241.873c-0.183,0.553-0.749,0.885-1.242,0.719c-0.507-0.166-0.766-0.753-0.567-1.336
						c0.184-0.556,0.743-0.881,1.243-0.719C145.749,240.713,145.994,241.29,145.809,241.873z"/>
					<path fill="#FFFFFF" d="M139.379,246.213c-0.191,0.553-0.742,0.885-1.243,0.72c-0.5-0.167-0.749-0.767-0.572-1.323
						c0.189-0.566,0.749-0.889,1.258-0.733C139.313,245.054,139.571,245.63,139.379,246.213z"/>
					<path fill="#FFFFFF" d="M143.308,246.377c-0.191,0.566-0.742,0.895-1.251,0.732c-0.507-0.176-0.757-0.766-0.566-1.346
						c0.185-0.56,0.751-0.885,1.251-0.718C143.242,245.203,143.49,245.807,143.308,246.377z"/>
					<path fill="#FFFFFF" d="M154.49,226.833c-0.185,0.573-0.735,0.899-1.243,0.732c-0.493-0.173-0.751-0.762-0.566-1.342
						c0.189-0.56,0.75-0.885,1.242-0.709C154.431,225.677,154.683,226.264,154.49,226.833z"/>
					<path fill="#FFFFFF" d="M168.416,205.72c-0.19,0.556-0.757,0.889-1.265,0.722c-0.492-0.176-0.743-0.766-0.551-1.325
						c0.176-0.567,0.742-0.893,1.249-0.73C168.343,204.564,168.593,205.15,168.416,205.72z"/>
					<path fill="#FFFFFF" d="M170.381,211.265c-0.198,0.566-0.765,0.896-1.258,0.719c-0.508-0.16-0.766-0.763-0.582-1.322
						c0.198-0.567,0.759-0.896,1.252-0.732C170.3,210.105,170.558,210.695,170.381,211.265z"/>
					<path fill="#FFFFFF" d="M172.61,213.639c-0.191,0.576-0.758,0.895-1.251,0.729c-0.509-0.176-0.759-0.763-0.573-1.329
						c0.184-0.56,0.749-0.889,1.258-0.726C172.529,212.479,172.787,213.066,172.61,213.639z"/>
					<path fill="#FFFFFF" d="M168.924,215.64c-0.19,0.57-0.757,0.885-1.258,0.718c-0.5-0.162-0.751-0.766-0.56-1.319
						c0.176-0.583,0.743-0.898,1.243-0.736C168.843,214.469,169.107,215.066,168.924,215.64z"/>
					<path fill="#FFFFFF" d="M165.723,210.783c-0.197,0.56-0.749,0.885-1.249,0.718c-0.507-0.172-0.766-0.752-0.575-1.319
						c0.192-0.569,0.743-0.898,1.259-0.735C165.65,209.623,165.899,210.213,165.723,210.783z"/>
					<path fill="#FFFFFF" d="M160.979,213.397c-0.184,0.566-0.752,0.881-1.243,0.723c-0.501-0.166-0.759-0.767-0.56-1.326
						c0.184-0.58,0.728-0.899,1.236-0.732C160.905,212.235,161.162,212.828,160.979,213.397z"/>
					<path fill="#FFFFFF" d="M158.353,218.285c-0.191,0.569-0.751,0.885-1.251,0.722c-0.501-0.176-0.759-0.77-0.566-1.323
						c0.191-0.573,0.751-0.897,1.243-0.731C158.279,217.125,158.537,217.715,158.353,218.285z"/>
					<path fill="#FFFFFF" d="M151.165,225.732c-0.184,0.556-0.742,0.884-1.252,0.722c-0.491-0.166-0.749-0.767-0.551-1.322
						c0.177-0.57,0.743-0.89,1.242-0.722C151.105,224.585,151.363,225.162,151.165,225.732z"/>
					<path fill="#FFFFFF" d="M147.485,233.779c-0.183,0.556-0.742,0.889-1.242,0.722c-0.5-0.173-0.758-0.767-0.566-1.336
						c0.191-0.557,0.744-0.882,1.251-0.718C147.421,232.622,147.677,233.209,147.485,233.779z"/>
					<path fill="#FFFFFF" d="M162.118,217.684c-0.184,0.553-0.743,0.886-1.249,0.72c-0.487-0.167-0.752-0.763-0.566-1.32
						c0.191-0.569,0.757-0.898,1.258-0.735C162.053,216.515,162.31,217.111,162.118,217.684z"/>
					<path fill="#FFFFFF" d="M155.66,223.338c-0.177,0.566-0.751,0.884-1.252,0.718c-0.5-0.159-0.758-0.752-0.558-1.323
						c0.184-0.566,0.743-0.898,1.25-0.722C155.594,222.178,155.852,222.768,155.66,223.338z"/>
					<path fill="#FFFFFF" d="M165.377,214.849c-0.189,0.573-0.756,0.899-1.25,0.732c-0.506-0.175-0.757-0.762-0.565-1.329
						c0.191-0.559,0.742-0.889,1.25-0.726C165.304,213.703,165.562,214.279,165.377,214.849z"/>
					<path fill="#FFFFFF" d="M161.332,222.9c-0.198,0.553-0.759,0.884-1.251,0.718c-0.508-0.172-0.756-0.752-0.567-1.318
						c0.185-0.57,0.736-0.899,1.245-0.736C161.259,221.74,161.515,222.331,161.332,222.9z"/>
					<path fill="#FFFFFF" d="M165.687,220.709c-0.197,0.573-0.764,0.899-1.25,0.723c-0.507-0.164-0.765-0.75-0.566-1.323
						c0.186-0.569,0.735-0.896,1.242-0.719C165.612,219.562,165.87,220.143,165.687,220.709z"/>
				</g>
			</g>
		</g>
		<path fill="#245977" d="M66.274,155.691l-12.184-1.835c0,0-6.956,3.215-7.095,3.344c-4.256,3.853-4.491,3.348-6.875,8.301
			l10.469,10.194l11.227,8.604c0,0,7.197-0.533,7.49-0.655c0.642-0.261-0.161-1.424-0.161-1.424l3.215,1.095l1.61-3.105
			l-3.199-2.835l5.819-0.522l1.287-2.733l-3.96-4.066l6.454,1.082l2.759-4.375l-9.408-6.192L66.274,155.691z"/>
		<path fill="#245977" d="M171.042,233.612l-0.683,7.854l-2.45,1.082l-1.869,3.126l-2.647,3.449l-2.495,0.915l-2.906,2.021
			l-3.721,0.112l-4.039-4.497l-3.922-11.95c0,0-0.561-1.608,0.766-2.316c0.913-0.482,3.561,1.19,3.561,1.19
			s-2.701-3.673-3.068-4.788c-0.368-1.103,3.119-1.327,3.119-1.327l4.039,3.317c0,0-0.971-3.381-0.375-4.856
			c0.602-1.475,2.964-0.593,2.964-0.593l3.039,3.238c0,0-0.677-1.814-0.198-3.039c0.479-1.237,1.963-1.081,1.963-1.081l5.394,3.475
			L171.042,233.612z"/>
	</g>
	<polygon fill="#FFFFFF" points="102.067,147.909 105.619,149.831 73.581,230.737 72.213,228.519 	"/>
	<path fill="#245977" d="M162.767,350.894c-0.316,0-0.336,0-0.057,0c3.123,0,6.304-0.156,9.24-1.243
		c1.247-0.461,2.72-0.836,3.913-0.968c2.984-0.33,3.176-0.888,4.081,2.158c0.706,2.373,1.661,4.664,2.453,7.008
		c1.111,3.295,2.654,6.422,4.2,9.521c1.119,2.244,2.325,4.304,3.233,6.571c0.979,2.442,2.004,5.128,3.551,7.186
		c3.187,4.239,10.016,5.535,14.924,6.131c4.19,0.51,11.292,0.648,12.953,5.251c-0.624,0.791-1.7,0.409-2.583,0.558
		c0.203,0.561,0.487,1.176,0.669,1.738c-1.093,1.401-5.851,1.816-7.457,1.952c-3.303,0.276-6.808,0.102-10.088-0.333
		c-3.857-0.51-7.665,0.753-11.48,0.391c-3.021-0.286-7.564-0.278-9.107-3.442c-1.191-2.44-0.759-5.891-1.523-8.504
		c-1.067-3.647-3.007-7.189-4.206-10.936c-1.507-4.706-3.365-9.26-5.753-13.479c-0.945-1.671-1.833-3.354-2.85-4.968
		c-0.724-1.149-2.113-2.89-2.2-4.208"/>
</g>
</svg>
