<?xml version="1.0" encoding="utf-8"?>
<!-- Generator: Adobe Illustrator 16.0.4, SVG Export Plug-In . SVG Version: 6.00 Build 0)  -->
<!DOCTYPE svg PUBLIC "-//W3C//DTD SVG 1.1//EN" "http://www.w3.org/Graphics/SVG/1.1/DTD/svg11.dtd">
<svg version="1.1" id="Ebene_1" xmlns="http://www.w3.org/2000/svg" xmlns:xlink="http://www.w3.org/1999/xlink" x="0px" y="0px"
	 width="324.603px" height="425.2px" viewBox="0 0 324.603 425.2" enable-background="new 0 0 324.603 425.2" xml:space="preserve">
<pattern  x="-585.777" y="-910.4" width="255.333" height="255.332" patternUnits="userSpaceOnUse" id="Neues_Musterfeld_1" viewBox="0 -255.332 255.333 255.332" overflow="visible">
	<g>
		<polygon fill="none" points="0,0 255.333,0 255.333,-255.332 0,-255.332 		"/>
		<path fill="#FFFFFF" d="M255.333-255.332H0V0h255.333V-255.332z M10.478-230.666c0,1.277-1.035,2.312-2.312,2.312
			s-2.312-1.035-2.312-2.312s1.035-2.312,2.312-2.312S10.478-231.943,10.478-230.666z M10.478-201.166
			c0,1.277-1.035,2.312-2.312,2.312s-2.312-1.034-2.312-2.312s1.035-2.312,2.312-2.312S10.478-202.443,10.478-201.166z
			 M10.478-171.666c0,1.277-1.035,2.312-2.312,2.312s-2.312-1.034-2.312-2.312s1.035-2.312,2.312-2.312
			S10.478-172.943,10.478-171.666z M10.478-142.166c0,1.277-1.035,2.312-2.312,2.312s-2.312-1.034-2.312-2.312
			s1.035-2.312,2.312-2.312S10.478-143.443,10.478-142.166z M10.478-112.666c0,1.277-1.035,2.312-2.312,2.312
			s-2.312-1.034-2.312-2.312s1.035-2.312,2.312-2.312S10.478-113.943,10.478-112.666z M10.478-83.166
			c0,1.277-1.035,2.312-2.312,2.312s-2.312-1.034-2.312-2.312s1.035-2.312,2.312-2.312S10.478-84.443,10.478-83.166z M10.478-53.666
			c0,1.277-1.035,2.312-2.312,2.312s-2.312-1.034-2.312-2.312s1.035-2.312,2.312-2.312S10.478-54.943,10.478-53.666z M10.478-24.166
			c0,1.277-1.035,2.312-2.312,2.312s-2.312-1.034-2.312-2.312s1.035-2.312,2.312-2.312S10.478-25.443,10.478-24.166z
			 M27.978-248.666c0,1.277-1.035,2.312-2.312,2.312s-2.312-1.035-2.312-2.312s1.035-2.312,2.312-2.312
			S27.978-249.943,27.978-248.666z M47.478-230.666c0,1.277-1.035,2.312-2.312,2.312s-2.312-1.035-2.312-2.312
			s1.035-2.312,2.312-2.312S47.478-231.943,47.478-230.666z M47.478-201.166c0,1.277-1.035,2.312-2.312,2.312
			s-2.312-1.034-2.312-2.312s1.035-2.312,2.312-2.312S47.478-202.443,47.478-201.166z M47.478-171.666
			c0,1.277-1.035,2.312-2.312,2.312s-2.312-1.034-2.312-2.312s1.035-2.312,2.312-2.312S47.478-172.943,47.478-171.666z
			 M47.478-142.166c0,1.277-1.035,2.312-2.312,2.312s-2.312-1.034-2.312-2.312s1.035-2.312,2.312-2.312
			S47.478-143.443,47.478-142.166z M47.478-112.666c0,1.277-1.035,2.312-2.312,2.312s-2.312-1.034-2.312-2.312
			s1.035-2.312,2.312-2.312S47.478-113.943,47.478-112.666z M47.478-83.166c0,1.277-1.035,2.312-2.312,2.312
			s-2.312-1.034-2.312-2.312s1.035-2.312,2.312-2.312S47.478-84.443,47.478-83.166z M47.478-53.666c0,1.277-1.035,2.312-2.312,2.312
			s-2.312-1.034-2.312-2.312s1.035-2.312,2.312-2.312S47.478-54.943,47.478-53.666z M47.478-24.166c0,1.277-1.035,2.312-2.312,2.312
			s-2.312-1.034-2.312-2.312s1.035-2.312,2.312-2.312S47.478-25.443,47.478-24.166z M64.978-248.666
			c0,1.277-1.035,2.312-2.312,2.312s-2.312-1.035-2.312-2.312s1.035-2.312,2.312-2.312S64.978-249.943,64.978-248.666z
			 M84.478-230.666c0,1.277-1.035,2.312-2.312,2.312s-2.312-1.035-2.312-2.312s1.035-2.312,2.312-2.312
			S84.478-231.943,84.478-230.666z M84.478-201.166c0,1.277-1.035,2.312-2.312,2.312s-2.312-1.034-2.312-2.312
			s1.035-2.312,2.312-2.312S84.478-202.443,84.478-201.166z M84.478-171.666c0,1.277-1.035,2.312-2.312,2.312
			s-2.312-1.034-2.312-2.312s1.035-2.312,2.312-2.312S84.478-172.943,84.478-171.666z M84.478-142.166
			c0,1.277-1.035,2.312-2.312,2.312s-2.312-1.034-2.312-2.312s1.035-2.312,2.312-2.312S84.478-143.443,84.478-142.166z
			 M84.478-112.666c0,1.277-1.035,2.312-2.312,2.312s-2.312-1.034-2.312-2.312s1.035-2.312,2.312-2.312
			S84.478-113.943,84.478-112.666z M84.478-83.166c0,1.277-1.035,2.312-2.312,2.312s-2.312-1.034-2.312-2.312
			s1.035-2.312,2.312-2.312S84.478-84.443,84.478-83.166z M84.478-53.666c0,1.277-1.035,2.312-2.312,2.312s-2.312-1.034-2.312-2.312
			s1.035-2.312,2.312-2.312S84.478-54.943,84.478-53.666z M84.478-24.166c0,1.277-1.035,2.312-2.312,2.312s-2.312-1.034-2.312-2.312
			s1.035-2.312,2.312-2.312S84.478-25.443,84.478-24.166z M101.978-248.666c0,1.277-1.035,2.312-2.312,2.312
			s-2.312-1.035-2.312-2.312s1.035-2.312,2.312-2.312S101.978-249.943,101.978-248.666z M121.478-230.666
			c0,1.277-1.035,2.312-2.312,2.312s-2.312-1.035-2.312-2.312s1.035-2.312,2.312-2.312S121.478-231.943,121.478-230.666z
			 M121.478-201.166c0,1.277-1.035,2.312-2.312,2.312s-2.312-1.034-2.312-2.312s1.035-2.312,2.312-2.312
			S121.478-202.443,121.478-201.166z M121.478-171.666c0,1.277-1.035,2.312-2.312,2.312s-2.312-1.034-2.312-2.312
			s1.035-2.312,2.312-2.312S121.478-172.943,121.478-171.666z M121.478-142.166c0,1.277-1.035,2.312-2.312,2.312
			s-2.312-1.034-2.312-2.312s1.035-2.312,2.312-2.312S121.478-143.443,121.478-142.166z M121.478-112.666
			c0,1.277-1.035,2.312-2.312,2.312s-2.312-1.034-2.312-2.312s1.035-2.312,2.312-2.312S121.478-113.943,121.478-112.666z
			 M121.478-83.166c0,1.277-1.035,2.312-2.312,2.312s-2.312-1.034-2.312-2.312s1.035-2.312,2.312-2.312
			S121.478-84.443,121.478-83.166z M121.478-53.666c0,1.277-1.035,2.312-2.312,2.312s-2.312-1.034-2.312-2.312
			s1.035-2.312,2.312-2.312S121.478-54.943,121.478-53.666z M121.478-24.166c0,1.277-1.035,2.312-2.312,2.312
			s-2.312-1.034-2.312-2.312s1.035-2.312,2.312-2.312S121.478-25.443,121.478-24.166z M138.978-248.666
			c0,1.277-1.035,2.312-2.312,2.312s-2.312-1.035-2.312-2.312s1.035-2.312,2.312-2.312S138.978-249.943,138.978-248.666z
			 M158.478-230.666c0,1.277-1.035,2.312-2.312,2.312s-2.312-1.035-2.312-2.312s1.035-2.312,2.312-2.312
			S158.478-231.943,158.478-230.666z M158.478-201.166c0,1.277-1.035,2.312-2.312,2.312s-2.312-1.034-2.312-2.312
			s1.035-2.312,2.312-2.312S158.478-202.443,158.478-201.166z M158.478-171.666c0,1.277-1.035,2.312-2.312,2.312
			s-2.312-1.034-2.312-2.312s1.035-2.312,2.312-2.312S158.478-172.943,158.478-171.666z M158.478-142.166
			c0,1.277-1.035,2.312-2.312,2.312s-2.312-1.034-2.312-2.312s1.035-2.312,2.312-2.312S158.478-143.443,158.478-142.166z
			 M158.478-112.666c0,1.277-1.035,2.312-2.312,2.312s-2.312-1.034-2.312-2.312s1.035-2.312,2.312-2.312
			S158.478-113.943,158.478-112.666z M158.478-83.166c0,1.277-1.035,2.312-2.312,2.312s-2.312-1.034-2.312-2.312
			s1.035-2.312,2.312-2.312S158.478-84.443,158.478-83.166z M158.478-53.666c0,1.277-1.035,2.312-2.312,2.312
			s-2.312-1.034-2.312-2.312s1.035-2.312,2.312-2.312S158.478-54.943,158.478-53.666z M158.478-24.166
			c0,1.277-1.035,2.312-2.312,2.312s-2.312-1.034-2.312-2.312s1.035-2.312,2.312-2.312S158.478-25.443,158.478-24.166z
			 M175.978-248.666c0,1.277-1.035,2.312-2.312,2.312s-2.312-1.035-2.312-2.312s1.035-2.312,2.312-2.312
			S175.978-249.943,175.978-248.666z M195.478-230.666c0,1.277-1.035,2.312-2.312,2.312s-2.312-1.035-2.312-2.312
			s1.035-2.312,2.312-2.312S195.478-231.943,195.478-230.666z M195.478-201.166c0,1.277-1.035,2.312-2.312,2.312
			s-2.312-1.034-2.312-2.312s1.035-2.312,2.312-2.312S195.478-202.443,195.478-201.166z M195.478-171.666
			c0,1.277-1.035,2.312-2.312,2.312s-2.312-1.034-2.312-2.312s1.035-2.312,2.312-2.312S195.478-172.943,195.478-171.666z
			 M195.478-142.166c0,1.277-1.035,2.312-2.312,2.312s-2.312-1.034-2.312-2.312s1.035-2.312,2.312-2.312
			S195.478-143.443,195.478-142.166z M195.478-112.666c0,1.277-1.035,2.312-2.312,2.312s-2.312-1.034-2.312-2.312
			s1.035-2.312,2.312-2.312S195.478-113.943,195.478-112.666z M195.478-83.166c0,1.277-1.035,2.312-2.312,2.312
			s-2.312-1.034-2.312-2.312s1.035-2.312,2.312-2.312S195.478-84.443,195.478-83.166z M195.478-53.666
			c0,1.277-1.035,2.312-2.312,2.312s-2.312-1.034-2.312-2.312s1.035-2.312,2.312-2.312S195.478-54.943,195.478-53.666z
			 M195.478-24.166c0,1.277-1.035,2.312-2.312,2.312s-2.312-1.034-2.312-2.312s1.035-2.312,2.312-2.312
			S195.478-25.443,195.478-24.166z M212.978-248.666c0,1.277-1.035,2.312-2.312,2.312s-2.312-1.035-2.312-2.312
			s1.035-2.312,2.312-2.312S212.978-249.943,212.978-248.666z M232.478-230.666c0,1.277-1.035,2.312-2.312,2.312
			s-2.312-1.035-2.312-2.312s1.035-2.312,2.312-2.312S232.478-231.943,232.478-230.666z M232.478-201.166
			c0,1.277-1.035,2.312-2.312,2.312s-2.312-1.034-2.312-2.312s1.035-2.312,2.312-2.312S232.478-202.443,232.478-201.166z
			 M232.478-171.666c0,1.277-1.035,2.312-2.312,2.312s-2.312-1.034-2.312-2.312s1.035-2.312,2.312-2.312
			S232.478-172.943,232.478-171.666z M232.478-142.166c0,1.277-1.035,2.312-2.312,2.312s-2.312-1.034-2.312-2.312
			s1.035-2.312,2.312-2.312S232.478-143.443,232.478-142.166z M232.478-112.666c0,1.277-1.035,2.312-2.312,2.312
			s-2.312-1.034-2.312-2.312s1.035-2.312,2.312-2.312S232.478-113.943,232.478-112.666z M232.478-83.166
			c0,1.277-1.035,2.312-2.312,2.312s-2.312-1.034-2.312-2.312s1.035-2.312,2.312-2.312S232.478-84.443,232.478-83.166z
			 M232.478-53.666c0,1.277-1.035,2.312-2.312,2.312s-2.312-1.034-2.312-2.312s1.035-2.312,2.312-2.312
			S232.478-54.943,232.478-53.666z M232.478-24.166c0,1.277-1.035,2.312-2.312,2.312s-2.312-1.034-2.312-2.312
			s1.035-2.312,2.312-2.312S232.478-25.443,232.478-24.166z M249.978-248.666c0,1.277-1.035,2.312-2.312,2.312
			s-2.312-1.035-2.312-2.312s1.035-2.312,2.312-2.312S249.978-249.943,249.978-248.666z M27.978-218.619
			c0,1.277-1.035,2.312-2.312,2.312s-2.312-1.035-2.312-2.312s1.035-2.311,2.312-2.311S27.978-219.896,27.978-218.619z
			 M64.978-218.619c0,1.277-1.035,2.312-2.312,2.312s-2.312-1.035-2.312-2.312s1.035-2.311,2.312-2.311
			S64.978-219.896,64.978-218.619z M101.978-218.619c0,1.277-1.035,2.312-2.312,2.312s-2.312-1.035-2.312-2.312
			s1.035-2.311,2.312-2.311S101.978-219.896,101.978-218.619z M138.978-218.619c0,1.277-1.035,2.312-2.312,2.312
			s-2.312-1.035-2.312-2.312s1.035-2.311,2.312-2.311S138.978-219.896,138.978-218.619z M175.978-218.619
			c0,1.277-1.035,2.312-2.312,2.312s-2.312-1.035-2.312-2.312s1.035-2.311,2.312-2.311S175.978-219.896,175.978-218.619z
			 M212.978-218.619c0,1.277-1.035,2.312-2.312,2.312s-2.312-1.035-2.312-2.312s1.035-2.311,2.312-2.311
			S212.978-219.896,212.978-218.619z M249.978-218.619c0,1.277-1.035,2.312-2.312,2.312s-2.312-1.035-2.312-2.312
			s1.035-2.311,2.312-2.311S249.978-219.896,249.978-218.619z M27.978-188.571c0,1.277-1.035,2.312-2.312,2.312
			s-2.312-1.035-2.312-2.312c0-1.276,1.035-2.312,2.312-2.312S27.978-189.848,27.978-188.571z M64.978-188.571
			c0,1.277-1.035,2.312-2.312,2.312s-2.312-1.035-2.312-2.312c0-1.276,1.035-2.312,2.312-2.312S64.978-189.848,64.978-188.571z
			 M101.978-188.571c0,1.277-1.035,2.312-2.312,2.312s-2.312-1.035-2.312-2.312c0-1.276,1.035-2.312,2.312-2.312
			S101.978-189.848,101.978-188.571z M138.978-188.571c0,1.277-1.035,2.312-2.312,2.312s-2.312-1.035-2.312-2.312
			c0-1.276,1.035-2.312,2.312-2.312S138.978-189.848,138.978-188.571z M175.978-188.571c0,1.277-1.035,2.312-2.312,2.312
			s-2.312-1.035-2.312-2.312c0-1.276,1.035-2.312,2.312-2.312S175.978-189.848,175.978-188.571z M212.978-188.571
			c0,1.277-1.035,2.312-2.312,2.312s-2.312-1.035-2.312-2.312c0-1.276,1.035-2.312,2.312-2.312S212.978-189.848,212.978-188.571z
			 M249.978-188.571c0,1.277-1.035,2.312-2.312,2.312s-2.312-1.035-2.312-2.312c0-1.276,1.035-2.312,2.312-2.312
			S249.978-189.848,249.978-188.571z M27.978-158.524c0,1.277-1.035,2.312-2.312,2.312s-2.312-1.035-2.312-2.312
			s1.035-2.312,2.312-2.312S27.978-159.801,27.978-158.524z M64.978-158.524c0,1.277-1.035,2.312-2.312,2.312
			s-2.312-1.035-2.312-2.312s1.035-2.312,2.312-2.312S64.978-159.801,64.978-158.524z M101.978-158.524
			c0,1.277-1.035,2.312-2.312,2.312s-2.312-1.035-2.312-2.312s1.035-2.312,2.312-2.312S101.978-159.801,101.978-158.524z
			 M138.978-158.524c0,1.277-1.035,2.312-2.312,2.312s-2.312-1.035-2.312-2.312s1.035-2.312,2.312-2.312
			S138.978-159.801,138.978-158.524z M175.978-158.524c0,1.277-1.035,2.312-2.312,2.312s-2.312-1.035-2.312-2.312
			s1.035-2.312,2.312-2.312S175.978-159.801,175.978-158.524z M212.978-158.524c0,1.277-1.035,2.312-2.312,2.312
			s-2.312-1.035-2.312-2.312s1.035-2.312,2.312-2.312S212.978-159.801,212.978-158.524z M249.978-158.524
			c0,1.277-1.035,2.312-2.312,2.312s-2.312-1.035-2.312-2.312s1.035-2.312,2.312-2.312S249.978-159.801,249.978-158.524z
			 M27.978-128.477c0,1.277-1.035,2.312-2.312,2.312s-2.312-1.034-2.312-2.312c0-1.277,1.035-2.312,2.312-2.312
			S27.978-129.753,27.978-128.477z M64.978-128.477c0,1.277-1.035,2.312-2.312,2.312s-2.312-1.034-2.312-2.312
			c0-1.277,1.035-2.312,2.312-2.312S64.978-129.753,64.978-128.477z M101.978-128.477c0,1.277-1.035,2.312-2.312,2.312
			s-2.312-1.034-2.312-2.312c0-1.277,1.035-2.312,2.312-2.312S101.978-129.753,101.978-128.477z M138.978-128.477
			c0,1.277-1.035,2.312-2.312,2.312s-2.312-1.034-2.312-2.312c0-1.277,1.035-2.312,2.312-2.312S138.978-129.753,138.978-128.477z
			 M175.978-128.477c0,1.277-1.035,2.312-2.312,2.312s-2.312-1.034-2.312-2.312c0-1.277,1.035-2.312,2.312-2.312
			S175.978-129.753,175.978-128.477z M212.978-128.477c0,1.277-1.035,2.312-2.312,2.312s-2.312-1.034-2.312-2.312
			c0-1.277,1.035-2.312,2.312-2.312S212.978-129.753,212.978-128.477z M249.978-128.477c0,1.277-1.035,2.312-2.312,2.312
			s-2.312-1.034-2.312-2.312c0-1.277,1.035-2.312,2.312-2.312S249.978-129.753,249.978-128.477z M27.978-98.429
			c0,1.277-1.035,2.312-2.312,2.312s-2.312-1.035-2.312-2.312s1.035-2.312,2.312-2.312S27.978-99.706,27.978-98.429z M64.978-98.429
			c0,1.277-1.035,2.312-2.312,2.312s-2.312-1.035-2.312-2.312s1.035-2.312,2.312-2.312S64.978-99.706,64.978-98.429z
			 M101.978-98.429c0,1.277-1.035,2.312-2.312,2.312s-2.312-1.035-2.312-2.312s1.035-2.312,2.312-2.312
			S101.978-99.706,101.978-98.429z M138.978-98.429c0,1.277-1.035,2.312-2.312,2.312s-2.312-1.035-2.312-2.312
			s1.035-2.312,2.312-2.312S138.978-99.706,138.978-98.429z M175.978-98.429c0,1.277-1.035,2.312-2.312,2.312
			s-2.312-1.035-2.312-2.312s1.035-2.312,2.312-2.312S175.978-99.706,175.978-98.429z M212.978-98.429
			c0,1.277-1.035,2.312-2.312,2.312s-2.312-1.035-2.312-2.312s1.035-2.312,2.312-2.312S212.978-99.706,212.978-98.429z
			 M249.978-98.429c0,1.277-1.035,2.312-2.312,2.312s-2.312-1.035-2.312-2.312s1.035-2.312,2.312-2.312
			S249.978-99.706,249.978-98.429z M27.978-68.382c0,1.277-1.035,2.312-2.312,2.312s-2.312-1.034-2.312-2.312
			c0-1.277,1.035-2.312,2.312-2.312S27.978-69.659,27.978-68.382z M64.978-68.382c0,1.277-1.035,2.312-2.312,2.312
			s-2.312-1.034-2.312-2.312c0-1.277,1.035-2.312,2.312-2.312S64.978-69.659,64.978-68.382z M101.978-68.382
			c0,1.277-1.035,2.312-2.312,2.312s-2.312-1.034-2.312-2.312c0-1.277,1.035-2.312,2.312-2.312S101.978-69.659,101.978-68.382z
			 M138.978-68.382c0,1.277-1.035,2.312-2.312,2.312s-2.312-1.034-2.312-2.312c0-1.277,1.035-2.312,2.312-2.312
			S138.978-69.659,138.978-68.382z M175.978-68.382c0,1.277-1.035,2.312-2.312,2.312s-2.312-1.034-2.312-2.312
			c0-1.277,1.035-2.312,2.312-2.312S175.978-69.659,175.978-68.382z M212.978-68.382c0,1.277-1.035,2.312-2.312,2.312
			s-2.312-1.034-2.312-2.312c0-1.277,1.035-2.312,2.312-2.312S212.978-69.659,212.978-68.382z M249.978-68.382
			c0,1.277-1.035,2.312-2.312,2.312s-2.312-1.034-2.312-2.312c0-1.277,1.035-2.312,2.312-2.312S249.978-69.659,249.978-68.382z
			 M27.978-38.334c0,1.277-1.035,2.312-2.312,2.312s-2.312-1.035-2.312-2.312s1.035-2.312,2.312-2.312S27.978-39.611,27.978-38.334z
			 M64.978-38.334c0,1.277-1.035,2.312-2.312,2.312s-2.312-1.035-2.312-2.312s1.035-2.312,2.312-2.312S64.978-39.611,64.978-38.334z
			 M101.978-38.334c0,1.277-1.035,2.312-2.312,2.312s-2.312-1.035-2.312-2.312s1.035-2.312,2.312-2.312
			S101.978-39.611,101.978-38.334z M138.978-38.334c0,1.277-1.035,2.312-2.312,2.312s-2.312-1.035-2.312-2.312
			s1.035-2.312,2.312-2.312S138.978-39.611,138.978-38.334z M175.978-38.334c0,1.277-1.035,2.312-2.312,2.312
			s-2.312-1.035-2.312-2.312s1.035-2.312,2.312-2.312S175.978-39.611,175.978-38.334z M212.978-38.334
			c0,1.277-1.035,2.312-2.312,2.312s-2.312-1.035-2.312-2.312s1.035-2.312,2.312-2.312S212.978-39.611,212.978-38.334z
			 M249.978-38.334c0,1.277-1.035,2.312-2.312,2.312s-2.312-1.035-2.312-2.312s1.035-2.312,2.312-2.312
			S249.978-39.611,249.978-38.334z M27.978-8.287c0,1.277-1.035,2.312-2.312,2.312s-2.312-1.035-2.312-2.312
			s1.035-2.312,2.312-2.312S27.978-9.564,27.978-8.287z M64.978-8.287c0,1.277-1.035,2.312-2.312,2.312s-2.312-1.035-2.312-2.312
			s1.035-2.312,2.312-2.312S64.978-9.564,64.978-8.287z M101.978-8.287c0,1.277-1.035,2.312-2.312,2.312s-2.312-1.035-2.312-2.312
			s1.035-2.312,2.312-2.312S101.978-9.564,101.978-8.287z M138.978-8.287c0,1.277-1.035,2.312-2.312,2.312s-2.312-1.035-2.312-2.312
			s1.035-2.312,2.312-2.312S138.978-9.564,138.978-8.287z M175.978-8.287c0,1.277-1.035,2.312-2.312,2.312s-2.312-1.035-2.312-2.312
			s1.035-2.312,2.312-2.312S175.978-9.564,175.978-8.287z M212.978-8.287c0,1.277-1.035,2.312-2.312,2.312s-2.312-1.035-2.312-2.312
			s1.035-2.312,2.312-2.312S212.978-9.564,212.978-8.287z M249.978-8.287c0,1.277-1.035,2.312-2.312,2.312s-2.312-1.035-2.312-2.312
			s1.035-2.312,2.312-2.312S249.978-9.564,249.978-8.287z"/>
	</g>
</pattern>
<g>
	<g>
		<path fill="#245977" d="M126.776,90.447c-0.363,0.114,0.491-1.285,0.575-1.424c0.454-0.747,0.833-1.371,1.547-1.926
			c0.984-0.765,1.736-1.046,2.943-0.879c2.091,0.288,4.07,1.868,4.318,4.16c0.058,0.549,0.13,1.476-0.084,1.967
			c-0.229,0.52-0.88,0.905-1.29,1.256c-0.928,0.79-1.967,1.151-3.169,1.156c-2.049,0.007-4.515-1.169-4.943-3.45
			c-0.236-1.249-0.014-2.458,0.67-3.522c0.315-0.495,0.715-0.899,1.106-1.332c0.365-0.401,0.7-1.121,1.312-1.052"/>
		<g>
			<path d="M77.753,224.183c-0.147,0.042-0.281,0.032-0.409-0.04c-0.068-0.738-0.77-0.728-1.342-0.606
				c-0.073,0.214-0.073,0.405,0,0.611c0.229,0.092,0.595,0.092,0.825,0c0.109-0.438,0.06-0.936-0.193-1.325"/>
			<g>
				<path fill="#245977" d="M85.038,265.506c-0.714,0.803-0.166,2.522-0.058,3.448c0.188,1.573,0.058,3.243,0.058,4.838
					c0,2.975,0.058,5.872-0.514,8.75c-0.665,3.355-0.737,6.809-1.569,10.11c-0.903,3.566-1.445,7.24-2.345,10.836
					c-0.236,0.955-0.679,1.96-0.781,2.882c-0.15,1.359,0.277,2.605,0.53,3.924c0.665,3.438,0.418,7.042,0.761,10.547
					c0.727,7.385,1.568,14.771,1.574,22.221c0,3.072,0.328,6.099,0.26,9.229c-0.066,3.035-0.27,6.149-0.26,9.264
					c0.004,1.491-0.2,2.919-0.532,4.253c-0.34,1.335-0.055,1.815-1.544,2.331c-1.371,0.487-2.466,0.691-3.911,0.867
					c-1.038,0.124-1.964,0.371-3.069,0.226c-1.455-6.45-1.316-13.641-0.621-20.265c0.689-6.61,0.042-13.215-0.667-19.753
					c-0.275-2.583-0.323-5.311-0.317-7.908c0.008-3.126-0.534-6.266-0.519-9.398c0.013-2.65-0.181-5.477-0.714-8.071
					c-0.951-4.586-1.321-9.305-1.945-13.934c-0.707-5.289-1.802-10.782-1.763-16.169c0.033-4.401-0.804-8.964,0.252-13.272
					c0.465-1.894,0.746-3.762,1.636-5.573c0.375-0.771,1.312-3.333,2.268-3.406c0.875-0.066,2.512,2.548,3.054,3.194
					c1.44,1.717,3.062,3.214,4.536,4.878c0.666,0.75,1.222,1.667,1.864,2.445c0.528,0.644,1.148,1.276,0.956,2.179"/>
				<path d="M63.919,225.938c0.995,1.161,3.496-0.578,5.027-0.826c1.817-0.289,3.881,0.046,5.731,0.046
					c4.23,0,8.643-0.375,12.678,0.742c4.792,1.32,10.051,1.599,15.239,1.599c1.87,0,3.738,0.011,5.602,0
					c2.198-0.006,4.184,0.948,6.245,0.918c-0.655,5.134,0.716,9.935,0.716,15.512c0,5.59,0.461,11.6-0.099,17.124
					c-3.685-0.961-5.164-1.908-8.754,1.014c-2.671,2.181-5.321,5.834-5.811,9.895c-2.829,0.725-6.348-0.651-9.377-0.662
					c-1.037,0-3.561,0.603-4.455,0.057c-1.126-0.684-1.589-2.876-2.631-3.964c-4.726-4.961-11.084-5.584-16.2-8.743
					c-0.653-5.526-0.189-10.738-0.709-16.328c-0.217-2.345-0.96-5.238-1.269-7.822c-0.243-2.025-1.565-4.599-1.299-6.765
					c-0.003,0.441-0.003,0.894-0.003,1.33"/>
				<path fill="#245977" d="M142.354,268.353c-3.366-1.258-6.677-2.104-10.119-3.146c-1.909-0.568-3.568-1.257-5.555-1.917
					c-1.535-0.51-3.405-0.265-5.064-0.764c-1.435-0.434-2.849-1.139-4.425-1.563c-0.252-0.074-0.609-0.123-0.986-0.175
					c-0.458-0.709-1.593-0.978-3.077-0.9l0.709,0.438c-0.342-0.107-0.6-0.264-0.823-0.438c-6.809,0.422-20.438,7.785-9.215,12.977
					c3.99,1.851,7.77,4.448,11.494,6.824c4.832,3.088,9.706,4.033,14.96,5.049c-0.501,8.229-8.503,16.493-11.793,23.515
					c-1,2.123-1.487,4.073-2.683,6.067c-1.236,2.087-3.015,2.954-4.292,4.888c-0.944,1.424-1.736,3.109-2.322,4.888
					c2.559,0.216,5.131,0.231,7.704,0.294c0.957-2.84,3.277-5.984,4.484-7.604c4.176-5.595,8.676-10.91,12.931-16.363
					c5.368-6.878,12.363-11.527,13.124-22.082C147.842,272.368,147.029,270.105,142.354,268.353z"/>
				<path d="M116.461,304.685c0.12,2.023,3.875,3.228,5.174,3.799c1.976,0.88,3.719,2.078,5.702,2.705
					c0.014,2.392-1.651,5.09-2.768,6.9c-1.461,2.372-2.125,4.868-3.32,7.379c-1.321,2.767-2.566,5.175-3.761,8.092
					c-0.886,2.181-1.935,4.538-2.986,6.571c-0.547,1.049-1.022,2.844-1.703,3.543c1.079,0.651,2.098,0.33,3.2,0.427
					c1.185,0.107,2.428,0.632,3.582,0.927c2.379,0.618,4.408,1.598,6.61,2.306c-0.137,1.936-0.256,3.431-1.807,4.221
					c-1.121,0.568-3.196,0.48-4.466,0.634c-2.738,0.32-5.697-0.341-8.419-1.047c-2.832-0.72-5.28-2.283-8.279-2.653
					c-0.758-0.098-1.153-0.592-1.784,0.01c-0.714,0.69-0.233,2.242-0.828,2.803c-1.422,1.337-2.618-1.278-3.685-1.967
					c0.094-1.451,1.459-3.673,2.102-4.897c0.661-1.281,1.47-2.756,2.34-4.003c2.701-3.922,4.199-7.837,6.058-12.405
					c1.778-4.381,3.88-8.55,5.108-12.941c0.582-2.077,1.104-4.299,2.058-6.15c0.738-1.431,1.973-2.513,2.667-4.041"/>
				<path d="M69.057,367.292c4.736,0.271,9.367-1.452,13.999-1.231c1.032,1.402,0.198,5.633,0.205,7.342
					c-0.016,2.28,0.108,4.492-0.144,6.735c-0.572,4.95-2.002,10.409-1.459,15.589c0.326,3.232-0.083,8.6,2.929,10.514
					c1.987,1.279,3.533,1.968,5.331,3.82c1.187,1.237,3.187,2.989,4.594,3.618c-4.399,3.603-8.279,0.54-13.449-1.149
					c-1.682-0.546-3.948-2.051-5.611-2.217c-2.715-0.271-2.6,3.376-4.936,3.862c-1.851-2.168-1.679-1.461-0.923-4.09
					c0.418-1.428,0.49-3.148,0.532-4.682c0.114-4.597-0.636-9.191,0.019-13.692c1.112-7.608-0.003-16.323-0.509-24.171"/>
			</g>
			<g>
				<path fill="#245977" d="M96.273,39.094c-0.477,0.801-3.578,0.861-4.596,1.028c-0.817,0.137-1.426,0.386-2.299,0.344
					c-0.928-0.048-1.573-0.524-2.57-0.29c-0.382,1.731-0.579,3.569-0.33,5.374c1.51,0.777,3.154,0.752,4.87,0.742
					c1.667-0.006,3.117,0.555,4.87,0.289c0.924-1.975,1.18-4.732,0.715-6.805"/>
				<path fill="#245977" d="M50.856,45.4c0.246-0.037,0.345,0.045,0.288,0.248c-1.359,1.035-2.992,2.136-4.542,2.922
					c-2.396,1.228-5.2,0.991-7.572,1.966c-2.194,0.902,0.23,3.366,1.081,4.794c0.61,1.015,1.385,3.955,2.859,4.161
					c1.064,0.144,3.512-2.467,4.599-3.032c1.961-1.012,3.996-1.887,5.901-2.828c0.845-0.421,1.964-0.554,2.008-1.723
					c0.021-0.713-1.06-2.358-1.417-3.076c-0.625-1.266-2.014-3.382-3.533-2.742"/>
				<path fill="#245977" d="M113.678,161.184c0.086,0.075,0.179,0.152,0.269,0.223c0.237-4.362,2.815-8.491,4.316-12.601
					c2.652-7.25,3.296-14.569,4.612-22.096c0.368-2.1,0.716-4.333,0.991-6.482c0.305-2.432,0.1-4.901,0.391-7.324
					c0.449-3.78,0.041-7.691,0.245-11.54c0.306-5.629,0.962-11.434,1.669-16.998c0.3-2.388-0.02-4.872,0.3-7.254
					c0.187-1.392,0.616-2.949,0.348-4.419c-0.286-1.557-1.573-2.628-2.401-3.948c-2.467-3.922-5.222-7.6-8.209-11.141
					c-4.673-5.549-9.683-11.626-15.387-16.064c-1.066-0.831-3.42-2.96-4.82-2.389c-0.818,1.723-2.151,5.824-1.386,7.848
					c0.411,1.083,2.195,1.868,2.979,2.708c1.56,1.659,2.901,3.629,4.224,5.479c1.61,2.231,3.355,4.26,4.567,6.805
					c1.186,2.478,2.389,4.959,3.67,7.409c2.199,4.217,4.595,8.279,6.654,12.564c0.544,1.125,1.226,2.396,1.486,3.506
					c0.405,1.705-0.17,3.452-0.254,5.134c-0.279,5.641-1.004,11.556-1.97,17.167c-0.986,5.725-2.482,11.466-2.625,17.273
					c-0.106,4.423-0.888,8.854-1.294,13.239c-0.225,2.367-0.6,4.782-1.016,7.115c-0.24,1.362-0.395,2.773-0.665,4.161
					c-0.184,0.959-0.545,2.082-0.652,3.052c-0.173,1.587-0.638,3.533-0.238,5.145c0.425,1.698,1.863,3.11,2.224,4.801"/>
				<path fill="#245977" d="M112.321,198.304c-0.335-3.087-0.083-6.341-0.083-9.463c0-6.58-0.754-13.136,0.083-19.691
					c0.715-5.562,3.485-11.688,0.306-17.048c-1.591-2.677-3.291-3.679-6.078-5.018c-1.589-0.752-3.281-1.233-4.919-1.882
					c-1.296-0.516-2.491-1.5-3.842-1.875c-0.363-2.388-0.089-5.076-0.069-7.508c0.003-0.449-0.369-10.726-0.559-11.113
					c-0.459-0.976-0.126,8.73-1.009,8.371c-1.192-0.48-2.434-1.158-3.539-1.882c-2.76-1.794-5.611-3.748-8.327-5.497
					c-1.365-0.899-4.389-3.32-6.129-2.704c-0.049,0.208-0.079,0.46-0.079,0.71c-0.268-0.021-0.417,0.097-0.422,0.357
					c0.813,1.009,0.878,2.572,1.22,3.803c0.476,1.705,1.126,3.137,1.191,4.921c0.089,2.826,0.18,5.697-2.755,6.818
					c-1.894,0.725-3.936,1.099-5.989,1.442c0.242,1.238,0.426,2.456,0.558,3.591c0.577,5.072,0.693,11.465-2.445,15.744
					c-0.614,2.186-0.593,4.558-0.84,6.793c-0.3,2.707-1.088,5.46-1.088,8.498v16.961c0,1.635,0.013,3.27,0.023,4.904
					c-0.041-0.068-0.1-0.146-0.151-0.218c0.139,1.199,0.172,2.403,0.06,3.594c0,0,0.003-0.004,0.009-0.004
					c-0.009-0.352,0.037-0.661,0.092-0.945c0.02,2.857,0.02,5.717-0.033,8.574c-0.068,3.549-0.798,7.106-0.787,10.642
					c0.007,1.38-0.007,2.752,0,4.129c0.011,1.408-0.628,2.728-0.332,4.103c1.719,0.383,3.328,0.558,5.064,0.811
					c1.682,0.247,3.029,1.061,4.708,1.145c1.898,0.097,3.894-0.587,5.735-0.84c2.167-0.299,4.127-0.669,6.385-0.669
					c8.22,0,16,3.38,24.276,2.208c1.389-2.792,0.958-7.113,1.268-10.27c0.35-3.581,0.494-7.221,0.372-10.883
					C114.076,205.306,112.7,201.857,112.321,198.304z"/>
				<path fill="#FD1813" d="M77.522,139.343c0.586,0.575,0.835,1.782,1.112,2.606c0.512,1.516,0.495,2.872,0.495,4.48
					c0,1.531,0.047,3.066,0.059,4.593c0.014,1.047,0.292,1.933,0.372,2.951c0.181,2.296-0.073,4.932-1.378,6.85
					c-1.164,1.711-2.803,2.75-4.526,3.636c-0.625,0.332-1.119,0.613-1.775,0.784c-0.786,0.208-1.477,0.097-2.286,0.193
					c-0.683,0.079-1.442,0.34-2.212,0.156c-0.702-0.165-1.421-0.728-1.925,0.028c-0.427,0.643-0.575,1.966-0.759,2.689
					c-0.307,1.145-0.425,2.406-0.628,3.582c-0.414,2.337-0.4,4.693-0.4,7.11c0,4.404,0.014,8.811,0,13.219
					c-0.019,6.287,0.6,12.631,0.712,18.921c0.035,2.046,0.184,4.078,0.184,6.137c0,0.566-0.296,2.194,0.023,2.612
					c0.25,0.335,0.828,0.135,1.186,0.218c0.286,0.067,0.585,0.29,0.927,0.335c1.063,0.129,1.602-0.744,2.464-1.146
					c0.974-0.453,2.285-0.062,3.307,0.028c2.146,0.189,4.227,0.427,6.348,0.792c2.015,0.34,4.101,0.703,6.15,0.884
					c2.268,0.204,4.627,0,6.904,0c2.631,0,5.218-0.156,7.816-0.379c1.82-0.155,3.736,0.269,5.542,0.021
					c2.196-0.312,4.469-0.652,6.711-0.769c1.375-0.071,2.691-0.431,4.063-0.354c-0.502-1.387-0.465-3.17-0.465-4.673
					c0-1.892,0.177-3.707,0.177-5.587c0-3.663-0.828-6.983-1.256-10.488c-0.105-0.891-0.11-1.877-0.174-2.754
					c-0.065-0.829-0.158-1.646-0.178-2.462c-0.055-1.847-0.009-3.722-0.223-5.554c-0.228-2.05-0.133-4.244-0.133-6.346
					c0-2.401,0.356-4.687,0.356-7.08c0-1.196,0.076-2.437-0.175-3.547c-0.141-0.607-0.651-0.845-1.079-1.3
					c-0.538-0.566-0.937-1.233-1.385-1.875c-1.468-2.14-2.188-4.629-2.183-7.264c0.004-1.418-0.177-2.761-0.177-4.202
					c0-1.428,0-2.815-0.177-4.182c-0.17-1.293,0-2.444-0.4-3.69c-0.159-0.523-0.324-0.753-0.843-0.976
					c-0.474-0.202-1.191-0.024-1.618-0.295c-0.27,0.626-0.177,1.439-0.171,2.165c0.005,0.838-0.223,1.615-0.322,2.42
					c-0.194,1.694-0.27,3.34-0.438,5.005c-0.421,4.187-3.478,5.967-7.1,6.408c-0.786,0.094-1.414,0.129-2.172-0.036
					c-0.515-0.112-1.049-0.079-1.533-0.365c-0.549-0.332-0.954-0.783-1.519-1.082c-1.649-0.877-2.824-2.126-3.875-3.733
					c-1.223-1.862-2.271-3.887-3.075-5.964c-0.68-1.74-0.87-3.529-1.426-5.276c-0.467-1.445-1.076-2.954-1.524-4.317
					c-0.393-1.16-0.558-2.417-1.165-3.495c-0.411-0.752-1.625-2.299-2.637-1.877c-0.52,0.214-2.425,1.827-2.637,2.399
					c0.482-0.343,1.689-0.032,1.931,0.584"/>
				<path d="M52.316,53.989c-0.25-1.254-1.423-3.145-1.775-4.805c-0.214-1.042-0.623-2.475-0.437-3.487
					c0.284-1.535,1.009-1.292,2.16-1.36c1.975-0.115,4.164-0.042,6.116-0.004c1.297,0.029,4.34-0.626,5.422,0.287
					c2.169,1.815-1.266,9.186-3.351,10.074c-1.347,0.578-4.075-0.164-5.534-0.17c-1.44-0.019-3.502,0.312-3.19-1.84"/>
				<path d="M87.295,39.606c-0.872,1.17-4.264,0.627-5.815,0.819c-0.521,1.332,1.44,6.258,2.573,7.243
					c1.193,1.038,1.79-0.049,3.242-0.403c1.183-0.278,3.313-0.411,4.173-1.227c-2.317-0.062-2.081-5.695-3.78-6.432"/>
				<path fill="#245977" d="M69.348,159.813c0.279,0.222,0.298,0.264,0.05,0.125c-0.821-0.479-1.393-1.232-2.094-1.842
					c-0.953-0.828-2.094-1.453-2.979-2.409c-0.738-0.801-1.423-1.75-2.096-2.617c-1.686-2.14-3.731-3.882-5.264-6.171
					c-4.585-6.848-9.278-13.798-13.403-20.955c-1.631-2.828-2.975-5.955-4.804-8.625c-0.879-1.282-1.935-2.436-2.654-3.783
					c-1.764-3.331-4.27-6.213-6.411-9.286c-1.404-2.004-4-4.449-4.757-6.778c-0.233-0.713-0.023-2.698,0.068-3.755
					c0.304-3.306,1.316-6.66,1.989-9.914c0.812-3.948,1.793-7.815,2.635-11.751c0.845-3.959,2.443-7.499,3.792-11.273
					c0.645-1.811,1.517-3.465,2.448-5.15c0.687-1.251,2.244-3.038,2.354-4.493c0.944-0.005,2.024,1.145,2.88,1.675
					c1.214,0.753,2.414,1.247,3.628,1.979c2.529,1.532-1.214,5.41-1.895,7.535c-1.113,3.504-2.503,7.003-3.366,10.69
					c-0.893,3.796-1.493,7.529-2.307,11.288c-0.306,1.408-0.942,3.433-0.9,4.861c0.037,1.308,1.105,2.061,1.798,3.153
					c2.221,3.528,3.926,7.055,6.732,10.209c3.537,3.971,6.118,8.741,9.375,12.973c1.402,1.825,3.107,3.316,4.527,5.14
					c1.34,1.726,2.396,3.676,3.501,5.56c1.951,3.32,4.237,6.465,6.09,9.893c1.196,2.197,2.496,4.273,3.936,6.299
					c1.505,2.114,2.049,3.774,2.049,6.449c0,2.584-0.386,4.668-0.702,7.143c-2.114,0.139-2.296,4.071-2.965,5.485
					c-0.189,0.098-0.389,0.119-0.598,0.056"/>
			</g>
			<g>
				<path d="M70.337,96.167c-1.631-0.067-3.435,2.665-3.889,4.125c-0.396,1.298-0.7,2.32-1.416,3.504
					c-0.4,0.66-3.243,3.63-2.602,4.246c0.514-0.22,2.861-1.858,2.879-0.748c0.012,0.453-0.94,1.093-1.178,1.512
					c-0.298,0.538-0.412,0.976-0.226,1.551c0.237,0.719,0.493,0.886,0.494,1.738c0.007,1.545-0.2,3.073-0.047,4.617
					c0.089,0.972-0.054,3.55,0.725,4.243c1.118-0.626,1.14-3.017,2-4.043c0.632,0.807,1.639,4.002,2.523,4.153
					c-0.329-0.988-0.752-1.475-0.041-2.439c-0.092,0.833,1.026,2.176,1.435,2.91c0.574,1.032,1.272,1.772,1.917,2.646
					c0.664,0.905,1.138,1.894,1.895,2.677c0.898,0.915,2.225,1.615,3.035,2.62c0.258-0.395,0.107-1.033,0.241-1.529
					c0.066-0.239,0.331-0.632,0.363-0.831c0.049-0.46-0.25-0.637-0.412-1.09c-0.085-0.223-0.013-0.611-0.063-0.83
					c-0.1-0.337-0.335-0.618-0.474-0.937c-0.316-0.685-0.509-1.296-0.898-1.998c-0.854-1.538-1.545-3.01-2.131-4.625
					c-0.551-1.526-1.398-3.056-1.668-4.641c-0.252-1.486-0.007-2.973,0.014-4.48c0.013-1.498-0.153-2.963,0.161-4.455
					c0.683-3.152,1.17-5.891,3.63-8.379c1.983-2.001,4.016-3.652,6.156-5.238c0.857-0.635,1.942-1.125,1.354-2.242
					c-0.559-1.059-1.642-1.834-2.279-2.85c-1.358,0.475-1.088,1.604-1.292,2.587c-0.523-0.63-0.788-1.493-1.275-2.147
					c-0.945,0.153-0.382,1.416-0.773,1.94c-0.533,0.706-1.014-0.5-1.708-0.305c0.081,0.447-0.017,0.899,0.207,1.292
					c-0.445,0.197-0.807,0.672-1.204,0.983c-0.543,0.424-1.117,0.78-1.67,1.186c-0.937,0.677-2.017,1.53-2.789,2.399
					c-0.611,0.682-3.504,3.659-2.707,4.494"/>
				<path fill="#FFFFFF" d="M88.06,89.462c-0.186-0.784-1.284-0.312-1.817-0.147c-0.787,0.226-1.671-0.042-2.329,0.428
					c-0.449-0.364-0.302-1.062-0.418-1.557c-0.135-0.584-0.312-1.254-0.454-1.89c-0.336-1.643-0.454-3.533-0.053-5.203
					c0.577-2.39,1.781-5.814,4.366-6.885c0.744,2.2,0.851,5.163,0.82,7.646c-0.025,1.414-0.237,2.897-0.182,4.312
					c0.053,1.281-0.421,2.687,1.231,2.666c1.695-0.013,3.404-0.182,5.103-0.235c1.86-0.064,3.714-0.119,5.546-0.104
					c1.925,0.021,3.815,0.112,5.77,0.022c2.199-0.105,4.403-0.252,6.609-0.363c1.674-0.083,3.249-0.491,4.894-0.665
					c1.546-0.159,3.102-0.206,4.643-0.318c2.21-0.17,4.504-0.405,6.72-0.44c1.14-0.007,2.51-0.271,3.604-0.135
					c-1.448,0.063-2.898,1.907-3.165,3.22c-0.361,1.749,0.386,3.349,2.158,3.789c1.4,0.345,3.042,0.018,4.245-0.946
					c1.135-0.897,0.784-3.722-0.665-3.982c1.294,1.05,1.885,2.012,2.008,3.792c0.098,1.405-0.963,2.119-1.931,3.042
					c-1.411,1.342-2.812,2.728-4.109,4.219c-1.283,1.47-2.67,3.061-4.131,4.324c-1.752,1.517-3.163,3.377-4.877,4.962
					c-3.245,2.987-6.242,6.186-8.678,9.831c-2.419,3.616-5.415,6.879-8.292,10.137c-0.854,0.971-1.771,2.127-2.774,2.936
					c-0.793,0.634-1.354,0.156-2.189,0.046c-2.228-0.286-4.511,0.087-6.718-0.106c-2.361-0.204-4.862-1.204-7.021-2.085
					c-2.019-0.819-3.812-1.818-5.479-3.228c-0.729-0.617-1.55-1.243-2.166-1.915c-0.885-0.981-1.453-2.21-2.224-3.271
					c-2.393-3.29-4.27-8.044-3.954-12.284c0.335-4.535,1.219-8.95,3.021-13.202c0.764-1.812,1.913-3.512,3.345-4.863
					c0.453-0.427,0.887-0.838,1.266-1.311c0.319-0.384,1.346-0.869,1.418-1.243c-0.211,0.175-0.378,0.411-0.486,0.659"/>
				<path fill="#FFFFFF" d="M73.351,99.656c-0.593-1.064-1.103-2.274-1.803-3.257c-1.105-1.542-2.319-2.977-3.251-4.669
					c-0.788-1.417-1.543-2.788-2.148-4.273c-0.262-0.624-0.474-1.341-0.686-1.919c-0.126-0.341-0.449-0.824-0.409-1.181
					c0.169-1.197,2.389-0.189,3.184-0.017c2.413,0.516,4.557,0.947,6.467,2.55c2.193,1.837,4.203,4.518,5.28,7.214
					c-1.155,1.298-2.13,2.788-3.366,4.023c-0.461,0.47-2.061,2.267-2.675,1.817"/>
				<path d="M84.392,109.379c0.811-1.68,2.572-3.061,4.463-2.218c2.001,0.896,2.34,2.879,1.32,4.728
					c-1.083,1.962-2.689,1.919-4.269,0.598c-0.586-0.486-1.256-1.528-1.451-2.3c-0.188-0.73,0.167-1.504,0.226-2.233"/>
				<path fill="#FFFFFF" d="M76.002,116.12c0.178,0.721,0.917,1.216-0.358,1.64c-0.103,0.032-0.438-1.027-0.418-1.187
					c0.072-0.558,0.671-0.543,0.931-0.123c0.236,0.374,0.115,1.451-0.417,0.882c-0.495-0.522,0.37-0.807,0.403-0.569
					c0.046,0.353-1.68,1.203-1.968,1.368c-0.735,0.424-1.482,0.819-2.247,1.187c-0.676,0.326-1.395,0.811-2.001,0.318
					c-0.537-0.435-0.656-1.355-0.425-1.978c0.579,2.531,4.747-1.831,6.128-0.519c-0.049,0.102-0.143,0.166-0.257,0.186"/>
				<path d="M75.326,116.948c-0.344-0.246-0.021-0.822,0.365-0.738c0.365,0.081,0.642,0.631,0.642,0.98
					c-0.003,0.275-0.221,0.916-0.583,0.819c-0.414-0.108-0.521-1.042-0.14-1.243"/>
				<path d="M128.006,89.615c-0.353,0.458-0.49,0.547-0.272,1.082c0.158,0.4,0.435,0.946,0.707,1.281
					c0.574,0.705,1.693,0.47,2.272-0.135c1.368-1.404-1.491-3.246-2.743-2.335c0.052,0.141,0.129,0.341,0.229,0.453"/>
				<path d="M132.728,87.043c0.144,0.037,0.154,0.035,0.021-0.006c-0.784-0.282-0.425,1.295-0.29,1.636
					c0.282,0.709,0.893,1.094,1.575,0.674c1.393-0.857,0.014-3.36-1.294-2.604c0.006,0.09,0.038,0.169,0.101,0.232"/>
				<path d="M135.622,91.874c0.075,0.039,0.146,0.066,0.212,0.098c-1.047,0.66-1.905,1.962-2.884,2.754
					c-1.895,1.538-4.08,3.061-6.144,4.35c-1.988,1.246-4.01,2.591-6.021,3.736c-1.292,0.731-2.841,2.083-4.298,2.179
					c-0.784-1.056-0.74-1.505,0.428-1.5c1.136,0,2.006-0.641,3.002-1.219c2.04-1.183,4.094-2.109,6.152-3.295
					c1.924-1.115,4.044-2.105,5.867-3.398c0.899-0.646,1.53-1.376,2.312-2.131c0.29-0.28,0.521-0.654,0.79-0.915
					c0.368-0.36,1.131-0.465,1.151-0.985"/>
			</g>
		</g>
	</g>
	<g>
		<path fill="#245977" d="M267.55,191.177c-0.354-2.873-0.087-5.903-0.087-8.808c0-6.125-0.801-12.226,0.087-18.327
			c0.759-5.177,3.697-10.878,0.327-15.868c-1.686-2.487-3.49-3.42-6.445-4.667c-1.686-0.7-3.48-1.149-5.219-1.751
			c-1.377-0.479-2.643-1.397-4.074-1.744c-0.386-2.225-0.095-4.725-0.073-6.988c0.003-0.419-2.466-14.324-2.668-14.682
			c-0.488-0.909-8.698,6.889-11.577,5.263c-1.45-0.839-4.655-3.089-6.499-2.517c-0.055,0.194-0.085,0.43-0.085,0.661
			c-0.287-0.02-0.442,0.087-0.448,0.33c0.862,0.941,0.934,2.396,1.295,3.541c0.505,1.588,1.194,2.919,1.263,4.582
			c0.095,2.629,0.193,5.302-2.922,6.344c-2.011,0.676-4.172,1.019-6.35,1.343c0.254,1.152,0.452,2.285,0.589,3.342
			c0.613,4.719,0.735,10.667-2.589,14.648c-0.652,2.039-0.632,4.244-0.895,6.326c-0.318,2.519-1.15,5.082-1.15,7.911v15.782
			c0,1.524,0.012,3.043,0.021,4.566c-0.042-0.065-0.104-0.137-0.161-0.204c0.148,1.116,0.185,2.237,0.064,3.347
			c0,0,0.006-0.005,0.01-0.005c-0.01-0.328,0.041-0.613,0.101-0.879c0.018,2.66,0.018,5.323-0.034,7.98
			c-0.076,3.299-0.849,6.611-0.84,9.903c0.012,1.284-0.003,2.563,0,3.843c0.015,1.311-0.663,2.54-0.35,3.819
			c1.824,0.355,3.529,0.519,5.371,0.754c1.785,0.229,3.213,0.988,4.991,1.067c2.015,0.089,4.13-0.55,6.087-0.783
			c2.295-0.281,4.375-0.624,6.768-0.624c8.717,0,16.973,3.148,25.744,2.056c1.472-2.599,1.016-6.62,1.348-9.558
			c0.365-3.333,0.521-6.72,0.391-10.125C269.413,197.691,267.955,194.48,267.55,191.177z"/>
		<path d="M230.647,136.299c0.62,0.539,0.886,1.662,1.181,2.428c0.543,1.41,0.522,2.672,0.522,4.167
			c0,1.428,0.051,2.855,0.063,4.278c0.016,0.976,0.312,1.797,0.396,2.745c0.191,2.136-0.079,4.591-1.463,6.376
			c-1.231,1.592-2.971,2.557-4.799,3.384c-0.66,0.307-1.186,0.568-1.884,0.728c-0.831,0.193-1.565,0.089-2.425,0.18
			c-0.723,0.074-1.525,0.315-2.344,0.144c-0.742-0.151-1.508-0.674-2.041,0.026c-0.451,0.599-0.609,1.832-0.806,2.503
			c-0.323,1.066-0.45,2.242-0.663,3.335c-0.443,2.173-0.426,4.366-0.426,6.616c0,4.1,0.015,8.2,0,12.303
			c-0.02,5.852,0.635,11.755,0.752,17.609c0.041,1.905,0.199,3.796,0.199,5.711c0,0.528-0.316,2.042,0.022,2.431
			c0.267,0.31,0.88,0.128,1.259,0.203c0.305,0.063,0.621,0.269,0.986,0.311c1.124,0.121,1.696-0.691,2.608-1.065
			c1.036-0.42,2.425-0.06,3.509,0.025c2.276,0.177,4.482,0.397,6.732,0.738c2.136,0.318,4.35,0.653,6.521,0.821
			c2.407,0.191,4.908,0,7.323,0c2.787,0,5.532-0.146,8.289-0.353c1.929-0.142,3.961,0.25,5.876,0.02
			c2.329-0.29,4.743-0.607,7.117-0.717c1.46-0.064,2.856-0.401,4.308-0.329c-0.53-1.289-0.492-2.95-0.492-4.347
			c0-1.762,0.188-3.45,0.188-5.199c0-3.407-0.875-6.499-1.329-9.762c-0.116-0.829-0.119-1.746-0.19-2.562
			c-0.066-0.771-0.164-1.535-0.185-2.293c-0.056-1.72-0.011-3.465-0.235-5.169c-0.242-1.908-0.145-3.946-0.145-5.903
			c0-2.237,0.38-4.363,0.38-6.59c0-1.116,0.079-2.27-0.187-3.301c-0.149-0.566-0.691-0.787-1.145-1.211
			c-0.571-0.528-0.996-1.146-1.465-1.745c-1.56-1.992-2.322-4.308-2.319-6.76c0.005-1.319-0.188-2.567-0.188-3.91
			c0-1.327,0-2.622-0.186-3.894c-0.181-1.201,0-2.273-0.422-3.433c-0.173-0.487-0.348-0.701-0.899-0.908
			c-0.501-0.19-1.259-0.021-1.714-0.273c-0.286,0.582-0.187,1.34-0.182,2.013c0.005,0.78-0.236,1.503-0.34,2.253
			c-0.209,1.578-0.285,3.107-0.461,4.656c-0.45,3.899-3.691,5.553-7.537,5.966c-0.831,0.088-1.498,0.119-2.301-0.035
			c-0.545-0.104-1.112-0.07-1.627-0.339c-0.579-0.307-1.012-0.728-1.611-1.009c-1.75-0.817-2.994-1.975-4.107-3.471
			c-1.295-1.734-2.41-3.618-3.263-5.552c-0.719-1.62-0.921-3.281-1.513-4.909c-0.492-1.344-1.136-2.751-1.616-4.018
			c-0.411-1.081-0.589-2.25-1.231-3.251c-0.438-0.7-1.723-2.142-2.799-1.748c-0.552,0.194-2.57,1.7-2.797,2.233
			c0.512-0.32,1.793-0.03,2.049,0.542"/>
		<path d="M183.025,225.335c0.471,1.548,2.295,3.812,2.942,5.859c0.398,1.282,1.1,3.038,0.922,4.32
			c-0.271,1.94-1.32,1.695-2.955,1.878c-2.803,0.306-5.925,0.396-8.708,0.507c-1.849,0.074-6.125,1.139-7.743,0.088
			c-3.248-2.085,1.007-11.578,3.901-12.862c1.871-0.83,5.813-0.125,7.892-0.241c2.05-0.098,4.958-0.678,4.703,2.038"/>
		<path fill="#FFFFFF" d="M218.757,230.689c0.504,5.203,0.043,20.896,3.745,17.322c3.701-3.575,12.033,1.096,16.611,5.713
			c1.006,1.012,1.455,3.052,2.543,3.69c0.867,0.509,3.311-0.053,4.315-0.053c2.929,0.009,6.339,1.288,9.075,0.614
			c0.474-3.778,3.041-7.177,5.628-9.208c3.472-2.716,4.907-1.835,8.474-0.944c0.541-5.139,0.096-10.734,0.096-15.936
			c0-5.192-1.329-9.656-0.694-14.437c-1.993,0.03-3.919-0.858-6.044-0.853c-1.805,0.009-3.613,0-5.425,0
			c-5.021,0-24.139,3.111-25.896,3.38c-1.483,0.23-11.491-3.299-12.454-4.379C218.731,215.598,218.549,228.507,218.757,230.689z"/>
		<g>
			<path fill="#FF0000" d="M228.621,219.465c-1.263-0.347-2.812-0.849-4.315-1.387c-0.045,1.543-0.148,3.083-0.201,4.627
				c-0.139,4.055-0.357,8.105-0.529,12.159c-0.178,4.15-0.311,8.315-0.256,12.472c1.464-0.833,3.391-0.78,5.455-0.174
				C228.485,237.944,229.34,228.672,228.621,219.465z"/>
			<path fill="#FF0000" d="M238.567,218.775c-1.604,0.243-3.07,0.469-4.27,0.656c-0.021,2.505-0.193,5.013-0.247,7.519
				c-0.093,4.263,0.095,8.541,0.404,12.793c0.263,3.646,0.646,7.284,1.068,10.917c1.311,0.946,2.528,1.977,3.556,3.014
				c0.973,0.977,1.428,2.897,2.438,3.606C239.882,244.525,240.141,231.558,238.567,218.775z"/>
			<path fill="#FF0000" d="M253.516,235.85c-0.972-3.831-1.864-7.668-1.946-11.615c-0.05-2.417-0.007-4.836,0.047-7.252
				c-2.218,0.253-4.769,0.59-7.308,0.95c0.158,3.85,0.099,7.707,0.264,11.557c0.217,5.171,1.129,10.244,2.312,15.292
				c1.036,4.427,2.312,8.828,3.893,13.123c1.481,0.216,2.935,0.34,4.235,0.022c0.305-2.422,1.474-4.684,2.951-6.532
				C256.486,246.21,254.84,241.07,253.516,235.85z"/>
			<path fill="#FF0000" d="M262.499,216.55c-0.01,0-0.018-0.002-0.027-0.002c-1.804,0.009-3.614,0-5.424,0
				c-0.027,0-0.07,0.002-0.102,0.002c2.673,10.388,2.996,21.157,4.23,31.789c1.758-1.257,3.002-1.523,4.367-1.375
				C265.252,236.752,264.676,226.557,262.499,216.55z"/>
		</g>
		<path fill="#245977" d="M230.526,150.739c-2.867,5.122-11.091,7.267-15.828,10.918c-5.27,4.066-28.279,17.083-32.076,21.138
			c0.446,3.502,19.381,18.883,20.779,23.321c1.414,4.487,1.953,6.388-0.355,11.011c-1.926,3.864-8.422,18.358-11.481,18.617
			c-2.655,0.224-5.143-2.456-6.714-4.183c-1.993-2.194-3.049-7.166-3.049-7.166s13.012-10.084,12.167-13.127
			c-0.6-2.165-19.522-23.633-22.133-25.806c-2.27-1.889,2.017-9.587,3.922-11.076c0.983-0.768,4.206-3.129,8.208-6.034
			c6.751-4.902,15.718-11.373,19.899-14.438c2.956-2.164,10.691-21.691,18.867-16.677
			C222.731,137.237,233.977,144.57,230.526,150.739z"/>
		<path fill="#245977" d="M268.617,169.076c-3.087-4.532-5.215-15.037-4.392-21.439c0.334-2.579,2.606-1.579,3.161-4.243
			c0.818-3.934,1.082-8.007,1.898-12.01c1.286-6.3,2.784-13.303,4.146-19.72c0.901-4.271,1.487-8.669,1.965-12.938
			c0.203-1.801,3.157-18.472,3.157-18.472s-16.608-11.544-18.569-12.583c-2.525-1.337-6.968,2.799-9.711,3.435
			c-3.578,0.83-5.67,1.549-8.492-0.947c-1.211-1.069-3.477-6.812-3.477-6.812l21.479-6.334l7.606,2.381l14.744,7.981
			c0,0,8.259,6.551,8.014,10.9c-0.281,4.997-13.359,62.42-14.734,69.501C274.114,154.478,268.498,171.297,268.617,169.076z"/>
		<path fill="#245977" d="M246.678,128.762"/>
		<g>
			<path fill="#245977" d="M198.191,144.787c0.103-0.29,0.425-0.465,0.685-0.626c0.557-0.349,1.311-0.674,1.968-0.832
				c0.929-0.222,2.041-0.131,2.784,0.486c1.745,1.449,2.233,4.064,1.447,6.074c-0.403,1.031-1.239,2.275-2.513,2.522
				c-0.635,0.125-1.312-0.012-1.929-0.123c-0.653-0.115-1.334-0.169-1.926-0.45c-0.615-0.295-1.3-0.679-1.837-1.079
				c-0.688-0.513-0.843-1.337-0.851-2.105c-0.008-0.468-0.039-0.947,0.08-1.399c0.158-0.597,0.4-1.167,0.667-1.727
				c0.349-0.723,0.962-1.32,1.628-1.811c0.498-0.368,1.055-0.636,1.621-0.904c0.382-0.182,0.818-0.433,1.266-0.472"/>
			<path d="M210.819,99.914c1.485,0.848,2.537-4.069,3.088-5.375c0.85-2.028,1.947-3.551,3.572-5.199
				c3.007-3.054,6.389-6.497,10.882-7.161c2.168-0.32,5.368,0.291,7.308,0.913c1.926,0.616,4.31,3.04,6.157,3.279
				c2.261,0.3,2.119-1.723,4.21-2.984c2.803-1.686,7.651-3.25,10.948-3.126c11.46,0.438,20.961,7.291,27.746,15.6
				c3.831,4.689,5.083,10.08,6.519,15.501c1.743,6.608,3.234,16.405,7.925,21.948c3.472,4.107,11.542,6.787,16.709,8.917
				c-4.357-0.133-7.47,0.104-11.481-1.668c-4.954-2.186-8.842-5.691-12.217-9.704c-4.787-5.695-9.521-12.06-14.926-17.403
				c-4.281-4.232-8.045-7.708-13.777-9.369c-6.482-1.878-11.004-3.911-15.66-8.725c-0.489,2.108,1.555,4.371,2.141,6.328
				c0.777,2.586,0.883,5.055,1.145,7.758c0.242,2.488,0.976,4.779,1.297,7.146c0.387,2.872-1.189,4.44-3.279,6.343
				c0.945-7.314-4.866-15.89-10.869-20.189c-3.628-2.6-6.569-2.934-11.19-3.456c-4.649-0.526-8.942,1.005-13.546,0.551
				c-1.457-3.736,3.75-3.1,4.448-4.69"/>
			<path fill="#FFFFFF" d="M208.94,107.406c-0.733-0.332-0.02-1.254,0.264-1.716c0.399-0.686,0.33-1.562,0.946-2.077
				c-0.261-0.487-0.985-0.495-1.45-0.699c-0.552-0.243-1.174-0.541-1.771-0.798c-1.553-0.646-3.397-1.137-5.145-1.102
				c-2.498,0.056-6.164,0.48-7.803,2.666c2.01,1.128,4.926,1.828,7.395,2.299c1.408,0.26,2.926,0.364,4.312,0.699
				c1.26,0.31,2.762,0.151,2.369,1.682c-0.391,1.567-0.943,3.115-1.377,4.682c-0.48,1.712-0.951,3.419-1.349,5.122
				c-0.41,1.789-0.745,3.561-1.271,5.352c-0.593,2.021-1.233,4.034-1.839,6.059c-0.458,1.533-1.217,2.914-1.754,4.404
				c-0.508,1.399-0.904,2.83-1.363,4.238c-0.663,2.015-1.41,4.096-1.94,6.144c-0.263,1.059-0.831,2.275-0.94,3.316
				c0.383-1.33,2.54-2.305,3.9-2.287c1.814,0.017,3.234,1.031,3.274,2.764c0.026,1.366-0.67,2.823-1.894,3.743
				c-1.146,0.871-3.86-0.021-3.797-1.417c0.75,1.414,1.57,2.154,3.308,2.628c1.372,0.372,2.319-0.469,3.45-1.179
				c1.645-1.039,3.336-2.06,5.1-2.963c1.745-0.893,3.634-1.861,5.213-2.958c1.897-1.322,4.056-2.253,6.016-3.528
				c3.684-2.403,7.526-4.537,11.687-6.061c4.128-1.515,8.034-3.641,11.906-5.651c1.157-0.595,2.505-1.212,3.536-1.98
				c0.807-0.604,0.457-1.224,0.537-2.021c0.213-2.123,1.095-4.166,1.399-6.251c0.325-2.23-0.105-4.75-0.491-6.931
				c-0.363-2.038-0.951-3.899-1.971-5.73c-0.449-0.799-0.889-1.689-1.418-2.392c-0.771-1.019-1.862-1.791-2.742-2.723
				c-2.723-2.88-7.016-5.579-11.287-6.137c-4.574-0.605-9.146-0.674-13.766,0.138c-1.969,0.346-3.908,1.068-5.566,2.128
				c-0.529,0.331-1.032,0.652-1.588,0.909c-0.452,0.215-1.16,1.069-1.552,1.062c0.224-0.158,0.493-0.267,0.769-0.319"/>
			<path fill="#FFFFFF" d="M222.344,95.813c-0.921-0.759-2.006-1.478-2.824-2.326c-1.279-1.335-2.431-2.749-3.9-3.951
				c-1.224-1.015-2.416-1.994-3.752-2.854c-0.561-0.366-1.223-0.707-1.745-1.023c-0.312-0.182-0.722-0.58-1.082-0.612
				c-1.224-0.087-0.722,2.173-0.731,2.945c-0.028,2.339-0.082,4.416,1.076,6.512c1.333,2.399,3.537,4.805,5.97,6.35
				c1.548-0.811,3.239-1.414,4.741-2.312c0.571-0.335,2.711-1.457,2.402-2.116"/>
			<path d="M229.508,108.011c-1.85,0.418-3.61,1.773-3.199,3.692c0.438,2.04,2.327,2.748,4.391,2.18
				c2.186-0.611,2.503-2.107,1.549-3.84c-0.35-0.639-1.232-1.472-1.957-1.81c-0.68-0.321-1.527-0.147-2.26-0.237"/>
			<path fill="#FFFFFF" d="M238.068,101.594c0.677,0.308,1.003,1.094,1.708-0.002c0.057-0.09-0.918-0.613-1.083-0.63
				c-0.569-0.045-0.685,0.514-0.329,0.84c0.316,0.295,1.41,0.398,0.967-0.21c-0.406-0.562-0.883,0.181-0.655,0.258
				c0.341,0.115,1.572-1.316,1.8-1.545c0.586-0.597,1.142-1.211,1.68-1.844c0.475-0.565,1.114-1.133,0.762-1.794
				c-0.311-0.586-1.196-0.882-1.863-0.792c2.379,1.045-2.88,4.033-1.887,5.577c0.111-0.023,0.196-0.098,0.244-0.202"/>
			<path d="M239.043,101.13c-0.165-0.368-0.811-0.184-0.814,0.191c-0.003,0.356,0.481,0.724,0.828,0.795
				c0.273,0.05,0.954-0.025,0.946-0.376c-0.021-0.41-0.918-0.696-1.206-0.384"/>
			<path d="M200.135,144.477c0.536-0.235,0.656-0.345,1.14-0.035c0.356,0.226,0.839,0.59,1.104,0.91
				c0.571,0.676,0.092,1.665-0.639,2.082c-1.697,0.985-2.883-2.038-1.701-3.017c0.127,0.078,0.307,0.191,0.396,0.306"/>
			<path d="M196.528,148.335c0.006,0.142,0,0.15-0.006,0.017c-0.105-0.782,1.379-0.131,1.687,0.066
				c0.638,0.403,0.88,1.046,0.312,1.593c-1.16,1.116-3.332-0.666-2.289-1.726c0.089,0.025,0.158,0.07,0.209,0.143"/>
			<path d="M200.671,151.993c0.018,0.077,0.032,0.146,0.046,0.216c0.891-0.839,2.371-1.374,3.381-2.121
				c1.947-1.444,3.945-3.164,5.688-4.818c1.68-1.593,3.469-3.199,5.056-4.832c1.013-1.053,2.7-2.215,3.122-3.549
				c-0.874-0.942-1.326-0.987-1.582,0.097c-0.256,1.056-1.088,1.731-1.885,2.538c-1.627,1.652-3.004,3.371-4.645,5.041
				c-1.539,1.557-2.993,3.327-4.684,4.757c-0.842,0.705-1.709,1.142-2.631,1.711c-0.34,0.211-0.766,0.355-1.084,0.549
				c-0.438,0.271-0.715,0.954-1.233,0.869"/>
		</g>
		<path d="M238.981,61.965c-1.403,1.651-6.848,0.884-9.339,1.154c-0.835,1.875,2.312,8.812,4.128,10.204
			c1.92,1.459,2.874-0.073,5.211-0.568c1.893-0.392,5.314-0.581,6.697-1.729c-3.723-0.087-3.344-8.023-6.073-9.061"/>
		<path fill="#245977" d="M229.276,244.025c1.506,0.78,7.473,3.707,8.762,4.961c3.426,3.322,18.035,30.91,19.97,32.729
			c1.53,1.439,2.37,2.323,2.987,4.644c1.248,4.696-5.307,17.902-7.773,21.859c-1.574,2.523-7.76,12.472-9.049,14.591
			c-2.207,3.636-7.49,7.842-8.479,12.266c-1.594,0.433-2.221-2.616-2.885-3.944c-0.988-1.994-1.613-2.615-0.959-5.043
			c1.033-3.842,12.125-27,13.073-28.889c0.604-1.21,2.81-3.386,2.778-4.897c-0.024-1.421-7.967-10.644-9.551-13.268
			c-2.181-3.615-12.94-14.712-14.406-18.283c-1.579-3.856-3.666-8.567-3.159-12.908
			C221.321,247.404,227.922,243.325,229.276,244.025z"/>
		<path fill="#245977" d="M254.977,254.422c1.822-4.808,2.824-6.679,7.103-9.058c2.819-1.567,4.993-0.463,7.642,1.173
			c4.716,2.923,4.301,8.832,3.859,13.252c-0.551,5.561-0.613,11.339-1.571,17.063c-1.056,6.311-3.501,12.305-5.879,18.435
			c-1.79,4.6-1.095,9.666-0.888,14.345c0.247,5.67,0.273,11.439-0.016,17.101c-0.332,6.532-0.678,12.915,0.098,19.443
			c0.465,3.937-0.434,3.473-3.83,3.644c-2.002,0.102-4.164,1.286-5.437-1.082c-0.862-1.6-0.278-5.319-0.671-7.171
			c-0.604-2.825-0.916-5.56-1.217-8.469c-0.711-6.792-0.509-13.773-0.467-20.235c0.035-5.185,0.119-10.399,0.168-15.59
			c0.036-3.502-0.284-6.939-0.498-10.419c-0.325-5.353,1.978-10.334,2.179-15.614c0.151-3.921,0.06-8.038-0.935-11.87
			C253.915,256.653,254.977,254.422,254.977,254.422z"/>
		<path d="M266.292,338.102c-0.635,1.796-4.368,2.008-5.698,2.224c-2.028,0.337-3.926,1.01-5.894,1.117
			c-0.635,2.147,0.184,4.953,0.729,6.839c0.716,2.466,0.675,4.865,1.108,7.392c0.483,2.796,0.994,5.245,1.324,8.141
			c0.238,2.167,0.584,4.526,1.013,6.595c0.226,1.067,0.192,2.788,0.632,3.575c-1.151,0.335-5.136,14.318-6.164,14.15
			c-1.109-0.175,5.604,1.285,8.266,1.279c2.769-0.001,2.541-9.256,5.371-8.896c0.715,0.087,1.203-0.271,1.62,0.416
			c0.472,0.789-0.371,2.07,0.024,2.715c0.951,1.526,2.719-0.547,3.869-0.924c0.288-1.324-0.375-3.637-0.645-4.884
			c-0.269-1.302-0.621-2.812-1.094-4.134c-1.437-4.147-1.785-8.009-2.291-12.542c-0.48-4.349-1.312-8.585-1.292-12.812
			c0.007-1.999,0.108-4.113-0.28-5.999c-0.298-1.457-1.142-2.713-1.379-4.243"/>
		<path d="M230.115,324.675c3.758,2.417,8.493,3.212,12.19,5.543c0.103,1.593-2.834,4.553-3.742,5.911
			c-1.229,1.798-2.305,3.608-3.708,5.267c-3.108,3.654-7.196,7.313-9.511,11.667c-1.454,2.711-4.65,6.774-3.191,9.695
			c0.96,1.938,1.865,3.204,2.356,5.511c0.319,1.534,1.032,3.849,1.855,5.003c-5.546,0.805-7.108-3.426-10.465-7.172
			c-1.095-1.218-2.161-3.465-3.44-4.373c-2.095-1.48-3.943,1.467-6.127,0.763c-0.371-2.581-0.607-1.939,1.418-3.67
			c1.105-0.937,2.085-2.266,2.934-3.461c2.546-3.591,4.379-7.575,7.313-10.838c4.975-5.508,8.697-12.931,12.465-19.383"/>
	</g>
	<g>
		<g>
			<pattern  id="SVGID_1_" xlink:href="#Neues_Musterfeld_1" patternTransform="matrix(0.0278 0 0 0.0278 -6189.7012 -5592.4077)">
			</pattern>
			<path fill="url(#SVGID_1_)" d="M224,192.011l-3.591-7.044c0.581-0.423,2.966-1.371,3.075-1.399
				c0.27-0.07,0.727-0.082,0.982-0.033c0.172,0.037,1.217,0.81,1.295,0.921c0.074,0.109,0.199,0.526,0.292,1.111
				c0.089,0.586-0.097,0.861-0.384,1.232c-0.498,0.639-2.024,1.411-2.024,1.411l1.425,3.142L224,192.011z M222.088,185.52
				l0.656,1.13l0.318,0.563c0,0,0.621-0.237,0.751-0.307c0.125-0.068,0.733-0.426,0.772-0.475c0.038-0.045,0.258-0.706,0.258-0.706
				s-0.068-0.851-0.289-0.942c-0.201-0.085-0.458-0.092-0.59-0.053c-0.133,0.038-0.771,0.233-0.771,0.233L222.088,185.52z"/>
			<pattern  id="SVGID_2_" xlink:href="#Neues_Musterfeld_1" patternTransform="matrix(0.0278 0 0 0.0278 -6189.7012 -5592.4077)">
			</pattern>
			<path fill="url(#SVGID_2_)" d="M226.081,182.832c0,0,1.147-0.28,1.218-0.266c0.066,0.014,0.582,2.147,0.582,2.147l0.407,1.539
				c0,0,0.407,1.542,0.422,1.635c0.019,0.096,1.584-0.241,1.666-0.254c0.08-0.016,0.999-0.196,1.065-0.159
				c0.07,0.041,0.235,0.107,0.235,0.107l0.211,0.825c0,0-2.485,0.562-2.695,0.602c-0.208,0.041-1.395,0.351-1.395,0.351
				s-0.117-0.458-0.129-0.478c-0.012-0.018-0.078-0.162-0.086-0.184C227.576,188.682,226.081,182.832,226.081,182.832z"/>
			<pattern  id="SVGID_3_" xlink:href="#Neues_Musterfeld_1" patternTransform="matrix(0.0278 0 0 0.0278 -6189.7012 -5592.4077)">
			</pattern>
			<path fill="url(#SVGID_3_)" d="M230.438,181.756c0,0,0.657-0.226,0.688-0.245c0.031-0.018,0.41-0.141,0.44-0.188
				c0.03-0.043,1.396,4.729,1.462,4.791c0.065,0.063,0.627,0.604,1.171,0.496c0.396-0.081,0.519-0.276,0.544-0.314
				c0.024-0.036,0.087-0.189,0.087-0.189s-0.013-0.68-0.069-0.821c-0.055-0.138-0.923-3.605-0.923-3.605l-0.294-0.869l1.01-0.317
				c0,0,1.442,4.505,1.491,4.708c0.049,0.201,0.087,1.154,0.015,1.318c-0.071,0.166-0.518,0.801-0.717,0.916
				c-0.199,0.115-1.039,0.524-1.21,0.54c-0.169,0.011-0.53,0.155-1.108-0.044c-0.397-0.133-0.574-0.368-0.574-0.368l-0.303-0.509
				L230.438,181.756z"/>
			<pattern  id="SVGID_4_" xlink:href="#Neues_Musterfeld_1" patternTransform="matrix(0.0278 0 0 0.0278 -6189.7012 -5592.4077)">
			</pattern>
			<path fill="url(#SVGID_4_)" d="M236.961,184.634c0,0-0.062,0.057-0.055,0.152c0.011,0.093,0.013,0.674,0,0.744
				c-0.01,0.068-0.014,0.186-0.014,0.186s0.608,0.443,0.971,0.521c0.363,0.079,1.791,0.057,2.029-0.053
				c0.236-0.109,0.723-0.328,0.723-0.328s0.547-0.528,0.617-1.07c0.076-0.545,0.014-1.542-0.437-1.824
				c-0.093-0.055-0.521-0.329-0.612-0.374c-0.102-0.048-0.534-0.295-1.211-0.275c-0.677,0.017-1.322,0.144-1.333,0.155
				c-0.013,0.013-0.291-0.661-0.291-0.661s0.073-0.316,0.262-0.426c0.187-0.107,1.204-0.241,1.204-0.241s0.309-0.041,0.367-0.017
				c0.059,0.027,1.633,0.651,1.633,0.651l0.363-0.843c0,0-1.205-1.103-2.268-1.019c-0.582,0.046-1.407,0.269-1.449,0.296
				c-0.046,0.025-1.062,0.336-1.238,1.391c-0.176,1.056,0.109,1.242,0.121,1.262c0.016,0.02,0.514,0.472,0.767,0.538
				c0.256,0.068,0.875,0.209,0.913,0.209c0.041,0,0.616-0.164,0.978,0.011c0.358,0.175,0.54,0.351,0.585,0.425
				c0.047,0.074,0.166,0.421,0.124,0.548c-0.042,0.127-0.126,0.318-0.176,0.351c-0.05,0.03-0.542,0.085-0.738,0.05
				c-0.198-0.038-0.981-0.17-0.981-0.17L236.961,184.634z"/>
			<pattern  id="SVGID_5_" xlink:href="#Neues_Musterfeld_1" patternTransform="matrix(0.0278 0 0 0.0278 -6189.7012 -5592.4077)">
			</pattern>
			<path fill="url(#SVGID_5_)" d="M245.695,178.886c0.749,0.322,1.187,1.502,1.21,1.766c0.025,0.262-0.192,2.079-0.192,2.079
				s-0.425,1.362-0.458,1.428c-0.033,0.063-0.907,1.145-1.373,0.798c-0.881-0.654-0.984-1.812-1.099-2.183
				c-0.115-0.37-0.087-1.247-0.091-1.443c-0.006-0.198,0.116-0.984,0.127-1.226c0.012-0.241,0.674-1.23,0.674-1.23
				S244.945,178.561,245.695,178.886z M243.879,177.47c0,0-0.324,0.12-0.482,0.343c-0.053,0.071-1,1.68-0.834,3.27
				c0.164,1.59,0.732,3.77,1.025,4.093c0.297,0.324,1.094,1.014,1.524,1.069c0.431,0.061,0.835-0.167,0.894-0.168
				c0.064-0.001,1.105-0.864,1.105-0.864l1.716,2.21l1.222-1.803l-0.025-0.227L248.165,184c0,0,0.548-3.031,0.348-4.023
				c-0.211-1.026-0.362-1.429-1.165-2.256c0,0-0.87-0.503-1.849-0.515C244.524,177.192,243.879,177.47,243.879,177.47z"/>
			<pattern  id="SVGID_6_" xlink:href="#Neues_Musterfeld_1" patternTransform="matrix(0.0278 0 0 0.0278 -6189.7012 -5592.4077)">
			</pattern>
			<path fill="url(#SVGID_6_)" d="M250.114,177.578c0,0,0.047-0.442,0.125-0.466c0.072-0.026,0.581-0.056,0.62-0.042
				c0.038,0.009,0.307,0.672,0.307,0.672s-0.381,1.779-0.396,1.866c-0.014,0.089-0.023,0.293-0.023,0.293l-0.404,0.713l-0.432-0.156
				L250.114,177.578z"/>
			<pattern  id="SVGID_7_" xlink:href="#Neues_Musterfeld_1" patternTransform="matrix(0.0278 0 0 0.0278 -6189.7012 -5592.4077)">
			</pattern>
			<polygon fill="url(#SVGID_7_)" points="255.514,180.723 254.125,187.907 252.59,187.387 254.083,180.354 			"/>
			<pattern  id="SVGID_8_" xlink:href="#Neues_Musterfeld_1" patternTransform="matrix(0.0278 0 0 0.0278 -6189.7012 -5592.4077)">
			</pattern>
			<polygon fill="url(#SVGID_8_)" points="258.13,181.766 259.458,182.034 258.151,187.486 261.134,187.984 260.766,189.417 
				256.659,188.118 			"/>
			<pattern  id="SVGID_9_" xlink:href="#Neues_Musterfeld_1" patternTransform="matrix(0.0278 0 0 0.0278 -6189.7012 -5592.4077)">
			</pattern>
			<polygon fill="url(#SVGID_9_)" points="261.774,189.798 261.864,189.807 265.657,191.299 266.246,190.198 263.154,189.277 
				263.559,188.226 265.641,189.087 266.211,187.743 264.09,186.955 264.614,185.664 267.663,186.526 267.932,185.639 
				263.8,183.928 			"/>
			<pattern  id="SVGID_10_" xlink:href="#Neues_Musterfeld_1" patternTransform="matrix(0.0278 0 0 0.0278 -6189.7012 -5592.4077)">
			</pattern>
			<polygon fill="url(#SVGID_10_)" points="253.995,179.012 255.395,178.545 256.073,179.59 256.625,179.034 255.593,177.689 
				253.774,178.517 			"/>
		</g>
	</g>
	<g>
		<g>
			<pattern  id="SVGID_11_" xlink:href="#Neues_Musterfeld_1" patternTransform="matrix(0.0278 0 0 0.0278 -6189.7012 -5592.4077)">
			</pattern>
			<path fill="url(#SVGID_11_)" d="M70.353,200.77l-4.489-6.338c0.506-0.522,2.691-1.888,2.797-1.937
				c0.252-0.116,0.694-0.211,0.948-0.207c0.172,0.006,1.301,0.584,1.391,0.681c0.088,0.096,0.271,0.484,0.442,1.049
				c0.172,0.564,0.028,0.87-0.2,1.29c-0.395,0.721-1.772,1.76-1.772,1.76l1.83,2.857L70.353,200.77z M67.576,194.68l0.796,1.002
				l0.389,0.503c0,0,0.574-0.347,0.688-0.439c0.114-0.089,0.654-0.554,0.684-0.608c0.031-0.051,0.152-0.746,0.152-0.746
				s-0.186-0.83-0.414-0.881c-0.205-0.049-0.458-0.009-0.58,0.051c-0.124,0.062-0.72,0.369-0.72,0.369L67.576,194.68z"/>
			<pattern  id="SVGID_12_" xlink:href="#Neues_Musterfeld_1" patternTransform="matrix(0.0278 0 0 0.0278 -6189.7012 -5592.4077)">
			</pattern>
			<path fill="url(#SVGID_12_)" d="M71.083,191.303c0,0,1.075-0.482,1.146-0.48c0.066,0.001,0.872,2.023,0.872,2.023l0.614,1.452
				c0,0,0.612,1.454,0.641,1.545c0.032,0.09,1.508-0.522,1.584-0.55c0.077-0.031,0.945-0.374,1.019-0.348
				c0.072,0.027,0.242,0.063,0.242,0.063l0.319,0.78c0,0-2.34,1.003-2.536,1.078c-0.197,0.077-1.311,0.599-1.311,0.599
				s-0.175-0.436-0.191-0.452c-0.016-0.015-0.102-0.146-0.109-0.165C73.361,196.831,71.083,191.303,71.083,191.303z"/>
			<pattern  id="SVGID_13_" xlink:href="#Neues_Musterfeld_1" patternTransform="matrix(0.0278 0 0 0.0278 -6189.7012 -5592.4077)">
			</pattern>
			<path fill="url(#SVGID_13_)" d="M75.17,189.457c0,0,0.61-0.34,0.636-0.366c0.028-0.023,0.379-0.213,0.4-0.263
				c0.024-0.05,2.027,4.434,2.098,4.484c0.074,0.05,0.698,0.485,1.212,0.281c0.375-0.148,0.466-0.367,0.486-0.408
				c0.018-0.04,0.059-0.204,0.059-0.204s-0.114-0.671-0.186-0.801c-0.073-0.129-1.408-3.407-1.408-3.407l-0.411-0.809l0.94-0.495
				c0,0,2.04,4.206,2.117,4.398c0.075,0.191,0.247,1.129,0.2,1.305c-0.046,0.174-0.39,0.884-0.57,1.036
				c-0.177,0.149-0.935,0.705-1.1,0.75c-0.165,0.042-0.495,0.248-1.087,0.154c-0.404-0.061-0.609-0.262-0.609-0.262l-0.366-0.449
				L75.17,189.457z"/>
			<pattern  id="SVGID_14_" xlink:href="#Neues_Musterfeld_1" patternTransform="matrix(0.0278 0 0 0.0278 -6189.7012 -5592.4077)">
			</pattern>
			<path fill="url(#SVGID_14_)" d="M81.926,191.141c0,0-0.055,0.067-0.03,0.162c0.021,0.09,0.105,0.666,0.104,0.737
				c0,0.07,0.013,0.188,0.013,0.188s0.654,0.329,1.019,0.34c0.365,0.014,1.747-0.264,1.964-0.415
				c0.216-0.151,0.659-0.454,0.659-0.454s0.455-0.621,0.451-1.172c-0.003-0.553-0.207-1.53-0.684-1.729
				c-0.098-0.037-0.554-0.232-0.649-0.26c-0.105-0.03-0.562-0.197-1.217-0.058c-0.657,0.14-1.267,0.381-1.277,0.393
				c-0.009,0.015-0.373-0.602-0.373-0.602s0.028-0.329,0.195-0.468c0.167-0.141,1.136-0.455,1.136-0.455s0.295-0.096,0.354-0.083
				c0.061,0.016,1.682,0.354,1.682,0.354l0.235-0.9c0,0-1.33-0.877-2.353-0.604c-0.56,0.149-1.33,0.52-1.368,0.554
				c-0.039,0.033-0.986,0.522-1.009,1.599c-0.021,1.077,0.281,1.212,0.297,1.229c0.016,0.017,0.565,0.376,0.823,0.396
				c0.258,0.021,0.879,0.05,0.917,0.043c0.037-0.007,0.576-0.272,0.951-0.165c0.375,0.11,0.577,0.251,0.632,0.317
				c0.055,0.066,0.217,0.389,0.195,0.522c-0.021,0.132-0.077,0.335-0.12,0.377c-0.045,0.038-0.517,0.182-0.713,0.181
				c-0.196-0.001-0.977,0.007-0.977,0.007L81.926,191.141z"/>
			<pattern  id="SVGID_15_" xlink:href="#Neues_Musterfeld_1" patternTransform="matrix(0.0278 0 0 0.0278 -6189.7012 -5592.4077)">
			</pattern>
			<path fill="url(#SVGID_15_)" d="M89.614,183.884c0.775,0.187,1.368,1.277,1.428,1.533c0.06,0.255,0.106,2.095,0.106,2.095
				s-0.222,1.424-0.246,1.497c-0.021,0.068-0.719,1.296-1.224,1.036c-0.947-0.49-1.211-1.618-1.376-1.967
				c-0.165-0.345-0.259-1.221-0.291-1.414c-0.036-0.194-0.028-0.996-0.051-1.235c-0.022-0.242,0.482-1.341,0.482-1.341
				S88.839,183.697,89.614,183.884z M87.648,182.806c0,0-0.298,0.177-0.421,0.425c-0.041,0.08-0.735,1.844-0.354,3.39
				c0.387,1.546,1.246,3.603,1.58,3.873c0.333,0.267,1.203,0.809,1.631,0.787c0.429-0.018,0.789-0.316,0.849-0.328
				c0.059-0.013,0.95-1.054,0.95-1.054l1.982,1.884l0.937-2.006l-0.059-0.22l-2.004-1.048c0,0,0.105-3.102-0.231-4.048
				c-0.348-0.979-0.551-1.353-1.453-2.027c0,0-0.916-0.343-1.87-0.182C88.234,182.416,87.648,182.806,87.648,182.806z"/>
			<pattern  id="SVGID_16_" xlink:href="#Neues_Musterfeld_1" patternTransform="matrix(0.0278 0 0 0.0278 -6189.7012 -5592.4077)">
			</pattern>
			<path fill="url(#SVGID_16_)" d="M93.731,181.797c0,0-0.016-0.446,0.052-0.484c0.072-0.039,0.562-0.158,0.602-0.151
				c0.039,0.004,0.393,0.611,0.393,0.611s-0.121,1.832-0.123,1.921c0,0.088,0.018,0.294,0.018,0.294l-0.291,0.777l-0.442-0.079
				L93.731,181.797z"/>
			<pattern  id="SVGID_17_" xlink:href="#Neues_Musterfeld_1" patternTransform="matrix(0.0278 0 0 0.0278 -6189.7012 -5592.4077)">
			</pattern>
			<polygon fill="url(#SVGID_17_)" points="99.43,183.949 99.092,191.315 97.523,191.076 97.983,183.838 			"/>
			<pattern  id="SVGID_18_" xlink:href="#Neues_Musterfeld_1" patternTransform="matrix(0.0278 0 0 0.0278 -6189.7012 -5592.4077)">
			</pattern>
			<polygon fill="url(#SVGID_18_)" points="102.125,184.514 103.452,184.544 102.951,190.179 105.924,190.138 105.767,191.623 
				101.585,191.071 			"/>
			<pattern  id="SVGID_19_" xlink:href="#Neues_Musterfeld_1" patternTransform="matrix(0.0278 0 0 0.0278 -6189.7012 -5592.4077)">
			</pattern>
			<polygon fill="url(#SVGID_19_)" points="106.8,191.822 106.892,191.814 110.792,192.615 111.21,191.419 108.072,191.058 
				108.318,189.944 110.466,190.424 110.832,188.992 108.656,188.59 108.982,187.216 112.073,187.526 112.21,186.598 
				107.948,185.643 			"/>
			<pattern  id="SVGID_20_" xlink:href="#Neues_Musterfeld_1" patternTransform="matrix(0.0278 0 0 0.0278 -6189.7012 -5592.4077)">
			</pattern>
			<polygon fill="url(#SVGID_20_)" points="97.709,182.524 99.005,181.813 99.814,182.727 100.272,182.076 99.08,180.93 
				97.425,182.073 			"/>
		</g>
	</g>
</g>
</svg>
