<?xml version="1.0" encoding="utf-8"?>
<!-- Generator: Adobe Illustrator 16.0.4, SVG Export Plug-In . SVG Version: 6.00 Build 0)  -->
<!DOCTYPE svg PUBLIC "-//W3C//DTD SVG 1.1//EN" "http://www.w3.org/Graphics/SVG/1.1/DTD/svg11.dtd">
<svg version="1.1" id="Ebene_1" xmlns="http://www.w3.org/2000/svg" xmlns:xlink="http://www.w3.org/1999/xlink" x="0px" y="0px"
	 width="283.46px" height="425.2px" viewBox="0 0 283.46 425.2" enable-background="new 0 0 283.46 425.2" xml:space="preserve">
<g>
	<path fill="#245977" d="M127.608,159.631c0.08,0.46,0.942,0.543,1.335,0.716c0.637,0.288,1.118,0.729,1.693,1.099
		c1.037,0.665,2.319,1.109,3.479,1.559c1.582,0.64,3.336,0.966,4.927,1.521c2.013,0.665,3.747,1.795,5.707,2.485
		c1.682,0.594,3.439,1.332,5.113,2.031c0.604,0.244,1.146,0.572,1.742,0.761c0.564,0.179,1.15,0.275,1.704,0.53
		c2.299,1.006,4.731,1.604,7.041,2.537c0.658,0.242,2.013,0.677,2.495,1.259c-0.318,1.771-1.396,1.85-2.29,2.702
		c-0.821,0.799-1.643,1.572-2.494,2.277c-0.429,0.33-0.739,0.77-1.231,1.077c-0.646,0.402-1.138,1.325-1.743,0.78
		c-0.422-0.378-1.623-1.097-2.084-1.375c-0.586-0.37-1.264-0.473-1.91-0.76c-2.402-1.086-4.834-2.185-7.379-2.978
		c-1.192-0.368-2.392-0.39-3.572-0.678c-1.221-0.325-2.402-0.594-3.685-0.808c-2.196-0.371-4.372-0.616-6.57-0.891
		c-0.862-0.106-1.651-0.281-2.277-1.012c-0.84-0.951-0.635-1.627-0.329-2.746c0.505-2.013-0.031-3.853-1.15-5.565
		c-0.204-0.306-0.626-0.738-0.729-1.108c-0.131-0.533,0.176-0.891,0.432-1.447c0.218-0.491,0.956-2.146,1.498-2.229
		c0.042,0.083,0.093,0.166,0.125,0.262c0.227,0,0.463,0.02,0.677,0.028"/>
	<path d="M139.77,197.76c2.291-2.97,4.508-6.048,7.115-8.789c2.441-2.562,4.998-5.006,7.594-7.417
		c3.993-3.669,8.037-7.381,12.338-10.654c1.961-1.512,3.816-3.192,5.655-4.825c2.104-1.85,5.378-3.964,8.385-3.868
		c1.982,0.061,10.779,0.07,11.455,1.661c0.379,0.896,3.757,8.517,3.941,9.454c0.216,1.018-7.738,2.143-8.438,2.947
		c-1.003,1.17-5.028-2.013-6.044-0.823c-1.406,1.674-3.007,2.944-4.689,4.28c-1.54,1.188-3.07,2.412-4.711,3.438
		c-2.146,1.345-4.386,2.658-6.643,3.789c-2.997,1.495-5.604,3.786-8.333,5.674c-2.763,1.91-5.297,4.075-8.037,6.006
		c-1.673,1.182-3.233,2.453-4.711,3.847c-1.899,1.827-3.982,3.545-6.046,5.165c-0.719,0.533-1.518,1.252-2.31,1.671
		c-0.534,0.236-1.334,0.824-1.93,0.855c-2.227,0.153-0.636-3.677-0.174-4.601c0.688-1.404,1.087-2.771,2.229-3.908
		C137.605,200.478,138.735,199.104,139.77,197.76z"/>
	<path d="M190.146,186.757c2.658-0.687,3.933,0.163,5.44,2.195c4.618,6.2,4.411,14.771,1.897,21.524
		c-1.673,4.487-3.942,8.684-6.507,12.972c-1.888,3.152-3.521,6.437-5.441,9.628c-2.072,3.457-3.642,7.063-5.294,10.644
		c-0.944,2.065-2.033,4.084-2.795,6.249c-0.45,1.275-0.882,2.703-1.425,3.91c-1.016,2.212-2.515,4.722-4.188,6.461
		c-1.178-0.249-2.36-2.371-3.487-3.029c-1.468-0.862-2.372-1.692-3.584-2.885c0.318-3.312,2.146-6.858,3.47-9.894
		c0.985-2.259,1.653-4.793,2.442-7.156c0.926-2.728,2.013-5.367,3.017-8.076c2.034-5.674,3.913-11.354,6.006-17.027
		c1.53-4.165,2.985-8.428,4.782-12.49c0.494-1.087,1.694-5.809,1.694-5.7C186.174,194.082,185.731,187.875,190.146,186.757z"/>
	<path d="M140.17,208.062c-1.004,2.856,2.116,6.312,3.982,8.028c3.471,3.172,8.252,5.316,12.297,7.718
		c0.871,0.553,2.681,2.124,3.758,1.888c0.851-0.186,1.765-1.521,2.339-2.146c5.666-6.453,10.941-13.351,16.32-20.013
		c1.025-1.283,2.318-2.238,3.396-3.449c0.771-0.872,1.613-1.837,2.517-2.595c1.775-1.511,3.406-1.455,5.47-1.079
		c1.448,0.274,1.52,0.646,1.562,2.146c0.039,1.157,0.021,2.319,0.039,3.489c0.074,4.996-0.236,10.108,0,15.158
		c0.237,4.968-0.009,9.917-0.019,14.936c-0.021,4.639,1.837,9.475,1.591,14.041c-0.269,4.916-0.535,20.631,1.539,20.166
		c3.16-0.709,6.836-2.125,9.741-4.104c0.135-1.406-0.319-2.607-0.176-3.263c0.38-1.808,0.228-3.964,0.491-5.833
		c0.956-6.844,3.646-14.102,3.882-20.969c0.039-2.154,0.513-4.391,0.77-6.537c0.195-1.865,0.461-3.726,0.79-5.565
		c0.584-3.393,1.294-6.833,1.375-10.252c0.175-6.609,0.935-13.279,0.698-19.893c-0.102-3.387-0.287-6.996-1.229-10.335
		c-0.434-1.446-1.316-2.687-2.024-4.022c-0.646-1.188-1.292-2.647-2.341-3.635c-2.647-2.533-6.988-3.252-10.407-4.096
		c-1.343-0.316-2.751-0.501-4.054-0.595c-2.248-0.162-4.271,1.151-6.302,1.972c-4.199,1.665-8.253,3.368-11.987,5.728
		c-2.196,1.368-4.261,3.387-6.118,5.172c-2.546,2.445-5.264,4.7-8.006,6.91c-3.798,3.08-7.204,6.415-10.879,9.598
		c-1.438,1.239-2.722,2.657-4.107,3.939c-0.339,0.315-1.098,0.885-1.722,1.511c-0.454,1.066-0.874,2.165-1.498,3.2
		C141.342,206.154,140.508,207.119,140.17,208.062z"/>
	<path fill="#245977" d="M114.06,156.868c1.058,1.562,8.971,9.206,10.019,7.74c0.523-0.729,7.041-10.389,7.555-11.108
		c0.471-0.668,1.026-1.159,1.499-1.971c0.983-1.674,1.948-1.814,2.832,0.051c0.727,1.531,1.189,2.863,2.196,4.271
		c0.984,1.348,2.523,2.599,4.208,2.506c1.354-0.073,2.914-0.502,4.094-1.108c1.284-0.667,2.486-1.521,3.827-2.022
		c0.979-0.371,1.777-0.648,2.66-1.336c1.777-1.433,3.233-3.363,4.887-5.008c1.734-1.745,3.665-2.719,4.969-4.866
		c1.24-2.092,2.309-4.677,2.82-6.967c0.472-2.023,0.268-4.096-0.041-6.16c-0.368-2.553-0.544-5.121-1.221-7.606
		c-0.585-2.236-1.797-4.575-2.75-6.67c-1.161-2.607-3.184-6.013-5.563-7.553c-2.844-1.808-5.183-2.546-8.581-2.523
		c-3.438,0.038-6.486,0.817-9.781,1.477c-5.983,1.149-9.814,5.244-12.185,10.694c-1.156,2.668-1.342,5.399-1.559,8.28
		c-0.224,2.896-1.087,5.72-1.017,8.602c0.062,2.239,0.269,4.484-0.041,6.644c-0.153,1.126-0.543,2.358-1.396,3.304
		c-0.654,0.729-6.938,2.022-7.801,2.575c-0.132-0.316,0.102,2.907,0.102,2.907l0,0l0,0
		C113.791,151.019,113.526,156.079,114.06,156.868z"/>
	<path fill="#FF0000" d="M134.607,260.028c0.556-1.158,0.76,4.509-0.39,5.111c-3.458,6.703-16.727,5.544-23.154,6.866
		c-9.166,1.86-16.134-10.549-24.079-16.779c-13.909-10.893-23.729-10.829-23.822-28.731c-0.073-16.894,6.003-37.236,15.929-50.227
		c5.214-6.807,11.424-11.641,18.065-16.906c5.582-4.446,10.183-12.069,17.951-11.763c-3.223,10.159,5.256,15.149,11.958,20.516
		c-0.009,13.54-10.367,20.744-8.368,32.548c1.521,9.063-2.657,16.452-1.181,25.382c0.518,3.038,7.054,7.639,8.44,10.367
		c2.197,4.35,6.341,6.375,9.749,9.822c2.176,2.188,3.91-0.421,4.651,2.515c1.168,4.639-1.017,6.754-3.389,10.696"/>
	<path fill="#245977" d="M209.31,208.721c0.246,0.069,0.491-0.461,0.656-0.608c0.306-0.255,0.656-0.447,0.983-0.645
		c0.453-0.298,1.214-1.521,0.195-1.642c-0.133-0.013-0.307,0.113-0.43,0.152c-0.196,0.064-0.35,0.097-0.586,0.084
		c-1.169-0.02-2.195,0.07-3.326,0.339c-0.839,0.194-1.743,0.351-2.595,0.452c-0.721,0.112-1.346-0.3-2.062-0.184
		c-0.638,0.088-1.191,0.5-1.725,0.816c-0.618,0.384-0.351,0.649-1.151,0.486c-1.456-1.131-7.727-2.761-9.062-4.044
		c-2.207-2.135-4.958-4.249-7.636-5.821c-8.026-4.76-16.382-9.226-24.921-12.951c-3.91-1.706-7.481-4.619-11.271-6.242
		c-1.918-0.821-3.868-2.096-5.696-2.996c-2.493-1.183-4.657-2.937-7.162-4.115c-2.342-1.117-4.916-1.758-7.144-3.099
		c-0.453-0.282-0.833-0.626-1.233-0.945c-0.235-0.046-7.309-4.969-12.797,1.159c-1.859,2.083-2.884,3.232-2.269,5.799
		c0.595,2.472,2.02,5.04,3.54,7.104c1.743,2.37,3.111,3.457,6.21,4.862c0,0,7.891,0.515,8.847,1.131
		c6.136,4.051,14.011,5.653,20.403,9.286c6.404,3.601,30.526,13.274,33.861,14.431c2.535,0.885,5.216,1.687,7.697,3.228
		c1.273,0.746,6.251,1.618,7.505,2.421c0.205,0.131,5.397,5.06,8.332,4.843c2.229-0.165,9.137-4.938,9.351-7.104
		c0.175-1.648-0.553-4.741-0.861-6.389c-0.401-2.007-1.222-3.451-2.801-1.521c-1.756,2.121,0.799,2.204-2.137,2.093
		c-2.298-0.125-1.271-0.022-3.326-0.993c-1.14-0.548-2.082-0.979-3.221-1.298c-0.041-0.006-0.093-0.02-0.125-0.052"/>
	<path d="M51.329,197.06c-1.664,5.185-2.435,10.654-2.601,16.076c-0.09,3.181-0.39,6.238-0.307,9.41
		c0.042,2.228,0.557,4.467,0.566,6.671c0.041,5.266,3.325,10.581,6.206,14.902c3.163,4.732,6.602,9.269,10.44,13.46
		c5.07,5.502,11.518,9.686,17.881,13.513c4.722,2.825,9.67,5.757,14.666,7.978c3.01,1.332,6.785,1.99,10.08,2.565
		c2.996,0.544,5.695,0.256,8.756-0.114c3.24-0.391,6.383-1.783,9.246-3.087c2.657-1.214,5.472-2.383,7.894-3.974
		c4.843-3.192,8.222-8.354,11.967-12.376c1.909-2.056,3.993-3.831,5.45-6.295c1.734-2.926,3.747-5.561,5.512-8.516l6.425-10.696
		c1.972-3.304,4.578-6.702,6.056-10.235c-1.087-1.652-3.305-3.058-4.926-4.288c-3.859-2.957-7.657-6.075-11.559-8.991
		c-2.565-1.94-5.316-3.91-7.521-6.179c-1.408-1.406-2.753-3.09-4.629-3.953c-3.12,3.98-5.935,9.402-7.924,13.878
		c-2.218,4.945-6.63,9.236-7.863,14.356c-0.799-1.197-1.108-3.577-1.424-4.978c-0.537-2.194-1.08-4.392-1.553-6.618
		c-0.821-3.981-1.962-8.16-2.093-12.245c-0.144-4.147,0.585-8.684,1.642-12.667c0.473-1.751,0.956-3.446,1.838-5.099
		c0.523-1.017,0.862-1.61,1.325-2.722c-0.393-0.236-1.315,0.064-1.684-0.134c-0.556,2.239-1.93,3.463-1.85,5.556
		c0.073,1.785-0.872,3.283-1.467,4.967c-0.636,1.726-0.83,2.668-2.208,4.104c-0.983-0.603-2.421-0.616-3.549-0.904
		c-1.251-0.306-2.484-0.778-3.737-1.219c-2.588-0.901-5.172-1.675-7.501-3.438c-5.176-3.922-2.968-10.472-2.549-16.216
		c0.095-1.354,0.319-2.702,0.606-4.038c1.108-4.933,3.716-9.884,7.955-12.816c2.903-2.032,7.276-3.297,10.407-1.09
		c1.735,1.224,3.006,2.917,4.496,4.405c0.463,0.02,3.14,2.984,3.571,3.067c1.121-1.734-2.996-7.297-4.074-8.612
		c-1.539-1.886-2.957-3.304-5.49-3.15c-2.319,0.134-4.703,0.955-6.786,1.975c-1.025,0.511-1.875,1.354-2.964,1.853
		c-0.997,0.463-2.144,0.773-2.969,1.511c-0.657-1.725-1.888-3.696-1.127-5.612c0.799-2.004,2.996-3.803,4.424-5.259
		c1.23-1.239,2.802-1.981,4.536-2.576c1.156-0.376,1.24,0.094,2.02-0.829c0.699-0.812,3.325-0.585,3.756-1.521
		c-1.137-0.646-2.523-3.239-4.002-3.029c-0.882,0.147-1.55,0.761-2.328,1.122c-1.674,0.789-3.562,1.262-5.288,1.899
		c-2.942,1.067-5.888,2.113-8.712,3.426c-3.172,1.501-6.242,3.15-9.373,4.74c-9.101,4.568-18.289,9.239-24.959,17.185
		C57.99,179.405,54.18,188.162,51.329,197.06z"/>
	<path fill="#FF0000" d="M147.602,150.688c-0.44-1.498-2.564-1.826-3.14-2.3c-0.78,1.602,1.252,3.242,2.36,3.92
		c1.583,0.959,2.854,0.78,4.474-0.121c-0.654-0.307-1.095-0.946-1.683-1.374C148.896,150.277,148.373,151.14,147.602,150.688"/>
	<path fill="#FF0000" d="M179.07,314.501c0.925-0.699,1.745-1.725,2.515-2.504c0.729-0.729,1.469-1.591,2.124-2.435
		c2.917-3.738,5.153-8.619,7.011-12.85c0.995-2.217,2.32-4.21,3.212-6.446c0.914-2.227,1.849-4.472,2.69-6.743
		c1.274-3.326,2.812-6.967,4.661-10.016c0.84-1.367,1.539-2.806,2.217-4.252c0.256-0.514,0.543-1.077,0.656-1.632
		c0.082-0.34,1.705-5.43,1.826-6.557c0.278-2.639,0.555-5.348,0.667-8.038c0.031-1.335,0.229-2.647,0.565-3.941
		c0.091-0.319,0.227-0.626,0.379-0.952c-1.264,0.53-2.617,0.869-3.961,1.188c-2.012,0.454-4.054,0.791-6.118,0.894
		c-1.591,0.083-3.91,0.091-5.685-0.625c-0.093,0.585-0.245,1.179-0.329,1.776c-0.195,1.259-0.124,2.339-0.093,3.609
		c0.081,3.019-0.902,5.718-1.067,8.733c-0.061,1.573,0.103,3.233-0.4,4.754c-0.739,2.287-2.381,1.419-4.321,1.211
		c-2.659-0.297-3.91,0.668-4.629,3.141c-0.667,2.179-1.303,4.312-1.745,6.652c-0.195,1.034,0.452,5.449,1.161,6.037
		c1.775,1.476,0.86,3.488,0.471,5.315c-0.471,2.135-0.995,3.942-1.611,6.031c-1.385,4.671-2.206,9.526-2.793,14.313
		C176.27,312.859,176.802,316.194,179.07,314.501z"/>
	<path fill="#FF0000" d="M147.182,293.097c3.172-2.224,6.024-5.539,8.446-8.414c1.284-1.518,2.771-2.761,3.984-4.287
		c1.21-1.54,2.453-3.124,3.623-4.693c1.755-2.329,3.785-4.834,5.941-6.795c0.965-0.882,1.846-1.837,2.699-2.802
		c0.318-0.361,3.419-5.019,3.758-5.9c0.8-2.054,1.591-4.159,2.247-6.294c0.309-1.055,0.749-2.063,1.312-3.015
		c0.329-0.596,1.049-1.118,1.438-1.768c-2.627,0.936-5.943-0.152-8.333-1.169c-1.479-0.636-2.936-1.438-4.209-2.476
		c-0.309-0.236-0.596-0.502-0.874-0.767c0.083,1.035-1.271-0.103-1.2,2.25c0.021,1.053-0.758,3.282-0.984,4.328
		c-0.584,2.453-1.972,4.341-2.731,6.743c-0.389,1.234-3.592,4.179-5.12,3.469c-2.104-0.954-3.336-0.504-4.454,1.259
		c-0.997,1.595-3.07,9.259-3.161,10.063c-0.278,2.574-0.042,3.047-0.749,4.39c-0.811,1.613-1.633,2.916-2.566,4.415
		c-2.135,3.377-2.526,11.322-1.725,10.933C145.242,292.196,146.453,293.583,147.182,293.097z"/>
	<path d="M123.267,228.406c-0.166-0.294,1.201-2.219,1.549-2.825c0.988-1.64,1.458-3.495,2.249-5.22
		c1.346-2.977,2.432-6.224,3.419-9.331c0.696-2.105,1.406-4.227,2.031-6.313c0.172-0.521,1.232-3.427,1.498-3.437
		c0.175,0.574,0.647,1.006,0.924,1.484c0.288,0.557,0.474,1.164,0.738,1.706c0.514,0.924,1.067,1.848,1.601,2.854
		c0.606,1.14,1.193,1.938,0.967,3.204c-0.175,1.086-0.718,2.224-1.19,3.201c-1.788,3.789-4.29,7.143-6.734,10.51l-6.651,10.623
		L123.267,228.406z"/>
	<path d="M150.795,134.451c-0.707-0.741-2.055-0.399-3.11-0.607c-1.254-0.233-2.78,0.022-1.621,1.534
		c1.15-0.547,1.919-0.557,2.903-0.18c1.777,0.678,2.599,1.02,3.788,1.622C152.53,136.094,151.523,134.738,150.795,134.451"/>
	<path d="M161.818,144.654c-0.226-1.591-0.953-2.443-3.233-5.36c-0.248,0.198-0.308,1.571-0.351,1.873
		c1.028,0.459,1.663,1.178,2.157,2.133c0.288,0.543,0.492,0.883,0.75,1.495c0.234,0.575-0.276,0.831,0.029,1.348
		C161.808,145.37,161.561,145.626,161.818,144.654"/>
	<path fill="#FFFFFF" d="M146.453,137.461c0.236-0.023,0.471-0.102,0.687-0.116c0.3-0.019,0.483-0.356,0.78-0.347
		c0.564,0.009,1.201,0.207,1.734,0.439c0.585,0.259,2.002,1.716,1.294,2.505c-0.319,0.381-0.709-0.176-0.946-0.412
		c-0.325-0.348-0.553-0.812-0.983-1.016c-0.45-0.204-1.117-0.287-1.61-0.428c-0.484-0.135-0.37-0.014-0.843-0.135
		c-0.153-0.329-0.021-0.37,0.083-0.536"/>
	<path fill="#FFFFFF" d="M156.615,143.926c0.233-0.352,0.831-0.216,1.107-0.051c0.512,0.288,0.883,0.697,1.129,1.202
		c0.214,0.376,0.482,0.811,0.534,1.271c0.021,0.186-0.021,0.326-0.021,0.512c0,0.197,0.114,0.453,0.021,0.588
		c-0.114-0.391-0.513-0.896-0.78-1.202c-0.287-0.328-0.646-0.626-1.027-0.83c-0.378-0.207-0.79-0.412-1.159-0.639
		c-0.442-0.275,0.133-0.576,0.369-0.818"/>
	<path fill="#245977" d="M148.423,138.311c0-0.083,0.043-0.185,0.043-0.288c0-0.102-0.043-0.186-0.043-0.288
		c0-0.186,0.083-0.37,0.228-0.46c0.348-0.226,0.688,0.008,1.004,0.163c0.154,0.074,0.278,0.163,0.454,0.246
		c0.121,0.051,0.204,0.237,0.224,0.39c0.125,0.381-0.307,0.803-0.575,1.016c-0.05-0.051-0.05,0.042-0.05,0.042
		c-0.094-0.061-0.164-0.204-0.258-0.287c-0.083-0.093-0.226-0.144-0.328-0.215c-0.103-0.063-0.205-0.092-0.327-0.152
		c-0.094-0.022-0.248-0.064-0.31-0.103"/>
	<path d="M149.613,138.073c-0.04-0.121-0.287-0.236-0.409-0.236c-0.218-0.019-0.349,0.103-0.39,0.227
		c-0.114,0.247,0.144,0.524,0.523,0.617c0.339,0.07,0.565-0.115,0.543-0.351c-0.019-0.164-0.543-0.781-0.697-0.596"/>
	<path fill="#245977" d="M157.291,145.003c0.03-0.102,0.082-0.185,0.104-0.287c0.02-0.102,0.01-0.209,0.02-0.311
		c0.032-0.191,0.155-0.358,0.329-0.408c0.348-0.104,0.594,0.268,0.842,0.523c0.123,0.134,0.225,0.274,0.359,0.403
		c0.102,0.121,0.135,0.335,0.135,0.491c0.019,0.421-0.451,0.728-0.761,0.85c-0.041-0.051-0.041,0.031-0.041,0.031
		c-0.082-0.102-0.103-0.277-0.165-0.379c-0.052-0.136-0.184-0.237-0.276-0.34c-0.062-0.111-0.153-0.185-0.258-0.265
		c-0.081-0.082-0.184-0.166-0.245-0.235"/>
	<path d="M158.399,145.156c0-0.131-0.184-0.329-0.309-0.38c-0.183-0.09-0.317-0.01-0.398,0.093
		c-0.153,0.214,0.019,0.597,0.348,0.834c0.278,0.204,0.524,0.078,0.565-0.167c0.022-0.173-0.328-1.006-0.515-0.862"/>
	<g>
		<path fill="#FFFFFF" d="M90.761,154.085c-0.737,1.419,0.022,0.44-0.153,0.32c0.297,3.264,1.806,5.646-2.144,6.999
			c-3.552,1.22-5.625,0.06-7.722-2.834c1.613-0.422,2.987-1.836,4.272-2.695c1.725-1.132,3.683-1.585,5.704-2.087
			c-0.287,0.073-0.573,0.144-0.861,0.227"/>
		<path fill="#FFFFFF" d="M89.48,178.505c-0.084-3.514-6.447-3.616-8.715-2.217c-1.911,1.188-2.435,5.584-0.761,7.194
			C83.309,186.703,92.742,181.038,89.48,178.505"/>
		<path fill="#FFFFFF" d="M72.51,167.03c1.132-0.301,1.512-1.233,2.662-0.832c1.517,0.551,1.332,1.938,1.044,3.16
			c-0.399,1.735-1.568,3.582-3.086,4.444c-2.384,1.354-4.374,0.821-3.655-2.114c0.429-1.727,1.735-3.099,3.16-4.148"/>
		<path fill="#FFFFFF" d="M71.772,207.334c2.045-6.383-8.29-7.552-7.71-0.358c0.608,7.515,8.345,3.326,8.102-2.44"/>
		<path fill="#FFFFFF" d="M67.054,186.294c-3.316-2.051-7.523,3.91-4.764,6.642c3.416,3.396,7-4.342,5.767-6.879"/>
		<path fill="#FFFFFF" d="M91.541,197.501c-0.122,0.146-0.225,0.3-0.349,0.44c-0.218-2.204-3.191-2.268-4.741-1.221
			c-1.539,1.067-2.114,4.448-1.089,6.006c3.715,5.616,8.539-6.22,4.773-6.497"/>
		<path fill="#FFFFFF" d="M102.491,171.976c-0.028-0.039-0.366,0.235-0.162-0.37c-2.125,0.153-3.47,0.574-4.651,2.268
			c-1.15,1.655-1.796,4.034-0.502,5.546c3.934,4.586,4.773-4.856,5.274-6.826c-0.358,0.04-0.594,0.277-0.729,0.676"/>
		<path fill="#FFFFFF" d="M103.118,159.362c-0.227,0.502-0.266,0.544-0.131,0.111c0.469-2.443-3.646-2.397-5.102-1.539
			c-2.751,1.591-2.3,5.44-1.253,7.933c2.751,6.613,10.366-4.259,7.121-6.128"/>
		<path fill="#FFFFFF" d="M107.543,152.066c-0.052,0.172,1.775-1.016,1.692-0.844c2.547-2.3-0.695-4.978-4.986-3.099
			c-3.677,1.601-0.552,8.354,3.345,5.15c0.084-0.316,1.827-1.754,1.642-2.052"/>
		<path fill="#FFFFFF" d="M109.522,206.566c-0.542-3.593-8.989-0.258-7.555,4.588c0.771,2.511,3.789,2.37,5.709,0.901
			c1.437-1.1,2.319-3.693,3.066-5.252c-0.428-0.568-1.118-0.772-1.846-0.627"/>
		<path fill="#FFFFFF" d="M91.726,218.962c-0.02-4.504-9.842-0.273-6.948,4.898c0.975,1.785,4.281,1.066,5.431-0.132
			c1.128-1.194,2.358-6.14,0.492-6.674"/>
		<path fill="#FFFFFF" d="M67.309,228.521c-0.491-1.859-0.811-1.662-3.051-1.405c-2.626,0.274-2.523,2.269-2.152,4.337
			c0.348,2.116,2.626,5.432,5.101,3.482C68.51,233.9,68.858,229.401,67.309,228.521"/>
		<path fill="#FFFFFF" d="M57.61,209.263c-3.061,2.732-3.604,6.805-2.105,10.737c4.361,0.441,5.533-11.113,1.897-10.43"/>
		<path fill="#FFFFFF" d="M51.502,228.149c-0.432,0.115-0.441,0.115-0.07,0c3.888-1.346,3.498,6.263,1.313,7.738
			c-0.27,0.175-0.432,0.051-0.474-0.35"/>
		<path fill="#FFFFFF" d="M53.399,194.6c-0.428,0.089-0.44,0.089-0.061-0.022c4.731-0.021-1.067,8.633-2.269,9.751
			c-1.075-1.684,0.751-8.521,2.269-9.751"/>
		<path fill="#FFFFFF" d="M60.176,247.649c-0.061,0.177-0.144,0.34-0.227,0.516c1.335,0.185,2.072-0.994,3.297-1.282
			c1.753-0.411,2.982,0.317,3.702,1.783c1.201,2.352,1.776,5.668,0.342,7.833c-1.451-1.221-2.755-2.536-4.034-3.98
			c-1.285-1.451-1.468-2.076-2.918-4.015"/>
		<path fill="#FFFFFF" d="M84.656,235.725c0.09,0.431,0.102,0.45,0.038,0.061c-0.422-3.55-8.118,0.895-6.466,4.795
			c0.595,1.435,2.772,1.889,4.146,1.19c1.726-0.912,2.863-3.852,2.29-5.514"/>
		<path fill="#FFFFFF" d="M104.31,229.003c-0.122,0.144-0.204,0.297-0.329,0.441c-1.262-3.985-11.545,3.107-7.37,7.338
			c4.188,4.262,10.348-6.294,6.428-8.539"/>
		<path fill="#FFFFFF" d="M114.501,217.774c-1.229,0.348-2.658-0.511-3.99,1.405c-0.938,1.364-1.233,4.156-0.249,5.635
			c3.134,4.68,9.67-3.398,6.159-5.891"/>
		<path fill="#FFFFFF" d="M124.602,238.567c-0.422,0.106-0.44,0.112-0.031,0.042c2.072-1.869-2.606-3.274-4.004-2.885
			c-2.258,0.635-3.612,3.131-3.511,5.235C117.375,247.496,126.519,244.513,124.602,238.567"/>
		<path fill="#FFFFFF" d="M128.059,256.672c-0.396,0.153-0.429-1.208-0.377-1.527c0.236-0.166,0.163,0.901,0.061,0.664
			c-2.77-2.115-6.29,4.271-3.85,6.122c4.146,3.13,5.84-4.281,3.789-6.786"/>
		<path fill="#FFFFFF" d="M110.445,251.336c-0.615,0.976-1.28,0.391-1.919,0.953c-0.696,0.606-1.304,1.501-1.713,2.393
			c-0.657,1.336-2.03,4.2-0.103,5.061c2.862,1.304,4.658-5.172,4.115-6.886"/>
		<path fill="#FFFFFF" d="M97.435,246.994c-1.274,0.228-9.936,1.263-5.135,4.938C95.224,254.189,98.604,249.784,97.435,246.994"/>
		<path fill="#FFFFFF" d="M85.157,260.53c-0.432,0.126-0.45,0.126-0.083,0c2.782-0.626,8.428,1.789,6.16,5.367
			c-1.519,2.486-6.93-2.009-6.754-4.041c0.266-0.208-0.092-0.811,0.245-0.811"/>
		<path fill="#FFFFFF" d="M108.415,273.526c-0.357,0.564,0.041-0.339-0.812-0.729c-1.026-0.472-2.207-0.524-3.262-0.439
			c-2.013,0.19-3.892,1.188-2.946,3.468c1.169,2.771,9.176,3.087,7.288-1.284"/>
		<path fill="#FFFFFF" d="M88.01,272.131c1.234,0.802,3.326,0.176,3.429,2.75c-1.201-0.811-2.556-1.622-3.808-2.102"/>
		<path fill="#FFFFFF" d="M75.747,251.336c0.111,0.43,0.121,0.451,0.009,0.083c-0.924-1.725,1.415-4.395,3.316-4.197
			c2.162,0.236,1.961,4,1.508,5.635c-1.234,4.403-4.793,3.477-5.051-0.823"/>
		<path fill="#FFFFFF" d="M126.911,271.584c-0.105,0.157-0.226,0.31-0.319,0.454c-0.993-3.233-7.408,0.792-7.369,3.664
			c0.021,2.24,1.941,3,3.859,2.291c2.433-0.896,1.878-2.997,2.556-4.98"/>
		<path fill="#FFFFFF" d="M142.993,262.144c-0.246,0.521,0.749-0.329,0.883-0.76c0.462-2.565-10.027-1.855-7.522,4.598
			c2.145,5.565,8.723,0.124,7.522-4.598"/>
		<path fill="#FFFFFF" d="M135.942,234.093c0.124,0.411,0.124,0.421,0.061,0.031c-0.953-0.83-3.725-0.824-4.905,0.051
			c-1.694,1.233-2.186,6.166-0.154,7.596c5.083,3.551,9.564-6.477,5.513-7.8"/>
		<path fill="#FFFFFF" d="M149.728,243.656c-1.077,0.691-3.808-0.325-5.45,1.438c-1.355,1.45-2.207,6.722-0.709,8.255
			C147.756,257.629,152.652,247.139,149.728,243.656"/>
		<path fill="#FFFFFF" d="M148.188,228.859c-1.233,1.917-3.584,0.39-4.221,3.22c-0.594,2.578,1.182,4.735,3.798,4.639
			c3.809-0.16,6.529-8.702,1.313-8.628"/>
		<path fill="#FFFFFF" d="M142.573,219.415c-1.231,0.729-4.261,0.349-5.513,1.889c-1.363,1.703-0.893,4.559,0.873,5.657
			c4.27,2.689,9.401-4.404,5.788-7.299"/>
		<path fill="#FFFFFF" d="M164.015,235.734c-0.708,0.084,0.626-0.217-0.74-0.933c-0.872-0.461-1.415-0.505-2.308-0.483
			c-1.603,0.01-3.47,0.976-4.352,2.298c-1.448,2.146-1.685,7.629,1.25,8.705c1.2-1.066,2.197-3.058,3.102-4.476
			c0.821-1.322,2.935-3.345,2.523-4.978"/>
		<path fill="#FFFFFF" d="M165.153,220.812c-1.252,0.339-3.243,3.152-2.072,4.876c1.065,1.568,5.541,1.057,6.312-0.655
			c-1.222-1.994-5.473-2.639-6.024-4.87"/>
		<path fill="#FFFFFF" d="M154.931,219.035c0.021-0.626-0.308-1.396-0.545-1.951c-3.93-0.275-5.347,7.843-0.706,7.712
			c4.822-0.135,4.987-5.987,1.786-8.07"/>
		<path fill="#FFFFFF" d="M146.77,205.909c-0.706,1.469-1.548,4.002-0.48,5.144c1.405,1.508,4.383,0.511,5.92-0.097
			c-1.261-1.003-3.559-2.307-4.021-3.786"/>
		<path fill="#FFFFFF" d="M137.72,210.877c-0.229,1.434,2.514,1.562,1.425,3.951c-0.576,1.284-3.962,2.997-5.428,3.048
			c1.321-2.236,3.303-3.953,4.135-6.485"/>
		<path fill="#FFFFFF" d="M121.388,206.286c-1.622,1.539-3.079,3.182-2.945,5.615c0.083,1.868,1.285,4.291,3.204,4.556
			C122.403,213.247,122.181,209.519,121.388,206.286"/>
		<path fill="#FFFFFF" d="M118.289,156.868c-0.687,0.022-1.437,1.743-1.396,2.38c0.022,0.658,0.339,0.514,0.821,0.588
			c0.431,0.051,0.788,0.255,1.22,0.121c0.677-0.195,0.955-1.47,1.007-2.115c0.031-0.421,0-0.779-0.441-0.974
			C119.111,156.705,118.545,157.101,118.289,156.868"/>
		<path fill="#FFFFFF" d="M124.283,164.48c0.04,0.022,0.574-0.389,0.861-0.358c0.246,0.024,0.729,0.301,0.924,0.486
			c0.444,0.451,0.72,1.438,0.793,2.083c-0.444,0.275-1.039-0.709-1.263-0.945c-0.394-0.409-1.252-0.831-1.47-1.355"/>
		<path fill="#FFFFFF" d="M116.379,143.729c-0.841,0.207-0.636,1.687-0.39,2.261c0.37,0.89,1.479,0.842,2.3,0.521
			c1.17-0.45,0.862-0.993,0.103-1.651c-0.556-0.493-1.313-0.862-1.888-1.169"/>
		<path fill="#FFFFFF" d="M124.714,188.491c-0.061,0.051-0.061,0.07,0,0.07c-0.186-0.07-0.515,0.052-0.757,0.125
			c-0.547,0.131-0.519,0.103-0.681,0.572c-0.131,0.369-0.339,1.296-0.103,1.636c0.31,0,0.627,0.224,0.904,0.051
			c0.031-0.7,0.409-1.509,0.821-2.107c-0.074,0.03-0.144,0.054-0.207,0.063"/>
	</g>
	<path d="M160.484,315.319c0-0.141,0-0.274-0.013-0.419c0.536,0.572,0.679,1.007,0.782,1.703c0.093,0.617,0.163,1.674-0.042,2.146
		c-0.287,0.632-1.479,1.291-2.073,1.623c-1.396,0.836-3.078,1.354-4.753,1.118c0.299,0.761,0.976,1.22,1.275,2.019
		c0.234,0.678,0.315,1.892,0.891,2.352c0.287-1.29,2.578-2.565,3.655-3.141c1.129-0.598,2.628-0.936,3.879-0.886
		c1.356,0.045,2.453,1.163,3.314,2.189c0.872,1.045,1.755,2.073,2.64,3.121c3.19,3.734,4.372,9.073,5.89,13.661
		c0.771,2.309,2.013,4.555,2.362,6.906c0.286,2.032,0.472,4.095,1.047,6.117c0.944,3.294,3.972,10.706,8.438,9.964
		c2.298-0.389,4.517-1.948,4.72-4.42c0.165-2.096-0.123-4.365-0.123-6.467c-0.01-2.096,0.207-4.179,0.051-6.271
		c-0.144-2.021,0.227-4.514-0.226-6.488c-0.613-2.696-3.837-3.21-6.209-3.418c-2.043-0.152-4.229,0.946-6.015-0.173
		c-1.888-1.214-3.049-3.849-4.002-5.801c-0.946-1.969-2.218-4.014-3.378-5.859c-2.146-3.348-4.248-6.587-7.441-8.785
		c-1.375-0.952-1.816-3.048-3.54-3.173c-3.184-0.264-0.646,2.579-0.564,4.087"/>
	<path d="M128.41,297.084c0.173,4.134-7.505,1.865-9.648,0.274c-0.319,1.425-1.294,4.681-0.986,5.91
		c0.073,0.282,6.57-0.051,7.472,0.361c2.063,0.974,2.495,2.271,2.556,4.392c0.195,6.87-2.639,12.403-5.469,18.414
		c-1.049,2.198-1.674,4.69-3.061,6.633c-1.188,1.674-2.492,3.284-3.457,5.131c-1.604,3.038-4.508,10.498-0.772,13.047
		c1.933,1.304,4.619,1.712,6.459,0.058c1.56-1.393,2.923-3.239,4.38-4.772c1.428-1.527,3.029-2.882,4.373-4.491
		c1.294-1.562,3.266-3.133,4.311-4.856c1.397-2.37-0.543-4.978-2.145-6.753c-1.365-1.528-3.715-2.236-4.216-4.281
		c-0.544-2.176,0.427-4.907,1.095-6.949c0.668-2.086,1.169-4.443,1.593-6.578c0.769-3.91,1.478-7.686,0.676-11.506
		c-0.327-1.633,0.792-3.451-0.348-4.735c-2.157-2.398-2.278,1.409-3.233,2.568"/>
	<path d="M166.241,136.349c0,0.042-0.145-0.051-0.021,0.175c-1.057-0.542-2.144-2.628-2.822-3.594
		c-1.263-1.801-2.886-3.59-4.547-5.028c-1.673-1.437-3.253-2.926-4.875-4.434c-0.832-0.767-1.776-2.032-2.762-2.584
		c-0.452,0.808-0.758,1.562-1.427,2.134c-1.611,1.405-3.06,2.945-4.475,4.567c-1.55,1.768-3.15,3.499-4.567,5.368
		c-0.545,0.706-1.12,1.386-1.684,2.091c-0.317,0.391-1.169,1.707-1.621,1.893c-0.616,0.224-1.313-0.37-1.767-0.741
		c-0.718-0.595-1.508-1.067-2.35-1.508c-0.954-0.492-2.001-0.895-2.905-1.508c-0.861-0.575-1.56-1.14-2.524-1.61
		c-1.127-0.536-2.319-0.907-3.325-1.613c-0.533-0.367-0.985-0.936-1.54-1.242c-0.607-0.34-1.323-0.409-1.828-0.965
		c-0.53-0.586-0.459-1.457-0.737-2.255c-1.703-4.949,1.252-11.058,4.415-14.885c2.236-2.693,5.418-5.473,8.764-6.684
		c0.76-0.278,1.539-0.329,2.401-0.348c1.438-0.032,2.955-0.402,4.425-0.595c1.948-0.269,3.911-0.575,5.86-0.606
		c1.858-0.032,3.778-0.431,5.625-0.166c2.297,0.332,4.906,1.296,6.854,2.526c2.319,1.467,3.82,3.46,5.01,5.951
		c1.262,2.652,2.535,5.246,3.479,8.007c1.366,3.993,1.715,8.21,2.577,12.351c0.287,1.437,0.512,3.016,0.596,4.492
		c0.093,1.635,0.019,3.366,0.194,4.989c0.154,1.476,0.205,2.945,0.205,4.466c0,1.271,0.357,2.511,0.164,3.757
		c-0.492-0.249-0.935-0.772-1.365-1.141c-0.738-0.626-1.55-0.987-2.381-1.446c-1.22-0.697-2.524-1.323-3.603-2.218
		c-1.24-1.035,0.134-2.523,0.556-3.767c0.226-0.655,0.275-1.326,0.44-2.013c0.153-0.636,0.657-1.354,0.564-2.021"/>
	<path d="M156.459,105.335c2.577-2.62,5.154-5.022,6.581-8.325c2.536-5.882,2.606-11.743,1.928-17.04
		c-0.604-4.639-3.18-8.197-7.039-10.172c-2.876-1.467-5.965-2.895-9.721-2.534c-4.495,0.423-8.345,2.771-11.986,6.444
		c-4.897,4.948-9.661,10.018-15.53,13.539c-3.511,2.096-7.289,3.233-10.715,3.019c-2.073-0.144-4.006-0.481-5.913-0.975
		c-1.099-0.278-2.249-0.933-3.428-0.964c0.668,0.459,1.128,1.577,1.476,2.328c0.658,1.387,1.521,2.246,2.731,3.076
		c2.003,1.4,4.847,1.266,7.636,0.731c4.211-0.808,8.213-1.201,12.494-2.871c4.208-1.623,8.446-2.926,12.674-4.179
		c3.49-1.035,6.938-2.208,10.43-2.968c2.616-0.572,4.217,0.348,5.706,1.878c1.549,1.613,1.437,4.25,1.21,6.786
		c-0.185,2.277-0.083,4.258,0.144,6.404c0.195,1.867,0.78,3.898,0.575,5.872c-0.124-0.123-0.287-0.249-0.39-0.39"/>
</g>
</svg>
