<?xml version="1.0" encoding="utf-8"?>
<!-- Generator: Adobe Illustrator 16.0.4, SVG Export Plug-In . SVG Version: 6.00 Build 0)  -->
<!DOCTYPE svg PUBLIC "-//W3C//DTD SVG 1.1//EN" "http://www.w3.org/Graphics/SVG/1.1/DTD/svg11.dtd">
<svg version="1.1" id="Ebene_1" xmlns="http://www.w3.org/2000/svg" xmlns:xlink="http://www.w3.org/1999/xlink" x="0px" y="0px"
	 width="446.358px" height="425.2px" viewBox="0 0 446.358 425.2" enable-background="new 0 0 446.358 425.2" xml:space="preserve">
<g>
	<path fill="#245977" d="M120.269,166.912c2.147-2.04,3.81-3.747,4.178-4.556c0.468-1.015,2.768-6.783,2.058-6.963
		c-3.1-0.826-4.412-19.685-3.531-22.335c1.168-3.558,4.528-9.101,7.188-11.671c4.968-4.877,7.979-5.318,14.94-4.607
		c2.876,0.286,5.633,1.068,8.419,1.859c3.522,1.006,6.118,3.288,8.75,5.741c1.761,1.616,3.342,3.836,4.042,6.099
		c0.666,2.121,0.736,4.6,0.576,6.864c-0.594,7.898-4.484,15.607-8.788,22.155c-1.805,2.741-3.738,5.303-5.812,7.844
		c-0.898,1.096-1.896,2.066-2.875,3.091c-1.07,1.133-2.2,2.067-3.333,3.136c-2.391,2.264-5.337,3.539-8.607,3.936
		c-2.83,0.342-6.45-0.225-9.012-1.554c-1.796-0.927-3.19-2.624-4.124-4.385c-0.764-1.421-1.348-2.894-1.968-4.375
		c-0.566-1.394-1.887-1.834-1.887-1.834l0,0C120.484,165.357,119.937,166.921,120.269,166.912z"/>
	<path fill="#245977" d="M145.354,170.021c0.018-0.602-5.292,0.368-5.705,0.494c-1.752,0.494-3.854,1.51-5.256,2.668
		c-2.561,2.104-5.346,5.4-5.005,8.886c0.144,1.645,1.132,3.263,2.148,4.475c1.285,1.536,2.722,2.398,4.429,3.458
		c1.437,0.9,2.857,1.538,4.501,1.969c1.653,0.448,3.387,0.827,4.95,1.554c3.64,1.698,7.809,2.739,11.744,3.64
		c2.713,0.609,5.381,1.328,8.157,1.886c2.354,0.467,4.825,0.71,7.214,1.133c3.917,0.691,7.691,2.102,11.662,2.612
		c1.699,0.234,3.351,0.594,5.076,0.721c1.356,0.115,2.92-0.207,4.213,0.215c1.402,0.468,2.075,2.318,3.648,2.462
		c1.393,0.124,2.318-1.392,2.848-2.525c0.512-1.069,0.979-2.542,1.123-3.692c0.208-1.562-0.396-3.233-0.171-4.852
		c0.288-1.887,0.584-3.8,0.539-5.65c-0.027-1.409-0.386-2.92-0.619-4.357c-0.647-3.701-0.647-7.627-0.827-11.418
		c-0.225-4.438-1.438-8.932-1.761-13.406c-0.143-2.074-0.629-4.07-0.826-6.198c-0.126-1.546-0.27-3.19-0.558-4.699
		c-0.144-0.729-0.376-1.402-0.386-2.157c-0.027-0.807,0.386-1.688,0.386-2.514c-0.009-0.98-0.135-2.148-0.502-3.073
		c-0.8-2.075-2.821-4.178-4.563-5.499c-1.654-1.239-3.783-2.236-5.625-3.055c-1.465-0.637-3.307-0.971-4.878-0.782
		c-1.286,0.189-2.516,0.02-3.756,0.603c0.962,1.267,3.477,0.988,4.735,1.562c-0.854,0.433-1.896,0.449-2.767,0.819
		c-0.45,0.207-1.6,0.987-1.591,1.554c1.132,0.71,2.794,0.331,4.052,0.467c0.771,0.082,3.666,0.243,3.845,1.248
		c-0.378,0.334-1.931,0.314-2.461,0.369c-0.88,0.117-1.465,0.162-2.247,0.629c-1.842,1.16,0.755,1.581,1.752,1.571
		c1.446,0.01,2.758-0.151,3.522,1.268c0.647,1.222,1.159,2.427,1.815,3.612c1.356,2.488,2.479,5.147,2.686,8.086
		c0.233,3.019-0.54,5.929-0.872,9.083c-0.593,5.497-0.862,11.041-1.239,16.539c-0.135,2.086-0.019,4.123,0.152,6.156
		c0.162,2.021,0.791,3.979,1.349,5.974c-0.27-1.526-1.977-2.794-3.092-3.782c-1.383-1.231-3.208-2.085-4.824-3.002
		c-1.582-0.871-3.01-2.011-4.601-2.919c-1.625-0.907-3.44-1.527-4.994-2.498c-3.433-2.156-7.691-3.144-11.491-4.5
		c-3.917-1.402-7.934-1.789-11.833-3.102c-0.998-0.323-2.021-0.592-3.027-0.871c-1.223-0.34-3.055-0.888-4.116,0.082"/>
	<path fill="#245977" d="M241.873,216.82c2.793,0.917,5.444,2.03,8.049,3.477c1.896,1.032,4.321,1.94,5.157,4.097
		c1.015,2.562,0.108,6.011-0.089,8.643c-0.307,3.801-0.593,7.592-0.988,11.392c-0.801,7.835,1.096,15.967,3.162,23.468
		c1.743,6.389,3.953,12.372,6.218,18.473c0.808,2.175,1.204,4.15,1.419,6.441c0.162,1.679,0.54,3.558,0.117,5.202
		c-0.188,0.825-0.728,1.294-0.997,2.04c-0.324,1.068-0.261,2.65-0.216,3.755c0.116,3.333,0.377,5.857,2.461,8.544
		c1.635,2.102,4.923,3.603,7.484,3.944c2.372,0.368,3.738-0.423,5.417-1.941c4.645-4.232,10.656-2.614,16.208-1.536
		c2.012,0.404,4.016,0.729,6.038,1.007c1.715,0.243,3.27,0.996,4.923,1.384c1.348,0.305,2.803-0.163,4.115-0.629
		c1.438-0.503,2.714-1.097,4.098-1.707c1.59-0.701,4.591-2.022,4.599-4.043c0-1.995-1.886-4.466-3.755-4.727
		c-0.935-0.116-1.545,0.252-2.372,0.611c-1.07,0.466-1.851,0.547-2.992,0.647c-2.13,0.168-3.576,0.735-5.795,0.116
		c-4.313-1.214-8.409-3.541-12.075-6.091c-1.015-0.729-2.345-1.223-3.467-1.78c-1.132-0.574-1.95-1.446-2.957-2.129
		c-1.977-1.312-2.974-2.094-3.729-4.438c-0.772-2.354-0.782-5.111-0.89-7.609c-0.153-3.522-0.754-7.078-0.655-10.627
		c0.135-3.928,0.359-7.791,0.611-11.717c0.197-3.01,0.602-6.101,0.233-9.128c-0.449-3.729-0.198-6.945,0.458-10.619
		c0.583-3.108,1.464-6.056,1.886-9.102c0.387-2.668,1.321-5.049,1.447-7.771c0.126-2.318-0.539-4.26-1.051-6.54
		c-0.603-2.731-0.584-4.825-2.669-6.766c-1.886-1.778-4.104-3.36-6.575-4.394c-3.181-1.348-6.316-2.893-9.442-4.501
		c-0.683-0.359-1.384-0.709-2.112-1.088C255.905,206.173,248.754,211.348,241.873,216.82z"/>
	<path fill="#245977" d="M162.36,273.744c0.163,1.546,1.258,3.063,3.567,4.421c3.099,1.825,5.156,4.043,8.22,5.794
		c5.553,3.155,9.865,1.637,15.93,0.226c4.276-0.98,8.365-2.678,12.191-4.833c1.977-1.097,3.863-2.318,5.66-3.658
		c1.456-1.06,3.72-2.344,4.646-3.961c0.404-0.656,0.753-1.34,1.14-2.04c0.835-1.49,1.527-3.009,2.192-4.572
		c0.71-1.707,2.012-2.812,3.414-3.972c1.267-1.042,2.453-2.479,3.863-3.566c3.396-2.589,6.747-5.283,10.368-7.708
		c3.405-2.311,6.073-4.986,9.217-7.476c1.366-1.098,2.795-2.021,3.91-3.404c1.158-1.412,2.245-2.786,3.449-4.125
		c1.878-2.084,3.226-4.707,5.122-6.882c0.907-0.979,2.417-1.867,3.405-2.714c1.284-1.113,2.838-1.851,4.348-2.408
		c1.653-0.603,3.055-1.59,4.51-2.498c1.123-0.69,2.803-1.04,3.377-2.343c0.459-1.061,0.593-2.364,1.016-3.478
		c0.558-1.42,0.88-3.001,1.878-4.196c9.559,2.373,21.328,5.015,31.032,2.346c4.888-1.349,9.721-3.549,14.456-5.408
		c5.04-1.976,8.849-4.743,14.474-5.409c2.191-0.261,4.465-0.045,6.549-0.504c1.483-0.341,3.019-0.305,4.52-0.233
		c1.994,0.091,4.007,0.415,5.957,0.745c3.261,0.585,6.487,1.564,9.793,0.765c3.657-0.88,6.577-3.01,8.418-6.36
		c0.97-1.726,0.592-5.274,1.069-7.196c0.423-1.716,0.27-3.764,0.548-5.498c0.449-2.615,1.922-3.217,3.405-5.471
		c1.608-2.372,2.057-4.979,2.938-7.639c0.485-1.501,1.473-2.912,2.245-4.249c0.791-1.394,1.322-2.874,1.645-4.447
		c0.279-1.393,0.773-2.848,0.575-4.259c-0.251-1.383-1.212-2.281-2.435-2.822c-1.518-0.654-2.714,0.218-3.944,1.062
		c-1.25,0.827-2.659,1.599-3.396,2.847c-0.665,1.188-1.312,2.732-2.139,3.738c-0.934,1.105-1.877,1.969-2.902,3.001
		c-1.042,1.069-2.102,2.211-3.323,3.216c-0.638,0.522-1.591,1.223-1.986,1.924c-0.278,0.521-0.548,1.023-0.889,1.537
		c-0.305,0.431-0.557,0.924-0.881,1.392c-0.61,0.961-1.275,1.662-2.002,2.506c-3.011,3.299-6.533,6.371-11.141,7.206
		c-2.336,0.431-4.646,0.539-7.035,0.674c-1.177,0.081-2.372,0.207-3.567,0.071c-0.673-0.062-1.347-0.243-2.021-0.296
		c-0.719-0.09-1.375,0.161-2.03,0.098c-2.507-0.188-4.978-1.033-7.53-1.211c-3.207-0.233-5.786-0.862-9.038-0.639
		c-3.307,0.224-6.64,0.584-9.946,0.646c-5.112,0.127-10.197,1.421-15.354,1.716c-2.129,0.126-4.277,0.055-6.397,0.144
		c-1.958,0.073-3.88,0.297-5.822-0.053c-1.402-0.244-2.767-0.593-4.205-0.629c-2.264,0-4.528,0.368-6.801,0.457
		c-2.111,0.073-4.402,0.333-6.226,1.537c-1.896,1.275-3.414,2.866-5.337,4.143c-0.844,0.565-1.527,1.176-2.336,1.751
		c-0.988,0.646-1.922,1.392-2.91,2.021c-5.148,3.244-11.087,4.832-16.468,7.548c-5.554,2.784-10.737,6.396-16.236,9.172
		c-10.592,5.355-19.253,12.947-29.091,19.551c-3.611,2.426-7.645,4.527-10.179,7.904c-3.163,4.188-5.652,8.573-8.527,13.019
		c-2.964,4.61-13.251,17.017-7.978,22.785"/>
	<path d="M155.281,274.544c-1.006-1.491-2.255-2.479-3.521-3.684c-1.402-1.329-2.48-2.739-3.81-4.043
		c-2.831-2.749-5.409-5.506-8.257-8.192c-2.803-2.634-4.779-5.903-7.501-8.697c-2.695-2.749-4.771-6.299-6.972-9.604
		c-2.407-3.604-3.962-7.115-5.633-11.023c-2.111-4.853-2.625-10.279-4.313-15.247c-1.545-4.601-2.021-8.994-2.192-13.926
		c-0.117-3.495,0.754-6.586,1.096-10.036c0.225-2.272,0.243-4.105,1.006-6.289c0.746-2.146,0.691-4.212,1.321-6.396
		c0.602-2.085,1.078-4.215,1.671-6.299c0.279-1.051,0.611-2.083,1.006-3.101c0.342-0.897,0.628-1.911,1.438-2.425
		c0.162-0.116,0.351-0.225,0.566-0.314c0.386-0.18,0.808-0.278,1.23-0.396c0.799-0.225,2.066-0.511,2.866-0.387
		c-0.225,0.352-0.467,0.566-0.647,0.936c-0.502,0.997-0.781,2.264-0.799,3.386c-0.009,0.773,0.251,1.475,0.396,2.221
		c0.449,2.37,0.359,4.717,1.464,6.952c1.572,3.218,3.316,5.858,5.957,8.061c4.771,3.979,13.935,0.943,16.747-4.493
		c1.356-2.596,0.531-7.169,3.459-7.942c1.069-0.277,2.947-0.655,4.016-0.53c1.869,0.227,2.695,2.354,3.818,4.043
		c2.228,3.307,4.636,5.887,6.748,9.237c2.156,3.432,1.77,6.891,2.686,10.779c1.734,7.144,1.275,14.709,3.226,21.6
		c0.854,2.982,2.057,6.048,3.953,8.508c1.061,1.366,2.435,2.723,4.214,2.966c0.799,0.089,1.203,0.376,1.886,0.745
		c0.773,0.404,1.671,0.27,2.525,0.485c-0.181,0.377-0.701,0.529-1.007,0.809c-0.449,0.324-0.827,0.683-1.285,0.979
		c-1.626,1.069-3.063,2.597-3.512,4.574c-0.603,2.828,0.457,5.739,0.952,8.517c0.628,3.531,1.994,7.115,3.198,10.546
		c0.772,2.255,2.282,3.855,3.737,5.57c2.964,3.47,6.945,6.308,11.248,8.032c2.04,0.835,4.052,1.654,6.19,2.147
		c0.961,0.216,2.004-0.17,2.919-0.26c1.204-0.136,2.381-0.172,3.577-0.045c0.781,0.054,1.203,0.331,0.746,1.141
		c-0.369,0.674-1.105,1.168-1.626,1.708c-0.836,0.853-2.219,1.805-3.36,2.38c-0.583,0.296-1.186,0.62-1.77,0.924
		c-1.851,0.855-3.414,2.122-5.192,3.164c-2.247,1.274-4.573,2.354-7.036,3.199c-3.818,1.311-8.301,2.209-12.452,1.581
		c-2.038-0.306-4.186-0.477-6.217-0.836c-1.824-0.341-3.44-1.088-5.049-1.995c-1.239-0.719-2.371-1.554-3.594-2.281
		c-1.23-0.765-2.596-1.455-3.737-2.355c-0.97-0.754-1.995-1.706-3.063-2.496c-1.671-1.205-3.622-2.48-4.816-4.178"/>
	<path fill="#245977" d="M151.742,157.875c-3.891,1.157-7.835,2.137-11.716,3.314c-1.258,0.386-2.624,0.862-3.971,0.897
		c-1.77,0.072-3.549,0.062-5.265,0.422c-1.348,0.27-2.713,0.7-3.936,1.187c-0.575,0.234-1.176,0.351-1.743,0.7
		c-0.53,0.342-1.068,0.72-1.6,1.089c-0.97,0.638-1.868,1.311-2.156,2.497c-0.296,1.051-0.323,2.317-0.243,3.387
		c0.243,3.801,2.265,6.631,3.775,9.945c0.475,0.997,0.898,2.021,1.563,2.884c0.889,1.169,2.101,2.058,3.332,2.876
		c2.39,1.545,5.858,2.389,8.662,1.761c1.239-0.27,2.426-0.604,3.547-1.169c1.088-0.547,2.076-1.446,3.038-2.201
		c1.005-0.754,1.949-1.618,2.893-2.434c3.134-2.606,7.143-3.9,10.78-5.75c3.189-1.618,6.307-2.632,9.326-4.069
		c3.297-1.564,6.325-3.056,9.738-4.368c1.583-0.583,3.055-1.409,4.69-2.039c1.662-0.656,3.603-1.023,5.311-1.895
		c6.541-3.308,7.223-10.63,10.386-16.442c1.77-3.233,3.118-6.567,4.941-9.766c1.869-3.217,2.776-7.205,4.833-10.233
		c1.223-1.796,2.633-3.45,4.097-5.067c0.639-0.718,1.321-1.473,1.977-2.201c0.557-0.654,1.204-0.917,1.852-1.465
		c0.448-0.395,0.896-0.86,1.302-1.356c0.763-0.943,1.284-2.084,1.958-3.162c0.817-1.319,1.572-1.958,0.61-3.341
		c-0.808-1.178-1.185-2.489-2.003-3.72c-1.545-2.291-3.028-4.717-4.815-6.748c-1.015-1.142-2.74-4.349-4.564-4.177
		c-1.005,0.089-0.988,0.933-0.862,1.716c0.188,1.104,0.152,2.093,0.107,3.225c-0.089,2.676-0.081,5.751-1.338,8.213
		c-0.621,1.167-2.273,2.713-2.875,0.088c-0.18-0.763,0.925-1.419,0.701-2.164c-0.494-1.492-1.752-0.467-2.561,0.151
		c-1.905,1.448-1.239,1.886-0.952,4.089c0.153,1.375,0.18,2.884,0.116,4.294c-0.107,3.514-0.781,5.885-2.74,9.004
		c-1.86,2.855-4.33,5.578-5.929,8.605c-1.699,3.171-3.082,6.442-4.6,9.694c-0.656,1.428-1.716,2.768-2.525,4.179
		c-0.692,1.121-1.851,3.278-2.821,3.97c-3.584,2.579-10.287,2.445-14.618,2.76C162.037,155.438,156.844,156.392,151.742,157.875z"/>
	<path d="M343.404,203.469c-1.321,2.606-4.358,4.825-6.371,6.945c-2.102,2.221-5.345,4.177-8.193,5.237
		c-3.163,1.195-6.146,1.51-9.488,0.729c-2.641-0.629-6.173-1.645-7.979-3.908c1.887-4.259,6.918-1.914,10.179-1.778
		c3.998,0.17,7.224-0.684,10.656-3.208c3.531-2.588,6.029-6.101,8.805-9.495c2.668-3.243,5.184-7.476,6.711-11.717
		c2.812-7.772,4.564-16.406,4.726-24.896c0.108-5.498,1.977-16.002-3.773-43.745c-0.826-4.007-5.858-21.32-8.229-25.695
		c-2.57-4.734-13.531-22.398-16.738-26.118c-2.938-3.414-6.657-6.729-10.826-8.651c-2.319-1.078-4.672-2.524-7.107-3.332
		c-1.877-0.63-4.24-0.854-6.281-1.114c-4.582-0.566-8.741-0.162-12.775,2.084c-3.593,2.004-6.846,4.797-9.334,7.996
		c-3.01,3.845-4.043,8.489-6.01,12.83c-4.294,9.505-5.724,19.962-7.907,30.034c-1.994,9.343-2.587,18.544-2.623,28.095
		c-0.027,4.338,0.467,8.812,1.464,13.054c0.989,4.268,1.239,8.444,2.102,12.642c0.872,4.167,2.363,8.462,3.72,12.578
		c0.693,2.012,1.59,3.88,2.354,5.884c0.673,1.716,0.718,4.366,2.272,5.544c-4.645,3.494-10.17-6.506-11.599-9.758
		c-2.129-4.826-3.54-9.999-5.229-14.995c-3.153-9.371-3.045-20.151-2.739-29.782c0.403-12.336,2.596-24.789,4.868-36.836
		c2.22-11.661,7.063-22.955,13.279-33.233c2.686-4.466,7.278-7.933,11.698-10.728c3.234-2.039,8.104-4.735,12.092-4.411
		c13.153,1.024,27.663,9.011,35.65,19.667c3.307,4.438,6.388,9.362,8.858,14.384c3.541,7.159,5.354,14.608,8.329,21.958
		c5.176,12.747,7.035,26.844,9.316,40.438c1.411,8.473-0.197,40.728-3.252,47.223c-0.988,2.12-1.805,4.607-3.063,6.576
		C349.486,196.309,343.404,203.469,343.404,203.469z"/>
	<g>
		<path fill="#FFFFFF" d="M258.286,165.969c0.863,2.623,1.771,5.229,2.875,7.735c0.062,0.152,0.152,0.351,0.243,0.521
			c0.826,0.217,1.688,0.414,2.524,0.576c1.877,0.36,3.764,0.618,5.651,0.916c-0.18-0.413-0.305-0.827-0.477-1.24
			C266.076,171.09,261.557,169.024,258.286,165.969z"/>
		<path fill="#FFFFFF" d="M263.111,151.18c-1.662-2.058-3.63-3.862-5.534-5.714c-1.761-1.707-3.27-3.539-4.465-5.65
			c0.081,3.072,0.26,6.181,0.673,9.227c1.68,3.154,4.276,5.749,6.882,8.373c1.824,1.851,3.476,3.774,4.717,5.911
			c-0.369-1.311-0.701-2.596-0.971-3.87C263.839,156.707,263.533,153.956,263.111,151.18z"/>
		<path fill="#FFFFFF" d="M260.892,131.891c-2.794-3.351-6.128-6.433-7.232-10.358c-0.216,2.471-0.378,4.932-0.467,7.395
			c-0.073,2.084-0.109,4.241-0.118,6.387c0.333,0.262,0.693,0.513,1.052,0.755c2.237,1.544,4.96,2.921,7.133,4.744
			c-0.278-2.354-0.431-4.716-0.413-7.052C260.837,133.14,260.874,132.52,260.892,131.891z"/>
		<path fill="#FFFFFF" d="M255.618,107.041c-0.054-0.056-0.072-0.108-0.108-0.162c-0.323,2.112-0.683,4.205-0.953,6.325
			c0.872,0.845,1.851,1.58,2.758,2.38c1.464,1.276,2.777,2.812,3.667,4.556c0.134,0.26,0.25,0.547,0.377,0.827
			c0.215-2.706,0.503-5.409,0.871-8.104C259.912,111.03,257.469,109.331,255.618,107.041z"/>
		<path fill="#FFFFFF" d="M261,85.999c-0.306-1.132-0.467-2.265-0.531-3.387c-0.979,3.117-1.796,6.289-2.408,9.479
			c-0.161,0.872-0.314,1.752-0.467,2.622c0.27,0.899,0.656,1.78,1.186,2.66c1.42,2.265,3.271,4.195,5.158,6.11
			c0.557-2.759,1.113-5.518,1.679-8.294C263.568,92.387,261.835,89.351,261,85.999z"/>
		<path fill="#FFFFFF" d="M272.203,73.682c-2.426-2.174-3.864-5.633-4.097-9.093c-1.32,2.533-2.57,5.095-3.711,7.7
			c0.063,0.313,0.099,0.639,0.18,0.961c0.673,2.642,1.779,5.104,3.153,7.467c0.341,0.584,0.719,1.186,1.078,1.778
			c0.755-2.317,1.573-4.637,2.57-6.863C271.682,74.984,271.942,74.347,272.203,73.682z"/>
		<path fill="#FFFFFF" d="M305.777,53.836c0.117,0.036,0.243,0.089,0.368,0.135c1.707-1.798,2.444-4.304,2.596-6.838
			c-1.94-0.772-3.899-1.465-5.875-1.985c0.054,2.73-0.297,5.507-1.751,7.762C302.705,53.125,304.367,53.367,305.777,53.836z"/>
		<path fill="#FFFFFF" d="M318.266,60.592c1.572,0.161,3.038-1.159,3.854-2.678c0.395-0.71,0.719-1.536,0.907-2.381
			c-2.183-1.752-4.493-3.388-6.945-4.798c0.036,1.078-0.171,2.201-0.521,3.217c-0.432,1.231-1.097,2.524-2.049,3.53
			C315.184,58.318,316.774,59.396,318.266,60.592z"/>
		<path fill="#FFFFFF" d="M334.303,68.489c-1.142-1.753-2.31-3.468-3.522-5.104c-0.161-0.188-0.333-0.396-0.485-0.611
			c-0.485,1.222-1.132,2.372-1.832,3.271c-0.737,0.96-1.797,1.932-2.902,2.21c0.997,1.393,2.183,3.163,3.458,5.112
			C331.392,73.232,333.44,71.013,334.303,68.489z"/>
		<path fill="#FFFFFF" d="M343.314,86.709c-0.817-2.273-1.662-4.564-2.677-6.811c-0.637,0.548-1.402,0.953-2.317,1.132
			c-1.779,0.306-3.486-0.144-5.032-0.979c1.447,2.281,2.822,4.511,3.999,6.478C339.172,87.419,341.562,87.544,343.314,86.709z"/>
		<path fill="#FFFFFF" d="M350.187,105.944c-0.665-2.102-1.393-4.178-2.219-6.217c-0.377-0.926-0.683-1.851-1.034-2.759
			c-1.599,0.297-3.314,0.153-4.617-0.529c0.844,2.281,1.743,5.021,2.624,7.798C346.414,105.315,348.3,105.908,350.187,105.944z"/>
		<path fill="#FFFFFF" d="M349.316,120.794c1.384,1.034,3.162,1.537,4.879,1.402c-0.378-1.967-0.792-3.936-1.232-5.893
			c-1.563,0.179-3.216-0.055-4.752-0.648c0.216,0.827,0.368,1.493,0.467,1.978C348.911,118.737,349.109,119.744,349.316,120.794z"/>
		<path fill="#FFFFFF" d="M356.386,135.926c0.071,0.01,0.117,0,0.188,0.018c-0.35-2.131-0.7-4.251-1.068-6.397
			c-1.815-0.135-3.451-0.735-4.923-1.707c0.332,1.95,0.593,3.765,0.843,5.516C352.747,134.722,354.446,135.702,356.386,135.926z"/>
		<path fill="#FFFFFF" d="M357.788,151.89c0.036-3.297-0.018-6.28-0.18-8.606c-0.593,0.019-1.204-0.025-1.842-0.198
			c-1.312-0.367-2.471-1.05-3.459-1.921c0.341,3.871,0.467,7.052,0.484,9.756C354.157,151.665,355.964,151.972,357.788,151.89z"/>
		<path fill="#FFFFFF" d="M351.913,168.736c0.934,1.671,2.146,3.197,3.611,4.321c0.333,0.251,0.691,0.457,1.06,0.683
			c0.378-3.756,0.683-7.88,0.898-11.949c-0.403-0.054-0.826-0.134-1.222-0.297c-1.437-0.493-2.677-1.365-3.71-2.435
			c-0.045,0.844-0.099,1.635-0.099,2.318C352.397,163.821,352.209,166.283,351.913,168.736z"/>
		<path fill="#FFFFFF" d="M351.993,192.067c0.727-1.545,1.347-3.198,2.039-4.68c0.477-1.018,0.917-2.659,1.322-4.744
			c-2.094-1.032-3.928-3.389-4.861-5.894c-0.531,2.318-1.177,4.572-1.879,6.792C348.345,186.273,349.773,189.849,351.993,192.067z"
			/>
		<path fill="#FFFFFF" d="M340.017,204.96c0.341,0.504,0.737,0.98,1.158,1.447c0.89-0.934,1.698-1.915,2.229-2.938
			c0,0,1.023-1.24,2.354-2.839c-1.555-1.006-2.83-2.578-3.504-4.286c-0.413,0.549-0.809,1.134-1.24,1.646
			c-0.908,1.114-1.788,2.218-2.687,3.323C338.642,202.644,339.307,203.928,340.017,204.96z"/>
		<path fill="#FFFFFF" d="M332.865,206.954c-0.224,0.189-0.44,0.37-0.655,0.531c-1.617,1.187-3.171,1.986-4.78,2.498
			c-0.045,2.094-0.261,4.177-0.476,6.261c0.62-0.17,1.24-0.351,1.887-0.593c1.5-0.548,3.082-1.365,4.563-2.317
			C332.964,211.223,332.758,209.058,332.865,206.954z"/>
		<path fill="#FFFFFF" d="M321.877,210.675c-0.117,0-0.215,0.019-0.324,0.019c-1.968-0.091-4.537-0.952-6.702-0.72
			c-0.081,1.545-0.504,2.991-1.187,4.375c1.779,1.025,3.926,1.609,5.688,2.031c0.467,0.107,0.906,0.18,1.356,0.243
			C321.122,214.646,321.536,212.67,321.877,210.675z"/>
		<path fill="#FFFFFF" d="M295.805,43.791c-0.225-0.036-0.44-0.063-0.674-0.072c-2.291-0.188-4.86,0.638-7.25,1.742
			c-0.638,0.918-1.015,2.05-1.141,3.163c-0.198,1.852,0.135,4.232,1.779,5.319c2.354-0.998,4.797-1.384,7.322-1.41
			C294.816,49.882,295.042,46.675,295.805,43.791z"/>
		<path fill="#FFFFFF" d="M278.6,51.212c-1.527,1.158-2.983,2.426-4.276,3.791c-0.665,2.964,0.466,6.666,2.209,8.993
			c0.27-0.403,0.548-0.808,0.854-1.194c1.15-1.474,2.48-2.856,3.926-4.132C279.894,56.711,278.806,53.862,278.6,51.212z"/>
	</g>
	<path d="M182.449,230.072c1.843-4.501,1.258-10.171,1.007-11.833c-0.727-4.671-11.32-5.741-11.653-1.733
		c0.207,0.906-0.359,2.345,0.548,2.228c9.136-1.104,7.241,5.947,5.318,10.026c-1.832,3.927-3.791,9.883-5.75,13.979
		c-4.106,8.6-9.057,17.377-15.13,24.357c-3.054,3.514-5.399,6.801-8.544,10.25c-3.297,3.611-7.097,6.963-10.125,10.729
		c-5.237,6.503-11.931,11.787-18.382,17.33c-3.54,3.027-6.98,6.55-10.772,9.129c-3.314,2.245-7.941,7.743-26.674,14.653
		c-2.533,0.951-19.604,4.052-21.446,3.683c-3.549-0.754-9.002-4.394-10.763-7.402c-1.77-2.983-4.68-6.333-5.094-9.981
		c-0.521-4.376,2.147-12.065,3.064-16.271c7.268-32.597,46.25-58.516,54.094-63.94c3.54-2.463,6.783-5.536,10.583-7.405
		c1.177-0.575,5.13-1.645,5.463-2.92c0.251-1.006-0.989-3.448-0.881-4.797c-7.34,0.439-33.583,17.356-39.01,22.362
		c-6.262,5.758-27.295,31.976-31.876,41.75c-7.925,16.871-9.605,25.21-8.85,30.511c0.683,4.959,2.272,9.64,5.597,13.494
		c3.423,3.918,6.954,5.903,11.697,8.122c8.051,3.782,17.708,3.189,26.217,1.051c7.745-1.94,15.084-3.299,22.039-7.413
		c6.227-3.728,11.671-8.66,17.357-13.07c5.759-4.448,11.186-9.434,16.172-14.681c11.824-12.443,24.231-25.481,31.562-41.122
		C173.276,250.377,180.986,233.685,182.449,230.072z"/>
	<g>
		<path fill="#FF0000" d="M179.108,224.412c0.988-0.208,1.967-0.477,2.856-0.7c0.592-0.172,1.185-0.351,1.779-0.522
			c0.062-2.255-0.143-4.15-0.269-5.004c-0.126-0.755-0.521-1.401-1.061-1.958c-1.761,0.7-3.369,1.814-4.824,3.162
			C179.233,220.44,179.467,222.39,179.108,224.412z"/>
		<path fill="#FF0000" d="M168.11,250.204c0.97,1.312,2.345,2.292,3.881,2.867c1.563-3.351,3.163-6.819,4.654-10.035
			c-1.563,0.062-3.108-0.306-4.312-1.268c-0.134,0.297-0.261,0.63-0.395,0.917C170.743,245.192,169.458,247.716,168.11,250.204z"/>
		<path fill="#FF0000" d="M165.883,265.632c0.646-1.168,1.302-2.336,1.887-3.55c-0.44-0.243-0.88-0.521-1.294-0.853
			c-1.186-0.98-2.084-2.174-2.821-3.486c-1.312,2.049-2.695,3.999-4.142,5.904C160.599,265.31,163.313,265.794,165.883,265.632z"/>
		<path fill="#FF0000" d="M155.658,280.851c2.022-2.568,3.953-5.219,5.768-7.933c-2.758-0.261-5.633-1.536-6.514-3.604
			c-1.824,2.212-3.477,4.367-5.399,6.551C150.42,278.488,152.99,280.501,155.658,280.851z"/>
		<path fill="#FF0000" d="M127.7,310.904c2.793-2.488,5.498-5.067,8.067-7.745c-2.982-1.303-5.534-3.458-6.029-6.451
			c-2.489,2.237-5.03,4.429-7.592,6.612C121.005,307.201,124.079,309.816,127.7,310.904z"/>
		<path fill="#FF0000" d="M110.089,321.568c0.944,0.701,1.958,1.124,3.002,1.284c2.245-1.796,4.474-3.611,6.719-5.38
			c-2.874-1.7-4.995-4.979-4.563-8.088c-2.012,1.834-4.08,3.622-6.271,5.113c-0.647,0.421-1.347,0.997-2.192,1.679
			C107.296,318.243,108.365,320.265,110.089,321.568z"/>
		<path fill="#FF0000" d="M98.985,332.088c1.401-0.618,2.785-1.303,4.169-2.11c0.754-0.468,1.527-0.951,2.282-1.437
			c-0.755-0.478-1.457-1.061-2.067-1.753c-1.617-1.906-2.318-4.241-2.12-6.604c-1.788,1.133-3.971,2.392-6.685,3.739
			C93.981,327.005,96.263,330.147,98.985,332.088z"/>
		<path fill="#FF0000" d="M76.524,338.333c1.563-0.251,3.091-0.558,4.582-0.935c2.175-0.538,4.304-1.06,6.407-1.582
			c-2.606-1.347-4.843-3.817-5.679-6.521c-0.997,0.304-2.874,0.727-5.129,1.166C75.842,332.986,75.644,336.122,76.524,338.333z"/>
		<path fill="#FF0000" d="M45.008,315.44c-0.108-0.871-0.055-1.904,0.044-2.991c-1.626-0.907-3.423-1.501-5.309-1.411
			c-0.81,0.045-1.574,0.226-2.292,0.495c-0.045,1.177,0,2.237,0.135,3.198c0.198,1.348,0.485,2.669,0.827,3.963
			c2.272-0.702,5.255-0.603,7.6-0.056C45.528,317.597,45.133,316.546,45.008,315.44z"/>
		<path fill="#FF0000" d="M45.448,286.368c-0.602,1.33-1.187,2.614-1.707,3.863c2.309,0.78,4.052,2.676,5.453,4.833
			c0.629-2.066,1.411-4.114,2.265-6.118C49.616,287.796,47.505,287.041,45.448,286.368z"/>
		<path fill="#FF0000" d="M52.545,274.273c-1.303,1.896-2.507,3.694-3.521,5.312c2.102,0.699,4.213,1.319,6.414,1.527
			c0.638-1.088,1.321-2.166,2.021-3.235C55.662,276.897,54,275.703,52.545,274.273z"/>
		<path fill="#FF0000" d="M72.068,249.226c-1.671,1.932-3.495,4.115-5.399,6.451c0,0,0.008,0.036,0.027,0.055
			c0.836,2.048,2.003,4.339,3.629,6.028c1.563-1.644,3.136-3.235,4.708-4.753C73.613,254.636,72.58,251.976,72.068,249.226z"/>
		<path fill="#FF0000" d="M93.442,231.833c-1.968,1.23-3.854,2.462-5.625,3.647c-0.063,2.921,0.943,5.983,2.686,8.212
			c1.582-1.231,3.063-2.354,4.457-3.359C94.232,237.619,93.28,234.556,93.442,231.833z"/>
		<path fill="#FF0000" d="M105.472,224.842c-2.191,1.171-4.483,2.453-6.81,3.82c-0.108,0.593-0.207,1.177-0.252,1.751
			c-0.145,2.147,0.089,4.635,1.204,6.576c1.024-0.71,1.905-1.33,2.542-1.76c1.537-1.069,3.028-2.246,4.519-3.396
			C105.543,229.641,105.004,227.143,105.472,224.842z"/>
		<path fill="#FF0000" d="M116.118,220.297c-1.203,0.27-2.713,0.81-4.411,1.527c-0.683,2.111-0.701,4.475-0.225,6.737
			c0.414-0.242,0.836-0.521,1.267-0.735c0.719-0.351,2.444-0.881,3.773-1.527C116.065,224.295,115.857,222.255,116.118,220.297z"/>
		<path fill="#FF0000" d="M81.412,239.981c-1.312,0.989-2.382,1.833-3.083,2.479c-0.637,0.604-1.456,1.419-2.372,2.407
			c0.908,2.687,2.524,5.265,4.375,7.216c1.671-1.474,3.306-2.876,4.906-4.196C83.361,245.856,81.906,242.92,81.412,239.981z"/>
		<path fill="#FF0000" d="M60.999,262.819c-1.374,1.78-2.722,3.566-4.025,5.328c0.135,0.179,0.27,0.369,0.404,0.521
			c1.07,1.267,2.453,2.668,3.999,3.629c1.167-1.571,2.417-3.1,3.656-4.609C63.523,266.333,62.042,264.661,60.999,262.819z"/>
		<path fill="#FF0000" d="M45.87,301.803c-1.285-1.295-2.795-2.363-4.456-3.108c-0.306-0.117-0.612-0.225-0.897-0.324
			c-0.747,2.076-1.358,3.972-1.816,5.695c0.548-0.007,1.087,0.019,1.618,0.109c1.303,0.225,2.641,0.646,3.683,1.481
			c0.413,0.334,1.069,0.917,1.491,1.545c0.089,0,0.18,0.019,0.225,0.117c0.054,0.136,0.117,0.278,0.188,0.415
			c0.342-1.529,0.756-3.046,1.133-4.467C46.687,302.756,46.31,302.251,45.87,301.803z"/>
		<path fill="#FF0000" d="M49.06,323.797c-2.722,0.152-5.634,1.688-6.011,4.221c0.054,0.072,0.089,0.146,0.152,0.208
			c1.024,1.168,2.066,2.165,3.136,3.055c0.207-0.189,0.439-0.351,0.664-0.503c1.815-1.132,4.062-1.771,6.262-1.968
			c-1.365-1.096-2.506-2.291-3.171-3.386C49.787,324.882,49.437,324.345,49.06,323.797z"/>
		<path fill="#FF0000" d="M60.874,332.808c-0.772-0.152-1.662-0.484-2.561-0.89c-1.446,0.835-2.632,2.049-3.009,3.737
			c-0.063,0.278-0.082,0.54-0.1,0.81c2.489,1.132,5.13,1.841,7.835,2.229c0-0.368,0.035-0.756,0.107-1.151
			c0.414-1.977,1.464-3.764,2.884-5.201C63.452,332.726,61.431,332.933,60.874,332.808z"/>
		<path fill="#FF0000" d="M139.063,294.715c1.114,0.573,2.311,0.952,3.514,1.239c2.461-2.651,4.905-5.346,7.286-8.095
			c-0.961-0.278-1.869-0.701-2.613-1.419c-1.771-1.672-2.156-3.945-1.824-6.173c-2.516,2.543-5.103,5.04-7.286,7.762
			c-0.827,1.025-1.689,2.004-2.588,2.975C136.216,292.55,137.366,293.843,139.063,294.715z"/>
		<path fill="#FF0000" d="M179.467,236.818c1.105-2.452,2.031-4.501,2.596-5.804c-1.77,0.01-3.53-0.044-5.255-0.27
			c-0.702,1.662-1.401,3.513-2.121,5.355C176.188,236.647,177.859,236.829,179.467,236.818z"/>
	</g>
	<path d="M135.668,141.279c0.027,0.054,0.054,0.135,0.09,0.18c0.827-1.213,1.384-2.39,2.848-3.116
		c0.647-0.298,1.699-0.721,2.39-0.612c0.422,0.072,0.261-0.143,0.629,0.161c0.126,0.136,0.242,0.674,0.35,0.855
		c-2.246,1.033-4.654,0.96-5.831,3.44"/>
	<path d="M158.075,139.788c0.872,0.413,1.41,0.826,2.057,1.42c0.647,0.602,0.989,1.15,1.114,2.103
		c0.153,1.087,0.108,1.193-0.709,1.859c0.251-1.24-0.332-2.202-0.997-3.288c-0.736-1.222-1.563-0.944-2.893-1.545
		c0.233,0.189-2.587,0.35-0.916-0.352C155.73,139.985,157.518,139.528,158.075,139.788z"/>
	<path d="M141.678,143.427c0.009,0.063,0.027,0.135,0.055,0.197c-1.132-0.656-2.327,1.098-0.935,1.654
		c0.682,0.279,1.437-0.135,1.733-0.774c0.216-0.476,0.009-1.526-0.575-1.186"/>
	<path d="M155.578,145.646c-0.063,0.262-1.024,0.414-1.214,1.215c0.728,0.547,1.277,0.322,1.915-0.226
		C156.206,146.202,156.089,145.745,155.578,145.646"/>
	<path d="M358.956,203.649c-2.435-0.181-6.559-1.222-6.559-1.222s0.17-1.627,0.189-1.87c0.17-1.858,2.695-3.378,3.944-4.123
		c3.432-2.022,7.025-2.742,8.786-6.693c1.401-3.181,1.222-17.727-5.804-16.315c-1.239-2.49,5.949-12.668,6.604-15.498
		c0.943-4.151,2.65-8.319,3.468-12.472c1.24-6.387-0.792-15.992-3.379-22.217c1.681,1.437,3.621,0.54,5.49,0.925
		c1.42,0.323,3.495,1.726,5.032,2.399c3.935,1.707,8.768,1.472,11.751-1.797c1.527,0.674,1.599,2.543,2.785,3.881
		c1.097,1.212,2.821,2.246,4.582,2.561c3.486,0.639,6.019-2.417,9.766-1.41c0.484-0.494,0.413,1.797-0.593,3.432
		c-0.961,1.59-2.453,2.614-3.621,4.068c-2.228,2.76-4.304,5.923-6.451,8.527c-4.627,5.58-8.931,11.986-13.333,17.95
		c-5.023,6.784-7.655,14.843-10.251,22.768c-0.521,1.546-1.716,6.892-2.174,8.508c-0.944,3.314-3.693,6.811-5.418,7.672
		C362.019,203.595,358.956,203.649,358.956,203.649z"/>
	<path d="M272.158,303.771c5.255,0.728,7.897-0.415,11.338-1.286c4.789-1.229,2.552-6.575,6.658-5.048
		c4.581,1.697,10.996,3.297,15.857,2.793c3.675-0.376,12.523-1.384,13.934-5.156c2.66,0.844,10.485,3.863,11.743-0.306
		c1.949,1.808,2.344,3.909,4.726,5.437c2.507,1.606,6.02,3.297,8.562,2.47c2.211,8.096,8.042,11.384,15.435,14.528
		c-8.67-0.396-16.953-1.635-25.578-2.668c-9.263-1.114-19.235,1.535-28.705,1.464c-8.051-0.07-16.478-3.666-24.051-1.707
		c-3.315,0.854-8.543,4.024-11.796,2.462c-4.833-2.31-9.128-7.835-6.666-16.919L272.158,303.771z"/>
	<path fill="#FF0000" d="M132.991,139.788c0.288-0.036,0.584-0.818,0.746-1.069c0.305-0.521,0.736-0.907,1.088-1.383
		c0.583-0.747,1.113-1.457,1.896-2.014c0.708-0.476,7.097,0.323,7.904,0.486c0.854,0.188,2.481,0.7,3.299,0.978
		c0.754,0.254,1.914,3.477,2.982,3.299c0.854-0.144,1.878-0.936,2.479-1.483c0.736-0.69,0.782-0.807,1.725-0.682
		c2.21,0.27,3.216,0.224,5.408,0.674c0.961,0.206,1.968,0.513,2.848,0.808c0.486,0.172,1.069,0.512,1.51,0.8
		c0.342,0.208,0.96,0.611,1.133,0.972c0.286,0.573,0.089,1.705,0.071,2.326c-0.036,0.952-0.108,1.743-0.521,2.623
		c-0.673,1.438-1.222,3.046-2.012,4.331c-0.359,0.583-0.629,1.293-0.925,1.931c-0.181,0.386-0.225,0.621-0.603,0.755
		c-0.396,0.145-0.611-0.009-0.979-0.188c-0.638-0.298-1.25-0.522-1.896-0.567c-0.844-0.081-1.769-0.207-2.542-0.475
		c-0.728-0.253-1.429-0.676-2.166-0.899c-0.755-0.217-2.147-0.458-2.892-0.693c-0.271,0.415-1.618,1.825-1.94,1.969
		c-1.007,0.404-1.493,0.153-2.328-0.556c-0.403-0.334-1.823-2.066-2.065-2.354c-0.252-0.296-1.591-0.468-2.004-0.594
		c-0.826-0.242-1.752-0.179-2.615-0.269c-0.871-0.091-1.895-0.063-2.703-0.334c-0.836-0.277-1.59-0.637-2.39-1.005
		c-0.809-0.388-1.5-0.79-1.869-1.626c-0.486-1.097-0.701-2.184-0.844-3.36c-0.063-0.593-0.243-1.329,0.08-1.86
		C133.341,139.519,132.991,139.788,132.991,139.788z"/>
	<path fill="#FFFFFF" d="M147.68,142.312c0.27,0.026,0.728-2.299,0.791-2.569c-0.809-0.656-2.138-0.934-3.073-1.311
		c-1.095-0.414-5.165-1.053-6.127-1.195c-1.051-0.152-1.455-0.342-2.012,0.584c-0.953,1.572-2.103,3.225-1.933,5.057
		c0.082,0.899,3.504,2.462,4.35,2.731C141.194,146.086,147.68,142.312,147.68,142.312z"/>
	<path fill="#FFFFFF" d="M154.428,140.677c-0.288,0.612-0.674,2.912-0.531,3.479c0.117,0.53,3.216,4.302,3.37,4.607
		c0.225,0.434,4.878,1.457,5.184,1.025c0.593-0.81,1.142-2.04,1.474-3.002c0.287-0.862,0.629-1.715,0.808-2.604
		c0.091-0.395,0.162-0.809,0.234-1.188c0.126-0.556,0.18-0.169-0.251-0.475c-0.288-0.189-0.593-0.476-0.862-0.646
		c-0.359-0.242-0.8-0.225-1.16-0.324c-0.978-0.278-1.966-0.493-3.036-0.547C158.722,140.957,154.428,140.677,154.428,140.677z"/>
	<path fill="#FF0000" d="M136.064,137.057c0.071,0.009,0.117,0.054,0.179,0.099c-0.099,0.457-0.575,0.837-0.827,1.231
		c-0.26,0.423-0.872,1.536-1.15,1.95c-0.702-0.729-2.039-1.563-2.776-2.318c-0.324-0.324,0.233-1.015,0.116-1.465
		c-0.081-0.395-0.152-0.809-0.25-1.231c-0.215-0.907-0.279-2.191-1.447-2.245c-1.078-0.071-1.401,1.078-2.238,1.455
		c-0.323-0.323-0.574-0.827-0.835-1.213c-0.251-0.369-0.477-0.744-0.637-1.159c-0.45-1.096-0.88-2.273-1.581-3.253
		c-0.189-0.26-0.396-0.476-0.62-0.699c-0.126-0.117-0.602-0.467-0.647-0.604c-0.153-0.402,0.288-1.05,0.413-1.438
		c0.144-0.483,0.351-0.987,0.44-1.473c0.081-0.448,0.288-0.979,0.566-1.393c0.512,1.177,1.464,2.265,2.048,3.459
		c0.791,1.59,2.264,2.597,3.172,4.106c0.341,0.557,5.714,5.903,5.714,5.903L136.064,137.057z"/>
	<path d="M149.109,141.343"/>
	<path d="M156.88,144.371c0.279,1.104,1.303,1.544,2.345,1.742c0.602,0.117,1.275,0.027,1.842-0.108
		c0.539-0.125,1.113-0.549,1.653-0.573c-0.521-1.053-1.833-1.699-2.964-1.754C158.722,143.624,157.042,144.343,156.88,144.371z"/>
	<path d="M137.761,141.216c-0.34,0.243,1.223,0.72,1.519,0.782c0.638,0.154,1.329,0.396,1.995,0.468
		c0.853,0.098,2.515-0.271,2.955-1.123c-0.576-1.123-2.767-1.805-3.98-1.708c-0.736,0.064-1.68,0.387-2.246,0.835
		C137.527,140.84,137.761,141.216,137.761,141.216z"/>
	<path fill="#FF0000" d="M141.337,154.989"/>
	<path d="M167.356,138.575c-0.063,0.26-0.207,0.486-0.413,0.647c-0.835-0.862-0.45-3.11-0.539-4.296
		c-0.144-1.652-0.243-3.421-0.611-5.057c-0.772-3.576-2.246-7.368-3.549-10.81c-1.141-3.018-3.136-5.265-5.256-7.438
		c-2.066-2.103-5.174-3.432-7.816-5.004c-2.515-1.5-5.624-1.393-8.427-0.863c-3.046,0.576-4.906,1.869-7.583,3.199
		c-2.471,1.239-5.481,2.255-7.61,3.909c-2.263,1.76-3.584,4.626-4.87,7.366c-2.434,5.193-2.021,10.071-1.454,15.569
		c0.241,2.336,0.557,4.743,0.861,7.152c0.359,2.839,2.866,3.62,3.648,6.171c-0.638-3.603,3.89-9.396,6.424-11.185
		c3.468-2.434,8.823-4.6,13.073-5.255c4.627-0.72,9.684-1.835,13.943,0.241c2.417,1.159,4.528,1.231,6.352,3.414
		c1.087,1.32,2.975,3.19,3.459,4.68c0.208-0.178,0.35-0.395,0.405-0.654"/>
	<path fill="#FF0000" d="M149.477,157.191c1.006-0.036,2.66-1.061,2.624-2.121c-0.045-0.727-0.037-1.571-0.647-2.083
		c-0.36-0.298-1.905,0.044-2.83,0.07c-1.572,0.072-2.938-2.075-3.325-1.518c-2.83,3.979-8.049-1.51-8.895-3.324
		c-0.827-1.725-8.382-23.439-11.67-30.879c-0.872-1.959-3.737-13.873-4.025-14.294c-0.197-0.261-2.381-1.374-2.668-1.241
		c-3.063,1.205-1.778,3.118-3.073,2.902c-0.046,0.665,5.643,15.417,7.143,18.213c1.743,3.26,7.547,21.282,8.193,22.603
		c0.791,1.564,0.898,3.038,1.977,4.439c0.899,1.177,2.372,3.63,3.504,4.518c0.683,0.531,1.716,0.657,2.426,1.124
		c0.8,0.513,1.311,0.593,2.165,0.836c0.844,0.252,1.671,0.61,2.543,0.755c0.728,0.117,1.555,0.036,2.246,0.144
		c1.474,0.197,2.373,0.136,2.373,0.136"/>
	<path fill="#245977" d="M120.62,165.582l-0.898,1.069L120.62,165.582z"/>
</g>
</svg>
