<?xml version="1.0" encoding="utf-8"?>
<!-- Generator: Adobe Illustrator 16.0.4, SVG Export Plug-In . SVG Version: 6.00 Build 0)  -->
<!DOCTYPE svg PUBLIC "-//W3C//DTD SVG 1.1//EN" "http://www.w3.org/Graphics/SVG/1.1/DTD/svg11.dtd">
<svg version="1.1" id="Ebene_1" xmlns="http://www.w3.org/2000/svg" xmlns:xlink="http://www.w3.org/1999/xlink" x="0px" y="0px"
	 width="283.46px" height="425.2px" viewBox="0 0 283.46 425.2" enable-background="new 0 0 283.46 425.2" xml:space="preserve">
<g>
	<path fill="#245977" d="M139.168,109.333c-2.366,0.572-4.438,1.909-6.705,2.755c-1.954,0.726-3.992,1.203-5.98,1.799
		c-3.381,1.01-5.762,3.933-6.07,7.537c-0.165,1.958-0.09,5.855,2.678,5.885c1.382,0.02,2.69,0.394,4.074,0.443
		c1.673,0.063,3.354-0.146,4.989-0.487c4.295-0.911,8.088-3.038,11.86-5.2c1.919-1.104,3.766-2.352,5.627-3.544
		c1.615-1.044,3.295-1.998,4.971-2.933c1.366-0.766,2.779-1.542,4.195-2.178c1.71-0.766,3.444-1.363,5.255-1.904
		c2.38-0.715,4.777-0.258,7.004-1.547c1.74-1.008,3.609-2.887,2.227-5.025c-1.024-1.585-3.509-3.076-4.976-4.29
		c-4.19-3.464-9.233-5.984-13.77-8.972c-1.958-1.298-3.684-2.745-5.547-4.052c-2.258-1.58-5.752-2.465-5.24-5.687
		c0.525-3.307,3.271-5.966,3.455-9.306c-1.75-1.606-3.614,2.251-4.086,3.658c-0.149-1.282-0.572-3.579-1.974-3.927
		c-0.576,1.232-0.213,3.002-0.159,4.239c-0.935-1.765-4.946-2.981-3.038,0.214c0.644,1.079,1.899,1.487,2.163,2.789
		c0.367,1.83-0.583,3.962-0.249,5.905c0.676,3.948,3.673,5.837,6.421,8.392c1.522,1.407,2.934,2.903,4.549,4.201
		c2.888,2.311,6.622,3.848,9.194,6.422c-1.772-0.407-2.677-0.035-4.337,0.433c-2.426,0.676-4.597,1.014-6.925,2.008
		C145.755,108.24,142.355,108.553,139.168,109.333z"/>
	<g>
		<path fill="#245977" d="M75.39,80.83c0.656,0.218,1.144,0.054,1.457-0.463c-0.766-13.74,12.86-27.032,26.326-27.614
			c5.31-0.247,10.326-0.175,14.81,2.63c0.343,0.188,0.661,0.188,0.945,0.333c0.338,0.14,0.468,0.413,0.74,0.636
			c2.68,2.078,3.833,4.799,6.979,4.763c1.77-0.02,6.233-1.898,7.919-2.157c2.192-0.258,4.28-1.839,5.662-3.798
			c0.468-0.671,0.374-1.253,0.164-1.979c-0.139-0.497-0.989-1.676-0.626-2.138c0.423-0.586,1.478-0.129,1.85,0.233
			c1.854,1.551,1.288,4.271,0.711,6.299c-0.233,0.89-0.457,2.341-0.93,3.117c-0.283,0.428-0.746,0.814-1.063,1.377
			c-0.343,0.616-0.706,1.242-1.059,1.903c-0.721,1.387-1.392,2.804-2.268,4.136c-0.706,1.055-2.052,1.915-1.322,3.256
			c0.144,0.289,2.629,18.393,2.868,19.914c0.224,1.353,0.979,2.615,1.222,3.893c0.249,1.402-1.332,2.451-2.261,3.216
			c-1.059,0.865-2.208,1.219-3.435,1.805c-1.556,0.711-3.286,1.268-4.907,1.81c-2.544,0.88-4.672,2.546-7.124,3.595
			c-1.829,0.771-3.782,1.108-5.627,1.829c-2.714,1.028-5.258,1.571-8.182,0.935c-2.759-0.617-5.298-1.949-7.834-3.161
			c-0.109-0.051-0.234-0.096-0.318-0.136c-5.981-2.853-10.733-6.412-15.644-10.577c-2.595-2.192-7.983-10.647-6.309-14.144"/>
		<path d="M113.543,68.939c0.825-0.542,1.864,0.258,1.879,1.133c0.045,0.775-0.771,1.392-1.526,1.392
			c-0.552,0-1.556-0.477-1.317-1.158C112.757,69.858,113.543,68.939,113.543,68.939z"/>
		<path d="M123.868,61.939c0.506,0.542,0.06,1.427-0.592,1.562c-0.577,0.14-1.153-0.389-1.253-0.96
			c-0.068-0.413,0.155-1.223,0.686-1.139C123.073,61.481,123.868,61.939,123.868,61.939z"/>
		<path d="M108.646,67.959c-1.929,0.259-1.685,1.686-3.544,2.029c3.833,6.438,5.2,15.211,8.227,22.091
			c-5.822-0.269-5.036-3.986-8.646-8.281c-3.887-4.599-5.095-2.083-6,2.629c-1.681,8.635,9.331,14.416,9.812,22.216
			c-1.914,0.129-4.966-1.929-6.855-2.585c-2.983-1.048-5.955-1.476-8.893-2.286c-4.822-1.288-9.889-3.545-14.118-6.727
			c-2.406-1.794-4.305-3.917-5.369-6.642c-1.238-3.017,0.263-7.77-1.063-10.364c-1.233-2.316-4.291-0.486-6.815-0.616
			c-4.673-0.248-8.585-3.515-12.329-6.393c-7.252-5.559-8.962-15.227-7.088-23.896c1.844-8.327,8.321-11.384,15.668-13.875
			c3.679-1.257,6.224-2.56,9.645-0.179c2.714,1.878,6.362,4.877,8.579,7.378c2.014,2.227,3.277,5.119,4.022,8.027
			c0.721,3.007,0.248,6.597,0.885,9.803c3.583-5.845,10.189-8.291,16.96-9.166c6.532-0.846,14.262,1.431,19.283,6.269
			C121.009,57.392,109.72,64.42,108.646,67.959z"/>
		<path fill="#FF0000" d="M116.714,76.098c-0.915,1.288-0.835,3.504,0.428,4.419c1.476,1.124,4.081,1.337,4.991-0.587
			c0.75-1.665,0.174-4.002-1.854-4.256C120.278,75.674,117.391,75.103,116.714,76.098z"/>
	</g>
	<g>
		<path d="M103.954,356.966c0.611,0,0.865-0.491,1.357-0.557c0.661-0.094,1.476,0.428,2.078,0.606
			c1.073,0.364,2.311,0.637,3.44,0.776c0.83,0.163,1.983,0.128,2.849-0.199c1.034-0.343,1.362-1.372,2.262-1.839
			c0.745,2.013,2.207,3.38,4.226,4.279c2.107,0.92,4.066,2.268,6.229,3.112c2.083,0.829,4.206,1.562,6.269,2.396
			c1.665,0.707,4.523,1.546,5.513,3.127c1.222,1.934,0.432,4.574-0.388,6.532c-0.299,0.687-0.662,1.913-1.362,2.315
			c-0.895,0.518-2.734,0.448-3.644,0.27c-5.448-0.989-11.061-2.208-16.226-4.057c-0.512-0.214-1.605-1.003-2.147-0.79
			c-0.344,0.148-1.159,1.59-1.393,1.979c-0.487,0.66-0.86,1.71-1.491,2.196c-0.86,0.672-1.521,0.249-2.58-0.039
			c-2.197-0.577-4.543-1.035-6.771-1.649c-0.79-0.245-1.675-0.567-2.456-0.757c-0.695-0.14-2.108,0.109-2.595-0.517
			c-0.885-1.192,0.359-5.403,0.567-6.771c0.343-2.166,0.706-4.388,1.183-6.536c0.354-1.615,0.731-3.698,1.447-5.199
			c0.477-1.144,2.346-3.799,3.897-3.654c0.447,1.388,0.706,2.108,1.755,3.156c0.746,0.746,2.456,2.233,3.36,0.841"/>
		<path d="M104.252,353.308c0.104,0.034,0.185-0.542,0.223-0.775c0.08-0.329,0.12-0.646,0.214-0.979
			c0.185-0.66,0.442-1.307,0.691-1.958c0.487-1.312,1.621-2.467,1.491-3.952c-0.984-0.141-1.561-0.259-1.964-1.332
			c-0.104-0.294-0.412-0.92-0.088-1.194c0.173-0.128,0.81-0.02,0.964,0.07c-0.179-0.397-0.601-1.044-0.413-1.517
			c0.155-0.393,0.945-0.636,1.272-0.322c-0.303-0.378-1.461-2.108-0.413-2.308c0.224-0.05,0.626,0.08,0.865,0.105
			c0.482,0.069,0.835,0.317,1.333,0.337c1.805,0.04,3.499,0.637,5.27,0.851c0.497,0.06,1.028,0.07,1.521,0.145
			c0.447,0.05,0.875,0.149,1.322,0.224c0.521,0.119,1.063,0.079,1.595,0.188c0.572,0.095,0.656,0.273,1.069,0.651
			c0.462,0.407,1.357,0.576,1.287,1.333c-0.059,0.81-1.083,0.869-1.406,1.401c0.253,0.164,0.591,0.824,0.413,1.108
			c-0.095,0.174-0.916,0.651-1.069,0.696c-0.085,0.367,0.636,0.566,0.397,1.084c-0.154,0.352-0.825,0.61-1.099,0.84
			c-0.198,0.163-0.636,0.482-0.775,0.661c-0.234,0.303-0.308,0.954-0.427,1.327c-0.279,0.771-0.244,1.725-0.313,2.54
			c-0.1,1.063-0.288,1.969-0.547,2.972c-0.189,0.792-0.741,1.497-1.342,2.054c-0.422,0.378-0.775,0.448-1.287,0.602
			c-0.691,0.208-1.258,0.661-1.979,0.75c-1.159,0.13-2.301-0.019-3.291-0.586c-0.438-0.248-0.861-0.403-1.238-0.74
			c-0.377-0.349-0.666-0.761-0.984-1.184c-0.448-0.586-0.706-0.944-0.846-1.675c-0.039-0.198-0.168-0.438-0.224-0.65
			c-0.074-0.305-0.039-0.822-0.223-1.094"/>
		<path fill="#FFFFFF" d="M106.116,340.03c0.348,0.373,1.034,0.597,1.521,0.75c0.646,0.189,1.292,0.532,1.968,0.651
			c1.248,0.238,2.51,0.085,3.752,0.238c1.139,0.131,2.237,0.339,3.406,0.339c0.552,0,1.029,0.06,1.561,0.119
			c0.293,0.05,0.542,0.129,0.855,0.095c0.229-0.016,0.547-0.154,0.746-0.095c0.084,0.646,0.239,0.988-0.304,1.426
			c-0.566,0.483-0.815,0.646-1.57,0.646c-0.885,0-1.72-0.209-2.605-0.224c-0.819-0.009-1.442-0.219-2.197-0.551
			c-0.636-0.274-1.312-0.508-1.948-0.801c-0.612-0.259-1.237-0.677-1.884-0.865c-1.083-0.328-2.923-0.354-3.515-1.616"/>
		<path fill="#FFFFFF" d="M105.465,342.884c0.458,0.542,1.814,0.79,2.525,0.954c1.164,0.293,1.83,0.859,2.854,1.427
			c0.387,0.232,0.875,0.446,1.297,0.592c0.498,0.148,1.154,0.368,1.665,0.438c1.014,0.113,2.157,0.188,3.182,0
			c0.671-0.135,1.531-0.607,2.078-1.005c0.213-0.144,0.621-0.626,0.199-0.85c-0.224-0.119-0.85,0.427-1.084,0.522
			c-0.815,0.352-1.934,0.491-2.843,0.337c-0.875-0.148-1.666-0.565-2.525-0.8c-0.661-0.188-1.297-0.199-1.943-0.447
			c-0.651-0.234-1.333-0.542-2.009-0.711c-0.493-0.124-3.43-0.21-3.286-0.904"/>
		<path fill="#FFFFFF" d="M107.001,345.736c0.408,0.035,0.601,0.389,0.894,0.626c0.438,0.344,0.955,0.588,1.412,0.886
			c0.854,0.557,1.75,1.005,2.788,1.128c1.646,0.179,3.56,0.03,5.097-0.219c-0.095,0.493-0.359,1.06-0.568,1.521
			c-0.204,0.483-0.755,0.722-1.287,0.777c-0.646,0.059-1.238-0.12-1.874-0.115c-0.711,0.01-1.511-0.074-2.217-0.224
			c-0.582-0.109-1.177-0.194-1.715-0.452c-0.518-0.244-0.885-0.72-1.333-1.06c-0.438-0.317-0.884-0.565-1.178-1.038
			c-0.259-0.412-0.13-1.099-0.13-1.616"/>
		<path fill="#FFFFFF" d="M105.792,348.804c-0.059,0.378,0.239,1.099,0.413,1.442c0.229,0.457,0.651,0.784,1.124,1.068
			c0.91,0.541,1.969,0.884,2.983,1.014c0.97,0.109,2.018-0.029,2.938-0.139c0.493-0.061,0.92-0.139,1.426-0.189
			c0.369-0.049,0.955-0.388,1.308-0.328c-0.02,0.503,0.298,1.084-0.01,1.615c-0.268,0.433-0.851,0.731-1.298,0.896
			c-0.591,0.213-1.143,0.378-1.745,0.233c-0.944-0.249-1.898-0.407-2.867-0.672c-1.273-0.352-2.452-0.869-3.535-1.639
			c-0.462-0.344-0.85-0.86-0.97-1.427c-0.049-0.344-0.308-1.512,0.233-1.541"/>
		<path fill="#FFFFFF" d="M104.58,352.427c0.412,2.119,2.386,2.591,4.39,2.844c1.755,0.224,3.788,0.802,5.602,0.339
			c0.368-0.105,0.81-0.224,0.885,0.327c0.055,0.418-0.323,0.92-0.582,1.185c-0.656,0.636-1.293,0.81-2.167,0.909
			c-0.865,0.095-2.062,0.104-2.853-0.12c-0.895-0.248-1.701-0.789-2.54-1.177c-0.458-0.205-1.128-0.359-1.497-0.701
			c-0.318-0.304-0.542-0.762-0.755-1.104c-0.338-0.513-1.188-2.123-0.259-2.502"/>
		<path fill="#245977" d="M137.503,276.654c-0.591-2.445,13.173-37.626,11.438-39.291c-4.176,9.106-19.511-10.25-23.876-1.69
			c-0.124,0.249-5.329,57.743-7.873,64.454c-2.542,6.711-5.006,12.666-7.114,20.591c-0.652,2.476-1.795,5.402-2.044,7.729
			c-0.154,1.426,0.169,2.913,0.036,4.359c-0.095,1.055-0.776,3.943-0.756,4.718c0.154,5.255,6.964,3.862,10.821,3.365
			c0.482-10.782,8.133-22.234,10.663-32.624c1.427-5.911,3.207-11.514,4.489-17.296C134.292,286.501,138.726,281.68,137.503,276.654
			z"/>
	</g>
	<path fill="#FF0000" d="M127.064,213.899c1.874,2.411-0.541,6.876-0.994,9.436c-0.646,3.639-1.557,5.677-3.042,8.943
		c-1.591,3.504-3.704,5.333,1.263,6.676c2.584,0.696,7.193,1.77,10.036,1.134c6.278-1.383,2.953-14.154,1.77-18.398
		c-0.706-2.505-0.687-6.234-2.356-8.352c-0.884-1.114-1.734-1.77-3.33-1.666c-2.561,0.18-2.118,1.984-3.346,3.894"/>
	<path fill="#245977" d="M140.098,244.049c-2.595,3.574-1.078,4.21-0.84,6.145c0.414,3.34,1.074,7.068,1.804,10.35
		c0.98,4.334,2.288,8.421,3.127,12.711c1.79,9.177,2.426,18.771,4.26,27.947c1.73,8.609,2.909,18.069,2.909,26.854
		c0,4.201,0.72,7.928,0.72,12.089c0,3.72-0.412,7.755,0.12,11.409c3.4,1.631,5.896-0.074,9.142,0.024
		c0.343-2.808-0.154-5.71,0.115-8.55c0.264-2.879,0.984-6.149,1.277-8.813c0.646-5.896,0.173-12.055,0.895-17.856
		c0.353-2.818-1.014-6.785-0.08-9.415c0.613-1.65,3.525-3.753,3.823-5.687c1.273-8.068,0.482-10.399-1.581-15.912
		c-0.875-2.367-1.839-3.952-2.183-6.473c-0.383-2.854-0.477-5.861-0.711-8.66c-0.492-5.746-0.78-11.582-1.436-17.313
		c-0.154-1.401-0.592-6.065-1.596-7.044c-1.531-1.531-5.612-1.699-7.785-2.302C147.878,242.384,140.098,244.049,140.098,244.049z"/>
	<path d="M153.789,366.978c0.153,2.336,3.33,2.188,5.169,2.173c1.049,0,1.58,0.075,2.366-0.526c0.626-0.487,0.885-1.492,1.551-1.795
		c0.303,1.237,1.675,1.308,2.674,1.72c1.134,0.438,2.183,1.004,3.246,1.512c2.147,1.073,4.479,1.719,6.577,2.769
		c2.242,1.133,4.37,2.252,6.735,2.854c1.899,0.547,4.379,0.935,5.951,2.281c1.67,1.497,1.839,4.693,1.869,6.795
		c0.014,1.13,0.283,2.06-0.885,2.53c-0.854,0.358-2.734,0.238-3.688,0.13c-4.847-0.412-9.625-2.297-14.427-3.231
		c-1.108-0.225-2.262-0.225-3.315-0.576c-0.756-0.224-2.063-0.268-2.68-0.652c-0.855,0.951-1.154,2.944-2.51,3.392
		c-0.706,0.249-1.984-0.199-2.699-0.344c-1.168-0.169-2.132-0.357-3.291-0.427c-1.745-0.13-3.242-0.707-4.917-0.86
		c-0.601-0.046-1.689-0.209-2.092-0.721c-0.218-0.249-0.492-1.661-0.611-2.028c-0.805-2.709-2.063-6.288-1.213-9.201
		c0.467-1.601,1.168-3.052,2.594-3.962c0.637-0.397,1.293-0.91,1.899-1.188c0.716-0.322,1.447-0.145,1.934-0.671"/>
	<path fill="#FD1813" d="M104.784,114.951c1.869,1.66,0.045,7.476,0.363,10.086c0.413,3.439,1.536,7.745,2.57,11.359
		c1.839,6.542,3.514,13.059,4.647,19.675c2.361,13.929,6.478,26.655,9.848,40.241c1.75,7.019,3.331,14.191,5.006,21.409
		c1.646,6.945,2.76,13.85,5.483,20.357c0.885,1.993,2.49,4.816,3.978,6.361c2.733,2.924,5.22,2.243,9.057,2.192
		c3.882-0.043,7.322,0.39,10.981,0.741c2.113,0.204,8.282,1.571,9.718,0.07c3.867-4.066,6.478-48.537-0.9-49.357
		c-3.782-11.209-9.196-21.833-12.88-33.033c-3.137-9.365-6.154-18.975-8.878-28.33c-2.441-8.445-4.812-17.647-9.604-25.715
		c-2.649-4.419-7.237-3.763-12.303-3.216c-5.062,0.596-9.729,1.988-14.437,3.853C107.955,113.19,104.784,114.951,104.784,114.951z"
		/>
	<path d="M152.173,115.114c0.333,1.348,1.536,0.931,2.441,1.661c0.606-0.665,1.148-2.192,2.088-2.322
		c1.819-0.268,1.426,1.393,1.193,2.467c-0.428,1.53-1.462,4.822-2.834,5.936c-1.799-0.643-2.063-2.328-1.049-3.754
		c-0.905-0.433-2.048-0.815-3.052-1.192c0.069,0.163,0.069,0.343-0.085,0.507"/>
	<g>
		<path d="M101.09,170.532c0,0,1.601,20.933,7.173,28.94c5.578,8.009,37.75,3.331,37.75,3.331s-10.091-13.353-11.712-19.252
			C132.676,177.646,101.09,170.532,101.09,170.532z"/>
		<path d="M167.146,152.363c-0.274-0.209-0.274-0.209-0.05-0.046c1.272,0.646,3.316,0,4.658-0.342
			c0.377,0.447,1.531,1.547,1.531,2.183c0.049,1.416-0.481,0.79-1.362,1.118c-1.457,0.641-3.281,0.925-4.554,1.879
			c-1.372-0.522-0.84-2.889-1.302-4.002"/>
		<g>
			<path d="M143.623,199.299c-0.049-0.06-0.119-0.118-0.174-0.178c2.58-1.254,5.09-2.844,7.099-4.718
				c5.463-5.096,10.399-9.47,13.715-16.385c1.77-3.669,2.302-8.431,2.953-12.478c0.621-3.798,0.501-7.322,0.104-11.115
				c-0.707-6.238-5.105-13.009-9.401-17.558c-2.953-3.106-6.462-7.859-10.707-9.227c-4.345-1.393-9.774-0.91-14.158,0.188
				c-4.827,1.179-8.938,4.033-12.716,7.407c-3.917,3.515-6.532,8.232-10.051,12.194c-2.649,3.008-4.847,6.666-6.706,10.102
				c-2.093,3.882-2.66,8.506-2.491,12.999c0.552,2.347,3.147,4.265,4.931,5.493c3.321,2.242,6.98,4.056,10.724,5.447
				c3.664,1.393,7.496,2.551,11.413,3.048c1.84,0.243,4.245,0.542,6.289,0.114c-0.07-0.655-0.139-1.308-0.309-1.908
				c-0.308-1.179-0.999-1.779-1.511-2.913c-1.118-2.388-0.81-5.424-0.636-7.999c0.204-3.973,0.413-8.951,2.799-12.298
				c2.078-2.953,5.021-5.061,8.729-4.793c2.083,0.209,3.351,1.154,5.071,2.396c1.839,1.367,2.68,3.938,2.868,6.17
				c0.279,3.032-2.679,6.214-4.071,8.759c-1.631,2.997-2.356,6.795-4.469,9.483c-1.82,2.347-4.568,3.231-7.268,4.341
				c-0.328,0.169-0.651,0.188-0.964,0.282c-0.05-0.183-0.05-0.376-0.05-0.561c-1.889,0.343-3.867,0.278-5.652,0.069
				c-4.469-0.453-8.883-1.771-13.043-3.4c-4.072-1.625-8.148-3.51-11.632-6.238c-1.636-1.263-3.51-3.028-4.126-5.15
				c-4.16-3.639-8.008-7.884-10.463-12.492c-1.755-3.375-3.162-6.691-2.888-10.618c0.224-3.978,2.679-7.536,4.966-10.782
				c4.28-6.05,8.505-11.945,14.694-15.828c5.946-3.728,13.402-4.364,20.208-4.508c7.869-0.104,14.898,0.383,22.102,2.883
				c4.085,1.437,8.142,3.604,11.939,5.562c3.525,1.839,7.064,3.54,10.429,5.886c5.568,3.986,10.981,8.104,16.484,12.174
				c1.372,0.979,3.316,2.099,2.436,4.072c-0.805,1.779-1.303,0.62-2.471,0.85c-0.224,0.044-2.237,1.133-1.705,1.649
				c1.959,1.85,3.853,4.986,6.93,4.957c5.379-0.05-0.397-3.764-1.685-4.981c1.461-0.447,1.287-2.217,2.902-1.899
				c1.203,0.234,3.057,2.417,4.022,3.187c2.729,2.268,5.687,3.561,8.574,5.021c3.177,1.546,4.862,2.247,7.268-0.655
				c2.425-2.869,3.161-5.439,3.797-8.919c0.671-3.848,1.441-7.854,2.819-11.688c0.447-1.183,2.232-2.857,2.406-4.071
				c0.293-1.818-1.532-2.077-2.714-1.72c-0.721,1.174-1.426,2.77-1.72,3.336c-0.944,1.839-1.909,3.609-2.644,5.398
				c-1.154,2.749-2.973,5.979-5.881,7.129c-2.868,1.063-6.701-1.238-9.157-2.913c-3.007-2.033-5.414-4.176-8.212-6.279
				c-2.63-2.027-5.036-4.728-7.168-7.133c-1.272-1.462-2.63-2.421-4.225-3.539c-1.601-1.135-2.719-2.467-4.35-3.585
				c-2.958-2.067-5.806-4.2-9.003-5.826c-3.042-1.571-5.945-3.589-9.176-4.906c-3.028-1.253-6.189-2.539-9.366-3.837
				c-3.097-1.288-6.512-2.854-9.798-3.466c-8.52-1.614-17.061-0.899-25.585,0.567c-6.408,1.129-12.443,2.794-17.493,7.063
				c-3.127,2.645-6.463,5.578-8.883,8.894c-4.161,5.638-6.169,11.762-8.352,18.354c-1.307,4.036-2.749,8.366-2.993,12.656
				c-0.224,3.995,0.532,8.777,1.566,12.637c1.272,4.683,3.883,8.003,6.337,11.944c2.252,3.575,4.917,6.97,7.854,10.122
				c2.784,3.017,6.03,6.214,9.589,8.823C114.05,201.243,130.097,204.549,143.623,199.299z"/>
			<path d="M149.294,204.604c-0.243-0.19-0.433-0.409-0.671-0.612c-1.356-1.252-2.784-2.619-4.195-3.927
				c-11.577,4.648-24.984,3.171-36.637-1.546c2.202,4.503,4.748,8.903,6.895,13.437c1.099,2.321,2.336,3.445,3.575,5.696
				c0.258,0.577,2.49,2.432,2.833,2.958C132.264,217.131,140.853,212.418,149.294,204.604z"/>
			<path d="M120.304,220.521c-0.428-0.95,0.636,0.224,1.943,1.421c1.905,1.716,3.351,3.709,5.19,5.379
				c1.904,1.646,3.952,3.187,5.96,4.758c1.79,1.541,3.44,2.997,5.155,4.389c8.854,7.263,18.716,13.974,28.594,19.979
				c4.146,2.561,8.595,5.395,12.203,8.655c1.631,1.477,2.764,3.449,4.568,4.707c0.756,0.522,1.74,0.767,2.477,1.287
				c0.963,0.652,1.685,1.885,2.391,2.75c2.251,2.828,4.519,5.379,6.492,8.465c1.327,2.078,2.251,4.52,3.475,6.701
				c1.167,2.147,3.106,3.555,4.812,5.359c3.022,3.126,5.254,6.412,9.5,8.019c3.782,1.417,8.267,1.501,12.303,1.073
				c4.881-0.498,8.267-3.137,12.134-5.966c2.61-1.938,4.434-4.394,6.392-6.984c2.079-2.878,3.987-6.054,5.414-9.275
				c2.386-5.319,6.015-10.475,6.974-16.32c1.134-6.631,0.328-13.556-0.05-20.172c-0.586-9.709-2.456-19.203-4.896-28.628
				c-1.223-4.728-3.098-9.331-5.021-13.845c-1.631-3.867-3.296-7.655-5.479-11.265c-3.335-5.488-6.427-10.955-10.862-15.604
				c-2.713-2.903-7.869-4.853-11.617-6.021c-1.65-0.491-3.335-0.801-5.119-0.612c-1.308,0.155-2.735,0.792-4.007,0.816
				c-0.79,3.291-3.708,6.745-5.603,9.54c-2.525,3.667-5.324,6.433-8.66,9.295c-2.923,2.525-6.168,4.887-9.246,7.198
				c-2.575,1.934-5.617,4.116-8.639,5.339c-5.708,2.302-11.861,3.555-17.891,3.679c-2.938,0.039-6.17-0.328-8.938-1.298
				c-1.028-0.388-5.91-2.217-5.498-3.231"/>
			<path fill="#FFFFFF" d="M241.642,287.258c1.958-0.015,2.699-3.68,3.197-5.26c0.755-2.387,2.182-4.24,2.938-6.621
				c1.287-3.973,2.132-7.681,2.63-11.856c0.397-3.55,0.532-7.372,0.482-10.976c0-2.223-0.467-4.434-0.686-6.562
				c-0.294-2.839-0.294-5.671-0.656-8.456c-0.602-5.248-2.595-10.553-4.156-15.604c-0.895-3.042-1.531-6.272-2.664-9.201
				c-0.91-2.286-2.063-4.504-3.042-6.711c-1.994-4.768-3.023-9.907-5.294-14.571c-1.63-3.285-3.589-6.248-5.414-9.315
				c-2.54-4.314-9.778-11.909-14.604-6.428c-2.833,3.247-4.14,7.571-6.205,11.414c-1.943,3.64-3.747,7.362-4.881,11.409
				c-1.372,4.692-2.695,9.494-3.366,14.471c-0.413,2.912-0.656,5.701-1.223,8.52c-0.413,2.064-1.461,4.093-1.958,6.17
				c-0.428,1.983-0.463,3.947-0.925,5.886c-0.775,3.439-0.481,6.875-0.76,10.345c-0.427,5.423-0.154,10.99-0.085,16.454
				c0.105,6.188,1.323,11.791,3.057,17.656c0.915,2.934,2.064,5.767,3.042,8.66c1.119,3.256,2.665,5.225,5.294,7.332
				c3.316,2.631,7.167,3.107,11.051,3.917c3.52,0.706,7.7,1.253,11.085-0.303c3.316-1.511,6.219-3.743,9.261-5.523
				c1.651-0.988,2.888-2.63,4.037-4.22c1.546-2.207,1.804-3.281,1.755-6.209"/>
			<path d="M164.074,175.404c-0.09,1.342,3.708,2.769,4.876,3.38c0.895-0.975,1.223-2.913,2.182-3.585
				c5.951,0.97,2.665,8.53-1.252,10.072c-0.994,0.427-2.61,0.602-2.903-0.81c-0.224-1.215,1.372-1.537,0.636-2.889
				c-0.378-0.756-2.356-1.357-3.062-1.641c-0.995-0.357-1.974-1.179-3.037-1.124c-0.224-0.084-0.258-0.243-0.02-0.492"/>
			<path d="M164.605,126.887c-0.656,0.646-0.706,1.545-1.049,2.371c0.826,0.73,3.902,2.038,3.764,3.335
				c-0.239,2.104-3.589,0.189-4.469-0.198c-1.373-0.587-4.435-1.615-5.259-3.043c-1.393-2.44,2.649-1.426,3.628-0.72
				c0.636-0.612,0.119-3.54,0-3.595"/>
			<path fill="#FFFFFF" d="M142.917,140.537c-0.671-0.532-1.252-2.088-2.819-2.033c-1.217,0.034-2.763,1.795-2.714,2.962
				c0.02,1.496,1.153,1.874,2.406,1.959c1.89,0.188,1.79-0.895,3.316-1.699"/>
			<path fill="#FFFFFF" d="M128.158,156.951c-0.979-1.805-5.483-4.35-5.791-0.552c-0.244,2.585,4.38,4.047,4.966,0.999"/>
			<path fill="#FFFFFF" d="M121.248,175.732c-0.134,0.034-0.273,0.104-0.412,0.153c2.714-0.662-2.336-6.407-4.554-2.077
				c-2.132,4.27,5.688,3.221,4.861,1.307"/>
			<path fill="#FFFFFF" d="M156.577,146.482c-0.616-1.218-1.079-2.242-2.54-2.213c-1.497,0.065-2.252,1.133-2.287,2.471
				c0,3.028,4.708,4.142,5.757,1.412"/>
		</g>
		<path d="M221.022,130.382c-0.189,0.268-0.244,0.312-0.036,0.068c0.791-0.851,0.721-2.042,1.049-2.997
			c0.324-0.97,1.338-2.287,1.303-3.232c1.963,0.791,1.774,1.571,0.86,3.153c-0.671,1.073-1.322,2.942-2.127,3.747"/>
	</g>
	<path fill="#FFFFFF" d="M132.016,114.798c0.283,0.296,0.462,0.626,0.646,0.968c0.218-2.515-1.392-4.474-4.021-3.683
		c0.04,0.377-0.244,1.028-0.155,1.432c-2.943-1.372-5.209,3.097-3.405,4.22c-0.174-2.479-1.839-1.451-2.748-0.497
		c-1.179,1.213-1.755,2.914-1.582,4.553c0.274,0.096,0.553,0.12,0.835,0.051c-1.929,1.228-1.675,6.78,1.362,6.368
		c-0.168,2.631,2.56,4.414,4.718,2.922c1.228,4.022,4.161-0.342,3.947-2.475c-4.35,0.164-6.104-3.739-5.786-7.433
		c0.347-4.856,4.066-5.79,8.475-5.87"/>
	<path d="M153.351,367.569c0.368,0.145-0.174-5.841-0.278-6.661c-0.075-0.571-0.324-1.303-0.567-1.809
		c-0.368-0.791-0.413-0.742-1.147-1.069c-0.976-0.418-1.617-1.302-0.707-2.172c-0.611-0.05-1.118-0.18-1.71-0.31
		c-0.268-0.954,0.403-1.53,1.278-1.556c-0.567-0.755-0.616-1.566,0.02-2.182c0.154-0.144,0.741-0.566,0.935-0.611
		c0.671-0.198,0.626,0.154,1.108,0.344c0.939,0.372,1.497,0.218,2.381-0.005c0.919-0.225,1.789-0.15,2.674,0.038
		c1.477,0.339,4.201-0.322,5.379,0.621c1.551,1.244-0.378,0.971-0.691,1.667c-0.323,0.71,1.576,0.8,1.272,1.684
		c-0.333,0.154-0.686,0.299-1.054,0.294c-0.317,1.019,1.81,0.651,0.642,2.019c-0.462,0.547-0.532,0.273-0.671,1.054
		c-0.1,0.646,0.114,1.223,0.174,1.824c0.129,1.179-0.174,2.103-0.174,3.281c0,1.084,0.139,2.251,0,3.325
		c-0.135,1.144-1.134,1.899-2.009,2.629c-0.775,0.637-1.779,0.802-2.818,0.696c-2.208-0.198-3.117-1.863-3.599-3.771"/>
	<path fill="#FFFFFF" d="M150.041,352.224c0.338,0.427,1.014,0.626,1.496,0.826c0.556,0.224,1.144,0.461,1.72,0.556
		c1.099,0.189,2.257,0.139,3.39,0.139c0.508,0,1.05,0.061,1.542,0.01c0.452-0.063,0.955-0.268,1.397-0.361
		c0.919-0.209,2.003-0.448,2.982-0.294c-0.229,0.397-0.641,0.592-0.78,1.068c-0.273,0.03-0.567-0.021-0.86,0.016
		c-0.233,0.015-0.423,0.153-0.651,0.223c-0.587,0.165-1.083,0.204-1.755,0.204c-0.616,0-1.228,0.03-1.84,0
		c-0.616-0.015-1.203-0.253-1.77-0.332c-0.581-0.07-1.212,0-1.804,0.01c-0.686,0.005-1.238-0.224-1.839-0.543
		c-0.333-0.188-0.756-0.447-1.054-0.681c-0.114-0.094-0.473-0.367-0.458-0.521c0.051-0.353,0.558-0.304,0.646-0.01"/>
	<path fill="#FFFFFF" d="M150.617,355.713c0.164,0.11,0.284,0.324,0.438,0.473c0.214,0.18,0.508,0.309,0.746,0.438
		c0.506,0.284,1.009,0.627,1.59,0.721c1.144,0.18,2.391,0.463,3.6,0.458c1.118-0.01,2.341,0.118,3.395-0.189
		c0.561-0.174,0.755-0.577,1.069-1.048c0.228-0.339,0.537-0.657,0.666-1.04c-0.453-0.035-0.522,0.442-0.875,0.606
		c-0.327,0.155-1.153,0.06-1.521,0.029c-1.029-0.104-1.909-0.551-2.963-0.551c-1.034,0-2.073-0.02-3.067,0.108
		c-0.999,0.13-1.959-0.108-2.75-0.108"/>
	<path fill="#FFFFFF" d="M152.929,359.666c0.73,0.472,1.417,0.556,2.291,0.556c0.979,0,2.024,0.115,2.973,0
		c0.373-0.044,0.825-0.143,1.203-0.224c0.388-0.084,0.845-0.084,1.223-0.213c0.557-0.215,1.144-1.024,1.735-1.099
		c0.069,0.546-0.085,0.984-0.105,1.535c-0.005,0.622-0.581,0.91-1.097,1.239c-1.084,0.65-2.387,0.739-3.62,0.729
		c-1.049-0.011-2.256,0.358-3.295-0.104c-0.338-0.146-0.786-0.413-0.87-0.771c-0.06-0.234-0.11-1.541-0.11-1.541"/>
	<path fill="#FFFFFF" d="M162.14,363.503c0.542,0.318-1.059,1.935-1.426,2.168c-0.389,0.263-0.871,0.387-1.308,0.481
		c-0.318,0.061-0.676,0.04-0.995,0.096c-0.338,0.049-0.646,0.193-0.989,0.229c-1.005,0.089-2.088-0.016-2.958-0.334
		c-0.318-0.119-0.83-0.309-0.889-0.651c-0.035-0.184,0.119-0.551,0.119-0.774c0-0.284-0.025-0.578,0.024-0.851
		c0.368,0.711,1.501,0.637,2.172,0.637c0.91,0,1.701,0,2.525-0.31c0.756-0.283,1.531-0.481,2.272-0.819
		c0.602-0.273,0.979-0.854,1.546-1.174c0.094,0.606-0.095,1.298-0.095,1.964"/>
	<path fill="#FFFFFF" d="M153.471,367.132c0.517,0.711,0.969,1.015,1.874,1.237c0.89,0.189,1.934,0.238,2.843,0.309
		c0.86,0.039,1.725-0.188,2.536-0.338c0.686-0.119,1.064-0.695,1.62-0.984c0.164,1.064,0.025,2.386-1.004,2.964
		c-1.039,0.575-2.705,0.521-3.917,0.541c-1.144,0.024-2.431,0.095-3.266-0.775c-0.462-0.477-1.119-2.525-0.249-2.843"/>
	<path fill="#245977" d="M139.636,117.118c-1.333-1.084-3.092-2.212-4.717-2.63c-3.231-0.814-7.417,0.767-8.65,3.987
		c-1.307,3.435-1.646,7.282-2.132,10.996c-0.542,4.176-0.174,8.942,0.308,13.276c0.413,3.799,1.049,7.751,1.193,11.584
		c0.149,4.429-0.095,8.992,0.302,13.417c0.189,2.212,7.259,12.323,9.948,18.79c1.521,3.644,3.37,7.158,4.339,10.99
		c0.597,2.312,1.024,3.053-1.545,3.868c-0.423,0.13-1.631,0.309-1.794,0.676c-0.433,0.915,0.755,1.636,1.406,1.835
		c-0.91,0.229-2.217,0.511-2.217,1.938c1.91,0.944,4.49,1.884,6.497,1.247c-0.929,0.423-2.396,0.767-2.714,1.75
		c-0.517,1.616,1.615,2.377,2.794,2.625c2.376,0.478,5.428,0.273,6.854-2.117c1.254-2.068,1.661-4.912,1.557-7.113
		c-0.115-2.158-1.333-3.739-2.456-5.533c-1.437-2.287-2.818-4.692-4.086-7.078c-1.243-2.322-2.868-4.479-3.768-6.985
		c-1.641-4.529-3.007-16.311-2.778-17.265c0.223-0.984,0.253-2.067,0.373-3.082c0.293-2.366,0.224-4.633,0.462-6.935
		c0.622-5.871-0.517-11.558,0.209-17.443c0.557-4.603,1.7-9.528,1.76-14.167C140.789,122.06,141.49,118.609,139.636,117.118z"/>
	<path fill="#245977" d="M117.555,253.533"/>
	<path fill="#FD1813" d="M134.201,83.808c0.311,0.108,1.274-1.825,1.436-2.183c0.137-0.299,0.276-0.716,0.658-0.731
		c0.344-0.02,0.654,0.488,0.995,0.294c0.313-0.174,0.308-0.751,0.791-0.566c0.323,0.119,0.534,0.587,0.594,0.894
		c0.157,0.821-0.405,1.249-0.748,1.931c0.562,0.302,1.359,0.556,1.288,1.4c-0.082,0.925-0.945,1.139-1.7,1.004
		c-0.324-0.054-0.626-0.084-0.92-0.223c-0.337-0.154-0.576-0.313-0.944-0.393c-0.748-0.165-1.605-0.701-1.25-1.626"/>
	<path fill="#FD1813" d="M82.782,65.594c-0.649-0.482-0.891-1.422-1.501-1.988c-0.701-0.646-1.924-1.114-2.035-2.203
		c-0.102-0.989,1.13-3.121,1.792-1.326c-1.149-0.871-0.03-2.908,1.051-3.321c1.594-0.606,3.05,0.18,2.973,1.914
		c-0.281-1.442,2.036-1.024,2.453-0.101c0.493,1.094-0.303,2.063-0.698,2.988c1.096-0.129,1.205,1.835,0.922,2.575
		c-0.482,1.258-2.267,1.238-2.967,0.303c0.029,1.357,0.168,2.914-1.691,2.794c-1.406-0.094-2.774-3.008-1-2.703"/>
</g>
</svg>
