<?xml version="1.0" encoding="utf-8"?>
<!-- Generator: Adobe Illustrator 16.0.4, SVG Export Plug-In . SVG Version: 6.00 Build 0)  -->
<!DOCTYPE svg PUBLIC "-//W3C//DTD SVG 1.1//EN" "http://www.w3.org/Graphics/SVG/1.1/DTD/svg11.dtd">
<svg version="1.1" id="Ebene_1" xmlns="http://www.w3.org/2000/svg" xmlns:xlink="http://www.w3.org/1999/xlink" x="0px" y="0px"
	 width="283.46px" height="425.2px" viewBox="0 0 283.46 425.2" enable-background="new 0 0 283.46 425.2" xml:space="preserve">
<g>
	<path d="M163.254,260.323c1.342,3.739,5.583-1.311,6.713-2.39c2.718-2.592,2.654-3.082,1.41-6.754
		c-0.972-2.875,0.172-6.725-0.26-9.736c-0.23-1.615-0.291-2.395,0.162-3.875c0.474-1.552,1.305-2.601,0.821-4.271
		c-0.299-1.026-1.757-3.126-2.683-3.592c-2.691-1.359-2.631,0.881-3.75-2.301c-0.638-1.816-1.138-4.236-3.299-4.889
		c-2.269-0.684-4.376,1.389-5.994,2.594c0.755-1.92-0.985-3.654-2.899-3.01c-1.775,0.598-2.355,2.863-3.166,4.252
		c-3.465-3.318-5.679,0.447-7.855,2.615c-0.705-2.863-1.909,0.42-2.813,0.701c-1.271,0.395-3.942-1.139-5.401-1.289
		c-0.401,1.003-0.335,2.15-0.254,3.213c-3.223-5.441-10.392,2.073-7.915,6.312c-3.499-0.763-7.446-0.123-7.639,4.296
		c-0.035,0.771,0.412,1.576,0.341,2.354c-0.104,1.17-0.398,0.939-0.899,2.107c-0.829,1.936-1.521,3.311-1.022,5.487
		c0.3,1.307,1.605,2.865,1.73,4.12c0.149,1.527-0.839,2.92-0.894,4.611c-0.174,5.133,3.694,6.354,6.774,2.493
		c-0.871,4.669,6.667,1.613,8.257,0.706c-0.863,3.096,4.834,2.796,6.332,1.291c-3.356,3.789,11.37,11.541,11.088,4.785
		c0.787,4.758,12.519,0.953,8.612-2.921C162.491,269.642,166.205,262.789,163.254,260.323z"/>
	<path fill="#245977" d="M161.914,257.058c0.126,0.667,1.281,0.017,1.624-0.206c0.617-0.41,1.012-0.969,1.225-1.672
		c0.479-1.608-0.375-2.406-1.288-3.651c0.453-0.732,1.306-1.114,1.731-1.942c0.439-0.851,0.678-1.638,0.864-2.619
		c0.333-1.748,0.066-3.845-0.554-5.57c-1.48-4.12-5.501-6.479-9.921-6.111c-1.056,0.086-1.864,0.614-2.814,1.03
		c-0.902,0.397-1.764,0.683-2.476,1.403c-1.376,1.396-2.084,3.252-3.175,4.798c-0.585,0.832-0.968,1.593-1.23,2.56
		c-0.245,0.901-1.154,1.21-1.712,1.965c-1.271,1.706-1.124,4.597-0.035,6.407c0.927,1.548,2.674,2.296,4.13,3.286
		c1.295,0.876,2.666,1.508,4.266,1.806c0.764,0.141,1.568,0.226,2.259,0.551c0.77,0.359,1.216,0.716,2.073,0.876
		c1.599,0.302,2.375,0.209,3.533-0.898"/>
	<path fill="#FFFFFF" d="M153.313,245.996c-0.014,0.021,0.088,0.27-0.015,0.007c0.789-0.852,1.342-1.566,2.705-1.07
		c0.894,0.325,1.282,1.244,1.543,2.115c-0.574-0.177-0.715,0.521-1.063,0.792c-0.422,0.32-1.198,0.507-1.708,0.255
		c-0.498-0.245-1.707-1.913-1.299-2.311"/>
	<path fill="#FFFFFF" d="M162.267,248.662c0.046,0.115,0.089,0.129,0.123,0.043c0.164-0.539,0.686-1.297,1.338-1.219
		c0.714,0.088,0.773,0.883,0.728,1.471c-0.163,2.104-2.346,0.658-1.808-0.344"/>
	<path d="M155.812,246.59c-0.077-0.662-2.117,0.301-0.961,1.248c0.491,0.399,1.051,0.053,1.28-0.338
		c0.392-0.666-0.074-0.838-0.274-1.142"/>
	<path d="M164.176,248.422c0.173-0.789-2-0.766-1.507,0.683c0.542,1.583,2.26-0.235,1.258-1.333"/>
	<path fill="#FF0000" d="M159.686,249.141c-1.167-0.271-1.742,0.473-1.807,1.617c-0.092,1.507,1.737,2.25,3.044,2.031
		c1.555-0.26,1.688-1.875,0.604-2.884c-0.765-0.707-2.996-1.431-3.024,0.218"/>
	<path fill="#245977" d="M161.85,252.814c0.008-0.042,0.015-0.076,0.021-0.115"/>
	<path d="M157.39,247.048c0.061-0.071-0.573-0.73-0.714-0.872c-0.271-0.274-0.568-0.442-0.927-0.566
		c-0.452-0.154-0.928-0.238-1.402-0.139c-0.406,0.088-0.697,0.296-1.06,0.473c0.046-0.268,0.145-0.516,0.191-0.79
		c0.016,0.103,0.094,0.18,0.149,0.273c0.119-0.161,0.171-0.374,0.312-0.542c0.042,0.071,0.081,0.209,0.125,0.287
		c0.073-0.104,0.16-0.439,0.292-0.485c0.172-0.06,0.131,0.253,0.146,0.376c0.21-0.12,0.264-0.488,0.527-0.554
		c0.048,0.133,0.024,0.298,0.049,0.414c0.161-0.163,0.306-0.479,0.536-0.535c-0.032,0.192-0.028,0.374-0.055,0.568
		c0.154-0.093,0.252-0.433,0.46-0.411c-0.032,0.17-0.108,0.58-0.021,0.727c0.104-0.176,0.244-0.323,0.407-0.449
		c0.094,0.133-0.045,0.391-0.008,0.56c0.103-0.039,0.349-0.286,0.476-0.22c0.135,0.075-0.029,0.521-0.042,0.653
		c0.154-0.07,0.264-0.426,0.496-0.364c-0.022,0.287-0.132,0.57-0.146,0.856c0.109-0.112,0.203-0.302,0.321-0.438
		c0.075,0.197-0.042,0.593-0.065,0.765c0.053,0.127-0.01,0.421-0.025,0.494"/>
	<path d="M162.412,248.544c-0.233-0.367,0.27-1.175,0.64-1.269c0.018,0.07,0.027,0.148,0.029,0.219
		c0.171-0.099,0.223-0.355,0.404-0.449c0.048,0.106-0.003,0.225,0.02,0.312c0.068-0.109,0.218-0.37,0.349-0.355
		c-0.021,0.118-0.003,0.226-0.007,0.34c0.07-0.073,0.157-0.208,0.27-0.251c-0.001,0.126,0.008,0.257,0.024,0.387
		c0.058-0.058,0.118-0.137,0.185-0.189c0.054,0.129,0.045,0.321,0.042,0.463c0.102-0.043,0.176-0.178,0.295-0.168
		c0.031,0.148-0.052,0.34-0.008,0.455c0.045-0.061,0.089-0.124,0.129-0.193c-0.042,0.19-0.089,0.388-0.043,0.605
		c-0.011,0.131-0.046,0.264-0.072,0.395c0.143-0.549-0.504-1.104-0.977-1.21c-0.548-0.126-1.083,0.692-1.333,0.978"/>
	<path d="M166.025,239.339c-0.008,0.042-0.271,0.315-0.173,0.666c-1.099-0.114-2.087-0.29-2.983-0.79
		c-1.003-0.559-1.405-1.608-2.599-1.66c-1.091-0.049-1.268,1.125-2.609,0.67c-0.733-0.249-1.333-1.333-1.893-1.834
		c-0.448,1.014-1.461,1.752-2.452,2.352c-0.505,0.312-1.287,0.07-1.639,0.437c-0.556,0.577-0.222,1.319-0.626,1.92
		c-0.674,0.989-1.986,1.304-2.674,2.243c-0.715,0.978-0.62,3.137-0.96,4.307c-0.731-0.619-0.777-1.76-1.017-2.779
		c-0.911-0.276-1.909-0.389-2.819-0.668c-1.156-6.998,3.634-12.578,10.334-14.071c2.336-0.52,5.612-0.099,7.854,1.11
		c1.789,0.965,6.405,5.553,4.023,7.286"/>
	<path d="M153.128,244.163c0.074,0.017-0.024-0.012-0.033-0.017c-0.002-0.276,0.444-0.577,0.648-0.739
		c0.393-0.311,0.78-0.6,1.19-0.889c0.615-0.431,1.194-0.843,1.914-1.074c0.992-0.32,1.911,0.472,1.698,1.524
		c-0.309-0.051-0.584-0.302-0.941-0.342c-0.569-0.062-1.334,0.182-1.875,0.314c-0.833,0.201-2.02,0.56-2.676,1.154"/>
	<path d="M165.725,247.366c-0.155-0.083-0.181-1.057-0.255-1.331c-0.11-0.418-0.271-0.863-0.482-1.229
		c-0.32-0.554-0.808-0.845-1.32-1.165c0.078-0.217,0.055-0.467,0.14-0.703c0.43,0.005,0.832,0.436,1.012,0.785
		c0.256,0.5,0.379,1.036,0.554,1.57c0.224,0.682,0.611,1.639,0.367,2.361"/>
</g>
<path fill="#245977" d="M159.755,264.656c1.499-1.146,3.219-1.301,4.835-2.237c1.676-0.972,2.691-2.273,4.027-3.642
	c3.342-3.422,6.87-6.418,10.918-9.109c4.233-2.814,7.619-6.477,11.299-9.949c3.575-3.37,6.908-7.428,9.957-11.258
	c1.745-2.191,4.167-4.038,5.848-6.197c1.702-2.186,2.438-4.287,5.061-5.993c1.869-1.216,5.269-3.122,6.204,0.262
	c0.171,0.616-0.214,3.691-0.67,4.004c-1.587,1.087-0.365-1.667-1.717-1.972c-0.026-0.26-0.047-0.366-0.108-0.518
	c-2.319,2.611-5.083,4.938-6.642,7.912c-1.929,3.683-5.66,6.623-8.499,9.625c-3.917,4.143-7.046,8.943-11.097,12.895
	c-4.045,3.944-7.85,8.463-12.478,11.627c-2.662,1.82-5.718,3.122-8.384,4.979c-2.09,1.457-3.925,3.099-6.025,4.471
	c-1.826,1.195-3.917,2.143-5.612,3.438c-1.114,0.851-2.398,2.272-3.927,1.39c-0.327-2.334,1.596-4.131,2.918-5.84
	c0.658-0.848,1.191-1.811,2.049-2.479c1.01-0.786,1.302-0.585,2.492-1.009"/>
<path fill="#A9DFEC" d="M170.007,92.939c7.163-0.734,14.893,0.173,22.027,1.322c8.574,1.38,16.987,3.48,25.211,6.335
	c8.873,3.079,17.549,7.14,25.386,12.36c5.222,3.48,11.137,7.768,13.478,13.822c1.108,2.866,1.821,5.685,2.252,8.711
	c0.363,2.535,1.312,7.075,0.422,9.156c0.391-0.915-0.071-2.949-0.113-3.943c-0.066-1.521-0.138-3.043-0.217-4.562
	c-0.16-3.053-0.297-6.248,0.771-9.168c0.581-1.587,2.1-4.979,4.081-5.01c0.781-0.013,1.337,0.33,1.825,0.908
	c0.288,0.342,0.642,1.833,1.03,1.917c1.038,0.224-0.372-4.928-0.513-5.702c-0.907-4.994,0.403-9.997,0.151-15.014
	c-0.306-6.096-0.764-12.189-1.561-18.244c-0.928-7.062-2.148-13.69-5.387-20.054c-1.46-2.868-3.292-5.33-5.024-8.028
	c-1.365-2.125-2.278-4.276-4.089-6.074c-2.196-2.181-4.525-4.236-6.748-6.392c-19.122-18.54-53.8-25.228-76.413-10.623
	c-0.898,0.58-1.826,1.463-2.833,1.825c-0.818,0.296-1.352,0.292-2.102,0.856c-1.541,1.153-3.061,2.348-4.572,3.54
	c-2.987,2.354-5.864,4.906-8.009,8.076c-1.377,2.036-3.079,3.877-4.352,5.95c-1.897,3.091-3.26,6.356-5.066,9.462
	c-0.751,1.293-1.563,2.549-2.211,3.857c-1.729,3.492-3.75,7.08-5.106,10.699c-0.907,2.42-2.003,4.657-3.25,6.889
	c-1.188,2.125-1.815,4.325-2.49,6.64c-0.715,2.455-1.847,4.64-1.822,7.218c0.922-0.836,1.92-2.331,3.25-2.514
	c2.026-0.278,2.521,1.815,2.55,3.387c0.039,2.061-0.796,3.998-1.284,5.949c-0.948,3.787-2.076,7.509-3.758,11.039
	c-3.52,7.381-7.19,14.146-5.515,22.451c0.812-2.225,0.937-5.209,1.489-7.741c0.694-3.185,1.277-6.494,2.229-9.632
	c1.24-4.09,3.373-7.958,6.39-11.008c1.308-1.322,2.558-1.851,4.179-2.614c1.871-0.881,3.411-2.452,5.068-3.671
	c7.166-5.273,15.32-9.298,24.016-11.282C165.562,93.535,167.777,93.168,170.007,92.939z"/>
<path fill="#FFFFFF" d="M150.425,85.982c1.4-0.375,2.718-1.681,3.907-2.5c2.648-1.824,5.047-3.721,7.962-5.046
	c4.393-1.996,9.315-3.53,13.949-4.995c10.21-3.229,20.522-3.664,31.087-2.338c10.946,1.375,21.083,7.243,29.965,13.349
	c3.496,2.403,7.922,5.386,10.454,8.867c2.999,4.124,5.138,9.217,7.314,13.823c0.728,1.543,1.487,3.128,2.211,4.616
	c-1.498-1.571-1.773-3.853-2.607-5.759c-1.248-2.85-3.227-5.428-5.102-7.961c-4.517-6.104-10.989-11.417-17.212-15.673
	c-16.317-11.158-40.171-18.661-59.438-11.067c-11.408,4.497-20.908,11.661-30.439,19.273c0.144-0.143,0.232-0.32,0.346-0.501"/>
<path fill="#FFFFFF" d="M160.368,65.838c0.338-0.058,1.416-1.023,2.033-1.488c1.688-1.269,3.365-2.326,5.227-3.364
	c5.031-2.801,10.379-5.562,15.917-7.208c9.996-2.971,18.972-4,29.29-2.957c15.605,1.579,26.994,13.761,35.784,25.474
	c-3.073-5.109-4.854-10.036-9.549-13.978c-6.634-5.569-14.369-10.375-22.806-12.511c-5.976-1.513-11.972-1.254-18.062-0.597
	c-6.228,0.675-12.439,1.479-18.269,3.954c-2.813,1.192-5.066,3.137-7.746,4.522c-2.353,1.217-4.867,2.301-7.072,3.858
	c-1.176,0.83-4.854,4.701-5.75,4.515"/>
<path fill="#FFFFFF" d="M221.336,41.357c2.769,1.362,5.351,3.023,7.808,4.919c1.427,1.101,2.661,2.582,3.79,3.97
	c0.766,0.942,1.559,2.27,2.58,2.95c0.689-1.033-0.764-3.287-1.388-4.116c-0.795-1.059-2.083-2.243-3.046-3.132
	c-1.606-1.48-3.519-2.556-5.337-3.725c-1.596-1.028-3.374-1.847-5.141-2.538c-2.814-1.1-5.699-2.354-8.746-2.609
	c-3.445-0.29-7.103-0.238-10.526,0.146c-6.589,0.738-12.307,3.328-18.349,5.782c-2.55,1.035-5.316,1.973-7.744,3.348
	c-2.326,1.316-4.975,2.558-7.051,4.24c-0.937,0.761-1.81,1.572-2.739,2.346c-0.648,0.541-1.647,1.036-2.103,1.746
	c4.573-2.564,8.793-5.784,13.508-8.112c2.875-1.42,5.855-2.507,8.803-3.767c5.547-2.371,11.005-4.382,17.042-5.116
	C209.011,36.921,215.699,38.582,221.336,41.357z"/>
<path fill="#FFFFFF" d="M143.718,57.685c0.538-0.875,1.078-1.743,1.628-2.597c2.638-4.095,6.061-7.896,9.669-11.131
	c4.936-4.428,9.844-9.296,16.066-11.864c4.451-1.836,8.705-3.365,13.439-4.286c2.538-0.494,5.102-0.825,7.714-0.825
	c3.279,0,6.677,0.088,9.83,0.717c-0.132-0.039-0.245-0.12-0.375-0.149c-5.379-1.225-10.98-1.682-16.562-0.859
	c-3.096,0.455-6.108,1.484-9.119,2.465c-1.482,0.481-2.875,1.002-4.296,1.646c-4.081,1.847-7.842,3.942-11.452,6.707
	c-4.107,3.146-7.683,7.105-10.849,11.134c-3.398,4.324-6.531,8.852-9.376,13.622c-1.481,2.483-2.578,5.124-3.889,7.664
	c-1.318,2.554-2.712,4.957-3.813,7.638c-1.125,2.736-1.941,5.499-3.044,8.26c-0.756,1.892-1.536,3.842-2.394,5.716
	c-0.542,1.183-1.223,2.34-1.562,3.605c-0.388,1.448,0.021,3.032-0.545,4.458c1.062-2.673,1.603-5.611,2.576-8.37
	c0.392-1.106,0.783-2.255,1.251-3.308c0.5-1.128,1.169-2.112,1.68-3.258c2.185-4.902,4.76-9.686,6.631-14.702
	c0.856-2.297,2.011-4.648,3.355-6.731C141.454,61.414,142.579,59.535,143.718,57.685z"/>
<path fill="#A9DFEC" d="M258.963,138.798c1.101,2.36-1.045,6.562-1.982,8.773c-1.684,3.981-2.677,8.264-3.624,12.514
	c-0.478,2.149-1.019,4.238-1.749,6.414c-0.601,1.792-1.376,3.32-2.269,4.921c-2.028,3.633-4.395,7.219-6.155,10.986
	c-2.672,5.718-6.237,11.381-9.227,16.947c-0.877,1.635-2.264,2.914-3.285,4.47c-0.867,1.322-1.756,2.581-2.768,3.816
	c-2.073,2.53-4.137,4.856-6.415,7.21c-1.018,1.053-1.935,2.129-3.122,3.028c-0.858,0.65-2.352,2.533-3.447,2.485
	c-3.63-0.16-0.346-7.148,0.424-8.699c1.647-3.317,3.678-6.482,5.36-9.744c1.822-3.534,3.478-7.105,5.297-10.65
	c1.615-3.145,3.606-6.027,5.207-9.151c1.616-3.154,3.651-6.092,5.408-9.204c1.544-2.735,2.953-5.528,4.612-8.328
	c0.942-1.591,1.822-3.113,2.905-4.66c0.877-1.256,2.009-2.304,2.856-3.584c1.249-1.889,2.315-3.9,3.573-5.788
	c1.846-2.771,3.694-5.513,5.442-8.311c1.632-2.608,3.844-4.794,5.635-7.287c1.188-1.657,2.364-3.344,3.31-5.152
	c0.601-1.146,2.191-3.559,1.41-4.813c-2.344,5.701-6.835,9.93-9.912,15.189c-3.141,5.368-7.095,10.296-10.417,15.521
	c-3.546,5.575-7.236,11.347-10.613,17.13c-3.771,6.457-7.029,12.993-10.464,19.68c-2.869,5.583-5.531,11.107-8.503,16.521
	c-1.312,2.392-3.482,5.109-4.161,7.64c-0.333,1.24-0.208,3.915,1.199,4.609c1.33,0.657,2.696-1.572,3.654-2.445
	c1.226-1.119,2.567-2.141,3.765-3.348c2.208-2.225,4.38-4.628,6.583-6.955c6.107-6.454,10.453-13.656,14.345-21.588
	c2.199-4.479,5.084-8.496,7.236-13.003c2.446-5.121,3.929-10.485,5.252-16.001c1.042-4.344,1.766-9.856,3.739-13.695"/>
<path d="M138.859,254.072c-0.169,1.496-1.355,3.296-2.025,4.662c-0.73,1.475-1.455,2.98-2.238,4.438
	c-0.586,1.105-1.05,2.477-1.564,3.666c-0.603,1.4-1.411,2.702-2.311,4.07c-2.764,4.196-6.265,7.863-9.045,12.064
	c-2.119,3.199-4.78,5.994-6.641,9.402c-0.416,0.757-0.659,1.352-0.732,2.073c-0.101,0.981,0.151,1.071,0.955,1.533
	c2.087,1.21,4.071,2.642,6.17,3.833c6.098,3.461,12.783,5.509,19.473,7.686c-0.194-1.529,0.518-3.023,1.078-4.426
	c0.939-2.332,1.662-4.779,2.319-7.215c0.751-2.775,1.676-5.558,2.833-8.173c0.926-2.089,1.593-4.386,2.606-6.378
	c1.542-3.021,2.928-6.116,4.81-8.96c1.791-2.71,3.771-5.288,5.716-7.726c-1.098-0.861-2.235-1.817-3.423-2.475
	c-2.893,2.18-6.134,9.016-10.363,6.575c-1.878-1.086-3.031-3.174-2.974-5.267c0.058-2.166-0.331-5.029,0.415-7.074
	c-1.561-1.235-3.391-1.342-5.113-2.131c0.359,0.289,0.784,0.518,1.242,0.607"/>
<g>
	<path fill="#FFFFFF" d="M133.021,266.859c-0.602,1.393-1.405,2.688-2.3,4.049c-0.315,0.479-0.646,0.945-0.978,1.411
		c5.92,4.353,12.305,8.149,18.989,11.28c0.309-0.787,0.634-1.561,1.005-2.291c0.773-1.518,1.508-3.051,2.286-4.562
		C145.652,273.521,139.325,270.213,133.021,266.859z"/>
	<path fill="#FFFFFF" d="M143.628,257.551c-0.622-0.294-1.244-0.59-1.868-0.878c-1.062-0.491-2.129-0.974-3.206-1.438
		c-0.432,1.203-1.217,2.473-1.721,3.5c-0.541,1.092-1.086,2.195-1.646,3.289c2.842,0.694,5.646,1.554,8.407,2.531
		c-0.062-0.361-0.102-0.729-0.092-1.098C143.55,261.677,143.305,259.432,143.628,257.551z"/>
	<path fill="#FFFFFF" d="M156.232,262.664c-1.437,1.348-2.968,3.572-4.667,5.057c1.579,0.687,3.146,1.402,4.699,2.149
		c1.302-1.812,2.656-3.565,3.998-5.247c-0.397-0.311-0.801-0.633-1.209-0.951C158.114,263.331,157.173,262.996,156.232,262.664z"/>
	<path fill="#FFFFFF" d="M139.084,286.828c-5.061-2.179-9.754-5.027-13.928-8.562c-1.087,1.378-2.157,2.771-3.146,4.222
		c6.257,3.873,12.278,8.133,18.847,11.493c1.154,0.59,2.319,1.15,3.492,1.698c0.568-2.08,1.234-4.159,2.023-6.17
		C143.904,288.73,141.466,287.854,139.084,286.828z"/>
	<path fill="#FFFFFF" d="M119.281,286.263c-0.975,1.271-1.958,2.534-2.859,3.863c0.785,0.466,1.563,0.939,2.335,1.424
		c6.367,3.993,12.486,8.37,18.943,12.224c1.098,0.656,2.209,1.301,3.333,1.93c0.216-0.9,0.606-1.781,0.945-2.629
		c0.316-0.783,0.601-1.584,0.873-2.391C134.67,296.438,126.81,291.56,119.281,286.263z"/>
</g>
<g>
	<path d="M160.262,387.887c0.619,1.324,2.443,0.52,3.504,0.094c0.613-0.238,0.941-0.32,1.262-0.842
		c0.25-0.424,0.173-1.067,0.501-1.398c0.453,0.656,1.274,0.381,1.943,0.396c0.757-0.004,1.497,0.088,2.234,0.148
		c1.497,0.137,2.995-0.019,4.451,0.119c1.572,0.152,3.058,0.321,4.581,0.135c1.234-0.106,2.762-0.443,3.986-0.019
		c1.309,0.499,2.129,2.317,2.626,3.539c0.269,0.651,0.621,1.124,0.061,1.673c-0.419,0.4-1.542,0.76-2.121,0.906
		c-2.919,0.86-6.131,0.85-9.145,1.389c-0.688,0.12-1.361,0.378-2.058,0.414c-0.491,0.036-1.263,0.316-1.706,0.223
		c-0.284,0.756-0.009,1.984-0.702,2.555c-0.354,0.302-1.197,0.334-1.652,0.408c-0.717,0.164-1.317,0.271-2.013,0.5
		c-1.037,0.312-2.048,0.32-3.054,0.611c-0.365,0.109-1.03,0.257-1.383,0.055c-0.182-0.094-0.66-0.859-0.817-1.045
		c-1.082-1.395-2.626-3.195-2.787-5.086c-0.096-1.036-0.016-2.043,0.613-2.9c0.283-0.371,0.549-0.822,0.833-1.121
		c0.344-0.354,0.81-0.411,0.977-0.826"/>
	<path d="M160.139,388.332c0.249-0.002-1.425-3.368-1.661-3.822c-0.181-0.311-0.494-0.684-0.742-0.93
		c-0.396-0.372-0.414-0.33-0.914-0.357c-0.661-0.025-1.24-0.395-0.902-1.107c-0.368,0.106-0.693,0.148-1.067,0.21
		c-0.374-0.499-0.11-0.987,0.395-1.204c-0.503-0.308-0.722-0.76-0.485-1.27c0.055-0.119,0.299-0.5,0.401-0.565
		c0.344-0.271,0.4-0.054,0.723-0.054c0.631,0.006,0.93-0.214,1.388-0.544c0.486-0.337,1.003-0.486,1.566-0.582
		c0.937-0.136,2.373-1.142,3.272-0.856c1.197,0.379,0.002,0.652-0.021,1.125c-0.029,0.489,1.097,0.11,1.117,0.699
		c-0.15,0.165-0.331,0.326-0.55,0.406c0.057,0.674,1.207-0.026,0.84,1.025c-0.151,0.432-0.249,0.281-0.145,0.772
		c0.081,0.397,0.335,0.686,0.509,1.026c0.339,0.65,0.376,1.262,0.644,1.945c0.246,0.632,0.585,1.279,0.748,1.936
		c0.183,0.699-0.231,1.367-0.573,1.99c-0.307,0.554-0.855,0.864-1.48,1.043c-1.333,0.383-2.248-0.381-2.958-1.377"/>
	<path fill="#FFFFFF" d="M154.736,380.132c0.291,0.179,0.73,0.14,1.06,0.149c0.375,0,0.774,0.007,1.126-0.065
		c0.684-0.138,1.356-0.437,2.011-0.691c0.296-0.114,0.621-0.205,0.897-0.345c0.251-0.137,0.495-0.369,0.738-0.522
		c0.487-0.339,1.054-0.718,1.672-0.853c-0.048,0.291-0.245,0.498-0.227,0.809c-0.15,0.075-0.327,0.111-0.489,0.197
		c-0.138,0.062-0.208,0.188-0.331,0.283c-0.303,0.226-0.583,0.36-0.976,0.509c-0.354,0.144-0.707,0.304-1.066,0.417
		c-0.365,0.133-0.759,0.125-1.111,0.212c-0.365,0.089-0.706,0.274-1.049,0.41c-0.398,0.158-0.762,0.153-1.191,0.101
		c-0.237-0.029-0.545-0.084-0.768-0.157c-0.092-0.019-0.359-0.103-0.391-0.198c-0.044-0.223,0.259-0.299,0.378-0.152"/>
	<path fill="#FFFFFF" d="M155.867,382.039c0.118,0.026,0.234,0.131,0.356,0.18c0.173,0.054,0.369,0.064,0.535,0.083
		c0.361,0.052,0.728,0.136,1.088,0.062c0.713-0.161,1.499-0.272,2.203-0.55c0.656-0.262,1.387-0.464,1.929-0.881
		c0.293-0.229,0.316-0.51,0.387-0.852c0.062-0.249,0.169-0.508,0.156-0.758c-0.273,0.08-0.203,0.377-0.371,0.551
		c-0.154,0.164-0.657,0.296-0.882,0.363c-0.621,0.172-1.236,0.107-1.85,0.35c-0.597,0.234-1.206,0.457-1.76,0.762
		c-0.557,0.298-1.171,0.38-1.628,0.558"/>
	<path fill="#FFFFFF" d="M158.109,383.813c0.525,0.116,0.946,0.011,1.457-0.19c0.573-0.223,1.204-0.385,1.738-0.672
		c0.203-0.109,0.449-0.273,0.65-0.402c0.208-0.141,0.466-0.24,0.663-0.4c0.278-0.256,0.434-0.862,0.76-1.037
		c0.16,0.305,0.172,0.598,0.29,0.918c0.125,0.368-0.139,0.664-0.366,0.973c-0.481,0.627-1.213,0.965-1.941,1.246
		c-0.605,0.232-1.231,0.728-1.945,0.686c-0.23-0.011-0.547-0.067-0.681-0.26c-0.086-0.114-0.412-0.865-0.412-0.865"/>
	<path fill="#FFFFFF" d="M164.338,383.975c0.39,0.059-0.174,1.361-0.333,1.578c-0.167,0.243-0.426,0.422-0.654,0.582
		c-0.166,0.098-0.387,0.171-0.558,0.274c-0.19,0.099-0.326,0.265-0.525,0.361c-0.567,0.274-1.218,0.46-1.803,0.476
		c-0.208-0.001-0.547,0.012-0.662-0.176c-0.063-0.098-0.062-0.354-0.11-0.479c-0.062-0.167-0.142-0.333-0.172-0.497
		c0.373,0.32,1.015,0.025,1.41-0.129c0.528-0.207,0.987-0.385,1.404-0.756c0.371-0.333,0.781-0.624,1.132-0.987
		c0.288-0.296,0.378-0.715,0.632-1.037c0.202,0.338,0.238,0.782,0.39,1.171"/>
	<path fill="#FFFFFF" d="M160.117,388.047c0.457,0.299,0.793,0.373,1.373,0.298c0.559-0.093,1.175-0.302,1.728-0.468
		c0.506-0.166,0.96-0.5,1.395-0.767c0.375-0.227,0.458-0.647,0.724-0.946c0.338,0.588,0.56,1.391,0.091,1.953
		c-0.48,0.57-1.466,0.921-2.164,1.206c-0.665,0.272-1.397,0.605-2.084,0.291c-0.379-0.179-1.218-1.22-0.78-1.604"/>
	<path fill="#245977" d="M123.322,319.461c1.164,0.547,1.44,2.604,2.02,3.67c0.995,1.855,2.222,3.88,3.391,5.623
		c1.551,2.303,3.242,4.387,4.709,6.697c3.109,4.945,5.662,10.392,8.812,15.316c2.948,4.633,5.791,9.878,7.779,14.991
		c0.951,2.444,2.214,4.455,3.153,6.876c0.846,2.172,1.516,4.619,2.656,6.62c2.354,0.179,3.417-1.378,5.339-2.056
		c-0.438-1.717-1.387-3.293-1.879-5.002c-0.501-1.739-0.815-3.81-1.251-5.429c-0.955-3.579-2.628-7.069-3.523-10.606
		c-0.43-1.721-2.128-3.723-2.169-5.471c-0.029-1.093,0.721-2.967,0.935-4.176c0.703-4.131-2.085-6.173-4.533-8.916
		c-1.038-1.183-1.962-1.885-2.737-3.273c-0.87-1.574-1.603-3.31-2.376-4.887c-1.583-3.242-3.079-6.569-4.756-9.761
		c-0.407-0.782-1.722-3.403-2.529-3.74c-1.241-0.548-3.654,0.277-5.061,0.421c-2.71,0.266-8.792,0.238-7.492,4.357"/>
</g>
<g>
	<path d="M37.006,324.336c-1.446,0.205-1.783-1.891-2.013-3.093c-0.134-0.684-0.247-1.025,0.009-1.622
		c0.217-0.462,0.801-0.768,0.896-1.249c-0.797-0.03-1.025-0.929-1.404-1.513c-0.413-0.688-0.902-1.303-1.35-1.924
		c-0.944-1.265-1.64-2.699-2.558-3.931c-0.986-1.322-1.95-2.565-2.635-4.034c-0.588-1.172-1.147-2.738-2.175-3.592
		c-1.14-0.893-3.111-0.583-4.408-0.326c-0.695,0.137-1.28,0.094-1.428,0.912c-0.105,0.608,0.21,1.822,0.409,2.424
		c0.891,3.114,2.667,5.992,3.879,9.015c0.277,0.686,0.429,1.44,0.784,2.084c0.242,0.464,0.433,1.319,0.753,1.66
		c-0.475,0.692-1.648,1.147-1.748,2.104c-0.059,0.488,0.382,1.266,0.572,1.716c0.254,0.737,0.494,1.338,0.691,2.093
		c0.306,1.113,0.858,2.025,1.169,3.099c0.109,0.39,0.354,1.075,0.717,1.269c0.181,0.113,1.082,0.102,1.323,0.137
		c1.762,0.169,4.113,0.52,5.783-0.428c0.919-0.503,1.713-1.158,2.087-2.215c0.157-0.465,0.386-0.964,0.473-1.393
		c0.108-0.511-0.1-0.966,0.158-1.355"/>
	<path d="M36.702,324.707c-0.138-0.229,3.597-0.658,4.106-0.705c0.359-0.02,0.844,0.044,1.186,0.128
		c0.529,0.146,0.506,0.177,0.803,0.61c0.386,0.581,1.014,0.892,1.423,0.179c0.114,0.393,0.254,0.707,0.408,1.077
		c0.624,0.045,0.889-0.467,0.791-1.048c0.533,0.272,1.032,0.212,1.331-0.297c0.067-0.114,0.25-0.556,0.249-0.681
		c0.034-0.47-0.178-0.392-0.354-0.684c-0.353-0.562-0.331-0.955-0.312-1.562c0.017-0.627-0.144-1.181-0.376-1.744
		c-0.397-0.911-0.35-2.781-1.084-3.428c-0.973-0.851-0.548,0.371-0.934,0.666c-0.389,0.311-0.696-0.919-1.194-0.602
		c-0.055,0.235-0.089,0.488-0.039,0.73c-0.59,0.338-0.641-1.102-1.318-0.164c-0.278,0.381-0.1,0.386-0.565,0.576
		c-0.379,0.156-0.756,0.09-1.14,0.131c-0.73,0.072-1.259,0.389-1.978,0.541c-0.66,0.143-1.396,0.214-2.033,0.439
		c-0.682,0.238-1.011,1.001-1.346,1.663c-0.291,0.598-0.246,1.266-0.057,1.928c0.417,1.417,1.558,1.803,2.778,1.866"/>
	<path fill="#FFFFFF" d="M46.526,324.839c-0.308-0.157-0.519-0.575-0.706-0.865c-0.209-0.337-0.434-0.691-0.565-1.053
		c-0.265-0.688-0.384-1.466-0.531-2.198c-0.067-0.334-0.172-0.675-0.208-1.008c-0.024-0.305,0.035-0.654,0.031-0.959
		c0.014-0.631,0.021-1.362-0.213-1.997c-0.211,0.211-0.275,0.509-0.546,0.667c0.019,0.178,0.085,0.361,0.103,0.553
		c0.02,0.16-0.043,0.298-0.05,0.463c-0.025,0.403,0.017,0.732,0.106,1.17c0.081,0.405,0.14,0.811,0.244,1.197
		c0.09,0.404,0.311,0.752,0.432,1.12c0.125,0.38,0.16,0.793,0.239,1.179c0.084,0.445,0.291,0.771,0.567,1.131
		c0.161,0.195,0.373,0.438,0.555,0.596c0.071,0.068,0.289,0.266,0.383,0.236c0.208-0.088,0.106-0.404-0.084-0.427"/>
	<path fill="#FFFFFF" d="M44.312,324.922c-0.087-0.094-0.24-0.138-0.344-0.217c-0.141-0.125-0.259-0.295-0.369-0.435
		c-0.239-0.292-0.512-0.577-0.651-0.94c-0.256-0.73-0.596-1.503-0.753-2.292c-0.139-0.745-0.378-1.52-0.327-2.244
		c0.033-0.393,0.255-0.572,0.497-0.84c0.176-0.2,0.331-0.441,0.555-0.568c0.08,0.283-0.209,0.39-0.26,0.646
		c-0.052,0.237,0.11,0.76,0.182,1.004c0.203,0.655,0.586,1.168,0.727,1.859c0.133,0.673,0.284,1.346,0.333,2.022
		c0.058,0.667,0.328,1.267,0.43,1.781"/>
	<path fill="#FFFFFF" d="M41.594,323.933c-0.384-0.413-0.526-0.85-0.643-1.424c-0.13-0.644-0.34-1.304-0.394-1.946
		c-0.02-0.246-0.022-0.561-0.022-0.818c0.003-0.262-0.057-0.551-0.033-0.818c0.061-0.4,0.483-0.887,0.446-1.283
		c-0.344,0.031-0.59,0.187-0.923,0.268c-0.378,0.094-0.483,0.508-0.61,0.884c-0.261,0.798-0.142,1.651,0.026,2.463
		c0.14,0.679,0.071,1.522,0.497,2.141c0.135,0.204,0.358,0.456,0.592,0.468c0.145,0.01,0.952-0.128,0.952-0.128"/>
	<path fill="#FFFFFF" d="M38.031,318.422c-0.266-0.312-1.046,0.945-1.133,1.216c-0.114,0.286-0.122,0.622-0.129,0.92
		c0.011,0.202,0.067,0.444,0.075,0.652c0.021,0.23-0.04,0.448-0.013,0.683c0.085,0.671,0.291,1.363,0.596,1.891
		c0.12,0.19,0.298,0.502,0.516,0.497c0.113-0.002,0.326-0.149,0.46-0.177c0.175-0.039,0.354-0.064,0.509-0.131
		c-0.475-0.148-0.58-0.898-0.667-1.344c-0.122-0.584-0.224-1.104-0.145-1.689c0.072-0.529,0.091-1.066,0.204-1.59
		c0.084-0.429,0.39-0.752,0.515-1.164c-0.392,0.014-0.782,0.236-1.192,0.322"/>
	<path fill="#FFFFFF" d="M36.955,324.559c-0.505-0.237-0.752-0.499-1.012-1.057c-0.228-0.555-0.393-1.229-0.557-1.822
		c-0.138-0.551-0.112-1.15-0.129-1.696c-0.02-0.468,0.291-0.782,0.393-1.192c-0.677,0.031-1.47,0.299-1.683,1.041
		c-0.213,0.757,0.041,1.844,0.181,2.638c0.137,0.756,0.267,1.603,0.912,2.038c0.356,0.24,1.689,0.391,1.768-0.22"/>
	<path fill="#245977" d="M114.523,318.139c-1.096-0.725-2.97,0.208-4.177,0.302c-2.104,0.175-4.467,0.239-6.571,0.187
		c-2.779-0.067-5.451-0.383-8.187-0.374c-5.848,0.055-11.802,0.896-17.654,0.902c-5.49,0.013-11.438,0.478-16.809,1.636
		c-2.565,0.555-4.938,0.577-7.484,1.127c-2.273,0.488-4.687,1.295-6.993,1.425c-1.444-2.014-0.728-3.861-1.219-5.978
		c1.67-0.598,3.512-0.652,5.216-1.191c1.725-0.552,3.63-1.456,5.224-2.002c3.516-1.203,7.349-1.707,10.798-2.938
		c1.68-0.601,4.288-0.23,5.766-1.198c0.931-0.606,2.084-2.356,2.974-3.242c3.066-3.011,6.305-1.683,9.947-1.058
		c1.557,0.25,2.659,0.673,4.242,0.571c1.789-0.127,3.647-0.468,5.389-0.678c3.58-0.444,7.184-1.019,10.779-1.346
		c0.874-0.083,3.79-0.411,4.519,0.12c1.136,0.797,1.779,3.439,2.434,4.782c1.269,2.593,4.643,8.04,0.483,9.243"/>
</g>
<path fill="#FF0000" d="M102.295,321.223c1.467,0.418,2.927,0.922,4.479,1.293c2.241,0.536,4.514,0.929,6.788,1.293
	c2.355,0.378,4.67,1.454,6.89,2.443c2.499,1.115,4.149,3.13,6.233,4.789c0.808,0.643,1.732,1.25,2.463,1.979
	c0.388,0.388,0.748,1.32,1.265,1.529c0.61,0.244,1.971-0.486,2.037-1.075c0.072-0.659-0.864-1.559-0.789-2.424
	c0.075-0.851,0.074-1.88,0.323-2.714c0.534-1.788,2.509-2.754,4.134-3.41c1.811-0.729,3.883-0.605,5.218,0.945
	c1.272,1.479,1.718,3.418,2.754,4.875c0.232-0.955,1.431-1.319,1.376-2.189c-0.056-0.878-0.922-2.096-1.296-2.891
	c-1.074-2.285-2.347-4.389-3.668-6.501c-1.095-1.751-1.446-3.4-1.449-5.509c-0.001-1.105,0.112-2.129,0.436-3.187
	c0.265-0.867,1.812-3.197,1.444-3.862c-0.534-0.963-3.486-1.232-4.453-1.569c-2.59-0.903-4.952-1.771-7.457-2.912
	c-0.722-0.33-1.443-0.626-2.143-0.99c-2.773-1.45-5.431-3.103-8.235-4.489c-1.251-0.623-3.009-2.09-4.5-1.655
	c-0.818,0.239-0.971,0.979-1.51,1.549c-0.703,0.743-1.704,1.161-2.604,1.606c-2.03,1.007-4.003,2.083-6.054,3.012
	c-1.581,0.716-3.142,1.333-4.785,1.881c-0.609,0.203-1.598,0.344-2.061,0.726c-0.579,0.478-0.311,1.014-0.093,1.753
	c0.019,0.062,4.088-0.463,4.686-0.189c1.378,0.631,1.921,2.2,1.918,3.624c-0.004,2.361-1.076,5.319-3.036,6.783
	c-0.761,0.569-1.788,0.782-2.688,1.028c-1.403,0.381-2.708,0.884-4.063,1.411c-0.155,0.551,0.207,1.442,0.59,1.855
	c0.548,0.587,1.289,0.512,2.142,0.442C98.624,320.308,100.464,320.698,102.295,321.223z"/>
<path fill="#245977" d="M148.647,257.1c-1.115,1.582-3.313,1.95-4.917,0.805c-1.52,1.484-1.346,5.68-1.266,7.578
	c0.102,2.421,1.28,5.774,3.713,6.832c2.691,1.169,5.644-1.411,7.243-3.357c1.255-1.531,3.52-4.072,3.837-6.042
	c-2.565-0.122-3.561-2.355-3.653-4.647c-0.75-0.389-1.812-0.317-2.674-0.553c-1.078-0.294-2.157-0.58-3.236-0.871"/>
<path fill="#245977" d="M139.825,254.76c-0.973-5.094,0.403-10.167,1.528-15.549c0.715-3.423,1.167-6.894,1.65-10.355
	c0.215-1.536,0.357-2.944,0.987-4.324c0.602-1.318,0.386-2.746,0.604-4.146c0.177-1.138,0.245-2.326,0.432-3.465
	c0.358-2.183,0.428-4.298,0.428-6.557c0-1.193-0.091-2.314-0.286-3.426c-0.148-0.844-0.352-2.178,0.028-2.968
	c0.356-0.738,1.199-1.239,1.648-1.923c0.364-0.554,0.369-1.84-0.389-2.216c-0.757-0.376-2.36,0.524-3.007,0.935
	c-1.076,0.686-1.376,1.432-1.559,2.605c-0.422,2.708-1.024,5.361-1.431,8.105c-0.608,4.107-0.962,8.344-1.823,12.459
	c-0.52,2.482-1.013,4.963-1.637,7.421c-0.285,1.124-0.589,2.239-0.963,3.338c-0.329,0.964-0.672,1.91-0.882,2.845
	c-1.64,7.315-2.291,14.002-1.829,20.99c0.221,3.329-0.17,8.657,3.081,5.971c2.075-1.714,3.094-8.528,3.866-11.395"/>
<path fill="#FF0000" d="M160.23,255.852c-0.25-0.092-0.336-0.414-0.702-0.42c-0.326-0.004-0.467-0.088-0.726-0.297
	c-0.463,0.08-0.792-0.026-1.272-0.098c0.369,0.43,0.973,0.594,1.56,0.703c0.315,0.061,0.704-0.059,0.984,0.153
	c0.156,0.118,0.307,0.411,0.368,0.59c-0.489-0.296-1.034,0.121-1.581-0.075c-0.354-0.128-0.892-0.591-1.009-0.954"/>
<path fill="#FF0000" d="M154.516,249.367c-0.809-0.364-1.934-0.688-2.343,0.358c-0.349,0.889,0.063,2.173,0.985,2.585
	c0.739,0.33,1.551-0.271,1.807-0.932c0.23-0.592-0.208-1.899-0.83-1.934"/>
<path fill="#FF0000" d="M164.821,253.492c-0.077-0.004-0.506-0.041-0.746,0.18c-0.248,0.224-0.416,0.695-0.477,1.019
	c-0.089,0.48-0.051,1.777,0.674,1.786c0.301-0.828,0.672-1.963,0.586-2.795"/>
<path fill="#FFFFFF" d="M265.04,95.385c0.189,2.438,0.118,4.756,0.29,7.233c0.79,11.411-0.282,14.489-0.282,17.364
	c0,1.275,0.042,2.564,0.249,3.795c0.139,0.813-0.534,1.607,0.461,1.745c0.543-4.995,0.642-9.671,0.642-14.771
	c0-2.689,0.106-4.542-0.088-7.216c-0.197-2.702-0.257-5.383-0.702-8.011c-0.42-2.488-0.51-5.117-0.844-7.59
	c-0.346-2.561-2.918-15.638-5.883-22.818c-0.975-2.363-7.558-12.318-11.065-15.95c-0.961-0.997-4.035-3.483-5.136-4.259
	c0.233,0.164,4.828,4.596,5.053,4.885c0.305,0.392,1.012,0.914,1.356,1.283c0.896,0.961,3.749,5.115,4.428,6.078
	c0.775,1.1,4.478,6.582,6.024,11.006C262.832,77.572,264.785,92.112,265.04,95.385z"/>
<path fill="#FFFFFF" d="M147.445,95.47c0.149-0.091,0.298-0.183,0.446-0.272c2.574-1.561,5.473-2.961,8.405-3.818
	c3.105-0.908,6.287-1.764,9.426-2.287c2.734-0.456,5.464-0.354,8.277-0.599c9.473-0.824,19.64-0.423,28.935,1.717
	c7.601,1.748,15.51,2.421,22.732,5.643c8.531,3.807,17.618,8.654,24.041,15.575c4.081,4.396,7.606,8.217,8.105,14.203
	c0.4,4.793,0.996,9.359,1.381,14.07c0.424-4.273-3.212-10.104-5.426-13.584c-3.159-4.97-6.455-8.657-11.826-11.365
	c-5.942-2.998-11.82-5.527-17.764-8.38c-7.075-3.396-13.868-5.781-21.406-7.714c-7.168-1.836-14.937-2.223-22.395-3.006
	c-6.564-0.69-12.247-0.876-18.738,0.717c-7.743,1.898-15.011,5.396-21.7,9.688c-5.542,3.554-10.568,8.077-14.43,13.405
	c-0.877,1.211-2.464,3.014-2.604,4.521c-0.122-2.06,1.435-4.515,2.529-6.237c1.222-1.923,2.519-3.919,3.856-5.747
	c1.37-1.873,2.902-3.684,4.349-5.488c1.698-2.119,3.68-3.763,5.82-5.467C141.944,99.065,144.715,97.146,147.445,95.47z"/>
<path fill="#245977" d="M213.479,218.164c0.648,1.184,0.174,5.593,2.589,4.891c2.315-0.675,1.43-5.02,0.835-6.412"/>
<path fill="#FFFFFF" d="M111.652,297.219c0.636-1.097,1.495-2.398,1.937-3.604c0.619,0.104,1.718,1.253,2.222,1.698
	c0.996,0.877,2.118,1.738,3.108,2.637c1.114,1.01,2.099,2.137,3.275,3.086c1.423,1.15,3.106,2.045,4.539,3.189
	c2.228,1.781,4.578,3.261,7.227,4.362c1.824,0.758,3.952,1.719,5.958,1.317c-0.361,0.912-0.777,1.875-0.775,2.875
	c0.001,1.115-0.015,2.135,0.277,3.128c-0.188-0.639-3.223-1.831-3.833-2.284c-1.378-1.025-2.605-2.262-4.091-3.14
	c-2.952-1.744-6.021-3.345-8.855-5.22c-2.21-1.463-4.347-3.004-6.458-4.635c-0.804-0.619-1.62-1.102-2.447-1.72
	c-0.574-0.429-1.417-1.421-2.084-1.518"/>
<g>
	<path d="M115.523,300.229c0.853-0.958,1.747-1.892,2.569-2.871c-0.833-0.722-1.719-1.425-2.535-2.136
		c-0.782,1.091-1.749,2.088-2.636,3.118c0.165,0.149,0.32,0.286,0.46,0.392C114.104,299.271,114.818,299.713,115.523,300.229z"/>
	<path d="M123.262,301.892c-0.488-0.33-0.97-0.667-1.423-1.034c-0.485-0.391-0.935-0.815-1.377-1.247
		c-0.61,0.673-1.226,1.338-1.814,2.026c-0.159,0.185-0.322,0.375-0.485,0.568c1.114,0.818,2.244,1.608,3.388,2.381
		C122.126,303.691,122.703,302.797,123.262,301.892z"/>
	<path d="M127.84,306.496c0.21-0.289,0.432-0.584,0.651-0.887c-0.719-0.491-1.423-1.01-2.114-1.562
		c-0.228-0.182-0.461-0.356-0.699-0.528c-0.427,0.949-0.99,1.834-1.577,2.709c0.927,0.564,1.868,1.109,2.814,1.65
		C127.202,307.41,127.507,306.952,127.84,306.496z"/>
	<path d="M134.193,308.654c-0.198-0.082-0.396-0.164-0.589-0.245c-0.923-0.384-1.808-0.817-2.665-1.291
		c-0.329,0.627-0.675,1.241-1.003,1.849c-0.086,0.158-0.176,0.321-0.267,0.486c0.492,0.283,0.985,0.564,1.472,0.853
		c0.565,0.335,1.093,0.722,1.605,1.128C133.177,310.484,133.667,309.559,134.193,308.654z"/>
	<path d="M139.562,309.727c-0.751,0.151-1.519,0.104-2.281-0.046c-0.525,1.342-1.111,2.663-1.662,3.995
		c1.019,0.547,3.284,1.504,3.445,2.055c-0.292-0.994-0.276-2.013-0.277-3.129C138.785,311.602,139.201,310.639,139.562,309.727z"/>
</g>
<path fill="#A9DFEC" d="M120.768,138.604c-0.555,3.172,0.218,6.111,0.404,9.25c0.143,2.416,0.245,4.769,0.659,7.18
	c0.4,2.328,0.924,4.65,1.856,6.801c1.595,3.682,3.019,7.375,4.34,11.188c1.133,3.267,2.835,6.35,4.348,9.426
	c2.001,4.068,3.553,8.371,5.573,12.452c1.37,2.771,3.223,5.349,4.783,7.996c1.183,2.007,3.3,4.831,5.963,4.445
	c0.763-2.089-1.115-5.102-1.816-7.06c-1.313-3.668-2.097-7.539-2.972-11.328c-1.281-5.546-3.364-10.664-4.659-16.148
	c-1.69-7.17-3.074-14.297-4.263-21.574c-0.614-3.762-1.298-7.424-1.919-11.244c-1.12-6.883-1.998-13.921-3.394-20.783
	c-0.697-3.423-1.375-6.902-2.28-10.226c-0.419-1.542-0.765-3.232-1.154-4.783c-0.22-0.875-0.514-1.837-0.594-2.803
	c-0.071-0.863,1.045-4.841-0.854-3.698c0.905,4.416,1.194,8.989,2.026,13.439c0.785,4.165,2.056,8.129,2.745,12.359
	c1.471,9.032,2.527,18.1,4.23,27.132c1.63,8.643,2.866,17.495,5.378,26.06c1.157,3.94,1.757,7.938,3.29,11.795
	c1.458,3.667,2.681,7.084,4.164,10.547c0.785,1.834,2.156,5.158,1.637,7.15c-1.452,0.023-3.172-2.645-4.054-3.658
	c-1.257-1.443-2.43-3.03-3.425-4.619c-1.841-2.937-3.441-6.02-4.922-9.15c-2.217-4.689-4.366-9.258-6.379-14.004
	c-2.032-4.792-3.103-9.949-5.37-14.648c-2.286-4.738-2.149-9.552-2.904-14.595c-0.256-1.709-0.064-3.677-0.224-5.303"/>
<path fill="#245977" d="M145.168,203.635c0.109,0.246,0.331,0.393,0.479,0.612c0.218,0.327,0.3,0.756,0.429,1.124
	c0.235,0.677,0.469,1.391,0.983,1.907c0.732,0.736,2.114,0.445,2.736-0.319c0.292-0.358,0.565-0.965,0.603-1.418
	c0.061-0.709-0.738-1.562-1.032-2.198c-0.594-1.286-1.238-2.502-2.571-3.092c-0.435-0.191-0.872-0.31-1.308-0.358
	c-0.008,0.076-0.069,0.172-0.072,0.237"/>
<path fill="#245977" d="M145.415,203.193c0,0.942-0.054,1.869,0.114,2.794c0.052,0.286,0.152,0.417,0.377,0.587
	c0.303,0.227,0.345,0.197,0.649-0.004c0.138,0.25,0.417,0.541,0.627,0.736c0.292,0.271,0.569,0.266,0.946,0.205
	c0.562-0.09,0.975-0.196,1.463-0.519c0.308-0.203,0.746-0.441,0.871-0.798c0.119-0.343,0.166-0.709,0.295-1.055
	c0.139-0.367,0.391-0.809,0.259-1.208c-0.215-0.655-0.873-1.247-1.294-1.767c-0.466-0.576-0.994-1.102-1.679-1.388
	c-0.577-0.241-1.186-0.604-1.766-0.71"/>
<path fill="#245977" d="M217.284,215.311c0.794,1.181,1.214,3.009,1.533,4.376c0.128,0.554,0.422,1.706,0.002,2.15
	c-0.407,0.432-1.717,0.462-2.254,0.557c-0.884,0.156-3.016,0.505-3.477-0.604c-0.384-0.926,0.773-3.394,1.341-4.005"/>
<path fill="#245977" d="M143.224,204.197c0.355,0.125,0.573,0.238,0.985,0.237c0.403-0.001,0.725,0.034,1.105,0.132
	c0.436,0.109,1.053,0.216,0.629,0.816c-0.402,0.574-1.263,0.571-1.888,0.512c-0.254-0.023-0.481-0.067-0.63-0.273
	c-0.145-0.199-0.375-0.74-0.249-0.95"/>
<path fill="#245977" d="M211.671,216.928c0.829,0.698,2.67-0.315,3.004,1.42c0.387,2.008-2.232,0.252-2.978,1.195
	c-0.146,0.075,0.122-0.046,0.117-0.046"/>
<path fill="#245977" d="M214.097,217.642c-0.39,0.31-0.934,0.726-1.284,1.17c-0.319,0.405-0.516,0.984-0.971,1.241
	c-0.067-0.289-0.026-0.578,0.114-0.842"/>
</svg>
