<?xml version="1.0" encoding="utf-8"?>
<!-- Generator: Adobe Illustrator 16.0.4, SVG Export Plug-In . SVG Version: 6.00 Build 0)  -->
<!DOCTYPE svg PUBLIC "-//W3C//DTD SVG 1.1//EN" "http://www.w3.org/Graphics/SVG/1.1/DTD/svg11.dtd">
<svg version="1.1" id="Ebene_1" xmlns="http://www.w3.org/2000/svg" xmlns:xlink="http://www.w3.org/1999/xlink" x="0px" y="0px"
	 width="390.782px" height="425.2px" viewBox="0 0 390.782 425.2" enable-background="new 0 0 390.782 425.2" xml:space="preserve">
<g>
	<g>
		<path d="M240.434,164.311c-0.176,0.437-0.104,0.576,0.217,0.423c2.644-1.648,6.444-2.403,9.258-3.312
			c2.66-0.866,6.122-2.739,9.002-1.897c9.902,2.888-6.556,11.734,0.813,14.839c4.495,1.897,17.532,0.932,13.888,9.383
			c-1.514,3.516-5.703,5.574-8.805,7.789c-3.201,2.285-6.42,5.053-9.861,6.928c1.034-9.787-5.088-26.09-15.297-29.751
			c-0.189-0.269-0.138-0.487,0.157-0.65"/>
		<path fill="#245977" d="M226.884,176.651c-0.754,1.574-3.28,3.119-4.824,4.057c-1.532,0.936-3.31,1.221-4.898,1.977
			c-1.985,0.943-2.936,2.595-2.546,4.814c0.12,0.681,0.433,1.234,0.47,1.929c0.098,1.805-0.8,3.076-1.565,4.588
			c-1.163,2.294-2.414,4.622-2.29,7.292c0.085,1.847,0.621,3.558,1.4,5.185c0.641,1.331,1.781,3.085,3.07,3.831
			c1.008,0.587,2.372,1.075,3.49,1.483c1.283,0.472,2.455,1.294,3.491,2.196c0.557,0.485,1.05,1.088,1.145,1.865
			c0.104,0.865-0.14,1.246,0.41,2.009c1.07,1.489,2.603,2.507,3.104,4.271c0.871-0.528,1.626-1.457,2.296-2.215
			c1.054-1.194,2.12-2.485,3.32-3.56c2.57-2.282,5.198-4.515,7.818-6.809c1.796-1.575,3.797-2.946,5.552-4.573
			c1.565-1.454,3.49-2.871,4.364-4.896c1.791-4.138,0.143-8.938-1.602-12.844c-0.616-1.364-1.562-2.539-2.291-3.84
			c-1.151-2.053-2.382-4.033-3.963-5.779c-1.513-1.672-3.152-3.368-5.183-4.406c-2.187-1.114-3.765-1.048-5.881,0.251
			c-1.168,0.72-2.273,1.466-3.334,2.338c-1.895,1.556-3.585,3.197-5.608,4.643c-2.025,1.446-3.818,1.462-6.208,1.519
			c-2.62,0.061-2.499,2.455-1.865,4.393c0.319,0.979,0.764,1.885,0.528,2.912c-0.202,0.889-0.644,1.715-1.019,2.543
			c-0.957,2.143-1.719,4.432-2.372,6.682c-1.572,5.387,2.101,9.891,6.874,12.191c1.289,0.619,4.392,2.062,4.407,3.792
			c0.012,1.116-1.002,2.373-1.641,3.174c-0.78,0.96-1.651,1.92-2.556,2.788c-0.725,0.7-2.1,1.53-2.524,2.406
			c-1.161,2.423,1.946,6.233,3.776,7.422c1.744,1.136,3.932,1.432,5.9,1.024c0.669-0.132,1.287-0.317,1.794-0.802
			c-1.062-2.644-0.425-6.334,0.631-8.896c0.5-1.211,1.262-2.372,2.136-3.38c0.523-0.605,1.078-1.168,1.632-1.729
			c0.408-0.41,1.042-0.778,1.334-1.25c-0.08,0.023-0.159,0.031-0.244,0.016"/>
		<path d="M239.308,199.243c2.08-0.37,2.957-6.227,3.055-8.139c0.106-1.982-2.229-3.746-3.889-4.295
			c-0.509-0.166-1.056-0.265-1.587-0.203c-0.103,0.017-0.664,0.072-0.685,0.198c-0.016,0.104,0.658,0.493,0.747,0.58
			c0.277,0.264,0.583,0.518,0.839,0.804c0.445,0.511,0.829,1.074,1.176,1.662c0.572,0.969,0.868,1.955,0.914,3.087
			c0.056,1.237,0.061,2.509-0.116,3.733c-0.055,0.428-0.152,0.853-0.284,1.271c-0.079,0.258-0.188,0.525-0.235,0.794
			c-0.039,0.247-0.017,0.444-0.118,0.685c0.102-0.141,0.229-0.276,0.323-0.42"/>
		<path d="M231.31,181.024c-0.813-1.092-2.428-7.501-4.535-4.37c-0.155,0.223-0.782,1.611-0.665,1.84
			c0.276,0.569,0.982,0.203,1.562,0.279c1.153,0.149,2.36,1.251,2.939,2.199c-0.099-0.049-0.202-0.089-0.3-0.124"/>
		<path fill="#245977" d="M219.39,190.507c0.057-0.047,0.097-0.081,0.148-0.125"/>
		<path fill="#FF0000" d="M215.209,192.678c-0.037,0.104-0.018,0.142,0.067,0.106c0.408-0.719,1.226-1.555,2.094-1.684
			c0.325-0.046,0.706,0.004,0.994,0.175c0.521,0.309,0.361,0.752,0.693,1.112c0.545,0.592,2.022-0.027,2.085,1.252
			c0.012,0.3-0.204,0.773-0.221,1.117c-0.022,0.469-0.04,0.882-0.14,1.328c-0.205,0.912-0.617,1.805-1.213,2.508
			c-0.718,0.843-1.349,0.812-2.388,0.501c-1.401-0.429-3.435-1.559-3.146-3.359c0.164-0.99,0.914-2.905,1.907-3.169"/>
		<path fill="#245977" d="M229.492,215.802c-0.267,0.86-1.131,2.396-1.691,3.592c-0.833,1.8-1.167,3.794-1.602,5.719
			c-1.349,5.919,0.518,3.16,4.298,4.795c3.505,1.507,3.854,6.19,3.314,9.424c-0.472,2.796-2.827,6.899-5.035,8.643
			c-1.216,0.963-2.833,0.891-3.871,1.691c-1.984,1.541-3.617,4.908-4.94,7.033c-2.043,3.289-3.349,6.897-5.66,10.043
			c-0.939,1.271-1.71,2.894-2.741,4.072c-0.805,0.921-1.585,0.76-2.752,0.734c-2.275-0.064-4.37-0.993-6.617-1.324
			c-2.998-0.448-5.958-1.006-8.94-1.535c-3.008-0.529-6.004-1.174-9.004-1.736c-1.159-0.221-2.467-0.395-3.578-0.039
			c-0.144-0.862,0.7-2.113,1.032-2.945c0.444-1.137,1.007-2.271,1.423-3.401c1-2.722,2.024-5.405,2.962-8.16
			c0.511-1.502,0.779-3.147,1.376-4.595c0.443-1.059,1.233-1.93,1.774-2.93c0.385-0.716,0.683-1.411,0.875-2.191
			c0.323-1.328,0.78-2.831,0.703-4.176c-1.314,0.905-2.249,2.252-3.63,3.071c-0.751-0.528-0.711-2.841-0.693-3.676
			c0.118-4.76,1.495-9.236,4.059-13.3c1.196-1.889,2.741-2.805,4.657-3.728c0.913-0.423,2.047-0.774,3.038-1.118
			c1.576-0.555,2.624-0.707,4.199-0.203c1.565,0.502,3.001,1.336,4.497,1.992c2.105,0.932,4.341,1.487,6.673,1.492
			c1.529,0.011,3.418,0.415,4.895,0.148c3.222-0.585,5.004-5.026,6.109-7.75c0.202-0.485,0.292-1.02,0.485-1.506
			c0.377-0.953,0.089-1.033,1.006-0.586c0.815,0.398,2.554,2.298,3.276,2.029"/>
		<path fill="#FF0000" d="M186.585,350.124c-6.133,3.759-11.712,8.495-17.566,12.78c-4.721,3.45-9.076,7.554-13.434,11.361
			c-3.838,3.354-6.736,7.855-10.126,11.613c-3.707,4.105-8.381,7.896-12.874,11.102c-11.203,7.995-20.265,14.497-34.491,14.518
			c-14.46,0.022-26.257-11.058-34.15-22.116c-3.544-4.971-6.368-9.991-9.474-15.107c-2.352-3.867-5.948-8.111-5.202-12.852
			c0.613-3.913,2.786-8.051,4.355-11.667c2.337-5.386,6.166-17.851,14.367-14.655c6.297,2.456,8.664,16.48,10.515,22.428
			c2.548,8.183,4.919,21.736,13.595,25.767c8.354,3.882,17.591-2.026,23.868-7.467c8.349-7.233,14.653-16.774,21.279-25.704
			c4.788-6.458,9.288-14.22,11.699-21.939c1.062-3.398,1.284-6.847,2.548-10.306c1.434-3.917,3.137-7.743,4.398-11.724
			c1.132-3.572,2.046-7.078,3.297-10.619c2.827-7.967,5.531-15.833,9.338-23.586c3.797-7.736,8.443-15.18,13.285-22.29
			c2.701-3.967,5.324-7.974,8.013-11.927c2.469-3.633,4.793-6.393,7.929-9.353c1.658-1.564,3.451-2.985,4.998-4.664
			c2.031-2.204,4.803-5.449,8.271-4.435c1.219,0.357,5.343,1.277,5.498,2.754c0.105,1.021-1.538,2.119-2.161,2.732
			c-0.998,0.979-2.122,1.888-3.115,2.884c-1.077,1.087-2.193,2.22-2.874,3.66c-0.36,0.767-0.855,1.861-0.832,2.72
			c0.035,1.023,0.832,1.493,1.687,2.026c1.063,0.651,2.232,1.073,3.417,1.437c1.051,0.32,1.752,0.742,2.671,1.205
			c1.364,0.688,3.661-0.326,4.671-1.392c1.685-1.76,3.085-3.865,4.764-5.673c0.652-0.706,1.349-1.389,1.955-2.163
			c0.652-0.843,0.712-1.314,1.785-0.915c0.67,0.249,1.364,0.736,2.022,1.036c0.597,0.272,1.667,0.515,2.054,0.983
			c-0.488,1.028-2.014,1.769-2.885,2.512c-1.046,0.889-1.879,2.005-2.698,3.114c-1.977,2.706-3.108,6.563-4.091,9.772
			c-0.439,1.41-0.807,2.813-1.025,4.297c-0.209,1.414,0.74,2.029,0.676,3.249c-0.059,1.095-1.002,2.905-1.403,3.967
			c-1.116,2.935-2.934,5.526-4.249,8.362c-1.803,3.892-2.993,8.01-4.273,12.094c-2.337,7.436-4.456,13.438-2.104,21.194
			c2.07,6.827,7.166,10.871,14.015,12.702c4.125,1.106,8.697,1.062,12.858,1.584c9.113,1.129,18.362,1.583,27.523,0.351
			c14.675-1.964,28.953-5.593,42.367-10.864c11.136-4.373,21.239-8.467,28.883-18.31c6.486-8.351,9.231-22.201-1.078-27.906
			c-4.3,1.58-5.047,5.163-6.621,8.781c-3.164,0.589-12.124,0.449-14.139-1.393c-5.079-4.649-0.761-15.389,3.114-19.067
			c5.38-5.119,12.267-8.27,19.472-7.645c17.089,1.478,23.195,25.104,23.985,38.904c1.233,21.526-11.758,37.342-29.53,47.845
			c-20.326,12.015-41.522,16.47-65.062,15.668c-11.396-0.39-22.817,0.951-34.235,1.121c-12.128,0.178-26.676,0.658-38.05,5.378
			C191.423,347.366,188.961,348.675,186.585,350.124z"/>
		<g>
			<path fill="#FFFFFF" stroke="#FFFFFF" stroke-width="1.5489" stroke-miterlimit="10" d="M218.497,238.379
				c2.074,0.772,4.169,1.474,6.277,2.12c0.512-1.271,1.075-2.512,1.771-3.592c-1.498-0.642-2.968-1.34-4.417-2.087
				c-0.679,0.86-1.374,1.714-2.123,2.493C219.639,237.702,219.097,238.083,218.497,238.379z"/>
			<path fill="#FFFFFF" stroke="#FFFFFF" stroke-width="1.5489" stroke-miterlimit="10" d="M198.402,227.817
				c2.903,2.125,5.989,4.034,9.205,5.728c0.118-0.759,0.486-1.596,0.781-2.222c0.623-1.312,1.6-2.366,2.587-3.363
				c-2.397-1.775-4.642-3.754-6.493-6.046c-0.615,0.613-1.189,1.245-1.71,1.812C201.417,225.197,199.879,226.474,198.402,227.817z"
				/>
			<path fill="#FFFFFF" stroke="#FFFFFF" stroke-width="1.5489" stroke-miterlimit="10" d="M184.57,245.594
				c5.646,5.336,13.373,8.774,20.433,11.349c4.666,1.7,9.48,3.16,14.369,4.271c0.665-1.206,1.296-2.429,1.786-3.716
				c0.402-1.057,1.343-2.869,1.4-3.967c0.066-1.219-0.881-1.838-0.67-3.248c0.019-0.142,0.058-0.271,0.078-0.415
				c-4.107-0.82-8.169-1.849-12.143-3.17c-6.849-2.274-13.685-5.383-18.92-10.432c-0.353,0.487-0.704,0.957-1.06,1.478
				C188.074,240.345,186.326,242.972,184.57,245.594z"/>
			<path fill="#FFFFFF" stroke="#FFFFFF" stroke-width="1.5489" stroke-miterlimit="10" d="M155.913,306.163
				c-0.601,1.902-1.308,3.766-2.033,5.624c2.511,0.652,5.079,1.081,7.499,1.427c6.735,0.964,13.541,1.233,20.342,1.333
				c12.36,0.185,24.436-1.704,35.912-5.781c-2.441-1.651-4.432-3.792-5.819-6.515c-17.504,2.392-36.206-1.156-51.621-9.461
				c-0.328,0.92-0.656,1.836-0.983,2.756C157.955,299.087,157.041,302.595,155.913,306.163z"/>
			<path fill="#FFFFFF" stroke="#FFFFFF" stroke-width="1.5489" stroke-miterlimit="10" d="M159.918,345.877
				c7.237,3.36,15.649,6.34,23.799,6.132c0.949-0.645,1.913-1.273,2.888-1.873c2.374-1.452,4.836-2.76,7.428-3.838
				c5.009-2.079,10.638-3.336,16.399-4.105c3.868-2.808,7.514-5.922,10.818-9.297c5.46-5.576,10.486-12.233,12.703-19.795
				c-1.602-0.134-3.222-0.262-4.831-0.445c-12.621,9.488-26.318,17.283-42.26,19.944c-7.631,1.272-15.527,2.26-23.27,2.052
				c-5.093-0.136-11.26-0.599-15.567-3.734c-0.846,2.266-1.868,4.52-2.991,6.734C149.842,340.654,154.757,343.481,159.918,345.877z"
				/>
			<path fill="#FFFFFF" stroke="#FFFFFF" stroke-width="1.5489" stroke-miterlimit="10" d="M134.136,354.406
				c1.414,6.458,6.457,12.268,11.223,16.373c2.36,2.034,5.046,4.059,7.916,5.78c0.749-0.802,1.514-1.574,2.33-2.285
				c3.093-2.702,6.193-5.543,9.416-8.206c-3.075-1.149-6.011-2.571-8.659-4.075c-6.338-3.597-13.204-8.75-16.499-15.562
				c-0.853,1.267-1.718,2.513-2.598,3.701C136.214,351.544,135.171,352.976,134.136,354.406z"/>
			<path fill="#FFFFFF" stroke="#FFFFFF" stroke-width="1.5489" stroke-miterlimit="10" d="M114.188,377.333
				c2.719,8.757,7.338,17.278,14.052,22.752c1.429-0.998,2.876-2.028,4.364-3.091c4.005-2.861,8.12-6.201,11.599-9.802
				c-3.845-2.503-7.317-5.653-10.204-8.929c-3.29-3.726-6.344-8.146-8.089-12.945c-3.048,3.781-6.288,7.372-9.922,10.521
				C115.413,376.335,114.808,376.834,114.188,377.333z"/>
			<path fill="#FFFFFF" stroke="#FFFFFF" stroke-width="1.5489" stroke-miterlimit="10" d="M80.155,405.677
				c5.362,3.541,11.379,5.842,17.956,5.833c0.1,0,0.195-0.005,0.292-0.005c-2.163-8.686-2.077-18.05-0.481-26.961
				c-1.946,0.011-3.898-0.355-5.8-1.238c-0.651-0.303-1.256-0.676-1.838-1.077C85.087,389.337,81.159,397.341,80.155,405.677z"/>
			<path fill="#FFFFFF" stroke="#FFFFFF" stroke-width="1.5489" stroke-miterlimit="10" d="M59.122,353.04
				c4.519-4.351,9.973-6.851,15.821-7.986c-1.61-4.574-3.779-8.71-6.938-9.942c-8.199-3.198-12.028,9.271-14.366,14.653
				c-1.567,3.611-3.74,7.753-4.352,11.668c-0.341,2.172,0.247,4.232,1.188,6.207C52.242,362.164,54.967,357.049,59.122,353.04z"/>
			<path fill="#FFFFFF" stroke="#FFFFFF" stroke-width="1.5489" stroke-miterlimit="10" d="M82.928,371.698
				c-1.57-3.926-2.665-8.12-3.691-11.723c-10.004,0.757-19.543,7.966-22.927,17.344c2.431,4.071,4.812,8.092,7.653,12.07
				c0.436,0.612,0.89,1.222,1.352,1.832C68.075,381.454,73.743,372.61,82.928,371.698z"/>
			<path fill="#FFFFFF" stroke="#FFFFFF" stroke-width="1.5489" stroke-miterlimit="10" d="M257.901,314.379
				c-4.819,0.226-9.646,0.094-14.449-0.314c0.662,1.647,0.77,3.662,0.784,5.216c0.042,5.019-0.877,10.064-2.157,14.906
				c-0.572,2.162-1.233,4.325-1.975,6.452c8.745-0.427,17.486-1.144,26.213-0.841c0.206,0.006,0.403,0.006,0.61,0.012
				C267.859,331.616,262.597,321.021,257.901,314.379z"/>
			<path fill="#FFFFFF" stroke="#FFFFFF" stroke-width="1.5489" stroke-miterlimit="10" d="M324.364,249.427
				c3.563,1.99,6.249,5.135,8.524,8.508c0.334-0.256,0.697-0.497,1.099-0.713c-0.761-4.699-1.854-9.497-3.766-13.873
				c-0.656-1.49-1.487-3.311-2.682-4.66c-3.686,1.322-7.123,3.513-10.09,6.337c-0.957,0.912-1.94,2.253-2.803,3.829
				C317.792,247.734,321.161,247.645,324.364,249.427z"/>
			<path fill="#FFFFFF" stroke="#FFFFFF" stroke-width="1.5489" stroke-miterlimit="10" d="M312.084,259.134
				c0.179,1.932,0.856,3.677,2.254,4.959c2.016,1.84,10.979,1.978,14.143,1.391c0.415-0.949,0.775-1.9,1.163-2.808
				C324.786,258.769,318.124,257.572,312.084,259.134z"/>
			<path fill="#FFFFFF" stroke="#FFFFFF" stroke-width="1.5489" stroke-miterlimit="10" d="M349.346,253.511
				c1.33-1.219,2.821-2.769,3.978-4.473c-3.003-5.052-7.048-9.065-12.332-10.789c1.696,7.198,2.573,15.941-3.259,20.373
				c0.568,0.526,1.086,1.082,1.531,1.673C342.999,258.784,346.566,256.069,349.346,253.511z"/>
			<path fill="#FFFFFF" stroke="#FFFFFF" stroke-width="1.5489" stroke-miterlimit="10" d="M358.492,261.659
				c-5.038,3.283-10.636,4.872-16.62,5.677c0.216,2.46-0.097,5.053-0.812,7.595c6.118,2.19,13.124,1.794,19.8,0.621
				C360.575,271.441,359.832,266.548,358.492,261.659z"/>
			<path fill="#FFFFFF" stroke="#FFFFFF" stroke-width="1.5489" stroke-miterlimit="10" d="M337.658,282.476
				c-0.47,0.74-0.96,1.459-1.484,2.134c-1.797,2.312-3.73,4.294-5.78,6.05c7.98,1.709,18.326,6.934,23.104,13.29
				c3.066-4.681,5.296-9.836,6.489-15.467C352.617,286.11,345.409,283.073,337.658,282.476z"/>
			<path fill="#FFFFFF" stroke="#FFFFFF" stroke-width="1.5489" stroke-miterlimit="10" d="M333.856,308.254
				c-4.209-4.31-10.646-8.886-17.094-9.257c-3.047,1.385-6.21,2.643-9.466,3.923c-0.857,0.338-1.727,0.656-2.595,0.979
				c8.065,1.892,16.069,6.219,21.197,12.604c1.949,2.426,3.551,5.278,4.228,8.33c0.417-0.235,0.837-0.457,1.255-0.705
				c2.933-1.73,5.72-3.623,8.348-5.649C338.966,314.727,336.551,311.014,333.856,308.254z"/>
			<path fill="#FFFFFF" stroke="#FFFFFF" stroke-width="1.5489" stroke-miterlimit="10" d="M289.951,308.644
				c-4.091,1.131-8.228,2.154-12.422,3.005c9.095,5.986,16.013,15.913,15.361,26.537c7.322-1.217,14.448-3.146,21.431-5.821
				C311.572,322.194,299.506,313.406,289.951,308.644z"/>
			<path fill="#FFFFFF" stroke="#FFFFFF" stroke-width="1.5489" stroke-miterlimit="10" d="M167.917,273.342
				c7.416,4.749,17.257,6.464,25.28,8.9c5.313,1.611,11.168,3.323,17.039,4.069c0.591-2.695,1.472-5.411,2.398-8.358
				c0.354-1.139,0.71-2.279,1.069-3.416c-7.017-0.582-13.997-1.739-20.731-3.647c-6.656-1.889-13.493-4.528-19.086-8.733
				c-1.894,3.214-3.707,6.48-5.342,9.806C168.318,272.421,168.131,272.882,167.917,273.342z"/>
		</g>
		<path d="M211.206,257.208c0,0-2.725-2.126-4.65-3.295c-4.733-2.865-9.204-6.215-14.177-8.718c-1.87,1.229-2.885,5.468-3.652,7.591
			c-0.771,2.131-2.978,6.059-2.981,8.159c0.003,3.43,11.808,9.147,15.605,9.569C203.4,267.282,211.206,257.208,211.206,257.208z"/>
		<g>
			<path fill="#245977" d="M312.379,298.152c0.782-6.163,1.482-12.338,1.932-18.536c0.199-2.765,0.489-5.537,0.124-8.268
				c-0.323-2.36-0.618-5.044,0.24-7.315c0.985-2.587,2.687-3.284,5.053-4.325c2.451-1.078,4.879-1.584,6.864,0.724
				c1.19,1.379,1.176,2.788,0.898,4.644c-0.669,4.484-2.487,8.907-4.026,13.184c-2.071,5.754-4.531,11.721-5.944,17.718
				c5.61-4.192,11.014-8.076,17.166-11.137c6.79,4.205-3.062,17.447-7.914,19.45c-3.326,1.375-7.293,2.105-10.842,3.367
				C309.359,310.008,311.76,302.999,312.379,298.152z"/>
			<path fill="#FF0000" d="M318.558,294.001c0.22-0.192,0.381-1.727,0.454-2.054c0.305-1.362,0.76-2.64,1.214-3.961
				c0.623-1.853,1.174-3.716,1.822-5.552c0.293-0.85,0.57-1.688,1.079-2.364c0.266-0.367,0.575-0.571,0.919-0.888
				c0.319-0.294,0.509-0.675,0.837-0.94c-0.6-1.603-2.66-1.502-4.02-1.617c-2.062-0.186-3.919,0.066-5.884,0.552
				c-0.978,0.238-2.224,0.383-2.381,1.56c-0.062,0.481,0.093,0.986,0.103,1.46c0.007,0.393-0.085,0.823-0.125,1.227
				c0.647,0.256,0.941,0.434,0.756,1.171c-0.073,0.265-0.268,0.625-0.22,0.915c0.055,0.349,0.358,0.447,0.493,0.758
				c0.222,0.5-0.295,1.305-0.289,1.861c0.016,0.891-0.049,1.037-0.646,1.667c0.577,0.782,0.372,1.662,0.079,2.485
				c-0.308,0.904-0.308,1.854-0.365,2.783c-0.065,1.061,0.159,2.098,0.095,3.164c-0.053,0.779,0.058,1.752-0.119,2.48
				c0.923-0.649,1.727-1.462,2.586-2.206c0.837-0.728,2.016-0.783,2.927-1.346c0.116,0.065,0.161,0.167,0.18,0.289"/>
			<g>
				<path fill="#FFFFFF" d="M313.424,282.121c0.803-0.18,1.598-0.292,2.272-0.348c2.091-0.177,4.439-0.088,6.307,0.981
					c0.036-0.104,0.069-0.21,0.105-0.316c0.3-0.853,0.57-1.687,1.079-2.367c0.067-0.091,0.142-0.149,0.209-0.223
					c-2.637-0.298-5.104,0.714-7.672,1.146c-0.626,0.102-1.786,0.239-2.92,0.502C313.167,281.657,313.381,281.811,313.424,282.121z"
					/>
				<path fill="#FFFFFF" d="M313.366,286.689c1.041-0.028,2.1-0.047,3.127,0.141c1.276,0.227,2.748,0.569,3.7,1.432
					c0.029-0.094,0.06-0.187,0.093-0.272c0.115-0.35,0.226-0.697,0.339-1.041c-1.46-0.887-3.153-1.145-4.873-1.098
					c-0.469,0.014-1.43,0-2.346,0.111c-0.005,0.059-0.028,0.12-0.028,0.175C313.382,286.362,313.382,286.539,313.366,286.689z"/>
				<path fill="#FFFFFF" d="M318.966,292.599c0.043-0.283,0.081-0.537,0.109-0.648c0.07-0.337,0.192-0.649,0.284-0.979
					c-1.271-0.344-2.611-0.483-3.876-0.158c-1.18,0.306-2.088,0.893-2.992,1.56c-0.017,0.234-0.033,0.462-0.046,0.694
					c-0.033,0.613,0.013,1.202,0.054,1.794C314.153,293.435,316.649,292.73,318.966,292.599z"/>
			</g>
			<path d="M320.496,293.437c-0.532-0.182-0.259-1.438-0.621-1.833c-0.386-0.411-1.161-0.177-1.639-0.144
				c-0.686,0.033-1.377-0.017-2.047,0.191c-0.853,0.26-1.456,0.749-2.144,1.234c-2.55,1.795-2.068,5.178-2.595,7.966
				c-0.117,0.599-0.243,1.192-0.328,1.816c-0.084,0.666-0.367,1.265-0.465,1.922c-0.225,1.404,0.333,3.19,1.835,3.579
				c0.9,0.226,1.72-0.008,2.615-0.219c0.773-0.179,1.568-0.293,2.334-0.49c2.17-0.561,4.421-1.231,6.489-2.104
				c1.157-0.479,2.238-1.027,3.337-1.564c1.042-0.528,2.181-1.017,3.059-1.796c0.748-0.671,1.432-1.265,1.988-2.134
				c0.784-1.226,1.602-2.466,2.549-3.575c1.35-1.573,4.078-3.846,3.826-6.204c-0.208-1.982-0.79-3.916-2.111-5.416
				c-1.096-1.26-2.862-0.135-3.947,0.542c-1.458,0.915-2.802,1.843-4.145,2.907c-2.54,2.028-4.815,4.408-7.528,6.043"/>
		</g>
		<path d="M217.318,198.334c2.227,0.584,2.336-2.563,1.831-3.867c-0.28-0.72-0.987-1.753-1.752-2.048
			c-1.537-0.605-1.218,0.566-2.259,1.018c-1.258,0.548-3.98-0.049-5.442-0.171c-1.849-0.146-3.59-0.298-5.424-0.612
			c-6.889-1.197-14.407-2.199-20.138,1.971c-11.755,8.556-21.229,25.625-15.456,40.353c1.062,2.706,2.93,5.557,4.626,7.919
			c1.71,2.375,2.534,5.894,5.144,7.469c1.614-1.959,3.807-3.964,5.227-6.128c1.192-1.815,0.984-1.809-0.577-3.384
			c-1.917-1.935-3.264-4.604-4.278-7.176c-0.742-1.871-1.366-3.844-1.639-5.836c-0.666-4.909-0.085-11.266,2.083-15.713
			c2.497-5.126,6.725-8.818,11.352-11.435c5.377-3.033,13.596-4.415,19.728-3.918c1.394,0.122,2.887,0.153,4.145,0.524
			c1.534,0.451,2.234,2.053,3.717,1.281"/>
		<g>
			<path fill="#245977" d="M57.964,352.439c10.201-4.522-4.626-20.622-8.652-24.655c-3.378-3.386-6.506-7.188-9.499-10.864
				c-2.432-2.974-4.118-8.704-9.051-7.423c-4.891,1.268-6.465,6.972-9.097,10.639c-0.759,1.061-1.766,1.897-2.692,2.803
				c-0.676,0.658-1.637,1.443-2.028,2.321c-0.718,1.596-0.195,3.677,0.207,5.304c0.338,1.367,0.85,2.586,1.663,3.725
				c0.441,0.618,1.034,1.781,1.886,1.887c1.459,0.177,1.867-3.128,2.011-4.154c0.15-1.07,0.462-2.486,1.181-3.325
				c0.54-0.63,1.554-0.929,2.224-1.457c1.719-1.354,3.554-2.815,5.883-2.595c4.435,0.422,9.669,7.041,12.225,10.155
				c1.818,2.228,3.025,4.896,4.453,7.411c1.155,2.035,2.541,3.934,4.252,5.485c0.402,0.364,0.92,0.667,1.273,1.075
				c0.373,0.432,0.661,0.959,1.032,1.405C55.997,351.091,56.881,351.919,57.964,352.439z"/>
			<path d="M28.829,325.864c-0.419-0.02-1.414,0.828-1.698,1.112c-0.487,0.487-0.843,1.101-1.154,1.71
				c-0.408,0.781-0.863,1.816-1.036,2.681c-0.228,1.144,0.436,2.439,0.59,3.566c0.168,1.206-0.082,2.319-0.931,3.16
				c-0.64,0.637-1.405,1.246-2.333,1.351c-1.027,0.106-1.761-0.524-2.463-1.209c-1.412-1.367-2.395-3.201-3.162-5.001
				c-0.847-1.999-2.043-4.181-1.604-6.381c0.188-0.939,0.763-1.701,1.372-2.405c0.58-0.674,1.477-0.988,2.071-1.675
				c0.845-0.978,1.625-2.028,2.519-2.968c0.255-0.267,0.525-0.521,0.746-0.835c-0.216-0.268-0.548-0.595-0.423-1.013
				c0.187-0.615,0.828-1.326,1.208-1.848c0.876-1.182,1.87-2.295,2.817-3.423c0.947-1.122,1.782-2.356,2.86-3.367
				c0.381-0.362,0.771-0.715,1.124-1.103c0.147-0.156,0.274-0.441,0.399-0.557c0.347-0.303,0.777-0.199,1.13-0.09
				c0.849,0.271,1.724,0.608,2.503,1.041c1.642,0.909,3.23,2.147,4.389,3.641c0.751,0.973,1.42,2.018,2.158,3.01
				c0.258,0.353,0.559,0.676,0.843,1.005c0.197,0.235,0.578,0.457,0.705,0.74c-0.249-0.055-0.482,0.146-0.672,0.325
				c-0.419,0.391-0.764,0.854-1.188,1.26c-1.036,0.979-1.995,2.152-2.913,3.256c-0.948,1.152-1.762,2.306-2.542,3.561
				c-0.219,0.352-0.447,0.721-0.651,1.084c-0.141,0.266-0.347,0.723-0.589,0.904c-0.419-0.159-0.803-0.364-1.187-0.642
				c-0.42-0.297-0.656-0.762-1.086-1.057c-0.363-0.257-0.656-0.29-1.137-0.183c-0.347,0.081-0.875,0.126-1.091,0.487"/>
			<path fill="#FF0000" d="M33.649,326.128c0.138-0.143,1.267,0.641,1.5,0.754c0.528,0.263,1.132,0.466,1.606,0.804
				c0.612,0.436,1.344,0.928,1.807,1.533c0.474,0.622,0.999,1.149,1.623,1.676c0.633,0.539,1.143,1.166,1.669,1.793
				c0.229,0.282,0.423,0.636,0.664,0.88c0.198,0.196,0.17,0.131,0.146,0.374c-0.021,0.227-0.056,0.458-0.009,0.669
				c0.04,0.184,0.106,0.356,0.28,0.44c0.168,0.089,0.34-0.003,0.371,0.233c0.035,0.32-0.56,0.753-0.121,0.986
				c0.196,0.104,0.382-0.192,0.507-0.083c0.096,0.089-0.047,0.507-0.084,0.628c-0.124,0.43-0.239,0.756,0.331,0.707
				c0.343-0.033,0.578-0.271,0.845-0.481c0.124-0.094,0.332-0.245,0.39-0.399c0.08-0.216,0.024-0.432,0.128-0.662
				c0.179-0.409,0.603-0.695,0.767-1.098c0.238-0.577,0.31-1.211,0.551-1.803c0.162-0.4,0.362-0.947,0.711-1.238
				c0.337-0.289,0.827-0.352,1.183-0.641c0.351-0.288,0.795-0.855,1.247-0.968c0.21-0.052,0.414,0.033,0.609,0.068
				c0.234,0.039,0.475,0.011,0.722,0.007c0.311-0.004,0.812,0.166,1.112-0.08c0.207-0.176-0.018-0.559-0.097-0.816
				c-0.153-0.521-0.75,0.036-0.872-0.391c-0.036-0.141,0.048-0.437,0.027-0.616c-0.018-0.171-0.032-0.401-0.1-0.554
				c-0.204-0.471-0.64-0.063-0.982-0.275c-0.334-0.213-0.402-0.661-0.534-1.006c-0.253-0.639-0.616-0.012-1.046-0.27
				c-0.265-0.155-0.396-0.576-0.613-0.777c-0.146-0.126-0.278-0.127-0.458-0.18c-0.256-0.069-0.327-0.217-0.458-0.442
				c-0.202-0.362-0.377-0.696-0.644-1.007c-0.644-0.746-0.875-1.78-1.633-2.444c-0.328-0.296-0.68-0.633-0.852-1.04
				c-0.13-0.31-0.321-0.664-0.62-0.84c-0.325-0.185-0.667-0.012-0.956-0.362c-0.217-0.26-0.444-0.546-0.617-0.855
				c-0.347-0.638-0.892-1.008-1.624-0.412c-0.724,0.578-1.476,1.247-2.116,1.923c-0.369,0.387-0.697,0.818-1.064,1.202
				c-0.401,0.418-0.837,0.797-1.265,1.188c-0.409,0.368-0.794,0.688-1.078,1.161c-0.202,0.336-0.397,0.701-0.609,1.053
				c-0.164,0.271-1.02,1.664-0.341,1.727"/>
			<g>
				<path fill="#FFFFFF" d="M43.297,325.294c0.935-0.649,1.896-1.23,2.869-1.778c0.08,0.114,0.149,0.237,0.236,0.341
					c0.059,0.064,0.09,0.146,0.141,0.214c-0.925,0.686-1.828,1.399-2.662,2.21c-1.267,1.219-2.848,2.741-3.898,4.416
					c-0.445-0.393-0.834-0.797-1.199-1.238C39.956,327.772,41.805,326.331,43.297,325.294z"/>
				<path fill="#FFFFFF" d="M39.433,320.063c0.751-0.612,1.512-1.196,2.273-1.782c0.008,0.014,0.015,0.023,0.021,0.032
					c0.171,0.312,0.402,0.592,0.62,0.854c0.283,0.35,0.631,0.175,0.945,0.365c0.149,0.081,0.267,0.209,0.366,0.354
					c-3.238,1.71-6.191,3.938-8.27,7.067c-0.087-0.035-0.181-0.072-0.259-0.113c-0.235-0.112-1.31-0.859-1.488-0.753
					C34.895,323.72,37.543,321.61,39.433,320.063z"/>
				<path fill="#FFFFFF" d="M43.281,335.243c-0.028-0.234-0.201-0.146-0.369-0.231c-0.173-0.083-0.243-0.255-0.281-0.444
					c-0.044-0.206-0.014-0.438,0.007-0.667c0.025-0.243,0.055-0.182-0.14-0.375c-0.07-0.067-0.129-0.159-0.191-0.239
					c1.772-2.176,4.117-4.151,6.05-5.928c0.366-0.336,0.75-0.65,1.121-0.979c0.028,0.02,0.058,0.027,0.084,0.067
					c-0.831,0.979-1.646,1.957-2.4,2.991c-1.505,2.058-3.166,4.297-4.074,6.697C42.889,335.89,43.316,335.53,43.281,335.243z"/>
			</g>
		</g>
		<path fill="#FF0000" d="M230.265,173.218c0.847-1.326-1.017-5.768,0.28-8.06c2.089-3.696,6.289-2.167,9.08-0.285
			c5.273,3.554,10.826,8.682,13.901,14.87c3.423,6.902,5.067,15.891,0.984,22.857c-0.841,1.431-4.735,7.314-7.228,5.321
			c-1.78-1.42,2.524-6.433,2.926-8.298c1.328-6.136-1.548-13.587-4.52-18.685c-3.578-6.141-7.881-8.549-14.383-6.261"/>
		<path d="M226.65,181.33c-0.186,0.095-1.673-0.151-2.104-0.379c-0.46-0.243-0.918-1.049-1.403-1.13
			c-0.128,0.353-0.54,0.486-0.406,0.943c0.119,0.414,0.719,0.568,1.059,0.66c0.945,0.25,2.051,0.553,2.95,0.003"/>
		<path d="M232.845,189.435c-1.026,1.251-0.7,2.783-0.023,4.197c0.693,1.448,2.305,2.035,3.823,1.881
			c-0.713-0.845-1.825-1.336-2.488-2.358c-0.697-1.073-1.608-2.518-1.121-3.816"/>
		<path fill="#245977" d="M195.96,224.087c1.583-1.254,3.104-2.761,5.059-3.479c0.62-0.229,1.336-0.438,1.711-0.928
			c-3.542-1.721-7.611-0.292-11.402-0.235c-2.034,0.03-4.032-0.294-5.964-0.817c-1.044-0.281-2.134-0.376-3.178-0.665
			c-0.959-0.263-1.858-0.943-2.885-0.695c-1.216,0.293-1.236,1.845-1.337,2.953c-0.101,1.075,0,2.209,0,3.29
			c0,2.41,0.228,4.375,0.969,6.594c1.194,3.586,2.439,6.885,5.912,8.75c0.945,0.511,1.2,0.861,1.946,0.045
			c0.754-0.823,1.151-2.645,1.638-3.67c1.151-2.435,2.424-4.818,3.904-7.071C193.304,226.682,194.557,225.198,195.96,224.087z"/>
		<path fill="#245977" d="M160.911,214.191c0.952,0.285,1.896,0.479,2.92,0.647c1.382,0.233,3.491-0.024,3.679,1.509
			c0.179,1.48-0.771,3.112-1.012,4.56c-0.277,1.688-0.537,3.372-0.537,5.164c0,1.771-0.268,3.616,0.552,5.252
			c-2.522-1.271-4.988-2.631-7.522-3.896c-2.925-1.461-6.076-2.918-9.101-4.307c-5.377-2.469-10.616-5.288-15.982-7.794
			c-3.823-1.786-7.687-3.463-11.458-5.313c-2.119-1.043-4.391-1.869-6.261-3.347c-1.785-1.407-3.236-4.651-1.391-6.583
			c0.858-0.897,2.1-1.521,3.195-2.08c2.344-1.196,5.042-2.246,7.632-2.898c2.842-0.716,5.646-1.611,8.441-2.335
			c1.222-0.315,2.57-0.644,3.814-0.823c5.179-0.73,10.527-2.386,15.68-3.665c4.044-1.008,8.144-1.595,12.197-2.562
			c3.958-0.945,7.862-1.553,12.009-1.317c3.354,0.188,6.922,0.486,9.968,1.882c3.043,1.396,5.043,3.617,6.928,6.244
			c1.55,2.162,3.923,6.564,3.635,9.299c-0.108,1.025-0.41,1.39-1.311,1.791c-0.46,0.202-2.415,0.734-2.915,0.299
			c-0.905-0.787,0.439-1.572,0.551-2.273c0.164-1.019-0.692-1.658-1.416-1.225c-1.24,0.739-1.303,4.613-3.21,4.09
			c-0.068-0.811,0.456-4.013-0.068-4.385c-0.991-0.701-2.408,1.65-2.914,2.229c-0.99,1.137-2.869,2.243-2.479-0.343
			c0.247-1.641,1.401-2.773,1.142-4.608c-1.429-0.356-3.171,3.246-3.843,0.745c-0.377-1.412,0.922-3.358-0.43-4.484
			c-0.937-0.78-2.884-0.435-3.983-0.348c-4.327,0.354-8.634,1.628-12.827,2.694c-6.781,1.721-14.068,2.793-21.05,4.849
			c-1.244,0.365-7.991,1.403-7.646,2.958c0.204,0.934,3.254,2.934,4.117,3.389c0.788,0.414,1.699,0.648,2.515,0.963
			c1.961,0.752,3.958,1.205,5.997,1.593c3.626,0.685,7.389,2.426,10.696,3.822C159.8,213.827,160.358,214.024,160.911,214.191z"/>
		<path fill="#245977" d="M185.709,184.983c0.678,0.938,3.307,1.057,4.501,0.978c1.885-0.128,3.867-1.807,5.613-1.71
			c0.823,0.048,1.528,0.688,1.075,1.66c-0.265,0.566-1.707,1.321-2.24,1.646c-0.501,0.304-4.487,2.053-2.949,2.652"/>
		<path d="M172.349,208.991c-1.667-0.016-3.22-0.608-4.873-0.202c-1.353,0.331-3.067,2.128-3.84-0.293
			c-0.51-1.594,3.399-7.818,5.536-6.396c0.958,0.638,0.438,3.101,0.523,4.122c1.172,0.034,2.333-0.044,3.362,0.514
			c0.327,1.248,0.214,2.947-1.482,2.643"/>
		<path d="M169.668,235.626c-0.167,0.126-0.556,0.236-0.784,0.344c-0.346,0.165-0.684,0.353-1.037,0.493
			c-0.335,0.133-0.292,0.141-0.58-0.099c-0.27-0.223-0.551-0.445-0.846-0.634c-0.505-0.323-1.176-0.777-1.34,0.124
			c-0.146,0.815,0.069,1.651,0.441,2.371c0.317,0.613,0.752,1.35,1.407,1.615c0.563,0.228,0.993,0.273,1.103-0.409
			c0.031-0.168-0.03-0.675,0.085-0.8c0.116-0.123,0.521-0.085,0.697-0.109c0.567-0.07,1.169-0.137,1.703-0.285
			c0.253-0.07,0.308-0.01,0.271-0.327c-0.031-0.278-0.271-0.63-0.397-0.903c-0.218-0.479-0.334-0.987-0.612-1.436"/>
		<path d="M176.667,248.992c-0.231,0.327-0.693,0.813-1.124,0.724c-0.523-0.102-1.079-0.544-1.602-0.739
			c-1.416-0.526-0.709,1.715-0.287,2.3c0.436,0.6,1.116,1.203,1.705,1.646c0.373,0.278,1.226,0.651,1.704,0.399
			c0.54-0.283,0.169-1.074,0.284-1.549c0.12-0.493,0.84-0.56,1.008-1.081c0.248-0.774-1.362-1.06-1.462-1.699"/>
		<path d="M195.323,191.952c0.323-0.107,0.676-1.016,0.479-1.768c-0.442,0.057-1.023-0.132-1.464-0.083
			c-1.079-2.016,1.638-4.091,3.581-3.072c1.475,0.773,0.134,1.552-0.082,2.271c-0.32,1.052,0.195,1.958,0.03,3.129
			c-0.573,0.16-1.18,0.086-1.511-0.218"/>
		<path d="M213.395,277.917c2.329,2.201,6.948,3.331,9.923,4.532c4.748,1.919,10.306,3.228,15.49,3.728
			c11.387,1.097,24.048,0.767,35.014-2.465c5.269-1.553,11.035-3.528,15.466-6.701c4.55-3.256,8.019-8.194,11.993-12.029
			c7.23-6.98,13.118-14.221,17.565-23.076c5.739-11.427,9.394-22.811,12.265-35.254c2.148-9.312,5.688-18.574,7.124-28.094
			c1.198-7.926,1.138-16.05,1.138-24.131c0-16.839-0.454-34.424-6.312-50.382c-6.463-17.607-11.48-31.034-29.635-39.346
			c-8.042-3.682-18.6-8.918-27.173-10.157c-10.48-1.514-22.623-0.614-32.861,2.379c-4.767,1.396-9.803,3.207-14.732,4.46
			c-11.393,2.903-19.343,7.243-25.558,17.392c-1.937,3.163-4.111,6.338-4.736,10.132c-1.131,6.874,0.122,14.582,2.378,21.012
			c5.373,15.307,16.392,22.616,32.53,22.61c30.044-0.009,45.833-27.451,43.722-54.576c-1.791-23.019-25.853-38.249-47.598-38.203
			c-15.959,0.032-27.611,6.078-41.149,14.619c-6.183,3.902-11.719,8.472-16.738,13.471c-6.486,6.459-12.685,14.162-18.148,21.488
			c-5.816,7.805-10.961,15.5-18.444,21.83c-5.816,4.915-10.867,11.49-17.791,14.945c-2.749,1.373-5.654,1.728-8.381,3.208
			c-3.331,1.807-6.368,3.949-10.018,5.125c-8.438,2.722-22.321,3.262-30.167-1.46c-5.538-3.333-9.783-8.049-14.672-12.102
			c-3.015-2.499-5.316-3.409-9.334-3.108c-4.427,0.331-4.534,1.822-5.811,5.878c-2.091,6.649-2.247,14.506-1.505,21.854
			c0.756,7.502,3.509,14.803,7.567,21.254c1.101,1.753,2.565,6.175,4.524,7.101c1.956,0.924,5.8-1.486,7.751-2.539
			c6.591-3.561,10.411-10.299,15.808-15.227c5.495-5.017,9.57-7.74,17.098-7.618c6.893,0.112,11.622-2.458,17.101-6.326
			c3.127-2.208,6.676-4.413,10.162-5.832c4.456-1.815,8.817-2.332,12.983-4.981c4.764-3.028,9.23-6.622,13.332-10.494
			c6.812-6.432,10.66-13.825,16.233-21.228c4.403-5.849,8.22-11.666,13.272-16.939C188.631,66.421,206.824,51.964,230.993,53
			c33.818,1.451,35.791,75.268,0.744,67.244c-12.183-2.791-22.952-18.382-19.705-30.657c3.991-15.094,27.693-23.238,41.343-24.107
			c12.992-0.832,27.317,1.217,37.658,9.178c13.842,10.656,23.941,23.094,28.604,40.107c2.802,10.224,2.694,21.361,2.694,32.012
			c0,12.448-1.495,23.795-3.754,36.016c-2.146,11.588-5.817,22.422-9.524,33.658c-1.809,5.482-4.453,10.025-7.23,14.976
			c-2.585,4.61-5.028,10.778-9.02,14.351c-5.718,5.118-13.404,10.008-20.001,14.174c-7.656,4.833-17.524,8.096-26.365,8.789
			c-8.363,0.654-15.654,1.671-23.223-1.549c-4.347-1.849-5.5-1.604-6.733,2.971c-0.525,1.946-2.482,8.311-0.506,9.307"/>
		<path fill="#FFFFFF" d="M42.888,132.767c0.55,0.7,0.633,0.742,0.25,0.125c-0.885-3.33,0.159-11.282,5.42-9.122
			c3.105,1.277,4.808,9.618,5.208,12.332c1.269,8.608,1.997,19.524-0.901,27.48c-0.672,1.842-0.849,4.262-3.31,4.039
			c-1.271-0.113-3.664-2.79-4.396-3.791c-2.82-3.857-3.614-9.215-4.75-13.562c-1.113-4.263-1.385-9.659-0.875-14.186
			c0.607-5.393,4.009-7.726,7.521-11.649"/>
		<path fill="#245977" d="M233.429,232.766c4.578,0,8.281-1.935,12.332-3.843c7.145-3.367,14.952-5.65,22.313-8.615
			c7.16-2.882,14.458-5.576,21.161-9.418c5.955-3.41,12.247-6.36,17.521-10.761c2.572-2.145,5.074-5.527,8.324-6.601
			c0.502,3.326-1.112,7.239-2.178,10.378c-0.916,2.69-2.223,5.451-4.029,7.747c-3.686,4.699-10.644,6.049-15.895,8.654
			c-6.365,3.158-13.187,5.744-19.513,9.178c-6.09,3.306-12.076,6.91-18.328,9.926c-3.323,1.603-6.722,2.849-10.136,4.221
			c-5.11,2.049-10.166,3.909-15.629,4.684c-2.321,0.33-4.413,0.939-3.763-2.096c0.727-3.383,2.759-7.39,4.519-10.433
			c1.093-1.893,2.902-3.425,3.974-5.377"/>
		<path fill="#245977" d="M338.854,191.18c5.098-3.087,9.81-18.507,5.227-24.59c-1.909-2.532-7.182-6.303-10.492-4.687
			c-4.057,1.98-3.465,8.742,1.16,8.971c-2.347-0.074-3.999,1.578-3.518,3.925c1.041,0.058,2.467,0.41,3.518,0.116
			c-2.533-0.119-6.759,1.105-5.242,4.66c1.487,3.494,5.617,0.093,8.455,0.877c0.347,3.685-3.904,9.018-3.036,12.253
			c1.752,6.532,7.751-5.233,8.576-7.722"/>
		<path d="M231.377,284.403c0.231,0.896,0.03,2.258-0.113,3.156c-0.442-0.236-1.919-0.246-2.367-0.481
			c-1.34,4.129,3.839,4.046,6.284,3.048c-0.376-2.521-2.421-2.699-1.211-5.723"/>
		<path d="M249.53,284.403c0.512,1.842-2.496,7.49,0.665,7.158c4.795-0.499,0.064-4.819,1.928-7.158"/>
		<path d="M265.738,283.107c-0.906,3.951,2.184,4.67,5.072,3.129c0.182-0.613,0.174-1.192,0.114-1.833"/>
		<path d="M280.648,281.163c1.729,4.505,5.671,0.218,5.188-3.243"/>
	</g>
	<path fill="#FFFFFF" d="M323.232,215.872c0.017-0.012-0.027,0.115-0.177,0.146c0.044,1.109-0.114,2.32,0.83,3.134
		c1.198,1.035,2.002,0.062,2.259-1.306c0.366-1.946-2.273-3.652-3.563-1.975"/>
	<path fill="#FFFFFF" d="M325.516,201.188c-0.446,0.782-1.016,2.162-0.635,3.104c0.468,1.168,2.381,1.742,3.253,0.786
		c2.606-2.862-2.817-5.934-3.107-4.053"/>
	<path fill="#FFFFFF" d="M327.963,186.343c-0.22,0.845-0.935,1.704-0.536,2.947c0.37,1.151,1.53,2.307,2.859,1.961
		c1.922-0.497,1.949-3.471,0.947-4.756c-0.921-1.18-3.319-1.77-3.597,0.173"/>
	<path fill="#FFFFFF" d="M328.942,177.205c-0.876,1.147,0.623,4.684,2.56,4.212c-2.141-1.09-2.515-2.592-2.396-4.699"/>
	<path fill="#FFFFFF" d="M331.715,153.221c0.136,0.842-0.831,1.886,0.125,2.941c0.603,0.67,1.653,0.916,2.418,0.319
		c2.677-2.102-2.007-5.288-2.543-3.748"/>
	<path fill="#FFFFFF" d="M332.857,137.886c-1.942,0.846-0.358,4.191,1.179,3.277c1.718-1.021-0.243-5.45-1.993-4.418"/>
	<path fill="#FFFFFF" d="M326.659,124.834c-0.163,1.65,2.732,4.719,3.394,2.228c0.333-1.266-0.251-2.541-1.477-3.022
		c-0.655-0.254-1.883-0.467-1.592,0.632"/>
	<path fill="#FFFFFF" d="M322.252,106.887c0.288-0.059-0.12,0.02-0.12,0.02c-0.301,0.865-0.39,2.11-0.063,2.949
		c0.317,0.812,1.533,2.145,2.471,1.61c1.739-0.99,0.05-5.381-1.936-4.882c-0.044,0.097-0.052,0.198-0.023,0.303"/>
	<path fill="#FFFFFF" d="M315.236,99.056c-0.214,1.606,3.634,4.405,3.594,1.432c-0.031-2.289-4.49-3.477-3.594-0.943"/>
	<path fill="#FFFFFF" d="M307.57,90.081c0.807,0.904,1.2,1.938,2.403,2.448c1.246,0.525,2.066,0.32,1.56-1.145
		c-0.385-1.108-1.797-2.075-2.981-1.953c-1.092,0.112-1.907,1.202-0.493,1.793"/>
	<path fill="#FFFFFF" d="M322.415,225.5c-0.418,1.278-1.515,2.248-1.639,3.838c-0.072,0.907,0.265,2.648,1.635,2.02
		c0.93-0.426,1.252-2.321,1.146-3.207c-0.058-0.488-0.755-2.485-1.468-1.672"/>
	<path fill="#FFFFFF" d="M318.336,237.246c-0.415,1.175-1.459,1.971-1.316,3.39c0.129,1.297,1.081,1.401,1.843,0.689
		c1.246-1.17,0.842-5.048-1.179-3.262"/>
	<path fill="#FFFFFF" d="M314.258,247.851c-0.858-0.148-1.903,2.462-1.772,3.402c1.141,0.192,2.448-2.246,2.235-3.215
		c-0.149-0.037-0.308-0.047-0.463-0.023"/>
	<path fill="#FFFFFF" d="M309.198,256.647c-0.018,0.221-0.027-0.314-0.027-0.314c-1.16,0.094-4.101,2.557-4.059,3.904
		c0.052,1.708,1.808-0.132,2.299-0.645c0.914-0.951,1.497-2.299,1.623-3.6"/>
	<path d="M322.177,146.561c-3.759,1.347-4.058-7.54-3.78-10.798c1.57-0.51,2.918-0.219,3.78,0.66"/>
	<path d="M321.397,127.069c-1.177,2.479-3.407-1.987-3.901-3.897c-0.624-2.414-1.485-5.072,1.562-6.239"/>
	<path d="M316.719,108.357c0.066,0.575-0.187,0.869-0.759,0.875c-2.372-1.189-4.522-4.378-2.36-6.335"/>
	<path d="M160.763,94.769c1.273,0.746,2.038,2.917,3.061,3.35c1.797,0.764,4.203-0.99,5.36-0.109
		c3.752,2.854-1.527,9.141-4.404,9.132c0.216-1.024-0.445-2.648-0.238-3.679c-2.817,0.248-7.328-1.677-5.339-4.796"/>
	<path d="M145.194,117.713c1.359,2.377,2.517,3.618,4.699,4.735c1.964,1.006,4.31-2.5,2.942,2.241
		c-1.562,5.413-9.822,7.741-6.96,0.174c-2.762,0.055-3.798-2.32-4.58-4.033"/>
	<path d="M124.144,130.967c-0.067,0.576,0.186,0.868,0.758,0.875c0.859-0.956,2.263-1.085,3.004-1.556
		c-0.078,1.633,0.023,5.242,1.463,6.367c1.934,1.51,4.71-1.96,6.35,0.496c2.923,4.371-7.244,7.615-9.898,6.954
		c-0.112-2.379,0.558-3.237-0.105-5.187c-0.335-0.99-3.332-4.031-3.912-4.832"/>
	<path d="M102.537,144.113c1.538,0.274,2.202,0.867,3.745,0.116c0.732,3.98,2.977,3.777,6.272,3.123
		c1.355,4.248-4.924,7.326-8.338,6.779c0.167-1.34-0.397-3.096-0.255-4.426c-1.741-0.702-3.146-1.858-4.542-3.254"/>
	<path d="M211.464,88.085c-0.097,1.352,9.366,8.197,11.391,9.83c5.015,4.036,10.157,7.91,15.142,11.982
		c6.037,4.932,11.211,12.626,17.05,4.089c-9.539-2.557-17.522-10.455-25.534-15.847c-5.83-3.921-11.628-10.242-17.853-13.057
		c-1.803,1.229-2.395,2.67-0.196,3.781"/>
	<path d="M223.939,74.831c6.17,4.59,15.538,7.854,22.221,13.023c4.533,3.504,8.372,7.8,13.445,10.287
		c4.568-6.01-13.726-13.982-17.755-16.47c-4.349-2.684-15.767-12.583-20.914-11.401c-0.065,1.324-0.855,2.53-0.895,3.781"/>
	<path d="M273.299,98.953c0.749,0.729,1.836,2.279,2.91,2.081c1.148-0.215,2.322-0.57,3.471,0.223
		c3.222,2.223,0.54,7.227-2.08,8.698c-0.938,0.527-2.057,0.075-2.415-0.98c-0.335-0.985-0.061-1.975-0.545-2.987
		c-0.425-0.891-0.957-1.012-1.76-1.495c-1.093-0.655-1.178-2.081-0.734-3.229"/>
	<path d="M260.282,119.635c0.627,0.31,1.289,1.091,1.785,1.572c0.932,0.909,1.687,2.074,2.716,2.876
		c0.935,0.729,1.568-0.049,2.607-0.224c1.485-0.254,2.723,0.332,3.938,1.103c1.4,0.889,1.913,2.009,1.248,3.606
		c-0.944,2.279-4.095,4.283-6.621,3.889c-2.011-0.317-2.529-2.261-2.525-4.002c0.003-1.323-0.372-2.186-1.469-2.968
		c-0.544-0.387-1.184-0.621-1.738-1.001c-1.234-0.841-1.274-2.05-2.148-3.173"/>
	<path d="M116.347,125.898c-0.441-1.148,3.094-2.573,4.678-2.338"/>
	<path d="M134.279,111.865c-0.1-0.238,0.144-1.853,1.063-2.806c1.258-1.305,2.516-0.888,4.005-1.872"/>
	<path d="M149.093,95.103c-0.478-2.301,2.208-4.519,4.678-5.849"/>
</g>
</svg>
