<?xml version="1.0" encoding="utf-8"?>
<!-- Generator: Adobe Illustrator 16.0.4, SVG Export Plug-In . SVG Version: 6.00 Build 0)  -->
<!DOCTYPE svg PUBLIC "-//W3C//DTD SVG 1.1//EN" "http://www.w3.org/Graphics/SVG/1.1/DTD/svg11.dtd">
<svg version="1.1" id="Ebene_1" xmlns="http://www.w3.org/2000/svg" xmlns:xlink="http://www.w3.org/1999/xlink" x="0px" y="0px"
	 width="357.777px" height="425.2px" viewBox="0 0 357.777 425.2" enable-background="new 0 0 357.777 425.2" xml:space="preserve">
<g>
	<g>
		<path fill="#FF0000" d="M120.011,217.722c-0.123,2.422-9.724,1.843-11.237,1.837c-4.543-0.015-11.165-2.087-14.786,1.521
			c-2.136,2.126-2.062,6.881-2.608,9.771c-1.916,10.146-4.535,20.566-7.647,30.434c-5.795,18.383-11.142,37.561-22.387,53.21
			c3.697,0.454,6.524,1.519,10.432,1.456c4.239-0.067,8.455-0.853,12.777-0.455c7.18,0.666,13.71,1.52,20.958,0.91
			c3.411-0.286,6.812-0.75,10.364-1.011c12.823-0.954,25.639-1.063,38.447-0.056c11.188,0.882,21.771-3.461,32.758-3.007
			c-7.984-11.083-12.943-28.271-15.186-42.026c-1.928-11.828-5.903-23.21-7.888-35.023c-0.705-4.194,0.108-9.854-4.503-11.636
			c-3.945-1.526-10.362,1.363-14.745,0.796c-3.196-0.414-4.491,1-7.68,0.998c-5.381,0-11.016-0.066-16.279-0.984
			c-1.78-0.31-3.266-0.697-2.974-2.777c0.096-0.678,0.341-1.474,0.752-2.027c0.427-0.57,1.115-0.629,1.432-1.139"/>
		<path d="M117.679,207.991c2.431,2.892,0.945,12.479,0.116,16.264c3.532-0.053,7.529,1.358,11.041,1.938
			c3.331,0.55,7.508,0.721,10.555,1.729c0.96-3.19,2.207-7.311,1.841-10.661c-3.518-1.535-7.32-1.728-10.749-2.893
			c-2.098-0.711-4.381-1.193-6.426-2.023c-1.843-0.749-4.852-3.18-4.556-1.621"/>
		<path d="M165.105,188.26c1.608-1.813,4.633-8.231,6.532-11.449c2.472-4.186,6.629-8.478,7.878-13.135
			c-0.264-0.028-0.523-0.056-0.784-0.088c-2.413-5.904-5.854-17.285-12.063-19.995c0.196,4.104-4.148,3.873-7.349,3.995
			c1.699-6.445-0.945-11.654-3.896-17.515c-0.732-1.451-1.688-4.502-3.135-5.333c-1.451-0.837-5.064,0.069-6.681,0.257
			c-3.55,0.412-7.523,1.296-10.625,3.219c-2.33,1.443-1.912,2.032-4.192,0.873c-5.979-3.041-12.142-7.762-18.796-9.164
			c-0.987,3.472-1.58,6.716-3.403,10.046c-1.554,2.839-4.596,4.754-4.207,8.195c-4.828,1.038-9.963,0.542-14.508,2.854
			c-4.226,2.153-4.273,3.5,0.581,4.06c2.696,0.311,10.854-0.09,12.094,2.913c1.031,2.493-7.373,5.129-9.398,6.7
			c-5.08,3.94-13.862,13.528-10.991,20.171c1.371,3.177,4.228,14.429,7.849,15.503c-0.007-1.708-2.249-8.836,0.815-8.665
			c1.784,4.154,2.889,9.037,4.777,13.454c1.143,2.673,2.677,5.259,3.736,7.943c0.981,2.485,0.789,2.304-0.211,4.259
			c-1.34,2.615-2.72,6.005,1.566,6.943c1.618,0.357,3.447-0.615,5.085-0.52c1.069,0.062,3.604,0.488,4.481,1.065
			c0.841,0.552,1.041,2.408,2.339,2.298c1.071-0.096,1.489-2.185,2.42-2.666c1.219-0.632,2.779-0.018,3.935-0.846
			c0.852,0.863,2.238,1.04,3.038,1.401"/>
		<path fill="#245977" d="M162.935,195.309c-0.041-0.843-0.161-1.688-0.383-2.532c-0.079-0.303-0.062-0.57,0.021-0.802
			c-0.777-0.69-1.648-1.29-2.533-1.929c0.544-2.154,2.361-3.766,2.767-6.133c0.42-2.436,0.396-4.555,0.088-7.114
			c-0.55-4.558-2.863-9.501-5.764-13.256c-6.92-8.962-18.764-11.604-29.45-7.228c-2.558,1.039-4.146,2.973-6.177,4.738
			c-1.932,1.688-3.847,3.062-5.047,5.396c-2.321,4.511-2.618,9.633-4.111,14.283c-0.799,2.501-1.15,4.675-1.039,7.259
			c0.038,0.912-0.229,1.689-0.618,2.432c0.195,0.214,0.324,0.502,0.329,0.875c0.057,4.543-0.461,9.372,1.957,13.473
			c1.977,3.35,4.613,5.949,7.479,8.481c1.975,0.54,4.012,0.95,5.945,1.519c3.91,1.135,7.812,1.615,12.016,1.09
			c2.009-0.256,4.071-0.679,6.044-0.422c2.196,0.277,3.583,0.803,5.836,0.525c4.213-0.516,6.066-1.354,8.073-4.982l0.495-1.409
			c-0.549-0.337-0.858-1.012-0.418-1.771C160.701,203.907,161.841,199.624,162.935,195.309z"/>
		<path d="M125.505,180.188c-0.037-1.301,0.981-1.591,1.654-2.439c0.507-0.639,0.771-1.366,1.117-2.073
			c0.491-0.028,1.022-0.053,1.519-0.072c0.058-0.65,0.011-1.33,0.069-1.979c0.229,0.043,0.612-0.117,0.841-0.072
			c0.062-0.579,0-1.181,0.068-1.766c0.592,0.084,1.313,0.443,1.826-0.014c-0.3-0.439-0.37-1.009-0.282-1.571
			c0.922-0.1,1.828,0.3,2.721,0.153c-0.318-0.343-0.473-0.811-0.394-1.296c0.978,0.235,1.948,0.53,2.891,0.625
			c-0.05-0.394,0.115-0.901,0.066-1.296c2.08-0.157,5.007,3.542,5.4,5.398c-0.597-0.105-1.147-0.534-1.771-0.659
			c-0.983-0.194-2.182,0.005-3.198,0.005c-1.912,0-2.972,0.004-4.512,1.196c-1.509,1.168-2.79,2.646-4.224,3.902
			c-1.174,1.027-3.161,2.718-4.763,2.89c-0.438,0.047-1.058,0.055-0.664-0.533"/>
		<path fill="#FFFFFF" d="M130.443,184.431c-0.018,0.062,0.429,0.59-0.034,0.028c1.292-2.717,2.104-4.904,5.879-4.753
			c2.472,0.097,4.163,2.049,5.496,3.982c-1.563,0.019-1.367,1.84-2.021,2.781c-0.796,1.121-2.575,2.189-4.043,1.972
			c-1.427-0.22-5.739-3.361-5.044-4.659"/>
		<path fill="#FFFFFF" d="M154.778,183.951c0.203,0.245,0.325,0.249,0.343,0.009c-0.02-1.451,0.678-3.725,2.364-4.046
			c1.842-0.346,2.614,1.563,2.958,3.042c1.257,5.299-5.304,3.459-4.753,0.574"/>
		<path d="M139.346,181.985c-0.709-1.563-5.025,2.4-1.403,3.822c1.535,0.598,2.648-0.695,2.915-1.833
			c0.44-1.946-0.845-2.001-1.585-2.59"/>
		<path d="M160.889,181.732c-0.193-2.073-5.574-0.308-3.205,2.86c2.593,3.47,5.428-2.35,2.074-4.263"/>
		<path fill="#FF0000" d="M147.278,183.998c-3.113,0.252-3.954,2.53-3.212,5.396c0.959,3.771,6.088,4.166,9.154,2.604
			c3.66-1.858,2.721-5.937-0.766-7.562c-2.458-1.138-8.569-1.164-7.345,2.909"/>
		<path fill="#245977" d="M157.012,194.485c-0.013-0.109-0.023-0.201-0.036-0.304"/>
		<path d="M117.85,172.176c-0.259,0.031-0.521,0.062-0.781,0.094"/>
		<g>
			<path fill="#FFFFFF" d="M159.579,209.144c0.328-0.953,0.613-1.946,0.835-2.999c1.013-4.803,3.103-9.948,1.986-14.888
				c-0.077-0.342-0.03-0.642,0.089-0.896c-0.446-0.042-0.931,0.009-1.279,0.028c-0.654,0.036-0.901-0.002-1.506-0.363
				c-1.039-0.62-1.866-1.477-2.872-2.131c-1.478-0.959-2.774-3.063-4.689-3.344c-1.806-0.268-3.623,0.187-5.21,0.769
				c-0.654,0.239-1.379,0.511-2.01,0.841c-0.334,0.171-0.635,0.391-0.989,0.568c-0.618,0.314-1.348,0.281-1.986,0.53
				c-0.671,0.264-1.281,0.745-1.866,1.14c-1.271,0.861-2.497,1.802-3.859,2.549c-3.944,2.157-7.449,2.494-12.021,2.838
				c-0.381,1.244,0.117,2.589,0.26,3.831c0.134,1.191,0.12,2.386,0.244,3.575c0.091,0.85,0.108,1.687,0.103,2.555
				c-0.006,1.698-0.295,3.186-0.6,4.798c-0.112,0.583-0.305,1.347-0.128,1.913c0.174,0.571,0.846,1.256,1.244,1.729
				c0.52,0.607,1.129,1.191,1.706,1.761c1.476,1.47,3.89,2.646,5.774,3.645c2.226,1.173,4.583,2.153,7.081,2.745
				c1.909,0.452,3.898,0.574,5.886,0.486C151.631,218.424,156.157,214.202,159.579,209.144z"/>
			<path fill="#245977" d="M159.574,209.151c0.329-0.956,0.618-1.949,0.84-3.007c0.784-3.71,2.203-7.627,2.298-11.497
				c-0.27-0.106-0.533-0.227-0.781-0.379c-1.155-0.714-2.183-1.646-3.31-2.419c-0.078-0.053-0.153-0.104-0.231-0.155
				c-1.682-1.108-3.139-2.549-4.845-3.624c-0.754-0.476-1.521-0.951-2.322-1.322c-1.095-0.515-1.727-0.366-2.796,0.005
				c-0.75,0.258-1.426,0.499-2.172,0.785c-3.219,1.225-5.455,3.569-8.371,5.247c-3.506,2.017-8.018,2.553-11.933,3.566
				c-0.238,2.491-0.075,5.098-0.085,7.611c-0.009,2.478-0.773,4.509,0.756,6.629c2.426,3.369,7.126,5.271,11.082,6.226
				c5.504,1.325,10.104,0.682,15.399-0.425C155.601,214.318,157.743,211.854,159.574,209.151z"/>
			<path opacity="0.3" fill="#FFFFFF" d="M159.574,209.151c0.329-0.956,0.618-1.949,0.84-3.007
				c0.784-3.718,2.209-7.645,2.298-11.522c-0.727-0.406-1.537-0.957-2.329-1.17c-0.643-0.174-1.017-0.122-1.584-0.545
				c-0.242-0.182-0.469-0.377-0.685-0.58c-0.648-0.611-1.206-1.301-1.849-1.915c-1.171-1.112-2.093-2.412-3.434-3.365
				c-0.958-0.684-2.109-1.519-3.429-1.202c-1.075,0.26-1.836,1.067-2.75,1.587c-0.924,0.526-1.93,0.796-2.881,1.253
				c-2.202,1.045-3.793,2.897-5.889,4.101c-3.506,2.017-8.018,2.553-11.933,3.566c-0.238,2.491-0.075,5.098-0.085,7.611
				c-0.009,2.478-0.773,4.509,0.756,6.629c2.426,3.369,7.126,5.271,11.082,6.226c5.504,1.325,10.104,0.682,15.399-0.425
				C155.601,214.318,157.743,211.854,159.574,209.151z"/>
			<path opacity="0.3" fill="#FFFFFF" d="M126.622,210.592c-1.529-2.12-0.765-4.151-0.756-6.629c0.01-2.514-0.153-5.12,0.085-7.611
				c3.915-1.014,8.427-1.55,11.933-3.566c1.541-0.889,2.719-2.231,4.304-3.03c1.48-0.746,3.09-1.172,4.589-1.867
				c1.341-0.624,3.465-2.082,5.005-1.871c1.252,0.172,0.648,1.043-0.061,1.432c-0.727,0.401-1.544,0.735-2.29,1.097
				c-0.689,0.334-1.552,0.601-2.136,1.089c-0.436,0.367-0.924,1.073-0.695,1.637c0.237,0.596,1.175,0.626,1.77,0.836
				c1.299,0.46,2.896,0.793,4.044,1.533c-0.33,0.788-2.879,0.402-3.728,0.645c-1.502,0.432-1.496,1.101-1.62,2.514
				c1.017,0.182,0.736,1.028,1.298,1.586c0.585,0.584,1.794,0.444,1.433,1.605c-1.886,0.334-2.928,1.046-4.49,1.908
				c-1.018,0.564-1.448,0.386-1.608,1.75c-0.099,0.859-0.113,2.064,0.177,2.821c0.414,1.065,3.689,2.656,3.166,3.631
				c-0.175,0.318-1.69,0.786-2.133,1.271c-0.597,0.657-0.957,1.587-0.731,2.461c1.825,0.683,7.988,0.71,7.19,3.63
				C142.928,218.099,131.81,217.809,126.622,210.592z"/>
			<path opacity="0.5" fill="#FFFFFF" d="M159.104,197.532c0.972,0.185,1.958,0.133,2.934,0.359
				c0.105,0.024,0.211,0.051,0.315,0.074c0.009-0.034,0.015-0.072,0.023-0.107c-1.749-0.516-3.481-1.066-5.311-1.369
				c-2.76-0.456-5.473-1.188-8.273-1.381c-2.637-0.178-5.217-0.001-7.823,0.316c-2.018,0.246-4.019,0.641-6.027,0.955
				c-1.704,0.268-3.462,0.526-5.136,0.926c-0.893,0.218-1.732,0.508-2.569,0.763c0.45-0.072,0.921-0.147,1.353-0.241
				c1.083-0.232,2.162-0.347,3.248-0.592c0.956-0.219,1.979-0.452,2.943-0.578c1.115-0.145,2.264-0.137,3.397-0.057
				c1.413,0.104,2.793,0.141,4.187,0.352c1.289,0.188,2.58,0.363,3.89,0.518c3.107,0.37,6.165-0.285,9.288-0.285
				C156.795,197.185,157.899,197.313,159.104,197.532z"/>
			<path opacity="0.5" fill="#FFFFFF" d="M154.428,203.792c0.543,0.096,1.087-0.028,1.636,0.006
				c0.467,0.036,0.928,0.142,1.413,0.165c0.938,0.042,1.856-0.042,2.749-0.103c0.244-0.02,0.492-0.02,0.737-0.029
				c0.116-0.457,0.235-0.914,0.354-1.375c-0.338,0.016-0.678,0.035-1.022,0.061c-1.316,0.09-2.6,0.183-3.898,0.344
				c-1.358,0.168-2.686,0.519-4.023,0.707c-1.466,0.207-2.936,0.457-4.356,0.725c-0.538,0.102-1.092,0.195-1.645,0.23
				c0.933-0.038,1.788-0.224,2.75-0.274c1.144-0.059,2.231-0.413,3.372-0.506C153.173,203.686,153.785,203.681,154.428,203.792z"/>
			<path opacity="0.5" fill="#FFFFFF" d="M141.456,203.481c-1.139-0.195-2.254-0.344-3.382-0.507
				c-1.041-0.161-2.085-0.206-3.128-0.278c-1.105-0.079-2.176,0.112-3.258,0.23c-1.076,0.115-2.125,0.523-3.2,0.681
				c-0.747,0.112-1.894,0.291-2.601,0.007c0.21,0.273,0.903,0.235,1.264,0.279c0.557,0.07,1.123,0.118,1.727,0.116
				c0.602,0.002,1.186-0.071,1.781-0.127c0.618-0.055,1.217-0.297,1.843-0.335c1.155-0.07,2.35,0.005,3.522-0.055
				c1.241-0.062,2.483,0.046,3.706,0.057c1.038,0.018,2.301,0.172,3.249,0.467c0.805,0.248,1.566,0.421,2.386,0.487
				c-0.262-0.03-0.52-0.073-0.771-0.151C143.519,204.014,142.559,203.672,141.456,203.481z"/>
			<path opacity="0.5" fill="#FFFFFF" d="M146.577,213.827c1.188-0.13,2.374-0.312,3.542-0.535c2.344-0.451,4.651-1.066,6.925-1.725
				c0.338-0.1,0.668-0.214,1.002-0.322c0.248-0.316,0.497-0.633,0.735-0.959c-1.134,0.219-2.263,0.443-3.38,0.61
				c-7.028,1.052-14.455,0.995-21.445-0.182c-1.82-0.306-3.757-0.698-5.488-1.212c-0.541-0.163-1.042-0.322-1.545-0.558
				c-0.207-0.092-1.077-0.694-1.252-0.379c-0.138,0.256,0.544,0.653,0.716,0.726c1.174,0.507,2.571,0.576,3.784,0.991
				c1.364,0.464,2.783,0.765,4.166,1.217c2.087,0.678,4.165,1.388,6.334,1.831c1.137,0.229,2.281,0.437,3.429,0.592
				c0.379,0.048,0.771,0.181,1.161,0.152C145.703,214.044,146.114,213.872,146.577,213.827z"/>
			<path opacity="0.8" fill="#245977" d="M162.228,197.937c-1.515-0.012-3.058-0.509-4.576-0.707
				c-2.021-0.265-4.094-0.421-6.14-0.566c-2.278-0.156-4.61-0.295-6.903-0.291c-1.98,0-4.009-0.275-5.997-0.122
				c-0.527,0.046-1.074,0.214-1.577,0.351c0.528-0.004,1.047,0.104,1.59,0.172c1.047,0.124,2.101,0.224,3.143,0.391
				c2.184,0.35,4.245,0.71,6.463,0.714c1.352,0.001,2.759-0.195,4.098-0.39c1.226-0.18,2.423-0.255,3.649-0.355
				c0.818-0.072,1.68-0.109,2.501-0.052c0.361,0.028,0.727,0.088,1.079,0.145c0.455,0.076,1.043,0.114,1.459,0.248"/>
			<path fill="#245977" d="M150.543,211.132c-1.424,0.056-2.854,0.183-4.281,0.186c-3.767-0.006-7.187-0.49-10.803-0.617
				c1.558,0.239,3.312,0.967,4.64,1.303c2.003,0.499,4.405,0.476,6.576,0.329c2.076-0.142,4.2-0.707,6.284-1.194
				C152.155,211.134,151.343,211.1,150.543,211.132z"/>
			<path fill="#245977" d="M154.245,211.104c0.585-0.047,1.279-0.075,1.852-0.236c0.024-0.006,0.056-0.014,0.079-0.021
				c-1.088,0.045-2.17,0.05-2.876,0.21c-0.113,0.027-0.228,0.054-0.341,0.081C153.392,211.138,153.821,211.134,154.245,211.104z"/>
			<path fill="#245977" d="M138.931,203.056c-1.27-0.379-2.709-0.37-4.042-0.468c-0.873-0.062-1.809,0.012-2.649,0.189
				c-0.673,0.144-1.439,0.282-2.074,0.504c0.602-0.294,1.406-0.163,2.089-0.229c1-0.102,1.928-0.144,2.909-0.073
				c0.816,0.059,1.646,0.13,2.458,0.194c0.571,0.045,1.1-0.079,1.66-0.079"/>
			<path fill="#245977" d="M155.665,203.097c0.245-0.02,0.494,0.006,0.738,0.003c0.652-0.012,1.333-0.069,1.987-0.123
				c0.948-0.075,1.897-0.144,2.846-0.211c0.031-0.118,0.063-0.236,0.092-0.357c-0.479,0.011-0.959,0.029-1.433,0.06
				c-0.84,0.049-1.681,0.135-2.526,0.198c-0.123,0.007-0.757,0.104-1.02,0.161l0.145-0.043c-0.462,0.126-1.077,0.114-1.479,0.361
				C155.148,203.217,155.481,203.111,155.665,203.097z"/>
			<path fill="#FFFFFF" d="M124.605,196.493c0.024,0.109,0.008,0.254-0.002,0.362c-0.795-0.021-1.551-0.819-1.931-1.38
				c-0.645-0.949-1.287-2.07-1.694-3.146c-0.703-1.852-1.165-3.693-2.672-5.188c-0.716-0.711-1.477-1.042-2.468-1.379
				c-0.664-0.223-1.263-0.311-1.875,0.004c-1.111,0.568-1.426,2.116-1.31,3.203c0.138,1.273,0.938,2.518,1.456,3.724
				c0.532,1.235,1.104,2.54,1.793,3.725c0.776,1.341,1.615,2.618,2.424,3.934c0.353,0.575,0.773,1.106,1.154,1.679
				c0.579,0.863,0.795,1.866,1.434,2.687c0.763,0.975,1.343,2.095,2.062,3.104c0.382,0.539,0.717,1.087,1.108,1.604
				c0.37,0.487,0.715,0.847,0.673,1.453c-0.403,0.062-0.916-0.319-1.23-0.521c-1.024-0.654-1.944-1.561-2.67-2.491
				c-0.289-0.369-0.636-0.864-0.741-1.313c-0.11-0.456-0.066-0.767-0.348-1.207c-0.422-0.661-0.819-1.34-1.243-1.997
				c-0.821-1.279-1.288-2.729-2.018-4.048c-0.621-1.131-1.382-2.215-2.081-3.305c-0.556-0.863-1.025-1.775-1.617-2.613
				c-0.977-1.383-1.729-2.628-1.622-4.318c0.081-1.284,0.868-2.58,1.706-3.608c0.455-0.56,0.785-0.933,1.606-0.946
				c0.666-0.01,1.327,0.048,1.98,0.155c0.234-0.479,1.804,0.628,2.098,0.847c0.719,0.542,1.348,1.209,1.787,1.958
				c0.642,1.095,1.264,2.237,2.001,3.298c0.341,0.492,0.64,0.964,0.99,1.455c0.2,0.279,0.976,1.427,1.326,1.352"/>
		</g>
		<path d="M156.774,158.086c0.014,0.115-0.42,0.99,0.095,1.775c-2.813,0.58-5.412,0.925-8.03,0.4
			c-2.933-0.585-4.757-2.849-7.757-2.044c-2.752,0.743-2.269,3.763-5.958,3.695c-2.016-0.036-4.359-2.224-6.14-3.017
			c-0.315,2.846-2.25,5.451-4.241,7.703c-1.016,1.159-3.143,1.187-3.729,2.358c-0.928,1.857,0.489,3.416-0.048,5.211
			c-0.895,2.957-3.907,4.763-4.876,7.613c-1.006,2.966,0.929,8.194,1.006,11.34c-2.302-0.951-3.314-3.718-4.714-6.033
			c-2.477,0.033-5.047,0.541-7.529,0.569c-8.377-16.29-0.867-33.767,14.6-42.693c5.393-3.11,13.859-4.647,20.386-3.441
			c5.199,0.968,20.276,8.616,15.726,14.749"/>
		<path fill="#245977" d="M114.167,189.672c0.092-0.206-1.318-2.307-1.591-2.538c-0.849-0.724-2.995-0.261-3.732,0.465
			c-0.825,0.814-0.371,2.451-0.176,3.424c0.314,1.535,1.141,3.411,2.045,4.752c0.898,1.329,2.676,2.169,4.281,1.184"/>
		<path d="M162.373,181.326c-0.017-2.155-0.877-4.009-2.331-5.632c-1.344-1.502-2.82-1.75-4.639-2.09
			c0.351-1.06,0.455-2.312,0.878-3.403c0.646,0.417,1.156,1.19,1.319,1.946c-0.058-0.326-0.166-1.338,0.271-1.476
			c0.74-0.234,0.621,1.065,1.021,1.39c0.487,0.396,0.657-0.347,1.155,0.207c0.438,0.488,0.22,1.406,0.562,1.979
			c0.68-0.49,1.746,2.408,2.004,3.209c0.46,1.437-0.004,3.009-0.013,4.553"/>
		<path d="M51.041,200.921c-0.443,1.109-1.651,1.164-0.954,1.729l-0.015,0.507c1.304,1.757,2.834,1.012,4.598,1.706
			c1.076,0.437,1.675,1.559,2.509,2.312c0.698,0.628,48.667,53.884,49.443,54.532c3.299,2.773,5.979,5.923,9.134,8.771
			c0.974,0.875,1.844,1.757,2.771,2.648c-1.202,1.795-1.963,3.861-2.261,6.309c-1.109,9.24,9.404,17.156,15.131,22.478
			c2.371,2.189,6.173,6.438,9.779,6.352c3.685-0.114,7.08-1.755,6.398-5.439c-0.81-4.348-5.59-9.518-8.6-12.865
			c-0.62-0.686-1.256-1.326-1.873-1.986c0.17-0.159,0.354-0.3,0.519-0.451c0.422-0.398,10.161,11.58,11.367,12.541
			c4.06,3.221,33.985,38.871,32.188,43.377c-1.056,2.597-3.191,6.857-2.871,9.736c0.146,1.309,1.061,2.496,2.191,3.177
			c1.75,1.047,2.311,0.43,3.217-1.063c1.231-2.054,2.268-4.369,3.698-6.322c1.484-2.051,3.82-2.935,5.7-4.562
			c1.647-1.438,3.23-2.88,4.998-4.177c1.28-0.943,2.673-1.72,4.093-2.423c0.976-0.488,2.771-0.866,3.216-1.908
			c-2.583-0.637-5.997,0.155-8.77-0.152c-2.95-0.324-5.904-1.128-8.274-2.987c-1.798-1.427-33.502-32.72-35.055-34.55
			c-1.756-2.029-3.623-3.767-5.091-5.985c-1.942-2.921-4.317-5.615-6.567-8.312c0.086-0.057,0.149-0.114,0.238-0.169
			c0.636,0.397,2.397,1.073,3.2,0.677c1.563-0.757,0.145-2.183-0.726-2.977c-1.02-0.934-2.316-1.648-3.271-0.835
			c-0.438,0.365-0.673,0.948-0.945,1.507c-0.538-0.61-1.058-1.254-1.587-1.864c0.499-0.383,0.992-0.786,1.508-1.069
			c1.592-0.92,3.315-1.354,1.319-3.061c-1.713-1.466-2.364-0.492-3.308,0.908c-0.323,0.476-0.77,0.885-1.185,1.312
			c-0.721-0.826-1.452-1.662-2.176-2.483c0.432-0.025,0.876-0.023,1.357-0.155c1.528-0.419,2.146-2.383,0.632-3.452
			c-1.646-1.175-2.23,0.193-3.092,1.099c-0.191,0.207-0.454,0.369-0.674,0.558c-1.627-1.674-3.677-3.138-5.501-4.403
			c-1.728-1.205-3.192-1.567-4.943-0.375c-0.921,0.626-1.726,1.301-2.447,2.018c-3.128-3.413-53.167-59.143-56.857-62.217
			c-3.029-2.521-5.039-4.701-6.22-5.62c-1.838-1.433-0.791-3.692-2.228-5.237C53.892,198.21,51.365,200.128,51.041,200.921z
			 M121.306,275.842c1.3,1.326,2.592,2.677,3.878,4.04c-1.172,0.915-2.267,1.86-3.369,2.807
			C120.238,280.012,119.029,276.823,121.306,275.842z M123.189,284.834c1.196-1.067,2.399-2.14,3.665-3.192
			c0.832,0.906,1.679,1.797,2.542,2.689c-1.397,1.032-2.782,2.099-4.087,3.199c-0.371-0.451-0.767-0.878-1.124-1.34
			C123.923,285.851,123.569,285.38,123.189,284.834z M129.631,279.418c0.887,0.923,1.793,1.841,2.687,2.76
			c-0.217,0.159-0.436,0.323-0.655,0.492c-0.905-0.859-1.83-1.743-2.768-2.661C129.144,279.815,129.385,279.621,129.631,279.418z
			 M133.509,288.509c-0.921,0.693-3.462,2.319-4.216,3.793c-0.968-1.066-1.892-2.254-2.831-3.386
			c1.103-0.899,2.995-1.958,4.004-2.661c0.16-0.107,0.318-0.215,0.477-0.33c0.828,0.848,1.691,1.715,2.568,2.586L133.509,288.509z
			 M139.784,295.476c0.9,1.414,2.64,3.002,2.999,4.642c0.534,2.413-0.088,2.046-2.062,1.492c-2.229-0.638-4.298-2.334-6.014-3.89
			c-1.484-1.35-2.873-2.797-4.249-4.264c1.498-1.186,2.934-2.407,4.388-3.617c0.148,0.146,0.274,0.285,0.422,0.418
			C136.884,291.8,138.588,293.603,139.784,295.476z M136.277,286.197c-0.163,0.143-0.331,0.272-0.485,0.399
			c-0.791-0.801-1.621-1.586-2.464-2.354c0.193-0.15,0.394-0.291,0.582-0.417c0.39,0.39,0.768,0.811,1.163,1.194
			C135.453,285.411,135.874,285.808,136.277,286.197z M127.929,277.743c-0.254,0.191-0.509,0.39-0.762,0.58
			c-0.678-0.651-1.36-1.304-2.005-1.909c-0.224-0.226-0.434-0.454-0.653-0.671C125.81,276.068,126.927,276.823,127.929,277.743z"/>
		<path fill="#245977" d="M96.059,225.243c1.206,1.102,4.138-0.82,5.744-0.401c1.736,0.454,3.518,3.147,4.308,4.749
			c2.045,4.142,1.938,9.914,1.637,14.445c-0.341,5.145-3.122,10.413-5.408,14.9c-2.21,4.336-3.815,9.305-5.141,13.965
			c-2.025,7.122-2.799,14.195-3.91,21.42c-0.562,3.648-0.923,7.42-1.199,11.089c-0.114,1.523-0.189,2.995-0.187,4.552
			c0.002,1.423-0.55,3.039-0.352,4.338c0.829-1.042,1.194-3.46,1.593-4.873c0.924-3.279,2.021-6.595,3.064-9.874
			c1.549-4.874,3.113-9.589,4.366-14.559c1.127-4.478,2.218-9.052,3.356-13.492c0.705-2.749,1.046-5.718,2.224-8.253
			c0.145-0.312,0.604-1.294,0.936-1.439c0.677-0.301,1.418,0.839,1.979,1.29c1.157,0.931,2.434,1.665,3.66,2.474
			c0.757,0.498,1.294,1.022,1.948,1.637c0.479,0.449,1.635,1.018,1.977,1.525c0.928,1.379,0.025,5.07-0.352,6.588
			c-2.524,10.172-4.781,20.471-7.961,30.486c-2.037,6.417-4.611,12.914-8.907,18.15c-0.894,1.09-1.909,2.115-2.793,3.18
			c-0.56,0.672-1.078,1.653-1.825,2.17c-1.239,0.853-3.522,0.542-4.883,0.203c-3.773-0.945-7.685-1.097-11.49-1.739
			c-1.656-0.277-3.095-0.272-3.81-1.979c-0.995-2.374-0.775-5.593-0.937-8.125c-0.48-7.558-0.159-15.231,0.396-22.768
			c0.416-5.68,0.643-11.244,1.968-16.76c0.702-2.92,1.182-5.925,2.035-8.807c1.125-3.795,2.719-7.456,3.958-11.223
			c3.186-9.693,4.658-20.175,10.992-28.372c0.455-0.587,2.222-3.79,3.013-3.112"/>
		<path fill="#245977" d="M107.29,262.151c0.846-0.644,1.513-2.303,2.181-3.181c0.842-1.106,1.851-2.036,2.907-2.937
			c1.302-1.108,2.773-2.59,4.521-2.967c1.512-0.328,3.399,0.587,4.7,1.287c2.676,1.44,5.364,2.802,8.14,4.013
			c1.713,0.748,3.311,1.424,4.453,2.906c0.535,0.692,1.956,2.56,1.494,3.47c-0.82,1.612-5.617-0.846-6.656-1.414
			c-0.349-0.188-0.682-0.381-1.009-0.584c1.191,1.419,3.187,2.256,4.503,3.553c1.093,1.072,2.468,2.494,2.868,4.039
			c-1.74,0.287-2.852,0.148-4.393-0.776c-1.451-0.868-3.111-2.214-4.809-2.555c0.475,0.409,2.825,2.12,2.7,2.745
			c-0.26,1.305-3.132-0.041-3.675-0.303c-1.159-0.562-2.833-1.252-4.087-1.225c-1.292,0.027-2.143,1.332-3.21,1.987
			c-1.26,0.771-2.192-0.067-3.334-0.868c-1.202-0.848-2.171-1.714-3.495-2.357c-1.313-0.639-2.177-1.314-2.93-2.52
			c-0.454-0.73-1.525-1.938-1.15-2.89c0.12-0.308,0.627-0.488,0.735-0.944"/>
	</g>
	<g>
		<path d="M217.018,209.153c-4.45,7.612-11.576-5.177-13.587-8.002c-4.828-6.79-4.483-7.832-0.273-15.337
			c3.295-5.877,2.398-14.757,4.58-21.156c1.169-3.432,1.618-5.109,1.248-8.531c-0.393-3.587-1.761-6.226-0.021-9.669
			c1.074-2.12,5.102-6.099,7.305-6.732c6.398-1.853,5.346,3.014,9.085-3.472c2.136-3.7,4.223-8.778,9.176-9.308
			c5.211-0.549,8.93,4.85,11.944,8.156c-0.847-4.507,3.645-7.574,7.531-5.375c3.607,2.044,3.937,7.23,5.12,10.602
			c8.884-5.808,12.138,3.336,15.968,8.974c2.713-5.96,3.971,1.708,5.816,2.698c2.6,1.391,9.028-0.852,12.257-0.577
			c0.459,2.359-0.158,4.839-0.773,7.125c9.239-10.547,21.701,8.843,14.577,17.067c7.907-0.212,16.211,2.826,14.81,12.557
			c-0.245,1.697-1.545,3.268-1.714,4.999c-0.255,2.597,0.474,2.215,1.085,4.978c0.999,4.568,1.937,7.859-0.043,12.407
			c-1.191,2.729-4.667,5.591-5.453,8.283c-0.956,3.272,0.611,6.722,0.035,10.439c-1.739,11.282-10.642,12.345-15.734,2.635
			c-0.03,10.558-15.131,0.757-18.215-1.884c0.603,7.119-11.641,4.1-14.271,0.189c5.725,9.67-29.437,20.49-26.041,5.851
			c-3.672,10.066-27.563-3.116-17.486-9.953C214.829,229.825,209.594,213.317,217.018,209.153z"/>
		<path fill="#245977" d="M221.271,202.579c-0.551,1.402-2.788-0.497-3.438-1.126c-1.167-1.153-1.8-2.534-1.967-4.158
			c-0.382-3.712,1.803-5.096,4.294-7.44c-0.676-1.789-2.368-2.977-2.951-4.96c-0.601-2.042-0.798-3.856-0.798-6.077
			c0-3.958,1.443-8.426,3.501-11.939c4.914-8.382,14.614-11.867,24.056-9.229c2.258,0.625,3.793,2.115,5.681,3.416
			c1.798,1.243,3.548,2.223,4.797,4.096c2.411,3.616,3.185,7.971,4.913,11.794c0.926,2.056,1.443,3.882,1.613,6.104
			c0.158,2.069,2.003,3.119,2.908,4.997c2.052,4.252,0.541,10.511-2.57,14.011c-2.649,2.994-6.748,3.902-10.32,5.465
			c-3.173,1.375-6.41,2.188-9.998,2.174c-1.721-0.012-3.497-0.16-5.132,0.263c-1.819,0.466-2.936,1.058-4.86,1.054
			c-3.598-0.006-5.241-0.53-7.3-3.428"/>
		<path d="M249.912,178.288c0.274-2.771-6.997-6.035-9.453-6.867c-2.901-0.972-8.297,2.904-7.858,6.242
			c0.668-0.263,1.419-0.089,2.175-0.162c0.814-0.086,1.163-0.366,1.888-0.546c1.376-0.34,3.236-0.4,4.585-0.521
			c2.472-0.205,6.839,0.61,8.821,2.149c-0.146-0.18-0.279-0.385-0.426-0.562"/>
		<path d="M224.243,179.351c-1.557-0.946-6.668-8.022-7.832-3.169c-0.089,0.35-0.205,2.345,0.049,2.577
			c0.613,0.565,1.332-0.223,2.104-0.414c1.523-0.37,3.586,0.398,4.775,1.285c-0.153-0.016-0.309-0.016-0.449-0.016"/>
		<path fill="#FFFFFF" d="M244.503,181.99c0.019,0.052-0.303,0.549,0.029,0.021c-1.366-2.189-2.267-3.977-5.431-3.459
			c-2.072,0.338-3.296,2.185-4.221,3.978c1.317-0.148,1.338,1.436,1.983,2.168c0.782,0.878,2.389,1.61,3.6,1.271
			c1.182-0.333,4.491-3.471,3.773-4.505"/>
		<path fill="#FFFFFF" d="M223.971,184.095c-0.149,0.234-0.249,0.248-0.287,0.042c-0.131-1.241-0.952-3.114-2.401-3.216
			c-1.587-0.106-2.042,1.608-2.183,2.909c-0.52,4.667,4.818,2.414,4.06,0"/>
		<path d="M237.025,180.999c0.438-1.412,4.476,1.531,1.569,3.125c-1.231,0.668-2.298-0.323-2.639-1.271
			c-0.57-1.617,0.51-1.798,1.069-2.379"/>
		<path d="M218.718,183.216c-0.049-1.793,4.66-0.841,2.987,2.116c-1.83,3.235-4.806-1.45-2.18-3.432"/>
		<path fill="#FF0000" d="M229.375,186.21c2.643-0.104,3.585,1.758,3.253,4.285c-0.424,3.324-4.703,4.193-7.441,3.173
			c-3.27-1.21-2.895-4.797-0.121-6.549c1.951-1.226,7.092-1.88,6.473,1.731"/>
		<path fill="#245977" d="M223.159,193.341c0-0.096,0-0.176,0-0.264"/>
		<path fill="#245977" d="M257.862,204.928c0.645,1.017,1.454,3.2,2.184,4.786c1.105,2.392,2.851,4.433,4.437,6.533
			c0.806,1.063,1.492,2.607,2.476,3.513c2.477,2.257,5.162-2.57,6.005-4.592c1.822-4.384,7.795,0.849,9.747,3.1
			c1.834,2.128,3.526,4.744,4.184,7.511c0.545,2.309-0.316,3.74-0.316,5.902c0,5.496,3.024,12.715,4.703,17.961
			c1.558,4.873,4.102,9.293,5.281,14.312c0.482,2.037,1.461,4.205,1.757,6.253c0.232,1.603-0.609,2.247-1.668,3.389
			c-2.062,2.233-4.844,3.54-7.155,5.513c-3.09,2.623-6.257,5.113-9.412,7.652c-3.188,2.565-6.476,5.021-9.68,7.549
			c-1.243,0.978-2.572,2.146-3.186,3.563c-0.997-0.598-1.549-2.522-2.106-3.563c-0.767-1.434-1.427-2.969-2.22-4.358
			c-1.906-3.344-3.745-6.677-5.739-9.987c-1.078-1.798-2.538-3.479-3.49-5.331c-0.688-1.352-0.879-2.898-1.428-4.299
			c-0.397-1-0.841-1.895-1.467-2.755c-1.084-1.467-2.211-3.228-3.649-4.302c-0.238,2.101,0.32,4.195-0.053,6.283
			c-1.2,0.306-3.525-1.725-4.358-2.46c-4.753-4.209-8.128-9.434-10.026-15.506c-0.884-2.824-0.461-5.162,0.29-7.877
			c0.355-1.278,0.995-2.718,1.509-4.014c0.818-2.058,1.586-3.238,3.484-4.391c1.883-1.137,4-1.859,5.981-2.797
			c2.805-1.317,5.328-3.09,7.385-5.416c1.353-1.531,3.42-3.079,4.441-4.793c2.231-3.732-0.74-9.345-2.548-12.794
			c-0.323-0.616-0.782-1.169-1.106-1.771c-0.651-1.206-0.994-0.985,0.276-1.52c1.126-0.475,4.59-0.59,4.95-1.551"/>
		<path d="M259.945,260.209c0.018-0.665-2.315-1.284-2.629-2.04c-0.286-0.679,0.546-1.757,0.407-2.57
			c-0.169-0.937-0.549-1.893-1.43-2.38c-0.939-0.534-1.69-0.239-2.632-0.033c0.307,0.726,0.439,0.784,1.036,1.027
			c0.592,0.238,0.863,0.206,0.941,1.024c0.116,1.229-1.078,2.012-2.105,2.478c-0.634-0.509-0.788-1.17-0.737-1.938
			c0.062-0.898-0.009-0.834-0.58-1.491c-1.723,1.039-1.903,3.323-0.867,4.798c1.205,1.708,2.762,0.863,4.365,0.174
			c0.772,0.714,1.517,1.801,2.422,2.387c0.662,0.438,0.333,0.274,0.889-0.295c0.402-0.413,0.81-0.696,1.045-1.172
			c-0.13,0.023-0.252,0.075-0.362,0.165"/>
		<g>
			<path fill="#245977" d="M278.858,251.085c-0.513,0.064-1.238-0.987-1.651-1.32c-0.507-0.403-0.866-0.783-1.554-0.762
				c-0.807,1.947-0.56,4.285-0.76,6.385c-0.521-0.045-1.244,0.274-1.668,0.561c0.08-1.529,0.493-2.969,0.61-4.518
				c0.104-1.445,0.115-2.963,0.259-4.417c0.104,0.063,0.216,0.032,0.342,0.175c-0.031-0.348,0.1-0.83,0.451-0.878
				c0.025,0.189,0.163,0.364,0.175,0.561c0.11-0.174,0.316-0.456,0.538-0.561c-0.004,0.2,0.064,0.429,0.022,0.64
				c0.18-0.227,0.429-0.412,0.714-0.497c-0.017,0.244-0.144,0.497-0.238,0.729c0.185-0.165,0.364-0.147,0.581-0.169
				c0.06,0.231,0.043,0.496-0.052,0.688c1.236,0.397,2.173,2.157,3.531,2.243c-0.28,0.148-0.748,0.004-1.025,0.349
				c-0.269,0.317-0.078,0.751-0.371,1.016c-0.035-0.074-0.047-0.143-0.025-0.224"/>
			<path fill="#FFFFFF" d="M275.062,251.901c-0.048,0.734-0.065,1.481-0.091,2.211c-0.359-0.276-0.716-0.539-1.233-0.365
				c-0.089,0.031-0.169,0.078-0.253,0.122c0.122-0.688,0.239-1.388,0.308-2.1C274.236,251.595,274.723,251.599,275.062,251.901z"/>
			<path fill="#FFFFFF" d="M277.768,250.337c0.371-0.309,0.685-0.736,0.84-1.181c0.474,0.406,0.978,0.75,1.552,0.788
				c-0.28,0.148-0.748,0.004-1.025,0.349c-0.269,0.317-0.078,0.751-0.371,1.016c-0.035-0.074-0.047-0.143-0.025-0.224h0.121
				C278.537,251.123,278.127,250.722,277.768,250.337z"/>
			<path fill="#FFFFFF" d="M275.065,246.786c0.028,0.196-0.015-0.122-0.003,0.069c0.11-0.169,0.316-0.448,0.538-0.557
				c-0.004,0.201,0.064,0.435,0.022,0.641c0.18-0.226,0.429-0.407,0.714-0.503c-0.017,0.25-0.144,0.503-0.238,0.734
				c0.185-0.162,0.364-0.153,0.581-0.168c0.06,0.233,0.043,0.5-0.052,0.689c0.162,0.051,0.311,0.12,0.459,0.21
				c-0.031,0.48-0.243,0.984-0.58,1.332c-0.091-0.057-0.387-0.173-0.494-0.21c-0.057-0.335,0.117-0.604,0.064-1.033
				c-0.121-0.974-0.316-1.125-0.989-1.15C275.156,246.724,274.925,246.808,275.065,246.786z"/>
			<path fill="#FFFFFF" d="M274.095,246.997c0.104,0.07-0.172,0.191-0.043,0.333c-0.007-0.1,0-0.047,0.021-0.159
				c0.485,0.339,0.511,0.245,0.992,0.689c0.122,0.113,0.51,0.829,0.588,1.143c-0.067-0.012,0.079-0.012,0-0.012
				c-0.089,0.211-0.164,0.434-0.228,0.657c-0.321-0.249-0.713-0.371-1.236-0.291c-0.08,0.017-0.16,0.024-0.249,0.048
				C273.977,248.601,274.021,247.79,274.095,246.997z"/>
		</g>
		<path fill="#FFFFFF" d="M270.383,257.667c-1.286-1.691-2.891-3.391-4.049-5.259c-0.402-0.644-0.707-1.327-1.126-1.968
			c-0.429-0.646-0.958-0.353-1.54-0.036c-0.433,0.237-0.386,0.183-0.27,0.577c0.122,0.364,0.407,0.698,0.586,1.059
			c0.376,0.783,0.83,1.516,1.266,2.268c0.618,1.059,1.417,2.01,1.989,3.088c0.217,0.418,0.45,1,0.793,1.334
			c0.382,0.369,0.448,0.212,0.9-0.021c0.433-0.228,1.178-0.296,1.357-0.598"/>
		<path d="M267.668,260.247c-0.498-0.444-0.597-1.925-0.816-2.58c-0.258-0.794-0.442-1.582-0.592-2.365
			c1.057-0.834,2.133-2.401,1.863-3.798c-0.312-1.66-2.535-1.29-3.344-0.22c-0.841,1.093,0.104,2.3,0.366,3.393
			c0.279,1.201,0.712,2.455,0.786,3.623c-1.062-0.987-1.904-2.283-2.918-3.354c-0.558-0.582-1.058-1.369-1.693-1.85
			c-0.657-0.497-1.349,0.066-1.95,0.508c-1.131,0.83-0.849,3.443,0.344,4.15c0.653,0.393,1.502,0.424,2.258,0.371
			c0.656-0.047,1.29-0.444,1.992-0.347c0.63,0.083,1.106,0.985,1.355,1.501c0.258,0.545,0.33,1.178,0.655,1.66
			c0.382-0.127,1.09-0.408,1.329-0.34 M262.604,256.539c0.473,0.429-0.777,0.735-1.084,0.694c-0.627-0.096-1.12-0.668-1.458-1.129
			c-0.83-1.137-0.058-1.845,0.898-2.463c0.345,0.342,0.565,0.777,0.854,1.17c0.33,0.468,0.967,1.02,0.884,1.647 M266.128,254.155
			c-0.312-0.463-0.551-1.308-0.54-1.852c0.011-0.555,0.729-1.08,1.354-0.973c1.247,0.209-0.019,2.834-0.899,2.824"/>
		<path d="M277.997,254.524c0,0-4.56,0.908-7.447,1.842c-7.082,2.285-14.435,3.898-21.355,6.738
			c-0.383,2.924,3.062,7.588,4.553,10.186c1.502,2.607,3.569,8.197,5.718,10.008c3.507,2.943,19.711-3.994,23.474-7.449
			C281.434,271.021,277.997,254.524,277.997,254.524z"/>
		<g>
			<path d="M253.572,264.267c-0.657-1.547-1.122-3.109-1.776-4.658c-0.529-1.26-1.203-2.529-1.699-3.767
				c-0.146,0.014-0.359,0.1-0.476,0.196c0.313,0.581,0.318,1.511,0.423,2.178c0.164,1.138,0.38,2.282,0.577,3.42
				c0.146,0.849,0.428,1.628,0.513,2.473c0.063,0.719,0.111,1.408,0.186,2.131c0.217-0.36,0.709-0.606,1.074-0.83
				c0.38-0.227,0.973-0.798,1.195-0.86"/>
			<path fill="#245977" d="M250.325,256.118c0.455-0.625,0.733-2.234,0.121-3.012c-0.544-0.698-2.011-1.427-1.92-2.438
				c0.091,1.145-0.461,2.265-0.213,3.407c0.197,0.92,0.764,2.259,1.711,2.529c0-0.117,0.082-0.225,0.062-0.356
				c0.064,0.017,0.098,0.06,0.098,0.06"/>
		</g>
		<path d="M235.219,182.593c-0.1-0.18,1.546-1.354,1.909-1.607c0.704-0.486,1.42-0.73,2.247-0.852
			c1.042-0.147,2.112-0.139,3.102,0.279c0.845,0.361,1.392,0.937,2.103,1.47c0.012-0.602-0.1-1.183-0.088-1.802
			c-0.074,0.216-0.275,0.353-0.435,0.533c-0.196-0.4-0.222-0.889-0.455-1.312c-0.122,0.139-0.265,0.424-0.391,0.572
			c-0.116-0.254-0.163-1.026-0.434-1.179c-0.351-0.201-0.392,0.497-0.477,0.762c-0.401-0.35-0.37-1.179-0.914-1.427
			c-0.16,0.269-0.177,0.638-0.275,0.881c-0.279-0.421-0.466-1.173-0.943-1.392c-0.009,0.435-0.094,0.833-0.114,1.266
			c-0.298-0.265-0.37-1.047-0.83-1.09c0,0.386-0.006,1.313-0.256,1.597c-0.152-0.428-0.396-0.81-0.695-1.152
			c-0.264,0.253-0.064,0.871-0.213,1.227c-0.205-0.125-0.642-0.768-0.942-0.676c-0.327,0.105-0.153,1.151-0.18,1.443
			c-0.308-0.217-0.396-1.037-0.923-1.001c-0.07,0.636,0.051,1.301-0.04,1.933c-0.188-0.291-0.315-0.746-0.518-1.09
			c-0.244,0.401-0.151,1.311-0.169,1.697c-0.169,0.254-0.155,0.926-0.155,1.088"/>
		<path d="M223.699,183.777c0.662-0.702-0.1-2.675-0.862-3.036c-0.068,0.144-0.122,0.312-0.152,0.467
			c-0.336-0.287-0.338-0.868-0.693-1.149c-0.149,0.21-0.084,0.493-0.171,0.674c-0.105-0.265-0.321-0.901-0.612-0.92
			c0,0.263-0.086,0.489-0.128,0.745c-0.116-0.191-0.253-0.523-0.479-0.663c-0.05,0.276-0.121,0.557-0.211,0.838
			c-0.102-0.154-0.196-0.351-0.325-0.493c-0.167,0.26-0.231,0.682-0.279,0.994c-0.201-0.139-0.308-0.459-0.571-0.492
			c-0.126,0.312-0.027,0.769-0.168,1.001c-0.075-0.154-0.144-0.312-0.202-0.477c0.012,0.433,0.032,0.884-0.152,1.337
			c-0.033,0.293-0.012,0.599-0.012,0.896c-0.085-1.26,1.55-2.202,2.62-2.237c1.24-0.047,2.066,1.96,2.491,2.687"/>
		<path d="M219.659,162.172c0,0.101,0.454,0.805,0.099,1.528c2.429,0.207,4.65,0.232,6.803-0.486
			c2.406-0.804,3.712-2.929,6.321-2.549c2.389,0.349,2.289,2.982,5.391,2.543c1.69-0.236,3.442-2.354,4.859-3.216
			c0.556,2.401,2.449,4.435,4.352,6.15c0.974,0.889,2.769,0.695,3.382,1.636c0.967,1.492-0.064,2.973,0.568,4.453
			c1.056,2.439,3.774,3.671,4.876,6.01c1.151,2.432,0.056,7.107,0.309,9.806c1.84-1.054,2.41-3.523,3.354-5.649
			c2.089-0.228,4.307-0.058,6.395-0.291c5.396-14.803-2.703-28.98-16.629-35.02c-4.855-2.103-12.138-2.544-17.508-0.834
			c-4.276,1.363-16.189,9.467-11.734,14.242"/>
		<g>
			<path fill="#FFFFFF" d="M220.605,204.083c-0.295-0.807-4.221-3.803-4.416-4.695c-0.909-4.071,0.978-4.899,1.651-7.404
				c0.077-0.289,0.471-0.792,0.914-1.211c0.369-0.863,0.543-1.162,0.962-1.728c0.348-0.472,0.712-0.562,1.162-0.988
				c0.961-0.914,1.287-1.431,2.188-1.984c1.325-0.812,2.489-2.597,4.204-2.835c1.616-0.225,3.25,0.157,4.67,0.651
				c0.588,0.204,1.239,0.433,1.801,0.712c0.3,0.148,0.57,0.332,0.889,0.484c0.555,0.266,1.207,0.236,1.78,0.449
				c0.602,0.224,1.147,0.632,1.673,0.966c1.141,0.729,2.238,1.527,3.461,2.159c3.533,1.828,6.675,2.115,10.772,2.406
				c0.341,1.054-0.104,2.195-0.232,3.246c-0.119,1.012-0.106,2.025-0.219,3.034c-0.08,0.719-0.098,1.427-0.091,2.161
				c0.005,1.441,0.263,2.701,0.537,4.07c0.101,0.494,0.274,1.142,0.113,1.622c-0.153,0.483-0.757,1.063-1.113,1.466
				c-0.465,0.514-1.012,1.008-1.53,1.491c-1.322,1.248-3.483,2.243-5.175,3.088c-1.994,0.996-4.109,1.826-6.348,2.327
				c-1.71,0.385-3.495,0.487-5.279,0.413C227.729,211.952,223.672,208.372,220.605,204.083z"/>
			<path fill="#245977" d="M220.609,204.09c-0.297-0.809,0.194,0.89-0.004-0.007c-0.343-1.539-4.461-1.043-4.724-6.482
				c-0.244-4.968,1.959-4.129,1.918-5.807c0.237-0.09,0.476-0.189,0.698-0.318c1.033-0.605,1.953-1.394,2.964-2.053
				c0.07-0.043,0.14-0.086,0.209-0.131c1.507-0.938,2.815-2.162,4.342-3.073c0.676-0.401,1.366-0.804,2.084-1.119
				c0.98-0.436,1.547-0.31,2.505,0.005c0.674,0.218,1.278,0.424,1.946,0.664c2.885,1.038,4.891,3.028,7.506,4.448
				c3.141,1.71,7.184,2.165,10.694,3.024c0.214,2.111,0.068,4.32,0.081,6.451c0.006,2.102,0.689,3.821-0.681,5.618
				c-2.175,2.856-6.389,4.47-9.936,5.276c-4.932,1.126-9.058,0.579-13.802-0.357C224.173,208.472,222.249,206.382,220.609,204.09z"
				/>
			<path opacity="0.3" fill="#FFFFFF" d="M220.609,204.09c-0.521-1.424-4.062-2.187-4.67-5.579
				c-0.567-3.182,0.191-4.164,1.927-6.626c0.651-0.348,1.306-0.921,2.018-1.102c0.576-0.149,0.911-0.104,1.421-0.464
				c0.218-0.153,0.419-0.318,0.615-0.489c0.579-0.521,1.081-1.103,1.657-1.624c1.047-0.943,1.873-2.045,3.076-2.853
				c0.86-0.581,1.892-1.288,3.07-1.019c0.965,0.219,1.647,0.904,2.469,1.344c0.826,0.444,1.727,0.676,2.583,1.061
				c1.975,0.889,3.397,2.457,5.278,3.478c3.141,1.71,7.184,2.165,10.694,3.024c0.214,2.111,0.068,4.32,0.081,6.451
				c0.006,2.102,0.689,3.821-0.681,5.618c-2.175,2.856-6.389,4.47-9.936,5.276c-4.932,1.126-9.058,0.579-13.802-0.357
				C224.173,208.472,222.249,206.382,220.609,204.09z"/>
			<path opacity="0.3" fill="#FFFFFF" d="M250.148,205.311c1.37-1.797,0.687-3.517,0.681-5.618c-0.013-2.131,0.133-4.34-0.081-6.451
				c-3.511-0.859-7.554-1.314-10.694-3.024c-1.382-0.753-2.438-1.891-3.859-2.568c-1.324-0.633-2.77-0.993-4.112-1.582
				c-1.205-0.529-3.106-1.765-4.488-1.585c-1.121,0.145-0.581,0.884,0.055,1.214c0.653,0.338,1.385,0.622,2.053,0.928
				c0.617,0.283,1.392,0.507,1.916,0.924c0.39,0.31,0.827,0.908,0.622,1.385c-0.213,0.507-1.053,0.532-1.585,0.711
				c-1.164,0.39-2.6,0.672-3.628,1.3c0.298,0.668,2.582,0.342,3.346,0.545c1.346,0.365,1.34,0.934,1.452,2.131
				c-0.911,0.154-0.662,0.872-1.166,1.346c-0.524,0.494-1.608,0.376-1.283,1.36c1.69,0.283,2.624,0.888,4.022,1.616
				c0.914,0.48,1.299,0.329,1.444,1.484c0.089,0.729,0.1,1.75-0.159,2.393c-0.37,0.904-3.305,2.254-2.839,3.078
				c0.156,0.27,1.516,0.665,1.911,1.074c0.535,0.561,0.859,1.348,0.657,2.089c-1.638,0.577-7.159,0.601-6.445,3.077
				C235.532,211.677,245.497,211.429,250.148,205.311z"/>
			<path opacity="0.5" fill="#FFFFFF" d="M221.032,194.241c-0.872,0.155-4.248,0.742-5.121,0.938c-0.096,0.021,0.095-0.022,0,0
				c-0.006-0.031,2.193-0.629,2.187-0.661c1.569-0.437,3.121-0.904,4.757-1.16c2.476-0.387,4.909-1.007,7.422-1.17
				c2.359-0.151,4.674-0.002,7.01,0.268c1.811,0.21,3.603,0.542,5.406,0.81c1.527,0.226,3.098,0.447,4.601,0.786
				c0.801,0.182,1.554,0.431,2.304,0.646c-0.402-0.062-0.824-0.123-1.213-0.205c-0.969-0.197-1.937-0.294-2.909-0.502
				c-0.858-0.186-1.775-0.383-2.639-0.49c-1.001-0.122-2.029-0.115-3.048-0.047c-1.267,0.09-2.502,0.117-3.751,0.297
				c-1.159,0.16-2.316,0.309-3.487,0.439c-2.784,0.313-5.526-0.239-8.324-0.243C223.1,193.949,222.111,194.056,221.032,194.241z"/>
			<path opacity="0.5" fill="#FFFFFF" d="M225.224,199.548c-0.488,0.08-0.977-0.024-1.467,0.004
				c-0.421,0.031-0.831,0.121-1.267,0.141c-0.842,0.034-1.664-0.036-2.466-0.089c-0.219-0.014-3.804-0.632-4.021-0.641
				c-0.105-0.385,0.075-0.184-0.03-0.575c0.303,0.016,3.682,0.06,3.991,0.079c1.181,0.075,2.328,0.153,3.492,0.288
				c1.219,0.148,2.41,0.441,3.607,0.602c1.314,0.176,2.632,0.39,3.908,0.616c0.481,0.086,0.977,0.165,1.473,0.196
				c-0.834-0.033-1.604-0.191-2.464-0.234c-1.025-0.05-2.002-0.35-3.022-0.431C226.346,199.457,225.8,199.454,225.224,199.548z"/>
			<path opacity="0.5" fill="#FFFFFF" d="M236.848,199.285c1.021-0.166,2.026-0.291,3.034-0.429c0.935-0.138,1.87-0.177,2.806-0.238
				c0.99-0.068,1.95,0.097,2.921,0.196c0.964,0.099,1.902,0.442,2.865,0.577c0.67,0.096,1.698,0.248,2.33,0.006
				c-0.186,0.23-0.81,0.197-1.131,0.237c-0.498,0.06-1.008,0.101-1.547,0.099c-0.54,0.002-1.062-0.062-1.6-0.109
				c-0.551-0.045-1.087-0.25-1.649-0.283c-1.037-0.061-2.106,0.004-3.157-0.047c-1.113-0.055-2.227,0.038-3.322,0.05
				c-0.932,0.012-2.063,0.146-2.916,0.396c-0.718,0.208-1.402,0.355-2.133,0.413c0.232-0.024,0.462-0.061,0.689-0.13
				C235,199.735,235.86,199.444,236.848,199.285z"/>
			<path opacity="0.5" fill="#FFFFFF" d="M232.261,208.054c-1.065-0.109-2.13-0.266-3.177-0.452c-2.1-0.383-4.167-0.905-6.206-1.462
				c-0.305-0.085-0.601-0.182-0.9-0.273c-0.22-0.271-0.442-0.537-0.656-0.812c1.015,0.184,2.029,0.375,3.029,0.516
				c6.302,0.893,12.958,0.846,19.224-0.152c1.632-0.261,3.367-0.594,4.918-1.028c0.485-0.138,0.934-0.272,1.387-0.472
				c0.184-0.078,0.965-0.59,1.121-0.322c0.126,0.217-0.486,0.555-0.642,0.614c-1.051,0.43-2.305,0.491-3.393,0.843
				c-1.223,0.393-2.494,0.646-3.734,1.031c-1.872,0.573-3.733,1.177-5.677,1.549c-1.02,0.197-2.045,0.371-3.073,0.503
				c-0.34,0.042-0.693,0.153-1.043,0.129C233.044,208.236,232.674,208.094,232.261,208.054z"/>
			<path opacity="0.8" fill="#245977" d="M218.23,194.586c1.356-0.011,2.742-0.434,4.102-0.602c1.813-0.226,3.67-0.354,5.505-0.479
				c2.042-0.133,4.131-0.25,6.188-0.248c1.776,0.002,3.592-0.232,5.375-0.104c0.473,0.041,0.965,0.184,1.415,0.3
				c-0.475-0.005-0.939,0.089-1.425,0.142c-0.938,0.107-1.885,0.191-2.815,0.334c-1.96,0.295-3.808,0.603-5.795,0.604
				c-1.214,0.002-2.475-0.164-3.673-0.327c-1.1-0.154-2.171-0.221-3.271-0.304c-0.736-0.059-1.506-0.092-2.243-0.042
				c-0.324,0.021-0.651,0.071-0.97,0.121c-0.406,0.066-0.932,0.097-1.305,0.21"/>
			<path fill="#245977" d="M228.704,205.77c1.28,0.047,2.56,0.155,3.838,0.158c3.378-0.005,6.443-0.418,9.682-0.524
				c-1.396,0.205-2.965,0.818-4.156,1.105c-1.795,0.421-3.948,0.404-5.896,0.275c-1.86-0.117-3.766-0.598-5.634-1.011
				C227.26,205.771,227.988,205.741,228.704,205.77z"/>
			<path fill="#245977" d="M225.385,205.745c-0.524-0.038-1.146-0.062-1.658-0.197c-0.022-0.009-0.047-0.014-0.071-0.02
				c0.975,0.037,1.945,0.04,2.577,0.178c0.103,0.021,0.205,0.047,0.305,0.067C226.15,205.774,225.767,205.772,225.385,205.745z"/>
			<path fill="#245977" d="M239.112,198.923c1.139-0.319,2.43-0.312,3.623-0.397c0.783-0.052,1.623,0.012,2.377,0.163
				c0.604,0.12,1.291,0.239,1.859,0.426c-0.541-0.25-1.262-0.137-1.872-0.195c-0.899-0.084-1.728-0.122-2.609-0.061
				c-0.731,0.05-1.474,0.111-2.202,0.166c-0.511,0.039-0.987-0.068-1.487-0.068"/>
			<path fill="#245977" d="M224.113,198.959c-0.221-0.017-0.444,0.003-0.66,0.002c-0.589-0.011-1.198-0.058-1.782-0.104
				c-0.849-0.062-1.703-0.121-2.551-0.178c-3.181-0.168-3.153-0.066-3.181-0.168c0.433,0.008,3.958-0.112,4.383-0.086
				c0.753,0.043,1.506,0.114,2.263,0.168c0.11,0.004,0.679,0.09,0.915,0.137l-0.13-0.036c0.413,0.106,0.963,0.099,1.327,0.306
				C224.576,199.061,224.278,198.97,224.113,198.959z"/>
			<path fill="#FFFFFF" d="M256.917,186.14c-0.013-0.079-0.02-0.163-0.02-0.253c0.006-0.233,0.021-0.463,0.045-0.696
				c-0.122-0.215-0.172-0.445-0.151-0.682c-0.406,0.362-0.762,0.762-1.035,1.203c-0.575,0.926-1.131,1.896-1.793,2.794
				c-0.305,0.418-0.573,0.818-0.887,1.231c-0.18,0.239-0.875,1.211-1.189,1.148l0.07,2.473c-0.025,0.095-0.009,0.215,0.002,0.31
				c0.71-0.017,1.389-0.695,1.729-1.169c0.577-0.806,1.153-1.758,1.52-2.668c0.507-1.266,0.884-2.523,1.718-3.627
				C256.923,186.185,256.918,186.161,256.917,186.14z"/>
			<path fill="#FFFFFF" d="M263.229,186.595c-0.174,0.035-0.357,0.035-0.521-0.008c-0.009-0.004-0.015-0.008-0.021-0.009
				c0.001,0.139-0.007,0.276-0.021,0.404c-0.122,1.08-0.84,2.135-1.304,3.156c-0.478,1.049-0.991,2.155-1.608,3.159
				c-0.696,1.135-1.447,2.219-2.172,3.333c-0.317,0.487-0.693,0.937-1.035,1.424c-0.519,0.731-0.713,1.581-1.285,2.275
				c-0.683,0.828-1.203,1.778-1.847,2.632c-0.342,0.457-0.643,0.924-0.995,1.361c-0.33,0.413-0.639,0.716-0.602,1.231
				c0.361,0.054,0.82-0.272,1.102-0.442c0.92-0.555,1.743-1.323,2.396-2.114c0.255-0.312,0.566-0.731,0.663-1.11
				c0.097-0.39,0.059-0.65,0.31-1.026c0.379-0.56,0.735-1.132,1.115-1.69c0.736-1.083,1.154-2.313,1.81-3.432
				c0.557-0.957,1.239-1.878,1.868-2.799c0.495-0.734,0.916-1.506,1.448-2.217c0.768-1.028,1.381-1.969,1.452-3.155
				C263.654,187.325,263.407,186.953,263.229,186.595z"/>
		</g>
		<path fill="#FF0000" d="M246.353,228.989c0.955,2.322,4.904,2.59,7.026,2.59c3.13,0,5.886-0.99,8.558-2.548
			c2.828-1.651,5.021-4.031,6.201-7.164c0.452-1.2,0.205-2.68,0.735-3.791c0.414-0.87,1.581-1.202,2.403-1.648
			c7.805,11.383,16.786,21.938,25.035,32.981c5.063,6.775,8.613,14.809,12.912,22.121c3.275,5.57,6.725,11.473,10.036,17.009
			c2.476,4.142,8.622,11.352,8.968,15.853c-6.379,2.755-12.287,6.35-19.381,6.903c-4.361,0.339-8.021,0.037-12.188,1.005
			c-4.907,1.141-9.449,2.879-14.385,3.203c-8.648,0.563-17.794-1.413-26.332-2.48c-6.929-0.867-13.858-1.26-20.922-1.854
			c-0.909-10.744,0.626-22.053,1.513-32.735c0.765-9.224,2.836-17.651,4.982-26.585c0.735-3.059,1.538-6.422,1.913-9.533
			c0.253-2.104,0.67-3.183,0.285-5.294c-0.274-1.495-2.118-2.454-1.696-4.211c0.327-1.354,4.611-1.917,4.716-3.756
			c-0.005,0.102-0.007,0.202-0.007,0.306"/>
		<path d="M304.63,223.007c-0.633-0.577-0.811-1.396-1.02-1.074l-0.267-0.137c-0.76,0.424-0.184,1.633-0.331,2.633
			c-0.1,0.609-0.612,0.724-0.903,1.09c-0.247,0.308-22.249,18.844-22.493,19.197c-1.049,1.499-2.369,2.49-3.475,3.875
			c-0.338,0.428-0.694,0.785-1.046,1.178c-1.086-1.255-2.258-2.282-3.576-3.1c-4.964-3.072-7.825,1.941-9.908,4.414
			c-0.856,1.027-2.615,2.491-2.131,4.917c0.507,2.483,1.782,5.161,3.625,5.636c2.175,0.561,4.295-1.322,5.678-2.483
			c0.282-0.241,0.541-0.501,0.812-0.747c0.104,0.152,0.199,0.312,0.3,0.457c0.26,0.385-4.818,3.854-5.174,4.415
			c-1.428,2.246-4.646,4.161-7.017,5.118c-3.586,1.449-6.318,4.542-9.294,6.973c-1.725,1.407-3.335,3.075-5.358,4.14
			c-1.891,0.989-2.777,0.486-4.602-0.143c-1.383-0.477-3.789-0.402-3.265,1.908c0.271,1.202,2.331,3.444,3.13,4.464
			c1.233,1.572,5.901,5.479,5.752,7.436c0.074-0.715,0.221-0.778,0.773-1.051c0.188-2.229,0.094-4.997,1.205-6.924
			c1.146-1.982,3.453-3.709,5.154-5.237c3.07-2.753,6.54-4.789,9.329-7.913c2.12-2.372,5.225-6.012,8.198-7.298
			c1.291-0.558,2.411-1.459,3.546-2.279c0.04,0.07,0.079,0.127,0.118,0.201c-0.131,0.323-0.271,1.325,0.036,1.962
			c0.586,1.234,1.159,0.648,1.469,0.268c0.362-0.443,0.579-1.128,0.035-1.969c-0.244-0.385-0.574-0.688-0.902-1.012
			c0.255-0.204,0.526-0.389,0.78-0.586c0.264,0.429,0.535,0.858,0.746,1.274c0.675,1.294,1.111,2.553,1.76,1.653
			c0.558-0.773-0.029-1.453-0.877-2.435c-0.289-0.337-0.556-0.736-0.83-1.122c0.344-0.271,0.691-0.548,1.034-0.824
			c0.065,0.295,0.118,0.591,0.246,0.945c0.405,1.124,1.508,2.033,1.881,1.291c0.413-0.801-0.371-1.534-0.952-2.339
			c-0.131-0.18-0.246-0.395-0.372-0.589c0.677-0.66,1.192-1.66,1.633-2.556c0.418-0.849,0.429-1.732-0.407-3.201
			c-0.438-0.772-0.89-1.48-1.353-2.14c1.404-1.225,24.45-20.516,25.608-22.201c0.947-1.383,1.843-2.172,2.178-2.728
			c0.529-0.862,1.838,0.407,2.469-0.163C306.397,225.589,305.085,223.424,304.63,223.007z M274.015,250.938
			c-0.536,0.53-1.086,1.052-1.643,1.562c-0.62-1.012-1.247-1.979-1.876-2.954C271.705,249.172,273.222,249.17,274.015,250.938z
			 M269.54,249.921c0.703,1.067,1.41,2.14,2.116,3.251c-0.371,0.326-0.734,0.665-1.096,1.018c-0.711-1.196-1.436-2.388-2.171-3.534
			c0.191-0.134,0.362-0.289,0.563-0.411C269.099,250.152,269.301,250.036,269.54,249.921z M273.156,255.583
			c-0.373,0.36-0.742,0.73-1.113,1.093c-0.11-0.183-0.223-0.37-0.336-0.558c0.337-0.387,0.687-0.783,1.05-1.176
			C272.89,255.157,273.021,255.368,273.156,255.583z M268.874,255.874c-0.474-0.791-1.632-2.895-2.496-3.769
			c0.44-0.378,0.949-0.693,1.426-1.033c0.605,0.962,1.39,2.492,1.881,3.343c0.075,0.133,0.149,0.264,0.229,0.4
			C269.573,255.151,269.224,255.509,268.874,255.874L268.874,255.874z M265.998,258.299c-0.629,0.244-1.249,1.001-2.062,0.828
			c-1.197-0.254-1.08-0.575-1.031-1.751c0.061-1.324,0.695-2.276,1.3-3.027c0.526-0.649,1.114-1.21,1.713-1.759
			c0.801,1.299,1.615,2.565,2.425,3.841c-0.058,0.062-0.114,0.11-0.168,0.174C267.567,257.292,266.831,257.973,265.998,258.299z
			 M270.421,258.304c-0.094-0.145-0.183-0.289-0.267-0.426c0.322-0.324,0.632-0.681,0.93-1.047c0.105,0.167,0.201,0.336,0.29,0.492
			c-0.157,0.16-0.33,0.309-0.483,0.474C270.731,257.952,270.576,258.132,270.421,258.304z M273.823,254.872
			c-0.128-0.219-0.263-0.439-0.393-0.655c0.257-0.288,0.515-0.576,0.754-0.855c0.09-0.091,0.184-0.175,0.271-0.265
			C274.442,253.88,274.185,254.435,273.823,254.872z"/>
		<path fill="#245977" d="M277.707,214.363c-3.035,0.495-5.333,2.485-3.884,5.82c0.924,2.123,3.606,3.311,5.279,4.745
			c3.118,2.667,6.305,5.858,9.148,8.884c4.087,4.35,6.494,9.51,9.358,14.746c1.246,2.28,2.173,4.477,3.583,6.636
			c0.871,1.336,3.249,2.776,3.35,4.137c-3.902-0.344-7.931-1.164-11.732-2.119c-2.259-0.566-4.73-0.854-7.089-1.297
			c-4.087-0.769-8.064-1.811-12.105-2.888c-1.71-0.456-4.779-0.559-6.286-1.39c-1.708-0.939-1.735-3.296-3.193-4.209
			c-2.127-1.336-4.374,0.8-4.559,2.885c-0.195,2.211,1.737,3.838,2.414,5.878c-1.945,0.448-3.421-1.04-5.196-1.36
			c-1.708-0.309-2.764,0.396-4.162,1.141c1.565,2.308,4.471,2.988,6.917,4.187c-1.415,1.308-3.26,0.849-5.199,0.97
			c-1.291,0.08-4.967,1.098-2.718,3.086c2.127,1.881,8.241-1.77,10.714-1.271c-1.479,1.346-4.435,5.396-6.823,5.144
			c4.757,4.42,10.566-5.233,13.551-7.562c3.342-2.606,10.408,1.445,14.235,2.611c7.817,2.384,15.634,4.385,23.02,8.023
			c5.399,2.656,10.715,5.073,16.746,5.316c1.733,0.07,3.481,0,5.215,0c3.643,0,5.96-0.268,5.949-4.533
			c-0.012-4.377-3.448-6.961-6.621-9.41c-3.576-2.764-6.601-6.012-9.854-9.156c-3.292-3.186-6.29-6.736-9.347-10.125
			c-3.099-3.434-6.596-6.475-9.665-9.838c-5.274-5.782-10.432-11.206-16.055-16.675
			C281.189,215.271,279.929,214.003,277.707,214.363z"/>
	</g>
</g>
</svg>
