<?xml version="1.0" encoding="utf-8"?>
<!-- Generator: Adobe Illustrator 16.0.4, SVG Export Plug-In . SVG Version: 6.00 Build 0)  -->
<!DOCTYPE svg PUBLIC "-//W3C//DTD SVG 1.1//EN" "http://www.w3.org/Graphics/SVG/1.1/DTD/svg11.dtd">
<svg version="1.1" id="Ebene_1" xmlns="http://www.w3.org/2000/svg" xmlns:xlink="http://www.w3.org/1999/xlink" x="0px" y="0px"
	 width="411.784px" height="425.2px" viewBox="0 0 411.784 425.2" enable-background="new 0 0 411.784 425.2" xml:space="preserve">
<g>
	<g>
		<g>
			<path fill="#245977" d="M210.312,249.767c0.605-0.085,1.867-2.205,2.63-3.165c1.251-1.573,2.745-3.007,4.21-4.535
				c2.377-2.481,4.352-4.778,7.372-5.786c4.429-1.479,8.13-4.572,12.241-6.655c1.081-0.549,2.005-0.843,2.728-1.829
				c0.827-1.131,0.668-2.156,1.797-3.064c1.97-1.589,5.344-0.539,6.74,1.204c1.568,1.954,1.922,4.274,3.714,6.198
				c1.862,1.997,4.106,3.743,5.093,6.362c0.549,1.458,0.879,3.497,0.181,4.926c-1.494-0.121-1.411-2.549-2.443-2.508
				c-0.697,0.029-1.12,1.818-1.621,2.17c-2.08,1.463-4.05-2.056-4.358-4.229c-1.144-0.567-2.211,0.081-3.405-0.262
				c-0.873,1.919,0,4.477,0.135,6.47c0.163,2.417-0.107,5.003,0.064,7.504c0.206,3.041,1.045,5.744,0.659,8.798
				c-0.153,1.204-3.299,12.427-4.026,12.227c-3.801-1.038-4.155-2.931-5.838-6.403c-1.866-3.848-5.719-6.403-9.162-8.795
				c-2.419-1.681-4.338-4.203-6.936-5.435c-2.237-1.062-6.75-2.148-9.047-1.276"/>
			<path fill="#245977" d="M334.295,196.351c1.849-0.83,3.683-1.675,5.499-2.519c4.641-2.161,9.098-4.682,13.61-7.045
				c2.401-1.259,4.509-2.973,6.824-4.368c2.307-1.39,4.776-2.081,7.328-2.825c1.244-0.364,2.502-0.855,3.634-1.505
				c1.544-0.887,3.493-1.802,4.544-3.317c1.066-1.538,1.287-4.327,1.283-6.128c-0.001-1.375-0.651-2.748-0.835-4.109
				c-0.307-2.271-0.007-5.989-2.541-7.153c-2.235-1.026-4.669,0.704-6.007,2.365c-1.456,1.804-1.455,4.623-3.509,5.774
				c-0.238-2.636,2.167-9.466-3.088-6.687c-2.797,1.479-3.672,7.021-4.417,9.729c-1.179,4.279-4.458,5.942-8.054,7.914
				c-3.315,1.818-6.329,3.694-10.01,4.791c-3.509,1.045-7.138,1.617-10.749,2.188c-3.714,0.588-7.278,1.355-10.861,2.6
				c-2.037,0.708-3.996,1.617-5.97,2.481c-1.638,0.719-3.287,1.188-4.938,1.879c-1.031,0.431-1.999,1.027-3.147,1.158
				c-2.553,0.291-5.263-0.126-7.887-0.046c-4.138,0.125-8.234,0.393-12.38,0.524c-5.005,0.157-10.502,0.671-15.291,2.155
				c-3.18,0.988-5.974,2.439-9.316,2.839c-5.523,0.66-11.144,0.964-16.73,1.46c-2.906,0.256-5.816,0.607-8.717,0.882
				c-1.891,0.179-4.144,0.976-5.858,1.787c-4.634,2.194-9.861,3.676-14.811,5.045c-3.984,1.102-8.048,3.496-9.255,7.666
				c-1.669,5.768-2.445,12.129-2.166,18.122c0.024,0.53,0.237,1.3,0.125,1.812c0.505-2.314,1.43-4.005,3.757-4.281
				c2.545-0.303,4.849-0.663,7.359-1.481c5.5-1.797,10.801-4.239,16.478-5.477c7.47-1.628,14.767-3.588,22.354-4.812
				c4.356-0.702,8.706-1.457,13.074-2.07c3.301-0.464,6.304-0.921,9.453-1.938c2.138-0.689,4.165-1.461,6.362-2.025
				c3.735-0.962,7.516-2.943,11.111-3.538c4.108-0.679,8.033-1.043,12.11-2.105c3.447-0.9,7.014-1.431,10.478-2.213
				C320.366,202.249,327.443,199.42,334.295,196.351z"/>
			<path fill="#245977" d="M215.596,269.782c0.284-6.751,1.41-21.683-9.708-18.979c-2.697,0.654-6.288,2.79-9.107,1.272
				c-0.854-0.459-0.969-0.885-1.154-1.947c-0.377-2.146,0.132-4.452,1.134-6.323c1.981-3.703,4.31-6.936,3.543-11.39
				c-0.728-4.225-1.316-7.995-0.54-12.371c0.366-2.055,1.006-4.066,1.818-5.937c0.661-1.528,2.183-2.913,2.526-4.526
				c-2.985,0.442-7.426-0.711-10.209-1.919c-3.118-1.35-5.5-2.721-7.82-5.285c-5.188-5.728-1.38-13.839-5.138-19.941
				c0.023,0.883-0.466,1.713-0.694,2.544c-0.303,1.106-0.308,2.297-0.598,3.406c-0.496,1.894-0.976,3.841-1.594,5.721
				c-0.545,1.657-1.613,3.172-2.467,4.631c-0.931,1.589-0.971,2.957-1.161,4.74c-0.562,5.204-4.594,9.163-9.263,11.071
				c-2.379,0.972-4.984,1.476-7.557,1.357c-1.147-0.054-2.366-0.484-3.471-0.335c-1.448,0.196-3.028,1.085-4.463,1.475
				c-4.046,1.101-8.366,1.865-12.546,1.144c-1.338-0.23-3.27-1.354-4.62-0.927c-1.518,0.479-2.576,2.85-3.159,4.16
				c-0.829,1.869-0.595,4.135-0.504,6.085c0.098,2.091,0.473,4.465,1.454,6.446c1.189,2.392,3.823,4.995,3.827,7.815
				c0.006,3.157-3.401,5.314-5.822,6.675c-1.241,0.698-2.446,1.508-3.743,2.147c-1.271,0.623-2.871,1.027-4.028,1.835
				c-1.9,1.323-3.381,3.528-4.561,5.474c-2.004,3.311-3.29,7.058-3.976,10.925c-0.81,4.552-1.943,8.617-1.3,13.16
				c0.287,2.024,0.589,4.165,1.147,6.102c0.251,0.868,0.639,1.782,0.986,2.588c0.98,2.265,3.025,3.874,4.475,5.8
				c2.721,3.616,4.89,6.819,7.934,10.13c3.344,3.631,6.308,8.29,9.008,12.428c2.27,3.476,4.414,7.167,6.819,10.616
				c5.223,7.479,11.049,12.387,19.796,14.879c4.437,1.262,8.678,2.793,13.284,0.668c3.35-1.544,5.587-4.689,8.191-7.094
				c6.021-5.559,10.605-12.413,14.161-19.762c3.173-6.557,7.027-11.85,10.933-17.925c3.061-4.763,6.305-9.761,7.516-15.371
				C215.988,280.219,215.389,274.726,215.596,269.782z"/>
			<path fill="#245977" d="M230.274,158.708c-1.181-1.289-2.528-2.488-4.045-3.605c-2.847-2.098-6.006-4.503-9.26-5.916
				c-2.231-0.97-4.556-1.304-6.944-1.732c-4.458-0.798-9.722,0.06-13.291,2.995c-2.342,1.925-4.771,3.98-6.437,6.545
				c-0.477,0.733-5.134,8.456-4.93,8.663c-1.153-1.173-2.74-1.271-4.268-0.814c-1.941,0.576-3.302,2.899-4.369,4.468
				c-2.812,4.135-3.368,8.549-2.049,13.168c0.601,2.111,1.885,3.93,2.562,6.022c0.698,2.155,1.875,3.969,2.941,5.964
				c1.929,3.599,3.249,7.896,6.149,10.858c1.256,1.287,2.467,2.856,3.974,3.801c2.562,1.604,6.28,2.341,9.283,1.979
				c2.521-0.302,4.621-1.279,7.112-1.894c1.62-0.399,3.092-0.196,4.219-1.395c0.804-0.857,1.456-1.926,2.311-2.724
				c0.62-0.578,1.415-0.852,2.111-1.325c2.13-1.457,4.197-2.854,6.425-4.176c1.699-1.008,4.152-1.896,4.095-3.874
				c-0.01-0.396-0.487-0.284-0.337-0.929c0.105-0.465,0.69-0.725,1-1.02c0.905-0.852,1.781-1.682,2.755-2.454
				c4.32-3.422,5.36-8.608,6.278-13.765c0.477-2.685,1.045-5.062,0.437-7.728C235.006,165.453,233.119,161.812,230.274,158.708z"/>
			<path fill="#FF0000" d="M237.789,170.998c-0.006-0.158-0.014-0.316-0.021-0.477c-0.169-3.997-1.837-8.201-3.715-11.824
				c-1.917-3.697-4.78-6.852-8.264-9.134c-1.077-0.705-2.158-1.226-3.23-1.94c-1.098-0.731-2.494-1.017-3.758-1.46
				c-1.817-0.64-3.704-1.617-5.457-2.159c-4.865-1.504-10.092-2.035-15.039-3.345c-3.764-0.995-8.791-2.96-12.107-0.296
				c-1.745,1.406-3.375,3.682-4.544,5.595c-2.067,3.383-4.243,6.606-5.895,10.266c-1.156,2.56-1.848,5.159-2.636,7.833
				c-0.875,2.966-2.085,5.825-2.526,8.909c-0.517,3.608-0.393,7.323,0.537,10.855c0.268,1.017,0.333,2.097,0.631,3.103
				c0.1,0.34,0.218,0.586,0.212,0.953c-0.012,0.518-0.046,1.017,0.062,1.527c0.045,0.225,0.162,0.405,0.251,0.615
				c0.205,0.488,0.494,0.903,0.585,1.434c0.078,0.434,0.066,0.918,0.082,1.362c0.014,0.381,0.027,0.759,0.022,1.14
				c-0.007,0.491-0.003,0.979-0.077,1.466c-0.06,0.396-0.155,0.791-0.342,1.148c-0.117,0.228-0.406,0.496-0.435,0.757
				c-0.033,0.302,0.322,0.456,0.547,0.569c0.416,0.207,0.85,0.382,1.278,0.562c0.201,0.084,0.399,0.189,0.572,0.322
				c0.108,0.085,0.199,0.192,0.313,0.27c0.155,0.104,0.348,0.131,0.528,0.166c0.257,0.053,0.462,0.166,0.707,0.259
				c0.251,0.096,0.511,0.17,0.766,0.258c0.354,0.121,0.698,0.238,1.07,0.297c0.837,0.136,1.674-0.043,2.516-0.058
				c0.162-0.001,0.35-0.028,0.367-0.226c0.015-0.161-0.095-0.318-0.114-0.478c-0.041-0.344-0.24-0.652-0.353-0.976
				c-0.082-0.234-0.148-0.474-0.193-0.717c-0.15-0.798-0.258-1.613-0.399-2.418c-0.067-0.378-0.136-0.749-0.154-1.131
				c-0.024-0.487,0.029-0.988,0.066-1.476c0.164-2.021,0.733-3.98,1.086-5.974c0.517-2.911,1.215-5.942,2.112-8.751
				c0.442-1.383,0.715-2.813,1.197-4.189c1.116-3.186,1.234-6.6,3.302-9.421c1.397-1.904,4.711-2.172,4.855,0.77
				c1.117-0.965,1.799-3.14,2.893-4.388c0.323-0.367,0.662-0.721,1.027-1.047c0.302-0.271,0.634-0.516,0.913-0.812
				c0.195-0.206,0.297-0.439,0.441-0.68c0.349-0.582,1.091,0.032,1.34,0.421c0.123,0.189,0.152,0.401,0.225,0.609
				c0.223,0.625,1.229,0.524,1.737,0.459c0.659-0.083,1.312-0.304,1.978-0.342c2.763-0.161,5.182-0.024,7.894,0.463
				c4.486,0.804,8.604,2.41,12.566,4.667c2.525,1.441,4.288,3.426,5.576,5.977c0.457,0.905,0.948,1.794,1.349,2.727
				c0.396,0.922,0.723,1.902,0.737,2.916c0.009,0.609-0.031,1.254-0.112,1.86c-0.051,0.379-0.132,0.759-0.254,1.12
				c-0.139,0.412-0.264,0.831-0.395,1.247c-0.086,0.274-0.203,0.534-0.399,0.747c-0.169,0.186-0.369,0.34-0.538,0.525
				c-0.273,0.297-0.495,0.649-0.701,0.998c-0.251,0.422-0.472,0.865-0.628,1.331c-0.466,1.38-1,2.501-1.909,3.667
				c-0.936,1.202-2.283,2.31-2.81,3.775c-0.366,1.021,0.573,1.295,1.601,1.078c-0.435,0.091-0.698,2.485-0.853,2.951
				c-0.282,0.869-0.756,1.559-1.337,2.261c-1.144,1.38-2.543,2.54-3.905,3.694c-1.664,1.404-3.489,2.722-5.223,3.842
				c1.737,0.87,4.683-1.631,6.075-2.508c2.826-1.779,5.109-4.168,7.932-5.914c3.031-1.875,4.035-5.564,5.751-8.505
				c1.068-1.828,1.958-3.848,2.937-5.751c2.369-4.606,2.649-11.624-0.265-16.074c-1.557-2.377-2.92-4.365-3.924-7.057
				c-1.388-3.727-3.642-7.041-7.069-9.084c-3.674-2.188-7.491-3.864-11.834-4.025c-2.823-0.105-5.694,0.342-8.502,0.544
				c-5.229,0.377-9.005,2.171-12.684,6.03"/>
			<path d="M207.928,263.772c-0.422-4.926-1.17-9.473-3.34-13.977c-0.404-0.842-0.966-1.41-0.97-2.235
				c2.575-0.128,4.11,2.801,6.354,3.048c2.893,0.317,5.731-2.451,8.794-2.207c2.666,0.215,5.626,2.011,7.99,3.181
				c5.41,2.678,10.284,6.229,13.476,11.396c1.422,2.304,4.119,6.807,3.64,9.749c-0.48,2.939-4.281,6.378-6.232,8.514
				c-2.829,3.093-6.189,5.584-9.058,8.573c-1.99,2.076-4.552,3.453-6.303,5.717c-2.28,2.95-4.697,5.945-7.164,8.874
				c-3.406,4.05-7.123,8.598-11.176,11.991c-4.05,3.39-9.179,5.591-13.698,8.258c-4.062,2.399-8.844,4.367-13.355,5.084
				c-9.755,1.552-18.196-0.036-28.035-1.8c-16.332-2.928-25.777-13.623-33.963-27.083c-2.837-4.664-5.75-11.473-4.208-16.983
				c0.903,0.418,1.387,1.564,2.048,2.367c1.63,1.981,3.782,3.7,5.549,5.578c1.875,1.99,3.964,3.593,6.044,5.32
				c2.745,2.277,5.153,4.925,7.912,7.206c2.188,1.811,4.295,3.685,6.513,5.476c2.426,1.957,4.591,4.169,7.498,5.389
				c4.341,1.823,8.659,2.659,13.313,3.394c9.242,1.461,18.17-0.829,26.299-5.038c2.844-1.472,5.179-3.869,7.528-5.985
				c3.313-2.986,6.148-7.241,8.497-11.016c3.431-5.507,6.56-11.479,7.166-18.039C209.497,273.691,208.338,268.579,207.928,263.772z"
				/>
			<path fill="#FF0000" d="M165.611,202.23c-1.87,2.248-4.002,4.369-6.457,6.001c-4.877,3.243-10.85,3.036-16.346,4.299
				c-3.773,0.864-7.29,0.626-10.478,3.226c-2.156,1.756-4.133,4.517-4.325,7.368c-0.042,0.613-0.157,1.22-0.199,1.829
				c-0.042,0.627-0.131,1.287-0.063,1.915c0.043,0.397,0.222,0.741,0.31,1.126c0.279,1.225,0.048,2.597,0.226,3.854
				c0.15,1.06,0.629,2.194,1.056,3.182c0.426,0.984,1.244,1.456,2.062,2.091c0.765,0.59,2.23,1.52,2.336,2.572
				c0.123,1.208-1.111,2.296-2.019,2.866c-0.814,0.513-1.743,0.648-2.577,1.072c-1.24,0.631-2.281,1.738-3.421,2.532
				c-3.205,2.229-7.314,4.001-9.673,7.192c-2.053,2.784-1.772,6.947-1.64,10.187c0.134,3.201,0.789,6.68,2.364,9.521
				c1.772,3.193,3.501,6.476,5.483,9.545c1.81,2.801,3.576,6.166,6.261,8.198c4.546,3.444,9.347,5.646,14.678,7.582
				c5.532,2.006,11.743,3.69,17.687,2.938c2.702-0.345,5.568-0.275,8.188-1.088c2.279-0.708,4.623-1.811,6.78-2.818
				c2.549-1.188,5.264-2.355,7.651-3.88c2.133-1.364,3.815-3.355,5.358-5.349c2.461-3.181,4.155-6.863,6.058-10.387
				c2.038-3.768,4.148-7.688,5.647-11.7c1.237-3.308,6.452-14.57,3.233-17.722c-0.936-0.916-3.221-0.294-4.144-1.632
				c-1.784-2.588,1.924-5.687,2.805-8.202c0.735-2.099,1.37-4.287,1.461-6.523c0.103-2.456-1.063-4.906-0.653-7.334
				c0.164-0.967,0.596-1.853,1.013-2.729c0.443-0.938,0.695-1.948,1.13-2.875c0.319-0.685,2.351-9.954,1.667-10.178
				c-1.206-0.391-1.702,0.13-2.795,0.503c-0.889,0.306-2.015,0.188-2.823,0.667c-2.549,1.509-2.562,5.182-3.215,7.688
				c-0.21,0.808-0.257,1.619-0.292,2.43c-0.036,0.871-0.057,1.743-0.248,2.613c-1.036,4.698-4.011,9.781-7.258,13.274
				c-1.564,1.683-3.325,2.196-5.588,2.156c-1.465-0.023-3.403-0.026-4.634-0.896c-1.234-0.872-2.012-2.553-2.47-3.941
				c-0.974-2.967-1.798-6.635-1.925-9.739c-0.084-2.095,0.168-4.2,0.31-6.284c0.144-2.071-0.152-4.143,0.005-6.216
				c0.071-0.952,0.208-1.896,0.292-2.843c0.085-0.986,0.06-1.979-0.004-2.966c-0.037-0.561-0.085-1.122-0.133-1.68
				c-0.065-0.763-0.135-1.521-0.174-2.285c-0.024-0.496-0.004-1.036-0.158-1.516c-0.26-0.801-1.184-1.517-1.832-2.003
				c-0.764-0.574-1.687-0.881-2.607-1.1c-0.938-0.224-1.879-0.521-2.846-0.566c-0.093,0.303-0.063,0.604-0.118,0.91
				c-0.173,0.953-0.458,1.987-1.022,2.77C166.941,200.707,166.258,201.454,165.611,202.23z"/>
			<path fill="#245977" d="M129.232,187.963c1.775,2.803,3.497,5.652,5.13,8.578c1.135,2.033,2.425,4.339,4.146,5.934
				c1.734,1.604,3.285,2.887,4.44,5.077c0.967,1.833,1.845,3.757,3.15,5.404c2.833,3.573,8.254,1.856,12.141,1.26
				c3.156-0.484,6.808-0.002,9.107-2.63c2.395-2.736,2.803-6.574,3.073-10.026c0.48-6.147-3.063-9.933-6.474-14.632
				c-3.355-4.62-8.006-8.013-11.764-12.209c-4.827-5.391-10.424-10.251-15.571-15.353c-3.899-3.861-7.652-7.972-11.451-11.921
				c-2.04-2.12-3.591-4.562-5.77-6.578c-1.262-1.167-2.808-2.154-4.195-3.022c-1.924-1.204-1.847-1.429-1.537-3.666
				c0.286-2.032,0.434-4.1,0.62-6.144c0.389-4.254,0.667-8.531,0.459-12.803c-0.126-2.605-0.336-5.077-0.826-7.633
				c-0.865-4.511-1.083-9.061-1.842-13.602c-0.614-3.687-1.685-7.271-2.787-10.837c-1.003-3.248-2.49-6.523-2.079-9.979
				c0.245-2.072,0.487-4.679,1.415-6.562c0.783-1.587,2.288-2.546,3.383-3.875c1.53-1.856,3.597-4.774,3.685-7.198
				c-3.158-1.453-5.241,3.978-7.386,4.912c-0.72-2.689-0.78-5.462-2.045-7.984c-1.059-2.109-3.398-5.65-5.401-6.849
				c-1.887,1.321,2.403,6.987,1.361,9.305c-3.822,0.179-3.648-9.287-8.4-8.987c-0.625,2.482,0.297,3.859,1.715,5.935
				c1.208,1.771,2.681,3.693,1.743,5.959c-1.811,0.173-10.917-9.88-11.502-6.112c-0.275,1.766,3.361,4.037,4.447,5.212
				c1.113,1.201,3.208,3.339,2.506,5.14c-1.054-0.098-7.696-2.374-7.404-0.396c0.094,0.621,3.128,2.187,3.617,2.536
				c1.104,0.785,2.396,1.602,3.398,2.494c1.702,1.52,2.706,3.679,3.709,5.734c1.666,3.417,0.774,6.539,0.342,10.086
				c-0.492,4.038-0.813,8.168-1.263,12.245c-0.769,6.942-0.941,13.923-1.512,20.802c-0.508,6.105-0.555,12.145,0.215,18.137
				c0.484,3.762,1.063,9.008,3.479,12.053c-2.479,3.107,5.401,8.584,7.653,10.374c2.228,1.771,4.722,3.501,6.625,5.427
				c1.614,1.636,2.774,4.013,4.06,5.972C120.154,174.414,124.858,181.055,129.232,187.963z"/>
			<path fill="#FFFFFF" d="M193.979,176.152c0.387-0.147,1.186-0.056,1.6-0.014c0.629,0.062,1.385,0.17,1.924,0.469
				c0.702,0.389,1.295,0.956,1.864,1.512c0.265,0.258,0.519,0.557,0.816,0.771c0.303,0.219,0.67,0.383,0.916,0.668
				c0.286,0.33-0.093,0.781-0.374,0.981c-0.085,0.06-0.171,0.128-0.26,0.174c-0.135,0.072-0.293,0.096-0.433,0.163
				c-0.187,0.089-0.36,0.202-0.544,0.281c-0.183,0.074-0.379,0.164-0.567,0.217c-0.995,0.283-2.02-0.211-2.831-0.76
				c-0.841-0.569-1.492-1.424-2.212-2.104c-0.299-0.283-0.571-0.593-0.887-0.864c-0.219-0.188-0.353-0.43-0.532-0.638
				c-0.078-0.09-0.17-0.176-0.258-0.259c-0.041-0.036-0.217-0.139-0.23-0.185c-0.053-0.188,0.304-0.181,0.407-0.189
				c0.262-0.02,0.535-0.111,0.793-0.17"/>
			<path fill="#FFFFFF" d="M213.759,186.374c0.395-0.108,0.805-0.257,1.219-0.183c0.208,0.039,0.414,0.075,0.614,0.141
				c0.544,0.179,1.048,0.418,1.558,0.671c0.408,0.203,0.779,0.421,1.134,0.706c0.355,0.281,0.639,0.58,0.921,0.929
				c0.158,0.194,0.291,0.364,0.48,0.538c0.124,0.114,0.22,0.229,0.356,0.334c0.116,0.087,0.149,0.178,0.305,0.207
				c0.014,0.14-0.121,0.272-0.197,0.378c-0.104,0.147-0.187,0.308-0.273,0.466c-0.084,0.149-0.214,0.274-0.338,0.393
				c-0.265,0.253-0.566,0.463-0.89,0.63c-1.033,0.53-2.307,0.627-3.386,0.175c-0.536-0.225-1.019-0.574-1.448-0.96
				c-0.387-0.35-0.756-0.7-1.003-1.167c-0.139-0.271-0.277-0.542-0.352-0.833c-0.076-0.301-0.173-0.584-0.232-0.892
				c-0.06-0.324-0.215-0.638-0.158-0.966c0.056-0.317,0.379-0.47,0.643-0.598c0.136-0.067,0.28-0.163,0.433-0.192
				c0.154-0.027,0.337-0.011,0.493,0.006c0.621,0.063,1.242,0.102,1.819,0.368c0.125,0.059,0.237,0.141,0.364,0.199
				c0.209,0.093,0.419,0.182,0.625,0.28c0.326,0.154,0.663,0.281,0.952,0.502c0.255,0.199,0.513,0.418,0.727,0.659
				c0.129,0.147,0.274,0.214,0.435,0.32c0.071,0.046,0.125,0.109,0.189,0.161c0.067,0.054,0.153,0.087,0.226,0.141
				c0.168,0.124,0.295,0.294,0.457,0.426c0.123,0.099,0.257,0.178,0.396,0.256c0.103,0.06,0.21,0.137,0.32,0.189"/>
			<path d="M212.061,187.053c0.083-0.437,0.384-0.779,0.756-1.003c0.204-0.12,0.424-0.209,0.649-0.274
				c0.053-0.017,0.108-0.033,0.16-0.044c0.066-0.01,0.084,0.005,0.14,0.011c0.095,0.006,0.181-0.026,0.275-0.032
				c0.202-0.011,0.406,0.003,0.609-0.013c0.27-0.017,0.541-0.014,0.808-0.041c0.116-0.013,0.233-0.025,0.349-0.047
				c0.081-0.017,0.176-0.065,0.255-0.058c-0.005,0.076-0.126,0.178-0.176,0.231c-0.064,0.071-0.201,0.136-0.223,0.23
				c0.287,0.077,0.484,0.357,0.76,0.487c0.28,0.132,0.608,0.092,0.902,0.025c0.129-0.03,0.25-0.045,0.131,0.102
				c-0.049,0.064-0.19,0.199-0.164,0.294c0.029,0.099,0.138,0.09,0.214,0.092c0.246,0.002,0.49,0.008,0.724,0.086
				c0.27,0.088,0.557,0.104,0.83,0.186c-0.205,0.11-0.344,0.214-0.568,0.248c-0.056,0.309,0.286,0.494,0.524,0.59
				c0.16,0.064,0.327,0.111,0.496,0.15c0.114,0.024,0.295,0.019,0.394,0.075c-0.069,0.088-0.542,0.143-0.421,0.312
				c0.053,0.072,0.249,0.123,0.33,0.168c0.146,0.079,0.281,0.121,0.449,0.151c0.102,0.018,0.199,0.027,0.302,0.034
				c0.074,0.003,0.17-0.019,0.238-0.002c-0.164,0.156-0.509,0.161-0.711,0.119c0.222,0.133,0.471,0.21,0.717,0.28
				c0.19,0.056,0.407,0.142,0.608,0.092c-0.134,0.106-0.395,0.171-0.556,0.17c-0.194-0.001-0.375,0.013-0.571-0.007
				c-0.182-0.018-0.356-0.038-0.489-0.165c-0.173-0.163-0.287-0.379-0.458-0.549c-0.407-0.405-0.896-0.767-1.419-1.02
				c-0.719-0.348-1.413-0.743-2.152-1.058c-0.599-0.257-1.291-0.421-1.948-0.384c-0.246,0.014-0.479,0.073-0.721,0.109
				c-0.147,0.023-0.289,0.057-0.426,0.116c-0.137,0.062-0.296,0.174-0.416,0.261c-0.142,0.103-0.182,0.187-0.109,0.346
				c0.062,0.132,0.154,0.244,0.231,0.365c0.235,0.368,0.485,0.738,0.76,1.08c0.435,0.548,0.997,0.91,1.605,1.232
				c0.715,0.381,1.478,0.552,2.257,0.74c0.272,0.064,0.545,0.106,0.821,0.14c0.24,0.028,0.496-0.053,0.725-0.13
				c0.292-0.103,0.588-0.196,0.867-0.329c0.14-0.066,0.275-0.143,0.402-0.236c0.107-0.078,0.195-0.188,0.312-0.247
				c-0.002,0.114-0.025,0.232-0.056,0.343c-0.248,0.917-1.199,1.37-2.05,1.569c-0.493,0.117-1.002,0.166-1.509,0.162
				c-0.196-0.003-0.427,0.014-0.62-0.037c-0.161-0.045-0.309-0.127-0.473-0.172c-0.138-0.035-0.282-0.082-0.41-0.141
				c-0.36-0.162-0.729-0.316-1.011-0.595c-0.301-0.3-0.577-0.626-0.873-0.928c-0.289-0.291-0.519-0.606-0.68-0.986
				c-0.101-0.232-0.167-0.488-0.236-0.732c-0.059-0.214-0.082-0.434-0.106-0.653c-0.021-0.206-0.088-0.435-0.062-0.64
				c0.014-0.102,0.023-0.26,0.074-0.35c0.049-0.08,0.156-0.104,0.244-0.138"/>
			<path d="M195.14,175.371c-0.028,0.25,0.175,0.439,0.331,0.656c-0.457-0.328-1.146-0.49-1.277-1.101
				c0.056,0.423,0.304,0.767,0.494,1.132c-0.601,0.053-1.311-0.583-1.471-1.111c-0.102,0.441,0.125,0.791,0.444,1.127
				c-0.493,0.049-0.828-0.631-0.987-1.022c-0.043,0.309-0.205,0.611,0.018,0.85c-0.439-0.12-1.226,0.304-0.583,0.622
				c0.273,0.134,1.083-0.29,1.39-0.336c0.99-0.146,2.274,0.271,3.157,0.646c1.724,0.736,3.359,1.652,4.535,3.269
				c-0.64-0.034-1.437,1.09-2.219,1.174c-1.086,0.114-2.013-0.555-2.847-1.014c-0.851-0.468-1.512-1.094-2.128-1.827
				c-0.242-0.288-0.563-0.507-0.741-0.837c-0.183-0.347-0.55-0.604-0.871-0.811c-0.119-0.079-0.296-0.135-0.396-0.227
				c0.134,0.166,0.342,0.272,0.49,0.431c0.26,0.276,0.45,0.627,0.632,0.962c0.309,0.561,0.62,1.167,1.055,1.643
				c0.396,0.435,0.895,0.763,1.3,1.182c0.419,0.433,0.835,0.892,1.427,1.084c0.503,0.163,1.037,0.086,1.548,0.021
				c0.52-0.066,1.023-0.352,1.477-0.602c0.25-0.136,0.467-0.285,0.663-0.495c0.203-0.216,0.387-0.41,0.542-0.667
				c0.174-0.293,0.041-0.706-0.088-0.998c-0.165-0.38-0.283-0.773-0.496-1.13c-0.168-0.28-0.319-0.57-0.491-0.848
				c-0.129-0.213-0.17-0.436-0.247-0.661c-0.029,0.202-0.076,0.379-0.056,0.582c0.017,0.181,0.097,0.39,0.087,0.562
				c-0.313-0.014-0.572-0.314-0.76-0.534c-0.192-0.227-0.322-0.471-0.456-0.733c-0.094-0.187-0.176-0.467-0.333-0.612
				c0.066,0.264,0.075,0.548,0.116,0.817c0.024,0.151,0.008,0.264-0.185,0.203c-0.174-0.056-0.319-0.262-0.456-0.376
				c-0.347-0.296-0.902-0.507-1.352-0.565c-0.176-0.022-0.332-0.037-0.5-0.103C195.833,175.691,195.135,175.413,195.14,175.371z"/>
			<path d="M195.81,178.943c0.311-0.087,0.518-0.317,0.461-0.796c-0.043-0.358-0.385-0.823-0.667-1.014
				c-0.173-0.115-0.536-0.275-0.838-0.333c-0.112-0.021-0.217-0.028-0.299-0.013c-0.412,0.079-0.664,0.802-0.684,1.162
				c-0.042,0.797,1.293,1.214,1.922,0.962c0.757-0.305,1.07-1.587,0.328-2.062c-0.963-0.616-2.11-0.175-2.452,0.901
				c-0.222,0.695-0.4,1.376,0.196,1.954c0.694,0.67,1.642,0.608,2.453,0.239c1.009-0.46,1.849-1.389,1.593-2.599
				c-0.152-0.729-0.962-1.546-1.768-1.297"/>
			<path d="M215.035,190.267c0.56-0.174,0.981-0.691,1.165-1.381c0.01-0.03,0.016-0.062,0.021-0.089
				c0.155-0.682-0.329-1.404-0.808-1.837c-0.525-0.477-1.114-0.662-1.776-0.378c-0.353,0.148-0.56,0.637-0.65,0.977
				c-0.231,0.9-0.026,2.201,0.913,2.611c0.849,0.371,1.519,0.023,2.118-0.578c0.428-0.432,0.762-0.855,0.9-1.454
				c0.189-0.83-0.108-1.478-0.968-1.674c-0.867-0.197-2.106,0.014-2.607,0.877c-0.683,1.183-0.76,3.505,0.918,3.79"/>
			<path fill="#FFFFFF" d="M204.604,172.299c0.302,0.54,0.878,3.981,1.662,2.484c0.465-0.887-0.508-2.915-0.944-3.69
				c-0.76-1.358-1.662-2.967-3.083-3.721c-1.353-0.718-2.874-1.001-4.332-0.852c-1.017,0.104-2.804,0.413-3.361,1.413
				C198.301,168.455,202.543,168.624,204.604,172.299z"/>
			<path fill="#245977" d="M178.14,340.68c4.185,1.409,9.641-4.234,12.154,1.527c0.642,1.475,0.284,5.25,2.651,5.434
				c2.602,0.201,2.226-3.999,2.752-5.884c0.32-0.138,0.608-0.087,0.861,0.153c-0.601,2.186,1.537,2.957,2.939,1.421
				c1.276-1.398-0.09-3.745,0.041-5.155c1.413,0.372,1.901,1.137,3.308,1.486c3.671-4.205-3.03-4.003-5.284-5.239
				c-2.334-1.28-3.413-5.466-5.918-6.317c-5.363-1.828-12.478,8.58-14.472,12.293c1.092,0.345,2.089,0.378,3.133,0.135"/>
			<path fill="#FF0000" d="M203.351,202.629c0.003-0.03,0.011-0.064,0.021-0.094c-0.348,0.216-0.584,0.414-0.996,0.479
				c-0.582,0.094-1.128,0.189-1.705,0.341c-1.123,0.295-2.752,0.375-3.865-0.006c-0.441-0.15-0.839-0.412-1.279-0.571
				c-0.563-0.207-1.135-0.416-1.562-0.857c-0.43-0.447-0.786-0.978-1.146-1.48c-0.425-0.6-1.182-1.905-1.018-2.651
				c-0.05,0.229,0.916,1.189,1.074,1.393c0.314,0.4,0.569,0.788,0.978,1.084c0.972,0.707,1.972,1.303,3.071,1.793
				c1.149,0.511,2.209,0.78,3.424,0.803c0.824,0.014,2.566,0.217,3.196-0.328c-0.263-0.279-0.556-0.498-0.875-0.693"/>
			<path d="M209.738,176.988c0.533,1.066-1.121,3.438-1.598,4.42c-0.888,1.819-1.926,3.592-2.745,5.45
				c-0.698,1.587-1.668,3.03-2.43,4.576c-0.519,1.053-0.665,2.345-2.082,2.458c-0.826,0.068-2.142,0.052-2.939-0.214
				c2.305,0.422,4.366,2.511,6.771,2.616c-0.207-1.138-0.913-1.714-0.435-2.93c0.42-1.064,1.261-2.02,1.75-3.069
				c1.268-2.716,2.444-5.47,3.841-8.116c0.757-1.438,2.631-3.541,2.811-5.166c0.111-1.013-0.716-1.584-1.484-2.23
				c-1.544,1.201-1.756,4.154-2.598,5.758"/>
			<path fill="#FFFFFF" d="M214.129,180.705c0.123-0.002,0.648-0.462,1.015-0.664c0.577-0.318,1.354-0.399,2.013-0.532
				c1.052-0.212,2.198-0.227,3.254,0.004c2.217,0.483,3.847,3.948,3.375,6.076c-0.918-1.596-1.681-3.091-3.438-3.764
				c-1.323-0.506-4.825-1.78-5.653-0.304"/>
		</g>
		<path fill="#FF0000" d="M193.988,199.072c-0.431-0.599-0.673-1.078-0.902-1.774c1.723,0.689,3.593,1.173,5.365,1.861
			c1.083,0.42,1.907,0.992,2.847,1.649c0.553,0.386,1.147,0.765,1.758,1.056c-0.132,0.108-0.373,0.093-0.56,0.128
			c-0.294,0.06-0.561,0.202-0.839,0.275c-0.67,0.174-1.644-0.047-2.326-0.232c-1.363-0.376-2.473-1.312-3.653-2.056
			c-0.51-0.321-1.036-0.613-1.532-0.95c-0.221-0.149-0.756-0.468-0.75-0.729"/>
	</g>
	<g>
		<path fill="#245977" d="M147.674,162.54c-0.076,0.121-0.105-6.715,0.636-9.519c1.203-4.553,3.248-8.06,6.382-11.695
			c3.913-4.542,9.278-6.7,15.229-6.551c2.563,0.064,6.642,0.118,8.812,1.622c0.887,0.613,1.28,1.658,2.045,2.39
			c1.219,1.17,2.932,1.615,4.25,2.656c1.352,1.066,1.795,2.421,2.342,4.024c1.394,4.092,1.848,8.54,2.593,12.771
			c0.689,3.918,1.291,7.39,0.972,11.366c-0.202,2.538-0.731,5.028-1.169,7.531c-0.362,2.082-0.883,3.016-1.812,4.851
			c-1.599,3.155-3.473,6.22-5.781,8.911c-4.071,4.745-9.961,8.224-16.134,5.167c-13.562-6.723-20.054-23.297-17.624-37.672"/>
		<path d="M190.436,175.298c0.129-0.893,0.3-1.778,0.57-2.646c0.714-2.274,0.713-4.808,0.936-7.161
			c0.24-2.541-0.131-4.547-0.407-7.026c-0.329-2.956-0.703-5.881-1.063-8.791c-0.031-0.252-0.063-0.506-0.094-0.758
			c-0.247-2.004,0.139-4.171-0.624-6.093c-0.915-2.303-3.027-4.46-4.861-6.061c-1.461-1.274-2.534-2.939-4.144-4.026
			c-1.715-1.154-3.739-1.742-5.597-2.605c-2.158-1-3.547-1.651-5.981-1.643c-2.161,0.007-4.604,0.455-6.822,0.211
			c-5.141-0.568-7.974,1.339-12.046,4.318c-3.33,2.435-6.707,5.99-8.71,9.63c-1.681,3.055-2.729,6.603-2.685,10.106
			c0.1,7.713,3.438,15.938,6.414,22.932c1.622,3.805,4.938,7.005,7.595,10.039c-0.136-0.932-0.879-2.17-1.344-3.083
			c-1.481-2.898-3.221-6.14-4.115-9.275c-0.249-0.879-0.631-1.48,0.319-1.872c1.593-0.657,2.704-0.62,2.271-2.453
			c-0.417-1.766-0.229-3.59,0.039-5.381c0.084-0.566,0.281-2.179,0.628-2.608c0.472-0.581,1.857-0.232,2.498-0.022
			c1.361,0.444,2.649,1.436,3.943,2.074c1.626,0.806,3.364,1.408,5.076,2.008c1.472,0.517,2.8,0.887,4.338,1.162
			c0.748,0.135,2.118,0.639,2.797,0.345c-0.073-1.433-4.004-4.638-1.992-5.628c0.468-0.228,1.189-0.14,1.7-0.235
			c0.814-0.151,1.481-0.521,2.232-0.75c2.248-0.684,5.079-0.888,7.401-0.711c1.249,0.097,2.354,0.597,3.575,0.815
			c1.485,0.268,2.969,0.415,4.307,1.073c0.923,0.456,1.422,0.981,2.044,1.807c1.016,1.35,0.495,3.034,0.518,4.569
			c0.042,2.668-0.666,4.916-1.226,7.43c-0.638,2.857-1.108,5.815-1.624,8.701c0.18-0.926,0.307-1.812,0.946-2.566
			c0.497,0.445,0.316,2.417,0.354,3.087c0.047,0.853-0.232,2.214,0.379,2.853c0.583-2.413,1.404-4.69,1.852-7.14
			C190.113,178.382,190.214,176.826,190.436,175.298z"/>
		<path d="M165.898,179.811c-0.093,0.101-0.777-1.302-0.812-1.422c-0.494,0.586-0.878,1.277-1.121,2.027
			c-0.51-0.346-0.125-1.645-0.809-1.977c-0.441,0.335-2.131,2.028-2.567,1.554c-0.228-0.25-0.179-1.23-0.223-1.558
			c-0.055-0.408-0.147-0.798-0.196-1.197c-0.72-0.348-1.737,0.635-2.542,0.272c-0.022-0.534,0.564-1.323,0.94-1.665
			c0.457-0.41,0.679-0.096,1.188,0.15c0.973,0.469,2.015,0.811,3.061,1.067c1.441,0.353,4.607,1.067,5.475-0.697
			c0.087,1.007,0.596,2.139,0.839,3.132c-0.925-0.033-1.389-0.884-2.011-1.413C166.723,178.621,166.385,179.291,165.898,179.811z"/>
		<path d="M184.113,173.705c-0.118,1.248,0.024,1.983,0.326,3.148c-0.356-0.279-0.892-0.414-1.208-0.732
			c-0.254,0.871-0.343,1.816-0.596,2.688c-0.647-0.604-0.107-1.604-0.94-2.114c-0.129,1.038-0.657,2.464-1.529,3.027
			c-0.163-0.629-0.273-1.445-0.659-1.975c-0.237,0.351-0.295,0.826-0.55,1.202c-0.317,0.464-0.731,0.866-1.143,1.242
			c0.136-0.656,0.233-1.814,0.071-2.475c-0.555,0.502-1.205,1.132-1.913,1.474c0.146-0.723,0.562-1.477,0.845-2.168
			c-0.355,0.22-1.508,0.723-1.901,0.563c-0.028-0.601,1.337-1.532,1.863-1.63c0.734-0.132,1.569,0.348,2.333,0.331
			c1.032-0.024,2.059-0.365,2.96-0.854C182.563,175.172,184.051,174.355,184.113,173.705z"/>
		<path fill="#FF0000" d="M167.086,189.463c2.237,0.401,4.195,1.402,6.483,0.697c0.638-0.195,1.359-0.264,1.943-0.604
			c0.42-0.244,1.45-0.732,1.421-1.336c-0.46-0.205-0.993,0.223-1.404,0.407c-0.614,0.275-1.227,0.444-1.864,0.587
			c-1.15,0.262-2.062,0.644-3.273,0.424c-0.457-0.082-1.365-0.254-1.661-0.53c0.368,0.089,0.726,0.005,1.083,0.01
			c0.375,0.007,0.751,0.077,1.154,0.12c0.998,0.108,1.774-0.157,2.721-0.369c1.214-0.27,2.417-0.625,3.562-1.113
			c-0.657-0.137-1.308,0.155-1.958,0.051c-0.522-0.085-0.827-0.454-1.276-0.67c-0.489-0.232-0.57-0.1-0.938,0.247
			c-0.512,0.481-0.695,0.461-1.272,0.092c-0.523-0.335-0.593-0.431-1.189-0.129c-1.2,0.602-2.358,1.355-3.458,2.049"/>
		<path d="M158.754,172.275c1.213-0.704,2.323-1.081,4.393-0.989c1.77,0.081,3.995-0.25,5.73-0.013
			c0.358,3.621-8.697-0.195-10.095,2.433"/>
		<path d="M182.508,170.515c-0.589,0.097-1.165,0.257-1.753,0.359c-0.528,0.091-1.106,0.047-1.607,0.229
			c-1.023,0.372-1.938,0.723-3.042,0.311c0.078-0.253,0.257-0.486,0.387-0.74c1.551,0.012,2.824-1.004,4.27-1.414
			c0.626-0.179,1.312-0.225,1.956-0.139c0.398,0.053,1.632,0.316,1.677,0.87C184.447,170.638,182.909,170.449,182.508,170.515z"/>
		<path d="M146.512,176.79c0.114,1.021,0.712,2.095,1.057,3.049c0.494,1.356,0.687,2.604,0.925,4.032
			c0.316,1.9,1.249,3.845,2.041,5.576c0.613-0.805,0.535-2.641,0.827-3.741c1.173,0.562,2.188,2.614,2.93,3.683
			c0.281,0.407,0.561,0.978,0.921,1.313c0.468,0.437,1.079,0.603,1.621,0.942c0.685-1.984-0.984-3.296-2.177-4.613
			c-1.442-1.594-3.553-4.197-4.036-6.293"/>
		<path fill="#245977" d="M219.486,253.147c0.888,4.336,3.481,7.992,5.455,11.899c2.313,4.582,4.391,9.285,6.277,14.062
			c4.943,12.511,8.123,25.757,14.074,37.909c2.18,4.45,5.958,7.894,7.92,12.371c1.626,3.72,3.532,6.397,6.708,8.979
			c2.464,2.002,4.864,4.709,7.955,5.752c2.59,0.872,7.55,0.028,9.272,2.665c2.68,4.099-3.761,1.035-4.613,1.665
			c-3.133,2.312,7.302,3.225,3.517,5.062c-1.281,0.623-2.713-2.146-3.901-0.845c-1.25,1.366,1.509,2.195,2.235,2.492
			c0.315,3.156-2.683,0.025-3.559,0.085c-2.406,0.169-1.058,1.859,0.343,2.492c2.877,1.299,5.904,0.935,4.68,5.236
			c-1.26,4.426-5.575,4.346-9.188,2.968c-4.796-1.826-6.495-5.82-10.147-9.139c-2.749-2.494-5.792-4.481-9.296-6.172
			c-5.316-2.56-5.353-5.925-6.251-11.438c-0.688-4.211-2.825-8.085-3.021-12.228c-0.173-3.709-3.105-7.244-5.135-10.156
			c-2.373-3.404-5.347-6.184-8.12-9.212c-5.477-5.989-9.773-12.68-12.399-20.393c-1.246-3.66-2.231-7.411-3.594-11.021
			c-1.118-2.958-2.259-6.205-2.484-9.23c-0.214-2.871-0.142-5.324-1.151-8.191c-0.78-2.221-1.192-4.512-1.327-6.845
			c-0.157-2.729,0.968-4.64,2.245-6.992c0.667-1.226,1.374-2.757,1.954-4.008c0.254-0.547,0.777-2.092,1.266-2.442
			c1.811-1.305,5.774,4.485,6.539,5.667C217.507,246.871,218.835,249.955,219.486,253.147z"/>
		<path fill="#245977" d="M101.277,273.181c1.651-9.399,5.3-18.399,10.4-26.452c2.262-3.571,4.891-6.891,7.294-10.353
			c1.412-2.03,3.075-5.874,6.197-4.867c1.496,0.481,2.813,1.45,3.432,2.933c0.596,1.431,0.543,2.966,0.991,4.419
			c0.271,0.888,0.11,1.706,0.123,2.608c0.015,0.892-0.118,1.752-0.277,2.646c-0.352,2.008-0.68,4.018-1.267,5.953
			c-0.264,0.864-0.404,1.786-0.68,2.656c-0.292,0.921-0.668,1.881-0.937,2.84c-0.536,1.911-1.152,3.804-1.524,5.781
			c-0.268,1.424-0.509,2.853-0.801,4.27c-0.15,0.731-0.309,1.459-0.499,2.18c-0.153,0.582-0.478,1.08-0.712,1.642
			c-1.14,2.729-2.335,5.433-3.523,8.141c-0.681,1.546-1.359,3.091-2.027,4.644c-1.555,3.615-3.698,6.886-5.796,10.166
			c-4.083,6.377-6.793,13.398-8.367,20.861c-0.559,2.652-1.861,5.333-1.999,8.041c-0.144,2.835,0.768,5.551-0.508,8.303
			c-1.088,2.354-3.424,4.79-5.925,5.647c-2.666,0.913-5.814,0.337-8.548,1.251c-1.415,0.475-2.606,1.402-3.937,1.907
			c-3.568,1.353-14.842,10.419-17.393,3.581c-1.912-5.119,3.135-4.895,5.514-6.912c-1.707-1.265-2.902-1.252-4.843-1.417
			c-0.045-2.519,2.583-1.062,3.226-2.047c1.289-1.976-1.941-1.201-2.989-1.517c-0.449-3.276,3.779,0.081,3.991-2.77
			c-1.221-0.325-2.531-0.468-3.75-0.793c-0.454-3.349,3.164-1.62,5.003-1.437c2.141,0.213,4.321-0.338,6.328-1.181
			c4.193-1.752,10.206-3.636,12.419-7.906c2.872-5.541,4.831-12.835,5.907-18.957C97.208,289.033,99.852,281.297,101.277,273.181z"
			/>
		<path d="M109.968,236.469c-2.843,2.454-6.088,5.096-8.228,8.217c-1.678,2.451-2.451,6.16-3.521,8.964
			c-2.879,7.547-5.167,15.462-5.287,23.596c-0.03,2.151,0.057,3.564,0.88,5.509c0.543,1.278,1.712,2.751,2.018,4.033
			c0.918,3.849-2.33,6.945-2.461,10.565c2.384,0.883,4.537,2.6,6.749,3.923c1.419,0.851,5.624,5.03,6.96,2.691
			c0.55-0.959,0.066-2.884,0.501-4.038c0.616-1.635,1.957-2.853,2.489-4.538c3.318,0.228,4.279-0.725,5.741-3.315
			c1.843-3.266,4.421-5.834,5.83-9.412c0.93-2.358,1.25-4.684,1.83-7.175c0.632-2.723,1.523-5.448,2.006-8.209
			c0.63-3.609,1.634-7.213,1.95-10.875c0.331-3.836,1.006-7.594,2.773-11.036c0.792-1.549,2.136-2.553,3.184-3.877
			c1.451-1.833-0.062-2.903-1.462-4.147c-3.607-3.212-3.7-8.627-4-13.111c-0.02-0.294-0.029-0.551,0.003-0.842
			c0.021-0.193,0.09-0.373,0.05-0.557c0.057,0.268-2.164,2.549-2.515,2.825c-1.173,0.921-2.652,1.418-3.954,2.124
			c-2.111,1.144-4.127,2.428-5.981,4C113.695,233.332,111.814,234.877,109.968,236.469z"/>
		<g>
			<path d="M211.262,294.977c0.615,0.922,1.251,1.825,1.902,2.71c2.223,3.011,5.048,4.934,6.757,8.387
				c2.205,4.464,4.751,9.305,9.818,10.952c1.576,0.512,3.095,0.16,4.195,1.601c0.926,1.214,1.423,3.067,2.154,4.361
				c0.218,0.385,0.944,1.912,1.299,2.116c0.599,0.347,1.446-0.108,2.221-0.364c1.902-0.625,3.502-1.76,5.434-2.297
				c1.636-0.457,3.434-1.023,2.708-3.247c-0.802-2.453-2.827-4.395-3.593-6.801c-0.643-2.023,1.351-3.16,1.544-5.299
				c0.206-2.283-0.424-4.563-1.054-6.819c-1.404-5.056-3.211-9.828-4.399-14.941c-1.306-5.623-2.766-10.901-4.321-16.444
				c-0.834-2.976-2.458-5.227-3.979-7.871c-1.175-2.047-2.556-4.013-4.058-5.833c-0.527-0.639-1.181-1.099-1.625-1.796
				c-0.583-0.911-0.988-2.002-1.446-2.98c-1.909-4.049-3.747-8.227-6.61-11.712c-1.294-1.576-2.753-3.12-4.569-3.993
				c-2.362-1.138-5.038,2.484-5.787,4.406c-1.118,2.855-1.729,6.042-2.159,9.062c-0.216,1.538-0.19,3.019-0.467,4.561
				c-0.289,1.615-0.731,3.174-1.131,4.742c-0.246,0.961-0.488,1.953-0.826,2.875c-0.361,0.984-0.816,1.957-1.079,2.965
				c-0.285,1.101-0.51,2.22-0.688,3.35c-0.555,3.537,1.774,7.498,2.543,10.947c0.792,3.549,1.468,7.159,3.135,10.426
				C208.392,290.413,209.769,292.742,211.262,294.977z"/>
			<g>
				<path fill="#FFFFFF" d="M213.103,238.667c1.074-0.642,2.193-1.167,3.151-2.041c-0.474-0.537-1.089-1.003-1.621-1.539
					c-0.646-0.653-1.384-1.091-2.337-0.97c-4.008,0.51-3.814,5.027-5.158,7.766c1.845-0.41,3.655-1.65,5.208-2.731
					C212.593,238.979,212.846,238.819,213.103,238.667z"/>
				<path fill="#FFFFFF" d="M204.054,257.631c3.223-0.549,6.81-1.841,7.742-2.182c3.037-1.113,6.047-2.381,8.886-3.938
					c0.884-0.485,3.163-1.233,3.694-2.148c0.17-0.299-0.177-1.169-0.296-1.474c-0.313-0.802-0.928-1.614-1.38-2.352
					c-0.543-0.891-1.211-1.662-1.652-2.613c-0.209-0.453-0.273-1.061-0.859-1.103c-0.786-0.055-2.672,2.165-3.098,2.713
					c-0.902,1.155-2.274,1.955-3.522,2.735c-1.3,0.811-2.658,1.548-4.084,2.119c-0.295,0.117-4.008,1.137-3.995,0.963
					c-0.057,0.787-0.12,1.578-0.264,2.383c-0.289,1.615-0.731,3.174-1.131,4.742C204.08,257.528,204.067,257.578,204.054,257.631z"
					/>
				<path fill="#FFFFFF" d="M229.737,257.637c-0.954-1.326-1.971-2.619-3.014-3.889c-1.28,5.303-7.24,9.129-12.223,10.572
					c-4.34,1.261-8.543,1.039-12.445-0.42c-0.218,0.913-0.407,1.834-0.553,2.766c-0.24,1.526,0.058,3.131,0.536,4.739
					C212.096,277.947,227.149,268.744,229.737,257.637z"/>
				<path fill="#FFFFFF" d="M208.554,290.538c10.423,4.961,23.525-2.998,29.796-12.808c-0.615-2.326-1.252-4.644-1.908-6.99
					c-3.062,3.938-7.338,6.98-12.071,8.832c-3.832,1.499-7.929,2.391-12.049,2.543c-2.474,0.091-5.325,0.07-7.525-1.146
					c0.567,2.429,1.242,4.829,2.384,7.069C207.611,288.88,208.083,289.709,208.554,290.538z"/>
				<path fill="#FFFFFF" d="M218.913,304.383c8.816,0.412,18.248-2.987,24.143-9.385c-0.942-2.99-1.896-5.961-2.646-9.044
					c-2.322,3.065-5.254,5.727-8.16,7.771c-5.289,3.722-12.171,6.726-18.585,4.595C215.392,300.469,217.377,302.132,218.913,304.383
					z"/>
				<path fill="#FFFFFF" d="M232.332,317.57c2.416-1.513,5.016-2.66,7.655-3.731c1.339-0.696,2.711-1.332,4.092-1.92
					c-0.219-1.732,1.443-2.86,1.621-4.823c0.071-0.804,0.036-1.606-0.06-2.406c-1.719,1.864-3.677,3.503-5.833,4.816
					c-3.845,2.342-10.248,5.053-15.231,4.062c1.392,1.531,3.058,2.772,5.164,3.458C230.646,317.32,231.531,317.336,232.332,317.57z"
					/>
			</g>
		</g>
		<path fill="#FFFFFF" d="M131.92,237.344c-2.024-1.803-2.941-4.299-3.41-6.935c-0.971-1.757-1.785-3.609-2.25-5.528
			c-0.368,0.378-0.687,0.688-0.802,0.778c-1.173,0.921-2.652,1.418-3.954,2.124c-0.027,0.014-0.057,0.031-0.086,0.048
			c1.389,6.005,5.472,11.601,10.64,15.13c0.453-0.474,0.91-0.947,1.323-1.47C134.833,239.658,133.319,238.588,131.92,237.344z"/>
		<path fill="#FFFFFF" d="M119.768,242.61c-2.763-1.979-6.325-4.876-7.113-8.418c-0.897,0.752-1.795,1.508-2.687,2.276
			c-1.038,0.896-2.129,1.818-3.201,2.777c3.534,7.914,12.45,12.301,21.049,13.901c0.282-1.802,0.707-3.567,1.321-5.278
			C125.804,246.482,122.599,244.636,119.768,242.61z"/>
		<path fill="#FFFFFF" d="M100.467,247.13c-0.881,2.12-1.493,4.542-2.248,6.52c-0.231,0.604-0.453,1.214-0.674,1.822
			c8.398,6.104,17.381,12.117,27.485,13.939c0.169-0.708,0.32-1.417,0.445-2.132c0.313-1.795,0.718-3.59,1.088-5.391
			C116.704,260.518,108.555,253.502,100.467,247.13z"/>
		<path fill="#FFFFFF" d="M112,275.559c-3.473-1.506-6.796-3.333-9.92-5.47c-2.523-1.728-4.818-3.879-7.326-5.657
			c-0.617,2.446-1.109,4.921-1.422,7.421c2.21,1.193,4.189,2.853,6.26,4.259c2.73,1.852,5.504,3.686,8.446,5.188
			c3.972,2.033,8.042,3.404,12.304,3.97c0.489-0.821,0.934-1.679,1.298-2.605c0.554-1.405,0.889-2.802,1.193-4.224
			C119.128,278.077,115.469,277.062,112,275.559z"/>
		<path fill="#FFFFFF" d="M109.192,290.227c-3.007-1.715-5.951-3.559-8.777-5.56c-2.444-1.732-4.81-3.556-7.41-5.013
			c0.101,1.019,0.329,1.97,0.807,3.1c0.317,0.748,0.848,1.563,1.295,2.365c3.852,1.987,7.063,5.075,10.929,7.088
			c2.104,1.095,4.264,2.074,6.426,3.048c1.168-0.278,1.908-0.93,2.653-2.039C113.098,292.315,111.119,291.323,109.192,290.227z"/>
		<path fill="#245977" d="M142.331,220.086c1.852,5.137,5.386,10.411,10.236,12.829c1.092,0.544,2.543,1.067,3.84,1.119
			c1.25,0.049,2.629-0.05,3.802,0.587c1.304,0.71,5.693,2.938,4.831,4.844c-0.108-0.01-0.372-0.082-0.47-0.061
			c-0.985,0.222-2.939-1.385-3.791-0.482c-0.766,0.811,0.817,2.529,1.475,3.058c2.289,1.834,5.372,2.33,7.04,4.88
			c0.978,1.489,0.557,2.25-1.188,1.933c-1.486-0.269-2.802-0.629-4.146-1.288c-0.842-0.417-3.684-2.672-4.565-1.627
			c-0.823,0.976,1.529,2.734,2.09,3.201c1.485,1.242,3.147,2.332,4.367,3.859c1.236,1.549,1.07,3.22-1.037,1.997
			c-1.551-0.9-2.853-2.319-4.063-3.591c-0.907-0.948-2.245-2.926-3.672-3.012c-1.74-0.106-0.238,2.143,0.303,2.952
			c0.873,1.308,2.139,2.38,3.255,3.445c0.949,0.909,1.806,2.019,2.335,3.206c0.83,1.858-0.948,2.056-2.097,0.882
			c-1.351-1.383-2.696-3.481-3.716-5.091c-0.501-0.791-1.849-4.2-3.009-4.077c-2.23,0.239,1.432,6.712,1.833,7.873
			c0.267,0.776,1.716,3.666,1.016,4.439c-0.813,0.902-2.903-3.102-3.333-3.774c-1.101-1.729-2.211-3.477-2.811-5.423
			c-0.424-1.377-0.616-2.616-1.418-3.825c-0.962-1.454-2.3-2.544-3.458-3.836c-1.466-1.639-2.814-3.39-4.233-5.063
			c-3.832-4.521-6.751-10.214-9.166-15.617c-1.483-3.322-2.819-6.781-3.319-10.375c-0.234-1.678-0.29-3.203-0.007-4.866
			c0.858-5.061,0.395-10.98,2.751-15.674c1.932-3.851,7.089,2.426,7.589,4.728c0.5,2.304,0.564,4.734,0.631,7.022
			c0.135,4.681,0.397,9.898,1.985,14.484C142.249,219.857,142.291,219.973,142.331,220.086z"/>
		<path d="M134.788,198.229c-0.543-0.193-1.146-0.424-1.731-0.333c-0.636,0.096-1.131,0.4-1.621,0.792
			c-0.332,0.266-0.367,0.435-0.466,0.809c-0.063,0.241-0.215,0.467-0.301,0.71c-0.1,0.284-0.138,0.596-0.191,0.897
			c-0.058,0.328-0.189,0.602-0.247,0.925c-0.105,0.589-0.265,1.158-0.249,1.76c-0.141-0.136-0.278-0.06-0.445-0.071
			c-0.238-0.021-0.48-0.137-0.708-0.195c-0.429-0.11-0.885-0.199-1.303-0.348c-0.671-0.235-1.62-0.332-2.143-0.836
			c-2.329-2.235-1.003-7.462-0.729-10.191c0.178-1.769,0.508-3.578,0.99-5.289c0.115-0.414,0.144-0.911,0.365-1.288
			c0.167-0.282,0.214-0.521,0.301-0.857c0.081-0.305,0.163-0.592,0.28-0.878c0.1,0.247,0.339,0.414,0.518,0.626
			c0.19,0.229,0.33,0.496,0.502,0.728c0.513,0.684,0.997,1.359,1.494,2.046c0.256,0.353,0.567,0.65,0.832,0.995
			c0.238,0.312,0.456,0.646,0.701,0.945c0.51,0.628,0.888,1.332,1.383,1.979c0.66,0.864,1.23,1.841,1.809,2.772
			c0.635,1.021,1.408,1.946,2.093,2.932c0.391,0.561,0.789,1.112,1.188,1.666c0.813,1.125,1.701,2.193,2.521,3.315
			c0.907,1.239,1.755,2.523,2.538,3.845c0.428,0.725,0.802,1.482,1.247,2.189c0.4,0.634,0.795,1.265,1.148,1.954
			c0.191,0.378,0.453,0.726,0.605,1.12c0.066,0.171,0.408,0.822,0.341,0.98c-0.114,0.26-1.026,0.347-1.275,0.424
			c-0.467,0.141-0.933,0.283-1.402,0.413c-0.783,0.218-1.884,0.451-2.188-0.546c-0.244-0.805-0.158-1.801-0.25-2.64
			c-0.108-1.004-0.058-2.011-0.122-3.016c-0.064-1.009-0.34-1.989-0.467-2.983c-0.111-0.873-0.673-1.846-1.269-2.491
			c-0.546-0.59-1.222-1.032-1.847-1.532C136.04,199.039,135.596,198.515,134.788,198.229z"/>
		<path d="M203.468,232.443c-0.2-1.021-0.113-1.939,0.423-2.841c0.354-0.593,0.958-0.803,1.577-1.035
			c0.969-0.363,1.934-0.622,2.937-0.888c1.574-0.416,3.234-0.659,4.843-0.916c1.24-0.195,4.568-2.275,5.323-0.863
			c0.275,0.512,0.054,2.822,0.066,3.466c0.028,1.361-0.686,8.496-3.044,8.177c-0.489-0.068-0.995-0.188-1.474-0.301
			c-0.496-0.116-0.869-0.344-1.358-0.371c0.097-0.322,0.132-0.835,0.088-1.155c-0.079-0.581-0.36-1.14-0.658-1.635
			c-0.239-0.393-0.38-0.819-0.699-1.171c-0.556-0.609-1.346-1.061-2.043-1.488c-0.564-0.346-1.145-0.559-1.784-0.709
			c-0.496-0.117-1.043-0.292-1.459,0.065c-0.309,0.268-0.488,0.678-0.7,1.021c-0.454,0.733-0.987,1.468-1.567,2.095
			C203.651,233.494,203.562,232.915,203.468,232.443z"/>
		<path fill="#245977" d="M205.088,231.678c-1.061,1.121-1.285,2.881-2.142,4.221c-1.228,1.921-2.302,3.908-3.357,5.944
			c-0.573,1.106-1.135,2.102-1.801,3.138c-1.15,1.793-2.02,3.874-3.021,5.787c-2.383,4.553-5.418,8.691-8.08,13.087
			c-1.661,2.744-3.499,5.375-6.591,6.681c-3.521,1.487-4.647-2.242-7.121-3.93c-1.527-1.041-1.854,0.596-1.314,1.767
			c0.448,0.964,2.94,3.447,2.386,4.409c-1.21,0.081-2.462-0.033-3.572-0.631c-1.291-0.696-2.609-1.703-4.079-2.16
			c-1.619-0.502-3.345-0.782-5-1.169c-0.672-0.156-1.554-0.658-1.779,0.267c-0.173,0.725,0.664,1.354,1.136,1.753
			c0.979,0.828,2.163,1.755,3.305,2.354c1.061,0.556,4.19,0.287,4.149,2.151c-0.042,1.804-3.242,0.953-4.268,0.709
			c-1.958-0.464-4.05-0.522-6.065-0.4c-1.288,0.077-3.917-0.103-3.523,1.929c0.259,1.339,2.357,1.443,3.45,1.459
			c1.753,0.024,3.482,0.073,5.228,0.207c0.847,0.063,1.678,0.151,2.531,0.25c0.42,0.049,1.803,0.006,2.107,0.316
			c1.17,1.188-2.079,2.036-2.752,2.302c-1.915,0.755-3.582,1.401-5.306,2.584c-1.057,0.727-2.839,2.479-0.678,3.292
			c1.529,0.576,3.946-0.746,5.383-1.253c1.098-0.386,4.21-2.429,5.343-1.343c0.611,0.584-0.042,1.707-0.206,2.413
			c-0.235,1.015-0.412,2.075-0.186,3.11c0.383,1.757,1.896,0.678,2.684-0.382c0.837-1.125,1.44-2.698,1.95-3.935
			c0.823-1.995,2.695-2.729,4.582-3.564c1.155-0.514,2.265-1.131,3.403-1.628c2.69-1.172,4.644-3.351,6.893-5.13
			c3.085-2.441,6.098-5.406,8.563-8.426c2.829-3.467,4.681-7.079,6.504-11.121c1.217-2.697,2.306-5.544,3.502-8.271
			c1.23-2.806,2.892-5.339,4.025-8.242c0.778-1.996,3.35-5.574,2.904-7.739c-0.381-1.879-3.252-2.296-4.802-2.268
			c-1.321,0.026-2.901,0.279-3.984,1.098C205.345,231.425,205.211,231.546,205.088,231.678z"/>
	</g>
</g>
</svg>
