<?xml version="1.0" encoding="utf-8"?>
<!-- Generator: Adobe Illustrator 16.0.4, SVG Export Plug-In . SVG Version: 6.00 Build 0)  -->
<!DOCTYPE svg PUBLIC "-//W3C//DTD SVG 1.1//EN" "http://www.w3.org/Graphics/SVG/1.1/DTD/svg11.dtd">
<svg version="1.1" id="Ebene_1" xmlns="http://www.w3.org/2000/svg" xmlns:xlink="http://www.w3.org/1999/xlink" x="0px" y="0px"
	 width="283.46px" height="299.828px" viewBox="0 0 283.46 299.828" enable-background="new 0 0 283.46 299.828"
	 xml:space="preserve">
<g>
	<path fill="#DBDADA" d="M169.599,254.549c0.148,0.1,0.253,0.377,0.285,0.566c0.055,0.322,0.126,0.566,0.268,0.834
		c0.346,0.658,0.773,1.244,1.088,1.926c0.406,0.875,1.061,1.545,1.538,2.363c0.433,0.744,0.813,1.523,1.171,2.324
		c0.443,0.996,0.857,2.021,1.309,3.01c0.252,0.555,0.42,1.174,0.645,1.746c0.211,0.535,0.443,1.037,0.686,1.551
		c0.303,0.639,0.668,1.238,0.965,1.881c0.225,0.484,0.434,0.98,0.684,1.447c0.564,1.055,1.019,2.191,1.553,3.264
		c0.335,0.674,0.628,1.383,0.907,2.096c0.094,0.24,0.085,0.508,0.141,0.764c0.034,0.152,0.12,0.262,0.182,0.395
		c0.048,0.109,0.048,0.346,0.175,0.377c0.027-0.104,0.168-0.283,0.227-0.387c0.15-0.264,0.379-0.545,0.576-0.789
		c0.301-0.375,0.582-0.777,0.893-1.152c0.637-0.768,1.227-1.57,1.79-2.385c1.411-2.043,3.031-3.961,4.298-6.062
		c0.151-0.25,0.318-0.514,0.449-0.773c0.113-0.225,0.135-0.322,0.32-0.52c0.629-0.662,1.252-1.322,1.902-1.959
		c0.549-0.539,1.037-1.133,1.6-1.658c0.533-0.496,1.02-1.072,1.521-1.602c0.479-0.508,1.252-1.305,1.408-1.941
		c0.157-0.641-0.697-0.518-1.1-0.566c-0.549-0.068-1.092-0.143-1.637-0.234c-1.055-0.176-2.064-0.424-3.135-0.576
		c-1.072-0.152-2.107-0.379-3.18-0.523c-1.049-0.143-2.088-0.318-3.078-0.58c-0.947-0.25-1.974-0.369-2.984-0.494
		c-0.846-0.104-1.703-0.217-2.51-0.398c-0.628-0.141-1.311-0.189-1.93-0.359c-0.607-0.166-1.309-0.223-1.881-0.459
		c-0.575-0.236-1.193-0.361-1.832-0.477c-0.35-0.064-0.714-0.086-1.059-0.15c-0.297-0.055-0.557-0.174-0.854-0.225
		c-0.247-0.043-0.516-0.053-0.771-0.068c-0.183-0.012-0.341-0.096-0.526-0.096c-0.02-0.02-0.016-0.043,0.015-0.07"/>
	<path fill="#999999" d="M185.653,268.986c0.191,0.254,0.424,0.475,0.63,0.717c0.157,0.188,0.37,0.34,0.489,0.559
		c0.059,0.107,0.111,0.186,0.189,0.273c0.104,0.115,0.268,0.248,0.322,0.398c0.156-0.072,0.344-0.086,0.504-0.133
		c0.205-0.061,0.377-0.139,0.586-0.17c0.416-0.061,0.863-0.182,1.296-0.24c0.487-0.066,0.952-0.26,1.436-0.35
		c0.076-0.014,0.168-0.055,0.237-0.062c0.088-0.01,0.176,0.025,0.25-0.023c0.044-0.029,0.244-0.217,0.253-0.258
		c0.023-0.109-0.166-0.188-0.239-0.23c-0.232-0.141-0.443-0.316-0.68-0.453c-0.217-0.123-0.429-0.215-0.642-0.342
		c-0.269-0.16-0.51-0.352-0.753-0.557c-0.255-0.213-0.535-0.377-0.812-0.564c-0.324-0.217-0.638-0.432-0.939-0.684
		c-0.43-0.355-0.934-0.65-1.416-0.928c-0.231-0.133-0.441-0.301-0.66-0.438c-0.387-0.244-0.737-0.541-1.099-0.822
		c-0.498-0.389-0.983-0.777-1.507-1.133c-0.316-0.217-0.604-0.473-0.924-0.68c-0.207-0.135-0.412-0.244-0.609-0.395
		c-0.514-0.391-1.031-0.807-1.568-1.166c-0.292-0.197-0.572-0.43-0.91-0.541c-0.259-0.084-0.475-0.158-0.701-0.318
		c-0.648-0.461-1.275-0.953-1.933-1.402c-0.227-0.154-0.468-0.287-0.679-0.463c-0.236-0.199-0.451-0.393-0.715-0.555
		c-0.304-0.189-0.592-0.393-0.892-0.582c-0.328-0.211-0.643-0.424-0.972-0.633c-0.592-0.373-1.203-0.707-1.775-1.117
		c-0.273-0.195-0.544-0.381-0.828-0.539c-0.279-0.154-0.533-0.352-0.809-0.508c0.317,0.422,0.703,0.809,1.059,1.203
		c0.414,0.463,0.857,0.924,1.302,1.354c0.248,0.238,0.519,0.455,0.745,0.719c0.312,0.361,0.633,0.689,1.023,0.973
		c0.188,0.137,0.35,0.262,0.513,0.416c0.13,0.123,0.241,0.256,0.372,0.377c0.166,0.152,0.35,0.291,0.525,0.43
		c0.752,0.594,1.545,1.162,2.258,1.805c1.806,1.627,3.811,3.039,5.573,4.711C183.97,267.408,184.974,268.082,185.653,268.986z"/>
	<path fill="#999999" d="M175.597,259.205c-0.059-0.053-0.119-0.107-0.18-0.16c-0.588-0.521-1.159-1.062-1.784-1.537
		c-0.601-0.457-1.164-0.916-1.804-1.326c-0.742-0.479-1.463-0.945-2.139-1.518c0.289,0.246,0.761,0.373,1.107,0.525
		c0.713,0.316,1.393,0.742,2.062,1.127c0.937,0.537,1.924,0.969,2.897,1.436c0.931,0.445,1.926,0.768,2.847,1.23
		c0.442,0.223,0.867,0.469,1.318,0.668c0.175,0.078,0.355,0.152,0.535,0.221c0.463,0.18,0.869,0.348,1.313,0.609
		c0.399,0.234,0.85,0.4,1.274,0.598c0.514,0.238,0.992,0.531,1.5,0.781c0.402,0.199,0.783,0.424,1.174,0.641
		c0.451,0.25,0.956,0.441,1.393,0.709c1.012,0.617,2.055,1.203,3.102,1.766c0.312,0.166,0.667,0.285,0.926,0.516
		c0.174,0.156,0.467,0.324,0.574,0.539c0.105,0.205-0.037,0.609-0.026,0.855c0.013,0.322,0.038,0.666,0.114,0.953
		c0.085,0.314,0.164,0.633,0.213,0.967c0.02,0.129,0.027,0.287,0.016,0.432c-0.016,0.174-0.135,0.24-0.198,0.396
		c-0.021,0.053-0.061,0.35-0.038,0.365c-0.316-0.236-0.553-0.545-0.824-0.826c-0.386-0.4-0.869-0.707-1.334-1.018
		c-1.018-0.676-2.098-1.27-3.104-1.959c-0.892-0.613-1.787-1.344-2.736-1.889c-1.053-0.602-2.133-1.182-3.155-1.809
		c-0.431-0.264-0.864-0.523-1.298-0.785c-0.359-0.215-0.709-0.467-1.121-0.572c-0.305-0.078-0.555-0.148-0.805-0.354
		c-0.369-0.303-0.753-0.605-1.109-0.924C176.061,259.643,175.833,259.424,175.597,259.205z"/>
	<path fill="#4D4D4D" d="M169.54,254.531c0.295,0.186,0.545,0.455,0.818,0.658c0.311,0.232,0.613,0.463,0.926,0.686
		c0.326,0.232,0.697,0.402,1.024,0.629c0.572,0.4,1.161,0.771,1.732,1.164c0.28,0.193,0.527,0.432,0.808,0.627
		c0.274,0.189,0.564,0.371,0.819,0.586c0.46,0.389,0.974,0.721,1.432,1.119c0.278,0.24,0.593,0.434,0.882,0.658
		c0.304,0.232,0.584,0.52,0.914,0.709c0.695,0.4,1.283,0.963,1.98,1.361c0.312,0.18,0.584,0.439,0.889,0.633
		c0.307,0.197,0.617,0.385,0.934,0.568c0.652,0.377,1.248,0.844,1.881,1.252c0.617,0.4,1.219,0.826,1.844,1.209
		c0.551,0.338,1.035,0.768,1.582,1.102c0.24,0.148,0.473,0.332,0.699,0.498c0.254,0.186,0.537,0.334,0.795,0.52
		c0.29,0.209,0.58,0.455,0.888,0.637c0.256,0.15,0.53,0.287,0.76,0.482c0.138,0.117,0.357,0.381,0.562,0.352
		c-0.112-0.129-0.279-0.217-0.406-0.334c-0.147-0.137-0.311-0.26-0.471-0.385c-0.352-0.275-0.744-0.482-1.068-0.785
		c-0.387-0.363-0.796-0.684-1.242-0.984c-0.51-0.346-0.951-0.762-1.459-1.104c-0.293-0.197-0.576-0.406-0.878-0.613
		c-0.366-0.252-0.759-0.459-1.119-0.717c-0.247-0.178-0.512-0.334-0.764-0.508c-0.214-0.146-0.401-0.33-0.624-0.465
		c-0.455-0.279-0.933-0.533-1.391-0.807c-0.791-0.475-1.598-0.986-2.343-1.527c-0.304-0.221-0.614-0.42-0.934-0.615
		c-0.358-0.219-0.656-0.508-0.993-0.76c-0.703-0.527-1.385-1.055-2.095-1.566c-0.683-0.49-1.431-0.91-2.142-1.35
		c-0.336-0.205-0.669-0.389-0.994-0.611c-0.316-0.219-0.609-0.449-0.939-0.643c-0.367-0.215-0.68-0.457-1.008-0.725
		c-0.182-0.15-0.358-0.305-0.539-0.457c-0.119-0.1-0.234-0.209-0.367-0.287c-0.115-0.068-0.266-0.123-0.29-0.275"/>
</g>
<g>
	<path fill="#999999" d="M118.535,103.634c-0.159,0.128-0.07,0.673-0.051,0.818c0.042,0.33,0.074,0.645,0.257,0.95
		c0.19,0.316,0.155,0.657,0.231,0.991c0.082,0.358,0.22,0.712,0.346,1.065c0.23,0.644,0.309,1.325,0.536,1.967
		c0.085,0.24,0.148,0.502,0.146,0.758c0,0.104,0.053,0.296-0.048,0.373c-0.137,0.103-0.304,0.008-0.443-0.028
		c-0.311-0.081-0.631-0.073-0.976-0.103c-0.319-0.027-0.643,0.013-0.963-0.019c-0.157-0.016-0.26-0.079-0.4-0.107
		c-0.201-0.04-0.483,0.002-0.689,0.02c-0.378,0.033-0.822,0.093-1.223,0.063c-1.203-0.089-2.417-0.297-3.621-0.421
		c-1.8-0.188-3.612-0.309-5.428-0.408c-1.056-0.057-2.111-0.194-3.167-0.231c-0.398-0.013-0.819,0.16-1.23,0.195
		c-0.473,0.041-0.95,0.036-1.425,0.043c-0.483,0.007-0.952,0.097-1.429,0.104c-0.468,0.007-0.951-0.081-1.419-0.037
		c-0.154,0.015-0.795,0.121-0.825-0.061c0.2-0.04,0.378-0.137,0.581-0.188c0.22-0.057,0.46-0.062,0.682-0.096
		c0.676-0.106,1.316-0.392,1.967-0.583c0.655-0.193,1.335-0.351,1.976-0.579c0.319-0.114,0.679-0.232,1.028-0.29
		c0.214-0.036,0.435-0.024,0.648-0.06c0.728-0.12,1.447-0.343,2.153-0.515c1.453-0.354,2.902-0.715,4.338-1.101
		c0.807-0.216,1.667-0.346,2.477-0.559c0.93-0.244,1.869-0.489,2.766-0.784c0.385-0.127,0.781-0.227,1.167-0.354
		c0.318-0.105,0.639-0.217,0.963-0.311c0.363-0.103,0.713-0.221,1.061-0.347c-0.064-0.005-0.08,0.019-0.131,0.037"/>
	<path fill="#4D4D4D" d="M115.326,108.487c-0.836,0.113-1.657,0.279-2.47,0.457c-0.414,0.09-0.835,0.174-1.243,0.276
		c-0.164,0.041-0.208,0.099-0.34,0.162c-0.126,0.061-0.295,0.066-0.434,0.104c-0.297,0.082-0.594,0.149-0.908,0.191
		c-0.186,0.025-1.429,0.088-1.4,0.296c0.14,0.014,0.288-0.007,0.43,0.004c0.337,0.026,0.69,0.109,1.017,0.175
		c0.372,0.073,0.719,0.166,1.05,0.302c0.173,0.071,0.341,0.169,0.54,0.199c0.275,0.041,0.607,0,0.883-0.023
		c0.585-0.049,1.167-0.142,1.76-0.114c0.958,0.045,1.948,0.122,2.899,0.217c0.327,0.033,0.659-0.012,0.988,0.004
		c0.246,0.012,0.476,0.035,0.73,0.035c0.272,0,0.508-0.005,0.771-0.043c0.196-0.029,0.462-0.029,0.602-0.146
		c-0.282-0.119-0.427-0.302-0.653-0.459c-0.225-0.157-0.474-0.29-0.681-0.455c-0.176-0.14-0.358-0.275-0.536-0.414
		c-0.123-0.096-0.212-0.21-0.333-0.317c-0.271-0.243-0.628-0.426-0.927-0.65c-0.073-0.055-0.144-0.129-0.244-0.13
		c-0.057,0-0.229,0.086-0.292,0.104C116.161,108.372,115.729,108.433,115.326,108.487z"/>
	<path fill="#D6D6D6" d="M118.829,104.768c0.005,0.149,0.02,0.308-0.012,0.453c-0.059,0.272-0.559,0.295-0.868,0.37
		c-0.453,0.112-0.894,0.216-1.355,0.312c-1.243,0.256-2.51,0.42-3.747,0.668c-0.631,0.127-1.293,0.248-1.93,0.337
		c-0.34,0.048-0.691,0.008-1.028,0.054c-0.213,0.028-0.396,0.115-0.606,0.155c-0.724,0.137-1.491,0.18-2.224,0.301
		c-1.193,0.197-2.383,0.418-3.554,0.672c-1.032,0.224-2.042,0.536-3.102,0.69c-0.431,0.062-0.851,0.155-1.279,0.223
		c-0.385,0.062-0.734,0.184-1.118,0.25c-0.79,0.136-1.567,0.309-2.349,0.465c-0.239,0.048-0.481,0.143-0.733,0.148
		c-0.153,0.003-0.928-0.187-0.997-0.139c0.142-0.098,0.495-0.157,0.688-0.19c0.292-0.05,0.575-0.097,0.832-0.171
		c0.363-0.104,0.73-0.205,1.088-0.318c0.604-0.19,1.17-0.442,1.773-0.631c0.388-0.122,0.77-0.275,1.145-0.413
		c0.356-0.131,0.72-0.265,1.066-0.403c0.405-0.163,0.782-0.356,1.18-0.521c0.368-0.152,0.74-0.28,1.105-0.441
		c0.445-0.197,0.889-0.395,1.334-0.591c0.467-0.206,0.948-0.39,1.422-0.589c0.814-0.342,1.549-0.767,2.361-1.108
		c0.562-0.236,1.152-0.484,1.671-0.763c0.376-0.202,0.8-0.343,1.205-0.515c0.364-0.155,0.754-0.291,1.126-0.437
		c0.436-0.17,0.795-0.401,1.216-0.581c0.373-0.16,0.788-0.302,1.135-0.491c0.297-0.16,0.565-0.346,0.854-0.518
		c0.597-0.355,1.316-0.635,1.976-0.924c0.367-0.161,0.705-0.357,1.06-0.531c0.099-0.048,1.054-0.435,1.046-0.471
		c0.043,0.191,0.045,0.453,0.011,0.645c-0.053,0.299-0.031,0.617-0.088,0.922c-0.051,0.274-0.056,0.586-0.06,0.86
		c-0.004,0.277-0.049,0.539-0.049,0.822c0,0.529-0.148,1.038-0.147,1.565c0.002,0.261-0.048,0.513-0.048,0.775
		C118.828,104.729,118.829,104.748,118.829,104.768z"/>
	<path fill="#D6D6D6" d="M113.065,113.253c0.318-0.444,0.698-0.877,1.004-1.33c0.388-0.572,0.756-1.163,1.216-1.71
		c0.375-0.446,0.709-0.902,1.092-1.341c0.112-0.129,0.256-0.23,0.388-0.351c0.116-0.107,0.192-0.229,0.3-0.329
		c-0.189-0.022-0.39,0.004-0.583-0.006c-0.366-0.021-0.779-0.086-1.169-0.112c-0.567-0.038-1.121-0.061-1.692-0.061
		c-0.544,0-1.132-0.042-1.672-0.001c-0.748,0.055-1.511,0.087-2.251,0.175c-0.781,0.092-1.578,0.161-2.362,0.232
		c-1.832,0.167-3.649,0.414-5.492,0.551c-1.24,0.093-2.479,0.249-3.718,0.362c-0.588,0.053-1.177,0.098-1.766,0.145
		c-0.244,0.019-0.456,0.05-0.684,0.095c-0.236,0.047-0.482,0.019-0.721,0.054c-0.112,0.016-0.193,0.046-0.298,0.07
		c-0.177,0.04-0.336,0.043-0.52,0.04c0.359,0.209,0.899,0.257,1.347,0.372c0.662,0.169,1.305,0.383,1.955,0.551
		c0.89,0.23,1.781,0.451,2.677,0.683c0.422,0.109,0.854,0.197,1.279,0.301c1.044,0.257,2.123,0.479,3.194,0.677
		c1.165,0.216,2.316,0.491,3.439,0.797c0.859,0.234,1.754,0.403,2.619,0.628c0.794,0.207,1.704,0.256,2.458,0.505
		c0.02-0.089-0.01-0.183,0.009-0.272c0.023-0.112,0.122-0.258,0.196-0.364c0.098-0.141,0.24-0.265,0.333-0.409
		c0.174-0.271,0.157-0.559,0.156-0.848"/>
</g>
<g>
	<path fill="#999999" d="M203.139,157.396c-0.004,0.251-0.19,0.668-0.271,0.906c-0.18,0.527-0.367,1.075-0.57,1.595
		c-0.368,0.936-0.775,1.944-1.282,2.795c-0.368,0.619-0.716,1.266-1.067,1.893c-0.205,0.365-0.332,0.787-0.506,1.156
		c-0.125,0.268-0.359,0.562-0.429,0.851c-0.204-0.528-0.341-1.145-0.462-1.733c-0.164-0.797-0.547-1.628-0.875-2.342
		c-0.354-0.771-0.626-1.564-0.949-2.348c-0.259-0.625-0.566-1.121-0.951-1.641c-0.814-1.099-1.874-1.906-2.859-2.793
		c-0.875-0.789-1.695-1.598-2.53-2.455c-0.817-0.84-1.638-1.714-2.5-2.474c-0.552-0.486-1.089-0.917-1.677-1.329
		c-0.621-0.435-1.266-0.794-1.889-1.22c-0.706-0.482-1.441-0.89-2.133-1.405c-0.279-0.209-0.67-0.612-0.99-0.677
		c0.151-0.154,0.57,0.134,0.732,0.214c0.422,0.208,0.83,0.443,1.25,0.652c0.738,0.367,1.475,0.759,2.222,1.052
		c0.907,0.356,1.771,0.895,2.634,1.37c0.816,0.449,1.66,0.886,2.442,1.402c1.179,0.776,2.353,1.599,3.603,2.223
		c2,0.998,4.057,1.909,6.033,2.911c0.559,0.283,1.151,0.497,1.702,0.822c0.233,0.139,0.462,0.302,0.69,0.45
		c0.15,0.097,0.421,0.34,0.596,0.337"/>
	<path fill="#4D4D4D" d="M199.283,158.414c-0.098,0.132,0.025,0.558,0.037,0.735c0.029,0.397,0,0.842-0.016,1.239
		c-0.031,0.814,0.004,1.62-0.051,2.435c-0.048,0.705-0.039,1.454-0.013,2.154c0.013,0.335,0.05,0.646,0.058,0.974
		c0.006,0.232,0.111,0.66,0.02,0.856c-0.32-0.507-0.791-1.011-1.202-1.441c-0.485-0.508-0.946-1.067-1.405-1.604
		c-0.807-0.946-1.672-1.822-2.508-2.734c-0.098-0.105-0.461-0.352-0.375-0.538c0.052-0.108,0.743-0.28,0.841-0.328
		c0.544-0.271,1.083-0.452,1.641-0.669c0.969-0.377,1.929-0.865,2.911-1.161c0.064-0.019,0.121-0.016,0.186-0.044
		c-0.092-0.004-0.121-0.059-0.201-0.105"/>
	<path fill="#D6D6D6" d="M199.205,158.182c-0.238-0.01-0.429-0.313-0.623-0.453c-0.384-0.278-0.77-0.447-1.174-0.673
		c-0.682-0.384-1.348-0.804-2.014-1.222c-0.643-0.402-1.324-0.713-1.965-1.102c-0.744-0.451-1.404-1.115-2.133-1.613
		c-0.525-0.359-1.096-0.654-1.615-1.021c-0.596-0.422-1.129-0.97-1.709-1.446c-1.162-0.955-2.408-1.737-3.584-2.671
		c-0.482-0.383-0.984-0.751-1.494-1.061c-0.486-0.295-0.959-0.646-1.414-1.005c-0.404-0.32-0.884-0.445-1.281-0.789
		c-0.218-0.188-0.621-0.622-0.92-0.564c-0.045,0.284,0.152,0.531,0.264,0.763c0.15,0.313,0.271,0.676,0.387,1.02
		c0.312,0.913,0.678,1.896,1.107,2.742c0.387,0.764,0.736,1.575,1.141,2.329c0.361,0.671,0.754,1.324,1.086,2.018
		c0.586,1.221,1.039,2.536,1.695,3.7c0.439,0.781,0.86,1.569,1.284,2.347c0.197,0.362,0.334,0.762,0.534,1.115
		c0.217,0.383,0.455,0.783,0.649,1.191c0.134,0.277,0.261,0.594,0.363,0.885c0.112,0.32,0.171,0.291,0.469,0.152
		c0.575-0.269,1.148-0.539,1.743-0.742c0.697-0.239,1.406-0.471,2.088-0.754c0.785-0.324,1.58-0.508,2.376-0.799
		c0.569-0.209,1.134-0.416,1.701-0.623c0.382-0.139,0.797-0.226,1.159-0.454c0.333-0.212,0.581-0.548,0.947-0.681
		c0.232-0.086,0.518-0.082,0.697-0.263"/>
	<path fill="#D6D6D6" d="M179.699,144.84c0.102,0.183,0.343,0.205,0.553,0.241c0.283,0.047,0.516,0.162,0.796,0.209
		c0.606,0.101,1.171,0.274,1.776,0.377c1.639,0.281,3.146,1.162,4.74,1.691c1.738,0.579,3.518,1.092,5.219,1.785
		c0.934,0.381,1.93,0.644,2.895,0.931c0.982,0.293,1.97,0.66,2.924,1.049c0.608,0.248,1.22,0.489,1.831,0.713
		c0.806,0.294,1.567,0.698,2.378,0.977c1.271,0.439,2.461,1.057,3.689,1.599c0.83,0.366,1.778,0.65,2.533,1.16
		c0.37,0.25,0.743,0.504,1.117,0.745c0.225,0.144,0.476,0.233,0.703,0.373c0.121,0.075,0.44,0.22,0.479,0.342
		c-0.261,0.002-0.531-0.076-0.789-0.121c-0.346-0.06-0.623-0.016-0.971,0.032c-0.404,0.057-0.82,0.073-1.223,0.176
		c-0.316,0.08-0.619,0.222-0.93,0.222c-0.787,0-1.602,0.157-2.395,0.283c-0.57,0.091-1.178,0.337-1.74,0.307
		c-0.246-0.014-0.402-0.145-0.611-0.251c-0.24-0.12-0.512-0.245-0.77-0.368c-0.605-0.292-1.188-0.708-1.795-1.041
		c-0.526-0.288-1.057-0.466-1.577-0.761c-0.493-0.279-0.984-0.593-1.499-0.841c-0.684-0.329-1.373-0.657-2.025-1.061
		c-0.545-0.335-1.115-0.689-1.683-0.963c-1.085-0.525-2.158-1.056-3.207-1.734c-1.094-0.708-2.196-1.443-3.353-2.016
		c-1.079-0.536-2.163-1.177-3.17-1.856c-0.577-0.387-1.234-0.759-1.819-1.114c-0.313-0.19-0.606-0.436-0.915-0.592
		c-0.263-0.132-0.588-0.347-0.875-0.384c-0.01-0.044-0.004-0.088,0.013-0.133"/>
</g>
<g>
	<path fill="#DBDADA" d="M179.332,56.992c0.045,0.012,0.115,0.002,0.191-0.01c-0.022-0.005-0.043-0.012-0.061-0.021
		C179.408,56.98,179.362,56.994,179.332,56.992z"/>
	<path fill="#999999" d="M221.506,47.196c-0.863,0.286-1.785,0.479-2.691,0.564c-0.617,0.058-1.355,0.295-2.043,0.458
		c-1.262,0.298-2.576,0.691-3.859,1.021c-1.4,0.36-2.773,0.431-4.393,1.18c-1.574,0.729-2.506,0.509-3.846,0.837
		c-0.352,0.086-0.721,0.25-0.991,0.217c-0.239-0.029-0.421-0.004-0.765,0.083c-0.645,0.164-1.229,0.216-1.896,0.416
		c-0.657,0.197-1.302,0.38-1.936,0.532c-1.435,0.344-2.945,0.727-4.213,0.827c-0.63,0.049-1.374,0.284-2.059,0.417
		c-0.897,0.174-1.709,0.235-2.592,0.384c-0.334,0.056-0.748,0.178-1.116,0.283c-0.812,0.233-1.62,0.583-2.394,0.734
		c-0.547,0.107-1.096,0.193-1.674,0.344c-0.625,0.164-1.065,0.125-1.652,0.257c-0.104,0.023-0.201,0.041-0.299,0.058
		c-0.162,0.074-0.325,0.148-0.491,0.227c-0.49,0.23-0.979,0.456-1.472,0.693c-0.217,0.104-0.426,0.222-0.645,0.32
		c0.246,0.065,0.646-0.043,0.916-0.043c0.229,0,0.455,0.018,0.684,0.034c0.721,0.051,1.443,0.022,2.162,0.1
		c0.436,0.047,0.861,0.114,1.295,0.174c0.576,0.08,1.173,0.097,1.754,0.148c0.549,0.049,1.101,0.02,1.646,0.074
		c0.531,0.052,1.195,0.06,1.723,0c0.398-0.045,0.781-0.061,1.192-0.061c0.365,0,0.712-0.061,1.075-0.058
		c0.781,0.007,1.553-0.107,2.322-0.176c1.193-0.107,2.381-0.173,3.585-0.173c0.472,0,0.935-0.045,1.399-0.058
		c0.434-0.011,0.871,0.023,1.303-0.013c1.781-0.148,3.536-0.323,5.305-0.64c1.082-0.194,2.184-0.295,3.275-0.492
		c1.104-0.199,2.223-0.368,3.332-0.523c0.76-0.106,1.525-0.289,2.291-0.308c0.658-0.016,1.316,0.01,1.969-0.082
		c0.465-0.065,0.789-0.269,1.211-0.442c0.6-0.247,1.295-0.331,1.928-0.464c0.685-0.145,1.37-0.282,2.057-0.42
		c0.364-0.073,0.674-0.196,1.013-0.362c0.136-0.065,0.625-0.207,0.601-0.367c-0.643-0.094-1.273-0.062-1.895-0.197
		c-0.27-0.059-0.597-0.111-0.885-0.103c-0.334,0.009-0.631,0.099-0.965,0.12c0.115-0.216,0.061-0.453,0.091-0.704
		c0.028-0.232,0.125-0.502,0.161-0.749c0.105-0.698,0.111-1.399,0.203-2.096c0.048-0.359,0.08-0.767,0.202-1.109
		c0.048-0.137,0.31-0.637,0.134-0.747"/>
	<path fill="#DBDADA" d="M216.223,43.234c-0.762-0.258-1.504-0.665-2.285-0.854c-0.41-0.1-0.879-0.171-1.257-0.366
		c-0.149-0.077-0.249-0.199-0.362-0.325c-0.465,0.22-0.924,0.492-1.375,0.758c-0.386,0.226-0.808,0.385-1.211,0.567
		c-0.309,0.14-0.551,0.366-0.885,0.442c-0.44,0.101-0.842,0.341-1.25,0.544c-0.905,0.449-1.808,0.903-2.697,1.382
		c-0.808,0.437-1.63,0.869-2.459,1.266c-0.938,0.45-1.896,0.8-2.883,1.129c-1.676,0.559-3.307,1.193-4.936,1.871
		c-1.57,0.654-3.09,1.451-4.628,2.179c-0.655,0.311-1.381,0.525-2.013,0.886c-0.576,0.329-1.182,0.632-1.779,0.929
		c-0.463,0.23-0.922,0.443-1.375,0.694c-0.477,0.264-0.906,0.6-1.369,0.878c-0.668,0.401-1.396,0.713-2.074,1.086
		c-0.307,0.168-0.994,0.316-1.156,0.64c0.28,0.042,0.541-0.037,0.809-0.104c0.401-0.101,0.84-0.022,1.247-0.097
		c0.517-0.096,1.033-0.219,1.55-0.323c0.771-0.157,1.577-0.512,2.389-0.75c0.366-0.107,0.78-0.232,1.113-0.291
		c0.883-0.154,1.693-0.221,2.589-0.401c0.685-0.137,1.427-0.376,2.057-0.43c1.267-0.108,2.774-0.5,4.208-0.854
		c0.633-0.156,1.275-0.344,1.932-0.544c0.666-0.204,1.25-0.26,1.893-0.429c0.345-0.089,0.525-0.116,0.766-0.087
		c0.27,0.031,0.637-0.136,0.99-0.225c1.336-0.337,2.27-0.123,3.839-0.862c1.614-0.759,2.986-0.839,4.385-1.208
		c1.28-0.339,2.593-0.741,3.853-1.047c0.688-0.167,1.424-0.41,2.04-0.472c0.635-0.064,1.376-0.22,2.084-0.397
		c0.663-0.166,1.479-0.526,2.174-0.724c0.437-0.124,1.849-0.264,1.847-0.865c-0.002-0.65-1.037-1.124-1.484-1.432
		c-0.347-0.238-0.725-0.415-1.08-0.639c-0.453-0.287-0.844-0.608-1.344-0.816C217.477,43.689,216.84,43.443,216.223,43.234z"/>
	<path fill="#737373" d="M188.91,56.489c0.168,0.157,0.698,0.102,0.924,0.079c0.514-0.051,1.043-0.088,1.556-0.152
		c0.776-0.097,1.575-0.137,2.375-0.159c1.794-0.049,3.627-0.112,5.419-0.227c1.536-0.098,3.107-0.421,4.629-0.604
		c1.285-0.154,2.604-0.245,3.876-0.48c2.425-0.448,4.909-0.991,7.347-1.25c0.744-0.079,1.465-0.333,2.213-0.429
		c0.951-0.122,1.939-0.296,2.893-0.385c0.677-0.063,1.317-0.171,2.004-0.171c0.33,0,0.613-0.035,0.926-0.079
		c0.316-0.045,0.557,0.116,0.842,0.096c-0.107,0.104-0.44,0.115-0.625,0.137c-0.424,0.05-0.838,0.08-1.273,0.077
		c-0.857-0.006-1.714,0.175-2.555,0.328c-1.373,0.25-2.743,0.518-4.119,0.753c-4.594,0.787-9.182,1.613-13.787,2.331
		c-2.241,0.35-4.499,0.598-6.781,0.598c-2.527,0-5.027,0.231-7.557,0.231"/>
	<path fill="#DBDADA" d="M225.158,52.863c-1.916-0.31-4.598,0.25-6.104,0.559c-0.707,0.145-1.499,0.401-2.221,0.306
		c-0.723-0.095-1.397,0.237-2.098,0.38c-0.936,0.191-1.874,0.312-2.779,0.437c-2.257,0.311-4.557,0.703-6.756,0.941
		c-0.846,0.091-1.695,0.219-2.531,0.292c-0.76,0.067-1.459,0.062-2.24,0.157c-1.607,0.196-2.888-0.029-4.525,0.212
		c-0.807,0.119-1.564,0.132-2.35,0.21c-0.893,0.088-1.703,0.074-2.545,0.104c-0.779,0.028-1.613,0.103-2.357,0.091
		c-0.562-0.009-1.02-0.079-1.645-0.03c-0.799,0.063-1.567,0.089-2.322,0.1c-0.658,0.01-1.232-0.045-1.867-0.061
		c-0.348-0.009-0.738-0.032-1.129,0.002c-0.457,0.04-0.906,0.204-1.352,0.302c0.505-0.002,0.896,0.299,1.391,0.303
		c0.725,0.004,1.436,0.147,2.156,0.208c0.782,0.065,1.531,0.195,2.303,0.308c0.387,0.056,0.778,0.165,1.17,0.119
		c0.396-0.047,0.808-0.003,1.205,0.044c0.521,0.062,1.062,0.157,1.588,0.22c0.788,0.093,1.553,0.267,2.336,0.399
		c0.795,0.134,1.606,0.291,2.396,0.467c1.225,0.273,2.559,0.469,3.814,0.544c1.352,0.081,2.689,0.334,4.037,0.469
		c1.521,0.152,3.026,0.361,4.555,0.458c1.292,0.082,2.592,0.198,3.875,0.362c0.874,0.112,1.76,0.122,2.636,0.194
		c0.728,0.06,1.463,0.051,2.194,0.058c0.799,0.007,1.604,0.05,2.408,0.05c1.088,0,2.176,0,3.264,0c3.211,0,6.43,0.005,9.614-0.201
		c0.007,0-0.423-0.823-0.468-0.897c-0.162-0.262-0.318-0.527-0.414-0.821c-0.152-0.471-0.197-0.94-0.408-1.398
		c-0.535-1.158-1.291-2.239-2.137-3.192c-0.426-0.479-0.897-0.982-1.463-1.3C226.043,53.066,225.623,52.939,225.158,52.863z"/>
</g>
<g>
	<path fill="#948F8F" d="M41.023,43.701c1.68-0.085,3.583-0.118,5.237,0.294c0.994,0.247,1.815,0.813,2.709,1.338
		c1.266,0.744,2.557,0.973,3.944,1.23c0.874,0.163,1.708,0.481,2.572,0.682c0.842,0.194,1.678,0.102,2.525,0.207
		c1.822,0.226,3.608,0.748,5.471,0.73c0.919-0.008,1.824,0.225,2.692,0.583c0.581,0.239,1.158,0.61,1.781,0.663
		c0.539,0.046,0.95,0.009,1.503,0.176c1.309,0.393,2.621,0.797,3.881,1.369c1.059,0.479,2.543,1.543,2.479,2.857
		c-0.146,3.042-0.376,6.074-0.492,9.122c-0.73-4.874-11.41-8.985-14.861-10.555c-3.286-1.495-6.656-2.719-9.989-4.062
		C47.312,47.058,43.872,45.782,41.023,43.701z"/>
	<path fill="#393434" d="M74.637,62.552c0.276,0.131,0.555,0.232,0.827,0.27c0.05-0.187-0.213-0.594-0.29-0.778
		c-0.117-0.281-0.25-0.529-0.388-0.779c-0.255-0.461-0.532-0.95-0.685-1.468c-0.229-0.774-0.624-1.444-0.981-2.154
		c-0.432-0.857-0.858-1.688-1.386-2.454c-0.277-0.402-0.773-1.203-1.114-1.498c-0.845-0.732-2.35,0.908-3.195,1.382
		c-1.127,0.633-2.199,1.166-3.324,1.795c1.402,0.54,2.652,1.549,4.047,2.157c0.805,0.351,1.613,0.743,2.393,1.208
		c0.861,0.514,1.755,1.021,2.62,1.482C73.614,61.957,74.122,62.307,74.637,62.552z"/>
	<path fill="#CCCCCC" d="M67.367,56.742c0.613-0.67,1.179-1.397,1.807-2.049c0.149-0.155,0.309-0.294,0.471-0.431
		c0.041-0.035,0.082-0.069,0.123-0.103c0.03-0.026,0.074-0.049,0.099-0.079c0.027-0.031,0.043-0.072,0.073-0.103
		c0.03-0.03,0.064-0.056,0.098-0.081c0.009-0.006,0.018-0.012,0.026-0.019c0.065-0.047,0.122-0.099,0.193-0.137
		c0.106-0.058,0.25-0.139,0.355-0.06c-0.028-0.009-0.052-0.036-0.077-0.055c-0.037-0.029-0.076-0.05-0.114-0.075
		c-0.086-0.057-0.177-0.115-0.269-0.159c-0.115-0.056-0.232-0.099-0.35-0.145c-0.151-0.06-0.304-0.126-0.458-0.176
		c-0.135-0.043-0.26-0.103-0.388-0.164c-0.064-0.03-0.135-0.05-0.2-0.076c-0.064-0.024-0.127-0.051-0.191-0.074
		c-0.258-0.092-0.508-0.2-0.759-0.311c-0.135-0.059-0.268-0.106-0.41-0.143c-0.055-0.014-0.11-0.033-0.163-0.053
		c-0.04-0.015-0.081-0.031-0.12-0.046c-0.084-0.03-0.175-0.059-0.262-0.067c-0.097-0.009-0.192-0.045-0.286-0.073
		c-1.334-0.403-2.648-0.596-3.974-0.958c-1.487-0.406-3.113-0.749-4.621-1.111c-1.437-0.346-2.803-0.941-4.207-1.452
		c-4.217-1.534-8.709-2.639-12.613-4.78c0.771,1.165,2.078,2.139,3.238,2.854c1.893,1.166,3.812,2.25,5.574,3.658
		c1.618,1.292,3.503,2.317,4.97,3.833c0.487,0.502,0.961,1.107,1.454,1.617c0.61,0.633,1.325,1,1.957,1.561
		c1.061,0.943,2.068,1.968,3.141,2.924c0.695,0.62,0.567,0.361,1.25-0.174c0.531-0.416,1.139-0.581,1.677-0.863
		C65.517,58.595,66.478,57.712,67.367,56.742z"/>
	<path fill="#CCCCCC" d="M72.871,53.249c-0.534-0.196-1.153-0.322-1.612-0.702c-0.473-0.393-1.019-0.496-1.571-0.69
		c-0.634-0.225-1.242-0.54-1.883-0.728c-0.749-0.22-1.473-0.535-2.229-0.734c-0.838-0.222-1.668-0.495-2.501-0.742
		c-1.178-0.35-2.347-0.785-3.534-1.087c-1.071-0.273-2.149-0.512-3.221-0.782c-1.099-0.276-2.212-0.468-3.312-0.731
		c-0.612-0.146-1.226-0.32-1.835-0.484c-0.527-0.142-1.069-0.231-1.59-0.411c-1.234-0.426-2.436-0.932-3.66-1.395
		c-0.957-0.363-1.959-0.542-2.934-0.829c-0.337-0.1-0.645-0.245-0.987-0.28c-0.239-0.025-0.456-0.039-0.677-0.159
		c0.601-0.152,1.324-0.043,1.929-0.013c0.428,0.021,0.869,0.028,1.284,0.072c0.447,0.048,0.863,0.013,1.31,0.066
		c0.6,0.071,1.199,0.146,1.799,0.209c1.481,0.156,2.923,0.201,4.432,0.382c3.88,0.465,7.815,1.03,11.699,1.786
		c2.151,0.419,4.329,0.552,6.464,1.048c2.467,0.575,4.958,1.1,7.484,1.013c0.711-0.024,1.447-0.114,2.158-0.045
		c0.412,0.04,0.787,0.225,1.189,0.313c0.649,0.144,1.343,0.059,1.999,0.053c0.745-0.007,1.49-0.015,2.234-0.04
		c0.391-0.014,0.766-0.04,1.152,0.032c0.206,0.038,0.387,0.129,0.581,0.2c0.008,0.152-0.192,0.298-0.283,0.383
		c-0.21,0.193-0.427,0.369-0.656,0.532c-0.306,0.218-0.612,0.432-0.933,0.618c-0.393,0.228-0.751,0.531-1.157,0.732
		c-0.521,0.257-1.025,0.559-1.547,0.807c-0.573,0.273-1.165,0.468-1.753,0.689c-0.616,0.232-1.233,0.44-1.85,0.665
		c-0.177,0.063-0.358,0.114-0.534,0.185c-0.227,0.091-0.414,0.294-0.627,0.421c-0.261,0.157-0.515,0.332-0.779,0.481
		c-0.183,0.104-0.37,0.167-0.563,0.237c-0.06,0.022-0.113,0.06-0.177,0.059c-0.087-0.001-0.179-0.061-0.263-0.083
		c-0.37-0.1-0.74-0.194-1.105-0.321C74.161,53.751,73.52,53.487,72.871,53.249z"/>
</g>
</svg>
