<svg xmlns="http://www.w3.org/2000/svg" viewBox="0 0 683.04 301.75"><defs><style>.cls-1{fill:#1d1d1b;}.cls-2{fill:#007293;}.cls-3{fill:#e63027;}.cls-4{fill:#fff;}.cls-5{fill:#e30613;}</style></defs><g id="Ebene_2" data-name="Ebene 2"><g id="Ebene_1-2" data-name="Ebene 1"><path class="cls-1" d="M361.2,244.89c.17,2.46.39,4.91.73,7.34a70.24,70.24,0,0,0,1.17,7.49,29.51,29.51,0,0,0,1.22,3.91,13.51,13.51,0,0,0,2.2,3.27c.73.89,1.59,1.62,2.36,2.47a7.26,7.26,0,0,0,1.81,1.55,13.84,13.84,0,0,0,4.11,1,25.35,25.35,0,0,0,3,.66c3,.23,5.67-1.39,8.48-2.19,2.59-.75,4.62-.9,6.87-2.61,9.26-7.07,11.13-19.45,13.22-30.08.94-4.75,1.35-9.61,2.4-14.42,1.84-8.47,5.65-16,9.2-23.72-.2.43-2.66.94-3.15,1a5,5,0,0,1-1.88-.12c-2-.33-3.92.67-5.78,1.14-2.92.74-5.82,1.42-8.75,2.08a63.7,63.7,0,0,1-11.32,1.88,22.74,22.74,0,0,1,2.48,3.6,20.72,20.72,0,0,1,2.13,5.53,60.33,60.33,0,0,0,2.56,7.11,48.69,48.69,0,0,1,2.59,12.51c.17,1.68.27,3.38.41,5.07.47,5.84,1.59,12.63-2.95,17.25-1.49,1.51-3.33,2.63-4.84,4.13-2.3,2.26-4.62,4.19-8,4.45a9.21,9.21,0,0,1-2.62-.18c-9.9-2.16-10.43-10.74-11.81-19.18-.46-2.8-.69-5.63-.93-8.45-.11-1.31-.24-2.61-.43-3.89s-.13-2.73-.32-4.08a36.68,36.68,0,0,0-2.21-7.77,20.94,20.94,0,0,0-2.77-5.09,34.15,34.15,0,0,0-7.61-7.71,37.42,37.42,0,0,0-7.18-4.19,15.4,15.4,0,0,0-3.05-.8,7.7,7.7,0,0,0-2.39-.22,4.88,4.88,0,0,0,.59,1.48c.26.54.45,1.09.67,1.64.46,1.13.87,2.2,1.22,3.31.13.38,2,.5,2.4.56a8.37,8.37,0,0,1,1.57.47,8.51,8.51,0,0,1,3.2,2.34,42.6,42.6,0,0,1,6.09,7.86,35.17,35.17,0,0,1,4.61,14.81C360.82,239,361,242,361.2,244.89Z"/><path class="cls-1" d="M237.93,120.43c2.5,2.62,5.86,4.06,9.12,5.52a81.35,81.35,0,0,1,13,7.41,128.29,128.29,0,0,1,23.47,20.48c10.83,12.14,23.06,24.45,36.54,33.55,1.72,1.15,9.35,8.05,10.42,5.66-3.34-1.09-5.4-4.66-7.4-7.23-2.76-3.58-6.33-6.1-9.66-9-7.08-6.11-13.25-13.54-19.48-20.47-6.38-7.12-13.13-14.11-20.11-20.75s-15-14.12-24.05-17.73-18.89-2.2-28.58-1.41"/><path class="cls-1" d="M177.16,122.43a24.72,24.72,0,0,1,2.39-3.42,4.08,4.08,0,0,1,2.34-1.7,4,4,0,0,1,1.48.19c.83.12,1.63.27,2.45.4a31.3,31.3,0,0,1,4.46,1.44,20.81,20.81,0,0,1,2.92,1.2c1.14.57,1.45,2.31,1.51,3.49a15.14,15.14,0,0,1-.19,2.93,7,7,0,0,0-.19,1.57c-.25.1-.52-.05-.77-.1-.1-.23.07-.52.11-.77a7.93,7.93,0,0,0,.07-.84c0-.58.11-1.18.09-1.73a4,4,0,0,0-1.75-3,13.6,13.6,0,0,0-4.65-1.73,20.07,20.07,0,0,0-4.61-.63c-1.24,0-3,0-3.75,1.16-.39.57-.64,1.22-1,1.8-.18.28-.16.3-.54.18s-.76-.21-.4-.59"/><path class="cls-2" d="M142.62,103.16c-.45,1.84-.86,5.32-3.3,5.45-1.38.06-5.63-3.81-7-4.8-5-3.62-1-10.64-.44-15.66,1.12-9.45,4.42-18.42,7.6-27.33a86.21,86.21,0,0,1,7.23-15.88c1.65-2.71,6-9.28,9.22-9.22s9.65,4.42,12.29,6.31c15,10.78,23.25,26.93,28.08,44.35,2.23,8,2.41,15.58,1.73,23.86-.21,2.62-.54,6.11-1.55,8.55-.63,1.52-1.08,1.25-1.93,2.12-2,2.1-3.33,3.19-3.83-.53,0,.69-.44,1.43-.5,2.16-2.2,1.09-2.89-1.31-3.6-2.76-.53,1.29.07,3.88-1.81,3.48-1.4-.29-2.31-3.55-2.53-4.71-.58-3.12.79-4.65,3.59-5.59,3.64-1.23,4-.78,4.31-5.07.4-6.45-1.58-13.15-3.63-19.2-1.31-3.88-3.5-7.38-5.15-11.11-1-2.33-2.11-4.6-3.18-7-2.24-5-5.22-10.6-8-15.35-2.56-4.4-11.55-13.34-16-7.53-1.9,2.49-2.69,6.11-3.88,9A86,86,0,0,0,147,66.83c-2,7.31-2.56,14.62-2.92,22C143.88,93.59,143.75,98.47,142.62,103.16Z"/><path class="cls-3" d="M99.22,140.66c-.79-.93-1.59-1.84-2.41-2.73q-1.8-2-3.49-4c-.87-1.06-1.79-1.95-2.69-3-.48-.55-1-1-1.53-1.57s-.91-.86-1.35-1.3-.88-1.09-1.39-1.58a30.5,30.5,0,0,1-3-3.7c-.89-1.17-1.8-2.3-2.79-3.38-.83-.9-1.48-1.9-2.28-2.8-.38-.43-.81-.83-1.21-1.26a8.5,8.5,0,0,1-1-1,9.45,9.45,0,0,0-.59-1.08c-.76-.89-1.55-1.75-2.3-2.64-.25-.29-2.26-2.42-1.86-2.71s1.6,1.41,1.84,1.66c.82.85,1.65,1.69,2.49,2.53,17.57,17.54,39.82,29,64.09,34.18q7,1.47,14.05,2.28c7,.8,14,1.57,20.93,2.78,2.4.42,14.59,2,14.21,5.42-5.46,2.62-10.91,2.17-16.74,1.71-6.88-.53-13.38-1.77-20.2-2.69-11.57-1.57-23.63-1.17-35.16-2.68a28.53,28.53,0,0,1-8-1.9,18.3,18.3,0,0,1-2.89-1.78C103.21,147.5,101.4,143.24,99.22,140.66Z"/><path class="cls-1" d="M168.9,115.12a5,5,0,0,1,1.3,1.25c.19.27.27.64.45.91a3.15,3.15,0,0,0,.72.69,19.63,19.63,0,0,0,2.61,2c1.67,1,3.32,1.91,5,2.88a5.7,5.7,0,0,1,1.36.79c.35.44-.15,1.36-.5,1.69-.88.8-2.45-.23-3.38-.61a28.62,28.62,0,0,1-5.33-2.83,21.11,21.11,0,0,1-1.69-1.34,9.78,9.78,0,0,0-.76-.63c-.35-.22-.56-.13-.95-.12a1.78,1.78,0,0,1-1.46-.74,2.91,2.91,0,0,1,.09-2.72c.3-.55.43-1.62,1.16-1.7A2.24,2.24,0,0,1,168.9,115.12Z"/><path class="cls-2" d="M136.33,113.94c1.44-.42,2-1.69,2.61-3a6.08,6.08,0,0,1,.89-2c.4-.37,1-.29,1.5-.61,1.74-1.23,2.76-4.49,2.55-6.56,5.17-2.26,10.41-3.94,15.44-6.62,2.19-1.16,4.4-2.79,6.56-4.12,7.73-4.74,6.8,6.64,8,10.71,1.33,4.67,5.74,9.43-1.53,10.1a3.5,3.5,0,0,0-2.69,1.11c-.2.28-.28.6-.45.89-.07.1-.36.34-.35.47,0,.38.83.24,1.07.44s.47.82.23,1.09-.83.39-1.14.6c-.47.33-.73.25-1.32.19-.36,0-1.08-.12-1.28.27s.26.81.38,1.13a2.21,2.21,0,0,1,.05,1.27c-.18.69-.26,1.1-1,.93a6.32,6.32,0,0,0-2-.38,3.88,3.88,0,0,0-1.75.88c-1.24.87-2.22,1.38-3.76.87-1.87-.63-5.16-2.66-7.15-2.35-2.42.37-2.18,2.94-4.2,4-2.38,1.27-7.18-2.26-8-4.42"/><path class="cls-1" d="M165.76,98.87c.48-.19.9-.88,1.28-1.22s.88-.81,1.35-1.15c.7-.51,1.91-1,2.32,0a6.15,6.15,0,0,0-2.52.9,16.21,16.21,0,0,1-2.42,1.49c0,.11,0,.07.09.11"/><path class="cls-1" d="M167.33,100.5a7.57,7.57,0,0,1,2.15-1.86c1.17-.64,1.49.86,1.65,1.73-.1-.87-1.2-1-1.87-.92-.4,0-1.82.47-1.81.88.62-.1,1.12.49,1.67.7s1.63.34,2-.29c-.1.6-1.28.76-1.77.68a2.6,2.6,0,0,1-1.48-1.15"/><path class="cls-4" d="M167.48,100.19c.28-.13.49-.41.77-.55a3.12,3.12,0,0,1,1.07-.27,1.62,1.62,0,0,1,1.61.79c.43.82-.84,1.15-1.43,1s-1.21-1-1.58-.93"/><path class="cls-1" d="M168.85,99.52a1.25,1.25,0,0,0,.82,1c.35.14,1,.19,1.15-.24s-.14-.63-.43-.81a1.46,1.46,0,0,0-1.26-.07.83.83,0,0,0,0,.27"/><path class="cls-1" d="M168.68,90c.63-.93-1.41-8-2-10.45a47.13,47.13,0,0,0-3.88-11.48c-1.39-2.68-3.12-8.18-7.05-5.83-1.36.81-1.49,2.81-2.43,4.14-1.78,2.5-1.73,2.11-4.22,1.26s-6.52-4.36-7.54-.17c-.23,1,1.21,3.82,1.37,4.89.31,2.14-.14,4.07-.23,6.16-.26,5.84,1.6,13.79.11,19.24a8.48,8.48,0,0,0-6.09,3.34c1.11,6.43,31.49-9.83,35.81-12.52-.53-2.63-2.52-.87-4.18-1.8"/><path class="cls-2" d="M108.87,155.14a17.68,17.68,0,0,0,1.13,2.15c.23.36.46.7.66,1.07a8.56,8.56,0,0,1,.83,2.79,27.69,27.69,0,0,1,.47,3.41,17.44,17.44,0,0,1-.24,4.07,29,29,0,0,1-1.4,5.1,19.93,19.93,0,0,1-2.93,4.65c-.34.46-.84,1-.42,1.5s.79.81,1.18,1.19c.89.86,1.56,1.9,2.46,2.78a16.16,16.16,0,0,0,2.73,2.06,35.59,35.59,0,0,1,3.12,1.8c.31.24.52.58.83.83.5.4,1.07.74,1.61,1.09a35.73,35.73,0,0,0,3.34,1.93,61.43,61.43,0,0,0,29.2,7c1.13,0,2.25,0,3.38-.09,6.4-.32,13.08-1.52,18.59-5A20.86,20.86,0,0,0,180,187c1.47-2.32,3.56-6.06,2.83-8.88-2.77.73-6,.59-8.85,1.39-.32,2.51-2.77,5.7-4.83,7a32.56,32.56,0,0,1-7.7,3.09c-4.62,1.48-9.27,1.81-13.52,0-10.3-4.34-21.8-7.69-29.62-15.81-3-3.08-4.44-7.27-2.92-11.56,1.47-4.1,4.34-8,6.92-11.49,1.38-1.85,2.57-3.86,4-5.8,2.93-4.16,6.74-6.09,10.7-9.13,3.32-2.55,7.73-4.25,10.28-7.7,2.86-3.86-1.31-5.21-4.08-7.09-3.53-2.4-8-3.68-11.57-.62-4.62,4-5.55,10.4-8.46,14.53a70.54,70.54,0,0,1-6.57,7.76c-1.17,1.23-2.37,2.45-3.55,3.67l-1.77,1.84c-.37.4-.59.86-.91,1.28s-.77.69-1.11,1.06a7.24,7.24,0,0,0-1,1.39c-.46.87.06,1.78.36,2.61C108.7,154.73,108.79,154.93,108.87,155.14Z"/><path class="cls-1" d="M245.5,124.82c-4.05-.31-10.48-3.36-15.43-3.82-6.14-.57-13.67,1.63-19.28,3.89-6,2.42-11,5-17.76,6.21-.59.11-1.19.16-1.77.28a4.24,4.24,0,0,1-1.66-.1c-.64-.11-1.28-.16-1.92-.26a13.11,13.11,0,0,1-3.65-1c-2.25-1.12-3.92-3-5.9-4.52a7.74,7.74,0,0,0-1.18-.69c-.12-.06-.44-.12-.52-.25s.08-.62.15-.83a5.93,5.93,0,0,1,.64-1.19c.3-.46.63-.32,1.1-.19A10,10,0,0,1,181,123.7c.65.44,1.34.79,2,1.26a24,24,0,0,0,3,1.85,14.35,14.35,0,0,0,4.82,1.42,9.6,9.6,0,0,0,3.7-.16c.38-.11.71-.31,1.07-.43.6-.2,1.24-.29,1.85-.46a38.66,38.66,0,0,0,7-2.78,88.31,88.31,0,0,1,8.72-4.05c8.76-3.18,30.88-9.67,33.49,4.26"/><path class="cls-1" d="M109.13,61.36c-4.14-5.26-10-8.6-14.19-13.6-1.93-2.28-3.68-4.71-5.44-7C87.19,42,84,45,82,46.94c-1,.92-3,3.07-3.16,4.42-.25,1.8,2,3.78,2.75,5.29a14,14,0,0,1,1.69,4.19c.44,3.23-2.29,6.73-3.57,9.53a27,27,0,0,1-3.65,5.78,5.8,5.8,0,0,1-2.25,2c-.37.16-3.77.44-3.79.61-.11,1.21.66,3.28,1,4.55a18.16,18.16,0,0,0,1.54,3.87A22.47,22.47,0,0,0,76.26,93c2.39,2.4,6.3,4.44,9.2,6.46a78.73,78.73,0,0,0,9.07,5.42c4.29,2.19,7.1,5.46,11.16,7.92A52.64,52.64,0,0,0,121.1,119c9.1,2,19.37,2.24,26.74,8.83.93-1.56,3.28-3,3-4.9-3.67-2.31-8.66-6-9-11-.12-1.68,1.19-3.5,1-5-.15-1.35-1.84-2.43-3-3.78a61,61,0,0,0-6.72-7c-2.36-2.07-5.35-3.74-6.48-6.79-1.2-3.21-1.69-5.32-3.89-8.26C118,74.71,114.08,67.66,109.13,61.36Z"/><path class="cls-3" d="M65.55,47.13c-4.26,0-8-.33-12.19.39-6,1-15,5.13-18.15,10.54a40.66,40.66,0,0,0-5.3,20.3C29.94,85.9,34.53,92,38.44,98c3.45,5.32,9.06,9,13.12,13.82,5,6,11.1,11.14,16.76,16.53,5.38,5.13,11.46,9.48,16.06,15.15,3.86,4.76,9,9.5,9.49,16-2.09-1-4.42-2-6.49-3.19a63.69,63.69,0,0,1-13-9.54c-5.41-5.29-10-11.64-14.89-17.53-4.64-5.56-9.64-10.73-14.23-16.32-2.29-2.8-4.39-5.71-6.49-8.67-2.82-4-4.8-8.31-7.32-12.44-2.4-4-4.18-8.77-6.89-12.22-1.67-2.13-3.58-1.21-5.6-.31-.73.33-2.3.48-2.71,1.21s.45,3.32.62,4c1.95,7.75,6.2,14.71,9.61,21.84a68.37,68.37,0,0,0,6.08,9.59c5.29,7.55,8.94,15.81,13.94,23.54S57.68,154.27,63.79,161c4.13,4.59,9,8.32,13.67,12.25a42.11,42.11,0,0,0,4.78,3.43,28.24,28.24,0,0,0,18.19,3.71c7.84-1.37,11.9-11.23,10.47-18.66s-6.23-13-10.86-18.68c-2.31-2.83-4.32-6-6.72-8.55-2.83-3-5.9-5.49-8.39-8.86-6.56-8.91-15.52-17-19.64-27.37-1.38-3.45-3-7.38-3.29-11.2-.25-3.12.79-7.21,3.84-9,2.71-1.6,6,.93,8.51-.63,1.78-1.1,2.88-4.71,4-6.46,4.46-7,8.06-13.82-.33-19.17C74.06,49.32,70.49,47.19,65.55,47.13Z"/><path class="cls-1" d="M64.54,48.79c1.69,1.31-.89,9.47-.25,12.3-4.9-.53-18.4,5-18.78-3.55-.35-7.8,13.22-9.12,18.82-9.55.48.63,0,.51-.24.87"/><path class="cls-1" d="M16.3,78.35A2.86,2.86,0,0,0,16.42,80a2.43,2.43,0,0,0,1.31,1,3.75,3.75,0,0,0,.77.14,3.43,3.43,0,0,0,.91.08,7.87,7.87,0,0,0,2-.59c.5-.19,1.1-.34,1.2-1,.05-.29-.07-.57,0-.85a2.37,2.37,0,0,1,.52-.91A2.29,2.29,0,0,1,24,77.3a5.36,5.36,0,0,0,1.45-1.23,4,4,0,0,0,1-1.87,5.12,5.12,0,0,0,.15-.78c0-.21.12-.38.13-.6s0-.5,0-.75a7.37,7.37,0,0,0,.05-.82,5.3,5.3,0,0,0-.23-1.53,6,6,0,0,0-2-2.71,76,76,0,0,0-9.88-7C11.62,58.19,5.61,55.54,2,56.67-.91,57.57-.44,60,2.08,61c2.17.85,4.24,1.21,6.09,2.76,3.18,2.66,7.64,5.6,8,9.94a11.93,11.93,0,0,1,0,1.89,3.36,3.36,0,0,0,.15,1.26A4,4,0,0,1,16.3,78.35Z"/><path class="cls-1" d="M77.57,68.09a6.92,6.92,0,0,0-1.18-.44c-.43-.18-.85-.48-1.3-.65-.64-.24-1.85-.88-1.78.38,0,.77,1.77.85,2.48,1.14.32.12.82.46,1.18.41a.92.92,0,0,0,.68-1"/><path class="cls-1" d="M71.52,66.36a5.48,5.48,0,0,0-.77-.38,10.47,10.47,0,0,0-1.48-.16,4.93,4.93,0,0,0-2-.14c0,.4-.25.9-.08,1.31a13.94,13.94,0,0,1,2.66.07c.6,0,1.83.35,1.62-.69"/><path class="cls-1" d="M65.37,65.77c-.93.16-1.86.21-2.81.38-1.52.29-.89.82-.77,2a9.77,9.77,0,0,0,2-.64,6.68,6.68,0,0,0,1.94-.56c0-.3,0-.78-.34-.85"/><path class="cls-1" d="M58.45,67.27c.28.52.71,1,1,1.56a6.72,6.72,0,0,0-1.13.52c-.42.17-.83.32-1.24.53-.76.37-1.57,1-2.32,1.3a4,4,0,0,0-.29-1c1-1.13,3.1-1.31,4.08-2.47"/><path class="cls-1" d="M52.59,71.36c.22.25.63.55.85.85a8.07,8.07,0,0,0-1.62,2.56c-.2.45-.37.88-.55,1.33-.27.7-.32.51-.94.18s-.58-.17-.22-.86c.27-.5.5-1,.79-1.49s1.13-2.25,1.82-2.39"/><path class="cls-1" d="M49.06,77.71c.27.33,1,.36,1.49.38a8.66,8.66,0,0,0-.37,2.4c0,.74.33,1.86.09,2.54a5.19,5.19,0,0,1-1.08-.54c-.37-.37-.29-1.13-.29-1.59,0-.78-.23-3.08.21-3.5"/><path class="cls-1" d="M49.14,85.9c.14.49,1.13.1,1.53.06.17.58.15,1.38.27,2,.15.91.55,1.72.63,2.61a6.35,6.35,0,0,1-1.06.18c-.29-.83-.55-1.7-.76-2.56a10.24,10.24,0,0,0-.58-2.12"/><path class="cls-1" d="M51.06,94.09c.3.41,1.08.09,1.54,0a26.67,26.67,0,0,0,1.68,4.4,3.79,3.79,0,0,0-1.13.4,13.14,13.14,0,0,1-1.87-4.17"/><path class="cls-1" d="M54.5,103.6a2.38,2.38,0,0,0,2-.23,11,11,0,0,0,3.22,4.44c-1.83.56-1.64.57-2.87-1a22.29,22.29,0,0,0-2.29-2.66"/><path class="cls-1" d="M60.25,110.52c.62.09.94.36,1.43-.21.54,1.46,2.4,3.31,3.54,4.47-2.27,1.12-3.88-2.94-5.26-4.21"/><path class="cls-1" d="M66.65,117.63a4.85,4.85,0,0,0,.84-.1c.93,1.45,2.39,2.52,3.42,3.87a6,6,0,0,1-1,.79c-1.37-1.39-2.3-3-3.59-4.5"/><path class="cls-1" d="M75,127.45c-.3-.71-2.17-2.18-2.91-3.07.33-.46.47-.48,1-.51,1.13,1.5,3.18,2.77,4.11,4.35-.58.77-1.3.59-1.54-.28"/><path class="cls-1" d="M82.27,135.94c-.5.06-2.86-2.45-3.26-3.34,1.24-1.31,3.51,1.77,4.61,2.57a1.28,1.28,0,0,1-1,1"/><path class="cls-1" d="M88.58,144.28c-1.06-1.64-2.15-3.36-3.25-4.92,1.47-1.76,4.15,3,5.12,4-.87-.1-.64.42-1,.76"/><path class="cls-1" d="M92.37,152.15c.52-.93-1.21-3.18-1.6-4.24a3.86,3.86,0,0,1,1.68-.3,27,27,0,0,0,2.5,5.55,2.8,2.8,0,0,1-2.09.12"/><path class="cls-1" d="M95,156.87c.93,1.43,1.38,4.5,1.75,6.34,4,.57-.5-7-1.45-6.39"/><path class="cls-1" d="M96.92,166.27a7.48,7.48,0,0,1,0,3.9c-.78.26-5.23.25-5-1.16.17-.93,1.84.17,2.4.13,1.3-.09,1.14-.47,1.23-2a1.36,1.36,0,0,1,1.47,0"/><path class="cls-1" d="M88.61,169.22A2.58,2.58,0,0,0,89,168c-1.28-.07-6.57-2.23-6.35-.25,2.1.62,4.25,1.57,6.38,2"/><path class="cls-1" d="M79.77,165.57c-1.23-.49-3.77-3.9-5.09-2.55-1,1,3.41,3.5,4.54,3.21-.11-.41.2-.41.26-.61"/><path class="cls-1" d="M72.1,159.9c.29.2.3.21.05,0-1.1-.77-4.61-2.94-5.38-1.62,2,1.1,4.18,2.42,6.19,3.52a1.22,1.22,0,0,0,.28-.61"/><path class="cls-1" d="M64.63,155.4a22,22,0,0,1-2.81-2.62c-1-1.06-1.6-2.23-3-1.2.42,1.17,4.67,6.16,5.55,4.17"/><path class="cls-1" d="M58.48,147.94a20.45,20.45,0,0,0-2.38-4.71,16.87,16.87,0,0,0-1.74,0c.34,1.7,2.19,3.36,3,4.88a3.14,3.14,0,0,0,1.14-.15"/><path class="cls-1" d="M52.91,138.56a1.87,1.87,0,0,0,1.43-.29c-.21-2.06-2.7-3.56-3.07-5.72a5.92,5.92,0,0,1-.75.69c-.07,1.43,1.66,5,2.39,5.32"/><path class="cls-1" d="M47.43,127.94a4.67,4.67,0,0,0,2-.71c-1.18-1.56-2.43-3.13-3.58-4.74a2,2,0,0,0-1.09.18c.79,1.57,2.8,3.71,3,5.51"/><path class="cls-1" d="M42.8,118.7a4.39,4.39,0,0,0,1.43-.29c.09-1.61-2.22-3.49-3-4.87a1.83,1.83,0,0,0-1.1.2c1,1.35,1.77,3.93,3.24,4.86"/><path class="cls-1" d="M37.33,109.91a1.85,1.85,0,0,0,1.13-.24c0-1.29-2.24-4.72-3.68-4.13.87,1.3,1.73,3.46,2.85,4.32"/><path class="cls-1" d="M33,102.14a1,1,0,0,0,1.19,0c-.56-1.78-2-3.46-2.73-5.21a1.58,1.58,0,0,0-.8.14c0,1.44,1.69,3.95,2.64,5"/><path class="cls-1" d="M28.72,93.44c.29.18.4.44.88.1.13-1.39-2.19-5.53-3.78-4.73,1.24,1.65,1.67,4.61,3.1,5.81"/><path class="cls-1" d="M24.19,84.79a5.05,5.05,0,0,0,1.44-.29c-.39-1-1.65-4.25-3-3.65.81,1.32,1.11,3,2.21,4.13"/><path class="cls-5" d="M62.42,59.73c-.47-.47-1.94-.24-2.62-.54a2,2,0,0,0,0-1,8.9,8.9,0,0,1,2.35.07c.13.49.2,1,.29,1.52"/><path class="cls-5" d="M58,60c.18-.32,0-.8-.08-1.23a13.47,13.47,0,0,0-2.27.39c-.11,1.51,1.74.95,2.35.84"/><path class="cls-5" d="M54.09,60.37c-.07-.41-.13-.82-.23-1.21a8.33,8.33,0,0,0-2.17.05,1.3,1.3,0,0,0,.12.73,13.29,13.29,0,0,1,2.25.27"/><path class="cls-5" d="M50,59.49a1.28,1.28,0,0,0,.29-1,10.39,10.39,0,0,0-2-1.07l-.36.34c.49.84,1.63,1.32,2.39,1.89a1,1,0,0,0-.24-.38"/><path class="cls-5" d="M47.1,55.84a.86.86,0,0,0,.95.13,10.78,10.78,0,0,1,.58-2c-.77-.4-1.16,1.16-1.4,1.68"/><path class="cls-5" d="M50,52.32c.61.06,1.49-.54,2.06-.81a1.4,1.4,0,0,1,.13.73,8.6,8.6,0,0,0-2.4.57c-.17-.22,0-.18.08-.31"/><path class="cls-5" d="M53.44,51.09c.69.28,2.07-.16,2.79-.34A1.4,1.4,0,0,0,56.1,50c-.75.06-2.43.19-2.66,1.07"/><path class="cls-5" d="M57.93,50.32c.58-.16,1.51.11,2.19-.09a1.38,1.38,0,0,0-.13-.72,7.79,7.79,0,0,1-2,.22c0,.19-.08.26-.08.43"/><path class="cls-5" d="M61.59,50.32c.51.16,1,.17,1.49.33A2.8,2.8,0,0,0,62.93,49a2,2,0,0,1-1.39,0,2.27,2.27,0,0,0,.36,1.31"/><path class="cls-5" d="M157.36,69.41c0,.14.06.17.17.12a7.75,7.75,0,0,0,.41-1.48c.64.2,1,1.56,1.63,2a6.47,6.47,0,0,1,1.42-.76,3.9,3.9,0,0,0-.41,1.92c.11.78.88,1.09,1.07,1.86-.7,0-1.5-.88-2.09-.41a6.24,6.24,0,0,0-1,2.52,10,10,0,0,0-.54-2,7.54,7.54,0,0,1-2.64,0,13.86,13.86,0,0,1,2.07-1.35c-.22-.58-1.2-.87-1.61-1.45.55-.08,1.1-.18,1.65-.28"/><path class="cls-5" d="M80.63,82.77a6.91,6.91,0,0,1,1.86,2.69c.49.06.64-.34,1-.58-.29-.94-1.45-1.77-2-2.65a2,2,0,0,0-.65.09"/><path class="cls-5" d="M85.06,87.67c.52.53,1.14,1,1.68,1.5.24.23.38.61.71.55s.47-.51.44-.71-1.11-1-1.32-1.16c-.43-.42-.78-1.08-1.42-.47"/><path class="cls-5" d="M90,92.21c.44.45,2.51,2.87,2.83,1.75.16-.54-2.18-2.66-2.56-1.8"/><path class="cls-5" d="M95.29,96.54c0,.48,2.07,2.4,2.46,2.1.58-.43-.81-1.37-1.12-1.68-.69-.69-.84-.92-1.77-.49"/><path class="cls-5" d="M99.65,101a8.75,8.75,0,0,0,2.88,2.51c.14-.27.74-.67.72-.93s-.8-.71-1-.83c-.87-.69-1.36-1.24-2.33-.65a.81.81,0,0,0,0,.38"/><path class="cls-5" d="M105.33,104.34a13.86,13.86,0,0,0,3.48,2,4.48,4.48,0,0,1,.42-.85c-.57-.46-3.24-2-3.79-1.43a.39.39,0,0,0,0,.26"/><path class="cls-5" d="M110.45,107.6c.49.4,1,.85,1.56,1.28.76.65.65.47,1.28-.11-.53-.33-1-.81-1.57-1.12-.29-.16-1.22-.6-.85,0"/><path class="cls-5" d="M114.82,110.57c.79.88,1.88,1.53,2.66,2.43a1.14,1.14,0,0,0,.45-.37c-.27-.35-2.48-2.7-2.77-1.7"/><path class="cls-5" d="M118.74,114.87c1,.69,1.81,2.21,3.05,1.8-.28-.89-1.92-1.2-2.43-2a.69.69,0,0,0-.33.32"/><path class="cls-5" d="M78.58,80.5c0-.73-1.83-.78-2-1.48s.6-.38,1-.17a12.58,12.58,0,0,1,1.65,1.28c-.37,0-.28.17-.44.35"/><path class="cls-5" d="M123.17,117.19c.17-.07.25-.22.41-.3s.34.12.53.2a7.45,7.45,0,0,0,.93.36,2.43,2.43,0,0,0,.58.18c-.18.05-.13.4-.27.43a1.76,1.76,0,0,1-.3-.1l-.53-.2a8.52,8.52,0,0,0-1.26-.43.29.29,0,0,1,0-.16"/><path class="cls-5" d="M127.76,119.05c.18.06.24-.27.31-.38s0-.13.16-.14a1.52,1.52,0,0,1,.28.09,10.38,10.38,0,0,1,1.53.66c-.15.09-.12.28-.23.37s-.49-.1-.69-.19l-.68-.31c-.13-.05-.4-.09-.5-.2"/><path class="cls-5" d="M131.8,120a1.47,1.47,0,0,0,.28-.28c.16-.19.19-.17.42-.09a12.63,12.63,0,0,0,1.84.58c-.06,0-.13.06-.18.1s-.07.15-.12.19-.4,0-.58-.07a10.39,10.39,0,0,1-1.08-.34,2.34,2.34,0,0,1-.5-.18"/><path class="cls-5" d="M135.77,120.88c.34,0,.5-.55.89-.41s.57.32.87.44a1.51,1.51,0,0,1,.47.25,1.16,1.16,0,0,0-.24.14c-.06.06,0,.14-.14.16s-.55-.18-.67-.22-1-.17-1.08-.34"/><path class="cls-5" d="M140.1,122.16c.12,0,.11-.27.26-.28s.41.15.53.2c.29.12.54.29.82.42.13.06.47.11.52.26a.28.28,0,0,1-.16.28c-.15,0-.6-.28-.74-.34s-.45-.21-.69-.3c-.09,0-.44-.08-.39-.16"/><path class="cls-5" d="M143.86,123.6c.15,0,.24-.22.38-.29a4.57,4.57,0,0,0,.69.56,3,3,0,0,1,.81.73c-.16-.06-.18.06-.3.12s-.25,0-.42-.13a6.7,6.7,0,0,1-.6-.45c-.12-.1-.32-.15-.41-.26"/><path class="cls-5" d="M147,125.39c.11.14.38.18.55.26a1.64,1.64,0,0,1,.52.37c.15.17.31.63,0,.73l0,0a.26.26,0,0,0-.27,0c.43-.23-.57-1-.82-1a.22.22,0,0,1,0-.08.31.31,0,0,0,.15-.23"/><path class="cls-5" d="M140.77,105.48c-.08-.16-1.79-1.06-1.52-1.45s2,1.08,2.24,1.3c-.25,0-.35.21-.55.28"/><path class="cls-5" d="M135.74,101a16.94,16.94,0,0,1,1.85,1.64c.61-.74-1-1.37-1.61-1.82l-.24.18"/><path class="cls-5" d="M133.21,97.81a13.07,13.07,0,0,0,1.57,1.83c.82-.52-.86-1.75-1.23-2.32a.86.86,0,0,0-.54.22"/><path class="cls-5" d="M130.73,94.89c.34.48,1.19,1.77,1.83,1.18a11.17,11.17,0,0,0-2.3-1.25"/><path class="cls-3" d="M121,153.92c11.58,2.09,23.54,2.73,35.55,4.89a205,205,0,0,0,25.08,3.29c3.06.16,5.82.27,8.84.17,3.76-.11,6.48,1.07,10.13,1.61,3.43.51,7-.49,10.36.33s6.83,2.07,10.32,2.87c3,.7,6.15.8,9.17,1.63a61.24,61.24,0,0,0,10.21,2.09c2.08.2,1.91.52,3.21-1.63a23.9,23.9,0,0,1,2-3.41c-.43-2.48-4.42-2.81-6.43-3.61-2.46-1-4.78-1.93-7.2-2.73-7.12-2.34-13.87-5.63-21.46-6.08-8.53-.51-16.77-.47-25.28-1.32-2.71-.28-5.4-.36-8.14-.5-2.49-.13-7.76.57-9.63-1.09"/><path class="cls-1" d="M248.37,166a14.66,14.66,0,0,0,5.38-2.55c4.1-3.19,5.47-7.66,8.6-11.44,1.62-1.94,4.73-2,5.69.61s-.62,4.43-2.17,6.33a27.33,27.33,0,0,0-3.55,5.42c-1,2.14-1,4.71-1.9,7-.59,1.59-2.08,4-4,4.43-1.57.32-3.6-1.56-4.89-2.23-1.64-.85-3.67-1.25-5.3-2-1.91-.85-5.5-1.26-4.22-4.2.42-1,1.33-1.11,2.29-1.16A22.07,22.07,0,0,0,248.37,166Z"/><path class="cls-5" d="M144.22,97.81s0,.06.07.06c.21-.23.85-.22,1.15-.28s.68-.16,1-.24a1.42,1.42,0,0,1,0-.41c-.45,0-.9.15-1.35.23-.19,0-.46,0-.6.15s-.13.32-.27.43"/><path class="cls-5" d="M148.52,96.26a2.67,2.67,0,0,0,1.33-.37c.43-.15.52-.45.56-.89a4.13,4.13,0,0,0-1,.53,8.06,8.06,0,0,0-1.56.85.37.37,0,0,1,.32-.12"/><path class="cls-5" d="M152.35,94.47c.39.15,1.16-.42,1.56-.59s.27-.32.32-.77a6.36,6.36,0,0,0-1.26.66c-.47.28-1,.3-.59.88"/><path class="cls-5" d="M156.84,92.27a3.82,3.82,0,0,0,1.47-.63.53.53,0,0,0,.08-.86c-.28.39-.94.59-1.36.84-.1.06-.45.16-.49.29a.36.36,0,0,0,.31.42"/><path class="cls-5" d="M160.27,90a3,3,0,0,0,.46.77,3.82,3.82,0,0,1,1.1-.51.81.81,0,0,0,.43-.32c.13-.24,0-.26,0-.52-.37,0-.74.35-1.07.47a8.27,8.27,0,0,0-.92.31c0,.09.06,0,.11,0"/><path class="cls-5" d="M164,88.5a5.23,5.23,0,0,0,.26.68,3.14,3.14,0,0,0,1.12-.43c.46-.19.35-.29.36-.73a3.4,3.4,0,0,1-.8.25c-.28.09-.53.23-.8.33"/><path class="cls-5" d="M167,87.16c.42,1.29.78.06,1.57,0-.2-.12-.11-.37-.26-.54a1.43,1.43,0,0,1-.64.35c-.27.12-.56.41-.86.44"/><path class="cls-1" d="M99.25,140.53c0,.12-.27-.45-.51-.8a14.6,14.6,0,0,1,5.24,1.39,4.6,4.6,0,0,0,0,1.34,36,36,0,0,1-4.18-1.31"/><path class="cls-1" d="M106.86,143.73a1.05,1.05,0,0,0,1-.71c1.26.87,2.86.82,4.15,1.47-.27,1.3-.74,1.22-1.83.89-.88-.26-2.28-.4-2.64-1.27"/><path class="cls-1" d="M123,149.81a5.59,5.59,0,0,0,2,.41,3.33,3.33,0,0,0,.16-.6c-.92-.49-1.57-.82-2.21.19"/><path class="cls-1" d="M128.74,151a14,14,0,0,0,4.38,1,2.9,2.9,0,0,0,.17-.55,8,8,0,0,0-4.09-.68,1.74,1.74,0,0,0,0,.64"/><path class="cls-1" d="M136.64,152.77c.68.44,3.54,1.3,4.38,1a1.79,1.79,0,0,0,.09-1.29,19.87,19.87,0,0,0-4.31-.64,2.19,2.19,0,0,1-.11,1.34"/><path class="cls-1" d="M144.47,153.91c.94.45,3.36,1.11,4.36.83.27-1.57-3-1.21-3.93-1.52a1.44,1.44,0,0,0-.13,1.34"/><path class="cls-1" d="M151.45,155.6c1.58.45,3.47.37,5.05,1a3,3,0,0,0-.33-1,9.5,9.5,0,0,1-4-.44c-.24.2-.22.38-.21.66"/><path class="cls-1" d="M158.86,157a15.81,15.81,0,0,0,4.35.84,1.57,1.57,0,0,0-.06-.61c-1-.17-4.16-1.41-4.54-.42"/><path class="cls-1" d="M166.58,157.26a15.43,15.43,0,0,0,.22,1.54c1.32-1,3.72,0,5.31-.39a1.26,1.26,0,0,0-.07-.61c-1.82.06-3.51,0-5.18-.12"/><path class="cls-1" d="M176,158.22a2.15,2.15,0,0,1,.41,1.28,24.56,24.56,0,0,0,4.2-.26c.09-.46.2-.88.31-1.31a43.24,43.24,0,0,0-4.67.49"/><path class="cls-1" d="M184.14,158.42c0,.22.13.9.18,1.3a17.49,17.49,0,0,0,4.43-.28,3.54,3.54,0,0,1,0-1.34c-1.43.22-2.86.08-4.18.27"/><path class="cls-1" d="M192.29,158.39c-.1,2.38,1.59,1.05,3,1a2.92,2.92,0,0,0-.16-1.28,18.25,18.25,0,0,1-2.81.75"/><path class="cls-1" d="M178.18,184.83c-11.55-3.68-16.66-15.28-14-26.68,1-4.26,1.36-8.32,3.47-12.27a70.55,70.55,0,0,1,6.53-9.75c3-3.83,12.18-10.3,16.9-6.84-2.77,1.9-5.95,3.17-8.21,5.67s-3.47,6.2-5.26,9c-4.52,7.1-7.07,14.26-4.42,22.38,3.22,9.85,14.59,14.68,24.15,15.58a43.69,43.69,0,0,0,11,0A22.91,22.91,0,0,0,227,164.4c1.79-7.26-.71-14.4-5-20.51-4.05-5.78-13.87-8.66-20.24-11.07-1.73-.66-4.06-1.13-5.53-2.17,1.28-.74,1.8-2.39,3.36-2.75,1.06-.23,3.66.56,4.79.75,3.21.51,6.55,1.19,9.71,1.88,7,1.52,13.11,5,16.56,11.26,4.33,7.93,7.14,15.32,5.19,24.43-1.83,8.54-5.21,16-12.4,21.37-5.88,4.4-14.79,4.58-21.72,3.27A197,197,0,0,1,178.18,184.83Z"/><path class="cls-2" d="M175.22,169.73c-.25,2-3,1-3.89,3a3,3,0,0,0,.89,1.45,26.45,26.45,0,0,1,4-2.12c-1.76,4.25-.7,6,2.86,2-1.06,3.11-1.22,7.27,2.83,3.62,2.72-2.45,2.53-4.38.25-7-2-2.28-3.64-4.11-6.78-3.75-3.53.4-4.13,2-3,5.06"/><path class="cls-1" d="M198,160.27a3.4,3.4,0,0,0,4-.19c-.55-1.7-2.65-1.21-3.9-.8a1.21,1.21,0,0,0,.34.78"/><path class="cls-1" d="M206.52,161.75c1.63.06,3.62.8,5-.25-.81-1.16-3.47-.74-4.8-.37"/><path class="cls-1" d="M216.28,162.56a25.06,25.06,0,0,1,4.16.23c-.46-1.62-3.95-1.71-4.78-.41"/><path class="cls-3" d="M230.68,168.69c.9.27,1.81.32,2.71.61s1.92.95,2.74.56a3.15,3.15,0,0,0,1.74-1.8,19,19,0,0,0,1.25-3.66c.17-.74.37-2-.27-2.52s-2.24-.77-3.17-1.25a22.28,22.28,0,0,0-3.21-1.4c-1-.32-1.93-.5-2.89-.84a6.94,6.94,0,0,0-2.37-.62c-.8.07-.69,1-.92,1.68-.29.8-.66,1.58-1,2.36a28.21,28.21,0,0,0-1.93,4.37c-.19.63-.2.66.3,1a5.68,5.68,0,0,0,1.23.62,7.8,7.8,0,0,0,2.41.54c.68,0,1.37,0,2,.08A7.08,7.08,0,0,1,230.68,168.69Z"/><path class="cls-1" d="M223.82,164.73c.26-.15.22-.74.48-1a3.79,3.79,0,0,0,1.66.64,16.93,16.93,0,0,1,2.4.81c-.43-.1-.41.39-.74.51s-.75-.14-1.07-.2c-.74-.13-2,.11-2.56-.42l.26.26"/><path class="cls-1" d="M231.05,166.54c.3.1.11-.51.5-.57a3.61,3.61,0,0,1,1.06.33c.82.28,1.57.68,2.35,1-.66-.22-1.2.11-1.84.09a5.9,5.9,0,0,1-1.91-.38,1,1,0,0,1,.19,0"/><path class="cls-1" d="M237.85,168.9a.15.15,0,0,0,.2,0,.85.85,0,0,0-.17-.52c.54-.34,1.65.35,2.2.56a11.38,11.38,0,0,1,1.79.58c-.22.15-.58.43-.85.41s-.75-.4-1.08-.49c-.64-.16-1.92,0-2.35-.6"/><path class="cls-1" d="M410.57,217.83c0,.1-.07.2-.11.31-.48,1.41-.94,2.83-1.33,4.27-.21.77-.38,1.56-.57,2.35s-.43,1.52-.59,2.29c-.24,1.1-.38,2.22-.61,3.32a13.37,13.37,0,0,1-.33,1.91,7.66,7.66,0,0,0-2.14,0c-1.3.09-2.62.09-3.92.2-.82.07-1.64.15-2.47.16-.64,0-1.32.1-2,.07a2.85,2.85,0,0,0-.24-1.33,16.87,16.87,0,0,0-.92-2A18.76,18.76,0,0,1,394,225c-.72-3.08-1.74-6-2.52-9.11-.3-1.16-.69-2.32-1.08-3.46a25.12,25.12,0,0,0-1.24-3.15,11.8,11.8,0,0,0-.8-1.54c-.3-.42-.6-.84-.92-1.24s-.58-.79-.86-1.18c-.44-.61-.89-1.2-1.33-1.79a30.9,30.9,0,0,0-3.21-4,5.31,5.31,0,0,1-.77-.8,4.71,4.71,0,0,0-.68-.81c-.63-.64-1.27-1.27-1.94-1.87a23.06,23.06,0,0,0-2.11-1.7c-.63-.43-1.2-.92-1.82-1.35-.26-.19-.43-.48-.72-.63s-.56-.24-.83-.4l-2.22-1.29c-2.78-1.61-8.55-3-9.52-6.29,2.51-4,28.71-11.43,34.61-11.75A106.82,106.82,0,0,1,419.89,174c4.87.73,7.5,3.09,11.72,5.3,6.18,3.22,6,3.87.58,8-2.76,2.14-5.43,4.41-8,6.78-.32.29-.66.57-1,.87a34.61,34.61,0,0,0-3.2,3.63,14.54,14.54,0,0,0-1.46,2.18c-.43.85-1,1.63-1.41,2.49-.32.61-.66,1.2-1,1.8s-.62,1.43-1,2.14c-.92,1.88-1.81,3.77-2.58,5.72C412,214.59,411.17,216.16,410.57,217.83Z"/><path class="cls-4" d="M368.15,185.56c4.33.13,9.55,3,14.35,3.72a66.21,66.21,0,0,0,17.07.65c9-1.08,21.53-1.59,29.68-6.52-4.43-.72-10.37,2.73-14.75,3.59a163.42,163.42,0,0,1-16.31,1.89c-5.53.51-11,1.25-16.77.81-2.89-.21-6.05-.11-8.66-1.29-2.12-1-3.9-2.79-6.12-3.49"/><path class="cls-1" d="M589.78,42.28c.61-8,13.38-13.7,20-14.73,9.75-1.53,19.33-1.15,27,6,6.52,6,7.72,15.8,5.64,24.22-2.26,9.16-12.19,14-20.9,14.07C605,72,598.72,48.15,609.15,38.1c11.24-10.85,27.06-12.54,40.93-6.81,10.39,4.29,15.07,16.06,16.92,26.5,1.82,10.24,7.43,34-4.65,40.38a73.81,73.81,0,0,0,.35-46.32c-2.49-7.59-8.48-12.88-15.83-15.48S629.42,31.67,622,34.5c-7.9,3-11,10.85-11.87,18.71S618.26,65.78,625,64.89c7.69-1,12.48-9.9,12.64-17.25s-6.48-11.87-12.45-13.7c-8.09-2.47-16.4-2.61-24,1.74-6.59,3.76-12.33,11.2-13.54,18.64"/><path class="cls-1" d="M634.64,58.69c-5.55-.83-10.54-8.44-14.39-12.19-1.58-1.53-3.25-3.31-5-4.66-2.46-1.94-2.7-1-4.46,1.32,4.1,3.54,8.37,7.12,12.16,11,2.22,2.29,4.56,4.71,6.95,6.74.49.42,1.38,1.53,2.05,1.55,1.07,0,2.67-2.12,2.52-2.41"/><path class="cls-1" d="M637.71,63.59c0,2.58,3.14.31,4.74,1.06a5.7,5.7,0,0,1-2.25,6.18c-2.66,1.57-3.76-.62-2.15-2.57a3,3,0,0,1-2.45-1.72"/><path class="cls-1" d="M638.46,52.29c-2.33.45-5.78-2.78-7.76-4.06-2.84-1.82-5.1-4.16-7.72-6.33-1.65-1.36-4-2.69-5.34-4.35-2.14-2.63-.19-3,2.41-1.8,4.2,1.86,8.28,5.07,11.69,8,2,1.74,3.94,3.51,5.92,5.22s3.19,2,1.54,4.72"/><path class="cls-1" d="M643.28,53.29a3.73,3.73,0,0,1,1.63,2.39c1.3,0,6-4.16,4.69,1.51-.66,2.78-5.78,5-4.61.46-2.71.08-4.16-2-3.48-4.56"/><path class="cls-1" d="M584.52,109.89A9.76,9.76,0,0,1,584,113c-.3.9-.44,1.78-.76,2.64,1.36.57,2.29,2,3.62,2.64a59,59,0,0,0,7.34,3.53,38.51,38.51,0,0,0,10.7,2.41,35.71,35.71,0,0,0,8.52-.18c3.39-.68,6.91-1.27,10.22-2,1.77-.39,3.43-1.22,5.19-1.52.17-.63-1.06-1.55-1.48-2s-1-1.36-1.39-1.54c-.23-.11-.62.07-.91.11-.49.06-1,.09-1.47.12-.93.05-1.82.27-2.75.3-2.47.06-5,.26-7.46.51a50.32,50.32,0,0,1-7.25.53,39,39,0,0,1-6.54-1,33.48,33.48,0,0,1-4.83-1.32c-1.72-.65-3.45-1.45-5.13-2.23-.71-.33-1.39-.68-2.08-1.06s-2.23-1-2.4-1.71"/><path class="cls-2" d="M343.8,174c-4.5-1.57-9-3-13.45-4.8a70.81,70.81,0,0,1-7.74-3.63c-2.18-1.21-4.11-2.76-6.18-4.08-1.61-1-6.26-5.4-1.81-5.64a17.05,17.05,0,0,1,5.2,1c1.93.59,3.7,1.33,5.63,1.85,1.54.42,3.81,1.41,3.45-1.07-.48-3.24-4.24-5.63-6-8.21-2.46-3.55-4.62-8-4.73-12.37-.07-2.54,2.11-3.16,4.16-2.2,3.39,1.58,5.16,5.73,7.39,8.53,3.82,4.78,7.57,9.53,11.74,14,2.54,2.72,4.61,5.22,7.7,7.34a12.32,12.32,0,0,0,4.36,2.21,4,4,0,0,0,3.34-.74c.69-.69.68-2,.82-2.87a48.1,48.1,0,0,1,1.37-6.52c1.2-3.93,3.76-7.17,8.15-5.13,3.53,1.65,5.35,6.62,9.83,7.1,4.89.54,7.57-3.13,9.93-6.54,3.1-4.47,7.18-16.55,15-14.54,6.46,1.66,4.91,12.21,10.89,15.06,6.73,3.2,15.19.31,21-3.53a65.73,65.73,0,0,0,6.48-4.88c1.5-1.28,2.64-3,4-4.39,4-4.06,9.26-6.4,12.79-10.93a20.29,20.29,0,0,1,6.34-5.23c1.86-1,3.94-2.67,6.14-2.77,4.76-.21,4,5.11,3.1,8.24C471,135,466.64,141,462.22,145c-1.76,1.58-4.34,3.19-5.15,5.53-.89,2.58,2,2.48,3.68,2.7,3.8.5,10.17-1.44,10.6,4.1.11,1.46.33,2.72-.49,4a8.14,8.14,0,0,1-3.95,3.08c-4.65,2.09-9.93,2.53-14.82,3.83-6.45,1.71-13,2.65-19,5.61-1.49.73-2.87,1.6-4.29,2.42a42.71,42.71,0,0,0-3.77,2.6,30.33,30.33,0,0,1-5.32,2.89,56.89,56.89,0,0,1-12.87,3.68,91.57,91.57,0,0,1-17.32,1.74c-6,0-11.49-.81-16.87-3.45-1.36-.66-2.79-1.19-4.2-1.8a59.19,59.19,0,0,0-12.9-4.21C351.52,177,347.66,175.3,343.8,174Z"/><path class="cls-3" d="M392.78,183.78c-1.93,2.62-10.56-2.24-13.73-2.49-5.56-.45-10.42.5-15.72-1-13.27-3.74-8.5-17.18-15.05-25.52-2.8-3.56-8.9-4.62-5.79-9.83,3.75-6.29,8.28-1.41,11.24,2.67,6.71,9.26,9.61,23.28,23.81,23.7,8.06.24,4.38-6.79,9.32-10.38,7.5-5.47,6.25,4.4,7.57,8.49,1.59,4.92,8,7.24,11.82,2.76s2.18-11.62-1.29-15.8c-3.69-4.41-7.35-4-7.44-10.73,0-4.13.42-10.48,5.18-11.88,7.81-2.3,6.36,6.83,7.46,11.13,1.42,5.55,5.78,8.71,11.52,8,8.74-1,10-7.56,13.93-13.74,5.11-8,11.05,3.16,9.12,9.07-1.65,5-6.49,9.84-10.1,13.78-2.27,2.49-5.13,4.56-6.88,7.48-2,3.4-1.84,7.23-4.92,9.85-2.53,2.15-7,3-10.19,3.53-4.79.76-9.38,1.78-14,2.54-2,.32-5.14.89-7.11.59-4.26-.64-5.84-4.93-9.08-7.13"/><path class="cls-2" d="M375.32,143.91c-1.37-.62-4.63-5.42-7-7.26-3.18-2.49-7.1-3.4-10.25-5.76-5.56-4.16-10-15.14-2.39-18.82,3.14-1.52,8.17-.95,10.34,2.5,2,3.1.44,7.29,3,10.48,4.53,5.77,13.07,10.2,9.1,19.24-2.36.41-4.14-3-5.93-4.4"/><path class="cls-2" d="M323.9,115.33c.18-.11.87.2.49-1.35-4.39-.57-17.08-9.93-9.36-13.43,3.72-1.69,7.74,1.54,9.66,4.56,2.44,3.84,1.23,8.32-.62,12.34"/><path class="cls-2" d="M419.17,123.27c.55-.1.77.09.65.55-5-4.92,11.35-12.94,2.79-17.77-4.68-2.64-7,3.64-7.13,6.84-.22,4.26,1.65,7.36,2.43,11.09a2,2,0,0,0,1.31,0"/><path class="cls-1" d="M551.24,91.71c2-3.8-18-8.9-21-9.41-4.21-.72-8.65-.44-13-1.45-5.22-1.22-11.59-.39-17.1.05-15.82,1.29-27.55,18.63-21.15,33.41,5,11.46,15.93,20.69,23.89,30,11.91,13.9,19.82,31.93,18.92,50.39-.89,18-7.38,36.62-19.87,49.93-10.52,11.21-20.93,21.78-34.65,28.95a238.31,238.31,0,0,1-49.74,18.72c-11.34,3-22.7,5.8-34.56,6.76-14.49,1.17-28.6,3.39-43.14,2.51-12.56-.76-25.33-1.3-37.52-4.67a130.31,130.31,0,0,1-26.41-11c-9.46-5.1-18.1-11-23.92-20.09-4.92-7.68-5-15.58-5.74-24.71-.36-4.46-.75-8.66-.2-13,.77-6,2.55-11.37,4.4-17.16a37,37,0,0,1,6.71-12.58,42.29,42.29,0,0,1,4-4.27c1.84-1.76,4.21-3.08,6.07-4.77a26.36,26.36,0,0,1,7.56-4.55,59.4,59.4,0,0,1,18.5-4.25c8.52-.69,17.13-1.65,25,2.42a46.43,46.43,0,0,1,10.16,7.2A55,55,0,0,1,340.17,206c.86,1.72,1.63,3.5,2.32,5.3q.51,1.35,1,2.73c.25.79.32,1.58.57,2.36,1.8,5.42,2,11,1.86,16.67a47.16,47.16,0,0,1-1.38,10.44,27.93,27.93,0,0,1-1,3.38,37.21,37.21,0,0,1-2,3.93,22.67,22.67,0,0,1-3.49,4.7,9.41,9.41,0,0,1-1.07,1.12c-.77.6-1.65,1.1-2.47,1.64a43.32,43.32,0,0,1-7.62,3.87,26.54,26.54,0,0,1-6.2,1.87,86.16,86.16,0,0,1-11.34,1.19,32.79,32.79,0,0,1-4.95-.36,9.43,9.43,0,0,1-3-.78,14.72,14.72,0,0,0-3.25-.8,23.17,23.17,0,0,1-6.36-2.63,22.62,22.62,0,0,1-5.3-4.7c-1.08-1.27-2.38-2.36-3.45-3.66a26.57,26.57,0,0,1-3.78-6.14,43.41,43.41,0,0,1-2.42-6.44,32.66,32.66,0,0,1-.85-5.49,28.26,28.26,0,0,1,.87-10,26.25,26.25,0,0,1,4.39-9.05,28.92,28.92,0,0,1,14.45-10.34,67.3,67.3,0,0,1,10.09-2.5,60.47,60.47,0,0,1,10.06-.38,58.9,58.9,0,0,1,8.58.73c1.35.23,2.7.38,4.06.57a14.34,14.34,0,0,1,2.57.38c0,.46.36.9.55,1.31a9.88,9.88,0,0,0,.78,1.47,7.6,7.6,0,0,1,.68,1.57,4.53,4.53,0,0,1,.6,1.64c-.6-.19-1.32-.17-2-.34s-1.66-.4-2.48-.55c-1.08-.2-2.14-.54-3.22-.7-1.36-.2-2.75-.3-4.11-.44a86.07,86.07,0,0,0-8.8.06c-1,0-2,.1-3,.13a32.61,32.61,0,0,0-5.39.62,41.91,41.91,0,0,0-5,1.23,24.24,24.24,0,0,0-5.08,2.57c-2.75,1.7-5.75,3.46-7.79,6.07a24.09,24.09,0,0,0-3.12,4.82,16.2,16.2,0,0,0-1.07,4.57,27.07,27.07,0,0,0,1.51,13.09,29.63,29.63,0,0,0,3.59,6.79,26,26,0,0,0,5.34,6,30.41,30.41,0,0,0,17.42,5.86c1.89.06,4.28.38,6-.61s3.75-1.34,5.56-2c1.17-.44,2.22-1.11,3.34-1.64a8,8,0,0,0,1.53-.88,28.49,28.49,0,0,0,3.77-3c.69-.76,1.44-1.47,2.12-2.24a23.35,23.35,0,0,0,2-2.89,20.81,20.81,0,0,0,2.26-4.11,36.7,36.7,0,0,0,2.11-10.17,50.39,50.39,0,0,0-.44-11.51c-.33-2.12-.28-4.43-.88-6.49-.42-1.46-1.21-2.81-1.62-4.26a13.6,13.6,0,0,0-1.47-3.11,41.82,41.82,0,0,0-14.39-14.45c-10.76-6.28-26.82-8.62-38.38-3.86a72,72,0,0,0-13.43,6.85c-7,4.84-11.82,13.14-13.71,21-3,12.61-3.23,23.33.82,35.58,1.11,3.35,2.84,5.8,4.69,8.89a58.12,58.12,0,0,0,34.6,25.89c3.55.88,7,1.56,10.57,2.27,10.53,2.11,21.05,4.93,31.8,5.86,12,1,23.81-.62,35.76-.74,7.75-.07,17,.09,24.55-2,6.55-1.78,12.9-4.08,19.34-6.15,14.67-4.74,27.46-12.71,41.65-18.58,3-1.25,5.54-2.6,8.7-3.23a24.75,24.75,0,0,0,7.59-2.42c4.37-2.44,7.53-6.49,10.7-10.25,6.13-7.28,12.41-13.78,17.47-22.08,5.7-9.35,9.77-19.1,11-30.11a57.49,57.49,0,0,0-3.87-26.78c-2.77-6.37-7.08-11.85-10.74-17.7-3.53-5.65-6.75-10.53-11.69-15.17-4.13-3.88-8.26-7.79-11.36-12.57-5-7.71-10.13-16.51-7.76-25.9,2.27-9,7.85-15.78,15.65-21,5.91-4,13.14-5.91,20.19-6.45,7.45-.58,13.88,1.24,21.12,3.12,6.31,1.63,32,5.77,26.67,16,0-.58-.12-1.17-.12-1.75"/><path class="cls-2" d="M565.36,191.39c-3.06,6.6-7,13-8.89,20.1-1.84,6.89-2.91,14.32-1.92,21.47a34.15,34.15,0,0,1-8.5,5.23c-.23-1.41-.39-2.83-.52-4.2a62.91,62.91,0,0,1,.56-11.43,38.72,38.72,0,0,1,2.42-11.31,132.52,132.52,0,0,1,6.21-12.31c2-3.73,3.79-7.57,5.54-11.44s3.74-7.66,5-11.68c1.28-4.21,1.19-8.92.9-13.24a38.44,38.44,0,0,0-.46-4.62c-.23-1.22-1.14-3.4-.61-4.61.42-1,1.84-1.56,2.72-1.95,1.12-.5,2.26-1.06,3.42-1.51.91-.35,2.55-1.24,3.55-.81s2.26,3.13,1.6,4.22l-.72-1.92c0,1.5,1,3,1.06,4.53a39.8,39.8,0,0,1,0,5.35c-.3,3.92-1.72,8-3,11.69C571.51,179.28,568.18,185.32,565.36,191.39Z"/><path class="cls-2" d="M581.8,66.94s0-.17.31,0a2,2,0,0,1,.58.61,7.63,7.63,0,0,1,.8,1.62,11.92,11.92,0,0,1,.68,3c.08.57.92,6.54,1.08,6.5,1.17-.3,1.9-1.35,3-1.74a15.19,15.19,0,0,1,3.33-.7,3.17,3.17,0,0,1,2.53.59,7.12,7.12,0,0,0,2.2,1.43c1.51.36,2-3.23,3.07-1.94.58.66.54,1.6.87,2.36s1.07,1.11,1.9,1.45c1.21.49,2.51.58,3.67,1.16a5,5,0,0,1,2.1,2.14,17.49,17.49,0,0,1,2.21,5.68c1.07,5,.53,11-4.24,13.79-2.3,1.35-5.38,1.38-8,1.35a17.45,17.45,0,0,1-6.49-1.35c-3.79-1.7-5.49-5.52-7-9.08a4.17,4.17,0,0,0-1.45-1.9c-.83-.54-1.58-.7-1.25.54.49,1.85,2.35,3.64,2.73,5.46.3,1.48-.93,2.73-2,3.66a6.32,6.32,0,0,1-6.23,1.14c-3.35-1-5.45-4.64-7.59-7.3a15.69,15.69,0,0,1-3.1-8.76,7.78,7.78,0,0,1,.13-3.3c.58-1.47,1.26-2.94,1.87-4.42a14.86,14.86,0,0,1,.94-1.87c.11-.19.23-.38.35-.56s.26-.35.36-.53a.56.56,0,0,1,.09-.17,1.86,1.86,0,0,1,.26-.23l.54-.5c.23-.2.44-.43.67-.64s.55-.56.82-.84a7.73,7.73,0,0,0,.62-.77l.64-.86c.14-.19.27-.4.43-.58a3,3,0,0,1,.48-.53l.24-.13.26-.17a13.33,13.33,0,0,1,2-1,11,11,0,0,1,2.16-.65,8.36,8.36,0,0,1,2.17-.16,6.34,6.34,0,0,1,2,.49,5.35,5.35,0,0,1,1.75,1.27"/><path class="cls-5" d="M593.24,79.45c-.13,1.5-2.49,2.6-3.88,2.36-.48-.78-1-3.14.07-3.72.6-.35,1.19.44,1.88.39s.91-.76,1.8-.62a1.59,1.59,0,0,1-.63,2.45"/><path class="cls-3" d="M571,107.19a17.75,17.75,0,0,0-1.23,5,13.5,13.5,0,0,0-.09,1.9c0,1,.05,2.11-.79,2.86a6,6,0,0,1-2.21,1,27.75,27.75,0,0,1-8,.45,25.11,25.11,0,0,1-8.36-1.51,17.2,17.2,0,0,1-3.94-2.11,4.51,4.51,0,0,1-1.3-1.38c-.39-.64-.42-.84,0-1.48a10.27,10.27,0,0,0,1.26-3.67c.11-.69.23-1.38.35-2.08.27-1.43,1.29-2.5,1.6-3.85a26.75,26.75,0,0,1,1.36-4.08,62.62,62.62,0,0,1,4.54-9c1.84-3,3.49-6.21,6.27-8.4a82.42,82.42,0,0,1,11.37-7.31,38,38,0,0,1,7-3c2.48-.79,4.4-.37,6.81-.27a.55.55,0,0,0,0-.38l.21.2c-.29,1.47-2.21,3-3.14,4.05-1.36,1.59-2.71,3.19-4.14,4.72-1.74,1.86-5.87,3.9-4.8,7,.56,1.65,2.32,2.51,3.6,3.5a27.15,27.15,0,0,1,4.25,4.12c.85,1,2.12,1.79,2.9,2.79s.59,2.81.58,4.09a42.87,42.87,0,0,1-.63,7c-.41,2.35-1.21,4.67-1.64,7a49.42,49.42,0,0,0-.71,8.34,28.08,28.08,0,0,0,.48,6.54c.33,1.48.81,2.91,1.2,4.36a34.6,34.6,0,0,0,3.45,8.29c4,6.78,11.63,10.62,19,12.29a49.85,49.85,0,0,0,8.75,1.32c1.32.06,2.65-.11,4,0a7.24,7.24,0,0,0,3.58-.82,13.52,13.52,0,0,0,1.53-1,16.39,16.39,0,0,0,3.12-2.82,28,28,0,0,0,4.63-8.5,28.75,28.75,0,0,0,1.57-9.19,22.92,22.92,0,0,0-.83-6.92c-.37-1.2-.76-2.37-1.2-3.54a37.62,37.62,0,0,0-1.86-3.7,18.77,18.77,0,0,0-1.82-2.87,17.12,17.12,0,0,0-4.68-4.13,7.36,7.36,0,0,0-2-1c-.46-.11-.9-.29-.83-.87.11-.91,1.24-1.66,1.65-2.45a10.65,10.65,0,0,1,1.35-2.62c.65.48,1.28,1,1.89,1.49s.87,1,1.42,1.41,1.14.9,1.7,1.38a23.1,23.1,0,0,1,3.72,3.87c.67,1,1.39,1.78,2,2.79s1.14,2,1.64,3.06a19.47,19.47,0,0,1,2.08,5.66c.32,2,.59,4,.94,6a24.84,24.84,0,0,1,.17,7.25,21,21,0,0,1-2.38,6.9,44.11,44.11,0,0,1-4.65,7.21,26.94,26.94,0,0,0-2.07,2.46,4.43,4.43,0,0,1-.55.9c-.29.3-.66.54-1,.83a16.89,16.89,0,0,1-1.9,1.47,21.44,21.44,0,0,1-6.2,2.91,32.61,32.61,0,0,1-7.12,1.25c-.82,0-1.63,0-2.44,0-3.78-.12-7.4-2.2-10.83-3.6a63.38,63.38,0,0,1-8.33-4.15,16,16,0,0,1-3.46-2.32c-.87-.93-1.74-1.88-2.61-2.82a34,34,0,0,1-3.25-3.54,31.26,31.26,0,0,1-2.22-3.57,11.45,11.45,0,0,1-.77-1.76,17.24,17.24,0,0,1-.86-3.32c0-.35.06-.68.06-1,0-.54-.14-1.08-.18-1.61-.09-1.22-.06-2.4-.13-3.62a111,111,0,0,1,.57-14.23,31.18,31.18,0,0,0-.17-6.48,11.45,11.45,0,0,0-.9-3.13,7.2,7.2,0,0,0-.69-1.32,2.83,2.83,0,0,0-3.26-1A5,5,0,0,0,571,107.19Z"/><path class="cls-1" d="M543.18,121.24a17.1,17.1,0,0,1,2,1.11,28.94,28.94,0,0,0,3.89,1.26,34.8,34.8,0,0,0,7,1c.65,0,5.93-.82,7-1a24.37,24.37,0,0,0,7-2.56,22.15,22.15,0,0,0,.58,4.64,22.82,22.82,0,0,0,.46,2.27c1.1,4.77,2.6,9.47,3.78,14.24a26.57,26.57,0,0,0,1.27,4.85,45.28,45.28,0,0,1,1.83,4.15,8.37,8.37,0,0,1-2,.56,13.62,13.62,0,0,0-2.57,1.33,33,33,0,0,1-5.94,2.66,55.66,55.66,0,0,1-11.46,2.7c-.56.07-2.1.72-2.51.53-.76-.34-1.38-2.38-1.89-3-.8-1-1.87-1.81-2.6-2.86a22.68,22.68,0,0,1-1.49-3.19A40.77,40.77,0,0,1,544,138c-.19-1.46-.36-2.93-.5-4.41-.1-1.18-.39-2.38-.45-3.54A36.91,36.91,0,0,1,543.18,121.24Z"/><path class="cls-3" d="M620.91,93.77c-.36.88-1.45,2-1.38,3,1.59.35,2.51,3.66,2.69,5a6.72,6.72,0,0,1-2.16,6c-3.28,2.89-7.9,2.69-11.61,1.17-3.5,4.74-11.53,2.9-15.66.12a13.92,13.92,0,0,1-5.16-5.55c-.68-1.36-1.73-3.27-1.32-4.85a22.38,22.38,0,0,1,1.9-3.29c1.11.06,1.89,2.4,3.35,2.6a1.68,1.68,0,0,0,1.49-2.86A4.15,4.15,0,0,0,595,92.9c1,.78,1.66,2.28,2.76,3.1,1.32,1,3.3.35,4.64-.48,1.82-1.13,3-3.5,3.51-5.54a33,33,0,0,0,.8-3.93,24.28,24.28,0,0,0,0-4.09c-.1-1.7.15-1.76,1.48-2.71,1.57-1.11,4.38-1.89,6.16-1s3.31,2.88,4.71,4.15C622.18,85.27,622.45,90,620.91,93.77Z"/><path class="cls-2" d="M619.26,109.48c-2.37-.78-2.88-3.08-2-5.2a7.55,7.55,0,0,1,3.58-3.79,11.69,11.69,0,0,0,2.5-1.72c.61-.6,1.06-1.41,1.72-2,1-.82,2.11-.34,1.14.89A7.75,7.75,0,0,1,624,99.55c.1-.07.9.09,1.13,0a6.17,6.17,0,0,0,1.19-.4c.74-.28,1.45-.62,2.17-.93a13.79,13.79,0,0,1,3.76-1.15c2.43-.36.12,1.18-.72,1.65s-2.88,1.31-3.38,2.39c1.38,0,2.38-.66,3.58-1.25.56-.28,2.69-1.39,3.23-.94,1.27,1-5,3.58-5.91,3.55-.12,0,.31.43.36.46.26.14.64,0,.91,0a6.51,6.51,0,0,1,1.88.44c.87.33,2.55,1.13,1.53,2.26-1.16,1.29-5.25-.89-6.54-1.1.44,1.09,4,2.19,3.46,3.66-.72,1.82-3.42-1-4.18-1.47-1.35-.77-3.62-2.1-4,0a5.32,5.32,0,0,1-.67,2.34c-.48.77-1.54,1.86-2.4,1.15"/><path class="cls-3" d="M537.55,115a12.75,12.75,0,0,0,3.69,4.24c.83.52,1.76,1,2.62,1.46a22.6,22.6,0,0,0,3.37,1.5,25.51,25.51,0,0,0,12.49,1.56,37.06,37.06,0,0,0,6.32-1.52,23.7,23.7,0,0,0,4.47-2.25,9.78,9.78,0,0,0,3.61-4,13.07,13.07,0,0,0,1-5.81,5.62,5.62,0,0,0-.5-2.22,12.81,12.81,0,0,0-1.31-1.75,14.09,14.09,0,0,0-1.64,3.18c-.5,1.45-.08,3.21-.33,4.74a5.88,5.88,0,0,1-2.4,3.46,10,10,0,0,1-4.24.93,67.33,67.33,0,0,1-10.71-.13,17.07,17.07,0,0,1-3.8-.82,14.11,14.11,0,0,1-2.16-1.09,19.86,19.86,0,0,1-4.79-3.6,16.39,16.39,0,0,1-3.14-4.67,22.71,22.71,0,0,1-1.33-4.84c-.11-.53-.22-1.06-.29-1.6a7.43,7.43,0,0,0-.07-1.17c-.13-.36-.08-.13-.34-.21-.45-.12-1-.15-1.42-.23s-1-.15-1.42-.23a7,7,0,0,0-1.41-.21,4.41,4.41,0,0,0,.16,2.16,13.58,13.58,0,0,0,.56,2.51,27.51,27.51,0,0,1,.78,3.65,21.07,21.07,0,0,0,1.39,5.39C537,113.89,537.24,114.42,537.55,115Z"/><path class="cls-1" d="M581.17,78.73c.48-.28,1-.57,1.46-.83,1.46-.8,2.5-1.36,2.64.72a5.77,5.77,0,0,0,2.89-2.56c.69-1.33.1-2.58-.24-4a7.05,7.05,0,0,0-1.17-2.9,7.84,7.84,0,0,0-2.44-1.46,4.5,4.5,0,0,0-2.06-.41c-1,.2-1.68,1.63-2.16,2.48a40.44,40.44,0,0,0-2.28,5.67,32.2,32.2,0,0,0-1.1,3,13.2,13.2,0,0,0-.73,2c-.09.66.38.55.95.36A23.84,23.84,0,0,0,581.17,78.73Z"/><path class="cls-1" d="M571.48,84.56a.89.89,0,0,1-.1-.54c.45-2.78,4.86,2.15,5.56,2.69.9.69,1.72,1.49,2.64,2.15a32.78,32.78,0,0,1,3,1.85c.86.8,3.17,3.79,2.37,5.05-1.09,1.72-3.67-.55-4.41-1.44a39.3,39.3,0,0,0-3.49-3.83c-1.59-1.49-3-3.13-4.53-4.65A5.57,5.57,0,0,1,571.48,84.56Z"/><path class="cls-1" d="M580.76,69.13c-.87,1.19-1.15,3.5-1.93,5a30.82,30.82,0,0,1-3.64,5.19c-1.85,2.26-5.2,5.29-1.31,7.09.54-1.09.32-2.62.94-3.78a7.47,7.47,0,0,1,1.27-1.45c.62-.72,1.07-1.49,1.69-2.34"/><path class="cls-1" d="M567.58,86.22c-.93.64-2.26.12-1.76-1.18.33-.87,1.68-1.94,2.32-.78A1.42,1.42,0,0,1,567.58,86.22Z"/><path class="cls-1" d="M557.47,94.53c-1-1,1.34-3.13,2.39-2.57.47.26.33.9.17,1.35C559.7,94.18,558.36,95.47,557.47,94.53Z"/><path class="cls-1" d="M551.48,102.51c-.7-1.42,2.14-2.86,2.22-1.13C553.74,102.36,552.09,103.76,551.48,102.51Z"/><path class="cls-1" d="M547.73,111.68c-1.14-.32-.8-2.12.14-2.55C549.62,108.34,549.61,112.22,547.73,111.68Z"/><path class="cls-1" d="M602,86.33c.06.31.37.81.47,1.2a6.31,6.31,0,0,1,.15,1.74,3,3,0,0,1-1.49,2.16,3.29,3.29,0,0,1-2.76-.05c-.41-.2-1.43-.72-1.47-1.25.64,0,1.26.35,1.93.27a4,4,0,0,0,1.82-.74,4.7,4.7,0,0,0,1.59-3.6"/><path class="cls-1" d="M605.39,81c.05.18.51.46.62.74a.9.9,0,0,1-.19,1.19,3.39,3.39,0,0,1-2.58.47,3.53,3.53,0,0,0,1.54-.63c.5-.49.34-1.11.37-1.74.09,0,.07-.06.11-.08"/><path class="cls-1" d="M601.21,82c-.37-.15-.24-.82,0-1.1a1.35,1.35,0,0,1,1.1-.5c0,.21-.57.55-.73.79s-.17.69-.38,1"/><path class="cls-1" d="M599.82,85.81c-.78.18-1.56-.66-2.28.09a3.15,3.15,0,0,0-.54,2.32,5.07,5.07,0,0,1,.88-1.77,1.5,1.5,0,0,1,.92-.58c.24-.06.91,0,1-.25"/><path class="cls-1" d="M599.1,85.47a3.24,3.24,0,0,1-.37-.93c-.09.29.13.9-.27,1s-.59-.5-.75-.71c0,.26.23.78,0,1a1.66,1.66,0,0,1-1.14-.08c.22.15.89.45.58.8-.15.19-.92.32-1.16.41.34.06,1,.47,1,.84.15-.19.07-.54.21-.77a4,4,0,0,1,.51-.64,2,2,0,0,1,.7-.46c.22-.11.67-.12.81-.26"/><path class="cls-1" d="M601,81.87c0-.43-.41-.65-.61-1,.18.06.5.49.69.41s0-.85,0-1.07c-.07.6.61.71.51,0a2.88,2.88,0,0,0,.23.34c.25-.16.35-.55.58-.78a2.5,2.5,0,0,1-.27.77"/><path class="cls-1" d="M623.92,105.66c1.7.72,3.16,2.93,2.06,4.93-1,1.76-3.79,3.29-5.62,2.27a3.51,3.51,0,0,1-1.81-2.11c-.31-1.58,1.2-.65,2.11-1a4.32,4.32,0,0,0,1.85-2.61c.11-.37.09-1,.36-1.35s1-.63,1.34-.29c.12.12.11.15.12.31"/><path class="cls-2" d="M522,77.85a5.72,5.72,0,0,0-.39.57,4.74,4.74,0,0,0-.87,2.3c0,.31.1.81.42,1s.35-.08.49-.2.51-.4.78-.6.81-.55,1.23-.8a6.35,6.35,0,0,1,2-.81c.27,0,.55,0,.82-.07s.61,0,.68-.19a.9.9,0,0,1,0-.49c0-.17-.07-.34-.07-.51a2.18,2.18,0,0,1,.1-.76c.09-.23.25-.42.35-.64.24-.49.5-1,.77-1.45.41-.72.88-1.41,1.26-2.15a6.42,6.42,0,0,0,.76-3.16c0-.48-.41-3-1.33-2.52-.55.3.3,2.5.29,3.1,0,.89-.63,2.31-1.16,1-.36-.94-.32-2.23-.85-3.1a1,1,0,0,0-1.15-.59c-.72.2-.48.59-.35,1.15.25,1.07.89,2.41.52,3.57-.71,2.28-1.41-2.58-2.38-1a5.42,5.42,0,0,1,.47,1.94c0,.88-.47,1.61-1.21.68-1,.26-.46,1.19-.44,1.91A2.82,2.82,0,0,1,522,77.85Z"/><path class="cls-1" d="M612.85,94.53a32.54,32.54,0,0,1-6.68,3.84c-1,.44-1.95.8-3,1.15a10.21,10.21,0,0,1-2.19.72c.12,1.49,3.71.71,4.62.52a18,18,0,0,0,5.42-2.13c2-1.18,4.29-2,5.76-3.76a15.26,15.26,0,0,0,2.9-5.38,12.39,12.39,0,0,0,.48-5.24,3.42,3.42,0,0,0-.87-2c-.19-.23-1.37-2-1.76-1.48-.14.17.36.93.41,1.12.15.55.14,1.14.26,1.7a8.39,8.39,0,0,1,.18,2.64C618.05,89.79,615.62,92.43,612.85,94.53Z"/><path class="cls-1" d="M587,65.54c.25.74.49,1.49.78,2.2.41,1,.86,2.05,1.24,3.08s.58,1.92.89,2.83a10.15,10.15,0,0,1,.57,2.92c0,.52.24,1.39,0,1.85-.19.29-1,.88-.39,1.22a1.42,1.42,0,0,0,.61.16,2,2,0,0,0,1.4-.47c.29-.27.61-.75.27-1.12-.14-.15-.37-.16-.53-.26s-.16-.28-.19-.45,0-.35,0-.51-.09-.46-.14-.69c-.11-.5-.22-1-.3-1.49s-.13-1.08-.18-1.63c0-.37,0-.74-.09-1.11a12.62,12.62,0,0,0-.41-1.92,66.79,66.79,0,0,1-2.53-11.25c-.5-4.54.75-8.53,1.78-12.87a52.19,52.19,0,0,1,5.23-12.84c2-3.73,6-7.1,9.56-9.35,4.78-3,10.51-4.83,16-6.19a35.69,35.69,0,0,1,9.58-1.19c2,.08,3.87.59,5.82.77,4.7.43,8.91,3.26,13.09,5.22,2.74,1.28,4.79,3.19,7.1,5.17A45.69,45.69,0,0,1,666,40.43a37.88,37.88,0,0,1,4.89,14.64c.34,3.57-.42,7.09-.14,10.6a21.07,21.07,0,0,1-1,9.07A56.9,56.9,0,0,1,665.94,83c-1.62,3-4.36,5.67-6.44,8.35a48.79,48.79,0,0,1-8.16,8.45c-3.38,2.63-6.87,4.91-10.46,7.34-2.26,1.53-5.24,3.86-7.93,4.38l-.12.32c-.28,0-.48.17-.76.21-.09,1,1.39,3.25,2.07,4a57.87,57.87,0,0,1,8.05-3.25A67.2,67.2,0,0,0,663,100.61c3.46-3,7.23-6.77,9.5-10.82a104.16,104.16,0,0,0,7.2-14.46,58.62,58.62,0,0,0,3.12-14.95c.68-7.08-1.15-14.34-3.73-20.9-1.14-2.91-1.49-5.61-3.22-8.29a45.44,45.44,0,0,0-4.55-6.06,71.52,71.52,0,0,0-6.7-6.56,45.44,45.44,0,0,0-7.56-4.89c-6.61-3.72-14-6.87-21.6-7.59A54.54,54.54,0,0,0,622.14,6a84,84,0,0,0-13.3,2.93A37.55,37.55,0,0,0,599,13.45c-7.25,5.05-10.91,13.87-14.12,21.86-1.2,3-1.4,6.11-1.71,9.32a31.12,31.12,0,0,0-.21,4.29,40.42,40.42,0,0,0,1.85,11,38.5,38.5,0,0,0,1.47,3.73C586.58,64.26,586.8,64.89,587,65.54Z"/><path class="cls-2" d="M551.58,245.52a20.27,20.27,0,0,0,2.29-.92c.26-.13,3.38-2,3.35-2.1a35.68,35.68,0,0,0,4.5,7.85,12.07,12.07,0,0,0,5.54,4.19c0,1.12-.54,2.91-1.56,3.14a9,9,0,0,1-4.47-.8,26.55,26.55,0,0,1-5.82-2.95,23.46,23.46,0,0,1-4.13-3.77c-.47-.54-2.9-3.12-2.42-3.93.24-.4,2-.48,2.48-.63Z"/><path class="cls-2" d="M555.92,158.69c-.35.52.05,1.9.12,2.59a26.29,26.29,0,0,0,.47,3c.48,2,1.62,3.9,2.27,5.93s1.19,4.23,1.78,6.31c.44,1.53,1.44,3.95,1.18,5.57.63-.31,1-1.78,1.47-2.42a13,13,0,0,0,1.31-2.64c.74-2.09.68-4.68.89-6.92.44-4.58-.27-8.41-1.17-12.79a12.72,12.72,0,0,0-2.35.11,6.72,6.72,0,0,0-2.21.33c-.79.2-3.87,1.25-4.3.88"/><path class="cls-2" d="M578.68,189.63a50.44,50.44,0,0,0-2.6-7.21c-.48-1.18-1-2.36-1.32-3.57-.25-.82-.33-2.7-1.06-3.11a5.18,5.18,0,0,0-.71,1.56c-.32.73-.67,1.39-1,2.07-.77,1.42-1.5,3-2.23,4.38a22,22,0,0,0-2.53,6.39c-.21,1.34.14,1.76.78,2.85a22.2,22.2,0,0,1,2,5.25,33.5,33.5,0,0,1,1.22,8.55,34,34,0,0,1-1.47,9.44c-.86,2.78-2.73,5.12-4.42,7.5a30.81,30.81,0,0,1-5.67,6.69c-2.73,2.15-5.65,4.17-8.55,6.14-7.31,4.94-15.76,6.35-21.12,13.94a14.61,14.61,0,0,0,7.39,2.39c.15-4.58,5.07-5.48,8.29-6.2,5.18-1.15,10.53-4.12,15-6.86,5.61-3.41,10.36-8.75,13.87-14.43a39.37,39.37,0,0,0,4.5-9.22,54.87,54.87,0,0,0,1.69-9.94,29.68,29.68,0,0,0-.08-8.16C580.13,195.23,579.34,192.45,578.68,189.63Z"/><path class="cls-1" d="M565.43,260.42a43.67,43.67,0,0,1-4.2-1.87c-.26-.14-2.66-2-2.71-1.93.64-.8,1.85-1.22,2.61-1.89a15.58,15.58,0,0,0,2.2-3c.26-.37.54-1.06,1-1s.79.82,1,1.05a8.92,8.92,0,0,0,2,2c1.11.64,1.28-.74,2-1.38.53-.46,1.39-.82,2-.36.28.22.43.42.79.48a2,2,0,0,0,1.3-.4c.6-.32,1.18-.73,1.75-1.08.41-.26.79-.74,1.24-.9.07.14,0,.41,0,.59a3.67,3.67,0,0,0,.19.62,4.08,4.08,0,0,1,.31.63c0,.26,0,.22-.22.38a5.85,5.85,0,0,0-1,1.06c-.37.47-.77.92-1.11,1.42s-.51.75-.3,1.17a5.28,5.28,0,0,0,.84,1.09,11,11,0,0,0,1.46,1.44,5.71,5.71,0,0,0,1.73.9c.71.23,1.43.49,2.13.76a7.15,7.15,0,0,1,3,2.23,21.22,21.22,0,0,1,1.42,2.37c.74,1.27-.18,2.21-1.49,2.12a6.75,6.75,0,0,1-1.89-.66c-.8-.3-1.6-.55-2.38-.93a25.27,25.27,0,0,0-3.16-1.36c-.36-.12-.75-.09-1.13-.21-.58-.18-1.15-.38-1.73-.58-1.49-.52-2.92-1.24-4.4-1.79C567.57,261.12,566.47,260.84,565.43,260.42Z"/><path class="cls-1" d="M538.94,257.63c-.08.65-1,1.27-1.18,1.95a8.51,8.51,0,0,0,.13,3.55,11.38,11.38,0,0,1-3.43-.25c-.08,0,.37-3.39-.17-3.81-.94-.75-3.23.2-4.28.4a39.31,39.31,0,0,1-6.91.85c-2.62.06-10.1,0-8.31-4.56a16.09,16.09,0,0,0,10.85-2.19c1.26-.85,2.31-2,3.53-2.95a16.74,16.74,0,0,0,2.41-1.59c.73-.77.06-1.78,1.43-2.2a2.87,2.87,0,0,0,1.9,2c.46.21.94.38,1.41.56s1,.46,1.52.71a3.65,3.65,0,0,0,.92.29,5.48,5.48,0,0,1-.28.53,5.57,5.57,0,0,0-.25.79c-.12.44-.16.91-.28,1.35a6.48,6.48,0,0,0-.23,1.08,2.74,2.74,0,0,0,0,1c.08.27.29.33.48.51A2.59,2.59,0,0,1,538.94,257.63Z"/><path class="cls-1" d="M577.58,148.94a21.71,21.71,0,0,0,2.95,2.61c-3.08,3-9.61,5.6-13.69,7.73-4.65,2.42-12.67,4.36-17.64,3.25,1.1-4.83,10.76-5.8,14.73-7.11,4.14-1.37,10.4-1.65,11.93-5.55"/><path class="cls-1" d="M667.27,21.52a4.73,4.73,0,0,1,1.41-2.07c1.9,1.32,3.78.08,3.4-2.27a5.12,5.12,0,0,0-3.16-.69c-.07,1.29-2.17,3.61-3.42,4.11"/><path class="cls-1" d="M623.05,6.76c-.91-.79-.94-2.25-1.12-3.41,1.23-.41,2.68-1.3,2.4-2.77A3.1,3.1,0,0,0,619.39,3c.23,0,.69,0,1-.09a25.14,25.14,0,0,1,.71,4.8"/><path class="cls-1" d="M590.34,22.69a1.37,1.37,0,0,1-2.21-.59c-.12-.36,1.08-2,1-2.84-1.9-.57-2.83.76-3.49,2.25-.89,2-.15,4.37,1.77,1.7A16.83,16.83,0,0,0,590.86,25"/><path class="cls-1" d="M602.81,12.66a4.38,4.38,0,0,1-1.16-2.44c.16-1.06,2.56-1.94,1.45-3.26-1.55-1.84-5.25,2.18-5.23,3.67,1,.34,1.91-.4,2.62.28.55.53.22,2.11.74,2.72"/><path class="cls-1" d="M678.51,35.72c-.07,0,.64-.17,1.08-.34.27-1.87,1.38-5.36,3.16-2.16.74,1.33,0,5.61-1.61,3.16-.66,1.45-2.39,1.95-3.69,2.6"/><path class="cls-3" d="M521.41,81.73c-.09,0,1,2.62,1.06,3a36.91,36.91,0,0,0,1.16,4.11,41.21,41.21,0,0,0,2.36,5.8,6.26,6.26,0,0,0,4.1,3.43c1.62.43,3.18.9,4.84,1.18,2.13.36,4.31.48,6.43.82a35,35,0,0,1,5.46,1.26c.19.06.76.49.92.43s.32-.7.38-.85c.27-.72.51-1.47.75-2.2s.35-1.6.65-2.33,1.15-1.55,1.11-2.13c-2-.37-3.94.62-6,.51a43.91,43.91,0,0,1-9-1.13,15.15,15.15,0,0,1-6.55-3.25,7.77,7.77,0,0,1-2-3.69,11.68,11.68,0,0,1,.28-6.15,10.22,10.22,0,0,1,.33-1.15c-1-.3-2.55.59-3.42,1A15,15,0,0,1,521.41,81.73Z"/><path class="cls-1" d="M523.84,81.18a2,2,0,0,1,2.27,1.22c.14.25.54,1,.92.87.18-.07.19-.4.21-.58a4.1,4.1,0,0,1,.18-.71c.08-.25.19-.5.29-.75a2.39,2.39,0,0,0,.27-.76,2.09,2.09,0,0,0-.33-1c-.69-1.26-1.72-2.18-3.19-1.74-2.86.85-5.55,4-2.77,6.48.5-.31.51-1.21.76-1.73A1.91,1.91,0,0,1,523.84,81.18Z"/><path class="cls-3" d="M574.28,75.39l-.38-.09a1.88,1.88,0,0,1-.39-.16c-.25-.12-.5-.26-.76-.37l-1.16-.5-.55-.19a1.88,1.88,0,0,0-.46-.14,1.67,1.67,0,0,1-.72-.41,19.53,19.53,0,0,1-1.62-1.79c-.6-.63-1.38-1.16-2-1.74a5.42,5.42,0,0,0-1.94-1.19,11.11,11.11,0,0,0-5.66-.46,13.83,13.83,0,0,0-3.14,1.06,25.93,25.93,0,0,0-2.82,2,27.92,27.92,0,0,0-4.75,4.54c-.73.81-1.31,1.75-2,2.57a31.09,31.09,0,0,0-2.48,3.14,24.25,24.25,0,0,0-3.79,7.2,8.79,8.79,0,0,0-.28,3.81,3,3,0,0,1,0,1.08c-1.69,0-3.16-.9-4.72-1.19a8.73,8.73,0,0,1,.33-2.39c.24-.82.48-1.7.75-2.56a18.44,18.44,0,0,1,.93-2.93c.48-1,1-2,1.53-3a31,31,0,0,1,3.92-5.83A37,37,0,0,1,552.73,67a34.35,34.35,0,0,1,11.56-3.8,29.59,29.59,0,0,1,6.72-.08,24.76,24.76,0,0,1,6,.87c1.73.64,3.68,1,5.22,2a11.91,11.91,0,0,1,3.14,3c.91,1.26.57,2.37-.6,3.34a20.47,20.47,0,0,1-5.26,2.76A7.9,7.9,0,0,1,574.28,75.39Z"/></g></g></svg>