<svg xmlns="http://www.w3.org/2000/svg" viewBox="0 0 237.2 161.61"><defs><style>.cls-1{fill:#007293;}.cls-2{fill:#1d1d1b;}.cls-3{fill:#e30613;}</style></defs><g id="Ebene_2" data-name="Ebene 2"><g id="Ebene_1-2" data-name="Ebene 1"><path class="cls-1" d="M32.19,11.17C29.94,9,28.05,6.41,25.48,4.47,23.13,2.69,21.12.78,18.19.18A6.61,6.61,0,0,0,14.3.43a32.58,32.58,0,0,0-6,2.69C3,6.25.66,14.12,1.47,19.86c.59,4.21,1.12,8.2,2.67,12.19A186.33,186.33,0,0,0,14.76,55.48c1.9,3.36,3.78,6.73,5.8,10,1.83,3,4.39,5.87,5.8,9.08,1,2.36.42,4.29.53,6.74.13,3,1.35,5.62.59,8.68-.58,2.36-4,11.17,1.35,9.55,3.61-1.09,4.9-5.81,6.86-8.4,2.11-2.77,4.71-5.8,4.9-9.49.19-3.45-3.11-5.71-4.41-8.68C34,68,32.66,61.5,31.67,56.24c-1.27-6.7-5.37-12-7.92-18.28-1.21-3-2.22-5.9-3.54-8.77-.6-1.29-3.49-4.66-.88-4.65,1.9,0,4.33,4.29,5.49,5.58,3.83,4.24,3.87,9.89,7.05,14.35,1.25,1.76,2.4,3.61,3.6,5.44.36.53.9,1.76,1.5,2.07a5.42,5.42,0,0,0,2.43-.06c1.77-.31,3.38-1.58,4.92-2.43,1.93-1.08,3.85-2.19,5.79-3.24.83-.45,1.75-.68,2.57-1.08a12.68,12.68,0,0,0,2-1.67c.5-.38,1.54-.78,1.83-1.37.68-1.35-1.6-4.52-2.34-5.48-2.31-3-4-6.27-6.41-9.12-1.14-1.35-2.33-2.63-3.58-3.89-3.23-3.25-5.73-7.74-9.5-10.37A19.25,19.25,0,0,1,32.19,11.17Z"/><path class="cls-1" d="M18.83,155.69a6.53,6.53,0,0,0,.31-.84c.32-1.13.66-2.25,1.08-3.34a11.85,11.85,0,0,1,1.06-2.64,5.93,5.93,0,0,1,1.83-1.73c.6-.31,1.21-.56,1.79-.93A12.38,12.38,0,0,0,28.55,143a10.39,10.39,0,0,0,2-6c-.16-2.48-1.88-4.34-2.48-6.65a33.73,33.73,0,0,1-.71-8.21c.05-5.31,1.24-10.15,2.71-15.28,1.53-5.36,3-10.52,3-16.15a17.76,17.76,0,0,1,.67-6.41c.64-1.63,2.31-2.8,3.63-3.95,2.31-2,4.68-2.46,7.45-3.47,4.24-1.56,8.16-3.35,12.64-4.19,4.31-.81,8.69-1.17,13-2.06,7.2-1.49,10.11,0,17.27,2,10.23,2.85,21.12,5.89,31.85,4.82,12.77-1.29,25.41-5.18,37.7-9.45-6.47-2.86-13.22-7.79-14-15.13-1.09-10.06,9.18-9.87,15.21-13.6a48.3,48.3,0,0,0-7.22,0c-4.84.31-9.91-.69-14.72-1.28-9-1.09-17.77-.21-26.52-.19-6.34,0-12.64-.77-19-1.14-5.11-.31-10.77-1.07-15.44,1.5a30.72,30.72,0,0,1-4.37,2.08,11.39,11.39,0,0,0-2.38,1.39C66.65,43.08,64.4,44.5,62.26,46,59.62,48,57.09,50.14,54.39,52c-2.3,1.54-5.2,2.32-7.69,3.58a94.57,94.57,0,0,0-8.27,4.8A96.12,96.12,0,0,0,23.71,71.73C21.56,73.8,19.49,76,18.76,78.9A51,51,0,0,0,17,90.73,67.13,67.13,0,0,0,17.74,99c.34,3,.16,6,.32,9a150.58,150.58,0,0,1-.13,23.27A42,42,0,0,1,17,136.9a10.52,10.52,0,0,1-1.9,4.49A46.2,46.2,0,0,0,12.2,145a11.68,11.68,0,0,1-2.85,2.62c-.8.61-1.71,1.05-2.52,1.65s-1.94,1.18-2.89,1.84a26.91,26.91,0,0,0-2.78,2.09c-1.23,1.12-1.71,2.14-.29,3.26a4.17,4.17,0,0,0,2.27,1c1.46,0,1.79-1.93,3-2.32,2-.64.63,2.71.35,3.9-.16.71-.57,1.43-.06,2.05.88,1.07,1.58.15,2-.6s.37-1.78,1-2.52c.19-.24.57-.95.81-.32.13.36-.13.94-.22,1.31a2.76,2.76,0,0,0-.06,1.18c.08.33.31.84.74.8s.61-1,.73-1.32.21-1,.41-1.48.52-.64.62-.12c.18.89-.32,2,.31,2.79.31.39.9.68,1.13.09a10.67,10.67,0,0,0,.3-1.45c.07-.27.19-1.15.47-1.24s.34.9.36,1.08c.06.37.19,1.18.62,1.3s.92-.33,1.12-.74a7.57,7.57,0,0,1,.64-1.31,7.25,7.25,0,0,0,.62-.75,9,9,0,0,0,.47-1.32C18.58,156.22,18.71,156,18.83,155.69Z"/><path class="cls-1" d="M191.59,39.78c-1.43,2.45-4.72,4.82-7.09,6.27a2.89,2.89,0,0,1-2.48.57,16,16,0,0,1-4.66-2.15c-3-1.7-7-2.67-10.14-4.09-3.87-1.74-7.32-1.13-10.67,1.39-1.71,1.28-4.3,3.15-5.19,5.06-1.9,4.14.53,8.61,2.24,12.22,0,0,0,0,0,.06l7,2.63C170,65.25,176.06,70,183.29,76.88c6,5.74,9.4,8.9,18,9.15A26.87,26.87,0,0,0,213,83.56a30.92,30.92,0,0,0,10-7.08,23.91,23.91,0,0,0,5.78-10.1,18.24,18.24,0,0,0,.6-4.93,7.51,7.51,0,0,1,0-2.46,10.2,10.2,0,0,0,.22-2.22,10.68,10.68,0,0,0-.16-2.82,11.1,11.1,0,0,0-2.2-4.65A8.73,8.73,0,0,0,224,46.42a5.94,5.94,0,0,1-1.18-.35,3.46,3.46,0,0,1-1.11-1.5,21.3,21.3,0,0,0-1-1.89,17.8,17.8,0,0,1-1.5-4.63c-.19-1.09,0-3-1.19-3.57s-2.31,1.44-2.76,2.16c-.59,1-.66,3-2.05,3.2a6.67,6.67,0,0,1-2.28-.65,1.51,1.51,0,0,1-1.12-1c-.1-.44.21-.62.53-.88.66-.5,1.7-.81,2.13-1.55.78-1.3-1.36-2.06-2.29-2.07a5.1,5.1,0,0,0-2,.36,8.34,8.34,0,0,0-1.39.54,1.71,1.71,0,0,1-.49-1.27c0-.36.23-.66.22-1,0-1.28-1.31-.68-1.79-.12s-.48,1-.82,1.52a2.9,2.9,0,0,1-1.45,1,2.7,2.7,0,0,1-1.75-.2,5.78,5.78,0,0,0-2.47-.3A5.6,5.6,0,0,0,194.61,36c-.65.68-1.27,1.44-1.89,2.15A11.44,11.44,0,0,0,191.59,39.78Z"/><path class="cls-2" d="M210.25,47c-.67,1.79-1.63,1.61-1.69,3.84,0,1.62-.36,2.9,1,4.17-.5-1.47-.16-7.39,1.86-7.09"/><path class="cls-1" d="M178.12,58.46c-3.76-4.6-9.78-6.84-15.58-4.83-5.61,1.94-3.76,7.69-.37,10.87,3.18,3,6.23,5.94,9.57,8.76,2.14,1.8,4.19,3.68,6.21,5.62a13.43,13.43,0,0,1,3.48,5.32c.79,1.89,1.2,4,2,5.82,2.16,5.11,5.81,9.4,8.5,14.15a73.51,73.51,0,0,0,3.55,6.49c1.15,1.6,3.09,1.54,4.86.92,2.57-.91,3.54-3.68,4.41-6,1.91-5.14,5.35-9.08,8.13-13.72,1.74-2.92,3.48-5.74,5.41-8.42a13.22,13.22,0,0,0,2.08-5.05,8.91,8.91,0,0,0-.33-5.61c-.73-1.94-1.34-4.74-3-6-1.34-1.08-4-2.43-5.79-1.78-2,.72-3.3,3.9-3.8,5.81-.66,2.48-1.78,5-2.4,7.48a29.93,29.93,0,0,1-1.57,5.86c-.71,1.5-2.11,5.26-3.75,3.55s-2.09-4.64-3.67-6.53c-2.46-2.93-5.25-5.62-7.63-8.53C184.77,68,181.9,63.08,178.12,58.46Z"/><path class="cls-2" d="M216.38,85.05c-1.35.12-3.71,2.34-5.1,1.86-2.06-.71-.87-3.42.53-4.35-1.3,1.11-4.23,1.65-5.9,2.11-2.48.67-4.91,2.44-7.39,2-1.57-.3-2.61-1.14-4-1.78-1.28-.57-3.67-.61-4.66-1.86-.84-1-.2-2.09-1.09-3.27-.49-.66-1.47-1-2-1.53,1.35-.58,3.87.24,5.45.31,1.91.09,3.56.21,5.31-.85s1.51-2.33,2.5-3.79c1.55-2.25,4-2.13,6.15-3.21-.06-2-3.38-3-4.71-4.07a45.84,45.84,0,0,1,6.25-1.39,38.75,38.75,0,0,1,5.31.9c5.42,1.11,11.22.14,12.73-6.11-1.3,0-2.55.42-3.86.54.51-3.31,6.48-5.72,5.15-9.69-.42-1.25-2.7-2.19-2.47-3.67.5-3.37,8.08,5,8.88,6.12a18.61,18.61,0,0,1,3.3,8.71c.95,6.59.68,11.63-2.5,17.5A52.43,52.43,0,0,1,228.07,89c-2.09,2.42-5.37,4-7.2,6.61a36.87,36.87,0,0,0-3.5,5.34c-.82,1.7-1.39,3.55-.62,5.3.63,1.41,2.79,3.18,1.4,4.73-2.31-2.6-4-5.18-6.06-8a14.13,14.13,0,0,0-2.85-3.34c-1.65-1.09-4.08-.76-3.25-3.43.74-2.37,4.44-3.55,6.24-4.93C213,90.74,216.75,85,216.38,85.05Z"/><path class="cls-3" d="M149.44,71.41c.23-2.82,1.92-5.59,2.59-8.48.95-4.1-2.14-3.87-5.4-5.27-3.41-1.47-7.44-3.5-9.89-6.37-1.6-1.86-4.52-5.85-3.47-8.13s4.94-3,6.9-3.77a73.09,73.09,0,0,1,9-2.93,23.91,23.91,0,0,1,7.89-.35c1.45.13,7.61.46,8.3,2a3,3,0,0,0,.3.43c-1.58,2.16-7.79,2-8.11,5.39,4.51,1.42,9.23,1.68,13.1,4,2.59,1.57,5.55,2.89,7.35,5.46.27.39.42.81.65,1.21a4.59,4.59,0,0,0,.92.95,5.52,5.52,0,0,1,.62.82,3.48,3.48,0,0,0,.47.59c.51.48,1.36,1,1.68,1.63a4.74,4.74,0,0,1,.22,1.72,8.78,8.78,0,0,0,0,1.44c.1.53.64.78.92,1.21.39.61.71,1.31,1.12,1.93a18.72,18.72,0,0,0,1.61,2c1,1.13,1.85,2.32,2.77,3.49A40.67,40.67,0,0,1,192,74.72a2.7,2.7,0,0,1,.44,1.17,4.79,4.79,0,0,1,.07,1.19c-1.91-1.6-3.22-3.33-5.92-3.7a6.5,6.5,0,0,0-5,1.71c-3.61,3-2.85,7.31-.38,10.7-1.15.73-3.47,1.33-4.63.48-1.64-1.2-1.65-4-2.86-5.57-1.48-1.91-3.49-3.29-5-5.13-.57-.69-1.1-1.41-1.6-2.13a21.75,21.75,0,0,0-1.49-2.16,1.37,1.37,0,0,0-.48-.37c-.43-.22-.81-.55-1.22-.8a7.77,7.77,0,0,0-2.83-1.19,4.53,4.53,0,0,0-1.51.09c-.7.11-1.39.1-2.11.2s-1.51.27-2.24.43-1,.59-1.61.69A20.05,20.05,0,0,0,149.44,71.41Z"/><path class="cls-2" d="M153,60.1a30.43,30.43,0,0,0-.79,4.51c-.07.78.05,1.55,0,2.32a3.41,3.41,0,0,0,.36,1.67,1.29,1.29,0,0,0,.57.77,2.25,2.25,0,0,0,1.51.45c1.21-.07,2.44-.9,3.63-.88,0,0,0,0-.05,0a3.52,3.52,0,0,1-.41.51,4.41,4.41,0,0,1-.6.44c-.37.27-.67.64-1,.93A11.62,11.62,0,0,1,154.14,72c-1.17.54-2.35,1-3.55,1.53a23.59,23.59,0,0,1-4.65,1.23,42.62,42.62,0,0,1-9.55,1,28.49,28.49,0,0,0-7.54.32,43.51,43.51,0,0,1-5.65.84c-2.24.21-4.43,1.1-6.64.93-3.84-.3-7.73.43-11.61.29-2.38-.09-4.79-.06-7.14-.37a12.78,12.78,0,0,1-2.21-.56c-.93-.3-1.85-.3-2.77-.58l-3.33-1c-2.78-.86-5.31-2.3-8.08-3-2.58-.66-5.26-.66-7.89-1-1.52-.22-3-.36-4.55-.58s-3.13.55-4.64.81a8.68,8.68,0,0,0-3.44.93,32.58,32.58,0,0,0-7.16,6.41c-1.94,2.22-4.3,4.2-5.92,6.69-1.31,2-1.4,4.59-2.17,6.83a24.77,24.77,0,0,0-7.5-4.18c-3.24-1.27-5.91-3.32-9-4.82-5-2.4-12.06-6.78-17.72-6.35.12,0,1.2-2.45,1.37-2.71a24.53,24.53,0,0,1,2-2.76A60.07,60.07,0,0,1,19.36,67a24.35,24.35,0,0,1,3.86-2.63c2.2-1.48,3.12-4,4.92-5.87A20.55,20.55,0,0,1,32.36,55c1.54-.94,1.66-2,1-3.5-.62-1.34-1.46-2.57-2.06-3.93a49.68,49.68,0,0,0-2.48-5.27,11,11,0,0,1-1.72-3.19c-.27-1.39.86-1.95,1.92-2.64,3.65-2.4,7.28-5.06,11.27-6.88a45.42,45.42,0,0,0,4.64-2,22.78,22.78,0,0,1,2-1.21c1.62-.72,2.06-.82,3.3.49a24,24,0,0,0,4.66,3.54c2.39,1.52,4.81,3,7.26,4.35,1.58.89,3.27,1.78,5.12,1.61,2.9-.27,5.58-1.55,8.35-2.36a52.9,52.9,0,0,1,11.66-2.41c7.12-.42,13.9-.46,20.91,1.14,6.78,1.57,13.87,1.7,20.64,2.2,5.56.4,10.45.52,15.95.5a63.65,63.65,0,0,1,8.2.24,21.27,21.27,0,0,0,4.9-.42,4,4,0,0,1,2.07.19c1.52.62,11.17,3,9.76,5.49-1.74-.46-3.2-1.18-5-1.23-2.15-.06-4.25.34-6.32-.26a16.23,16.23,0,0,0-6.48-.18c-1,.1-2.12,0-3.16.05a33.84,33.84,0,0,0-3.77.34c-.62.1-1.2.09-1.82.13-1.17.08-2.34.25-3.51.35-.72.07-1.37.3-2.12.38a13.84,13.84,0,0,1-2,.08c-.27.49.59,1.27.79,1.69a13.74,13.74,0,0,0,1.6,2.45,27.12,27.12,0,0,0,2.38,2.29c.73.72,1.51,1.42,2.24,2.12.34.31.67.84,1.11,1a12,12,0,0,0,2.41.08,28.48,28.48,0,0,0,4,0,20,20,0,0,0,3-.49,37.08,37.08,0,0,1,5.42-.79,25.78,25.78,0,0,1,3.17-.15l1.73.11a17.92,17.92,0,0,1,2.07-.09c.93.15,1.9.14,2.84.25,4,.42,9.42,2,12.21,4.94,1.94,2.07,4,5.35,1.85,8-.82-1.15-.3-2.4-1-3.51a7.65,7.65,0,0,0-3.12-2.16,59.32,59.32,0,0,0-10-3.29,14.83,14.83,0,0,0-5.47-.34,11.44,11.44,0,0,0-2.13.5,9.28,9.28,0,0,0-1.6,1c-1,.59-1.94,1.23-2.94,1.79a9.81,9.81,0,0,0-1.16.62A5,5,0,0,0,153,60.1Z"/><path class="cls-2" d="M208.92,31.19c-.13-.41.53-2.7.6-3.62a31.23,31.23,0,0,0-.05-4.43c-.11-1.68-1.05-5.42.56-6.6a25.5,25.5,0,0,1-.22,7.83c-.33,2.58-.37,5.22-.62,7.82"/><path class="cls-2" d="M210.94,31.35a11.51,11.51,0,0,0,2.42-2.73c1.09-1.35,2.35-2.44,3.53-3.68a37,37,0,0,1,5.05-5,1.24,1.24,0,0,1,.31.41c-1.56,2-3.48,3.8-5.25,5.67a42.53,42.53,0,0,1-3.3,3c-1.38,1.14-2.42,3-3.95,3.91"/><path class="cls-2" d="M219.64,10.21c-.67-1.43-3.17-1.24-3.7.57-.72,2.45,2.16,1.57,3.14.58,2.41-2.49,2.71-7,3.94-10.17a8.31,8.31,0,0,0,.43,3.93,5.48,5.48,0,0,1-.9-2.83.35.35,0,0,1,.39-.07"/><path class="cls-2" d="M26.82,38.68l-.06.15"/></g></g></svg>