<?xml version="1.0" encoding="utf-8"?>
<!-- Generator: Adobe Illustrator 16.0.4, SVG Export Plug-In . SVG Version: 6.00 Build 0)  -->
<!DOCTYPE svg PUBLIC "-//W3C//DTD SVG 1.1//EN" "http://www.w3.org/Graphics/SVG/1.1/DTD/svg11.dtd">
<svg version="1.1" id="Ebene_1" xmlns="http://www.w3.org/2000/svg" xmlns:xlink="http://www.w3.org/1999/xlink" x="0px" y="0px"
	 width="189.498px" height="425.2px" viewBox="0 0 189.498 425.2" enable-background="new 0 0 189.498 425.2" xml:space="preserve">
<g>
	<path fill="#245977" d="M77.306,354.187c0.046-1.676,0.735-2.601,1.621-3.875c0.922-1.329,0.394-2.792-0.729-3.776
		c-1.074-0.94-2.438-1.778-3.832-2.007c-0.879-0.145-2.891-0.642-3.701-0.095c-0.91,0.616-1.258,2.56-1.152,3.543
		c0.18,1.669-0.674,2.812-1.086,4.419c-0.29,1.128-2.213,4.958-1.412,6.06c0.926,1.273,3.459,0.894,4.829,1.193
		c1.917,0.421,3.784,0.751,5.928,0.479C78.283,358.395,77.254,356.091,77.306,354.187z"/>
	<path d="M71.268,379.397c-1.537,4.722-1.293,9.933-3.447,14.251c-3.991-0.909-3.54-2.136-3.074-5.695
		c0.406-3.109,0.967-5.763,1.088-8.935c-0.826,0.973-2.691,2.042-3.831,2.572c-0.856,0.398-1.454,0.406-2.354,0.932
		c-1.282,0.748-2.341,1.949-3.685,2.735c-2.164,1.268-4.498,1.576-7.007,1.245c-3.696-0.487-7.616-3.812-10.528-6.051
		c-3.744-2.878-7.292-5.741-10.947-8.773c-2.34-1.94-8.15-5.91-7.037-9.731c3.26-0.459,3.803-1.624,7.065,0.026
		c2.401,1.214,4.643,2.965,6.938,4.38c4.208,2.596,8.835,7.569,14.271,4.744c2.036-1.059,3.835-3.231,5.599-4.679
		c2.555-2.096,5.145-4.181,7.246-6.749c2.432-2.973,3.088-7.148,7.34-8.091c3.416-0.758,9.099-1.515,10.217,2.959
		c0.851,3.4-0.869,7.351-2.428,10.289c-1.213,2.286-2.429,4.391-3.2,6.88C72.703,374.256,72.095,376.859,71.268,379.397z"/>
	<path fill="#245977" d="M108.513,367.875c0.014-0.156,0.025-0.312,0.036-0.468c0.064-0.961,0.079-1.926,0.044-2.888
		c-0.016-0.416-0.002-0.851-0.135-1.246c-0.069-0.203-0.066-0.426-0.099-0.637c-0.036-0.242-0.086-0.483-0.144-0.722
		c-0.088-0.367-0.272-0.624-0.565-0.871c-0.276-0.232-0.636-0.375-0.981-0.462c-0.501-0.129-0.994-0.247-1.512-0.287
		c-0.878-0.068-1.748-0.116-2.629-0.116c-0.424,0.001-0.907,0.002-1.301,0.181c-0.107,0.048-0.079,0.014-0.112,0.128
		c-0.031,0.109-0.044,0.226-0.057,0.338c-0.063,0.575-0.007,1.189-0.007,1.769c0,0.384-0.008,0.781,0.038,1.163
		c0.022,0.188,0.043,0.374,0.079,0.561c0.238,1.21,0.141,2.516-0.007,3.73c-0.074,0.616-0.175,1.232-0.332,1.834
		c-0.103,0.393-0.219,0.84-0.474,1.167c2.273-0.197,4.97,1.28,6.952,2.246C107.267,371.343,108.346,369.799,108.513,367.875z"/>
	<path d="M112.938,374.424c-0.198-0.884-0.452-1.752-0.789-2.591c-0.973-2.423-2.694-5.633-5.656-5.808
		c-1.592-0.095-2.766,1.272-4.02,2.048c-2.121,1.31-3.753,1.728-4.127,4.294c-0.288,1.985-0.567,3.827-1.481,5.631
		c-2.083,4.112-4.078,7.862-7.797,10.742c-3.956,3.064-7.085,6.984-11.62,9.224c-2.742,1.354-11.529,3.476-8.457,7.749
		c0.971,1.35,1.02,0.842,2.637,0.629c1.172-0.153,2.415,0.1,3.578-0.062c0.969-0.136,2.276-0.45,3.357-0.641
		c1.768-0.312,3.531-1.019,5.323-1.407c1.898-0.412,3.956-0.445,5.891-0.687c1.104-0.139,2.208-0.304,3.314-0.425
		c1.156-0.128,2.213-0.497,3.345-0.724c1.662-0.333,3.291-0.779,4.975-0.981c0.576-0.069,1.218-0.09,1.768-0.26
		c0.985-0.306,1.605-1.059,2.246-1.814c0.506-0.596,1.107-0.996,1.706-1.481c1.798-1.456,2.047-3.709,2.43-5.833
		c0.204-1.14,0.164-2.33,0.295-3.482c0.073-0.641,0.144-1.302,0.124-1.946c-0.008-0.263-0.048-0.41,0.042-0.677
		c0.028-0.082,0.281-0.433,0.274-0.482c0.896,5.764,0.356,11.619,1.192,17.421c1.611-1.339,4.189-1.569,6.216-1.67
		c0.32-1.051-0.23-2.094-0.539-3.084c-0.48-1.548-0.741-3.192-0.968-4.907c-0.495-3.74-1.744-7.384-2.239-11.13
		C113.625,379.566,113.501,376.928,112.938,374.424z"/>
	<path fill="#245977" d="M140.841,154.129c0.715,1.081,0.61,3.044,0.851,4.316c0.637,3.367,1.363,7.045,1.695,10.44
		c0.229,2.344-0.663,3.076-1.847,4.895c-1.445,2.224-0.903,4.684-2.173,6.876c-1.175,2.029-3.599,3.89-5.672,4.907
		c-2.624,1.291-6.019,1.872-8.741,2.706c-3.056,0.937-6.622,2.643-9.88,2.234c-3.474-0.436-7.225-0.683-10.708-1.521
		c-2.172-0.523-6.757-1.485-8.333-3.027c-2.656-2.598-0.205-7.686-0.785-10.847c-0.321-1.756-1.491-2.884-1.744-4.668
		c-0.351-2.464,0.272-5.249,0.259-7.745c-0.006-1.241,0.138-2.547-0.497-3.559c1.089,0.404,2.652,0.409,3.818,0.482
		c2.938,0.186,5.612-0.719,8.478-1.248c4.854-0.896,9.678-0.681,14.559-1.099c4.461-0.382,8.873-1.851,13.337-2.104
		c1.301-0.074,2.262-0.17,3.441-0.509c1.055-0.304,2.841,0.116,3.681-0.531"/>
	<path fill="#FF0000" d="M97.793,160.478c1.348-0.057,2.702-0.089,4.031-0.144c2.644-0.108,5.271-0.444,7.919-0.437
		c3.547,0.01,7.129-0.015,10.646-0.502c3.078-0.426,6.171-0.99,9.19-1.718c2.386-0.574,4.614-1.117,7.068-1.11
		c2.096,0.005,4.154-0.125,6.182-0.255c0.081-0.812-0.758-1.744-1.098-2.464c-0.429-0.903-0.651-1.832-0.938-2.786
		c-0.654-2.179-1.459-4.294-2.108-6.48c-1.389-4.671-3.112-9.25-5.542-13.487c-0.596-1.039-1.104-2.122-1.691-3.161
		c-0.643-1.138-1.387-2.098-1.825-3.355c-0.376-1.072,0.837-1.07,1.591-1.209c1.129-0.208,2.232-0.547,3.37-0.71
		c1.102-0.157,2.155-0.224,3.214-0.656c2.068-0.846,4.064-1.792,6.221-2.45c0.898-0.274,2.022-0.9,2.958-0.848
		c-0.343-1.511-1.812-3.046-2.772-4.245c-1.078-1.346-2.205-2.667-3.075-4.163c-2.017-3.463-4.313-6.875-6.718-10.064
		c-2.747-3.644-5.769-7.188-8.336-10.981c-2.242-3.312-4.325-6.753-6.533-10.095c-1.452-2.2-3.38-4.08-4.851-6.286
		c-0.478-0.717-1.041-2.554-1.8-2.872c-0.635-0.266-2.021,0.01-2.724,0.01c-0.859,0-1.72,0-2.58,0c-1.403,0-2.851-0.102-4.251,0.001
		c-0.988,0.072-1.923,0.341-2.886,0.442c-1.379,0.145-2.849,0.23-4.232,0.223c-0.517-0.003-1.053,0.091-1.566,0.029
		c-0.361-0.043-0.969-0.433-1.256-0.418c-0.73,0.035-1.422,1.021-1.807,1.583c-0.919,1.343-1.35,2.955-2.271,4.296
		c-1.979,2.887-6.595,2.63-9.535,3.237c-1.84,0.38-3.367,0.183-5.207-0.03c-2.537-0.293-5.19-0.205-7.635-1.084
		c-0.748-0.27-0.976-1.083-1.905-0.908c-1.024,0.192-0.827,0.79-0.72,1.539c0.233,1.628-0.319,3.111-0.535,4.719
		c-0.496,3.69-1.406,7.311-2.004,10.972c-0.976,5.993-1.498,12.033-1.498,18.116c0,4.02,0.666,7.882,0.666,11.917
		c0.001,3.08,0.412,6.104,0.678,9.164c0.104,1.199,0.195,2.426,0.211,3.624c0.008,0.733,0.266,1.356,0.259,2.01
		c1.634,0.618,3.329,1.047,5.04,1.554c1.793,0.53,3.622,0.481,5.51,0.481c2.5,0,4.986,0.169,7.411-0.395
		c1.741-0.404,2.634-0.68,3.142-2.473c-0.031,0.109,0.65,1.432,0.719,1.668c0.161,0.565,0.376,0.994,0.592,1.525
		c0.365,0.899,0.416,1.859,0.681,2.783c0.581,2.022,1.391,3.98,1.997,5.993c0.617,2.046,1.334,3.992,2.115,5.992
		c0.434,1.111,0.956,3.817,2.049,4.22c0.663,0.246,1.994,0.021,2.686-0.053C95.268,160.604,96.528,160.53,97.793,160.478z"/>
	<g>
		<path fill="#FFFFFF" d="M116.726,97.166c0.058-0.013,0.115-0.029,0.172-0.046c-0.073-0.158-0.147-0.317-0.222-0.477
			C116.637,96.877,116.59,97.198,116.726,97.166z"/>
		<path fill="#FFFFFF" d="M73.834,79.296c-1.609-0.146-3.252-0.193-4.848-0.478c-1.076,3.195-0.675,6.683,0.254,9.867
			c1.379,4.733,3.604,9.332,7.344,12.649c1.848,1.64,3.995,2.933,6.318,3.775c2.378,0.862,4.88,1.377,7.397,1.598
			c5.094,0.448,10.435-0.184,15.146-2.236c1.113-0.485,2.189-1.049,3.208-1.711c1.041-0.677,2.074-1.378,3.008-2.2
			c0.889-0.782,1.678-1.665,2.378-2.619c0.372-0.506,0.752-0.999,1.143-1.491c0.316-0.4,0.71-0.873,0.833-1.393
			c-0.145-0.411-0.265-0.829-0.338-1.256c-0.103-0.594-0.079-1.149,0-1.745c0.095-0.71,0.201-1.419,0.305-2.128
			c0.212-1.46,0.407-2.926,0.453-4.402c0.04-1.228-0.044-2.428-0.194-3.645c-0.281-2.288-0.647-4.574-1.209-6.812
			c-0.381-1.518-0.83-3.104-1.557-4.523c-0.18-0.26-0.373-0.461-0.58-0.548c-0.524-0.219-1.562-0.069-2.303-0.01
			c0.378,0.682,0.742,1.372,1.086,2.071c2.371,4.818,3.992,10.406,2.335,15.716c-0.804,2.575-2.292,4.879-4.158,6.814
			c-1.512,1.568-3.293,2.857-5.279,3.758c-4.084,1.852-8.671,2.134-13.087,2.341c-2.098,0.099-4.166-0.012-6.227-0.444
			c-2.043-0.429-4.039-1.111-5.899-2.062c-3.333-1.704-6.489-4.378-7.728-8.021c-0.602-1.766-0.697-3.665-0.301-5.487
			C71.762,82.72,72.684,80.923,73.834,79.296z"/>
		<path fill="#FFFFFF" d="M64.253,90.381c0.87-0.016,1.761-0.13,2.63-0.063c0.023-0.004,0.049-0.007,0.074-0.011
			c-0.253-0.739-0.496-1.48-0.719-2.229c-0.157,0.05-0.305,0.14-0.477,0.147c-0.002,0-0.004,0-0.005-0.001
			c-0.601,0.11-1.28-0.036-1.844-0.163c-0.282-0.064-0.562-0.136-0.839-0.215c-0.158,0.819-0.324,1.637-0.487,2.455
			c0.065,0.009,0.128,0.018,0.188,0.025C63.265,90.385,63.76,90.39,64.253,90.381z"/>
		<path fill="#FFFFFF" d="M68.576,94.934c-0.28-0.826-0.572-1.648-0.865-2.47c-0.013,0.002-0.025,0.006-0.039,0.009
			c0,0.021-0.01,0.041-0.034,0.049c-0.051,0.017-0.103,0.03-0.155,0.042c-0.569,0.131-1.16,0.188-1.742,0.241
			c-0.812,0.073-1.632,0.118-2.447,0.105c-0.172-0.003-0.689-0.002-1.199-0.069c-0.11,0.588-0.216,1.178-0.312,1.768
			c-0.046,0.287-0.091,0.575-0.136,0.862c2.333,0.22,4.694-0.219,7.032-0.243C68.645,95.131,68.61,95.033,68.576,94.934z"/>
		<path fill="#FFFFFF" d="M65.747,86.521c0.024,0.013,0.028,0.035,0.021,0.055c0.018,0.002,0.035,0.003,0.051,0.002
			c-0.049-0.194-0.098-0.39-0.145-0.585c-0.656-2.773-1.039-5.609-1.096-8.459c-0.49,0.273-0.346,0.78-0.258,1.386
			c0.233,1.628-0.319,3.111-0.535,4.719c-0.045,0.327-0.092,0.653-0.142,0.979c0.329,0.333,0.649,0.671,0.985,0.997
			C64.969,85.943,65.323,86.3,65.747,86.521z"/>
		<path fill="#FFFFFF" d="M64.875,101.665c0.69-0.136,1.38-0.291,2.08-0.368c1.375-0.151,2.769-0.148,4.139-0.342
			c-0.002-0.033,0.035-0.07,0.076-0.052c0.047,0.021,0.094,0.025,0.143,0.023c-0.037-0.065-0.077-0.129-0.113-0.189
			c-0.129-0.217-0.268-0.431-0.402-0.646c-0.326-0.525-0.607-1.083-0.865-1.644c-0.049-0.105-0.095-0.212-0.143-0.319
			c-1.807-0.208-3.639,0.14-5.42,0.41c-1.059,0.161-2.133,0.32-3.207,0.374c-0.141,1.116-0.264,2.233-0.371,3.353
			c0.416-0.022,0.833-0.068,1.242-0.12C62.986,102.025,63.932,101.851,64.875,101.665z"/>
		<path fill="#FFFFFF" d="M68.662,106.995c1.734-0.107,3.476-0.495,5.133-1.034c-0.383-0.943-0.799-1.874-1.256-2.785
			c-1.099,0.379-2.355,0.184-3.492,0.167c-0.75-0.011-1.512,0.094-2.259,0.164c-0.733,0.068-1.465,0.141-2.197,0.213
			c-1.315,0.128-2.634,0.245-3.954,0.3c-0.068,0.847-0.125,1.695-0.174,2.543C63.195,106.722,65.921,107.164,68.662,106.995z"/>
		<path fill="#FFFFFF" d="M72.162,114.235c0.903-0.113,1.809-0.229,2.718-0.287c0.339-0.022,0.687-0.047,1.024-0.013
			c0.115,0.011,0.319,0.021,0.377,0.147c0.029,0,0.06,0,0.09-0.003c-0.389-1.54-0.813-3.074-1.299-4.586
			c-0.302,0.063-0.625,0.072-0.924,0.094c-0.438,0.033-0.881,0.024-1.315,0.063c-3.214,0.285-6.409,0.742-9.63,0.958
			c-0.972,0.065-1.928,0.044-2.895,0.001c-0.016,0.704-0.025,1.409-0.025,2.114c0,0.472,0.01,0.94,0.026,1.407
			c1.464,0.394,2.985,0.564,4.501,0.597C67.267,114.783,69.728,114.538,72.162,114.235z"/>
		<path fill="#FFFFFF" d="M60.764,120.018c-0.008,0.065,0.003,0.127,0.039,0.183c0.196,0.302,0.727,0.363,1.045,0.411
			c0.664,0.101,1.342,0.116,2.012,0.114c1.705-0.002,3.412-0.132,5.107-0.291c1.293-0.121,2.582-0.263,3.869-0.428
			c0.727-0.094,1.449-0.215,2.174-0.32c0.521-0.075,1.043-0.15,1.56-0.246c0.325-0.061,0.683-0.11,0.989-0.243
			c-0.17-0.777-0.342-1.553-0.52-2.327c-0.12,0.069-0.305,0.076-0.432,0.095c-0.292,0.046-0.586,0.083-0.88,0.114
			c-1.235,0.133-2.479,0.198-3.717,0.309c-1.642,0.148-3.282,0.304-4.923,0.453c-0.826,0.075-1.652,0.149-2.479,0.218
			c-0.633,0.053-1.271,0.135-1.906,0.126c-0.537-0.007-1.073-0.044-1.611-0.055c-0.157-0.002-0.339-0.014-0.522-0.014
			c0.053,0.618,0.105,1.235,0.154,1.854C60.746,119.973,60.768,119.988,60.764,120.018z"/>
		<path fill="#FFFFFF" d="M78.732,125.519c0.064-0.013,0.126-0.032,0.158-0.071c0.07-0.085-0.016-0.268-0.039-0.37
			c-0.068-0.3-0.137-0.601-0.205-0.902c-0.032-0.148-0.404-1.778-0.393-1.781c-1.099,0.279-2.205,0.526-3.317,0.738
			c-3.015,0.575-6.069,0.936-9.13,1.153c-1.562,0.111-3.128,0.187-4.694,0.232c-0.055,0.001-0.108,0.002-0.164,0.004
			c0.001,0.04,0.001,0.08,0.001,0.119c0,1.119,0.055,2.231,0.137,3.34c0.229,0.035,0.459,0.055,0.686,0.065
			c0.604,0.028,1.207,0,1.81-0.03c0.639-0.032,1.276-0.045,1.915-0.099c1.658-0.139,3.306-0.376,4.949-0.639
			c1.596-0.255,3.201-0.478,4.792-0.763c0.649-0.117,1.291-0.281,1.921-0.479c0.316-0.099,0.629-0.206,0.939-0.319
			c0.152-0.056,0.305-0.124,0.461-0.169C78.603,125.538,78.668,125.531,78.732,125.519z"/>
		<path fill="#FFFFFF" d="M80.834,133.827c0.129-0.075,0.23-0.171,0.346-0.29c-0.174-0.507-0.34-1.016-0.5-1.527
			c-0.241-0.775-0.467-1.554-0.682-2.336c-1.145-0.066-2.264,0.403-3.311,0.806c-0.615,0.237-1.234,0.484-1.879,0.632
			c-0.708,0.162-1.43,0.285-2.148,0.382c-1.514,0.206-3.041,0.3-4.568,0.329c-0.777,0.014-1.556,0.015-2.334,0.003
			c-0.687-0.01-1.389,0.01-2.07-0.077c-0.557-0.072-1.113-0.161-1.674-0.194c-0.184-0.011-0.393-0.026-0.603-0.021
			c0.075,0.756,0.149,1.513,0.216,2.272c0.064,0.744,0.124,1.499,0.164,2.25c0.393,0.056,0.789,0.083,1.184,0.099
			c1.438,0.057,2.875-0.053,4.311-0.131c1.137-0.062,2.275-0.034,3.41-0.096c1.635-0.088,3.267-0.262,4.873-0.577
			c1.033-0.202,2.066-0.45,3.082-0.731c0.508-0.141,1.016-0.292,1.506-0.49c0.164-0.067,0.325-0.161,0.492-0.218
			C80.717,133.888,80.778,133.859,80.834,133.827z"/>
		<path fill="#FFFFFF" d="M75.896,111.768c0.027,0.042,0.072,0.077,0.122,0.094c0.019-0.01,0.042-0.008,0.058,0.011
			c0.026,0.006,0.039,0.031,0.037,0.054c0.209,0.328,0.613,0.474,0.968,0.586c0.36,0.113,0.722,0.212,1.074,0.346
			c0.946,0.358,1.917,0.65,2.904,0.874c2.067,0.47,4.187,0.677,6.305,0.702c1.537,0.018,3.057-0.098,4.589-0.185
			c1.617-0.092,3.229-0.263,4.831-0.5c3.164-0.47,6.29-1.175,9.379-2.005c1.462-0.393,2.913-0.826,4.377-1.214
			c1.386-0.368,2.779-0.726,4.125-1.226c0.676-0.251,1.342-0.533,1.975-0.877c0.517-0.279,1.012-0.598,1.52-0.89
			c0.509-0.293,1.024-0.586,1.493-0.942c0.364-0.275,0.747-0.601,0.939-1.023c-0.765-1.418-1.479-2.866-2.08-4.36
			c0.002,0.008,0.004,0.017,0.006,0.026c0.012,0.063-0.084,0.09-0.097,0.026c-0.047-0.243-0.104-0.484-0.169-0.722
			c-0.123-0.329-0.24-0.662-0.352-0.996c-0.083-0.016-0.165-0.034-0.249-0.056c-0.062-0.017-0.035-0.113,0.027-0.097
			c0.062,0.017,0.123,0.031,0.186,0.044c-0.052-0.156-0.103-0.313-0.151-0.471c-0.091-0.226-0.187-0.449-0.284-0.672
			c-0.044,0.287-0.14,0.566-0.271,0.827c-0.48,0.947-1.284,1.717-2.088,2.393c-0.797,0.669-1.647,1.268-2.506,1.855
			c-2.315,1.586-4.633,3.147-7.112,4.473c-2.488,1.331-5.092,2.465-7.803,3.256c-2.719,0.794-5.601,1.333-8.442,1.221
			c-2.715-0.107-5.338-0.814-7.833-1.865c-2.477-1.042-4.814-2.382-7.151-3.697c0.33,0.864,0.635,1.737,0.919,2.617
			c0.027-0.008,0.056-0.014,0.083-0.022c0.062-0.02,0.089,0.078,0.026,0.096c-0.025,0.008-0.053,0.014-0.078,0.021
			c0.031,0.101,0.064,0.201,0.096,0.302c0.207,0.655,0.398,1.313,0.585,1.973C75.869,111.745,75.885,111.75,75.896,111.768z"/>
		<path fill="#FFFFFF" d="M79.014,125.374c0.012,0.029,0.027,0.054,0.045,0.074c0.071,0.083,0.229,0.082,0.329,0.109
			c0.378,0.103,0.765,0.141,1.151,0.196c6.429,0.937,12.859,0.045,19.218-0.979c5.706-0.919,11.454-2.263,16.675-4.807
			c1.82-0.887,3.612-1.911,5.277-3.067c0.831-0.576,1.654-1.194,2.351-1.931c0.409-0.433,0.889-0.99,0.991-1.609
			c-0.204-0.458-0.44-0.897-0.689-1.33c-0.052,0.008-0.077-0.054-0.049-0.083c-0.223-0.38-0.453-0.757-0.681-1.137
			c-0.501-0.836-1.003-1.672-1.496-2.514c-0.384,0.516-0.962,0.902-1.487,1.249c-0.725,0.477-1.484,0.898-2.213,1.367
			c-1.732,1.112-3.514,2.15-5.335,3.11c-5.249,2.766-10.819,4.959-16.565,6.446c-2.918,0.755-5.876,1.334-8.88,1.623
			c-3.085,0.296-6.187,0.32-9.281,0.192c0.024,0.024,0.024,0.073-0.019,0.084c-0.002,0-0.004,0-0.004,0.001
			c0.125,0.573,0.251,1.145,0.379,1.717c0.064,0.286,0.13,0.572,0.195,0.858C78.951,125.061,78.959,125.249,79.014,125.374z"/>
		<path fill="#FFFFFF" d="M90.89,138.889c2.637-0.383,5.231-1.002,7.805-1.682c2.739-0.724,5.47-1.473,8.215-2.171
			c2.841-0.723,5.671-1.501,8.443-2.458c2.785-0.961,5.514-2.098,8.115-3.487c1.206-0.644,2.443-1.304,3.54-2.125
			c1.01-0.756,1.814-1.694,2.474-2.766c0.012-0.018,0.028-0.023,0.044-0.023c-0.095-0.155-0.18-0.311-0.258-0.452
			c-0.213-0.38-0.41-0.769-0.598-1.163c-0.004,0-0.008,0-0.012,0c-0.04-0.007-0.044-0.049-0.024-0.076
			c-0.585-1.243-1.065-2.542-1.548-3.821c-0.256-0.679-0.503-1.362-0.753-2.045c-0.453,0.501-0.949,0.961-1.475,1.385
			c-1.963,1.584-4.224,2.754-6.457,3.906c-2.296,1.184-4.555,2.431-6.79,3.729c-4.937,2.867-9.875,5.962-15.383,7.619
			c-2.686,0.808-5.44,1.186-8.243,1.188c-1.457,0.001-2.915-0.076-4.364-0.238c-0.669-0.075-1.337-0.165-2.001-0.278
			c-0.069-0.011-0.138-0.024-0.206-0.036c0.623,1.771,1.34,3.506,2.19,5.181C86.022,139.381,88.484,139.238,90.89,138.889z"/>
		<path fill="#FFFFFF" d="M86.437,148.31c0.797,0.062,1.605,0.059,2.403,0.062c1.745,0.006,3.49-0.056,5.231-0.18
			c3.517-0.251,7.015-0.735,10.479-1.392c6.642-1.259,13.263-2.699,19.647-4.954c1.615-0.57,3.216-1.187,4.789-1.862
			c1.315-0.564,2.594-1.199,3.895-1.792c1.021-0.465,2.052-0.92,3.024-1.479c-0.812-1.922-1.723-3.802-2.764-5.618
			c-0.596-1.039-1.104-2.122-1.691-3.161c0-0.001-0.001-0.002-0.001-0.003c-1.05,1.512-2.271,2.901-3.619,4.154
			c-3.618,3.358-8.02,5.799-12.59,7.604c-4.708,1.86-9.662,3.091-14.679,3.746c-3.052,0.397-6.131,0.62-9.209,0.624
			c-1.327,0.001-2.652-0.05-3.978-0.134c-0.776-0.049-1.625-0.087-2.403-0.299c0.062,0.321,0.127,0.642,0.218,0.958
			C85.551,145.84,86.002,147.074,86.437,148.31z"/>
		<path fill="#FFFFFF" d="M90.852,155.899c1.985,0.166,3.979,0.2,5.97,0.159c3.889-0.082,7.791-0.354,11.664-0.707
			c7.996-0.728,15.98-2.098,23.667-4.442c1.72-0.524,3.422-1.108,5.128-1.675c0.878-0.292,1.756-0.588,2.627-0.905
			c-0.42-1.243-0.848-2.482-1.223-3.747c-0.207-0.694-0.42-1.386-0.644-2.074c-1.453,0.618-2.915,1.21-4.392,1.772
			c-3.225,1.229-6.497,2.336-9.802,3.333c-6.49,1.96-13.104,3.531-19.78,4.716c-2.695,0.478-5.392,1.007-8.13,1.174
			c-2.646,0.16-5.453,0.035-7.868-1.171c-0.106,0.004-0.213,0.004-0.32,0.001c0.379,1.127,0.786,2.238,1.215,3.358
			C89.592,155.776,90.222,155.848,90.852,155.899z"/>
		<path fill="#FFFFFF" d="M122.231,83.323c-0.041,0.904-0.138,1.806-0.265,2.698c-0.244,1.719-0.608,3.426-1.121,5.086
			c-0.448,1.449-0.996,2.913-1.821,4.193c-0.481,0.747-1.127,1.559-1.991,1.876c0.051,0.108,0.102,0.217,0.15,0.325
			c0.066,0.146,0.133,0.292,0.198,0.438c0.03-0.015,0.074-0.001,0.073,0.042c0,0.037-0.003,0.073-0.005,0.11
			c0.072,0.165,0.146,0.331,0.216,0.496c0.02,0,0.04,0.01,0.047,0.035c0.031,0.105,0.065,0.21,0.097,0.314
			c0.071,0.175,0.138,0.352,0.203,0.528c3.262,0.586,5.312-2.951,6.27-5.535c0.599-1.612,0.995-3.316,1.141-5.031
			c0.016-0.187,0.029-0.377,0.042-0.57C124.366,86.678,123.299,85.001,122.231,83.323z"/>
		<path fill="#FFFFFF" d="M129.56,94.002c-0.483,1.422-1.146,2.788-1.913,4.076c-0.822,1.38-1.77,2.713-2.906,3.853
			c-0.827,0.83-1.855,1.72-3.045,1.943c-1.001,0.188-1.828-0.271-2.385-1.073c0.087,0.19,0.175,0.379,0.267,0.567
			c0.339,0.703,0.694,1.395,1.062,2.081c0.009-0.022,0.016-0.044,0.022-0.067c0.02-0.062,0.115-0.036,0.098,0.026
			c-0.017,0.053-0.036,0.105-0.057,0.156c0.338,0.627,0.688,1.25,1.044,1.868c0.035,0.004,0.069,0.01,0.104,0.016
			c0.016-0.014,0.036-0.022,0.061-0.011c0.021,0.009,0.041,0.018,0.062,0.026c0.004,0,0.008,0,0.012,0
			c0.018,0.001,0.03,0.009,0.038,0.02c1.041,0.434,2.161,0.351,3.153-0.195c1.129-0.622,2.019-1.625,2.763-2.659
			c1.1-1.529,1.963-3.224,2.716-4.946c0.408-0.934,0.783-1.882,1.131-2.84C131.043,95.899,130.298,94.954,129.56,94.002z"/>
		<path fill="#FFFFFF" d="M134.728,100.652c-0.141,0.167-0.272,0.341-0.4,0.517c-0.502,0.694-0.958,1.421-1.41,2.148
			c-1.055,1.694-2.061,3.43-3.238,5.044c-0.447,0.613-0.916,1.275-1.544,1.714c-1.069,0.748-2.088,1.667-3.423,1.874
			c-0.024,0.004-0.043-0.008-0.054-0.026c-0.064,0.035-0.131,0.064-0.201,0.085c0.219,0.383,0.425,0.769,0.613,1.167
			c0.003-0.056,0.003-0.113-0.003-0.169c-0.006-0.064,0.095-0.063,0.101,0c0.01,0.118,0.004,0.234-0.014,0.348
			c0.053,0.118,0.106,0.235,0.155,0.355c0.336,0.805,0.643,1.622,0.946,2.44c0.035,0.092,0.069,0.186,0.104,0.278
			c0.027-0.131,0.089-0.291,0.1-0.319c0.023-0.06,0.121-0.033,0.097,0.026c-0.018,0.046-0.036,0.092-0.054,0.139
			c0.027-0.033,0.056-0.065,0.083-0.097c0.041-0.05,0.111,0.021,0.071,0.07c0.181-0.191,0.364-0.386,0.58-0.536
			c0.546-0.379,1.043-0.859,1.532-1.309c1.892-1.737,3.631-3.629,5.47-5.42c1.225-1.193,2.511-2.44,3.963-3.394
			C137.086,103.904,135.921,102.251,134.728,100.652z"/>
		<path fill="#FFFFFF" d="M141.132,110.297c-0.153-0.261-0.308-0.521-0.464-0.782c-0.23,0.151-0.46,0.303-0.689,0.457
			c-2.216,1.491-4.364,3.089-6.395,4.826c-1.967,1.683-3.864,3.495-5.426,5.569c-0.016,0.021-0.04,0.025-0.061,0.018
			c-0.03,0.06-0.058,0.121-0.079,0.184c-0.014,0.037-0.055,0.042-0.079,0.025c0.161,0.397,0.324,0.792,0.496,1.185
			c0.1,0.228,0.201,0.458,0.306,0.685c0.128-0.022,0.309-0.16,0.396-0.211c0.146-0.085,0.288-0.175,0.433-0.263
			c0.056-0.033,0.105,0.054,0.051,0.087c-0.018,0.009-0.034,0.02-0.051,0.031c0.896,0.152,1.802-0.251,2.561-0.689
			c0.856-0.496,1.64-1.101,2.429-1.696c0.401-0.303,0.806-0.643,1.254-0.875c0.714-0.373,1.428-0.748,2.141-1.126
			c1.434-0.763,2.861-1.539,4.282-2.327c0.626-0.348,1.252-0.699,1.877-1.052C143.063,113.037,141.977,111.75,141.132,110.297z"/>
		<path fill="#FFFFFF" d="M76.312,79.936c0.005,0.016,0.003,0.032-0.012,0.047c-0.049,0.05-0.096,0.1-0.143,0.151
			c-0.094,0.118-0.191,0.234-0.291,0.347c-1.219,1.586-1.409,3.689-0.943,5.627c0.502,2.086,1.633,4.101,3.269,5.508
			c1.692,1.454,3.796,2.35,5.942,2.891c2.279,0.574,4.643,0.793,6.988,0.792c2.184-0.001,4.339-0.214,6.495-0.539
			c2.275-0.342,4.463-1.249,6.397-2.481c2.03-1.292,3.867-2.976,5.153-5.023c0.618-0.984,1.117-2.05,1.414-3.176
			c0.318-1.212,0.335-2.483,0.241-3.728c-0.2-2.651-0.97-5.347-2.42-7.592c-0.654-1.014-1.458-1.922-2.312-2.775
			c-0.921-0.022-1.847-0.042-2.753,0.025c-0.988,0.072-1.923,0.341-2.886,0.442c-1.379,0.145-2.849,0.23-4.232,0.223
			c-0.517-0.003-1.053,0.091-1.566,0.029c-0.361-0.043-0.969-0.433-1.256-0.418c-0.73,0.035-1.422,1.021-1.807,1.583
			c-0.919,1.343-1.35,2.955-2.271,4.296c-1.979,2.887-6.595,2.63-9.535,3.237c-1.135,0.235-2.152,0.249-3.199,0.175
			C76.496,79.697,76.405,79.816,76.312,79.936z"/>
	</g>
	<path fill="#245977" d="M54.496,105.327c-0.107-0.363-0.209-0.728-0.288-1.101c-0.152-0.72-0.267-1.43-0.325-2.163
		c-0.039-0.495-0.139-1.158-0.035-1.657c0.098-0.467,0.32-0.979,0.725-1.254c0.279-0.189,0.785-0.472,1.137-0.338
		c0.204,0.078,0.24,0.366,0.316,0.565c0.102,0.262,0.201,0.526,0.289,0.793c0.118,0.356,0.238,0.699,0.368,1.047
		c0.13,0.347,0.231,0.68,0.278,1.052c0.041,0.323,0.078,0.663,0.159,0.979c0.107,0.417,0.131,0.83,0.185,1.255
		c0.094,0.752,0.188,1.526,0.357,2.268c0.142,0.615,0.279,1.205,0.472,1.806c0.196,0.612,0.43,1.186,0.681,1.774
		c0.311,0.73,0.566,1.47,0.932,2.162c0.2-0.024,0.238-1.211,0.256-1.385c0.064-0.698,0.091-1.396,0.184-2.089
		c0.102-0.757,0.01-1.595,0.01-2.359c0-0.77-0.054-1.531-0.093-2.297c-0.03-0.599-0.091-1.2-0.091-1.804c0-0.269,0-0.536,0-0.804
		c0-0.304,0.058-0.571,0.095-0.868c0.063-0.503,0.036-1.01,0.125-1.508c0.085-0.469,0.156-0.889,0.288-1.349
		c0.146-0.507,0.254-1.036,0.607-1.469c0.244-0.301,0.932-0.536,1.248-0.252c0.189,0.17,0.273,0.479,0.4,0.694
		c0.186,0.316,0.379,0.636,0.452,1c0.144,0.722,0.132,1.588,0.19,2.315c0.144,1.792,0,3.656,0,5.453c0,1.224-0.442,8.314,2.013,6.87
		c0.364-0.214,0.554-0.52,0.638-0.918c0.089-0.419,0.367-0.787,0.591-1.143c0.462-0.735,1.034-1.358,1.765-1.854
		c0.563-0.384,1.018-0.624,1.722-0.561c0.534,0.048,0.406,0.448,0.286,0.793c-0.138,0.398-0.328,0.761-0.554,1.133
		c-0.282,0.466-0.61,1.058-0.608,1.616c0.004,0.679,0.211,1.321,0.424,1.958c0.149,0.446,0.349,0.982,0.691,1.318
		c0.726,0.708,1.721-0.173,2.29-0.658c0.738-0.631,1.563-1.23,2.424-0.417c0.593,0.561,0.979,1.329,1.079,2.182
		c0.17,1.48,0.061,3.445-1.006,4.489c-2.117,2.071-1.648-1.837-1.787-2.954c-0.234-0.086-0.441-0.088-0.676-0.001
		c-0.176,0.065-0.648,2.857-0.68,3.163c-0.207,2.022,1.102,3.917,1.42,5.878c0.332,2.041,1.08,3.305,2.204,4.997
		c0.499,0.752,0.897,1.567,1.442,2.311c1.01,1.38,1.825,2.966,2.699,4.441c1.631,2.755,4.581,7.88,1.803,10.784
		c-0.877,0.916-1.984,1.203-3.005,1.887c-0.794,0.531-1.301,1.268-2.31,1.367c-1.648,0.162-2.898-0.961-3.996-2.058
		c-1.676-1.676-2.236-3.977-2.845-6.184c-0.594-2.151-1.589-4.191-2.269-6.321c-0.604-1.891-1.233-3.899-2.109-5.685
		c-0.705-1.439-1.118-3.082-2.111-4.356c-0.367-0.471-0.727-0.947-1.088-1.422c-0.356-0.468-0.803-0.928-1.091-1.438
		c-0.229-0.406-0.653-0.655-0.991-0.977c-0.395-0.374-0.777-0.767-1.237-1.061c-0.372-0.239-0.696-0.538-1.038-0.804
		c-0.301-0.233-0.688-0.333-1.006-0.539c-0.48-0.312-0.904-0.693-1.375-1.017c-0.293-0.202-0.634-0.319-0.922-0.531
		c-0.131-0.097-0.284-0.182-0.4-0.297c-0.111-0.111-0.18-0.227-0.34-0.301c-0.449-0.207-0.992-0.086-1.469-0.146
		c-0.59-0.073-1.115,0.032-1.715,0.091c-0.365,0.036-0.717,0.06-1.082,0.089c-0.326,0.026-0.635,0.096-0.954-0.008
		c-0.878-0.288-1.28-1.417-0.658-2.142c0.335-0.391,0.89-0.67,1.333-0.932c0.557-0.329,1.232-0.453,1.871-0.567
		c1.318-0.237,2.581-0.154,3.877,0.015c0.426,0.056,0.86,0.026,1.289,0.08c0.406,0.051,0.885,0.081,0.922-0.405
		c0.035-0.451-0.114-0.914-0.229-1.342c-0.186-0.692-0.564-1.325-0.727-2.02c-0.109-0.468-0.23-0.93-0.334-1.382
		c-0.122-0.528-0.174-1.125-0.264-1.684c-0.117-0.728-0.202-1.446-0.37-2.17C54.828,106.407,54.656,105.869,54.496,105.327z"/>
	<path fill="#245977" d="M97.579,116.543c0.634,0.095,1.221,0.293,1.807,0.553c1.466,0.651,3.17,0.962,4.742,1.189
		c2.729,0.395,5.036,2.381,7.568,3.379c3.633,1.434,7.5,2.913,10.963,4.753c1.152,0.612,2.339,1.105,3.557,1.619
		c1.593,0.672,3.159,1.21,4.721,2.001c2.826,1.432,5.824,2.609,8.76,3.803c2.27,0.922,4.349,2.179,6.674,2.956
		c1.61,0.537,3.403,1.383,5.146,1.25c1.311-0.1,3.327-1.128,3.275-2.726c-0.02-0.637-0.411-1.201-0.426-1.881
		c-0.016-0.755-0.167-1.29-0.401-2.003c-0.533-1.623-0.835-2.914-1.953-4.202c-1.689-1.947-3.631-3.57-5.484-5.34
		c-0.886-0.846-1.487-1.923-2.198-2.909c-0.869-1.206-1.792-2.377-2.428-3.73c-0.637-1.356-1.428-2.373-2.805-2.999
		c-3.233-1.475-6.588-1.338-9.74,0.185c-0.086,0.702,0.503,2.115,0.82,2.774c0.436,0.901,1.129,1.722,1.607,2.593
		c0.416,0.758,0.749,1.593,1.098,2.41c0.306,0.718,0.854,1.401,1.07,2.125c-1.29-0.263-2.737-1.37-4.025-1.879
		c-2.012-0.794-3.876-1.831-5.771-2.865c-2.766-1.512-5.673-2.758-8.586-4.004c-1.973-0.845-3.889-1.605-5.896-2.279
		c-2.171-0.728-4.151-1.891-6.387-2.51c-1.752-0.484-3.409-0.666-5.162-1c-0.911-0.174-1.712-0.326-2.629-0.397
		c-3.231-0.249-6.22-1.702-9.429-2.038c-0.868-0.091-1.695-0.048-2.557-0.175c-0.814-0.12-1.63-0.151-2.449-0.26
		c-1.506-0.201-2.71,0.054-4.169,0.56c-0.649,0.225-1.358,0.338-2.024,0.488c-0.824,0.186-1.619,0.468-2.432,0.747
		c-1.269,0.434-2.949,0.392-3.994,1.353c-0.24,0.221-0.446,0.365-0.267,0.753c0.204,0.438,0.341,0.202,0.729,0.29
		c0.728,0.165,1.189-0.019,1.953-0.109c1.457-0.173,3.03-0.034,4.503-0.034c1.572,0,3.245-0.162,4.804,0.034
		c0.55,0.07,1.04,0.129,1.606,0.109c-0.729,0.314-1.567,0.779-2.338,0.942c-0.13,0.283-0.352,0.982-0.147,1.289
		c0.278,0.418,1.066,0.322,1.479,0.331c1.812,0.039-0.093,0.983-0.127,1.73c-0.027,0.609,1.021,0.62,1.203,1.39
		c0.227,0.961,0.229,1.406,1.07,2.105c1.067,0.886,2.16,0.852,3.427,0.469c1.655-0.499,3.192-0.782,4.901-1.025
		C93.374,116.051,95.455,116.227,97.579,116.543z"/>
	<path fill="#245977" d="M72.756,80.848c-2.286,0.423-4.166-1.133-5.91-2.447c-1.6-1.207-2.235-3.161-2.355-5.014
		c-0.065-1.027,0.539-2.018-0.049-2.953c-0.324-0.518-0.775-1.199-1.123-1.659c-0.305-0.403,0.021-0.427-0.568-0.44
		c-0.374-0.009-0.893,0.453-1.244,0.584c-1.332,0.498-2.283-0.064-3.053-1.18c-0.904-1.311-0.163-1.739,0.496-2.891
		c0.174-0.304,0.317-0.621,0.499-0.914c0.202-0.325,0.415-0.654,0.614-0.983c0.195-0.319,0.418-0.615,0.632-0.925
		c0.248-0.36,0.456-0.729,0.647-1.123c0.059-0.122,0.131-0.243,0.183-0.367c0.068-0.165,0.061-0.142-0.081-0.274
		c-0.514-0.483-1.088-0.91-1.623-1.37c-0.379-0.324-0.816-0.687-1.075-1.123c-0.566-0.956,0.011-1.998,0.331-2.913
		c0.042-0.119,0.081-0.238,0.115-0.359c0.309-1.059,0.221-2.191,0.204-3.28c-0.015-0.946,0.433-1.735,0.456-2.666
		c0.016-0.653-0.105-1.267,0.094-1.908c0.312-1.003,1.012-1.922,1.555-2.811c0.541-0.883,0.992-1.821,1.627-2.646
		c0.905-1.176,2.471-2.039,3.826-2.544c1.084-0.403,2.232-0.669,3.381-0.827c0.213-0.029,0.426-0.055,0.641-0.077
		c1.309-0.135,2.562-0.088,3.816,0.317c1.422,0.459,2.798,1.59,3.936,2.53c2.197,1.816,4.285,3.585,5.996,5.896
		c2.191,2.96,3.818,6.657,4.613,10.252c0.361,1.641,0.459,3.308,0.596,4.979c0.116,1.423,0.371,2.763,0.722,4.139
		c0.313,1.231,0.978,2.303,1.936,3.135c0.401,0.349,0.824,0.684,1.237,1.021c0.563,0.46,1.28,0.637,1.951,0.884
		c0.514,0.189,1.007,0.286,1.554,0.283c0.757-0.004,1.431,0.052,2.18,0.154c0.548,0.075,1.079,0.195,1.633,0.192
		c0.712-0.003,1.431-0.023,2.143-0.002c1.337,0.04,2.581,0.344,3.832,0.76c0.633,0.21,1.723,0.336,1.975,1.08
		c0.128,0.374,0.048,1.108,0.021,1.509c-0.047,0.74-0.069,1.342,0,2.063c0.141,1.456-0.444,3.065-1.134,4.312
		c-0.506,0.915-1.118,1.774-1.664,2.668c-0.577,0.946-1.796,1.718-2.59,2.514c-1.291,1.295-2.967,2.278-4.675,2.946
		c-1.579,0.619-3.321,0.997-5.015,1.016c-2.841,0.031-5.621,0.968-8.5,0.435c-1.179-0.218-2.238-0.947-3.213-1.661
		c-0.338-0.247-0.689-0.479-1.061-0.678c-0.421-0.228-0.876-0.401-1.271-0.68c-0.771-0.543-1.451-1.297-1.909-2.101
		c-0.261-0.457-0.625-0.944-0.792-1.433c-0.168-0.496,0.167-0.879,0.297-1.361c0.128-0.481,0.185-0.874,0.187-1.374
		c0-0.57-0.199-0.636-0.682-0.836c-0.646-0.267-1.568-0.709-2.258-0.394C74.189,80.598,73.457,80.718,72.756,80.848z"/>
	<path d="M67.773,56.964c0.287,0.243,0.871-0.78,1.012-0.951c0.239-0.292,0.498-0.547,0.76-0.82c0.205-0.213,0.333-0.464,0.53-0.678
		c1.067-1.154,2.907-1.795,4.405-1.063c0.783,0.382,2.118,2.01,2.484,2.833c-0.838-0.188-1.763-0.684-2.729-0.771
		c-1.022-0.092-1.722,0.061-2.595,0.406c-1.609,0.637-3.405,1.12-4.051,2.964c-0.562,0.217-1.301-0.3-1.543-0.726
		c0.098-0.045,0.199-0.057,0.303-0.035c-0.32-0.293-0.775-0.306-0.697-0.777c0.276-0.046,0.52,0.089,0.691,0.345
		c-0.169-0.239-0.149-0.617-0.086-0.961c0.268,0.065,0.474,0.287,0.535,0.56c-0.452-0.208-0.434-0.89-0.336-1.35
		c0.111-0.073,0.221-0.073,0.332,0c0.057,0.288,0.06,0.603,0.02,0.9c1.213-0.576,1.951-1.564,2.969-2.378
		c0.669-0.534,1.545-0.889,2.301-1.278c0.359-0.185,0.862-0.586,1.236-0.688c0.652-0.179,0.702,0.107,1.283,0.504
		c0.44,0.3,0.848,0.58,1.314,0.816c0.396,0.2,0.742,0.506,1.004,0.845c0.168,0.217,0.64,0.665,0.312,0.83
		c-0.355,0.179-0.895-0.124-1.217-0.236c-0.666-0.233-1.501-0.201-2.234-0.18c-1.069,0.03-1.984,0.326-2.952,0.764
		c-0.706,0.32-1.429,0.602-2.085,1.025c-0.298,0.192-0.774,0.342-0.803,0.758"/>
	<path d="M72.602,61.867c0.944-0.206,2.412-1.295,3.014-2.012c-0.032,0.932-0.042,1.878,0.008,2.809
		c-0.248-0.412-0.509-0.863-0.862-1.087c0.024,0.831-0.413,1.542-0.428,2.356c-0.318-0.541-0.396-2.271-1.692-1.732
		c0.051,0.457,0.009,1.024-0.354,1.35c-0.076-0.459-0.229-0.886-0.345-1.35c-0.925-0.391-1.491,0.798-2.065,1.351
		c0.104-0.34-0.06-0.731-0.031-1.051c-0.574-0.208-1.114-0.05-1.469,0.443c-0.068-0.423-0.037-0.957,0.18-1.338
		c0.062-0.11,0.09-0.077,0.199-0.109C70.061,61.116,71.296,62.153,72.602,61.867z"/>
	<path fill="#FD1813" d="M69.873,73.104c-0.55-0.289-0.873-0.979-1.484-1.136c-0.25-0.064-0.979-0.101-1.051,0.266
		c-0.043,0.22,0.283,0.424,0.418,0.544c0.23,0.206,0.452,0.406,0.631,0.659c0.303,0.433,0.524,1.019,1.021,1.271
		c0.755,0.384,3.388-0.38,3.106-1.506c-0.162-0.654-0.766-0.954-1.385-0.88c-0.301,0.036-0.485,0.113-0.799-0.047
		c-0.217-0.111-0.396-0.283-0.623-0.378c-0.082-0.035-0.179-0.079-0.269-0.092c-0.052-0.008-0.103,0.001-0.153,0
		c-0.068-0.002-0.135-0.026-0.203-0.016c-0.082,0.011-0.147,0.058-0.23,0.062c-0.033,0.002-0.062,0.015-0.092,0.016
		c-0.023,0.001-0.075-0.021-0.089-0.013c-0.073,0.044,0.214,0.153,0.253,0.169c0.104,0.042,0.192,0.12,0.275,0.196
		c0.201,0.184,0.337,0.431,0.524,0.627c0.158,0.166,0.354,0.253,0.579,0.303c0.062,0.015,0.449,0.051,0.371,0.176
		c-0.073,0.118-0.236,0.09-0.338,0.042C70.178,73.291,70.029,73.187,69.873,73.104z"/>
	<path d="M66.955,72.216c0.301,0.044,0.575,0.717,0.857,0.853c0.031-0.257,0.041-0.521,0.076-0.783
		c0.068-0.51,0.282-0.155,0.469,0.072c0.129,0.155,0.43,0.563,0.623,0.39c0.129-0.116,0.049-0.553,0.043-0.717
		c0.326,0.428,0.775,0.765,1.328,0.701c0.092-0.298-0.243-0.578-0.297-0.854c0.271,0.269,0.697,0.445,1.053,0.58
		c0.319,0.123,0.963,0.374,1.32,0.27c-0.263-0.275-0.554-0.644-0.774-0.979c0.169-0.023,0.458,0.202,0.628,0.275
		c0.467,0.203,0.943,0.299,1.438,0.382c0.24,0.04,0.557,0.141,0.803,0.071c0.266-0.074,0.16-0.2,0.188-0.459
		c0.226-0.05,0.502,0.031,0.675,0.177c-0.151-0.366-0.46-0.84-0.758-1.097c0.271,0.306,0.701,0.588,1.135,0.499
		c0.193-0.536-0.889-0.637-1.053-0.912c0.304-0.031,0.899-0.076,0.797-0.526c-0.024,0.571-2.674,0.377-3.023,0.378
		c-1.533,0.007-3.103-0.276-4.594-0.536c-0.584-0.102-1.2-0.062-1.799-0.065c-0.422-0.002-0.891,0.158-1.298,0.007
		c-0.421-0.155-0.822-0.393-1.085-0.758c-0.223-0.312-0.355-0.628-0.652-0.883c-0.187,0.303-0.33,0.539-0.609,0.732
		c-0.182,0.125-0.349,0.274-0.519,0.414c-0.074,0.061-0.216,0.15-0.257,0.226c0.201,0.169,0.637,0.134,0.891,0.17
		c0.02,0.139-0.239,0.375-0.33,0.504c-0.113,0.163-0.25,0.408-0.253,0.61c0.132,0.015,0.286-0.133,0.409-0.189
		c0.246-0.111,0.553-0.214,0.826-0.171c-0.047-0.008-0.236,0.514-0.282,0.578c-0.164,0.233-0.396,0.417-0.56,0.653
		c0.191,0.03,0.459,0.042,0.648,0.013c0.141-0.021,0.3-0.138,0.439-0.146c0.047,0.316,0.054,0.678,0.066,0.991
		c0.194-0.025,0.384-0.544,0.506-0.697c0.137-0.169,0.319-0.49,0.531-0.547c-0.012,0.208,0.106,0.361,0.196,0.533
		c0.14,0.266,0.251,0.539,0.374,0.815c0.15-0.044,0.266-0.449,0.35-0.576c0.123-0.185,0.248-0.381,0.377-0.558
		c-0.005,0.007,0.285,0.656,0.3,0.713c0.052,0.199-0.038,0.52,0.184,0.639C66.699,73.202,66.52,72.152,66.955,72.216z"/>
	<path d="M58.541,55.929c-0.017-0.271,0.293-0.616,0.419-0.831c0.251-0.43,0.513-0.831,0.843-1.214
		c0.207-0.242,0.428-0.414,0.685-0.603c0.365-0.267,0.476-0.653,0.729-0.999c0.095-0.129,0.205-0.237,0.296-0.374
		c0.033-0.049,0.178-0.31,0.266-0.245c0.061,0.045,0.112,0.273,0.155,0.351c0.171,0.307,0.351,0.611,0.454,0.954
		c0.055,0.183,0.096,0.34,0.096,0.533c0,0.189-0.033,0.363-0.033,0.554c0,0.261-0.027,0.513-0.088,0.765
		c-0.04,0.166-0.104,0.33-0.139,0.497c-0.156-0.015-0.151-0.574-0.186-0.704c-0.032-0.121-0.127-0.333-0.256-0.379
		c-0.107-0.039-0.203,0.039-0.296,0.084c-0.274,0.133-0.565,0.232-0.781,0.459c-0.232,0.245-0.379,0.558-0.598,0.82
		c-0.411,0.492-0.978,0.786-1.39,1.255c-0.296,0.336-0.314,0.566-0.09,0.949c-0.272-0.264-0.408-0.72-0.408-1.084
		c0.002-0.672,0.521-1.031,0.922-1.524"/>
	<path d="M61.723,58.877c-0.274-0.092-0.416-0.045-0.693-0.046c-0.536-0.001-0.963-0.382-1.389-0.676
		c0.045,0.149,0.258,0.33,0.361,0.439c-0.116,0.026-0.203-0.019-0.301-0.033c-0.074,0.207,0.183,0.306,0.299,0.411
		c-0.167,0.011-0.35-0.042-0.521-0.05c0.136,0.101,0.24,0.218,0.395,0.29c-0.014,0.017-0.022,0.051-0.035,0.069
		c0.115,0.158,0.331-0.149,0.5-0.174c0.222-0.032,0.449,0.043,0.645,0.093c0.424,0.107,0.887,0.082,1.331,0.146
		c0.002,0.14-0.298,0.333-0.399,0.463c-0.088,0.115-0.195,0.238-0.297,0.357c-0.158,0.187-0.824,0.779-0.461,0.982
		c0.292,0.163,0.34-0.426,0.473-0.614c0.246-0.349,0.666-0.557,0.871-0.938c0.092-0.17,0.162-0.369-0.034-0.459
		c-0.087-0.04-0.211-0.029-0.306-0.064C62.011,59.018,61.876,58.929,61.723,58.877z"/>
	<path fill="#FFFFFF" d="M60.201,59.107c0.1,0.102-0.025,0.595,0.045,0.785c0.088,0.236,0.26,0.48,0.451,0.657
		c0.162,0.148,0.36,0.271,0.552,0.082c0.096-0.094,0.157-0.256,0.254-0.359c0.083-0.089,0.175-0.151,0.267-0.23
		c0.155-0.137,0.393-0.283,0.516-0.46c0.161-0.235-0.15-0.386-0.382-0.475c-0.256-0.099-0.584-0.09-0.864-0.09
		c-0.16,0-0.718-0.073-0.793,0.046"/>
	<path d="M60.457,59.518c0.014,0.009,0.027,0.02,0.041,0.029c-0.006-0.049,0.006-0.04-0.029-0.072
		c-0.074,0.447,0.098,0.93,0.482,1.185c0.365,0.24,0.959,0.183,1.154-0.22c0.159-0.33,0.216-0.839-0.171-1.015
		c-0.426-0.193-0.853-0.095-1.292-0.091"/>
	<path fill="#FD1813" d="M70.161,72.178c0.138,0.099,0.286,0.147,0.455,0.165c0.146,0.015,0.296,0.056,0.438-0.007
		c0.381-0.166,0.791-0.475,1.228-0.33c0.432,0.144,0.679,0.606,0.679,1.04c0,0.12-0.006,0.237-0.015,0.355
		c-0.009,0.13-0.091,0.266-0.162,0.372c-0.074,0.11-0.159,0.186-0.269,0.268c-0.131,0.099-0.268,0.234-0.424,0.292
		c-0.099,0.037-0.215,0.04-0.318,0.059c-0.106,0.02-0.215,0.042-0.32,0.07c-0.088,0.023-0.215,0.072-0.307,0.044
		c-0.037-0.011-0.082-0.042-0.121-0.056c-0.035-0.013-0.078-0.029-0.107-0.055c-0.08-0.076-0.006-0.174,0.031-0.256
		c0.092-0.207,0.141-0.405,0.137-0.631c-0.006-0.197-0.016-0.421-0.078-0.609c-0.039-0.115-0.129-0.248-0.229-0.323
		c-0.077-0.059-0.182-0.066-0.252-0.148"/>
	<path fill="#245977" d="M85.396,55.72c1.182-0.746-0.697-3.66,1.306-4.688c0.746-0.382,2.456-0.629,3.326-0.385
		c0.694,0.194,0.885,0.931,1.048,1.596c0.412,1.674-0.08,3.748-0.605,5.245c-0.271,0.775-0.678,1.487-1.329,1.977
		c-0.308,0.232-0.665,0.375-0.94,0.656c-0.234,0.238-0.333,0.572-0.623,0.798c0.789-0.951,0.985-2.364,0.082-3.266
		c-0.915-0.914-2.93-1.036-1.603-2.815"/>
	<path d="M59.211,50.505c-0.652-2.747-1.413-6.131,0.091-8.813c0.849-1.512,2.366-2.34,3.537-3.509
		c1.456-1.453,2.595-3.125,4.475-4.005c3.688-1.725,8.929-1.647,12.952-1.3c4.771,0.411,6.642,4.165,9.183,7.71
		c0.497,0.692,0.969,1.4,1.426,2.119c0.359,0.566,0.788,1.021,1.077,1.635c0.279,0.59,0.473,1.202,0.667,1.81
		c0.399,1.246,0.698,2.555,1.097,3.805c0.188,0.59,0.041,1.016,0.759,1.046c0.755,0.031,1.745,0.148,2.411,0.547
		c0.62,0.371,1.39,1.322,1.022,2.12c-0.28,0.608-1.304,0.484-1.593,1.017c0.488,0.301,0.991,0.673,1.157,1.234
		c0.262,0.888-0.078,1.991-0.876,2.498c0.241,0.622,0.769,1.129,0.924,1.824c0.1,0.443,0.391,2.141-0.516,1.981
		c0.696,0.566,0.757,1.664,0.549,2.465c-0.182,0.7-0.625,1.6-1.316,1.922c-0.362,0.168-0.688,0.141-1.059,0.199
		c-0.047,2.084-2.844,2.068-4.2,1.296c-0.885-0.503-1.318-0.827-1.365-1.899c-0.032-0.731-0.267-1.341-0.432-2.04
		c-0.418-1.772,0.101-4.094,0.791-5.747c0.699-1.673,1.739-4.426,0.199-6.02c-1.552-1.607-3.96-0.563-3.797,1.672
		c-0.888-0.692-2.378-0.313-3.454-0.832c-0.266-1.716-0.315-3.039-0.941-4.668c-7.408-1.085-14.932-0.473-22.529-0.899
		c0.766,0.084,0.313,0.45,0.562,0.83"/>
	<path d="M58.472,41.418c-0.753,0.047-1.702-0.546-2.407-0.819c-1.696-0.659-3.379-1.387-4.826-2.503
		c-2.467-1.905-4.561-4.628-5.623-7.569c-1.326-3.677-2.607-7.31-1.493-11.285c0.803-2.862,2.833-5.855,5.726-6.913
		c3.445-1.259,6.127-0.389,9.275,1.134c3.252,1.572,6.594,3.44,9.213,5.958c1.914,1.84,3.191,4.002,3.958,6.531
		c0.699,2.306,0.964,5.153,1.79,7.255c1.077-2.771,7.418-1.185,9.271-0.233c-0.003-2.75,1.886-5.542,3.208-7.881
		c2.03-3.588,5.962-7.426,9.818-8.849c3.671-1.354,8.093-2.012,12-1.51c3.925,0.504,6.699,3.714,8.03,7.223
		c3.265,8.601,1.086,18.028-5.038,24.879c-3.658,4.092-9.033,4.54-13.934,6.317c-4.166,1.511-7.432,0.777-11.341-0.712
		c0.135-0.312,0.316-0.166,0.622-0.204"/>
	<path d="M116.161,216.177c-1.147,4.118-1.021,8.985-1.457,13.142c-0.481,4.582-0.785,8.759-1.625,13.309
		c-1.599,8.65-6.324,15.988-8.653,24.345c-0.339,1.217-2.922,16.893-3.097,16.877c-2.258-0.199-5.339,10.475-6.535,12.53
		c-3.127,5.371-6.62,10.544-9.273,16.178c-1.747,3.709-3.341,6.966-5.505,10.463c-1.943,3.137-3.957,6.047-5.449,9.403
		c-1.469,3.303-3.572,6.259-5.414,9.353c-0.344,0.576-0.723,1.125-0.98,1.748s-0.575,1.222-0.822,1.85
		c-0.172,0.437-0.246,0.883-0.486,1.294c-0.141,0.241-0.531,0.599-0.453,0.894c0.268,0.036,0.461,0.008,0.717,0.114
		c0.332,0.137,0.67,0.277,1.012,0.386c0.576,0.185,0.963,0.39,1.43,0.74c0.348-0.682,0.483-1.478,1.246-1.84
		c0.855-0.405,1.998-0.041,2.898-0.045c0.656-0.002,1.293,0.063,1.947,0.061c0.467-0.003,1.022-0.004,1.484,0.07
		c0.285,0.047,0.561,0.157,0.67,0.399c0.189,0.417,0.172,0.877,0.24,1.319c0.112,0.737,0.199,1.475,0.299,2.192
		c0.051,0.368-0.031,0.442,0.354,0.523c0.271,0.057,0.513,0.167,0.773,0.267c0.196,0.073,0.515,0.196,0.716,0.062
		c0.252-0.169,0.467-0.705,0.614-0.959c0.712-1.223,1.462-2.419,2.297-3.563c1.042-1.427,2.065-2.942,2.688-4.61
		c0.183-0.491,0.287-1.004,0.441-1.503c0.192-0.622,0.499-1.188,0.861-1.727c0.975-1.451,1.992-2.869,2.833-4.406
		c3.566-6.508,5.991-13.3,10.248-19.483c4.33-6.292,8.022-12.847,12.034-19.32c2.832-4.568,4.293-8.312,5.882-13.347
		c2.07-6.562,5.813-12.75,8.534-19.073c2.872-6.676,5.53-13.441,8.044-20.259c2.123-5.761,4.071-12.324,4.956-18.431
		c0.619-4.271,2.113-8.37,2.709-12.626c1.042-7.44,1.98-15.022,2.326-22.55c0.244-5.302,0.891-10.66,0.562-15.999
		c-0.373-6.061-0.906-10.516-3.86-15.781"/>
	<path d="M111.253,283.505c0.032-11.171,0.329-22.341,0.472-33.512c0.075-5.926-2.68-21.166,5.553-23.257
		c1.149-0.292,3.197-0.383,4.378-0.15c1.415,0.277,2.435,1.623,3.737,1.599c-0.081-2.143,1.073-4.173,1.601-6.251
		c0.874-3.439,0.387-6.807,1.646-10.106c2.141-5.611,3.198-11.713,4.926-17.531c1.069-3.605,1.998-7.252,2.892-10.903
		c0.832-3.399,2.493-6.711,4.048-9.846c0.518-1.04,1.106-2.262,1.951-3.061c0.908-0.859,1.925-1.107,3.06-1.57
		c-0.394-0.506-0.474-1.824-0.546-2.489c-0.158-1.457-0.154-2.892-0.521-4.331c-0.232-0.912-0.377-1.826-0.454-2.758
		c-0.039-0.475,0.018-1.18-0.386-1.479c-0.251-0.186-0.697-0.143-1.01-0.27c-0.342-0.14-0.709-0.502-1.098-0.366
		c-0.089,0.597-0.503,1.219-0.692,1.796c-0.203,0.618-0.397,1.21-0.625,1.817c-0.421,1.124-0.996,2.293-1.24,3.472
		c-0.55,0.046-1.006,0.334-1.521,0.479c-0.504,0.141-1.017,0.08-1.542,0.137c-1.6,0.171-3.352,0.663-4.895,1.192
		c-2.196,0.753-4.844,0.816-7.15,0.985c-1.664,0.122-3.314,0.251-4.978,0.446c-1.77,0.209-3.556,0.176-5.334,0.314
		c-3.729,0.294-7.639,0.129-11.35-0.345c-1.254-0.159-2.479-0.485-3.734-0.633c-1.056-0.124-2.272-0.052-3.249-0.489
		c-0.312-0.14-0.879-0.423-1.081-0.7c-0.242-0.329-0.162-0.722-0.312-1.087c-0.321-0.783-1.308-0.633-2.078-0.534
		c-0.286,1.193-0.906,2.122-1.002,3.335c-0.06,0.746-0.005,1.524,0,2.272c0.003,0.673-0.437,1.942-0.042,2.522
		c0.301,0.442,1.284,0.643,1.719,0.973c0.742,0.564,0.561,1.344,0.561,2.235c0,1.476-0.098,2.987,0.105,4.444
		c0.115,0.829,0.404,1.474,0.654,2.237c0.265,0.805,0.121,1.809,0.151,2.649c0.057,1.564,0.129,3.129,0.211,4.692
		c0.481,9.236,1.295,18.465,1.298,27.721c0.009,21.765,0.548,43.631,0.548,65.456c0,10.284,1.134,20.298,1.095,30.548
		c-0.024,6.745,1.093,13.368,1.096,20.07c0.002,5.167,0.547,10.253,0.547,15.509c0,2.181-0.014,4.361,0,6.542
		c0.014,2.044-0.875,3.948-0.464,5.94c2.664,0.339,5.082,0.398,7.703,1.044c2.344,0.575,4.624,1.219,6.914,1.571
		c0.495-4.159,0.083-8.716,0.083-12.936c0-6.091,0.546-12,0.547-18.066c0.001-6.769-0.569-13.441-0.549-20.194
		C112.923,302.889,111.225,293.234,111.253,283.505z"/>
</g>
</svg>
