<?xml version="1.0" encoding="utf-8"?>
<!-- Generator: Adobe Illustrator 16.0.4, SVG Export Plug-In . SVG Version: 6.00 Build 0)  -->
<!DOCTYPE svg PUBLIC "-//W3C//DTD SVG 1.1//EN" "http://www.w3.org/Graphics/SVG/1.1/DTD/svg11.dtd">
<svg version="1.1" id="Ebene_1" xmlns="http://www.w3.org/2000/svg" xmlns:xlink="http://www.w3.org/1999/xlink" x="0px" y="0px"
	 width="151.095px" height="357.664px" viewBox="0 0 151.095 357.664" enable-background="new 0 0 151.095 357.664"
	 xml:space="preserve">
<g>
	<path d="M93.922,67.297c2.105-6.847,1.241-14.791,0.207-21.799c-0.234-1.582-0.363-3.146-0.561-4.729
		c-0.132-1.055-1.072-3.439-0.794-4.417c0.61-2.153,5.092-0.285,6.687-2.114c0.805,0.672,0.38,2.594,0.38,3.566
		c-0.001,1.451,0.306,2.803,0.516,4.256c0.479,3.288,0.919,6.781,0.989,10.113c0.068,3.248-0.359,6.31-0.648,9.482
		c-0.18,1.956-0.227,3.922-0.486,5.866c-0.221,1.647-0.869,3.155-1.225,4.767c-0.639,2.9-1.309,5.734-2.109,8.582
		c-0.721,2.562-1.928,5.068-3.002,7.577c-4.787,11.167-8.59,22.548-13.094,33.838c-1.219,3.054-2.051,6.31-2.988,9.379
		c-0.916,2.999-2.984,7.503-2.723,10.46c-1.34-0.549-2.09-4.482-2.777-5.948c-0.971-2.072-2.771-4.083-3.523-6.111
		c-0.859-2.322,0.876-4.896,1.789-6.903c1.045-2.298,2.197-4.504,3.236-6.874c1.912-4.364,4.567-8.146,6.512-12.502
		C85.643,91.832,90.066,79.843,93.922,67.297z"/>
	<path fill="#245977" d="M60.521,96.396c-0.338-0.018-0.795,0.203-1.068,0.369c-0.431,0.263-0.883,0.504-1.293,0.783
		c-0.203,0.139-0.449,0.211-0.643,0.361c-0.133,0.102-0.254,0.22-0.384,0.325c-0.315,0.254-0.577,0.562-0.838,0.86
		c-0.462,0.531-0.845,1.113-1.208,1.705c-0.73,1.188-1.192,2.552-1.449,3.893c-0.158,0.825-0.256,1.622-0.246,2.466
		c0.004,0.317,0.041,0.636,0.068,0.951c0.011,0.124,0.019,0.245,0.088,0.359c0.027,0.048,0.082,0.091,0.11,0.133
		c-0.287-0.088-0.478-0.851-0.534-1.095c-0.207-0.882,0.113-1.871,0.154-2.757c0.055-1.171,0.063-2.466,0.777-3.444
		c0.553-0.758,1.398-1.541,2.146-2.113c0.813-0.622,1.766-1.07,2.633-1.627c0.639-0.412,1.029-1.09,1.731-1.391
		c1.895-0.814,4.511-0.479,6.513-0.117c1.872,0.34,3.572,1.252,4.953,2.447c0.171,0.146,0.33,0.315,0.526,0.436
		c0.108,0.064,0.247,0.104,0.321,0.209c0.098,0.139,0.072,0.34,0.037,0.488c-0.014,0.061-0.191,0.474-0.135,0.512
		c0.229,0.154,0.553,0.268,0.821,0.402c0.33,0.164,0.708,0.311,1.066,0.42c0.144,0.043,0.358,0.082,0.507,0.092
		c0.182,0.012,0.373,0.046,0.559,0.058c1.496,0.096,3.09,0.488,4.479,1.042c1.021,0.406,1.998,0.97,1.758,2.111
		c-0.312,1.479-5.027,3.088-3.73,4.691c0.011,0.012,0.021,0.025,0.031,0.037c0.145,0.172,0.311,0.327,0.455,0.498
		c0.031,0.036,0.06,0.076,0.094,0.111c0.02,0.023,0.042,0.042,0.055,0.07c0.021,0.043,0.024,0.094,0.037,0.139
		c0.013,0.051,0.029,0.104,0.046,0.155c0.024,0.081,0.022,0.17-0.024,0.241c-0.037,0.057-0.099,0.106-0.15,0.155
		c-0.031,0.031-0.07,0.06-0.11,0.083c-0.08,0.049-0.159,0.104-0.243,0.146c-0.217,0.107-0.436,0.207-0.649,0.317
		c-0.143,0.074-0.309,0.114-0.45,0.187c-0.061,0.029-0.121,0.051-0.181,0.083c-0.062,0.032-0.126,0.061-0.187,0.093
		c-0.403,0.217-0.836,0.391-1.203,0.659c-0.078,0.058-0.135,0.134-0.219,0.185c-0.043,0.026-0.088,0.047-0.132,0.072
		c-0.03,0.016-0.098,0.041-0.108,0.072c0.025,0.004,0.061-0.01,0.088-0.011c0.033-0.003,0.065-0.007,0.098-0.005
		c0.072,0.006,0.145,0.007,0.215,0.004c0.211-0.01,0.414-0.07,0.61-0.141c0.188-0.066,0.382-0.124,0.577-0.18
		c0.232-0.067,0.477-0.131,0.721-0.152c0.243-0.021,0.488-0.055,0.732-0.062c0.121-0.004,0.268,0.023,0.379,0.07
		c0.068,0.027,0.117,0.078,0.166,0.13c0.053,0.055,0.104,0.119,0.146,0.181c0.092,0.139,0.164,0.288,0.229,0.438
		c0.052,0.116,0.09,0.272,0.071,0.396c-0.037,0.231-0.07,0.46-0.084,0.694c-0.021,0.396-0.008,0.797,0.043,1.195
		c0.057,0.443,0.197,1.197,0.014,1.646c-0.211,0.508-0.893,0.969-1.402,1.263c-0.625,0.359-1.479,0.655-2.176,0.886
		c-0.635,0.213-1.335,0.342-1.895,0.711c-0.392,0.257-0.662,0.609-0.975,0.928c-0.674,0.689-0.488,1.541-0.842,2.361
		c-0.268-0.271-1.115-0.139-1.459-0.132c-0.26,0.005-0.503,0.004-0.768,0.021c-0.553,0.033-0.959,0.09-1.464-0.152
		c-0.451-0.219-0.753-0.285-1.251-0.32c-0.463-0.033-0.774-0.172-1.021-0.521c-0.504-0.716-0.9-1.443-1.447-2.152
		c-0.553-0.723-1.031-1.516-1.641-2.189c-0.345-0.385-0.727-0.669-1.143-0.98c-0.377-0.283-0.832-0.467-1.185-0.774
		c-0.372-0.323-0.706-0.599-1.166-0.833c-1.269-0.646-2.613-1.002-3.661-1.994c-0.461-0.439-1.06-1.053-1.383-1.583
		c-0.473-0.772-0.424-1.603-0.826-2.37"/>
	<path d="M67.215,104.024c0.093-0.05,0-0.418,0.008-0.543c0.016-0.224,0.09-0.456,0.132-0.676c0.089-0.47,0.335-0.87,0.634-1.249
		c0.203-0.258,0.451-0.483,0.764-0.644c0.17-0.087,0.35-0.128,0.556-0.102c0.116,0.014,0.263,0.032,0.369,0.077
		c0.097,0.041,0.147,0.109,0.255,0.127c0.009,0.043,0.002,0.075-0.021,0.112c-0.35-0.068-0.846,0.305-1.1,0.489
		c-0.396,0.289-0.537,0.863-0.618,1.293c-0.091,0.492-0.162,0.965-0.442,1.383c-0.203,0.302-0.674,0.792-1.109,0.778
		c-0.013-0.38,0.49-0.576,0.506-0.931"/>
	<path d="M71.812,100.196c0.012,0.011,0.024,0.022,0.035,0.034c-0.024-0.201-0.082-0.4-0.073-0.596
		c0.011-0.197,0.059-0.479,0.128-0.664c0.031-0.078,0.219-0.396,0.328-0.404c0.131-0.01,0.348,0.288,0.436,0.38
		c-0.066,0.122-0.228,0.185-0.335,0.273c-0.11,0.093-0.189,0.22-0.255,0.341c-0.102,0.189-0.25,0.496-0.275,0.712
		c0.072,0.025,0.15,0.039,0.227,0.047"/>
	<path d="M72.806,99.99c0.353,0.061,0.54-0.046,0.771-0.272c-0.015,0.081-0.061,0.177-0.129,0.23
		c-0.082,0.062-0.225,0.048-0.227,0.153c0.236,0.076,0.511,0.084,0.732,0.105c-0.08,0.07-0.316,0.111-0.439,0.091
		c0.084,0.138,0.32,0.122,0.481,0.173c-0.018,0.296-1.165-0.285-1.272-0.457c0.034,0.032,0.076,0.043,0.113,0.068"/>
	<path d="M66.04,106.678c0.087,0.164,0.108,0.366,0.169,0.544c0.105,0.312,0.291,0.637,0.456,0.927
		c0.329,0.586,0.766,1.066,1.254,1.543c0.513,0.498,1.065,0.848,1.72,1.178c0.55,0.275,1.075,0.338,1.669,0.482
		c0.676,0.163,1.231,0.344,1.792-0.133c0.297-0.256,0.364-0.706,0.176-1.04c-0.188-0.333-0.586-0.702-0.983-0.787
		c-0.317-0.067-0.931,0.104-0.847,0.49c0.035,0.167,0.224,0.235,0.303,0.345c-0.332,0.014-0.693-0.311-0.694-0.588
		c-0.001-0.187,0.097-0.306,0.235-0.426c0.184-0.162,0.277-0.174,0.535-0.17c0.815,0.012,1.443,0.435,1.709,1.154
		c0.082,0.22,0.127,0.357,0.057,0.584c-0.061,0.189-0.141,0.391-0.239,0.554c-0.211,0.353-0.577,0.389-0.989,0.432
		c-0.57,0.062-1.074,0.059-1.65,0.001c-0.311-0.03-0.622-0.036-0.929-0.092c-0.276-0.051-0.519-0.179-0.769-0.301
		c-0.495-0.244-0.873-0.551-1.246-0.938c-0.475-0.493-0.727-1.098-1.041-1.668c-0.194-0.354-0.289-0.705-0.465-1.069
		c-0.074-0.155-0.119-0.509-0.275-0.612c-0.227-0.153-0.24,0.322-0.307,0.465c-0.127,0.281-0.201,0.565-0.26,0.87
		c-0.045,0.239-0.037,0.456-0.086,0.694c-0.039,0.197-0.046,0.398-0.007,0.596c0.044,0.216,0.106,0.393,0.318,0.52
		c0.136,0.08,0.349,0.209,0.499,0.133c0.24-0.119,0.271-0.905-0.114-0.86c-0.013,0.065-0.052,0.125-0.09,0.178
		c-0.007-0.125,0.104-0.216,0.235-0.235c0.181-0.026,0.306,0.104,0.389,0.233c0.162,0.255,0.131,0.762-0.016,1.017
		c-0.33,0.565-1.246,0.201-1.426-0.295c-0.09-0.246-0.062-0.512-0.081-0.774c-0.018-0.27,0.063-0.563,0.118-0.845
		c0.053-0.274,0.105-0.549,0.158-0.826c0.084-0.439,0.173-0.863,0.249-1.299c-0.031,0.226-0.183,0.408-0.306,0.596
		c-0.213,0.328-0.334,0.658-0.432,1.03c-0.054,0.196-0.153,0.392-0.224,0.583c-0.123,0.332-0.155,0.682-0.231,1.023
		c-0.115,0.518-0.29,1.021-0.393,1.549c-0.09,0.477-0.234,1.185,0,1.652c0.104,0.207,0.229,0.381,0.312,0.602
		c0.096,0.254,0.191,0.507,0.344,0.738c0.117,0.178,0.285,0.316,0.446,0.467c0.29,0.265,0.654,0.452,1.069,0.398
		c0.447-0.059,0.734-0.229,0.74-0.637c0.004-0.197,0.033-0.421-0.176-0.559c-0.119-0.078-0.416-0.149-0.529-0.057
		c-0.074-0.111,0.078-0.236,0.156-0.311c0.133-0.126,0.23-0.155,0.418-0.125c0.364,0.057,0.636,0.315,0.727,0.647
		c0.102,0.378,0.014,0.954-0.311,1.226c-0.381,0.317-0.909,0.289-1.382,0.175c-1.108-0.269-1.487-1.379-1.697-2.278
		c-0.222-0.941-0.25-1.903-0.179-2.852c0.036-0.496,0.173-0.963,0.275-1.451c0.051-0.244,0.129-0.462,0.229-0.692
		c0.077-0.174,0.159-0.335,0.214-0.517c0.029-0.099,0.066-0.195,0.068-0.298c0.001-0.035-0.039-0.175-0.031-0.194
		c-0.053,0.132-0.066,0.26-0.132,0.385c-0.085,0.165-0.187,0.296-0.309,0.43c-0.312,0.343-0.75,0.617-0.965,1.025
		c-0.067,0.13-0.095,0.27-0.151,0.402c-0.084,0.195-0.232,0.357-0.348,0.536c-0.467,0.729-0.652,1.667-0.504,2.511
		c0.042,0.242,0.137,0.473,0.184,0.713c0.047,0.238,0.029,0.482,0.102,0.718c0.057,0.178,0.086,0.362,0.15,0.532
		c0.173,0.469,0.316,0.962,0.436,1.455c0.104,0.438,0.094,0.881,0.135,1.298c0.018,0.195,0.004,0.371,0.068,0.57
		c0.043,0.132,0.102,0.261,0.168,0.384c0.03,0.059,0.11,0.152,0.104,0.218c-0.254-0.165-0.433-0.505-0.653-0.724
		c-0.244-0.244-0.576-0.408-0.861-0.605c-0.315-0.217-0.59-0.397-0.929-0.571c-0.353-0.181-0.689-0.38-1.048-0.577
		c-0.937-0.52-1.824-1.111-2.655-1.766c-0.453-0.357-0.933-0.715-1.358-1.098c-0.516-0.461-0.959-0.992-1.437-1.484
		c-0.563-0.581-1.077-1.166-1.472-1.861c-0.407-0.721-0.68-1.503-0.928-2.273c-0.243-0.759-0.393-1.625-0.414-2.402
		c-0.02-0.75,0.111-1.505,0.252-2.242c0.262-1.37,0.85-2.742,1.953-3.729c0.426-0.382,0.811-0.809,1.268-1.161
		c0.393-0.304,0.832-0.544,1.272-0.784c0.416-0.227,0.862-0.518,1.314-0.677c0.615-0.216,1.228-0.431,1.833-0.671
		c0.583-0.232,1.303-0.305,1.935-0.397c1.264-0.185,2.582-0.405,3.877-0.312c0.855,0.062,1.632,0.19,2.404,0.53
		c0.327,0.143,0.687,0.32,0.985,0.498c0.281,0.17,0.643,0.441,0.977,0.498c-0.865,0.101-1.842,0.275-2.641,0.657
		c-0.538,0.257-1.068,0.546-1.492,0.938c-0.209,0.193-0.388,0.412-0.521,0.656c-0.115,0.215-0.261,0.316-0.251,0.58
		c0.024,0.682,0.868,1.452,1.646,1.369c0.705-0.076,1.198-1.111,0.481-1.517c-0.311-0.175-0.334,0.089-0.5,0.248
		c-0.042-0.29,0.029-0.571,0.449-0.549c0.324,0.019,0.558,0.232,0.707,0.483c0.369,0.621,0.008,1.434-0.609,1.769
		c-0.327,0.179-0.77,0.374-1.164,0.337c-0.494-0.044-0.804-0.27-1.116-0.6c-0.538-0.566-0.134-1.279-0.126-1.931
		c-0.256,0.116-0.424,0.638-0.496,0.883c-0.093,0.315-0.143,0.676-0.104,0.993c0.049,0.388,0.008,0.789,0.174,1.156
		c0.147,0.332,0.387,0.629,0.595,0.932c0.162,0.236,0.331,0.475,0.478,0.723c0.18,0.3,0.25,0.635,0.332,0.957
		c0.085,0.334,0.086,0.695,0.102,1.029c0.019,0.363,0.119,0.721,0.109,1.109"/>
	<path fill="#FF0000" d="M78.002,111.207c0.442-0.032,0.916-0.363,1.049-0.737c0.128-0.357,0.136-0.824-0.225-1.091
		c-0.217-0.159-0.514-0.014-0.725,0.076c-0.534,0.229-0.956,0.696-1.236,1.15c-0.22,0.355-0.496,0.656-0.783,0.971
		c-0.139,0.151-0.268,0.301-0.438,0.422c-0.141,0.101-0.342,0.14-0.46,0.255c0.519-0.153,0.938-0.453,1.382-0.714
		C77.043,111.258,77.474,111.246,78.002,111.207z"/>
	<path fill="#FFFFFF" d="M75.397,112.248c0.201,0.028,0.376-0.032,0.575-0.072c0.148-0.03,0.301-0.061,0.449-0.082
		c0.196-0.027,0.395-0.043,0.59-0.075c0.328-0.054,0.656-0.109,0.985-0.159c0.084-0.013,0.167-0.025,0.251-0.039
		c0.04-0.007,0.209-0.012,0.234-0.05c0.044-0.065-0.051-0.249-0.087-0.301c-0.08-0.116-0.091-0.214-0.103-0.354
		c-0.004-0.05-0.035-0.122-0.013-0.176c0.022-0.051,0.099-0.087,0.141-0.118c0.044-0.033,0.132-0.085,0.144-0.138
		c0.01-0.039-0.035-0.11-0.055-0.146c-0.051-0.096-0.107-0.196-0.146-0.296c-0.021-0.054-0.028-0.17-0.088-0.197
		c-0.112-0.054-0.314,0.176-0.396,0.232c-0.174,0.117-0.339,0.257-0.508,0.381c-0.328,0.244-0.616,0.542-0.93,0.804
		c-0.148,0.125-0.272,0.254-0.438,0.362c-0.093,0.061-0.178,0.135-0.273,0.193c-0.065,0.039-0.119,0.074-0.191,0.096
		c-0.024,0.008-0.221,0.123-0.227,0.119c0.023,0.015,0.049,0.014,0.07-0.004"/>
	<path fill="#FF0000" d="M76.576,112.427c0.523,0.037,0.932,0.261,1.369,0.513c0.143,0.083,0.278,0.176,0.426,0.248
		c0.078,0.039,0.158,0.072,0.242,0.092c0.036,0.008,0.062,0.025,0.095,0.035c0.031,0.008,0.074-0.006,0.104-0.013
		c0.038-0.011,0.079-0.024,0.116-0.039c0.104-0.039,0.186-0.076,0.258-0.157c0.092-0.104,0.164-0.24,0.145-0.379
		c-0.006-0.059-0.035-0.113-0.052-0.171c-0.022-0.077-0.06-0.147-0.094-0.22c-0.079-0.172-0.156-0.34-0.266-0.496
		c-0.06-0.084-0.103-0.145-0.198-0.198c-0.027-0.016-0.057-0.036-0.082-0.053c-0.065-0.044-0.145-0.077-0.225-0.091
		c-0.085-0.017-0.172-0.035-0.257-0.032c-0.036,0.002-0.071,0.003-0.109,0.007c-0.021,0.001-0.042-0.002-0.063,0.002
		c-0.141,0.021-0.273,0.106-0.408,0.148c-0.357,0.113-0.715,0.238-1.062,0.381c-0.143,0.059-0.275,0.135-0.42,0.186
		c-0.072,0.023-0.146,0.039-0.222,0.049c-0.069,0.012-0.144-0.027-0.216-0.023c-0.07,0.004-0.143-0.013-0.214-0.017
		c-0.065-0.005-0.119,0.007-0.181,0.024c-0.023,0.006-0.061,0.006-0.069,0.029c-0.008,0.018,0.009,0.07,0.022,0.084
		c0.045,0.043,0.142,0.018,0.193,0.01c0.068-0.008,0.138-0.009,0.209-0.01c0.074,0,0.156,0,0.229,0.013
		c0.039,0.007,0.078,0.014,0.117,0.021c0.093,0.018,0.18,0.002,0.271,0.015C76.35,112.399,76.463,112.418,76.576,112.427z"/>
	<path d="M63.197,135.326c0.743,0.812,1.475-1.426,1.645-1.75c0.561-1.062,1.149-2.125,1.518-3.256
		c0.568-1.738,0.34-3.804-0.266-5.539c-0.239-0.688-0.42-1.348-0.82-1.977c-0.352-0.549-0.611-1.137-0.934-1.7
		c-0.285-0.501-0.641-0.942-0.955-1.434c-0.243-0.378-0.51-1.116-0.323-1.522c0.709,0.046,1.138,0.445,1.745,0.727
		c0.676,0.311,1.461,0.426,2.219,0.542c0.818,0.126,1.734,0.188,2.551,0.133c0.918-0.064,1.84-0.297,2.762-0.415
		c0.637-0.084,1.531-0.454,1.377,0.443c-0.105,0.602-0.385,1.229-0.58,1.785c-0.479,1.376-0.305,2.933-0.223,4.338
		c0.039,0.676,0.16,1.336,0.184,2.018c0.027,0.766-0.034,1.594-0.084,2.367c-0.066,1.031-0.334,2.221-0.672,3.184
		c-0.098,0.277-0.164,0.595-0.248,0.868c-0.062,0.202-0.131,0.415-0.191,0.591c-0.057,0.173-0.004,0.531-0.139,0.664
		c-0.14,0.141-0.735,0.226-0.924,0.281c-0.802,0.232-1.552,0.342-2.412,0.268c-0.581-0.053-1.166-0.125-1.747-0.107
		c-0.79,0.022-1.595-0.024-2.375-0.166"/>
	<path d="M76.215,107.537c0.075-0.127,0.092-0.824,0.213-1.154c0.154-0.417,0.525-0.934,0.868-1.227
		c0.346-0.296,2.501-1.498,2.495-0.547c-0.002,0.263-0.651,0.557-0.861,0.697c-0.367,0.25-0.593,0.525-0.898,0.811
		c-0.495,0.461-1.598,1.365-1.605,2.056"/>
	<path d="M75.004,150.502c-0.173,1.332-0.328,2.669-0.588,3.993c-0.546,2.777-0.961,5.55-1.35,8.363
		c-0.451,3.275-0.973,6.544-1.133,9.834c-0.156,3.236-0.066,6.43,0.051,9.677c0.105,2.901,0.393,5.767,0.881,8.626
		c0.236,1.381,0.871,2.765,1.074,4.091c-1.246,0.083-2.229,0.464-3.515,0.272c-1.454-0.218-2.731,0.337-4.166,0.468
		c-0.896,0.08-1.847-0.104-2.703,0.208c-0.54,0.197-0.825,0.669-1.313,0.878c-0.544,0.231-1.129-0.075-1.662,0.023
		c-0.525,0.097-1.028,0.483-1.494,0.723c-3.103,1.596-4.165,5.762-3.586,9.059c-0.822-1.884-1.597-3.625-3.021-5.265
		c-0.687-0.791-1.401-1.572-2.171-2.287c-0.549-0.511-1.516-1.047-1.588-1.873c-0.049-0.575,0.395-1.159,0.502-1.718
		c0.167-0.866,0.213-1.829,0.27-2.713c0.25-3.88,0.768-7.54,0.561-11.455c-0.18-3.396-0.199-6.901-0.361-10.432
		c-0.178-3.89-1.362-8.034-1.238-11.76c0.234-7.021,0.881-14.445,3.975-20.757c1.443-2.944,3.158-5.509,5.303-7.984
		c1.295-1.497,2.654-2.956,4.166-4.276c0.751-0.654,1.541-1.287,2.405-1.819c0.39-0.238,0.745-0.521,1.075-0.104
		c0.298,0.378,0.32,1.188,0.423,1.636c0.196,0.868,0.731,1.46,1.212,2.227c0.979,1.564,2.014,3.123,3.057,4.67
		c0.482,0.716,0.665,1.537,1.021,2.303c0.45,0.971,0.641,1.898,0.847,2.945c0.168,0.851,0.398,1.711,0.533,2.563
		c0.084,0.531,0.178,1.226,0.428,1.737c0.33-0.065,0.735-0.905,0.845-1.211c0.192-0.53,0.327-1.076,0.436-1.639
		c0.11-0.581,0.292-1.179,0.345-1.767c0.057-0.619-0.108-1.267-0.154-1.889c-0.083-1.081-0.429-2.104-0.781-3.12
		c-0.305-0.879-0.783-1.989-0.737-2.84c0.802,0.432,1.169,1.254,1.664,1.997c0.618,0.931,1.056,1.888,1.215,2.956
		c0.162,1.085,0.476,2.217,0.386,3.314c-0.09,1.072,0.15,2.092,0.112,3.174c-0.059,1.68-0.104,3.55-0.526,5.207
		C75.367,147.844,75.177,149.17,75.004,150.502z"/>
	<path fill="#FFFFFF" d="M65.894,126.921c0.435,2.163,1.336,4.219,2.105,6.302c0.935,2.528,1.812,5.096,2.198,7.739
		c0.142,0.97,0.201,1.905,0.304,2.886c0.083,0.811,0.358,1.781,0.204,2.579c0.312-0.103,0.469-0.634,0.654-0.897
		c0.264-0.375,0.592-0.734,0.872-1.092c0.63-0.8,0.958-1.658,1.456-2.508c0.374-0.637,0.59-1.443,0.824-2.135
		c0.217-0.642,0.313-1.475,0.275-2.129c-0.08-1.396-0.125-2.801-0.598-4.226c-0.018-0.056-0.036-0.11-0.055-0.164
		c-0.178-0.499-0.395-0.988-0.581-1.485c-0.078-0.211-0.114-0.418-0.199-0.625c-0.096-0.24-0.177-0.486-0.218-0.74
		c-0.028-0.182-0.028-0.37-0.074-0.551c-0.016-0.065-0.039-0.247-0.093-0.289c-0.026,0.073-0.011,0.135-0.025,0.209
		s-0.028,0.149-0.042,0.225c-0.023,0.121-0.072,0.257-0.068,0.381c0.003,0.094,0.014,0.172,0.002,0.268
		c-0.032,0.248-0.063,0.497-0.096,0.745c-0.066,0.499-0.141,0.995-0.236,1.49c-0.106,0.558-0.277,0.978-0.441,1.499
		c-0.123,0.383-0.465,0.886-0.502,1.296c-0.406-0.243-0.444-0.962-0.638-1.356c-0.261-0.531-0.468-1.087-0.714-1.6
		c-0.557-1.148-1.066-2.3-1.576-3.435c-0.206-0.454-0.393-0.916-0.568-1.38c-0.092-0.237-0.178-0.474-0.266-0.711
		c-0.08-0.219-0.145-0.441-0.259-0.647c-0.046-0.083-0.087-0.173-0.135-0.254c-0.101-0.175-0.224-0.34-0.321-0.513
		c-0.09-0.16-0.203-0.324-0.312-0.474c-0.107-0.144-0.205-0.286-0.314-0.428c-0.154-0.201-0.32-0.397-0.466-0.604
		c-0.062-0.088-0.081-0.154-0.095-0.252c-0.014-0.094-0.072-0.176-0.132-0.255c-0.041-0.053-0.08-0.177-0.136-0.208
		c-0.117,0.137-0.227,0.301-0.262,0.479c-0.019,0.098-0.036,0.193-0.055,0.289c-0.02,0.1-0.004,0.189,0.012,0.295
		c0.039,0.264,0.156,0.511,0.203,0.775c0.027,0.156,0.078,0.312,0.113,0.469c0.035,0.16,0.105,0.314,0.139,0.473
		C65.82,126.547,65.856,126.734,65.894,126.921z"/>
	<path d="M53.6,189.287c-0.6,1.524-0.574,4.552-0.494,6.19c0.084,1.75,0.526,3.435,0.648,5.2c0.327,4.725,0.51,9.45,0.704,14.112
		c0.325,7.849,0.72,15.669,1.442,23.513c0.512,5.56,1.531,10.911,1.696,16.19c0.198,6.359-0.784,12.646-2.148,18.83
		c-1.229,5.578-1.026,10.855-1.927,16.472c-1.213,7.562-0.621,15.405-0.828,23.051c-0.056,2.062-0.346,4.819,2.19,5.82
		c0.999,0.392,3.863,0.457,4.547-0.31c0.521-0.582,0.13-2.397,0.091-3.11c-0.063-1.16-0.056-2.245-0.023-3.414
		c0.25-9.129,2.613-18.684,4.389-27.946c0.787-4.114,2.084-7.919,2.863-12.109c0.903-4.869,3.344-9.233,3.715-14.355
		c0.24-3.312-0.344-7.084-0.725-10.461c-0.601-5.321-0.967-10.723-1.521-16.244c-0.638-6.361-1.037-12.762-1.449-19.141
		c-0.324-5.023-0.309-10.085-1.273-15.072c-0.461-2.389-0.521-3.367-2.723-4.532c-2.385-1.264-5.042-1.729-7.531-2.751"/>
	<path d="M57.529,111.572c-1.051-3.475-1.891-7.043-2.93-10.568c-0.59-2.004-1.768-3.678-2.492-5.551
		c-1.518-3.917-1.957-8.096-2.846-12.271c-0.717-3.368-1.983-6.569-2.691-9.922c-1.236-5.861-2.802-11.839-3.563-17.731
		c-0.741-5.721,0.197-11.444,1.27-17.031c0.356-1.855,0.87-3.531,1.415-5.314c0.268-0.871,0.567-1.82,0.92-2.667
		c0.181-0.434,0.893-0.979,0.989-1.354c0.479-1.854-1.482-1.977-3.131-2.312c-1.612-0.331-2.917-1.024-4.608-1.146
		c-0.87,2.541-0.747,5.233-1.143,7.777c-0.432,2.764-0.91,5.513-0.76,8.266c0.133,2.416,0.088,4.859-0.108,7.369
		c-0.497,6.377,0.668,12.502,1.608,18.844c0.904,6.113,1.475,12.275,3.535,18.168c1.217,3.482,1.797,7.232,2.807,10.813
		c1.014,3.589,2.169,7.122,3.266,10.659c1.104,3.556,2.219,7.15,3.035,10.799c0.777,3.472,0.922,7.074,1.838,10.564
		c0.77,2.939,1.67,6.221,2.955,9.038c1.37,3.005,4.639,3.905,6.127,6.569c1.163,2.082,4.453,3.002,5.623,0.211
		c2.523-6.025-1.385-11.571-3.553-17.199c-1.98-5.143-5.689-10.002-7.346-15.307C57.674,112.045,57.601,111.809,57.529,111.572z"/>
	<path fill="#245977" d="M41.389,25.926c0.293,0.095,0.42,0.033,0.381-0.186c-1.25-2.059-0.703-3.242-3.643-4.058
		c-2.282-0.634-4.394-0.384-6.137-1.935c-1.574-1.402-1.637-3.084-1.535-4.92c0.057-1.048,0.44-2.154,0.633-3.191
		c0.21-1.142,0.977-1.965,1.062-3.049c3.235,0.405-1.22,5.347,2.015,5.752c0.417-1.143,0.504-6.935,2.717-5.617
		c-0.055,1.142-1.801,6.317,0.908,5.898c0.524-1.543,0.516-3.272,1.045-4.814c0.436-0.064,1.074,0.051,1.455,0.264
		c-0.082,1.713-2.342,6.346,0.905,6.338c0.845-0.002,2.054-1.461,2.909-0.886c1.053,0.706,0.021,2.812-1.17,2.707
		c-1.095,2.312,1.571,2.478,2.475,4.306c0.763,1.549,0.079,4.205-0.47,5.806c-2.773,0.028-3.376-2.401-2.751-4.462"/>
	<path fill="#FFFFFF" d="M56.157,318.186c-0.649-0.117-1.651-0.352-2.284-0.137c-0.708,0.241-0.402,1.192-0.36,1.878
		c0.034,0.547,0.03,1.177-0.161,1.748c-0.146,0.434-0.662,1.183-0.474,1.691c0.126,0.338,1.082,0.89,1.426,1.003
		c1.189,0.395,2.903-0.141,4.06-0.275c0.578-0.067,1.18,0.021,1.783-0.005c0.601-0.026,1.17-0.113,1.818-0.145
		c0.11-0.4-0.637-1.007-0.918-1.32c-0.39-0.436-0.852-0.825-1.199-1.283c-0.591-0.776-0.898-1.556-1.369-2.359
		C58.025,318.208,57.004,318.338,56.157,318.186z"/>
	<path d="M52.688,321.36c0.01,0.247-0.557,1.2-0.764,1.472c-0.418,0.545-1.033,0.976-1.371,1.581
		c-0.314,0.563-0.619,1.399-0.754,2.033c-0.076,0.354,0.012,0.268,0.291,0.486c0.564,0.44,1.074,0.963,1.533,1.513
		c0.52,0.622,1,1.303,1.599,1.853c0.739,0.681,1.179-0.994,2.085-0.301c0.916,0.701,1.373,1.758,2.396,2.368
		c0.898,0.535,2.109,1.412,2.609,2.349c0.249,0.469,0.404,0.968,0.68,1.426c0.273,0.454,0.57,0.892,0.834,1.349
		c0.535,0.93,1.149,1.823,1.722,2.729c0.53,0.84,1.231,1.713,2.058,2.261c0.552,0.366,1.268,0.578,1.88,0.736
		c0.468,0.122,0.915,0.029,1.391,0.087c0.64,0.077,1.305,0.169,1.95,0.185c0.524,0.012,1.029-0.049,1.545-0.109
		c0.568-0.067,1.143-0.07,1.725-0.07c0.787,0,1.424-0.11,2.15-0.339c0.684-0.214,1.431-0.312,2.15-0.378
		c0.174-0.016,0.351,0.009,0.523-0.014c0.163-0.389-0.486-0.531-0.703-0.698c-0.38-0.29-0.641-0.647-1.07-0.878
		c-0.432-0.231-0.904-0.391-1.349-0.582c-0.503-0.217-0.933-0.562-1.442-0.769c-0.56-0.228-1.035-0.439-1.562-0.738
		c-0.562-0.318-1.012-0.698-1.549-1.056c-0.407-0.271-0.881-0.468-1.288-0.707c-0.328-0.194-0.644-0.421-0.968-0.649
		c-1.537-1.075-2.715-2.121-3.514-3.921c-0.512-1.154-1.092-2.267-1.613-3.422c-0.334-0.743-0.638-1.498-1.032-2.173
		c-0.32-0.548-0.562-1.133-0.784-1.727c-0.164-0.438-0.447-0.953-0.284-1.436c0.12-0.354,0.44-0.496,0.717-0.711
		c0.452-0.352,0.579-0.847,0.952-1.25c-0.307,0.297-0.652,0.414-1.068,0.466c-0.453,0.056-1.148-0.08-1.529,0.165
		c0.014-0.341-0.072-0.619-0.083-0.952c-0.013-0.383,0.058-0.799-0.085-1.135c-0.229,0.382-0.324,0.384-0.721,0.438
		c-0.322,0.045-0.664,0.166-0.982,0.249c-1.176,0.309-2.055,0.911-3.32,0.627c-0.742-0.167-1.225-0.286-1.768-0.829
		c-0.164-0.164-0.359-0.323-0.492-0.513c-0.161-0.231-0.162-0.591-0.338-0.776c-0.137,0.533-0.121,1.118-0.176,1.676
		c-0.031,0.303-0.321,0.926-0.091,1.159"/>
	<g>
		<path fill="#FFFFFF" d="M100.93,300.171c0.67-0.61,0.749-1.984,1.155-2.77c0.274-0.531,0.491-0.999,0.689-1.552
			c0.124-0.353,0.403-1.171,0.736-1.377c1.138,0.445,2.362,0.62,3.576,0.817c1.388,0.225,0.849,0.966,0.817,2.15
			c-0.035,1.208-0.001,2.387,0.191,3.57c0.141,0.854,0.483,1.667,0.493,2.562c0.009,0.745-0.231,1.754,0.161,2.403
			c-0.307,0.134-0.803,0.037-1.172,0.068c-0.986,0.085-1.404-0.122-2.178-0.591c-0.808-0.488-1.662-0.929-2.372-1.549
			c-0.355-0.306-0.427-0.691-0.696-1.005c-0.492-0.568-1.309-0.881-1.83-1.465c0.152-0.449,0.153-1.808,0.717-1.854"/>
		<path d="M111.398,315.039c1.656,0.76,3.105,2.003,4.607,2.996c2.835,1.873,5.279,4.288,8.011,6.319
			c0.603,0.449,1.248,0.927,1.88,1.323c0.186,0.114,0.582,0.471,0.848,0.283c0.445-0.317-0.258-1.665-0.44-1.967
			c-0.47-0.782-0.995-1.601-1.548-2.353c-0.555-0.752-1.403-1.198-2.068-1.875c-1.324-1.349-2.834-2.619-4.129-4
			c-0.607-0.649-1.429-1.154-2.122-1.718c-0.712-0.581-1.195-1.213-1.828-1.859c-0.542-0.55-1.109-1.019-1.634-1.577
			c-0.498-0.531-1.115-0.971-1.605-1.51c-0.408-0.444-0.923-0.961-1.235-1.475c-0.204-0.336-0.298-0.854-0.63-1.117
			c0.359-0.42,0.387-0.992,0.637-1.47c0.215-0.419,0.609-0.792,0.905-1.161c0.382-0.471,0.675-0.8,1.22-1.08
			c0.301-0.155,0.666-0.229,0.938-0.433c-0.85-0.116-2.063-0.171-2.881,0.351c-0.42,0.268-1.865,2.86-2.34,1.929
			c0.104-0.219,0.091-0.491,0.186-0.686c0.154-0.314,0.443-0.565,0.631-0.861c-0.43-0.156-0.869-0.363-1.361-0.304
			c0.069,0.793-0.01,1.646-0.934,1.512c-0.902-0.132-1.523-0.765-2.268-1.245c-0.731-0.474-1.109-0.772-1.586-1.486
			c-0.436-0.653-0.828-1.242-1.416-1.774c-0.529-0.479-0.832-0.585-1.252,0.059c-0.449,0.689-0.832,1.424-1.264,2.121
			c-0.512,0.828-1.055,1.646-1.417,2.549c-0.331,0.822-0.731,1.604-1.061,2.423c-0.086,0.214-0.203,0.385-0.312,0.583
			c-0.104,0.188-0.355,0.428-0.387,0.617c0.148,0.075,0.296,0.082,0.436,0.129c0.26,0.088,0.541,0.26,0.788,0.396
			c0.595,0.324,1.251,0.567,1.89,0.827c0.945,0.386,1.91,0.875,2.908,1.034c0.127-0.183,0.301-0.34,0.433-0.499
			c-0.073,0.184,0.834,0.457,1.016,0.533c0.862,0.352,1.669,0.854,2.512,1.255c0.589,0.28,1.098,0.636,1.592,1.059
			C108.35,313.934,109.947,314.368,111.398,315.039z"/>
		<path d="M108.797,284.924c-0.142-1.92-0.647-3.784-0.831-5.694c-0.134-1.396,0.272-2.458,0.485-3.802
			c0.611-3.845,0.08-8.233-0.018-12.122c-0.117-4.685-0.762-9.271-0.977-13.943c-0.224-4.831-0.162-9.751-0.599-14.597
			c-0.309-3.422-0.863-7.183-1.995-10.396c-0.494-1.402-0.904-2.137-2.015-3.121c-0.972-0.862-1.968-1.487-2.908-2.329
			c-1.229-1.101-2.389-2.388-3.628-3.571c-1.148-1.098-2.627-1.862-3.718-3.013c-0.957-1.01-1.733-2.01-2.812-2.95
			c-4.227-3.685-8.805-6.738-13.05-10.455c-2.121-1.857-4.032-4.619-6.886-5.392c-2.661-0.719-6.352,0.98-7.781,3.3
			c-1.365,2.215-0.776,4.872,0.95,6.701c2.491,2.637,5.913,5.059,8.79,7.293c4.039,3.138,8.136,6.312,11.477,10.176
			c3.147,3.639,7.176,6.419,10.099,10.268c1.658,2.183,1.835,3.301,2.231,5.912c0.533,3.512,1.593,6.979,2.059,10.53
			c0.54,4.135,0.787,8.416,0.725,12.604c-0.098,6.587,1.057,13.228,1.055,19.772c-0.002,4.287-0.057,8.65,0.438,12.902
			c0.139,1.183,0.451,3.253,1.318,4.094c1.177,1.142,3.33,1.908,4.908,2.24c2.273,0.478,2.55-0.768,2.758-2.759
			C109.271,292.762,109.076,288.734,108.797,284.924z"/>
	</g>
	<path fill="#245977" d="M98.873,36.411c-0.721,0.831-2.855,1.042-3.824,0.597c-1.18-0.543-1.012-2.257-1.74-3.221
		c-0.479-0.633-1.362-1.211-2.026-1.658c-0.899-0.605-6.181-1.511-5.986-2.848c0.135-0.927,2.358-1.155,3.022-1.067
		c0.484,0.063,1.031,0.45,1.504,0.45c0.293,0,1.039-0.33,1.293-0.445c1.091-0.489,1.069-0.993,1.067-2.151
		c-0.001-0.624-0.315-2.914,0.382-2.978c0.539,0.557,1.015,1.229,1.388,1.894c0.3,0.534,0.465,1.71,0.978,1.921
		c0.151-0.967-0.051-5.639,1.122-5.576c0.954,0.051,1.181,2.158,1.276,2.809c0.129,0.882,0.113,1.837,0.262,2.725
		c0.647-0.875,1.156-2.121,1.465-3.159c0.229-0.775,0.123-2.36,1.465-1.895c-0.018,0.593,0.288,1.024,0.246,1.685
		c-0.048,0.758-0.231,1.424-0.383,2.146c-0.266,1.27-0.199,2.327-0.959,3.374c-0.413,0.569-0.754,0.806-1.233,1.179
		c-0.705,0.55-0.571,0.449-0.417,1.229c0.199,1.012,0.508,2.177,0.9,3.128C98.949,35.218,99.488,35.702,98.873,36.411z"/>
	<path fill="#FFFFFF" d="M69.406,105.803c-0.307-0.613-0.023-1.582,0.465-2.049c0.289-0.277,0.709-0.52,1.039-0.757
		c0.152-0.109,0.168-0.181,0.284-0.026c0.038,0.051,0.111,0.389,0.134,0.479c0.149,0.591,0.154,1.447-0.293,1.975
		c-0.205,0.242-0.408,0.467-0.725,0.587c-0.225,0.087-0.732,0.185-0.958,0.112c-0.048-0.007-0.044-0.006,0.009,0.001"/>
	<path d="M69.484,105.559c-0.036-0.01-0.124-0.287-0.134-0.365c-0.016-0.123-0.008-0.259,0.023-0.391
		c0.063-0.291,0.143-0.559,0.356-0.807c0.248-0.287,0.487-0.52,0.809-0.762c0.28-0.209,0.541-0.293,0.858-0.401
		c-0.192-0.071-0.408-0.118-0.585-0.217c-0.125-0.071-0.309-0.347-0.471-0.337c0.166,0.196,0.306,0.413,0.471,0.611
		c-0.141,0.014-0.273-0.078-0.395-0.113c-0.193-0.056-0.35-0.201-0.55-0.229c0.118,0.251,0.362,0.372,0.53,0.569
		c-0.156-0.019-0.28-0.08-0.422-0.116c-0.057-0.016-0.126-0.016-0.184-0.033c-0.053-0.014-0.189-0.11-0.24-0.104
		c-0.195,0.022,0.012,0.21,0.062,0.276c0.079,0.103,0.173,0.203,0.231,0.318c-0.01,0.022-0.029,0.037-0.055,0.041
		c-0.066-0.099-0.254-0.125-0.369-0.175c-0.08-0.034-0.205-0.071-0.293-0.065c0.049,0.101,0.135,0.203,0.215,0.279
		c0.049,0.047,0.137,0.097,0.175,0.175c0.028,0.06,0.034,0.132,0.076,0.185c-0.092,0.021-0.278-0.07-0.378-0.094
		c-0.145-0.034-0.266-0.061-0.398-0.096c0.166,0.197,0.384,0.363,0.504,0.6c-0.14,0.129-0.558-0.152-0.745-0.096
		c0.114,0.255,0.379,0.381,0.532,0.584c-0.153,0.201-0.693,0.114-0.902,0.193c0.146,0.057,0.84-0.003,0.869,0.172
		c0.026,0.156-0.412,0.37-0.532,0.49c0.182-0.055,0.541-0.127,0.696-0.064c0.225,0.092-0.08,0.354-0.16,0.512
		c-0.08,0.154-0.24,0.42-0.189,0.564c0.045-0.109,0.221-0.271,0.302-0.378c0.104-0.136,0.218-0.313,0.36-0.412
		c-0.039-0.05-0.028-0.099-0.045-0.157c-0.006-0.023-0.049-0.121-0.02-0.078"/>
	<path d="M70.161,106.256c-0.169,0-0.31-0.006-0.458-0.082c-0.081-0.041-0.373-0.14-0.311-0.276
		c0.047-0.101,0.291-0.087,0.385-0.106c0.129-0.028,0.266-0.102,0.369-0.172c0.207-0.145,0.376-0.299,0.552-0.487
		c0.145-0.154,0.329-0.348,0.429-0.536c0.154-0.295,0.221-0.648,0.261-0.977c-0.087,0.123-0.015,0.348-0.017,0.492
		c-0.002,0.142,0.021,0.287-0.012,0.426c-0.031,0.131-0.105,0.244-0.123,0.377c-0.033,0.248-0.074,0.444-0.228,0.654
		c-0.145,0.199-0.284,0.367-0.517,0.464c-0.234,0.097-0.424,0.173-0.678,0.173c-0.076,0-0.461,0.012-0.416-0.124
		c0.089-0.011,0.184,0.008,0.271-0.01c0.119-0.023,0.177-0.1,0.267-0.173c0.237-0.194,0.504-0.403,0.664-0.669
		c0.179-0.298,0.356-0.599,0.495-0.918c0.136-0.313,0.195-0.619,0.242-0.954c0.035,0.084,0.016,0.178,0.014,0.267"/>
	<path d="M69.472,103.6c0.001,0.001-0.017,0.135-0.007,0.184c0.023,0.113,0.061,0.216,0.114,0.318
		c0.155,0.297,0.444,0.514,0.78,0.52c0.228,0.004,0.407-0.01,0.594-0.146c0.143-0.104,0.234-0.275,0.279-0.439
		c0.049-0.176,0.074-0.336,0.027-0.514c-0.059-0.221-0.221-0.402-0.398-0.537c-0.132-0.1-0.293-0.195-0.462-0.203
		c-0.091-0.006-0.184,0.027-0.27,0.052c-0.108,0.03-0.14,0.101-0.224,0.153"/>
</g>
</svg>
