<?xml version="1.0" encoding="utf-8"?>
<!-- Generator: Adobe Illustrator 16.0.4, SVG Export Plug-In . SVG Version: 6.00 Build 0)  -->
<!DOCTYPE svg PUBLIC "-//W3C//DTD SVG 1.1//EN" "http://www.w3.org/Graphics/SVG/1.1/DTD/svg11.dtd">
<svg version="1.1" id="Ebene_1" xmlns="http://www.w3.org/2000/svg" xmlns:xlink="http://www.w3.org/1999/xlink" x="0px" y="0px"
	 width="283.46px" height="425.2px" viewBox="0 0 283.46 425.2" enable-background="new 0 0 283.46 425.2" xml:space="preserve">
<path fill="#FFFFFF" d="M88.288,379.095c0.111-0.044,0.131-0.104,0.066-0.174c-0.517,0.179-0.877,0.519-1.291,0.822
	c-0.385,0.28-0.922,0.854-1.375,0.959c-0.953-0.845,1.866-3.542,2.719-2.027"/>
<g>
	<path fill="#FF0000" d="M174.149,315.382c0.742,0.69,2.604,0.394,3.575,0.449c1.175,0.066,2.3,0.533,3.441,0.643
		c1.391,0.135,3.182,0.641,4.288-0.477c1.023-1.034,1.234-2.669,2.254-3.711c0.559-0.572,1.004-0.781,1.178-1.567
		c0.188-0.851-0.081-1.677-0.191-2.392c2.403-1.218,3.051,2.43,3.023,4.156c-0.017,1.002-0.561,2.057-0.238,3.026
		c0.1,0.302,0.145,0.613,0.26,0.905c0.091,0.23,0.18,0.471,0.328,0.662c0.212,0.273,0.563,0.383,0.827,0.595
		c0.246,0.197,0.489,0.421,0.68,0.673c0.222,0.293,0.442,0.475,0.724,0.714c0.242,0.206,0.444,0.475,0.674,0.696
		c0.273,0.265,0.549,0.529,0.786,0.826c0.451,0.566,1.167,1.198,1.323,1.942c0.039,0.188,0.066,0.538,0.021,0.734
		c-0.052,0.232-0.203,0.492-0.289,0.729c-0.139,0.386-0.406,0.605-0.732,0.821c-0.426,0.282-0.852,0.167-1.32,0.233
		c-0.066,0.239,0.166,0.436,0.249,0.635c0.114,0.278,0.068,0.452-0.081,0.706c-0.162,0.272-0.379,0.607-0.657,0.772
		c-0.321,0.189-0.825,0.132-1.188,0.176c-0.283,0.034-0.49-0.103-0.603,0.2c-0.088,0.24-0.053,0.479-0.054,0.734
		c-0.003,0.688-0.465,1.334-1.148,1.421c-0.193,0.024-0.779-0.041-0.938,0.062c-0.152,0.1-0.174,0.478-0.319,0.618
		c-0.181,0.176-0.404,0.157-0.639,0.161c-0.437,0.006-0.884,0.039-1.319,0.021c-0.464-0.02-0.892-0.168-1.348-0.229
		c-0.499-0.067-0.988-0.16-1.426-0.438c-0.486-0.31-0.816-0.795-1.365-1.028c-0.301-0.128-0.605-0.249-0.907-0.381
		c-0.591-0.26-0.981-0.796-1.581-1.032c-0.685-0.271-1.324-0.632-2.068-0.72c-1.27-0.15-2.473-0.222-3.708-0.508
		c-0.985-0.229-1.949-0.658-3.009-0.949c-2.299-0.631-4.877-0.634-4.799-3.695c0.026-1.022,0.584-1.787,1.135-2.612
		c0.658-0.989,1.229-2.557,2.104-3.347c0.563-0.51,1.384-0.271,1.798-0.959"/>
	<g>
		<path fill="#FF0000" d="M205.926,307.151c-3.69,0.269-8.132-0.441-11.469-1.963c-3.047-1.398-5.385-3.547-7.489-6.188
			c-0.75-0.942-1.195-2.159-2.277-2.731c-0.522-0.29-1.24-0.212-1.813-0.44c-0.767-0.307-1.532-0.713-2.267-1.083
			c-1.171-0.562-2.218-0.859-2.62-2.154c-0.185-0.582-0.385-1.314-0.095-1.923c0.279-0.602,0.742-1.006,0.99-1.688
			c0.224-0.635,0.408-1.368,0.371-2.058c-0.032-0.714-0.545-0.771-0.885-1.349c-0.618-1.006-1.039-1.989-1.818-2.949
			c-1.676-2.097-1.166-4.825-1.229-7.39c-0.079-2.937,0.104-5.884,0.431-8.832c0.176-1.497,1.09-2.797,1.4-4.218
			c0.351-1.63,1.24-2.441,2.172-3.802c0.873-1.278,1.799-2.562,2.785-3.743c1.127-1.385,2.181-2.301,3.73-3.095
			c0.896-0.458,2.519-2.832,3.476-3.142c0.82-0.278,0.397,3.648,1.687,6.006c0.89,1.665,3.178,5.05,4.99,5.208
			c2.604,0.219,8.866-4.435,11.149-3.211c2.685,1.456,5.098,0.801,7.481,2.693c1.062,0.862-0.027-0.604,1.088,0.227
			c1.302,0.953,2.453,2.136,3.822,3.014c1.983,1.272,4.088,2.551,5.663,4.335c1.205,1.363,1.811,3.766,2.126,5.531
			c0.473,2.628,0.611,5.605,0.186,8.254c-0.604,3.752-1.395,7.475-1.795,11.258c-0.221,2.086-0.264,4.146-1.219,6.061
			c-1.371,2.75-3.625,5.467-6.352,6.931c-3.002,1.611-6.528,2.004-9.872,2.271C207.491,307.045,206.708,307.094,205.926,307.151z"/>
		<path d="M179.636,286.437c0.078-0.648,0.109-0.928,0.689-1.29c0.639-0.392,1.275-0.821,1.984-1.124
			c0.566-0.226,1.004-0.494,1.508-0.814c0.291-0.2,0.836-0.615,1.209-0.647c0.182-0.364-0.023-0.967-0.057-1.341
			c-0.073-0.558-0.037-0.876,0.169-1.403c0.295-0.784,0.826-1.655,1.361-2.324c-0.823-0.198-2.276,1.147-2.901,1.648
			c-0.55,0.421-0.941,0.805-1.188,1.428c-0.212,0.512-0.254,1.168-0.473,1.726c-0.276,0.671-0.211,0.597-0.908,0.827
			c-0.389,0.129-1.069,0.137-1.43,0.378c-0.865,0.609-0.774,2.071-0.473,2.889"/>
		<path d="M192.991,290.809c0.006,1.701-1.408,2.915-2.109,4.319c-0.289,0.601-0.353,1.545-0.918,2.009
			c-0.399,0.329-0.4,0.283-0.857-0.075c-0.186-0.138-0.699-0.54-0.766-0.75c-0.402-1.248,1.961-2.283,2.7-2.867
			c0.557-0.403,0.948-0.88,1.157-1.478c0.264-0.789,0.664-1.463,0.715-2.325c0.387,0.662,0.109,0.818,0.046,1.508"/>
		<path d="M178.572,283.336c0.446-0.271,0.657-0.729,0.944-1.188c0.409-0.652,1.234-0.633,1.906-0.798
			c-0.127-0.275-1.093-0.385-1.386-0.412c-0.512-0.046-1.597-0.175-2.007,0.178c-0.229,0.194-0.405,0.435-0.576,0.671
			c-0.367,0.506-0.504,0.772-0.41,1.411c0.062,0.418,0.239,1.072,0.449,1.445c0.04-0.164,0.158-0.351,0.195-0.512
			c0.041-0.18-0.01-0.431,0.171-0.565c0.055-0.041,0.275-0.049,0.353-0.072C178.349,283.453,178.467,283.399,178.572,283.336z"/>
		<path d="M186.329,298.715c-0.103-0.04,0.398,0.009,0.496,0.025c0.383-1.202-0.559-2.052-1.665-2.02
			c-0.192,0.386,0.583,1.562,0.847,1.797"/>
		<path d="M195.685,263.368c0.018,0.015,0.049,0.025,0.068,0.033c0.078-0.487,0.146-0.982,0.244-1.477
			c0.049-0.237,0.021-0.424,0.002-0.669c-0.02-0.223-0.016-0.466-0.049-0.69c-0.062-0.442-0.113-0.872-0.288-1.301
			c-0.113-0.278-0.317-0.535-0.406-0.817c-0.086-0.268,0.067-0.274,0.187-0.466c0.221,0.085,0.492,0.117,0.729,0.202
			c0.252,0.091,0.51,0.258,0.774,0.288c0.349,0.041,0.429-0.263,0.576-0.535c0.217-0.403,0.354-0.847,0.517-1.274
			c0.151-0.401,0.388-0.771,0.568-1.147c0.112,0.127,0.106,0.341,0.197,0.488c0.124,0.201,0.354,0.432,0.558,0.551
			c0.43,0.253,1.051,0.034,1.504-0.023c0.614-0.077,1.236-0.082,1.854-0.046c1.722,0.103,3.38-0.32,5.133-0.133
			c1.058,0.114,2.089,0.114,3.024,0.571c2.094,1.017,4.351,1.675,6.438,2.582c2.105,0.935,3.552,2.833,5.371,4.259
			c0.968,0.785,1.764,1.78,2.738,2.575c0.862,0.682,1.81,1.302,2.622,2.038c0.846,0.779,1.272,1.647,1.795,2.614
			c0.57,1.015,1.238,1.905,1.621,3.028c0.324,0.951,0.605,1.956,0.786,2.955c0.181,0.99,0.715,2.036,0.609,3.089
			c-0.112,1.145-0.236,2.271-0.069,3.396c0.152,0.925-0.034,1.919-0.129,2.857c0.254-1.468-0.519-3.228-0.959-4.584
			c0.283,0.407,0.165,1.436,0.062,1.996c-0.204,0.989-0.558,1.911-0.927,2.839c-0.694,1.75-1.123,3.645-1.928,5.363
			c-0.795,1.658-1.791,3.285-2.58,4.968c-0.431,0.917-1.021,1.877-1.602,2.732c-0.381,0.546-1.252,1.871-1.942,2.107
			c-0.087-0.283,0.124-0.534,0.188-0.81c-0.646,0.83-1.594,1.425-2.369,2.187c-0.701,0.689-1.347,1.418-2.139,2.039
			c-1.443,1.141-3.5,1.701-5.301,2.138c-1.021,0.229-1.973-0.029-3.005,0.124c-0.811,0.116-1.597,0.176-2.451,0.271
			c-0.908,0.102-1.796,0.116-2.722,0.131c-0.391-0.009-0.824,0.152-1.291,0.141c-0.328-0.021-1.138-0.104-1.383,0.135
			c1.01-0.44,2.104-0.659,3.14-1.025c1.076-0.376,2.178-0.293,3.032-1.219c-0.838,0.152-1.393-0.098-2.107-0.396
			c-0.41-0.172-1.793-0.43-1.982-0.691c0.454-0.051,0.924,0.094,1.393,0.099c0.777-0.001,1.359-0.232,1.988-0.608
			c0.549-0.358,0.99-0.812,1.52-1.189c0.33-0.226,0.683-0.477,0.963-0.777c-0.768,0.269-1.195-0.43-1.719-0.812
			c-0.607-0.436-1.27-0.624-1.955-0.864c-0.029-0.596,1.805-0.075,2.189-0.569c0.256-0.304-0.004-0.455,0.353-0.812
			c0.297-0.313,0.853-0.38,1.093-0.773c-0.895,0.066-1.703,0.6-2.633,0.637c-0.517,0.011-1.017-0.037-1.512-0.023
			c-0.308,0.006-0.721,0.131-0.998,0.035c0.435,0.13,0.949-0.312,1.322-0.483c0.604-0.272,1.188-0.543,1.74-0.971
			c0.83-0.676,1.677-1.413,2.416-2.188c0.574-0.615,1.299-1.101,1.812-1.728c0.393-0.491,0.485-1.369,1.116-1.708
			c-0.521-0.013-1.725,0.597-2.192,0.829c-0.476,0.225-1.758,0.854-1.863,1.452c-0.154,0.059-0.306,0.09-0.467,0.087
			c-0.053-0.885,0.706-1.497,1.24-2.15c0.594-0.729,1.127-1.528,1.756-2.236c0.465-0.543,0.657-1.043,0.883-1.685
			c0.176-0.485,0.356-0.989,0.52-1.488c0.125-0.349,0.471-0.97,0.338-1.307c-0.66,0.234-1.325,0.791-1.914,1.212
			c-0.719,0.51-1.412,0.938-2.127,1.379c-0.57,0.348-1.061,0.679-1.482,1.156c-0.309,0.329-0.592,0.861-1.004,1.035
			c-0.381-0.553,0.093-1.602,0.325-2.142c0.351-0.858,0.894-1.806,1.476-2.52c0.494-0.593,1.164-1.079,1.673-1.62
			c0.243-0.27,0.511-0.52,0.077-0.826c-0.51-0.335-1.203,0.37-1.568,0.619c-0.252,0.178-1.305,1.202-1.518,1.084
			c-0.533-0.283,0.355-3.268,0.342-3.855c-0.393-0.094-1.041,0.552-1.439,0.72c-0.123-0.473,0.512-1.266,0.746-1.69
			c0.371-0.641,1.228-1.474,1.149-2.295c-0.032-0.243-0.161-0.303-0.226-0.528c-0.058-0.255,0.01-0.591-0.034-0.853
			c-0.092-0.582-0.435-1.129-1.028-1.369c-0.318-0.128-8.963-9.953-8.887-10.71c0.031-0.502,0.508-1.26,0.393-1.715
			c-0.412-0.212-1.25,0.464-1.606,0.677c-0.416,0.242-0.833,0.836-1.315,0.784c-0.031-0.69,0.162-1.322,0.325-1.965
			c0.351-1.44,0.405-3.397,1.763-4.393c0.804-0.589,1.661-0.931,2.557-1.104"/>
		<path fill="#FFFFFF" d="M187.699,294.005c0.44,0.286,1.386-0.61,1.707-0.873c0.554-0.457,1.196-1.086,1.347-1.813
			c0.135-0.64,0.113-1.324,0.087-1.983c-0.013-0.333-0.132-0.535-0.224-0.847c-0.084-0.281-0.053-0.552-0.104-0.841
			c-0.825,0.748-1.703,1.614-2.228,2.661c-0.317,0.631-0.759,1.39-0.8,2.102c-0.021,0.366-0.122,1.363,0.311,1.512
			c0.068-0.002,0.099-0.038,0.09-0.108"/>
		<path d="M190.634,288.11c0.269,0.535,0.221,1.276,0.217,1.885c-0.006,0.642-0.092,1.451-0.47,1.996
			c-0.351,0.504-0.71,1.083-1.152,1.546c-0.478,0.499-1.203,0.728-1.497,1.384c-0.061-0.327-0.064-0.764-0.016-1.095
			c0.377,0.328,1.123-0.561,1.387-0.79c0.473-0.409,0.858-0.735,1.111-1.333c0.24-0.566,0.289-1.188,0.356-1.793
			c0.058-0.517,0.085-1.428-0.146-1.877c-0.381-0.005-0.904,0.696-1.194,0.95c-0.477,0.415-0.872,0.925-1.112,1.525
			c-0.222,0.554-0.439,1.115-0.445,1.724c-0.002,0.325,0.002,0.622,0.083,0.928c0.044,0.165,0.098,0.517,0.185,0.665
			c-1.062-0.702-0.478-2.506,0.105-3.411c0.623-0.969,1.707-1.824,2.586-2.492"/>
		<path d="M189.508,288.585c-0.403,0.35-1.079,0.497-1.288,1.177c-0.289,0.942,0.375,1.697,1.168,2.057
			c0.937,0.425,1.264-0.095,1.476-0.942c0.118-0.471,0.317-0.844-0.013-1.304c-0.346-0.481-1.063-0.79-1.624-0.89"/>
	</g>
	<path fill="#FF0000" d="M171.881,232.124c-0.556,0.646-1.015,0.956-1.054,1.756c-0.029,0.516-0.059,1.074-0.004,1.592
		c0.053,0.519,0.389,1.077,0.329,1.594c-0.081,0.688-0.896,1.451-1.353,1.976c-1.717,1.979-2.974,4.218-3.918,6.684
		c-1.371,3.575-2.848,7.111-4.092,10.744c-0.625,1.841-0.836,3.803-1.43,5.647c-0.836,2.613-2.467,5.002-4.014,7.212
		c-3.512,5.023-7.287,9.971-9.289,15.841c-0.338,1.003-0.493,2.012-0.734,3.035c-0.186,0.809-0.617,1.579-0.71,2.414
		c-0.132,1.278,0.185,2.677,0.484,3.929c0.378,1.558,0.687,3.188,1.356,4.666c0.312,0.695,0.795,1.373,1.062,2.063
		c0.27,0.696,0.127,0.951,0.73,1.462c1.47,1.247,2.902,2.541,4.463,3.649c1.59,1.121,3.42,2.429,4.757,3.876
		c1.03,1.124,1.931,2.32,2.954,3.475c2.781,3.135,0.76-3.613,1.842,0.243c0.443,1.566,1.332,3.058,2.01,4.539
		c0.689,1.502,1.129,2.968,1.584,4.562c0.724,2.544-0.546,4.372-2.32,5.988c-0.843,0.758-1.955,1.516-3.129,1.765
		c-0.744,0.161-1.341-0.001-1.992,0.416c-0.467,0.299-1.086,0.63-1.351,1.137c0.613,0.377,1.442,0.773,2.209,0.956
		c0.899,0.211,1.827-0.546,2.584-0.885c1.827-0.818,3.571-2.297,4.642-3.935c0.553-0.844,1.162-1.55,1.312-2.56
		c0.189-1.265-0.135-2.76-0.358-4.003c-0.568-3.073-0.557-6.231-1.438-9.208c-0.979-3.326,0.729,4.275-0.172,0.894
		c-0.618-2.309-1.006-4.528-1.966-6.772c-0.847-1.985-1.522-3.955-1.985-6.013c-0.115-0.501-0.1-1.32-0.361-1.774
		c-0.15-0.259-0.465-0.366-0.66-0.559c-0.125-0.124-0.252-0.268-0.395-0.529c-0.521-0.973-1.018-1.938-1.496-2.942
		c-0.27-0.547-0.568-0.852-0.943-1.333c-0.286-0.372-0.65-0.874-0.466-1.361c0.414-1.101,1.974-1.578,2.754-2.294
		c1.153-1.072,2.538-1.949,3.554-3.144c0.857-1,1.689-1.544,2.787-2.103c1.113-0.568,2.151-1.47,3.319-2.095
		c1.169-0.618,2.206-1.45,3.236-2.347c0.927-0.81,1.901-1.615,2.831-2.444c1.057-0.95,1.931-2.198,2.854-3.273
		c2.295-2.666,4.521-5.341,6.6-8.146c1.887-2.549,3.914-4.653,6.377-6.42c0.951-0.686,1.388-1.812,1.873-2.888
		c0.461-1.011,0.941-2.047,1.219-3.068c0.336-1.281-0.487-2.647-1.165-3.816c-0.838-1.441-1.749-2.936-2.749-4.288
		c-3.068-4.139-6.99-7.51-11.436-10.031c-1.91-1.078-3.91-2.055-5.957-2.795C173.006,232.61,171.881,232.124,171.881,232.124z"/>
	<path d="M173.417,306.078c-0.945-2.135-2.021-4.127-3.066-6.215c-0.288-0.576-0.831-0.904-1.281-1.382
		c-0.488-0.514-1.012-1.017-1.574-1.504c-0.979-0.842-2.055-1.563-3.006-2.388c-1.072-0.937-2.203-1.7-3.428-2.361
		c-0.723-0.39-1.435-0.88-2.15-1.28c-0.44-0.246-0.928-0.379-1.377-0.643c-1.543-0.892-3.076-1.854-4.697-2.688
		c-1.303-0.673-2.643-1.207-3.82-2.035c-1.613-1.132-3.626-1.994-5.453-2.853c-1.724-0.812-3.393-1.558-5.09-2.244
		c-2.568-1.039-5.19-2.073-7.729-3.103c-0.514-0.208-1.069-0.554-1.523-0.935c-0.462-0.379-1.019-0.62-1.433-0.997
		c-0.053,0.049-0.113,0.092-0.176,0.123c-0.013-0.047-0.022-0.096-0.031-0.146l-0.908,0.381c-1.311,0.871-2.928,1.147-4.311,1.912
		c-0.826,0.457-1.604,1.066-2.383,1.597c-1.206,0.818-2.402,1.726-3.58,2.595c-1.508,1.115-2.506,2.275-3.626,3.77
		c-1.159,1.54-3.366,4.369-2.558,6.456c0.346,0.892,1.606,1.446,2.402,1.817c1.443,0.675,2.982,1.249,4.484,1.782
		c4.352,1.552,8.891,2.917,13.4,3.907c3.799,0.836,7.708,2.053,11.154,3.853c1.718,0.896,3.463,1.737,5.189,2.611
		c1.326,0.67,2.713,1.121,4.074,1.711c1.063,0.46,2.01,0.842,3.094,1.205c0.375,0.124,0.73,0.314,0.966,0.632
		c-0.863,2.406-2.757,4.887-4.351,6.9c-2.244,2.834-4.361,5.788-6.535,8.677c-1.402,1.863-2.79,3.733-4.167,5.621
		c-1.823,2.503-3.809,4.94-5.505,7.53c-4.185,6.384-8,13.004-12.51,19.179c-2.276,3.118-5.176,5.684-7.916,8.306
		c-2.084,1.991,12.583,12.434,12.826,11.957c1.743-3.396,3.83-6.604,5.982-9.765c2.205-3.24,4.421-6.48,6.893-9.548
		c0.969-1.198,1.905-2.438,2.926-3.625c0.868-1.006,1.688-2.235,2.67-3.116c0.934-0.841,1.764-1.812,2.604-2.792
		c0.802-0.932,1.572-1.595,2.419-2.372c1.799-1.65,3.432-3.545,5.228-5.172c1.021-0.927,2.036-1.911,3.035-2.847
		c1.183-1.107,2.443-2.182,3.509-3.42c0.98-1.138,2.174-2.071,3.146-3.207c0.946-1.108,1.901-2.211,2.853-3.317
		c1.943-2.261,4.328-4.38,5.049-7.293c0.304-1.219,0.74-2.352,0.979-3.604c0.223-1.173,0.6-2.501,0.657-3.673
		C174.907,311.397,174.509,308.562,173.417,306.078z"/>
	<path fill="#245977" d="M125.042,284.556c0.085-0.062,0.093-3.376,0.289-4.421c0.373-1.981,1.549-2.839,2.59-4.476
		c-0.943-0.82-3.032-0.865-4.203-1.207c-1.51-0.439-2.985-0.785-4.489-1.275c-1.546-0.507-3.276-1.142-4.921-1.094
		c-2.422,0.062-2.754,1.638-3.189,3.747c-0.426,2.025-1.29,2.799,0.92,3.91c1.402,0.707,2.977,0.892,4.365,1.533
		c1.698,0.776,3.146,1.547,4.863,2.229c0.857,0.345,3.703,1.946,3.815,1.609"/>
	<path fill="#FFFFFF" d="M123.755,274.486c-0.385-0.111-0.759-0.226-1.143-0.325c-2.762,1.318-4.855,4.544-5.047,7.668
		c0.713,0.332,1.432,0.675,2.133,0.994c-0.061-3.194,1.799-6.714,4.608-8.22C124.126,274.563,123.911,274.531,123.755,274.486z"/>
	<path fill="#FFFFFF" d="M115.864,272.213c-2.351,1.746-3.818,4.138-4.678,6.851c0.221,0.203,0.514,0.415,0.951,0.633
		c0.5,0.252,1.026,0.435,1.549,0.595c0.149-0.634,0.32-1.221,0.49-1.702c0.836-2.362,2.281-4.561,4.463-5.68
		C117.747,272.609,116.804,272.369,115.864,272.213z"/>
	<path fill="#FFFFFF" d="M124.937,284.527c0.082-0.062,0.093-3.376,0.287-4.419c0.375-1.983,1.551-2.843,2.587-4.474
		c-0.112-0.104-0.29-0.163-0.441-0.242c-1.466,0.178-2.812,2.217-3.419,3.338c-0.698,1.291-1.4,3.734-1.134,5.543
		c1.022,0.507,2.091,1.014,2.161,0.812L124.937,284.527z"/>
	<path fill="#FF0000" d="M183.449,241.484c-4.549-3.594-9.659-6.458-14.903-8.911c-9.385-4.387-19.351-7.46-29.598-8.181
		c-1.924,0.184-3.838,0.425-5.764,0.791c-2.488,0.47-5.034,0.589-7.495,1.198c-2.188,0.535-4.446,1.079-6.576,1.779
		c-5.328,1.742-10.907,2.936-16.056,5.314c-2.488,1.146-4.791,2.554-7.211,3.842c-1.422,0.763-2.859,1.484-4.272,2.251
		c-0.396,0.291-0.809,0.562-1.206,0.857c-9.814,7.372-20.27,16.563-24.736,28.315c-0.1,0.581-0.229,1.145-0.275,1.75
		c-0.154,2.048-0.125,4.015-0.044,6.069c0.091,2.323,0.633,4.652,1.067,6.918c0.504,2.61,0.836,5.381,1.612,7.926
		c0.356,1.151,0.704,2.326,1.171,3.434c0.614,1.468,1.33,2.8,2.053,4.169c0.525,0.996,0.992,2.136,1.434,3.172
		c0.512,1.184,1.236,2.129,1.965,3.213c0.65,0.963,1.307,1.881,1.979,2.781c3.906,3.205,8.375,5.721,13.113,7.541
		c0.075,0.025,0.105,0.081,0.132,0.134c1.372-1.051,2.601-2.369,3.479-3.751c0.818-1.297,2.134-2.52,3.462-3.36
		c1.319-0.825,2.338-2.179,3.276-3.374c1.329-1.69,2.521-3.606,4.032-5.128c2.219-2.25,4.638-4.216,6.824-6.479
		c1.836-1.905,3.82-3.692,5.699-5.566c1.191-1.179,5.039-2.921,3.605-3.699c-11.846-6.431-5.796-9.625-4.032-10.564
		c3.203-1.702,4.879-4.006,5.738-3.621c0.693,0.312,18.355,2.249,19.482,2.449c1.668,0.302,17.289,6.744,19.576,5.891
		c2.988-1.108,5.787-2.174,8.73-3.184c1.139-0.395,2.334-0.91,3.137-1.81c0.896-1.002,1.54-2.443,2.49-3.501
		c1.146-1.271,2.2-2.537,3.362-3.779c1.5-1.602,3.081-3.347,4.293-5.182c0.907-1.373,1.96-2.783,3.228-3.797
		c1.229-0.98,2.692-2.005,3.721-3.226c0.4-0.474,0.683-1.549,1.373-1.559c0.062,0.105,0.1,0.219,0.13,0.339l-0.403,1.906
		c0.369-1.214,0.517-2.367,0.545-3.512C189.959,247.364,186.774,244.115,183.449,241.484z"/>
	<path d="M161.882,297.833c-2.553-2.43-7.759-2.812-10.98-3.949c-4.127-1.468-8.476-2.803-12.681-3.988
		c-6.117-1.727-10.921-3.868-16.472-6.82c-2.329-1.239-5.235-2.697-7.587-3.327c-2.812-0.755-5.226-0.287-7.914,0.36
		c-3.904,0.936-5.756,4.299-8.185,7.112c-2.891,3.351-6.154,6.98-8.339,10.821c-1.884,3.3-6.63,11.062-4.515,15.668
		c1.467,0.733,2.963,1.414,4.496,2.004c0.18,0.07,0.209,0.231,0.15,0.369c0.658,0.045,1.324,0.071,1.828,0.052
		c2.317-0.097,4.571,0.661,6.916,0.578c5.542-0.224,10.682-0.083,16.158,0.78c0.603,0.093,1.195,0.152,1.788,0.223
		c-0.177,0.045-0.34,0.088-0.485,0.12c-2.373,0.566-4.439,1.195-6.699,2.095c-4.618,1.84-8.941,5.626-12.769,8.952
		c-7.847,6.816-14.008,14.528-19.321,23.199c-1.062,1.726-8.648,15.178-8.992,15.391c4.648,2.13,7.262,1.768,11.737,4.231
		c2.544-1.075,23.358-14.295,26.954-15.83c8.494-3.629,15.619-9.818,22.932-15.199c7.365-5.425,16.468-9.517,21.458-17.09
		c2.204-3.348,5.778-7.671,5.413-12.054C156.559,309.018,163.794,299.656,161.882,297.833z M119.264,316.737
		c0.706,0.092,1.522,0.006,2.319,0.008c-0.578,0.016-1.209,0.1-1.838,0.216C119.159,316.787,118.89,316.688,119.264,316.737z"/>
	<path d="M122.473,316.788c-0.042-0.005-0.082-0.006-0.128-0.007C122.391,316.782,122.427,316.782,122.473,316.788z"/>
	<path fill="#245977" d="M67.753,263.965c-0.297,0.204-0.498,0.479-0.598,0.82c3.672,4.072,9.018,5.808,13.68,7.707
		c5.16,2.107,10.29,2.828,15.526,4.286c4.237,1.186,8.651,1.788,12.979,2.157c2.324,0.197,4.472,0.183,6.622,1.318
		c2.311,1.214,3.926,2.587,6.441,3.271c-0.449,1.131-2.26,1.946-3.158,3.003c-1.062,1.253-2.144,2.493-3.219,3.744
		c-2.574,2.993-4.651,5.602-6.035,9.312c-1.869,5.011-4.038,12.284-2.975,17.664c-6.482-0.484-11.893,0.152-18.316-1.457
		c-3.699-0.929-7.684-2.843-10.884-4.422c-2.845-1.401-6.019-3.357-8.493-5.612c-6.49-5.905-9.049-12.22-8.736-20.627
		c0.128-3.458,0.809-7.857,2.115-11.081c1.096-2.693,2.347-6.773,4.736-8.675c0.17,1.089-0.326,0.437-0.699,0.609"/>
	<path fill="#FFFFFF" d="M119.329,286.432c0.756-0.889,2.106-1.619,2.801-2.499c-6.182,3.88-10.729,10.535-13.827,17.004
		c-2.437,5.08-3.95,10.5-4.407,16.054c1.048,0.031,2.109,0.072,3.206,0.158c-1.065-5.376,1.107-12.654,2.975-17.662
		c1.386-3.712,3.462-6.319,6.037-9.314C117.186,288.925,118.266,287.686,119.329,286.432z"/>
	<path fill="#FFFFFF" d="M102.031,277.91c-3.054,0.169-6.126-0.572-9.128-1.01c-3.576-0.524-7.156-1.131-10.609-2.229
		c-3.375-1.072-6.773-2.144-10-3.626c-2.316-1.068-4.393-2.39-6.451-3.796c-1.159,1.753-1.981,3.95-2.701,5.791
		c6.477,2.638,13.692,3.71,20.525,4.653c4.343,0.598,8.718,0.964,13.102,1.1c2.125,0.064,4.248,0.096,6.371,0.076
		c1.148-0.015,2.303-0.025,3.447-0.13c0.329-0.028,0.714-0.049,1.106-0.075C105.804,278.475,103.911,278.235,102.031,277.91z"/>
	<path fill="#FFFFFF" d="M97.471,281.258c-4.093-0.072-8.185,0.11-12.272,0.035c-8.002-0.157-15.977-0.847-23.905-1.882
		c-0.343,1.893-0.544,3.814-0.61,5.521c1.541,0.117,3.088,0.194,4.637,0.232c4.754,0.122,9.521-0.239,14.256-0.595
		c5.704-0.43,11.347-1.127,16.975-2.172c2.055-0.378,4.093-0.795,6.109-1.279C100.941,281.308,99.186,281.29,97.471,281.258z"/>
	<path fill="#FFFFFF" d="M113.938,279.439c-5.023,2.188-10.16,3.96-15.348,5.722c-5.119,1.732-10.223,3.529-15.362,5.184
		c-5.124,1.652-10.296,3.199-15.548,4.395c-1.768,0.401-3.549,0.733-5.326,1.061c0.498,1.256,1.082,2.475,1.812,3.652
		c1.944-0.572,3.887-1.147,5.826-1.75c5.211-1.621,10.371-3.45,15.495-5.326c4.945-1.813,9.891-3.687,14.648-5.966
		c2.479-1.184,4.884-2.522,7.38-3.655c2.209-1.008,4.719-1.727,6.629-3.274C114.077,279.461,114.007,279.462,113.938,279.439z"/>
	<path fill="#FFFFFF" d="M102.563,287.154c-4.529,2.681-9.055,5.374-13.594,8.041c-4.498,2.65-8.945,5.366-13.221,8.364
		c-1.6,1.123-3.181,2.264-4.769,3.401c2.143,1.677,4.571,3.144,6.823,4.259c5.744-5.688,11.797-11.083,17.649-16.65
		c3.339-3.178,6.661-6.482,10.494-9.065c0.55-0.378,1.116-0.741,1.68-1.111C105.923,285.277,104.222,286.177,102.563,287.154z"/>
	<path fill="#FFFFFF" d="M98.379,298.432c2.696-3.913,5.79-7.604,9.408-10.708c1.981-1.703,4.09-3.274,6.392-4.51
		c0.877-0.467,1.72-0.87,2.671-1.158c0.541-0.164,1.107-0.314,1.646-0.533c-0.1-0.054-0.204-0.113-0.302-0.168
		c-1.902,0.952-3.984,1.458-5.859,2.468c-1.752,0.944-3.439,2.003-5,3.245c-3.735,2.965-6.954,6.577-9.838,10.362
		c-4.309,5.653-8.908,11.089-13.226,16.732c1.505,0.604,3.032,1.157,4.516,1.526c0.308,0.078,0.599,0.119,0.901,0.185
		C91.831,309.71,94.683,303.793,98.379,298.432z"/>
	<path fill="#FFFFFF" d="M112.774,288.808c1.424-1.502,2.879-3.029,4.566-4.251c0.98-0.715,2.164-1.251,3.258-1.869
		c-0.093-0.037-0.17-0.098-0.26-0.141c-1.858,0.911-3.812,1.557-5.523,2.812c-1.949,1.423-3.734,3.086-5.371,4.863
		c-3.399,3.687-6.307,7.802-8.709,12.199c-2.205,4.045-3.989,8.271-5.046,12.763c-0.117,0.499-0.216,1.006-0.328,1.507
		c0.824,0.058,1.646,0.105,2.466,0.133c1.521-6.283,3.909-12.365,7.281-17.881C107.326,295.327,109.858,291.893,112.774,288.808z"/>
	<path fill="#245977" d="M117.351,263.936c-1.879-2.021-2.782-5.016-4.158-7.498c-2.918-5.261-6.017-9.543-6.779-15.729
		c-0.271-2.205-0.215-4.456-0.489-6.66c-0.465-3.734-0.573-3.254,3.271-4.438c5.336-1.643,10.861-2.985,16.31-4.461
		c9.977-2.696,22.052-2.378,31.521,1.131c10.496,3.893,21.229,8.95,30.328,16.728c7.6,6.486,6.285,11.301,5.927,13.949
		c-0.067,0.483-0.861,1.506-1.255,1.914c-0.652-6.345-6.445-9.948-9.893-11.005c-5.302-1.617-5.551,1.852-3.75,5.875
		c3.586,8.035,2.664,13.324-3.034,20.186c1.915-3.468,0.961-11.83-0.524-15.413c-2.744-6.644-10.463-6.909-16.494-7.482
		c-3.377-0.32-3.668-0.021-6.232,2.082c-2.86,2.349-4.986,5.354-5.812,8.563c-1.508,5.873,0.769,7.693-4.177,12.066
		c-3.514-0.938-8.025-0.93-11.503-1.945c-2.118-0.624-6.991,0.034-7.683-1.015C122.923,270.783,118.944,265.655,117.351,263.936z"/>
	<path fill="#FFFFFF" d="M124.464,259.087c-1.831-5.517-3.038-11.263-3.793-17.023c-0.686-5.24-0.982-10.817,0.471-15.968
		c-2.664,0.7-5.322,1.394-7.959,2.134c-0.547,1.42-0.838,2.95-0.979,4.457c-0.255,2.726-0.082,5.481,0.273,8.191
		c0.313,2.397,0.772,4.767,1.266,7.131c0.661,3.185,1.375,6.352,2.379,9.45c1.023,3.18,2.285,6.305,3.95,9.205
		c0.606,1.057,1.275,2.055,1.974,3.034c0.472,0.595,0.778,0.989,0.778,0.989c0.695,1.054,5.578,0.393,7.696,1.014
		c0.045,0.014,0.087,0.023,0.128,0.03C127.874,267.941,125.933,263.487,124.464,259.087z"/>
	<path fill="#FFFFFF" d="M136.093,269.221c-0.609-3.847-0.76-7.746-0.721-11.626c0.102-11.634,1.357-23.72,6.305-34.371
		c-3.158-0.126-6.339,0.018-9.431,0.414c-1.589,3.9-2.415,8.1-2.779,12.288c-0.442,4.954-0.288,9.961,0.25,14.91
		c0.325,2.982,0.79,5.957,1.318,8.914c0.583,3.228,1.282,6.461,2.388,9.556c0.391,1.093,0.847,2.156,1.323,3.199
		c0.706,0.097,1.407,0.18,2.112,0.266C136.554,271.599,136.279,270.418,136.093,269.221z"/>
	<path fill="#FFFFFF" d="M150.668,254.25c1.063-4.828,2.519-9.578,4.196-14.214c1.568-4.338,3.509-8.597,6.112-12.403
		c-1.331-0.528-2.658-1.044-3.983-1.533c-1.914-0.71-3.939-1.28-6.033-1.733c-3.023,5.554-4.88,11.683-6.176,17.881
		c-1.312,6.336-2.355,12.758-2.623,19.229c-0.172,3.928-0.047,7.86,0.316,11.772c4.363-4.096,2.292-5.989,3.758-11.68
		C146.923,258.899,148.513,256.378,150.668,254.25z"/>
	<path fill="#FFFFFF" d="M169.274,242.127c1.844-2.696,3.996-5.241,6.447-7.421c-2.16-1.245-4.365-2.405-6.596-3.481
		c-0.157,0.201-0.318,0.396-0.473,0.594c-3.811,4.862-7.252,10.062-9.731,15.732c-0.47,1.087-0.9,2.184-1.302,3.292
		c0.214,0.015,0.434,0.033,0.682,0.06c1.919,0.18,4.002,0.331,6.053,0.666C165.592,248.228,167.278,245.05,169.274,242.127z"/>
	<path fill="#FFFFFF" d="M179.791,258.529c0.088-0.041,0.176-0.073,0.269-0.107c-0.293-1.248-0.729-2.558-1.309-3.949
		c-1.547,0.839-3.058,1.746-4.504,2.751c0.211,0.372,0.41,0.752,0.582,1.17c0.249,0.601,0.48,1.35,0.691,2.171
		C176.899,259.792,178.329,259.112,179.791,258.529z"/>
	<path fill="#FFFFFF" d="M176.786,271.997c1.455-1.995,2.486-3.888,3.084-5.786c-1.162,0.624-2.312,1.26-3.451,1.933
		c-0.008,1.395-0.128,2.73-0.396,3.865C176.274,272.005,176.532,271.99,176.786,271.997z"/>
	<path fill="#FFFFFF" d="M177.793,248.215c0.24-0.353,0.599-0.609,1.073-0.754c2.653-1.819,5.463-3.373,8.383-4.714
		c-1.771-1.499-3.583-2.895-5.461-4.199c-2.604,2.071-5.16,4.204-7.537,6.533c-2.305,2.265-4.381,4.72-6.141,7.399
		c1.133,0.381,2.203,0.886,3.168,1.546C173.257,251.888,175.429,249.937,177.793,248.215z"/>
	<path fill="#FFFFFF" d="M193.599,254.6c0.103-1.466-0.019-3.259-0.998-5.353c-1.373,0.29-2.752,0.595-4.113,0.975
		c-0.379,0.105-0.738,0.237-1.107,0.354c1.455,1.188,2.801,2.715,3.682,4.588C191.905,254.971,192.749,254.778,193.599,254.6z"/>
	<path fill="#FF0000" d="M131.366,281.639c-1.752,2.306-4.658,4.859-5.734,7.577c-2.783,6.978-0.346,8.761,1.909,16.742
		c1.021,3.626,1.547,12.041,2.548,15.939c0.842,3.25,2.538,6.206,3.476,9.422c0.435,1.513,0.7,2.789,1.425,4.287
		c1.275,2.656,1.746,5.819,2.688,8.661c0.596,1.796,1.668,3.364,1.742,5.234c0.119,2.935-2.67,10.247,1.502,11.319
		c1.297,0.334,2.169-0.449,3.255-0.778c0.02-1.1,2.745-2.611,3.679-3.006c0.993-0.419,1.271-0.17,2.002-1.03
		c0.414-0.486,0.638-1.112,0.969-1.671c1.088-1.843,1.051-3.649,0.33-5.638c-0.645-1.781-1.954-2.048-2.923-3.442
		c-2.421-3.486,0.206-9.746,0.929-13.406c0.523-2.651,1.059-5.3,1.544-7.958c0.201-1.101,0.903-3.009,0.577-4.136
		c-0.254-0.817,0.312-1.46,0.224-2.316c-0.184-1.838-0.229-3.295-0.669-5.024c-0.969-3.904-2.182-7.046-5.084-9.926
		c-1.339-1.351-3.117-3.717-3.592-4.877c4.6,0.513,4.26-1.579,8.806-3.565c3.622-1.581,7.126-3.416,10.628-5.266
		c6.221-3.296,15.979-12.962,16.703-20.55c0.274-2.826-1.779-9.596-3.254-12.144c-1.797-3.105-14.618-6.243-17.625-4.931
		c-12.362,5.366-9.085,11.896-14.459,18.519C140.479,272.739,132.968,279.521,131.366,281.639z"/>
	<path d="M164.179,270.99c-0.093-0.08-0.217-0.391-0.334-0.549c-0.211-0.293-0.419-0.584-0.63-0.883
		c-0.43-0.594-0.956-1.131-1.317-1.774c0.057-0.079,0.166-0.084,0.255-0.12c0.518,0.518,0.817,1.246,1.37,1.732
		c0.525,0.469,1.059,1.086,1.402,1.722c-0.126,0.117-0.281,0.301-0.44,0.371c-0.099-0.104-0.542-0.484-0.392-0.619"/>
	<path d="M164.538,268.618c-0.168-0.387-0.074-1.417,0.46-1.478c0.586-0.07,1.165,0.653,1.222,1.179
		c0.061,0.534-0.439,0.949-0.958,0.971c-0.233,0.01-0.458-0.098-0.615-0.269c-0.128-0.136-0.282-0.462-0.142-0.629 M165.913,268.424
		c-0.076-0.175-0.025-0.346-0.129-0.521c-0.074-0.127-0.195-0.331-0.318-0.39c-0.461-0.225-0.518,0.308-0.576,0.593
		c-0.082,0.36-0.047,0.669,0.401,0.696c0.305,0.02,0.729-0.199,0.684-0.546"/>
	<path d="M164.46,268.558c0.092,0.149-0.569,0.534-0.708,0.627c-0.301,0.171-0.566,0.374-0.831,0.577
		c-0.589,0.46-1.135,0.977-1.771,1.393c-0.874,0.6-2.009,0.954-2.897,1.546c-0.652,0.431-1.531,0.707-1.895,1.398
		c0.168,0.074,0.311,0.191,0.473,0.313c0.181-0.283,0.742-0.362,1.079-0.494c0.415-0.181,0.85-0.333,1.23-0.536
		c0.743-0.404,1.45-0.83,2.073-1.352c0.355-0.287,0.701-0.595,0.984-0.948c0.315-0.388,0.736-0.669,1.137-0.971
		c0.297-0.231,0.609-0.492,0.947-0.688c0.129-0.078,0.305-0.174,0.404-0.255c0.17-0.146,0.164-0.251-0.1-0.513"/>
	<path d="M155.538,268.144c-0.168,0.171-0.16,0.388-0.246,0.603c-0.136,0.325-0.259,0.634-0.293,0.995
		c-0.059,0.658,0.006,1.379,0.156,2.022c0.281,1.183,0.847,2.381,1.669,3.279c0.415,0.45,0.795,0.821,1.376,1.072
		c0.434,0.189,0.859,0.385,1.317,0.45c0.431,0.063,0.83,0.13,1.257,0.074c0.167-0.021,0.97-0.073,0.898-0.33
		c-0.342,0.065-0.777,0.003-1.126-0.045c-0.358-0.044-0.685-0.117-1.021-0.238c-0.83-0.306-1.478-0.86-2.049-1.518
		c-0.305-0.337-0.616-0.678-0.876-1.066c-0.23-0.353-0.392-0.797-0.544-1.182c-0.283-0.728-0.641-1.478-0.752-2.259
		c-0.047-0.322-0.004-0.658,0.035-0.974c0.03-0.266-0.084-0.583-0.008-0.835c0.027,0.076,0.076,0.087,0.141,0.114"/>
	<path d="M154.321,269.503c0.418-0.616,0.824-1.352,1.332-1.857c0.262,0.273,0.34,0.719,0.428,1.087
		c0.049,0.201,0.078,0.42,0.129,0.628c0.037,0.139,0.148,0.365,0.126,0.493c-0.146-0.205-0.3-0.276-0.474-0.43
		c-0.199-0.176-0.327-0.402-0.514-0.593c-0.164,0.163-0.375,0.358-0.606,0.487c-0.133,0.081-0.591,0.378-0.717,0.349
		c0.015-0.031,0.042-0.054,0.069-0.07"/>
	<path d="M160.749,275.687c-0.033,0.265,1.061,0.74,1.305,0.81c-0.184,0.182-0.428,0.321-0.607,0.494
		c-0.158,0.14-0.451,0.419-0.66,0.365c0.021-0.211,0.398-0.588,0.574-0.722c-0.035-0.096-0.113-0.103-0.174-0.172
		c-0.078-0.079-0.135-0.189-0.201-0.282c-0.119-0.166-0.232-0.367-0.381-0.45"/>
	<g>
		<path d="M77.657,363.996c0.164-0.196,1.829,2.025,2.277,2.495c1.238,1.296,3.238,2.062,4.856,2.437
			c3.057,0.708,6.025,1.875,9.002,2.86c2.383,0.79,5.634,0.916,7.789,2.479c2.685,1.949,1.159,5.114,1.882,7.691
			c-0.948,1.169-5.391,0.234-6.779-0.051c-2.339-0.48-4.515-0.354-6.869-0.279c-2.529,0.077-5.141-0.061-7.662-0.434
			c-1.971-0.292-4.191-0.836-6.173-0.782c1.136,1.861-3.046,0.849-3.733,0.801c-1.574-0.107-3.175-0.473-4.712-0.973
			c-0.646-0.211-1.239-0.495-1.841-0.739c-1.027-0.42-1.309-0.37-1.447-1.488c-0.189-1.549-0.402-3.95,0.021-5.4
			c0.199-0.685,0.569-1.023,0.648-1.763c0.086-0.802,0.049-1.652,0.18-2.481c0.115-0.724,0.33-1.366,0.619-2.028
			c0.378-0.866,0.531-1.007,1.512-1.161c2.031-0.321,4.094-0.061,6.113-0.296c0.91-0.106,4.14-1.652,4.649-0.78"/>
		<path fill="#FFFFFF" d="M85.495,369.912c-0.022-0.078-0.064-0.141-0.129-0.191c-0.238,0.174-0.57,0.19-0.848,0.313
			c-0.311,0.139-0.523,0.338-0.695,0.636c-0.354,0.615-0.386,1.489-0.35,2.221c0.076,1.408,0.871,2.685,0.635,4.15
			c-0.186,1.185-1.189,2.367-2.064,3.004c-0.914,0.666-2.348,1.946-2.501,3.227c-0.171-0.218-0.446-0.185-0.612-0.43
			c0.887-1.114,1.467-2.383,2.5-3.241c1.091-0.905,2.014-2.207,2.193-3.775c0.086-0.764-0.139-1.511-0.304-2.284
			c-0.075-0.363-0.119-0.714-0.194-1.056c-0.093-0.409-0.338-0.807-0.316-1.247c0.03-0.631,0.344-1.358,0.78-1.684
			c0.729-0.541,1.253-0.078,1.943,0.192"/>
		<path fill="#FFFFFF" d="M83.254,368.478c-0.604-0.224-1.617,0.295-2.239,0.438c-0.914,0.209-1.111-0.361-1.555-1.147
			c-0.387-0.686-0.438-1.328-0.724-1.999c-0.319-0.752-0.884-1.517-1.31-2.14c-1.068-1.576,1.206-2.374,1.977-3.173
			c0.541-0.559,0.84-1.337,0.748-2.155c-0.085-0.763-0.447-1.513-0.469-2.237c0.205,0.353,0.504,0.09,0.75-0.024
			c0.252,0.686,0.082,1.302,0.117,2.038c0.029,0.656,0.123,1.387-0.004,2.026c-0.158,0.806-0.842,1.002-1.487,1.363
			c-0.742,0.417-1.122,0.74-1.007,1.7c0.096,0.775,0.545,1.434,0.951,2.159c0.224,0.396,0.443,0.795,0.667,1.188
			c0.237,0.415,0.214,0.663,0.321,1.094c0.27,1.067,0.932,0.576,1.634,0.471c0.647-0.103,1.291,0.243,1.901,0.222
			c-0.099-0.119-0.233-0.189-0.357-0.205"/>
	</g>
	<g>
		<path d="M111.311,367.005c0.173-0.429-0.646-0.454-1.218-0.328c-0.322,1.855-0.081,3.657,0.033,5.407
			c0.09,1.449,0.693,3.816,2.025,4.597c0.212,0.127,0.092,1.209,0.588,1.427c1.352,0.595,8.564,1.335,8.439-0.995
			c2.311-0.191,4.49,0.528,6.652,0.881c2.303,0.376,4.279,0.837,6.696,0.943c2.296,0.102,4.462,0.228,6.71,0.61
			c2.334,0.396,4.501,1.111,6.97,0.909c0.143-0.33,0.162-0.844,0.046-1.178c-0.18-0.051-0.36-0.101-0.541-0.149
			c0.959-1.578,2.708-2.8,2.436-4.964c-0.193-1.487-2.846-2.734-4.105-3.311c-3.519-1.613-7.078-3.51-10.612-5.103
			c-0.933-0.419-1.562-0.704-2.523-1.003c-1.198-0.371-1.579-0.366-2.652,0.124c-2.123,0.972-3.72,1.46-6.091,1.719
			c-2.188,0.237-4.307,0.257-6.389-0.282c-1.061-0.274-1.844-0.357-2.857-0.83c-0.822-0.384-1.595-1.465-2.449-1.592
			c-0.154,0.835-0.654,0.591-1.085,1.107c-0.487,0.583-0.655,1.415-1.354,1.952"/>
		<path fill="#FFFFFF" d="M134.263,366.805c0.021,0.101,0.007,0.194-0.036,0.285c-0.497,0.156-0.626-0.278-1.015-0.312
			c-0.092,0.265,0.02,0.485,0.119,0.729c0.654,0.118,1.002,0.145,1.337-0.419c0.229-0.384,0.363-0.868,0.066-1.309
			c-0.575-0.85-2.148-0.944-3.026-0.628c-1.871,0.675-2.773,2.78-4.361,3.773c-1.462,0.915-3.588,2.601-5.406,2.076
			c-0.855-0.246-1.662-0.94-2.234-1.608c-0.665-0.775-0.546-1.748-0.044-2.592c0.07-0.035,0.143-0.038,0.212-0.008
			c-0.316-0.567,0.094-1.319,0.272-1.819c-0.632,0.165-1.485,1.31-1.604,1.902c-0.21,1.048,0.029,2.186,0.604,2.995
			c1.639,2.308,4.015,2.181,6.379,1.204c1.225-0.506,2.308-0.891,3.246-1.86c0.667-0.689,1.136-1.502,1.668-2.271
			c0.57-0.822,1.383-1.053,2.326-1.134c1.343-0.112,1.494,0.776,1.456,1.916"/>
		<path fill="#FFFFFF" d="M132.284,366.255c0.033-0.041,0.067-0.083,0.103-0.127c-0.338-0.063-0.667,2.692-1.046,3.134
			c-0.836,0.976-2.441,0.344-3.061-0.521c-1.599-2.228-0.466-4.435-0.085-6.827c0.194-1.217,0.651-2.69,0.458-3.98
			c-0.161-1.062-1.519-2.016-2.359-2.448c-0.561-0.291-1.082-0.538-1.666-0.773c-0.648-0.259-1.325-0.248-1.984-0.43
			c-0.598-0.164-1.286-0.373-1.859-0.514c-0.543-0.133-1.265-0.443-1.797-0.459c-0.078-0.081-0.176-0.116-0.285-0.104
			c0.104,0.169,0.148,0.356,0.138,0.574c2.326,0.409,4.474,0.896,6.679,1.706c2.543,0.931,2.32,3.277,2.215,5.643
			c-0.055,1.268-0.013,2.584-0.168,3.842c-0.148,1.199-0.281,2.228,0.006,3.391c0.248,1.015,0.748,1.883,1.915,1.933
			c1.065,0.045,1.991-0.597,2.499-1.581c0.446-0.867,0.429-1.942,0.471-2.91"/>
	</g>
	<path d="M133.815,114.483c-1.2-1.207-4.975,0.522-6.791,0.277c-0.572,3.203-5.676,8.12-7.559,10.744
		c-3.162,4.395-5.941,9.864-8.027,14.925c-3.892,9.357-25.086,26.465-29.807,35.293c5.695,4.732,23.422,6.61,23.422,6.61
		l24.151-2.437l7.863-11.856c0,0-3.112-42.64-3.253-52.104V114.483z"/>
	<path d="M142.802,102.922c0.978-0.13,2,0.093,2.969-0.07c-0.602-0.665-1.775-0.981-2.56-1.607c-0.673-0.547-1.438-1.76-2.103-2.075
		c-0.617,0.484-2.131,1.063-2.529,1.688c-0.929,1.481-1.313,3.05-2.538,4.298c-1.163,1.192-1.959,3.045-2.7,4.509
		c-0.697,1.39-1.247,2.914-1.623,4.503c-0.379,1.56-0.211,3.263-0.607,4.872c-0.842,3.363-2.232,6.659-3.207,10.015
		c-1.664,5.729-3.447,11.866-3.358,17.869c0.021,1.422-0.122,1.953,1.195,2.709c1.28,0.728,2.717,1.236,4.024,1.971
		c1.985,1.098,3.322,2.348,4.916,4.03c0.615,0.657,0.879,2.441,1.697,2.749c-0.28-2.324,0.422-1.928,0.361-5.991
		c-0.02-1.341,5.066-24.549,6.188-24.842c0.007-0.525-0.44-0.925-0.687-1.378c-0.271-0.511-0.318-0.938-0.389-1.535
		c-0.141-1.264-0.038-2.577-0.057-3.833c-0.037-2.458-0.254-5.152,0.324-7.438c0.27-1.089,0.171-2.297,0.372-3.415
		c0.181-1.048,0.499-2.915,0.103-3.996C142.284,105.125,141.704,103.081,142.802,102.922z"/>
	<path fill="#245977" d="M134.978,86.114c0.11,0.067,0.152,0.155,0.126,0.256c-0.515,0.452-1.019,0.921-1.541,1.362
		c-0.256,0.22-0.524,0.429-0.8,0.617c-0.242,0.164-0.468,0.176-0.736,0.248c-0.178,0.042-0.42,0.06-0.598,0.037
		c-0.272-0.023-0.534-0.237-0.74-0.391c-0.193-0.14-0.4-0.339-0.532-0.53c-0.11-0.146-0.201-0.3-0.324-0.429
		c-0.028-0.027-0.099-0.113-0.099-0.113c-0.121-0.041-0.133,0.048-0.193,0.131c-0.338,0.522-0.588,1.137-0.887,1.686
		c-0.198,0.354-0.443,0.713-0.499,1.134c-0.054,0.389-0.337,0.739-0.541,1.067c-0.504,0.811-1.029,1.604-1.5,2.435
		c-0.072,0.144-0.15,0.281-0.229,0.426c-0.682,1.299-1.607,2.609-2.103,4.004c-0.468,1.312,0.505,2.438,1.37,3.411
		c0.42,0.477,0.855,0.973,1.285,1.47c0.379,0.429,0.732,0.986,1.301,1.182c1.344,0.478,2.975-1.327,4.082-1.935
		c1.713-0.941,3.532-1.837,5.049-3.084c0.228-0.181,0.457-0.339,0.63-0.566c0.188-0.251,0.491-0.409,0.712-0.616
		c0.188-0.182,0.389-0.312,0.592-0.478c0.233-0.193,0.447-0.427,0.696-0.593c0.116-0.077,0.23-0.066,0.353-0.122
		c-0.146-0.27-0.361-0.49-0.527-0.744c-0.229-0.357-0.459-0.714-0.682-1.079c-0.271-0.458-0.478-1.019-0.426-1.559
		c0.067-0.602,0.689-0.842,1.077-1.229c0.153-0.165,0.308-0.337,0.481-0.503c0.067-0.062,0.201-0.152,0.2-0.255
		c-0.001-0.061-0.104-0.18-0.146-0.228c-0.249-0.33-0.574-0.59-0.815-0.913c-0.526-0.691-1.014-1.419-1.458-2.151
		c-0.244-0.426-0.49-0.856-0.76-1.26c-0.25-0.398-0.779-0.709-0.955-1.088c0.082-0.048,0.17-0.056,0.272-0.044"/>
	<g>
		<path fill="#FFFFFF" d="M232.701,224.759c1.132-1.701,6.649,0.8,8.187,0.726c0.932-3.541,3.267-8.225,5.597-11.413
			c-0.753-0.605-7.305-1.377-8.325-1.274c-1.846,0.172-2.244,0.219-3.093,1.924c-1.29,2.573-1.792,5.687-1.845,8.385
			c-0.232,0.159-0.4,0.883-0.458,0.593"/>
		<path d="M237.208,220.621c0.633-0.532,1.289-1.138,1.779-1.813c0.85-1.198,2.063-4.765,2.128-6.101
			c0.017-0.184,3.011-2.927,3.423-3.194c-0.066-0.173-1.853-1.229-1.887-1.448c-0.033-0.152,0.129-0.489,0.195-0.606
			c0.029,0.044,5.669,4.534,6.306,4.641c0.56,0.11,18.208-1.898,18.688-1.573c0.181,0.109,3.231,2.494,3.438,2.743
			c0.18,0.216,0.441,0.313,0.312,0.662c-0.088,0.275-4.637,3.062-6.162,3.893c-0.866,0.485-13.946,5.452-14.537,5.439
			c-0.335,0.008-2.753,0.971-2.793,1.057c-0.089,0.195,1.009,3.152,0.956,3.419c-0.056,0.221-8.409,4.039-8.894,4.305
			c-0.162,0.078-0.363,0.199-0.523,0.276c-0.17,0.046-1.463-1.956-1.592-2.07c-0.139-0.123-2.293-0.777-3.066-1.281
			c-0.389-0.232-2.225-5.003-2.234-5.342C232.73,223.422,236.655,221.081,237.208,220.621z"/>
		<g>
			<path d="M90.07,142.464l0.077,0.231c0.021-0.048,0.043-0.098,0.061-0.148C90.173,142.502,90.132,142.474,90.07,142.464z"/>
			<path d="M240.052,206.4c0.492-1.979,1.336-5.003,0.899-5.928c-2.186,0.141-4.452-0.721-6.634-1.14
				c-3.209-0.611-6.466-0.949-9.767-1.245c-3.964-0.355-7.843-1.092-11.743-1.704c-3.419-1.323-6.355-2.448-7.943-3.016
				c-4.855-1.739-25.707-12.196-25.707-12.196l-9.939-5.855l-12.076-2.391c0,0-41.179-14.363-58.684-20.438
				c-0.76-0.684-1.498-1.39-2.266-2.071c-1.404-1.243-2.719-2.705-3.896-4.17c-0.631-0.787-1.189-1.618-1.656-2.505
				c-0.104-0.192-0.201-0.734-0.409-0.801l-0.083-0.244c-0.238,0.563-0.712,1.056-1.052,1.554c-0.423,0.636-1.022,1.116-1.562,1.663
				c-0.813,0.83-1.639,1.573-2.368,2.44c-0.919,0.311-1.738,0.986-2.56,1.35c-3.961,1.777-8.717,2.617-12.945,4.087
				c-3.023,1.048-8.47,1.458-11.523,2.261c-1.885,0.449-5.082,3.778-5.082,3.778s3.396,9.345,4.355,11.143
				c2.111,3.844,5.098,7.082,8.45,9.854c6.755,5.639,15.671,9.898,24.134,12.784c9.512,3.231,68.12,17.011,69.421,17.232
				c1.915,0.325,12.56,3.39,12.063,3.235c0,0,8.781,3.056,10.109,3.197c2.643,0.303,5.164,0.665,7.762,1.106
				c1.161,0.195,2.31,0.407,3.455,0.624c2.459,0.702,4.473,1.269,5.612,1.557c4.681,1.187,22.86,6.646,27.37,7.595
				c0.6,0.132,1.646-0.559,2.941-1.759c1.992,0.578,3.228,1.335,5.01-0.944c2.08-2.672,3-6.075,3.93-9.27
				c0.048-0.162,0.095-0.326,0.145-0.486c3.212-4.256,5.896-8.165,6.342-9.033C242.882,206.826,241.479,206.693,240.052,206.4z"/>
		</g>
	</g>
	<g>
		<g>
			<path d="M98.419,155.021l0.107,0.167c0.006-0.042,0.017-0.083,0.021-0.122C98.509,155.037,98.468,155.021,98.419,155.021z"/>
			<path d="M233.7,180.732c0.015-1.604,0.111-4.071-0.426-4.715c-1.764,0.453-3.786,0.145-5.655,0.167
				c-2.746,0.033-5.477,0.284-8.237,0.573c-3.312,0.352-6.633,0.392-9.945,0.535c-3.055-0.483-5.68-0.887-7.09-1.077
				c-4.316-0.576-23.432-5.359-23.432-5.359l-9.283-2.953l-10.35,0.057c0,0-36.517-4.6-52.035-6.526
				c-0.756-0.409-1.498-0.839-2.258-1.243c-1.394-0.74-2.758-1.658-4.01-2.601c-0.67-0.508-1.291-1.064-1.846-1.671
				c-0.125-0.134-0.311-0.536-0.493-0.556l-0.114-0.174c-0.088,0.471-0.376,0.925-0.556,1.364c-0.22,0.555-0.618,1.022-0.951,1.529
				c-0.503,0.767-1.035,1.469-1.461,2.251c-0.69,0.387-1.229,1.035-1.832,1.446c-2.89,1.993-6.618,3.389-9.79,5.187
				c-2.269,1.285-6.646,2.457-8.987,3.558c-1.454,0.641-3.419,3.714-3.419,3.714s4.613,6.67,5.75,7.904
				c2.479,2.635,5.561,4.661,8.848,6.269c6.631,3.287,14.766,5.168,22.257,6.062c8.418,0.997,59.085,2.404,60.192,2.368
				c1.634-0.052,10.944,0.639,10.51,0.597c0,0,7.785,0.976,8.898,0.876c2.223-0.183,4.357-0.3,6.57-0.37
				c0.988-0.03,1.969-0.049,2.946-0.061c2.151,0.154,3.915,0.274,4.9,0.315c4.063,0.183,20.015,1.531,23.888,1.554
				c0.52,0.005,1.238-0.692,2.062-1.82c1.745,0.132,2.904,0.519,3.916-1.515c1.176-2.389,1.266-5.157,1.397-7.769
				c0.009-0.134,0.015-0.266,0.022-0.398c1.796-3.786,3.225-7.223,3.423-7.965C236.101,180.614,234.926,180.731,233.7,180.732z"/>
		</g>
	</g>
	<path fill="#FFFFFF" d="M100.386,164.452c0,0-9.906,7.224-10.57,7.365c-12.197,2.563-21.342-6.974-19.283-9.689
		c0.401-0.528,34.579-58.56,45.326-69.636c2.095-2.172,17.775,19.922,18.311,20.642c0.193,0.297-3.764,1.475-3.574,1.934
		c-0.996,1.496-2.135,3.006-2.422,4.779C128.118,120.207,100.386,164.452,100.386,164.452z"/>
	<g>
		<path fill="#FFFFFF" d="M109.96,109.795c0.176-0.002,0.176,0.017,0.026,0.02c-0.614-0.227-1.387-1.06-1.882-1.435
			c-0.18,1.302,0.275,1.291,1.195,1.886c0.304,0.205,0.48,0.727,0.898,0.611c0.502-0.15,0.592-0.879,0.189-1.089"/>
		<path fill="#FFFFFF" d="M104.483,118.158c0.164-0.002,0.178,0.002,0.021,0.005c-0.607-0.229-1.394-1.053-1.896-1.438
			c-0.164,1.299,0.271,1.293,1.195,1.914c0.304,0.172,0.467,0.705,0.9,0.568c0.508-0.127,0.605-0.863,0.201-1.055"/>
		<path fill="#FFFFFF" d="M98.364,126.966c0.162-0.002,0.163,0.017,0.027,0.019c-0.6-0.221-1.4-1.053-1.896-1.432
			c-0.179,1.299,0.27,1.288,1.196,1.898c0.288,0.194,0.452,0.7,0.906,0.592c0.492-0.151,0.583-0.88,0.187-1.083"/>
		<path fill="#FFFFFF" d="M91.56,134.92c0.148-0.002,0.184-0.002,0.02,0.013c-0.601-0.208-1.368-1.026-1.855-1.407
			c-0.158,1.268,0.277,1.262,1.17,1.858c0.301,0.187,0.445,0.68,0.869,0.572c0.495-0.132,0.579-0.844,0.197-1.042"/>
		<path fill="#FFFFFF" d="M86.816,143.164c0.155-0.002,0.17-0.003,0.008,0c-0.581-0.201-1.349-1.034-1.836-1.387
			c-0.165,1.258,0.27,1.233,1.163,1.852c0.301,0.191,0.457,0.671,0.89,0.564c0.487-0.129,0.574-0.851,0.176-1.035"/>
		<path fill="#FFFFFF" d="M80.914,152.47c0.177-0.002,0.177-0.002,0.026,0.006c-0.594-0.215-1.346-1.032-1.846-1.397
			c-0.166,1.271,0.262,1.258,1.173,1.851c0.282,0.191,0.438,0.692,0.879,0.569c0.495-0.128,0.563-0.843,0.175-1.035"/>
	</g>
	<path d="M115.446,78.047c0.793,0.654,1.665,0.797,2.521,1.286c0.965,0.545,1.859,1.298,2.839,1.821
		c1.727,0.932,4.434,2.584,6.778,5.823c1.517,2.417-6.407,9.995-7.137,13.532c-0.172,0.791-0.413,1.555-0.551,2.345
		c-0.164,0.894-0.026,1.849-0.265,2.708c-0.136,0.484-0.544,1.352-0.837,1.716c-0.275,0.352-0.458,0.32-0.781,0.493
		c-0.162,0.085-0.969,0.6-1.105,0.616c-0.665,0.064-2.492-1.77-2.973-2.117c-1.127-0.821-2.168-1.475-3.182-2.459
		c-0.918-0.905-1.734-1.884-2.685-2.762c-1.393-1.301-2.963-2.312-4.019-3.913c-0.514-0.753-1.162-1.411-1.689-2.15
		c-0.736-1.021-1.238-1.903-1.162-3.183c0.111-2.169,2.084-4.229,3.66-5.632c2.085-1.844,4.4-3.421,6.742-4.882
		c0.473-0.285,2.268-1.087,2.162-1.725"/>
	<path fill="#FFFFFF" d="M142.667,98.875c-0.888-1.17-2.336-2.655-3.289-3.768c-0.242-0.283-4.206,3.151-4.814,3.482
		c-1.522,0.851-8.982,4.983-9.25,5.231c-0.139-0.732,0.912-5.906,1.118-6.567c0.237-0.675,0.435-1.475,0.514-2.163
		c0.119-1.154,3.187-7.308,3.459-7.652c0.267-0.445,0.53-1.006,0.53-1.006s-2.041-0.228-3.035-0.206
		c-1.004,0.03-10.203,4.554-10.246,6.336c0.893-0.266,2.049-0.697,2.909-0.332c0.931,0.395,0.722,1.431,0.44,2.223
		c-0.396,1.094-0.926,2.147-1.365,3.234c-0.354,0.856-0.746,1.866-1.408,2.583c-0.006,0.013,0.001,0.034-0.006,0.055
		c-0.335,1.228-0.889,2.392-1.441,3.533c-0.799,1.657-1.554,3.412-2.557,4.95c-0.492,0.749-0.848,1.68-1.254,2.486
		c-0.33,0.649-0.668,1.34-0.908,2.031c-0.567,1.666-1.439,3.222-2.102,4.848c-0.486,1.23-1.182,2.348-1.688,3.559
		c-0.474,1.12-0.855,2.275-1.282,3.403c-0.252,0.717-0.662,1.586-0.602,2.358c0.049,0.563,0.222,1.228,0.359,1.774
		c0.268,1.103,1.006,2.303,1.878,3.058c0.503,0.434,1.585,0.887,2.209,0.504c0.242-0.154,0.409-0.426,0.624-0.621
		c0.375-0.35,0.827-0.528,1.271-0.766c0.83-0.432,1.652-0.88,2.42-1.401c0.895-0.577,1.791-1.093,2.748-1.569
		c0.581-0.294,1.133-0.566,1.573-1.062c0.728-0.833,1.166-2.022,1.633-3.022c0.283-0.627,0.467-1.187,0.954-1.697
		c0.824-0.841,1.709-1.607,2.512-2.469c0.822-0.895,1.494-1.83,2.214-2.805c0.406-0.557,0.675-1.192,1.151-1.695
		c0.401-0.42,0.762-0.759,1.103-1.239c0.192-0.274,3.566-1.282,3.951-1.942c1.035-1.752,2.577-3.177,3.378-5.036
		c0.342-0.806,0.607-1.637,0.961-2.464c0.361-0.787,0.835-1.502,1.203-2.269c0.325-0.691,0.818-1.709,1.479-2.127
		c0.517-0.327,1.435-0.728,2.043-0.484c0.145,0.058,0.352,0.272,0.482,0.367c0.375,0.279,0.295,0.267,0.35,0.714
		c0.035,0.284,0.134,0.331,0.01,0.631c-0.098,0.26-0.271,0.465-0.377,0.74c0.537-0.001,1.166-1.139,1.111-1.598
		C143.544,100.202,143.152,99.528,142.667,98.875z"/>
	<g>
		<path d="M122.265,107.99c0.129-0.002,0.129-0.002,0.02,0c-0.904-0.075-1.189,2.232,0.16,2.122c0.537-0.04,0.814-0.506,0.943-1.004
			c0.161-0.649-0.227-1.036-0.707-1.404"/>
		<path d="M118.529,114.14c-0.335,0.29-1.593,0.736-0.833,1.541c0.731,0.755,1.471-0.641,0.703-1.121"/>
		<path d="M113.683,121.718c0.021,0.095,0.048,0.113,0.09,0.046c-0.672-0.787-1.626,0.404-1.065,1.11
			c0.29,0.38,0.869,0.372,1.155-0.017c0.293-0.418,0.107-1.048-0.184-1.419"/>
		<path d="M109.511,127.303c-0.205,0.323-0.766,0.474-0.842,1.011c-0.064,0.499,0.271,0.826,0.733,0.839
			c0.599,0.026,0.864-0.426,0.836-1.005c-0.038-0.616-0.329-0.641-0.863-0.843"/>
		<path d="M105.769,132.47c0.079,0.227-0.297,0.083-0.533,0.176c-0.297,0.113-0.558,0.355-0.746,0.657
			c-0.355,0.567-0.363,1.084,0.314,1.341c0.614,0.219,0.971-0.089,1.233-0.651c0.362-0.759-0.104-1.453-0.71-1.947"/>
		<path d="M100.605,138.347c0.034,0.041,0.062,0.08,0.103,0.112c-0.801,0.127-1.202,1.379-0.357,1.604
			c0.506,0.134,0.822-0.081,0.958-0.559c0.142-0.519-0.134-0.717-0.276-1.164"/>
		<path d="M95.59,143.81c0.064,0.173-0.155,0.015-0.288,0.282c-0.072,0.156-0.105,0.53-0.125,0.715
			c-0.04,0.489,0.223,1.219,0.878,0.984C97.129,145.41,96.495,143.931,95.59,143.81"/>
		<path d="M90.436,149.552c-0.757,0.289-0.509,1.732,0.439,1.168c0.964-0.581,0.062-1.388-0.725-1.307"/>
		<path d="M85.525,153.732c0.041,0.042,0.069,0.075,0.097,0.115c-0.518,0.266-1.327,1.229-0.95,1.787
			c0.833,1.224,2.3-1.453,1.009-1.618"/>
		<path d="M80.511,159.195c0.123,0.085,0.131,0.102,0.021,0.048c-0.977-0.326-1.508,1.583-0.281,1.653
			c0.631,0.039,0.951-0.405,1.084-1.006c0.192-0.785-0.167-0.834-0.826-0.838"/>
	</g>
	<path fill="#FF0000" d="M129.039,96.63c-0.013,0.042-0.04,0.063-0.079,0.049c-0.002-0.149-0.054-0.345-0.091-0.501
		c-0.044-0.229-0.054-0.487,0.011-0.711c0.059-0.199,0.137-0.384,0.201-0.582c0.046-0.124,0.051-0.24,0.158-0.342
		c0.235-0.229,0.596-0.241,0.88-0.319c0.134-0.037,0.249-0.099,0.397-0.113c0.259-0.019,0.547,0.127,0.771,0.231
		c0.315,0.132,0.597,0.317,0.89,0.476c0.275,0.146,0.53,0.307,0.755,0.514c0.174,0.153,0.345,0.347,0.477,0.529
		c0.097,0.154,0.168,0.283,0.172,0.459c0.004,0.312,0.021,0.597-0.07,0.905c-0.129,0.389-0.41,0.719-0.567,1.109
		c-0.104,0.261-0.182,0.457-0.378,0.672c-0.088,0.103-0.18,0.212-0.272,0.322c-0.066,0.076-0.1,0.166-0.187,0.233
		c-0.135,0.117-0.325,0.099-0.502,0.056c-0.409-0.109-0.805-0.267-1.189-0.466c-0.391-0.205-0.767-0.423-1.004-0.8
		c-0.166-0.262-0.238-0.525-0.304-0.817c-0.036-0.184-0.102-0.372-0.144-0.562c-0.016-0.068-0.016-0.123-0.023-0.204
		c-0.023-0.171-0.043-0.143,0.07-0.273"/>
	<path fill="#FF0000" d="M128.201,91.861l-1.181,2.87c0,0,0.254,1.627,2.42,3.253c2.164,1.633,2.854,1.869,2.854,1.869
		s2.27-1.264,3.562-2.167c1.209-0.833-2.388,0.239-4.412-1.552C129.421,94.336,128.201,91.861,128.201,91.861z"/>
	<g>
		<path fill="#FFFFFF" d="M238.53,198.737c0.119-0.879,1.449-0.638,1.799-1.243c-0.214-0.404-0.013-1.134,0.01-1.575
			c0.047-0.725,0.152-1.394,0.076-2.137c-0.086-0.762-0.373-1.497-0.583-2.238c-0.204-0.723-0.301-1.433-0.526-2.139
			c-0.454-1.341-0.877-2.766-1.588-3.908c-0.414-0.65-0.957-1.218-1.484-1.757c-0.415-0.427-1.029-1.263-1.633-1.358
			c0.418,0.371,0.315,1.315,0.344,1.818c0.03,0.682,0.012,1.273-0.297,1.855c-0.23,0.471-1.035,1.133-1.084,1.661
			c-0.005,0.134,0.432,0.916,0.504,1.105c0.207,0.552,0.474,1.062,0.723,1.595c0.707,1.537,1.382,3.077,2,4.619
			c0.291,0.703,0.502,1.357,0.796,2.072c0.174,0.39,0.456,0.713,0.659,1.096c0.141,0.276,0.178,0.641,0.408,0.926
			c0.029-0.115-0.012-0.176-0.031-0.277"/>
		<path d="M237.438,193.38c0.034-0.736,0.042-1.513-0.105-2.256c-0.257-1.279-1.79-4.323-2.597-5.238
			c-0.104-0.127-0.082-3.708-0.015-4.132c-0.142-0.073-1.853,0.319-2.011,0.201c-0.116-0.077-0.233-0.396-0.272-0.52
			c0.045,0.014,6.184-0.459,6.629-0.775c0.392-0.267,9.473-12.198,9.967-12.275c0.17-0.034,3.465-0.337,3.748-0.291
			c0.242,0.028,0.455-0.058,0.605,0.242c0.115,0.229-0.801,4.783-1.163,6.225c-0.206,0.849-4.753,11.943-5.095,12.295
			c-0.197,0.207-0.999,2.281-0.975,2.358c0.076,0.186,2.582,1.448,2.715,1.65c0.117,0.183-2.372,7.686-2.495,8.154
			c-0.046,0.145-0.082,0.345-0.129,0.491c-0.071,0.129-2.097-0.384-2.243-0.386c-0.158,0.006-1.831,0.886-2.601,1.022
			c-0.379,0.08-4.464-1.916-4.688-2.128C236.577,197.892,237.409,194.008,237.438,193.38z"/>
	</g>
	<path fill="#FF0000" d="M147.587,120.483c0.008,0.054,0.041,0.08,0.062,0.128c0.009,0.053-0.012,0.116-0.005,0.164
		c0.017,0.106,0.044,0.223,0.059,0.318c0.032,0.236,0.007,0.508-0.008,0.747c-0.024,0.245-0.028,0.469-0.077,0.701
		c-0.059,0.259-0.069,0.497-0.092,0.748c-0.122,0.892-0.054,1.842-0.148,2.746c-0.051,0.458,0.177,1.467,0.184,1.941
		c0.007,0.463-0.26,0.324-0.309,0.778c-0.023,0.247-0.08,0.491-0.117,0.747c-0.014,0.099-0.031,0.21-0.152,0.212
		c-0.139,0.007-0.166-0.129-0.209-0.224c-0.104-0.182-0.207-0.289-0.115-0.514c0.064-0.198,0.559-2.625,0.607-3.041
		c0.023-0.21,0.02-0.433,0.017-0.638c0.011-0.21,0.021-0.422,0.018-0.64c-0.003-0.209-0.007-0.426-0.01-0.637
		c-0.002-0.13-0.03-0.245-0.032-0.368c-0.002-0.147,0.028-0.361-0.054-0.48"/>
	<path d="M119.228,106.71l-0.021-0.047c-2.431-0.013-2.538-3.422-4.472-4.725c-2.293-1.501-3.399-2.015-4.711-4.307
		c-1.625-2.856-4.877-4.942-4.353-8.062c0.433-2.486,1.036-5.355,3.259-7.092c1.773-1.405,3.941-2.641,6.215-3.347
		c0.412-0.156,0.96-0.266,1.529-0.343c0-0.039,0.034-0.06,0.034-0.06c0.136,0.006,0.17-0.002,0.224-0.003
		c-3.191-2.093-11.254-1.959-11.254-1.959l-3.88,1.244l-3.679,0.695l-5.817,4.119L74.427,95.128l-42.805,21.423
		c0,0,3.152,10.552,5.441,15.157c2.627,5.235,5.191,11.095,8.912,15.904c4.094,5.32,9.399,8.021,14.789,11.923
		c4.196,3.029,7.646,7.591,12.716,9.445c5.515-7.575,10.915-15.339,16.982-22.692c6.627-8.012,12.037-17.075,17.95-25.663
		c2.549-3.704,5.292-7.028,8.125-10.629c0.453-0.572,1.65-2.43,2.174-2.732c0.324-0.179,0.534-0.299,0.703-0.39
		C119.371,106.802,119.311,106.775,119.228,106.71z"/>
	<path d="M135.255,55.46c-1.312-2.59-2.794-5.093-4.374-7.531c-0.854,0.228-1.567,0.64-2.396,0.915
		c-1.238,0.411-2.561,0.504-3.816,0.893c-1.928,0.572-3.906,1.156-6.015,1.528c-1.345,0.237-2.601,0.582-3.913,0.925
		c-1.43,0.377-2.993,0.589-4.422,1.013c-2.357,0.685-4.841,1.15-7.144,1.976c-5.157,1.848-10.633,3.034-15.443,5.607
		c-5.606,2.989-11.851,4.27-17.39,7.432c-2.162,1.237-4.476,2.277-6.699,3.406c-1.335,0.679-3.239,1.34-3.789,2.918
		c-0.836,2.384,0.914,2.84,2.791,3.393c2.119,0.632,4.297,1.209,6.439,1.816c3.842,1.089,7.939,2.111,11.736,2.477
		c4.328,0.41,8.416,0.51,12.658,0.831c2.811,0.21,5.336,0.371,7.985,0.883c1.68,0.332,3.659,0.175,5.385,0.064
		c0.819-0.046,1.55-0.294,2.253-0.646c0.461-0.239,0.949-0.719,1.512-0.736l5.488-4.974c0.078,0.035,0.146,0.077,0.217,0.114
		c0.002-1.022-1.946-2.072-2.615-2.696c-0.799-0.771-1.275-2.026-2.277-2.547c-1.057-0.551-2.381,0.111-3.524,0.036
		c-0.571-0.025-1.089-0.255-1.655-0.302c-0.609-0.051-1.293,0.009-1.957-0.077c-2.408-0.27-5.053-0.217-7.562-0.079
		c-1.586,0.077-3.109,0.28-4.68,0.176c-1.22-0.072-2.135-0.141-3.447,0.091c1.758-0.2,3.425-1.356,4.984-2.065
		c1.416-0.644,2.907-0.914,4.398-1.423c4.508-1.534,9.105-2.689,13.633-3.928c2.459-0.663,4.923-1.311,7.383-1.957
		c1.44-0.392,2.916-0.625,4.34-1.006c1.249-0.345,2.477-0.663,3.762-0.89c1.933-0.336,3.548-1,5.354-1.669
		c0.941-0.339,1.949-0.69,2.904-0.981c0.222-0.069,0.561-0.192,0.914-0.308C135.964,57.239,135.683,56.309,135.255,55.46z"/>
	<path d="M141.082,57.734c-0.112-0.472-0.58-0.987-0.733-1.514c-0.178-0.634-0.362-1.221-0.523-1.787
		c-0.445-1.616-0.984-2.871-2.079-4.152c-1.564-1.853-2.887-3.786-4.899-5.259c-1.188-0.875-2.49-0.416-3.623,0.584
		c-0.649,0.58-0.496,0.796-0.195,1.609c0.254,0.715,0.389,1.56,0.797,2.202c-0.04,0.009-0.074,0.023-0.115,0.032
		c1.533,2.442,2.969,4.947,4.233,7.538c0.429,0.874,0.698,1.825,1.005,2.749c0.465-0.143,0.939-0.263,1.198-0.218
		c0.258,2.333,1.718,0.921,2.917,0.246C140.032,59.217,141.41,59.132,141.082,57.734z"/>
	<path fill="#245977" d="M175.521,70.209c-3.855-7.566-14.861-10.714-20.51-8.626c-0.965,0.356-3.347,1.055-3.077,0.889
		c0,0-9.739,6.247-10.972,7.445c-1.447,1.403-4.177,6.586-4.177,6.586c0.05,0.074-1.185,3.868-1.461,5.469
		c-0.188,1.062-0.434,4.26,1.321,7.006c2.099,3.292,8.777,6.936,13.495,7.072c2.146,0.062,13.431-4.623,15.272-5.079
		C166.719,90.646,182.531,83.972,175.521,70.209z"/>
	<path fill="#FD1813" d="M141.36,83.996c-0.166,1.13-1.613,1.613-2.109,2.593c-0.434,0.896-0.416,1.174,0.335,1.87
		c0.882,0.834,1.908-0.043,2.749-0.531c0.99-0.571,1.359-0.021,2.427,0.018c-0.046-0.351-0.222-2.143-0.909-3.09
		c-0.784-1.07-2.342-1.188-2.709-0.815"/>
	<path fill="#245977" d="M148.653,48.067c0.334-1.002,0.658-2.038,0.785-3.068c0.192-1.553,0.25-3.117,0.455-4.654
		c0.414-3.093,0.843-6.225,0.879-9.336c0.021-2.009,0.143-4.008,0.049-5.994c-0.027-0.579-0.054-3.1-0.84-3.282
		c-1.729-0.401-2.666,10.629-2.979,11.902c-0.462,1.878-0.407,3.86-0.895,5.734c-0.447-0.009-0.869-0.318-1.383-0.271
		c-0.506,0.047-1.288,0.464-1.529,0.923c-0.302,0.573-0.122,1.214,0.303,1.625c0.416,0.403,1.075,0.504,1.451,0.911
		c-0.877-0.149-1.854-0.376-2.367,0.552c-0.412,0.75-0.141,2.618,0.947,2.717c-0.553-0.079-1.133-0.219-1.682-0.11
		c-0.479,0.095-0.887,0.407-1.352,0.55c-0.641,0.198-1.314,0.166-1.972,0.082c-0.212-0.027-0.713-0.207-0.862-0.024
		c-0.127,0.156-0.113,0.454-0.094,0.642c0.068,0.674,0.22,1.321,0.468,1.951c0.278,0.706,0.368,1.47,0.554,2.2
		c0.14,0.55,0.255,1.103,0.408,1.649c0.143,0.501,0.197,0.999,0.258,1.495c0.02,0.156,0.016,0.326,0.051,0.49
		c0.129,0.613,1.105,0.394,1.552,0.273c0.616-0.167,1.169-0.516,1.726-0.819c0.613-0.335,1.271-0.365,1.9-0.617
		c0.521-0.209,0.954-0.528,1.495-0.718c1.344-0.47,1.964-2.684,2.382-3.939C148.456,48.647,148.556,48.359,148.653,48.067z"/>
	<path fill="#245977" d="M150.751,63.929c-0.005,0.098-0.037,0.125-0.119,0.091c-0.424-1.019-1.043-1.568-2.268-1.67
		c-1.115-0.087-2.469,0.661-3.29,1.352c-1.454,1.225-3.437,2.266-3.597,4.292c0.439,0.293,0.801,0.758,1.316,0.742
		c0.358-0.005,0.75-0.221,1.067-0.342c0.501-0.17,1.001-0.347,1.495-0.531c1.504-0.551,3.923-0.989,4.766-2.394"/>
	<path fill="#245977" d="M169.415,88.689c0.056,0.046,0.062,0.093,0.035,0.142c0.773,0.282,0.455,1.338,0.049,1.813
		c-0.584,0.681-1.475,0.965-2.243,1.386c-0.728,0.396-1.497,0.838-2.272,1.108c-0.777,0.274-1.68-0.003-2.463-0.087
		c-0.76-0.084-1.465-0.006-1.582-0.88c-0.101-0.855,1.23-0.935,2.002-1.116c1.328-0.32,2.58-0.582,3.864-1.037
		c0.853-0.297,1.577-0.878,2.423-1.118"/>
	<path d="M144.798,84.869c2.74,0.625,4.781,1.791,5.936,4.458c0.505,1.167-2.089,5.276,3.535,5.207
		c-2.014,1.163-6.389,1.215-7.971-0.053c-1.871-1.499-3.4-3.393-3.393-5.683c0.002-1.244,0.973-3.596,0.973-3.596
		s-3.198-0.867-4.456-1.834c-1.456-1.121-1.624-8.673-0.405-10.784c0.735,5.043-0.438,2.488,3.707,3.438
		c2.236,0.523,2.848,6.412,2.178,8.142C144.827,84.08,144.798,84.869,144.798,84.869z"/>
	<path d="M152.632,66.673c-0.046,0.042-0.046,0.062,0.017,0.054c0.781-0.473,1.765-0.115,2.581-0.067
		c0.938,0.076,1.859-0.064,2.709,0.397c0.65,0.352,1.262,0.838,1.641,1.471c0.221,0.392,0.285,0.608,0.183,1.029
		c-0.089,0.37-0.304,0.515-0.462,0.816c0.517-0.346,1.051-0.647,1.533-1.021c0.261-0.208,0.488-0.489,0.723-0.718
		c0.175-0.171,0.458-0.421,0.455-0.659c-0.187-0.031-0.381,0.109-0.572,0.131c-0.148,0.029-0.311,0.004-0.473,0.049
		c-0.457-0.564-0.447-1.645-0.613-2.317c-0.262,0.183-0.475,0.526-0.759,0.625c-0.551-0.557-1.269-0.851-1.972-1.139
		c-0.555-0.23-1.096-0.473-1.682-0.656c-0.142,0.134-0.018,0.545,0.086,0.687c-0.316,0.249-0.65,0.286-1.035,0.36
		c-0.34,0.067-0.623,0.194-0.94,0.252c-0.712,0.126-1.258,0.447-1.904,0.836c0.094-0.099,0.25-0.072,0.36-0.053"/>
	<path d="M164.856,78.647c0.016,0.131,0.574-0.253,0.722-0.311c0.338-0.152,0.65-0.205,1.016-0.21
		c0.497-0.022,1.265-0.06,1.663,0.282c-0.236,0.152-0.561,0.218-0.803,0.375c1.2,0.255,1.977,1.312,2.486,2.329
		c-0.259-0.056-0.722-0.212-0.942-0.012c-0.013,0.223,0.032,0.436,0.036,0.672c0.029,0.305-0.033,0.578-0.062,0.892
		c-0.029,0.307,0.031,0.657-0.073,0.973c-0.093,0.258-0.245,0.465-0.362,0.704c0.07-0.19-0.016-0.386-0.118-0.561
		c-0.184,0.049-0.239,0.362-0.341,0.508c-0.131,0.211-0.305,0.397-0.424,0.617c-0.252,0.458-0.544,0.878-0.945,1.236
		c-0.745,0.691-1.266,0.875-1.132,0.738c0.167-0.161,1.747-1.419,1.754-3.498c0.001-0.49,0.028-1.014-0.034-1.48
		c-0.068-0.489-0.096-1.1-0.363-1.572c-0.258-0.439-0.61-0.902-1.083-1.16c-0.431-0.238-0.91-0.028-1.366,0.021
		c0.155-0.043,0.292-0.086,0.357-0.222"/>
	<path fill="#FF0000" d="M147.88,71.784c-0.162,0.644-0.678,1.058-1.148,0.942c-0.525-0.116-1.165-0.56-0.892-1.346
		c0.151-0.463,0.43-0.843,0.809-1.058C146.917,70.163,148.038,71.173,147.88,71.784z"/>
	<path fill="#FF0000" d="M157.948,90.692c-0.523,0.383-1.183,0.393-1.488,0.009c-0.331-0.436-0.547-1.173,0.154-1.618
		c0.424-0.258,0.863-0.374,1.3-0.305C158.227,88.829,158.453,90.312,157.948,90.692z"/>
	<path d="M151.327,63.727c-0.041-0.014-0.176-0.503-0.326-0.592c-0.191-0.106-0.495-0.155-0.707-0.161
		c-0.237-0.007-0.469,0.082-0.699,0.101c-0.279,0.042-0.531,0.055-0.754,0.24c0.143,0.107,0.441-0.164,0.596-0.198
		c0.226-0.029,0.531-0.049,0.729,0.06c0.189,0.104,0.408,0.266,0.518,0.456c0.184,0.299-0.015,0.415-0.068,0.68
		c0.148-0.09,0.698-0.185,0.698-0.402"/>
	<path d="M145.784,65.053c-0.008,0.082-0.191,0.217-0.251,0.306c-0.083,0.121-0.164,0.229-0.246,0.351
		c-0.161,0.212-0.421,0.496-0.487,0.763c-0.096,0.367,0.135,0.604,0.474,0.521c0.164-0.026,0.251-0.072,0.368-0.195
		c0.095-0.103,0.156-0.394-0.096-0.251c0.107,0.21-0.272,0.402-0.407,0.23c-0.15-0.189,0.108-0.476,0.19-0.651
		c0.096-0.211,0.557-0.83,0.407-1.04c-0.062,0.02-0.122,0.068-0.149,0.128"/>
	<path d="M168.524,89.588c0.149,0.031,0.463,0.054,0.486,0.303c0.021,0.155-0.191,0.342-0.278,0.447
		c-0.105,0.15-0.269,0.27-0.409,0.387c-0.08,0.067-0.182,0.089-0.256,0.152c-0.094,0.083-0.154,0.179-0.268,0.228
		c0.323-0.194,0.523-0.435,0.758-0.695c0.059-0.07,0.239-0.249,0.189-0.359c-0.055-0.146-0.327-0.116-0.422-0.045
		c0.246-0.073,0.146-0.356,0.41-0.366"/>
	<path d="M165.208,92.266c0.002,0.168-1.207,0.255-1.424,0.23c-0.149-0.019-0.219-0.038-0.348-0.104
		c-0.068-0.039-0.145-0.081-0.228-0.097c-0.046-0.014-0.237-0.011-0.264-0.04c-0.2-0.178,0.127-0.163,0.194-0.171
		c0.121-0.022,0.242-0.106,0.346-0.108c-0.016-0.033-0.043-0.071-0.076-0.091c-0.231,0.042-0.406,0.086-0.602,0.252
		c0.119,0.325,0.738,0.411,1.043,0.371c0.205-0.016,0.436-0.041,0.645-0.064c0.199-0.016,0.478,0.007,0.653-0.082"/>
	<path d="M152.542,68.666c0.028,0.209,1.689,0.444,2.027,0.608c0.697,0.337,1.249,0.968,1.598,1.669
		c0.352,0.714,0.172,1.376,0.156,2.138c-0.006,0.488,0.144,1.541-0.252,1.912c0.025-0.611-0.08-1.303-0.129-1.927
		c-0.053-0.74-0.365-1.258-0.756-1.897c-0.389-0.64-0.669-1.092-1.266-1.469c-0.459-0.285-0.951-0.55-1.377-0.865
		c0.073-0.007,0.121,0.027,0.144,0.102c-0.04,0.055-0.087,0.097-0.162,0.12"/>
	<path d="M159.805,80.176c1.278,0.647,2.674,1.286,3.287,2.731c0.499,1.147,0.688,2.448-0.035,3.593
		c0.091-1.216-0.249-2.624-0.795-3.724c-0.259-0.533-0.622-1.077-1.036-1.487c-0.391-0.393-0.918-0.609-1.346-0.999
		c-0.011,0.149,0.039,0.272,0.115,0.388"/>
	<path d="M155.011,70.275c-0.007,0.027-0.02,0.06-0.031,0.101c-0.347-0.395-0.972,0.034-1.041,0.43
		c-0.076,0.388,0.21,1.309,0.699,1.349c0.402,0.035,0.971-0.484,1.026-0.878c0.049-0.388-0.337-1.233-0.853-1.135"/>
	<path d="M162.777,83.211c0.048,0.081,0.056,0.081,0.013,0.012c-0.271-0.45-0.424-0.707-0.963-0.8
		c-0.489-0.089-0.729,0.241-0.586,0.728c0.094,0.326,0.483,0.959,0.861,0.954c0.125-0.002,0.533-0.26,0.628-0.362
		c0.208-0.234,0.077-0.371,0.161-0.697c-0.076-0.013-0.158-0.024-0.226-0.01"/>
	<path d="M149.187,79.292c0.222,0.278-0.009,0.891,0.024,1.237c0.054,0.367,0.173,0.732,0.24,1.09
		c0.14,0.705,0.487,1.216,1.117,1.569c0.321,0.17,0.696,0.274,1.069,0.321c0.082-0.001,0.342-0.058,0.402-0.007
		c0.207,0.155,0.049,0.11,0.105,0.299c0.149,0.419,0.271,1.301,0.982,1.169c-0.143-0.459-0.114-1.323-0.552-1.548
		c-0.302-0.158-0.663-0.147-0.983-0.333c-0.303-0.172-0.59-0.36-0.858-0.6c-0.488-0.447-1.014-1.064-1.166-1.707
		c-0.089-0.422-0.243-1.212-0.086-1.624c0.083,0.102,0.065,0.169,0.052,0.305"/>
	<path d="M160.141,81.312c0.057,0.165,0.438,0.287,0.603,0.455c0.209,0.219,0.39,0.476,0.556,0.718
		c0.229,0.34,0.466,0.699,0.655,1.071c0.475,0.937-0.01,2.14-0.473,3.015c0.613-0.307,0.326-2.246,0.178-2.733
		c-0.136-0.393-0.311-0.771-0.459-1.149c-0.142-0.338-0.453-0.7-0.539-1.039"/>
	<path d="M155.938,74.235l0.103,0.017c-0.308-0.925-0.728-1.856-1.437-2.538c-0.779-0.757-1.809-1.014-2.873-0.733
		c0.286-0.098,0.94,0.124,1.227,0.233c0.485,0.185,0.858,0.483,1.262,0.81c0.408,0.356,0.65,0.717,0.948,1.162
		c0.155,0.229,0.307,0.415,0.46,0.658c0.125,0.209,0.311,0.344,0.416,0.553c0.188-0.112,0.131-0.384,0.025-0.56"/>
	<path fill="#FF0000" d="M147.237,119.944c0.35,0.118,0.562,1.155,0.602,1.52c0.072,0.652,0.007,1.358,0.017,2.017
		c0.023,1.589-0.233,3.115-0.209,4.72c0.021,1.425,0.144,4.218-1.05,1.162c-0.268-0.66-1.055-7.484-1.467-8.145
		c-0.347-0.565-0.909-0.795-1.146-1.361"/>
	<path d="M126.366,83.64c-1.088,1.181-10.45-7.138-11.975-8.292c-0.543-0.412-1.637-1.757-2.354-1.694
		c-0.393,0.033-1.85,1.328-2.284,1.586c-1.142,0.681-4.326,2.05-4.815,3.279c0.83,0.568,2.017,0.893,2.914,1.383
		c0.879,0.481,1.886,1.141,2.783,1.482c1.797,0.68,3.897,1.229,5.766,2.045c1.649,0.722,2.792,2.409,4.641,1.809
		c1.76-0.568,3.689-1.207,5.258-2.019c0.104-0.206,0.12-0.425,0.051-0.651"/>
	<g>
		<path fill="#FF0000" d="M112.056,81.485c0.337-0.221,0.67-0.445,1.002-0.671c1.023-0.704,2.062-1.353,3.146-1.957
			c0.562-0.312,1.125-0.622,1.688-0.934c-0.442-0.362-0.87-0.718-1.265-1.044c-0.678,0.367-1.354,0.736-2.025,1.115
			c-1.091,0.617-2.17,1.251-3.21,1.952c-0.405,0.274-0.782,0.575-1.161,0.881c0.08,0.034,0.159,0.073,0.236,0.103
			C110.978,81.123,111.511,81.305,112.056,81.485z"/>
		<path fill="#FF0000" d="M117.019,83.404c0.889-0.628,1.822-1.199,2.744-1.772c0.528-0.328,1.059-0.651,1.591-0.968
			c-0.54-0.407-1.094-0.836-1.643-1.27c-0.402,0.233-0.805,0.465-1.201,0.708c-1.043,0.631-2.101,1.259-3.099,1.955
			c-0.179,0.124-0.354,0.254-0.527,0.389c0.456,0.166,0.91,0.338,1.348,0.532C116.507,83.097,116.767,83.244,117.019,83.404z"/>
		<path fill="#FF0000" d="M119.139,84.713c0.525,0.211,1.087,0.283,1.735,0.074c1.459-0.474,3.033-0.994,4.422-1.622
			c-0.49-0.184-1.139-0.554-1.871-1.032C121.991,82.985,120.562,83.846,119.139,84.713z"/>
		<path fill="#FF0000" d="M108.152,79.716c0.315-0.213,0.626-0.437,0.935-0.654c0.962-0.673,1.993-1.226,3.029-1.772
			c1.025-0.542,2.062-1.062,3.1-1.588c-0.447-0.37-0.789-0.652-0.994-0.807c-0.154-0.119-0.352-0.309-0.572-0.521
			c-1.027,0.516-2.062,1.015-3.082,1.545c-0.971,0.505-1.898,1.051-2.798,1.674c-0.565,0.391-1.133,0.782-1.728,1.126
			c0.562,0.238,1.146,0.458,1.641,0.729C107.835,79.532,107.995,79.625,108.152,79.716z"/>
	</g>
	<path fill="#FFFFFF" d="M134.979,47.024c0.047,0.03,0.11,0.041,0.163,0.042c0.253-0.412,0.524-0.772,0.833-1.141
		c0.283-0.341,0.422-0.767,0.748-1.05c0.136,0.115,0.186,0.343,0.275,0.493c0.145,0.241,0.318,0.467,0.466,0.708
		c0.327,0.528,0.622,1.11,0.895,1.672c0.682,1.406,1.28,2.847,1.955,4.253c0.433,0.904,0.796,1.878,1.241,2.714
		c0.327,0.615,0.721,1.181,0.744,1.903c-0.453,0.133-1.188,0.311-1.662,0.282c-0.335-0.021-0.557-0.359-0.729-0.635
		c-0.617-1.009-0.958-2.17-1.529-3.212c-0.755-1.376-1.508-2.751-2.162-4.18c-0.26-0.562-0.838-1.164-0.984-1.737"/>
	<path d="M129.36,48.113c0.137,0.047,0.271,0.194,0.389,0.278c0.154,0.111,0.299,0.236,0.446,0.36
		c0.308,0.254,0.632,0.496,0.86,0.822c0.383,0.544,0.666,1.151,1.017,1.717c0.159,0.252,0.272,0.528,0.429,0.781
		c0.098,0.162,0.218,0.296,0.29,0.468c0.529,1.224,0.952,2.529,1.288,3.816c0.207,0.786,0.543,1.574,0.558,2.407
		c-0.095,0.064-0.166,0.063-0.276,0.093c-0.205,0.054-0.364,0.17-0.549,0.271c-0.199,0.112-0.409,0.212-0.616,0.314
		c-0.331,0.162-0.642,0.38-0.979,0.526c-1.53,0.656-3.107,1.238-4.783,1.37c-1.62,0.125-3.217,0.491-4.833,0.664
		c-0.729,0.076-1.454,0.201-2.167,0.21c-0.002-0.333,0.016-0.72,0.002-1.08c-0.021-0.672-0.154-1.394-0.369-2.032
		c-0.56-1.658-1.414-3.162-2.426-4.58c-0.506-0.709-1.087-1.449-1.752-2.013c-0.237-0.201-0.48-0.417-0.754-0.566
		c-0.119-0.065-0.586-0.224-0.582-0.361c0.327-0.105,0.67-0.158,1.024-0.215c0.368-0.06,0.683-0.153,1.048-0.212
		c1.186-0.191,2.371-0.382,3.557-0.573c0.723-0.116,1.387-0.302,2.068-0.551c0.533-0.194,1.152-0.204,1.693-0.347
		c0.561-0.149,1.16-0.15,1.725-0.286c0.33-0.08,0.646-0.228,0.97-0.322c0.353-0.103,0.708-0.191,1.063-0.276
		c0.222-0.054,0.427-0.142,0.656-0.182c0.191-0.033,0.41-0.08,0.595-0.138c0.14-0.043,0.63-0.094,0.696-0.19
		c-0.042-0.008-0.086-0.003-0.129,0.012"/>
	<g>
		<path fill="#FF0000" d="M122.978,61.817c0.884-0.118,1.768-0.27,2.65-0.397c0.047-0.285,0.085-0.569,0.105-0.852
			c0.154-2.091-0.205-4.277-0.959-6.23c-0.377-0.973-0.879-1.84-1.562-2.635c-0.503-0.587-1.055-1.132-1.641-1.636
			c-0.535,0.175-1.069,0.319-1.638,0.411l-0.356,0.057c0.41,0.409,0.793,0.839,1.137,1.307c0.795,1.08,1.334,2.309,1.684,3.6
			c0.477,1.762,0.673,3.653,0.63,5.473C123.021,61.213,123.001,61.515,122.978,61.817z"/>
		<path fill="#FF0000" d="M131.487,60.066c0.16-0.066,0.319-0.131,0.479-0.199c0.122-0.053,0.233-0.119,0.348-0.182
			c0.027-1.628-0.099-3.257-0.441-4.853c-0.51-2.367-1.5-4.578-2.934-6.504c-0.098,0.018-0.187,0.034-0.232,0.05
			c-0.185,0.058-0.405,0.104-0.597,0.138c-0.133,0.022-0.259,0.061-0.384,0.101c0.867,1.125,1.595,2.375,2.186,3.65
			C130.976,54.567,131.793,57.44,131.487,60.066z"/>
		<path fill="#FF0000" d="M126.823,55.205c0.158,0.564,0.266,1.145,0.361,1.723c0.227,1.4,0.378,2.84,0.372,4.268
			c0.473-0.055,0.934-0.147,1.393-0.264c0.217-1.382,0.257-2.797,0.151-4.192c-0.15-1.983-0.555-4-1.416-5.8
			c-0.335-0.701-0.76-1.383-1.277-1.969c-0.007,0.001-0.013,0.002-0.018,0.005c-0.324,0.094-0.64,0.239-0.971,0.319
			c-0.564,0.139-1.163,0.138-1.724,0.286c-0.108,0.029-0.222,0.049-0.333,0.07c1.12,0.951,1.957,2.268,2.606,3.548
			C126.295,53.843,126.632,54.505,126.823,55.205z"/>
		<path fill="#FF0000" d="M121.032,62.054c0.242-0.027,0.484-0.056,0.726-0.085c-0.04-2.162-0.319-4.365-1.058-6.403
			c-0.678-1.876-1.806-3.651-3.574-4.635l-0.524,0.084c0.862,1.049,1.55,2.235,2.122,3.467c0.918,1.984,1.635,4.071,2.076,6.212
			C120.892,61.142,120.971,61.595,121.032,62.054z"/>
	</g>
	<g>
		<path d="M149.981,223.191c-1.014,1.092-4.774-1.1-6.334-0.729c-0.896,0.222-3.895,0.345-2.605,0.038
			c1.294-0.31,3.53-0.126,4.596-0.182c0.867-0.045,5.776,0.964,6.561,1.228c1.89,0.619,2,1.887,0.521,2.265
			c-1.349,0.358-11.404-0.358-10.633,1.306c1.229-0.016,2.319,0.683,3.597,0.755c1.342,0.062,3.804,0.27,5.094,0.804
			c1.117,0.464,4.502,4.04,3.301,3.503c-3.05-1.367-6.713-1.396-7.762-1.516c-1.346-0.155-2.514-0.783-3.973-0.704
			c-2.271,0.141-2.13,0.811-0.785,1.632c1.777,1.079,2.886,0.69,3.589,1.958c0.194,0.363,1.198,2.905,1.249,3.464
			c-2.207,0.557-4.318-1.286-6.307-1.89c-1.644-0.507-2.934-1.906-4.723-2.244c-2.051-0.369-3.572,1.467-4.327,2.682
			c-1.012,1.617-0.981,2.559-3.86,2.766c-1.368-2.271,1.823-5.075,0.63-7.287c-0.274-0.53-0.929-0.866-1.63-1.162
			c-2.132-2.046-3.242-5.152,0.14-6.872c1.672-0.855,1.37-2.848,3.548-3.208c0.322-0.054,0.66-0.083,1.007-0.125
			c0.896,0.431,1.755,0.969,2.648,1.263c1.358,0.454,2.801-0.031,4.136-0.502c2.832-1.005,8.219,0.395,11.502,0.349
			C150.87,220.747,151.408,221.656,149.981,223.191z"/>
		<path d="M119.847,217.283c0.449-8.562,1.113-17.222,1.986-25.571c1.899-6.257,5.52-12.28,9.661-17.809
			c1.3-1.736,2.681-3.457,4.139-5.143c3.231,7.398,0.593,17.703,0.177,25.659c-0.281,5.366-0.656,10.646-1.604,15.872
			c-0.412,2.3,0.127,3.836,1.006,5.805c1.195,2.706,0.158,2.899-2.464,4.771c-3.189,2.28-6.198,6.349-10.514,7.26
			c-3.875,0.809-2.896-1.494-2.744-4.046C119.618,221.818,119.728,219.559,119.847,217.283z"/>
		<path fill="#FFFFFF" d="M123.288,230.699c0.89-0.228,2.282-1.632,3.178-2.129c1.265-0.704,2.461-1.507,3.67-2.25
			c1.614-0.993,4.389-3.9,6.434-4.174c0.117-0.677-1.508-1.809-2.357-2.046c-2.502,1.499-4.805,3.163-7.471,4.53
			c-2.609,1.338-3.721,2.784-3.105,5.167c-0.21-0.066-0.423-0.127-0.641-0.177"/>
		<path d="M119.237,222.822c0.17-0.079,0.428-0.115,0.619-0.141c0.34-0.048,0.577-0.097,0.883-0.239
			c0.928-0.432,1.896-0.759,2.861-1.143c0.658-0.262,1.355-0.455,2.021-0.706c0.718-0.27,1.355-0.619,2.008-0.97
			c1.189-0.639,2.245-1.382,3.371-2.083c1.064-0.662,2.272-1.435,3.061-2.29c0.283-0.309,0.768-0.637,0.852-1.02
			c0.125-0.571,0.064-1.208,0.094-1.789c0.044-0.815,0.054-1.639,0.199-2.441c0.133-0.736,0.034-1.498,0.168-2.231
			c0.114-0.629,0.133-1.251,0.266-1.876c0.115-0.555,0.229-1.128,0.275-1.697c0.025-0.299-0.002-0.607,0.049-0.904
			c0.033-0.197,0.112-0.358,0.082-0.568c-0.186,0.102-0.336,0.256-0.562,0.335c-0.28,0.098-0.586,0.158-0.866,0.265
			c-1.066,0.398-2.12,0.877-3.223,1.218c-0.695,0.21-1.395,0.45-2.106,0.621c-0.675,0.164-1.377,0.229-2.077,0.314
			c-0.471,0.061-0.938,0.118-1.414,0.122c-0.305,0.002-0.596,0.063-0.9,0.017c-0.541-0.082-1.113-0.343-1.605-0.536
			c-0.461-0.186-0.891-0.394-1.307-0.62c-0.379-0.206-0.682-0.458-0.943-0.755c-0.141-0.16-0.272-0.295-0.387-0.467
			c-0.095-0.145-0.168-0.346-0.299-0.472c-0.05,0.198,0.047,0.448,0.034,0.661c-0.017,0.354-0.04,0.699-0.001,1.051
			c0.037,0.312,0.021,0.645,0.034,0.957c0.017,0.403,0.028,0.904-0.067,1.296c-0.182,0.765-0.251,1.57-0.383,2.343
			c-0.127,0.737-0.143,1.525-0.202,2.262c-0.065,0.837-0.271,1.674-0.337,2.512c-0.074,0.933-0.088,1.926-0.268,2.852
			c-0.295,1.511-0.797,3.137-0.172,4.616c0.17,0.397,0.205,0.815,0.268,1.241c0.038,0.014,0.082,0.018,0.125,0.011"/>
		<path fill="#FF0000" d="M135.083,206.926c-1.675,0.527-3.459,0.824-5.223,1.109c-1.231,0.2-2.486,0.321-3.741,0.364
			c-1.391,0.046-2.822,0.017-4.171-0.26c-0.562-0.117-1.123-0.281-1.611-0.516c0-0.009,0.002-0.019,0.005-0.026
			c0.092-0.394,0.082-0.894,0.066-1.294c-0.009-0.21-0.013-0.431-0.019-0.649c0.129,0.093,0.255,0.186,0.398,0.265
			c0.747,0.408,1.646,0.723,2.498,0.981c2.814,0.849,6.07,0.646,8.919-0.043c1.237-0.3,2.471-0.709,3.619-1.226
			c-0.056,0.375-0.124,0.748-0.199,1.112C135.444,206.809,135.262,206.868,135.083,206.926z"/>
		<path fill="#FF0000" d="M118.792,219.389c0.096-0.615,0.243-1.229,0.357-1.822c0.021-0.109,0.035-0.219,0.051-0.327
			c1.115-0.296,2.293-0.457,3.455-0.601c1.52-0.188,3.006-0.387,4.473-0.758c2.693-0.679,5.303-1.539,7.86-2.479
			c-0.009,0.248-0.004,0.51-0.007,0.769C129.832,216.337,124.187,217.648,118.792,219.389z"/>
		<path fill="#FF0000" d="M126.073,214.22c-1.824,0.229-3.656,0.421-5.499,0.526c-0.388,0.021-0.774,0.03-1.161,0.035
			c0.002-0.022,0.004-0.045,0.004-0.068c0.049-0.579,0.158-1.162,0.246-1.74c1.402,0.067,2.793,0.24,4.191,0.358
			c0.83,0.071,1.669,0.125,2.51,0.112c0.801-0.009,1.594-0.088,2.391-0.172c2.112-0.233,4.204-0.558,6.284-0.928
			c-0.015,0.253-0.026,0.506-0.038,0.757C132.016,213.415,129.046,213.845,126.073,214.22z"/>
		<path fill="#FF0000" d="M134.854,210.641c-1.853,0.467-3.794,0.666-5.729,0.776c-2.078,0.118-4.175,0.223-6.258,0.17
			c-1.025-0.027-2.051-0.079-3.055-0.219c0.031-0.48,0.066-0.966,0.146-1.429c0.055-0.328,0.1-0.665,0.148-1.002
			c1.049,0.496,2.169,0.899,3.36,1.163c1.734,0.382,3.589,0.535,5.396,0.471c1.674-0.06,3.34-0.283,4.895-0.784
			c0.531-0.174,1.04-0.378,1.537-0.595c-0.027,0.444-0.016,0.893-0.061,1.335C135.104,210.562,134.983,210.609,134.854,210.641z"/>
	</g>
	<path d="M177.458,84.032c0.605-1.903,2.152-3.334,2.865-5.171c-0.963-0.689-0.391-0.936-0.234-2.14
		c0.148-1.135-0.119-2.102-0.285-3.1c-0.367-2.208-1.02-3.796-2.098-5.77c-0.99-1.819-2.025-3.406-3.615-4.794
		c-1.421-1.244-3.465-3.237-5.443-3.231c0.449-1.534,2.369-2.327,2.878-3.964c0.514-1.66-0.222-3.431-0.731-4.97
		c-0.596-1.795-1.199-3.321-2.308-4.959c-1.021-1.503-2.226-2.946-3.032-4.537c-1.739-3.427-1.051-7.116,1.377-10.074
		c2.158-2.629,6.485-4.129,9.379-1.96c0.506-1.601-2.425-3.333-3.534-3.89c-2.083-1.047-5.058-0.359-7.158,0.671
		c-2.321,1.138-3.88,3.778-5.411,5.735c-1.424,1.819-2.567,3.803-2.515,6.179c0.104,4.737,0.007,9.006,3.94,12.095
		c1.444,1.132,3.346,1.873,4.454,3.391c1.386,1.901,1.326,3.365,1.489,5.669c-1.984-1.544-6.194-1.054-8.422-0.36
		c-1.484,0.463-2.621,1.381-4.023,2.039c-1.055,0.49-2.383,0.958-3.105,1.97l0.823,0.151c0.933-0.156,1.848-0.731,2.818-0.981
		c0.826-0.208,1.72-0.243,2.664-0.256c1.894-0.028,4.034-0.13,5.797,0.557c3.036,1.185,6.013,3.615,7.689,6.405
		c1.813,3.018,2.507,6.748,2.114,10.463c-0.177,1.667-0.871,3.405-1.316,4.993c-0.445,1.586-0.898,2.815-2.217,4.037
		c0.823,0.167,1.996-0.411,2.789-0.643c0.809-0.234,1.414-0.487,2.074-1.107c1.221-1.145,1.644-2.373,2.194-3.771
		C177.358,83.174,177.396,83.611,177.458,84.032z"/>
	<path d="M177.609,83.26c0.297,0.511,0.458,1.09,0.772,1.598c0.334,0.544,0.803,1.001,1.276,1.405
		c0.878,0.749,1.98,1.455,3.049,1.806c2.304,0.754,5.393,0.588,7.715-0.277c2.779-1.038,4.735-3.758,5.085-6.691
		c0.168-1.413,0.406-2.616,0.07-4.049c-0.275-1.177-0.576-2.509-0.493-3.804c0.081-1.251,0.464-2.95,1.399-3.915
		c0.451-0.465,1.355-0.876,1.99-0.979c0.91-0.147,1.391,0.189,2.184,0.389c0.317-0.847-1.791-1.604-2.359-1.688
		c-1.12-0.165-2.619-0.029-3.574,0.415c-2.255,1.042-2.941,3.796-3.096,5.985c-0.166,2.296-0.804,4.698-1.983,6.761
		c-1.374,2.405-4.198,1.19-5.944-0.036c-0.463-0.324-0.859-0.515-1.427-0.642c-0.589-0.133-1.438-0.525-2.05-0.406"/>
	<path d="M145.495,102.696c0.092,0.206,0.428,0.469,0.595,0.644c0.327,0.345,0.741,0.682,1.122,0.974
		c0.461,0.354,0.828,0.772,1.218,1.202c0.564,0.625,1.351,1.136,2.066,1.57c0.738,0.445,1.419,1.014,2.076,1.57
		c0.472,0.398,0.987,0.767,1.429,1.189c0.171,0.164,0.424,0.38,0.525,0.593c0.108,0.23,0.103,0.46,0.138,0.714
		c0.099,0.717,0.141,1.508-0.089,2.212c-0.17,0.521-0.488,0.975-0.764,1.447c-0.457,0.789-1.056,1.51-1.67,2.182
		c-0.896,0.983-1.887,1.876-2.812,2.831c-1.043,1.073-2.105,2.112-3.187,3.147c-0.735,0.706-1.466,1.424-2.237,2.09
		c-0.619,0.535-0.409,1.904-0.978,2.49c-0.507,0.523-1.98,0.314-2.274,0.988c-0.287-0.185-0.279-1.111-0.348-1.435
		c-0.268-1.284-0.479-2.505-0.495-3.824c-0.034-2.71-0.105-5.426-0.187-8.13c-0.062-2.055-0.349-4.084-0.351-6.143
		c-0.001-0.597,0.003-1.227,0.038-1.826c0.014-0.241,0.048-0.491,0.118-0.721c0.071-0.229,0.243-0.438,0.252-0.685l1.396-2.428
		l2.647-0.953L145.495,102.696z"/>
	<path d="M138.829,102.517c0.992-1.005,8.872,6.679,10.164,7.754c0.458,0.381,1.365,1.61,1.992,1.579
		c0.345-0.014,1.663-1.107,2.052-1.32c1.021-0.562,3.85-1.66,4.321-2.729c-0.706-0.532-1.73-0.861-2.496-1.325
		c-0.751-0.457-1.606-1.077-2.378-1.411c-1.545-0.665-3.36-1.224-4.962-2.012c-1.412-0.697-2.352-2.227-3.988-1.765
		c-1.555,0.442-3.263,0.939-4.661,1.6c-0.099,0.179-0.12,0.371-0.067,0.574"/>
	<g>
		<path fill="#FF0000" d="M151.249,104.927c-0.301,0.184-0.603,0.369-0.899,0.557c-0.919,0.587-1.849,1.125-2.817,1.619
			c-0.5,0.256-1.004,0.51-1.506,0.765c0.373,0.335,0.732,0.665,1.066,0.969c0.604-0.299,1.209-0.604,1.809-0.914
			c0.974-0.507,1.939-1.029,2.873-1.613c0.363-0.226,0.703-0.48,1.043-0.738c-0.066-0.033-0.136-0.069-0.203-0.098
			C152.178,105.286,151.718,105.105,151.249,104.927z"/>
		<path fill="#FF0000" d="M146.982,103.056c-0.797,0.522-1.633,0.993-2.458,1.467c-0.473,0.271-0.946,0.54-1.424,0.802
			c0.457,0.377,0.926,0.777,1.389,1.179c0.36-0.192,0.721-0.384,1.076-0.583c0.932-0.52,1.877-1.039,2.773-1.618
			c0.162-0.103,0.318-0.212,0.475-0.325c-0.394-0.164-0.782-0.333-1.158-0.518C147.419,103.344,147.198,103.204,146.982,103.056z"/>
		<path fill="#FF0000" d="M145.178,101.823c-0.452-0.205-0.94-0.288-1.513-0.126c-1.289,0.367-2.682,0.771-3.918,1.277
			c0.424,0.181,0.975,0.53,1.598,0.979C142.626,103.25,143.905,102.54,145.178,101.823z"/>
		<path fill="#FF0000" d="M154.593,106.63c-0.281,0.177-0.563,0.363-0.838,0.544c-0.863,0.559-1.785,1.014-2.707,1.46
			c-0.916,0.442-1.842,0.866-2.764,1.293c0.377,0.343,0.666,0.606,0.839,0.75c0.132,0.108,0.296,0.283,0.481,0.479
			c0.915-0.42,1.838-0.823,2.746-1.256c0.865-0.414,1.695-0.863,2.503-1.381c0.507-0.327,1.017-0.653,1.548-0.936
			c-0.481-0.229-0.985-0.448-1.408-0.703C154.864,106.802,154.729,106.716,154.593,106.63z"/>
	</g>
	<path fill="#FF0000" d="M146.594,129.216c0.347,0.401,0.323,1.107,0.757,1.516c0.42,0.38,1.277,0.485,1.818,0.429
		c1.176-0.125,3.598-1.759,3.598-1.759l0.724-4.338c0,0-2.466,0.063-2.565,0.107c-0.237,0.077-0.421,0.486-0.547,0.693
		c-0.74,1.077-1.61,1.884-2.982,1.919c-0.102,0.001-0.102,0.001,0.027,0"/>
	<path fill="#FF0000" d="M123.624,98.919c-1.619,1.601-1.561,3.236-2.042,5.288c-0.874,3.812-1.464,9.387,0.187,13.105
		c0.914,2.066,2.389,3.408,4.389,4.527c2.309,1.297,4.232,1.276,6.828,1.245c2.267-0.02,4.288-0.797,6.269-1.438
		c1.915-0.62,4.491-0.788,6.108,0.48c0.775,0.601,1.387,1.414,2.102,2.069c-0.117-1.064,0.391-2.146,0.217-3.307
		c-0.137-0.962-0.54-1.229-1.123-2.013c-1.033-1.391-3.938-2.096-5.762-2.28c-4.287-0.425-7.807,1.311-11.881,0.176
		c-1.932-0.534-3.566-3.671-3.419-5.69c0.13-1.732,2.163-3.979,3.188-5.285c0.769-0.977,2.588-2.797,2.588-2.797
		s-0.648-5.807-0.636-6.363C129.625,96.276,125.132,97.446,123.624,98.919z"/>
</g>
</svg>
