<?xml version="1.0" encoding="utf-8"?>
<!-- Generator: Adobe Illustrator 16.0.4, SVG Export Plug-In . SVG Version: 6.00 Build 0)  -->
<!DOCTYPE svg PUBLIC "-//W3C//DTD SVG 1.1//EN" "http://www.w3.org/Graphics/SVG/1.1/DTD/svg11.dtd">
<svg version="1.1" id="Ebene_1" xmlns="http://www.w3.org/2000/svg" xmlns:xlink="http://www.w3.org/1999/xlink" x="0px" y="0px"
	 width="366.036px" height="441.044px" viewBox="0 0 366.036 441.044" enable-background="new 0 0 366.036 441.044"
	 xml:space="preserve">
<g>
	<path fill="#245977" d="M157.533,149.639c0.336,2.763,1.132,5.458,1.36,8.235c0.236,2.87-0.372,3.497-2.849,4.888
		c-0.925,0.519-2.078,0.578-3.123,0.877c-2.95,0.845-4.392,1.843-5.625-1.379c-1.862-4.866-1.849-10.225-1.876-15.359
		c-0.028-5.25-0.843-10.37-1.388-15.58c-0.529-5.054-1.182-10.241-2.208-15.228c-1.807-8.784-3.465-17.517-5.2-26.261
		c-0.1-0.504-0.2-1.009-0.301-1.514c-1.05-5.265-1.698-13.491-5.302-17.732c-2.68-3.153-9.194-4.358-12.941-5.22
		c-1.198-0.275-2.428-0.324-3.638-0.526c-0.396-0.066-0.802-0.053-1.203-0.116c-0.436-0.069-0.907-0.159-1.286-0.398
		c-0.338-0.214-0.604-0.621-0.837-0.944c-0.257-0.354-0.263-0.851-0.263-1.271c0-0.555,0.076-1.106,0.083-1.66
		c0.006-0.453,0.365-0.429,0.741-0.511c1.434-0.312,2.903-0.427,4.355-0.622c1.477-0.198,2.896-0.697,4.352-0.995
		c0.545-0.112,1.03-0.191,1.53-0.458c0.293-0.157,0.577-0.322,0.864-0.482c0.353-0.197,0.382-0.58,0.382-0.96
		c0-0.458,0.04-1.179-0.037-1.602c-0.104-0.57-0.56-1.066-0.849-1.584c-0.683-1.225-1.21-2.543-2.057-3.671
		c-0.728-0.968-1.562-1.812-2.3-2.763c-0.657-0.847-1.185-1.759-1.838-2.626c-1.116-1.48-2.02-3.057-2.833-4.712
		c-0.554-1.127-1.054-3.553,1.009-2.87c1.662,0.55,2.622,2.778,3.528,4.118c1.124,1.661,2.519,3.065,3.638,4.761
		c0.922,1.397,1.939,2.58,3.158,3.703c0.416,0.383,1.139,1.1,1.475,0.466c0.265-0.501,0.027-1.687-0.17-2.17
		c-0.379-0.932-0.967-1.801-1.417-2.698c-0.926-1.846-1.712-3.953-2.269-5.943c-0.585-2.088-1.518-4.055-2.039-6.163
		c-0.146-0.593-1.077-6.229-0.305-6.329c1.707-0.221,2.697,1.867,3.255,3.135c1.077,2.447,1.714,5.088,2.426,7.657
		c0.747,2.697,1.471,5.447,2.64,8c0.387,0.845,3.126,5.662,4.144,3.361c0.312-0.704,0.341-1.642,0.473-2.393
		c0.197-1.125,0.469-2.271,0.462-3.419c-0.015-2.402-0.347-4.603-0.833-6.916c-0.369-1.756-1.135-3.628-0.843-5.458
		c0.181-1.13,1.608-3.34,2.721-1.87c0.569,0.751,0.636,1.802,0.793,2.711c0.197,1.141,0.374,2.281,0.537,3.442
		c0.096,0.687,0.112,1.449,0.308,2.115c0.261,0.888,0.56,1.771,0.802,2.664c0.311,1.149,0.525,2.385,0.677,3.566
		c0.177,1.372,0.495,2.729,0.99,3.987c0.209,0.531,0.487,0.911,1.01,0.422c0.444-0.416,0.512-1.22,0.565-1.782
		c0.071-0.744,0.123-1.487,0.206-2.229c0.09-0.805,0.062-1.604,0.355-2.369c0.227-0.591,0.483-1.216,0.946-1.66
		c0.227-0.218,0.857-0.85,1.203-0.745c0.218,0.441,0.33,1.078,0.403,1.571c0.121,0.822,0.087,1.754,0.048,2.589
		c-0.037,0.811-0.173,1.605-0.255,2.408c-0.043,0.428-0.113,0.864-0.124,1.296c-0.014,0.524,0.058,1.034,0.064,1.554
		c0.009,0.733,0.168,1.519,0.266,2.241c0.143,1.055,0.219,2.141,0.475,3.181c0.287,1.16,0.391,2.382,0.628,3.559
		c0.264,1.308,0.408,2.626,0.63,3.941c0.311,1.838,0.515,3.797,1.198,5.528c0.173,0.437,0.206,0.961,0.299,1.42
		c0.102,0.5,0.209,0.999,0.319,1.498c0.22,0.998,0.452,1.993,0.68,2.989c0.401,1.752,0.792,3.508,1.083,5.282
		c0.992,6.041,2.602,11.979,3.527,18.039c0.66,4.327,0.882,8.625,1.462,12.976c0.673,5.042,1.724,9.875,2.024,15.006
		c0.245,4.171,0.477,8.418,1.014,12.479C157.026,140.602,156.985,145.132,157.533,149.639z"/>
	<path fill="#245977" d="M101.533,158.808c6.682-13.7,19.87,2.722,24.332,8.922c6.651,9.242,13.888,22.757,8.704,34.01
		c-6.224-6.308-11.146-14.294-17.625-20.809c-4.505-4.53-14.594-14.393-10.911-20.623"/>
	<path fill="#FF0000" d="M73.236,166.687c0.704-0.479,1.053-3.061,1.626-4.088c0.773-1.383,1.704-2.614,2.531-4.004
		c2.334,0.319,4.921,4.609,6.394,6.149c2.073,2.166,3.726,5.01,6.013,6.925c2.728,2.286,5.731,4.625,9.059,5.897
		c2.562,0.979,5.585,2.46,8.061,2.896c0.928-6.41-1.475-12.06-3.691-17.832c-1.082-2.818-2.439-5.582-4.066-8.063
		c-1.029-1.569-1.572-3.775-3.01-4.981c1.474,0.123,2.759-1.524,3.843-0.71c0.008,0.006,0.734,1.776,0.804,1.951
		c0.33,0.823,0.58,1.634,1.007,2.451c1.543,2.949,3.754,5.601,5.286,8.518c3.457,6.582,7.687,12.905,11.377,19.422
		c3.973,7.017,5.918,15.403,9.161,22.795c3.314,7.552,5.562,15.476,7.837,23.281c2.414,8.277,3.483,17.139,5.99,25.295
		c1.139,3.707,1.612,7.898,2.541,11.685c1.264,5.147,1.338,10.289,2.023,15.513c0.498,3.798,1.765,7.277,2.54,10.941
		c0.447,2.112,0.645,4.364,1.131,6.528c0.498,2.212,0.183,4.304,0.386,6.537c0.645,7.088,0.747,13.42,4.321,19.521
		c-2.246-2.381-4.437-4.01-7.665-1.994c-3.24,2.021-4.331,5.92-5.481,9.244c-0.733,2.12-1.004,4.401-1.811,6.495
		c-0.915,2.373-2.62,4.454-3.588,6.84c-1.361,3.354-1.644,7.043-2.113,10.588c-0.178,1.344-0.835,2.723-1.23,4.158
		c-0.521,1.893-0.52,3.661-0.804,5.603c-0.088,0.599-0.829,3.423-1.515,3.79c-1.255,0.672-2.269-2.261-2.776-3.384
		c-3.876-8.592-4.145-18.658-7.412-27.59c-1.601-4.378-3.055-8.726-4.982-12.977c-2.359-5.202-3.933-10.377-5.999-15.7
		c-3.278-8.446-6.27-17.097-9.862-25.368c-6.098-14.041-10.271-28.638-13.003-43.036c-0.58-3.059-1.147-6.524-1.129-9.854
		c0.022-4.256,0.428-8.808-0.09-13.012c-0.895-7.249,0.127-14.691,0.09-22.073c-0.017-3.376,0.4-6.899,0.407-10.462
		c0.006-3.288-0.548-6.764-1.527-9.769c-0.806-2.475-2.506-5-3.75-7.3c-0.729-1.347-5.437-5.037-3.792-6.64
		c0.131-0.176,0.307-0.27,0.528-0.285"/>
	<path d="M161.127,399.106c3.649,1.864,7.381,2.939,11.397,2.193c2.057-0.382,4.054-1.023,6.038-1.807
		c2.202-0.871,4.907-1.465,6.923-2.828c4.352-2.942,4.892-7.228,4.892-12.006c0-5.508,0.667-11.568-0.407-16.869
		c-1.134-5.595-0.801-11.357-2.609-16.845c-1.816-5.513-2.724-11.161-3.897-16.836c-0.796-3.854-1.304-7.506-2.411-11.267
		c-1.762-5.986-2.503-12.042-3.589-18.148c-1.788-10.048-3.422-20.046-4.902-30.143c-1.451-9.902-2.174-20.062-4.534-29.803
		c-3.899-16.096-5.883-32.668-7.769-49.015c-0.985-8.543-1.628-17.164-1.603-25.805c-0.167,1.249,0.977,2.466,1.525,3.529
		c1.092,2.114,2.206,4.251,3.445,6.22c1.195,1.902,2.561,3.588,3.661,5.587c1.392,2.529,2.53,5.162,3.966,7.694
		c3.387,5.975,5.419,12.837,8.957,18.768c1.682,2.82,3.074,5.725,4.471,8.745c1.771,3.827,2.734,7.981,4.465,11.835
		c4.15,9.246,7.71,18.609,12.322,27.647c3.944,7.726,6.223,16.259,10.145,24.028c2.035,4.031,4.109,8.005,5.972,12.108
		c0.47,1.036,0.981,2.086,1.495,3.108c1.503,2.996,3.374,5.834,5.096,8.705c1.972,3.287,4.038,6.607,5.652,10.086
		c0.246,0.53,0.41,0.984,0.745,1.448c0.514,0.714,0.438,0.66,1.027,0.238c0.525-0.375,1.006-1.021,1.519-1.48
		c1.015-0.911,2.171-1.596,3.361-2.228c1.884-1,3.779-2.068,5.685-3.045c0.792-0.406,1.881-1.277,2.789-1.34
		c-0.266-0.56-1.027-1.047-1.449-1.519c-0.625-0.7-1.256-1.405-1.917-2.058c-1.584-1.566-2.922-3.136-4.313-4.876
		c-1.155-1.443-2.253-2.954-3.222-4.446c-1.259-1.938-1.738-3.967-2.613-6.052c-1.158-2.761-2.47-5.465-3.667-8.211
		c-2.406-5.522-4.729-11.08-7.121-16.608c-2.393-5.531-4.855-11.034-7.531-16.434c-5.513-11.121-8.026-23.184-12.1-34.885
		c-3.869-11.112-6.434-22.879-11.131-33.562c-3.786-8.61-9.582-16.562-15.362-24.082c-4.81-6.259-10.369-12.423-13.941-19.445
		c-1.399-2.751-2.294-5.386-5.999-3.679c-1.705,0.785-2.759,1.127-4.475,1.637c-2.106,0.627-4.534,1.287-6.527,2.236
		c-3.168,1.509-3.289,4.751-4.35,7.749c-0.658,1.858-0.929,3.327-0.915,5.357c0.022,3.122-0.584,6.187-0.678,9.295
		c-0.077,2.517,0.251,5.113,0.27,7.675c0.028,3.853-0.791,7.593-1.129,11.382c-0.396,4.459-0.09,9.065-0.09,13.538
		c0,6.989,0.521,14.143,1.208,21.057c0.664,6.681,1.117,13.318,1.956,19.949c0.476,3.755,0.906,7.303,0.907,11.117
		c0.001,4.254,0.544,8.155,1.105,12.34c0.462,3.45,0.137,7.165,0.138,10.659c0.001,4.068,0.622,7.741,0.622,11.812
		c0,7.719,0.933,14.883,1.851,22.358c0.439,3.583,0.992,7.018,1.396,10.583c0.356,3.146,2.43,6.357,0.852,9.384
		c-1.493,2.862-3.924,5.564-5.599,8.4c-1.016,1.721-2.114,3.405-2.951,5.243c-1.585,3.477-3.983,6.24-6.285,9.276
		c-0.903,1.191-1.771,2.432-2.616,3.665c-0.769,1.122-1.592,2.201-2.346,3.357c-0.273,0.418-0.535,0.813-0.906,1.154
		c-0.15,0.138-0.37,0.252-0.499,0.403c-0.141,0.164-0.211,0.382-0.366,0.546c0.254,0.73,0.362,1.665,0.509,2.481
		c0.225,1.257,0.505,2.524,0.765,3.798c0.3,1.468,0.769,2.938,1.22,4.379c0.468,1.49,0.952,2.994,1.65,4.383
		c0.677,1.348,1.225,2.814,1.986,4.096c0.688,1.16,1.426,2.291,2.173,3.412c0.868,1.301,1.688,2.652,2.774,3.794
		c0.673,0.706,1.432,1.368,2.15,2.031c0.49,0.454,0.944,0.957,1.462,1.38c0.414,0.338,0.896,0.554,1.317,0.906
		c1.486,1.244,3.013,2.475,4.565,3.582c2.176,1.552,4.855,2.434,7.138,3.822C155.654,395.654,158.205,397.613,161.127,399.106"/>
	<path fill="#245977" d="M66.546,127.248c0.175,0.42,0.357,0.837,0.549,1.251c2.102,4.537,4.83,8.894,6.936,13.452
		c0.421,0.91,1.002,1.888,1.266,2.831c0.705,2.524,1.097,5.153,1.873,7.674c0.951,3.087,2.127,6.241,3.754,9.055
		c0.975,1.685,2.082,3.33,3.139,4.95c1.152,1.768,2.254,3.158,3.813,4.558c3.13,2.811,6.846,4.686,10.403,6.901
		c1.515,0.944,3.146,1.46,4.824,2.041c1.395,0.482,3.051,0.924,4.561,0.73c0.408-1.381-1.032-3.651-1.45-4.957
		c-0.447-1.395-0.762-2.892-1.179-4.277c-0.598-1.987-1.49-3.938-2.281-5.854c-1.197-2.899-2.344-5.785-3.417-8.72
		c-0.466-1.274-0.855-2.556-1.299-3.859c-0.579-1.699-1.047-3.507-1.026-5.309c0.02-1.864-0.413-3.693-0.73-5.527
		c-0.179-1.044-0.666-2.101,0.511-2.693c0.893-0.451,2.513-0.002,3.551-0.209c1.109-0.223,2.251-0.379,3.354-0.647
		c1.255-0.308,1.595-0.625,2.317-1.508c0.791-0.968,1.008-1.915,1.101-3.196c0.112-1.56-0.689-2.917-1.034-4.44
		c-0.204-0.895-0.581-2.3-0.122-3.097c0.527-0.916,1.989-0.918,3.001-1.137c1.756-0.382,3.41-0.799,5.071-1.358
		c1.567-0.525,3.577-0.766,5.282-1.042c1.612-0.26,2.953-0.919,4.511-1.353c2.709-0.754,5.622-0.884,8.275-1.695
		c0.529-0.162,1.14-0.118,1.646-0.317c1.182-0.467,1.469-2.573,1.146-3.812c-0.291-1.114-1.918-2.316-2.676-3.187
		c-2.118-2.43-4.55-4.599-7.083-6.644c-1.33-1.073-2.526-2.273-3.899-3.28c-1.369-1.006-2.73-1.972-4.182-2.904
		c-1.527-0.98-3.101-2.024-4.81-2.578c-0.712-0.23-1.38-0.514-2.068-0.793c-0.731-0.296-1.601-0.329-2.247-0.807
		c0.459-0.889,0.43-1.935,0.938-2.827c0.401-0.704,1.079-1.182,1.491-1.866c1.211-2.01-0.558-3.739-2.277-4.536
		c-1.632-0.756-3.343-1.396-4.825-2.434c-0.741-0.52-1.415-1.14-1.936-1.884c-0.548-0.782-0.817-1.485-1.618-2.08
		c-1.091-0.81-2.146-1.721-3.228-2.55c-1.621-1.242-3.182-2.285-5.02-3.192c-2.259-1.114-4.614-1.782-7.062-2.326
		c-3.997-0.886-8.426-0.943-12.471-0.224c-1.892,0.336-3.815,0.909-5.52,1.801c-1.64,0.858-3.256,1.625-4.408,3.141
		c-0.494,0.65-0.847,1.372-1.298,2.059c-0.74,1.13-1.565,2.29-2.074,3.538c-0.859,2.105-1.268,4.385-1.629,6.604
		c-0.373,2.299-0.156,4.506,0.223,6.8c0.197,1.19,0.256,2.384,0.51,3.571c0.276,1.289,0.644,2.543,0.963,3.816
		c0.596,2.385,1.136,4.852,2.027,7.139c0.312,0.799,0.628,1.605,0.993,2.385c0.307,0.657,0.753,1.212,0.886,1.94
		c0.132,0.72,0.167,1.41,0.462,2.098c0.711,1.657,1.037,3.469,1.545,5.165c0.524,1.752,1.089,3.502,1.784,5.224
		C66.438,126.985,66.49,127.117,66.546,127.248"/>
	<path fill="#FF0000" d="M106.857,130.581c-1.546,0.798-3.218,0.503-4.935-0.148c-0.845-0.323-1.737-0.768-2.502-1.209
		c-0.615-0.354-1.41-1.221-2.128-1.445c1.691,0.751,3.915,1.559,5.64,0.948c0.756-0.268,1.496-1.491,2.376-1.447
		c1.624,0.082,0.798,1.367,0.613,2.039c0.798,0.275,1.43,0.801,0.837,1.481"/>
	<path d="M131.367,118.944c-0.35-0.815-4.363-0.578-5.358-0.687c-2.195-0.244-4.418-0.417-6.579-0.556
		c-2.241-0.141-4.243-0.053-6.279,0.511c-0.894,0.248-4.482,0.768-4.556,1.926c-0.109,1.696,3.897,0.41,4.6,0.241
		c2.125-0.508,4.139-0.805,6.403-0.962c2.206-0.153,4.469-0.323,6.708-0.351c1.499-0.019,3.449-0.316,4.961,0.096"/>
	<path fill="#FFFFFF" d="M93.38,98.626c0,0.157,0.004,0.162,0.014,0.014c-0.54-0.795-1.904-1.475-2.87-1.725
		c-0.984-0.255-1.907,0.154-2.838,0.613c-0.962,0.474-1.659,1.221-2.52,1.806c-0.867,0.59-1.785,0.997-2.548,1.763
		c0.745,0.543,1.815,1.068,2.628,1.48c0.988,0.5,2.305,0.559,3.385,0.237c1.398-0.416,5.063-1.74,4.749-3.809"/>
	<path d="M78.169,100.147c-0.002,0.157-0.005,0.167-0.01,0.028c0.949-2.484,2.789-5.718,5.145-7.058
		c2.095-1.192,4.796-2.218,6.967-0.946c-1.177-0.03-2.12,0.536-3.166,0.983c-1.415,0.604-3.103,1.084-4.368,1.891
		c-1.707,1.092-4.233,3.595-4.568,5.673"/>
	<path d="M82.732,101.859c0.017,0.011,1.229-1.706,1.649-2.082c0.872-0.779,1.841-1.375,2.91-1.768
		c1.025-0.378,1.912-0.68,3.046-0.523c0.392,0.055,0.977,0.044,1.341,0.18c0.4,0.149,0.693,0.459,1.117,0.551
		c-0.63-0.88-1.692-1.449-2.328-2.434c-0.146,0.28,0.086,0.598,0.231,0.912c-1.026,0.322-1.823-1.228-2.803-0.893
		c-0.127,0.437,0.23,0.921,0.474,1.269c-0.726,0.194-1.586-0.223-2.375-0.128c-0.143,0.421,0.154,0.92,0.332,1.264
		c-0.665,0.106-1.931-0.286-2.272,0.409c-0.192,0.391,0.228,0.95-0.219,1.312c-0.244,0.197-1.134,0.015-1.45,0.062
		c-0.665,1.347-0.278,2.148,0.97,2.961c1.209,0.787,2.773,1.598,4.321,1.383c1.572-0.217,3.023-1.023,4.193-2.096
		c0.515-0.471,2.438-3.116,1.169-3.593c0.164,2.028-2.661,4.106-4.411,4.59c-1.207,0.335-2.349,0.147-3.423-0.426
		c-0.66-0.352-2.995-1.178-2.282-2.092"/>
	<path d="M85.775,98.816c0.04,0.051,0.081,0.103,0.121,0.153c-0.939,0.217-1.236,2.108-1.081,2.899
		c0.221,1.128,1.85,2.461,3.051,2.049c1.225-0.421,1.779-2.249,1.526-3.394c-0.168-0.758-2.382-2.314-3.047-1.707"/>
	<path d="M110.035,90.585c0.026,0.035,0.052,0.07,0.079,0.105c-0.275,0.009-0.543-0.322-0.818-0.447
		c-0.371-0.169-0.88-0.239-1.282-0.28c-1.011-0.104-2.107,0.006-3.127,0.006c-0.8,0.001-1.552,0.177-2.273,0.343
		c-0.489,0.112-1.602,0.496-1.809,0.989c0.331,0.003,0.669,0.334,0.976,0.279c0.334-0.059,0.726-0.498,1.11-0.6
		c0.903-0.241,1.918-0.254,2.838-0.368c0.967-0.119,2.086-0.001,2.957,0.438c0.224,0.113,0.655,0.411,0.887,0.372
		c0.382-0.062,0.706-0.652,0.709-1.084"/>
	<path fill="#FFFFFF" d="M107.94,95.515c0.1,0.001,0.104,0.003,0.012,0.006c-0.736-0.362-1.42-0.47-2.203-0.648
		c-0.758-0.173-1.549-0.116-2.357-0.245c0.203-0.601,1.13-1.576,1.741-1.796c0.239-0.086,0.579-0.03,0.835-0.027
		c0.292,0.002,0.494-0.101,0.733-0.13c0.568-0.068,1.09,0.162,1.591,0.148c0.054,0.433,0.017,0.897,0.018,1.338
		c0.001,0.436-0.215,0.966-0.124,1.355"/>
	<path d="M103.38,94.529c0.349-0.173-0.273-0.783-0.354-1.066c0.136,0.122,0.292,0.191,0.456,0.188
		c0.041-0.273,0.002-0.559,0.043-0.831c0.504-0.103,0.248,0.551,0.724,0.106c0.071-0.067-0.029-0.267,0.142-0.346
		c0.337-0.156,0.319,0.31,0.495,0.331c0.362,0.043,0.486-0.445,0.836-0.575c0.556-0.206,0.554,0.273,0.961,0.335
		c0.079-0.225,0.243-0.434,0.425-0.588c0.305,0.117,0.129,0.457,0.432,0.585c0.093-0.225,0.232-0.518,0.502-0.465
		c0.021,0.348,0.202,1.323,0.735,0.859c0.278,0.665-0.651,0.355-0.96,0.358c-0.633,0.004-1.249-0.052-1.848,0.123
		c-0.494,0.145-0.8,0.362-1.2,0.647c-0.235,0.168-0.838,0.819-1.01,0.612c0.823-0.141,1.684,0.006,2.455,0.193
		c0.354,0.085,0.64,0.174,0.983,0.304c0.257,0.097,0.784,0.16,0.946,0.345c-0.543,0.118-1.591-0.371-2.147-0.502
		c-0.664-0.157-1.398-0.12-2.123-0.12"/>
	<path d="M104.49,95.022c0.441-0.372,0.724-1.197,1.383-1.454c0.491-0.19,1.868-0.147,2.166,0.37
		c0.122,0.212,0.078,1.019-0.062,1.217c-0.197,0.279-0.825,0.282-1.145,0.236c-0.697-0.1-1.467-0.444-2.219-0.369"/>
	<path fill="#FFFFFF" d="M62.215,113.857c-0.002,0.105-0.001,0.112,0.003,0.019c0.047-0.433-0.456-0.947-0.644-1.321
		c-0.255-0.51-0.458-1.096-0.665-1.626c-0.501-1.279-1.057-2.546-1.533-3.826c-0.943-2.539-2.015-5.101-2.673-7.763
		c-0.825-3.337-0.861-6.74-0.86-10.176c0-1.794,0.286-3.426,0.74-5.128c0.38-1.423,0.904-2.783,1.302-4.21
		c0.556-1.989,1.247-4.26,2.797-5.703c0.792-0.737,1.891-1.399,2.829-1.908c1.452-0.788,3.008-1.16,4.592-1.653
		c2.064-0.644,4.219-1.191,6.352-1.539c1.485-0.243,3.066-0.153,4.579-0.153c1.43,0,2.597,0.163,3.967,0.481
		c1.181,0.275,2.385,0.721,3.552,1.073c2.133,0.644,4.208,1.62,6.149,2.744c2.233,1.293,4.17,3.115,6.341,4.496
		c1.673,1.063,2.716,2.914,4.075,4.325c0.702,0.73,1.462,1.597,2.016,2.46c0.407,0.633,0.924,1.26,0.252,1.862
		c-0.06-0.026-0.169-0.063-0.223-0.109"/>
	<path d="M101.412,127.802c0.765,0.28,1.476,0.523,2.108,1.03c0.623,0.499,1.373,0.925,2.202,0.722
		c0.733-0.179,1.149-0.524,1.632-1.11c0.803-0.976,1.724-2.41,1.551-3.701c-0.767-0.368-1.36-0.23-2.08-0.857
		c-0.724-0.63-1.422-1.315-2.085-1.971c-0.786-0.777-1.569-1.606-2.578-2.15c-0.506-0.272-0.875-0.627-1.369-0.931
		c-1.372-0.845-2.224-2.267-3.853-2.869c-1.451-0.536-3.328-0.87-4.775-0.269c-4.273,1.773-3.438,6.71-3.977,10.46
		c-0.166,1.16-0.305,2.245-0.952,3.258c-0.657,1.029-1.49,1.823-2.673,2.178c-1.194,0.358-2.676,0.473-3.867,0.032
		c-1.293-0.477-2.11-1.643-2.797-2.775c-0.635-1.045-0.869-2.413-0.407-3.579c0.386-0.974,1.503-1.856,2.599-1.629
		c1.389,0.288,3.018,3.382,0.87,3.654c0.044-0.478,1.026-0.115,1.349-0.258c0.633-0.279,0.737-1.235,0.736-1.838
		c0-1.168-0.55-2.098-1.417-2.895c-0.773-0.711-1.579-1.1-2.666-1.006c-2.184,0.189-4.131,1.225-5.287,3.145
		c-1.059,1.756-0.874,4.778,0.006,6.56c0.678,1.373,1.366,2.518,2.491,3.576c1.109,1.042,2.508,2.101,3.914,2.684
		c1.823,0.756,3.703,0.566,5.547,0.064c0.786-0.213,1.588-0.57,2.338-0.893c0.962-0.414,1.705-0.923,2.215-1.822
		c0.808-1.422,1.472-2.917,2.413-4.267c0.5-0.716,1.119-1.572,1.778-2.171c0.781-0.712,1.46-0.973,2.458-1.116
		c0.829-0.119,1.687-0.166,2.478,0.003C100.077,127.225,100.679,127.534,101.412,127.802"/>
	<path d="M125.559,106.144c-1.061-0.737-2.187-1.606-3.365-2.138c-1.171-0.528-1.95-1.253-2.883-2.116
		c-0.252-0.233-0.589-0.289-0.634-0.685c0.738-0.278,1.361-0.746,1.956-1.257c0.639-0.548,1.424-0.934,2.107-1.454
		c0.66-0.503,1.33-1.042,2.015-1.497c0.426-0.283,0.92-0.473,1.37-0.713c0.495-0.265,0.862-0.676,1.383-0.862
		c3.054-1.091,7.354-0.156,8.314,3.318c0.547,1.977,0.714,4.154-0.305,6.023c-0.312,0.572-0.893,1.153-1.5,1.384
		c-0.665,0.253-1.896,0.561-2.551,0.218c-0.522-0.273-1.17-1.118-1.473-1.614c-0.304-0.499-0.451-0.974-0.367-1.571
		c0.049-0.347,0.287-0.937,0.647-1.108c0.297-0.141,1.375,0.221,1.06-0.503c-0.64-0.086-0.588,1.242-0.441,1.59
		c0.322,0.752,1.147,0.981,1.794,0.463c2.024-1.624-0.682-3.982-2.363-4.416c-1.879-0.485-3.466,1.076-3.901,2.818
		c-0.172,0.69-0.12,1.48-0.12,2.238c0,0.545-0.224,1.883,0.078,2.352C126.054,106.66,125.809,106.318,125.559,106.144"/>
	<path d="M63.362,116.534c0.116-0.445-0.569-1.141-0.765-1.526c-0.16-0.317-0.22-0.672-0.349-1.001
		c-0.184-0.468-0.277-0.445,0.074-0.83c0.541-0.595,1.316-1.036,1.957-1.515c0.57-0.425,1.18-0.913,1.755-1.279
		c0.513-0.328,1.129-0.509,1.666-0.823c0.584-0.34,1.159-0.838,1.786-1.16c0.5-0.257,1.063-0.378,1.548-0.682
		c0.645-0.405,1.319-0.878,1.886-1.383c0.294-0.261,0.638-0.533,0.997-0.654c0.168-0.522-0.597-1.693-0.745-2.244
		c-0.377-1.396-0.622-2.979-0.762-4.416c-0.161-1.648-0.528-3.275-0.275-4.939c0.087-0.564,0.034-1.217,0.149-1.771
		c0.085-0.402,0.383-0.775,0.523-1.158c0.09-0.243,0.138-0.525,0.251-0.759c0.623-1.277,1.92-2.445,2.938-3.438
		c0.542-0.528,1.129-1.159,1.802-1.523c0.792-0.43,1.622-0.874,2.408-1.271c1.371-0.691,3.331-0.875,4.814-1.016
		c1.403-0.132,2.955,0.598,4.14,1.265c1.367,0.768,2.798,1.819,3.906,2.916c0.721,0.713,1.439,1.43,2.12,2.181
		c0.546,0.601,1.095,1.725,2.08,1.283c0.372-0.167,0.534-0.508,0.815-0.781c0.38-0.369,0.873-0.706,1.315-0.998
		c1.114-0.736,2.086-1.695,3.228-2.403c0.502-0.312,1.038-0.571,1.495-0.946c0.32-0.263,0.722-0.792,1.144-0.848
		c0.274,0.671,1.383,1.045,1.939,1.389"/>
	<path d="M62.672,115.889c0.035,0.865-2.4,2.445-3.23,2.755c-1.272,0.476-2.305,0.376-3.207-0.479
		c-1.305,1.594,1.233,3.174,2.499,3.418c1.807,0.349,3.682-0.983,3.744-2.923c1.403,1.385,0.848,4.781-0.724,5.929
		c1.851,0.442,4.794-2.544,5.423-4.061c0.423-1.021,0.414-2.546,0.494-3.644c0.067-0.919,0.095-1.898-0.292-2.7
		c-0.961-0.354-2.355,0.997-3.075,1.449c-1.089,0.684-2.3,1.175-3.406,1.77c-0.188-0.006-0.18-0.01,0.024-0.013"/>
	<path d="M105.172,85.389c1.404,1.274,3.274-4.605,1.974-5.648c0.933,1.35,1.484,2.631,1.24,4.36
		c-0.186,0.005-0.474,0.116-0.639,0.093c1.106,0.703,3.432-0.244,3.68-1.474c-0.027,1.76,0.043,2.853-1.499,3.919
		c-0.826,0.571-1.271,0.753-2.256,0.75c-0.78-0.002-1.48-0.384-2.207-0.278c-0.054-0.409-0.132-0.842-0.293-1.222"/>
	<path d="M59.922,75.889c-0.672-0.123-0.572-3.434-0.312-4.318c0.146-0.494,0.637-1.872,1.112-2.145
		c0.481-0.276,2.172-0.133,2.705-0.043c0.652,0.11,1.334,0.506,1.807,0.993c0.764,0.788,1.063,1.09,0.442,1.819
		c-0.683,0.801-1.744,1.299-2.53,1.982c-1.024,0.887-2.949,1.577-3.724,2.462"/>
	<path fill="#FF0000" d="M84.986,110.939c-1.098-0.035-1.874-0.312-2.827,0.422c-0.766,0.59-1.271,1.741-1.321,2.691
		c-0.148,2.805,3.65,3.552,5.657,2.63c1.424-0.655,2.438-1.984,1.749-3.608c-0.382-0.897-1.465-1.527-2.344-1.824
		c-0.336-0.113-1.195-0.074-1.342-0.311"/>
	<path d="M159.652,180.142c-4.241,0.506-8.327,1.838-12.563,0.882c-1.59-0.358-2.884-0.29-4.348,0.517
		c-0.946,0.521-1.692,1.351-2.729,1.682c-1.206,0.385-0.986,0.044-1.453,1.232c-0.866,2.205-1.324,4.495-2.148,6.67
		c-0.66,1.741-0.985,4.09-0.827,5.946c0.133,1.562,0.608,2.949,0.222,4.535c-1.318-0.59-1.5-2.432-1.853-3.657
		c-0.399-1.385-1.137-2.582-1.582-3.944c-1.312-4.016-2.72-7.993-4.075-11.994c-0.993-2.932-2.06-6.031-2.81-9.036
		c-0.728-2.914-0.813-5.831-0.812-8.882c0.001-2.139,0.138-5.561,2.461-6.209c1.243-0.346,2.57-0.444,3.825-0.768
		c1.034-0.267,2.252-0.664,3.267-0.818c1.426-0.216,2.952,0.192,4.383,0.02c1.541-0.185,3.039-0.295,4.629-0.287
		c4.713,0.021,9.398-0.991,14.055-1.639c3.818-0.531,7.513-1.027,11.314-1.429c5.016-0.529,10.414-0.694,15.42-0.077
		c6.132,0.756,13.069-0.077,19.244-0.077c13.228,0,25.282-2.994,38.122-3c12.775-0.006,24.824,1.647,37.13,3.077
		c12.147,1.412,22.844-1.314,34.272,3.219c-0.855,15.269-20.034,9.519-30.861,12.002c-14.743,3.382-29.76,5.63-44.219,8.661
		c-8.481,1.778-17.138,2.534-25.788,2.84c-8.235,0.29-16.751,0.678-24.905-0.205c-1.699-0.184-3.837-0.015-5.555,0.118
		c-2.907,0.226-5.777,0.288-8.726,0.288C168.371,179.808,163.941,179.63,159.652,180.142"/>
	<path fill="#245977" d="M336.586,143.653c0.275-1.357,0.8-2.791,1.273-4.03c0.538-1.405,1.311-2.629,2.105-3.873
		c1.08-1.694,2.544-3.426,3.901-4.864c0.944-1.001,2.129-2.487,3.35-3.146c0.392-0.211,1.573-0.205,1.79-0.479
		c0.437-0.553-0.163-1.655-0.556-2.044c-0.387-0.385-1.091-0.444-1.379-0.87c-0.717-1.059,0.021-2.96,0.697-3.778
		c0.694-0.843,2.31-2.513,0.211-2.807c-1.092-0.153-3.935,1.674-3.361-0.557c0.185-0.717,0.864-0.938,0.566-1.838
		c-0.25-0.753-1.151-1.078-1.865-0.826c-0.612,0.216-0.94,0.857-1.427,1.244c-0.741,0.589-0.467,0.453-1.284,0.326
		c-1.971-0.308-1.137-1.664-1.375-3.271c-0.24-1.613-1.968-1.662-3.232-1.04c-0.396,1.526-0.149,3.006-0.375,4.552
		c-2.692,1.275-3.182-2.487-5.413-2.965c-2.141-0.459-4.721,0.906-5.212,2.999c-0.338,1.439,0.022,3.148,1.182,4.043
		c0.873,0.674,2.028,0.736,2.99,1.37c4.011,2.638,1.264,7.903-0.04,11.186c-1.743,4.391-4.194,8.484-7.355,12.003
		c-3.03,3.373-8.008,8.457-13.033,8.042c-0.276,2.343-0.555,4.955-0.228,7.306c0.34,2.443,2.791,1.595,4.452,1.448
		c1.442-0.128,2.827-0.489,4.18-0.081c2.141,0.646,3.644,2.311,5.679,3.012c1.984,0.684,3.974,0.334,5.808-0.575
		c1.214-0.601,2.64-0.706,3.78-1.441c2.393-1.545,2.939-4.885,3.271-7.482c0.463-3.613,0.274-7.35,0.792-10.945
		C336.507,144.068,336.544,143.861,336.586,143.653"/>
	<path fill="#245977" d="M137.057,203.512c-0.447-4.119-0.801-8.24-0.801-12.537c0-0.117,0-0.233-0.001-0.35
		c-0.016-4.015-0.292-8.024-0.269-12.04c0.012-1.93,0.022-3.917,0.349-5.823c0.318-1.857,1.041-3.623,1.304-5.491
		c0.161-1.146,0.506-2.28,0.772-3.407c0.262-1.106,0.535-2.199,0.817-3.289c0.232-0.894,0.598-1.719,0.86-2.597
		c0.174-0.583,0.389-1.268,0.458-1.843c0.032-0.272,0.057-0.553,0.06-0.824c0.002-0.249,0.084-0.432,0.049-0.681
		c-0.034-0.237-0.076-0.511-0.108-0.772c-0.029-0.235-0.104-0.497-0.177-0.709c-0.23-0.663-0.969-1.069-1.486-1.516
		c-0.553-0.479-1.074-0.979-1.636-1.436c-0.422-0.343-0.876-0.698-1.317-1.017c-0.394-0.286-0.814-0.599-1.248-0.822
		c-0.945-0.485-2.014-0.931-2.703-1.77c-0.412-0.501-0.508-0.957-0.608-1.569c-0.396,0.339-0.628,0.958-0.887,1.431
		c-0.293,0.533-0.44,1.133-0.753,1.653c-0.508,0.843-1.052,1.648-1.431,2.574c-0.71,1.736-1.425,3.498-2.171,5.227
		c-0.485,1.125-0.79,2.291-1.185,3.443c-0.593,1.734-1.125,3.522-1.535,5.312c-0.199,0.871-0.351,1.746-0.488,2.63
		c-0.136,0.875-0.334,1.755-0.43,2.636c-0.065,0.601-0.229,1.197-0.269,1.796c-0.067,1.013,0.032,2.071,0.032,3.094
		c0,1.005,0,2.01,0,3.015c0,2.722,0,5.443,0,8.165c0,2.648,0,5.296,0,7.944c0,2.006,0,4.012,0,6.018c0,0.795,0,1.59,0,2.385
		c0,6.338-0.664,12.368-0.667,18.58c-0.003,6,0.105,12.024-0.518,17.902c-0.354,3.334-0.168,6.794-0.149,10.166
		c0.018,3.183-0.679,5.958-0.666,9.164c0.009,2.193,1.634,18.131-4.795,13.46c-2.055-1.493-3.005-7.201-4.137-9.566
		c-1.562-3.265-3.311-6.445-4.591-9.839c-3.192-8.462-7.216-16.555-9.866-25.206c-1.258-4.107-2.643-8.073-3.649-12.222
		c-1.051-4.339-1.59-9.021-2.926-13.38c-2.214-7.222-2.609-15.04-3.49-22.367c-0.443-3.681-0.946-8.057-3.038-11.318
		c-0.943-1.471-2.075-2.772-3.253-4.055c-0.971-1.057-2.505-3.343-3.968-2.375c-1.008,0.668-1.838,2.087-2.424,3.126
		c-0.929,1.646-1.395,3.905-2.737,5.279c-0.396,0.404-0.903,0.493-1.299,0.852c-0.499,0.453-0.776,1.22-1.089,1.806
		c-0.752,1.402-1.48,2.817-2.199,4.236c-1.563,3.088-2.486,6.043-1.727,9.431c0.832,3.718,2.174,7.399,3.861,10.894
		c3.354,6.945,6.133,14.134,8.43,21.556c2.256,7.288,5.383,14.218,7.635,21.551c1.572,5.118,3.082,10.262,4.871,15.367
		c1.195,3.41,2.613,6.753,3.873,10.151c1.64,4.427,3.992,8.581,5.511,13.051c2.759,8.118,5.739,16.345,9.028,24.257
		c2.736,6.581,4.593,13.559,7.198,20.189c1.81,4.605,3.933,8.898,6.72,12.852c0.766,1.087,2.249,2.937,3.884,2.062
		c1.357-0.726,1.097-4.29,1.301-5.662c0.373-2.509,0.499-5.051,0.792-7.546c0.449-3.824,2.05-7.361,3-11.06
		c1.659-6.454,2.7-13.441,3.212-20.07c0.293-3.798,1.332-7.601,1.955-11.386c0.987-5.997,2.093-11.757,2.599-17.916
		c0.249-3.038-0.016-6.21-0.016-9.266c0-13.723,0.662-27.124-0.682-40.88C137.887,210.539,137.438,207.026,137.057,203.512"/>
	<path fill="#FFFFFF" d="M125.172,360.389c0.071,0.055,0.142,0.109,0.213,0.165c-0.013-0.867-0.72-1.921-1.145-2.728
		c-0.435-0.829-1.655-2.244-1.774-3.187c-0.1-0.796,0.317-0.718,0.719-1.182c0.317-0.365,0.672-0.945,0.925-1.418
		c0.793-1.474,1.626-2.78,2.561-4.199c2.23-3.384,4.585-6.707,7-9.958c2.5-3.365,5.578-6.703,7.694-10.299
		c0.763-1.298,1.66-2.453,2.432-3.744c0.615-1.028,1.106-2.36,1.807-3.268c0.583-0.756,1.315-0.854,2.136-0.499
		c0.602,0.258,2.009,1.217,2.012,1.817c0.003,0.84-1.82,2.454-2.275,3.188c-1.091,1.764-1.875,3.74-2.982,5.502
		c-3.005,4.785-6.603,9.231-9.511,14.004c-1.737,2.848-4.115,5.277-6,8.057c-0.888,1.309-1.766,2.646-2.75,3.824
		c-0.659,0.79-1.034,1.893-1.75,2.581c-0.397-0.429-0.792-0.864-1.28-1.224c-0.044-0.15,0.029-0.21,0.218-0.182"/>
	<path fill="#245977" d="M273.965,327.882c0.081,0.029,0.162,0.059,0.243,0.089c1.211,0.453,2.52,0.598,3.754,0.704
		c0.585,0.051,1.235,0.343,1.842,0.197c0.227-0.055,0.467-0.218,0.679-0.334c0.54-0.295,0.402-0.227,0.66-0.619
		c0.498-0.756,1.019-2.153-0.177-2.436c-1.059-0.251-2.769,0.543-2.414-1.28c0.972-0.043,4.955-0.805,2.794-2.33
		c-0.777-0.549-1.829-0.401-2.634-0.699c-1.091-0.402-0.713-0.731-0.175-1.524c0.591-0.871,0.119-1.611-0.857-1.952
		c-1.068-0.374-1.308,0.285-1.781,0.988c-0.416,0.619-1.341,1.273-2.02,0.571c-0.582-0.602-0.31-1.508-0.22-2.207
		c0.105-0.806-0.175-1.862-0.39-2.625c-0.286-1.017-0.661-1.419-1.682-1.828c-1.721-0.689-4.127,0.353-4.317,2.199
		c-0.102,0.998-0.097,1.837-0.933,2.491c-0.853,0.668-1.903,0.785-2.893,1.004c-1.503,0.333-2.845,0.796-4.419,0.638
		c-1.932-0.193-3.921-0.206-5.806-0.796c-2.017-0.631-3.957-1.44-5.852-2.391c-1.154-0.58-2.258-1.165-3.303-1.925
		c-0.751-0.546-1.373-1.459-2.142-1.975c-0.73-0.49-1.594-0.793-2.401-1.125c-0.432-0.178-0.73-0.294-1.082-0.609
		c-0.5-0.447-0.599-0.832-1.35-0.755c-1.175,0.122-1.937,1.158-2.812,1.889c-0.924,0.771-1.959,1.264-2.442,2.413
		c-0.564,1.345-1.669,3.644-0.32,4.837c0.607,0.537,1.577,0.826,2.291,1.217c0.956,0.524,1.661,1.261,2.279,2.084
		c0.402,0.536,0.769,1.109,1.144,1.683c0.483,0.739,0.981,1.534,1.396,2.367c0.81,1.623,1.735,3.215,2.823,4.664
		c1.402,1.867,3.821,2.522,6.064,2.257c1.211-0.144,2.175-0.642,3.29-1.067c1.276-0.487,2.031-1.46,3.193-2.168
		c1.062-0.646,2.126-1.332,3.155-2.021c1.711-1.146,3.738-2.015,5.79-2.021c1.239-0.003,2.402,0.286,3.58,0.562
		C269.09,326.654,271.49,326.993,273.965,327.882"/>
	<path fill="#245977" d="M187.408,146.709c-0.701-1.218-3.279-2.312-4.412-3.223c-1.363-1.097-2.661-2.294-3.956-3.456
		c-2.218-1.99-4.815-4.134-7.501-5.491c-1.403-0.71-2.917-0.924-4.383-1.299c-1.792-0.458-3.455-0.156-5.287-0.409
		c-3.779-0.522-7.676-1.343-11.387-1.636c-1.495-0.118-3.376-0.217-4.859-0.021c-1.601,0.212-3.821,0.182-5.208,0.926
		c-3.375,1.811-4.272,4.941-6.179,8.021c-2.188,3.533-3.955,7.111-5.555,10.79c0.059,0.022,0.118,0.053,0.173,0.104
		c2.111,1.927,4.184,3.896,6.334,5.78c0.251,0.221,3.957,3.297,3.728,3.499c0.509-0.449,0.376-1.534,0.562-2.155
		c0.229-0.767,0.495-1.463,0.687-2.25c0.556-2.271,1.208-4.529,1.778-6.799c0.426-1.7,1.339-1.817,2.938-2.759
		c3.31-1.947,7.967-2.457,11.71-3.647c2.884-0.918,5.785-0.608,7.413,2.25c0.801,1.404,0.919,2.938,1.118,4.562
		c0.223,1.81,0.726,3.582,1.199,5.288c0.32,1.154,1.089,3.909,2.81,3.191c-0.017-1.065,0.744-1.811,0.894-2.765
		c0.222-1.414-0.118-3.179-0.405-4.515c-0.259-1.211-0.433-2.242-0.429-3.639c0.004-1.369-0.715-3.163-0.345-4.411
		c2.275-0.955,3.263,6.602,3.621,8.069c0.711,2.918,1.644,5.926,2.486,8.877c0.371,0.151,0.708,0.162,1.082,0.009
		c0.643-2.802,1.129-6.034,0.792-8.933c-0.209-1.794-0.776-3.358-1.039-4.922c-0.248-1.475-0.172-3.307-0.844-4.666
		c1.644,2.227,2.443,5.743,4.799,7.309C181.125,149.308,189.408,150.187,187.408,146.709"/>
</g>
</svg>
