<?xml version="1.0" encoding="utf-8"?>
<!-- Generator: Adobe Illustrator 16.0.4, SVG Export Plug-In . SVG Version: 6.00 Build 0)  -->
<!DOCTYPE svg PUBLIC "-//W3C//DTD SVG 1.1//EN" "http://www.w3.org/Graphics/SVG/1.1/DTD/svg11.dtd">
<svg version="1.1" id="Ebene_1" xmlns="http://www.w3.org/2000/svg" xmlns:xlink="http://www.w3.org/1999/xlink" x="0px" y="0px"
	 width="294.029px" height="550.125px" viewBox="0 0 294.029 550.125" enable-background="new 0 0 294.029 550.125"
	 xml:space="preserve">
<g>
	<path fill="#245977" d="M79.728,325.242c4.467,0.311,8.319,2.592,12.708,3.747c1.607,0.423,3.24,0.739,4.88,0.892
		c0.774,0.073,1.474,0.036,2.336,0.024c0.738-0.008,1.964-0.123,2.702-0.009c1.13,0.172,0.999,0.5,1.258,1.718
		c0.452,2.12,0.073,4.331,0.605,6.356c0.447,1.703,0.939,3.41,1.502,5.092c1.423,4.24,3.33,8.257,4.818,12.545
		c1.785,5.152,3.303,10.316,4.653,15.62c1.015,3.976,2.729,7.811,3.371,11.919c0.31,1.99,0.521,4.041,0.957,6.011
		c0.624,2.821,1.083,5.704,1.542,8.545c0.455,2.808,0.48,5.677,0.895,8.513c0.483,3.316,0.963,6.76,1.215,10.078
		c0.977,12.831,0.49,25.573-0.766,38.247c-0.288,2.923-0.351,5.931-0.822,8.79c-0.424,2.585-0.441,5.213-0.778,7.834
		c-0.284,2.197-0.286,4.594-0.429,6.818c-0.129,2.057,0.039,3.943,0.304,5.959c0.507,3.869,3.473,5.848,5.219,8.961
		c0.991,1.771,1.028,3.962,1.144,5.916c0.074,1.275,0.143,2.79-0.143,4.051c-0.164,0.723-0.734,1.268-0.884,1.994
		c-0.159,0.789,0.019,1.083-0.542,1.747c-0.781,0.921-1.896,1.374-3.008,1.579c-2.332,0.431-4.725-0.145-7.065-0.419
		c-1.699-0.201-3.128-1.19-4.832-1.716c-1.776-0.549-3.608-0.932-5.388-1.777c-0.748-0.355-1.512-0.516-2.285-0.768
		c-0.93-0.303-1.926-0.629-2.889-0.929c-1.713-0.534-3.469-0.468-5.334-0.385c-0.849,0.038-1.856-0.03-2.664,0.218
		c-1.989,0.608-3.277,1.7-4.957,2.885c-0.514,0.362-1.067,0.619-1.596,0.943c-0.638,0.393-1.16,0.689-1.855,0.915
		c-0.592,0.191-1.233,0.127-1.817,0.33c-1.694,0.585-1.11,1.701-0.677,3.094c0.48,1.533,0.214,3.403-1.573,2.274
		c-0.495-0.312-1.321-0.835-1.682-1.305c-0.58-0.75-0.187-1.264-0.366-2.004c-0.577-2.362-2.268,1.612-2.618,2.08
		c-0.532,0.717-1.104,1.135-1.894,0.547c-0.697-0.522-0.961-1.366-0.729-2.226c0.385-1.437,1.738-2.134,2.084-3.69
		c-0.658-0.625-1.929,0.31-2.564,0.596c-0.766,0.344-1.463,0.486-2.278,0.592c-0.803,0.104-1.358,0.068-2.17-0.468
		c-0.692-0.459-1.256-1.316-1.412-2.247c-0.153-0.919,0.06-1.796,0.861-2.176c0.68-0.322,1.264,0.137,1.987,0.098
		c0.687-0.04,1.555-0.608,1.463-1.625c-0.08-0.884-1.021-0.791-1.594-0.959c-2.877-0.844-5.902-3.695-6.459-7.02
		c-0.293-1.748,0.297-3.789,1.631-4.771c1.348-0.988,3.344-0.91,4.371,0.736c1.088,1.746,1.664,3.253,3.349,4.469
		c1.429,1.032,3.2,1.688,4.836,1.996c1.198,0.227,2.174-0.163,3.349-0.375c1.273-0.23,2.617,0.043,3.857-0.337
		c1.34-0.41,2.426-1.427,3.713-1.927c0.699-0.271,1.247-0.259,1.845-0.801c0.397-0.361,0.705-0.808,1.122-1.148
		c1.252-1.017,2.62-1.752,3.727-2.994c1.275-1.434,2.59-2.844,4.002-4.12c1.813-1.637,3.194-4.522,4.076-6.931
		c0.354-0.974,0.926-1.732,1.189-2.845c0.262-1.105,0.389-2.237,0.561-3.378c0.301-2.001,0.344-4.103,0.557-6.128
		c0.16-1.526,0.076-3.093,0.104-4.629c0.021-1.233-0.007-2.479-0.05-3.717c-0.075-2.094-0.721-4.128-1.169-6.146
		c-0.565-2.539-0.735-5.269-1.078-7.852c-0.808-6.105-1.935-12.173-2.698-18.28c-0.648-5.178-0.731-9.959-1.895-15.148
		c-0.934-4.173-2.296-8.322-3.584-12.345c-1.173-3.666-2.564-7.492-3.502-11.351c-0.848-3.489-1.253-7.599-2.844-10.846
		c-1.713-3.496-4.272-6.388-5.854-10.196c-1.399-3.366-1.336-6.271-1.372-9.789c-0.05-4.99-2.087-8.986-4.299-13.262
		c-1.629-3.148-5.206-7.076-5.624-10.756c-0.507-4.476,5.01-4.898,7.905-4.967C78.84,325.2,79.288,325.211,79.728,325.242"/>
	<path fill="#245977" d="M200.286,55.699c0.324,0.804,0.59,1.642,0.928,2.443c0.523,1.247,0.964,2.51,1.492,3.759
		c2.09,4.933,4.029,9.976,5.901,14.964c0.991,2.64,1.964,5.287,2.9,7.945c1.032,2.93,1.651,6.092,3.08,8.862
		c0.574,1.114,0.838,2.432,1.449,3.508c0.545,0.961,1.292,1.733,1.754,2.773c0.879,1.983,1.367,4.278,1.16,6.45
		c-0.231,2.435-2.143,5.375-4.717,6.01c-2.92,0.721-6.916-0.363-9.227-2.104c-1.042-0.785-1.848-2.134-2.672-3.144
		c-0.813-0.999-1.389-2.057-2.299-2.975c-1.002-1.013-1.535-2.553-2.164-3.883c-1.451-3.066-2.855-6.154-4.214-9.262
		c-1.082-2.472-1.834-5.127-2.182-7.787c-0.184-1.411-0.709-2.883-1.076-4.282c-0.388-1.479-0.476-2.93-0.681-4.43
		c-0.369-2.701-0.147-5.64-0.743-8.257c-0.617-2.706-1.122-5.409-1.702-8.124c-0.548-2.561-1.149-5.11-1.757-7.638
		c-0.891-3.708-2.027-7.307-2.87-11.042c-0.354-1.572-0.758-3.175-1.122-4.768c-0.405-1.792-0.376-3.455-0.591-5.267
		c-0.11-0.937-0.428-2.024-0.175-2.98c0.482-1.827,3.154-3.089,4.845-3.083c2.358,0.008,4.023,1.027,5.193,3.213
		c0.424,0.792,0.76,1.798,1.051,2.668c0.216,0.646,0.176,1.315,0.324,1.982c0.173,0.778,0.611,1.466,0.794,2.24
		c0.199,0.847,0.228,1.762,0.384,2.627c0.19,1.053,0.789,1.803,1.142,2.819c0.322,0.928,0.561,1.866,0.879,2.81
		c0.375,1.106,0.867,2.142,1.201,3.275c0.332,1.124,0.678,2.234,1.059,3.336c0.787,2.28,1.365,4.516,2.388,6.72
		C200.114,55.282,200.202,55.489,200.286,55.699"/>
	<path fill="#245977" d="M191.747,13.454c-0.868,2.723-0.886,5.669-0.673,8.492c0.183,2.405,1.828,3.953,0.424,6.401
		c-0.669,1.167-2.244,2.061-3.391,2.444c-1.251,0.417-2.656,1.522-4.082,1.172c-2.246-0.552-3.025-2.236-3.953-4.157
		c-0.586-1.213-1.463-2.288-2.062-3.517c-0.987-2.028-3.097-3.784-3.693-5.965c-0.216-0.788,0.123-1.354,0.093-2.121
		c-0.041-1.089-0.804-2.255-1.449-3.09c-0.61-0.791-2.426-2.331-2.047-3.31c0.882-2.284,4.56,1.837,5.912,1.782
		c1.205-0.05,1.752-1.449,2.317-2.318c0.874-1.343,1.948-2.564,3.202-3.568c1.283-1.027,3.861-1.119,2.861,1.445
		c-0.584,1.501-3.121,2.754-2.795,4.312c2.555,0.619,2.998-2.778,4.623-4.14c0.664-0.555,2.852-2.247,3.572-1.16
		c0.583,0.877-2.041,2.375-1.396,3.813c1.076-0.259,1.558-1.876,2.44-2.618c0.919-0.773,2.356-1.209,3.541-1.033
		C196.884,9.194,192.643,10.643,191.747,13.454z"/>
	<path fill="#245977" d="M220.952,118.788c0.413,3.438,1.09,6.913,1.523,10.515c0.477,3.951,0.356,8.117,1.365,12
		c0.924,3.553,1.271,6.778,1.37,10.373c0.106,3.852,1.519,7.904,2.268,11.687c1.319,6.663,1.985,13.636,1.985,20.525
		c0,3.165,0.072,6.337,0,9.5c-0.05,2.221-0.687,4.366-0.924,6.564c-0.113,1.052,0.21,2.972-0.373,3.897
		c-1.543,2.453-6.988,0.336-9.313,0.113c-1.571-0.149-2.983,0.043-4.468-0.339c-1.51-0.389-2.725-1.255-3.995-1.791
		c-0.772-0.325-1.971-0.395-2.483-1.079c-0.773-1.033-0.465-3.356-0.553-4.592c-0.183-2.586-0.141-4.921,0.67-7.392
		c0.741-2.261,0.577-4.079-0.008-6.39c-0.778-3.078-1.435-6.154-2.053-9.268c-0.371-1.867-0.287-3.699-0.682-5.537
		c-0.394-1.834-0.797-3.618-1.013-5.48c-0.231-1.998-0.076-4.09-0.25-6.082c-0.163-1.869-0.056-3.792-0.056-5.674
		c0-5.176,0.662-10.435,0.062-15.602c-0.529-4.553-0.823-8.958-0.812-13.543c0.007-2.516-0.43-4.996-0.731-7.485
		c-0.262-2.154-0.855-4.875-0.502-7.021c0.228-1.377,1.23-2.651,1.994-3.84c1.469-2.288,3.283-4.1,5.883-4.827
		c1.244-0.348,2.658-0.458,3.783,0.157c1.148,0.628,2.152,1.395,3.154,2.22c0.757,0.623,1.625,1.203,2.215,2.036
		C222.302,107.092,220.325,113.572,220.952,118.788z"/>
	<path d="M197.834,380.285c0.346,0.005,0.483-0.161,0.418-0.499"/>
	<path d="M168.127,338.062c-1.258-0.112-2.697,0.019-3.111-1.43c-0.052,0.012-1.132,0.321-1.143,0.291
		c-0.434-1.114,0.414-2.894,0.71-3.982c0.403-1.489,1.074-2.935,1.567-4.377c1.246-3.631,2.688-7.254,3.928-10.875
		c2.638-7.704,4.055-15.364,7.296-22.903c4.174-9.715,8.444-19.467,12.772-29.17c2.172-4.873,3.955-9.75,5.633-14.836
		c1.43-4.333,2.365-8.766,3.841-13.008c1.172-3.369,2.415-6.947,3.243-10.336c0.887-3.624,1.43-7.775,2.864-11.185
		c1.601-3.807,2.621-7.35,3.055-11.496c0.161-1.536-0.157-2.522,1.414-2.407c1.21,0.089,2.356,0.574,3.62,0.753
		c3.934,0.558,10.465-2.296,14.014-0.615c3.941,1.868,4.916,9.88,5.846,13.646c1.508,6.115,2.837,12.281,4.077,18.486
		c2.097,10.48,4.108,20.051,5.063,30.693c0.823,9.165,0.666,17.961,1.486,27.11c1.369,15.241,4.904,28.379,10.076,42.314
		c-3.5,0.796-7.354,0.569-10.893,1.332c-5.999,1.294-11.845,2.286-17.998,1.543c-5.235-0.632-9.918-3.026-15.057-3.998
		c-9.378-1.774-19.889,1.956-29.189,3.074C176.94,337.203,172.485,338.449,168.127,338.062"/>
	<path fill="#FFFFFF" d="M225.62,311.699c-6.444-0.393-12.972-1.036-19.288-2.422c-10.556-2.316-20.412-6.784-30.664-10.07
		c-1.37,3.928-2.416,7.883-3.549,11.856c7.26,2.745,14.539,5.636,22.169,7.08c9.043,1.71,18.273,2.323,27.432,3.116
		c5.856,0.507,11.809,0.773,17.666,0.123c3.228-0.358,6.729-0.965,9.867-2.242c-0.761-2.71-1.441-5.436-2.057-8.19
		C240.081,312.096,232.797,312.137,225.62,311.699"/>
	<path d="M136.762,390.988c-14.996-9.588-27.912-21.991-40.146-34.824c-4.468-4.688-8.86-9.447-13.269-14.192
		c-1.782-1.919-3.517-4.429-5.854-5.667c-2.411-1.277-4.313-2.881-6.442-4.597c-2.699-2.172-5.063-4.519-7.463-7.013
		c-1.961-2.036-4.262-3.676-6.517-5.35c-2.25-1.671-6.159-3.943-4.927-7.267c0.539-1.454,1.543-2.856,2.252-4.238
		c0.734-1.434,1.697-3.215,3.451-3.522c2.959-0.517,6.012-0.205,8.992-0.123c2.654,0.071,5.875,0.237,8.646,0.653
		c7.301,1.095,14.587,1.998,22.038,3.077c16.404,2.372,32.182,6.223,48.383,9.817c17.255,3.83,34.884,7.34,52.113,10.36
		c4.922,0.862,9.918,1.408,14.832,2.006c4.168,0.505,8.298-0.961,12.366-1.601c0.471,1.978-0.946,3.961-1.841,5.679
		c-1.812,3.478-3.303,6.817-4.172,10.625c-0.794,3.473-3.852,6.308-5.766,9.309c-4.238,6.647-8.539,13.383-13.256,19.654
		c-5.687,7.558-12.243,13.755-20.64,17.945c-6.634,3.312-10.671,7.409-18.389,8.069
		C151.522,400.613,144.669,396.043,136.762,390.988"/>
	<path fill="#FFFFFF" d="M189.061,367.129c3.375,2.621,6.862,5.129,10.434,7.524c0.229-0.296,0.464-0.578,0.689-0.878
		c4.014-5.336,7.721-11.006,11.349-16.674c-6.938-2.175-13.714-4.859-20.222-8.244c-9.674-5.032-18.75-11.321-26.896-18.572
		c-3.944-3.51-7.701-7.212-11.371-10.999c-2.214-0.478-4.433-0.949-6.638-1.435C156.738,337.1,171.885,353.798,189.061,367.129"/>
	<path fill="#245977" d="M54.488,315.867c0.801,4.302,5.438,9.602,7.325,14.186c2.751,6.687,6.15,12.816,9.484,19.228
		c5.519,10.617,12.699,19.981,19.775,29.616c6.552,8.922,14.159,17.138,20.434,26.229c5.407,7.835,10.59,17.29,15.332,25.708
		c3.896,6.918,7.758,13.855,11.5,20.858c3.709,6.946,7.301,13.957,10.682,21.069c0.826,1.739,1.552,3.437,2.691,4.984
		c1.038,1.409,0.848,3.686,0.844,5.35c-0.002,1.169,0,2.339,0,3.509c0,1.845-0.217,3.653-0.364,5.476
		c-0.179,2.211-0.948,4.405-1.478,6.549c-0.316,1.284-0.676,2.618-1.104,3.873c-0.365,1.065-0.821,2.103-1.13,3.181
		c-0.396,1.385-1.027,2.784-1.567,4.118c-0.496,1.227-1.061,2.475-1.615,3.681c-0.666,1.451-1.195,2.948-1.963,4.351
		c-0.439,0.805-0.806,1.653-1.195,2.471c-0.416,0.871-0.657,1.793-1.112,2.655c-0.489,0.925-1.179,1.745-1.849,2.548
		c-1.461,1.752-3.196,3.561-5.362,4.414c-1.46,0.576-2.944,0.002-4.226,0.974c-0.979,0.745-2.125,2.407-2.096,3.688
		c0.074,3.177,3.969,4.977,6.771,3.835c2.395-0.976,5.793-6.029,5.617-0.113c-0.039,1.319-0.756,3.072,0.459,4.285
		c1.469,1.465,3.402,0.522,3.941-1.08c0.532-1.58-0.254-3.205,0.336-4.772c2.697-1.213,5.619,6.459,8.48,2.397
		c2.162-3.07-4.051-8.06,2.133-7.766c0.892,2.395,3.721,2.936,5.474,0.764c0.587-0.728,0.646-1.772,0.632-2.666
		c-0.011-0.556-0.064-1.109-0.135-1.659c-0.046-0.363-0.311-1.146-0.13-1.439c-0.351-0.288-0.168-0.844-0.168-1.239
		c0-0.796,0.126-1.554,0.123-2.342c-0.007-1.415,0.261-2.832,0.245-4.24c-0.032-2.832,0.541-6.193,1.617-8.821
		c0.858-2.093,2.279-3.861,3.422-5.778c0.533-0.893,1.16-1.701,1.824-2.508c0.862-1.046,1.846-1.982,2.772-2.967
		c0.944-1.002,1.71-2.141,2.654-3.137c0.993-1.048,2.079-2.176,2.845-3.397c0.561-0.895,1.33-1.798,1.697-2.794
		c0.275-0.747,0.111-1.749,0.113-2.545c0.009-2.314-1.258-4.239-2.448-6.113c-0.497-0.783-1.373-1.543-2.121-2.057
		c-0.556-0.381-1.203-0.568-1.687-1.032c-1.173-1.123-2.324-2.147-3.383-3.384c-1.311-1.53-2.134-3.373-3.135-5.103
		c-1.346-2.319-2.655-4.651-3.684-7.127c-0.131-0.315-0.256-0.634-0.388-0.95c-0.598-1.439-1.337-2.706-1.767-4.206
		c-0.506-1.76-1.512-3.459-2.251-5.133c-1.597-3.608-3.123-7.248-4.617-10.899c-3.008-7.35-5.888-14.75-8.937-22.084
		c-3.322-7.994-7.112-16.254-11.67-23.719c-4.629-7.578-7.879-15.258-12.588-22.486c-4.75-7.295-8.69-16.147-14.604-22.588
		c-5.476-5.961-10.949-12.404-16.659-18.078c-4.859-4.83-9.784-9.172-15.287-13.418c-3.229-2.489-6.197-4.983-9.837-6.115
		c-1.103-0.342-3.382-1.535-4.337-1.443c-2.52,0.244-2.428,1.996-4.512,3.213"/>
	<path fill="#245977" d="M131.257,247.295c5.782,4.58,10.995,9.884,16.677,14.63c2.532,2.115,5.1,4.191,7.77,6.13
		c2.599,1.887,5.397,3.426,8.019,5.252c0.96,0.668,1.914,1.365,3.047,1.767c0.812,0.287,1.583,0.634,2.448,0.528
		c1.107-0.135,2.27-0.808,3.294-1.241c1.796-0.757,3.433-1.648,5.092-2.662c0.761-0.465,1.445-1.062,2.157-1.602
		c1.55-1.175,3.195-2.12,4.602-3.488c1.443-1.406,2.81-2.764,4.393-4.026c1.915-1.528,3.637-3.036,5.271-4.854
		c1.506-1.678,3.564-2.869,4.952-4.647c0.53-0.679,0.789-1.51,1.224-2.246c0.645-1.088,1.461-2.095,2.272-3.062
		c1.984-2.366,3.528-4.895,5.155-7.472c1.318-2.088,2.374-4.396,3.291-6.679c0.857-2.139,2.699-4.143,4.339-5.723
		c1.797-1.731,4.28-2.721,6.794-2.647c2.094,0.06,3.537,1.105,5.057,2.453c0.785,0.697,1.611,1.435,2.168,2.338
		c0.604,0.979,0.737,2.094,0.988,3.194c0.508,2.229-0.078,3.972-1.23,5.941c-1.73,2.958-3.934,6.481-6.82,8.412
		c-1.439,0.963-2.407,2.404-3.521,3.712c-1.296,1.525-2.615,3.033-3.84,4.618c-1.164,1.506-2.319,2.956-3.606,4.362
		c-2.354,2.574-4.113,5.477-6.305,8.127c-2.412,2.918-4.697,5.961-7.106,8.858c-0.902,1.086-1.792,2.263-2.646,3.351
		c-0.434,0.551-0.753,1.231-1.31,1.675c-0.521,0.415-0.998,0.674-1.515,1.216c-1.295,1.358-2.606,2.7-3.936,4.025
		c-1.928,1.924-4.051,3.638-6.125,5.406c-1.333,1.138-2.661,2.226-4.189,3.098c-1.791,1.022-3.408,1.652-5.459,1.656
		c-3.442,0.006-6.35-3.478-8.979-5.324c-5.054-3.551-9.307-8.001-13.648-12.359c-2.927-2.938-5.965-5.751-8.883-8.694
		c-1.425-1.437-2.923-2.7-4.253-4.204c-0.959-1.085-2.063-1.861-3.184-2.735c-1.206-0.941-2.21-2.184-3.392-3.17
		c-1.067-0.892-1.916-2.062-2.904-3.052c-1.641-1.64-3.452-3.117-4.954-4.859c-1.812-2.102-3.888-3.73-5.863-5.662
		c-1.716-1.677-3.112-3.638-4.774-5.282c-1.771-1.748-3.328-3.66-4.987-5.504c-0.591-0.654-1.06-1.421-1.668-2.07
		c-1.289-1.375-2.638-2.915-3.015-4.824c-0.235-1.188-0.097-2.281,0.291-3.422c0.355-1.04,0.912-2.051,1.805-2.707
		c0.281-0.208,0.521-0.451,0.835-0.611c0.436-0.221,0.87-0.374,1.332-0.521c0.84-0.269,1.668-0.681,2.567-0.704
		c0.61-0.017,1.237-0.013,1.823,0.104c0.646,0.128,1.328,0.18,1.944,0.458c0.504,0.229,1.01,0.507,1.436,0.831
		c0.497,0.379,0.86,0.901,1.271,1.37c0.329,0.375,0.704,0.79,0.877,1.271c0.405,1.139,1.241,2.179,1.758,3.291
		c0.597,1.282,1.096,2.609,1.537,3.953c0.437,1.334,1.118,2.592,1.829,3.838c0.398,0.701,0.785,1.399,1.338,2.008
		c0.764,0.844,1.449,1.771,2.254,2.572c0.216,0.213,0.447,0.401,0.664,0.61c0.453,0.439,0.857,0.89,1.243,1.386
		c0.44,0.567,1.099,1.023,1.651,1.478C129.487,245.879,130.368,246.591,131.257,247.295"/>
	<path fill="#245977" d="M95.415,219.114c0.229,0.354,0.502,0.681,0.799,1.026c-0.287,0.383,0.123,0.72-0.06,1.156
		c-0.198,0.476-0.782,0.553-1.239,0.567c-1.537,0.051-2.918-1.407-4.312-1.86c-0.556-0.182-2.301-0.407-2.829,0.021
		c-0.814,0.663-0.186,1.323,0.307,2.104c1.086,1.727,2.75,2.972,4.477,4.004c0.9,0.539,1.883,1.197,2.879,1.539
		c1.002,0.342,1.365,0.549,2.167,1.252c0.655,0.578,1.369,1.26,2.044,1.935c0.518,0.517,1.027,0.978,1.645,1.36
		c0.646,0.399,1.103,1.013,1.662,1.528c0.03,0.029,0.063,0.058,0.097,0.085c0.629,0.531,1.569,0.899,2.297,1.252
		c1.7,0.823,3.589,1.997,5.517,1.27c0.885-0.335,1.372-0.795,1.946-1.532c0.319-0.411,0.593-0.847,1.117-0.925
		c0.474-0.07,0.938-0.128,1.409-0.124c0.062,0,0.123,0.001,0.184,0.002c0.943,0.019,2.001,0.096,2.68-0.698
		c0.461-0.538,0.685-1.25,0.45-1.928c-0.233-0.673-0.592-1.247-0.685-1.97c-0.07-0.546-0.068-1.093-0.184-1.636
		c-0.109-0.512-0.274-1.011-0.41-1.516c-0.224-0.821-0.461-1.595-0.629-2.425c-0.252-1.232-0.623-2.405-0.906-3.63
		c-0.252-1.083-0.405-2.201-0.664-3.286c-0.475-1.992-0.793-3.992-0.789-6.04c0.002-1.266-0.114-2.537-0.254-3.791
		c-0.131-1.18-0.166-2.378-0.297-3.562c-0.06-0.537-0.361-5.584-1.789-4.532c-0.582,0.431-0.856,1.345-0.873,2.04
		c-0.02,0.9-0.034,1.859-0.135,2.744c-0.113,1.017-0.008,2.097-0.068,3.12c-0.031,0.522-0.086,1.022-0.217,1.535
		c-0.045,0.187-0.068,0.775-0.231,0.843c-0.142-0.326-0.194-0.646-0.284-0.996c-0.115-0.455-0.281-0.877-0.333-1.344
		c-0.022-0.21-0.06-0.417-0.098-0.625c-0.157-0.848-0.166-1.599-0.15-2.449c0.019-0.967-0.062-1.953-0.114-2.918
		c-0.104-1.924-0.35-3.892-1.283-5.609c-0.331-0.609-1.262-1.775-2.067-1.475c-0.962,0.361-1.099,1.552-1.099,2.431
		c0,1.271,0.14,2.452,0.292,3.694c0.204,1.674,0.47,3.342,0.61,5.015c0.073,0.887-0.076,1.778-0.074,2.655
		c0.002,0.574,0,1.153-0.053,1.714c-0.027,0.276,0.117,0.989-0.337,0.816c-0.218-0.084-0.493-0.432-0.626-0.622
		c-0.182-0.263-0.292-0.589-0.453-0.886c-0.24-0.438-0.459-0.89-0.689-1.332c-0.379-0.723-0.751-1.461-1.154-2.175
		c-0.521-0.922-1.156-1.778-1.732-2.66c-0.607-0.929-1.121-1.914-1.731-2.84c-1.13-1.711-2.649-3.134-4.349-4.262
		c-0.551-0.367-1.178-0.715-1.865-0.622c-0.311,0.042-0.501,0.081-0.624,0.413c-0.099,0.266-0.106,0.676-0.069,0.969
		c0.096,0.732,0.348,1.503,0.686,2.162c0.219,0.429,0.531,0.805,0.767,1.225c0.244,0.438,0.458,0.889,0.704,1.324
		c1.175,2.082,2.49,4.13,3.646,6.207c0.395,0.707,0.951,1.374,1.317,2.066c0.325,0.612,0.499,1.293,0.761,1.944
		c0.189,0.478,0.291,0.933,0.221,1.446c-0.043,0.32-0.198,0.867-0.479,1.06c-0.221,0.152-0.373,0.031-0.601-0.006
		c-0.327-0.052-0.613-0.056-0.938-0.167c-0.487-0.169-0.86-0.486-1.259-0.797c-0.782-0.605-1.553-1.23-2.283-1.869
		c-1.253-1.099-2.246-2.51-3.369-3.749c-0.742-0.815-1.639-1.667-2.596-2.226c-0.826-0.483-1.479-1.346-2.24-1.955
		c-0.42-0.336-0.963-0.762-1.522-0.708c-0.568,0.054-1.011,0.23-1.298,0.76c-0.616,1.138,0.182,2.673,0.967,3.508
		c0.74,0.787,1.582,1.455,2.352,2.229c0.375,0.377,0.734,0.771,1.072,1.178c0.087,0.106,0.18,0.202,0.243,0.326
		c0.116,0.227,0.159,0.403,0.327,0.604c0.467,0.566,0.967,1.107,1.433,1.68c0.231,0.283,0.429,0.588,0.636,0.895
		c0.452,0.67,1.01,1.258,1.455,1.936"/>
	<path d="M194.508,193.938c3.027,0.757,4.702-3.036,7.476-3.434c4.175-0.598,2.455,6.596,7.106,5.322
		c-0.066-1.443-0.131-4.35,1.41-4.964c0.594-0.238,2.309,0.405,3.174,0.12c1.341-0.441,2.107-1.061,2.07-2.478
		c-0.084-3.162-6.68-5.375-6.092-7.979c2.469-0.562,5.75-0.337,6.322-3.714c0.297-1.756-1.506-3.254-2.277-4.745
		c-1.554-3.003-4.977-6.563-4.41-10.187c0.383-2.461,2.579-3.73,4.032-5.505c1.634-1.992,2.081-4.153,1.643-6.69
		c-0.584-3.381-2.332-6.717-5.144-8.683c-2.681-1.873-5.406-1.155-8.42-0.955c-2.49,0.166-5.113,0.169-7.568-0.223
		c-4.734-0.755-5.104-5.812-9.364-7.312c-1.308-0.459-4.179-1.798-5.552-1.793c-2.172,0.006-5.415,2.5-7.234,3.498
		c-1.518,0.832-3.826,3.088-5.652,3.036c-0.637-0.017-1.336-0.872-2-0.993c-1.895-0.346-4.564,0.215-5.862,1.67
		c-1.253,1.405-1.197,3.545-3.243,1.657c-1.487-1.368-1.307-2.477-3.885-1.823c-3.362,0.854-3.553,4.106-4.877,6.731
		c-1.569,3.118-5.377,3.272-7.651,5.859c-1.801,2.047-1.84,4.372-1.94,6.973c-0.175,4.507-0.336,8.953,0.662,13.39
		c0.928,4.127-0.929,3.959-3.853,6.312c-1.538,1.238-2.402,2.699-2.365,4.609c0.038,1.973,1.304,2.998,3.121,3.688
		c2.42,0.921,4.704-0.106,3.722,3.285c-0.339,1.169-1.212,2.794-1.24,3.929c-0.049,1.824,1.459,2.457,2.818,3.211
		c1.852,1.03,3.401,2.329,5.1,3.594c2.584,1.925,5.545,3.789,8.688,4.58c0.58-3.02-0.739-6.432-1.797-9.223
		c-1.267-3.345-1.394-8.016-1.218-11.562c2.088-0.24,4.072-1.295,6.087-1.95c2.858-0.931,6.289-1.536,9.294-2.104
		c4.082-0.769,8.372-1.032,12.439-1.692c2.228-0.361,4.399-1.081,6.703-0.952c0.996,2.832,2.607,5.746,3.906,8.648
		C189.794,187.678,191.446,193.172,194.508,193.938"/>
	<path fill="#245977" d="M196.601,173.749c-1.61-1.724-3.36-2.874-5.629-3.774c-2.506-0.996-5.003-1.899-7.621-2.562
		c-3.601-0.914-6.978-0.656-10.589-0.187c-4.414,0.574-9.225,1.102-13.264,3.104c-2.383,1.182-4.918,2.333-7.127,3.811
		c-2.84,1.901-3.134,4.887-3.483,8.021c-0.162,1.444-0.175,2.904-0.358,4.347c-0.132,1.045-0.078,1.725,0.234,2.711
		c0.717,2.252,0.398,4.672,0.999,6.947c0.312,1.178,1.082,2.044,1.489,3.11c0.402,1.055-0.379,2.375-0.543,3.434
		c-0.166,1.078-0.442,2.13,0.545,2.871c0.899,0.677,2.369,0.914,3.468,1.051c1.003,0.126,2.415-0.185,2.899,0.878
		c0.326,0.715,0.064,1.766,0.133,2.53c0.238,2.658-0.284,5.572-1.373,7.987c-1.023,2.266-1.777,4.592-2.894,6.816
		c-0.759,1.511-2.021,2.67-3.153,3.851c-0.642,0.67-0.678,0.847-0.084,1.703c0.429,0.62,0.947,0.964,1.6,1.313
		c1.468,0.787,3.07,0.986,4.773,0.989c3.521,0.007,6.379-1.261,9.418-2.829c0.858-0.443,1.759-0.915,2.58-1.462
		c1.623-1.077,3.33-2.333,5.01-3.283c0.463-0.263,2.033-1.024,2.553-0.692c0.629,0.401,0.434,1.557,0.908,2.089
		c0.41,0.458,1.539,0.569,2.083,0.534c0.934-0.06,1.61-1.017,2.581-0.877c-0.338,0.966,1.779,2.186,2.476,2.563
		c1.289,0.697,2.761,1.011,4.222,0.885c2.399-0.21,3.849-2.138,5.689-3.407c1.741-1.201,2.902-2.4,3.786-4.424
		c0.621-1.427,1.249-2.783,2.276-3.974c1.095-1.269,0.703-1.79,2.441-0.195c1.605,1.47,2.463,3.527,4.734,2.488
		c2.35-1.077,4.791-3.343,6.678-5.232c2.046-2.048,6.754-4.761,4.276-8.021c-1.132-1.49-2.926-2.506-4.122-4.002
		c-1.115-1.392-2.035-2.931-3.031-4.407c-1.555-2.304-3.194-4.55-4.693-6.893c-0.723-1.129-1.473-2.28-2.039-3.498
		c-0.383-0.831-1.082-1.2-1.42-2.041c-0.115-0.281-0.266-0.556-0.4-0.83c-0.27-0.553-0.531-1.103-0.797-1.652
		c-0.654-1.361-1.084-2.848-1.615-4.281c-0.721-1.947-1.904-3.572-3.248-5.103C196.846,174.018,196.724,173.881,196.601,173.749"/>
	<path d="M160.686,198.056c-1.57-1.819-4.889-3.096-7.309-2.869c-1.349,0.125-2.121,0.249-2.568,1.627
		c-0.462,1.421,0.479,2.491,0.465,3.812c0.575-0.004,1.038-0.727,1.545-1.055c0.758-0.489,1.965-0.815,2.938-0.785
		c1.002,0.029,1.958,0.294,2.968,0.328c0.886,0.027,1.852-0.078,2.62,0.322c0.034-0.617-0.431-1.383-0.712-1.963"/>
	<path d="M158.479,204.328c-0.019,1.062-2.295,1.431-3.045,1.498c-1.34,0.116-2.718-0.174-3.797-1.039
		c-0.406-0.327-0.48-0.665-0.906-0.336c-0.344,0.269-0.629,1.057-0.834,1.424c-0.55,0.988-1.418,2.275-2.445,2.817
		c0.738-0.188,1.361-0.734,2.019-1.102c0.901-0.504,1.511-1.033,2.255-1.692c-0.207,0.941-0.313,1.896-0.451,2.857
		c-0.135,0.949-0.687,2.098-0.67,2.99c1.041-0.271,1.305-2.488,2.026-3.178c0.463,0.702,0.633,1.578,1.049,2.314
		c0.388,0.691,0.862,1.906,1.483,2.402c-0.166-0.754,0.053-1.614,0.094-2.366c0.039-0.708-0.234-1.438-0.169-2.142
		c0.638,0.236,3.09,2.961,3.599,2.459c0.61-0.604-0.568-3.38-0.951-3.949c0.6,0.117,1.268,0.527,1.842,0.765
		c0.504,0.208,1.242,0.182,1.668,0.446c-0.65-0.799-2.081-1.111-2.528-2.062c1.388-0.04,2.681-0.05,4.033-0.379
		c-0.308-0.67-1.767-0.936-2.402-1.174c-0.483-0.181-1.595-0.384-1.884-0.706"/>
	<path fill="#FF0000" d="M189.493,204.183c-0.771,0.452-1.355,1.084-1.776,1.867c-1.743,3.249,1.606,7.921,5.276,6.737
		c3.604-1.162,5.578-5.885,2.315-8.608C193.704,202.839,191.144,203.214,189.493,204.183"/>
	<path d="M168.965,193.451c-0.123-0.586,0.155-1.312,0.251-1.891c0.136-0.811,0.392-1.689,0.854-2.369
		c1.236-1.814,3.377-3.08,5.191-4.244c2.125-1.363,6.221-3.422,8.258-0.74c-0.459-0.072-0.773,0.494-1.103,0.736
		c-0.517,0.379-1.095,0.692-1.662,1.029c-1.741,1.036-3.793,1.354-5.567,2.334c-1.721,0.949-3.933,1.503-5.363,2.895
		c-0.43,0.42-1.289,1.859-0.266,2.044"/>
	<path d="M180.539,225.751c0.229,0.069,0.955-0.696,1.208-0.915c0.502-0.437,1.007-0.756,1.412-1.3
		c0.404-0.545,0.734-1.111,1.156-1.628c0.342-0.415,0.576-0.951,0.918-1.333c0.135,0.802,0.664,1.643,0.486,2.51
		c-0.177,0.849-1.049,1.354-1.625,1.868c-0.57,0.508-1.352,0.907-2.062,1.215c-0.528,0.229-1.667,0.809-2.29,0.666
		c0.141-0.22,0.364-0.472,0.306-0.779"/>
	<path fill="#FFFFFF" d="M184.451,198.77c1.01-0.784,2.471-2.099,2.528-3.498c0.062-1.526-2.213-1.967-3.327-2.249
		c-1.252-0.316-3.188,0.057-4.341,0.452c-0.713,0.242-1.408,0.578-2.073,0.896c-0.624,0.3-1.423,0.494-1.956,0.892
		c-0.49,0.364-0.859,0.713-1.292,1.147c-0.315,0.317-0.935,0.91-1.078,1.329c-0.185,0.543,0.364,0.96,0.704,1.314
		c0.76,0.791,1.259,1.674,2.391,1.965c1.088,0.279,2.609,0.096,3.746-0.104c0.866-0.154,1.661-0.642,2.457-0.915
		C183.051,199.71,183.753,199.311,184.451,198.77"/>
	<path d="M172.964,197.938c-0.129-0.321,0.308-0.77,0.562-1.043c0.729-0.789,1.606-1.373,2.646-1.793
		c1.55-0.627,3.054-1.221,4.669-1.398c1.679-0.184,3.085,0.045,4.458,0.678c0.537,0.25,0.975,0.502,1.422,0.84
		c0.295,0.222,1.023,0.6,1.064,0.953c-0.469-1.228-0.946-2.451-1.418-3.681c-0.258-0.673-0.422-1.354-0.592-2.051
		c-0.071-0.293-0.187-0.632-0.24-0.936c-0.069-0.375,0.123-0.761-0.084-1.103c0.087,0.785-0.182,1.66-0.329,2.459
		c-0.122,0.665-0.599,1.814-0.442,2.413c-0.6,0.159-1.341-1.5-1.514-1.89c-0.266-0.601-0.586-1.16-0.84-1.77
		c-0.176-0.416-0.442-1.165-0.881-1.426c-0.021,0.792-0.258,1.6-0.426,2.385c-0.117,0.546-0.136,1.845-0.757,2.156
		c-0.639,0.32-2.29-0.535-2.864-0.753c-0.818-0.312-1.953-1.013-2.341-1.727c0.241,0.59,0.55,1.191,0.705,1.811
		c0.084,0.337,0.581,1.553,0.207,1.9c-0.338,0.313-0.659,0.044-0.957-0.044c-0.543-0.156-1.18-0.277-1.784-0.307
		c-0.947-0.048-1.99-0.064-2.919-0.094c0.399,0.546,1.101,1.01,1.664,1.438c0.5,0.378,0.935,0.833,1.427,1.189
		c-0.89,0.645-2.944,0.011-3.604,1.017c0.315,0.026,0.637,0.027,0.961,0.052c0.577,0.042,1.334,0.393,1.888,0.313"/>
	<path d="M187.193,195.428c0.594,0.486-1.985,3.043-2.425,3.342c-1.397,0.949-3.016,1.628-4.688,1.768
		c-1.621,0.137-3.183,0.451-4.71-0.179c-1.222-0.502-2.192-1.321-2.916-2.36c0.498,0.392,0.738,1.036,1.142,1.517
		c0.49,0.583,1.23,1.194,1.937,1.399c1.819,0.527,3.603,0.913,5.388-0.08c1.332-0.74,2.623-1.417,3.672-2.514
		c0.469-0.49,0.897-0.996,1.353-1.493c0.228-0.248,0.507-0.503,0.707-0.78c0.19-0.265,0.214-0.578,0.531-0.733"/>
	<path d="M175.274,195.466c0.163,0.491,0.115,1.133,0.381,1.691c0.287,0.606,0.698,1.155,1.154,1.643
		c0.711,0.758,1.671,1.232,2.68,1.447c1.087,0.229,1.809-0.017,2.828-0.369c0.982-0.34,1.93-0.942,2.416-1.911
		c0.688-1.365,1.048-4.189-0.835-4.793c-1.001-0.32-2.692-0.075-3.649,0.237c-0.902,0.296-1.777,0.526-2.682,0.814
		c-0.532,0.171-1.262,0.329-1.751,0.641c0.022,0.157-0.078,0.141-0.118,0.218"/>
</g>
</svg>
