<?xml version="1.0" encoding="utf-8"?>
<!-- Generator: Adobe Illustrator 16.0.4, SVG Export Plug-In . SVG Version: 6.00 Build 0)  -->
<!DOCTYPE svg PUBLIC "-//W3C//DTD SVG 1.1//EN" "http://www.w3.org/Graphics/SVG/1.1/DTD/svg11.dtd">
<svg version="1.1" id="Ebene_1" xmlns="http://www.w3.org/2000/svg" xmlns:xlink="http://www.w3.org/1999/xlink" x="0px" y="0px"
	 width="303.03px" height="498.049px" viewBox="0 0 303.03 498.049" enable-background="new 0 0 303.03 498.049"
	 xml:space="preserve">
<path fill="#FFFFFF" d="M201.544,160.04c-0.948,3.34,1.575,10.08,2.438,13.447c1.229,4.783,2.369,9.375,3.463,14.254
	c1.071,4.789,1.888,9.688,2.324,14.57c0.45,5.051-0.059,9.354-0.529,14.273c-0.44,4.59-1.625,9.279-2.636,13.892
	c-1.089,4.963-3.425,8.52-6.429,12.553c-4.654,6.248-11.164,13.125-18.681,16.049c0.039-1.74,0.987-3.219,1.645-4.807
	c1.278-3.082,2.35-6.539,3.068-9.799c1.745-7.906,4.37-15.615,6.186-23.499c0.96-4.164,1.843-8.354,2.747-12.529
	c1.088-5.018,2.412-10.934,4.954-15.412"/>
<path fill="#245977" d="M107.391,278.313c4.046-2.254,7.128-6.051,9.121-10.316c1.991-4.264,4.71-18.343,11.719-15.657
	c7.708,2.953,4.09,12.729,1.878,18.083c-3.117,7.539-8.498,11.934-15.605,15.494c-4.406,2.211-9.099,3.818-13.901,4.818
	c-22.376,4.657-38.809-14.236-50.235-31.655c-1.729-2.639-3.343-5.695-4.918-8.434c-1.373-2.383-1.229-6.928-4.174-8.102
	c-1.719-0.684-1.604,0.834-2.964,0.855c-1.108,0.02-1.961-0.477-2.859-1.025c-0.177-1.662-0.022-3.615,1.895-4.125
	c-0.736,1.197-3.14,3.088-4.33,1.094c-0.797-1.334,1.858-3.943,2.862-4.789c-1.17,0.646-1.597,1.344-2.952,1.525
	c-1.478,0.197-3.38-0.275-2.896-2.178c0.344-1.346,4.395-1.914,3.39-4.014c-0.526-1.102-2.97-0.945-3.953-0.809
	c-2.375,0.326-4.987,1.793-7.078,3.045c-1.41,0.85-4.021,3.77-5.659,2.922c-0.783-3.35,4.521-6.82,6.619-8.389
	c3.11-2.323,5.52-3.829,9.542-2.97c3.09,0.66,5.897,2.974,8.681,4.55c1.822,1.029,5.254,4.297,5.524,6.582
	c2.562,0.893,5.413,7.543,6.817,10.006c4.774,8.375,9.17,17.226,15.834,24.089C80.74,280.229,92.232,286.767,107.391,278.313"/>
<path d="M87.506,201.052c-0.239-0.199,0.241-1.051,0.315-1.447c0.13-0.686,0.045-1.352-0.046-2.047
	c-0.149-1.15-0.675-2.51-1.254-3.482c-1.452-2.445-4.827-3.992-7.126-1.766c-1.564,1.516-2.801,5.613-1.154,7.461
	c0.725,0.812,2.268,1.352,3.237,0.727c0.812-0.523,1.671-2.012,0.658-2.662c-0.128,0.885-0.983,1.227-1.76,1.109
	c-0.991-0.154-1.097-1.016-0.906-1.891c0.36-1.678,2.511-2.664,3.604-1.217c1.021,1.352,1.601,2.867,1.989,4.488
	c0.17,0.705,0.506,4,1.366,4.002c0.546-0.721,0.614-1.926,0.812-2.828c0.321-1.457,0.487-2.619,0.408-4.127"/>
<path fill="#245977" d="M180.601,133.301c-2.248,2.191-2.1,8.1-2.321,11.004c-0.489,6.345,0.933,12.823,0.331,19.192
	c-0.807,8.539-2.363,16.928-3.389,25.398c-1.168,9.65,0.697,20.848-6.969,28.445c-5.976,5.924-19.225,7.285-25.338,1.33
	c-3.097-3.02-5.398-7.365-6.408-11.523c-0.683-2.811-0.75-4.09-2.683-6.371c-1.238-1.459-2.096-3.117-4.162-3.355
	c0.478-5.176,2.969-10.242,2.686-15.434c-0.276-5.084-0.568-10.73-3.342-15.039c-3.155-4.9-9.57-8.13-15.278-8.412
	c-5.743-0.283-12.678,4.02-17.13,7.332c-5.578,4.148-7.438,8.748-8.869,15.277c-0.34,1.555-0.683,3.109-1.022,4.664
	c-0.324,1.486-0.851,3.25-0.769,4.783c0.062,1.184,0.445,2.379,0.562,3.566c0.158,1.566,0.316,3.145,0.491,4.705
	c0.158,1.436-0.198,2.822-0.509,4.238c-0.34,1.549-1.976,5.381-0.372,6.59c2.054,1.547,4.522-3.174,6.778-2.609
	c1.51,0.377,1.562,2.504,2.115,3.678c0.564,1.205,1.649,2.623,1.509,4.021c-0.09,0.906-0.358,1.566-0.143,2.469
	c0.587,2.475,2.362,0.828,3.904,0.549c2.394-0.436,4.575-0.225,6.921,0.287c1.516,0.328,3.178,0.193,4.65,0.68
	c3.604,1.186,6.979,6.059,8.301,9.485c0.892,2.322,1.445,4.816,2.404,7.156c1.436,3.498,2.244,7.164,3.724,10.631
	c0.323,0.76,0.702,1.496,1.017,2.262c0.315,0.766,0.194,1.098,0.33,1.834c0.231,1.232,1.189,2.164,1.84,3.18
	c0.573,0.895,1.239,1.625,1.728,2.564c0.47,0.908,1.255,1.887,2.041,2.545c3.322,2.778,6.919,4.919,10.548,7.245
	c2.198,1.41,4.834,2.041,7.156,3.189c1.374,0.68,2.809,0.971,4.266,1.441c1.541,0.498,3.056,1.082,4.579,1.631
	c2.64,0.953,5.655,0.324,8.185-0.598c1.8-0.652,3.512-1.723,5.262-2.521c0.881-0.4,1.762-0.867,2.533-1.379
	c2.014-1.332,3.996-2.316,5.664-4.123c1.696-1.838,3.369-3.613,4.771-5.708c1.79-2.674,3.411-5.465,5.247-8.107
	c1.736-2.502,3.546-4.93,5.249-7.465c1.852-2.754,3.227-5.656,4.615-8.678c1.761-3.836,2.873-8.112,3.994-12.183
	c1.19-4.322,1.912-8.883,2.317-13.33c0.474-5.203,0.812-10.92-0.521-15.986c-0.571-2.17-1.413-4.227-1.987-6.4
	c-0.601-2.275-1.609-4.408-2.15-6.705c-0.544-2.322-0.955-4.562-1.201-6.971c-0.544-5.281-0.817-10.587-1.27-15.876
	c-0.199-2.339-2.547-3.444-4.146-4.931c-1.956-1.818-3.85-3.908-6.1-5.348c-1.408-0.897-2.983-1.394-4.222-2.563
	c-2.956-2.786-4.409-6.811-6.851-10.067"/>
<path fill="#FFFFFF" d="M104.606,224.765c-0.108-0.055-0.216-0.111-0.32-0.166c-0.048-0.121-0.023-0.227,0.067-0.312
	c1.248,0.066,2.816-0.92,3.895-1.467c0.756-0.383,1.508-0.783,2.309-1.066c0.814-0.287,1.715-0.273,2.356-0.68
	c1.292-0.814,3.201-1.639,4.687-0.572c1.529,1.098,3.004,2.436,4.173,3.939c1.446,1.864,2.127,4.282,2.945,6.517
	c1.023,2.791,2.212,5.799,2.536,8.764c0.314,2.861,2.577,5.559,3.943,7.998c0.896,1.604,2.062,3.107,3.098,4.635
	c0.902,1.328,1.736,2.777,2.785,3.996c2.502,2.915,4.999,5.823,8.051,8.165c1.509,1.16,3.105,2.094,4.795,2.947
	c1.133,0.57,2.317,1.066,3.435,1.695c1.026,0.574,1.944,1.279,2.979,1.799c1.271,0.639,2.863,0.846,4.207,0.992
	c0.758,0.082,1.404,0.053,2.134,0.105c0.67,0.049,1.483-0.125,2.125,0.062c-2.603-0.592-4.858-1.35-7.31-2.246
	c-2.425-0.885-4.506-2.242-6.732-3.57c-4.424-2.641-8.334-6.184-11.438-10.376c-1.422-1.92-2.5-4.084-3.621-6.193
	c-1.589-2.992-3.679-5.572-4.998-8.689c-1.197-2.83-2.312-5.514-2.832-8.592c-0.537-3.156-0.644-6.55-1.434-9.626
	c-0.593-2.314-1.148-4.656-1.824-6.963c-0.302-1.021-0.588-2.127-1.123-3.051c-0.613-1.061-0.587-1.121-0.093-2.232
	c1.039-2.352,2.132-5.029,2.93-7.496c0.585-1.805,1.025-3.68,1.795-5.41c0.636-1.438,1.243-2.9,1.77-4.385
	c0.173-0.486,0.331-1.793,0.845-1.77c0.462,0.021,2.016,2.199,2.354,2.578c0.73,0.816,1.482,1.766,2.055,2.717
	c0.389,0.648,0.308,1.207,0.46,1.906c0.137,0.611,0.484,1.166,0.575,1.791c0.097,0.66-0.027,1.184,0,1.807
	c0.015,0.414,0.204,0.824,0.117,1.283c0.926-0.744,1.711-1.865,2.771-2.41c0.804-0.414,1.844-0.25,2.49-0.984
	c1.286-1.469,1.29-4.215,2.111-5.969c2.065-4.391,3.469-1.219,5.493,1.375c1.158,1.48,5.244,5.699,5.146,7.84
	c-0.029,0.633-1.768,3.01-2.219,3.703c-0.946,1.447-1.808,1.951-1.858,3.967c-0.011,0.518,7.14,1.875,8.135,1.596
	c6.577-1.844,7.565-9.207,8.188-14.84c0.913-8.271,0.514-16.621-0.039-24.896c-0.341-5.059-0.927-10.602-0.553-15.533
	c0.197-2.607-0.566-5.203-0.286-7.717c0.237-2.133,1.481-4.5,2.587-6.302c1.554-2.543,3.895-4.727,4.938-7.492
	c0.367-0.979,0.24-3.438,1.766-3.443c1.691-0.006,1.867,3.264,2.453,4.443c0.927,1.861,2.543,3.064,4.003,4.463
	c2.118,2.029,4.323,4.155,6.582,6.071c4.747,4.031,10.076,6.857,13.183,12.586c2.605,4.809,0.599,11.551,0.234,16.721
	c-0.517,7.324-1.211,14.689-1.416,22.039c-0.387,13.766-1.473,26.686-6.097,39.747c-3.427,9.682-7.8,20.866-16.104,27.323
	c-4.287,3.336-9.769,6.387-15.304,6.268c-1.946-0.041-3.863-0.729-5.764-1.092c-4.838-0.924-9.199-3.334-13.713-5.207
	c-2.273-0.943-4.584-1.754-7.016-2.172c-6.034-1.031-12.271,0.5-18.303-0.854c-1.444-0.324-1.823-0.393-1.524-1.932
	c0.222-1.135,0.528-2.247,0.867-3.351c0.639-2.088,1.392-4.145,1.859-6.283c0.514-2.342,0.797-5.328,0.814-7.74
	c0.017-2.045,0.52-4.17-0.041-6.18c-0.245-0.869-0.602-1.521-0.699-2.418c-0.104-0.955-0.455-1.768-0.761-2.666
	c-0.355-1.055-0.375-2.125-0.696-3.213c-0.286-0.973-0.578-1.879-0.878-2.854c-0.293-0.965-0.018-1.85-1.183-1.654
	c-0.917,0.154-1.481,0.371-2.459,0.266c-1.083-0.115-2.356-0.471-3.472-0.371c-1.01,0.092-2.087,0.402-3.139,0.432
	c-0.652,0.016-2.014,0.146-2.549-0.141c0.266-1.012,1.356-1.969,1.949-2.812c0.615-0.873,1.072-1.543,1.333-2.57
	c0.216-0.848,0.788-1.787,1.823-1.588c0.279,0.055,0.571,0.34,0.918,0.381c0.34,0.041,0.754-0.135,1.081-0.129
	c0.595,0.012,1.466,0.186,2.004,0.449c0.396,0.193,1.005,0.75,1.124,1.275c0.115,0.516-0.444,1.861-0.972,0.963"/>
<path fill="#245977" d="M151.551,181.935c-0.229,2.359-0.853,4.824-1.796,6.998c-0.307,0.705-0.811,1.264-1.048,2.004
	c-0.326,1.018-0.544,1.918-1.211,2.787c-0.311,0.41-0.746,0.869-0.929,1.361c-0.871,2.342,1.32,6.844,3.914,6.463
	c2.163-0.318,4.215-4.648,4.772-6.469c2.06-6.746,2.935-13.658,2.184-20.693c-0.659-6.18-2.056-12.115-2.997-18.223
	c-0.965-6.259-3.536-12.04-5.125-18.185c-2.192-8.485-2.59-17.545-1.277-26.225c0.289-1.89,0.656-3.77,1.125-5.621
	c0.233-0.927,0.489-1.846,0.771-2.759c0.071-0.229,0.143-0.456,0.217-0.683c0.051-0.157,0.04-0.416,0.066-0.504
	c0.098-0.323,0.335-0.676,0.464-1.014c0.14-0.371,0.196-0.809,0.318-1.189c0.167-0.52,0.328-1.088,0.46-1.62
	c0.39-1.597,1.031-3.212,1.733-4.697c0.563-1.187,0.955-2.399,1.664-3.499c0.652-1.011,1.066-2.066,2.252-2.52
	c0.759-0.289,1.918-0.197,2.685,0.098c0.199,0.078,0.371,0.253,0.555,0.359c0.272,0.16,0.557,0.26,0.822,0.436
	c0.404,0.266,0.771,0.566,1.092,0.934c0.327,0.367,0.653,0.731,0.944,1.119c0.302,0.403,0.764,0.846,1.321,0.799
	c0.842-0.074,0.667-1.563,0.479-2.139c-0.439-1.339-1.465-1.93-2.484-2.74c-0.899-0.711-2.032-1.232-2.806-2.09
	c-0.574-0.636-1.21-2.318-0.23-2.894c0.418-0.246,0.85-0.118,1.29-0.058c0.554,0.076,1.105,0.184,1.663,0.31
	c0.742,0.167,1.407,0.213,2.166,0.231c0.885,0.024,1.736,0.289,2.623,0.326c0.814,0.037,1.805-0.011,2.604-0.145
	c0.577-0.098,1.054-0.256,1.567-0.532c0.506-0.272,0.979-0.601,1.305-1.091c0.211-0.316,0.439-0.775,0.349-1.133
	c-0.111-0.44-0.636-0.789-1.028-0.971c-0.65-0.303-1.312-0.424-2.019-0.328c-0.769,0.106-1.382,0.49-2.104,0.715
	c-0.812,0.252-1.611,0.525-2.422,0.775c-1.175,0.358-2.453,0.67-3.668,0.512c-0.917-0.119-2.059-0.211-1.672-1.496
	c0.318-1.053,1.309-1.926,1.998-2.723c0.506-0.591,1.141-1.132,1.824-1.492c0.635-0.33,1.294-0.558,1.905-0.941
	c0.874-0.555,1.81-0.996,2.72-1.488c0.65-0.347,1.503-0.873,1.762-1.617c0.251-0.722,0.133-1.265-0.522-1.623
	c-0.489-0.269-0.99-0.41-1.55-0.527c-0.768-0.158-1.41,0.098-2.042,0.529c-0.329,0.225-0.645,0.442-0.931,0.726
	c-0.418,0.409-0.704,0.966-1.107,1.392c-0.963,1.014-2.021,1.836-3.13,2.66c-0.761,0.562-1.458,1.237-2.363,1.596
	c-0.328,0.131-0.812,0.237-1.15,0.016c-0.335-0.221-0.135-0.618,0.005-0.9c0.643-1.302,1.22-2.664,1.878-3.975
	c0.781-1.559,1.72-3.084,2.612-4.572c0.642-1.074,1.388-2.339,1.689-3.557c0.205-0.825,0.477-2.563-0.84-2.2
	c-0.783,0.214-1.436,0.86-1.99,1.433c-0.737,0.766-1.502,1.52-2.238,2.293c-0.995,1.049-1.729,2.338-2.695,3.411
	c-0.887,0.981-1.821,1.933-2.496,3.078c-0.456,0.771-0.984,1.595-1.552,2.291c-0.533,0.651-1.151,0.108-1.712-0.278
	c-0.471-0.322-0.511-0.492-0.645-1.062c-0.132-0.569-0.197-1.095-0.229-1.673c-0.054-0.985-0.08-1.969-0.047-2.963
	c0.021-0.613-0.205-1.748-0.991-1.588c-0.946,0.192-1.751,1.65-2.179,2.422c-0.762,1.373-1.195,3.17-1.229,4.725
	c-0.023,1.079,0.299,2.025,0.653,3.012c0.38,1.057,0.783,2.072,1.357,3.018c0.504,0.828,0.729,1.959,0.717,2.918
	c-0.012,1.025-0.449,2.035-0.771,2.994c-0.207,0.625-0.404,1.248-0.596,1.89c-0.327,1.099-0.902,2.136-1.366,3.181
	c-0.301,0.68-0.646,1.363-1.046,1.996c-1.246,1.98-2.292,4.03-3.216,6.195c-0.484,1.136-0.933,2.29-1.326,3.461
	c-4.737,14.098-2.148,30.268,4.042,43.342c3.482,7.361,5.765,15.419,7.21,23.45C151.406,172.226,152.023,177.118,151.551,181.935"/>
<path d="M99.735,182.843c-0.368,0.643-0.672,1.326-1.129,1.912c0.856-0.514,1.737-0.898,2.424-1.711
	c0.534-0.629,1.089-1.201,1.769-1.668c1.088-0.746,3.205-1.855,3.987-0.314c0.752,1.473,1.133,2.846,1.537,4.473
	c0.177,0.707,0.873,4.941,1.528,4.908c0.77-2.184,0.597-4.826,0.393-7.107c-0.103-1.152-0.226-2.332-0.354-3.463
	c-0.073-0.656-0.142-1.922-0.779-2.344c-0.72-0.473-2.09-0.084-2.794,0.258c-0.701,0.34-1.382,0.795-2.034,1.24
	c-0.825,0.562-1.585,1.252-2.38,1.848C101.151,181.438,100.22,182.001,99.735,182.843"/>
<path d="M92.556,176.276c0.234,2.459-0.915,4.916-1.938,7.059c-0.076-0.514-0.258-1.012-0.283-1.533
	c-0.027-0.529,0.151-1.006,0.206-1.564c0.095-1.01,0.422-2.387,0.049-3.377c-0.556-1.477-1.568,0.055-2.06,0.713
	c-0.375,0.504-0.832,0.998-1.205,1.533c-0.349,0.502-0.544,1.184-0.937,1.625c0.115-0.668,0.459-1.391,0.729-1.998
	c0.32-0.721,0.571-1.443,0.911-2.148c0.306-0.637,0.639-1.279,1.013-1.896c0.276-0.451,0.885-1.873,1.409-1.982
	C92.078,172.362,92.455,175.228,92.556,176.276"/>
<path fill="#FFFFFF" d="M104.33,194.075c-0.116,0.098-0.131,0.102-0.047,0.01c0.668-1.312,0.436-3.309-0.768-4.168
	c-1.304-0.928-3.071-0.482-4.348,0.24c0.222,0.506,0.086,1.143,0.289,1.688c0.28,0.756,0.929,1.25,1.528,1.736
	c0.509,0.412,1.271,0.834,1.964,0.742c0.359-0.047,1.147-0.498,1.23-0.871"/>
<path fill="#FFFFFF" d="M89.486,186.327c-0.063,0.01-0.124,0.023-0.188,0.047c-0.522-0.615-0.895-1.178-1.686-1.35
	c-0.932-0.207-1.238-0.08-2.047,0.389c0.563,0.914,0.766,1.561,1.861,1.773c0.782,0.152,2.155-0.271,2.151-1.279"/>
<path d="M104.511,194.558c-0.117,0.096-0.131,0.102-0.046,0.012c0.565-1.141-0.441-3.494-1.323-4.27
	c-0.662-0.58-1.54-0.406-2.275-0.275c-0.344,0.061-0.682,0.078-1.017,0.209c-0.279,0.109-0.513,0.375-0.79,0.432
	c0.132-0.564,0.678-1.359,0.967-1.918c0.212,0.32-0.031,0.852-0.121,1.201c0.338-0.404,0.564-1.025,1.098-1.172
	c-0.004,0.334-0.15,0.643-0.156,0.975c0.327-0.119,0.673-0.508,1.014-0.674c0.416-0.205,0.908-0.354,1.366-0.424
	c0.172,0.271-0.015,0.676-0.095,0.988c0.234-0.254,0.449-0.527,0.816-0.492c-0.039,0.451-0.221,0.902-0.252,1.348
	c0.287-0.059,0.574-0.182,0.858-0.182c-0.031,0.311-0.065,0.748-0.279,0.967c0.437,0.113,0.665-0.521,1.147-0.332
	c-0.062,0.666-0.361,1.369-0.792,1.846c0.288-0.061,0.633-0.246,0.899-0.35c-0.264,0.562-0.774,1.279-1.207,1.721
	c0.15-0.076,0.295-0.086,0.43-0.125c-0.635,1.111-2.497,0.158-3.24-0.414c-1.072-0.816-1.569-1.727-2.058-2.949
	c-0.38,1.453,0.802,3.258,1.854,4.047c0.496,0.369,1.542,0.902,2.166,0.633c0.54-0.234,0.846-1.273,0.977-1.842"/>
<path d="M89.928,186.278c-0.043,0.023-0.085,0.045-0.128,0.068c-0.45-0.721,0.619-1.568,0.758-2.236
	c-0.422,0.422-0.779,0.9-1.266,1.246c0.031-0.445,0.219-0.891,0.237-1.332c-0.295,0.221-0.422,0.658-0.691,0.822
	c0.045-0.463,0.001-0.971,0.104-1.424c-0.345,0.096-0.502,0.775-0.762,0.996c-0.105-0.363-0.248-1.637-0.605-1.748
	c-0.104,0.371-0.312,0.67-0.416,1.027c-0.282-0.395-0.309-1.264-0.789-1.447c-0.2,0.348,0.035,1.285,0.221,1.607
	c-0.243-0.545-0.438-1.021-0.83-1.443c-0.074,0.635,0.498,1.531,0.648,2.143c-0.211-0.334-0.832-0.777-1.154-0.537
	c0.733,0.186,0.527,0.801,1.004,1.117c1.115-0.895,3.027,0.146,3.25,1.494c-0.957,0.178-1.526,0.771-2.432,0.184
	c-0.695-0.453-1.15-1.211-1.422-1.922c-0.217,0.908,0.441,2.301,1.275,2.738c0.713,0.373,1.208,0.24,1.726-0.322
	c0.212-0.227,0.421-0.467,0.597-0.742c0.197-0.311,0.294-0.801,0.554-1.051"/>
<path d="M102.619,191.124c-0.135,0.07-0.146,0.084-0.031,0.035c1.114-0.148,0.762,1.934,0.629,2.486
	c-0.264,1.086-1.204,1.518-2.286,1.221c-2.305-0.625-0.696-6.008,1.75-4.021"/>
<path d="M87.881,185.331c-0.134,0.066-0.146,0.08-0.03,0.039c0.991-0.213,1.055,2.934-0.633,2.316
	c-0.428-0.156-0.639-0.711-0.611-1.17c0.043-0.717,0.409-0.873,0.862-1.277"/>
<path fill="#FF0000" d="M101.013,210.409c-0.049,0.707-0.902,1.439-1.42,1.863c-0.653,0.535-1.205,1.115-1.797,1.707
	c-0.327,0.328-1.233,0.605-1.622,0.219c-0.202-0.203-0.238-0.535-0.25-0.809c-0.007-0.154-0.027-0.34,0.006-0.49
	c0.033-0.146,0.042-0.318,0.134-0.441c0.13-0.17,0.344-0.164,0.502-0.281c-0.06-0.021-0.146,0.025-0.205,0.043
	c-0.09,0.025-0.184,0.045-0.271,0.07c-0.092,0.027-0.159,0.076-0.261,0.068c-0.17-0.01-0.341-0.148-0.452-0.275
	c-0.113-0.125-0.198-0.273-0.257-0.434c-0.108-0.299-0.125-0.66,0.05-0.939c0.118-0.186,0.309-0.299,0.519-0.346
	c0.526-0.117,1.014-0.111,1.508,0.066c0.647,0.232,1.322,0.531,2.002,0.648C99.904,211.2,100.387,210.593,101.013,210.409"/>
<path d="M121.856,185.802c-0.441-0.303-0.943-0.52-1.412-0.791c-0.353-0.205-0.885-0.725-1.301-0.676
	c-0.504,1.447-0.709,3.117-0.89,4.617c-0.119,0.988-0.209,2.049-0.099,3.045c0.096,0.879,0.394,1.697,0.41,2.594
	c0.022,1.107,0.465,3.197-0.647,3.824c-1.451,0.824-3.03,2.217-4.729,2.449c0.188-0.471,0.146-1.143,0.231-1.654
	c0.158-0.936,0.346-1.891,0.482-2.838c0.354-2.436,0.602-4.898,0.852-7.361c0.348-3.408,0.339-6.762-0.385-10.062
	c-0.21-0.961-0.254-1.877-0.684-2.768c-0.233-0.48-0.33-0.785-0.744-1.053c-0.505-0.332-1.09-0.541-1.631-0.846
	c-1.734-0.975-3.528-1.77-5.492-2.105c-0.925-0.158-1.771-0.588-2.68-0.811c-0.9-0.223-1.781-0.129-2.644,0.219
	c-0.536,0.215-1.057,0.574-1.653,0.566c-0.865-0.014-1.615-0.646-2.336-1.053c-0.226-0.127-0.457-0.246-0.7-0.336
	c-0.738-0.271-1.3,0.48-2.002,0.652c-0.253,0.062-0.462-0.021-0.708-0.043c-0.314-0.029-0.649-0.039-0.947,0.09
	c-0.365,0.156-0.586,0.492-0.807,0.809c-0.236,0.34-0.495,0.633-0.824,0.879c-0.231,0.172-0.476,0.324-0.654,0.557
	c-0.271,0.352-0.346,0.795-0.471,1.213c-0.158,0.533-0.308,1.051-0.428,1.596c-0.069,0.316-0.164,0.627-0.241,0.936
	c-0.084,0.348-0.174,0.674-0.324,0.998c-0.15,0.316-0.144,0.615-0.21,0.959c-0.059,0.299-0.169,0.555-0.216,0.859
	c-0.074,0.471-0.244,0.889-0.29,1.359c-0.045,0.469-0.271,0.773-0.766,0.643c-0.58-0.154-1.387-0.5-1.606,0.301
	c-0.237,0.869-0.252,1.787-0.5,2.66c-0.271,0.936-0.687,1.852-1.36,2.561c-1.871,1.977-6.001,2.896-8.527,3.689
	c-4.177,1.309-6.536,2.85-10.854,2.572c-6.188-0.395-12.208-1.488-15.446-7.66c-2.621-4.996-1.731-13.064-0.003-18.234
	c3.668-0.289,8.041,6.16,12.304,1.916c3.153-3.139-5.388-9.311-3.304-14.288c3.876,3.081,6.034,7.251,11.75,7.056
	c3.753-0.131,6.918-2.838,10.876-2.836c1.849,0.002,5.471,1.682,5.627-1.156c0.045-0.858-1.92-3.148-2.338-3.887
	c-1.436-2.531-3.924-6.66-3.111-9.523c3.229,3.613,4.01,7.717,10.006,7.646c2.03-0.025,4.507-1.043,6.461-1.588
	c5.531-1.546,12.176,1.329,17.356,3.067c2.317,0.774,4.626,1.688,6.788,2.87c3.258,1.779,5.988,4.076,8.689,6.613
	c2.072,1.947,3.999,4.279,5.476,6.746c1.046,1.744,0.813,4.02,0.657,5.969c-0.224,2.77-0.831,5.535-1.624,8.191
	c-0.39,1.309-0.644,2.68-1.371,3.844c-0.748,1.197-1.279,2.482-1.848,3.773c-0.589,1.33-1.179,2.377-2.636,2.83
	c-0.768,0.24-1.577,0.49-2.361,0.756c-0.441,0.15-0.917,0.242-1.348,0.428c-0.409,0.174-0.794,0.514-1.268,0.441
	c0.311-1.049-0.217-2.662-0.208-3.752c0.004-0.756,0.091-1.527,0.22-2.266c0.104-0.604,0.107-1.195,0.294-1.775
	c0.157-0.486,0.266-0.814,0.094-1.34C123.496,186.962,122.618,186.323,121.856,185.802"/>
<path d="M99.547,208.483c1.563,0.363,3.22,0.373,4.817,0.574c1.597,0.205,2.945-0.381,4.145-1.426
	c2.075-1.811,3.261-4.828,1.782-7.369c-0.691-1.199-2.062-1.814-3.338-2.096c-1.554-0.348-2.783,0.131-4.041,1.111
	c-1.218,0.949-2.468,3.047-2.32,4.717c0.062,0.705,0.834,1.41,1.406,1.674c0.631,0.291,1.368-0.098,1.771-0.596
	c-0.135,0.021-0.32-0.037-0.479,0.014c-0.795-0.979,0.402-2.844,1.36-3.186c0.973-0.35,2.594-0.436,2.919,0.787
	c0.612,2.307-2.586,4.365-4.544,4.393c-2.72,0.033-4.331-2.35-6.801-2.889c-0.482-0.105-0.968-0.211-1.46-0.244
	c-0.12-0.008-0.239-0.01-0.359-0.01c-0.084,0-0.168-0.027-0.25-0.014c-0.187,0.035-0.348,0.207-0.495,0.316
	c-0.285,0.209-0.502,0.496-0.658,0.822c-0.115,0.242-0.256,0.482-0.308,0.746c-0.047,0.244-0.118,0.475-0.166,0.723
	c-0.031,0.168-0.062,0.373-0.03,0.543c0.052,0.266,0.181,0.42,0.384,0.592c0.205,0.172,0.42,0.375,0.68,0.445
	c0.089,0.025,0.163,0.018,0.248-0.029c0.082-0.049,0.147-0.121,0.223-0.182c0.066-0.053,0.143-0.074,0.21-0.123
	c0.157-0.119,0.249-0.271,0.443-0.346c0.684-0.26,1.411,0,2.045,0.242C97.647,208.024,98.594,208.263,99.547,208.483"/>
<path d="M129.24,223.306c-1.223,0.035-1.803-1.896-1.539-2.947c0.114-0.447,0.65-0.865,0.989-1.129
	c0.229-0.178,0.386-0.32,0.655-0.244c0.886,0.256,1.776,1.383,1.434,2.326C130.48,222.14,130.289,223.274,129.24,223.306"/>
<path d="M130.163,230.775c0.424,0.234,0.981,0.082,1.079,0.68c0.059,0.387,0.065,0.869,0.075,1.268
	c0.022,0.812-0.375,1.596-1.28,1.287c-1.499-0.51-0.771-3.504,0.849-2.998"/>
<path d="M133.815,242.869c-0.805-0.518-1.078-1.631-0.704-2.512c0.158-0.365,0.501-0.814,0.923-0.865
	c0.435-0.051,1.343,0.307,1.6,0.66c0.281,0.385,0.314,0.936,0.269,1.391C135.789,242.629,134.929,243.59,133.815,242.869"/>
<path d="M138.731,251.119c-0.932,0.01-1.558-0.758-1.353-1.709c0.093-0.434,0.396-0.834,0.598-1.219
	c0.226-0.428,0.65-0.859,1.169-0.715c0.49,0.137,0.632,0.824,0.731,1.271C140.074,249.635,139.882,251.109,138.731,251.119"/>
<path d="M143.398,256.48c0.271-0.68,0.862-0.67,1.468-0.58c0.533,0.08,0.788,0.426,0.94,0.953c0.27,0.92-0.143,1.955-1.206,1.893
	C143.576,258.686,143.007,257.463,143.398,256.48"/>
<path d="M150.297,263.638c-0.73-0.326-0.835-1.723-0.042-2.066c0.283-0.125,0.889-0.018,1.14,0.139
	c0.364,0.225,0.371,0.715,0.287,1.098C151.547,263.411,150.984,263.942,150.297,263.638"/>
<path d="M155.897,267.28c-0.634-0.521-0.419-1.771,0.44-1.922c0.689-0.123,1.235,0.711,1.104,1.334
	C157.269,267.501,156.552,267.817,155.897,267.28"/>
<path d="M162.867,270.337c-0.611,0.053-1.246-0.4-1.162-1.086c0.035-0.258,0.143-0.393,0.361-0.506
	c0.242-0.123,0.679-0.383,0.966-0.369c0.258,0.014,0.841,0.119,0.973,0.385c0.078,0.154,0.009,0.557-0.017,0.727
	C163.904,270.095,163.429,270.29,162.867,270.337"/>
<path d="M170.249,269.224c-0.177,0.314-0.052,0.984-0.625,1.225c-0.446,0.184-1.34-0.088-1.485-0.613
	c-0.373-1.371,3.885-2.783,3.993-1.684"/>
<path d="M178.335,264.87c-0.391,0.377-2.15,2.779-2.589,1.113c-0.331-1.27,2.54-3.031,3.055-1.57"/>
<path d="M185.483,255.629c-0.447,0.428-1.147,3.26-2.292,2.279c-0.604-0.52,0.403-1.621,0.744-1.891
	c0.404-0.318,0.891-0.613,1.413-0.607"/>
<path d="M189.314,247.324c-0.324,0.488-0.374,4-1.762,3.133c0.146-1.377,1.227-3.037,2.44-3.729"/>
<path d="M193.169,236.408c-0.178,0.811-0.46,3.629-1.653,3.539C190.975,238.723,192.277,237.113,193.169,236.408"/>
<path d="M196.155,225.294c-0.13,0.121-0.101,1.261-0.18,1.644c-0.115,0.58-0.203,1.223-0.418,1.764
	c-0.703-0.445-0.117-2.496,0.344-3.091"/>
<path d="M197.086,211.851c-0.15,0.209,0.243,1.918-0.057,2.596c-0.644-0.459-0.161-1.607-0.02-2.238"/>
<path d="M199.548,200.62c-0.284,0.434-0.195,1.229-0.426,1.76c-0.596-0.947,0-3.109,0.236-4.234"/>
<path d="M198.892,187.755c-0.045,0.037-0.094,0.076-0.141,0.113c0.299,0.15,0.311,1.232,0.113,1.539
	c-0.85-0.049-0.139-2.541-0.008-3.158"/>
<path d="M200.077,175.677c-0.305,0.111-0.294,0.482-0.396,0.822c-0.74-0.07-0.229-2.193,0.187-2.367"/>
<path d="M200.578,165.878c0.003,0.125-0.035,0.236-0.113,0.332c-0.328-0.689,0.163-2.232,0.351-3.084"/>
<path d="M127.428,215.331c-1.587-1.494,5.64-6.707,6.946-7.811c1.824-1.547,2.818-3.094,3.129-5.527
	c0.375-2.9-0.538-1.621-2.061-3.316c0.828,2.092-1.063,7.775-2.193,9.674c-1.049,1.762-2.554,2.709-4.114,3.986
	c-0.611,0.502-1.313,0.904-1.865,1.484c-0.74,0.781-0.998,2.02-1.963,2.498"/>
<path d="M125.258,216.8c-0.206,0.027,0.127-0.705,0.206-0.846c0.4-0.715,1-1.305,1.432-2.008c0.713-1.16,1.289-2.602,1.563-3.938
	c0.097-0.467-0.025-0.799-0.091-1.252c-0.068-0.455-0.148-0.369-0.573-0.406c-1.135-0.096-2.312-0.699-3.244-1.322
	c-0.24-0.162-0.757-0.6-1.044-0.615c-0.396-0.021-0.416,0.34-0.576,0.617c-0.297,0.523-0.747,0.973-1.081,1.463
	c-0.532,0.785-0.991,1.734-1.321,2.627c-0.273,0.746-0.584,1.654-0.628,2.459c-0.05,0.912,0.27,1.756,0.595,2.586
	c0.293,0.75,0.706,1.588,1.46,1.908c-0.33,0-0.326-0.236-0.469-0.459c-0.212-0.33-0.484-0.541-0.889-0.555
	c-0.438-0.016-0.932,0.312-1.123,0.717c-0.169,0.355-0.014,0.664-0.04,1.012c-0.47-0.969-2.318-1.379-3.251-1.143
	c-1.102,0.277-1.776,1.408-2.934,1.561c-0.52,0.068-1.443-0.02-1.889-0.355c-0.231-0.174-0.595-0.494-0.599-0.818
	c0.122,0.504,0.159,0.988,0.219,1.488c0.125,1.068,0.303,2.066,0.553,3.119c0.251,1.057,0.636,2.264,1.56,2.877
	c0.671,0.443,1.521,0.646,2.315,0.451c0.674-0.164,1.272-0.588,1.748-1.102c0.449-0.484,1.053-0.928,1.431-1.453
	c0.401-0.564,0.702-1.273,0.851-1.943c0.113-0.508-0.074-1.266,0.133-1.713c0.494,0.488,1.155,0.982,1.887,1.008
	c0.903,0.033,1.707-0.965,1.225-1.834c0.41,0.031,0.899-0.232,1.253-0.414c1.031-0.533,1.644-1.512,2.115-2.592"/>
<path d="M121.26,227.992c-0.647-0.244-1.009-1.217-0.873-1.872c0.065-0.301,0.318-0.688,0.668-0.539
	c0.005,0.031-0.016,0.041-0.01,0.066c0.142,0.033,0.327,0.039,0.448,0.127c0.192,0.137,0.258,0.468,0.363,0.659
	c0.183,0.326,0.553,0.795,0.479,1.199C122.256,228.07,121.602,228.121,121.26,227.992"/>
<path d="M123.401,231.533c0.644,0.117,0.873,0.557,1.026,1.199c0.125,0.52-0.004,1.295-0.7,1.162
	c-0.645-0.121-0.847-1.086-0.815-1.643c0.031-0.57,0.617-1,1.023-0.426"/>
<path d="M125.147,240.518c-0.464-0.506-0.777-1.787-0.295-2.363c0.505-0.607,1.253-0.357,1.731,0.158
	C127.384,239.174,126.331,241.814,125.147,240.518"/>
<path d="M129.107,247.641c-0.311,0.111-0.586-0.129-0.774-0.346c-0.399-0.457-0.771-1.678-0.346-2.236
	c0.337-0.443,0.877,0.154,1.088,0.445c0.243,0.338,0.37,0.73,0.339,1.15C129.39,246.971,129.449,247.514,129.107,247.641"/>
<path d="M132.02,252.023c-0.87,0.201-1.438-1.379-0.565-1.766c0.328-0.146,0.749,0.33,0.907,0.828
	C132.493,251.498,132.446,251.922,132.02,252.023"/>
<path d="M136.621,258.66c-0.451-0.225-1.739-1.57-0.931-2.053c0.597-0.352,1.116,0.684,1.36,1.059
	c0.141,0.217,0.463,0.65,0.276,0.93C137.174,258.83,136.832,258.768,136.621,258.66"/>
<path d="M142.479,262.882c0.486,0.115,0.761,0.291,1.122,0.664c0.377,0.393,1.137,1.074,1.105,1.662
	c-0.365-0.035-0.604-0.146-0.897-0.371c-0.427-0.322-1.151-0.857-1.435-1.348c-0.488-0.846,1.016-0.141,1.258,0.002"/>
<path d="M149.729,268.103c0.17,0.184,0.465,0.189,0.668,0.314c0.22,0.133,0.885,0.611,0.491,0.809
	c-0.298,0.148-0.994-0.295-1.196-0.455c-0.438-0.346-1.085-0.881-1.333-1.42c-0.004-0.068,0.027-0.088,0.094-0.061"/>
<path d="M253.32,205.946c0.206,6.219,0.251,12.383,0.708,18.643c0.872,11.935,1.056,24.056,0.864,36.047
	c-0.119,7.678-0.747,15.252-0.692,22.959c0.086,12.128,0.56,5.268,0.71,17.419c0.141,11.654-1.408,9.189-0.307,20.807
	c0.17,1.774,0.297,3.55,0.375,5.327c0.041,0.906,0.086,1.816,0.092,2.721c0.002,0.688-0.154,1.201,0.003,1.896
	c0.262,1.148,0.502,2.285,0.705,3.453c0.196,1.127,0.272,2.25,0.335,3.389c0.061,1.092,0.305,2.146,0.421,3.232
	c0.174,1.602,0.23,3.199,0.403,4.797c0.082,0.756,0.104,1.525,0.162,2.279c0.021,0.293,0.205,0.799,0.062,1.068
	c-1.48,0.355-3.134,0.547-4.68,0.514c-0.893-0.02-1.791,0.053-2.683,0.033c-0.804-0.02-1.604-0.27-2.402-0.275
	c-0.827-0.004-1.855,0.238-1.862-0.834c-0.002-0.445,0.089-0.977,0.172-1.412c0.249-1.34,0.652-2.703,0.761-4.061
	c0.067-0.871-0.215-1.643-0.341-2.49c-0.205-1.352-0.065-2.779-0.07-4.145c-0.005-1.494-0.008-2.99,0.034-4.488
	c0.175-5.961,1.561-11.96,1.561-17.925c0-4.648,0.163,4.891,0.258,0.26c0.081-3.844,0.596-7.58,0.215-11.441
	c-0.315-3.203-0.957-6.34-1.259-9.561c-0.406-4.356-0.089,3.686,0.039-0.67c0.177-5.933,0.424-5.331,0.743-11.257
	c0.3-5.578,1.258-11.385,0.972-16.924c-0.61-11.899-0.848-23.829-1.483-35.735c-1.18-21.981-1.664-44.772-10.85-65.331
	c-1.717-3.842-4.064-7.887-7.534-10.5c-1.811-1.361-3.106-1.232-5.04-2.021c-2.009-0.82-3.971-3.039-6.302-2.895
	c-1.218,0.074-1.765,0.687-2.591,1.109c-1.719,0.877-3.416,1.379-4.768,2.842c-0.539,0.584-1.119,1.121-1.673,1.686
	c-0.878,0.891-5.11,7.611-6.588,6.829c-0.384-2.228-2.987-2.397-4.633-3.218c-2.604-1.295-5-2.977-7.449-4.535
	c-4.659-2.965-9.287-6.166-13.038-10.257c-3.43-3.737-3.049-6.529-1.438-11.078c1.723-4.859,4.685-9.176,7.371-13.557
	c2.6-4.242,5.841-8.765,9.65-11.951c8.228-6.879,18.051-9.312,28.836-6.308c6.428,1.79,10.23,6.776,13.494,12.052
	c1.357,2.19,2.199,5.014,3.112,7.422c1.43,3.783,3.538,7.25,5,11.023c5.67,14.646,7.71,30.925,8.451,46.366
	c0.369,7.664,1.487,15.316,1.924,22.967C253.18,202.134,253.257,204.044,253.32,205.946"/>
<path d="M236.567,182.89c1.575,12.432,2.866,24.93,2.864,37.459c-0.002,21.159,0.419,42.348-0.354,63.547
	c-0.09,2.512-0.865,7.146-2.112,27.296c-0.352,5.67,0.081,11.261-0.512,16.933c-0.521,4.969,0.076,10.064-0.102,15.053
	c-0.146,3.967-0.34,7.934-0.469,11.902c-0.057,1.748-0.246,3.568-0.041,5.312c0.171,1.463,0.41,2.854,0.329,4.332
	c-0.061,1.182-0.138,2.363,0.062,3.537c0.276,1.631,1.021,3.01,1.457,4.586c0.512,1.859,0.583,3.773,0.958,5.646
	c0.232,1.162,1.404,3.314,0.472,4.314c-0.397,0.426-0.785,0.326-1.314,0.316c-0.747-0.014-1.55-0.045-2.312-0.186
	c-0.987-0.186-1.884-0.396-2.901-0.391c-1.968,0.016-3.868-0.57-5.815-0.805c-1.329-0.162-2.631-0.594-3.865-1.111
	c-0.407-0.17-0.789-0.387-1.184-0.572c-0.214-0.102-0.644-0.15-0.808-0.271c-0.598-0.436-0.557-1.816-0.479-2.438
	c0.167-1.336,0.498-2.65,0.948-3.924c0.346-0.979,0.516-1.934,0.642-2.959c0.113-0.943,0.01-1.852,0.089-2.785
	c0.113-1.338,0.337-2.605,0.699-3.889c0.501-1.77,0.446-3.609,0.357-5.428c-0.091-1.846,0.046-3.592,0.205-5.432
	c0.342-3.949,0.851-7.877,1.25-11.818c0.102-0.98,0.194-1.963,0.276-2.943c0.609-7.246,1.129-14.5,1.558-21.761
	c0.802-13.584,1.65-12.918,2.166-26.517c0.31-8.145,0.284-3.229,0.699-5.439c0.682-3.637,0.575-7.893-0.181-11.527
	c-0.677-3.248,0.529-6.723,0.702-10.018c0.138-2.656-0.214-5.339-0.375-7.989c-0.216-3.588-0.238-7.139-0.703-10.699
	c-0.69-5.312-1.298-10.707-2.026-15.916c-0.423-3.048-0.261-6.226-0.513-9.31c-0.459-5.668-1.396-11.295-2.508-16.891
	c-0.824-4.156-2.414-8.152-3.86-12.131c-2.026-5.572-4.499-11.023-7.114-16.357c-0.791-1.619-1.616-3.221-2.436-4.824
	c-1.766-3.459-3.146-7.195-5.062-10.564c-1.258-2.211-3.464-3.182-5.07-5.03c-2.445-2.819,1.592-5.621,3.761-6.94
	c1.473-0.896,3.085-1.823,4.709-2.433c2.188-0.82,4.588-0.585,6.845-1.125c1.809-0.434,3.617-0.251,5.441-0.311
	c1.031-0.032,2.057-0.299,3.043-0.322c1.646-0.04,3.521,0.529,4.633,1.753c0.727,0.797,1.008,1.98,1.4,2.947
	c1.24,3.076,1.509,6.322,2.092,9.543c0.422,2.326,1.958,4.131,2.368,6.451C235.652,169.399,235.72,176.21,236.567,182.89"/>
<path fill="#245977" d="M232.482,399.253c-0.725,5.91-1.247,11.822-1.209,17.721c0.031,4.426-0.957,9.08-1.527,13.477
	c-0.273,2.119-0.133,4.127-0.228,6.277c-0.08,1.811-0.563,4.463-0.241,6.289c0.266,1.52,1.717,2.115,2.566,3.229
	c0.416,0.549,0.794,1.186,1,1.842c0.664,2.119,0.34,4.012-0.954,5.812c-0.728,1.012-1.661,1.863-2.804,2.418
	c-1.453,0.703-2.582,0.482-4.121,0.227c-2.41-0.402-5.157-0.77-7.578-0.508c-3.508,0.381-6.938,1.766-10.054,3.32
	c-5.833,2.904-13.354,4.75-18.69-0.34c-1.849-1.762-4.09-4.402-3.544-7.256c0.215-1.121,1.318-2.43,2.62-2.178
	c1.167,0.223,2.169,1.652,2.746,2.551c0.367,0.57,0.65,1.211,1.057,1.736c0.387,0.51,0.859,0.85,1.545,0.859
	c0.7,0.012,1.143-0.555,0.852-1.238c-0.451-1.047-2.293-1.598-3.179-2.232c-0.537-0.389-1.046-1.232-0.505-1.85
	c0.435-0.496,1.242-0.289,1.727-0.016c0.512,0.285,2.851,2.566,3.463,1.75c0.314-0.42-2.695-2.174-2.979-2.637
	c-0.885-1.436,0.951-1.727,1.906-0.902c1.054,0.902,1.589,2.016,3.174,2.016c0.394-0.811-2.607-1.648-2.888-2.451
	c-0.562-1.615,2.295-0.846,2.932-0.318c0.454,0.377,0.838,0.799,1.084,1.32c0.206,0.438,0.211,0.951,0.453,1.369
	c0.924,1.592,2.747,0.412,4.047,0.264c1.705-0.197,3.877-1.498,5.631-1.963c1.714-0.451,3.271-1.107,4.991-1.502
	c1.302-0.299,3.972-0.297,4.979-1.578c0.323-0.414,0.727-2.393,0.855-2.92c0.301-1.221,0.867-2.494,1.12-3.537
	c1.022-4.232,1.555-8.545,2.087-12.91c1.027-8.383,2.053-17.066,2.013-25.504c-0.02-4.203-0.068-8.559-0.078-12.596
	c-0.005-1.963-0.015-3.922,0.196-5.783c0.325-2.881,1.977-2.627,4.628-2.582c1.942,0.035,6.054,1.262,6.449,3.502
	c0.213,1.209-0.615,2.611-1.075,3.689c-0.443,1.037-1.109,2.01-1.26,3.137C233.237,392.581,232.888,395.923,232.482,399.253"/>
<path fill="#245977" d="M247.985,348.329c0.272-0.982,1.417-2.182,2.453-2.459c1.457-0.389,1.915,0.695,2.11,1.82
	c0.194,1.117,0.396,2.273,0.543,3.414c0.269,2.1,0.242,4.184,0.466,6.297c0.145,1.355,0.601,2.773,0.468,4.137
	c-0.042,0.42-0.188,0.834-0.112,1.258c0.084,0.467,0.222,0.914,0.243,1.443c0.058,1.291,0.112,2.582,0.143,3.873
	c0.099,4.439,1.233,8.934,1.396,13.377c0.126,3.455-0.261,6.896-0.079,10.344c0.33,6.162-0.745,12.338-0.077,18.396
	c0.164,1.492,0.219,2.99,0.413,4.477c0.176,1.33,0.271,2.725,0.715,3.982c0.228,0.646,0.578,1.254,1.002,1.777
	c0.724,0.893,1.782,1.215,2.757,1.768c2.457,1.404,3.686,4.084,2.87,6.742c-0.356,1.156-0.982,1.943-1.63,2.945
	c-0.598,0.926-1.049,1.918-1.617,2.852c-0.567,0.938-1.449,2.014-1.476,3.07c-0.015,0.434-0.123,0.771-0.225,1.191
	c-0.359,1.5-0.537,3.016-0.723,4.553c-0.377,3.064-0.641,6.104-0.716,9.166c-0.071,2.775-0.088,5.459-2.294,7.531
	c-0.902,0.846-2.178,1.93-3.343,2.402c-1.01,0.414-2.172,0.377-3.234,0.58c-1.609,0.305-3.188,0.762-4.838,0.318
	c-1.196-0.32-2.877-1.621-2.952-2.918c-0.08-1.305,0.585-2.143,1.936-2.283c1.159-0.119,2.379,0.129,3.548,0.27
	c0.564,0.07,1.177,0.258,1.696-0.051c0.55-0.328,0.643-1.045-0.003-1.355c-0.494-0.238-1.19-0.018-1.67,0.102
	c-0.599,0.152-1.219,0.182-1.821,0.25c-0.562,0.064-1.229,0.279-1.804,0.078c-0.574-0.199-0.803-0.904-0.391-1.393
	c0.501-0.59,4.314-0.453,3.157-1.797c-0.767-0.891-2.982,1.316-3.409-0.277c-0.311-1.164,1.971-1.393,2.666-1.758
	c1.725-0.904,1.507-2.746,2.357-4.201c0.489-0.844,0.707-1.709,0.971-2.637c0.318-1.117,0.845-2.162,1.176-3.271
	c1.222-4.105,2.356-8.389,2.348-12.701c-0.005-3.912-1.148-8.336-1.871-12.201c-0.858-4.578-1.504-9.309-1.913-14.012
	c-0.761-8.729-0.204-17.51-0.01-26.398c0.105-4.84,0.283-9.773,0.255-14.564c-0.014-2.32,0.14-4.648,0.188-6.928
	c0.028-1.17,0.412-2.334,0.426-3.508C248.096,350.831,247.664,349.497,247.985,348.329"/>
<path fill="#FFFFFF" d="M195.644,114.482c-0.466,0.188-0.788,0.576-1.293,0.836c1.607,3.474,4.502,10.465,4.744,14.152
	c-1.5-0.205-2.826-0.019-4.032,0.575c-0.88-5.424-6.805-12.216-3.381-16.923c1.752,0.494,2.206-0.363,3.151-0.842"/>
</svg>
