<?xml version="1.0" encoding="utf-8"?>
<!-- Generator: Adobe Illustrator 16.0.4, SVG Export Plug-In . SVG Version: 6.00 Build 0)  -->
<!DOCTYPE svg PUBLIC "-//W3C//DTD SVG 1.1//EN" "http://www.w3.org/Graphics/SVG/1.1/DTD/svg11.dtd">
<svg version="1.1" id="Ebene_1" xmlns="http://www.w3.org/2000/svg" xmlns:xlink="http://www.w3.org/1999/xlink" x="0px" y="0px"
	 width="552.055px" height="354.035px" viewBox="0 0 552.055 354.035" enable-background="new 0 0 552.055 354.035"
	 xml:space="preserve">
<g>
	<path fill="#245977" d="M313.557,221.197c-0.712-0.794-1.407-1.604-2.026-2.454c-1.776-2.464-4.18-4.605-5.231-7.545
		c-1.105-3.064-1.92-6.22-1.842-9.514c0.113-4.909,3.421-18.586,8.901-19.834c0.968-0.219,2.091-0.318,3.042-0.023
		c1.209,0.376,1.815,1.376,2.823,2.053c1.765,1.187,3.503,2.362,5.159,3.713c1.022,0.854,1.855,1.923,2.867,2.803
		c0.98,0.855,1.957,1.73,2.858,2.68c0.68,0.719,1.422,1.372,2.192,2.016c0.945,0.785,1.788,1.646,2.716,2.455
		c4.687,4.093,9.032,8.593,13.741,12.649c3.196,2.753,6.513,5.321,9.595,8.199c1.481,1.395,3.125,2.607,4.674,3.908
		c1.312,1.102,2.478,2.298,3.692,3.513c1.037,1.028,2.172,1.957,3.208,3.009c1.085,1.098,2.319,2.039,3.489,3.056
		c2.145,1.883,4.151,3.954,6.25,5.893c1.552,1.426,3.261,2.561,4.716,4.077c0.392,0.396,0.862,0.745,1.271,1.141
		c0.432,0.414,0.611,0.444,1.124,0.679c0.326,0.146,0.737,0.537,1.055,0.765c0.57,0.406,1.176,0.74,1.763,1.136
		c1.089,0.723,2.044,1.654,3.226,2.258c2.98,1.523,5.984,3.054,8.875,4.763c2.764,1.628,5.562,3.164,8.41,4.629
		c1.475,0.761,2.962,1.529,4.479,2.22c2.115,0.968,4.201,2.146,6.339,3.036c1.682,0.703,3.264,1.643,4.972,2.284
		c1.315,0.487,2.588,1.086,3.898,1.586c1.495,0.564,3.002,1.089,4.456,1.797c0.726,0.341,1.504,0.697,2.116,1.247
		c0.437,0.396,0.727,0.895,1.129,1.312c1.11,1.178,2.49,2.181,3.759,3.187c2.52,2.012,5.149,3.9,7.844,5.678
		c5.434,3.547,11.145,6.617,16.931,9.496c7.595,3.77,14.701,8.015,22.385,11.47c2.916,1.307,5.152,3.859,8.291,4.807
		c2.943,0.887,6.039,1.675,9.132,2.126c3.619,0.549,7.415,1.014,11.085,1.157c2.748,0.117,6.62,0,8.814,1.716
		c0.951,0.748,1.7,1.781,2.641,2.51c1.311,1.023,2.84,1.688,4.172,2.638c2.069,1.465,4.111,3.246,6.207,4.655
		c1.387,0.922,1.708,1.984,2.763,3.079c0.466,0.496,3.307,1.18,3.383,1.635c0.097,0.549,0.073,1.163-0.065,1.705
		c-1.211,0.546-3.887,0.694-5.194,0.15c-1.228-0.513-1.769-1.863-2.828-2.592c-1.088-0.755-2.029-1.226-3.077-2.193
		c-3.635-3.344-6.457,1.096-10.042,1.684c-2.858,0.468-4.705-1.195-7.289-1.684c-3.08-0.57-3.207-0.167-6.12,0.7
		c-4.537,1.34-6.708,1.277-10.733-1.497c-4.335-2.987-7.58-6.335-12.706-7.923c-4.506-1.402-9.237-1.798-13.642-3.586
		c-10.295-4.181-20.296-7.874-30.737-12.879c-11.343-5.433-22.055-10.277-31.822-18.579c-1.973-1.667-3.975-3.291-6.025-4.857
		c-2.799-2.142-5.679-4.184-8.628-6.087c-2.822-1.823-5.731-2.99-9.01-3.588c-1.271-0.229-2.584-0.723-3.876-1.049
		c-1.136-0.292-2.274-0.542-3.401-0.821c-0.517-0.136-1.048-0.144-1.568-0.27c-0.554-0.135-1.085-0.246-1.627-0.351
		c-0.693-0.125-1.42-0.455-2.104-0.651c-0.853-0.254-1.675-0.556-2.509-0.882c-3.855-1.49-7.8-2.631-11.5-4.488
		c-1.326-0.672-2.736-1.252-4.124-1.762c-1.591-0.588-3.089-1.486-4.589-2.262c-1.578-0.805-3.125-1.696-4.709-2.5
		c-1.218-0.625-2.435-1.231-3.57-2.011c-2.262-1.562-4.628-2.925-6.819-4.599c-1.185-0.902-2.38-1.746-3.604-2.576
		c-1.169-0.797-2.132-1.954-3.212-2.883c-1.699-1.474-3.479-2.821-5.151-4.321c-0.94-0.84-1.931-1.589-2.883-2.419
		c-0.918-0.78-1.635-1.777-2.548-2.55c-1.399-1.196-2.531-2.621-3.762-3.991C314.814,222.567,314.176,221.892,313.557,221.197z"/>
	<path fill="#245977" d="M192.73,174.502c-4.446,0.827-7.783,4.419-10.142,8.186c-1.166,1.861-2.302,3.815-2.649,6.022
		c-0.375,2.373-0.662,4.787-1.51,7.052c-0.547,1.447-1.808,5.462-3.398,5.805c0.67,1.741,0.152,4.278,0.081,6.172
		c-0.095,2.238-0.647,3.17-1.328,5.03c-1.379,0.252-2.32-0.447-3.395-1.118c0.422,1.134,1.835,1.984,2.585,2.968
		c2.175,2.866,2.604,7.688,3.212,11.182c0.55,3.141,0.324,7.156-1.446,9.854c-1.7,2.587-4.708,2.759-7.582,3.009
		c-3.675,0.322-6.441-2.321-9.068-4.479c-6.941-5.694-12.844-13.409-17.495-21.137c-3.008-4.994-5.946-9.866-9.77-14.276
		c-2.317-2.672-4.828-5.708-6.387-8.94c-2.316-4.788-2.611-9.446-2.409-14.66c0.163-4.237,0.456-7.328,2.646-10.952
		c2.144-3.543,3.39-7.868,5.148-11.646c3.647-7.858,7.883-15.455,12.908-22.469c7.748-10.807,14.732-18.91,27.736-21.716
		c7.193-1.551,14.521-1.459,21.875-1.865c19.904-1.091,42.642,3.677,59.706,14.61c13.612,8.732,24.312,19.818,33.951,32.494
		c8.969,11.8,7.743,24.722,8.715,38.574c0.541,7.587,1.947,15.084,3.632,22.469c0.623,2.738,1.519,5.455,1.596,8.275
		c0.102,3.718-1.367,6.861-3.179,9.982c-1.169,2.026-2.288,4.495-3.958,6.165c-3.048,3.069-8.039,5.135-12.236,5.711
		c-1.461,0.201-3.068,0.28-4.465-0.269c-1.266-0.487-2.389-0.664-3.651-1.036c-1.36-0.403-2.629-1.001-3.94-1.524
		c-3.077-1.189-6.052-4.156-6.991-7.474c-1.805-6.353-4.204-14.075-9.777-17.814c-6.403-4.309-11.581-7.609-15.118-15.007
		c-2.596-5.442-7.208-9.792-11.234-14.101c-4.918-5.267-7.636-9.803-14.881-11.707C205.362,174.53,198.177,173.489,192.73,174.502z"
		/>
	<path d="M303.249,254.568c-0.662,1.168-1.249,2.326-2.036,3.449c-1.417,2.02-2.901,3.706-4.634,5.469
		c-0.934,0.952-2.048,2.551-3.497,2.426c-3.863-0.339-7.391-2.35-10.495-4.698c-1.875-1.419-3.904-2.894-5.466-4.626
		c-1.521-1.688-3.317-3.187-4.63-5.054c-1.404-1.967-2.97-3.753-4.669-5.461c-3.652-3.66-7.699-6.929-11.113-10.836
		c-9.878-11.324-14.432-23.854-30.455-27.538c-1.605-0.367-3.416-1.188-5.053-1.119c-2.066,0.088-4.105,0.63-6.136,0.993
		c-3.181,0.562-5.817,2.266-8.684,3.611c-1.616,0.76-3.371,1.919-4.683,3.144c-1.544,1.429-3.374,2.38-5.11,3.601
		c-1.282,0.889-2.601,1.752-3.757,2.842c-0.597,0.555-1.372,1.652-2.068,1.962c-0.8-1.972-2.708-3.69-4.099-5.19
		c-1.382-1.502-3.127-3.115-4.012-5.002c-0.821-1.765-1.315-3.847-1.862-5.727c-1.192-4.105-2.126-8.288-3.544-12.316
		c-2.433-6.895-5.268-13.594-8.404-20.319c-3.701-7.959-6.758-15.713-10.864-23.411c-3.952-7.404-8.924-14.736-12.596-22.32
		c-1.175-2.411-3.339-5.816-3.801-8.423c-1.368-7.706,6.36-12.441,11.321-16.944c6.36-5.79,14.532-6.391,22.566-8.518
		c7.883-2.095,15.857-4.307,23.885-4.222c17.422,0.207,35.36,0.609,51.177,7.229c8.355,3.499,15.818,6.725,23.416,11.906
		c7.419,5.064,13.348,10.981,19.71,17.394c10.709,10.778,14.493,25.798,19.599,39.707c5.049,13.74,2.996,30.283,4.348,44.822
		c0.339,3.61,0.558,7.246,0.408,10.871c-0.203,5.028-0.929,10.61-3.875,14.823c-1.268,1.812-2.236,3.601-3.103,5.637
		c-1.093,2.593-2.85,4.729-4.4,7.035c-0.955,1.425-2.165,2.736-3.053,4.226C303.475,254.181,303.36,254.369,303.249,254.568z"/>
	<g>
		<path fill="#FFFFFF" d="M194.603,205.92c-0.349-0.153-0.455-0.487-0.291-0.83c3.461-7.278,8.405-13.57,12.668-20.338
			c-6.552-4.33-14.448-5.808-20.798-10.528c-0.191-0.15-0.305-0.404-0.225-0.646c3.103-9.201,11.347-15.354,14.368-24.548
			c-7.458-1.358-15.019-2.085-22.424-3.82c-0.357-0.088-0.433-0.536-0.282-0.827c4.63-9.113,11.671-16.931,14.135-27.094
			c-10.239-4.06-21.703-4.91-31.229-10.783c-0.289-0.18-0.328-0.65-0.071-0.877c5.374-4.705,12.254-8.03,17.276-13.224
			c-0.771,0.212-1.547,0.418-2.315,0.63c-8.032,2.168-16.204,2.775-22.561,8.688c-4.958,4.598-12.682,9.431-11.308,17.308
			c0.464,2.664,2.631,6.146,3.808,8.61c3.678,7.754,8.655,15.251,12.614,22.821c4.112,7.87,7.175,15.797,10.883,23.934
			c3.143,6.876,5.982,13.725,8.421,20.772c1.421,4.118,2.358,8.394,3.554,12.59c0.548,1.923,1.044,4.051,1.867,5.854
			c0.887,1.929,2.633,3.579,4.017,5.114c1.391,1.534,3.301,3.293,4.102,5.309c0.696-0.315,1.472-1.437,2.067-2.004
			c1.155-1.113,2.473-1.993,3.755-2.901c1.734-1.245,3.564-2.216,5.107-3.675c1.311-1.251,3.064-2.434,4.681-3.209
			c0-0.004,0.004-0.004,0.016-0.007C202.438,210.248,198.651,207.78,194.603,205.92z"/>
		<path fill="#FFFFFF" d="M222.066,207.59c4.985-6.408,12.579-10.012,18.034-16.023c-4.46-3.549-8.86-7.478-14.262-9.359
			c-0.366-0.134-0.524-0.667-0.199-0.939c5.168-4.369,11.583-6.618,17.53-9.597c-5.745-4.33-11.065-10.266-18.175-11.955
			c-0.409-0.104-0.467-0.671-0.195-0.943c4.946-5.025,10.018-9.928,14.487-15.427c-5.042-3.844-11.369-7.993-17.756-8.061
			c-0.52-0.003-0.722-0.82-0.226-1.043c5.103-2.304,10.573-3.673,15.547-6.291c-6.061-4.934-13.299-9.339-20.981-10.572
			c-0.521-0.077-0.723-0.752-0.229-1.043c5.904-3.536,12.24-6.115,18.568-8.691c-7.48-4.081-14.602-9.145-22.956-11.09
			c-0.437-0.107-0.505-0.846-0.082-1.025c4.875-2.084,9.882-3.759,14.888-5.459c-8.824-1.04-17.857-1.213-26.764-1.331
			c-2.117-0.02-4.223,0.131-6.324,0.386c-3.984,5.076-8.851,9.279-13.647,13.521c2.707,1.623,6.066,2.544,9.002,3.577
			c2.803,0.997,5.615,1.954,8.359,3.082c2.808,1.164,9.319,3.174,9.448,7.168c0.157,4.455-3.601,9.109-6.034,12.428
			c-2.754,3.768-5.78,7.292-8.632,10.966c6.987,0.068,14.139,1.054,20.6,3.867c0.279,0.127,0.433,0.39,0.348,0.699
			c-2.466,9.14-10.643,14.817-14.601,23.133c4.179,1.091,8.413,2.431,12.284,4.396c3.062,1.566,6.3,3.885,5.245,7.96
			c-1.461,5.678-5.952,10.508-8.515,15.702c-1.165,2.369-2.545,5.7-0.459,8.015c1.229,1.366,2.638,2.503,4.037,3.687
			c0.624,0.529,1.568,1.161,2.42,1.863c0.733-0.271,1.483-0.49,2.274-0.628c2.029-0.369,4.068-0.921,6.135-1.01
			C221.512,207.535,221.788,207.558,222.066,207.59z"/>
		<path fill="#FFFFFF" d="M236.882,205.531c-1.999,1.578-4.071,3.155-6.249,4.508c1.907,0.744,3.605,1.642,5.184,2.659
			c0.513-1.67,1.077-3.32,1.751-4.915c0.125-0.297,0.37-0.432,0.675-0.359c5.459,1.278,10.91,2.392,15.987,4.86
			c1.51-5.994,2.128-12.104,2.399-18.277c0.02-0.419,0.48-0.671,0.83-0.441c1.93,1.271,3.83,2.607,5.748,3.908
			c-1.402-5.615-1.429-11.496-2.79-17.146c-0.118-0.504,0.426-0.799,0.822-0.596c2.109,1.132,4.009,2.609,6.065,3.828
			c-0.349-8.254-0.749-16.607-3.505-24.439c-0.171-0.474,0.451-0.844,0.811-0.595c3.299,2.297,6.349,4.93,9.464,7.459
			c-0.335-8.485-0.791-16.958-2.392-25.304c-0.076-0.392,0.297-0.822,0.692-0.657c4.605,1.89,8.71,4.753,13.061,7.144
			c-4.155-7.431-6.563-15.785-6.972-24.388c-0.02-0.383,0.393-0.595,0.698-0.514c5.722,1.569,11.132,4.047,16.625,6.272
			c-0.689-0.813-1.399-1.617-2.156-2.392c-6.368-6.558-12.302-12.61-19.724-17.792c-7.603-5.302-15.068-8.603-23.428-12.186
			c-2.818-1.212-5.712-2.202-8.65-3.042c-2.832,1.728-5.521,3.765-8.177,5.611c5.02,3.243,10.423,5.651,15.913,7.927
			c0.462,0.191,0.462,0.745,0.081,1.021c-4.832,3.529-10.165,6.193-15.176,9.42c5.128,2.293,10.403,4.273,15.195,7.287
			c0.273,0.177,0.342,0.665,0.074,0.884c-3.822,2.978-7.595,6.21-12.113,7.945c3.7,1.789,7.397,3.535,11.342,4.71
			c0.333,0.099,0.479,0.537,0.287,0.832c-0.462,0.719-0.982,1.402-1.522,2.077c-3.287,5.482-7.353,10.408-11.19,15.478
			c-0.738,0.972,1.153,2.38,1.869,3.283c0.858,1.077,1.712,2.168,2.58,3.239c0.695,0.856,1.39,1.729,2.12,2.58
			c0.269,0.188,0.532,0.387,0.765,0.566c2.652,2.056,5.389,3.981,8.074,5.995c0.273,0.198,0.352,0.636,0.068,0.875
			c-4.71,4.142-9.721,9.61-15.916,11.301c4.208,3.052,8.214,6.396,12.46,9.396c0.303,0.219,0.306,0.605,0.073,0.879
			C245.101,198.51,241.08,202.204,236.882,205.531z"/>
		<path fill="#FFFFFF" d="M304.812,190.891c0.037-0.438,0.462-0.656,0.825-0.45c1.407,0.804,2.81,1.604,4.223,2.399
			c0.815-0.345,1.745-0.367,2.807,0.093c1.793,0.772,3.184,2.261,4.354,3.903c-0.176-10.338-0.426-20.84-3.759-30.094
			c-3.05-8.466-5.627-17.314-9.475-25.429c-5.096-0.356-9.782-2.675-14.812-3.476c0.833,8.581,2.756,16.996,5.244,25.214
			c0.107,0.386-0.333,0.82-0.694,0.656c-4.752-2.152-8.102-6.222-12.072-9.511c-0.267,8.959,0.264,17.911-0.069,26.869
			c-0.016,0.35-0.373,0.627-0.702,0.503c-2.283-0.824-4.029-2.298-5.776-3.9c0.6,8.273,0.576,16.565,0.245,24.85
			c-0.023,0.537-0.796,0.768-1.017,0.24c-1.399-3.262-3.747-5.6-6.384-7.727c2.162,5.92,1.728,12.319,2.645,18.553
			c0.084,0.537-0.527,0.93-0.922,0.503c-2.263-2.487-4.736-4.741-7.17-7.044c-1.441,5.47-1.765,11.163-3.005,16.678
			c-0.084,0.369-0.523,0.458-0.799,0.294c-4.021-2.304-7.999-4.604-12.331-6.201c-0.479,1.057-0.933,2.124-1.402,3.172
			c3.976,4.876,7.419,10.507,12.003,15.881c1.124,1.312,2.324,2.553,3.542,3.766c1.705-5.298,3.036-10.757,6.903-14.91
			c0.18-0.196,0.439-0.161,0.654-0.061c4.302,2.115,6.823,6.227,9.836,9.85c3.57-7.316,2.828-15.984,5.603-23.594
			c0.133-0.349,0.493-0.471,0.81-0.294c2.284,1.277,13.25,14.041,15.015,11.438c1.606-2.375,2.252-5.589,2.925-8.365
			C302.521,206.705,304.083,198.855,304.812,190.891z"/>
		<path fill="#FFFFFF" d="M317.252,206.339c-1.318-0.539-2.461-1.549-3.431-0.112c-2.069,3.051-3.639,6.381-4.973,9.834
			c-2.379,6.15-4.31,12.553-8.04,18.012c-0.18,0.261-0.473,0.311-0.741,0.164c-3.548-1.915-6.83-4.317-10.478-6.041
			c-1.628,6.491-2.288,13.478-6.062,19.139c-0.157,0.238-0.501,0.343-0.741,0.166c-4.853-3.628-9.042-8.638-14.956-10.384
			c-0.92,2.629-2.086,5.213-2.976,7.861c1.023,0.983,2.046,1.958,3.035,2.972c1.701,1.747,3.268,3.574,4.673,5.585
			c1.315,1.909,3.111,3.442,4.635,5.168c1.562,1.772,3.594,3.281,5.469,4.732c3.107,2.402,6.637,4.461,10.5,4.81
			c1.449,0.13,2.562-1.504,3.495-2.476c1.731-1.801,3.214-3.523,4.629-5.586c0.787-1.147,1.373-2.33,2.034-3.523
			c0.11-0.203,0.225-0.396,0.331-0.591c0.888-1.521,2.096-2.86,3.05-4.314c1.549-2.357,3.304-4.538,4.395-7.187
			c0.865-2.081,1.832-3.908,3.099-5.759c2.942-4.304,3.664-10.008,3.863-15.146c0.146-3.704-0.075-7.42-0.417-11.109
			C317.456,210.522,317.338,208.434,317.252,206.339z"/>
	</g>
	<path fill="#245977" d="M320.448,304.091c-0.007,0.078-0.007,0.156-0.01,0.234"/>
	<path d="M123.467,168.769c0.799,0.617,1.125,1.841,1.667,2.801c0.538,0.968,1.361,1.84,1.951,2.806
		c0.809,1.317,1.669,2.608,2.467,3.929c1.647,2.736,3.215,5.451,5.008,8.096c3.115,4.613,6.494,8.94,9.869,13.362
		c2.592,3.397,5.02,6.96,7.798,10.218c3.07,3.594,6.399,6.969,9.756,10.273c3.685,3.638,6.903,7.613,10.992,10.771
		c1.393,1.088,2.574,1.801,4.137,2.572c1.193,0.584,0.84,0.791,0.251,1.886c-0.611,1.128-1.005,2.56-1.414,3.776
		c-1.673,5.052-2.783,10.415-3.99,15.521c-0.091,0.4-0.084,0.76-0.241,1.145c0.655-0.326,1.346-0.836,2.05-1.075
		c0.979-0.333,2.147-0.136,3.192-0.093c2.919,0.123,5.714,0.473,8.584,0.888c2.641,0.379,5.512,0.575,8.146,0.759
		c4.086,0.288,8.199,0.35,12.295,0.526c12.176,0.507,24.358,0.99,36.506,1.784c4.751,0.305,9.514,0.799,14.207,1.697
		c3.056,0.58,6.157,1.041,9.201,1.686c6.465,1.374,13.077,2.007,19.561,3.344c9.116,1.885,17.371,5.585,25.551,9.911
		c3.835,2.035,7.89,3.69,11.632,5.89c1.894,1.116,3.964,1.902,5.667,3.354c1.371,1.187,2.689,2.296,3.933,3.537
		c1.646,1.634,3.604,3.078,4.864,5.093c1.064,1.678,1.982,3.494,2.845,5.352c1.273,2.691,1.586,5.01,1.992,7.84
		c0.413,2.87-0.572,4.771-2.431,7.012c-4.052,4.884-12.187,5.939-17.948,6.945c-4.656,0.809-9.359,1.151-14.017,1.995
		c-2.247,0.408-4.482,0.398-6.754,0.633c-3.13,0.312-6.286,0.841-9.434,0.804c-7.763-0.081-15.499-0.706-23.251-0.768
		c-7.291-0.055-14.621,0.595-21.91,0.272c-9.52-0.438-19.062-0.341-28.589-0.746c-8.488-0.356-16.99-0.951-25.468-0.659
		c-9.618,0.322-19.217,0.659-28.831,0.253c-8.333-0.358-16.652-0.937-24.978-1.293c-7.19-0.305-14.418-0.68-21.598-0.393
		c-7.511,0.301-15.113,0.085-22.586,0.944c-3.189,0.366-6.454,0.304-9.557,0.952c-1.77,0.365-4.12,0.757-5.949,0.411
		c-0.186-2.88,0.865-6.047,2.034-8.618c1.099-2.437,1.95-4.986,2.929-7.486c0.924-2.376,1.983-4.674,2.63-7.166
		c0.505-1.927,1.082-3.766,1.303-5.716c0.211-1.751,0.86-3.39,0.914-5.167c0.046-1.344,0.349-2.595,0.392-3.942
		c0.049-1.294,0.632-2.479,0.644-3.708c0.8,0.054,1.668-0.473,2.478-0.588c1.317-0.188,2.614-0.055,3.94-0.172
		c4.358-0.388,8.658,0.008,13.02,0.545c10.883,1.359,21.869,1.681,32.874,2.15c7.075,0.298,14.131,0.932,21.176,1.588
		c3.608,0.331,7.244,0.646,10.84,1.116c4.362,0.581,8.849,0.289,13.212,0.898c4.356,0.611,8.859,0.712,13.244,0.965
		c3.772,0.219,7.534,0.564,11.325,0.726c4.067,0.169,8.139,0.346,12.209,0.519c4.827,0.21,9.647,0.897,14.465,1.082
		c17.381,0.651,34.741,2.21,52.11,2.894c-1.046-0.13-2.14-0.647-3.233-0.84c-2.046-0.354-4.22-0.035-6.276-0.308
		c-2.921-0.402-5.87-0.252-8.803-0.546c-3.872-0.383-7.714-0.944-11.58-1.442c-8.124-1.056-16.287-2.276-24.466-2.917
		c-4.01-0.314-8.059-0.681-12.059-1.147c-2.376-0.278-4.76-0.377-7.118-0.652c-2.539-0.293-5.111-0.251-7.649-0.555
		c-7.782-0.939-15.779-0.851-23.619-1.187c-7.158-0.291-14.276-0.844-21.425-1.138c-6.869-0.273-13.737-1.049-20.634-1.333
		c-5.982-0.258-11.967-0.741-17.957-0.994c-7.809-0.334-15.562-0.143-23.344-0.52c-2.053-0.094-4.179,0.317-6.261-0.078
		c-0.636-0.121-1.567-0.458-2.11-0.915c-0.776-0.651-0.761-1.599-0.749-2.684c0.054-4.605,0.313-9.24,1.241-13.661
		c0.624-2.925,1.579-5.909,2.365-8.821c0.525-1.931,0.93-3.896,1.492-5.809c0.685-2.314,1.392-4.664,1.948-7.005
		c2.02-8.423,4.753-16.638,6.79-25.048c1.842-7.628,3.372-15.408,5.321-22.912c1.44-5.567,2.365-11.299,4.616-16.666
		c0.896-2.118,1.802-4.25,2.932-6.222c0.655-1.124,1.953-4.065,3.219-2.134c0.424,0.645,0.521,1.024,0.433,1.837"/>
	<path fill="#245977" d="M194.557,244.786c-0.528,0.257-1.067,0.479-1.624,0.645c-4.117,1.2-6.507,4.276-9.309,7.474
		c-1.444,1.65-3.734,3.591-4.561,5.687c-0.546,1.394-0.526,3.551-0.4,5.066c3.386,0.994,5.537,3.566,8.648,5.105
		c4.101,2.031,8.605,3.179,13.029,4.354c8.638,2.318,16.599,5.672,25.476,6.786c4.731,0.595,9.434,1.504,14.245,1.667
		c4.144,0.141,8.25,0.71,12.337,0.851c7.748,0.281,15.017,2.431,22.74,2.735c4.221,0.164,8.403,1.478,12.632,1.15
		c1.663-0.131,3.311-0.156,5.035-0.088c3.688,0.15,7.567,0.035,10.997,1.179c2.399,0.798,5.974,2.456,7.178,5.048
		c0.578,1.251,0.796,2.951,0.543,4.348c-0.218,1.134-1.044,2.017-1.347,3.102c-0.32,1.141-0.462,1.997-0.955,3.122
		c-0.432,1.006-1.398,3.274-0.901,4.406c0.964,2.196,3.685-0.687,4.441-1.684c0.662-0.877,1.399-1.845,1.824-2.884
		c0.385-0.953,0.306-1.87,0.7-2.811c0.549-1.316,2.295-2.664,3.735-2.068c2.329,0.96,2.969,5.578,2.547,7.742
		c-0.554,2.849-5.47,7.466-3.371,10.627c2.504,3.762,5.115-6.193,5.45-7.606c0.303-1.312,0.94-2.967,1.94-3.952
		c1.829-1.829,2.542,0.018,2.655,1.93c0.125,2.035,0.889,3.785,0.855,5.923c-0.039,2.038-0.348,4.157-0.191,6.178
		c1.158,0.329,2.656-1.763,3.173-2.756c0.85-1.628,0.6-3.844,0.636-5.628c0.011-1.03-0.307-3.583,0.454-4.434
		c0.958-1.096,1.088,1.158,1.165,1.995c0.108,1.32-0.184,2.702,1.114,3.528c1.783,1.112,1.872-0.864,1.952-2.242
		c0.103-1.824-0.195-3.026-1.077-4.671c-1.419-2.665-2.699-5.226-3.655-7.989c-1.116-3.26-2.329-6.297-4.515-8.94
		c-1.75-2.115-3.619-3.616-5.601-5.496c-2.148-2.043-4.149-3.386-7.046-4.258c-6.27-1.884-12.696-3.505-18.97-5.083
		c-3.332-0.825-6.948-1.628-10.278-2.962c-3.13-1.278-6.555-1.64-9.709-2.945c-3.887-1.593-8.319-2.004-12.039-3.789
		c-2.119-1.01-4.611-2.353-7.019-1.946c-3.26,0.552-6.509-0.786-9.828-1.354c-2.011-0.351-3.91-1.236-5.974-1.36
		c-1.961-0.114-3.749-0.638-5.677-0.974c-3.472-0.619-7.036-1.376-10.597-1.501c-1.715-0.067-3.584-0.369-5.302-0.216
		c-1.306,0.122-2.718,0.791-4.172,0.592c3.622-1.187,7.561-2.481,10.737-4.831c1.688-1.247,3.358-2.517,5.126-3.661
		c1.521-0.986,2.878-1.904,4.307-2.94c1.773-1.282,4.259-1.832,6.2-2.864c0.917-0.479,1.658-1.252,2.572-1.762
		c1.254-0.703,2.7-1.109,4.014-1.697c1.675-0.737,3.376-1.385,5.088-1.973c3.307-1.132,6.224-2.41,9.644-3.302
		c8.195-2.165,16.304-3.273,22.855-9.316c3.092-2.847,6.73-5.217,8.756-8.998c1.923-3.569,3.827-8.364,2.555-12.495
		c-1.25-4.041-4.351-7.457-7.993-9.326c-4.252-2.178-8.229-1.962-12.817-2.051c-4.066-0.081-8.164,1.73-11.846,3.297
		c-2.229,0.96-4.49,2.487-6.266,4.147c-1.919,1.791-4.265,2.928-6.248,4.628c-3.785,3.233-7.482,6.396-10.972,9.973
		c-3.274,3.373-7.857,5.724-11.428,8.918c-3.431,3.078-7.394,5.347-11.239,7.905c-4.247,2.824-8.565,5.446-13.012,7.927
		c-2.289,1.274-4.56,2.599-6.792,3.961C197.651,242.866,196.17,243.996,194.557,244.786z"/>
	<path fill="#245977" d="M345.257,301.718c-0.283-0.174-0.558-0.341-0.853-0.483c-1.781-0.898-3.625-1.809-5.268-3.037
		c-5.37-3.991-10.356-8.43-15.981-12.092c-1.662-1.081-3.494-1.941-5.194-2.978c-2.171-1.345-4.569-2.464-6.529-4.108
		c-2.795-2.347-5.94-4.238-8.731-6.625c-2.013-1.72-4.108-3.317-6.215-4.906c-1.069-0.811-2.144-1.612-3.211-2.43
		c-0.76-0.58-2.468-1.421-2.591-2.457c-0.039-0.35-0.112-0.642-0.104-1.006c0.016-0.71,0.233-1.413,0.455-2.08
		c0.823-2.539,2.115-4.899,3.242-7.298c1.465-3.133,3.451-6.495,6.308-8.437c1.342-0.915,2.824-1.743,4.224-2.53
		c1.238-0.696,2.706-1.514,4.139-1.763c1.148-0.208,1.87-0.464,2.908,0.132c0.457,0.261,1.056,0.422,1.449,0.744
		c1.603,1.332,3.411,3.097,5.332,4.115c4.879,2.583,9.155,0.563,13.305-2.807c2.988-2.426,6.129-5.808,9.872-6.895
		c3.444-0.997,7.108-2.173,10.683-2.411c6.495-0.433,12.478,1.336,16.773,6.069c5.631,6.22,8.356,10.76,10.732,18.876
		c1.726,5.86,2.534,14.483,5.987,19.58c2.794,4.112,7.652,6.887,6.491,12.855c-0.505,2.628-1.728,4.013-4.449,4.32
		c-1.422,0.157-2.93-0.339-4.355-0.242c-0.862,0.06-1.919,0.39-2.637,0.824c-2.889-1.324-5.639,4.583-8.303,5.109
		c-0.218,1.198,0.467,2.983,0.065,3.954c-2.109,0.507-3.776,2.315-5.803,3.083c-2.626,0.994-5.933,2.076-8.688,1.569
		c-2.528-0.455-5.269-2.164-7.694-3.393c-0.49-0.242-1.151-0.403-1.592-0.723c-0.366-0.275-0.446-0.729-0.764-1.023
		c-0.356-0.344-0.902-0.308-1.289-0.489C346.389,302.463,345.829,302.074,345.257,301.718z"/>
	<path fill="#FFFFFF" d="M372.521,270.159c0.486,0.432,0.906,1.145,1.488,1.628c0.554,0.473,1.208,0.803,1.872,1.071
		c1.32,0.537,2.604,1.021,3.902,1.604c0.708,0.322,2.864,1.179,3.6,0.641c0.739-0.545,0.163-2.206-0.065-2.862
		c-0.35-1.014-0.611-2.105-1.458-2.842c-0.718-0.614-1.892-0.974-2.824-0.895c-1.231,0.111-2.66,0.673-3.88,0.994
		c-0.971,0.258-1.904,0.525-2.897,0.525c0.443,1.998,2.435,2.047,3.872,2.956"/>
	<path d="M372.463,268.233c0.97,0.905,2.065,0.591,3.308,0.621c1.027,0.017,1.917-0.196,2.944-0.387
		c1.061-0.201,2.162-0.414,3.19-0.783c0.689-0.251,1.705-0.986,2.371-0.952c0.271,1.09-1.067,2.279-1.809,2.81
		c-1.25,0.928-2.757,1.036-4.251,1.12c-1.112,0.062-2.662,0.147-3.704-0.232c-0.354-0.127-2.189-1.121-2.111-0.15
		c0.15,0.039,0.378,0.08,0.549,0.05"/>
	<path d="M378.791,271.591c-0.03,0.213-0.05,0.419-0.06,0.611c-0.102,1.565,0.117,3.331,1.895,3.644
		c1.497,0.256,3.215-1.13,3.371-2.66c0.16-1.618-2.019-3.49-3.4-3.729C379.34,269.238,378.933,270.498,378.791,271.591z"/>
	<path d="M372.964,270.028c-0.225,0.742,1.083,1.65,1.634,1.997c0.792,0.496,1.696,0.856,2.553,1.259
		c1.412,0.643,3.177,1.095,4.618,0.513c-0.382,0.294-0.612,0.755-1.026,1.013c-0.396,0.252-1.015,0.348-1.44,0.376
		c-1.319,0.103-2.591-0.246-3.822-0.572c-2.06-0.546-3.111-2.948-2.767-5.017c0.159-0.013,0.39-0.052,0.551,0.006"/>
	<path d="M365.369,297.537c0.655,0.85,2.654,1.16,3.674,1.199c1.418,0.052,2.658,0.16,3.983-0.305
		c0.998-0.356,2.021-0.966,2.936-1.52c0.71-0.427,1.311-1.692,2.359-1.317c-0.028,0.685-0.686,1.716-1.08,2.299
		c-0.706,1.045-1.964,2.081-3.229,2.262c-0.08,0.28,0.127,0.483,0.233,0.715c0.226,0.494,0.277,0.736,0.241,1.316
		c-0.062,0.676-0.223,1.293-0.785,1.675c-1.057,0.7-3.115,0.398-4.169-0.088c-1.377-0.65-2.157-2.239-3.277-3.219
		c-0.706-0.635-1.429-1.324-2.373-1.452c-0.475-0.06-2.026-0.291-2.386,0.065c0.222-0.268,0.86-0.206,1.091,0.032"/>
	<path d="M380.121,259.039c0.033,0.154-2.776,0.964-3.646,1.232c-2.547,0.787-5.02,1.569-7.504,2.602
		c-4.208,1.752-8.341,3.413-12.652,4.736c-1.395,0.429-2.021,0.489-3.205-0.328c-1.485-1.018-2.849-1.996-4.382-2.872
		c-0.933-0.533-2.332-2.069-3.296-2.295c-1.357-0.329-2.679,1.766-3.597,2.713c-1.36,1.402-2.611,2.906-3.891,4.319
		c-0.949,1.041-2.26,3.059-3.613,2.48c-0.459-0.203-1.112-1.18-1.746-1.501c-0.502-0.255-1.312-0.454-1.759-0.811
		c-1.128-0.895-0.672-3.01-0.184-4.188c1.188-2.868,2.218-6.003,0.299-8.813c-1.59-2.321-4.01-4.302-5.953-6.303
		c-1.042-1.067-2.018-1.782-1.814-3.398c0.218-1.899,1.882-3.354,2.973-4.782c2.741-3.604,6.37-6.782,9.737-9.728
		c3.975-3.475,8.581-5.478,13.59-6.672c4.062-0.968,8.714,0.209,12.574,1.189c8.455,2.144,16.312,8.623,20.45,16.481
		c1.779,3.386,1.598,6.391,1.44,10.168c-0.13,3.236,0.016,5.466-3.125,6.642c-0.517,0.188-0.953,0.451-1.48,0.583"/>
	<path fill="#245977" d="M84.414,317.711c0.894-0.186,1.653-0.271,2.556-0.186c1.066,0.101,2.114-0.088,3.173-0.184
		c1.306-0.112,2.615-0.192,3.923-0.227c3.439-2.072,2.001-8.856,1.302-12.027c-0.557-2.54-0.905-5.839-2.806-7.804
		c-1.514-1.555-4.628-1.163-6.624-0.676c-1.747,0.426-3.752,1.037-5.423,1.259c-1.904,0.258-3.713-0.053-5.478,0.447
		c-1.782,0.505-4.929,1.158-6.51-0.177c-1.477-1.249-1.513-3.805-2.552-5.337c-0.403-0.596-0.995-1.086-1.562-1.521
		c-0.749-0.582-1.67-0.929-2.584-1.17c-1.132-0.308-2.342-0.592-3.505-0.572c-1.097,0.02-2.389,1.032-3.265,1.589
		c-3.545,2.249-6.227,5.582-8.745,8.901c-1.514,2-3.119,3.745-5.156,5.229c-1.812,1.317-4.244,1.598-6.405,2.034
		c-2.682,0.545-5.468,0.646-8.196,0.68c-0.888,0.016-1.77,0.055-2.642-0.03c-0.875-0.084-1.755-0.203-2.637-0.264
		c-1.121-0.078-2.656-0.445-3.702,0.149c-0.35,0.199-0.604,0.687-0.63,1.098c-0.042,0.533,0.299,0.778,0.703,1.027
		c0.524,0.316,0.93,0.569,1.37,1.007c0.27,0.265,0.625,0.863,0.478,1.285c-0.224,0.638-1.968,0.431-2.493,0.311
		c-0.848-0.19-1.881-0.475-2.749-0.256c-0.909,0.222-1.973,1.239-1.509,2.265c0.485,1.079,2.714,0.791,3.612,0.876
		c0.933,0.092,2.037,0.391,2.099,1.543c0.061,1.197-1.72,1.374-2.546,1.213c-1.197-0.234-2.492-0.372-3.637,0.107
		c-0.855,0.356-1.597,0.721-1.898,1.674c-0.265,0.834-0.372,1.877-0.189,2.756c0.24,1.16,0.95,2.011,1.909,2.605
		c1.736,1.068,3.578,0.631,5.475,0.242c1.069-0.219,1.918-0.684,2.832-1.274c0.737-0.476,1.595-0.852,2.285-1.393
		c1.136-0.896,2.592-1.573,3.949-2.05c1.109-0.389,2.622-0.334,3.783-0.242c1.589,0.127,3.178,0.359,4.737,0.722
		c1.835,0.426,3.834,0.426,5.715,0.605c1.422,0.14,2.893,0.169,4.319,0.15c1.354-0.026,2.698-0.258,4.051-0.262
		c1.831-0.003,3.582,0.435,5.424,0.27c2.223-0.208,4.43-0.4,6.659-0.495c2.347-0.104,4.705-0.199,7.037-0.549
		c2.845-0.429,5.669-0.983,8.501-1.553c1.384-0.275,2.772-0.539,4.151-0.812C82.146,318.476,83.193,317.966,84.414,317.711z"/>
</g>
</svg>
