<?xml version="1.0" encoding="utf-8"?>
<!-- Generator: Adobe Illustrator 16.0.4, SVG Export Plug-In . SVG Version: 6.00 Build 0)  -->
<!DOCTYPE svg PUBLIC "-//W3C//DTD SVG 1.1//EN" "http://www.w3.org/Graphics/SVG/1.1/DTD/svg11.dtd">
<svg version="1.1" id="Ebene_1" xmlns="http://www.w3.org/2000/svg" xmlns:xlink="http://www.w3.org/1999/xlink" x="0px" y="0px"
	 width="361.397px" height="242.822px" viewBox="0 0 361.397 242.822" enable-background="new 0 0 361.397 242.822"
	 xml:space="preserve">
<g>
	<path fill="#948F8F" d="M108.633,199.89c0-0.002-0.002-0.002-0.004-0.004c-0.51-0.108-0.869-0.021-1.316,0.143
		c-0.523,0.191-1.152,0.108-1.699,0.173c-0.493,0.058-0.566,0.571-1.028,0.743c-0.362,0.135-0.841,0.127-1.22,0.098
		c-0.503-0.037,0.951-0.422,0.449-0.332c-0.594,0.106-1.181,0.037-1.777,0.09c-1.283,0.111-0.594,0.301-1.903,0.262
		c-0.646-0.02-1.284,0.11-1.899,0.317c-0.408,0.138-0.818,0.356-1.257,0.38c-0.38,0.02-0.668-0.01-1.06,0.086
		c-0.924,0.221-1.85,0.448-2.74,0.779c-0.748,0.278-1.801,0.91-1.766,1.716c0.08,1.868,0.221,3.731,0.279,5.603
		c0.549-2.979,8.094-5.34,10.533-6.25c1.128-0.422,0.319-0.701,1.465-1.07c0.99-0.32,0.373-0.067,1.248-0.646
		c0.613-0.405,1.007-0.965,1.723-1.229c0.391-0.143,0.801-0.193,1.195-0.32C107.94,200.399,108.658,199.931,108.633,199.89z"/>
	<path fill="#393434" d="M92.183,209.627c-0.195,0.076-0.392,0.134-0.583,0.152c-0.035-0.114,0.154-0.36,0.209-0.473
		c0.084-0.171,0.18-0.32,0.279-0.472c0.183-0.279,0.381-0.574,0.492-0.891c0.166-0.473,0.449-0.877,0.706-1.307
		c0.311-0.52,0.616-1.023,0.993-1.484c0.199-0.242,0.553-0.727,0.795-0.902c0.602-0.436,1.646,0.593,2.238,0.896
		c0.789,0.405,1.539,0.748,2.325,1.152c-0.99,0.31-1.878,0.909-2.863,1.262c-0.569,0.203-1.141,0.432-1.692,0.705
		c-0.609,0.303-1.243,0.6-1.854,0.869C92.907,209.276,92.547,209.484,92.183,209.627z"/>
	<path fill="#245977" d="M295.574,99.708c2.128,0.824,1.178-5.521,0.99-6.465c-0.43-2.152-0.224-4.447,1.824-5.826
		c4.499-3.031,6.008,4.508,8.857,6.636c1.877,1.402,4.133,2.438,6.478,1.792c2.313-0.638,3.69-2.562,5.628-3.779
		c1.279-0.803,2.377-0.741,2.896,0.571c0.687,1.735-0.188,1.882-1.212,3.089c-2.582,3.049,2.504,2.312,3.566,3.75
		c0.338,0.457,0.236,1.141,0.094,1.676c-0.786-0.133-1.777,0.191-2.566,0.315c-1.064,0.167-1.604,0.036-2.535-0.161
		c-0.444,1.259,0.396,1.78,1.023,2.684c0.67,0.961,0.73,1.688,0.538,2.83c-2.044,0.473-3.126-2.676-4.993-2.107
		c-0.463,1.746,0.939,2.585,1.698,3.938c0.956,1.708,0.249,5.147-2.39,3.71c-1.983-1.081-2.064-3.064-2.349-4.929
		c-0.368-2.414-0.892-2.804-3.165-3.395c-1.566-0.407-3.264-1.08-4.853-1.493c-2.026-0.527-2.97,0.969-4.348,2.223
		c-1.919,1.749-2.608,1.726-4.731,0.408c-0.591-0.365-1.293-0.641-1.725-1.227c-0.83-1.129-0.213-1.163,0.201-2.345"/>
	<path fill="#666666" d="M319.618,102.379c0.011,0.118,0.05,0.125,0.118,0.021c-0.508-1.241-0.908-2.686-1.35-4.006
		c-0.807-2.408-1.566-4.805-2.186-7.254c-0.568-2.249-1.426-4.394-2.227-6.566c-0.325-0.887-0.819-1.701-1.125-2.594
		c-0.216-0.631-0.601-1.334-0.713-1.985c0.814,0.68,1.379,1.696,1.974,2.543c0.67,0.952,1.446,1.849,2.022,2.837
		c1.525,2.617,3.111,5.168,4.686,7.709c1.346,2.174,2.363,4.586,3.426,6.943c1.196,2.649,2.219,5.321,3.406,7.945
		c0.487,1.073,0.869,2.22,1.496,3.217c0.33,0.525,1.202,1.715,0.969,2.366c-0.725,0.054-1.45-0.079-2.168,0.019
		c-0.867,0.118-1.742,0.35-2.59,0.511c-0.724,0.138-1.484,0.38-2.186,0.572c-0.498,0.137-1.414,0.626-1.881,0.462
		c0.058-0.33-0.08-0.668-0.113-0.992c-0.039-0.389-0.033-0.764-0.086-1.148c-0.099-0.728-0.174-1.4-0.209-2.147
		c-0.029-0.575-0.168-1.436-0.328-2.034c-0.082-0.307-0.139-0.588-0.201-0.914c-0.046-0.233-0.084-0.679-0.197-0.877
		c0.754,0.071,0.836,0.064,1.018-0.625c0.121-0.461,0.297-1.084,0.018-1.588c-0.188-0.34-0.606-0.568-0.822-0.896
		c-0.266-0.404-0.346-1.088-0.614-1.365"/>
	<path fill="#999999" d="M312.683,80.319c0.674,0.854,1.526,1.702,2.319,2.532c1.152,1.208,2.151,2.499,3.346,3.667
		c1.178,1.154,2.207,2.455,3.191,3.766c0.527,0.701,1.027,1.42,1.545,2.127c0.446,0.612,1.06,1.068,1.568,1.627
		c0.946,1.041,1.973,2.08,2.491,3.416c0.641,1.647,0.348,3.473,0.993,5.141c0.457,1.18,1.051,2.354,1.584,3.502
		c0.143,0.309,0.566,1.037,0.252,1.271c-0.168,0.126-0.921,0.079-1.153,0.105c-0.907,0.103-1.77-0.04-2.664-0.212
		c-0.037-0.471-0.569-1.217-0.815-1.656c-0.37-0.664-0.713-1.337-1.1-2.002c-0.607-1.045-1.207-2.059-1.715-3.141
		c-0.512-1.092-1.004-2.158-1.463-3.244c-0.393-0.932-0.902-1.777-1.35-2.678c-0.324-0.656-0.275-1.391-0.584-2.049
		c-0.92-1.953-2.23-3.741-3.215-5.669c-0.517-1.013-0.879-2.019-1.508-2.961c-0.547-0.818-0.885-1.735-1.488-2.522"/>
	<path fill="#CCCCCC" d="M312.643,80.173c0.818,0.384,1.402,1.548,1.824,2.307c0.81,1.457,1.566,2.955,2.396,4.399
		c0.981,1.709,2.1,3.358,3.105,5.062c0.854,1.446,1.808,2.803,2.504,4.318c0.716,1.559,1.861,2.854,2.713,4.314
		c0.615,1.06,1.355,1.999,2.007,3.033c0.573,0.908,1.179,1.779,1.755,2.678c0.383,0.598,0.897,1.516,1.35,0.436
		c0.318-0.766,0.914-1.361,1.24-2.148c0.316-0.762,0.563-1.471,0.928-2.23c0.162-0.338,0.354-0.795,0.424-1.15
		c0.028-0.139,0.059-0.426,0.045-0.557c-0.006-0.062,0.123-0.066,0.072-0.189c-0.043-0.105-0.256-0.108-0.342-0.158
		c-0.859-0.507-1.74-1.009-2.535-1.623c-1.945-1.502-3.719-3.18-5.385-5.006c-0.875-0.961-1.82-1.752-2.592-2.814
		c-0.355-0.49-0.678-0.971-1.057-1.428c-0.367-0.441-0.793-0.836-1.179-1.283c-1.436-1.662-2.99-3.217-4.458-4.838
		c-0.57-0.629-1.059-1.295-1.605-1.933c-0.305-0.354-0.961-0.843-0.818-1.36"/>
	<path fill="#245977" d="M171.752,87.441c-0.752-0.248-1.135-0.774-1.833-1.052c-0.262-1.277-0.418-2.527-0.198-3.86
		c0.125-0.765,0.615-1.926,1.093-2.538c0.53-0.682,1.719-0.863,2.372-1.6c0.451-0.509,0.736-1.105,1.242-1.58
		c0.784-0.733,1.618-1.385,2.365-2.162c1.135-1.182,1.89-2.168,1.82-3.842c-0.041-1.008-0.678-2.505-1.793-2.862
		c-0.591-0.188-1.346,0.278-1.445-0.55c-0.093-0.755,0.508-0.954,1.033-1.079c0.674-0.16,1.086-0.188,1.659,0.194
		c0.487,0.324,1.038,1.264,1.594,0.652c0.466-0.514,0.038-1.229-0.409-1.567c-0.421-0.315-1.273-0.376-1.6-0.724
		c-0.432-0.457-0.123-1.307,0.404-1.579c0.682-0.351,1.283,0.086,1.759,0.546c0.718,0.693,1.383,2.849,2.604,2.622
		c2.223-0.413-0.074-3.623,0.071-4.716c0.321-2.42,2.62,0.842,2.838,1.762c0.371,1.564-0.081,4.662,2.399,3.832
		c1.002-0.335,1.495-0.295,2.293,0.438c0.828,0.763,1.029,1.979,0.637,3.041c-0.461,1.25-2.134,0.625-3.172,0.916
		c-0.932,0.26-2.117,0.928-2.753,1.744c-1.12,1.439-1.87,4.294-2.2,6.125c-0.414,2.303,0.849,4.773,2.025,6.602
		c0.336,0.522,0.639,1.039,1.104,1.453c-0.409,0.75-1.514,1.303-2.23,1.838c-0.953,0.709-1.743,1.623-2.545,2.307
		c-0.698,0.596-1.627,1.036-2.496,0.522c-0.298-0.177-0.547-0.427-0.762-0.696c-0.121-0.152-0.232-0.312-0.338-0.475
		c-0.057-0.089-0.105-0.18-0.178-0.256c-0.091-0.096-0.102-0.175-0.156-0.291c-0.057-0.121-0.145-0.23-0.202-0.354
		c-0.112-0.242-0.269-0.455-0.444-0.664c-0.295-0.352-0.59-0.812-0.955-1.076c-0.08-0.057-0.174-0.118-0.239-0.189
		c-0.077-0.08-0.116-0.15-0.218-0.203c-0.178-0.092-0.344-0.172-0.518-0.267c-0.18-0.099-0.379-0.188-0.584-0.233
		c-0.327-0.074-0.719-0.242-1.055-0.143C172.4,87.578,172.096,87.555,171.752,87.441z"/>
	<path fill="#245977" d="M93.131,128.712c0.389-0.338,0.391-1.5,0.404-2.055c0.024-0.947-0.627-2.098-1.045-2.92
		c-0.488-0.955-1.066-1.586-1.783-2.347c-0.48-0.51-0.926-1.06-1.502-1.474c-0.637-0.457-1.11-0.553-1.887-0.594
		c-0.252-0.012-0.758-0.138-0.93,0.046c-0.282,0.3-0.07,1.134,0.027,1.458c0.367,1.213,1.455,2.17,2.085,3.252
		c0.353,0.605,0.878,1.257-0.161,1.311c0.172,0.197,0.43,0.279,0.64,0.41c0.31,0.193,0.632,0.434,0.949,0.65
		c0.877,0.596,1.518,1.332,2.211,2.111"/>
	<path fill="#FF0000" d="M109.191,116.153c-0.062,0.273,0.035,0.379,0.291,0.314c1.115-0.715,1.635-2.588,2.164-3.689
		c0.739-1.543,1.502-3.394,1.812-5.093c0.492-2.679,0.425-5.446-0.275-8.083c-0.138-0.521-0.09-0.928-0.146-1.434
		c-0.055-0.498-0.43-0.859-0.78-1.189c-0.674-0.633-1.487-1.084-2.181-1.688c-1.734-1.506-3.876-2.525-5.867-3.656
		c-2.311-1.311-4.943-1.977-7.49-2.652c-2.522-0.668-5.167-1.153-7.787-1.146c-1.961,0.005-3.922,0.186-5.879,0.3
		c-1.846,0.108-3.908,0.154-5.662,0.773c-1.49,0.527-2.344,1.657-3.549,2.568c-0.735,0.557-1.668,0.635-2.381,1.049
		c-0.549-0.771-2.096,0.157-2.676,0.443c-1.461,0.723-2.274,1.913-2.771,3.475c-0.759,2.387-0.04,4.553,0.817,6.817
		c0.344,0.908,0.734,1.828,1.143,2.719c0.281,0.618,0.573,1.503,0.397,2.212c-0.192,0.775-0.99,1.229-1.413,1.863
		c-0.387,0.578-0.473,1.655-0.184,2.288c0.566,1.245,2.754,2.142,4.059,2.325c0.785,0.112,1.586,0.175,2.349,0.402
		c1.292,0.385,2.175,1.553,3.468,1.928c0.91,0.266,1.941,0.204,2.881,0.316c0.725,0.086,1.441,0.373,2.164,0.406
		c0.916,0.042,1.652-0.055,2.515-0.377c0.54-0.203,1.071-0.324,1.554-0.633c0.5-0.318,1.084-0.924,1.72-0.48"/>
	<path fill="#CCCCCC" d="M103.16,181.686c-0.121-0.124-0.724-0.001-0.877,0.022c-0.134,0.021-0.227,0.082-0.346,0.118
		c-0.139,0.041-0.281,0.001-0.422,0.031c-0.169,0.037-0.344,0.089-0.508,0.114c-0.491,0.076-0.962,0.232-1.451,0.338
		c-1.381,0.297-2.74,0.604-4.155,0.735c-0.302,0.028-0.589,0.093-0.89,0.126c-0.34,0.037-0.672,0.118-1.008,0.16
		c-0.218,0.027-0.398-0.006-0.621,0.041c-0.236,0.05-0.463,0.088-0.703,0.115c-0.328,0.039-0.659,0.027-0.984,0.08
		c-0.412,0.066-0.816,0.117-1.229,0.174c-0.295,0.041-0.611,0.033-0.9,0.088c-0.249,0.049-0.465,0.174-0.721,0.203
		c-0.37,0.041-0.721,0.132-1.093,0.166c-0.46,0.041-0.917,0.102-1.373,0.17c-2.879,0.437-5.667,1.31-8.45,2.139
		c-3.948,1.178-8.036,1.576-11.795,3.309c-0.861,0.397-1.849,0.692-2.61,1.255c-0.495,0.365-0.838,0.833-1.454,1.027
		c-1.219,0.383-1.549-0.712-2.395-1.457c-1.918-1.688-4.15-3.429-6.438-4.618c-2.191-1.139-4.543-2.043-6.816-3.012
		c-1.116-0.477-2.223-1.051-3.362-1.457c-0.647-0.23-1.55-0.287-1.942-0.826c0.618-0.73,1.41-0.969,2.295-1.289
		c1.252-0.455,2.521-1.058,3.785-1.574c3.805-1.552,7.73-2.93,11.479-4.572c0.086-0.037,0.172-0.074,0.258-0.112
		c2.869-1.245,5.8-2.338,8.707-3.485c1.454-0.574,2.902-1.162,4.334-1.788c0.328-0.144,0.715-0.263,1.008-0.47
		c0.236-0.168,0.426-0.323,0.692-0.455c0.688-0.339,1.372-0.692,1.999-1.135c0.17-0.121,0.345-0.156,0.508-0.298
		c0.115-0.1,0.232-0.226,0.368-0.29c0.325,0.306,0.794,0.42,1.198,0.611c0.632,0.297,1.25,0.627,1.885,0.935
		c0.883,0.427,1.701,0.985,2.579,1.409c0.381,0.184,0.706,0.461,1.073,0.674c0.317,0.186,0.607,0.426,0.922,0.621
		c1.473,0.919,2.906,1.912,4.389,2.809c0.389,0.236,0.768,0.5,1.146,0.752c0.241,0.162,0.319,0.383,0.468,0.617
		c0.22,0.349,0.611,0.564,0.932,0.811c0.375,0.287,0.744,0.586,1.088,0.911c1.195,1.13,2.307,2.131,3.691,2.991
		c1.584,0.983,3.108,1.584,4.908,2.152C101.155,180.813,102.553,181.061,103.16,181.686z"/>
	<path fill="#FF0000" d="M80.158,175.429c0.133,0.305-1.203,1.203-1.477,1.438c-0.529,0.457-1.029,0.935-1.585,1.354
		c-0.444,0.335-0.878,0.88-1.354,0.992c-0.313,0.074-0.65,0.112-0.986,0.169c-0.267,0.045-0.868-0.05-1.046,0.172
		c0.373-0.465,0.637-1.182,0.935-1.696c0.347-0.601,1.172-1.138,1.702-1.515c0.588-0.415,1.205-0.832,1.798-1.207
		c0.394-0.248,0.399-0.194,0.804,0.045c0.283,0.166,0.635,0.303,0.869,0.556"/>
	<path fill="#245977" d="M107.924,112.351c0.357,0.164,0.451,0.76,0.553,1.115c0.237,0.819,0.467,1.643,0.846,2.414
		c0.658,1.336,1.404,2.903,2.439,3.979c1.297,1.346,3.337,2.531,5.199,2.729c-0.225,1.35,1.829,0.096,1.938,1.051
		c0.022,0.197-0.709,1.08-0.847,1.256c-0.385,0.488-0.749,0.912-1.09,1.438c-1.352,2.088-3.504,3.509-4.992,5.395
		c-0.729,0.925-1.031,0.711-1.963,0.188c-1.062-0.598-2.004-1.243-3.033-1.91c-1.883-1.219-3.791-1.485-6.011-1.6
		c0.149,0.009,0.3,0.016,0.449,0.023"/>
	<path d="M105.389,141.601c-0.211-0.795-0.439-1.547-0.545-2.377c-0.146-1.148-0.076-2.267-0.016-3.449
		c0.051-1.002,0.197-1.964,0.361-2.93c0.115-0.689,0.498-1.383,0.488-2.09c-0.01-0.752-0.568-0.529-0.65,0.078
		c-0.021,0.15-0.014,0.288-0.069,0.431c-0.053,0.134-0.126,0.265-0.185,0.396c-0.121,0.274-0.262,0.579-0.426,0.836
		c-0.188,0.294-0.408,0.565-0.611,0.843c-0.248,0.34-0.537,0.691-0.818,1.008c-0.24,0.273-0.471,0.561-0.732,0.814
		c-0.293,0.285-0.584,0.574-0.867,0.867c-0.256,0.265-0.564,0.479-0.84,0.719c-0.35,0.305-0.633,0.658-0.963,0.982
		c-0.444,0.438-0.932,0.828-1.459,1.16c-0.556,0.352-1.149,0.636-1.754,0.89c-1.084,0.456-2.146,1.165-3.307,1.427
		c-1.258,0.284-2.525,0.619-3.842,0.836c-1.312,0.217-2.549,0.851-3.869,1.056c-1.377,0.214-2.91-0.061-4.293-0.132
		c-0.965-0.049-1.867-0.063-2.803,0.03c-0.773,0.077-1.58,0.462-2.387,0.403c0.957-0.352,1.602-0.824,2.4-1.439
		c0.629-0.482,1.233-1.496,2.117-1.471c-0.074-0.593,1.525-1.474,1.933-2.015c0.915-1.216,1.716-2.493,2.909-3.489
		c0.424-0.354,0.886-0.809,1.318-1.131c0.809-0.602,0.734-0.396,1.608-0.102c1.021,0.342,1.667,0.084,2.353-0.855
		c0.594-0.815,1.047-1.581,0.402-2.501c1.113-0.066,1.217,0.823,2.053,1.074c1.676-2.585-1.273-4.784-3.402-5.999
		c-1.15-0.656-2.584-1.045-3.763-1.478c-1.003-0.368-2.999,0.315-3.51,1.337c-0.221,0.439,0.228,1.121,0.146,1.414
		c-0.25,0.9-0.676,0.475-1.203,0.547c-1.627,0.224-0.938,1.244-0.43,2.416c0.466,1.068,0.07,0.896-0.748,1.43
		c-0.656,0.427-0.643,0.666-1.091,1.291c-1.476,2.057-4.445,3.594-6.448,5.107c-2.633,1.991-5.193,4.107-8.18,5.561
		c-1.396,0.68-2.83,1.363-3.945,2.478c-1.023,1.022-1.119,1.901-0.979,3.259c0.15,1.467,0.684,1.34,2.061,1.582
		c1.471,0.258,2.822,0.154,4.307,0.229c1.604,0.081,3.209,0.164,4.812,0.246c3.484,0.179,6.942,0.358,10.36,0.187
		c1.665-0.084,3.407,0.152,5.003,0.084c1.729-0.076,3.427,0.002,5.175,0.092c1.644,0.084,3.386,0.014,5.002,0.295
		c2.3,0.398,4.756,0.905,7.094,0.916c0.718,0.004,1.411-0.09,2.125,0.043c1.157,0.218,2.241,0.717,3.414,0.881
		c0.714,0.098,1.378,0.27,2.112,0.33c-1.535-0.858-2.231-2.699-2.863-4.236c-0.535-1.303-0.9-2.671-1.367-4.004
		c-0.375-1.066-0.77-2.114-1.023-3.215C105.502,142.037,105.446,141.817,105.389,141.601z"/>
	<path fill="#245977" d="M103.092,103.765c0.444,0.518,0.82,1.047,0.826,1.87c0.466-0.386,0.5-0.765,1.288-1.026
		c0.578-0.192,1.386-0.258,1.99-0.26c1.139-0.002,2.004,0.979,2.589,1.889c1.586,2.47,2.357,7.008-1.734,7.127
		c0.499,0.809,0.969,1.49,1.151,2.469c0.345,1.848-0.108,3.73,0.224,5.557c0.249,1.368,0.379,2.247-0.35,3.545
		c-1.426,2.538-4.553,4.549-7.475,4.682c-0.715,0.033-1.432,0.041-2.148,0.015c-2.455-0.091-5.09-0.544-7.006-2.196
		c-0.75-0.647-1.332-1.45-2.143-2.028c-0.924-0.657-1.664-0.38-2.682-0.368c-0.331,0.004-0.684-0.103-1.016-0.151
		c-0.793-0.118-1.578-0.286-2.418-0.329c-0.675-0.035-1.27-0.035-1.908-0.275c-0.51-0.192-1.002-0.469-1.521-0.627
		c-0.729-0.222-2.006-0.229-2.278-1.116c-0.276-0.901,0.959-1.677,1.478-2.227c0.643-0.681,1.336-1.304,1.922-2.044
		c0.455-0.572,1.363-1.392,1.074-2.183c-0.156-0.427-0.541-0.714-0.738-1.122c-0.191-0.395-0.262-0.832-0.324-1.26
		c-0.175-1.19-0.244-2.393-0.354-3.59c-0.093-1.014-0.521-1.934-0.609-2.92c-0.08-0.891,0.104-1.569,0.623-2.316
		c0.697-1.004,1.969-1.747,2.983-2.368c1.807-1.104,3.426-1.878,5.487-2.501c1.799-0.543,3.626-1.005,5.47-1.426
		c0.597-0.137,1.155-0.106,1.774-0.137c0.607-0.029,1.353-0.33,1.953-0.152c0.932,0.276,1.537,1.544,1.879,2.334
		c0.333,0.773,0.821,1.697,1.32,2.348C102.637,103.257,102.872,103.509,103.092,103.765z"/>
	<g>
		<path d="M92.162,124.103c0.819-0.24,1.342,0.574,2.16,0.336c0.174-1.672,0.426-2.277,2.092-1.793
			c0.599,0.174,1.268,0.625,1.941,0.44c0.498-0.136,0.83-0.697,1.272-0.884c0.007,0.928-1.606,2.771-2.46,3.334
			c-0.785,0.518-1.768,0.955-2.719,1.017c-0.381,0.024-0.74-0.093-1.11-0.163c-0.493-0.093-0.993-0.043-1.486-0.131
			C91.576,126.208,92.16,124.24,92.162,124.103z"/>
		<path fill="#FF0000" d="M98.855,123.406c0.2,0.076,0.338,0.243,0.525,0.339c0.159,0.082,0.264,0.056,0.44,0.045
			c0.341-0.023,0.597-0.227,0.851,0.074c0.293,0.346,0.037,0.617-0.178,0.93c-0.445,0.64-1.352,0.867-2.102,0.826
			c-0.189-0.011-0.391,0-0.578-0.028c-0.211-0.032-0.415-0.104-0.633-0.122c-0.473-0.039-1,0.055-1.463-0.027
			c-0.178-0.031-0.243-0.133-0.174-0.319c0.075-0.204,0.305-0.29,0.48-0.392c0.293-0.172,0.613-0.312,0.92-0.443
			c0.171-0.072,0.333-0.152,0.495-0.244c0.187-0.104,0.14-0.135,0.214-0.32c0.086-0.217,0.326-0.419,0.555-0.473
			C98.416,123.204,98.66,123.333,98.855,123.406z"/>
	</g>
	<path d="M99.926,106.742c0.129,0.112,0.133,0.133,0.014,0.062c-0.387-0.29-0.49-0.73-0.939-1.048
		c-0.402-0.282-0.828-0.552-1.258-0.794c-0.895-0.507-1.826-0.865-2.887-0.916c-1.002-0.049-1.652,0.177-2.191,1.021
		c-0.317,0.496-0.861,1.838-0.703,2.388c0.661-0.327,1.213-0.765,1.974-1.06c0.858-0.334,1.481-0.368,2.45-0.322
		c1.78,0.086,2.104,1.359,3.295,2.281"/>
	<path d="M85.482,109.577c0.011,0.108,0.043,0.129,0.098,0.062c-0.33-0.445-1.382-0.312-1.893-0.511
		c-0.221-0.086-0.841-0.581-1.087-0.527c-0.321,0.071-0.206,0.293-0.37,0.473c-0.326,0.357-0.828,1.119-0.873,1.584
		c-0.034,0.345,0.016,1.351,0.256,1.588c0.156-1.371,1.175-1.356,2.191-1.653c0.51-0.149,0.758-0.251,1.312-0.222
		c0.402,0.021,1.116,0.255,1.113-0.02c-0.049,0.078-0.1,0.154-0.15,0.231"/>
	<path fill="#FFFFFF" d="M93.722,110.486c0.46,0.819,3.933-0.446,4.12-1.39c-0.65-0.236-1.678,0.39-2.297,0.634
		c-0.648,0.255-1.412,0.794-2.137,0.775c-0.029,0.1,0.019,0.144,0.144,0.134"/>
	<path fill="#FFFFFF" d="M82.633,114.468c0.973,0.299,2.005-0.324,2.756-1.004c-0.683-0.054-1.499,0.205-2.193,0.256
		c-0.572,0.043-1.34,0.135-1.949,0.226c0.67,0.247,0.736,0.644,1.54,0.692"/>
	<path d="M93.4,109.924c0.045,0.217-0.492,0.601-0.625,0.712c-0.486,0.41-1.037,0.625-1.609,0.876
		c0.604,0.012,1.154-0.245,1.68-0.524c0.418-0.224,0.713-0.625,1.078-0.879c0.039,0.379-0.074,0.957-0.575,0.889
		c0.032-0.074,0.134-0.104,0.206-0.139c0.156-0.073,0.31-0.154,0.461-0.241c0.244-0.14,0.464-0.306,0.658-0.51
		c0.111-0.116,0.342-0.264,0.371-0.444c0.17,0.141,0.095,0.451,0.122,0.648c0.081-0.137,0.124-0.306,0.216-0.441
		c0.102-0.152,0.453-0.676,0.636-0.621c0.028,0.209-0.008,0.431,0.021,0.637c0.033-0.095,0.288-0.554,0.377-0.574
		c0.182-0.041,0.163,0.273,0.211,0.387c0.123-0.01,0.117-0.28,0.175-0.375c0.001-0.003,0.136-0.143,0.124-0.142
		c0.076-0.009,0.057,0.041,0.113,0.069c0.105,0.052,0.186,0.191,0.306,0.105c0.063-0.045,0.152-0.307,0.169-0.375
		c0.133-0.039,0.213,0.115,0.334,0.129c0.121,0.012,0.139-0.063,0.231-0.1c-0.146,0.211-0.401,0.402-0.603,0.572
		c-0.324,0.275-0.75,0.467-1.154,0.597c-0.246,0.079-0.482,0.175-0.724,0.274c-0.224,0.092-0.378,0.196-0.609,0.139
		c-0.312-0.076-0.704-0.08-1.034-0.055c0.002,0.148-0.203,0.281-0.026,0.382c0.024,0.015,0.181,0.034,0.212,0.038
		c0.209,0.032,0.424,0.029,0.635,0.041c0.287,0.016,0.579,0.006,0.857-0.063c0.29-0.072,0.529-0.202,0.803-0.315
		c0.51-0.215,0.831-0.488,1.168-0.916c0.16-0.203,0.446-0.517,0.449-0.779c0.002-0.309-0.364-0.234-0.567-0.222
		c-0.548,0.034-1.125,0.208-1.68,0.31c-0.478,0.088-0.935,0.314-1.378,0.509c-0.234,0.103-0.6,0.188-0.789,0.329
		c0.023,0.014,0.048,0.018,0.074,0.012"/>
	<path d="M81.572,113.724c0.016,0.036-0.408,0.353-0.49,0.414c-0.307,0.229-0.605,0.515-1.014,0.477
		c0.451-0.043,0.909-0.127,1.35-0.232c0.252-0.061,0.45-0.172,0.637-0.355c0.154-0.154,0.185-0.319,0.291-0.482
		c0.027,0.162,0.008,0.387-0.066,0.535c-0.064,0.129-0.268,0.348-0.428,0.312c-0.037-0.138,0.511-0.177,0.625-0.224
		c0.188-0.076,0.285-0.211,0.408-0.369c0.066-0.084,0.156-0.31,0.24-0.342c0.016,0.19-0.076,0.467-0.249,0.562
		c0.124-0.203,0.381-0.404,0.567-0.572c-0.015,0.164,0.033,0.566-0.145,0.633c0.045-0.127,0.357-0.203,0.466-0.281
		c0.128-0.096,0.295-0.25,0.376-0.391c0.045,0.145,0.006,0.294,0.021,0.445c0.186-0.076,0.328-0.402,0.512-0.43
		c0.01,0.099-0.012,0.201-0.006,0.302c0.105,0.03,0.307-0.173,0.386-0.257c0.083-0.089,0.195-0.209,0.242,0.02
		c0.065,0.312-0.64,0.605-0.847,0.703c-0.374,0.176-0.802,0.293-1.213,0.314c-0.5,0.026-0.957-0.189-1.41-0.338
		c-0.136,0.349,0.5,0.505,0.719,0.563c0.449,0.12,0.98,0.125,1.431-0.003c0.376-0.107,0.644-0.42,0.878-0.711
		c0.125-0.156,0.359-0.522,0.369-0.717c-0.684-0.134-1.39-0.244-2.107-0.232c-0.367,0.007-0.725,0.164-1.033,0.334
		c-0.184,0.102-0.419,0.371-0.626,0.402c0.015,0.045,0.057,0.062,0.107,0.074"/>
	<path d="M94.797,109.841c-0.141,0.154-0.246,0.158-0.255,0.402c-0.009,0.277,0.171,0.592,0.417,0.73
		c0.245,0.137,0.554,0.172,0.818,0.079c0.228-0.08,0.551-0.19,0.727-0.358c0.348-0.332,0.508-0.902-0.027-1.137
		c-0.223-0.099-1.127-0.246-1.06,0.237"/>
	<path d="M82.545,113.581c-0.062,0.167-0.113,0.233-0.056,0.434c0.055,0.189,0.183,0.357,0.345,0.471
		c0.384,0.271,0.942,0.273,1.26-0.086c0.82-0.928-1.065-1.068-1.051-0.717"/>
	<path d="M104.391,133.778c-0.14,0.322-0.254,0.656-0.273,1.07c-0.045,0.942-0.126,1.892-0.061,2.818
		c0.094,1.318,0.176,2.633,0.279,3.961c0.114,1.475,0.504,3.02,0.915,4.439c0.284,0.985,0.396,2.018,0.875,2.939
		c0.476,0.918,1.173,1.701,1.819,2.498c0.621,0.766,1.307,1.271,2.189,1.713c0.953,0.477,1.932,1.178,2.93,1.53
		c1.303,0.46,2.571,0.9,3.854,1.429c1.662,0.686,3.273,1.453,4.906,2.199c1.666,0.762,3.238,1.697,4.955,2.354
		c1.692,0.648,3.262,1.163,5.078,1.329c2.325,0.212,4.717,0.515,7.057,0.338c1.799-0.135,3.576-0.273,5.365-0.502
		c2.211-0.281,4.395-0.734,6.596-1.045c2.488-0.352,4.984-1.133,7.379-1.861c1.487-0.453,2.995-0.803,4.445-1.375
		c1.197-0.475,2.338-1.059,3.621-1.267c0.939-0.151,1.868-0.208,2.787-0.486c1.377-0.417,2.604-0.935,4.071-0.97
		c0.293-0.006,0.586-0.001,0.878,0.014c0.652,0.033,1.135,0.115,1.746,0.28c0.511,0.138,1.312,0.521,1.84,0.354
		c0.422-1.029-0.91-3.139-1.208-4.117c-1.093-3.594-1.509-7.405-2.187-11.074c-0.445-2.417-1.932-4.362-2.759-6.653
		c-0.599-1.658-0.96-3.18-1.21-4.937c-0.239-1.682-0.275-3.082-2.207-3.416c-1.682-0.29-2.928,1.008-4.332,1.74
		c-1.774,0.924-3.601,1.059-5.473,1.651c-2.603,0.823-4.994,1.29-7.653,1.759c-2.253,0.397-4.532,0.688-6.804,0.93
		c-1.946,0.207-3.904,0.074-5.852-0.047c-0.82-0.051-1.73,0.018-2.513-0.246c-0.624-0.209-1.31-0.554-1.968-0.617
		c-0.439-0.043-0.854,0.066-1.297-0.008c-1.08-0.178-1.959-0.844-2.539-1.752c-0.523-0.818-0.855-1.902-1.203-2.819
		c-0.513-1.351-1.204-2.526-2-3.777c-0.693-1.091-1.697-1.832-2.627-2.724c-1.069-1.027-1.891-1.6-3.255-2.029
		c-1.04-0.326-2.442-0.831-3.548-0.746c-1.223,0.094-1.896,0.965-2.715,1.761c-0.51,0.495-1.047,1.3-1.198,1.999
		c-0.216,1.008,0.741,1.098,1.347,1.795c0.528,0.611,0.746,1.39,0.564,2.178c-0.114,0.496-0.43,0.968-0.652,1.409
		c-0.23,0.458-0.434,0.94-0.691,1.391c-0.498,0.868-1.137,1.724-1.896,2.376c-0.57,0.49-1.406,1.203-2.145,0.891
		c-0.666-0.283-1.374-0.507-2.003-0.875c-1.285-0.752-2.48,0.295-2.707,1.617c-0.089,0.52,0.08,1.033-0.085,1.547
		C104.705,133.128,104.535,133.446,104.391,133.778z"/>
	<path fill="#FFFFFF" d="M133.479,130.513c-0.369-0.035-0.723,0.035-1.092,0.014c-1.418,2.769-3.557,5.164-5.518,7.566
		c-3.061,3.748-5.683,7.866-7.936,12.145c-0.975,1.85-1.911,3.73-2.801,5.627c0.261,0.102,0.522,0.205,0.785,0.312
		c1.662,0.686,3.273,1.453,4.906,2.199c1.615,0.738,3.141,1.637,4.796,2.289c0.128-1.166,0.304-2.329,0.519-3.482
		c0.914-4.917,2.455-9.685,4.055-14.414c0.363-1.074,0.72-2.145,1.14-3.199c0.435-1.09,0.892-2.17,1.313-3.266
		c0.659-1.705,1.266-3.471,1.475-5.291C134.588,130.81,134.023,130.565,133.479,130.513z"/>
	<path fill="#FFFFFF" d="M129.643,128.753c-0.16-0.25-0.301-0.526-0.431-0.814c-0.87,0.893-1.87,1.672-2.876,2.389
		c-0.924,0.658-1.873,1.277-2.814,1.907c-0.962,0.642-1.881,1.337-2.829,1.997c-1.995,1.391-4.099,2.613-6.249,3.748
		c-1.092,0.576-2.191,1.133-3.295,1.684c-1.06,0.529-2.109,1.088-3.195,1.559c-1.154,0.499-2.339,1.01-3.471,1.598
		c0.178,1.099,0.467,2.207,0.769,3.248c0.284,0.985,0.396,2.018,0.875,2.939c0.476,0.918,1.173,1.701,1.819,2.498
		c0.531,0.656,1.113,1.121,1.824,1.52c0.053-0.08,0.105-0.16,0.158-0.238c0.929-1.379,2.012-2.646,3.121-3.882
		c1.32-1.474,2.608-2.984,3.973-4.418c1.676-1.761,3.451-3.423,5.221-5.087c3.108-2.924,6.219-5.877,8.582-9.43
		C130.354,129.659,129.955,129.241,129.643,128.753z"/>
	<path fill="#FFFFFF" d="M114.312,122.076c0.447-0.138,0.896-0.272,1.344-0.405c2.029-0.599,4.105-1.1,6.109-1.783
		c0.617-0.211,1.236-0.42,1.854-0.639c-0.979-0.913-1.781-1.443-3.062-1.846c-1.04-0.326-2.442-0.831-3.548-0.746
		c-1.223,0.094-1.896,0.965-2.715,1.761c-0.51,0.495-1.047,1.3-1.198,1.999C112.896,121.354,113.711,121.498,114.312,122.076z"/>
	<path fill="#FFFFFF" d="M126.421,122.129c-0.637,0.521-1.309,0.987-1.938,1.41c-1.933,1.302-3.951,2.437-6.093,3.36
		c-2.039,0.881-4.197,1.634-6.353,2.42c-0.088,0.085-0.179,0.168-0.27,0.246c-0.57,0.49-1.406,1.203-2.145,0.891
		c-0.094-0.04-0.189-0.08-0.284-0.117c-1.524,0.604-3.019,1.258-4.44,2.021c-0.01,0.128-0.029,0.257-0.07,0.385
		c-0.123,0.383-0.293,0.701-0.438,1.033c-0.14,0.322-0.254,0.656-0.273,1.07c-0.016,0.326-0.035,0.654-0.053,0.98
		c4.41-1.796,8.889-3.419,13.291-5.232c2.305-0.951,4.57-1.971,6.811-3.06c1.374-0.667,2.75-1.356,4.042-2.173
		c-0.481-1.119-1.086-2.137-1.769-3.208C126.434,122.146,126.428,122.139,126.421,122.129z"/>
	<path fill="#FFFFFF" d="M142.941,131.491c-1.163,0.068-2.33,0.035-3.493-0.027c-0.438,3.406-1.209,6.768-2.087,10.086
		c-1.786,6.756-4.104,13.586-4.927,20.564c2.144,0.205,4.333,0.445,6.479,0.283c0.353-0.025,0.704-0.053,1.055-0.081
		c0.42-1.229,0.832-2.462,1.227-3.7C143.944,149.942,146.062,140.349,142.941,131.491z"/>
	<path fill="#FFFFFF" d="M156.883,135.47c-0.498-1.511-1.111-2.98-1.928-4.35c-0.241-0.406-0.518-0.86-0.832-1.301
		c-1.145,0.246-2.299,0.461-3.509,0.674c-0.962,0.17-1.93,0.319-2.899,0.455c1.252,1.814,2.461,3.652,3.302,5.697
		c1.532,3.734,1.821,8.002,1.526,11.993c-0.312,4.245-1.336,8.437-2.934,12.405c0.422-0.068,0.843-0.134,1.266-0.193
		c0.939-0.133,1.881-0.327,2.816-0.557c0.417-0.836,0.803-1.687,1.16-2.545c1.509-3.631,2.55-7.484,2.948-11.399
		C158.168,142.724,158.033,138.954,156.883,135.47z"/>
	<path fill="#FFFFFF" d="M169.198,135.245c-0.544-1.709-1.138-3.416-1.903-5.038c-0.627-1.327-1.385-2.759-2.513-3.751
		c-0.344,0.221-0.688,0.441-1.042,0.627c-1.233,0.643-2.492,0.903-3.774,1.202c0.076,0.087,0.15,0.176,0.222,0.267
		c0.912,1.152,1.581,2.488,2.135,3.844c2.634,6.453,2.625,13.804,1.129,20.533c-0.368,1.652-0.834,3.303-1.401,4.925
		c0.218-0.077,0.434-0.155,0.649-0.239c1.197-0.475,2.338-1.059,3.621-1.267c0.939-0.151,1.868-0.208,2.787-0.486
		c0.416-0.126,0.819-0.262,1.219-0.39c0.355-1.906,0.59-3.834,0.689-5.775C171.265,144.817,170.684,139.903,169.198,135.245z"/>
	<path d="M117.951,116.288c0.424,0,0.924-0.072,1.333,0.033c0.229,0.06,0.347,0.102,0.593,0.111c0.232,0.01,0.372,0.121,0.593,0.16
		c0.371,0.065,0.815-0.021,1.193-0.008c0.321,0.012,0.571,0.113,0.882,0.148c0.574,0.064,1.059,0.34,1.482,0.736
		c0.469,0.439,0.965,0.814,1.451,1.23c0.152,0.13,0.298,0.29,0.434,0.438c0.19,0.205,0.285,0.391,0.441,0.601
		c0.107,0.146,0.266,0.245,0.377,0.399c0.107,0.146,0.197,0.289,0.293,0.441c0.23,0.363,0.492,0.695,0.703,1.07
		c0.367,0.648,0.512,1.336,0.783,2.016c0.242,0.609,0.291,1.209,0.52,1.818c0.201,0.539,0.461,1.199,0.484,1.771
		c0.027,0.662,0.245,1.293,0.408,1.927c0.076,0.298,0.07,0.592,0.147,0.89c0.089,0.34-0.048,0.707,0.025,1.045
		c0.082,0.376,0.155,0.629,0.156,1.029c0,0.398,0,0.798,0,1.197c0,0.7-0.007,1.402-0.001,2.104c0.005,0.466-0.152,0.831-0.146,1.301
		c0.002,0.313-0.002,0.627-0.002,0.941c0,1.135,0.036,2.274,0.006,3.408c-0.01,0.326-0.105,0.647-0.086,0.975
		c0.014,0.232,0.076,0.459,0.139,0.684c0.033,0.124,0.084,0.247,0.113,0.373c0.028,0.121,0.005,0.24,0.026,0.361
		c0.033,0.186,0.058,0.334,0.057,0.527c-0.003,0.516-0.058,1.07,0.017,1.578c0.34,2.362,0.201,4.799,0.201,7.189
		c0,2.288,0,4.576,0,6.865c0,0.726,0,1.451,0,2.178c0,0.809-0.019,1.617,0.027,2.425c0.023,0.409,0.062,0.817,0.129,1.222
		c0.051,0.311,0.209,0.583,0.206,0.908c-0.001,0.148-0.02,0.311-0.003,0.458c0.019,0.189,0.08,0.351,0.077,0.548
		c-0.003,0.156-0.002,0.313-0.002,0.471c0,0.391-0.058,0.817-0.003,1.201c0.02,0.14,0.072,0.244,0.078,0.391
		c0.006,0.164-0.002,0.33-0.002,0.494c0,0.426-0.033,0.855,0.004,1.279c0.021,0.254,0.181,0.507,0.139,0.76
		c-0.059,0.344-0.354,0.65-0.574,0.904c-0.215,0.247-0.465,0.496-0.781,0.605c-0.522,0.182-1.049,0.27-1.592,0.375
		c-0.205,0.041-0.387,0.155-0.592,0.193c-0.149,0.027-0.293,0.025-0.443,0.062c-0.559,0.139-1.127,0.262-1.674,0.443
		c-0.811,0.268-1.659,0.47-2.502,0.613c-0.402,0.069-0.816,0.113-1.213,0.215c-0.303,0.076-0.605,0.188-0.923,0.203
		c-0.755,0.037-1.502,0.201-2.247,0.343c-0.707,0.135-1.436,0.248-2.152,0.306c-0.66,0.053-1.321,0.231-1.969,0.363
		c-0.965,0.197-1.907,0.553-2.879,0.71c-0.982,0.159-1.947,0.368-2.941,0.451c-0.378,0.032-0.736,0.059-1.117,0.067
		c-0.533,0.012-1.047,0.154-1.584,0.15c-0.348-0.002-0.635,0.006-0.963,0.112c-0.35,0.112-0.732-0.001-1.088-0.03
		c-0.442-0.037-0.895-0.033-1.33,0.061c-0.323,0.071-0.218,0.385-0.218,0.655c0,0.368,0.038,0.748-0.165,1.078
		c-0.158,0.255-0.371,0.499-0.559,0.735c-0.17,0.215-0.334,0.295-0.525,0.091c-0.181-0.192-0.342-0.442-0.508-0.668
		c-0.155-0.211-0.309-0.389-0.475-0.581c-0.119-0.137-0.103-0.212-0.307-0.222c-0.129-0.007-0.25,0.016-0.366,0.073
		c-0.187,0.094-0.339,0.234-0.506,0.365c-0.239,0.186-0.397,0.357-0.487,0.65c-0.076,0.25-0.145,0.52-0.326,0.707
		c-0.445,0.457-1.018-0.473-1.271-0.727c-0.191-0.192-0.395-0.408-0.67-0.474c-0.123-0.029-0.313-0.041-0.436,0
		c-0.162,0.054-0.152,0.146-0.231,0.259c-0.188,0.271-0.46,0.131-0.708,0.073c-0.238-0.055-0.429-0.158-0.599-0.329
		c-0.101-0.1-0.178-0.202-0.269-0.308c-0.121-0.14-0.324-0.183-0.442-0.322c-0.067-0.079-0.069-0.169-0.142-0.245
		c-0.037-0.039-0.11-0.059-0.146-0.1c-0.082-0.091-0.131-0.232-0.195-0.345c-0.204-0.35-0.243-0.694-0.238-1.091
		c0.004-0.271-0.107-0.557-0.217-0.799c-0.129-0.281-0.275-0.629-0.293-0.941c-0.018-0.344-0.064-0.682-0.16-1.02
		c-0.053-0.188-0.137-0.365-0.182-0.558c-0.021-0.093-0.058-0.196-0.074-0.288c-0.02-0.105,0.006-0.21-0.013-0.312
		c-0.06-0.345-0.166-0.668-0.239-1.013c-0.152-0.723-0.055-1.543-0.055-2.285c0-0.428,0.039-0.775,0.271-1.139
		c0.152-0.236,0.262-0.494,0.473-0.691c0.241-0.227,0.58-0.029,0.852,0.038c0.279,0.069,0.59-0.036,0.869,0.032
		c0.262,0.064,0.477,0.4,0.745,0.221c0.229-0.152,0.285-0.51,0.434-0.728c0.221-0.325,0.499-0.118,0.724,0.056
		c0.222,0.172,0.49,0.26,0.705,0.449c0.143,0.127,0.3,0.278,0.515,0.209c0.128-0.043,0.211-0.255,0.306-0.354
		c0.189-0.195,0.458,0.061,0.705,0.058c0.363-0.005,0.727,0.001,1.09,0.001c0.332,0,0.6,0.003,0.866,0.215
		c0.314,0.25,0.546,0.564,0.787,0.881c0.182,0.238,0.352,0.443,0.671,0.416c0.375-0.032,0.748-0.141,1.119-0.199
		c0.467-0.072,0.936-0.117,1.402-0.19c0.488-0.077,0.982-0.133,1.478-0.126c0.733,0.011,1.413-0.164,2.142-0.26
		c0.439-0.059,0.878-0.089,1.316-0.151c0.48-0.069,0.957-0.001,1.439-0.066c0.412-0.056,0.811-0.064,1.215-0.108
		c0.347-0.037,0.69-0.189,1.033-0.264c1.24-0.266,2.45-0.514,3.674-0.776c0.469-0.101,0.908-0.299,1.374-0.415
		c0.415-0.105,0.806-0.174,1.179-0.33c0.789-0.332,1.676-0.482,2.488-0.773c0.765-0.275,1.189-0.781,1.59-1.454
		c0.152-0.253,0.259-0.459,0.371-0.733c0.092-0.227,0.088-0.381,0.137-0.617c0.062-0.309,0.267-0.564,0.279-0.885
		c0.016-0.382-0.113-0.807-0.16-1.187c-0.111-0.902-0.186-1.81-0.236-2.718c-0.043-0.753-0.054-1.498-0.102-2.248
		c-0.02-0.299-0.045-0.598-0.08-0.898c-0.167-1.408-0.51-2.841-0.604-4.236c-0.035-0.529-0.118-1.064-0.111-1.596
		c0.004-0.324,0.076-0.643,0.055-0.968c-0.067-1.021-0.4-2.158-0.66-3.149c-0.133-0.512-0.336-1.059-0.515-1.578
		c-0.233-0.684-0.434-1.383-0.707-2.037c-0.13-0.312-0.171-0.582-0.298-0.885c-0.127-0.309-0.23-0.645-0.3-0.972
		c-0.054-0.256-0.081-0.523-0.14-0.778c-0.08-0.346-0.328-0.617-0.42-0.964c-0.328-1.245-0.703-2.48-0.961-3.747
		c-0.064-0.315-0.105-0.611-0.209-0.908c-0.19-0.541-0.495-0.987-0.748-1.494c-0.467-0.93-0.816-1.934-1.189-2.898
		c-0.373-0.962-0.727-1.928-1.111-2.885c-0.178-0.441-0.276-0.895-0.4-1.342c-0.064-0.232-0.141-0.316-0.188-0.611
		c-0.046-0.278-0.057-0.58-0.104-0.85c-0.097-0.56-0.151-0.994-0.155-1.57c-0.004-0.332,0.053-0.561,0.114-0.884
		c0.052-0.271-0.028-0.556,0.024-0.814c0.072-0.353,0.287-0.617,0.416-0.924c0.171-0.409,0.297-0.886,0.514-1.267
		c0.218-0.379,0.604-0.611,0.854-0.959c0.168-0.238,0.463-0.571,0.705-0.746c0.328-0.236,0.7-0.32,1.076-0.147
		c0.208,0.095,0.697,0.187,0.725,0.452c-0.044,0.011-0.088,0.021-0.131,0.033"/>
	<path fill="#245977" d="M93.003,176.827c-0.218-0.062-0.296,0.016-0.498,0.082c-1.115,0.362-2.35,0.377-3.442,0.787
		c-1.084,0.406-2.172,0.83-3.237,1.283c-1.19,0.506-2.429,0.951-3.705,1.076c-0.534,0.051-1.734,0.414-2.133-0.015
		c-0.192-0.205-0.204-0.495-0.468-0.71c-0.233-0.188-0.516-0.309-0.746-0.499c-0.758-0.626-1.373-1.166-2.291-1.533
		c-0.512-0.205-0.928-0.313-1.176-0.821c-0.123-0.253-0.435-0.813-0.329-1.079c0.839-0.151,1.349,0.149,1.979,0.708
		c0.256,0.227,0.541,0.55,0.854,0.697c0.372,0.174,0.8,0.225,1.159,0.393c0.052-0.398-1.139-0.963-1.437-1.247
		c-0.345-0.331-1.364-1.421-0.857-2.007c0.24-0.277,1.347,0.075,1.712,0.096c0.46,0.027,1.061-0.02,1.463-0.139
		c0.499-0.146,0.89-0.436,1.389-0.558c0.635-0.156,1.234-0.315,1.873-0.472c0.592-0.145,1.275-0.049,1.844-0.223
		c0.334-0.102,1.001-0.49,0.936-0.925c-0.068-0.47-0.971-0.284-1.302-0.145c-0.591,0.25-1.021,0.661-1.688,0.741
		c-0.761,0.093-1.987-0.709-0.983-1.35c0.483-0.308,1.186-0.421,1.729-0.566c0.195-0.053,0.391-0.086,0.578-0.164
		c0.234-0.096,0.467-0.205,0.711-0.275c0.291-0.083,0.611-0.186,0.916-0.203c0.322-0.018,0.628-0.062,0.938-0.08
		c0.153-0.009,0.296,0.029,0.44,0.053c0.236,0.038,0.517,0.044,0.755,0.033c0.428-0.021,0.864-0.061,1.291-0.105
		c0.764-0.081,1.547-0.186,2.316-0.186c0.097,0,0.193-0.001,0.289,0.001c0.049,0.001,0.119-0.009,0.164,0.009
		c0.091,0.037,0.066,0.031,0.076,0.131c0.025,0.229,0.018,0.461,0.043,0.691c0.051,0.449,0.141,0.892,0.247,1.33
		c0.163,0.67,0.364,1.332,0.517,2.006c0.308,1.362,0.388,2.87,1.012,4.133c-0.002-0.138,0.002-0.275,0.009-0.414"/>
	<path fill="#FF0000" d="M87.9,169.255c-0.368,0.833-1.333,1.412-1.995,2.035c-0.687,0.646-1.362,1.292-2.11,1.848
		c-0.467,0.346-1.09,1.223-1.649,1.299c-0.733,0.1-1.425-0.674-2.109-0.602c0.583-0.184,1.188-0.76,1.694-1.106
		c0.609-0.417,1.182-0.913,1.748-1.392c0.562-0.476,1.143-0.934,1.738-1.376c0.62-0.462,1.126-1.222,1.878-1.504
		c0.218,0.37,0.882,0.593,0.917,1.058c-0.072,0.003-0.139-0.018-0.197-0.061"/>
	<path d="M74.799,177.526c-0.099,0.156-0.234,0.292-0.338,0.448c-0.143,0.218-0.283,0.438-0.422,0.657
		c-0.187,0.293-0.474,0.502-0.672,0.786c-0.076,0.11-0.152,0.233-0.234,0.341c-0.055,0.071-0.152,0.131-0.178,0.215
		c0.536-0.189,1.135-0.264,1.699-0.387c0.262-0.059,0.525-0.129,0.777-0.211c0.225-0.072,0.459-0.157,0.686-0.211
		c0.01-0.121-0.23-0.334-0.307-0.428c-0.132-0.16-0.266-0.317-0.395-0.477c-0.117-0.146-0.226-0.303-0.334-0.461
		c-0.039-0.057-0.086-0.107-0.125-0.162c-0.039-0.057-0.068-0.143-0.123-0.18c0.01,0.018,0.022,0.034,0.039,0.047"/>
	<path d="M106.419,107.218c0.024-0.436-0.049-0.894,0.45-0.979c0.536-0.09,0.867,0.444,1.08,0.852
		c0.225,0.432,0.252,0.881,0.406,1.319c0.164,0.464,0.201,0.91,0.113,1.395c-0.381,0.024-0.65,0.019-0.842-0.331
		c-0.129-0.236-0.001-0.594-0.195-0.771c0.095,0.309,0.473,0.795,0.748,0.895c0.128-0.721-0.312-2.906-1.433-2.647
		c-0.049,0.189-0.082,0.383,0.06,0.487"/>
	<path fill="#FF0000" d="M174.691,156.878c0.574,0.58,1.975,0.525,2.756,0.703c1.346,0.305,2.654,0.699,3.971,1.012
		c2.707,0.645,5.232,1.768,8.027,2.218c6.051,0.976,12.388,0.55,18.339,1.996c2.636,0.642,5.311,1.384,8.071,1.396
		c1.709,0.006,3.27-0.465,4.958-0.411c1.182,0.038,2.364,0.12,3.546,0.181c1.824,0.094,3.457,0.266,5.215-0.138
		c1.686-0.386,3.429-0.629,5.179-0.685c0.04-0.177,0.09-0.352,0.146-0.524c1.001-0.163,1.941-1.429,2.889-1.953
		c0.894-0.495,2.318-0.964,3.006-1.788c1.765-2.115-0.926-6.027-1.369-8.326c-0.975-5.063-3.74-8.832-6.584-13.065
		c-2.182-3.251-3.343-7.156-5.926-10.179c-2.908-3.401-5.654-6.723-8.19-10.444c-2.411-3.538-5.208-6.813-8.322-9.737
		c-4.827-4.531-9.882-8.889-14.93-13.203c-1.828-1.562-3.797-3.189-5.95-4.203c-2.022-0.953-4.191-2.559-6.383-2.6
		c-1.303-0.025-2.453,1.169-3.447,2.021c-0.708,0.607-2.299,1.35-2.699,2.123c-0.615,1.187,1.438,2.449,2.187,3.378
		c0.854,1.058,1.46,2.362,2.36,3.457c1.809,2.2,4.236,3.764,6.17,5.914c2.352,2.618,5.066,4.595,7.521,7.118
		c2.957,3.039,6.23,5.539,8.737,8.987c2.341,3.222,4.009,7.025,6.186,10.372c2.312,3.555,5.419,7.844,5.917,12.14
		c-0.717-0.918-3.09-0.796-4.149-1.001c-1.253-0.242-2.373-0.48-3.571-0.986c-3.533-1.492-7.233-2.559-10.895-3.646
		c-2.882-0.855-5.551-1.876-8.28-2.78c-2.267-0.749-4.78-0.933-7.065-1.644c-1.182-0.368-2.294-0.975-3.513-1.181
		c-1.247-0.21-2.624-0.122-3.89-0.191c-1.037-0.057-2.878-0.283-3.559,0.777c-0.578,0.903-0.135,3.26,0.127,4.174
		c1.086,3.783,1.578,7.555,1.626,11.585c0.019,1.552-0.027,2.986,0.078,4.49c0.082,1.161-0.255,3.607,0.415,4.577"/>
	<path fill="#FF0000" d="M168.815,125.708c2.525,0.129,5.29-0.047,7.778,0.381c2.121,0.365,4.387,1.075,6.41,1.636
		c3.697,1.025,7.533,1.675,11.295,2.62c4.84,1.217,9.406,2.76,14.082,4.468c2.148,0.784,4.34,1.396,6.533,2.033
		c1.38,0.399,2.559,1.138,3.9,1.583c1.889,0.629,4.104,0.442,6.072,0.614c2.148,0.188,4.293,0.455,6.401,0.913
		c5.489,1.193,11.279,1.229,16.913,1.518c2.209,0.112,6.952,1.235,8.76-0.178c1.34-1.049,2.455-2.777,3.461-4.143
		c0.641-0.869,1.473-1.495,2.034-2.412c0.554-0.906,1.003-1.725,1.784-2.518c4.691-4.764,7.966-10.734,12.897-15.334
		c4.815-4.492,9.044-9.818,13.825-14.411c1.592-1.528,2.595-3.402,4.816-1.704c0.951,0.727,1.879,1.646,2.799,2.417
		c0.748,0.626,2.365,1.646,2.492,2.583c-2.146,1.599-3.828,5.459-4.843,7.932c-1.948,4.746-5.507,8.385-7.97,12.869
		c-3.656,6.662-7.633,13.266-11.557,19.771c-1.301,2.156-2.664,4.48-4.229,6.443c-1.32,1.654-1.922,2.127-3.971,2.476
		c-1.521,0.26-3.162,0.083-4.776,0.001c-4.084-0.21-8.166-0.43-12.249-0.629c-6.066-0.297-12.051-1.246-18.108-1.576
		c-6.214-0.338-12.389-0.014-18.572-0.881c-2.084-0.291-4.231-0.303-6.334-0.397c-1.217-0.055-2.424-0.514-3.602-0.515
		c-1.217-0.002-2.684,0.196-3.9,0.447c-3.306,0.682-6.641,0.348-10.01,0.877c-2.296,0.361-5.528,0.198-7.658,1.029
		c-0.872-0.777-1.232-2.814-1.811-3.807c-1.004-1.726-2.02-3.541-3.222-5.158c-1.521-2.043-3.495-3.662-4.933-5.744
		c-0.885-1.279-1.588-2.951-2.707-4.016"/>
	<g>
		<path fill="#999999" d="M160.474,52.612c0.808,0.436,1.478,1.176,2.183,1.783c0.628,0.541,1.252,1.139,1.926,1.616
			c0.811,0.575,1.537,1.272,2.333,1.869c1.03,0.772,1.96,1.698,2.97,2.501c0.633,0.506,1.276,1.008,1.885,1.529
			c0.129,0.109,0.266,0.197,0.383,0.32c0.118,0.121,0.234,0.256,0.362,0.357c0.181,0.142,0.489,0.479,0.733,0.395
			c0.227-0.078,0.408-0.263,0.646-0.326c0.288-0.077,0.576-0.146,0.861-0.236c0.172-0.054,0.331-0.039,0.504-0.057
			c0.119-0.014,0.211-0.077,0.319-0.102c0.179-0.041,0.388-0.062,0.573-0.091c0.118-0.019,0.316-0.019,0.42-0.084
			c-0.309-0.007-0.398-0.205-0.645-0.36c-0.399-0.252-0.824-0.473-1.201-0.754c-0.242-0.182-0.446-0.396-0.695-0.577
			c-0.328-0.239-0.641-0.508-0.973-0.746c-0.891-0.64-1.768-1.29-2.671-1.911c-0.932-0.641-1.85-1.307-2.759-1.981
			c-0.701-0.519-1.417-1.056-2.165-1.496c-0.37-0.218-0.714-0.504-1.06-0.761c-0.184-0.135-0.396-0.219-0.59-0.34
			c-0.221-0.14-0.432-0.293-0.657-0.432c-0.38-0.234-0.745-0.503-1.131-0.735c-0.373-0.224-0.755-0.426-1.132-0.638
			c-0.555-0.311-1.094-0.645-1.648-0.952c-0.41-0.228-0.824-0.492-1.246-0.694c-0.363-0.172-0.737-0.384-1.073-0.611
			c0.313,0.385,0.698,0.746,1.077,1.057c0.666,0.547,1.354,1.089,1.901,1.789"/>
		<path fill="#DBDADA" d="M156.494,48.609c0.088,0.031,0.271-0.004,0.393,0.018c0.143,0.026,0.293,0.09,0.453,0.101
			c0.396,0.027,0.781,0.08,1.174,0.098c0.24,0.012,0.463,0.07,0.705,0.075c0.272,0.005,0.562-0.009,0.837-0.025
			c0.507-0.03,1.021-0.009,1.525-0.034c1.13-0.059,2.283,0.047,3.421-0.023c0.361-0.021,0.747,0.04,1.109,0.059
			c0.365,0.02,0.731,0.037,1.097,0.057c0.39,0.02,0.79,0.065,1.18,0.047c0.288-0.015,0.573-0.119,0.866-0.139
			c0.351-0.023,0.716-0.03,1.067-0.012c0.642,0.031,1.272,0.102,1.907,0.135c1.035,0.053,2.102,0.056,3.094,0.24
			c-0.029,0.216,0.146,0.503,0.25,0.677c0.14,0.232,0.32,0.458,0.422,0.714c0.154,0.388,0.365,0.758,0.578,1.111
			c0.194,0.321,0.408,0.641,0.674,0.902c0.131,0.128,0.291,0.215,0.408,0.359c0.072,0.086,0.263,0.33,0.268,0.418
			c0.02,0.008,0.039,0.013,0.059,0.018c-0.052,0.227-0.258,0.495-0.366,0.703c-0.093,0.178-0.149,0.381-0.265,0.547
			c-0.16,0.232-0.307,0.254-0.545,0.159c-0.252-0.1-0.523-0.196-0.791-0.239c-0.317-0.051-0.594-0.125-0.902-0.225
			c-0.438-0.141-0.902-0.188-1.342-0.33c-0.627-0.205-1.242-0.432-1.855-0.66c-0.437-0.162-0.883-0.263-1.337-0.389
			c-0.538-0.15-1.095-0.206-1.628-0.384c-0.547-0.183-1.112-0.306-1.662-0.479c-1.174-0.373-2.387-0.68-3.521-1.179
			c-1.445-0.637-2.975-0.973-4.484-1.386c-0.57-0.156-1.135-0.297-1.699-0.472c-0.229-0.071-0.443-0.138-0.675-0.186
			c-0.11-0.022-0.218-0.062-0.323-0.083c-0.09-0.02-0.211-0.063-0.298-0.062c0.015-0.021,0.036-0.029,0.062-0.026"/>
		<path fill="#999999" d="M156.107,48.552c0.161,0.307,0.492,0.29,0.772,0.303c0.222,0.01,0.439,0.066,0.653,0.106
			c0.41,0.078,0.824,0.237,1.232,0.32c0.539,0.11,1.08,0.206,1.623,0.31c0.316,0.06,0.633,0.109,0.942,0.207
			c0.306,0.096,0.624,0.227,0.938,0.32c0.324,0.096,0.654,0.17,0.998,0.229c0.783,0.133,1.561,0.324,2.336,0.451
			c0.361,0.059,0.733,0.113,1.093,0.186c0.401,0.082,0.79,0.203,1.188,0.287c0.392,0.082,0.784,0.2,1.184,0.27
			c0.252,0.043,0.529,0.081,0.771,0.167c0.164,0.059,0.302,0.173,0.469,0.231c0.509,0.176,1.051,0.218,1.566,0.365
			c0.547,0.158,1.117,0.256,1.678,0.338c0.322,0.047,0.646,0.062,0.965,0.117c0.383,0.064,0.768,0.141,1.152,0.182
			c0.542,0.059,1.084,0.189,1.626,0.232c0.159,0.014,0.311,0.012,0.452,0.059c0.119,0.041,0.248,0.036,0.379,0.065
			c0.01,0.156-0.035,0.296-0.078,0.44c-0.082,0.273-0.309,0.499-0.443,0.746c-0.093,0.171-0.155,0.357-0.246,0.529
			c-0.283,0.537-0.745,0.945-1.021,1.495c-0.088,0.171-0.217,0.363-0.282,0.538c-0.604-0.246-1.29-0.362-1.907-0.621
			c-0.497-0.207-1.01-0.371-1.5-0.592c-0.377-0.172-0.766-0.361-1.152-0.503c-0.395-0.146-0.813-0.263-1.193-0.446
			c-0.357-0.172-0.73-0.309-1.092-0.47c-0.35-0.153-0.693-0.304-1.049-0.44c-1.453-0.559-2.859-1.245-4.336-1.754
			c-0.764-0.263-1.496-0.645-2.246-0.951c-0.811-0.332-1.584-0.719-2.393-1.044c-0.618-0.248-1.184-0.517-1.775-0.826
			c-0.293-0.154-0.609-0.255-0.91-0.386c-0.111-0.049-0.699-0.21-0.502-0.429"/>
		<path fill="#DBDADA" d="M156.021,48.849c0.089,0.082,0.227,0.104,0.337,0.177c0.135,0.089,0.264,0.186,0.391,0.281
			c0.347,0.261,0.681,0.544,1.036,0.798c0.291,0.209,0.616,0.375,0.908,0.572c0.154,0.104,0.307,0.238,0.444,0.364
			c0.171,0.158,0.358,0.288,0.542,0.438c0.809,0.662,1.615,1.331,2.465,1.935c0.239,0.171,0.498,0.307,0.734,0.485
			c0.337,0.256,0.641,0.535,1.006,0.742c0.576,0.326,1.102,0.764,1.672,1.101c1.143,0.677,2.203,1.489,3.361,2.147
			c1.189,0.674,2.338,1.424,3.518,2.105c0.377,0.219,0.713,0.522,1.102,0.721c0.397,0.202,0.783,0.408,1.168,0.639
			c0.664,0.396,1.34,0.806,2.021,1.156c0.915,0.473,1.77,1.069,2.699,1.502c0.137,0.064,0.281,0.111,0.418,0.173
			c0.129,0.058,0.229,0.144,0.354,0.208c0.101,0.051,0.378,0.248,0.469,0.234c0.075-0.303-0.14-0.663-0.222-0.945
			c-0.107-0.373-0.23-0.764-0.305-1.146c-0.149-0.76-0.525-1.471-0.727-2.228c-0.222-0.837-0.31-1.721-0.56-2.538
			c-0.03-0.099-0.116-0.312-0.194-0.381c-0.109-0.094-0.315-0.092-0.445-0.152c-0.295-0.136-0.571-0.307-0.855-0.459
			c-0.742-0.396-1.54-0.723-2.303-1.088c-0.918-0.438-1.911-0.684-2.836-1.13c-0.887-0.427-1.823-0.739-2.738-1.082
			c-0.972-0.363-1.951-0.683-2.924-1.034c-0.535-0.191-1.083-0.346-1.623-0.516c-0.578-0.182-1.217-0.341-1.762-0.616
			c-0.435-0.22-0.906-0.396-1.365-0.541c-0.218-0.067-0.43-0.153-0.647-0.222c-0.227-0.071-0.474-0.111-0.694-0.203
			c-0.914-0.376-1.892-0.613-2.797-1.03c-0.315-0.146-0.661-0.214-0.982-0.322c-0.104-0.034-0.209-0.058-0.312-0.091
			c-0.094-0.031-0.254-0.105-0.352-0.093"/>
	</g>
	<g>
		<path fill="#DBDADA" d="M121.314,194.913c0.053-1.051,0.414-1.978,0.562-3.034c0.205-1.479,0.337-2.913,0.834-4.327
			c0.523-1.492,1.898-1.613,3.254-1.377c0.531,0.092,1.129-0.082,1.581,0.243c0.462,0.331,0.617,1.009,0.9,1.467
			c0.364,0.587,0.888,0.797,1.55,0.987c0.598,0.172,0.994-0.032,1.602-0.131c0.525-0.084,0.952-0.199,1.359,0.24
			c0.453,0.487,0.442,1.463,0.918,1.909c0.24,0.224,0.436,0.072,0.68,0.229c0.228,0.148,0.463,0.534,0.679,0.734
			c0.271,0.25,1.245,0.947,1.253,1.372c0.001,0.146-0.387,0.423-0.474,0.537c-0.308,0.409-0.466,0.843-0.796,1.25
			c-0.551,0.681-1.133,1.167-1.931,1.565c-1.436,0.719-1.521,1.727-2.077,3.191c-0.068,0.184-0.143,0.355-0.199,0.545
			c-0.605-0.037-1.138,0.336-1.732,0.371c-0.565,0.032-0.992-0.356-1.4-0.697c-0.477-0.396-1.158-0.502-1.738-0.676
			c-0.361-0.106-0.689-0.273-1.065-0.332c-0.122-0.018-0.347-0.021-0.433-0.113c0.088-0.008,0.125-0.068,0.168-0.137
			c0.113-0.18,0.207-0.375,0.301-0.566c0.1-0.207,0.208-0.405,0.299-0.615c0.027-0.06,0.059-0.135,0.094-0.189
			c-0.027,0.041-0.336-0.036-0.381-0.046c-0.121-0.025-0.244-0.055-0.355-0.108c-0.14-0.066-0.252-0.171-0.406-0.206
			c-0.429-0.099-0.936,0.051-1.246,0.356c-0.422,0.413-0.709,0.752-1.246,0.918c-0.434,0.133-0.984,0.137-1.457,0.184
			c-1.036,0.104-3.064,0.578-2.703-1.097c0.109-0.499,0.436-0.941,0.521-1.447c0.092-0.55-0.041-1.067-0.07-1.597
			c-0.027-0.487,0.058-0.873,0.246-1.289c0.168-0.37,0.447-1.326,0.796-1.535c0.31-0.185,2.784-0.014,2.862,0.125"/>
		<path fill="#948F8F" d="M124.586,190.443c0.025,0.511-0.398,1.08-0.232,1.589c0.166,0.508,0.718,0.466,1.141,0.631
			c0.71,0.279,1.694,1.014,2.093,1.65c-0.096-0.468-0.22-1.039-0.556-1.389c-0.297-0.309-0.777-0.373-1.055-0.701
			c-0.584-0.689-0.67-2-0.604-2.848c-0.46,0.486-0.801,1.061-1.105,1.631"/>
		<path fill="#948F8F" d="M130.127,192.611c0.162,0.275,0.891,0.56,1.244,0.668c0.201,0.624-1.898,2.026-2.414,2.425
			c-0.32,0.248-1.072,0.95-1.494,0.979c-0.623,0.042-1.031-0.602-1.746-0.295c0.068-0.214,0.154-0.419,0.217-0.638
			c0.509-0.039,0.963,0.091,1.387,0.172c0.189-0.33,0.165-0.648,0.404-0.936c0.305-0.367,0.717-0.492,1.039-0.456
			c0.076,0.008,0.385,0.18,0.53,0.21c0.206,0.045,0.491,0.051,0.69,0.004c0.363-0.087,0.67-0.428,1.049-0.52
			c0.127-0.438,0.059-0.771-0.357-1.007"/>
		<path fill="#948F8F" d="M122.678,196.577c0.066,0.096-0.002,0.055,0.002-0.092c0.002,0.343,0.391,0.482,0.699,0.389
			c-0.257-0.373-1.342-0.78-1.842-0.793c-0.269-0.008-0.395,0.238-0.616,0.014c-0.198-0.202-0.054-0.643-0.085-0.905
			c-0.492,0.256-0.508,1.169-0.47,1.681c0.383,0.088,0.994-0.031,1.431-0.049c0.427-0.018,0.955-0.516,1.297-0.343
			c-0.029,0.204,0.112,0.179,0.155,0.272"/>
		<path fill="#948F8F" d="M127.555,186.249c-0.015,0.174,0.127,0.59,0.107,0.874c-0.027,0.368-0.373,0.62-0.328,0.976
			c0.353-0.029,0.508,0.262,0.807,0.379c0.033,0.365-0.041,0.748-0.008,1.114c0.076,0.057,0.155,0.062,0.236,0.013
			c0.134-0.449,0.25-0.774,0.213-1.25c-0.08-0.018-0.158-0.039-0.234-0.064c-0.17-0.373-0.371-1.04-0.389-1.441"/>
		<path fill="#948F8F" d="M130.957,199.03c0.032-0.508,0.225-0.938,0.219-1.438c-0.007-0.521-0.258-0.972,0.102-1.407
			c0.213-0.26,0.877-0.661,1.17-0.85c0.441-0.283,0.922-0.286,1.438-0.188c0.031,0.184,0.139,0.24,0.189,0.368
			c0.149-0.225,0.152-0.487,0.146-0.768c-0.026,0.62,0.226,1.216-0.224,1.579c-0.498,0.403-1.166,0.572-1.652,1.03
			c-0.381,0.36-0.818,0.786-1.043,1.252c-0.303,0.626-0.127,1.262-0.567,1.807c0.055-0.608,0.297-1.391,0.253-1.965"/>
		<path fill="#948F8F" d="M121.934,191.321c0.261,0.184,0.142,1.055,0.457,1.451c-0.551-0.062-1.312,0.403-1.824,0.196
			c0.02-0.317-0.141-0.56-0.255-0.831c0.276-0.034,0.557,0.016,0.831-0.012c0.086-0.305,0.376-0.686,0.646-0.812"/>
		<path fill="#DBDADA" d="M129.855,188.876c-0.01-0.076,0.062-0.127,0.104-0.183c0.104-0.135,0.218-0.267,0.309-0.411
			c0.135-0.217,0.287-0.42,0.442-0.623c0.069-0.092,0.144-0.222,0.224-0.301c0.111-0.107,0.229,0.053,0.303,0.137
			c0.178,0.201,0.343,0.437,0.547,0.613c0.25,0.219,0.521,0.382,0.818,0.517c0.127,0.058,0.188,0.102,0.204,0.233
			c0.007,0.061,0.003,0.104,0.037,0.152c0.055,0.076,0.165,0.104,0.202,0.193"/>
	</g>
	<path d="M97.037,124.261c0.408,0.016,0.793-0.111,1.201,0.017c0.387,0.122,0.712,0.173,1.098,0.009
		c-0.387,0.15-0.89,0.09-1.324,0.068c-0.246-0.013-0.467-0.051-0.708-0.08c-0.231-0.03-0.356-0.108-0.565,0.062
		c0.037,0,0.08,0.007,0.117,0.004"/>
	<path fill="#CCCCCC" d="M312.678,80.415c0.139,1.158,1.063,2.584,1.538,3.716c0.784,1.872,1.624,3.733,2.304,5.662
		c0.814,2.313,1.663,4.574,2.494,6.876c0.344,0.949,0.686,1.887,1,2.85c0.417,1.274,0.693,2.625,1.137,3.89
		c1.314,3.747,2.538,7.505,3.883,11.229c0.527,1.46,0.979,2.95,1.516,4.382c0.3,0.799,0.425,2.378,1.262,2.783
		c0.336-0.379,0.188-0.969,0.281-1.426c0.088-0.434,0.27-0.801,0.32-1.262c0.105-0.956,0.417-1.812,0.72-2.711
		c0.219-0.651,0.392-1.369,0.675-1.979c0.17-0.367,0.503-0.734,0.58-1.138c0.082-0.431-0.197-0.476-0.453-0.801
		c-0.445-0.564-0.65-1.277-1.079-1.853c-0.894-1.194-1.573-2.441-2.318-3.729c-1.431-2.471-2.773-4.997-3.953-7.594
		c-0.466-1.024-0.812-2.039-1.337-3.027c-0.408-0.771-0.852-1.555-1.318-2.293c-0.453-0.717-0.777-1.536-1.131-2.289
		c-0.359-0.767-0.732-1.514-1.129-2.266c-0.871-1.649-1.753-3.264-2.463-5.003c-0.354-0.868-0.765-1.667-1.218-2.463
		c-0.37-0.653-0.974-1.357-1.118-2.099c0.039-0.028,0.077-0.027,0.125-0.018"/>
	<path fill="#245977" d="M319.375,101.763c0.113,1.171,1.68,1.817,2.049,2.986c0.133,0.42,0.242,1.5-0.018,1.89
		c-0.197,0.296-0.66,0.343-0.975,0.335c-0.25-0.006-0.395-0.002-0.653-0.162c-0.354-0.221-0.489-0.516-0.778-0.784"/>
	<path d="M89.492,78.239c3.21-2.678,6.914-7.74,10.877-3.475c6.273,6.754,9.102,16.062,10.734,24.53
		c-1.371-2.38-5.731-3.23-8.252-3.796c-3.08-0.691-6.012-1.555-9.163-2.15c-5.415-1.022-12.995-1.901-17.319,2.462
		c0.084-0.912,0.094-2.034,0.598-2.835c0.557-0.883,0.995-1.822,1.566-2.703c0.447-0.691,0.995-1.31,1.436-2.011
		c0.584-0.927,1.572-1.489,2.004-2.513c0.449-1.064,1.371-1.932,2.166-2.748C85.809,81.289,87.657,79.769,89.492,78.239z"/>
	<path d="M93.139,121.81c0.23-0.137,0.391-0.719,0.609-0.964c0.273-0.307,0.553-0.552,0.954-0.667
		c0.51-0.147,0.921-0.045,1.39,0.154c0.449,0.193,0.771,0.268,1.26,0.292c0.557,0.028,0.73-0.046,1.215-0.29
		c0.398-0.201,0.635-0.29,0.697-0.765c0.039-0.302-0.057-0.702-0.365-0.847c-0.082-0.037-0.486-0.12-0.576-0.111
		c-0.162,0.017-0.397,0.177-0.197,0.316c0.006-0.408,0.522-0.609,0.867-0.51c0.396,0.116,0.595,0.565,0.617,0.913
		c0.061,0.973-0.658,1.698-1.576,1.739c-0.455,0.02-0.883-0.078-1.309-0.151c-0.468-0.079-0.908-0.237-1.393-0.234
		c-0.789,0.007-1.787,0.577-2.125,1.3c-0.001,0.061,0.001,0.059,0.005-0.008"/>
	<path d="M91.964,122.242c0.092,0.107-0.132-0.011-0.228-0.029c-0.114-0.021-0.251-0.073-0.401-0.085
		c-0.354-0.027-0.844-0.117-1.179-0.003c-0.446,0.151-0.89,0.804-1.068,1.203c-0.193,0.435-0.312,0.943-0.701,1.265
		c-0.479,0.396-0.998,0.657-1.459,0.119c0.316,0.428,0.873,0.74,1.415,0.72c0.595-0.022,0.704-0.768,0.89-1.271
		c0.205-0.553,0.501-1.035,0.953-1.43c0.599-0.522,1.086-0.525,1.86-0.484"/>
	<path fill="#CCCCCC" d="M97.336,206.254c-0.426-0.421-0.818-0.876-1.255-1.284c-0.104-0.098-0.216-0.186-0.329-0.271
		c-0.027-0.021-0.057-0.043-0.086-0.065c-0.021-0.016-0.051-0.03-0.068-0.049c-0.018-0.021-0.029-0.046-0.051-0.064
		c-0.021-0.019-0.044-0.035-0.068-0.051c-0.006-0.004-0.012-0.007-0.018-0.012c-0.045-0.03-0.085-0.063-0.135-0.087
		c-0.074-0.038-0.176-0.089-0.25-0.042c0.02-0.005,0.037-0.021,0.055-0.033c0.025-0.017,0.053-0.028,0.081-0.044
		c0.061-0.033,0.126-0.068,0.19-0.094c0.08-0.031,0.164-0.057,0.247-0.084c0.106-0.034,0.214-0.072,0.323-0.101
		c0.096-0.024,0.184-0.06,0.274-0.095c0.046-0.018,0.095-0.028,0.142-0.043c0.045-0.014,0.09-0.029,0.135-0.043
		c0.182-0.053,0.359-0.114,0.537-0.179c0.095-0.034,0.189-0.062,0.289-0.081c0.039-0.008,0.078-0.02,0.115-0.031
		c0.027-0.008,0.057-0.018,0.084-0.025c0.06-0.018,0.125-0.033,0.186-0.037c0.068-0.005,0.135-0.025,0.201-0.041
		c0.942-0.228,1.867-0.326,2.805-0.528c1.049-0.226,0.244-0.31,1.307-0.509c1.015-0.19,0.172-0.081,1.164-0.373
		c0.979-0.288,1.916-0.785,2.926-0.947c0.453-0.074,0.643-0.253,0.986-0.537c0.217-0.178,0.444-0.477,0.686-0.586
		c-0.018,0.086,0.025,0.217,0.012,0.306c0.447,0.157,0.574-0.278,0.727-0.582c0.219-0.438,0.511-0.372,0.945-0.456
		c0.225-0.043,0.852-0.229,1.039-0.009c0.162,0.19-0.054,0.528-0.171,0.681c-0.307,0.398-0.937,0.65-1.064,1.17
		c-0.511,0.167-0.437-0.716-0.919-0.504c-0.309,0.137-0.163,0.424-0.127,0.672c0.055,0.385-0.031,0.499-0.342,0.732
		c-0.631,0.473-1.384,0.743-2.036,1.18c-1.147,0.768-0.674,0.914-1.718,1.822c-0.346,0.299-0.684,0.664-1.034,0.97
		c-0.435,0.378-0.94,0.593-1.389,0.928c-0.753,0.562,0.481,1.073-0.28,1.644c-0.493,0.369-0.402,0.213-0.878-0.125
		c-0.37-0.264-0.797-0.374-1.174-0.555C98.625,207.419,97.955,206.862,97.336,206.254z"/>
	<path fill="#CCCCCC" d="M93.49,204.028c0.377-0.112,0.812-0.18,1.139-0.407c0.336-0.233,0.721-0.288,1.109-0.399
		c0.448-0.128,0.879-0.312,1.332-0.418c0.528-0.123,1.04-0.306,1.573-0.416c0.591-0.124,1.177-0.279,1.765-0.418
		c0.832-0.197-0.293-0.344,0.543-0.512c0.757-0.151,1.517-0.281,2.273-0.431c0.934-0.185,0.078,0.099,1.021-0.042
		c0.329-0.049,0.587,0.037,0.909,0.047c0.408,0.014,0.805-0.185,1.188-0.303c0.364-0.111,0.713-0.235,1.037-0.418
		c0.355-0.2,0.756-0.494,1.175-0.545c-0.048-0.096-0.248-0.391-0.372-0.412c-0.267-0.047-0.344,0.329-0.65,0.201
		c-0.086-0.196-0.043-0.418-0.227-0.572c-0.119-0.1-0.465-0.173-0.592-0.048c-0.217,0.213,0.259,0.921-0.486,0.716
		c-0.172-0.408-0.026-0.912-0.691-0.82c-0.107,0.249,0.204,0.496-0.063,0.693c-0.269,0.198-0.438-0.214-0.593-0.411
		c-0.151-0.196-0.613-0.669-0.75-0.124c-0.104,0.414,0.439,0.373,0.702,0.456c0.023,0.075,0.019,0.145-0.013,0.218
		c-1.381,0.121-0.951-0.559-2.314-0.412c-1.508,0.16-1.062,0.244-2.563,0.465c-1.517,0.225-3.05,0.273-4.556,0.547
		c-1.74,0.314-3.496,0.6-5.273,0.508c-0.5-0.025-1.017-0.092-1.518-0.061c-0.291,0.019-0.555,0.127-0.839,0.175
		c-0.458,0.078-0.945,0.016-1.407,0.003c-0.523-0.017-1.048-0.032-1.572-0.059c-0.274-0.014-0.537-0.036-0.81,0.003
		c-0.146,0.02-0.273,0.073-0.411,0.114c-0.007,0.092,0.134,0.186,0.197,0.238c0.146,0.121,0.297,0.233,0.457,0.336
		c0.213,0.139,0.428,0.274,0.652,0.394c0.274,0.146,0.523,0.337,0.809,0.467c0.364,0.166,0.717,0.358,1.082,0.519
		c0.402,0.177,0.816,0.304,1.229,0.449c0.432,0.151,0.865,0.289,1.297,0.436c0.123,0.041,0.252,0.075,0.374,0.121
		c0.159,0.06,0.29,0.187,0.438,0.268c0.182,0.101,0.359,0.211,0.545,0.308c0.127,0.065,0.258,0.107,0.394,0.153
		c0.042,0.016,0.079,0.039,0.124,0.039c0.062,0.001,0.127-0.034,0.186-0.047c0.262-0.055,0.522-0.107,0.78-0.181
		C92.578,204.316,93.031,204.164,93.49,204.028z"/>
	<path fill="#948F8F" d="M105.818,199.036c0.01,0.043-0.021,0.092-0.024,0.133c-0.003,0.055,0.009,0.123,0.028,0.174
		c0.031,0.082,0.09,0.111,0.157,0.158c0.175,0.122,0.206,0.406,0.416,0.48c0.075,0.027,0.131-0.014,0.187,0.068
		c0.083,0.127,0.014,0.986-0.16,0.91c-0.01-0.105,0.005-0.088-0.088-0.127c-0.027-0.013-0.068-0.027-0.066-0.064
		c0.003-0.052,0.11-0.104,0.129-0.162c0.072-0.23-0.095-0.57-0.183-0.777c-0.032-0.074-0.071-0.166-0.075-0.242
		c-0.006-0.095,0.004-0.168-0.027-0.26c-0.026-0.08-0.08-0.211-0.148-0.262c-0.063-0.047-0.167-0.072-0.148,0.044"/>
	<path fill="#948F8F" d="M107.139,199.103c-0.012-0.009-0.035-0.014-0.051-0.019c-0.025,0.14-0.016,0.29-0.039,0.431
		c-0.027,0.17-0.102,0.386-0.066,0.561c0.014,0.061,0.057,0.123,0.118,0.145c0.05,0.018,0.103-0.005,0.146,0.035
		c0.097,0.086-0.056,0.211-0.106,0.281c0.06,0.015,0.144-0.068,0.188-0.102c0.096-0.072,0.176-0.158,0.271-0.229
		s0.213-0.154,0.336-0.163c-0.006-0.054-0.067-0.069-0.106-0.093c-0.079-0.049-0.147-0.105-0.223-0.159
		c-0.076-0.054-0.144-0.12-0.217-0.178c-0.032-0.026-0.099-0.069-0.105-0.115c-0.01-0.063,0.05-0.106,0.065-0.163
		c0.017-0.066-0.008-0.102-0.045-0.149c-0.025-0.031-0.053-0.063-0.072-0.096c-0.021-0.037-0.027-0.091-0.064-0.112
		c-0.006,0.012-0.008,0.023-0.006,0.035"/>
	<path fill="#948F8F" d="M104.559,198.823c-0.012,0.085,0.055,0.146,0.113,0.204c0.129,0.126,0.273,0.235,0.375,0.39
		c0.104,0.156,0.193,0.316,0.191,0.509c0,0.159-0.023,0.323-0.092,0.47c-0.047,0.098-0.123,0.18-0.18,0.271
		c-0.02,0.031-0.065,0.09-0.047,0.129c0.014,0.025,0.08,0.032,0.107,0.043c0.103,0.047,0.196,0.101,0.31,0.119
		c0.094,0.015,0.187,0.031,0.263,0.088c0.067-0.113,0.094-0.29,0.1-0.424c0.008-0.162,0.133-0.443,0.051-0.599
		c-0.045-0.085-0.185-0.153-0.256-0.212c-0.141-0.12-0.299-0.207-0.432-0.338c-0.154-0.152-0.232-0.359-0.381-0.518
		c-0.061-0.066-0.139-0.131-0.213-0.178c-0.095-0.059-0.152-0.023-0.217,0.064c0.039,0,0.03,0.021,0.047,0.041"/>
	<path fill="#948F8F" d="M108.754,199.554c0.004,0.008,0.002-0.035,0.006-0.053c0.131-0.006,0.135,0.498,0.133,0.592
		c-0.003,0.143-0.024,0.272-0.072,0.402c-0.021,0.059-0.057,0.123-0.069,0.182c-0.065,0.327,0.524,0.131,0.521,0.277
		c0.049-0.146,0.096-0.297,0.119-0.452c0.035-0.229-0.02-0.417-0.172-0.593c-0.073-0.085-0.18-0.146-0.246-0.238
		c-0.073-0.1-0.081-0.238-0.146-0.335c0.015,0.002,0.034-0.001,0.048,0.004"/>
	<path fill="#948F8F" d="M109.822,199.167c0,0.02,0.021,0.067,0.027,0.106c0.016,0.071,0.002,0.173-0.008,0.245
		c-0.018,0.132-0.168,0.236-0.166,0.359c0.004,0.291,0.568-0.144,0.608,0.062c0.071-0.074,0.152-0.123,0.191-0.225
		c0.044-0.109,0.026-0.227-0.075-0.293c-0.109-0.072-0.479-0.064-0.448-0.268"/>
	<path fill="#4D4545" d="M109.176,201.029c0.09,0.096-0.15,0.103-0.189,0.101c-0.143-0.007-0.287-0.004-0.416-0.062
		c-0.047-0.021-0.078-0.035-0.131-0.039c-0.047-0.003-0.117,0.01-0.152-0.021c-0.066-0.056-0.039-0.188-0.035-0.265
		c0.003-0.09,0.074-0.208,0.176-0.231c0.1-0.022,0.21,0.04,0.291,0.085c0.121,0.064,0.17,0.162,0.24,0.274
		c0.035,0.058,0.069,0.141,0.123,0.183c0.051,0.039,0.121,0.035,0.182,0.054"/>
	<g>
		<path fill="none" stroke="#000000" stroke-width="0.145" stroke-miterlimit="10" d="M60.289,190.353
			c-0.012,0.016-0.025,0.032-0.037,0.048c0.148,0.34,0.48,0.556,0.838,0.598c0.354,0.04,0.849-0.317,0.96-0.647
			c0.058-0.17,0.119-0.355,0.134-0.539c0.014-0.154,0.074-0.375,0.009-0.518c-0.05-0.109-0.231-0.372-0.349-0.417
			c-0.212-0.08-0.34,0.181-0.521,0.138"/>
		<path fill="none" stroke="#000000" stroke-width="0.145" stroke-miterlimit="10" d="M59.83,190.364
			c-0.003-0.101,0.137-0.345,0.198-0.428c0.079-0.106,0.165-0.17,0.232-0.284c0.067-0.116,0.115-0.215,0.217-0.305
			c0.137-0.12,0.192-0.257,0.339-0.376c0.092-0.074,0.184-0.143,0.255-0.235c0.044-0.057,0.028-0.124,0.122-0.175
			c-0.211,0.175-0.414,0.392-0.643,0.543c-0.182,0.118-0.504,0.011-0.466-0.244c0.025-0.173,0.159-0.223,0.25-0.35
			c0.075-0.104,0.149-0.234,0.216-0.326c0.074-0.104,0.17-0.154,0.109-0.296c-0.05-0.117-0.185-0.19-0.299-0.128"/>
		<path fill="none" stroke="#000000" stroke-width="0.145" stroke-miterlimit="10" d="M59.93,188.028
			c0.029-0.131-0.158-0.352-0.27-0.409c-0.162-0.083-0.316,0.024-0.424,0.146c-0.119,0.138-0.051,0.266,0.069,0.416
			c0.155,0.195,0.306,0.196,0.507,0.043c0.275-0.212,0.328-0.734,0.26-1.061c-0.029-0.141-0.059-0.303-0.19-0.34
			c-0.195-0.054-0.35,0.135-0.48,0.242"/>
		<path fill="none" stroke="#000000" stroke-width="0.145" stroke-miterlimit="10" d="M58.826,187.831
			c0.012-0.016,0.023-0.031,0.035-0.048c-0.018-0.035-0.035-0.071-0.054-0.106c0.055-0.054,0.071-0.13,0.099-0.195
			c0.043-0.1,0.096-0.148,0.152-0.242c0.04-0.067,0.043-0.176,0.09-0.245c0.076-0.112,0.155-0.167,0.18-0.317
			c-0.147,0.057-0.244,0.217-0.377,0.301c-0.127,0.08-0.092,0.083-0.203-0.018c-0.068-0.061-0.127-0.15-0.186-0.221
			c-0.123-0.149-0.152-0.211-0.34-0.183c-0.209,0.03-0.291,0.204-0.139,0.399c0.133,0.172,0.244-0.023,0.369-0.125
			c0.145-0.118,0.168-0.219,0.211-0.389c0.051-0.202,0.094-0.424-0.02-0.617c-0.024-0.042-0.137-0.197-0.188-0.202
			c-0.065-0.005-0.171,0.132-0.219,0.17"/>
		<path fill="none" stroke="#000000" stroke-width="0.145" stroke-miterlimit="10" d="M59.1,189.384
			c0.012-0.328-0.023-0.934-0.311-1.131c-0.018,0.01-0.035,0.02-0.053,0.029"/>
		<path fill="none" stroke="#000000" stroke-width="0.145" stroke-miterlimit="10" d="M56.582,185.497
			c-0.01-0.189,0.238-0.256,0.34-0.376c0.053-0.062,0.062-0.136,0.113-0.198c0.07-0.086,0.193-0.158,0.279-0.23
			c0.182-0.15,0.291-0.33,0.461-0.483c0.078-0.069,0.202-0.134,0.266-0.216c0.049-0.063,0.016-0.137,0.097-0.183
			c-0.158,0.142-0.345,0.263-0.479,0.427c-0.13,0.158-0.19,0.33-0.346,0.457c-0.065,0.053-0.174,0.117-0.225,0.184
			c-0.053,0.072-0.043,0.121-0.11,0.194c-0.118,0.129-0.304,0.319-0.479,0.218c-0.143-0.084-0.339-0.207-0.314-0.4
			c0.022-0.166,0.137-0.33,0.283-0.424c0.101-0.064,0.285-0.096,0.411-0.045c0.171,0.07,0.385,0.384,0.161,0.504"/>
		<path fill="none" stroke="#000000" stroke-width="0.145" stroke-miterlimit="10" d="M54.919,185.862
			c0.161-0.374,0.376-0.744,0.604-1.097c0.115-0.177,0.27-0.323,0.377-0.5c0.029-0.046,0.035-0.151,0.062-0.198
			c0.053-0.086,0.141-0.11,0.127-0.227c-0.01,0.011-0.021,0.021-0.031,0.031"/>
		<path fill="none" stroke="#000000" stroke-width="0.145" stroke-miterlimit="10" d="M54.822,184.632
			c-0.006-0.123,0.091-0.176,0.173-0.24c0.108-0.086,0.163-0.168,0.229-0.286c0.079-0.142,0.308-0.438,0.158-0.606
			c-0.003-0.004-0.201-0.093-0.199-0.094c-0.068,0.006-0.229,0.154-0.274,0.207c-0.096,0.115-0.137,0.269-0.213,0.396
			c-0.057,0.1-0.098,0.151-0.197,0.238"/>
		<path fill="none" stroke="#000000" stroke-width="0.145" stroke-miterlimit="10" d="M53.752,184.028
			c-0.002-0.024-0.006-0.051-0.009-0.076c-0.026,0.059,0.042,0.162,0.114,0.184c0.112,0.034,0.241-0.096,0.311-0.173
			c0.156-0.174,0.004-0.342,0.004-0.549c-0.002-0.147,0.029-0.394,0.184-0.459c0.328-0.138,0.369,0.368,0.36,0.546"/>
		<path fill="none" stroke="#000000" stroke-width="0.145" stroke-miterlimit="10" d="M51.998,184.285
			c0.029,0.119,0.005,0.158,0.135,0.193c0.09,0.023,0.268-0.023,0.35-0.058c0.275-0.115,0.606-0.446,0.734-0.713
			c0.134-0.278,0.266-0.521,0.318-0.828c0.027-0.159,0.002-0.257-0.055-0.406c-0.051-0.13-0.066-0.24-0.223-0.262
			c-0.234-0.033-0.539,0.131-0.7,0.287c-0.202,0.197-0.287,0.486-0.404,0.741c-0.11,0.241-0.194,0.429-0.19,0.694
			c0.002,0.1-0.012,0.259,0.029,0.35c0.051,0.109,0.203,0.287,0.301,0.128"/>
		<path fill="none" stroke="#000000" stroke-width="0.145" stroke-miterlimit="10" d="M52.883,182.884
			c-0.075-0.137,0.023-0.402,0.025-0.558c0-0.165-0.093-0.463,0.025-0.61"/>
		<path fill="none" stroke="#000000" stroke-width="0.145" stroke-miterlimit="10" d="M50.949,184.042
			c-0.01-0.209,0.465-0.484,0.613-0.609"/>
		<path fill="none" stroke="#000000" stroke-width="0.145" stroke-miterlimit="10" d="M51.968,181.684
			c-0.029-0.076-0.146,0.033-0.213,0.083c-0.089,0.067-0.091,0.125-0.14,0.192c-0.055,0.075-0.106,0.155-0.16,0.229
			c-0.074,0.102-0.226,0.152-0.219,0.298"/>
		<path fill="none" stroke="#000000" stroke-width="0.145" stroke-miterlimit="10" d="M50.678,183.05
			c-0.016-0.012-0.031-0.023-0.048-0.035c-0.059,0.041-0.208,0.09-0.263,0.013c-0.076-0.103,0.168-0.23,0.236-0.29
			c0.179-0.154,0.43-0.174,0.662-0.178c-0.112,0.087-0.145,0.106-0.172,0.228c-0.029,0.126,0.026,0.335-0.07,0.447
			c-0.223,0.259-0.467-0.192-0.181-0.323"/>
		<path fill="none" stroke="#000000" stroke-width="0.145" stroke-miterlimit="10" d="M49.438,183.248
			c0.051-0.114,0.1-0.241,0.18-0.344c0.041-0.052,0.129-0.104,0.18-0.146c0.113-0.093,0.148-0.152,0.227-0.264
			c0.084-0.12,0.222-0.183,0.309-0.301c0.146-0.198,0.322-0.345,0.518-0.508c0.109-0.092,0.217-0.185,0.326-0.275
			c0.154-0.129,0.303-0.214,0.039-0.318c-0.147-0.06-0.188-0.076-0.299-0.213c-0.158-0.197-0.182-0.125-0.357,0.02"/>
		<path fill="none" stroke="#000000" stroke-width="0.145" stroke-miterlimit="10" d="M50.025,181.159
			c0.062-0.281-0.506-0.334-0.535,0.004c-0.023,0.294,0.266,0.431,0.509,0.305c0.255-0.133,0.358-0.44,0.288-0.694
			c-0.028-0.108-0.089-0.255-0.199-0.328c-0.111-0.073-0.245-0.003-0.359,0.025"/>
		<path fill="none" stroke="#000000" stroke-width="0.145" stroke-miterlimit="10" d="M68.465,187.142
			c0.131-0.105,0.239-0.139,0.378-0.219c0.132-0.076,0.247-0.217,0.367-0.311c-0.104,0.098-0.327,0.15-0.462,0.197
			c-0.16,0.057-0.346,0.176-0.518,0.086c-0.195-0.102,0.004-0.219,0.131-0.322c0.143-0.117,0.281-0.238,0.423-0.355
			c-0.194,0.162-0.324,0.271-0.575,0.315c-0.109,0.019-0.123,0.069-0.24-0.003c-0.123-0.076-0.159-0.148-0.145-0.259
			c0.027-0.198,0.223-0.276,0.385-0.321c0.091-0.025,0.201-0.062,0.271-0.131c0.072-0.07,0.112-0.258-0.041-0.157"/>
		<path fill="none" stroke="#000000" stroke-width="0.145" stroke-miterlimit="10" d="M67.115,185.649
			c0.002-0.021,0.004-0.044,0.006-0.066c-0.025,0.127,0.014,0.258,0.122,0.337c0.114,0.083,0.231,0.022,0.351-0.036
			c0.226-0.112,0.368-0.273,0.328-0.532c-0.023-0.149-0.076-0.218-0.201-0.216c-0.045,0.002-0.22,0.104-0.266,0.133
			c-0.102,0.062-0.17,0.135-0.201,0.24c-0.023,0.071-0.029,0.305,0.096,0.217c-0.032-0.169-0.399-0.115-0.512-0.197
			c0.013-0.017,0.025-0.035,0.038-0.053"/>
		<path fill="none" stroke="#000000" stroke-width="0.145" stroke-miterlimit="10" d="M66.582,185.349
			c0.125-0.105,0.275-0.203,0.373-0.334c0.064-0.088,0.082-0.143,0.171-0.221c0.076-0.066,0.165-0.115,0.219-0.201
			c-0.167-0.146-0.599,0.682-0.894,0.494c-0.211-0.133-0.053-0.35,0.052-0.496c0.073-0.102,0.203-0.148,0.272-0.246
			c0.055-0.074,0.008-0.146,0.113-0.192"/>
		<path fill="none" stroke="#000000" stroke-width="0.145" stroke-miterlimit="10" d="M64.209,183.31
			c-0.092-0.088-0.139,0.006-0.117,0.092c0.029,0.109,0.166,0.145,0.258,0.162c0.299,0.061,0.518,0.032,0.762-0.167
			c0.227-0.185,0.398-0.513,0.197-0.806c-0.084-0.121-0.217-0.168-0.36-0.163c-0.129,0.005-0.24,0.124-0.365,0.099"/>
		<path fill="none" stroke="#000000" stroke-width="0.145" stroke-miterlimit="10" d="M63.635,182.291
			c0.003-0.021,0.006-0.043,0.009-0.063c-0.118,0.208-0.096,0.573,0.087,0.736c0.243,0.218,0.611,0.08,0.785-0.189
			c0.115-0.177,0.094-0.562-0.098-0.677c-0.107-0.064-0.299,0.033-0.405,0.085C63.904,182.235,63.721,182.505,63.635,182.291"/>
		<path fill="none" stroke="#000000" stroke-width="0.145" stroke-miterlimit="10" d="M63.277,182.312
			c-0.051-0.119,0.008-0.28-0.12-0.373c-0.098-0.072-0.251-0.037-0.294,0.082c-0.047,0.131,0.076,0.233,0.154,0.32
			c0.146,0.162,0.287,0.104,0.467-0.012c0.258-0.166,0.281-0.51,0.244-0.796c-0.059-0.431-0.467-0.308-0.777-0.168"/>
		<path fill="none" stroke="#000000" stroke-width="0.145" stroke-miterlimit="10" d="M62.465,181.681
			c0.177-0.148,0.369-0.281,0.472-0.469c0.094-0.172,0.151-0.475-0.069-0.604c-0.178,0.096-0.334,0.168-0.488,0.301
			c-0.164,0.139-0.33,0.276-0.494,0.414"/>
		<path fill="none" stroke="#000000" stroke-width="0.145" stroke-miterlimit="10" d="M61.535,181.243
			c-0.006-0.014-0.013-0.027-0.018-0.041c0.404-0.088,0.631-0.573,0.794-0.898c-0.083,0.08-0.18,0.139-0.246,0.232
			c-0.077,0.108-0.155,0.266-0.294,0.324c-0.088,0.037-0.225,0.009-0.314-0.018c-0.139-0.039-0.293-0.209-0.431-0.205"/>
		<path fill="none" stroke="#000000" stroke-width="0.145" stroke-miterlimit="10" d="M59.938,179.678
			c0.094-0.076,0.117-0.134,0.184-0.228c0.069-0.098,0.172-0.166,0.264-0.243c0.18-0.149,0.357-0.3,0.535-0.449
			c-0.16,0.135-1.003,1.048-1.165,0.599c-0.054-0.148,0.141-0.398,0.253-0.488c0.111-0.09,0.246-0.333,0.148-0.479
			c-0.02,0.01-0.039,0.019-0.059,0.028"/>
		<path fill="none" stroke="#000000" stroke-width="0.145" stroke-miterlimit="10" d="M59.564,178.678
			c0.115-0.122-0.074-0.12-0.137-0.161c-0.157-0.102-0.17-0.198-0.351-0.088c-0.313,0.192-0.034,0.559,0.262,0.539
			c0.284-0.018,0.532-0.344,0.515-0.625c-0.008-0.129-0.08-0.335-0.182-0.411c-0.094-0.069-0.341-0.143-0.441-0.099"/>
		<path fill="none" stroke="#000000" stroke-width="0.145" stroke-miterlimit="10" d="M60.836,179.297
			c0.004-0.019,0.007-0.037,0.01-0.056c-0.139,0.082-0.607-0.127-0.765-0.152c-0.19-0.028-0.347-0.043-0.531-0.12
			c-0.122-0.051-0.427-0.132-0.488-0.235c0.19-0.064,0.398-0.067,0.604-0.047c0.143,0.014,0.663,0.135,0.752,0.012
			c-0.291-0.226-0.829,0.01-1.135-0.141c0.121-0.182,0.311-0.202,0.506-0.256c0.084-0.023,0.195-0.033,0.276-0.063
			c0.073-0.028,0.11-0.101,0.196-0.087c-0.252-0.127-0.665,0.11-0.887-0.046c0.107-0.165,0.329-0.296,0.48-0.422"/>
		<path fill="none" stroke="#000000" stroke-width="0.145" stroke-miterlimit="10" d="M63.959,188.581
			c-0.01-0.193,0.172-0.199,0.276-0.254c0.124-0.064,0.212-0.181,0.339-0.242c0.113-0.056,0.252-0.074,0.356-0.128
			c0.155-0.081,0.279-0.205,0.468-0.236c0.236-0.04,0.705-0.007,0.546,0.318c-0.147,0.302-0.368,0.44-0.634,0.229
			c-0.276-0.222-0.437-0.544-0.74-0.743c-0.136-0.09-0.252-0.159-0.406-0.149c-0.127,0.008-0.305,0.109-0.38,0.222
			c-0.061,0.092-0.049,0.26,0.079,0.295c0.156,0.045,0.361-0.161,0.402-0.291c0.037-0.121,0.033-0.367-0.024-0.477
			c-0.081-0.154-0.354-0.271-0.501-0.142"/>
		<path fill="none" stroke="#000000" stroke-width="0.145" stroke-miterlimit="10" d="M62.544,186.675
			c0.018-0.074,0.022-0.186,0.067-0.248c0.059-0.084,0.107-0.099,0.148-0.189c0.033-0.072,0.107-0.174,0.127-0.247
			c0.029-0.103-0.012-0.165,0.08-0.252c-0.098-0.134-0.411,0.095-0.545,0.128c-0.15,0.037-0.342,0.002-0.479,0.094"/>
		<path fill="none" stroke="#000000" stroke-width="0.145" stroke-miterlimit="10" d="M61.666,185.631
			c0.014-0.017,0.027-0.033,0.04-0.05c-0.071-0.071-0.284-0.189-0.384-0.139c-0.119,0.06-0.125,0.236-0.026,0.314
			c0.222,0.176,0.569-0.16,0.62-0.361c0.089-0.343-0.047-0.543-0.402-0.504c-0.126,0.014-0.291,0.018-0.402,0.074
			c-0.129,0.066-0.256,0.221-0.367,0.314c0.145-0.125,0.699-0.76,0.318-0.906c-0.252-0.096-0.571,0.268-0.734,0.414
			c0.139-0.116,0.219-0.281,0.364-0.401c0.112-0.093,0.259-0.284,0.396-0.318c0.016,0.013,0.031,0.026,0.046,0.038"/>
		<path fill="none" stroke="#000000" stroke-width="0.145" stroke-miterlimit="10" d="M59.866,184.048
			c0.002-0.178,0.421-0.17,0.538-0.171c0.244-0.003,0.414,0.028,0.17,0.232"/>
		<path fill="none" stroke="#000000" stroke-width="0.145" stroke-miterlimit="10" d="M62.691,186.739
			c0.025-0.117-0.024-0.127-0.084-0.189c-0.027-0.028-0.166-0.104-0.213-0.143c-0.113-0.092-0.264-0.156-0.387-0.232
			c-0.25-0.156-0.471-0.34-0.701-0.521c-0.19-0.152-0.414-0.289-0.625-0.412c-0.234-0.137-0.553-0.277-0.707-0.504
			c0.055,0.076,0.186,0.146,0.261,0.201c0.245,0.181,0.468,0.314,0.739,0.452c0.2,0.103,0.398,0.225,0.598,0.333
			c0.215,0.115,0.445,0.155,0.666,0.246c-0.173-0.178-0.289-0.344-0.501-0.482c-0.282-0.185-0.618-0.371-0.876-0.588
			c-0.145-0.122-0.283-0.275-0.436-0.383c-0.16-0.116-0.217-0.148-0.265-0.341"/>
		<path fill="none" stroke="#000000" stroke-width="0.145" stroke-miterlimit="10" d="M58.936,183.61
			c-0.006-0.221,0.13-0.426,0.244-0.603c0.111-0.175,0.325-0.397,0.223-0.612c-0.053,0.039-0.116,0.021-0.161,0.041
			c-0.083,0.039-0.146,0.1-0.217,0.162c-0.126,0.109-0.315,0.129-0.413,0.254c0.012-0.01,0.023-0.021,0.036-0.031"/>
		<path fill="none" stroke="#000000" stroke-width="0.145" stroke-miterlimit="10" d="M57.873,182.347
			c0.01-0.01,0.02-0.021,0.029-0.031c-0.012,0.075,0.092,0.219,0.154,0.258c0.1,0.062,0.258,0.006,0.361-0.025
			c0.219-0.065,0.529-0.281,0.448-0.564c-0.077-0.271-0.423-0.13-0.589-0.049c-0.26,0.127-0.332,0.361-0.22,0.633"/>
		<path fill="none" stroke="#000000" stroke-width="0.145" stroke-miterlimit="10" d="M57.515,182.367
			c0.062-0.142,0.157-0.246,0.237-0.388c0.052-0.092,0.104-0.182,0.143-0.283c0.02-0.054,0.071-0.156,0.08-0.207
			c0.08-0.421-0.689,0.077-0.795,0.237c0.01,0.018,0.02,0.036,0.029,0.054"/>
		<path fill="none" stroke="#000000" stroke-width="0.145" stroke-miterlimit="10" d="M56.498,181.157
			c-0.002-0.025-0.004-0.051-0.005-0.076c-0.117,0.023-0.067,0.15-0.071,0.232c-0.005,0.157-0.059,0.222,0.029,0.351
			c0.113,0.169,0.172,0.093,0.306,0.023c0.157-0.081,0.306-0.104,0.41-0.269c0.103-0.16,0.203-0.475,0.146-0.665
			c-0.113-0.382-0.59,0.12-0.752,0.257"/>
		<path fill="none" stroke="#000000" stroke-width="0.145" stroke-miterlimit="10" d="M55.914,182.024
			c0.088-0.047,0.17-0.205,0.229-0.284c0.081-0.109,0.17-0.243,0.237-0.363c0.168-0.302,0.381-0.582,0.564-0.882
			c-0.012,0.012-0.023,0.024-0.036,0.035"/>
		<path fill="none" stroke="#000000" stroke-width="0.145" stroke-miterlimit="10" d="M56.203,181.03
			c0.018-0.135,0.09-0.233,0.159-0.344c0.03-0.049,0.118-0.167,0.124-0.228c-0.008,0.083-0.164,0.267-0.221,0.336
			c-0.11,0.136-0.295,0.21-0.467,0.2"/>
		<path fill="none" stroke="#000000" stroke-width="0.145" stroke-miterlimit="10" d="M55.06,180.116
			c0.001-0.021,0.003-0.042,0.004-0.062c0.069,0.216,0.073,0.588,0.351,0.686c0.177,0.062,0.422-0.119,0.531-0.24
			c0.137-0.152,0.146-0.475-0.047-0.621c-0.154-0.115-0.188,0.014-0.326,0.07c-0.107,0.043-0.227-0.026-0.303,0.084"/>
		<path fill="none" stroke="#000000" stroke-width="0.145" stroke-miterlimit="10" d="M54.903,180.153
			c0.083-0.066,0.092-0.129,0.142-0.191c0.053-0.067,0.125-0.112,0.172-0.186c0.076-0.117,0.136-0.429,0.271-0.49"/>
		<path fill="none" stroke="#000000" stroke-width="0.145" stroke-miterlimit="10" d="M54.516,179.916
			c-0.006-0.013-0.012-0.026-0.018-0.04c0.328-0.074,0.35-0.501,0.492-0.734"/>
		<path fill="none" stroke="#000000" stroke-width="0.145" stroke-miterlimit="10" d="M54.445,180.726
			c0.004-0.018,0.006-0.037,0.01-0.055c-0.082,0.017-0.114-0.058-0.093-0.156"/>
		<path fill="none" stroke="#000000" stroke-width="0.145" stroke-miterlimit="10" d="M53.971,179.155
			c0.012-0.01,0.023-0.02,0.034-0.03c-0.155,0.071,0.056,0.3,0.142,0.356c0.178,0.121,0.252-0.027,0.246-0.189
			c-0.006-0.16-0.053-0.457,0.032-0.6c0.169-0.287,0.434,0.129,0.372,0.331"/>
		<path fill="none" stroke="#000000" stroke-width="0.145" stroke-miterlimit="10" d="M58.453,182.703
			c0.07,0.062,0.164,0.094,0.241,0.146c0.019-0.081-0.103-0.271-0.144-0.341c-0.121-0.204-0.297-0.375-0.448-0.558
			c-0.286-0.347-0.595-0.614-0.956-0.886c-0.349-0.262-0.723-0.543-1.095-0.771c-0.443-0.271-0.865-0.581-1.249-0.925
			c-0.197-0.176-0.355-0.429-0.526-0.631c0.026,0.031,0.052,0.062,0.079,0.093"/>
		<path fill="none" stroke="#000000" stroke-width="0.145" stroke-miterlimit="10" d="M70.605,186.557
			c0.27-0.221,0.57-0.37,0.885-0.53c0.242-0.123,0.624-0.261,0.775-0.506c-0.059-0.112-0.635,0.113-0.766,0.122
			c-0.248,0.018-0.67-0.085-0.658-0.39c0.014-0.335,0.357-0.598,0.665-0.391c0.133,0.089,0.23,0.253,0.335,0.374
			c0.031,0.038,0.132,0.12,0.145,0.166c0.026,0.085-0.025,0.178-0.117,0.092"/>
		<path fill="none" stroke="#000000" stroke-width="0.145" stroke-miterlimit="10" d="M69.891,184.813c0-0.021,0-0.042,0.002-0.063
			c0.07,0.536,1.088-0.03,0.945-0.358c-0.142-0.322-0.732,0.232-0.877,0.367c0.154-0.248,0.342-0.409,0.45-0.665"/>
		<path fill="none" stroke="#000000" stroke-width="0.145" stroke-miterlimit="10" d="M68.936,185.24
			c-0.005-0.107,0.117-0.228,0.176-0.309c0.135-0.189,0.268-0.351,0.449-0.5c0.093-0.076,0.203-0.148,0.285-0.235
			c0.078-0.084,0.118-0.209,0.211-0.275c-0.049,0.045-0.1,0.088-0.151,0.129"/>
		<path fill="none" stroke="#000000" stroke-width="0.145" stroke-miterlimit="10" d="M69.604,184.585
			c0.013-0.008,0.024-0.016,0.036-0.023c-0.104-0.002-0.155-0.126-0.216-0.195c-0.109-0.121-0.221-0.221-0.392-0.238"/>
		<path fill="none" stroke="#000000" stroke-width="0.145" stroke-miterlimit="10" d="M66.729,183.062
			c0.055-0.107,0.102-0.25,0.181-0.343c0.078-0.093,0.192-0.141,0.267-0.239c0.084-0.115,0.143-0.187,0.254-0.285
			c0.104-0.092,0.278-0.242,0.271-0.396c-0.016,0.006-0.032,0.013-0.048,0.02"/>
		<path fill="none" stroke="#000000" stroke-width="0.145" stroke-miterlimit="10" d="M66.4,181.556
			c-0.006-0.023-0.012-0.046-0.019-0.068c-0.212,0.113-0.108,0.555,0.075,0.609c0.188,0.059,0.551-0.207,0.623-0.38
			c0.066-0.162-0.014-0.366-0.211-0.278c-0.205,0.091-0.33,0.361-0.542,0.441c0.025-0.165,0.284-0.469,0.201-0.619"/>
		<path fill="none" stroke="#000000" stroke-width="0.145" stroke-miterlimit="10" d="M64.056,179.212
			c-0.003-0.018-0.006-0.035-0.009-0.053c-0.079,0.125-0.072,0.422,0.129,0.402c0.175-0.018,0.396-0.328,0.453-0.475
			c0.045-0.113,0.104-0.359,0.046-0.484c-0.104-0.227-0.478-0.035-0.622,0.049"/>
		<path fill="none" stroke="#000000" stroke-width="0.145" stroke-miterlimit="10" d="M63.249,179.703
			c0.11-0.116,0.097-0.296,0.187-0.423c0.084-0.119,0.154-0.179,0.219-0.316c0.138-0.293,0.336-0.535,0.576-0.742
			c-0.123,0.104-0.676,0.673-0.783,0.275c-0.031-0.115,0.145-0.326,0.201-0.443c0.05-0.1,0.129-0.338,0.234-0.385"/>
		<path fill="none" stroke="#000000" stroke-width="0.145" stroke-miterlimit="10" d="M62.66,177.665
			c0.012-0.012,0.023-0.023,0.033-0.035c-0.107,0.18,0.033,0.491,0.245,0.486c0.247-0.008,0.571-0.254,0.644-0.474
			c0.088-0.267-0.038-0.559-0.34-0.377c-0.198,0.119-0.402,0.331-0.571,0.489c0.044-0.133,0.143-0.256,0.216-0.373
			c0.074-0.121,0.225-0.416,0.35-0.482"/>
		<path fill="none" stroke="#000000" stroke-width="0.145" stroke-miterlimit="10" d="M62.375,177.437
			c0.116-0.094,0.133-0.182,0.225-0.285c0.101-0.115,0.328-0.184,0.336-0.354c-0.226,0.077-0.612,0.679-0.885,0.465
			c0.066-0.264,0.381-0.436,0.579-0.604c-0.121,0.141-0.944,0.513-0.882,0.15c0.025-0.153,0.246-0.271,0.355-0.365
			c0.066-0.057,0.144-0.149,0.221-0.189c0.068-0.037,0.138-0.006,0.209-0.059c0.016,0.012,0.031,0.023,0.047,0.035"/>
		<path fill="none" stroke="#000000" stroke-width="0.145" stroke-miterlimit="10" d="M60.979,175.889
			c0.011-0.011,0.021-0.021,0.031-0.03c-0.061,0.18,0.103,0.371,0.28,0.408c0.217,0.046,0.48-0.108,0.633-0.234
			c0.09-0.074,0.158-0.093,0.152-0.213c-0.008-0.162-0.105-0.154-0.227-0.126c-0.123,0.028-0.152,0.092-0.252,0.149
			c-0.107,0.064-0.219,0.09-0.326,0.16c-0.151-0.107,0.111-0.267,0.183-0.325c0.068-0.056,0.174-0.117,0.228-0.187
			c0.063-0.082,0.069-0.188,0.169-0.24"/>
		<path fill="none" stroke="#000000" stroke-width="0.145" stroke-miterlimit="10" d="M60.783,175.21
			c-0.001-0.025-0.002-0.052-0.002-0.078c-0.156,0.043-0.148,0.301-0.025,0.387c0.104,0.072,0.264,0.021,0.373-0.011
			c0.154-0.045,0.756-0.405,0.609-0.627c-0.088-0.132-0.43-0.042-0.543,0.001c-0.236,0.091-0.473,0.287-0.665,0.447
			c-0.339,0.284-0.593,0.78-1.067,0.873c-0.119-0.258,0.5-0.678,0.68-0.829c0.328-0.276,0.658-0.554,0.986-0.829
			c-0.012,0.01-0.023,0.02-0.035,0.03"/>
		<path fill="none" stroke="#000000" stroke-width="0.145" stroke-miterlimit="10" d="M60.24,175.009
			c0.022-0.179,0.102-0.199-0.019-0.358c-0.106-0.141-0.11-0.157-0.249-0.073c-0.11,0.064-0.225,0.172-0.135,0.303
			c0.086,0.123,0.195,0.046,0.312,0.019c0.146-0.034,0.481-0.203,0.536-0.371c0.031-0.095-0.08-0.261-0.175-0.289
			c-0.122-0.036-0.19,0.078-0.31,0.054"/>
		<path fill="none" stroke="#000000" stroke-width="0.145" stroke-miterlimit="10" d="M72.295,186.659
			c0.01-0.139-0.069-0.197-0.123-0.309c-0.057-0.114-0.089-0.188-0.174-0.291c-0.105-0.127-0.228-0.173-0.359-0.264
			c-0.164-0.112-0.344-0.209-0.5-0.329c-0.195-0.148-0.396-0.283-0.597-0.425c-0.214-0.151-0.45-0.245-0.661-0.396
			c-0.174-0.125-0.387-0.258-0.523-0.426c-0.16-0.193-0.324-0.385-0.484-0.578c-0.294-0.357-0.693-0.643-1.062-0.918
			c-0.129-0.097-0.206-0.21-0.32-0.324c-0.15-0.15-0.301-0.273-0.439-0.438c-0.213-0.252-0.424-0.504-0.635-0.756
			c-0.184-0.217-0.402-0.428-0.561-0.662c-0.061-0.088-0.092-0.189-0.155-0.273s-0.136-0.146-0.188-0.238
			c-0.188-0.322-0.359-0.654-0.602-0.941c-0.268-0.314-0.474-0.666-0.751-0.978c-0.255-0.287-0.568-0.525-0.864-0.763
			c-0.145-0.115-0.289-0.244-0.436-0.355c-0.061-0.045-0.102-0.059-0.156-0.121c-0.051-0.057-0.082-0.108-0.143-0.154
			c-0.096-0.07-0.153-0.116-0.232-0.211c-0.1-0.123-0.217-0.184-0.32-0.301c-0.139-0.153-0.257-0.326-0.398-0.477
			c-0.087-0.092-0.191-0.15-0.276-0.246c-0.089-0.1-0.168-0.172-0.269-0.256c-0.165-0.137-0.268-0.387-0.449-0.499
			c-0.03,0.015-0.03,0.036-0.001,0.063"/>
		<path fill="none" stroke="#000000" stroke-width="0.1623" stroke-miterlimit="10" d="M74.131,186.003
			c0.039-0.047,0.029-0.124,0.051-0.18c0.045-0.113,0.125-0.243,0.189-0.348c0.113-0.189,0.21-0.342,0.256-0.558
			c-0.146,0.085-0.363,0.096-0.527,0.155c-0.146,0.054-0.277,0.117-0.42,0.149"/>
		<path fill="none" stroke="#000000" stroke-width="0.1623" stroke-miterlimit="10" d="M73.056,184.724
			c0.001-0.015,0.003-0.029,0.005-0.045c-0.067,0.103-0.02,0.229,0.086,0.26c0.135,0.04,0.302-0.076,0.407-0.141
			c0.233-0.144,0.568-0.314,0.435-0.652c-0.114-0.287-0.455-0.226-0.654-0.064c-0.197,0.16-0.32,0.492-0.098,0.695"/>
		<path fill="none" stroke="#000000" stroke-width="0.1623" stroke-miterlimit="10" d="M72.072,184.528
			c0.104-0.117,0.148-0.258,0.271-0.369c0.152-0.139,0.32-0.266,0.477-0.397c0.23-0.193,0.461-0.387,0.69-0.58
			c-0.022,0.019-0.045,0.038-0.067,0.057"/>
		<path fill="none" stroke="#000000" stroke-width="0.1623" stroke-miterlimit="10" d="M71.743,184.055
			c0.099-0.216,0.36-0.372,0.548-0.528c0.238-0.201,0.502-0.391,0.722-0.613c-0.017,0.031-0.027,0.064-0.031,0.101"/>
		<path fill="none" stroke="#000000" stroke-width="0.1623" stroke-miterlimit="10" d="M72.482,183.638
			c-0.056-0.066-0.111-0.133-0.168-0.2c-0.076-0.093-0.158-0.13-0.241-0.206"/>
		<path fill="none" stroke="#000000" stroke-width="0.1623" stroke-miterlimit="10" d="M71.523,182.739
			c0.293-0.246,0.586-0.492,0.879-0.739"/>
		<path fill="none" stroke="#000000" stroke-width="0.1623" stroke-miterlimit="10" d="M71.252,183.309
			c0.008-0.005,0.018-0.011,0.025-0.017c-0.021,0-0.042-0.008-0.06-0.023"/>
		<path fill="none" stroke="#000000" stroke-width="0.1623" stroke-miterlimit="10" d="M70.77,181.6
			c0.002-0.017,0.004-0.033,0.006-0.05c-0.025,0.074-0.057,0.188-0.045,0.269c0.01,0.07,0.059,0.207,0.102,0.271
			c0.15,0.221,0.596,0.033,0.75-0.077c0.068-0.05,0.156-0.118,0.184-0.202c0.035-0.104-0.057-0.321-0.176-0.357
			c-0.277-0.084-0.401,0.361-0.645,0.361c-0.234,0,0.029-0.376,0.08-0.479c0.135-0.275,0.322-0.475,0.623-0.559
			c0.258-0.072,0.529-0.124,0.744,0.072c0.219,0.198-0.178,0.422-0.308,0.531"/>
		<path fill="none" stroke="#000000" stroke-width="0.1623" stroke-miterlimit="10" d="M70.648,181.292
			c-0.004-0.01-0.009-0.019-0.013-0.027c0.034-0.005,0.064-0.02,0.09-0.044c0.009-0.204-0.229-0.577-0.44-0.442
			c-0.125,0.079-0.146,0.125-0.142,0.258c0.002,0.06-0.032,0.084-0.009,0.139c0.018,0.041,0.105,0.135,0.146,0.156
			c0.127,0.064,0.321-0.039,0.423-0.1c0.118-0.07,0.146-0.155,0.206-0.275c0.07-0.141,0.084-0.299,0.02-0.447
			c-0.043-0.102-0.232-0.307-0.346-0.186"/>
		<path fill="none" stroke="#000000" stroke-width="0.1623" stroke-miterlimit="10" d="M68.177,178.597
			c-0.188,0.152-0.105,0.289,0.032,0.446c0.151,0.171,0.244,0.108,0.45,0.038c0.11-0.037,0.179-0.086,0.268-0.16
			c0.107-0.09,0.226-0.157,0.217-0.317c-0.008-0.15-0.078-0.181-0.212-0.165c-0.16,0.02-0.293,0.071-0.438,0.146
			c-0.118,0.061-0.2,0.144-0.312,0.213c-0.064,0.042-0.154,0.05-0.208,0.104c0.115-0.089,0.226-0.187,0.336-0.281
			c0.185-0.155,0.365-0.274,0.571-0.397c0.312-0.184,0.579-0.365,0.857-0.599c0.184-0.155,0.367-0.31,0.552-0.464
			c-0.103,0.086-0.204,0.172-0.308,0.258"/>
		<path fill="none" stroke="#000000" stroke-width="0.1623" stroke-miterlimit="10" d="M67.842,178.604
			c0.064-0.078,0.1-0.148,0.178-0.218c0.056-0.051,0.146-0.097,0.192-0.157s0.132-0.26,0.065-0.331
			c-0.129-0.144-0.647,0.407-0.75,0.493"/>
		<path fill="none" stroke="#000000" stroke-width="0.1623" stroke-miterlimit="10" d="M66.842,177.333
			c-0.132-0.122-0.143,0.256-0.141,0.326c0.002,0.117,0.006,0.175,0.088,0.263c0.207,0.22,0.626-0.054,0.809-0.201
			c0.116-0.093,0.203-0.146,0.202-0.306c-0.001-0.141-0.056-0.316-0.231-0.273c-0.117,0.027-0.26,0.116-0.363,0.174
			c-0.158,0.088-0.27,0.262-0.433,0.334c-0.06-0.102,0.2-0.391,0.27-0.483c0.055-0.072,0.11-0.165,0.151-0.247
			c0.031-0.062,0.114-0.183,0.113-0.25"/>
		<path fill="none" stroke="#000000" stroke-width="0.1623" stroke-miterlimit="10" d="M66.332,177.215
			c0.053-0.117,0.144-0.198,0.219-0.305c0.102-0.145,0.286-0.256,0.422-0.37c-0.263,0.221-0.717,0.607-1.01,0.236
			c-0.166-0.21,0.035-0.371,0.191-0.504c0.063-0.053,0.127-0.123,0.196-0.168c0.097-0.062,0.22-0.059,0.312-0.121"/>
		<path fill="none" stroke="#000000" stroke-width="0.1623" stroke-miterlimit="10" d="M65.107,175.108
			c0.008-0.008,0.016-0.017,0.025-0.024c-0.125,0.227-0.048,0.542,0.097,0.739c0.132,0.181,0.323,0.143,0.517,0.064
			c0.191-0.078,0.438-0.182,0.504-0.393c0.038-0.121,0.066-0.298-0.066-0.354c-0.111-0.047-0.392,0.114-0.488,0.171
			c-0.237,0.138-0.446,0.325-0.691,0.446c-0.172,0.085-0.37,0.115-0.533,0.209c-0.042-0.074,0.264-0.272,0.328-0.328
			c0.135-0.114,0.285-0.18,0.425-0.285c0.143-0.107,0.274-0.234,0.411-0.35c0.098-0.08,0.208-0.18,0.143-0.321
			c-0.074-0.16-0.523-0.151-0.633-0.017"/>
		<path fill="none" stroke="#000000" stroke-width="0.1623" stroke-miterlimit="10" d="M76.738,184.968
			c-0.009-0.21,0.39-0.338,0.54-0.354c0.093-0.01,0.181,0.023,0.271,0.02c0.063-0.004,0.121-0.032,0.184-0.027
			c0.124,0.009,0.208,0.09,0.281,0.176c0.197,0.232,0.036,0.533-0.181,0.699c-0.242,0.186-0.434,0.027-0.605-0.174"/>
		<path fill="none" stroke="#000000" stroke-width="0.1623" stroke-miterlimit="10" d="M76.254,185.445
			c0.009-0.013,0.018-0.025,0.027-0.038c-0.036-0.036-0.09-0.031-0.135-0.008"/>
		<path fill="none" stroke="#000000" stroke-width="0.1623" stroke-miterlimit="10" d="M76.229,184.442
			c0.029-0.147,0.021-0.227-0.023-0.375c-0.025-0.082-0.12-0.271-0.213-0.317c-0.086-0.044-0.283,0.073-0.332,0.161
			c-0.055,0.102-0.035,0.353,0.018,0.449c0.062,0.115,0.164,0.213,0.292,0.184c0.14-0.032,0.394-0.221,0.46-0.35
			c0.034-0.067,0.064-0.188,0.086-0.262c0.025-0.086,0.035-0.204,0.017-0.291c-0.044-0.203-0.239-0.295-0.429-0.321"/>
		<path fill="none" stroke="#000000" stroke-width="0.1623" stroke-miterlimit="10" d="M75.07,182.417
			c0.031-0.018,0.055-0.041,0.07-0.074c-0.083-0.064-0.176,0.079-0.243,0.025c0.027-0.036,0.065-0.05,0.113-0.039
			c0.069-0.025,0.127-0.054,0.194-0.079c0.098-0.037,0.183-0.057,0.279-0.102c0.323-0.149,0.656-0.229,0.935-0.456
			c-0.177,0.145-0.347,0.217-0.558,0.312c-0.115,0.053-0.24,0.071-0.354,0.125c-0.093,0.043-0.141,0.083-0.24,0.105
			c-0.185,0.043-0.334,0.156-0.525,0.172c-0.098,0.008-0.283,0.024-0.373-0.003c-0.086-0.025-0.107-0.058-0.173-0.136
			c-0.104-0.125-0.182-0.244-0.146-0.414c0.037-0.172,0.23-0.27,0.39-0.291c0.171-0.022,0.364,0,0.521,0.072
			c0.116,0.054,0.398,0.263,0.182,0.379"/>
		<path fill="none" stroke="#000000" stroke-width="0.1623" stroke-miterlimit="10" d="M74.017,181.324
			c0.009-0.011,0.018-0.022,0.026-0.034c-0.113-0.188-0.121-0.386-0.376-0.302c-0.164,0.053-0.167,0.091-0.198,0.254
			c-0.019,0.092-0.088,0.237,0.047,0.284c0.09,0.031,0.248-0.033,0.332-0.061c0.115-0.037,0.178-0.098,0.29-0.16
			c0.149-0.082,0.272-0.16,0.331-0.344c0.029-0.1,0.025-0.236-0.061-0.307"/>
		<path fill="none" stroke="#000000" stroke-width="0.1623" stroke-miterlimit="10" d="M73.125,180.914
			c0.004-0.017,0.008-0.032,0.012-0.048c0.061-0.002,0.1-0.047,0.15-0.074c0.164-0.086,0.338-0.161,0.504-0.248
			c0.121-0.062,0.217-0.121,0.33-0.195c0.082-0.055,0.17-0.055,0.24-0.13c-0.152,0.021-0.334,0.138-0.447,0.236
			c-0.131,0.116-0.293,0.176-0.47,0.173c-0.043-0.001-0.114,0.004-0.153-0.002c-0.084-0.016-0.16-0.082-0.231-0.133
			c-0.045-0.032-0.126-0.102-0.147-0.152c-0.023-0.054,0.004-0.215,0.059-0.245c0.014,0.011,0.025,0.021,0.038,0.03"/>
	</g>
</g>
</svg>
