<svg xmlns="http://www.w3.org/2000/svg" viewBox="0 0 227.01 405.87"><defs><style>.cls-1{fill:#007293;}.cls-2{fill:#1d1d1b;}.cls-3{fill:#e63027;}</style></defs><g id="Ebene_2" data-name="Ebene 2"><g id="Ebene_1-2" data-name="Ebene 1"><path class="cls-1" d="M164,151.93a5,5,0,0,0,.5-.53,3.18,3.18,0,0,1,.18-.37.86.86,0,0,1,1-.12c.31.2.44.65.72.9a18.32,18.32,0,0,0,2.51,1.44c1.94,1.28,3.51,2.77,5.49,3.94,1.48.88,2.64,2.17,4.1,3.08a20.22,20.22,0,0,1,3.07,2,29.14,29.14,0,0,1,3.95,4.36,35,35,0,0,1,5.26,9,25.3,25.3,0,0,1,1,10.72A43.88,43.88,0,0,1,185.53,205a29.88,29.88,0,0,1-5.94,7.36c-3.1,2.66-6.71,4.68-10,7.1-1.94,1.42-4,3.43-6.23,4.32.07-1-.85-2.23-1.31-3.08-.83-1.53-.81-1.61.89-2.33a25.07,25.07,0,0,0,8.67-5.92c5-5.22,9.14-11,10.3-18.21,1.13-7,.74-14.89-3.67-20.53-2.54-3.27-6.36-6.16-9.56-8.76-2.3-1.87-5.49-2.68-8-3.77a13.68,13.68,0,0,0-2-1c-.23-1.15,1-2.53,1.53-3.36a18.22,18.22,0,0,1,1.81-3c.61-.67,1.36-1.27,2-1.92"/><path class="cls-2" d="M135,111.54c-2.2-1.44,3-7.78,4-8.93,1.92-2.19,3.72-4.35,5.45-6.72,1.15-1.57,2.56-3,2.54-5.1,0-1.87-1.81-4.32-.41-6.05,1.24-1.53,3.74,0,4.35-2.1a12.34,12.34,0,0,0,.06-3.1c0-2.2-.12-4.79,2.66-5.06,1.18-.11,4,.24,4.92,1,.46.41.46,1.11.8,1.62s1.35,1.53,1.91,2.18c3.17,3.6,4.27-.47,6.71-2.35,1.61-1.25,3.41-.71,5.19-.35,1.5.31,3.35.41,4.74,1.18,3.18,1.78,4.75,8.92,9.66,6.9,4.46-1.84-.64-5.77-2.78-6.82-2.35-1.15-4.82-1.81-7.05-3.17-2-1.21-1.62-1.77-.1-2.8s1.54-1.79.58-3.44c-.71-1.23-1.86-2.9-3.3-3.3-1.2-.33-9.46-.77-8.6-3,1.55,0,2.76-1.21,4.22-1.45.69-3-6.17-2.42-7.62-1.7-2.2,1.08-3.05,3.47-5.92,3,.69-.92-.06-3.15-1-3.65-1.22-.64-4.28.22-5.34,1-1.28.87-1.1,2.84-1.32,4.45-.14,1,.41,2.5,0,3.37s-1.44,1.23-2.27,1.59a7.44,7.44,0,0,0-2.68,1.42c-.51.54-.54.92-1.32,1.44a20,20,0,0,0-2.14,1.5c-.55.49-1,1.43-1.57,1.8-2.43,1.47-2.49-1.58-3.08-3a10.94,10.94,0,0,0-3-3.92,15.75,15.75,0,0,0-3.16-1.84c-.31.07-.68.33-1,.44s-.95.31-1.44.42a8.91,8.91,0,0,1-3.41-.12,6.31,6.31,0,0,0-3.7.3,9.09,9.09,0,0,1-1.73.6c-.26,0-.53.1-.63-.15s.12-1,.18-1.26a4,4,0,0,0,.23-1.64c-.26-.86-1.27-.75-1.94-.84-.08-.24.15-.62.14-.89s.07-.77-.25-1-.62-.23-.72-.68.26-.62.51-.9a1.9,1.9,0,0,0,.32-2c-.23-.49-1-1.5-1.5-.76-.23.31-.15.69-.36,1s-.55.35-.84.51a8.12,8.12,0,0,0-1,.58c-.34.27-.45.72-.75,1a2.38,2.38,0,0,0-.5.89c-.12.32-.18.52-.55.59a9.53,9.53,0,0,0-1.69.1c-.37.13-.89.74-1.23.56s-.37-1.32-.33-1.67c.06-.59.48-1.06.59-1.64s-.15-.76-.59-.95c-.77-.33-.3.33-.71.58a1.52,1.52,0,0,1-.85-.12c-.44-.2-.44-.74-.88-.91a.76.76,0,0,0-1,.68c-.06.46.23.85.16,1.3-.25.06-.51-.34-.64-.53a4.07,4.07,0,0,1-.49-2,2.81,2.81,0,0,0-.72-2.22c-.5-.6-1.1-.51-1.56.12a2.81,2.81,0,0,0-.21,3.19c.63,1.12,1.69,3,.72,4.25-.37.47-1,.6-1.25,1.17a3.76,3.76,0,0,0-.06,1.06,4.68,4.68,0,0,0-.09.56c-.6.07-1.26-.3-1.76.17s-.79,1-1.24,1.45v-.1a8.82,8.82,0,0,0-.4,1.53c-.12.74-.31,1.12-1.13.83-.56-.2-.83-1-1.39-1-.14.88.73,1.66.55,2.58-1.17-.2-1.7-3.74-2.8-1.44-.45,1-.63,2.15-1.49,2.87-.28.23-.93.61-1.17.14,1.25.63,2,2.07,3.18,2.84a6.29,6.29,0,0,1,2.19,1.62c1.2,1.92-.17,3.27-1,4.92-.88,1.83-.48,2.84-2.69,2.6-1.23-.13-3.34-.26-4.41.4-1.51.91-1.07,2.64-2.15,3.75a11.28,11.28,0,0,1-2.74,1.59c-.4.11-1-.19-1.36,0s-.27.49-.63.7c-1,.56-1.34,1.16-2.62,1-1.8-.19-2-1.5-3-2.72-.69-.9-2.6-1.71-3.68-.92s-.29,3.05-.08,4c.39,1.72-.45,2.07-2.27,2.35-2.13.32-3.38-.44-5.1-1.51-1.55-1-3-1.8-4.58-.44a2.43,2.43,0,0,0-.33,3.63,4.52,4.52,0,0,0,5,1.42c1.2-.55,1.47-1.86,3-2.12,2.58-.45,7.25-.47,8.71,1.67a5.72,5.72,0,0,0,4.67,3c1.24.14,3.07.36,4.23-.16,1.62-.71,2-3.23,3.65-3.82,2-.73,5,.15,6.59,1.43s1.45,3.72,1.45,5.62a47.87,47.87,0,0,0,.73,10.14,18.73,18.73,0,0,0,2.9,6.9c1.26,1.73,3.25,2,4.62,3.36-1.71-1.31-1.11-4.71-1.31-6.68a53,53,0,0,1,0-10.76,86.68,86.68,0,0,0,.75-9.2,39,39,0,0,1,.08-4.46c.07-.63,0-2.85.34-3.35.53-.83,2.12-.59,2.93-.7,2-.25,4-.79,5.88-1.12,2.92-.5,5.94-1.27,8.74-1.77,2.08-.37,2.37,1,3.63,2.25,2.56,2.45,7.25,2.16,8,6.58.24,1.45-.19,2.81.25,4.28.62,2.06,2.11,4.14,1.58,6.42-.09.4-.58.8-.66,1.18a16.53,16.53,0,0,1-.2,2.13,1.58,1.58,0,0,1-1.35-.74"/><path class="cls-1" d="M97.61,362.3c-.82,2.39-1.6,4.76-2.49,7.11-.45,1.19-2.52,3.64-1.72,5,.54.9,1.86.88,2.74,1.13a14.83,14.83,0,0,1,2,1,11.58,11.58,0,0,0,6.64.81c1.83-.27,1.83-1.06,1.48-2.6-.55-2.33-1.71-4.75-1.31-7.2s1.94-4.82,2.78-7.21c1.4-4,2.77-7.94,4.35-11.91,1.09-2.75,2.46-5.36,3.36-8.19a53.37,53.37,0,0,1,3.7-9.63c1.44-2.59,2.11-5.6,3.51-8.23s1.05-3.61.51-6.35c-1.13-5.72,3.48-10.62-.34-15.7a61.92,61.92,0,0,1-4.21-7.4c-1.83-3.34-3.26-3.07-7.1-2.14-3.49.85-2.67,2.58-2.73,6.16-.07,4.26,1.39,8.11,1.89,12,.69,5.37,2.47,11.41,1.07,16.8-.76,2.93-3,5.17-4.22,7.9-2,4.43-3.06,9.46-4.41,14.14-.6,2.07-2,3.64-2.69,5.69-1,2.94-1.78,5.94-2.79,8.87"/><path class="cls-2" d="M145.59,140.69c-.82,2.19.18,5.9.84,8.14a34,34,0,0,1,1.45,5.22c.16,1.35-.39,2.58-.47,3.91-.1,1.84.74,3.85,1.31,5.56s1.24,3.5,1.69,5.3,1,3.65,1.41,5.48a14.29,14.29,0,0,1-.21,5.86c-.71,4-3.27,7.07-6,9.77-1.68,1.68-2.88,3.38-2.75,5.85a11.82,11.82,0,0,0,1,4.05,14.05,14.05,0,0,0,3.07,4.72,13.15,13.15,0,0,0,4.78,2.51c3.16,1,7.13,1.59,10.35.51,2.3-.76,7.28-5.11,9.84-3.22,2.21,1.63,1.22,6.05,1.58,8.49,4.09,2,8.43-1.32,12.51.07,5,1.7,2.9,8.72,3.42,12.72,3.76.54,10-1,12.39,2.8,2.26,3.58,1.56,8.06,2.22,12,6.84-1.15,3.52,23.86-.75,26.5-3.11,1.93-3.27,1.25-4,5.25-.48,2.79-.89,6.6-2.2,9.39-1.38,2.95-3.27,4.38-5.81,6.21s-3.09,1.47-6,1.85c-5.86.79-5.78,7.3-7.79,11.75-1.17,2.6-2.06,3.86-4.83,4.41-3.25.64-3.5.24-6,2.69-2,2-3.26,2.09-6,2-1.66-.05-4.73-1.76-6-1.41-1.7.48-2.3,2.72-3.66,3.68-2.07,1.47-4.76,1.15-7.17,1.09-4.86-.11-9.69-.57-14.54-.9s-9.6-.5-14.39-.92c-3.84-.34-7.63.61-11.19.21-5.41-.61-11.18-7.17-13.89-11.55-2-3.22-2.79-9.31-5.64-11.89-2.26-2.06-5.25-.58-8.41-1.34C67.36,285.4,64,275.14,64.1,267.4c0-2.42.57-5.7,0-8-.74-3.15-4-4.85-6.05-7.6-5.35-7.15-5.29-14.21-5.93-22.7-.26-3.51-2.14-6.34-2.85-9.68-.64-3-1.47-6-2.13-9.09-1-4.59-1.27-9.33-2.74-13.79a25.46,25.46,0,0,0-3.54-6.36,15.79,15.79,0,0,1-2.68-8.77c-.1-4.26,3.31-10,6.67-12.46a13.22,13.22,0,0,1,4.29-2.07c2.13-.61,4.1.91,4.33,3.34-.56-3.73,2.76-3.52,5-2.26,1.93,1.1,4.85,3.59,4.3,6.3,1.28-2.74,4.24-2.8,6.69-.91a10.16,10.16,0,0,1,3.21,5c.24.76.16,2.45.73,2.91,3.29-2.37,4.77,3.69,5.4,5.84s1.12,1.48,2.92,1.08a9,9,0,0,1,4,.6c2.64.75,4.12,3.77,6.33,5.27,1,.68,1.8,1.67,2.82,2.29a8.19,8.19,0,0,0,4.24.9,10.75,10.75,0,0,0,3.87-.46,8.65,8.65,0,0,0,2.89-1.56c1.84-1.55,2.89-3.82,4.43-5.62a5.45,5.45,0,0,0,.21-6.75c-1.23-1.8-2.8-3.34-3.61-5.41s-.6-4.68-.58-7c0-4.08-3.12-4.58-5.6-6.94a3.69,3.69,0,0,0-.92-.75c-.59-.3-1.2-.56-1.79-.84-2-1-4.14-1.66-6.24-2.43a16.9,16.9,0,0,0-6-1.31c.35-2.33,2.28-4.34,2.64-6.68.39-2.59.18-5.59,1.37-8,1.42-.2,2.74.38,4,.54a37.25,37.25,0,0,0,4.73.07,31.77,31.77,0,0,1,4.57.38c.76.1,1.51.22,2.26.34l1.14.18a1.17,1.17,0,0,1,.27,0s.06.08.09.09a2.53,2.53,0,0,0,.55,0,8.73,8.73,0,0,0,.91.1c1,0,2.07.06,3.11.14.81.06,1.62.06,2.43.06s1.75.05,2.62.05a11.11,11.11,0,0,0,3.29-.54c.76-.25,1.54-.54,2.32-.72s1.66-.42,2.47-.66c1.18-.35,2.33-.78,3.53-1,.93-.18,1.87-.22,2.81-.31a14,14,0,0,1,2.33,0,4.74,4.74,0,0,0,1.8,0,10.9,10.9,0,0,0,1.23-.62,3.08,3.08,0,0,0,1.5-1c.56-.95-.58-1.33,1.2-1.4.62,0,6.66,1.58,6.68,1.52"/><path class="cls-1" d="M135,97.88c0-.79,0-1.58,0-2.38a21.25,21.25,0,0,0-1.82-8.68,15.82,15.82,0,0,0-1.32-2.2,6.77,6.77,0,0,0-2-1.93,16.1,16.1,0,0,0-3.63-2.06,34.44,34.44,0,0,0-5.4-1.77,22.4,22.4,0,0,0-9.91-.14,14.84,14.84,0,0,0-6.53,3.3,6.64,6.64,0,0,0-2.06,2.61c-.37,1.11-.65,2.26-1,3.38a31.35,31.35,0,0,0-1.53,10.81q0,5.78.63,11.53c.2,1.94.44,3.86.73,5.78s.73,3.72,1,5.58a24.33,24.33,0,0,0,.9,4.54c.49,1.52,1.09,3,1.56,4.54.56,1.87,1.31,3.73,1.69,5.64.23,1.17.51,2.32.71,3.48.28,1.59.83,3.11,1.15,4.7.35,1.76.68,3.5,1.13,5.23a28.52,28.52,0,0,0,2,4.7,6.28,6.28,0,0,0,2.25,3,4.37,4.37,0,0,0,3.37,0,10.73,10.73,0,0,0,3.38-1.77c2.38-1.81,3.86-4.74,5.06-7.43a19.34,19.34,0,0,0,1.19-3.84c.26-1.21.71-2.39,1.09-3.59.9-2.85,1.66-5.73,2.63-8.55.49-1.41.77-2.85,1.17-4.29.21-.79.31-1.63.46-2.45a41.11,41.11,0,0,0,.84-4.26,10.13,10.13,0,0,1,.71-2.93c1-2.47.92-5.36,1.17-8,.24-2.42.35-4.84.53-7.26a51.47,51.47,0,0,0,0-5.27"/><path class="cls-2" d="M131.19,98c-2.35-1.32-4.26-6.53-7.67-4.86s-5.08,6.82-5.35,10.31-.21,7-.21,10.51c0,2.18,0,4.38-.16,6.54s0,4.14-.17,6.19a11.28,11.28,0,0,0-.15,2c1.58.51,1-2.66,1-3.58,0-2.15.34-4.22.34-6.37,0-3.35.28-6.65.51-10s.5-6.43,2.49-9.26c.81-1.16,1.93-2.86,3.24-3.5s2.64.42,3.93,1c.82.34,2.32.27,2.89,1"/><path class="cls-1" d="M153.93,101.65c-.19,2,1.21,4.5,1.82,6.39a37.43,37.43,0,0,1,1.19,6.61c.83,6,2,12.84.6,18.85-1.85,7.77-3.37,15.39-6.48,22.76a48.3,48.3,0,0,1-5.13,9.11c-.87,1.22-1.65,2.72-2.52,3.86A20.6,20.6,0,0,1,140,172c-1.66,1.26-3.54,2.31-5.25,3.44-2.83,1.88-5.52,4.1-8.3,6.06s-7.32,3-10.72,3.94a43.91,43.91,0,0,1-11.27,1.35c-3.37,0-7.3.47-10.56-.25a43.15,43.15,0,0,1-9-2.85c-4.78-2.24-9.37-4.18-13.54-7.41A23.28,23.28,0,0,1,63.63,164a42.27,42.27,0,0,1-.66-8.35,9.76,9.76,0,0,1,4.64-8.73A14.49,14.49,0,0,1,72,145.47c1.24-.27,2.34-.85,3.64-1a38,38,0,0,1,4.65,0,19.1,19.1,0,0,1,4.41.65c.75.18,1.54.21,2.3.38a2.49,2.49,0,0,1,1.12.41,1,1,0,0,0,.4.28c.17.08.32.15.36.36a4.5,4.5,0,0,1-.13,1.26c-.06.46-.06.94-.14,1.39s-.15.85-.19,1.25a11.49,11.49,0,0,1-.39,2.09c-.1.32-.21.66-.32,1,0,.16-.09.32-.14.47a2.3,2.3,0,0,0-.14.42s-.14.1-.14.1-.21,0-.31-.12a1.26,1.26,0,0,0-.52-.25c-.62-.18-1.21-.43-1.84-.59-4.43-1.12-13.32.75-14.65,6-.32,1.27.32,3.35.61,4.47a16.91,16.91,0,0,0,1.73,4,15.13,15.13,0,0,0,6.06,6.12c5.47,3,11.65,4.21,17.79,4.89,3.8.42,7.61,1,11.37.09,1.43-.34,2.88-.35,4.23-.76,2.78-.84,5.65-2,8.39-3s5.29-2.94,7.71-4.63c1.34-.93,2.86-1.33,4.18-2.17a20.08,20.08,0,0,0,5.6-4.52c1.71-2.17,3.24-4.48,4.8-6.77,3.67-5.4,5.94-11.79,7.67-18.08a51.54,51.54,0,0,0,1.82-13.69c0-4.58,0-8.1-2.72-11.85-.51-.71-2-2-2.24-2.7s1-2.59,1.57-3.27a29.15,29.15,0,0,1,2.88-2.79,13.72,13.72,0,0,0,2-2.23"/><path class="cls-3" d="M141.42,88.12A31.41,31.41,0,0,0,138,82.5a4.47,4.47,0,0,0-6-1.33,11.18,11.18,0,0,0-2.93,2.44c-.88,1-1.75,2.1-1.27,3.44.32.88,1.45,2.18,2.52,1.86.11-1.3-.31-4.27,1.72-4.28,3.37,0,1.78,3.4.81,5-.57.94-.32,1.22-.13,2.25s.45,4.52,2,3.77c1.42-.66.44-4.21,2.32-4.3-3.57.21-.05,9,2.81,6.58a1.31,1.31,0,0,0-1.2-2.3c.24-.08-.2-1.45.93-1.15.52,3.61,2.49,7.35,3.93,10.67.61,1.41.91,2.9,1.41,4.34a8.31,8.31,0,0,1,.58,1.47c.08.62-.3,1.18-.18,1.8a29.62,29.62,0,0,0,6-3.54,23.36,23.36,0,0,0,3.61-4.09c.89-1.17,2.05-2.72,3.65-2.82-1.14-.75-2.51-.8-3.64-1.64a29.64,29.64,0,0,0-2.82-2.16c-2.18-1.25-4.57-2.14-6.53-3.76s-3.08-4.38-4.24-6.61"/><path class="cls-2" d="M139.9,156.31a5.58,5.58,0,0,0-2.54,0,6.61,6.61,0,0,1-.76.36,11.5,11.5,0,0,0-1.3.4,1.59,1.59,0,0,1-.74.18c-.21,0-.42.08-.64.06l-.65-.12c-1.07-.2-1.93-1.21-2.69-1.95a4.36,4.36,0,0,1-1.4-1.86c-.17-.58-.32-1.17-.49-1.75s-.3-1-.44-1.49a1.35,1.35,0,0,0-.35-.74c-.34-.34-.8-.63-.9-1.12a15.81,15.81,0,0,0-.6-1.57,2.73,2.73,0,0,1-.29-.83c0-.46.35-.89.39-1.36a5.59,5.59,0,0,1,.3-1.67,2.58,2.58,0,0,1,.26-.59c.13-.15.32-.24.45-.4a5.1,5.1,0,0,1,1-.71,3.43,3.43,0,0,1,.49-.28c.53-.24,1-.58,1.53-.82a8.19,8.19,0,0,1,1.62-.62,6,6,0,0,1,1.17-.2,10.64,10.64,0,0,0,1.26-.07,11.19,11.19,0,0,1,1.74-.22h2.26a17.62,17.62,0,0,1,2.71.25,8.2,8.2,0,0,1,2.1.58c.59.26,1.2.49,1.78.78a27.69,27.69,0,0,1,2.46,1.71,8.48,8.48,0,0,1,.74.48c.29.22.54.49.83.72s.62.61.94.88.42.45.66.65a4.32,4.32,0,0,0,.76.42,11.75,11.75,0,0,0,2.11,1,51.2,51.2,0,0,0,7.85,1.47c.67.09,1.34.11,2,.19a10.09,10.09,0,0,1,1.1.18c.29.06.57,0,.85.06a1.67,1.67,0,0,1,1.12,1.25,2.61,2.61,0,0,1-.34,1.81,21.55,21.55,0,0,1-2.7,4.06,21.15,21.15,0,0,0-1.36,2,47.05,47.05,0,0,0-2.42,5.55,13.06,13.06,0,0,1-1.35,3.07c-2-.89-3.63-2.82-5.54-3.89-3.11-1.73-6.44-2.88-9.52-4.69a7.75,7.75,0,0,0-3.51-1.14"/><path class="cls-2" d="M98,372.31A23.72,23.72,0,0,1,95.71,371c-.56-.35-1.56-1.29-2.19-.38-.35.52-.21,1.08-.27,1.65a16.65,16.65,0,0,0,.19,5.72c.67,2.64,2.85,4,4.84,5.56A5.54,5.54,0,0,1,99.46,385c.55.8,1.24,1.55,1.77,2.37.89,1.39,1.65,2.86,2.59,4.23.47.68,1,1.33,1.55,2,1,1.21,1.88,2.46,2.84,3.69,1.35,1.71,3,3.22,4.3,5,0-1.18-.31-2.28-.32-3.47s-.08-2.66-.07-4a13.71,13.71,0,0,0-.55-4.64c-.6-1.73-.93-3.55-1.36-5.32-.61-2.49-1.43-4.93-1.4-7.53,0-1.22.15-2.4.16-3.6a25.37,25.37,0,0,0,.14-3.15,2.82,2.82,0,0,1-1-.24c-.33-.18-.73-.53-1.15-.38s-.57.51-.88.65-.91,0-1.38.12c-.69.19-.85,1.12-1.16,1.67s-.87,1.41-1.44,1.52-1.43-.78-2-.94a12.15,12.15,0,0,1-1.77-.47l-.23-.1"/><path class="cls-2" d="M75.27,84.34l-.53.27"/><path class="cls-3" d="M119.68,143c-1.05-.21-.92-1.77-1.9-2.14s-2,.42-2.85.75c-1.33.53-1.23.85-2.28-.45a11.61,11.61,0,0,1-1.58-3c.35.6,1.24,2.19,2,2.3,1,.15,1.81-1.46,2.92-1.51.51,0,.83.42,1.24.45s.74-.34,1-.52c.76-.45,1.45-.68,1.92.27s-.17,2.38.58,3.25c.13.14.72.36.75.46.12.35-.52.78-.74,1a5.68,5.68,0,0,1-1.6,1.05c-1.86.71-6.77.23-6.48-2.61"/><path class="cls-2" d="M127.35,79.74c-1.68,1.08-2.49,2.82-4.67,1.77-2-1-3.14-1.54-4.37,1-.45.94-.43,2-1.28,2.7s-1.45.18-2.39.54c-1.24.48-3.53,2.53-3.73,3.87,0-1.66-.41-3.84,0-5.44.34-1.4,2.31-3.33-.71-2.94-2,.26-1.57,2.48-3.66,2.15-.94-.15-1.47-1.05-2.56-.6-.87.37-1.09,1.2-1.45,2-1.64-1.62.88-4.28,2.08-5.22a19.25,19.25,0,0,1,9.62-4.27,20.56,20.56,0,0,1,7.65,1.11c2.23.63,5.26.18,4,3.33"/><path class="cls-3" d="M97.14,73.87l.29-.49a3.29,3.29,0,0,0,.76-1.65c0-.54-.07-.83.3-1.27.19-.21,2.06-1.68,2.32-1.15a1.67,1.67,0,0,1,.22.79c.26.08.58-.22.81-.31s.58-.34.87-.47c.63-.31.89,0,1.45.29s1,.52.84,1.36a5.46,5.46,0,0,0-.31,1.82c.77-.1,1,.46,1.59-.15a3.84,3.84,0,0,0,.9-1.31c.44-.17,1.45.57,1.68.93.47.73-.43,1.52-.35,2.23,0,.3.38.71.48,1a8.22,8.22,0,0,0,.45,1.06c.44.91-.46,1.55-.92,2.35a2.32,2.32,0,0,1-2,1.49,2.58,2.58,0,0,0-2.37,1.33c-.4.76-.58,1.57-1,2.31a10.71,10.71,0,0,0-1,2.37c-.77.28-2.07-1.16-2.56-1.54a11.83,11.83,0,0,0-3.52-2.38c-1.32-.41-1.94-1.28-2.91-2.23a6.23,6.23,0,0,0,1.08-1.5c.47-.72,1-1.4,1.44-2.13.54-.89,1-1.84,1.47-2.75"/><path class="cls-3" d="M112.47,68.44c.22.49.77.66,1,1.09a1.46,1.46,0,0,1-.3,1.46c-.32.41-.81.89-1.14,1.23-.55-.46-.56-1.46-.57-2.1a2,2,0,0,1,.17-1.18c.26-.38.63-.21.83-.5"/><path class="cls-2" d="M6.34,67.33c0-.2,0-.4.08-.6A20.74,20.74,0,0,1,8,61.42c.5-1.19,1.88-7.56,3.88-4.19a18.54,18.54,0,0,1,1.73,5.51,31.38,31.38,0,0,1,.44,6.42,46.05,46.05,0,0,1,0,6.54c-.11.91,0,1.84-.24,2.74s-.82,1.75-.49,2.53c.39,0,3.66-.68,3.73-1-.19.84-.52,1.63-.75,2.47A8.86,8.86,0,0,1,15.7,85c-.53.57-1.33,0-1.95.39a8.42,8.42,0,0,0-1.45,2c-1.34,2.09-1.41,4.73-1.48,7.14,0,1,.33,2.45-.85,2.66-.92.17-3.05-.66-4-1a25.23,25.23,0,0,1-4.6-2.35C-1,92.44.33,88.8.88,86.54c.29-1.21.51-2.49.74-3.69.17-.84.08-1.3.83-1.63.6-.26,1.24.12,1.84-.29,1.17-.78.82-2.18.89-3.34.11-1.87.86-3.69,1-5.59.1-1.57,0-3.14.18-4.67"/><path class="cls-1" d="M51.91,199.63a15,15,0,0,0,3.55-6.09c1.32-4.8-2.32-10.36-4.42-14.38-2-3.79-4.44-7.74-4.77-12.13-.16-2.19,0-3.76-1-5.8a41,41,0,0,0-3.88-5.83C32.88,143.58,27,129.11,22,115.41a107.44,107.44,0,0,1-5.45-20.09c-.4-2.49-1.11-5.18-1.67-7.63-.46-2-.55-4.41-1.43-6.22-2,1.72-4.19,6.22-4.77,8.92-.34,1.57.5,2.47.89,4,1,4,1.4,8.28,2.32,12.36,2,8.86,5.76,17.15,8.62,25.72,1.06,3.18,2,6.39,2.86,9.62.17.64.29,1.27.48,1.91s.26,1,.43,1.5.33.83.43,1.27.29,1,.45,1.52c.27.9.55,1.8.87,2.68.37,1,.7,2.09,1,3.14a34.76,34.76,0,0,0,1.21,3.33c.4,1,.69,2.06,1.11,3.06.64,1.51,1.21,3.07,1.81,4.6.69,1.74,1.43,3.46,2.07,5.22s1.18,3.27,1.9,4.82,1.18,3,1.71,4.44c.58,1.65,1.07,3.35,1.54,5,.2.75.44,1.51.6,2.26a1.11,1.11,0,0,1,0,.17,3.05,3.05,0,0,0,.16.95c.16.39.36.78.55,1.17.36.77.74,1.54,1.15,2.3a32.29,32.29,0,0,0,2.73,4.37c1.09,1.45,2.93,4.73,4.71,5.17a4,4,0,0,0,3.64-1.38"/><path class="cls-2" d="M101.63,388.08c0,.1,0,.11-.09,0,.08-1.13-2-2.36-2.69-3-1.25-1.22-2-3-3.48-3.95a14.33,14.33,0,0,1-1.73-.91,7.37,7.37,0,0,1-.92-1,18.7,18.7,0,0,1-3.12-4.31c-.3-.69-.55-1.47-.79-2.19a1,1,0,0,1,.13-1.15c.88-1.25,2-2.35,2.94-3.56a5.12,5.12,0,0,1,2.05-1.85,3.33,3.33,0,0,1,2.54,0,16,16,0,0,0-1.06,1.73,7.74,7.74,0,0,0-.5,1.9c0,.89,3.71,3.24,4,2.67"/><path class="cls-2" d="M111.48,389.75a.11.11,0,0,0-.14.11,6.09,6.09,0,0,1,.46,2c.19.86.21,1.77.33,2.65a34,34,0,0,0,.68,3.48,2.64,2.64,0,0,0,1,1.53,6,6,0,0,0,1.43,1c1.17.52,2.39.43,3.57,1,.74.34,2.38.84,2,1.92a4.7,4.7,0,0,1-2.51,2.15,7.36,7.36,0,0,1-3.18.26c-.9,0-1.77-.33-2.66-.41a16.76,16.76,0,0,1-2.35-.29,18.29,18.29,0,0,1-3-.95c-.82-.36-1.05-1.17-1.32-1.94a8.18,8.18,0,0,1-.08-2.57,8.1,8.1,0,0,0-1-4.86,34.85,34.85,0,0,1-1-4.21,13.37,13.37,0,0,0-.47-1.66,17.91,17.91,0,0,0-2.51-3.6"/><path class="cls-1" d="M47.37,111.47c2.05-1.71,3.84-3.43,6.63-3.69,3.34-.3,6.54.4,9.73.94A46.6,46.6,0,0,1,74,111.89l.26.12c1.08-1.37,2.11-2.79,3.13-4.23,3.34-4.76,6.5-10,9.81-14.79,1.71-2.49,2.93-5.37,4.8-7.72.43-.54,2.08-3.16,2.66-3.34,1.07-.33,6.67,2.9,6.85,3.92a39.09,39.09,0,0,0-4.85,4.2c-1.19,1.41-2.38,2.75-3.49,4.2a113.93,113.93,0,0,0-6.64,9.42c-2.46,4-5,8-7.57,11.87.75.7,1.49,1.4,2.26,2,2.34,1.86,4.83,4,6.18,6.69,1.26,2.53,3.25,4.59,4.6,7.1,1.24,2.31,2.82,4.37,4,6.65a66.62,66.62,0,0,1,4.92,14.19c1.13,4.41.34,10-1.08,14.05-.63,1.85-1.58,3.93-2.18,5.87-.77,2.51-.55,5.51-.58,8.1a12.13,12.13,0,0,0,2.59,6.88,28.28,28.28,0,0,0,3.33,4,23.11,23.11,0,0,0,2.26,1.67c.29.22.39.5.67.74s.5.35.72.55.12.25-.07.42-.44.38-.65.58-.44.48-.67.67a1.72,1.72,0,0,0-.48.41.47.47,0,0,1-.23.21c-.26.1-.53.11-.78.21s-.79.33-1.17.45a9.46,9.46,0,0,1-2.66.4,7.07,7.07,0,0,1-1.59,0c-.29-.06-.55-.19-.83-.26a2.28,2.28,0,0,1-.76-.3,3,3,0,0,1-.86-1.51c-.1-.29-.19-.58-.32-.87a2.67,2.67,0,0,1-.2-.46,2.17,2.17,0,0,0-.42-1.15c-.1-.14-.23-.23-.31-.37a14.37,14.37,0,0,1-1.13-2.88,44.1,44.1,0,0,1-2.19-19.84c.8-6.57,3.57-13,1.93-19.68a60.22,60.22,0,0,0-12.87-24.89,15.75,15.75,0,0,0-5.21-4.11A26.14,26.14,0,0,0,73,125.33c-1,2.47-2.87,4.07-4.61,6a17.15,17.15,0,0,1-5.09,4c-1.93,1-4.69,2.83-6.94,2.77s-4.43-1-6.65-1.67c-4.75-1.53-9.12-5.54-9.63-10.75-.58-5.81,3.08-10.63,7.32-14.16m.25,14.14c1,1.57,2.06,1.82,4,1.6a17.8,17.8,0,0,0,8-2.35c1.92-1.24,3.54-3,5.47-4.21a29.79,29.79,0,0,0,3.18-2.32A42,42,0,0,1,63,116.27a13,13,0,0,0-9.72-.5c-3.62,1.32-8.3,5.64-5.63,9.84"/><path class="cls-1" d="M160.31,160.58c-1.58.41-2-1.58-2-2.69,0-1.5.73-2.4,1.67-3.56,1.12-1.37,5.06-4.69,6.52-2.09-1.27,1.34-1.9,3.08-2.95,4.57-.72,1-2.37,2.43-2.58,3.77"/><path class="cls-1" d="M158.35,157.46c-.25.19-.17,1.11-.17,1.43a1.64,1.64,0,0,0,.45,1.38l.37.33c.07.06.15.1.22.15a2.52,2.52,0,0,0,.25.21,1.44,1.44,0,0,0,.58.13,1.66,1.66,0,0,1,.64.11c.11-.12.24-.23.35-.35.29-.3.48-.71.78-1"/><path class="cls-2" d="M114.5,107c-.34.34-.06.81-.15,1.26a7.6,7.6,0,0,1-.94,1.65c-.12.22-.66.88-.72,1.08-.1.39.27.82.12,1.34-.52-.83.13-3.08-.52-3.65a6,6,0,0,1-1.23,3.29,24,24,0,0,1-.24-2.83,3.16,3.16,0,0,1-1.41,2.15c-.11-.72.37-1.77.13-2.35-.5.55-.72,1.24-1.36,1.57a3.9,3.9,0,0,1,.14-2.23c-.74.37-1.51.93-2.24,1.34a3.29,3.29,0,0,1,1-2.22c-1.11.26-2,.77-3.18.6a8.75,8.75,0,0,1,1.34-1.63c-.71,0-1.21.7-2,.6.15-.44,2.89-1.37,3.43-1.17.39,1.43,2,1.86,3.3,2.08,1.12.19,3.45.37,4.09-.84a.58.58,0,0,0-.39,0"/><path class="cls-2" d="M131.12,108.76a4.07,4.07,0,0,1-2.22,1.82,5,5,0,0,1-2.72.59c-.32-.09-.68-.31-1-.4a1.7,1.7,0,0,1-.93-.65c-.34-.4-1-1-1-1.52-.25.21-.09,1.78-.15,2.17a9.32,9.32,0,0,0-.06,3c.15-.32.3-.66.45-1s.13-1.05.36-1.47a4.26,4.26,0,0,0,1,2.81c.29-.54.11-1.37.2-2a.12.12,0,0,1,.13,0,4.69,4.69,0,0,0,.41,1.23c.06-.28-.07-1.25.35-1.24.24,0,.46.44.6.61s.49.51.7.79c0-.23.1-1.65.52-1.57.2,0,.41.89.49,1a4.17,4.17,0,0,0,.48.89c.06-.39-.16-2.18.43-2.19.26,0,.57.73.74.9a1.38,1.38,0,0,0,1.06.36c.18-.53-1.33-1.22-.39-1.41.59-.12,2.2.83,2.49.08-.14-.17-2.32,0-1.34-.75.45-.35,2.44-.86,2.3-1.66a7,7,0,0,0-1,.07,5.07,5.07,0,0,1-1,.08c-.18-.5.87-1.18,1.16-1.47.09-.1.55-.47.55-.63,0-.35-.5,0-.64.08a4.2,4.2,0,0,0-1.5.77c-.22.25-.45.79-.74.92"/><path class="cls-2" d="M186.55,54c2.84.05,7,4.29,8.89.33a3,3,0,0,0-1-4c-.39-.25-1.39-.24-1.6-.45-.82-.82-.12-1.58.26-2.3a23.33,23.33,0,0,1,3.06-3.88c1.05-1.2,2.55-1.8,3.61-3,1.75-1.91,1.77-5.75-1.26-6-2-.13-1.8,1.15-2.4,2.69s-1.93,2.93-3.34,1.42.75-1.57.46-3.1c-.37-2-3.81-1.09-4.45.26s.15,2.44.1,3.77c-.08,1.81-1,2-2.59,2.62-1.93.81-1.82,1.4-2.06,3.44-.25,2.19-.89,2.39-2.9,2.76-1.61.3-4.12,1.16-5,2.73-1.43,2.64,1.07,4.13,3.48,4.06s4.25-1.53,6.7-1.48"/><path class="cls-2" d="M218.35,8.51a3.31,3.31,0,0,1,2.24-2,2,2,0,0,1,1.27.31,1.53,1.53,0,0,1,.47,1.37c-.13.5-.82.88-1.2,1.14a1.52,1.52,0,0,0-.49.7c-.14.37,0,.4.29.58.45.29.52.86.81,1.31a.69.69,0,0,0,.76.41,3.5,3.5,0,0,0,.85-.36,4.32,4.32,0,0,0,1.8-1.18,6.92,6.92,0,0,0,.76-1.42c.23-.47.46-.93.66-1.41A5.14,5.14,0,0,0,227,6a4.33,4.33,0,0,0-.2-1.64,4.17,4.17,0,0,0-2.61-2.25c-.49-.22-.94-.52-1.44-.74-.17-.07-.31-.21-.49-.28a1.94,1.94,0,0,1-.5-.2c-2-1.31-5.72-1.17-7.07,1a15.33,15.33,0,0,0-.82,2.45c-.4.92-1.4,1.71-1.67,2.69-1.17,4.1,5.67,7.59,3,11.43-1.27,1.84-3.53,2.92-3.74,5.3-.12,1.34.66,5.78,2.59,5,1.07-2.68,3.79-4.17,5-6.75s.68-6.92-.33-9.34a5.26,5.26,0,0,1-.34-4.1"/><path class="cls-2" d="M209.14,33.46c0,.48.26,1.88-.07,2.29a1.86,1.86,0,0,1-2.51,0c-1.55-1.61,1.16-4.49,2.86-3.9.13.64.21,1.3-.28,1.62"/><path class="cls-2" d="M70,81.7c-.87-1-1.5-4.43-3.69-4.36-1.17,0-1.26,1.08-1.16,2.06a13.28,13.28,0,0,1,.3,1.44c0,.5-.47.57-.53.92-.41,2.09.52,3.29,2.73,2.77.77-.18,1.11-.65,2.07-.51s1.49.83,2.23.83c.34-2.53-1-3.17-3.09-4"/><path class="cls-2" d="M54.86,89.8c1-.51,2.87-1.09,2.32-2.65a9.1,9.1,0,0,0-.39-.84c-.16-.35-.26-.73-.45-1.06a8.05,8.05,0,0,1-.57-1,6.07,6.07,0,0,0-.34-1,6.62,6.62,0,0,0-3.08-3.1c-1.14-.45-1.26-.1-2.05.66a3.11,3.11,0,0,1-2.93.88c-1.46-.19-3-1.45-4.51-1.19s-2.67,2.3-3.24,3.52a11.92,11.92,0,0,0-.75,3.45,6.8,6.8,0,0,0-.23,3.11c.54,1.77,3.06,3.64,4.78,4.33.73.28,2.59,1,3.37.6.49-.27.72-1.33,1-1.75A5.32,5.32,0,0,1,49.5,91.9a7.38,7.38,0,0,1,2.8-.64,12.45,12.45,0,0,0,2.56-1.46"/><path class="cls-2" d="M104.58,49.89c-1-.62.42-2.71-.06-3.78s-2.61-1.8-2.17,0c.13.52.8.51.83,1.21s-.85,1.31-.9,2c-.09,1.37,1.35,2,1.19,3.15,1.41.46,1.11-2.12,1.11-2.85"/><path class="cls-2" d="M88.06,43.87c-1.19.72-.17,2.26,0,3.19.12.7-.08,2.3,1.11,2.15A2.82,2.82,0,0,0,91,45.94c-.32-.8-1.94-2.67-3-2.07"/><path class="cls-2" d="M105.2,41.34c-.11,0-.17,0-.17-.14a9.11,9.11,0,0,0,1-3,28.15,28.15,0,0,0,.77-4.72,7.41,7.41,0,0,1,.68-2.86,7.21,7.21,0,0,0,1-1.8c.33-1.38.86-3.38-.32-4.51a2.46,2.46,0,0,0-1.86-.79,2,2,0,0,0-1.87,1.28c-.31.68-.47,1.41-.74,2.14a6,6,0,0,0-.14,2.85,25.13,25.13,0,0,1,0,3.88,20.86,20.86,0,0,0,0,3.79,14.56,14.56,0,0,0,.49,2.94,2.12,2.12,0,0,1,.1,1c0,.31,0,.5.42.47s.68-.63.72-.89"/><path class="cls-2" d="M89.34,40.61a6.56,6.56,0,0,0,.61-1.7,6.49,6.49,0,0,0,0-2.11c0-.7,0-1.41,0-2.1.08-1.2.15-2.43.32-3.62.19-1.37.5-2.71.8-4a4.77,4.77,0,0,0-.54-3.94c-.3-.47-.86-1.28-1.4-1.46a1.87,1.87,0,0,0-1.9.58,5,5,0,0,0-1.15,1.95,6.29,6.29,0,0,0-.14,2v4.16a41.46,41.46,0,0,0,.72,5.87A24.93,24.93,0,0,0,87.36,39c.25.93.58,2.58,1.83,2.59.5,0,.41-.28.58-.71"/><path class="cls-2" d="M134.52,110c-.5.49.39,2,.62,2.46.41.86.84,1.66,1.19,2.54a13.8,13.8,0,0,1,.79,2.51c.15,1-.47,1.73-.59,2.66-.3,2.33.64,4.34,3.13,4.34,1.3,0,3.57-.74,4.54.54.75,1,1.12,3,0,3.8a3.53,3.53,0,0,1-2.15.5c-.44,0-1.92-.45-2.31-.14-.93.72.69,3.33.51,4.31a1.71,1.71,0,0,1-1.48,1.34,2.08,2.08,0,0,1-2.15-1.17,6.08,6.08,0,0,1-1.16-2.5c-.11-.94-.11-2.68-1.3-3-.88-.24-1.15.85-1.87.31a3,3,0,0,1-.78-2.43,30.87,30.87,0,0,1,.13-3.47c.16-1.44.49-2.85.66-4.3s.32-2.89.49-4.32c.21-1.65,1-3.27,1-5"/><path class="cls-2" d="M150.45,127.74l-.29.37c3.78.57,5.21-1.08,7.82-3.52s7.48-3.88,7.1,1.37c-.13,1.74-.59,2.25,1.74,2.57,1.57.23,3.66-.31,5,.43,1,.56,2,2.08,1.69,3.27-.46,1.47-2.7,1.82-4,2.31-.47,2.17,4.46,2.55,5.83,3.41,1.67,1.05,3.32,3.66.4,4.51s-4-.93-5.83-2.62c-2-1.84-3.87-2.94-6.6-2.62-.16,1.28,0,2.62-.13,3.9-2.82.6-2.81-1.5-4-3.42-1.51-2.36-3.38-2.71-6.09-2.36-1.73.21-1.74.88-3-.42a7.46,7.46,0,0,1-1.34-2.8,3.67,3.67,0,0,1,.44-2.93c.8-1.08,1.58-.79,2.56-1.45"/></g></g></svg>