<svg xmlns="http://www.w3.org/2000/svg" viewBox="0 0 417.88 299.53"><defs><style>.cls-1{fill:#007293;}.cls-2{fill:#1d1d1b;}.cls-3{fill:#e30613;}.cls-4{fill:#fff;}</style></defs><g id="Ebene_2" data-name="Ebene 2"><g id="Ebene_1-2" data-name="Ebene 1"><path class="cls-1" d="M244.56,201.88a19.62,19.62,0,0,1,1.27-4.55c.46-.93.93-1.86,1.38-2.8a16.79,16.79,0,0,1,1.91-2.37c.69-.94,1.5-1.79,2.22-2.71.26-.32.56-.63.85-.93.53-.54.93-1.16,1.41-1.74.69-.83,1.38-1.65,2.05-2.48a27.73,27.73,0,0,1,2.68-3.22c.71-.65,1.34-1.36,2.07-2a13,13,0,0,0,2.53-2.43c.55-.86-.31-2.17-.65-3a8.18,8.18,0,0,0-2.31-3.55c-3.19-2.64-7.16-3.39-11.21-3.23a3.12,3.12,0,0,0-2.22.91,5.88,5.88,0,0,0-1.86,3.22,7.33,7.33,0,0,1-.91,1.89c-.48.73-.86,1.54-1.4,2.23-1.34,1.71-2.51,4.09-4.12,5.58-2,1.85-3.16.56-5.74.26a15.53,15.53,0,0,0-6.16.64c-5.86,1.81-8,5.89-6.89,11.87a14.73,14.73,0,0,1,.35,2.56,4.08,4.08,0,0,1-.37,1.45c-.28.79-.42,1.62-.69,2.41a20.64,20.64,0,0,0-.91,2.49,2.27,2.27,0,0,1-1.68,1.9c-.42.06-.85.18-1.28.2-.21,0-.39-.1-.56-.09s-.26.16-.39.41c-.66,1.36,1,2.48,2.08,3,.32.15.63.33,1,.47s.58,0,1,0a7.12,7.12,0,0,0,.92.07,9.41,9.41,0,0,1,1-.23,1.43,1.43,0,0,1,1.42.8,6,6,0,0,1,.53.75c.09.21,0,.29.2.47a1.06,1.06,0,0,0,.71.19c.29,0,.54-.28.82-.06s.2.48.29.7a2.32,2.32,0,0,0,1.45,1.37c.41.07.41-.23.65-.44a4.62,4.62,0,0,1,.87-.56,3.49,3.49,0,0,1,.71-.24c.5-.09,1.07.3,1.6.32a5.65,5.65,0,0,1,1.95.39,4.77,4.77,0,0,0,1.59.59c.53.05,1,.21,1.56.23a8.38,8.38,0,0,0,2.87-.21,8.59,8.59,0,0,0,3.62-2.73,13.09,13.09,0,0,0,2.12-2.9c.28-.58.56-1.16.85-1.74a11.39,11.39,0,0,0,.66-2C244.38,202.62,244.47,202.25,244.56,201.88Z"/><path class="cls-2" d="M221.43,177.42a5.5,5.5,0,0,0-3,.18c-.52.3.23.75.5,1,.6.61.08,1.27-.62,1.39-.39.07-.78,0-1.18.09a7.49,7.49,0,0,0-1.74.42c-.58.23-2.14.68-1.86,1.56s1.49.82,2.06,1.36c.82.76.52,1.75-.06,2.58-.73,1-3.78,4.64-1.47,5.41.56.19,1.3.08,1.63.69.41.78.47,1.69,1,2.46a1,1,0,0,0,1.81-.16,5.5,5.5,0,0,0,.39-1.89,17.73,17.73,0,0,1,.63-3,14.14,14.14,0,0,1,.74-2.1,7.61,7.61,0,0,1,1.17-1.55c1.38-1.54,3.95-3,6-2.15a7.54,7.54,0,0,1,2.09,1.41,8.17,8.17,0,0,1,2.33,3.55c.39,1.06.61,2.18,1,3.22.2.49.53,1.6,1.15.91.16-.17.24-.43.4-.61s.54-.36.54-.56-.34-.55-.44-.71a7.7,7.7,0,0,1-.61-1.3c-.55-1.35-1.38-3-.17-4.25a4.4,4.4,0,0,1,1.6-1,3.41,3.41,0,0,0,1.53-.88,4.13,4.13,0,0,0,.87-1.45,2,2,0,0,0-.1-1.54c-.27-.31-.7-.29-1.14-.35a18.13,18.13,0,0,0-2.33-.05,20,20,0,0,0-2,0,7.4,7.4,0,0,1-1.88-.09c-.61-.11-1.28-.16-1.87-.33s-1.19-.38-1.76-.6c-.21-.08-.42-.22-.63-.31a6.33,6.33,0,0,0-1.13-.32,5.45,5.45,0,0,1-.76-.39A9.48,9.48,0,0,0,221.43,177.42Z"/><path class="cls-2" d="M221,196.84a6.17,6.17,0,0,1-.38-2.33c0-.42.12-.81.13-1.24a2.69,2.69,0,0,1,.23-1.08,9.21,9.21,0,0,1,4.24-5,3.69,3.69,0,0,1,1.38-.49,1.85,1.85,0,0,1,1.19.67,8.91,8.91,0,0,1,1.45,1.84,7.59,7.59,0,0,1,1,2,15.66,15.66,0,0,1,.45,1.76c-.32-.27-.44-.85-.68-1.18a7.93,7.93,0,0,0-1.3-1.29,4,4,0,0,0-1.71-1,3.71,3.71,0,0,0-2.65,1.14,4.53,4.53,0,0,0-1.34,1.7,12.83,12.83,0,0,0-.57,1.72,5.05,5.05,0,0,1-.66,1.78c-.19.29-.5,1.08-.9,1.05"/><path class="cls-2" d="M220.16,186.84a10.43,10.43,0,0,1,1.67-2,7.07,7.07,0,0,1,2.43-1.8,6.91,6.91,0,0,1,6.42,2.14c1.59,2,2,4.55,2.65,7,.23.86,2.33,6.85,3.94,5,.63-.74,0-2.26-.28-3-.49-1.22-1.34-2.3-1.94-3.48a7.63,7.63,0,0,1-1.05-4.45c.2-1.09.86-1.42,1.7-2a11.62,11.62,0,0,0,2.38-1.65c.68-.84.53-1.84.72-2.81a2.61,2.61,0,0,1,.36-1c.2-.26.29-.57.46-.84s.28-.37.4-.55c.3-.47.63-.93.95-1.38.13-.19.82-.81.46-1-.16-.1-.48,0-.65.1-.47.14-.94.31-1.41.47a18.23,18.23,0,0,1-2.71.78c-.47.1-.93.25-1.4.35a1,1,0,0,1-.43,0,2.88,2.88,0,0,0-.31-.13,8.1,8.1,0,0,0-1-.1A19.35,19.35,0,0,0,227,177c-.79.22-2.8,1.28-3.49.8"/><path class="cls-3" d="M246.91,163.41a78.75,78.75,0,0,0,4.85-10.93,49.12,49.12,0,0,1,11.53-18.13c5.77-5.51,15.17-10,22.75-12.26,11.4-3.4,22.48-5.9,33.76-1.14,2.33,1,4.67,1.94,7,2.93s4.66,2.22,7,3.13c.55.21.73.09.9.69a3.66,3.66,0,0,1-.26,1.69c-.27,1.06-.71,2.06-1.05,3.1-1.16,3.59-2.26,7.17-3.68,10.68-1.65,4.11-3.61,8.17-5,12.39-.72,2.21-1.49,4.4-2.25,6.59a11.39,11.39,0,0,1-.78,1.61c-.52-.21-.85-.63-1.4-.81a10.2,10.2,0,0,0-2.13-.44c-3.36-.34-6.21-1.37-9.57-2-6-1.16-12.73-3.12-18.77-2.68,4.61,1.08,9.2.86,13.78,2.41.85.29,2.46.36,3.09,1,1,1,.29,3-.16,4.09-1.11,2.71-2.19,5.63-4.28,7.73a26.75,26.75,0,0,1-4.18,3.66c-.62.41-1.29.89-1.89,1.32s-.9,1-1.5,1.12a5.3,5.3,0,0,1-1.88-.25c-1.55-.25-3.09-.57-4.66-.71a53,53,0,0,0-15.77,1.39c-1.61.34-3.22.72-4.83,1.12a21.39,21.39,0,0,1-2.27.53,17.23,17.23,0,0,1-1.76,0,6.56,6.56,0,0,1-1,0c-.39-.07-.37-.29-.49-.61-.42-1.15-.75-2.34-1.21-3.48a10.92,10.92,0,0,0-1.88-3.06c-2.52-3.07-5.78-5.64-9.87-6.07-1-.11-2,0-3-.11a1.57,1.57,0,0,1-.89-.28c-.34-.36.39-1.47.55-1.85C246.13,165,246.49,164.21,246.91,163.41Z"/><path class="cls-4" d="M290.08,171.82a23.31,23.31,0,0,1,6.77-9.25,9.35,9.35,0,0,1,4.26-2,5.54,5.54,0,0,1,3.88.91,11.87,11.87,0,0,0-4,2.51,23.17,23.17,0,0,0-6.15,9.68,19.36,19.36,0,0,0-1,5.42c-1.82-.27-3.73-.68-5.46-.85A21.68,21.68,0,0,1,290.08,171.82Z"/><path class="cls-4" d="M273.29,153.34a42.34,42.34,0,0,0-5.66-5.54A30.07,30.07,0,0,0,257,142c.6-.92,1.23-1.8,1.88-2.66a5.31,5.31,0,0,1,.68.1c5,.91,9.49,4.06,13.12,7.5a27.76,27.76,0,0,1,4.84,5.59c1.47,2.48,2.18,5.31,3.58,7.82a.09.09,0,0,0,.13,0c-.09.09-.19.16-.27.25a16.83,16.83,0,0,0-1.76,1.92,4.17,4.17,0,0,1-1.16-1.52c-.42-.75-.79-1.53-1.16-2.31a17,17,0,0,0-1.41-2.63C274.77,155.18,274.06,154.24,273.29,153.34Z"/><path class="cls-4" d="M305.19,123.78a77.53,77.53,0,0,1-3.77,18.75c-1,2.94-2,5.88-3.17,8.77a45,45,0,0,1-2,4.44c-.37.72-.75,1.42-1.18,2.1L295,158c-.79-.08-1.58-.15-2.36-.17.06-.08.11-.16.16-.24a16.47,16.47,0,0,0,.78-2.06,74.05,74.05,0,0,0,2.9-9.52c.73-3.34,1.38-6.71,1.91-10.08a51.43,51.43,0,0,0,.73-9.6c-.07-2.44-.25-4.89-.15-7.34a50.66,50.66,0,0,1,6.37-.61C305.39,120.15,305.33,122,305.19,123.78Z"/><path class="cls-4" d="M332.72,129.23a5.8,5.8,0,0,0-.88,1,27.21,27.21,0,0,0-3,4.95c-1,2.16-1.88,4.36-2.71,6.58-1.19,3.16-2.34,6.34-3.35,9.56q-.84,2.72-1.65,5.44a12.28,12.28,0,0,0-.74,4.18,10.06,10.06,0,0,0,1,2.85,2.74,2.74,0,0,1-.76-.39c-.41-.2-.88-.25-1.29-.47a2.65,2.65,0,0,0-1.18-.38c-.95-.1-1.86-.25-2.75-.43l.36-.79c.55-1.2,1.16-2.38,1.73-3.58a86.38,86.38,0,0,0,3.28-8.34c1.18-3.23,2.31-6.48,3.52-9.7.57-1.51,1.15-3,1.83-4.5s1.26-2.63,1.89-3.95a52.81,52.81,0,0,0,2.31-5.81c.91.57,2.05.87,3,1.37a4.75,4.75,0,0,1,1.59,1c-.51.39-1.18.64-1.72,1C333,129,332.87,129.1,332.72,129.23Z"/><path class="cls-4" d="M308.84,152.19c1.22-2.42,2.59-4.76,3.68-7.24,1.38-3.16,2.67-6.35,4-9.54,1.17-2.89,2.37-5.73,3.79-8.51a36.88,36.88,0,0,0,2.2-4.83l3,1.25c-.91,1.88-2,3.69-3,5.5a39.17,39.17,0,0,0-3.65,8.34c-.87,3-1.42,6.13-2.42,9.1-.54,1.62-1.18,3.21-1.75,4.83a32.45,32.45,0,0,0-1.27,4.86,41.5,41.5,0,0,1-.95,4.72c-.07.22-.15.44-.24.65-1.17-.29-2.35-.58-3.6-.82l-2.42-.5A23,23,0,0,1,308.84,152.19Z"/><path class="cls-4" d="M255.2,155.32a23.8,23.8,0,0,1,8.15,5.15,39.88,39.88,0,0,1,6.88,8.28,27.74,27.74,0,0,1,3.88,9,13.5,13.5,0,0,1,.23,1.44q-2.55.5-5.09,1.11a16,16,0,0,0-.68-2.64,30.4,30.4,0,0,0-3.67-7.12,39.45,39.45,0,0,0-5.69-6.74,25.81,25.81,0,0,0-6.66-4.74,14.16,14.16,0,0,0-3-1c.49-1.09.95-2.19,1.4-3.32A10.29,10.29,0,0,1,255.2,155.32Z"/><path class="cls-4" d="M253.14,167a22.76,22.76,0,0,1,7.32,5.83,16.33,16.33,0,0,1,3.94,7.84,7.65,7.65,0,0,1,.08.81c0,.32-3.07.63-3.39.65-.68.06-1.32,0-2,0l-1.64.12c-.43,0-1.12.2-1.46,0,.34-.21.51-.7.85-1a5.31,5.31,0,0,0,.81-.52c.69-.71.38-1.84.21-2.67a17.08,17.08,0,0,0-1.28-4.52,9.3,9.3,0,0,0-4.35-4.19,10.62,10.62,0,0,0-5.66-.68,3.06,3.06,0,0,0-2.13,1.43,2.78,2.78,0,0,0-.46.82c-.08.26,0,.66-.07.86a5.66,5.66,0,0,0-.17-1,3.19,3.19,0,0,1,.06-.93,20.16,20.16,0,0,1,.88-1.89c.2-.44.38-.86.6-1.26.34-.61.42-1,1.17-1.13a7.3,7.3,0,0,1,1.81,0A12.5,12.5,0,0,1,253.14,167Z"/><path class="cls-2" d="M229.21,206a7.07,7.07,0,0,1-.47,1.23,4.91,4.91,0,0,1-1,1.37,6.93,6.93,0,0,1-1.55.87,22.35,22.35,0,0,1-2.57.76,2.34,2.34,0,0,1-1.8.05c-1.35-.67.54-1.53.94-1.86a4.59,4.59,0,0,1,2.27-1.12,7.51,7.51,0,0,0,3.09-1.27,4.52,4.52,0,0,0,1.31-1.75c.44,1.61-1.08,3.34-1.82,4.57-.52.85-1,1.84-1.53,2.67-.45.67-1.08,1.57-1.84.7-.62-.71-.37-1.41-.23-2.18a5,5,0,0,0-1.38.2c-.31,0-1.15,0-.56-.53"/><path class="cls-1" d="M341.19,175.77c-.47-1.07-.93-2.17-1.46-3.22a8,8,0,0,0-1.1-1.66c-.48-.5-.95-.89-1.41-1.44a20.23,20.23,0,0,0-2.13-2.56,22.88,22.88,0,0,0-3.76-2.29A25.34,25.34,0,0,0,328,163c-1-.41-2-1.05-3-1.51s-1.76-1-2.71-1.37c-.53-.21-1.57.09-1.67-.59a10.83,10.83,0,0,1,.29-2.52,7.52,7.52,0,0,1,.51-1.84,28.51,28.51,0,0,0,1.2-3.7c.77-2.89,1.93-5.65,2.78-8.51.44-1.49.84-3,1.37-4.44a42.42,42.42,0,0,1,2.42-5.42,27.81,27.81,0,0,1,1.66-3,1.53,1.53,0,0,1,.88-.76c.39-.09.67.13,1,.29a6.23,6.23,0,0,0,1.2.39c1.08.32,2.19.53,3.27.9,1.93.66,3.75,1.39,5.61,2.22a17,17,0,0,1,4.69,3.57c2.33,2.28,4.95,4.38,7,7s4.09,5.2,6,7.87c1.53,2.09,3.54,3.57,4.23,6.23.23.92-.18,1.36-.74,2.08a33.27,33.27,0,0,1-4.31,4.49c-2.8,2.48-6.37,4.14-9.37,6.4a25.57,25.57,0,0,1-6.13,3.79C343.41,174.88,342,175.85,341.19,175.77Z"/><path class="cls-2" d="M337.13,180.68c-2.33,8-8.81,16.16-8.16,24.83.37,4.87,4.54,22.45,11.39,21.93,1.77-.13,5.54-2.14,7.42-2.74a52.43,52.43,0,0,0,7.8-2.85c11.53-5.88,16.66-20.43,19.75-32.14a44.83,44.83,0,0,0,1.21-9.13,11.18,11.18,0,0,0-.37-3.54,51.87,51.87,0,0,0-5.2-12.67,101.29,101.29,0,0,0-9.06-12.7,37.61,37.61,0,0,0-4-4.27,20.55,20.55,0,0,0-1.74-1.75,4.36,4.36,0,0,1-1.12,2.18c-.76.81-1.57,1.57-2.3,2.42-2.68,3.16-6.24,5.64-9.42,8.32-2.28,1.91-4.65,3.79-6.83,5.83-.41.38-1.72,1.28-1.84,1.9-.06.31.3.93.41,1.25.21.59.52,1.16.73,1.76,1,3.08,2.36,7.06,1.61,10.34C337.32,180,337.23,180.34,337.13,180.68Z"/><path class="cls-3" d="M358.12,149c-.06,0-.33-.6-.66-.68-.13.46-.57.66-.91.93a18,18,0,0,0-1.4,1.36c-.78.79-1.72,1.41-2.47,2.12a2.45,2.45,0,0,0,.36.81c1.75-1.06,4.1-2.24,5-4.28a.58.58,0,0,0-.19.19"/><path class="cls-3" d="M351.56,155.48c-.35,0-.59-.49-.73-.79A45.67,45.67,0,0,1,347,158.9c.33.09.44.52.6.81.71.07,2.18-1.33,2.71-1.81s2.47-2.14.81-2.28"/><path class="cls-3" d="M345.2,160.45c-.35.07-.71.54-1,.82a17.43,17.43,0,0,1-1.57,1.4c-.87.73-2,1.13-2.87,1.83.41.06.61.53.69.89,1.09,0,2.53-1.25,3.33-1.94a10.82,10.82,0,0,1,2.34-1.7,2,2,0,0,0-.81-1.41.94.94,0,0,1-.12.22"/><path class="cls-3" d="M335.9,169c-.11,0,.83-.77,1.1-.94a10.78,10.78,0,0,0,1.7-1c-.4-.1-.23-.65-.57-.79s-.77.3-1,.45a15.82,15.82,0,0,1-1.94,1c-.12.53.77,1.67.9,2.26"/><path class="cls-3" d="M335,168.49c-.23-.13-.7-1.17-1.18-1.54a9.85,9.85,0,0,0-2.45-1.37,2.7,2.7,0,0,0-3.41,2.69c-.06,1.6,1.94,2.77,3.39,2.75a5.46,5.46,0,0,0,3.78-1.79,7.28,7.28,0,0,1-3.26.81c-1.22-.12-2.92-.86-2.41-2.41.45-1.4,2.49-1.1,3.49-.56.77.42,2.22,1.42,2.32,2.35-1,0-1.5,2.31-1.68,3-.23,1-.42,2.09.83,2.5s1.8-1,1.89-2a4.94,4.94,0,0,0-.66-3.26c.47.78.19,4.73-1.31,3.81-1.26-.78.51-3.21,1-4.07a3.86,3.86,0,0,0,2.51.62,3,3,0,0,0,1.25-.42c.4-.35.18-.55.11-1.17a11,11,0,0,1-4.48,1.29"/><path class="cls-1" d="M195.25,209.56a17.23,17.23,0,0,1-1.71-1c-.87-.59-.75-1-1-2a2.67,2.67,0,0,0-.61-1,7.3,7.3,0,0,0-2.23-1.87,9.45,9.45,0,0,0-5.69-1.1c-3.34.43-6.92,2.59-9.71,4.18-3.27,1.87-7.05,4.31-9.29,7.46a12.25,12.25,0,0,0-1.33,2.26,21.31,21.31,0,0,0-.59,2.61c-.55,2.05-1.82,3.2-3.33,4.66a10.47,10.47,0,0,1-2.82,1.74c-.79.37-2,.87-2.77.18a2.2,2.2,0,0,0-1,2.33,20.34,20.34,0,0,0,2.25,6.05,13.91,13.91,0,0,0,2.72,3.64,8.7,8.7,0,0,0,2.49,1.77c1,.35,4.5-2,5.53-2.44,2.53-1.12,5.06-2.48,7.55-3.71s4.62-2.28,7.08-3.38a30.61,30.61,0,0,1,7.49-2.14,25.11,25.11,0,0,0,3.29-.58,10.17,10.17,0,0,0,4.43-3.05,2.22,2.22,0,0,0,.78-1.54c0-.84-.36-.92-.77-1.54-.52-.78.61-1.73.15-2.57-.23-.43-.53-.49-.58-1a.94.94,0,0,1,.5-1,13.07,13.07,0,0,1,4.21-1.65,6.2,6.2,0,0,0,1.68-.53c.23-.12.44-.12.62-.32a10,10,0,0,0,.68-.78A4.89,4.89,0,0,0,204,212a3.25,3.25,0,0,0,.35-1,.5.5,0,0,0-.11-.43.67.67,0,0,0-.48-.12c-.39,0-.78,0-1.17.08s-.84.18-1.28.24-.77.11-1.15.14a4.15,4.15,0,0,1-.71,0,3.54,3.54,0,0,1-1-.18,9.19,9.19,0,0,0-1.05-.34A13.77,13.77,0,0,1,195.25,209.56Z"/><path class="cls-2" d="M188,207.36c.3-.11.62-.16.91-.27a2.35,2.35,0,0,1,.79-.14.9.9,0,0,1,.69.26c.13.17,0,.37-.12.5a1.18,1.18,0,0,1-.67.35c-.29,0-.59,0-.88,0a4.89,4.89,0,0,0-.76.16,2.4,2.4,0,0,0-.84.47,5.45,5.45,0,0,0-.78.66,7.12,7.12,0,0,0-.79,1.1c-.14.23-.22.59-.47.71a2.14,2.14,0,0,1-.79.2,2.62,2.62,0,0,1-1.08,0c-.27-.09-.51-.24-.78-.32a1.86,1.86,0,0,1-.56-.24,1.88,1.88,0,0,0,1.26.06,2.52,2.52,0,0,0,1.06-.59c.15-.14.23-.3.37-.44s.34-.25.49-.4.47-.51.71-.75a4.57,4.57,0,0,1,.68-.57l.43-.25a1.65,1.65,0,0,1,.53-.22A3.46,3.46,0,0,0,188,207.36Z"/><path class="cls-4" d="M189.75,212.39a3.14,3.14,0,0,1-.51.12,5.66,5.66,0,0,1-.91.19,2.09,2.09,0,0,1-.89-.19c-.2-.09-.36-.21-.55-.31a.6.6,0,0,1-.28-.17,1.86,1.86,0,0,1-.19-.22c.3-.09.54-.4.79-.59.4-.29.79-.61,1.21-.87s.51-.38.79-.53.46-.21.68-.31.42-.17.64-.24a.52.52,0,0,1,.42,0c.27.12.93.38,1,.71a1.14,1.14,0,0,1-.17.55,3.1,3.1,0,0,1-.75,1.14A3.74,3.74,0,0,1,189.75,212.39Z"/><path class="cls-2" d="M191.64,210.23a1,1,0,0,1,0,.57,1.32,1.32,0,0,1-2.41.08.82.82,0,0,1,.64-1.18C190.47,209.51,191.47,209.6,191.64,210.23Z"/><path class="cls-2" d="M196.12,218.78c-.36,0-.7.44-1,.64s-.74.52-1.14.75c-.63.37-1.44.46-2,.84.25.41,1.15.45,1.59.42a13.22,13.22,0,0,1,1.78,0c.27,0,.48.1.65-.18s0-.41-.14-.65,0-.37.18-.66a2.07,2.07,0,0,0,.29-.78,1.64,1.64,0,0,0-.43-.55"/><path class="cls-1" d="M25.45,137.85A24.43,24.43,0,0,1,27.87,131a27.38,27.38,0,0,1,6.1-7.59,31.76,31.76,0,0,1,19.14-7.76,76.33,76.33,0,0,1,14.34.84c2.33.35,4.7.64,7,1.2,4.25,1,8.62,1.71,12.86,2.76,1.24.3,2.35,1.08,3.61,1.25,3.44.48,7.94-1.66,10.28-4.05,1.93-2,3.29-6.13,6-7.2.14.21.41.4.55.62.71-.53,1.62-3.11,2.47-3.14,1.7-.07,1,2.31.77,3,1.31-.52,1.14-2.16,2.78-2.22,2.72,2.24-2.45,6.56-3.91,8-2.91,2.8-3.5,5-3.44,8.85,0,1.35.32,3.45-.22,4.63-.69,1.51-2.61,2-4.12,2.29-1.72.29-3.82.69-5.37-.3s-2.11-2-3.8-2.53c-2-.64-4.15-1.74-6.32-2.32C81.9,126,77,125.83,72.1,125.19c-2.95-.39-6-1.37-8.93-1.61a44.23,44.23,0,0,0-8.81.52c-2.81.38-5.63,2.18-7.74,4.05-4.23,3.77-6,10.77-6.2,16.26-.18,5.85-.62,11.78.5,17.57,1.33,6.78,3.28,13.6-.66,19.74-1.41,2.19-7.22,5.07-9.84,3.94-3.07-1.32-2.59-7.37-3.2-10-.47-2-1.54-3.41-1.76-5.5-.28-2.73-.12-5.49-.45-8.21-.68-5.52-2.5-10.59-1.13-16.11C24.55,143.12,24.89,140.46,25.45,137.85Z"/><path class="cls-1" d="M149.44,182.63c-.94,4.82-1.68,9.71-2.85,14.48-1.06,4.35-.43,9.7.6,14,.95,4,2.39,7.73,3.41,11.61-1.44.61-3.83.25-5.43.29a64.41,64.41,0,0,1-6.51-.13c-3.93-.31-5.13-1-5-4.93a34.08,34.08,0,0,1,1.32-8.14c1.26-4.24,2.3-8.76,3.29-13.21,1.92-8.57,2.76-16.9,4.73-25.59.67-2.95,2.15-5.22,3-8.13,1-3.79,2-7.62,2.68-11.48,1.17-6.29,1.85-12.43,3.8-18.52.93-2.94,1.46-6.57,2.62-9.36-.89-1.81-4.56-10.28-2.09-11.59,1.43,1.12.82,3.77,1.64,5.16.31-1.19,0-2.63.5-3.8,1.3.76.58,2.56,1.46,3.6,1.5-1.06-1.48-8.35,1.29-7.89,3.09.51.92,6.32,2.68,7.55,2.21-1.17,2.08-5.36,4.3-7,2.81,2.67-1.66,9.24-2.58,12,1.47.36,5.24-2.43,6,.08.55,1.89-3.26,3.44-4.39,4.21-1.8,1.21-2.63,3-3.23,5.25-1.08,4-2.21,8-3.45,12-1.34,4.3-2.43,8.79-3.38,13.12-1.87,8.51-2.55,17.11-4.23,25.67Z"/><path class="cls-1" d="M127.59,275.79c-3.3-4.83-3.27-11.53-1.72-17.31,1-3.72,4.82-7.88,5.36-11.34.87-5.58-4.15-1.17-7.37-.52-3.81.77-7.52-.14-11.24-1.05a108.37,108.37,0,0,1-18.52-6.3c-11.55-5.21-23-9.86-33.62-16.78-5.19-3.37-10-7.28-14.88-11-5.1-3.84-10.73-7.5-15.51-11.58-4.34-3.71-10.2-7.82-13.3-12.69S10.22,177.93,7.5,173c-3.66-6.66-5-13.15-6.11-20.64a129.68,129.68,0,0,1-.85-30.94C1,116.16,1.68,111,2.6,105.79c.41-2.28,1.18-3.29,2.27-5.18,1.2-2,1.26-4.62,1.86-6.87A65.44,65.44,0,0,1,11,82.26,72.47,72.47,0,0,1,19.82,69,57.74,57.74,0,0,1,30,58.71c9-6.81,18-12.63,28.88-16.06,6.52-2.06,15.94-1.69,20.4-7.83,1.55-2.13,1.34-4.85,1.77-7.34.31-1.72.29-7.83,1.88-8.79a1.48,1.48,0,0,1,2.1.68,2.73,2.73,0,0,0,.09-1.87c.94-1.4,2.5-.85,2.4.7,1.91-1.14,4.66-3.51,4.18.43-.3,2.47-2.1,4.27-2.87,6.52a18.38,18.38,0,0,0-1,7.24c.16,2.9,3.8,7.15,2.53,9.86a4.35,4.35,0,0,1-3,2.08c-2.16.13-4-1.18-6-1.37-1.87-.18-4,.67-5.8,1.17a143.36,143.36,0,0,0-20.88,7.63c-6,2.72-11.67,5.8-16.44,10.52a55.58,55.58,0,0,0-6.64,7.48c-2.28,3.23-4.07,6.54-6,10-5.2,9.08-5.72,19.29-8.63,29.1a74.56,74.56,0,0,0-3.53,25.83c.17,3.5.15,6.61,1.27,10,1.51,4.63,3.61,9.1,5.36,13.65,1.37,3.59,2.46,8,4.5,11.25,1,1.63,2.41,3,3.52,4.54.83,1.16,1.17,2.85,2.63,3.23,4.79,1.26,9.39-1.38,14.22.68,6.28,2.68,12.78,3.37,18.34,7.59,4.59,3.49,8.38,8.18,12.49,12.33,6.19,6.24,14,10.15,21.76,14.13a69.94,69.94,0,0,0,15.38,6.13c6.24,1.52,14.45,1.84,20.81,1.69,4-.1,8.93-1.32,12.28-1.32a8.9,8.9,0,0,1,1.46.12,8.79,8.79,0,0,1,4.9,2.63,14.66,14.66,0,0,1,1.81,2.27c.28.42.54.85.79,1.29s.39,1,.84,1.13a1.77,1.77,0,0,0,.46,0,8.17,8.17,0,0,0,1.11-.08c.3,0,.34.1.53.37a16.19,16.19,0,0,1,1,1.78c1.18,2.21,2.46,4.36,3.48,6.66a10.5,10.5,0,0,1,.83,2.38,2.12,2.12,0,0,1,0,1.45c-.32.5-1.21.57-1.72.77a23.1,23.1,0,0,1-2.29.82c-5.89,1.6-13.26.55-17.74,5.11a34,34,0,0,0-8.42,17.25c-.51,3.78-.71,8.94,4,9.86,3.69.71,12.38-2.06,16.23-2.87,17.26-3.63,39.42-13.92,47.55-30.42,1.19-2.43,4.29-11.29,7.44-9.27-.68,1.11-1,2.65-1.67,3.75,5,1.73,13.45-9.84,17.81-6.46-1.39,5.79-9.73,4.14-12.52,8.94,3.89-.56,8.41-4.88,11.59-4.67-1,4.38-6.26,4.38-7.8,7.87,3.17.51,5.88-1.59,8.25-3.48,2.89,7.66-9,8.42-13.37,10.48-8,3.77-16,9.33-23.25,14.6-11.88,8.6-22.79,15.86-37.13,19.75-6.21,1.69-12.22,2.57-18-.73A13.43,13.43,0,0,1,127.59,275.79Z"/><path class="cls-2" d="M20.69,175.66c2.87-2,5.68-4.28,9-5.3a12,12,0,0,0,6.75,5.72,26.08,26.08,0,0,0,4.79-3.56c2.29,2,4.19,4.22,6.57,5.78l2.72.26c6.88.68,15.94,3.79,20,9.61,3.06,4.37,4.77,9.31,8.24,13.39a9.35,9.35,0,0,0,4.53,3.05c6.18,1.92,12,5.39,18.08,7.69,1.25.47,2.45,1,3.67,1.57.6.26,1.2.5,1.81.75,1.21.52,2.45,1,3.7,1.47a9.88,9.88,0,0,1,1.1.48,13.56,13.56,0,0,0,1.57.47,36.07,36.07,0,0,0,5.37.91,31.85,31.85,0,0,0,4.58.2,44.64,44.64,0,0,0,4.63-.34,52.8,52.8,0,0,1,5.35-.32c1.73,0,3.64.3,5.34.1a17.44,17.44,0,0,1,3.34-.43,16.65,16.65,0,0,1,6.92,1.77c1.34.75,2.47,2,3.74,2.9a12.51,12.51,0,0,1,3.1,2.79c-3,0-4.79-3.31-7.51-3.88a17.1,17.1,0,0,0-4.63,0c-1.27.13-3.61.26-4.62,1.18-2.43,2.21,3.09,3.85,4.44,4.24a46.78,46.78,0,0,1,5.45,1.76c1.62.71,3.84,1.37,4.95,2.68a15.62,15.62,0,0,1,1.93,3.1,4.74,4.74,0,0,1,.3,1.43,7.34,7.34,0,0,1-.38,3,7.82,7.82,0,0,1-.55.86,6.12,6.12,0,0,1-.7.91c-.29.32-.61.61-.91.92a4.59,4.59,0,0,1-.53.55,23.48,23.48,0,0,1-2.23,1.29,9.09,9.09,0,0,0-1.12.69,3.82,3.82,0,0,1-.95.4,11.72,11.72,0,0,1-1.14.38c-.34.12-.71.23-1.07.32a2.72,2.72,0,0,0-.81.31,4.66,4.66,0,0,0-.61.56c-.17.15-.7.41-.87.12s.32-.56.51-.7c.5-.35,1-.66,1.51-1,1.47-1.11,3.22-1.79,4.7-2.81a7.31,7.31,0,0,0,1.87-2.39,8.17,8.17,0,0,0,.95-2.79,5.63,5.63,0,0,0-.56-3,3.37,3.37,0,0,0-1.18-1.44,10.57,10.57,0,0,0-3.4-1.79,15.35,15.35,0,0,0-3.3-.53c-1.36-.07-2.75-.15-4.11-.13s-2.59,0-3.88,0c-1.62,0-3.24.13-4.85.26a57.46,57.46,0,0,0-8.37,1c-2.65.61-5.42,1-7.84,2.29a5.77,5.77,0,0,0-2.61,2.58,1.81,1.81,0,0,0-.07,1.51,11.22,11.22,0,0,0,1,1.39,9.36,9.36,0,0,0,5.08,3.24,30,30,0,0,0,5.83.84c1,.07,1.93.14,2.89.25a10.17,10.17,0,0,1,3,.51,8.21,8.21,0,0,1,1.13.61c3.52,2.17-13.31,4.1-15.33,3.92a53.83,53.83,0,0,1-18-5.39,10.79,10.79,0,0,0-2.49-.86,58.44,58.44,0,0,1-7.21-2.25c-1.09-.38-2.17-.78-3.25-1.18-5.88-2.22-12.41-4.18-17.59-7.39-6.24-3.89-11.32-9-17.45-12.89-3.87-2.45-7.45-3.88-11.1-6.7a68.46,68.46,0,0,1-10.42-10.49c-5.48-6.67-13.41-11.52-17.38-19.43C14.71,178.94,18,177.51,20.69,175.66Z"/><path class="cls-4" d="M12.7,180.47c1.68,2.06,3.7,4.41,5.42,6.65,1.33,1.73,2.76,3.34,4.18,5,.94,1.1,2.09,1.91,3.09,2.9.24-.31.6-.33.93-.46a25.36,25.36,0,0,1-2.53-2.63c-1.29-1.61-2.73-3.12-4.06-4.72s-2.77-3.08-4.08-4.66a4.34,4.34,0,0,1-.86-1.52c-.14-.41-.37-1.13-.77-1.37-.37.3-.73.83-1.16,1a1.75,1.75,0,0,0,.2.19"/><path class="cls-4" d="M15.86,178.58c-.15.26,1.87,2.1,2.2,2.43,1.87,2,3.57,4.1,5.41,6.1,1.06,1.15,2.18,2.26,3.17,3.44a18.56,18.56,0,0,0,1.92,2.13,2.42,2.42,0,0,1,1.08-1.09c-1-.06-1.78-1.89-2.33-2.56-1.38-1.67-2.67-3.42-3.95-5.16A34,34,0,0,1,20.84,180c-.33-.6-.65-1.15-1-1.73-.2-.35-.26-.85-.63-1.08a12.14,12.14,0,0,1-1.61.68c-.51.22-.88.65-1.46.69"/><path class="cls-4" d="M21.51,175.28c0,.26.46.69.64,1,.47.76.81,1.66,1.25,2.45,1.1,2,2.45,3.81,3.51,5.81a42.4,42.4,0,0,0,4,6.06,2.43,2.43,0,0,1,.64-.33c-1.77-2.34-2.94-5-4.46-7.64-1.61-2.77-3.06-5.74-4.55-8.43a9.74,9.74,0,0,1-1.45,1.25.69.69,0,0,0,.19.23"/><path class="cls-4" d="M24.31,173.45c.35.41.8.65,1.16,1.06.77.89,1.42,1.93,2.14,2.87,1.38,1.8,2.66,3.69,4,5.54.61.86,1.34,1.58,2,2.41.29.37.42.79.68,1.19s.56.59.65.92a3.67,3.67,0,0,1,.86-.57A10.67,10.67,0,0,0,33.83,184c-1.18-1.68-2.49-3.26-3.7-4.95-1.59-2.2-3.23-4.41-4.57-6.62-.29.23-1.26.91-1.26,1.18"/><path class="cls-4" d="M26.73,171.83,28.79,174c1.72,1.79,3,4,4.68,5.77a32.74,32.74,0,0,0,5.37,5.17,2.61,2.61,0,0,1,.46-.85c-2.23-2.76-5-5.22-7.45-7.79-.92-1-1.84-1.91-2.75-2.87-.43-.44-.78-.89-1.16-1.35s-.65-.6-1.33-.38a1.1,1.1,0,0,0,.26.31"/><path class="cls-4" d="M29.15,170.64c.56-.2,2.68,3,3.06,3.49a18,18,0,0,0,4.19,4.39,23.33,23.33,0,0,0,3.7,2.54c.47.2.58.36,1,0s.39-.71.93-.81a7.1,7.1,0,0,0-1.51-.93c-.57-.38-1.17-.78-1.76-1.14-1.43-.87-2.69-2-4.06-2.93a36.59,36.59,0,0,1-5.22-4.37"/><path class="cls-4" d="M46.83,178.56a24.33,24.33,0,0,1-2.31-3,20.76,20.76,0,0,0-2.34-3.43c-.28.28-.67.37-.94.62.56.19.73,1,1,1.4.49.66,1.26,1,1.76,1.7a18.91,18.91,0,0,0,2.51,2.86.79.79,0,0,1,.64-.21c-.21,0-.25-.16-.41-.27"/><path class="cls-4" d="M40.27,173.34a3.53,3.53,0,0,1-.87.74c1.24,1.18,2.36,2.44,3.55,3.69.41.43.88,1.18,1.48,1.21.08,0,.21-.1.29-.1s.3,0,.52,0a4,4,0,0,1,.69.09c-.43-.38-1-.65-1.46-1.07a10.76,10.76,0,0,1-1.36-1.68,21.56,21.56,0,0,1-1.28-1.78c-.23-.38-.78-1.4-1.19-1.43"/><path class="cls-4" d="M39.08,174.91c-.34.09-.59.35-.94.46.79,0,1.5,1.61,2,2.16a10.14,10.14,0,0,0,2,1.71.64.64,0,0,1,.49-.22c-1.3-1.26-2.34-3-3.64-4.23,0,.08,0,.12,0,.19"/><path class="cls-4" d="M37.39,175.68c-.1.08-.31.2-.49.32.39.08,1,1.14,1.26,1.05s-.45-1.41-.69-1.59"/><path class="cls-4" d="M71.35,231c-1.73-.68-3.29-2.21-4.88-3.23s-3.5-2.14-5.11-3.41-3.33-2.27-5-3.32c-.54-.35-1.13-.71-1.66-1.09-.71-.5-1.21-.72-.68-1.53,2.88,2.41,5.77,4.7,8.77,6.94a48.22,48.22,0,0,0,4.61,2.83c.67.38,4,2.1,3.82,2.72"/><path class="cls-4" d="M71.48,228.78c0,.06-.15.1-.08.1a108,108,0,0,0-9.17-7.94,56.45,56.45,0,0,0-6.84-5.18,3,3,0,0,1,.6-.58c2.68,1.93,5.71,3.58,8.38,5.64,1.61,1.25,3.19,2.54,4.82,3.77a16.17,16.17,0,0,1,2.92,2.35c-.59.47-.5,1.19-.89,1.75"/><path class="cls-4" d="M69.85,221.64c-1.81-1.47-3.77-2.8-5.52-4.31-2.12-1.82-4.46-3.58-6.67-5.14,1-1.69,2.26.35,3.21,1a31.25,31.25,0,0,1,4.23,3.68,25.86,25.86,0,0,0,4,3.21c.61.44,1.29.88,1.93,1.33s1.38.7,1.7,1.27c.21.37-.87,1-1.15.92s-.45-.73-.59-.91A7.76,7.76,0,0,0,69.85,221.64Z"/><path class="cls-4" d="M71.56,218.77c-1.9-1.67-3.71-3.47-5.64-5.1a50.43,50.43,0,0,0-5.21-3.93c1-1,2.22-.21,3.27.55a28.75,28.75,0,0,1,3.71,3.38,40.25,40.25,0,0,0,3.41,3.38c.74.61,1.45,1.27,2.24,1.82,1,.69.87.83-.1,1.63C73.29,220.46,71.67,218.87,71.56,218.77Z"/><path class="cls-4" d="M73.3,215.42A26.38,26.38,0,0,1,69,212.29c-1.55-1.58-3.41-3-5-4.39.59,0,1.32-.68,1.85-.57s1.14.83,1.55,1.27c1.22,1.26,2.38,2.67,3.69,3.84,1.09,1,2.4,1.67,3.47,2.58.5.42.89.87,1.41,1.25.29.22.77.26.78.72s-.59.68-1,.5-.52-.73-.76-.94A12.25,12.25,0,0,0,73.3,215.42Z"/><path class="cls-4" d="M77.47,215.59a23.58,23.58,0,0,1-2.61-1.86A32,32,0,0,1,71.67,211,36.84,36.84,0,0,1,67,206a7.31,7.31,0,0,1,1.94-.62c.8,2.17,2.9,4.08,4.53,5.78a18.72,18.72,0,0,0,2.34,1.9c.63.47,1.84,1.11,2.23,1.81-.32.26-.38.6-.69.85a1.26,1.26,0,0,1-.35-.34"/><path class="cls-4" d="M78.92,213.68a58.72,58.72,0,0,1-4.67-4.33,61,61,0,0,1-4.37-4.59A2,2,0,0,0,71,204.2a41.51,41.51,0,0,1,4.74,5.1,21.92,21.92,0,0,0,2.51,2.42,8.78,8.78,0,0,1,1.13,1c.3.62-.41.65-.56,1.23"/><path class="cls-4" d="M80.82,211.51c-.6,0-1.75-.9-2.3-1.26-1.1-.72-2.07-1.6-3.11-2.39a24,24,0,0,1-4.11-3.77,7.39,7.39,0,0,1,.7-.67c1.55,1.37,3,3,4.48,4.33a27.57,27.57,0,0,0,2.42,1.8,19.29,19.29,0,0,1,2.34,1.53c-.07.22-.13.07-.24.08"/><path class="cls-4" d="M82.8,209.44c-1.35-1.23-3-2.67-4.57-3.87a30.23,30.23,0,0,0-2.73-1.9,6.66,6.66,0,0,1-2-1.35c.38,0,.6-.31,1-.43,1.55,1.21,3.09,2.48,4.62,3.86.46.41,4.2,3.17,3.68,3.69"/><path class="cls-4" d="M84.58,208.24c-1.91-.65-3.56-2.73-5.15-4-.69-.51-1.45-.87-2.14-1.31-.48-.3-1.42-.75-1.71-1.28.35-.09.58-.42.87-.65a55.41,55.41,0,0,0,4.37,3.85c.73.66,1.41,1.31,2.14,2,.43.38,1.4.89,1.54,1.28"/><path class="cls-4" d="M86,206.51c-1.89-.83-3.48-2.48-5.22-3.64-1.14-.75-2.89-1.14-3.71-2.28a1.7,1.7,0,0,1,.51-.49,26.84,26.84,0,0,1,4.78,3.34c.68.55,1.39,1.09,2.09,1.62.52.41,1.45,1.33,2.12,1.39a.22.22,0,0,1-.13.15"/><path class="cls-2" d="M192.16,209.6c-.44,0-.9-.52-1.44-.54a2.41,2.41,0,0,0-1.09.32c-.76.38-1.41,1.09-2.34,1.09.11.17.42.12.62.16a5.12,5.12,0,0,1-1.61.92,1.06,1.06,0,0,0,.56.07c-.12.18-.33.21-.45.4.55-.05,1.12.51,1.66.66a3,3,0,0,0,1.83-.11,5.1,5.1,0,0,0,2.29-2.82,5.53,5.53,0,0,1-5.06,2.45,4,4,0,0,0,1.14-.72,9.06,9.06,0,0,1,1.14-.81c.83-.44,1.75-.62,2.61-1l-.07.14"/><path class="cls-2" d="M165.31,217.56c.33.29.43.75.87,1,1.84.94,3-1.63,2.91-3a4,4,0,0,1,1-3.22,2.4,2.4,0,0,1,2.39-1.06c3.08.11,5.07,3.27,4.86,6.24a3.54,3.54,0,0,1-.63,2.35c-.39.4-1.19,1.06-1.73.69a1.73,1.73,0,0,1,0-.51c-.34,1.46,1.56,1.7,2.35.81,1.07-1.21.84-3,.6-4.5a8.16,8.16,0,0,0-1.84-4.25c-1-1.28-.81-4.12,1.16-4.36s4-.18,5.86-.9c1.06-.41,1.87-1.24,3-1.61a37,37,0,0,1,4.42-1.07c.7-.14,1.42-.38,1.27-1.31s-2.7-1.66-3.48-1.94a16,16,0,0,0-5.09-1.08,8.41,8.41,0,0,0-2.42.54,9.87,9.87,0,0,1-1.93.23,15.09,15.09,0,0,0-5,2.09c-1.79,1-3.37,2.41-5.07,3.53a11.45,11.45,0,0,0-4.38,4.38c-.73,1.55-1.54,3.74-1.27,5.46.05.33.13,1,.42,1.17s1.09.07,1.51.2A.89.89,0,0,1,165.31,217.56Z"/><path class="cls-4" d="M287.45,158.69s0-.05,0-.09-.09-.36-.13-.54a78.18,78.18,0,0,0-2.49-9.11,31.94,31.94,0,0,0-4.76-8.31,50.1,50.1,0,0,0-10.49-9.92c1.78-1.55,3.63-3,5.45-4.29,4.26,4.18,7.18,9.61,9.48,15.06.59,1.41,1.18,2.82,1.67,4.26a24.79,24.79,0,0,1,1,4.24c.4,2.73.58,5.55,1.56,8.14a11.6,11.6,0,0,0-1.25.68A.53.53,0,0,1,287.45,158.69Z"/><path class="cls-1" d="M277.94,120.3c-.08,0,.07-.28.09-.38s.08-.43.11-.66a13.19,13.19,0,0,0,.13-1.41,9.32,9.32,0,0,0-.59-3.84,3.28,3.28,0,0,0-2.61-2.17,4.63,4.63,0,0,0-3.17,1.58,4.06,4.06,0,0,0-1.41,2.16c-.13.75.18,1.09.75,1.57.37.31.75.61,1.13.9s1.13.68,1.68,1,1.23.87,1.85,1.3a1.22,1.22,0,0,0,1,.28,3.62,3.62,0,0,0,.93,0c.42-.13.4-1,.44-1.38"/><path class="cls-1" d="M337,69.32c.21,4.39.26,8.79.21,13.19,0,3.5.4,7.15.23,10.59-.28,5.89-2.65,10.62,4.37,13.62,4.29,1.83,12,.79,15.17-2.93,4-4.79,1.63-11.51,1.09-17-.33-3.35-.5-6.86-1.14-10.2-.5-2.66-1.69-5.08-2-7.78a76.53,76.53,0,0,0-1.37-8,62.57,62.57,0,0,0-2.36-7.45c-1-2.59-2.51-4.89-2.16-7.77.69-5.76,3.2-10.65,1.93-16.73a28.45,28.45,0,0,0-3.65-8.41c-1.47-2.44-4.6-5.2-5.14-8.06-.47-2.42,2.11-4.16,2.19-6.54A6,6,0,0,0,340.52.25c-5.51-1.69-9.37,5.64-15,5.31-1.72-.11-4.17-2.66-6-1.58-3,1.73,3.22,2.11,2.51,4.07-1.57-.24-3,.47-2.67,2.26,1.39.17,2.86-.15,3.91.93-.76,1.09-2.82,2-2.72,3.48a5.15,5.15,0,0,0,4-1,33.32,33.32,0,0,0-.45,4.17c3.06.52,3.73-2.32,6.42-2.5,2.43-.16,3.08,4,3.49,6.24,1,5.17,2.16,11.69,1.1,17.16-.47,2.44-2.87,4.25-3.54,6.65-.75,2.68.34,5.51,1.77,7.61,1.78,2.62,3.26,3.83,3.35,7.24C336.81,63.33,336.86,66.34,337,69.32Z"/><path class="cls-3" d="M355.11,64c.26,1.09.53,2.17.83,3.25a71.26,71.26,0,0,1,1.55,9.79,66.81,66.81,0,0,1,.67,9.35,17.09,17.09,0,0,0-.44,2.54c-5.92-1.15-9.94-5.45-14.69-9a22.51,22.51,0,0,0-5.22-3.09c-1.56-.61-2.47-1.26-2.41-2.93a75,75,0,0,0-.3-10.82c-.05-.41-.09-.83-.14-1.24C341.34,59.3,349.87,60.28,355.11,64Z"/><path class="cls-4" d="M344.24,60.48c.62,0,1.23.09,1.85.18.47,2.59.86,5.2,1.1,7.84A82.39,82.39,0,0,1,347.67,79c0,.84-.06,1.67-.11,2.5,0,.26,0,1.21,0,1.61a.35.35,0,0,0-.19.25c-1-.8-2-1.61-3-2.41,1.32-4.87.66-10.36.31-15.27C344.5,64,344.39,62.22,344.24,60.48Z"/><path class="cls-1" d="M346.83,123.1c-.4-1-.72-2-.95-2.56a53.16,53.16,0,0,1-2.57-7.15,31.29,31.29,0,0,0-3.68-8.32c-3.71-6.72-9.06-10.81-14.68-15.86-3.81-3.42-7.89-6.74-11.72-10.28a44.25,44.25,0,0,0-5.82-4.58c-1.28-.84-2.74-1.37-4-2.29-.68-.52-2.05-1.48-1.5-2.54.68-1.3,3.22-1.71,4.44-2.19,2-.77,3.64-3,4.92-4.6.05-.06.49-.67.52-.66a94.14,94.14,0,0,1,9.51,4.08c4.83,2.4,9.58,4.51,14.13,7.35,2.55,1.59,5.27,2.89,7.81,4.5,2.29,1.44,4.25,3.24,6.68,4.45,4.8,2.4,8.79,6,10.45,11.27,2,6.26,3,12.58.73,19-1.24,3.6-6.64,15.91-12.57,12.92A5.17,5.17,0,0,1,346.83,123.1Z"/><path class="cls-1" d="M303,62a26.19,26.19,0,0,1,2.48-2.46A10.53,10.53,0,0,1,308,57a12.5,12.5,0,0,1,6.29-1.38c2,0,4.16.42,6-.23,1-.36,2.09-.56,3.13-1a27.31,27.31,0,0,1,3.4-1.31,39.31,39.31,0,0,1,4.87-.29A67.67,67.67,0,0,0,341,50.9c2.93-.72,5.62-1.77,8.55-2.41s6-2.62,5.23-5.92a6.27,6.27,0,0,0-1.54-3.11c-.92-1-2.73-1.29-2.1-2.8,1.43-3.5,5.24,4,6.6,1.18-.56-.5-4.48-3.41-1.47-3.6,1.31-.08,3.24,3.84,4.35,2-.82-1.3-2.28-3.35-.6-4.63a.87.87,0,0,1,.52.32c1.25.53.36,2.74,1.85,2.75s1.11-2.7,1.91-3.32c3.14-2.39,2.64,4.49,2.27,5.87-.53,1.92-1.6,4.43-1.08,6.45.36,1.41,1.67,2.74,2.29,4.08,1.24,2.7,2.31,6.7-.7,8.67-2.65,1.74-4.93-.89-7.56-.08-2.19.67-2.57,2.14-4.05,3.54a32.33,32.33,0,0,1-5.26,3.51c-2.32,1.46-5.47,1.85-8.14,2.54-2.87.74-6.23,2.15-9.21,2.26s-6.16-.31-9.22-.15a15.28,15.28,0,0,1-3.44.17c-1.57-.24-3.08-.71-4.67-.8-2.57-.16-3.57.33-5.65,1.77-1.79,1.24-4.76,5.64-7.12,3.17C300.1,69.54,301,64.91,303,62Z"/><path class="cls-2" d="M279.73,95.73a4.77,4.77,0,0,1,1.07-.34,14.4,14.4,0,0,0,2.25-.43c1-.34,1.91-.79,2.91-1a42.06,42.06,0,0,1,7.24-1c5.81-.39,11.67-.31,17.42-.86a48.87,48.87,0,0,1,13.22.75c7.51,1.35,14.08,4.27,20.85,7.62,2.65,1.3,5.23,2.89,7.93,4,1.41.61,3.07.72,4.37,1.54,3.11,2,4.56,6.47,4.93,9.9.81,7.64-2.29,15.57-5.85,22.18a33,33,0,0,1-5.23,7.44c-2.42,2.51-3.82,1.9-5.79-.73-1.59-2.12-3.42-3-5.55-4.61-4.59-3.45-8.25-8-13-11.29a126.22,126.22,0,0,0-11-7.19,52.1,52.1,0,0,0-5.31-2.33,20.82,20.82,0,0,0-9.93-1.6,19.9,19.9,0,0,0-5.4.53c-1.45.46-3,.49-4.45,1-.89.31-1.85.6-2.71,1-1.39.64-3,1.13-4.38,1.83a46,46,0,0,0-7.71,5.36c.58-.45.89-3.16,1.09-3.9a32.76,32.76,0,0,0,.88-4c.29-2.1.48-6.34-2-7.47-1.87-.85-4.13,2.15-5.14,3.39-1.28,1.57-2.83,3.73-2.88,5.84a4.2,4.2,0,0,0-.37-.89c-.34-1-.47-2-.81-3-.23-.62-.57-1.18-.81-1.79a4.17,4.17,0,0,1-.16-2.13,14.57,14.57,0,0,1,.76-3.21c.18-.48.24-1,.46-1.51s.32-.69.46-1.06a9.17,9.17,0,0,1,.6-1.48c.19-.33.39-.6.55-1s.48-.81.74-1.24c.16-.25.3-.52.46-.76s.53-.56.77-.86a5.51,5.51,0,0,1,.6-.68,16.85,16.85,0,0,1,1.65-1.41,7.78,7.78,0,0,0,1.19-.85,14.55,14.55,0,0,1,1.42-1.06l.27-.19c.88-.61,1.83-1.11,2.75-1.67A13.8,13.8,0,0,1,279.73,95.73Z"/><path class="cls-4" d="M298.36,104.87a9.6,9.6,0,0,0-3.88-.63,10.94,10.94,0,0,0-4,.52,5.28,5.28,0,0,0-2.52,5c.33,2.78,2.6,4.39,4.44,6.28.42.45.79,1,1.46.84a11,11,0,0,1,1.86-.38c-2.08-1.63-4.42-3.73-3.58-6.71a5.13,5.13,0,0,1,3.5-3.61,5,5,0,0,1,2.17-.49c.57,0,1.44.46,2,.32-.15-.86-1.2-1-1.83-1.06"/><path class="cls-4" d="M276.85,126.65a8.57,8.57,0,0,1,.84-2.26,15.33,15.33,0,0,0,1.05-3.24,26.7,26.7,0,0,0,.85-6.62,16.27,16.27,0,0,1,0-3.69,3,3,0,0,1,.51-1.25c.24-.36,1-.8,1-1.2-.8.2-1.55.57-2.34.74a15,15,0,0,0-2.2.61,12.89,12.89,0,0,0-4.35,2.46,15.34,15.34,0,0,0-3.53,3.89c-.64,1.2-1.64,3-1.5,4.4,0,.36.25.8.27,1.14a7.09,7.09,0,0,1,.93-2.36,13.07,13.07,0,0,1,1.33-2.27,18.47,18.47,0,0,1,1.89-2.38,9.41,9.41,0,0,1,2.22-1.47,2.69,2.69,0,0,1,2.29-.33,3.2,3.2,0,0,1,1.4,1.91c.74,2,.12,4.45-.45,6.47a13.49,13.49,0,0,0-.61,3.56,6.24,6.24,0,0,1-.29,2.62,7.41,7.41,0,0,0,1.27-2"/><path class="cls-1" d="M297.06,116.25c.67.16,1.36.27,2.05.38a68.9,68.9,0,0,1,9.73,2.23,43.11,43.11,0,0,0,4.59,1.2c3,.64,5.55,2.08,8.71,2.39,2.24.21,5,.89,7.23.54a2.41,2.41,0,0,0,2.05-1.39,5.58,5.58,0,0,0-.07-2.63c-.12-1-.33-1.92-.43-2.89-.24-2.15-.61-4.29-.66-6.45a53.72,53.72,0,0,0-.89-9.56A54.9,54.9,0,0,0,328,94.7c-.76-2.39-2.06-4.53-3-6.84s-2.23-4.34-2.79-6.78c-.24-1.06-.59-2.09-.82-3.14-.16-.76-.16-1.57-.29-2.32a10.92,10.92,0,0,0-1.2-3.91,6.13,6.13,0,0,0-1.59-1.81c-.43-.31-1.42-.78-2-.51-1,.45-.12,2.3.17,2.92-1.17-.89-2.72-2.06-4.18-2.26-1.21-.17-.19,1.07.15,1.49A10.51,10.51,0,0,1,314,73.48c-.42,0-.79-.45-1.22-.56a11.25,11.25,0,0,0-1.61-.34c-.71-.09-2.1-.1-2.59.5-.88,1.06,4,2.59,4.54,3.15-1.55-.52-3-1.31-4.68-1-.64.14-1,.7-.55,1.25s1.3.73,2,1a12.85,12.85,0,0,1,3,.85,28.61,28.61,0,0,1,2.49,1.6,9.7,9.7,0,0,1,2.89,3.75,4.47,4.47,0,0,1,.44,1.74,8.59,8.59,0,0,0,.6,2.22c3.08,9,.17,19.12,3.14,28.1.43-5.67-7.11-7.33-11.1-8.06-3.3-.6-6.71-.08-10-.51-2.25-.29-4.91-1.62-7.2-1.09-5.41,1.25-3.55,6-.38,8.65A7.73,7.73,0,0,0,297.06,116.25Z"/><path class="cls-3" d="M330.46,83.13c2.55-3.17,6-6.33,10.27-6.52h0c1.68.94,3.35,1.89,5,2.8,5,2.75,11,5.9,14.73,10.44,4.88,5.93,5.55,14,4.13,21.2a20.32,20.32,0,0,1-7.58,11.83c-2.21,1.63-4.58,3.06-6.9,4.51-1.23.78-2.82,2.32-4.42,2.65a41.84,41.84,0,0,0,.48-4.82c-.15-3.22-1.87-6.42-3.05-9.38-1.65-4.16-3.49-8.24-6.43-11.65-1.76-2-3.68-3.69-5.3-5.83-.6-.79-1.09-1.66-1.7-2.38a25,25,0,0,0-4.27-3.71A28.79,28.79,0,0,1,330.46,83.13Z"/><path class="cls-4" d="M335.7,78.46a74.89,74.89,0,0,1,5.62,5.36c4.16,4.43,8.24,9.76,9.3,15.9,1.15,6.62-1.83,12.4-6.58,16.89,0,0,0,0,0,0a3.27,3.27,0,0,0-.35.3c-.16-.38-.32-.75-.47-1.13a.13.13,0,0,0,0-.07l.15-.14,0-.06a.32.32,0,0,0,.16-.13c1.32-2.34,3.1-4.17,3.85-6.84a16.34,16.34,0,0,0,.44-7c-.85-5.4-3.72-10.31-7.09-14.54a71.07,71.07,0,0,0-7-7.52A13.87,13.87,0,0,1,335.7,78.46Z"/><path class="cls-1" d="M320.66,93.9a1.22,1.22,0,0,1,.13.53,1.35,1.35,0,0,1,0,.33l-.09.27a.91.91,0,0,1-.13.26c0,.06,0,.12-.1.16s-.29,0-.4-.1a.8.8,0,0,1-.22-.26c-.05-.09-.09-.19-.13-.28a3.73,3.73,0,0,0-.37-.81c0-.06-.06-.14-.11-.18s-.07,0-.11-.09a.71.71,0,0,0-.15-.15c-.14-.1-.34-.28-.5-.13a.41.41,0,0,0-.16.29,1.26,1.26,0,0,0,0,.27s0,.08,0,.12a1.47,1.47,0,0,0,.14.45,6.24,6.24,0,0,1,.3.86,2.46,2.46,0,0,1,.07.29,1.25,1.25,0,0,1,.07.26c0,.14,0,.28,0,.41a5.65,5.65,0,0,1-.06,1c0,.19-.05.33-.24.43-.47.25-.68-.48-.73-.81-.09-.58-.22-1.16-.34-1.74a4.07,4.07,0,0,0-.13-.5,3.68,3.68,0,0,0-.21-.45,2.11,2.11,0,0,0-.42-.55,1.3,1.3,0,0,0-.57-.34,1,1,0,0,0-.55.06c-.27.1-.33.48-.35.74a1.94,1.94,0,0,0,.11.68c0,.18.06.37.1.55l.09.44c0,.13.06.26.08.39s.06.18.07.27.05.46.06.69,0,.18,0,.28a2.56,2.56,0,0,1,.05.27.91.91,0,0,1-.15.58.69.69,0,0,1-.24.27.84.84,0,0,1-.27.13c-.19,0-.27-.13-.32-.27a6.49,6.49,0,0,1-.19-.76c0-.13,0-.26-.09-.39a4,4,0,0,1-.11-.47c0-.33,0-.65-.08-1s-.1-.52-.14-.79a1.3,1.3,0,0,0-.07-.33.87.87,0,0,0-.1-.19c-.24-.53-.31-.69-.9-.54-.23,0-.45,0-.67,0a2.14,2.14,0,0,0-.8.32,3,3,0,0,1-.41.19,1.88,1.88,0,0,0-.44.36c-.27.24-.39.33-.75.26s-.64,0-.78-.39a.39.39,0,0,1,0-.44,4.29,4.29,0,0,0,.19-.5,2.42,2.42,0,0,1,.84-.93c.23-.18.72-.44.24-.64a4.26,4.26,0,0,0-1.38-.11c-.18,0-.33,0-.5,0a2.62,2.62,0,0,0-.28,0,3.47,3.47,0,0,0-.72,0c-.69.07-1.37.15-2.06.19-.35,0-.7,0-1.06.09s-.7,0-1.05.05a6.85,6.85,0,0,1-.78.07c-.19,0-.36,0-.55,0l-.74,0c-.55,0-1.11.08-1.65.15s-.85.07-1.27.13a3.37,3.37,0,0,1-.55,0c-.17,0-.34,0-.51,0s-.15,0-.22,0a1.31,1.31,0,0,1-.28,0c-.07,0-.22,0-.27,0s.06-.18.12-.22a2.14,2.14,0,0,0,.19-.13s.13,0,.19-.07l.27-.13c.42-.19.82-.42,1.24-.61s.56-.3.84-.44.84-.36,1.27-.52a1.28,1.28,0,0,0,.29-.13,1.83,1.83,0,0,0,.16-.13,1.59,1.59,0,0,1,.26-.14c.1-.05.19-.11.29-.15.52-.22,1-.39,1.58-.59.23-.09.47-.16.71-.24s.45-.11.67-.18.47-.12.71-.17.22,0,.33,0,.2,0,.31,0,.43-.06.64-.09.52,0,.78,0a5.31,5.31,0,0,1,.69,0h.37c.31,0,.62,0,.93.07s.55.06.82.09.62.07.93.12.68.14,1,.2.75.1,1.13.13,1,.09,1.56.15a11.26,11.26,0,0,1,1.72.3c.29.09.56.21.84.32s.36.2.55.29a2.68,2.68,0,0,1,.47.26,1.92,1.92,0,0,0,.29.14c.15.08.28.18.42.27a2.73,2.73,0,0,1,.43.33c.06,0,.14.09.19.14a1.1,1.1,0,0,1,.09.14,1.23,1.23,0,0,1,.26.42c0,.13.08.27.14.4l.1.21a.92.92,0,0,1,.09.28,1.63,1.63,0,0,1,0,.44A.67.67,0,0,0,320.66,93.9Z"/><path class="cls-1" d="M270.56,114.28a7.36,7.36,0,0,1,1.72.62c.3.16.65.24.94.42s.53.36.78.54a12.62,12.62,0,0,1,1.68,1.67,16.6,16.6,0,0,1,2.71,4,12.14,12.14,0,0,1,1.21,3,13.18,13.18,0,0,1,.06,5.16,4.48,4.48,0,0,0-.27,2c.14.56.21,1.17.31,1.75a18.12,18.12,0,0,1,.21,2.44,6.56,6.56,0,0,1-.47,2.91c-.17.39-.36.8-.82.87a1,1,0,0,1-1-.36c-.08.22-.13.46-.2.68-.26.91-.51,1.81-.76,2.72a15.49,15.49,0,0,1-.54,1.88,11.57,11.57,0,0,1-3.53,4.5c-1.8,1.37-4,3.14-6.3,3.5a24.59,24.59,0,0,1-4.54,0c-2.24,0-3.45-.73-5.41-1.73a10.79,10.79,0,0,1-5.3-7.33,34.34,34.34,0,0,1,1.45-12.94c-1.31-.21-.9-1.44-.41-2.26a11.48,11.48,0,0,1,1-1.29c.45-.54.69-1.18,1.19-1.69a16.33,16.33,0,0,1,1.66-1.77,4.22,4.22,0,0,0,.65-.41,8,8,0,0,0,.94-1.92,13.66,13.66,0,0,1,4.23-5.6,9.37,9.37,0,0,1,3.36-1.26A22.57,22.57,0,0,1,268,114a8.24,8.24,0,0,1,2,.16Z"/><path class="cls-3" d="M267.82,117.1a5.79,5.79,0,0,1,2.19.15,12.48,12.48,0,0,1,1.59.56,4.51,4.51,0,0,1,2.22,1.62,6.13,6.13,0,0,1,.66,1.27,2.72,2.72,0,0,0,.11.34.4.4,0,0,1,.06.3c-.09,0-.13-.06-.2-.1L274,121a15.31,15.31,0,0,1-1.41-.83c-.37-.23-.72-.5-1.08-.74l-.69-.44c-.12-.08-.28-.13-.41-.22a6.9,6.9,0,0,0-.89-.48,9,9,0,0,0-1.72-.74.8.8,0,0,0-.43,0,.61.61,0,0,1,.14-.33C267.61,117.13,267.7,117.12,267.82,117.1Z"/><path class="cls-2" d="M274.69,129.94a2.72,2.72,0,0,0-.82-1.83,3.43,3.43,0,0,0-1.67-1,4.27,4.27,0,0,0-3.56.44c.07,0,.3-.2.17-.29.27.18.49-.61.69-.68,0,.12,0,.27.07.38.22-.07.33-.89.55-.83s.16.77.16.91c.28-.13.24-.7.43-.92.15.08.08.53.1.7.13-.12.29-.71.52-.69s.22.63.2.79c.11-.13.24-.67.48-.56s.12.71.11.89c.09-.12.29-.81.46-.76s.12.72.12.87a1.31,1.31,0,0,0,.32-.55c.35,0,.37.67.41.88.1-.13.17-.41.32-.46a1.48,1.48,0,0,1,.12.86c.21-.1.31-.69.4-.92.06.38.15.79.2,1.19s.07.56.11.85a3.7,3.7,0,0,0,.52-1c-.15.17-.08.68-.13.92s0,.73-.17,1c0-.19-.08-.38-.11-.57"/><path class="cls-2" d="M264.35,125.85s.31-.46.38-.63a1.59,1.59,0,0,0,.1-.75,1.35,1.35,0,0,1-.6.67,8.22,8.22,0,0,0,.07-1.31c-.23-.06-.45.58-.64.74,0-.3.24-.69,0-1s-.07-.11-.22,0-.17.18-.26.25c0-.19,0-.82-.16-.9s-.48.44-.55.57a1.18,1.18,0,0,0-.07-.81c-.22,0-.36.34-.51.48-.05-.2,0-.79-.29-.84s-.41.45-.52.6c0-.19,0-.38,0-.56-.23,0-.37.43-.48.6,0-.16.11-.65-.19-.58s-.32.69-.57.82c.06-.59-.3,0-.42.23s-.39.45-.37.71c.18-.12.36-.29.55-.41a2.31,2.31,0,0,1,.9-.2,3.83,3.83,0,0,1,1.47.08,3.5,3.5,0,0,1,1.44,1.23c.3.41.39.9.66,1.31,0,0,0,0-.05,0"/><path class="cls-2" d="M267.74,129c-.28-.17.77-2.23,1-2.58.38-.59.87-1.64,1.57-1.74.4-.06.69.2,1-.08a.93.93,0,0,0,.22-1c-.21-.51-.37-.16-.68-.29a.58.58,0,0,1-.28-.83c.13-.27.5-.34.6-.7a.79.79,0,0,0-.34-1c-.86-.34-.71,1.14-1.38-.06a1.93,1.93,0,0,0-2-1.14c-.67.15-1.47,1.11-1,1.81.72,1,1.85-.41.67-.56,0-.43.52-.6.9-.5s.57.44.7.84,0,.81.42.91.58-.5,1.06-.32c.12.67-.48.4-.67.87s.29.56.49.85.36.56-.13.65-.72-.06-1.1.5-1.91,4.81-1.17,5a1.09,1.09,0,0,0,0-.25"/><path class="cls-4" d="M278.18,140.46c-.57.78-.29,1.82-.52,2.76a13.36,13.36,0,0,1-1.38,3.16,18.81,18.81,0,0,1-3.82,5.17c-3.59,3.1-6.62,3.49-11.18,3-2.2-.22-4.58-.49-6.46-1.65-2.23-1.36-2.68-4-3.77-6.21a11.15,11.15,0,0,1-1.43-3.21,31.94,31.94,0,0,1,.35-4,14.83,14.83,0,0,1,.94-5.82c.66-1.54,2-2.51,2.63-4-.28,2.37,1,4.16.9,6.37,0,1-.78,2.33,1.1,1.85a3.79,3.79,0,0,0,1.76-2c1,.77,1.26,1.94,1.88,3a3.84,3.84,0,0,0,.77,1.21c.16.12.28.5.45.58.39.16.64-.4.79-.34,2.64,1,3.68,4.76,6.88,2.73a15.52,15.52,0,0,1,2.72-1.78c1.46-.57,2,0,3.5,0,2.76.08,4.31-2.78,4.08-5.39-.14,1.38-.4,2.62-.64,3.94s-1.05,2.81-1.18,4.21"/><path class="cls-1" d="M303.1,164c.64.32,1.38.58,2,1a17.07,17.07,0,0,1,1.61,1.52,39.83,39.83,0,0,1,3.68,3c1.29,1.31,2.83,2.35,4,3.76,4.32,5.15,10.88,8.84,8.77,16.77-1.16,4.32-5.51,6.67-8.75,9.57-7.62,6.79-15.41,10.64-25.17,14-14.12,4.84-29.42,6.81-43.56,11.88-5.08,1.83-10.06,3.49-14.21,7-3.4,2.87-11.29,10.21-6.11,1.09-2.49,0-4.52,2.92-7.13,1.9C220,231,228.5,230.9,229,227.06c-1.89,0-10.2,2.57-5.37-1.8,1.63-1.48,7.19-1.44,9.27-1.51,2.69-3.27-2.59-3.14-2.36-5.72.35-3.88,4.09.26,5.32.84,5.24,2.51,10.48-.71,15.3-3,6.89-3.32,13.55-6.39,20.45-9.65,9.68-4.56,23.4-6.82,30.56-15.35.71-.83,1.83-1.41,2.31-2.42,1.18-2.5-2.13-5.07-3.42-6.72-.75-1-1.92-1.68-2.68-2.58s-2-1.55-2.32-2.7a6.46,6.46,0,0,1,.07-2.36,9.28,9.28,0,0,1,.64-2.06c.79-1.56,1.54-3.13,2.31-4.7a8.61,8.61,0,0,1,1-1.87c.44-.49,1.19-.55,1.8-.79,1-.39,3.21-1,4.18-.3"/><path class="cls-4" d="M226.78,195.09c-.05.09-.2.12-.29.16s-.39.23-.6.31a11.39,11.39,0,0,1-1.43.47c-.22,0-.43.14-.65.18a3.82,3.82,0,0,1-.57.11,3.68,3.68,0,0,0-.57.15c0,.06,0,.09.06.14a.17.17,0,0,1,0,.1.33.33,0,0,0,0,.13,1.49,1.49,0,0,1,0,.21,1.32,1.32,0,0,0,.07.3,1.68,1.68,0,0,0,.3.56,3.73,3.73,0,0,0,.3.26,1.14,1.14,0,0,0,.3.23,1.76,1.76,0,0,0,1,.27,2.51,2.51,0,0,0,.55-.06,3,3,0,0,0,.44-.21.53.53,0,0,0,.22-.27,1.52,1.52,0,0,0,.09-.28s0-.08,0-.11,0-.08.05-.13a6.11,6.11,0,0,1,.31-1c0-.08,0-.16.08-.24a2.56,2.56,0,0,1,.11-.24,2.32,2.32,0,0,1,.29-.51c0-.05.05-.12.09-.17a1.7,1.7,0,0,1,.19-.19c.08-.09.19-.17.21-.31s-.07,0-.11,0"/><path class="cls-2" d="M227.32,194.66a1.33,1.33,0,0,0-.12.06l-.18,0a3.47,3.47,0,0,0-.46.13c-.15.05-.31.07-.45.13a6,6,0,0,1-.58.25,3.22,3.22,0,0,1-.51.21,1.89,1.89,0,0,0-.21.09l-.45.15-.45.16c-.1,0-.17.08-.26.11a2,2,0,0,1-.33.08c-.14,0-.27.11-.4.14a1.28,1.28,0,0,1-.34,0l-.11,0s-.07,0-.11,0l-.1,0a.21.21,0,0,1-.08,0s-.05,0-.09,0,0-.07-.08-.07.34.3.42.31a1.27,1.27,0,0,0,.28,0l.15,0s.07,0,.12,0-.15.14-.21.17a2.64,2.64,0,0,1-.29.15c-.1,0-.22,0-.32.08a.67.67,0,0,0-.29.1c.21.2.43,0,.64-.06a1.08,1.08,0,0,1,.27-.1l.27-.08c.19-.06.34-.19.53-.24s.17-.06.25-.07.22-.05.33-.07c.27-.07.52-.17.78-.24a2.62,2.62,0,0,0,.39-.15l.23-.13c.09-.05.19-.08.27-.13a4.48,4.48,0,0,1,.62-.31.44.44,0,0,0,.15-.08.93.93,0,0,1,.2-.1s.21-.08.22-.14a1.43,1.43,0,0,1-.16.3,1.57,1.57,0,0,0-.18.31,2.46,2.46,0,0,0-.14.38.75.75,0,0,0-.06.13.3.3,0,0,1,0,.12c-.07.15-.08.31-.14.46s-.16.31-.23.47a3.78,3.78,0,0,0-.17.35c-.08.14-.1.28-.18.43a1.36,1.36,0,0,1-.33.54.48.48,0,0,1-.26.07l-.15,0-.22,0a2,2,0,0,1-.6-.25.57.57,0,0,1-.22-.19,1.6,1.6,0,0,1-.25-.27,2.39,2.39,0,0,0,.21.34.89.89,0,0,0,.23.28,1,1,0,0,0,.3.23l.44.21c.22.12.56,0,.77-.15a1.52,1.52,0,0,0,.65-.72,6.08,6.08,0,0,0,.43-.94c.05-.18.12-.35.17-.53a1.67,1.67,0,0,0,.08-.3,1,1,0,0,1,0-.24c0-.11,0-.23,0-.35s.08-.24.1-.36,0-.09,0-.14a.55.55,0,0,1,.06-.18.4.4,0,0,1,.19-.15l.08-.08s.1,0,.12-.07"/><path class="cls-2" d="M223.12,196.64a1.31,1.31,0,0,0,0,.76,1.78,1.78,0,0,0,.44.75,3.91,3.91,0,0,0,.67.36,1.19,1.19,0,0,0,.73.2.76.76,0,0,0,.46-1.14,2.78,2.78,0,0,0-.75-.78,1.64,1.64,0,0,0-.51-.22.44.44,0,0,0-.3,0c-.08,0-.08.13-.16.16"/><path class="cls-1" d="M391.88,222.06a11.62,11.62,0,0,0-1.3-.57c-2.08-.78-4.74-1.32-6.59.23a8.56,8.56,0,0,0-2.2,2.56,8.09,8.09,0,0,1-1.45,2.48,13.77,13.77,0,0,1-4.56,2.2,32.76,32.76,0,0,1-6.6,1.43c-4.24.58-8.45,0-12.64-.68A57.66,57.66,0,0,0,341,229c-3.67.43-6.94,1.94-10.2,3.54a24.61,24.61,0,0,1-3.91,1.62,17.55,17.55,0,0,1-4,1.1c-1.47.06-3.29-1-2.54-2.53,1-2.12,3.22-3.38,5.32-4.23a63.16,63.16,0,0,1,6.33-2.32c4.25-1.21,9.14-1.49,12.86-4.1,7.15-5,2.84-14.11-1.64-19.36-1.88-2.2-5.13-6.29-8.22-6-3.45.29-9.16,6.16-11.69,8.36-3.16,2.73-6,5.79-9,8.68s-5.79,6.15-8.83,9.11a115.46,115.46,0,0,0-12.49,13.67c-2.61,3.53-6.2,7.62-5.14,12.25.6,2.58,2.08,4.67,3.44,6.93,1.48,2.47,4.56,2.92,7.3,3.33a28.55,28.55,0,0,0,11.83-.88c4.2-1.08,8.36-2.47,12.51-3.72s8.15-3,12.3-4.35c3.55-1.18,7.09-2.18,10.73-3.07,1.31-.32,2.6-.58,3.9-.94a22,22,0,0,1,4.58-.5,56.54,56.54,0,0,0,6.19-1c4.24-.75,8.46-1.59,12.65-2.56A111.85,111.85,0,0,1,395,239.57a21.66,21.66,0,0,0,4.29-.89,17.17,17.17,0,0,1,4.11-.48,8.12,8.12,0,0,1,3.11.31c1.52.61,3.3,1.75,4.91,1.71,2.37-.06.34-2.7-.24-3.59s-.24-1.77.93-1.43a15,15,0,0,1,2.61,1.5c.86.45,1.92.54,2.33-.53s-.64-2.5-1.56-3.16-2.75-1.14-3-2.14c-.35-1.32,1.14-1.41,2-1.33s3.05.14,3.45-1-1.53-1.82-2.27-2c-.9-.18-2.71.34-3.23-.72-.61-1.27,1.62-1.6,2.38-2,1.82-.83,3.39-2.58,2.9-4.76s-4.06-4.94-6.13-3.14c-1.33,1.16-1.52,3.28-3,4.27-1,.69-2.26.38-3.43.42-1.51.07-2.85,1.11-4.21,1.71a11.23,11.23,0,0,1-7.81.19Z"/><path class="cls-1" d="M302.84,218.82c-1.82,1.28-3.58,2.63-5.25,4.06a25.74,25.74,0,0,1-3.47,2.48c-2.71,1.67-4.81,4.34-7.47,6.11-3.51,2.34-7.76,3.31-11.21,5.69-3.86,2.66-6.06,6.41-8.91,9.93a33.56,33.56,0,0,1-8.65,7.27c-6.5,4.14-12.92,8.58-19.29,12.88a71.47,71.47,0,0,1-7,4.27c-2,1-4.2,2.15-6.44,2.23a8.46,8.46,0,0,0-4.67,1.59c-1.11.77-2.84.63-4.16.7a13.35,13.35,0,0,0-4.78,1.48,12.48,12.48,0,0,1-2.36.83l-.57-.11a4,4,0,0,0-.38.44c-.23.1-.49.14-.72.22-.82.3-1.1.82-1.93.54a17.15,17.15,0,0,1-2.23-1.11c-.73-.37-2-.92-2.4,0a4.19,4.19,0,0,0,0,2.38c.18.67.86,1.39.89,2.1,0,1.19-.73,1.16-1.49.76a5.06,5.06,0,0,0-2.41-.9,1.07,1.07,0,0,0-.88,1.77c.34.54,1.38,1.22,1.48,1.88s-.92,1.17-1.2,1.64a7,7,0,0,0-1.72-.4c-.52-.07-.76-.29-1.31,0a1.93,1.93,0,0,0-.26,3.14,4.79,4.79,0,0,0,1,.48,7.68,7.68,0,0,0,.83.09c.81.22.85.24.61,1-.36,1.15-1.61,1.78-1.92,3a7.83,7.83,0,0,0,.16,3.12c.43,1.27,2,1.29,3,.7a16.62,16.62,0,0,0,3.12-1.92c.85-.77,1.49-1.78,2.28-2.45s1.79-1.65,2.64-2.33a7.89,7.89,0,0,1,3.81-1.3,9.7,9.7,0,0,1,7.17,1.65c.73.54,1.14,1.13,2.09,1.35.59.14,1.41.2,1.92.33,1.16.31,2.32.46,3.26-.56,2.3-2.51,2.11-6.07,5-8.46s7.16-3.16,10.6-4.66c18.17-7.88,33.79-20.57,51.73-29.06,7.34-3.48,15.37-5.46,22.46-9.5,4.63-2.64,8.23-6.58,12.39-9.84,4.59-3.6,9.93-5.63,14.85-8.67,5.36-3.31,10.55-9.06,4.94-14.67C333.05,196.12,313.49,211.31,302.84,218.82Z"/></g></g></svg>