<svg xmlns="http://www.w3.org/2000/svg" viewBox="0 0 166.33 401.56"><defs><style>.cls-1{fill:#007293;}.cls-2{fill:#1d1d1b;}.cls-3{fill:#fff;}.cls-4{fill:#e30613;}</style></defs><g id="Ebene_2" data-name="Ebene 2"><g id="Ebene_1-2" data-name="Ebene 1"><path class="cls-1" d="M92.36,360.67c.93,2.79,1.82,5.54,2.83,8.3.51,1.38,2.91,4.25,2,5.78-.65,1-2.19,1-3.23,1.27a17.61,17.61,0,0,0-2.34,1.17,13.83,13.83,0,0,1-7.83.85c-2.14-.34-2.13-1.26-1.69-3,.67-2.7,2.07-5.5,1.63-8.35s-2.21-5.62-3.16-8.41c-1.59-4.68-3.15-9.27-5-13.91-1.25-3.2-2.82-6.25-3.84-9.55-1.15-3.71-2.34-7.84-4.21-11.24-1.6-2.92-1.48-6.51-3.68-9.19a22.14,22.14,0,0,1-2.73-4.5c-1.09-2.23-.92-4.27-.51-6.63.36-2-.48-4-1-5.89-.66-2.6-1-5.3-1.49-7.95-.9-5.2-1.73-10.42-2.81-15.59-.73-3.48-2.53-7-2.86-10.53A35.61,35.61,0,0,0,50,253.65c-.31-.79,4.46-2.08,5-2.15a7.82,7.82,0,0,1,5.46,1.15,8,8,0,0,1,3.1,5.71,34.49,34.49,0,0,0,1,7.38,39.74,39.74,0,0,1,1.42,6.56c.46,5.32,2,10.33,3.48,15.3A98.43,98.43,0,0,1,72,298.72a8.75,8.75,0,0,0,.4,2.19c.34.65,1.26,1.18,1.73,1.76a8.09,8.09,0,0,1,2.07,5.16c0,2.22-.29,4.64,0,6.83a11.33,11.33,0,0,0,.81,2.63c.94,2.18,1.49,4.52,2.42,6.7.75,1.77,1.78,3.14,2.38,5,1.53,4.85,2.87,9.75,4.24,14.64.68,2.42,2.31,4.26,3.08,6.65,1.1,3.43,2,6.92,3.15,10.35"/><path class="cls-2" d="M90,117.11c-.3-1-.71-2-1-3-.23-.66-.36-1.36-.55-2s-.32-1.12-.45-1.69a6,6,0,0,1-.22-1.39,6.36,6.36,0,0,1,.2-2.09.85.85,0,0,1,.22-.38,3.44,3.44,0,0,0,.27-.27,4.45,4.45,0,0,0,.45-.68c0-.11,0-.22.11-.34a1.35,1.35,0,0,0,.15-.26,3.91,3.91,0,0,0,.15-.41,3.64,3.64,0,0,0,.19-.72c0-.26.09-.53.14-.79.08-.42.12-.86.24-1.27s.15-.59.22-.88a1,1,0,0,0,.06-.4c0-.32-.44-.19-.68-.14a4.26,4.26,0,0,1-.62,0c-.16,0-.31.06-.48.07s-.35,0-.53,0c-.34,0-.67.06-1,.07-.9,0-1.78.13-2.67.13a5.89,5.89,0,0,1-1,0,1.58,1.58,0,0,0-.65,0c-.09,0-.09.17-.12.26a5.35,5.35,0,0,0-.19.79c0,.3-.1.61-.14.91s0,.35,0,.52c-.06.39-.07.79-.13,1.17a8.41,8.41,0,0,1-.19.87,1.72,1.72,0,0,1-.07.21s0,.14,0,.15a.37.37,0,0,0,.07.37c.09.09.17.13,0,.22a2.49,2.49,0,0,1-.86.28c-.18,0-.35.13-.52.18s-.6.14-.9.21c-1,.23-1.94.42-2.91.64-.25.06-.5,0-.74.1a4.64,4.64,0,0,1-.84.18l-1,0-2.05.07c-2.19.06-4.38.08-6.56.25a48.64,48.64,0,0,0-5.43,1.06c-.61.11-1.22.29-1.83.44-.31.08-.36-.11-.42-.39s-.06-.46-.11-.68a9.21,9.21,0,0,0-.2-.91c-.11-.31-.19-.62-.27-.94s-.16-.62-.25-.93-.14-.4-.2-.61,0-.23-.07-.34,0-.12-.13-.13-.17,0-.27.07h-.26c-.2,0-.43-.05-.63,0a7.49,7.49,0,0,0-.79.18c-.53.11-1.06.21-1.6.29-1,.18-2.08.31-3.12.43l-1.59.17-.8.09a4.69,4.69,0,0,1-.78.08c.39.79,3.16,2,4.1,2.56-3.44,1.69-7,1.3-10.67,1.62a18.59,18.59,0,0,0,.86,4.37c.34,1.25.36,2.41.58,3.66a13.66,13.66,0,0,1,.14,2.48c0,2.43,0,4.73-.11,7.16-.49,7.49-2.42,14.9-3.37,22.36-.43,3.34-1.33,6.62-2,9.9-1,4.91-2.25,9.76-3.62,14.59-2.33,8.21-4.48,16.46-7,24.61-.62,2-1.2,4.05-1.94,6a7.52,7.52,0,0,0-.45,1.75c-.12.89-.64,2.77-.1,3.55s2,1,2.72,1.38c2.1,1,4.47,1.11,6.65,1.9a15.63,15.63,0,0,0,3,1.08c1.39.22,2.78.44,4.18.61,5.55.7,11.15.95,16.73,1.17,16.55.63,33.38,2.15,49.91.52,2.51-.25,5-.51,7.52-.8,6.76-.76,13.51-1.67,20.22-2.82,1.26-.22,3.12-.23,4.18-1,1.21-.94.13-1.93-.51-2.89-1.78-2.69-3.69-5.3-5.41-8a40.76,40.76,0,0,1-2.37-4.54c-.37-.8-.72-1.6-1.08-2.39s-.78-1.22-1-1.89a16.71,16.71,0,0,0-1-2.26c-1-1.81-1.94-3.64-3-5.44-.59-1-1.23-2.06-1.77-3.13-.62-1.25-1.16-2.55-1.83-3.78s-1.12-2.37-1.67-3.56c-.74-1.59-1.43-3.22-2-4.88A159.84,159.84,0,0,0,110.27,154c-.77-1.63-1.51-3.26-2.35-4.85-.69-1.31-1.15-2.75-1.81-4.08-.93-1.86-1.77-3.73-2.78-5.54-1.23-2.21-2.35-4.48-3.54-6.72-1.34-2.53-2.69-5.11-4.2-7.52a.19.19,0,0,0,0,.16"/><path class="cls-1" d="M48.58,53.36c0-.92.05-1.84.05-2.76a24,24,0,0,1,2.14-10.08A18.88,18.88,0,0,1,52.31,38a7.83,7.83,0,0,1,2.39-2.24A19.5,19.5,0,0,1,59,33.32a42,42,0,0,1,6.35-2.06A26.83,26.83,0,0,1,77,31.1a17.35,17.35,0,0,1,7.67,3.84,7.7,7.7,0,0,1,2.43,3c.43,1.29.76,2.63,1.22,3.92a36.08,36.08,0,0,1,1.8,12.56A142.84,142.84,0,0,1,87,82.94c-.91,4.31-1.75,8.65-2.58,13-.36,1.86-.67,3.75-1.12,5.59a23.15,23.15,0,0,0-1,6c0,2.33-.68,4.81-1.1,7.09-.47,2.58-.88,5-2.6,7.13-1.47,1.79-3,1.86-5.25,2.14a9.71,9.71,0,0,1-5.29-.76,17.94,17.94,0,0,1-3-2,15.67,15.67,0,0,1-3.66-2.93,30.12,30.12,0,0,1-2.49-4c-1.64-2.89-2-6.53-2.75-9.75-.41-1.7-.53-3.44-.95-5.12a22.23,22.23,0,0,0-1-2.69,27.72,27.72,0,0,1-1.45-4.71c-.49-2.62-1.26-5.41-1.57-8.14-.23-2-.61-4-.93-6-.52-3.24-.75-6.51-1.06-9.76-.28-2.81-.41-5.62-.62-8.43a59.7,59.7,0,0,1,0-6.13"/><path class="cls-3" d="M72.39,62.93A2,2,0,0,1,72.61,61c.54-.82.9-1.2,1.91-1.21,1.92,0,2.9,1,4.12,2.35a4.22,4.22,0,0,1,.67.9c.24.51.19.24-.06.79a2.82,2.82,0,0,1-2.18,1.79c-2,.21-4.73-1.24-4.9-3.37"/><path class="cls-2" d="M75.66,64.59c1.4.18,2.44-1,1.63-2.2-.63-.93-2.21-2-3-.51a1.76,1.76,0,0,0,1.34,2.71"/><path class="cls-2" d="M71.78,62.86c.3-.35.33-1.19.5-1.69a4.49,4.49,0,0,1,.88-1.55,4.4,4.4,0,0,1,2.9-1.32,3.42,3.42,0,0,1,2.83,1.62,4.57,4.57,0,0,1,.94,3.25c-.59-.47-1.09-1.31-1.74-1.82a7.32,7.32,0,0,0-1.88-1.22,3.11,3.11,0,0,0-4,2.52c-.25,1.59,2,3,3.3,3.37a2.69,2.69,0,0,0,2.64-.63c.77-.6,1-1.31,1.49-2a.54.54,0,0,0,.11-.28c0,1.83-1.63,4-3.69,3.89a4,4,0,0,1-3-1.78,4.09,4.09,0,0,1-.63-2.78"/><path class="cls-3" d="M54.79,63.82c-.14-1.62,2.12-4.3,3.93-4.46s4.33,1.49,4.52,3.44-.13,4.42-2.29,5.13a4.48,4.48,0,0,1-4.2-1.06c-.8-.69-2.63-1.85-2.09-3.16l0-.1"/><path class="cls-2" d="M54.47,63.82c-.45-2,2.78-5.92,5.1-5.6A4.73,4.73,0,0,1,63,60.4c.5.79,1.33,2.41.76,3.31A4.54,4.54,0,0,0,60,60.11a3.38,3.38,0,0,0-2.57.28,6,6,0,0,0-2,2.37c-.43.85-.7,1.31-.18,2.23a4.91,4.91,0,0,0,1.82,1.8c1.32.85,3,1.3,4.34.28a4.94,4.94,0,0,0,1.28-1.3c.17-.28,1.05-2,.83-2.26.49.67-.24,2.54-.7,3.08-.87,1-2.1,2.32-3.57,2.43a4.82,4.82,0,0,1-3.8-1.94,4.37,4.37,0,0,1-.66-1.78,3.48,3.48,0,0,1-.13-.93c.05-.35.1-.36.34-.76"/><path class="cls-2" d="M57,63.51a2,2,0,0,0,1.91,2.12c1.23.19,1.69-.72,1.7-1.79a2.7,2.7,0,0,0-1-2.1c-1.44-.82-2.43.41-2.61,1.77"/><path class="cls-2" d="M72.09,91.74a79.14,79.14,0,0,0,8.15.23q1,0,2-.06a6.15,6.15,0,0,0,2-.09c1.24-.61.27-2.36,1.7-2.77a16.75,16.75,0,0,0,4.51-2.31c-.26.7-1.18,2-.92,2.72.31.9,1.85.7,2.53.56a2.68,2.68,0,0,1,2.52.54c1.29,1.14,1.49,3.13,1.92,4.69a25.79,25.79,0,0,1,.73,3.36,8,8,0,0,1,.23,2.22c-.33.1-.48-.09-.74-.24a12.75,12.75,0,0,1-2.33-2c-1.15-1.08-2.15-2.68-3.47-3.51-.4,1.12-.71,6-3,5-.46-.2-.92-.9-1.25-1.23-.55-.56-1.09-1.1-1.65-1.64a6.89,6.89,0,0,0-2.19-1.8c-.41.58-.39,1.89-.66,2.55s-.61,1.82-1.52,1.69-1.75-1.57-2.31-2.12c-.3-.31-1.48-1.86-2.12-1.79s-.78,2.2-1,2.85c-.24.85-.74,2.71-1.8,2.77-1.74.09-2.36-3.32-3.27-4.2-.14.74-.52,4-1.81,2.61-.48-.52-1.47-3.54-2.36-3.21-.32.12-.83,1.73-1,2.08-.43.66-1,1.48-1.93,1.45-1.13,0-1.4-1.32-1.8-2.15-.23-.45-.69-1.71-1.25-1.9-.19,1.53-1.88,5.08-3.78,4.75-1.36-.23-2.2-2.06-3-3.06-.28-.36-.7-1.14-1.23-1-.17,1.31-1,3.9-2.57,3.92-1.85,0-1.49-2.65-2-3.81-.34.31-1.06,2.33-1.71,2.3s-.24-2.09-.19-2.48c.14-1,0-1.2-1.14-1.11-1.53.11-3,.91-4.57,1.06a5.71,5.71,0,0,0,3.06-1.26c1.15-.7.53-.79-.54-1.16a23.83,23.83,0,0,1-3.74-1.72c-.8-.44-1.47-1.08-2.24-1.53,1.27,1,3.16,1,4.71.88.22-1.1-1.44-2.23-2-3a6.16,6.16,0,0,1-1.25-2.52c.64-.12,1.84.63,2.43.83a10.52,10.52,0,0,0,3.29.73c-.4-1-1.13-1.83-1.6-2.77a5.34,5.34,0,0,1-.41-2.85c.37.14.58.59.86.88s.94.8,1.36,1.24c.74.76,1.36,1.67,2.07,2.45a4.61,4.61,0,0,0,3.33,1.61c.26.76.12,1.24,1,1.47a25.7,25.7,0,0,0,4.73.45l5.68.44q5.77.45,11.55.94"/><path class="cls-2" d="M53.07,53.55c2.77-1.54,5-7.59,9-5.65s6,7.92,6.29,12,.25,8.13.25,12.21c0,2.53,0,5.09.19,7.6s0,4.8.2,7.18a15.24,15.24,0,0,1,.18,2.36c-1.86.6-1.17-3.09-1.17-4.16,0-2.49-.4-4.9-.4-7.39,0-3.89-.34-7.73-.61-11.56s-.58-7.47-2.92-10.76C63.16,54,61.84,52,60.3,51.3s-3.11.48-4.62,1.09c-1,.4-2.73.33-3.4,1.16"/><path class="cls-1" d="M26.34,57.74c.22,2.36-1.42,5.23-2.14,7.43a42,42,0,0,0-1.4,7.67c-1,7-2.39,14.92-.71,21.9,2.18,9,4,17.88,7.62,26.44S39.26,137,46,143.16c3,2.7,6.23,5.31,9.37,7.79A102,102,0,0,0,64,157.51c7.51,4.71,16.07,9.22,25.18,9.37a31.35,31.35,0,0,0,6.57-.23,58.48,58.48,0,0,0,8.56-2.76A48.5,48.5,0,0,0,124.66,149c2.24-2.73,4.76-5.61,6.17-8.86,1.09-2.54,2.42-5.74,2.67-8.5a31,31,0,0,0-.86-9.65C130,111.27,120.05,101,108.54,101c-4.2,0-7.51,2.46-10.57,5.14a11.81,11.81,0,0,0-2.35,2c-.51.86-.06,1.5.17,2.39.28,1.13.28,4.67,1.17,5.4,0,.06,0,.11,0,.16.91.26,1.84-.72,2.57-1.12a11.4,11.4,0,0,1,3.48-1.24c2.94-.56,6.39-1.34,9.36-.57,7.39,1.92,8.71,10.08,8.71,16.65a22,22,0,0,1-2.45,10.5c-1.86,3.67-4.33,6.08-7.33,8.72-4.08,3.59-9.4,4.51-14.59,5.19-5.63.73-11.07,1-16.59-.64a41.78,41.78,0,0,1-8.79-4.14c-4-2.29-8.46-4.43-12.17-7.19a112.78,112.78,0,0,1-9.1-7.16c-4.16-3.82-7-8.17-10.2-12.79-4.32-6.27-7-13.7-9-21a59.52,59.52,0,0,1-2.14-15.91c0-5.32,0-9.41,3.2-13.77.6-.83,2.38-2.27,2.64-3.13s-1.24-3-1.85-3.8a33.61,33.61,0,0,0-3.39-3.25,16.06,16.06,0,0,1-2.39-2.59"/><path class="cls-1" d="M93,136.3c-1.31-.6-1.61.14-2.22,1.09a14.24,14.24,0,0,1-1.19,1.5c-.5.58-2.1,2.54-3,2.36a20.4,20.4,0,0,1,4.49,1.38,14.42,14.42,0,0,1,2.13,1.62,26.25,26.25,0,0,1,7.48,9.82c3.63,8.46,2.27,18.73-2.34,26.59a38,38,0,0,1-6.57,7.69c-3.23,3.18-6.45,6.21-10.61,8.13a34.4,34.4,0,0,1-9,3.13,57.28,57.28,0,0,1-11.19.4c-8.19-.34-16.75-4.08-23.9-7.82-6.93-3.63-13.62-7.73-18.7-13.79-3.91-4.67-7.66-9.06-9.66-15a39.94,39.94,0,0,1-2.25-13.18,33.48,33.48,0,0,1,2.75-13.72c1.89-4.32,4.08-8.05,7.83-11,2.79-2.17,5.86-2.71,9.18-3,1-.08,2.26-.13,3.36-.24-.61-2.29-2.57-4.34-3.4-6.71a11.07,11.07,0,0,0-4.3,1A28.35,28.35,0,0,0,17.35,119c-2.17,1.4-4.75,2.62-6.57,4.63a59.37,59.37,0,0,0-5.44,7c-4,6-5.34,13.53-5.34,20.64a55.51,55.51,0,0,0,1.15,11.64,50.14,50.14,0,0,0,2.49,9,18.32,18.32,0,0,0,2.25,3.78c1.18,1.63,2.29,3.39,3.6,4.92,2.45,2.88,5.39,5.29,8.08,7.91s6.59,4.21,9.82,6.18a126.81,126.81,0,0,0,11.75,5.8c6.44,3.05,13.55,4.63,20.41,6.32a13.81,13.81,0,0,0,7.27-.29,29.43,29.43,0,0,1,6.83-1c5.68-.45,11.43-1.42,16.58-4,5-2.47,9.19-5,12.72-9.37,2.66-3.26,5.37-6.56,6.75-10.63a46.77,46.77,0,0,0,2.19-11,25.28,25.28,0,0,0-.1-6.21c-1.31-7.45-4.29-15.15-9.39-20.88a24.81,24.81,0,0,0-4.82-3.87c-1.52-1-2.91-2.45-4.55-3.2"/><path class="cls-4" d="M81.17,117.11a19.24,19.24,0,0,1,.84-3.68c.74-2,2.69-4.17.69-6.36-1.27-1.4-3.32,3.28-3.48,3.8-.46,1.49-.54,3.73-2.36,4.23a16.86,16.86,0,0,1-4.8-.13c-3.33-.39-7.3-1.86-9.65-4.33-.61-.63-.92-1.72-1.79-2.1-2-.87-3.31.61-2.86,2.56.42,1.79,2.35,3.05,3.59,4.26a51.57,51.57,0,0,1,5.24,5.21,2.26,2.26,0,0,0-.34.78c-.2,1-.85,1-.3,2.22.2.47,1.41,1.32,1.77,1.63-.63-.54-.69,1.58-.64,1.77.21.73,1.41,1.55,2,2,2.14,1.73,5.16,1.45,6.9,3.51,1.3,1.55,1.57,4.06,1.88,6,.26,1.65.22,9.31,3.18,8.81,1.72-.3,2.71-2.29,3.67-3.41,1.8-2.08,3.68-4.05,5.51-6.09a98.43,98.43,0,0,0,8.24-10,45.37,45.37,0,0,1-9.84-.79c-2.89-.5-6.48.06-7.38-3.32a19,19,0,0,1,0-6.52"/><path class="cls-4" d="M41.05,42a36.6,36.6,0,0,1,4-6.52c2-2.34,4.28-2.91,7-1.55a12.83,12.83,0,0,1,3.45,2.84c1,1.09,2,2.43,1.49,4-.37,1-1.7,2.54-3,2.16-.13-1.51.37-5-2-5-4,0-2.09,4-1,5.79.67,1.09.38,1.42.16,2.6s-.53,5.26-2.39,4.39c-1.68-.78-.52-4.89-2.74-5,4.2.23.06,10.47-3.31,7.64a1.53,1.53,0,0,1,1.42-2.67c-.28-.09.23-1.69-1.1-1.34-.61,4.19-2.92,8.53-4.62,12.4A59.63,59.63,0,0,0,36,70.21c-.76-.17-1.2-1.86-1.56-2.45C33.33,66,32.25,64.11,31,62.43a22.76,22.76,0,0,0-3.36-4c-.79-.65-1.68-1.23-2.46-1.88-1.19-1-.21-1.12.77-1.43A24.36,24.36,0,0,0,31,52.79a40.47,40.47,0,0,0,5-3.09c2.33-1.9,3.61-5.08,5-7.68"/><path class="cls-2" d="M12.32,116.28c1.28,2.13,3,4.07,4.24,6.24A51.33,51.33,0,0,1,19.4,129a15.49,15.49,0,0,0,1.6,3.56c2.31-1,4.27-3.27,6.51-4.51a40.15,40.15,0,0,1,13-4.59A15.73,15.73,0,0,0,43.7,123c1-.46.55-1.91.64-3a21.82,21.82,0,0,0,.08-3.13,10.9,10.9,0,0,1-.17-1.51,5.16,5.16,0,0,0,.14-1,7.86,7.86,0,0,0-.11-.83c-.05-.25-.14-.48-.2-.72s-.13-.68-.2-1c0-.16-.13-.31-.17-.46a3.14,3.14,0,0,1-.08-.4,2.7,2.7,0,0,0-.39-.8c-.1-.18-.26-.43-.48-.47a6.68,6.68,0,0,0-1.19-.07c-.21,0-.4,0-.61.07s-.23,0-.35,0a1.67,1.67,0,0,1-.31,0,5.21,5.21,0,0,0-.69,0c-.23,0-.45,0-.68,0s-.28.06-.42.07a2.61,2.61,0,0,0-.28,0c-.08,0-.13.06-.2.07a2.53,2.53,0,0,1-.28,0c-.52.07-1,.23-1.54.32-1.17.21-2.37.4-3.55.62-.57.1-1.13.21-1.7.3a6.87,6.87,0,0,1-1,.08c-.28,0-.52.07-.8.07s-.63.06-1,.07a6.28,6.28,0,0,0-1,0,6.81,6.81,0,0,1-.78.05c-.18,0-.35.06-.53.07s-.37,0-.55,0c-.68,0-1.33.17-2,.2a4.85,4.85,0,0,0-.66,0,3,3,0,0,1-.6,0c-.55,0-1.09.12-1.64.13s-.89.15-1.33.14c-.25,0-.46,0-.7.07s-.39,0-.58,0c-.45,0-.89.07-1.34.07H13.45c-.18,0-.29.07-.47.07a5.85,5.85,0,0,0-.73.12c-.25,0-.49,0-.74,0s-.55.22-.57.55a2.24,2.24,0,0,0,.23,1,9.76,9.76,0,0,0,.59,1.27c.18.32.37.64.56,1"/><path class="cls-2" d="M97.92,101.63c1.43-.64,2.84-1.39,4.25-2.15a26.38,26.38,0,0,1,2.38-1.66c.78.18,1,4.38,1.2,5.25.65,2.45,1.25,4.93,1.65,7.42.29,1.86.68,3.64,1.09,5.45.24,1,1,2.38.82,3.42,0,.19-8.91,1.06-9.79,1.25a21.77,21.77,0,0,0-7.41,3c-1.13.75-4.25,3.52-5.27,1.73a32.67,32.67,0,0,1-1.59-4.78,13.06,13.06,0,0,1-.65-4.34c0-2,0-4,.2-6a9.69,9.69,0,0,1,.24-2.4c.72-1.59,3.16-2.66,4.71-3.16a76.15,76.15,0,0,0,8.17-3"/><path class="cls-2" d="M102.17,164.78c.1.1.57-.16.72-.22s.45-.23.67-.35c.72-.38,1.45-.73,2.18-1.09s1.2-.51,1.79-.8,1.09-.57,1.64-.84l1.06-.54c.3-.14.63-.26.93-.4s.5-.38.8-.36c.09,0,0,.64,0,.73a1.58,1.58,0,0,1-.72.44,8.8,8.8,0,0,0-.93.35,6.73,6.73,0,0,0-1,.59,5,5,0,0,1-1.06.54c-1,.4-1.89.82-2.86,1.19-.71.27-1.4.58-2.12.82a7.3,7.3,0,0,1-1.17.39,1.73,1.73,0,0,1,0-.32h.09"/><path class="cls-2" d="M100.09,153.49c.2.12.74,0,1,0a7.43,7.43,0,0,0,1.14-.23c.87-.27,1.7-.63,2.59-.84s2.21-.35,2.85-1.12c.07-.07.21-.19.16-.28s-.32.05-.41.11a9.77,9.77,0,0,1-1.59.78,12.29,12.29,0,0,1-1.95.71l-1.51.32c-.48.1-1,.26-1.43.34a6.8,6.8,0,0,1-1.09.15,1.28,1.28,0,0,1,.11.2.33.33,0,0,0,.14,0"/><path class="cls-4" d="M42.69,210.8c.86,1.46.4,4,.4,5.72,0,5.12.3,10.33,0,15.44-.26,4.46-.41,8.92-.41,13.44,0,2-.66,6,.38,7.72A5.86,5.86,0,0,0,45.21,255a14.24,14.24,0,0,0,2.28.86c.69.26,1.38.51,2.07.79a4.47,4.47,0,0,1,1.48.74c.21.19.26.55.5.7a4.12,4.12,0,0,1,1-2.51A5.13,5.13,0,0,1,55.1,254a7.38,7.38,0,0,1,8,3.06,3.17,3.17,0,0,1,.36.65c0,.15.07.63.19.7s.65-.11.84-.12l.84-.07a12.2,12.2,0,0,1,1.92.07c.36,0,3.75.39,3.71.72.5-4.84.07-10,.07-14.88s.69-9.42.86-14.14c1.34.09,2.47-.59,3.62-.77,1.37-.21,2.84,0,4.21-.17,2.45-.39,4.78-1.46,7.27-1.93,3.4-.65,4.06,1.38,5.69,4.42,2.15,4,4.44,8,6.8,12,2.1,3.57,4.7,6.77,6.79,10.37,1,1.65,2.37,5,4.65,5.19,1.27.09,3-1.17,4.32-1.52,2.69-.76,5.26-1.36,7.92-2.32,4-1.44,8.22-2.58,12.06-4.25-.48-2.59-3-5.38-4.23-7.9-2.26-4.45-4.65-8.84-7-13.19-2-3.78-4.18-7.45-6.39-11.15-1.65-2.77-2.63-6.6-5.87-7.18-4.45-.8-9.4.39-13.86.39-7.4,0-14.62.29-22,.81-9.25.65-19,2.42-28.34,1.5a27.05,27.05,0,0,1-4.33-1.05c.33.17.44.57.64.74"/><path class="cls-1" d="M106.78,332.71c-.17,3,3.16,4.65,4.86,6.55s2,4.49,4.19,6.15c1.26,1,1.7.59,3.06.62.23-2.84,0-6,1.19-8.67a24.17,24.17,0,0,1,3.23-4.84,3.43,3.43,0,0,1,1.88-1.43c2.16-.44,3.94-2.31,5.81-3.54,1.58-1,3.2-2,4.78-3a29.19,29.19,0,0,0,3.44-3.15c1.93-1.76,4-3.37,6.07-5,5-4,9.47-8.77,14.12-13.17,1.35-1.28,2.57-2.8,3.81-4.17.76-.84,1.63-1.6,2.36-2.47,1.91-2.26-.29-4.52-1.54-6.49a59.89,59.89,0,0,0-4.15-5.84c-1.32-1.59-2.5-3.33-3.93-4.82-2.32-2.4-4.54-4.94-6.93-7.29-2.05-2-3.67-4.32-5.61-6.43-3.94-4.28-8-8.55-11.81-12.92-.76-.87-1.69-2.69-2.85-3.14s-2.83.43-3.85.66a12.49,12.49,0,0,0-4.15,2c-1.2.77-3.06,1.53-4,2.65-1.07,1.32.23,3.22,1,4.35C120,262.5,123,265,125.35,268c2,2.45,4,4.77,6.12,7.1,1.24,1.36,2.74,2.39,4,3.69,1,1,1.87,2,2.89,2.94,2,1.78,3.87,3.62,5.83,5.4,1.32,1.2,2.38,2.56,3.62,3.84a17.91,17.91,0,0,1,3.11,3.51,19.1,19.1,0,0,0-1.36,1.87c-.59.73-1.23,1.41-1.76,2.17-1,1.38-1.87,2.77-2.85,4.13a35.35,35.35,0,0,1-3.41,4.22,30.25,30.25,0,0,1-2.7,2.61c-3.39,2.63-7,4.91-10.44,7.39-5.08,3.62-10.88,7.67-16.5,10.39-1.27.61-2.93.47-3.94,1.65a7.15,7.15,0,0,0-1.21,3.84"/><path class="cls-2" d="M91.74,372.28c.93-.44,1.84-.95,2.74-1.48.48-.29,1.93-1.75,2.4-1.7.84.1,2.06,3.93,2.26,4.69.32,1.16.72,2.31,1.13,3.44.29.81,2.27,4.57.47,4.47.13,2.17-9.11,3.62-10.65,3.05a63,63,0,0,1-9.54,7.64c-3,2-6.35,3.15-9.28,5.13-1.87,1.26-3.83,2.6-5.77,3.73-2.51,1.46-2-2.59-1.41-4,1.42-3.24,3.8-5.9,5.91-8.68a72.55,72.55,0,0,0,4.11-6.65c1.72-2.82,4.21-5.15,4.71-8.58a9.08,9.08,0,0,0-.34-3.77,27.33,27.33,0,0,0,3,.59c1.2.09,2.13-.28,2.94.6.64.69.73,1.88,1.32,2.58.77.91,1.32.6,2.42.29a20.35,20.35,0,0,0,3.53-1.34"/><path class="cls-2" d="M116.86,359.16c.07.22.15.44.23.66a24.53,24.53,0,0,0,3.22,5.59c.88,1.22,4.11,8.07,5.54,3.73.71-2.18.56-4.39.56-6.69a36,36,0,0,0-1.16-7.38,54.84,54.84,0,0,0-1.64-7.42,29.32,29.32,0,0,0-1-3c-.39-.8-1.38-1.77-1.21-2.73.45-.13,4.37-.19,4.52.12-.43-.91-1-1.72-1.5-2.6-.32-.6-.86-2.28-1.41-2.65-.75-.5-1.51.38-2.33.07a9.87,9.87,0,0,1-2.17-1.87c-2.08-2-2.85-5-3.54-7.69-.29-1.12-.26-2.86-1.66-2.8-1.11.05-3.34,1.56-4.31,2.14a29.79,29.79,0,0,0-4.67,3.85c-2.43,2.21.07,6,1.28,8.39.65,1.29,1.23,2.69,1.81,4,.41.91.43,1.44,1.37,1.63.76.14,1.39-.46,2.18-.16,1.55.58,1.51,2.26,1.89,3.55.61,2.09,1.94,4,2.57,6.07.51,1.76.85,3.55,1.42,5.25"/><path class="cls-2" d="M45.71,27.31l.09.09c-.2-.08-.38-.3-.58-.36a3.75,3.75,0,0,0-.58,0c-.2,0-.36-.14-.57-.17-1.41-.22-2.41-1.53-3.83-1.67a1.63,1.63,0,0,0-1.68,1.48,4.06,4.06,0,0,0,.12,1.44c.08.25.22.89.44,1a4.05,4.05,0,0,0-2-1.51c-.62-.25-2.31-1-2.94-.46-.45.4-.33,1.18-.17,1.68a8.81,8.81,0,0,0,.3.91,1.43,1.43,0,0,1,.16,1.07c-.31,1-1.93.6-2.69.61a11.09,11.09,0,0,1-2.06-.35A9.7,9.7,0,0,0,28.62,31c-.23,0-.89-.32-1.08-.14s.22.95.34,1.14a8.77,8.77,0,0,0,1.76,1.94c.65.57,1.2,1.22,1.86,1.79a10.73,10.73,0,0,0,2.7,2.1,5.28,5.28,0,0,0,2.24.45h2.29c1.06,0,2.94-.35,3.57.82s0,2.78-.54,3.86a10.3,10.3,0,0,0-.61,1.25A3.71,3.71,0,0,0,41,45.54a2.66,2.66,0,0,0,.38,1.13,2.36,2.36,0,0,0,.83,1c.51.43,1.49,1,2.24.71a3.3,3.3,0,0,0,.8-.7c.3-.31.38-.43.73,0s1,1.4,1.7,1.19c.49-.14.49-1,.57-1.34s.17-1,.3-1.55a2.52,2.52,0,0,1,1.85-2.06,6.48,6.48,0,0,1,3.52.13,6.85,6.85,0,0,0,1.5.15c.34-.05.24,0,.31-.31.14-.62-.34-1.74.29-2.13s1.71,0,2.47.19a5.28,5.28,0,0,1,1.91.61c.54.4.87,1.06,1.4,1.49a5,5,0,0,1,.8.91,8.62,8.62,0,0,0,.94,1c.34.31.72.92,1.14,1.12a1.88,1.88,0,0,0,1.3.06,8.47,8.47,0,0,1,1-.19,2.46,2.46,0,0,1,1.29.31C70.8,48.29,72.11,50,74,51.86c1.43,1.41,3.14,2.43,4.53,3.9A14.67,14.67,0,0,0,83.3,59.2c2,.89,6.58.81,6,4.14-.06.35-.4.78-.47,1.29,0,1.06-.61,3.41,0,4.28.75,1,3.25.61,4.29.41,2.6-.51,4.86-2.36,5.07-5.13.27-3.48-3-5.88-3-9.36S98,48.7,98.3,45.29A22.39,22.39,0,0,0,97.23,37c-1.66-4.8-8-6.19-12.4-7a27.68,27.68,0,0,0-4.17-.32c-4.27-.09-8.85,1.48-12.89-.41a27.89,27.89,0,0,1-4-2.5c-1-.72-2.08-1.39-3.11-2.1a17.08,17.08,0,0,0-4.16-2.44c-.44-.14-.91-.16-1.36-.28A3.72,3.72,0,0,0,54,21.84a10.92,10.92,0,0,0-4.3.5,11.52,11.52,0,0,1-3.21.84c-1.13.15-2.26.28-3.39.45a12.5,12.5,0,0,1-2,0c-1.1,0-1.51.78-2,1.68"/><path class="cls-4" d="M99.34,45.73c1.93,3.05,4.58,6.35,4,10.11-.43,2.62-1.15,4.4-4,4.66-4.65.43-10.2-2.45-14.08-4.76C74.4,49.3,63.3,43.68,54.49,34.51c-1.93-2-4.45-4.38-5.57-7s-1.51-6.53.09-9.06,5-2.89,7.65-3.1c9-.73,18.29,3.35,24.8,9.41a108.67,108.67,0,0,1,17.88,21"/><path class="cls-4" d="M60.13,27.54A6.07,6.07,0,0,1,59,25.79c-.05-.22,0-.44-.06-.66a1.29,1.29,0,0,0-.41-.64,2.06,2.06,0,0,0-.25-.26c-.11-.08-.28-.08-.31-.22s.16-.33.18-.38a8.56,8.56,0,0,1,.92-1.84c.54-.74,1.06-1.49,1.61-2.22,1.11-1.48,2.29-2.91,3.51-4.3A109.07,109.07,0,0,1,75.43,3.77,13.91,13.91,0,0,1,84.53,0a31.94,31.94,0,0,1,10.7,1.47c4.58,1.51,8.46,5.08,11.64,8.63,2.62,2.93,3.22,6.39,3.26,10.19,0,5.14-.78,10.7-3.34,15.28-1.47,2.63-3.38,5.09-5,7.6-.82,1.27-1.7,3.21-3,4.08s-1.92.47-3.27-.09A36.15,36.15,0,0,0,89,45c-5-1.07-9.53-1.66-14-4.21-3.51-2-6.74-5.19-9.74-8a47.24,47.24,0,0,1-5.13-5.17"/><path class="cls-2" d="M63,13.57a55.29,55.29,0,0,0,0,7.05,17.51,17.51,0,0,0,2.82,7,56.54,56.54,0,0,0,9.65,11.73,28.12,28.12,0,0,0,11,6.49c1.08.33,2.31.43,3.42.7.73.18,1.88.77,2.61.92a17.34,17.34,0,0,0,3.39.13c1.08,0,3,.39,4-.12a5.15,5.15,0,0,0,1.78-2.23c.43-1.89-1.1-.87-2.28-1.14-.93-.22-1.88-.84-2.9-1.08l-3.4-.84A34,34,0,0,1,89.87,41c-1.33-.5-2.65-.52-4-1-2.12-.79-4.14-1.46-5.73-3.08a109.65,109.65,0,0,1-8.22-8.77c-1.23-1.58-1.93-3.94-2.64-5.74a54.18,54.18,0,0,1-2.07-6.48c-.51-1.95.71-5.51-2-3.08-.69.61-1.38.84-2,1.47-1.2,1.14-.32,1.36-.15,2.79"/><path class="cls-2" d="M90.59,41.75c0,.12,0,.25,0,.37-.25-.56-.77-.68-1.1-1.11s-.44-1-.85-1.46a8.32,8.32,0,0,1-1.76-2.35c-.44-1.05-1.43-7.41,1.19-6.5,1.82.63,2.25,4.33,2.61,5.77.67,2.75.45,5.71.45,8.62a13.59,13.59,0,0,1,0-3.37c.3-1,1.35-1.91,1.78-2.94a15.72,15.72,0,0,0,1.21-2.29,20.18,20.18,0,0,0,0-4c-.2,1.23.54,2.16.6,3.35s0,2.35,0,3.52c0,2.46.43,4.48-1.54,6.27.2-1.05,3.4-2.61,4.36-2,1.76,1,1.27,4,1.29,5.75,0,1,.42,3.07-1.2,3-.63,0-2-1.27-2.49-1.68a6.78,6.78,0,0,1-2.29-4.8c-1.39,0-2.08,3-3.4,3.65s-4,1.72-5.34.59c-1.81-1.5,2-1.68,3.13-2.36.9-.56,3.76-1.87,3.89-3-2-.57-4.14.52-6,.93a17.19,17.19,0,0,1-3.22.13c-1.29,0-1.85-.66-3-.72.48-1.51,3.72-2.74,5.22-2.82a7.51,7.51,0,0,1,3.53.46,6.45,6.45,0,0,0,2.93.73"/><path class="cls-3" d="M56,76.76c-.43-.71-1.06-.61-1.59,0-1.23,1.35-1.28,3.38.45,4.34,1.06.58,3.22.5,3.73-.83a2.71,2.71,0,0,0-.34-2.13c-.36-.64-1.1-1.93-2-2"/><path class="cls-3" d="M83.1,75.2c-1.36-.67-2.51.25-3.34,1.29-1.19,1.47-1.27,3.53.69,4.37A3.31,3.31,0,0,0,84.93,79c.45-1.44-.28-4.62-2.25-4.38"/></g></g></svg>