<?xml version="1.0" encoding="utf-8"?>
<!-- Generator: Adobe Illustrator 16.0.4, SVG Export Plug-In . SVG Version: 6.00 Build 0)  -->
<!DOCTYPE svg PUBLIC "-//W3C//DTD SVG 1.1//EN" "http://www.w3.org/Graphics/SVG/1.1/DTD/svg11.dtd">
<svg version="1.1" id="Ebene_1" xmlns="http://www.w3.org/2000/svg" xmlns:xlink="http://www.w3.org/1999/xlink" x="0px" y="0px"
	 width="721.735px" height="425.2px" viewBox="0 0 721.735 425.2" enable-background="new 0 0 721.735 425.2" xml:space="preserve">
<g>
	<g>
		<path d="M380.811,338.028c0.178,2.458,0.39,4.912,0.736,7.345c0.354,2.513,0.541,5.013,1.171,7.487
			c0.338,1.324,0.692,2.648,1.22,3.911c0.509,1.223,1.36,2.252,2.194,3.271c0.728,0.889,1.588,1.618,2.361,2.468
			c0.522,0.573,1.121,1.177,1.813,1.55c1.271,0.687,2.726,0.74,4.104,1.013c1.024,0.201,1.965,0.577,3.021,0.659
			c3.016,0.226,5.669-1.39,8.479-2.196c2.596-0.743,4.626-0.894,6.867-2.604c9.269-7.072,11.132-19.45,13.229-30.076
			c0.937-4.754,1.344-9.619,2.393-14.421c1.848-8.477,5.649-15.987,9.2-23.72c-0.198,0.427-2.662,0.935-3.145,1.026
			c-0.686,0.127-1.223-0.007-1.888-0.12c-1.962-0.331-3.91,0.669-5.779,1.143c-2.914,0.736-5.812,1.421-8.741,2.073
			c-3.794,0.84-7.411,1.72-11.324,1.882c0.928,1.005,1.761,2.408,2.479,3.604c0.971,1.62,1.68,3.678,2.128,5.524
			c0.557,2.301,1.661,4.776,2.565,7.118c1.516,3.928,2.156,8.308,2.582,12.502c0.172,1.688,0.274,3.387,0.411,5.077
			c0.472,5.837,1.596,12.624-2.95,17.245c-1.482,1.509-3.328,2.635-4.84,4.128c-2.299,2.268-4.615,4.192-7.98,4.457
			c-0.874,0.07-1.756,0-2.614-0.187c-9.905-2.154-10.43-10.738-11.814-19.179c-0.458-2.799-0.69-5.627-0.928-8.451
			c-0.109-1.306-0.235-2.603-0.432-3.889c-0.205-1.338-0.125-2.73-0.32-4.078c-0.376-2.626-1.257-5.308-2.205-7.769
			c-0.709-1.847-1.588-3.508-2.774-5.089c-2.173-2.896-4.606-5.626-7.604-7.712c-2.254-1.563-4.63-3.173-7.183-4.192
			c-0.978-0.391-2.024-0.624-3.051-0.799c-0.782-0.134-1.594-0.34-2.39-0.221c0.01,0.454,0.399,1.047,0.593,1.476
			c0.253,0.546,0.447,1.095,0.669,1.648c0.453,1.125,0.865,2.198,1.22,3.302c0.126,0.385,2.032,0.507,2.399,0.564
			c0.539,0.081,1.068,0.291,1.57,0.473c1.352,0.49,2.212,1.339,3.198,2.337c2.309,2.345,4.388,5.036,6.089,7.863
			c2.703,4.49,4.11,9.621,4.614,14.81C380.437,332.184,380.6,335.11,380.811,338.028z"/>
		<path d="M257.541,213.566c2.505,2.628,5.864,4.06,9.121,5.525c4.63,2.082,8.833,4.519,13.022,7.408
			c8.78,6.059,16.431,12.583,23.475,20.482c10.825,12.136,23.055,24.447,36.54,33.548c1.711,1.154,9.348,8.049,10.41,5.661
			c-3.331-1.086-5.399-4.656-7.391-7.234c-2.762-3.572-6.336-6.091-9.667-8.971c-7.081-6.118-13.249-13.541-19.473-20.475
			c-6.388-7.116-13.14-14.107-20.113-20.753c-6.868-6.545-14.951-14.113-24.055-17.729c-9.103-3.614-18.891-2.194-28.572-1.411"/>
		<g>
			<path d="M196.773,215.573c0.698-1.147,1.483-2.394,2.388-3.42c0.694-0.786,1.266-1.516,2.34-1.706
				c0.558-0.102,0.939,0.111,1.487,0.191c0.821,0.121,1.622,0.275,2.442,0.406c1.521,0.243,2.997,0.957,4.459,1.432
				c0.992,0.324,2.011,0.742,2.924,1.2c1.145,0.579,1.447,2.311,1.506,3.495c0.049,0.989-0.033,1.952-0.182,2.932
				c-0.078,0.512-0.246,1.05-0.199,1.573c-0.247,0.099-0.52-0.052-0.761-0.1c-0.101-0.236,0.067-0.526,0.103-0.77
				c0.047-0.287,0.058-0.563,0.071-0.848c0.021-0.578,0.113-1.172,0.093-1.723c-0.046-1.188-0.789-2.382-1.747-3.022
				c-1.362-0.911-3.052-1.382-4.653-1.729c-1.497-0.327-3.081-0.673-4.616-0.635c-1.232,0.034-2.985,0.032-3.749,1.167
				c-0.382,0.562-0.636,1.22-0.999,1.792c-0.181,0.283-0.161,0.303-0.54,0.184c-0.312-0.097-0.76-0.211-0.4-0.587"/>
			<path fill="#245977" d="M162.231,196.3c-0.446,1.839-0.854,5.324-3.295,5.447c-1.387,0.067-5.637-3.808-7.008-4.795
				c-5.03-3.617-1.035-10.646-0.441-15.661c1.12-9.451,4.42-18.424,7.601-27.334c1.966-5.5,4.194-10.9,7.225-15.875
				c1.656-2.712,5.963-9.281,9.216-9.219c3.28,0.059,9.657,4.417,12.296,6.308c15.053,10.78,23.246,26.931,28.083,44.348
				c2.227,8.026,2.408,15.579,1.73,23.866c-0.215,2.617-0.548,6.109-1.554,8.544c-0.628,1.522-1.081,1.247-1.932,2.125
				c-2.029,2.097-3.329,3.184-3.825-0.532c-0.02,0.689-0.441,1.43-0.503,2.158c-2.196,1.091-2.89-1.306-3.599-2.763
				c-0.531,1.29,0.072,3.878-1.815,3.48c-1.396-0.291-2.311-3.55-2.527-4.707c-0.583-3.119,0.788-4.649,3.588-5.595
				c3.64-1.229,4.052-0.778,4.315-5.066c0.394-6.449-1.585-13.152-3.631-19.198c-1.312-3.88-3.501-7.378-5.149-11.117
				c-1.023-2.327-2.116-4.6-3.18-6.975c-2.238-4.997-5.22-10.602-7.984-15.352c-2.558-4.402-11.545-13.341-15.966-7.531
				c-1.899,2.497-2.688,6.108-3.88,9.001c-1.4,3.403-2.38,6.645-3.344,10.109c-2.031,7.308-2.56,14.626-2.921,21.966
				C163.494,186.726,163.365,191.613,162.231,196.3z"/>
			<path fill="#FD1813" d="M118.833,233.797c-0.787-0.923-1.59-1.832-2.408-2.722c-1.198-1.305-2.362-2.643-3.491-4.009
				c-0.873-1.061-1.791-1.958-2.686-2.985c-0.481-0.554-1.019-1.038-1.532-1.57c-0.43-0.451-0.913-0.856-1.357-1.301
				c-0.502-0.497-0.873-1.089-1.383-1.577c-1.152-1.109-2.043-2.432-3.002-3.698c-0.888-1.169-1.803-2.308-2.793-3.387
				c-0.823-0.899-1.478-1.901-2.273-2.796c-0.382-0.433-0.818-0.834-1.208-1.256c-0.313-0.336-0.738-0.61-0.992-1.003
				c-0.238-0.371-0.299-0.728-0.596-1.083c-0.758-0.889-1.547-1.749-2.3-2.643c-0.245-0.289-2.259-2.412-1.854-2.708
				c0.43-0.315,1.596,1.415,1.838,1.664c0.819,0.847,1.648,1.69,2.484,2.523c17.577,17.548,39.82,29.029,64.099,34.18
				c4.643,0.985,9.328,1.746,14.041,2.285c6.971,0.796,14.045,1.568,20.935,2.783c2.397,0.421,14.586,2.031,14.206,5.412
				c-5.46,2.625-10.902,2.171-16.734,1.715c-6.885-0.535-13.384-1.766-20.198-2.688c-11.579-1.567-23.632-1.172-35.16-2.68
				c-2.603-0.339-5.449-0.762-7.991-1.902c-1.026-0.458-1.933-1.107-2.893-1.78C122.827,240.636,121.015,236.379,118.833,233.797z"
				/>
			<path d="M188.513,208.261c0.54,0.355,1.027,0.85,1.3,1.248c0.189,0.269,0.272,0.645,0.446,0.913
				c0.193,0.298,0.455,0.463,0.724,0.686c0.866,0.714,1.63,1.477,2.609,2.032c1.67,0.949,3.317,1.914,4.977,2.876
				c0.358,0.207,1.117,0.481,1.366,0.795c0.345,0.444-0.148,1.364-0.503,1.689c-0.878,0.802-2.447-0.228-3.381-0.605
				c-1.856-0.749-3.68-1.721-5.324-2.832c-0.598-0.406-1.131-0.875-1.69-1.338c-0.233-0.198-0.492-0.458-0.765-0.632
				c-0.35-0.226-0.562-0.136-0.946-0.125c-0.569,0.007-1.125-0.261-1.458-0.733c-0.522-0.728-0.299-1.988,0.09-2.726
				c0.291-0.551,0.428-1.616,1.159-1.697C187.559,207.762,188.057,207.958,188.513,208.261z"/>
			<path fill="#245977" d="M155.946,207.076c1.438-0.418,2.044-1.684,2.607-2.945c0.262-0.59,0.412-1.518,0.895-1.969
				c0.391-0.372,1.046-0.294,1.493-0.61c1.744-1.231,2.758-4.487,2.555-6.559c5.164-2.26,10.409-3.946,15.437-6.62
				c2.189-1.162,4.404-2.795,6.56-4.119c7.729-4.747,6.801,6.632,7.96,10.71c1.329,4.663,5.741,9.422-1.533,10.095
				c-0.987,0.09-2.067,0.259-2.686,1.114c-0.203,0.278-0.282,0.596-0.451,0.884c-0.064,0.106-0.357,0.347-0.349,0.472
				c0.034,0.383,0.828,0.242,1.073,0.441c0.255,0.204,0.463,0.814,0.23,1.094c-0.225,0.267-0.83,0.38-1.14,0.59
				c-0.478,0.332-0.735,0.258-1.324,0.2c-0.363-0.031-1.075-0.123-1.281,0.264c-0.196,0.366,0.264,0.814,0.38,1.135
				c0.156,0.435,0.153,0.858,0.047,1.268c-0.173,0.684-0.251,1.099-1.031,0.925c-0.666-0.148-1.276-0.438-1.974-0.377
				c-0.654,0.062-1.229,0.515-1.75,0.881c-1.245,0.868-2.219,1.38-3.759,0.866c-1.872-0.627-5.163-2.659-7.153-2.352
				c-2.417,0.375-2.18,2.945-4.201,4.031c-2.375,1.274-7.176-2.258-7.991-4.414"/>
			<g>
				<path d="M185.374,192.008c0.475-0.185,0.898-0.88,1.283-1.213c0.423-0.365,0.877-0.812,1.345-1.152
					c0.697-0.508,1.915-1.041,2.323-0.014c-0.898,0.199-1.779,0.338-2.521,0.902c-0.722,0.555-1.612,1.077-2.418,1.488
					c-0.034,0.111,0.03,0.076,0.083,0.113"/>
				<path d="M186.94,193.642c0.543-0.691,1.351-1.422,2.148-1.858c1.179-0.639,1.498,0.852,1.653,1.728
					c-0.096-0.875-1.195-0.991-1.865-0.926c-0.406,0.038-1.828,0.47-1.815,0.881c0.624-0.097,1.124,0.495,1.672,0.706
					c0.556,0.209,1.631,0.341,1.976-0.292c-0.097,0.599-1.277,0.759-1.767,0.679c-0.555-0.087-1.228-0.709-1.478-1.153"/>
				<path fill="#FFFFFF" d="M187.096,193.33c0.276-0.129,0.483-0.411,0.77-0.546c0.318-0.15,0.691-0.242,1.067-0.277
					c0.626-0.059,1.305,0.207,1.613,0.793c0.428,0.816-0.846,1.147-1.433,1.019c-0.481-0.106-1.213-1.011-1.582-0.926"/>
				<path d="M188.463,192.661c0.084,0.435,0.312,0.809,0.815,1.006c0.355,0.14,0.979,0.191,1.15-0.238
					c0.146-0.365-0.134-0.627-0.429-0.811c-0.423-0.263-0.792-0.193-1.259-0.069c0,0.08,0.002,0.194,0.037,0.269"/>
			</g>
			<path d="M188.293,183.16c0.635-0.932-1.407-8.027-1.968-10.445c-0.914-3.958-1.932-7.719-3.885-11.485
				c-1.388-2.674-3.121-8.182-7.052-5.829c-1.351,0.807-1.488,2.812-2.428,4.136c-1.782,2.509-1.732,2.114-4.218,1.268
				c-2.435-0.834-6.521-4.367-7.536-0.175c-0.238,0.973,1.203,3.824,1.361,4.892c0.313,2.14-0.132,4.073-0.226,6.163
				c-0.257,5.833,1.597,13.787,0.108,19.235c-2.055-0.051-4.904,1.609-6.085,3.339c1.11,6.432,31.491-9.822,35.812-12.516
				c-0.53-2.627-2.525-0.875-4.187-1.796"/>
			<path fill="#245977" d="M128.486,248.276c0.313,0.738,0.699,1.454,1.128,2.15c0.225,0.361,0.457,0.708,0.662,1.078
				c0.458,0.84,0.686,1.861,0.828,2.789c0.175,1.139,0.432,2.239,0.466,3.404c0.041,1.441,0.043,2.624-0.234,4.073
				c-0.33,1.721-0.765,3.468-1.403,5.099c-0.671,1.728-1.83,3.191-2.925,4.648c-0.345,0.461-0.842,1.017-0.425,1.503
				c0.337,0.393,0.791,0.815,1.176,1.188c0.893,0.864,1.559,1.902,2.463,2.779c0.822,0.795,1.756,1.459,2.727,2.063
				c1.004,0.619,2.195,1.083,3.127,1.801c0.312,0.242,0.52,0.58,0.83,0.827c0.496,0.403,1.067,0.741,1.604,1.089
				c1.082,0.7,2.192,1.351,3.34,1.929c9.869,4.947,18.776,7.006,29.207,6.975c1.125-0.004,2.25-0.031,3.375-0.089
				c6.396-0.326,13.077-1.522,18.587-4.968c2.65-1.663,4.95-3.856,6.623-6.508c1.47-2.318,3.559-6.054,2.834-8.873
				c-2.776,0.728-5.995,0.588-8.85,1.383c-0.326,2.508-2.772,5.698-4.83,7.004c-2.341,1.491-5.083,2.245-7.705,3.084
				c-4.615,1.48-9.269,1.814-13.518,0.029c-10.305-4.342-21.799-7.695-29.623-15.817c-2.969-3.082-4.442-7.269-2.915-11.554
				c1.461-4.099,4.332-8.042,6.917-11.495c1.384-1.851,2.572-3.855,3.945-5.8c2.934-4.157,6.742-6.09,10.705-9.131
				c3.321-2.551,7.725-4.247,10.281-7.701c2.856-3.858-1.311-5.203-4.083-7.09c-3.53-2.397-7.979-3.681-11.569-0.614
				c-4.621,3.95-5.546,10.399-8.46,14.524c-1.96,2.774-4.234,5.31-6.572,7.766c-1.171,1.23-2.363,2.444-3.546,3.667
				c-0.593,0.614-1.186,1.227-1.767,1.841c-0.378,0.399-0.596,0.855-0.915,1.278c-0.307,0.412-0.765,0.692-1.111,1.063
				c-0.369,0.391-0.713,0.903-0.975,1.388c-0.468,0.867,0.054,1.783,0.358,2.606C128.317,247.873,128.402,248.075,128.486,248.276z"
				/>
			<path d="M265.115,217.96c-4.052-0.313-10.481-3.361-15.429-3.82c-6.141-0.571-13.677,1.632-19.288,3.887
				c-6.022,2.424-11.023,4.986-17.76,6.216c-0.583,0.109-1.186,0.155-1.769,0.276c-0.576,0.12-1.079,0-1.658-0.099
				c-0.635-0.11-1.284-0.163-1.921-0.261c-1.185-0.183-2.565-0.475-3.652-1.012c-2.25-1.121-3.918-3.027-5.901-4.516
				c-0.363-0.271-0.77-0.488-1.173-0.686c-0.125-0.062-0.444-0.129-0.521-0.257c-0.12-0.208,0.075-0.622,0.151-0.824
				c0.151-0.414,0.396-0.833,0.64-1.199c0.296-0.451,0.632-0.315,1.095-0.182c0.954,0.279,1.877,0.789,2.712,1.355
				c0.654,0.445,1.345,0.791,1.979,1.262c0.92,0.689,1.968,1.303,2.987,1.846c1.46,0.78,3.175,1.2,4.821,1.419
				c1.137,0.153,2.6,0.175,3.707-0.156c0.371-0.112,0.704-0.312,1.07-0.433c0.598-0.199,1.237-0.292,1.844-0.455
				c2.446-0.65,4.767-1.67,7.036-2.78c2.877-1.411,5.699-2.96,8.716-4.055c8.756-3.175,30.884-9.671,33.493,4.265"/>
			<path d="M128.744,154.502c-4.141-5.265-9.971-8.601-14.193-13.601c-1.923-2.278-3.679-4.706-5.442-6.999
				c-2.302,1.249-5.491,4.254-7.474,6.178c-0.948,0.924-2.979,3.069-3.164,4.422c-0.245,1.802,1.969,3.78,2.749,5.29
				c0.653,1.26,1.503,2.759,1.698,4.187c0.436,3.232-2.297,6.727-3.577,9.53c-0.949,2.078-2.206,4.016-3.643,5.78
				c-0.703,0.862-1.211,1.563-2.256,2.013c-0.372,0.159-3.767,0.433-3.784,0.604c-0.119,1.216,0.655,3.283,0.953,4.556
				c0.317,1.341,0.933,2.638,1.542,3.867c0.982,1.976,2.138,4.261,3.719,5.843c2.395,2.396,6.301,4.441,9.205,6.456
				c2.853,1.976,5.9,3.809,9.073,5.425c4.282,2.187,7.1,5.461,11.16,7.914c4.706,2.849,10.198,5.008,15.411,6.164
				c9.098,2.022,19.368,2.243,26.731,8.831c0.932-1.562,3.279-3.049,3.004-4.901c-3.672-2.315-8.665-5.991-9.014-10.949
				c-0.119-1.687,1.192-3.504,1.021-5.016c-0.149-1.341-1.835-2.431-2.964-3.78c-2.137-2.556-4.211-4.811-6.724-7.019
				c-2.363-2.069-5.348-3.74-6.485-6.789c-1.193-3.213-1.683-5.316-3.889-8.254C137.583,167.847,133.697,160.801,128.744,154.502z"
				/>
			<path fill="#FD1813" d="M85.164,140.273c-4.258-0.044-7.98-0.328-12.187,0.386c-6.022,1.022-14.95,5.127-18.151,10.538
				c-3.504,5.928-5.327,13.33-5.302,20.309c0.027,7.533,4.624,13.607,8.531,19.636c3.445,5.318,9.054,8.965,13.114,13.815
				c4.985,5.963,11.108,11.146,16.761,16.536c5.386,5.131,11.463,9.474,16.06,15.146c3.863,4.764,9.043,9.5,9.495,15.965
				c-2.089-1.037-4.421-2.016-6.49-3.188c-4.522-2.554-9.267-5.835-13.05-9.54c-5.409-5.293-9.987-11.65-14.889-17.532
				c-4.637-5.562-9.637-10.732-14.23-16.328c-2.29-2.792-4.393-5.705-6.495-8.662c-2.815-3.97-4.798-8.315-7.312-12.445
				c-2.407-3.959-4.188-8.764-6.896-12.215c-1.67-2.131-3.58-1.218-5.604-0.313c-0.728,0.327-2.293,0.482-2.707,1.205
				c-0.348,0.611,0.449,3.324,0.622,4.022c1.945,7.755,6.204,14.712,9.614,21.839c1.669,3.478,3.88,6.458,6.077,9.595
				c5.286,7.546,8.94,15.803,13.935,23.535c4.964,7.691,11.234,14.83,17.34,21.596c4.139,4.589,9.026,8.316,13.671,12.25
				c1.524,1.292,3.109,2.371,4.78,3.423c4.937,3.115,12.472,4.714,18.192,3.717c7.842-1.37,11.9-11.238,10.475-18.667
				c-1.409-7.36-6.232-13.027-10.86-18.679c-2.317-2.828-4.325-6.024-6.719-8.549c-2.836-2.995-5.907-5.486-8.393-8.861
				c-6.562-8.912-15.521-17.04-19.644-27.366c-1.381-3.456-2.978-7.385-3.287-11.199c-0.252-3.12,0.79-7.215,3.838-9.011
				c2.714-1.602,5.985,0.932,8.509-0.633c1.78-1.1,2.878-4.712,3.983-6.455c4.46-7.046,8.06-13.824-0.336-19.174
				C93.67,142.46,90.107,140.327,85.164,140.273z"/>
			<path d="M84.148,141.933c1.69,1.306-0.887,9.467-0.244,12.3c-4.905-0.529-18.4,4.983-18.783-3.553
				c-0.351-7.796,13.217-9.122,18.826-9.548c0.472,0.625-0.032,0.514-0.242,0.874"/>
			<path d="M35.913,171.491c-0.074,0.579-0.136,1.153,0.118,1.666c0.251,0.496,0.833,0.758,1.312,0.95
				c0.242,0.095,0.505,0.099,0.769,0.144c0.284,0.049,0.614,0.106,0.907,0.081c0.674-0.062,1.396-0.354,2.019-0.593
				c0.493-0.189,1.099-0.342,1.198-0.98c0.045-0.285-0.07-0.567-0.018-0.85c0.064-0.318,0.302-0.658,0.513-0.905
				c0.246-0.291,0.542-0.4,0.872-0.564c0.568-0.284,1.033-0.771,1.452-1.227c0.512-0.556,0.828-1.139,1.002-1.871
				c0.058-0.254,0.123-0.516,0.147-0.78c0.021-0.214,0.123-0.379,0.128-0.596c0.011-0.25-0.021-0.501,0.008-0.756
				c0.03-0.271,0.055-0.539,0.049-0.815c-0.009-0.519-0.067-1.04-0.223-1.532c-0.347-1.106-1.143-1.978-2.006-2.715
				c-3.006-2.571-6.448-4.897-9.879-6.972c-3.052-1.845-9.062-4.491-12.662-3.369c-2.916,0.905-2.442,3.358,0.07,4.328
				c2.178,0.843,4.249,1.207,6.1,2.755c3.174,2.659,7.632,5.603,8.017,9.944c0.054,0.629,0.007,1.26-0.031,1.887
				c-0.03,0.461,0.021,0.823,0.147,1.262C36.054,170.459,35.976,170.979,35.913,171.491z"/>
			<g>
				<path d="M97.179,161.227c-0.165-0.171-0.819-0.273-1.181-0.432c-0.42-0.18-0.847-0.486-1.291-0.656
					c-0.642-0.243-1.856-0.874-1.781,0.384c0.051,0.767,1.77,0.852,2.478,1.135c0.319,0.127,0.818,0.46,1.175,0.415
					c0.317-0.042,0.751-0.486,0.678-0.964"/>
				<path d="M91.138,159.497c-0.053-0.02-0.543-0.314-0.777-0.381c-0.446-0.127-1.019-0.097-1.48-0.159
					c-0.541-0.068-1.515-0.354-2.053-0.141c-0.014,0.407-0.241,0.905-0.08,1.317c0.832-0.196,1.823,0.088,2.668,0.064
					c0.594-0.015,1.831,0.354,1.619-0.685"/>
				<path d="M84.982,158.916c-0.925,0.155-1.862,0.204-2.804,0.379c-1.529,0.286-0.897,0.817-0.774,1.963
					c0.719-0.018,1.349-0.469,2.025-0.64c0.611-0.152,1.409-0.213,1.941-0.558c-0.029-0.302,0.004-0.784-0.336-0.847"/>
				<path d="M78.061,160.414c0.286,0.519,0.713,1.028,0.977,1.557c-0.396,0.08-0.754,0.363-1.131,0.516
					c-0.421,0.172-0.833,0.329-1.245,0.53c-0.756,0.372-1.564,1.031-2.321,1.306c-0.098-0.348-0.097-0.729-0.286-1.045
					c1.028-1.127,3.101-1.309,4.076-2.465"/>
				<path d="M72.2,164.502c0.226,0.245,0.637,0.546,0.854,0.851c-0.72,0.711-1.217,1.642-1.624,2.556
					c-0.197,0.449-0.367,0.885-0.543,1.33c-0.277,0.701-0.325,0.513-0.941,0.186c-0.565-0.297-0.583-0.171-0.223-0.863
					c0.267-0.506,0.502-1.005,0.792-1.489c0.325-0.543,1.127-2.255,1.819-2.392"/>
				<path d="M68.674,170.851c0.268,0.325,1.052,0.355,1.493,0.381c-0.277,0.758-0.323,1.572-0.375,2.398
					c-0.045,0.736,0.328,1.863,0.086,2.54c-0.257-0.132-0.884-0.338-1.075-0.54c-0.367-0.374-0.286-1.13-0.295-1.592
					c-0.017-0.773-0.222-3.081,0.218-3.501"/>
				<path d="M68.754,179.043c0.144,0.487,1.132,0.094,1.532,0.06c0.164,0.577,0.151,1.379,0.264,2.03
					c0.154,0.902,0.55,1.715,0.637,2.605c-0.342,0.09-0.716,0.151-1.067,0.186c-0.289-0.833-0.551-1.701-0.761-2.565
					c-0.158-0.624-0.336-1.786-0.571-2.116"/>
				<path d="M70.675,187.228c0.294,0.415,1.082,0.097,1.534,0.056c0.391,1.502,1.056,3.033,1.683,4.398
					c-0.317,0.081-0.878,0.204-1.124,0.402c-0.772-1.285-1.603-2.701-1.871-4.178"/>
				<path d="M74.113,196.743c0.572,0.173,1.411,0.214,2.042-0.237c0.564,1.623,1.897,3.378,3.213,4.444
					c-1.825,0.559-1.633,0.575-2.863-0.952c-0.572-0.709-1.98-2.528-2.292-2.662"/>
				<path d="M79.868,203.662c0.619,0.088,0.938,0.357,1.422-0.216c0.544,1.466,2.405,3.312,3.539,4.473
					c-2.267,1.125-3.875-2.935-5.256-4.206"/>
				<path d="M86.265,210.775c0.17-0.054,0.583,0.007,0.834-0.1c0.937,1.448,2.395,2.517,3.424,3.861
					c-0.123,0.164-0.793,0.704-0.962,0.796c-1.368-1.393-2.294-3.054-3.591-4.505"/>
				<path d="M94.644,220.589c-0.296-0.704-2.167-2.175-2.913-3.071c0.336-0.461,0.476-0.476,1.029-0.506
					c1.133,1.499,3.183,2.764,4.109,4.346c-0.578,0.77-1.295,0.597-1.534-0.282"/>
				<path d="M101.888,229.078c-0.505,0.06-2.868-2.446-3.263-3.335c1.239-1.315,3.513,1.771,4.607,2.571
					c-0.11,0.558-0.479,0.843-1,1.008"/>
				<path d="M108.191,237.424c-1.059-1.644-2.148-3.361-3.251-4.923c1.476-1.76,4.151,3.036,5.12,4.014
					c-0.866-0.1-0.635,0.415-0.983,0.755"/>
				<path d="M111.98,245.289c0.524-0.932-1.209-3.178-1.601-4.237c0.44-0.212,1.197-0.346,1.687-0.296
					c0.48,1.777,1.623,4.017,2.492,5.547c-0.772,0.225-1.501,0.442-2.081,0.116"/>
				<path d="M114.618,250.006c0.928,1.432,1.372,4.503,1.744,6.346c3.98,0.564-0.498-7.016-1.449-6.397"/>
				<path d="M116.538,259.41c0.347,1.032,0.354,2.917,0.014,3.9c-0.776,0.261-5.228,0.25-4.962-1.156
					c0.178-0.935,1.839,0.165,2.4,0.128c1.302-0.091,1.147-0.468,1.233-1.992c0.561-0.297,1.086-0.27,1.469,0.004"/>
				<path d="M108.228,262.362c0.208-0.282,0.329-0.775,0.367-1.211c-1.285-0.074-6.571-2.227-6.354-0.252
					c2.105,0.62,4.258,1.573,6.382,2.004"/>
				<path d="M99.385,258.713c-1.232-0.488-3.774-3.9-5.088-2.551c-1.016,1.046,3.402,3.496,4.542,3.209
					c-0.115-0.416,0.192-0.406,0.25-0.608"/>
				<path d="M91.715,253.039c0.285,0.202,0.302,0.214,0.052,0.027c-1.108-0.764-4.611-2.94-5.384-1.621
					c2.038,1.103,4.177,2.427,6.194,3.522c0.198-0.194,0.198-0.367,0.275-0.609"/>
				<path d="M84.247,248.542c-0.053,0.154-2.219-1.984-2.811-2.625c-0.978-1.057-1.608-2.231-2.982-1.193
					c0.414,1.165,4.668,6.154,5.547,4.165"/>
				<path d="M78.096,241.083c-0.459-1.598-1.479-3.25-2.387-4.708c-0.531-0.041-1.208-0.048-1.734-0.027
					c0.341,1.7,2.192,3.362,2.981,4.88C77.292,241.232,77.775,241.225,78.096,241.083"/>
				<path d="M72.525,231.696c0.317,0.134,0.881,0.02,1.424-0.288c-0.21-2.06-2.694-3.562-3.061-5.718
					c-0.259,0.314-0.368,0.328-0.756,0.687C70.064,227.814,71.792,231.421,72.525,231.696"/>
				<path d="M67.045,221.081c0.658,0.023,1.288-0.38,1.978-0.714c-1.179-1.556-2.43-3.13-3.577-4.736
					c-0.364-0.031-0.765,0.003-1.092,0.186c0.785,1.569,2.796,3.702,3.041,5.51"/>
				<path d="M62.414,211.838c0.427,0.043,1.03-0.17,1.426-0.291c0.095-1.604-2.214-3.488-2.974-4.866
					c-0.369-0.038-0.771,0.011-1.099,0.199c0.98,1.351,1.768,3.924,3.239,4.856"/>
				<path d="M56.946,203.046c0.337,0.066,0.748-0.031,1.13-0.24c-0.008-1.286-2.248-4.713-3.681-4.128
					c0.863,1.298,1.726,3.464,2.845,4.318"/>
				<path d="M52.562,195.281c0.354,0.22,0.659,0.372,1.188,0.045c-0.558-1.778-2.039-3.453-2.726-5.209
					c-0.324-0.006-0.498,0.016-0.798,0.139c-0.042,1.446,1.683,3.952,2.635,4.975"/>
				<path d="M48.329,186.581c0.297,0.183,0.401,0.437,0.886,0.104c0.127-1.39-2.188-5.535-3.781-4.732
					c1.24,1.649,1.671,4.604,3.098,5.806"/>
				<path d="M43.8,177.931c0.449,0.019,1.024-0.173,1.439-0.293c-0.39-1.029-1.646-4.249-3.004-3.649
					c0.805,1.325,1.109,3.02,2.207,4.134"/>
			</g>
			<g>
				<path fill="#FF0000" d="M82.029,152.869c-0.464-0.468-1.935-0.24-2.619-0.537c0.106-0.293,0.073-0.724-0.021-1.051
					c0.627-0.206,1.665,0.075,2.351,0.072C81.876,151.842,81.94,152.364,82.029,152.869"/>
				<path fill="#FF0000" d="M77.621,153.153c0.185-0.326,0.023-0.808-0.08-1.237c-0.741,0.063-1.548,0.201-2.271,0.39
					C75.162,153.818,77.011,153.258,77.621,153.153"/>
				<path fill="#FF0000" d="M73.701,153.509c-0.071-0.407-0.128-0.821-0.229-1.211c-0.772,0.068-1.373-0.202-2.172,0.056
					c-0.034,0.204,0.028,0.548,0.128,0.728c0.77-0.066,1.479,0.214,2.25,0.272"/>
				<path fill="#FF0000" d="M69.573,152.628c0.268-0.282,0.279-0.59,0.289-0.964c-0.679-0.388-1.218-0.843-1.955-1.076
					c-0.044,0.03-0.333,0.308-0.361,0.343c0.491,0.838,1.627,1.317,2.392,1.892c-0.056-0.159-0.135-0.249-0.24-0.378"/>
				<path fill="#FF0000" d="M66.718,148.981c0.288,0.235,0.614,0.281,0.946,0.131c0.115-0.674,0.333-1.352,0.576-1.987
					c-0.763-0.407-1.154,1.156-1.396,1.676"/>
				<path fill="#FF0000" d="M69.613,145.46c0.607,0.06,1.495-0.538,2.057-0.811c0.108,0.184,0.16,0.518,0.131,0.729
					c-0.762,0.199-1.736,0.153-2.401,0.576c-0.164-0.223,0.009-0.186,0.085-0.314"/>
				<path fill="#FF0000" d="M73.058,144.23c0.683,0.278,2.067-0.156,2.783-0.344c0.031-0.203-0.026-0.545-0.127-0.727
					C74.961,143.223,73.28,143.35,73.058,144.23"/>
				<path fill="#FF0000" d="M77.54,143.458c0.584-0.161,1.515,0.112,2.191-0.086c0.032-0.2-0.023-0.544-0.124-0.726
					c-0.638,0.057-1.412,0.353-2.014,0.229c0.024,0.182-0.08,0.257-0.078,0.428"/>
				<path fill="#FF0000" d="M81.205,143.464c0.504,0.153,0.982,0.163,1.491,0.325c0.208-0.428-0.027-1.163-0.152-1.645
					c-0.486,0.065-0.951,0.219-1.391-0.048c0.04,0.457,0.06,0.96,0.359,1.315"/>
			</g>
			<path fill="#FF0000" d="M176.973,162.551c0.001,0.136,0.058,0.173,0.172,0.116c0.178-0.497,0.33-0.957,0.409-1.479
				c0.64,0.206,0.997,1.562,1.634,2.02c0.45-0.319,0.907-0.559,1.413-0.754c-0.244,0.318-0.471,1.446-0.404,1.915
				c0.11,0.779,0.881,1.094,1.065,1.858c-0.7-0.03-1.497-0.88-2.086-0.407c-0.408,0.326-0.962,1.987-1.021,2.523
				c-0.024-0.648-0.371-1.423-0.544-2.058c-0.813,0.196-1.855,0.082-2.636-0.032c0.674-0.446,1.319-1.046,2.072-1.357
				c-0.222-0.577-1.2-0.864-1.609-1.446c0.55-0.078,1.095-0.185,1.645-0.28"/>
			<g>
				<path fill="#FF0000" d="M100.24,175.909c0.687,0.561,1.629,1.863,1.864,2.696c0.491,0.055,0.64-0.348,0.965-0.585
					c-0.29-0.941-1.448-1.773-1.976-2.646c-0.188,0.003-0.476,0.006-0.653,0.089"/>
				<path fill="#FF0000" d="M104.674,180.807c0.524,0.538,1.135,0.994,1.675,1.501c0.244,0.236,0.383,0.614,0.715,0.549
					c0.257-0.049,0.474-0.509,0.44-0.711c-0.038-0.222-1.107-0.95-1.316-1.153c-0.431-0.424-0.781-1.086-1.427-0.478"/>
				<path fill="#FF0000" d="M109.595,185.347c0.439,0.457,2.509,2.875,2.828,1.758c0.159-0.548-2.18-2.666-2.556-1.805"/>
				<path fill="#FF0000" d="M114.9,189.679c0.02,0.483,2.07,2.397,2.466,2.101c0.575-0.433-0.809-1.373-1.118-1.68
					c-0.69-0.694-0.849-0.917-1.774-0.487"/>
				<path fill="#FF0000" d="M119.263,194.176c0.5,0.72,2.035,2.257,2.885,2.519c0.134-0.279,0.732-0.674,0.717-0.931
					c-0.013-0.177-0.801-0.713-0.949-0.832c-0.87-0.693-1.366-1.245-2.336-0.649c-0.013,0.126,0.006,0.255,0.043,0.378"/>
				<path fill="#FF0000" d="M124.941,197.478c1.076,0.667,2.219,1.686,3.484,2.001c0.096-0.284,0.271-0.604,0.422-0.845
					c-0.575-0.463-3.245-1.989-3.79-1.429c-0.028,0.084-0.021,0.167,0.018,0.25"/>
				<path fill="#FF0000" d="M130.06,200.739c0.492,0.403,1.053,0.849,1.567,1.286c0.755,0.644,0.65,0.465,1.275-0.116
					c-0.526-0.33-1.008-0.808-1.565-1.119c-0.291-0.161-1.227-0.603-0.852,0.013"/>
				<path fill="#FF0000" d="M134.437,203.714c0.783,0.875,1.877,1.525,2.654,2.421c0.14-0.05,0.364-0.223,0.448-0.364
					c-0.263-0.349-2.48-2.698-2.766-1.704"/>
				<path fill="#FF0000" d="M138.352,208.008c0.973,0.697,1.811,2.209,3.051,1.799c-0.279-0.883-1.924-1.196-2.431-2.027
					c-0.152,0.068-0.272,0.187-0.331,0.315"/>
				<path fill="#FF0000" d="M98.191,173.64c0.026-0.733-1.827-0.782-2.022-1.479c-0.239-0.838,0.606-0.379,0.95-0.171
					c0.549,0.339,1.177,0.842,1.654,1.285c-0.369-0.031-0.277,0.169-0.444,0.341"/>
				<path fill="#FF0000" d="M142.779,210.327c0.178-0.065,0.251-0.218,0.411-0.295c0.167-0.081,0.346,0.117,0.531,0.2
					c0.299,0.131,0.61,0.264,0.93,0.362c0.177,0.057,0.401,0.166,0.578,0.176c-0.172,0.048-0.121,0.398-0.268,0.436
					c-0.036,0.01-0.256-0.094-0.294-0.106c-0.181-0.061-0.352-0.137-0.534-0.203c-0.417-0.15-0.833-0.342-1.259-0.424
					c-0.012-0.05-0.016-0.113,0.001-0.163"/>
				<path fill="#FF0000" d="M147.376,212.189c0.181,0.062,0.232-0.27,0.304-0.383c0.077-0.119,0.033-0.123,0.167-0.131
					c0.047-0.002,0.228,0.07,0.273,0.085c0.514,0.167,1.06,0.413,1.536,0.665c-0.151,0.083-0.121,0.275-0.23,0.363
					c-0.189,0.153-0.496-0.1-0.69-0.192c-0.224-0.11-0.451-0.208-0.68-0.3c-0.136-0.054-0.405-0.097-0.5-0.203"/>
				<path fill="#FF0000" d="M151.409,213.086c0.07-0.029,0.2-0.183,0.281-0.279c0.165-0.186,0.196-0.165,0.425-0.083
					c0.595,0.212,1.23,0.455,1.839,0.579c-0.059,0.035-0.134,0.055-0.181,0.097c-0.058,0.053-0.066,0.147-0.125,0.189
					c-0.146,0.106-0.395-0.021-0.575-0.069c-0.372-0.094-0.724-0.203-1.08-0.343c-0.126-0.05-0.458-0.121-0.498-0.172"/>
				<path fill="#FF0000" d="M155.383,214.025c0.344,0.031,0.5-0.557,0.887-0.41c0.295,0.114,0.571,0.311,0.869,0.439
					c0.14,0.06,0.37,0.133,0.474,0.244c-0.08,0.043-0.17,0.086-0.238,0.146c-0.063,0.057-0.036,0.131-0.137,0.16
					c-0.14,0.038-0.549-0.185-0.671-0.224c-0.167-0.053-1.026-0.167-1.083-0.338"/>
				<path fill="#FF0000" d="M159.713,215.304c0.123-0.021,0.111-0.269,0.257-0.287c0.125-0.013,0.411,0.158,0.531,0.207
					c0.288,0.117,0.54,0.287,0.82,0.416c0.13,0.061,0.471,0.115,0.518,0.26c0.035,0.089-0.082,0.268-0.152,0.282
					c-0.153,0.037-0.602-0.28-0.747-0.337c-0.23-0.093-0.449-0.219-0.684-0.304c-0.092-0.035-0.44-0.081-0.396-0.163"/>
				<path fill="#FF0000" d="M163.476,216.743c0.143-0.048,0.235-0.227,0.378-0.294c0.205,0.229,0.444,0.386,0.693,0.558
					c0.246,0.165,0.657,0.481,0.81,0.737c-0.163-0.066-0.186,0.062-0.308,0.113c-0.157,0.063-0.25-0.027-0.415-0.122
					c-0.219-0.13-0.402-0.305-0.603-0.455c-0.121-0.096-0.314-0.149-0.411-0.262"/>
				<path fill="#FF0000" d="M166.601,218.526c0.118,0.142,0.383,0.184,0.553,0.27c0.189,0.098,0.39,0.208,0.524,0.367
					c0.143,0.166,0.309,0.626,0.025,0.726c-0.007-0.015-0.014-0.03-0.02-0.051c-0.102-0.022-0.197-0.022-0.272,0.046
					c0.431-0.23-0.563-0.983-0.815-1.029c-0.013-0.033-0.015-0.052-0.015-0.085c0.085-0.049,0.141-0.132,0.152-0.232"/>
				<path fill="#FF0000" d="M160.379,198.625c-0.075-0.169-1.788-1.067-1.511-1.459c0.285-0.401,1.963,1.089,2.233,1.306
					c-0.245,0.045-0.349,0.207-0.549,0.276"/>
				<path fill="#FF0000" d="M155.353,194.167c0.58,0.572,1.35,0.984,1.848,1.649c0.612-0.743-1.025-1.371-1.612-1.822
					C155.508,194.049,155.44,194.102,155.353,194.167"/>
				<path fill="#FF0000" d="M152.822,190.952c0.449,0.651,1.015,1.281,1.571,1.833c0.824-0.528-0.862-1.75-1.225-2.326
					c-0.18,0.006-0.401,0.085-0.544,0.222"/>
				<path fill="#FF0000" d="M150.342,188.034c0.336,0.474,1.189,1.763,1.829,1.174c-0.7-0.458-1.515-0.977-2.298-1.247"/>
			</g>
			<path fill="#FD1813" d="M140.579,247.059c11.588,2.09,23.543,2.734,35.555,4.892c8.3,1.489,16.702,2.837,25.076,3.287
				c3.061,0.165,5.824,0.27,8.841,0.176c3.766-0.117,6.485,1.063,10.135,1.608c3.425,0.509,6.99-0.488,10.362,0.333
				c3.428,0.833,6.824,2.068,10.314,2.866c3.032,0.696,6.155,0.795,9.175,1.63c3.312,0.911,6.763,1.764,10.206,2.087
				c2.079,0.2,1.906,0.526,3.209-1.628c0.58-0.963,1.267-2.524,2.053-3.406c-0.432-2.484-4.425-2.812-6.434-3.61
				c-2.457-0.977-4.777-1.936-7.202-2.733c-7.119-2.342-13.866-5.628-21.456-6.082c-8.526-0.507-16.769-0.466-25.28-1.322
				c-2.713-0.272-5.4-0.358-8.143-0.5c-2.491-0.129-7.756,0.579-9.627-1.088"/>
			<path d="M267.983,259.129c1.825-0.427,3.886-1.381,5.38-2.544c4.096-3.19,5.471-7.667,8.602-11.439
				c1.617-1.948,4.73-2.049,5.684,0.607c0.926,2.583-0.611,4.427-2.161,6.324c-1.418,1.74-2.615,3.463-3.557,5.428
				c-1.024,2.141-1.035,4.71-1.896,6.981c-0.594,1.581-2.085,4.047-3.989,4.429c-1.572,0.312-3.606-1.565-4.898-2.236
				c-1.639-0.852-3.661-1.245-5.294-1.971c-1.907-0.848-5.5-1.261-4.222-4.193c0.418-0.955,1.333-1.115,2.287-1.163
				C265.275,259.289,266.647,259.442,267.983,259.129z"/>
			<g>
				<path fill="#FF0000" d="M163.831,190.953c0.001,0.045,0.026,0.062,0.069,0.057c0.218-0.227,0.852-0.221,1.158-0.275
					c0.358-0.064,0.678-0.165,0.999-0.247c-0.037-0.126-0.026-0.295-0.009-0.406c-0.449,0.035-0.908,0.152-1.354,0.23
					c-0.19,0.034-0.459,0.033-0.601,0.15c-0.135,0.11-0.131,0.32-0.272,0.432"/>
				<path fill="#FF0000" d="M168.129,189.396c0.454,0.084,0.92-0.208,1.338-0.364c0.424-0.153,0.519-0.45,0.553-0.894
					c-0.377,0.067-0.679,0.366-1.016,0.534c-0.518,0.258-1.131,0.484-1.56,0.851c0.076-0.087,0.191-0.131,0.32-0.123"/>
				<path fill="#FF0000" d="M171.963,187.615c0.388,0.148,1.16-0.423,1.556-0.596c0.495-0.214,0.272-0.317,0.328-0.768
					c-0.397,0.112-0.872,0.426-1.263,0.658c-0.474,0.28-0.958,0.304-0.589,0.883"/>
				<path fill="#FF0000" d="M176.454,185.414c0.426-0.004,1.098-0.415,1.465-0.63c0.319-0.182,0.349-0.543,0.087-0.861
					c-0.28,0.388-0.947,0.592-1.359,0.835c-0.104,0.063-0.456,0.167-0.491,0.293c-0.051,0.19,0.122,0.425,0.309,0.42"/>
				<path fill="#FF0000" d="M179.888,183.094c0.145,0.262,0.231,0.565,0.455,0.765c0.3-0.275,0.729-0.335,1.102-0.505
					c0.146-0.067,0.345-0.167,0.428-0.323c0.133-0.242,0.039-0.265-0.022-0.52c-0.363-0.033-0.738,0.354-1.071,0.471
					c-0.317,0.116-0.625,0.157-0.917,0.313c0.041,0.086,0.057,0.002,0.115-0.033"/>
				<path fill="#FF0000" d="M183.594,181.643c0.098,0.192,0.123,0.473,0.256,0.677c0.352,0.024,0.811-0.303,1.128-0.434
					c0.459-0.188,0.35-0.287,0.353-0.73c-0.213,0.147-0.542,0.176-0.799,0.257c-0.274,0.085-0.528,0.231-0.797,0.327"/>
				<path fill="#FF0000" d="M186.654,180.304c0.415,1.286,0.777,0.061,1.569,0.03c-0.203-0.12-0.113-0.375-0.256-0.545
					c-0.15,0.206-0.418,0.251-0.641,0.35c-0.277,0.124-0.562,0.413-0.867,0.443"/>
			</g>
			<g>
				<path d="M118.866,233.673c-0.024,0.12-0.27-0.45-0.514-0.807c1.548-0.046,3.695,0.741,5.24,1.39
					c-0.073,0.396-0.083,0.907-0.024,1.342c-1.353-0.368-2.835-0.755-4.176-1.307"/>
				<path d="M126.478,236.873c0.5,0.008,0.849-0.24,1.045-0.708c1.261,0.865,2.86,0.813,4.148,1.468
					c-0.264,1.303-0.734,1.217-1.824,0.892c-0.887-0.263-2.283-0.404-2.648-1.279"/>
				<path d="M142.563,242.955c0.6,0.187,1.407,0.478,2.047,0.408c0.063-0.136,0.146-0.47,0.164-0.606
					C143.856,242.273,143.206,241.937,142.563,242.955"/>
				<path d="M148.352,244.101c1.165,0.51,3.104,0.946,4.38,0.992c0.074-0.149,0.142-0.401,0.167-0.549
					c-0.867-0.494-3.069-0.902-4.087-0.686c-0.03,0.215-0.008,0.42,0.04,0.638"/>
				<path d="M156.256,245.911c0.674,0.444,3.534,1.296,4.379,1.043c0.19-0.422,0.221-0.844,0.088-1.295
					c-1.273-0.221-3.016-0.737-4.309-0.643c0.1,0.468,0.066,0.919-0.106,1.34"/>
				<path d="M164.082,247.05c0.941,0.451,3.365,1.114,4.361,0.826c0.269-1.562-2.976-1.209-3.931-1.518
					c-0.267,0.39-0.299,0.863-0.128,1.338"/>
				<path d="M171.065,248.741c1.579,0.452,3.467,0.366,5.051,0.979c-0.014-0.284-0.187-0.747-0.336-1.034
					c-1.125,0.251-3.002-0.107-4.034-0.44c-0.247,0.205-0.222,0.382-0.211,0.665"/>
				<path d="M178.471,250.154c1.193,0.463,3.095,0.772,4.356,0.833c0.02-0.25-0.004-0.368-0.065-0.605
					c-0.987-0.171-4.162-1.408-4.54-0.424"/>
				<path d="M186.193,250.402c0.065,0.518,0.11,1.035,0.223,1.537c1.319-0.957,3.721,0.01,5.306-0.393
					c0.023-0.244,0.008-0.372-0.07-0.605c-1.815,0.06-3.504-0.033-5.182-0.118"/>
				<path d="M195.582,251.365c0.271,0.363,0.407,0.806,0.407,1.276c1.388-0.042,2.849,0.015,4.2-0.26
					c0.093-0.459,0.2-0.885,0.317-1.31c-1.538,0.009-3.138,0.313-4.673,0.491"/>
				<path d="M203.753,251.56c0.035,0.217,0.129,0.901,0.183,1.303c1.306-0.04,3.239,0.129,4.43-0.283
					c-0.078-0.439-0.073-0.947,0.021-1.341c-1.43,0.216-2.867,0.083-4.186,0.268"/>
				<path d="M211.9,251.532c-0.1,2.374,1.591,1.047,3.021,0.976c0.054-0.364-0.015-0.936-0.153-1.278
					c-0.899,0.247-1.765,0.616-2.817,0.748"/>
			</g>
			<path d="M197.792,277.975c-11.544-3.681-16.654-15.282-13.953-26.685c1.008-4.264,1.366-8.324,3.477-12.268
				c1.842-3.443,4.141-6.666,6.531-9.748c2.978-3.834,12.175-10.308,16.896-6.839c-2.772,1.896-5.952,3.167-8.21,5.664
				c-2.204,2.438-3.473,6.198-5.261,9.011c-4.518,7.098-7.067,14.264-4.416,22.377c3.219,9.852,14.588,14.687,24.144,15.587
				c3.646,0.342,7.41,0.565,10.959-0.003c9.186-1.483,16.357-8.177,18.674-17.533c1.794-7.259-0.709-14.393-4.997-20.504
				c-4.052-5.782-13.878-8.659-20.241-11.07c-1.738-0.663-4.059-1.13-5.529-2.172c1.278-0.744,1.801-2.394,3.358-2.748
				c1.054-0.237,3.654,0.559,4.792,0.742c3.211,0.518,6.547,1.195,9.704,1.879c7.02,1.521,13.113,4.965,16.56,11.268
				c4.333,7.926,7.146,15.314,5.193,24.427c-1.832,8.542-5.208,15.979-12.403,21.366c-5.882,4.401-14.791,4.579-21.714,3.271
				C213.395,282.496,205.544,280.448,197.792,277.975z"/>
			<path fill="#245977" d="M194.836,262.866c-0.251,2.043-3.016,1.006-3.892,3.038c0.118,0.522,0.525,1.143,0.886,1.447
				c1.293-0.919,2.684-1.458,4.039-2.119c-1.752,4.243-0.695,6.05,2.865,1.996c-1.059,3.116-1.219,7.273,2.829,3.624
				c2.717-2.452,2.528-4.384,0.25-6.953c-2.021-2.278-3.642-4.111-6.778-3.75c-3.536,0.405-4.135,1.958-2.958,5.065"/>
			<path d="M217.56,253.415c1.24,0.676,2.822,0.816,3.953-0.193c-0.554-1.707-2.648-1.211-3.898-0.804
				c0.014,0.299,0.126,0.559,0.341,0.778"/>
			<path d="M226.13,254.887c1.632,0.065,3.626,0.802,4.969-0.251c-0.806-1.156-3.465-0.731-4.791-0.364"/>
			<path d="M235.894,255.699c1.394-0.207,2.804,0.211,4.158,0.236c-0.459-1.624-3.944-1.712-4.774-0.412"/>
			<path fill="#FD1813" d="M250.293,261.833c0.902,0.27,1.812,0.322,2.707,0.612c0.807,0.26,1.921,0.949,2.747,0.555
				c0.905-0.434,1.317-0.885,1.739-1.797c0.519-1.113,0.981-2.474,1.249-3.667c0.164-0.74,0.371-1.961-0.27-2.518
				c-0.794-0.69-2.24-0.772-3.176-1.251c-1.026-0.527-2.109-1.038-3.206-1.4c-0.966-0.318-1.934-0.5-2.886-0.832
				c-0.663-0.232-1.671-0.689-2.379-0.625c-0.798,0.073-0.686,1.05-0.915,1.68c-0.29,0.801-0.659,1.579-1.033,2.355
				c-0.674,1.402-1.505,2.893-1.932,4.375c-0.182,0.632-0.192,0.658,0.301,0.957c0.38,0.227,0.805,0.503,1.232,0.622
				c0.872,0.251,1.502,0.547,2.415,0.54c0.671-0.004,1.363,0.034,2.022,0.081C249.392,261.556,249.84,261.699,250.293,261.833z"/>
			<path d="M243.43,257.866c0.265-0.149,0.219-0.731,0.488-0.996c0.406,0.398,1.131,0.504,1.66,0.645
				c0.813,0.217,1.613,0.463,2.393,0.811c-0.423-0.105-0.405,0.387-0.733,0.504c-0.321,0.112-0.756-0.14-1.075-0.197
				c-0.743-0.134-1.967,0.109-2.555-0.424c0.084,0.091,0.171,0.175,0.26,0.259"/>
			<path d="M250.661,259.678c0.303,0.099,0.109-0.505,0.506-0.568c0.254-0.041,0.793,0.249,1.056,0.335
				c0.82,0.273,1.575,0.679,2.35,0.986c-0.658-0.223-1.198,0.106-1.843,0.085c-0.488-0.02-1.515-0.154-1.909-0.38
				c0.067-0.017,0.115-0.01,0.189-0.02"/>
			<path d="M257.46,262.043c0.076,0.045,0.147,0.04,0.207-0.015c0.002-0.179-0.062-0.362-0.171-0.517
				c0.54-0.345,1.649,0.349,2.196,0.561c0.54,0.208,1.336,0.286,1.791,0.583c-0.225,0.15-0.581,0.425-0.85,0.41
				c-0.299-0.014-0.75-0.404-1.083-0.49c-0.639-0.165-1.92-0.047-2.344-0.604"/>
		</g>
		<g>
			<path d="M430.181,310.974c-0.037,0.1-0.071,0.2-0.106,0.303c-0.48,1.41-0.945,2.832-1.335,4.27
				c-0.211,0.779-0.381,1.569-0.562,2.355c-0.177,0.769-0.433,1.521-0.597,2.292c-0.237,1.098-0.373,2.216-0.604,3.314
				c-0.128,0.609-0.119,1.337-0.329,1.917c-0.729-0.149-1.393-0.071-2.145-0.021c-1.301,0.086-2.615,0.092-3.915,0.197
				c-0.824,0.066-1.647,0.146-2.47,0.163c-0.644,0.011-1.324,0.097-1.967,0.071c0.094-0.379-0.112-0.956-0.242-1.329
				c-0.237-0.689-0.587-1.329-0.913-1.981c-0.701-1.397-1.06-2.847-1.416-4.372c-0.718-3.078-1.734-6.056-2.518-9.107
				c-0.3-1.166-0.69-2.327-1.084-3.463c-0.366-1.059-0.726-2.149-1.237-3.15c-0.265-0.517-0.454-1.069-0.798-1.544
				c-0.298-0.415-0.603-0.841-0.923-1.241c-0.308-0.38-0.576-0.787-0.86-1.181c-0.434-0.604-0.883-1.191-1.328-1.787
				c-1.02-1.367-1.969-2.808-3.205-4c-0.268-0.259-0.565-0.479-0.771-0.794c-0.199-0.306-0.418-0.553-0.68-0.813
				c-0.637-0.637-1.278-1.269-1.947-1.871c-0.671-0.604-1.369-1.178-2.11-1.697c-0.626-0.437-1.192-0.924-1.815-1.354
				c-0.264-0.184-0.433-0.482-0.725-0.626c-0.277-0.139-0.554-0.242-0.825-0.403c-0.739-0.436-1.48-0.862-2.223-1.291
				c-2.779-1.612-8.543-3.006-9.514-6.289c2.506-3.97,28.707-11.433,34.606-11.749c9.917-0.536,16.341,0.231,23.882,1.349
				c4.866,0.727,7.501,3.094,11.719,5.298c6.18,3.227,5.974,3.868,0.582,8.036c-2.766,2.137-5.43,4.404-7.996,6.771
				c-0.319,0.298-0.66,0.576-0.977,0.88c-1.174,1.126-2.195,2.335-3.196,3.625c-0.523,0.676-1.072,1.414-1.462,2.175
				c-0.435,0.851-0.975,1.639-1.412,2.492c-0.315,0.611-0.657,1.201-0.984,1.806c-0.376,0.692-0.619,1.431-0.964,2.134
				c-0.918,1.886-1.81,3.772-2.585,5.722C431.577,307.728,430.778,309.304,430.181,310.974z"/>
			<path fill="#FFFFFF" d="M387.768,278.705c4.329,0.13,9.547,2.956,14.343,3.713c5.404,0.854,11.777,1.283,17.072,0.652
				c9.042-1.08,21.532-1.586,29.676-6.521c-4.422-0.718-10.361,2.729-14.74,3.59c-5.233,1.021-10.97,1.412-16.312,1.896
				c-5.534,0.51-11.002,1.25-16.774,0.81c-2.886-0.217-6.048-0.115-8.661-1.296c-2.114-0.963-3.895-2.787-6.116-3.486"/>
		</g>
		<g>
			<path d="M609.391,135.417c0.616-7.964,13.385-13.694,19.95-14.723c9.75-1.53,19.337-1.158,27.014,5.968
				c6.519,6.052,7.719,15.801,5.641,24.218c-2.258,9.155-12.189,14-20.905,14.07c-16.442,0.136-22.758-23.657-12.331-33.712
				c11.244-10.849,27.067-12.542,40.938-6.811c10.388,4.292,15.063,16.066,16.918,26.499c1.819,10.248,7.425,33.96-4.655,40.387
				c5-14.834,5.293-31.271,0.354-46.321c-2.49-7.59-8.483-12.881-15.831-15.485c-7.314-2.593-17.454-4.695-24.874-1.868
				c-7.892,3.006-10.998,10.854-11.866,18.711c-0.867,7.813,8.131,12.57,14.847,11.682c7.689-1.015,12.485-9.901,12.642-17.256
				c0.154-7.191-6.481-11.868-12.449-13.694c-8.084-2.474-16.398-2.615-24.032,1.743c-6.581,3.757-12.329,11.2-13.531,18.639"/>
			<path d="M654.256,151.835c-5.551-0.833-10.539-8.442-14.392-12.191c-1.579-1.534-3.252-3.314-4.971-4.665
				c-2.463-1.938-2.705-0.994-4.463,1.319c4.105,3.542,8.371,7.118,12.16,11.007c2.223,2.283,4.559,4.707,6.948,6.73
				c0.498,0.423,1.38,1.534,2.052,1.552c1.074,0.028,2.674-2.121,2.521-2.403"/>
			<path d="M657.32,156.732c0.012,2.583,3.139,0.308,4.738,1.055c0.607,2.1-0.219,4.995-2.247,6.188
				c-2.656,1.566-3.756-0.624-2.148-2.573c-1.07-0.168-2.037-0.695-2.449-1.719"/>
			<path d="M658.07,145.432c-2.325,0.45-5.772-2.78-7.758-4.059c-2.841-1.826-5.099-4.164-7.722-6.327
				c-1.652-1.363-3.988-2.696-5.337-4.354c-2.136-2.632-0.187-2.961,2.409-1.805c4.196,1.868,8.279,5.071,11.69,8.051
				c1.985,1.742,3.938,3.516,5.921,5.22c2.105,1.813,3.186,1.999,1.538,4.727"/>
			<path d="M662.893,146.431c0.859,0.58,1.439,1.414,1.628,2.391c1.304,0.022,6.018-4.16,4.689,1.506
				c-0.653,2.784-5.772,4.95-4.607,0.46c-2.712,0.086-4.164-1.98-3.479-4.556"/>
			<path d="M604.134,203.031c-0.04,1.098-0.144,2.049-0.497,3.064c-0.308,0.897-0.439,1.781-0.763,2.634
				c1.364,0.57,2.286,1.97,3.616,2.642c2.404,1.213,4.761,2.655,7.341,3.533c3.398,1.156,7.109,2.273,10.704,2.407
				c2.852,0.108,5.687,0.389,8.515-0.181c3.391-0.677,6.916-1.273,10.224-1.998c1.767-0.388,3.434-1.22,5.191-1.519
				c0.164-0.637-1.065-1.549-1.479-1.954c-0.326-0.318-1.006-1.36-1.394-1.543c-0.225-0.106-0.615,0.077-0.911,0.114
				c-0.489,0.06-0.966,0.088-1.468,0.118c-0.929,0.054-1.817,0.272-2.752,0.3c-2.466,0.067-4.978,0.265-7.459,0.518
				c-2.427,0.243-4.802,0.621-7.246,0.524c-2.245-0.085-4.363-0.56-6.547-1.018c-1.598-0.332-3.299-0.749-4.828-1.323
				c-1.718-0.646-3.444-1.444-5.129-2.226c-0.71-0.329-1.384-0.68-2.076-1.061c-0.614-0.342-2.23-0.984-2.406-1.714"/>
		</g>
		<path fill="#245977" d="M363.411,267.093c-4.495-1.571-9.031-3.012-13.448-4.805c-2.64-1.074-5.25-2.242-7.742-3.629
			c-2.175-1.208-4.112-2.761-6.175-4.083c-1.612-1.036-6.267-5.398-1.814-5.638c1.607-0.086,3.663,0.581,5.201,1.046
			c1.928,0.583,3.701,1.328,5.628,1.85c1.54,0.417,3.814,1.409,3.449-1.078c-0.474-3.24-4.238-5.626-6.023-8.201
			c-2.467-3.56-4.621-7.972-4.735-12.378c-0.067-2.541,2.107-3.162,4.166-2.199c3.386,1.584,5.156,5.733,7.391,8.535
			c3.812,4.773,7.566,9.527,11.737,13.997c2.537,2.717,4.606,5.224,7.697,7.338c1.31,0.896,2.772,1.914,4.364,2.208
			c1.05,0.196,2.513,0.081,3.332-0.731c0.699-0.693,0.682-1.959,0.828-2.877c0.354-2.189,0.71-4.394,1.363-6.519
			c1.204-3.925,3.759-7.165,8.15-5.124c3.537,1.642,5.354,6.612,9.83,7.1c4.896,0.531,7.568-3.138,9.929-6.542
			c3.1-4.469,7.185-16.551,14.979-14.543c6.46,1.666,4.911,12.208,10.899,15.059c6.726,3.203,15.188,0.316,21.005-3.522
			c2.216-1.46,4.469-3.165,6.482-4.886c1.496-1.281,2.642-2.971,4.023-4.384c3.97-4.061,9.27-6.402,12.797-10.936
			c1.701-2.188,3.918-3.903,6.333-5.233c1.864-1.026,3.944-2.67,6.147-2.767c4.759-0.21,3.998,5.111,3.095,8.242
			c-1.656,5.735-6.05,11.779-10.467,15.749c-1.763,1.584-4.343,3.189-5.146,5.528c-0.892,2.586,1.953,2.48,3.672,2.705
			c3.8,0.495,10.17-1.442,10.602,4.095c0.113,1.465,0.334,2.72-0.487,4.034c-0.965,1.546-2.333,2.347-3.948,3.074
			c-4.656,2.089-9.928,2.529-14.822,3.831c-6.449,1.711-12.997,2.652-19.048,5.61c-1.488,0.73-2.869,1.602-4.297,2.425
			c-1.408,0.812-2.457,1.647-3.762,2.601c-1.578,1.153-3.535,2.064-5.325,2.882c-4.04,1.845-8.524,2.851-12.866,3.683
			c-5.699,1.095-11.517,1.747-17.322,1.743c-5.967,0-11.489-0.811-16.868-3.449c-1.361-0.665-2.788-1.189-4.206-1.805
			c-4.149-1.802-8.427-3.402-12.892-4.209C371.13,270.169,367.269,268.439,363.411,267.093z"/>
		<path fill="#FD1813" d="M412.39,276.916c-1.931,2.625-10.555-2.233-13.724-2.485c-5.562-0.446-10.418,0.503-15.721-0.985
			c-13.276-3.73-8.505-17.173-15.05-25.512c-2.8-3.567-8.898-4.62-5.795-9.83c3.75-6.294,8.285-1.415,11.245,2.67
			c6.706,9.255,9.606,23.273,23.804,23.692c8.06,0.24,4.382-6.782,9.32-10.379c7.507-5.465,6.249,4.406,7.571,8.495
			c1.591,4.921,8.039,7.236,11.823,2.758c3.739-4.423,2.183-11.625-1.295-15.796c-3.684-4.416-7.344-3.974-7.433-10.734
			c-0.056-4.13,0.416-10.477,5.177-11.879c7.812-2.301,6.358,6.828,7.46,11.13c1.419,5.549,5.776,8.709,11.522,8.027
			c8.737-1.036,9.96-7.562,13.929-13.74c5.108-7.956,11.044,3.163,9.115,9.068c-1.645,5.033-6.488,9.844-10.099,13.786
			c-2.271,2.484-5.131,4.555-6.881,7.479c-2.035,3.398-1.841,7.227-4.915,9.844c-2.536,2.157-6.996,3.019-10.196,3.53
			c-4.784,0.767-9.372,1.782-14.029,2.539c-1.986,0.325-5.132,0.891-7.104,0.595c-4.259-0.643-5.838-4.93-9.082-7.131"/>
		<path fill="#245977" d="M394.931,237.048c-1.367-0.619-4.625-5.414-6.993-7.261c-3.184-2.483-7.104-3.399-10.251-5.755
			c-5.559-4.164-9.989-15.144-2.393-18.826c3.136-1.519,8.165-0.946,10.339,2.508c1.951,3.096,0.444,7.282,2.948,10.474
			c4.534,5.777,13.073,10.203,9.104,19.241c-2.356,0.411-4.144-2.994-5.927-4.394"/>
		<path fill="#245977" d="M343.51,208.468c0.187-0.105,0.873,0.201,0.494-1.343c-4.386-0.573-17.082-9.937-9.358-13.436
			c3.719-1.686,7.737,1.54,9.655,4.557c2.445,3.845,1.235,8.323-0.619,12.345"/>
		<path fill="#245977" d="M438.781,216.414c0.557-0.099,0.772,0.084,0.649,0.549c-5.004-4.922,11.349-12.937,2.796-17.768
			c-4.68-2.645-6.961,3.636-7.13,6.841c-0.225,4.251,1.646,7.353,2.424,11.086c0.434,0.154,0.873,0.154,1.316-0.001"/>
		<path d="M570.854,184.848c1.979-3.797-17.952-8.894-21.001-9.409c-4.211-0.714-8.647-0.436-13.01-1.451
			c-5.225-1.217-11.586-0.391-17.096,0.056c-15.823,1.285-27.557,18.625-21.157,33.409c4.964,11.463,15.932,20.685,23.896,29.978
			c11.911,13.9,19.821,31.926,18.913,50.388c-0.891,18.045-7.378,36.622-19.87,49.935c-10.518,11.205-20.931,21.773-34.642,28.947
			c-15.594,8.156-32.656,14.246-49.745,18.72c-11.339,2.969-22.697,5.8-34.562,6.761c-14.484,1.17-28.599,3.39-43.14,2.511
			c-12.558-0.761-25.324-1.304-37.521-4.674c-9.036-2.498-18.15-6.547-26.409-10.995c-9.462-5.098-18.094-11-23.92-20.095
			c-4.915-7.676-4.999-15.58-5.737-24.705c-0.361-4.466-0.755-8.658-0.203-12.985c0.771-6.038,2.55-11.365,4.405-17.162
			c1.538-4.809,3.548-8.658,6.703-12.574c1.256-1.565,2.531-2.88,3.992-4.274c1.842-1.761,4.214-3.079,6.076-4.765
			c2.223-2.009,4.769-3.358,7.558-4.548c5.857-2.496,12.171-3.74,18.495-4.254c8.521-0.692,17.136-1.648,24.984,2.423
			c3.697,1.92,7.108,4.37,10.161,7.199c4.848,4.491,8.808,9.922,11.754,15.834c0.862,1.727,1.637,3.499,2.322,5.303
			c0.341,0.901,0.661,1.813,0.957,2.734c0.255,0.788,0.319,1.578,0.577,2.361c1.799,5.412,2.032,11.015,1.86,16.669
			c-0.11,3.515-0.495,7.019-1.38,10.434c-0.295,1.14-0.571,2.291-1.004,3.382c-0.544,1.367-1.304,2.633-2.004,3.929
			c-0.939,1.739-2.146,3.274-3.484,4.699c-0.373,0.397-0.631,0.788-1.068,1.126c-0.775,0.6-1.649,1.101-2.476,1.633
			c-2.365,1.515-5.007,2.871-7.621,3.874c-2.016,0.775-4.033,1.599-6.196,1.873c-3.738,0.476-7.541,1.211-11.339,1.19
			c-1.634-0.01-3.34-0.105-4.947-0.366c-1.076-0.174-2.048-0.273-2.993-0.777c-0.924-0.496-2.236-0.54-3.256-0.805
			c-2.228-0.582-4.395-1.41-6.357-2.625c-1.999-1.234-3.787-2.908-5.298-4.698c-1.082-1.278-2.378-2.365-3.448-3.667
			c-1.467-1.776-2.869-4.015-3.782-6.134c-0.909-2.105-1.851-4.21-2.421-6.44c-0.466-1.825-0.692-3.611-0.846-5.489
			c-0.281-3.494-0.057-6.651,0.869-10.035c0.91-3.314,2.329-6.327,4.391-9.047c3.695-4.884,8.583-8.493,14.447-10.336
			c3.322-1.042,6.64-1.982,10.095-2.503c3.275-0.492,6.771-0.454,10.051-0.385c2.824,0.061,5.787,0.26,8.587,0.736
			c1.343,0.228,2.7,0.383,4.057,0.564c0.822,0.112,1.811,0.124,2.572,0.384c-0.007,0.457,0.362,0.897,0.545,1.307
			c0.228,0.516,0.471,0.997,0.784,1.472c0.319,0.485,0.468,1.024,0.68,1.569c0.2,0.514,0.629,1.103,0.604,1.645
			c-0.609-0.19-1.322-0.169-1.973-0.345c-0.761-0.206-1.657-0.397-2.484-0.546c-1.079-0.197-2.137-0.539-3.222-0.701
			c-1.353-0.2-2.746-0.298-4.105-0.436c-2.92-0.291-5.896,0.046-8.805,0.053c-0.987,0.003-2.004,0.102-2.993,0.135
			c-1.827,0.067-3.606,0.244-5.397,0.614c-1.678,0.344-3.384,0.683-5.025,1.232c-1.852,0.619-3.452,1.561-5.084,2.572
			c-2.75,1.704-5.749,3.464-7.782,6.068c-1.231,1.572-2.286,3.009-3.126,4.817c-0.656,1.408-0.848,3.054-1.071,4.576
			c-0.641,4.373-0.008,8.943,1.518,13.089c0.91,2.472,2.086,4.632,3.585,6.792c1.549,2.23,3.173,4.354,5.338,6.023
			c4.953,3.814,11.288,5.653,17.427,5.861c1.886,0.064,4.273,0.388,5.989-0.604c1.662-0.966,3.743-1.343,5.558-2.032
			c1.165-0.441,2.222-1.11,3.335-1.637c0.546-0.258,1.061-0.513,1.538-0.883c1.262-0.973,2.697-1.866,3.77-3.041
			c0.691-0.759,1.435-1.473,2.119-2.234c0.764-0.851,1.387-1.933,2.016-2.89c0.884-1.346,1.692-2.601,2.262-4.111
			c1.235-3.295,1.84-6.667,2.115-10.175c0.298-3.796,0.134-7.742-0.445-11.512c-0.325-2.118-0.283-4.422-0.879-6.482
			c-0.425-1.463-1.206-2.811-1.623-4.267c-0.316-1.106-0.877-2.108-1.47-3.108c-3.43-5.774-8.573-11.05-14.384-14.445
			c-10.759-6.286-26.82-8.62-38.382-3.868c-4.578,1.88-9.333,4.033-13.432,6.855c-7.027,4.838-11.819,13.142-13.706,21.009
			c-3.023,12.613-3.235,23.332,0.817,35.581c1.107,3.35,2.833,5.799,4.693,8.884c4.005,6.648,9.707,12.719,15.822,17.031
			c5.554,3.916,12.316,7.251,18.771,8.859c3.553,0.881,7.04,1.566,10.571,2.273c10.535,2.111,21.053,4.93,31.799,5.861
			c11.977,1.038,23.814-0.623,35.765-0.737c7.748-0.073,16.991,0.09,24.547-1.964c6.555-1.781,12.903-4.074,19.343-6.152
			c14.668-4.733,27.459-12.702,41.645-18.574c3.033-1.254,5.543-2.6,8.699-3.231c2.685-0.537,5.173-1.074,7.595-2.423
			c4.366-2.436,7.528-6.493,10.697-10.249c6.135-7.277,12.413-13.779,17.476-22.083c5.696-9.344,9.771-19.093,10.963-30.104
			c0.912-8.428-0.535-19.114-3.866-26.78c-2.767-6.369-7.082-11.849-10.741-17.7c-3.531-5.648-6.749-10.531-11.688-15.172
			c-4.132-3.883-8.265-7.794-11.364-12.573c-4.997-7.709-10.131-16.505-7.758-25.9c2.271-8.994,7.852-15.778,15.651-21
			c5.914-3.958,13.136-5.906,20.186-6.45c7.453-0.574,13.885,1.241,21.129,3.122c6.31,1.636,31.997,5.772,26.662,15.972
			c-0.02-0.58-0.117-1.169-0.116-1.748"/>
	</g>
	<g>
		<path fill="#245977" d="M584.977,284.534c-3.067,6.598-7.002,13.035-8.89,20.096c-1.84,6.891-2.915,14.315-1.925,21.47
			c-2.562,2.193-5.44,3.883-8.498,5.234c-0.229-1.418-0.393-2.836-0.517-4.208c-0.33-3.768,0.187-7.58,0.559-11.423
			c0.39-4.026,0.907-7.595,2.414-11.316c1.709-4.212,4.071-8.296,6.209-12.303c1.986-3.729,3.791-7.577,5.543-11.441
			c1.742-3.839,3.737-7.659,4.967-11.679c1.287-4.215,1.191-8.919,0.906-13.246c-0.102-1.54-0.167-3.06-0.458-4.614
			c-0.23-1.227-1.142-3.399-0.613-4.614c0.421-0.963,1.844-1.56,2.716-1.95c1.127-0.501,2.264-1.059,3.428-1.512
			c0.906-0.349,2.544-1.239,3.547-0.811c1.139,0.486,2.256,3.132,1.602,4.219l-0.727-1.914c-0.026,1.493,0.963,2.996,1.062,4.525
			c0.111,1.737,0.123,3.587-0.011,5.35c-0.298,3.919-1.722,7.957-3,11.692C591.121,272.424,587.798,278.46,584.977,284.534z"/>
		<path fill="#245977" d="M601.41,160.085c0.003,0.019,0.009-0.174,0.312-0.026c0.226,0.108,0.44,0.412,0.584,0.608
			c0.348,0.469,0.563,1.069,0.796,1.622c0.407,0.966,0.535,1.98,0.683,3.023c0.08,0.567,0.921,6.54,1.082,6.496
			c1.165-0.3,1.897-1.346,3.017-1.735c0.952-0.33,2.332-0.625,3.327-0.701c1.021-0.082,1.729-0.045,2.538,0.589
			c0.585,0.46,1.458,1.255,2.19,1.429c1.515,0.361,1.969-3.229,3.076-1.944c0.576,0.665,0.539,1.6,0.867,2.367
			c0.368,0.859,1.067,1.103,1.898,1.443c1.213,0.498,2.509,0.583,3.678,1.169c0.993,0.496,1.524,1.207,2.091,2.14
			c1.123,1.853,1.771,3.594,2.219,5.678c1.063,4.949,0.53,10.981-4.245,13.785c-2.302,1.353-5.375,1.383-7.963,1.355
			c-2.075-0.021-4.581-0.506-6.484-1.355c-3.792-1.698-5.49-5.518-7.03-9.081c-0.313-0.736-0.788-1.467-1.454-1.899
			c-0.829-0.536-1.58-0.694-1.25,0.541c0.493,1.849,2.35,3.646,2.729,5.462c0.306,1.479-0.93,2.727-1.97,3.658
			c-1.748,1.563-4.06,1.814-6.229,1.146c-3.352-1.036-5.449-4.64-7.582-7.308c-1.938-2.426-2.937-5.671-3.108-8.755
			c-0.061-1.124-0.276-2.257,0.136-3.305c0.579-1.471,1.257-2.941,1.864-4.413c0.27-0.647,0.585-1.273,0.944-1.876
			c0.114-0.188,0.23-0.374,0.35-0.559c0.118-0.175,0.263-0.345,0.355-0.532c0.03-0.06,0.049-0.12,0.095-0.169
			c0.074-0.084,0.175-0.154,0.257-0.231c0.182-0.162,0.359-0.331,0.539-0.492c0.231-0.206,0.443-0.433,0.67-0.642
			c0.289-0.265,0.553-0.561,0.822-0.846c0.221-0.237,0.431-0.502,0.62-0.763c0.209-0.291,0.432-0.576,0.642-0.865
			c0.14-0.193,0.271-0.397,0.426-0.574c0.152-0.169,0.289-0.414,0.486-0.536c0.074-0.046,0.159-0.081,0.236-0.13
			c0.089-0.056,0.171-0.112,0.258-0.165c0.637-0.397,1.303-0.741,1.994-1.024c0.697-0.286,1.421-0.51,2.159-0.655
			c0.718-0.14,1.447-0.201,2.175-0.152c0.7,0.048,1.396,0.203,2.043,0.489c0.663,0.296,1.261,0.728,1.757,1.265"/>
		<path fill="#FF0000" d="M612.854,172.586c-0.134,1.503-2.489,2.606-3.881,2.362c-0.48-0.776-0.96-3.133,0.068-3.723
			c0.598-0.34,1.19,0.443,1.879,0.396c0.694-0.047,0.915-0.761,1.799-0.616c0.646,0.955,0.375,1.839-0.629,2.446"/>
		<path fill="#FD1813" d="M590.574,200.331c-0.757,1.602-0.948,3.255-1.235,4.973c-0.107,0.641-0.069,1.271-0.09,1.894
			c-0.031,1.024,0.057,2.109-0.79,2.858c-0.577,0.508-1.502,0.847-2.202,1.033c-2.681,0.712-5.312,0.526-8.035,0.454
			c-2.827-0.072-5.701-0.494-8.354-1.512c-1.43-0.55-2.691-1.212-3.943-2.115c-0.531-0.382-0.957-0.799-1.306-1.376
			c-0.387-0.636-0.412-0.838-0.017-1.479c0.702-1.127,1.033-2.394,1.256-3.675c0.117-0.681,0.23-1.38,0.359-2.08
			c0.261-1.421,1.285-2.491,1.598-3.847c0.326-1.414,0.811-2.726,1.362-4.075c1.279-3.124,2.768-6.166,4.532-9.043
			c1.845-3.016,3.492-6.209,6.269-8.403c3.569-2.821,7.397-5.095,11.37-7.31c2.221-1.236,4.626-2.221,6.986-2.968
			c2.479-0.785,4.403-0.368,6.811-0.268c0.045-0.124,0.05-0.25,0.009-0.377l0.213,0.195c-0.291,1.472-2.211,2.961-3.141,4.053
			c-1.358,1.592-2.713,3.188-4.144,4.717c-1.736,1.866-5.874,3.903-4.803,7.032c0.566,1.655,2.327,2.505,3.606,3.5
			c1.55,1.197,2.994,2.608,4.243,4.121c0.854,1.036,2.127,1.787,2.906,2.789c0.837,1.076,0.592,2.81,0.574,4.088
			c-0.028,2.347-0.204,4.729-0.622,7.056c-0.419,2.341-1.211,4.667-1.641,7.045c-0.501,2.77-0.68,5.514-0.711,8.338
			c-0.023,2.183-0.01,4.415,0.472,6.547c0.335,1.475,0.811,2.907,1.206,4.356c0.775,2.845,1.952,5.744,3.451,8.29
			c3.991,6.784,11.628,10.62,19.032,12.29c2.874,0.647,5.792,1.193,8.743,1.322c1.321,0.055,2.647-0.108,3.96,0.018
			c1.162,0.107,2.541-0.307,3.58-0.822c0.521-0.258,1.048-0.624,1.527-0.955c1.104-0.756,2.269-1.799,3.13-2.826
			c2.022-2.42,3.577-5.529,4.627-8.5c1.049-2.975,1.521-6.037,1.568-9.182c0.032-2.248-0.16-4.81-0.826-6.928
			c-0.372-1.198-0.765-2.363-1.204-3.538c-0.488-1.304-1.244-2.472-1.859-3.697c-0.511-1.016-1.129-1.964-1.821-2.867
			c-1.256-1.652-2.908-3.057-4.68-4.13c-0.666-0.403-1.293-0.823-2.054-1.004c-0.46-0.111-0.896-0.289-0.828-0.872
			c0.112-0.909,1.246-1.662,1.647-2.452c0.43-0.842,0.708-1.916,1.358-2.619c0.646,0.481,1.272,0.979,1.891,1.489
			c0.525,0.433,0.868,0.979,1.416,1.41c0.571,0.447,1.142,0.907,1.697,1.383c1.31,1.12,2.716,2.458,3.718,3.867
			c0.673,0.948,1.396,1.783,1.972,2.793c0.57,1.008,1.139,2.01,1.647,3.055c0.909,1.866,1.753,3.599,2.08,5.665
			c0.315,1.983,0.59,4.042,0.936,6.045c0.4,2.317,0.478,4.952,0.174,7.254c-0.304,2.334-1.271,4.828-2.382,6.896
			c-1.347,2.511-2.839,5.004-4.655,7.209c-0.658,0.801-1.502,1.589-2.062,2.46c-0.205,0.315-0.276,0.621-0.55,0.902
			c-0.295,0.307-0.664,0.542-0.977,0.828c-0.594,0.543-1.227,1.02-1.9,1.477c-1.86,1.28-4.033,2.299-6.2,2.912
			c-2.334,0.664-4.698,1.105-7.114,1.241c-0.828,0.045-1.635,0.035-2.446,0.006c-3.773-0.126-7.396-2.206-10.83-3.605
			c-2.874-1.174-5.662-2.562-8.328-4.151c-1.136-0.676-2.537-1.343-3.455-2.312c-0.876-0.928-1.74-1.885-2.613-2.82
			c-1.087-1.161-2.333-2.23-3.249-3.546c-0.799-1.144-1.584-2.313-2.225-3.567c-0.291-0.57-0.572-1.147-0.765-1.758
			c-0.335-1.063-0.752-2.205-0.86-3.319c-0.034-0.354,0.058-0.682,0.054-1.035c-0.005-0.532-0.137-1.072-0.177-1.604
			c-0.088-1.223-0.059-2.405-0.129-3.623c-0.264-4.776,0.225-9.452,0.57-14.231c0.158-2.155,0.118-4.333-0.169-6.476
			c-0.143-1.049-0.461-2.164-0.904-3.136c-0.206-0.456-0.392-0.905-0.685-1.312c-0.744-1.024-2.027-1.491-3.261-1.051
			C591.818,198.101,591.03,199.367,590.574,200.331z"/>
		<path d="M562.793,214.38c0.622,0.155,1.302,0.834,1.95,1.109c1.248,0.531,2.573,0.916,3.886,1.26
			c2.218,0.585,4.698,0.84,6.987,0.954c0.649,0.031,5.928-0.818,7.015-0.98c2.438-0.364,4.754-1.457,7.01-2.566
			c-0.136,1.522,0.391,3.146,0.582,4.647c0.093,0.732,0.288,1.531,0.46,2.268c1.104,4.773,2.598,9.474,3.78,14.235
			c0.411,1.641,0.572,3.358,1.269,4.856c0.655,1.415,1.356,2.742,1.834,4.144c-0.574,0.376-1.35,0.358-1.969,0.562
			c-0.918,0.306-1.74,0.845-2.569,1.336c-1.839,1.098-3.937,1.942-5.941,2.653c-3.627,1.282-7.693,2.242-11.466,2.704
			c-0.562,0.068-2.101,0.72-2.511,0.533c-0.752-0.341-1.38-2.384-1.89-2.997c-0.8-0.96-1.869-1.804-2.595-2.859
			c-0.662-0.952-0.982-2.127-1.493-3.193c-1.759-3.665-3.015-7.889-3.554-11.92c-0.195-1.467-0.363-2.939-0.501-4.414
			c-0.106-1.18-0.393-2.379-0.453-3.543C562.468,220.338,562.252,217.178,562.793,214.38z"/>
		<path fill="#FD1813" d="M640.521,186.914c-0.355,0.875-1.451,2.003-1.379,2.957c1.589,0.354,2.512,3.663,2.692,4.998
			c0.309,2.263-0.463,4.519-2.164,6.015c-3.273,2.884-7.894,2.689-11.604,1.165c-3.507,4.739-11.533,2.901-15.661,0.122
			c-2.285-1.538-3.923-3.068-5.162-5.554c-0.678-1.36-1.728-3.266-1.315-4.845c0.099-0.365,1.753-3.294,1.895-3.287
			c1.115,0.057,1.891,2.397,3.352,2.595c1.725,0.236,2.563-1.523,1.493-2.854c0.765-0.542,1.702-1.206,1.926-2.188
			c0.968,0.779,1.659,2.282,2.764,3.101c1.321,0.984,3.294,0.357,4.641-0.481c1.815-1.127,3-3.495,3.504-5.538
			c0.328-1.321,0.628-2.58,0.799-3.928c0.167-1.355,0.098-2.716,0.021-4.088c-0.098-1.704,0.155-1.758,1.482-2.707
			c1.57-1.118,4.382-1.894,6.164-0.958c1.646,0.858,3.31,2.881,4.71,4.154C641.789,178.409,642.061,183.145,640.521,186.914z"/>
		<path fill="#245977" d="M638.871,202.618c-2.37-0.776-2.875-3.075-2.045-5.197c0.694-1.782,1.984-2.868,3.576-3.795
			c0.878-0.514,1.776-0.989,2.505-1.716c0.609-0.601,1.057-1.405,1.721-1.946c1.012-0.822,2.104-0.34,1.135,0.887
			c-0.661,0.835-1.294,1.275-2.156,1.837c0.102-0.066,0.896,0.094,1.132,0.054c0.404-0.067,0.808-0.254,1.188-0.401
			c0.734-0.284,1.448-0.621,2.167-0.935c1.241-0.543,2.376-0.944,3.759-1.145c2.434-0.358,0.123,1.176-0.72,1.646
			c-0.992,0.552-2.875,1.314-3.376,2.39c1.376,0.04,2.376-0.654,3.576-1.245c0.561-0.278,2.694-1.386,3.229-0.943
			c1.271,1.05-5,3.579-5.913,3.548c-0.111-0.004,0.318,0.431,0.363,0.459c0.265,0.143,0.64-0.037,0.91-0.017
			c0.642,0.041,1.272,0.214,1.879,0.445c0.875,0.329,2.551,1.127,1.534,2.253c-1.167,1.294-5.256-0.889-6.546-1.099
			c0.442,1.091,4.043,2.189,3.462,3.66c-0.718,1.822-3.416-1.025-4.184-1.467c-1.342-0.774-3.619-2.103-4.007-0.02
			c-0.187,1.01-0.116,1.439-0.672,2.338c-0.48,0.771-1.539,1.86-2.398,1.154"/>
		<path fill="#FD1813" d="M557.165,208.087c0.965,1.636,2.23,3.324,3.688,4.241c0.827,0.521,1.761,0.983,2.62,1.466
			c1.072,0.6,2.212,1.078,3.366,1.494c4.008,1.443,8.183,2.203,12.49,1.566c2.178-0.323,4.246-0.83,6.326-1.528
			c1.574-0.528,3.036-1.398,4.465-2.246c1.498-0.889,2.84-2.394,3.615-3.981c0.832-1.697,1.044-3.933,0.996-5.807
			c-0.017-0.758-0.179-1.537-0.502-2.223c-0.088-0.185-1.254-1.82-1.302-1.75c-0.665,0.989-1.255,2.047-1.645,3.179
			c-0.502,1.454-0.076,3.215-0.333,4.74c-0.213,1.249-1.325,2.813-2.397,3.46c-1.188,0.716-2.944,0.852-4.238,0.932
			c-3.502,0.218-7.124,0.22-10.71-0.126c-1.308-0.126-2.551-0.418-3.801-0.824c-0.712-0.231-1.483-0.723-2.165-1.095
			c-1.736-0.954-3.413-2.159-4.787-3.6c-1.298-1.363-2.379-2.938-3.142-4.667c-0.703-1.59-0.978-3.164-1.327-4.841
			c-0.111-0.531-0.217-1.06-0.288-1.599c-0.041-0.323,0.025-0.875-0.075-1.166c-0.122-0.366-0.073-0.134-0.336-0.208
			c-0.446-0.125-0.998-0.157-1.424-0.233c-0.465-0.083-0.991-0.155-1.413-0.234c-0.461-0.083-0.964-0.23-1.415-0.208
			c-0.245,0.687,0.054,1.482,0.159,2.164c0.136,0.856,0.274,1.675,0.56,2.502c0.398,1.148,0.54,2.456,0.782,3.656
			c0.364,1.789,0.548,3.712,1.391,5.388C556.568,207.031,556.852,207.556,557.165,208.087z"/>
		<path d="M600.782,171.868c0.483-0.282,0.97-0.563,1.458-0.83c1.462-0.799,2.5-1.357,2.646,0.721
			c1.158-0.445,2.312-1.437,2.891-2.562c0.686-1.329,0.1-2.578-0.242-3.989c-0.231-0.938-0.522-2.17-1.175-2.903
			c-0.576-0.645-1.67-1.1-2.44-1.451c-0.511-0.229-1.495-0.52-2.053-0.415c-1.036,0.197-1.68,1.635-2.167,2.482
			c-1.038,1.787-1.52,3.751-2.279,5.664c-0.394,0.99-0.795,2.006-1.102,3.033c-0.185,0.603-0.65,1.382-0.728,1.978
			c-0.088,0.66,0.383,0.55,0.949,0.362C598.034,173.463,599.412,172.66,600.782,171.868z"/>
		<path d="M591.097,177.703c-0.09-0.184-0.133-0.369-0.105-0.544c0.456-2.78,4.864,2.157,5.566,2.695
			c0.899,0.688,1.716,1.486,2.635,2.145c1.023,0.737,2.23,1.093,3.048,1.855c0.862,0.8,3.178,3.789,2.378,5.048
			c-1.095,1.72-3.67-0.553-4.411-1.439c-1.127-1.343-2.188-2.62-3.491-3.834c-1.59-1.482-2.994-3.124-4.53-4.647
			C591.878,178.675,591.33,178.191,591.097,177.703z"/>
		<path d="M600.378,162.267c-0.87,1.198-1.156,3.501-1.939,5.028c-0.939,1.831-2.345,3.602-3.64,5.188
			c-1.842,2.26-5.196,5.284-1.305,7.083c0.544-1.091,0.315-2.621,0.935-3.781c0.336-0.629,0.789-0.886,1.271-1.444
			c0.627-0.723,1.076-1.496,1.697-2.345"/>
		<path d="M587.198,179.362c-0.938,0.641-2.261,0.123-1.769-1.183c0.331-0.872,1.688-1.938,2.323-0.775
			C588.143,178.122,587.938,178.859,587.198,179.362z"/>
		<path d="M577.08,187.667c-0.993-1.05,1.344-3.13,2.393-2.564c0.475,0.256,0.331,0.899,0.166,1.345
			C579.313,187.321,577.971,188.612,577.08,187.667z"/>
		<path d="M571.089,195.648c-0.698-1.418,2.141-2.856,2.222-1.127C573.355,195.502,571.706,196.901,571.089,195.648z"/>
		<path d="M567.343,204.821c-1.138-0.325-0.799-2.117,0.145-2.547C569.236,201.476,569.222,205.36,567.343,204.821z"/>
		<path d="M621.647,179.473c0.054,0.31,0.37,0.812,0.464,1.202c0.12,0.499,0.19,1.208,0.151,1.74
			c-0.062,0.82-0.788,1.798-1.486,2.155c-0.822,0.423-1.951,0.338-2.765-0.05c-0.412-0.201-1.431-0.722-1.472-1.248
			c0.644-0.021,1.264,0.35,1.933,0.268c0.594-0.073,1.34-0.362,1.819-0.737c0.927-0.724,1.715-2.414,1.595-3.604"/>
		<path d="M625.006,174.165c0.048,0.176,0.507,0.455,0.622,0.738c0.189,0.468,0.212,0.843-0.193,1.183
			c-0.76,0.636-1.682,0.531-2.584,0.47c0.5-0.145,1.131-0.228,1.538-0.624c0.506-0.492,0.35-1.11,0.374-1.741
			c0.092,0.003,0.074-0.059,0.115-0.083"/>
		<path d="M620.826,175.121c-0.372-0.154-0.241-0.822-0.046-1.097c0.205-0.277,0.735-0.57,1.105-0.506
			c-0.031,0.214-0.569,0.548-0.736,0.79c-0.229,0.336-0.168,0.692-0.375,1.011"/>
		<path d="M619.438,178.955c-0.785,0.177-1.565-0.664-2.287,0.085c-0.576,0.596-0.556,1.554-0.536,2.322
			c0.155-0.613,0.476-1.263,0.882-1.772c0.267-0.337,0.517-0.476,0.916-0.575c0.239-0.061,0.909-0.014,1.014-0.253"/>
		<path d="M618.714,178.609c-0.081-0.054-0.319-0.681-0.375-0.928c-0.081,0.286,0.133,0.901-0.265,0.968
			c-0.354,0.058-0.587-0.496-0.75-0.713c0.023,0.268,0.229,0.784-0.005,0.952c-0.222,0.158-0.925,0.032-1.14-0.074
			c0.226,0.148,0.89,0.45,0.586,0.801c-0.156,0.183-0.924,0.32-1.161,0.404c0.336,0.064,0.945,0.469,1.004,0.843
			c0.154-0.196,0.073-0.539,0.212-0.771c0.121-0.206,0.349-0.466,0.511-0.641c0.2-0.215,0.442-0.336,0.697-0.461
			c0.227-0.113,0.674-0.122,0.819-0.258"/>
		<path d="M620.565,175.007c-0.045-0.431-0.409-0.643-0.608-1.008c0.181,0.063,0.496,0.492,0.69,0.408
			c0.296-0.126,0.019-0.844,0.016-1.071c-0.073,0.608,0.609,0.717,0.509-0.029c0.069,0.127,0.146,0.239,0.23,0.347
			c0.247-0.162,0.355-0.559,0.586-0.779c0.004,0.213-0.212,0.611-0.278,0.77"/>
		<path d="M643.532,198.797c1.696,0.723,3.161,2.932,2.064,4.934c-0.961,1.756-3.794,3.285-5.622,2.267
			c-0.762-0.426-1.633-1.181-1.812-2.109c-0.309-1.582,1.204-0.646,2.106-1.042c0.945-0.416,1.586-1.713,1.853-2.603
			c0.114-0.37,0.091-1.034,0.363-1.355c0.24-0.284,1.02-0.625,1.344-0.285c0.112,0.116,0.104,0.143,0.115,0.306"/>
		<path fill="#245977" d="M541.644,170.989c-0.138,0.18-0.268,0.372-0.39,0.567c-0.419,0.676-0.856,1.491-0.866,2.307
			c0,0.307,0.095,0.805,0.416,0.943c0.198,0.086,0.354-0.071,0.491-0.195c0.249-0.222,0.512-0.405,0.779-0.599
			c0.398-0.29,0.806-0.553,1.231-0.798c0.613-0.354,1.325-0.707,2.026-0.812c0.274-0.041,0.547-0.044,0.818-0.072
			c0.152-0.02,0.615-0.051,0.687-0.185c-0.081-0.162-0.02-0.326-0.018-0.494c0.004-0.173-0.064-0.336-0.067-0.512
			c-0.003-0.251,0.009-0.521,0.099-0.759c0.088-0.227,0.253-0.415,0.354-0.634c0.237-0.498,0.499-0.979,0.772-1.458
			c0.409-0.716,0.878-1.408,1.256-2.145c0.484-0.945,0.821-2.084,0.76-3.164c-0.026-0.477-0.412-3.019-1.328-2.517
			c-0.55,0.295,0.304,2.502,0.294,3.094c-0.014,0.896-0.636,2.314-1.16,0.951c-0.36-0.938-0.325-2.225-0.854-3.096
			c-0.26-0.436-0.669-0.722-1.146-0.591c-0.723,0.196-0.481,0.592-0.352,1.151c0.248,1.07,0.888,2.414,0.521,3.571
			c-0.714,2.277-1.413-2.578-2.387-0.994c0.233,0.569,0.482,1.308,0.477,1.939c-0.013,0.884-0.478,1.614-1.214,0.684
			c-1.031,0.258-0.455,1.19-0.438,1.912C542.424,169.858,542.125,170.354,541.644,170.989z"/>
		<path d="M632.46,187.674c-2.07,1.574-4.286,2.776-6.672,3.838c-0.989,0.441-1.959,0.797-2.972,1.154
			c-0.696,0.244-1.462,0.634-2.195,0.714c0.119,1.487,3.708,0.707,4.621,0.523c1.837-0.37,3.76-1.156,5.418-2.136
			c1.988-1.177,4.29-1.958,5.761-3.757c1.335-1.631,2.28-3.328,2.898-5.38c0.491-1.636,0.739-3.532,0.481-5.238
			c-0.137-0.901-0.281-1.341-0.863-2.039c-0.194-0.23-1.379-2.019-1.767-1.485c-0.133,0.175,0.363,0.936,0.412,1.125
			c0.147,0.546,0.142,1.141,0.257,1.701c0.195,0.912,0.273,1.714,0.184,2.634C637.668,182.926,635.235,185.566,632.46,187.674z"/>
		<path d="M606.635,158.677c0.249,0.741,0.488,1.489,0.775,2.208c0.409,1.028,0.86,2.043,1.245,3.078
			c0.343,0.931,0.581,1.915,0.891,2.83c0.347,1.016,0.505,1.855,0.57,2.913c0.031,0.527,0.232,1.396-0.057,1.859
			c-0.183,0.287-1.005,0.871-0.382,1.218c0.185,0.104,0.389,0.135,0.601,0.153c0.474,0.038,1.053-0.139,1.404-0.466
			c0.292-0.271,0.609-0.752,0.273-1.117c-0.14-0.155-0.369-0.161-0.534-0.262c-0.168-0.101-0.162-0.287-0.188-0.453
			c-0.022-0.167-0.024-0.347-0.048-0.513c-0.034-0.23-0.098-0.456-0.146-0.685c-0.106-0.499-0.216-0.987-0.296-1.495
			c-0.086-0.538-0.133-1.079-0.181-1.624c-0.032-0.371-0.041-0.744-0.09-1.11c-0.084-0.649-0.233-1.295-0.415-1.926
			c-1.081-3.75-2.092-7.352-2.525-11.241c-0.503-4.547,0.749-8.536,1.775-12.875c1.071-4.526,3.02-8.778,5.232-12.843
			c2.022-3.723,6.011-7.096,9.563-9.346c4.781-3.024,10.51-4.832,16.027-6.188c3.059-0.753,6.434-1.318,9.579-1.193
			c1.99,0.078,3.867,0.59,5.819,0.768c4.704,0.428,8.911,3.259,13.088,5.22c2.741,1.285,4.796,3.191,7.101,5.169
			c4.108,3.534,7.295,8.015,9.929,12.815c2.506,4.568,4.416,9.429,4.897,14.639c0.335,3.565-0.425,7.092-0.147,10.6
			c0.244,3.143,0.098,6.032-0.992,9.065c-1.007,2.816-2.357,5.473-3.85,8.209c-1.628,2.974-4.36,5.678-6.448,8.358
			c-2.404,3.088-5.121,6.077-8.156,8.443c-3.38,2.637-6.864,4.911-10.46,7.343c-2.263,1.533-5.235,3.86-7.933,4.383
			c-0.041,0.104-0.074,0.213-0.113,0.318c-0.278,0.016-0.484,0.169-0.764,0.213c-0.087,0.981,1.393,3.248,2.073,3.981
			c2.409-1.363,5.414-2.253,8.046-3.249c7.585-2.864,14.7-6.747,20.825-12.123c3.457-3.034,7.227-6.772,9.495-10.821
			c2.586-4.619,5.36-9.458,7.199-14.462c1.799-4.889,2.62-9.767,3.123-14.956c0.683-7.072-1.154-14.339-3.727-20.896
			c-1.142-2.906-1.499-5.609-3.22-8.288c-1.354-2.105-2.866-4.207-4.552-6.057c-2.161-2.373-4.259-4.496-6.701-6.569
			c-2.355-2-4.874-3.378-7.56-4.889c-6.615-3.719-14.001-6.863-21.605-7.584c-4.517-0.428-8.796-0.774-13.322-0.108
			c-4.561,0.67-8.905,1.532-13.3,2.924c-3.317,1.05-6.936,2.543-9.815,4.546c-7.252,5.048-10.904,13.87-14.124,21.855
			c-1.194,2.969-1.395,6.106-1.706,9.319c-0.144,1.463-0.27,2.871-0.209,4.295c0.155,3.758,0.67,7.363,1.851,10.985
			c0.419,1.288,0.92,2.496,1.468,3.735C606.191,157.396,606.416,158.035,606.635,158.677z"/>
		<path fill="#245977" d="M571.192,338.665c0.771-0.26,1.541-0.567,2.288-0.925c0.265-0.125,3.381-2.043,3.355-2.102
			c1.186,2.809,2.692,5.521,4.497,7.857c1.447,1.876,3.381,3.477,5.541,4.189c0.011,1.117-0.54,2.907-1.557,3.139
			c-1.277,0.292-3.341-0.331-4.478-0.801c-2.12-0.877-3.913-1.579-5.815-2.946c-1.521-1.088-2.909-2.36-4.136-3.778
			c-0.465-0.54-2.899-3.119-2.412-3.924c0.241-0.403,2.041-0.485,2.479-0.628C571.034,338.719,571.114,338.692,571.192,338.665z"/>
		<path fill="#245977" d="M575.537,251.833c-0.354,0.517,0.044,1.9,0.117,2.59c0.1,0.942,0.249,2.048,0.47,2.995
			c0.478,2.036,1.616,3.904,2.271,5.932c0.664,2.061,1.188,4.229,1.777,6.306c0.437,1.53,1.436,3.955,1.176,5.571
			c0.634-0.31,1.058-1.779,1.473-2.419c0.543-0.836,0.984-1.714,1.312-2.639c0.741-2.085,0.676-4.679,0.892-6.917
			c0.443-4.586-0.267-8.413-1.169-12.795c-0.634-0.17-1.617,0.135-2.352,0.108c-0.871-0.033-1.421,0.138-2.213,0.337
			c-0.783,0.199-3.869,1.25-4.295,0.875"/>
		<path fill="#245977" d="M598.296,282.775c-0.591-2.5-1.639-4.85-2.603-7.215c-0.476-1.179-0.945-2.36-1.321-3.574
			c-0.251-0.814-0.332-2.693-1.06-3.104c-0.369,0.404-0.484,1.021-0.712,1.556c-0.318,0.728-0.665,1.388-1.035,2.068
			c-0.772,1.422-1.502,2.97-2.234,4.387c-1.029,1.992-2.179,4.145-2.527,6.382c-0.21,1.343,0.139,1.76,0.779,2.852
			c0.907,1.553,1.52,3.519,1.986,5.25c0.729,2.714,1.247,5.752,1.222,8.556c-0.032,3.174-0.569,6.511-1.472,9.439
			c-0.855,2.777-2.724,5.119-4.416,7.495c-1.703,2.391-3.343,4.851-5.668,6.691c-2.728,2.155-5.647,4.173-8.551,6.138
			c-7.311,4.943-15.761,6.35-21.123,13.946c2.039,1.318,4.973,2.421,7.391,2.389c0.149-4.583,5.075-5.485,8.292-6.202
			c5.179-1.153,10.528-4.122,15.034-6.857c5.611-3.41,10.364-8.757,13.875-14.428c1.772-2.866,3.56-6.021,4.498-9.228
			c0.912-3.12,1.358-6.54,1.688-9.935c0.271-2.807,0.406-5.478-0.079-8.158C599.742,288.366,598.956,285.59,598.296,282.775z"/>
		<path d="M585.039,353.564c-1.419-0.573-2.84-1.153-4.191-1.872c-0.26-0.137-2.669-1.983-2.712-1.928
			c0.636-0.802,1.843-1.223,2.609-1.895c0.953-0.836,1.481-1.942,2.2-2.955c0.263-0.373,0.539-1.066,0.962-0.965
			c0.283,0.068,0.791,0.817,0.987,1.047c0.604,0.693,1.155,1.58,1.971,2.05c1.104,0.644,1.276-0.736,2.032-1.379
			c0.526-0.452,1.382-0.815,1.967-0.354c0.276,0.219,0.433,0.414,0.787,0.478c0.47,0.089,0.89-0.173,1.302-0.4
			c0.601-0.323,1.179-0.729,1.748-1.084c0.409-0.256,0.794-0.736,1.238-0.899c0.076,0.148,0.016,0.413,0.046,0.59
			c0.033,0.203,0.108,0.426,0.188,0.623c0.082,0.199,0.266,0.425,0.308,0.628c0.054,0.258-0.022,0.224-0.223,0.38
			c-0.374,0.288-0.697,0.692-0.99,1.063c-0.369,0.471-0.767,0.92-1.106,1.416c-0.252,0.361-0.513,0.753-0.299,1.173
			c0.211,0.417,0.538,0.749,0.843,1.094c0.448,0.506,0.918,1.012,1.458,1.432c0.538,0.418,1.087,0.691,1.729,0.899
			c0.713,0.231,1.43,0.497,2.128,0.76c1.144,0.43,2.204,1.263,2.97,2.239c0.568,0.725,0.959,1.583,1.425,2.371
			c0.742,1.264-0.18,2.203-1.493,2.112c-0.687-0.047-1.254-0.42-1.885-0.658c-0.802-0.298-1.608-0.549-2.379-0.929
			c-1.019-0.503-2.082-0.999-3.16-1.355c-0.369-0.124-0.753-0.096-1.133-0.213c-0.579-0.178-1.156-0.376-1.73-0.577
			c-1.491-0.528-2.921-1.24-4.403-1.795C587.181,354.264,586.079,353.985,585.039,353.564z"/>
		<path d="M558.555,350.768c-0.082,0.648-0.991,1.27-1.183,1.951c-0.324,1.161-0.037,2.396,0.133,3.548
			c-1.12,0.143-2.304-0.042-3.432-0.244c-0.084-0.013,0.368-3.389-0.171-3.816c-0.938-0.744-3.229,0.199-4.282,0.407
			c-2.298,0.461-4.562,0.799-6.911,0.848c-2.618,0.056-10.097,0.024-8.301-4.558c3.314,0.671,7.979-0.292,10.845-2.198
			c1.263-0.841,2.31-2.04,3.532-2.946c0.747-0.548,1.776-0.921,2.413-1.594c0.729-0.765,0.051-1.773,1.425-2.192
			c0.165,1.001,1.048,1.581,1.896,1.967c0.465,0.211,0.945,0.377,1.418,0.554c0.536,0.201,0.988,0.467,1.514,0.715
			c0.264,0.123,0.629,0.252,0.922,0.288c-0.051,0.174-0.201,0.353-0.284,0.535c-0.11,0.25-0.177,0.524-0.249,0.788
			c-0.121,0.44-0.159,0.913-0.275,1.35c-0.1,0.375-0.192,0.681-0.231,1.083c-0.032,0.319-0.083,0.717,0.016,1.025
			c0.088,0.271,0.292,0.334,0.486,0.51C558.316,349.235,558.636,350.118,558.555,350.768z"/>
		<path d="M597.194,242.078c-0.059-0.039,2.002,2.062,2.949,2.609c-3.084,2.999-9.615,5.604-13.69,7.732
			c-4.649,2.423-12.673,4.364-17.639,3.248c1.104-4.828,10.76-5.796,14.73-7.107c4.137-1.366,10.402-1.648,11.931-5.554"/>
		<path d="M686.882,114.661c-0.057-0.224,0.672-1.432,1.416-2.066c1.893,1.313,3.771,0.078,3.391-2.273
			c-0.908-0.621-2.038-0.74-3.154-0.688c-0.074,1.289-2.17,3.608-3.421,4.106"/>
		<path d="M642.666,99.896c-0.912-0.783-0.94-2.247-1.122-3.405c1.228-0.415,2.68-1.297,2.395-2.773
			c-2.062-1.383-4.873-0.163-4.936,2.408c0.234-0.058,0.695-0.013,1.014-0.093c0.318,1.411,0.688,3.277,0.702,4.799"/>
		<path d="M609.952,115.831c-0.617,0.57-1.879,0.445-2.208-0.589c-0.116-0.364,1.08-2.042,1-2.842
			c-1.898-0.573-2.829,0.762-3.494,2.247c-0.892,1.997-0.144,4.377,1.775,1.705c1.029,0.693,2.287,1.362,3.444,1.777"/>
		<path d="M622.425,105.802c-0.182-0.061-1.274-1.694-1.161-2.442c0.16-1.061,2.56-1.938,1.452-3.256
			c-1.549-1.839-5.25,2.181-5.232,3.667c1.038,0.338,1.911-0.399,2.621,0.285c0.549,0.523,0.224,2.102,0.743,2.719"/>
		<path d="M698.124,128.856c-0.072-0.008,0.639-0.167,1.082-0.335c0.268-1.873,1.375-5.356,3.158-2.158
			c0.738,1.329,0.018,5.605-1.615,3.159c-0.659,1.448-2.385,1.945-3.684,2.602"/>
		<path fill="#FD1813" d="M541.022,174.868c-0.094,0.022,0.987,2.625,1.057,2.968c0.291,1.409,0.712,2.756,1.169,4.119
			c0.659,1.972,1.409,3.941,2.356,5.793c0.887,1.739,2.203,2.935,4.097,3.436c1.618,0.427,3.179,0.892,4.84,1.172
			c2.13,0.36,4.314,0.487,6.435,0.827c1.877,0.299,3.695,0.674,5.453,1.255c0.194,0.063,0.768,0.488,0.92,0.437
			c0.149-0.052,0.321-0.703,0.38-0.853c0.271-0.722,0.512-1.474,0.751-2.207c0.248-0.759,0.352-1.592,0.652-2.322
			c0.24-0.591,1.152-1.553,1.113-2.132c-2.005-0.368-3.939,0.617-5.959,0.513c-2.957-0.152-6.165-0.369-9.01-1.137
			c-2.403-0.647-4.701-1.536-6.553-3.253c-1.062-0.985-1.55-2.32-1.951-3.688c-0.588-1.989-0.233-4.203,0.285-6.145
			c0.095-0.355,0.188-0.836,0.328-1.156c-1.005-0.297-2.55,0.589-3.424,1.019C543.015,173.986,542.032,174.634,541.022,174.868z"/>
		<path d="M543.457,174.318c1.033-0.219,1.768,0.345,2.266,1.219c0.144,0.248,0.54,1.044,0.925,0.875
			c0.178-0.077,0.188-0.407,0.206-0.586c0.026-0.234,0.112-0.483,0.182-0.708c0.076-0.248,0.187-0.501,0.286-0.745
			c0.1-0.231,0.262-0.518,0.268-0.766c0.011-0.348-0.157-0.72-0.321-1.017c-0.697-1.256-1.727-2.18-3.194-1.741
			c-2.858,0.848-5.548,4.013-2.771,6.479c0.496-0.312,0.51-1.209,0.758-1.725C542.388,174.918,542.713,174.476,543.457,174.318z"/>
		<path fill="#FD1813" d="M593.893,168.53c-0.128-0.033-0.253-0.06-0.377-0.085c-0.134-0.027-0.268-0.111-0.391-0.167
			c-0.255-0.121-0.504-0.254-0.766-0.367c-0.388-0.165-0.771-0.339-1.16-0.496c-0.183-0.073-0.364-0.137-0.546-0.197
			c-0.153-0.051-0.302-0.112-0.459-0.14c-0.269-0.045-0.519-0.239-0.725-0.409c-0.625-0.517-1.063-1.209-1.618-1.788
			c-0.603-0.63-1.375-1.16-2.021-1.739c-0.582-0.521-1.2-0.946-1.937-1.193c-1.681-0.565-3.893-0.866-5.661-0.457
			c-1.046,0.241-2.179,0.565-3.142,1.06c-1.029,0.533-1.9,1.345-2.823,1.984c-1.742,1.205-3.328,2.945-4.748,4.54
			c-0.725,0.817-1.306,1.759-2.028,2.579c-0.885,1.006-1.725,2.023-2.479,3.133c-1.498,2.202-3.109,4.594-3.792,7.202
			c-0.354,1.352-0.479,2.439-0.274,3.814c0.054,0.379,0.059,0.691-0.009,1.075c-1.694-0.034-3.162-0.897-4.726-1.186
			c0.013-0.817,0.097-1.607,0.328-2.388c0.246-0.822,0.481-1.7,0.749-2.561c0.297-0.962,0.476-2.006,0.936-2.938
			c0.482-0.984,1.012-1.965,1.524-2.943c1.099-2.087,2.397-4.045,3.92-5.828c3.032-3.549,6.513-6.758,10.679-8.946
			c3.614-1.898,7.468-3.267,11.556-3.797c2.218-0.287,4.461-0.298,6.717-0.08c1.972,0.19,4.164,0.203,5.997,0.873
			c1.725,0.632,3.675,0.989,5.219,2.008c1.263,0.833,2.235,1.8,3.133,3.03c0.917,1.256,0.571,2.372-0.6,3.341
			c-1.444,1.196-3.516,2.057-5.261,2.759C597.329,168.937,595.667,169.001,593.893,168.53z"/>
	</g>
</g>
</svg>
