<svg xmlns="http://www.w3.org/2000/svg" viewBox="0 0 253.62 378.98"><defs><style>.cls-1{fill:#007293;}.cls-2{fill:#1d1d1b;}.cls-3{fill:#e30613;}.cls-4{fill:#fff;}</style></defs><g id="Ebene_2" data-name="Ebene 2"><g id="Ebene_1-2" data-name="Ebene 1"><path class="cls-1" d="M80.4,176.82a28.44,28.44,0,0,1,4.42,6A29.77,29.77,0,0,1,88.48,191c1.11,4.12,2.18,8.16,2.18,12.41,0,8.86,2.84,41.73-.49,54.94-.7,2.8-.54,7.41-.52,10.47,0,6.6,0,6.6-.12,13.34-.17,7-1.66,18.26-1.82,25.47-.1,4.24-.6,8.51-1,12.71-.28,2.9-1.13,5.71-1.28,8.54-1-.17-2.2-.44-3.31-.73-1.71-.45-1.23-.55-1.68-2.06A41.43,41.43,0,0,1,78.77,320c-.67-5.11-1.83-23.44-2.46-28.53s-.54-13.52-.79-16c-.31-3.07-.72-6.28-1.08-9.22-.47-3.85,0-7.79-.48-11.66-.9-7.83-1.68-30.35-1.73-38.31,0-7.4-.49-15,.22-22.34.32-3.29-.39-6.71-.1-10,.24-2.69,2.38-11.56,2.12-11.52Z"/><path class="cls-1" d="M108.35,177.9C96,188,92.31,206.55,96.16,222.1c1,4.15,1.47,13.56,2.12,18.41a53.36,53.36,0,0,0,2.22,10.57c1,2.69,12.89,34.19,14.08,38,.62,2,1.56,2.49,1.85,4.48.23,1.65,2.87,2.3,2.68,4,1.24.39,2.65-.09,4,0a28.71,28.71,0,0,0,4,.35c3.21-.2.14-4.9-.67-6.75-2.17-5-1.22-6.39-2.78-11.68-1.91-6.51-6-19.45-6.83-22.25-.8-2.54-3.14-11.09-3.36-12.62s.37-2.84.66-4.26c1.36-6.56.06-37.26,0-43.44,0-3.72-.38-7.35-.4-11,0-1.84.18-3.82,0-5.64-.14-1.21-.09-4.85,0-6.19C113.48,174.26,109.62,176.85,108.35,177.9Z"/><path class="cls-1" d="M120.61,103.75c-1.37-1.64-2.65-1.58-4.06-2.18-2.43-1-4.84-2.36-7.35-3.27-1.62-.59-8.38-2.15-9-2.58-.1-.91-1.08-4.18-1.08-4.18.36-.65,3.58-.75,4.1-1.19a33.18,33.18,0,0,0,2.34-2.4,37.8,37.8,0,0,0,7.82-12.42,29.38,29.38,0,0,0,1-15.71c-1.06-5.18-5-8.21-9.36-10.43a16,16,0,0,0-17.65,2.24c-5.16,4.26-7.7,9.62-7,16.7a31.92,31.92,0,0,0,2.23,9.25,26.39,26.39,0,0,0,1.79,3,10.73,10.73,0,0,1,1.06,3.59,18.17,18.17,0,0,1,.32,5.17,19.58,19.58,0,0,1-.27,3.6c-.09.26-6,.82-7.3.84l-6.06.37c-1.42,1.3-2.42,0-4,.36a4.69,4.69,0,0,0-.61.18q.45,2.91.84,5.84c.65,4.87,6.23,12.33,7.24,12.47-.11,1.22.58,2.65.82,3.86s.72,2.78.89,4,.28,2.66.45,3.8a15.81,15.81,0,0,0,1,3.55c.9,2.53,2.17,3.92,3.81,5.94a11.31,11.31,0,0,0,2,2.49c1.21.79,2.91.43,4.29.43,2.92,0,7.22.83,9.8-.64a39.19,39.19,0,0,0,8.42-6.85c2.34-2.46,5.07-2.43,6.55-5.44,1.76-3.56,8-10.43,7.75-14.81C121.27,107.24,120.83,105.81,120.61,103.75Z"/><path class="cls-2" d="M74.37,126.44c-.43-3.49-.54-6.89-1.4-10.29-.93-3.66-1.53-22.55-.16-22.73A8.59,8.59,0,0,0,75.52,93c.65-.27.47-.39,1.16-.17,0,1.25,2.77,15,2.92,16.53.3,3.08.22,2.43,1.28,5.38S90.5,120.5,92,120.54s11.84-3,13.73-5.4,2.73-6.19,3.38-9.07c.62-2.73-.52-6.11.16-8.79.71.59,2.36.5,3.29.74,1.32.34,1.25,28.42.87,31.86a78.4,78.4,0,0,0-.28,9.23c0,3.45.37,6.79.4,10.29a94.23,94.23,0,0,0,.13,9.66,63.16,63.16,0,0,1-.62,19.09c-1.07,5.09-4.42,9.45-7.09,13.76-1.41,2.29-3,4.5-4.59,6.79-1.31,1.92-6.65,5.51-6.57,7.81-1.44.19-3.5.64-4.35.19a10.35,10.35,0,0,1-2.84-3.26c-.59-1.24-1.24-2.37-1.95-3.57-2.85-4.79-6.7-8.81-8.67-14.09A50.22,50.22,0,0,1,74,168.33c0-5.6,1-11.43.91-17,0-3,0-5.92-.06-8.88a35.44,35.44,0,0,0,0-4.61C74.64,136.77,74.58,128.11,74.37,126.44Z"/><path class="cls-2" d="M79.57,323.35c.5,1.65.58,2.34,1.63,3.54,1.24,1.4,1.7,1,3.49.72a5.61,5.61,0,0,0,1.33-3c.25-1.06.51-2.93.68-4.26a47.79,47.79,0,0,0,2.17,9.27c1.12,3.13,3.66,25.57,5.1,28.54l9,16.61c-2.76-1.13-5.93-4.45-8.93-3.52-1.61.5-3.2.91-4.24,2.19-1.32,1.63-1.43,4.49-3.06,5.55-.75-1-3.21-4.5-4.68-5.1s-6.38,4.86-6.38,4.86-3-4.9-5.2-3.81A19.74,19.74,0,0,1,65.6,377c1.79-3.63,1.22-2.24,3.09-5.83,1.56-3,2.81-6.1,4.44-9.15s2.76-25.47,3.65-28.93a21.11,21.11,0,0,0,.75-5.69c0-1.93,1.46-6.14,1.46-6.14Z"/><path class="cls-2" d="M116.43,293.59c2.29,1.78,11.58,7.67,10.27-1.91,2.09.75,8.88,13.49,10.52,16.28s3.57,5.16,5.45,7.78c1,1.39,2,2.83,3.06,4.15.75,1,1.67,2.94,2.74,3.48a20.67,20.67,0,0,0-7.06,0c-3.36.73-3.85,3.43-5.43,5.94a1,1,0,0,0,0-.69,26.3,26.3,0,0,0-7.85-2.17c-2.51-.17-5.69,2.77-7,4.6-.34-2.37-.46-3.57-2.41-5.27a9.61,9.61,0,0,0-5.06-1.91c1.27-1.42,1.56-3.8,2.08-5.56.78-2.59,1.23-5.3,2-7.92.59-2,.92-4.59,1.3-6.65a17.67,17.67,0,0,0,.41-3.65C119.37,298.72,116.43,293.59,116.43,293.59Z"/><path class="cls-2" d="M85.1,84.42C85,81.21,82.93,77.76,81.63,75a23.88,23.88,0,0,1-2.42-8,16.91,16.91,0,0,1,2.32-9.59c1.42-2.64,2.73-5.93,4.9-8,4.63-4.38,14-3.83,19.23-1.37s9.24,7.46,9.91,13.16a30.59,30.59,0,0,1-.78,10.14c-.63,2.77-1.52,7.32-3.68,9.35.08-3.3-.36-6.3-.45-9.44-.08-2.77-.91-6.35-2.85-8.39s-5.34-2.06-8-2c-2.85,0-6.15-.33-8.67.89-5.32,2.59-7.76,9-6.94,14.84.38,2.77,1.49,5.18,2.13,7.83.25,1-1.26,0-1.26,0"/><path class="cls-3" d="M85.26,68.73c.25,0,.63-.6.81-.79a13.37,13.37,0,0,1,1.15-1,7.91,7.91,0,0,1,1.92-1.39c.68-.27,5.8,1.66,6.44,2S97.5,68.6,98.13,69s1,3.39,1.87,3.44a4.79,4.79,0,0,0,2.31-.81c.73-.46.79-.55,1.55-.26A42.84,42.84,0,0,1,108.2,73c.76.37,1.53.83,2.21,1.25a6.84,6.84,0,0,1,1.1,1,3,3,0,0,1,.76,1.07,5.31,5.31,0,0,1-.36,2,5.67,5.67,0,0,1-.9,2.18,38.53,38.53,0,0,1-2.44,3.38c-.4.44-.75,1-1.11,1.5-.22.3-.3.5-.63.54s-.51-.12-.78-.35a4.79,4.79,0,0,0-1.46-.86,9.21,9.21,0,0,1-2-.9c-.55-.36-1-.86-1.62-1.2s-1.69-.82-2.26-1.16a9.31,9.31,0,0,1-2,1.33c-.91.17-1.26-.15-1.82-.93-.28-.36-1.14-2.15-1.29-2.45s-1.23-.71-1.54-.9A12.87,12.87,0,0,0,90,77.78,10.22,10.22,0,0,1,87.8,77,19.43,19.43,0,0,1,86,75.64a3.11,3.11,0,0,1-1.25-1.78,11,11,0,0,1-.09-3.09,2.81,2.81,0,0,1,.4-1.6C85.6,68.56,85.26,68.73,85.26,68.73Z"/><path class="cls-4" d="M96.93,73.76c.22.08,1-1.86,1.12-2.08a10.47,10.47,0,0,0-2.3-1.74,44.87,44.87,0,0,0-4.85-2.22c-.83-.34-1.14-.58-1.76.12-1.07,1.18-2.32,2.4-2.51,4-.09.79,2.45,2.81,3.1,3.21C90.9,75.79,96.93,73.76,96.93,73.76Z"/><path class="cls-4" d="M102.8,73.64a8.88,8.88,0,0,0-1.06,2.92c0,.48,1.88,4.36,2,4.66s3.76,2.21,4.09,1.89a10.91,10.91,0,0,0,1.76-2.32,20.44,20.44,0,0,0,1.13-2.11c.15-.33.29-.68.41-1s.18-.11-.12-.46-.4-.53-.59-.73a2.92,2.92,0,0,0-.9-.51,11.09,11.09,0,0,0-2.41-1.06C106.29,74.71,102.8,73.64,102.8,73.64Z"/><path class="cls-2" d="M104.16,77.32a2.31,2.31,0,0,0,1.62,2,3.6,3.6,0,0,0,1.54.26,9.51,9.51,0,0,1,1.47-.18,3.12,3.12,0,0,0-2.13-2.09A8,8,0,0,0,104.16,77.32Z"/><path class="cls-2" d="M88.94,70.89c-.32.14.88.86,1.12,1a13.35,13.35,0,0,0,1.56.78,2.74,2.74,0,0,0,2.64-.4c-.27-1.09-2-2.11-3-2.26a3.77,3.77,0,0,0-2,.3A.51.51,0,0,0,88.94,70.89Z"/><path class="cls-3" d="M97.6,88.5c.85,0,2.26-.89,2.25-1.84a2.55,2.55,0,0,0-.52-1.87c-.3-.27-1.61,0-2.39,0-1.33,0-2.45-1.9-2.79-1.42-2.45,3.5-6.77-1.5-7.46-3.13S80,59.21,77.3,52.52c-.71-1.77-3-12.44-3.19-12.81a5.9,5.9,0,0,0-2.23-1.16c-2.6,1-1.55,2.74-2.64,2.52,0,.59,4.53,13.85,5.76,16.37,1.42,2.94,6,19.1,6.58,20.29.64,1.41.71,2.72,1.6,4,.74,1.07,1.95,3.29,2.89,4.1.57.48,1.44.62,2,1a5.31,5.31,0,0,0,1.82.79,16.31,16.31,0,0,0,2.14.72c.61.12,1.31.07,1.89.17a10.09,10.09,0,0,0,2,.17"/><path class="cls-1" d="M131.51,307.06c.82.33,1.93,1.19,2,2.18s-1.38,1.57-2.17,1.85a21.39,21.39,0,0,1-3.95,1.09,8.16,8.16,0,0,1-3.11-.18c-.59-.16-2-.92-1.89-1.68s1.54-1.2,2.15-1.35C125.42,308.76,130.33,306.59,131.51,307.06Z"/><path class="cls-2" d="M115.87,173.72a13.4,13.4,0,0,0,5.15-4.43c1.4-2.08-4.1-5.72-5.83-4.22-.24.43-1.1.81-.56,1.06,5.65,2.59,1.74,4.56-.92,5.61s-5.94,2.8-8.62,3.84a87.63,87.63,0,0,1-17.89,5.14c-3.06.48-5.65,1.08-8.74,1.51s-6.66.63-9.81,1.22c-5.44,1-11.22,1.09-17,1.35-3.16.13-6.44.5-9.56.38-2.71-.11-7.43.69-20.56-2.23-1.79-.39-12.52-4.32-13.4-5-1.69-1.38-3.32-4.48-3.14-6.22s-.16-3.94,1-5.52c1.41-1.91,5.88-4.17,8-5.57,16.68-10.82,48.49-9.36,55-9.15a82.44,82.44,0,0,1,8.78.25c.88.13,3.5.9,4.18.49s.78-1.68,1.37-2.18c-4.27-2.05-25.48-3.24-30.44-2.89-5.73.41-27.63,4.5-34,7-11,4.33-15.12,7.15-16.76,9.5a9.79,9.79,0,0,0-2.1,7.08c.39,2.6,1.59,4.46,3.38,6.79,3,3.94,8.65,6.63,14.23,8.35,5.07,1.57,9.69,3.25,15.17,3.72,4.92.39,9.87.07,14.75,0a128.11,128.11,0,0,0,14.72-1c11.42-1.39,23.4-2.83,33.55-6.86C102.88,179,113.65,174.71,115.87,173.72Z"/><path class="cls-3" d="M116.2,170.44c.63.22,1.28.41,1.87.59l1.19.33a15,15,0,0,0,1.79-2.08,1.44,1.44,0,0,0,.17-1.11,14.61,14.61,0,0,0-3.92-.19C117.81,168.9,117.18,169.74,116.2,170.44Z"/><path class="cls-3" d="M100.07,177.41a3.71,3.71,0,0,0,1.05,2.32l6.49-2.6a3.79,3.79,0,0,1-1.92-1.81l-.57.24C103.48,176.2,101.78,176.82,100.07,177.41Z"/><path class="cls-3" d="M92.85,182.89c.81-.27,1.63-.54,2.42-.84a4,4,0,0,1-.38-.74,4.42,4.42,0,0,1-.23-2.24c-1.53.42-3.06.78-4.6,1.1C90,181.16,91.35,182.18,92.85,182.89Z"/><path class="cls-3" d="M81.24,185.87q3.2-.62,6.29-1.42c-1.43-.94-2.55-2.32-2.23-3.41-1.88.33-3.64.69-5.56,1A3.39,3.39,0,0,0,81.24,185.87Z"/><path class="cls-3" d="M54,189.41c2.52-.15,5-.37,7.5-.66-1.16-1.42-1.75-3.05-.86-4.4q-3.39.21-6.8.34C51.69,185.9,52.39,187.87,54,189.41Z"/><path class="cls-3" d="M40,188.33a3.56,3.56,0,0,0,1.17,1.42c1.95,0,3.9-.09,5.84-.11a3.41,3.41,0,0,1,.59-4.61,53.25,53.25,0,0,1-5.49.14c-.52,0-1.13,0-1.87,0A3.59,3.59,0,0,0,40,188.33Z"/><path class="cls-3" d="M29.75,189.16c1,.18,2.06.33,3.15.43l1.83.11a3.82,3.82,0,0,1-.48-1.32,3.63,3.63,0,0,1,1.38-3.28c-1.44-.09-3.15-.25-5.18-.53C28.93,185.62,29,187.57,29.75,189.16Z"/><path class="cls-3" d="M14.8,184.86c1,.37,1.93.71,2.91,1l4.19,1.31a4.53,4.53,0,0,1-.64-4.32c-.68-.19-1.89-.58-3.32-1.09A6.24,6.24,0,0,0,14.8,184.86Z"/><path class="cls-3" d="M6.07,166.17A8.19,8.19,0,0,1,7.25,165a6.09,6.09,0,0,0-2.41-2.17,6.38,6.38,0,0,0-1.47-.5,9.57,9.57,0,0,0-1.17,1.32,14.89,14.89,0,0,0-1.07,1.84,11.83,11.83,0,0,1,4.27,2.27A4.24,4.24,0,0,1,6.07,166.17Z"/><path class="cls-3" d="M17.58,154.7l-2.45,1a4.64,4.64,0,0,1,1.18,3.59,39.34,39.34,0,0,1,3.63-1.76A14.53,14.53,0,0,0,17.58,154.7Z"/><path class="cls-3" d="M26.23,152c-1.46.36-2.83.72-4,1.06a18.18,18.18,0,0,0,3,2.55c.77-.24,1.57-.47,2.38-.68A9.56,9.56,0,0,1,26.23,152Z"/><path class="cls-3" d="M46.83,147.93c-1.68.27-3.54.59-5.51.94a.1.1,0,0,0,0,0,7.16,7.16,0,0,0-.3,3.51c1.51-.18,3-.34,4.47-.47A9.24,9.24,0,0,1,46.83,147.93Z"/><path class="cls-3" d="M65.51,147.46c-1.58-.1-3.11-.18-4.56-.25a5.32,5.32,0,0,0-1.68,4.1c1.36,0,2.62,0,3.79,0A12.29,12.29,0,0,1,65.51,147.46Z"/><path class="cls-3" d="M74.93,148.32c-1.68-.2-3.45-.38-5.28-.54a8.8,8.8,0,0,0-.82.62,5.22,5.22,0,0,0-1.88,3l2.1.07c1.28,0,2.56,0,3.84,0A4.77,4.77,0,0,1,74.93,148.32Z"/><path class="cls-3" d="M55.63,147.07c-1.11,0-2,0-2.68.06s-1.36.13-2.26.24a7.53,7.53,0,0,0-.35,4.21c1.51-.08,3-.15,4.37-.19A6,6,0,0,1,55.63,147.07Z"/><path class="cls-3" d="M35.39,150c-1.46.29-2.9.6-4.31.91a1.77,1.77,0,0,0,0,.33,7.31,7.31,0,0,0,.83,2.66c1.26-.28,2.55-.51,3.82-.74A7.7,7.7,0,0,1,35.39,150Z"/><path class="cls-3" d="M11.84,161a6.71,6.71,0,0,0-1.29-2.59c-.12-.14-.25-.27-.37-.4-1.22.6-2.3,1.17-3.22,1.72a5.69,5.69,0,0,1,.86.54A4.32,4.32,0,0,1,9.3,162,3.25,3.25,0,0,1,9.54,163s.09.06.07.12a1.42,1.42,0,0,0,0,.22c.78-.51,1.6-1,2.36-1.44A4.27,4.27,0,0,0,11.84,161Z"/><path class="cls-3" d="M5.1,170.74c-1.58-.77-3.8-1-5-.14,0,.05,0,.08,0,.13a10.46,10.46,0,0,0,.57,2.17,3.49,3.49,0,0,1,.56,0A12.71,12.71,0,0,1,5.5,174,5.44,5.44,0,0,1,5,171.7,7.5,7.5,0,0,0,5.1,170.74Z"/><path class="cls-3" d="M8.2,177.91a7.37,7.37,0,0,1-1.09-1.13,5,5,0,0,0-3.13.58,2.68,2.68,0,0,0-.36.29,17.21,17.21,0,0,0,3.51,3.27,3.61,3.61,0,0,1,.5-.43,8.18,8.18,0,0,1,3.63-1.2A19.68,19.68,0,0,1,8.2,177.91Z"/><path class="cls-3" d="M66.6,186.38a9.12,9.12,0,0,0,1.49,1.56c2.4-.31,4.81-.65,7.2-1a3.06,3.06,0,0,1-.91-1.36,2.81,2.81,0,0,1,1.38-3c-2.4.25-4.81.47-7.08.89-.86.16-1.72.29-2.6.41A2.93,2.93,0,0,0,66.6,186.38Z"/><path class="cls-3" d="M111.59,175.5c1.57-.64,2.88-1.18,3.7-1.53a29,29,0,0,1-2.83-1.69c-1,.44-2.14,1-3.26,1.49A9.35,9.35,0,0,0,111.59,175.5Z"/><path class="cls-3" d="M115.47,166.52s1-1.72,2.3-1.49l-3.7-1.66.05,2.68Z"/><path class="cls-1" d="M75.76,103.49A37.68,37.68,0,0,0,74.63,98c-.33-1.12-.58-3.71-1.56-4.25-3.2,2.74-11.31-9-13.36-11.15-1.89-1.93-8.2-12.41-9.9-15.09S46,62.28,45.62,59c-.1-.84,3.59-27.52,5.78-33.48.61-1.64-.12-1.39,1.07-2.35A18.7,18.7,0,0,0,56,20c2-2.82,3.32-4.52,1.73-7.57,0,0,0-.09-.07-.15.35-.26.76-.31,1-.77a.88.88,0,0,0-.08-1.25,3.06,3.06,0,0,0-1.24-.57c-.14,0-.47-.08-.75-.16a6.54,6.54,0,0,1,1.33-5.21c.52-.79,3.18-3.08,2.63-3.94-1.33-2.07-6,4.7-7.94,6.74C50.8,9,48.89,11,47.94,13.34,45.86,18.47,43.59,24,41.61,29.52c-1.19,3.3-7,19.76-7.84,22.84-.14.53,0,8.89.17,9.81.12.57,3.39,6.91,5.11,10.07S49.17,87.07,51.24,89.77,63.3,103.93,66,106.36c2,1.79,7.33,7.44,9.46,8.46C77.75,113.64,76.18,106.48,75.76,103.49Z"/><path class="cls-1" d="M87.55,337.85l.09.12a32.15,32.15,0,0,0-6.81-.21c-1.06.11-1.31.72-1.78,1.61s-.57,1.46.51,1.72a12.68,12.68,0,0,0,1.93.22,11.13,11.13,0,0,0,1.64.2,20.43,20.43,0,0,0,4-.4c.62-.14,1.88-.43,2-1.32a2.29,2.29,0,0,0-1.54-1.8"/><path class="cls-1" d="M118.62,102.34c5.88,2.59,8.28,9.88,9.85,12.6,2.37,4.11,2.35,4.47,4.86,8.49,3.25,5.2,6.68,10.19,9.89,15.42a74.7,74.7,0,0,0,8.42,11.34c5.59,6.19,11.43,14.38,17.92,19.53,2.74,2.18,4.06,2.76,6.82,4.64,1.32.91,4.53,5.81,4.28,6.45s-4.06-4.76-3.85-4.08,4.81,6.93,4.76,7.86c-1,1.48-4.35-2.75-5.67-4.31,1.17,2.23,7,5.33,4.69,5.85-1.46-.48-5.14-4-6.3-5,.23,1.26,4.31,3.64,4.09,4.41-.45.59-6.36-2.52-8.67-5.52-3.24-4.22-7-6.95-10.51-10.87-6.51-7.27-14.82-13.24-21.47-20.62-5.37-6-10.94-15.3-16.61-21.38-1.76-1.88-4.67-6-6.86-4.12-1.28,1.13.47-4.68,1-6.29.68-2,1-6.06,2.42-7.42"/><path class="cls-2" d="M168.78,172a39.5,39.5,0,0,1-6.52-.68,21.34,21.34,0,0,1-6.11-1.73,12.06,12.06,0,0,1-4.27-2.93,25.5,25.5,0,0,1-1.71-3c-.72-1.34-1.48-3.49-1.07-4.12.92-.09,3.91,2.83,4.26,3.56a6.17,6.17,0,0,0,1.15,1.69c1.3,1.47,5.1,3.51,7.87,4.16a57.16,57.16,0,0,0,9,1,48.57,48.57,0,0,0,9.59-.3,85.22,85.22,0,0,0,17-4c3.43-1.23,10.58-3,25.7-11.46,2.18-1.22,11.11-7,13-8.88,2-2,9.09-10,10.26-12a9.55,9.55,0,0,0,1.55-5.89A17.77,17.77,0,0,0,248,124a10.53,10.53,0,0,0-1.51-2.51,10.74,10.74,0,0,0-5.77-4.11,32.28,32.28,0,0,0-8.21-1.5c-3.43-.19-6.66.51-10,.8-7.38.65-14.34,2.56-21.33,4.1a138.17,138.17,0,0,0-18.27,5.54,47.77,47.77,0,0,0-7.55,3.55c-2.29,1.33-4.78,2.39-7.08,3.67s-4.39,2.8-6.46,4.24c-1,.71-1.84,1.46-2.81,2.2-.61.48-4.6,6.37-6.69,9.7a5,5,0,1,1-.46.78,19.27,19.27,0,0,0-2.12-2.45s-.14-.27.94-2.21a63.29,63.29,0,0,1,7.66-10.14c2.24-1.88,4.94-3.58,7.43-5.34,4.69-3.3,11.38-5.75,17.44-7.86,7.76-2.7,16.22-4.79,24.46-6.76a119.2,119.2,0,0,1,25.18-2.9,36.8,36.8,0,0,1,10.73,1.72c2.4.69,5.77,1.82,7,3.32a14.35,14.35,0,0,1,.35,17.34,42.65,42.65,0,0,1-5.77,6.51c-3.18,2.92-7.15,5.29-10.65,8-6.05,4.81-14.11,8.73-21.7,12.69-4.74,2.46-25.23,9.33-30.32,9.74-1.65.13-3.48.41-5.13.41C175.34,172.55,168.78,172,168.78,172Z"/><path class="cls-4" d="M173.15,131a8.6,8.6,0,0,1,.51-2.71,9.07,9.07,0,0,1,1.77-3c-1.87.73-4.46,2-4.46,2l-.84,5.23Z"/><path class="cls-4" d="M184.06,125.87c1.09-1.78,1.82-3.69,3.86-5q-2.4.74-4.73,1.54c-1.31.45-2.66.94-4,1.43a3.44,3.44,0,0,0-.09.56,23.43,23.43,0,0,1-.44,3.65c1.36-.64,2.77-1.24,4.22-1.78Z"/><path class="cls-4" d="M197.56,118.24a.24.24,0,0,1,.06-.08c-1.42.37-2.84.73-4.24,1.12-.22.51-.33,1-.5,1.54a5.87,5.87,0,0,1-1.53,2.37l-.38.32c1.75-.55,3.52-1.06,5.31-1.56A11.62,11.62,0,0,1,197.56,118.24Z"/><path class="cls-4" d="M212.44,115.31a13.15,13.15,0,0,1,1.91-1c-2.27.37-4.52.81-6.7,1.32l-1.79.44a7.2,7.2,0,0,0-1.22,1,13.57,13.57,0,0,0-2,3.26l5.71-1.31A14.15,14.15,0,0,1,212.44,115.31Z"/><path class="cls-4" d="M224,116.49c.49-1.37,2.12-2.69,4.18-3.57-2,.11-4,.25-6.06.45-.17.09-.36.18-.53.28a16.86,16.86,0,0,0-3.5,2.86c-.25.25-.48.53-.73.79,1.7-.26,3.42-.5,5.15-.66C223,116.6,223.48,116.55,224,116.49Z"/><path class="cls-4" d="M248,124a.49.49,0,0,1,.05.16,12.3,12.3,0,0,0,5.14-.64,14.57,14.57,0,0,0-.84-2.57,14.84,14.84,0,0,1-5.41,1.16A8,8,0,0,1,248,124Z"/><path class="cls-4" d="M248.22,130c.46.61,1.78.82,3,.77a11.21,11.21,0,0,0,1.79-.22,14.85,14.85,0,0,0,.52-3.61,9.34,9.34,0,0,1-2.17.56,11.6,11.6,0,0,1-2.89.08A7,7,0,0,1,248.22,130Z"/><path class="cls-4" d="M249,137.59c.68-.82,1.33-1.64,1.91-2.45.07-.1.13-.21.21-.31a15.16,15.16,0,0,1-2.66.09,5.58,5.58,0,0,1-2.38-.53c-.51.68-1.19,1.52-2,2.43C245,137.64,247.11,137.86,249,137.59Z"/><path class="cls-4" d="M240.87,145c1.12-.82,2.24-1.65,3.27-2.53a4.27,4.27,0,0,1-1.51-.57,2.53,2.53,0,0,1-1.16-2c-.9,1.05-1.79,2.05-2.6,2.93A3,3,0,0,0,240.87,145Z"/><path class="cls-4" d="M231.4,151.94c1.07-.73,2.1-1.47,3.06-2.24.45-.35.91-.67,1.35-1a2.58,2.58,0,0,1-1.29-1.78c-1.12.83-2.5,1.78-3.9,2.74A2.66,2.66,0,0,0,231.4,151.94Z"/><path class="cls-4" d="M221.92,155.05a2.19,2.19,0,0,0,.85,2.08q1.62-.88,3.21-1.8a3.52,3.52,0,0,1-1.27-1.86c-.43.27-.79.47-1.05.62C223.06,154.43,222.5,154.74,221.92,155.05Z"/><path class="cls-4" d="M215.06,161.09a.18.18,0,0,1,.05.07l3.58-1.87a2.84,2.84,0,0,1-.67-2.16c-1.09.57-2.12,1.09-3.11,1.58A2.23,2.23,0,0,0,215.06,161.09Z"/><path class="cls-4" d="M205.69,165.27c2.05-.74,3.87-1.45,5.25-2.05a2.32,2.32,0,0,1-.52-.7,2.35,2.35,0,0,1,0-1.69c-2.27,1-4.19,1.8-5.85,2.43A3.08,3.08,0,0,0,205.69,165.27Z"/><path class="cls-4" d="M193.22,167.05a5.1,5.1,0,0,0-1.4,2.3,3.19,3.19,0,0,0,0,.54c2.45-.73,5.11-1.57,7.7-2.44a1.35,1.35,0,0,1-.25-.51,2.56,2.56,0,0,1,.2-1.89c-.53.18-1,.34-1.46.5C196.43,166.09,194.84,166.59,193.22,167.05Z"/><path class="cls-4" d="M178.84,172.47c1.21-.09,2.45-.25,3.6-.34a25.92,25.92,0,0,0,3.4-.63c-.1-1,.72-2.19,1.94-3.1-1.62.34-3.24.63-4.86.89A6.85,6.85,0,0,0,178.84,172.47Z"/><path class="cls-4" d="M166.67,171.15a5,5,0,0,0-.48.75,15.31,15.31,0,0,0,2.59.12l2.58.19a3.46,3.46,0,0,1,1.42-2.25c-.48,0-1,0-1.45-.06l-3-.2A6.17,6.17,0,0,0,166.67,171.15Z"/><path class="cls-4" d="M162.94,169l-.56-.11a13.79,13.79,0,0,1-3.22-1.14c-1.31.47-2.67.87-4,1.28.33.18.65.36,1,.54a20.79,20.79,0,0,0,3,1.1A22.54,22.54,0,0,1,162.94,169Z"/><path class="cls-4" d="M250.73,118.06a2.26,2.26,0,0,0-.2-.26,9.07,9.07,0,0,0-3.62-2.2,8.33,8.33,0,0,0-2.35.32c-1.22.36-2.57,1-2.66,1.87a10.73,10.73,0,0,1,3.44,2.3A13.41,13.41,0,0,1,250.73,118.06Z"/><path class="cls-4" d="M240.1,113.59c-1.24-.27-2.54-.5-3.84-.65a8.4,8.4,0,0,0-4.78,2.87c.35,0,.7,0,1,0a34.76,34.76,0,0,1,3.93.45A9.58,9.58,0,0,1,240.1,113.59Z"/><path class="cls-4" d="M150.49,164.25c-.13-.25,3.86,1.2,4.15.66l1.4,1.14s-2.21,2.16-2.8,1.88a6.89,6.89,0,0,1-1.55-1.5S150.62,164.5,150.49,164.25Z"/><path class="cls-4" d="M167.48,129.15s-1.83,3.24-1.08,5.46l-3,2s-1.57-2.77-.37-4.46Z"/><path class="cls-4" d="M159.27,134.86a4.19,4.19,0,0,0,.25,4.67l-1.9,2.15a3,3,0,0,1-1.39-3.7l1.27-1.5A7.43,7.43,0,0,1,159.27,134.86Z"/><path class="cls-4" d="M153.51,141.47s-1.08,1.75,1.53,4l-1.39,2.11s-2.55-.28-2.07-3.3Z"/></g></g></svg>