<svg xmlns="http://www.w3.org/2000/svg" viewBox="0 0 164.57 367.49"><defs><style>.cls-1{fill:#fff;}.cls-2{fill:#1d1d1b;}.cls-3{fill:#007293;}.cls-4{fill:#e30613;}</style></defs><g id="Ebene_2" data-name="Ebene 2"><g id="Ebene_1-2" data-name="Ebene 1"><path class="cls-1" d="M9.19,274.69c.93.19,2.13-.66,3.05-.82a11.22,11.22,0,0,0,1.73-.43c.37-.12,1.24-.43,1.62-.26a19.71,19.71,0,0,0,1.52,3.8c.67,1.41-.29,1.42-1.31,2.19a20.27,20.27,0,0,0-2.89,2.59,19,19,0,0,1-1.85,2.18c-.62.51-1.62,1-1.93,1.77-.3-.19-.52-.7-.78-1a3.54,3.54,0,0,1-.85-2.37,21.44,21.44,0,0,1-.16-3.2,7.74,7.74,0,0,1,.42-1.31c.17-.83-.07-1.79.1-2.65.47-.17,1.62-1.08,2-.61"/><path class="cls-2" d="M141,201.37c1.13,1.83,2.64,3.26,3.51,5.19,1,2.31,1.43,5,2.32,7.35a12.79,12.79,0,0,1,.69,7.1c-2.1,0-5.72,1.49-7.58.75a40.48,40.48,0,0,0-.37-4.89,19.05,19.05,0,0,0-1-4.32,61.45,61.45,0,0,0-4.56-9.46c-1.46-2.59-2.31-5.3-3.84-7.83a130.53,130.53,0,0,0-11.61-16.59c-4.69-5.62-10.27-10.16-15.92-14.66-3-2.36-6.14-4.72-9.17-7.14-2.78-2.23-5.53-4.78-8.35-6.82A22.57,22.57,0,0,0,81,148.23c-1.83-.82-1.83-2-2.21-3.92a58,58,0,0,0-2.69-10.56c-.63-1.56-1.6-3.62.85-2.74a20.2,20.2,0,0,1,3.62,2.53c4.17,3,7.07,7.4,10.21,11.36,1.13,1.43,2.61,2.62,3.88,3.95,1.78,1.85,3.9,3.24,5.74,5,2.69,2.53,5.32,5.37,7.83,8.06a84,84,0,0,0,7.91,7.29c3.26,2.66,5.58,6.15,8.55,9,2.6,2.52,5,5.83,7.4,8.6C135.82,191.16,138,196.53,141,201.37Z"/><path class="cls-3" d="M59.16,96.07a2.14,2.14,0,0,0-1,.59c-.4.36-.83.71-1.21,1.09-.18.19-.42.31-.6.51l-.35.43a8.17,8.17,0,0,0-.73,1.11,14.18,14.18,0,0,0-1,2.13,14.47,14.47,0,0,0-.93,4.65,15,15,0,0,0,.09,2.84c.05.36.14.72.21,1.07a1,1,0,0,0,.14.4,1.59,1.59,0,0,0,.13.13c-.31-.06-.61-.89-.7-1.16A12.81,12.81,0,0,1,53,106.7a7.88,7.88,0,0,1,.31-4,12.66,12.66,0,0,1,1.89-2.73c.74-.84,1.65-1.5,2.46-2.27.59-.57.89-1.4,1.57-1.85,1.82-1.22,4.53-1.25,6.63-1.16a10.2,10.2,0,0,1,5.4,2,4.23,4.23,0,0,0,.6.41,1,1,0,0,1,.36.19.75.75,0,0,1,.1.55c0,.07-.13.57-.06.6a7.15,7.15,0,0,0,.89.33,7.5,7.5,0,0,0,1.15.31,2.35,2.35,0,0,0,.53,0c.19,0,.39,0,.58,0a14.22,14.22,0,0,1,4.72.48c1.1.3,2.17.79,2.09,2.13-.11,1.73-4.7,4.3-3.15,5.91,0,0,0,0,0,0,.17.17.36.32.53.49l.11.12a.23.23,0,0,1,.07.07.67.67,0,0,1,.06.15,1.22,1.22,0,0,0,.07.17.45.45,0,0,1,0,.28,2.26,2.26,0,0,1-.13.2l-.11.11a1.5,1.5,0,0,1-.23.2l-.61.47c-.14.1-.3.17-.44.28l-.17.12-.18.14a11.16,11.16,0,0,0-1.13.93,2.43,2.43,0,0,1-.2.25l-.12.1s-.1.06-.1.1l.09,0,.09,0a.78.78,0,0,0,.22,0,1.92,1.92,0,0,0,.61-.25c.18-.11.37-.2.56-.3a3.7,3.7,0,0,1,.72-.28c.24-.06.49-.14.73-.19a1.07,1.07,0,0,1,.4,0,.55.55,0,0,1,.19.12,1.54,1.54,0,0,1,.17.19,2.8,2.8,0,0,1,.3.46.94.94,0,0,1,.13.44,7.12,7.12,0,0,0,0,.8,10,10,0,0,0,.21,1.35,4.92,4.92,0,0,1,.25,1.87,3.75,3.75,0,0,1-1.26,1.66A13.34,13.34,0,0,1,77.82,119a7.74,7.74,0,0,0-1.83,1.1,6.87,6.87,0,0,0-.87,1.21c-.59.89-.28,1.83-.52,2.81-.32-.26-1.16,0-1.51.08l-.78.14a2.4,2.4,0,0,1-1.52.06,2.83,2.83,0,0,0-1.32-.16,1.19,1.19,0,0,1-1.11-.44c-.62-.73-1.13-1.5-1.79-2.22s-1.26-1.56-2-2.23a8.34,8.34,0,0,0-1.3-.93c-.43-.26-.92-.4-1.32-.7a5.89,5.89,0,0,0-1.31-.76c-1.39-.53-2.81-.73-4-1.69A9.76,9.76,0,0,1,55,113.64c-.59-.81-.66-1.76-1.18-2.57"/><path class="cls-2" d="M67.07,103.69c.09-.07-.06-.48-.07-.62s0-.53,0-.79a3.55,3.55,0,0,1,.47-1.52,2.56,2.56,0,0,1,.69-.85.85.85,0,0,1,.55-.2,1.26,1.26,0,0,1,.39,0c.1,0,.17.1.28.1a.19.19,0,0,1,0,.13c-.36,0-.82.48-1,.73a2.49,2.49,0,0,0-.45,1.57,4.31,4.31,0,0,1-.26,1.64c-.16.37-.57,1-1,1.06-.07-.43.42-.73.39-1.14"/><path class="cls-2" d="M69.8,105.17a1.78,1.78,0,0,0,.55-.11,1.59,1.59,0,0,0,.45-.27,1.92,1.92,0,0,0,.67-.85,4.26,4.26,0,0,0,.24-1.24,2.64,2.64,0,0,0-.23-1.07,6.65,6.65,0,0,0,.74.41c.19.08.67.08.8.24l-1.13-.06c.1.14.32.21.46.3a5.72,5.72,0,0,1,.74.38,5.3,5.3,0,0,1-1.13-.15,4.68,4.68,0,0,0,.49.33c.07,0,.13.11.2.15a2.39,2.39,0,0,1,.32.16c.14.2-.26.13-.38.12a3.66,3.66,0,0,0-.57,0,.08.08,0,0,0,0,.08c.17,0,.36.16.52.24a1.09,1.09,0,0,1,.32.23,1.75,1.75,0,0,1-.51,0,1,1,0,0,0-.36,0c-.09,0-.18,0-.28,0s.31.22.43.3l.44.31a6.08,6.08,0,0,0-1.13-.09c0,.21.64.43.73.64A7,7,0,0,1,71,105c-.12.27.44.73.52,1-.19-.11-.7-.8-.93-.72s-.1.63-.15.81a1.51,1.51,0,0,0-.5-.69c-.29-.16-.35.3-.48.47s-.3.5-.51.54a2.54,2.54,0,0,0,.2-.53,1.83,1.83,0,0,0,.19-.6.49.49,0,0,0,.23-.06s.18,0,.11,0"/><path class="cls-2" d="M71.22,98.61l0,0A5.43,5.43,0,0,1,71.1,98a4,4,0,0,1,0-.77c0-.1.17-.49.28-.51s.4.27.5.36c0,.15-.21.24-.31.36a1.43,1.43,0,0,0-.21.43,3.07,3.07,0,0,0-.18.85,1,1,0,0,0,.24,0"/><path class="cls-2" d="M72.21,98.22a.75.75,0,0,0,.74-.43.5.5,0,0,1-.09.29c-.08.08-.23.09-.21.21a3.86,3.86,0,0,0,.76,0,.67.67,0,0,1-.44.17c.11.15.35.09.52.12,0,.34-1.23-.14-1.36-.32,0,0,.08,0,.12.06"/><path class="cls-2" d="M66.24,106.89a3.07,3.07,0,0,1,.25.59,6.94,6.94,0,0,0,.6,1,7.4,7.4,0,0,0,1.5,1.56,6.81,6.81,0,0,0,1.92,1.07,7,7,0,0,0,1.77.28c.71.08,1.31.2,1.81-.43a1.05,1.05,0,0,0,0-1.21A1.67,1.67,0,0,0,73,109c-.34,0-.94.26-.8.69.06.18.26.23.36.34a.73.73,0,0,1-.79-.55.68.68,0,0,1,.18-.53.59.59,0,0,1,.52-.27,1.76,1.76,0,0,1,1.91,1,1,1,0,0,1,.14.65,2.86,2.86,0,0,1-.17.67c-.16.44-.53.54-1,.65a7.26,7.26,0,0,1-1.68.26c-.32,0-.64.06-1,0a2.69,2.69,0,0,1-.83-.22,4.33,4.33,0,0,1-1.4-.87,8.08,8.08,0,0,1-1.3-1.73c-.25-.37-.39-.76-.62-1.15-.1-.16-.2-.56-.37-.65s-.2.41-.25.58a4.41,4.41,0,0,0-.14,1c0,.28,0,.52,0,.8a2,2,0,0,0,.08.68.76.76,0,0,0,.39.54c.15.07.39.18.53.07s.15-1.07-.24-1a.55.55,0,0,1-.06.22.28.28,0,0,1,.2-.31.4.4,0,0,1,.43.21,1.5,1.5,0,0,1,.13,1.16c-.26.69-1.24.42-1.5-.11a4.22,4.22,0,0,1-.19-.87,5.35,5.35,0,0,1,0-1c0-.32,0-.64,0-1,0-.52,0-1,.07-1.52a1.94,1.94,0,0,1-.23.73,4.34,4.34,0,0,0-.3,1.23,5.42,5.42,0,0,1-.14.7,9.69,9.69,0,0,0-.09,1.2c0,.61-.15,1.21-.18,1.82a3.52,3.52,0,0,0,.23,1.88,6.89,6.89,0,0,1,.4.64,4.7,4.7,0,0,0,.46.78,2.56,2.56,0,0,0,.52.46,1.27,1.27,0,0,0,1.15.29c.44-.14.71-.38.66-.84,0-.23,0-.49-.26-.61s-.44-.11-.54,0c-.1-.12,0-.28.11-.38a.44.44,0,0,1,.41-.21.92.92,0,0,1,.83.62,1.64,1.64,0,0,1-.14,1.45,1.49,1.49,0,0,1-1.39.41c-1.17-.13-1.71-1.33-2.05-2.32a12.2,12.2,0,0,1-.59-3.21,16.12,16.12,0,0,1,.08-1.7,4.69,4.69,0,0,1,.14-.82c0-.21.11-.41.14-.62a1,1,0,0,0,0-.35s-.06-.19-.06-.22a3.4,3.4,0,0,1-.08.46,2.42,2.42,0,0,1-.25.54,6.55,6.55,0,0,0-.84,1.32c-.05.15-.06.32-.1.48a5.44,5.44,0,0,1-.28.66,4.6,4.6,0,0,0-.16,2.93c.08.27.21.52.29.78s.1.55.2.8.14.4.23.59a13.77,13.77,0,0,1,.65,1.58,11.25,11.25,0,0,1,.32,1.46,3.4,3.4,0,0,0,.15.63,2.38,2.38,0,0,0,.23.41.79.79,0,0,1,.14.23c-.29-.14-.52-.5-.77-.72a6.2,6.2,0,0,0-1-.55,7,7,0,0,0-1-.5c-.38-.15-.75-.33-1.15-.5a19.55,19.55,0,0,1-3-1.58c-.51-.34-1-.67-1.54-1s-1.12-1-1.67-1.46a9.87,9.87,0,0,1-1.77-1.88,15.28,15.28,0,0,1-1.27-2.44,11.44,11.44,0,0,1-.76-2.67,14,14,0,0,1-.06-2.59A8.08,8.08,0,0,1,53,100.29c.38-.5.72-1.05,1.13-1.52a10.26,10.26,0,0,1,1.19-1.09,10.79,10.79,0,0,1,1.25-1c.59-.34,1.19-.68,1.77-1a8.8,8.8,0,0,1,1.92-.75,17.21,17.21,0,0,1,3.91-1,6.7,6.7,0,0,1,2.53.23,9.27,9.27,0,0,1,1.08.41,3,3,0,0,0,1.07.41,8.48,8.48,0,0,0-2.61,1.17,6.12,6.12,0,0,0-1.39,1.3,3.6,3.6,0,0,0-.44.82c-.09.27-.22.41-.17.7a1.68,1.68,0,0,0,1.87,1.3c.71-.2,1.07-1.45.28-1.8-.34-.15-.33.16-.48.36-.08-.32,0-.65.38-.69a.89.89,0,0,1,.8.44,1.64,1.64,0,0,1-.38,2.1,2.14,2.14,0,0,1-1.14.57,1.6,1.6,0,0,1-1.22-.51c-.63-.56-.32-1.43-.4-2.17-.25.17-.34.79-.38,1.08a2.91,2.91,0,0,0,0,1.14,4.63,4.63,0,0,0,.34,1.29,7.54,7.54,0,0,0,.74,1c.2.24.4.48.59.74a4.25,4.25,0,0,1,.47,1A6.37,6.37,0,0,1,66,106c.07.41.22.8.27,1.24"/><path class="cls-4" d="M79.09,110.16a1.4,1.4,0,0,0,1-1,1.13,1.13,0,0,0-.38-1.2c-.25-.15-.53.06-.73.2a3.17,3.17,0,0,0-1.1,1.5,8.13,8.13,0,0,1-.67,1.23,4.14,4.14,0,0,1-.38.55c-.13.13-.33.21-.44.36a6.27,6.27,0,0,0,1.31-1A2.79,2.79,0,0,1,79.09,110.16Z"/><path class="cls-4" d="M77.81,111.77a2.92,2.92,0,0,1,1.47.37c.16.07.31.15.47.21a1.11,1.11,0,0,0,.26.07l.1,0s.07,0,.1,0l.12-.06a.64.64,0,0,0,.24-.22.6.6,0,0,0,.09-.45,1.07,1.07,0,0,0-.07-.19l-.13-.24a4.65,4.65,0,0,0-.34-.52.6.6,0,0,0-.23-.19l-.09-.05a.72.72,0,0,0-.25-.07,1.11,1.11,0,0,0-.26,0l-.11,0h-.07a3.14,3.14,0,0,0-.39.24,10.62,10.62,0,0,0-1,.6c-.14.09-.27.19-.41.27a.85.85,0,0,1-.22.09c-.07,0-.15,0-.22,0a.81.81,0,0,1-.22,0,.55.55,0,0,0-.18.06s-.06,0-.07.05a.18.18,0,0,0,0,.09s.14,0,.19,0l.22,0,.23,0h.12c.1,0,.19,0,.29,0Z"/><path class="cls-2" d="M67.38,139.9c.88.8,1.31-1.86,1.44-2.25a26.15,26.15,0,0,0,1.08-3.94,11.28,11.28,0,0,0-1.05-6.26,10.88,10.88,0,0,0-1.11-2.11c-.44-.57-.79-1.2-1.19-1.79s-.79-1-1.18-1.48a2.45,2.45,0,0,1-.55-1.68,4.53,4.53,0,0,1,1.89.55,7.59,7.59,0,0,0,2.34.27,11.53,11.53,0,0,0,2.62-.25c.93-.22,1.83-.62,2.76-.9.64-.2,1.5-.76,1.47.28a15.89,15.89,0,0,1-.34,2.12,14.34,14.34,0,0,0,.38,5c.14.76.35,1.49.47,2.26s.19,1.82.25,2.71a16,16,0,0,1-.24,3.72c-.06.33-.08.7-.13,1s-.07.49-.11.7.07.6-.05.78-.72.37-.9.46a6.06,6.06,0,0,1-2.42.68,13.53,13.53,0,0,0-1.8.16,11.19,11.19,0,0,1-2.45.18"/><path class="cls-2" d="M76.75,106.27c.06-.16,0-1,.06-1.35a3.9,3.9,0,0,1,.71-1.53c.31-.39,2.34-2.09,2.47-1,0,.3-.59.73-.78.93a8.26,8.26,0,0,0-.81,1.06c-.44.6-1.43,1.8-1.34,2.59"/><path class="cls-2" d="M79.49,155.31c-2,6.66-5.55,13.37-7.6,20a122.1,122.1,0,0,0-4.33,19.41c-.45,3.25-.82,6.61-1,10.06-.08,1.68-.15,3.36-.24,5-.08,1.42.76,3.28.19,4.51-1.22-.65-3.39-.81-4.25-1.78s-.7-4-.77-5.09c-.29-4.45-.28-8.69-1-13.11-.66-3.83-1.17-7.81-1.84-11.8-.73-4.39-2.52-8.91-2.92-13.17-.75-8-1.14-16.56,1.13-24.21a44,44,0,0,1,4.29-9.91,48.35,48.35,0,0,1,3.65-5.52,19.55,19.55,0,0,1,2.2-2.44c.36-.33.68-.71,1.08-.29a5.65,5.65,0,0,1,.66,1.79,8.29,8.29,0,0,0,1.55,2.34c1.22,1.63,2.5,3.24,3.78,4.83a18.41,18.41,0,0,1,1.37,2.46,15.47,15.47,0,0,1,1.28,3.21c.29.94.64,1.89.9,2.83a8.21,8.21,0,0,0,.68,1.91c.33-.13.63-1.14.7-1.51a13.57,13.57,0,0,0,.21-1.93c0-.68.13-1.38.1-2.06a19.22,19.22,0,0,0-1.66-5.55,10.59,10.59,0,0,1-1.15-3.11c.88.36,1.37,1.24,2,2a8.52,8.52,0,0,1,1.65,3.17A36.55,36.55,0,0,1,81.19,142a12.82,12.82,0,0,1,.11,2.56c0,.9,0,1.82-.08,2.73s-.35,1.82-.43,2.74A27.63,27.63,0,0,1,79.49,155.31Z"/><path class="cls-1" d="M69,129.92a52,52,0,0,0,3,6.83,47.57,47.57,0,0,1,3.33,8.45c.28,1.08.48,2.13.72,3.23a11.73,11.73,0,0,1,.57,2.9c.3-.16.39-.79.54-1.12s.5-.93.74-1.38A24.73,24.73,0,0,0,79,145.75a14.64,14.64,0,0,0,.54-2.55,7.8,7.8,0,0,0,0-2.46,20.08,20.08,0,0,0-1.2-4.72,1.3,1.3,0,0,1-.08-.17c-.25-.54-.55-1.06-.8-1.6-.11-.23-.18-.46-.3-.68a3.8,3.8,0,0,1-.32-.81c-.06-.2-.08-.41-.16-.61s-.07-.27-.13-.31a1.92,1.92,0,0,0,0,.24c0,.09,0,.17,0,.26a2.16,2.16,0,0,0,0,.44,1.65,1.65,0,0,1,0,.31c0,.28,0,.57,0,.86,0,.58,0,1.15,0,1.73a16.76,16.76,0,0,1-.24,1.77A9.21,9.21,0,0,0,76,139c-.45-.22-.59-1-.84-1.45s-.63-1.16-1-1.7c-.73-1.22-1.41-2.45-2.09-3.66-.27-.48-.53-1-.77-1.48-.13-.25-.25-.51-.37-.76a5.77,5.77,0,0,0-.36-.7l-.17-.27c-.13-.18-.28-.35-.4-.53s-.26-.34-.39-.49-.25-.29-.38-.44-.38-.4-.56-.61a.49.49,0,0,1-.13-.27.69.69,0,0,0-.17-.27s-.11-.19-.17-.21a1.3,1.3,0,0,0-.2.58c0,.11,0,.22,0,.34a1.36,1.36,0,0,0,.06.33c.07.3.23.56.31.85s.13.34.19.51.15.35.2.52Z"/><path class="cls-2" d="M69.38,176.9c-1.37.6,3.21,8.42,3.89,9.91,2.13,4.67,4.72,9.07,7,13.67,4.27,8.56,10.47,15.8,15.27,24,2,3.39,3.92,6.85,5.69,10.4s4,6.87,5.81,10.46c1.23,2.43,2.63,4.63,3.9,7,2.69,5.05-.35,7.36-4.66,9.26a45,45,0,0,1-7.52,2.64c-4.75,1.13-9.36,2.36-14.11,3.67-2.76.76-5.54.6-8.29.95-2.48.31-5,.69-7.37.9-3.68.32-7.2,1.5-10.87,2s-6.54,1.51-10.07,2.45A131.71,131.71,0,0,1,31.77,277a31.91,31.91,0,0,0-7,2.26c-1.37.53-4.95,2.62-6.19,2.51-2.15-.19-3.33-5.27-3.72-7-.5-2.19-.31-2.79,1.83-3.45,3.94-1.22,8-1.5,12-2.74,4.4-1.39,8.82-2.58,13.21-3.51,4-.85,8-1.05,12-1.81,4.35-.83,8.57-2.12,12.91-2.39,1.82-.11,3.52-.88,5.41-.89a65.22,65.22,0,0,0,7.16-.92,45.55,45.55,0,0,1,6.51-.1c1.74,0,3.27-.51,5-.59s3.66.53,5.36.17,3.21-1.09,5-1.41c.74-2.16-1.22-3.82-2.3-5.4s-1.73-3.15-2.94-4.63A141.81,141.81,0,0,1,85,231a50.55,50.55,0,0,0-4.52-6.44c-1.87-2.24-3-5.16-4.72-7.52a50.47,50.47,0,0,0-3.84-4.55c-1.09-1.12-2.87-2-3.74-3.32-.53-.81-.84-2.22-1.3-3.15a11.38,11.38,0,0,1-1.15-4.4,78.54,78.54,0,0,1,.76-13.44c.4-3.6.52-7.32,1.73-10.77"/><path class="cls-2" d="M65.2,202.73c-.4,1.83,0,5.27.36,7.12s1,3.82,1.4,5.8c1,5.32,1.85,10.67,2.71,15.94,1.44,8.86,2.94,17.69,4.78,26.49,1.31,6.24,3.11,12.16,4,18.14A97.46,97.46,0,0,1,78.93,298c-.47,6.54.48,12.5.36,19-.17,8.78,1.54,17.6,2.4,26.33.24,2.35.33,5.53,3.06,6.27,1.07.29,4-.09,4.6-1.07.44-.74-.21-2.74-.35-3.55-.23-1.31-.37-2.54-.5-3.87-1-10.42,0-21.65.53-32.45.23-4.81,1-9.33,1.22-14.22.23-5.67,2.11-11,1.77-16.9a75.49,75.49,0,0,0-2.22-11.77c-1.36-6-2.5-12-3.84-18.23-1.55-7.13-2.86-14.34-4.18-21.52-1-5.66-1.74-11.42-3.42-16.94-.81-2.64-1-3.74-3.42-4.72-2.62-1.06-5.39-1.17-8.08-1.94"/><path class="cls-2" d="M58.25,113.79c-1.56-3.79-2.93-7.71-4.48-11.55-.89-2.19-2.32-3.91-3.33-5.92-2.1-4.22-3.14-8.9-4.63-13.5-1.21-3.72-3-7.16-4.15-10.86-2.09-6.46-4.53-13-6.14-19.59-1.56-6.38-1.41-13-1.1-19.56.1-2.16.39-4.15.69-6.26.15-1,.32-2.16.56-3.17.13-.53.78-1.26.82-1.7.23-2.18-1.79-2-3.52-2.14s-3.12-.7-4.86-.57c-.53,3,0,6.06-.07,9a51,51,0,0,0,.39,9.51,73,73,0,0,1,.93,8.39c.39,7.33,2.44,14.11,4.29,21.17,1.79,6.8,3.24,13.72,6.17,20.09,1.74,3.77,2.86,7.94,4.4,11.85s3.21,7.76,4.83,11.6,3.27,7.78,4.62,11.8c1.29,3.82,1.94,7.89,3.37,11.72a68.9,68.9,0,0,0,4.29,9.81c1.82,3.2,5.28,3.71,7.18,6.5,1.48,2.18,5,2.71,5.77-.64,1.72-7.25-3-12.94-6.06-19-2.74-5.54-7.21-10.48-9.65-16.25C58.46,114.3,58.35,114,58.25,113.79Z"/><path class="cls-3" d="M29.7,19q.47.09.36-.27c-1.57-2.15-1.17-3.58-4.29-4-2.42-.36-4.54.25-6.54-1.24-1.8-1.34-2.1-3.25-2.26-5.35a33.42,33.42,0,0,1,.2-3.73c0-1.33.72-2.38.65-3.63,3.36,0-.49,6.27,2.87,6.22.26-1.36-.46-8,2-6.81.11,1.31-1,7.47,1.76,6.56.32-1.83.06-3.8.39-5.63a2.47,2.47,0,0,1,1.52.07c.16,2-1.5,7.58,1.82,7.06.86-.13,1.89-2,2.84-1.46,1.18.64.42,3.19-.81,3.26-.79,2.8,1.95,2.57,3.13,4.5,1,1.65.68,4.77.34,6.68-2.83.46-3.78-2.2-3.44-4.64"/><path class="cls-3" d="M146.37,219.89c-.7,2.53,1.32,3.14,3.16,3.44s4.11,1.51,5.38-.57c.41-.66,1.24-6.58,3.22-4.5,1.11,1.16-1.46,4.52-1.16,6.2,1.34.11,1.55-1.55,2.61-2.2s2.62-.5,4-.27c.62,3.72-5.17,2.95-4.27,5.87,1.23.22,6.32,0,5.11,2.71-1.21.22-5.33-.36-6.17.26-1.74,1.29,2.72,3.15,2.22,4.93-1.43.17-2.7.15-3.72-.82-.8-.76-1.08-2.76-2.63-2.24-.26,1.48,0,2.48-1,3.71s-1.31,1.52-1.75-.17c-.33-1.27-.06-2.34-.95-3.47a4.92,4.92,0,0,0-2.49-1.68c-1.95-.65-4.05-1.24-4.92-3.41a10.34,10.34,0,0,1-.55-3.84c0-1.07.92-3.59.61-4.1"/><path class="cls-2" d="M4.37,274.13c-1,.61-2.54-.29-3.61,0-1.44.37-.43,1.84-.24,2.72A45.39,45.39,0,0,1,1,282.68a41.88,41.88,0,0,0,1,6.52c.41,1.64.84,3.37,1.15,5a44.26,44.26,0,0,1,.32,6.2c.18,3.84-.34,7.69-.37,11.54,0,.85,0,1.76.05,2.6,0,.25,0,.85.29,1,.54.19,1.24-1.36,1.38-1.73.37-.95.74-2,1-3a24.9,24.9,0,0,0,.3-3.15c.31-2.11.45-4.34.81-6.45a26.26,26.26,0,0,0,.14-3.08,28.13,28.13,0,0,1,.43-2.92c.13-.86.18-1.69.32-2.54S8,291,8.12,290.2a12.54,12.54,0,0,1,.48-2.12,4.45,4.45,0,0,0,.55-1.33c.58.05,1.08-.31,1.63-.41a6.62,6.62,0,0,1,1.54,0,3.48,3.48,0,0,1,1.67.37,6,6,0,0,0,.94.56,4.93,4.93,0,0,0-2.08-2.38c-.48-.2-3.56.24-3.07-.82.25-.05.47-.25.69-.29a10.44,10.44,0,0,1,1.12,0,3.32,3.32,0,0,0-.59-1.44c-.62.6-1.39,1.1-1.85.17a7,7,0,0,1-.35-2.9,5.42,5.42,0,0,1,.27-2.44,8,8,0,0,0,.62-2.49c0-.31.2-1.07.07-1.34-.19-.44-.89-.42-1.32-.39a15.82,15.82,0,0,1-3.63-.21,3.22,3.22,0,0,0-2.87.44c-.63.6-1.35,2.29-.85,3.11"/><path class="cls-1" d="M86,348.83a4.91,4.91,0,0,0-2.35.21c-.69.38-.24,1.41-.1,2.18a6.17,6.17,0,0,1,.08,2c-.09.52-.51,1.45-.25,2a3.33,3.33,0,0,0,1.6.91c1.27.26,3-.61,4.11-.95.58-.17,1.2-.16,1.81-.29s1.18-.31,1.84-.44c.06-.48-.79-1.05-1.12-1.36s-1-.81-1.41-1.27a25.54,25.54,0,0,1-1.73-2.47C87.89,348.56,86.87,348.87,86,348.83Z"/><path class="cls-2" d="M92.26,361.5a14.83,14.83,0,0,1,6.5,2.48,16.73,16.73,0,0,0,3.68,1.34c1.21.38,2.39.76,3.63,1.05a28.81,28.81,0,0,0,3.52.79c1,.1,2,0,3,.14a16,16,0,0,0,5.3-.08c.85-.13,3.67-.29,4-1.13a3.83,3.83,0,0,1-1.29-.37c-.5-.28-.93-.54-1.44-.79-1.35-.65-2.68-1.41-4.07-2s-2.86-1.47-4.38-2.13a33.59,33.59,0,0,0-5.06-1.56c-1.4-.37-2.68-.71-4.07-1a9.83,9.83,0,0,1-2.64-.91c-2.47-1.24.88-4.35.6-6-.76-.34-1.09,1.19-1.34,1.62a7.77,7.77,0,0,1-2.15,1.88c-.33.26-.52.57-.83.84-.51.43-.46.28-1,0-1.07-.5-1-.75-.94-1.94-.46.77-1.83.57-2.53,1a3.09,3.09,0,0,1-2.92.67,13.77,13.77,0,0,0-3-.32c-.81-.05-2.15-.71-2.92-.46-1.07.34.2,1.12.4,1.69.43,1.21.12,2.57.81,3.71a4.52,4.52,0,0,0,1.92,1.83C87.32,362.79,90,361.32,92.26,361.5Z"/></g></g></svg>