<svg xmlns="http://www.w3.org/2000/svg" viewBox="0 0 270.81 325.08"><defs><style>.cls-1{fill:#007293;}.cls-2{fill:#fff;}.cls-3{fill:#1d1d1b;}.cls-4{fill:#e30613;}</style></defs><g id="Ebene_2" data-name="Ebene 2"><g id="Ebene_1-2" data-name="Ebene 1"><path class="cls-1" d="M64.58,163.16a24.13,24.13,0,0,0,2.69.35c.92.12,1.73.45,2.62.64s1.9-.12,2.83.07a4,4,0,0,1,1.6.62,8.39,8.39,0,0,0,1.36.64c.48.21.87.6,1.33.85,1,.58,2.12,1.21,3.19,1.68,2.37,1,10.94,2.09,13.39,2.91a27.62,27.62,0,0,0,6.26,1.57c.67,0,1.26.29,2,.3s1.38.05,2.08.08c1.34,0,2.63-.08,4-.15a44.27,44.27,0,0,1,6.6-.26c1.94.18,4.09.46,5.86-.65,1.55-1,1.62-2.13,1.29-3.7-.18-.86-.41-.86-.23-1.85.16-.84.6-1.59.71-2.45a36,36,0,0,0,0-4.87c0-3.14-.3-6.28-.31-9.42a45.63,45.63,0,0,0-.71-7,17.2,17.2,0,0,0-1-3.31,19.43,19.43,0,0,0-1.65-3.62,27.24,27.24,0,0,0-4.29-5,9.25,9.25,0,0,0-2-1.42,7.49,7.49,0,0,0-8.14,1,4.68,4.68,0,0,0-1.34,3,25.33,25.33,0,0,0-.18,6.21c.08.77.16,1.61.31,2.36a7.56,7.56,0,0,1,.37,1.72c-.08,1.57-.34,3.18-.36,4.81,0,3.18,1.51,6.34,2.7,9.22.26.65.65,1.24.93,1.82-.37.09-.72-.23-1-.38s-.91-.32-1.36-.51c-1.16-.46-2.4-.68-3.6-1.08a25.91,25.91,0,0,0-5-.91c-.73-.08-1.49.06-2.2-.08a19.33,19.33,0,0,0-3.58-.54c-1.37,0-8.9.08-10.26.22a6.71,6.71,0,0,1-2.82-.05A12.76,12.76,0,0,1,70,151.17a4.76,4.76,0,0,1-.87-1.9,4.91,4.91,0,0,0-.06-.67,4.92,4.92,0,0,1-.2-1.07,2.44,2.44,0,0,1,.25-1.27,4.48,4.48,0,0,0,.16-.52,4.53,4.53,0,0,0,.13-.64,1.14,1.14,0,0,0-.1-.79,1.3,1.3,0,0,0-.72-.58,1.28,1.28,0,0,0-.88.07,2.77,2.77,0,0,0-1.09.95,4.22,4.22,0,0,0-.39.47,5.64,5.64,0,0,0-.61,1.23c-.19.47-.35,1-.5,1.44a9.84,9.84,0,0,0-.34,1.4c0,.31,0,.46-.3.58s-.31,0-.52,0c-.46-.11-.93-.08-1.39-.17q-.33-.06-.66-.09a1.11,1.11,0,0,0-.58.14,1.2,1.2,0,0,0-.4.31,4.61,4.61,0,0,0-.36.54,4.83,4.83,0,0,0-.44.76c-.06.17-.11.36-.16.53s0,.24,0,.36-.05.24-.06.36,0,.29,0,.44a1.28,1.28,0,0,0,0,.39c-.14,0-.23.25-.29.35a4.15,4.15,0,0,0-.38.64,3.26,3.26,0,0,0-.19,1.95,2.31,2.31,0,0,0,.65,1.13.93.93,0,0,1,.14.14c0,.09,0,0,0,.14s0,.45,0,.69a7,7,0,0,0,.36,1.47,2.3,2.3,0,0,0,.41.88c.1.09.22.15.28.27a2.64,2.64,0,0,1,.12.4,1.88,1.88,0,0,0,.47.58,5.58,5.58,0,0,0,1.43.8A6.73,6.73,0,0,0,64.58,163.16Z"/><path class="cls-1" d="M231.89,191.91s-.29,2-.41,2.85a35.53,35.53,0,0,0-.26,5.39c0,3.22-.09,6.38-.35,9.5-.52,6-.93,18-1.43,24-.41,4.88-1,10.3-.95,15.27,0,2.72-.56,5.23,0,7.93.49,2.51.91,5,1.31,7.59,1,6.44-.18,12.5-.69,19.07-.08,1.07-.12,2.15-.17,3.23a13.16,13.16,0,0,1-.23,3,15.28,15.28,0,0,0-.21,5.48,19,19,0,0,0,.35,3.45c.21.88.63,1.72.8,2.59s.31,1.59.51,2.37a13.7,13.7,0,0,1,.49,2,6.8,6.8,0,0,1-.48,3.12,3.53,3.53,0,0,1-.53,1.14c-.3.29-.71.51-1,.84a11,11,0,0,1-1.53,1.44,18,18,0,0,0-2.21,1.79,8.33,8.33,0,0,0-1.79,1.91c-.66,1.27-.44,2.71-.89,4.05a10.14,10.14,0,0,1-2.18,3.22,7.21,7.21,0,0,1-1.78,1.52,4.19,4.19,0,0,1-2.16.39,10.76,10.76,0,0,1-4.88-.8,22.44,22.44,0,0,1-3.71-1.92,4.36,4.36,0,0,1-1-.83,5.82,5.82,0,0,1-.72-1.43c-.44-1.05,0-1.5,1.07-1.7a6.77,6.77,0,0,1,2,0c.34,0,1.24.27,1.36-.06-.73-.46-3.5-1-3-2.41.24-.67,1.19-.5,1.76-.48s1.46,0,1.78.37a1.73,1.73,0,0,1-1.15-1.92c.22-.78,1.08-1,1.79-1a5.08,5.08,0,0,0,2.51-.09,3,3,0,0,0,1.14-.74,3.46,3.46,0,0,0,.52-1.08c.33-.93.35-1.91.63-2.87a20.59,20.59,0,0,0,.66-3,22.44,22.44,0,0,0,.27-3.28,11.55,11.55,0,0,1,.09-1.32,12.62,12.62,0,0,0,.07-1.62,13.19,13.19,0,0,1,.35-2,34.63,34.63,0,0,0,.08-7.34,17.9,17.9,0,0,1,0-4.85,18.59,18.59,0,0,0,.41-4.08,57.8,57.8,0,0,0-1-10.83c-.17-.82-.36-1.63-.57-2.44a131,131,0,0,1-4-31c-.21-11.7-.93-29.5-.94-41.25,0-.82,0-1.67.06-2.48A24.86,24.86,0,0,1,221.94,190a25.31,25.31,0,0,1,5,.64c1.42.22,3.77,0,5,.64"/><path class="cls-2" d="M200.93,183.93c3-2.45,7.3,7.65,7.79,9.11,1.22,3.6,2.86,8.17,2.38,11.93,3,.41,6.16,0,9.21-.08,2.68-.08,5.51.17,8.29.06,2.47-.1,5.09.21,5.53-2.42.53-3.1.4-6,1.42-9,2.08-6.13,3.64-12.48,6.51-18.29,1.6-3.27,3.8-6.19,5.37-9.46,1.06-2.21,3-4.09,3.44-6.58"/><path class="cls-3" d="M201.58,183.6c2.91-.7,6.68,8.09,7.14,9.44,1.22,3.6,2.86,8.17,2.38,11.93,3,.41,6.16,0,9.21-.08,2.68-.08,5.51.17,8.29.06,2.47-.1,5.09.21,5.53-2.42.53-3.1.4-6,1.42-9,.29-.87.56-1.74.84-2.6-1.85,2.39-6.4.46-5.15-2.81a3.61,3.61,0,0,1,.79-1.24c1.25-2.43,4.73-1.65,5.49.5a85.11,85.11,0,0,1,4.54-12.14c1.6-3.27,3.8-6.19,5.37-9.46,1.06-2.21,3-4.09,3.44-6.58ZM216.82,194c-.38,3.79-6.42,3.23-6-.56l0-.5c.37-3.79,6.42-3.23,6.05.56Zm4.31-8.89-.47-.54c-2.49-2.93,2.19-6.7,4.69-3.76l.46.54C228.31,184.28,223.62,188.05,221.13,185.11Zm4.9,18.65c-3.9-.37-3.32-6.25.58-5.89S229.93,204.12,226,203.76Zm11.31-28.53-.45-.54c-2.49-2.93,2.19-6.7,4.68-3.76l.45.54C244.52,174.41,239.84,178.18,237.34,175.23Z"/><path class="cls-1" d="M129,105.24c.28-.09-12.47-23.91-24.8-19.53-6.14,2.18-9.52,7.55-11.1,12.59a6.7,6.7,0,0,0-.3,2.35c0,.3.09.6.11.9s0,.38,0,.57a2.23,2.23,0,0,0,.26.83,3.78,3.78,0,0,0,.65.84c.11.11.22.24.35.35a4.19,4.19,0,0,0,.59.42c.09,0,.32.13.36.23a.29.29,0,0,1,0,.16c0,.09-.06.19-.09.29a4.82,4.82,0,0,1-.31.74c-.1.21-.21.41-.3.62a1.51,1.51,0,0,0-.11.22,2.07,2.07,0,0,0,0,.35,4,4,0,0,1-.08.46c0,.13,0,.26,0,.39a5.24,5.24,0,0,1-.26.88c-.1.3-.2.61-.32.89a2.69,2.69,0,0,1-.34.49,2.49,2.49,0,0,0-.29.76l-.27.92c-.12.4-.23.81-.34,1.22-.45,1.84,3.08,1.5,3.87,2,2.14,1.48,4.29,5,5.69,7.19.87,1.34.31,1.55,1.88,2.21s6.77-1.92,8.27-2.79c2.11-1.24,3.23.71,4.75-1"/><path class="cls-3" d="M104,104.63c-.42-.11-.89-.49-1.34-.66-.61-.24-1.17-.53-1.79-.72a4.48,4.48,0,0,1-2.59-1.47,1,1,0,0,0,0,1.17,1.1,1.1,0,0,1-.45-.31,1.11,1.11,0,0,0,.73,1.28c.57.09,1.31-.06,1.87,0a3.23,3.23,0,0,1,1.61.52,6,6,0,0,1,1.47.84,1,1,0,0,0,.19-.55"/><path class="cls-2" d="M98.54,106a1.62,1.62,0,0,0-.16.6c0,.11,0,.21,0,.32a1.68,1.68,0,0,0,.08.59c0,.09.1.19.2.19a1.8,1.8,0,0,0,.43-.14c.37-.15.76-.27,1.14-.42a5.56,5.56,0,0,0,1.08-.5,2.57,2.57,0,0,0,.32-.22,1.92,1.92,0,0,1,.15-.14,4.21,4.21,0,0,0-.45-.28,4.58,4.58,0,0,0-3-.56s0,.09,0,.13"/><path class="cls-3" d="M100.59,106a1.12,1.12,0,0,0-.11-.25.68.68,0,0,0-.23-.14,2.18,2.18,0,0,0-.44,0c-.38,0-.6.28-.61.64a1.47,1.47,0,0,0,.1.72.92.92,0,0,0,.48.51.69.69,0,0,0,.82-.41A1.1,1.1,0,0,0,100.59,106Z"/><path class="cls-4" d="M101.8,116.92a1.64,1.64,0,0,0,0,.32,1.79,1.79,0,0,1-.09.46,5,5,0,0,1-.37.85,3,3,0,0,1-.83.93c-.06,0-.18.14-.27.11s-.12-.13-.16-.19-.34-.37-.5-.57-.28-.5-.45-.74-.3-.26-.31-.36.18-.12.27-.12l.86,0a4.43,4.43,0,0,0,.78-.11c.28-.08.58-.38.8-.4"/><path class="cls-4" d="M123.7,116.16c-.37.63-.71,1.43-1.54,1a9.1,9.1,0,0,1-1.62-1.49,20.6,20.6,0,0,1-1.83-1.78c-1.71-1.89-3.37-3.77-5.17-5.57a26.63,26.63,0,0,0-2.13-2.12,9.79,9.79,0,0,0-1.33-.91c-.49-.29-1.06-.43-1.56-.7a12.6,12.6,0,0,0-1.86-.87c-1.61-.62-3.14-1.28-4.69-2.06a31.39,31.39,0,0,0-3.64-1.52c-1.15-.4-2.33-.77-3.51-1.08a4.47,4.47,0,0,0-1.31-.25c-.26,0-.44,0-.52.32a2.23,2.23,0,0,0,0,.73,10.85,10.85,0,0,1-.09,1.4c0,.1,0,.36-.12.37s-.31-.23-.37-.28a6.49,6.49,0,0,1-1.84-2.21A8.92,8.92,0,0,1,90,97.41a7,7,0,0,1-.37-1.81,7.2,7.2,0,0,1,.07-1.31,19.17,19.17,0,0,1,.55-2,12.69,12.69,0,0,1,2.53-4.42,11.29,11.29,0,0,1,3.84-3.56,3.45,3.45,0,0,1,2.69-.19c.62.2,1.1.69,1.71.85,0-.92-.5-1.73-.5-2.71a2.77,2.77,0,0,1,1.65-2.64c1.47-.73,4.85-1.55,5.62.58-.07-3,1.89-4.75,4.9-4.86a9.88,9.88,0,0,1,6.23,2.19c.76.57,2.18,2.13,1.37,3.18-.24-.59.69-1.26,1.13-1.53,1.47-.9,3.14-.32,4.46.59A7.39,7.39,0,0,1,128.66,85c.23,1.53-.17,3,0,4.47.7.33,1.68-.74,2.44-.77,1.4,0,2.08,1.86,2.4,3a11.72,11.72,0,0,1,0,5.94c-.17.66-.82,3.24-1.65,3.37.55-.28.38-.6,1-.32,1.06.47,1.11,2.79.8,3.63-.43,1.15-1.91,3-3.12,3.4-.76.22-1.4,0-1.4-.91.67,0,.72,1.54.66,2.1a3.89,3.89,0,0,1-1.31,2.41,7.82,7.82,0,0,0-1.18,1.34c-.49.72-1.39,1-2.06,1.51A6.56,6.56,0,0,0,123.7,116.16Z"/><path class="cls-1" d="M256.62,29.16l0,.1a20.44,20.44,0,0,0,2.62,4.11c2.43,3.52,1.11,7.77.17,11.6-.77,3.12-2.09,6.54-2.25,9.76-.18,3.58.2,20-.06,21.65-.17,1.08-.95,2-1.22,3.1-.81,3.13-1.69,6.25-2.68,9.33-.59,1.83-1.75,3.59-2.18,5.46-.27,1.16-.73,2.32-1,3.5a42.66,42.66,0,0,0-.55,8c0,5.58,1.81,11.07,1.27,16.75a49.79,49.79,0,0,1-1.57,8.56c-.46,1.66-1.88,4.25-.44,5.7,2.1,2.1,4.11-1.68,5.3-2.91.88-.91,2.05-1.75,2.5-3,.33-.87,0-1.77.27-2.65a16.86,16.86,0,0,1,2.07-3.85c.77-1.34,1.54-2.68,2.33-4,14.29-24.44,7.79-73,8.34-76.82.15-1,.59-1.54.76-2.44.24-1.3-.17-2.74,0-4.06a70.77,70.77,0,0,0,.26-8.12A36.45,36.45,0,0,0,269,20a20.17,20.17,0,0,1-.28-3.17,31.22,31.22,0,0,0-1-4.24,18.51,18.51,0,0,1-1.07-5.25c0-1.54-.51-3-.5-4.51,0-1.21-.74-3.3-2.46-2.71,0,.68-.13,2.54-1,2.49-1.15-.06-1.07-2.53-2.76-2-1.18.35-.59,1.54-.42,2.2.09.33.45,1.2.15,1.58s-1.21.19-1.72.29a2.24,2.24,0,0,0-2,2c-.3,1.89.79,1.11,2,1.55s1.2,1.52,1.55,2.45a18.82,18.82,0,0,1,1.45,9C260.37,23.39,255.05,24.75,256.62,29.16Z"/><path class="cls-2" d="M179.06,139.12a31,31,0,0,0,3.51-.61c5.62-1.32,10.88-3.77,16.66-4.61,5.38-.79,10.78,0,16.06-1.7a38.44,38.44,0,0,0,9-4.68c2.47-1.68,5.21-2.75,7.57-4.63,4.51-3.58,8.86-7.18,11.91-12.06.54-.87,1-1.77,1.56-2.6.38-.53,1.24-1.17,1.38-1.74.24-1-.7-1.36-1-2.18a2.5,2.5,0,0,1,1.1-2.71c.38-.33,1.85-.71,2-1,.25-.62-1.16-1.33-.74-2.36.3-.73.91-.84,1.59-1-2-1.88-.73-2.23,1.33-3.21-.26-1.07-1.85-.91-1.28-2.16a3.24,3.24,0,0,1,2.21-1.34c1.82-.3,4.85,1.13,6.51,1.73A37.34,37.34,0,0,0,264.77,94a17.75,17.75,0,0,0,2.93.31c.81,0,1.71-.41,2.51-.13a3.29,3.29,0,0,1-.56,2.35c2.35,1,.68,3-1.11,3.91a11.51,11.51,0,0,0,2.18.83c0,1.28-1,2.12-1,3.28,2.83-.23-1.77,3.32-1.89,3.52-.76,1.27-.47,4.64-.6,6.1a69.8,69.8,0,0,1-1.16,8.69c-2.06,9.23-4.56,18.45-9.11,26.86a103.26,103.26,0,0,1-6.36,10.85,75.5,75.5,0,0,1-5.93,6.7c-2.79,3.13-6.55,5.59-9.82,8.23-4.78,3.86-10.77,6.76-16.47,9.12A88.62,88.62,0,0,1,154,186a69.11,69.11,0,0,1-18-9.88,72,72,0,0,1-14.15-13.46,58,58,0,0,1-9.07-15.93,48.45,48.45,0,0,1-2.45-9.56c-.4-2.69-1.26-5.77-1.06-8.48a17.93,17.93,0,0,1,.43-2c.57.43.45,2.5.63,3.28a9.67,9.67,0,0,0,1.06,3.47,13.84,13.84,0,0,0,5.15,4.79c3.38,1.47,6.36,3.72,10.4,3.21.3,0,.6-.08.9-.15a12.44,12.44,0,0,0,7.51-5.08,5.8,5.8,0,0,0,1-3.61c.08-1.91.77-3.68.27-5.61-.69-2.65-2.68-4.57-3.92-7,2.14.88,3.64,1.1,4.81,3.17,1.45,2.55,3.79,3.42,6.3,4.79,4.32,2.35,8.12,5.67,12.69,7.57C163.36,138.35,171.59,140,179.06,139.12Z"/><path class="cls-3" d="M158.23,136.17c-.56-.21-1.12-.41-1.67-.64-.78-.32-1.5-.73-2.25-1.12a1.74,1.74,0,0,1-2.26,1.5,1.86,1.86,0,0,1-1.3-2.15c-.18-.52-.09-1,.53-1.12-2.46-1.58-4.85-3.28-7.41-4.68l-.81-.42s0,.11-.09.17c-.89.87-3.41,1.7-3.82-.13a2.19,2.19,0,0,1,.14-1.28,2.63,2.63,0,0,1,.09-1,7.41,7.41,0,0,1-1.81-2.09,5,5,0,0,0-2-2,.72.72,0,0,1-.57.66h-.12c-.6.32-1.39-.13-1.13-.86.06-.17.12-.34.19-.52-.38-.15-.78-.29-1.22-.47,1.24,2.38,3.23,4.3,3.92,7,.5,1.93-.19,3.7-.27,5.61a5.8,5.8,0,0,1-1,3.61,12,12,0,0,1-1.69,2l.1,0a2.35,2.35,0,0,1,.74,2,1.65,1.65,0,0,1-1.32,1.58c-1,.15-1.89-.87-2.46-1.6a11.92,11.92,0,0,1-2.88,1.08c-.3.07-.6.11-.9.15a5.55,5.55,0,0,1-.56,0,1.27,1.27,0,0,1-1,1.51c.14.48-.09,1-.71.92-1.26-.24-2.62-1.18-2.26-2.47a2.92,2.92,0,0,1,0-.51c-2-.69-3.89-1.82-5.89-2.69a13.84,13.84,0,0,1-5.15-4.79,9.67,9.67,0,0,1-1.06-3.47c-.18-.78-.06-2.85-.63-3.28a17.93,17.93,0,0,0-.43,2,15.9,15.9,0,0,0,.06,2.38.74.74,0,0,1,.77.59c.66.14.91.71.72,1.68a.77.77,0,0,1-1.06.58c.2,1.11.41,2.21.57,3.25a48.45,48.45,0,0,0,2.45,9.56,55.7,55.7,0,0,0,5.9,11.51,2.54,2.54,0,0,1,.17-.46,3.58,3.58,0,0,1,0-.45c0-.78,1-.79,1.35-.26a1.79,1.79,0,0,1,.23,0A2.28,2.28,0,0,1,123,157c1.35,1,1.43,3.89-.49,4.27a1.2,1.2,0,0,1-1.06.81c.15.19.27.39.42.57a71.14,71.14,0,0,0,10.58,10.68c1.65-.69,3,.62,3,2.37l.53.41c.37.28.77.53,1.15.8,1.56-1.6,3.08-3.24,4.5-5a102.94,102.94,0,0,0,8.81-12.38c-.05,0-.07.09-.13.13a1.93,1.93,0,0,1-2.94-.78,2,2,0,0,1,.13-1.48,1.12,1.12,0,0,1,.25-1.24c1.62-1.64,3.62.59,3.28,2.33a.75.75,0,0,1,0,.16c1-1.61,1.86-3.24,2.72-4.91C156.47,148.55,159.48,142.17,158.23,136.17Zm-44.06,7.59c-1.23-.5-1.15-1.87-.62-2.83a.87.87,0,0,1,.21-.25s0-.07,0-.1a1.07,1.07,0,0,1,1.33-.47c1,.49,2.17,1.66,1.7,2.86C116.44,144,115.05,144.11,114.17,143.76Zm5.6,7.22a2.21,2.21,0,0,1-1-3.49.66.66,0,0,1,.74-.23c1-.43,2.17-.28,2.45.9S121.55,151.74,119.77,151Zm8,2a2.29,2.29,0,0,1-.09-.31v0a2,2,0,0,1,0-.43,2.81,2.81,0,0,1,0-.44.23.23,0,0,1,0-.07c0-.05.06-.05.08-.1.67-1.46,3.1-.94,3.51,1a1.83,1.83,0,0,1-2,1.91h0a1.12,1.12,0,0,1-.24-.08l-.26-.09A1.76,1.76,0,0,1,127.81,153Zm1.71,12.62A3.26,3.26,0,0,1,128,162a.63.63,0,0,1,.94-.39,1.75,1.75,0,0,1,1.06-.32c.07,0,.14.06.21.07a1.4,1.4,0,0,1,1.6,1.14c0,.07,0,.13,0,.2a3.19,3.19,0,0,1,.42,1.25A1.85,1.85,0,0,1,129.52,165.61Zm7.39-24a.74.74,0,0,1,1.16.41.54.54,0,0,1,.51.27h.09c1.42.63,1.76,3.65-.31,3.44S135.19,142.93,136.91,141.64Zm1.78,7a.67.67,0,0,1,.88.26.45.45,0,0,1,.11,0c.77,0,1,1,.95,1.69a.84.84,0,0,1,.07.19,1.77,1.77,0,0,1-1.2,1.9,2,2,0,0,1-2.27-1.48A2.16,2.16,0,0,1,138.69,148.59Zm1.28,10.6a1.72,1.72,0,0,1-2.69.41,2.5,2.5,0,0,1-.65-2,1.49,1.49,0,0,0,0-.21c0-.13.06-.26.1-.39a2,2,0,0,1,.14-.37,1.6,1.6,0,0,0,.1-.23.58.58,0,0,1,.6-.29,1.47,1.47,0,0,1,.69-.12,2.74,2.74,0,0,1,1.69,3.21Zm1.63-22.63a.31.31,0,0,1,0-.1.64.64,0,0,1-.07-1.13c1.08-.69,2.05-.47,2.49.24a2,2,0,0,1,1.08.47,1.59,1.59,0,0,1-1,2.67,2.19,2.19,0,0,1-1.3-.53C142.08,137.78,141.43,137.17,141.6,136.56Zm.76,33.28c-2.64.69-3.48-3.47-1-4.08,1-.74,2.08.1,2.46,1.24a1.61,1.61,0,0,1,.09,1.11A1.94,1.94,0,0,1,142.36,169.84Zm6.26-18.47a.46.46,0,0,1-.21-.08l-.08,0a2.88,2.88,0,0,1-.79-.71c-.52.11-1.16-.31-.9-.94A2.93,2.93,0,0,1,148,148c.05,0,.07-.08.12-.11a.6.6,0,0,1,.8.11,1.86,1.86,0,0,1,.43.2c.06.05.07.11.12.16a1.82,1.82,0,0,1,1.19,1A1.58,1.58,0,0,1,148.62,151.37Zm6.83-7.62c-1.88,0-2.65-1.66-2.35-3.28a.79.79,0,0,1,1.17-.51c1.18-.85,2.64,0,3.25,1.24S156.79,143.77,155.45,143.75Z"/><path class="cls-3" d="M159.68,187.78c1.16-2,2.26-4.07,3.24-6.16,6.33-13.56,9.28-28.7,4.56-43-1.33-.24-2.65-.52-3.94-.85a32.61,32.61,0,0,1,1,8.73,43.45,43.45,0,0,1-2.44,12.13,96.63,96.63,0,0,1-10.72,21.23c-.88,1.32-1.81,2.59-2.76,3.87A54.17,54.17,0,0,0,154,186Q156.82,187,159.68,187.78Z"/><path class="cls-3" d="M184.06,172.76a72.72,72.72,0,0,1-5.3,18.28,91.93,91.93,0,0,0,10.1.11c5-18,2.91-38-9.19-52.13-.19,0-.4.08-.61.1-.47.06-1,.08-1.44.11A50.78,50.78,0,0,1,184.06,172.76Z"/><path class="cls-3" d="M225.21,158A36,36,0,0,0,217,142.7c-3.29-3.57-7.61-5.81-11-9.24-1.78,0-3.56.1-5.34.27,2.09,1.78,4.45,3.21,6.49,5.08a32.49,32.49,0,0,1,6.18,7.51,40,40,0,0,1,5.21,18.61,66.85,66.85,0,0,1-1.76,19.73c0,.18-.09.37-.13.55.55-.22,1.11-.4,1.66-.62,1.94-.81,3.92-1.71,5.88-2.66C226.46,174.08,227.31,165.81,225.21,158Z"/><path class="cls-3" d="M234.82,175.47c1.35-1.09,2.78-2.16,4.19-3.24a53.76,53.76,0,0,0-.34-15.31,39.54,39.54,0,0,0-18.18-27.1c-.91.5-1.82,1-2.75,1.41a43.85,43.85,0,0,1,8.94,9.25,40.78,40.78,0,0,1,6.28,14.3c1.66,8.09.39,15.72-1.79,23.27A44.15,44.15,0,0,0,234.82,175.47Z"/><path class="cls-3" d="M267.31,110.19a5.21,5.21,0,0,1,.49-2.15c.12-.2,4.72-3.75,1.89-3.52.07-1.16,1.07-2,1-3.28a11.51,11.51,0,0,1-2.18-.83,7.82,7.82,0,0,0,.86-.55,2.2,2.2,0,0,1,.71-4.33,6.56,6.56,0,0,0,.1-1.38c-.8-.28-1.7.14-2.51.13a17.75,17.75,0,0,1-2.93-.31,37.34,37.34,0,0,1-6.37-1.67l-.53-.2a2.06,2.06,0,0,1-2.2,1.25,2.11,2.11,0,0,1-1.92-2.64,5.11,5.11,0,0,0-1.86-.14,3.24,3.24,0,0,0-2.21,1.34c-.57,1.25,1,1.09,1.28,2.16-2.06,1-3.34,1.33-1.33,3.21-.68.11-1.29.22-1.59,1-.42,1,1,1.74.74,2.36-.11.3-1.58.68-2,1a2.5,2.5,0,0,0-1.1,2.71c.28.82,1.22,1.21,1,2.18-.14.57-1,1.21-1.38,1.74-.59.83-1,1.73-1.56,2.6-2.84,4.55-6.83,8-11,11.33,0,0,.08,0,.13,0a1.44,1.44,0,0,1,1.38.65,3.34,3.34,0,0,1,.46,1.25.77.77,0,0,1,0,.25,2.58,2.58,0,0,1-.55,2c-.76.85-2.5,1.2-3.06-.11a2.68,2.68,0,0,1-.14-1.46,1.86,1.86,0,0,1,0-1.21.43.43,0,0,1,0-.07c-1.83,1.3-3.82,2.26-5.72,3.41,2.83,1.77,6.29,3,9.14,4.43a2.1,2.1,0,0,1,1.55-.45l.17,0a2.11,2.11,0,0,1,1.92,2.61,39.5,39.5,0,0,1,4.8,3.66c.73.67,1.39,1.41,2.05,2.14a2.2,2.2,0,0,1,2.36-2.73c2.92.27,2.49,4.69-.43,4.42a2.63,2.63,0,0,1-.67-.2,31.12,31.12,0,0,1,5.19,9.69,44.07,44.07,0,0,1,1.51,6.43c1.32-2.21,2.54-4.47,3.77-6.75a1.94,1.94,0,0,1-.94-1.92l0-.16a2.19,2.19,0,0,1,2.9-1.82,80.47,80.47,0,0,0,3.22-8.22,2.28,2.28,0,0,1,1.14-3.55c.92-3.06,1.73-6.16,2.46-9.27a2.21,2.21,0,0,1,.5-4.39,2,2,0,0,1,.37.1c.35-2.08.59-4.17.79-6.3h0l-.17,0C264,114.33,264.44,110,267.31,110.19ZM244.37,126.7a2.51,2.51,0,0,1-2.39-1.56c-.49-1.16.42-2.08,1.39-2.6a.72.72,0,0,1,1,.85h.07a1.52,1.52,0,0,1,1,1C245.77,125.37,245.57,126.55,244.37,126.7Zm2-13.85a2.22,2.22,0,0,1,.42-4.41A2.22,2.22,0,0,1,246.35,112.85ZM257.82,100l.16,0c2.92.26,2.49,4.68-.43,4.41l-.16,0A2.22,2.22,0,0,1,257.82,100Zm-2.5,13.72c2.92.27,2.49,4.69-.43,4.42A2.22,2.22,0,0,1,255.32,113.72Zm-2,19.33a.8.8,0,0,0-.15-.17c-1.86-2.22,1.66-5,3.52-2.83l.15.18C258.67,132.44,255.16,135.27,253.29,133.05Z"/><path class="cls-3" d="M207.94,181a61.42,61.42,0,0,0-.32-19.28c-1.16-5.79-3.23-11.28-7.21-15.82-3.22-3.69-7.2-6.34-10.87-9.47-1.14.37-2.28.74-3.42,1.09,8.12,9.46,13.06,19.54,14.78,31.94.91,6.49,1.43,13.56.39,20.26l.42-.07c1.67-.34,3.32-.74,5-1.17A70.8,70.8,0,0,0,207.94,181Z"/><path class="cls-1" d="M134.8,121.4c.24-2-2.05-3.74-3.33-4.83-1.62-1.39-3.17-1.55-5.17-2a11.86,11.86,0,0,0-5.77-.12,12.87,12.87,0,0,0-3.57,1.33c-.45.29-.88.62-1.32.92-1.88,1.31-4.5,1.37-6.67,2.17-1.34.49-2.66.86-4,1.41-.78.32-1.44.92-2.33.8-.72-.09-1.45-.38-2.16-.47-1.89-.22-3.77-.6-5.68-.7-4.28-.23-8.81-.78-13.12-.21a45,45,0,0,1-6,.38c-1.64,0-3.21.16-4.84.16s-3.25-.18-4.83-.16-3.14-.07-4.72,0a49.58,49.58,0,0,1-5.57-.35c-3.66-.36-7.34-.44-11-.5-3.28-.06-6.57-.21-9.84-.3a8.52,8.52,0,0,1-1.71-.41c-.89-.2-1.79-.35-2.68-.54s-1.62-.43-2.42-.69c-2.62-.88-4.77-2.76-7.44-3.52a26.25,26.25,0,0,0-3.71-.86c-.56-.08-1.13-.19-1.7-.22-.92,0-1.87,0-2.79-.07a44.82,44.82,0,0,0-5.91.07,41,41,0,0,0-4.44.45c-.41,0-2.2.3-2,1,0,.19.31.29.46.35a11.85,11.85,0,0,0,1.31.44c1.77.52,3.66.31,5.48.5a50.39,50.39,0,0,0,5.34.35c.52,0,1.55-.05,1.53.68s-.75,1.25-1.22,1.6a21.77,21.77,0,0,1-1.9,1.28c-.26.16-.53.38-.51.71a1.21,1.21,0,0,0,.62.88,4.92,4.92,0,0,0,3.5.88c.43-.08,2.25-.79,2.52-.13.11.26-.17.71-.22,1a5.1,5.1,0,0,0-.07.87,1.5,1.5,0,0,0,.39.89,6.56,6.56,0,0,0,3.29,2,7.69,7.69,0,0,0,3.63.17c.81-.14,1.7-.73,2.54-.63a4.39,4.39,0,0,1,.94.27,16.66,16.66,0,0,0,1.94.59c2.79.71,5.59,1.13,8.39,1.75,3.21.72,6.14,2.39,9.33,3.12a39.21,39.21,0,0,0,7.34.56c2,.09,4,.52,6.1.43s3.48.86,5.32,1.36a38.17,38.17,0,0,0,7.23.85,74,74,0,0,0,9.42.18,77.16,77.16,0,0,0,8.58-1.13c1.27-.21,2.49-.5,3.72-.83.84-.22,1.81-.8,2.59-.34.28.16.33.41.7.58a6.49,6.49,0,0,0,1.3.39c1.3.29,2.6.68,3.92.87,2.9.41,5.74,1.23,8.66,1.52,2.29.23,3.75,1.88,5.79,2.81.71.33,1.31.79,2,1.09a31.29,31.29,0,0,0,4.12,1.2,7.31,7.31,0,0,0,4,0C131,140.47,134,140,136,137.4a10.16,10.16,0,0,0,1.52-3.83,8,8,0,0,0,.07-5.16,34.87,34.87,0,0,1-1.27-4.22c-.3-1.12-.42-2.67-1.16-3.59a14.19,14.19,0,0,0-2.67-2.08,18.37,18.37,0,0,0-5.34-2.5,19,19,0,0,0-6.45-1,9.1,9.1,0,0,0-4.33.84,1.22,1.22,0,0,0,.79-.18"/><path class="cls-3" d="M97,115.24a4.39,4.39,0,0,1-.09-3.12,5,5,0,0,1,2.39-2.25,4.47,4.47,0,0,1,2.81-.42,5.13,5.13,0,0,1,2.57,2.14c.59.8.73,1.82,1.33,2.57a8.1,8.1,0,0,0,2.15,1.93c.81.45,1.92.48,2.11-.56.11-.62,0-.92-.57-1.13s-.59,0-1.09.17a.79.79,0,0,1-.14.24c-.19-1.16.66-1.84,1.8-1.54.87.23,1.19,1.24,1.4,2,.54,1.88-1.67,3.6-3.51,3s-3-2.43-5.06-2.43c-1.77,0-5.1,2.73-5.87-.35-.13-.53-.09-.73-.68-.93a2.71,2.71,0,0,0-1.2-.09c-1,.17-1,.92-.41,1.65a3.14,3.14,0,0,0,2.25,1.27c.41,0,2,0,2.11-.43"/><path class="cls-3" d="M93,110.18a.52.52,0,0,0,.11.1c.35-2.44-3.32-4.53-4.86-2.35-.54.78-.54,2.48.28,3.06s2.16.12,1.92-1.06a.7.7,0,0,0-.35,0c.13.16,0,.26.06.42-.57.06-1.49-.17-1.22-1s1.72-.74,2.2-.38a3.64,3.64,0,0,1,.88,1.79,7.79,7.79,0,0,1,.24,1c0,.35,0,.78.14,1.08a6,6,0,0,0,.42-1.39c.17-.5.64-1.56.18-1.94"/><path class="cls-3" d="M101.8,106.22c-.07-.22-.44-.3-.61-.38-.41-.2-.88-.24-1.3-.41L98.67,105a2.87,2.87,0,0,1-.51-.21l-.2-.11s-.07-.1-.12-.13a.86.86,0,0,0,.29.7c.12.13.33.36.52.34a.24.24,0,0,0-.09.11c.26,0,.51,0,.77.09s.5.06.74.13l1,.29.54.13a2.6,2.6,0,0,1-.4.23,5.91,5.91,0,0,1-.88.42,6,6,0,0,1-1,.34c-.27,0-.52.06-.79.09s-.14.23,0,.32a.64.64,0,0,0,.47.07.81.81,0,0,0,.25-.08,3.94,3.94,0,0,1,.48-.18,6.26,6.26,0,0,0,1.47-.83,3,3,0,0,0,.57-.42l0,0"/><path class="cls-3" d="M94.46,106c-.06.1-.37.45-.22.57a1.7,1.7,0,0,0,.18-.44c0-.11.06-.12,0-.21a1.71,1.71,0,0,1-.2-.27A4,4,0,0,1,94,105c0-.12-.09-.53.12-.54a.55.55,0,0,1-.15-.08,3.28,3.28,0,0,1-.31-.2.9.9,0,0,1-.38-.34.65.65,0,0,1,0-.31.78.78,0,0,1,.24.2,1.15,1.15,0,0,0,.35.24c.29.14.59.26.89.37.13,0,.36.1.39.27s-.13.45-.15.67a1,1,0,0,1-.23.63c-.1.1-.19.2-.33.15s-.22-.2-.27-.34a2.56,2.56,0,0,1-.26-1.08c0-.17.08-.23.25-.19a2.07,2.07,0,0,1,.47.18,1.14,1.14,0,0,0,.33.17.58.58,0,0,1,0,.18,1.58,1.58,0,0,1-.09.31A3.63,3.63,0,0,1,94.46,106Z"/></g></g></svg>