<svg xmlns="http://www.w3.org/2000/svg" viewBox="0 0 229.34 315.98"><defs><style>.cls-1{fill:#e30613;}.cls-2{fill:#007293;}.cls-3{fill:#1d1d1b;}.cls-4{fill:#fff;}</style></defs><g id="Ebene_2" data-name="Ebene 2"><g id="Ebene_1-2" data-name="Ebene 1"><path class="cls-1" d="M157.48,205.15c-.27-.3-.54-.62-.82-1-3.91-4.94-7.06-10.52-10.61-15.72s-6.84-10.74-10.43-16c-1.4-2-2.69-4.12-4-6.22-.71-1.16-1.52-3.47-2.5-4.24.62.09,1.74,1.33,2.26,1.87,1.11,1.17,2.19,2.5,3.48,3.64,4.34,3.83,8.78,7.46,12.81,11.7,7.33,7.72,14.63,15.21,20.8,23.86,2.09,2.92,4.28,6.23,7,8.61.76.67,1.64,1.21,2.46,1.8a7,7,0,0,1,2.39,2.42,2.89,2.89,0,0,1-.76,3.15c-.73.83-1.8,1.18-2.51,2a7.13,7.13,0,0,1-1.77,1.65,21.59,21.59,0,0,1-2.14,1.1,4.24,4.24,0,0,1-2.43.38c-.82-.11-1.25-.73-1.73-1.35a42.44,42.44,0,0,1-2.55-3.69,34,34,0,0,0-2.33-3.52,21.13,21.13,0,0,1-4-6.46A11.77,11.77,0,0,0,157.48,205.15Z"/><path class="cls-2" d="M146.13,122.19c7.44,10.33,16.27,19.47,23.53,30,5.5,8,11.32,16.25,15.4,24.91,2.64,5.58,4.42,11.89,7.93,16.74,2.48,3.44,8.81,6.11,4.9,10.23-2.86,3-7.08,7.32-10.75,9.08-3.44,1.66-5,.74-8.1-1.11-3.77-2.25-7.28-4.95-11-7.3-6.28-4-13.61-7.93-18.93-13.18-1.69-1.67-2.68-3.82-4.16-5.66-2.37-3-5.34-5.4-7.86-8.22-4.37-4.85-8.3-10.16-12.92-14.73-7.34-7.26-15.54-13.06-23.19-19.92a96.22,96.22,0,0,0-19.49-13.69c-6.79-3.51-12.95-8.81-18.85-13.6-2.76-2.24-6.23-4.47-7.11-8.1-1-3.9,1-6.21,3-9.57,3.28-5.55,6.31-11.21,9.27-17,1.06-2,2.49-3.84,3.51-5.88.73-1.47.51-4.16,2.41-4.32,1.07-.09,2,1.42,2.73,1.91,2.85,1.84,6.09,2.82,9.34,3.9,4.17,1.39,8.52,2.11,12.65,3.6,9.71,3.5,17.21,10.3,24.94,17A144.37,144.37,0,0,1,146.13,122.19Z"/><path class="cls-2" d="M181.8,178.13c5.53,4.19,12.29,9,19.36,4.87,3.56-2.06,6.89-5.4,11.44-5.37,3.7,0,6.83,4.15,8.46,6.88,2.4,4,1.76,8.19,1.21,12.81a49.13,49.13,0,0,0-.32,11.13c.39,4.05,2.23,6.47-1.1,9.87-3,3.05-5.36,1.68-7.32-1.6a3.85,3.85,0,0,0-3.06,1.53,6.42,6.42,0,0,0-1,1.45c-.08.18-.09.39-.17.57a4.34,4.34,0,0,1-.56.77c-.2.28-.43.65-.77.73-.52.11-1.4-.82-1.83-.18a2.48,2.48,0,0,0-.14,1,1.94,1.94,0,0,1-.22,1c-.41.61-1.36.27-1.94.51-.79.32-1.5.8-2.31,1.05-2.41.74-4.77-.17-7-1.27-4-2-6.75-5-10.26-7.66-1.3-1-2.51-2-3.82-3s-2.47-1.39-3.71-2.13a29.3,29.3,0,0,1-5.19-4c-1-.94-3.44-2.36-3.35-3.92,1.65-.8,2.7-2.88,3.68-4.32,2.78-4.14,6.36-8,8.21-12.65"/><path class="cls-3" d="M96.78,143.66l-1-.44q-5.86-2.49-11.64-5c-1.1-.47-2.44-1.13-2.57-2.07-.16-1.1,1.16-2.76,1.73-3.66,2.91-4.65,8-7.58,10.59-12.42,1.39-2.56,1.34-5.38,2.51-8,1.64-3.64,3.37-7.33,4.13-11.27.48-2.48-.12-6,1.45-8.14,2-2.8,7.39-2.32,10.41-2.8,4.66-.75,9.38-1.08,14-1.84,2.17-.36,4.55-2,6.44-.57C134.92,89,137,92,138.69,94A109.83,109.83,0,0,1,152,114.32c3.14,6,6.58,12.12,10.11,17.9s6.94,12.05,10.79,17.77c3.74,5.56,7.79,11,11.33,16.65,2.67,4.28,5.93,8.51,7.5,13.39,1.71,5.36-5.82,1.87-8,1.05-3.82-1.43-7.35-2.19-11.42-1.28-4.63,1-4.24,7.72-3.24,11.29a20.1,20.1,0,0,0,2,5.59,28,28,0,0,1,2.63,3.95c.5,1.14-.05,3-.28,4.19s-.52,3.94-1.58,4.75l-.07.06c-1.18.77-3.43-1.49-4.41-2.13-1.76-1.14-3.54-2.27-5.37-3.3a52,52,0,0,1-4.49-3c-2-1.39-4-2.42-5.76-4.07-1.95-1.83-3.95-3.57-5.82-5.48-2.15-2.18-3.84-4.89-6-7a41.44,41.44,0,0,1-5.41-6c-3.27-4.7-7.63-8.58-11.26-13-2.25-2.71-3.75-5.88-5.85-8.69C112.4,150.41,104.17,146.8,96.78,143.66Z"/><path class="cls-2" d="M200.05,222.31a3.64,3.64,0,0,0-1.68.77c-.39.32-.29.83-.63,1.21a4.94,4.94,0,0,1-2.73,1.07,19,19,0,0,1-2.83.24,8.72,8.72,0,0,1-1.9-.17,1.46,1.46,0,0,0-1.55.36c-1.69-2.5,6.8-3.33,4.05-7.14-1.64,0-2.14,1.47-3.35,2.25-2.85,1.86-5.14,1.77-7.79.12a11.23,11.23,0,0,1-1.29-1c-.46-.36-.93-.7-1.38-1.09s-1.12-1-1.62-1.48c-.15-.16-.18-.4-.35-.54a1.54,1.54,0,0,0-.74-.2,9.84,9.84,0,0,0-2.81-.18,4.59,4.59,0,0,0-2.44.94c-.62.5-1.75,1.46-1.63,2.38.05.38.42.62.67.88.4.41.79.83,1.21,1.24.72.72,1.44,1.44,2.15,2.17a20.74,20.74,0,0,0,3.51,2.9c1.41.92,2.8,1.82,4.29,2.61a22.48,22.48,0,0,0,2.37,1,13,13,0,0,0,1.52.39c.78.19,1.55.39,2.34.52a13.51,13.51,0,0,1,2.17.73,23.24,23.24,0,0,0,2.87.61c.92.19,1.85.38,2.76.6a3.32,3.32,0,0,0,.81.16c.23,0,.44-.12.67-.14.68-.08,1.36-.11,2-.22a30.2,30.2,0,0,0,3.89-.94,6.48,6.48,0,0,0,3.69-2.48c.51-.75,1.61-2.61,1.12-3.45-2,.17-3.74,5.06-6,3.71-1.11-.66.79-2.09,1.4-2.67,1.27-1.2,2.09-1.82,1.87-3.54-1.32.12-2.25,1.46-3.12,2.39a5.1,5.1,0,0,1-3.22,2C197,225.92,201.6,224.69,200.05,222.31Z"/><path class="cls-3" d="M220.2,198.37c-1-2.4-5.26-3.91-6.52-6.58-1,.11-2.35,2.5-2.7,3.38a46.12,46.12,0,0,1,5,3.15,24.63,24.63,0,0,1,2.47,2.22c.46.44,1.45,1.7,2.05,1.63.07-1,.72-2.5-.13-3.29"/><path class="cls-4" d="M209.16,203.55l-.06.1c-.34-.7-.31-1.26.4-1.59a3.93,3.93,0,0,1,2.4-.06c1.45.23,3.87.67,4.38,2.32a1.35,1.35,0,0,1-1,1.59,7.42,7.42,0,0,1-2.19-.39,11.44,11.44,0,0,1-2.49-.72c-.56-.27-1.76-.72-1.85-1.47"/><path class="cls-3" d="M215.73,205.9c-.22.45-.86.65-1.28.86a8.55,8.55,0,0,1-2.45.88,4,4,0,0,1-1.24,0,2,2,0,0,1-.93-.52,3.91,3.91,0,0,1-1.08-2,11.08,11.08,0,0,1-.17-1.41c0-.26-.05-.52-.06-.78,0-.07-.09-.34,0-.38s.27.1.29.11l.61.29a11,11,0,0,1,1.52.79c.53.35,1.1.6,1.66.9a10.7,10.7,0,0,0,1.25.54,5.28,5.28,0,0,1,.9.5,3.77,3.77,0,0,0,.57.28,1,1,0,0,0,.28.13c.27,0,.38-.37.44-.57a3.05,3.05,0,0,0,.12-1,.67.67,0,0,0-.32-.46,7.93,7.93,0,0,0-1.85-1.17,6.3,6.3,0,0,0-3.6-.87,2.56,2.56,0,0,0-.81.26,2.22,2.22,0,0,0-.42.32c-.06-.07,0-.22.06-.29a1.24,1.24,0,0,1,.28-.28c.13-.1.24-.24.38-.33a2.94,2.94,0,0,1,.59-.29,3,3,0,0,1,1.12-.18c.29,0,.59,0,.88,0s.56.1.84.12a3.74,3.74,0,0,1,2.45,1.52,4.59,4.59,0,0,1,.61,1.21,4.67,4.67,0,0,1,.18.64,2.7,2.7,0,0,1-.09,1.13"/><path class="cls-3" d="M215.92,204.92a2.12,2.12,0,0,1-3.47.18,1.34,1.34,0,0,1-.18-1.2,3,3,0,0,1,.27-.45,2.4,2.4,0,0,1,.39-.5,2.66,2.66,0,0,1,.45-.29,1.31,1.31,0,0,1,.65-.06,3.49,3.49,0,0,0,.46,0,1.83,1.83,0,0,1,1.13.35,1.54,1.54,0,0,1,.32,1.94A.05.05,0,0,1,215.92,204.92Z"/><path class="cls-3" d="M208.05,222.28a.36.36,0,0,1-.57.16c-.22-.14-.27-.26-.57-.29-.13,0-.5-.13-.58-.07s-.08,1.08,0,1.26c-.1.08-.38.08-.52.12s-.49,0-.73.09-.75.12-1.13.22a4.93,4.93,0,0,1-.22-1.32c-.09-.61-.24-1.21-.32-1.83s-.22-1.4-.33-2.11-.43-1.4-.51-2.12a6.16,6.16,0,0,1,.69.6,6.64,6.64,0,0,0,1.21.76c.84.42,1.68.87,2.55,1.24a3.18,3.18,0,0,0,1,.3c.21,0,.43-.1.65,0,.76.17.4,1,.14,1.45S208.31,221.74,208.05,222.28Z"/><path class="cls-3" d="M222.8,194.9c-3-3.13-6.31-6-9.61-8.82a22.7,22.7,0,0,0-3.67-2.51,17.41,17.41,0,0,1-3.37-3c-.68-.66-1.93-1.29-2.43-2.08.75-1.19,3-2.31,4.27-2.87a11.7,11.7,0,0,1,4.87-1,15.35,15.35,0,0,1,5.65.52,21.26,21.26,0,0,1,5.36,3.48c3.3,2.57,5.59,5.69,5.46,10a14,14,0,0,1-1.28,5.31c-.64,1.46-1.61,2.84-2.19,4.28C224.72,197.44,223.73,195.86,222.8,194.9Z"/><path class="cls-4" d="M210.91,208.3c-.47.06-.92,1.11-1.19,1.45-.61.77-1.25,1.5-1.91,2.24a30.56,30.56,0,0,0-2.54,3.55,6.58,6.58,0,0,0,.56-.88,13.17,13.17,0,0,0,.87-1.37,26.7,26.7,0,0,1,1.62-2.59c.35-.54.74-1.1,1.05-1.67a4.13,4.13,0,0,0,.3-.68c.07-.21.08-.5.25-.67a3.08,3.08,0,0,0,.38.43c.13.12.31.17.41.31a.38.38,0,0,0,.09-.09"/><path class="cls-4" d="M210.22,200.94l0,.05c-.17-.35-.29-.79-.44-1.16-.2-.52-.33-1.11-.57-1.61a2.24,2.24,0,0,0-.5.16,6.54,6.54,0,0,0,.56,1.27c.2.46.37,1,.59,1.41.06,0,.06-.08.07-.15"/><path class="cls-4" d="M211.82,200.57s.06-.36.08-.48a10.08,10.08,0,0,1,.24-1.09c.08-.29.47-1.11-.2-.89-.22.07-.12.23-.15.48s0,.53-.07.8a4.57,4.57,0,0,1-.12.74c0,.13-.23.63.1.48"/><path class="cls-4" d="M213.47,200.82a3.19,3.19,0,0,1,.44-1,3.26,3.26,0,0,0,.58-1c-.23,0-.39-.44-.63-.26a2.37,2.37,0,0,1-.28,1.16c-.1.21-.61,1-.38,1.19l.1,0"/><path class="cls-4" d="M215.27,201.72c-.14-.2.82-1.11,1-1.26s.35-.17.24-.4a1.57,1.57,0,0,0-.5-.43c-.21.26-.34.7-.53,1a6.17,6.17,0,0,1-.44.57c-.25.29-.08.18,0,.47"/><path class="cls-4" d="M216.65,202.5a8.46,8.46,0,0,0,1.61-1.07c-.21,0-.35-.28-.44-.44-.27.22-.49.52-.77.76s-.69.44-.76.8"/><path class="cls-4" d="M217.44,204a11.3,11.3,0,0,1,1.29-.14c.12,0,.42-.16.53-.11s.07.19.05.36,0,.28-.14.37a2.43,2.43,0,0,1-.61.06c-.39,0-.76.09-1.15.16-.14-.26,0-.48,0-.76"/><path class="cls-4" d="M226.83,193.52c0,.09-.12.14-.19.21a2.78,2.78,0,0,0-.42.42c-.22.26-.47.5-.69.76a3.33,3.33,0,0,1-.62.73c0-.25-.41-.34-.56-.53a1.14,1.14,0,0,0,.36-.45,6.34,6.34,0,0,0,.5-1.17,4.9,4.9,0,0,1,.86-2c.15.29.18.65.32,1,.06.14.44.75.38.83"/><path class="cls-4" d="M223.46,189.66a2.64,2.64,0,0,0-.69.83c-.17.27-.31.58-.47.86a2.77,2.77,0,0,1-.28.54c-.1.11-.05.12-.2.07s-.2-.13-.29-.18a2.55,2.55,0,0,1-.48-.29c.32-.41.6-.83.95-1.22a10.84,10.84,0,0,0,.79-1c.08-.11.2-.34.33-.4a.49.49,0,0,0,.43.36"/><path class="cls-4" d="M220.23,186.82c-.34.63-.79,1.2-1.15,1.82a6.17,6.17,0,0,0-.38.72c0,.09,0,.23-.12.29a4.14,4.14,0,0,1-.67-.41c-.29-.25-.07-.42.14-.67a16,16,0,0,0,1.46-1.93c0-.06.16-.34.24-.35s.26.26.33.35"/><path class="cls-4" d="M217.58,184.43c-.15.06-.21.26-.28.4a8.38,8.38,0,0,1-.57.89c-.14.22-.32.42-.46.64a3.18,3.18,0,0,1-.23.4c-.14.15-.24.12-.41,0a6.25,6.25,0,0,1-.5-.4s-.37-.24-.38-.31.24-.25.29-.31.24-.34.37-.51c.32-.44.71-.83,1.05-1.25.13-.16.2-.33.43-.3s.46.47.69.37"/><path class="cls-4" d="M213.74,181.65a1.47,1.47,0,0,1-.23.49c-.16.27-.29.54-.47.8s-.43.78-.68,1.14a1.67,1.67,0,0,0-.35-.24c-.14-.06-.44-.06-.53-.18a5.43,5.43,0,0,0,.91-1.35,10.71,10.71,0,0,1,.52-.94c.08-.11.19-.17.21-.33.2,0,.25.37.45.35"/><path class="cls-4" d="M210.74,179.55a3.91,3.91,0,0,1-.58,1.06,7.59,7.59,0,0,0-.56.71c-.07.12-.11.32-.18.42s-.13,0-.28,0a4.53,4.53,0,0,0-.48-.27c0-.08.09-.19.14-.26.2-.27.41-.52.6-.78.37-.5.66-1.05,1-1.56,0,0,0-.05,0,0"/><path class="cls-4" d="M207.93,177.65a1.65,1.65,0,0,1-.27.57,10.18,10.18,0,0,1-.5,1,5,5,0,0,1-.37.53,2.63,2.63,0,0,1-.2.33c-.05-.27-.56-.37-.74-.51s-.17-.3,0-.55a4.36,4.36,0,0,0,1.24-1.77c0-.09,0-.32.11-.36s.22.13.32.17"/><path class="cls-3" d="M176.56,214c-.06,0-.22-.28-.27-.35a5.15,5.15,0,0,0-.43-.5,13,13,0,0,1-1-1.23c-.05-.07-.13-.14-.19-.21s0-.08-.07-.1-.17.11-.22.15a1.56,1.56,0,0,0-.2.16c-.08.12,0,.17.11.28.45.66.9,1.33,1.37,2a2.19,2.19,0,0,1,.26.41c0,.06,0,.18.13.18s.19-.2.23-.24a.86.86,0,0,1,.36-.23.45.45,0,0,0,0-.11"/><path class="cls-3" d="M173.18,214.85l0,0c-.1-.18-.17-.36-.29-.54-.33-.49-.64-1-1-1.48-.17-.27-.32-.56-.5-.82s-.28-.26-.32-.4-.2,0-.31-.06a.72.72,0,0,0-.33,0c0,.12.15.32.19.42.19.37.36.75.54,1.12a10.82,10.82,0,0,0,.62,1.17c.09.16.11.39.32.42s.32-.06.47-.05a1.28,1.28,0,0,0,.55,0l-.08,0"/><path class="cls-3" d="M170.05,215.4c-.05,0-.05-.08-.08-.15a1.41,1.41,0,0,0-.23-.35c-.29-.38-.56-.79-.83-1.19s-.35-.54-.55-.8-.21-.24-.36-.18-.25.22-.37.33a3.89,3.89,0,0,1-.39.32c-.09.06-.2.11-.12.2s.1,0,.12.06a2.25,2.25,0,0,1,.3.24,8.4,8.4,0,0,1,1.43,1.6c.11.15.51.87.7.8s.15-.17.18-.23.15-.21.21-.32-.15-.47-.24-.69"/><path class="cls-3" d="M168.78,217.06c-.06,0-.09-.15-.13-.21a6,6,0,0,0-.36-.52c-.47-.63-1-1.16-1.54-1.77l-.29-.36s-.11-.15-.17-.14-.11.17-.13.2a2.61,2.61,0,0,1-.19.27c-.15.17-.1.23.06.38s.28.22.41.35a6.53,6.53,0,0,1,.56.62c.31.39.61.78.94,1.14a4.08,4.08,0,0,1,.52.66c.08,0,.33-.26.33-.37h0"/><path class="cls-3" d="M167.74,219.67s0,0-.05-.08a3,3,0,0,0-.2-.29c-.27-.36-.55-.71-.82-1.08-.37-.52-.71-1.05-1-1.6-.1-.16-.38-.48-.24-.64s.16,0,.25.1.4.43.58.66.4.41.57.63.38.43.57.65a6.56,6.56,0,0,1,.86,1c0,.08.15.19.16.27s-.09.22-.14.32a2,2,0,0,1-.25.48s0-.05-.06-.07"/><path class="cls-3" d="M75,125.66c.56,5.32,1,10.62,1.28,16,.31,7.1,1.5,13.92,1.53,21.08s.41,14.05.81,21.12c.54,9.54,1.41,18.88,1.6,28.41a178.76,178.76,0,0,1-4,43.12c-.52,2.31-1.43,4.87-1.77,7.21-.18,1.26.21,2.75-.11,3.94-.49,1.87-1.3,1.69-2.21,2.36A25.25,25.25,0,0,1,65.76,272a43.31,43.31,0,0,0-4.68,2.08c-2.62,1.33-3.18,1.93-4.63-.82a10.63,10.63,0,0,1-1.3-6.58c.49-3.33,2.25-6.35,2.61-9.76.41-3.81-.06-7.63.24-11.44.63-8,2.35-16.28,2-24.38-.2-4.28-.17-8.62,0-12.91.15-4.87-.8-9.57-1.35-14.37-1.49-13-3.09-26.2-2.76-39.43s-.29-26.71-.6-39.92a134.32,134.32,0,0,0-2.15-20.7C52,88,48.34,83.19,45,78.1,32.08,58.33,16.18,39.91,4.77,19,3.26,16.27-.22,10.25,0,6.89.19,4.3,3.41,3.6,5.9,3.1a17.34,17.34,0,0,1,2.95-.29c.68,0,1.36,0,2,0a2.44,2.44,0,0,0,.47,0c.1,0,.19,0,.29-.06a3.46,3.46,0,0,1,.91.06,3.77,3.77,0,0,0,.58,0c.81,0,1.62,0,2.42-.14,3.36-.43,6.62-1.39,10-1.45,3.63-.06,7.24.4,10.87.19,3.14-.19,5.8-1.6,8.89-1.38,7.77.55,15.36,3.07,23,4.36C77.83,6,87.07,8.5,96.52,10.23c8.2,1.5,16.5,2.64,24.7,4.18,14.08,2.64,28.29,4.56,42.12,8.16,4.68,1.21,10.18,2.05,14.41,4.17-2.69,5.28-3.16,13.4-3,19.28-1.11.27-2.11-.32-3.27-.59-3.49-.83-7.24-1.64-10.87-2.26-6-1-12-2.26-17.94-3.53a348.68,348.68,0,0,0-42.72-6c-5.71-.48-11.39-.31-17.08-.77s-11-2-16.5-3c-6.91-1.28-13.85-2.34-20.76-3.66-3.68-.7-8.64-1.22-11.64-3.44,7.68,10.88,15.33,21.71,23.93,31.79,4.89,5.73,9.77,12,15.61,16.59,2.19,1.73,3.44,1.82,2.73,5-.42,1.91-1.59,3.36-2.27,5.14-1.47,3.86-1.59,9.69-1.67,13.79-.11,6.21.83,12.41,1.48,18.55C74.18,117.67,74.63,121.67,75,125.66Z"/><path class="cls-2" d="M178.82,44.37a4.14,4.14,0,0,1-4.68-.78,3,3,0,0,1-1.15-2c-.12-1.15-.33-2.29-.42-3.45a13.27,13.27,0,0,1,.25-3.77c.18-.84.23-1.71.43-2.54a9.19,9.19,0,0,1,.81-2.4A14,14,0,0,1,174.9,28c.24-.34.35-.54.77-.54a8.28,8.28,0,0,1,1.19.22c1.36.26,2.68.64,4,.9,1.81.35,3.43,1.24,5.23,1.58a17,17,0,0,1,2.66.69,18.7,18.7,0,0,0,2.44.66c1,.22,1.92.52,2.88.65s2,.1,2.95.23,2.09.19,3.14.24a11.35,11.35,0,0,0,2.33,0,5.93,5.93,0,0,0,3.87-2.2c.47-.59.89-1.2,1.37-1.78a3.13,3.13,0,0,1,1.95-.94c.67-.12,1.59-.24,2.09.29a2.47,2.47,0,0,1,.72,1.69,4.67,4.67,0,0,1-.93,2.55A7.69,7.69,0,0,1,209.49,34a2.42,2.42,0,0,0-1.18,1.43c-.09.46.14.68.58.74.6.07,2.07-.81,2.33.18.12.47-.58.76-.91,1a14.28,14.28,0,0,1-1.84,1c-.74.33-1.61.24-2.25.79.09.31.6.31.85.42a2.41,2.41,0,0,1,.68.39c.88.83,0,1.79-.82,2.3a9.28,9.28,0,0,1-2.56,1.27,14.39,14.39,0,0,1-2.83.52,29.75,29.75,0,0,1-6.87-.33c-3.3-.46-6.48-1.7-9.84-1.74a8.48,8.48,0,0,0-3.69.59C180.24,43,179.71,43.9,178.82,44.37Z"/><path class="cls-2" d="M60.15,274.46c1.7,1.62-.3,5.65-.69,7.57-.29,1.43-.29,2.89-.56,4.32-.33,1.78-1.65,2.86-2.19,4.51-2.26,6.82,5.17,8.95,8.43,12.81a20.28,20.28,0,0,1,4.29,8c.63,2.89,2,5.06,5.15,4.09,2.19-.69,6.27-2.86,7.92-4.73a1.89,1.89,0,0,0-.86-3.15c-1.13-.35-2.41.83-3.45.52,1.35-1.29,3.77-2.22,3.88-4.32-1.07-1.34-2.61,1.86-4,.85a8.69,8.69,0,0,1,1.78-3.42c-.5-2.4-2.36-.68-3.82-.56-1.88.16-3-1.31-4-2.79-2.19-3.13-2.75-5.92-2.86-9.79a84.53,84.53,0,0,1,.22-9.67c.13-1.67.15-3.29.16-5,0-1.14,1-3.53-.12-4.27-2.66,1-7.38,1.9-8.26,4.87"/><path class="cls-4" d="M75.94,178.51c0,.08,0,.14,0,.23a4.58,4.58,0,0,0,0,.63c.05.53.13,1,.16,1.58,0,.13,0,.27,0,.4s0,.2,0,.2-.25,0-.35,0,0-.18,0-.26-.06-.24-.07-.36c0-.38,0-.76,0-1.15s0-.62,0-.93,0-.38.23-.41"/><path class="cls-4" d="M67.15,185.26l.72-.13a4,4,0,0,1,.57-.14s.12,0,.15,0a.57.57,0,0,0,0-.29c-.06,0-.15,0-.21,0s-.21,0-.32,0l-.34,0a3.69,3.69,0,0,0-.58,0c-.35.07-.74,0-1.07.13.09.21,0,.54,0,.75a3.13,3.13,0,0,1,.36-.19C66.64,185.38,66.9,185.32,67.15,185.26Z"/><path class="cls-4" d="M66.81,189c.39-.06.78-.14,1.17-.18a2.92,2.92,0,0,1,.59,0l.66.09a1,1,0,0,0,0-.34c0-.14-.2-.1-.33-.11h-.5a1.8,1.8,0,0,1-.52,0,.8.8,0,0,0-.41,0c-.26,0-.53.07-.79.1.08.14,0,.49-.11.63A.43.43,0,0,1,66.81,189Z"/><path class="cls-4" d="M72.55,180.11a12.15,12.15,0,0,1,.13,1.81c-.05.21-.12.12-.27.08a1.27,1.27,0,0,0-.58,0c-.06-.05,0-.25,0-.34,0-.26,0-.52,0-.78a8.31,8.31,0,0,0-.05-1,1.91,1.91,0,0,1-.06-.59c.06.11.27.13.39.12s.46-.17.37.1"/><path class="cls-4" d="M67.33,181.14s0,.09,0,.13c.65-.29,2.61,1.28,2.94,1.73-.6.74-1.45,0-2.09-.27a3,3,0,0,1-1.86-1.5c.25-.21.57-.54.88-.31"/><path class="cls-4" d="M66.64,191.56c0-.05.34.18.38.21a1.36,1.36,0,0,1,.21.37c.08.14.44,0,.6,0s.27,0,.42,0h.4a6.35,6.35,0,0,0,.75,0,.76.76,0,0,1,.26,0c0-.11,0-.23,0-.34s0-.12,0-.17a.57.57,0,0,0,0-.13,1.66,1.66,0,0,1-.32,0h-.24a1.08,1.08,0,0,1-.31,0c-.09,0-.16-.06-.26-.08s-.47-.07-.71-.09A1.55,1.55,0,0,0,66.64,191.56Z"/><path class="cls-4" d="M67.45,196.18a6.68,6.68,0,0,1,1.78-.6,3.89,3.89,0,0,0,.88-.27c.12-.06.08-.15.08-.27s0-.18-.18-.17l-.36,0a.9.9,0,0,0-.23,0l-.16.08a3.63,3.63,0,0,1-.45.1,5.19,5.19,0,0,0-.79.12C67.54,195.36,67.38,195.62,67.45,196.18Z"/><path class="cls-4" d="M70.75,197.22c-.19.32-.46.61-.66.93a8.57,8.57,0,0,1-1,1.58c.23.07,1.06.54,1.28.47s.32-1.16.41-1.47a11.57,11.57,0,0,0,.52-1.46.84.84,0,0,0,0-.27c0-.06,0-.06-.09-.07l-.15-.05c-.06,0,0,0-.08,0S71,197,71,197"/><path class="cls-3" d="M78,196.43a14,14,0,0,0,.33,1.9c.07.31.27.73,0,1-.1.09-.5,0-.65.11.18-.49-.16-.91-.28-1.34s.19-1.18-.17-1.7a.73.73,0,0,1,.77-.23"/><path class="cls-4" d="M72.51,199.67a4.2,4.2,0,0,0,.08-.62c0-.34,0-.69.06-1,0-.17,0-.34,0-.51l0-.25s0-.09,0-.11-.08,0-.11,0-.09,0-.11,0,0,.06,0,.09,0,.05-.06.08,0,.05,0,.08,0,.13,0,.2,0,.26-.07.4a4.78,4.78,0,0,1-.2.83C71.87,199.47,71.87,199.48,72.51,199.67Z"/><path class="cls-4" d="M75.49,197a3.05,3.05,0,0,0,.28,1.19c.08.4.19.78.28,1.17.18.8-.54.89-.76.23a11.65,11.65,0,0,1-.35-1.92,7.17,7.17,0,0,1-.13-.79.39.39,0,0,1,.72-.05"/><path class="cls-4" d="M74.53,179.13c.22.31.57,2.27.28,2.55a2.25,2.25,0,0,0-.67-.27,4.51,4.51,0,0,0,0-2.16.3.3,0,0,1,.37-.12"/><path class="cls-4" d="M79,195.68a1.66,1.66,0,0,1,.21.16s.07.09.1,0a.39.39,0,0,0,0-.15,2.11,2.11,0,0,0,0-.26c0-.29-.26-.41-.5-.51l-.23-.1c-.05,0-.11,0-.16,0a.62.62,0,0,0-.07.19.6.6,0,0,0-.08.21c0,.05,0,0,0,.06l.13.06A5.54,5.54,0,0,1,79,195.68Z"/><path class="cls-4" d="M67,186.28v0a.62.62,0,0,1,.36-.05l.85-.05c.23,0,.47,0,.7,0,.07,0,.26,0,.3,0s-.07.12-.08.18a2.68,2.68,0,0,1-.07.27c0,.08,0,.1-.08.11s-.23-.05-.32-.05c-.41,0-.81.08-1.21,0a1.54,1.54,0,0,0-.6,0c-.08-.06-.09-.39,0-.43"/><path class="cls-4" d="M77.93,179.27a.78.78,0,0,0,0,.34c0,.19,0,.39,0,.58s0,.42,0,.62,0,.2,0,.25a.36.36,0,0,0-.25,0c-.11-.11-.07-.32-.07-.46,0-.33,0-.65,0-1,0-.09,0-.27,0-.35s.18,0,.27,0"/><path class="cls-4" d="M11.62,3.56a1.2,1.2,0,0,0,.57.07l.3.05c.11,0,.3,0,.38.06a.27.27,0,0,1,0,.25c0,.12-.15,0-.26,0-.36,0-.72,0-1.08,0-.11,0-.21,0-.23-.11s0-.23,0-.34.29,0,.38,0"/><path class="cls-4" d="M12.59,6.57a.71.71,0,0,1-.29,0h-.5a3.68,3.68,0,0,1-.57-.06c0,.08-.11.1-.06.2a1.78,1.78,0,0,1,.45.08l.41.08h.27a.45.45,0,0,0,.16,0c.09,0,.16-.21.18-.3"/><path class="cls-4" d="M11.82,10c0,.05-.26,0-.3-.06a3.63,3.63,0,0,0-.42-.1,1.75,1.75,0,0,1-.57-.1c.06.11-.06.23-.07.34a2.51,2.51,0,0,0,.31,0,3.2,3.2,0,0,1,.54.08c.13,0,.25.09.38.12s.07.05.1,0a.55.55,0,0,0,.06-.18h0"/><path class="cls-4" d="M11.13,14.87h0a1.18,1.18,0,0,0-.17-.22,6.48,6.48,0,0,1-.53-.73,1.22,1.22,0,0,0-.32-.36,1.93,1.93,0,0,1-.21-.17c-.07,0-.13.08-.19.1a2,2,0,0,0,.25.39,4.82,4.82,0,0,0,.4.57,5.85,5.85,0,0,1,.34.48.77.77,0,0,1,.14.25A1.17,1.17,0,0,0,11.2,15a.41.41,0,0,0,0-.09"/><path class="cls-4" d="M12.15,8l0,0c-.4,0-.81-.13-1.22-.16,0,.13,0,.27,0,.4.07-.05.22,0,.29,0a4.87,4.87,0,0,1,.54,0,5.86,5.86,0,0,1,.58.1c0-.05,0-.12,0-.19"/><path class="cls-4" d="M12.34,5.15s-.12,0-.17,0A1.43,1.43,0,0,0,11.76,5a3.1,3.1,0,0,0-.43,0,.51.51,0,0,1-.24,0,.42.42,0,0,1-.06.19c.06,0,.14,0,.2,0a5.14,5.14,0,0,1,.55.06l.37.07a.52.52,0,0,1,.27.07"/><path class="cls-4" d="M11.77,11.62a1.3,1.3,0,0,1-.4-.09c-.24-.07-.49-.12-.74-.17a2.61,2.61,0,0,1-.61-.22,1,1,0,0,0-.16-.06c0,.11,0,.21,0,.32.35.11.71.19,1.07.28s.42.13.64.19.27.12.34.08a.5.5,0,0,0,0-.21"/><path class="cls-4" d="M8.19,15a8.5,8.5,0,0,1,.16-1,4.39,4.39,0,0,1,.13-.52.4.4,0,0,0,0-.18c-.09.09-.3,0-.35.08a1,1,0,0,0,0,.17,1.77,1.77,0,0,1,0,.23,3.35,3.35,0,0,0-.07.71c0,.12,0,.35,0,.46s.12.07.14,0"/><path class="cls-4" d="M5.34,14.85s0,0,0,0a2.36,2.36,0,0,1,.1-.53c.06-.24.07-.49.11-.73a1.6,1.6,0,0,0,0-.29c0-.08-.16-.08-.25-.09a1.55,1.55,0,0,1,0,.43,4.57,4.57,0,0,1,0,.52,4.26,4.26,0,0,1-.1.49c0,.06-.11.23-.06.27a.34.34,0,0,1,.2,0s0,0,0-.05"/><path class="cls-4" d="M6.86,14.71c-.06,0,0-.25,0-.31s0-.3.07-.45c-.07,0-.17,0-.24,0a.39.39,0,0,0,0,.15,2.48,2.48,0,0,1,0,.27,1.5,1.5,0,0,1,0,.29c0,.06-.09.19-.06.25a.34.34,0,0,1,.2,0v-.05"/><path class="cls-4" d="M3.9,15.22s0-.08,0-.12.07-.33.1-.49a4.77,4.77,0,0,0,.1-.66.5.5,0,0,1,0-.13s0-.05,0-.1v-.13c0-.11-.06-.1-.17-.09s0,.27-.06.41,0,.38-.07.56-.2.66,0,.66"/><path class="cls-4" d="M2.78,14.66a5.49,5.49,0,0,1-.16-1c0-.14-.05-.36-.25-.3,0,.11,0,.24.06.34a2,2,0,0,0,.12.48c0,.11.07.24.09.35a.57.57,0,0,1,0,.26c.06,0,.08-.05.14,0"/><path class="cls-4" d="M71.63,261.32a1.35,1.35,0,0,1,0,.56c-.23,1-.35,2-.48,3l-.21,1.7a1.16,1.16,0,0,1-.11.52,1.41,1.41,0,0,0-.46,0,1.88,1.88,0,0,0-.53.06c-.14-.16,0-.53,0-.73.08-.55.16-1.13.2-1.69a26,26,0,0,1,.45-2.76c.06-.29,0-.76.28-1,.12-.08.89-.36.94-.15a.13.13,0,0,1-.12,0"/><path class="cls-4" d="M66.48,261.87c0,.09,0,.22,0,.32a4.79,4.79,0,0,0-.06.85,15.33,15.33,0,0,0,.17,2.15c.06.41.17.81.25,1.22s.09.6.12.91,0,.21-.15.2l-.65,0c-.09,0-.25.06-.29,0s0-.31,0-.39c-.09-.73-.31-1.44-.38-2.17-.05-.53,0-1.06-.08-1.59a5.64,5.64,0,0,0-.23-1.17c0-.07-.08-.23,0-.31s.23-.08.34-.08h.5a3.22,3.22,0,0,1,.51-.09c.13,0,.14.06.09.22"/><path class="cls-4" d="M61.34,263.05a4.29,4.29,0,0,0,.22.72,10.73,10.73,0,0,1,.34,1.88c.09.79.31,1.57.35,2.37,0,.23,0,.37-.23.44s-.29.05-.43.08l-.25,0a1.54,1.54,0,0,1-.13-.6c-.08-.67-.05-1.38-.07-2.06a17.33,17.33,0,0,0-.29-2.39c0-.21-.25-.56-.15-.78s.58-.29.53-.11"/><path class="cls-4" d="M57.64,263.86c-.11.13-.06.49,0,.65a12.92,12.92,0,0,0,.2,1.39,15.1,15.1,0,0,0,.51,2.68.81.81,0,0,1,.08.34c0,.11-.11.15-.2.21a5,5,0,0,1-.94.33c-.09-.07-.1-.25-.13-.36a6.86,6.86,0,0,1-.13-1.28c0-.58-.17-1.14-.21-1.71a11.59,11.59,0,0,1,0-1.18c0-.29-.06-.79.18-1a3.37,3.37,0,0,1,.66-.39l0,0"/><path class="cls-4" d="M55.26,266.37c-.14.06-.09.61-.08.77a10.49,10.49,0,0,0,.23,1.93c.1.52.21,1,.27,1.56a1.17,1.17,0,0,0,0,.27c0,.1.13.23.08.33a1.19,1.19,0,0,0-.67.13c-.3-.35-.19-.95-.23-1.39s-.11-1.09-.14-1.63c0-.35,0-.71,0-1a.69.69,0,0,1,0-.32c0-.11.16-.38.27-.42"/><path class="cls-4" d="M73.69,261.63c0,.07,0,.12,0,.19a3.31,3.31,0,0,0-.07.55c-.07.74-.07,1.49-.16,2.23a9.35,9.35,0,0,0-.24,1.56c0,.1,0,.47,0,.54a.89.89,0,0,1,.29-.12c.14,0,.23.05.35.06s.11,0,.13-.13c.05-.35,0-.72,0-1.07a6.44,6.44,0,0,0,0-1c0-.22,0-.44,0-.67a14.11,14.11,0,0,0-.09-1.45,5.4,5.4,0,0,1-.08-1s0,0,0,0"/><path class="cls-4" d="M174.65,26.07c-.11.26-2-.12-2.28-.14-.87-.07-1.69-.37-2.53-.47-.24,0-.7.08-.92-.05s0-.25,0-.45c.16-.39,0-.91.55-.82s1.23.22,1.85.3a21.08,21.08,0,0,1,2.38.55,5.25,5.25,0,0,0,.71.16c.18,0,.3-.08.32.17s-.27.77-.33,1.09c0,0-.05,0-.06,0"/><path class="cls-4" d="M172.74,29.43s-.22-.08-.36-.1c-.51-.08-1-.09-1.57-.16-.7-.1-1.42-.16-2.12-.26a12.65,12.65,0,0,1-1.36-.29,3.05,3.05,0,0,0-.66-.17c-.24,0-.24,0-.27.25s0,.42-.07.64-.16.37-.11.54a2.54,2.54,0,0,1,.91.05c.69.1,1.38.24,2.07.27s1.28.13,1.92.17c.44,0,.89.05,1.33.11-.07-.25.15-.58.23-.82,0,0,0,0-.07,0"/><path class="cls-4" d="M169.81,33.46s0,.07.05.09a6.25,6.25,0,0,1-.84-.17c-.81-.1-1.61-.19-2.41-.36-.54-.12-1.05-.3-1.56-.45-.18-.06-.43-.28-.61-.21a.7.7,0,0,1-.08.45c-.06.14-.31.41-.33.54s.14.21.3.23a7.17,7.17,0,0,1,.9.18c1.07.26,2.14.47,3.21.69a5.65,5.65,0,0,0,1.95.24c-.13-.2,0-1-.25-1"/><path class="cls-4" d="M163.47,35.9a3.87,3.87,0,0,0,.78.32,18.2,18.2,0,0,0,1.78.53c1,.26,2,.73,3,1a2.69,2.69,0,0,1,.65.16c.16.1.06,0,.07.18s0,.37,0,.54c0,.57-.25.54-.73.44s-.76-.22-1.15-.29-.86-.1-1.29-.16a6.94,6.94,0,0,1-1.92-.48,1.19,1.19,0,0,1-.62-.59,6.21,6.21,0,0,1-.29-.86c0-.12-.13-.52-.05-.53"/><path class="cls-4" d="M164.52,40.48c.47.13,1,0,1.5.14a10.76,10.76,0,0,0,1.6.2,16.82,16.82,0,0,1,2.78.48c-.4.21,0,.81-.12,1.1s-.48.17-.66.16c-.46,0-.93-.1-1.39-.15a17.74,17.74,0,0,1-2-.34c-.32-.07-.65-.11-1-.19s-.49-.21-.75-.28-.45,0-.54-.27a1.62,1.62,0,0,1,.06-.69.09.09,0,0,1,.09,0"/><path class="cls-4" d="M171.89,45.05c-.09-.21-.84-.28-1.09-.31-1.19-.19-2.36-.43-3.55-.6a7.93,7.93,0,0,1-.85-.14c-.3-.07-.56-.22-.86-.3a5.45,5.45,0,0,0-.58-.14c-.37-.07-.29.09-.35.44a.76.76,0,0,1,.3,0,7.66,7.66,0,0,1,1,.21c1.11.29,2.21.43,3.34.62,1,.17,1.91.36,2.86.51-.06,0-.07,0-.12,0"/><path class="cls-1" d="M116.2,212.59c-6,6-11.46,12.48-17.33,18.58-3.63,3.79-7.26,7.75-9.8,12.48-.61,1.12-5.57,8.11-1.64,9.16a27.17,27.17,0,0,0,5.23.35c1.23.08,2.39,0,3.63.14,1.93.2,3.74-.2,5.65-.18,7.58.07,14.84-1.56,21.77-3.49a153.76,153.76,0,0,1,20.65-4c3.43-.47,6.73-1.18,10.15-1.55a14.8,14.8,0,0,1,3.16.25c.64.06,2.59.24,3-.25.7-.9-1.19-2.58-1.75-3.49-1.1-1.81-1.32-4.19-1.67-6s-.24-3.74-2.38-3.25a34.74,34.74,0,0,1-5.67.88,34.63,34.63,0,0,0-7.57,1.67c-1.45.41-2.83,1-4.29,1.36a42,42,0,0,1-7.06.85c-6.78.49-13.2,2-19.92,2.44a38.89,38.89,0,0,1,5.92-6.32c3.22-3,6.6-5.87,9.81-8.91,7.07-6.69,12.34-15.14,18.7-22.53,4.49-5.22,9.92-9.57,14.23-14.91a26.43,26.43,0,0,0,4.3-6.84,4,4,0,0,0,.39-3c-.45-1.66-1.52-2.3-2.54-3.6-.61-.78-.68-1.26-1.59-1.77a8.2,8.2,0,0,0-6.84-.32c-2.47,1.14-3.39,3.95-5,6s-2.83,4.48-4.55,6.35c-1.56,1.71-3.17,3.41-4.72,5.15-1.9,2.12-3.46,4.54-5.39,6.58q-2.31,2.44-4.65,4.88c-1.46,1.53-3.29,3-4.38,4.83C122,207.53,119,209.8,116.2,212.59Z"/><path class="cls-3" d="M95,245a1.25,1.25,0,0,0-.49-.53,2.36,2.36,0,0,0-.6.82l-.27.5c-.08.14-.15.33-.29.41a1.07,1.07,0,0,0-.37.49c0,.08-.09.17-.15.25a.42.42,0,0,1-.08.12.86.86,0,0,0,.14.13s.09.11.15.16,0,0,0-.06a.91.91,0,0,1,.11-.16c.11-.14.24-.25.35-.38s.17-.25.26-.36a1,1,0,0,1,.18-.18.36.36,0,0,0,.1-.14,2.79,2.79,0,0,1,.37-.4C94.68,245.47,94.87,245.25,95,245Z"/><path class="cls-3" d="M97.4,251.86a.65.65,0,0,1-.51.55,3.55,3.55,0,0,1-1.79-.1c-.3-.08-.58-.21-.87-.31a2.58,2.58,0,0,0-.39,0c-.07,0-.17,0-.2-.09a.87.87,0,0,1,0-.32,2.25,2.25,0,0,1,0-.26.65.65,0,0,0,0-.14l.21.08c.3.09.56.28.86.36a4.55,4.55,0,0,0,.95.14A8.21,8.21,0,0,1,97.4,251.86Z"/><path class="cls-3" d="M98.06,247.89h-.15l-.16,0-.32.08a5.47,5.47,0,0,0-.64.23,6.47,6.47,0,0,1-.91.3,5.16,5.16,0,0,1-1,.07.81.81,0,0,0-.22,0c-.06,0,0-.17,0-.23a.58.58,0,0,0-.06-.26s.1,0,.15-.05l.35-.08.43-.1.27,0,.3-.1a6.36,6.36,0,0,0,.58-.3,1.73,1.73,0,0,1,1.52-.35A3.26,3.26,0,0,1,98.06,247.89Z"/><path class="cls-3" d="M89.74,246.09l-.21-.16-.16-.07c-.14-.08.06-.18.11-.22l.17-.19.33-.4a7.84,7.84,0,0,1,1.7-1.75C92.57,244,90.28,245.73,89.74,246.09Z"/><path class="cls-3" d="M153.41,237.45c-.21,0-.41,0-.61.06l-.38,0-.19,0-.17,0c-.15,0,.06.24.14.29a.43.43,0,0,0,.25.05c.12,0,.24,0,.36,0a2.17,2.17,0,0,0,.44,0h.41a1.15,1.15,0,0,1,.26,0l.29,0s.07,0,.08,0a.39.39,0,0,1,0-.14c0-.11,0-.22,0-.34a.17.17,0,0,0-.16-.13h-.29C153.64,237.42,153.53,237.45,153.41,237.45Z"/><path class="cls-3" d="M155.28,240.76c.13-.2-.54.05-.78.06a3.75,3.75,0,0,0-1.11,0"/><path class="cls-3" d="M155.59,240.4a.65.65,0,0,0-.51-.2,3,3,0,0,0-.43.08,1.21,1.21,0,0,1-.27.05,2,2,0,0,1-.34,0,2,2,0,0,0-.88,0s.15.27.16.3.07.17.11.25l.19.36s0,0,.08,0l.15,0,.3,0,.4,0,.41,0h.24l.25,0,.08,0h.06s.12,0,.14,0,0,0,0,0a2.43,2.43,0,0,1,0-.38.7.7,0,0,0-.06-.27Z"/><path class="cls-3" d="M153.25,233c.24,0,.27,0,.09.05-.61.08-1.55-.17-2,.32"/><path class="cls-3" d="M153.59,232.8h0a.32.32,0,0,0-.13,0l-.25,0c-.14,0-.27,0-.41,0l-.71,0a2.26,2.26,0,0,0-.69.11l-.17,0a.36.36,0,0,0-.22.16l.29.26.4.35s.05.06.08.07.06,0,.1,0l.36-.07c.26,0,.54,0,.81-.05a2.36,2.36,0,0,1,.53,0s.11,0,.12,0,0-.09,0-.11a.91.91,0,0,0,0-.23,1.6,1.6,0,0,1,0-.29A1,1,0,0,0,153.59,232.8Z"/><path class="cls-3" d="M158,243.7c.12-.11.13-.12,0,0-.33.56-1.25.34-1.87.39"/><path class="cls-3" d="M158.41,243.48a1.87,1.87,0,0,0-.34,0c-.15,0-.32,0-.47,0a1.27,1.27,0,0,1-.28,0,.46.46,0,0,0-.2,0,.57.57,0,0,1-.23,0h-.28a5.76,5.76,0,0,0-.59,0l.29,1a3.72,3.72,0,0,1,.48,0H157a2.69,2.69,0,0,0,.7-.07.64.64,0,0,0,.3-.11.83.83,0,0,1,.27-.12l.25,0a.29.29,0,0,0,.15-.09c0-.05,0-.16,0-.22a1.09,1.09,0,0,0-.08-.15s0-.07,0-.11S158.48,243.49,158.41,243.48Z"/><path class="cls-3" d="M151.42,235a.16.16,0,0,1,.05.08.68.68,0,0,1,.07.2c0,.17.07.33.1.49l0,.12a.08.08,0,0,0,0,.07.26.26,0,0,0,.17,0c.21,0,.41,0,.62.05a7.65,7.65,0,0,0,.81.08,5.87,5.87,0,0,1,.72.08c.05,0,.21.08.25,0s0-.16,0-.19-.05-.22-.08-.33a1.6,1.6,0,0,1,0-.21c0-.06,0-.06-.1-.07l-.23-.05-.4,0c-.25,0-.51,0-.77-.08l-.28,0a2,2,0,0,0-.35-.08,2.36,2.36,0,0,0-.45-.08"/><path class="cls-2" d="M165.31,240a3.39,3.39,0,0,1-1-.29c-.7-.33-.75-.16-1.53,0a7.32,7.32,0,0,1-1.75.17,4.24,4.24,0,0,0-1.48.4,1.37,1.37,0,0,0-.5.21c-.11.08-.23.18-.35.25s-.27.2-.36.18-.11-.13-.14-.18l-.32-.39a2.59,2.59,0,0,1-.42-.51,4.44,4.44,0,0,1-.19-.62c-.1-.33-.25-.63-.35-1-.17-.58-.22-1.19-.35-1.79a2.91,2.91,0,0,1-.09-1.34,3.11,3.11,0,0,1,.21-.85,1.44,1.44,0,0,1,.62-.55c.35-.18.76-.2,1.11-.41s.61-.64,1-.91a10.06,10.06,0,0,0,.93-.8c.6-.54,1.17-1.11,1.79-1.63a7.05,7.05,0,0,1,4.38-1.93h.11a6.84,6.84,0,0,1,4.17,1.23c1.28,1.13,2.24,3,3.52,4.24,2.56,2.47,4.71,4.93,7.73,6.7a6,6,0,0,0,1.22.6c.2.06.38.16.58.22s.5.09.74.16.49.18.73.24.21,0,.25.12a.71.71,0,0,1,0,.38,1.91,1.91,0,0,1-.61.8,2.16,2.16,0,0,1-1.55.27c-.7-.12-1.42-.14-2.11-.27a44.14,44.14,0,0,1-4.23-1.49,10.6,10.6,0,0,1-2.44-1.25,5.78,5.78,0,0,1-2-2.11c-.35.13-.38.53-.69.78a4.59,4.59,0,0,1-1.33.5c-.29.06-3-.08-2.92-.43A1.89,1.89,0,0,1,165.31,240Z"/></g></g></svg>