<svg xmlns="http://www.w3.org/2000/svg" viewBox="0 0 240 361.55"><defs><style>.cls-1{fill:#fff;}.cls-2{fill:#e30613;}.cls-3{fill:#1d1d1b;}.cls-4{fill:#007293;}.cls-5{fill:#e63027;}</style></defs><g id="Ebene_2" data-name="Ebene 2"><g id="Ebene_1-2" data-name="Ebene 1"><path class="cls-1" d="M56.67,357.37c.11,0,.13-.1.06-.17a5.24,5.24,0,0,0-1.29.82,5.23,5.23,0,0,1-1.37,1c-1-.85,1.86-3.54,2.72-2"/><path class="cls-2" d="M142.53,293.66c.74.69,2.6.39,3.57.45,1.18.06,2.3.53,3.44.64,1.39.14,3.19.64,4.29-.48s1.24-2.66,2.26-3.71c.55-.57,1-.78,1.17-1.56a6.3,6.3,0,0,0-.19-2.4c2.41-1.21,3.05,2.43,3,4.16,0,1-.56,2.06-.24,3,.1.3.14.61.26.9a2.55,2.55,0,0,0,.33.66c.21.28.56.39.82.6a3.92,3.92,0,0,1,.68.67,4.15,4.15,0,0,0,.73.72c.24.2.44.47.67.69a10.33,10.33,0,0,1,.79.83,5.45,5.45,0,0,1,1.32,1.94,2,2,0,0,1,0,.74,5.42,5.42,0,0,1-.29.72,1.65,1.65,0,0,1-.73.83c-.43.28-.85.16-1.32.23-.07.24.16.43.25.63a.7.7,0,0,1-.08.71,2.24,2.24,0,0,1-.66.77,3.37,3.37,0,0,1-1.19.18c-.28,0-.49-.1-.6.2a2.24,2.24,0,0,0-.06.73,1.38,1.38,0,0,1-1.14,1.42c-.2,0-.78,0-.94.07s-.18.47-.32.61a.85.85,0,0,1-.64.17c-.44,0-.88,0-1.32,0s-.89-.17-1.35-.23a3.41,3.41,0,0,1-1.42-.44c-.49-.31-.82-.8-1.37-1l-.9-.38c-.6-.26-1-.8-1.59-1a8.4,8.4,0,0,0-2.06-.72,32.46,32.46,0,0,1-3.71-.51c-1-.23-1.95-.66-3-.95-2.3-.63-4.88-.63-4.8-3.69a4.92,4.92,0,0,1,1.14-2.62c.65-1,1.22-2.55,2.1-3.34.56-.51,1.38-.27,1.8-1"/><path class="cls-2" d="M174.3,285.43a25.09,25.09,0,0,1-11.47-2,20.5,20.5,0,0,1-7.48-6.19c-.75-.94-1.2-2.16-2.28-2.73a14.24,14.24,0,0,0-1.82-.44c-.76-.31-1.53-.72-2.26-1.09-1.17-.56-2.22-.86-2.62-2.15a2.65,2.65,0,0,1-.1-1.92,18.3,18.3,0,0,0,1-1.69,5.37,5.37,0,0,0,.37-2.06c0-.71-.54-.77-.88-1.35a25.51,25.51,0,0,0-1.82-3c-1.67-2.09-1.16-4.82-1.23-7.39a65.44,65.44,0,0,1,.43-8.83c.18-1.5,1.09-2.8,1.4-4.22.35-1.63,1.24-2.44,2.17-3.8s1.8-2.56,2.79-3.74a11,11,0,0,1,3.73-3.1c.9-.45,2.52-2.83,3.48-3.14s.39,3.65,1.68,6c.89,1.66,3.18,5.05,5,5.21,2.61.22,8.87-4.44,11.15-3.21,2.69,1.45,5.1.8,7.48,2.69,1.07.86,0-.61,1.09.23,1.3.95,2.45,2.13,3.82,3a26.06,26.06,0,0,1,5.67,4.33c1.2,1.37,1.81,3.77,2.12,5.54a25.38,25.38,0,0,1,.19,8.25c-.61,3.75-1.4,7.47-1.8,11.26-.22,2.08-.26,4.14-1.21,6.06a16.2,16.2,0,0,1-6.36,6.93c-3,1.61-6.52,2-9.87,2.27Z"/><path class="cls-3" d="M148,264.71c.08-.64.11-.92.69-1.29a15.43,15.43,0,0,1,2-1.12,9.53,9.53,0,0,0,1.51-.81,3.34,3.34,0,0,1,1.2-.65c.19-.37,0-1-.05-1.34a2.36,2.36,0,0,1,.17-1.41,8.94,8.94,0,0,1,1.36-2.32c-.83-.2-2.28,1.15-2.9,1.65a3.23,3.23,0,0,0-1.19,1.43c-.21.51-.25,1.16-.47,1.72s-.21.6-.91.83a6.42,6.42,0,0,0-1.43.38c-.87.61-.78,2.07-.47,2.88"/><path class="cls-3" d="M161.37,269.09c0,1.7-1.41,2.91-2.11,4.32-.29.6-.35,1.54-.92,2-.4.33-.4.29-.86-.07-.18-.14-.69-.54-.76-.75-.4-1.25,2-2.28,2.7-2.87a3,3,0,0,0,1.16-1.48,8.91,8.91,0,0,0,.71-2.32c.39.66.11.82.05,1.51"/><path class="cls-3" d="M147,261.61a3.14,3.14,0,0,0,.94-1.18c.41-.66,1.24-.64,1.91-.8-.13-.28-1.09-.39-1.39-.41-.51-.05-1.59-.18-2,.17a4,4,0,0,0-.58.67,1.61,1.61,0,0,0-.41,1.42,4.92,4.92,0,0,0,.45,1.44c0-.16.16-.35.2-.51s0-.43.17-.57a1.67,1.67,0,0,1,.35-.07A1.31,1.31,0,0,0,147,261.61Z"/><path class="cls-3" d="M154.71,277c-.11,0,.4,0,.49,0a1.54,1.54,0,0,0-1.66-2c-.19.38.58,1.56.84,1.79"/><path class="cls-3" d="M164.06,241.65l.07,0c.08-.49.15-1,.25-1.48a2.5,2.5,0,0,0,0-.67c0-.22,0-.46,0-.69a5.42,5.42,0,0,0-.29-1.3c-.11-.28-.32-.53-.41-.82s.07-.27.19-.46c.22.08.49.12.73.2a3.79,3.79,0,0,0,.77.29c.35,0,.43-.26.58-.54a10.9,10.9,0,0,0,.52-1.27,12.29,12.29,0,0,1,.57-1.15c.11.13.1.34.19.49a2,2,0,0,0,.56.55c.43.25,1,0,1.5,0a10.52,10.52,0,0,1,1.86-.05c1.72.1,3.38-.32,5.13-.13a8.72,8.72,0,0,1,3,.57c2.09,1,4.35,1.67,6.43,2.58s3.56,2.84,5.38,4.26c1,.79,1.76,1.78,2.73,2.58s1.81,1.3,2.63,2a9.11,9.11,0,0,1,1.79,2.62,17.6,17.6,0,0,1,1.62,3,19.73,19.73,0,0,1,.79,2.95,11.6,11.6,0,0,1,.61,3.09,13.37,13.37,0,0,0-.07,3.4,11.38,11.38,0,0,1-.13,2.85c.25-1.46-.52-3.22-1-4.58a3.45,3.45,0,0,1,.06,2,16.55,16.55,0,0,1-.93,2.84c-.69,1.75-1.12,3.64-1.92,5.36s-1.79,3.28-2.58,5a21.6,21.6,0,0,1-1.6,2.73c-.39.54-1.26,1.87-2,2.11-.08-.29.13-.54.19-.81a24.8,24.8,0,0,1-2.37,2.18,24.37,24.37,0,0,1-2.14,2,14,14,0,0,1-5.3,2.14c-1,.23-2,0-3,.12-.81.12-1.6.18-2.45.28s-1.8.11-2.72.13c-.4,0-.83.15-1.3.14-.32,0-1.13-.11-1.38.13,1-.44,2.11-.66,3.14-1s2.18-.3,3-1.22a3.37,3.37,0,0,1-2.1-.4c-.41-.17-1.8-.43-2-.69a11.11,11.11,0,0,1,1.4.1,3.59,3.59,0,0,0,2-.61c.55-.36,1-.81,1.52-1.19a5.53,5.53,0,0,0,1-.78c-.77.27-1.2-.43-1.72-.81a7.45,7.45,0,0,0-2-.86c0-.6,1.81-.08,2.19-.57.26-.31,0-.46.35-.82s.86-.38,1.1-.77c-.9.07-1.71.6-2.64.64-.51,0-1,0-1.51,0a3.08,3.08,0,0,1-1,0c.44.13,1-.31,1.33-.48a9.36,9.36,0,0,0,1.74-1,27.83,27.83,0,0,0,2.41-2.19c.58-.62,1.3-1.1,1.82-1.73s.48-1.37,1.11-1.71a7.59,7.59,0,0,0-2.19.83c-.48.23-1.76.86-1.86,1.45a1.31,1.31,0,0,1-.47.09c-.05-.88.71-1.5,1.24-2.15s1.13-1.53,1.76-2.24a4.84,4.84,0,0,0,.88-1.68c.17-.49.36-1,.52-1.49s.47-1,.34-1.31a9.14,9.14,0,0,0-1.92,1.22c-.72.51-1.41.93-2.12,1.38a5.7,5.7,0,0,0-1.49,1.15c-.31.33-.59.86-1,1-.38-.56.09-1.6.32-2.14a10.43,10.43,0,0,1,1.48-2.52c.49-.6,1.16-1.08,1.67-1.62.25-.27.51-.52.08-.83s-1.2.37-1.57.62-1.3,1.2-1.52,1.08c-.53-.28.36-3.27.35-3.85-.4-.1-1.05.55-1.44.72-.13-.48.51-1.27.74-1.69.37-.64,1.23-1.48,1.15-2.3,0-.24-.16-.3-.22-.53s0-.59,0-.85a1.71,1.71,0,0,0-1-1.37c-.32-.13-9-9.95-8.88-10.71,0-.5.5-1.26.39-1.71-.41-.22-1.25.46-1.61.67s-.83.84-1.31.79a6.88,6.88,0,0,1,.32-2c.35-1.44.41-3.39,1.77-4.39a6.18,6.18,0,0,1,2.55-1.1"/><path class="cls-1" d="M156.08,272.28c.44.29,1.38-.61,1.7-.87a3.6,3.6,0,0,0,1.35-1.81,8.26,8.26,0,0,0,.09-2,3.08,3.08,0,0,0-.23-.84,8.2,8.2,0,0,1-.1-.85,9.8,9.8,0,0,0-2.23,2.67,6,6,0,0,0-.8,2.1c0,.36-.12,1.36.31,1.51.07,0,.1,0,.09-.11"/><path class="cls-3" d="M159,266.39a4.35,4.35,0,0,1,.22,1.88,3.77,3.77,0,0,1-.47,2,12.84,12.84,0,0,1-1.15,1.54c-.48.5-1.21.73-1.5,1.39a3.69,3.69,0,0,1,0-1.1c.38.33,1.13-.56,1.39-.79a3.5,3.5,0,0,0,1.11-1.33,6.47,6.47,0,0,0,.36-1.79,4.08,4.08,0,0,0-.15-1.88c-.38,0-.9.7-1.19.95a4,4,0,0,0-1.11,1.53,4.66,4.66,0,0,0-.45,1.72,3.62,3.62,0,0,0,.08.93,3.82,3.82,0,0,0,.19.66c-1.06-.7-.48-2.5.1-3.41A11.12,11.12,0,0,1,159,266.2"/><path class="cls-3" d="M157.89,266.86c-.41.35-1.08.5-1.29,1.18a1.75,1.75,0,0,0,1.17,2.06c.93.42,1.26-.1,1.47-1,.12-.47.32-.84,0-1.3a2.73,2.73,0,0,0-1.63-.89"/><path class="cls-2" d="M140.26,210.4c-.56.65-1,1-1.06,1.76a12.05,12.05,0,0,0,0,1.59c.05.52.39,1.08.33,1.59-.08.69-.9,1.45-1.35,2a22,22,0,0,0-3.92,6.68c-1.37,3.58-2.85,7.11-4.09,10.75-.63,1.84-.84,3.8-1.43,5.64a27.92,27.92,0,0,1-4,7.22c-3.51,5-7.28,10-9.28,15.84-.34,1-.5,2-.74,3a22.38,22.38,0,0,0-.71,2.42,12.2,12.2,0,0,0,.49,3.92,25.43,25.43,0,0,0,1.35,4.67c.31.7.8,1.37,1.06,2.06s.13.95.73,1.47c1.47,1.24,2.91,2.54,4.47,3.64a30.49,30.49,0,0,1,4.75,3.88c1,1.12,1.94,2.32,3,3.48,2.78,3.13.76-3.62,1.84.24a32.16,32.16,0,0,0,2,4.54,30.35,30.35,0,0,1,1.58,4.56c.73,2.54-.54,4.37-2.32,6a7.17,7.17,0,0,1-3.12,1.76c-.75.16-1.35,0-2,.42a3.8,3.8,0,0,0-1.35,1.13,8,8,0,0,0,2.21,1c.9.21,1.83-.54,2.59-.88a11.33,11.33,0,0,0,4.64-3.94,6.44,6.44,0,0,0,1.31-2.56,13.19,13.19,0,0,0-.36-4c-.57-3.07-.56-6.23-1.44-9.21-1-3.33.73,4.28-.17.89a48.74,48.74,0,0,0-2-6.77,34.65,34.65,0,0,1-2-6,7.42,7.42,0,0,0-.36-1.77c-.15-.26-.47-.37-.66-.56a2.33,2.33,0,0,1-.4-.53c-.52-1-1-1.94-1.49-2.95a7.18,7.18,0,0,0-1-1.33c-.28-.37-.65-.87-.46-1.36.41-1.1,2-1.58,2.75-2.29a41.27,41.27,0,0,0,3.56-3.15,8.25,8.25,0,0,1,2.78-2.1c1.12-.57,2.15-1.47,3.32-2.09a17.35,17.35,0,0,0,3.24-2.35c.93-.81,1.9-1.62,2.83-2.45a32.88,32.88,0,0,0,2.85-3.27c2.3-2.66,4.52-5.34,6.6-8.14a28.59,28.59,0,0,1,6.38-6.42,6.68,6.68,0,0,0,1.87-2.89,21.31,21.31,0,0,0,1.22-3.07c.34-1.28-.49-2.65-1.16-3.82a47.11,47.11,0,0,0-2.75-4.28,36.82,36.82,0,0,0-11.44-10,40.36,40.36,0,0,0-6-2.79C141.38,210.89,140.26,210.4,140.26,210.4Z"/><path class="cls-3" d="M141.79,284.36c-.94-2.14-2-4.13-3.06-6.22a6.41,6.41,0,0,0-1.28-1.38c-.49-.51-1-1-1.58-1.51-1-.84-2.05-1.56-3-2.38a18.69,18.69,0,0,0-3.43-2.36c-.72-.39-1.44-.88-2.15-1.28-.44-.25-.93-.38-1.38-.65-1.54-.89-3.07-1.85-4.7-2.68a33.14,33.14,0,0,1-3.82-2,37,37,0,0,0-5.45-2.85c-1.72-.81-3.39-1.56-5.09-2.25-2.57-1-5.19-2.07-7.73-3.1a6,6,0,0,1-1.52-.93c-.46-.38-1-.62-1.43-1a.94.94,0,0,1-.18.12l0-.14-.91.38c-1.31.87-2.93,1.14-4.31,1.91-.83.46-1.6,1.07-2.38,1.6-1.21.81-2.41,1.72-3.58,2.59A17.08,17.08,0,0,0,81.15,264c-1.16,1.54-3.36,4.37-2.56,6.46.35.89,1.61,1.44,2.41,1.81,1.44.68,3,1.25,4.48,1.79a111.58,111.58,0,0,0,13.4,3.9A45.69,45.69,0,0,1,110,281.78c1.71.89,3.46,1.73,5.18,2.61,1.33.67,2.72,1.12,4.08,1.71,1.06.46,2,.84,3.09,1.2a2,2,0,0,1,1,.63,26.85,26.85,0,0,1-4.35,6.9c-2.25,2.84-4.36,5.79-6.54,8.68-1.4,1.86-2.79,3.74-4.16,5.62-1.83,2.51-3.81,4.94-5.51,7.53-4.18,6.39-8,13-12.51,19.18a64.85,64.85,0,0,1-7.91,8.31c-2.09,2,12.58,12.43,12.82,12a93.06,93.06,0,0,1,6-9.76c2.21-3.24,4.42-6.48,6.9-9.55,1-1.2,1.9-2.44,2.92-3.62a33.47,33.47,0,0,1,2.67-3.12,28.88,28.88,0,0,0,2.61-2.79,25.64,25.64,0,0,1,2.42-2.37c1.79-1.65,3.43-3.55,5.22-5.18,1-.92,2-1.91,3-2.84a47.16,47.16,0,0,0,3.51-3.42c1-1.14,2.17-2.07,3.14-3.21l2.85-3.32c1.95-2.26,4.33-4.38,5-7.29.31-1.22.74-2.35,1-3.6a29.61,29.61,0,0,0,.66-3.68A17.67,17.67,0,0,0,141.79,284.36Z"/><path class="cls-4" d="M93.42,262.83c.08-.06.09-3.37.29-4.42.37-2,1.55-2.84,2.59-4.47-.94-.82-3-.87-4.2-1.21-1.51-.44-3-.79-4.49-1.28a15.32,15.32,0,0,0-4.92-1.09c-2.43.06-2.76,1.64-3.19,3.75s-1.29,2.8.92,3.91c1.4.7,3,.89,4.36,1.53,1.7.78,3.15,1.55,4.86,2.23.86.34,3.71,2,3.82,1.61"/><path class="cls-1" d="M92.13,252.76,91,252.44a9.54,9.54,0,0,0-5,7.67l2.14,1a9.54,9.54,0,0,1,4.6-8.22C92.5,252.84,92.29,252.81,92.13,252.76Z"/><path class="cls-1" d="M84.24,250.49a13.28,13.28,0,0,0-4.68,6.85,4.08,4.08,0,0,0,1,.63,9.08,9.08,0,0,0,1.54.6,16.37,16.37,0,0,1,.49-1.7A9.88,9.88,0,0,1,87,251.19,18.85,18.85,0,0,0,84.24,250.49Z"/><path class="cls-1" d="M93.31,262.8c.09-.06.1-3.37.29-4.41.38-2,1.55-2.85,2.59-4.48a2.28,2.28,0,0,0-.44-.24c-1.47.18-2.81,2.22-3.42,3.34a10.38,10.38,0,0,0-1.14,5.54c1,.51,2.1,1,2.17.81Z"/><path class="cls-2" d="M151.83,219.76a75.43,75.43,0,0,0-14.91-8.91,84.11,84.11,0,0,0-29.59-8.18c-1.93.18-3.84.42-5.77.79-2.49.47-5,.59-7.49,1.2-2.19.53-4.45,1.08-6.58,1.78-5.33,1.74-10.91,2.93-16,5.31-2.49,1.15-4.8,2.56-7.22,3.84-1.42.77-2.85,1.49-4.27,2.26-.39.29-.81.56-1.2.85C48.93,226.08,38.48,235.27,34,247c-.1.58-.23,1.14-.28,1.75a53.43,53.43,0,0,0,0,6.07,46.3,46.3,0,0,0,1.07,6.92,75.57,75.57,0,0,0,1.61,7.92c.36,1.15.7,2.33,1.17,3.44.62,1.46,1.33,2.79,2.05,4.16.53,1,1,2.14,1.44,3.18a20.14,20.14,0,0,0,2,3.21c.65,1,1.31,1.88,2,2.78A47.55,47.55,0,0,0,58.08,294a.26.26,0,0,1,.14.13,14.88,14.88,0,0,0,3.48-3.75A11.45,11.45,0,0,1,65.16,287a13.77,13.77,0,0,0,3.27-3.37,55.9,55.9,0,0,1,4-5.13c2.21-2.25,4.63-4.21,6.82-6.48,1.84-1.9,3.82-3.69,5.7-5.56,1.19-1.18,5-2.92,3.6-3.7-11.84-6.43-5.79-9.63-4-10.57,3.21-1.7,4.88-4,5.74-3.62.69.31,18.36,2.25,19.48,2.45,1.67.3,17.29,6.75,19.58,5.89,3-1.11,5.79-2.17,8.73-3.18a7.43,7.43,0,0,0,3.14-1.81c.89-1,1.54-2.44,2.49-3.5,1.14-1.27,2.2-2.54,3.36-3.78a40.82,40.82,0,0,0,4.29-5.18,16.23,16.23,0,0,1,3.23-3.8,26,26,0,0,0,3.72-3.23c.4-.47.68-1.54,1.37-1.55a1,1,0,0,1,.13.33l-.4,1.91a12.59,12.59,0,0,0,.54-3.51C158.34,225.64,155.15,222.39,151.83,219.76Z"/><path class="cls-3" d="M130.26,276.11c-2.55-2.43-7.76-2.81-11-3.95-4.13-1.47-8.48-2.8-12.68-4a78.46,78.46,0,0,1-16.47-6.82A40.44,40.44,0,0,0,82.54,258c-2.81-.76-5.23-.29-7.91.36-3.91.93-5.76,4.29-8.19,7.11-2.89,3.35-6.15,7-8.34,10.82-1.88,3.3-6.63,11.06-4.51,15.67,1.46.73,3,1.41,4.49,2a.26.26,0,0,1,.15.37,17,17,0,0,0,1.83.05c2.32-.09,4.57.66,6.92.58a80.87,80.87,0,0,1,16.16.78c.6.09,1.19.15,1.78.22l-.48.12a47.32,47.32,0,0,0-6.7,2.1c-4.62,1.84-8.94,5.62-12.77,9a97.48,97.48,0,0,0-19.32,23.2c-1.06,1.72-8.65,15.18-9,15.39,4.65,2.13,7.26,1.77,11.74,4.23,2.54-1.07,23.35-14.29,26.95-15.83,8.49-3.63,15.62-9.82,22.93-15.2s16.47-9.51,21.46-17.09c2.2-3.35,5.78-7.67,5.41-12.05C124.94,287.29,132.17,277.93,130.26,276.11ZM87.64,295A17.88,17.88,0,0,0,90,295a12.27,12.27,0,0,0-1.84.22C87.54,295.06,87.27,295,87.64,295Z"/><path class="cls-3" d="M90.85,295.07h0Z"/><path class="cls-4" d="M36.13,242.24a1.49,1.49,0,0,0-.6.82c3.67,4.07,9,5.81,13.68,7.71,5.16,2.11,10.29,2.83,15.53,4.29a71.05,71.05,0,0,0,13,2.15c2.32.2,4.47.19,6.62,1.32,2.31,1.22,3.93,2.59,6.44,3.27-.45,1.13-2.26,1.95-3.16,3-1.06,1.25-2.14,2.49-3.22,3.74-2.57,3-4.65,5.6-6,9.31-1.87,5-4,12.29-3,17.67-6.48-.49-11.89.15-18.31-1.46a58.4,58.4,0,0,1-10.89-4.42A38.19,38.19,0,0,1,37.7,284c-6.49-5.91-9.05-12.22-8.74-20.63a35.46,35.46,0,0,1,2.12-11.08c1.1-2.7,2.35-6.78,4.74-8.68.17,1.09-.33.44-.7.61"/><path class="cls-1" d="M87.71,264.71c.75-.89,2.1-1.62,2.8-2.5-6.18,3.88-10.73,10.54-13.83,17a45.78,45.78,0,0,0-4.41,16.06c1,0,2.11.07,3.21.16-1.07-5.38,1.11-12.66,3-17.67,1.39-3.71,3.47-6.32,6-9.31Z"/><path class="cls-1" d="M70.41,256.19c-3,.17-6.13-.57-9.13-1A67.14,67.14,0,0,1,50.67,253a85.33,85.33,0,0,1-10-3.63,45.45,45.45,0,0,1-6.45-3.79,31.22,31.22,0,0,0-2.7,5.79C38,254,45.21,255,52,256a122.4,122.4,0,0,0,13.11,1.1q3.18.1,6.37.08c1.15,0,2.3,0,3.44-.13l1.11-.08C74.18,256.75,72.29,256.51,70.41,256.19Z"/><path class="cls-1" d="M65.85,259.54c-4.09-.08-8.19.11-12.27,0a219.65,219.65,0,0,1-23.91-1.88,41.37,41.37,0,0,0-.61,5.52c1.54.12,3.09.19,4.64.23,4.75.12,9.52-.24,14.25-.59a158.88,158.88,0,0,0,17-2.17c2-.38,4.09-.8,6.11-1.28A42.9,42.9,0,0,1,65.85,259.54Z"/><path class="cls-1" d="M82.32,257.72c-5,2.18-10.16,4-15.35,5.72S56.75,267,51.61,268.62s-10.3,3.2-15.55,4.4c-1.77.4-3.55.73-5.33,1.06a23.37,23.37,0,0,0,1.81,3.65q2.93-.86,5.83-1.75c5.21-1.62,10.37-3.45,15.5-5.33,4.94-1.81,9.89-3.68,14.64-6,2.48-1.19,4.89-2.53,7.38-3.66,2.21-1,4.72-1.72,6.63-3.27Z"/><path class="cls-1" d="M70.94,265.43c-4.53,2.68-9,5.38-13.59,8s-9,5.37-13.22,8.37c-1.6,1.12-3.18,2.26-4.77,3.4a41.16,41.16,0,0,0,6.82,4.26c5.75-5.69,11.8-11.09,17.65-16.65a82.32,82.32,0,0,1,10.5-9.07c.55-.38,1.11-.74,1.67-1.11C74.3,263.55,72.6,264.45,70.94,265.43Z"/><path class="cls-1" d="M66.76,276.71A55.75,55.75,0,0,1,76.16,266a36.57,36.57,0,0,1,6.4-4.51,14.38,14.38,0,0,1,2.67-1.16c.54-.16,1.1-.31,1.64-.53l-.3-.17c-1.9.95-4,1.46-5.86,2.47a33.39,33.39,0,0,0-5,3.24,57.85,57.85,0,0,0-9.83,10.37c-4.31,5.65-8.91,11.09-13.23,16.73A35.8,35.8,0,0,0,57.16,294l.91.18A72.52,72.52,0,0,1,66.76,276.71Z"/><path class="cls-1" d="M81.15,267.08a34.71,34.71,0,0,1,4.57-4.25A34.19,34.19,0,0,1,89,261a1.3,1.3,0,0,1-.26-.14,35.12,35.12,0,0,0-5.53,2.82,36.91,36.91,0,0,0-5.37,4.86,61.71,61.71,0,0,0-8.71,12.2,51,51,0,0,0-5,12.76c-.12.5-.22,1-.33,1.51.82.06,1.64.1,2.46.13a62.51,62.51,0,0,1,7.29-17.88A61.48,61.48,0,0,1,81.15,267.08Z"/><path class="cls-4" d="M85.73,242.21c-1.88-2-2.78-5-4.16-7.5-2.92-5.26-6-9.54-6.78-15.72-.27-2.21-.21-4.46-.49-6.66-.46-3.74-.57-3.26,3.27-4.44,5.34-1.64,10.86-3,16.31-4.46,10-2.7,22.05-2.38,31.52,1.13,10.5,3.89,21.23,8.95,30.33,16.73,7.6,6.48,6.29,11.3,5.93,13.94a5.55,5.55,0,0,1-1.26,1.92c-.65-6.35-6.44-10-9.89-11-5.3-1.61-5.55,1.86-3.75,5.88,3.59,8,2.66,13.32-3,20.18,1.91-3.46,1-11.83-.53-15.41-2.74-6.64-10.46-6.91-16.49-7.48-3.38-.32-3.67,0-6.24,2.08a16.93,16.93,0,0,0-5.81,8.56c-1.5,5.88.77,7.7-4.17,12.07-3.52-.94-8-.93-11.51-1.94-2.11-.63-7,0-7.68-1C91.3,249.06,87.32,243.93,85.73,242.21Z"/><path class="cls-1" d="M92.84,237.36a91.63,91.63,0,0,1-3.79-17c-.69-5.24-1-10.82.47-16-2.66.7-5.32,1.4-8,2.14a16.65,16.65,0,0,0-1,4.45,36.88,36.88,0,0,0,.28,8.2c.31,2.39.77,4.76,1.26,7.13a90.71,90.71,0,0,0,2.38,9.45,48,48,0,0,0,4,9.2c.61,1.06,1.28,2.06,2,3,.48.59.78,1,.78,1,.7,1.06,5.58.4,7.7,1l.13,0A46,46,0,0,1,92.84,237.36Z"/><path class="cls-1" d="M104.47,247.5a69.68,69.68,0,0,1-.72-11.63c.1-11.63,1.36-23.72,6.3-34.37a57,57,0,0,0-9.43.41,42.85,42.85,0,0,0-2.78,12.29,76.6,76.6,0,0,0,.25,14.91c.33,3,.79,6,1.32,8.92a61.48,61.48,0,0,0,2.39,9.55c.39,1.1.85,2.16,1.32,3.2l2.12.27A35.6,35.6,0,0,1,104.47,247.5Z"/><path class="cls-1" d="M119.05,232.53a113.1,113.1,0,0,1,4.19-14.22,55.42,55.42,0,0,1,6.11-12.4c-1.33-.53-2.65-1-4-1.53a45.31,45.31,0,0,0-6-1.74,65.15,65.15,0,0,0-6.18,17.88,120,120,0,0,0-2.62,19.23,85.81,85.81,0,0,0,.32,11.78c4.36-4.1,2.29-6,3.75-11.68A16.17,16.17,0,0,1,119.05,232.53Z"/><path class="cls-1" d="M137.65,220.4A41.07,41.07,0,0,1,144.1,213c-2.16-1.24-4.37-2.4-6.6-3.48l-.47.6a73.52,73.52,0,0,0-9.73,15.73c-.47,1.08-.9,2.18-1.3,3.29l.68.06c1.92.18,4,.33,6,.67A44.2,44.2,0,0,1,137.65,220.4Z"/><path class="cls-1" d="M148.17,236.81a2.18,2.18,0,0,1,.27-.11,26,26,0,0,0-1.31-3.95,49.33,49.33,0,0,0-4.51,2.75,8.53,8.53,0,0,1,.59,1.17,16.44,16.44,0,0,1,.69,2.17A36.22,36.22,0,0,1,148.17,236.81Z"/><path class="cls-1" d="M145.16,250.27a20.07,20.07,0,0,0,3.09-5.78c-1.16.62-2.31,1.26-3.45,1.93a17.7,17.7,0,0,1-.4,3.87Z"/><path class="cls-1" d="M146.17,226.49a1.93,1.93,0,0,1,1.07-.75,57.61,57.61,0,0,1,8.39-4.72q-2.65-2.24-5.46-4.19a95.61,95.61,0,0,0-7.54,6.53,44.7,44.7,0,0,0-6.14,7.4,12.93,12.93,0,0,1,3.17,1.54A44.4,44.4,0,0,1,146.17,226.49Z"/><path class="cls-1" d="M162,232.88a10.52,10.52,0,0,0-1-5.36c-1.37.29-2.75.6-4.11,1-.38.1-.74.24-1.11.35a13.42,13.42,0,0,1,3.68,4.59Z"/><path class="cls-2" d="M99.74,259.92c-1.75,2.3-4.65,4.86-5.73,7.57-2.78,7-.35,8.76,1.91,16.75,1,3.62,1.55,12,2.55,15.93.84,3.25,2.53,6.21,3.47,9.43a24.17,24.17,0,0,0,1.43,4.28c1.27,2.66,1.74,5.82,2.68,8.66.6,1.8,1.67,3.37,1.75,5.24.12,2.93-2.67,10.25,1.5,11.32,1.3.33,2.17-.45,3.25-.78,0-1.1,2.75-2.61,3.68-3s1.27-.17,2-1a10.56,10.56,0,0,0,1-1.67,6.18,6.18,0,0,0,.33-5.63c-.64-1.79-2-2.05-2.92-3.45-2.42-3.48.21-9.74.93-13.4.52-2.65,1.06-5.3,1.54-8,.2-1.1.91-3,.58-4.14-.25-.81.31-1.46.22-2.31a31.57,31.57,0,0,0-.67-5c-1-3.9-2.18-7-5.08-9.92a20.77,20.77,0,0,1-3.59-4.88c4.6.51,4.26-1.58,8.8-3.57,3.63-1.58,7.13-3.41,10.63-5.26,6.22-3.3,16-13,16.71-20.55.27-2.83-1.78-9.6-3.26-12.14-1.8-3.11-14.62-6.25-17.62-4.94-12.37,5.37-9.09,11.9-14.46,18.52C108.86,251,101.35,257.8,99.74,259.92Z"/><path class="cls-3" d="M132.56,249.27a5.52,5.52,0,0,1-.34-.55l-.63-.88a20.34,20.34,0,0,1-1.31-1.78c.05-.08.16-.08.25-.12.52.52.82,1.25,1.37,1.73a6.53,6.53,0,0,1,1.4,1.73,2,2,0,0,1-.44.37c-.1-.11-.54-.49-.39-.62"/><path class="cls-3" d="M132.92,246.9c-.17-.39-.08-1.42.46-1.48s1.16.65,1.22,1.18a1,1,0,0,1-1,1,.83.83,0,0,1-.62-.27c-.12-.14-.28-.46-.14-.63m1.41,0c-.08-.17,0-.34-.13-.52a1,1,0,0,0-.32-.39c-.46-.22-.51.31-.57.59s-.05.67.4.7.73-.2.68-.55"/><path class="cls-3" d="M132.84,246.83c.09.15-.57.54-.71.63a7.2,7.2,0,0,0-.83.58c-.59.46-1.14,1-1.77,1.39-.88.6-2,1-2.9,1.55-.65.43-1.53.7-1.89,1.4a2.54,2.54,0,0,1,.47.31c.18-.28.74-.36,1.08-.49s.85-.34,1.23-.54a12.94,12.94,0,0,0,2.07-1.35,6.86,6.86,0,0,0,1-.95,5.85,5.85,0,0,1,1.13-1,9.63,9.63,0,0,1,.95-.69,4.66,4.66,0,0,0,.4-.25c.17-.15.17-.25-.1-.52"/><path class="cls-3" d="M123.92,246.42c-.17.17-.16.39-.25.6a3.19,3.19,0,0,0-.29,1,6.52,6.52,0,0,0,.15,2,7.54,7.54,0,0,0,1.67,3.28,4,4,0,0,0,1.38,1.07,4.91,4.91,0,0,0,1.32.45,4.41,4.41,0,0,0,1.25.08c.17,0,1-.08.9-.33a3.92,3.92,0,0,1-1.13-.05,4.58,4.58,0,0,1-1-.24,5,5,0,0,1-2-1.51,9.1,9.1,0,0,1-.88-1.07,6.6,6.6,0,0,1-.54-1.18,10.19,10.19,0,0,1-.76-2.26,3.93,3.93,0,0,1,0-1c0-.27-.09-.59,0-.84,0,.08.08.09.14.11"/><path class="cls-3" d="M122.7,247.78a12.73,12.73,0,0,1,1.33-1.86,2.43,2.43,0,0,1,.43,1.09c.05.2.08.42.13.63s.15.36.12.49a2.38,2.38,0,0,0-.47-.43,7.19,7.19,0,0,1-.51-.59,3.36,3.36,0,0,1-.61.49c-.13.08-.59.37-.72.34a.46.46,0,0,1,.07-.07"/><path class="cls-3" d="M129.13,254c0,.27,1.06.74,1.3.81-.18.18-.43.32-.61.5s-.45.42-.66.36a1.74,1.74,0,0,1,.58-.72c0-.09-.12-.1-.18-.17s-.13-.19-.2-.28A1.44,1.44,0,0,0,129,254"/><path class="cls-3" d="M46,342.27c.16-.19,1.82,2,2.27,2.5a10.1,10.1,0,0,0,4.86,2.43c3.06.71,6,1.88,9,2.87,2.38.79,5.63.91,7.79,2.47,2.68,1.95,1.16,5.12,1.88,7.7-1,1.17-5.39.23-6.78-.05a27.74,27.74,0,0,0-6.87-.28,43.71,43.71,0,0,1-7.66-.44,38.14,38.14,0,0,0-6.17-.78c1.13,1.86-3,.85-3.74.8a19.94,19.94,0,0,1-4.71-1c-.64-.21-1.24-.5-1.84-.74-1-.42-1.31-.37-1.45-1.49a16,16,0,0,1,0-5.4,8.22,8.22,0,0,0,.64-1.76c.09-.8.05-1.65.18-2.48a8.24,8.24,0,0,1,.62-2c.38-.87.53-1,1.52-1.16,2-.32,4.09-.06,6.11-.3.91-.11,4.14-1.65,4.65-.78"/><path class="cls-1" d="M53.87,348.19a.31.31,0,0,0-.13-.19,4.41,4.41,0,0,1-.84.31,1.45,1.45,0,0,0-.7.64,4.34,4.34,0,0,0-.35,2.22c.08,1.41.87,2.68.64,4.15a5.19,5.19,0,0,1-2.07,3c-.91.67-2.35,1.95-2.5,3.23-.17-.22-.45-.19-.61-.43a20.74,20.74,0,0,1,2.5-3.24A5.9,5.9,0,0,0,52,354.1a7.19,7.19,0,0,0-.3-2.28c-.08-.37-.12-.72-.2-1.06a4.8,4.8,0,0,1-.31-1.24,2.39,2.39,0,0,1,.78-1.69c.73-.54,1.25-.08,1.94.19"/><path class="cls-1" d="M51.63,346.75c-.6-.22-1.62.3-2.24.44-.91.21-1.11-.36-1.55-1.15a16.57,16.57,0,0,1-.73-2,12.6,12.6,0,0,0-1.31-2.14c-1.06-1.58,1.21-2.38,2-3.18a2.67,2.67,0,0,0,.75-2.15c-.09-.76-.45-1.51-.47-2.24.21.35.5.09.75,0a6.52,6.52,0,0,1,.12,2,8.61,8.61,0,0,1,0,2c-.15.81-.84,1-1.48,1.36s-1.13.74-1,1.7a6.08,6.08,0,0,0,1,2.16c.22.4.44.8.67,1.19a3.38,3.38,0,0,1,.32,1.1c.27,1.06.93.57,1.63.47s1.29.24,1.9.22a.57.57,0,0,0-.35-.21"/><path class="cls-3" d="M79.69,345.28c.17-.43-.65-.45-1.22-.33a22.73,22.73,0,0,0,0,5.41c.09,1.45.7,3.82,2,4.6.21.12.09,1.21.59,1.42,1.35.6,8.56,1.34,8.44-1,2.31-.19,4.49.53,6.65.88a52,52,0,0,0,6.7.94,55.58,55.58,0,0,1,6.71.61c2.33.4,4.5,1.12,7,.91a1.75,1.75,0,0,0,0-1.17,5.44,5.44,0,0,0-.54-.15c1-1.58,2.71-2.8,2.44-5-.2-1.49-2.85-2.73-4.11-3.31-3.52-1.61-7.08-3.51-10.61-5.1a19.56,19.56,0,0,0-2.53-1,2.87,2.87,0,0,0-2.65.12,17.91,17.91,0,0,1-6.09,1.72,17.54,17.54,0,0,1-6.39-.28,15.3,15.3,0,0,1-2.86-.83c-.82-.39-1.59-1.47-2.44-1.6-.16.84-.66.6-1.09,1.11s-.65,1.42-1.35,2"/><path class="cls-1" d="M102.64,345.08a.42.42,0,0,1,0,.29c-.49.15-.62-.28-1-.31a1,1,0,0,0,.12.73c.65.11,1,.14,1.34-.42a1.18,1.18,0,0,0,.06-1.31c-.57-.85-2.15-.95-3-.63-1.88.67-2.78,2.78-4.37,3.77s-3.58,2.6-5.4,2.08a5.12,5.12,0,0,1-2.24-1.61,2.14,2.14,0,0,1,0-2.59.22.22,0,0,1,.21,0c-.31-.57.1-1.32.27-1.82a3.24,3.24,0,0,0-1.6,1.9,4,4,0,0,0,.6,3c1.64,2.31,4,2.18,6.38,1.2a8.57,8.57,0,0,0,3.25-1.86,17.43,17.43,0,0,0,1.67-2.27,2.84,2.84,0,0,1,2.32-1.13c1.35-.11,1.5.78,1.46,1.91"/><path class="cls-1" d="M100.66,344.53l.1-.12c-.33-.07-.66,2.69-1,3.13-.84,1-2.44.34-3.06-.52-1.6-2.23-.47-4.44-.09-6.83a13.6,13.6,0,0,0,.46-4c-.16-1.06-1.52-2-2.36-2.45A17.77,17.77,0,0,0,93,333a17.22,17.22,0,0,0-2-.43c-.6-.17-1.28-.37-1.86-.52a10,10,0,0,0-1.79-.45.33.33,0,0,0-.29-.11,1,1,0,0,1,.14.58,37.39,37.39,0,0,1,6.68,1.7c2.54.93,2.32,3.28,2.21,5.64,0,1.27,0,2.59-.17,3.85a8.79,8.79,0,0,0,0,3.39c.25,1,.75,1.88,1.91,1.93a2.72,2.72,0,0,0,2.5-1.58,7,7,0,0,0,.47-2.91"/><path class="cls-3" d="M102.19,92.76c-1.2-1.21-5,.52-6.79.28-.57,3.2-5.67,8.12-7.56,10.74a76,76,0,0,0-8,14.93C75.92,128.06,54.73,145.17,50,154c5.69,4.73,23.42,6.61,23.42,6.61l24.15-2.44,7.87-11.85s-3.12-42.64-3.26-52.11Z"/><path class="cls-3" d="M111.18,81.2c1-.13,2,.09,3-.07-.6-.66-1.78-1-2.56-1.61s-1.44-1.76-2.1-2.07c-.62.48-2.13,1.06-2.53,1.69-.93,1.48-1.32,3-2.54,4.29a18.74,18.74,0,0,0-2.7,4.51,20.31,20.31,0,0,0-1.62,4.51c-.38,1.56-.22,3.26-.61,4.87-.84,3.36-2.23,6.66-3.21,10-1.66,5.73-3.45,11.87-3.36,17.87,0,1.42-.12,2,1.2,2.71s2.71,1.24,4,2a19.51,19.51,0,0,1,4.92,4c.61.66.88,2.44,1.7,2.75-.28-2.32.42-1.93.36-6,0-1.34,5.06-24.55,6.19-24.84,0-.53-.44-.93-.69-1.38a3.93,3.93,0,0,1-.39-1.53c-.14-1.27,0-2.58-.06-3.84,0-2.46-.25-5.15.33-7.44.27-1.08.17-2.29.37-3.41a9.3,9.3,0,0,0,.1-4C110.66,83.4,110.08,81.36,111.18,81.2Z"/><path class="cls-4" d="M103.36,64.39a.22.22,0,0,1,.12.26c-.51.45-1,.92-1.54,1.36a9.5,9.5,0,0,1-.8.62,2.14,2.14,0,0,1-.74.24,1.68,1.68,0,0,1-.59,0,1.56,1.56,0,0,1-.74-.39,2.47,2.47,0,0,1-.54-.53,4.8,4.8,0,0,0-.32-.43l-.1-.11c-.12,0-.13,0-.19.13-.34.52-.59,1.14-.89,1.69a3.28,3.28,0,0,0-.5,1.13A2.85,2.85,0,0,1,96,69.47c-.5.81-1,1.6-1.5,2.43l-.23.43a32.43,32.43,0,0,0-2.1,4c-.47,1.31.5,2.44,1.37,3.41l1.28,1.47c.38.43.74,1,1.31,1.18,1.34.48,3-1.32,4.08-1.93a32.2,32.2,0,0,0,5-3.09,3.72,3.72,0,0,0,.63-.56,5.26,5.26,0,0,1,.71-.62c.19-.18.39-.31.59-.48s.45-.42.7-.59.23-.06.35-.12c-.15-.27-.36-.49-.53-.74s-.46-.72-.68-1.08a2.71,2.71,0,0,1-.43-1.56c.07-.6.69-.84,1.08-1.23.15-.17.31-.34.48-.5s.2-.16.2-.26-.1-.18-.14-.23c-.25-.33-.58-.59-.82-.91-.52-.69-1-1.42-1.46-2.15-.24-.43-.49-.86-.76-1.26s-.78-.71-1-1.09a.41.41,0,0,1,.27,0"/><path class="cls-1" d="M201.08,203c1.13-1.71,6.65.8,8.19.72a38.38,38.38,0,0,1,5.59-11.41c-.75-.61-7.3-1.38-8.32-1.28-1.85.18-2.25.22-3.1,1.93a20,20,0,0,0-1.84,8.38c-.23.16-.4.89-.46.6"/><path class="cls-3" d="M205.59,198.9a10.58,10.58,0,0,0,1.78-1.82,17.83,17.83,0,0,0,2.12-6.1,35.34,35.34,0,0,1,3.43-3.19c-.07-.17-1.86-1.23-1.89-1.45a1.37,1.37,0,0,1,.19-.6s5.67,4.53,6.31,4.64,18.21-1.9,18.69-1.58c.18.11,3.23,2.5,3.44,2.75s.44.31.31.66a59.59,59.59,0,0,1-6.16,3.89c-.87.49-13.95,5.45-14.54,5.44a16.34,16.34,0,0,0-2.79,1.06c-.09.19,1,3.15,1,3.42s-8.41,4-8.89,4.3l-.52.28a18.5,18.5,0,0,1-1.6-2.07c-.13-.13-2.29-.78-3.06-1.28-.39-.24-2.23-5-2.24-5.35S205,199.36,205.59,198.9Z"/><path class="cls-3" d="M58.45,120.74l.08.23.06-.15A.25.25,0,0,0,58.45,120.74Z"/><path class="cls-3" d="M208.43,184.68c.49-2,1.34-5,.9-5.93-2.19.14-4.45-.72-6.63-1.14a98.39,98.39,0,0,0-9.77-1.24c-4-.36-7.84-1.1-11.74-1.71-3.42-1.32-6.36-2.45-7.95-3-4.85-1.73-25.7-12.19-25.7-12.19l-9.94-5.86-12.08-2.39s-41.18-14.36-58.68-20.43c-.76-.69-1.5-1.4-2.27-2.08a34.25,34.25,0,0,1-3.9-4.17A14.81,14.81,0,0,1,59,122c-.11-.19-.2-.74-.41-.8l-.08-.25a9.74,9.74,0,0,1-1.06,1.56,12.19,12.19,0,0,1-1.56,1.66c-.81.83-1.64,1.57-2.37,2.44-.92.31-1.73,1-2.56,1.35-4,1.78-8.71,2.62-12.94,4.09-3,1.05-8.47,1.46-11.52,2.26-1.89.45-5.09,3.78-5.09,3.78s3.4,9.34,4.36,11.14a34.59,34.59,0,0,0,8.45,9.85c6.75,5.64,15.67,9.9,24.13,12.79,9.51,3.23,68.12,17,69.42,17.23,1.92.32,12.56,3.39,12.07,3.23,0,0,8.78,3.06,10.11,3.2,2.64.3,5.16.67,7.76,1.11,1.16.19,2.31.41,3.45.62,2.46.7,4.48,1.27,5.62,1.56,4.68,1.19,22.86,6.65,27.37,7.59.6.14,1.64-.56,2.94-1.76,2,.58,3.22,1.34,5-.94,2.08-2.67,3-6.07,3.93-9.27,0-.16.09-.33.14-.49,3.21-4.25,5.9-8.16,6.34-9A12.88,12.88,0,0,1,208.43,184.68Z"/><path class="cls-3" d="M66.8,133.3l.1.17a.69.69,0,0,0,0-.13A.16.16,0,0,0,66.8,133.3Z"/><path class="cls-3" d="M202.08,159c0-1.6.11-4.07-.43-4.72-1.76.46-3.78.15-5.65.17-2.75,0-5.48.29-8.24.58-3.31.35-6.63.39-9.95.53-3.05-.48-5.68-.89-7.09-1.08-4.31-.57-23.43-5.36-23.43-5.36L138,146.18l-10.35.06s-36.52-4.6-52-6.53c-.75-.41-1.49-.84-2.25-1.24a30.57,30.57,0,0,1-4-2.6,14.76,14.76,0,0,1-1.85-1.67c-.12-.14-.31-.54-.49-.56l-.12-.17a6.92,6.92,0,0,1-.55,1.36,9,9,0,0,1-.95,1.53c-.51.77-1,1.47-1.46,2.25-.69.39-1.23,1-1.84,1.45-2.89,2-6.61,3.39-9.79,5.18-2.26,1.29-6.64,2.46-9,3.56-1.46.64-3.42,3.71-3.42,3.71s4.61,6.67,5.75,7.91a30.39,30.39,0,0,0,8.85,6.27c6.63,3.28,14.76,5.17,22.25,6.06,8.42,1,59.09,2.4,60.19,2.37,1.64-.05,11,.64,10.51.6,0,0,7.79,1,8.9.87,2.23-.18,4.36-.3,6.57-.37l2.95-.06c2.15.16,3.91.27,4.9.32,4.06.18,20,1.53,23.89,1.55.52,0,1.24-.69,2.06-1.82,1.75.13,2.9.52,3.92-1.51,1.17-2.39,1.26-5.16,1.39-7.77l0-.4c1.79-3.79,3.22-7.22,3.42-8A11.17,11.17,0,0,1,202.08,159Z"/><path class="cls-1" d="M68.76,142.73s-9.9,7.22-10.57,7.36c-12.19,2.57-21.34-7-19.28-9.68.4-.53,34.58-58.56,45.33-69.64C86.33,68.6,102,90.69,102.55,91.41c.19.3-3.77,1.48-3.58,1.94-1,1.49-2.13,3-2.42,4.77C96.5,98.48,68.76,142.73,68.76,142.73Z"/><path class="cls-1" d="M78.34,88.07c.17,0,.17,0,0,0a10,10,0,0,1-1.88-1.43c-.18,1.3.28,1.29,1.2,1.88.3.21.48.73.9.62a.62.62,0,0,0,.19-1.09"/><path class="cls-1" d="M72.86,96.44h0A10.05,10.05,0,0,1,71,95c-.17,1.3.27,1.3,1.19,1.92.31.17.47.7.9.56a.59.59,0,0,0,.2-1"/><path class="cls-1" d="M66.74,105.24c.16,0,.17,0,0,0a10.06,10.06,0,0,1-1.9-1.43c-.17,1.3.27,1.29,1.2,1.9.29.19.45.7.91.59a.62.62,0,0,0,.18-1.08"/><path class="cls-1" d="M59.94,113.2c.15,0,.18,0,0,0a9,9,0,0,1-1.86-1.41c-.16,1.27.28,1.27,1.17,1.86.3.19.45.68.87.57a.59.59,0,0,0,.2-1"/><path class="cls-1" d="M55.19,121.44h0a9.4,9.4,0,0,1-1.83-1.39c-.17,1.26.27,1.24,1.16,1.86.3.19.46.67.89.56a.58.58,0,0,0,.17-1"/><path class="cls-1" d="M49.29,130.75h0a10,10,0,0,1-1.85-1.39c-.16,1.27.26,1.25,1.18,1.85.28.19.43.69.87.57a.58.58,0,0,0,.18-1"/><path class="cls-3" d="M83.82,56.32a15.08,15.08,0,0,0,2.53,1.29c1,.55,1.85,1.3,2.83,1.82A19.48,19.48,0,0,1,96,65.25c1.52,2.42-6.4,10-7.13,13.54-.18.79-.42,1.55-.55,2.34s0,1.85-.27,2.71a6.11,6.11,0,0,1-.84,1.72c-.27.35-.45.32-.78.49-.16.08-1,.6-1.1.62-.67.06-2.5-1.77-3-2.12a28.73,28.73,0,0,1-3.18-2.46c-.92-.91-1.73-1.89-2.68-2.76-1.39-1.3-3-2.31-4-3.92-.51-.75-1.16-1.41-1.69-2.15a4.6,4.6,0,0,1-1.16-3.18c.11-2.17,2.08-4.23,3.66-5.63A50.23,50.23,0,0,1,80,59.57c.47-.29,2.27-1.09,2.16-1.73"/><path class="cls-1" d="M111,77.15c-.88-1.17-2.33-2.65-3.28-3.77-.25-.28-4.21,3.16-4.82,3.49-1.52.85-9,5-9.25,5.23a41.57,41.57,0,0,1,1.12-6.57,10.27,10.27,0,0,0,.51-2.16c.12-1.16,3.19-7.31,3.46-7.65s.53-1,.53-1-2-.23-3-.21S86.07,69.06,86,70.84c.89-.27,2-.7,2.91-.33s.72,1.43.44,2.22C89,73.82,88.45,74.88,88,76a8.83,8.83,0,0,1-1.41,2.59s0,0,0,0a20.43,20.43,0,0,1-1.44,3.53,42.08,42.08,0,0,1-2.56,5,26.31,26.31,0,0,0-1.25,2.49,16.77,16.77,0,0,0-.91,2c-.57,1.67-1.44,3.22-2.1,4.85-.49,1.23-1.18,2.35-1.69,3.56s-.85,2.27-1.28,3.4a6.38,6.38,0,0,0-.6,2.36,11.81,11.81,0,0,0,.36,1.77A6.19,6.19,0,0,0,77,110.6c.51.43,1.59.89,2.21.5a4.6,4.6,0,0,0,.63-.62,5.42,5.42,0,0,1,1.27-.76,24.16,24.16,0,0,0,2.42-1.4,25.69,25.69,0,0,1,2.75-1.57,5,5,0,0,0,1.57-1.07,12.39,12.39,0,0,0,1.63-3,5.61,5.61,0,0,1,1-1.7c.82-.84,1.71-1.6,2.51-2.46a33.29,33.29,0,0,0,2.21-2.81A16.72,16.72,0,0,1,96.31,94a10,10,0,0,0,1.11-1.24c.19-.28,3.56-1.29,4-2,1-1.75,2.58-3.17,3.38-5,.34-.81.6-1.64,1-2.47s.83-1.5,1.2-2.26a5.29,5.29,0,0,1,1.48-2.13,2.66,2.66,0,0,1,2-.49,3.41,3.41,0,0,1,.48.37c.38.28.3.27.35.71,0,.29.14.34,0,.64s-.27.46-.37.74c.53,0,1.16-1.14,1.11-1.6A4.4,4.4,0,0,0,111,77.15Z"/><path class="cls-3" d="M90.64,86.27h0c-.9-.08-1.19,2.23.16,2.12.54,0,.82-.51,1-1,.16-.65-.23-1-.71-1.41"/><path class="cls-3" d="M86.91,92.42c-.34.29-1.6.73-.84,1.54s1.47-.64.71-1.12"/><path class="cls-3" d="M82.06,100c0,.09,0,.11.09,0-.67-.78-1.63.41-1.07,1.11a.73.73,0,0,0,1.16,0,1.28,1.28,0,0,0-.18-1.42"/><path class="cls-3" d="M77.89,105.58c-.21.32-.77.47-.84,1a.71.71,0,0,0,.73.84c.6,0,.86-.43.84-1s-.33-.64-.87-.84"/><path class="cls-3" d="M74.15,110.75c.08.22-.3.08-.54.17a1.67,1.67,0,0,0-.74.66c-.36.57-.37,1.08.31,1.34s1-.09,1.23-.65c.37-.76-.1-1.45-.71-2"/><path class="cls-3" d="M69,116.62a1.2,1.2,0,0,0,.11.12c-.8.12-1.21,1.38-.36,1.6a.71.71,0,0,0,1-.56c.14-.52-.14-.72-.28-1.16"/><path class="cls-3" d="M64,122.09c.06.17-.16,0-.29.28a3.19,3.19,0,0,0-.13.71c0,.49.23,1.22.88,1,1.08-.38.44-1.86-.46-2"/><path class="cls-3" d="M58.81,127.83c-.75.29-.51,1.73.44,1.17s.07-1.39-.72-1.31"/><path class="cls-3" d="M53.9,132l.1.11c-.52.27-1.33,1.23-1,1.79.83,1.23,2.3-1.45,1-1.62"/><path class="cls-3" d="M48.89,137.47c.12.09.13.1,0,.05-1-.33-1.51,1.58-.28,1.65.63,0,.95-.4,1.08-1,.2-.79-.16-.84-.82-.84"/><path class="cls-2" d="M97.42,74.91s0,.06-.08,0a3.22,3.22,0,0,0-.09-.51,1.42,1.42,0,0,1,0-.71c.06-.2.13-.38.2-.58a.67.67,0,0,1,.16-.34,1.84,1.84,0,0,1,.88-.32,1.74,1.74,0,0,1,.39-.11,1.81,1.81,0,0,1,.78.23c.31.13.59.32.89.47a3.58,3.58,0,0,1,.75.52,3.43,3.43,0,0,1,.48.53,1,1,0,0,1,.17.46,3,3,0,0,1-.07.9c-.13.39-.41.72-.57,1.11a1.79,1.79,0,0,1-.38.67c-.08.11-.18.22-.27.33s-.1.16-.19.23a.51.51,0,0,1-.5,0,5.42,5.42,0,0,1-1.19-.46,2.46,2.46,0,0,1-1-.8,2.26,2.26,0,0,1-.3-.82c0-.18-.11-.37-.15-.56s0-.12,0-.2,0-.15.07-.28"/><path class="cls-2" d="M96.58,70.14,95.4,73a5.68,5.68,0,0,0,2.42,3.25,14.16,14.16,0,0,0,2.85,1.87s2.27-1.26,3.56-2.17-2.38.24-4.41-1.55A16,16,0,0,1,96.58,70.14Z"/><path class="cls-1" d="M206.91,177c.12-.87,1.45-.63,1.8-1.24-.22-.4,0-1.13,0-1.57a12.73,12.73,0,0,0,.07-2.14,13.66,13.66,0,0,0-.58-2.24c-.2-.72-.3-1.43-.53-2.14a18.73,18.73,0,0,0-1.58-3.9,11.46,11.46,0,0,0-1.49-1.76c-.41-.43-1-1.26-1.63-1.36.42.37.31,1.32.34,1.82a3.49,3.49,0,0,1-.29,1.85c-.24.47-1,1.14-1.09,1.66a9.59,9.59,0,0,0,.51,1.11c.2.55.47,1.06.72,1.59q1.07,2.31,2,4.62c.29.71.5,1.36.79,2.08.18.39.46.71.66,1.09a4.41,4.41,0,0,0,.41.93.52.52,0,0,0,0-.28"/><path class="cls-3" d="M205.82,171.66a9.53,9.53,0,0,0-.11-2.26,17.6,17.6,0,0,0-2.6-5.24,33.24,33.24,0,0,1,0-4.13c-.14-.07-1.85.32-2,.2s-.23-.39-.27-.52,6.18-.46,6.63-.77,9.47-12.2,10-12.28c.17,0,3.47-.34,3.75-.29s.46-.06.61.24a54.91,54.91,0,0,1-1.17,6.23c-.2.85-4.75,11.94-5.09,12.29a14.17,14.17,0,0,0-1,2.36c.08.19,2.59,1.45,2.72,1.65s-2.37,7.69-2.5,8.15c0,.15-.08.35-.13.5a16.49,16.49,0,0,1-2.24-.39,22.8,22.8,0,0,1-2.6,1,26.45,26.45,0,0,1-4.69-2.13C205,176.17,205.79,172.29,205.82,171.66Z"/><path class="cls-2" d="M116,98.76s.05.08.07.13a.86.86,0,0,1,0,.16c0,.11,0,.22.06.32a3.76,3.76,0,0,1,0,.75c0,.24,0,.47-.07.7a6.42,6.42,0,0,0-.1.75c-.12.89-.05,1.84-.14,2.74a18.41,18.41,0,0,0,.18,1.94c0,.47-.26.33-.31.78,0,.25-.08.49-.12.75,0,.1,0,.21-.15.21s-.16-.13-.21-.22-.2-.29-.11-.52.56-2.62.6-3a4.56,4.56,0,0,0,0-.64c0-.21,0-.42,0-.64s0-.42,0-.63,0-.25,0-.37a1.08,1.08,0,0,0-.06-.48"/><path class="cls-3" d="M87.61,85l0,0c-2.43,0-2.53-3.42-4.47-4.72-2.29-1.51-3.4-2-4.71-4.31-1.62-2.86-4.87-4.94-4.35-8.06.43-2.49,1-5.36,3.26-7.09a19.41,19.41,0,0,1,6.21-3.35,6.8,6.8,0,0,1,1.53-.34.07.07,0,0,1,0-.06h.22c-3.19-2.09-11.25-2-11.25-2l-3.88,1.25L66.5,57,60.68,61.1,42.8,73.41,0,94.83S3.15,105.38,5.44,110c2.63,5.23,5.19,11.09,8.91,15.9,4.1,5.32,9.4,8,14.79,11.92,4.2,3,7.65,7.59,12.72,9.45,5.51-7.58,10.91-15.34,17-22.69,6.63-8,12-17.08,18-25.67,2.55-3.7,5.29-7,8.13-10.63a18.21,18.21,0,0,1,2.17-2.73l.7-.39A.57.57,0,0,0,87.61,85Z"/><path class="cls-3" d="M103.63,33.74a80.57,80.57,0,0,0-4.37-7.53c-.85.22-1.57.64-2.4.91-1.24.41-2.56.51-3.81.9a54,54,0,0,1-6,1.52c-1.34.24-2.6.58-3.91.93s-3,.59-4.42,1c-2.36.69-4.84,1.15-7.15,2-5.15,1.85-10.63,3-15.44,5.6-5.61,3-11.85,4.27-17.39,7.44-2.16,1.23-4.47,2.27-6.7,3.4-1.33.68-3.24,1.34-3.79,2.92-.83,2.38.92,2.84,2.79,3.39,2.12.64,4.3,1.21,6.44,1.82A69.06,69.06,0,0,0,49.2,60.51c4.33.41,8.42.51,12.66.83a68.1,68.1,0,0,1,8,.88,22.06,22.06,0,0,0,5.39.07,5.75,5.75,0,0,0,2.25-.65c.46-.24,1-.72,1.51-.74l5.49-5,.22.11c0-1-2-2.07-2.62-2.69-.8-.77-1.27-2-2.28-2.55s-2.38.11-3.52,0c-.57,0-1.09-.26-1.66-.31s-1.29,0-2-.07a46.43,46.43,0,0,0-7.56-.08,40.84,40.84,0,0,1-4.68.17,13.39,13.39,0,0,0-3.45.09c1.76-.2,3.42-1.35,5-2.06s2.91-.91,4.4-1.42c4.51-1.54,9.11-2.69,13.63-3.93l7.39-2c1.44-.39,2.91-.62,4.34-1a36.69,36.69,0,0,1,3.76-.89,29.66,29.66,0,0,0,5.35-1.67c.94-.34,2-.69,2.91-1,.22-.06.56-.19.91-.3A21.12,21.12,0,0,0,103.63,33.74Z"/><path class="cls-3" d="M109.46,36c-.11-.47-.58-1-.73-1.51s-.37-1.22-.53-1.79a9.81,9.81,0,0,0-2.08-4.15c-1.56-1.85-2.88-3.79-4.9-5.26-1.18-.87-2.49-.42-3.62.58-.65.58-.49.8-.19,1.61a10.57,10.57,0,0,0,.79,2.21.45.45,0,0,0-.11,0,79.47,79.47,0,0,1,4.23,7.54,21.91,21.91,0,0,1,1,2.74,3.19,3.19,0,0,1,1.19-.21c.26,2.33,1.72.92,2.92.24C108.41,37.49,109.79,37.41,109.46,36Z"/><path class="cls-4" d="M143.9,48.49C140,40.92,129,37.77,123.39,39.86a19.94,19.94,0,0,1-3.08.89s-9.74,6.25-11,7.44c-1.45,1.41-4.18,6.59-4.18,6.59s-1.18,3.87-1.46,5.47a10.46,10.46,0,0,0,1.32,7c2.1,3.3,8.78,6.94,13.5,7.08,2.14.06,13.43-4.63,15.27-5.08C135.1,68.92,150.91,62.25,143.9,48.49Z"/><path class="cls-5" d="M109.74,62.27c-.17,1.13-1.62,1.62-2.11,2.6s-.42,1.17.33,1.87,1.91,0,2.75-.53c1-.58,1.36,0,2.43,0a7.63,7.63,0,0,0-.91-3.09c-.78-1.07-2.34-1.19-2.71-.81"/><path class="cls-4" d="M117,26.34a15.83,15.83,0,0,0,.79-3.06c.19-1.56.25-3.12.45-4.66a77.07,77.07,0,0,0,.88-9.33c0-2,.14-4,0-6,0-.58,0-3.1-.84-3.28-1.73-.4-2.67,10.63-3,11.9-.46,1.88-.41,3.86-.89,5.74-.45,0-.87-.32-1.39-.27a2.27,2.27,0,0,0-1.53.92,1.37,1.37,0,0,0,.31,1.63c.41.4,1.07.5,1.45.91-.88-.15-1.86-.38-2.37.55-.41.75-.14,2.62,1,2.71a5.6,5.6,0,0,0-1.68-.11c-.48.1-.89.41-1.35.55a4.73,4.73,0,0,1-2,.09c-.21,0-.71-.21-.86,0a1,1,0,0,0-.09.64,7.6,7.6,0,0,0,.46,2,18.66,18.66,0,0,1,.56,2.2c.14.55.25,1.11.41,1.65a9.78,9.78,0,0,1,.25,1.5,4.66,4.66,0,0,0,.06.49c.12.61,1.1.39,1.55.27a7.54,7.54,0,0,0,1.72-.82,16.77,16.77,0,0,1,1.9-.61c.52-.21,1-.53,1.5-.72,1.34-.47,2-2.69,2.38-3.94C116.83,26.92,116.93,26.64,117,26.34Z"/><path class="cls-4" d="M119.13,42.21c0,.09,0,.12-.12.09a2.4,2.4,0,0,0-2.27-1.67A5.22,5.22,0,0,0,113.45,42c-1.45,1.22-3.43,2.26-3.59,4.29.43.29.8.76,1.31.74a3.35,3.35,0,0,0,1.07-.34l1.49-.53c1.51-.55,3.93-1,4.77-2.39"/><path class="cls-4" d="M137.79,67a.1.1,0,0,1,0,.14c.77.28.45,1.34,0,1.81a7.44,7.44,0,0,1-2.25,1.39,15.89,15.89,0,0,1-2.27,1.11,5.84,5.84,0,0,1-2.46-.09c-.76-.08-1.47,0-1.58-.88s1.23-.94,2-1.12a38.44,38.44,0,0,0,3.86-1c.86-.3,1.58-.88,2.43-1.12"/><path class="cls-3" d="M113.18,63.15c2.74.62,4.78,1.79,5.93,4.45.51,1.17-2.09,5.28,3.54,5.21-2,1.16-6.39,1.22-8,0-1.88-1.5-3.4-3.4-3.4-5.69a13.78,13.78,0,0,1,1-3.59,17.67,17.67,0,0,1-4.46-1.84c-1.46-1.12-1.62-8.67-.41-10.78.74,5-.43,2.49,3.71,3.44,2.24.52,2.85,6.41,2.18,8.14C113.2,62.36,113.18,63.15,113.18,63.15Z"/><path class="cls-3" d="M121,45c-.05,0-.05.06,0,0,.78-.47,1.76-.11,2.58-.06a6.36,6.36,0,0,1,2.71.39A4.26,4.26,0,0,1,128,46.81a1.18,1.18,0,0,1,.18,1,3.11,3.11,0,0,1-.46.82c.51-.35,1-.65,1.53-1a9.78,9.78,0,0,0,.72-.72c.18-.17.46-.42.46-.66-.19,0-.38.11-.57.13s-.31,0-.48,0a6.42,6.42,0,0,1-.61-2.31c-.26.18-.47.52-.76.62a5.65,5.65,0,0,0-2-1.14c-.55-.23-1.1-.47-1.68-.66-.14.14,0,.55.08.69a2.09,2.09,0,0,1-1,.36c-.34.07-.62.2-.94.25a5.58,5.58,0,0,0-1.91.84.39.39,0,0,1,.36,0"/><path class="cls-3" d="M133.23,56.92c0,.14.58-.25.73-.31a2.5,2.5,0,0,1,1-.21,2.54,2.54,0,0,1,1.66.29c-.23.15-.56.21-.8.37a4,4,0,0,1,2.49,2.33c-.26-.06-.72-.21-.94,0,0,.22,0,.43,0,.67a4.49,4.49,0,0,1-.06.89,4.53,4.53,0,0,1-.07,1,7.92,7.92,0,0,1-.37.71.67.67,0,0,0-.11-.56c-.19,0-.24.36-.35.51s-.3.39-.42.61a4.52,4.52,0,0,1-.94,1.24c-.75.69-1.27.87-1.14.74a4.81,4.81,0,0,0,1.76-3.5,10.33,10.33,0,0,0,0-1.48,4.17,4.17,0,0,0-.36-1.57,3,3,0,0,0-1.08-1.16c-.43-.24-.91,0-1.37,0,.16,0,.29-.09.36-.22"/><path class="cls-2" d="M116.26,50.06c-.16.64-.68,1.06-1.15.94a1,1,0,0,1-.89-1.34A1.8,1.8,0,0,1,115,48.6C115.29,48.44,116.42,49.45,116.26,50.06Z"/><path class="cls-2" d="M126.33,69a1.11,1.11,0,0,1-1.49,0,1.05,1.05,0,0,1,.15-1.62,1.9,1.9,0,0,1,1.3-.3C126.6,67.11,126.83,68.59,126.33,69Z"/><path class="cls-3" d="M119.7,42s-.17-.5-.32-.59a1.93,1.93,0,0,0-.71-.16,5.36,5.36,0,0,0-.7.1,1.39,1.39,0,0,0-.75.24c.14.11.44-.16.59-.2a1.48,1.48,0,0,1,.73.06,1.44,1.44,0,0,1,.52.46c.18.3,0,.42-.07.68.15-.09.7-.18.7-.4"/><path class="cls-3" d="M114.16,43.33c0,.08-.19.22-.25.31l-.25.35a2.33,2.33,0,0,0-.48.76c-.1.37.13.6.47.52a.54.54,0,0,0,.37-.19c.09-.11.16-.4-.1-.26.11.22-.27.41-.4.23s.1-.47.19-.65.55-.83.4-1a.27.27,0,0,0-.15.13"/><path class="cls-3" d="M136.9,67.87c.15,0,.47,0,.49.3s-.19.34-.28.45a2.46,2.46,0,0,1-.41.38c-.08.07-.18.09-.25.15a1.14,1.14,0,0,1-.27.23,3.35,3.35,0,0,0,.76-.69c.05-.07.23-.25.18-.36s-.32-.12-.42,0c.25-.07.15-.35.41-.36"/><path class="cls-3" d="M133.59,70.54c0,.17-1.21.26-1.43.23a.83.83,0,0,1-.35-.1.74.74,0,0,0-.22-.1c-.05,0-.24,0-.27,0-.2-.17.13-.16.2-.17s.24-.1.34-.11a.2.2,0,0,0-.07-.09,1.14,1.14,0,0,0-.6.25c.11.33.73.42,1,.38l.64-.07a1.82,1.82,0,0,0,.66-.08"/><path class="cls-3" d="M120.92,46.94c0,.21,1.69.45,2,.61a3.63,3.63,0,0,1,1.59,1.67,4.08,4.08,0,0,1,.16,2.14c0,.49.14,1.54-.25,1.91a18.22,18.22,0,0,0-.13-1.93,4,4,0,0,0-.76-1.89A3.71,3.71,0,0,0,122.3,48c-.46-.29-1-.55-1.38-.87.08,0,.12,0,.15.1a.27.27,0,0,1-.17.12"/><path class="cls-3" d="M128.18,58.45c1.28.65,2.68,1.29,3.29,2.73a3.74,3.74,0,0,1,0,3.6,7.46,7.46,0,0,0-.79-3.73,5.49,5.49,0,0,0-1-1.48c-.39-.4-.91-.61-1.34-1a.61.61,0,0,0,.11.38"/><path class="cls-3" d="M123.39,48.55l0,.1c-.35-.39-1,0-1,.43s.21,1.31.7,1.35a1.18,1.18,0,0,0,1-.88c0-.38-.34-1.23-.85-1.13"/><path class="cls-3" d="M131.16,61.49c0,.08.05.08,0,0-.27-.45-.43-.71-1-.8s-.72.24-.58.73c.09.32.48,1,.86,1a1.74,1.74,0,0,0,.63-.36c.21-.23.08-.37.16-.7a.91.91,0,0,0-.23,0"/><path class="cls-3" d="M117.56,57.57c.23.28,0,.89,0,1.24s.17.73.24,1.09A2.19,2.19,0,0,0,119,61.47a3.17,3.17,0,0,0,1.07.32c.08,0,.34-.06.4,0s0,.11.1.3c.15.42.27,1.3,1,1.17-.15-.46-.12-1.33-.56-1.55s-.66-.15-1-.33a4.93,4.93,0,0,1-.86-.6A3.74,3.74,0,0,1,118,59.06a3.57,3.57,0,0,1-.09-1.62.32.32,0,0,1,0,.3"/><path class="cls-3" d="M128.52,59.59c.06.16.44.29.6.45a6.33,6.33,0,0,1,.56.72,10.51,10.51,0,0,1,.65,1.07c.48.94,0,2.14-.47,3,.61-.31.33-2.25.18-2.73s-.31-.77-.46-1.15a8.6,8.6,0,0,1-.54-1"/><path class="cls-3" d="M124.32,52.51l.1,0A6.12,6.12,0,0,0,123,50a2.92,2.92,0,0,0-2.87-.73,2.57,2.57,0,0,1,1.23.23,4.83,4.83,0,0,1,1.26.81,5.54,5.54,0,0,1,1,1.16c.15.23.3.42.46.66s.31.35.41.55c.19-.11.13-.38,0-.55"/><path class="cls-2" d="M115.62,98.22c.34.12.56,1.16.6,1.52.07.65,0,1.36,0,2,0,1.59-.23,3.11-.21,4.72,0,1.42.15,4.22-1,1.16-.26-.66-1-7.48-1.46-8.14s-.91-.8-1.15-1.37"/><path class="cls-3" d="M94.74,61.92c-1.08,1.18-10.45-7.14-12-8.3-.54-.41-1.64-1.75-2.35-1.69a15.6,15.6,0,0,0-2.29,1.59c-1.14.68-4.32,2-4.81,3.28.83.56,2,.89,2.91,1.38A25.79,25.79,0,0,0,79,59.66c1.8.68,3.9,1.23,5.77,2.05,1.65.72,2.79,2.41,4.64,1.81a36.27,36.27,0,0,0,5.26-2,.86.86,0,0,0,0-.65"/><path class="cls-2" d="M80.43,59.76l1-.67c1-.7,2.06-1.35,3.14-2l1.69-.93-1.26-1c-.68.36-1.36.73-2,1.11-1.09.62-2.17,1.25-3.21,1.95-.4.28-.78.58-1.16.89l.24.1C79.36,59.4,79.89,59.58,80.43,59.76Z"/><path class="cls-2" d="M85.4,61.68c.89-.63,1.82-1.2,2.74-1.77l1.59-1-1.64-1.27-1.2.71c-1,.63-2.1,1.26-3.1,1.95l-.53.39c.46.17.91.34,1.35.53A6.76,6.76,0,0,1,85.4,61.68Z"/><path class="cls-2" d="M87.52,63a2.43,2.43,0,0,0,1.73.07,41.59,41.59,0,0,0,4.42-1.62,10.54,10.54,0,0,1-1.87-1Q89.66,61.69,87.52,63Z"/><path class="cls-2" d="M76.53,58c.32-.21.63-.43.93-.65a28.83,28.83,0,0,1,3-1.77c1-.55,2.07-1.07,3.1-1.59-.44-.37-.79-.65-1-.81s-.35-.31-.57-.52c-1,.52-2.07,1-3.08,1.55a24.62,24.62,0,0,0-2.8,1.67c-.57.39-1.14.78-1.73,1.13a16.52,16.52,0,0,1,1.64.72Z"/><path class="cls-1" d="M103.36,25.3a.29.29,0,0,0,.16,0,9.21,9.21,0,0,1,.83-1.14,10.39,10.39,0,0,1,.75-1.05c.14.12.19.35.28.5s.32.46.46.7c.33.53.62,1.11.9,1.68.68,1.4,1.28,2.84,2,4.25.43.9.8,1.88,1.24,2.71a4.5,4.5,0,0,1,.75,1.91,6,6,0,0,1-1.66.28c-.34,0-.56-.36-.73-.64-.62-1-1-2.17-1.53-3.21-.76-1.37-1.51-2.75-2.16-4.18a13.2,13.2,0,0,1-1-1.73"/><path class="cls-3" d="M97.74,26.39a1.75,1.75,0,0,1,.39.28c.15.11.3.24.44.36a4.47,4.47,0,0,1,.86.82c.39.55.67,1.15,1,1.72.16.25.27.53.43.78a3.31,3.31,0,0,1,.29.47,27.11,27.11,0,0,1,1.29,3.81A10.53,10.53,0,0,1,103,37a.78.78,0,0,1-.27.09,2.19,2.19,0,0,0-.55.28c-.2.11-.41.21-.62.31s-.64.38-1,.53a15.6,15.6,0,0,1-4.78,1.37c-1.62.12-3.22.49-4.83.66-.73.08-1.46.2-2.17.21,0-.33,0-.72,0-1.08a7.06,7.06,0,0,0-.37-2A17.63,17.63,0,0,0,86,32.8a11.23,11.23,0,0,0-1.75-2,4.71,4.71,0,0,0-.76-.57c-.12-.07-.58-.22-.58-.36a6.85,6.85,0,0,1,1-.22c.37-.06.69-.15,1-.21l3.56-.57a11.28,11.28,0,0,0,2.07-.55A16.35,16.35,0,0,1,92.32,28c.56-.15,1.16-.15,1.72-.28.34-.08.65-.23,1-.33s.71-.19,1.07-.27.42-.15.65-.19a4,4,0,0,0,.6-.13c.14-.05.63-.1.7-.19a.19.19,0,0,0-.13,0"/><path class="cls-2" d="M91.36,40.09c.88-.11,1.76-.27,2.65-.39,0-.29.08-.57.1-.85a14.45,14.45,0,0,0-1-6.24A8.76,8.76,0,0,0,91.59,30,14.94,14.94,0,0,0,90,28.34a10.09,10.09,0,0,1-1.64.41l-.36.06a10.1,10.1,0,0,1,1.14,1.31,10.71,10.71,0,0,1,1.69,3.6,19.78,19.78,0,0,1,.63,5.47C91.4,39.49,91.38,39.79,91.36,40.09Z"/><path class="cls-2" d="M99.87,38.34l.47-.2a1.92,1.92,0,0,0,.35-.18,21.37,21.37,0,0,0-.44-4.85,16.75,16.75,0,0,0-2.93-6.5,1,1,0,0,0-.24.05,5.61,5.61,0,0,1-.59.13l-.39.1a19.41,19.41,0,0,1,2.19,3.65A15.38,15.38,0,0,1,99.87,38.34Z"/><path class="cls-2" d="M95.2,33.48a15,15,0,0,1,.36,1.72,25.38,25.38,0,0,1,.37,4.27,9.34,9.34,0,0,0,1.4-.26A19,19,0,0,0,97.48,35a16.31,16.31,0,0,0-1.42-5.8,8.51,8.51,0,0,0-1.27-2h0c-.33.1-.64.24-1,.32-.57.14-1.17.14-1.73.29l-.33.07a11.34,11.34,0,0,1,2.61,3.54A11.43,11.43,0,0,1,95.2,33.48Z"/><path class="cls-2" d="M89.41,40.33l.73-.08a19.9,19.9,0,0,0-1.06-6.41,8.38,8.38,0,0,0-3.58-4.63l-.52.08a16.21,16.21,0,0,1,2.12,3.47A28.35,28.35,0,0,1,89.18,39C89.27,39.42,89.35,39.87,89.41,40.33Z"/><path class="cls-3" d="M118.36,201.47c-1,1.09-4.78-1.1-6.33-.73-.9.22-3.9.34-2.61,0a28.13,28.13,0,0,1,4.6-.18,46.79,46.79,0,0,1,6.56,1.22c1.89.62,2,1.89.52,2.27s-11.41-.36-10.64,1.3c1.23,0,2.32.69,3.6.76a18.83,18.83,0,0,1,5.09.8c1.12.47,4.51,4,3.3,3.5-3-1.36-6.71-1.39-7.76-1.51-1.34-.16-2.51-.78-4-.7-2.27.14-2.13.81-.78,1.63,1.77,1.08,2.88.69,3.58,2a21.6,21.6,0,0,1,1.25,3.46c-2.2.56-4.32-1.29-6.3-1.89-1.65-.51-2.94-1.91-4.73-2.24-2-.37-3.57,1.46-4.32,2.68-1,1.61-1,2.56-3.86,2.76-1.37-2.27,1.82-5.07.63-7.28a3.17,3.17,0,0,0-1.63-1.17c-2.14-2-3.25-5.15.14-6.87,1.67-.85,1.37-2.85,3.54-3.21.33,0,.66-.08,1-.12a23.51,23.51,0,0,0,2.65,1.26,6.5,6.5,0,0,0,4.14-.5c2.83-1,8.21.39,11.5.35C119.25,199,119.79,199.93,118.36,201.47Z"/><path class="cls-3" d="M88.22,195.56c.45-8.56,1.12-17.22,2-25.57,1.9-6.26,5.52-12.28,9.66-17.81,1.3-1.74,2.68-3.46,4.14-5.14,3.23,7.4.59,17.7.18,25.66a124.91,124.91,0,0,1-1.61,15.87,9,9,0,0,0,1,5.8c1.2,2.71.16,2.9-2.46,4.77-3.19,2.28-6.2,6.35-10.52,7.26-3.87.81-2.89-1.49-2.74-4C88,200.1,88.11,197.84,88.22,195.56Z"/><path class="cls-1" d="M91.67,209c.89-.23,2.28-1.64,3.17-2.13,1.27-.71,2.46-1.51,3.67-2.25,1.62-1,4.39-3.9,6.44-4.18.11-.67-1.51-1.8-2.36-2-2.5,1.5-4.8,3.16-7.47,4.53s-3.72,2.78-3.11,5.17c-.21-.07-.42-.13-.64-.18"/><path class="cls-3" d="M87.62,201.1a2.09,2.09,0,0,1,.61-.14,3,3,0,0,0,.89-.24C90,200.29,91,200,92,199.58c.66-.26,1.35-.46,2-.71a16.22,16.22,0,0,0,2-1c1.19-.64,2.24-1.38,3.37-2.08a15.57,15.57,0,0,0,3.06-2.29c.28-.31.77-.64.85-1a9.72,9.72,0,0,0,.09-1.79,21.89,21.89,0,0,1,.2-2.44c.14-.74,0-1.5.17-2.23s.13-1.25.27-1.88a13.68,13.68,0,0,0,.27-1.7c0-.3,0-.6,0-.9a1.58,1.58,0,0,0,.08-.57,3.33,3.33,0,0,1-.56.34c-.28.09-.58.15-.86.26-1.07.4-2.12.88-3.23,1.22-.69.21-1.39.45-2.1.62a18,18,0,0,1-2.08.31,13.43,13.43,0,0,1-1.41.13,5.42,5.42,0,0,1-.9,0,7.79,7.79,0,0,1-1.61-.53c-.46-.19-.89-.4-1.31-.62a3.37,3.37,0,0,1-.94-.76,4.42,4.42,0,0,1-.39-.47,2.19,2.19,0,0,0-.3-.47,3.71,3.71,0,0,0,0,.66,6.14,6.14,0,0,0,0,1.05c0,.32,0,.65,0,1a4.7,4.7,0,0,1-.07,1.3c-.18.76-.25,1.57-.38,2.34s-.14,1.53-.2,2.26-.27,1.68-.34,2.51a24.93,24.93,0,0,1-.27,2.86c-.29,1.51-.79,3.13-.17,4.61a4.83,4.83,0,0,1,.27,1.24.19.19,0,0,0,.13,0"/><path class="cls-2" d="M103.46,185.2a36.11,36.11,0,0,1-5.22,1.11,31.16,31.16,0,0,1-3.74.37,18.68,18.68,0,0,1-4.17-.26,7,7,0,0,1-1.62-.52s0,0,0,0a5.56,5.56,0,0,0,.07-1.29c0-.21,0-.43,0-.65a4,4,0,0,0,.4.27,14,14,0,0,0,2.49,1,17.51,17.51,0,0,0,8.92-.05,20.55,20.55,0,0,0,3.62-1.22c0,.37-.12.75-.2,1.11Q103.73,185.13,103.46,185.2Z"/><path class="cls-2" d="M87.17,197.67c.1-.62.24-1.23.36-1.83,0-.11,0-.22,0-.32a24.62,24.62,0,0,1,3.45-.6,37.07,37.07,0,0,0,4.48-.76,78.93,78.93,0,0,0,7.86-2.48c0,.25,0,.51,0,.77C98.21,194.61,92.56,195.93,87.17,197.67Z"/><path class="cls-2" d="M94.45,192.5c-1.82.23-3.66.42-5.5.52l-1.16,0V193c0-.58.16-1.16.25-1.74,1.4.07,2.79.24,4.19.36.83.07,1.67.12,2.51.11s1.6-.09,2.39-.17c2.12-.23,4.21-.56,6.29-.93,0,.25,0,.51,0,.76C100.39,191.69,97.42,192.12,94.45,192.5Z"/><path class="cls-2" d="M103.23,188.92a31.11,31.11,0,0,1-5.73.77c-2.08.12-4.17.23-6.26.17a25.75,25.75,0,0,1-3-.21,13,13,0,0,1,.15-1.43c0-.33.1-.67.14-1a16.08,16.08,0,0,0,3.36,1.17,22.12,22.12,0,0,0,5.4.47,17.74,17.74,0,0,0,4.89-.79,14.87,14.87,0,0,0,1.54-.59c0,.44,0,.89-.06,1.33C103.48,188.84,103.36,188.89,103.23,188.92Z"/><path class="cls-3" d="M145.84,62.31c.6-1.9,2.15-3.34,2.86-5.17-1-.69-.39-.94-.23-2.14a9.8,9.8,0,0,0-.29-3.1,16.91,16.91,0,0,0-2.1-5.77,16.43,16.43,0,0,0-3.61-4.8C141.05,40.09,139,38.1,137,38.1c.44-1.53,2.36-2.32,2.87-4s-.22-3.43-.73-5a18.62,18.62,0,0,0-2.31-5,45.37,45.37,0,0,1-3-4.54A9,9,0,0,1,135.21,9.6c2.16-2.63,6.48-4.13,9.38-2,.5-1.6-2.43-3.34-3.54-3.89-2.08-1-5.05-.36-7.15.67-2.33,1.14-3.88,3.78-5.42,5.73A9.75,9.75,0,0,0,126,16.33c.1,4.74,0,9,3.94,12.1,1.44,1.13,3.35,1.87,4.45,3.39,1.39,1.9,1.33,3.36,1.49,5.67-2-1.55-6.19-1.06-8.42-.36a31.61,31.61,0,0,0-4,2,7.35,7.35,0,0,0-3.11,2l.83.15c.93-.16,1.84-.73,2.81-1a11.42,11.42,0,0,1,2.67-.26,15.68,15.68,0,0,1,5.8.56,16.2,16.2,0,0,1,7.68,6.4,16.91,16.91,0,0,1,2.12,10.46,31.72,31.72,0,0,1-1.32,5,7.76,7.76,0,0,1-2.21,4,7.1,7.1,0,0,0,2.78-.65,4.54,4.54,0,0,0,2.08-1.11A9.06,9.06,0,0,0,145.73,61,9.29,9.29,0,0,0,145.84,62.31Z"/><path class="cls-3" d="M146,61.54c.29.51.46,1.09.77,1.59A5.74,5.74,0,0,0,148,64.54a9.73,9.73,0,0,0,3,1.81,12.67,12.67,0,0,0,7.72-.28,8.2,8.2,0,0,0,5.08-6.69,10.82,10.82,0,0,0,.07-4.05,13.64,13.64,0,0,1-.49-3.81,6.57,6.57,0,0,1,1.4-3.91,4.06,4.06,0,0,1,2-1A4.6,4.6,0,0,1,169,47c.31-.85-1.8-1.6-2.36-1.69a7.05,7.05,0,0,0-3.58.42c-2.25,1-2.94,3.79-3.09,6a16.16,16.16,0,0,1-2,6.76c-1.37,2.41-4.2,1.19-5.94,0a3.66,3.66,0,0,0-1.43-.65,5.88,5.88,0,0,0-2.05-.4"/><path class="cls-3" d="M113.87,81a3.31,3.31,0,0,0,.6.65,9.51,9.51,0,0,0,1.12,1,9.22,9.22,0,0,1,1.22,1.2,9,9,0,0,0,2.06,1.57A17.71,17.71,0,0,1,121,86.93c.47.4,1,.77,1.43,1.19a2.63,2.63,0,0,1,.52.59,2.14,2.14,0,0,1,.14.72,5,5,0,0,1-.09,2.21,8,8,0,0,1-.76,1.45,13.13,13.13,0,0,1-1.67,2.18c-.9,1-1.89,1.88-2.81,2.83s-2.11,2.11-3.19,3.15c-.73.7-1.47,1.42-2.24,2.09s-.41,1.9-1,2.49-2,.31-2.28,1c-.29-.19-.28-1.12-.35-1.44a19.59,19.59,0,0,1-.49-3.82c0-2.71-.11-5.43-.19-8.13-.06-2.06-.35-4.09-.35-6.15,0-.59,0-1.22,0-1.82a2.93,2.93,0,0,1,.12-.72,2.85,2.85,0,0,0,.25-.69l1.4-2.43,2.64-1Z"/><path class="cls-3" d="M107.21,80.79c1-1,8.87,6.68,10.16,7.76.46.38,1.37,1.61,2,1.58a13.81,13.81,0,0,0,2-1.32c1-.56,3.85-1.66,4.33-2.73-.71-.53-1.73-.86-2.5-1.33a24.35,24.35,0,0,0-2.38-1.41c-1.54-.66-3.36-1.22-5-2-1.41-.7-2.35-2.23-4-1.76a31.56,31.56,0,0,0-4.66,1.6.75.75,0,0,0-.07.57"/><path class="cls-2" d="M119.63,83.2l-.9.56a31.61,31.61,0,0,1-2.82,1.62l-1.51.76,1.07,1,1.81-.91c1-.51,1.94-1,2.87-1.61.37-.23.71-.48,1-.74l-.21-.1C120.56,83.56,120.1,83.38,119.63,83.2Z"/><path class="cls-2" d="M115.36,81.33c-.8.52-1.63,1-2.46,1.47-.47.27-.94.54-1.42.8.46.38.92.78,1.39,1.18.36-.19.72-.38,1.07-.58.94-.52,1.88-1,2.78-1.62l.47-.32L116,81.74A6.68,6.68,0,0,1,115.36,81.33Z"/><path class="cls-2" d="M113.56,80.1A2.17,2.17,0,0,0,112,80a38.17,38.17,0,0,0-3.92,1.28,8.85,8.85,0,0,1,1.6,1Q111.64,81.18,113.56,80.1Z"/><path class="cls-2" d="M123,84.91c-.28.17-.56.36-.84.54a23.45,23.45,0,0,1-2.7,1.46c-.92.44-1.85.87-2.77,1.29.38.35.67.61.84.75s.3.29.48.48c.92-.42,1.84-.82,2.75-1.25a24.35,24.35,0,0,0,2.5-1.38c.51-.33,1-.66,1.55-.94-.48-.23-1-.45-1.41-.7Z"/><path class="cls-2" d="M115,107.49c.35.4.32,1.11.76,1.52a2.7,2.7,0,0,0,1.82.43,12.88,12.88,0,0,0,3.59-1.76l.73-4.34s-2.47.06-2.57.11-.42.48-.54.69a3.68,3.68,0,0,1-3,1.92h0"/><path class="cls-2" d="M92,77.2c-1.62,1.6-1.56,3.23-2,5.28-.87,3.82-1.46,9.39.19,13.11a9.46,9.46,0,0,0,4.39,4.53c2.3,1.29,4.23,1.27,6.82,1.24a20.74,20.74,0,0,0,6.27-1.44c1.92-.62,4.49-.79,6.11.48.78.6,1.39,1.42,2.1,2.07-.12-1.06.39-2.14.22-3.31-.14-1-.54-1.22-1.12-2-1-1.39-3.94-2.09-5.77-2.28-4.28-.42-7.8,1.31-11.88.18-1.93-.54-3.56-3.67-3.42-5.69.13-1.74,2.17-4,3.19-5.29.77-1,2.59-2.79,2.59-2.79S99,75.47,99,74.91C98,74.55,93.51,75.72,92,77.2Z"/></g></g></svg>