<svg xmlns="http://www.w3.org/2000/svg" viewBox="0 0 269.1 269.6"><defs><style>.cls-1{fill:#007293;}.cls-2{fill:#e30613;}.cls-3{fill:#1d1d1b;}.cls-4{fill:#fff;}</style></defs><g id="Ebene_2" data-name="Ebene 2"><g id="Ebene_1-2" data-name="Ebene 1"><path class="cls-1" d="M16.38,106.71a6,6,0,0,1,.06.85c0,.44.08.89.06,1.34,0,.27-.09.53-.13.79a6.55,6.55,0,0,0,.17,2.49,7.09,7.09,0,0,0,.58,1.81,2.92,2.92,0,0,0,.56.78c.24.24.44.52.67.77A21.16,21.16,0,0,0,20,117.21c.73.63,1.55,1.1,2.31,1.67.33.23.65.47,1,.69a49.39,49.39,0,0,0,4.59,2.85,48.07,48.07,0,0,0,4.85,2.34,42.34,42.34,0,0,0,5,1.7c.81.22,1.63.41,2.45.56,1.79.34,3.78.28,5.13-1,.69-.62,3.12-4.08,2.51-5.21-.87-1.62-3.9,1.73-5,1.84-1.72.18-4.48-1.22-5.75-2.21a4.18,4.18,0,0,1-1.07-.91c1-.12,2.65.32,3.28-.61,1-1.43-1.12-1.76-2.12-2.28-2.9-1.52-6.18-2.09-9.35-3.15-.84-.28-1.68-.52-2.52-.8a23.4,23.4,0,0,1-2.43-1,3.18,3.18,0,0,1-.33-.1c-.15-.08-.23-.26-.36-.37s-.35-.26-.52-.39a5.27,5.27,0,0,1-.56-.5l-1-.86c-.32-.27-.61-.57-.92-.85s-.72-.64-1.07-1a12.64,12.64,0,0,1-.94-.85,6.27,6.27,0,0,1-.81-1s0,.13,0,.2S16.35,106.49,16.38,106.71Z"/><path class="cls-1" d="M80.17,82.92c-4.92-6.07-3.39-16.53.51-20.5a16.63,16.63,0,0,0,1.91-2.25s9-5.85,10.46-6.45c1.73-.68,7.15-1,7.15-1s3.71.44,5.16.81a9.73,9.73,0,0,1,5.42,3.74c2,3,2.52,10,.84,14-.77,1.83-9,9.58-10.09,10.95C100.77,83.19,89.13,94,80.17,82.92Z"/><path class="cls-1" d="M84.27,59.71c.09,0,.13,0,.13-.06a2.19,2.19,0,0,1-.55-2.53,4.89,4.89,0,0,1,2.39-2.27c1.59-.77,3.22-2,5-1.41.08.48.33,1,.12,1.38a3,3,0,0,1-.69.77q-.5.54-1,1c-1,1.06-2.32,2.94-3.82,3.13"/><path class="cls-2" d="M175.1,264.56c1.53,1,3.26,1.58,4.71,2.69a6.83,6.83,0,0,0,3.6,1.39,33.78,33.78,0,0,0,5.51,0c6.37,0,12.79-.24,19.15,0,2.86.11,5.84.14,8.64.53a32.3,32.3,0,0,0,7,.36c2.2-.17,6.43-1.09,7-3.66-1.3,0-2.68-.27-4-.39l-4.46-.35c-5-.42-9.91-.88-14.9-1.58-5.63-.8-11.28-1.8-16.85-3-3.83-.82-7.6-2.3-11.46-2.66a15,15,0,0,0-.37-2.44c-.18-1.93-.15-2.43-2.15-2.91a24.62,24.62,0,0,0-4.78-.5c-1.09,0-2.11-.28-3.2-.27-.82,0-2.48-.38-3,.37s.11,2.73.13,3.54a42.74,42.74,0,0,1-.4,7.83,12.2,12.2,0,0,1,2.08.56,15.27,15.27,0,0,1,2.09.14c.18-.93.74-1.67.94-2.59C171.93,261.82,173.77,263.72,175.1,264.56Z"/><path class="cls-2" d="M107.66,219.56c-.53.85,0,1.69.46,2.43a16.87,16.87,0,0,1,1.26,3c.69,2.09,2.45,4.31,2.7,6.49-1.21.41-2.45.69-3.66,1.11-1.4.48-.92,1.49-.6,2.73.22.82.3,1.68.5,2.52a12.73,12.73,0,0,1,.19,2.68,36.92,36.92,0,0,0,.32,4.94c.78,4.07,1.55,7.82,1.44,11.57-.08,2.75.79,3.54-1.83,5.6-3.91,3.07-10.33,3.19-15,4-5,.82-10.14.83-15.23,1.16-3.07.19-10,.95-12.24-.46,5-1.3,10.09-2.27,14.89-4.18,4.09-1.63,9.39-2,12.42-5.44,2.43-2.75,3.87-6.92,4.49-10.47.76-4.33-1.09-7.06-1.48-11.17a14,14,0,0,1,.52-5.27c.19-.74.75-1.72.55-2.45s-1.07-1.46-1.25-2.37c-.88.31-2,.8-2.6-.09-.33-.43-.3-1.21-.48-1.72a8.23,8.23,0,0,1-.54-1.54,67.15,67.15,0,0,1,8.6-2.85c2-.43,5.06-1.35,7-.39"/><path class="cls-3" d="M107.8,235.87c.17-1.14-3.5-1.68-4.54-1.11.6.26.7.77.89,1.37,1.37-.23,2.95-.49,3.93.78-.09-.29-.16-.59-.24-.88"/><path class="cls-3" d="M108.35,241.88c.36-.77-3.08-1.27-3.81-1,.17.47.6.95.34,1.48,1.11-.73,2.75-.12,3.6.65a1,1,0,0,0,.19-.57"/><path class="cls-3" d="M108.49,245.66c-.75-.87-3-.67-4-.26a10.07,10.07,0,0,0,.31,1.2c1.4-.25,2.79-.95,3.85.33.37-.35.62-1.23.08-1.5"/><path class="cls-3" d="M110.2,251.54c-.58-.17-1-.86-1.65-1.1a3.31,3.31,0,0,0-2.51.05,3.58,3.58,0,0,1,.18,1.39c.66-.07.86-.43,1.59-.35a2.23,2.23,0,0,1,1.89,1.28.93.93,0,0,0,.44-.12,5.74,5.74,0,0,1-.18-1.41"/><path class="cls-3" d="M110.07,257.2c-.58-.9-2.44-2.79-4.23-1.87.29.45.78,1.55.51,2.1,1.61-1.1,2.89-.29,4,.81a1.55,1.55,0,0,0-.12-.92"/><path class="cls-3" d="M109.68,261.42c-.58-.43-.49-1.43-1-2a2.21,2.21,0,0,0-1.86-.68,2.66,2.66,0,0,1-.34,1.71c1.71-.88,2.35.61,2.93,1.74a7.84,7.84,0,0,0,.27-.77"/><path class="cls-3" d="M107.53,232.94a4.8,4.8,0,0,0,1.56-3.2,3.9,3.9,0,0,0-1.65-2.89c-1.42-.61-1.94.39-1.73,1.57a2.64,2.64,0,0,0,2.1,2.47c-2.25-.54-6-4.73-1.75-5.39,1.79-.28,2.58,1,3.06,2.41.35,1,.81,3.64-.6,4.15.78.83,7.73,3.15,4.47,4.77a3.12,3.12,0,0,1-3-.57,3.42,3.42,0,0,1-.73-3.23c-1.5-.12-.75,3.23-.33,3.9,1.3,2.11,3.68,1.93,5.45.38s.77-2.52-.81-3.56a6.92,6.92,0,0,0-4-1.48c-.7.06-1.68.65-2.26.39"/><path class="cls-3" d="M213.28,264.05c-1.1.78-.93,2.12-2.41,1.9.52-1.07,1.53-2.5,2.57-2.22"/><path class="cls-3" d="M209.41,263.57c-1.2.51-1.68,2.31-3,1.73.31-.62,2-2.47,2.73-1.73"/><path class="cls-3" d="M204.25,263.08a5.25,5.25,0,0,0-2.26,2.68c-.35-.12-.74-.18-1.11-.29a5.5,5.5,0,0,1,3.05-2.54"/><path class="cls-3" d="M198,261.8c-.07,1-2.23,1.43-2.41,2.83a1.23,1.23,0,0,0-1.28-.61c.35-.66,3.07-3.3,3.86-2.55"/><path class="cls-3" d="M192.48,261c-.71.69-1.82,1.07-1.8,2.23-.5,0-1-.14-1.56-.16.08-.73,2.3-2.88,3-2.07"/><path class="cls-3" d="M188.45,260.35a2.76,2.76,0,0,0-1.64,2.39c-.52-.19-1.15-.3-1.74-.49a3.92,3.92,0,0,1,4.34-2.06"/><path class="cls-3" d="M183.61,259.06c-1,.79-1.72,1.07-2.13,2.41-.39-.53-.93-.47-1.56-.51,0-.92,2.79-1.83,3.53-1.74"/><path class="cls-3" d="M180.87,258.1c-.76,1-2.37.84-2.9,2.18-.19-.51-.76-.6-1.12-.86a10.49,10.49,0,0,1,1.6-1,8.9,8.9,0,0,1,2.1,0"/><path class="cls-3" d="M178.93,256.65c-1,.79-1.59-1.69-2-2.25-.81-1.22-3.13-1.72-4.16-.49s-.32,3.18,1,4c.79.5,3.23,1.12,3.83.07-1.12-.25-2,.47-3.06-.31-.93-.66-1.48-1.42-.48-2.3,2.1-1.82,2.75,1.72,4.52,2.08a8.69,8.69,0,0,1,2.45-3.72c1.32-1.16,3.91-2.33,4.8-.16.68,1.68-1.12,4.1-2.67,4.74-1.84.77-2.17-.53-3.43-1.59-.21,1.39,1.92.92,2.56.55a3.14,3.14,0,0,0,1.65-2.86c-.29-2.54-4.43,1.73-4.87,2.87a.84.84,0,0,1-.78-.13"/><path class="cls-2" d="M102.74,62.75a3.5,3.5,0,0,1,2.43,2.47c.1.79.11,2.72-.79,3.08a5,5,0,0,0-.93-1.55c-.24-.22-.48-.22-.63-.5s0-.79-.13-1-1-.25-1.19-.3c-.07-.53,0-1.1-.14-1.61s-.64-.7-.61-1.1a2.6,2.6,0,0,1,2.7.6c.46.37.83.71.2,1a1.75,1.75,0,0,1-1.4.08c-.59-.38.17-1-.25-1.56.54.14,1.07.31,1.61.45"/><path class="cls-1" d="M107.27,55.22c3.6,1.13,6.14-2.26,7.5-4.94,1.35,1.85,2.61,3.06,3.34,5.39.79,2.53,1.24,5.11,2,7.63-3.51-.52-5.66-.93-9,.34-.31-2.35-1.95-6.71-4-7.93a4.07,4.07,0,0,0,.42,1"/><path class="cls-2" d="M115.59,51.09c2.21-4.44,7.69-7.27,11.67-9.8,5.86-3.73,13.44-8.48,20.52-9,6.37-.46,13,1.67,19.18,3.09,8.79,2,18.38,6.18,25.28,12.24C200.51,54.88,206,65.46,208.51,76c.83,3.5,1.23,6.77,1.8,10.14,1.78,10.6-.55,19.4-5.07,28.76a125.57,125.57,0,0,1-12,20.08c-1.87,2.52-3.86,4.95-5.89,7.32-1.14,1.33-2.39,3.54-4.18,3.79-2.22.32-5.73-.43-7.89-1a113.63,113.63,0,0,0-11.61-2.11c-3.46-.53-6.37-.65-9.57-2a36.06,36.06,0,0,1-6.23-3.31c-1.47-1-1.5-1.45-1.51-3.15l-6.73,14.2c-.52-.31-1.05-.64-1.58-.94-.79-4.19-2.08-9.42-.69-13.32,1.5-4.19,6-7,9.52-9.39,3.72-2.49,7.35-5.2,11.26-7.36a67.6,67.6,0,0,0,7.62-4.47c2.51-1.86,5-2.44,7-5a29.27,29.27,0,0,0,5-9.46c1.33-4.51,2.5-9.44,1.64-14.28A44.79,44.79,0,0,0,171,66.32a41,41,0,0,0-6.19-5.64c-2.5-2-4.46-3.86-7.56-5.09C148.76,52.26,141,53.74,133,58.11a40.9,40.9,0,0,0-4,2.45c-1,.71-1.17,1.56-1.91,2.19-1.4,1.18-5.18.9-6.69,0C117.12,60.88,113.9,54.48,115.59,51.09Z"/><path class="cls-3" d="M155.1,126.28c-4.28.29-6.58,2.2-9.83,4.75-6.73,5.27-10.32,13.13-5.79,21.05A35.84,35.84,0,0,0,148,162c2.9,2.48,6.17,6.17,9.94,7,11.11,2.51,25.09,1.26,36.38.48,7.09-.49,14.33-1.09,21.39-1.08,3.11,0,10.3-1.38,11.59,2.33-7.17,5.48-15.91,9-24.2,12.32-11.31,4.56-22.78,9.34-34.38,13.36-11.9,4.11-24.44,7.88-36,12.84-8.62,3.7-17.4,9.47-26.44,11.1,0,1.53,2.13,5.1,3,6.59s3.32,3,3.36,4.91c18-7.43,37.42-12.37,55.75-20.31,24.51-10.62,50.14-17.94,74-29.7,8.57-4.22,17.2-9.86,23.14-17.45A14.72,14.72,0,0,0,269,153.32c-.48-6-8.23-6.31-13.14-7.29-19.32-3.88-39.11-5.87-58.62-8.63-5.55-.78-11.1-1.65-16.61-2.77-2.32-.47-4.35-.6-6.64-1.57C172.57,132.43,164.33,125.66,155.1,126.28Z"/><path class="cls-3" d="M140.08,131.13c-14.39,10.12-33.85,10.92-51.12,12.14-9.09.63-18.06.82-27.08,1.94-4.89.61-12.08-.71-13,5.34-.93,6.47,1.85,15.09,5.72,19.94a41.74,41.74,0,0,0,10.79,9c7.3,4.52,15.47,8.8,23.15,12.72,11.57,5.92,21.63,14,32.34,21.32,10.2,7,20.34,14.65,28.84,23.75a98,98,0,0,0,7.81,7.58c1,.85,2.2,1.47,3.14,2.35s1.81,2.31,2.94,3.29a6.14,6.14,0,0,1,2.08,2.43c2.07.21,4-.3,6.06-.15,1.71.12,4.26.59,5.47-.89-.59-1.83-2.79-2.89-4.21-4a64.8,64.8,0,0,1-5.08-4.71c-7.7-7.72-15.6-15.43-23.49-23.06-6-5.82-12.89-10.85-19.41-16.07-6.3-5-13.56-9-20-13.88a96.75,96.75,0,0,0-11.43-7.36c-4.09-2.31-8-5-11.91-7.61s-8.6-5.18-12.3-8.26c1.89-1.84,9.56.92,12.1,1.06,5.33.28,10.56.48,15.89.48,11.58,0,23.33.48,34.84-.38,4.83-.35,9.86.27,14.55-.48a40.24,40.24,0,0,0,10.65-3.15c3.85-1.7,6.16-2.89,5.85-7.62a20.27,20.27,0,0,0-1-5.77c-1.95-4.74-4.84-4.78-8.67-7.31"/><path class="cls-3" d="M83.2,58.86c-.27.44-1.39.49-3,1.39a15,15,0,0,0-6.33,6.22c-2,3.72-3.69,9.63-2.17,13.68C58.86,79.64,58.54,94,67.1,99.4c3.4,2.14,9.5,3.14,13.21,1.12,3-1.65,5.73-7.85,3-9.69,6.57.1,7.89-.89,10.32-2.18,3.15-1.68,6.41-3.75,7.82-7-14.53,5.25-31.08-13.17-17-22C84.61,59.93,83.2,58.86,83.2,58.86Z"/><path class="cls-3" d="M45.54,121.13c-.06,0-.62.31-1,.46a6.36,6.36,0,0,1-1.73.37c-1.23.17-2.37.71-3.6.49-3.08-.58-5.42-2.51-7.53-4.74a10.16,10.16,0,0,1-2.26-8.51,8.81,8.81,0,0,1,1.28-3.31c.53-.88,1.61-1.74,2-2.67.32-.71-.45-1.38-1-2.06a17.69,17.69,0,0,1-1.64-2.67,16.81,16.81,0,0,1-2.08-5.4c1,.36,1.69,1.5,2.36,2.26.88,1,1.78,1.89,2.71,2.86,2.71,2.79,5.25,5.76,8.07,8.42a37.72,37.72,0,0,0,9.05,6.21c1.35.66,2.79,1.23,4.2,1.78s2.86.84,4.19,1.39c1.14.47.5,1-.44,1.53a6.58,6.58,0,0,1-3.11.46c-2.31,0-4.55,0-6.81.16.06,1.2-1.16,2.36-2,3.08a3.36,3.36,0,0,1-1.55.9c-.83.13-1.38-.07-2.15.42"/><path class="cls-3" d="M120.59,42c.26.16.27.26,0,.32a65.08,65.08,0,0,1-11.34-1.73c-7.44-1.62-14.87-3.09-22.37-4.47C71.51,33.28,54.13,34.4,39.41,40c-12.1,4.59-25.88,12.14-33,23.49C1.06,72-2.07,84.64,1.57,94.31a44.6,44.6,0,0,0,8.47,14A34,34,0,0,0,16.22,114c2.17,1.5,3.22,2.15,5,0-1.81-.59-2.67-4.12-3.48-5.72-1.35-2.67-2.58-5.5-3.69-8.3-2.2-5.6-4.72-11.13-4.7-17.27,0-14.78,15.57-25.83,28-31.08,9.31-3.93,19.19-7.86,29.32-8.82,9.34-.9,17.51,1.65,26.53,3.7,6.8,1.54,14,4,20.82,4.4,4.63.29,9.74-4.17,8.33-8.93"/><path class="cls-3" d="M174.06,35.53c-.82-.81-4.3-1.09-5.46-1.35a76.08,76.08,0,0,0-11.41-1.47c-7.47-.63-14.45-1.45-21.6,1.19-6.21,2.29-13.21,6-18.09,10.72-1.63,1.58-2.47,5.51-5.33,5.69.09.56,1.24,1.22,1.69,1.61a3.72,3.72,0,0,1,1.23,1.84,12.27,12.27,0,0,0,1.59-1.69c.77-.75,1.52-1.47,2.26-2.21a23.56,23.56,0,0,1,3.47-3,12.05,12.05,0,0,1,3.29-1.17,67,67,0,0,1,8.21-2c.07-.06.11-.16.22-.19a82.76,82.76,0,0,1,23.6-3.2c5.24,0,10.92.3,15.6,2.9a21.23,21.23,0,0,0,.79-3.8C174.24,38.21,175.18,36.65,174.06,35.53Z"/><path class="cls-3" d="M119.55,62.41c.3,1.36.89,3.17,1.39,4.73,1.75,5.34,1.61,11.3,1.74,16.85.12,4.74.31,9.53.68,14.24.27,3.48.13,7.74,1.06,11.08,1.38,5,4,1.68,5.51-1.17a151.6,151.6,0,0,0,9.35-19.44c4.3-11.6,7.84-23.28,12.49-34.72a139.33,139.33,0,0,0,8.77-29.77c.41-2.44,1.34-5.8.29-8.29-2.89-.31-6.06,1.06-8.92,1.75-.08,2.36-.91,3.83-1.94,6a88.27,88.27,0,0,0-4.11,10.22c-2.57,7.7-4.57,15.56-7.22,23.2a201.75,201.75,0,0,0-8.3,31.62c-.72-.92-.65-4.27-.72-5.45-.12-1.89-.14-3.75-.34-5.62-.35-3.53-.76-7.41-1.05-11-.21-2.67.21-7.43-2.69-8.79s-6.73.34-6.33,3.93"/><path class="cls-3" d="M123.92,56l-1.21.93c-1.95,1.53-4.74,4-1.59,6.13,2.16,1.45,6.3,0,8.11-1.2,5-3.22,8.58-6.52,14.46-8a16.83,16.83,0,0,1,9.14.29,20.56,20.56,0,0,1,4.27,2.08c1,.62,2,1.95,3,2.45,1.72.83,2-.17,3.65-1.67a52.54,52.54,0,0,0,4.71-4.61c.3-.35.57-.72.85-1.08-3.94-3.21-9.7-5-14.23-5.69a67.41,67.41,0,0,0-21,.12,48.48,48.48,0,0,1-3.44,4.46c-1.93,2-4.25,3.52-6.29,5.41a23.41,23.41,0,0,1-4.11,3,16.21,16.21,0,0,1-3.73,1.85c1.23.4,2.09,2.07,2.75,3s1.84,2.51,2,3.64"/><path class="cls-2" d="M139.45,130.82a23.62,23.62,0,0,1,2.31,6.15c.36,1.91.24,4.65,1.06,6.12.58-3.9.62-7.83,3.25-11.11,2.85-3.53,6.53-5.26,10.54-6.93a25.07,25.07,0,0,0-8.7,1.17c-2,.72-5.88,1.34-6.54,3.83"/><path class="cls-4" d="M107.43,219.86a12.09,12.09,0,0,0,4.76-1.24c2.16-.81,4.28-1.68,6.5-2.46,2.37-.83,4.54-2,6.9-2.78,1.68-.59,3.09-1.43,4.74-2.11s3.4-1.52,5.1-2.29c1.31-.58,3.57-1.06,4.58-2,.84-.75.27-2.36,1.27-2.95.78-.46,1,.43,1.72.28,1-.23.48-1.07.56-1.71.66-.11.76.62,1.37.68,1.1.14,1.06-1,1.09-1.73,1.32-.54,1.27.69,2.41.47a1,1,0,0,1,.69-1.07c.71-.17.37.22.61.75a29.51,29.51,0,0,1,1,2.82c.43,1.24,1.42,2.07,2.11,3.25a27.93,27.93,0,0,1,2.34,4.63c.6,1.71,3.14,5.77-.23,5.51-.45,0-.66-.5-1.23-.37s-.78.84-1.1,1.38-.28.74-.82.92a1.05,1.05,0,0,1-1.45-.86c-1-.18-.63.69-.86,1.21-.47,1.06-.41.5-1.36.13-1.22-.48-2.92.32-4.09.79-3.65,1.44-7.38,2.63-11.05,4.06-4.63,1.78-9.36,3.2-14,5-2.44,1-6.16,2.44-8.38.53a14,14,0,0,1-3.43-4.31,9.18,9.18,0,0,1-.83-2.86c-.15-.85-.9-2.33-.69-3.15,1.27-.37,2.75-.26,4-.73"/><path class="cls-2" d="M121.1,215.29c-.85.36-1.7.73-2.59,1.05s-1.59.6-2.39.9A96.17,96.17,0,0,0,123,228.89l5.51-1.93A55.21,55.21,0,0,1,121.1,215.29Z"/><path class="cls-2" d="M131.31,217.47a30.15,30.15,0,0,1-3.17-5.09,27,27,0,0,1-2.73,1.17c-1,.35-1.93.76-2.88,1.17A50.49,50.49,0,0,0,130,226.39c.93-.34,1.88-.66,2.81-1,1.11-.42,2.22-.81,3.33-1.21C134.54,221.93,132.89,219.73,131.31,217.47Z"/><path class="cls-2" d="M135.79,209c-.18.07-.38.13-.53.2-1.7.77-3.4,1.59-5.11,2.29l-.59.27c1,2.58,3.1,5,4.65,7.19,1.13,1.57,2.29,3.13,3.43,4.7q2.48-.88,4.93-1.82C140,217.68,137.3,213.55,135.79,209Z"/><path class="cls-2" d="M141.58,204.11a.69.69,0,0,0-.47.12c-1,.59-.44,2.2-1.27,3a8,8,0,0,1-2.61,1.26c1.51,4.59,4.19,8.69,6.81,12.8,1.17-.47,2.77-1.18,3.93-.73l.15.08C145.84,215.13,143.3,209.78,141.58,204.11Z"/><path class="cls-2" d="M154.56,218a.88.88,0,0,0,.23.07c3.37.26.84-3.8.23-5.51a28,28,0,0,0-2.33-4.64c-.69-1.18-1.69-2-2.11-3.24-.35-1-.6-1.9-1-2.82-.24-.53.1-.92-.62-.75a.8.8,0,0,0-.42.32C151,206.82,152.63,212.48,154.56,218Z"/><path class="cls-2" d="M147,201.81a1.08,1.08,0,0,0-1.16-.06c0,.75,0,1.86-1.08,1.73-.61-.07-.71-.79-1.38-.68-.06.5.23,1.13-.14,1.49,1.68,5.32,4,10.38,6.2,15.52,0-.39.09-.75.75-.63a1.06,1.06,0,0,0,1.46.86c.54-.18.53-.45.82-.93a10.36,10.36,0,0,1,.53-1C151.12,212.64,149.46,207.07,147,201.81Z"/><path class="cls-2" d="M114.68,217.79l-2.66,1-1.59.61a110.58,110.58,0,0,0,7.2,11.44l1.22-.47c.87-.34,1.76-.63,2.64-.94A103.82,103.82,0,0,1,114.68,217.79Z"/><path class="cls-2" d="M109,220c-1.14.28-2.39.27-3.48.59-.21.81.53,2.3.68,3.15a9.32,9.32,0,0,0,.83,2.85,14.07,14.07,0,0,0,3.44,4.32c1.48,1.28,3.63,1,5.62.44A128.38,128.38,0,0,1,109,220Z"/><path class="cls-1" d="M153.74,18.73a2.21,2.21,0,0,1-.61-1,2.93,2.93,0,0,0-.23-.78c-.09-.19-.24-.33-.33-.53a14.32,14.32,0,0,1-.55-1.94,25.63,25.63,0,0,0-1.18-3.63,7.4,7.4,0,0,1-.53-1.45,1.4,1.4,0,0,1,.16-.86,5.85,5.85,0,0,1,.81-1.47c.8-1.11,1.41-2.33,2.32-3.37a14.57,14.57,0,0,1,1.52-1.62,7.76,7.76,0,0,1,.79-.73,2.86,2.86,0,0,1,1.2-.28l.67-.11c.28,0,.57,0,.86,0s.85-.14,1.28-.19,1-.07,1.48-.15a13.54,13.54,0,0,1,2.45-.29c.87,0,1.74-.12,2.6-.11a9.64,9.64,0,0,0,1.42-.16,14.8,14.8,0,0,1,2-.07,6.23,6.23,0,0,1,2.46.39.9.9,0,0,1,.54.41,1.66,1.66,0,0,1,.06,1A2.25,2.25,0,0,1,171.26,3c-1.3.15-2.62.14-3.93.33a18.51,18.51,0,0,1-2.78.23,10.54,10.54,0,0,0-1.38.06,1.72,1.72,0,0,0-.69.27c-.11.07-.26.1-.39.18a1.06,1.06,0,0,1-.56.3c0,.21.54.78.69.95.41.46.82.79.85,1.45a2.46,2.46,0,0,1-.38,1.52,1.1,1.1,0,0,1-1,.47,2.14,2.14,0,0,1-.74-.24c-.22-.11-.42-.34-.67-.36.4.48,1.19,1.24.89,2a2.43,2.43,0,0,1-1.24,1c-.3.13-1,.25-1.22-.06-.13.15.19.45.3.56a1.15,1.15,0,0,1,.35.7,1.73,1.73,0,0,1-.69,1.4c-.21.18-.38.38-.26.68.06.14.17.23.23.36a3,3,0,0,1,.16.66,5.39,5.39,0,0,0,.44,1.3,4,4,0,0,1,.45,1.53,1,1,0,0,1-.56.85,8.65,8.65,0,0,1-.87.41,4.48,4.48,0,0,1-1.23.42,3.22,3.22,0,0,1-2.08-.15A4.29,4.29,0,0,1,153.74,18.73Z"/><path class="cls-4" d="M91.22,68.22c-.1-.18-.28-.34-.39-.51a4.89,4.89,0,0,1-.51-1A8.68,8.68,0,0,1,90,64.91a10.38,10.38,0,0,0-.33-1.66c-.11-.38-.32-1-.83-1a1.72,1.72,0,0,0-.66.22,1.13,1.13,0,0,0-.34.78,4,4,0,0,0,.28,2.41,4.38,4.38,0,0,0,1.66,1.51c.21.13.45.23.66.36s.57.46.71.34v0"/><path class="cls-3" d="M87.6,63c.17.11-.28,1.59-.26,1.94a3.23,3.23,0,0,0,.8,2,4,4,0,0,0,1.74.94c.42.17,1.26.71,1.71.51A13.73,13.73,0,0,1,90,67.52a3.5,3.5,0,0,1-1.32-1.35,3.43,3.43,0,0,1-.77-1.61c-.06-.5-.1-1-.2-1.5,0,.08,0,.12,0,.17a.38.38,0,0,0,.15-.09"/><path class="cls-3" d="M88,65.68l.1,0c-.22-.45.39-.81.75-.71s1,.66.87,1.09a1.11,1.11,0,0,1-1.12.53c-.36-.11-.92-.75-.65-1.15"/><path class="cls-3" d="M91,68l0,.09a5.69,5.69,0,0,1-1.6-2.17,2.7,2.7,0,0,1,.48-2.69,2.19,2.19,0,0,0-.27,1.12,4,4,0,0,0,.2,1.37,5.49,5.49,0,0,0,.61,1.24c.15.21.25.41.4.63s.17.38.3.54c-.17.12-.36,0-.48-.18"/><path class="cls-4" d="M94.8,73.29a1.27,1.27,0,0,1,0,.39,6.51,6.51,0,0,0,0,1,4.27,4.27,0,0,0,.68,1.75A6.21,6.21,0,0,0,97.17,78a4.59,4.59,0,0,0,1.23.57c.33.12.51.22.84,0,.48-.33.73-1.12.12-1.47-.32-.19-.69,0-1,0a1.44,1.44,0,0,1-1-.35,6.46,6.46,0,0,1-.77-.8,4.28,4.28,0,0,1-.76-1,3.29,3.29,0,0,1-.21-.6,2.09,2.09,0,0,0-.08-.5c0-.11-.23-.27-.36-.22s-.17.54-.23.71"/><path class="cls-3" d="M94.56,73.44c0,1.32.06,2.73,1,3.8a3.49,3.49,0,0,0,3,1.31,7.11,7.11,0,0,1-2.84-2.07A5,5,0,0,1,95,75.06c-.2-.48-.18-1-.34-1.51a.63.63,0,0,1,.28.23"/><path class="cls-3" d="M96,77.07c.06.08,0,.09,0,0A1.16,1.16,0,0,1,95.68,76c.11-.43.49-.5.85-.2s.62.76.47,1.08a1.67,1.67,0,0,1-.55.39c-.28.08-.34-.08-.65-.13,0-.07,0-.14.09-.18"/><path class="cls-3" d="M95.37,74.14c.14.12.09.48.17.68a4.33,4.33,0,0,0,.39.74c.2.32.42.65.65,1a3.23,3.23,0,0,0,2.74.72c-.5.41-2-.55-2.39-.86s-.52-.55-.79-.82-.41-.65-.67-.85"/><path class="cls-4" d="M87.6,67.47a7.84,7.84,0,0,0-3.78.75c-.86.43-2.23,1-2.7,2a11.22,11.22,0,0,0,1.33-1.42c.54-.53,1.2-.91,1.78-1.38.35-.29.75-.52,1.12-.81s.69-.72,1-.7a3.21,3.21,0,0,0,1.4,2"/><path class="cls-4" d="M95.35,78.59c-.16.18-.6.28-.87.47a5.47,5.47,0,0,0-1.26,1.28A7.6,7.6,0,0,1,92,82.05c.34-.73.66-1.49,1-2.21a5.39,5.39,0,0,1,.62-1,10.37,10.37,0,0,1,.63-1c.31.25.66.66,1.12.64"/><path class="cls-2" d="M106,72.63c-.17-.43-1.3-.7-1.73-.75a1.54,1.54,0,0,0-1.4.41,2.2,2.2,0,0,0-.25,3,2.26,2.26,0,0,0,3.12.87,3.23,3.23,0,0,0,1-1.9,2.09,2.09,0,0,0-.88-2"/><path class="cls-2" d="M96.6,58.5c.07-2.07-3.46-3.63-4.74-1.84a3.53,3.53,0,0,0-.15,3.45,2.76,2.76,0,0,0,3.44.74A2.89,2.89,0,0,0,96.6,58.5Z"/></g></g></svg>