<svg xmlns="http://www.w3.org/2000/svg" viewBox="0 0 238.12 320.36"><defs><style>.cls-1{fill:#007293;}.cls-2{fill:#1d1d1b;}.cls-3{fill:#e63027;}.cls-4{fill:#fff;}.cls-5{fill:#e30613;}</style></defs><g id="Ebene_2" data-name="Ebene 2"><g id="Ebene_1-2" data-name="Ebene 1"><path class="cls-1" d="M59.87,232.64c-.58,0-1.17.05-1.75.08a4,4,0,0,1-2.12-.14c-.9-.45-1.2-1.61-1.65-2.42-.7-1.27-1.35-2.56-2-3.86-.51-1.06-.89-2.18-1.45-3.24s-1.21-2.37-1.78-3.57a19.75,19.75,0,0,0-1.55-3,24,24,0,0,0-2.3-2.92c-1-1-1.87-2.08-2.91-3-.82-.74-1.62-1.49-2.42-2.24s-1.85-1.53-2.71-2.35-1.64-1.53-2.47-2.29a25.28,25.28,0,0,0-2.94-2.43c-.72-.48-1.41-1-2.08-1.5a1.6,1.6,0,0,0-1.27-.45,5.93,5.93,0,0,0-1.57.63A10.13,10.13,0,0,0,24,202.32a21,21,0,0,0-1.54,1.85c-.11.17-.2.36-.31.52-.34.47-.5.54-.13,1.07a3.44,3.44,0,0,0,.79.78,10,10,0,0,0,2.28,1.15c1.43.58,3.33,1.1,4.19,2.49,1.68,2.71,6.18,13.07,7.52,15.27,2.32,3.82,1.19,9.42,3.69,13.13s7.86,9.46,12,9a15.81,15.81,0,0,0,5.21-1.71,11.22,11.22,0,0,1,1.82-1,25.08,25.08,0,0,0,2.81-.82,31.66,31.66,0,0,0,6.4-3.66c.84-.62,2.32-1.48,2.12-2.72-.16-.93-1.3-1.47-2-2-1-.81-2-1.73-3-2.52a4.09,4.09,0,0,0-2.12-.94,13.93,13.93,0,0,0-2.94.32C60.55,232.6,60.21,232.63,59.87,232.64Z"/><path class="cls-2" d="M33.43,201.32c-.43-.08-.81-1.68-1-2.15-.38-1-.83-1.9-1.14-2.9-.49-1.5-1.14-3.07-1.45-4.52a14.77,14.77,0,0,1-4.2.65,4.16,4.16,0,0,0-1.69.35,2.18,2.18,0,0,0-.67,1.67,7.5,7.5,0,0,0-2.49-.32,32.69,32.69,0,0,0-4.2-.3c-.66,0-1.29,0-1.93-.08-.28,0-.58,0-.86,0a5.24,5.24,0,0,0-.88-.08c-.79.08-1.56.27-2.33.39a15.4,15.4,0,0,0-4,1.41A19.35,19.35,0,0,0,2.15,198,8.19,8.19,0,0,0,.8,199.48a3.63,3.63,0,0,0-.8,1.59,2.75,2.75,0,0,0,.37.83c.18.39.43.72.65,1.1.33.58.83,1.28,1.54,1.38a14.41,14.41,0,0,0,2.18.1c.48,0,.93.07,1.4.08.64,0,1.25-.07,1.87-.08,1.4,0,2.78-.08,4.19-.08a26.06,26.06,0,0,1,6.43.57,6.74,6.74,0,0,1,1.15.38,5.56,5.56,0,0,1,1.2,1,38.24,38.24,0,0,1,2.77,2.78,2.28,2.28,0,0,0,.5.43,3.8,3.8,0,0,0,.13-1.14c0-.36,0-.71.08-1.09a1.8,1.8,0,0,1,.54-1A5.12,5.12,0,0,1,26.74,205a31.31,31.31,0,0,1,3.57-1.67,13.85,13.85,0,0,1,2.1-.39,1.6,1.6,0,0,0,.68-.15c.13-.13.15-.45,0-.53"/><path class="cls-3" d="M121.09,149.38c.88,1.33,1.85,2.73,2.62,3.81-7.88,7.54-18.24,6.5-28.17,6.2-7-.2-18.5-4.55-23.93,1.81a19.6,19.6,0,0,0-3,5.36c-.78,1.88-1.9,3.61-2.57,5.57a44.6,44.6,0,0,1-1.7,4.74c-2,4.34-3.64,8.56-5.25,13a99.82,99.82,0,0,0-4,16.87c-.43,2.55-1.07,5.13-1.4,7.7s-.91,5.73-.4,8.36a15.73,15.73,0,0,0,1,3.22,4.85,4.85,0,0,0,.68,1.2,3.86,3.86,0,0,1,.48,1.19c.16.42.21.54-.11.88a14.12,14.12,0,0,0-1.3,1.27,3.07,3.07,0,0,0-.7,2,2.18,2.18,0,0,0,.54,1,6.18,6.18,0,0,0,1.12.77c.45.32,1,.57,1.44.85a17.48,17.48,0,0,0,2.65,1.37,17.58,17.58,0,0,1,2.28,1.08,3.1,3.1,0,0,1,.84.47,8.56,8.56,0,0,1,.66,1.11,8.93,8.93,0,0,0,2.47,2.15,8.94,8.94,0,0,1,1.27,1c.22.24.45.65.73.81a.59.59,0,0,0,.74-.17c.3-.29.57-.63.9-.93.67-.62,1.4-1.19,2.09-1.81a13.94,13.94,0,0,1,3.42-2.6,5.76,5.76,0,0,1,3.38-.39c.85.17,1.78.37,2.65.47.47.05.94,0,1.4.06a3.46,3.46,0,0,0,3.16-1.1,32.56,32.56,0,0,1,3.22-2.59A25.7,25.7,0,0,0,93.05,229a78.77,78.77,0,0,0,5.36-11.73c.16.22,9.21-10.73,9.21-10.73s-6.94,9.6-7.46,12c-.6,2.79-.92,5.59-1.4,8.4a37.08,37.08,0,0,0-1,7.21,10.06,10.06,0,0,0,1.5,5.31c1,1.49,2.38,2.09,3.7,3.08,1,.77.86.84.78,2.12a24,24,0,0,0,0,3.06c.1,1.47-.19,4.54,1,5.66.91.86,3.33,1,4.54.92,1.89-.11,4.42.07,6.22-.72,1.56-.68,3.2-1.08,4-2.69.67-1.38.4-3.25.82-4.79s1.7-3.14,2.58-4.52a30.6,30.6,0,0,1,3-4.09,57.19,57.19,0,0,0,4-5c1.32-1.9,2.9-3.66,3.7-6,1-3.11,1.11-6.44,1.73-9.64.76-3.84,1.07-7.69,1.87-11.59,1.66-8,3.93-16.63,2-24.79-.72-3-1.77-6-2.64-9s-1-6.39-1.81-9.48a22.75,22.75,0,0,0-3.09-7c-.92-1.4-2.77-3.17-2.72-4.92"/><path class="cls-2" d="M117.83,54.75c-.28.09-.31.18-.12.31,1.18-.92,3.43-1.19,4.78-1.56a7.51,7.51,0,0,1,5,.3,85,85,0,0,1,9.7,5.06l24.69-6.93s12.23-6.91,19.59-4.21c4.29,1.57,8-9.3,11.94-9.62,2.32-.18,12.59-11.14,14-9.89.94.83,10.3,10,10.48,11.9.27,2.42-19.52,26.67-23.31,28-2.46.9-27.8,8.37-27.8,8.37s-33.32,27-37.78,24.7c0,5.61-4,34.53-4,34.53s3.73,12.64,3.84,14.84c-1.07.89-14.11,10.17-17.33,10.62a24.15,24.15,0,0,1-10.07-.29c-2.82-.82-32.85-1.94-35.19-4.32-1.5-1.54,5.36-9.21,5.47-11.27.15-2.59.48-33-1.7-33.74-1.69,2-12.09,16.15-11.76,18.93,0,0,3-.9,3.65,2.18s-3.12,4.11.55,7.24c2.48,2.14,4.06,5.79,5.85,7.48-.37,3.34-2.7,8.4-4.11,11.07-1.61,3.06-3.42,2.51-3.4,6.47-2.11.15-10.43-9.45-12.67-10.11-2-.58-2.48-5.3-2.48-5.3l-3.75-6.8s-6.42-15-7-19.65c-.36-2.76,3.75-10.27,3.83-13.13.18-5.8,6.18-28.82,9.82-34,3.25-4.6,10.11-16.56,15.08-16.4,2.32.08,11.67,1.8,12.27,0Z"/><path class="cls-4" d="M73.47,56.72a.35.35,0,0,1,.1.24.15.15,0,0,0-.11,0,2,2,0,0,1-.65.41l-.7.35a6.27,6.27,0,0,1-2.28.72,10.56,10.56,0,0,0-3.11.75,9.48,9.48,0,0,0-1.79,1.28,16.24,16.24,0,0,0-1.5,1.38,9.7,9.7,0,0,0-1.25,1.83,13.54,13.54,0,0,0-1.5,3.94,40.23,40.23,0,0,0-.83,6,33.62,33.62,0,0,0,.53,3.85s2,5.31,2.34,6.31.67,1.88.94,2.82a17.75,17.75,0,0,0,2.66,4.27c1.08.94,6,2.83,7.08,3.17a18,18,0,0,0,3,.67c.61.06-.11-.65-1-1a5.1,5.1,0,0,1-2.75-2.06,11.69,11.69,0,0,1-1.12-9.27c.92-3,4.17-4.35,6.71-5.27a9.72,9.72,0,0,1,5.67-.67,42.59,42.59,0,0,1,4.89,2.29c1.66.9,3.3,1.72,4.92,2.65A18.32,18.32,0,0,1,96.25,83c1,.78,1.94,1.47,2.93,2.21,1.17.91,2.66,2.06,3.07,3.64s.49,9.77.49,11c0,.89-.07,4.9.08,6,.15,1.31.54,5.88.48,6.85s3.13,9.94,3.64,13.82a14.78,14.78,0,0,0,.26,2.08c.43,1.58,1,3.13,1.44,4.76.23.92.77,3.56.89,3.64s1.09,4.1,1.22,4.76c.17,1,1.09,5.44,1.34,6.67a49.72,49.72,0,0,1,.87,7c0,.66.06,1.32.05,2,0,.2-.08.8,0,.87l2.92-.86.37,0c-.06-.75.11-1.44.1-2.16s0-1.62-.06-2.45a22,22,0,0,0-.3-2.93c-.12-1.1-3.31-15.65-3.66-16.64a107.11,107.11,0,0,1-2.76-11.1c-.17-1.31-1.39-10.55-1.48-12-.11-2.35-.88-12-1-13.18s-.4-5.14-.53-6a7.78,7.78,0,0,1,.45-4.75,27,27,0,0,1,2.89-4.15,18,18,0,0,1,2.19-2.26A21.66,21.66,0,0,1,114,78c1.41-.91,2.76-2,4.18-2.83A17.91,17.91,0,0,1,120,74.12a7.66,7.66,0,0,1,1.84-.5,18.15,18.15,0,0,1,2.08-.13,2.06,2.06,0,0,1,.89.19c.46.22.94.34,1.39.57,2.62,1.5,5.68,2.65,7.7,5,.22.28.46.5.68.75s.21.5.51.31a2.44,2.44,0,0,0,.68-1.31,15.81,15.81,0,0,0,.28-4c0-1.8-.09-3.56-.31-5.37-.13-1.06-.49-2.09-.7-3.13-.13-.68-.25-1.37-.42-2a18.84,18.84,0,0,0-2.11-5,34.66,34.66,0,0,0-2.7-3.48,9,9,0,0,0-2.07-2c-.74-.49-1.52-.86-2.26-1.37-.18-.15-.73-.37-.81-.63l-.48-1.2-1.66,0Z"/><path class="cls-4" d="M91.32,79c-.37-.83-.78-1.62-1.17-2.41a59.52,59.52,0,0,1-2.76-6c-.8-2.26-1.31-4.65-1.89-7a44.48,44.48,0,0,1,.19-7.83,1.84,1.84,0,0,0,.15-.36c1.29-3.32,2.25-7,4.27-9.94,1.46-2.06,3.78-4.62,6.11-5.4a9.61,9.61,0,0,1,4.33.07,57.6,57.6,0,0,0,5.88.08c1.24.07,2.47.21,3.71.4l.44-.48c.79.07,1.59.15,2.36.28a9.88,9.88,0,0,1,1.3.24,9.35,9.35,0,0,1,2.05,2,13.57,13.57,0,0,1,2.83,5,26.19,26.19,0,0,1,1,9.79,46.71,46.71,0,0,1-.76,4.82c-.2.89-.26,1.82-.45,2.7s-.62,1.88-.91,2.8c-.58,2-1.36,4-2,6.1a18.66,18.66,0,0,1-3,6.52,20.18,20.18,0,0,1-3.95,4.14,14.73,14.73,0,0,1-4.41,2,9.8,9.8,0,0,1-9.62-2.75c-1.17-1.24-1.89-2.87-3-4.1C91.79,79.5,91.57,79.26,91.32,79Z"/><path class="cls-1" d="M103.51,53.63c-.45-.8-2.39-1.09-3-.79a6.18,6.18,0,0,0-1.2.7c-.18.19-.68.78-.52,1.19.21.58,1.25.89,1.65.9a3.68,3.68,0,0,0,1.42-.19,2.93,2.93,0,0,0,1.89-1.82.49.49,0,0,0-.37-.12"/><path class="cls-1" d="M111.73,54.39c-.09.09-.1.11,0,0a4.14,4.14,0,0,1,2.63-.32c.76.14,1.79.66,1.77,1.55a4.9,4.9,0,0,1-2.84.12c-.53-.24-1.64-.72-1.43-1.49"/><path class="cls-2" d="M96.21,67.91A4.93,4.93,0,0,1,95,66.81a2.19,2.19,0,0,1-.51-2.14c.26-.66.69-.85,1.18-.37.36.31-.06.94-.43.61,0,.06-.06.11-.08.16a1.49,1.49,0,0,0,.64,1.49,5.46,5.46,0,0,0,1.69,1,5.85,5.85,0,0,0,3.35.57H101l.24,0a9,9,0,0,0,2.11-.61s3.32,2,5,2,3.25-1.74,3.25-1.74l.69,1.39s3.86.46,5.66.69a.93.93,0,0,0,.1-.05c.22-.08.28-.24.19-.5-.19.06-.27-.22-.13-.36s.65,0,.72.38a1.68,1.68,0,0,1,0,.67.3.3,0,0,1-.06.18c0,.06-.11.23-.11.15-.57,1.28-2.74,5.39-6.25,4.9-2,.05-4.59-2.69-4.59-2.69a11.09,11.09,0,0,1-8.66,2c-5.46-.79-7-7.42-7-7.42S93.43,67.38,96.21,67.91Z"/><path class="cls-2" d="M85.21,42c-.53,1.07-2.59,1-3.54,1.13A4.18,4.18,0,0,0,78.4,45a10.78,10.78,0,0,0-2.08,9.08,18.67,18.67,0,0,0,2,5c.87,1.34,2,1.33,3.37,1.52.44.08,1.54.45,1.89.16s.5-1.72.55-2.16c.17-1.7,0-3.26.23-4.91.25-1.93.47-3.87.69-5.79.16-1.41,1.33-4.26.31-5.43-.12,0-.18,0-.18.17"/><path class="cls-2" d="M121.15,48.82c0,.14,0,.23.13.23.34-.25.65-.07,1-.06a5.33,5.33,0,0,1,1.38,0,4,4,0,0,1,2,1.69C126.81,52.38,127,55,126.92,57a9.46,9.46,0,0,1-3.1,6.32,13.48,13.48,0,0,1-5,2.53,16.44,16.44,0,0,1,.62-4.08,38,38,0,0,0,.55-4.69c.32-2.83.47-5.61.83-8.41,0,.1,0,.18,0,.31"/><path class="cls-5" d="M109.12,75.35l-.1,0-.16-.06A.86.86,0,0,0,109.12,75.35Z"/><path class="cls-2" d="M112.24,49.45c-.09.07-.09.07,0,0a2.61,2.61,0,0,1,2,.78,21.74,21.74,0,0,0,2,1.28,8.18,8.18,0,0,1,1.91,1.2c.38.52.19,1.49.23,2-.88.55-1-1.09-1.14-1.37a7.94,7.94,0,0,0-1.93-1.73,11.34,11.34,0,0,0-2-1.64c-.35-.18-2.16-.28-1.21-.84"/><path class="cls-4" d="M113.86,53.28a1.54,1.54,0,0,1,.6.3c.29.26.81.53.89.93a1.84,1.84,0,0,1-.43,1.26,2.32,2.32,0,0,1-1.63.93,1.12,1.12,0,0,1-1.22-.69,1.78,1.78,0,0,1,.14-1.18,2.43,2.43,0,0,1,1.27-1.17,2.07,2.07,0,0,1,1-.22"/><path class="cls-4" d="M99.13,52.56s0,0,0,0a3.53,3.53,0,0,0,.65-.21,3,3,0,0,1,1.07,0A2.7,2.7,0,0,1,103,54.49a1.22,1.22,0,0,1-.25.91.93.93,0,0,1-.74.3,3.75,3.75,0,0,1-2.52-1.13A1.66,1.66,0,0,1,99,53.28a2.11,2.11,0,0,1,.58-1c.1-.06.38-.35.53-.3"/><path class="cls-2" d="M114.73,54c-.1,0,.14,0,.21,0a3.77,3.77,0,0,1,.48,0c.27,0,.48.22.4.63a1,1,0,0,1-1,.92c-.37,0-.85-.23-.82-.72a.92.92,0,0,1,.91-.86s.05,0,0,0"/><path class="cls-2" d="M101.32,52.68c0,.08.1,0,.17,0s.18,0,.27-.06a1.36,1.36,0,0,1,.69,0c.52.19,1.15,1.08,1,1.56-.25.79-1.34.59-1.89-.15a.8.8,0,0,1,.17-1.26"/><path class="cls-2" d="M85.94,28.57l5.8-7.92,10-.78s8.05,1.17,9.63,1.77c2.38.92,10.36,10.64,11,14a22.51,22.51,0,0,1,.3,4.41,61.32,61.32,0,0,1-.4,6.51c-.5,4.19-.71,8.72-1.69,12.78-.27,1.14-.36,2.4-.57,3.59-.26,1.41-.65,2.9-1,4.27-.37,1.53-3.42,10.56-6.15,14A26.1,26.1,0,0,1,108.9,85a8.83,8.83,0,0,1-1.6,1h0a17,17,0,0,1-1.7.91c-.13.07-.24.24-.17.28a4.76,4.76,0,0,1,1.34.48.19.19,0,0,1,0,.24,4.42,4.42,0,0,1-.69.92,1.83,1.83,0,0,1-.26.32h0a.15.15,0,0,0,0,0s0,0,0,0a.17.17,0,0,1-.19,0,.13.13,0,0,1-.12-.05,1,1,0,0,1-.17-.14c-.14-.08,0-.29.06-.33a6.12,6.12,0,0,0-2-1.06l-.07,0a1.91,1.91,0,0,0-.2,0,2.38,2.38,0,0,1-1.76.57A3,3,0,0,1,98.88,87a7.74,7.74,0,0,1-1.79-.85,5.45,5.45,0,0,1-.64-.32A39,39,0,0,1,91,80.93c-.63-.76-6.65-8.42-7-9.26a20.76,20.76,0,0,1-.66-5.61,73.56,73.56,0,0,1,.31-12.41c.47-3.9.79-7.58.88-11.46C84.67,37.57,85.94,28.57,85.94,28.57Zm-.63,32.89c0,.72.14,1.46.23,2.18a25.26,25.26,0,0,0,1.21,4.3c.4,1.18.93,2.37,1.26,3.61a12.23,12.23,0,0,0,.76,2,34.78,34.78,0,0,1,2,3.06,5.21,5.21,0,0,1,.47,1.06c.29.52.57,1,.84,1.54.35.69.69,1.46,1.11,2.15.61.62,1.24,1.2,1.82,1.8s.88.93,1.31,1.38a11.3,11.3,0,0,0,1.17,1.11c.25.12.5.23.75.37a16.67,16.67,0,0,0,2.47.74,4.88,4.88,0,0,0,2.65,0c.52-.13,3.51-1,3.91-1.26a19.71,19.71,0,0,0,1.94-1.5,18,18,0,0,0,3.55-4.25,49.85,49.85,0,0,0,2.54-4.29,22.22,22.22,0,0,0,1-2.61c.24-.71.51-1.43.74-2.17a7.9,7.9,0,0,1,.54-2.23c.11-.34.21-.68.31-1a43.9,43.9,0,0,1,.64-4.74c.7-3,1.94-6.23,1.57-9.46a11.34,11.34,0,0,0-1.3-4,14.45,14.45,0,0,0-.87-1.6c-.41-.65-.78-.72-1.54-1a32.1,32.1,0,0,0-6.07-1.38c-2-.3-4.05-.82-6.14-1.08a19.13,19.13,0,0,0-7.27.77,7.79,7.79,0,0,0-4.44,2.81c-1.78,2.6-2.06,6.1-3.43,8.85-.61,1.15-1.77,1.84-2.61,2.75a3,3,0,0,0-1.11,1.81A2.64,2.64,0,0,1,85.31,61.46Z"/><path class="cls-5" d="M109.06,64.64a1.23,1.23,0,0,0-.26-.12c1-.48,3,2.62,2.39,3.52-1.18,1.8-4.33,2-5.84,1.27s-2.86-2.46-1.26-4.21c1.43-1.56,4.12-1.74,5.3-.58"/><path class="cls-2" d="M111.49,68.09a6.39,6.39,0,0,0,5.28-1.63c1.91-2-.6-3.84-1.2-2,.91-.31.91.7.57,1.4s-1.18.79-1.71,1.08a13.22,13.22,0,0,1-4,1.73"/><path class="cls-1" d="M221.61,29.3a3.48,3.48,0,0,1-.45.55,17.09,17.09,0,0,0-2.11,2.71c-.64.93-1.49,1.64-2.2,2.5a12.8,12.8,0,0,1-1.62,2.11,2.21,2.21,0,0,1-3.57-.45c-1-1.44-2.22-2.62-3.19-4.06s-.26-2.18.94-3c1.51-1,2.81-2.27,4.33-3.26s1.88-3,2.57-4.47c1.16-2.45,2-5.29.79-7.76A15.13,15.13,0,0,0,215,11.08c-.52-.58-1.4-1.05-1.65-1.81-.39-1.15,0-2,1.12-2.11a6.66,6.66,0,0,1,5.22,2.05c1.38,1.59,1.77,2.89,3.92,1.41,2.92-2,5-5,7.68-7.27.69-.59,1.5-1.05,2.18-1.64A7,7,0,0,1,235.86.13c2-.7,2.84,1.65,1.81,3.22-1.78,2.72-6,4.6-6.5,8-.13.85-.07.59.58,1.12s1.09.8,1.07,1.67c0,1-1.22,2-.42,2.93.48.58,1.09.53,1.43,1.39a3.58,3.58,0,0,1,.16,2.07,3.72,3.72,0,0,0-.3,1.7c.06.68.26,1.73-.17,2.3-.91,1.21-3,1.11-4.24,1a7.35,7.35,0,0,0-2.34,0,18.38,18.38,0,0,0-3.21,1.58A5.43,5.43,0,0,0,221.61,29.3Z"/><path class="cls-1" d="M116.09,253c-.88,8.09-1.33,17.79-1.65,26.83-.14,4.31-.62,8.78-.44,13.09.16,4,2.56,7.59,1.6,11.45-2.29,1.2-5,.77-7.58.44-.22-4.24.19-8.67.34-12.94s-.81-8.38-1-12.31c-.49-8.73-2.15-17.22-1.09-26.13,2.87-.11,6.6.94,9.13-.46"/><path class="cls-2" d="M135.45,183.53c-.74-.06-1.21-1.11-1.69-1.63-.9-1-2-1.84-2.82-2.94a24.88,24.88,0,0,1-3.61-7.32,14.7,14.7,0,0,1-.88-3.82,25.22,25.22,0,0,0,0-3.48c-.16,3.58-.25,6.53,1.16,9.83,1.06,2.54,2.07,6,4.09,7.88a10.62,10.62,0,0,0,3.86,2c-.16,0-.35,0-.53,0"/><path class="cls-2" d="M107.21,167.87a43.72,43.72,0,0,0,.37,8.24,10.75,10.75,0,0,1,0,4.34,6.32,6.32,0,0,1-1.45,1.8c-1.24,1.31-2.37,2.6-2.16,4.61s.27,3.94.34,6c.05,1.63.48,3.6.21,5.19a.74.74,0,0,1-.39,0,48.61,48.61,0,0,0-.68-6.69c-.13-1.25-.24-2.49-.3-3.76a5.56,5.56,0,0,1,.21-3c.72-1.3,2.21-2.24,3-3.53,1.08-1.72.8-4.24.87-6.24,0-1.14.13-2.29.09-3.42,0-.81.22-2.42-.16-3.13"/><path class="cls-2" d="M77.82,168.42c-1.46,3.64-1.76,8.64-5,11.17a11.88,11.88,0,0,1-3.34,1.58c-1.16.44-1.46,0-2.34-.78.34,1,1,2.08,2,2.13a20.79,20.79,0,0,0,2.11-.37,2.94,2.94,0,0,0,2.22-.74,11.75,11.75,0,0,0,2.81-5.79c.22-1.22.56-3.52.1-4.7"/><path class="cls-2" d="M120.07,246.4c-.68,1.1-3,1.42-4.12,1.62a23,23,0,0,1-4.61-.11c-2.47-.12-4.26-1.19-6.23-2.61a11.14,11.14,0,0,0,3.68.42,23.05,23.05,0,0,1,4.07.66c2.09.49,5.17.78,7.17,0-.53,0-1.06,0-1.57-.07"/><path class="cls-2" d="M71.62,232.69c-.73,1-2.2.65-3.17.53a13,13,0,0,1-5.06-1.16,15,15,0,0,1-4-2.55c-.57-.64-.88-1.47-1.67-1.91-.22,1.06.87,2.17,1.52,2.84a9.62,9.62,0,0,0,4.13,2.34,14.08,14.08,0,0,0,4,.67c.9.05,2.5.44,3.3,0h-.4"/><path class="cls-2" d="M122,319.59a3.35,3.35,0,0,1-.66-.32,11.81,11.81,0,0,1-1.87-1.87,26,26,0,0,0-4.93-4.07,20.81,20.81,0,0,0-2.75-1.06c-.63-.25-1.36-1-2.07-1s-.94.71-1.41,1.14c-1.26,1.17-2.08.18-3.29-.6-.41-.26-1.37-.51-1.62-1a6.81,6.81,0,0,1,.06-2.2c.15-1.36.42-2.72.65-4.06a24,24,0,0,1,.81-2.28c.29-1.11,0-2,.68-3.12s2-1.14,3.09-1.33c-1.29,1.77,2.42,2.4,3.35,2.52a3,3,0,0,0,2.44-.56c.44-.32.1-.71.75-.65.09,0,.7.63.81.7a41.07,41.07,0,0,1,6.69,6.81,13.36,13.36,0,0,0,4.31,3.51,24.06,24.06,0,0,0,2.75.93,13.37,13.37,0,0,1,3,1c1.32.91,1.24,3.6,1.25,5,0,3.58-7.56,3.57-9.75,3C123.6,319.9,122.78,319.85,122,319.59Z"/><path class="cls-5" d="M106.94,76.88c-.09.53-1.83.14-2.24-.13a3.08,3.08,0,0,1-1.17-1.88c.37,0,.6.42.94.52a4.7,4.7,0,0,0,1.4,0,1.67,1.67,0,0,0,1.62-1.48,2.81,2.81,0,0,1-.34,3"/><path class="cls-2" d="M95.81,53.15c.1.07.11.11,0,.13-1-1.22,3.56-2.38,4.39-2.73a8.78,8.78,0,0,1,2.55-1.08c.57,0,2.5.24,2.36-.81-1-.1-1.87-.21-2.87-.37-1.2-.18-2.11.48-3.16,1.12a24.29,24.29,0,0,1-2.61,1.49c-.49.2-.69.14-.88.63s.12.68.33,1.2"/><path class="cls-2" d="M98.59,54.74c.37-.23,0-1.73-.21-2.05.25.32.93.79.79,1.28.16-.35.7-1.9.2-2.13a2.37,2.37,0,0,1,.74,1.56,2.4,2.4,0,0,0,.55-.93,1.41,1.41,0,0,0,.09-1.2c0,.29.41.5.58.73a1.33,1.33,0,0,1,.26.88c-.22-.17.09-.48.19-.66a1.58,1.58,0,0,0,.22-.95c.24.51.67,1,.58,1.61.2-.46,1-.67,1-1.28.18.26.13.73.19,1a3.4,3.4,0,0,1,.14,1.09c-.18,0-.34-.29-.51-.39a2.16,2.16,0,0,0-.56-.18,4,4,0,0,0-1.5-.07,4.37,4.37,0,0,0-1.59.88,3.92,3.92,0,0,0-.56.52c-.14.17-.16.42-.43.42"/><path class="cls-2" d="M111.57,54.32c.37.25.5-.64.52-.83a2.46,2.46,0,0,0,.07-.67,1.86,1.86,0,0,1-.09-.47c0,.25.17.34.23.56s-.08.61,0,.75c.37.47.57-1.39.57-1.56a6.07,6.07,0,0,0,.4.81,3.8,3.8,0,0,1,.12.88,1.73,1.73,0,0,0,.81-1.6c.19.42.45,1,.12,1.46a1.31,1.31,0,0,0,.88-1.38c.27.59,1.14,1.2.61,1.9a1,1,0,0,0,.47-.82c.22.28.47,2.23-.07,2.13-.08-.53-.13-.85-.68-1.1a4.26,4.26,0,0,0-1.24-.31,2.78,2.78,0,0,0-1.32.19,7.1,7.1,0,0,1-1.1.56"/><path class="cls-1" d="M83.45,157.28a10.94,10.94,0,0,1,.5,1.35,6.39,6.39,0,0,1,.32,2.42,1.24,1.24,0,0,1-.32.75c-.2.22-.43.59-.71.71a1.48,1.48,0,0,1-.69.11,3.45,3.45,0,0,0-.9-.1c-.06.18.14.34.22.49a3.26,3.26,0,0,1,.23.81,3.37,3.37,0,0,1-.29,2.07,3.64,3.64,0,0,1-1.24,1.53,2.6,2.6,0,0,1-1.94.38.76.76,0,0,0-.86.55c0,.2,0,.39,0,.59a2.57,2.57,0,0,1-.67.87,1.7,1.7,0,0,1-1.8.43,5.24,5.24,0,0,0-1.67-.2c0,.4.08.85-.37,1a1.21,1.21,0,0,1-1.29-.3,23.18,23.18,0,0,1-1.59-1.7,7,7,0,0,1-.81-1.34c-.67-1.2-2.06-1.77-2.7-3a6,6,0,0,0-1.51-1.94c-.88-.74-1.69-1.56-2.58-2.27-.31-.25-.66-.39-.85-.76a4.19,4.19,0,0,1-.28-1.25,6.1,6.1,0,0,1,0-1.35,8.12,8.12,0,0,1,1-2.12,12.32,12.32,0,0,1,3-4.23c1.35-1.14,2.58-.46,4,0a11.71,11.71,0,0,0,2.59.54,8.14,8.14,0,0,0,3.7-.42,6.26,6.26,0,0,0,1.49-.52,8.76,8.76,0,0,0,1.6-1.56,2.27,2.27,0,0,0,.3-1.59,4.12,4.12,0,0,1,0-1.64.92.92,0,0,1,1.08-.71c.33,0,.59.37.8.61a9.41,9.41,0,0,1,.76,1.14,4.4,4.4,0,0,1,.64,1,9.34,9.34,0,0,1,.25,2.74,10.5,10.5,0,0,1-.15,1.94,6.1,6.1,0,0,0-.12,1.13c0,.44-.16.82-.16,1.27s.4.79.58,1.19S83.24,156.84,83.45,157.28Z"/></g></g></svg>