<svg xmlns="http://www.w3.org/2000/svg" viewBox="0 0 204.17 399.86"><defs><style>.cls-1{fill:#e30613;}.cls-2{fill:#1d1d1b;}.cls-3{fill:#007293;}.cls-4{fill:#fff;}</style></defs><g id="Ebene_2" data-name="Ebene 2"><g id="Ebene_1-2" data-name="Ebene 1"><path class="cls-1" d="M148.19,363.35c-2.31-1.69-3.76-4.26-6.16-6-1.13-.81-3-1.4-3.26-2.92-.19-1.29.82-3.7,1.36-4.83,1.24-2.56,2.63-5,3.79-7.61,1.47-3.34,2.62-6.85,4.42-10.1a81.18,81.18,0,0,0,4.76-9.57c2.17-5.54,5.5-10.9,6.94-16.61,1.05-4.13-.29-8.51-2.25-12.15-4.91-9.13-13.64-15.94-22.71-20.46a85,85,0,0,0-16.76-5.91c-4.74-1.25-9.54-1.22-14.49-1.15a78.26,78.26,0,0,0-16.3,2c-5.06,1.16-10.82,4.64-14.9,8a54.11,54.11,0,0,0-6.6,6.32c-1.9,2.13-3.54,4.42-5.57,6.45a109.76,109.76,0,0,0-11,11.91c-1.13,1.51-2.08,3.23-3.09,4.75-1.34,2-3,3.78-4.56,5.65-3.25,4-7.76,8.4-9.14,13.45-1.1,4-3.37,8.09-3,12.39a19.51,19.51,0,0,0,1.33,6c.8,2,2.27,3.36,3.66,5,4.62,5.55,10.83,9.12,17.65,11.64,3.55,1.31,6.83,3.22,10.39,4.48a48.55,48.55,0,0,1,6.8,2.93c-1.23.29-2,2.47-2.67,3.44-.92,1.36-1.9,2.83-3,4.13-.93,1.12-1.84,2.29-2.82,3.38-.62.7-2.1,1.46-2.28,2.32-1.66,0-4-1.27-5.68-1.74a41.5,41.5,0,0,1-7.35-2.76A116.55,116.55,0,0,1,29,365.41c-8.9-6.43-18.8-11.84-26.32-20-3-3.21-2.79-8.43-2.52-12.61a39.52,39.52,0,0,1,3.61-13.26c3.25-7.32,8.13-13.52,13.17-19.82,4-5.05,7.84-10.36,11.61-15.58,6.73-9.33,13.75-18.45,19.34-28.7,1.33-2.44,2.58-4.92,4.05-7.3a69.61,69.61,0,0,0,3.73-6c1.55-3.22,1.85-6.71,5.69-8.08,2.56-.91,5.4-1.29,8.12-2.14a83.18,83.18,0,0,1,13.91-2.7,75.25,75.25,0,0,1,18.85.25,88.06,88.06,0,0,1,16.28,3c1.8.58,3.39,1.58,5.11,2.24,2.09.81,4.39,1.37,6.57,2.06a238.67,238.67,0,0,0,24.82,6c8.6,1.71,16.12,6.06,23.56,10.49,6.93,4.12,13.79,7.58,19.33,13.59,2.65,2.87,4.79,5.86,5.45,9.68.38,2.22,0,4.79,0,7.05a43.55,43.55,0,0,1-.48,8.1,18.12,18.12,0,0,1-2.84,6.64c-2,3.14-3.74,6.4-5.91,9.42-4.79,6.68-9.49,13.23-14.59,19.69-4.16,5.28-8.33,10.65-12.44,16-3.06,4-6.64,7.47-9.87,11.29a89.82,89.82,0,0,1-8,8.23A11.09,11.09,0,0,1,148.19,363.35Z"/><path class="cls-2" d="M150.09,362.87c-2.71,1.81-5.44,4.92-7.69,7.29-2.63,2.76-4.22,6-6.49,8.77-3.13-2.21-7.07-3.84-10.09-6.27,2.62-3,4.33-7.08,6.43-10.42,1.64-2.6,3.55-7.63,6.25-9.2,2.16,4.14,8.82,5.09,11.59,9.31"/><path class="cls-2" d="M67.35,371.15c.15-.35,6.46,5.13,8.11,6.57,6,5.27,9.77,16.16-1.37,17.92-3.35.52-7.26-.75-10.38-1.28-7.44-1.25-13.28.68-20.23,1.86-2.78.47-7.6,1.55-10.25-.13-4.11-2.6-.83-5,2.31-6.43,3.61-1.62,7.09-1.4,10.88-2.13,2.57-.5,19.22-5.6,12.58-9.78,1.51-1.71,7.94-6.36,5.91-8.44"/><path class="cls-2" d="M126.69,372.37c-4,1-7.18,10.41-5.66,14.23,2.71,6.78,8.66,3.71,13.58,3.48,5.43-.25,9.5,3.13,14,5.68,4.3,2.45,8.84,4.49,14.11,4,3.45-5.78-7.44-12.1-11.52-14-3-1.39-5.81-2.27-7.78-5.06-2.39-3.35-1.74-6.54-2.1-10.75-4-.36-7.19,0-10.92-.09"/><path class="cls-3" d="M127,50.5c-1.19-.89-1.39-11.23-5.15-8.32-1.43,1.11-2.92,2.18-4.43,3.18a15.69,15.69,0,0,1-1.67,1.12c-.37.18-1.17.29-1.27.77-.13.64,1.08,1.67,1.51,2a3.31,3.31,0,0,0,2.26.77c.79,0,1.57-.1,2.37-.08,1.06,0,2.09.24,3.15.24.6,0,1.22,0,1.81,0,.31,0,.85-.22,1.11,0"/><path class="cls-2" d="M119.5,120.62c1.07-.69,3.9-1,5.62-1.52,3.79-1.23,7.75-2.23,11.62-3.15,5.56-1.3,11.51-1.49,17.17-2.38a42.9,42.9,0,0,0,6.14-1.59c1.8-.58,2.39-.67,2-2.53-.32-1.42-1.76-2.92-2.45-4.11-1.31-2.22-2.54-4.48-3.84-6.7-4.54-7.81-10.16-15.12-14.48-23-3.82-7-7.81-13.75-11.89-20.54-1.08-1.78-3.67-7.23-5.7-8.07-1.87-.79-6.52,1.51-8.13,2.23,0,1.61,2,3.39,2.89,4.65a71.45,71.45,0,0,1,4.23,7.27c3.17,5.61,6.17,11.34,9.1,17,3.9,7.58,8.15,15.22,12.14,22.49-4.55.65-9.3,2.29-13.64,3.56-4.82,1.41-10.14,1.22-14.89,2.74-4.47,1.45-3.71,5.46-1.17,8.38a19.16,19.16,0,0,0,4.46,3.75,11.7,11.7,0,0,0,2.64.92c1.81.6,1.62.74,3.27,2.07"/><path class="cls-4" d="M97.54,108.05c.7,1.1-12.34,4-14.12,2.8.76,1.47,5.54,3.07,6.44,4.35.42-.31.56.71,1.12.8-.07,1.29,1,1.52,1.25,2.82.36,1.74.72,3.43,1.09,5.21,1,4.87,2.87,9.9,3.81,15a290.26,290.26,0,0,0,7.14,29.34c1.58,5.38,3.53,10.68,5.52,15.91,1.25,3.27,2,7.29,3.81,10.28,2.31-4.6,1.52-10.64,1.71-15.68.13-3.67.13-7.36.43-11a108,108,0,0,0,.67-13.09c-.33-8.23-1.12-16.37-1.44-24.58-.16-4-.34-8-.49-12.06a25.56,25.56,0,0,0-1-7.27,5,5,0,0,0,2.87-1.7c-2.27-1-2.53-2.35-3.87-4.22a11.72,11.72,0,0,1-4.28,2.24,8,8,0,0,0-2.38,1c-.5.79.2,2-.43,3-.86,1.29-4,2.92-5.61,2.3-1.08-.44-2.2-3.46-2-4.5.24.09-.28-.81-.07-.71"/><path class="cls-1" d="M102.62,143.64c2,7.53,4.63,14.71,6.87,22.1,1.05,3.44,1.43,7.23,2.65,10.39,2.51-3.42.51-12.86.84-17.1.55-7.11,1.18-14.22,1.18-21.56,0-6.89-.7-13.64-.66-20.47,0-4.39-2.27-11.82-.68-15.27,1.93.83,4.65,5.24,5.87,7.27,2.09,3.53,2.14,8.16,2.78,12a263.91,263.91,0,0,1,2.7,26.57c.22,3.44.48,6.66.67,10.16.42,7.69,2.14,15,3.35,22.69,1.27,8,4.47,16.13,6.49,24.19,1.46,5.83,5.27,13.85,4.73,19.73-2.67.7-7-.31-9.9-.55-3.67-.3-7.29-.68-11.13-.68-11.75,0-23.44.36-34.9,1.19a165.13,165.13,0,0,0-28.68,4.67c-4.09,1-12.69,2.36-14,7.25,3.13-7.13,4.05-16.41,6.69-24.11,5.14-15.05,7.93-30.84,11.2-46.56a251.66,251.66,0,0,1,8-30.47,66.66,66.66,0,0,0,3-12c.5-3.08.27-7.72,1.32-10.69A14.62,14.62,0,0,1,80.78,103c1.64-.52,4.81-1.56,6.51-1.15,3,.71,2.47,2.11,3.7,5.15A298.33,298.33,0,0,1,102.62,143.64Z"/><path class="cls-1" d="M157.6,26.32c3.12.25,7-7.58,9-9.87a13.15,13.15,0,0,1,9.88-5.25,28.33,28.33,0,0,0-3.91,5.44c2.48-.9,5.56.18,8.33-.26,1.86-.28,9-.4,9.1-.57s-6.61,6.22-9.6,7-6.46-.07-9.52.86c1.08.59,2.08,4.25,2.08,4.25s-3.9-.26-5.75-.2c-4,.13-7.82,1.45-11.78,1.86A38.38,38.38,0,0,0,157.6,26.32Z"/><path class="cls-3" d="M58.15,70.11a34.74,34.74,0,0,0,8.11,14.31,7.17,7.17,0,0,0,4,2.06,5.46,5.46,0,0,0,4.22-.92c1.13-.61,2.19-1.3,3.35-1.8a12.73,12.73,0,0,1,7.05-.83,10.22,10.22,0,0,1,6.75,3.88c1.47,2,1.73,4.64,1.9,7a41,41,0,0,1-.26,9.4c-.23,1.39-.51,2.73-.67,4.13a13.2,13.2,0,0,0-.47,3.34,15,15,0,0,0,3.2.79,8.3,8.3,0,0,0,3.73.52c2.16-.5,2.34-4.65,2.6-6.38.86-5.75-1-11.41-2.7-16.89C97.82,85,96.29,80.34,92.9,78c-1-.64-4.07-1.25-4.15-2.66,0-.64.89-1.85,1.26-2.34a28.69,28.69,0,0,1,2.35-2.33c1.85-2,2.31-4.18,2.31-6.92a22.77,22.77,0,0,0-.38-3.72,10.11,10.11,0,0,0-.66-2.61,10.91,10.91,0,0,1-1.09-2.19c-.29-1.42.81-3.35,0-4.64S88,51.83,87,50.7c-2.09-2.48-4.09-6.33-7.2-7.26a23.57,23.57,0,0,0-3.37-.89,14.4,14.4,0,0,0-5.81.46,24.35,24.35,0,0,0-8.16,4c-1.67,1.28-3.44,2.5-5,3.87-.52.45-1,.95-1.47,1.42C55.42,58.11,56.58,64.82,58.15,70.11Z"/><path class="cls-4" d="M54,217.18C57.3,220.5,54.73,230,55.6,235c8.82,3.36,20.14,2.92,29.68,3.76,6.32.54,12.55,0,19-.58,4.87-.42,11.67,1,16-.48-1.15-7.89,2-15.19,1.3-23.21-.52-5.79,1.45-3.93-4.45-5.61-5-1.44-10-2.81-15.35-2.78-15,.1-35.54-4.58-45.78,9.68a11.06,11.06,0,0,0,2.93-.05"/><path class="cls-1" d="M83.44,227c.08-7.21,1.17-14.31,1.84-21.47,0,0,0,0,0-.08a58.07,58.07,0,0,0-14.85,1.21.91.91,0,0,1,.22.59c-.29,7.93-1.28,15.8-1,23.75.09,2.23.24,4.45.37,6.67,4.7.4,9.42.58,13.88.92A115.11,115.11,0,0,1,83.44,227Z"/><path class="cls-1" d="M115.56,208.31a55,55,0,0,0-11.33-2.14c-1.4,10.7-2.65,21.42-2.45,32.18l2.78-.23a68.92,68.92,0,0,1,8.15.17C112.59,228.24,114.51,218.32,115.56,208.31Z"/><path class="cls-1" d="M58.43,215.9l-4.16,1.2c3.29,3.31.72,12.83,1.59,17.84a35.46,35.46,0,0,0,3.62,1.14C59,229.36,58.82,222.63,58.43,215.9Z"/><path class="cls-2" d="M75.72,58.41c.36.06-.1,0-.18-.09.5-2.84,1.91-4.42,4.44-5.74-.44.72.22,1.25,0,1.71s-1.28,1.09-1.72,1.56c-.92.95-1.22,2.46-2,3.25"/><path class="cls-2" d="M88.74,57.16c.19-.17.28-.15.28,0-1.66,2.41-3,4-5.4,5.33,2.13.88,4.78,1.26,6.68-.37s1.71-5.14-.67-6c2.62.74,4.23,1.67,7,.31,2.58-1.26,4-3.14,3.81-6-.91,1.52-4,2.12-5.6,2.7a28.86,28.86,0,0,0-5.07,2.31"/><path class="cls-4" d="M82.52,56.83c-.41,3.28-1.62,2.82-4.26,4.38.32-1.91.81-5.71,3.77-4.67A.75.75,0,0,1,82,57"/><path class="cls-3" d="M79.74,57.3a8.35,8.35,0,0,0-.1,1,1.22,1.22,0,0,0,.59,1.08,1.31,1.31,0,0,0,1.86-.62c.36-.71.45-2-.41-2.28a1.75,1.75,0,0,0-2,1"/><path class="cls-2" d="M80.83,57.91c-.19.53,1.6.54,1.4-.49a.66.66,0,0,0-.89-.43c-.46.12-.43.4-.71.68"/><path class="cls-2" d="M93.08,61.44c.81.68.52,1.71,1.19,1.28l.42.16c1.83-.6,1.64-2.1,2.71-3.38.67-.78,1.77-1,2.65-1.46.71-.4,1.79-.91,2.55-1.37,3.25-2,6.64-3.36,9.91-5.21,1-.57,2-1.06,3-1.58a12.65,12.65,0,0,0,4.65,3.66c7.43,3.51,17-3.1,23.08-6.41,2.49-1.37,7.12-3.37,8-6.42s.51-6.42-2.77-6.88c-3.87-.54-9.54,2-13.19,3.61-.75.33-1.46.68-2.19,1-.08-.2-.15-.39-.23-.57-.21-.46,12.55-5.28,13.69-6,3.84-2.51,8.67-.74,11.94,2,1.88,1.61,4.86,4.59,7.36,5.13a4,4,0,0,0,3.28-1c1.37-1.18,1-1.82,0-3-1.37-1.6-3-3.12-4.26-4.86s-1.39-4-2.23-6.06c-.75-1.78-1.52-3.5-2.11-5.36a23.86,23.86,0,0,1-.88-4.11c-.15-.95,0-2.56-.71-3.22-1.25,2-1.54,5.06-2.58,7.31a14.08,14.08,0,0,1-4.81,6.1,29.86,29.86,0,0,1-5.34,2.84,55.57,55.57,0,0,1-6.44,2.6,85.4,85.4,0,0,0-8.8,3.17c0-.09-.06-.16-.08-.24.51-.43,1.57-1.71,1.46-2.49-.2-1.53-1.79-.74-2.7-.23-1.07.59-2,1.48-1.61,2.51a3.75,3.75,0,0,0,1,1.21c-.66.28-1.34.54-2,.81a12.09,12.09,0,0,1-.48-1.56c-.33-1.59-.2-3.16-2.19-2-1.71,1-1.08,1.84-.16,3a10.61,10.61,0,0,1,.77,1.36l-2.69,1.14a6.94,6.94,0,0,0,.25-1.19,1.69,1.69,0,0,0-2.73-1.49c-1.44,1-.45,1.92.06,2.89.12.22.18.49.28.73A33.62,33.62,0,0,0,115,41.38c-1.5,1.11-2.21,2.23-1.7,4a14.9,14.9,0,0,0,1,2.61,90,90,0,0,0-11.07,5.45c-3,1.83-5.35,2.91-6.45,3.64-1.72,1.15-3.33-.37-5,.41A7.81,7.81,0,0,0,93.08,61.44ZM118.56,48.3q2.22-1.08,4.47-2.11c.44,1.23.93,2.41,1.42,3.61C121.75,50.37,118.75,50.49,118.56,48.3Zm8.06.94c-.56-1.3-1.13-2.61-1.65-4l3-1.38c.47,1.45,1,2.91,1.53,4.32-.48.18-.94.39-1.43.57S127.19,49.07,126.62,49.24Zm-2.73-6.91L127,40.85c.07.22.15.45.23.68-1,.52-2,1-3,1.58Zm8.7-.72c.32,1,1,3.56,2,4.6-1.17.51-2.41,1-3.63,1.43-.44-1.17-.8-3.06-1.11-4.11,0-.16-.09-.32-.14-.48.94-.46,1.91-.95,2.88-1.44Zm7.59-3.31c1.44-.35,3.26-1.37,4.74-1.22,2.16.23,1.68.65.67,2.14a14.39,14.39,0,0,1-4.94,4c-1.55.87-3.15,1.63-4.77,2.38-.58-1.59-1.19-3.14-1.8-4.7.16-.08.31-.14.47-.23A27.08,27.08,0,0,1,140.18,38.3Zm-8.76.35c.08.17.14.35.21.51q-1.33.68-2.67,1.41c-.07-.2-.12-.41-.18-.6.44-.21.89-.42,1.32-.64ZM122,43.28c.09.28.19.54.28.81-.74.38-1.48.77-2.16,1.14l-.75.36A7.34,7.34,0,0,1,122,43.28Z"/><path class="cls-2" d="M84.19,47.05c.08-.21.78-.28,1.11-.67a2.64,2.64,0,0,0,.45-1.91A3,3,0,0,0,83.84,42c.9-1.5-1.43-2.53-2.54-2.76a6,6,0,0,0-3.69.47c-.92.37-.59.45-1.35,0a6.79,6.79,0,0,0-2.75-.88,10.6,10.6,0,0,0-5.07.13c-.84.27-.87.42-1.7,0a11.46,11.46,0,0,0-2.07-.87,5.7,5.7,0,0,0-4.44,0c-.65.33-1.23,1.18-1.88,1.38a11.65,11.65,0,0,1-2.76-.26C53.3,39,51.08,39,49.07,40.25a5.17,5.17,0,0,0-2.82,4.19c-.16.9-1,2-.39,2.89-1.71-.34-3.16,1.79-4.23,2.9a17.2,17.2,0,0,0-3.08,4.5c-1.92,4.09-.74,8.6,1.9,12-2.77.45-3.5,5.14-3,7.3a10.91,10.91,0,0,0,2.84,5,13.24,13.24,0,0,0,7.93,3.26,1.69,1.69,0,0,0-.3-.47c-1.68,1.88-.12,6.36,1,8.19a5.51,5.51,0,0,0,3.66,2.55c2.88.63,7.53-1.51,8.3-4.58,2.14,1.85,8,1.7,8.21-1.89.14-2.9-2.48-6.54-4.6-8.15,1.71-1.53.22-4.63.33-6.44.19-3.29.34-5.26-.82-8.38A11.67,11.67,0,0,1,66,64.6a28.54,28.54,0,0,1,1.44,3.52c.68,1.5.75,2.14,2.27,1.09,1.36-.94,1.33-1.74.84-3.09A6.14,6.14,0,0,1,70.4,65a14.92,14.92,0,0,0-.74-3.29,5.14,5.14,0,0,1-.08-3.93,13,13,0,0,1,.83-2.07,3.4,3.4,0,0,1,.43-.6c.44-.41.34-.16.83-.36.86-.33,1.78-.66,2.6-1,1-.46,1-1.43,1.69-2.26a6.73,6.73,0,0,1,2.48-2.2c1.19-.56,1.55-.28,2.53.34s3.6,2.47,4.61,1.08.22-3.09-.75-4"/><path class="cls-2" d="M94.46,92.85c4.53,1.61,7.31,2.14,6.79-4,1.9.43,6.19,4.88,8.1,2.66a23.14,23.14,0,0,0,.19-5.28c-.46-.88-3.68-1.87-4.44-1.87,3.27-1.65.33-5.72-1-7.8-2.16,1.92-4,6.1-4.67,8.84A3.08,3.08,0,0,0,95.54,84c-1.9.65-1.39,2.24-2.62,3.25-2.43,2.06-5.87-2.56-8.16-.24.26,2.24,3.13,4.52,3.71,6.91s-2,3.43-.77,5.41C89.67,98.1,94.82,94.77,94.46,92.85Z"/><path class="cls-2" d="M39.46,43.83c1.72-.61.51-3.85-.35-4.92-1.73-2.18-5.13-3.68-7.77-2.63a4.27,4.27,0,0,0,.4.76c1.78-3.77-5.83-3.06-7.4-2.46-1.79.68-4.51,2.07-5,4.1-.39,1.46.47,2.41,1,3.7-8-.61-10,17-4,16.67-.88-2.4-2.09,1.66-2.19,2.38a14.58,14.58,0,0,0,2.62,10,8.5,8.5,0,0,0,7,3.22c2.11-.26,2.88-1.44,1.47-3.17a.44.44,0,0,0-.47.21c1.29,3.17,5,7.94,9.07,5.41,2.7-1.69,1.67-5.19,1.37-7.5,3.8,5.43,7.18-5.64,4.89-8.85,2.36,2.93,4.22-2.21,4.72-3.76.73-2.25,1-5.56-.42-7.54,3.78.34-2.71-8.9-3.7-5.45"/><path class="cls-1" d="M44.92,47.28c0,.27-3,2.82-3.61,3.74a26.39,26.39,0,0,0-3.15,6.76,16.71,16.71,0,0,0,1,12.44c-5,2.13-2.43-11.07-1.85-12.77.78-2.29,2.62-3.81,4.09-5.43,1-1.1,2.5-4.17,3.26-4.61"/><path class="cls-2" d="M75.48,122.91a9.77,9.77,0,0,0,4.3,2c6.84,1.15,13.84-2.31,20.34-3.88,8.56-2.08,15.7-5.3,23.89-8.82,8.66-3.74,16.29-3.66,18-14.51,1.76-11.06.5-22.2.72-33.3.07-3.12-.15-6.29-.37-9.48-.19-2.49,0-5.21-.68-7.64-4.26.3-9.72-.57-14,.7.1.87.47,1.83.54,2.68a22.69,22.69,0,0,1,0,4.36c-.28,3.23-.55,6.56-.82,9.81-.54,6.64-.81,13.54-1.89,20.14-.78,4.81-.74,11-6.81,11.85a225.12,225.12,0,0,1-28.67,2.07c-8.29.07-17.39.88-19.9,10.12C68.87,113.72,71.41,119.78,75.48,122.91Z"/><path class="cls-3" d="M124.9,36.4c0,.14.09.27.14.39a7.9,7.9,0,0,1,.51,1.63,13.88,13.88,0,0,0,.59,2,31.9,31.9,0,0,1,1,4.53c.31,2.15,0,3.23,2.31,3.06,2.18-.16,4.36-.46,6.52-.61.41,0,5.79-.07,5.63-.55-1-3-.08-6.81-1.1-9.83a16.22,16.22,0,0,0-3.09-4.88c-1.14-1.4-2-2.75-2.9-4.17-.47-.71-.83-1.52-1.37-2.18s-1-1.28-1.55-1.9c-.29-.32-.85-.7-1.26-.35a1.55,1.55,0,0,0-.39,1.21,11.66,11.66,0,0,0,.79,3.36,9.18,9.18,0,0,1,.87,3.81c-.37.09-.73-.22-1-.38a7.92,7.92,0,0,0-1.43-.64,8.26,8.26,0,0,0-1.09-.18,2,2,0,0,0-.86-.06c-.64.23-.42,1.35-.3,1.89a7.56,7.56,0,0,1,.46,2.06,2.24,2.24,0,0,1-.8-.11l-.91-.17c-.59-.1-1.11-.19-1,.58A8.57,8.57,0,0,0,124.9,36.4ZM132.23,33c-.27-.14-.61-.28-.92-.43A1.62,1.62,0,0,1,132.23,33Z"/><path class="cls-1" d="M178.4,10.18c1.95-2.54.85-5.54,5-6.77,3.44-1,7.13-.65,9.78-3.41a23,23,0,0,1-4.7,9.66c-1.28,1.51-2.2,2.85-4.26,2.89-1.69,0-3.05-1.25-4.39-1.19"/><path class="cls-1" d="M176.72,27.28c2.71,2.45,9.11,5.23,12.76,4.78,4.33-.53,10.32-6.81,14.69-4.31-2.95-3.66-7.81-3.52-12-3.54C186.77,24.18,176.72,27.28,176.72,27.28Z"/><path class="cls-3" d="M113,43.6c0-.08-.07-.62-.09-.87,0-.62,0-1.25,0-1.87,0-1.33,0-2.63-.14-3.94-.07-.92,0-1.88,0-2.81a6.81,6.81,0,0,1,.09-1.92c.16-.49.41-1.28,1-1.26s1.05,1,1.24,1.5a25.75,25.75,0,0,1,1,4.74c.08.52.1,1.06.15,1.6,0,.35,0,1.15.18,1.42.51-.26.46-1,.71-1.42a1.37,1.37,0,0,1,1.33-.87c.53,0,1,.49,1.5.77a3.44,3.44,0,0,1,1.25,1.47c.42.78.7,1.54-.45,1.56a6.27,6.27,0,0,1-2,0c-.94-.32-2.78-.7-3.74-.15a4.75,4.75,0,0,0-1.9,1.95l-.13,0a.75.75,0,0,0,0,.3"/></g></g></svg>