<svg xmlns="http://www.w3.org/2000/svg" viewBox="0 0 254.93 147.54"><defs><style>.cls-1{fill:#007293;}.cls-2{fill:#1d1d1b;}.cls-3{fill:#e30613;}.cls-4{fill:#fff;}.cls-5{fill:#e63027;}</style></defs><g id="Ebene_2" data-name="Ebene 2"><g id="Ebene_1-2" data-name="Ebene 1"><path class="cls-1" d="M107.09,48.91c.09.67-.77,1.93-1.06,2.62-.84,2-1.52,3.93-2.22,6-.6,1.74-.92,3.54-1.57,5.26-.85,2.26-1.81,4.43-2.82,6.62A36.84,36.84,0,0,1,94,77.81c-1.36,1.58-2.72,4.28-5,2.47C86.15,78,86,73.91,85.31,70.62c-.37-1.79-.72-3.48-1.2-5.22-.35-1.27-.65-2.52-.94-3.8A21.43,21.43,0,0,0,81,55.82a19.87,19.87,0,0,0-7-7.6c-3.51-2-6.83-1-10.48,0-2.49.7-5.08,1.84-7.71,1.91a24.09,24.09,0,0,1-3.39-.38c-.87-.1-1.76-.37-2.62-.55-.52-.1-1.75-.29-1-1,.42-.41,1.67-.08,2.18,0,1.62.08,3.28.15,4.93.29,1.26.11,3.15.08,4.16-1,1.56-1.57-1.37-1.75-2.35-1.54a33,33,0,0,1-6,.24c-.82,0-1.7.14-1.94-.79s.58-1,1.37-1.05a30.12,30.12,0,0,1,4.64-.19c.73,0,4.87.4,4.61-1.11-1.27-.44-2.6-.19-3.91-.46-.47-.1-1.35-.07-1.56-.56s.34-1.06.78-1.19c.67-.2,1.39.24,2.06.29.51,0,1.11,0,1.57,0,1.4,0,2.82-.22,4.22-.28A12,12,0,0,0,66,40.53c.77-.18,1.69-.19,2.47-.3a11.14,11.14,0,0,1,5.1.35c7.17,3.16,10.09,9.75,14.2,15.87,1.22,1.83,3.25,4.8,5.06,2.06,1-1.48.31-2.92.12-4.45-.55-4.41-1.14-11.63,1.24-15.7.5-.83.65-1,1.61-.81a8.37,8.37,0,0,1,3.57,2c1.28,1,3,1.8,4.11,3s1.48,3,3.3,3.18"/><path class="cls-1" d="M175,113.06a4.93,4.93,0,0,1,1.57-1,11.13,11.13,0,0,1,1.41-.2c.86-.21,1.69-.59,2.56-.83,2.18-.61,4.23-1.37,6.37-2.13a26.22,26.22,0,0,1,3.65-1.16c1.11-.22,2,.52,3.07.87,1.24.42,2.17-.4,2.87-1.28s1.41-2.3.44-3.28c-.49-.5-1.44-.52-2.08-.69-.22-.06-.76-.13-.9-.33-.24-.36.2-1,.29-1.45.19-.9.08-2.48-1-2.55-.19.37-1.09,1.82-1.59,1.82-.81,0-.11-1.71-.26-2.24s-1-2-1.61-1.7c-.38.18-.37.75-.44,1.1a2.6,2.6,0,0,1-.67,1.38c-.81-.53.57-2.25-1-2.58-1.1-.24-1.67,1.43-2,2.14a14.12,14.12,0,0,1-1.49,3.14,25,25,0,0,1-2.21,2.4c-1.31,1.3-2.16,3-3.56,4.15-.41.36-.95.72-1.11,1.27a1.62,1.62,0,0,0,.62,1.74"/><path class="cls-1" d="M46.43,13.67A18.91,18.91,0,0,1,38,17.51c-.74,1-1.92,2.34-1.6,3.79s1.22,1.67,1.19,3.43c0,1.49-.91,3-.94,4.45s.75,2.45.44,3.9c4.61,3.45,12.73,4.88,18.53,4.69,2.9-.1,5.31-1,8.2-1.38l.19,0c1.84-.24,3.69-.33,5.53-.56,1.06-.13,2.16-.31,3.21-.54a37.63,37.63,0,0,1,4.9-1,23.07,23.07,0,0,1,3.77-.3,2.94,2.94,0,0,1,.79.19l.76.34a8.18,8.18,0,0,0,1.93.82,7.37,7.37,0,0,0,3.37-.1c.52-.16,1-.33,1.55-.52a2.53,2.53,0,0,0,.51-.22,2,2,0,0,0,.93-.75,4.33,4.33,0,0,1,.7-1.06A9.69,9.69,0,0,0,93.58,30a16.19,16.19,0,0,0,.72-2.84,6.18,6.18,0,0,0-.57-3.56A20.23,20.23,0,0,0,92,20.18a7.82,7.82,0,0,0-2.15-2.48,5.47,5.47,0,0,0-1.7-.64,8.32,8.32,0,0,0-3.58-.13c-.84.18-1.66.35-2.47.57-.59.16-1.22.28-1.81.49a9.12,9.12,0,0,1-1.5.58c-.57.09-1.19.11-1.78.19s-1.23.09-1.85.12a16,16,0,0,1-3.79-.11c-2.79-.5-2.46-2.22-3.84-4.49a16.2,16.2,0,0,0-4.41-4.61C57.93,6,53.23,6.75,49,11.24a26.81,26.81,0,0,1-2.55,2.43"/><path class="cls-2" d="M63.52,3.89a5.74,5.74,0,0,0-2.07-2.35c-.57-.24-.48.64-.53,1-.12.85-1,.83-1.54.33-.3-.28-.52-.61-.82-.9A7.86,7.86,0,0,0,57.11.84c-.55-.33-1.9-1.32-2.45-.56s.26,1.7.18,2.48c-.12,1.13-1.12,1.48-2.17,1.51-1.31,0-6.21-.27-5.39,2.08.2.56.75,1.09.45,1.73-.38.8-1.09,1.4-1.41,2.26s.39,1.46,1.27,1.37a5.44,5.44,0,0,0,1.8-.82,19.64,19.64,0,0,1,2.85-1.27A15.36,15.36,0,0,1,54.43,9a8,8,0,0,1,2,0c2.14.19,4.94,1.41,5.57,3.58a7.25,7.25,0,0,1,.15,2.54,8,8,0,0,1-1.45,4c-.62.95-1.41,1.81-2,2.78-.28.46-1,1.4,0,1.49.25,0,.51-.07.76-.05s.64.22.8.1.24-.6.31-.79a6.78,6.78,0,0,1,.69-1.27c.77-1.27,1.62-2.94,3.4-2.7a4.63,4.63,0,0,1,1.85.67,3.57,3.57,0,0,0,1.69.71,4.48,4.48,0,0,0,1.75-.16c.42-.16,1.11-.57,1.2-1s-.2-.75-.43-1.14a19,19,0,0,0-1.42-1.92c-.42-.56-.79-1.14-1.27-1.68a8.17,8.17,0,0,1-1.12-1.57c-.29-.56-.67-1.13-.9-1.71s-.43-1.2-.61-1.79c-.07-.23-.09-.47-.14-.7a9,9,0,0,0-.45-1.12,4.68,4.68,0,0,1-.16-.83A9.6,9.6,0,0,0,63.52,3.89Z"/><path class="cls-2" d="M37.46,23.46c-.09-.08.26,0,.39,0l.93.2a4.92,4.92,0,0,1,2.35,1.16,7.81,7.81,0,0,0,3,1.74,4.67,4.67,0,0,0,2.26,0c-.24.31-.75.44-1.1.63a6.5,6.5,0,0,1-1.78.57,5.14,5.14,0,0,1-1.75,0,7,7,0,0,1-1.69-.73c-1-.49-1.59-1.34-2.54-1.79a.73.73,0,0,1-.51-.82,2.37,2.37,0,0,1,.48-1.24"/><path class="cls-2" d="M47.2,15.21a6,6,0,0,1,1.68-1.71c.37-.24.75-.39,1.1-.65a2.88,2.88,0,0,1,1-.46,9.83,9.83,0,0,1,6.78.44,4,4,0,0,1,1.28.82A1.92,1.92,0,0,1,59.27,15a8.92,8.92,0,0,1-.6,2.28,7.65,7.65,0,0,1-1,2,15.91,15.91,0,0,1-1.17,1.41c0-.41.42-.86.55-1.26a8.13,8.13,0,0,0,.24-1.83,4,4,0,0,0-.29-2,3.88,3.88,0,0,0-2.61-1.46,4.89,4.89,0,0,0-2.25-.07,13.56,13.56,0,0,0-1.77.58,5.14,5.14,0,0,1-1.89.54c-.36,0-1.2.25-1.44-.1"/><path class="cls-2" d="M53.76,19.78c-.29.36-1,.33-1.44.29a2.57,2.57,0,0,1-1.56-.72,2.52,2.52,0,0,1-1-2.69,10.22,10.22,0,0,1-1.33.93,1.3,1.3,0,0,0,.7-.11,13.09,13.09,0,0,0-.31,1.75.8.8,0,0,0,.15,0c.1-.18.39-.53.61-.47a5.44,5.44,0,0,0-.11.81,4.52,4.52,0,0,0,.19.87c.27-.13.76-.76.83-.21,0,.18-.08.39-.06.59a2.11,2.11,0,0,0,.32.92c.14-.13.21-.51.33-.71a1.36,1.36,0,0,1,.6-.54A4.74,4.74,0,0,0,52.83,22c0-.25-.24-1.32.22-1.37a2.44,2.44,0,0,0,1.19,1.14,5.66,5.66,0,0,1-.65-1.7,2.12,2.12,0,0,0,1.93.61,16.3,16.3,0,0,1-2-1.07"/><path class="cls-2" d="M55,8.54a11.45,11.45,0,0,1,2.72.13,7.57,7.57,0,0,1,3,.89A6.93,6.93,0,0,1,63,16.05c-.68,2.51-2.5,4.37-4.1,6.36-.56.7-4.18,6-1.61,6.18,1,.07,1.87-1.35,2.3-2,.7-1.14,1-2.47,1.65-3.67a7.74,7.74,0,0,1,3-3.54c1-.49,1.72-.16,2.76.15a12.78,12.78,0,0,0,2.86.94c1.12,0,1.86-.68,2.78-1.11a2.6,2.6,0,0,1,1-.31c.34,0,.64-.12,1-.14h.7c.58,0,1.17,0,1.74-.06.25,0,1.18.18,1.14-.25,0-.19-.34-.35-.49-.46-.41-.3-.85-.58-1.28-.86a19.73,19.73,0,0,1-2.35-1.73c-.38-.32-.79-.6-1.17-.92a1.17,1.17,0,0,1-.3-.33c0-.11,0-.22-.08-.33a7.82,7.82,0,0,0-.55-.86,20.09,20.09,0,0,0-4.62-4.9c-.68-.51-2.82-1.49-2.86-2.34"/><path class="cls-1" d="M30.15,46.54c-.28-.6-.52-1.24-.77-1.85s-.47-1.31-.77-1.93c-.44-.93-.8-1.89-1.27-2.81-.32-.63-.66-1.26-1-1.88a3,3,0,0,0-.64-.74c-.22-.22-.38-.51-.62-.73s-.47-.37-.71-.54a1.18,1.18,0,0,0-.31-.24c-.09,0-.18,0-.27,0a6.71,6.71,0,0,1-.77-.35c-.51-.23-1-.45-1.55-.63a7.11,7.11,0,0,0-3.39-.36,39,39,0,0,0-3.81.84c-1.25.33-2.64,1.19-4,.55a13,13,0,0,1-2.54-2.39c-1.11-1.07-2.19-2.11-3.18-3.16a6,6,0,0,1-1.17-1.53c-.26-.69,0-1.28-.11-2,1.33-.64,3.32,1.78,4.3,2.57,1.63,1.31,3.1,2.49,5.27,2.66.61-1.31-3-3.64-3.85-4.34-1.5-1.21-2.76-2.49-2.7-4.35,1.48,0,2.54,1.46,3.5,2.41a14.39,14.39,0,0,0,3.78,2.8c.63-1.71-2.56-3.36-2.18-5.16.75,0,.85-.14,1.46.24a9.57,9.57,0,0,1,1.19,1.34,15.74,15.74,0,0,0,2.19,1.93,14.59,14.59,0,0,0,6.48,1.8,10.56,10.56,0,0,1,3.09.19,6.65,6.65,0,0,1,2.45,2,26.15,26.15,0,0,1,5.44,8.84c1.14,3.62,4,6.6,6,9.8a109.88,109.88,0,0,0,7.06,10.05c1.15,1.47,2.48,2.78,3.6,4.28,1.43,1.91,2.9,3.85,4.52,5.62A49.78,49.78,0,0,0,68.66,80.28a14.82,14.82,0,0,0,12.68-.22c5.48-2.75,10.24-6.36,12.75-12a30.09,30.09,0,0,0,2.28-8.78c.53-4.65,4.64-5.95,9-5.47a56.5,56.5,0,0,1,8.72,1.81,17.33,17.33,0,0,1,3,1.09c2.24,1.09,1,5.27.57,7.2A33.92,33.92,0,0,1,114,72.72,49,49,0,0,1,100.9,87.64c-3.89,2.9-9,4.7-13.73,5.86s-9.75,2.1-14.56,1c-1.78-.4-2.69-1.73-4.25-2.55-2.23-1.16-4.62-2-6.68-3.47C60,87.27,58.11,86.15,56.5,84.8a44.23,44.23,0,0,1-4.28-3.45c-1.63-1.75-3.48-3.33-5.21-5a41.22,41.22,0,0,1-5.29-7l-.87-1.28c-.14-.19-.33-.31-.47-.49s-.36-.55-.54-.82c-.35-.55-.68-1.1-1-1.67-.65-1.11-1.27-2.24-1.89-3.37-.28-.5-.55-1-.84-1.49s-.37-.74-.57-1.11c-.43-.83-.86-1.68-1.36-2.47a13.25,13.25,0,0,1-1.12-2.56c-.22-.61-.5-1.19-.69-1.82-.1-.31-.24-.6-.34-.91s-.24-.72-.38-1.06c-.5-1.23-.9-2.49-1.47-3.69C30.17,46.57,30.16,46.56,30.15,46.54Z"/><path class="cls-1" d="M91.4,16c5-3.68,12.58-4.87,18.89-5.34a87.72,87.72,0,0,1,24.25,1.59c11.49,2.46,21.27,8.58,30.28,15.94,7.85,6.42,15.93,13.55,20.1,22.62.83,1.82,1.61,3.71,2.28,5.58,1.36,3.82,1.55,7.83,1.83,11.84a118.55,118.55,0,0,1-.57,25.94c-1.36,9.09-3.45,18.47-9.58,25.62-2.47,2.88-5,4-8.2,5.78-4.17,2.3-7.86,5.86-11.74,8.63a15.68,15.68,0,0,1,8.1-2.09c3.08,0,5.8-1.85,8.79-2.36a45.42,45.42,0,0,0,9-2.93c4.93-2,10.18-3.1,15-5.18a96.5,96.5,0,0,1,14.7-5c1.79-.43,3.54-1,5.3-1.49,2.12-.61,2.52-.79,3.54-2.77,1.62-3.11,4.15-6.81,8.35-4.7,1.48.73,2.33,2.65,2.82,4.1s.21,3.87.88,5a37.25,37.25,0,0,0,2.86,4.44c2,2.55,4.61,2.77,7.65,2.95,1.17.07,4-.87,4,1.19-3.39,1.06.1,1.77,1.53,1.85.69,0,2-.52,1.54.94-.16.54-1.37,1-1.71,1.36,1.15.43,3.57-.12,3.61,1.52,0,1.2-1.88,2-2.8,2.58-2.68,1.58-7.15-.33-10.11-.95a22.08,22.08,0,0,1-9.2-4,11.91,11.91,0,0,0-4.58-2.11c-5.24-1.11-10.93,2.1-15.76,3.57-7,2.16-14,4.92-20.94,7.48-7.38,2.7-15.23,4.28-22.85,6.27-8,2.09-17.54,4.53-25.84,3.43-6.84-.91-15.48-9.36-12.2-15.89,1.57-3.12,4.71-5.29,7.15-7.85s5-5.13,7.67-7.58c5.14-4.67,9.33-9.64,13.85-14.54,8.37-9.08,3.55-21.57-3.74-29.86a5.14,5.14,0,0,1-.94-1.58,14.4,14.4,0,0,0-1.26-2c-1-1.52-2.07-3-3-4.56-1.81-3-3.9-5.87-5.87-8.78a88.79,88.79,0,0,0-8.8-11.47,28.6,28.6,0,0,0-5.16-3.91,29.44,29.44,0,0,0-5.11-2.79,12.32,12.32,0,0,0-6.2-.92c-2.08.25-4.2.56-6.29.6a27.68,27.68,0,0,1-6.3-.9,16.94,16.94,0,0,1-3.65-1,15.43,15.43,0,0,1-3.07-2.46c-3-2.52-7.21-5.21-9.1-8.68-2.22-4.08,1.78-5.58,2-9.58"/><path class="cls-1" d="M163.63,73.61s0,0,0,0A21.91,21.91,0,0,0,161.27,70,29.21,29.21,0,0,0,157.49,66a14.29,14.29,0,0,0-2.08-1.56,4.23,4.23,0,0,0-1.11-.54c-.46-.11-.94-.15-1.41-.25a6.5,6.5,0,0,0-.77-.12c-.31,0-.92.28-1,.59s.14.47.25.66a8,8,0,0,1,.46,1,7.51,7.51,0,0,1,.42,1.32,6,6,0,0,1,.12,1.2,5.81,5.81,0,0,1-.18,1.17,3.79,3.79,0,0,1-.14.48,10.57,10.57,0,0,1-2,3,23.63,23.63,0,0,1-3.59,3.55A235.51,235.51,0,0,1,126,90.3c-6,3.73-12.61,6.91-17.63,12-4,4-8.26,12.17-3.75,17.18,6.1,6.79,13.76,2.43,20.62,0a58.3,58.3,0,0,1,10.8-3c2.4-.36,4.8-.53,7.28-.82,3.91-.45,7.51-.88,11.39-1.12a4.24,4.24,0,0,0,1.36-.29c1.8-.75,2.93-2.83,4-4.38s2.19-3.61,1.14-5.36c-1-1.56-3-1.63-4.61-1.59a64,64,0,0,0-7.68.78c-2.21.33-4.39.91-6.58,1.35a37.72,37.72,0,0,0-3.9,1.12c-1,.31-2.39.38-3.17,1.12.74-.71,2.17-1,3.11-1.44a29.89,29.89,0,0,1,3.46-1.61c1.09-.37,2.14-.81,3.22-1.19.53-.18,1.07-.35,1.62-.49.28-.07.56-.12.85-.17l.34,0a2.79,2.79,0,0,0,.35-.11,5.1,5.1,0,0,1,.95-.16,15.13,15.13,0,0,0,1.5-.25c.84-.11,1.63-.33,2.46-.5a22,22,0,0,0,6.18-2c.43-.25.83-.54,1.25-.81a6.63,6.63,0,0,0,1.13-.84c.62-.61,1.16-1.3,1.73-2a12.55,12.55,0,0,0,1.9-3.34c.2-.47.4-.95.57-1.43s.28-1,.42-1.43a11.55,11.55,0,0,0,.5-2.39,11,11,0,0,0,0-1.82,5.89,5.89,0,0,1-.07-1.51,4.86,4.86,0,0,0-.16-1.51c-.12-.57-.24-1.13-.39-1.7a34.45,34.45,0,0,0-2.41-6.59A1.51,1.51,0,0,1,163.63,73.61Z"/><path class="cls-3" d="M90.28,14.27a81.46,81.46,0,0,0,11.25-5,51.52,51.52,0,0,1,21.4-5.88c8.27-.27,18.7,2.68,26.18,6.08,11.24,5.11,21.62,10.68,27.21,21.86.66,1.3,1.5,2.52,2.27,3.75s1.55,2.2,1.47,3.62c-.07,1.1-1.41,1.4-2.26,1.88-2.27,1.29-4.34,2.87-6.74,4-2.94,1.33-5.82,2.76-8.76,4.1-3.47,1.59-6.57,3.88-10,5.48-2.08,1-4.28,1.87-6.29,3-1,.52-2.46,1.56-3.37.4a4,4,0,0,1-.46-1.44,8.42,8.42,0,0,0-1.32-2.28c-2.32-3.29-4.87-6.41-7.51-9.47a39.36,39.36,0,0,0-4.15-4.22c-2.36-2-1.66,1.63-1.84,3.07-.27,2.19-.78,4.36-1.24,6.53a38.56,38.56,0,0,1-3.16,9.09c-1.11,2.26-2.18,5.44-5.34,5-5.94-.72-11.29-3.17-16.76-5.37-1.66-.66-3-.8-3.56-2.56-.38-1.17.21-2.61.57-3.76.47-1.51,1.17-3,1.73-4.5a15.61,15.61,0,0,0,.65-1.89c.21-.9.27-1.28-.39-1.81-1.63-1.31-4-2.16-5.87-3.12-3.88-2-7.81-3.93-11.52-6.23,4.2-1.27,11.23-4.51,8.87-10.13a9.47,9.47,0,0,0-1-1.79A11.9,11.9,0,0,0,88.93,21a13,13,0,0,0-1.7-1.45,11,11,0,0,0-1.91-1.1,8.51,8.51,0,0,0-2-.62,7,7,0,0,0-.79-.08h-.4l-.19,0c-.06,0-.14,0-.2,0s0-.05.07-.06l.12,0,.23,0a3.33,3.33,0,0,0,.51-.16c.36-.12.71-.25,1.06-.39.76-.29,1.5-.62,2.24-.95l2.21-1c.66-.3,1.33-.59,2-.84Z"/><path class="cls-4" d="M123.53,45.39a18.62,18.62,0,0,0-8.67-.84,65.54,65.54,0,0,0-15.71,4.17c.11-.26.22-.52.32-.78a40.41,40.41,0,0,1,4.35-3.26,34.36,34.36,0,0,1,9-4.58,24.49,24.49,0,0,1,8.43-1c1.84.12,4.63.37,6.09,1.78,0,.79,0,1.74,0,2.32-.17,1.39-.44,2.78-.73,4.16A9.33,9.33,0,0,0,123.53,45.39Z"/><path class="cls-4" d="M122.87,58.94c-2.66-1.16-5.32-2.27-8.07-3.24q-4.55-1.62-9.11-3.19a28,28,0,0,0-7.36-1.73c.14-.36.28-.72.43-1.08,3.67.11,7.33.45,11,.82,2.46.24,4.93.45,7.37.82a29.75,29.75,0,0,1,7.21,1.79c.25.1.5.22.76.34a39.48,39.48,0,0,1-2.16,5.34Z"/><path class="cls-4" d="M104.2,56.31c2.66,1.3,5.36,2.51,8.08,3.68,2.57,1.1,5.14,2.2,7.68,3.35a3.39,3.39,0,0,1-2.37.52c-5.94-.72-11.29-3.17-16.76-5.37-1.66-.66-3-.8-3.56-2.56a4.36,4.36,0,0,1,.17-2.51A52.23,52.23,0,0,1,104.2,56.31Z"/><path class="cls-4" d="M117.81,24.44a41.21,41.21,0,0,0-.66-8A30.24,30.24,0,0,0,112.76,5c1.09-.28,2.19-.52,3.29-.74l.46.54c3.3,4.06,4.66,9.44,5.16,14.47a27.08,27.08,0,0,1,0,7.47c-.53,2.86-1.9,5.47-2.52,8.3,0,.06,0,.1.07.12a2.41,2.41,0,0,0-.38,0,17.14,17.14,0,0,0-2.68.27,4.07,4.07,0,0,1,.12-1.93c.19-.85.43-1.69.66-2.52a15,15,0,0,0,.7-2.94C117.71,26.82,117.8,25.64,117.81,24.44Z"/><path class="cls-4" d="M124.2,3.41a45.65,45.65,0,0,1,6.65.58c.07.35.13.71.19,1.06a22.85,22.85,0,0,1,.28,4.6,53.44,53.44,0,0,1-1.36,9.5A40.3,40.3,0,0,1,127.09,28a31.79,31.79,0,0,1-2.2,3.95,18,18,0,0,0-2.15,3.6,12.62,12.62,0,0,0-1.51-.31c.83-3.27,2.37-6.31,3.26-9.56a40.59,40.59,0,0,0,1.31-9A41.38,41.38,0,0,0,124.2,3.41Z"/><path class="cls-4" d="M124.69,36.17a.12.12,0,0,0,.08,0l.39-.4a77.33,77.33,0,0,0,6.46-7.1,31.44,31.44,0,0,0,4.46-8.58,49.05,49.05,0,0,0,2.56-14.34c2.37.67,4.68,1.45,6.84,2.29-1.17,5.9-4.19,11.34-7.59,16.28-.87,1.27-1.76,2.55-2.72,3.75a25,25,0,0,1-3.12,3.14c-2.12,1.83-4.46,3.52-6.14,5.78a11,11,0,0,0-1.32-.69A.28.28,0,0,1,124.69,36.17Z"/><path class="cls-4" d="M151.05,20a79.29,79.29,0,0,1-6.79,7.41A74.44,74.44,0,0,1,136.62,34a42.72,42.72,0,0,1-8.1,5.08.1.1,0,0,0-.06,0A12.07,12.07,0,0,0,127,37.73l.13-.08a54.61,54.61,0,0,0,7.6-5.25,51.48,51.48,0,0,0,6.78-6.91,36.22,36.22,0,0,0,5.22-8.15c1.11-2.52,1.51-5.24,2.28-7.85l.06,0c2.32,1.06,4.61,2.14,6.83,3.28C154.37,15.24,152.86,17.73,151.05,20Z"/><path class="cls-4" d="M163,23.66a78.76,78.76,0,0,1-15.75,11.58c-2.78,1.54-5.61,3-8.46,4.46a45.22,45.22,0,0,1-4.56,2c-.78.29-1.56.56-2.36.78l-.13,0c-.56-.6-1.14-1.17-1.73-1.72l.29-.07a15.17,15.17,0,0,0,2-1A76.49,76.49,0,0,0,141,34.52c2.84-2,5.65-4.12,8.37-6.3a52.75,52.75,0,0,0,7.12-6.73c1.6-1.89,3.14-3.85,4.88-5.63a52,52,0,0,1,5.4,3.83C165.58,21.06,164.3,22.39,163,23.66Z"/><path class="cls-4" d="M171.77,31.45c-3,1.87-6.13,3.6-9.21,5.35s-6.19,3.55-9.34,5.25S147,45.15,144,46.79c-1.23.66-2.44,1.34-3.7,2a13.57,13.57,0,0,0-2.44,1.3c-.65-.85-1.3-1.7-2-2.55.55-.82,2.27-.85,3.1-.92a17,17,0,0,0,4.15-1,44,44,0,0,0,8.94-4.28,58.12,58.12,0,0,0,7.45-5.87c2.48-2.27,5-4.42,7.66-6.54,1.63-1.34,3.26-2.69,4.83-4.1a33.7,33.7,0,0,1,3.32,4.74C174.19,30.23,172.91,30.75,171.77,31.45Z"/><path class="cls-4" d="M146.44,47.51c2.6-1,5.27-1.84,7.81-3,3.24-1.45,6.43-3,9.62-4.51,2.89-1.38,5.77-2.72,8.77-3.85a37,37,0,0,0,5-2.16l1.49,3c-2,.81-4.05,1.45-6.09,2.13a40.25,40.25,0,0,0-8.55,3.81c-2.74,1.68-5.29,3.66-8.1,5.23-1.53.85-3.11,1.62-4.66,2.45a33.31,33.31,0,0,0-4.32,2.81,40.29,40.29,0,0,1-4,2.91l-.63.33c-.71-1-1.44-2-2.26-3l-1.55-2A23.32,23.32,0,0,1,146.44,47.51Z"/><path class="cls-4" d="M109.87,5.81l.47.69c5.76,9,3.79,20.34,1.74,30a22.06,22.06,0,0,0-2.82,1.34,7.77,7.77,0,0,1,.28-1.13l0-.05a32.94,32.94,0,0,0,1.58-11.29A50.79,50.79,0,0,0,109,10.88a40.14,40.14,0,0,0-1.53-4.22C108.23,6.36,109.05,6.08,109.87,5.81Z"/><path class="cls-4" d="M102.3,13.76a23.83,23.83,0,0,1,2.86,9.36A39.5,39.5,0,0,1,104.91,34a27.28,27.28,0,0,1-3.12,9.41c-.25.42-.51.84-.8,1.24-1.56-.9-3.15-1.76-4.75-2.6a15.31,15.31,0,0,0,1.27-2.44,29.37,29.37,0,0,0,2-7.82,39.63,39.63,0,0,0,.14-8.91,25.45,25.45,0,0,0-2-8A14.47,14.47,0,0,0,96,12c1.12-.49,2.23-1,3.35-1.56A10.94,10.94,0,0,1,102.3,13.76Z"/><path class="cls-4" d="M92.7,21.17a22.59,22.59,0,0,1,1.76,9.31A15.94,15.94,0,0,1,92.2,39a8.05,8.05,0,0,1-.49.66c-3.2-1.64-6.35-3.27-9.27-5.08,4.2-1.27,11.23-4.51,8.87-10.13-1.44-3.44-5.61-7-9.48-6.73a42.86,42.86,0,0,0,5.9-2.4A11,11,0,0,1,92.7,21.17Z"/><path class="cls-2" d="M169.11,107.16a12.12,12.12,0,0,0-7.21-3.81,6.39,6.39,0,0,0-3.19,0,12.1,12.1,0,0,0-3.46,2.26c-.37.33-.86,1.4-1.28,1.48-.62.13-1.2-.7-1.83-.75,1.62-1.94,4.46-2.73,6-4.73-1.52.38-3.27.14-4.86.33a21.74,21.74,0,0,0-3.79.64c-.85.27-2.57,1.22-3.49,1,1-1.53.92-3.74,1.15-5.49a23.69,23.69,0,0,0-.05-8.1c-.7-3.43-1.41-7-3.21-10a7.49,7.49,0,0,0,1.39-2.3,3.23,3.23,0,0,1,.68-1.53c.42-.49.91-1,1.37-1.45,1.66-1.64,3.85-3.35,4.93-5.43,1.21.39,2.93,0,4.23,0a120.68,120.68,0,0,0,16.68-.88c2.82-.39,5.67-.67,8.47-1.12a47,47,0,0,1,6.12-.41c1,0,2.51-.62,2.78.48a17.14,17.14,0,0,1,0,3.92,41.44,41.44,0,0,0,.58,6.2,38.29,38.29,0,0,0,1.76,6.28,27.62,27.62,0,0,1,.71,16.59c-1.28,5.51-5.38,9.89-8.94,14.1-3,3.5-6.45,7.48-10.4,10.09C175.39,119.17,172.86,111.3,169.11,107.16Z"/><path class="cls-4" d="M187.67,70.79a3.06,3.06,0,0,0-.09.94,5.2,5.2,0,0,0-1.76,0,11.3,11.3,0,0,0-1.74,0c.1-.46-.14-.77.3-1.06.24-.16.89,0,1.18-.06a12.34,12.34,0,0,0,2.11-.17.55.55,0,0,1-.31,0"/><path class="cls-4" d="M180.4,71.09a2.67,2.67,0,0,0-.11,1.06,14.4,14.4,0,0,0-4-.11c.13-.41-.09-.69.21-1a33.08,33.08,0,0,1,3.46.1l-.2,0"/><path class="cls-4" d="M171.56,71.05c-.16.3,0,.88-.16,1.3-1.08-.25-2.36.12-3.38,0-.19-1,0-.94.92-1a13.36,13.36,0,0,0,2.24-.24"/><path class="cls-4" d="M164.44,71.87c-.1,0-.12.08-.22,0-.07.26-.15.53-.21.78a16.54,16.54,0,0,0-3.66-.4,4.75,4.75,0,0,1,.19-.91,7.47,7.47,0,0,0,1.77,0,15.73,15.73,0,0,1,2.15.43"/><path class="cls-4" d="M156.91,71c-.25.26-.36.89-.64,1.09s-.53,0-1-.09c-.66-.2-1.57-.15-2.1-.59.67-1.62,2.29.45,3.42-.11"/><path class="cls-4" d="M152.17,70.13c-.2.4-.38.83-1,.66a4.7,4.7,0,0,1,.62-.73"/><path class="cls-4" d="M190.34,70.13a1.27,1.27,0,0,0-.27-.41c-.17.37-.82.65-.85,1a4.71,4.71,0,0,0,.8,1.41c.07-.28.32-.67.37-.88a3.51,3.51,0,0,1,.14-.84"/><path class="cls-4" d="M54.33,17.81c-.78.33-3.94-2-4.37-1.12-.35.72,1,1.39,1.51,1.58,1,.37,1.65,0,2.63-.19,0,0-.16-.17-.2-.19"/><path class="cls-2" d="M54.73,18.34a4.81,4.81,0,0,1-3.17.35c-.6-.2-1.8-1.31-1.73-2,.25,1.65,4,2.37,5.08,1.53A3.27,3.27,0,0,1,53.59,18c-.14-.07-.29-.11-.44-.18s-.47-.2-.7-.31a6.76,6.76,0,0,0-.77-.36,2.19,2.19,0,0,1-.51-.25,5.49,5.49,0,0,0-1.06-.27c-.27-.08-.18-.29-.2-.53s-.11-.54.05-.62a2.3,2.3,0,0,1,.38.32c.1.1.19.38.34.39.33,0,0-.59.12-.73.11.07.21.27.31.38a1.08,1.08,0,0,1,.24.32,1.25,1.25,0,0,0,.1.27c.16.21.22,0,.26-.18l.12-.57a4.51,4.51,0,0,1,.1.53,1.41,1.41,0,0,0,.46.62,7.72,7.72,0,0,0,.61.53c.13.09.27.13.4.21a5.52,5.52,0,0,0,.69.34c.08,0,.35.18.44.12"/><path class="cls-2" d="M50.06,17.25c-.39-.17-.26-.57,0-.79s.53-.14.85-.07.75.16.75.68a1.51,1.51,0,0,1-.4.93.58.58,0,0,1-.5.2c-.19-.06-.27-.38-.32-.54"/><path class="cls-3" d="M40.67,27.64a1.8,1.8,0,0,0-.73,0c-.24,0-.45,0-.69.05a4.34,4.34,0,0,0-.81.19,3.73,3.73,0,0,1-1,.21c-.16,0-.43,0-.55-.08-.31-.29,0-.66.22-.88s.24-.2.19-.36-.2-.28-.21-.45a2.09,2.09,0,0,1,0-.43c0-.23.14-.33.37-.36s.29.06.44.18.33.22.47.34a4.33,4.33,0,0,0,.38.34c.2.14.45.22.65.36s.48.46.74.66a2,2,0,0,0,.95.24"/><path class="cls-5" d="M12,15.37c.08,0-.22-.08-.29-.12a2.74,2.74,0,0,1-.57-.51A5.33,5.33,0,0,1,10,12.66a9.5,9.5,0,0,0-1.38-2.28A20.55,20.55,0,0,0,6.18,7.72c-.39-.38-1.38-1.08-1.89-.63a1.31,1.31,0,0,0-.45,1.09,7.52,7.52,0,0,0,.24,1.34c.13.48.56,1.06.49,1.54-.27,0-.55.09-.83.12a11.82,11.82,0,0,0-1.47.11A3.18,3.18,0,0,0,0,13.3a2,2,0,0,0,.19,1.23A6.33,6.33,0,0,0,.9,15.88a3.8,3.8,0,0,0,3,1.09,8.76,8.76,0,0,0,2.92-.38c.18-.06.33-.18.51-.26a3.5,3.5,0,0,1,.79-.19,6.23,6.23,0,0,1,1.22-.21c1,0,2.64-.35,3.24.74a.23.23,0,0,1-.14,0"/></g></g></svg>