<svg xmlns="http://www.w3.org/2000/svg" viewBox="0 0 216.52 213.52"><defs><style>.cls-1{fill:#007293;}.cls-2{fill:#e30613;}.cls-3{fill:#1d1d1b;}.cls-4{fill:#fff;}.cls-5{fill:#e63027;}</style></defs><g id="Ebene_2" data-name="Ebene 2"><g id="Ebene_1-2" data-name="Ebene 1"><path class="cls-1" d="M40.43,55a5.22,5.22,0,0,1,1.38.95,1.56,1.56,0,0,1,.45.4,3.27,3.27,0,0,1,.41.84,4.12,4.12,0,0,1,.14.78,3.24,3.24,0,0,1-.05.62,5.07,5.07,0,0,1-.09.65,1.21,1.21,0,0,1-.11.37,2.33,2.33,0,0,1-.56.52,3.59,3.59,0,0,1-.66.39,13,13,0,0,1-3.8,1.44,17,17,0,0,1-2.75.27c-1.09,0-2.16,0-3.24,0-.75,0-1.49-.16-2.23-.16a21.53,21.53,0,0,0-2.41,0,8.53,8.53,0,0,0-1.12.22,6,6,0,0,0-.84.31,14,14,0,0,0-1.57.74,29.23,29.23,0,0,1-3.18,1.68,4,4,0,0,1-1.46.27,3.4,3.4,0,0,1-.63-.08,2.54,2.54,0,0,1-.55-.1.54.54,0,0,0-.35-.08c-.2,0-.37.13-.57.15s-.59,0-.88,0a.8.8,0,0,1-.9-.75,1.49,1.49,0,0,1-1.49.32,1.72,1.72,0,0,1-.83-1.25c0-.22,0-.5-.23-.66a2.43,2.43,0,0,0-.44-.26,6.16,6.16,0,0,0-.55-.33,12,12,0,0,0-1.43-.6,3.48,3.48,0,0,1-.62-.21,1.88,1.88,0,0,0-.48-.12A4.23,4.23,0,0,0,8.08,61a19.83,19.83,0,0,0-2,0c-.2,0-.4,0-.61,0l-.54.06A6.31,6.31,0,0,0,4,61.3l-.83.19c-.29.08-.6.1-.88.2a5,5,0,0,1-.66.2,1.68,1.68,0,0,1-1.51-.23l-.08-.09c-.19-.24.13-.59.29-.75a5.37,5.37,0,0,1,1.18-.75,5.12,5.12,0,0,1,.65-.25l1-.34,1.17-.39c.23-.08.47-.16.7-.22s.48-.15.73-.21A32.27,32.27,0,0,1,9.44,58c.22,0,.45,0,.68-.06l.62-.08c.34,0,.67-.1,1-.16a2.33,2.33,0,0,0,.95-.42,6.34,6.34,0,0,0,.76-.61c.17-.19.73-.43.43-.74-.15-.15-.28-.32-.42-.48-.45-.53-.86-1.14-1.3-1.71a5.83,5.83,0,0,1-1.47-3.25c0-.62.07-1.56.62-1.63.26,0,.45.25.67.43a7.76,7.76,0,0,1,.8.73A8.12,8.12,0,0,0,14,51.12a11.13,11.13,0,0,0,1.27.89,2.39,2.39,0,0,0,1.26.41c.52,0,1-.11,1.56-.15a6.1,6.1,0,0,1,1.81,0,19.28,19.28,0,0,1,2.46.73c1.06.41,2.13.73,3.16,1.19.48.21,1,.27,1.45.43.66.23,1.33.45,2,.66a18.65,18.65,0,0,0,3.05.67c.53.07,1.08.14,1.62.16a10.48,10.48,0,0,0,2.09-.18,12.24,12.24,0,0,0,1.39-.51C38.18,55.1,39.34,54.54,40.43,55Z"/><path class="cls-1" d="M85.55,27.82,84.45,27A28.94,28.94,0,0,0,81.3,25a14.67,14.67,0,0,0-3.52-1.22,21.87,21.87,0,0,0-3.85-.6,13.06,13.06,0,0,0-4.38,1c-.67.2-1.31.47-2,.66a8.25,8.25,0,0,0-2.28.89c-1.11.7-2.17,1.52-3.23,2.29a14.93,14.93,0,0,0-2.42,2,31.39,31.39,0,0,0-3,3.8c-.53.81-.9,1.8-1.37,2.65-.72,1.32-1.35,2.7-1.94,4.07a34.36,34.36,0,0,1-2,4c-.25.42-.62.74-.86,1.16-.36.62-.7,1.26-1,1.9a5.47,5.47,0,0,1-.5.84,12.61,12.61,0,0,1-1.77,1.81c-.45.39-.9.74-1.37,1.09s-1.1.84-1.67,1.22a18.58,18.58,0,0,1-1.76,1,16.75,16.75,0,0,1-1.67.76c-.51.2-1,.42-1.54.59a10.5,10.5,0,0,1-1,.32,10.93,10.93,0,0,0-1.12.31,7.55,7.55,0,0,0-.87.4c-.12.06-.26.09-.38.14a1.83,1.83,0,0,0-.84.64,1.26,1.26,0,0,0-.2.58,3.47,3.47,0,0,0,.09,1.36c.07.27.17.54.24.82a6.24,6.24,0,0,0,.63,1.77,1.86,1.86,0,0,0,1.74.61,20.28,20.28,0,0,0,2-.25,33.27,33.27,0,0,0,3.44-.7A21.14,21.14,0,0,0,45,60.15a12.73,12.73,0,0,0,1.18-.56,7.86,7.86,0,0,0,.87-.54,9.12,9.12,0,0,1,.79-.6c.18-.1.38-.15.56-.26s.59-.42.88-.64a16.93,16.93,0,0,0,2.1-2,16.51,16.51,0,0,0,2.12-2.54c.17-.28.41-.5.57-.78s.32-.52.46-.79c.32-.64.7-1.27,1-1.92,1-2.08,1.71-4.29,2.83-6.31.85-1.53,1.42-3.11,2.14-4.69.9-2,2.42-4.42,4.36-5.49.81-.44,1.71-.72,2.54-1.11a12.16,12.16,0,0,1,3.73-1.38,15.59,15.59,0,0,1,3.19.16,20,20,0,0,1,3.68.52c1.9.54,3,1.92,4.67,2.88a6.58,6.58,0,0,1,3,3.4c.61,1.28,1.24,2.52,1.87,3.8A23.63,23.63,0,0,1,89.8,51.6c0,1.84.39,3.58.26,5.48s-.43,4.07-.76,6c-.3,1.78-.38,3.57-.75,5.24-.67,3-.39,6.19-1.16,9.15s-.41,6.22-.28,9.13c.21,4.68,1,10.3,3.72,14.19,3.34-1.28,2.91-5.51,3.61-8.56C95,89.81,96,87.38,96.29,84.9a71.3,71.3,0,0,0,.57-8.36c0-7.27.47-14.18-.1-21.34-.21-2.61,0-4.9-.28-7.49a28.69,28.69,0,0,0-1.19-5.45,34.81,34.81,0,0,0-4.22-8.67,26.36,26.36,0,0,0-3.16-3.83A17.38,17.38,0,0,0,85.55,27.82Z"/><path class="cls-1" d="M152.52,70.05c-.72,1.61-2.28,2.53-3.64,3.56-2.42,1.83-4.31,4.24-6.74,6-3,2.21-5.67,4.69-8.62,6.9l-12.78,9.61a35.38,35.38,0,0,0-5.44,4.65c-1.7,1.91-3.75,3.67-5.49,5.56a24.05,24.05,0,0,1-4.22,3.84,4.48,4.48,0,0,1-2.59.72c-4,0-9.25-3.92-12.93-1a12.43,12.43,0,0,0-2.55-4.34c-1.08-1.31-2.08-3.24-3.67-3.71.51-.83,1.5-1,2.24-1.61,1.72-1.34,1.71-3.46,2.46-5.32.36-.9.89-1.73,1.23-2.64a20,20,0,0,1,3.77-6.36,52,52,0,0,1,4.18-4c1.87-1.67,3.5-3.59,5.49-5.12A142,142,0,0,0,114.42,67c1.29-1.24,2.6-2.57,4-3.68,1.21-1,2.65-1.7,3.87-2.63,1.81-1.37,3.49-2.87,5.31-4.18,3.74-2.68,7.83-4.31,12.53-3.35A19.64,19.64,0,0,1,147.05,56c4.42,2.94,7.63,8.46,5.57,13.84A1.47,1.47,0,0,1,152.52,70.05Z"/><path class="cls-2" d="M96.81,84.76a24.87,24.87,0,0,0,2.13-1.52,3.66,3.66,0,0,1,2-1.21,6.38,6.38,0,0,1,5.86,2c3.57,3.57.45,8.52-1.78,12.15a29.11,29.11,0,0,1-4.56,5.79c-1.51,1.39-2.63,2.94-4.06,4.4-.64.66-2.48,2.2-2.51,3.16,1.91-.05,3.82.73,5.62.88.59-3.66,4-6.56,6.11-9.43s4.31-6.7,8.33-7a63.1,63.1,0,0,1,7.39.4c.71,0,2.41.54,2.89.45,1-.19,1.71-1.38,2.49-2,1.75-1.45,3.64-2.9,5.54-4.26,1.24-.89,10.06-7.22,11.52-8.63,1-1,8.4-5.48,10.73-6,3.49-.75,7.25-2,11-1.79,4.45.19,7.5,2.33,10.25,5.85,1.26,1.62,2.67,3.21,3.17,5.22.18.76-.05,1.6.13,2.37.23,1,1.63,1.55,1.43,2.66,1.08-2.31,4-4.26,5.9-6a33.34,33.34,0,0,0,6.92-8.65c2-3.53,6.09-10.25,4.42-14.52-1-2.57-5.14-4.49-7.38-5.82a42.73,42.73,0,0,0-15.21-5.73c-4.79-.72-9.61-1.08-14.4-1.7-4.05-.52-8.26-1-12.32-.29a73.34,73.34,0,0,0-14,4.47,53.8,53.8,0,0,0-11.06,6c-4,2.76-7.84,5.78-11.75,8.7a58.05,58.05,0,0,0-10.79,11.25c-2.53,3.26-5.34,6.33-7.87,9.63a27.51,27.51,0,0,1-2.42,2.86,11.49,11.49,0,0,0-2.1,2.08,18.33,18.33,0,0,0-1.21,2.85c-.54,1.43-1.5,4,.58,4.63.72-.84.86-2.07,1.34-3a14.77,14.77,0,0,0,1.24-2.57,6.23,6.23,0,0,1,1.51-2.43c.8-.88,1.66-1.69,2.45-2.55s1.36-1.71,2.17-2.46Z"/><path class="cls-2" d="M181.47,103.49h0"/><path class="cls-3" d="M183.3,84.52a22.55,22.55,0,0,1,2.75,6.59,27.49,27.49,0,0,1,1,7.38c0,5.7-1.73,10.84-2.68,16.27-.47,2.72-.77,5.49-1.23,8.15-.53,3.06-1.62,6-2.08,9.1-1.26,8.26-5.56,15.53-9.5,22.84-1.56,2.89-3.44,5.64-5,8.49-1.86,3.29-5.58,5.68-7,9.15A61.25,61.25,0,0,1,154,183.3c-2,2.95-4.14,5.88-5.9,8.95-1.42,2.48-3.93,5.37-4.45,7.95a28.46,28.46,0,0,1,6.49,1.71,21.68,21.68,0,0,0,3.13,1A22.49,22.49,0,0,0,157,203a14.62,14.62,0,0,1,.4-3.17,25.82,25.82,0,0,1,2.18-3.27,79.86,79.86,0,0,0,4.07-8c2.78-6,9.09-9.63,13.82-13.9,5.9-5.32,9.8-13.4,14-20.16a178.36,178.36,0,0,0,11.74-22.15c1.92-4.32,4.28-6.06,6.18-10.38a83,83,0,0,0,7.1-29.63c.22-4.46-1.26-9.1-2.52-13.36-1.6-5.39-5.88-9.77-8.93-14.52a15.69,15.69,0,0,0-7.31-6.2c-.15,1-.06,2.14-.21,3.2-.24,1.76-1.19,3-1.92,4.63-1.11,2.4-2.12,4.82-3.49,7.2a35.65,35.65,0,0,1-4.89,6.77c-1.45,1.55-3.47,2.48-4.71,4a13.36,13.36,0,0,1,1.57.4"/><path class="cls-3" d="M163.59,188.86c-.3,1.12-1.7,2.47-2.38,3.58a26.13,26.13,0,0,0-2.07,4.13c-1.12,2.8-2.37,6.33-2.26,9.37,1.42.21,2.57.52,3.88.78s3.29,1,4.64.74a5.58,5.58,0,0,1-.06-2.08c.65-4.51,1.31-9,3.36-13.13,1.29-2.59,3.32-4.92,4.92-7.34,2-3,3.8-6.19,5.81-9.18s4.78-5,6.51-8c1.43-2.47,2.94-4.94,4.3-7.43,2.59-4.77,4.88-9.6,7.47-14.36,1.37-2.53,2.33-5.25,3.6-7.84s3-4.72,4.33-7.21a81.25,81.25,0,0,0,4.5-9.19l3-9.82L168.2,182Z"/><path class="cls-3" d="M166.79,207.19c-1-.6,0-2.14.26-3.14-3.35,0-5.82-.75-9.13-.78a9.16,9.16,0,0,1-.43,1,8.54,8.54,0,0,1-1.22,3.47,19.68,19.68,0,0,1-1.2,1.64,17.48,17.48,0,0,0,0,2.8c1.45.57,5.32.77,5.87.83l.49,0c0-.43.24-.64.28-1,2.88.91,13.21,1.13,14.85.71,1.29-.33,3.51-.54,4.41-1.62.21-.71,1.16-1.56,1.33-2.47C182.33,208.41,168.3,208,166.79,207.19Z"/><path class="cls-2" d="M172.23,208.55a15.39,15.39,0,0,1-2.35-.08c-.3,0-.61,0-.93,0a1.87,1.87,0,0,1-.25,0c-1.24.23-2.65-.45-4.07-1-2.72-1-6.15-1-8.2-1.56.39-1.41-.07-1.95.9-3.64-4.43.05-9.23-1.89-13.58-2.21-1,2.55-3.27,6.19-3.87,9,0,0,4.75,3.3,7.9,3.21,0-.52.34-.75.42-1.22a40.77,40.77,0,0,0,11.73,2.45,24.84,24.84,0,0,0,6.17-.41c1.6-.29,4.3-.37,5.48-1.61.28-.77,1.31-1.65,1.69-2.63A5.52,5.52,0,0,1,172.23,208.55Z"/><path class="cls-3" d="M156.35,206l-.23-.27a3.53,3.53,0,0,0-.76-.52,5.22,5.22,0,0,0-2.43-.88,1.39,1.39,0,0,0-1.16,1,2.86,2.86,0,0,0,.18,2.34A2.32,2.32,0,0,0,153,208.9a1.82,1.82,0,0,0,1.6-.39,4.26,4.26,0,0,0,1.22-1.41,7.35,7.35,0,0,0,.41-1.07c0,.18-.21.27-.32.4a7.35,7.35,0,0,1-.47.6,3.05,3.05,0,0,1-1.26.74,1.55,1.55,0,0,1-1.86-1.36,2.31,2.31,0,0,1,.09-1.2c.24-.38.74-.32,1.09-.18a10.68,10.68,0,0,0,2,.78,6.23,6.23,0,0,1,.77.22,18.14,18.14,0,0,1-.05,1.95c0,.3,0,.61-.05.91s-.22.52-.15.72a4.67,4.67,0,0,1,.65-.27c.22-.06.44,0,.66-.12.44-.17.09-.6-.05-.93a12,12,0,0,1-.8-2.48c-.15-.86,0-2,.9-2.38s1.44.66,1.52,1.35a1.26,1.26,0,0,1-2,1,1,1,0,0,0,1.46-.62c.22-.51.16-1.06-.44-1.16-1.45-.24-.75,1.29-1.3,2l-.08,0"/><path class="cls-2" d="M165.77,205.73c.72-.59.94-2.29,1.59-3.13s1.93-2,2.27-.47c.46,2.16-1.52,3.44-3.26,3.52,1,.82,2.49-1.68,2-2.68-.85-.37-1.19.77-1.48,1.36a4.49,4.49,0,0,1-1.42,1.8c-.43-1.78-4.38-2.3-3.2-.29.76,1.27,3.26,1.24,4.31.72-.8.45-3.49,0-3-1.37.73-.15,1.14.43,1.64.84a2.15,2.15,0,0,0,1.95.54,5.1,5.1,0,0,0,2.09-.61c.47-.31.82-1,1.4-.7-.44.15-.21.68-.05,1-1.53-.2-3,.93-4.5.61a1.82,1.82,0,0,1,0-.57"/><path class="cls-1" d="M64.63,127.87a41.83,41.83,0,0,1-.39-12.47c.07-.46.18-.92.29-1.37a6.21,6.21,0,0,0,.35-1.26c0-.38-.08-.77,0-1.15s0-1,0-1.53c0-.76-.06-1.51-.06-2.27,0-2-.1-4,.06-5.95a19.06,19.06,0,0,1,.62-2.69,6.46,6.46,0,0,1,.69-1.85c.15-.26.9-1.24,1.11-1.15s.29.56.36.7c.15.3.3.6.44.9.32.71.63,1.43,1,2.13.22.48.42,1,.61,1.47a3.88,3.88,0,0,0,.71,1.23c.34.39.6.84.93,1.23.15.18.42.65.63.75.5.24,1.17-.65,1.47-.93A8,8,0,0,1,75,102.47c.38-.2.83,0,1.27-.24s.48-1,.87-1.3a4.09,4.09,0,0,1,3.27-.55,9.07,9.07,0,0,1,5.43,2.49c6.73,5.87,7.75,16.87,4.8,24.85-2.29,6.19-6.85,9.64-13.56,9.3-2.85-.14-6.69-1.15-8.8-3.18a14.15,14.15,0,0,1-2.47-3.52c-.49-.86-1.54-4.08-2.15-4.35"/><path class="cls-3" d="M64,126.24c.16-2.84.39-4.42,2.53-6.48,2-1.89,3.38-3.09,5.94-2.12,3.48,1.3,8.62,3.18,8.57-2.84.68,3.57,1.64,7.9-2.31,10.13,1,.41,2.89.8,2.93-.83a4.42,4.42,0,0,1-.49,3.56c2.86,0,2.79-6.16,3.11-8a4.94,4.94,0,0,1,1.09,2.86c2-2.45,1.71-5.85,1.82-8.73.65,1.13,1,2.65,1.64,3.87.83-.94.94-2.57,1-3.78,3.12.59,2,10.2,1.67,12.51-.59,4.49-3.8,8.91-8.23,10.22-4.1,1.2-8.59,1.88-12.79.1C66.6,135.08,64,131,63.13,127a23.9,23.9,0,0,1-.18-6.44c.12-2.3,1-4,1.45-6.2.89,1.91.35,5,1.18,7.1a1.68,1.68,0,0,0-.27-.45"/><path class="cls-3" d="M111.64,77.45c-.62,2.22,3,3.19,3.42.71.22-1.5-2.74-4-3.1-1.76"/><path class="cls-3" d="M120.49,70.51c0,.88-.29,1.83.93,2.38a1.9,1.9,0,0,0,2.67-1.4,2.23,2.23,0,0,0-1.15-2c-1.55-1-2.17-.07-2.48,1.53"/><path class="cls-3" d="M129.05,64.09c-.82.74-1.22,3.38.87,3.49,3.35.17.72-4.44-.62-3.21"/><path class="cls-3" d="M138.78,60.38c-.74-.46-2.51,3.82.85,3.18.44-.9.37-4.23-1.39-3"/><path class="cls-3" d="M145.82,57.58c-2.09-.49-.82,3.18,1.15,3.26,3.77.15.48-5.41-.6-3.49"/><path class="cls-3" d="M155.46,55.72c-2.09-.87-2.44,3.67,0,4,2.78.41,1.72-4.36-1.1-4.1"/><path class="cls-3" d="M162.34,55.83c-2.65-.2-2,4.58.83,4.28,3.8-.39.75-5.66-1.09-4.29"/><path class="cls-3" d="M174.2,57c-1.72-.79-2.9,4.72.81,4.54s.67-5.47-1.09-4.29"/><path class="cls-3" d="M183.45,62.28c-2.1,1.06-.83,5.5,1.61,4.55,3.53-1.37-1.27-6.54-2.18-3.79"/><path class="cls-3" d="M191.05,68.51c-1.25,1-1.41,4.51,1.08,4.58,3.26.09,2.11-7-1.31-5.12"/><path class="cls-3" d="M85.19,101.17c4.65.25,6.36,3.65,6.5,7.75a4,4,0,0,1,1.79-.19c.75-2.35-1.34-6.3-3-8a5.26,5.26,0,0,0-3.51-1.55c-1.07.18-1.76,1.57-2.72,1.92a1.08,1.08,0,0,1,.42.3"/><path class="cls-3" d="M88.84,102.17A8.48,8.48,0,0,0,90,106.43c.83-.62,3.11-1.43,3.21-2.76s-2-1.85-3.23-2c-.47-2.39-2.71-4.27-4.22-6.17-.29,1-2.34,2.22-3,2.91a20.37,20.37,0,0,0,5.32,4"/><path class="cls-3" d="M69.22,113.54a8.77,8.77,0,0,0,1.2.67,3,3,0,0,0,1.4,0,3.14,3.14,0,0,0,1.14-.42c.27-.16.46-.44.75-.57-.9.26-1.8.8-2.75.53s-1.26-1.21-1.9-1.8c-.07.39-.2,1.39.1,1.64,0-.06,0,0-.09-.1"/><path class="cls-4" d="M72.1,112.79a2.07,2.07,0,0,0-.18-.47,1.47,1.47,0,0,0-.44-.6,3.32,3.32,0,0,0-.36-.26,1.09,1.09,0,0,0-.27-.11l-.27,0a1.7,1.7,0,0,0-.39,0l-.3,0a.59.59,0,0,0-.19,0s0,.06,0,.12a.61.61,0,0,0,.07.17,1.78,1.78,0,0,0,.39.55,2.34,2.34,0,0,0,.84.51,2.09,2.09,0,0,0,.43.11,2.45,2.45,0,0,1,.27,0,2,2,0,0,0,.48,0"/><path class="cls-3" d="M70.75,112.13c0,.26-.07.48.22.56a.58.58,0,0,0,.45,0,.57.57,0,0,0,.28-.71.48.48,0,0,0-.67-.29c-.25.1-.52.5-.34.76a.75.75,0,0,0,.74.22.27.27,0,0,0,.26-.29.68.68,0,0,0-.11-.46c-.1-.12-.13-.16-.29-.16a3.11,3.11,0,0,0-.44.07s0,0,0,.05"/><path class="cls-5" d="M74.59,102.8c0,.08.28.06.39.1l.47.24a2.2,2.2,0,0,1,.77.91,5.57,5.57,0,0,1,.31,1.28c0,.2.07.4.09.6s0,.42.08.47c.08-.51-.61-1.08-.89-1.41a2.67,2.67,0,0,0-1.51-.94c-.23,0-1.14-.1-.81-.47.07-.09.19-.13.27-.2s.14-.16.22-.23.47-.41.66-.59"/><path class="cls-3" d="M72.45,104.63c.13.15.27.08.45.12a1.19,1.19,0,0,1,.46.27c.3.24.71,1,1.08,1s.77-.38,1-.58.65-.61.57-1a2.34,2.34,0,0,0-1,.24c0-.23.17-.37.12-.6-.28-.08-.38.2-.62.26,0-.19.11-.54-.13-.63s-.38.23-.57.28a.7.7,0,0,1,0-.35c-.2-.06-.31.13-.51.06-.07-.38-.56.12-.74.2a2.62,2.62,0,0,0,0-.28c-.2,0-.38.35-.58.46,0,0,0,0,0-.06,0,.14.27.63.37.57"/><path class="cls-1" d="M154.3,103.35v-.25a20.73,20.73,0,0,0-.49-4c-.53-2.77-.94-5.6-1.45-8.43-.45-2.47-.83-4.92-1.11-7.32-.6-5.08-1.45-10.11-1.67-15.24a98,98,0,0,1,1.15-17.44c.81-5.88,2.17-12.67,5-18,1.64-3.08,3.58-6.92,6.92-8.52,2.79-1.34,6.07.79,8.72,1.44.46.11.93.26,1.4.33a18.65,18.65,0,0,0,2.8-.21c.85,0,1.19-.89,1.18-1.64a2,2,0,0,0-.66-1.31c-.29-.32-.28-.4.13-.51.56-.16,1.26-.19,1.62-.68a2.17,2.17,0,0,0,.28-1.74,3.26,3.26,0,0,0-1.21-1.51c-.25-.18-1-.42-.94-.83s.8-.42,1.07-.55a2.75,2.75,0,0,0,1.19-.78c.55-.87-.2-1.9-.89-2.46a5.42,5.42,0,0,0-1.13-.78,3.86,3.86,0,0,0-1-.25,7.8,7.8,0,0,1-2-.81,5.65,5.65,0,0,1-1.7-1.41c-.51-.57-1.27-1.15-1.43-2a8,8,0,0,1,.28-2.7,11.87,11.87,0,0,0,0-2.73,11.08,11.08,0,0,0-.12-1.28c-.13-.66-.6-1.74-1.38-1.8a1.35,1.35,0,0,0-1.12.38A6.05,6.05,0,0,0,167,2.57c-.24.75-.33,1.53-.54,2.29-.33,1.19-.41,2.45-.82,3.62a6.57,6.57,0,0,1-1.47,2.16c-1.06,1.31-1.83,2.84-2.94,4.1-.88,1-2,1.82-2.84,2.86-1.15,1.36-2.09,2.93-3.25,4.31a35.4,35.4,0,0,0-5.82,11c-1.78,5.07-3.36,10.24-4.68,15.45s-1.33,10.31-1.75,15.54C142,74.16,144.51,84,145.47,94c.25,2.65,1.44,5.46,2,8,.64,2.83.32,6.06.32,9,0,6.22-.57,12.58-6,16.67a11.26,11.26,0,0,1-8.66,2.32,14.4,14.4,0,0,1-7.48-3.14c-1.88-1.64-3.51-4.37-4.8-6.53a44.24,44.24,0,0,1-2.36-4.06A42.09,42.09,0,0,1,117,111.9a18.05,18.05,0,0,1-.63-7.8,16.55,16.55,0,0,1,1.25-3.51c.46-1.15.68-2.35,1.17-3.45a11.68,11.68,0,0,0-3.47.26,23.45,23.45,0,0,0-7.19,2.85A9.1,9.1,0,0,0,104,106.1c-.19.78.06,2.1-.5,2.7-.29.31-2,.6-2,1.3,0,.28,1.61,1.48,1.84,1.76.67.79,1.3,1.65,1.92,2.49,1.4,1.86,2.64,3.88,4.06,5.74,2.6,3.37,4.73,7.22,7.94,10.07,1.79,1.58,3.76,2.93,5.52,4.63,3.25,3.14,7.34,5.51,12,4.57.89-.18,1.82-.79,2.74-1a19.59,19.59,0,0,0,3.25-1.06c3.73-1.65,7.17-5.27,9.32-8.69a26.55,26.55,0,0,0,3-6.25,40,40,0,0,0,1.18-6.75,54.7,54.7,0,0,0,.49-6.52C154.79,107.16,154.33,105.25,154.3,103.35Z"/></g></g></svg>