<svg xmlns="http://www.w3.org/2000/svg" viewBox="0 0 293.31 375.22"><defs><style>.cls-1{fill:#007293;}.cls-2{fill:#e30613;}.cls-3{fill:#1d1d1b;}.cls-4{fill:#fff;}</style></defs><g id="Ebene_2" data-name="Ebene 2"><g id="Ebene_1-2" data-name="Ebene 1"><path class="cls-1" d="M101.69,123.32c.34,2.76,1.13,5.45,1.36,8.23s-.37,3.5-2.85,4.89a14.38,14.38,0,0,1-3.12.88c-3,.84-4.39,1.84-5.63-1.38-1.86-4.87-1.84-10.23-1.87-15.36s-.85-10.37-1.39-15.58S87,94.76,86,89.77c-1.81-8.78-3.46-17.52-5.2-26.26L80.48,62c-1-5.27-1.7-13.5-5.3-17.74C72.5,41.11,66,39.9,62.24,39c-1.2-.27-2.43-.32-3.64-.52-.4-.07-.8-.06-1.2-.12a3.41,3.41,0,0,1-1.29-.4,3.61,3.61,0,0,1-.84-.94A2.23,2.23,0,0,1,55,35.79c0-.56.08-1.11.08-1.66s.37-.43.74-.51c1.44-.32,2.91-.43,4.36-.63s2.9-.69,4.35-1a5.11,5.11,0,0,0,1.53-.46l.87-.48c.35-.2.38-.58.38-1a10.56,10.56,0,0,0,0-1.6,5.7,5.7,0,0,0-.85-1.59,32.12,32.12,0,0,0-2.05-3.67c-.73-1-1.57-1.81-2.31-2.76s-1.18-1.76-1.83-2.63a28.89,28.89,0,0,1-2.84-4.71c-.55-1.13-1-3.55,1-2.87,1.66.55,2.62,2.78,3.53,4.12,1.12,1.66,2.52,3.06,3.64,4.76a19.33,19.33,0,0,0,3.16,3.7c.41.39,1.14,1.1,1.47.47A3.45,3.45,0,0,0,70,21.15c-.38-.93-1-1.8-1.41-2.7a33.07,33.07,0,0,1-2.27-5.94c-.59-2.09-1.52-4.06-2-6.16C64.17,5.75,63.24.12,64,0c1.71-.22,2.7,1.86,3.26,3.13a56.76,56.76,0,0,1,2.42,7.66,53.14,53.14,0,0,0,2.64,8c.39.84,3.13,5.66,4.15,3.36A10.65,10.65,0,0,0,77,19.78a19,19,0,0,0,.46-3.42,34,34,0,0,0-.83-6.92c-.37-1.76-1.14-3.63-.84-5.46.18-1.13,1.6-3.34,2.72-1.87a6.18,6.18,0,0,1,.79,2.71c.2,1.14.37,2.28.54,3.45a15.1,15.1,0,0,0,.3,2.11c.27.89.56,1.77.81,2.66a27,27,0,0,1,.67,3.57,17.27,17.27,0,0,0,1,4c.21.53.49.91,1,.42a2.89,2.89,0,0,0,.57-1.78c.07-.75.12-1.49.2-2.23a9.37,9.37,0,0,1,.36-2.37,4.36,4.36,0,0,1,1-1.66c.22-.22.85-.85,1.2-.75a5.67,5.67,0,0,1,.4,1.57,14,14,0,0,1,0,2.59c0,.81-.17,1.61-.26,2.41,0,.43-.11.87-.12,1.3s.06,1,.06,1.55a18.76,18.76,0,0,0,.27,2.24,28.37,28.37,0,0,0,.48,3.18c.28,1.16.39,2.39.62,3.56s.41,2.63.63,3.94a27.8,27.8,0,0,0,1.2,5.53,8.54,8.54,0,0,1,.3,1.42c.1.5.21,1,.32,1.5.22,1,.45,2,.68,3,.4,1.75.79,3.51,1.08,5.28,1,6,2.61,12,3.53,18,.66,4.33.88,8.62,1.46,13,.68,5,1.73,9.87,2,15,.24,4.17.47,8.42,1,12.48C101.18,114.28,101.14,118.81,101.69,123.32Z"/><path class="cls-1" d="M45.69,132.48c6.68-13.7,19.87,2.73,24.33,8.93,6.65,9.24,13.89,22.75,8.71,34-6.23-6.31-11.15-14.3-17.63-20.81-4.5-4.53-14.59-14.4-10.91-20.63"/><path class="cls-2" d="M17.39,140.36c.71-.48,1.06-3.06,1.63-4.08.77-1.39,1.7-2.62,2.53-4,2.33.32,4.92,4.61,6.39,6.15,2.08,2.17,3.73,5,6,6.93A33.23,33.23,0,0,0,43,151.24c2.56,1,5.58,2.46,8.06,2.9.92-6.41-1.48-12.06-3.69-17.83a43,43,0,0,0-4.07-8.07c-1-1.57-1.57-3.77-3-5,1.47.12,2.76-1.52,3.84-.71,0,0,.74,1.78.81,2A25.7,25.7,0,0,0,46,127c1.55,3,3.76,5.6,5.29,8.52,3.46,6.58,7.69,12.91,11.38,19.42,4,7,5.91,15.41,9.16,22.8,3.31,7.55,5.56,15.47,7.83,23.28,2.42,8.28,3.49,17.14,6,25.29,1.14,3.71,1.62,7.9,2.55,11.69,1.26,5.15,1.33,10.29,2,15.51.5,3.8,1.76,7.28,2.54,10.94.45,2.11.64,4.37,1.13,6.53s.18,4.3.39,6.54c.64,7.09.74,13.42,4.32,19.52-2.25-2.38-4.44-4-7.67-2s-4.33,5.92-5.48,9.25c-.73,2.12-1,4.4-1.81,6.49-.92,2.38-2.62,4.46-3.59,6.84-1.36,3.36-1.64,7.05-2.11,10.59a35.68,35.68,0,0,1-1.23,4.16,45.5,45.5,0,0,0-.81,5.6c-.08.6-.82,3.43-1.51,3.79-1.26.67-2.27-2.26-2.78-3.38-3.87-8.59-4.14-18.66-7.41-27.59-1.6-4.38-3-8.73-5-13-2.36-5.2-3.93-10.38-6-15.7-3.28-8.45-6.27-17.1-9.86-25.37a202.86,202.86,0,0,1-13-43,52.48,52.48,0,0,1-1.13-9.86c0-4.25.42-8.8-.09-13-.9-7.25.12-14.69.09-22.07,0-3.38.4-6.9.4-10.46a32,32,0,0,0-1.52-9.77c-.81-2.48-2.51-5-3.75-7.3-.73-1.35-5.44-5-3.8-6.64a.71.71,0,0,1,.53-.29"/><path class="cls-3" d="M105.28,372.78c3.65,1.87,7.38,2.94,11.4,2.2a33.74,33.74,0,0,0,6-1.81c2.2-.87,4.91-1.47,6.92-2.83,4.35-2.94,4.89-7.23,4.89-12,0-5.5.67-11.56-.4-16.86-1.14-5.6-.8-11.36-2.61-16.85s-2.73-11.16-3.9-16.84c-.8-3.85-1.3-7.5-2.41-11.26-1.76-6-2.5-12-3.59-18.15-1.79-10.05-3.42-20.05-4.9-30.14-1.45-9.91-2.18-20.06-4.54-29.81-3.89-16.09-5.88-32.66-7.76-49a220,220,0,0,1-1.61-25.81c-.16,1.25,1,2.47,1.53,3.53,1.09,2.12,2.2,4.25,3.44,6.22s2.56,3.59,3.66,5.59c1.4,2.53,2.53,5.16,4,7.69,3.39,6,5.42,12.84,9,18.77a94.62,94.62,0,0,1,4.47,8.75c1.77,3.82,2.73,8,4.46,11.83,4.15,9.25,7.71,18.61,12.32,27.65,3.95,7.72,6.23,16.26,10.15,24,2,4,4.11,8,6,12.11.47,1,1,2.08,1.5,3.1,1.5,3,3.37,5.84,5.09,8.71A110.78,110.78,0,0,1,174,291.66a7.94,7.94,0,0,0,.75,1.45c.51.72.44.66,1,.24s1-1,1.52-1.48a16.35,16.35,0,0,1,3.36-2.23c1.88-1,3.78-2.07,5.68-3,.79-.41,1.88-1.28,2.79-1.34-.27-.56-1-1.05-1.45-1.52-.62-.7-1.25-1.41-1.92-2.06a56.82,56.82,0,0,1-4.31-4.87c-1.15-1.45-2.25-3-3.22-4.45-1.26-1.94-1.74-4-2.61-6.05-1.16-2.76-2.47-5.47-3.67-8.21-2.41-5.53-4.73-11.08-7.12-16.61s-4.86-11-7.53-16.44c-5.52-11.12-8-23.18-12.1-34.88-3.87-11.11-6.44-22.88-11.13-33.56-3.79-8.61-9.59-16.57-15.37-24.09-4.81-6.25-10.36-12.42-13.94-19.44-1.4-2.75-2.29-5.39-6-3.68A28.06,28.06,0,0,1,94.27,111a45.69,45.69,0,0,0-6.53,2.23c-3.17,1.51-3.29,4.75-4.35,7.75a14.23,14.23,0,0,0-.91,5.36c0,3.12-.59,6.19-.68,9.29-.08,2.52.25,5.12.27,7.68,0,3.85-.79,7.59-1.13,11.38-.4,4.46-.09,9.07-.09,13.54,0,7,.52,14.14,1.21,21.06.66,6.68,1.12,13.32,2,19.95a85.79,85.79,0,0,1,.91,11.11A90.68,90.68,0,0,0,86,232.73c.46,3.45.13,7.17.14,10.66,0,4.07.62,7.74.62,11.81a179.16,179.16,0,0,0,1.85,22.36c.44,3.58,1,7,1.39,10.59.36,3.14,2.43,6.35.85,9.38-1.49,2.86-3.92,5.56-5.59,8.4a56,56,0,0,0-3,5.24c-1.58,3.48-4,6.24-6.28,9.28-.9,1.19-1.77,2.43-2.62,3.66s-1.59,2.2-2.34,3.36a6,6,0,0,1-.91,1.15c-.15.14-.37.26-.5.41s-.21.38-.36.54a18.75,18.75,0,0,1,.51,2.48c.22,1.26.5,2.53.76,3.8a45.2,45.2,0,0,0,1.22,4.38,28.8,28.8,0,0,0,1.65,4.38c.68,1.35,1.23,2.82,2,4.1s1.42,2.29,2.17,3.41a28.61,28.61,0,0,0,2.77,3.8c.68.7,1.44,1.36,2.15,2,.49.45.95.95,1.47,1.38s.89.55,1.31.9c1.49,1.25,3,2.48,4.57,3.58,2.17,1.56,4.85,2.44,7.14,3.83,2.78,1.69,5.33,3.65,8.25,5.14"/><path class="cls-1" d="M10.7,100.92c.18.43.36.84.55,1.26,2.1,4.53,4.83,8.89,6.94,13.45a20.23,20.23,0,0,1,1.26,2.83c.71,2.52,1.1,5.15,1.88,7.67a44,44,0,0,0,3.75,9.06c1,1.68,2.08,3.33,3.14,4.95A21.43,21.43,0,0,0,32,144.7c3.13,2.81,6.85,4.68,10.41,6.9a23,23,0,0,0,4.82,2,10.57,10.57,0,0,0,4.56.73c.41-1.38-1-3.65-1.45-5s-.76-2.89-1.18-4.28c-.6-2-1.49-3.93-2.28-5.85-1.2-2.9-2.34-5.78-3.42-8.72-.46-1.27-.85-2.56-1.3-3.86a16.4,16.4,0,0,1-1-5.31,30.37,30.37,0,0,0-.73-5.52c-.18-1.05-.67-2.1.51-2.7.89-.45,2.51,0,3.55-.21s2.25-.38,3.35-.64a3.45,3.45,0,0,0,2.32-1.51,5.15,5.15,0,0,0,1.1-3.2c.11-1.56-.69-2.91-1-4.44-.21-.89-.58-2.3-.12-3.09s2-.92,3-1.14a46.62,46.62,0,0,0,5.07-1.36,35.75,35.75,0,0,1,5.28-1A41.72,41.72,0,0,0,68,95.19c2.71-.76,5.62-.89,8.28-1.7.53-.16,1.14-.12,1.64-.32,1.18-.46,1.47-2.57,1.15-3.81s-1.92-2.31-2.68-3.19a56.42,56.42,0,0,0-7.08-6.64c-1.33-1.07-2.53-2.27-3.9-3.28s-2.73-2-4.18-2.9a21.49,21.49,0,0,0-4.81-2.58c-.71-.23-1.38-.52-2.07-.79a9.74,9.74,0,0,1-2.25-.81c.46-.89.43-1.94.94-2.83.4-.7,1.08-1.18,1.49-1.86,1.21-2-.56-3.74-2.27-4.54a31.18,31.18,0,0,1-4.83-2.43,7.91,7.91,0,0,1-1.94-1.89,7.36,7.36,0,0,0-1.61-2.08c-1.09-.81-2.15-1.72-3.23-2.55a29.81,29.81,0,0,0-5-3.19,31.43,31.43,0,0,0-7.06-2.33,32.7,32.7,0,0,0-12.47-.22,19.32,19.32,0,0,0-5.52,1.8,12.16,12.16,0,0,0-4.41,3.14c-.5.65-.85,1.37-1.3,2.06a21,21,0,0,0-2.07,3.54,30.06,30.06,0,0,0-1.63,6.6,20.45,20.45,0,0,0,.22,6.8c.2,1.19.26,2.39.51,3.57s.64,2.55,1,3.82a60,60,0,0,0,2,7.14c.31.8.63,1.6,1,2.38A8.09,8.09,0,0,1,6.75,88a9.5,9.5,0,0,0,.46,2.1,47.86,47.86,0,0,1,1.55,5.17c.52,1.75,1.08,3.5,1.78,5.22l.16.39"/><path class="cls-2" d="M51,104.26c-1.54.8-3.21.5-4.93-.15a17.49,17.49,0,0,1-2.5-1.21,13.49,13.49,0,0,0-2.13-1.44c1.69.75,3.91,1.55,5.64.94.76-.26,1.49-1.49,2.38-1.44,1.62.08.79,1.36.61,2,.8.27,1.43.8.84,1.48"/><path class="cls-3" d="M75.52,92.62c-.35-.81-4.36-.58-5.35-.69-2.2-.24-4.42-.41-6.58-.55a18.64,18.64,0,0,0-6.28.51c-.9.25-4.48.77-4.56,1.93-.11,1.69,3.9.41,4.6.24a38.28,38.28,0,0,1,6.4-1c2.21-.15,4.47-.32,6.71-.35,1.5,0,3.45-.31,5,.1"/><path class="cls-4" d="M37.54,72.3c0,.16,0,.17,0,0a5.53,5.53,0,0,0-2.87-1.73,4.13,4.13,0,0,0-2.84.62A21.68,21.68,0,0,0,29.32,73a16.79,16.79,0,0,0-2.55,1.76,20.07,20.07,0,0,0,2.63,1.48,4.82,4.82,0,0,0,3.39.24c1.4-.41,5.06-1.74,4.75-3.81"/><path class="cls-3" d="M22.33,73.82c0,.16,0,.17,0,0,.94-2.48,2.78-5.72,5.14-7.06,2.1-1.19,4.8-2.21,7-.94a7.48,7.48,0,0,0-3.17,1,32.9,32.9,0,0,0-4.37,1.89c-1.7,1.09-4.23,3.6-4.56,5.68"/><path class="cls-3" d="M26.89,75.54s1.23-1.71,1.65-2.09a8.9,8.9,0,0,1,2.91-1.76,6,6,0,0,1,3-.53,8.17,8.17,0,0,1,1.34.18,8.29,8.29,0,0,0,1.12.55c-.63-.88-1.69-1.45-2.33-2.43-.14.28.09.6.23.91-1,.32-1.82-1.22-2.8-.89-.12.44.23.92.48,1.27-.73.19-1.59-.22-2.38-.13-.14.42.16.92.33,1.26-.66.11-1.93-.28-2.27.41-.19.39.23.95-.22,1.32-.24.19-1.13,0-1.45.06-.66,1.34-.28,2.15,1,3A6.65,6.65,0,0,0,31.83,78,8,8,0,0,0,36,75.92c.51-.48,2.43-3.12,1.16-3.6.17,2-2.66,4.11-4.41,4.59a4.48,4.48,0,0,1-3.42-.42c-.66-.36-3-1.18-2.28-2.09"/><path class="cls-3" d="M29.93,72.49l.12.16c-.94.21-1.23,2.1-1.08,2.9.22,1.12,1.85,2.46,3.05,2s1.78-2.24,1.53-3.39c-.17-.76-2.38-2.31-3-1.71"/><path class="cls-3" d="M54.19,64.26l.08.11c-.27,0-.54-.32-.82-.45a4.31,4.31,0,0,0-1.28-.28c-1-.1-2.11,0-3.13,0a9.79,9.79,0,0,0-2.27.34c-.49.11-1.6.5-1.81,1,.33,0,.67.33,1,.28s.72-.5,1.11-.6a20.82,20.82,0,0,1,2.84-.37,5.33,5.33,0,0,1,3,.44c.23.11.66.41.89.37.38-.06.71-.65.71-1.08"/><path class="cls-4" d="M52.1,69.19c.1,0,.1,0,0,0a9.57,9.57,0,0,0-2.2-.65c-.76-.17-1.55-.12-2.36-.25a3.82,3.82,0,0,1,1.74-1.79,2.61,2.61,0,0,1,.84,0,4.78,4.78,0,0,0,.73-.13,12.82,12.82,0,0,1,1.59.15,12,12,0,0,1,0,1.34,7.16,7.16,0,0,0-.13,1.35"/><path class="cls-3" d="M47.54,68.21c.35-.18-.28-.79-.36-1.07a.72.72,0,0,0,.46.19c0-.27,0-.56,0-.83.51-.11.25.55.73.1.07-.06,0-.26.14-.34.34-.16.32.31.49.33.37,0,.49-.45.84-.58.56-.2.55.28,1,.34a1.33,1.33,0,0,1,.43-.59c.3.12.12.46.43.59.09-.23.23-.52.5-.47,0,.35.2,1.32.73.86.28.66-.65.35-1,.36a6.64,6.64,0,0,0-1.84.12,3.67,3.67,0,0,0-1.2.65c-.24.17-.84.82-1,.61a6.11,6.11,0,0,1,2.45.19,8,8,0,0,1,1,.31c.26.09.79.16.95.34a6.84,6.84,0,0,1-2.15-.5A9.24,9.24,0,0,0,48,68.7"/><path class="cls-3" d="M48.65,68.7c.44-.37.72-1.2,1.38-1.46.49-.19,1.87-.14,2.17.37a2,2,0,0,1-.07,1.22c-.19.28-.82.28-1.14.24a9.12,9.12,0,0,0-2.22-.37"/><path class="cls-4" d="M6.37,87.53c0,.11,0,.12,0,0,0-.43-.46-.94-.65-1.32s-.46-1.09-.66-1.62C4.56,83.33,4,82.06,3.53,80.78A74,74,0,0,1,.86,73,42.3,42.3,0,0,1,0,62.84a19.69,19.69,0,0,1,.74-5.13c.38-1.42.9-2.78,1.3-4.21.56-2,1.25-4.26,2.8-5.7a14.2,14.2,0,0,1,2.83-1.91,24.37,24.37,0,0,1,4.59-1.65,47.76,47.76,0,0,1,6.35-1.54,29.15,29.15,0,0,1,4.58-.15,16.47,16.47,0,0,1,4,.48c1.18.27,2.38.72,3.55,1.07a28.92,28.92,0,0,1,6.15,2.75C39.09,48.14,41,50,43.2,51.34c1.67,1.06,2.72,2.92,4.07,4.33a15.93,15.93,0,0,1,2,2.46c.41.63.93,1.26.25,1.86a.91.91,0,0,1-.22-.11"/><path class="cls-3" d="M45.57,101.48a7.13,7.13,0,0,1,2.11,1,2.58,2.58,0,0,0,2.2.72,2.79,2.79,0,0,0,1.63-1.11c.8-1,1.72-2.41,1.55-3.7-.77-.37-1.36-.23-2.08-.86s-1.42-1.31-2.08-2a11.9,11.9,0,0,0-2.58-2.15c-.51-.27-.88-.63-1.37-.93-1.37-.84-2.22-2.27-3.85-2.87a7,7,0,0,0-4.78-.27c-4.27,1.78-3.44,6.71-4,10.46a7.6,7.6,0,0,1-1,3.26,4.8,4.8,0,0,1-2.67,2.18,6.39,6.39,0,0,1-3.87,0,6,6,0,0,1-2.79-2.77A4.12,4.12,0,0,1,21.65,99a2.49,2.49,0,0,1,2.6-1.63c1.39.29,3,3.38.87,3.65,0-.48,1-.11,1.35-.26.63-.27.73-1.23.73-1.83A3.88,3.88,0,0,0,25.79,96a3.29,3.29,0,0,0-2.67-1,6.66,6.66,0,0,0-5.29,3.14c-1.06,1.76-.87,4.78,0,6.56a11.7,11.7,0,0,0,2.49,3.58,13.89,13.89,0,0,0,3.91,2.68,8.39,8.39,0,0,0,5.55.07,17.93,17.93,0,0,0,2.34-.9,4.24,4.24,0,0,0,2.21-1.82c.81-1.42,1.48-2.92,2.42-4.27a14.11,14.11,0,0,1,1.77-2.17A4.12,4.12,0,0,1,41,100.74a7.12,7.12,0,0,1,2.48,0,14.55,14.55,0,0,1,2.1.74"/><path class="cls-3" d="M69.72,79.82a22.53,22.53,0,0,0-3.37-2.14,10.49,10.49,0,0,1-2.88-2.11c-.25-.24-.59-.29-.64-.69a6.74,6.74,0,0,0,2-1.25c.64-.55,1.42-.94,2.11-1.46s1.33-1,2-1.5c.43-.28.92-.47,1.37-.71a11.24,11.24,0,0,1,1.38-.86C74.72,68,79,68.94,80,72.42a8,8,0,0,1-.31,6,3.14,3.14,0,0,1-1.5,1.38,3.76,3.76,0,0,1-2.55.22,5.16,5.16,0,0,1-1.47-1.61,2.29,2.29,0,0,1-.37-1.57,1.61,1.61,0,0,1,.65-1.11c.3-.14,1.37.22,1.06-.5-.64-.09-.59,1.24-.44,1.59a1.11,1.11,0,0,0,1.79.46c2-1.63-.68-4-2.36-4.42C72.6,72.4,71,74,70.58,75.7a9.7,9.7,0,0,0-.12,2.24c0,.54-.23,1.88.08,2.35-.33,0-.57-.3-.82-.47"/><path class="cls-3" d="M7.52,90.21c.12-.44-.57-1.14-.77-1.53s-.22-.67-.35-1-.27-.44.08-.83a13.26,13.26,0,0,1,2-1.51c.57-.43,1.18-.91,1.75-1.28s1.13-.51,1.67-.82,1.16-.84,1.78-1.16,1.07-.38,1.55-.69A13.45,13.45,0,0,0,17.08,80a3,3,0,0,1,1-.65c.17-.53-.59-1.7-.74-2.25a27.48,27.48,0,0,1-.76-4.41,20,20,0,0,1-.28-4.94c.09-.57,0-1.22.15-1.77A9.31,9.31,0,0,1,17,64.83c.09-.25.14-.53.25-.76a14.39,14.39,0,0,1,2.94-3.44A8.5,8.5,0,0,1,22,59.11c.79-.43,1.62-.88,2.4-1.27a14.48,14.48,0,0,1,4.82-1,7.72,7.72,0,0,1,4.14,1.27A18.78,18.78,0,0,1,37.22,61c.72.71,1.44,1.43,2.12,2.18s1.1,1.73,2.08,1.29c.37-.17.54-.51.82-.79a9.78,9.78,0,0,1,1.31-1c1.12-.74,2.09-1.7,3.23-2.41a14.5,14.5,0,0,0,1.5-.94c.32-.27.72-.79,1.14-.85.27.67,1.38,1,1.94,1.39"/><path class="cls-3" d="M6.83,89.57c0,.86-2.4,2.44-3.23,2.75a2.8,2.8,0,0,1-3.21-.48c-1.3,1.6,1.23,3.18,2.5,3.42a3.14,3.14,0,0,0,3.74-2.92c1.41,1.38.85,4.78-.72,5.93,1.85.44,4.79-2.55,5.42-4.07a12.65,12.65,0,0,0,.5-3.64,5.54,5.54,0,0,0-.29-2.7c-1-.35-2.36,1-3.08,1.45-1.09.68-2.3,1.17-3.41,1.77-.18,0-.18,0,0,0"/><path class="cls-3" d="M49.33,59.07c1.4,1.27,3.27-4.61,2-5.65a5.72,5.72,0,0,1,1.24,4.36c-.18,0-.47.11-.64.09,1.11.7,3.44-.24,3.68-1.47,0,1.76.05,2.85-1.5,3.92a3.28,3.28,0,0,1-2.25.75,14.68,14.68,0,0,0-2.21-.28,4.62,4.62,0,0,0-.29-1.22"/><path class="cls-3" d="M4.08,49.57c-.67-.13-.57-3.44-.31-4.32A4.92,4.92,0,0,1,4.88,43.1a6.8,6.8,0,0,1,2.7,0,3.49,3.49,0,0,1,1.81,1c.76.79,1.06,1.09.44,1.82a21.23,21.23,0,0,1-2.53,2c-1,.89-2.95,1.58-3.72,2.47"/><path class="cls-2" d="M29.14,84.62c-1.1,0-1.87-.32-2.82.42A3.88,3.88,0,0,0,25,87.73c-.14,2.8,3.65,3.55,5.66,2.63,1.43-.66,2.44-2,1.75-3.61a3.86,3.86,0,0,0-2.34-1.82c-.34-.12-1.2-.08-1.35-.31"/><path class="cls-3" d="M103.81,153.82c-4.24.5-8.33,1.84-12.56.88a5.66,5.66,0,0,0-4.35.52,16.43,16.43,0,0,1-2.73,1.68c-1.21.38-1,0-1.45,1.23-.87,2.21-1.33,4.5-2.15,6.67a14.67,14.67,0,0,0-.83,5.95c.13,1.56.61,2.95.22,4.53-1.32-.59-1.5-2.43-1.85-3.65-.4-1.39-1.14-2.59-1.58-3.95-1.31-4-2.72-8-4.08-12-1-2.94-2.06-6-2.81-9a36,36,0,0,1-.81-8.88c0-2.14.14-5.56,2.46-6.21,1.24-.35,2.57-.44,3.83-.77,1-.27,2.25-.66,3.26-.82,1.43-.21,3,.2,4.39,0a37.26,37.26,0,0,1,4.63-.28c4.71,0,9.39-1,14-1.64,3.82-.53,7.51-1,11.31-1.43a69.15,69.15,0,0,1,15.42-.08c6.14.76,13.07-.08,19.25-.08,13.23,0,25.28-3,38.12-3s24.82,1.65,37.13,3.08c12.15,1.41,22.84-1.31,34.27,3.22-.85,15.27-20,9.52-30.86,12-14.74,3.39-29.76,5.63-44.22,8.66a150.91,150.91,0,0,1-25.79,2.84c-8.23.29-16.75.68-24.9-.2a32.33,32.33,0,0,0-5.56.12c-2.9.22-5.77.28-8.72.28a111.75,111.75,0,0,0-13.09.34"/><path class="cls-1" d="M280.74,117.33a26.3,26.3,0,0,1,1.28-4,21.26,21.26,0,0,1,2.1-3.87,34.12,34.12,0,0,1,3.9-4.87,16.32,16.32,0,0,1,3.35-3.14c.39-.21,1.57-.21,1.79-.48.44-.56-.16-1.66-.55-2s-1.1-.44-1.38-.87c-.72-1.06,0-3,.69-3.78s2.31-2.51.21-2.8c-1.09-.16-3.93,1.67-3.36-.56.19-.72.87-.94.57-1.84a1.47,1.47,0,0,0-1.87-.82c-.61.21-.94.85-1.42,1.24-.74.59-.47.45-1.29.33-2-.31-1.13-1.67-1.37-3.27s-2-1.67-3.23-1c-.4,1.52-.15,3-.38,4.55-2.69,1.27-3.18-2.49-5.41-3s-4.72.91-5.21,3a4,4,0,0,0,1.18,4c.87.67,2,.73,3,1.37,4,2.63,1.26,7.9,0,11.18a39.85,39.85,0,0,1-7.36,12c-3,3.38-8,8.46-13,8a29.75,29.75,0,0,0-.23,7.3c.34,2.45,2.79,1.6,4.45,1.45,1.45-.13,2.83-.49,4.18-.08,2.15.65,3.65,2.31,5.68,3a7.37,7.37,0,0,0,5.81-.57c1.22-.6,2.64-.71,3.78-1.44,2.39-1.55,2.94-4.89,3.27-7.49.47-3.61.28-7.35.79-10.94,0-.21.07-.41.11-.62"/><path class="cls-1" d="M81.21,177.19a116.88,116.88,0,0,1-.8-12.54v-.35c0-4-.29-8-.27-12a36.54,36.54,0,0,1,.35-5.82c.32-1.86,1-3.62,1.31-5.49.16-1.15.5-2.28.77-3.41s.53-2.2.82-3.29c.23-.89.59-1.72.86-2.59a12.76,12.76,0,0,0,.45-1.85,5.66,5.66,0,0,0,.06-.82,3.12,3.12,0,0,0,0-.68c0-.24-.07-.51-.11-.77a3.88,3.88,0,0,0-.17-.71c-.23-.67-1-1.07-1.49-1.52s-1.07-1-1.64-1.43-.87-.7-1.31-1a10,10,0,0,0-1.25-.82,8.06,8.06,0,0,1-2.7-1.77,2.86,2.86,0,0,1-.61-1.57,5.08,5.08,0,0,0-.89,1.43c-.29.53-.44,1.13-.75,1.65a18.46,18.46,0,0,0-1.43,2.58c-.71,1.73-1.43,3.49-2.17,5.22-.49,1.13-.79,2.29-1.19,3.44a54.71,54.71,0,0,0-1.53,5.32c-.2.87-.35,1.74-.49,2.63s-.34,1.75-.43,2.63c-.07.6-.23,1.2-.27,1.8-.07,1,0,2.07,0,3.09V176c0,6.34-.66,12.37-.66,18.58a174.42,174.42,0,0,1-.52,17.9,90.72,90.72,0,0,0-.15,10.17c0,3.18-.68,6-.67,9.16,0,2.19,1.64,18.13-4.79,13.46-2.06-1.49-3-7.2-4.14-9.56-1.56-3.27-3.31-6.45-4.59-9.84-3.19-8.47-7.22-16.56-9.87-25.21-1.25-4.11-2.64-8.07-3.65-12.22-1-4.34-1.59-9-2.92-13.38-2.22-7.22-2.61-15-3.49-22.37-.44-3.68-.95-8.06-3-11.32a29.42,29.42,0,0,0-3.25-4c-1-1.06-2.51-3.34-4-2.38a9.32,9.32,0,0,0-2.42,3.13c-.93,1.64-1.4,3.9-2.74,5.28-.4.4-.9.49-1.3.85A6.38,6.38,0,0,0,13.15,146q-1.12,2.1-2.2,4.23c-1.56,3.09-2.48,6.05-1.73,9.43a51.15,51.15,0,0,0,3.87,10.9,155.06,155.06,0,0,1,8.43,21.55c2.25,7.29,5.38,14.22,7.63,21.55,1.57,5.12,3.08,10.27,4.87,15.37,1.2,3.41,2.61,6.75,3.87,10.15,1.64,4.43,4,8.58,5.52,13,2.75,8.12,5.73,16.35,9,24.26,2.74,6.58,4.6,13.56,7.2,20.19a60.14,60.14,0,0,0,6.72,12.85c.77,1.09,2.25,2.94,3.89,2.06,1.35-.72,1.09-4.29,1.3-5.66.37-2.51.5-5,.79-7.55.45-3.82,2-7.36,3-11.06a118.52,118.52,0,0,0,3.21-20.07c.29-3.79,1.33-7.6,2-11.38,1-6,2.09-11.76,2.59-17.92.25-3,0-6.21,0-9.26,0-13.73.66-27.13-.68-40.88-.36-3.62-.81-7.14-1.19-10.65"/><path class="cls-4" d="M69.33,334.07l.21.16a7.34,7.34,0,0,0-1.14-2.73c-.44-.83-1.66-2.24-1.78-3.18s.32-.72.72-1.19a8.61,8.61,0,0,0,.93-1.41c.79-1.48,1.62-2.78,2.56-4.2,2.23-3.39,4.58-6.71,7-10s5.58-6.7,7.69-10.3c.76-1.3,1.66-2.45,2.43-3.74a36.36,36.36,0,0,1,1.81-3.27,1.62,1.62,0,0,1,2.14-.5c.6.26,2,1.22,2,1.82,0,.84-1.82,2.45-2.28,3.18-1.09,1.77-1.87,3.74-3,5.51-3,4.78-6.6,9.23-9.51,14-1.74,2.85-4.11,5.28-6,8.06-.89,1.31-1.77,2.64-2.75,3.82a30.64,30.64,0,0,1-1.75,2.58,9.26,9.26,0,0,0-1.28-1.22c0-.15,0-.21.22-.18"/><path class="cls-1" d="M218.12,301.56l.24.09a14.09,14.09,0,0,0,3.76.7,5.69,5.69,0,0,0,1.84.2,3.56,3.56,0,0,0,.68-.33c.54-.3.4-.23.66-.62.5-.76,1-2.16-.18-2.44s-2.77.54-2.41-1.28c1,0,4.95-.8,2.79-2.33-.77-.55-1.83-.4-2.63-.7-1.09-.4-.71-.73-.18-1.52s.12-1.61-.85-1.95-1.31.28-1.78,1-1.35,1.28-2,.57-.31-1.5-.22-2.2a7.6,7.6,0,0,0-.39-2.63,2.37,2.37,0,0,0-1.69-1.83c-1.72-.69-4.12.36-4.31,2.2-.11,1-.1,1.84-.94,2.49a6.72,6.72,0,0,1-2.89,1,13.76,13.76,0,0,1-4.42.64,29.14,29.14,0,0,1-5.8-.8,39.14,39.14,0,0,1-5.86-2.39,23.7,23.7,0,0,1-3.3-1.93c-.75-.54-1.37-1.45-2.14-2a14.2,14.2,0,0,0-2.4-1.13,3.19,3.19,0,0,1-1.08-.6c-.5-.45-.6-.84-1.35-.76-1.18.12-1.94,1.16-2.82,1.89s-2,1.26-2.44,2.41c-.56,1.35-1.67,3.65-.32,4.84a12.54,12.54,0,0,0,2.29,1.22,7.13,7.13,0,0,1,2.28,2.08c.4.54.77,1.11,1.15,1.68a23.78,23.78,0,0,1,1.39,2.37,31.06,31.06,0,0,0,2.82,4.66,6.52,6.52,0,0,0,6.07,2.26,13.2,13.2,0,0,0,3.29-1.07c1.27-.48,2-1.46,3.19-2.16s2.13-1.34,3.16-2a10.75,10.75,0,0,1,5.79-2,15.37,15.37,0,0,1,3.58.57,64.11,64.11,0,0,1,7.44,1.83"/><path class="cls-1" d="M131.56,120.39c-.7-1.22-3.27-2.32-4.41-3.23-1.36-1.09-2.66-2.29-4-3.45a36.69,36.69,0,0,0-7.5-5.49,20.43,20.43,0,0,0-4.39-1.3c-1.79-.46-3.45-.16-5.28-.41-3.78-.52-7.68-1.34-11.39-1.64a25.46,25.46,0,0,0-4.86,0c-1.6.21-3.82.18-5.21.93-3.37,1.81-4.27,4.94-6.18,8a82.83,82.83,0,0,0-5.55,10.79.42.42,0,0,1,.17.1c2.11,1.93,4.18,3.9,6.33,5.78.26.22,4,3.3,3.73,3.5.51-.45.38-1.53.56-2.15s.5-1.47.69-2.25c.56-2.28,1.21-4.53,1.78-6.8.43-1.7,1.34-1.82,2.94-2.76,3.31-2,8-2.46,11.71-3.65,2.88-.92,5.78-.61,7.41,2.25a11.73,11.73,0,0,1,1.12,4.56,35.34,35.34,0,0,0,1.2,5.29c.32,1.16,1.09,3.91,2.81,3.19,0-1.06.74-1.81.89-2.76a13.68,13.68,0,0,0-.4-4.52,15.46,15.46,0,0,1-.43-3.64c0-1.37-.72-3.16-.35-4.41,2.28-.95,3.26,6.6,3.62,8.07.71,2.92,1.65,5.93,2.49,8.88a1.35,1.35,0,0,0,1.08,0,27.44,27.44,0,0,0,.79-8.94c-.21-1.79-.77-3.35-1-4.92s-.17-3.3-.84-4.66c1.64,2.22,2.44,5.74,4.8,7.31,1.38.91,9.66,1.79,7.66-1.68"/></g></g></svg>