<svg xmlns="http://www.w3.org/2000/svg" viewBox="0 0 225.21 319.28"><defs><style>.cls-1{fill:#007293;}.cls-2{fill:#fff;}.cls-3{fill:#1d1d1b;}.cls-4{fill:none;stroke:#1d1d1b;stroke-miterlimit:10;stroke-width:0.89px;}.cls-5{fill:#e30613;}</style></defs><g id="Ebene_2" data-name="Ebene 2"><g id="Ebene_1-2" data-name="Ebene 1"><path class="cls-1" d="M133.24,27.8c-.5-1.94-1.81-3.72-2.68-5.52a10.13,10.13,0,0,0-4.28-4.57,21.08,21.08,0,0,0-10.73-3.26,16.21,16.21,0,0,0-5.23.58,36.13,36.13,0,0,0-5.22,2.39c-3,1.56-5.4,4.22-8.29,5.73,1.41,1.81,5.12,1.67,7.15,2,1.46.25,3,.64,4.39.95,2,.44,4,.55,6,.8a31.84,31.84,0,0,1,5.16.8c1.82.56,3.62.58,5.34.94,3.2.66,6.79.79,9.78,2a.93.93,0,0,0-.26-.83"/><path class="cls-1" d="M138.18,192.88c8.56-.06,18.44,1.14,26.72-1.18,7.39-2.07,14.26-3.79,22.13-3.7a41.41,41.41,0,0,0,5.79-.54c4.06-.51,6.35-.85,6.64,3.58.24,3.85-.35,5.87-1.83,9.59-1.31,3.31-1.37,7-2.7,10.39-1.84,4.6-4.55,8.82-6.33,13.47a96.43,96.43,0,0,1-7.68,14.9,14.56,14.56,0,0,1-4.93,5.26c-4.2,2.63-9.65,3.52-14.46,5a88.47,88.47,0,0,1-18.21,4c-3.23.29-11.91,2.06-15,0-4-2.66-4.2-8.77-8.45-10.25-5.69-2-12.43-2.39-18.33-3.91-8.1-2.09-13.9-4.69-18.32-12-4-6.74-7.21-13-6.34-20.51.48-4.07,2.16-8.34,3.18-12.31,1.18-4.55.72-8.08,6.06-7.43,7.75.93,15.52.88,23.25,1.92,9.88,1.33,18.63,3.76,28.79,3.69"/><path class="cls-1" d="M124.23,37c-4.11-.34-8.94.52-12.25,3.11-1.77,1.38-2.28,2.85-3.12,4.79-1,2.29-2.67,4.22-3.83,6.43-1.25,2.39-2.15,4.89-3.43,7.28-1.14,2.12-2.32,4.21-3.41,6.35C92.46,76.19,86.35,87.13,82.28,99a34.26,34.26,0,0,0-2.2,12.73,28.13,28.13,0,0,0,1,4.73c.31,1.39.38,3.42,1.42,4.59s3.4,1.86,4.84,2.22c3.62.92,7.09,2.14,10.72,3.07l12,3.11c2.67.69,5.44,2.1,8.15,2.35a16,16,0,0,0,1.76-2.71,45.46,45.46,0,0,0,2.65-4.84,44.22,44.22,0,0,1,3.13-5.83c1.17-1.89,2.08-3.94,3.4-5.71,2.16-2.9,4.12-5.94,6-9a34.06,34.06,0,0,0,3.07-4.93c.83-2,1.44-4.22,2.23-6.27,1.39-3.63,1.58-7.93,2.08-11.69a91.81,91.81,0,0,0,1.24-13.22c-.07-7.63-.74-16.33-4.17-23.32-2.71-5.53-9.88-6.8-15.4-7.26"/><path class="cls-2" d="M140.9,103.67c.58,2.14-.29,6,1.1,7.45.86.9,5.21,1.95,6.55,2.23,3.62.72,6.23-.34,8.53-3.16,2.46-3,3.4-7.88,8-7.89,3.63,0,7,2.37,10.39,3.35A109.37,109.37,0,0,1,190.08,111c5.8,2.59,11.72,4.93,17.33,8,2.68,1.47,5.3,2.64,8.06,4,1.69.86,3.9,2.27,5.85,2.23.68,2-1,5.2-1.27,7.23-.28,2.23.26,4.58,0,6.82a99.07,99.07,0,0,1-2.6,13.53c-.78,3.22-3.81,5.16-4.68,8.6-.79,3.13-1.68,6.25-2.49,9.38-3,11.63-12.2,20.14-22.27,26.18-6.13,3.69-11.49,3.62-18.54,4.35-3.16.33-6.29.4-9.44.76a47.9,47.9,0,0,1-14.88-.55c-9.5-2.23-16.24-6.91-24.67-11-6.34-3-14.22.61-21-3.14-8.2-4.55-15.61-18.32-15.39-27.39.36-14.92-7.4-28.26-7.4-42.92,0-2.81-.36-5.89,0-8.67s2.12-5.34,2.13-7.91c2,0,3.65,2.2,5.37,3.08A22.56,22.56,0,0,0,92.08,106c2.73.31,5.1,1.2,8,1.19a75.21,75.21,0,0,0,16.51-1.75c5.14-1.17,10.45-1.47,15.54-2.93.78-.23,2.68-.25,3.32-.62,2-1.15,1.83-2.71,2.75-4.59.48.09,1.31-.31,1.78-.23a1.58,1.58,0,0,0,.12-1,25.51,25.51,0,0,0,.8,7.64"/><path class="cls-1" d="M54.86,249.79c-4.12-2.61-8.86-6.07-9.56-11.26a24.6,24.6,0,0,1-.07-3.1,38,38,0,0,1,.34-5.29c.46-3.31.65-6.62,1.32-9.92.76-3.83,1.57-7.54,2.34-11.4a31.6,31.6,0,0,1,2.25-7.69c.7-1.47,1.41-2.91,2-4.43,3.85-9.83,4.26-20.33,7-30.43.57-2.08.62-4.28,1-6.4a54.14,54.14,0,0,0,1-11c0-3.77-.27-7.78.66-11.35a7.54,7.54,0,0,1,2.68-4A11.22,11.22,0,0,1,68.59,132,17.81,17.81,0,0,1,74,130.49c.62,0,1.24-.05,1.86-.1a6.93,6.93,0,0,0,4.76-1.74,13.2,13.2,0,0,0,1.94-2.7c2.39-4.09,5.34-9.49,9.89-11.7,5.32-2.58,8.57,1.78,10.29,6.18,1.61,4.12,2.44,8.31,6.15,11.51s9.59,2.84,13.36,6.28c3.37,3.07,8.09,6.11,10.26,10.18a40.9,40.9,0,0,1,3.4,30.24c-2.48,9.46-10,18.68-21,16.73-4-.7-7-1.62-10.1,1.56-3.38,3.48-5.22,8.67-1.7,12.81,1.8,2.12,5.35,3.36,7.77,4.55,2,1,7.17,2.52,8.59,4.19,2.13,2.5-1,6.57-1.7,9.14-.82,2.86-1.49,5.78-2.23,8.66-1.5,5.79-3.84,9.85-7.06,14.58-4,5.82-7.92,7.87-14.87,9.59-1.43.36-2.52.95-4.08.83-2.12-.17-4.11-1.42-6.24-1.5a56.35,56.35,0,0,1-12.62-2.07c-5.77-1.47-10.87-4.82-15.75-7.92"/><path class="cls-3" d="M124.3,143.45a10.26,10.26,0,0,0-3.71-7c-1.57-1.15-7.35-3.54-9-2.46,2.84.82,6,4.68,7.75,7a17.92,17.92,0,0,1,3.11,6.2c.41,1.59,0,3.79,1.52,4.85.94-3.65,2.13-3.7,1.57-8.24"/><path class="cls-3" d="M116.23,193.23c5.14,1.5,10.08,4.47,14.77,7,2.23,1.19,4.95,1.85,6.8,3.59,3.28,3.06,5.33,9.45,5.09,13.7-.33,6.08-3.29,10.54-6.35,15.13-1.43,2.15-2.47,4.75-4,6.89-1.71,2.43-3.64,3.2-2.95,6.47,14.3,7.81,35.62-2.87,31.86-20.5-1.22-5.72-5.61-8.61-10.22-11.59-5.26-3.4-9-8-14.82-10.93-4.69-2.34-11.16-3.36-15.3-6.79-.34-2.66,3.67-5.94,6-6.69,3.07-1,5.67,1.78,8.7,2.55,4.5,1.14,9,2.42,13.48,3.48,5.72,1.35,11.73-.52,17.59.49,6.68,1.15,11.81,2.6,18.44-.16,2.33-1,4.51-2.3,6.87-3.2a121.92,121.92,0,0,1,12-4.36c-1.11,13.45-6.72,26-11.71,38.5-2.79,7-3.1,14.48-7.44,20.89a66.83,66.83,0,0,1-9.08,11.45c-3.92,3.71-8.4,5.27-13.24,7.46-9.36,4.22-19.52,6.5-28.46,11.61a54,54,0,0,0-6,4c-1.48,1.13-2.38,2.19-4.12,2.94a55.71,55.71,0,0,0-11.33,7c-1.16.88-2.53,1.28-3.59,2.32-1.37,1.35-2.61,3-4.07,4.25-1.78,1.55-3.88,3.63-6,4.43-1.91.72-3.92,1.35-5.92,2a36.87,36.87,0,0,1-11.09,1.41,52.11,52.11,0,0,1-6.51-.26,20.74,20.74,0,0,1-6.2-2.09c-3.45-1.58-7.13-3.42-9.19-6.57-1.73-2.63-4-4.71-7-5.06s-5.86-.77-8.81-1.09c-3.78-.42-7.87-1.94-9.13-5.85-1.83-5.7-2.11-12.1-3.34-17.95-.83-4-.3-9.13.66-13.06a85.91,85.91,0,0,0,1.62-11.88c.61-5.82.88-11.67,2.57-17.38a45,45,0,0,1,5-10.82c1.62-2.6,3.45-5,5.07-7.72,1.08-1.8,2.27-3.54,3.45-5.28.49-.74,1.21-2.74,2.17-2.61.37,1.17-.47,3.1-.68,4.29-.3,1.65-.89,3.31-1.18,5-.59,3.35-1.08,6.82-1.8,10.19a128.49,128.49,0,0,0-2.3,12.79c-.4,3.74-1,9,2,11.88,2.37,2.26,6.34,2,9.34,1.61a48.76,48.76,0,0,0,13.73-3.86A43.17,43.17,0,0,0,76,238.67a16.84,16.84,0,0,0,3.63-3.15,19,19,0,0,0,2.26-3.5c.62-1.05,1.62-1.91,2-3.07.58-1.6,1.09-3.19,1.84-4.76a107.5,107.5,0,0,1,6.09-10.62c1.9-3,3.28-6.06,5.41-8.81a45.59,45.59,0,0,1,6.43-6.37c2-1.76,3.81-4.67,6.53-5.41a10.63,10.63,0,0,1,6,.25"/><path class="cls-3" d="M113.66,134c1.06-1.19,2.06-2.77,3.54-3.57-.14,1.61-.83,3.21-1,4.83a16.77,16.77,0,0,0,3.26-.35l-1,2.26c1.29-.09,3.24-.74,4.46,0-1,.91-2.53,1.7-2.56,3.15.74.11,1.66.75,2.38.85A7.09,7.09,0,0,1,120,143.6c-3.26-1.87-4.6-7.38-8.76-8.22"/><path class="cls-3" d="M83.12,127.35c-.23-.15.28-1.25.36-1.41a6.62,6.62,0,0,1,1.06-1.4,47.71,47.71,0,0,1,3.82-3.27c.52-.45.91-1,1.43-1.47.35-.29,1.3-1.12,1.81-.79,0,.37-.47.83-.66,1.12s-.53.78-.81,1.18a14,14,0,0,0-1.07,1.57c-.22.42-.34.89-.59,1.28s-.56.85-.81,1.29c-1.06,1.82-2.22,3.41-4.54,1.9"/><path class="cls-3" d="M96.25,122.25a3.64,3.64,0,0,1-.54-1.56,3.23,3.23,0,0,0-.3-1.23c-.24-.35-.33,0-.3.3A9.58,9.58,0,0,0,95.5,121c.13.62.2,1.25.38,1.87s.38,1.23.57,1.85.27,1.25.42,1.89a5.72,5.72,0,0,0,1,2.36c.31.41.75,1.07,1.35,1.07a2.8,2.8,0,0,0,0-1.74,20,20,0,0,0-.54-2.19,7.28,7.28,0,0,0-1-2c-.45-.62-1-1.17-1.47-1.79"/><path class="cls-3" d="M77.19,130.2a7.64,7.64,0,0,1,2.86-.36c1.21.11,1.38.92,2.1,1.61a2.51,2.51,0,0,0,2.19.75c1.21,0,1.65,0,2.07,1.24a8.66,8.66,0,0,0,2.51,4c.38.29,1.53,1.4.43,1.41A9.3,9.3,0,0,1,86.9,138a10.19,10.19,0,0,0-3.12-.63,22.6,22.6,0,0,1-4.27.05,9.5,9.5,0,0,1-3.11-.79,20.86,20.86,0,0,1-2.19-1.6A4.72,4.72,0,0,1,73,133.49a8.13,8.13,0,0,0-.8-1.74c-.31-.33-.81-.32-1.2-.49a1.1,1.1,0,0,1-.57-.42c0-.06-.12-.63,0-.61a12.69,12.69,0,0,1,1.8.51c.54.16,1.11.16,1.65.36.38.13.72.35,1.11.48a6.22,6.22,0,0,1,1.65.52c.66.47,1.22,1,1.87,1.51a4.46,4.46,0,0,0,2.28.92c.67.09,1.45-.11,2,.29-.71-.34-1.25-.87-2-1.17s-1.48-.66-2.29-1-1.66-.54-2.41-.91a8.66,8.66,0,0,0-2.19-1.05,2.29,2.29,0,0,0,2.38-.16c.28-.13.58-.25.89-.36"/><path class="cls-1" d="M91.12,241.66a20.33,20.33,0,0,1,1.38-3.2c.33-.58.87-1.16,1.13-1.75.19-.43.17-.91.38-1.45a145.45,145.45,0,0,0,5.61-16.65c1.45-5.64,1.75-10.49,7.4-15a18.86,18.86,0,0,1,7.26-3.9c2.49-.66,5.06-1.43,7.73-1.13s5.37,1.2,8.11,1.51c6.6.73,7.83,4.56,8.48,9.27.56,4.1-.4,8.17-1.85,12.12-1.32,3.62-2.12,7.24-3.79,10.82a13.34,13.34,0,0,1-2,3,36.56,36.56,0,0,0-2.72,4c-2,3.06-4,6.1-5.91,9.15a42.3,42.3,0,0,1-3.66,4.49c-.59.68-.81,1.49-1.39,2.19a9.55,9.55,0,0,0-1.1,1.31,14,14,0,0,0-1.23,4.35,59.48,59.48,0,0,1-1.46,6.3c-1.52,5.07-3,10.13-4.83,15.17-1,2.82-2.44,5.6-3.61,8.41-1.45,3.46-2.5,7.1-4.65,10.37-1.84,2.8-3.89,5.52-6.05,8.2A32.93,32.93,0,0,1,90,313.89c-1.64,1.41-2.42,3.11-4.5,4.28-1.82,1-6,1.34-8.26.94a9,9,0,0,1-3.09-1.42c-1.47-1.12-1.81-3.22-3.06-4.59a26.94,26.94,0,0,1-3.65-5.5,15.59,15.59,0,0,1-2.24-5.41c-.14-1.24.22-2.46.08-3.7a35.53,35.53,0,0,0-1.35-6,59.67,59.67,0,0,0-2-6c-1.85-4.38-2.66-8.91-3.95-13.4a27.79,27.79,0,0,1-.74-7.56,22.46,22.46,0,0,1,.19-3.67,47.64,47.64,0,0,0,.86-5.69,51.84,51.84,0,0,1,.48-6,26,26,0,0,1,1.72-5.68c.63-1.6.9-3.44,1.55-5.06a9.41,9.41,0,0,1,.83-1.79,6.75,6.75,0,0,1,2.07-1.75,28.56,28.56,0,0,1,3.82-2.22,24.53,24.53,0,0,1,4.15-1.95,6.64,6.64,0,0,1,5.56.95c1.09.77,1.57,2.53,2,3.7.69,1.83,1.47,3.68,2.09,5.54.32,1,.6,2,.83,3,.29,1.28.74,2.56.95,3.88.55,3.47,1.53,6.87,2.07,10.32.06.42.35.8.25,1.25a17.31,17.31,0,0,1,.47-4.27,30.68,30.68,0,0,1,1.53-6.18c.06-.14.11-.29.16-.43.87-2.46,1.37-5,2.18-7.44,0-.13.09-.27.14-.4"/><path class="cls-2" d="M62.4,222.12a43.2,43.2,0,0,0,0-8.88,23,23,0,0,0-1.68-4.87c-1.66-4.22.6-9.66-2.23-13.41-.86-1.14-2.39-1.71-3.17-2.83a2.51,2.51,0,0,1,.58-3.52c1.27-.8,3.19-.12,4.34-.8,3.4-2-3.92-4.84-4.78-5.86s-.55-2.17.84-2.67c1.59-.57,3.34.16,4.68.92.93.54,3.62,2.79,4.27,1,.34-.92-.57-3.26-1.1-4-1.24-1.81-4.45-4.68-4.59-7-.25-4.13,5.46.28,6.68,1.26a36,36,0,0,1,3.07,3c.8.83,1.8,2.7,2.86,3.07.8-3.41.66-6.46-1.85-9.06-1.18-1.22-5.28-5.4-3-7.2a18.4,18.4,0,0,0,2.24.87,23.8,23.8,0,0,1,2.68,1.65,15.3,15.3,0,0,1,4.66,5.5c1.1,2.18,2.09,4.43,3.25,6.62,1.49,2.8,2.37,3.41,5.6,3.6,1.81.11,4.89-.06,5.16,2.37.26,2.28-2.72,3-3.93,4.41-2,2.22-1.9,5.62-3,8.25-1.24,3-.88,6.71-.89,10,0,4.07,0,8.14,0,12.22,0,1.69,0,3.39.05,5.09,0,.6-.13,1.21-.12,1.8s.33,1.36.33,2.08c0,1.33.17,2.62.16,3.94a30.24,30.24,0,0,1-.21,4.26c-.23,1.58.48,3.31.68,4.87a36,36,0,0,0,.79,4.59c.44,1.58,1,3,1.32,4.61.21.88.47,1.74.64,2.63.1.54.6,1.63.4,2.12-.33-.15-.52-.6-.87-.82a10.71,10.71,0,0,0-1.32-.63c-.8-.36-1.68-.59-2.51-.88-2.26-.79-5-.5-7.35-.51a42,42,0,0,0-8.45,1.22,64.07,64.07,0,0,0-6.43,1.41,4.1,4.1,0,0,0-2,1c-.43.54-.31,1.24-.57,1.83-.6-.29-1-1.19-1.22-1.78-.34-.78.32-1.77.54-2.54.33-1.17.67-2.34,1.07-3.49a45.91,45.91,0,0,0,2.11-7.16v0a165.12,165.12,0,0,0,2.26-18.27"/><path class="cls-1" d="M74.68,189.91l.15.23"/><path class="cls-1" d="M44.59,195.88a5.24,5.24,0,0,1,1.18.81,3.6,3.6,0,0,1,1,3.08,25.35,25.35,0,0,1-.83,5.6A61.28,61.28,0,0,0,44,215c-.49,4.7-1.22,9.35-1.69,14-.18,1.83-.61,3.63-.8,5.48a13.5,13.5,0,0,1-.32,3.24c-.56,1.65-1.26,3.27-1.66,5S39,246.39,38,248s-.36,3.28.33,5a26.64,26.64,0,0,1,1.31,3.93c.67,2.9,2,6.21,1.38,9.11a36.14,36.14,0,0,1-1.61,5.12c-.82,2-1.36,4-2.39,6-1.29,2.51-2.76,5-4,7.48a33.52,33.52,0,0,1-2.28,3.56c-4.64,7.16-15.71,9.41-20.49,1.55a77.29,77.29,0,0,1-5.67-11.65c-1-2.45-1.91-5.11-3.06-7.67-1.07-2.37-1.83-3.56-1.52-6,.33-2.65,1.31-4.84,2-7.37,4-13.93,12.1-27,19.33-39.67A114.06,114.06,0,0,1,28.33,207c1.26-1.72,2.55-3.42,3.83-5.13,1.17-1.56,2-3.28,3-4.9.44-.7,1-3.12,1.82-3.48,1.1-.47,3.12.74,4.13,1.1a23.86,23.86,0,0,1,3.44,1.31"/><path class="cls-2" d="M44.31,214.45c.42-1.21.7-2.5,1.14-3.75a67.86,67.86,0,0,0,2.06-7c.32-1.37.47-2.76.79-4.12.51-2.23,1.35-4.38,1.92-6.6A89.34,89.34,0,0,1,53,184.14c1.24-3.31,2.38-6.6,3.71-9.87.6-1.48,1.13-3,1.64-4.51a9.9,9.9,0,0,1,1.24-3.13c.7-.88.5-2,.56-3a12.32,12.32,0,0,0-.33-2.5A33.22,33.22,0,0,0,58,154.7c-.34-1-.65-1.92-1-2.87-.61-1.58-1.42-3.09-2-4.68a13.45,13.45,0,0,1-.54-2.3,2.66,2.66,0,0,1,0-1.74,5.91,5.91,0,0,1,.49-.93,6,6,0,0,1,1.87-1.67c.83-.49,1.66-1,2.45-1.55a9.11,9.11,0,0,0,2-1.74c1-1.27,1-2.92,1.43-4.4a2.36,2.36,0,0,0,.16-1.41c-.2-.51-.83-.34-1.23-.18-2.26.85-4.07,3.52-5.79,5.14a24.57,24.57,0,0,1-7.1,4.24c0-.76,1.25-1.66,1.68-2.28.6-.84,1.21-1.76,1.75-2.62a6.83,6.83,0,0,0,1.23-3.31c.06-.77,0-2.28-1.15-2.14-.64.08-1.66,1.36-2.12,1.8a27.35,27.35,0,0,0-2.41,2.53,28.69,28.69,0,0,1-2.41,2.76c-.55.53-1.5,1.73-2.25,1.8-.94-.89.82-2.82-.16-4.09a4.82,4.82,0,0,0-1.5-1.14c-.72,0-1.34,1.21-1.59,1.7a32.23,32.23,0,0,0-2.43,7.54c-.49,2.17,0,3.92.08,6.12,0,1,.76,5.26-.43,5.19-.94-.06-2.24-2.56-2.88-3.19-1.51-1.47-4.32-1.34-2.85,1.26.86,1.52,2.52,2.58,3.68,3.91,1.59,1.85,3,3.5,3.29,5.88a39.69,39.69,0,0,1,0,10.5,40.3,40.3,0,0,1-5.59,16.07c-2.4,3.95-4.13,8.3-6.64,12.18-1,1.49-1.63,3.07-2.45,4.64a20.45,20.45,0,0,0-1.45,2.93c-.36,1.12.55,1.37,1.35,2,.48.4,1.18,1.31,1.79,1.43-.25-.05.49-3.06.64-3.36a3.39,3.39,0,0,1,1.39-1.58c1.71-.94,3.78-1.8,5.78-1.37,1.77.38,3.5,2,4.9,3.07a18.5,18.5,0,0,1,2.1,1.69,16.74,16.74,0,0,1,2,2.76,4,4,0,0,1,.67,2.48c.21,2,1.34-.81,1.53-1.36"/><path class="cls-3" d="M122.77,140c.87.48,2.41.47,3.46,1a32.56,32.56,0,0,1,3.9,2.51c2.92,2,4.91,3.62,6.44,6.79,4.09,8.49,5.69,16.92,3.33,26-.68,2.68-1.24,5.72-2.82,8a29.39,29.39,0,0,1-6.74,6.66c-1.56,1.19-2.83,3.12-4.68,3.93-1,.43-1.85.59-2.87,1a5.72,5.72,0,0,1-4.22.36,15.76,15.76,0,0,1-8.15-5.79,42,42,0,0,1-2.8-5.09,10,10,0,0,0-1.24-2.24c-1.24-1.32-4-2-4.32-4.16.74-.05,1.67.71,2.49.91a25.17,25.17,0,0,0,2.92.68,11,11,0,0,0,4.91-.41c2.43-.82,11.07-4.68,7.09-8.13-1.72-1.48-4.87-1.18-7-1.17a19.36,19.36,0,0,1-7.37-.93c.47-1.21-.25-2.38-.12-3.62a17.73,17.73,0,0,0,6.12.18,45.78,45.78,0,0,0,6.21-1.33c4-1.39,5.79-3.68,7.36-7.23s1.22-7.13,1.15-11.13a12.77,12.77,0,0,0-1.26-5.43c-.76-1.45-2.26-2.89-2.36-4.54"/><path class="cls-2" d="M167.3,32c-7.1-.69-14.15-1.33-21.23-2.12-5.84-.65-11.66-1.37-17.52-1.95-5.54-.54-10.9-2-16.48-2.59-7.77-.84-15.3-2.13-23-3.27-3.42-.51-6.78-.5-10.19-.91-1.66-.2-4.14-.18-5.51-1.08,1.32.87,1.17,3.53,1.48,4.9A31.37,31.37,0,0,0,77,29.92c3.08,7.3,5.6,14.94,4.27,23.35-.61,3.8-1.39,7.78-3.42,11.39-1.16,2.06-3.31,4.35-4.07,6.11a9.7,9.7,0,0,1,8-.81c-.54,3.48-2.26,7.37-3.52,10.75.65-1.76,6.33-1.47,7.73-1.65a35.38,35.38,0,0,1,6.5-.41A14.82,14.82,0,0,0,98.14,78c1.88-.54,3.49-1.89,5.16-3,2.56-1.64,5.38-3.34,7.38-5.69,1.08.41,1.7,2,2.84,2.57,1.5.73,3,.47,4.54.44,1.73,0,3.64.22,5.38.35,2.45.19,4.86.47,7.32.53a134.07,134.07,0,0,1,21.54,2q2.41.47,4.8,1a113.66,113.66,0,0,1,15.36,5.43c2.58,1,7.34,2.25,8.93,4.45,1-.86-.4-3.25-.68-4.31a79.85,79.85,0,0,1-1.89-8.68c-.93-6.79-3.08-13.28-4-20-.47-3.49-.24-7.16-.85-10.59-.27-1.52-1.18-7.53,0-8.2"/><path class="cls-2" d="M81.63,57.21c1,.12,2,.26,3,.42.59.1,1.3.94,1.94.34.45-.42-.16-2.61-.27-3.1-1.19-5.5-3.68-10.83-3.76-16.63,0-1.84.51-3.52,0-5.29-.78-2.5-2.25-4.31-2.45-7.06-.15-1.83-1.28-2.92-2.51-4.11-1.4-1.35-1.56-2.06-3.4-1.64-3.27.75-5.77,1.53-9.17.92-4.26-.76-5.13-4.3-1-6.81-2.12,1.5-4.39,2.91-6.4,4.53a34.45,34.45,0,0,0-4.76,5.11c-3.68,4.38,2.1,5.53,5.26,7.36-.28-.16-5.68,2.6-6.62,2.7-2.34.25-3.95-.13-6.4.64-5.23,1.64-10.87,3.94-16.23,3.19.13,1.94,1.2,3,2.13,4.68-3.07,1.41-6,.69-8.7,3.08.71,1.29,2.23,2.1,2.82,3.23-.69.45-10.73,4.39-10.47,4.89,1.41,2.69,12,1.79,15,1.83,5.83.08,12,.06,17.89-.3a80.58,80.58,0,0,1,10.64-.31c4.36.32,8.37,1.69,12.82,1.73a103.34,103.34,0,0,1,10.73.6"/><path class="cls-1" d="M81.47,68.41c.59-1.17,1.72-3.17,1-4.48-.73,1-1,3-1.27,4.3"/><path class="cls-3" d="M98.56,69.81l-5.89,3.84a16.75,16.75,0,0,1-1.18-2.56,2.1,2.1,0,0,1,0-.75,6.4,6.4,0,0,1,.82-1,3.74,3.74,0,0,1,.91-.3,1.17,1.17,0,0,1,1,.14,5.58,5.58,0,0,1,1.26,1.31l2.38-1.33ZM93.2,72l1-.68.49-.33s-.24-.46-.3-.55S94,70,94,70a5,5,0,0,0-.58-.12s-.71.14-.79.31a.76.76,0,0,0-.06.45c0,.1.19.58.19.58Z"/><path class="cls-3" d="M91,69.25s-.13-.74-.12-.78,1.69-.55,1.69-.55l1.16-.36,1.18-.37c.07,0-.24-.83-.26-.87s-.17-.49-.13-.52l0-.12.54-.15s.53,1.2.59,1.31.34.76.34.76l-.33.11-.13.07L91,69.25"/><path class="cls-3" d="M90.51,66.7a3.07,3.07,0,0,0-.14-.34s-.05-.2-.09-.21,3.27-1,3.31-1,.38-.31.3-.54a.29.29,0,0,0-.21-.21l-.12,0s-.41,0-.51.08l-2.36.6-.61.19L90,64.8,93,63.92a4.48,4.48,0,0,1,.8-.07,1.92,1.92,0,0,1,.57.24,2.57,2.57,0,0,1,.38.46.68.68,0,0,1,0,.48.73.73,0,0,1-.22.29l-.33.17Z"/><path class="cls-3" d="M92.66,63.6a.13.13,0,0,0,.09,0,3.8,3.8,0,0,1,.46,0h.11a1.36,1.36,0,0,0,.3-.38,1.42,1.42,0,0,0-.05-.69c-.07-.07-.19-.22-.19-.22a1.4,1.4,0,0,0-.58-.15,2.11,2.11,0,0,0-1,.21,2.39,2.39,0,0,0-.23.22.66.66,0,0,0-.21.42,1.59,1.59,0,0,0,0,.47l-.41.14a.52.52,0,0,1-.25-.07,1.36,1.36,0,0,1-.08-.43s0-.11,0-.13l.45-.58-.45-.08s-.71.45-.74.81a1.51,1.51,0,0,0,.07.52.78.78,0,0,0,.78.41c.66,0,.79-.11.8-.11s.31-.23.35-.33a3.3,3.3,0,0,0,.15-.34s-.08-.21,0-.35a.93.93,0,0,1,.26-.22,1.07,1.07,0,0,1,.31-.06l.21,0a.61.61,0,0,1,0,.25l-.11.35Z"/><path class="cls-3" d="M89.83,61a2.12,2.12,0,0,1,.92-.41h1l.64.1s.52.23.35.39a2.33,2.33,0,0,1-1.07.41,4.26,4.26,0,0,1-.71.08H90.3a3.24,3.24,0,0,1-.57-.18s-.11-.14.1-.39m-.9.65a.28.28,0,0,0,.14.13,4.91,4.91,0,0,0,1.74.13A13.65,13.65,0,0,0,93,61.42c.17-.1.52-.34.55-.46s-.09-.21-.09-.23l-.43-.25,1-.47-.84-.22h-.1l-.67.47a16.72,16.72,0,0,0-1.94,0,3.35,3.35,0,0,0-1.19.36,1.26,1.26,0,0,0-.41.5.61.61,0,0,0,0,.45"/><path class="cls-3" d="M89.46,60a1.48,1.48,0,0,1-.21,0,.22.22,0,0,1,0-.14s.33-.09.33-.09l.86,0h.13l.32.07-.09.1Z"/><polygon class="cls-3" points="91.16 58.8 94.22 58.89 94.02 59.21 90.94 59.08 91.16 58.8"/><polygon class="cls-3" points="91.67 58.3 91.81 58.07 93.98 58.18 94.14 57.7 94.69 57.73 94.26 58.43 91.67 58.3"/><polygon class="cls-3" points="94.81 57.57 94.81 57.55 95.25 57 94.85 56.94 94.58 57.37 94.19 57.33 94.47 57.03 93.99 56.98 93.72 57.28 93.25 57.23 93.54 56.8 93.24 56.78 92.6 57.37 94.81 57.57"/><polygon class="cls-3" points="90.35 59.13 90.21 58.86 90.69 58.71 90.48 58.62 89.84 58.85 90.11 59.18 90.35 59.13"/><path class="cls-3" d="M102.32,70.3c0,.18,0,.19,0,0,.49-.92-.3-3-.48-4a48.24,48.24,0,0,0-1.08-5,20.9,20.9,0,0,0-1.08-3.07c-.48-1-.52-2.28-1.17-3.18,1,.34,1.53,1.75,2,2.55a12.7,12.7,0,0,1,1.57,3.86c.43,1.55,1,3.09,1.33,4.7.27,1.3,1.2,2.74,1.16,4.07-.57.33-1-.12-1.58.09"/><path class="cls-3" d="M108.26,69.68c.23-.57-1-2.49-1.22-3.21-.63-1.94-1.17-3.87-1.86-5.79-.41-1.1-1.06-2.24-1.44-3.35-.24-.71-1-1.75-1-2.47,1.9,1.52,2.36,4.35,3.29,6.53A43.45,43.45,0,0,1,108.79,70"/><path class="cls-3" d="M111.87,69c-.55-2.83-1.86-5.57-2.69-8.36a34.13,34.13,0,0,0-1.6-4,9,9,0,0,0-1-2.48c.1.52.85,1.34,1.38,1.32.18.73.45,1.38.66,2.1.46,1.6.68,3.24,1.1,4.86.65,2.48,1.77,4.74,2.26,7.25"/><path class="cls-3" d="M119.3,70.17a35.07,35.07,0,0,1-1.49-4.33c-.56-1.54-1-3.2-1.51-4.79s-1-3.93-2.39-5c.66.87.75,2.16,1.11,3.17.43,1.2.94,2.36,1.31,3.56.61,2,1.59,3.58,2.35,5.44a2.39,2.39,0,0,0-.22-.12"/><path class="cls-3" d="M122,67.18c.64-.53-1.35-4.88-1.69-5.8-.44-1.23-.84-2.48-1.25-3.7a8.45,8.45,0,0,1-.82-2.23c0,.61.55,1,.82,1.58.53,1.08.81,2.3,1.31,3.41a34.5,34.5,0,0,1,2.51,7.72"/><path class="cls-3" d="M127.61,64.58c0-1-1-2.52-1.37-3.44-.67-1.54-1.2-3.28-2-4.73,2.41,3.63,2.27,8.66,4.16,12.56"/><path class="cls-3" d="M92.45,48a19.17,19.17,0,0,0-.11-3.15l-.06-4.45c0-2.1.51-4.24.4-6.33a5.73,5.73,0,0,1,0-1.7,33.89,33.89,0,0,1,.49,6.6,30.68,30.68,0,0,0,.24,5.17c.15,1.12.54,3.08.05,4.14"/><path class="cls-3" d="M99.8,48.74s.39-.08.67-.12a8.06,8.06,0,0,1,1.84.08,19.36,19.36,0,0,0,4.2-.5,43.49,43.49,0,0,1,6.39-.49,48.14,48.14,0,0,1,5.62.13,34,34,0,0,1,4.43.3c-.13-.69-.84-1.36-1.21-2-.49-.88-1-1.79-1.52-2.68-1.22-2-2.51-3.85-3.64-5.87a48.92,48.92,0,0,1-2.71-5,16.7,16.7,0,0,0-2.46-4.3c-.49.53-1.9.59-2.57.89a15.49,15.49,0,0,1-3.81.92c-1,.19-2.1.48-3.15.57-.78.07-2.06-.3-2.74.07,0,2.22-.69,4.45-.66,6.65a16.81,16.81,0,0,0,.37,2.08c.13,1,0,2.09,0,3.13a39.92,39.92,0,0,0,.55,5.35q0,.24,0,0"/><path class="cls-2" d="M100.8,46.51l.2.11a20.06,20.06,0,0,0,.12-3.09c.07-1.41.14-2.78.19-4.14.08-2.15,0-4.22-.12-6.31.48-.18.9.17,1.4.18a3.62,3.62,0,0,0,1.52-.52,14.65,14.65,0,0,1,3.13-.79c.87-.16,1.91-.62,2.62,0S111,34,111.49,34.81a55.91,55.91,0,0,0,4.08,6.76c1.08,1.45,2.53,2.93,3.43,4.34-.64-1.11-2.65-1.07-3.75-.88-1.3.22-2.55.22-3.92.48a42.81,42.81,0,0,0-4.77.69,20,20,0,0,1-4.45.95,1.32,1.32,0,0,1-.15-.62"/><path class="cls-4" d="M60.94,41.46A78.41,78.41,0,0,0,54,46.84c-1.67,1.53-3.52,4.24-5.88,4.65"/><path class="cls-4" d="M137.36,70.28a43.68,43.68,0,0,0-2-7.85,14.72,14.72,0,0,0-2-3.88"/><path class="cls-4" d="M42.57,54.28c2.36.08,4-2.5,5.46-3.92,2.58-2.43,5.34-4.73,7.71-7.36"/><path class="cls-4" d="M138.33,58.84c2.41,1.39,2.49,3.62,2.93,6.1s1.69,5.3,2,7.82"/><path class="cls-4" d="M31.93,52.66c1.72.71,6.94-5.58,8.2-6.5,2.61-1.92,5.9-2.63,8.71-4.28"/><path class="cls-4" d="M53.18,52.36c1.89,0,2.83-1.52,4.29-2.44,1.72-1.09,3.36-1.3,4.4-3.29"/><path class="cls-4" d="M147.9,71.33c.48-1.93-3.33-10.48-5.24-12.09"/><path class="cls-4" d="M158.26,64.71c2.81,1.33,3.07,7.1,5.3,9.11"/><path class="cls-4" d="M170.5,78.49c-2.55-5.3-5.29-12.64-9.71-16.61"/><path class="cls-4" d="M78.93,50.06a3.21,3.21,0,0,1-1.25,3.19"/><path class="cls-4" d="M69.77,29.78c-1.93,2.16-5.33,4.53-6.75,7.08a.93.93,0,0,1-1.15-.31"/><path class="cls-4" d="M58.9,53.69c1.31-.75,1.58-2.38,2.66-3.46,1.28-1.27,3.78-1.57,4-3.67"/><path class="cls-4" d="M66.2,37a.61.61,0,0,1,.66.25c.51-1.75,2.62-4.73,4.5-5.34"/><path class="cls-4" d="M65.69,54.24l.51.29A48.16,48.16,0,0,1,70.64,48"/><path class="cls-4" d="M70.74,38.5c1.31-.47,2.37-3,2.91-4.09"/><path class="cls-4" d="M72.48,54.78c1.43-.72,2.67-3.8,3.29-5.34"/><path class="cls-4" d="M74,39.69a2.38,2.38,0,0,1,.79.22c.95-1,1.42-2.34,2.33-3.16"/><path class="cls-4" d="M59.26,22.2c.17,1.82,1,2.5,2,3.88.05.43,0,.4-.06-.07"/><path class="cls-4" d="M34.39,42.72c-1.5,1-4.35,2.89-6.17,2.9"/><path class="cls-4" d="M59.13,28.15c-1.65-1.79-2.23-2.46-2.71-4.84"/><path class="cls-4" d="M33.17,39.39c1.18,1.25,7-.69,8.95-1"/><path class="cls-4" d="M156.79,36.52a105.09,105.09,0,0,0,2.86,11.67c.44,1.44,2.14,4.29.86,5.44"/><path class="cls-4" d="M142,48.69c.08.49.09.53,0,.12q-1.16-6.37-2.32-12.74"/><path class="cls-4" d="M168.38,53.39c-.24-2-1.11-3.73-1.65-5.63-.67-2.39-.9-5-1.34-7.47"/><path class="cls-4" d="M145.81,39.69c1,1.09,3.11,9.12,2.36,9.66"/><path class="cls-4" d="M152.71,61c1.52.59,2.73,8.41,3.06,10.12"/><path class="cls-4" d="M166.19,61.49c1.15.81,1.51,3.32,2.19,4.6,1,1.91,2.44,4.24,2.84,6.35"/><path class="cls-4" d="M155.56,69.94c-.46,1.08-2.11,1-3.36,1.11-.7-2.12-1.63-4-2.26-6s-2-4.63-1.86-6.7c1.95-.25,4.83.71,4.74,3.22"/><path class="cls-4" d="M128.39,67.76c1.27.92,6.91,2.11,8.87,1.95"/><path class="cls-4" d="M133.79,67.37c3.21.09,3.49-3.44,2.53-5.7-2.15.27-2.34-.15-4.13-.69-1-.31-2.72-.78-3.78-.23,0,2.43,4,1.11,3.66,4.5-1.4-.19-2.44-1.2-3.71-1.58-.11,1.11.84,2,1.72,2.59.54.38,3.36,1.64,2.43.75"/><path class="cls-1" d="M172.33,93.87c-1.25,3.6-7.76,8.82-6.71,12.75.88,3.27,8.83,7.47,11.58,9a77.11,77.11,0,0,1,7.73,4.52,46.63,46.63,0,0,0,6.49,4.16c6.85,3.38,16.78,5.84,24.55,4.7.56-2.39,1.85-5.13,2.64-7.54.56-1.7,1.35-3.3,1.74-5,.64-2.81,1.42-5.6,1.87-8.45a23.41,23.41,0,0,1,1-2.83c.33-1.27-.35-2.91-.3-4.22.13-3.36.41-6.78.66-10.13.32-4.37,1-8.72,1.45-13.06a54.91,54.91,0,0,0-.42-13.12c-1.95-13.59-6.78-26.84-12.63-39.16-1.38-2.9-3-5.65-4.63-8.4-1.41-2.43-2.36-5.4-4.52-7.2a9.2,9.2,0,0,0-2.51-1.52c-2-.72-3.3.11-5.13,1A20.38,20.38,0,0,0,189.52,13c-1.29,1.29-2.08,3.33-2.89,5-2.11,4.24-4.65,8.53-6.29,13-1.31,3.57-1.8,8-.48,11.57s.95,7.2.62,11c-.66,7.39,0,14.61-2,21.86-1.72,6.12-4,12.28-6.15,18.46"/><path class="cls-1" d="M170.61,6.36a71.32,71.32,0,0,1,10.69-4A45.63,45.63,0,0,1,187,1.11c2.21-.32,4.52-.59,6.74-.75,1.29-.1,3.47-.74,4.67,0a12.23,12.23,0,0,1,2.69,3.1,16.64,16.64,0,0,1,1.6,3c1.14,2.9,1.66,6.1,2.61,9.08.85,2.68,2.69,5.35-.06,7.38-2.29,1.69-4.37,3.1-7.19,3.66-6.65,1.32-12.34,5.17-18.52,7.87-3.91,1.71-8.1,3-11.88,4.9-6.05,3-15.44,3.42-21.54.38-.78.62-.5,2.75-.5,3.59,0,1.8.19,3.6.14,5.4-.12,4.5-5.75,5.74-9.4,5.48-2.63-.19-5,3.28-6.06,5.32-1.86,3.57-5.56,5.86-8.95,7.8-2.87,1.64-3.77,4.87-6.45,6.59-1.3.83-3.33.72-4.83.88-1.78.19-2.56-.08-3-1.75-.69-2.83,1.71-4.73,4.19-5.72.87-.36,3-.43,3.49-1.45s-1.52-1.1-2.08-1.15A5.05,5.05,0,0,1,111,64.6c-.24-.13-1.43-1.75-1.22-1.91.93-.77,6.29-.83,4.25-3.21-1.4-1.63-4.38-1-5.54-3.11-1.56-2.87,1.85-2.72,3.56-2.76.94,0,1.76-.61,1.48-1.74-.21-.82-1.46-1.24-1.85-1.94-1.2-2.17,1.79-3,3.28-2.4.79.29,1,.66,1.81.37,1.14-.4,1.66-1.71,2.34-2.58a19.66,19.66,0,0,1,3.15-3c1.14-.92,2.15-1.93,3.21-2.91s2.12-2.63,3.24-3.87c.46-.49.93-1,1.39-1.5s1-1.27,1.57-1.87A34,34,0,0,1,135,29a13,13,0,0,1,2-1.33c.4-.23.87-.39,1.24-.57s.45-.55.78-.88a4,4,0,0,1,1.66-.77c1-.3,1.86-.65,2.82-1a19.2,19.2,0,0,0,6.17-2.86c1.06-.84,2.09-1.7,3.09-2.61,1.9-1.75,4.11-3.06,6-4.78,1.3-1.16,2.48-2.44,3.8-3.55A10.34,10.34,0,0,1,165.29,9c.46-.19,1-.37,1.42-.54,1.43-.5,2.53-1.47,3.9-2.1"/><path class="cls-1" d="M61.77,67.43c0,1.56-3.46,2.73-5,2.91-4.21.51-7.28-3.18-7.73-7-.5-4.36-2.81-9-7.18-10.57a15.88,15.88,0,0,0-3.16-.89c-.93-.11-3,.47-3.58-.25-.83-1,0-2.51.94-2.94s2.57-.17,3.75-.32c.24-.77-3.68-2.73-.55-2.86.82,0,4.19,1,3.43-1.11-.69-.23-2.23-.92-1.34-1.73s2.57,1.14,3.15-.33c.36-.93-1-2.1-.89-3.21.18-1.6,1.75-2.7,3.13-3.26,2.73-1.12,4.74.95,4.14,3.86A28.58,28.58,0,0,0,50,42.88c-.21,2.22,2,3.72,3.52,4.88s3,2.35,4.56,3.35A45.72,45.72,0,0,0,63.2,53.5c1.75.82,3.48,1.45,5.17,2.1A26.45,26.45,0,0,0,74.2,57c0,1-1.78,2.25-2.5,2.93-1.12,1.07-2.22,2.12-3.25,3.19a34.25,34.25,0,0,1-3.56,3.33c-.74.58-2.59,2.49-3.41,2.4"/><path class="cls-5" d="M112.06,64.06c-.49,1-1.4-.32-1.11-1.11a2.39,2.39,0,0,0,1.41-.31.79.79,0,0,1-.59,1.42"/><path class="cls-5" d="M110.61,55.94a1.38,1.38,0,0,1-1.69-1.7c.57-.06,1.31-.2,1.77.16s.75,1.22.21,1.54"/><path class="cls-5" d="M112.94,49.85c.07-.24-.37-1.85.57-2.06,1.3-.28,1.31,1.54.3,2.06"/><path class="cls-5" d="M107.41,72.45a1.8,1.8,0,0,0,1.18,1.45,3.22,3.22,0,0,0,1.26.29c.53,0,1.17-.13,1.38-.67a1.92,1.92,0,0,0-.83-.42,4.4,4.4,0,0,1-1.05-.56,5.07,5.07,0,0,1-1-1,1.87,1.87,0,0,1-.29-1,3.12,3.12,0,0,0-.78,1.91.63.63,0,0,0,.33-.52"/><path class="cls-5" d="M49.46,36.3s.1.05.16.1a.79.79,0,0,1,.18.29A2.81,2.81,0,0,1,50,37.83a11.73,11.73,0,0,1-.11,1.33,2.52,2.52,0,0,0,0,.67,3,3,0,0,0,1.18-.69c.15-.19.07-.44,0-.65s-.13-.58-.2-.88a3,3,0,0,0-.67-1.29,4.11,4.11,0,0,0-.85-.71c-.06.43.3.82.26,1.26"/><path class="cls-5" d="M41.66,42.64a4.16,4.16,0,0,1,.6,0c.17,0,.5.22.66.17s-.42-.37-.54-.41a2.54,2.54,0,0,0-.91,0"/><path class="cls-5" d="M38.54,45.71a1.71,1.71,0,0,1,1.07,0c.15-.38-1-.18-1.22-.11"/><path class="cls-5" d="M35.58,49.29c.07,0,.11-.11.16-.15a1.17,1.17,0,0,1,.47-.21,7.86,7.86,0,0,1,.83-.11c0-.17-.5-.24-.65-.22a1.05,1.05,0,0,0-.53.23c-.15.11-.42.46-.58.46"/></g></g></svg>