<svg xmlns="http://www.w3.org/2000/svg" viewBox="0 0 387.92 910.99"><defs><style>.cls-1{fill:#007293;}.cls-2{fill:#1d1d1b;}.cls-3{fill:#e30613;}.cls-4{fill:#fff;}</style></defs><g id="Ebene_2" data-name="Ebene 2"><g id="Ebene_1-2" data-name="Ebene 1"><path class="cls-1" d="M110.05,906.45a4.24,4.24,0,0,0,.35,2.74,3.27,3.27,0,0,0,1.06,1.16c1.41.91,3.36.67,4.94.38,1-.18,1.91-.43,2.85-.69.44-.12.88-.28,1.31-.41s1.09-.16,1.62-.34a4,4,0,0,1,1.71-.26,5.73,5.73,0,0,1,1.55.5c.36.12.73.25,1.1.4a6.59,6.59,0,0,0,2.64.45,5.46,5.46,0,0,0,2.74-.3,3.63,3.63,0,0,0,1.57-1.53c.89-1.79-.35-3.65-1.18-5.24-.63-1.2-1.25-2.43-2-3.58a6.24,6.24,0,0,1-1.07-2.65c-.06-.83-.17-1.64-.23-2.47a25.54,25.54,0,0,1,.66-6.09c.18-1,.34-2.09.45-3.14.31-2.71.55-5.86-.68-8.41s-3.68-3-6.24-2.57c-7.58,1.31-6.09,10.56-6.08,16.08,0,3.4-1,5.57-2.88,8.44-1.28,1.91-3.75,4.81-4.22,7.53"/><path class="cls-2" d="M104.85,653c.07.18.13.36.19.55,1.26,4,.79,8.57,1.2,12.73.61,6.19-.22,12.22.06,18.33.41,8.9,1.51,18.24,2.51,27.1a189.27,189.27,0,0,1,.89,26C109,766,114,792.9,116.42,821.05A184.11,184.11,0,0,1,116,856.7c-.87,7.39-2.22,14.73-3.31,22.1-.85,5.77-3.23,13.06,4.45,14.38,6.11,1.06,15.55,1,18.45-5.4,2.28-5.07.78-10.92.74-16a162.36,162.36,0,0,1,.27-16.68c.62-6.45-.4-12.13-1-18.39-1.24-12.94-2.84-25.84-4.42-38.82-.66-5.36-.95-10.68-1.7-16.08-.72-5.21-.39-9.32-.05-14.41.41-6.08-1.93-13-2.49-19.13-1.5-16.52-3-33-3.45-49.66-.11-4.3-.38-8.71-.11-13,.19-3,1.14-5.69,1.16-8.73,0-7.27-.66-14.41,1-21.65,1-4.24,2.47-8.65,5.18-12.23a14.4,14.4,0,0,1,5.22-4.45c2-.95,3.93-.75,4.34-3.25.65-3.92-4.57-8-7.45-9.91-8.68-5.79-9.49-16-12-25.36-1.17-4.4-3.1-9.27-3.57-13.68-3.6,2-6.44,8.22-8.33,11.75-2.93,5.49-7.25,10.93-8.65,16.95a46,46,0,0,0-.17,19.19,85.27,85.27,0,0,1,1.37,10c.36,3.12,2.28,5.84,3.32,8.76"/><path class="cls-1" d="M176,728.46a5.5,5.5,0,0,0,2.21-1.85c.78-1,1.64-2,2.37-3.06.36-.52.88-.92,1.2-1.46.22-.37.4-.76.62-1.14a17.52,17.52,0,0,0,1.21-2.86,33.49,33.49,0,0,0,1.34-5.28,32,32,0,0,0-.06-10.91,33.2,33.2,0,0,0-1.64-6.34c-.3-.78-.67-1.54-1-2.3a2.19,2.19,0,0,0-.53-.81,4.11,4.11,0,0,0-.39-.24c.77,0,1.91,1.7,2.26,2.25,1.29,2,1.42,4.75,2.12,7,.92,2.95,2.07,6.17,1.26,9.22a29.74,29.74,0,0,1-3.2,7.11c-1.38,2.25-3.24,4.18-4.79,6.32-1.15,1.58-1.47,3.6-2.87,4.95-3.77,3.67-10.29,5.11-15.38,6a26,26,0,0,1-14-1.77,11.66,11.66,0,0,0-1.65-.62,2.34,2.34,0,0,1-1-.24,1.68,1.68,0,0,1-.53-1.18c0-.16,0-1.34-.14-1.38a18.21,18.21,0,0,0-2.31-.29,17.79,17.79,0,0,0-2.92-.12,6.12,6.12,0,0,0-1.28.22c-.45.13-.93.21-1.39.34A37,37,0,0,1,124,731.26c-2.79-.13-5.62-.67-6.08-3.72-.6-3.94,9.17-12,4.64-14.87a.41.41,0,0,0-.11-.07c-.5-.3-1-.54-1.53-.84l-.32-.2a.59.59,0,0,1-.2-.12,3.37,3.37,0,0,1-.21-.31l-.24-.35a.78.78,0,0,1-.17-.62,2.53,2.53,0,0,1,.22-.51,1.17,1.17,0,0,1,.19-.3c.15-.19.28-.4.45-.58.42-.45.84-.89,1.25-1.35.27-.31.63-.55.91-.86.11-.12.24-.23.35-.36l.36-.39a24.85,24.85,0,0,0,2.26-2.68c.14-.21.21-.45.36-.65s.17-.19.25-.29.19-.19.19-.28a2,2,0,0,0-.2.11,1.57,1.57,0,0,1-.23.09l-.51.18a5.3,5.3,0,0,0-1.33.88c-.38.33-.79.64-1.21,1a9.49,9.49,0,0,1-1.57,1c-.56.26-1.11.56-1.69.79a2.26,2.26,0,0,1-1,.16,1.3,1.3,0,0,1-.51-.18,3.36,3.36,0,0,1-.51-.32,8,8,0,0,1-.94-.89,2.2,2.2,0,0,1-.53-.92c-.12-.61-.25-1.2-.43-1.8a18.5,18.5,0,0,0-1.18-2.93c-.53-1-1.54-2.79-1.51-4.07,0-1.44,1.25-3.18,2.2-4.35a31.44,31.44,0,0,1,4.37-4.09,19.34,19.34,0,0,0,3.86-3.41,15.59,15.59,0,0,0,1.48-3.15c1-2.29-.23-4.24-.13-6.59.89.45,2.78-.62,3.59-.93.61-.24,1.19-.45,1.81-.72a6.36,6.36,0,0,1,3.62-.89,7.36,7.36,0,0,0,3.26-.3,3,3,0,0,1,2.89.41c1.85,1.34,3.45,2.79,5.38,4.08s3.82,2.86,5.88,4a19.05,19.05,0,0,0,3.6,1.44c1.15.37,2.4.44,3.51.89a14.46,14.46,0,0,0,3.52,1c3.6.5,7.12.22,10.5,1.77a23,23,0,0,1,4.72,2.73c1.82,1.5,2.45,3.6,4.1,5.16"/><path class="cls-2" d="M153.17,715.35c-.17.2.39,1,.48,1.35a17.76,17.76,0,0,1,.29,1.8,7.68,7.68,0,0,1-.38,3.64,5.91,5.91,0,0,1-1.24,2.26,2.23,2.23,0,0,1-1.22.74,3.88,3.88,0,0,1-.95.13c-.27,0-.45-.15-.72-.1a.4.4,0,0,1-.05-.3c.89-.13,1.74-1.49,2.17-2.16.69-1.07.5-2.61.31-3.75a9.32,9.32,0,0,1-.19-3.82c.2-.92.88-2.54,1.93-2.89.37.93-.65,1.85-.36,2.75"/><path class="cls-2" d="M145.87,713.4a5,5,0,0,0-1.27.52,4.15,4.15,0,0,0-.94.83,4.38,4.38,0,0,0-1.19,2.25,9.87,9.87,0,0,0,0,2.92,5.6,5.6,0,0,0,1.09,2.28,16.91,16.91,0,0,0-2-.56c-.49-.07-1.65.17-2-.12.92-.12,1.82-.32,2.73-.44a4.28,4.28,0,0,0-1.26-.44,19.62,19.62,0,0,1-1.94-.47,13,13,0,0,1,2.77-.25,10.26,10.26,0,0,0-1.34-.48c-.18-.08-.35-.19-.54-.26a4.34,4.34,0,0,1-.86-.19c-.42-.38.57-.41.86-.46a10.62,10.62,0,0,0,1.39-.24.15.15,0,0,0,0-.18,3.64,3.64,0,0,1-1.36-.28,2.59,2.59,0,0,1-.9-.37,5.34,5.34,0,0,1,1.26-.2,3.29,3.29,0,0,0,.87,0,4,4,0,0,1,.66-.24c-.17-.21-.86-.34-1.17-.46s-.81-.33-1.23-.48a17.34,17.34,0,0,0,2.78-.36c0-.5-1.76-.64-2.08-1.08a17.15,17.15,0,0,1,2.81-.28c.14-.66-1.41-1.41-1.73-1.93.51.14,2.06,1.44,2.59,1.14s-.07-1.46-.06-1.9a4,4,0,0,0,1.55,1.32c.78.19.71-.86.92-1.32s.48-1.26,1-1.46a5.7,5.7,0,0,0-.22,1.28,3.82,3.82,0,0,0-.17,1.45,1.41,1.41,0,0,0-.51.24c-.08,0-.43.16-.25.13"/><path class="cls-2" d="M145.7,728.84l-.12-.05a9.31,9.31,0,0,1,.71,1.41,7.05,7.05,0,0,1,.3,1.76c0,.22-.17,1.17-.42,1.28s-1.08-.41-1.38-.56c.05-.36.38-.65.55-1a2.91,2.91,0,0,0,.3-1.06,6.16,6.16,0,0,0,0-2,2.18,2.18,0,0,0-.57.08"/><path class="cls-2" d="M143.52,730.21a1.91,1.91,0,0,0-1.58,1.35,1,1,0,0,1,.1-.69c.13-.22.48-.31.39-.57a8,8,0,0,0-1.83.37,1.78,1.78,0,0,1,1-.61c-.32-.26-.87,0-1.3,0-.22-.75,3-.3,3.44,0a1.94,1.94,0,0,0-.33-.07"/><path class="cls-2" d="M153.58,707.75a9.66,9.66,0,0,1-.89-1.21,15.67,15.67,0,0,0-1.92-1.9,17.67,17.67,0,0,0-4.37-2.74,16.86,16.86,0,0,0-5.15-1.43,17.65,17.65,0,0,0-4.41.25c-1.75.19-3.23.22-4.13,1.89a2.29,2.29,0,0,0,.52,2.73,4.27,4.27,0,0,0,3,1.1c.82-.11,2.12-1.06,1.57-2-.23-.38-.74-.39-1-.59a1.83,1.83,0,0,1,2.18.86,1.43,1.43,0,0,1-.17,1.25,1.54,1.54,0,0,1-1.12.9,4.45,4.45,0,0,1-5.11-1.39,2.2,2.2,0,0,1-.66-1.4,7.52,7.52,0,0,1,.07-1.58c.19-1.06,1-1.47,2-1.93a17.84,17.84,0,0,1,3.92-1.43,22.57,22.57,0,0,1,2.29-.58,7.07,7.07,0,0,1,2.1.08,10.82,10.82,0,0,1,3.8,1.24,19.21,19.21,0,0,1,4,3.23c.78.71,1.32,1.49,2.07,2.25.32.32.74,1.16,1.21,1.28.67.18.28-1,.3-1.42a10.12,10.12,0,0,0-.16-2.39c-.11-.62-.32-1.16-.42-1.79a4.41,4.41,0,0,0-.52-1.49,1.87,1.87,0,0,0-1.23-1c-.39-.08-1-.21-1.3.1-.47.51.17,2.49,1,2a1.31,1.31,0,0,1,.06-.52.63.63,0,0,1-.35.79,1,1,0,0,1-1.13-.24,3.21,3.21,0,0,1-.88-2.54c.27-1.69,2.78-1.58,3.65-.51a7.77,7.77,0,0,1,.89,1.86,9.07,9.07,0,0,1,.48,2.19c.13.73.25,1.46.37,2.19.2,1.17.37,2.3.58,3.44a4.14,4.14,0,0,1,.19-1.74,9.36,9.36,0,0,0,.1-2.94c0-.53,0-1.1,0-1.64a19.46,19.46,0,0,0-.37-2.73c-.19-1.39-.23-2.8-.46-4.19s-.51-3.14-1.49-4.1c-.43-.42-.89-.75-1.29-1.22a9.66,9.66,0,0,0-1.47-1.53,7.24,7.24,0,0,0-1.49-.77,3.28,3.28,0,0,0-2.9-.06c-1,.53-1.54,1.2-1.18,2.22.16.5.3,1.08.92,1.24.35.09,1.12,0,1.31-.32.27.21,0,.65-.1.9a1,1,0,0,1-.88.68,2.29,2.29,0,0,1-2.31-1,3.53,3.53,0,0,1-.36-3.31,3.77,3.77,0,0,1,3.12-1.63c2.88-.3,4.78,2.13,6.09,4.17a26.21,26.21,0,0,1,3,6.92,30.78,30.78,0,0,1,.65,3.84,9.47,9.47,0,0,1,.08,1.92,12,12,0,0,0,0,1.47,3.09,3.09,0,0,0,.11.8c0,.08.25.4.25.45a9.66,9.66,0,0,1,0-1.07,5.51,5.51,0,0,1,.35-1.34c.43-1.12,1.23-2.18,1.37-3.38,0-.37,0-.75,0-1.12a10.39,10.39,0,0,1,.34-1.64,9.89,9.89,0,0,0-1.06-6.66c-.32-.57-.75-1-1.08-1.61s-.51-1.17-.89-1.69-.53-.83-.84-1.2a35.06,35.06,0,0,1-2.34-3.23,23.7,23.7,0,0,1-1.49-3.1,6.11,6.11,0,0,0-.68-1.35,6.29,6.29,0,0,0-.74-.81c-.13-.12-.4-.28-.45-.45a13.33,13.33,0,0,1,2.2,1.23,15.48,15.48,0,0,0,2.6.75,20.14,20.14,0,0,0,2.72.62c1,.14,2,.33,3,.51a50.43,50.43,0,0,1,7.9,2.08c1.4.49,2.87,1,4.22,1.54,1.64.7,3.17,1.63,4.76,2.44a23.45,23.45,0,0,1,5.17,3.34,32.53,32.53,0,0,1,4.26,4.83,25,25,0,0,1,3.15,5.6,29.23,29.23,0,0,1,1.42,5.78,17.62,17.62,0,0,1-1.29,11c-.67,1.31-1.2,2.71-2,4a24.51,24.51,0,0,1-2.32,3A24.15,24.15,0,0,1,182,725.7c-1.27,1.07-2.53,2.14-3.75,3.26a21.48,21.48,0,0,1-4.24,2.66,43.67,43.67,0,0,1-8.93,4.15,17.28,17.28,0,0,1-6.2.77,23.12,23.12,0,0,1-2.79-.38,7.93,7.93,0,0,0-2.77-.38,21.36,21.36,0,0,0,5.69-3.93,15.11,15.11,0,0,0,2.7-3.63,6.69,6.69,0,0,0,.64-2.08c.09-.63.34-1,.08-1.65a4.17,4.17,0,0,0-5.15-2c-1.61.8-1.84,3.8.22,4.18.9.16.71-.51,1-1.05.36.69.45,1.44-.57,1.75a2.26,2.26,0,0,1-2.12-.58,3.59,3.59,0,0,1-.15-4.92,5.53,5.53,0,0,1,2.47-1.85,4.18,4.18,0,0,1,3.19.52c1.79.94,1.48,3.06,2,4.68.5-.51.43-2,.38-2.62a6.72,6.72,0,0,0-.65-2.55,10.16,10.16,0,0,0-1.45-2.72,17.93,17.93,0,0,0-2.25-1.8c-.6-.44-1.22-.88-1.79-1.37a9.16,9.16,0,0,1-1.65-2.09,14.56,14.56,0,0,1-1.17-2.46c-.37-.89-.93-1.69-1.26-2.66"/><path class="cls-3" d="M121.06,706.9a3.27,3.27,0,0,0-1.83,2.74,2.53,2.53,0,0,0,1.52,2.51c.66.21,1.24-.41,1.65-.82a7.42,7.42,0,0,0,1.91-3.93,17,17,0,0,1,1-3.08,8.51,8.51,0,0,1,.66-1.44c.25-.36.69-.63.87-1a15.45,15.45,0,0,0-2.64,3,7.35,7.35,0,0,1-3.12,2.07"/><path class="cls-3" d="M123.35,702.63a7.64,7.64,0,0,1-3.71-.08c-.42-.08-.82-.19-1.24-.24a2.92,2.92,0,0,0-.66,0h-.25a.46.46,0,0,0-.24.12l-.24.19a1.51,1.51,0,0,0-.47.62,1.35,1.35,0,0,0,0,1.06,3.37,3.37,0,0,0,.28.38,4.69,4.69,0,0,0,.43.47,9.24,9.24,0,0,0,1.07,1,1.51,1.51,0,0,0,.65.31l.25.07a1.56,1.56,0,0,0,.61,0,3.32,3.32,0,0,0,.64-.15l.26-.11.15-.06a8.08,8.08,0,0,0,.83-.72c.75-.59,1.48-1.22,2.18-1.87.29-.27.53-.58.83-.83a3.12,3.12,0,0,1,.49-.31c.15-.09.36,0,.53-.13a4.42,4.42,0,0,1,.52-.14,1.16,1.16,0,0,0,.41-.22s.14-.07.14-.14a.29.29,0,0,0-.13-.18c-.14-.07-.35.08-.46.13a5.27,5.27,0,0,1-.49.22,3.58,3.58,0,0,1-.56.16l-.3,0c-.23,0-.43.16-.66.21s-.57.11-.85.18"/><path class="cls-2" d="M142.81,632c-2.17-1.82-3.17,4.29-3.48,5.21a59.73,59.73,0,0,0-2.6,9.08c-.77,4.75.57,10,2.73,14.31a23.74,23.74,0,0,0,2.8,4.83c1.08,1.29,2,2.71,3,4.05s2,2.2,2.93,3.35c.75.9,1.7,2.71,1.38,3.84-1.8.16-3-.71-4.65-1.19a20.43,20.43,0,0,0-5.77-.54,29.62,29.62,0,0,0-6.45.67c-2.28.53-4.5,1.5-6.77,2.17-1.56.47-3.67,1.79-3.62-.61a32.33,32.33,0,0,1,.79-4.87c.69-3.78-.33-7.76-1-11.39-.35-1.75-.9-3.42-1.22-5.18-.35-2-.5-4.16-.66-6.2a34.51,34.51,0,0,1,.5-8.56c.14-.75.19-1.61.3-2.35.07-.56.17-1.14.25-1.62s-.18-1.38.11-1.78,1.76-.88,2.21-1.1a15.63,15.63,0,0,1,6-1.65,38.59,38.59,0,0,0,4.43-.41,27.62,27.62,0,0,1,6-.51"/><path class="cls-2" d="M128.62,714.45c-.07.38.52,2.12.53,3a9.12,9.12,0,0,1-1,3.8c-.56,1-4.6,5.88-5.44,3.52-.24-.65,1-1.94,1.41-2.48a18.26,18.26,0,0,0,1.41-2.79c.76-1.57,2.57-4.77,2-6.49"/><path class="cls-2" d="M112.67,597a232.78,232.78,0,0,1,10.75-26.54,57.73,57.73,0,0,0,2.39-7c1.61-5.26,1.67-10,1.14-15.34a88.69,88.69,0,0,0-1.22-9.31,51.72,51.72,0,0,0-2.51-7.41c-1.12-3-2.1-6.14-3.2-9.15a124.76,124.76,0,0,0-9.6-20.94c-1.45-2.46-2.69-5.06-4.29-7.43-1.82-2.67-3-5.67-4.81-8.33-2.35-3.39-4.59-6.87-7-10.26a44.73,44.73,0,0,1-3.11-4.14A33.76,33.76,0,0,0,98,472.79c2.07.14,4,1.19,6,1.33,1.75.13,3.55-.2,5.31-.16a13.79,13.79,0,0,0,4.9-.57,9,9,0,0,0,1.49-.62c.72-.58.38-.86.4-1.7a36.39,36.39,0,0,0-.44-4.65,44.51,44.51,0,0,0-.69-4.65,5.38,5.38,0,0,0-.54-1.84c-.78-1.33-3.23-3.42-2.87-5.14a13.79,13.79,0,0,1,9.15.82c2,.93,4.08.62,6.21,1.21,4.32,1.18,7.89,3.51,11.91,5.29a25.27,25.27,0,0,0,9.17,1.77c2.19.11,4.68.17,6.11,2,2,2.52,1.56,6.63,1.67,9.59.39,10.4.91,21.1,2.92,31.34,1.71,8.77,3.06,17.89,4.78,27,1.9,10.06,6.41,20.38,7.48,30.13,2,18.38,3.17,38-2.25,55.63a98.56,98.56,0,0,1-10.33,22.89,111.25,111.25,0,0,1-8.87,12.78,46.35,46.35,0,0,1-5.35,5.69c-.88.78-1.68,1.66-2.66.7s-1.25-3-1.66-4.09c-.83-2.18-2.39-3.52-3.88-5.32-3-3.69-6.21-7.33-9.4-11-1.48-1.67-2.24-3.74-3.42-5.59a33.32,33.32,0,0,1-3.22-7.33c-.74-2.15-1.63-4.3-2.29-6.47a17.22,17.22,0,0,0-1.72-4.35c-.8.3-1.51,2.65-1.67,3.48a29.85,29.85,0,0,0-.48,4.44c-.06,1.56-.29,3.19-.21,4.74a31.82,31.82,0,0,0,1.09,4.86,33.46,33.46,0,0,0,3.12,7.81c1.09,2.17,2.71,4.87,2.91,7.11-2.17-.81-3.4-2.81-4.92-4.55a19.17,19.17,0,0,1-4.15-7.21,81.41,81.41,0,0,1-2.78-10.45,28,28,0,0,1-.33-5.87c.1-2.09,0-4.18.15-6.27s.82-4.19,1-6.31c.37-4.17,1.81-8.25,3.08-12.27"/><path class="cls-4" d="M139.17,654.93c-1.9-5.47-4.92-10.47-7.63-15.58-3.28-6.22-6.43-12.55-8.39-19.29-.71-2.46-1.21-4.87-1.83-7.39-.52-2.08-1.56-4.5-1.48-6.63-.74.38-.94,1.83-1.3,2.59-.52,1.08-1.21,2.15-1.78,3.19-1.29,2.34-1.79,4.7-2.73,7.11a32.59,32.59,0,0,0-1.27,5.88,16.72,16.72,0,0,0,.1,5.65c.73,3.61,1.36,7.25,3.07,10.78.07.13.14.26.2.4.63,1.23,1.36,2.42,2,3.64.28.51.44,1,.73,1.55a8.91,8.91,0,0,1,.82,1.84c.15.46.21,1,.39,1.4.07.16.2.63.34.71a3.39,3.39,0,0,0,0-.55l0-.6a5,5,0,0,0,0-1,4,4,0,0,1-.1-.69c0-.66,0-1.32,0-2,0-1.33,0-2.65,0-4a32,32,0,0,1,.56-4.08c.16-1,.83-2.48.77-3.57,1.11.47,1.47,2.33,2.1,3.28.86,1.28,1.58,2.65,2.39,3.88,1.82,2.77,3.53,5.57,5.23,8.32.69,1.1,1.33,2.23,1.94,3.37.32.58.62,1.16.93,1.75a12.29,12.29,0,0,0,.89,1.58c.15.2.28.42.43.61.32.42.69.79,1,1.21a12.51,12.51,0,0,0,1,1.11c.32.33.62.66.95,1s1,.9,1.39,1.38a1.33,1.33,0,0,1,.33.63,1.55,1.55,0,0,0,.43.6c.12.13.26.43.42.49a3,3,0,0,0,.47-1.35l0-.77a2,2,0,0,0-.14-.76c-.19-.68-.57-1.27-.79-1.94-.13-.4-.31-.79-.46-1.18s-.39-.78-.53-1.18-.33-.94-.49-1.4"/><path class="cls-4" d="M215.88,423.69c-.29.17-.78,0-1,.31s0,1.21.22,1.54c.63.93,1.93.43,2.73,0a18.79,18.79,0,0,0,5-4.32,66.25,66.25,0,0,0,4.71-5.77,30.67,30.67,0,0,0,4.08-6.75c.29-.75.71-1.42,1-2.17a4,4,0,0,1,.26-.65c.1-.15.25-.23.29-.4a8.15,8.15,0,0,1-1.56,0c-.59,0-1.15.14-1.74.13a15.19,15.19,0,0,1-3.08-.32,33.86,33.86,0,0,1-3.48-1.17l-1.33-.47c-.36-.12-.75-.22-1.09-.34s-.61-.52-.84-.78-1.63-1.72-1.75-1.46c-2.22,4.9-5.87,9.07-9.2,13.38-2.33,3-1.37,3.15.83,5.78a57.62,57.62,0,0,0,4.05,4.65.94.94,0,0,0-.94.08"/><path class="cls-2" d="M144.79,459.93a30.48,30.48,0,0,0-5.08-5.34c-2.81-2.59-5-5.49-7.57-8.24-4.86-5.12-9.8-9.28-14.9-14-4.76-4.38-9.62-8.72-13.77-13.87-3-3.77-5.84-7.93-9.26-11.38a89.69,89.69,0,0,1-9.48-10.47,155.21,155.21,0,0,0-24.88-27.06c4.09,1.65,7.8,4.1,12,5.52s8.45,2.78,12.68,4.23c5,1.7,9.87,4.12,15,5.28,7.58,1.71,14.73,4.8,22.1,7.19,7.21,2.34,14.51,4.57,21.88,6.53,4.59,1.22,9.06,2.81,13.69,3.86,3.82.85,7.73,2,11.49,3.09s7.33,2.31,11.12,3.13c3.33.73,6.74,1.28,10,2.06,4.91,1.15,9.62,2.8,14.34,4.37,2.89,1,4.91,2.25,8,1s3.41-5.12,4.13-7.9a31.91,31.91,0,0,1,1.54-3.92c.37-.93.24-2.31.84-3.1-2.19-.58-4.72-.86-6.95-1.54-3.88-1.19-7.82-2.46-11.74-3.71-12-3.82-24-8.19-36.12-11.59-11.8-3.29-23.3-7.4-35-10.95-12.91-3.9-25.77-8-38.44-12.61-4.52-1.63-9.21-2.64-13.8-4-3.89-1.14-7.79-2.4-11.66-3.5-6-1.7-12-3-18-4.68a115.36,115.36,0,0,0-16.49-3.56c-5.89-.69-11.49-2.43-17.3-3.31A52.78,52.78,0,0,0,5.72,341a27.32,27.32,0,0,0-4.61,0c-1.64.29-1.11,1-.65,2.48a21.35,21.35,0,0,0,1.77,4c1.5,2.7,2.77,6,4.72,8.68a50.81,50.81,0,0,1,3.47,5.38c.63,1.12,1.76,1.87,2.33,3a7,7,0,0,0,1,2.08c1.7,1.89,4.38,3.18,6.31,4.89a116,116,0,0,1,11.72,11.39c4.14,4.94,8.78,9.4,12.68,14.28,10.37,13,21.16,24.8,32.06,37.43,3.82,4.42,7.07,9.23,10.82,13.75,3.17,3.84,5.63,8.37,8.9,12.18,3.6,4.2,7.18,8.86,10.34,13.33,5.17,7.31,6.06,13.21,16.09,8.6,9-4.13,18.12-9.09,23.47-17.53-1-2.23-2.41-5.73-4-7.57"/><path class="cls-2" d="M212,412.71c-.43,0-.86-.1-1.28-.18a12.68,12.68,0,0,1-2.22-.46c-.45-.17-.86-.49-1.3-.63-.6.77-.42,1.95-.59,2.84-.06.32-.16.63-.22,1a9.68,9.68,0,0,0,0,1.94c0,1.11-.17,2.22-.15,3.33a13.92,13.92,0,0,0,.65,5.18,11.53,11.53,0,0,1,.45,2.48c.1.57.34,1.57,1.07,1.68a11.82,11.82,0,0,0,2.22-.09c1.64-.11,3.29,0,4.94-.11,2.12-.11,4.25.06,6.38,0,3-.16,5.84-.58,8.77-1,1.48-.22,2.92-.57,4.4-.77,1-.12,1.91-.26,2.88-.36.52-.05,1-.05,1.54-.08a3.93,3.93,0,0,1,.83-.07,3.46,3.46,0,0,1,.2-.83,4.54,4.54,0,0,0,.14-1.1c0-.32-.19-.94.17-1.12s.92.13,1.29.12a16.89,16.89,0,0,1,1.87.11c1.65.15,3.34.26,5,.27,1,0,2.09,0,3.12.09a11.43,11.43,0,0,1,1.84.23,53,53,0,0,1,6.62,2.1c2.18.81,4.3,1.76,6.41,2.7a76.45,76.45,0,0,0,8.1,3.25,32.16,32.16,0,0,0,18.26-.24c2.26-.72,4.15-2.29,6.43-3.08,4.41-1.52,8.56-4.26,12.64-6.3,2.5-1.25,11.91-5.65,7.74-8.7-1.64-1.21-5-.45-6.79-.62-2.66-.24-5.59-1.15-8.26-.75a73.2,73.2,0,0,1-7.32,1c-6.48.35-12.69,1.43-19.08,2.18-5.33.63-10.58,1.18-15.5-.08-2.59-.66-5.67-1.33-8-2.62-2.84-1.58-3.8-4.68-6-7a19.62,19.62,0,0,1-3.43,5.15c-.41.5-7.65-4.78-8.39-5.18-3.11-1.67-3-.17-5.55,1.86a13,13,0,0,1-2.72,1.66,10.44,10.44,0,0,0-2.31,1.17,4.29,4.29,0,0,1-2.11.83,26.76,26.76,0,0,1-3,.45,16.11,16.11,0,0,1-2.08.11c-1-.06-1.94.06-2.9,0-1.6-.07-3.19-.07-4.77-.24"/><path class="cls-2" d="M188.06,683.13c6.31,7.2,12.24,14.85,18.58,22.18,3.6,4.18,8.17,6.93,11.94,10.64,7.87,7.77,13.57,17.31,20.29,26.36,5.43,7.3,11.92,13.62,17.3,20.89,16.14,21.8,30.94,47.69,52.66,64.8,6.93,5.46,18,16.29,24.83,5.24.84-1.36,3.39-6.64,3-8-.58-2-5.15-3.25-7.25-4.63-6.17-4-10.88-9.78-16.66-14.27-7.47-5.79-12.82-13-19.73-19.34-9.16-8.39-17.58-19.14-25.16-29a185.07,185.07,0,0,1-11.25-16.86c-3.75-6.16-9.39-10.77-12.89-17S235.56,712,230.87,706.2c-6.18-7.64-12.44-15.23-19-22.59S198.78,668.85,192.82,661c-5.68-7.48-10.06-16-16.07-23.34-5.07-6.22-10.81-13.12-16.92-18.5-6.51-5.74-15-4.41-21.4-9.2-5-3.74-13.57-2.44-13.11,5.49,1,17.12,16.17,26.24,27.45,37.41,10.31,10.21,24.26,17.89,34,28.82l1.29,1.47"/><path class="cls-1" d="M360.36,831.83c.94,0,1.9,0,2.79,0,1.62.1,3.25.19,4.86.43a17.35,17.35,0,0,1,8.33,3.55c3.56,2.79,7,9,11.33,10.21a4.52,4.52,0,0,1-.28,3.65c-6.35-.43-9.76-9.1-16.59-9-2.86,5.83,8.53,7.94,5.23,14.94-6.51-.23-5-10-13.9-8.74-2.14,4.67,3.14,7.61,1.34,12-4-2-4.53-11.84-9.55-11.21-.94,4.22-.56,8.81-1.43,13.07a5,5,0,0,1-3.67-.26c-.4-6.71.81-11-4.16-15.3-3.61-3.13-27.76-10.75-18.58-19,4.53-4.09,8.05,0,11.75,2.65a9.31,9.31,0,0,0,1.75.94c2.55,1.15,5.21,1,7.91,1.36.89.11,1.67.59,2.56.66a4.6,4.6,0,0,0,3.29-1.33c1-.95,1.74-2.82,3.25-3a1.66,1.66,0,0,1,1.75,1.12c.28.87-.28,1.38-.76,2s-.7,1,.33,1.17a13.87,13.87,0,0,0,2.45.17"/><path class="cls-4" d="M98.63,73.2c-1,2,.11,5.29-.12,7.48a28.37,28.37,0,0,0-.16,4.22c0,.93.16,3.09-.47,3.84a48.68,48.68,0,0,0-9.71.82c-3.67.54-3.08-1.64-4.17-4.48a48.8,48.8,0,0,0-4-8.33c-1.19-1.92-2.86-3.59-3.77-5.7-.77-1.77-1.18-4.36-2.79-5.59.62-.56,2-.71,2.84-1.07,2.36-1,3.62-.8,6-.29A49.94,49.94,0,0,1,89.7,66c1.19.46,1.75,1.31,2.73,1.85,1.78,1,4.13,1.08,6,2.06.07,1.19,1.41,4.41.06,5"/><path class="cls-2" d="M74.1,70c.2-1.27.83-3.9,2.88-2.71,1.6.92,1,3.7,2.26,5,.85.83,2.63.52,3.93,1S86,74.38,87.42,75c2.61,1.2,5.72,1.73,8.28,3.07a23.73,23.73,0,0,1,3.8,2.38,20.62,20.62,0,0,0,2.18,2c.29.16,1.89-5.6,2-6.09.49-1.87,1.82-3.65,2-5.56a35,35,0,0,1,.24-4.56c.28-1.37.21-3.29,1.14-4.44-1.32-.45-2.2-1.54-3.21-2.36-2-1.63-4.26-3.24-6.42-4.75a59.89,59.89,0,0,1-8.67-7.16C87,45.75,86,43,83,44.19c-1.47.58-2.82,1.4-4,.05-1-1.06-1.49-2.25-2.84-3-1-.51-2.13-.72-3.13-1.28a50.89,50.89,0,0,1-4.73-3.26c-4-2.91-7.25-6.91-10.76-10.31-6.61-6.41-12-14-18.31-20.71-1.39-1.49-2.88-3.08-4.36-4.46C34.37.87,33.47-.26,32.73.06c-1.25.53.08,4.36.45,5.23.93,2.26,2,4.63,3.14,6.86S39.5,16,41,18.12c2.93,4.19,6.34,8.3,9.19,12.56A60.63,60.63,0,0,0,55,36.27a69.14,69.14,0,0,1,4,5.79c1.19,1.7,2.48,3.23,3.63,4.95s2.51,3.11,3.59,4.76a32.13,32.13,0,0,1,2.65,4.46c.41,1,.46,2.34,1.22,3.2-1.07.85-1.33,2.28-2.14,3.34a16.93,16.93,0,0,1-2.72,2.41,8.27,8.27,0,0,1-3.49,2,14.07,14.07,0,0,0-2.55.54c2.13.8,5.22,1.65,7.49.81,1.17-.43,5.77-6.13,6.66-3.49-.34.49-.4,1.19-.71,1.62a25.29,25.29,0,0,1-1.91,1.81A7.41,7.41,0,0,0,74.1,70"/><path class="cls-2" d="M110,485.42c-3,1.41-3.11-14.5-3.43-17.81-1-10.88-2.93-21.77-3.7-32.72-1.51-21.51-2-43.32-3.47-64.9-2.82-42.06.58-84.88-3.57-126.89-3-30.7-5.21-62.16-12.28-92-3-12.74-4-26.19-7-39-2.55-10.74-8-22.67-6.73-33.68,4.83-1.43,13.81,2.43,19.1,3.17,4.65.66,6.68-1.39,8.93,3.32,1.21,2.55-.16,9.2-.52,11.92-1.92,14.63,3.82,31.22,7.43,45.91,8.64,35.1,14.14,72.36,17.64,108.59,1.64,16.92,1.26,33.76,1.72,50.83.48,17.61,3.52,34.66,3.52,52.52,0,34.23,2.72,69.5,0,103.6-.78,9.85-.7,20.32-2,30.28-5,1.65-12.44-3.36-17-5.12-.11-2-1.7-3.16-2.1-4.8"/></g></g></svg>