<svg xmlns="http://www.w3.org/2000/svg" viewBox="0 0 246.89 403.87"><defs><style>.cls-1{fill:#fff;}.cls-2{fill:#007293;}.cls-3{fill:#1d1d1b;}.cls-4{fill:#e30613;}</style></defs><g id="Ebene_2" data-name="Ebene 2"><g id="Ebene_1-2" data-name="Ebene 1"><path class="cls-1" d="M184.89,100.14c-.95,3.34,1.58,10.08,2.44,13.45,1.23,4.78,2.37,9.37,3.46,14.25a114.17,114.17,0,0,1,2.33,14.57c.45,5.05-.06,9.36-.53,14.28A119.89,119.89,0,0,1,190,170.58c-1.09,5-3.42,8.52-6.43,12.55-4.65,6.25-11.16,13.13-18.68,16.05,0-1.74,1-3.22,1.65-4.81a59.88,59.88,0,0,0,3.07-9.8c1.74-7.9,4.37-15.61,6.18-23.5,1-4.16,1.84-8.35,2.75-12.52,1.09-5,2.41-10.94,4.95-15.42"/><path class="cls-2" d="M90.74,218.41a22.51,22.51,0,0,0,9.12-10.31c2-4.27,4.71-18.34,11.72-15.66,7.71,2.95,4.09,12.73,1.88,18.08-3.12,7.54-8.5,11.94-15.61,15.5A56.86,56.86,0,0,1,84,230.84c-22.38,4.65-38.81-14.24-50.23-31.66-1.73-2.64-3.35-5.69-4.92-8.43-1.38-2.39-1.23-6.93-4.18-8.1-1.72-.69-1.6.83-3,.85a5.25,5.25,0,0,1-2.86-1c-.18-1.67,0-3.62,1.89-4.13-.73,1.2-3.14,3.09-4.33,1.09-.79-1.33,1.86-3.94,2.87-4.78-1.17.64-1.6,1.34-3,1.52s-3.38-.27-2.89-2.18c.34-1.34,4.39-1.91,3.39-4-.53-1.1-3-1-3.95-.81-2.38.33-5,1.79-7.08,3-1.41.85-4,3.77-5.66,2.92-.78-3.35,4.52-6.82,6.62-8.39,3.11-2.32,5.52-3.83,9.54-3,3.09.66,5.9,3,8.68,4.55,1.82,1,5.25,4.3,5.52,6.58,2.57.89,5.42,7.54,6.82,10C42,193.3,46.43,202.15,53.1,209c11,11.31,22.48,17.85,37.64,9.39"/><path class="cls-3" d="M70.85,141.15c-.23-.2.25-1.05.32-1.44a6.14,6.14,0,0,0,0-2.05,9.88,9.88,0,0,0-1.25-3.48c-1.45-2.45-4.83-4-7.13-1.77-1.56,1.52-2.8,5.61-1.15,7.46a2.81,2.81,0,0,0,3.24.73c.81-.53,1.67-2,.66-2.66a1.45,1.45,0,0,1-1.76,1.11c-1-.16-1.1-1-.91-1.9.36-1.67,2.51-2.66,3.6-1.21a11.86,11.86,0,0,1,2,4.49c.17.7.51,4,1.37,4a7.74,7.74,0,0,0,.81-2.83,14.32,14.32,0,0,0,.41-4.13"/><path class="cls-2" d="M164,73.4c-2.25,2.19-2.1,8.1-2.32,11-.49,6.34.93,12.82.33,19.19-.81,8.54-2.36,16.93-3.39,25.4-1.17,9.65.7,20.84-7,28.44-6,5.93-19.22,7.29-25.34,1.33a24.85,24.85,0,0,1-6.4-11.52c-.69-2.81-.75-4.09-2.69-6.37-1.24-1.46-2.09-3.12-4.16-3.36.48-5.17,3-10.24,2.69-15.43s-.57-10.73-3.35-15c-3.15-4.9-9.57-8.13-15.27-8.41S84.4,102.66,80,106c-5.58,4.15-7.44,8.75-8.87,15.28-.34,1.55-.69,3.11-1,4.66a19.07,19.07,0,0,0-.76,4.78c.06,1.19.44,2.38.56,3.57.16,1.57.31,3.14.49,4.71a13,13,0,0,1-.51,4.23c-.34,1.55-2,5.38-.37,6.59,2.05,1.55,4.52-3.17,6.78-2.61,1.51.38,1.56,2.51,2.11,3.68s1.65,2.62,1.51,4a6.66,6.66,0,0,0-.14,2.47c.58,2.48,2.36.83,3.9.55a17.16,17.16,0,0,1,6.92.29c1.52.33,3.18.19,4.65.68,3.61,1.18,7,6.06,8.3,9.48.9,2.33,1.45,4.82,2.41,7.16,1.43,3.5,2.24,7.16,3.72,10.63.33.76.7,1.5,1,2.26a7.22,7.22,0,0,1,.33,1.84c.23,1.23,1.19,2.16,1.84,3.18s1.24,1.62,1.73,2.56a8.66,8.66,0,0,0,2,2.54,100.06,100.06,0,0,0,10.55,7.25c2.19,1.41,4.83,2,7.15,3.19a30.19,30.19,0,0,0,4.27,1.44c1.54.5,3,1.08,4.58,1.63,2.64.95,5.65.33,8.18-.6,1.8-.65,3.51-1.72,5.26-2.52a18.21,18.21,0,0,0,2.54-1.38c2-1.33,4-2.31,5.66-4.12a46.56,46.56,0,0,0,4.77-5.71c1.79-2.67,3.41-5.46,5.25-8.1s3.54-4.93,5.25-7.47a60.52,60.52,0,0,0,4.61-8.68,80.35,80.35,0,0,0,4-12.18A76.35,76.35,0,0,0,191,147.94c.48-5.2.82-10.92-.52-16-.57-2.17-1.41-4.22-2-6.4s-1.61-4.41-2.16-6.7a55.44,55.44,0,0,1-1.2-7c-.54-5.28-.81-10.59-1.27-15.88-.2-2.34-2.54-3.44-4.14-4.93a46.1,46.1,0,0,0-6.1-5.35c-1.41-.89-3-1.39-4.22-2.56-3-2.79-4.41-6.81-6.85-10.07"/><path class="cls-1" d="M88,164.87l-.32-.17a.27.27,0,0,1,.07-.31c1.25.06,2.82-.92,3.9-1.47a20.91,20.91,0,0,1,2.3-1.07,11.52,11.52,0,0,0,2.36-.68c1.29-.81,3.2-1.63,4.69-.57a20.49,20.49,0,0,1,4.17,3.94c1.45,1.87,2.13,4.28,2.95,6.52a38.64,38.64,0,0,1,2.53,8.76c.32,2.86,2.58,5.56,4,8,.89,1.6,2.06,3.11,3.09,4.63a44.63,44.63,0,0,0,2.79,4,55.53,55.53,0,0,0,8,8.17,29.45,29.45,0,0,0,4.79,2.94c1.14.57,2.32,1.07,3.44,1.7s1.94,1.28,3,1.8a12.68,12.68,0,0,0,4.2,1c.76.08,1.41,0,2.14.1a10.67,10.67,0,0,1,2.12.07,57.84,57.84,0,0,1-7.31-2.25,39.85,39.85,0,0,1-6.73-3.57A39.46,39.46,0,0,1,122.67,196a48.36,48.36,0,0,1-3.62-6.19c-1.59-3-3.68-5.57-5-8.69a38.29,38.29,0,0,1-2.83-8.59c-.53-3.16-.64-6.55-1.43-9.63-.59-2.31-1.15-4.65-1.82-7a14.13,14.13,0,0,0-1.13-3.05c-.61-1.06-.58-1.12-.09-2.23,1-2.35,2.13-5,2.93-7.5a53.52,53.52,0,0,1,1.79-5.41c.64-1.44,1.25-2.9,1.77-4.38.18-.49.33-1.8.85-1.77s2,2.2,2.35,2.58a19,19,0,0,1,2.06,2.71,5.75,5.75,0,0,1,.46,1.91c.13.61.48,1.16.57,1.79a15.61,15.61,0,0,1,0,1.81,4.84,4.84,0,0,1,.12,1.28,18.55,18.55,0,0,1,2.77-2.41c.8-.41,1.84-.25,2.49-1,1.29-1.47,1.29-4.22,2.11-6,2.07-4.39,3.47-1.22,5.49,1.37,1.16,1.48,5.25,5.7,5.15,7.84,0,.63-1.77,3-2.22,3.7-.94,1.45-1.81,2-1.86,4,0,.52,7.14,1.88,8.14,1.6,6.58-1.85,7.56-9.21,8.19-14.84.91-8.27.51-16.62,0-24.9-.34-5.06-.93-10.6-.56-15.53.2-2.61-.56-5.21-.28-7.72a16.8,16.8,0,0,1,2.59-6.3c1.55-2.54,3.89-4.73,4.93-7.49.37-1,.24-3.44,1.77-3.45,1.69,0,1.87,3.27,2.45,4.45.93,1.86,2.54,3.06,4,4.46,2.12,2,4.33,4.15,6.59,6.07,4.74,4,10.07,6.86,13.18,12.59,2.6,4.81.6,11.55.23,16.72-.51,7.32-1.21,14.69-1.41,22-.39,13.76-1.48,26.68-6.1,39.74-3.43,9.69-7.8,20.87-16.1,27.33-4.29,3.33-9.77,6.38-15.31,6.26a34.6,34.6,0,0,1-5.76-1.09c-4.84-.92-9.2-3.33-13.71-5.2a32.81,32.81,0,0,0-7-2.18c-6-1-12.27.5-18.3-.85-1.45-.32-1.82-.39-1.53-1.93a34.29,34.29,0,0,1,.87-3.35c.64-2.09,1.39-4.15,1.86-6.29a40.83,40.83,0,0,0,.82-7.74c0-2,.51-4.17,0-6.18a13.77,13.77,0,0,1-.69-2.41,12.37,12.37,0,0,0-.77-2.67c-.35-1.05-.37-2.12-.69-3.21s-.58-1.88-.88-2.86,0-1.85-1.18-1.65a7.75,7.75,0,0,1-2.46.26,19.19,19.19,0,0,0-3.47-.37c-1,.1-2.09.41-3.14.44a7.15,7.15,0,0,1-2.55-.15c.27-1,1.36-2,2-2.81a7.33,7.33,0,0,0,1.33-2.57c.22-.85.79-1.79,1.82-1.59.28.06.58.34.92.38a9.39,9.39,0,0,0,1.08-.12,5.35,5.35,0,0,1,2,.45,2.35,2.35,0,0,1,1.12,1.27c.12.52-.44,1.86-1,1"/><path class="cls-2" d="M134.9,122a23.54,23.54,0,0,1-1.8,7,22.49,22.49,0,0,0-1,2,8.25,8.25,0,0,1-1.22,2.78,5.77,5.77,0,0,0-.92,1.37c-.87,2.34,1.32,6.84,3.91,6.46,2.16-.32,4.22-4.65,4.77-6.47a51.63,51.63,0,0,0,2.19-20.69c-.66-6.18-2.06-12.12-3-18.23s-3.54-12-5.13-18.18a66.06,66.06,0,0,1-1.27-26.23c.29-1.88.65-3.76,1.12-5.62.24-.92.49-1.84.77-2.76.07-.22.15-.45.22-.68s0-.41.07-.5c.09-.32.33-.68.46-1s.2-.8.32-1.18.33-1.09.46-1.62a25.22,25.22,0,0,1,1.73-4.7,30.39,30.39,0,0,1,1.67-3.5c.65-1,1.06-2.07,2.25-2.52a4.18,4.18,0,0,1,2.68.1,4.83,4.83,0,0,1,.56.36c.27.16.55.26.82.43a5.42,5.42,0,0,1,1.09.94c.33.36.65.73.95,1.11a1.6,1.6,0,0,0,1.32.8c.84-.07.66-1.56.48-2.14-.44-1.33-1.47-1.92-2.49-2.74a20.59,20.59,0,0,1-2.8-2.09c-.58-.63-1.21-2.31-.23-2.89a1.9,1.9,0,0,1,1.29-.06c.55.08,1.1.19,1.66.31a9.88,9.88,0,0,0,2.17.23c.88,0,1.73.29,2.62.33a13.3,13.3,0,0,0,2.6-.14,4.8,4.8,0,0,0,1.57-.54,3.36,3.36,0,0,0,1.3-1.09,1.56,1.56,0,0,0,.35-1.13,1.8,1.8,0,0,0-1-1,3.64,3.64,0,0,0-2-.33,12.8,12.8,0,0,0-2.11.72l-2.42.77a8.87,8.87,0,0,1-3.67.51c-.91-.12-2.06-.21-1.67-1.49a8.53,8.53,0,0,1,2-2.73,6.37,6.37,0,0,1,1.82-1.49c.64-.33,1.3-.56,1.91-.94.87-.55,1.81-1,2.72-1.49a3.5,3.5,0,0,0,1.76-1.61,1.19,1.19,0,0,0-.52-1.63,5.15,5.15,0,0,0-1.55-.52,2.55,2.55,0,0,0-2,.52,7.39,7.39,0,0,0-.94.73c-.41.41-.7,1-1.1,1.39a23.18,23.18,0,0,1-3.13,2.66,11,11,0,0,1-2.37,1.6,1.32,1.32,0,0,1-1.15,0c-.33-.22-.13-.61,0-.9.64-1.3,1.22-2.66,1.88-4,.78-1.56,1.72-3.09,2.61-4.57a14.17,14.17,0,0,0,1.69-3.56c.2-.83.47-2.56-.84-2.2a4.77,4.77,0,0,0-2,1.43c-.74.77-1.5,1.52-2.24,2.29-1,1.05-1.73,2.34-2.7,3.42a19.79,19.79,0,0,0-2.49,3.07,21,21,0,0,1-1.55,2.3c-.54.65-1.15.1-1.72-.28a1.32,1.32,0,0,1-.64-1.06,9.56,9.56,0,0,1-.23-1.68c-.05-1-.08-2-.05-3,0-.61-.2-1.75-1-1.59-.94.19-1.75,1.65-2.18,2.42a10.72,10.72,0,0,0-1.22,4.73,8,8,0,0,0,.65,3,16.11,16.11,0,0,0,1.36,3,5.72,5.72,0,0,1,.71,2.92,10.14,10.14,0,0,1-.77,3c-.21.62-.4,1.25-.59,1.89a28.74,28.74,0,0,1-1.37,3.18,15.9,15.9,0,0,1-1.05,2A44.24,44.24,0,0,0,124,37.34c-.49,1.14-.93,2.29-1.33,3.46-4.74,14.1-2.15,30.27,4,43.34a93.57,93.57,0,0,1,7.21,23.45,53.13,53.13,0,0,1,1,14.45"/><path class="cls-3" d="M83.08,122.94A14.21,14.21,0,0,1,82,124.86a8.68,8.68,0,0,0,2.43-1.72,9,9,0,0,1,1.77-1.66c1.08-.75,3.2-1.86,4-.32a19.29,19.29,0,0,1,1.54,4.48c.18.7.87,4.94,1.53,4.9.77-2.18.6-4.82.39-7.1-.1-1.16-.22-2.34-.35-3.47-.07-.65-.14-1.92-.78-2.34s-2.09-.08-2.79.26a15.2,15.2,0,0,0-2,1.24c-.82.56-1.58,1.25-2.38,1.84a7.71,7.71,0,0,0-2.17,2"/><path class="cls-3" d="M75.9,116.38c.24,2.46-.91,4.91-1.93,7.06-.08-.52-.26-1-.29-1.54a11,11,0,0,1,.21-1.56,8.37,8.37,0,0,0,0-3.38c-.56-1.48-1.57.06-2.06.71s-.83,1-1.21,1.54a18,18,0,0,1-.93,1.62,8.87,8.87,0,0,1,.73-2c.32-.72.57-1.44.91-2.14s.64-1.28,1-1.9c.28-.45.88-1.87,1.41-2,1.63-.35,2,2.52,2.1,3.57"/><path class="cls-1" d="M87.68,134.18c-.12.09-.13.1-.05,0a3.46,3.46,0,0,0-.77-4.17c-1.3-.93-3.07-.48-4.34.24.22.5.08,1.14.28,1.69a4.4,4.4,0,0,0,1.53,1.73,2.81,2.81,0,0,0,2,.74c.36,0,1.14-.49,1.23-.87"/><path class="cls-1" d="M72.83,126.43l-.18,0c-.53-.61-.9-1.17-1.69-1.34a2.26,2.26,0,0,0-2,.38c.57.92.77,1.56,1.87,1.78.78.15,2.15-.27,2.15-1.28"/><path class="cls-3" d="M87.86,134.66c-.12.09-.13.1,0,0,.57-1.14-.44-3.49-1.32-4.27a2.54,2.54,0,0,0-2.27-.27,5,5,0,0,0-1,.2c-.28.11-.51.38-.79.44a10.49,10.49,0,0,1,1-1.92c.21.32,0,.85-.13,1.2.34-.41.57-1,1.1-1.17,0,.33-.15.64-.15,1,.32-.12.67-.51,1-.67a4.75,4.75,0,0,1,1.37-.43c.17.28,0,.68-.1,1,.24-.25.45-.52.82-.49,0,.45-.22.9-.25,1.35a4.3,4.3,0,0,1,.85-.18,1.64,1.64,0,0,1-.28,1c.44.12.67-.52,1.15-.33A3.33,3.33,0,0,1,88,132.9a7,7,0,0,0,.9-.35,7.12,7.12,0,0,1-1.21,1.72,2.07,2.07,0,0,1,.43-.13c-.63,1.11-2.5.16-3.24-.41a6.26,6.26,0,0,1-2.06-2.95c-.38,1.45.81,3.26,1.86,4.05.49.37,1.54.9,2.16.63s.85-1.27,1-1.84"/><path class="cls-3" d="M73.28,126.38l-.13.07c-.45-.72.62-1.57.76-2.24a11.53,11.53,0,0,1-1.27,1.25c0-.45.22-.89.24-1.33-.3.22-.42.65-.69.82a11.32,11.32,0,0,1,.1-1.43c-.34.1-.5.78-.76,1-.11-.36-.25-1.64-.61-1.75-.1.37-.31.67-.41,1-.28-.4-.31-1.26-.79-1.45a2.33,2.33,0,0,0,.22,1.61,4.76,4.76,0,0,0-.83-1.44c-.07.63.5,1.53.65,2.14-.21-.34-.83-.78-1.16-.54.74.19.53.8,1,1.12,1.11-.9,3,.15,3.25,1.49-1,.18-1.53.77-2.43.19A4,4,0,0,1,69,125a2.88,2.88,0,0,0,1.28,2.74,1.26,1.26,0,0,0,1.73-.32,5.32,5.32,0,0,0,.59-.74c.2-.31.3-.8.56-1"/><path class="cls-3" d="M86,131.22c-.14.08-.15.09,0,0,1.11-.15.76,1.93.62,2.49A1.7,1.7,0,0,1,84.28,135c-2.31-.63-.7-6,1.75-4"/><path class="cls-3" d="M71.23,125.43c-.13.07-.15.08,0,0,1-.21,1,2.93-.63,2.32a1.16,1.16,0,0,1-.61-1.17c0-.72.4-.88.86-1.28"/><path class="cls-4" d="M84.36,150.51c0,.71-.9,1.44-1.42,1.86s-1.2,1.12-1.8,1.71c-.32.33-1.23.61-1.62.22a1.22,1.22,0,0,1-.25-.81,2.68,2.68,0,0,1,0-.49,1.07,1.07,0,0,1,.13-.44c.13-.17.35-.17.5-.28-.06,0-.14,0-.2,0l-.27.07a.59.59,0,0,1-.26.07.73.73,0,0,1-.45-.28,1.18,1.18,0,0,1-.26-.43,1.07,1.07,0,0,1,0-.94.8.8,0,0,1,.52-.34,2.59,2.59,0,0,1,1.51.06,12.62,12.62,0,0,0,2,.65c.7.12,1.19-.49,1.81-.67"/><path class="cls-3" d="M105.2,125.9c-.44-.3-.94-.52-1.41-.79s-.88-.72-1.3-.67a22.63,22.63,0,0,0-.89,4.61,13.53,13.53,0,0,0-.1,3,25.36,25.36,0,0,1,.41,2.59c0,1.11.47,3.2-.64,3.83-1.46.82-3,2.21-4.73,2.45a10.05,10.05,0,0,0,.23-1.66c.16-.93.34-1.89.48-2.84.35-2.43.6-4.9.85-7.36a31.67,31.67,0,0,0-.38-10.06,11.83,11.83,0,0,0-.69-2.77,2.1,2.1,0,0,0-.74-1c-.51-.33-1.09-.54-1.63-.85a17.15,17.15,0,0,0-5.49-2.1c-.93-.16-1.78-.59-2.68-.81a4.17,4.17,0,0,0-2.65.22,4.43,4.43,0,0,1-1.65.56,5.22,5.22,0,0,1-2.34-1,4.12,4.12,0,0,0-.7-.34c-.73-.27-1.3.48-2,.66a2.13,2.13,0,0,1-.71,0,1.87,1.87,0,0,0-.94.09,2.1,2.1,0,0,0-.81.81,4,4,0,0,1-.82.88,2.73,2.73,0,0,0-.66.56,3.63,3.63,0,0,0-.47,1.21c-.16.53-.31,1-.43,1.6-.07.31-.16.62-.24.93a5.06,5.06,0,0,1-.32,1,3.43,3.43,0,0,0-.21,1c-.06.3-.17.55-.22.86-.07.47-.24.89-.29,1.36s-.27.77-.76.64-1.39-.5-1.61.3-.25,1.79-.5,2.66a6.16,6.16,0,0,1-1.36,2.56c-1.87,2-6,2.9-8.53,3.69-4.18,1.31-6.53,2.85-10.85,2.57-6.19-.39-12.21-1.49-15.45-7.66-2.62-5-1.73-13.06,0-18.23,3.67-.29,8,6.16,12.3,1.91,3.15-3.13-5.39-9.31-3.3-14.28,3.87,3.08,6,7.25,11.75,7,3.75-.13,6.92-2.84,10.87-2.83,1.85,0,5.47,1.68,5.63-1.16,0-.86-1.92-3.15-2.34-3.89-1.43-2.53-3.92-6.66-3.11-9.52,3.23,3.61,4,7.72,10,7.65,2,0,4.5-1,6.46-1.59,5.53-1.55,12.17,1.33,17.35,3.07a40.41,40.41,0,0,1,6.79,2.87,41.92,41.92,0,0,1,8.69,6.61,32.41,32.41,0,0,1,5.48,6.74c1,1.75.81,4,.66,6a40.93,40.93,0,0,1-1.63,8.2,15.29,15.29,0,0,1-1.37,3.84,29.25,29.25,0,0,0-1.85,3.77c-.59,1.33-1.18,2.38-2.63,2.83-.77.24-1.58.49-2.36.76-.45.15-.92.24-1.35.43s-.8.51-1.27.44c.31-1-.22-2.66-.21-3.75a14.31,14.31,0,0,1,.22-2.27,13.23,13.23,0,0,1,.3-1.78,1.92,1.92,0,0,0,.09-1.34,4.54,4.54,0,0,0-2-2.09"/><path class="cls-3" d="M82.9,148.58a45.42,45.42,0,0,0,4.81.58,5.14,5.14,0,0,0,4.15-1.43c2.07-1.81,3.26-4.83,1.78-7.37a4.94,4.94,0,0,0-3.34-2.09,4.56,4.56,0,0,0-4,1.11,6.25,6.25,0,0,0-2.32,4.72,2.47,2.47,0,0,0,1.41,1.67,1.57,1.57,0,0,0,1.77-.6c-.14,0-.32,0-.48,0-.8-1,.4-2.85,1.36-3.19s2.59-.43,2.92.79c.61,2.31-2.59,4.36-4.55,4.39-2.72,0-4.33-2.35-6.8-2.89a10.1,10.1,0,0,0-1.46-.24h-.36a1,1,0,0,0-.25,0,1.35,1.35,0,0,0-.49.31,2.2,2.2,0,0,0-.66.82,3.71,3.71,0,0,0-.31.75c0,.24-.12.48-.16.72a1.46,1.46,0,0,0,0,.55,1,1,0,0,0,.38.59,2,2,0,0,0,.68.44.28.28,0,0,0,.25,0,1.24,1.24,0,0,0,.22-.18c.07-.05.14-.07.21-.12s.25-.27.44-.35a2.86,2.86,0,0,1,2,.25,21.09,21.09,0,0,0,2.82.8"/><path class="cls-3" d="M112.59,163.41c-1.22,0-1.8-1.9-1.54-2.95a2.58,2.58,0,0,1,1-1.13c.23-.18.38-.32.65-.24a2,2,0,0,1,1.44,2.32c-.3.83-.49,2-1.54,2"/><path class="cls-3" d="M113.51,170.88c.42.23,1,.08,1.08.68a10.52,10.52,0,0,1,.08,1.26c0,.82-.38,1.6-1.29,1.29-1.49-.51-.77-3.5.85-3"/><path class="cls-3" d="M117.16,183a2.08,2.08,0,0,1-.7-2.51c.16-.37.5-.82.92-.87a2.36,2.36,0,0,1,1.6.66,2.06,2.06,0,0,1,.27,1.39c-.11,1.09-1,2.05-2.09,1.33"/><path class="cls-3" d="M122.08,191.22a1.34,1.34,0,0,1-1.35-1.71,5.28,5.28,0,0,1,.59-1.22c.23-.43.65-.86,1.17-.71s.64.82.73,1.27c.2.89,0,2.36-1.14,2.37"/><path class="cls-3" d="M126.75,196.58c.27-.68.86-.67,1.46-.58a1.12,1.12,0,0,1,.94.95c.27.92-.14,2-1.2,1.9a1.62,1.62,0,0,1-1.2-2.27"/><path class="cls-3" d="M133.65,203.74a1.23,1.23,0,0,1-.05-2.07,1.61,1.61,0,0,1,1.14.14,1,1,0,0,1,.29,1.1,1,1,0,0,1-1.38.83"/><path class="cls-3" d="M139.25,207.38a1.13,1.13,0,0,1,.44-1.92c.69-.12,1.23.71,1.1,1.33a.9.9,0,0,1-1.54.59"/><path class="cls-3" d="M146.22,210.44a1,1,0,0,1-1.17-1.09.6.6,0,0,1,.36-.5,2.36,2.36,0,0,1,1-.37c.26,0,.84.12,1,.38a1.8,1.8,0,0,1,0,.73c-.09.61-.56.8-1.12.85"/><path class="cls-3" d="M153.6,209.32c-.18.32,0,1-.63,1.23a1.26,1.26,0,0,1-1.48-.61c-.38-1.38,3.88-2.79,4-1.69"/><path class="cls-3" d="M161.68,205c-.39.38-2.15,2.78-2.59,1.11-.33-1.27,2.54-3,3.06-1.57"/><path class="cls-3" d="M168.83,195.73c-.45.43-1.15,3.26-2.29,2.28-.61-.52.4-1.62.74-1.89a2.4,2.4,0,0,1,1.42-.61"/><path class="cls-3" d="M172.66,187.43c-.32.48-.37,4-1.76,3.13a5.47,5.47,0,0,1,2.44-3.73"/><path class="cls-3" d="M176.52,176.51c-.18.81-.46,3.63-1.66,3.54-.54-1.23.77-2.84,1.66-3.54"/><path class="cls-3" d="M179.5,165.39a11.82,11.82,0,0,0-.18,1.65,10.24,10.24,0,0,1-.41,1.76c-.71-.44-.12-2.49.34-3.09"/><path class="cls-3" d="M180.43,152c-.15.21.25,1.92-.05,2.6-.65-.46-.16-1.61,0-2.24"/><path class="cls-3" d="M182.9,140.72c-.29.43-.2,1.23-.43,1.76-.59-.95,0-3.11.24-4.23"/><path class="cls-3" d="M182.24,127.86l-.14.11c.3.15.31,1.23.11,1.54-.85,0-.14-2.54,0-3.16"/><path class="cls-3" d="M183.42,115.78c-.3.11-.29.48-.39.82-.74-.07-.23-2.19.19-2.37"/><path class="cls-3" d="M183.93,106a.5.5,0,0,1-.12.33c-.33-.69.17-2.23.35-3.08"/><path class="cls-3" d="M110.78,155.43c-1.59-1.49,5.64-6.71,6.94-7.81a8,8,0,0,0,3.13-5.53c.38-2.9-.54-1.62-2.06-3.31.83,2.09-1.06,7.77-2.19,9.67s-2.56,2.71-4.12,4a18.86,18.86,0,0,0-1.86,1.48c-.74.78-1,2-2,2.5"/><path class="cls-3" d="M108.61,156.9c-.21,0,.12-.7.2-.84.4-.72,1-1.31,1.43-2a12.7,12.7,0,0,0,1.57-3.94,3.49,3.49,0,0,0-.09-1.25c-.07-.46-.15-.37-.58-.41a7.31,7.31,0,0,1-3.24-1.32c-.24-.16-.76-.6-1-.62s-.42.34-.58.62c-.3.52-.75,1-1.08,1.46a13,13,0,0,0-1.32,2.63,8.82,8.82,0,0,0-.63,2.46,6.28,6.28,0,0,0,.59,2.59,3.21,3.21,0,0,0,1.46,1.9c-.33,0-.32-.23-.46-.45a1.07,1.07,0,0,0-.89-.56,1.3,1.3,0,0,0-1.13.72c-.17.35,0,.66,0,1-.47-1-2.31-1.38-3.25-1.14-1.1.27-1.77,1.4-2.93,1.56a3,3,0,0,1-1.89-.36c-.23-.17-.59-.49-.6-.82a13.07,13.07,0,0,1,.22,1.49,27.52,27.52,0,0,0,.55,3.12,4.63,4.63,0,0,0,1.56,2.88,3,3,0,0,0,2.32.45,3.73,3.73,0,0,0,1.75-1.1,17.86,17.86,0,0,0,1.43-1.46,5.53,5.53,0,0,0,.85-1.94c.11-.51-.08-1.26.13-1.71a3,3,0,0,0,1.89,1A1.3,1.3,0,0,0,106,159a2.68,2.68,0,0,0,1.25-.41A4.91,4.91,0,0,0,109.4,156"/><path class="cls-3" d="M104.61,168.09a1.75,1.75,0,0,1-.87-1.87c.06-.3.31-.69.66-.54,0,0,0,0,0,.07a1.12,1.12,0,0,1,.45.13c.19.13.26.46.37.65s.55.8.47,1.2-.73.49-1.07.36"/><path class="cls-3" d="M106.75,171.63c.64.12.87.56,1,1.2s0,1.3-.7,1.17-.85-1.09-.82-1.65.62-1,1-.42"/><path class="cls-3" d="M108.5,180.62a2.16,2.16,0,0,1-.3-2.36c.51-.61,1.25-.36,1.73.15.8.86-.25,3.51-1.43,2.21"/><path class="cls-3" d="M112.46,187.74c-.32.11-.59-.13-.78-.34-.4-.46-.77-1.68-.34-2.24s.87.15,1.08.44a1.73,1.73,0,0,1,.34,1.16c0,.31,0,.85-.3,1"/><path class="cls-3" d="M115.37,192.12c-.87.21-1.44-1.37-.57-1.76.33-.15.75.33.91.83s.08.83-.34.93"/><path class="cls-3" d="M120,198.76c-.45-.22-1.74-1.57-.93-2,.59-.35,1.11.68,1.36,1.06.14.21.46.65.27.93s-.49.17-.7.06"/><path class="cls-3" d="M125.83,203a2,2,0,0,1,1.12.67c.38.39,1.14,1.07,1.1,1.66a1.64,1.64,0,0,1-.89-.37,6,6,0,0,1-1.44-1.35c-.49-.85,1-.14,1.26,0"/><path class="cls-3" d="M133.08,208.2c.17.19.46.19.67.32s.88.61.49.81-1-.3-1.2-.46a4.63,4.63,0,0,1-1.33-1.42q0-.1.09-.06"/><path class="cls-3" d="M236.67,146.05c.2,6.22.25,12.38.71,18.64.87,11.93,1.05,24.06.86,36.05-.12,7.67-.75,15.25-.69,23,.08,12.12.56,5.26.71,17.41.14,11.66-1.41,9.19-.31,20.81.17,1.78.3,3.55.38,5.33,0,.9.08,1.81.09,2.72a7.55,7.55,0,0,0,0,1.9c.26,1.14.5,2.28.71,3.45a29.69,29.69,0,0,1,.33,3.39c.06,1.09.31,2.14.42,3.23.18,1.6.23,3.2.41,4.8.08.75.1,1.52.16,2.28,0,.29.2.79.06,1.06a18.77,18.77,0,0,1-4.68.52c-.89,0-1.79,0-2.68,0s-1.61-.27-2.41-.27-1.85.23-1.86-.84a8.48,8.48,0,0,1,.17-1.41,37.66,37.66,0,0,0,.76-4.06,10.52,10.52,0,0,0-.34-2.49,30.21,30.21,0,0,1-.07-4.15c0-1.49,0-3,0-4.48.17-6,1.56-12,1.56-17.93,0-4.65.16,4.89.26.26.08-3.84.59-7.58.21-11.44-.31-3.2-1-6.34-1.26-9.56-.4-4.36-.09,3.68,0-.67.18-5.93.42-5.33.74-11.26.3-5.58,1.26-11.38,1-16.92-.61-11.9-.85-23.83-1.49-35.74-1.18-22-1.66-44.77-10.85-65.33-1.71-3.84-4.06-7.88-7.53-10.5-1.81-1.36-3.11-1.23-5-2s-4-3-6.3-2.89A5.49,5.49,0,0,0,198.17,90c-1.72.87-3.42,1.37-4.77,2.84-.54.58-1.12,1.12-1.67,1.68-.88.89-5.11,7.61-6.59,6.83-.39-2.23-3-2.4-4.63-3.22a80.81,80.81,0,0,1-7.45-4.53c-4.66-3-9.29-6.17-13-10.26-3.43-3.74-3.05-6.53-1.44-11.08,1.72-4.86,4.68-9.17,7.37-13.55s5.84-8.77,9.65-12c8.23-6.88,18.05-9.32,28.84-6.31,6.43,1.79,10.23,6.78,13.49,12A43.24,43.24,0,0,1,221,60c1.43,3.79,3.54,7.25,5,11,5.67,14.64,7.71,30.92,8.46,46.36.36,7.67,1.48,15.32,1.92,23,.11,1.91.19,3.82.25,5.73"/><path class="cls-3" d="M219.92,123a299.38,299.38,0,0,1,2.86,37.46c0,21.16.42,42.35-.36,63.55-.08,2.51-.86,7.14-2.11,27.29-.35,5.67.08,11.26-.51,16.93-.52,5,.08,10.07-.1,15.06-.15,4-.34,7.93-.47,11.9a34.87,34.87,0,0,0,0,5.31,25.26,25.26,0,0,1,.33,4.33,16.1,16.1,0,0,0,.06,3.54A46.16,46.16,0,0,0,221,313c.51,1.86.58,3.77,1,5.64.23,1.17,1.4,3.32.47,4.32-.4.42-.79.32-1.32.31a14,14,0,0,1-2.31-.18,14.15,14.15,0,0,0-2.9-.39,46,46,0,0,1-5.82-.81,14.57,14.57,0,0,1-3.86-1.11c-.41-.17-.79-.38-1.18-.57a6.4,6.4,0,0,1-.81-.27c-.6-.44-.56-1.82-.48-2.44a19,19,0,0,1,1-3.92,14.34,14.34,0,0,0,.64-3c.11-.94,0-1.85.09-2.79a19.85,19.85,0,0,1,.7-3.89,16.7,16.7,0,0,0,.35-5.42,39.39,39.39,0,0,1,.21-5.43c.34-4,.85-7.88,1.25-11.82.1-1,.19-2,.28-3q.9-10.86,1.55-21.76c.8-13.58,1.65-12.91,2.17-26.51.31-8.15.28-3.23.7-5.44A31.26,31.26,0,0,0,212.5,213c-.68-3.25.53-6.72.7-10a68.94,68.94,0,0,0-.38-8c-.21-3.59-.23-7.14-.7-10.7-.69-5.31-1.3-10.7-2-15.91-.42-3-.26-6.23-.51-9.31a146.37,146.37,0,0,0-2.51-16.89,82.59,82.59,0,0,0-3.86-12.13,163.32,163.32,0,0,0-7.11-16.36c-.79-1.62-1.62-3.22-2.44-4.83-1.76-3.45-3.14-7.19-5.06-10.56-1.26-2.21-3.46-3.18-5.07-5-2.44-2.82,1.59-5.62,3.76-6.94A28.74,28.74,0,0,1,192,83.93c2.19-.82,4.59-.59,6.85-1.13a26.74,26.74,0,0,1,5.44-.31c1,0,2.05-.3,3-.32A6.22,6.22,0,0,1,212,83.92a9.42,9.42,0,0,1,1.4,3c1.24,3.08,1.51,6.32,2.1,9.54.42,2.33,1.95,4.13,2.36,6.45,1.18,6.64,1.25,13.45,2.1,20.13"/><path class="cls-2" d="M215.83,339.35a139.07,139.07,0,0,0-1.21,17.72c0,4.43-1,9.08-1.53,13.48-.27,2.12-.13,4.13-.22,6.28-.08,1.81-.57,4.46-.24,6.29.26,1.52,1.71,2.11,2.56,3.23a5.88,5.88,0,0,1,1,1.84,6.19,6.19,0,0,1-.95,5.81,7.57,7.57,0,0,1-2.81,2.42c-1.45.7-2.58.48-4.12.22a29.27,29.27,0,0,0-7.58-.5,30.36,30.36,0,0,0-10,3.32c-5.83,2.9-13.35,4.75-18.69-.34-1.85-1.76-4.09-4.4-3.54-7.26.21-1.12,1.31-2.43,2.62-2.18,1.16.23,2.17,1.66,2.74,2.55.37.58.65,1.22,1.06,1.74a1.9,1.9,0,0,0,1.54.86.85.85,0,0,0,.86-1.24c-.46-1-2.3-1.6-3.18-2.23-.54-.39-1.05-1.23-.51-1.85s1.24-.29,1.73,0,2.85,2.57,3.46,1.75c.32-.42-2.69-2.17-3-2.63-.88-1.44,1-1.73,1.91-.9s1.59,2,3.17,2c.4-.81-2.61-1.65-2.89-2.45-.56-1.62,2.3-.85,2.94-.32a4,4,0,0,1,1.08,1.32c.21.44.21,1,.45,1.37.93,1.59,2.75.41,4.05.26,1.71-.19,3.88-1.49,5.63-2s3.27-1.11,5-1.5c1.3-.3,4-.3,5-1.58a14.33,14.33,0,0,0,.86-2.92c.3-1.22.86-2.49,1.12-3.54a112.73,112.73,0,0,0,2.08-12.91c1-8.38,2.06-17.06,2-25.5,0-4.2-.07-8.56-.08-12.6a47.82,47.82,0,0,1,.2-5.78c.32-2.88,2-2.63,4.62-2.58,2,0,6.06,1.26,6.45,3.5.22,1.21-.61,2.61-1.07,3.69a12.29,12.29,0,0,0-1.26,3.14c-.45,3.32-.8,6.66-1.21,10"/><path class="cls-2" d="M231.33,288.43a4.1,4.1,0,0,1,2.46-2.46c1.45-.39,1.91.7,2.11,1.82s.39,2.27.54,3.42c.27,2.1.24,4.18.47,6.29a20.83,20.83,0,0,1,.46,4.14,4.45,4.45,0,0,0-.11,1.26,10.05,10.05,0,0,1,.24,1.44c.06,1.29.12,2.58.15,3.87.1,4.44,1.23,8.94,1.39,13.38.13,3.46-.26,6.9-.08,10.34.33,6.17-.74,12.34-.07,18.4.16,1.49.22,3,.41,4.48a20.36,20.36,0,0,0,.71,4,6,6,0,0,0,1,1.78,8.52,8.52,0,0,0,2.75,1.76,5.77,5.77,0,0,1,2.87,6.75A11.3,11.3,0,0,1,245,372c-.59.93-1,1.92-1.61,2.85s-1.45,2-1.48,3.07a5.4,5.4,0,0,1-.22,1.2,40.67,40.67,0,0,0-.73,4.55c-.37,3.06-.64,6.1-.71,9.16-.07,2.78-.09,5.46-2.3,7.54a12.62,12.62,0,0,1-3.34,2.4,17.49,17.49,0,0,1-3.23.58c-1.61.3-3.19.76-4.84.32-1.2-.32-2.88-1.63-3-2.92a2,2,0,0,1,1.93-2.29,17,17,0,0,1,3.55.27,2.6,2.6,0,0,0,1.7-.05.73.73,0,0,0,0-1.35,2.66,2.66,0,0,0-1.67.1,14,14,0,0,1-1.82.25,4.21,4.21,0,0,1-1.8.08.87.87,0,0,1-.39-1.39c.5-.59,4.31-.46,3.16-1.8-.77-.89-3,1.31-3.41-.28-.31-1.16,2-1.39,2.66-1.76,1.73-.9,1.51-2.74,2.36-4.2a10.8,10.8,0,0,0,1-2.63c.32-1.12.84-2.17,1.18-3.28a44.72,44.72,0,0,0,2.34-12.7c0-3.91-1.14-8.33-1.87-12.2-.86-4.58-1.5-9.31-1.91-14-.76-8.73-.2-17.51,0-26.4.11-4.84.28-9.77.25-14.56,0-2.32.14-4.65.19-6.93,0-1.17.42-2.33.43-3.51s-.42-2.53-.1-3.7"/><path class="cls-1" d="M179,54.58c-.46.19-.79.58-1.29.84,1.61,3.47,4.5,10.46,4.74,14.15a6.78,6.78,0,0,0-4,.58c-.88-5.43-6.8-12.22-3.38-16.93,1.75.5,2.21-.36,3.15-.84"/></g></g></svg>