<svg xmlns="http://www.w3.org/2000/svg" viewBox="0 0 268.72 562.61"><defs><style>.cls-1{fill:#007293;}.cls-2{fill:#1d1d1b;}.cls-3{fill:#fff;}.cls-4{fill:#e30613;}</style></defs><g id="Ebene_2" data-name="Ebene 2"><g id="Ebene_1-2" data-name="Ebene 1"><path class="cls-1" d="M112.31,357.76c1.66,4.05,7.28,8.29,10.07,12.4,4.05,6,8.63,11.29,13.21,16.88,7.57,9.27,16.51,17,25.4,25,8.23,7.4,17.36,13.89,25.36,21.51,6.89,6.56,13.89,14.76,20.25,22,5.23,6,10.43,12,15.52,18.08s10,12.17,14.75,18.44a29.31,29.31,0,0,0,3.66,4.33c1.3,1.17,1.58,3.44,1.92,5.07.23,1.14.47,2.29.71,3.43.38,1.81.54,3.62.76,5.44a41.79,41.79,0,0,1-.11,6.71c-.05,1.32-.12,2.7-.29,4-.14,1.12-.37,2.23-.45,3.35a42.8,42.8,0,0,1-.7,4.35c-.23,1.3-.53,2.64-.83,3.93-.35,1.56-.57,3.13-1,4.66-.27.88-.45,1.79-.67,2.67s-.27,1.89-.54,2.82A15.09,15.09,0,0,1,238,545.7a14.41,14.41,0,0,1-4.35,5.42c-1.31.86-2.88.6-3.94,1.81a5.46,5.46,0,0,0-1.3,4c.72,3.1,4.9,4.06,7.41,2.37,2.15-1.44,4.44-7.08,5.48-1.25.23,1.3-.11,3.16,1.32,4.1a2.34,2.34,0,0,0,3.64-1.86c.2-1.66-.9-3.09-.65-4.74,2.4-1.74,6.82,5.17,8.8.61,1.49-3.44-5.61-7.06.5-8a3.06,3.06,0,0,0,5.51-.36,4.15,4.15,0,0,0,.08-2.74,16.44,16.44,0,0,0-.47-1.6c-.12-.35-.54-1.06-.42-1.38-.41-.21-.34-.79-.42-1.18-.16-.78-.2-1.55-.36-2.32-.29-1.38-.32-2.83-.62-4.2a24,24,0,0,1-.22-9,44.42,44.42,0,0,1,2.17-6.35,21.67,21.67,0,0,1,1.27-2.83c.63-1.2,1.4-2.32,2.11-3.47s1.24-2.44,2-3.61a23,23,0,0,0,2.09-3.91,15.69,15.69,0,0,0,1.09-3.08,7.81,7.81,0,0,0-.41-2.51c-.46-2.27-2.09-3.9-3.64-5.49a8.09,8.09,0,0,0-2.5-1.58,11.75,11.75,0,0,1-1.86-.67,45.83,45.83,0,0,1-4-2.62,31.92,31.92,0,0,1-4.11-4.35,60.37,60.37,0,0,1-5.06-6.23l-.57-.85A38,38,0,0,1,244,474.1a43.9,43.9,0,0,0-3.25-4.56c-2.3-3.21-4.54-6.46-6.75-9.73-4.44-6.58-8.77-13.24-13.25-19.79a174,174,0,0,0-16.27-20.84c-6.08-6.48-10.83-13.33-16.91-19.45s-11.81-14-18.91-19.13c-6.58-4.71-13.25-9.91-20-14.29a158.83,158.83,0,0,0-17.7-10c-3.67-1.78-7.09-3.61-10.88-4-1.15-.11-3.62-.81-4.54-.53-2.42.76-2,2.45-3.76,4.07"/><path class="cls-1" d="M83.81,368.92c4.37,1,7.82,3.85,12,5.67a30.53,30.53,0,0,0,4.68,1.63,21.83,21.83,0,0,0,2.31.38,20,20,0,0,1,2.67.41c1.09.35.91.65,1,1.89.12,2.17-.6,4.29-.38,6.38.18,1.75.4,3.51.7,5.26.75,4.41,2,8.67,2.82,13.14,1,5.36,1.67,10.7,2.19,16.15.39,4.08,1.49,8.14,1.49,12.29,0,2-.11,4.08,0,6.09.18,2.88.19,5.8.21,8.68s-.4,5.68-.43,8.55c0,3.35-.09,6.83-.36,10.14A218.89,218.89,0,0,1,106,503.26c-.74,2.84-1.26,5.8-2.17,8.55-.82,2.49-1.24,5.09-2,7.62-.62,2.13-1,4.5-1.47,6.68A29.71,29.71,0,0,0,99.8,532c-.1,3.9,2.53,6.31,3.77,9.66.71,1.9.41,4.07.22,6a15,15,0,0,1-.77,4c-.27.69-.92,1.14-1.18,1.83s-.14,1.08-.8,1.65a5,5,0,0,1-3.22,1.09c-2.37.07-4.64-.87-6.91-1.5-1.65-.46-2.91-1.66-4.51-2.44a38.91,38.91,0,0,1-5.05-2.59,20.69,20.69,0,0,0-2.14-1.11c-.87-.44-1.81-.92-2.71-1.36a15.27,15.27,0,0,0-5.21-1.2,11,11,0,0,0-2.67-.2A16.77,16.77,0,0,0,63.28,548c-.56.28-1.15.45-1.72.69a8.41,8.41,0,0,1-2,.62c-.61.1-1.24-.07-1.84,0-1.77.32-1.36,1.51-1.15,3s-.31,3.39-1.91,2a7.4,7.4,0,0,1-1.46-1.55c-.45-.83,0-1.27,0-2-.21-2.43-2.49,1.24-2.91,1.65-.63.63-1.26.95-1.95.25a2,2,0,0,1-.38-2.31c.6-1.36,2-1.84,2.63-3.33-.55-.72-2,0-2.63.19a7.43,7.43,0,0,1-2.34.24,2.76,2.76,0,0,1-2.07-.8,3.46,3.46,0,0,1-1.05-2.44,1.89,1.89,0,0,1,1.19-2c.72-.21,1.22.34,2,.41a1.52,1.52,0,0,0,1.69-1.38c.06-.89-.88-.94-1.42-1.19a9.57,9.57,0,0,1-5.3-7.94,5.08,5.08,0,0,1,2.34-4.46,3,3,0,0,1,4.21,1.4c.81,1.89,1.14,3.47,2.62,4.93a12.22,12.22,0,0,0,4.47,2.72,8.67,8.67,0,0,0,3.37.15c1.29,0,2.58.44,3.86.26s2.62-1,4-1.33a4.59,4.59,0,0,0,1.94-.51c.45-.29.82-.69,1.29-1a29.52,29.52,0,0,0,4.14-2.38,54.57,54.57,0,0,1,4.59-3.46c2-1.33,3.85-4,5.1-6.22a22,22,0,0,0,1.61-2.62c.43-1.06.73-2.15,1.08-3.25.6-1.93,1-4,1.49-6,.39-1.49.55-3.05.82-4.56.21-1.22.37-2.45.52-3.68a33.46,33.46,0,0,0-.21-6.25c-.16-2.6.09-5.32.15-7.93.14-6.15,0-12.32.15-18.47.16-5.22.82-10,.47-15.26-.28-4.27-1-8.58-1.64-12.75-.59-3.81-1.38-7.8-1.71-11.76-.3-3.58-.07-7.7-1.14-11.15-1.15-3.72-3.23-7-4.21-11-.86-3.54-.35-6.4.16-9.88.72-4.94-.68-9.2-2.21-13.77-1.12-3.36-4-7.79-3.89-11.49.19-4.5,5.7-4.07,8.57-3.69.45.06.89.14,1.32.23"/><path class="cls-1" d="M27.94,56.66c.33.81.59,1.64.93,2.44.53,1.25,1,2.51,1.5,3.76,2.1,4.93,4.05,10,5.93,15,1,2.64,2,5.29,2.92,7.94,1,2.93,1.66,6.09,3.1,8.86.57,1.11.84,2.43,1.45,3.5a30.23,30.23,0,0,1,1.76,2.77,13.16,13.16,0,0,1,1.18,6.45c-.23,2.43-2.14,5.38-4.71,6a12.21,12.21,0,0,1-9.23-2.09,18.44,18.44,0,0,1-2.68-3.14c-.81-1-1.39-2.05-2.3-3a13.67,13.67,0,0,1-2.17-3.87Q23.43,96.67,21.38,92a29,29,0,0,1-2.19-7.78A36.79,36.79,0,0,0,18.1,80a37.07,37.07,0,0,1-.69-4.43c-.37-2.7-.16-5.64-.76-8.26s-1.13-5.4-1.72-8.12c-.55-2.56-1.15-5.1-1.77-7.63-.9-3.71-2-7.3-2.89-11-.36-1.57-.76-3.17-1.13-4.76a46.7,46.7,0,0,1-.6-5.27,8.09,8.09,0,0,1-.18-3c.48-1.83,3.15-3.09,4.84-3.09a5.49,5.49,0,0,1,5.2,3.2,18.29,18.29,0,0,1,1.05,2.67,18.17,18.17,0,0,1,.33,2c.17.78.61,1.47.8,2.24s.23,1.76.39,2.62a17.57,17.57,0,0,0,1.15,2.82c.32.93.56,1.87.88,2.81.37,1.11.87,2.14,1.21,3.27s.68,2.24,1.06,3.34A70.54,70.54,0,0,0,27.67,56c.1.21.19.41.27.62"/><path class="cls-1" d="M56,105.86c2.95,1.82,6.09,3.45,9.17,5.36,3.39,2.09,6.57,4.78,10.24,6.41a45,45,0,0,1,9,5.4c3.08,2.32,7.13,3.74,10.55,5.51a106.85,106.85,0,0,1,17.29,11.24c2.47,2,5,3.9,7.43,5.93,1.7,1.42,3,3.26,4.55,4.81.75.75,2.46,1.69,2.82,2.72,1,2.74-4.1,5.68-5.72,7.36a29,29,0,0,1-3,3.28,27.22,27.22,0,0,1-3.89,2c-.74.4-1.54,1.29-2.39,1.26-1.29,0-2.92-1.73-3.94-2.43a18.59,18.59,0,0,1-5.36-5.13,10.58,10.58,0,0,0-5-4c-2.89-1.31-5.71-2.71-8.53-4.17-1.69-.87-3.07-2.08-4.75-2.92s-3.33-1.63-4.92-2.62-3.24-2.49-4.91-3.6-3-2.32-4.47-3.49c-4-3.23-7.75-7-12.16-9.78a112.74,112.74,0,0,1-11.09-7.8,61.9,61.9,0,0,0-6.31-4.1c-1.85-1.14-4.35-2.37-5.81-4a11.45,11.45,0,0,1-1.76-4,10.37,10.37,0,0,1-.1-7.61,5.16,5.16,0,0,1,2.48-2.86,20.64,20.64,0,0,1,3.7-1.08,11.36,11.36,0,0,1,3-.46C47.72,97.51,51.55,103.09,56,105.86Z"/><path class="cls-2" d="M107.11,330.57c.35,0,.49-.17.42-.5"/><path class="cls-2" d="M77.41,288.34c-1.26-.11-2.7,0-3.12-1.43-.05,0-1.13.32-1.14.29-.43-1.11.42-2.89.71-4,.41-1.49,1.08-2.93,1.57-4.38,1.25-3.63,2.69-7.25,3.93-10.87,2.64-7.71,4-15.36,7.29-22.9,4.18-9.72,8.45-19.47,12.78-29.17a157.76,157.76,0,0,0,5.63-14.84c1.43-4.33,2.36-8.77,3.84-13,1.17-3.37,2.41-6.94,3.24-10.33.89-3.63,1.43-7.78,2.87-11.19a39,39,0,0,0,3-11.49c.16-1.54-.16-2.53,1.42-2.41,1.21.09,2.35.57,3.62.75,3.93.56,10.46-2.29,14-.61,3.94,1.86,4.92,9.88,5.85,13.64,1.5,6.12,2.83,12.28,4.07,18.49,2.1,10.48,4.11,20,5.07,30.69.82,9.17.66,18,1.48,27.11,1.37,15.24,4.91,28.38,10.08,42.32-3.5.79-7.36.57-10.89,1.33-6,1.29-11.85,2.28-18,1.54-5.24-.63-9.92-3-15.06-4-9.38-1.77-19.89,2-29.19,3.08-4.3.51-8.76,1.76-13.11,1.37"/><path class="cls-3" d="M135.72,174.24a18.36,18.36,0,0,0-11.57-.53c-3.77,6.09-7.54,13.4-7.53,20.58,0,4.12,1.73,7.89,5.82,9.4,6,2.2,11.76-.15,15.82-4.83,3.6-4.14,6.81-10.27,5.37-15.92a12.81,12.81,0,0,0-7.91-8.7"/><path class="cls-3" d="M134.9,262a126.52,126.52,0,0,1-19.29-2.42c-10.56-2.32-20.41-6.79-30.66-10.07-1.37,3.92-2.42,7.88-3.55,11.85,7.26,2.75,14.54,5.64,22.17,7.08,9,1.71,18.27,2.33,27.43,3.12a89.85,89.85,0,0,0,17.66.12,37.4,37.4,0,0,0,9.87-2.24c-.76-2.71-1.44-5.43-2.06-8.19a97.87,97.87,0,0,1-21.57.75"/><path class="cls-2" d="M65.2,354.48c.8-7.06,13-74.53,22-77.91,4.48-1.68,41.11,6.64,44.9,6.26.59-.06,13.13,32.19,13.13,32.19l19,36.11s15,39.13,27.89,55.32c-4.68.88-76.67-16-76.67-16L64.47,387.5S64,365.49,65.2,354.48Z"/><path class="cls-3" d="M87.1,311.31c5.76,2.67,11.17,5.84,16.63,9.06q18.8,11,37.3,22.54,13.49,8.38,26.82,17c-2.2-5.29-3.53-8.75-3.53-8.75L148.8,321.71q-9.48-3.27-18.92-6.66-15.43-5.55-30.77-11.33c-7-2.63-14.17-5.26-21-8.53-.89,2.92-1.76,6-2.6,9.27C78.75,307.55,83.16,309.47,87.1,311.31Z"/><path class="cls-1" d="M167.87,270.44c2.7-6.87,6.26-13.4,9.15-20.21,1.29-3,2.53-6.1,3.61-9.22s1.71-6.16,2.69-9.2a13.3,13.3,0,0,0,.81-3.43,5.37,5.37,0,0,0-.21-2.49,13.36,13.36,0,0,0-2.14-2.79,38.06,38.06,0,0,0-4-4.1c-.67-.59-1.44-1.08-2.16-1.6a47.08,47.08,0,0,0-4.67-3.39c-1.77-1-3.46-1.89-5.13-3a42.62,42.62,0,0,0-6.18-3.64c-2-1-3.78-2.57-5.88-3.38a19.62,19.62,0,0,0-2.51-.52,22.93,22.93,0,0,1-3.59-1.29,66.86,66.86,0,0,0-8.65-2.76,42.42,42.42,0,0,0-7.34-1.21,18.09,18.09,0,0,1-6.74-2.49,9.46,9.46,0,0,1-4.51-5.73c-.55-2,0-3.7.88-5.55a11.15,11.15,0,0,1,1.61-2.75,9.9,9.9,0,0,1,2.77-1.88,7.59,7.59,0,0,1,6-.54c3.33.79,7.35,1.88,10,4.08a18.88,18.88,0,0,0,4.58,2.29c1.83.79,3.66,1.62,5.53,2.33s3.5,1.36,5.22,2.18c3.15,1.51,6.44,2.35,9.61,3.67,3.49,1.46,7.07,2.76,10.54,4.23,1.3.55,2.69,1.06,4,1.56a9.31,9.31,0,0,1,2,.76,12.46,12.46,0,0,0,1.6,1.1c1.68.84,3.34,1.71,5,2.59,2.4,1.29,4.66,2.82,7,4.29a27.65,27.65,0,0,1,4.18,3.11,10.51,10.51,0,0,1,3.17,4.75c1,3.29-1.48,7.08-2.48,10.13-1.93,5.87-5,11.23-7.86,16.65-2,3.66-3.77,7.38-5.74,11-1,1.78-1.73,3.58-2.79,5.29a22.18,22.18,0,0,0-1.69,3.84c-.55,1.43-1.45,2.75-2.05,4.17s-1.41,2.43-2.07,3.66c-1.09,2.05-2,4.21-3.21,6.16-1.49,2.34-2.44,4.8-3.72,7.25-1.1,2.13-2.57,4-3.66,6.11s-2.54,4.24-3.82,6.37c-.46.75-1.05,1.42-1.5,2.19a10.31,10.31,0,0,1-3.74,4.29,6.41,6.41,0,0,1-3.36.72,5.52,5.52,0,0,1-3.11-.94,7.16,7.16,0,0,1-.83-.62,19.69,19.69,0,0,1-2.31-3.38,8,8,0,0,1-.42-1.77,8.38,8.38,0,0,1-.13-2,7.13,7.13,0,0,1,.38-1.61,9.36,9.36,0,0,1,.94-1.62,4.31,4.31,0,0,1,1-1.21c1-.71,1.72-1.82,2.64-2.63a34.85,34.85,0,0,1,3.33-2.62,21.26,21.26,0,0,0,3.14-2.87,10.58,10.58,0,0,0,1.54-1.86c.58-1,1.27-1.9,1.8-2.91.15-.26.26-.54.4-.81a12.21,12.21,0,0,1,1-1.59,10.48,10.48,0,0,0,.93-2c.44-1,.86-2.1,1.28-3.15"/><path class="cls-1" d="M151.32,312.92a11,11,0,0,0,.75-1.06c.45.16.65-.33,1.12-.28s.76.59.9,1c.5,1.46-.49,3.2-.52,4.67,0,.58.28,2.32.84,2.7.87.58,1.32-.21,1.92-.91a12.77,12.77,0,0,0,2.53-5.44,16,16,0,0,0,.64-3.21,5.17,5.17,0,0,1,.57-2.43c.36-.8.8-1.68,1.26-2.52a9.65,9.65,0,0,0,.82-2,11.58,11.58,0,0,1,1-2,.37.37,0,0,0,.05-.11,10.7,10.7,0,0,0,.53-2.56c.3-1.87.87-4-.39-5.65a4.12,4.12,0,0,0-2-1.42c-.48-.18-1-.32-1.21-.8a10.56,10.56,0,0,1-.53-1.31,1.21,1.21,0,0,0-.05-.18c-.25-.9-.49-1.94-1.44-2.36a2,2,0,0,0-2,.13,9.74,9.74,0,0,1-1.69,1.23c-.5.22-1,.38-1.51.65s-.88.56-1.33.83c-.72.46-1.39.91-2.13,1.31-1.11.6-2.13,1.29-3.21,1.92s-2,1-3,1.59a25.68,25.68,0,0,1-5.55,2.51,34.55,34.55,0,0,0-3.55,1.35c-1.09.46-2.23.85-3.32,1.31-.5.22-5.24,2-3.82,3a2.75,2.75,0,0,0,2.21.25c.86-.25,1.79-.51,2.66-.67s2-.6,3-.84a7.08,7.08,0,0,1,1.53-.24c.19,0,.76-.16.87,0a6.52,6.52,0,0,1-.87.57,9.51,9.51,0,0,1-1.19.7l-.57.28a11.79,11.79,0,0,1-2.3.86c-.93.26-1.85.62-2.76.95a13.1,13.1,0,0,0-5,2.86c-.49.49-1.33,1.72-.81,2.41s1.8.6,2.65.34a29.23,29.23,0,0,0,3.44-1.35c1.55-.68,3.07-1.42,4.63-2,.82-.33,1.72-.45,2.56-.7a16.85,16.85,0,0,1,1.65-.45c.28-.05.92-.4.88.09a2,2,0,0,1-.41.77,8,8,0,0,1-.72.7l-1.07,1c-.58.57-1.18,1.15-1.75,1.74-.73.77-1.36,1.62-2,2.43s-1.5,1.63-2.21,2.48a15.43,15.43,0,0,0-2.82,5.4,2.79,2.79,0,0,0-.05,2c.13.28.22.45.58.47a2.25,2.25,0,0,0,.94-.21,6.72,6.72,0,0,0,1.87-1.29c.35-.33.62-.74.95-1.08s.72-.7,1.06-1.06c1.66-1.73,3.23-3.59,4.88-5.3.56-.58,1-1.31,1.6-1.86a19,19,0,0,1,1.64-1.29,2.75,2.75,0,0,1,1.32-.63,1.74,1.74,0,0,1,1.15.15c.21.16.14.35.17.57a6,6,0,0,1,.11.95,4.6,4.6,0,0,1-.39,1.44c-.36.92-.73,1.84-1.13,2.72a45.47,45.47,0,0,1-2.61,4.32,11.5,11.5,0,0,0-1.37,3.13,23.25,23.25,0,0,1-1.22,2.71,2.37,2.37,0,0,0-.24,1.66,1.48,1.48,0,0,0,1.11,1c1.26.26,2.5-.95,3.07-1.94s.93-1.94,1.45-2.9c.25-.47.52-.93.81-1.37a2,2,0,0,1,.25-.32,2.78,2.78,0,0,0,.48-.49c.41-.61.78-1.25,1.19-1.86.21-.31.44-.58.67-.87.51-.63.91-1.33,1.43-1.95"/><path class="cls-2" d="M118,137.13c2.64,1.65,5.41-1.43,8.17-.95,4.16.72.29,7,5.11,7.26.38-1.39,1.22-4.17,2.88-4.28.64,0,2.07,1.1,3,1.1,1.41,0,2.33-.36,2.73-1.72.9-3-4.68-7.18-3.32-9.47,2.53.23,5.58,1.46,7.17-1.57.82-1.58-.43-3.56-.7-5.22-.54-3.34-2.69-7.78-1-11,1.12-2.22,3.6-2.75,5.54-4a7.8,7.8,0,0,0,3.63-5.86,13.31,13.31,0,0,0-2.2-9.85c-2-2.61-4.78-2.77-7.71-3.51a35,35,0,0,1-7.12-2.56c-4.27-2.19-3-7.11-6.64-9.85-1.1-.85-3.41-3-4.72-3.43-2.07-.67-5.93.7-8,1.08-1.71.32-4.6,1.75-6.32,1.14-.6-.22-1-1.25-1.59-1.57-1.7-.91-4.41-1.21-6.09-.23s-2.24,3-3.6.57c-1-1.76-.48-2.76-3.13-2.93-3.46-.23-4.65,2.8-6.72,4.89-2.46,2.47-6.13,1.44-9.09,3.19-2.35,1.39-3.11,3.59-4,6-1.56,4.23-3.09,8.41-3.52,12.94-.4,4.21-2.11,3.47-5.62,4.81a5.54,5.54,0,0,0-3.68,3.64c-.57,1.89.31,3.26,1.83,4.48,2,1.62,4.5,1.35,2.52,4.28-.69,1-2,2.28-2.4,3.35-.61,1.72.63,2.78,1.68,3.92a46.8,46.8,0,0,1,3.74,5,25.8,25.8,0,0,0,6.84,7.05c1.49-2.69,1.29-6.35,1.15-9.33-.17-3.57,1.16-8,2.43-11.37,2.06.42,4.27,0,6.39,0a78.82,78.82,0,0,1,9.49.89c4.12.53,8.28,1.61,12.35,2.24,2.23.35,4.52.34,6.67,1.17.06,3,.69,6.28,1,9.44.3,2.81.17,8.55,2.84,10.23"/><path class="cls-1" d="M125.54,118.67a14.65,14.65,0,0,0-4.18-5.33,59.27,59.27,0,0,0-6.45-4.8,27.32,27.32,0,0,0-10-3.46c-4.37-.82-9.11-1.81-13.57-1.16a64.7,64.7,0,0,0-8,1.42c-3.29.92-4.49,3.67-5.8,6.54-.6,1.32-1.06,2.71-1.68,4a5.61,5.61,0,0,0-.62,2.65c0,2.37-1.07,4.57-1.2,6.92a28.76,28.76,0,0,0,.45,3.42c0,1.12-1.1,2.14-1.58,3.09s-1.08,1.89-.37,2.9a7.7,7.7,0,0,0,3,2.07c.91.44,2.35.58,2.48,1.74a8,8,0,0,1-.66,2.45,16.27,16.27,0,0,1-3.78,7.16c-1.67,1.84-3.11,3.82-4.86,5.59a16.69,16.69,0,0,1-4.19,2.68c-.82.44-.91.6-.61,1.59A4.1,4.1,0,0,0,65,159.91a9.92,9.92,0,0,0,4.23,2.42c3.35,1.1,6.46.78,9.84.23,1-.16,2-.33,2.9-.59,1.88-.52,3.89-1.19,5.78-1.57.52-.11,2.25-.34,2.64.13s-.07,1.62.22,2.27A3.11,3.11,0,0,0,92.46,164c.9.24,1.84-.46,2.72,0-.62.81,1,2.63,1.56,3.2a7.45,7.45,0,0,0,3.74,2.15c2.35.55,4.32-.84,6.46-1.47a9.71,9.71,0,0,0,5-3,15.29,15.29,0,0,1,3.4-3.07c1.44-.86,1.23-1.48,2.38.57s1.25,4.12,3.73,3.84a26.25,26.25,0,0,0,8-2.91c2.58-1.31,7.9-2.43,6.56-6.3-.62-1.77-2-3.29-2.68-5.08s-1-3.42-1.52-5.13c-.76-2.67-1.63-5.32-2.33-8a31.35,31.35,0,0,1-.85-4c-.11-.91-.66-1.47-.72-2.38,0-.3-.08-.61-.12-.91-.08-.61-.16-1.21-.25-1.82-.2-1.5-.14-3-.2-4.57a16.69,16.69,0,0,0-1.51-5.86c-.07-.17-.15-.33-.23-.5"/><path class="cls-2" d="M84.6,130.56a9.71,9.71,0,0,0-6.06-5c-1.32-.29-2.1-.42-3,.76s-.32,2.51-.74,3.76c.55.18,1.21-.37,1.8-.52a5.61,5.61,0,0,1,3,.16c.95.34,1.78.89,2.72,1.24a6.12,6.12,0,0,1,2.39,1.11,4.74,4.74,0,0,0-.06-2.08"/><path class="cls-2" d="M80.55,135.84c-.34,1-2.62.65-3.35.48a5.25,5.25,0,0,1-3.29-2.17c-.29-.43-.25-.78-.76-.6s-.93.81-1.23,1.1a7.28,7.28,0,0,1-3.2,1.92,9.28,9.28,0,0,0,2.26-.42,12.74,12.74,0,0,0,2.67-.91c-.49.83-.89,1.7-1.32,2.57a24.58,24.58,0,0,0-1.56,2.64c1.07.06,2-2,2.91-2.39.22.81.11,1.69.28,2.52a9,9,0,0,0,.66,2.75,9.1,9.1,0,0,1,.83-2.23c.25-.66.22-1.43.5-2.08.53.42,2,3.77,2.66,3.45s.51-3.39.32-4.05a10.82,10.82,0,0,1,1.51,1.3c.42.35,1.13.56,1.45.94-.37-1-1.63-1.7-1.76-2.74a19.14,19.14,0,0,0,4,.89c-.09-.74-1.39-1.44-1.92-1.86s-1.4-.86-1.57-1.26"/><path class="cls-4" d="M110.08,145.31a4.62,4.62,0,0,0-2.26,1.23c-2.67,2.55-.93,8,2.93,8s7.12-3.87,4.87-7.47c-1.11-1.77-3.66-2.21-5.54-1.8"/><path class="cls-2" d="M93.89,128.75a5.7,5.7,0,0,1,.83-1.72,6.05,6.05,0,0,1,1.55-2c1.73-1.34,4.16-1.88,6.25-2.43,2.44-.63,7-1.32,8.08,1.86-.42-.21-.89.23-1.28.36a18.82,18.82,0,0,1-1.9.46c-2,.45-4,.11-6,.49s-4.21.21-6,1.09c-.54.27-1.8,1.37-.89,1.86"/><path class="cls-2" d="M94.89,163c.19.14,1.12-.36,1.43-.49a8.57,8.57,0,0,0,1.74-.8c.56-.39,1-.83,1.61-1.19s.84-.73,1.28-1c-.12.8.13,1.76-.31,2.53s-1.42,1-2.13,1.28a8,8,0,0,1-2.33.51,5.08,5.08,0,0,1-2.39-.07c.21-.17.5-.34.54-.65"/><path class="cls-2" d="M96.1,135.32c-.07.31.44.63.74.82a7.1,7.1,0,0,0,2.91,1.09,19.22,19.22,0,0,0,4.83.34,8.79,8.79,0,0,0,4.25-1.49,7.46,7.46,0,0,0,1.24-1c.25-.26.9-.74.88-1.06-.24,1.19-.49,2.38-.73,3.57a14.51,14.51,0,0,0-.22,2c0,.27-.06.6-.06.88s.25.66.11,1a7.22,7.22,0,0,0-.76-2.14c-.24-.57-.91-1.51-.87-2.08-.61,0-1,1.61-1.14,2-.16.59-.37,1.16-.51,1.75a2.79,2.79,0,0,1-.61,1.45,11.64,11.64,0,0,0-.84-2c-.22-.46-.47-1.62-1.13-1.78s-2.15.93-2.67,1.24a5,5,0,0,0-2,2A13.1,13.1,0,0,0,99.9,140c0-.32.29-1.5-.14-1.74s-.66.09-.93.23a9,9,0,0,1-1.7.62c-.92.23-1.94.45-2.84.66a8.25,8.25,0,0,1,1.37-1.62c.42-.43.77-.93,1.19-1.34-1-.4-2.89.57-3.72-.2.31-.09.62-.15.93-.24a11.82,11.82,0,0,1,1.8-.65"/><path class="cls-1" d="M21.59,16.14a19.26,19.26,0,0,0-1.39,3.64A33.68,33.68,0,0,0,19.42,24c-.07.54-.16,1.07-.23,1.62-.11.86.16,1.71.1,2.58a4,4,0,0,1-1.12,2.51,6.47,6.47,0,0,1-3.86,1.58c-1.32.12-2.94.86-4.25.19-2.05-1.06-2.42-2.88-2.87-5a9.74,9.74,0,0,0-1.33-3.33,14.79,14.79,0,0,0-2-2.49,5.73,5.73,0,0,0-1.95-1c-.76-.28-1.34-.23-1.7-1a2.19,2.19,0,0,1,1.11-2.89c1.12-.33,2.11.39,3.18.56A2.81,2.81,0,0,0,4.57,16,24.27,24.27,0,0,0,4,12.81a6,6,0,0,0-.63-2c-.17-.27-.29-.55-.46-.83a9.17,9.17,0,0,1-.66-1.08,5.74,5.74,0,0,1-.48-2c0-.42.19-.46.63-.5a2.62,2.62,0,0,1,.79,0A7.42,7.42,0,0,1,4.6,6.9a1.52,1.52,0,0,1,.86.61c.28.45.6.86.85,1.32A9.88,9.88,0,0,0,7,10c.23.31.52.56.76.86.09.1.27.45.41.48.3.07.38-.31.44-.53a19.8,19.8,0,0,0,.3-3c.12-1.3.19-2.62.25-3.93,0-.69.14-1.39.12-2.09,0-.4-.11-1.47.37-1.72s1.26.44,1.57.68A6.34,6.34,0,0,1,13,3a13.78,13.78,0,0,1,1.68,5.62c0,.56-.4,2.84.59,2.72.4,0,.66-.48.82-.83a10.47,10.47,0,0,0,.76-1.87,21.85,21.85,0,0,0,.57-5.17c0-.43.1-2.8,1.05-2.15.3.2.46.9.55,1.22s.21.95.37,1.41a7.65,7.65,0,0,1,.53,3.64c-.16,1.13-.44,2.24-.71,3.37-.09.39-.29,1.1.32.82a2,2,0,0,0,.66-.57c.58-.67,1-1.39,1.55-2.11a6.31,6.31,0,0,1,.75-.94c.23-.21.45-.37.73-.21.72.4.65,1.43.7,2.12a7,7,0,0,1-.78,3C22.63,14.06,22.09,15.09,21.59,16.14Z"/></g></g></svg>