<svg xmlns="http://www.w3.org/2000/svg" viewBox="0 0 534.86 238.31"><defs><style>.cls-1{fill:#007293;}.cls-2{fill:#1d1d1b;}.cls-3{fill:#fff;}</style></defs><g id="Ebene_2" data-name="Ebene 2"><g id="Ebene_1-2" data-name="Ebene 1"><path class="cls-1" d="M303.46,132.46a31.39,31.39,0,0,1-2-2.45c-1.77-2.47-4.18-4.61-5.23-7.55a26.24,26.24,0,0,1-1.84-9.51c.11-4.91,3.42-18.59,8.9-19.84a6,6,0,0,1,3,0c1.21.38,1.82,1.38,2.83,2,1.76,1.19,3.5,2.36,5.16,3.72,1,.85,1.85,1.92,2.86,2.8s2,1.73,2.86,2.68a23.42,23.42,0,0,0,2.2,2c.94.79,1.78,1.65,2.71,2.46,4.69,4.09,9,8.59,13.74,12.65,3.2,2.75,6.51,5.32,9.6,8.2,1.48,1.39,3.12,2.6,4.67,3.91,1.31,1.1,2.48,2.29,3.69,3.51,1,1,2.17,1.95,3.21,3s2.32,2,3.49,3c2.14,1.89,4.15,4,6.25,5.89,1.55,1.43,3.26,2.57,4.72,4.08.39.4.86.75,1.27,1.14a2.84,2.84,0,0,0,1.12.68,8.11,8.11,0,0,1,1.06.77c.57.4,1.17.74,1.76,1.13a34.44,34.44,0,0,0,3.22,2.26c3,1.52,6,3,8.88,4.76s5.56,3.17,8.41,4.63c1.47.76,3,1.53,4.48,2.22,2.11,1,4.2,2.15,6.34,3,1.68.7,3.26,1.64,5,2.28,1.31.49,2.59,1.09,3.9,1.59,1.49.56,3,1.09,4.45,1.79a8.39,8.39,0,0,1,2.12,1.25c.44.4.73.9,1.13,1.31a34.81,34.81,0,0,0,3.76,3.19c2.52,2,5.15,3.9,7.84,5.68a165.25,165.25,0,0,0,16.93,9.49c7.6,3.77,14.7,8,22.39,11.47,2.91,1.31,5.15,3.86,8.29,4.81a63.42,63.42,0,0,0,9.13,2.13,100.24,100.24,0,0,0,11.08,1.15c2.75.12,6.62,0,8.82,1.72,1,.75,1.7,1.78,2.64,2.51,1.31,1,2.84,1.69,4.17,2.64,2.07,1.46,4.11,3.24,6.21,4.65,1.38.92,1.71,2,2.76,3.08.47.5,3.31,1.18,3.38,1.64a4.07,4.07,0,0,1-.06,1.7,8.39,8.39,0,0,1-5.2.15c-1.22-.51-1.77-1.86-2.83-2.59a26.33,26.33,0,0,1-3.07-2.19c-3.64-3.35-6.46,1.09-10,1.68-2.86.47-4.71-1.2-7.29-1.68-3.08-.57-3.21-.17-6.12.7-4.54,1.34-6.71,1.27-10.74-1.5-4.33-3-7.58-6.34-12.7-7.92-4.51-1.41-9.24-1.8-13.64-3.59-10.3-4.18-20.3-7.87-30.74-12.88-11.34-5.43-22.06-10.28-31.82-18.58-2-1.66-4-3.29-6-4.85-2.8-2.15-5.68-4.19-8.63-6.09a24.3,24.3,0,0,0-9-3.59c-1.27-.23-2.58-.72-3.87-1-1.14-.29-2.28-.54-3.4-.82-.52-.14-1.05-.14-1.57-.27s-1.09-.25-1.63-.35a20.31,20.31,0,0,1-2.1-.65c-.86-.26-1.68-.56-2.51-.88-3.86-1.49-7.8-2.63-11.5-4.49a39.39,39.39,0,0,0-4.13-1.76,43.39,43.39,0,0,1-4.59-2.26c-1.57-.81-3.12-1.7-4.7-2.5a32.1,32.1,0,0,1-3.57-2c-2.27-1.56-4.63-2.92-6.82-4.59-1.19-.91-2.38-1.75-3.61-2.58a39.55,39.55,0,0,1-3.21-2.88c-1.7-1.48-3.48-2.82-5.15-4.32-.94-.84-1.93-1.59-2.88-2.42s-1.64-1.78-2.55-2.55a41.74,41.74,0,0,1-3.76-4C304.72,133.83,304.08,133.15,303.46,132.46Z"/><path class="cls-1" d="M182.63,85.76c-4.44.83-7.78,4.42-10.14,8.19a16.58,16.58,0,0,0-2.65,6,35.13,35.13,0,0,1-1.51,7c-.54,1.45-1.8,5.47-3.39,5.81.67,1.74.15,4.28.08,6.17a13.83,13.83,0,0,1-1.33,5c-1.38.25-2.32-.45-3.4-1.12.43,1.14,1.84,2,2.59,3,2.17,2.87,2.6,7.69,3.21,11.18.55,3.14.33,7.16-1.45,9.86s-4.7,2.76-7.58,3c-3.67.32-6.44-2.33-9.07-4.48-6.94-5.7-12.84-13.41-17.49-21.14A100.38,100.38,0,0,0,120.73,110a42.56,42.56,0,0,1-6.39-8.94c-2.31-4.78-2.61-9.44-2.41-14.66.17-4.23.46-7.32,2.65-11s3.39-7.87,5.15-11.64a138.49,138.49,0,0,1,12.91-22.47c7.74-10.81,14.73-18.91,27.73-21.72,7.2-1.55,14.52-1.46,21.88-1.86,19.9-1.09,42.64,3.67,59.7,14.61,13.62,8.73,24.32,19.81,33.95,32.49,9,11.8,7.75,24.72,8.72,38.57a149.23,149.23,0,0,0,3.63,22.47c.62,2.74,1.52,5.46,1.6,8.28.1,3.72-1.37,6.86-3.18,10-1.17,2-2.29,4.5-4,6.17-3,3.07-8,5.13-12.24,5.71a9,9,0,0,1-4.46-.27c-1.27-.49-2.39-.67-3.65-1s-2.63-1-3.94-1.52a12.14,12.14,0,0,1-7-7.48c-1.81-6.35-4.21-14.07-9.78-17.81-6.4-4.31-11.58-7.61-15.12-15-2.6-5.44-7.21-9.79-11.23-14.1-4.92-5.26-7.64-9.8-14.88-11.7C195.27,85.79,188.08,84.75,182.63,85.76Z"/><path class="cls-2" d="M293.15,165.83c-.66,1.17-1.25,2.33-2,3.45a41.68,41.68,0,0,1-4.64,5.47c-.93.95-2,2.55-3.49,2.42-3.87-.33-7.39-2.35-10.5-4.69a39.18,39.18,0,0,1-5.46-4.63,56.53,56.53,0,0,1-4.63-5,43.54,43.54,0,0,0-4.67-5.46c-3.66-3.66-7.7-6.93-11.12-10.84-9.87-11.32-14.43-23.85-30.45-27.54-1.61-.37-3.42-1.19-5-1.12a45.67,45.67,0,0,0-6.14,1c-3.18.56-5.82,2.26-8.68,3.61a19.44,19.44,0,0,0-4.69,3.14,45.45,45.45,0,0,1-5.11,3.6,31,31,0,0,0-3.75,2.84c-.6.56-1.38,1.66-2.07,2-.8-2-2.71-3.69-4.1-5.19s-3.13-3.11-4-5a39.81,39.81,0,0,1-1.86-5.72c-1.2-4.11-2.13-8.29-3.55-12.32-2.43-6.89-5.27-13.59-8.4-20.32-3.7-8-6.76-15.71-10.87-23.41-3.95-7.41-8.92-14.74-12.59-22.32-1.18-2.41-3.34-5.82-3.8-8.42-1.37-7.71,6.36-12.45,11.32-16.95,6.36-5.79,14.53-6.39,22.56-8.52s15.86-4.3,23.89-4.22c17.42.21,35.36.61,51.18,7.23,8.35,3.5,15.81,6.73,23.41,11.91,7.42,5.06,13.35,11,19.71,17.39,10.71,10.78,14.49,25.8,19.6,39.71,5,13.74,3,30.28,4.35,44.82a80.58,80.58,0,0,1,.41,10.87c-.21,5-.93,10.61-3.88,14.83a29.68,29.68,0,0,0-3.1,5.63c-1.09,2.59-2.85,4.73-4.4,7-1,1.42-2.17,2.73-3.05,4.22C293.38,165.44,293.26,165.63,293.15,165.83Z"/><path class="cls-3" d="M184.51,117.18a.57.57,0,0,1-.29-.83c3.46-7.28,8.4-13.57,12.66-20.34-6.55-4.33-14.44-5.8-20.79-10.52a.59.59,0,0,1-.23-.65c3.1-9.2,11.35-15.35,14.37-24.55-7.46-1.36-15-2.08-22.42-3.82a.57.57,0,0,1-.29-.83c4.63-9.11,11.67-16.93,14.14-27.09-10.24-4.06-21.7-4.91-31.23-10.78a.57.57,0,0,1-.07-.88c5.37-4.7,12.25-8,17.27-13.22l-2.31.63c-8,2.16-16.21,2.77-22.56,8.68-5,4.6-12.68,9.43-11.31,17.31.46,2.67,2.63,6.15,3.81,8.61,3.68,7.76,8.65,15.25,12.61,22.82,4.11,7.87,7.18,15.8,10.88,23.94,3.15,6.87,6,13.72,8.43,20.77,1.42,4.12,2.35,8.39,3.55,12.59a41.52,41.52,0,0,0,1.87,5.85c.88,1.93,2.63,3.58,4,5.12s3.3,3.29,4.1,5.31c.7-.32,1.48-1.44,2.07-2a31.66,31.66,0,0,1,3.76-2.9,45.5,45.5,0,0,0,5.1-3.67,19.14,19.14,0,0,1,4.69-3.21s0,0,0,0C192.34,121.51,188.56,119,184.51,117.18Z"/><path class="cls-3" d="M212,118.85c5-6.41,12.58-10,18-16-4.46-3.55-8.86-7.48-14.26-9.36a.57.57,0,0,1-.2-.94c5.17-4.37,11.59-6.62,17.53-9.6C227.33,78.6,222,72.67,214.9,71a.58.58,0,0,1-.2-1c5-5,10-9.92,14.49-15.42-5-3.85-11.37-8-17.75-8.06a.56.56,0,0,1-.23-1c5.1-2.3,10.57-3.67,15.55-6.29-6.06-4.93-13.3-9.34-21-10.57a.56.56,0,0,1-.23-1c5.9-3.54,12.24-6.12,18.56-8.69-7.48-4.08-14.6-9.15-23-11.09a.57.57,0,0,1-.08-1C206,4.71,211,3,216,1.33A259.33,259.33,0,0,0,189.2,0a47.67,47.67,0,0,0-6.32.39c-4,5.07-8.85,9.28-13.65,13.52,2.71,1.62,6.06,2.54,9,3.58s5.62,2,8.36,3.08,9.32,3.17,9.45,7.17c.16,4.45-3.6,9.11-6,12.42-2.75,3.77-5.78,7.3-8.63,11,7,.07,14.14,1,20.6,3.87a.58.58,0,0,1,.35.7c-2.47,9.14-10.64,14.81-14.6,23.13A61.55,61.55,0,0,1,200,83.22c3.07,1.57,6.3,3.89,5.25,8-1.46,5.68-5.95,10.51-8.52,15.71-1.16,2.37-2.54,5.7-.46,8a40.36,40.36,0,0,0,4,3.69c.63.53,1.57,1.16,2.42,1.86a13,13,0,0,1,2.28-.63,45.55,45.55,0,0,1,6.13-1A5.77,5.77,0,0,1,212,118.85Z"/><path class="cls-3" d="M226.79,116.79a69.29,69.29,0,0,1-6.25,4.51,29.31,29.31,0,0,1,5.18,2.66,51,51,0,0,1,1.75-4.91.55.55,0,0,1,.68-.36c5.46,1.27,10.91,2.39,16,4.86a90.77,90.77,0,0,0,2.4-18.28.54.54,0,0,1,.83-.44c1.93,1.27,3.83,2.61,5.75,3.91-1.4-5.62-1.43-11.5-2.79-17.15a.56.56,0,0,1,.82-.6c2.11,1.14,4,2.61,6.07,3.83-.35-8.25-.75-16.61-3.51-24.44-.17-.47.46-.84.81-.59,3.3,2.29,6.35,4.93,9.47,7.46-.34-8.49-.79-17-2.39-25.31-.08-.39.29-.82.69-.65,4.6,1.89,8.71,4.75,13.06,7.14a55.35,55.35,0,0,1-7-24.39.55.55,0,0,1,.7-.51c5.72,1.57,11.13,4,16.62,6.27-.69-.81-1.4-1.62-2.15-2.39-6.37-6.56-12.31-12.61-19.73-17.79-7.6-5.3-15.07-8.61-23.43-12.19a71.52,71.52,0,0,0-8.65-3c-2.83,1.73-5.52,3.76-8.17,5.61a98.75,98.75,0,0,0,15.91,7.93.57.57,0,0,1,.08,1c-4.83,3.53-10.16,6.19-15.17,9.42,5.12,2.29,10.4,4.27,15.19,7.29a.58.58,0,0,1,.07.88c-3.82,3-7.59,6.21-12.11,7.94a75.74,75.74,0,0,0,11.34,4.71.57.57,0,0,1,.29.84,25,25,0,0,1-1.52,2.07c-3.29,5.49-7.35,10.41-11.19,15.48-.74,1,1.15,2.38,1.87,3.28.85,1.08,1.71,2.17,2.58,3.24.69.86,1.39,1.73,2.12,2.58.27.19.53.39.76.57,2.65,2.06,5.39,4,8.08,6a.57.57,0,0,1,.06.88c-4.71,4.14-9.72,9.61-15.91,11.3,4.21,3,8.21,6.4,12.46,9.4a.59.59,0,0,1,.07.88A87.94,87.94,0,0,1,226.79,116.79Z"/><path class="cls-3" d="M294.72,102.15a.54.54,0,0,1,.82-.45c1.41.81,2.81,1.61,4.22,2.4a3.46,3.46,0,0,1,2.81.1,10.91,10.91,0,0,1,4.35,3.9c-.17-10.34-.42-20.84-3.75-30.1-3.05-8.46-5.63-17.31-9.48-25.42-5.09-.36-9.78-2.68-14.81-3.48a130.28,130.28,0,0,0,5.24,25.21c.11.39-.33.82-.69.66-4.75-2.15-8.1-6.22-12.07-9.51-.27,9,.26,17.91-.07,26.87a.55.55,0,0,1-.71.5,17.32,17.32,0,0,1-5.77-3.9,221.52,221.52,0,0,1,.24,24.85.53.53,0,0,1-1,.24,20.32,20.32,0,0,0-6.39-7.73c2.17,5.92,1.73,12.32,2.65,18.56a.54.54,0,0,1-.92.5c-2.27-2.49-4.74-4.74-7.17-7-1.45,5.47-1.77,11.16-3,16.67a.54.54,0,0,1-.8.3,81.28,81.28,0,0,0-12.33-6.2c-.48,1-.93,2.12-1.4,3.17,4,4.87,7.42,10.51,12,15.88,1.13,1.31,2.33,2.55,3.54,3.77,1.71-5.3,3-10.76,6.91-14.91a.53.53,0,0,1,.65-.07c4.3,2.12,6.82,6.23,9.84,9.85,3.57-7.31,2.83-16,5.6-23.59a.54.54,0,0,1,.81-.29c2.28,1.27,13.25,14,15,11.43,1.61-2.37,2.26-5.58,2.93-8.36C292.42,118,294,110.12,294.72,102.15Z"/><path class="cls-3" d="M307.16,117.6c-1.32-.54-2.46-1.55-3.43-.11a48.81,48.81,0,0,0-5,9.83c-2.38,6.15-4.31,12.56-8,18a.53.53,0,0,1-.74.17c-3.55-1.92-6.83-4.32-10.48-6-1.62,6.49-2.28,13.48-6.06,19.14a.53.53,0,0,1-.74.16c-4.85-3.63-9-8.64-14.95-10.38-.92,2.63-2.09,5.21-3,7.86,1,1,2.05,2,3,3a44.71,44.71,0,0,1,4.68,5.59A56.63,56.63,0,0,0,267.1,170a39.25,39.25,0,0,0,5.47,4.74c3.11,2.4,6.64,4.46,10.5,4.81,1.45.13,2.56-1.51,3.5-2.48a43.39,43.39,0,0,0,4.63-5.58c.78-1.15,1.37-2.33,2-3.53l.33-.59c.89-1.52,2.1-2.86,3.05-4.31,1.55-2.36,3.3-4.54,4.39-7.19a31.61,31.61,0,0,1,3.1-5.76c2.95-4.3,3.67-10,3.87-15.15a85.7,85.7,0,0,0-.42-11.1C307.36,121.78,307.24,119.7,307.16,117.6Z"/><path class="cls-1" d="M310.35,215.35a1.93,1.93,0,0,1,0,.24"/><path class="cls-2" d="M113.37,80c.8.62,1.13,1.84,1.67,2.8s1.36,1.84,1.95,2.81c.81,1.31,1.67,2.61,2.47,3.93,1.64,2.73,3.21,5.45,5,8.09,3.12,4.62,6.5,8.94,9.87,13.36,2.59,3.4,5,7,7.8,10.22,3.07,3.6,6.4,7,9.76,10.28,3.68,3.63,6.9,7.61,11,10.77a22.16,22.16,0,0,0,4.14,2.57c1.19.58.84.79.25,1.88a24.87,24.87,0,0,0-1.42,3.78c-1.67,5-2.78,10.42-4,15.52a6.53,6.53,0,0,1-.24,1.15,18.23,18.23,0,0,1,2-1.08,9,9,0,0,1,3.19-.09,82,82,0,0,1,8.59.89c2.64.37,5.51.57,8.14.75,4.09.29,8.2.35,12.3.53,12.17.51,24.36,1,36.5,1.78a115,115,0,0,1,14.21,1.7c3.06.58,6.16,1,9.2,1.69,6.47,1.37,13.08,2,19.56,3.34,9.12,1.89,17.37,5.59,25.55,9.91,3.84,2,7.89,3.69,11.64,5.89,1.89,1.12,4,1.9,5.66,3.36,1.37,1.18,2.69,2.29,3.94,3.53,1.64,1.64,3.6,3.08,4.86,5.1a46.07,46.07,0,0,1,2.84,5.35,25,25,0,0,1,2,7.84c.41,2.87-.58,4.77-2.43,7-4.06,4.88-12.19,5.94-17.95,6.94-4.66.81-9.36,1.15-14,2-2.25.41-4.48.4-6.75.63a88,88,0,0,1-9.44.81c-7.76-.09-15.5-.71-23.25-.77-7.29-.06-14.62.59-21.91.27-9.52-.44-19.06-.34-28.59-.75-8.48-.35-17-.95-25.46-.66-9.62.33-19.22.66-28.84.26-8.33-.36-16.65-.94-25-1.3-7.19-.3-14.42-.67-21.6-.39-7.51.3-15.11.09-22.59,1-3.19.36-6.45.3-9.55.95a16.78,16.78,0,0,1-6,.41,19,19,0,0,1,2-8.62c1.1-2.43,2-5,2.93-7.48a66.78,66.78,0,0,0,2.63-7.17,40,40,0,0,0,1.3-5.72c.21-1.75.86-3.39.92-5.16,0-1.35.35-2.6.39-3.95s.63-2.48.64-3.7a14.15,14.15,0,0,0,2.48-.59c1.32-.19,2.61-.06,3.94-.17a61.09,61.09,0,0,1,13,.54c10.88,1.36,21.87,1.68,32.87,2.15,7.08.3,14.13.93,21.18,1.59,3.61.33,7.24.65,10.84,1.12,4.36.58,8.85.28,13.21.89s8.86.72,13.25,1c3.77.22,7.53.56,11.32.72l12.21.52c4.83.21,9.65.9,14.46,1.09,17.39.65,34.75,2.21,52.12,2.89-1.05-.13-2.14-.65-3.24-.84-2-.35-4.22,0-6.27-.31-2.93-.4-5.87-.25-8.81-.54-3.87-.39-7.71-1-11.58-1.45-8.12-1-16.28-2.27-24.46-2.91-4-.32-8.06-.68-12.06-1.15-2.38-.28-4.76-.38-7.12-.65-2.54-.3-5.11-.25-7.65-.56-7.78-.94-15.78-.85-23.62-1.18-7.16-.3-14.27-.85-21.42-1.14-6.87-.28-13.74-1-20.64-1.34-6-.25-12-.74-17.95-1-7.81-.33-15.57-.14-23.35-.52-2.05-.09-4.18.32-6.26-.08a5.26,5.26,0,0,1-2.11-.91c-.78-.65-.76-1.6-.75-2.69A72,72,0,0,1,84.24,173c.63-2.92,1.58-5.91,2.37-8.82.52-1.93.93-3.89,1.49-5.81.69-2.31,1.39-4.66,2-7,2-8.42,4.75-16.64,6.79-25,1.84-7.63,3.37-15.41,5.32-22.91,1.44-5.57,2.37-11.3,4.62-16.67a56.12,56.12,0,0,1,2.93-6.22c.65-1.12,2-4.07,3.22-2.13a2.3,2.3,0,0,1,.43,1.83"/><path class="cls-1" d="M184.46,156.05a10.1,10.1,0,0,1-1.62.64c-4.12,1.2-6.51,4.28-9.31,7.48-1.45,1.65-3.74,3.59-4.56,5.68a12.67,12.67,0,0,0-.4,5.07c3.38,1,5.53,3.57,8.65,5.11,4.1,2,8.6,3.17,13,4.35,8.63,2.32,16.59,5.67,25.47,6.78,4.73.6,9.43,1.51,14.25,1.67,4.14.14,8.25.71,12.33.85,7.75.28,15,2.43,22.74,2.74,4.22.16,8.41,1.48,12.63,1.15a42.2,42.2,0,0,1,5-.09c3.69.15,7.57,0,11,1.18,2.4.8,6,2.46,7.17,5.05a7.74,7.74,0,0,1,.55,4.34c-.22,1.14-1.05,2-1.35,3.11a21.45,21.45,0,0,1-.95,3.12c-.44,1-1.4,3.27-.91,4.4,1,2.2,3.69-.68,4.45-1.68a13.47,13.47,0,0,0,1.82-2.88c.39-1,.31-1.87.7-2.81.55-1.32,2.3-2.67,3.74-2.07,2.32,1,3,5.58,2.54,7.74-.55,2.85-5.47,7.47-3.37,10.63,2.51,3.76,5.12-6.2,5.45-7.61a8.49,8.49,0,0,1,1.94-3.95c1.83-1.83,2.54,0,2.66,1.93s.89,3.78.85,5.92-.34,4.16-.19,6.18c1.16.33,2.66-1.76,3.17-2.76.85-1.62.6-3.84.64-5.62,0-1-.31-3.59.45-4.44,1-1.09,1.09,1.16,1.17,2,.11,1.32-.18,2.7,1.11,3.52,1.79,1.12,1.88-.86,2-2.24a7.9,7.9,0,0,0-1.08-4.67,55.57,55.57,0,0,1-3.66-8,27.4,27.4,0,0,0-4.51-8.94,63.09,63.09,0,0,0-5.6-5.49,16.44,16.44,0,0,0-7-4.26c-6.27-1.89-12.69-3.51-19-5.08a78,78,0,0,1-10.28-3c-3.13-1.27-6.55-1.64-9.7-2.94-3.89-1.59-8.32-2-12-3.79-2.12-1-4.62-2.35-7-1.95-3.26.55-6.51-.78-9.83-1.35-2-.35-3.91-1.24-6-1.36a51.82,51.82,0,0,1-5.68-1,76.86,76.86,0,0,0-10.6-1.51,44.65,44.65,0,0,0-5.3-.21c-1.31.12-2.72.79-4.17.59,3.62-1.19,7.56-2.48,10.74-4.83,1.68-1.25,3.35-2.52,5.12-3.66,1.52-1,2.88-1.91,4.31-2.94,1.77-1.28,4.26-1.83,6.2-2.87.92-.48,1.66-1.25,2.57-1.76,1.25-.7,2.7-1.11,4-1.7,1.68-.73,3.38-1.38,5.09-2,3.31-1.13,6.23-2.41,9.65-3.3,8.19-2.17,16.3-3.27,22.85-9.32,3.09-2.84,6.73-5.21,8.76-9,1.92-3.57,3.82-8.37,2.55-12.5a16.19,16.19,0,0,0-8-9.33c-4.25-2.17-8.23-2-12.82-2-4.06-.08-8.16,1.73-11.84,3.3a22.8,22.8,0,0,0-6.27,4.15c-1.92,1.79-4.26,2.93-6.25,4.63-3.78,3.23-7.48,6.39-11,10-3.27,3.37-7.86,5.72-11.43,8.92s-7.39,5.34-11.24,7.9c-4.24,2.83-8.56,5.45-13,7.93-2.29,1.27-4.56,2.6-6.79,4C187.56,154.13,186.07,155.26,184.46,156.05Z"/><path class="cls-1" d="M335.16,213c-.28-.17-.56-.34-.85-.48a34.74,34.74,0,0,1-5.27-3c-5.37-4-10.36-8.43-16-12.09-1.66-1.08-3.49-1.94-5.19-3a52.36,52.36,0,0,1-6.53-4.11c-2.8-2.34-5.94-4.24-8.74-6.62-2-1.72-4.1-3.32-6.21-4.91l-3.21-2.43c-.76-.58-2.47-1.42-2.59-2.46a8.27,8.27,0,0,1-.11-1,7.46,7.46,0,0,1,.46-2.08,62.57,62.57,0,0,1,3.24-7.3c1.47-3.13,3.45-6.49,6.31-8.44,1.34-.91,2.82-1.74,4.22-2.53a14.17,14.17,0,0,1,4.14-1.76c1.15-.21,1.87-.46,2.91.13a9.91,9.91,0,0,1,1.45.75,34.33,34.33,0,0,0,5.33,4.11c4.88,2.58,9.16.57,13.3-2.8,3-2.43,6.13-5.81,9.88-6.9,3.44-1,7.11-2.17,10.68-2.41,6.49-.43,12.48,1.34,16.77,6.07,5.63,6.22,8.36,10.76,10.74,18.87,1.72,5.87,2.53,14.49,6,19.59,2.8,4.11,7.65,6.88,6.49,12.85-.5,2.63-1.72,4-4.45,4.32-1.42.16-2.93-.34-4.35-.24a6.52,6.52,0,0,0-2.64.82c-2.89-1.32-5.64,4.59-8.3,5.11-.22,1.2.47,3,.07,4-2.11.5-3.78,2.31-5.81,3.08-2.62,1-5.93,2.08-8.69,1.57-2.52-.46-5.26-2.17-7.69-3.39a12.09,12.09,0,0,1-1.59-.73c-.37-.27-.45-.73-.76-1s-.91-.31-1.29-.49A15.23,15.23,0,0,1,335.16,213Z"/><path class="cls-3" d="M362.42,181.42c.49.43.91,1.15,1.49,1.63a6.88,6.88,0,0,0,1.88,1.07c1.32.54,2.6,1,3.9,1.61.71.32,2.86,1.17,3.6.64s.16-2.21-.07-2.87a6.09,6.09,0,0,0-1.46-2.84,4.16,4.16,0,0,0-2.82-.89,26,26,0,0,0-3.88,1,11.14,11.14,0,0,1-2.9.53c.45,2,2.44,2,3.87,3"/><path class="cls-2" d="M362.37,179.5c1,.9,2.06.59,3.3.62a14.92,14.92,0,0,0,2.95-.39,20.9,20.9,0,0,0,3.19-.78c.69-.25,1.7-1,2.37-1,.27,1.09-1.07,2.28-1.81,2.81a7.44,7.44,0,0,1-4.25,1.12,10.19,10.19,0,0,1-3.7-.23c-.36-.12-2.19-1.12-2.11-.15a1.38,1.38,0,0,0,.54.05"/><path class="cls-2" d="M368.7,182.85c0,.22-.05.42-.06.61-.11,1.57.11,3.34,1.89,3.65a3.17,3.17,0,0,0,3.37-2.66c.16-1.62-2-3.49-3.4-3.73S368.84,181.76,368.7,182.85Z"/><path class="cls-2" d="M362.87,181.29c-.23.74,1.08,1.65,1.63,2a27.45,27.45,0,0,0,2.55,1.26,6.15,6.15,0,0,0,4.62.51c-.38.29-.61.75-1,1a3.43,3.43,0,0,1-1.44.38,11.78,11.78,0,0,1-3.83-.57c-2.06-.55-3.11-2.95-2.76-5a1.45,1.45,0,0,1,.55,0"/><path class="cls-2" d="M355.27,208.8c.66.85,2.66,1.16,3.68,1.2a10.19,10.19,0,0,0,4-.31,16.39,16.39,0,0,0,2.94-1.52c.71-.42,1.31-1.69,2.36-1.31a6,6,0,0,1-1.08,2.3,5.27,5.27,0,0,1-3.23,2.26c-.08.28.12.48.23.71a2.2,2.2,0,0,1,.24,1.32,2.07,2.07,0,0,1-.78,1.67c-1.06.7-3.12.4-4.17-.08-1.38-.65-2.16-2.24-3.28-3.22a4.67,4.67,0,0,0-2.37-1.45c-.48-.06-2-.3-2.39.06a.87.87,0,0,1,1.09,0"/><path class="cls-2" d="M370,170.3a25,25,0,0,1-3.65,1.23c-2.55.79-5,1.57-7.5,2.61-4.21,1.75-8.35,3.41-12.66,4.73-1.39.43-2,.49-3.2-.33-1.49-1-2.85-2-4.38-2.87-.94-.53-2.34-2.07-3.3-2.29-1.36-.33-2.68,1.76-3.6,2.71-1.36,1.4-2.61,2.91-3.89,4.32-1,1-2.26,3.06-3.61,2.48-.46-.2-1.11-1.18-1.75-1.5a12.21,12.21,0,0,1-1.76-.81c-1.12-.9-.67-3-.18-4.19,1.19-2.87,2.22-6,.3-8.81-1.59-2.33-4-4.31-6-6.31-1-1.06-2-1.78-1.82-3.4.22-1.89,1.88-3.35,3-4.78a69.9,69.9,0,0,1,9.74-9.72,31,31,0,0,1,13.59-6.68c4.06-1,8.72.21,12.58,1.19,8.45,2.15,16.31,8.63,20.45,16.48,1.78,3.39,1.59,6.39,1.44,10.17-.13,3.24,0,5.47-3.13,6.64a15.72,15.72,0,0,1-1.48.59"/><path class="cls-1" d="M74.32,229a8.12,8.12,0,0,1,2.55-.18,16.93,16.93,0,0,0,3.18-.19c1.3-.11,2.61-.19,3.92-.22,3.44-2.07,2-8.86,1.3-12-.56-2.54-.9-5.84-2.8-7.8-1.52-1.56-4.63-1.17-6.63-.68a55.38,55.38,0,0,1-5.42,1.26c-1.91.26-3.71,0-5.48.45s-4.93,1.16-6.51-.18-1.51-3.8-2.55-5.34a7.26,7.26,0,0,0-1.56-1.52,7.16,7.16,0,0,0-2.59-1.17,13.13,13.13,0,0,0-3.5-.57c-1.1,0-2.39,1-3.27,1.59-3.54,2.25-6.22,5.58-8.74,8.9a24.37,24.37,0,0,1-5.16,5.23c-1.81,1.32-4.24,1.6-6.4,2a43.3,43.3,0,0,1-8.2.68,21.1,21.1,0,0,1-2.64,0c-.88-.08-1.76-.2-2.64-.26-1.12-.08-2.65-.45-3.7.15a1.47,1.47,0,0,0-.63,1.1c0,.53.3.77.7,1a6.47,6.47,0,0,1,1.37,1,1.49,1.49,0,0,1,.48,1.29c-.22.63-2,.43-2.49.31a6.28,6.28,0,0,0-2.75-.26c-.91.22-2,1.24-1.51,2.26s2.71.8,3.61.88,2,.39,2.1,1.54-1.72,1.38-2.54,1.22a6.26,6.26,0,0,0-3.64.1c-.86.36-1.6.72-1.9,1.68A5.82,5.82,0,0,0,.09,234,4,4,0,0,0,2,236.6c1.74,1.07,3.58.63,5.47.24a8.16,8.16,0,0,0,2.84-1.27c.73-.48,1.59-.85,2.28-1.4a14.28,14.28,0,0,1,3.95-2,10.21,10.21,0,0,1,3.78-.24,33.08,33.08,0,0,1,4.74.72,43.67,43.67,0,0,0,5.72.61,38.9,38.9,0,0,0,4.32.15c1.35,0,2.69-.26,4-.26,1.83,0,3.58.43,5.42.27,2.22-.21,4.43-.4,6.66-.5a66.53,66.53,0,0,0,7-.55c2.84-.42,5.67-1,8.5-1.55l4.15-.81C72.05,229.74,73.1,229.23,74.32,229Z"/></g></g></svg>