<svg xmlns="http://www.w3.org/2000/svg" viewBox="0 0 202.47 538.29"><defs><style>.cls-1{fill:#007293;}.cls-2{fill:#1d1d1b;}.cls-3{fill:#fff;}.cls-4{fill:#e30613;}</style></defs><g id="Ebene_2" data-name="Ebene 2"><g id="Ebene_1-2" data-name="Ebene 1"><path class="cls-1" d="M27.82,320.22c4.46.31,8.32,2.59,12.71,3.74a30.14,30.14,0,0,0,4.88.9,22.4,22.4,0,0,0,2.33,0,20.28,20.28,0,0,1,2.7,0c1.13.17,1,.5,1.26,1.72.45,2.12.08,4.33.61,6.35.44,1.71.94,3.42,1.5,5.1,1.42,4.24,3.33,8.25,4.82,12.54,1.78,5.15,3.3,10.32,4.65,15.62,1,4,2.73,7.81,3.37,11.92.31,2,.52,4,1,6,.62,2.82,1.08,5.71,1.54,8.55s.48,5.67.9,8.51c.48,3.32,1,6.76,1.21,10.08a217.84,217.84,0,0,1-.77,38.24c-.28,2.93-.35,5.93-.82,8.79-.42,2.59-.44,5.22-.78,7.84-.28,2.2-.28,4.59-.42,6.82a29.68,29.68,0,0,0,.3,6c.51,3.86,3.47,5.84,5.22,9,1,1.77,1,4,1.14,5.91a15.25,15.25,0,0,1-.14,4c-.17.73-.74,1.27-.88,2s0,1.08-.55,1.74a4.94,4.94,0,0,1-3,1.58c-2.34.43-4.73-.14-7.07-.42-1.7-.2-3.13-1.19-4.83-1.71a37.75,37.75,0,0,1-5.39-1.78,20.53,20.53,0,0,0-2.29-.77l-2.88-.92a15.3,15.3,0,0,0-5.34-.39,11.21,11.21,0,0,0-2.66.22,17,17,0,0,0-5,2.88c-.51.37-1.07.62-1.59,1a8,8,0,0,1-1.86.91c-.59.19-1.23.13-1.82.33-1.69.59-1.11,1.7-.67,3.1s.21,3.4-1.58,2.27a7.63,7.63,0,0,1-1.68-1.3c-.58-.75-.19-1.27-.37-2-.57-2.36-2.26,1.61-2.61,2.08-.54.72-1.11,1.14-1.9.55a2.06,2.06,0,0,1-.73-2.23c.39-1.43,1.74-2.13,2.09-3.69-.66-.62-1.93.31-2.57.6a7.84,7.84,0,0,1-2.27.59,2.74,2.74,0,0,1-2.17-.47A3.44,3.44,0,0,1,14,499.7a1.88,1.88,0,0,1,.87-2.17c.67-.32,1.26.14,2,.1A1.53,1.53,0,0,0,18.31,496c-.08-.88-1-.79-1.6-1a9.57,9.57,0,0,1-6.46-7,5.09,5.09,0,0,1,1.63-4.77,3,3,0,0,1,4.37.74c1.09,1.74,1.67,3.25,3.35,4.47a12.38,12.38,0,0,0,4.84,2,8.7,8.7,0,0,0,3.35-.37c1.27-.23,2.61,0,3.86-.34s2.42-1.43,3.71-1.93c.7-.27,1.25-.25,1.84-.8.4-.36.71-.8,1.12-1.15a27.93,27.93,0,0,0,3.73-3,55.62,55.62,0,0,1,4-4.12c1.82-1.64,3.2-4.52,4.08-6.93A23.06,23.06,0,0,0,51.32,469c.26-1.11.39-2.24.56-3.38.3-2,.34-4.11.56-6.13.16-1.53.07-3.09.1-4.63,0-1.23,0-2.48,0-3.72A33.78,33.78,0,0,0,51.32,445c-.56-2.54-.73-5.27-1.08-7.85-.8-6.11-1.93-12.18-2.69-18.28-.65-5.18-.74-10-1.9-15.15-.93-4.17-2.29-8.32-3.58-12.35-1.18-3.66-2.57-7.49-3.5-11.35-.85-3.49-1.26-7.6-2.85-10.84-1.71-3.5-4.27-6.39-5.85-10.2-1.4-3.37-1.34-6.27-1.38-9.79,0-5-2.08-9-4.29-13.26-1.63-3.15-5.21-7.08-5.63-10.76-.5-4.47,5-4.89,7.91-5a11.94,11.94,0,0,1,1.34,0"/><path class="cls-1" d="M148.38,50.67c.32.81.59,1.65.92,2.45.53,1.24,1,2.51,1.5,3.76,2.09,4.93,4,10,5.9,15q1.49,4,2.9,7.94c1,2.93,1.65,6.1,3.08,8.87.57,1.11.84,2.43,1.45,3.5s1.29,1.74,1.75,2.78a13.15,13.15,0,0,1,1.16,6.45c-.23,2.43-2.14,5.37-4.72,6a12.24,12.24,0,0,1-9.22-2.11,18,18,0,0,1-2.67-3.14,37.28,37.28,0,0,0-2.3-3A13.78,13.78,0,0,1,146,95.28q-2.18-4.59-4.21-9.26a28.7,28.7,0,0,1-2.18-7.79A36.73,36.73,0,0,0,138.49,74a37,37,0,0,1-.68-4.43c-.37-2.7-.15-5.64-.74-8.26s-1.13-5.41-1.71-8.12-1.14-5.11-1.75-7.64c-.89-3.71-2-7.31-2.87-11-.36-1.57-.76-3.18-1.12-4.77a46.42,46.42,0,0,1-.59-5.27,8.07,8.07,0,0,1-.18-3c.48-1.82,3.15-3.08,4.84-3.08a5.5,5.5,0,0,1,5.2,3.21,18.74,18.74,0,0,1,1.05,2.67c.21.65.17,1.32.32,2s.61,1.46.8,2.24.22,1.76.38,2.62a18.49,18.49,0,0,0,1.14,2.82c.32.93.56,1.87.88,2.81.38,1.11.87,2.14,1.2,3.28s.68,2.23,1.06,3.33a69.68,69.68,0,0,0,2.39,6.72l.27.62"/><path class="cls-1" d="M139.84,8.43a22.5,22.5,0,0,0-.68,8.49c.19,2.41,1.83,3.95.43,6.4a6.6,6.6,0,0,1-3.39,2.45c-1.25.41-2.66,1.52-4.09,1.17-2.24-.55-3-2.24-4-4.16-.58-1.21-1.46-2.29-2.06-3.52-1-2-3.1-3.78-3.69-6-.22-.79.12-1.36.09-2.12a6.06,6.06,0,0,0-1.45-3.09c-.61-.79-2.43-2.33-2-3.31.88-2.29,4.56,1.83,5.91,1.78s1.76-1.45,2.32-2.32a15.55,15.55,0,0,1,3.2-3.57c1.29-1,3.87-1.12,2.87,1.45-.59,1.5-3.13,2.75-2.8,4.31,2.56.62,3-2.78,4.62-4.14.67-.55,2.86-2.25,3.58-1.16.58.88-2,2.38-1.4,3.81,1.08-.26,1.56-1.87,2.44-2.61a4.79,4.79,0,0,1,3.54-1C145,4.17,140.73,5.62,139.84,8.43Z"/><path class="cls-1" d="M169,113.76c.41,3.44,1.09,6.92,1.53,10.52.47,3.95.35,8.11,1.36,12a44.73,44.73,0,0,1,1.37,10.37c.11,3.85,1.52,7.9,2.27,11.69a106.29,106.29,0,0,1,2,20.52c0,3.17.08,6.34,0,9.5-.05,2.22-.68,4.37-.92,6.57-.11,1,.21,3-.37,3.89-1.55,2.46-7,.34-9.32.12a28.28,28.28,0,0,1-4.46-.34,28.37,28.37,0,0,1-4-1.79c-.77-.33-2-.4-2.48-1.08-.78-1-.47-3.36-.56-4.59a18.67,18.67,0,0,1,.67-7.4,10.45,10.45,0,0,0,0-6.38c-.78-3.08-1.44-6.16-2.06-9.27-.37-1.87-.28-3.7-.68-5.54s-.8-3.62-1-5.48-.08-4.09-.25-6.08-.06-3.79-.06-5.68c0-5.17.67-10.43.06-15.6a115.63,115.63,0,0,1-.81-13.54,60.67,60.67,0,0,0-.73-7.49c-.26-2.15-.85-4.87-.5-7a11.37,11.37,0,0,1,2-3.84A10.36,10.36,0,0,1,158,93a5.13,5.13,0,0,1,3.78.15,20.52,20.52,0,0,1,3.15,2.22,11.6,11.6,0,0,1,2.22,2C170.39,102.07,168.41,108.55,169,113.76Z"/><path class="cls-2" d="M145.92,375.26c.35,0,.49-.16.42-.5"/><path class="cls-2" d="M116.22,333c-1.26-.12-2.7,0-3.11-1.43-.06,0-1.14.32-1.15.29-.43-1.12.42-2.9.71-4,.41-1.48,1.08-2.93,1.57-4.37,1.25-3.63,2.69-7.26,3.93-10.88,2.64-7.7,4-15.36,7.29-22.9,4.18-9.72,8.45-19.47,12.78-29.17a156.72,156.72,0,0,0,5.63-14.84c1.43-4.33,2.36-8.76,3.84-13,1.17-3.37,2.42-6.95,3.24-10.34.89-3.62,1.43-7.78,2.87-11.18a39,39,0,0,0,3.05-11.5c.16-1.54-.15-2.52,1.42-2.41,1.21.09,2.35.58,3.62.75,3.93.56,10.46-2.29,14-.61,3.94,1.87,4.92,9.88,5.85,13.65,1.5,6.11,2.83,12.28,4.07,18.48,2.1,10.48,4.11,20,5.07,30.69.82,9.17.66,18,1.48,27.12,1.37,15.24,4.91,28.37,10.08,42.31-3.5.8-7.35.57-10.89,1.33-6,1.3-11.85,2.29-18,1.54-5.24-.63-9.92-3-15.06-4-9.38-1.78-19.89,2-29.19,3.07-4.3.52-8.76,1.76-13.11,1.38"/><path class="cls-3" d="M173.71,306.67a125.28,125.28,0,0,1-19.29-2.42c-10.55-2.31-20.41-6.78-30.66-10.07-1.37,3.93-2.42,7.88-3.55,11.86,7.26,2.74,14.54,5.63,22.17,7.08,9,1.71,18.27,2.32,27.43,3.11a90,90,0,0,0,17.67.13,37.44,37.44,0,0,0,9.86-2.25c-.76-2.71-1.44-5.43-2.05-8.19a98,98,0,0,1-21.58.75"/><path class="cls-2" d="M84.85,386c-15-9.59-27.91-22-40.14-34.82-4.47-4.69-8.86-9.45-13.27-14.19-1.78-1.92-3.52-4.43-5.86-5.67a40.19,40.19,0,0,1-6.44-4.6,79.72,79.72,0,0,1-7.46-7,49.87,49.87,0,0,0-6.52-5.35C2.91,312.65-1,310.38.23,307.05a42,42,0,0,1,2.26-4.23c.73-1.44,1.69-3.22,3.45-3.53,3-.51,6-.2,9-.12a76,76,0,0,1,8.65.65c7.3,1.1,14.58,2,22,3.08C62,305.27,77.8,309.12,94,312.72c17.25,3.83,34.88,7.34,52.11,10.36,4.92.86,9.92,1.41,14.83,2,4.17.51,8.3-1,12.37-1.6.47,2-.95,4-1.84,5.68a43.44,43.44,0,0,0-4.17,10.63c-.8,3.47-3.86,6.3-5.77,9.31-4.24,6.64-8.54,13.38-13.26,19.65-5.68,7.56-12.24,13.75-20.64,17.94C121,390,117,394.1,109.25,394.76c-9.64.83-16.49-3.74-24.4-8.8"/><path class="cls-3" d="M137.15,362.1q5.07,3.93,10.43,7.53c.23-.3.47-.58.69-.88,4-5.34,7.72-11,11.35-16.67a124.17,124.17,0,0,1-20.22-8.25,132.53,132.53,0,0,1-26.89-18.57c-4-3.51-7.71-7.21-11.38-11l-6.63-1.43c10.33,19.24,25.48,35.94,42.65,49.27"/><path class="cls-1" d="M2.58,310.84c.8,4.3,5.44,9.6,7.32,14.19,2.75,6.68,6.15,12.81,9.49,19.22,5.52,10.62,12.7,20,19.77,29.62C45.71,382.79,53.32,391,59.6,400.1c5.4,7.84,10.59,17.29,15.33,25.71,3.89,6.92,7.76,13.85,11.5,20.86s7.3,13.95,10.68,21.07a29.48,29.48,0,0,0,2.69,5c1,1.41.85,3.69.85,5.35,0,1.17,0,2.34,0,3.51,0,1.84-.22,3.65-.37,5.47a41.93,41.93,0,0,1-1.48,6.55c-.31,1.29-.67,2.62-1.1,3.88-.37,1.06-.82,2.1-1.13,3.18-.4,1.38-1,2.78-1.57,4.12s-1.06,2.47-1.61,3.68c-.67,1.45-1.2,2.94-2,4.35-.44.8-.8,1.65-1.19,2.47s-.66,1.79-1.11,2.65a14.94,14.94,0,0,1-1.85,2.55,14.3,14.3,0,0,1-5.36,4.41c-1.46.58-3,0-4.23,1a5.5,5.5,0,0,0-2.1,3.69c.08,3.17,4,5,6.78,3.83,2.39-1,5.79-6,5.61-.11,0,1.32-.75,3.07.46,4.28a2.34,2.34,0,0,0,3.94-1.08c.54-1.58-.25-3.2.34-4.77,2.7-1.21,5.62,6.46,8.48,2.4,2.16-3.07-4-8.06,2.13-7.77a3.07,3.07,0,0,0,5.48.77,4.22,4.22,0,0,0,.63-2.67,15.27,15.27,0,0,0-.14-1.66c0-.36-.31-1.15-.13-1.44-.35-.29-.16-.84-.16-1.24,0-.79.12-1.55.12-2.34,0-1.42.26-2.83.24-4.24A24,24,0,0,1,111,504.7a46,46,0,0,1,3.42-5.78,21.16,21.16,0,0,1,1.83-2.51c.86-1,1.84-2,2.77-3s1.71-2.14,2.65-3.13a23,23,0,0,0,2.85-3.4,16.64,16.64,0,0,0,1.7-2.79,8,8,0,0,0,.11-2.55c0-2.31-1.26-4.24-2.45-6.11a8.14,8.14,0,0,0-2.12-2.06,12.48,12.48,0,0,1-1.69-1c-1.17-1.12-2.32-2.15-3.38-3.38a32.52,32.52,0,0,1-3.13-5.11,60.77,60.77,0,0,1-3.69-7.12c-.13-.32-.25-.64-.39-.95a40.68,40.68,0,0,1-1.76-4.21,42.43,42.43,0,0,0-2.25-5.13c-1.6-3.61-3.13-7.25-4.62-10.9-3-7.35-5.89-14.75-8.94-22.09a173.12,173.12,0,0,0-11.67-23.71c-4.63-7.58-7.88-15.26-12.58-22.49S58.94,351.13,53,344.69c-5.47-6-11-12.4-16.66-18.08a159.71,159.71,0,0,0-15.29-13.42c-3.22-2.48-6.19-5-9.83-6.11-1.1-.34-3.38-1.54-4.34-1.44-2.52.24-2.43,2-4.51,3.21"/><path class="cls-1" d="M79.35,242.27c5.78,4.58,11,9.88,16.67,14.63,2.54,2.11,5.1,4.19,7.77,6.13s5.4,3.42,8,5.25a13.06,13.06,0,0,0,3,1.77,5.52,5.52,0,0,0,2.45.53,13.43,13.43,0,0,0,3.29-1.25,36.21,36.21,0,0,0,5.09-2.66,25.63,25.63,0,0,0,2.16-1.6,44.5,44.5,0,0,0,4.6-3.49c1.45-1.4,2.81-2.76,4.39-4a42.67,42.67,0,0,0,5.28-4.86c1.5-1.67,3.56-2.87,4.95-4.64a18.76,18.76,0,0,0,1.22-2.25,23.53,23.53,0,0,1,2.27-3.06,67.11,67.11,0,0,0,5.16-7.47A41.82,41.82,0,0,0,159,228.6a18.12,18.12,0,0,1,4.34-5.73,9.46,9.46,0,0,1,6.79-2.64c2.1.06,3.54,1.1,5.06,2.45a11.22,11.22,0,0,1,2.17,2.34,10.12,10.12,0,0,1,1,3.19,7.66,7.66,0,0,1-1.23,5.94c-1.73,3-3.94,6.49-6.82,8.42a18.57,18.57,0,0,0-3.53,3.71c-1.29,1.52-2.61,3-3.84,4.62s-2.31,2.95-3.6,4.36c-2.36,2.57-4.11,5.47-6.31,8.13-2.41,2.91-4.69,6-7.1,8.85-.9,1.09-1.79,2.27-2.65,3.35a8.61,8.61,0,0,1-1.31,1.68,11.6,11.6,0,0,0-1.51,1.21c-1.3,1.36-2.61,2.71-3.94,4-1.93,1.92-4.05,3.64-6.12,5.41a28.12,28.12,0,0,1-4.19,3.09,10.43,10.43,0,0,1-5.46,1.66c-3.44,0-6.35-3.48-9-5.32-5-3.55-9.31-8-13.65-12.36-2.93-2.94-6-5.75-8.88-8.7-1.43-1.43-2.92-2.7-4.25-4.2a22.41,22.41,0,0,0-3.19-2.74c-1.2-.94-2.21-2.18-3.39-3.17s-1.92-2.06-2.9-3.05c-1.64-1.64-3.46-3.12-5-4.86-1.81-2.1-3.89-3.73-5.86-5.66-1.72-1.68-3.11-3.64-4.78-5.28s-3.32-3.66-5-5.51c-.59-.65-1.06-1.42-1.67-2.07a10.39,10.39,0,0,1-3-4.82,6.43,6.43,0,0,1,.3-3.42,5.47,5.47,0,0,1,1.8-2.71,5.63,5.63,0,0,1,.84-.61,8.94,8.94,0,0,1,1.33-.52,9.66,9.66,0,0,1,2.56-.71,8.54,8.54,0,0,1,1.83.11,8.7,8.7,0,0,1,1.94.46,6.83,6.83,0,0,1,1.44.83,9.17,9.17,0,0,1,1.27,1.37,4.31,4.31,0,0,1,.88,1.27c.4,1.14,1.24,2.18,1.75,3.29a35.1,35.1,0,0,1,1.54,4,21.41,21.41,0,0,0,1.83,3.84,10.66,10.66,0,0,0,1.34,2c.76.84,1.45,1.77,2.25,2.57l.67.61a13.67,13.67,0,0,1,1.24,1.39,10.51,10.51,0,0,0,1.65,1.47c.88.72,1.76,1.44,2.65,2.14"/><path class="cls-1" d="M43.5,214.09a10.5,10.5,0,0,0,.8,1c-.28.39.13.72-.06,1.16s-.78.55-1.24.57c-1.53,0-2.91-1.41-4.31-1.86-.55-.18-2.3-.41-2.83,0-.81.66-.18,1.32.31,2.1a13,13,0,0,0,4.48,4,16.6,16.6,0,0,0,2.88,1.54,5,5,0,0,1,2.16,1.25c.66.58,1.37,1.26,2.05,1.93a8.53,8.53,0,0,0,1.64,1.36A12,12,0,0,1,51,228.72l.1.09a11.13,11.13,0,0,0,2.3,1.25c1.7.82,3.59,2,5.51,1.27a4.15,4.15,0,0,0,1.95-1.53c.32-.42.59-.85,1.12-.93a8.39,8.39,0,0,1,1.41-.12h.18c.94,0,2,.09,2.68-.7a2,2,0,0,0,.45-1.93,9.56,9.56,0,0,1-.68-2c-.08-.54-.07-1.09-.19-1.63s-.27-1-.41-1.52c-.22-.82-.46-1.59-.63-2.42-.25-1.24-.62-2.41-.9-3.63s-.41-2.2-.67-3.29a26.19,26.19,0,0,1-.79-6,32,32,0,0,0-.25-3.79c-.13-1.18-.17-2.38-.3-3.56-.06-.54-.36-5.59-1.79-4.54a2.79,2.79,0,0,0-.87,2.05c0,.9,0,1.85-.13,2.74s0,2.1-.07,3.12a8,8,0,0,1-.22,1.53c0,.19-.07.78-.23.85a6.75,6.75,0,0,1-.29-1,10.48,10.48,0,0,1-.33-1.34c0-.21-.06-.42-.1-.63a12.61,12.61,0,0,1-.15-2.45c0-1-.06-1.95-.11-2.91a13,13,0,0,0-1.28-5.61c-.33-.61-1.27-1.78-2.07-1.48-1,.36-1.1,1.55-1.1,2.43a30.41,30.41,0,0,0,.29,3.7c.21,1.67.47,3.34.61,5,.08.89-.07,1.78-.07,2.66,0,.57,0,1.15,0,1.71,0,.28.11,1-.34.82a2.1,2.1,0,0,1-.63-.63,9,9,0,0,1-.45-.88c-.24-.44-.46-.89-.69-1.33-.38-.73-.75-1.46-1.15-2.18-.53-.92-1.16-1.78-1.74-2.66s-1.12-1.91-1.73-2.84a15.35,15.35,0,0,0-4.35-4.26,2.76,2.76,0,0,0-1.86-.62c-.31,0-.5.08-.63.41a2.63,2.63,0,0,0-.07,1,6.9,6.9,0,0,0,.69,2.16c.22.43.53.81.77,1.23s.45.89.7,1.32c1.18,2.08,2.49,4.13,3.65,6.21.39.7.95,1.37,1.31,2.06s.5,1.3.77,2a2.75,2.75,0,0,1,.22,1.44,1.74,1.74,0,0,1-.48,1.06c-.22.16-.38,0-.6,0a5,5,0,0,1-.94-.17,4.28,4.28,0,0,1-1.26-.8c-.78-.6-1.55-1.23-2.28-1.86a42.89,42.89,0,0,1-3.37-3.75,11.55,11.55,0,0,0-2.6-2.23,21.41,21.41,0,0,1-2.24-1.95,2.3,2.3,0,0,0-1.52-.71,1.46,1.46,0,0,0-1.3.76c-.61,1.14.18,2.67,1,3.51s1.58,1.45,2.35,2.22a14.8,14.8,0,0,1,1.07,1.18,2,2,0,0,1,.25.33,2.89,2.89,0,0,0,.32.6c.47.57,1,1.11,1.44,1.68.23.29.42.59.63.9.45.67,1,1.25,1.46,1.93"/><path class="cls-2" d="M142.6,188.91c3,.76,4.7-3,7.47-3.43,4.18-.6,2.46,6.59,7.11,5.32-.07-1.44-.13-4.35,1.41-5,.59-.24,2.31.4,3.17.12,1.35-.44,2.11-1.06,2.07-2.48-.08-3.16-6.68-5.38-6.09-8,2.47-.56,5.75-.34,6.33-3.71.29-1.76-1.51-3.26-2.28-4.75-1.56-3-5-6.56-4.41-10.18.38-2.47,2.58-3.74,4-5.51a7.79,7.79,0,0,0,1.64-6.69,13.33,13.33,0,0,0-5.14-8.68c-2.68-1.88-5.41-1.16-8.42-1a34.21,34.21,0,0,1-7.57-.22c-4.73-.76-5.1-5.81-9.36-7.31-1.31-.46-4.18-1.8-5.56-1.8-2.17,0-5.41,2.5-7.23,3.5-1.52.84-3.83,3.09-5.65,3-.64,0-1.34-.87-2-1-1.9-.35-4.57.21-5.86,1.67s-1.2,3.54-3.25,1.65c-1.48-1.37-1.3-2.47-3.88-1.82-3.36.85-3.56,4.11-4.88,6.73-1.57,3.12-5.38,3.27-7.65,5.86-1.8,2-1.84,4.37-1.94,7-.18,4.51-.34,9,.66,13.39.93,4.13-.93,4-3.85,6.32a5.55,5.55,0,0,0-2.37,4.6c0,2,1.31,3,3.12,3.69,2.42.92,4.71-.1,3.73,3.29-.34,1.17-1.22,2.79-1.24,3.93,0,1.82,1.45,2.45,2.81,3.21a45.4,45.4,0,0,1,5.1,3.59,25.66,25.66,0,0,0,8.69,4.58c.58-3-.74-6.43-1.79-9.22-1.27-3.35-1.4-8-1.22-11.56,2.09-.24,4.07-1.3,6.08-2a79,79,0,0,1,9.3-2.11c4.08-.77,8.37-1,12.44-1.69,2.23-.36,4.4-1.08,6.7-1,1,2.83,2.61,5.74,3.91,8.65,1.15,2.58,2.81,8.08,5.87,8.84"/><path class="cls-1" d="M144.69,168.72a14.79,14.79,0,0,0-5.63-3.77,59.81,59.81,0,0,0-7.62-2.56,27.16,27.16,0,0,0-10.59-.19c-4.41.58-9.22,1.1-13.26,3.1a66.66,66.66,0,0,0-7.13,3.81c-2.84,1.91-3.13,4.89-3.48,8-.16,1.44-.18,2.9-.36,4.34a5.63,5.63,0,0,0,.23,2.71c.72,2.25.4,4.67,1,6.95a30.82,30.82,0,0,0,1.49,3.11c.4,1.06-.38,2.38-.54,3.43s-.44,2.13.54,2.88a7.86,7.86,0,0,0,3.47,1.05c1,.12,2.42-.19,2.9.87a7.92,7.92,0,0,1,.13,2.53,16.44,16.44,0,0,1-1.37,8c-1,2.27-1.78,4.59-2.89,6.82a16.53,16.53,0,0,1-3.16,3.85c-.64.67-.67.85-.08,1.7a4.18,4.18,0,0,0,1.6,1.32,9.91,9.91,0,0,0,4.77,1c3.52,0,6.38-1.26,9.42-2.82a27.57,27.57,0,0,0,2.58-1.47c1.62-1.07,3.33-2.33,5-3.28.46-.26,2-1,2.55-.69s.44,1.55.91,2.09a3.14,3.14,0,0,0,2.09.53c.93-.06,1.61-1,2.58-.88-.34,1,1.78,2.19,2.47,2.57a7.55,7.55,0,0,0,4.22.88c2.4-.21,3.85-2.14,5.69-3.41a9.74,9.74,0,0,0,3.79-4.42,14.8,14.8,0,0,1,2.28-4c1.09-1.27.7-1.79,2.44-.2s2.46,3.53,4.73,2.49a26.21,26.21,0,0,0,6.68-5.23c2-2.05,6.75-4.76,4.28-8-1.14-1.49-2.93-2.51-4.13-4s-2-2.93-3-4.4c-1.55-2.31-3.19-4.55-4.69-6.9a31.17,31.17,0,0,1-2-3.49c-.38-.83-1.08-1.2-1.42-2-.12-.29-.27-.56-.4-.83-.27-.56-.53-1.11-.8-1.66-.65-1.36-1.08-2.84-1.61-4.28a16.43,16.43,0,0,0-3.25-5.1l-.37-.41"/><path class="cls-2" d="M108.78,193a9.68,9.68,0,0,0-7.31-2.87c-1.35.13-2.12.25-2.57,1.63s.48,2.49.46,3.81c.58,0,1-.73,1.55-1.06a5.71,5.71,0,0,1,2.94-.78c1,0,2,.29,3,.33a6,6,0,0,1,2.62.32,4.82,4.82,0,0,0-.72-2"/><path class="cls-2" d="M106.57,199.3c0,1.06-2.3,1.43-3,1.5a5.22,5.22,0,0,1-3.79-1c-.41-.33-.48-.66-.91-.33a5.15,5.15,0,0,0-.83,1.42,7.27,7.27,0,0,1-2.45,2.82,9.44,9.44,0,0,0,2-1.1,12.73,12.73,0,0,0,2.26-1.7c-.21.94-.32,1.9-.46,2.86a25.35,25.35,0,0,0-.67,3c1-.27,1.31-2.49,2-3.18.46.7.63,1.58,1,2.32a9,9,0,0,0,1.48,2.4,9.44,9.44,0,0,1,.1-2.37c0-.7-.24-1.43-.17-2.14.64.24,3.09,3,3.6,2.46s-.57-3.38-1-4a11.32,11.32,0,0,1,1.85.77,12.53,12.53,0,0,1,1.66.44c-.65-.8-2.08-1.11-2.52-2.06a18.79,18.79,0,0,0,4-.38c-.31-.67-1.77-.93-2.4-1.17a6.77,6.77,0,0,1-1.89-.71"/><path class="cls-4" d="M137.58,199.16a4.66,4.66,0,0,0-1.77,1.86c-1.75,3.25,1.6,7.92,5.27,6.74s5.58-5.88,2.32-8.61c-1.61-1.34-4.17-1-5.82,0"/><path class="cls-2" d="M117.06,188.43a5.38,5.38,0,0,1,.25-1.9,6,6,0,0,1,.85-2.36c1.24-1.82,3.38-3.08,5.19-4.25,2.13-1.36,6.22-3.42,8.26-.74-.46-.07-.77.5-1.1.74-.52.38-1.1.69-1.66,1-1.75,1-3.8,1.35-5.57,2.33s-3.93,1.5-5.37,2.9c-.43.42-1.28,1.85-.26,2"/><path class="cls-2" d="M128.63,220.73c.23.06,1-.7,1.21-.92a9.14,9.14,0,0,0,1.41-1.3c.4-.54.73-1.11,1.15-1.63s.58-.95.92-1.33c.14.8.67,1.64.49,2.51s-1.05,1.35-1.63,1.87a7.86,7.86,0,0,1-2.06,1.21,5.06,5.06,0,0,1-2.29.67c.14-.22.37-.47.31-.78"/><path class="cls-3" d="M132.54,193.74c1-.78,2.47-2.09,2.53-3.49s-2.21-2-3.33-2.25a8.87,8.87,0,0,0-4.34.45,20.15,20.15,0,0,0-2.07.89,11.71,11.71,0,0,0-2,.9,10.73,10.73,0,0,0-1.29,1.14,5.05,5.05,0,0,0-1.08,1.33c-.18.55.37,1,.71,1.32.76.79,1.25,1.67,2.39,2a9.84,9.84,0,0,0,3.74-.1,16.82,16.82,0,0,0,2.46-.92,7.65,7.65,0,0,0,2.24-1.23"/><path class="cls-2" d="M121.05,192.91c-.12-.32.31-.77.57-1a7.07,7.07,0,0,1,2.64-1.79,17.76,17.76,0,0,1,4.67-1.4,8,8,0,0,1,4.46.68,7.9,7.9,0,0,1,1.42.83c.3.23,1,.6,1.07,1-.47-1.23-.95-2.45-1.42-3.68a17,17,0,0,1-.59-2.05c-.08-.3-.19-.64-.24-.94s.12-.76-.09-1.1a8.77,8.77,0,0,1-.33,2.46,7.6,7.6,0,0,0-.44,2.41c-.6.16-1.34-1.5-1.51-1.89-.27-.6-.59-1.16-.84-1.77a3.25,3.25,0,0,0-.88-1.42,13.08,13.08,0,0,1-.43,2.38c-.12.55-.14,1.85-.76,2.16s-2.29-.54-2.86-.76a5,5,0,0,1-2.34-1.72,13.27,13.27,0,0,1,.7,1.81c.09.33.58,1.55.21,1.9s-.66,0-1-.05a8.49,8.49,0,0,0-1.78-.3c-.95-.05-2-.07-2.92-.1a8.27,8.27,0,0,0,1.66,1.44c.5.38.94.83,1.43,1.19-.89.65-2.94,0-3.6,1,.31,0,.63,0,1,.05a10.53,10.53,0,0,0,1.88.31"/><path class="cls-2" d="M135.28,190.4c.6.49-2,3-2.42,3.34a10,10,0,0,1-4.69,1.77c-1.62.14-3.18.45-4.71-.18a6.59,6.59,0,0,1-2.92-2.36,9.63,9.63,0,0,1,1.15,1.52,4.56,4.56,0,0,0,1.93,1.4c1.82.53,3.61.91,5.39-.08a14.6,14.6,0,0,0,3.67-2.52c.47-.49.9-1,1.35-1.49a8.76,8.76,0,0,0,.71-.78c.19-.26.22-.58.53-.73"/><path class="cls-2" d="M123.36,190.44a13.8,13.8,0,0,0,.38,1.69,6.33,6.33,0,0,0,1.16,1.64,5.06,5.06,0,0,0,2.68,1.45,4.76,4.76,0,0,0,2.83-.37,4.07,4.07,0,0,0,2.41-1.91c.69-1.36,1.05-4.19-.83-4.79a7.08,7.08,0,0,0-3.65.24c-.9.29-1.78.52-2.68.81a7.81,7.81,0,0,0-1.75.64c0,.16-.08.14-.12.22"/></g></g></svg>