<svg xmlns="http://www.w3.org/2000/svg" viewBox="0 0 268.21 170.51"><defs><style>.cls-1,.cls-4,.cls-5{fill:#007293;}.cls-2{fill:#e30613;}.cls-3,.cls-6,.cls-8{fill:#fff;}.cls-3,.cls-4,.cls-6{stroke:#fff;}.cls-3,.cls-4,.cls-5,.cls-6{stroke-miterlimit:10;}.cls-3,.cls-5{stroke-width:0.13px;}.cls-4{stroke-width:0.14px;}.cls-5{stroke:#007293;}.cls-6{stroke-width:0.13px;}.cls-7{fill:#1d1d1b;}</style></defs><g id="Ebene_2" data-name="Ebene 2"><g id="Ebene_1-2" data-name="Ebene 1"><path class="cls-1" d="M23.5,21.81c-.08.21-1.39,2.31-1.57,2-.48-.89-.06-1.39.2-2.19a6.84,6.84,0,0,0,.3-2.52,3.39,3.39,0,0,0-.58-2.38c-.56-.59-1.55-.58-1.45-1.61a6,6,0,0,1,.35-1c.11-.37.12-.82.2-1.22a6.31,6.31,0,0,1,.85-2.21c.45-.74.87-1.42,1.82-.93.77.4.79,1.67.94,2.41a13.39,13.39,0,0,1,.18,3.46,22.77,22.77,0,0,1-.46,3,12.9,12.9,0,0,1-.36,2s0,0,0,.05a.41.41,0,0,1,0,.07,2.6,2.6,0,0,0-.1.25A9.37,9.37,0,0,1,23.5,21.81Z"/><path class="cls-2" d="M22.52,16.63c-.51-.09-.82-.69-1.27-.77s-.6.47-.72.84a7.06,7.06,0,0,0-.15,2.82,13.1,13.1,0,0,0,.24,1.87,4.29,4.29,0,0,0,.79,1.31c.33.49.67.56,1.13.91A18.9,18.9,0,0,1,24,24.82,24.33,24.33,0,0,0,27,27.47a3.14,3.14,0,0,0,1.35.59,3,3,0,0,1,1.4.39c.79.52,1.63,1.82,2.57.8-.09-.59-.77-.79-1.14-1.13a3.08,3.08,0,0,1-1.06-1.52c.54-.51,1.5.68,1.91.93s.93.25,1.38.47a6.67,6.67,0,0,1,1.06.77c.49.4,1.16,1.13,1.77,1.14.37,0,.9-.26.58-.73-.17-.25-.78-.27-1.05-.41a3.07,3.07,0,0,1-.86-.82c-.31-.35-.73-.42-1.11-.66a5.81,5.81,0,0,1-.86-.64,6.85,6.85,0,0,1-.7-1,3.78,3.78,0,0,0-1.89-1.42c-.79-.26-1.67-.33-2.12-1.15-.33-.58-.62-1.1-.92-1.7A1.44,1.44,0,0,0,26,20.47c-.49-.08-1.39.16-1.7-.3-.67-1,1.17-.57,1.59-.61s1.58-.1,1.49-.87-1.3-.6-1.85-.37-1.53.16-.81-.54c.32-.31,1.16-1,.73-1.51-.47.26-1.08.11-1.59.25A3,3,0,0,1,22.52,16.63Z"/><path class="cls-1" d="M22.89,10.12a8.63,8.63,0,0,0-.7,1.21,16.9,16.9,0,0,0-1.34,3.27,21.4,21.4,0,0,0-.37,3.08,10,10,0,0,0,.24,3.13c.11.44.14.85.27,1.3.08.26.19.51.29.76a3.1,3.1,0,0,0,.77,1.31,2.6,2.6,0,0,1-.36-.13c-.33-.11-.68-.17-1-.25-.79-.19-1.57-.45-2.36-.64-2-.49-4-1.12-6-1.57-1-.22-1.91-.46-2.87-.69a28.2,28.2,0,0,1-2.85-.7c-1.14-.39-2.26-.82-3.4-1.25L1.51,18.3a2.52,2.52,0,0,1-.87-.47A1.49,1.49,0,0,1,.36,17,10.47,10.47,0,0,0,.13,15.8s0-.06,0-.09A3.08,3.08,0,0,1,0,14.46c0-.59,0-1.18.07-1.77A7.47,7.47,0,0,1,.4,11.14c.25-.86.72-2,1.7-2.16a16.57,16.57,0,0,1,3,0c3.42.07,6.82.35,10.24.47,1,0,1.94,0,2.91.06.75,0,1.54.09,2.29.08.53,0,1,0,1.58,0A4,4,0,0,0,23,9.48c.15,0,.31-.17.46-.09,0,0,0,0,0,0A4.46,4.46,0,0,0,22.89,10.12Z"/><path class="cls-3" d="M5.65,12.93c-.08,0-.32.09-.26-.15,0-.08.1-.14.16-.08s0,.27,0,.36"/><path class="cls-3" d="M5.4,14.82a.15.15,0,0,1-.1-.25c.1-.16.27.09.16.19"/><path class="cls-3" d="M6.41,14.1c-.09.06-.25,0-.18-.19s.26.05.15.15"/><path class="cls-3" d="M7.1,12.78s0,0,0,0-.18,0-.14-.17.19,0,.15.17"/><path class="cls-3" d="M7.69,14.26c-.09-.06-.22-.26,0-.33s.28.2.14.27"/><path class="cls-3" d="M7.16,15.62l-.07,0a.25.25,0,0,1,0-.09c.08,0,.15.1.08.17"/><path class="cls-3" d="M6,16.39c-.32-.18.09-.28,0,0"/><path class="cls-3" d="M6.23,17.24s-.28,0-.14-.14.19.09.11.17"/><path class="cls-3" d="M7.39,17s-.18.06-.17-.08.19-.09.19.05"/><path class="cls-3" d="M8.78,15.52s-.22.07-.18-.09.17-.08.16.06"/><path class="cls-3" d="M10.28,14.59s-.21,0-.16-.15.25,0,.21.12"/><path class="cls-3" d="M10.85,13.3s0,0,0,0a.2.2,0,0,1-.13,0c0-.25.31-.14.16,0"/><path class="cls-3" d="M11.77,14.38c-.09.07-.22-.14-.13-.28s.29.06.21.18"/><path class="cls-3" d="M12.79,15.17s0-.05-.09-.05c0-.26.26-.21.24,0h0"/><path class="cls-3" d="M14.5,16.2c-.25,0,.18-.39.09,0h-.06"/><path class="cls-3" d="M14.37,14.35c-.07.07-.22-.11-.08-.18s.21.15.12.24"/><path class="cls-3" d="M15.33,14.74c-.07,0-.27,0-.16-.24s.3.06.19.18"/><path class="cls-3" d="M16.32,14.71c-.07,0-.3,0-.2-.22s.24,0,.2.18"/><path class="cls-3" d="M9,11.79c-.07,0-.22-.15-.09-.28s.28.33.11.31"/><path class="cls-3" d="M10.12,11.38c0,.19-.33.08-.23-.12s.34,0,.21.25"/><path class="cls-3" d="M8.91,13.76c-.12,0-.11-.33,0-.33s.21.45,0,.4"/><path class="cls-3" d="M10.35,17.72c-.11-.06-.21-.25,0-.31s.15.06.14.19-.06.14-.16.18"/><path class="cls-3" d="M8.77,17.76s0,0,0,0-.07-.13,0-.22.25.06.19.24c0,0-.08,0-.12,0"/><path class="cls-3" d="M7.26,18.13c-.09.05-.28-.12-.12-.21s.22.07.2.18-.13.13-.21.15"/><path class="cls-3" d="M6.09,18.34c-.11,0-.32,0-.3-.19s.32-.13.26.08H5.93"/><path class="cls-3" d="M5.09,16.4c-.09-.09-.16-.49.06-.39s0,.47-.1.29"/><path class="cls-3" d="M4.89,12.59c-.09.05-.22,0-.12-.17s.32,0,.2.12"/><path class="cls-3" d="M5.86,12.06c-.38.24-.25-.52,0-.26"/><path class="cls-3" d="M6.24,11s0,0,0,0c-.46,0,.17-.56.08,0"/><path class="cls-3" d="M6.88,11.38c-.1,0-.26-.18-.07-.27s.22.19.14.31"/><path class="cls-3" d="M7.45,10.65c-.1,0-.16-.09,0-.17s.21.08.17.25"/><path class="cls-3" d="M7.57,11.88c-.24-.23.21-.4.12,0"/><path class="cls-3" d="M7.71,12.85s0-.06-.09,0c-.08-.2.17-.32.21-.11"/><path class="cls-3" d="M8.27,12.9c-.13,0-.22-.24-.07-.3"/><path class="cls-3" d="M8.43,12.1c0-.06,0,0,0,0-.25.18-.12-.35,0-.16"/><path class="cls-3" d="M9.2,12.93c-.23-.09.06-.43.11-.15"/><path class="cls-3" d="M9.74,12.66c-.22,0-.11-.36.07-.16"/><path class="cls-3" d="M16.71,15.4c0-.05,0,.08,0,.1s-.2,0-.15-.14.21-.06.19.08"/><path class="cls-3" d="M17,16.75c-.07,0-.14-.07-.1-.2s.39.16.21.25"/><path class="cls-3" d="M18.58,17.5c-.09,0-.2-.18-.08-.26s.19.11.16.17"/><path class="cls-3" d="M9,16.3c-.07,0-.17,0-.18.14l.14,0"/><path class="cls-3" d="M18.23,16.38c-.06.13-.4.12-.29-.09s.38-.13.31.09"/><path class="cls-3" d="M15.72,16.2s.08,0,.06.09-.23,0-.2-.14.26-.08.35-.07"/><path class="cls-3" d="M16.28,15.36s0,.06-.06.09-.13,0-.15,0c-.1-.21.16-.19.24-.17v.06"/><path class="cls-3" d="M15.28,15.46c0-.06,0,0,0,.06s-.23,0-.17-.24a.16.16,0,0,1,.16.05.06.06,0,0,1,0,.06"/><path class="cls-3" d="M14.32,15c-.06,0-.22-.17-.1-.28s.17,0,.12.15"/><path class="cls-3" d="M13.74,15.5l-.12,0c0-.12.05-.32.14-.18"/><path class="cls-3" d="M12.68,16s0,0,0,0-.24-.17-.09-.31.35.05.17.11"/><path class="cls-3" d="M10.78,15.2a.39.39,0,0,1,.05.2.3.3,0,0,1-.16-.45c.13-.14.38.07.21.19"/><path class="cls-3" d="M10,16l0,.1c-.11.1-.22-.1-.18-.25s.28-.13.24.09"/><path class="cls-3" d="M9.48,17.07c-.06-.06-.26-.13-.24-.32a.14.14,0,1,1,.27.06"/><path class="cls-3" d="M8.4,16.64c-.09,0-.15-.23-.09-.34s.27.15.23.31a0,0,0,0,1,0,0"/><path class="cls-3" d="M8.12,15.32c-.17.21-.26-.58,0-.26"/><path class="cls-3" d="M8.43,14.47c-.17,0-.14-.24,0-.23"/><path class="cls-3" d="M9.56,14.88s-.12,0-.15,0,0-.18.05-.2"/><path class="cls-3" d="M10.35,14.1c-.12.12-.38-.29,0-.23"/><path class="cls-3" d="M11.1,13.49c-.09,0-.22-.1-.08-.18"/><path class="cls-3" d="M9.36,15.54c-.09,0-.18,0-.16.17s.22-.12.09-.21"/><path class="cls-4" d="M23.27,19.52a.16.16,0,0,1-.06-.13c.07,0,.13,0,.11.1a0,0,0,0,1-.05,0"/><path class="cls-3" d="M10.5,16.81a.1.1,0,0,0-.09.18c.11.1.27-.13.12-.21"/><path class="cls-3" d="M12,16.45a.23.23,0,0,0-.18.14c.08.07.32.05.18-.11"/><path class="cls-3" d="M13.21,16.44a.16.16,0,0,0-.2.14.18.18,0,0,0,.16,0"/><path class="cls-3" d="M13.5,17.18s-.07,0-.1.05.07,0,.1,0"/><path class="cls-3" d="M15.44,16.59c-.63-.16.15,1,.12-.06"/><path class="cls-3" d="M16.77,16.44h-.21c0,.35.36.26.44,0"/><path class="cls-3" d="M18.19,16c-.05.06-.1.06-.07.2a.37.37,0,0,0,.15,0,1.38,1.38,0,0,0,0-.2"/><path class="cls-2" d="M13.2,12.28l.8.41c1,.48,2.21.36,3.26.72a5.14,5.14,0,0,1,2.13,1c.51.57-.23,1.43-.21,2.17,0,1,0,2,.11,3s.53,1.77.63,2.68a2.91,2.91,0,0,1-1.06-.33,10.82,10.82,0,0,0-1.41-.38c-1.06-.28-2.11-.57-3.17-.87C12.2,20.1,10.12,19.51,8,19.05c-1-.23-2-.54-3-.86a7,7,0,0,1-2.82-1.36,2.72,2.72,0,0,1-.58-2.36c.06-.42.18-.82.21-1.25a7.92,7.92,0,0,1,.09-1,4.4,4.4,0,0,1,.81-1.58c.32-.42.83-.3,1.35-.28.85,0,1.71,0,2.57,0a5.53,5.53,0,0,1,2.18.19c.68.23,1.32.54,2,.8s1.21.4,1.8.64A6.09,6.09,0,0,1,13.2,12.28Z"/><path class="cls-3" d="M3.58,12.56c-.06,0-.28.07-.23-.15,0-.06.09-.12.14-.06s0,.24,0,.32"/><path class="cls-3" d="M3.35,14.29a.14.14,0,0,1-.09-.23c.1-.15.25.08.15.17"/><path class="cls-3" d="M4.28,13.63a.12.12,0,0,1-.16-.17c.06-.17.24,0,.14.14"/><path class="cls-3" d="M4.92,12.43s0,0,0,0-.16,0-.13-.16.17,0,.14.16"/><path class="cls-3" d="M5.45,13.78c-.07,0-.2-.24,0-.3s.26.18.13.25"/><path class="cls-3" d="M5,15s0,0-.06,0a.25.25,0,0,1,0-.08.09.09,0,0,1,.07.16"/><path class="cls-3" d="M3.9,15.73c-.29-.17.08-.25,0,0"/><path class="cls-3" d="M4.11,16.5s-.26,0-.12-.12.17.08.09.15"/><path class="cls-3" d="M5.17,16.25S5,16.31,5,16.18s.17-.08.17.05"/><path class="cls-3" d="M6.45,14.94s-.2.06-.17-.09.16-.07.15.06"/><path class="cls-3" d="M28.77,25.43s-.2,0-.14-.14.23,0,.18.11"/><path class="cls-3" d="M8.35,12.91s0,0,0,.05a.2.2,0,0,1-.13,0c0-.22.29-.12.16,0"/><path class="cls-3" d="M9.19,13.9c-.08.07-.2-.12-.11-.26s.26.06.19.18"/><path class="cls-3" d="M10.12,14.63s0-.05-.08-.05c0-.24.25-.19.22,0h0"/><path class="cls-3" d="M11.69,15.58c-.23,0,.17-.36.09,0h-.07"/><path class="cls-3" d="M11.57,13.87c-.06.07-.2-.09-.07-.15s.19.13.11.22"/><path class="cls-3" d="M12.46,14.24c-.07,0-.25,0-.16-.22s.29.05.18.16"/><path class="cls-3" d="M13.36,14.21c-.06,0-.28,0-.19-.2s.23,0,.19.17"/><path class="cls-3" d="M27.82,23.73c-.06,0-.19-.14-.08-.25s.26.29.1.28"/><path class="cls-3" d="M29,26.1c0,.17-.3.07-.21-.11s.31,0,.19.23"/><path class="cls-3" d="M27.27,25c-.12,0-.11-.3,0-.3s.19.42,0,.37"/><path class="cls-3" d="M7.88,17c-.1-.06-.19-.23,0-.28s.15.05.14.17-.06.13-.15.16"/><path class="cls-3" d="M6.44,17s0,0,0,0-.06-.12,0-.2.23.05.18.22a.25.25,0,0,1-.12,0"/><path class="cls-3" d="M5.05,17.33c-.08,0-.25-.11-.1-.2s.19.07.18.17-.13.12-.2.14"/><path class="cls-3" d="M4,17.52c-.1,0-.29,0-.27-.18s.29-.12.23.08c0,0-.08,0-.11,0"/><path class="cls-3" d="M3.07,15.73c-.09-.08-.15-.44.06-.35s0,.43-.1.26"/><path class="cls-3" d="M24.91,23.2c-.35.21-.22-.48,0-.24"/><path class="cls-3" d="M4.13,10.75v0c-.43.05.15-.51.07,0"/><path class="cls-3" d="M4.72,11.14c-.1,0-.24-.16-.06-.24s.2.17.13.28"/><path class="cls-3" d="M25.39,20.71c-.09,0-.14-.09,0-.16s.2.08.16.23"/><path class="cls-3" d="M26.91,23.74c-.22-.21.2-.36.11,0"/><path class="cls-3" d="M5.48,12.48s0,0-.08,0c-.08-.18.15-.28.18-.1"/><path class="cls-3" d="M6,12.54c-.12,0-.21-.22-.06-.28"/><path class="cls-3" d="M6.13,11.8c0-.05,0,0,0,0-.23.16-.11-.32,0-.14"/><path class="cls-3" d="M6.84,12.57c-.21-.09.06-.4.1-.14"/><path class="cls-3" d="M7.34,12.32c-.21,0-.1-.33.06-.15"/><path class="cls-3" d="M13.71,14.85s0,.07,0,.09-.19,0-.15-.13.2-.05.18.08"/><path class="cls-3" d="M14,16.09c-.06,0-.13-.07-.09-.19s.36.15.2.23"/><path class="cls-3" d="M15.42,16.78c-.07,0-.18-.17-.07-.24s.18.1.15.16"/><path class="cls-3" d="M16.09,15.94s0,0,0,.06A.29.29,0,0,1,16,16c0-.13.05-.23.15-.19"/><path class="cls-3" d="M16.75,15.62s0,0,0,.06-.12-.08-.05-.15a.13.13,0,0,1,.21.08"/><path class="cls-3" d="M22.29,21.3a.11.11,0,0,1-.09-.15c0-.1.23-.06.27,0"/><path class="cls-3" d="M25.77,24.13s-.07,0-.08-.07A.36.36,0,0,1,26,24"/><path class="cls-5" d="M19.46,16.11s0,0-.08,0c0-.2.33-.26.27-.06"/><path class="cls-3" d="M6.62,15.65c-.07,0-.17,0-.17.13l.12.05"/><path class="cls-3" d="M15.1,15.75c0,.12-.36.11-.26-.09s.35-.12.29.09"/><path class="cls-3" d="M12.81,15.57s.07,0,0,.09-.21,0-.18-.13.24-.07.32-.06"/><path class="cls-3" d="M13.32,14.81s0,.06-.05.08-.12,0-.14,0,.15-.17.22-.15a.09.09,0,0,1,0,.05"/><path class="cls-3" d="M24.31,21.35c0-.05,0,0,0,.06s-.2,0-.14-.22a.13.13,0,0,1,.14,0,.08.08,0,0,1,0,.05"/><path class="cls-3" d="M11.53,14.5c-.06,0-.2-.15-.09-.26s.15,0,.1.14"/><path class="cls-3" d="M11,14.93l-.11,0c0-.11,0-.29.13-.16"/><path class="cls-3" d="M10,15.4s0,0,0,0-.22-.16-.08-.29.32.05.15.11"/><path class="cls-3" d="M23,21.29a.27.27,0,0,1,0,.18.27.27,0,0,1-.13-.41c.11-.12.35.07.19.18"/><path class="cls-3" d="M7.6,15.33a.63.63,0,0,1,0,.09c-.1.1-.2-.09-.16-.22s.26-.12.22.08"/><path class="cls-3" d="M7.09,16.36c0-.05-.24-.12-.22-.29s.32-.13.24.05"/><path class="cls-3" d="M6.1,16C6,16,6,15.75,6,15.65s.25.14.21.29h0"/><path class="cls-3" d="M31.15,26.62c-.15.2-.23-.53,0-.24"/><path class="cls-3" d="M6.13,14c-.15,0-.13-.22,0-.21"/><path class="cls-3" d="M7.17,14.35s-.11,0-.14,0,0-.16,0-.18"/><path class="cls-3" d="M26.16,22.49c-.11.11-.35-.27,0-.22"/><path class="cls-3" d="M8.58,13.08c-.08,0-.2-.09-.07-.16"/><path class="cls-3" d="M7,15c-.08,0-.16,0-.15.16s.2-.11.09-.19"/><path class="cls-5" d="M19.71,18.65a.17.17,0,0,1-.05-.13c.06,0,.12,0,.1.09a0,0,0,0,1,0,0"/><path class="cls-5" d="M20.16,15.34c-.06,0-.17-.06-.11-.17s.24,0,.16.09"/><path class="cls-3" d="M8,16.12a.1.1,0,0,0-.09.17c.1.09.25-.12.11-.19"/><path class="cls-3" d="M9.43,15.8a.19.19,0,0,0-.17.12c.07.07.29.06.17-.09"/><path class="cls-3" d="M10.51,15.79a.15.15,0,0,0-.19.13.16.16,0,0,0,.15,0"/><path class="cls-3" d="M10.77,16.47s-.06,0-.09,0l.09,0"/><path class="cls-3" d="M9.24,14.64c-.58-.15.14.89.11-.06"/><path class="cls-3" d="M7.45,13.73H7.26c0,.32.33.24.4,0"/><path class="cls-3" d="M15.07,15.41c-.05.05-.09.06-.07.18a.33.33,0,0,0,.14,0,1.13,1.13,0,0,0,0-.18"/><path class="cls-3" d="M23.22,18.56s.05,0,.08,0c0,.25-.24.19-.21,0h0"/><path class="cls-3" d="M21.68,17.59c.22,0-.18.35-.09,0h.06"/><path class="cls-3" d="M21.76,19.29c.07-.07.2.1.07.16s-.19-.15-.11-.23"/><path class="cls-3" d="M18,16.32c.08,0,.18.17.07.25s-.18-.11-.15-.17"/><path class="cls-3" d="M17.27,17.15a.13.13,0,0,0,0-.06.29.29,0,0,1,.13,0c0,.13-.06.23-.15.19"/><path class="cls-3" d="M16.61,17.46a.13.13,0,0,1,0-.06c.1,0,.11.08,0,.15a.13.13,0,0,1-.21-.08"/><path class="cls-3" d="M15.47,17.89a.11.11,0,0,1,.09.16c0,.1-.23.05-.26,0"/><path class="cls-3" d="M14.51,18a.08.08,0,0,1,.09.06.37.37,0,0,1-.3.06"/><path class="cls-3" d="M13.91,16.92s0,0,.08,0c0,.2-.33.26-.27.06"/><path class="cls-3" d="M18.26,17.35c.06-.12.37-.1.26.1s-.35.11-.28-.1"/><path class="cls-3" d="M20.94,18.25c0,.06,0,0,0-.05s.2,0,.15.22a.17.17,0,0,1-.15-.05.05.05,0,0,1,0-.05"/><path class="cls-3" d="M21.81,18.66c.07,0,.21.16.09.26s-.15-.05-.1-.14"/><path class="cls-3" d="M22.36,18.24l.11,0c0,.11,0,.29-.13.16"/><path class="cls-3" d="M23.34,17.79s0,0,0,0,.22.16.08.29-.32-.06-.15-.11"/><path class="cls-3" d="M13.7,14.39a.14.14,0,0,1,.05.12c-.06,0-.12,0-.1-.09h0"/><path class="cls-3" d="M13.21,17.68s.16.07.09.17-.24,0-.15-.08"/><path class="cls-6" d="M23.94,17.4a.22.22,0,0,0,.17-.12c-.07-.07-.29-.06-.17.09"/><path class="cls-6" d="M22.86,17.39a.15.15,0,0,0,.19-.12.15.15,0,0,0-.16,0"/><path class="cls-6" d="M22.6,16.71s.07,0,.1-.05h-.09"/><path class="cls-6" d="M20.82,17.21c.58.16-.12-.89-.11.05"/><path class="cls-3" d="M18.29,17.7c.05-.06.09-.06.07-.18s-.08,0-.14,0a1.08,1.08,0,0,0,0,.19"/><path class="cls-1" d="M80.05,56.59c-.55,1.34-2.7,2.46-4.17,3.13-2,.91-3.7,2-5.79,2.81-4.11,1.66-8,3.63-12.43,3.93-3.78.26-7.61.1-11.41,0-7-.18-12.84-.13-18.87-4.1a33.89,33.89,0,0,1-3.25-2.56,65.45,65.45,0,0,1-5.86-6.22,64.25,64.25,0,0,1-4.56-6c-1.51-2.16-3.81-4.37-5-6.64C5.94,35.59,6.21,30.29,5.47,24.84c-.41-3-1-5.88-1.66-9-.45-2-.48-6.25,2.71-6.34,1.28,2,0,5,1.29,6.6.6-.68.49-8.84,3.28-6.12,1.67,1.63-.44,6.08.76,8.24,1.07-1.82.09-6.26,3.2-6.36,1,0-1.28,6.27-1.43,6.72A6.61,6.61,0,0,1,18.16,15c1.68,3.21-.88,5.11-2.82,7.33-2.32,2.65-1.36,6-.79,9,1.25,6.55,3.7,13.59,9,18.07A43.32,43.32,0,0,0,41,57.85c3.5.9,6.93.36,10.28-.18A95.31,95.31,0,0,0,62.41,55.6a78.89,78.89,0,0,0,12-5c4-1.91,8,5.61,3.41,6.36"/><path class="cls-2" d="M134.92,114.28a43.15,43.15,0,0,0-9.53-.45c-3.52.24-6.48-1.39-9.66-2.56a26.14,26.14,0,0,1-8.8-4.83c-9.51-8.65-11.49-21.63-15.45-33.12-1-3-2.45-7.36-1.75-10.54.84-3.82,2.8,2.56,4.48.31A4.93,4.93,0,0,0,94.75,60c-.15-3-.48-6.09-1.94-8.74-.78-1.43-1.8-3.22-3.59-3.39-.39,0-.81,0-1.21,0A2.51,2.51,0,0,1,87,47.68a3.46,3.46,0,0,0-1-.23,7.82,7.82,0,0,0-2.53.39c-2.64.76-6,3.39-7.92-.08-1.25,2.32-1.64,5.1-3,7.34a9,9,0,0,1-5.29,3.37c-.62.11-1.61.56-2.22.17s-.37-1.33-1-1.82c-.28-.25-1,3-1,3.23a12.44,12.44,0,0,0,.51,3.84c.5,1.62.89,3.29,1.35,4.93s.61,3.06.92,4.59c.36,1.81,1.46,3.49,2.07,5.24,1.26,3.64,2.25,7.33,3.85,10.89,1.52,3.36,3.17,6.54,4.57,10,2.65,6.5,4.89,12.91,9.28,18.42,2.15,2.7,4.68,4.7,7,7.25a27.33,27.33,0,0,0,6.28,5.63,68.51,68.51,0,0,0,9.06,4.36c1.89.77,3.52,1.42,5.39,2,2,.65,3.54.49,5.68.63,3.58.23,7.15.65,10.85,0a51,51,0,0,1,5.33-.6c2-.13,3.9.37,5.93-.06a19.19,19.19,0,0,0,1.2-5.38c.12-2.08.56-3.8.74-5.76.2-2.17.21-4.29.34-6.47.12-1.8,1.21-3.89.71-5.73-2.17,1.11-6.42.88-8.73.51Z"/><path class="cls-1" d="M119.68,39.91a43.93,43.93,0,0,0,8.24-8.34,46,46,0,0,0,3.32-4.68c.78-1.48.48-2.88,1.06-4.36.45-1.17,1.28-4,3.08-3.71,3,.46.62,3.24.16,4.57-1.32,3.78-2.41,6.84-4.81,10.18,2-2.15,9.46-9.39,12.18-7-1.27,4-10.75,7.19-10.11,11,5.63-.41,8.6-4.49,14.6-2-2.37,4-11.65,3.07-12.19,7.94,2.78.91,6.27.65,8.32,2.73-2,3.27-5.91,1.92-9,1.81a23.73,23.73,0,0,0-8.74,1.62C116,52.94,109.06,61.77,98,59.44c-1.45-.3-2.91-.52-4.37-.78-.78-.14-1.56-.28-2.33-.44L90.17,58c-.29-.08-.62-.09-.9-.18a2.64,2.64,0,0,1-.94-.56,5.49,5.49,0,0,1-1.37-3,5.4,5.4,0,0,1,.15-2.93,1.92,1.92,0,0,1,.79-1.15A3.33,3.33,0,0,1,89,49.82a18.64,18.64,0,0,1,2.59-.09c1.9,0,3.79.21,5.67.38a30.72,30.72,0,0,0,9.38-.2C111.6,48.8,115.69,43.07,119.68,39.91Z"/><path class="cls-1" d="M42.75,32c-.43.11-1.11-.41-1.31.18s.42.82.26,1.33-.64.66-.81,1.13a3.19,3.19,0,0,0,.39,2.64,18.9,18.9,0,0,0,1.58,2.81,28.36,28.36,0,0,0,4.24,5c.49.46,1,.9,1.53,1.31,1.7,1.34,3.51,2,5.36,3.13,2.57,1.61,4.38,3.64,7.16,4.86a8,8,0,0,1,3.27,3,47,47,0,0,1,2.47,4.74c2.79-.46,5.49-3.58,6.94-5.78a11.74,11.74,0,0,0,1.75-5.86c-.19-2.34-2.81-2.83-4.42-4.26-1.26-1.12-3-2.14-4.12-3.45-1.34-1.65-.3-2.5,0-4.51a12.46,12.46,0,0,0-.21-4.85c-.66-2.67-2.22-5-5-5.72a10.08,10.08,0,0,0-4.2-.16,11.62,11.62,0,0,1-2.35.45c-.83,0-1.65-.13-2.49-.16a2.68,2.68,0,0,1-2.3-.78c-.54-.59-1-1.31-1.49-1.91s-1.28-1.22-2-1.15-1.15,1.4-1.27,2c-.23,1.25.53,3.65-.72,4.53-.67.47-1.48-.2-2.13.1S43.35,31.89,42.75,32Z"/><path class="cls-7" d="M55.25,29.13s0,.06,0,.08c.08.4.91.23,1.2.2a5.92,5.92,0,0,0,.61,0,2.93,2.93,0,0,1,.72-.07,4.77,4.77,0,0,1,1.68.26,5.38,5.38,0,0,1,1.8,1.07,2.72,2.72,0,0,1,.93,1.51,2.48,2.48,0,0,1-.58,1.75,5.62,5.62,0,0,1-1.24,1.15,9.41,9.41,0,0,1-1.28.62c-.05-.24.32-.52.45-.68a3.76,3.76,0,0,0,.59-1,1.67,1.67,0,0,0,.09-1,5.41,5.41,0,0,0-.53-1.37,2.75,2.75,0,0,0-1.31-1.12,6.69,6.69,0,0,0-1.45-.36c-.39-.07-.81-.16-1.2-.26l-.47-.14c-.1,0-.32,0-.37-.1"/><path class="cls-7" d="M56.5,34.85c-.35.07-.74-.29-1-.52A1.92,1.92,0,0,1,55,33.15a2,2,0,0,1,.77-2.07A7.16,7.16,0,0,1,54.55,31a.84.84,0,0,0,.46.27,11.45,11.45,0,0,0-1,.89l.07.09c.15-.06.48-.13.59,0a3.13,3.13,0,0,0-.47.42,4.36,4.36,0,0,0-.33.6c.22.06.81-.08.58.28-.08.12-.24.19-.33.32a1.69,1.69,0,0,0-.28.7c.15,0,.38-.2.55-.26a1,1,0,0,1,.61,0,3.46,3.46,0,0,0-.09,1.43c.15-.13.52-.9.81-.71a1.91,1.91,0,0,0,.1,1.25A4.62,4.62,0,0,1,56.25,35a1.59,1.59,0,0,0,.8,1.29,14.75,14.75,0,0,1-.59-1.58"/><path class="cls-7" d="M68.58,29.7a4.7,4.7,0,0,0-.08-.94,7.5,7.5,0,0,0-1-2.37,6.69,6.69,0,0,0-1.11-1.51,14.9,14.9,0,0,0-1.88-1c-.75-.45-1.56-1.06-2.33-1.43-.07.37,0,.77-.1,1.14s-.26.68-.33,1c-.17.91,0,1.32-1,1.69s-3.74-.48-4.35,1c.72.14,1.44.12,2.15.3a8.86,8.86,0,0,0,2.19.34,4.12,4.12,0,0,1-1.63.28c.09,0,.37.31.52.36a1.78,1.78,0,0,0,.65,0,5.39,5.39,0,0,1,1.39,0,2.62,2.62,0,0,1,2.12,1.56c.53,1.94-1.64,4-2.89,5.13a10.26,10.26,0,0,0-1.34,1.11A2.5,2.5,0,0,0,61,36.05c-1,1.5-2.92,2.21-4.09,3.46a7,7,0,0,1,1.38-.25,6.87,6.87,0,0,1,1.57,0c-.44.78-1.58,1.06-1.87,2.05.84-.68,2-.46,3.06-.42.62,0,1.17.16,1.8.18s1.25.13,1.43.82a3.53,3.53,0,0,0,.85,1.73A5.69,5.69,0,0,0,68,45.07a8.07,8.07,0,0,0,4.25.08,14.48,14.48,0,0,0,3.64-1.39,32.31,32.31,0,0,0,3.74-2.26A32.72,32.72,0,0,0,82.49,39a19.45,19.45,0,0,1,2.63-2.24,6,6,0,0,1,3.59-1.41,6.32,6.32,0,0,0,2-.38,11.79,11.79,0,0,1,2.3,0A5.59,5.59,0,0,0,94.69,34a7.91,7.91,0,0,0,1.55-.82c.36.15.51.77.84,1s.74.72,1.2.6c.06-.33,0-.67.08-1,.48.43,1.51,2.36,2.13,2.23.16-.49-.3-.93-.49-1.35s-.41-.81-.59-1.21c.73.43,1.46,1.26,2.39,1.12.19-.58-.94-1.54-1.34-1.88.94.06,1.79.87,2.76.43-.33-.62-1.68-.56-2.19-1.12.06-.3.66-.41.91-.51a10.37,10.37,0,0,0,.91-.54c0-.51-2-.25-2.45-.34.29-.75,1.75-.65,2.07-1.38-.83-.15-1.73,0-2.57-.13.15-.64,1-.89,1.17-1.54a4.57,4.57,0,0,0-2.43,1.53c-.3.35-.59.76-.92,1.12s-1,.8-1,1.28a4.24,4.24,0,0,0-1.53-1.28,3.57,3.57,0,0,0-2.21.17c-.68.14-1.34.32-2,.51-1,.26-1.94.62-2.91,1a19.89,19.89,0,0,0-4,1.89c-.92.6-1.7,1.38-2.62,2s-1.91,1.38-2.93,2a31.1,31.1,0,0,1-3.44,2c-1,.42-2.33,1-3.38.62-.84-.28-1-1.15-1.13-2a16.15,16.15,0,0,0-.71-4,4.8,4.8,0,0,0-1.3-1.71c-.52-.52-.09-1,0-1.64A13,13,0,0,0,68.58,29.7Z"/><path class="cls-7" d="M42.8,30.64c0,.06-.06.07,0,0,.13-.27.73-.19.92,0a3.2,3.2,0,0,1,.53,1,11.61,11.61,0,0,0,1,2.23.87.87,0,0,0-.67-.25c-.36,0-.7.12-1.07.12a2.93,2.93,0,0,1-1.73-.51c-.33-.27-1-1-.27-1.21.52-.18,1,.21,1.61.15a3.26,3.26,0,0,1-.42-.78.84.84,0,0,1,.19-.92"/><path class="cls-7" d="M67.13,25.58c-.56.18-.71-4.86-.67-6a11.06,11.06,0,0,1,2-6.78,27.56,27.56,0,0,0,2-3.34,9.06,9.06,0,0,0,.67-1.5A1.33,1.33,0,0,0,71,7.06c-.12-.23-.39-.33-.41-.62,1.24-.11,2.42.5,3.58.69S76.59,6,77.74,5.64A15,15,0,0,1,75,5.41a7.44,7.44,0,0,1,.6-1.15,7.45,7.45,0,0,1,.56-1.21c-.6.57-1.42.77-2,1.28A6.22,6.22,0,0,1,75,1.77a17,17,0,0,0-2.55,1.57,5.89,5.89,0,0,0,0-2.58c-.46.16-1,1.4-1.26,1.76C71,1.83,70.73.41,70.08,0c-.58.47-.19,1.94-.35,2.59-.37-.45-.6-1.46-1.15-1.73s-.51.92-.48,1.35.16,1,.23,1.48,0,.87.11,1.28c.13.59.68.94.81,1.5a2.09,2.09,0,0,0-1.4,1.12c-1.47,2.68-3.42,5-4.73,7.84-1,2.25-1.12,6-.93,8.61.06.88.41,2.34,1.24,2.8.59.33,1.66-.21,2.28,0,.84.32,1.14,1,1.75,1.48"/><path class="cls-7" d="M48.11,33.54c-.24-.25-.41-.65-.8-.73A9.13,9.13,0,0,0,46,32.76a1,1,0,0,1-1-.71A3.42,3.42,0,0,1,44.78,31c-.06-.26-.17-.5-.24-.76-.13-.52.35-.71.79-.54a3.26,3.26,0,0,0,.53.26c.34.08.69,0,1,.11s.62.5.84.82C48.19,31.59,48.84,32.82,48.11,33.54Z"/><path class="cls-7" d="M43.64,28.52c.48-.24,1.28-.87,1.76-.32a2.23,2.23,0,0,1,.19,1.89c-.15.56-.53.88-1.1.66-.38-.15-.69-.45-1.06-.63a4.58,4.58,0,0,0-1-.26c-.6-.1-.5-.35-.07-.62S43.19,28.75,43.64,28.52Z"/><path class="cls-8" d="M55.15,33.75a1.86,1.86,0,0,1-.22-.61,2.73,2.73,0,0,1-.06-.49,1.68,1.68,0,0,1,.15-.73,3.06,3.06,0,0,1,.31-.56.81.81,0,0,0,.19-.34.25.25,0,0,1,0,.12l0,.11a1.43,1.43,0,0,1,0,.22,4.51,4.51,0,0,0,0,.52c0,.21.11.42.15.63l.09.48a4.94,4.94,0,0,0,.38,1.2,4,4,0,0,0,.31.52s.21.23.18.31-.13,0-.2,0a1.6,1.6,0,0,1-.23-.1,3.19,3.19,0,0,1-.42-.3,1.4,1.4,0,0,1-.32-.37A4.16,4.16,0,0,0,55.15,33.75Z"/><path class="cls-7" d="M55.31,33.84c-.34,0-.48-.49-.49-.79a.73.73,0,0,1,.63-.75.58.58,0,0,1,.67.25,1.94,1.94,0,0,1,.12.39.48.48,0,0,1,0,.18,1.13,1.13,0,0,1-.08.24.61.61,0,0,1-.17.19c-.07.05-.16.07-.22.11A.7.7,0,0,1,55.31,33.84Z"/><path class="cls-7" d="M64.12,56.93c.49,0,.95-.16,1.44-.18a4.06,4.06,0,0,1,2.82.87,8.29,8.29,0,0,1,1,1.3,4.63,4.63,0,0,0,1.52,1.4,5.38,5.38,0,0,0,1.42.41c.36.07.74,0,1.09.08-.29.48-1.26.58-1.75.66a9.54,9.54,0,0,1-5.06-.24,9.8,9.8,0,0,1-2-1.33,1.46,1.46,0,0,1-.65-.94c-.07-.37-.36-1.41-.1-1.73a2.18,2.18,0,0,1-1.38.69,2.74,2.74,0,0,1-3.13-3.84c.17,0,.23.14.37.22a3,3,0,0,0,.74.19,7.55,7.55,0,0,1,1.86.51c.75.39,1.89,1.35,1.79,2.31"/><path class="cls-7" d="M64.28,56.63c.21.47,1.35.43,1.79.45a17.35,17.35,0,0,0,2,0,11.26,11.26,0,0,0,2-.24,8.09,8.09,0,0,0,2.39-1.42c1.8-1.27,2.66-3.36,3.27-5.41a4.79,4.79,0,0,0,.3-2.06c-.07-.34-.64-.35-1-.43s-.82-.35-1.24-.48c-.14.51-.34,1-.53,1.5A22.1,22.1,0,0,1,72,51.09a8.34,8.34,0,0,1-4.47,3.69,8.6,8.6,0,0,1-3.37.85c-.54,0-.87,0-.7.66.11.42.62,1.3,1.15,1.19"/><path class="cls-1" d="M208.76,44.1c.83,1.47,1.41,3.06,2.33,4.48s1.54,2.77,2.45,4a64.33,64.33,0,0,1,4.26,6.74c2,3.58,6,9,4.57,13.26-1.33,4-7,8.7-10,11.37a196.88,196.88,0,0,1-23.28,18c-1.48,1-2.86,3.43-4.8,2.85a9.78,9.78,0,0,1-3-1.75c-1.75-1.63-2.81-4.25-1-6.1a56,56,0,0,1,7-5.38c1.4-1,2.9-1.88,4.26-3,3-2.38,6.24-4.25,9.06-6.82,1.18-1.08,2.47-2,3.65-3.11s2.15-2,3.24-2.93a47.87,47.87,0,0,1,5.24-4.34c.25-.16.85-.44.91-.73s-.51-1.31-.65-1.66a48.36,48.36,0,0,0-2-4.39c-1.32-2.49-2.74-5-4-7.48s-2.77-4.8-4-7.31a26.57,26.57,0,0,1-1.27-2.7c-.31-.94-.32-2-.67-2.91a10.66,10.66,0,0,0-2.54-4.34c-1.82-1.54-4.17-3.45-2.63-6.11a9.5,9.5,0,0,1,2.6-2.95,26.94,26.94,0,0,1,7-3.47c2.11-.71,4.28-1.55,6.45-2.08.91-.23,2.95-.93,3.82-.3s-.53,1.91-1.08,2.42c1,.4,2-.41,2.76.05.28,1.77-2.51,1.45-2.47,2.64.62.07,1.1.51,1.72.59.29,1.36-2.1,1.39-2.79,1.48a5.44,5.44,0,0,0-3.13,1.54c-2,1.8-3.65,4.88-3.29,7.67A7.75,7.75,0,0,0,208.76,44.1Z"/><path class="cls-7" d="M151.39,105.49c2.45-1.88,4.6-4.14,7.09-6S163.65,96,166.09,94c1.91-1.59,3.69-3.4,5.47-5.13.54-.52,1.73-2.12,2.38-2.28,1.3-.34,3.08,2.17,4,3,1.65,1.47,3.06,3.19,4.8,4.55a72.24,72.24,0,0,1,7.52,6.59c4.72,4.82,9.56,10.14,13.06,16a51.2,51.2,0,0,1,3.66,7.52c1.11,2.79,4.54,5,4.48,8.19a30.43,30.43,0,0,1-.63,3.88,74.61,74.61,0,0,1-1.24,7.76c-.87,3.22-2.92,5.66-4.24,8.67a15.52,15.52,0,0,1-4.38,5.73c-1.66-1.07-3.67-1.4-5.36-2.61a37.5,37.5,0,0,0-7.24-3.88,30.08,30.08,0,0,0-7.47-2.36c-4.27-.57-8.82-.18-13.15-.21a71.39,71.39,0,0,1-11.55-1.21l-9.38-1.5-.33,0A66.87,66.87,0,0,1,136,144.23a32.61,32.61,0,0,1-4.94-2.11c-.57-.31-1-.74-1.58-1.07a11.41,11.41,0,0,0-2.28-.87,13,13,0,0,1-2.52-1.16,9.87,9.87,0,0,0-3-.83c-.73-.12-2.38-.64-3-.14a2.52,2.52,0,0,0,1,.08c1-.07,1.76.31,2.67-.27a6.78,6.78,0,0,0,1.82-1.91,33.89,33.89,0,0,0,3.41-8.53c.8-2.8,1.9-5.44,2.29-8.33a9.47,9.47,0,0,0-.23-3.27,5,5,0,0,0-.64-2.19,4.38,4.38,0,0,0,1.65-.06c.66,0,1.27-.16,1.92-.22,1.21-.11,2.47-.16,3.7-.27a15.55,15.55,0,0,0,4.49-1.15c.87-.35,1.7-.74,2.56-1.11.31-.13.64-.21.94-.37s.37-.38.6-.63a9.55,9.55,0,0,1,2.12-1.55A39.19,39.19,0,0,0,151.39,105.49Z"/><path class="cls-7" d="M124,113.1c0,4.69-1.49,9.53-3.07,13.91a44.91,44.91,0,0,1-3.56,8.16,9.3,9.3,0,0,1-2.8,3c-.63-.69-1-.82-.31-1.61a22.1,22.1,0,0,0,1.76-2.32,25.63,25.63,0,0,0,4-7.92c.37-1.34.71-2.74,1.09-4.06a13,13,0,0,0,.4-3.84l0-3.4c0-.76.3-2.45-.15-3,.53-.21,1.24.49,1.68.68a5.41,5.41,0,0,0,1.48.63"/><path class="cls-7" d="M114.12,137.19c.06,0,.32-1.06.45-1.37.28-.72.9-1.08,1.31-1.71a3.46,3.46,0,0,0,.32-2.13c0-.68-.48-1.21-.5-1.83-.63,1.06-1.81,2.09-2.36,3.33-.73,1.64,0,2.72.6,4.17.52,1.29-.27,3-1.18,4-.58.62-2.7,2.36-3.66,2,.46-1.39.51-2.86,1.42-4a5.55,5.55,0,0,1,3.88-2.29,11.25,11.25,0,0,1,.47-1.67"/><path class="cls-7" d="M114.38,137.61a7.22,7.22,0,0,1,1.65,2.32c.32,1,0,2.11.23,3.16.44-.27,2-3.08,1.77-3.68-.15-.42-.3-.19-.62-.33a5.63,5.63,0,0,1-1.11-.89c-.42-.35-1-.56-1.41-.93a23.65,23.65,0,0,0,2.83-1.11c.54-.29,1.48-.75,1.75-1.32a8.18,8.18,0,0,1-1.45-.2c-.28-.1-.22-.36-.61-.23-.22.07-.4.57-.51.74a6.57,6.57,0,0,1-1.48,1.54,6.81,6.81,0,0,1-2.39.95"/><path class="cls-1" d="M195.66,136.19c3-.48,6,1.25,8.73,2,1.7.44,3.6.67,5.31.93s3.76.62,5.65,1c4.4.9,8.56,1.72,13,2.55a36.56,36.56,0,0,0,5.37.7c2.37.1,4.59,1.26,6.94,1.45,3.05.26,6.3-.26,9.36-.43a32.1,32.1,0,0,0,6-.78,16,16,0,0,0,2.77-.63,3.32,3.32,0,0,1,2.79.05c3.84,1.52,3.89,6.22,3.05,9.69-.93,3.84.27,7.43,1.73,11.06a42.39,42.39,0,0,1,1.87,4.79,6,6,0,0,1-1.23.51c-.42-1.13-1.79-2.31-2.62-3.17-.86,1,.07,3.18-.48,4.46-1.42-.14-1.81-3.16-2.44-4.26a.31.31,0,0,0-.35.15,16.23,16.23,0,0,1,.25,3.39c-1,.6-1.84-2.38-2.23-3.08-1.5.12,1.08,3.88-1.1,3.95a6,6,0,0,1-1.42-2.17,7.64,7.64,0,0,1,0-2.74,32.73,32.73,0,0,0,0-5.42c-.22-2-.32-3.82-2.06-5.28-3-2.5-5.89-3.14-9.62-3.43-1.44-.12-2.83-.06-4.2-.12a54.37,54.37,0,0,0-8.36.11,68.34,68.34,0,0,1-16.23.19c-2.49-.34-5.37-.62-8-.79-3-.18-5.79-.87-8.61-1.21a22,22,0,0,1-7.75-2.59c-1.06-.61-2.25-1-2.26-2.51,0-2.8,2.58-7.4,5.45-8.21A4.26,4.26,0,0,1,195.66,136.19Z"/></g></g></svg>