<svg xmlns="http://www.w3.org/2000/svg" viewBox="0 0 238.81 238.94"><defs><style>.cls-1{fill:#1d1d1b;}.cls-2{fill:#007293;}.cls-3{fill:#e63027;}.cls-4{fill:#fff;}.cls-5{fill:#e30613;}</style></defs><g id="Ebene_2" data-name="Ebene 2"><g id="Ebene_1-2" data-name="Ebene 1"><path class="cls-1" d="M102.24,43.63c-.87-2.38-3.38-5.69-6.36-4.91-1.65.43-3.71,3-3.14,4.71s2.93,1.78,2.88,4.17c-.08,3.81-5.58,3.92-4,7.75,1.4,3.42,3.65,4,3.63,8.27,0,2.49-.31,4.76,1.39,6.79,1.14,1.37,3,2.85,4.3.71,2.14,1.52,2.78,3.79,5.78,4.07,3.81.35,9-2.1,9.7-6.24.63-3.5-2.09-9.87-3.56-13.12-1.88-4.14-5.63-6.11-10.08-4.56C101.47,49.07,103.17,46.13,102.24,43.63Z"/><path class="cls-1" d="M10.07,107.68c.51.15,1.61-.71,2.13-1a15.38,15.38,0,0,1,2.88-.94c2.57-.54,5.19-1.2,7.78-1.68a35.59,35.59,0,0,1,6.11-.42,27.56,27.56,0,0,1,5.4.32c.45.08,1.47.31,1.68.83.33.83-.64,2-1.13,2.4a14.48,14.48,0,0,1-2.34,1.64,26.48,26.48,0,0,1-5.33,2.77,33.24,33.24,0,0,1-7,1.46,12,12,0,0,1-5.8-.73,14.92,14.92,0,0,1-3.16-1.77,2.72,2.72,0,0,1-1-1.91.47.47,0,0,1,.26-.39"/><path class="cls-2" d="M37.82,110.6c1.26.12,2.56.09,3.51,1.18s1.21,3.62,1.21,5.23c0,2.06-.48,4.23-1.95,5.56a7.37,7.37,0,0,1-2.76,1.49,11.46,11.46,0,0,1-1.77.1,55.9,55.9,0,0,1-1.34,8.24,5.71,5.71,0,0,1-1.37,3.41,7.74,7.74,0,0,1-3.68,1.52c-3.84.93-8,1.81-11.88.79-2.22-.58-5.07-1-5.7-3.76-.37-1.6-.57-3.2-.91-4.8-.27-1.28-.47-2.56-.64-3.84-.48-3.58-1.22-7.16-1.95-10.68-.41-2-1-3.75-1.41-5.68-.16-.7-.69-1.72-.45-2.42a9.75,9.75,0,0,1,1.95-2.85c2-2.17,4.74-2.67,7.29-3.41a25.41,25.41,0,0,1,5-.85c1.54-.12,3-.33,4.58-.33,3.44,0,6.43,1.14,9.64,2.33.63.23,1.92.29,2.39.81s0,1.93,0,2.63C37.59,105.65,38,110.61,37.82,110.6Zm.17,2.32c.26.36,0,1.15,0,1.59-.11.95-.23,1.88-.38,2.82a32.6,32.6,0,0,0-.27,3.63,8.06,8.06,0,0,0,2.79-5c.11-1.2-.69-4.3-2.23-3m-1.49-9.44a13.15,13.15,0,0,0-2-.52,28.45,28.45,0,0,0-3.35-.61,44.8,44.8,0,0,0-6.87-.86,26.71,26.71,0,0,0-12.8,2.86c-.87.47-3.95,2.17-1.74,3.35a10.42,10.42,0,0,0,3.09.79,36.14,36.14,0,0,0,4,.44,56.23,56.23,0,0,0,8.8-.12A25,25,0,0,0,34,106.5c1-.46,3.34-1.62,2.31-3.23"/><path class="cls-3" d="M21.4,91.49a3.35,3.35,0,0,0,1.17-1c.25-.39.09-.92.38-1.09.8-.45,1.46.66,1.15,1.43s-1.3,1-1.84,1.28c-.26.13-.63.23-.72.57-.17.62.21.36.47.52a.59.59,0,0,1,.24.77c-.19.29-.76.2-1,.27a1.05,1.05,0,0,0-.52,1.44c.4,1,2,1.3,1.51,2.7s-2-.2-2.63-.92a7.6,7.6,0,0,1-1.18-1.65,3.61,3.61,0,0,1,.46-3.14C19.55,91.71,20.47,91.89,21.4,91.49Z"/><path class="cls-3" d="M25.82,103.31c-.24,1-1.5,1.92-1.08,3.08.2.57.82,1.13.16,1.68-.48.39-3.66.4-3.39-.43a.74.74,0,0,0,.73-1c-.26-.53-1-.66-1.45-1a5.43,5.43,0,0,1-1.16-1.47,3.36,3.36,0,0,1,.58-3.73c.66-.87,2.44-1.46,2.86-2.45.71-1.67-2.49-2.25-1.67-3.36.5-.68,2.84,1.29,3.11,2,.76,2-.73,2.73-1.54,4-.47.74-1,4.13.74,2.77a1.58,1.58,0,0,0,.35-1.68c-.15-.27-.53-.34-.64-.64s.54-1.43.93-1.63c.67-.34,1.1.66,1.28,1.21A5.27,5.27,0,0,1,25.82,103.31Z"/><path class="cls-3" d="M26.31,97.16c.58.25,1.48-1.5,1.73-1.94a4.3,4.3,0,0,0,.57-1.52c.05-.33.13-.94-.13-1.2-.72-.75-.53,1.53-1.1,1.19-.14-.08-.18-.88-.23-1.07-.13-.45-.17-.7-.53-1s-.46-.32-.66,0a2,2,0,0,0-.21.85c0,.77.38,1.14.61,1.79a2.26,2.26,0,0,1-.17,1.8,1.24,1.24,0,0,0-.16.76c.09.52.48.36.72,0"/><path class="cls-2" d="M122,94.86a5.9,5.9,0,0,1-4.12-2.27c-1-1.49-1.14-3.38-1.93-5a8,8,0,0,1-.9-3,8.74,8.74,0,0,1,.56-3.83,15.75,15.75,0,0,1,.68-1.72c.2-.37.87-.88,1-1.19.25-1-1.29-2.78-1.39-3.88a15.37,15.37,0,0,1,.31-4.51,18.74,18.74,0,0,1,4.29-8.15A15.46,15.46,0,0,1,139.26,58c1.54.76,2.43,2.06,3.61,3.27a11.49,11.49,0,0,1,2.87,3.63c2.18,5.29,3,13.23,3.65,18.89.38,3.22-1.53,6.85-4.09,8.8-2.36,1.8-5.46,1.88-8.28,2.51a18,18,0,0,1-7.56.17,15.15,15.15,0,0,0-3.75-.53A12.61,12.61,0,0,1,122,94.86Z"/><path class="cls-2" d="M183.43,16.69c-1.38,1.42-1.15,4.21-1.68,6.07-.87,3-1.93,6.08-2.81,9.14-2.19,7.67-3.07,15.77-5.19,23.45C171.08,65,170.21,75.46,167.19,85c-1.51,0-2.53,1.62-3.92,2.14-2,.73-3.07-.19-5-.69.8-6.92,2.76-13.92,4.14-20.77,1.65-8.14,3.17-16.28,5.8-24.07,2.2-6.55,3.18-13.42,5-20.17.76-2.76,1-7.54,3.89-7.8,1.86-.16,7.28,1.43,7.63,3.28"/><path class="cls-1" d="M140.53,73.8c.61-2-4.18-5.35-5.83-6.29-2-1.11-6.44.94-6.61,3.41a6.46,6.46,0,0,1,1.6.19,8.2,8.2,0,0,0,1.44-.13,23.64,23.64,0,0,1,3.4.27c1.82.2,4.87,1.4,6.07,2.79-.07-.15-.14-.32-.22-.47"/><path class="cls-1" d="M121.79,71c-1-.91-3.65-6.75-5.21-3.4a4.9,4.9,0,0,0-.34,1.88c.36.49,1,0,1.58,0a4.77,4.77,0,0,1,3.27,1.6l-.32-.07"/><path class="cls-4" d="M132.57,78a4.8,4.8,0,0,0,2-1,6.05,6.05,0,0,0,1-.83,1,1,0,0,0,.19-1.13,3.92,3.92,0,0,0-.45-1.1,2.47,2.47,0,0,0-2.18-.89,3.78,3.78,0,0,0-2.15.6,4.56,4.56,0,0,0-1.34.94c-.21.29,0,.42.14.71a6.79,6.79,0,0,0,.37,1.24A2.94,2.94,0,0,0,132.57,78Z"/><path class="cls-4" d="M117.41,73.5c-.24.76-.34,1.89.65,2.17a2.31,2.31,0,0,0,2.3-1c.19-.3.37-.49.33-.86a4.59,4.59,0,0,0-.16-.9,1.76,1.76,0,0,0-1.12-1.26C118.28,71.4,117.7,72.58,117.41,73.5Z"/><path class="cls-1" d="M132.61,77.6a1.39,1.39,0,0,1-1.73-1.29.89.89,0,0,1,.38-1,1.7,1.7,0,0,1,1.48-.2,1.83,1.83,0,0,1,.67.76A1.17,1.17,0,0,1,132.61,77.6Z"/><path class="cls-1" d="M120,74.8c-.56.66-1.44.88-1.92,0a2.12,2.12,0,0,1-.25-1.21c0-.4.25-1,.66-1.19a1.57,1.57,0,0,1,1.69.55A1.37,1.37,0,0,1,120,74.8Z"/><path class="cls-5" d="M124.5,76.66c1.93.3,2.34,1.77,1.73,3.56-.8,2.35-4,2.38-5.86,1.26-2.19-1.34-1.39-3.88.87-4.76,1.6-.62,5.42-.37,4.44,2.16"/><path class="cls-2" d="M119,81a1.06,1.06,0,0,0,0-.19"/><path class="cls-2" d="M142.38,94.21c.32.82.58,2.52.88,3.77a27,27,0,0,0,2.26,5.35,18.22,18.22,0,0,0,1.27,2.89c1.46,2,4.12-1.14,5-2.48,2-3,3.12-7.12,4.4-10.5a58.55,58.55,0,0,0,2.42-7.2,6.66,6.66,0,0,0,4.41.2c1.4-.53,2.62-1.7,4-2.23.74,1.78-.15,4.84-.53,6.7-.5,2.49-1,5-1.51,7.48a46.67,46.67,0,0,1-3.77,11c-1.58,3.28-2.46,5.93-2,9.83.44,4.14.38,8.2.83,12.24.41,3.74,1.61,7.3,1.72,11.1,0,1.54.44,3.25.36,4.77-.07,1.2-.77,1.55-1.71,2.23-1.82,1.32-4,1.88-6,3-2.62,1.47-5.28,2.83-7.94,4.23s-5.43,2.72-8.12,4.1a7.67,7.67,0,0,0-2.83,2.14c-.63-.57-.75-2-1-2.88-.34-1.14-.6-2.35-1-3.46-.89-2.69-1.73-5.36-2.69-8-.52-1.45-1.32-2.87-1.74-4.35a33.24,33.24,0,0,1-.41-3.31,8.72,8.72,0,0,0-.65-2.2,14.88,14.88,0,0,0-2-3.63c-.48,1.49-.39,3.09-1,4.54-.91.06-2.3-1.74-2.79-2.39a24.8,24.8,0,0,1-5-12.63,9.56,9.56,0,0,1,1.36-5.66c.45-.88,1.12-1.83,1.68-2.7a5.82,5.82,0,0,1,3.17-2.69,45.58,45.58,0,0,1,4.74-1.18,17.12,17.12,0,0,0,6.15-2.89c1.2-.92,2.92-1.75,3.92-2.85,2.16-2.39.83-6.87,0-9.62-.14-.5-.4-1-.54-1.44-.3-1-.58-.85.42-1.06s3.41.21,3.81-.43"/><path class="cls-5" d="M212.45,211.12c-3.88,5-24.5-6.55-29.51-9-7.68-3.78-12.16-4.61-20.88-4.81-16-.36-32,0-47.95-.11-5,0-8.09,3.23-12.58,4.7-3.25,1.07-6.67,1.58-9.9,2.31-6.43,1.44-12.42,2.35-18.69,4.26s-11.38,5.43-17,8.5c-2.17,1.19-5.1,3-7.13.75-1.43-1.6-.14-6.33-1.3-8.46,2.64-.48,7.32-1.22,5.39-4.69-1.45-2.6-5.42-1.71-7.86-1.66-.91,0-1.22.07-1.42-.89a2.73,2.73,0,0,1,.13-1.87c.41-.69,1.37-1.09,2-1.6s1.33-1.29,2.11-1.81c1.25-.83,2.55-1.55,3.84-2.38a37.5,37.5,0,0,1,5.44-2.45,54.49,54.49,0,0,1,6-2.12c12.21-3.63,23-10.85,34.85-15.84a170.76,170.76,0,0,1,18.67-6.06c2.27-.65,6.7-1.49,7.88-3.89.73-1.5.57-4.05.61-5.71a58.4,58.4,0,0,0-.26-6.21,38,38,0,0,0-1.27-6.26c-.56-2.13-.74-4.31-1.35-6.42-.33-1.15-.81-2.2-1.17-3.34a3.08,3.08,0,0,1,0-2.47,21.57,21.57,0,0,0,1.7-5.2,44.13,44.13,0,0,0-.09-7.44c-.06-1.36-.3-2.72-.34-4.08,0-.9-.33-2.51.3-3.24a5.68,5.68,0,0,1,2.36-1.35c.63-.23,2-1.4,2.58-1,.33.2.5,1.23.62,1.57a18.25,18.25,0,0,0,1.18,2.49c.65,1.18,1.31,2.34,1.87,3.57.27.57.29,1.37.89,1.59a5.4,5.4,0,0,0,1.2,0,19.89,19.89,0,0,0,2.31-.08c1.05-.11,2.14-.22,3.19-.39,1.87-.32,4-.56,5.39-1.91a5.24,5.24,0,0,0,1.66-3.16c.23-1.11.46-2.22.68-3.34.42-2.06.41-4.18.88-6.15.43-1.79,3.61-1.34,4.82-2.46a1.94,1.94,0,0,1,0,.2c.4.45-.06,3-.09,3.68-.05,1.61-.14,3.23-.32,4.83a42,42,0,0,0-.22,11c.45,3,2.8,5.13,6,4,2.29-.81,2-3.33,2.08-5.17a7.06,7.06,0,0,1,1.74,3,14.61,14.61,0,0,1,.77,2.19c.23,1.09.33,2.23.54,3.33,2,10.36.41,21.13,5.42,30.83,2.19,4.24,5.52,12.68,9.65,15.14,5.48,3.27,14.8,3.32,20.76,6,11.8,5.4,22.53,14.23,34.26,20.1,3.18,1.59,7,1.53,5.74,5.17-.66,1.95-6.3,5.77-8.25,7.09a15.06,15.06,0,0,1-7.61,2.88c-3.65.44-8.46,1.68-11.85,1.76"/><path class="cls-2" d="M211.68,217.14c-3.66.93-7.24,2-10.92,3l-2.54.64a6.06,6.06,0,0,1-1.84.15c-1.44-.05-2.74,1-4,1.57a14.4,14.4,0,0,1-4.24,1,13.89,13.89,0,0,0-2.6.29c-1.6.48-1.06,2.87-1,4.08a6.48,6.48,0,0,0,.83,2.82c.32.63.67,1.26,1,1.88a6.6,6.6,0,0,1,1,2.2c.08.69-.35.62-.91.67a12.8,12.8,0,0,0-1.85.33c-1,.24-2,.58-3,.87-1.15.35-2,.92-3.22.82a2.19,2.19,0,0,1-2.08-1.31,8,8,0,0,1-.06-2.45,12.72,12.72,0,0,1,1-4.37c.46-1.14,1.14-2.15,1.62-3.27a9.11,9.11,0,0,1,2.33-2.71c1-1,2.17-2,2.51-3.39.2-.81.63-.87,1.39-1.27l2.32-1.23c6.12-3.29,12.12-6.79,17.9-10.63,3.67-2.44,4.88-.43,8.52,1a26.36,26.36,0,0,1,5.6,3.22,10.19,10.19,0,0,1,2.72,2.51c.82,1.46-2.82,2.39-3.71,2.54C216.17,216.57,213.88,216.59,211.68,217.14Z"/><path class="cls-1" d="M143.51,133.13c.33-.37-.69-1.82-.51-2.4s1.15-.74,1.45-1.27a2.36,2.36,0,0,0,.34-2c-.28-.75-.84-.93-1.48-1.26a1,1,0,0,0,.1,1.07c.22.42.39.52,0,1-.52.75-1.56.63-2.37.41a1.59,1.59,0,0,1,.51-1.45c.46-.48.4-.47.39-1.12a2.51,2.51,0,0,0-2.78,2.32c-.14,1.54,1.14,1.79,2.38,2.16a16.11,16.11,0,0,0,.22,2.49c.17.56.06.31.65.25a3.55,3.55,0,0,0,1.15-.17.57.57,0,0,0-.29-.08"/><path class="cls-1" d="M150.81,130.57c-.38,0-.75-.89-1-1.19s-.51-.68-1-.77c-.86,1.3-1,3-1.48,4.52a2.3,2.3,0,0,0-1.29.17c.28-1.09.79-2.08,1.1-3.18s.52-2.13.84-3.16c.07.06.15.05.22.17,0-.25.2-.59.46-.57,0,.14.06.28,0,.43a1.22,1.22,0,0,1,.47-.33,2.44,2.44,0,0,1-.07.46,1,1,0,0,1,.58-.25,1.72,1.72,0,0,1-.28.49.64.64,0,0,1,.45,0,.75.75,0,0,1-.14.49c.84.46,1.26,1.87,2.23,2.12-.22.07-.54-.1-.79.11s-.17.53-.42.68a.22.22,0,0,1,0-.16"/><path class="cls-4" d="M147.94,130.63c-.14.53-.26,1.06-.39,1.59a.92.92,0,0,0-.83-.44l-.21.05c.19-.48.38-1,.53-1.47A.89.89,0,0,1,147.94,130.63Z"/><path class="cls-4" d="M150.13,129.88a2.06,2.06,0,0,0,.78-.74,2.07,2.07,0,0,0,1,.79c-.22.07-.54-.1-.79.11s-.17.53-.42.68a.22.22,0,0,1,0-.16h.09C150.57,130.55,150.34,130.21,150.13,129.88Z"/><path class="cls-4" d="M148.7,126.93c0,.14,0-.09,0,0a1.18,1.18,0,0,1,.48-.33,4.2,4.2,0,0,1-.08.47,1.15,1.15,0,0,1,.58-.27,1.46,1.46,0,0,1-.28.5.65.65,0,0,1,.45,0,.73.73,0,0,1-.14.49,1.29,1.29,0,0,1,.3.22,1.61,1.61,0,0,1-.61.88,3.78,3.78,0,0,0-.33-.22c0-.25.18-.42.2-.74.06-.72-.06-.86-.55-1C148.77,126.89,148.59,126.92,148.7,126.93Z"/><path class="cls-4" d="M148,127c.07.06-.15.11-.08.23,0-.07,0,0,0-.11a3.79,3.79,0,0,1,.62.64,2.84,2.84,0,0,1,.25.9s.07,0,0,0a3.91,3.91,0,0,0-.26.44,1.14,1.14,0,0,0-.86-.38h-.18C147.64,128.09,147.79,127.51,148,127Z"/><path class="cls-4" d="M132.85,134.28c-.68-1.41-1.59-2.86-2.16-4.38-.19-.52-.32-1.06-.52-1.58s-.65-.39-1.11-.24-.31.08-.28.38a6,6,0,0,0,.27.85c.16.62.38,1.21.58,1.82.29.85.73,1.65,1,2.51a3.65,3.65,0,0,0,.38,1.08c.22.32.29.22.65.11s.9-.05,1.07-.24"/><path class="cls-1" d="M137.49,135.91c-.3-.4-.15-1.48-.21-2a15.55,15.55,0,0,1-.09-1.79,3.3,3.3,0,0,0,1.91-2.49c0-1.25-1.65-1.29-2.39-.63s-.26,1.68-.23,2.51a19.26,19.26,0,0,1,0,2.73c-.63-.86-1.05-1.92-1.63-2.83a11.41,11.41,0,0,0-.95-1.58c-.41-.45-1-.14-1.49.09a2.17,2.17,0,0,0-.36,3.06,3,3,0,0,0,1.58.58,6.87,6.87,0,0,1,1.5,0c.44.15.65.87.76,1.28a7.55,7.55,0,0,0,.23,1.29,3,3,0,0,1,1-.06m-2.81-3.6c.28.38-.67.43-.88.35a1.81,1.81,0,0,1-.9-1c-.43-.94.23-1.34,1-1.66a6,6,0,0,1,.44,1c.18.39.55.87.4,1.32m2.83-1.19a2.76,2.76,0,0,1-.12-1.42.88.88,0,0,1,1.12-.51c.87.33-.43,2.05-1.07,1.92"/><path class="cls-1" d="M149.43,133s-3.44,0-5.67.29c-5.46.66-11,.8-16.45,1.88-.71,2.06,1.1,5.93,1.8,8s1.38,6.43,2.67,8c2.11,2.63,14.86-.13,18.09-2.1C149.49,145.38,149.43,133,149.43,133Z"/><path class="cls-1" d="M130.56,136.57c-.24-1.21-.35-2.41-.6-3.62-.2-1-.5-2-.68-3a.79.79,0,0,0-.37.07,5.64,5.64,0,0,1,0,1.64c-.05.85-.06,1.7-.09,2.56,0,.63.07,1.23,0,1.86s-.13,1-.18,1.57a2.25,2.25,0,0,1,.9-.45,9.61,9.61,0,0,1,1-.46"/><path class="cls-2" d="M129.41,130.22a2.25,2.25,0,0,0,.53-2.17c-.29-.58-1.25-1.31-1-2-.1.84-.67,1.57-.66,2.44,0,.69.23,1.74.87,2.07,0-.09.09-.15.1-.25a.17.17,0,0,1,.06.05"/><path class="cls-4" d="M185,225a8.44,8.44,0,0,0,1.95-.78c1.29-.5,2.6-.85,3.94-1.23,1.88-.52,3.73-1.11,5.61-1.62a8.9,8.9,0,0,1,2.56-.45,6.35,6.35,0,0,1,1.26.24c.43.09.85,0,1.25.15,1-1.36-.32-2.95-1-4.09a17.32,17.32,0,0,0-3.88-4.35c-.76-.65-1.6-1.56-2.66-1a8.85,8.85,0,0,0-1.13.89c-.32.22-.73.38-1.07.58.16.65.18,1-.53,1.24a2.49,2.49,0,0,0-.87.33c-.26.24-.16.54-.33.81-.28.46-1.24.49-1.7.81a1.79,1.79,0,0,1-1.74.41,2.55,2.55,0,0,1-2,1.44,10.06,10.06,0,0,0-2.5,1.24c-.9.53-1.62,1.29-2.53,1.82a16.52,16.52,0,0,1-2.09,1.28c1.07.37,2.2.55,3.31.83s1.81,1.16,2.8,1.58a.34.34,0,0,1-.14.3"/><path class="cls-5" d="M182.23,219.52a9.74,9.74,0,0,1,2.46-1.22,2.55,2.55,0,0,0,2-1.44,1.79,1.79,0,0,0,1.74-.41c.45-.32,1.37-.36,1.67-.78a30.87,30.87,0,0,1,5.58,5.9c-1.58.45-3.15.93-4.75,1.37-1.07.3-2.12.61-3.16,1C185.8,222.59,184.13,220.9,182.23,219.52Z"/><path class="cls-1" d="M144.79,58.87A10.1,10.1,0,0,0,145,54.7a11.42,11.42,0,0,0-1.64-4.58,15.9,15.9,0,0,0-8-5.76,9.85,9.85,0,0,0-12.42,5.35,18.19,18.19,0,0,0-2,5.46c-.11.8-.26,1.61-.31,2.41,0,.32-.26,1.09-.12,1.36a18.87,18.87,0,0,1,2.08-.58c2.09-.5,4.5-.11,6.65,0a78.67,78.67,0,0,1,10.9,1.49c1.91.33,3.8.76,5.7,1.14a11.48,11.48,0,0,0,2.17.32c-.14-.11-.21,0-.3,0"/><path class="cls-5" d="M144.92,65.49a6.29,6.29,0,0,1,1.05.85,4,4,0,0,1,.85,2.3A10.27,10.27,0,0,0,148,67.33a3.45,3.45,0,0,0,.79-2.67,34,34,0,0,0-.26-4.16,7.07,7.07,0,0,0-.62-2.21c-.18-.3-.5-.42-.75-.63s-.62-.64-.94-.95A18.13,18.13,0,0,0,144,55,19.72,19.72,0,0,0,137.7,52c-4.42-1.23-9.43-1.76-13.87-.53a11.52,11.52,0,0,0-8.11,6.28,15.09,15.09,0,0,0-1,3.36,7.37,7.37,0,0,0,0,3.73A5.76,5.76,0,0,0,116,67.38c.47.47.54.25.77-.26a5.22,5.22,0,0,1,.72-1.14c.48-.54,1-1.1,1.46-1.65a20.15,20.15,0,0,1,2-1.94,8.85,8.85,0,0,1,3-1.51c3.77-1.35,7.92-.63,11.78.19A28.91,28.91,0,0,1,141.09,63a8.74,8.74,0,0,1,2.72,1.68A11.45,11.45,0,0,0,144.92,65.49Z"/><path class="cls-2" d="M29.47,215.46c3.32-.44,6.64-.91,9.93-1.52a66.81,66.81,0,0,1,7.23-1.29c1.3-.1,2.6-.35,3.91-.38a26.57,26.57,0,0,0,4.1-.19,2.27,2.27,0,0,0,1.74-2.36,11.12,11.12,0,0,0-1.21-6.31c-.27-.48-.66-.91-1-1.37a7.17,7.17,0,0,0-.82-1.19c-.39-.35-.46-.17-1,0a36.59,36.59,0,0,1-3.63,1c-2.46.62-4.92.86-7.41,1.33-1,.18-2,.1-2.94.24-2.93.45-6,.56-9,.83-3.15.28-6.3.59-9.45.86-6.73.59-6.75,6-9.61,11.22C16.52,218,23.09,216.29,29.47,215.46Z"/><path class="cls-2" d="M119.4,131.22c-5,.32-10.73,2.76-14.94,5.32-3.58,2.17-7.51,3.75-11.15,5.79C90.37,144,86.25,145,83,143.79c-2.56-.91-4.69-2.65-7.18-3.65-2.67-1.07-5.19-2.44-7.86-3.53a63.71,63.71,0,0,1-9.77-5.06c-3.55-2.23-6.87-4.33-10.22-6.89a50.33,50.33,0,0,0-6.72-4.92c-1.7-.9-3.63-.75-5.25-1.55-2.76-1.37-5.27-7.87-1-9,2-.55,3,1.76,4.4,2.27,2.12.78,4.12.36,6.2.45,7.31.32,6.94,7.19,12.08,10.63,3.86,2.6,9.25,4.18,13.63,5.75,4.2,1.51,8.48,3.34,12.59,4.75,2.59.9,3.57.36,6.12-.54a86.3,86.3,0,0,0,11-4.26c4.21-2.2,7.36-5.86,11.5-8.27,3.17-1.86,6.38-4,9.93-5-.38,0-.33.27-.53.44"/><path class="cls-2" d="M191.52,11.1c-2-.88-4.15,2.15-6.08,2.45.37-2.1,5.24-9.5,2.32-11.4-1.34,1.35-3.79,7.06-5.85,6.22C181.16,5.84,181,1.93,179,0c-3,1.45.48,7.12-2.42,8.62-2.48,1.29-6-1.42-8.46-1.59-1.51,2.77,1.25,4.27,2.77,6,2,2.23,2.08,4.8,2.08,7.71a46.73,46.73,0,0,1-1.28,10.11,12.55,12.55,0,0,0,3,0c.17,0,2.66-6.16,3.17-6.84a20.13,20.13,0,0,1,4.55-4.28C185.2,17.68,191.59,15.12,191.52,11.1Z"/><path class="cls-5" d="M18.92,205.33c.07.27,3.08-.14,3.65-.23,1.21-.22,2.14-1.31,3.35-1.38s1.87,1.11,2.95.38,1.59-2.35,3.25-2.71,1.31,1.59,2.39,1.85c.21,0,1-.36,1.31-.38.71-.05.87,0,1.17.62a29.92,29.92,0,0,1,1.2,3.49,26.16,26.16,0,0,1,1.74,5.42c.24,1.67.2,3.36-1.23,4.45-1.84,1.39-1.47-1.21-2.47-2-1.24.75-1.93,3-3.76,2-1-.6-1.54-1.2-2.81-.55-1,.49-1.67,1.37-2.75,1.75-1.8.65-3.55-.57-5.34-.1-1.09.29-2.24,1-3.41,1-1,0-1.13-.64-1.88-1.05a7.15,7.15,0,0,1,.41-2.79,28.89,28.89,0,0,0,.51-3.83,26.16,26.16,0,0,1,.42-3.39,7.58,7.58,0,0,1,.71-2.85"/><path class="cls-4" d="M37.55,216.75c-1.49-.69-2.16-4.54-2.54-6.1a20.25,20.25,0,0,1-.47-3.47,10.8,10.8,0,0,1,0-3.26,1.31,1.31,0,0,1,2.27-.5c.78.81,1,2.52,1.29,3.52.35,1.3.63,2.61,1,3.89s1.15,2.73,1.08,4.08-2,2.37-2.93,1.26"/><path class="cls-4" d="M30.59,202.38a7.36,7.36,0,0,0,.37,4.1,25.82,25.82,0,0,1,1.33,5.38c.15,1.08.52,3.2-.21,4.23-.39.55-.79,0-1.38.09s-1,.59-1.65.48a33.92,33.92,0,0,1,0-3.91c.08-1.31.3-2.61.26-3.92a21.76,21.76,0,0,1-.15-3.87c.15-1.06,1.31-1.56,1.33-2.61"/><path class="cls-4" d="M26,204c-.11,1-.06,2.56-.09,3.76s-.51,2.59-.67,3.91a25.61,25.61,0,0,0-.26,4.09c0,.51.12,1,.16,1.52a5.9,5.9,0,0,1,.16,1.28,7.34,7.34,0,0,1-2.15-.52,4.93,4.93,0,0,1-1-.45c-.32-.37-.07-.69,0-1.18.22-1.82.69-3.76.73-5.59a23.34,23.34,0,0,0-.17-2.51c-.06-.59-.45-1.67-.21-2.25s1.07-1,1.49-1.27,1.28-1,2-.79"/><path class="cls-5" d="M122.19,87.92c-.71-.07-1.09-.6-1.61-1a.88.88,0,0,0-.79-.22c-.44,0-.88,0-1.33,0s-.27.46-.12.71.39.6.77.62a2.61,2.61,0,0,1,1.08.13,2,2,0,0,1,.63.44,2.46,2.46,0,0,0,1.43.85,16.55,16.55,0,0,0,1.72.11,3,3,0,0,0,1.49,0,2,2,0,0,0,.61-.57c-.12,0-.28-.28-.36-.38a3.28,3.28,0,0,0-.43-.4,2.14,2.14,0,0,0-1.54-.61A4.78,4.78,0,0,1,122.19,87.92Z"/><path class="cls-5" d="M121.83,92.55c-1.72-.15-3.48-1.16-3.62-3a8.08,8.08,0,0,1,.18-1.2c0-.23-.11-.83.14-1a3,3,0,0,0,.34,1,2.06,2.06,0,0,0,.43.86,3.32,3.32,0,0,0,.74.33,9,9,0,0,0,1.75.66,7.22,7.22,0,0,0,1.66.29,1.53,1.53,0,0,0,1.33-.42c.15-.17.24-.37.39-.55a4.83,4.83,0,0,1,.73-.83c.25.14.23.49.17.72a10.89,10.89,0,0,1-.49,1.39,2.31,2.31,0,0,1-.94,1A4.67,4.67,0,0,1,121.83,92.55Z"/><path class="cls-5" d="M134.7,82.24c1.71-1.17,5.05,2.48,1.91,4.37-3.63,2.18-5-3.69-2.25-4.14"/><path class="cls-5" d="M115.86,84.24c-1-.2-1-1.29-.81-2a8.51,8.51,0,0,1,.43-1.41c.1-.23.1-.47.19-.69a2.18,2.18,0,0,1,.49-.65c.19-.2.37-.19.58,0s.18.59.16.93a6,6,0,0,1-.39,2.11A14.8,14.8,0,0,0,115.86,84.24Z"/><path class="cls-1" d="M143.35,63.84c-.85.4.21,4.44-1.51,2-.31-.43-.81-2-1.52-1.66s-.15,1.69-1.13,1.56c-.23-.67-.8-2.64-1.65-2.37s-1,2.1-1.66.88c-.61-1.06-.33-2.17-1.58-1.11-.16.14-1.07,1.13-1.3,1.13-.49,0-.69-1.13-.87-1.49-.71-1.38-1,0-1.56.62-1,1.1-.89-1-1.74-1.36-1.14-.55-2,1.8-2.67,2.44-1.16,1.06-1.38,0-1.88-1-.88.33-.83,1.91-1.72,2.27-.69.29-.86-.64-1.48-.9-.55,1.47-1.83.65-2.89,1.23.88-.84,1.52-1.94,2.4-2.8a17.83,17.83,0,0,1,2.66-2.41,12.73,12.73,0,0,1,3.57-1.25,20.68,20.68,0,0,1,6.93-.55,25.62,25.62,0,0,1,7.71,1.77A5,5,0,0,1,143.84,63c1,1.38,1.29,3.06,2.72,4.19A5.64,5.64,0,0,1,143.93,66"/><path class="cls-1" d="M187.82,222.67a24.1,24.1,0,0,1-4.11-2.74,9.87,9.87,0,0,0-1.13-.92,4.27,4.27,0,0,1-1.6-1.14c-.23-.33-.44-.67-.66-1s-.76-1.07-1.2-.47a7.17,7.17,0,0,0-1,4.44c0,.95-.07,1.85-.15,2.78a11.22,11.22,0,0,1-1,3.49,36.65,36.65,0,0,0-1.68,5c-.34,1.39-.55,3.35.3,4.62a3.24,3.24,0,0,0,1.56,1.24c2.65,1.13,5.74.73,8.49.23a31.4,31.4,0,0,1,5.49-.36,11.45,11.45,0,0,0,2.48-.22,4.49,4.49,0,0,1,1.32-.14c.64,0,1.19.11,1.85.11a12.61,12.61,0,0,1,2.12.23,49.79,49.79,0,0,0,5,1c1.06.08,2.16.37,3.1-.22a4,4,0,0,0,1.48-2.61,3.18,3.18,0,0,0-.31-2.44,2.71,2.71,0,0,0-1.34-.95,7.42,7.42,0,0,0-3.21-.54c-1.09.08-2.14.38-3.23.5a14.25,14.25,0,0,1-4.42-.18c-1.47-.31-2.93-.47-4.38-.84s-3.07-.55-3.87-1.8c-1.23-1.95.07-4,1.66-5.26.34-.26,1.13-.92,1.57-.85-.2-.15-.67-.09-.93-.15A9.56,9.56,0,0,1,187.82,222.67Z"/><path class="cls-1" d="M17,218.57c-.45.31-1.41-.31-1.92-.37a10.13,10.13,0,0,0-2.91.08,41.85,41.85,0,0,0-5.12,1.05,28.58,28.58,0,0,1-3,.92c-1.14.21-2.81-.87-3.41-1.76C-1,216.08,1.1,212.34,2,210a19.68,19.68,0,0,0,1-4.54,30.37,30.37,0,0,0,.61-5.93c-.2-4-.71-7.88-.71-11.86A20.25,20.25,0,0,1,3.22,184c.14-.71.42-1.7,1.29-1.78,2.53-.23,3.18,3.32,3.65,5,.78,2.71,1.71,5.35,2.62,8,.86,2.51,1.14,5.5,3,7.55a4.11,4.11,0,0,0,2.11,1.48,25.53,25.53,0,0,1,3,.5,14.9,14.9,0,0,0-1,2.76c-.33,1.38-.71,2.72-.95,4.11a26.07,26.07,0,0,0-.33,4.5c0,.75-.35,2.59.2,3.18"/><path class="cls-1" d="M151.88,58h0"/><path class="cls-1" d="M147,66.6c.53-.94.42-2.85.75-4.08.55-2,1.42-2.81,2.89-4.21,2.22-2.1,5.59-3.87,5.69-7.35.09-3-3.1-6.08-.48-9.05,1.11-1.26,2.9-.76,3.91-1.65s1.27-2.92,1.83-4.14c4.24-.78.41,6.33,2.07,9,.93,1.48,2.72,1.68,3.38,3.62s-.77,3.55.45,5.23c.86,1.18,3.05,1.62,4.19,2.88a10.87,10.87,0,0,1,2.43,4.85c1,4.12-.51,8.3-5.45,8.7-.2,2.9-.6,6.58-4.84,5.56-1.34-.33-2.37-1.81-3.56-2.06-1.51-.32-1.54.35-3,.72-2.83.73-6,1.14-8.55-.91-1.4-1.14-5-3.16-4-4.85"/></g></g></svg>