<svg xmlns="http://www.w3.org/2000/svg" xmlns:xlink="http://www.w3.org/1999/xlink" viewBox="0 0 139.85 298.8"><defs><style>.cls-1{fill:none;}.cls-11,.cls-12,.cls-2,.cls-8,.cls-9{fill:#fff;}.cls-10,.cls-13,.cls-14,.cls-3{fill:#007293;}.cls-4{fill:#1d1d1b;}.cls-5{fill:#e30613;}.cls-6{fill:#ededed;}.cls-7{fill:url(#Neues_Musterfeld_1);}.cls-11,.cls-12,.cls-8,.cls-9{stroke:#fff;}.cls-10,.cls-11,.cls-12,.cls-13,.cls-14,.cls-8,.cls-9{stroke-miterlimit:10;}.cls-8{stroke-width:0.31px;}.cls-9{stroke-width:0.31px;}.cls-10,.cls-13,.cls-14{stroke:#007293;}.cls-10{stroke-width:1.17px;}.cls-11,.cls-13{stroke-width:0.28px;}.cls-12,.cls-14{stroke-width:0.28px;}.cls-15{fill:#e63027;}</style><pattern id="Neues_Musterfeld_1" data-name="Neues Musterfeld 1" width="255.33" height="255.33" patternTransform="translate(-28.55 387.59) scale(0.11)" patternUnits="userSpaceOnUse" viewBox="0 0 255.33 255.33"><rect class="cls-1" width="255.33" height="255.33"/><path class="cls-2" d="M255.33,0H0V255.33H255.33ZM10.48,24.67a2.32,2.32,0,1,1-2.31-2.32A2.32,2.32,0,0,1,10.48,24.67Zm0,29.5a2.32,2.32,0,1,1-2.31-2.32A2.32,2.32,0,0,1,10.48,54.17Zm0,29.5a2.32,2.32,0,1,1-2.31-2.32A2.32,2.32,0,0,1,10.48,83.67Zm0,29.5a2.32,2.32,0,1,1-2.31-2.32A2.32,2.32,0,0,1,10.48,113.17Zm0,29.5a2.32,2.32,0,1,1-2.31-2.32A2.32,2.32,0,0,1,10.48,142.67Zm0,29.5a2.32,2.32,0,1,1-2.31-2.32A2.32,2.32,0,0,1,10.48,172.17Zm0,29.5a2.32,2.32,0,1,1-2.31-2.32A2.32,2.32,0,0,1,10.48,201.67Zm0,29.5a2.32,2.32,0,1,1-2.31-2.32A2.32,2.32,0,0,1,10.48,231.17ZM28,6.67a2.32,2.32,0,1,1-2.31-2.32A2.32,2.32,0,0,1,28,6.67Zm19.5,18a2.32,2.32,0,1,1-2.31-2.32A2.32,2.32,0,0,1,47.48,24.67Zm0,29.5a2.32,2.32,0,1,1-2.31-2.32A2.32,2.32,0,0,1,47.48,54.17Zm0,29.5a2.32,2.32,0,1,1-2.31-2.32A2.32,2.32,0,0,1,47.48,83.67Zm0,29.5a2.32,2.32,0,1,1-2.31-2.32A2.32,2.32,0,0,1,47.48,113.17Zm0,29.5a2.32,2.32,0,1,1-2.31-2.32A2.32,2.32,0,0,1,47.48,142.67Zm0,29.5a2.32,2.32,0,1,1-2.31-2.32A2.32,2.32,0,0,1,47.48,172.17Zm0,29.5a2.32,2.32,0,1,1-2.31-2.32A2.32,2.32,0,0,1,47.48,201.67Zm0,29.5a2.32,2.32,0,1,1-2.31-2.32A2.32,2.32,0,0,1,47.48,231.17ZM65,6.67a2.32,2.32,0,1,1-2.31-2.32A2.32,2.32,0,0,1,65,6.67Zm19.5,18a2.32,2.32,0,1,1-2.31-2.32A2.32,2.32,0,0,1,84.48,24.67Zm0,29.5a2.32,2.32,0,1,1-2.31-2.32A2.32,2.32,0,0,1,84.48,54.17Zm0,29.5a2.32,2.32,0,1,1-2.31-2.32A2.32,2.32,0,0,1,84.48,83.67Zm0,29.5a2.32,2.32,0,1,1-2.31-2.32A2.32,2.32,0,0,1,84.48,113.17Zm0,29.5a2.32,2.32,0,1,1-2.31-2.32A2.32,2.32,0,0,1,84.48,142.67Zm0,29.5a2.32,2.32,0,1,1-2.31-2.32A2.32,2.32,0,0,1,84.48,172.17Zm0,29.5a2.32,2.32,0,1,1-2.31-2.32A2.32,2.32,0,0,1,84.48,201.67Zm0,29.5a2.32,2.32,0,1,1-2.31-2.32A2.32,2.32,0,0,1,84.48,231.17ZM102,6.67a2.32,2.32,0,1,1-2.31-2.32A2.32,2.32,0,0,1,102,6.67Zm19.5,18a2.32,2.32,0,1,1-2.31-2.32A2.32,2.32,0,0,1,121.48,24.67Zm0,29.5a2.32,2.32,0,1,1-2.31-2.32A2.32,2.32,0,0,1,121.48,54.17Zm0,29.5a2.32,2.32,0,1,1-2.31-2.32A2.32,2.32,0,0,1,121.48,83.67Zm0,29.5a2.32,2.32,0,1,1-2.31-2.32A2.32,2.32,0,0,1,121.48,113.17Zm0,29.5a2.32,2.32,0,1,1-2.31-2.32A2.32,2.32,0,0,1,121.48,142.67Zm0,29.5a2.32,2.32,0,1,1-2.31-2.32A2.32,2.32,0,0,1,121.48,172.17Zm0,29.5a2.32,2.32,0,1,1-2.31-2.32A2.32,2.32,0,0,1,121.48,201.67Zm0,29.5a2.32,2.32,0,1,1-2.31-2.32A2.32,2.32,0,0,1,121.48,231.17ZM139,6.67a2.32,2.32,0,1,1-2.31-2.32A2.32,2.32,0,0,1,139,6.67Zm19.5,18a2.32,2.32,0,1,1-2.31-2.32A2.32,2.32,0,0,1,158.48,24.67Zm0,29.5a2.32,2.32,0,1,1-2.31-2.32A2.32,2.32,0,0,1,158.48,54.17Zm0,29.5a2.32,2.32,0,1,1-2.31-2.32A2.32,2.32,0,0,1,158.48,83.67Zm0,29.5a2.32,2.32,0,1,1-2.31-2.32A2.32,2.32,0,0,1,158.48,113.17Zm0,29.5a2.32,2.32,0,1,1-2.31-2.32A2.32,2.32,0,0,1,158.48,142.67Zm0,29.5a2.32,2.32,0,1,1-2.31-2.32A2.32,2.32,0,0,1,158.48,172.17Zm0,29.5a2.32,2.32,0,1,1-2.31-2.32A2.32,2.32,0,0,1,158.48,201.67Zm0,29.5a2.32,2.32,0,1,1-2.31-2.32A2.32,2.32,0,0,1,158.48,231.17ZM176,6.67a2.32,2.32,0,1,1-2.31-2.32A2.32,2.32,0,0,1,176,6.67Zm19.5,18a2.32,2.32,0,1,1-2.31-2.32A2.32,2.32,0,0,1,195.48,24.67Zm0,29.5a2.32,2.32,0,1,1-2.31-2.32A2.32,2.32,0,0,1,195.48,54.17Zm0,29.5a2.32,2.32,0,1,1-2.31-2.32A2.32,2.32,0,0,1,195.48,83.67Zm0,29.5a2.32,2.32,0,1,1-2.31-2.32A2.32,2.32,0,0,1,195.48,113.17Zm0,29.5a2.32,2.32,0,1,1-2.31-2.32A2.32,2.32,0,0,1,195.48,142.67Zm0,29.5a2.32,2.32,0,1,1-2.31-2.32A2.32,2.32,0,0,1,195.48,172.17Zm0,29.5a2.32,2.32,0,1,1-2.31-2.32A2.32,2.32,0,0,1,195.48,201.67Zm0,29.5a2.32,2.32,0,1,1-2.31-2.32A2.32,2.32,0,0,1,195.48,231.17ZM213,6.67a2.32,2.32,0,1,1-2.31-2.32A2.32,2.32,0,0,1,213,6.67Zm19.5,18a2.32,2.32,0,1,1-2.31-2.32A2.32,2.32,0,0,1,232.48,24.67Zm0,29.5a2.32,2.32,0,1,1-2.31-2.32A2.32,2.32,0,0,1,232.48,54.17Zm0,29.5a2.32,2.32,0,1,1-2.31-2.32A2.32,2.32,0,0,1,232.48,83.67Zm0,29.5a2.32,2.32,0,1,1-2.31-2.32A2.32,2.32,0,0,1,232.48,113.17Zm0,29.5a2.32,2.32,0,1,1-2.31-2.32A2.32,2.32,0,0,1,232.48,142.67Zm0,29.5a2.32,2.32,0,1,1-2.31-2.32A2.32,2.32,0,0,1,232.48,172.17Zm0,29.5a2.32,2.32,0,1,1-2.31-2.32A2.32,2.32,0,0,1,232.48,201.67Zm0,29.5a2.32,2.32,0,1,1-2.31-2.32A2.32,2.32,0,0,1,232.48,231.17ZM250,6.67a2.32,2.32,0,1,1-2.31-2.32A2.32,2.32,0,0,1,250,6.67Zm-222,30a2.32,2.32,0,1,1-2.31-2.31A2.31,2.31,0,0,1,28,36.71Zm37,0a2.32,2.32,0,1,1-2.31-2.31A2.31,2.31,0,0,1,65,36.71Zm37,0a2.32,2.32,0,1,1-2.31-2.31A2.31,2.31,0,0,1,102,36.71Zm37,0a2.32,2.32,0,1,1-2.31-2.31A2.31,2.31,0,0,1,139,36.71Zm37,0a2.32,2.32,0,1,1-2.31-2.31A2.31,2.31,0,0,1,176,36.71Zm37,0a2.32,2.32,0,1,1-2.31-2.31A2.31,2.31,0,0,1,213,36.71Zm37,0a2.32,2.32,0,1,1-2.31-2.31A2.31,2.31,0,0,1,250,36.71ZM28,66.76a2.32,2.32,0,1,1-2.31-2.31A2.31,2.31,0,0,1,28,66.76Zm37,0a2.32,2.32,0,1,1-2.31-2.31A2.31,2.31,0,0,1,65,66.76Zm37,0a2.32,2.32,0,1,1-2.31-2.31A2.31,2.31,0,0,1,102,66.76Zm37,0a2.32,2.32,0,1,1-2.31-2.31A2.31,2.31,0,0,1,139,66.76Zm37,0a2.32,2.32,0,1,1-2.31-2.31A2.31,2.31,0,0,1,176,66.76Zm37,0a2.32,2.32,0,1,1-2.31-2.31A2.31,2.31,0,0,1,213,66.76Zm37,0a2.32,2.32,0,1,1-2.31-2.31A2.31,2.31,0,0,1,250,66.76ZM28,96.81a2.32,2.32,0,1,1-2.31-2.31A2.32,2.32,0,0,1,28,96.81Zm37,0a2.32,2.32,0,1,1-2.31-2.31A2.32,2.32,0,0,1,65,96.81Zm37,0a2.32,2.32,0,1,1-2.31-2.31A2.32,2.32,0,0,1,102,96.81Zm37,0a2.32,2.32,0,1,1-2.31-2.31A2.32,2.32,0,0,1,139,96.81Zm37,0a2.32,2.32,0,1,1-2.31-2.31A2.32,2.32,0,0,1,176,96.81Zm37,0a2.32,2.32,0,1,1-2.31-2.31A2.32,2.32,0,0,1,213,96.81Zm37,0a2.32,2.32,0,1,1-2.31-2.31A2.32,2.32,0,0,1,250,96.81ZM28,126.86a2.32,2.32,0,1,1-2.31-2.32A2.32,2.32,0,0,1,28,126.86Zm37,0a2.32,2.32,0,1,1-2.31-2.32A2.32,2.32,0,0,1,65,126.86Zm37,0a2.32,2.32,0,1,1-2.31-2.32A2.32,2.32,0,0,1,102,126.86Zm37,0a2.32,2.32,0,1,1-2.31-2.32A2.32,2.32,0,0,1,139,126.86Zm37,0a2.32,2.32,0,1,1-2.31-2.32A2.32,2.32,0,0,1,176,126.86Zm37,0a2.32,2.32,0,1,1-2.31-2.32A2.32,2.32,0,0,1,213,126.86Zm37,0a2.32,2.32,0,1,1-2.31-2.32A2.32,2.32,0,0,1,250,126.86Zm-222,30a2.32,2.32,0,1,1-2.31-2.31A2.31,2.31,0,0,1,28,156.9Zm37,0a2.32,2.32,0,1,1-2.31-2.31A2.31,2.31,0,0,1,65,156.9Zm37,0a2.32,2.32,0,1,1-2.31-2.31A2.31,2.31,0,0,1,102,156.9Zm37,0a2.32,2.32,0,1,1-2.31-2.31A2.31,2.31,0,0,1,139,156.9Zm37,0a2.32,2.32,0,1,1-2.31-2.31A2.31,2.31,0,0,1,176,156.9Zm37,0a2.32,2.32,0,1,1-2.31-2.31A2.31,2.31,0,0,1,213,156.9Zm37,0a2.32,2.32,0,1,1-2.31-2.31A2.31,2.31,0,0,1,250,156.9ZM28,187a2.32,2.32,0,1,1-2.31-2.31A2.31,2.31,0,0,1,28,187Zm37,0a2.32,2.32,0,1,1-2.31-2.31A2.31,2.31,0,0,1,65,187Zm37,0a2.32,2.32,0,1,1-2.31-2.31A2.31,2.31,0,0,1,102,187Zm37,0a2.32,2.32,0,1,1-2.31-2.31A2.31,2.31,0,0,1,139,187Zm37,0a2.32,2.32,0,1,1-2.31-2.31A2.31,2.31,0,0,1,176,187Zm37,0a2.32,2.32,0,1,1-2.31-2.31A2.31,2.31,0,0,1,213,187Zm37,0a2.32,2.32,0,1,1-2.31-2.31A2.31,2.31,0,0,1,250,187ZM28,217a2.32,2.32,0,1,1-2.31-2.31A2.32,2.32,0,0,1,28,217Zm37,0a2.32,2.32,0,1,1-2.31-2.31A2.32,2.32,0,0,1,65,217Zm37,0a2.32,2.32,0,1,1-2.31-2.31A2.32,2.32,0,0,1,102,217Zm37,0a2.32,2.32,0,1,1-2.31-2.31A2.32,2.32,0,0,1,139,217Zm37,0a2.32,2.32,0,1,1-2.31-2.31A2.32,2.32,0,0,1,176,217Zm37,0a2.32,2.32,0,1,1-2.31-2.31A2.32,2.32,0,0,1,213,217Zm37,0a2.32,2.32,0,1,1-2.31-2.31A2.32,2.32,0,0,1,250,217ZM28,247a2.32,2.32,0,1,1-2.31-2.31A2.32,2.32,0,0,1,28,247Zm37,0a2.32,2.32,0,1,1-2.31-2.31A2.32,2.32,0,0,1,65,247Zm37,0a2.32,2.32,0,1,1-2.31-2.31A2.32,2.32,0,0,1,102,247Zm37,0a2.32,2.32,0,1,1-2.31-2.31A2.32,2.32,0,0,1,139,247Zm37,0a2.32,2.32,0,1,1-2.31-2.31A2.32,2.32,0,0,1,176,247Zm37,0a2.32,2.32,0,1,1-2.31-2.31A2.32,2.32,0,0,1,213,247Zm37,0a2.32,2.32,0,1,1-2.31-2.31A2.32,2.32,0,0,1,250,247Z"/></pattern></defs><g id="Ebene_2" data-name="Ebene 2"><g id="Ebene_1-2" data-name="Ebene 1"><path class="cls-3" d="M93.13,107.21a71.18,71.18,0,0,1-.08-8.52c0-5.92-.77-11.81.08-17.71.74-5,3.58-10.51.32-15.33-1.63-2.41-3.37-3.31-6.23-4.52-1.63-.67-3.36-1.11-5-1.69-1.33-.46-2.56-1.35-3.94-1.69A39,39,0,0,1,78.17,51c0-.41-2.39-13.84-2.58-14.19-.47-.88-8.41,6.66-11.19,5.09-1.4-.81-4.5-3-6.28-2.44a2.61,2.61,0,0,0-.08.64c-.28,0-.43.09-.44.32.84.91.9,2.32,1.26,3.42a16.67,16.67,0,0,1,1.21,4.43c.1,2.54.19,5.13-2.82,6.13a34.84,34.84,0,0,1-6.14,1.3c.25,1.12.44,2.21.57,3.23.6,4.56.71,10.31-2.5,14.16a33.3,33.3,0,0,0-.86,6.11c-.31,2.44-1.12,4.91-1.12,7.65V102.1c0,1.48,0,2.94,0,4.41,0-.06-.11-.13-.16-.19a13.44,13.44,0,0,1,.06,3.23h0a3.2,3.2,0,0,1,.1-.85c0,2.57,0,5.14,0,7.71-.07,3.19-.81,6.39-.81,9.57,0,1.24,0,2.48,0,3.72s-.64,2.45-.33,3.69c1.76.34,3.41.5,5.19.73s3.1.95,4.82,1a37.24,37.24,0,0,0,5.88-.76,51.93,51.93,0,0,1,6.54-.6c8.43,0,16.41,3,24.89,2,1.42-2.51,1-6.39,1.3-9.23a67.82,67.82,0,0,0,.38-9.79C94.93,113.5,93.53,110.4,93.13,107.21Z"/><path class="cls-4" d="M57.47,54.17a6.09,6.09,0,0,1,1.14,2.34,10.58,10.58,0,0,1,.5,4c0,1.38,0,2.76.06,4.14,0,.94.31,1.73.39,2.65a8.84,8.84,0,0,1-1.42,6.16,11.61,11.61,0,0,1-4.64,3.27,8.59,8.59,0,0,1-1.82.71,20,20,0,0,1-2.34.17,7.06,7.06,0,0,1-2.27.14c-.71-.15-1.45-.65-2,0a8.78,8.78,0,0,0-.78,2.42c-.31,1-.43,2.17-.64,3.23a32.34,32.34,0,0,0-.41,6.39c0,4,0,7.93,0,11.89,0,5.66.62,11.36.73,17,0,1.84.19,3.67.19,5.52,0,.51-.3,2,0,2.35s.85.13,1.22.2a8.9,8.9,0,0,0,1,.3c1.09.11,1.64-.67,2.53-1s2.34-.06,3.39,0c2.19.17,4.33.39,6.5.72s4.2.63,6.3.79c2.33.18,4.75,0,7.08,0,2.7,0,5.35-.14,8-.34,1.87-.14,3.83.24,5.68,0,2.25-.28,4.58-.59,6.88-.69a41.79,41.79,0,0,1,4.17-.32,11.38,11.38,0,0,1-.48-4.2c0-1.71.18-3.34.18-5,0-3.29-.85-6.28-1.29-9.43-.11-.81-.11-1.69-.18-2.48s-.16-1.48-.18-2.22a48.88,48.88,0,0,0-.23-5,47.14,47.14,0,0,1-.13-5.71c0-2.16.36-4.21.36-6.37a13,13,0,0,0-.18-3.19c-.14-.54-.67-.76-1.1-1.17a12.51,12.51,0,0,1-1.42-1.68A10.43,10.43,0,0,1,90,73.28c0-1.27-.18-2.48-.18-3.78a26,26,0,0,0-.18-3.76,16,16,0,0,0-.41-3.32,1.21,1.21,0,0,0-.87-.87c-.48-.19-1.22,0-1.66-.27a4.5,4.5,0,0,0-.17,1.95,15.55,15.55,0,0,1-.33,2.17c-.2,1.53-.28,3-.45,4.5-.43,3.77-3.56,5.37-7.28,5.77a7.17,7.17,0,0,1-2.22,0,5.37,5.37,0,0,1-1.58-.33c-.56-.3-1-.7-1.55-1a10.12,10.12,0,0,1-4-3.35A27.8,27.8,0,0,1,66,65.61c-.69-1.56-.89-3.17-1.46-4.74-.48-1.3-1.1-2.66-1.56-3.88a16.19,16.19,0,0,0-1.19-3.15c-.42-.67-1.67-2.07-2.71-1.69a9.07,9.07,0,0,0-2.7,2.16,1.72,1.72,0,0,1,2,.53"/><path class="cls-2" d="M46,145.39c.48,5,0,20.2,3.61,16.75s11.64,1.06,16.06,5.52c1,1,1.41,3,2.46,3.56.83.5,3.2-.05,4.17-.05,2.83,0,6.12,1.25,8.77.6a14.31,14.31,0,0,1,5.44-8.9c3.36-2.63,4.74-1.78,8.19-.91.52-5,.09-10.38.09-15.41s-1.28-9.33-.67-14c-1.93,0-3.79-.83-5.84-.83H83c-4.86,0-23.34,3-25,3.27-1.44.22-11.11-3.19-12-4.23C46,130.81,45.77,143.29,46,145.39Z"/><path class="cls-5" d="M55.51,134.55c-1.22-.34-2.72-.82-4.17-1.34,0,1.49-.15,3-.2,4.47-.13,3.92-.34,7.83-.51,11.75s-.3,8-.25,12a6.84,6.84,0,0,1,5.28-.16C55.38,152.41,56.2,143.45,55.51,134.55Z"/><path class="cls-5" d="M65.12,133.88l-4.13.63c0,2.43-.18,4.85-.24,7.27-.09,4.12.1,8.26.4,12.37.25,3.52.62,7,1,10.55a28.63,28.63,0,0,1,3.44,2.91c.94.94,1.38,2.8,2.35,3.49C66.39,158.77,66.64,146.23,65.12,133.88Z"/><path class="cls-5" d="M79.57,150.38a50,50,0,0,1-1.88-11.22c0-2.34,0-4.68,0-7-2.14.24-4.6.57-7.06.91.15,3.73.1,7.45.25,11.18A80.37,80.37,0,0,0,73.16,159a107.22,107.22,0,0,0,3.76,12.69,10.88,10.88,0,0,0,4.1,0,12.83,12.83,0,0,1,2.85-6.31C82.44,160.4,80.85,155.43,79.57,150.38Z"/><path class="cls-5" d="M88.25,131.73h0c-1.74,0-3.49,0-5.24,0h-.1c2.59,10,2.9,20.45,4.09,30.72a5.64,5.64,0,0,1,4.22-1.32C90.91,151.25,90.36,141.4,88.25,131.73Z"/><path class="cls-3" d="M57.35,68.12c-2.77,4.95-10.72,7-15.3,10.56-5.09,3.93-27.33,16.51-31,20.43.27,2.11,3.15,4.39,4.52,5.8,3.33,3.42,6.83,6.66,10.18,10.07a51.58,51.58,0,0,1,4,4.38c.58.74.9,1.81,1.53,2.47.93,1,2.85.59,4.07.57a3.87,3.87,0,0,0,2.69-.88c1.05-.79,2.27-1.19,3.31-2s1.86-1.62,2.88-2.33c.8-.56,1.72-.93,2.54-1.46,2.06-1.34,3.69-3.18,6.22-2.74s2.51,4.17,3.14,6.06a9.79,9.79,0,0,1,.79,3.65c0,1.72.32,3-1.13,4.12a48.12,48.12,0,0,1-12.64,6.67,24.48,24.48,0,0,1-6.68,1.91c-1.51.15-3,0-4.51.15-.88.06-1.23.35-2-.28a21.43,21.43,0,0,1-2.24-2.23c-4.31-4.67-7.88-9.79-12-14.64Q11.24,113.13,6.6,108a62.58,62.58,0,0,0-6-6.32c-2.2-1.82,1.94-9.26,3.78-10.7,1-.74,4.07-3,7.94-5.83,6.52-4.74,15.19-11,19.23-14,2.86-2.09,10.33-21,18.24-16.12C49.82,55.07,60.69,62.16,57.35,68.12Z"/><path class="cls-3" d="M92.36,64.48c-3,3.49-5,11.58-4.24,16.51.32,2,2.52,1.21,3,3.26.79,3,1,6.17,1.84,9.25,1.24,4.85,2.69,10.24,4,15.18a83.52,83.52,0,0,1,1.9,10c.2,1.39,3,14.22,3,14.22s-16,8.89-17.94,9.69c-2.45,1-6.74-2.15-9.39-2.64-3.46-.64-5.48-1.19-8.21.73-1.17.82-3.36,5.24-3.36,5.24l20.76,4.88,7.36-1.84,14.24-6.14s8-5,7.75-8.39c-.27-3.85-12.91-48.06-14.24-53.51C97.67,75.72,92.25,62.77,92.36,64.48Z"/><path class="cls-3" d="M26.1,62.37c.1-.28.41-.45.66-.6a6.81,6.81,0,0,1,1.9-.81,3.15,3.15,0,0,1,2.69.47,5.31,5.31,0,0,1,1.4,5.87,3.71,3.71,0,0,1-2.43,2.44,5.07,5.07,0,0,1-1.86-.12,7.2,7.2,0,0,1-1.86-.43,11.25,11.25,0,0,1-1.78-1,2.43,2.43,0,0,1-.82-2,4.68,4.68,0,0,1,.08-1.35,9.13,9.13,0,0,1,.64-1.67,5,5,0,0,1,1.57-1.75,9.69,9.69,0,0,1,1.57-.88A3.73,3.73,0,0,1,29.08,60"/><path class="cls-4" d="M38.3,19c1.44.82,2.46-3.93,3-5.19a15.13,15.13,0,0,1,3.45-5c2.91-2.95,6.17-6.28,10.52-6.92a18.33,18.33,0,0,1,7.06.88c1.86.6,4.17,2.94,5.95,3.17,2.19.29,2-1.66,4.07-2.88A22.58,22.58,0,0,1,82.92,0c11.08.42,20.26,7,26.82,15.07,3.7,4.54,4.91,9.75,6.3,15,1.68,6.38,3.12,15.85,7.66,21.21,3.35,4,11.15,6.56,16.15,8.62-4.21-.13-7.22.1-11.1-1.61a33.17,33.17,0,0,1-11.81-9.38c-4.63-5.51-9.2-11.66-14.42-16.82C98.38,28,94.74,24.63,89.2,23c-6.26-1.81-10.63-3.78-15.13-8.43-.48,2,1.5,4.22,2.06,6.11a36.9,36.9,0,0,1,1.11,7.5c.23,2.41.94,4.62,1.25,6.91.38,2.77-1.15,4.29-3.17,6.13.92-7.07-4.7-15.36-10.5-19.51C61.31,19.22,58.47,18.9,54,18.4s-8.64,1-13.09.53c-1.41-3.61,3.63-3,4.3-4.53"/><path class="cls-6" d="M36.49,26.24c-.71-.32,0-1.21.25-1.66.39-.66.32-1.51.92-2-.26-.47-1-.48-1.41-.68s-1.13-.52-1.71-.77a12.7,12.7,0,0,0-5-1.07c-2.41.06-6,.47-7.54,2.58a25.22,25.22,0,0,0,7.15,2.22c1.36.26,2.83.35,4.16.68s2.67.14,2.29,1.62-.91,3-1.33,4.53S33.38,35,33,36.64s-.72,3.44-1.23,5.17c-.57,2-1.19,3.9-1.78,5.86-.44,1.48-1.17,2.81-1.69,4.25S27.42,54.66,27,56C26.34,58,25.62,60,25.11,62a24.88,24.88,0,0,0-.91,3.2c.37-1.28,2.45-2.22,3.77-2.21,1.75,0,3.12,1,3.16,2.67a4.54,4.54,0,0,1-1.83,3.62c-1.11.84-3.73,0-3.67-1.37a4.51,4.51,0,0,0,3.2,2.54c1.32.36,2.24-.45,3.33-1.14,1.59-1,3.22-2,4.93-2.86a44.31,44.31,0,0,0,5-2.86c1.83-1.28,3.92-2.18,5.81-3.41a56.07,56.07,0,0,1,11.3-5.86,100.93,100.93,0,0,0,11.51-5.46,24.64,24.64,0,0,0,3.41-1.91c.78-.59.44-1.19.52-2,.21-2.05,1.06-4,1.36-6a22.21,22.21,0,0,0-.48-6.7,17.2,17.2,0,0,0-1.91-5.54,20.92,20.92,0,0,0-1.36-2.31,34.77,34.77,0,0,0-2.66-2.63A19.65,19.65,0,0,0,58.72,15.8a43.32,43.32,0,0,0-13.3.13A14.86,14.86,0,0,0,40,18a14.71,14.71,0,0,1-1.53.88c-.44.21-1.12,1-1.5,1a1.87,1.87,0,0,1,.74-.3"/><path class="cls-6" d="M49.44,15a33.31,33.31,0,0,1-2.73-2.25A42.42,42.42,0,0,0,42.94,9a37.18,37.18,0,0,0-3.62-2.76c-.54-.35-1.18-.68-1.69-1-.3-.17-.7-.56-1.05-.59-1.18-.08-.69,2.1-.7,2.85,0,2.26-.08,4.27,1,6.29a17.8,17.8,0,0,0,5.77,6.14c1.49-.79,3.13-1.37,4.58-2.24.55-.32,2.62-1.4,2.32-2"/><path class="cls-4" d="M56.37,26.83c-1.79.4-3.49,1.71-3.09,3.57s2.24,2.65,4.24,2.1,2.42-2,1.5-3.71A5,5,0,0,0,57.12,27a7.16,7.16,0,0,0-2.18-.23"/><path class="cls-6" d="M64.64,20.62c.65.3,1,1.06,1.65,0,0-.08-.89-.59-1.05-.61-.55,0-.66.5-.32.82s1.37.38.94-.21-.86.18-.63.25S66.74,19.6,67,19.38c.56-.58,1.1-1.17,1.62-1.78s1.08-1.1.73-1.74a1.87,1.87,0,0,0-1.8-.76c2.3,1-2.78,3.9-1.82,5.39a.37.37,0,0,0,.24-.2"/><path class="cls-4" d="M65.58,20.18c-.16-.36-.78-.18-.78.18s.46.7.8.77.92,0,.91-.36-.89-.68-1.16-.37"/><path class="cls-4" d="M28,62.07c.52-.23.63-.33,1.1,0a5.34,5.34,0,0,1,1.07.88c.55.65.08,1.61-.62,2-1.64.95-2.79-2-1.65-2.92a1.68,1.68,0,0,1,.39.3"/><path class="cls-4" d="M24.49,65.8c0,.14,0,.15,0,0-.11-.76,1.33-.13,1.62.06.62.39.86,1,.31,1.54-1.13,1.08-3.22-.64-2.22-1.67a.39.39,0,0,1,.21.14"/><path class="cls-4" d="M28.49,69.33c0,.08,0,.15.05.21a37.77,37.77,0,0,1,3.27-2.05,61.14,61.14,0,0,0,5.5-4.65c1.62-1.54,3.35-3.1,4.88-4.67,1-1,2.61-2.14,3-3.43-.85-.91-1.29-1-1.53.09a5.64,5.64,0,0,1-1.82,2.45c-1.57,1.6-2.91,3.26-4.49,4.88s-2.89,3.21-4.53,4.59a20.14,20.14,0,0,1-2.54,1.66c-.33.2-.74.34-1.05.53s-.69.92-1.19.84"/><path class="cls-4" d="M63.72,147c-1.36-1.28-6.62-.69-9-.89-.8-1.45,2.24-6.79,4-7.86s2.78.06,5,.44c1.83.3,5.14.44,6.47,1.33-3.6.07-3.23,6.17-5.87,7"/><path class="cls-3" d="M56.14,158.28c1.46.76,7.23,3.59,8.47,4.8C67.92,166.29,82,193,83.91,194.71a8.14,8.14,0,0,1,2.89,4.49c1.2,4.54-5.13,17.3-7.52,21.13-1.52,2.44-7.5,12-8.74,14.1-2.13,3.51-7.24,7.58-8.2,11.85-1.54.42-2.14-2.52-2.78-3.81-1-1.92-1.56-2.52-.93-4.87,1-3.71,11.72-26.1,12.63-27.92.59-1.17,2.72-3.27,2.69-4.74s-7.7-10.28-9.23-12.82c-2.11-3.49-12.51-14.22-13.93-17.67-1.52-3.72-3.54-8.28-3-12.47C48.45,161.55,54.83,157.61,56.14,158.28Z"/><path class="cls-3" d="M81,168.33c1.76-4.64,2.73-6.45,6.87-8.75,2.72-1.52,4.82-.45,7.38,1.13,4.56,2.83,4.16,8.54,3.73,12.81-.53,5.37-.59,11-1.52,16.49-1,6.1-3.38,11.89-5.68,17.82-1.73,4.44-1.06,9.34-.86,13.86.24,5.48.27,11.06,0,16.53-.32,6.31-.66,12.48.09,18.79.45,3.81-.42,3.36-3.7,3.53-1.93.09-4,1.24-5.25-1.05-.84-1.55-.27-5.14-.65-6.93a74.07,74.07,0,0,1-1.18-8.19,179,179,0,0,1-.45-19.55c0-5,.12-10.06.16-15.07,0-3.39-.27-6.71-.48-10.07-.31-5.18,1.91-10,2.11-15.09a39.93,39.93,0,0,0-.91-11.48A7.7,7.7,0,0,1,81,168.33Z"/><path class="cls-4" d="M91.92,249.21c-.62,1.73-4.22,1.94-5.51,2.15a57,57,0,0,1-5.7,1.08c-.61,2.07.18,4.79.71,6.61.69,2.38.65,4.7,1.07,7.14.47,2.7,1,5.07,1.28,7.87.23,2.09.57,4.37,1,6.37.22,1,.19,2.7.61,3.46-1.12.32-5,13.84-6,13.68a48.93,48.93,0,0,0,8,1.23c2.68,0,2.46-8.94,5.19-8.6.69.09,1.16-.26,1.57.4s-.36,2,0,2.63c.92,1.47,2.63-.53,3.74-.9.28-1.27-.36-3.51-.62-4.71a30.36,30.36,0,0,0-1.06-4c-1.39-4-1.72-7.74-2.22-12.12-.46-4.2-1.26-8.3-1.24-12.38a30,30,0,0,0-.27-5.8c-.29-1.41-1.11-2.62-1.34-4.1"/><path class="cls-4" d="M57,236.23c3.63,2.34,8.21,3.11,11.79,5.36.09,1.54-2.75,4.4-3.62,5.71a58.93,58.93,0,0,1-3.59,5.09c-3,3.54-7,7.07-9.19,11.28-1.4,2.62-4.49,6.55-3.08,9.37a20.25,20.25,0,0,1,2.27,5.33,15.15,15.15,0,0,0,1.8,4.83c-5.36.78-6.87-3.31-10.12-6.93-1.05-1.18-2.08-3.35-3.32-4.23-2-1.43-3.81,1.42-5.92.74-.36-2.49-.59-1.87,1.37-3.55a18.2,18.2,0,0,0,2.83-3.34c2.46-3.47,4.23-7.32,7.07-10.48,4.81-5.32,8.41-12.5,12-18.73"/><path class="cls-4" d="M51.57,107.48c1.54.3,4.29-.25,6.34.12,1.27.23,3.09.42,4.11,1.15,1.54,1.1.85,1.89.28,3.37-1,2.54-2.32,5.25-3.48,7.68-.77,1.61-1.77,5.75-3.4,6.66-3.24,1.85-9.46-6.06-9.26-9.11.13-2,2.51-5,3.34-6.86s1.65-4.55,3.86-3.11"/><path class="cls-7" d="M62.75,99.89l-3.24-6.36a21.29,21.29,0,0,1,2.77-1.27,2.43,2.43,0,0,1,.89,0,7.17,7.17,0,0,1,1.17.82,3.4,3.4,0,0,1,.26,1,1.24,1.24,0,0,1-.35,1.11,7,7,0,0,1-1.82,1.27l1.28,2.84ZM61,94l.59,1,.29.51s.56-.22.68-.28.66-.39.7-.43.23-.64.23-.64-.06-.77-.26-.85a.93.93,0,0,0-.53,0l-.7.21Z"/><path class="cls-7" d="M64.63,91.6s1-.25,1.09-.24.53,1.94.53,1.94l.37,1.39s.37,1.39.38,1.47a8.36,8.36,0,0,0,1.5-.22,6.93,6.93,0,0,1,1-.15,1.66,1.66,0,0,0,.21.1l.19.74-2.43.55c-.19,0-1.27.31-1.27.31s-.1-.41-.11-.43S66,96.91,66,96.9,64.63,91.6,64.63,91.6Z"/><path class="cls-7" d="M68.56,90.63l.62-.22a3.42,3.42,0,0,0,.4-.17s1.26,4.27,1.32,4.32.57.55,1.06.45a.72.72,0,0,0,.49-.28l.08-.17a4.72,4.72,0,0,0-.07-.74c0-.13-.83-3.26-.83-3.26l-.27-.78.91-.29s1.31,4.07,1.35,4.25a4.76,4.76,0,0,1,0,1.19,3.35,3.35,0,0,1-.65.83,6.73,6.73,0,0,1-1.09.48,1.83,1.83,0,0,1-1,0,1.13,1.13,0,0,1-.51-.33l-.28-.46Z"/><path class="cls-7" d="M74.45,93.23a.15.15,0,0,0,0,.13c0,.09,0,.61,0,.67a1.49,1.49,0,0,0,0,.17,3.35,3.35,0,0,0,.88.47,6.51,6.51,0,0,0,1.83,0l.65-.3a2.1,2.1,0,0,0,.56-1c.07-.49,0-1.39-.4-1.64l-.55-.34a2.17,2.17,0,0,0-1.09-.25,7.09,7.09,0,0,0-1.21.14s-.26-.6-.26-.6a.7.7,0,0,1,.24-.38,6.23,6.23,0,0,1,1.08-.22,1.15,1.15,0,0,1,.33,0l1.48.59.33-.77A3.49,3.49,0,0,0,76.21,89a7,7,0,0,0-1.31.27,1.68,1.68,0,0,0-1.12,1.26c-.15,1,.1,1.12.11,1.14a3,3,0,0,0,.7.48l.82.19a1.58,1.58,0,0,1,.88,0,1.45,1.45,0,0,1,.53.38,1,1,0,0,1,.11.5.94.94,0,0,1-.16.32,2.48,2.48,0,0,1-.66,0l-.89-.15Z"/><path class="cls-7" d="M82.33,88a2.46,2.46,0,0,1,1.1,1.59c0,.24-.18,1.88-.18,1.88s-.38,1.23-.41,1.29-.82,1-1.24.72a3.18,3.18,0,0,1-1-2,5.71,5.71,0,0,1-.08-1.31c0-.18.1-.89.11-1.1A5.45,5.45,0,0,1,81.25,88,1.12,1.12,0,0,1,82.33,88ZM80.7,86.76a1.07,1.07,0,0,0-.44.31,5.32,5.32,0,0,0-.75,3,12.2,12.2,0,0,0,.92,3.7,3.6,3.6,0,0,0,1.38,1,1.77,1.77,0,0,0,.81-.15s1-.78,1-.78l1.54,2,1.11-1.62,0-.21-1.67-1.26A16.77,16.77,0,0,0,84.88,89a3.27,3.27,0,0,0-1-2,3.75,3.75,0,0,0-3.13-.22Z"/><path class="cls-7" d="M86.32,86.86s.05-.4.12-.43a2.7,2.7,0,0,1,.56,0,6.37,6.37,0,0,1,.28.6s-.35,1.61-.36,1.69,0,.26,0,.26l-.37.65-.39-.14Z"/><polygon class="cls-7" points="91.2 89.69 89.95 96.18 88.56 95.71 89.91 89.36 91.2 89.69"/><path class="cls-7" d="M92.84,93.74l-.61,2.63,1.23.39C93.21,95.76,93,94.75,92.84,93.74Z"/><path class="cls-7" d="M91.83,87.68,91.27,87l-1.64.74.2.45,1.26-.42.62.94.18-.18A3.69,3.69,0,0,1,91.83,87.68Z"/><path class="cls-3" d="M54.33,77.36c1.19.09,2.37.18,3.57.38.9.15,1.73.24,2.64.33,2,.2.57,1.9-.18,2.74-1.16,1.31-2.66,1.08-4.2,1.69a15.79,15.79,0,0,1-6,1.13c-1.68,0-3.27-.3-5-.3A11.94,11.94,0,0,1,41,82.6c-1.49-.52-3-.83-4.52-1.31a20.48,20.48,0,0,1-3.1-1.72c-.83-.45-5.11-3.63-3.76-4.83.78-.68,2.92,1.25,3.53,1.62,1.78,1,3.1.38,5.1.38,1.62,0,3.27,0,4.89.05.49,0,1,0,1.46,0s1.19.09,1.79,0,1.1,0,1.64,0a31.78,31.78,0,0,1,3.65.22C52.53,77.23,53.43,77.29,54.33,77.36Z"/><path class="cls-2" d="M29.05,74.42l.07.18a.53.53,0,0,1,0-.12Z"/><path class="cls-2" d="M60.13,79.59a19.41,19.41,0,0,1-3,1,36.81,36.81,0,0,1-7.76,1.36,48.39,48.39,0,0,1-6.9-.66,22.05,22.05,0,0,1-6.68-2.06c-.91-.46-1.79-.72-2.69-1.22a16.27,16.27,0,0,1-1.53-1c-.79-.57-2.08-1.38-2.48-2.35a5.06,5.06,0,0,0,.12.87c.08.79,0,1.59.05,2.38,0,1.85.23,3.68.26,5.52.08,4.7.51,9.38.51,14.1,0,2.23.08,4.45.1,6.68s-.08,4.43.16,6.64c.29,2.72.69,5.41,1.08,8.13.19,1.33.41,2.66.62,4a5.46,5.46,0,0,0,.6,2.15,3.34,3.34,0,0,0,1.62,1,27.13,27.13,0,0,1,2.55,1.09,1.51,1.51,0,0,0,.17.1,7.51,7.51,0,0,0,2.69.81c1.29.22,2.58.53,3.88.71a17.35,17.35,0,0,0,3.53.06c2-.13,4.69-.63,5.51-2.71a37.25,37.25,0,0,0,1.53-6.6c1.49-7.59,2.54-15.26,3.92-22.87.4-2.17,1-4.28,1.28-6.46.25-1.69.56-3.45.94-5.11.27-1.16.5-2.33.75-3.5a9.2,9.2,0,0,1,.56-1.83c.16-.32.52-.6.43-1h-.1A10.46,10.46,0,0,1,60.13,79.59Z"/><path class="cls-2" d="M60.5,77.22a12.6,12.6,0,0,0-4-2.45,31.34,31.34,0,0,0-7.37-2.06,46.32,46.32,0,0,0-6.67-.43c-1.46,0-3-.4-4.46-.16l-.12,0h-.11l0,0c-.2,0-.4.07-.6.08-.7.05-1.41.09-2.09.19a18,18,0,0,0-2.54.58l-.23,0a7.56,7.56,0,0,0-.92.31c-.41.14-.82.29-1.22.47a2.91,2.91,0,0,0-.94.6.06.06,0,0,0,0,0,4.32,4.32,0,0,1,.46.35.51.51,0,0,0,.18.21c.61.46,1.19.94,1.8,1.4a5,5,0,0,0,1.43.89l.5.12a3.38,3.38,0,0,0,.71.1,1.16,1.16,0,0,0,.61-.24,1.41,1.41,0,0,1,1.29-.1,2.08,2.08,0,0,0,1,0,4.05,4.05,0,0,0,.88-.18,3.93,3.93,0,0,1,2.17-.24,11,11,0,0,0,1.19.48A5.85,5.85,0,0,0,43.18,77a8,8,0,0,1,1.53-.24,1.64,1.64,0,0,1,1.1.54,2,2,0,0,0,1,.56,8.41,8.41,0,0,0,2.24,0,14.19,14.19,0,0,1,2.06.17,9.09,9.09,0,0,1,1.39.14,6.63,6.63,0,0,1,1.14.46,5.71,5.71,0,0,0,2.29,0,1.73,1.73,0,0,1,.6.07,1.58,1.58,0,0,1,.5.39c.15.13.31.36.46.46a1,1,0,0,0,.53,0c.45-.07.92-.24,1.38-.33s1-.13,1.52-.24a3.84,3.84,0,0,1,.67-.16c.22,0,.36,0,.52-.2A13.1,13.1,0,0,1,60.5,77.22Z"/><path class="cls-8" d="M45.71,116.23c0,.17-.33.66.22.64.17,0,.34-.14.24-.3s-.57-.18-.77-.2"/><path class="cls-8" d="M41.49,115.86a.34.34,0,0,0,.48.35c.41-.16,0-.64-.32-.45"/><path class="cls-8" d="M43.55,114c-.18.15-.09.55.31.48s0-.61-.25-.42"/><path class="cls-8" d="M46.74,113.08s.09.07-.07,0c-.1.19,0,.42.3.41.1-.21,0-.43-.31-.42"/><path class="cls-8" d="M43.81,111.07c.09.22.46.61.7.25.14-.21-.3-.73-.53-.45"/><path class="cls-8" d="M40.59,111.58c0,.07.06.11.07.17a.58.58,0,0,0,.19,0,.22.22,0,0,0-.33-.26"/><path class="cls-8" d="M38.35,113.77c.25.79.65-.06.08,0"/><path class="cls-8" d="M36.63,112.85s0,.65.23.36-.11-.45-.31-.31"/><path class="cls-8" d="M37.79,110.43s-.21.34.1.39.28-.36,0-.44"/><path class="cls-8" d="M41.59,108c-.08.11-.26.45.11.46s.25-.34-.05-.4"/><path class="cls-8" d="M44.34,105.19c0,.08-.08.47.25.41s.21-.53-.16-.51"/><path class="cls-8" d="M47.43,104.54s0,.07-.14,0a.5.5,0,0,0,0,.32c.54.16.45-.62,0-.38"/><path class="cls-8" d="M45.52,102c-.21.16.18.55.55.41s0-.66-.31-.55"/><path class="cls-8" d="M44.29,99.35s.09.12.06.21c.55.22.59-.48.06-.53a.11.11,0,0,0,0,.1"/><path class="cls-8" d="M42.87,95.07c0,.56.94-.22.11-.2A.4.4,0,0,0,43,95"/><path class="cls-8" d="M46.85,96.25c-.19.13.12.55.34.27s-.23-.54-.48-.39"/><path class="cls-8" d="M46.46,93.93c0,.16-.06.62.44.48s0-.7-.29-.52"/><path class="cls-8" d="M47,91.77c-.09.13-.15.65.38.55s.11-.55-.31-.54"/><path class="cls-8" d="M49.8,109.49c-.09.14.22.55.55.33s-.56-.79-.62-.4"/><path class="cls-8" d="M51.25,107.1c-.42-.07-.34.68.16.56s.11-.77-.45-.6"/><path class="cls-8" d="M45.49,108.6c0,.3.67.41.74.07s-.9-.67-.86-.26"/><path class="cls-8" d="M37.56,103.51c.08.26.45.58.66.19.1-.17,0-.37-.33-.42s-.34.08-.48.27"/><path class="cls-8" d="M36.72,107s.05,0-.06,0c0,.19.26.22.46.2.26-.22,0-.57-.42-.53a.56.56,0,0,0-.12.26"/><path class="cls-8" d="M35.17,110.13c-.14.17.13.68.41.37.14-.16-.06-.51-.31-.53s-.33.23-.42.4"/><path class="cls-8" d="M34.15,112.62c-.13.21-.18.7.28.75s.43-.63-.06-.61a.65.65,0,0,0,0,.27"/><path class="cls-8" d="M37.9,115.78c.15.25,1,.59.88,0s-1-.34-.67.09"/><path class="cls-8" d="M46.09,118.06c-.16.17,0,.52.31.36s.22-.69-.15-.51"/><path class="cls-8" d="M47.7,116.19c-.68.72,1,.79.57.17"/><path class="cls-8" d="M50.31,115.88c.1,0,0,0-.06,0-.34,1,1.3-.09.08-.17"/><path class="cls-8" d="M49.69,114.25c-.06.23.26.68.54.29s-.3-.59-.6-.46"/><path class="cls-8" d="M51.56,113.36c-.1.22.12.39.34.15s-.07-.52-.45-.5"/><path class="cls-8" d="M48.93,112.5c.38.64,1-.28,0-.28"/><path class="cls-8" d="M46.9,111.71s.09.12.06.21c.39.28.76-.22.33-.39"/><path class="cls-8" d="M47,110.45c-.09.28.42.61.63.29"/><path class="cls-8" d="M48.88,110.49c.12,0-.06,0-.06,0-.51.46.69.44.33.14"/><path class="cls-8" d="M47.43,108.38c.1.54,1,.07.39-.18"/><path class="cls-8" d="M48.29,107.31c-.18.47.72.42.37-.07"/><path class="cls-8" d="M45.67,90.56c.11.09-.16,0-.2-.07-.07.13-.09.46.23.42s.23-.44-.09-.47"/><path class="cls-8" d="M42.89,89.18a.32.32,0,0,0,.39.32c.07-.19-.14-.94-.43-.6"/><path class="cls-8" d="M42,85.41c0,.2.31.53.55.3s-.16-.48-.31-.43"/><path class="cls-8" d="M44.35,84.24l-.13-.06a.55.55,0,0,0,0,.31c.3.11.57,0,.53-.26"/><path class="cls-8" d="M45.46,82.81a.29.29,0,0,0-.13,0c-.13.23.12.32.32.19a.32.32,0,0,0-.07-.56"/><path class="cls-8" d="M47.15,80.34a.26.26,0,0,0,.31.31c.27-.05.26-.54.17-.64"/><path class="cls-8" d="M48,78.11a.18.18,0,0,0,.11.23.89.89,0,0,0,.31-.69"/><path class="cls-8" d="M45.74,76c0,.07,0,.13,0,.21.45.17.8-.64.28-.62"/><path class="cls-9" d="M40,107.26c-.1.14-.14.38-.39.34a.93.93,0,0,1,0-.33"/><path class="cls-8" d="M44.28,86.73c-.32.07-.45.82.07.68.32-.09.46-.77-.07-.73"/><path class="cls-8" d="M43.47,92.36c0-.11,0-.18-.18-.18,0,.17-.15.51.22.53s.29-.56.31-.75"/><path class="cls-8" d="M45.56,91.54c.06,0-.14-.05-.23.09a.34.34,0,0,0,0,.36c.4.31.5-.28.49-.46a.2.2,0,0,0-.13,0"/><path class="cls-8" d="M44.87,93.69c.12.07-.1,0-.14,0-.09.29,0,.51.44.48a.37.37,0,0,0,0-.38.14.14,0,0,0-.14,0"/><path class="cls-8" d="M45.33,96c0,.16.26.57.57.36s0-.39-.28-.32"/><path class="cls-8" d="M44,97.09c0,.06,0,.19,0,.27.26.06.72,0,.46-.22"/><path class="cls-8" d="M42.4,99.18c.05,0,.08,0,.06,0-.31.21.25.63.64.36s0-.8-.18-.42"/><path class="cls-8" d="M43.26,103.78a.7.7,0,0,0-.41-.21.67.67,0,0,0,.9.56c.37-.21,0-.87-.32-.55"/><path class="cls-8" d="M41.27,105.05a1,1,0,0,0-.2-.14c-.27.19.11.54.45.51s.42-.56-.08-.57"/><path class="cls-8" d="M38.55,105.74c.1.16.18.63.58.68a.32.32,0,1,0,0-.61"/><path class="cls-8" d="M39,108.35c0,.18.42.44.7.35.57-.2-.19-.67-.58-.67a.13.13,0,0,0,0,.1"/><path class="cls-8" d="M41.7,109.61c-.54.26,1.14.84.58.06"/><path class="cls-8" d="M43.72,109.34c-.17.34.46.42.5.06"/><path class="cls-8" d="M43.37,106.63c0,.08-.08.26,0,.35s.37.18.47,0"/><path class="cls-8" d="M45.44,105.26c-.33.21.45,1,.49.17"/><path class="cls-8" d="M47.14,103.9c-.09.19.11.53.34.26"/><path class="cls-9" d="M41.84,106.75c0,.22-.11.39-.45.28-.08-.34.36-.42.5-.11"/><path class="cls-8" d="M39.87,74.05a.32.32,0,0,0,.26.19c.08-.13,0-.27-.17-.28a.12.12,0,0,0,0,.1"/><path class="cls-8" d="M47.94,74.77c0,.15.05.44.35.32s.14-.57-.12-.41"/><path class="cls-9" d="M39.62,103.61a.24.24,0,0,1-.45.12c-.15-.29.42-.54.52-.17"/><path class="cls-9" d="M41.14,100.39a.5.5,0,0,1-.39.34c-.12-.2,0-.72.32-.34"/><path class="cls-9" d="M41.73,97.79a.38.38,0,0,1-.4.39.4.4,0,0,1,.11-.36"/><path class="cls-9" d="M40.26,96.79c0,.1,0,.16-.15.2a.55.55,0,0,1,0-.22"/><path class="cls-9" d="M42.47,92.79c0,1.48-2-.8.19-.23"/><path class="cls-9" d="M43.45,89.92a4.41,4.41,0,0,0-.08.47c-.77-.14-.4-.93.29-.94"/><path class="cls-9" d="M45.07,87c-.15.08-.19.19-.46,0,0-.13,0-.2,0-.33a1.75,1.75,0,0,1,.45,0"/><path class="cls-10" d="M55.55,98.6a69.63,69.63,0,0,0,1.16-7.2c.2-1.55.41-3.09.68-4.65.23-1.36.54-2.45-1.08-2.71a23.53,23.53,0,0,0-5.5,0c-2.1.18-4.43,1-6.56.44s-4.32-1-6.42-1.68-3.61-2-5.53-2.7a6.54,6.54,0,0,0,.21,2.49,26.35,26.35,0,0,1,.15,3.32c.09,2.48.22,5,.36,7.43.26,4.88.53,9.77.52,14.66,0,2.39.18,4.75.41,7.13s.37,4.81,1.6,6.91c1,1.66,3,2.26,4.84,2.42,1,.08,1.88,0,2.84.15a18.38,18.38,0,0,0,2.2.28,9.9,9.9,0,0,0,3.82-1c1-.5,1-1.71,1.25-2.86.33-1.9.78-3.8,1.28-5.67,1.48-5.47,2.34-11.1,3.72-16.59C55.52,98.73,55.53,98.67,55.55,98.6Z"/><path class="cls-11" d="M44.46,121.84c0,.16-.31.61.2.59.16,0,.31-.14.22-.28s-.52-.16-.71-.19"/><path class="cls-11" d="M40.59,121.51a.31.31,0,0,0,.44.32c.38-.15-.05-.59-.3-.41"/><path class="cls-11" d="M42.47,119.79a.27.27,0,0,0,.28.44c.39-.07,0-.56-.22-.39"/><path class="cls-11" d="M45.39,119s.09.07-.06,0c-.1.17,0,.38.27.37.1-.19,0-.39-.28-.38"/><path class="cls-11" d="M42.7,117.12c.09.2.42.55.64.23s-.28-.67-.48-.42"/><path class="cls-11" d="M39.76,117.6c0,.05,0,.09.05.15a.58.58,0,0,0,.18,0,.2.2,0,0,0-.3-.23"/><path class="cls-11" d="M37.71,119.61c.23.72.6-.06.07,0"/><path class="cls-11" d="M36.12,118.76s0,.6.22.34-.1-.42-.29-.29"/><path class="cls-11" d="M37.18,116.54s-.19.32.1.37.26-.34,0-.41"/><path class="cls-11" d="M40.66,114.34c-.08.11-.23.42.1.42s.23-.31,0-.36"/><path class="cls-11" d="M43.18,111.73c0,.07-.08.43.23.37s.18-.49-.15-.46"/><path class="cls-11" d="M46,111.13s0,.06-.13,0a.58.58,0,0,0,0,.29c.5.15.42-.57,0-.35"/><path class="cls-11" d="M44.25,108.79c-.19.15.16.51.5.38s0-.61-.28-.5"/><path class="cls-11" d="M43.11,106.37s.08.12,0,.21c.51.2.54-.45.06-.49a.1.1,0,0,0,0,.09"/><path class="cls-11" d="M41.8,102.46c0,.51.86-.21.1-.18a.32.32,0,0,0,0,.14"/><path class="cls-11" d="M45.45,103.54c-.18.12.11.5.31.24s-.21-.5-.44-.36"/><path class="cls-11" d="M45.08,101.41c0,.14,0,.56.41.44s0-.65-.27-.48"/><path class="cls-11" d="M45.57,99.43c-.08.11-.13.6.36.5s.09-.5-.29-.49"/><path class="cls-11" d="M48.19,115.65c-.09.13.2.51.5.31s-.52-.73-.57-.37"/><path class="cls-11" d="M49.51,113.46c-.39-.06-.31.63.14.52s.11-.71-.41-.55"/><path class="cls-11" d="M44.24,114.85c0,.28.61.37.67.06s-.82-.61-.79-.23"/><path class="cls-11" d="M37,110.21c.07.24.41.52.6.17.09-.16,0-.34-.3-.38s-.32.07-.44.24"/><path class="cls-11" d="M36.19,113.38s.05,0,0,0c0,.17.24.2.42.19.24-.22,0-.53-.39-.49a.58.58,0,0,0-.1.23"/><path class="cls-11" d="M34.79,116.27c-.13.17.12.63.37.34.13-.14,0-.46-.28-.48s-.31.21-.38.37"/><path class="cls-11" d="M33.86,118.56c-.12.19-.17.64.26.69s.38-.58-.06-.56a.41.41,0,0,0,0,.24"/><path class="cls-11" d="M37.3,121.44c.14.23.9.55.81,0s-.93-.31-.62.09"/><path class="cls-11" d="M44.81,123.51a.22.22,0,0,0,.28.33c.18-.09.2-.62-.13-.46"/><path class="cls-11" d="M46.28,121.8c-.63.66.94.72.52.15"/><path class="cls-11" d="M48.66,121.51c.1,0,0,0,0,0-.3.92,1.19-.09.07-.15"/><path class="cls-11" d="M48.09,120c-.05.21.25.62.5.26s-.28-.54-.55-.42"/><path class="cls-11" d="M49.8,119.19c-.08.2.11.36.32.14s-.07-.47-.42-.45"/><path class="cls-11" d="M47.4,118.41c.35.59.88-.26,0-.25"/><path class="cls-11" d="M45.53,117.69s.08.12.06.2c.36.25.69-.21.3-.36"/><path class="cls-11" d="M45.66,116.54c-.08.26.38.56.58.26"/><path class="cls-11" d="M47.34,116.57c.12,0-.05,0-.05,0-.46.43.64.41.3.13"/><path class="cls-11" d="M46,114.64c.09.5.89.07.35-.16"/><path class="cls-11" d="M46.79,113.66c-.16.43.67.38.35-.06"/><path class="cls-11" d="M44.36,98.32c.1.09-.15,0-.19-.06s-.08.42.22.38.2-.4-.09-.43"/><path class="cls-11" d="M41.81,97.07c0,.13.09.31.36.29.06-.18-.14-.87-.4-.55"/><path class="cls-11" d="M41,93.62c0,.18.28.48.5.27s-.14-.44-.28-.4"/><path class="cls-11" d="M43.13,92.54a.67.67,0,0,0-.12-.06.57.57,0,0,0,0,.29c.28.09.53,0,.49-.24"/><path class="cls-11" d="M44.15,91.23a.2.2,0,0,0-.13,0c-.12.22.12.3.29.18a.3.3,0,0,0-.06-.52"/><path class="cls-11" d="M45.68,89a.25.25,0,0,0,.29.28c.25,0,.24-.49.15-.59"/><path class="cls-11" d="M46.45,86.91a.17.17,0,0,0,.1.21.84.84,0,0,0,.28-.63"/><path class="cls-11" d="M44.38,85c0,.06,0,.12,0,.2.41.15.73-.6.26-.58"/><path class="cls-12" d="M39.19,113.64c-.08.12-.12.35-.36.31a1.55,1.55,0,0,1,0-.31"/><path class="cls-11" d="M43.07,94.82c-.29.06-.41.75.07.62.3-.08.42-.71-.06-.67"/><path class="cls-11" d="M42.35,100c0-.1,0-.17-.17-.17,0,.16-.13.47.2.48s.26-.51.28-.68"/><path class="cls-11" d="M44.25,99.23c.06,0-.12,0-.2.07s-.07.26,0,.33c.36.28.45-.25.44-.42l-.12,0"/><path class="cls-11" d="M43.63,101.19c.11.06-.09,0-.13,0-.08.27,0,.47.41.44a.35.35,0,0,0,0-.35.11.11,0,0,0-.12,0"/><path class="cls-11" d="M44.06,103.33c0,.14.24.52.52.33s0-.37-.26-.3"/><path class="cls-11" d="M42.87,104.31c0,.06,0,.17,0,.25.24,0,.66,0,.42-.2"/><path class="cls-11" d="M41.38,106.23s.07,0,.06,0c-.29.2.23.58.58.33s0-.74-.16-.39"/><path class="cls-11" d="M42.18,110.44a.6.6,0,0,0-.37-.19.6.6,0,0,0,.82.51c.33-.19,0-.8-.3-.5"/><path class="cls-11" d="M40.36,111.61a.91.91,0,0,0-.19-.13c-.24.18.11.5.42.47s.38-.52-.07-.53"/><path class="cls-11" d="M37.87,112.25c.09.14.16.58.53.62a.29.29,0,1,0,0-.56"/><path class="cls-11" d="M38.27,114.63c0,.18.39.41.64.32.53-.18-.18-.61-.53-.6a.1.1,0,0,0,0,.09"/><path class="cls-11" d="M40.77,115.78c-.5.24,1,.77.53.06"/><path class="cls-11" d="M42.61,115.53c-.14.31.42.38.47,0"/><path class="cls-11" d="M42.28,113.05c0,.07-.06.24,0,.32s.34.17.42,0"/><path class="cls-11" d="M44.18,111.79c-.3.2.41.91.45.15"/><path class="cls-11" d="M45.73,110.54c-.07.18.1.48.31.24"/><path class="cls-12" d="M40.88,113.17c0,.2-.09.35-.41.25-.07-.31.34-.39.46-.1"/><path class="cls-11" d="M39,83.22a.32.32,0,0,0,.24.17c.07-.13,0-.25-.15-.26a.11.11,0,0,0,0,.09"/><path class="cls-11" d="M46.4,83.85c0,.14.05.4.31.3s.14-.53-.1-.38"/><path class="cls-12" d="M38.84,110.29a.21.21,0,0,1-.41.11c-.13-.26.38-.49.48-.15"/><path class="cls-12" d="M40.23,107.34a.51.51,0,0,1-.35.32c-.12-.19,0-.67.28-.32"/><path class="cls-12" d="M40.76,105a.35.35,0,0,1-.36.36.34.34,0,0,1,.1-.34"/><path class="cls-12" d="M39.42,104c0,.1,0,.15-.14.19a.44.44,0,0,1,0-.2"/><path class="cls-12" d="M41.43,100.37c0,1.36-1.86-.73.17-.21"/><path class="cls-12" d="M42.32,97.74s-.07.33-.08.43c-.7-.12-.36-.85.27-.86"/><path class="cls-12" d="M43.8,95.07c-.14.07-.18.17-.43,0a.51.51,0,0,1,0-.3,1.89,1.89,0,0,1,.41,0"/><path class="cls-13" d="M40.77,72.23c.2-.15-.17-.5-.5-.37s0,.6.29.5"/><path class="cls-11" d="M42,74.63s-.08-.12-.06-.2c-.51-.19-.53.45,0,.48a.08.08,0,0,0,0-.08"/><path class="cls-11" d="M43.32,78.52c0-.51-.86.22-.09.19a.77.77,0,0,0,0-.15"/><path class="cls-11" d="M39.66,77.5c.17-.12-.12-.49-.32-.23s.23.49.44.35"/><path class="cls-11" d="M40.06,79.62c0-.14,0-.56-.41-.43s0,.65.27.47"/><path class="cls-11" d="M39.6,81.61c.08-.11.13-.6-.36-.49s-.09.5.29.49"/><path class="cls-13" d="M48,70.7c-.08-.24-.42-.52-.61-.17-.08.17,0,.35.31.38s.32-.07.44-.25"/><path class="cls-11" d="M40.83,82.7c-.1-.08.15,0,.19.06s.07-.42-.22-.38-.2.41.09.43"/><path class="cls-11" d="M43.4,83.91a.29.29,0,0,0-.36-.28c-.06.17.15.86.41.54"/><path class="cls-11" d="M44.28,87.35c0-.18-.29-.48-.5-.27s.14.45.28.4"/><path class="cls-11" d="M42.16,88.47l.11,0a.48.48,0,0,0,0-.29c-.28-.09-.52,0-.48.25"/><path class="cls-11" d="M41.16,89.79h.12c.12-.22-.12-.3-.3-.18a.3.3,0,0,0,.07.52"/><path class="cls-11" d="M39.66,92.08a.25.25,0,0,0-.3-.27c-.24,0-.22.49-.14.59"/><path class="cls-11" d="M38.92,94.15a.16.16,0,0,0-.1-.21.82.82,0,0,0-.28.63"/><path class="cls-11" d="M41,96c0-.06,0-.12,0-.2-.42-.14-.72.61-.25.58"/><path class="cls-11" d="M42.18,86.18c.29-.06.39-.75-.08-.62-.3.09-.42.71.07.67"/><path class="cls-11" d="M42.82,81c0,.1,0,.16.17.16,0-.15.12-.47-.22-.47s-.24.51-.26.69"/><path class="cls-11" d="M40.92,81.79c-.06,0,.13,0,.2-.08a.27.27,0,0,0,0-.32c-.37-.28-.45.26-.44.42a.25.25,0,0,0,.12,0"/><path class="cls-11" d="M41.52,79.82c-.11-.06.08,0,.12,0,.08-.26,0-.46-.41-.43a.34.34,0,0,0,0,.35.12.12,0,0,0,.12,0"/><path class="cls-11" d="M41.05,77.69c0-.14-.25-.52-.52-.32s0,.36.25.29"/><path class="cls-11" d="M42.22,76.69a1.81,1.81,0,0,0,0-.25c-.24,0-.67,0-.42.21"/><path class="cls-11" d="M43.68,74.74s-.07,0-.06,0c.29-.19-.23-.57-.58-.31s0,.73.17.38"/><path class="cls-13" d="M42.82,70.55a.65.65,0,0,0,.37.18.61.61,0,0,0-.83-.5c-.33.2,0,.81.31.51"/><path class="cls-13" d="M39.26,70.51c.08-.18-.1-.49-.31-.24"/><path class="cls-11" d="M46.43,97.72a.32.32,0,0,0-.24-.17c-.08.13,0,.25.15.26a.12.12,0,0,0,0-.1"/><path class="cls-11" d="M39,97.21c0-.14-.06-.41-.32-.3s-.13.53.12.37"/><path class="cls-14" d="M46.15,70.65a.22.22,0,0,1,.42-.12c.13.26-.38.5-.48.16"/><path class="cls-12" d="M44.82,73.61a.5.5,0,0,1,.34-.32c.12.19,0,.67-.28.33"/><path class="cls-12" d="M44.32,76a.35.35,0,0,1,.36-.36.38.38,0,0,1-.09.34"/><path class="cls-12" d="M45.68,76.9c0-.09,0-.15.14-.19a.66.66,0,0,1,0,.2"/><path class="cls-12" d="M43.72,80.61c-.06-1.36,1.88.69-.16.21"/><path class="cls-12" d="M42.88,83.25s.06-.33.07-.44c.7.12.38.85-.26.87"/><path class="cls-12" d="M41.44,86c.14-.08.18-.17.43-.06a.65.65,0,0,1,0,.31,2,2,0,0,1-.42,0"/><path class="cls-2" d="M42.68,65.15c0,.42-.58.6-.71.91.22.09.56-.07.78-.15s.44-.26.66-.33c-.19.24-.34.53-.53.77s-.37.26-.42.45a1.54,1.54,0,0,0,.74-.4c.16-.12.65-.51.83-.28A2.55,2.55,0,0,0,43,67c.25-.23.73.1,1,.13.13.2-.18,1.13-.22,1.37-.14.8-.22,1.6-.35,2.4-.19,1.08-.43,2.16-.57,3.26-.21,1.62-.15,3.31-.31,4.94-.05.56-.06,1.13-.07,1.69a.85.85,0,0,1,.31.09,6.78,6.78,0,0,1,1,.78l.9.08a.34.34,0,0,1,0-.1l.12-1.34a42.09,42.09,0,0,0,.24-4.9c0-1.52.13-3,.1-4.53,0-.71,0-1.38,0-2.08,0-.28,0-.53,0-.79a2.74,2.74,0,0,0,0-.81,5.11,5.11,0,0,0,.75-.59c.14-.1.62-.35.53-.62A6.36,6.36,0,0,0,45,66.1a5,5,0,0,1,.48-.87,2.18,2.18,0,0,0,.42-1c-.31-.1-.75.29-1.06.35,0-.52.54-.88.56-1.35a1.51,1.51,0,0,0-.49.17c-.2.11-.37.45-.61.44A4.73,4.73,0,0,1,44.5,63a5.11,5.11,0,0,0,.06-1c-.34,0-.61.5-1,.57,0-.25-.38-.43-.52-.58s-.49-.55-.72-.83c-.47-.59-.91-1.2-1.35-1.8l-.48-.63-.18.19-1.09,1.4a1.15,1.15,0,0,0,.14.17c1,1.16,2.11,2.26,3.06,3.53-.26.17-.59.19-.85.37.11.07.47,0,.64,0s.68.13.82.37a.78.78,0,0,1-.52.09,2.46,2.46,0,0,0-.47.1c-.12,0-.21,0-.31,0S42.52,65.17,42.68,65.15Z"/><path class="cls-15" d="M40.84,59.89a5.2,5.2,0,0,1,.06-.68l-.36-.47-.19.2-.93,1.19c0,.16,0,.32.08.47.49.56,1,1.1,1.49,1.65a.88.88,0,0,0,0-.17A17.87,17.87,0,0,1,40.84,59.89Z"/><path class="cls-15" d="M42.32,64.09a2.55,2.55,0,0,0-.11.33,2.79,2.79,0,0,1-.61,0A4.51,4.51,0,0,1,42.32,64.09Z"/><path class="cls-15" d="M44.21,74a4.68,4.68,0,0,0-.9.88,7.71,7.71,0,0,0-.53.71c0-.49.07-1,.13-1.45s.1-.72.17-1.08a2.48,2.48,0,0,1,.19-.26,4.49,4.49,0,0,1,1-1c.31-.23.67-.37,1-.62,0,.72,0,1.45-.07,2.17C44.85,73.52,44.52,73.72,44.21,74Z"/><path class="cls-15" d="M42.53,80.75a.91.91,0,0,1,.31.09l0,0c.74-.94,1.49-1.87,2.2-2.86,0-.69.07-1.38.07-2.08a18.52,18.52,0,0,0-2.48,2.31q0,.4-.06.81C42.55,79.6,42.53,80.17,42.53,80.75Z"/><path class="cls-15" d="M45.23,69.25a2.3,2.3,0,0,0-.4.23,6.33,6.33,0,0,0-.54.36,3.82,3.82,0,0,0-.8.89c.1-.63.18-1.27.27-1.9a3.33,3.33,0,0,1,.58-.26,2.17,2.17,0,0,1,.72-.11h.14c0,.08,0,.17,0,.26S45.23,69.07,45.23,69.25Z"/><path class="cls-15" d="M45.93,64.19a2.13,2.13,0,0,1-.42,1,3.76,3.76,0,0,1-.24.38h-.16a3.33,3.33,0,0,0-.87.16,4.56,4.56,0,0,0-1.66,1s0,0,0,0l-.11,0c0-.19.3-.29.42-.45s.34-.53.53-.77a5.35,5.35,0,0,0-.59.29,8.3,8.3,0,0,1,.77-1.26c.24-.3.48-.58.74-.85v.08c.23,0,.41-.34.61-.45a1.51,1.51,0,0,1,.49-.17c0,.47-.58.83-.56,1.35C45.18,64.48,45.62,64.09,45.93,64.19Z"/><path class="cls-15" d="M42.38,63.92c-.09-.13-.19-.26-.29-.38A12,12,0,0,1,42,61.75a7.09,7.09,0,0,1,.07-1l.33.42c.23.29.47.57.72.83l.25.21A12,12,0,0,0,42.38,63.92Z"/></g></g></svg>