<svg xmlns="http://www.w3.org/2000/svg" viewBox="0 0 174.19 216.53"><defs><style>.cls-1{fill:#1d1d1b;}.cls-2{fill:#007293;}.cls-10,.cls-3,.cls-6,.cls-7,.cls-9{fill:#fff;}.cls-4{fill:#e30613;}.cls-5{fill:#f9b233;}.cls-10,.cls-6,.cls-7,.cls-9{stroke:#fff;stroke-miterlimit:10;}.cls-6{stroke-width:0.3px;}.cls-7{stroke-width:0.3px;}.cls-8{fill:#ededed;}.cls-9{stroke-width:0.31px;}.cls-10{stroke-width:0.31px;}</style></defs><g id="Ebene_2" data-name="Ebene 2"><g id="Ebene_1-2" data-name="Ebene 1"><path class="cls-1" d="M58.56,53.88c.82,2.15,1.56,2.86,2.81,2.92,3,.14,6,.08,9,.06,5.9,0,11.76-.5,17.67-.36,8.59.21,17.19.9,25.77.88,4.6,0,9.24-.85,13.88-.24a15.61,15.61,0,0,1-.55-3.77c-.41.82-1.37.39-1.92.28q-3-.59-5.92-1c-5.68-.74-11.32.19-16.93.64-6.67.52-13.41,0-20.09.28-5.26.18-10.54.22-15.8.27a24.62,24.62,0,0,1-5.26-.46,5.28,5.28,0,0,0-2-.24.86.86,0,0,0,0,.32"/><path class="cls-2" d="M42.37,98.58A18.3,18.3,0,0,1,40,90.29a1.68,1.68,0,0,1,.6-1.55c.49-.35,1.17-.4,1.68-.71a8.2,8.2,0,0,0,1.5-1.38A6.94,6.94,0,0,1,46.29,85a18.33,18.33,0,0,1,3.65-1,17.06,17.06,0,0,0,4.44-1.42,5.77,5.77,0,0,1,1.34-.47c.33,0,.7-.21,1-.22a5.13,5.13,0,0,1,1.55.43,11.08,11.08,0,0,1,2,.91,23.44,23.44,0,0,1,3.23,2.39c.59.48,1.49.71,1.93,1.32a2.32,2.32,0,0,1,.28,1.83c-.11,1.11-.31,2.2-.43,3.3A10.35,10.35,0,0,1,64,95.88,3.29,3.29,0,0,1,63.24,97c-.27.18-.61.19-.89.36a6.59,6.59,0,0,0-.88.7,7,7,0,0,0-.79,1.26,4.77,4.77,0,0,1-1.14,1.19,14.48,14.48,0,0,1-1.38.63c-.73.42-1.15,1.42-2,1.64-.33.09-.35-.08-.54-.24-.53-.42-1.08.38-1.45.77a6.66,6.66,0,0,1-2.6,1.8c-1,.36-2.29-.24-3.19-.67a12.77,12.77,0,0,1-3.14-2.5,13.45,13.45,0,0,1-2-2C43,99.52,42.65,99.05,42.37,98.58Z"/><path class="cls-3" d="M51.35,90.63c-.14.06-.53-.27-.64-.37a2.58,2.58,0,0,1-.49-.65,3.28,3.28,0,0,1-.44-1.2,1,1,0,0,1,.27-.78,3.47,3.47,0,0,1,.32-.34c.15-.16.32-.31.48-.46s.22-.3.33-.35a8.13,8.13,0,0,0-.24,2.14,8.69,8.69,0,0,0,.52,2s-.13,0-.08,0"/><path class="cls-2" d="M6.44,119.62A30.71,30.71,0,0,0,22,128.29a3.79,3.79,0,0,0,3.24-.59c.44-.39,2-2.53,1.59-3.23-.55-1-2.47,1.07-3.17,1.14A6.6,6.6,0,0,1,20,124.24a2.53,2.53,0,0,1-.67-.56c.61-.07,1.68.2,2.07-.38.61-.88-.71-1.09-1.34-1.41a40.51,40.51,0,0,0-5.91-2,16.15,16.15,0,0,1-3.45-1.29c-.53-.33-1.62-1.67-2.19-1.76-1.09-.18-3.13,3.28-1.26,3.67"/><path class="cls-2" d="M47.45,85.36s.09,0,.11,0a1.58,1.58,0,0,1,0-1.92,3.84,3.84,0,0,1,2.17-1.24c1.31-.28,2.74-.92,3.93-.18,0,.37.07.75-.16,1a2.3,2.3,0,0,1-.65.43c-.31.21-.63.4-.94.59-1,.59-2.25,1.73-3.38,1.61"/><path class="cls-1" d="M49.92,86.49c.1.12-.49,1.12-.54,1.37a2.33,2.33,0,0,0,.23,1.55c.25.48.69.66,1.11,1s.8.73,1.17.66a10.1,10.1,0,0,1-1-.86A2.59,2.59,0,0,1,50.16,89a2.56,2.56,0,0,1-.27-1.3c0-.37.11-.74.12-1.11,0,.05,0,.08,0,.12a.19.19,0,0,0,.13,0"/><path class="cls-1" d="M50.05,87.86l.07,0c-.08-.36.44-.52.69-.39s.62.66.44.94a.89.89,0,0,1-.93.2c-.25-.15-.54-.7-.27-.94"/><path class="cls-1" d="M51.54,90.65l0,.06a4.1,4.1,0,0,1-.79-1.83A2,2,0,0,1,51.55,87c-.18.1-.34.57-.4.76a2.93,2.93,0,0,0-.1,1,3.32,3.32,0,0,0,.23,1c.07.18.11.35.17.53s.06.31.13.44c-.15.06-.26-.08-.32-.21"/><path class="cls-4" d="M107.31,213.41c1,.61,2.07,1,3,1.67a4.42,4.42,0,0,0,2.28.86,22.58,22.58,0,0,0,3.49,0c4,0,8.09-.15,12.11,0,1.81.06,3.69.08,5.46.32a21.23,21.23,0,0,0,4.44.23c1.4-.11,4.07-.68,4.43-2.27-.82,0-1.7-.16-2.54-.24l-2.82-.22c-3.15-.25-6.27-.54-9.43-1-3.56-.49-7.13-1.11-10.66-1.84-2.42-.5-4.81-1.42-7.24-1.65a8.83,8.83,0,0,0-.24-1.5c-.11-1.2-.09-1.51-1.36-1.81a15.24,15.24,0,0,0-3-.3c-.69,0-1.34-.18-2-.18-.51,0-1.56-.23-1.87.24s.07,1.69.09,2.19a26.15,26.15,0,0,1-.26,4.84,7.74,7.74,0,0,1,1.32.35,9.23,9.23,0,0,1,1.32.09c.11-.58.47-1,.6-1.6C105.31,211.71,106.47,212.89,107.31,213.41Z"/><path class="cls-4" d="M64.66,185.56c-.34.52,0,1,.29,1.5a9.63,9.63,0,0,1,.79,1.84c.44,1.3,1.56,2.67,1.72,4-.77.26-1.55.44-2.32.69s-.58.93-.38,1.7c.14.5.19,1,.32,1.56a7.64,7.64,0,0,1,.11,1.65,24,24,0,0,0,.21,3.06,32.82,32.82,0,0,1,.91,7.16c0,1.71.5,2.19-1.16,3.46-2.47,1.91-6.53,2-9.51,2.46-3.17.51-6.41.51-9.63.71-1.94.12-6.32.59-7.75-.28a77.58,77.58,0,0,0,9.42-2.59c2.59-1,5.94-1.23,7.86-3.36a13.58,13.58,0,0,0,2.84-6.48c.48-2.68-.69-4.37-.94-6.92a8.56,8.56,0,0,1,.33-3.26c.12-.46.47-1.06.35-1.51s-.67-.91-.79-1.47c-.56.19-1.24.49-1.65-.05-.2-.27-.19-.75-.3-1.07a5,5,0,0,1-.34-1,45.86,45.86,0,0,1,5.43-1.76c1.29-.26,3.21-.83,4.43-.24"/><path class="cls-1" d="M64.75,195.66c.11-.71-2.21-1-2.87-.69.37.16.44.47.55.85.88-.15,1.87-.31,2.5.48-.06-.18-.1-.37-.16-.55"/><path class="cls-1" d="M65.1,199.38c.23-.48-2-.79-2.42-.61.11.29.39.59.22.91a2.07,2.07,0,0,1,2.28.41.74.74,0,0,0,.12-.36"/><path class="cls-1" d="M65.19,201.72c-.48-.55-1.89-.42-2.51-.17a4.76,4.76,0,0,0,.2.74c.88-.15,1.76-.58,2.43.21.24-.22.39-.76,0-.93"/><path class="cls-1" d="M66.27,205.35c-.37-.1-.63-.53-1-.68a2.13,2.13,0,0,0-1.59,0,2,2,0,0,1,.12.87c.42,0,.54-.28,1-.22a1.42,1.42,0,0,1,1.2.79.82.82,0,0,0,.28-.07,3,3,0,0,1-.11-.88"/><path class="cls-1" d="M66.18,208.86c-.36-.56-1.54-1.73-2.67-1.16.18.28.49,1,.32,1.3,1-.68,1.82-.18,2.55.5a1,1,0,0,0-.08-.57"/><path class="cls-1" d="M65.94,211.47c-.37-.27-.31-.88-.64-1.24a1.4,1.4,0,0,0-1.17-.42,1.66,1.66,0,0,1-.21,1.06c1.08-.55,1.48.38,1.85,1.07,0-.17.13-.3.17-.47"/><path class="cls-1" d="M64.58,193.84a3,3,0,0,0,1-2,2.38,2.38,0,0,0-1-1.79c-.89-.38-1.23.24-1.1,1a1.69,1.69,0,0,0,1.33,1.53c-1.42-.35-3.81-2.94-1.1-3.35,1.13-.17,1.63.64,1.93,1.5.23.63.52,2.25-.38,2.56.5.52,4.89,2,2.83,3a2,2,0,0,1-1.9-.35,2.07,2.07,0,0,1-.46-2c-1-.08-.48,2-.21,2.41.82,1.3,2.33,1.2,3.44.23s.49-1.56-.51-2.2a4.48,4.48,0,0,0-2.52-.91c-.45,0-1.07.4-1.44.24"/><path class="cls-1" d="M131.46,213.1c-.69.48-.59,1.31-1.52,1.17.33-.67,1-1.55,1.62-1.37"/><path class="cls-1" d="M129,212.8c-.76.31-1,1.43-1.92,1.07.19-.39,1.26-1.53,1.72-1.07"/><path class="cls-1" d="M125.75,212.5a3.22,3.22,0,0,0-1.43,1.65c-.22-.07-.46-.11-.7-.18a3.49,3.49,0,0,1,1.93-1.57"/><path class="cls-1" d="M121.77,211.7c0,.62-1.41.89-1.52,1.76a.76.76,0,0,0-.81-.38c.22-.41,1.94-2,2.44-1.58"/><path class="cls-1" d="M118.31,211.2c-.46.43-1.15.67-1.15,1.38-.31,0-.63-.08-1-.1,0-.45,1.46-1.78,1.92-1.28"/><path class="cls-1" d="M115.76,210.8a1.74,1.74,0,0,0-1,1.49c-.33-.12-.73-.19-1.1-.31a2.51,2.51,0,0,1,2.75-1.28"/><path class="cls-1" d="M112.7,210c-.66.48-1.09.66-1.35,1.48-.25-.32-.59-.28-1-.31,0-.57,1.76-1.13,2.22-1.07"/><path class="cls-1" d="M111,209.41c-.48.64-1.49.52-1.83,1.35-.12-.32-.48-.37-.71-.53a6.11,6.11,0,0,1,1-.6,6,6,0,0,1,1.33,0"/><path class="cls-1" d="M109.74,208.51c-.64.49-1-1-1.24-1.39a1.84,1.84,0,0,0-2.64-.3,1.67,1.67,0,0,0,.62,2.46c.49.31,2,.7,2.41,0-.71-.15-1.24.3-1.93-.18s-.94-.88-.3-1.43c1.32-1.13,1.74,1.06,2.86,1.29a5.26,5.26,0,0,1,1.55-2.31c.83-.71,2.47-1.44,3-.09.43,1-.71,2.54-1.68,2.93-1.17.47-1.38-.33-2.18-1-.13.86,1.21.56,1.62.34a2,2,0,0,0,1-1.77c-.19-1.57-2.8,1.07-3.09,1.77a.51.51,0,0,1-.48-.08"/><path class="cls-2" d="M93.6,62.38a2.24,2.24,0,0,1,.05.52c.66-.95,2.55-1.22,3.58-1.27-.15,0,.29-1.16.36-1.26a2.94,2.94,0,0,1,1-.83,5.16,5.16,0,0,0,2.25-2c.22-.4.68-1.5-.13-1.55-.65-.05-1.25,1-1.87,1.18-1.29.39-2.87-.44-4.14-.63-1.65-.25-3.3-.49-4.94-.8-2-.37-4.42-1.09-5.85.77a11.77,11.77,0,0,0,3.21.18c-.9.13-2.34-.18-3.14.25-1.1.6,1.12,1.17,1.57,1.22a6.08,6.08,0,0,1,2.15.38,14.44,14.44,0,0,0,1.7.51,11.58,11.58,0,0,1,2.32,1.06A3.31,3.31,0,0,1,93.6,62.38Z"/><path class="cls-2" d="M63.11,83.49c2.64,1.07,4.79-1.26,6-3.14.88,1.45,1.75,2.42,2.13,4.19s.58,3.85,1,5.77c-2.61-.62-4.21-1.06-6.77-.34-.07-1.75-1-5.08-2.47-6.12a2.88,2.88,0,0,0,.24.77"/><path class="cls-4" d="M69.67,81.29c1.4-2.75,4.87-4.5,7.39-6.07,3.7-2.3,8.5-5.24,13-5.56,11.09-.79,20.08,5.32,25.66,14.09a49.74,49.74,0,0,1,6.12,16.51,57.45,57.45,0,0,1-2.43,29.17c-1.09,3.06-2.87,9.56-6.47,10.71-3.33,1.05-9.42-1.5-12.81-2a24.1,24.1,0,0,1-6-1.24,23.44,23.44,0,0,1-3.94-2.06c-.93-.62-.94-.89-1-2l-4.25,8.79c-.34-.19-.67-.4-1-.58-.5-2.59-1.31-5.82-.44-8.24,1-2.6,3.81-4.36,6-5.81s4.65-3.22,7.12-4.56a42.19,42.19,0,0,0,4.82-2.77c1.58-1.15,3.16-1.5,4.4-3.11a18.17,18.17,0,0,0,3.2-5.85c.84-2.8,1.57-5.85,1-8.85a27.54,27.54,0,0,0-5.32-11.2,25.6,25.6,0,0,0-3.92-3.48,17.32,17.32,0,0,0-4.78-3.15c-5.4-2.06-10.33-1.15-15.34,1.56a25,25,0,0,0-2.54,1.51c-.61.44-.74,1-1.2,1.36-.9.73-3.28.56-4.24,0C70.65,87.35,68.61,83.39,69.67,81.29Z"/><path class="cls-2" d="M95.5,128.62c-9,.6-15.48,13.47-9.14,20C89.56,152,94.12,152,98.48,152c6.39,0,12.77,0,19.16,0,5.62,0,11.36-.28,16.85.47,4,.55,11.85-.14,15,1.78-3.75,2.06-7,5-10.9,6.9a109.78,109.78,0,0,1-11.12,4.54,17.76,17.76,0,0,0-4.4,2c-1.41,1-3.39,1.09-5.07,1.38-1.37.24-2.73.47-4.11.69-1.8.28-3.62.53-5.42.91a28,28,0,0,0-5.57,1.71c-2.11.91-4.15,1.86-6.33,2.63-1.37.48-2.8.5-4.18,1-2,.77-4.22,1.94-5.28,3.79-.6,1-1,2.37-.24,3.43,1,1.37,1.87.95,3.31.61,4-.92,8.09-1.36,12-2.47,1.28-.36,2.5-.84,3.75-1.22,6.14-1.88,12.1-4.29,18.13-6.48A280.27,280.27,0,0,0,150.68,163c5.42-2.61,10.88-6.11,14.64-10.8a9.06,9.06,0,0,0,2.24-6.89c-.31-3.69-5.21-3.9-8.32-4.51-12.22-2.4-24.73-3.63-37.07-5.33-3.51-.49-7-1-10.51-1.72a19.67,19.67,0,0,1-4.2-1C106.54,132.43,101.33,128.23,95.5,128.62Z"/><path class="cls-2" d="M53.66,139.13c-5.74.4-11.42.51-17.12,1.21-3.1.37-7.64-.44-8.19,3.3-.59,4,1.17,9.34,3.61,12.34a26.29,26.29,0,0,0,6.82,5.57c4.62,2.8,9.79,5.45,14.65,7.88,7.32,3.66,13.68,8.65,20.46,13.19a108,108,0,0,1,18.24,14.7A60.7,60.7,0,0,0,97.06,202c.63.53,1.4.91,2,1.46s1.15,1.42,1.86,2a3.82,3.82,0,0,1,1.32,1.51c1.3.12,2.53-.19,3.83-.1,1.08.08,2.69.37,3.46-.54-.38-1.14-1.77-1.8-2.66-2.5a38.89,38.89,0,0,1-3.22-2.92c-4.87-4.78-9.87-9.55-14.86-14.27-3.81-3.61-8.14-6.71-12.27-9.94s-8.58-5.55-12.63-8.6a62.41,62.41,0,0,0-7.23-4.55c-2.59-1.43-5-3.1-7.53-4.71a87.65,87.65,0,0,1-7.78-5.11c1.19-1.14,6,.56,7.65.65,7.69.4,16.12.44,23.74-.9a61.88,61.88,0,0,0,16-5.23c3.57-1.72,10.14-4.61,8-9.26-1.35-3-4.84-5.36-8.07-6.24-4-1.09-6.48,1.23-10.15,2.56C70.66,138.21,62,138.56,53.66,139.13Z"/><path class="cls-1" d="M57.1,79c2.38.15,4.38,1.45,6.67,1.88s3.47-.29,5.51-1.11c3.59-1.45,7-3.42,8.62-7-4.27-.34-8.64-.19-12.71-.75-2.57-.35-5.1-.87-7.68-1.28-7.07-1.1-13.45-2.29-20.71-1.25-12.15,1.73-25.54,7.11-33,17.1A19.12,19.12,0,0,0,.62,102.87c1,3.83,1.94,7.87,3.84,11.37.88,1.61,2.57,7.9,4.45,3.56,1.38-3.19-2.71-6.62-3-9.91-.61-5.71.71-11.92,4.82-16.16C15.94,86.3,23.77,81,31.15,78.64,39.61,75.92,48.51,78.49,57.1,79Z"/><path class="cls-1" d="M106.65,71.66c-.51-.5-2.72-.68-3.45-.84A50.93,50.93,0,0,0,96,69.91c-4.73-.38-9.14-.89-13.67.74a34.38,34.38,0,0,0-11.43,6.64,13.69,13.69,0,0,0-1.54,2.29,3.46,3.46,0,0,1-1,1,1.46,1.46,0,0,0-.8,1.07A6.42,6.42,0,0,0,67.62,83a1.92,1.92,0,0,1,.62-.54c.2-.15.34-.4.55-.53,0,.19.23.34.34.48a2,2,0,0,0,.34.5c.46-.63,1.56-1,1.89-1.68.2-.42.31-1,.48-1.44a5.74,5.74,0,0,0,.46-1.38,2.8,2.8,0,0,1,0,1.67c0-.34.46-.71.73-.87a7.57,7.57,0,0,1,1.71-.46,24,24,0,0,0,2.94-1.18,32.71,32.71,0,0,1,6.79-1.82c1-.2,2.08-.31,3.11-.47,1.25-.19,2.51-.33,3.77-.43,1.66-.14,3.32-.2,5-.2,3.33,0,6.91.18,9.87,1.8a12.26,12.26,0,0,0,.5-2.36C106.77,73.32,107.36,72.36,106.65,71.66Z"/><path class="cls-1" d="M77.67,90.88c-.17-2.11.28-4.7-2.4-5.3-2.14-.47-4.38,1.28-4.94,3.22-.88,3,.11,6.44.83,9.44.82,3.44,1.55,6.81,2.3,10.27.48,2.18,1.19,15.46,5.29,8.09a94.39,94.39,0,0,0,5.91-12c2.71-7.18,5-14.41,7.9-21.49A84.3,84.3,0,0,0,98.1,64.65c.26-1.51.85-3.59.19-5.12-1.83-.2-3.83.65-5.64,1.07a8.33,8.33,0,0,1-1.23,3.7,54.3,54.3,0,0,0-2.6,6.33C87.19,75.4,85.93,80.26,84.26,85A121.71,121.71,0,0,0,79,104.56c-.46-.58-.42-2.65-.46-3.38-.07-1.16-.09-2.32-.21-3.48C78.11,95.52,77.85,93.12,77.67,90.88Z"/><path class="cls-1" d="M82.68,84.76c2.9-1.1,7.36-1.65,9.81.66,4.69,4.4-.62,16.63-2.63,21.55-2.86,7-9,13-17,14.72-4.22.91-8.8.36-13,1.4-4.42,1.09-9,2.59-13.44,3.83-4.2,1.16-8.13,3.06-12.26,4.41a38.74,38.74,0,0,1-6.21,1.4c-1.79.3-4.13.07-5.82.84,4.41,4.29,12.65,4.77,18.8,4.29A42.52,42.52,0,0,0,51,136c2.76-1,5.22-3.4,7.89-4.67-3.64,10.7-7.54,20.32-14.79,29.44-5.94,7.47-15.58,15.42-23.63,19,3.17-1.47,7.53-1.69,11.05-2.76,4.12-1.25,8.1-2.89,12.08-4.51,5.48-2.22,10.67-4.58,16.37-6.19A45.29,45.29,0,0,0,70.4,162a123.44,123.44,0,0,0,25.45-20c7.41-7.44,12.79-17,16.33-26.51,1.67-4.5,1.63-8.35,1.63-13.29,0-5.81-2.07-9.56-5.7-13.94A7.79,7.79,0,0,1,107,87.11c-.3-.61.19-.9.54-1.52.52-1,1.27-2.12.5-3a17.58,17.58,0,0,0-9-5.3c-.49-.14-1-.26-1.48-.37a29.33,29.33,0,0,0-7.42-.64,32.58,32.58,0,0,0-3.71.36,9.86,9.86,0,0,0-1.72.33c-.43.14-.88.08-1.3.23s-1.08.53-1.62.76a9.07,9.07,0,0,0-1.13.55c-.95.58-2,1-3,1.58-.77.51-1.49,1.08-2.25,1.63a7.78,7.78,0,0,1-1.27.7,4,4,0,0,0-1.25.94,4.49,4.49,0,0,1,1.69.16,6.13,6.13,0,0,1-1.39.46,8.54,8.54,0,0,0-1.3.37,4.86,4.86,0,0,1-1.14.57,6,6,0,0,1-.22,1.44c-.08.48-.23,1-.26,1.48s.06.82.06,1.24a5.76,5.76,0,0,1-.19,1.39,4.78,4.78,0,0,1,1.85-.2,3.68,3.68,0,0,0,.47,0c.55-.1.51-1,1-1.25.82-.46,1.6.22,2.44,0,1.86-.44,3.42-2.08,4.89-3.16A8.11,8.11,0,0,1,82.68,84.76Z"/><path class="cls-1" d="M63.06,82.37a5.54,5.54,0,0,0-.74-.66,4.1,4.1,0,0,0-.81-.63,6.68,6.68,0,0,0-2.09-.74c-.26,0-.44.09-.69.13a1.67,1.67,0,0,1-.58-.09,4,4,0,0,0-1.92,0,3.12,3.12,0,0,1-1.24.32c-.16,0-.34,0-.51,0a1,1,0,0,0-.73.33c-.14.15-.4.47-.35.7s.35,0,.54.13c-.21.49-1.17.5-1.62.36a1.45,1.45,0,0,0-.89-.16c-.28.06-.77.24-.79.57.18.09.35,0,.54.15s.38.36.75.4a6.12,6.12,0,0,0,1.21,0,3.72,3.72,0,0,1,1.48-.06c.23.09.34.32.48.5a7.94,7.94,0,0,0,.63.67c.3.28.71.51.88.9a5.26,5.26,0,0,1,.24,2.05,4.09,4.09,0,0,0,0,.78c.08.33.29.61.35,1a2.76,2.76,0,0,0,.4.91c.3.7.48,1.46.7,2.08.3.89.91,1,1.48,1.65s.26,1.19.55,1.89c.47,1.14,1.19,1.85.18,3.06-.29.36-.7.73-1,1.07-.44.5-.86.57-1.35.93a3.82,3.82,0,0,0-1,1.57c1.2,0,2.82-.14,3.57-1.1a1.26,1.26,0,0,1,.79-.55,3.28,3.28,0,0,0,1.21-.51,2.74,2.74,0,0,0,.56-.72c.21-.31.43-.23.75-.37a7,7,0,0,0,1.87-1.34,1.64,1.64,0,0,0,.31-.48,1.59,1.59,0,0,1,.44-.49,6.62,6.62,0,0,0,.76-.83c.52-.61.17-1.55.38-2.26.29-1,1.18-1.15,1.52-2s-.66-1.4-.65-2.15.94-1.15,1.09-2c.2-1.18-.43-1.08-1.19-1.67.7-2.12-1.32-1.21-2.28-2.28-.71-.79,0-1.09-1.32-1.44C64.18,81.69,63.39,81.55,63.06,82.37ZM60.38,92a1.35,1.35,0,0,1,0-.56.87.87,0,0,0-.33-.71c-.15-.15-.66-.3-.54-.59s.41-.23.26-.54-.35-.22-.43-.49a2,2,0,0,0-.22-.59c-.09-.14-.15-.13-.11-.32A1.1,1.1,0,0,1,59.2,88a1,1,0,0,1,.51.26c.24.17.5.31.74.47a2.77,2.77,0,0,1,.54.48,1.33,1.33,0,0,1,.14.44c0,.15.12.19.23.31a1.58,1.58,0,0,1,.34,1,2.36,2.36,0,0,1-.2.9c-.14.38-.55.75-1,.41A.64.64,0,0,1,60.38,92Z"/><path class="cls-1" d="M53.25,100.47a1.93,1.93,0,0,1-1.5-.47A2.89,2.89,0,0,1,51,98.09a3.47,3.47,0,0,1,.17-1.35,2.58,2.58,0,0,0,.17-.62c0-.21-.09-.41-.09-.63a2.87,2.87,0,0,1,.14.72,6,6,0,0,1,.12.72c0,.36,0,.62.24.91.06.06.22.2.2.29s-.17.12-.21.17c-.18.22.11.37.3.56a1.88,1.88,0,0,0,.55.41,2,2,0,0,1,.65.45c.1.13.11.2.28.27s.25,0,.27.13-.24,0-.36.1-.15.18-.25.21-.51-.11-.71-.09"/><path class="cls-1" d="M50.19,91.57s0,0,0,.07a4.22,4.22,0,0,1-1.79-.84,2.69,2.69,0,0,1-1.08-1.69,2.58,2.58,0,0,1-.09-1.29c0-.23.18-.67.38-.79a1.15,1.15,0,0,0,.36.62c.26.23.17.17.07.47a.78.78,0,0,0,.13.57c.15.25.44.35.58.53a1.62,1.62,0,0,1,.19.86.81.81,0,0,0,.32.66,2.17,2.17,0,0,1,.29.24,1.52,1.52,0,0,0,.26.35c.1.07.22.07.3.16a1.47,1.47,0,0,1,.13.24"/><path class="cls-3" d="M54.67,98.11l.27.34c.13.18.32.36.45.53-.64-.07-1.27,0-1.73-.56a3.24,3.24,0,0,1-.54-1.3,2.49,2.49,0,0,1,0-1.38c0,.12.19.53.25.65a3.27,3.27,0,0,0,.32.5C54,97.3,54.35,97.7,54.67,98.11Z"/><path class="cls-1" d="M53.64,95.85c.07.1,0,.35,0,.51a3.77,3.77,0,0,0,.16.6c.09.26.19.54.3.8a2.46,2.46,0,0,0,1.88,1c-.44.21-1.39-.74-1.59-1L53.94,97a6.84,6.84,0,0,0-.34-.72"/><path class="cls-1" d="M53.24,97.4c0,.07,0,.07,0,0a.83.83,0,0,1,0-.86c.15-.3.44-.28.66,0s.31.64.15.85a1.52,1.52,0,0,1-.47.2c-.23,0-.25-.12-.46-.21a.34.34,0,0,1,.09-.12"/><path class="cls-1" d="M53.16,95.2a4,4,0,0,0,.09,2.91,2.58,2.58,0,0,0,2,1.46,5.19,5.19,0,0,1-1.72-2,3.55,3.55,0,0,1-.37-1.17c-.06-.38.05-.75,0-1.15a.44.44,0,0,1,.17.22"/><path class="cls-4" d="M61.08,92.13a3.53,3.53,0,0,1,.11-.45,5.73,5.73,0,0,0,.14-.56,2,2,0,0,0-.07-1,4.16,4.16,0,0,0-1.39-1.92c.05.32.43.63.62.89a5.3,5.3,0,0,1,.57,1.34,3,3,0,0,1,.21,1.18c0,.26-.09.82-.46.51a3.27,3.27,0,0,1-.68-1.43,6.07,6.07,0,0,1-.52-1.75,3.49,3.49,0,0,1,.13-.84,3,3,0,0,0,.12.82,5.47,5.47,0,0,0,.2,1A6.73,6.73,0,0,0,60.49,91c.11.2.23.4.34.61a4.41,4.41,0,0,0,.24.54"/><path class="cls-1" d="M120.8,163.48c-3,1-6.16.65-9.24,1.25-2.52.49-5,1.21-7.55,1.84-1.59.4-3.81.22-5.29,1,1.89,4.2,6.11,7.61,8.86,11.33,1.86,2.54,3.18,5.83,5.15,8.14,1.91-2.93,6.64-3.51,9.7-4.94,7.41-3.46,14.59-7.23,22.21-10.26a92.89,92.89,0,0,0,24.55-15.05c2.86-2.39,5-4.57,5-8.32,0-2.8-1.64-4-4.32-4.85-5.33-1.78-10.56-3.74-16-5.31-9.3-2.72-18.93-3.26-28.53-4.83-6.81-1.11-13.2-3-19.7-4.6-2.77-.67-4.75.11-7.22,1.51-3.3,1.86-7.18,4.15-11,4.69-3.48.48-7.15-.8-10.69-.57-4.75.31-9,1.24-13.65,1.89a80.45,80.45,0,0,0-8.51,1.28,56.72,56.72,0,0,1-15.09,1.91c-2.66,0-5.39.18-8,.38-1.78.14-4.54.18-5.85,1.59-4.8,5.17,4.93,11.55,7.39,15.5,1.59,2.55,3.93,4.66,5.92,6.94,6,6.9,13.53,11.74,20.95,17a25.63,25.63,0,0,1,3.34,2.9c2.72-1.81,4.62-4.58,7.62-6.27a17.86,17.86,0,0,1,4.93-2.24,20.91,20.91,0,0,0,4.2-1c-1.61-1.39-3.82-2.19-5.79-3.1-3.48-1.61-6.32-3.95-9.46-6.09-2.83-1.93-5.6-3.72-8.49-5.48-1.34-.81-5-2.54-4.69-4.31,7.71.72,14.51-.61,22.31-2.21,3-.61,6.85-1.92,9.92-1.33a11.79,11.79,0,0,1,3,1.51,16.63,16.63,0,0,0,5,1.33A153,153,0,0,0,117,156.73c3.47,0,6.88,0,10.32-.32,3.06-.25,5.91-1.21,9-1.25.56,0,1-.3,1.62-.28a7.92,7.92,0,0,1,0,2.12c-1.19.62-2.66.39-3.94.67a37.61,37.61,0,0,0-4.65,1.51C126.14,160.3,123.94,162.4,120.8,163.48Z"/><path class="cls-3" d="M101.83,206.59c-.6-.21-1.87-2-2.48-2.66a15.84,15.84,0,0,0-2.79-2.36,41.25,41.25,0,0,1-7.09-5.81,2.32,2.32,0,0,0-1.42-.82c-.61-.1-1.21.19-1.67-.24-.8-.73.64-1.58-.4-2.3s-2.72.42-2.89-1.3c0-.44.32-1.1,0-1.42s-1,0-1.38.08c-.18-1.07,4.36-2.51,5.22-3.06s1.73-1.51,2.66-1.69c2-.36.92,1.39,1.4,2.26.67,1.25,2.6-.86,2.64.93,0,.57-.48,1,0,1.32s1.47.1,2,.26c1.44.47.36,1.79,1.28,2.49.3.23.94.34,1.32.59a5.42,5.42,0,0,1,1.12,1c.76.93,1.25,2,2,2.91s1.52,1.69,2.22,2.65c1,1.27,2.19,2.33,3.25,3.52.5.57,3,2.52,2.8,3.34a11,11,0,0,1-3.86.29c-1.36,0-2.65.13-4,.13"/><path class="cls-1" d="M101.6,206.39c.11-.26.54-.34.8-.46,1-.42,1.91-.85,2.87-1.26.77-.33,1.55-.64,2.35-.9a11.6,11.6,0,0,1,1.64,1.72c.12.17.38.51.3.73s-.28.32-.39.43a1.42,1.42,0,0,1-.51.32,4.73,4.73,0,0,1-1.66.34c-.61,0-1.22-.09-1.83-.09-.35,0-.7,0-1,0-.52-.05-1.05,0-1.55-.09s-.93-.09-1-.52A.35.35,0,0,1,101.6,206.39Z"/><path class="cls-1" d="M104.41,200.49c.73.81,1.53,1.56,2.27,2.37-2.07.76-4,1.75-6.08,2.57-.47-.56-.95-1.18-1.25-1.5s-.38-.37-.57-.55A12.2,12.2,0,0,0,104.41,200.49Z"/><path class="cls-1" d="M101.71,197.28c.61.72,1.24,1.38,1.81,2.16l.12.14a10.54,10.54,0,0,1-5.91,2.79l-.08,0a12.41,12.41,0,0,0-1.09-.82l-.44-.31C98.43,200.55,100.76,199.38,101.71,197.28Z"/><path class="cls-1" d="M99.47,194.12c.5.65.9,1.34,1.37,2a.07.07,0,0,0,0,0c-.64,2.48-3.49,3.59-5.94,4.22-.74-.54-1.47-1.1-2.19-1.69A23.26,23.26,0,0,0,99.47,194.12Z"/><path class="cls-1" d="M86,192.4a1.67,1.67,0,0,0-.87-.26,13.57,13.57,0,0,0,6.12-4.6c.8.59,2.37-1,2.41.66,0,.57-.48,1,0,1.32a.91.91,0,0,0,.29.1c-.79,2.63-4.79,4.18-7.74,4.75C86,193.71,86.86,193,86,192.4Z"/><path class="cls-1" d="M90.67,186.11c-1.26,2.49-4.48,4.64-7.48,5.44a1.36,1.36,0,0,1-.1-.45c0-.44.32-1.1,0-1.42s-1,0-1.38.08c-.18-1.07,4.36-2.51,5.22-3.06s1.73-1.51,2.66-1.69c1.12-.2,1.26.28,1.26.89A.65.65,0,0,0,90.67,186.11Z"/><path class="cls-1" d="M95.16,189.72a1.7,1.7,0,0,1,.42.06c1.44.47.36,1.79,1.28,2.49.3.23.94.34,1.32.59.17.12.33.25.48.38-1.94,1.72-4.32,3.84-7,4.62-.77-.68-1.52-1.37-2.21-2.1a2.42,2.42,0,0,0-1.11-.74C91.4,194.11,94.52,192.37,95.16,189.72Z"/><path class="cls-3" d="M64.51,185.74a7.74,7.74,0,0,0,3-.76c1.38-.5,2.71-1,4.11-1.53s2.88-1.21,4.37-1.72c1.06-.36,2-.88,3-1.3s2.15-.94,3.23-1.42a12.94,12.94,0,0,0,2.89-1.22c.53-.47.17-1.46.81-1.83.49-.28.65.26,1.08.17.65-.14.3-.66.35-1,.43-.07.49.38.87.42.7.08.67-.61.69-1.08.84-.33.8.44,1.53.3a.61.61,0,0,1,.43-.67c.45-.1.24.14.39.47a16.53,16.53,0,0,1,.64,1.75,12.26,12.26,0,0,0,1.34,2,16.55,16.55,0,0,1,1.47,2.87c.39,1.06,2,3.57-.14,3.41-.28,0-.42-.31-.77-.23s-.5.52-.7.85-.18.46-.52.57a.67.67,0,0,1-.92-.53c-.62-.11-.39.43-.54.75-.3.66-.26.31-.87.08-.76-.3-1.84.2-2.58.49-2.31.89-4.67,1.63-7,2.51-2.93,1.11-5.92,2-8.84,3.1-1.55.59-3.9,1.52-5.31.33a8.86,8.86,0,0,1-2.17-2.67,5.56,5.56,0,0,1-.52-1.76c-.1-.53-.57-1.45-.43-1.95.8-.24,1.73-.17,2.54-.46"/><path class="cls-1" d="M73.26,182.82c-.54.23-1.08.46-1.64.65s-1,.37-1.51.56a57.19,57.19,0,0,0,4.34,7.21l3.48-1.2A33.54,33.54,0,0,1,73.26,182.82Z"/><path class="cls-1" d="M79.72,184.18a18.58,18.58,0,0,1-2-3.16,17,17,0,0,1-1.73.73c-.62.21-1.22.47-1.82.72a32,32,0,0,0,4.74,7.23l1.78-.64c.7-.27,1.4-.51,2.1-.76C81.76,186.93,80.71,185.57,79.72,184.18Z"/><path class="cls-1" d="M82.55,178.91l-.34.12c-1.07.47-2.15,1-3.23,1.41l-.37.17a23.26,23.26,0,0,0,2.94,4.46c.71,1,1.45,1.93,2.17,2.9,1-.36,2.08-.74,3.12-1.13A35.46,35.46,0,0,1,82.55,178.91Z"/><path class="cls-1" d="M86.21,175.9a.54.54,0,0,0-.3.08c-.63.36-.27,1.36-.8,1.82a5.07,5.07,0,0,1-1.65.78,36.26,36.26,0,0,0,4.3,7.92,3.86,3.86,0,0,1,2.49-.44l.09,0A107.15,107.15,0,0,1,86.21,175.9Z"/><path class="cls-1" d="M94.42,184.52l.15,0c2.13.16.53-2.35.15-3.41a18.19,18.19,0,0,0-1.49-2.87,12.48,12.48,0,0,1-1.33-2c-.22-.61-.37-1.17-.64-1.75-.16-.32.06-.56-.39-.46a.49.49,0,0,0-.27.19C92.15,177.58,93.2,181.08,94.42,184.52Z"/><path class="cls-1" d="M89.64,174.48a.69.69,0,0,0-.73,0c0,.47,0,1.16-.69,1.08-.38-.05-.45-.5-.87-.43,0,.31.15.7-.09.92,1.06,3.3,2.56,6.43,3.92,9.61,0-.24.06-.47.48-.39a.67.67,0,0,0,.92.53c.34-.11.34-.27.52-.57a5.76,5.76,0,0,1,.33-.61A97.27,97.27,0,0,0,89.64,174.48Z"/><path class="cls-1" d="M69.19,184.37l-1.68.62-1,.38a68.17,68.17,0,0,0,4.55,7.08l.77-.29c.56-.22,1.12-.39,1.68-.59A63.8,63.8,0,0,1,69.19,184.37Z"/><path class="cls-4" d="M65.6,185.74c-.72.17-1.5.16-2.2.36-.13.51.34,1.42.43,2a5.64,5.64,0,0,0,.53,1.77,8.57,8.57,0,0,0,2.17,2.67c.94.79,2.3.63,3.56.27A80.32,80.32,0,0,1,65.6,185.74Z"/><path class="cls-1" d="M11.35,118.75a7.44,7.44,0,0,0,2-1.35c.83-.58,1.66-1.15,2.46-1.77,1.7-1.35,3.32-2.79,4.93-4.23a64.62,64.62,0,0,1,6.81-5c.67-.45,1.48-.74,2.2-1.13a3,3,0,0,0,1.08-.72c.23-.41-.14-.85-.36-1.19-.5-.81-1.17-1.57-1.62-2.42s-.69-1.51-1.09-2.25c-.27-.5-.63-1-.9-1.47a7.87,7.87,0,0,0,1.23-.74c.5-.25,1-.44,1.5-.64.72-.26.73-.15,1.06.43s.67,1.18.95,1.8c.49,1.09.76,2.22,1.35,3.29.46.81.87,1.59,1.39,2.36.39.58.72,1.19,1.12,1.76a29.91,29.91,0,0,0,3.18,3.6,23.45,23.45,0,0,0,3.22,2.64c.95.69,1.92,1.42,2.88,2.09s2.23,1.4,3.32,2.15c-.28.45-1,.72-1.4,1.12s-.64,1-1.1,1.12a37.16,37.16,0,0,0-5.18-3.38c-.46-.29-.95-.51-1.42-.78a6.54,6.54,0,0,1-.71-.45c-.2-.14-.38-.51-.66-.52a.69.69,0,0,0-.25.09c-.74.72-1.66,1.27-2.41,2-1,1-2,2-3.06,2.92-2.35,1.95-4.18,4.32-6.36,6.42a3,3,0,0,1-1.48.92,5.8,5.8,0,0,1-2,.13h0a.69.69,0,0,1-.3.09,4.39,4.39,0,0,1-1.1-.32c-.84-.36-1.65-.91-2.49-1.32l-.46-.26a10.75,10.75,0,0,1-1.06-.59l-.61-.35a18.36,18.36,0,0,1-2.15-1.14,11.36,11.36,0,0,1-1.59-1.5C11.9,119.86,11.19,119.29,11.35,118.75Z"/><path class="cls-1" d="M57.52,100.11a6,6,0,0,0-1.42,1.23c-.42.69.32.67.66,1.09a3.79,3.79,0,0,0-.65.55,1.6,1.6,0,0,1-.44.42c-.46.29-1,.51-1.49.78a6,6,0,0,1-.66.26,6.62,6.62,0,0,0-.93.54,4.79,4.79,0,0,1-4.34.42,8.41,8.41,0,0,0-2.38-.6,2.81,2.81,0,0,1-1.33-.45c-.32-.24-.56-.58-.9-.81s-1.16-.45-.83-.77c-.39-.14-1.18-.38-1.52-.07a1.56,1.56,0,0,0-.12-1c-.14-.38-.38-.75-.53-1.13s0-.5-.15-.72a2.87,2.87,0,0,0-.43,1.14c-.14-.77-.39-1.58-.47-2.39-.13-1.12-.32-2.22-.45-3.35a6.13,6.13,0,0,0-.11-1,3.82,3.82,0,0,1-.26-.74,6.22,6.22,0,0,1,.36-2.12,8.65,8.65,0,0,1,.42-1.45,7.45,7.45,0,0,1,2.59-3c.52-.37,1-.77,1.55-1.12s1-.51,1.47-.82A9.25,9.25,0,0,1,46.89,84c.37-.15,1-.6,1.39-.59a6.3,6.3,0,0,0-.4,1.18c.9.07,2.17-.9,3-1.3.19-.1.48-.35.63-.18.3.31-.16.41-.34.48a4.1,4.1,0,0,0-.79.54,16.11,16.11,0,0,1-2.2,1,16.12,16.12,0,0,0-3.32,1.74,14.27,14.27,0,0,0-1.25.91,5.21,5.21,0,0,0-1,1.8,3.09,3.09,0,0,0-.32.86c0,.25.07.53.06.77a11.14,11.14,0,0,0,0,2.16,12.9,12.9,0,0,0,.49,2.17,12.07,12.07,0,0,1,.72,1.82c0-.25-.1-.38.14-.51s.57,0,.75-.09c0,.42-.28.76-.34,1.19a2.12,2.12,0,0,0,.36.1c.13,0,.26-.15.37-.12.47.1.29.51.32.84.08.7.6.43,1.11.65A2,2,0,0,1,46,100c.31,0,.56-.4.89-.11s.11.83,0,1.16c.28.05.48-.13.8,0s1.06.93.94,1.36a7.65,7.65,0,0,1,2,.14c0,.14-.06.28-.08.42a3.49,3.49,0,0,1,.91,0c.41.08.66.15,1-.16s.39-.49.81-.65a8.39,8.39,0,0,0,1.41-.49c.42-.25.64-.66,1-1a8.32,8.32,0,0,1,1.23-.88,11.69,11.69,0,0,1,1.78-1.25c0,.42.2.45-.21.77S57.82,99.85,57.52,100.11Z"/><path class="cls-2" d="M67.29,56l.16.07a6.35,6.35,0,0,0,2.38.42c1.13.06,2.27.19,3.4.21a14,14,0,0,0,3-.3c1.7-.32,4-1,4.45-2.87a32.1,32.1,0,0,0,.64-5.81c.51-6.65.63-13.32,1-20,.12-1.89.39-3.76.44-5.66,0-1.47.12-3,.28-4.47.12-1,.2-2,.29-3.06a7.44,7.44,0,0,1,.3-1.63c.1-.29.39-.57.27-.89-1.49.36-2.91.88-4.34,1.38a21.08,21.08,0,0,1-2.34.59,11.18,11.18,0,0,1-3.76.56,6.4,6.4,0,0,0-2.46.1,3.92,3.92,0,0,1-2.37.14,5.42,5.42,0,0,0-1.36-.34c-.83,0-1.46.55-2-.31a11.53,11.53,0,0,1-.75-2.06A8.92,8.92,0,0,0,63,8.77a33.37,33.37,0,0,1,3.6-.29,39.51,39.51,0,0,1,5.75-.31,27,27,0,0,1,6.52,1,10.87,10.87,0,0,1,3.69,1.69,7.55,7.55,0,0,0,1.5,1,5.93,5.93,0,0,1-1.57,1A16.61,16.61,0,0,1,80,14.07,32.21,32.21,0,0,1,73.51,16a42.45,42.45,0,0,1-6,.13,19,19,0,0,1-5.93-1.09c-.82-.3-1.6-.43-2.42-.77-.49-.21-1-.47-1.42-.72-.78-.43-2.08-1-2.44-1.91.35.13.76.48,1.13.66s.76.39,1.16.6c.89.46,1.79.81,2.68,1.3a7.44,7.44,0,0,1-.73-1.73c-.28-.6-.59-1.17-.93-1.76-.14-.24-.23-.56-.53-.59a3.75,3.75,0,0,0-.94.39,9.41,9.41,0,0,0-1,.53c-.17.1-.69.43-.75.61s.12.61.17.87c.15.67.2,1.36.29,2,.21,1.58.57,3.13.78,4.7.54,4,1.38,8,1.86,12,.23,1.91.51,3.81.76,5.71s.39,3.8.81,5.67c.52,2.3,1.13,4.56,1.75,6.85q.45,1.68.93,3.33a4.56,4.56,0,0,0,.73,1.78,2.91,2.91,0,0,0,1.48.72A20.2,20.2,0,0,1,67.29,56Z"/><path class="cls-5" d="M61.45,17.24c-.62-.16-1.16-.53-1.76-.75-.44-.15-1.14-.49-1.46,0-.15.25.09.59.14.85s.13.74.19,1.11c.57,3.31.94,6.65,1.32,10a54.36,54.36,0,0,0,1.56,6.74,58.9,58.9,0,0,1,1.14,7.51,34.38,34.38,0,0,0,1.33,7,11.64,11.64,0,0,0,1.46,2.46c1.26,1.87,3.95,1.45,6,1.47,1.15,0,2.24.67,3.39.62A9.65,9.65,0,0,0,78,53.13c1.23-.51,1.51-1.57,1.87-2.83a40,40,0,0,0,1-6.21,126.63,126.63,0,0,0,.28-15c0-3.6.29-7.16-.13-10.74-.07-.66-.24-1.9-.87-2.31s-2,.56-2.73.72c-2.23.48-4.62.54-6.85.93a15.29,15.29,0,0,1-6.1.08C63.43,17.58,62.43,17.49,61.45,17.24Z"/><path class="cls-6" d="M75.19,49.66c0,.17-.15.74.35.59a.23.23,0,0,0,.15-.36c-.14-.16-.56,0-.75,0"/><path class="cls-6" d="M71.27,50.24a.32.32,0,0,0,.52.24c.33-.25-.2-.62-.4-.37"/><path class="cls-6" d="M72.72,47.9a.29.29,0,0,0,.39.41c.37-.16-.12-.61-.32-.36"/><path class="cls-6" d="M75.41,46.27s.11.06,0,.07a.27.27,0,0,0,.36.34c0-.23,0-.44-.37-.35"/><path class="cls-6" d="M72.29,44.92c.14.2.56.51.69.1.09-.24-.44-.66-.58-.34"/><path class="cls-6" d="M69.48,46.17c0,.06.08.09.1.15a.52.52,0,0,0,.18,0,.2.2,0,0,0-.35-.18"/><path class="cls-6" d="M67.94,48.86c.41.74.58-.21.06-.06"/><path class="cls-6" d="M66.16,48.33s.13.65.3.31a.22.22,0,0,0-.36-.24"/><path class="cls-6" d="M66.67,45.65s-.11.39.18.37.18-.43-.12-.44"/><path class="cls-6" d="M69.59,42.39c0,.13-.13.51.2.43s.16-.39-.13-.38"/><path class="cls-6" d="M71.45,38.92c0,.08,0,.48.32.35s.06-.58-.26-.47"/><path class="cls-6" d="M74.11,37.57s0,.08-.12.09A.59.59,0,0,0,74,38c.53,0,.28-.73-.06-.39"/><path class="cls-6" d="M71.8,35.45c-.16.21.28.51.58.29s-.14-.66-.4-.48"/><path class="cls-6" d="M70.07,33.08s.11.11.11.21c.55.09.42-.61-.07-.54a.17.17,0,0,0,0,.1"/><path class="cls-6" d="M67.82,29.13c.07.56.8-.44.05-.23a.29.29,0,0,0,0,.16"/><path class="cls-6" d="M71.7,29.41c-.14.17.23.52.37.19s-.33-.49-.52-.29"/><path class="cls-6" d="M70.82,27.17c0,.16.09.63.51.39s-.14-.72-.39-.46"/><path class="cls-6" d="M70.82,24.89c0,.15,0,.69.47.46s0-.57-.4-.47"/><path class="cls-6" d="M77.38,42c0,.16.33.51.58.21s-.69-.66-.65-.25"/><path class="cls-6" d="M78.16,39.27c-.4,0-.15.76.27.53s-.07-.8-.54-.5"/><path class="cls-6" d="M73.26,42.07c.12.29.71.26.69-.09s-1-.47-.84-.06"/><path class="cls-6" d="M64.9,38.78c.13.24.54.47.64,0,0-.2-.12-.37-.39-.35s-.3.16-.38.38"/><path class="cls-6" d="M64.92,42.43s0,0-.06,0c0,.2.28.16.47.1.18-.29-.15-.57-.51-.43a.54.54,0,0,0,0,.28"/><path class="cls-6" d="M64.23,45.94c-.09.2.26.65.45.27.09-.18-.17-.49-.4-.46s-.25.31-.29.5"/><path class="cls-6" d="M63.86,48.66c-.07.24,0,.74.43.69s.24-.73-.2-.59a.61.61,0,0,0,0,.27"/><path class="cls-6" d="M68,51c.2.22,1,.38.82-.15s-1-.11-.6.24"/><path class="cls-6" d="M76,51.4c-.11.21.1.54.36.29s0-.73-.24-.47"/><path class="cls-6" d="M77,49.17c-.46.87,1.11.55.56,0"/><path class="cls-6" d="M79.29,48.27h-.05c-.08,1.08,1.16-.38,0-.18"/><path class="cls-6" d="M78.36,46.78c0,.25.39.62.56.16.1-.28-.41-.51-.65-.32"/><path class="cls-6" d="M79.86,45.46c0,.24.2.36.35.08s-.19-.51-.53-.4"/><path class="cls-6" d="M77.28,45.19c.48.56.81-.49,0-.28"/><path class="cls-6" d="M75.25,44.86s.11.11.1.21c.42.19.64-.4.21-.47"/><path class="cls-6" d="M75.09,43.57c0,.31.52.52.64.15"/><path class="cls-6" d="M76.77,43.2h0c-.36.57.73.29.33.07"/><path class="cls-6" d="M75,41.41c.21.52.9-.15.31-.26"/><path class="cls-6" d="M75.51,40.15c-.05.51.76.25.33-.16"/><path class="cls-6" d="M69.34,24c.12.06-.16,0-.2,0,0,.15,0,.48.31.37s.11-.49-.19-.45"/><path class="cls-6" d="M66.5,23.23a.3.3,0,0,0,.43.23c0-.21-.35-.91-.53-.5"/><path class="cls-6" d="M64.84,19.65c.08.2.39.47.56.19s-.25-.46-.38-.38"/><path class="cls-6" d="M66.7,18l-.13,0a.71.71,0,0,0,0,.32c.3,0,.52-.13.42-.38"/><path class="cls-6" d="M67.4,16.27a.27.27,0,0,0-.13,0c-.06.27.19.3.34.13a.35.35,0,0,0-.19-.55"/><path class="cls-6" d="M68.37,13.42c0,.11.14.33.35.23s.12-.59,0-.68"/><path class="cls-6" d="M68.63,11c0,.1,0,.17.15.2a1,1,0,0,0,.13-.75"/><path class="cls-6" d="M66.11,9.4c0,.07.07.12,0,.22.45.06.58-.83.12-.69"/><path class="cls-7" d="M68,42c0,.16,0,.41-.27.43a1.46,1.46,0,0,1-.12-.33"/><path class="cls-6" d="M67.21,20.46c-.28.14-.23.92.21.67.28-.17.25-.88-.22-.73"/><path class="cls-6" d="M67.75,26.28c0-.1-.06-.18-.21-.14s0,.54.32.47S68,26,68,25.8"/><path class="cls-6" d="M69.46,25c.06,0-.14,0-.18.13s0,.3.09.35c.43.23.39-.38.35-.56a.19.19,0,0,0-.13,0"/><path class="cls-6" d="M69.32,27.29c.12,0-.09,0-.13,0,0,.31.11.52.51.38a.44.44,0,0,0-.12-.37.11.11,0,0,0-.11.07"/><path class="cls-6" d="M70.27,29.52c.06.15.37.51.6.23s-.11-.39-.33-.26"/><path class="cls-6" d="M69.33,30.89c0,.06,0,.18,0,.27.25,0,.67-.12.37-.32"/><path class="cls-6" d="M68.32,33.35c.05,0,.07,0,.05-.06-.24.28.37.57.65.22s-.13-.82-.25-.39"/><path class="cls-6" d="M70.14,37.76a.61.61,0,0,0-.42-.12c0,.34.64.67,1,.35s-.17-.88-.42-.47"/><path class="cls-6" d="M68.62,39.48a.55.55,0,0,0-.22-.1c-.19.25.23.52.54.41s.24-.65-.21-.55"/><path class="cls-6" d="M66.3,40.78c.13.13.31.59.68.55a.32.32,0,1,0-.13-.61"/><path class="cls-6" d="M67.29,43.29c0,.2.47.35.71.19.47-.33-.33-.62-.67-.53a.11.11,0,0,0,0,.11"/><path class="cls-6" d="M70.05,43.94c-.44.38,1.22.58.54-.07"/><path class="cls-6" d="M71.82,43.21c-.07.38.51.32.47-.05"/><path class="cls-6" d="M70.89,40.58c0,.08,0,.28.09.35s.38.1.42-.12"/><path class="cls-6" d="M72.46,38.74c-.25.29.63.89.49.06"/><path class="cls-6" d="M73.7,37c0,.22.21.51.36.19"/><path class="cls-7" d="M69.52,41.05c.06.22,0,.42-.35.38-.15-.32.24-.51.44-.22"/><path class="cls-6" d="M60.32,8.77a.31.31,0,0,0,.28.13c0-.15,0-.28-.21-.24a.09.09,0,0,0,0,.1"/><path class="cls-6" d="M67.83,7.66c.07.14.15.42.39.25s0-.61-.2-.39"/><path class="cls-7" d="M66.79,38.4a.22.22,0,0,1-.38.23c-.2-.25.26-.64.44-.29"/><path class="cls-7" d="M67.45,34.85a.53.53,0,0,1-.28.42c-.16-.17-.14-.73.21-.42"/><path class="cls-7" d="M67.39,32.11c0,.17,0,.47-.27.48a.44.44,0,0,1,0-.39"/><path class="cls-7" d="M65.83,31.44c0,.11,0,.17-.09.23a.51.51,0,0,1,0-.22"/><path class="cls-7" d="M66.94,26.93c.37,1.47-2-.34.12-.27"/><path class="cls-7" d="M67.18,23.84s0,.38,0,.49c-.73,0-.58-.84.05-1"/><path class="cls-7" d="M68,20.55c-.12.11-.13.23-.41.16a.67.67,0,0,1,0-.34A1.48,1.48,0,0,1,68,20.3"/><path class="cls-8" d="M54.72,13c-.22-1.85.92-3.45,2.13-4.77a24.64,24.64,0,0,1,5.54-4.35,5.63,5.63,0,0,1,3.09-1c1,0,2,.13,3,.12C69.77,3,71,2.6,72.2,2.61a8,8,0,0,1,3.41.76,11.42,11.42,0,0,1,3.22,1.7C79.8,6,80,7.5,81.1,8.32a3.33,3.33,0,0,1,1,1.12c.34.62,1,.85,1.49,1.39.1.11.18.24.28.35a4.87,4.87,0,0,0,.52.37,1.45,1.45,0,0,1,.62.86,2,2,0,0,1-.16,1.22c-.15.32-.47.45-.76.62s-1.06.6-1.49.42c-.17-.07-.16-.18-.23-.32a.48.48,0,0,0-.39-.29,2.23,2.23,0,0,0-1.17.12c-.31.09-.5.3-.79.41a4.63,4.63,0,0,1-1,.13,3.27,3.27,0,0,0-1,.3c-.21.1-.38.25-.6.33a4,4,0,0,1-1.09.12,3.16,3.16,0,0,0-.71.25L75,16c-.44.19-.69.59-1.11.84-.18.11-.53.27-.72.09s-.14-.37-.34-.53c-.4-.32-1-.08-1.44-.12a11.75,11.75,0,0,0-1.33,0,12.56,12.56,0,0,0-2.32.53A6.77,6.77,0,0,1,65,16.39a21.75,21.75,0,0,1-2.49-.66,9.06,9.06,0,0,1-2-.87,4.27,4.27,0,0,0-1.94-.47,4.08,4.08,0,0,1-1.93-.87c-.3.54-.08,1.39,0,2s0,1.38.1,2.08.13,1.49-.57,1.58-.81-.7-1-1.16a3.28,3.28,0,0,1-.19-1.2c0-.4.14-.82.11-1.21C54.91,14.75,54.83,13.85,54.72,13Z"/><path class="cls-2" d="M114.94,53.16l-.16.08a7.14,7.14,0,0,1-2.44.57c-1.18.13-2.35.33-3.52.42a15.27,15.27,0,0,1-3.17-.11c-1.79-.21-4.19-.76-4.83-2.58a30.82,30.82,0,0,1-1.08-5.76c-1-6.6-1.6-13.25-2.5-19.87-.26-1.88-.68-3.73-.86-5.62-.15-1.47-.34-3-.62-4.44-.18-1-.34-2-.51-3a6.89,6.89,0,0,0-.43-1.6c-.12-.29-.44-.55-.33-.87,1.57.26,3.08.69,4.61,1.1a20.6,20.6,0,0,0,2.47.44,12.23,12.23,0,0,0,4,.32,6.87,6.87,0,0,1,2.56,0,4.27,4.27,0,0,0,2.48,0,6.38,6.38,0,0,1,1.39-.43c.87-.08,1.56.46,2-.43a10.82,10.82,0,0,0,.63-2.1,8.66,8.66,0,0,1,1.48-3.44,36.48,36.48,0,0,0-3.77-.06,42.9,42.9,0,0,0-6,.06,28.79,28.79,0,0,0-6.71,1.43,11.25,11.25,0,0,0-3.72,1.92,8.42,8.42,0,0,1-1.49,1.12,6.19,6.19,0,0,0,1.71.93,17.25,17.25,0,0,0,2.63,1,34.2,34.2,0,0,0,6.9,1.53,44.57,44.57,0,0,0,6.22-.25A20.09,20.09,0,0,0,118,11.91c.84-.35,1.64-.53,2.47-.92a16.34,16.34,0,0,0,1.42-.81c.78-.48,2.09-1.17,2.41-2.06-.36.15-.76.53-1.13.73L122,9.52c-.89.52-1.8.93-2.69,1.47.36-.42.42-1.26.64-1.78s.53-1.2.84-1.81c.13-.25.2-.58.52-.62a3.6,3.6,0,0,1,1,.33c.37.14.72.29,1.08.46a2.7,2.7,0,0,1,.82.56c.1.23-.08.62-.12.88-.11.68-.11,1.37-.16,2.05-.1,1.59-.36,3.16-.48,4.74-.28,4-.87,8.06-1.08,12.12-.1,1.92-.27,3.83-.39,5.74a54.44,54.44,0,0,1-.44,5.71c-.38,2.33-.86,4.62-1.33,7-.24,1.14-.49,2.27-.74,3.39a4.44,4.44,0,0,1-.63,1.82,3.13,3.13,0,0,1-1.5.81A20.31,20.31,0,0,0,114.94,53.16Z"/><path class="cls-5" d="M118.28,14.08c.63-.2,1.17-.6,1.78-.86.44-.18,1.14-.56,1.52-.06.17.24,0,.6-.08.86s-.09.75-.13,1.12c-.35,3.34-.5,6.69-.67,10A51.53,51.53,0,0,1,119.55,32a56.31,56.31,0,0,0-.65,7.58,33,33,0,0,1-.89,7.1,11.27,11.27,0,0,1-1.34,2.54c-1.18,1.94-4,1.7-6.11,1.84-1.19.09-2.28.81-3.48.84a10.58,10.58,0,0,1-3.44-1c-1.32-.43-1.69-1.46-2.15-2.69A38.87,38.87,0,0,1,100,42.11a122.16,122.16,0,0,1-1.36-14.93c-.22-3.59-.81-7.12-.62-10.72,0-.67.12-1.92.74-2.37s2.09.43,2.89.55c2.36.33,4.85.24,7.2.49a16.64,16.64,0,0,0,6.34-.3C116.24,14.54,117.27,14.39,118.28,14.08Z"/><path class="cls-9" d="M106.27,47.31c0,.17.21.72-.32.61-.16,0-.3-.2-.18-.35s.58-.08.78-.07"/><path class="cls-9" d="M110.39,47.64a.33.33,0,0,1-.52.27c-.37-.23.16-.63.39-.39"/><path class="cls-9" d="M108.72,45.4a.29.29,0,0,1-.38.43c-.39-.14.09-.62.31-.38"/><path class="cls-9" d="M105.8,43.94s-.1.06.06.07a.27.27,0,0,1-.35.36c-.07-.23,0-.44.36-.37"/><path class="cls-9" d="M109,42.4c-.12.2-.54.54-.71.14-.1-.24.41-.69.58-.38"/><path class="cls-9" d="M112,43.46a1.29,1.29,0,0,1-.09.16.62.62,0,0,1-.19,0,.21.21,0,0,1,.36-.2"/><path class="cls-9" d="M113.76,46.05c-.37.76-.62-.17-.07-.06"/><path class="cls-9" d="M115.57,45.41s-.08.66-.29.33.19-.44.36-.27"/><path class="cls-9" d="M114.85,42.76s.15.39-.16.38-.21-.42.09-.44"/><path class="cls-9" d="M111.59,39.7c.06.13.17.5-.19.44s-.18-.38.12-.39"/><path class="cls-9" d="M109.41,36.35c0,.08,0,.49-.31.37s-.11-.57.24-.49"/><path class="cls-9" d="M106.54,35.17s0,.08.13.08a.5.5,0,0,1,0,.32c-.54.07-.34-.7,0-.39"/><path class="cls-9" d="M108.8,32.91c.18.2-.26.52-.59.32s.1-.67.39-.5"/><path class="cls-9" d="M110.43,30.44s-.11.11-.1.21c-.57.13-.48-.58,0-.55a.14.14,0,0,1,0,.11"/><path class="cls-9" d="M112.49,26.35c0,.56-.86-.39-.06-.23a.43.43,0,0,1,0,.16"/><path class="cls-9" d="M108.47,26.87c.17.17-.2.54-.37.21s.31-.5.52-.31"/><path class="cls-9" d="M109.23,24.59c0,.16,0,.63-.5.41s.09-.72.37-.48"/><path class="cls-9" d="M109.07,22.31c.07.14,0,.68-.46.49s0-.57.38-.5"/><path class="cls-9" d="M103.45,39.78c.06.16-.31.53-.58.25s.67-.71.66-.3"/><path class="cls-9" d="M102.45,37.12c.42,0,.21.75-.25.55s0-.8.53-.53"/><path class="cls-9" d="M107.74,39.61c-.09.3-.71.3-.72,0s1-.53.87-.11"/><path class="cls-9" d="M116.21,35.79c-.12.25-.52.51-.66.08-.07-.19.1-.37.38-.37s.32.14.42.35"/><path class="cls-9" d="M116.45,39.44s-.06,0,.06,0c0,.19-.28.18-.48.13-.21-.28.11-.58.5-.47a.68.68,0,0,1,.07.28"/><path class="cls-9" d="M117.42,42.89c.1.21-.24.67-.45.31-.11-.18.13-.5.38-.49s.28.3.33.48"/><path class="cls-9" d="M118,45.59c.09.24.06.74-.39.72s-.31-.72.16-.61a.88.88,0,0,1,0,.28"/><path class="cls-9" d="M113.86,48.16c-.18.23-1,.44-.85-.1s1-.17.63.2"/><path class="cls-9" d="M105.61,49.09c.12.21-.07.54-.36.32s-.1-.73.22-.49"/><path class="cls-9" d="M104.36,46.93c.54.85-1.11.63-.57.08"/><path class="cls-9" d="M101.91,46.18c-.11,0,0,0,0,0,.16,1.07-1.23-.31,0-.18"/><path class="cls-9" d="M102.77,44.63c0,.25-.37.65-.57.2-.13-.28.39-.54.65-.37"/><path class="cls-9" d="M101.12,43.41c0,.24-.18.38-.36.1s.16-.51.52-.43"/><path class="cls-9" d="M103.79,43c-.47.59-.88-.44,0-.28"/><path class="cls-9" d="M105.88,42.52s-.11.12-.1.21c-.42.22-.69-.35-.25-.45"/><path class="cls-9" d="M105.94,41.22c0,.31-.5.55-.65.19"/><path class="cls-9" d="M104.17,41h.06c.41.55-.74.33-.34.09"/><path class="cls-9" d="M105.91,39.06c-.18.54-.94-.09-.34-.24"/><path class="cls-9" d="M105.26,37.83c.1.52-.76.31-.34-.13"/><path class="cls-9" d="M110.54,21.3c-.12.07.17,0,.21,0,0,.15,0,.48-.29.39s-.15-.48.16-.46"/><path class="cls-9" d="M113.45,20.38a.32.32,0,0,1-.43.25c0-.2.29-.93.51-.53"/><path class="cls-9" d="M114.92,16.7c-.06.2-.38.49-.57.22s.23-.47.37-.4"/><path class="cls-9" d="M112.86,15.12l.13,0a.58.58,0,0,1,0,.32c-.31.06-.55-.1-.47-.35"/><path class="cls-9" d="M112,13.49a.28.28,0,0,1,.13,0c.09.26-.17.31-.34.15a.34.34,0,0,1,.16-.56"/><path class="cls-9" d="M110.81,10.7a.27.27,0,0,1-.36.26c-.24-.1-.15-.59,0-.68"/><path class="cls-9" d="M110.36,8.29a.18.18,0,0,1-.13.22.94.94,0,0,1-.2-.75"/><path class="cls-9" d="M112.88,6.55c0,.07-.07.13,0,.21-.46.1-.67-.78-.17-.68"/><path class="cls-10" d="M113.26,39.18c.06.16.06.41.32.41a1.35,1.35,0,0,0,.09-.33"/><path class="cls-9" d="M112.52,17.66c.29.12.29.9-.18.68-.3-.15-.33-.86.18-.74"/><path class="cls-9" d="M112.36,23.5c0-.11,0-.18.21-.15s.05.54-.3.49-.18-.61-.17-.81"/><path class="cls-9" d="M110.49,22.32c-.06,0,.14,0,.2.12s0,.3-.08.36c-.43.25-.43-.36-.39-.54a.29.29,0,0,1,.13,0"/><path class="cls-9" d="M110.8,24.61c-.12.05.09,0,.13,0,0,.31-.07.52-.5.42a.41.41,0,0,1,.1-.38.11.11,0,0,1,.12.05"/><path class="cls-9" d="M110,26.9c-.06.15-.35.53-.61.26s.09-.39.32-.28"/><path class="cls-9" d="M111,28.2c0,.06,0,.19,0,.27-.26,0-.7-.07-.4-.29"/><path class="cls-9" d="M112.27,30.59s-.07,0-.06-.05c.27.26-.34.59-.66.25s.08-.82.23-.4"/><path class="cls-9" d="M110.68,35.11a.64.64,0,0,1,.43-.15.65.65,0,0,1-1,.42c-.31-.27.12-.9.41-.51"/><path class="cls-9" d="M112.39,36.73a1.14,1.14,0,0,1,.22-.12c.22.24-.2.54-.53.45s-.3-.64.17-.57"/><path class="cls-9" d="M114.89,37.88c-.12.14-.27.61-.67.59a.32.32,0,1,1,.1-.62"/><path class="cls-9" d="M114.05,40.45c0,.2-.48.38-.73.24-.52-.3.3-.64.66-.58a.14.14,0,0,1,0,.11"/><path class="cls-9" d="M111.22,41.27c.48.36-1.23.66-.57,0"/><path class="cls-9" d="M109.33,40.66c.1.37-.51.35-.5,0"/><path class="cls-9" d="M110.11,38c0,.09,0,.28-.07.36s-.39.12-.45-.1"/><path class="cls-9" d="M108.35,36.24c.27.27-.6.92-.51.08"/><path class="cls-9" d="M106.93,34.57c0,.21-.19.52-.37.21"/><path class="cls-10" d="M111.56,38.36c0,.21,0,.41.39.35.13-.33-.29-.49-.47-.19"/><path class="cls-9" d="M118.85,5.55a.32.32,0,0,1-.28.15c-.06-.15,0-.28.21-.26a.14.14,0,0,1,0,.11"/><path class="cls-9" d="M111,4.92c-.07.14-.13.43-.39.27s0-.6.18-.4"/><path class="cls-10" d="M114.22,35.54a.23.23,0,0,0,.41.2c.19-.26-.31-.62-.48-.26"/><path class="cls-10" d="M113.28,32a.54.54,0,0,0,.32.41c.15-.19.09-.74-.25-.41"/><path class="cls-10" d="M113.15,29.3a.37.37,0,0,0,.31.46.41.41,0,0,0,0-.39"/><path class="cls-10" d="M114.72,28.52c0,.11,0,.17.12.23a.78.78,0,0,0,0-.22"/><path class="cls-10" d="M113.25,24.1c-.28,1.49,2.09-.47-.14-.26"/><path class="cls-10" d="M112.79,21s0,.37,0,.49c.76,0,.54-.87-.13-1"/><path class="cls-10" d="M111.71,17.8c.13.1.15.22.44.13a.65.65,0,0,0,0-.34,1.6,1.6,0,0,0-.44,0"/><path class="cls-8" d="M125,9.39c.1-1.86-1.2-3.39-2.54-4.62a25.6,25.6,0,0,0-6.07-4A6,6,0,0,0,113.07,0C112,.1,111,.28,109.91.34c-1.29.06-2.57-.28-3.85-.18a8.48,8.48,0,0,0-3.5,1A11.84,11.84,0,0,0,99.34,3C98.43,4,98.2,5.32,97.4,6.27c-.57.67-1.05,1.4-1.59,2.11s-1.22.86-1.65,1.59a6.64,6.64,0,0,0-.47,4.8c.14.49.32,2,1.19,1.84.6-.11.79-1.36,1-1.86s-.06-1.56.23-2.08,1.27-.56,1.84-.42c.33.08.54.27.85.36a7.08,7.08,0,0,0,1.13.08c.76.1,1.49.35,2.24.52s1.52.12,2.25.31a6.91,6.91,0,0,0,1.11.38,8.55,8.55,0,0,0,1.13,0c.75,0,1.53,0,2.27,0s1.53-.34,1.9.35.06,1.5.41,2.2,1.45.65,2.06.08.67-1.41,1.25-1.92c.32-.27.66-.19,1-.36s.54-.5.85-.69c1-.62,1.93-1.51,3-2a6.71,6.71,0,0,1,1.85-.47,4.31,4.31,0,0,0,2-1c.35.52.18,1.38.2,2s.07,1.37,0,2.08,0,1.5.71,1.54.79-.75.94-1.22a3.1,3.1,0,0,0,.11-1.21c0-.4-.2-.81-.19-1.2C124.91,11.18,124.93,10.27,125,9.39Z"/><path class="cls-8" d="M82.62,15.89c.57,1.23.48,2.57,1,3.76s1.31,4.18-1,3.86c-1.31-.18-.8-2.71-.8-3.72a11.49,11.49,0,0,1,.29-3.89,1.06,1.06,0,0,1,.5,0,1,1,0,0,1,0,.39"/></g></g></svg>