<svg xmlns="http://www.w3.org/2000/svg" viewBox="0 0 144.91 343.06"><defs><style>.cls-1,.cls-11,.cls-12{fill:#007293;}.cls-2{fill:#1d1d1b;}.cls-3{fill:#e30613;}.cls-4{fill:#e63027;}.cls-5{fill:#f9b233;}.cls-10,.cls-13,.cls-6,.cls-7,.cls-9{fill:#fff;}.cls-10,.cls-11,.cls-13,.cls-6,.cls-7{stroke:#fff;}.cls-10,.cls-11,.cls-12,.cls-13,.cls-6,.cls-7{stroke-miterlimit:10;}.cls-6{stroke-width:0.24px;}.cls-7{stroke-width:0.24px;}.cls-8{fill:#ededed;}.cls-10,.cls-12{stroke-width:0.18px;}.cls-11{stroke-width:0.2px;}.cls-12{stroke:#007293;}.cls-13{stroke-width:0.18px;}</style></defs><g id="Ebene_2" data-name="Ebene 2"><g id="Ebene_1-2" data-name="Ebene 1"><path class="cls-1" d="M63.53,72.3a7.38,7.38,0,0,0-1.3.54,8.08,8.08,0,0,1-4.64,1c-1.45-.2-3-.43-4.48-.6a14.54,14.54,0,0,1-2.24-.52,8.62,8.62,0,0,0-1.45-.51,13.83,13.83,0,0,0-1.38.15,25.52,25.52,0,0,1-3.81,0c-1.56-.17-2.6,1.89-2.76,3.27-.21,1.8.78,2.76,1.52,4.2a5.85,5.85,0,0,1,.33.82c.07.25.08.51.15.76s.17.57.26.86a23.88,23.88,0,0,0,.86,2.46l.41,1a6.46,6.46,0,0,1,.42.93,2.19,2.19,0,0,0,.35.76c.21.24.46.2.74.29l.54.17c.22,0,.44.08.66.11A4.94,4.94,0,0,0,49,88a8.54,8.54,0,0,1,1.6,0,1.47,1.47,0,0,0,.8-.14c.16-.08.45-.16.53-.33a1.76,1.76,0,0,0,.07-.4c0-.22,0-.44.08-.66a8.71,8.71,0,0,1,.48-1.23,9,9,0,0,1,.49-1.1c0-.1.07-.21.12-.32l.17-.31c.12-.23.28-.44.41-.67a6.6,6.6,0,0,1,.63-.93c.18-.24.36-.48.56-.7l.29-.29c.1-.12.21-.23.31-.34s.38-.36.58-.52.57-.31.82-.52a2.52,2.52,0,0,1,.85-.38,7.2,7.2,0,0,1,2-.32h.31c.94,0,2.1-.21,2.75.63.24.32.26.74.58,1a3,3,0,0,0,1.93.26c.22-.6-.49-1-.27-1.55.92-.19,1.71,1,2.7.62,1.33-.44-.7-1.67.18-2.37.66-.51,2.16.43,2.82-.22,1-1-1.21-1.25-.9-2a5.23,5.23,0,0,1,1.9.13c.48.13,1.2.41,1.56-.18a2.15,2.15,0,0,0-.28-1.89,5,5,0,0,0-3.5-1.92c-1.35-.09-2.38.84-3.69.8A6.92,6.92,0,0,0,63.53,72.3Z"/><path class="cls-1" d="M34.59,323.56c-.11.46-.27.95-.41,1.39a5.65,5.65,0,0,0-.33,2.23c0,.44.11.9.2,1.34a17.39,17.39,0,0,0,.44,2.58,25.35,25.35,0,0,1,.91,2.38,4,4,0,0,1-1.06,3.69,4.25,4.25,0,0,1-2.52,1.12,25.32,25.32,0,0,1-2.88.19c-2.13,0-4.19-.74-6.33-.74a36.41,36.41,0,0,0-4.4.37,6.41,6.41,0,0,0-2.17.4,9.54,9.54,0,0,1-3,1.07,28.43,28.43,0,0,1-3.46.18,17.13,17.13,0,0,1-2.58.18c-.56-.08-.48-.3-1,0a9.61,9.61,0,0,0-.93.78,2,2,0,0,1-2.29-.19c-.76-.76.35-1.1.4-1.85-.6-.09-1.22,0-1.82,0a10.7,10.7,0,0,1-1.25-.4c-.53-1.48,3.43-.44,2.69-2.33-.54-.08-1.33.1-1.81-.26s-.65-1,0-1.25c.48-.19,1.22.33,1.66.38s.94-.22,1.45-.22c.11-.55-1.07-.7-1.4-1.11-.52-.65-.12-1.25.46-1.66,1-.71,2.32.24,3.54.23a14.74,14.74,0,0,0,3.69-.32c1-.26,1.92-.81,2.92-1.11a11.1,11.1,0,0,0,3-1.64c1.81-1.19,3.78-2.14,5.65-3.12a10.1,10.1,0,0,0,3.42-3.08,10.06,10.06,0,0,1,.84-.89c.28-.31.5-.64.76-1,.39-.51.78-1,1.16-1.53.25-.33.4-.7.63-1a1.81,1.81,0,0,1,.42-.45c.25-.12.31.08.52.17a1.26,1.26,0,0,1,.5.23c.34.28.5.7.83,1,.84.76,1.79,1.39,2.67,2.11.31.26.89.57,1.09.93.11.18,0,.44,0,.67S34.64,323.37,34.59,323.56Z"/><path class="cls-2" d="M144.14,197.32a7.7,7.7,0,0,0-1.31-1.79c-1.08-1.1-3-.67-4.46-.67a52.28,52.28,0,0,0-9.44.66c-3.36.61-6.7,1.42-10.1,1.81-4.64.54-9.25,1.08-13.8,2-3.76.75-9.76,2.56-13.51.42,2,3.25,2.48,5.64,3,9.35,2.51.78,6.89-1.92,9.43-2.26a66.52,66.52,0,0,0,10-1.88,38.12,38.12,0,0,1,9.88-2c1.87-.06,3.75,0,5.63,0s3.22.75,4.94.75c-2.46,6.61-3.37,14-6,21.15A182.93,182.93,0,0,0,121.82,246c-3.46,1.26-7.06-4.52-8.16-7-1.82-4.09-4.51-7.43-7.24-11-1.1-1.44-2.2-2.88-3.28-4.34-1.36-1.85-2.73-3.72-4-5.67-.56-.86-1.1-1.74-1.7-2.58s-.94-1.7-1.46-2.53c-1-1.64-2.26-3.14-3.23-4.82-.37-.65-.75-1.3-1.13-1.94-.3-.48-4.14-5.53-4.35-5.75l-.73-.76A25.69,25.69,0,0,0,82,196.45c-.88-.6-1.79-1.14-2.68-1.72-.74-.48-1.42-1-2.2-1.48-1-.55-2.08-.94-3.06-1.55a15.2,15.2,0,0,0-2.56-1.26,3.4,3.4,0,0,1-1.15-.44,3.89,3.89,0,0,1-.45-1c-.89-2-1.8-3.95-2.58-6a114.82,114.82,0,0,1-4-12.53c-.62-2.41-1.16-4.85-1.67-7.29s-.91-4.62-1.29-7q-.72-4.39-1.16-8.83c-.41-4.28-.84-8.54-1.41-12.8-.5-3.71-.84-7.45-1.29-11.17-.37-3.09-1.11-6.08-1.65-9.13q-1.2-6.83-1.93-13.73c-.08-.78-.17-1.55-.27-2.32,0-.39-.1-.77-.17-1.16a4.53,4.53,0,0,1-.12-.9,1.49,1.49,0,0,0,0-.21c0-.37,0-.73,0-1.09s0-.81,0-1.22.06-.85.07-1.28c0-.74.09-1.49.12-2.23s.1-1.39.19-2.09.2-1.29.3-1.94.21-1,.28-1.5c0-.25.09-.51.13-.75s.13-.39.09-.56-.2.09-.29.14l-.29.17a3.64,3.64,0,0,1-.69.33c-.19.08-.37.21-.56.3a6.28,6.28,0,0,1-1.56.54q-.46.08-.93.12c-1.5.12-3,0-4.5.1a6.59,6.59,0,0,0,0,.77c0,.73.07,1.45.07,2.18,0,.57,0,1.13,0,1.7s0,1.4.1,2.1.09,1.6.17,2.39c0,.45.11.9.18,1.35s.09.76.15,1.14.06.77.08,1.15.08.73.12,1.09.14.87.14,1.31.12,1,.18,1.57c.11,1,0,2,.09,3,.06.51.06,1,.12,1.53,0,.12,0,.25,0,.37.37,6,1.31,12,1.9,18.07.46,4.8,1.19,9.63,1.19,14.45v2.08c0,1.37.16,2.64.16,4,0,2.77-.1,5.6.16,8.31.08.9-.07,1.83,0,2.73a26.71,26.71,0,0,1,.28,3.36c0,3-.18,6-.16,8.95,0,3.2-.22,6.52-.49,9.71-.14,1.69.13,3.41,0,5.09a49.72,49.72,0,0,0-.29,5c0,1.66-.32,3.3-.32,5V198a78.29,78.29,0,0,1-.12,9.57c-.28,2.21-.62,4.35-1,6.55a39.91,39.91,0,0,0-.53,4.06c-.05.91.21,1.76.12,2.69-.28,2.83-.55,5.65-.87,8.47-.45,3.87-1,7.73-1.47,11.6-.44,3.71-.22,7.87-1.3,11.45-.62,2.07-1.92,3.78-2,6-.1,1.64.45,3.21.5,4.84a34.36,34.36,0,0,1-.87,6c-1.51,10.09-2.85,20.21-6.06,29.81-1,2.93-1.81,5.9-2.62,8.87-.41,1.49-.81,3-1.22,4.47-.19.68-.44,1.35-.69,2a18.61,18.61,0,0,1-1.24,2.68l-.71,1.2A19.45,19.45,0,0,1,27.31,320c-.2.25-.33.53-.51.78s-.34.39-.49.6-.31.41-.48.61a2.68,2.68,0,0,0-.48.74,6.5,6.5,0,0,1,1.95.39,10.27,10.27,0,0,1,1.39.64c.46.25.85.59,1.3.85a11.15,11.15,0,0,0,3.92,1.45,1.35,1.35,0,0,0,.8,0c.17-.12.24-.46.29-.65.14-.61.28-1.22.44-1.82.29-1.14.6-2.37.85-3.5.15-.66.21-1.29.38-1.95.09-.36.13-.72.21-1.09a7.59,7.59,0,0,1,.49-1.75,8.88,8.88,0,0,0,.7-1.75l2.07-6.74c1.67-5.4,3.34-10.8,4.94-16.23,1.15-3.9,2.27-7.82,3.44-11.73,1.11-3.68,2.66-7.17,3.69-10.88.95-3.4,1.89-6.8,2.89-10.18q.75-2.59,1.57-5.16c.53-1.67,1-3.35,1.54-5.05a95,95,0,0,0,2.52-9.72c.65-3.72.8-7.45,1.89-11.11.48-1.57,1.24-3.06,1.68-4.65.33-1.17.76-2.33,1-3.52,0-.14.07-.28.11-.43s.18-.56.28-.84a17.46,17.46,0,0,1,1.14-2.53c.19-.32.38-.61.59-.9a1.42,1.42,0,0,1,.25-.34c.14-.12.39-.11.51-.25h0a3.56,3.56,0,0,1,.91.72c2.71,3,4,8.31,5.68,12.11,2.2,4.85,4.28,9.8,6.59,14.58a62.28,62.28,0,0,0,3.12,6.16,37.69,37.69,0,0,1,3.78,6.94c.62,1.67,1.64,3.53,1.65,5.33,0,2.07-.16,4.14-.29,6.21s-.1,3.91-.16,5.86a5.61,5.61,0,0,1,0,.58c-.05.4-.14.82-.15,1.23a36.91,36.91,0,0,1-.26,4.07c-.21,1.46-.42,2.92-.64,4.38-.5,3.25-1.49,6.21-2.21,9.4C84.67,297.88,83.13,305,82,312.14a94.72,94.72,0,0,0-1.56,14,44.81,44.81,0,0,0,.69,9.54c.34,1.57,1.06,3,2.57,3.55a15.69,15.69,0,0,0,5.12.87c2,0,3.81.44,5.77.47,2.37,0,4.87.55,7.28.24a32.83,32.83,0,0,1,3.5-.7c1.23,0,2.47,0,3.71,0,2.1-.05,4.09-.46,6.18-.46a43.3,43.3,0,0,0,5.43-.27,11.22,11.22,0,0,1-.69-3c-.06-.51-.07-1-.17-1.45a7.4,7.4,0,0,1-.32-1.54c-.53,0-1-.22-1.59-.27a8.1,8.1,0,0,0-1.86.24c-1.69.21-3.47-.43-5.1-.76-3.16-.65-6.55-1.49-9.77-2a39.39,39.39,0,0,1-8.46-2.1c-.78-.3-2.5-.34-3-1.15-.65-1-.06-2.64.2-3.64.42-1.61.85-3.23,1.21-4.86.49-2.24.46-4.61,1-6.88a29.64,29.64,0,0,0,.92-6.56,23.45,23.45,0,0,1,1-7,30.18,30.18,0,0,1,1.18-2.89c.05-.12.11-.24.15-.36a17.29,17.29,0,0,1,1-2.67c.5-.82,2.88-3,3.78-2.5.09,0,.18.12.27.18a4.1,4.1,0,0,1,.47.35,5.88,5.88,0,0,1,.59.53,1.68,1.68,0,0,1,.25.33,3.65,3.65,0,0,0,.18.34c.06.08.16.13.22.21a2.35,2.35,0,0,1,.23.32,4.29,4.29,0,0,1,.37.78c.12.29.22.59.32.89a14.67,14.67,0,0,1,.61,3,10.21,10.21,0,0,1,.08,1.46,6.65,6.65,0,0,0,0,1.34,8.69,8.69,0,0,0,1-.66c.32-.21.62-.46.93-.68s.62-.33.93-.5c1.43-.79,2.92-1.46,4.35-2.27.46-.26.9-.55,1.38-.77s.7-.22,1-.38c.69-.32,1.34-.77,2-1,.48-.18,1-.4,1.47-.54.23-.07.45,0,.68-.11s.45-.22.69-.31c-.17-.4-.53-.73-.73-1.12a10.5,10.5,0,0,1-.42-1c-.13-.32-.32-.6-.46-.92-.3-.69-.57-1.4-.82-2.11a14.46,14.46,0,0,1-.48-2.56,15.44,15.44,0,0,1,0-4.24c.09-.7.64-1.17,1-1.71.2-.32.4-.65.62-.94a2,2,0,0,1,.65-.48,9.9,9.9,0,0,0,1.55-1.13c2.19-2.1,5.22-1.95,7.43-4.19a18.71,18.71,0,0,0,3.63-6.16c.8-2,2.08-3.83,2.31-5.95.13-1.1.38-2.09.53-3.17.34-2.37.87-4.77,1.16-7.14a34,34,0,0,1,.74-3.36c.27-1.13.24-2.31.49-3.43a60.65,60.65,0,0,0,.68-6.89c.52-5.29,2.32-10.71,4-15.89.89-2.77,1.59-5.62,2.43-8.4a54.42,54.42,0,0,0,2.15-7.94C145,201.41,145.15,199.28,144.14,197.32Z"/><path class="cls-1" d="M106.34,57.21a53.66,53.66,0,0,0,.11-9.49l1.36-.16c3.77-.88,5.42-3.66,6-7.44a52.59,52.59,0,0,0-.3-7.31,6.49,6.49,0,0,0-.27-2.3c-9.62,0-17.41,0-19,.23A28.18,28.18,0,0,1,94,34a8.54,8.54,0,0,0-.12,1.61c.29,3.4.4,6.72,2.92,9.34a10.56,10.56,0,0,0,6.72,2.84c0,.84-.12,1.86-.12,2.28,0,1.16.29,2.65.21,3.77-.14,2.21,0,4.3,0,6.44a11.24,11.24,0,0,1-.29,3.37,4.16,4.16,0,0,1-2.08,2.41,6.54,6.54,0,0,1-1,.38c-.63.23-1.29.5-1.91.67a8.56,8.56,0,0,1-.87.23,3.28,3.28,0,0,0-.87.28c-.11,0-.16.09-.17.21s.24.38.39.47.51.36.77.52a12.29,12.29,0,0,0,3.08,1,12.4,12.4,0,0,0,3.54.43,28,28,0,0,0,3.66-.15,14.17,14.17,0,0,0,3.29-.69,7.38,7.38,0,0,0,1.3-.53,5.17,5.17,0,0,0,.69-.46,1.1,1.1,0,0,0,.31-.26c0-.07.12-.35,0-.4a2.07,2.07,0,0,0-.5-.15,6.21,6.21,0,0,1-.61-.2L111,67c-.61-.22-1.24-.39-1.85-.59l-.64-.19a9.12,9.12,0,0,1-1-.45,1.85,1.85,0,0,1-.81-.73,5,5,0,0,1-.51-1.55,16.09,16.09,0,0,1-.12-3.86C106.15,58.79,106.24,58,106.34,57.21Z"/><path class="cls-3" d="M104.81,45.61c-3.06.38-7.12-1.49-8-4.64a8.8,8.8,0,0,1-.39-1.77c-.1-1.19-.57-2.26-.37-3.5.09-.53.46-1.65,1.21-1.44s.6,1.74,1.66,1.42c.25-1.8-2.81-3-2.5-4.87.18-1.09,1.6-.91,2.37-.45a3.63,3.63,0,0,1,1.47,2,13.64,13.64,0,0,1,.24,3.08c0,.51.48,2.85,1.54,1.79.43-.43-.18-.94,0-1.3.33-.58.89-.15,1.08.25.33.68,0,2.17,1.23,2.12,1,0,1.12-1.58.94-2.37-.22-1-1.23-1.74-1.45-2.74-.18-.81,0-2.23,1.12-1.46.58.4.71,2,1.78,1.59s.47-2,.59-2.75A5.67,5.67,0,0,1,109,27.85c.51-.51,1.87-1.53,2.53-.9s.36,2-.06,2.64-2.08,2.69-.23,2.55a18.08,18.08,0,0,0,.14,2.61c0,.9.12,1.79.12,2.74a11.88,11.88,0,0,1-1.41,5.7A3.18,3.18,0,0,1,107.81,45,26.54,26.54,0,0,1,104.81,45.61Z"/><path class="cls-4" d="M101.58,33c0-2,.25-3.41-1.47-4.72-.63-.48-1.75-.93-1.19-1.88a1.44,1.44,0,0,1,2.07-.25c.56.48.49,1.37,1.18,1.74.35.18.53-.44.89.12.2.32-.12.86-.19,1.15-.22.89.09,4.2-1.27,4.26,0-.33,0-.67,0-1"/><path class="cls-1" d="M46,67.94l-.13.06a5.62,5.62,0,0,1-1.88.44c-.9.09-1.8.25-2.71.32a11.75,11.75,0,0,1-2.44-.08c-1.37-.16-3.22-.59-3.71-2a25.47,25.47,0,0,1-.84-4.43c-.76-5.08-1.22-10.2-1.92-15.29-.2-1.45-.52-2.87-.66-4.33-.11-1.13-.26-2.3-.47-3.42-.15-.78-.27-1.56-.4-2.34a5.33,5.33,0,0,0-.33-1.23c-.09-.22-.33-.42-.26-.67,1.21.2,2.37.53,3.55.84a17.62,17.62,0,0,0,1.9.35,9.75,9.75,0,0,0,3,.24,5.26,5.26,0,0,1,2,0,3.32,3.32,0,0,0,1.9,0A4.71,4.71,0,0,1,43.67,36c.67-.06,1.2.35,1.57-.33a9.13,9.13,0,0,0,.48-1.62,6.74,6.74,0,0,1,1.14-2.65,28.06,28.06,0,0,0-2.9,0,33.9,33.9,0,0,0-4.62,0,22.4,22.4,0,0,0-5.16,1.1A8.61,8.61,0,0,0,31.31,34a5.88,5.88,0,0,1-1.14.86,4.83,4.83,0,0,0,1.31.72,13.32,13.32,0,0,0,2,.74,26.13,26.13,0,0,0,5.31,1.18,33.24,33.24,0,0,0,4.78-.19,15.61,15.61,0,0,0,4.69-1.12c.65-.28,1.26-.41,1.9-.71a10.65,10.65,0,0,0,1.09-.63c.61-.36,1.61-.89,1.85-1.58-.27.11-.58.41-.86.56l-.9.52c-.69.4-1.39.71-2.07,1.13.28-.33.32-1,.49-1.37s.41-.92.65-1.39c.1-.2.15-.45.39-.48a2.88,2.88,0,0,1,.77.25,8.67,8.67,0,0,1,.83.36c.13.07.57.3.63.43S53,33.77,53,34c-.08.53-.09,1.06-.12,1.58-.08,1.22-.29,2.43-.37,3.65-.22,3.11-.68,6.2-.84,9.32-.08,1.48-.2,3-.29,4.42a43.23,43.23,0,0,1-.35,4.4c-.29,1.79-.66,3.55-1,5.34q-.27,1.32-.57,2.61a3.58,3.58,0,0,1-.48,1.4,2.35,2.35,0,0,1-1.15.62A16,16,0,0,0,46,67.94Z"/><path class="cls-5" d="M48.54,37.86c.49-.15.9-.46,1.37-.65s.88-.44,1.17-.05c.13.18,0,.46-.06.66s-.07.57-.1.86c-.27,2.57-.39,5.15-.52,7.73a37.85,37.85,0,0,1-.88,5.25,43.67,43.67,0,0,0-.5,5.83A25.59,25.59,0,0,1,48.34,63a8.74,8.74,0,0,1-1,1.95c-.9,1.5-3.08,1.31-4.69,1.42-.92.07-1.76.63-2.69.64a7.89,7.89,0,0,1-2.64-.74c-1-.33-1.3-1.13-1.66-2.07a30.12,30.12,0,0,1-1.11-4.73,91.71,91.71,0,0,1-1-11.48A73.66,73.66,0,0,1,33,39.69c0-.51.1-1.47.57-1.81s1.61.33,2.23.41c1.81.26,3.73.19,5.54.38a12.68,12.68,0,0,0,4.88-.23C47,38.22,47.77,38.1,48.54,37.86Z"/><path class="cls-6" d="M39.3,63.44c0,.13.17.55-.24.47-.13,0-.23-.16-.14-.28s.45-.06.6-.05"/><path class="cls-6" d="M42.47,63.69a.25.25,0,0,1-.39.21c-.29-.18.12-.49.29-.3"/><path class="cls-6" d="M41.19,62a.23.23,0,0,1-.29.34c-.31-.11.06-.48.23-.3"/><path class="cls-6" d="M38.94,60.84s-.08,0,0,0c.06.16,0,.33-.27.28-.05-.17,0-.34.28-.28"/><path class="cls-6" d="M41.37,59.66c-.1.15-.42.41-.55.1s.31-.53.45-.28"/><path class="cls-6" d="M43.68,60.47c0,.05,0,.08-.07.12h-.14a.16.16,0,0,1,.27-.15"/><path class="cls-6" d="M45.06,62.47c-.28.58-.47-.13-.05,0"/><path class="cls-6" d="M46.46,62s-.06.51-.22.26.14-.34.27-.21"/><path class="cls-6" d="M45.91,59.93s.11.3-.13.3-.16-.32.07-.34"/><path class="cls-6" d="M43.39,57.58c0,.1.14.38-.14.34s-.14-.3.09-.3"/><path class="cls-6" d="M41.72,55c0,.07,0,.38-.24.29s-.08-.44.18-.38"/><path class="cls-6" d="M39.51,54.1s0,.06.1.06a.39.39,0,0,1,0,.24c-.43.06-.26-.54,0-.3"/><path class="cls-6" d="M41.25,52.36c.13.15-.21.4-.45.24s.07-.51.29-.38"/><path class="cls-6" d="M42.5,50.45s-.08.09-.07.17c-.44.1-.38-.45,0-.43,0,0,0,.06,0,.08"/><path class="cls-6" d="M44.09,47.3c0,.44-.67-.29-.05-.17a.28.28,0,0,1,0,.13"/><path class="cls-6" d="M41,47.71c.12.12-.16.41-.29.16s.24-.39.4-.24"/><path class="cls-6" d="M41.58,46c0,.12,0,.49-.39.32s.08-.56.29-.37"/><path class="cls-6" d="M41.46,44.2c0,.11,0,.53-.36.37s0-.44.3-.38"/><path class="cls-6" d="M37.13,57.65c0,.12-.23.4-.45.18s.52-.54.51-.22"/><path class="cls-6" d="M36.36,55.59c.32,0,.17.58-.19.42s0-.61.41-.4"/><path class="cls-6" d="M40.43,57.51c-.07.23-.54.23-.55,0s.74-.4.67-.09"/><path class="cls-6" d="M47,54.57c-.09.2-.4.39-.51.07,0-.15.08-.29.3-.29s.24.1.32.27"/><path class="cls-6" d="M47.14,57.38s0,0,0,0c0,.15-.22.13-.37.09-.16-.21.09-.44.39-.36a.59.59,0,0,1,0,.22"/><path class="cls-6" d="M47.88,60c.08.15-.18.51-.35.23s.11-.38.3-.37.21.22.25.37"/><path class="cls-6" d="M48.32,62.11c.07.19,0,.57-.3.56s-.24-.56.12-.47a.5.5,0,0,1,0,.21"/><path class="cls-6" d="M45.14,64.09c-.14.18-.8.34-.65-.08s.79-.13.48.16"/><path class="cls-6" d="M38.79,64.81c.1.15,0,.41-.27.24s-.08-.56.17-.38"/><path class="cls-6" d="M37.83,63.14c.42.65-.86.48-.43.07"/><path class="cls-6" d="M35.94,62.57H36c.12.83-1-.23,0-.14"/><path class="cls-6" d="M36.61,61.38c0,.19-.28.49-.44.15s.3-.42.5-.28"/><path class="cls-6" d="M35.34,60.44c0,.18-.14.28-.28.07s.12-.39.4-.33"/><path class="cls-6" d="M37.39,60.11c-.36.45-.68-.35,0-.22"/><path class="cls-6" d="M39,59.75s-.09.09-.07.16c-.33.17-.54-.27-.2-.35"/><path class="cls-6" d="M39.05,58.75c0,.24-.38.42-.5.15"/><path class="cls-6" d="M37.69,58.55c-.1,0,0,0,0,0,.32.42-.57.25-.26.06"/><path class="cls-6" d="M39,57.09c-.14.41-.73-.07-.27-.19"/><path class="cls-6" d="M38.53,56.14c.07.4-.59.24-.27-.1"/><path class="cls-6" d="M42.59,43.42c-.09.06.13,0,.16,0s0,.37-.23.3-.11-.37.13-.35"/><path class="cls-6" d="M44.82,42.71a.25.25,0,0,1-.33.2c0-.16.23-.72.4-.41"/><path class="cls-6" d="M46,39.88c-.05.16-.29.38-.44.17s.17-.36.28-.3"/><path class="cls-6" d="M44.37,38.67l.11,0a.52.52,0,0,1,0,.25c-.24,0-.43-.08-.37-.27"/><path class="cls-6" d="M43.73,37.41a.17.17,0,0,1,.1,0c.07.2-.13.24-.26.11a.26.26,0,0,1,.12-.43"/><path class="cls-6" d="M42.79,35.27a.2.2,0,0,1-.27.19c-.19-.07-.12-.45,0-.52"/><path class="cls-6" d="M42.45,33.41a.15.15,0,0,1-.1.17A.68.68,0,0,1,42.2,33"/><path class="cls-6" d="M44.38,32.07s0,.1,0,.17c-.35.07-.51-.61-.13-.53"/><path class="cls-7" d="M44.68,57.18c0,.12,0,.31.24.32a.87.87,0,0,0,.08-.26"/><path class="cls-6" d="M44.11,40.62c.22.09.23.69-.14.52s-.25-.66.14-.57"/><path class="cls-6" d="M44,45.11c0-.08,0-.13.16-.11s0,.41-.23.38-.14-.47-.13-.63"/><path class="cls-6" d="M42.55,44.21s.11,0,.15.09a.26.26,0,0,1-.06.28c-.33.19-.33-.28-.3-.42h.1"/><path class="cls-6" d="M42.79,46c-.1,0,.07,0,.1,0,0,.23-.06.4-.39.32a.33.33,0,0,1,.08-.3.11.11,0,0,1,.09,0"/><path class="cls-6" d="M42.15,47.73c0,.11-.27.41-.47.2s.07-.3.25-.22"/><path class="cls-6" d="M43,48.73c0,.05,0,.15,0,.21-.21,0-.54-.06-.31-.23"/><path class="cls-6" d="M43.92,50.57s-.06,0,0,0c.2.2-.27.46-.52.2s.07-.64.18-.31"/><path class="cls-6" d="M42.7,54.05a.43.43,0,0,1,.33-.11.49.49,0,0,1-.74.31c-.24-.21.09-.68.31-.38"/><path class="cls-6" d="M44,55.29a.89.89,0,0,1,.17-.08c.17.18-.15.41-.41.34s-.23-.49.14-.44"/><path class="cls-6" d="M45.93,56.18c-.09.11-.21.47-.51.45a.24.24,0,1,1,.08-.47"/><path class="cls-6" d="M45.29,58.16c0,.15-.37.29-.57.18-.39-.23.23-.49.52-.44a.11.11,0,0,1,0,.08"/><path class="cls-6" d="M43.11,58.79c.37.27-.94.51-.44,0"/><path class="cls-6" d="M41.65,58.32c.08.28-.39.26-.38,0"/><path class="cls-6" d="M42.26,56.25c0,.07,0,.21-.06.27s-.3.1-.34-.07"/><path class="cls-6" d="M40.9,54.91c.21.21-.46.72-.39.07"/><path class="cls-6" d="M39.81,53.63c0,.16-.14.4-.28.16"/><path class="cls-7" d="M43.37,56.55c0,.16,0,.31.3.27.11-.25-.22-.38-.36-.15"/><path class="cls-6" d="M49,31.3a.23.23,0,0,1-.21.12c-.05-.12,0-.22.15-.2a.08.08,0,0,1,0,.08"/><path class="cls-6" d="M42.91,30.82c0,.11-.09.33-.29.2s0-.46.14-.3"/><path class="cls-7" d="M45.42,54.38a.17.17,0,0,0,.31.15c.15-.2-.24-.47-.36-.2"/><path class="cls-7" d="M44.7,51.68a.38.38,0,0,0,.24.31c.12-.14.07-.57-.19-.31"/><path class="cls-7" d="M44.59,49.57c0,.14.06.36.24.36a.3.3,0,0,0,0-.3"/><path class="cls-7" d="M45.8,49c0,.08,0,.13.09.18a.33.33,0,0,0,0-.17"/><path class="cls-7" d="M44.67,45.57c-.21,1.15,1.61-.36-.11-.2"/><path class="cls-7" d="M44.32,43.21s0,.29,0,.38c.58,0,.41-.67-.1-.77"/><path class="cls-7" d="M43.49,40.73c.1.08.11.17.33.1a.61.61,0,0,0,0-.27,1.31,1.31,0,0,0-.34,0"/><path class="cls-8" d="M53.69,34.25c.08-1.43-.92-2.6-2-3.55a19.76,19.76,0,0,0-4.67-3.07A4.71,4.71,0,0,0,44.53,27c-.81.07-1.62.21-2.43.25-1,.05-2-.21-3-.14a6.72,6.72,0,0,0-2.69.75A9.26,9.26,0,0,0,34,29.36c-.69.73-.87,1.76-1.48,2.49-.44.52-.82,1.08-1.23,1.63s-.93.66-1.27,1.22a5.11,5.11,0,0,0-.36,3.69c.11.39.25,1.54.92,1.42.46-.08.6-1,.73-1.43s-.05-1.2.18-1.6,1-.43,1.41-.32c.25.06.42.21.66.28a4.91,4.91,0,0,0,.86,0c.59.08,1.15.28,1.73.41s1.17.09,1.73.24a5,5,0,0,0,.85.28,8.62,8.62,0,0,0,.87.05c.58,0,1.18,0,1.75,0s1.18-.27,1.46.27,0,1.15.32,1.69,1.11.5,1.58.06.51-1.09,1-1.47c.24-.21.5-.15.74-.29s.42-.38.66-.53c.77-.47,1.48-1.16,2.28-1.57a5.18,5.18,0,0,1,1.43-.36,3.26,3.26,0,0,0,1.49-.76c.27.4.14,1.06.16,1.55s.05,1.06,0,1.6,0,1.15.54,1.19.61-.58.73-1a2.25,2.25,0,0,0,.08-.93c0-.3-.15-.62-.15-.92C53.64,35.63,53.66,34.94,53.69,34.25Z"/><path class="cls-1" d="M75.44,67.72c-2.53-1-1.7-8-1.46-9.81a62.86,62.86,0,0,0,.13-10.81c.12,0,1.42-.16,1.53-.19,4.28-1,6.14-4.16,6.79-8.46a24,24,0,0,0-.05-4.07A11.46,11.46,0,0,0,82.21,32c-.17-.72-.4-1.42-.57-2.14-.73-3.15-2.21-6.19-3-9.35-.4-1.51-.71-3-1-4.47-.09-.47-.08-1.2-.64-1.41a5.12,5.12,0,0,0-1.41,0H73.69c-2.06,0-4.11-.11-6.15-.14-.49,0-1,0-1.49,0-.21,0-.49-.19-.69,0a4,4,0,0,0-.24,1.09c-.12.5-.28,1-.42,1.48-.4,1.4-.75,2.81-1.14,4.21-.5,1.82-1.12,3.6-1.7,5.39-.47,1.45-.75,3-1.13,4.44a16.33,16.33,0,0,0-.65,3.58c0,.47,0,1,0,1.42A12.82,12.82,0,0,0,63.16,44a12,12,0,0,0,7.6,3.23c0,1-.13,2.12-.13,2.59,0,1.33.32,3,.24,4.3-.16,2.51,0,4.9,0,7.33,0,2.25.14,4.68-2.13,6.28-2.53,1.78-3.69,1.69-6.91,2.36,4,0,14.27-.35,14.52-.48h.35c1.31,0,5.3.39,6-.21-1.49,0-3-.5-4.52-.6a22,22,0,0,1-2.77-1.07"/><path class="cls-2" d="M76.37,14.68c0-.12-.16.7-.27,1-.19.47-.49.88-.7,1.33-.56,1.15-1,2.37-1.57,3.53s-1,2.11-1.58,3.18c-.43.83-1.61,2.55-1.51,3.5.8.29.72-.1,1-.77s.52-1.23.79-1.82c.57-1.25,1.34-2.36,1.93-3.61.7-1.47,1.23-3,2-4.47a10,10,0,0,0,.66-1.36c.11-.31.3-.54,0-.83a.55.55,0,0,0-.92.24"/><path class="cls-3" d="M92.42,15.71a2.18,2.18,0,0,1,.12-1,1.86,1.86,0,0,1,.59-.56,2.47,2.47,0,0,1-.9-.31,2.49,2.49,0,0,1-.65-1.07c-.21-.45-.44-.89-.63-1.33s-.22-.77-.35-1.15c-.37.06-.79.24-1.15,0s-.62-.93-.89-1.35a13,13,0,0,0-1.42-1.63,8.39,8.39,0,0,0-1.76-1.51,12,12,0,0,0-2.93-1.22,16.3,16.3,0,0,1-1.86-.84c-.4-.17-.74-.47-1.15-.62l.21.16a9.11,9.11,0,0,0-2.41-1.11c-.58-.19-1.2-.33-1.77-.56S74.83.8,74.4.69c0,.13,0,.39-.08.49a1.73,1.73,0,0,1-.51.25,4,4,0,0,1-1.85,0A3.17,3.17,0,0,1,70.3.63,4,4,0,0,0,69.21,0c.06.39.09.67-.22.89a4.29,4.29,0,0,1-1.45.49l-1.36.34a7.73,7.73,0,0,1-.81.16c-.25,0-.62-.06-.84.05.39.81,1.71.86,1.45,2a3,3,0,0,1-1.17,1.89,14.62,14.62,0,0,1,1.32.77,4,4,0,0,1,.78,1.22A3.68,3.68,0,0,1,67.36,9c.07.4-.1.86,0,1.23a1.67,1.67,0,0,1,.66-.09,2.58,2.58,0,0,1,.82.39,8.61,8.61,0,0,1,1.32,1.12,4.15,4.15,0,0,1,1.14,1.29c.22.49.23,1,.4,1.56a2.73,2.73,0,0,1,1.08-.1l-.19-.07c-.09,0-.08-.2,0-.19a8.64,8.64,0,0,1,3,1.06h0a7.29,7.29,0,0,1,2.06,1l.12.08.07,0a2,2,0,0,1,1.09.73,1.44,1.44,0,0,1,.29.51c.06.18.06.39.21.48-.1-.56.67-.61,1-.51.55.18,1.06.43,1.61.58a5.31,5.31,0,0,1,1.69.7,5,5,0,0,1,.8.65c.22.23.46.61.76.72a1.29,1.29,0,0,1,1.48-1.48,5.36,5.36,0,0,1,1.48.43c.44.25.78.78,1.21,1a2.08,2.08,0,0,1,1-2.13,3.74,3.74,0,0,1,2.7-.59A2,2,0,0,1,92.42,15.71Z"/><path class="cls-9" d="M66.28,2.06a8.7,8.7,0,0,1,1.84.57c.63.25,1.24.51,1.88.7a14,14,0,0,0,2,.37,15.86,15.86,0,0,1,1.89.39c.68.19,1.35.45,2,.62a14.08,14.08,0,0,0,2.4.37l.73,0a31,31,0,0,1-6.79-3.5l-.34-.05A3.17,3.17,0,0,1,70.26.75,4,4,0,0,0,69.17.12c.06.39.09.66-.22.89a4.29,4.29,0,0,1-1.45.49l-1.36.34a7.73,7.73,0,0,1-.81.16c-.25,0-.62-.07-.84,0,0,0,0,0,0,0A14.91,14.91,0,0,1,66.28,2.06Z"/><path class="cls-9" d="M67.32,9.08a8.56,8.56,0,0,1,0,1,28,28,0,0,0,3.49-1.16c1.2-.46,2.41-.88,3.59-1.35s2.23-.93,3.37-1.34a8.36,8.36,0,0,0,2-.86.12.12,0,0,0,0,0c-.49,0-1,0-1.47,0h-.22c-.84.06-1.67.14-2.51.23A37.38,37.38,0,0,1,71,5.9c-1.38,0-2.76.06-4.13.13-.46,0-.93,0-1.39,0h-.38a5.11,5.11,0,0,1,1,.6,3.86,3.86,0,0,1,.78,1.22A3.68,3.68,0,0,1,67.32,9.08Z"/><path class="cls-9" d="M79.84,5.53a29.79,29.79,0,0,1-2.26,2,20.89,20.89,0,0,0-2.46,2.6c-.76.92-1.48,1.86-2.29,2.73-.42.45-.85.91-1.24,1.4,0,.13.06.25.1.37a2.55,2.55,0,0,1,1.47,0,11.32,11.32,0,0,1,3.33,1,8.38,8.38,0,0,1,1.9,1.15,2.06,2.06,0,0,1,.56.5,2,2,0,0,1,.25.4c.09.14.17.29.25.44a.37.37,0,0,1,.08-.18c-.06-1.79-.21-3.58-.17-5.37a32,32,0,0,1,.3-3.67c.09-.62.2-1.22.31-1.83a5.71,5.71,0,0,0,.11-1.6Z"/><path class="cls-9" d="M80.11,5a.09.09,0,0,1,0-.11A8.21,8.21,0,0,0,79.88,4c-.07-.21-.15-.43-.23-.64l-.24-.11.2.16A8.8,8.8,0,0,0,77.2,2.27c-.54-.18-1.12-.31-1.66-.52l.57.38c1.17.77,2.31,1.61,3.48,2.38a.09.09,0,0,1,.11,0l0,0,.06,0a.11.11,0,0,1,0,.1,1.79,1.79,0,0,0,.28.27h0Z"/><path class="cls-9" d="M83.12,6.71c.84.45,1.7.86,2.55,1.28,1,.5,2,1,3.08,1.46-.08-.15-.15-.29-.23-.41l-.15-.21-.08-.06c-.25-.2-.52-.38-.79-.56-.62-.4-1.24-.81-1.87-1.2s-1.43-.89-2.16-1.32c-.5,0-1,0-1.48,0a7.29,7.29,0,0,1-.79,0Z"/><path class="cls-9" d="M92.38,15.83a2.18,2.18,0,0,1,.12-1,1.41,1.41,0,0,1,.45-.46A6.69,6.69,0,0,1,90.48,13c-1.12-.91-2.21-1.85-3.36-2.7s-2.41-1.75-3.6-2.66a24.87,24.87,0,0,0-2.77-1.92,42.88,42.88,0,0,1,3,3.3,31.55,31.55,0,0,0,3.32,3.6c.61.55,1.25,1.07,1.87,1.61s1.23,1.14,1.87,1.68a16.84,16.84,0,0,0,1.79,1.39l.35.22.24,0A2,2,0,0,1,92.38,15.83Z"/><path class="cls-9" d="M88.06,18.05c-.87-1.41-1.71-2.85-2.55-4.28-1.61-2.76-3.22-5.52-5-8.12a.46.46,0,0,1-.07-.07c.68,2.67,1.43,5.31,2.24,8,.42,1.4.84,2.78,1.39,4.13.33.81.67,1.61,1,2.43a1,1,0,0,0,.31.21,1.29,1.29,0,0,1,1.48-1.48,5.36,5.36,0,0,1,1.48.43c.43.24.77.75,1.18,1l-.08-.13C88.92,19.42,88.49,18.74,88.06,18.05Z"/><path class="cls-2" d="M81.45,5.15a2.16,2.16,0,0,0-.06.71c0,.29,0,.29-.28.41-.48.24-.85.44-1.34.05a2.34,2.34,0,0,1-.8-1.4,4.39,4.39,0,0,0,.91-1c.27-.36.55-.7.8-1.07S81.05,2,81.4,2s.9.85.83,1.31A12,12,0,0,1,81.45,5.15Z"/><path class="cls-3" d="M62.87,39.09A10.62,10.62,0,0,0,68,44.7c2,1,4.38.77,6.52.28,1.5-.34,3.48-.65,4.44-2a10.33,10.33,0,0,0,1.23-4.18,18.64,18.64,0,0,0,.49-4.73c-.24-2.9-1.89-5.46-2.4-8.29-1.46-.12-3,.23-4.37.11-1.74-.15-3.54-.25-5.27-.25-1.22,0-3.54-.45-4.41.37a4.61,4.61,0,0,0-1,1.86,5.85,5.85,0,0,0-.25.87c-.13.72,0,1.41-.19,2.14s-.35,1.7-.46,2.56A11,11,0,0,0,62.87,39.09Z"/><path class="cls-9" d="M65.06,40.11a13.3,13.3,0,0,0,3.71,3.69,14.73,14.73,0,0,0,1.75.94l.36.15-.32-.26A14.76,14.76,0,0,1,69,42.88c-1.13-1.43-2.32-2.81-3.33-4.34a18.44,18.44,0,0,1-2.42-5.16A13.72,13.72,0,0,1,62.8,31a24.49,24.49,0,0,0-.43,2.42c0,.29-.07.59-.1.89A20.74,20.74,0,0,0,65.06,40.11Z"/><path class="cls-9" d="M69.18,37.67a42.18,42.18,0,0,0,3,7.44l0,0a.15.15,0,0,1,.07,0,.12.12,0,0,1,0-.15h0a3.94,3.94,0,0,0-.22-1c-.13-.41-.22-.82-.32-1.24l-.57-2.61c-.4-1.81-.78-3.61-1.17-5.42-.63-3-1.26-6-1.9-9a13.68,13.68,0,0,0-2.79,0c.92,2.93,1.8,5.88,2.73,8.81C68.41,35.49,68.8,36.58,69.18,37.67Z"/><path class="cls-9" d="M73.7,35.86c0,1.64,0,3.31-.09,4.94a9.47,9.47,0,0,1-.77,3.86c2.8-2.54,3.61-6.7,3.82-10.32a41.23,41.23,0,0,0-.41-8.52,13.73,13.73,0,0,1-2.3.07l-1.49-.12a36.88,36.88,0,0,1,.72,4A56.41,56.41,0,0,1,73.7,35.86Z"/><path class="cls-9" d="M76.72,43.56A14.83,14.83,0,0,0,79,41.33a12.58,12.58,0,0,0,1.12-1.68c0-.29.09-.57.14-.85a18.64,18.64,0,0,0,.49-4.73,17.79,17.79,0,0,0-1.31-4.73c-.19,3.52-.25,7.12-1.72,10.39a20.42,20.42,0,0,1-2.24,3.79,6.63,6.63,0,0,1-1.18,1.28A4.71,4.71,0,0,0,76.72,43.56Z"/><path class="cls-9" d="M73.8,45.08a1.3,1.3,0,0,1-1,.09l-.07,0h0a.17.17,0,0,1-.15,0c0,.06,0,.12,0,.17.48,0,1-.14,1.42-.23Z"/><path class="cls-9" d="M45.74,263.19c1.18,2.6,2.47,5.15,3.46,7.87a23.43,23.43,0,0,1,.82,3.17c.14.62.16,1.3.26,1.95.2,1.38-.11,2.86.16,4.23.14-.07.17-.28.22-.43a5.79,5.79,0,0,1,.47-1c.36-.75.62-1.53,1-2.26a3.85,3.85,0,0,0,.59-1.33,10.49,10.49,0,0,0-.08-1.37,11.75,11.75,0,0,0-.53-3.32c-.12-.39-.23-.78-.32-1.17a28.43,28.43,0,0,0-2.24-5.94c-.37-.78-.79-1.54-1.23-2.28s-.8-1.17-1.17-1.78a4.6,4.6,0,0,1-.29-.59c-.22-.49-.49-1-.73-1.44-.41-.86-.8-1.71-1.29-2.54a11.14,11.14,0,0,1-.74-1.36,9.83,9.83,0,0,1-.38-1.44,12.2,12.2,0,0,1-.31-1.36c0-.25-.13-1.15-.33-1.26a3.44,3.44,0,0,1-.36,1.11,11,11,0,0,1-.53,1.09,3,3,0,0,0-.06,1.86c.11.43.36.79.49,1.21s.23.85.38,1.27C43.84,258.5,44.7,260.87,45.74,263.19Z"/><path class="cls-9" d="M37.13,295.72c-.49.36-1,.73-1.42,1.12-.23.74-.44,1.49-.69,2.22-.56,1.67-1.06,3.37-1.55,5.06a18.38,18.38,0,0,1,5-4.44c.95-.63,1.93-1.22,2.88-1.85.65-.42,1.36-.8,2-1.27a5.52,5.52,0,0,0,.53-.43c.12-.1.22-.22.35-.31a14.1,14.1,0,0,0,2.38-2.38c.48-.61.4-.93.33-1.68-.09-1.08,0-2.21-.18-3.27a5.43,5.43,0,0,0-.94,1.33,3.46,3.46,0,0,1-1.31,1.09c-.48.27-.91.64-1.37.95-1.13.76-2.31,1.43-3.46,2.14s-2.46,1.6-3.67,2.43a11.88,11.88,0,0,1-2.29,1.26c-.41.16-.77.28-.85.71a5.74,5.74,0,0,1-.25,1.19c-.28.74-.67,1.43-.94,2.19-.2.56-.41,1.17-.57,1.71s0,.48.21.85a4.06,4.06,0,0,1,.37,1.08,6.3,6.3,0,0,1,.27,1,18.92,18.92,0,0,0,.89-1.86c.43-.7,1-1.22,1.38-1.95"/><path class="cls-1" d="M128.16,324.79c6.86-5.14,3.46-19.83,6.68-27.61a12.43,12.43,0,0,0-2.05-2.73c-2.36,1.16-5.06,4.7-7.37,3.37-1.75-1-1.6-2.49-3.8-2.59-2.58-.13-5.06,3.57-6-.89-.81-3.9-1.78-7.8-2.35-11.76a45.57,45.57,0,0,1-.43-6.3,10.53,10.53,0,0,0-.43-3.74c-2.81,3.54-4.82,8.29-6.52,12.67-1,2.62-2.44,4.54-2,7.58.54,3.32,1.27,6.54,1.68,9.92s.35,6.48,1.4,9.75a54.63,54.63,0,0,0,2.56,6.44c2.11,4.51,6.29,7.8,10.6,8.29A12,12,0,0,0,128.16,324.79Z"/><path class="cls-9" d="M120,311.38a6.09,6.09,0,0,1,2.94-2.72,6.4,6.4,0,0,1,4.54.3c-1.25,2-2.13,4.25-4.4,5a6.86,6.86,0,0,1-4.58-.24c.53-1.46.89-2.67,2.19-3.36"/><path class="cls-2" d="M127.37,309.12a8.91,8.91,0,0,1-2.93,4.14c-1.06.84-2.8,1.58-3.5,2.92a1.68,1.68,0,0,1,.39-1.19,6,6,0,0,0-2.66,1.9,5.14,5.14,0,0,1,1-1.94,4.33,4.33,0,0,0-3,1.3,7.46,7.46,0,0,1,2.29-1.87c-.72-.23-1.47-.34-2.18-.62,1-.25,1.75-.18,2.2-1.41a7.43,7.43,0,0,1,2.17-3.2,4.69,4.69,0,0,1,3.4-.9c.74.05,2.25.06,2.68.94-1.47.31-2.84.17-4.27.77a4.69,4.69,0,0,0-2,1.4,17.84,17.84,0,0,1-1.48,1.95c.75,1.15,3.51.44,4.4,0,.51-.28,3.68-2.52,3.18-3.14"/><path class="cls-2" d="M122,314.47a1.5,1.5,0,0,1-2.13-2.06c.65-1.31,2.11-1.6,2.55-.29l0,.1c.32,1.07-.26,2.61-1.44,2.49a2.25,2.25,0,0,1-1.43-.95c-.41-1,1.71-2.65,2.46-2.11A1.82,1.82,0,0,1,122,314.47Z"/><path class="cls-3" d="M118.94,298.53c-.22.05-.22-.23,0-.23a.46.46,0,0,1,.35.23,1.62,1.62,0,0,1,.17.32,1.42,1.42,0,0,0,.2.28c.1.14.39.34.32.54s-.33.14-.48.18-.26.21-.36.39a.8.8,0,0,1-.47.4,9.59,9.59,0,0,0-1.31.44,4.09,4.09,0,0,0-1.33,1.23l-.78,1a2.75,2.75,0,0,0-.49.76,5.52,5.52,0,0,1,.36-1.28c.17-.49.33-1,.5-1.45a5,5,0,0,1,1.31-1.82,5.31,5.31,0,0,1,1.06-.79,2.39,2.39,0,0,1,.48-.24,1.44,1.44,0,0,0,.55-.25"/><path class="cls-2" d="M133,311.2c.88-.95,1.66-.5,2.41.48-.28-.37-.55-.9-1-1s-.75.12-1.08.25c.56-.87,1.46-.55,2,.25-.51-.67-1.46-2-2.23-1.14.5-.78,2.09,0,2.18.85a4,4,0,0,0-1-1.64,1.56,1.56,0,0,0-1.57.25,3.56,3.56,0,0,1,.25,2"/><path class="cls-2" d="M118.91,328.06a10.09,10.09,0,0,1-6.57-3.67c-1.67-2.07-3.76-3.95-4.51-6.85a33.65,33.65,0,0,1-1-4.58c-.15-1.49.19-3-.37-4.4,1.07,1.44,2.42,2.68,3.45,4.25s1.52,5.18,3,6c1.73,1,1.57-2.32,1-3.46-.39-.78-2.4-2.86-1.19-3.62a2.6,2.6,0,0,1-.15,1.09c.95,1.75,2.87,2.21,3.37,4.45.78,3.46.06,6.27,4,6.62,2.14.19,4.21.2,6.08-1.16a30.22,30.22,0,0,0,4.1-4.06c.88-1,1.67-1.86,2.93-1.54a4,4,0,0,1,2.4,3.21c-1.19-.74-2.55,0-3.55,1.05a18,18,0,0,0-1.2,1.84A12.94,12.94,0,0,1,118.91,328.06Z"/><path class="cls-9" d="M72.58,211.38c1.46-3.07,3.26-6.17,4-9.63a21.86,21.86,0,0,0,.48-5.93,37.11,37.11,0,0,0,0-3.8c-.11-.74-.26-.68-.8-.67s-1-.24-1.38-.1c-.1.35.2.76.29,1.09,1.31,4.55-.66,9.19-2.71,13.23-.92,1.83-2,3.58-2.95,5.38-.43.8-1.08,1.61-1.45,2.41s.34,1.53.75,2.17.66,1,1,1.59c.22.39.37,1,.57,1.28C70.39,216,71.57,213.53,72.58,211.38Z"/><path class="cls-9" d="M91,242.1c3.33-.18,6.42-1.8,9.56-3,4-1.56,8.85-3.89,13-1.75.81.42,1.48,1.07,2.25,1.5.1-.67-.92-1.38-1.29-1.85-.75-1-1.6-1.85-2.43-2.76-.66-.73-1-1.74-1.73-2.32-.61-.46-2.11-.19-2.84-.06a27.65,27.65,0,0,0-4.09,1.07c-2.25.74-4.42,1.7-6.6,2.64-3.4,1.47-7,3.64-10.67,3.28a11.39,11.39,0,0,1-5.3-1.93c-.58-.38-1.43-1.41-2.15-1.47s-1.23,1.05-1.1,1.67c0,.23.71.84.89,1,.43.46,1,.71,1.48,1.12a11.74,11.74,0,0,0,2.34,1.41,11.16,11.16,0,0,0,2.93,1.06A20.52,20.52,0,0,0,91,242.1Z"/><path class="cls-9" d="M57.6,137.79a19.62,19.62,0,0,1,2.26,4c.25.7.62,1.4.92,2.08a8.31,8.31,0,0,0,.77,1.75,7,7,0,0,0-.45-2.06,29.44,29.44,0,0,1-.35-3.4c-.17-1.89.09-4.85-1.24-6.38-.55-.62-1.32-1.07-1.92-1.64a20.9,20.9,0,0,1-2.41-2.66c-.7-.94-1.61-1.69-2.35-2.59a27.11,27.11,0,0,1-4.67-7.81,29.1,29.1,0,0,1-2-5.71c-.25-1.72-.51-3.45-.74-5.17-.07-.55.19-1.24-.11-1.71a17.62,17.62,0,0,0-.05,3.91c0,1-.14,2-.18,3a13.83,13.83,0,0,0,.59,3.61,39.07,39.07,0,0,0,1.08,4.26,47.4,47.4,0,0,0,2.32,4.88,42.2,42.2,0,0,0,3,4.4c.92,1.34,2.15,2.56,3.2,3.8a33.59,33.59,0,0,1,2.37,3.35S57.6,137.78,57.6,137.79Z"/><path class="cls-2" d="M120,321.32l-2.35,1.18a35.67,35.67,0,0,0-4.58,2.42c-1.11.78-2.61,1.67-1.5,3.56,1.21,2.06,3.09.28,4.42-.11a35.61,35.61,0,0,1,3.25,3.37c.47.62.91,1.32,1.43,1.9A11.55,11.55,0,0,0,126,337a10.29,10.29,0,0,0,7.76-1.56,11.18,11.18,0,0,0,3-2.75c.7-1,1.74-2.46,1.64-3.87a7.35,7.35,0,0,0-.4-1.42c-.24-.84-.28-1.7-.49-2.54a25.74,25.74,0,0,1-.65-4c-.06-.6-.11-.95.25-1.3a11.68,11.68,0,0,1,1.46-.83c.48-.32,1-.63.94-1.4-.17-1.78-1.81-1.85-3-1.78a38,38,0,0,0-7.08,1.34,31.33,31.33,0,0,0-5.63,2.47Z"/><path class="cls-1" d="M126.66,338.78l.84.19a23.67,23.67,0,0,0,3.72.7,12.81,12.81,0,0,0,1.86-.1c.52,0,1,.08,1.49,0a1.7,1.7,0,0,1,1,.07,21.11,21.11,0,0,0,2.15.64c.89.2,3.74.76,3.55-.8a16.56,16.56,0,0,0-3.86-.33c-.51,0-1.19.09-1.56-.28-.57-.58.43-1,.88-1.27,1-.6,2.31-.68,3.36-1.26l.15-.09a1,1,0,0,0,.56-1,.83.83,0,0,0-.23-.49.86.86,0,0,0-.61-.11,2.7,2.7,0,0,0-.83.19c-.59.18-1.16.46-1.75.6-.15,0-1.38.51-1.41.17,0-.13.81-.49.94-.56s.57-.23.84-.38.58-.4.89-.57a11.53,11.53,0,0,0,1.11-.7,6.52,6.52,0,0,0,.86-.8,2.19,2.19,0,0,0,.6-1.18,8.52,8.52,0,0,0,.15-1.13,1.89,1.89,0,0,0-.08-.75c-.2-.59-1-.16-1.29.17s-.6,1-1,1.53a8.7,8.7,0,0,1-.6.76c-.36.4-.86.69-1.2,1.12s-.36.55-.77.69c-.87.31-1.56-.3-2-1-.61-1-.24-3.58-1.1-4.32-1.94-1.67-1.26,2-1.3,2.88a2.79,2.79,0,0,1-.72,1.92,2.57,2.57,0,0,1-1.57.6c-1.38.13-2.78-.18-4.16.07-.54.1-1.08.28-1.62.41a11,11,0,0,1-2.62.16c-.46,0-.91,0-1.37,0q-.33,0-.63,0a2.12,2.12,0,0,0-.56,0c0,.22-.16.41-.21.63a6,6,0,0,0-.08,1.2c0,.4.16,1.51.5,1.71s1.29,0,1.71,0c.88,0,1.71.31,2.61.3A14.75,14.75,0,0,1,126.66,338.78Z"/><path class="cls-2" d="M2.11,72a44.52,44.52,0,0,0,7.64-1.16c4.92-.85,9.76-.43,14.72-.33,5.83.13,11.66,1.26,17.48,1.55s11.4,1,17.12.92c6,0,12,.14,17.95-.3,5.48-.4,11,.19,16.52-.24,6.25-.49,12.58-.44,18.83-1,3.71-.32,7.63-.32,11.28-1,0-1-1.08-1.84-1.24-2.87-3.2.66-6.93.32-10.27.46-6,.24-12,.8-18,1-6.79.22-13.61.48-20.41.47-7.16,0-14.26-1-21.39-1.46-4.76-.29-9.54-.25-14.32-.25-5,0-10-.25-15-.25-3.76,0-7.53-.25-11.32-.25-2.83,0-5.52.25-8.35.25a23.64,23.64,0,0,0-3.15,0c-.15,1.08.59,4,1.44,4.63"/><path class="cls-3" d="M16.67,35.24c.77-.05,1.53-.09,2.32-.07.58,0,1.12,0,1.71,0,1.29,0,.53,1.17.12,1.77-.63.94-1.61.92-2.54,1.44a10,10,0,0,1-3.74,1.24c-1.07.15-2.12.1-3.21.24a7.47,7.47,0,0,1-2.75-.1c-1-.2-2-.27-3-.45a13.22,13.22,0,0,1-2.13-.83C2.88,38.25-.13,36.59.64,35.7c.43-.5,2,.55,2.39.73,1.22.52,2,0,3.29-.2,1-.14,2.08-.3,3.13-.39l.93-.09c.38,0,.77,0,1.15-.13s.7-.09,1.05-.13c.78-.09,1.56-.16,2.35-.18C15.51,35.31,16.09,35.27,16.67,35.24Z"/><path class="cls-1" d="M20.58,36.08a12.64,12.64,0,0,1-1.82.87,23.9,23.9,0,0,1-4.84,1.54,30.19,30.19,0,0,1-4.46.17A14,14,0,0,1,5,37.92c-.62-.21-1.2-.3-1.82-.54-.37-.15-.72-.34-1.07-.52A4.47,4.47,0,0,1,.34,35.57a3.44,3.44,0,0,0,.15.55c.11.49.16,1,.24,1.51.18,1.18.46,2.33.64,3.5.46,3,1.14,6,1.55,9,.19,1.42.43,2.84.63,4.26s.34,2.83.68,4.22c.42,1.71.91,3.4,1.39,5.1.24.83.5,1.66.74,2.48a3.51,3.51,0,0,0,.57,1.32A2.23,2.23,0,0,0,8.05,68a15.28,15.28,0,0,1,1.73.47l.12,0a4.82,4.82,0,0,0,1.78.29c.85,0,1.7.11,2.54.11a10.18,10.18,0,0,0,2.26-.26c1.27-.26,2.95-.81,3.29-2.21a25,25,0,0,0,.41-4.35c.29-5,.29-10,.52-14.94.07-1.42.25-2.82.26-4.24,0-1.1.06-2.25.16-3.34.07-.77.12-1.54.18-2.3a5.55,5.55,0,0,1,.2-1.22c.07-.22.28-.43.18-.67l-.06,0A7.27,7.27,0,0,1,20.58,36.08Z"/><path class="cls-1" d="M20.6,34.62a7.87,7.87,0,0,0-2.78-1.22,20.37,20.37,0,0,0-4.89-.68,30.94,30.94,0,0,0-4.29.3,19.51,19.51,0,0,0-2.87.28l-.08,0-.06,0h0l-.38.11c-.43.09-.89.17-1.31.3a11.79,11.79,0,0,0-1.57.59l-.15,0a4.85,4.85,0,0,0-.56.28,7.58,7.58,0,0,0-.74.4c-.12.08-.5.34-.55.47v0a3.37,3.37,0,0,1,.32.17.44.44,0,0,0,.14.13l1.27.74a3.37,3.37,0,0,0,1,.44,1.76,1.76,0,0,0,.33,0,1.42,1.42,0,0,0,.46,0c.17,0,.23-.1.37-.2A.93.93,0,0,1,5,36.71a1.38,1.38,0,0,0,.66-.11,2.76,2.76,0,0,0,.55-.19,2.54,2.54,0,0,1,1.37-.34,7.19,7.19,0,0,0,.8.2A3.58,3.58,0,0,0,9.52,36a5.29,5.29,0,0,1,1-.28,1.09,1.09,0,0,1,.75.24,1.22,1.22,0,0,0,.67.28A5.74,5.74,0,0,0,13.32,36a8.54,8.54,0,0,1,1.34-.07,5.38,5.38,0,0,1,.9,0,5,5,0,0,1,.76.19,3.86,3.86,0,0,0,1.46-.21,1,1,0,0,1,.39,0,1,1,0,0,1,.36.2,2,2,0,0,0,.33.26.67.67,0,0,0,.34,0c.28-.08.57-.23.85-.33s.64-.17.95-.28a2.14,2.14,0,0,1,.42-.16c.14,0,.23,0,.31-.18A8.45,8.45,0,0,1,20.6,34.62Z"/><path class="cls-10" d="M14.53,60.81c0,.11-.16.45.2.39.1,0,.2-.12.12-.22s-.38-.06-.51-.06"/><path class="cls-10" d="M11.8,60.94a.22.22,0,0,0,.34.18c.25-.14-.09-.41-.24-.26"/><path class="cls-10" d="M13,59.56c-.1.12,0,.36.24.28s0-.39-.19-.25"/><path class="cls-10" d="M14.91,58.7s.07,0,0,0,0,.26.23.23,0-.28-.23-.24"/><path class="cls-10" d="M12.87,57.68c.08.13.35.35.46.1s-.25-.44-.37-.25"/><path class="cls-10" d="M10.86,58.28s0,.06.05.1H11a.14.14,0,0,0-.23-.13"/><path class="cls-10" d="M9.62,59.87c.22.48.41-.09,0,0"/><path class="cls-10" d="M8.43,59.43s0,.42.19.22-.11-.28-.23-.18"/><path class="cls-10" d="M9,57.79s-.11.24.1.24.14-.26-.06-.28"/><path class="cls-10" d="M11.19,55.93c0,.08-.13.31.11.28s.13-.24-.07-.25"/><path class="cls-10" d="M12.7,53.87c0,.06,0,.31.2.24s.08-.35-.15-.31"/><path class="cls-10" d="M14.62,53.19s0,.05-.09.05a.28.28,0,0,0,0,.2c.36.06.23-.43,0-.24"/><path class="cls-10" d="M13.18,51.73c-.12.12.16.33.38.21s-.05-.42-.24-.32"/><path class="cls-10" d="M12.16,50.15s.07.07.06.13c.37.09.33-.36,0-.34a.07.07,0,0,0,0,.06"/><path class="cls-10" d="M10.89,47.54c0,.36.58-.22,0-.14a.34.34,0,0,0,0,.1"/><path class="cls-10" d="M13.53,48c-.11.1.12.34.24.14s-.2-.33-.34-.21"/><path class="cls-10" d="M13.08,46.5c0,.1,0,.4.32.27s-.05-.45-.23-.31"/><path class="cls-10" d="M13.24,45.07c-.05.09,0,.44.29.32s0-.36-.25-.32"/><path class="cls-10" d="M16.56,56.15c0,.09.19.33.38.16s-.43-.46-.43-.2"/><path class="cls-10" d="M17.28,54.5c-.28,0-.16.46.14.34s0-.5-.33-.34"/><path class="cls-10" d="M13.73,56c.06.19.46.21.47,0s-.62-.36-.57-.1"/><path class="cls-10" d="M8.22,53.39c.08.16.34.33.44.06s-.06-.23-.24-.24-.22.08-.29.22"/><path class="cls-10" d="M8,55.67s0,0,0,0,.18.11.31.09c.14-.17-.06-.37-.32-.31a.41.41,0,0,0-.05.18"/><path class="cls-10" d="M7.27,57.82c-.07.13.14.42.29.2s-.08-.32-.24-.31-.19.18-.23.29"/><path class="cls-10" d="M6.83,59.5c-.06.15,0,.46.25.46s.21-.44-.09-.39a.37.37,0,0,0,0,.18"/><path class="cls-10" d="M9.5,61.19c.12.15.68.3.57,0s-.68-.13-.43.11"/><path class="cls-10" d="M14.93,61.94c-.09.13,0,.34.23.21s.08-.46-.14-.32"/><path class="cls-10" d="M15.8,60.61c-.38.52.72.41.37.06"/><path class="cls-10" d="M17.43,60.19h0c-.13.67.82-.17,0-.11"/><path class="cls-10" d="M16.9,59.2c0,.15.22.41.37.14s-.24-.35-.42-.25"/><path class="cls-10" d="M18,58.47c0,.15.11.24.24.07s-.09-.33-.34-.29"/><path class="cls-10" d="M16.26,58.14c.3.38.59-.26,0-.17"/><path class="cls-10" d="M14.9,57.82s.06.07,0,.13c.28.14.47-.21.18-.28"/><path class="cls-10" d="M14.88,57c0,.19.32.35.42.13"/><path class="cls-10" d="M16.05,56.87h0c-.29.34.48.23.22.07"/><path class="cls-10" d="M15,55.64c.11.34.62,0,.23-.14"/><path class="cls-10" d="M15.4,54.89c-.07.32.5.2.23-.08"/><path class="cls-10" d="M12.29,44.42c.07,0-.11,0-.14,0s0,.3.18.24.11-.3-.1-.28"/><path class="cls-10" d="M10.39,43.78a.2.2,0,0,0,.28.16c0-.12-.18-.59-.33-.34"/><path class="cls-10" d="M9.5,41.44c0,.13.24.32.37.15s-.14-.3-.23-.25"/><path class="cls-10" d="M10.1,55.57c0,.1-.06.26-.22.25a.65.65,0,0,1-.06-.21"/><path class="cls-10" d="M11.06,42.09c-.19.07-.21.56.11.43s.23-.53-.11-.47"/><path class="cls-10" d="M11,45.76c0-.07,0-.12-.14-.1s-.05.34.19.31.13-.38.13-.5"/><path class="cls-10" d="M12.3,45.05s-.1,0-.14.08,0,.18,0,.22c.28.17.3-.21.28-.33a.14.14,0,0,0-.09,0"/><path class="cls-10" d="M12,46.48c.08,0-.06,0-.09,0,0,.19,0,.33.33.27a.26.26,0,0,0-.06-.24.1.1,0,0,0-.08,0"/><path class="cls-10" d="M12.54,47.93c0,.1.22.34.39.19s0-.26-.2-.19"/><path class="cls-10" d="M11.8,48.73s0,.12,0,.17c.18,0,.47,0,.27-.18"/><path class="cls-10" d="M10.94,50.21s.05,0,0,0c-.19.15.21.37.43.17s0-.52-.15-.26"/><path class="cls-10" d="M11.88,53.07a.41.41,0,0,0-.27-.1.43.43,0,0,0,.62.28c.22-.17-.06-.56-.25-.33"/><path class="cls-10" d="M10.73,54.05a.69.69,0,0,0-.15-.07c-.15.14.12.34.34.29s.22-.4-.1-.36"/><path class="cls-10" d="M9.05,54.72c.07.1.17.4.43.39a.2.2,0,1,0-.06-.39"/><path class="cls-10" d="M9.55,56.35c0,.13.3.25.48.17.34-.18-.19-.41-.43-.38,0,0,0,0,0,.07"/><path class="cls-10" d="M11.4,56.92c-.33.22.79.44.37,0"/><path class="cls-10" d="M12.66,56.58c-.08.23.33.23.33,0"/><path class="cls-10" d="M12.2,54.88s0,.17,0,.22.26.09.3-.05"/><path class="cls-10" d="M13.41,53.82c-.19.17.37.6.33.07"/><path class="cls-10" d="M14.37,52.81c0,.13.12.33.24.13"/><path class="cls-10" d="M11.24,55.09c0,.14,0,.26-.27.21s.2-.3.32-.11"/><path class="cls-11" d="M7.15,34.38a.23.23,0,0,0,.18.09c0-.09,0-.18-.13-.16a.06.06,0,0,0,0,.06"/><path class="cls-10" d="M9.55,53.27a.16.16,0,0,1-.28.12c-.12-.17.22-.38.32-.16"/><path class="cls-10" d="M10.24,51.09a.34.34,0,0,1-.22.25c-.1-.12,0-.47.17-.25"/><path class="cls-10" d="M10.39,49.38c0,.11-.06.29-.22.28a.24.24,0,0,1,0-.24"/><path class="cls-10" d="M9.37,48.86c0,.07,0,.11-.08.14a.32.32,0,0,1,0-.14"/><path class="cls-10" d="M10.43,46.11c.16,1-1.36-.33.1-.16"/><path class="cls-10" d="M10.81,44.2a2.55,2.55,0,0,0,0,.31c-.51,0-.34-.56.11-.63"/><path class="cls-10" d="M11.59,42.2c-.09.06-.1.13-.29.07a.41.41,0,0,1,0-.22.94.94,0,0,1,.29,0"/><path class="cls-3" d="M19.29,48.7A43.38,43.38,0,0,0,19.4,44c0-1,0-2,0-3s.13-1.61-.93-1.64a15.4,15.4,0,0,0-3.5.5c-1.33.29-2.75,1-4.16.84S8,40.43,6.61,40.16s-2.48-1-3.77-1.25a4.53,4.53,0,0,0,.35,1.58,14.91,14.91,0,0,1,.38,2.1c.28,1.58.58,3.14.87,4.71.59,3.1,1.19,6.2,1.61,9.32.2,1.53.52,3,.87,4.52a10.62,10.62,0,0,0,1.62,4.27,3.84,3.84,0,0,0,3.3,1.13c.62,0,1.21-.16,1.83-.15a11.36,11.36,0,0,0,1.43,0,6.49,6.49,0,0,0,2.36-1c.62-.42.52-1.19.55-1.94,0-1.24.16-2.49.32-3.73.47-3.62.54-7.29.94-10.92C19.28,48.78,19.28,48.74,19.29,48.7Z"/><path class="cls-10" d="M14.82,63.85c0,.1-.14.41.18.36.1,0,.19-.12.12-.2s-.35-.06-.47-.05"/><path class="cls-10" d="M12.32,64a.2.2,0,0,0,.31.17c.23-.13-.08-.37-.22-.24"/><path class="cls-10" d="M13.37,62.71c-.09.11,0,.33.23.26s0-.36-.18-.23"/><path class="cls-10" d="M15.17,61.92s.06,0,0,0,0,.25.21.21,0-.25-.22-.21"/><path class="cls-10" d="M13.29,61c.07.12.32.31.43.09s-.24-.41-.34-.23"/><path class="cls-10" d="M11.45,61.55s0,.05.05.09h.12a.12.12,0,0,0-.21-.12"/><path class="cls-10" d="M10.32,63c.21.44.37-.09,0,0"/><path class="cls-10" d="M9.23,62.61s0,.38.17.19-.1-.26-.21-.16"/><path class="cls-10" d="M9.72,61.1s-.1.22.09.22.14-.24-.05-.26"/><path class="cls-10" d="M11.75,59.39c0,.07-.11.28.1.26s.12-.22-.06-.23"/><path class="cls-10" d="M13.13,57.5s0,.28.18.22.07-.33-.14-.28"/><path class="cls-10" d="M14.88,56.87s0,.05-.08.05a.37.37,0,0,0,0,.18c.33,0,.22-.4,0-.22"/><path class="cls-10" d="M13.56,55.54c-.11.11.15.3.35.19s-.05-.38-.22-.29"/><path class="cls-10" d="M12.62,54.09s.07.07.06.12c.34.09.3-.33,0-.31a.07.07,0,0,0,0,.06"/><path class="cls-10" d="M11.45,51.7c0,.33.53-.2.05-.12a.28.28,0,0,0,0,.09"/><path class="cls-10" d="M13.87,52.07c-.1.1.12.31.22.13s-.18-.3-.31-.19"/><path class="cls-10" d="M13.46,50.75c0,.09,0,.36.29.24s0-.41-.21-.28"/><path class="cls-10" d="M13.6,49.44c0,.08,0,.39.27.29s0-.33-.23-.29"/><path class="cls-10" d="M16.67,59.58c0,.08.17.3.35.15s-.4-.42-.4-.19"/><path class="cls-10" d="M17.32,58.06c-.25,0-.14.43.14.32s0-.46-.31-.31"/><path class="cls-10" d="M14.08,59.4c.05.18.42.19.43,0s-.57-.32-.52-.08"/><path class="cls-10" d="M9,57.07c.06.15.31.3.4.06s-.06-.22-.23-.22-.2.07-.26.19"/><path class="cls-10" d="M8.81,59.16s0,0,0,0,.17.1.28.08S9,58.91,8.77,59a.32.32,0,0,0,0,.16"/><path class="cls-10" d="M8.17,61.13c-.07.12.12.39.26.18S8.36,61,8.21,61,8,61.19,8,61.3"/><path class="cls-10" d="M7.77,62.67c-.06.14,0,.42.22.42s.2-.41-.08-.35a.42.42,0,0,0,0,.16"/><path class="cls-10" d="M10.21,64.22c.11.13.63.26.53,0s-.62-.12-.39.11"/><path class="cls-10" d="M15.19,64.89c-.08.11,0,.31.21.18s.07-.41-.13-.28"/><path class="cls-10" d="M16,63.67c-.34.47.67.37.35,0"/><path class="cls-10" d="M17.48,63.27c.06,0,0,0,0,0-.12.61.75-.16,0-.11"/><path class="cls-10" d="M17,62.37c0,.14.21.38.34.12s-.23-.31-.39-.22"/><path class="cls-10" d="M18,61.7c0,.13.1.22.21.06s-.08-.3-.3-.26"/><path class="cls-10" d="M16.4,61.41c.28.34.54-.24,0-.17"/><path class="cls-10" d="M15.15,61.11s.06.06,0,.12c.26.13.43-.19.16-.26"/><path class="cls-10" d="M15.13,60.36c0,.17.3.32.39.12"/><path class="cls-10" d="M16.21,60.24c.07,0,0,0,0,0-.25.31.45.2.21.06"/><path class="cls-10" d="M15.19,59.12c.1.31.57,0,.21-.14"/><path class="cls-10" d="M15.61,58.42c-.07.3.46.19.21-.07"/><path class="cls-10" d="M12.72,48.84c.08,0-.09,0-.12,0s0,.28.17.23.1-.28-.09-.27"/><path class="cls-10" d="M11,48.26a.18.18,0,0,0,.25.15c0-.11-.16-.54-.3-.31"/><path class="cls-10" d="M10.16,46.12c0,.12.22.29.34.14s-.12-.28-.21-.24"/><path class="cls-10" d="M11.44,45.25l-.08,0a.31.31,0,0,0,0,.19c.19,0,.33,0,.29-.2"/><path class="cls-10" d="M12,44.32H11.9c-.06.15.1.18.2.09a.2.2,0,0,0-.08-.33"/><path class="cls-10" d="M12.76,42.74a.16.16,0,0,0,.21.16c.15,0,.11-.34,0-.39"/><path class="cls-10" d="M13.08,41.37a.09.09,0,0,0,.08.12.51.51,0,0,0,.12-.42"/><path class="cls-12" d="M11.59,40.32s0,.08,0,.13c.27.06.41-.45.11-.39"/><path class="cls-10" d="M10.75,59.07c0,.08-.05.23-.2.23a.49.49,0,0,1-.05-.2"/><path class="cls-10" d="M11.6,46.71c-.18.07-.2.51.1.39s.21-.48-.1-.42"/><path class="cls-10" d="M11.58,50.07c0-.06,0-.1-.12-.09s0,.31.17.29.12-.35.12-.46"/><path class="cls-10" d="M12.74,49.42s-.09,0-.12.07a.18.18,0,0,0,0,.21c.26.15.27-.2.25-.31h-.08"/><path class="cls-10" d="M12.51,50.73c.07,0-.06,0-.08,0,0,.17,0,.3.29.25a.22.22,0,0,0-.05-.22.07.07,0,0,0-.08,0"/><path class="cls-10" d="M13,52.06c0,.09.2.31.36.17s-.05-.23-.19-.17"/><path class="cls-10" d="M12.29,52.79s0,.11,0,.16c.16,0,.43,0,.25-.16"/><path class="cls-10" d="M11.51,54.15s0,0,0,0c-.17.14.2.34.4.15s0-.47-.14-.23"/><path class="cls-10" d="M12.38,56.77c-.07,0-.15-.11-.25-.09a.39.39,0,0,0,.57.25c.19-.15-.06-.51-.24-.3"/><path class="cls-10" d="M11.32,57.67a.54.54,0,0,0-.13-.07c-.14.14.11.31.31.27s.2-.37-.09-.33"/><path class="cls-10" d="M9.79,58.29c.06.09.15.36.39.35a.19.19,0,1,0,0-.36"/><path class="cls-10" d="M10.25,59.78c0,.11.28.23.43.15.32-.16-.16-.37-.39-.34a.06.06,0,0,0,0,.06"/><path class="cls-10" d="M11.94,60.3c-.3.2.73.4.35,0"/><path class="cls-10" d="M13.1,60c-.07.21.3.21.3,0"/><path class="cls-10" d="M12.67,58.42s0,.16,0,.21.23.08.27-.05"/><path class="cls-10" d="M13.77,57.46c-.17.15.35.54.31,0"/><path class="cls-10" d="M14.66,56.52c0,.12.1.3.22.13"/><path class="cls-10" d="M11.79,58.62c0,.13,0,.24-.24.2s.18-.28.29-.1"/><path class="cls-12" d="M8,39.65a.18.18,0,0,0,.16.09c0-.08,0-.16-.12-.15a.06.06,0,0,0,0,.06"/><path class="cls-12" d="M12.78,39.42c0,.08.06.25.22.16s0-.35-.1-.23"/><path class="cls-10" d="M10.24,57a.14.14,0,0,1-.26.11c-.1-.16.21-.36.3-.15"/><path class="cls-10" d="M10.87,55a.33.33,0,0,1-.2.23c-.09-.11,0-.43.16-.23"/><path class="cls-10" d="M11,53.39a.22.22,0,0,1-.2.26.27.27,0,0,1,0-.23"/><path class="cls-10" d="M10.06,52.92c0,.06,0,.1-.07.13a.29.29,0,0,1,0-.13"/><path class="cls-10" d="M11,50.4c.15.86-1.25-.3.1-.15"/><path class="cls-10" d="M11.37,48.64s0,.22,0,.29c-.46,0-.31-.52.1-.58"/><path class="cls-10" d="M12.09,46.81c-.09,0-.1.12-.27.06a.41.41,0,0,1,0-.19,1.27,1.27,0,0,1,.27,0"/><path class="cls-10" d="M8.53,34.56s-.06-.06,0-.12c-.35-.08-.3.33,0,.31a.06.06,0,0,0,0-.06"/><path class="cls-10" d="M9.74,36.93c0-.33-.53.21,0,.13a.17.17,0,0,0,0-.1"/><path class="cls-10" d="M7.31,36.6c.11-.1-.11-.31-.22-.13s.19.3.32.19"/><path class="cls-10" d="M11.12,42.49c0-.12-.23-.28-.35-.13s.14.27.22.23"/><path class="cls-10" d="M9.86,43.38l.08,0a.4.4,0,0,0,0-.19c-.18,0-.33.06-.29.2"/><path class="cls-10" d="M9.33,44.31h.08c.06-.15-.1-.18-.2-.09a.19.19,0,0,0,.09.32"/><path class="cls-10" d="M8.57,45.91a.15.15,0,0,0-.21-.15c-.15.05-.1.33,0,.39"/><path class="cls-10" d="M8.28,47.29c0-.06,0-.1-.08-.12a.5.5,0,0,0-.12.42"/><path class="cls-10" d="M9.78,48.31s0-.07,0-.13c-.28,0-.41.45-.11.4"/><path class="cls-10" d="M9.67,41.92c.18-.06.19-.51-.1-.39s-.2.49.1.42"/><path class="cls-10" d="M8.7,37.91c-.07,0,.06,0,.08,0,0-.18,0-.3-.3-.24a.21.21,0,0,0,.06.21s.05,0,.07,0"/><path class="cls-10" d="M8.22,36.59c0-.08-.2-.3-.36-.15s0,.23.19.16"/><path class="cls-10" d="M8.88,35.85a.81.81,0,0,0,0-.15c-.16,0-.43,0-.25.16"/><path class="cls-10" d="M9.65,34.48s-.05,0,0,0c.17-.15-.2-.35-.4-.16s0,.48.14.24"/><path class="cls-10" d="M13.39,48.92a.2.2,0,0,0-.17-.08c0,.08,0,.16.12.15a.17.17,0,0,0,0-.07"/><path class="cls-10" d="M8.61,49.23c0-.08-.07-.25-.23-.15s0,.34.11.22"/><path class="cls-13" d="M10.27,33.67a.32.32,0,0,1,.2-.24c.09.11,0,.43-.15.24"/><path class="cls-13" d="M10.17,35.24a.21.21,0,0,1,.19-.27.24.24,0,0,1,0,.23"/><path class="cls-13" d="M11.11,35.69c0-.06,0-.1.07-.13a.29.29,0,0,1,0,.13"/><path class="cls-13" d="M10.18,38.23c-.16-.87,1.26.28-.09.15"/><path class="cls-10" d="M9.19,41.83c.08,0,.09-.12.26-.07a.45.45,0,0,1,0,.2,1.18,1.18,0,0,1-.27,0"/><path class="cls-9" d="M8.18,28.45c0,.26-.32.43-.38.64.15,0,.36-.1.49-.17a3.3,3.3,0,0,1,.39-.26c-.1.17-.17.37-.27.53s-.21.2-.23.33a1.13,1.13,0,0,0,.44-.32c.09-.09.37-.38.5-.25a1.69,1.69,0,0,0-.56.62c.15-.17.48,0,.66,0s0,.74,0,.9c0,.52,0,1,0,1.56,0,.71-.09,1.42-.08,2.13,0,1.06.19,2.13.23,3.19,0,.36.06.72.1,1.08a.64.64,0,0,1,.2,0,4.18,4.18,0,0,1,.72.41l.59,0a.17.17,0,0,1,0-.07c0-.29,0-.58,0-.87a25.92,25.92,0,0,0-.27-3.15c-.16-1-.17-1.93-.33-2.9-.07-.45-.1-.88-.18-1.33A4.37,4.37,0,0,1,10,30a2.16,2.16,0,0,0-.06-.51,3,3,0,0,0,.42-.45c.08-.07.37-.27.28-.44a4.1,4.1,0,0,0-.9.23,2.75,2.75,0,0,1,.23-.6,1.41,1.41,0,0,0,.18-.68c-.2,0-.45.25-.64.31-.06-.33.26-.6.24-.91a1.05,1.05,0,0,0-.3.15c-.12.09-.2.32-.35.34a2.74,2.74,0,0,1,0-.56,4.4,4.4,0,0,0,0-.62c-.22,0-.35.37-.57.45,0-.16-.27-.24-.38-.32l-.53-.47c-.35-.34-.68-.69-1-1l-.36-.36-.1.14-.58,1,.11.1c.75.65,1.55,1.26,2.26,2-.15.13-.36.17-.51.3.07,0,.3,0,.41,0s.45,0,.56.16a.55.55,0,0,1-.33.11,1.42,1.42,0,0,0-.29.1c-.07,0-.13,0-.19.06S8.08,28.47,8.18,28.45Z"/><path class="cls-4" d="M6.55,25.24a3.15,3.15,0,0,1,0-.44c-.08-.09-.18-.18-.27-.27l-.1.15-.49.84.09.3,1.1.92,0-.11A9.48,9.48,0,0,1,6.55,25.24Z"/><path class="cls-4" d="M7.85,27.8a2.07,2.07,0,0,1,0,.22c-.11,0-.31.06-.39,0A3.62,3.62,0,0,1,7.85,27.8Z"/><path class="cls-4" d="M9.91,33.94a2.86,2.86,0,0,0-.49.63c-.1.16-.19.33-.28.5,0-.31,0-.62-.05-.94s0-.47,0-.7a1.62,1.62,0,0,1,.1-.18,2.88,2.88,0,0,1,.54-.73c.18-.18.39-.3.57-.48.07.46.1.93.15,1.39C10.29,33.61,10.09,33.76,9.91,33.94Z"/><path class="cls-4" d="M9.43,38.42a.69.69,0,0,1,.2,0h0c.39-.66.79-1.32,1.15-2,0-.44-.07-.88-.13-1.33A11.42,11.42,0,0,0,9.3,36.8l0,.52A10.22,10.22,0,0,0,9.43,38.42Z"/><path class="cls-4" d="M10.16,30.84a1.88,1.88,0,0,0-.24.18l-.31.28a2.39,2.39,0,0,0-.43.64c0-.41,0-.83,0-1.24a1.73,1.73,0,0,1,.34-.21,1.39,1.39,0,0,1,.45-.14h.09c0,.05,0,.11,0,.16S10.14,30.73,10.16,30.84Z"/><path class="cls-4" d="M10.17,27.55a1.53,1.53,0,0,1-.18.68c0,.07-.07.17-.12.27H9.76a2.55,2.55,0,0,0-.53.18,2.92,2.92,0,0,0-1,.78v0l-.08,0c0-.12.17-.21.24-.32s.17-.37.27-.54a2.05,2.05,0,0,0-.36.24A5.44,5.44,0,0,1,8.71,28a6.25,6.25,0,0,1,.4-.6s0,0,0,0,.23-.24.34-.33A.81.81,0,0,1,9.77,27c0,.3-.3.58-.24.91C9.71,27.8,10,27.51,10.17,27.55Z"/><path class="cls-4" d="M7.88,27.68l-.22-.21a9.1,9.1,0,0,1-.24-1.13,3.66,3.66,0,0,1,0-.66l.25.24c.17.16.35.32.53.46a1.25,1.25,0,0,0,.17.12A7.57,7.57,0,0,0,7.88,27.68Z"/><path class="cls-9" d="M45.75,204.66c-.4-1.48.08-3.23.43-4.68a22,22,0,0,1,1.49-3.83c.64-1.48,1.22-3,1.91-4.42,1.13-2.35,3-4.36,4.61-6.43s2.68-4.4,4.05-6.6a35,35,0,0,0,2.67-6.19,21.73,21.73,0,0,0,1.28-5.45c.16-1.57.44-3.78-.29-5.21.31,1.43.87,2.84,1.28,4.26a26.38,26.38,0,0,1,1.25,4c.06.6-.25.85-.45,1.39a25.33,25.33,0,0,0-.67,3,86.9,86.9,0,0,1-2.4,8.85,37.89,37.89,0,0,1-3.49,8.37c-.86,1.38-1.62,2.77-2.56,4.11-.83,1.19-1.71,2.32-2.61,3.45A21.37,21.37,0,0,0,49.43,203c-.4.83-.8,1.73-1.12,2.6a5.18,5.18,0,0,0-.48,1.76,10.17,10.17,0,0,0-.15,1.55,12,12,0,0,1-.84-2.83c-.11-.44-.3-.86-.45-1.28-.21-.61,0-1.37-.48-1.92"/><path class="cls-1" d="M94.05,205.8c0-.12,0-.24-.08-.36-.15-.66-.24-1.32-.45-2-.13-.4-.27-.78-.36-1.19s0-1.17-.48-1.52a2.93,2.93,0,0,0-1.29-.48c-.41-.09-.84-.13-1.26-.21a4.48,4.48,0,0,0-1.36-.15c-.39,0-.79.19-1.17.2s-.62-.11-.94-.08a7.2,7.2,0,0,0-1.2.36,5.29,5.29,0,0,0-1.08.43c-.41.21-1.27.56-1.37,1.06s.65.55,1.07.5,1.07-.12,1.59-.14a4,4,0,0,1,2,.2c-.36.06-.75,0-1.12,0a6.33,6.33,0,0,0-1.65.41c-.45.19-.93.34-1.39.55-.21.1-.63.18-.74.42-.29.64,1.72.56,2.06.6.5.05,1,0,1.56,0a8,8,0,0,1,2.07-.06c.22.07.71.49.57.78-.08.14-.36.14-.49.18s-.48.28-.72.4a22,22,0,0,0-3.33,1.83,1.31,1.31,0,0,0-.62.71c-.11.4,0,.55.41.65a5.85,5.85,0,0,0,3.27-.39c.83-.23,1.67-.43,2.48-.63a4.85,4.85,0,0,1,.85-.13,3.1,3.1,0,0,1,.86-.07c1.25.18,1.85,1.41,2.61,2.27.12.15.33.4.5.2a2.15,2.15,0,0,0,0-.91c-.14-.62-.38-1.21-.49-1.85S94.15,206.35,94.05,205.8Z"/><path class="cls-9" d="M123.49,234.22c-.28-1.59,1.46-3.51,2.5-4.36a19,19,0,0,1,7.83-3.38,20.59,20.59,0,0,0,10.81-6.34,12.56,12.56,0,0,1-.86-3.72c-1,.37-1.78,2.09-2.83,2.71a14.67,14.67,0,0,1-4,1.39c-2.92.71-5.56.69-8.13,2.35a9.44,9.44,0,0,0-4.08,5.41c-.32,1.11-.71,2.22-1,3.44-.26,1,.28,4.4-1.18,4.38"/><path class="cls-9" d="M138.2,190.11c-.2.68-1.3.91-1.88,1.25a9.49,9.49,0,0,0-2.5,1.94,37.29,37.29,0,0,0-5.63,8.92c-.63,1.45-1.49,2.8-2.14,4.25-.43.95-.53,2-1.07,3-.9,1.62-2.4,2.13-3.32,3.4a.78.78,0,0,0,.53-1.14c-.37-.64-1.91-.38-2.46-.38-.88,0-3.56-.36-4,.26,1.9-.61,3.09-4.1,4.33-5.58a25.08,25.08,0,0,0,2.9-3.46c.85-1.44,1.46-2.94,2.19-4.44,1.15-2.34,2.44-4.88,4.92-5.94a17.39,17.39,0,0,1,4.41-1.24c.84-.13,3.17,0,3.74-.56"/><path class="cls-9" d="M85,283c.5.58.46,2,.56,2.79.24,1.9.2,3.82.46,5.74.43,3.26.85,6.61,2.8,9.29a18.68,18.68,0,0,0,4.31,4.38,8.08,8.08,0,0,1,3.09,3.68c-1,.92-1.77,4.62-1.51,5.93,0-2.23-4-3.83-5.35-5.22A55.82,55.82,0,0,1,83.46,303c-2.21-3.32-1.2-5.71-.95-9.33.09-1.31.14-2.49.32-3.74.1-.71-.18-1.52,0-2.21s.58-.6.65-1.24"/><path class="cls-9" d="M94.4,328.08c3.14.82-3.58,6.73-4.32,7.28s-9.31,6.49-6.08,7.7c.28-2.37,5.22.11,6.28,0,0-1.92,2.21-4.34,3.48-5.53,1.57-1.47,3.82-2.51,4.95-4.45a3.72,3.72,0,0,0,0-4.37c-1.44-1.75-3.28-.65-4.94-1.88"/></g></g></svg>