<svg xmlns="http://www.w3.org/2000/svg" viewBox="0 0 262.13 395.71"><defs><style>.cls-1{fill:#007293;}.cls-2{fill:#fff;}.cls-3{fill:#1d1d1b;}.cls-4{fill:#e9ad00;}.cls-5{fill:#e30613;}.cls-6{fill:#34a33d;}.cls-7{fill:#95bc2c;}</style></defs><g id="Ebene_2" data-name="Ebene 2"><g id="Ebene_1-2" data-name="Ebene 1"><path class="cls-1" d="M112.34,250.56c-.77,1.83-2.66,5.79-1.9,8s5.9,3.52,7.89,4.22c3.15,1.1,6.61,1.21,9.82,2,2.9.75,6.37.5,9.43.4,1.35,0,3.23-.11,4.3-.88s1.42-2.59,1.89-3.91c.87-2.47,1.63-4.95,2.75-7.38a24.33,24.33,0,0,1,1.34-2.45l.73-1.17a12.69,12.69,0,0,0,1-1.79c.25-.59.23-1.25.53-1.81.39-.74,1.15-1,1.68-1.62,1.53-1.74,1-5.61.48-7.66a30.42,30.42,0,0,0-2.94-7.66c-.45-.78-1.08-1.4-1-2.35a14.3,14.3,0,0,1,.6-2.17,44,44,0,0,0,1-5.11c.25-1.84.72-3.64,1.1-5.45.19-.91,1.31-3.12,0-3.5s-2.12,1-3,1.61c-1.16.79-3,.84-4.38,1a71.28,71.28,0,0,1-7.46.09c-2.38,0-4.52.26-6.59-.79a39.72,39.72,0,0,0-3.68-1.87c-.37-.15-1.5-.65-1.88-.4s-.17.86-.13,1.31a47.29,47.29,0,0,0,2.1,10.05c.5,1.57,1.06,3.11,1.57,4.67.34,1,1.3,2.15.8,3.13-1.24,2.41-3.49,4-4.56,6.57a12.36,12.36,0,0,1-2.87,4.66c-1.39,1.26-3,2.26-4.35,3.55A19,19,0,0,0,112.34,250.56Z"/><path class="cls-1" d="M76.7,371.21a9.6,9.6,0,0,0,.46-2.06,11.8,11.8,0,0,0,0-2.52,68,68,0,0,1-.56-7.81,47.21,47.21,0,0,1,.26-4.91,40.25,40.25,0,0,1,.42-4.39c.74-3.35,1.13-6.82,2.5-10a37.43,37.43,0,0,0,2.17-7.31,8.5,8.5,0,0,0,0-3.95c-.36-1.4-1.16-2.66-1.69-4.09-.82-2.17-1.89-4.74-.91-7a14.74,14.74,0,0,1,3.18-4.41,21,21,0,0,0,3.37-4.35,12,12,0,0,0,1-2.15c.28-.77.53-1.55.85-2.29.56-1.34.62-2.66,1.1-4a27,27,0,0,1,1.3-3.26c1.11-2.15,2.22-4.32,3.28-6.32,1.26-2.37,1.93-4.91,3.48-7.09a51,51,0,0,0,3.42-5.83,49,49,0,0,1,3.57-6.24c.89-1.29,2.46-4.45,4.18-4.86s4.76,1.9,6.2,2.82c1.92,1.24,3.82,3.26,6,4-.27,1.82-2,4.39-2.95,5.95a55.17,55.17,0,0,0-3.08,6,52.51,52.51,0,0,1-3.85,7c-2,3-3.75,6.51-5.56,9.68s-3.63,5.89-5.47,9c-1.64,2.77-3.41,5.27-4.89,8.07a6.14,6.14,0,0,0-1.1,3.36,9.1,9.1,0,0,1-.18,3.45,21,21,0,0,0-1.13,7v4.95a27.8,27.8,0,0,1-.21,5.17c-.37,2-.38,4-.65,6a28.13,28.13,0,0,0-.65,3.48,15.67,15.67,0,0,1-.49,3c-.39,1.84-.52,3.71-1,5.56-.27,1.08-.79,2-1.14,3.07a21.64,21.64,0,0,1-.69,2.36,20,20,0,0,0-1.9,4.29c-.25,1.16-1,2.17-1.2,3.34a11.57,11.57,0,0,0,.12,3.37c.14,1.2.58,1.75.22,3-.56,1.94-4,3.14-5.77,2.59a8.67,8.67,0,0,0-3.35-.4c-1.09.1-2.1.62-3.17.69a8.56,8.56,0,0,0-2.51.24,26.67,26.67,0,0,0-3.09,1.62,6.72,6.72,0,0,1-2.37,1.09c-1.38,0-1-1.17-1.11-2.13-.59,0-2.81-.58-3-1.39-.18-1,1.86-1.34,2.51-1.27.62-1-1.27-.94-1.27-1.9,0-1.34,1.73-.24,2.35-.47a2.14,2.14,0,0,0-.23-1.43,3.26,3.26,0,0,1-.38-1.55c0-1,.71-2.75,2.11-2.12,1,.45,1.17,2,2.15,2.61a6.25,6.25,0,0,0,1.56.64c1.52.38,3.33-1.46,4.59-2.1A6.54,6.54,0,0,0,76.7,371.21Z"/><path class="cls-2" d="M31.38,40.31c-.27.17-.58-.77-.79-1a3.09,3.09,0,0,0-1.54-1A11.73,11.73,0,0,0,27.22,38c-.65-.09-1.38-.27-2-.34a39.75,39.75,0,0,0-9-.5,19.93,19.93,0,0,0-3.65,1.13,30.48,30.48,0,0,0-3.49,1,8.16,8.16,0,0,0-2.87,2,2.91,2.91,0,0,0,.2,3.53c1.3,1.61,3.88,1.82,5.78,1.82,1.56,0,3-.26,4.58-.33a20.83,20.83,0,0,0,3.95-.5c1.92-.48,3.94-.68,5.66-1.71A11,11,0,0,0,30.55,40"/><path class="cls-1" d="M121.41,190.65c-3.77.19-5.29,2.52-8.17,4.43-2.58,1.7-5.69,1.78-8.32,3.18-1.4.75-2.6,1.85-4,2.61a25.23,25.23,0,0,0-4.33,2.6,6,6,0,0,0-.88.78,2.11,2.11,0,0,1-.61.58,20.61,20.61,0,0,0-2.16,1.42c-.47.38-1,.76-1.41,1.16-.71.64-1.44,1.25-2.15,1.9a10.24,10.24,0,0,0-1.45,1.63c-.17.24-.34.48-.52.71a.57.57,0,0,0-.18.51c0,.11.06.26-.08.13a2.46,2.46,0,0,1-.36-.58,3.89,3.89,0,0,0-.25-.4,1.71,1.71,0,0,1-.21-.26,3.46,3.46,0,0,0-.32-.6,13.19,13.19,0,0,0-.93-1.29,30.41,30.41,0,0,0-2.23-2.45,20.59,20.59,0,0,1-3.77-5.91,9.43,9.43,0,0,0-1.57-2.56c-1.55-1.65-3.34-2.89-4.49-4.89-.29-.49-.94-1.51-.71-2.12.32-.85,1.34-.29,2-.54,0-1.09-1.5-1.71-2.33-2.13-.14-.08-.9-.49-.56-.76s.88.26,1.09.45c.4.33.75.73,1.16,1.05.16.13.5.39.72.32.38-.13,0-.86-.1-1.07a4.43,4.43,0,0,0-.8-1.11,10.72,10.72,0,0,0-.9-.74,3.42,3.42,0,0,1-.67-.59c-.07-.09-.26-.25-.22-.39a2.05,2.05,0,0,1,.91.36,5.33,5.33,0,0,1,1.24,1.08,8.32,8.32,0,0,0,.9.88c.14.12.32.39.52.41.35,0,.21-.42.16-.61a21.63,21.63,0,0,0-.75-2.09,3.93,3.93,0,0,0-.87-1.49,4.05,4.05,0,0,0-1.7-.87A4.31,4.31,0,0,0,71,183c-.36,0-.71-.1-1.07-.13l-.21,0a5,5,0,0,0-1.49,0c-.23.05-.43.15-.65.22a1.75,1.75,0,0,1-.72,0,4.07,4.07,0,0,0-2.09.34c-.57.22-1.16.41-1.71.68a1.86,1.86,0,0,0-1.25,1.86,16.33,16.33,0,0,0,1,4.31,8.93,8.93,0,0,0,.61,1.42,10.56,10.56,0,0,0,.74,1.1c.48.77,1,1.51,1.51,2.26,1.27,1.83,2.62,3.6,3.95,5.39.41.54.84,1.06,1.2,1.64s.53.95.85,1.4A8.32,8.32,0,0,1,72.85,205c.29.7.65,1.37,1,2.06.42,1,.81,1.94,1.19,2.93,1.07,2.88,3,5.1,4.18,7.79,1,2.45.25,5.16,2.83,6.85,3.94,2.59,3.74-1.67,6.69-2.94,1.38-.59,3.09-.53,4.54-1.08a19.26,19.26,0,0,0,4.06-2c1.66-1.15,3.15-2.27,4.81-3.42a48.65,48.65,0,0,1,6.14-3.91c1.54-.76,3.24-1,4.8-1.7.84-.38,9.81-6.66,10.18-5.25.59,2.23,1.88,4.43,2.55,6.47,1.25,3.76,3.84,2,7.44,2.41,3.16.32,6.2,1.86,9.5,2a58.58,58.58,0,0,0,8.89-.09c.49-3.79-3-13,1.23-15.28,1.43,1.12,2.2,3.11,3.22,4.54a25.08,25.08,0,0,0,5.15,5.19c4.37,3.6,7.83,6.56,12.92,9a36.23,36.23,0,0,1,6.43,4.36c2.47,2,3,3.06,5.84,1.12,3.61-2.51,6.28-6.08,9.62-9a100.28,100.28,0,0,0,9.35-10c3.1-3.63,4.87-8.05,7.42-11.93.65-1,1.36-1.93,2-2.91.32-.48.63-1,.91-1.48a9.13,9.13,0,0,0,.54-1.43,8.21,8.21,0,0,0,.5-1.47,11.24,11.24,0,0,0-.05-3.88c-.1-.55-.19-1.09-.28-1.64a7.15,7.15,0,0,0-.2-1.14,2,2,0,0,0-.4-.88c-.16-.15-.49-.16-.69-.23a12.54,12.54,0,0,1-1.8-.78c-.66-.36-1.39-.54-2.05-.89a1.64,1.64,0,0,0-.88-.28,2.89,2.89,0,0,0-1.42.7,11.85,11.85,0,0,0-2,1.76c-.37.39-.74.79-1.09,1.21a16.4,16.4,0,0,0-1.06,1.31,10,10,0,0,0-.5.91c-.11.2-.56.78-.12.83.22,0,.51-.26.67-.38s.56-.49.83-.74a3.63,3.63,0,0,1,1.41-1c.2,0,.28,0,.19.25a3.06,3.06,0,0,1-.71.77,9,9,0,0,0-2.26,2.5c-.15.34-.44,1.43.29,1.36a1.92,1.92,0,0,0,.91-.55c.28-.24.66-.81,1-.89s.3.17.27.37a3,3,0,0,1-.62,1.08,2.39,2.39,0,0,0-.58,1.51c.08.37.35.49.66.62s.37.2.4.48A2.79,2.79,0,0,1,206,190a6.12,6.12,0,0,0-.7,1.43,19.66,19.66,0,0,1-1.75,3.22,9.12,9.12,0,0,1-3,2.84c-2.87,1.59-6.31,1.81-8.93,3.92-4.37,3.52-6.76,8.43-8.48,13.55-1.2-1.11-1-3.18-1.66-4.67a20.1,20.1,0,0,0-4.58-6.17c-2.55-2.41-5.48-3.4-8.7-4.55-4.22-1.51-7.28-3.92-10.48-7s-6.07-5-10.59-4.46a8.42,8.42,0,0,0-3.53,1.65c-1.65,1.24-3.42,2.84-5.38,3.56a11.89,11.89,0,0,1-4.4.62c-2.79,0-2-2-3.95-2.95-1-.49-3-.09-4.11-.15C124.33,190.72,122.87,190.58,121.41,190.65Z"/><path class="cls-3" d="M207.25,168.56c.07.65.12,1.31.17,2,.09,1.17.14,2.36.32,3.53a2,2,0,0,0,.16.51,3.5,3.5,0,0,1,.15.73c.1.57.22,1.14.3,1.72a1.16,1.16,0,0,1,.05.45,1.31,1.31,0,0,0-.54.37c-.12.13-.5.21-.52.39,0-.12-.11-.23-.16-.35a5,5,0,0,1-.18-.66,10.05,10.05,0,0,1-.2-1.07,9,9,0,0,0-.15-1.16,11.63,11.63,0,0,1-.29-1.45,11.16,11.16,0,0,0-.29-1.73c-.13-.47-.23-.94-.36-1.41a19.93,19.93,0,0,1-.56-3c-.3-2.16-.43-4.35-.83-6.5-1-5.3-1.63-11-2.21-16.55s-2.16-11.29-3.28-16.79c-1.23-6-1.78-12-3.11-18.07-4.68-21.42-6.39-42.15-12.35-63,.29-.15,1.41-.61,1.82-.76.6,1.94.49,3.74,1.27,5.78a41.86,41.86,0,0,1,2,6.33c1,4.54,1.52,9.2,2.13,13.78,1.23,9.31,2.29,19.14,4.32,28.63,1.09,5.06,1.81,9.9,2.9,14.92s1.29,9.81,2.64,14.53c2.81,9.81,2.74,19.84,4.9,29.43A75.74,75.74,0,0,1,207.25,168.56Z"/><path class="cls-3" d="M212.16,166.89V167c-.06,2.12,0,4.25-.12,6.38,0,1.09-.13,2.17-.28,3.25-.07.52-.15,1-.26,1.56,0,.19-.18.4-.1.58a1,1,0,0,0,.47.44,1.47,1.47,0,0,0,.83,0,.62.62,0,0,0,.47-.43,3.72,3.72,0,0,0,.12-.51,8,8,0,0,0,.12-1.2c.07-.73.13-1.45.18-2.19,0-.48,0-1,.07-1.46,0-.69.05-1.39.07-2.08a4,4,0,0,1,.31-1.23,14.87,14.87,0,0,0,.53-3.19c.12-1.1.19-2.21.25-3.32.1-2.1.14-4.21.4-6.3.8-6.59,1.12-13.54,1.37-20.46s1.77-14,2.73-20.85c1-7.46,1.22-14.85,2.38-22.38,4.09-26.64,4.49-52.16,10.23-78.22-.38-.15-1.82-.61-2.35-.76-.58,2.43-.3,4.63-1.11,7.2a50.38,50.38,0,0,0-2,7.93c-.82,5.64-1.14,11.39-1.51,17.06-.77,11.49-1.27,23.62-3,35.42-.94,6.3-1.44,12.28-2.4,18.53-.93,6.09-.8,12.12-2.09,18-2.7,12.27-1.77,24.53-3.68,36.46A90.72,90.72,0,0,0,212.16,166.89Z"/><path class="cls-3" d="M203.57,34.87c.24-.75.31-.8.22-.17-1.74,4.8-.06,10.84.14,15.58.26,6.07,1,12.39,1.84,18.65s.49,12.91.66,19.22c.18,6.9,1.12,13.58,1.2,20.55,0,2.38.08,4.76.17,7.14s.18,4.73.3,7.09.25,4.69.4,7,.29,4.66.45,7l.45,7c.15,2.32.29,4.63.42,7s.24,4.64.33,7,.16,4.66.2,7,.05,4.68,0,7-.09,4.73-.19,7.09c0,.32,0,.64-.05,1s-.06.54-.06.8.42.56.7.67a1.89,1.89,0,0,0,1.28.09.59.59,0,0,0,.4-.66c0-.42,0-.83-.07-1.25a27,27,0,0,1-.09-5.08,45.83,45.83,0,0,0,.65-7.48c-.1-5.21-.69-10.45-1.2-15.61-1-10.48-2.42-21.48-2.59-32.4-.08-5.82-.54-11.29-.6-17.07s-1.11-11.05-.81-16.58c.62-11.49-2.09-22.37-2.15-33.43a80.35,80.35,0,0,0-.31-10.76c-.45-3.36-1.35-7.37-1.06-10.89-.58,1.25-1.17.72-2.29.63"/><path class="cls-3" d="M241.51,45.66c.38-.6.46-.63.23-.09-2.63,3.82-2.63,9.62-3.59,13.88-1.22,5.47-2.07,11.28-2.85,17.06s-2.65,11.6-4,17.26c-1.48,6.18-2.26,12.37-3.85,18.58-.28,1.11-.56,2.23-.83,3.34q-.84,3.45-1.6,6.93t-1.48,6.89c-.47,2.29-.93,4.57-1.39,6.86s-.91,4.56-1.37,6.84-.92,4.54-1.4,6.81-1,4.53-1.48,6.79-1.06,4.53-1.63,6.78-1.17,4.52-1.8,6.77c-.33,1.13-.66,2.25-1,3.38a13.65,13.65,0,0,0-.86,3.29,1.07,1.07,0,0,0,0,.31c0,.14.11.2.22.28a1.68,1.68,0,0,0,.5.29,1.55,1.55,0,0,0,.66.15c.55-.08.43-.51.47-.95a9.93,9.93,0,0,1,.33-1.51c.08-.3.09-.62.19-.91s.16-.46.21-.7a12.21,12.21,0,0,1,.63-2,44.29,44.29,0,0,0,2.33-6.49c1.15-4.66,1.9-9.46,2.69-14.19,1.59-9.58,3-19.72,5.48-29.47,1.3-5.2,2.21-10.18,3.54-15.34s1.67-10.1,3.24-14.94c3.27-10.06,3.52-20.43,6.11-30.28a79.07,79.07,0,0,0,2.29-9.65c.41-3.1.59-6.89,1.68-9.95-.8,1-1.17.34-2.11,0"/><path class="cls-3" d="M62,175.84c.35,1.39.63,2.8,1,4.19.24,1,.5,2,.81,2.92a10.93,10.93,0,0,0,.5,1.39c.09.17.23.21.27.41a1.61,1.61,0,0,1,0,.49,1.06,1.06,0,0,1-.73.75,2.44,2.44,0,0,1-.81.1c-.27,0-.28-.19-.37-.46a7.08,7.08,0,0,1-.25-.78c-.11-.44-.16-.89-.26-1.34s-.25-1.14-.42-1.7-.3-1-.41-1.5c-.23-1.1-.48-2.2-.78-3.29a11.52,11.52,0,0,0-.35-1.14c-.13-.35-.34-.66-.44-1-.58-2-1-4.14-1.7-6.15-1.75-5.12-3.18-10.61-4.54-16.08s-3.74-10.86-5.64-16.15c-2.07-5.78-3.47-11.64-5.64-17.44C34.52,98.5,29.89,78.22,21,58.44c.27-.19,1.31-.8,1.7-1,.86,1.83,1,3.64,2.08,5.54a43.82,43.82,0,0,1,2.9,6c1.59,4.35,2.81,8.89,4.06,13.34,2.54,9,5,18.62,8.35,27.73,1.79,4.85,3.19,9.54,5,14.35s2.67,9.53,4.68,14c4.17,9.31,5.52,19.25,9,28.43A73.42,73.42,0,0,1,62,175.84Z"/><path class="cls-3" d="M68.78,176c0,1.58,0,3.17-.06,4.76,0,1-.08,2.06-.2,3.09a9.24,9.24,0,0,1-.23,1.49,1.82,1.82,0,0,0,0,1.28,1.84,1.84,0,0,0,.3.43,1.11,1.11,0,0,0,.6.37,1.13,1.13,0,0,0,.71-.24c.1-.1,0-.25.08-.37s.1-.33.13-.5a4.4,4.4,0,0,0,.07-.73c0-.4.09-.8.12-1.2.08-.91,0-1.83.11-2.75,0-.57,0-1.15.08-1.73l.12-1.48c0-.39.06-.78.06-1.18a3.94,3.94,0,0,1,0-1,15,15,0,0,0,.23-2c.13-2.11.12-4.24.37-6.35.66-5.55.91-11.42,1.1-17.25s1.44-11.81,2.22-17.58c.84-6.3,1-12.53,1.93-18.88,3.34-22.47,3.61-44,8.33-66-.31-.13-1.51-.52-2-.65-.48,2.05-.24,3.91-.9,6.07a42.17,42.17,0,0,0-1.66,6.69c-.67,4.75-.92,9.61-1.22,14.39-.61,9.69-1,19.92-2.44,29.87-.76,5.31-1.16,10.36-2,15.63-.76,5.12-.63,10.21-1.7,15.19-2.22,10.34-1.41,20.68-3,30.74A76.41,76.41,0,0,0,68.78,176Z"/><path class="cls-3" d="M54.61,37.62c.2-.75.27-.81.21-.16-1.44,4.87.39,11.15.78,16,.49,6.25,1.47,12.78,2.51,19.25s1,13.29,1.42,19.79c.46,7.09,1.62,14,2,21.18,0,.68.07,1.36.11,2q.19,3.34.45,6.69c.16,2.21.35,4.42.54,6.63s.4,4.39.61,6.58.43,4.37.65,6.55l.66,6.52.63,6.52q.3,3.25.57,6.51t.49,6.53q.21,3.27.36,6.54c.1,2.19.17,4.39.22,6.58,0,1.11,0,2.21,0,3.31v2.49c0,.11,0,.23,0,.34s-.08.19-.1.3a.79.79,0,0,0,0,.3,1,1,0,0,0,.19.44,1.1,1.1,0,0,0,.62.28.94.94,0,0,0,.68-.07c.21-.11.24-.13.24-.37s0-.76.08-1.14q.07-1.25.12-2.49c0-.77.05-1.54.06-2.3,0-.39,0-.77,0-1.15a5.42,5.42,0,0,0,0-.57c0-.11,0-.2,0-.31a15.83,15.83,0,0,1,.13-1.68c0-.55.07-1.1.09-1.66,0-1.1,0-2.2,0-3.3-.31-5.36-1.08-10.76-1.78-16.09-1.42-10.81-3.18-22.18-3.79-33.41-.33-6-1-11.63-1.29-17.59-.29-5.79-1.5-11.39-1.45-17.06.11-11.79-2.91-23.09-3.42-34.46a91.09,91.09,0,0,0-.74-11.08C55.92,40.66,54.91,36.5,55,32.9c-.5,1.25-1.08.68-2.13.55"/><path class="cls-3" d="M101.6,41.15c.42-.66.51-.69.25-.1-2.91,4.17-2.93,10.47-4,15.11-1.36,5.94-2.31,12.27-3.19,18.56S91.73,87.34,90.21,93.5c-1.65,6.72-2.52,13.45-4.3,20.22-.56,2.15-1.09,4.3-1.61,6.46s-1,4.31-1.49,6.47-.94,4.29-1.39,6.44-.9,4.27-1.34,6.41-.87,4.26-1.31,6.39-.88,4.25-1.32,6.37-.91,4.25-1.39,6.36-1,4.24-1.47,6.35-1,4.23-1.6,6.33-1.15,4.23-1.78,6.33c-.31,1.06-.63,2.11-.95,3.16s-.6,2-1,3a1.54,1.54,0,0,0-.09.37,1,1,0,0,0,.37.83,1.05,1.05,0,0,0,1.14.42,1.33,1.33,0,0,0,.7-.66,7.51,7.51,0,0,0,.21-.94c.12-.49.21-1,.31-1.47a17.22,17.22,0,0,1,1-3.72,44.86,44.86,0,0,0,2.59-7.06c1.28-5.07,2.12-10.29,3-15.43,1.79-10.43,3.39-21.45,6.12-32.06,1.45-5.66,2.48-11.08,3.94-16.7,1.43-5.47,1.88-11,3.62-16.26,3.63-11,3.94-22.23,6.81-32.94a81.92,81.92,0,0,0,2.55-10.5c.46-3.38.67-7.5,1.88-10.83-.88,1-1.3.37-2.33,0"/><path class="cls-1" d="M1.09,57.48c1.13,1.05,3.75.52,5.23.52,2,0,3.8.34,5.76.52,4.17.39,8-.52,11.93-.93A48.12,48.12,0,0,0,34.6,55.5c1.65-.55,3.75-.62,5.24-1.69s1.32-2.29,2-3.68c-3.05-1.76-7.35-1-11-1a94.22,94.22,0,0,0-12,.53C16,50-1.68,52.62.13,57.38c.91,0,1.08.5,1.48,1.14"/><path class="cls-1" d="M66.55,29.72c-6.91,0-14.44-.39-20.95,1-3.18.7-6.23,1.52-8.9,3.67s-1.45,4.38,1.56,5.66c5.67,2.42,13.09-.81,18.91-1.35,3.33-.31,14.62-2.25,13-7.89-1.37-.06-4.58-.08-5.16-1.13"/><path class="cls-1" d="M120.13,35.48c-.66-.56-5.58-1.9-7.68-2.12-3.23-.34-6.77,0-10,0h-10c-1.86,0-3.82-.14-5.67,0-1.66.12-3.26.68-4.9.6-1.07,8.13,16.89,7.78,23,7.78,4.53,0,9.06,0,13.59,0,1.84,0,4.15.36,4.59-1.69.54-2.51-3-2.12-3.41-4.08"/><path class="cls-1" d="M100.23,48.05c-.66-.56-5.58-1.9-7.68-2.12-3.23-.34-6.77,0-10,0h-10c-1.87,0-3.83-.14-5.68,0-1.65.12-3.26.69-4.9.6-1.07,8.12,16.89,7.78,23,7.78,4.53,0,9.06,0,13.59,0,1.84,0,4.15.36,4.59-1.69.54-2.51-3-2.13-3.41-4.08"/><path class="cls-1" d="M191.17,38l.78.11c-7.66-1-15.62,2.25-22.79,4.69-1.26.43-6.95,1.39-6.81,3.79.19,2.89,6.79,2,8.39,1.84,6.39-.85,12.44-.58,18.79-2.6,2.67-.85,14.09-3.28,13.17-7.67a24.22,24.22,0,0,0-6-1.48,18.05,18.05,0,0,0-6.39.11c-3,.64-6.22.59-9.23,1.35"/><path class="cls-1" d="M257.94,37.84c.44,0,.47,0,.08,0-3.56-1.73-8.68-1.49-12.57-1.59s-7.93-.66-12-.53A30.74,30.74,0,0,0,226,37.43c-3.08.94-3.61,3.43,0,4.1a114.71,114.71,0,0,0,20.56,1.55,43.16,43.16,0,0,0,10.33-.94c2.56-.6,7.88-.82,3.67-4.3"/><path class="cls-1" d="M220.09,27.72c4.74,2.11,1.69,4.81-1.71,5.67-3.92,1-8.26,2.42-12.37,3.13a95.48,95.48,0,0,1-16.23,1.06c-2.9,0-8.1.12-9.49-3.26s1.91-5.07,4.58-5.77c5.8-1.53,11-1.81,16.95-2.23C204.55,26.13,212.32,24.25,220.09,27.72Z"/><path class="cls-1" d="M253,4.59c1.94,3.21,1,6.83-2.1,8.39-8.6,4.27-19.66,1.25-28.79.39-3.13-.29-9.78.5-10.5-3.53-.55-3.06,2.83-5.37,5.23-6.45C221.7,1.21,227.18,2,232.43,2c2.44,0,4.88,0,7.32,0,1.89,0,3.53.69,5.38.53h0S252.18,3.27,253,4.59Z"/><path class="cls-2" d="M4.59,54.64a.32.32,0,0,0,.36.18c.33-.6,1.48-.71,2.06-1A15.92,15.92,0,0,1,9.38,53c1.6-.47,3.31-.8,4.92-1.31a38.53,38.53,0,0,1,5.58-.85,31.88,31.88,0,0,1,5-.4c3.47,0,6.8-.2,10.26-.2.64,0,1.89-.25,2.23.39.48.92-.59,1.43-1.22,1.67a21.17,21.17,0,0,1-5,1.11c-4.55.52-9.09,1.47-13.66,2a52.66,52.66,0,0,1-6.85.61,27.35,27.35,0,0,1-3-.2c-.7-.09-2.42-.29-2.81-.81"/><path class="cls-2" d="M64.93,31.11l.13.17a12.52,12.52,0,0,1-2.55-.17H59.9a23.82,23.82,0,0,0-5.43.41c-1.78.4-3.7.33-5.52.63a32.52,32.52,0,0,0-6.15,1.92c-1.2.47-2.91.92-3.46,2.22-.85,2,1.77,2.67,3.26,2.66A57.58,57.58,0,0,0,56,37.09a25.4,25.4,0,0,0,5.88-2,20.91,20.91,0,0,0,2.61-1.46c.89-.64.85-1,.61-2"/><path class="cls-2" d="M96.5,48.61c.17.3-.39-.13-.63-.21-.61-.2-1.3-.31-1.93-.45-1.93-.4-3.79-.7-5.74-.91-1.75-.19-3.58-.12-5.33-.25-1.25-.1-2.56,0-3.81,0a53.78,53.78,0,0,0-7.3.41c-.92.13-1.9-.16-2.82,0A18.58,18.58,0,0,0,67,48c-.82,2.12,5.33,2.85,6.36,2.94,2.09.18,4.21-.07,6.29.2a55.52,55.52,0,0,0,5.78.24c3.15.07,6.32.28,9.49.2.81,0,2.14-.13,2.63-.8s-.3-1.93-.82-2.61"/><path class="cls-2" d="M115.81,37.14c0,.17,0,.17,0,0-.22-.81-2.14-.84-2.82-1.07a13.58,13.58,0,0,0-2.77-.77,42.58,42.58,0,0,0-7.49,0c-2.4.2-4.81.19-7.25.19a42.16,42.16,0,0,0-5.62,0c-1,.14-4.56.09-2.87,1.66a9.31,9.31,0,0,0,5,2,116.94,116.94,0,0,0,16.75,1.56,15.17,15.17,0,0,0,4.82-.44c.77-.26,3.47-.84,3.6-1.93-.68-.65-1.81-.7-2.39-1.45"/><path class="cls-2" d="M194.91,38.58l.11.19c-2.44-.21-4.93.59-7.35,1.06l-6.61,1.28a58.13,58.13,0,0,0-6.84,1.46,17.24,17.24,0,0,0-4,2c-.44.28-1.3.72-1.36,1.27-.11,1,1.64.85,2.34.7,2.24-.47,4.46-.84,6.74-1.28,5.16-1,10.59-1.28,15.31-3.59.56-.27,1-.6,1.53-.84,1-.4.88-1,1.85-1.57"/><path class="cls-2" d="M215.57,28.49a98.33,98.33,0,0,0-11.26.45c-1.49.17-2.95.33-4.44.52-1.14.14-2.3-.06-3.45,0-2.33.19-4.83.56-7,1-1.08.2-4.11.49-3.58,2.26s2.82,1.81,4.43,1.81h7.42c5.23,0,10.78.08,15.7-1.85a6.21,6.21,0,0,0,3.07-2.13c.24-.36.74-.75.58-1.26-.23-.71-1.46-.38-1.83-1"/><path class="cls-2" d="M248,4.76c-3.36,0-6.66-.6-10-.6-1.49,0-3,.07-4.45.2s-3.14.16-4.67.36c-2.33.3-4.49,1-6.83,1.25-1.5.17-4.24.52-4.83,2.21s2.71,2.52,4,2.77c2.53.5,5.14,1,7.71,1.21a49.1,49.1,0,0,0,8.14.25,53.39,53.39,0,0,0,7.4-.6c2.22-.48,4.21-1.1,5.59-3,.58-.84,1-2.19.25-3-1.08-1.13-3.23-.8-4.63-.8"/><path class="cls-4" d="M244.57,4.6c-3,0-5.93-.44-8.94-.44-1.33,0-2.64,0-4,.14s-2.8.12-4.17.27c-2.07.22-4,.73-6.08.92-1.34.12-3.77.37-4.3,1.6s2.42,1.85,3.52,2c2.26.37,4.58.71,6.87.89a54.69,54.69,0,0,0,7.25.18,57.27,57.27,0,0,0,6.59-.44c2-.34,3.75-.8,5-2.21.53-.62.93-1.6.23-2.21-1-.83-2.88-.58-4.13-.58"/><path class="cls-2" d="M256.45,38.49l.13.17c-2.56.36-5.39-.86-7.93-1.23a66.24,66.24,0,0,0-7.9-1,47,47,0,0,0-6.18.21c-.84.09-1.64.08-2.46.2s-1.44.54-2.18.63c-.45,2.1,3.67,1.86,5,2a72.31,72.31,0,0,0,8.61.36c2.46,0,4.79.2,7.24.2a30.84,30.84,0,0,0,3.62-.25c.59-.06,2.75-.2,2.66-1.16"/><path class="cls-3" d="M42.19,21.18c.36.54.17,1.54.17,2.16a26.91,26.91,0,0,0,0,2.84c.17,1.64.19,3.37.51,5,.24,1.23,0,2.8.62,3.87a1.2,1.2,0,0,0,1.37.63,3.67,3.67,0,0,0,1.83-.51c.85-.76.43-2.74.3-3.82A34.77,34.77,0,0,1,46.52,27a34.7,34.7,0,0,0-.33-3.83,2.37,2.37,0,0,0-.62-1.71c-.53-.44-.85-.38-1.06-1.11A17.36,17.36,0,0,1,44.19,18c-.06-.47,0-2.13-.81-1.8-.21,1.7.53,3.19.28,4.93-.46.12-.77.48-1.3.36"/><path class="cls-3" d="M52.84,34.49c.2.11.16-1.16.16-1.5a13.5,13.5,0,0,0,0-1.8,2.51,2.51,0,0,1-2.34-1.48,3.17,3.17,0,0,1-.3-1.38c0-.32-.35-1.18-.13-1.46s.9,0,1.3.13A3.46,3.46,0,0,0,53,27a8.26,8.26,0,0,0,1.42-.24c.42-.14.87-.58,1.35-.43.58,1.22.23,4.36-1.61,4.32a4.47,4.47,0,0,1-.2,1.14c-.06.48,0,1,0,1.5a1.39,1.39,0,0,0,.33,1.16c.27.27.75.25,1,.55a8,8,0,0,1-4.08.59c-.09-.75,1.13-.26,1.14-1.14"/><path class="cls-5" d="M51.34,28.17c-.15,1,1,1.73,1.83,1.83,1.45.17,1.62-1.11,1.47-2.31a31.92,31.92,0,0,0-3.3.31"/><path class="cls-3" d="M5.26,47.8a9,9,0,0,1,.8,1.83,8.36,8.36,0,0,0,1,1.67,5.93,5.93,0,0,0,3.19,2,41.85,41.85,0,0,0,8.62.46,20.44,20.44,0,0,0,4.33-.67,10,10,0,0,0,3.32-1.2A10.32,10.32,0,0,0,31,45.47a12.27,12.27,0,0,0,.34-3c0-1.07.46-2.29,0-3.3-.65-.06-2,1.52-2.47,2A10.5,10.5,0,0,1,26.23,43c-2.5,1.24-5.13,1.45-7.84,1.78a72.1,72.1,0,0,1-7.81.17c-2.07,0-4.81-1.31-4.46-3.8.81-.27,1.57-.75,2.43-1.07s1.9-.7,2.87-1,2-.45,3-.67,2.34-.52,3.49-.67a25.39,25.39,0,0,1,7,.47c.51.07,1.08.27,1.54.33a8.07,8.07,0,0,1,1.63.2,2.67,2.67,0,0,0,1.32.34C30,39.1,30.44,39,31,39c.35-.91-2.71-1.07-3.3-1.27a34.2,34.2,0,0,0-3.66-.87,38.7,38.7,0,0,0-4.16-.5,9.08,9.08,0,0,0-2-.17,18.3,18.3,0,0,0-2.13.47,37.57,37.57,0,0,0-8,2.49,5,5,0,0,0-2.49,2.36,8.21,8.21,0,0,0-.66,4.17c.14,1,.71,3.34,2.16,3.32"/><path class="cls-6" d="M8.48,44.32c-.37,0-.57-1-.14-1.11.25-.07.68.3.87.45s.6.42.89.28a.47.47,0,0,0,.22-.59c-.05-.15-.24-.3-.18-.47.29,0,.33.1.57.2a2.57,2.57,0,0,0,.68,0c0,.34.27.72.2,1.06s-.39.26-.67.31c-.14.33.63.25.77.14s.15-.26.33-.3.43,0,.51.15a.37.37,0,0,1-.13.43c-.12.09-.24,0-.39.05a7.52,7.52,0,0,1-1,0,7,7,0,0,1-1.89,0c-.4-.12-1.29-.51-1-1.07"/><path class="cls-6" d="M11.93,44.32c.14-.09,0-.46-.06-.58-.27-.39-.69-.55-.63-1.09,0-.32.37-.73.74-.61s.26.58.58.54.48-.52.73-.53a2.1,2.1,0,0,1,.58.29c.19.12.31.46.54.34a1.45,1.45,0,0,0,.53-.84c0-.2-.07-.46,0-.63a.78.78,0,0,1,.65-.33c.26,0,.14.32.47.23.16,0,.31-.13.48-.17s.18-.07.3,0,.62,1.14.87.69c.15-.28,0-.7.21-.93s.46-.1.68-.1a1.2,1.2,0,0,1,.47.11c.06.14-.11.25-.14.38s0,.34.2.34a.63.63,0,0,0,.58-.67c-.18-.09-.49,0-.62-.2s0-.49.14-.64,1.3-.89,1.46-.24c.07.3-.1.61.09.88s.66.33.83.63c.33.58-.95.81-.77,1.4.21.1.31,0,.52-.06a.94.94,0,0,1,.39-.08c.12,0,.18.21.29.25s.46-.21.62-.39a.61.61,0,0,0,.21-.55c0-.35-.15-.71-.2-1.06s-.17-.71.05-.87a.74.74,0,0,1,.6,0c.14.11.08.45.08.6a2.65,2.65,0,0,0,0,.63c.09.31.36.21.58.29a3.85,3.85,0,0,1,.6.39c.32.19,1.11.44,1.44.14a1,1,0,0,0,.25-.63c0-.27-.34-.21-.5-.4-.4-.46.34-1.21.8-1.06.15,0,.25.2.43.25.34.1.35-.19.15-.44s-.34-.27-.31-.43.53-.2.68-.14.14.17.25.19.18-.08.29-.12a1,1,0,0,1,.64.07,1.28,1.28,0,0,0,.53.09c.26,0,.36-.12.43.15s.11.38.16.57,0,.36-.27.49a4.6,4.6,0,0,0-1.49,1.13,3.21,3.21,0,0,1-1,.92c-.31.17-.6.37-.92.55a9.75,9.75,0,0,1-1.31.48,11.16,11.16,0,0,1-1.61.51,25.94,25.94,0,0,1-2.94.36c-1.13.13-2.25.25-3.35.48a17.76,17.76,0,0,1-3.41.34A14,14,0,0,1,11.11,45a2.71,2.71,0,0,1-.58-.12c-.19-.12-.07-.2.05-.32s.62-.53.62-.84"/><path class="cls-3" d="M72.12,38.53a5.45,5.45,0,0,1,0,1.07v7c0,.79-.25,1.78.63,2A6.07,6.07,0,0,0,75,49a3.44,3.44,0,0,0,1.16-.34c.43-.25.32-.69.32-1.14,0-1,.11-2,.1-3.08s.18-2.37.21-3.56a17.91,17.91,0,0,0,.2-2.73,9.78,9.78,0,0,0-2.22.17,22.36,22.36,0,0,1-2.59,0h.18"/><path class="cls-4" d="M75.4,38.28a8,8,0,0,0,.21-1.47c.26-1.51.51-3,.65-4.54.24-2.41,1-4.79,1.26-7.17.24,0,.54,0,.73-.08a15.6,15.6,0,0,1-.64,3.35c-.25,1.31-.47,2.71-.61,4-.11,1.09-.36,2.21-.55,3.24-.11.55-.17,1-.31,1.59a11.38,11.38,0,0,1-.32,1.27"/><path class="cls-4" d="M73.29,38a.22.22,0,0,0,.09.07c.21-1.41-.06-2.94.12-4.37.1-.73-.07-1.5,0-2.24.06-.57.31-1.09.33-1.67a1.4,1.4,0,0,1,.5,0,36.2,36.2,0,0,1,0,4.42,35.93,35.93,0,0,1-.12,4.41c-.24,0-.64.12-.72-.19"/><path class="cls-4" d="M74.93,37.84c0-1.69-.32-3.36-.32-5.07a16.69,16.69,0,0,0,0-2A6.28,6.28,0,0,1,74.53,29,.56.56,0,0,0,75,29c0,.8.16,1.6.22,2.41.08,1,.2,2.07.33,3.08a21.53,21.53,0,0,1,0,2.41,6.14,6.14,0,0,1,0,1c0,.29-.37.72-.63.32"/><path class="cls-4" d="M73.56,38.4c0-2.16-.32-4.29-.32-6.44a24.18,24.18,0,0,0-.12-2.55c-.09-.83-.1-1.66-.21-2.49-.39-.13-.37,1.19-.41,1.48a18.84,18.84,0,0,0,.09,3.44c.08,1.07.08,2.16.1,3.24,0,.64,0,1.29,0,1.93,0,.45-.17,1.11.09,1.5"/><path class="cls-6" d="M80.94,48.57c.11,0,.12,0,0,0-.5-.4-1.23-.87-1.43-1.57s.28-1.3.79-1.83c.81-.86,3.1-2,4.13-1a3.86,3.86,0,0,1,.79,1.94A2.37,2.37,0,0,1,84.71,48c-.67.78-1.52.62-2.43.72-.57,0-2.21.36-2-.69"/><path class="cls-5" d="M81.08,48.44c.1,0,.11.05,0,.11-.73-.15-.76-1.48-.83-2-.1-.9.3-1.3,1.2-1.61A2.64,2.64,0,0,1,84,45,2.93,2.93,0,0,1,85,47.4c-.33,1.34-3.12,1.94-3.7.55a1.39,1.39,0,0,1,.81-2c1.1-.46,1.72-.05,1.55,1.12l-.22.13c.69-.38-.65-.88-1.06-.77a.76.76,0,0,0-.14,1.42,1.43,1.43,0,0,0,1.84-.1,1.9,1.9,0,0,0,0-2c-.67-.86-2.82-.66-3.47.13-.84,1,.36,2.82,1.57,2.65-.36,0-1.35.21-1.28-.39"/><path class="cls-6" d="M89.92,50.35c-.11,0-.12,0,0,0,.51-.41,1.26-.87,1.45-1.58s-.28-1.29-.79-1.83c-.83-.85-3.16-2-4.2-1a3.67,3.67,0,0,0-.8,1.93,2.34,2.34,0,0,0,.53,1.94c.68.77,1.55.62,2.47.71.58.06,2.25.37,2-.68"/><path class="cls-5" d="M89.79,50.22c-.11,0-.12.05,0,.11.74-.15.78-1.49.84-2,.11-.9-.3-1.3-1.22-1.61a2.72,2.72,0,0,0-2.54.1,2.86,2.86,0,0,0-1.06,2.4c.33,1.33,3.17,1.93,3.76.55a1.38,1.38,0,0,0-.83-2c-1.11-.46-1.74-.05-1.57,1.12l.22.13c-.7-.38.66-.89,1.08-.77a.76.76,0,0,1,.14,1.42,1.48,1.48,0,0,1-1.87-.11,1.88,1.88,0,0,1,0-2c.68-.86,2.86-.66,3.53.13.85,1-.36,2.82-1.59,2.65.36,0,1.37.2,1.29-.39"/><path class="cls-4" d="M100.21,39.54c-.77,0-2-.94-1.64-1.85a3.21,3.21,0,0,1,.81-.79,2.4,2.4,0,0,1,1.31-.34c-.07-.26-.35-.15-.53-.28a1,1,0,0,1-.28-.45c.33,0,.59-.19,1-.15s.65,0,1,.08c-.09.17-.29.22-.14.45a4.15,4.15,0,0,0-.44.38l.54.47a5.26,5.26,0,0,1,.59.43,1.55,1.55,0,0,1,0,1.69,2.73,2.73,0,0,1-1.39.69,1.73,1.73,0,0,1-1.34-.4h.18"/><path class="cls-4" d="M90.21,38c-.77,0-2-.94-1.64-1.84.09-.25.59-.63.81-.79A2.31,2.31,0,0,1,90.69,35c-.08-.26-.36-.15-.53-.28a1,1,0,0,1-.29-.45c.34,0,.6-.19,1-.15s.64,0,1,.08c-.09.17-.29.23-.14.46a4.23,4.23,0,0,0-.45.37c.19.16.37.31.54.47a6.9,6.9,0,0,1,.59.43,1.55,1.55,0,0,1,0,1.69,2.66,2.66,0,0,1-1.39.69,1.75,1.75,0,0,1-1.34-.4,1.08,1.08,0,0,1,.18,0"/><path class="cls-4" d="M94.07,37.61c.09,0-.43-.23-.53-.26a3.51,3.51,0,0,1-.92-.43,1.74,1.74,0,0,1-.68-1.31,1.42,1.42,0,0,1,.68-1.11,4.11,4.11,0,0,1,1.45-.28.79.79,0,0,0-.41-.35c.24-.3.34-.24.69-.19s.64,0,1,0c0,.2-.25.37-.32.56s.09.23.34.37a1.44,1.44,0,0,1,.74,1.26,1.27,1.27,0,0,1-.69,1.37,4.51,4.51,0,0,1-1.51.24c.11.17.45-.11.53-.24a2.09,2.09,0,0,0,.15-.79c.07.26-.3.6-.48.78a1.31,1.31,0,0,1-.27-.85,7.12,7.12,0,0,1,0,.8c-.3.07-.47-.48-.67-.61a.77.77,0,0,0,.21.6c.22.26.51.17.74.36"/><path class="cls-4" d="M110.22,38c.08-.05-.43-.22-.54-.25a3.45,3.45,0,0,1-.91-.43,1.72,1.72,0,0,1-.69-1.32,1.43,1.43,0,0,1,.69-1.1,3.87,3.87,0,0,1,1.45-.29.89.89,0,0,0-.41-.35c.24-.3.33-.23.68-.19s.65,0,1,0c0,.21-.24.38-.32.56s.1.23.34.38a1.45,1.45,0,0,1,.75,1.26,1.25,1.25,0,0,1-.69,1.36,4.55,4.55,0,0,1-1.51.24c.11.17.44-.1.53-.24a2.06,2.06,0,0,0,.15-.79c.06.26-.31.61-.48.78a1.38,1.38,0,0,1-.28-.85,5.33,5.33,0,0,1,0,.8c-.3.07-.46-.48-.66-.61a.76.76,0,0,0,.21.6c.22.26.51.18.74.37"/><path class="cls-4" d="M94.62,38.51c.24.07.45.3.7.4a2.11,2.11,0,0,0,.83.15c.51,0,1.07,0,1.39-.48a1.14,1.14,0,0,0,0-1.32c-.3-.35-.83-.54-1.11-.88a1.38,1.38,0,0,0,.89-.48c-.29,0-.55-.27-.82-.22s-.12.16-.26.22a.72.72,0,0,1-.5,0c-.09,0-.26-.15-.35-.15s-.08.12-.15.13a2.35,2.35,0,0,0-.27,0c-.35.27.24.34.41.43,0,.36,0,.41.4.4-.41.31-1,.21-1.23.74s-.19,1.37.57,1.2"/><path class="cls-4" d="M105.32,39.26c.23.08.45.3.69.4a2,2,0,0,0,.83.16c.52,0,1.07,0,1.4-.48a1.13,1.13,0,0,0,0-1.32c-.29-.35-.82-.55-1.1-.88a1.38,1.38,0,0,0,.88-.48c-.29,0-.54-.28-.82-.23s-.12.17-.25.23a.75.75,0,0,1-.51,0c-.09,0-.25-.14-.34-.14s-.09.12-.15.13a2.35,2.35,0,0,0-.27,0c-.36.27.24.34.41.43,0,.36,0,.41.4.4-.41.31-1,.21-1.23.74s-.19,1.37.56,1.19"/><path class="cls-4" d="M99.66,37.47c-.19.29-1-.18-1.25-.33a2,2,0,0,1-.68-1,1.52,1.52,0,0,1,0-1.09,1.33,1.33,0,0,1,1.08-.58,1.47,1.47,0,0,0-.39-.4c.51-.14.94,0,1.42-.13a1.37,1.37,0,0,0,0,.19c.21.07.31-.2.53-.12,0,.31-.59.49-.74.73a1.27,1.27,0,0,1,.39.3c.1.09.28.15.38.25a1.85,1.85,0,0,1,.33,1.06.91.91,0,0,1-.42,1c-.23.13-.85.45-1,.15"/><path class="cls-4" d="M103.66,39.89c-.18.29-1-.19-1.24-.33a2,2,0,0,1-.69-1,1.49,1.49,0,0,1,0-1.08,1.3,1.3,0,0,1,1.08-.58c0-.14-.26-.3-.38-.41.51-.13.93,0,1.41-.13,0,.06,0,.14,0,.19.21.08.31-.19.53-.11,0,.3-.59.49-.74.73a1.11,1.11,0,0,1,.39.29c.11.09.29.15.38.26a1.81,1.81,0,0,1,.33,1.05.89.89,0,0,1-.42.95c-.22.13-.84.45-1,.16"/><path class="cls-4" d="M105.32,37.54c-.19.29-1.06-.18-1.25-.33a1.93,1.93,0,0,1-.68-1,1.54,1.54,0,0,1,0-1.08,1.34,1.34,0,0,1,1.09-.58,1.63,1.63,0,0,0-.39-.4c.51-.14.94,0,1.41-.13,0,0,0,.13,0,.19.21.07.3-.2.53-.12,0,.3-.59.49-.74.73a1,1,0,0,1,.39.3,3,3,0,0,1,.37.25,1.75,1.75,0,0,1,.33,1.06.89.89,0,0,1-.41,1c-.23.13-.85.45-1,.15"/><path class="cls-1" d="M150.28,292.92a11,11,0,0,0,1.17,2.08,21.43,21.43,0,0,1,1.17,2.69c.67,1.83,1.15,3.71,1.72,5.56.8,2.59,1.15,5.21,1.73,7.83.83,3.77.33,7.75.64,11.6.15,1.83.68,3.54.66,5.39a7.13,7.13,0,0,0,1.16,3.42,19.39,19.39,0,0,1,1.86,4.4,17.12,17.12,0,0,1,.43,4.68c0,3.67,1,7,2.14,10.41,1,3.26,1.83,6.51,2.72,9.82s1.66,6.81,2.72,10.15c1,3.17,2.29,6.25,3.28,9.43.41,1.33.8,2.69,1.34,4,.37.86.57,1.83,1.51,2.26a6,6,0,0,0,2.6.61c.42,0,.83-.09,1.16.17a1.14,1.14,0,0,1,.12,1.43c-.38.47-2.45,0-2.12.84.45,0,2.17,0,2.41.49a.64.64,0,0,1-.56.84c-.25,0-.69-.39-1-.44-.91-.14-1.44.7-.43,1,.33.1,1,.24,1.17.58a.76.76,0,0,1-.44.91c-.48.25-.84,0-1.31,0s-.78.05-1.16,0-.87-.58-1.17-.38c-.54.37.18.65.45.74.56.17,1.52.44,1.73,1.07.94,2.92-8.42.22-9.66-1.56-1.38-2-1.15-4.67-2.48-6.71-1-1.55-3-2.32-2.94-4.43a30,30,0,0,1,1.23-5.28,5.34,5.34,0,0,0-.43-2.81,9,9,0,0,0-1.47-2.37c-.45-.59-1-1.13-1.4-1.74a23.05,23.05,0,0,1-2-3.82c-1-2.24-2.4-4-3.43-6.25a79.19,79.19,0,0,1-4.21-15.69A59.93,59.93,0,0,0,147,332.48c-1.14-3.38-2.35-6.67-3.38-10.15-1.06-3.64-2.85-7.18-4.11-10.76-2-5.71-4.83-11.18-6.91-16.91-.44-1.18-1.12-2.86-1.73-4.11-.48-1-.78-2.89-1.63-3.56,2.88-1.22,6.09-1.59,9-2.77s4.89-2.67,8.09-3c.28,0,1.91,5.12,2.09,5.63C149.12,288.83,149.75,290.87,150.28,292.92Z"/><path class="cls-4" d="M167,42.27l.14.13c-.48-1.06-1.82-1.61-2.63-2.39a8.85,8.85,0,0,1-2.46-3.81,1.25,1.25,0,0,0,1.44.59c.94,2.28,2.6,3.16,4.39,4.6.29-.81-.59-1.64-.95-2.31-.46-.87-.55-2-1.05-2.79a1.52,1.52,0,0,0,1.27.79,3,3,0,0,0,.42,1.53,10.11,10.11,0,0,0,1.21,2.74,8.37,8.37,0,0,0,.13-2c.06-.86.34-1.71.37-2.57a21.2,21.2,0,0,1,.37-5,1.32,1.32,0,0,0,.88-.07c0,.65-.23,1.3-.25,2,0,.89,0,1.8,0,2.7-.08,1.36-.15,2.66-.18,4,.42.22,1-.07,1.44,0a21.58,21.58,0,0,0,.44-2.9c.11-.73.07-2.53.58-3a.6.6,0,0,0,.49.61c0,1.83-.53,3.64-.53,5.47.77.11,1.68-1.1,2.2-1.58s1.33-1.61,2.26-1.28c0,1.92-1.44,2.72-2.12,4.31-.61,0-1.23-.2-1.85-.19-.82,0-1.64.23-2.45.32-.6.06-3.18.82-3.4.3"/><path class="cls-6" d="M171.42,45.52q.24,0,0,0c-1.43.3-4.38.72-5-1a5.52,5.52,0,0,1-.16-1.19c-.08-.88-.06-.61.68-.84,1.53-.45-.59-1.15,0-2.21,1.09-.34,1,1,1.89.77.11-.42,0-1.61.42-1.84.65-.39.73,1,1.38,1,.22-.78.07-1.56.66-2.17.88-.9,1,0,1,.79s-.46,1.82.74,1.71c.64,0,1.23-.79,1.78-1-.06.47.19.79,0,1.3s-.64.59-.52,1.2c.57.29,1.1-.33,1.64-.08-.05,2-2.52,3.7-4.39,3.45"/><path class="cls-3" d="M178.5,39.24c.33.7.07,1.47.29,2.25.13.48.34.89.46,1.37.08.31,0,1,.28,1.22.79.75,3.91-.69,4.94-.81.76-.09,1.17,0,1.26-.94a7.4,7.4,0,0,0-.34-1.91c-.12-.68-.16-1.26-.23-1.92a9.16,9.16,0,0,1-.33-1.87c-.81-.35-1.44-1.14-2.24-1.44-1.14-.42-2.26.17-3.28-.11a19.6,19.6,0,0,0-.34,2.17,8.3,8.3,0,0,0-.15,1.1,3.84,3.84,0,0,1,0,1.12"/><path class="cls-7" d="M179.31,42.72c0,.14,0,.22.15.23a8.68,8.68,0,0,1,3.25-.5,18.18,18.18,0,0,1,3.21-.31,8.84,8.84,0,0,0-.23-1.09c-1.31-.37-2.39.42-3.58.58a13.49,13.49,0,0,1-2.11.26c-.9,0-1.37-.13-1.05.94a.5.5,0,0,0,.34.08"/><path class="cls-7" d="M179,40.81a.17.17,0,0,0,.15.23,8.71,8.71,0,0,1,3.25-.5,18.2,18.2,0,0,1,3.22-.31c-.08-.35-.12-.73-.23-1.09-1.31-.37-2.4.42-3.59.57a13.4,13.4,0,0,1-2.11.27c-.9,0-1.36-.13-1,.94A.42.42,0,0,0,179,41"/><path class="cls-7" d="M178.79,38.53a.17.17,0,0,0,.15.24,8.44,8.44,0,0,1,3.24-.51,18.41,18.41,0,0,1,3.23-.31c-.08-.35-.12-.73-.24-1.09-1.3-.37-2.39.41-3.59.58a13.21,13.21,0,0,1-2.11.26c-.89,0-1.36-.13-1,.93a.44.44,0,0,0,.33.09"/><path class="cls-7" d="M187.38,38.64a.54.54,0,0,1,.33.08,2.82,2.82,0,0,0,1,2.37c.78.4,1.65-.17,2.35-.38s1.58-.52,2.37-.78a9.22,9.22,0,0,0,2.1-.68c.69-.45.41-1.4-.23-2s-1.79.06-2.51.29a13.24,13.24,0,0,1-2.71.49c-.62.09-1.64.75-2.27.41a.48.48,0,0,1,0-.35"/><path class="cls-5" d="M187.62,38.3l.13.14c.11-.38-.25-.4-.47-.7a2.65,2.65,0,0,1-.54-1c.56-.09,1,.61,1.37.5.74-.24-.09-1.21-.09-1.64.88-.2.6,1.07,1.31,1.25,1.1.28.57-1.22.83-1.69.77,0,.17,1.29,1.17,1.13s1-1.42,1.21-2.1c1.32-.34.38,2.5,1.73,1.2.89-.86.78-1.06,1.8-.11-.61.57-2,2-.3,2.19-.09.34-1.35.47-1.73.47a4.36,4.36,0,0,0-2.16.39A5.37,5.37,0,0,1,190,39c-.37,0-.74-.2-1.1-.17s-.73.32-1.13.19a1.9,1.9,0,0,1,.08-.71"/><path class="cls-3" d="M10,43.82a.57.57,0,0,1,.23.12,2.06,2.06,0,0,1-.5-.28c-.23-.13-.44-.3-.65-.44l-.93-.62c-.4-.25-.83-.5-1.22-.77a45.68,45.68,0,0,0-4-2.31c-.2-.12-.84-.3-.6-.59a.35.35,0,0,1,.44-.15,2.53,2.53,0,0,1,.49.2c.38.19.74.41,1.12.61s.69.45,1.06.65a9.3,9.3,0,0,1,1.42,1,11,11,0,0,0,1.36.89c.41.26.81.53,1.24.77a4.26,4.26,0,0,0,.85.49c0,.16.16.38.08.55A.34.34,0,0,1,9.9,44"/><path class="cls-3" d="M23.93,41.32a1.28,1.28,0,0,0,.29-.36c.31-.4.59-.84.89-1.26.7-1,1.37-2,2.08-2.9.36-.49.7-1,1.09-1.5.06-.08.18-.28.28-.32a.44.44,0,0,1,.33.2,3.29,3.29,0,0,0-.52.66c-.24.31-.47.64-.73.93a9.09,9.09,0,0,0-.8,1c-.27.44-.49.9-.8,1.33-.45.61-.9,1.2-1.29,1.85l-.18.28a2.05,2.05,0,0,1-.24.32c-.08,0-.17-.08-.24-.12s-.15-.09-.16-.28"/><path class="cls-3" d="M119.5,234a7,7,0,0,0-3-2.15c-2.9-1.33-6.25-1.09-9.53-1.09-2.68,0-7.29.79-9.13-1.46-2.33-2.86,1.57-6.42,4.36-4.48-1.19-3.5-5.8-2.67-7.4.43-2,3.8,2.06,7.3,5.5,8.19,6.51,1.68,19.86-3.79,21.62,5.85,0-4.3-6.41-1.21-8.27-.58-3,1-5.87,2-9,3.15a42.45,42.45,0,0,1-21.52,1.78c-2.86-.48-6.15-1.59-9.13-2.25-3.22-.71-6.59-1.77-9.81-2.68A40.38,40.38,0,0,0,45,238.34c-2.55.57-5.42,1.7-6.78,4.14-1.48,2.66-1.6,6-3.8,8.35-2,2.18-4.77,3.91-7.88,3-2-.56-6-4-6.29-6.08.41,3.3,2.44,5.75,5.1,7.83s6.69,1.2,9-.59c2.67-2.12,3.26-5.82,4.71-8.64.7-1.36,1.52-3.06,2.83-3.94,3.22-2.15,7.72-1.93,11.31-1.55,9.09,1,17.87,3.14,26.87,4.8,8,1.48,15.67.56,23.51-1.47,4.79-1.24,9.93-3,14.43-4.51,1.38-.46,2.31-1.58,3.72-1.18,1.07.29.46-.72,1.27,0a51,51,0,0,0,6.5,5.15c1.32.76,11.67,3.14,13.22,2.69.34-.09,5.11-1.51,5.67-1.83a16.94,16.94,0,0,0,1.53-1,8.54,8.54,0,0,0,1.29-1.26c.2-.21.35-.46.54-.67s.22-.32.35-.48c.12.07.19.2.3.29s.64.14.68.23-.47.69-.5.91a5.52,5.52,0,0,1-.48,1.54c-1,2.05-3.45,2.84-5.24,4.05-2.67,1.8-6,1.76-9.14,1.09s-6.46-.73-9.41-2.08a11.8,11.8,0,0,1-6.26-7.88A41.64,41.64,0,0,0,119.5,234Z"/><path class="cls-3" d="M135.67,236c.72.77-.31,2.53,1.54,2.13a2.84,2.84,0,0,0-.11-1.59c-.21-.36-.8-.82-1-.34"/><path class="cls-4" d="M187.56,33.67c.31.3,1.31.12,1.74.12h1.62a11.14,11.14,0,0,0,3.83-.26c.86-.33,2.08-1.2,2.08-2.18s-1.33-1.11-2.21-1.28A18.57,18.57,0,0,0,191,30h-3.25a23.41,23.41,0,0,0-3,0c-.5.07-2.17.31-2.06,1.13,0,.4.86.88,1.13,1.1a7.57,7.57,0,0,0,1.51.93,7.5,7.5,0,0,0,1.62.67,8.44,8.44,0,0,1,1.17.11"/><path class="cls-4" d="M199,30.42c.21-.13.15-.85.37-1.16a3.17,3.17,0,0,1,1.11-.84,9.05,9.05,0,0,1,3.07-.81c1.35-.2,2.66-.48,4-.64a8.26,8.26,0,0,1,1.86.09,2.93,2.93,0,0,1,1.38.25c1.24.81-.16,1.69-.78,2.18a9.08,9.08,0,0,1-3.85,1.37,13.94,13.94,0,0,1-4,.58,10.65,10.65,0,0,1-1.59-.21,3.94,3.94,0,0,1-1.4-.55c-.26-.24-.2-.28-.11-.61"/><path class="cls-4" d="M204.83,33.44c.23.36,2.59-.87,3-1,1.85-.76,3.69-1.42,5.58-2.07a8.49,8.49,0,0,1,2.09-.5,4.11,4.11,0,0,1,1.4,0c.8.41.44,1.61,0,2.07a5.9,5.9,0,0,1-2.46,1.42,39.56,39.56,0,0,1-5.13,1.71,6.66,6.66,0,0,1-2.88,0c-.39-.12-1.68-.86-.82-1.32,0-.07,0-.1-.1-.08"/><path class="cls-7" d="M185.24,31.24l.09.07c0-.63-1.56-.72-1.81-1.49-.31-1,.7-.91,1.23-.53s1,.52,1.07,1.13c.05.36.06.73-.23.93s-.69.09-.59-.35"/><path class="cls-7" d="M188.93,32.34l.11-.06c-.56-.27-1.31,1.11-2.12,1-1-.13-.52-1,.05-1.33s.89-.67,1.47-.5c.36.11.7.26.75.61s-.21.66-.56.38"/><path class="cls-7" d="M187.32,30.89c-.07,0,0,.15-.21.13-.24.69,1,1.34,1.36.68s-1-1.32-1.38-.7"/><path class="cls-7" d="M190.45,30.19c.25.17.8.15.83.58s-.35.57-.59.56c-.95,0-.49-1-.58-1.49"/><path class="cls-7" d="M192.77,30.42c.1.08.11.09,0,0-1-.42-.61,1.85.57,1.33s-.34-2.18-.93-1.25"/><path class="cls-7" d="M207.85,32.39c.1.08.1.09,0,0-1-.42-.62,1.85.56,1.33s-.34-2.18-.93-1.25"/><path class="cls-7" d="M190.57,32.28c.18.26,0,.59.22.82a1.12,1.12,0,0,0,.82.11c.89-.35-.16-1.25-.46-.82"/><path class="cls-7" d="M193.59,32.28c.27.33,0,.56.55.58a.67.67,0,0,0,.7-.4c.32-.85-.84-.76-1.37-.76"/><path class="cls-7" d="M200.31,28.33c0,.33-.33.59-.12.91a.62.62,0,0,0,.82.15c.85-.51-.17-1.31-.7-.83"/><path class="cls-7" d="M203.21,28.68c-.25.23-.62.17-.7.71s.13.69.59.68c1,0,1.08-1.4-.12-1.27"/><path class="cls-7" d="M214.11,31.23c-.25.23-.62.18-.7.7s.13.7.58.69c1,0,1.09-1.4-.11-1.27"/><path class="cls-7" d="M202.51,27.41c-1-.22-.77,1.07.18,1.16,1.17.11,1.23-1.33.17-1.28"/><path class="cls-7" d="M205.3,27.52c-.2,0-.43-.16-.58-.11-.32.11-.38.66-.35.93.06.58.34,1.07,1,1a.85.85,0,0,0,.78-1.05.92.92,0,0,0-1.39-.34"/><path class="cls-7" d="M208,27.52c-.19.3-1.05.17-1.17.81s.77,1,1.28.93.64-.35,1-.46a2.68,2.68,0,0,0,1.12-.58c-.39-.45-.55-.7-1.12-.84s-1.09.52-1.73.38"/><path class="cls-7" d="M209.82,32.63c-.19.29-1,.17-1.16.8s.77,1,1.28.93.63-.35,1-.46a2.65,2.65,0,0,0,1.13-.58c-.39-.45-.56-.7-1.12-.84s-1.1.52-1.74.38"/><path class="cls-7" d="M205.53,27.06c0,.41,0,.68.34.9a.82.82,0,0,0,1.2-.2c.51-1-.93-1.65-1.54-.93"/><path class="cls-7" d="M214.81,30c0,.41,0,.67.34.9a.81.81,0,0,0,1.2-.21c.5-1-.94-1.64-1.54-.92"/><path class="cls-7" d="M210.86,31.24c0,.41,0,.67.35.89a.82.82,0,0,0,1.2-.2c.5-1-.94-1.64-1.55-.93"/><path class="cls-5" d="M227.66,6.58c-1.23,1.75-4.69-.64-4.36-2.71S226,2,227.51,1.76c-.26-3.09,4.28-1.44,5.29-.12,1.38,1.83,1.92,4.2,4,5.5,1.2.76,5.93,1.91,7,.32,1.94-3-5.67-2.69-6.64-3.35-.71-.47-1.66-1.74-2.69-1.06s-.53,2.45.73,2.27"/><path class="cls-7" d="M227.88,6.79c.64-1.81,3.81-5.25,5.83-4.65-.25,2.17,2.13,1.39,3.53,1.57.89,4.48-9.24,4.58-8.58,1.9"/><path class="cls-3" d="M232,39.12c-.08.13-.66.05-.82.05a8.24,8.24,0,0,1-1-.09c-.32,0-.65-.06-1-.12s-.41-.17-.63-.23a6.48,6.48,0,0,1,.4-2.62,14.91,14.91,0,0,1,.62-2.25,1.35,1.35,0,0,1,.22-.43c.12-.1.31-.06.47-.06.44,0,.86,0,1.29.05,1,.07,1.95.07,2.89.23a2,2,0,0,1,.12.84c0,.46,0,.94.06,1.4.08.74.2,1.47.21,2.21a.64.64,0,0,1-.34.68,2.73,2.73,0,0,1-.94.35,5.58,5.58,0,0,1-1.15.15c-.29,0-.62.14-.9,0"/><path class="cls-7" d="M231.48,31.81a4.59,4.59,0,0,0-.19,1.76c0,.15.24.9.5.83s.15-.5.16-.61c.06-.39.11-.79.17-1.18.11-.77.24-1.54.4-2.31.09-.36.2-.72.29-1.08a2,2,0,0,1,.23-.73c.11-.17.41-.28.57-.4a2.79,2.79,0,0,0,.64-.52,2,2,0,0,1-1,.2,2.27,2.27,0,0,1,.32-.57,1.8,1.8,0,0,1,.35-.5c-.17.12-.28.23-.45.33a1.45,1.45,0,0,0-.5.41c0-.4,0-.8,0-1.2a4.57,4.57,0,0,0-.38.87c-.22-.3-.29-.77-.52-1.05a3.19,3.19,0,0,0,.1,1,4.21,4.21,0,0,1,.21.81,4.25,4.25,0,0,1-.17.63c-.07.27-.15.54-.2.82C231.85,30.17,231.62,31,231.48,31.81Z"/><path class="cls-7" d="M233.18,34.12c.06,0,.08-.26.1-.37s.07-.4.11-.61c.09-.53.18-1,.28-1.57a4.33,4.33,0,0,0,.11-.89c0-.21-.09-.68.05-.84.14.13.25.27.39.4.15-.11.33-.39.57-.31a1.47,1.47,0,0,0,.12.58c.33,0,.88.32.6.67s-.75-.08-.88.45c-.22.88-.45,1.86-.65,2.75-.29,0-.5.28-.74-.05"/><path class="cls-7" d="M230.23,33.85s0,0,0,0a3.67,3.67,0,0,1-.14-.87c0-.29,0-.57-.06-.86a7.48,7.48,0,0,1-.15-1.77c.09,0,.21.09.27.16s.08.14.1.32a2.36,2.36,0,0,0,.18.74c.2-.07.09-.91.09-1.12a9.87,9.87,0,0,1,.06-1.22,1.15,1.15,0,0,1,.37,0,21.83,21.83,0,0,1-.11,2.56,16.18,16.18,0,0,1,0,2.31.75.75,0,0,1-.42,0c-.13-.06-.16-.2-.32-.23"/><path class="cls-3" d="M238.66,38.88a2,2,0,0,0,.67.23c.43.07.87.17,1.31.24a6.37,6.37,0,0,0,2.64.12,1.24,1.24,0,0,0,.38-.14c.16-.12.12-.11.11-.29a8.93,8.93,0,0,0-.09-1c-.1-.64-.24-1.28-.37-1.92-.05-.25-.08-.5-.11-.75s0-.19,0-.29,0-.28,0-.32-.36,0-.53,0l-.76,0a16.88,16.88,0,0,0-2.25,0c-.21,0-.41.13-.61.16s-.37,0-.55.05,0,.59,0,.79c0,.39-.1.77-.13,1.15a3.57,3.57,0,0,0,.17,1.92.53.53,0,0,0,.26-.19"/><path class="cls-7" d="M239,34.82a.08.08,0,0,1,0,0,1.51,1.51,0,0,1-.33-.13,4.12,4.12,0,0,0-.47-.13c-.26-.06-.51-.21-.76-.25,0-.38.28-.29.53-.15.09,0,.25.2.35.15s.12-.2.19-.28.41,0,.64.06.4,0,.61-.24.11-.14.23-.14.15.12.28.16c.33.08.32-.48.63-.49.12,0,.21.21.31.28s.17.13.39,0,.5-.34.7,0a1.3,1.3,0,0,1,.93-.31,3.3,3.3,0,0,1,.71.24,1.26,1.26,0,0,1,.41.17c.06.07.17.32.1.41s-.49,0-.63.15a.62.62,0,0,1,.05.64c-.14.17-.44,0-.58-.1s-.37-.29-.73-.2a2.91,2.91,0,0,1-.64.13c-.27,0-.5-.07-.77,0s-.59,0-.85.07-.44.08-.65.1-.57,0-.68-.08,0,0,0-.08"/><path class="cls-5" d="M238.47,34.23c.05,0,.06,0,0,.05-.65,0-.6-.86-.12-1.09a.67.67,0,0,1,.84.89c-.35,0-.61-.23-.73.2,0,0,0,0,0-.05"/><path class="cls-5" d="M240.54,33.76c-.25,0-.32-.88,0-1a.76.76,0,0,1,.6.24.63.63,0,0,1,.13.71c-.22,0-.15-.26-.3-.3s-.36.25-.38.35,0,0,0-.06"/><path class="cls-5" d="M242.58,33.56s0,0,0,0c0-.32-.17-.67.3-.72.21,0,.7.14.6.43a1.32,1.32,0,0,0-.44.08c-.14,0-.31.18-.44.15"/><path class="cls-3" d="M247.4,34.35a2.17,2.17,0,0,1,.17.73c.11.58.26,1.16.37,1.74s.16.93.27,1.39a2.35,2.35,0,0,0,.11.54c.2.38.46.34.85.28.77-.13,1.6-.07,2.38-.15l1.28-.14c.2,0,.28,0,.37-.2a2.4,2.4,0,0,0,.11-.51q.12-.56.21-1.11c.14-.75.26-1.51.4-2.27.06-.35.09-.7.13-1a2.39,2.39,0,0,0,.06-.64c-.14-.05-.33.09-.46.14a3.6,3.6,0,0,1-1.08.24c-.84.06-1.66.22-2.48.36a9.9,9.9,0,0,0-1.73.27,3,3,0,0,1-.48.16c-.1,0-.29,0-.36.12a.3.3,0,0,0,.25-.12"/><path class="cls-7" d="M247.93,34c.08,0,0-.35-.06-.48-.11-.32-.23-.66-.36-1a13.92,13.92,0,0,1-.77-1.48c-.37,0-.79.07-.84-.42.12,0,.17.16.27.23-.08-.14-.28-.33-.22-.51s.22.06.31.13a.85.85,0,0,1-.15-.35c.21,0,.23.23.37.35,0-.2,0-.42,0-.62a.35.35,0,0,1,.26.25c0-.14,0-.37.21-.3a1.09,1.09,0,0,1,.06.36c0-.13.06-.29.2-.31a.5.5,0,0,1,.08.31c.12,0,.26-.17.36-.05s-.06.29-.13.34.06,0,.12-.06c.12.28-.31.39-.5.37.13.08.07.2.08.32a1.9,1.9,0,0,0,.11.39c.11.26.25.52.34.8a5.39,5.39,0,0,1,.24,1c0,.16,0,.31.07.47a2,2,0,0,1,.06.42h.3a.11.11,0,0,0,0-.1"/><path class="cls-7" d="M250.41,33.54c.06,0-.06-.64-.07-.8a1.5,1.5,0,0,1-.73-.12c-.21-.2.09-.73.3-.44a.24.24,0,0,0,0-.08c.1,0,.17.07.25.13,0-.25.3-.36.29-.09.12-.11.25,0,.2.15a.14.14,0,0,1,.21-.08s0,.1,0,.13a.45.45,0,0,1,.36-.08,1.5,1.5,0,0,1,0,.3s.07,0,.11,0c.06.19-.39.29-.53.32a1.6,1.6,0,0,0,0,.79c-.12-.08-.35,0-.42-.1"/><path class="cls-7" d="M252.88,33.22s0,0,.05,0c0-.38,0-.79.07-1.19s.09-.52.15-.77,0-.36.1-.48c-.25-.16-.3-.27-.25-.59a.9.9,0,0,1,.15.19.69.69,0,0,1,0-.25.35.35,0,0,1,.15.25c.11-.22.31-.14.27.11,0-.1.06-.14.15-.14a1.23,1.23,0,0,0,0,.19c.07-.05.12,0,.2,0s0,.15,0,.2.14-.16.25-.15a1.5,1.5,0,0,1,0,.2c.1,0,.35,0,.26.18s-.27.05-.36.05a.33.33,0,0,1,.14,0c.11.29-.3.23-.47.2,0-.06-.05-.08-.06-.13-.16.06-.2.3-.22.46a5.59,5.59,0,0,1-.11.59c-.06.42,0,.86,0,1.29a.45.45,0,0,1-.43-.1"/><path class="cls-5" d="M249.71,32.2c.14,0,0-.2,0-.28a1.14,1.14,0,0,1,0-.41c.16,0,.16.2.28.2s.14-.24.2-.3.09.24.17.35c.08-.07.39-.32.38,0,.15,0,.19-.07.35,0s0,.18.22.16a.74.74,0,0,1,.05.25,2,2,0,0,1-.59,0c-.11,0-.4,0-.48-.15,0,.07-.05.12-.06.19-.18-.13-.33-.14-.45.07l.09-.06"/><path class="cls-5" d="M253.2,30.32s0,0,0,0a1.57,1.57,0,0,1-.07-.72,1.32,1.32,0,0,0,.12.2c.14,0,.13-.19.24-.26a.42.42,0,0,1,.07.31s.11,0,.15,0a1.36,1.36,0,0,0,0,.2A.46.46,0,0,1,254,30c0,.21.22.14.37.16,0,.06,0,.14,0,.2.19,0,.22-.13.32.11s0,.38-.1.43a.29.29,0,0,1,0-.09c-.12,0-.31,0-.43,0s-.22-.27-.28-.37-.16.25-.35.21c0-.24-.29-.17-.39-.37"/><path class="cls-5" d="M246.05,30.69s0,.06-.05.07c-.2-.18-.71-.37-.85-.6a.57.57,0,0,1,.19.1c0-.08,0-.43.12-.47s.28.2.36.25c0-.2.14-.72.34-.33a.86.86,0,0,0,.17-.36c.12,0,.13.17.21.25s.08-.34.16-.35.14.18.17.26c.18-.05.13-.1.3,0s.05.25.23.1a.86.86,0,0,1,.15.58.4.4,0,0,1-.25-.19s0,.08,0,.12-.06-.17-.16-.24c.05,0-.21,0-.18,0s-.07-.06-.14-.06a.22.22,0,0,0,0,.08s-.07-.06-.09-.09a1.67,1.67,0,0,0-.08.2c-.11-.25-.22-.2-.26,0s0,.46-.25.24a.24.24,0,0,0,0,.24.15.15,0,0,0-.17.16l-.09,0a.34.34,0,0,0,0,.11v-.12"/><path class="cls-4" d="M248.47,33.87c.11,0,0-.23,0-.33a3.13,3.13,0,0,1,0-.53c0-.28,0-.86.43-.76s.23.67.16.92a.89.89,0,0,1-.21.38c-.08.1-.31.28-.16.37"/><path class="cls-4" d="M250.57,33.6c-.09,0-.31-.33-.39-.43a1.09,1.09,0,0,0-.69-.38c-.28,0-.58.09-.54.43s.39.44.61.52a1.91,1.91,0,0,0,.79.13c.38,0,.32-.23.53-.49a1.33,1.33,0,0,1,.64-.39c.31-.12.42-.15.46.22.1-.09.24-.16.36-.25s.34-.29.44-.28a.89.89,0,0,1,.3.34c0,.2-.21.36-.36.46a1.53,1.53,0,0,1-1.19,0c-.34-.09-.59.09-.89.28a.5.5,0,0,1,.19-.12"/><path class="cls-5" d="M112.39,218.65c1.23.75,2.58-.52,3.62-.94,1.29-.53,2.87-.48,4.06-1a3.73,3.73,0,0,1,.51,2.76c-.13,1.34-.48,3.91,1.48,3.73a26.78,26.78,0,0,1,5.66.07,59.49,59.49,0,0,0,7.44.29,68.74,68.74,0,0,0,7.6-.66c2.16-.24,3.68.59,5.71.95a12.86,12.86,0,0,1,3,.71c.82.35,1.85,1.17,2.78,1.16.33-2.08.6-4.21.89-6.31.2-1.46.32-4.28,1.47-5.3a15.72,15.72,0,0,0,4.5,2.26c1.85.69,3.89,1.76,5.77,2.26,1.18-1.19,1.86-3.56,2.47-5.1,1.31-3.31,2.37-6.6,3.89-9.83.65-1.38,1.6-2.73.92-4a10.05,10.05,0,0,0-2.41-2c-1.78-1.35-3.59-2.71-5.3-4.17-3.88-3.32-6.69-8-10.92-10.66-2.6-1.62-6.76.86-9.65,1.46a50.07,50.07,0,0,1-5.21,1.2,13.08,13.08,0,0,1-5.16-.75,19.68,19.68,0,0,0-4.43-1.1,6.33,6.33,0,0,0-2.21.73c-.65.22-1.42.24-2.13.46a10.9,10.9,0,0,0-2.29,1.48c-2.92,2.18-6.28,3.56-9.55,5.18-4.26,2.12-8.31,5.05-12.9,6.25-.06.93,1.94,2,2.56,2.81a23.25,23.25,0,0,1,2.45,4,42.55,42.55,0,0,1,2.54,7.21C110,213.38,111,217.78,112.39,218.65Z"/><path class="cls-1" d="M143.37,192.37c1.41-.6,1.92-2,2.42-3.37a4.29,4.29,0,0,1,.19-.5c.06-.14.17-.2.22-.35a2.63,2.63,0,0,0,0-.84,3.73,3.73,0,0,0-.44-1.29c-.15-.35-.42-.62-.6-1-.06-.11-.12-.23-.19-.34a1.92,1.92,0,0,1-.14-1.29c0-.31,0-.61,0-.92a6.32,6.32,0,0,1,.13-1,5.82,5.82,0,0,1,.69-2.28,8.48,8.48,0,0,1,2.21-1.55,25.9,25.9,0,0,0,3.11-2c1.58-1.4,1.8-3.39,2.37-5.28a5.66,5.66,0,0,0,.34-2.24c-.07-1-.16-1.29.78-1.46.53-.1,1.75-.25,2-.82a9.14,9.14,0,0,0,0-2,11.31,11.31,0,0,0,0-1.54,4.19,4.19,0,0,0-1.47-2.67c-1-1-.87-2.45-1.29-3.73a12,12,0,0,0-10.07-8.22c-.76-.08-1.74-.47-2.54-.65a28.46,28.46,0,0,0-3.82-.64c-2.28-.2-3.72,1-5.42,2.23-3.44,2.52-2.68,8.75-2.55,12.66,0-.46-1.26-.77-1.59-.8a1.41,1.41,0,0,0-.84.11c-.26.17-.56.26-.81.45a2,2,0,0,0-.43.6,3.62,3.62,0,0,0-.34.78,1.56,1.56,0,0,0,0,.83,4,4,0,0,0,.56,1.06,1.84,1.84,0,0,1,.39,1.38,1.58,1.58,0,0,0,.43,1.63c.2.15.79.37,1,.07,0,0,0-.08,0-.11s.07-.05.09-.09,0-.22.07-.31c.11-.29.39,0,.54.09l.26.22c.12.13.38.29.42.47s-.14.5-.19.71a14.76,14.76,0,0,0-.17,1.63,13.12,13.12,0,0,0-.11,3.13,11.76,11.76,0,0,0,.38,2.05,3.41,3.41,0,0,0,2.31,2.4c.93.32,1.49.39,2,1.32a5.79,5.79,0,0,1,.31.54c.09.22.14.5.21.73.12.41.21.83.31,1.25s.16.72.23,1.09a3.09,3.09,0,0,1,.11,1,1.42,1.42,0,0,1-.81,1c-.4.2-.48.56-.6,1a1.67,1.67,0,0,0,0,.86,7.89,7.89,0,0,0,.18,1.1,3.44,3.44,0,0,0,1.17,1.76,12.2,12.2,0,0,0,1.4.82c.43.22.84.5,1.27.74a6.59,6.59,0,0,1,1.12.64,8.39,8.39,0,0,0,.63.56,4.35,4.35,0,0,0,1.13.54A4.68,4.68,0,0,0,143.37,192.37Z"/><path class="cls-3" d="M130.6,162.41a1.2,1.2,0,0,1-.24-.75,8.25,8.25,0,0,1,.45-1.74,3.42,3.42,0,0,1,1.79-2,4.36,4.36,0,0,1,2.58.49c.49.24,1.54.63,1.71,1.19a12.74,12.74,0,0,0-3,.52,6.14,6.14,0,0,0-2,1c-.72.6-.73,1.19-1.08,2"/><path class="cls-3" d="M145.8,159.09c0,.09,0,.1,0,0,1-1.61,4,.06,5,.9a3.92,3.92,0,0,1,1.44,2.27,3.55,3.55,0,0,1-.08,1.49c-.2-.77-.93-1-1.49-1.51-1.4-1.25-2.89-2.64-4.84-2.78"/><path class="cls-3" d="M128.56,164.1a15.63,15.63,0,0,1-.35-1.91,3.48,3.48,0,0,0-.28-1.43c-.27-.4-.79-.08-.93-.4-.2-.48.29-1.2.19-1.72A15.05,15.05,0,0,1,127,157a16.61,16.61,0,0,1,.18-2.63,28.4,28.4,0,0,1,.37-3.06,14.93,14.93,0,0,1,1.93-4.84,6.25,6.25,0,0,1,.63-.72c.27-.29.47-.64.74-.92a8.29,8.29,0,0,1,1.87-1.34,18.79,18.79,0,0,1,4.91-1.95,7.34,7.34,0,0,1,3.48.24c1.4.33,2.77.73,4.16,1.07a8.87,8.87,0,0,1,2.51,1c.05-.35,0-.59.17-.91a11,11,0,0,1,1.53-1.74c.93-.95,1.84-1.94,2.86-2.8a34.44,34.44,0,0,1,3.63-2.66,13.92,13.92,0,0,1,11.15-1.79,13.77,13.77,0,0,1,4.92,2.33,8,8,0,0,1,1.47,1.85,9,9,0,0,1,1.16,2.37,10.36,10.36,0,0,1,.18,5.76A15.13,15.13,0,0,1,162,157.31c-.86.13-1.71.34-2.57.43-.39,0-.74-.07-1.1-.06a4.5,4.5,0,0,1-2.57-.2,2.45,2.45,0,0,0,.22,1.14,11.57,11.57,0,0,1,.38,1.43,11.31,11.31,0,0,1,0,1.54,5.45,5.45,0,0,0,0,.7,2.49,2.49,0,0,1,.08.61c0-.61-.62-1.34-1-1.77a4.65,4.65,0,0,0-.62-.77c-.24-.2-.48-.23-.53-.56s0-.68-.06-1-.05-.8-.1-1.2a8.88,8.88,0,0,0-.15-1.25,1.71,1.71,0,0,0-.55-.86,1.85,1.85,0,0,0-1.11-.46c-.75-.14-1.51-.22-2.28-.3-1.05-.1-2.09-.26-3.15-.33-1.58-.09-3.16-.08-4.75-.08-2.83,0-5.66.07-8.49.08-.92,0-2.49-.12-3.15.67-.86,1-1.07,2.85-1.22,4.12a22.46,22.46,0,0,0-.16,2.39V163c0,.49-.19.85-.19,1.29A1.48,1.48,0,0,1,128.56,164.1Z"/><path class="cls-3" d="M146.45,164.12l.12-.05"/><path class="cls-3" d="M139.22,161.42a8.23,8.23,0,0,1,.48,4.31c-.06.62-.1,1.23-.19,1.87s-.51,1.05-.61,1.58a16.54,16.54,0,0,1,0-4.1c.14-1.16.31-3-.64-4"/><path class="cls-5" d="M140.16,174.63c.18-.15.33-.31.52-.49s.67-.32.52-.71c-.32-.05-.56-.25-.89-.3a9.21,9.21,0,0,0-2,.1,4.36,4.36,0,0,1-2.46-.36c-.15.18-.11.4-.14.62a.7.7,0,0,1-.08.2,1.26,1.26,0,0,0-.1.33.3.3,0,0,1-.08.2.41.41,0,0,1-.18.2,1.53,1.53,0,0,1-.21.14l-.26.16a2,2,0,0,0-.32.18.68.68,0,0,0-.24.29.64.64,0,0,0-.11.27c0,.25.2.39.4.51a2.75,2.75,0,0,0,.3.14,2.12,2.12,0,0,0,.36.1,2.82,2.82,0,0,0,.71,0c.3,0,.59,0,.89,0a5.38,5.38,0,0,0,.87-.18,5.22,5.22,0,0,0,.75-.28,1.45,1.45,0,0,0,.26-.11.32.32,0,0,0,.1-.1c0-.06.13-.1.19-.15.29-.19.59-.35.88-.53A2.27,2.27,0,0,0,140.16,174.63Z"/><path class="cls-3" d="M151.32,170.91a5.45,5.45,0,0,1,0,.72,2.73,2.73,0,0,1-2.86,2.48,4.69,4.69,0,0,0-1.45,0c-.55.21-.77,1.15-1.21,1.25-.84.19-1-1.56-1.59-.19-.09.21-.34,1.68-.74,1.46s-.49-1.34-1.13-1.25-.58,1.09-1.13,1.16c-.34,0-.63-.47-.79-.69a2.49,2.49,0,0,0-.75-.73c-.56-.28-.66.38-.95.68-.78.77-1.49-2-2-.73-.06.14-.07.4-.25.43s-.29-.14-.39-.25a4.55,4.55,0,0,1-.44-.64c-.09-.12-.2-.34-.37-.36-.39,0-.58.57-.71.83-.21.43-.4.06-.44-.24a8.1,8.1,0,0,1-.13-1.09,1.67,1.67,0,0,1,0-.39.61.61,0,0,0,0-.3s-.5,0-.54,0a1.14,1.14,0,0,1-.37-.11c-.39-.15-.82-.17-1.21-.33a4.34,4.34,0,0,1-1.46-1.09,3.64,3.64,0,0,1-.63-1.12,2.69,2.69,0,0,1,0-1.75,2.31,2.31,0,0,1,.41-.71,2.44,2.44,0,0,1,.59-.61A2.75,2.75,0,0,1,132,167a1,1,0,0,1,.25,0,1.53,1.53,0,0,1,.36.07,1.08,1.08,0,0,1,.69.49,1,1,0,0,1,.12.74c0,.12-.11.3-.25.33s0-.13,0-.22a.79.79,0,0,0-.32-.36c-.12-.07-.3-.14-.41,0a.37.37,0,0,0-.12.24.22.22,0,0,0,.07.23l.21.24a2.08,2.08,0,0,0,.58.49,4.74,4.74,0,0,0,1,.36,11.13,11.13,0,0,1,1.11.26,5,5,0,0,0,1.27.17,5.56,5.56,0,0,0,1.92-.21,1.27,1.27,0,0,1,.58-.09c.23,0,.38.26.55.4a2.37,2.37,0,0,0,.72.38,1,1,0,0,0,.6,0,2.69,2.69,0,0,0,.8-.52c.1-.08.3-.25.44-.2s.17.27.23.37a1.21,1.21,0,0,0,.77.47,9.68,9.68,0,0,0,2.52.08,8.27,8.27,0,0,0,1.49-.24,4.13,4.13,0,0,0,.65-.22,2.1,2.1,0,0,0,.56-.28,1.38,1.38,0,0,0,.44-.46.63.63,0,0,0-.11-.76.39.39,0,0,0-.47,0,.74.74,0,0,0-.22.45,1.09,1.09,0,0,1,.13-.69.69.69,0,0,1,.32-.26c.4-.12.82.19,1.12.41a5.1,5.1,0,0,1,.92.82A2.51,2.51,0,0,1,151.32,170.91Z"/><path class="cls-3" d="M128.5,172.73c.05-.34.09-.69.12-1s0-.7.06-1.05,0-.68,0-1a3.18,3.18,0,0,1,.23-.58,2,2,0,0,0,.09-1.56,2.62,2.62,0,0,0-.41-.66.57.57,0,0,0-.7,0,.54.54,0,0,0-.23.38,2.09,2.09,0,0,1,0,.43c0,.08-.07.1-.11.16a1.69,1.69,0,0,0-.08.24,4.16,4.16,0,0,1-.54.71,3.07,3.07,0,0,1-.94.78,2.48,2.48,0,0,1-2,.06c.84.64,2.42,1.86,3,.34,0,.36,0,.71,0,1.07s-.35,1-.3,1.41A4.43,4.43,0,0,1,128.5,172.73Z"/><path class="cls-3" d="M155,166.68c.52,1,.25,2.27,1,3.19a3.44,3.44,0,0,0,1.44,1.09A13.82,13.82,0,0,0,159,171c-.64.63-2.88.44-3.18-.63a12.94,12.94,0,0,1-.16,1.67c-.07.66.26.9.32,1.51,0,.22.08.76-.11.94-.38.35-.34,0-.56-.29a5.39,5.39,0,0,1-.77-2.08c.11.53-1.08,1.74-1.59,1.72-1.14,0-.05-2.23,0-2.77.12-1,.06-2.07.15-3.14,0-.39.06-.76.44-1s.8,0,1.16-.28"/><path class="cls-1" d="M208.85,178.06a1.05,1.05,0,0,0,.62-.35,3.57,3.57,0,0,0,.38-.49,4,4,0,0,0,.3-.74,7.12,7.12,0,0,0,.39-1.21c0-.08,0-.16,0-.25a3.25,3.25,0,0,0,0-.54.76.76,0,0,0-.15-.33,2,2,0,0,0-.42-.39c-.16-.13-.33-.24-.5-.36-.78-.51-1.16-.26-1.29.7a7.19,7.19,0,0,0,.2,2,20.37,20.37,0,0,1,0,2.21"/><path class="cls-5" d="M147.59,143.62c.16.11.34.32.52.47a7.22,7.22,0,0,1,.68.56,22.69,22.69,0,0,1,1.47,1.92,32.44,32.44,0,0,1,3.37,5.08,25.49,25.49,0,0,1,1,3c.18.54.35,1.07.5,1.6a2.65,2.65,0,0,0,.27.92c.08.11.21.17.3.27s.18.29.3.35c-.07-.15-.23-.29-.32-.46a2.48,2.48,0,0,1-.24-.62c-.15-.68-.22-1.41-.38-2.11a9.27,9.27,0,0,1-.09-1.39c0-.58-.14-1.17-.2-1.75a13.68,13.68,0,0,0-.46-1.78,9.41,9.41,0,0,0-1.8-3.7,5.81,5.81,0,0,0-1.11-1.21c-.35-.27-.68-.56-1-.83s-.49-.29-.71-.46a2.35,2.35,0,0,0-1.28-.58,1,1,0,0,0-.58.09,1.06,1.06,0,0,0-.21.16s-.11,0-.13.07,0,.13,0,.19,0,0,0,0"/><path class="cls-5" d="M147,142.91v0c0-1.25-.73-1.9-1.59-2.77a9,9,0,0,0-4.67-2.64,49.67,49.67,0,0,0-6.22-.35,21.89,21.89,0,0,1-7.47-.8c-3.8-1.36-7.5-3.86-7.49-8.33,0-3.36,1.13-6.69,4.09-8.27-1,.17-1.79,2-2.18,2.72A6.74,6.74,0,0,0,121,128a8.59,8.59,0,0,0,4.15,4,14.48,14.48,0,0,0,2.47,1,15.59,15.59,0,0,0,2.82.8c2.39.3,4.86.14,7.24.51A12.45,12.45,0,0,1,143,137a9.1,9.1,0,0,1,3.23,6.26"/><path class="cls-5" d="M147.2,142.75a14.19,14.19,0,0,0,0-2.07,5.48,5.48,0,0,1,2-3.36c.86-.79,1.85-1.45,2.7-2.26a14.05,14.05,0,0,0,3.34-3.95,5.15,5.15,0,0,0-1.13-6.23,4.09,4.09,0,0,0-2.23-.76c-.92-.09-1.16.4-1.64,1.08a2.13,2.13,0,0,0-.6,1.6c.16.69.92.59,1.48.75a4.19,4.19,0,0,0,1.68.36,6.64,6.64,0,0,0,2.23-.51c1.67-.65,2.29-2.06,2.86-3.63.32-.86.64-1.69.88-2.56a9.12,9.12,0,0,1,1.37-2.55c.09-.13.1-.37.16-.46-.28.43-.58,1-.88,1.42a8.54,8.54,0,0,0-.73.95,8.47,8.47,0,0,0-.3,1.28,10.05,10.05,0,0,1-2.4,3.55,2.86,2.86,0,0,1-1.89,1.07,7.34,7.34,0,0,1-1.91.33c-.47,0-1.33.18-1.44-.48s.68-1.19,1.12-1.28c3.15-.66,2.67,4.57,1.57,6.08a26.92,26.92,0,0,1-2.28,2.5,17.36,17.36,0,0,1-2.48,2.23c-2.23,1.47-2,4.47-1.27,6.74"/><path class="cls-3" d="M133.23,184a2.6,2.6,0,0,1-.8.67,3.94,3.94,0,0,0-1.32,1.74,3.64,3.64,0,0,0,.61,3.65,8.14,8.14,0,0,0,2.37,1.83,3.89,3.89,0,0,0,1.35.6,2,2,0,0,1,.54,0c.27.09.55.19.81.3a5.16,5.16,0,0,0,.83.3,3.09,3.09,0,0,1,.46.12c0,.36,0,.72.08,1.08s.08.95.14,1.42c.35,0,.67.1,1,.09s.68-.07,1-.1.93-.06,1.38-.12c.77-.11,1.53-.23,2.3-.32.2,0,.71,0,.86-.19a3.83,3.83,0,0,1-.26-.91c-.07-.37-.18-.77-.23-1.12a.7.7,0,0,0,.37-.17,6.72,6.72,0,0,0,1.11-1c.47-.46.75-1.07,1.17-1.57a2.19,2.19,0,0,0,.53-1.58,3.25,3.25,0,0,0-.22-1.78,4.36,4.36,0,0,0-1-1.12c-.2-.16-.47-.23-.68-.4s-.32-.42-.51-.55a1.49,1.49,0,0,1-.12-.14,2.84,2.84,0,0,0,.07.78,7.33,7.33,0,0,1,.42,1.38A4.21,4.21,0,0,1,145,190a5.25,5.25,0,0,1-3.05,1.81,6.25,6.25,0,0,1-1.78.08,7.86,7.86,0,0,1-2.25-1.06c-.93-.55-1.7-1.3-2.61-1.84a4,4,0,0,1-1.61-1.61,3.91,3.91,0,0,1-.2-2c.06-.49.41-.82.42-1.31"/><path class="cls-2" d="M145.69,164.18a.4.4,0,0,1,0-.15.88.88,0,0,1,.12-.21c0-.07.08-.15.13-.22a1.67,1.67,0,0,1,.31-.34,1.32,1.32,0,0,1,.71-.32l.38,0a2,2,0,0,1,.49,0,2.16,2.16,0,0,1,.92.32,2.57,2.57,0,0,1,.5.59,5.54,5.54,0,0,1,.56,1,.59.59,0,0,1-.19,0,3.11,3.11,0,0,1-.44.07c-.25,0-.51,0-.76.05s-.57,0-.85,0a3.78,3.78,0,0,1-1.37-.25,1.83,1.83,0,0,1-.46-.18.31.31,0,0,1-.09-.07s0,0,0-.06"/><path class="cls-2" d="M136.63,163.37s0,0,0,0-.11-.18-.17-.26a3.39,3.39,0,0,0-.31-.34,2.81,2.81,0,0,0-.82-.71,2,2,0,0,0-1.07,0,2.07,2.07,0,0,0-1,.22,1.5,1.5,0,0,0-.35.31,2.11,2.11,0,0,0-.26.4,1.15,1.15,0,0,0-.06.17l-.06.09c0,.05,0,0,0,.07s.09,0,.12.07.24.19.37.27a7.22,7.22,0,0,0,.78.41,3,3,0,0,0,1.81.23,2.2,2.2,0,0,0,1.05-.45.63.63,0,0,0,.18-.22s0-.07.06-.09,0,0,0,0"/><path class="cls-3" d="M132.64,162.85c.13.06.23.21.36.29a3.21,3.21,0,0,0,.89.39,7.17,7.17,0,0,0,1.67,0,1.87,1.87,0,0,0,1-.29c.1-.06.2-.22.28-.07a.92.92,0,0,1,0,.52,1.83,1.83,0,0,1-.9.64,3.45,3.45,0,0,1-1.66,0,2,2,0,0,1-1-.49c-.13-.12-.83-.64-.59-.88"/><path class="cls-3" d="M145.36,164.41c.16.09.27.27.44.36a4.59,4.59,0,0,0,.81.29,3.57,3.57,0,0,0,1.55.19c.22,0,.42-.06.63-.11s.37-.14.56-.2a.84.84,0,0,0,.27-.13c.09-.07.12-.21.25-.19-.08.1-.28.09-.41.12l-.43.1c-.21,0-.41,0-.62,0a4.29,4.29,0,0,1-1.29,0,2.6,2.6,0,0,1-.88-.4c-.18-.1-.64-.27-.72-.46.08,0,.16.06.24.07"/><path class="cls-3" d="M146.79,163.48l0,.09a.71.71,0,0,0,.48.88,1.25,1.25,0,0,0,1.27-.28.68.68,0,0,0,.16-.55,1.28,1.28,0,0,0-.24-.53c-.13-.14-.41-.11-.59-.13s-.28-.08-.42-.08C147.07,162.87,146.88,163.19,146.79,163.48Z"/><path class="cls-3" d="M135.08,161.78c.39-.08.51.61.47.87a.92.92,0,0,1-.88.72c-.42.07-.84.09-1-.43a1.68,1.68,0,0,1,0-.67.64.64,0,0,1,.23-.26.71.71,0,0,1,.21,0"/><path class="cls-3" d="M132.69,162.93a.39.39,0,0,0,.1.08c0-1.08,1.55-1.18,2.32-1a1.5,1.5,0,0,1,1,.7c.18.22.46.81.79.74.09-.53.15-1,.27-1.52-.13.31-.21.73-.47.92a1.51,1.51,0,0,0-.51-1.29c-.15.22-.23.67-.45.81-.07-.27-.24-1.19-.61-1.07-.2.06-.12.6-.39.61s-.33-.62-.58-.74a10.13,10.13,0,0,0-.42.95c-.42-.16-.21-.35-.68-.23-.1,0-.1.25-.26.26s-.32-.24-.4-.35c-.18.37-.27,1.57.28,1.67"/><path class="cls-3" d="M145.54,164.27l.11.08c.17-2.17,4.24-1.56,4.29.63a3.57,3.57,0,0,0,.25-2,1.77,1.77,0,0,1-.41,1,2.29,2.29,0,0,0-.39-1.25c-.12.24-.12.71-.43.68,0-.37-.09-1.08-.48-1.2-.1.15-.11.51-.23.61-.33.26-.19,0-.43-.23-.55-.4-.53-.21-.79.31a.81.81,0,0,0-.37-.44c0,.23,0,.47,0,.7-.44.07-.73-.37-1.05-.58a5.16,5.16,0,0,0,.1,1.2"/><path class="cls-5" d="M109.15,256.64c.16,1.46-1.72,3.27-2.59,4.4a69.78,69.78,0,0,0-5.08,8c-1.6,2.79-4.6,6.35-4.79,9.52,1.94,0,4,1.65,5.56,2.66,1.94,1.26,3.67,2.74,5.58,4,1.47.94,3.11,2.78,4.65,3.48,1.72.78,3.34-.5,4.87-1.52,1.28-.85,2.3-2,3.56-2.79.91-.59.63-1.11,1.74-.68a16,16,0,0,1,1.69,2.26,56.47,56.47,0,0,1,5.93,10.33c1.46,3,3.27,6.35,4.4,9.46,3.69.52,7-1.53,10.62-2a13.12,13.12,0,0,1,2-.08c2.12,0,5,.35,6.62-1.32a2.31,2.31,0,0,0,.27-2.58c-.52-1.43-1.21-2.8-1.7-4.24-.28-.8-.32-1.65-.58-2.44-.53-1.59-1-3.18-1.42-4.82-1.14-4.46-2.23-9-2.94-13.5-.41-2.6-1-5.15-1.27-7.78a16.51,16.51,0,0,0-.92-3.32c-.32-1-.52-2-.74-3.05-.07-.29-.29-.52-.28-.85-.31-.11-.75.11-1.1.11H142c-1.12,0-2.16-.2-3.26-.25-1.78-.08-3.58-.37-5.34-.62s-3.22-.3-4.83-.66a22.8,22.8,0,0,1-5.65-1.71,37.45,37.45,0,0,1-4.9-2.88,46.42,46.42,0,0,1-4-2.86,3.18,3.18,0,0,1-1.15-2.12c-.33.2-.49.58-.74.86-.49.54-1,1-1.48,1.59-1.72,2.06-2.38,4.69-4,6.82-1.41,1.89-3,3.53-4.31,5.58-1.53,2.49-2.45,5.22-4,7.68-1.19,1.92-3.29,3.63-4.27,5.48,1.67.92,3.06,2.44,4.7,3.46s2.95,2.19,4.51,3.13c3.47,2.08,7,4.17,10.25,6.37,1.54,1,1.91,1.35,3.46.63,1.35-.63,2-2.15,3.34-2.7s2.08.59,3.47,1.41c1.14.67,2.78,1.26,3.53,2.43a.67.67,0,0,0,.77-.38"/><path class="cls-5" d="M111.89,249.07c.11,0,.19,0,.2-.09"/><path class="cls-3" d="M93.46,276.52c.37.23,1.5-2.1,2-2.27.16.18.33.34.5.51A13.33,13.33,0,0,0,99.24,277a41.11,41.11,0,0,1,5.11,2.74c.87.62,1.78,1.2,2.67,1.8a34.52,34.52,0,0,0,2.9,1.91c1.58.82,3,2,4.55,2.76,1.21.62,2.44,1.2,3.67,1.76.43.19,1.43.49,1.66.88-.5-.41-1.79,1.25-2.11,1.55s-.59.42-.87.66-.45.65-.77.58-.45-.46-.61-.6A26.36,26.36,0,0,0,110,287.9c-1-.51-1.93-1-2.9-1.48a20.53,20.53,0,0,1-1.93-1c-.53-.35-1.07-.7-1.58-1.09-.74-.56-1.55-1-2.3-1.57a39.42,39.42,0,0,1-3.69-2.89,23.87,23.87,0,0,0-2.26-2c-.39-.28-1.26-.8-1.48-1.26"/><path class="cls-3" d="M134.46,304.23c.37.38,1.5,0,1.9-.12,1.69-.51,3.4-.92,5.12-1.36s3.65-1,5.48-1.49c.65-.19,1.32-.34,1.95-.57a6.39,6.39,0,0,1,1.58-.53,12.52,12.52,0,0,0,2.7-.59c.34-.1.65-.37.89,0s.29,1,.57,1.39.76.88.8,1.31-.49.47-.87.59c-1,.34-2,.84-3.09,1.18a36.24,36.24,0,0,1-4,.88c-2.41.48-4.66,1.34-7,1.94l-5.87,1.46c-.21.05-.43.12-.63.16a6.7,6.7,0,0,0-.26-1.45,3.74,3.74,0,0,1-.43-1.78l.08.07"/><path class="cls-3" d="M113.08,248a4.18,4.18,0,0,1-1,1.09,11.92,11.92,0,0,1-1,1c.13.31.66.69.89,1,.44.52.91,1,1.37,1.49a25,25,0,0,0,3.41,3,42,42,0,0,0,4.48,2.87,26.43,26.43,0,0,0,2.61,1c.4.17.78.35,1.17.49a9,9,0,0,1-.08,1.28c0,.51.41.51.81.7a16.08,16.08,0,0,0,2.46,1c.73.22,1.16.05,1.36-.69.12-.43.1-.85.6-.87.08,0,.39.16.5.18s.42,0,.61.09c1.4.42,2.81.72,4.26,1a13.33,13.33,0,0,0,2.08.28c.73,0,1.45.17,2.18.2a9.65,9.65,0,0,0,4.06-.68A5.36,5.36,0,0,0,145,262a8.77,8.77,0,0,1,.91-.49,9.39,9.39,0,0,1-.71-1.83,5.15,5.15,0,0,0-.58-1.58c.13,1-.65.68-1.25.74s-1.13.34-1.71.42a10.59,10.59,0,0,1-3.28-.2,82,82,0,0,1-8.29-2,35.48,35.48,0,0,0-4.37-1,11.57,11.57,0,0,1-4.35-1.16,41.84,41.84,0,0,1-4.41-2.77,28.28,28.28,0,0,1-2.53-2.11c-.38-.38-.8-.76-1.15-1.16a1.09,1.09,0,0,1-.27-.4,2.79,2.79,0,0,1,0-.49.25.25,0,0,1,0,.19"/><path class="cls-3" d="M120.14,220.63a1.54,1.54,0,0,0,.65.11l.82.1,1.6.19c.81.1,1.62.12,2.42.17,2.18.12,4.35.14,6.53.21,1.14,0,2.29.12,3.44.13l3.45,0c1.69,0,3.37-.05,5-.05s3.13,0,4.69.13c.75,0,1.52.06,2.27.14s1.29.07,1.93.16l1.18.14a2.13,2.13,0,0,1,.56.1c0,.07,0,.26,0,.35,0,.32,0,.66,0,1s0,.94-.07,1.41a5.42,5.42,0,0,0,0,.57c0,.09.07.2.05.29a1.45,1.45,0,0,1-.34-.19,2,2,0,0,0-.54-.16c-.38-.07-.78-.09-1.16-.18-.65-.16-1.34-.25-2-.36-1.88-.29-3.77-.55-5.66-.71-.94-.09-1.89-.13-2.83-.14-.41,0-.83,0-1.24,0a7.85,7.85,0,0,1-1,0,4.84,4.84,0,0,0-.85,0c-.68.06-1.36.13-2,.17s-1.31,0-2,0-1.39.08-2.08.09-1.5,0-2.24,0-1.23,0-1.84-.1c-1-.08-2-.21-3.08-.28s-1.8-.08-2.7-.08-2-.1-3-.16a3.52,3.52,0,0,1,0-.56c0-.16,0-.32,0-.49s.07-.35.08-.53"/><path class="cls-3" d="M170.73,200.49c-.84,2.3-1.7,4.6-2.62,6.85-1.15,2.81-2.07,5.59-3.49,8.27-.72,1.36-1,3-1.6,4.2a10.6,10.6,0,0,1,3.21,1.34c.74-.61,1-2.06,1.37-2.91,1-2.24,1.91-4.56,3.07-6.75.77-1.46,1.3-3,2-4.54a20.51,20.51,0,0,0,1.72-3.64c.58-2.2.19-5.56-2.27-6.35C171.83,198.21,171.17,199.28,170.73,200.49Z"/><path class="cls-3" d="M101.7,197.49a6.87,6.87,0,0,0,2-.28,6.83,6.83,0,0,1,.79-.11c.33,0,.3-.14.5.2,1.67,3,2.8,6.29,4.4,9.33,1.38,2.64,2.78,5.3,4,8a22.74,22.74,0,0,0,1.18,2.37c.17.29.3.59.49.88s.31.38.26.58c-.34,0-.53.26-.82.39s-.39.1-.56.18-.27.24-.43.3a1.25,1.25,0,0,1-1.66-.67c-.48-.81-.88-1.62-1.43-2.4-.87-1.24-1.47-2.66-2.3-4a22.64,22.64,0,0,1-1.07-2.15c-.31-.61-.66-1.19-1-1.79a25.57,25.57,0,0,1-2-3.78c-.48-1.13-1-2.18-1.61-3.26l-.88-1.74c-.16-.33-.49-.66-.25-1"/><path class="cls-5" d="M137.33,175.18,137,175a4.73,4.73,0,0,1-.8-.35,4.27,4.27,0,0,0-.95-.43c-.17-.06-.26-.19-.45-.18a1.3,1.3,0,0,0-.44.06.83.83,0,0,0-.3.26.53.53,0,0,0-.13.43.9.9,0,0,0,.28.64"/><path class="cls-5" d="M134.38,175.41a2.66,2.66,0,0,1-.57-.76c-.05-.11-.1-.23-.14-.34a.77.77,0,0,1-.1-.47c.07-.26.59-.14.76-.09a3.93,3.93,0,0,1,.66.3l.7.31c.31.14.64.24,1,.38a1.2,1.2,0,0,1,.42.25.74.74,0,0,1,.1.48c0,.37-.51.48-.82.52a3,3,0,0,1-1.22-.06"/><path class="cls-5" d="M134.36,175.84h0a1.52,1.52,0,0,1-.58-.6c-.19-.25-.3-.55-.48-.81a2.42,2.42,0,0,1-.25-.4c-.05-.08-.14-.24-.09-.34s.37-.19.55-.18a1.42,1.42,0,0,1,.53.16l.48.24a4.17,4.17,0,0,1,.72.29,2.42,2.42,0,0,0,.74.26"/></g></g></svg>