<?xml version="1.0" encoding="utf-8"?>
<!-- Generator: Adobe Illustrator 16.0.4, SVG Export Plug-In . SVG Version: 6.00 Build 0)  -->
<!DOCTYPE svg PUBLIC "-//W3C//DTD SVG 1.1//EN" "http://www.w3.org/Graphics/SVG/1.1/DTD/svg11.dtd">
<svg version="1.1" id="Ebene_1" xmlns="http://www.w3.org/2000/svg" xmlns:xlink="http://www.w3.org/1999/xlink" x="0px" y="0px"
	 width="637.854px" height="663.067px" viewBox="0 0 637.854 663.067" enable-background="new 0 0 637.854 663.067"
	 xml:space="preserve">
<g>
	<g>
		<path fill="#FFFFFF" d="M135.121,265.24c-6.076-5.272-12.45-9.741-18.695-14.48c-2.19-1.662-4.365-3.357-6.505-5.131
			c-5.313-4.405-8.866-8.472-15.57-10.045c-6.315-1.482-7.908-3.563-13.552-7.385c-2.235-1.514-6.626-3.271-9.259-3.728
			c-4.296-0.747-2.473,3.885-3.307,6.955c-0.991,3.676-0.756,6.54,2.264,8.75c3.541,2.592,7.351,5.316,11.136,7.555
			c9.709,5.742,22.099,11.279,29.531,19.842c8.143,9.381,16.479,18.769,25.91,26.962c9.396,8.163,19.339,16.141,27.976,24.631
			c9.579,9.416,20.286,18.172,31.9,24.042c5.469,2.764,9.38,7.812,14.766,10.664c7.12,3.771,8.696,2.115,8.77-5.211
			c0.105-10.421-4.066-19.282-6.693-29.157c-4.445-16.71-9.517-33.127-15.298-49.46c-7.154-20.214-7.191-42.759-16.755-61.938
			c-3.196-0.997-7.281,1.807-10.287,2.69c-4.347,1.277-8.546,1.089-13.302,1.847c9.216,14.381,14.38,32.762,20.469,48.86
			c3.228,8.535,7.073,17.453,9.036,26.243c1.585,7.1,0.994,14.597,4.43,21.221c-5.993-8.051-16.665-12.408-24.521-18.586
			C156.798,281.912,145.483,274.232,135.121,265.24z"/>
		<path fill="#245977" d="M45.509,202.593c0.419,0.903,0.641,1.896,0.563,2.896c-0.067,0.806-0.812,1.138-0.989,1.929
			c-0.347,1.538,0.53,3.158,1.119,4.525c0.604,1.395,1.489,2.613,2.289,3.914c0.495,0.807,1.296,1.638,1.968,2.314
			c0.771,0.778,1.159,1.276,0.967,2.343c4.8-0.078-1.953-11.897,5.518-11.803c1.465,2.182,0.067,4.131,0.161,6.423
			c0.222,5.41,2.448,8.318,7.009,10.259c0.807,0.344,1.651,0.509,2.492,0.753c0.902,0.263,1.779,0.572,2.694,0.796
			c1.111,0.273,2.264,0.589,3.396,0.76c0.345,0.053,0.685-0.128,1.017-0.039c0.38,0.099,0.691,0.516,0.957,0.781
			c1.06,1.045,2.081,2.197,2.809,3.504c0.685,1.242,1.121,2.598,1.029,4.023c-0.086,1.27-0.288,3.624-1.583,4.31
			c-0.538,0.285-1.191,0.02-1.745-0.071c-0.906-0.15-1.819-0.274-2.729-0.437c-1.597-0.288-3.188-0.568-4.789-0.832
			c-2.371-0.393-4.75-1.008-6.985-1.905c-2.482-0.991-4.935-1.988-7.322-3.204c-1.231-0.624-2.339-1.409-3.481-2.171
			c-0.693-0.464-1.278-1.058-1.907-1.611c-0.957-0.844-1.928-1.672-2.822-2.578c-0.857-0.868-1.954-1.43-2.947-2.15
			c-1.233-0.893-2.32-2.146-3.426-3.183c-1.093-1.025-2.192-2.056-3.316-3.042c-0.318-0.28-0.71-0.573-0.954-0.921
			c-0.209-0.301-0.251-0.673-0.431-0.992c-0.527-0.956-1.108-1.867-1.59-2.852c-0.932-1.915-1.693-3.907-2.357-5.926
			c-0.786-2.395-1.061-4.703-0.18-7.065c0.504-1.347,1.893-4.48,3.44-4.606c1.58,2.696-3.114,9.491,0.697,11.187
			c1.892,0.841,1.981-2.934,2.17-4.271c0.382-2.744,0.433-4.375,2.864-5.664c1.057,1.826,0.178,4.26-0.22,6.24
			c-0.478,2.374-0.733,3.757,0.349,6.042C43.616,209.821,41.006,202.754,45.509,202.593z"/>
		<path d="M77.948,225.545c0.079,0.057,0.569,0.026,0.689,0.025c0.354,0.003,0.702,0.062,1.058,0.107
			c0.831,0.098,1.663,0.145,2.493,0.165c0.147,0.002,0.297,0.036,0.446,0.048c0.074,0.004,0.118-0.059,0.19,0.002
			c0.101,0.084,0.019,0.324,0.013,0.432c-0.005,0.124,0.016,0.286-0.028,0.4c-0.08,0.214-0.24,0.106-0.456,0.11
			c-1.274,0.021-2.553,0.045-3.827,0.038c-0.259-0.003-0.526-0.014-0.78,0.029c-0.108,0.018-0.265,0.124-0.349,0.003
			c-0.05-0.074,0.08-0.434,0.095-0.521c0.039-0.219,0.051-0.465-0.026-0.675c0.045-0.025,0.118-0.062,0.169-0.063"/>
		<path d="M79.889,230.773c-0.007,0.018-0.013,0.034-0.021,0.049c0.33-0.043,0.632-0.108,0.976-0.118
			c0.933-0.023,1.853-0.072,2.783-0.117c0.513-0.023,1.019-0.095,1.53-0.095c0.233,0,0.589,0.125,0.802,0.046
			c0.101,0.139,0.246,0.227,0.363,0.357c0.077,0.088,0.25,0.346,0.248,0.463c-0.156,0.107-0.547,0.1-0.722,0.129
			c-0.648,0.105-1.296,0.217-1.942,0.331c-0.696,0.124-1.388,0.217-2.087,0.263c-0.288,0.021-0.594,0.208-0.829-0.036
			c-0.158-0.167-0.221-0.475-0.371-0.666c-0.171-0.218-0.413-0.45-0.474-0.731c0.014,0.042,0.027,0.085,0.042,0.129"/>
		<path d="M82.062,235.339c0.082,0.043,0.15,0,0.264-0.029c0.232-0.054,0.431-0.039,0.661-0.026
			c0.762,0.039,1.537,0.014,2.297-0.004c0.512-0.013,1.038-0.034,1.547-0.002c0.252,0.018,0.496,0.042,0.575,0.293
			c0.077,0.255-0.057,0.535-0.093,0.788c-0.036,0.266-0.05,0.523-0.051,0.795c0,0.181,0.033,0.355-0.161,0.341
			c-0.028-0.003-0.152-0.083-0.183-0.098c-0.19-0.086-0.384-0.125-0.583-0.182c-1.077-0.317-2.26-0.369-3.382-0.394
			c-0.299-0.006-1.596,0.134-1.69-0.18c-0.039-0.122,0.086-0.344,0.141-0.449c0.089-0.184,0.126-0.375,0.21-0.561
			c0.183-0.417,0.751-0.238,1.127-0.318"/>
		<path d="M81.071,238.515c0.072,0.064,0.281-0.011,0.396-0.02c0.337-0.022,0.661-0.021,0.999-0.011
			c1.25,0.037,2.469,0.315,3.71,0.397c0.246,0.016,0.493,0.031,0.742,0.038c0.09,0.003,0.287,0,0.329,0.103
			c0.025,0.064-0.121,0.287-0.142,0.341c-0.067,0.165-0.128,0.329-0.17,0.5c-0.086,0.344-0.211,0.336-0.548,0.267
			c-0.282-0.059-0.55-0.169-0.83-0.22c-0.431-0.076-0.89-0.127-1.326-0.156c-0.783-0.052-1.564-0.075-2.339-0.178
			c-0.428-0.059-0.896-0.108-1.331-0.069c-0.036-0.145,0.041-0.674,0.175-0.779c0.02,0.021,0.034,0.049,0.035,0.08"/>
		<path d="M78.643,242.258c0.003,0.078,0.072,0.007,0.157-0.003c0.196-0.026,0.369-0.015,0.571-0.01
			c0.711,0.023,1.426,0.069,2.138,0.078c1.019,0.016,2.026-0.032,3.04-0.11c0.294-0.023,0.961,0.062,1.041-0.279
			c0.062-0.261-0.149-0.204-0.367-0.225c-0.465-0.041-0.918-0.135-1.381-0.151c-0.449-0.018-0.891-0.155-1.341-0.168
			c-0.446-0.015-0.91-0.101-1.356-0.15c-0.68-0.08-1.368-0.277-2.057-0.222c-0.131,0.011-0.38-0.023-0.492,0.036
			c-0.15,0.073-0.208,0.308-0.292,0.466c-0.123,0.229-0.33,0.511-0.386,0.764c0.057-0.013,0.1,0.016,0.146,0.013"/>
	</g>
	<path fill="#245977" d="M301.989,165.839c-0.581,4.348,1.274,11.881,1.833,16.504c0.737,6.1,1.166,11.797,1.166,18.071
		c0,11.104,0.288,21.88,1.722,32.689c3.99,1.162,9.719-2.62,13.956-2.886c3.892-0.244,7.874,0.351,11.782,0.27
		c9.879-0.204,19.829-1.799,29.607-3.118c7.489-1.01,16.159-1.567,23.929-3.029c7.735-1.456,15.636-0.693,23.772-1.732
		c1.211-3.249-0.821-7.187-1.602-10.278c-1.263-4.998-1.172-9.678-1.172-15.028c0-9.156-0.522-17.835-1.727-26.738
		c-16.987-2.169-35.618-0.227-52.77-0.227c-17.108,0-34.109-2.473-50.872-4.746"/>
	<path fill="#245977" d="M105.435,154.556c-1.902-7.556-1.761-16.486-7.803-22.657c-4.912-5.021-14.646-3.88-20.511-2.525
		c-8.619,1.992-13.436,8.347-18.976,15.157c-4.809,5.913-9.032,10.555-14.682,15.048c-6.009,4.789-11.718,5.444-11.943,14.439
		c-0.202,8.08,4.791,9.528,11.834,7.891c1.727,1.61,2.146,3.933,1.958,6.197c-0.087,1.055-0.186,2.325-0.594,3.307
		c-0.146,0.352-0.407,0.636-0.543,0.994c-0.21,0.553-0.223,1.194-0.314,1.774c-0.099,0.629-0.311,1.439,0.041,2.006
		c0.527,0.846,2.95,0.843,2.66,2.26c-0.097,0.481-0.847,1.114-1.177,1.495c-0.415,0.47-0.946,0.956-1.079,1.621
		c-0.272,1.363,1.44,2.211,1.885,3.311c8.025,19.85,36.167,14.369,53.312,11.968c5.792-0.811,13.723-0.738,19.529-0.04
		c5.269,0.633,12.126,3.176,18.041,1.612c11.03-2.917,20.361-15.69,17.957-27.111c-0.89-4.222-5.301-10.613-9.327-13.17
		c-6.083-3.863-16.139-3.933-23.046-6.846C114.55,167.867,107.739,163.696,105.435,154.556z"/>
	<path d="M296.684,242.995c4.397,0.64,8.757,1.41,13.037,2.383c8.069,1.833,15.763,2.564,23.81,4.374
		c4.49,1.01,8.714,1.361,13.456,1.917c3.694,0.433,8.191,3.542,11.778,2.434c0.614-5.656-0.679-10.5-1.273-15.955
		c-0.704-6.46-0.005-13.301-0.005-19.822c0-13.186,1.1-26.964-0.005-40.114c-1.802-21.436-3.56-43.557-6.222-64.679
		c-5.952-1.081-13.182,4.795-18.708,6.572c-6.377,2.05-12.512,2.987-19.151,3.034c-17.131,0.121-33.692,3.406-50.126,8.229
		c-12.286,3.605-25.118,6.926-37.624,9.677c-12.773,2.812-25.507,6.345-38.35,8.599c-12.491,2.189-25.152,3.748-37.537,6.38
		c-9.345,1.986-19.383,3.063-28.07,7.342c-9.533,4.698,5.148,10.393,9.148,12.307c6.965,3.331,12.657,7.163,16.791,13.905
		c4.704,7.674-4.876,15.918-11.034,19.244c-3.184,1.718-6.743,3.967-10.224,4.614c-7.537,1.402-13.454-0.031-20.687,3.734
		c3.37,3.772,5.621,8.492,9.103,12.182c4.161,4.412,7.561,4.584,13.377,6.336c3.222,0.97,6.646,1.618,9.944,2.234
		c4.466,0.833,8.589,2.316,13.128,2.536c5.05,0.244,10.062,0.691,15.119,0.748c5.799,0.066,11.7-1.173,17.504-0.946
		c5.005,0.195,10.219,0.35,15.24-0.451c21.858-3.496,44.266-2.284,66.065-0.14C275.537,240.688,286.221,241.473,296.684,242.995z"/>
	<path d="M59.228,148.58c4.629-1.742,12.261,2.06,17.552,0.266c1.109,1.458-0.297,6.49-1.031,8.123
		c-3.489-1.055-7.1-2.046-10.848-2.68c-2.09-0.354-4.166-0.373-6.281-0.464c-1.205-0.05-4.225,0.252-4.913-0.653
		c1.32-1.482,2.438-4.259,4.622-4.138"/>
	<path fill="#FFFFFF" d="M66.781,170.447c-0.017,0.068-0.031,0.142-0.047,0.212c1.389-0.454,2.11-1.225,1.615-2.635
		c-0.554-1.578-1.814-2.38-3.092-3.351c-2.209-1.675-6.012-4.4-8.914-2.929c-1.099,0.559-1.619,2.396-0.835,3.452
		c0.757,1.018,2.39,1.784,3.414,2.467c1.401,0.929,2.668,1.864,4.257,2.453c1.104,0.407,3.304,1.455,4.436,0.604"/>
	<path d="M54.914,164.564c-0.321,0.895,0.253,2.02,0.526,2.868c0.493,1.537,1.093,3.184,2.046,4.5
		c0.443,0.616,0.965,1.299,1.598,1.74c0.562,0.39,1.248,0.544,1.923,0.578c1.427,0.072,2.905-0.382,4.113-1.127
		c0.749-0.467,1.47-1.038,2.139-1.611c0.374-0.325,0.771-0.609,1.137-0.942c0.095-0.088,0.587-0.315,0.552-0.453
		c-0.02-0.074-0.491-0.24-0.521-0.251c-0.395-0.156-0.796-0.303-1.195-0.455c-1.006-0.381-2.029-0.805-3.082-1.042
		c-1.179-0.265-2.266-0.702-3.407-1.079c-0.842-0.275-1.596-0.604-2.392-0.989c-0.601-0.293-1.224-0.416-1.863-0.581
		c-0.405-0.105-0.757-0.229-1.135-0.4c-0.157-0.073-0.416-0.11-0.538-0.23c-0.365-0.359-0.017-0.997,0.178-1.338
		c0.305-0.528,0.73-1.086,1.2-1.473c0.294-0.245,0.651-0.228,1.044-0.176c1.369,0.176,2.759,0.459,4.042,0.986
		c2.147,0.884,4.576,1.759,5.927,3.773c0.278,0.416,0.612,0.952,0.707,1.453c0.058,0.301,0.155,0.696,0.138,0.993
		c0.174-0.007,0.257-0.33,0.296-0.462c0.066-0.229,0.029-0.512,0.01-0.749c-0.026-0.318,0.013-0.641-0.046-0.955
		c-0.074-0.404-0.212-0.805-0.379-1.18c-0.293-0.662-0.715-1.266-1.234-1.771c-0.397-0.389-0.773-0.809-1.189-1.179
		c-0.4-0.357-0.877-0.629-1.284-0.978c-1.408-1.207-3.494-1.573-5.287-1.345c-0.852,0.108-1.673,0.386-2.45,0.748
		c-0.374,0.175-0.759,0.362-1.102,0.597c-0.618,0.423-1.028,0.968-1.426,1.602"/>
	<path d="M55.99,163.024c-0.845,2.603,1.699,5.239,4.349,4.964c0.775-0.079,1.499-0.627,1.859-1.313
		c0.152-0.284,0.169-0.666,0.247-0.979c0.1-0.387,0.2-0.776,0.171-1.181c-0.023-0.315-0.1-0.689-0.206-0.99
		c-0.152-0.43-0.435-0.689-0.773-0.979c-0.225-0.193-0.398-0.419-0.593-0.641c-0.487-0.56-1.232-0.958-1.964-1.062
		c-1.427-0.209-2.609,0.801-3.062,2.095C56.009,162.966,56,162.996,55.99,163.024z"/>
	<path d="M42.829,196.536c-0.179,0.48,0.03,0.871,0.53,0.987c0.496,0.12,0.709,0.031,1.156,0.403c0.183,0.15,0.825,0.5,0.852,0.7
		c0.06,0.45-1.35,1.526-1.69,1.672c0.033,0.241,0.397,0.637,0.54,0.866c0.237,0.383,0.594,0.715,0.828,1.118
		c0.376,0.648,0.837,1.184,1.196,1.824c0.77-0.28,1.437-0.937,2.09-1.419c0.936-0.688,1.96-1.268,2.898-1.981
		c1.075-0.816,2.19-1.521,3.291-2.308c1.119-0.794,2.48-1.254,3.565-2.08c-0.449-0.159-1.212-0.085-1.738-0.153
		c-0.906-0.121-1.759-0.367-2.623-0.67c-1.684-0.589-3.396-1.14-5.047-1.851c-0.611-0.264-1.303-0.541-1.788-1.017
		c-0.288-0.282-0.435-0.72-0.775-0.945c-1.248-0.82-1.911,0.789-2.167,1.697C43.635,194.486,43.226,195.477,42.829,196.536z"/>
	<path d="M60.527,140.478c8.232,0.019,16.451,0.741,24.639,1.555c2.958,0.293,5.436,0.858,8.25,1.695
		c2.832,0.842,5.6,0.602,8.511,0.693c1.781,0.054,4.292,0.933,6.034,0.584c0.619-2.579-0.863-7.168-1.749-9.587
		c-1.172-3.204-2.805-5.696-5.015-8.02c-2.514-2.643-4.825-5.423-8.169-7.034c-3.583-1.726-7.871-2.185-11.797-2.748
		c-7.847-1.128-15.089-0.163-20.735,5.636c-2.444,2.512-4.196,5.439-5.51,8.698c-1.131,2.802-1.736,5.935-2.916,8.607
		C54.54,141.195,57.978,140.471,60.527,140.478z"/>
	<path fill="#FFFFFF" d="M58.022,174.281c0.542,0.737-0.292,2.725-0.398,3.539c-0.239,1.849-0.381,3.684-0.518,5.541
		c-0.199,2.722-0.873,5.474-1.461,8.135c0.027-0.619,0.307-1.322,0.44-1.925c0.218-0.997,0.394-2.029,0.724-2.995
		c0.617-1.796,0.972-3.735,1.382-5.604c0.262-1.19,0.509-2.452,0.869-3.615c0.136-0.442,0.316-0.892,0.528-1.3
		c0.203-0.386,0.587-0.773,0.591-1.231c-0.34,0.033-0.746,0.073-1.097,0.046c-0.334-0.024-0.627-0.198-0.959-0.16
		c0-0.059-0.015-0.165,0.002-0.225"/>
	<path fill="#FFFFFF" d="M68.916,165.571c-0.008,0.04-0.016,0.078-0.023,0.121c0.712-0.236,1.452-0.643,2.152-0.93
		c0.972-0.402,1.938-1.01,2.934-1.341c0.179,0.262,0.344,0.59,0.448,0.89c-0.731,0.487-1.671,0.613-2.468,0.911
		c-0.883,0.329-1.779,0.751-2.681,1.041c-0.037-0.129,0.028-0.186,0.103-0.283"/>
	<path fill="#FFFFFF" d="M67.316,162.909c0.023-0.005,0.406-0.569,0.545-0.751c0.419-0.558,0.792-1.141,1.15-1.743
		c0.296-0.497,0.903-2.101,1.477-0.904c0.19,0.399-0.142,0.472-0.45,0.844c-0.314,0.379-0.666,0.744-0.989,1.135
		c-0.315,0.377-0.604,0.707-0.848,1.136c-0.125,0.22-0.547,1.143-0.78,0.489"/>
	<path fill="#FFFFFF" d="M64.796,160.969c0.382-0.568,0.652-1.242,0.805-1.921c0.133-0.594,0.214-1.635,0.594-2.113
		c0.329,0.286,1.099-0.043,1.18,0.527c-0.536,0.361-0.984,1.321-1.203,1.907c-0.154,0.414-0.526,2.101-1.117,2.067
		c-0.034-0.053-0.069-0.106-0.104-0.16"/>
	<path fill="#FFFFFF" d="M61.199,159.699c0.454-0.059,0.426-2.565,0.374-3.02c-0.048-0.405-0.233-0.705,0.238-0.859
		c0.281-0.09,0.983,0.045,1.235,0.119c-0.067,0.626-0.511,1.387-0.662,2.036c-0.103,0.44-0.145,0.906-0.186,1.349
		c-0.067,0.711-0.14,0.348-0.588,0.684"/>
	<path fill="#FFFFFF" d="M58.322,158.839c-0.168-0.044-0.727-3.197-0.687-3.594c0.246,0.322,0.855,0.099,1.189,0.03
		c0.055,0.652-0.062,1.351-0.018,2.035c0.043,0.632,0.311,1.521-0.071,2.092"/>
	<path fill="#FFFFFF" d="M55.197,159.773c-0.385-0.751-1.049-1.259-1.499-1.939c-0.135-0.208-0.341-0.785-0.56-0.882
		c-0.354-0.153-0.347,0.16-0.562,0.417c-0.216,0.267-0.431,0.314-0.316,0.673c0.093,0.288,0.544,0.679,0.732,0.92
		c0.455,0.583,0.876,1.158,1.293,1.766c0.542-0.149,0.683-0.597,1.015-1.006"/>
	<path fill="#FFFFFF" d="M57.071,133.171c-0.118,0.131-0.038,0.352-0.024,0.529c0.029,0.388,0.007,0.741-0.026,1.125
		c-0.055,0.642-0.062,1.292-0.121,1.934c-0.056,0.599-0.287,1.215-0.168,1.804c0.404-0.258,1.007,0.118,1.458,0.083
		c-0.1-0.335,0.042-0.77,0.133-1.095c0.203-0.731,0.568-1.547,0.927-2.21c0.608-1.118,1.462-2.418,1.51-3.743
		c-0.589,0.19-1.111,0.616-1.702,0.822c-0.271,0.095-1.611,0.378-1.626,0.57"/>
	<path fill="#FFFFFF" d="M66.764,132.704c0.128,0.632-0.077,1.411-0.229,2.023c-0.145,0.594-0.368,1.191-0.541,1.782
		c-0.1,0.334-0.336,0.726-0.358,1.078c-0.022,0.299-0.109,0.231,0.167,0.365c0.168,0.08,0.438,0.116,0.623,0.161
		c0.3,0.075,0.729,0.305,1.023,0.285c0.14-0.967,0.338-1.918,0.404-2.9c0.056-0.809,0.181-1.592,0.319-2.388
		c0.048-0.261,0.188-0.717,0.101-0.977c-0.341,0.188-0.76,0.122-1.044-0.117"/>
	<path fill="#FFFFFF" d="M74.876,133.394c-0.42,1.285-0.59,2.652-0.955,3.956c-0.133,0.483-0.278,0.987-0.478,1.447
		c-0.077,0.174-0.246,0.375-0.236,0.562c0.484,0.104,0.946,0.337,1.44,0.377c0.72,0.06,0.659-0.459,0.729-1.085
		c0.172-1.509,0.288-3.046,0.692-4.517c0.034-0.119,0.241-0.663,0.148-0.784c-0.166-0.218-0.685-0.019-0.911,0.006"/>
	<path fill="#FFFFFF" d="M81.617,133.871c0.113,0.29-0.083,0.622-0.179,0.905c-0.215,0.637-0.306,1.283-0.453,1.938
		c-0.11,0.487-0.151,0.987-0.261,1.472c-0.062,0.283-0.213,0.549-0.232,0.84c-0.028,0.398,0.149,0.477,0.561,0.542
		c0.393,0.062,0.794,0.105,1.19,0.152c0.115,0.012,0.834,0.183,0.934,0.108c0.115-0.089,0.024-0.653,0.043-0.804
		c0.045-0.391,0.141-0.779,0.205-1.169c0.167-1.013,0.179-2.056,0.301-3.068c0.048-0.393,0.188-0.724-0.162-0.994
		c-0.36-0.278-1.242,0.001-1.408-0.462"/>
	<path fill="#FFFFFF" d="M90.45,135.46c-0.212,0.255-0.271,0.657-0.359,0.963c-0.165,0.568-0.343,1.104-0.466,1.685
		c-0.17,0.812-0.497,1.606-0.649,2.413c0.262,0.075,0.537,0.056,0.798,0.173c0.254,0.114,0.645,0.521,0.931,0.498
		c-0.035-0.973,0.374-2.104,0.639-3.022c0.185-0.633,0.48-1.303,0.588-1.952c0.043-0.254-0.021-0.476,0.165-0.704
		c-0.228-0.311-0.837,0.141-1.068-0.165"/>
	<path fill="#FFFFFF" d="M97.269,136.806c-0.298,0.66-0.611,1.425-0.69,2.174c-0.062,0.57-0.067,1.143-0.222,1.703
		c-0.068,0.25-0.286,0.562-0.325,0.792c-0.054,0.304,0.104,0.256,0.407,0.35c0.3,0.091,0.712,0.146,1.004,0.3
		c0.136-0.091,0.129-0.379,0.159-0.543c0.108-0.612,0.167-1.232,0.271-1.845c0.199-1.154,0.556-2.273,0.777-3.423
		c0.037-0.065,0.068-0.059,0.094,0.019"/>
	<path fill="#FFFFFF" d="M103.544,138.151c-0.253,0.274-0.288,0.753-0.421,1.103c-0.247,0.649-0.489,1.322-0.676,1.991
		c-0.11,0.394-0.161,0.796-0.239,1.199c-0.047,0.231-0.17,0.473-0.175,0.697c0.431-0.271,1.234,0.286,1.68,0.345
		c0.664,0.09,0.613-0.156,0.683-0.771c0.149-1.353-0.027-2.845,0.757-4.025c0.101-0.155,0.414-0.432,0.345-0.621
		c-0.094-0.251-0.459-0.116-0.656-0.212"/>
	<path d="M397.853,269.952c-0.245,10.385-0.353,20.73,0.002,31.128c0.469,13.763-0.761,27.196,0.282,41.008
		c1.032,13.675,1.335,27.222,1.649,40.949c0.424,18.516,0.174,36.744,1.259,55.186c1.653,28.183,5.976,55.644,14.222,82.358
		c1.342,4.352,3.456,9.09,4.465,13.541c0.541,2.391,0.025,5.35,0.807,7.586c1.222,3.505,2.732,2.979,4.586,4.075
		c3.852,2.279,8.369,3.617,12.65,4.664c3.157,0.773,6.214,1.855,9.245,3.021c5.211,2.004,6.372,3.043,8.722-2.578
		c1.737-4.162,2.474-8.587,1.479-12.976c-1.436-6.328-5.249-11.785-6.464-18.275c-1.359-7.276-1.045-14.747-2.196-22.05
		c-2.414-15.317-6.943-30.918-7.435-46.637c-0.261-8.301-0.996-16.676-1.903-24.924c-1.029-9.376,0.067-18.634,0.389-28.025
		c0.872-25.503,1.92-51.234-0.715-76.695c-2.651-25.639-3.498-51.628-4.917-77.178c-0.727-13.126-0.359-27.667,0.958-40.423
		c1.176-11.391,7.43-21.434,13.012-31.976c21.66-40.914,49.191-79.869,67.797-122.598c2.466-5.667,8.199-18.037,7.239-24.471
		c-0.74-4.963-6.976-5.624-11.812-6.046c-1.892-0.166-3.79-0.099-5.679,0.059c-1.3,0.109-2.593,0.264-3.89,0.421
		c-0.293,0.036-0.593,0.098-0.893,0.088c-0.188-0.007-0.373-0.052-0.563-0.06c-0.594-0.022-1.155,0.171-1.725,0.305
		c-0.372,0.088-0.734,0.12-1.111,0.147c-1.539,0.114-3.085,0.265-4.644,0.24c-6.475-0.103-12.826-1.266-19.295-0.656
		c-6.928,0.653-13.739,2.326-20.698,2.684c-6.026,0.309-11.324-1.833-17.165-0.75c-14.746,2.726-28.846,9.21-43.232,13.325
		c-17.904,5.123-35.151,11.963-52.917,17.321c-15.419,4.652-31.08,8.619-46.479,13.341c-26.471,8.116-53.289,14.845-79.134,24.752
		c-8.741,3.351-19.105,6.133-26.857,11.144c5.937,9.597,8.071,25.188,8.711,36.557c2.159,0.28,3.976-1.068,6.136-1.841
		c6.54-2.336,13.578-4.717,20.396-6.683c11.348-3.27,22.509-6.917,33.696-10.642c26.038-8.674,53.786-15.317,80.598-20.652
		c10.819-2.155,21.697-3.037,32.483-5.14c10.54-2.052,20.618-6.185,31.018-9.351c12.994-3.956,26.065-7.48,39.051-11.507
		c6.922-2.145,16.309-4.199,21.692-9.139c-13.014,22.646-25.949,45.198-40.833,66.482c-8.467,12.105-16.816,25.268-27.259,35.366
		c-3.932,3.801-6.289,4.24-4.464,10.231c1.1,3.604,3.554,6.143,5.12,9.437c3.39,7.137,4.496,18.354,5.268,26.269
		c1.168,11.955,0.307,24.121,0.002,36.112C398.302,254.351,398.04,262.163,397.853,269.952z"/>
	<path fill="#245977" d="M187.525,135.229c3.13,1.267,6.666-0.068,8.814-2.512c1.159-1.32,1.837-2.407,1.881-4.165
		c0.057-2.246,0.275-4.486,0.281-6.735c0.006-2.473-0.39-4.882-1.063-7.239c-0.452-1.578-0.681-3.247-1.195-4.797
		c-0.542-1.626-0.94-3.001-1.903-4.457c-0.594-0.9-1.134-1.817-1.837-2.635c-0.504-0.587-0.753-0.966-1.544-0.86
		c-0.728,0.098-1.529,0.441-2.248,0.663c-2.552,0.792-5.001,1.803-7.555,2.601c-3.399,1.061-6.361,3.134-9.754,4.171
		c-1.662,0.51-3.4,1.13-4.961,1.911c-1.493,0.744-2.983,1.236-4.56,1.792c-1.777,0.628-3.578,1.402-5.398,1.875
		c-1.818,0.475-3.753,0.601-5.592,1.067c-1.979,0.501-3.945,0.812-5.956,1.14c-1.387,0.225-3.028,0.642-4.439,0.562
		c-3.044-0.17-5.646-1.212-7.722-3.414c-0.978-1.038-1.874-2.135-2.878-3.146c-1.011-1.017-2.472-1.325-3.858-1.403
		c-1.296-0.073-3.065-0.112-3.95,1.012c-0.731,0.933-1.24,2.245-1.115,3.417c0.188,1.745,1.048,3.406,2.171,4.717
		c1.138,1.331,2.76,2.193,4.3,3c1.056,0.553,2.125,1.286,2.462,2.494c0.246,0.874-0.161,1.359-1.004,1.554
		c-1.124,0.26-4.074-1.121-4.414,0.856c-0.162,0.927,1.23,1.337,1.883,1.673c1.161,0.597,2.423,1.154,3.666,1.559
		c1.471,0.48,3.108,0.123,4.419,1.047c-0.124,0.607-1.098,0.715-1.562,0.979c-0.401,0.229-0.934,0.555-1.244,0.912
		c-1.549,1.773,0.36,3.428,1.916,4.247c1.705,0.896,3.18,1.578,5.083,1.92c1.821,0.325,3.632,0.434,5.484,0.396
		c4.461-0.097,8.75-0.994,13.06-2.103c6.224-1.6,12.098-4.674,18.508-5.468c2.283-0.283,4.907-0.458,7.116,0.357
		C184.601,132.877,185.757,134.514,187.525,135.229z"/>
	<path fill="#245977" d="M448.854,553.992c-2.982,3.504,1.436,10.852,2.473,14.473c0.77,2.689,0.982,5.516,1.712,8.221
		c0.903,3.357,3.587,5.164,4.879,8.229c5.348,12.68-8.51,18.381-14.138,26.523c-3.226,4.67-6.285,10.973-6.986,16.352
		c-0.748,5.701-3.066,10.197-9.196,8.98c-4.282-0.85-12.405-4.178-15.838-7.422c-1.888-1.785-1.668-5.002,1.176-6.262
		c2.099-0.93,4.708,1.076,6.656,0.256c-2.769-2.191-7.536-3.465-8.06-7.506c1.849-2.812,5.265,3.041,7.777,0.793
		c-0.613-2.143-2.362-4.736-3.916-6.23c0.596-4.732,4.4-1.816,7.209-1.896c3.6-0.1,5.529-3.172,7.285-6.252
		c3.71-6.508,4.351-12.018,3.975-19.498c-0.315-6.277-0.892-12.381-1.886-18.633c-0.507-3.184-0.79-6.324-1.064-9.541
		c-0.188-2.188-2.353-6.605-0.415-8.264c5.232,1.41,14.354,2.096,16.499,7.635"/>
	<path fill="#FFFFFF" d="M418.113,377.459c5.115,2.355,3.204,8.013,3.062,12.315c-0.154,4.635-0.029,9.31-0.957,13.67
		c-0.3,1.408-0.432,4.985-1.767,5.931c-0.871,0.618-4.575-0.028-5.779,0.09c-2.664,0.261-8.117,1.364-10.143-1.147
		c-1.267-1.57-1.858-5.099-2.509-7.059c-0.762-2.306-1.533-4.808-1.854-7.147c-0.669-4.871-1.942-10.502-1.636-15.424
		c0.188-3.029,0.533-3.137,3.057-3.665c1.417-0.297,2.967,0.09,4.366,0.317c0.645,0.105,1.463,0.351,2.1,0.143
		c0.66-0.216,1.485-0.206,2.183-0.083c1.651,0.289,3.293,0.545,4.952,0.811C414.853,376.478,416.567,376.747,418.113,377.459z"/>
	<path fill="#FFFFFF" d="M404.166,372.158c-0.038,0.168,0.063,0.276,0.088,0.439c0.055,0.374,0.021,0.845,0.017,1.224
		c-0.015,1.047-0.103,2.04-0.065,3.087c0.011,0.266-0.001,0.525,0.034,0.788c0.006,0.04,0.053,0.365,0.057,0.369
		c0.133,0.13,0.469-0.089,0.664,0.034c0.154-0.133,0.05-0.352,0.047-0.517c-0.005-0.233,0.072-0.482,0.068-0.715
		c-0.006-0.737-0.169-1.462-0.176-2.204c-0.007-0.605,0.011-1.22-0.046-1.825c-0.034-0.357-0.06-0.718-0.5-0.738"/>
	<path fill="#FFFFFF" d="M421.974,383.323c-0.465-0.061-0.936-0.065-1.403-0.103c-0.384-0.03-0.725-0.17-1.103-0.151
		c-0.086,0.003-0.226,0.018-0.295-0.05c-0.078-0.076-0.094-0.439-0.077-0.551c0.104,0.045,0.278-0.008,0.39-0.006
		c0.217,0.002,0.41-0.04,0.627-0.032c0.218,0.005,0.437-0.005,0.653-0.018c0.36-0.019,0.745-0.088,1.109-0.05
		c0.668,0.068,1.409-0.053,2.058,0.035c-0.129,0.422,0.139,1.027,0.204,1.425c-0.249-0.083-0.455-0.223-0.72-0.286
		C422.954,383.426,422.449,383.385,421.974,383.323z"/>
	<path fill="#FFFFFF" d="M423.171,390.413c-0.754-0.014-1.504-0.086-2.253-0.098c-0.375-0.006-0.762,0.045-1.129,0.121
		c-0.104,0.02-1.249,0.292-1.247,0.305c-0.022-0.197-0.031-0.454,0.004-0.656c0.053-0.276,0.371-0.237,0.619-0.273
		c0.322-0.048,0.635-0.078,0.959-0.115c0.305-0.036,0.699-0.042,0.976-0.173c0.268-0.128,0.474-0.174,0.784-0.155
		c0.508,0.031,1.023,0.007,1.512,0.012c-0.121,0.3,0.138,0.941,0.312,1.19C423.534,390.446,423.37,390.416,423.171,390.413z"/>
	<path fill="#FFFFFF" d="M410.889,374.533c0.134,1.13-0.312,2.392,0.019,3.507c0.12,0.406,0.238,0.22,0.534,0.106
		c0.355-0.137,0.735-0.108,1.108-0.061c0.106-0.118-0.003-0.492-0.016-0.667c-0.036-0.508-0.055-1-0.084-1.503
		c-0.037-0.631-0.085-1.287-0.059-1.918c0.015-0.331,0.138-0.832,0.039-1.157c-0.104,0.226-0.503,0.299-0.731,0.308
		c-0.175,0.008-0.899-0.22-0.689,0.263"/>
	<path fill="#FFFFFF" d="M420.995,375.401c0.015,0.084,0.03,0.168,0.046,0.251c-1.292-0.432-4.787,3.03-5.353,3.959
		c1.252,1.302,2.764-0.278,3.947-0.962c1.592-0.921,2.653-1.521,3.323-3.299c-0.503-0.339-1.164-0.924-1.73-0.392"/>
	<path fill="#FFFFFF" d="M423.901,395.369c-0.11-0.087-0.625,0.407-0.693,0.487c-0.201,0.237-0.238,0.487-0.358,0.755
		c-0.131,0.3-0.833,0.153-1.134,0.187c-0.272,0.03-0.518,0-0.796,0.049c-0.26,0.046-0.508,0.07-0.766,0.114
		c-0.464,0.08-0.962,0.052-1.431,0.091c-0.157,0.014-0.354,0.001-0.502,0.057c-0.027-0.208-0.009-0.436-0.028-0.655
		c-0.009-0.111,0.003-0.229-0.012-0.336c-0.009-0.079-0.048-0.174-0.048-0.251c0.194,0.041,0.432,0.008,0.628-0.01
		c0.151-0.014,0.3-0.041,0.45-0.056c0.196-0.021,0.409,0.031,0.596-0.047c0.168-0.071,0.294-0.163,0.479-0.21
		c0.443-0.117,0.886-0.237,1.335-0.331C422.323,395.067,423.284,394.882,423.901,395.369z"/>
	<path fill="#FFFFFF" d="M423.055,404.448c-1.093-0.493-2.313-0.604-3.487-0.768c-0.557-0.079-1.201-0.125-1.726-0.337
		c-0.233-0.094-0.168-0.272-0.185-0.495c-0.024-0.285,0.028-0.356,0.315-0.37c0.23-0.01,0.454-0.032,0.686-0.041
		c0.141-0.005,0.305-0.057,0.443-0.016c0.113,0.033,0.199,0.104,0.323,0.129c0.283,0.057,0.572,0.073,0.859,0.085
		c0.506,0.022,1.039-0.021,1.539,0.079C422.749,402.898,423.096,403.36,423.055,404.448z"/>
	<path fill="#FFFFFF" d="M416.899,407.177c0.427,0.576,0.987,1.082,1.422,1.641c0.681,0.878,1.231,2.156,2.122,2.845
		c-0.425,0.173-1.941,1.265-2.363,1.18c-0.598-0.12-0.799-2.18-1.021-2.76c-0.354-0.924-0.974-1.732-1.208-2.707
		c-0.036-0.148-0.108-0.363-0.087-0.511c0.012-0.106,0.074-0.117,0.169-0.145c0.104-0.029,0.186-0.085,0.284-0.128
		c0.102-0.042,0.079-0.026,0.148,0.061c0.042,0.051,0.123,0.107,0.129,0.165"/>
	<path fill="#FFFFFF" d="M403.032,407.19c0.028,1.197-0.179,2.502-0.342,3.731c-0.079,0.609-0.396,1.465,0.209,1.892
		c0.21,0.146,0.962-0.034,1.256,0.07c-0.406-0.908,0.163-1.796,0.334-2.659c0.217-1.095-0.537-2.226,0.065-3.317
		c-0.408-0.451-1-0.423-1.511-0.276"/>
	<path fill="#FFFFFF" d="M413.921,412.282c-0.104-0.389-0.184-0.783-0.247-1.18c-0.11-0.665-0.184-1.335-0.274-2
		c-0.045-0.329-0.096-0.655-0.157-0.98c-0.03-0.16-0.063-0.319-0.102-0.477c-0.014-0.056-0.069-0.174-0.039-0.212
		c0.026-0.036,0.161-0.045,0.204-0.059c0.095-0.032,0.164-0.075,0.22,0.018c0.027,0.046,0.023,0.111,0.051,0.159
		c0.035,0.059,0.109,0.089,0.136,0.152c0.018,0.042,0.017,0.101,0.031,0.146c0.037,0.127,0.082,0.251,0.119,0.38
		c0.072,0.25,0.133,0.503,0.195,0.756c0.133,0.53,0.271,1.06,0.502,1.557C415.12,411.745,415.109,411.77,413.921,412.282z"/>
	<path fill="#FFFFFF" d="M407.828,407.75c0.192,0.744-0.229,1.626-0.335,2.355c-0.112,0.771-0.251,1.531-0.364,2.303
		c-0.234,1.59,1.155,1.601,1.479,0.28c0.253-1.04,0.31-2.649,0.37-3.771c0.014-0.254,0.197-1.43,0.135-1.562
		c-0.274-0.576-1.104-0.635-1.39,0.056"/>
	<path fill="#FFFFFF" d="M406.959,373.061c-0.37,0.652-0.745,4.49-0.157,4.986c0.329-0.338,0.886-0.498,1.233-0.676
		c-0.468-0.719-0.535-3.296-0.353-4.166C407.487,372.954,407.254,372.957,406.959,373.061"/>
	<path fill="#FFFFFF" d="M400.883,405.975c-0.132,0.11-0.271,0.211-0.379,0.344c-0.056,0.068-0.108,0.186-0.185,0.087
		c-0.055-0.07-0.052-0.208-0.067-0.291c-0.033-0.163-0.067-0.326-0.068-0.492c-0.005-0.568,0.43-0.848,0.88-1.098
		c0.139-0.078,0.277-0.152,0.412-0.235c0.102-0.061,0.215-0.135,0.312-0.031c0.087,0.09,0.108,0.254,0.168,0.363
		c0.071,0.125,0.155,0.249,0.186,0.391c0.019,0.084,0.019,0.055-0.052,0.108c-0.076,0.059-0.165,0.105-0.246,0.157
		C401.511,405.49,401.184,405.719,400.883,405.975z"/>
	<path fill="#FFFFFF" d="M422.331,385.254c0.002,0.015,0.006,0.03,0.008,0.043c-0.206-0.118-0.483-0.046-0.707-0.025
		c-0.539,0.048-1.083,0.048-1.623,0.089c-0.445,0.036-0.899,0.155-1.342,0.158c-0.135,0.002-0.49-0.018-0.55,0.138
		c0.109,0.04,0.15,0.221,0.177,0.325c0.046,0.182,0.106,0.343,0.175,0.517c0.052,0.135,0.033,0.181,0.171,0.184
		c0.172,0.002,0.417-0.139,0.601-0.163c0.772-0.103,1.543-0.024,2.312-0.186c0.351-0.074,0.795-0.265,1.147-0.186
		c0.129-0.119,0.095-0.771-0.071-0.831"/>
	<path fill="#FFFFFF" d="M400.485,374.064c0.105,0.176,0.111,0.433,0.132,0.629c0.042,0.379,0.083,0.751,0.102,1.134
		c0.021,0.394,0.036,0.803,0.089,1.191c0.018,0.128,0.014,0.391,0.113,0.478c0.115-0.089,0.334-0.111,0.471-0.084
		c0.194-0.229,0.076-0.627,0.056-0.9c-0.052-0.623-0.154-1.247-0.233-1.866c-0.024-0.182,0.026-0.537-0.108-0.68
		c-0.149-0.161-0.362,0.014-0.525,0.007"/>
	<path fill="#FFFFFF" d="M513.3,15.658c-0.619-0.014-1.239-0.021-1.858-0.02c-0.526,0.002-1.066,0.053-1.589-0.026
		c-0.938-0.144-1.955,0.244-2.818,0.589c-0.515,0.205-1.056,0.414-1.55,0.655c-0.58,0.283-1.174,0.6-1.799,0.769
		c-1.062,0.286-2.155,0.469-3.226,0.725c-0.338,0.08-0.634,0.229-0.963,0.325c-0.123,0.038-0.306,0.045-0.34,0.199
		c-0.006,0.021,0.016,0.198,0.02,0.233c0.004,0.062,0.016,0.127,0.028,0.189c0.028,0.153,0.058,0.249,0.056,0.405
		c-0.003,0.222,0.066,0.407,0.114,0.612c0.087,0.374,0.059,0.777,0.121,1.158c0.073,0.455,0.144,0.91,0.226,1.363
		c0.167,0.909,0.358,1.812,0.564,2.713c0.572,2.491,1.244,4.958,1.728,7.468c0.329,1.695,0.744,9.281,3.186,9.51
		c2.551-3.176,10.142-1.549,13.81-3.198c2.447-1.098,2.38-3.503,2.99-5.913c0.886-3.483,3.791-9.715,1.729-13.09
		C521.831,17.217,516.717,15.729,513.3,15.658z"/>
	<path fill="#FFFFFF" d="M500.337,20.721c-0.288,0.197-0.745,0.223-1.081,0.265c-0.203,0.025-0.379,0.087-0.572,0.152
		c-0.201,0.067-0.561,0.066-0.714,0.206c-0.084,0.072-0.075,0.367-0.021,0.482c0.107,0.223,0.302-0.002,0.503-0.04
		c0.685-0.125,1.378-0.045,2.061-0.208c0.209-0.049,0.398-0.023,0.424-0.267c0.021-0.214-0.086-0.438-0.01-0.648
		c-0.16-0.18-0.547,0.076-0.72,0.13"/>
	<path fill="#FFFFFF" d="M498.933,26.751c0.16,0.044,0.404-0.038,0.566-0.062c0.313-0.046,0.631-0.069,0.947-0.097
		c0.393-0.034,0.704-0.151,1.068-0.25c0.03,0.16,0.24,0.18,0.159,0.387c-0.294,0.019-0.572,0.138-0.845,0.236
		c-0.264,0.095-0.509,0.176-0.779,0.244c-0.173,0.042-0.347,0.06-0.517,0.097c-0.085,0.019-0.219,0.055-0.299,0.033
		c-0.183-0.051-0.337-0.362-0.378-0.534"/>
	<path fill="#FFFFFF" d="M500.921,33.24c0.015,0.086,0.495-0.148,0.582-0.187c0.249-0.112,0.528-0.21,0.786-0.29
		c0.328-0.101,0.795-0.114,1.063-0.306c-0.09,0.215,0.144,0.429,0.19,0.627c-0.121,0.077-0.432,0.086-0.592,0.134
		c-0.332,0.102-0.698,0.122-1.02,0.272c-0.237,0.112-0.467,0.221-0.711,0.32c-0.123,0.05-0.112,0.1-0.191,0.009
		c-0.039-0.047-0.12-0.253-0.139-0.325c0.004-0.026,0.019-0.03,0.045-0.011"/>
	<path fill="#FFFFFF" d="M502.982,42.441c-0.017,0.031-0.018,0.033-0.003,0.005c0.088-0.166,0.178-0.313,0.292-0.463
		c0.356-0.471,0.623-0.995,0.896-1.515c0.147-0.285,0.333-0.553,0.563-0.776c0.119-0.115,0.281-0.229,0.378-0.361
		c0.132,0.05,0.255,0.112,0.376,0.147c-0.08,0.281-0.286,0.557-0.421,0.813c-0.212,0.401-0.421,0.812-0.675,1.187
		c-0.215,0.314-0.391,0.646-0.569,0.983c-0.085,0.161-0.221,0.344-0.237,0.525c-0.24-0.011-0.485-0.152-0.714-0.231
		c0.024-0.065,0.06-0.123,0.091-0.184"/>
	<path fill="#FFFFFF" d="M499.989,29.306c0.014,0.013,0.024,0.03,0.032,0.045c0.776-0.161,1.534-0.444,2.315-0.578
		c-0.02,0.262,0.079,0.516,0.069,0.766c-0.132-0.081-0.414-0.012-0.559,0.004c-0.316,0.034-0.705,0.081-1.014,0.163
		c-0.364,0.097-0.741,0.169-1.091,0.312c-0.105-0.096,0.009-0.247-0.08-0.366"/>
	<path fill="#FFFFFF" d="M499.202,23.938c0.067,0.082,0.218-0.073,0.309-0.118c0.244-0.122,0.518-0.201,0.783-0.259
		c0.266-0.056,0.546-0.086,0.812-0.116c0.151-0.018,0.312-0.042,0.444-0.134c0.032,0.129,0.065,0.248,0.149,0.358
		c-0.104,0.055-0.265,0.025-0.389,0.042c-0.34,0.047-0.697,0.135-1.028,0.231c-0.232,0.068-0.46,0.147-0.695,0.208
		c-0.165,0.043-0.381,0.072-0.506,0.195"/>
	<path fill="#FFFFFF" d="M501.28,36.307c0.204,0.022,0.567-0.191,0.733-0.257c0.456-0.182,0.921-0.328,1.385-0.486
		c0.399-0.137,0.786-0.328,1.147-0.547c0.098-0.059,0.17-0.132,0.283-0.16c0.013,0.215,0.095,0.403,0.127,0.615
		c-0.642,0.291-1.329,0.518-2.002,0.766c-0.403,0.15-0.783,0.336-1.181,0.497c-0.132,0.055-0.505,0.293-0.649,0.24
		c0.019-0.14,0.009-0.293,0.076-0.427"/>
	<path fill="#FFFFFF" d="M508.621,42.032c-0.096-0.623-0.311-1.251-0.46-1.875c-0.082-0.341-0.206-0.663-0.335-0.988
		c-0.048-0.12-0.089-0.209-0.084-0.341c0.195,0.166,0.579-0.098,0.678,0.09c0.026,0.053,0.01,0.261,0.016,0.328
		c0.009,0.144,0.015,0.305,0.057,0.443c0.128,0.439,0.192,0.883,0.231,1.35c0.021,0.24-0.029,0.689,0.133,0.895
		c-0.076,0.03-0.219,0.158-0.272,0.079"/>
	<path fill="#FFFFFF" d="M514.028,41.17c0.015,0.046,0.015,0.051,0,0.011c-0.05-0.356-0.146-0.653-0.268-0.995
		c-0.157-0.442-0.217-0.933-0.316-1.388c-0.035-0.164-0.142-0.384-0.138-0.543c0.006-0.162,0.285-0.199,0.451-0.228
		c-0.055,0.274,0.06,0.555,0.082,0.829c0.027,0.338,0.116,0.658,0.181,0.989c0.059,0.317,0.157,0.629,0.264,0.933
		c0.039,0.111,0.243,0.411,0.147,0.505c-0.114-0.063-0.243-0.024-0.371-0.018C514.044,41.236,514.032,41.204,514.028,41.17"/>
	<path fill="#FFFFFF" d="M511.119,41.232c0.091-0.045-0.112-0.488-0.153-0.595c-0.106-0.278-0.102-0.581-0.197-0.854
		c0.127,0.053,0.324-0.036,0.444-0.063c0.033,0.086-0.003,0.186-0.001,0.288c0.002,0.17,0.058,0.349,0.083,0.516
		c0.028,0.18,0.057,0.364,0.109,0.542c0.036,0.125,0.191,0.357,0.152,0.485c-0.114-0.02-0.275-0.027-0.383,0.025
		c0.003-0.027,0.003-0.054-0.005-0.082"/>
	<path fill="#FFFFFF" d="M516.833,41.571c-0.057-0.054-0.061-0.152-0.079-0.228c-0.074-0.306-0.177-0.607-0.271-0.909
		c-0.13-0.421-0.209-0.822-0.288-1.252c-0.018-0.096-0.043-0.175-0.083-0.257c-0.035-0.075-0.07-0.081-0.089-0.187
		c-0.013-0.078-0.028-0.165-0.027-0.238c0.001-0.221,0.099-0.216,0.307-0.22c0.049,0.265,0.131,0.524,0.184,0.787
		c0.068,0.344,0.134,0.716,0.219,1.059c0.042,0.17,0.471,1.241,0.077,1.276"/>
	<path fill="#FFFFFF" d="M518.894,40.258c0.192-0.502,0.046-1.294,0.153-1.878c0.053-0.295,0.034-0.722,0.417-0.643
		c0.074,0.198-0.039,0.47-0.052,0.676c-0.017,0.325-0.071,0.633-0.147,0.946c-0.057,0.226-0.104,0.471-0.135,0.701
		c-0.018,0.14-0.073,0.362-0.034,0.495c-0.103,0.025-0.162-0.08-0.264,0"/>
	<path fill="#245977" d="M89.28,313.826c-1.41-1.26-3.063-2.031-4.588-3.116c-1.459-1.039-2.927-1.893-4.427-2.833
		c-0.349-0.218-0.561-0.423-0.68-0.62c-0.704-0.392-1.44-0.754-2.26-1.05c-2.262-0.817-4.286-1.691-6.275-3.072
		c-1.068-0.741-2.125-1.437-3.086-2.283c-0.792-0.697-1.21-1.562-1.862-2.339c-1.291-1.538-3.107-4.035-5.187-4.545
		c-3.041-0.747-3.77,2.132-3.433,4.554c0.289,2.083,2.111,4.416,1.667,6.41c-0.284,1.275-0.478,2.116-1.869,2.076
		c-1.073-0.031-2.216-0.602-3.243-0.934c-2.425-0.782-4.587-1.59-6.965-2.812c-2.564-1.317-4.993-2.279-7.744-2.886
		c-1.105-0.244-2.396-0.389-3.466-0.526c-1.322-0.168-2.161,0.466-2.639,1.668c-0.444,1.121,0.209,2.061,0.814,2.866
		c0.735,0.976,1.635,2.161,2.579,2.938c2.819,2.317,6.646,3.892,10.129,4.755c0.79,0.195,2.482,0.489,2.155,1.609
		c-0.224,0.764-2.687,1.45-3.284,1.796c-1.502,0.871-3.202,1.773-4.726,2.456c-2.201,0.986-4.104,2.511-6.312,3.485
		c-2.031,0.896-6.447,3.264-4.939,6.223c1.391,2.729,6.874,0.026,8.687-0.742c1.747-0.74,3.505-1.471,5.174-2.378
		c1.275-0.694,2.855-2.449,4.204-2.727c-0.598,0.851-1.262,1.775-2.033,2.504c-1.213,1.146-2.44,2.748-2.666,4.334
		c-0.21,1.476,0.947,3.566,1.184,5c0.294,1.78,0.63,2.488,1.659,3.992c1.862,2.724,2.08-0.156,2.667-2.066
		c0.6-1.952,1.533-3.676,2.673-5.341c1.054-1.54,1.761-2.931,3.074-4.251c1.523-1.531,4.545-3.262,6.572-3.984
		c2.401-0.855,6.398,0.535,8.82,1.04c1.989,0.415,3.915,0.221,5.935,0.333c1.624,0.09,2.771,1.035,4.32,1.067
		c1.051,0.022,1.995-0.198,3.024-0.273c0.772-0.057,1.58,0.124,2.334-0.054c1.003-0.236,2.316-0.958,3.006-1.736
		c0.893-1.006,1.672-2.658,2.285-3.823C91.615,316.535,90.87,315.246,89.28,313.826z"/>
	<path fill="#FFFFFF" d="M285.575,160.707c-0.534-1.93-4.913-0.264-6.402-0.052c-3.856,0.547-7.411,0.872-11.345,0.859
		c-1.91-0.006-3.742,0.273-5.653,0.267c-2.417-0.007-4.868-0.104-7.283-0.006c-5.36,0.216-10.699,1.26-16.073,1.348
		c-5.602,0.092-11.199,0.261-16.795,0.261c-5.133,0-10.414-0.015-15.495,0.594c-4.24,0.507-8.446,1.188-12.645,1.967
		c-4.015,0.745-8.133,0.761-12.062,1.948c-2.778,0.839-5.513,1.286-8.416,1.319c-2.061,0.024-4.189-0.146-6.199,0.411
		c-4.273,1.184-6.893,5.302-8.424,9.171c-1.91,4.824-2.942,10.345,0.436,14.823c1.697,2.25,4.936,3.169,7.697,2.897
		c3.011-0.296,6.115-0.896,9.113-1.335c5.139-0.754,10.295-1.453,15.46-1.943c4.747-0.45,9.406-1.428,14.136-2.025
		c4.237-0.535,8.491-0.719,12.702-1.322c1.23-0.176,2.854-0.956,4.075-0.846c1.576,0.141,0.477,1.115-0.062,2.129
		c-0.604,1.141-1.261,2.289-2.251,3.178c-2.088,1.873-4.608,3.297-6.902,4.887c-2.239,1.551-4.092,3.552-6.338,5.149
		c-4.078,2.899-7.994,6.108-12.238,8.752c-4.436,2.763-8.79,5.554-13.155,8.408c-2.281,1.492-4.22,3.456-6.516,4.94
		c-1.874,1.211-3.917,2.156-5.76,3.405c-4.82,3.267-9.232,7.351-13.651,11.132c-3.055,2.614-6.695,4.442-9.815,6.97
		c-3.105,2.516-6.414,4.875-9.435,7.462c-2.377,2.035-4.686,4.224-7.113,6.183c-5.252,4.237-10.169,8.758-15.539,12.862
		c-3.933,3.004-7.307,6.582-11.164,9.687c-2.516,2.025-5.156,4.044-7.619,6.139c-2.358,2.006-4.427,4.562-6.584,6.796
		c-1.855,1.923-3.898,3.754-5.684,5.743c-0.412,0.458-0.774,0.958-1.15,1.445c-0.163,0.212-0.338,0.412-0.468,0.645
		c-0.121,0.217-0.281,0.312-0.448,0.496c-0.245,0.269-0.531,0.479-0.816,0.703c-0.39,0.305-0.784,0.637-1.194,0.909
		c0.387,0.358,0.808,0.638,1.147,1.049c0.92,1.114,1.673,2.377,2.554,3.531c0.493,0.646,0.901,1.4,1.317,2.097
		c0.667,1.119,1.28,2.249,1.903,3.391c0.49,0.899,1.044,1.75,1.491,2.672c0.351,0.725,0.738,1.434,1.087,2.16
		c0.244,0.51,0.536,0.987,0.731,1.518c0.149,0.408,0.308,0.811,0.483,1.208c0.137,0.308,0.131,0.304,0.368,0.12
		c0.27-0.21,0.569-0.411,0.858-0.605c0.516-0.35,1.033-0.676,1.574-0.988c0.725-0.418,1.378-0.946,2.096-1.376
		c1.311-0.785,2.474-1.762,3.565-2.818c0.567-0.549,1.239-1.105,1.891-1.551c0.218-0.148,0.44-0.149,0.685-0.217
		c0.359-0.1,0.729-0.325,1.025-0.549c0.586-0.443,1.21-0.819,1.828-1.213c0.947-0.603,1.871-1.231,2.802-1.86
		c0.563-0.38,1.105-0.832,1.624-1.271c0.511-0.433,1.071-0.806,1.599-1.219c0.488-0.382,0.962-0.792,1.477-1.138
		c0.527-0.354,1.001-0.743,1.58-1.005c0.607-0.274,1.081-0.839,1.578-1.271c1.173-1.022,2.387-1.996,3.618-2.947
		c2.475-1.913,5.017-3.737,7.455-5.698c0.218-0.176,0.436-0.353,0.652-0.53c2.253-1.852,4.838-3.301,7.144-5.127
		c2.472-1.958,4.908-3.921,7.303-5.974c8.146-6.983,16.079-14.13,24.319-20.974c4.171-3.463,8.168-7.262,11.975-11.115
		c3.892-3.938,8.446-7.115,12.635-10.713c0.78-0.67,1.324-1.45,2.033-2.159c0.879-0.879,2.133-1.411,3.191-2.045
		c2.581-1.547,5.119-3.164,7.707-4.699c2.218-1.316,4.634-2.412,6.679-3.991c0.852-0.658,1.674-1.458,2.584-2.029
		c0.866-0.544,0.972-0.272,1.878-0.439c1.207-0.223,2.17-1.411,3.128-2.088c3.349-2.369,6.527-4.966,9.858-7.368
		c8.842-6.376,18.179-12.333,26.013-19.988c2.914-2.849,6.332-5.107,9.339-7.88c2.49-2.296,5.059-4.677,7.357-7.148
		c1.665-1.79,3.265-3.691,4.967-5.455c1.561-1.617,2.683-3.167,4.22-4.761c2.225-2.307,4.979-4.884,6.489-7.745
		C285.175,165.213,286.109,162.636,285.575,160.707z"/>
	<path d="M86.274,315.664c-0.085,0.357-0.049,0.698,0.107,1.024c2.06-1.636,4.849-4.492,7.393-5.474
		c-2.417-5.253-5.562,3.654-8.039,2.292"/>
	<path d="M81.162,306.951c-0.031-0.021,0.574-0.641,0.729-0.75c0.901-0.636,1.659-1.422,2.413-2.219
		c0.661-0.7,1.23-1.448,1.938-2.069c0.285,0.469,0.668,0.937,0.915,1.416c-0.178-0.009-0.222,0.102-0.33,0.202
		c-0.199,0.185-0.4,0.357-0.609,0.551c-0.239,0.22-0.425,0.469-0.668,0.688c-0.383,0.345-0.757,0.677-1.166,0.995
		c-0.757,0.587-1.553,1.113-2.267,1.739c-0.198,0.174-0.249,0.252-0.427,0.065c-0.113-0.119-0.207-0.326-0.314-0.454
		c0.02,0.014,0.04,0.028,0.06,0.042"/>
	<path d="M89.919,320.771c0.579-0.117,1.046-0.637,1.496-0.978c0.808-0.612,1.511-1.357,2.321-1.968
		c0.544-0.411,1.037-0.829,1.528-1.303c0.222-0.214,0.416-0.585,0.732-0.604c0.072,0.449,0.062,0.763,0.335,1.159
		c0.179,0.262,0.353,0.518,0.486,0.802c-0.137,0.132-0.369,0.177-0.54,0.274c-0.305,0.175-0.595,0.397-0.89,0.583
		c-1.044,0.66-2.014,1.439-3.059,2.09c-0.293,0.182-0.626,0.272-0.935,0.418c-0.296,0.14-0.721,0.54-1.05,0.57
		c-0.305,0.029-0.445-0.445-0.632-0.702"/>
	<path d="M83.215,309.482c0.236,0.054,0.442-0.213,0.606-0.351c0.642-0.54,1.312-1.076,1.993-1.567
		c0.55-0.398,1.108-0.779,1.654-1.186c0.324-0.242,0.704-0.575,1.07-0.721c0.042,0.312,0.264,0.513,0.459,0.73
		c0.13,0.144,0.453,0.393,0.505,0.549c-0.286,0.194-0.657,0.308-0.961,0.5c-0.567,0.36-1.077,0.777-1.593,1.208
		c-0.689,0.575-1.441,1.075-2.133,1.648c-0.221,0.183-0.814,0.888-1.182,0.823c0.026-0.398-0.538-0.736-0.763-1.017"/>
	<path d="M87.799,317.83c0.02,0.016,0.04,0.032,0.06,0.048c0.333-0.152,0.609-0.418,0.914-0.616
		c0.657-0.425,1.257-0.933,1.917-1.351c0.976-0.617,2.016-1.261,2.859-2.051c0.071-0.066,0.251-0.346,0.337-0.351
		c0.111-0.005,0.283,0.278,0.346,0.354c0.176,0.216,0.457,0.41,0.539,0.665c-1.523,0.849-2.984,1.828-4.438,2.812
		c-0.449,0.304-0.953,0.565-1.368,0.914c-0.285,0.24-0.579,0.63-0.947,0.662c-0.052-0.198-0.198-0.36-0.219-0.539"/>
</g>
</svg>
