<?xml version="1.0" encoding="utf-8"?>
<!-- Generator: Adobe Illustrator 16.0.4, SVG Export Plug-In . SVG Version: 6.00 Build 0)  -->
<!DOCTYPE svg PUBLIC "-//W3C//DTD SVG 1.1//EN" "http://www.w3.org/Graphics/SVG/1.1/DTD/svg11.dtd">
<svg version="1.1" id="Ebene_1" xmlns="http://www.w3.org/2000/svg" xmlns:xlink="http://www.w3.org/1999/xlink" x="0px" y="0px"
	 width="176.643px" height="145.985px" viewBox="0 0 176.643 145.985" enable-background="new 0 0 176.643 145.985"
	 xml:space="preserve">
<path fill="#FFFFFF" d="M106.24,125.489l-63.874-13.677c0.273-6.012,6.37-26.564,6.758-27.441c0.932-2.12,3.201-5.159,4.824-6.548
	c1.104-0.939,11.469-3.708,12.572-3.612c1.101,0.097,4.434,1.453,8.677,3.943c4.247,2.492,5.052,5.167,5.97,9.005
	c1.583,6.603-1.275,20.639-1.275,20.639l27.57,7.246L106.24,125.489z M54.552,103.781l10.652,1.68l5.281,0.897
	c0,0,1.652-5.338,1.861-6.521c0.207-1.185,0.998-7.042,0.898-7.534c-0.103-0.492-3.22-5.414-3.22-5.414s-5.837-4.033-7.571-3.072
	c-1.558,0.858-2.934,2.504-3.361,3.566c-0.425,1.063-2.459,6.257-2.459,6.257L54.552,103.781z"/>
<g>
	<path fill="#245977" d="M81.509,34.98c0.229,0.773-0.084,2.308-0.194,3.25c-0.187,1.6-0.362,3.112-0.75,4.7
		c-0.616,2.518-0.966,5.141-2.099,7.5c-2.782,0.75-5.375,2.024-7.908,3.487c-0.959,0.554-1.98,1.165-3.031,1.521
		c-0.846,0.287-1.605,0.773-2.471,1.018c-0.752,0.212-1.569,0.284-2.252,0.542c-0.645,0.243-1.335,0.314-1.989,0.384
		c-0.69,0.074-1.153,0.319-1.825,0.544c-1.289,0.432-2.644,0.656-3.812,1.409c-0.262,0.168-0.755,0.484-0.331,0.69
		c0.255,0.125,0.85-0.052,1.095-0.117c0.642-0.168,1.208-0.326,1.928-0.326c-0.644-0.061-2.19,0.523-2.354,1.175
		c0.83,0.42,1.026,0.082,1.732-0.307c0.233-0.128,0.52-0.212,0.756-0.325c0.298-0.142,0.49-0.352,0.781-0.5
		c-0.262,0.263-0.891,0.865-0.758,1.246c0.509,0.148,0.929-0.555,1.304-0.776c0.451-0.265,1.07-0.3,1.572-0.442
		c0.222-0.063,0.896-0.371,1.051-0.084c0.148,0.274-0.421,1.106-0.335,1.52c0.711,0.082,1.223-0.149,1.616-0.746
		c0.366-0.556,0.527-1.216,1.25-1.311c0.743-0.098,1.519,0,2.265,0.005c0.642,0.004,1.242-0.111,1.872-0.193
		c0.54-0.07,1.069-0.01,1.602-0.106c0.917-0.167,1.798-0.609,2.732-0.685c0.413-0.033,0.747-0.006,1.156-0.104
		c0.682-0.164,1.307-0.417,1.993-0.541c0.88-0.159,1.586-0.538,2.414-0.867c1.014-0.404,1.231-0.43,1.737-1.32
		c0.578-1.016,1.141-2.071,1.568-3.187c0.312-0.815,0.755-1.699,1.127-2.556c0.479-1.1,0.667-2.123,1.054-3.256
		c0.735-2.151,1.402-4.312,1.945-6.556c0.516-2.134,1.467-4.519,1.575-6.688c0.115-2.288-3.764-1.671-5.268-2.251
		c-0.427-0.165-0.229,0.114-0.495-0.249"/>
	<path d="M80.884,32.1c0.044,0.507-0.257,0.994-0.378,1.498c-0.218,0.904-0.298,1.824-0.481,2.73
		c-0.06,0.296-0.283,0.607-0.087,0.78c0.207,0.183,1.224-0.019,1.509-0.011c0.875,0.024,1.724,0.329,2.59,0.377
		c0.676,0.038,1.325,0.047,1.972,0.132c0.292,0.039,1.01,0.172,1.238,0.093c-0.269-0.342-0.154-1.399-0.112-1.849
		c0.044-0.479-0.01-0.965,0.052-1.444c0.075-0.573,0.272-1.093,0.322-1.681c0.045-0.53,0.125-1.054-0.359-1.344
		c-0.665-0.399-1.592-0.495-2.329-0.656c-0.689-0.15-1.348-0.18-2.034-0.278c-0.194-0.028-0.445-0.182-0.646-0.229
		c-0.617-0.146-0.364-0.115-0.631-0.743"/>
	<path fill="#245977" d="M142.871,53.859c-0.452-0.037-0.878,0.008-1.326,0.02c-1.195,0.032-2.354,0.233-3.516,0.455
		c-0.694,0.173-1.411,0.42-2.151,0.623c-0.742,0.204-1.465,0.424-2.227,0.609c-0.37,0.09-0.744,0.136-1.132,0.204
		c-1.687,0.293-3.305,1.099-4.956,1.566c-1.836,0.521-3.695,0.958-5.534,1.469c-2.098,0.584-4.396,1.248-6.57,1.417
		c-1,0.078-2.045,0.189-3.008,0.455c-0.872,0.241-1.913-0.152-2.772-0.348c-0.514-0.117-1.052-0.082-1.567-0.184
		c-0.504-0.1-0.924-0.053-1.386-0.338c-0.38-0.235-0.533-0.514-0.776-0.882c-0.491-0.741-0.92-1.469-1.217-2.317
		c-0.234-0.669-0.195-1.218-0.042-1.918c0.241-1.102,0.675-2.218,1.112-3.247c0.598-1.407,1.417-2.469,2.638-3.371
		c0.37-0.273,0.697-0.581,1.071-0.856c0.625-0.46,1.306-0.768,1.933-1.219c0.912-0.656,1.712-1.444,2.531-2.144
		c0.571-0.488,1.22-0.872,1.841-1.321c0.468-0.339,0.831-0.633,1.241-0.085c0.449,0.6,0.687,1.349,1.122,1.957
		c0.417,0.583,0.753,1.203,1.049,1.887c0.183,0.423,0.431,1.354,0.762,1.668c-1.304,0.204-2.432,1.101-3.597,1.625
		c-0.707,0.318-1.431,0.7-2.174,0.984c-0.523,0.2-1.159,0.444-1.509,0.902c0.91-0.618,1.855-0.872,2.867-1.28
		c0.928-0.375,1.98-0.649,2.957-0.89c0.33-0.081,0.67-0.121,1.002-0.199c0.602-0.143,1.268-0.139,1.882-0.244
		c0.807-0.138,1.616-0.266,2.427-0.383c1.854-0.267,3.735-0.089,5.585-0.503c0.981-0.22,1.965-0.235,2.961-0.188
		c0.996,0.046,1.984-0.133,2.979-0.117c0.935,0.015,1.832-0.071,2.746-0.122c0.953-0.053,1.805,0.037,2.752,0.051
		c0.882,0.013,1.85,0.242,2.721,0.114c0.006-0.047,0.004-0.09,0.011-0.137c0.161-0.047,0.329-0.063,0.5-0.084
		c0.798-0.1,1.597-0.205,2.337-0.522c0.534-0.229,1.037-0.447,1.527-0.763c0.543-0.351,1.142-0.587,1.797-0.499
		c0.51,0.069,1.045,0.327,1.5,0.557c0.467,0.234,0.823,0.859,1.027,1.311c0.24,0.533,0.363,1.109,0.475,1.682
		c0.292,1.527,0.307,2.949,0.927,4.425c0.353,0.839,0.914,1.567,1.268,2.427c0.272,0.662,0.334,1.358,0.502,2.02
		c0.13,0.513,0.119,0.988-0.292,1.415c-0.285,0.295-1.061,0.894-1.37,0.317c-0.354,0.279-2.323,1.561-2.193,0.328
		c-0.526,0.083-1.166,0.111-1.743-0.009c-1.105-0.229-0.068-0.924,0.536-0.902c0.14-0.438-1.104-0.54-1.397-0.664
		c-0.201-0.918,1.278-0.904,1.772-1.494c0.458-0.548-0.233-1.43-0.614-1.81c-0.617-0.615-1.459-0.588-2.281-0.726
		c-0.75-0.125-1.417-0.383-2.177-0.488c-0.545-0.076-1.081-0.177-1.631-0.186C143.669,53.902,143.268,53.892,142.871,53.859z"/>
	<path fill="#245977" d="M115.123,19.725c-3.967,0.111-5.085,3.721-6.258,6.958c-0.43,1.186-2.208,3.755-1.959,4.999
		c-0.029-0.145,4.042-0.14,4.38-0.113c0.348,0.027,0.763,0.013,1.098,0.117c0.295,0.092,0.293,0.104,0.56,0.392
		c0.4,0.433,0.958,0.73,1.467,1.013c1.012,0.563,1.979,1.329,2.821,2.109c1.372,1.27,2.581,2.71,3.96,3.971
		c1.036,0.947,2.511,1.364,3.72,2.079c0.581,0.343,1.177,0.664,1.804,0.917c0.603,0.244,0.576,0.135,0.767-0.443
		c0.15-0.454,0.332-0.898,0.529-1.333c0.778-1.724,1.826-3.312,2.879-4.877c0.121-0.179,0.242-0.358,0.363-0.538
		c1.061-1.57,2.44-3.244,1.488-4.992c-0.812-1.491-2.135-2.646-3.149-3.907c-2.006-2.494-4.809-4.449-7.839-5.26
		C119.442,20.198,117.553,19.657,115.123,19.725z"/>
	<path fill="#245977" d="M80.426,32.74c-0.203,1.487-1.043,3.528-2.897,2.442c-0.727-0.426-1.392-1.021-2.265-1.156
		c-1.069-0.166-1.318,1.018-2.117,1.471c-0.648,0.368-0.802,0.015-1.296-0.448c-0.714-0.669-1.285-1.504-2.024-2.133
		c-0.719-0.612-1.41-0.843-2.282-1.156c-2.02-0.723-5.225-2.421-5.021-5.087c0.224-2.92,0.623-6.37,3.128-8.247
		c0.664-0.497,1.715-1.217,2.506-1.103c0.72,0.104,1.489,0.268,2.242,0.366c0.895,0.116,1.789,0.233,2.685,0.347
		c1.963,0.25,3.728,1.047,5.338,2.188c1.282,0.908,2.506,1.888,3.918,2.532c0.897,0.409,1.973,0.79,2.942,0.972
		c0.802,0.15,1.473-0.119,2.255-0.17c1.759-0.112,0.732,3.001,0.485,4.034c-0.167,0.697-0.661,0.734-1.317,0.79
		c-0.781,0.066-1.577,0.146-2.357,0.271c-0.691,0.11-1.376,0.246-2.08,0.353c-0.372,0.056-1.407,0.026-1.644,0.392
		c-0.108,0.166-0.039,1.143-0.083,1.458C80.453,31.502,80.515,32.088,80.426,32.74z"/>
	<path fill="#FFFFFF" d="M71.092,30.446c0.229,0.067,0.392,0.178,0.587,0.305c0.19,0.125,0.372,0.266,0.558,0.399
		c0.403,0.292,0.792,0.618,1.186,0.917c0.367,0.28,0.742,0.542,1.135,0.788c0.227,0.142,0.449,0.291,0.681,0.426
		c0.045,0.027,0.099,0.047,0.142,0.077c0.07,0.048,0.119,0.127,0.178,0.189c0.146,0.154,0.318,0.274,0.507,0.369
		c0.851,0.426,1.743,0.788,2.517,1.354c0.154,0.112,0.366,0.157,0.508,0.278c0.157,0.135-0.25,0.146-0.339,0.146
		c-0.152,0-0.295-0.049-0.432-0.098c-0.142-0.051-0.289-0.083-0.431-0.141c-0.225-0.092-0.44-0.19-0.66-0.292
		c-0.517-0.243-1.052-0.44-1.582-0.651c-0.288-0.114-0.657-0.225-0.974-0.225c-0.259,0.001-0.492,0.172-0.683,0.347
		c-0.271,0.249-0.57,0.453-0.835,0.705c-0.154,0.146-0.315,0.299-0.531,0.34c-0.292,0.054-0.397-0.146-0.593-0.329
		c-0.714-0.669-1.285-1.504-2.024-2.133c-0.719-0.612-1.41-0.843-2.282-1.156c-2.02-0.723-5.225-2.421-5.021-5.087
		c0.062-0.81,0.163-1.572,0.33-2.337"/>
	<path d="M86.661,20.274c-1.39,0.739-2.768,1.515-4.031,2.458c-1.014,0.758-1.464,1.745-2.03,2.861
		c-0.387,0.761-0.341,1.655-0.341,2.485c0,1.487,0.162,3.092,1.128,4.274c0.95,1.162,2.329,1.858,3.649,2.525
		c0.92,0.464,1.883,0.945,2.826,1.354c0.736,0.319,1.394,0.516,2.041,1.01c1.519,1.161,3.301,1.659,5.113,2.195
		c1.798,0.533,3.583,1.188,5.411,1.634c2.079,0.507,4.271,0.593,6.369,1.06c2.04,0.453,4.087,0.408,6.151,0.587
		c0.93,0.081,1.837,0.265,2.768,0.353c0.403,0.038,1.099-0.103,1.427,0.106c-0.132-2.437,0.751-4.811,0.741-7.252
		c-0.008-1.961,0.126-3.985,0.369-5.924c0.183-1.458,0.248-3.087,0.71-4.479c0.454-1.363,0.254-2.852,0.576-4.256
		c0.101-0.44,0.436-1.013,0.203-1.463c-0.166-0.318-0.643-0.487-0.94-0.64c-1.064-0.545-2.26-0.696-3.355-1.156
		c-0.532-0.224-1.116-0.508-1.687-0.608c-0.5-0.087-1.009-0.03-1.5-0.205c-0.575-0.204-1.007-0.219-1.635-0.219
		c-1.365,0-2.675-0.193-3.996-0.347c-0.971-0.113-2.004-0.028-2.988-0.028c-1.21,0-2.315,0.22-3.506,0.25
		c-0.512,0.013-0.978,0.128-1.497,0.125c-0.554-0.003-1.17-0.07-1.72-0.006c-0.66,0.077-1.263,0.43-1.908,0.509
		c-0.485,0.059-0.936-0.014-1.382,0.115c-0.774,0.225-1.603,0.401-2.369,0.722c-0.415,0.173-0.814,0.258-1.221,0.441
		c-0.583,0.262-0.889,0.577-1.521,0.691C87.845,19.568,87.266,19.953,86.661,20.274z"/>
	<path d="M64.034,33.813c-0.055-0.419-0.011-0.995,0.224-1.363c0.121-0.191,0.299-0.351,0.459-0.509
		c0.192-0.193,0.388-0.361,0.63-0.489c0.265-0.139,0.626-0.404,0.91-0.199c0.178,0.129,0.345,0.261,0.514,0.396
		c-0.101,0.063-0.207,0.058-0.304,0.137c-0.142,0.116-0.201,0.232-0.309,0.373c-0.122,0.155-0.209,0.188-0.2,0.409
		c0.017,0.425,0.194,0.875,0.549,1.123c0.301,0.209,0.777,0.45,1.152,0.274c0.286-0.134,0.294-0.594,0.208-0.856
		c-0.12-0.362-0.399-0.685-0.658-0.956c-0.31-0.329-0.709-0.588-1.098-0.822c-0.181-0.11-0.382-0.174-0.571-0.261
		c-0.278-0.13-0.522-0.277-0.818-0.361c-0.361-0.104-0.699-0.265-1.051-0.389c-0.216-0.076-0.482-0.084-0.669-0.227
		c-0.185-0.143-0.271-0.399-0.378-0.598c-0.162-0.301-0.273-0.633-0.455-0.923c-0.307-0.491-0.52-1.015-0.693-1.571
		c-0.083-0.262-0.194-0.519-0.312-0.765c-0.059-0.122-0.139-0.235-0.183-0.354c-0.104-0.275,0.068-0.652,0.15-0.922
		c0.155-0.501,0.383-0.971,0.573-1.464c0.135-0.353,0.282-0.697,0.441-1.038c0.136-0.292,0.219-0.603,0.353-0.894
		c0.166-0.36,0.321-0.729,0.478-1.093c0.173-0.399,0.426-0.749,0.624-1.135c0.419-0.821,1.032-1.537,1.638-2.226
		c0.507-0.581,1.127-1.056,1.703-1.563c0.091-0.08,0.19-0.159,0.279-0.242c0.043-0.042,0.079-0.117,0.132-0.146
		c0.078-0.04,0.253-0.002,0.34,0.009c0.261,0.034,0.557,0.081,0.793,0.195c0.182,0.087,0.289,0.235,0.489,0.3
		c0.173,0.056,0.344,0.083,0.518,0.124c0.322,0.074,0.662,0.108,0.994,0.152c0.111,0.014,0.222,0.024,0.333,0.032
		c0.68,0.052,1.371-0.008,2.046,0.088c0.403,0.059,0.736,0.254,1.118,0.372c0.477,0.146,0.989,0.097,1.476,0.194
		c0.355,0.071,0.924,0.229,1.215-0.08c0.247-0.26,0.462-0.841,0.471-1.197c0.024-0.809-0.699-1.524-1.408-1.795
		c-0.382-0.147-0.968-0.195-1.362-0.079c-0.442,0.131-0.564,0.437-0.709,0.82c-0.134,0.349-0.17,0.884,0.057,1.203
		c0.228,0.318,0.611,0.507,0.958,0.496c0.02,0.176,0.006,0.342,0.017,0.519c0.009,0.132,0.042,0.328,0.027,0.444
		c-0.028,0.213-0.134,0.195-0.34,0.218c-0.24,0.027-0.473,0.065-0.716,0.081c-0.394,0.026-0.908-0.039-1.277-0.175
		c-0.191-0.07-0.321-0.119-0.402-0.313c-0.118-0.284-0.207-0.578-0.226-0.89c-0.021-0.339,0.009-0.657,0.058-1
		c0.066-0.458,0.281-0.845,0.463-1.267c0.297-0.694,1.205-1.342,1.898-1.594c0.694-0.253,1.397-0.26,2.121-0.235
		c1.104,0.037,2.311,0.342,2.949,1.315c0.432,0.659,0.888,1.322,1.14,2.08c0.271,0.822,0.182,1.702,0.024,2.535
		c-0.107,0.569-0.276,1.128-0.536,1.648c-0.241,0.483-0.576,0.912-0.866,1.366c-0.195,0.307-0.329,0.649-0.595,0.905
		c-0.193,0.186-0.429,0.375-0.667,0.497c-0.25,0.128-0.538,0.14-0.791,0.258c-0.295,0.139-0.581,0.236-0.893,0.325
		c-0.341,0.096-0.698,0.136-1.045,0.225c-0.379,0.097-0.795,0.127-1.063,0.446c-0.265,0.318-0.561,0.639-0.792,0.984
		c-0.149,0.225-0.167,0.472,0.003,0.69c0.278,0.36,0.723,0.603,1.083,0.876c0.246,0.187,0.425,0.331,0.716,0.411
		c0.016,0.125-0.129,0.349-0.18,0.47c-0.095,0.223-0.204,0.448-0.335,0.653c-0.063,0.097-0.105,0.211-0.163,0.306
		c-0.069,0.114-0.136,0.076-0.266,0.031c-0.187-0.063-0.361-0.128-0.556-0.173c-0.165-0.04-0.332-0.053-0.496-0.091
		c-0.223-0.05-0.45-0.093-0.67-0.153c-0.176-0.047-0.332-0.155-0.514-0.2c-0.42-0.106-0.846-0.207-1.27-0.304
		c-0.543-0.125-1.111-0.264-1.625-0.472c-0.127-0.052-0.253-0.129-0.382-0.168c-0.113-0.031-0.257-0.01-0.363-0.059
		c-0.115-0.052-0.164-0.116-0.306-0.123c-0.148-0.006-0.287-0.007-0.436-0.026c-0.269-0.035-0.533-0.069-0.802-0.076
		c-0.12-0.003-0.294-0.035-0.382,0.039c-0.041,0.032-0.103,0.125-0.138,0.169c-0.122,0.144-0.223,0.319-0.328,0.477
		c-0.355,0.54-0.699,1.102-1.089,1.614c-0.246,0.323-0.501,0.707-0.678,1.055c-0.054,0.106-0.259,0.227-0.251,0.335
		c0.303,0.116,0.574,0.331,0.86,0.488c0.272,0.15,0.559,0.294,0.842,0.432c0.3,0.145,0.594,0.29,0.886,0.451
		c0.124,0.069,0.232,0.146,0.356,0.222c0.109,0.068,0.19,0.114,0.259,0.221c0.067,0.105,0.129,0.166,0.245,0.232
		c0.211,0.123,0.446,0.195,0.666,0.298c0.216,0.102,0.416,0.223,0.645,0.282c0.062,0.015,0.143,0.042,0.199,0.07
		c0.111,0.055,0.215,0.129,0.334,0.177c0.227,0.09,0.477,0.181,0.677,0.322c0.154,0.108,0.324,0.199,0.45,0.338
		c0.055,0.06,0.107,0.114,0.117,0.197c0.017,0.147,0.005,0.292-0.031,0.435c-0.043,0.174,0.032,0.326-0.014,0.503
		c-0.041,0.156-0.156,0.289-0.213,0.444c-0.152,0.417-0.381,0.954-0.763,1.218c-0.457,0.317-0.982,0.408-1.522,0.417
		c-0.595,0.009-1.247-0.106-1.807-0.3c-0.234-0.08-0.422-0.145-0.616-0.298c-0.162-0.129-0.317-0.262-0.464-0.407
		c-0.233-0.231-0.521-0.438-0.642-0.759C64.112,34.375,64.069,34.079,64.034,33.813z"/>
	<path d="M71.31,27.733c0.023,0.003,0.025,0.003,0.005,0c-0.675-0.083-1.414,0.382-1.778,0.938
		c-0.125,0.191-0.149,0.419-0.179,0.643c-0.034,0.257,0.008,0.417,0.115,0.633c-0.087-0.083,0.172-0.499,0.229-0.601
		c0.188-0.34,0.399-0.692,0.654-0.986c0.281-0.322,0.786-0.505,1.186-0.603c0.028,0.026,0.028,0.058,0.014,0.095"/>
	<path d="M71.75,28.345c0.023,0.004,0.024,0.004,0.003,0.002c-0.168-0.095-0.264-0.269-0.414-0.371
		c0.032,0.102,0.112,0.225,0.152,0.33c-0.127,0.033-0.276-0.128-0.408-0.137c0.07,0.105,0.166,0.242,0.173,0.372
		c-0.06,0.013-0.136-0.037-0.197-0.05c-0.097-0.022-0.217-0.041-0.314-0.018c-0.29,0.07,0.081,0.247,0.117,0.375
		c-0.039,0.035-0.157,0.023-0.216,0.036c-0.072,0.017-0.143,0.055-0.22,0.058c-0.039,0.138,0.364,0.118,0.273,0.287
		c-0.138,0.015-0.572-0.041-0.644,0.091c0.121,0.087,0.284,0.201,0.427,0.244c-0.035,0.075-0.198,0.062-0.273,0.095
		c-0.067,0.031-0.176,0.086-0.218,0.15c0.088,0.026,0.366,0.042,0.416,0.111c-0.111,0.006-0.28,0.058-0.336,0.162
		c0.134,0.042,0.289,0.02,0.422,0.065c-0.003,0.083-0.331,0.158-0.404,0.229c0.112,0.044,0.223-0.007,0.334,0.02
		c-0.056,0.028-0.095,0.073-0.146,0.107c0.014,0.061,0.214,0.108,0.27,0.116c0.095,0.012,0.217-0.039,0.307-0.07
		c0.273-0.096,0.579-0.278,0.777-0.49c0.119-0.125,0.289-0.322,0.335-0.487c0.036-0.126,0.063-0.269,0.081-0.396
		c0.02-0.159,0.022-0.292-0.036-0.444c-0.049-0.125-0.145-0.231-0.179-0.365c0.06,0.193,0.101,0.353,0.074,0.555
		c-0.03,0.225-0.111,0.39-0.241,0.567c-0.23,0.317-0.446,0.711-0.843,0.811c-0.06-0.184-0.138-0.27-0.11-0.479
		c0.027-0.199,0.091-0.361,0.18-0.539c0.1-0.2,0.205-0.379,0.361-0.537c0.08-0.08,0.175-0.155,0.27-0.217
		c0.034-0.022,0.088-0.062,0.125-0.072c0.059-0.015,0.101,0.032,0.147-0.016"/>
	<path d="M67.933,32.765c-0.056-0.034-0.066-0.097-0.102-0.151c-0.061-0.092-0.132-0.149-0.158-0.264
		c-0.034-0.146-0.01-0.428,0.041-0.578c0.055-0.16,0.23-0.308,0.365-0.398c0.14-0.093,0.294-0.074,0.429-0.14
		c-0.02,0.085-0.12,0.135-0.162,0.21c-0.038,0.062-0.051,0.149-0.064,0.218c-0.02,0.1-0.004,0.199-0.011,0.299
		c-0.006,0.098-0.034,0.195-0.039,0.293c-0.009,0.168,0.048,0.334,0.087,0.495c0.03,0.128,0.039,0.306-0.157,0.25"/>
	<path fill="#FFFFFF" d="M71.454,28.543c-0.089,0.003-0.293,0.188-0.384,0.273c-0.183,0.172-0.309,0.406-0.37,0.653
		c-0.051,0.201-0.088,0.443-0.093,0.652c-0.005,0.143,0.024,0.305,0.005,0.443c0.065-0.024,0.107-0.049,0.177-0.069
		c0.13-0.034,0.25-0.085,0.371-0.151c0.309-0.164,0.531-0.401,0.677-0.73c0.117-0.267,0.249-0.495,0.121-0.773
		c-0.079-0.175-0.146-0.255-0.294-0.351c-0.002,0.026-0.004,0.052-0.01,0.078"/>
	<path d="M71.343,29.196c0.123,0.031,0.27,0.13,0.312,0.254c-0.117-0.207-0.469-0.165-0.666-0.143
		c-0.293,0.033-0.455,0.428-0.368,0.692c0.083,0.255,0.31,0.425,0.572,0.423c0.18-0.001,0.69-0.179,0.665-0.422"/>
	<g>
		<path fill="#FFFFFF" d="M69.32,31.908c0.027,0.072-0.102,0.161-0.145,0.209c-0.061,0.069-0.11,0.148-0.165,0.223
			c-0.061,0.082-0.117,0.157-0.164,0.24c-0.052,0.092-0.152,0.125-0.024,0.18c0.173,0.075,0.35,0.169,0.527,0.257
			c0.083,0.041,0.161,0.056,0.258,0.069c0.087,0.011,0.162-0.025,0.242-0.013c0.027-0.107,0.018-0.236,0.009-0.343
			c-0.009-0.112-0.015-0.24-0.051-0.353c-0.03-0.096-0.066-0.201-0.135-0.276c-0.042-0.046-0.216-0.218-0.262-0.121"/>
		<path d="M68.785,33.48c0.031-0.007,0.055-0.033,0.065-0.062c0.114,0.001,0.229,0.044,0.341,0.062
			c0.093,0.015,0.232,0.055,0.318,0.017c0.183-0.085,0.263-0.295,0.248-0.473c-0.019-0.221-0.03-0.447-0.097-0.67
			c-0.027-0.09-0.08-0.192-0.143-0.263c-0.047-0.054-0.181-0.142-0.042-0.181c0.05,0.082,0.153,0.151,0.217,0.225
			c0.071,0.08,0.139,0.179,0.182,0.277c0.087,0.201,0.084,0.496,0.027,0.712c-0.062,0.236-0.144,0.405-0.403,0.473
			c-0.114,0.029-0.225,0.016-0.344,0c-0.1-0.012-0.245,0.013-0.333-0.041c-0.038-0.023-0.058-0.067-0.089-0.099
			c-0.049-0.05-0.111-0.095-0.165-0.142c-0.075-0.065-0.268-0.173-0.281-0.271c0.128,0,0.234,0.035,0.328,0.112
			c-0.1-0.046-0.233-0.164-0.28-0.251c0.103-0.008,0.207,0.032,0.311,0.029c-0.071-0.11-0.182-0.22-0.24-0.34
			c0.092-0.06,0.216,0.004,0.314-0.001c0.011-0.125-0.238-0.208-0.21-0.339c0.107-0.002,0.223,0.021,0.329,0.039
			c-0.033-0.04-0.173-0.192-0.167-0.227c0.022-0.119,0.362-0.035,0.444-0.037c-0.017-0.043-0.139-0.144-0.119-0.187
			c0.027-0.054,0.261,0.009,0.316,0.007c-0.02-0.042-0.077-0.076-0.098-0.117c0.053-0.002,0.197-0.011,0.218,0.057
			c0.019,0.058-0.101,0.136-0.129,0.182c-0.04,0.064-0.06,0.137-0.097,0.203c-0.056,0.1-0.13,0.186-0.184,0.287
			C68.88,32.726,68.556,33.169,68.785,33.48z"/>
		<path d="M69.343,32.528c0.03,0.027,0.145-0.024,0.212,0.001c0.115,0.044,0.18,0.194,0.237,0.292
			c0.094,0.163,0.146,0.348,0.058,0.532c-0.183,0.381-0.735,0.147-0.855-0.169"/>
	</g>
	<path d="M75.379,34.368c0.17,0.256,0.611,0.039,0.808-0.095c-0.122,0.083,0.511,0.57,0.611,0.561
		c0.253-0.023,0.246-0.579,0.271-0.767c0.045-0.34-0.015-0.657-0.039-0.994c-0.027-0.375,0.023-0.749-0.07-1.121
		c-0.072-0.297-0.218-0.631-0.371-0.869c-0.06,0.189-0.041,0.402-0.088,0.593c-0.045,0.187-0.138,0.361-0.184,0.544
		c-0.048,0.194-0.134,0.36-0.203,0.547c-0.122,0.338-0.259,0.601-0.485,0.874C75.478,33.822,75.213,34.119,75.379,34.368z"/>
	<path fill="#FFFFFF" d="M93.604,36.583c-0.939-0.139-2.075-0.086-2.93-0.422c-0.288-0.113-0.493-0.361-0.771-0.496
		c-0.397-0.193-0.868-0.256-1.289-0.386c-1.12-0.344-2.179-0.896-3.287-1.244c-0.732-0.23-1.612-0.533-2.158-1.086
		c-0.437-0.442-0.971-0.918-1.236-1.485c-0.572-1.222-0.581-2.656-0.472-3.975c0.104-1.243,0.297-2.436,1.245-3.338
		c0.935-0.891,2.201-1.693,3.327-2.314c1.202-0.663,2.522-1.179,3.785-1.733c1.39-0.61,2.835-1.032,4.242-1.572
		c1.408-0.541,2.995-0.981,4.506-1.01c1.557-0.029,3.091-0.513,4.672-0.303c0.632,0.084,1.253,0.226,1.905,0.256
		c0.691,0.032,1.372,0.2,2.065,0.227c0.816,0.032,1.538-0.038,2.361,0.102c0.667,0.113,1.329,0.257,1.982,0.433
		c1.759,0.473,3.554,0.964,5.24,1.668c2.315,0.968,4.572,2.12,6.787,3.3c0.88,0.469,1.749,0.91,2.594,1.438
		c0.542,0.339,1.059,0.669,1.621,0.964c0.664,0.349,1.259,0.913,1.863,1.363c0.639,0.476,1.263,0.856,1.921,1.29
		c0.562,0.369,1.125,0.72,1.682,1.09c0.305,0.203,0.678,0.395,0.833,0.744c0.163-0.166,0.183-0.431,0.302-0.627
		c0.089-0.147,0.223-0.262,0.323-0.402c0.174-0.246,0.263-0.346,0.157-0.639c-0.371-1.027-1.53-1.668-2.359-2.271
		c-1.233-0.896-2.511-1.722-3.749-2.611c-2.435-1.748-5.27-3.159-7.945-4.507c-2.591-1.306-5.387-2.147-8.245-2.625
		c-1.431-0.24-2.875-0.387-4.322-0.486c-1.104-0.076-2.191-0.264-3.306-0.112c-0.634,0.087-1.237,0.145-1.871,0.224
		c-0.935,0.115-1.828,0.015-2.747,0.128c-1.236,0.152-2.451,0.196-3.726,0.196c-2.122,0-4.188,0.45-6.188,1.128
		c-1.19,0.403-2.365,1.027-3.498,1.6c-1.98,1.001-3.873,1.955-4.948,3.988c-0.324,0.613-0.668,1.346-0.932,2.028
		c-0.377,0.975-0.531,1.676-0.531,2.747c0,1.015-0.045,2.023,0.281,2.979c0.633,1.85,1.886,3.282,3.35,4.494
		c0.611,0.506,1.232,0.995,1.897,1.368c0.494,0.277,1.051,0.424,1.546,0.7c0.509,0.283,0.865,0.631,1.413,0.856
		c1.367,0.561,2.842,0.883,4.146,1.589c0.742,0.401,1.786,0.475,2.675,0.547c2.052,0.167,4.087,0.407,6.159,0.22
		c2.473-0.223,4.954-0.374,7.429-0.6c2.282-0.208,4.544-0.616,6.782-1.095c0.841-0.18,1.655-0.461,2.492-0.643
		c0.511-0.111,1.012-0.23,1.485-0.437c0.239-0.104,0.886-0.206,0.98-0.443c0.005-0.014-0.127-0.659-0.14-0.753
		c-0.299-0.104-1.113,0.118-1.42,0.206c-0.353,0.101-0.72,0.244-1.082,0.3c-1.222,0.19-2.408,0.271-3.63,0.474
		c-0.878,0.146-1.776,0.224-2.653,0.33c-0.718,0.086-1.513-0.004-2.236-0.006c-0.702-0.002-1.362,0.111-2.066,0.11
		c-1.647-0.003-3.268-0.19-4.898-0.22c-1.554-0.029-3.148-0.035-4.655-0.467c-0.681-0.196-1.433-0.442-2.136-0.529
		c-0.808-0.1-1.617-0.063-2.431-0.214C93.735,36.604,93.67,36.593,93.604,36.583z"/>
	<path d="M90.646,26.683c-0.181-0.129-0.332-0.719-0.501-1c-0.328-0.543-0.674-0.73-1.156-1.121
		c-0.909-0.736-1.571-1.266-2.642-0.424c-3.007,2.366-1.968,6.638-2.366,9.925c-0.114,0.939-0.224,1.961-0.222,2.924
		c0.002,1.02,0.042,2.011-0.219,2.988c-0.119,0.445-0.239,0.899-0.155,1.374c0.076,0.433,0.159,0.459,0.5,0.751
		c0.627,0.536,1.382,0.625,2.219,0.625c1.143,0,2.229,0.25,3.338,0.25c0.772,0,1.351-0.217,2.068-0.469
		c0.841-0.294,1.456-0.194,2.003-1.027c0.377-0.575,0.24-0.94,0.069-1.555c-0.469-1.691-0.503-3.544-0.786-5.277
		c-0.301-1.839-0.294-3.77-0.657-5.599c-0.181-0.909-0.922-2.476-0.997-3.033"/>
	<path fill="#245977" d="M71.089,83.048c0.262-0.268,0.549-0.523,0.827-0.792c0.336-0.325,0.675-0.629,1.06-0.906
		c0.392-0.282,0.893-0.261,1.329-0.424c0.484-0.181,0.914-0.533,1.341-0.82c1.008-0.678,2-1.378,2.975-2.103
		c1.908-1.418,3.757-2.924,5.483-4.562c1.505-1.429,5.044-3.364,5.34-5.407c0.381-2.634,0.253-5.389,0.575-8
		c0.377-3.057,1.18-6.168,1.18-9.271c0-1.212,0.109-2.369,0.109-3.574c0-0.65,0.103-1.236,0.109-1.859
		c0.006-0.618,0.033-1.346,0.103-1.973c0.129-1.158,0.705-2.898-0.267-3.748c-0.714-0.623-1.333-1.588-2.371-1.634
		c-0.662-0.029-1.168,0.233-1.747,0.534c-0.42,0.218-1.042,0.454-1.381,0.81c-0.726,0.761-0.315,2.279-0.116,3.153
		c0.117,0.513,0.125,1.039,0.243,1.531c0.232,0.971,0.033,1.812,0.021,2.767c-0.018,1.309-0.035,2.624-0.035,3.933
		c0,1.561,0.293,3.193,0.115,4.747c-0.182,1.582-0.335,3.224-0.139,4.81c0.093,0.749-0.121,1.461-0.081,2.196
		c0.055,1.02-0.027,1.789-0.303,2.785c-0.108,0.39-0.232,0.774-0.4,1.142c-0.154,0.337-0.172,0.642-0.294,0.972
		c-0.233,0.631-0.959,0.941-1.427,1.369c-0.529,0.484-1.069,0.992-1.6,1.491c-0.659,0.619-1.391,1.216-2.096,1.8
		c-0.719,0.595-1.564,1.061-2.24,1.715c-1.705,1.648-3.694,3.097-5.634,4.524c-0.937,0.689-1.84,1.458-2.796,2.119
		c-1.115,0.77-2.111,1.733-3.586,1.729c-0.332-0.001-1.205-0.143-1.102,0.375c0.074,0.374,0.688,0.477,0.839,0.843
		c-0.644,0.437-1.536,0.3-2.237,0.532c-0.871,0.288-0.663,0.847-0.219,1.469c0.748,1.048,2.318,1.91,3.584,1.906
		c0.57-0.001,1.079-0.086,1.634-0.125c0.371-0.026,0.819,0.123,1.097-0.153c0.101-0.1,0.111-0.345,0.175-0.466
		c0.161-0.305,0.413-0.577,0.578-0.89c0.192-0.364,0.312-0.624,0.4-0.991C70.286,83.97,70.654,83.493,71.089,83.048z"/>
	<path fill="#FFFFFF" d="M123.178,52.303c-0.337,0.125-0.676,0.233-1.026,0.28c-0.715,0.095-1.468-0.006-2.188,0.08
		c-0.524,0.062-1.058-0.011-1.585,0.025c-0.51,0.035-0.858,0.287-1.327,0.44c-0.385,0.126-0.879,0.342-1.32,0.226
		c-0.435-0.115-0.748-0.666-0.991-1.002c-0.587-0.812-0.801-1.814-0.983-2.769c-0.225-1.184-0.706-2.093-1.241-3.169
		c-0.344-0.693-2.126-2.48-1.13-3.264c0.159-0.125,0.399-0.086,0.578-0.169c0.307-0.142,0.553-0.442,0.826-0.642
		c0.607-0.445,1.276-0.798,1.836-1.307c1.134-1.031,2.279-1.989,3.085-3.283c0.877-1.409,1.969-2.671,2.978-3.991
		c0.688-0.898,1.363-1.821,2.116-2.672c0.642-0.726,1.142-1.696,1.906-2.296c0.732-0.575,1.201-1.215,1.616-2.073
		c0.4-0.827,0.978-1.506,1.49-2.236c0.206-0.293,0.454-0.556,0.66-0.85c0.319-0.454,0.581-0.289,0.975-0.089
		c0.479,0.243,0.607,0.097,1.152,0.087c0.253-0.005,0.507-0.006,0.759,0c1.041,0.024,1.898,0.718,2.779,1.21
		c0.99,0.554,1.972,0.963,3.02,1.399c1.476,0.614,2.891,1.645,4.192,2.583c1.035,0.746,1.943,1.635,2.75,2.618
		c0.745,0.908,1.555,1.765,2.147,2.781c1.024,1.757,1.502,3.577,2.095,5.507c0.247,0.803,0.527,1.501,0.522,2.348
		c-0.003,0.588,0.089,1.138,0.11,1.698c0.021,0.552-0.338,1.058-0.522,1.564c-0.182,0.501-0.258,1.006-0.548,1.435
		c-0.716,1.061-1.651,1.534-2.852,1.93c-0.961,0.317-2.046,0.367-3.038,0.544c-1.465,0.262-2.907,0.753-4.395,0.889
		c-2.083,0.189-4.184,0.444-6.259,0.707c-2.229,0.282-4.556,0.456-6.759,0.968C124.122,51.92,123.653,52.128,123.178,52.303z"/>
</g>
</svg>
