<?xml version="1.0" encoding="utf-8"?>
<!-- Generator: Adobe Illustrator 16.0.4, SVG Export Plug-In . SVG Version: 6.00 Build 0)  -->
<!DOCTYPE svg PUBLIC "-//W3C//DTD SVG 1.1//EN" "http://www.w3.org/Graphics/SVG/1.1/DTD/svg11.dtd">
<svg version="1.1" id="Ebene_1" xmlns="http://www.w3.org/2000/svg" xmlns:xlink="http://www.w3.org/1999/xlink" x="0px" y="0px"
	 width="152.555px" height="106.569px" viewBox="0 0 152.555 106.569" enable-background="new 0 0 152.555 106.569"
	 xml:space="preserve">
<g>
	<path fill="#245977" d="M69.108,56.363c0.182-0.202,0.359-0.408,0.518-0.624c0.454-0.627,1.068-1.172,1.337-1.92
		c0.282-0.779,0.49-1.582,0.471-2.42c-0.029-1.249-0.874-4.729-2.274-5.046c-0.247-0.056-0.534-0.081-0.777-0.006
		c-0.309,0.096-0.464,0.35-0.722,0.522c-0.45,0.302-0.895,0.601-1.317,0.944c-0.262,0.217-0.475,0.489-0.732,0.713
		c-0.251,0.218-0.5,0.44-0.73,0.682c-0.174,0.183-0.363,0.35-0.561,0.513c-0.241,0.2-0.456,0.419-0.693,0.625
		c-1.197,1.041-2.308,2.186-3.511,3.218c-0.816,0.7-1.664,1.354-2.451,2.086c-0.379,0.354-0.799,0.663-1.194,0.994
		c-0.335,0.28-0.633,0.585-0.943,0.894c-0.265,0.262-0.555,0.498-0.819,0.766c-0.277,0.279-0.593,0.519-0.892,0.777
		c-0.548,0.479-1.061,1.006-1.597,1.499c-0.396,0.362-0.833,0.651-1.205,1.037c-0.1,0.101-0.22,0.189-0.324,0.29
		c-0.11,0.105-0.156,0.113-0.287,0.173c-0.084,0.037-0.188,0.137-0.27,0.194c-0.146,0.104-0.301,0.188-0.45,0.289
		c-0.278,0.184-0.522,0.421-0.824,0.574c-0.762,0.388-1.529,0.777-2.268,1.212c-0.706,0.414-1.421,0.805-2.148,1.178
		c-0.377,0.193-0.757,0.389-1.145,0.564c-0.54,0.246-1.073,0.546-1.619,0.772c-0.43,0.179-0.834,0.418-1.271,0.581
		c-0.336,0.124-0.661,0.276-0.996,0.403c-0.382,0.144-0.767,0.277-1.138,0.457c-0.186,0.087-0.385,0.178-0.541,0.317
		c-0.111,0.101-0.186,0.228-0.288,0.334c-0.284,0.3-0.637,0.555-0.961,0.811c-0.644,0.512-1.315,0.992-2.004,1.444
		c-1.388,0.902-2.847,1.683-4.325,2.416c-1.94,0.959-3.756,2.04-5.719,2.918c-0.745,0.332-1.316,0.982-2.118,1.223
		c-0.752,0.227-1.543,0.426-2.333,0.541c-0.925,0.141-1.895,0.258-2.832,0.295c-0.702,0.029-1.691,0-2.252,0.436
		c-0.243,0.191-0.435,0.453-0.675,0.639c-0.335,0.262-0.726,0.43-1.065,0.672c-0.529,0.373-1.051,0.826-1.586,1.184
		c-0.354,0.234-0.437,0.506-0.706,0.783c-0.119,0.127-0.845,0.301-0.864,0.416c-0.024,0.141-0.019,0.297,0.017,0.434
		c0.31,0.139,0.993,0.178,1.327,0.039c0.313-0.131,0.452-0.475,0.723-0.66c0.278-0.191,0.519-0.311,0.786-0.557
		c0.929-0.852,1.649,0.277,2.565,0.428c0.73,0.119,1.202-0.305,1.862-0.428c0.787-0.146,0.819-0.043,1.563,0.178
		c1.159,0.34,1.714,0.324,2.742-0.381c1.107-0.76,1.937-1.611,3.246-2.016c1.151-0.357,2.36-0.457,3.485-0.912
		c2.63-1.064,5.186-2.004,7.853-3.277c2.898-1.381,5.635-2.614,8.13-4.727c0.504-0.424,1.016-0.837,1.54-1.235
		c0.715-0.545,1.45-1.064,2.204-1.549c0.721-0.464,1.464-0.761,2.302-0.913c0.325-0.058,0.66-0.184,0.99-0.267
		c0.29-0.074,0.581-0.138,0.869-0.209c0.132-0.034,0.268-0.036,0.4-0.068c0.142-0.034,0.277-0.062,0.416-0.089
		c0.177-0.032,0.362-0.116,0.537-0.166c0.218-0.064,0.428-0.142,0.641-0.225c0.985-0.379,1.993-0.669,2.938-1.142
		c0.339-0.171,0.699-0.318,1.054-0.448c0.406-0.149,0.789-0.378,1.172-0.575c0.403-0.205,0.799-0.432,1.203-0.636
		c0.312-0.159,0.622-0.313,0.912-0.512c0.578-0.397,1.183-0.744,1.742-1.17c0.303-0.229,0.608-0.444,0.921-0.655
		c0.299-0.203,0.545-0.497,0.82-0.733c0.435-0.375,0.89-0.718,1.316-1.1c0.24-0.214,0.493-0.404,0.736-0.615
		c0.234-0.198,0.418-0.452,0.651-0.648c0.357-0.305,0.646-0.667,0.961-1.016C68.787,56.712,68.95,56.54,69.108,56.363z"/>
	<path fill="#245977" d="M99.977,44.484c1.136,0.21,1.988,1.124,2.591,2.082c0.298,0.474,0.588,0.971,0.677,1.532
		c0.096,0.604,0.169,1.218,0.386,1.794c0.14,0.368,0.462,1.39,0.868,1.477c-0.171,0.443-0.039,1.089-0.021,1.57
		c0.024,0.569,0.165,0.807,0.339,1.279c0.353,0.064,0.593-0.113,0.867-0.284c-0.107,0.288-0.469,0.505-0.66,0.755
		c-0.556,0.729-0.665,1.956-0.82,2.845c-0.141,0.799-0.083,1.82,0.369,2.507c0.435,0.658,1.203,0.702,1.938,0.766
		c0.938,0.082,1.646-0.591,2.316-1.14c1.773-1.448,3.281-3.411,4.47-5.377c0.769-1.271,1.52-2.51,2.496-3.632
		c0.592-0.68,1.233-1.452,1.632-2.274c0.592-1.218,0.667-2.403,0.615-3.729c-0.042-1.078-0.116-1.864-0.676-2.786
		c-0.548-0.901-0.866-2.002-1.315-2.963c-0.932-1.999-2.014-3.932-3.298-5.716c-1.979-2.749-3.764-4.811-7.086-5.524
		c-1.838-0.395-3.71-0.371-5.589-0.475c-5.085-0.277-10.894,0.936-15.254,3.717c-3.478,2.222-6.211,5.042-8.674,8.267
		c-2.291,3.002-1.978,6.289-2.227,9.813c-0.138,1.93-0.497,3.837-0.928,5.716c-0.159,0.696-0.388,1.388-0.407,2.105
		c-0.026,0.945,0.349,1.745,0.812,2.539c0.299,0.516,0.585,1.144,1.012,1.568c0.778,0.781,2.054,1.307,3.126,1.453
		c0.373,0.051,0.784,0.071,1.141-0.068c0.323-0.124,0.61-0.169,0.933-0.264c0.348-0.103,0.672-0.255,1.007-0.388
		c0.786-0.303,1.546-1.058,1.786-1.901c0.461-1.616,1.074-3.581,2.498-4.532c1.636-1.096,2.959-1.936,3.862-3.817
		c0.663-1.385,1.842-2.491,2.87-3.587c1.257-1.34,1.951-2.494,3.802-2.979C96.75,44.491,98.585,44.227,99.977,44.484z"/>
	<path d="M71.722,65.385c0.169,0.304,0.318,0.604,0.52,0.896c0.361,0.524,0.74,0.963,1.183,1.421
		c0.238,0.247,0.522,0.663,0.893,0.63c0.987-0.089,1.889-0.612,2.683-1.224c0.479-0.369,0.998-0.753,1.397-1.204
		c0.389-0.438,0.848-0.829,1.184-1.314c0.359-0.512,0.76-0.977,1.194-1.421c0.934-0.952,1.969-1.803,2.842-2.819
		c2.525-2.946,3.691-6.205,7.786-7.166c0.41-0.096,0.873-0.31,1.291-0.292c0.528,0.022,1.049,0.163,1.567,0.257
		c0.812,0.146,1.486,0.588,2.218,0.938c0.413,0.197,0.861,0.498,1.196,0.816c0.394,0.371,0.861,0.618,1.305,0.935
		c0.327,0.231,0.664,0.455,0.959,0.738c0.152,0.145,0.351,0.43,0.528,0.51c0.205-0.513,0.692-0.96,1.048-1.351
		c0.354-0.391,0.8-0.811,1.026-1.301c0.21-0.459,0.337-1,0.477-1.489c0.306-1.067,0.545-2.155,0.908-3.203
		c0.623-1.793,1.349-3.535,2.151-5.284c0.947-2.07,1.729-4.087,2.78-6.089c1.012-1.926,2.283-3.833,3.223-5.806
		c0.301-0.627,0.854-1.513,0.973-2.19c0.352-2.004-1.622-3.233-2.889-4.403c-1.624-1.504-3.712-1.658-5.764-2.21
		c-2.014-0.543-4.051-1.116-6.102-1.093c-4.451,0.058-9.034,0.166-13.076,1.891c-2.136,0.911-4.043,1.751-5.985,3.1
		c-1.896,1.318-3.412,2.858-5.039,4.526c-2.738,2.805-3.708,6.71-5.016,10.327c-1.293,3.573-0.771,7.874-1.12,11.654
		c-0.087,0.938-0.144,1.884-0.106,2.826c0.051,1.308,0.235,2.759,0.987,3.854c0.323,0.471,0.57,0.936,0.792,1.465
		c0.278,0.674,0.727,1.229,1.122,1.828c0.244,0.37,0.553,0.711,0.779,1.098C71.665,65.284,71.694,65.333,71.722,65.385z"/>
	<g>
		<path fill="#FFFFFF" d="M99.499,52.477c0.089-0.039,0.116-0.124,0.074-0.211c-0.884-1.852-2.147-3.452-3.236-5.174
			c1.674-1.102,3.691-1.478,5.313-2.679c0.049-0.038,0.078-0.103,0.058-0.164c-0.793-2.341-2.899-3.906-3.671-6.245
			c1.905-0.346,3.837-0.53,5.729-0.972c0.092-0.022,0.11-0.137,0.072-0.211c-1.183-2.318-2.981-4.307-3.611-6.893
			c2.616-1.032,5.545-1.249,7.979-2.743c0.074-0.046,0.084-0.165,0.019-0.223c-1.373-1.197-3.131-2.043-4.414-3.364
			c0.197,0.054,0.396,0.106,0.592,0.16c2.052,0.552,4.14,0.706,5.764,2.21c1.267,1.17,3.24,2.399,2.889,4.403
			c-0.118,0.678-0.672,1.563-0.973,2.19c-0.939,1.973-2.211,3.88-3.223,5.806c-1.051,2.002-1.833,4.019-2.78,6.089
			c-0.803,1.749-1.528,3.491-2.151,5.284c-0.363,1.048-0.603,2.136-0.908,3.203c-0.14,0.489-0.267,1.03-0.477,1.489
			c-0.227,0.49-0.673,0.91-1.026,1.301c-0.355,0.391-0.843,0.838-1.048,1.351c-0.178-0.08-0.376-0.365-0.528-0.51
			c-0.295-0.283-0.632-0.507-0.959-0.738c-0.443-0.316-0.911-0.563-1.305-0.935c-0.335-0.318-0.783-0.619-1.196-0.816
			c0,0-0.001-0.001-0.004-0.002C97.497,53.578,98.464,52.95,99.499,52.477z"/>
		<path fill="#FFFFFF" d="M92.482,52.901c-1.273-1.63-3.214-2.547-4.607-4.076c1.14-0.902,2.264-1.902,3.644-2.381
			c0.094-0.034,0.134-0.17,0.051-0.239c-1.32-1.111-2.959-1.684-4.479-2.441c1.468-1.102,2.827-2.611,4.644-3.041
			c0.104-0.026,0.119-0.171,0.05-0.24c-1.264-1.278-2.56-2.525-3.701-3.925c1.288-0.978,2.904-2.033,4.536-2.05
			c0.133-0.001,0.185-0.209,0.058-0.266c-1.304-0.586-2.701-0.935-3.972-1.601c1.548-1.255,3.397-2.376,5.36-2.689
			c0.133-0.02,0.185-0.191,0.059-0.266c-1.509-0.899-3.127-1.556-4.744-2.211c1.911-1.038,3.73-2.326,5.865-2.821
			c0.111-0.027,0.129-0.215,0.021-0.261c-1.245-0.53-2.524-0.956-3.804-1.389c2.255-0.265,4.562-0.309,6.838-0.339
			c0.541-0.005,1.079,0.033,1.616,0.099c1.018,1.291,2.261,2.36,3.486,3.439c-0.691,0.413-1.55,0.647-2.3,0.91
			c-0.716,0.254-1.435,0.497-2.136,0.784c-0.718,0.296-2.381,0.808-2.414,1.823c-0.04,1.134,0.92,2.317,1.542,3.162
			c0.703,0.958,1.477,1.854,2.205,2.789c-1.785,0.018-3.612,0.269-5.263,0.984c-0.071,0.032-0.11,0.099-0.089,0.178
			c0.63,2.325,2.719,3.77,3.73,5.885c-1.068,0.277-2.149,0.618-3.139,1.118c-0.782,0.398-1.609,0.988-1.34,2.025
			c0.373,1.444,1.521,2.673,2.175,3.994c0.298,0.603,0.65,1.45,0.117,2.039c-0.313,0.348-0.674,0.637-1.031,0.938
			c-0.159,0.135-0.4,0.296-0.618,0.475c-0.188-0.069-0.379-0.125-0.581-0.16c-0.519-0.094-1.039-0.234-1.567-0.257
			C92.624,52.888,92.553,52.894,92.482,52.901z"/>
		<path fill="#FFFFFF" d="M88.697,52.378c0.511,0.401,1.04,0.803,1.597,1.146c-0.487,0.189-0.921,0.418-1.324,0.677
			c-0.131-0.425-0.275-0.845-0.447-1.25c-0.032-0.076-0.095-0.11-0.173-0.092c-1.395,0.325-2.787,0.608-4.084,1.236
			c-0.386-1.524-0.544-3.079-0.613-4.649c-0.005-0.106-0.123-0.171-0.212-0.112c-0.493,0.323-0.979,0.663-1.469,0.994
			c0.358-1.429,0.365-2.925,0.713-4.362c0.03-0.128-0.108-0.203-0.21-0.151c-0.539,0.288-1.024,0.664-1.55,0.974
			c0.089-2.1,0.191-4.225,0.896-6.217c0.044-0.121-0.115-0.215-0.207-0.151c-0.843,0.584-1.622,1.254-2.418,1.897
			c0.086-2.159,0.202-4.314,0.611-6.438c0.02-0.1-0.076-0.209-0.177-0.167c-1.177,0.48-2.226,1.209-3.337,1.817
			c1.062-1.891,1.677-4.016,1.781-6.204c0.005-0.098-0.101-0.151-0.179-0.131c-1.462,0.399-2.844,1.029-4.247,1.596
			c0.176-0.207,0.357-0.411,0.551-0.608c1.627-1.668,3.143-3.208,5.039-4.526c1.942-1.349,3.85-2.188,5.985-3.1
			c0.72-0.309,1.459-0.561,2.21-0.774c0.724,0.439,1.41,0.958,2.089,1.428c-1.282,0.825-2.663,1.438-4.065,2.017
			c-0.118,0.049-0.118,0.189-0.021,0.26c1.234,0.897,2.597,1.575,3.877,2.396c-1.311,0.583-2.658,1.087-3.882,1.854
			c-0.07,0.045-0.088,0.169-0.02,0.225c0.977,0.758,1.94,1.58,3.095,2.021c-0.945,0.455-1.89,0.899-2.897,1.198
			c-0.085,0.025-0.122,0.137-0.073,0.212c0.118,0.183,0.251,0.356,0.389,0.528c0.84,1.395,1.879,2.647,2.859,3.938
			c0.188,0.247-0.295,0.605-0.478,0.835c-0.22,0.274-0.438,0.552-0.659,0.824c-0.178,0.218-0.355,0.439-0.542,0.656
			c-0.068,0.048-0.136,0.099-0.195,0.145c-0.678,0.522-1.377,1.013-2.062,1.524c-0.07,0.051-0.09,0.162-0.018,0.223
			c1.203,1.054,2.483,2.445,4.066,2.875c-1.075,0.776-2.099,1.627-3.184,2.391c-0.077,0.056-0.078,0.154-0.019,0.224
			C86.597,50.592,87.625,51.531,88.697,52.378z"/>
		<path fill="#FFFFFF" d="M71.342,48.653c-0.01-0.111-0.118-0.167-0.211-0.114c-0.359,0.204-0.718,0.408-1.079,0.61
			c-0.208-0.088-0.445-0.094-0.717,0.023c-0.458,0.196-0.813,0.575-1.112,0.993c0.045-2.63,0.108-5.302,0.96-7.656
			c0.779-2.153,1.438-4.404,2.421-6.469c1.302-0.091,2.499-0.681,3.784-0.884c-0.213,2.183-0.704,4.323-1.34,6.414
			c-0.027,0.098,0.085,0.209,0.178,0.167c1.214-0.548,2.069-1.583,3.084-2.42c0.068,2.279-0.067,4.557,0.018,6.836
			c0.004,0.089,0.096,0.159,0.18,0.128c0.583-0.21,1.029-0.585,1.476-0.992c-0.153,2.104-0.147,4.214-0.062,6.321
			c0.006,0.137,0.203,0.195,0.26,0.062c0.357-0.83,0.957-1.425,1.631-1.966c-0.553,1.506-0.441,3.134-0.676,4.72
			c-0.021,0.137,0.135,0.236,0.235,0.128c0.578-0.633,1.21-1.206,1.832-1.792c0.368,1.392,0.451,2.84,0.768,4.243
			c0.021,0.094,0.134,0.116,0.204,0.074c1.027-0.586,2.044-1.171,3.15-1.577c0.122,0.269,0.238,0.54,0.358,0.807
			c-1.016,1.24-1.896,2.673-3.066,4.04c-0.287,0.334-0.594,0.649-0.905,0.958c-0.436-1.348-0.775-2.736-1.764-3.793
			c-0.046-0.05-0.112-0.041-0.167-0.016c-1.1,0.538-1.743,1.584-2.513,2.506c-0.912-1.861-0.723-4.066-1.432-6.002
			c-0.034-0.089-0.126-0.12-0.207-0.075c-0.583,0.325-3.385,3.572-3.836,2.91c-0.41-0.604-0.575-1.422-0.747-2.128
			C71.927,52.677,71.528,50.68,71.342,48.653z"/>
		<path fill="#FFFFFF" d="M68.164,52.583c0.337-0.137,0.629-0.394,0.877-0.028c0.528,0.776,0.93,1.623,1.271,2.502
			c0.607,1.564,1.101,3.193,2.054,4.582c0.046,0.066,0.121,0.079,0.189,0.042c0.906-0.487,1.745-1.099,2.677-1.537
			c0.416,1.651,0.585,3.429,1.549,4.869c0.04,0.061,0.128,0.087,0.189,0.042c1.239-0.923,2.31-2.197,3.82-2.642
			c0.235,0.669,0.533,1.326,0.761,2c-0.262,0.25-0.522,0.498-0.775,0.756c-0.435,0.444-0.835,0.909-1.194,1.421
			c-0.336,0.485-0.795,0.876-1.184,1.314c-0.399,0.451-0.918,0.835-1.397,1.204c-0.794,0.611-1.695,1.135-2.683,1.224
			c-0.37,0.033-0.654-0.383-0.893-0.63c-0.442-0.458-0.821-0.896-1.183-1.421c-0.201-0.292-0.351-0.593-0.52-0.896
			c-0.028-0.052-0.058-0.101-0.085-0.15c-0.227-0.387-0.535-0.728-0.779-1.098c-0.396-0.6-0.844-1.154-1.122-1.828
			c-0.222-0.529-0.469-0.994-0.792-1.465c-0.752-1.095-0.937-2.546-0.987-3.854c-0.037-0.942,0.02-1.888,0.106-2.826
			C68.112,53.647,68.142,53.116,68.164,52.583z"/>
	</g>
	<path fill="#245977" d="M67.347,77.452c0.002,0.02,0.002,0.039,0.003,0.059"/>
	<path d="M117.672,43.025c-0.204,0.157-0.287,0.469-0.426,0.713c-0.138,0.246-0.348,0.468-0.499,0.714
		c-0.206,0.335-0.426,0.663-0.63,0.999c-0.421,0.696-0.821,1.387-1.279,2.06c-0.796,1.174-1.659,2.274-2.521,3.399
		c-0.662,0.864-1.282,1.771-1.992,2.6c-0.784,0.914-1.635,1.772-2.492,2.613c-0.941,0.926-1.764,1.937-2.809,2.74
		c-0.355,0.276-0.657,0.458-1.057,0.654c-0.305,0.148-0.215,0.201-0.064,0.479c0.156,0.287,0.257,0.651,0.361,0.961
		c0.428,1.285,0.711,2.649,1.02,3.948c0.023,0.102,0.021,0.193,0.062,0.291c-0.167-0.083-0.344-0.213-0.523-0.273
		c-0.25-0.085-0.549-0.034-0.815-0.023c-0.746,0.031-1.46,0.12-2.193,0.226c-0.675,0.097-1.408,0.146-2.081,0.193
		c-1.044,0.073-2.095,0.089-3.142,0.134c-3.11,0.129-6.223,0.252-9.326,0.454c-1.214,0.077-2.431,0.203-3.63,0.432
		c-0.78,0.147-1.573,0.265-2.351,0.429c-1.651,0.35-3.341,0.511-4.997,0.851c-2.329,0.479-4.438,1.421-6.528,2.521
		c-0.979,0.518-2.016,0.938-2.972,1.498c-0.483,0.284-1.013,0.484-1.447,0.853c-0.351,0.303-0.688,0.584-1.005,0.9
		c-0.421,0.416-0.921,0.783-1.243,1.295c-0.271,0.428-0.506,0.889-0.727,1.361c-0.325,0.686-0.405,1.275-0.509,1.994
		c-0.105,0.73,0.146,1.215,0.621,1.785c1.035,1.242,3.113,1.51,4.585,1.766c1.19,0.207,2.392,0.293,3.581,0.508
		c0.574,0.104,1.146,0.102,1.726,0.162c0.8,0.078,1.606,0.213,2.41,0.203c1.983-0.02,3.96-0.18,5.94-0.195
		c1.862-0.014,3.735,0.152,5.598,0.07c2.432-0.111,4.87-0.088,7.304-0.189c2.169-0.092,4.341-0.242,6.507-0.168
		c2.457,0.082,4.909,0.168,7.365,0.064c2.129-0.092,4.255-0.238,6.382-0.33c1.837-0.076,3.684-0.172,5.518-0.1
		c1.919,0.076,3.861,0.021,5.771,0.24c0.814,0.094,1.648,0.078,2.441,0.242c0.452,0.094,1.053,0.193,1.52,0.105
		c0.048-0.732-0.221-1.539-0.52-2.193c-0.28-0.619-0.498-1.268-0.748-1.904c-0.236-0.604-0.507-1.189-0.672-1.822
		c-0.129-0.49-0.276-0.959-0.333-1.455c-0.054-0.446-0.22-0.862-0.233-1.315c-0.012-0.342-0.089-0.66-0.1-1.002
		c-0.013-0.33-0.162-0.631-0.165-0.944c-0.204,0.014-0.426-0.12-0.633-0.149c-0.337-0.048-0.668-0.014-1.007-0.044
		c-1.113-0.099-2.212,0.002-3.326,0.139c-2.78,0.346-5.587,0.428-8.398,0.547c-1.808,0.076-3.61,0.237-5.41,0.405
		c-0.922,0.084-1.851,0.164-2.77,0.283c-1.114,0.148-2.261,0.074-3.375,0.229c-1.113,0.156-2.264,0.182-3.384,0.246
		c-0.964,0.055-1.925,0.143-2.894,0.184c-1.039,0.043-2.079,0.088-3.119,0.133c-1.233,0.053-2.465,0.229-3.695,0.275
		c-4.44,0.166-8.876,0.562-13.313,0.736c0.268-0.033,0.547-0.166,0.826-0.215c0.522-0.09,1.078-0.008,1.604-0.078
		c0.746-0.102,1.5-0.064,2.249-0.139c0.989-0.098,1.971-0.24,2.958-0.367c2.076-0.268,4.161-0.578,6.251-0.742
		c1.024-0.08,2.059-0.172,3.081-0.291c0.606-0.07,1.216-0.096,1.818-0.166c0.648-0.074,1.306-0.064,1.954-0.141
		c1.988-0.24,4.031-0.217,6.034-0.302c1.829-0.074,3.647-0.215,5.474-0.29c1.755-0.069,3.51-0.267,5.271-0.339
		c1.528-0.065,3.058-0.188,4.588-0.253c1.995-0.085,3.976-0.036,5.964-0.132c0.524-0.024,1.067,0.08,1.6-0.021
		c0.162-0.03,0.4-0.116,0.539-0.232c0.198-0.166,0.194-0.407,0.191-0.683c-0.014-1.172-0.08-2.351-0.317-3.476
		c-0.159-0.744-0.403-1.503-0.604-2.244c-0.134-0.491-0.237-0.991-0.381-1.478c-0.175-0.589-0.355-1.187-0.498-1.782
		c-0.516-2.143-1.214-4.232-1.734-6.372c-0.471-1.94-0.861-3.92-1.359-5.829c-0.368-1.416-0.604-2.874-1.18-4.239
		c-0.229-0.539-0.46-1.081-0.749-1.583c-0.167-0.286-0.499-1.034-0.822-0.543c-0.108,0.164-0.133,0.261-0.11,0.468"/>
	<path fill="#245977" d="M99.51,62.364c0.135,0.065,0.272,0.122,0.415,0.164c1.052,0.306,1.662,1.088,2.378,1.901
		c0.369,0.42,0.954,0.913,1.165,1.446c0.14,0.354,0.135,0.903,0.103,1.289c-0.865,0.253-1.415,0.907-2.21,1.299
		c-1.047,0.517-2.198,0.809-3.328,1.107c-2.207,0.59-4.241,1.443-6.509,1.727c-1.209,0.151-2.41,0.383-3.64,0.424
		c-1.059,0.036-2.107,0.181-3.151,0.217c-1.979,0.071-3.837,0.619-5.81,0.695c-1.079,0.043-2.147,0.377-3.228,0.293
		c-0.425-0.033-0.846-0.039-1.286-0.021c-0.942,0.037-1.934,0.008-2.81,0.299c-0.613,0.203-1.526,0.625-1.834,1.285
		c-0.147,0.319-0.203,0.75-0.139,1.106c0.056,0.289,0.267,0.514,0.344,0.789c0.082,0.291,0.118,0.508,0.244,0.795
		c0.11,0.256,0.357,0.832,0.23,1.121c-0.246,0.559-0.941-0.176-1.135-0.43c-0.169-0.223-0.357-0.469-0.466-0.732
		c-0.099-0.242-0.078-0.477-0.179-0.715c-0.141-0.336-0.587-0.678-0.955-0.527c-0.595,0.244-0.758,1.42-0.65,1.971
		c0.142,0.725,1.397,1.898,0.861,2.703c-0.64,0.957-1.307-1.576-1.393-1.936c-0.077-0.334-0.24-0.754-0.495-1.006
		c-0.468-0.465-0.649,0.006-0.679,0.492c-0.032,0.518-0.228,0.963-0.219,1.506c0.01,0.52,0.089,1.059,0.049,1.572
		c-0.296,0.084-0.679-0.449-0.811-0.701c-0.217-0.414-0.153-0.979-0.162-1.432c-0.003-0.262,0.078-0.912-0.116-1.129
		c-0.245-0.277-0.278,0.295-0.298,0.508c-0.027,0.336,0.047,0.688-0.284,0.898c-0.456,0.283-0.479-0.221-0.499-0.57
		c-0.026-0.465,0.05-0.77,0.275-1.189c0.362-0.678,0.689-1.328,0.934-2.031c0.285-0.83,0.595-1.602,1.153-2.276
		c0.447-0.537,0.925-0.919,1.431-1.398c0.549-0.52,1.061-0.861,1.801-1.083c1.602-0.479,3.243-0.892,4.846-1.293
		c0.852-0.21,1.775-0.414,2.626-0.754c0.8-0.325,1.675-0.417,2.48-0.749c0.993-0.405,2.126-0.51,3.076-0.964
		c0.541-0.257,1.178-0.599,1.793-0.495c0.833,0.141,1.663-0.2,2.511-0.345c0.514-0.089,0.999-0.314,1.526-0.346
		c0.501-0.029,0.958-0.162,1.45-0.248c0.887-0.157,1.798-0.35,2.707-0.382c0.438-0.017,0.916-0.094,1.354-0.055
		c0.334,0.031,0.694,0.201,1.066,0.15c-0.926-0.302-1.932-0.631-2.743-1.229c-0.432-0.317-0.858-0.641-1.31-0.932
		c-0.389-0.251-0.735-0.484-1.101-0.748c-0.453-0.326-1.088-0.466-1.584-0.729c-0.234-0.122-0.424-0.318-0.657-0.448
		c-0.32-0.179-0.689-0.282-1.025-0.432c-0.428-0.188-0.862-0.353-1.3-0.502c-0.845-0.288-1.59-0.613-2.464-0.84
		c-2.094-0.551-4.165-0.833-5.839-2.37c-0.79-0.725-1.72-1.327-2.237-2.289c-0.491-0.908-0.978-2.128-0.652-3.179
		c0.319-1.028,1.111-1.897,2.042-2.373c1.086-0.554,2.103-0.499,3.274-0.521c1.039-0.021,2.086,0.44,3.026,0.839
		c0.569,0.244,1.147,0.633,1.601,1.055c0.49,0.456,1.09,0.745,1.597,1.178c0.967,0.822,1.911,1.627,2.803,2.537
		c0.837,0.858,2.008,1.456,2.92,2.269c0.876,0.783,1.889,1.36,2.871,2.011c1.085,0.719,2.188,1.386,3.324,2.017
		c0.585,0.324,1.165,0.661,1.735,1.008C98.719,61.876,99.098,62.163,99.51,62.364z"/>
	<path fill="#245977" d="M61.009,76.849c0.072-0.045,0.143-0.088,0.218-0.123c0.455-0.229,0.926-0.461,1.346-0.773
		c1.372-1.016,2.646-2.145,4.083-3.077c0.425-0.275,0.893-0.494,1.327-0.757c0.555-0.342,1.167-0.627,1.668-1.045
		c0.714-0.597,1.518-1.078,2.23-1.686c0.515-0.438,1.05-0.844,1.588-1.248c0.273-0.206,0.548-0.41,0.82-0.618
		c0.194-0.147,0.631-0.361,0.662-0.625c0.01-0.089,0.028-0.163,0.026-0.256c-0.004-0.181-0.06-0.359-0.116-0.529
		c-0.21-0.646-0.54-1.246-0.828-1.856c-0.374-0.797-0.882-1.652-1.611-2.146c-0.343-0.232-0.722-0.443-1.079-0.644
		c-0.316-0.177-0.691-0.385-1.058-0.448c-0.293-0.053-0.478-0.118-0.743,0.033c-0.116,0.066-0.27,0.107-0.37,0.189
		c-0.409,0.339-0.871,0.788-1.362,1.047c-1.246,0.657-2.339,0.144-3.398-0.714c-0.764-0.617-1.566-1.478-2.522-1.754
		c-0.88-0.254-1.816-0.553-2.729-0.613c-1.659-0.11-3.188,0.34-4.285,1.544c-1.438,1.582-2.135,2.737-2.742,4.802
		c-0.44,1.491-0.647,3.685-1.529,4.981c-0.714,1.046-1.955,1.752-1.658,3.271c0.129,0.668,0.441,1.02,1.137,1.098
		c0.363,0.041,0.748-0.086,1.112-0.061c0.221,0.016,0.49,0.1,0.674,0.209c0.738-0.336,1.44,1.166,2.121,1.301
		c0.056,0.305-0.119,0.758-0.017,1.006c0.539,0.129,0.965,0.588,1.482,0.783c0.671,0.254,1.516,0.529,2.22,0.4
		c0.646-0.117,1.346-0.551,1.966-0.863c0.125-0.062,0.294-0.104,0.406-0.184c0.094-0.07,0.114-0.186,0.195-0.262
		c0.091-0.086,0.23-0.078,0.329-0.123C60.72,77.038,60.863,76.938,61.009,76.849z"/>
	<path fill="#FFFFFF" d="M54.043,68.819c-0.124,0.109-0.231,0.291-0.38,0.414c-0.142,0.12-0.309,0.204-0.479,0.272
		c-0.337,0.137-0.665,0.26-0.997,0.408c-0.181,0.082-0.731,0.3-0.919,0.163c-0.189-0.139-0.042-0.562,0.017-0.729
		c0.089-0.258,0.156-0.535,0.372-0.723c0.184-0.156,0.483-0.248,0.722-0.228c0.314,0.028,0.68,0.171,0.991,0.253
		c0.248,0.065,0.486,0.134,0.74,0.134c-0.113,0.508-0.622,0.521-0.989,0.752"/>
	<path d="M54.058,68.329c-0.247,0.23-0.527,0.15-0.845,0.158c-0.263,0.004-0.489-0.05-0.752-0.099
		c-0.271-0.051-0.553-0.105-0.815-0.199c-0.176-0.063-0.436-0.251-0.605-0.242c-0.069,0.277,0.272,0.58,0.462,0.715
		c0.319,0.236,0.704,0.264,1.086,0.285c0.284,0.016,0.681,0.037,0.946-0.06c0.091-0.032,0.56-0.285,0.54-0.038
		c-0.039,0.01-0.097,0.021-0.141,0.013"/>
	<path d="M52.442,69.184c0.008,0.054,0.013,0.106,0.015,0.155c0.026,0.398-0.029,0.848-0.483,0.927
		c-0.383,0.065-0.821-0.287-0.861-0.677c-0.041-0.411,0.516-0.888,0.869-0.948C52.301,68.585,52.406,68.905,52.442,69.184z"/>
	<path d="M53.93,68.786c0.058,0.188-0.276,0.42-0.417,0.508c-0.202,0.126-0.434,0.218-0.652,0.32c-0.36,0.163-0.812,0.278-1.18,0.13
		c0.098,0.075,0.156,0.192,0.262,0.258c0.102,0.064,0.26,0.089,0.368,0.096c0.337,0.026,0.662-0.062,0.977-0.146
		c0.526-0.139,0.795-0.75,0.707-1.276c-0.041-0.003-0.1-0.013-0.141,0.002"/>
	<path d="M55.871,75.784c-0.167,0.217-0.678,0.295-0.938,0.305c-0.362,0.014-0.679,0.041-1.018-0.076
		c-0.255-0.092-0.517-0.246-0.75-0.387c-0.182-0.109-0.335-0.432-0.603-0.336c0.007,0.174,0.175,0.438,0.275,0.586
		c0.181,0.266,0.502,0.529,0.825,0.574c0.021,0.072-0.032,0.123-0.06,0.182c-0.058,0.127-0.071,0.188-0.062,0.336
		c0.016,0.172,0.057,0.328,0.2,0.426c0.271,0.178,0.796,0.102,1.065-0.023c0.352-0.164,0.551-0.568,0.837-0.818
		c0.181-0.16,0.365-0.336,0.606-0.369c0.121-0.016,0.518-0.074,0.609,0.018c-0.057-0.068-0.22-0.053-0.278,0.008"/>
	<path d="M52.102,65.99c-0.009,0.039,0.709,0.245,0.932,0.313c0.65,0.2,1.282,0.399,1.917,0.662
		c1.075,0.445,2.131,0.868,3.232,1.205c0.356,0.108,0.517,0.124,0.819-0.084c0.379-0.259,0.728-0.508,1.119-0.73
		c0.238-0.136,0.596-0.526,0.842-0.584c0.347-0.084,0.685,0.449,0.919,0.69c0.348,0.356,0.667,0.739,0.994,1.099
		c0.242,0.265,0.577,0.778,0.923,0.631c0.117-0.052,0.284-0.3,0.446-0.382c0.128-0.064,0.335-0.115,0.449-0.206
		c0.288-0.228,0.172-0.766,0.047-1.065c-0.304-0.729-0.566-1.527-0.076-2.242c0.406-0.591,1.024-1.095,1.521-1.604
		c0.267-0.271,0.516-0.453,0.464-0.864c-0.056-0.483-0.48-0.854-0.76-1.217c-0.7-0.917-1.627-1.726-2.487-2.475
		c-1.016-0.884-2.192-1.394-3.472-1.697c-1.038-0.246-2.227,0.053-3.213,0.303c-2.16,0.545-4.167,2.193-5.225,4.192
		c-0.454,0.861-0.408,1.626-0.368,2.587c0.033,0.823-0.004,1.391,0.799,1.689c0.132,0.048,0.243,0.115,0.378,0.148"/>
	<path fill="#245977" d="M127.65,80.917c-0.229-0.047-0.423-0.068-0.653-0.047c-0.272,0.025-0.54-0.023-0.811-0.047
		c-0.334-0.029-0.668-0.049-1.002-0.059c-0.879-0.527-0.512-2.252-0.333-3.059c0.143-0.646,0.231-1.486,0.717-1.986
		c0.387-0.395,1.183-0.295,1.692-0.172c0.446,0.109,0.959,0.264,1.386,0.32c0.486,0.066,0.948-0.014,1.399,0.113
		c0.455,0.129,1.259,0.295,1.663-0.045c0.377-0.316,0.387-0.967,0.651-1.358c0.104-0.15,0.255-0.275,0.399-0.387
		c0.191-0.148,0.427-0.236,0.66-0.297c0.289-0.078,0.599-0.15,0.896-0.146c0.28,0.006,0.61,0.264,0.834,0.404
		c0.905,0.573,1.591,1.42,2.234,2.266c0.387,0.508,0.797,0.951,1.317,1.33c0.463,0.334,1.084,0.406,1.637,0.518
		c0.685,0.139,1.396,0.164,2.094,0.172c0.227,0.004,0.452,0.014,0.675-0.008c0.224-0.021,0.448-0.051,0.674-0.066
		c0.286-0.02,0.679-0.113,0.945,0.037c0.09,0.051,0.154,0.176,0.161,0.279c0.011,0.137-0.076,0.199-0.18,0.262
		c-0.134,0.08-0.237,0.145-0.35,0.256c-0.069,0.068-0.16,0.221-0.122,0.328c0.057,0.162,0.503,0.109,0.637,0.078
		c0.217-0.049,0.48-0.121,0.702-0.064c0.232,0.057,0.504,0.314,0.386,0.576c-0.124,0.273-0.693,0.201-0.923,0.223
		c-0.238,0.023-0.521,0.1-0.536,0.393c-0.016,0.305,0.439,0.35,0.65,0.309c0.306-0.061,0.637-0.096,0.929,0.027
		c0.219,0.09,0.408,0.184,0.485,0.426c0.067,0.211,0.095,0.477,0.049,0.701c-0.062,0.295-0.243,0.512-0.488,0.662
		c-0.443,0.271-0.914,0.16-1.398,0.062c-0.273-0.057-0.49-0.174-0.724-0.324c-0.188-0.121-0.407-0.217-0.584-0.355
		c-0.29-0.227-0.662-0.4-1.009-0.521c-0.283-0.098-0.67-0.084-0.967-0.061c-0.406,0.031-0.812,0.092-1.21,0.184
		c-0.469,0.107-0.979,0.107-1.46,0.154c-0.363,0.035-0.739,0.043-1.104,0.037c-0.346-0.006-0.689-0.064-1.035-0.066
		c-0.468,0-0.915,0.111-1.386,0.068c-0.567-0.053-1.132-0.102-1.701-0.125c-0.6-0.027-1.202-0.051-1.798-0.141
		c-0.727-0.109-1.448-0.25-2.172-0.395c-0.354-0.07-0.708-0.137-1.061-0.207C128.229,81.11,127.961,80.981,127.65,80.917z"/>
</g>
</svg>
