<?xml version="1.0" encoding="utf-8"?>
<!-- Generator: Adobe Illustrator 16.0.4, SVG Export Plug-In . SVG Version: 6.00 Build 0)  -->
<!DOCTYPE svg PUBLIC "-//W3C//DTD SVG 1.1//EN" "http://www.w3.org/Graphics/SVG/1.1/DTD/svg11.dtd">
<svg version="1.1" id="Ebene_1" xmlns="http://www.w3.org/2000/svg" xmlns:xlink="http://www.w3.org/1999/xlink" x="0px" y="0px"
	 width="283.46px" height="425.2px" viewBox="0 0 283.46 425.2" enable-background="new 0 0 283.46 425.2" xml:space="preserve">
<g>
	<path fill="#245977" d="M152.155,61.159c0,0-3.57-6.499-7.415-4.13c-3.849,2.372-11.545,8.693-11.545,8.693
		s0.906,11.54,4.196,15.338c3.288,3.802,10.683,5.641,10.683,5.641l12.072-9.041l-0.893-6.144L152.155,61.159z"/>
	<path fill="#FF0000" d="M135.88,79.559c0.257,0.268-7.249-9.073-10.417-13.958c-3.308-5.101-7.639-10.493-5.351-14.549
		c1.851-3.274,9.428-1.866,14.961-0.297c5.538,1.574,15.153,7.629,15.153,7.629s-6.521-0.624-11.717,5.92
		C135.387,68.24,134.93,78.578,135.88,79.559z"/>
	<path fill="#FFFFFF" d="M134.469,77.999c-1.199-1.955-1.24-5.112-1.19-7.399c0.062-3.047,1.193-6.625,2.688-9.275
		c1.205-2.136,3.272-5.021,5.788-5.6c1.742-0.402,3.306,0.402,4.975,0.657c-1.32-0.681-3.493-2.57-4.954-2.659
		c-1.917-0.121-5.356,2.376-6.653,3.794c-2.143,2.346-3.298,6.337-3.734,9.341c-0.313,2.11-0.928,5.175,0.074,7.216
		c0.424,0.849,1.26,1.562,1.734,2.384c0.436,0.755,0.823,1.538,1.564,2.099"/>
	<path fill="#245977" d="M175.441,103.149c0.199-0.059,0.387-0.038,0.567,0.055c0.32,1.257,0.965,2.285,1.3,3.594
		c0.55,2.179,1.104,4.283,1.647,6.493c1.39,5.644,3.094,11.353,4.044,17.082c0.484,2.92,1.276,5.679,2.01,8.547
		c0.927,3.632,2.149,7.171,2.957,10.821c0.837,3.784,1.655,7.66,2.963,11.286c0.529,1.467,1.162,3.039,0.948,4.616
		c-4.251,1.68-7.354,5.354-10.471,8.633c-3.616,3.806-7.588,7.042-11.315,10.684c-2.197,2.143-4.141,4.463-6.436,6.524
		c-3.442,3.094-6.51,6.404-9.477,9.935c-0.879,1.049-2.015,3.918-3.246,4.372c-1.551-1.429-2.144-4.579-2.635-6.419
		c-0.672-2.514,0.999-2.99,2.482-4.793c1.117-1.36,2.262-2.612,3.462-3.924c1.355-1.481,2.206-3.464,3.452-5.032
		c1.83-2.301,3.802-4.372,5.871-6.42c2.421-2.396,4.248-5.093,6.521-7.538c2.734-2.937,5.889-4.993,9.33-6.979
		c1.269-0.733,2.405-0.784,2.174-2.412c-0.182-1.308-0.947-2.862-1.397-4.123c-1.275-3.58-1.541-7.184-2.334-10.905
		c-0.638-3-1.287-6.688-2.965-9.251c-1.62-2.476-6.317-14.418-6.301-17.737c0.015-3.383-0.366-6.823,0.698-9.95
		c0.994-2.914,3.076-3.834,5.307-5.554c0.182-0.062,0.254,0.027,0.219,0.263L175.441,103.149z"/>
	<path fill="#245977" d="M118.639,108.592c0.063,0.552-0.178,0.833-0.724,0.84c-1.86-1.455-5.303-1.741-7.638-2.346
		c-2.576-0.669-5.612-1.506-8.161-2.044c-6.199-1.312-12.069-1.529-18.42-2.399c-3.171-0.432-12.845-0.688-14.725-3.866
		c-1.793-3.028,2.572-6.615,4.128-8.771c2.584-3.577,27.365-36.812,32.589-41.244c2.142-1.817,2.396-3.333,5.153-3.816
		c2.641-0.462,5.523,0.865,7.975,1.366c2.591,0.53,5.582,0.683,10.251,2.62c-0.34,1.368-4.983,0.195-8.319,0.729
		c0.81,1.434,2.132,2.715,1.497,4.562c-1.675,0.382-3.086-1.219-4.24-2.062c0.271,2.522,2.829,2.811,2.519,5.367
		c-3.92,0.316-5.711-8.331-9.34-4.494c-1.203,1.271-22.605,30.18-24.533,31.785c-1.6,1.333-5.809,6.126-6.583,7.995
		c2.167,0.343,9.259-1.522,11.461-1.349c2.435,0.192,10.521,0.018,13.036,0c5.678-0.039,14.667-3.032,18.205-1.797
		c4.833,1.689-5.759,6.111-3.943,10.543c1.035,2.532,1.969,4.905,2.041,7.64c0.04,1.434-1.412,6.158-2.971,2.973"/>
	<path fill="#245977" d="M98.319,268.671c0.331,9.389,22.473,65.993,22.473,65.993s2.918,4.397-2.502,7.447
		c-1.808,1.019-11.13,7.655-12.408,8.734c-1.165,2.082,2.209,3.36,2.209,3.36l15.868-4.161l6.15-3.591l1.544-3.031l-2.223-6.776
		l-18.45-69.991L98.319,268.671z"/>
	<path fill="#245977" d="M141.742,271.294c0,0-0.809,26.099-0.291,35.871c0.523,9.772,2.881,31.833,2.881,31.833l-1.582,7.057
		l1.447,3.583l15.526,6.2l8.056,1.005c0,0,2.173-3.423-0.988-5.687c-3.812-2.726-10.838-8.503-11.94-10.864
		c-2.015-4.318-2.338-10.297-1.874-20.888c0.136-3.096,0.579-48.111,0.579-48.111H141.742z"/>
	<path d="M163.582,95.945c-1.488,0.49-3.202,1.471-3.202,1.471l-5.354,6.5l-19.268-3.231c0,0-3.43-5.075-7.965-8.097
		c-1.205-0.802-2.391-2-3.488-3.322c-0.848,0.15-1.88-0.533-2.678-0.451c-1.333,0.138-2.178,0.091-3.428,0.596
		c-2.019,0.817-4.473,1.044-5.223,7.128l6.537,20.693l-0.801,12.568l-4.025,59.005l0.959,10.879l32.114-0.378l0.546-7.103
		l24.004-75.394l4.174-12.863c-0.35-0.43-0.151-1.748-0.521-2.161C172.914,98.359,168.844,96.739,163.582,95.945z"/>
	<path fill="#245977" d="M139.922,82.523c0.371,0.503,0.234,1.684,0.266,2.312c0.105,2.238-0.174,4.305-0.672,6.49
		c-1.097,4.835-2.099,9.51-4.173,14.005c0.894-0.021,0.733,1.692,1.266,2.419c1.678,2.291,5.814,5.59,15.042-0.644
		c1.431-3.381-0.856-12.708-0.856-12.708l1.423-12.14l-6.159,1.39c0,0-3.845-0.369-5.278-0.93L139.922,82.523z"/>
	<polygon fill="#FFFFFF" points="127.979,92.288 117.915,198.931 123.959,198.931 133.967,97.388 	"/>
	<polygon fill="#FFFFFF" points="154.861,102.487 137.557,194.397 145.115,194.397 160.53,97.353 	"/>
	<path fill="#FF0000" d="M111.867,188.353l38.532,1.512c0,0,7.561,19.643,8.313,27.957c0.754,8.312,1.511,22.665,1.511,25.69
		c0,3.023-2.264,6.043,0.76,8.309c3.019,2.269,0,6.801,0,6.801l4.531,4.534l-9.823,4.532l-18.135-1.512l-6.799-3.777l3.021-10.578
		L130,248.8l4.533-3.777l-6.8-17.38l-7.474,19.951l2.933,6.303l-5.429,2.499l2.418,2.225l-1.683,1.876l-2.497,5.865l-25.289-3.207
		l-6.229-5.297l2.786-10.41l-1.319-2.637l3.08-4.985l-0.292-3.226l5.423-4.396l2.199-7.04L111.867,188.353z"/>
	<path d="M95.247,263.155l3.02,8.315h14.356v-8.315c0,0-1.952-1.189-8.043-1.382C98.489,261.587,95.247,263.155,95.247,263.155z"/>
	<path d="M141.434,265.518l-0.757,8.307l14.354,0.76l-0.758-8.315c0,0-3.059-1.476-5.725-1.449
		C145.882,264.851,141.434,265.518,141.434,265.518z"/>
	<circle fill="#FFFFFF" cx="121.142" cy="194.323" r="2.55"/>
	<circle fill="#FFFFFF" cx="142.484" cy="194.847" r="2.549"/>
	<g>
		<path fill="#FF0000" d="M142.302,102.809c0,0-11.219,4.314-12.604,3.757c-1.374-0.558,1.157-14.961,1.157-14.961l11.963,4.828
			L142.302,102.809z"/>
		<path fill="#FF0000" d="M147.085,102.984l1.354-5.178c0,0,11.202-8.141,11.18-6.133c-0.021,2.01-0.625,13.393-1.825,14.626
			C156.604,107.535,147.085,102.984,147.085,102.984z"/>
		<path fill="#245977" d="M149.198,99.512c0,2.152-1.75,3.899-3.902,3.899c-2.153,0-3.892-1.747-3.892-3.899
			c0-2.151,1.738-3.895,3.892-3.895C147.448,95.617,149.198,97.361,149.198,99.512z"/>
	</g>
	<path fill="#FF0000" d="M147.918,74.67c0.389,0.491,0.286,1.225-0.232,1.642c-0.516,0.413-1.25,0.356-1.646-0.131
		c-0.393-0.488-0.293-1.223,0.23-1.639C146.785,74.126,147.524,74.184,147.918,74.67z"/>
	<path fill="#FF0000" d="M156.535,67.753c0.436,0.548,0.452,1.274,0.021,1.614c-0.428,0.345-1.133,0.178-1.573-0.372
		c-0.44-0.548-0.448-1.271-0.022-1.615C155.389,67.038,156.09,67.204,156.535,67.753z"/>
	<path fill="#FF0000" d="M153.48,77.247c0,0,2.521-0.707,3.027-1.434c0.511-0.726,0.794-2.409,0.794-2.409s0.054-0.496-0.093-0.287
		c-0.152,0.211-0.195,1.06-0.827,1.75c-0.626,0.687-1.655,1.377-1.986,1.595c-0.322,0.219-1.124,0.409-1.024,0.594
		C153.48,77.247,153.48,77.247,153.48,77.247z"/>
	<path fill="#245977" d="M142.681,70.001c0,0-0.318-1.653,1.128-2.245c1.457-0.589,2.384,0.135,2.384,0.135
		s-0.458,1.058-1.538,1.603C143.581,70.04,142.681,70.001,142.681,70.001z"/>
	<path fill="#245977" d="M149.68,64.542c0,0-0.713-1.271,0.125-1.922c0.844-0.655,1.641-0.335,1.641-0.335s-0.057,0.917-0.373,1.188
		C150.756,63.746,149.68,64.542,149.68,64.542z"/>
	<path d="M144.793,67.603c0.354,0.443,0.282,1.09-0.16,1.444c-0.441,0.353-1.082,0.284-1.439-0.159
		c-0.354-0.44-0.282-1.084,0.153-1.438C143.795,67.094,144.438,67.162,144.793,67.603z"/>
	<path d="M150.735,62.324c0.266,0.328,0.213,0.81-0.117,1.071c-0.327,0.266-0.805,0.212-1.071-0.115
		c-0.264-0.334-0.209-0.81,0.117-1.076C149.991,61.944,150.47,61.99,150.735,62.324z"/>
	<path fill="none" stroke="#000000" stroke-width="0.4533" stroke-linecap="round" stroke-linejoin="round" d="M145.125,69.892
		c0.428,0.25,0.963,1.132,1.24,1.481"/>
	<path fill="none" stroke="#000000" stroke-width="0.4533" stroke-linecap="round" stroke-linejoin="round" d="M151.098,63.96
		c0.406,0.263,0.884,0.846,1.18,1.228"/>
	<path fill="none" stroke="#000000" stroke-width="0.4533" stroke-linecap="round" stroke-linejoin="round" d="M149.341,62.204
		c-0.096-0.385-0.73-0.771-1.005-1.069"/>
	<path fill="none" stroke="#000000" stroke-width="0.4533" stroke-linecap="round" stroke-linejoin="round" d="M143.186,67.542
		c0-0.304-0.736-0.929-0.998-1.122"/>
	<path fill="#FF0000" d="M135.752,80.968c-0.047-0.781-0.609-1.796-0.705-2.746c-0.108-1.133,0.018-2.394-0.004-3.556
		c-0.042-3.108,0.934-5.999,2.321-8.763c1.003-1.996,2.258-3.522,4.008-4.865c1.437-1.102,2.8-2.658,4.51-3.217
		c2.14-0.697,4.81-0.81,6.174,1.209c-0.198,0.333-0.378,0.621-0.559,0.945c-0.692-0.323-0.879-1.04-1.729-1.229
		c-0.866-0.194-1.601,0.174-2.384,0.481c-1.732,0.682-3.856,1.506-5.336,2.634c-1.557,1.186-2.914,3.361-3.838,5.102
		c-0.545,1.023-1.095,2.065-1.465,3.166c-0.305,0.91-0.85,1.964-1.032,2.905c-0.357,1.867,0.061,4.785,0.684,6.542
		c0.218,0.602,1.372,1.867,0.353,2.214c-1.055,0.359-1.664-1.125-1.363-1.896"/>
	<path fill="#245977" d="M160.749,182.104c-1.053,1.129-2.077,2.289-3.054,3.519c-1.246,1.568-2.097,3.55-3.452,5.032
		c-1.2,1.312-2.345,2.563-3.462,3.924c-1.483,1.804-3.154,2.28-2.482,4.793c0.491,1.84,1.084,4.991,2.635,6.419
		c1.231-0.454,2.367-3.323,3.246-4.372c2.839-3.38,5.781-6.552,9.047-9.531C162.479,188.607,161.654,185.344,160.749,182.104z"/>
</g>
</svg>
