<?xml version="1.0" encoding="utf-8"?>
<!-- Generator: Adobe Illustrator 16.0.4, SVG Export Plug-In . SVG Version: 6.00 Build 0)  -->
<!DOCTYPE svg PUBLIC "-//W3C//DTD SVG 1.1//EN" "http://www.w3.org/Graphics/SVG/1.1/DTD/svg11.dtd">
<svg version="1.1" id="Ebene_1" xmlns="http://www.w3.org/2000/svg" xmlns:xlink="http://www.w3.org/1999/xlink" x="0px" y="0px"
	 width="283.46px" height="425.2px" viewBox="0 0 283.46 425.2" enable-background="new 0 0 283.46 425.2" xml:space="preserve">
<g>
	<path fill="#245977" d="M105.151,127.862c-1.288,0.98-12.533,0.3-14.595,1.039c-2.031,0.729-16.18,6.807-16.872,8.476
		c-0.753,1.769-2.577,24.104-3.102,29.333c-0.219,2.167-0.565,9.083-0.774,10.282c-0.979-1.09-3.388-7.985-4.091-9.854
		c-0.812-2.18-6.479-14.072-8.451-17.779c-0.349-0.66-0.784-1.989-1.605-2.029c-0.913-0.039-14.954,3.222-15.805,3.702
		c-1.963,1.079-3.562,1.388-5.811,1.348c0.842,0.17,13.302-1.32,14.145-1.112c1.278,0.311,2.189,0.65,3.309,1.359
		c1.97,1.229,3.438,2.189,4.606,4.317c3.132,5.687,5.152,12.043,7.63,18.109c1.654,4.067,3.18,8.155,5.043,12.152
		c0.485,1.029,2.704,5.227,3.477,5.707c1.101,0.68,2.735-5.346,3.033-7.166c0.802-4.906,4.508-22.754,4.923-26.854
		c0.357-3.717,0.921-7.365,1.803-11.022c0.447-1.86,0.516-4.168,2.13-5.158c1.438-0.869,3.657-1.519,5.321-1.32
		c0.327,2.52,0.059,5.298,0.059,7.836v10.063c0,2.638,4.143,28.941,3.834,32.429c-0.465,5.317-7.282,17.32-7.52,18.469
		c-0.308,1.458-0.02,1.64,1.08,2.587c3.201,2.739,7.263,4.089,11.453,4.199c3.182,0.069,17.489,0.279,21.394,0.01
		c2.803-0.2,7.133,0.13,9.62-1.519c1.021-0.68,0.456-1.26,0.139-2.418c-0.634-2.279-10.879-18.239-11.326-22.197
		c-0.426-3.767,6.728-24.703,6.728-27.882c0-3.417,0.486-6.665,0.832-10.034c0.278-2.639,0.239-5.396-0.05-7.946
		c-0.188-1.518,0.497-3.228,0.793-4.696c0.287-1.459,0.188-2.949,0.545-4.397c6.887,2.599,14.654,4.376,21.708,7.815
		c4.152,2.019,14.258,8.274,15.22,7.734c1.049-0.58,1.803-2.297,2.565-3.208c2.913-3.477,6.51-6.866,10.017-9.684
		c0.278-0.239,0.565-0.459,0.843-0.699c1.892-1.54,3.775-3.079,5.648-4.618c2.586-2.107,5.162-4.216,7.749-6.325
		c1.219-0.99,2.447-1.979,3.666-2.969c1.188-0.969,2.396-1.918,3.458-3.037c0.376-0.4,0.812-0.75,1.1-1.24
		c0.247-0.36,0.466-0.729,0.744-1.039c0.188-0.24,0.346-0.52,0.515-0.759c0.178-0.211,0.386-0.38,0.554-0.599
		c0.258-0.341,0.565-0.66,0.842-1c0.259-0.33,0.496-0.629,0.298-1.07c-0.179-0.4-0.576-0.599-0.972-0.449
		c0.447-0.549,1.466-1.079,0.772-1.909c-0.217-0.29-0.732-0.479-1.079-0.629c-0.348-0.16-0.694-0.201-1.07-0.201
		c0.208-0.269,0.744-0.519,1.07-0.609c0.049-0.47,0.02-1.1-0.417-1.35c-0.426-0.23-0.912-0.21-1.397-0.199
		c0.367-0.4,0.991-0.541,1.278-1.061c0.327-0.529-0.159-1.148-0.625-1.409c-0.595-0.33-1.438-0.209-2.081-0.129
		c-0.309,0.039-0.584,0.021-0.873,0.1c-0.207,0.05-0.674,0.139-0.902,0.059c-0.257-0.12-0.217-0.52-0.306-0.749
		c-0.09-0.31-0.218-0.61-0.357-0.9c-0.177-0.33-0.257-0.629-0.654-0.529c-0.326,0.071-0.455,0.3-0.603,0.6
		c-0.675,1.239-0.486,2.819-0.486,4.217c-0.02,1.46-0.288,2.978-0.912,4.297c-0.327,0.709-0.614,1.469-0.882,2.208
		c-0.327,1.02-0.723,1.908-1.436,2.718c-0.833,0.93-1.833,1.52-2.833,2.229c-2.506,1.749-5.192,3.238-7.729,4.967
		c-1.753,1.189-9.719,8.155-12.117,10.164c-1.824,1.519-4.023,2.508-5.519,4.407c-2.605-1.479-25.574-11.612-26.812-12.262
		c-1.476-0.77-10.791-2.768-11.374-2.838c-0.674-0.07-5.292,1.378-5.906,1.378c-0.228-0.969-2.121-15.449-2.012-16.389
		c-3.408-0.44-2.843,1.789-6.112,1.039c-1.466-0.349-2.102-1.278-3.458-1.039C105.133,111.114,106.648,126.733,105.151,127.862"/>
	<path d="M128.654,157.664c-0.654-0.259-1.1-0.44-1.447-1.159l-0.139,0.06v-4.267v-5.467l-7.887-2.877l0.981-5.598l0.962-4.698
		l2.535-7.714l-2.05-0.279l-1.705,8.375l-2.706,8.293l-9.858,5.557l-6.787-8.774l-3.696-12.832l-0.882,0.5l2.587,8.564l0.257,4.428
		l-5.46,0.519l-3.735,4.438l-0.099,11.593c-0.881,0.31-1.704,1.128-2.496,1.928l-0.208,0.2l0.734,0.74l0.198-0.201
		c0.654-0.65,1.377-1.369,1.992-1.638l0.168,0.26c-0.168,0.319-0.544,0.63-0.921,0.949c-0.645,0.509-1.349,1.098-1.536,1.968
		l1.021,0.219c0.099-0.499,0.634-0.95,1.169-1.379c0.208-0.179,0.426-0.37,0.654-0.578v2.377h1.01v-2.168h0.258
		c-0.1,0.71-0.05,1.44-0.011,2.168c0.011,0.35,0.03,0.701,0.03,1.041h1.03c0-0.361-0.03-0.721-0.03-1.09
		c-0.04-0.679-0.069-1.379,0-1.989c0.021-0.041,0.03-0.08,0.05-0.131h0.157c0,0.121,0,0.261-0.019,0.381
		c-0.049,1.129-0.119,2.199,0.546,2.718l0.643-0.83c-0.248-0.189-0.188-1.179-0.158-1.829c0.019-0.149,0.019-0.291,0.04-0.44h0.732
		v0.581c-0.01,0.999-0.029,2.119,0.833,2.778l0.614-0.83c-0.426-0.33-0.426-1.1-0.406-1.929v-0.6h0.912c0,0.191,0,0.39-0.021,0.581
		c0,0.16-0.019,0.329-0.019,0.479c0,0.5,0.069,0.999,0.158,1.48c0.089,0.579,0.169,1.14,0.099,1.638l1.031,0.131
		c0.08-0.651-0.009-1.3-0.118-1.93c-0.07-0.459-0.139-0.898-0.139-1.308c0-0.131,0.019-0.271,0.019-0.411
		c0.02-0.209,0.02-0.438,0.02-0.66h1.002h0.078c0.021,0.2,0.041,0.411,0.071,0.61c0.089,0.789,0.198,1.609,0.109,2.278l1.031,0.12
		c0.089-0.789-0.021-1.678-0.12-2.528c-0.02-0.139-0.02-0.27-0.039-0.41l1.258,0.1c-0.02,0.199-0.029,0.41-0.069,0.629
		c-0.08,0.83-0.209,1.769,0.386,2.479l0.782-0.669c-0.307-0.37-0.217-1.011-0.128-1.689c0.029-0.21,0.05-0.45,0.059-0.671l1.05,0.07
		c0,0.36-0.059,0.751-0.118,1.18c-0.139,0.839-0.278,1.798,0.068,2.678l0.981-0.39c-0.257-0.609-0.148-1.359-0.03-2.127
		c0.07-0.42,0.119-0.851,0.139-1.261l1.03,0.071c-0.019,0.27-0.049,0.54-0.089,0.829c-0.139,1.02-0.307,2.199,0.397,3.027
		l0.792-0.678c-0.415-0.471-0.288-1.32-0.158-2.208c0.04-0.301,0.08-0.59,0.089-0.9l1.229,0.1v3.348h1.031v-3.278l0.515,0.04
		c-0.021,0.21-0.021,0.419-0.021,0.599c0.04,0.34,0.089,0.681,0.119,1c0.09,0.549,0.159,1.08,0.159,1.639l1.03-0.01
		c0-0.629-0.089-1.209-0.148-1.769c-0.06-0.31-0.09-0.63-0.129-0.949c-0.01-0.141,0-0.291,0.02-0.44l0.328,0.03l0.603,0.149
		l-0.167,0.3c0.099,0.081,0.119,0.66,0.119,0.959c0.021,0.709,0.03,1.509,0.545,2.08l0.763-0.7c-0.237-0.28-0.258-0.88-0.277-1.398
		c0-0.35-0.02-0.701-0.089-1.01l1.179,0.3c0.259,0.36,0.188,1.188,0.129,1.759c-0.01,0.26-0.03,0.499-0.03,0.7h1.03
		c0-0.17,0.02-0.389,0.041-0.629c0.049-0.47,0.079-1.02,0.009-1.519l1.744,0.44c-0.04,0.808-0.04,1.688,0.327,2.457l0.932-0.459
		c-0.258-0.57-0.258-1.31-0.228-2.049l0.951-0.369c0.069,0.339,0.08,0.75,0.099,1.139c0.021,0.709,0.04,1.449,0.327,2.009
		l0.911-0.479c-0.167-0.351-0.188-0.97-0.217-1.56c0-0.51-0.04-1.029-0.139-1.488l0.495-0.2c0.021,0.119,0.04,0.24,0.049,0.36
		c0.07,0.449,0.12,0.859,0.12,1.309h1.049c0-0.521-0.079-0.998-0.148-1.469c-0.02-0.2-0.05-0.399-0.069-0.59l0.911-0.359
		c0.019,0.02,0.019,0.05,0.019,0.069c0.188,0.829,0.407,1.858,0.327,2.539l1.012,0.131c0.118-0.851-0.139-1.979-0.328-2.889
		c-0.02-0.08-0.03-0.16-0.049-0.231l0.554-0.208c0.08,0.659,0.188,1.339,0.099,1.878l1.031,0.159
		c0.109-0.708-0.02-1.499-0.119-2.238c-0.02-0.079-0.02-0.129-0.02-0.2l0.932-0.359l-0.019,0.04c0.386,0.24,0.652,0.699,0.97,1.19
		c0.288,0.489,0.586,0.979,1.012,1.369l0.693-0.799c-0.327-0.27-0.575-0.679-0.832-1.11c-0.219-0.379-0.476-0.779-0.793-1.099
		l0.852-0.321c0.476,0.691,1.08,0.95,1.685,1.18c0.257,0.11,0.535,0.22,0.812,0.381l0.515-0.919
		C129.258,157.924,128.941,157.784,128.654,157.664"/>
	<path d="M196.127,116.87c-0.911-9.374-6.213-102.696-5.955-109c0.069-1.91,1.278,1.148,1.348-0.74
		c0.485,1.729,5.817,115.186,7.094,123.551c0.1,0.621,0.148,1.299,0.168,1.919c0.021,0.271-0.93,1.08-1.069,0.72
		C197.495,132.7,196.633,121.778,196.127,116.87"/>
	<path fill="#245977" d="M197.029,108.295c-0.96,0.43-1.862,0.999-2.725,1.64c-0.583,0.429-0.96,0.938-0.871,1.698
		c0.327,0.07,0.534-0.12,0.803-0.26c0.386-0.25,0.763-0.32,1.158-0.47c0.397-0.149,0.863-0.399,1.2-0.61
		c0.267-0.159,0.692-0.389,0.852-0.649c-0.624,0.609-1.556,0.959-2.229,1.549c-0.397,0.351-0.753,0.869-1.052,1.32
		c-0.148,0.249-0.455,0.718-0.237,1.008c0.208,0.28,0.842,0.229,1.12,0.121c0.506-0.18,0.951-0.57,1.377-0.87
		c0.397-0.27,0.704-0.589,1.07-0.9c0.168-0.159,0.426-0.389,0.635-0.519c-0.297,0.589-0.822,1.08-1.189,1.629
		c-0.278,0.449-0.445,0.939-0.704,1.409c-0.188,0.36-0.466,0.77-0.534,1.18c-0.05,0.32,0.04,0.589,0.367,0.68
		c0.396,0.109,0.803-0.33,1.05-0.601c0.356-0.409,0.683-0.888,1.011-1.338c0.237-0.34,0.446-0.709,0.742-0.999
		c0.396,0.318-1.298,2.107-1.397,2.278c-0.328,0.529-0.584,1.129-0.792,1.738c-0.16,0.459-0.397,1.09-0.16,1.549
		c0.675,1.31,2.379-0.749,2.895-1.209c0.852-0.77,2.091-1.729,2.1-2.978c0.02-0.58,0.09-1.2-0.148-1.698
		c-0.179-0.311-0.447-0.601-0.654-0.88c-0.346-0.489-0.645-1.029-1.021-1.519c-0.534-0.71-1.217-1.359-1.862-1.979
		c-0.317-0.33-1.081-1.05-1.099-0.17"/>
	<path fill="#245977" d="M170.625,230.328c-3.924,1.889-6.42,3.767-9.264,7.257c-1.328,1.627-2.606,3.336-4.083,4.796
		c-1.268,1.249-4.528,3.538-4.091,5.537c7.173,0.929,38.73-3.647,38.384-3.288c-1.219,1.239-12.485,12.432-13.544,13.812
		c-1.566,1.999-24.176,27.492-34.272,37.507c-3.488,3.437-22.095,17.568-24.553,19.288c-2.15,1.508-1.074,2.167-1.987,5.545
		c-1.099,2.238,5.564,3.788,7.219,6.256c1.485,2.239,13.583,11.154,15.545,9.505c-1.685-3.158-3.834-1.889-7.053-9.585
		c-0.814-1.948-3.796-9.553-5.104-10.243c0.714-1.139,23.761-19.438,30.3-24.684c10.056-8.063,20.728-15.181,30.219-23.885
		c4.162-3.839,7.729-8.114,11.394-12.433c2.596-3.047,12.652-16.319,14.269-19.967c1.029-2.328,2.258-7.845-0.496-9.554
		c-1.308-0.789-19.44,3.167-23.69,3.029C187.834,229.159,170.704,231.227,170.625,230.328"/>
	<path fill="#245977" d="M96.234,261.009c-0.43,0.062-0.855,0.159-1.274,0.273c-0.958,0.26-1.892,0.613-2.802,1.009
		c-0.872,0.379-1.713,0.936-2.62,1.217c-0.523,0.161-1.153,0.162-1.452,0.694c-0.444,0.792-0.408,2.045-0.332,2.919
		c0.064,0.75,0.187,1.516,0.382,2.243c0.114,0.426,0.304,0.74,0.509,1.122c0.231,0.43,0.331,0.956,0.428,1.43
		c0.645,3.129,0.126,6.303,0.434,9.45c0.564,5.845,1.357,11.792,2.1,17.588c0.773,6.207,0.892,12.693,1.011,18.948
		c0.109,5.566,4.875,42.393,6.857,55.285c1.753,11.603,2.685,17.849,3.873,29.531c-0.414,4.773-3.112,3.942-6.017,5.414
		c-3.943,2.075-5.653,5.904-9.129,6.414c-3.478,7.275,8.169-0.812,13.565-0.189c6.433-0.416,11.956,2.263,12.786,1.226
		c0.734-5.046,0.072-5.795-0.761-10.663c-0.843-5.106-4.696-21.219-4.627-30.713c0.03-4.417-1.021-45.712-1.031-54.765
		c-0.019-4.968,1.031-9.714,1.031-14.711c0-4.917,0.941-9.154,1.03-13.971c0.069-5.017,0.328-9.755,0.911-14.591
		c0.487-3.987,1.14-8.315,0.555-12.433C106.994,261.408,101.743,260.179,96.234,261.009z"/>
	<path fill="#245977" d="M100.872,82.032c0.148-0.58,0.842-0.94,1.218-1.399c0.446-0.54,0.912-1.069,1.427-1.56
		c0.624-0.59,1.099-1.1,1.864-1.538c0.89-0.53,1.782-0.881,2.833-1.12c2.486-0.55,5.24-0.22,7.251,1.268
		c1.407,1.05,3.34,1.62,4.479,2.949c0.355,0.439,0.406,0.718,0.396,1.269c0,0.631,0.12,1.219,0.287,1.829
		c0.576,2.089,1.15,4.218,1.496,6.356c0.347,2.12,0.883,4.358,0.862,6.496c-0.02,1.451,0.327,2.959,0.04,4.389
		c-0.178,0.889-2.021,6.206-2.021,6.206s-7.282,6.726-8.193,6.516c-0.941-0.22-5.658-1.31-5.658-1.31l-4.17-4.297
		c0,0-3.558-8.504-3.685-9.433c-0.337-3.2-0.377-6.567,0.177-9.754c0.218-1.329,0.545-2.669,0.842-3.938
		c0.1-0.49,0.219-1.04,0.417-1.52c0.188-0.459,0.852-1.198,0.842-1.659"/>
	<path fill="#FF0000" d="M97.403,88.068c0.188-0.261-1.635-1.36-1.941-1.509c-0.417-0.18-1.139-0.58-1.586-0.51
		c-0.426,0.059-0.871,0.719-0.871,0.719l-1.586-1.958l1.338-0.938l-1.308-3.499l0.565-0.22L91.3,78.324l2.11-1.819l-3.032-2.978
		l0.16-1.89l1.217-1.369l-0.307-0.4c-0.357-0.429-1.218-1.329-1.218-1.329l-0.793-2.628l3.944-2.128l-0.843-0.431l3.368,1.33
		l1.933-2.578l0.049-1.85l4.667-0.629l0.873-2.038l2.723,3.067l2.874-2.877l2.339,0.57l0.574,3.226l0.803,0.211l0.981-0.62
		l1.575-0.599l2.368,0.66l-0.188,2.688l3.963-1.979l2.151,1.129l1.257,1.219l1.962-0.66l1.466,1.06l-0.793,2.199l2.13,0.61
		l-0.941,2.178l1.08,0.14l1.705,1.369l-0.604,2.858l1.209,2.159l-0.901,1.289l-1.288,0.51c0,0-0.466,2.178-0.564,2.927
		c-0.07,0.72,0.288,0.84,0.288,0.84l1.05,1.659l-0.269,1.709c0,0-0.93,0.659-1.041,0.8c-0.118,0.15-0.217,0.939-0.217,0.939
		l-0.437,1.669l-0.633,0.879l-1.08,0.398l0.009,0.581c0,0-0.544,0.37-0.791,0.729c-0.169,0.25-0.149,0.629-0.259,0.919
		c-0.118-0.439-0.584-0.788-0.802-1.199c-0.257-0.429-0.436-0.979-0.782-1.338c-0.733-0.76-1.854-1.289-2.854-1.628
		c-1.467-0.491-2.982-0.479-4.488-0.74c-0.991-0.16-1.981-0.149-3.003-0.149c-0.723,0-0.742-2.718-1.377-2.959
		c-1.466-0.539-3.22-1.499-4.766-1.679c-1.159-0.12-2.408,3.079-3.566,2.949c-0.684-0.091-0.842-0.191-1.516,0.26
		c-0.595,0.399-1.17,0.868-1.843,1.128c-0.942,0.36-2.27,0.67-3.043,1.33c0.09-0.051,0.139-0.14,0.139-0.25"/>
	<path fill="#FF0000" d="M98.633,89.307c0.099-0.019,0.188-0.019,0.287,0.03c0.04,0.281,0,0.899,0,0.899s0.306,0.42,0.445,0.65
		c0.249,0.471,0.397,1.259,0.457,1.79c0.08,0.599,0.05,1.899,0.05,1.899l-0.436,1.228l-0.308,1.529l-0.416,1.04
		c0,0-0.079,1.409-0.07,1.479c0,0.08-0.465,2.929-0.465,2.929H96.67l-0.792,4.167l-2.743,0.17l-1.567,2.148l-1.822-2.897
		l-2.012,0.539l-0.238-2.828l-0.208-0.229l-1.377-0.8l0.772-3.107l-0.021-1.35l0.744-1.789l2.169-1.169l-0.911-1.528l1.337-2.629
		l5.856-1.39l1.397-0.659c0,0,0.634-0.26,0.467-0.27"/>
	<path fill="#FF0000" d="M125.781,89.777c0.534,0.599,3.21,1.05,3.21,1.05l2.049,0.379l0.586,3.048l1.96,2.449l0.178,2.099
		l1.219,1.029l1.377,3.127l-0.654,1.719l-0.396,1.1c0,0,0.257,1.499-0.019,2.248c-0.515,1.419-2.2,2.289-3.558,2.538
		c-0.932,0.17-2.605-0.409-2.605-0.409l-0.911-0.75l-1.408,0.989l-2.151,0.541l-0.791-2.489l-1.933-1.528l0.02-2.858l-0.951-0.21
		l1.12-2.31l1.654-4.496c0,0,0.019-1.399-0.188-1.97c-0.11-0.29-0.327-0.528-0.426-0.809c-0.11-0.31-0.128-0.569-0.159-0.929
		c-0.05-0.61-0.139-1.569,0.277-2.049c0.447-0.52,1.249-0.73,1.873-0.74"/>
	<path d="M105.38,89.157c-0.109,0.04-0.05,0.201-0.278,0.18c-0.068,0.49-0.157,0.969,0.426,1.06c0.624,0.09,0.713-0.399,0.595-0.91
		c-0.268-0.12-0.595-0.33-0.743-0.03"/>
	<path d="M117.636,90.396c-0.624-0.229-1.099,2.189,0.327,1.859c1.22-0.29,0.257-1.648-0.445-2c-0.04,0.091-0.06,0.189-0.021,0.29"
		/>
	<path fill="#FF0000" d="M107.549,110.534c0.596,0.049,1.754-0.4,1.874-1.1c0.603-0.199,1.772,0.95,2.149-0.17
		c0.397,0.261,0.604,0.86,1.031,1.19c0.396,0.281,1.14,0.349,1.278,0.059c-0.069,0.521-1.476,0.601-1.705,0.57
		c-0.604-0.03-1.377-0.379-1.961-0.281c-0.724,0.131-1.755,0.831-1.655,1.51c0.258,1.758,5.855,0.899,5.341-0.45
		c-0.913,0.73-5.222-0.419-4.925-0.419"/>
	<path d="M118.875,89.457c-0.883-0.219-2.34-0.689-3.032,0.34c-0.258,0.38-0.287,1.239-0.208,1.678c0.178,0.8,0.912,0.95,1.585,1.09
		c1.169,0.229,2.992,0.38,2.874-1.399c-0.07-1.139-1.15-1.988-2.151-1.709 M106.311,87.768c-0.139,0.1-1-0.1-1.377,0.02
		c-0.694,0.211-1.447,0.96-1.556,1.669c-0.209,1.419,0.842,2.18,2.149,2.338c1.308,0.15,2.092-0.998,2.002-2.178
		c-0.05-0.57-0.188-0.949-0.654-1.35c-0.308-0.269-0.961-0.758-1.348-0.348 M97.721,88.997c0.426-0.269-0.07-1.89-0.13-2.388
		c-0.167-1.438-0.336-2.958-0.336-4.407c0.009-1.599-0.158-3.168-0.158-4.777c0-1.129-0.169-2.458,0.029-3.558
		c0.952,0.44,1.437,2.379,1.842,3.268c0.834,1.769,1.646,3.558,2.469,5.347c0.188,0.41,0.287,0.669,0.723,0.789
		c0.278,0.101,0.654-0.04,0.931,0c0.337,0.04,0.683,0.229,1.031,0.28c1.208,0.199,2.408,0.16,3.665,0.199
		c2.914,0.062,5.936,0.4,8.868,0.65c1.169,0.101,2.389,0.279,3.547,0.539c0.96,0.22,0.981,0.16,1.388-0.729
		c1-2.119,2.307-4.038,3.655-5.967c0.604-0.87,1.12-1.708,1.596-2.658c0.207-0.43,0.524-0.849,0.781-1.25
		c0.169-0.259,0.376-0.8,0.565-0.949c0.099,0.351-0.05,0.889-0.118,1.228c-0.071,0.491-0.129,0.96-0.139,1.459
		c-0.07,1.42-0.188,2.878-0.348,4.298c-0.326,2.968-0.931,5.875-1.218,8.854c-0.229,2.089-0.159,4.236-0.585,6.276
		c-0.296,1.369-0.296,2.239-2.022,2.009c-1.238-0.161-2.713-0.391-3.952-0.81c-0.724-0.25-1.438-0.399-2.17-0.589
		c-0.634-0.15-1.288-0.541-1.981-0.631c-2.378-0.249-4.786-0.239-7.173-0.438c-2.299-0.21-4.667-0.261-6.976-0.01
		c-0.772,0.079-1.238,0.29-1.912-0.2c-0.564-0.429-1.12-0.859-1.378-1.539C97.701,91.996,97.721,90.426,97.721,88.997"/>
	<path d="M129.922,214.288l50.015,11.624c0,0-26.414,54.097-78.739,45.502c-53.969-8.865-53.73-31.062-58.566-38.687l43.208-22.535
		c0,0,9.571,6.875,23.046,6.385C121.816,216.097,129.922,214.288,129.922,214.288"/>
	<path d="M109.034,198.267c0.688,0.846,0.969,1.823,0.777,2.812c-0.617,0.191-0.875-0.097-0.777-0.866"/>
	<path fill="#FF0000" d="M40.473,158.509c0.027,3.874-2.532,13.738-2.395,16.053c0.107,1.84,3.133,6.725,4.189,7.788
		c2.11,2.122,6.912,9.402,7.946,7.596c1.146-2-2.962-22.47-2.805-23.732c0.222-1.78,1.633-2.633,1.663-4.429
		c-0.895-0.587-2.587-7.171-2.735-9.236c-0.131-1.87,0.688-5.911,0.688-5.911s-1.407-1.508-3.154-1.337
		c-3.073,0.302-4.852,2.067-6.25,4.68c-1.863,3.48-6.127,4.659-6.328,4.997c-0.425,0.708,0.16,1.216-0.167,1.961
		c1.126-0.503,7.822-2.465,7.822-2.465S40.456,156.315,40.473,158.509"/>
	<path fill="#FF0000" d="M123.314,326.416c2.406,3.036,6.463,12.384,7.996,14.126c1.217,1.384,6.611,3.371,8.096,3.557
		c2.97,0.374,11.235,3.154,10.939,1.094c-0.328-2.283-16.168-15.883-16.822-16.975c-0.92-1.539-0.334-3.08-1.417-4.515
		c-1.066,0.091-6.453-4.056-7.839-5.593c-1.256-1.391-3.1-5.081-3.1-5.081s-2.037-0.323-3.308,0.889
		c-2.235,2.13-2.55,4.616-2.045,7.535c0.675,3.891-1.958,7.444-1.91,7.833c0.102,0.819,0.875,0.86,1.076,1.648
		c0.579-1.089,4.646-6.758,4.646-6.758S121.951,324.698,123.314,326.416"/>
	<path d="M131.862,324.014c0.005-0.203,0.11-0.406,0.208-0.577c0.261-0.454,1.563-2.801,1.789-3.566
		c0.065-0.215,0.326-0.973,0.356-0.988c0.14-0.068,0.189,0.249,0.239,0.367c0.569,1.351,1.027,2.752,1.487,4.147
		c0.258,0.783,0.563,1.776,0.139,2.541c-0.496,0.891-1.505,0.959-2.367,0.551c-0.588-0.279-1.653-1.638-1.717-1.782
		c-0.023-0.052-0.108-0.179-0.117-0.21c-0.049-0.175,0.03-0.317-0.161-0.412c-0.057-0.028-0.857-0.463-1.026-0.697
		c-0.485-0.667-2.206-2.294-2.429-2.534c-0.166-0.179-0.97-1.101-1.206-1.387c-0.104-0.122-0.242-0.35-0.395-0.416
		c-0.16,0.331,0.03,2.985,0.151,3.924c0.048,0.368,0.141,0.753,0.229,1.115c0.135,0.559,1.284,3.202,2.041,3.595
		c1.035,0.539,2.448-0.313,2.608-1.439c0.045-0.318,0.132-0.571,0.13-0.899c-0.001-0.253,0-0.506,0-0.759
		c0,0.143-0.005,0.305,0.038,0.436c0.045,0.137,0.39,1.561,0.39,1.788c0.001,0.536-0.592,2.367-0.952,2.757
		c-0.198,0.215-2.481,1.466-2.553,1.69c0.211,0.11,1.543,1.58,1.868,1.328c0.056-0.043,0.803-0.57,0.935-0.719
		c0.158-0.179,0.731-1.275,0.782-1.405c0.438-1.103,0.545-2.338,0.544-3.523c0-0.239-0.061-1.044-0.156-1.284
		c-0.089-0.224-0.474-0.653-0.472-0.691c-0.157,0.005-0.345-0.45-0.385-0.404"/>
	<path d="M47.485,165.467c-0.234-0.129-0.174-0.501-0.246-0.745c-0.241-0.826-0.516-1.642-0.824-2.446
		c-0.306-0.796-0.602-1.568-0.841-2.386c-0.056-0.191-0.251-1.203-0.568-0.82c-0.148,0.18-0.215,0.568-0.263,0.788
		c-0.107,0.489-0.292,0.919-0.353,1.423c-0.094,0.762-0.355,1.466-0.413,2.236c-0.046,0.609-0.076,1.197-0.076,1.81
		c0,1.075-0.095,2.203,0.018,3.27c0.055,0.535,0.043,1.329,0.418,1.756c0.321,0.363,0.909,0.346,1.239,0.077
		c0.504-0.412,0.602-1.11,0.818-1.695c0.131-0.353,0.328-0.677,0.413-1.045c0.073-0.319,0.239-0.601,0.295-0.917
		c0.098-0.55,0.012-1.196,0.391-1.665c-0.008,0.094-0.011,0.188-0.008,0.282"/>
	<path d="M47.485,165.31c0.232,0.044,0.501-0.37,0.688-0.499c0.615-0.423,1.174-0.894,1.709-1.421
		c0.545-0.537,1.06-1.085,1.585-1.638c0.126-0.131,0.248-0.271,0.373-0.401c0.063-0.066,0.062-0.173,0.183-0.18
		c0.18-0.012,0.326,0.403,0.39,0.526c0.259,0.499,0.419,1.071,0.585,1.606c0.215,0.693,0.481,1.399,0.609,2.112
		c0.19,1.056,0.107,2.136,0.114,3.202c0.007,1.077-0.395,1.993-0.835,2.957c-0.386,0.845-1.392,1.062-2.11,0.473
		c-0.506-0.415-0.919-0.977-1.287-1.514c-0.455-0.662-0.941-1.41-1.23-2.16c-0.228-0.594-0.454-1.229-0.56-1.858
		c-0.066-0.388-0.21-0.693-0.213-1.085v0.131"/>
	<path d="M47.329,165.952c-0.005,0.282,0.013,0.518-0.043,0.802c-0.148,0.738-0.339,1.499-0.515,2.233
		c-0.284,1.199-0.751,2.37-1.171,3.526c-0.157,0.432-0.327,0.956-0.604,1.312c-0.066,0.084-0.148,0.211-0.219,0.285
		c-0.076,0.08-0.075,0.038-0.153,0.098c-0.131,0.099-0.394,0.178-0.401,0.361c0.423,0.246,0.881,0.577,1.242,0.921
		c-0.033-0.21,0.201-0.715,0.287-0.903c0.265-0.573,0.426-1.185,0.629-1.782c0.349-1.03,0.638-2.063,0.891-3.097
		c0.06-0.246,0.002-0.486,0.051-0.723c0.022-0.073,0.064-0.131,0.129-0.176c0.042-0.172,0.037-0.312,0.034-0.488
		c-0.005-0.436,0-0.873,0-1.31c0-0.266,0.051-0.597-0.034-0.843c-0.043-0.125-0.095-0.167-0.122-0.304
		c-0.027-0.142-0.024-0.234-0.079-0.363c0.003,0.041,0.003,0.08,0.001,0.12"/>
	<path d="M47.329,165.388c0.418,0.546,0.291,1.277,0.422,1.902c0.152,0.724,0.33,1.424,0.527,2.135
		c0.178,0.645,0.51,1.446,0.875,2.008c0.22,0.338,0.416,0.696,0.654,1.021c0.102,0.138,0.335,0.312,0.32,0.494
		c-0.598,0.124-1.315,0.336-1.845-0.097c-0.226-0.186-0.281-0.419-0.348-0.691c-0.055-0.216-0.026-0.39-0.051-0.604
		c-0.037-0.315-0.213-0.676-0.302-0.98c-0.169-0.566-0.276-1.162-0.387-1.747c-0.097-0.502-0.098-0.979-0.098-1.494
		c0-0.528-0.1-1.19,0.011-1.703c0.046-0.019,0.095-0.021,0.145-0.009"/>
	<path fill="#FF0000" d="M86.148,209.271c-0.121-0.05-0.246-0.087-0.379-0.099c-0.002-0.088-0.037-0.172-0.001-0.263
		c-0.126,0.243-0.464,0.452-0.662,0.635c-0.349,0.323-0.712,0.607-1.082,0.898c-0.272,0.215-0.469,0.304-0.754,0.486
		c-0.201,0.127-0.37,0.292-0.622,0.305c0.029,0.171,0.175,0.256,0.262,0.394c0.044,0.052,0.075,0.112,0.092,0.179
		c0.068,0.074,0.228,0.147,0.281,0.209c0.04,0.071,0.057,0.149,0.051,0.232c0.123,0.12,0.283,0.233,0.411,0.342
		c0.233,0.199,0.478,0.381,0.758,0.554c0.504,0.309,1.039,0.323,1.562,0.577c0.537,0.257,0.965,0.597,1.468,0.894
		c0.413,0.243,0.852,0.469,1.274,0.708c0.425,0.24,0.798,0.492,1.269,0.63c0.256,0.076,0.526,0.134,0.77,0.249
		c0.917,0.427,1.75,0.96,2.743,1.171c0.522,0.112,1.025,0.373,1.51,0.594c0.527,0.239,1.184,0.393,1.75,0.524
		c1.319,0.307,2.764,0.224,4.113,0.224c1.24,0,2.535,0.107,3.769-0.021c1.126-0.118,2.303-0.143,3.439-0.157
		c0.911-0.011,1.797-0.174,2.711-0.206c1.42-0.048,2.839-0.369,4.257-0.482c1.201-0.097,2.398-0.257,3.598-0.372
		c1.365-0.132,2.754-0.303,4.092-0.597c1.219-0.266,2.531-0.533,3.715-0.93c0.474-0.158,1.09-0.351,1.469-0.642
		c0.128-0.226,0.298-0.414,0.512-0.567c0.288-0.207,0.621-0.318,0.898-0.546c0.316-0.26,0.547-0.516,0.912-0.71
		c0.383-0.204,0.573-0.357,0.401-0.767c-0.305-0.723-1.223-1.035-1.356-1.873c-0.271,0.824-0.957,0.936-1.694,1.167
		c-0.245,0.076-0.439,0.227-0.688,0.296c-0.344,0.098-0.695,0.131-1.038,0.28c-0.583,0.255-1.213,0.399-1.83,0.576
		c-1.058,0.306-2.247,0.375-3.341,0.517c-1.18,0.154-2.398,0.257-3.587,0.266c-0.792,0.004-1.583-0.001-2.373-0.001
		c-1.496,0-2.993,0.106-4.482,0.099c-2.93-0.017-5.805-0.161-8.714-0.485c-1.622-0.18-3.18-0.418-4.777-0.719
		c-1.271-0.241-2.564-0.751-3.792-1.138c-1.995-0.629-3.969-1.315-5.896-2.126c-0.309-0.131-1.044-0.562-1.39-0.506
		c0.215-0.062,0.334,0.087,0.268,0.297"/>
	<path fill="none" d="M43.567,232.553c-2.518-1.969-6.989,0.65-6.093,3.9c0.486,1.76,2.175,1.918,3.773,1.573
		c1.685-0.368,2.013-1.353,3.587-2.067c-0.485,1.044-1.609,1.499-2.086,2.409c-0.571,1.092-0.635,3.73-0.563,4.907
		c0.059,0.959,0.673,3.382,2.186,3.291c1.092-0.065,3.411-2.334,3.105-3.65c0.317,2.579-3.192,6.545-1.413,8.945
		c2.188,2.952,5.16-0.301,5.484-2.784c1.454,0.734-0.102,1.691-0.247,2.922c-0.163,1.382,0.798,4.362,1.596,5.462
		c2.153,2.974,3.695,0.655,5.512-1.254c-0.102,2.46-1.031,8.185,1.31,9.612c3.332,2.029,4.579-3.156,5.415-5.147
		c-0.384,2.112,2.279,6.162,4.149,7.201c3.438,1.91,6.444,0.625,5.824-2.877c1.445,2.466,1.773,7.224,5.727,7.193
		c0.097-1.765,1.992-2.366,1.671-4.325c1.408,2.19,3.425,5.123,5.301,6.839c4.428,4.049,3.647-1.796,5.45-3.982
		c0.833,2.764,0.405,5.384,4.069,6.397c3.298,0.914,3.011-2.459,3.923-4.734c0.556-1.383,0.021-1.028,1.868,0.013
		c0.797,0.45,2.029,1.019,2.742,1.767c1.082,1.135,1.993,3.058,3.763,1.713c0.881-0.668,2.408-2.451,3.001-3.518
		c0.125,1.615,0.255,1.4,1.027,2.865c0.62,1.175,1.591,1.764,1.73,3.169c1.672,0.182,3.623,1.279,5.245,0.794
		c0.323-2.435-0.442-5.23,0.234-7.61c1.056,0.509,2.694,1.718,3.583,2.642c0.926,0.967,1.31,2.856,2.452,3.668
		c2.435,1.729,1.797,0.022,2.532-1.403c1.158-2.247,3.121-4.145,2.961-6.88c0.002,1.538,3.904,4.113,5.451,3.955
		c2.725-0.278,3.551-4.642,2.949-6.678c-0.791,0.431-0.619,0.408-0.512,1.384c2.871,0.042,3.107,2.355,6.151,0.121
		c2.739-2.012,0.799-2.106,0.104-4.571c1.372,1.006,3.396,3.139,5.563,1.922c2.189-1.23,1.357-5.208,1.314-7.253
		c-0.344,2.475,5.471,1.438,6.263,0.564c1.008-1.112,2.822-7.03,0.062-6.973c-0.549,4.053,7.167,1.22,8.353-0.271
		c1.631-2.052,1.072-5.354-2.098-5.533c1.372,0.511,5.22-0.053,6.74-1.455c2.533-2.338,1.271-4.529,0.39-5.648
		c2.415,0.125,3.226,0.71,3.895-2.142c0.33-1.403,1.419-3.675,0.391-4.675c-0.324,3.173,1.955,1.2,2.921,0
		c0.986-1.227,2.394-5.567-0.195-6.232c-3.247-0.834-4.159,9.426-7.858,9.683c-0.108,3.12-4.777,4.537-4.955,7.517
		c-2.242-0.022-1.819,1.764-3.139,2.722c-1.241,0.899-1.978,0.941-3.138,2.084c-1.836,1.81-3.743,3.722-5.843,4.989
		c-2.696,1.629-5.026,4.601-8.003,6.169c-2.943,1.551-6.607,2.547-9.393,4.412c-5.672,3.797-12.183,4.012-18.83,5.486
		c-3.278,0.728-18.756,0.442-22.399,0.451c-3.475,0.009-10.922-2.538-12.159-2.786c-0.962-0.197-2.061-0.493-3.033-0.643
		c-1.28-0.197-13.765-5.953-16.601-7.344c-2.348-1.151-4.483-2.622-6.558-4.293c-1.317-1.06-2.125-1.902-3.156-3.314
		c-0.818-1.116-1.521-3.015-2.3-3.923c-0.294-0.344-1.496-0.742-1.638-0.979c-0.367-0.612-0.32-1.607-0.699-2.152
		c-0.812-1.166-1.968-1.681-2.77-2.941c-0.58-0.913-1.503-2.161-1.942-3.119c-0.57-1.244-0.182-3.275-1.233-4.318
		c0.044,0.526,0.381,0.641,0.646,1.072"/>
</g>
</svg>
