<?xml version="1.0" encoding="utf-8"?>
<!-- Generator: Adobe Illustrator 16.0.4, SVG Export Plug-In . SVG Version: 6.00 Build 0)  -->
<!DOCTYPE svg PUBLIC "-//W3C//DTD SVG 1.1//EN" "http://www.w3.org/Graphics/SVG/1.1/DTD/svg11.dtd">
<svg version="1.1" id="Ebene_1" xmlns="http://www.w3.org/2000/svg" xmlns:xlink="http://www.w3.org/1999/xlink" x="0px" y="0px"
	 width="283.46px" height="425.2px" viewBox="0 0 283.46 425.2" enable-background="new 0 0 283.46 425.2" xml:space="preserve">
<g>
	<path fill="#245977" d="M189.885,245.857c-0.949-2.943-1.766-6.325-3.232-9.095c-1.497-2.823-14.033-4.051-16.82-5.2
		c-3.232-1.334-5.637,1.96-8.979,2.134c0.323,2.494-1.5,0.541-3.449,2.48c-1.646,1.641-8.675,8.17-12.506,9.973
		c-5.455,2.562-6.715,0.559-12.459-0.185c-2.601-0.337-9.753-0.467-15.349-1.128c-0.371-0.042-31.253-0.483-31.623-0.518
		c-4.793-0.458-48.177,0.058-49.999,0.427c-1.729,0.351-11.375,1.697-15.363,0.641c0.026,0.044,0.043,0.092,0.066,0.137
		c-0.019,0-0.036,0.004-0.054,0.005c-0.036-0.065-0.064-0.134-0.102-0.198c-0.262-0.078-0.495-0.168-0.696-0.271
		c-2.863-1.473-7.386-4.952-10.039-1.057c-1.463,2.147-1.732,7.02,0.811,8.444c2.763,1.551,7.129,0.113,9.898-0.239
		c0.082,0.023,0.169,0.015,0.256-0.035c0.018-0.011,0.035-0.025,0.053-0.04c-0.002,0.006-0.003,0.013-0.006,0.018
		c1.913-0.248,5.104-0.897,6.805-1.108c1.74-0.214,50.561,3.495,54.878,3.531c3.662,0.032,20.039-0.456,26.608,2.293
		c2.974,1.246,9.138-0.279,11.881,1.384c1.269,0.769,6.304,4.171,7.3,5.098c1.959,1.824,6.756,8.71,6.739,12.059
		c-0.009,1.83,0.372,10.029-0.02,11.535c-0.943,3.639-5.288,44.355-7.528,51.588c-1.099,3.547-1.886,6.945-3.092,10.435
		c-0.925,2.676-1.169,4.963-2.001,7.613c-0.17,0.139-0.216,0.254-0.241,0.508c-0.021,0.212,0.19,0.362,0.385,0.374
		c0.051,0.003,0.09,0.026,0.133,0.042c0.003,0.02,0.006,0.038,0.009,0.058c0.038,0.22,0.24,0.293,0.426,0.256
		c0.015-0.003,0.217,0.12,0.245,0.141c0.076,0.057,0.114,0.143,0.18,0.208c0.14,0.137,0.317,0.21,0.508,0.267
		c0.51,0.154,0.96,0.475,1.456,0.684c0.295,0.125,0.633,0.173,0.947,0.239c0.306,0.063,0.638,0.076,0.935-0.037
		c0.125-0.048,0.324-0.133,0.415-0.238c0.074-0.086,0.041-0.198,0.08-0.296c0.031-0.077,0.095-0.134,0.126-0.215
		c0.046-0.118,0.073-0.248,0.109-0.369c0.077-0.262,0.153-0.524,0.23-0.786c0.17-0.581,0.339-1.162,0.507-1.743
		c0.388-1.337,0.772-2.675,1.156-4.013c0.422-1.474,0.842-2.948,1.261-4.421c0.424-1.491,0.848-2.982,1.27-4.474
		c0.394-1.39,0.787-2.78,1.18-4.17c0.33-1.17,0.662-2.341,0.992-3.512c0.234-0.833,0.47-1.666,0.705-2.498
		c0.067-0.235,0.133-0.47,0.2-0.705c1.179-4.146,6.063-25.895,6.68-28.146c0.664-2.43,1.768-5.071,2.565-7.582
		c1.187-3.724,4.663-8.618,6.375-12.325c1.676-3.633,8.15-10.448,11.565-12.947c6.125-4.485,8.763-10.028,15.958-11.714
		C181.897,258.306,191.134,249.725,189.885,245.857"/>
	<path fill="#245977" d="M158.642,232.894c-0.408-0.069-3.159-1.463-4.48-1.792c-1.923-0.483-3.994-0.792-5.719-1.464
		c-3.37-1.313-18.531-6.223-22.36-7.867c-4.013-1.721-7.703-3.88-11.685-5.603c-1.486-0.644-8.504-1.666-10.353-2.138
		c-3.378-0.859-6.348-3.828-9.696-5.051c-3.024-1.104-15.525-10.655-18.613-12.242c-4.785-2.461-10.538-4.313-16.26-3.735
		c-2.983,0.298-4.277,1.071-7.558,0.985c-3.24-0.086-16.854-2.939-14.763-4.327c1.919-3.228,15.376-1.522,18.126-2.875
		c3.079-1.514,4.97-2.523,8.035-4.483c2.845-1.819,4.684-2.303,7.795-0.731c2.797,1.413,4.413,4.124,7.066,5.787
		c5.454,3.422,12.306,5.547,18.271,8.028c6.408,2.667,12.012,6.822,18.724,8.958c8.415,2.678,42.594,7.588,50.777,9.708
		c3.096,0.802,6.131,1.569,9.396,2.392c3.489,0.883,6.728,2.164,10.325,2.183c1.807,0.008,8.909-3.292,10.555-4.736
		c2.602-2.286,8.646-14.78,10.269-17.826c3.658-6.875,15.425-20.947,20.742-30.565c4.788-8.657,5.195-15.24,9.581-23.956
		c1.369-2.725,2.016-5.783,3.207-8.582c2.584-6.075,5.525-12.977,7.905-15.36c2.423-2.423-0.079-2.626,1.624-5.509
		c1.313-2.223,1.565-1.608,5.146-1.852c4.807-0.329,9.579-7.872,11.848-6.56c0.701,0.406-1.741,5.807-2.218,6.688
		c-0.946,1.742-1.579,2.655-4.188,4.65c-1.676,1.281-4.36,2.387-5.424,5.74c-1.024,3.237-4.925,10.18-5.552,13.588
		c-0.619,3.357-3.657,17.79-5.243,21.863c-3.842,9.856-5.45,20.493-11.212,29.577c-2.56,4.037-3.244,8.404-5.868,12.366
		c-2.293,3.461-9.535,24.055-12.802,28.529c-3.817,5.229-6.79,10.568-11.458,15.177c-1.481,1.464-3.781,2.567-5.263,4.014
		c-1.567,1.533-3.621,1.674-5,3.3c-1.493,1.759-2.419,1.13-4.298,2.518c-1.147,0.847-2.396,2.548-3.759,2.942
		c-0.698,0.2-1.953-0.022-2.65-0.111c-1.155-5.23-4.084-9.071-8.681-11.988c-2.324-1.472-4.902-2.306-7.206-3.977
		c-1.364-0.989-2.476-2.197-3.891-3.125C159.795,234.099,158.642,232.894,158.642,232.894"/>
	<path d="M79.904,185.742c-0.52,2.982-2.391,5.385-5.041,7.946c-1.45,1.401-3.318,3.028-4.408,4.716
		c-1.048,1.624-0.287,3.52,0.071,5.326c0.344,1.734,1.693,3.841,3.879,3.012c1.275-0.484,1.364-2.358,2.71-2.969
		c0.417-0.189,2.667-0.762,3.104-0.737c1.352,0.078,2.234,2.549,3.066,3.66c2.24,2.998,2.398-0.482,4.956,0.431
		c0.945,3.388,4.618,1.718,6.337,4.038c1.629,2.199,2.485,5.888,5.654,6.359c1.52,0.225,2.914-0.238,4.254-0.402
		c2.056-0.25,13.239,2.594,13.901,2.591c1.414-0.005,2.545,0.764,3.83,1.122c1.747,0.488,3.023,0.654,4.692,1.394
		c1.257,0.556,2.416,1.456,3.709,1.957c2.026,0.785,4.257,1.136,6.322,1.858c1.766,0.618,3.601,1.604,5.36,2.234
		c3.112,1.114,6.2,1.555,9.285,2.225c1.261,0.273,2.605,1.9,3.854,2.237c1.48,0.401,3.06,2.306,4.627,2.61
		c1.682,0.326,3.164-1.957,4.645-1.217c2.475,1.236,4.923,2.38,7.362,3.745c3.556,1.989,6.119,5.608,9.598,7.903
		c1.428,0.943,2.779,2.017,3.859,3.362c1.039,1.294,1.347,2.735,3.469,2.256c1.189-0.27,2.6-1.204,3.852-1.618
		c2.131-0.701,3.696-1.955,5.514-3.269c2.913-2.107,6.298-3.53,8.061-6.587c1.004-1.739,2.43-3.317,3.599-4.875
		c1.241-1.653,2.773-3.636,3.986-5.343c1.439-2.023,6.185-13.582,7.617-16.965c0.751-1.776,1.185-3.464,1.956-5.244
		c0.904-2.089,2.197-3.291,2.73-5.393c1.422-5.599,6.104-9.694,7.513-15.301c0.744-2.973-0.549-3,1.847-2.514
		c2.264,0.461,2.848-1.158,2.719-3.018c-0.09-1.313-1.573-3.128-0.866-4.226c0.688-1.07,4.064-0.608,3.152-2.827
		c-0.793-0.219-1.512-0.787-1.84-1.472c1.27-1.111,2.786,0.821,3.954-0.825c1.271-1.792-0.926-2.7-1.486-4.057
		c1.965-0.64,5.436-3.261,2.592-4.854c-1.549-0.867-1.722-0.006-3.083,0.306c-1.146,0.265-2.818,0.008-3.884-0.292
		c-2.312-0.654-4.204-2.472-6.557-2.998c-0.835-0.186-2.854-0.405-3.401,0.384c-1.031,1.488,1.359,1.635,1.794,2.438
		c-1.669,1.779-3.057,0.473-5.002,1.21c-0.521,0.198-2.146,1.986-1.972,2.669c0.23,0.896,1.875,0.661,2.32,1.391
		c-1.532,0.601-6.28,1.844-5.729,4.158c0.643-0.001,1.252,0.216,1.812,0.492c1.036,2.307-5.546,0.786-4.531,4.379
		c0.404-0.06,1.024,0.172,1.429,0.112c0.38,3.16-2.521,5.277-4.229,7.812c-1.648,2.443-3.391,4.273-4.769,6.906
		c-1.725,3.295-4.07,6.066-5.037,9.619c-0.382,1.407-3.757,7.503-4.905,9.088c-0.611,0.844-1.319,2.787-2.432,3.184
		c-0.678,0.242-1.603,0.053-2.318,0.071c-1.251,0.029-1.837,0.363-2.988,0.763c-2.845,0.987-8.035,0.697-10.928,0.097
		c-3.298-0.683-6.32-1.439-9.561-2.015c-1.562-0.277-2.976-0.5-4.711-0.646c-1.865-0.159-3.96-0.089-5.836-0.352
		c-2.714-0.378-5.796-2.018-8.471-2.911c-3.067-1.025-6.755-1.57-10.04-1.559c-7.224,0.025-14.018-1.101-20.545-3.406
		c-3.228-1.14-6.76-1.362-9.875-2.598c-2.616-1.037-5.336-3.064-7.787-4.467c-3.473-1.986-6.405-4.761-9.977-6.359
		c-1.807-0.807-3.64-0.835-5.453-1.486c-1.354-0.484-2.529-0.982-3.84-1.395c-0.972-0.306-2.383-0.548-3.135-0.998
		C80.295,187.314,79.904,185.742,79.904,185.742"/>
	<path fill="#245977" d="M127.876,356.555c-1.306-0.548-2.928-0.491-4.291-0.239c-0.71,0.13-1.393,0.342-2.057,0.623
		c-0.539,0.227-0.655,0.918-0.657,1.445c0,0.315,0.095,0.651,0.185,0.954c0.277,0.922,0.682,2.105,1.611,2.579
		c1.358,0.694,2.405,0.355,3.854,0.229c1.669-0.144,9.067-0.775,10.756-1.004c2.155-0.292,4.288,1.796,5.065,0.783
		c-0.476-1.58-3.19-3.281-4.637-3.679c-1.468-0.404-9.707-1.502-9.707-1.502S127.954,356.673,127.876,356.555"/>
	<path fill="#FF0000" d="M188.83,252.634c1.801-2.563,0.987-12.557-0.48-15.327c-1.496-2.824-15.639-5.738-18.426-6.888
		c-3.232-1.333-7.019,0.675-10.359,0.848c0.323,2.495-1.609,2.877-3.557,4.816c-1.646,1.641-7.718,7.978-11.549,9.779
		c-2.785,1.309-4.348,0.586-6.101,0.289c-0.147,0.673-0.558,3.544-0.864,4.176c-0.812,1.674-2.072,3.114-3.505,4.325
		c-2.326,1.964-5.072,3.423-7.898,4.587c-1.324,0.546-2.68,1.028-4.056,1.444c1.699,1.137,3.859,2.637,4.856,3.434
		c1.218-0.598,2.477-1.122,3.76-1.555c2.072-0.702,4.335-1.28,6.543-1.112c1.322,0.101,2.69,0.373,3.937,0.809
		c0.805,0.281,1.619,0.65,2.232,1.24c0.992,0.957,1.042,2.259,0.522,3.473c-0.708,1.66-2.029,3.064-3.319,4.323
		c-1.688,1.645-3.531,3.138-5.395,4.59c-0.384,0.299-0.774,0.591-1.162,0.887c0.013,1.379,0.143,4.742,0.156,7.479
		c0.488-0.175,0.972-0.358,1.446-0.541c1.828-0.708,3.632-1.475,5.477-2.143c2.887-1.046,5.967-1.963,9.076-1.874
		c1.104,0.031,2.206,0.194,3.254,0.524c2.644-3.202,6.134-6.63,8.346-8.25c6.126-4.485,8.764-10.029,15.959-11.713
		C181.402,259.393,185.631,257.184,188.83,252.634"/>
	<path fill="#245977" d="M132.247,276.409c-2.365,2.299,0.092,4.018-0.248,5.744c-0.648,3.281-2.445,9.112-5.383,10.648
		c-3.92,2.046-10.384,2.546-14.344-0.202c-0.815-0.566-1.323-1.35-1.529-2.304c-0.108-0.5-0.325-0.929-0.526-1.396
		c-0.258-0.599-0.398-1.24-0.542-1.873c-0.281-1.236-0.468-2.56-0.472-3.822c-0.006-1.915,1.585-3.5,2.697-4.881
		c0.459-0.569,0.968-1.153,1.566-1.57c0.524-0.365,1.094-0.755,1.689-0.978c0.337-0.127,0.612-0.324,0.939-0.443
		c0.241-0.087,0.5-0.118,0.764-0.185c0.813-0.204,1.628-0.721,2.128-1.386c0.532-0.708,1.402-1.128,2.071-1.7
		c1.364-1.163,2.478-2.572,3.503-4.033c0.916-1.306,1.771-2.654,2.753-3.912c2.421-3.093,7.945-2.518,10.513,0.963
		c1.471,1.998,1.861,4.079,1.471,5.183c-0.389,1.104-1.156,2.674-2.36,3.605C135.787,274.758,133.408,275.282,132.247,276.409"/>
	<path fill="#FF0000" d="M125.54,277.782c0.012-0.005-0.636-0.17-0.797-0.144c-0.306,0.05-0.82-0.055-0.936-0.154
		c-0.129-0.113-0.714-0.183-1.016-0.455c-0.187-0.169-0.468-0.878-1.136-1.018c0.357-0.082,2.304,0.29,2.743,0.471
		c0.638,0.265,2.077,0.979,1.837,1.769C125.96,278.008,125.54,277.782,125.54,277.782"/>
	<path d="M113.541,280.24c0.27,0.833,0.364,0.998,1.052,1.511c0.757,0.564,1.408,0.61,1.259,0.613l-0.135,0.566l-1.496-0.247
		l0.081-0.32l-0.496-0.497L113.541,280.24z"/>
	<path d="M118.314,282.096c-0.795,0.419-0.98,0.477-1.831,0.403c-0.936-0.083-1.421-0.467-1.319-0.37l-0.319,0.491l1.216,0.78
		l0.179-0.278l0.704-0.037L118.314,282.096z"/>
	<path d="M122.143,283.571c0.27,0.833,0.364,0.998,1.051,1.511c0.757,0.564,1.408,0.611,1.259,0.613l-0.135,0.565l-1.496-0.246
		l0.081-0.32l-0.495-0.496L122.143,283.571z"/>
	<path d="M127.216,284.497c-0.554,0.703-0.712,0.826-1.68,1.049c-1.067,0.246-1.864,0.028-1.686,0.09l0.008,0.606l1.87,0.363
		l-0.009-0.344l0.733-0.283L127.216,284.497z"/>
	<path d="M126.166,283.89c-0.184,0.089-0.453,0.259-0.661,0.258c-0.239,0-0.542-0.112-0.699-0.226
		c-0.35-0.252-0.477-0.579-0.586-0.91c0.26-0.055,0.402-0.032,0.66-0.011c0.341,0.026,0.446,0.086,0.87,0.191
		c0.244,0.06,0.606,0.458,0.357,0.651c-0.024-0.028-0.032-0.059-0.025-0.094"/>
	<path d="M116.828,281c-0.486-0.203-0.846-0.223-1.018-0.672c-0.145-0.372-0.051-0.718,0.146-0.996
		c0.601,0.235,0.833,0.45,1.292,0.769c0.181,0.125,0.542,0.675,0.347,0.796C117.48,280.968,117.006,281.075,116.828,281"/>
	<path d="M131.44,281.632c-0.012-0.104-0.013-0.112-0.003-0.019c0.122,1.061,0.948,2.568-0.615,2.801
		c-0.048,1.291,0.148,2.363-1.455,2.6c-0.013,0.66,0.245,1.303-0.042,1.946c-0.242,0.542-1.009,1.145-1.629,0.799
		c0.973,1.044,0.028,2.624-1.381,2.071c0.786,0.978-2.132,2.064-2.24,0.646c0.079,0.569-0.688,1.174-1.187,1.343
		c-0.807,0.272-1.336-0.126-1.712-0.791c-0.198,0.592-1.373,0.759-1.926,0.668c-0.81-0.134-0.884-0.784-1.166-1.353
		c-0.293,0.444-1.486,0.702-1.957,0.525c-0.638-0.243-0.874-1.528-0.485-1.975c0.062,0.066,0.073,0.139,0.034,0.22
		c-0.509,0.125-1.396,0.295-1.875,0.07c-0.399-0.19-0.38-0.524-0.583-0.821c-0.13-0.192,0.079-0.243-0.182-0.38
		c-0.136-0.071-0.503,0.095-0.65,0.112c-0.354,0.039-0.262,0.231-0.541-0.094c-0.113-0.132-0.188-0.785-0.229-0.981
		c-0.042-0.197,0.011-0.461-0.036-0.64c-0.016-0.063,0.118-0.126,0.06-0.261c-0.02-0.045-0.353-0.194-0.404-0.237
		c-0.562-0.478-0.786-1.123-0.741-1.863c0-0.105,0.04-0.194,0.122-0.267c-0.01-0.101-0.066-0.253-0.076-0.337
		c-0.041-0.35-0.18-0.76-0.219-1.144c-0.104-1.013-0.111-2.861,1.521-2.753c-0.69-0.691,0.007-1.237,0.43-1.826
		c0.457-0.638,0.479-1.236,1.217-1.608c0.533-0.269,0.466-0.227,0.485-0.787c0.016-0.46,0.171-0.615,0.596-0.866
		c0.197-0.117,0.401-0.178,0.585-0.315c0.114-0.085,0.042-0.288,0.243-0.389c0.316-0.162,0.91,0.102,0.912-0.453
		c1.498-0.035,0.372-2.212-0.837-1.559c-0.009,0.264,0.129,0.435,0.385,0.444c-0.381-0.405-0.766-0.769-1.362-0.875
		c-1.187-0.211-1.165,0.523-1.062,1.342c-0.353-0.613-0.678-1.043-1.326-0.893c-0.26,0.06-0.513,0.117-0.738,0.229
		c-0.423,0.212-0.781,0.663-1.255,0.791c-0.476,0.127-0.976-0.109-1.45-0.12c-0.619-0.014-1.19,0.158-1.716,0.46
		c-1.348,0.774-0.714,1.7,0.016,2.625c-0.474-1.18-1.897-0.351-2.349,0.468c-0.483,0.877,0.175,1.758,0.14,2.641
		c-1.227-0.544-1.654,0.693-1.525,1.78c0.074,0.624,0.665,1.742,0.114,2.236c-0.192,0.172-0.521,0.189-0.732,0.361
		c-0.335,0.271-0.574,0.843-0.675,1.23c-0.266,1.018-0.204,2.04-0.255,3.069c-0.523,0.136-0.823,0.109-1.247,0.521
		c-0.519,0.502-0.827,1.024-0.858,1.729c-0.078,1.781,1.058,3.054,2.914,3.085c-0.925,0.085-1.682,0.827-1.502,1.826
		c0.17,0.949,1.363,1.596,2.155,1.967c0.997,0.467,1.403,0.375,2.341,0.41c-0.426,1.185,0.259,1.886,1.415,2.474
		c2.216,1.126,5.01,1.188,6.182-1.194c-0.138,1.18,1.941,1.528,2.781,1.554c1.091,0.035,2.081-0.384,2.771-1.206
		c0.293-0.35,0.717-0.899,0.576-1.378c-0.107,1.25,1.936,1.187,2.74,0.942c1.087-0.331,2.047-1.14,2.845-1.888
		c0.613-0.574,1.487-1.231,1.752-2.038c-0.407,0.848,0.675,1.457,1.462,1.482c0.958,0.032,2.009-0.482,2.593-1.222
		c0.412-0.52,0.738-1.459-0.03-1.819c0.348,0.976,1.854,0.886,2.5,0.235c0.578-0.583,0.817-1.775,0.975-2.537
		c0.098-0.475,0.325-1.42-0.021-1.841c1.025,0.272,1.41,0.168,1.67-1.021c0.198-0.903,1.17-4.605-0.697-4.583
		c-0.05,0.298,0.242,0.536,0.536,0.428c0.122-1.001-0.027-1.831-0.523-2.767c-0.254-0.478-0.663-1.031-1.204-1.252
		c-0.247-0.101-0.751-0.256-0.63,0.162c0.452-0.095,0.362-1.913,0.289-2.27c-0.094-0.456-0.404-0.996-0.899-1.113
		c-0.858-0.201-1.023,0.843-0.936,1.452c-0.09-0.324-0.451-0.68-0.833-0.496c-0.019,0.869,0.234,1.739,0.509,2.501"/>
	<path d="M131.051,280.779c-0.005,0.004-0.119-0.07,0.093,0.123c0.232-0.584,1.25-1.419,1.124-2.067
		c-0.141-0.057-0.35-0.073-0.497-0.029c0.275,0.973,1.631-0.89,1.756-1.124c0.305-0.564,0.363-1.304,0.341-1.933
		c-0.112-0.011-0.217-0.065-0.337-0.042c0.916,0.05,1.532-2.713,0.062-2.417c-0.057,0.07-0.062,0.143-0.017,0.22
		c0.528-0.076,0.662-1.416,0.675-1.868c0.015-0.513-0.024-0.928-0.539-1.224c0.219-0.234,0.229-0.773,0.219-1.103
		c-0.01-0.349-0.428-1.067-0.979-0.698c-0.37,0.247-0.112,0.952,0.321,0.729c0.265-0.135,0.253-1.146,0.222-1.379
		c-0.094-0.688-0.648-1.09-1.324-1.235c-0.724-0.155-0.851,0.109-1.205-0.53c-0.564-1.02-1.706-1.745-2.545-0.57
		c0.19-1.397-2.306-1.328-2.125,0.101c0.387-1.559-3.103-0.38-2.047,0.735c0.034-0.103,0.012-0.219,0.002-0.322
		c-0.843-0.161-2.271,0.3-1.746,1.404c-0.743-0.663-2.517,0.462-1.841,1.361c-0.801,0.009-1.351,0.356-1.801,1.033
		c-0.238,0.359-0.652,1.503-0.144,1.78c0.026-0.953-1.387,0.48-1.485,0.675c-0.131,0.261-0.384,1.718,0.271,1.347
		c-0.433,0.993,1.976,0.872,2.016-0.374c-0.19,0.53,0.272,0.6,0.658,0.66c0.591,0.092,1.155-0.149,1.345-0.765
		c-0.419,1.143,1.957,1.464,1.643,0.497c-0.813,0.189,0.348,1.695,1.23,1.024c0.235,0.55,0.981,0.934,1.569,0.642
		c0.023,0.671,1.09,1.037,1.545,0.498c-0.089,0.415-0.309,0.523,0.016,0.89c0.235,0.268,0.744,0.531,1.077,0.354
		c-0.468,0.517-0.137,0.931,0.334,1.231c-0.978,0.606-0.388,1.142,0.433,1.484c-0.395-0.025-0.746,0.634-0.728,0.973
		c0.021,0.425,0.456,0.762,0.844,0.849c0.062,0.495-0.275,0.875-0.235,1.375c0.043,0.553,0.61,0.624,0.711,1.078
		c0.106,0.474-0.485,0.916,0.108,1.396c0.53,0.431,1.185,0.328,1.488-0.112c0.268-0.391,0.328-0.955,0.488-1.379
		c0.206-0.537,0.495-0.914,0.563-1.497c0.118-1.008-0.501-1.695-0.418-2.729"/>
	<path d="M129.493,280.808c-0.001,0.009-0.063-0.271-0.055-0.361c-0.284-0.067-0.566,0.088-0.759,0.267
		c-0.079-0.462-0.549-0.462-0.936-0.345c-0.053,0.133-0.093,0.357-0.083,0.493c0.138-0.114,0.098-0.167,0.052-0.362
		c-0.336-0.005-0.679,0.077-1.012,0.066c-0.094-0.45-0.809-0.527-1.125-0.297c0.018-0.062,0.005-0.121-0.034-0.176
		c-0.074-0.013-0.149-0.021-0.224-0.025c-0.002-0.1-0.091-0.244-0.085-0.342c-0.345,0.437-1.05,0.505-1.213-0.13
		c-0.293,0.318-0.692,0.098-0.686-0.308c-0.463,0.03-1.051,0.07-1.123-0.525c-0.436,0.05-0.746-0.082-0.718-0.54
		c-0.404,0.323-0.858-0.112-0.576-0.476c-0.287,0.007-1.105,0.065-0.709-0.44c-0.745,0.138-1.065-0.278-1.166-0.916
		c-0.264-0.001-0.478,0.27-0.762,0.18c-0.338-0.107-0.503-0.794-0.529-1.079c-0.402,0.328-0.78-0.027-0.83-0.43
		c-0.04-0.325,0.089-0.379,0.168-0.671c0.06-0.221,0.038-0.427,0.089-0.645c0.215-0.91,2.674-2.229,3.007-0.847
		c0.444-0.289,0.95-0.4,1.501-0.379c0.197,0.291,0.408,0.797-0.105,0.892c1.115-0.441,0.77,1.91-0.118,1.659
		c-0.056-0.065-0.062-0.136-0.022-0.21c0.133-0.067,0.345-0.091,0.489-0.055c0.333,0.674-0.519,0.572-0.647,1.046
		c0.361,0.142,0.468,2.082,1.327,1.359c0.058,0.388,0.867,0.437,1.218,0.49c0.215,0.64,0.912,0.355,1.373,0.495
		c0.228,0.069,0.316,0.263,0.594,0.307c0.174,0.027,0.195-0.136,0.287-0.143c0.138-0.011,0.186,0.107,0.367,0.071
		c0.804-0.157,0.577-0.288,0.402-0.917c-0.083-0.296-0.203-0.324,0.104-0.624c0.183-0.181,0.587-0.394,0.643-0.01
		c-0.501-0.249,0.207-0.802,0.473-0.965c0.933-0.577,1.105-0.081,1.48,0.678c0.232,0.47,0.742,0.873,0.949,1.374
		c0.17,0.414,0.185,1.401-0.449,1.388c0.195,0.25,0.412,0.574,0.192,0.873c-0.272,0.369-0.879,0.011-1.172,0.368"/>
	<path fill="#245977" d="M156.379,256.668c-0.288-0.002-0.419,0.134-0.394,0.407c1.041,1.442,3.101,0.806,4.685,0.647
		c2.472-0.247,4.549-1.415,5.639-3.657c2.42-4.984-2.096-10.42-7.167-10.958c-9.395-0.996-9.139,12.349-1.543,14.403
		c-0.124-0.06-0.248-0.119-0.372-0.179"/>
</g>
</svg>
