<?xml version="1.0" encoding="utf-8"?>
<!-- Generator: Adobe Illustrator 16.0.4, SVG Export Plug-In . SVG Version: 6.00 Build 0)  -->
<!DOCTYPE svg PUBLIC "-//W3C//DTD SVG 1.1//EN" "http://www.w3.org/Graphics/SVG/1.1/DTD/svg11.dtd">
<svg version="1.1" id="Ebene_1" xmlns="http://www.w3.org/2000/svg" xmlns:xlink="http://www.w3.org/1999/xlink" x="0px" y="0px"
	 width="283.46px" height="425.2px" viewBox="0 0 283.46 425.2" enable-background="new 0 0 283.46 425.2" xml:space="preserve">
<g>
	<path fill="#245977" d="M80.581,234.178c-1.238,5.242-2.653,11.534-2.604,16.838c0.043,5.171,0.368,9.85,0.354,15.065
		c3.379,1.325,7.272,1.799,10.338,3.326c2.239,1.103,6.53,4.184,9.063,3.903c1.939-4.995,3.579-8.754,6.064-13.474
		c2.199-4.189,4.925-8.787,5.599-13.698c0.514-3.763-0.59-4.143-3.96-6.359c-3.391-2.226-7.835-3.25-11.576-4.692
		c-2.27-0.881-12.809-0.25-12.717,0.024"/>
	<path fill="#245977" d="M157.621,202.512c-0.131,0.621-0.163,0.661-0.042,0.112c0.572-4.179,10.813-10.481,14.396-12.232
		c4.816-2.363,12.852,3.98,17.236,6.494c3.51,2.015,2.529,3.65,0.474,7.082c-1.771,2.927-4.036,5.456-6.756,7.854
		c-4.296,3.781-10.882,11.724-17.035,11.743c-1.655-3.624-2.853-6.76-5.295-9.997c-1.565-2.077-3.499-6.856-6.242-7.269
		c0.611-0.719,1.339-0.396,2.33-0.046"/>
	<path fill="#FF0000" d="M99.262,198.417c-0.097,0.185-0.03,0.281,0.167,0.271c1.91-1.436,3.428-2.321,4.596-4.591
		c1.011-1.96,1.635-4.397,1.944-6.572c0.751-5.074,1.504-10.221,1.615-15.464c0.157-6.836,2.047-13.55,2.641-20.32
		c0.422-5.039-0.066-10.368-0.522-15.164c-0.062-0.589-0.181-1.129-0.439-1.669c-0.445-0.957-0.91-0.957-1.906-1.251
		c-1.483-0.449-2.99-0.52-4.471-0.84c-2.901-0.623-4.886-2.897-6.957-4.755c-1.243,0.733-2.144,1.208-3.63,1.181
		c-2.153-0.031-2.001-2.291-1.298-3.878c0.354-0.015,0.682,0.116,0.866,0.381c0.146-0.606,0.326-2.062,0.926-2.383
		c0.935-0.512,1.526,0.524,1.893,1.049c0.036-0.677-0.209-1.542,0.224-2.138c0.539-0.738,1.553-0.621,1.904,0.255
		c-0.106-0.983-0.071-2.79,0.6-3.669c0.587-0.769,2.245-0.678,2.302,0.534c-0.387-0.799-0.316-2.306,0.13-3.09
		c0.47-0.841,2.815-1.384,2.303-0.366c-0.194-0.851,0.301-2.596,1.068-3.085c0.908-0.576,1.69-0.016,1.823,0.941
		c-0.417-0.912,0.537-2.285,1.614-1.944c0.891,0.29,1.115,1.868,0.665,2.622c1.939-2.25,2.934,2.015,2.171,3.45
		c-0.576,1.06-2.133,2.158-1.743,3.268c0.168,0.468,1.02,1.146,1.396,1.527c0.728,0.713,1.385,1.527,2.017,2.331
		c0.94,1.227,1.749,2.155,3.121,2.739c1.601,0.687,3.241,1.202,4.956,1.709c1.37,0.402,3.604,1.574,5.023,1.507
		c1.321-0.062,2.429-1.68,2.982-2.621c0.215-0.375,0.593-1.437,1.16-1.386c0.889,0.067,0.553,1.788,0.315,2.272
		c0.573-2.363,2.498-0.713,2.46,0.987c0.097-0.625,0.535-1.772,1.246-1.817c1.081-0.087,1.1,1.67,1.263,2.312
		c0.21-0.469,0.847-1.966,1.57-1.73c0.728,0.237,0.562,2.171,0.503,2.654c0.695-0.381,0.291-1.949,0.943-2.397
		c1.298-0.885,1.045,1.299,1.423,1.782c0.091-0.712,0.752-2.093,1.681-1.684c0.32,0.127,0.855,1.653,0.917,2.05
		c0.127,0.683-0.162,1.264,0.168,1.971c0.33,0.727,1.246,1.466,1.934,1.807c1.333,0.672,2.722,1.405,4.128,1.974
		c1.17,0.479,2.27,1.411,3.456,0.831c1.115-0.52,1.75-1.522,2.52-2.408c0.713-0.824,1.833-1.898,2.285-2.84
		c0.535-1.15,0.516-2.994,1.636-3.748c2.271-1.537,1.394,1.833,1.125,2.75c0.035-0.672,1.775-2.398,2.486-1.635
		c0.795,0.866-0.589,2.642-0.834,3.406c-0.253-0.49,0.993-1.313,1.591-1.008c1.108,0.561-0.49,2.442-1.122,2.83
		c0.434-0.326,1.903-1.11,2.482-0.692c0.827,0.596-0.231,1.506-0.355,2.128c0.607-0.291,1.537-0.449,2.17-0.047
		c-0.148,0.728-0.377,2.327-1.346,2.255c0.435-0.59,1.514-1.079,1.885-0.357c0.402,0.759-0.568,1.878-0.998,2.353
		c2.723,0.646-1.146,2.81-1.75,3.419c1.016,1.013-0.866,1.638-1.377,2.086c1.59,0.419-0.437,1.767-1.251,1.71
		c1.083,1.516-1.801,2.006-1.886,1.411c0.546,0.719-0.964,0.555-1.427,0.534c-0.896-0.076-1.034-0.304-1.768-0.783
		c-1.212-0.779-2.676-1.45-4.164-1.69c-0.115,0.453-0.432,0.611-0.595,1.017c-0.183,0.438-0.2,0.946-0.393,1.385
		c-0.417,0.952-1.021,1.797-1.354,2.815c-0.695,2.184-1.566,4.455-2.26,6.775c-1.365,4.627-2.743,9.255-4.123,13.882
		c-2.94,9.9-5.109,20.56-5.152,30.708c-0.009,1.089-0.08,2.332-0.039,3.441c0.046,0.982,0.056,2.484,0.398,3.35
		c-0.9-0.051-2.251,0.205-3.209,0.27c-1.965,0.132-3.899,0.31-5.944,0.168c-1.649-0.113-3.344-0.021-4.989-0.174
		c-2.361-0.213-4.434-1.114-6.718-1.521c-3.127-0.576-6.158-1.568-9.224-2.485c-2.743-0.809-4.857-2.051-6.923-3.975
		c-0.795-0.738-1.594-1.609-1.727-2.754c-0.102-0.809,0.76-2.911,1.949-2.193"/>
	<path d="M171.583,222.491c0.229-1.44,0.581-4.688-0.403-5.88c0.296,0.408,0.562,0.264,0.953,0.438
		c1.527-3.532-0.55-7.9-4.261-8.923c0.737-3.319-5.757-6.424-7.848-5.257c-0.255-0.673-2.107-1.65-2.441-1.799
		c-1.077-0.487-5.165-2.071-5.186,0.194c-0.182-1.817-4.805-3.721-5.798-1.681c-0.777-0.27-1.532-0.157-2.357-0.183
		c-0.793-0.021-1.598-0.274-2.451-0.392c-0.244,0.448-0.593,0.646-0.831,1.088c-0.657-0.082-1.278-0.356-1.929-0.453
		c-0.137,0.847-0.749,0.657-1.064,1.171c-0.34,0.551-0.461,1.283-0.646,1.925c-0.411,1.398-0.915,2.677-0.854,4.128
		c0.054,1.344,0.738,2.871,0.687,4.148c-0.006,0.218-0.058,0.397-0.137,0.58c-0.246-0.887-0.43-1.659-0.399-2.198
		c-1.312,0.188-2.738-0.063-4.056-0.25c0.239-1.766,0.642-3.538,0.828-5.33c0.263-2.284,0.746-4.458,1.04-6.749
		c0.3-2.29,0.372-4.674,0.816-6.943c1.922-9.855,3.583-19.685,6.464-29.361c0.681-2.341,1.648-4.566,2.309-6.888
		c0.837-2.938,2.628-5.501,3.793-8.302c1.137-2.763,1.636-5.768,2.277-8.583c-0.286-0.172-0.498-0.412-0.736-0.621l1.554,0.814
		c-0.885-0.611-1.145-1.375-2.273-1.456c-0.043,0.067-0.072,0.122-0.109,0.204c-1.115,2.393-2.477,4.439-3.72,6.729
		c-2.892,5.263-4.409,11.341-6.128,17.138c-1.496,5.03-3.223,10.073-4.225,15.163c-1.935,9.748-3.859,19.175-4.485,29.046
		c-0.105,1.669-0.198,3.252-0.188,4.866c-2.958-0.274-5.932-0.875-8.914-1.297c-1.226,0.209-2.433,0.076-3.6-0.407
		c-0.136-0.066-0.207-0.157-0.265-0.271c-2.605-0.56-5.166-1.363-7.728-2.189c0.175-1.13,0.388-2.361,0.576-3.532
		c0.326-2.133,0.892-4.332,1.094-6.505c0.867-9.004,3.258-17.968,4.75-26.888c0.785-4.702,1.972-9.309,2.408-14.042
		c0.398-4.485,1.024-8.934,1.477-13.402c0.249-2.398,0.473-4.826,0.761-7.219c0.206-1.552-0.436-3.675,0.194-5.191
		c-0.854-0.275-3.459-0.434-4.111-0.672c-0.556,0.723-0.139,2.219-0.183,3.003c-0.053,1.18,0.01,2.371,0.121,3.537
		c0.297,3.162,0.162,6.613-0.097,9.82c-0.514,6.667-1.465,13.291-2.615,19.674c-1.201,6.657-2.019,13.178-3.102,19.8
		c-0.818,4.979-1.627,10.125-3.136,15.123c-0.537,1.834-0.904,3.646-1.384,5.493c-1.389-0.393-2.768-0.753-4.175-1.008
		c0,0.097-0.081,0.213-0.208,0.183c-0.331-0.091-0.637-0.116-0.961-0.122c-0.023,0.031-0.042,0.062-0.072,0.091
		c-0.148-0.091-0.315-0.178-0.455-0.274c-0.604-0.382-0.899-0.728-1.029-1.125l0.609-0.713c0.162-2.749,3.278-5.004,3.48-7.742
		c0.192-2.642-4.683-3.715-5.506-1.226c1.632-2.719-2.433-6.579-4.582-4.297c0.723-2.433-5.478-3.869-5.468-1.039
		c-1.182-2.693-4.539-1.608-6.075,0.107c-0.797-2.881-3.668-1.726-5.493-0.655c-0.866-3.229-5.256-0.699-6.144,1.113
		c-1.427-3.863-9.276,4.174-9.113,6.896c0,0.154,0.041,0.322,0.072,0.484c-0.208,0.468-0.372,0.89-0.443,1.247
		c0,0-0.646,4.104-2.866-1.46c-0.442,1.71-0.978,3.314-1.036,5.043c-0.038,1.253,0.358,2.251,1.168,3.192
		c0.489,0.586,2.099,1.427,2.312,2.137c0.477,1.585-3.341,0.414-2.588,2.653c0.388,1.125,2.78,1.761,3.381,3.095
		c-0.563-0.153-1.159-0.118-1.734-0.021c-0.245,0.622,0.717,2.571,1.082,3.202c0.842,1.441,2.344,1.595,3.777,2.271
		c-1.001,2.087-1.551,3.471-0.326,5.874c0.428,0.837,0.943,1.461,1.499,1.818c0.315,0.131,0.631,0.252,0.967,0.356
		c0,0,0.01-0.01,0.02-0.015c0.617,0.02,1.258-0.271,1.935-1.009c-0.118,1.009-0.499,1.719-0.326,2.765
		c0.234,1.424,1.584,3.691,2.826,4.474c1.756,1.115,4.513,1.345,5.863-0.368c0.718,0.4,0.997,2.705,1.247,3.469
		c0.142,0.375,0.31,0.725,0.483,1.082c0.045,0.037,0.105,0.053,0.146,0.126c0.143,0.307,0.25,0.622,0.373,0.927
		c0.016-0.009,0.03-0.004,0.045-0.024c0.641,0.982,1.476,1.821,2.613,2.376c2.09,1.019,6.713,2.173,7.593-0.94
		c1.083,0.279,0.872,1.515,1.099,2.477c0.399,1.648,1.513,3.916,3.035,4.882c2.167,1.327,6.204,0.718,6.693-2.23
		c0.488,1.838,1.23,3.594,3.078,4.454c1.915,0.892,3.869,0.123,4.687-1.903c0.985,1.242,1.389,2.711,2.979,3.452
		c2.562,1.174,2.484,0.101,3.479-1.875c1.499,2.312,3.548,4.363,6.703,4.441c3.131,0.08,4.127-3.336,4.985-5.697
		c1.066,0.005,1.667,0.834,2.507,1.333c2.314,1.329,5.626,2.474,8.317,2.561c0.877,0.037,1.567-0.126,2.164-0.388
		c0.642-0.509,1.251-1.036,1.858-1.579c1.052-1.561,1.512-3.735,2.325-5.593c0.922-0.047,1.781,0.938,2.739,1.12
		c1.413,0.27,2.074-0.153,3.247-1.068c0.68-0.55,1.48-1.248,1.791-2.068c0.44-1.083,0.102-2.136,0.35-3.197
		c1.66,1.929,3.312,2.965,5.981,1.755c0.419-0.259,0.804-0.537,1.19-0.895c0.063-0.062,0.148-0.066,0.226-0.081
		c0.692-0.824,0.766-1.836,1.34-3.017c0.762,2.395,4.356,1.567,5.706,0.22c2.075-2.048,1.975-4.268,3.148-6.726
		c0.271,0.325,0.884,0.425,1.167,0.627C170.84,226.38,171.323,224.19,171.583,222.491z"/>
	<path fill="#245977" d="M131.325,128.265c0.469,0.392,1.302-3.074,1.566-3.934c0.661-2.229,1.325-4.458,1.986-6.684
		c1.217-4.086,2.633-8.21,3.289-12.374c0.575-3.522,1.236-7.834,0-11.179c-0.291-0.759-1.217-1.154-0.296-1.812
		c0.579-0.408,1.781,0.234,2.413,0.428c1.771,0.534,4.121-0.01,5.679,0.946c-0.522,3.234-1.771,6.525-2.412,9.676
		c-0.742,3.727-2.204,7.447-3.287,11.093c-0.977,3.287-1.958,6.485-2.517,9.717c-0.567,3.432-0.567,7.01-0.838,10.552
		c-2.111-0.351-7.057-3.573-5.694-6.057"/>
	<path fill="#245977" d="M146.153,93.244c1.476,1.216,4.088-5.635,4.414-6.724c1.002-3.395,1.22-6.027,0.069-9.357
		c-1.06-3.018-2.794-5.955-5.533-7.552c-2.56-1.501-5.975-3.517-9.087-1.821c-2.845,1.537-4.793,5.542-5.75,8.484
		c-1.11,3.446-2.072,6.897-1.914,10.48c0.188,4.235,2.896,5.411,6.567,6.368c1.613,0.433,3.134,0.112,4.736,0.301
		c1.555,0.172,3.122,0.519,4.619,0.381c1.214-0.096,4.306-0.352,4.383-2.229"/>
	<path d="M130.373,77.292c0.967,1.874-8.12,3.486-9.625,3.888c-3.217,0.872-6.434,2.062-9.651,2.836
		c-2.137,0.51-4.118,1.405-6.252,2.097c-0.896,0.285-2.577,0.274-3.123,1.268c-0.786,1.359,0.054,1.247,0.986,1.792
		c2.805,1.654,5.852,0.402,8.882-0.158c6.521-1.216,13.693-1.222,20.152-0.03c3.419,0.636,4.774-3.175,4.312-6.083
		c-0.229-1.363-0.505-2.249-1.46-3.228c-0.655-0.671-2.607-2.555-3.677-1.928c-0.192,0.066-0.326,0.199-0.397,0.408"/>
	<path d="M135.961,84.184c2.316,2.317,7.988,4.672,11.142,2.81c1.416-0.84,6.356-8.857,3.336-9.315
		c-0.718,1.553-0.809,3.304-1.843,4.627c-1.054,1.349-2.298,2-3.937,2.454c-3.835,1.037-6.563-0.974-10.346-1.376
		c0.311,0.45,0.737,0.612,1.277,0.693"/>
	<path fill="#FFFFFF" d="M139.431,77.964c1.351-1.696,6.699-0.3,5.832,2.142c-0.363,1.039-3.085,0.616-3.797,0.489
		c-1.569-0.26-2.425-0.702-2.504-2.271c0.254-0.05,0.492,0.006,0.72,0.128"/>
	<path d="M139.581,78c0.026-0.153-0.097-0.714-0.15-0.978c-0.052-0.336-0.085-0.6-0.038-0.961c0.127-0.953,0.545-1.763,1.177-2.475
		c-0.404,1.206-0.651,2.326-0.062,3.496c0.082-0.148,0.035-0.263,0.066-0.386c0.04-0.291,0.127-0.622,0.239-0.896
		c0.116-0.306,0.347-0.732,0.682-0.855c-0.091,0.357-0.306,0.566-0.32,0.962c0,0.266,0.071,0.962,0.353,1.074
		c0.136-0.203,0.339-0.356,0.456-0.6c0.102-0.158,0.2-0.586,0.321-0.641c-0.066,0.406,0.037,0.895-0.097,1.291
		c0.499,0.254,0.732-0.952,0.947-1.048c-0.062,0.234,0,0.489-0.009,0.728c-0.014,0.266-0.094,0.499-0.176,0.769
		c0.276-0.235,0.603-0.188,0.89-0.463c0.24-0.224,0.316-0.508,0.411-0.83c0.004,0.662,0.093,1.267,0.009,1.95
		c0.273,0.128,0.475-0.417,0.738-0.484c0.04,0.474,0.396,0.896,0.021,1.324c-0.438,0.479-1.198,0.102-1.671-0.112
		c-0.926-0.391-2.571-1.823-3.543-0.723c0.133-0.01,0.275-0.056,0.406-0.111"/>
	<path d="M141.61,77.633c-0.157-0.331-0.661-0.209-0.93-0.082c-0.426,0.234-0.564,0.611-0.703,1.059
		c-0.278,0.961,0.297,1.7,1.254,1.948c0.891,0.23,1.989-0.477,1.815-1.454c-0.064-0.382-0.321-0.815-0.589-1.069
		c-0.303-0.265-1.096-0.718-1.217-0.045"/>
	<path fill="#FFFFFF" d="M102.809,88.877c0.023,0.111,0.086,0.167,0.189,0.183c0.646-0.468,1.73-0.748,2.515-0.961
		c1.108-0.327,2.332-0.225,3.453-0.337c0.867-0.085,1.733-0.193,2.599-0.284c0.692-0.072,1.333,0.014,2.018-0.041
		c1.412-0.104,2.844-0.072,4.274-0.185c1.746-0.136,3.523-0.136,5.271-0.192c1.6-0.062,3.199-0.362,4.766-0.519
		c1.589-0.164,3.135-0.821,4.668-0.994c0.987-0.105,1.492-0.702,2.111-1.389c-0.028,0.335-0.09,1.191-0.297,1.461
		c-0.212,0.29-0.912,0.483-1.255,0.574c-1.149,0.327-2.213,0.312-3.385,0.524c-1.384,0.245-2.779,0.581-4.185,0.546
		c-1.043-0.031-2.188-0.046-3.299-0.026c-2.391,0.026-4.799,0.406-7.226,0.417c-2.639,0.026-5.214,0.428-7.78,0.75
		c-0.881,0.122-1.831,0.28-2.681,0.483c-0.618,0.152-1.391,0.462-2.016,0.444c-0.005-0.246,0.117-0.403,0.373-0.414"/>
	<path d="M129.112,76.111c0.771-2.805,0.149-6.119,0.666-9.067c0.488-2.855,1.938-5.659,3.849-7.721
		c2.003-2.185,4.856-3.787,7.839-4.48c1.028-0.233,2.178-0.467,3.193,0.129c1.12,0.646,1.255,1.872,1.977,2.875
		c0.866-3.645,3.074-5.059,6.617-6.226c3.521-1.155,7.264-1.308,10.771-0.111c-1.074-2.556,5.457-2.413,6.77-2.037
		c3.849,1.125,1.915,4.353,1.569,7.27c2.615-0.555,4.577-0.753,7.402-0.198c3.548,0.697,7.639,3.374,8.145,7.269
		c0.228,1.71-1.804,4.179,0.201,4.602c0.709,0.147,1.705-0.291,2.495-0.193c0.986,0.116,2.412,0.549,3.318,0.982
		c1.909,0.941,2.666,2.495,2.556,4.684c-0.102,1.903-1.977,3.731-0.173,4.896c0.614,0.397,1.587,0.28,2.219,0.636
		c1.224,0.668,1.88,2.123,2.367,3.345c1.146,2.891-0.024,4.845-0.351,7.686c1.237,0.52,2.103,0.59,3.043,1.619
		c1.68,1.807,2.652,4.998,2.292,7.426c-0.458,2.969-3.019,8.755-6.592,8.689c-0.067-0.249-0.006-0.468,0.197-0.641
		c3.532,0.101-1.668,9.707-2.887,11.015c-2.927,3.14-7.151,6.465-10.539,2.789c-0.206,3.171-5.765,7.371-8.422,7.534
		c-4.113,0.24-6.575-3.706-7.786-7.127c-1.25,3.035-5.447,2.286-8.048,1.808c-3.722-0.707-9.388-3.654-9.738-7.986
		c1.159,1.582-1.495,3.4-3.035,1.568c-3.059-3.62-1.954-8.079-1.983-12.294c-2.422-1.623-2.893-4.831-1.732-7.442
		c0.271-0.63,0.744-1.073,0.933-1.729c0.192-0.627-0.139-0.948,0.039-1.58c0.353-1.207,1.299-1.674,2.012-2.626
		c0.653-0.851,1.272-2.056,1.722-3.11c0.54-1.212,1.414-2.637,1.581-3.964c0.281-2.093-1.088-4.541-2.06-6.344
		c-0.948-1.74-1.828-3.364-3.025-4.912c-0.752-0.967-1.384-2.103-2.448-2.651c-1.072-0.56-2.885-1.008-4.087-1.212
		c-2.318-0.392-4.683-0.274-6.443,1.699c-0.61,0.693-1.299,2.067-1.64,2.836c-0.534,1.201-1.187,1.833-1.833,2.918
		c-0.527-0.134-1.006-0.144-1.48-0.012c0.294-0.646,1.054-0.743,1.745-0.651"/>
	<path fill="#245977" d="M163.897,139.153c0.763,0.733,6.315-6.342,7.349-7.417c3.534-3.675,7.316-7.136,10.491-11.244
		c6.048-7.793,10.518-16.42,14.513-25.238c2.911-6.439,5.09-13.071,7.144-20.003c1.038-3.513,1.502-7.137,1.978-10.695
		c0.393-2.917,0.822-6.46,0.413-9.219c-0.217-1.414-0.637-6.862-2.015-7.106c-1.028-3.711-3.355-6.943-5.03-10.482
		c-1.915-4.064-4.367-7.969-6.853-11.772c-2.777-4.23-5.878-6.754-9.976-9.498c-0.753-0.504-0.974-1.293-2.103-1.354
		c-0.819-0.041-2.179,0.672-2.161,1.797c0.028,1.976,3.897,2.081,3.453,4.576c-1.149-0.276-5.608-3.232-6.513-1.08
		c-0.789,1.843,3.165,2.587,3.688,3.834c-1.577-0.189-6.148-2.714-7.044-0.292c-0.943,2.557,5.19,2.093,5.924,3.692
		c-1.734-1.105-3.787,0.713-4.498,2.204c2.971,1.272,6.153,0.682,9.151,1.569c3.427,0.996,4.73,4.158,5.889,7.283
		c1.633,4.394,2.764,8.68,3.815,13.214c0.7,3.002,2.002,5.839,2.595,8.806c0.762,3.813,0.68,6.939-0.474,10.818
		c-0.981,3.252-1.901,6.458-3.231,9.498c-1.396,3.202-3.377,6.347-4.816,9.417c-1.48,3.156-2.637,6.516-4.414,9.559
		c-2.707,4.647-5.691,9.219-8.825,13.394c-2.637,3.512-5.198,7.502-7.985,10.999c-1.642,2.037-3.305,4.057-4.77,6.215
		c-1.279,1.874-3.175,3.278-3.229,5.467c-0.051,2.195,0.716,3.34,2.59,4.496c2.128,1.298,4.378,0.615,6.419-0.998"/>
	<path fill="#245977" d="M94.817,123.862c-2.656-2.494-4.145-7.401-5.701-10.65c-2.137-4.483-2.86-8.896-3.43-13.784
		c-1.172-10.083-2.067-19.836-0.159-29.925c1.874-9.94,4.573-19.679,10.157-28.163c5.222-7.911,12.133-14.131,19.515-19.948
		c3.466-2.745,7.227-4.658,11.371-6.389c4.095-1.715,8.029-3.431,12.4-4.347c3.966-0.824,9.161-1.701,12.98-0.569
		c0.871,0.253,1.843,0.377,2.523,1.039c1.232,1.21,0.627,1.389-0.585,1.862c-1.818,0.708-3.543,1.125-5.313,2.143
		c1.335,0.582,5.544-1.898,5.955,0.927c0.341,2.484-5.778,0.626-6.013,2.999c1.322,0.967,5.713-1.644,6.201,1.002
		c0.469,2.539-6.068,0.194-5.798,3.147c1.245,0.797,2.671-0.28,3.767,0.432c0.02,0.423-0.147,1.023-0.401,1.358
		c-1.523-0.229-3.207,0.072-4.745-0.04c-1.833-0.132-3.593-0.749-5.405-0.891c-3.687-0.315-6.688,0.016-10.18,1.833
		c-3.003,1.548-6.023,2.942-8.728,5.02c-3.139,2.418-5.956,5.324-9.146,7.762c-3.562,2.713-5.798,6.276-8.269,9.911
		c-2.269,3.344-4.768,6.812-6.315,10.701c-1.394,3.526-2.484,7.014-3.562,10.684c-1.11,3.73-1.293,6.907-1.497,10.771
		c-0.565,10.282,0.943,22.835,6.698,31.62c1.833,2.805,5.62,5.646,2.968,9.025c-1.379,1.771-7.206,6.027-9.399,4.388
		c0.234-0.927,0.37-1.71,0.324-2.653"/>
	<path fill="#FF0000" d="M98.083,130.458c0.095,0.108,0.176,0.214,0.277,0.312c-0.795-0.743-1.886-1.996-2.856-2.52
		c-1.266,3.111-8.279,0.111-5.847-3.03c0.833-0.162,2.254-0.351,3.012,0.047c-2.657-2.092,0.957-4.022,2.715-1.812
		c-0.861-0.901-0.335-1.985,0.085-2.963c0.738,0.112,1.427,0.408,2.159,0.523c-0.112-0.961-0.01-1.591,0.619-2.273
		c0.463-0.495,1.521-1.432,1.723-0.244c-0.652-0.804-0.202-2.047,0.224-3.04c0.91,0.162,2.265,0.26,2.28,1.368
		c-0.718-0.631-0.296-1.882,0.11-2.686c0.349,0.294,0.724,0.402,0.918,0.899c0.045-1.257,1.78-1.577,2.088-0.523
		c-0.578-0.356-0.684-0.957-0.235-1.542c0.591,0.051,1.207,0.237,1.721,0.519c-0.02,0.255,0.162,0.722,0.153,0.738
		c0.123-0.198,0.233-0.388,0.344-0.597c2.256-0.156,1.283,1.803,1.111,3.043c0.479-0.218,0.967-0.183,1.445,0.128
		c0.134,1.935-4.438,4.382-1.406,6.027c-0.033,2.362-2.818,3.721-4.335,5.049c-0.673,0.585-4.725,3.873-4.937,3.385"/>
	<path fill="#FF0000" d="M154.087,134.226c0.79,0.742,1.488-1.211,1.772-1.893c0.244-0.566,0.224-1.35,0.534-1.863
		c0.293-0.5,0.896-0.636,1.252-1.166c1.115,0.188,0.984,2.396,0.546,3.206c0.507-0.666,1.943-1.251,2.676-1.052
		c-0.062,1.328,0.067,2.193-0.896,3.16c0.733-0.423,1.713-0.758,2.471-0.27c-0.047,0.763-0.321,1.573-0.881,2.031
		c0.68-0.218,1.516,0.004,2.178,0.377c0.03,0.732-0.436,1.358-1.095,1.654c0.616,0.239,1.201,0.07,1.757,0.137
		c0.071,0.859-0.551,1.578-1.172,2.065c0.631-0.285,1.213-0.438,1.845-0.249c0.005,1.674-2.272,2.886-3.522,3.706
		c-1.905,1.262-3.777,0.321-5.215-1.13c-1.097-1.109-1.862-2.381-2.36-3.93c-0.311-0.992-0.632-1.816-0.071-2.83
		c0.463-0.839,1.502-0.951,1.771-1.883"/>
	<path fill="#FF0000" d="M128.506,129.375c-0.025,0.117,0.004,0.132,0.101,0.05c0.392-0.687,0.752-1.237,1.584-0.85
		c0.675,0.326,0.781,0.896,0.81,1.639c0.071-0.962,1.093-1.898,2.064-1.587c1.233,0.385,0.85,1.964,0.593,2.871
		c0.173-0.535,0.656-2.438,1.541-1.92c0.644,0.378,0.048,1.956,0.345,2.515c0.373-0.732,0.394-1.873,1.092-2.367
		c1.059-0.752,1.18,0.683,1.297,1.349c0.164,0.907,0.25,1.796,0.483,2.688c0.179,0.667,0.289,1.293,0.389,1.981
		c0.059,0.391,0.269,1.164,0.044,1.497c-1.768-0.103-3.583,0.396-5.354-0.097c-1.163-0.327-2.704-1.721-3.41-2.683
		c-0.562-0.77-0.889-1.654-0.908-2.606c-0.009-0.845,0.029-2.067,0.54-2.77"/>
	<path d="M185.587,198.755c-0.327,1.7-2.906,3.935-4.052,5.156c-1.903,2.009-3.39,4.373-5.314,6.46
		c-1.445,1.563-3.172,3.074-4.927,4.293c-1.579,1.101-3.768,1.688-5.085,3.02c1.036,0.393,1.298,1.569,2.213,1.767
		c1.163-1.786,3.186-2.416,4.938-3.553c2.153-1.4,4.307-3.4,6.148-5.13c3.421-3.191,6.348-5.981,6.937-10.949
		c-0.308-0.209-0.623-0.292-1.001-0.25c-0.152,0.203-0.234,0.428-0.229,0.676"/>
	<path d="M159.677,205.409c-0.102,0.274-0.04,0.406,0.203,0.396c2.883-1.93,5.642-4.276,8.185-6.566
		c1.357-1.206,2.655-2.342,3.747-3.828c0.866-1.191,1.572-2.709,2.516-3.788c0.564,0.357,1.145,0.941,1.445,1.599
		c-2.552,3.167-4.928,6.159-8.134,9c-1.528,1.334-3.027,2.703-4.674,3.929c-1.337,0.994-3.075,2.566-3.705-0.076
		c0.301,0.107,0.693,0.133,0.983,0.27"/>
	<path d="M246.872,65.834c-5.305-2.016-11.778,2.575-16.594,4.479c-2.078,0.825-4.653,1.675-6.776,1.471
		c-1.336-0.127-2.234-0.549-3.221-1.4c-0.784-0.682-1.537-1.969-2.463-2.244c-1.995,2.362-1.488,5.666-1.354,8.347
		c0.12,2.851-1.145,6.176-1.867,9.066c-1.717,6.882-3.814,13.688-5.502,20.482c-0.995,3.986-2.322,7.943-3.819,11.77
		c-1.59,4.057-2.754,8.435-4.602,12.39c-1.109,2.372-1.518,5.09-2.657,7.543c-1.5,3.186-2.525,6.617-3.755,9.92
		c-2.078,5.538-4.762,10.757-7.123,16.182c-2.764,6.333-6.742,12.177-11.041,17.547c-1.485,1.862-2.719,3.816-4.349,5.452
		c-0.62,0.636-2.309,2.097-2.91,3.227c-0.283,0.009-0.519,0.071-0.533,0.326c0.035,0.031,0.079,0.045,0.122,0.041l0.136-0.057
		c-0.366-0.015-0.549,0.693-0.583,0.987c-0.037,0.23-0.084,0.322,0.125,0.465c0.134,0.106,0.458,0.177,0.575,0.031
		c-0.249,0.354-0.537,0.723-0.589,1.169c0.382,0.183,0.768-0.102,1.023-0.326c-0.042,0.326-0.094,0.636,0.232,0.856
		c0.353,0.243,0.419-0.098,0.683-0.316c0.021,0.239-0.382,0.59-0.173,0.815c0.255,0.289,0.694-0.199,0.825-0.346
		c-0.082,0.273-0.163,0.692,0.01,0.945c0.396,0.587,0.764-0.091,1.13-0.233c-0.057,0.342-0.183,0.912,0,1.247
		c0.32,0.576,0.814-0.014,1.109-0.284c-0.021,0.325-0.254,0.885,0.011,1.18c0.487,0.535,0.836-0.316,1.227-0.444
		c-0.044,0.327-0.336,0.84-0.203,1.146c0.274,0.657,0.906-0.325,1.089-0.524c-0.04,0.31-0.244,0.667-0.05,0.982
		c0.279,0.489,0.64,0.179,0.768-0.213c-0.066,0.264-0.355,0.871-0.218,1.125c0.289,0.524,0.863-0.326,1.046-0.536
		c-0.121,0.424-0.36,0.979,0.032,1.319c0.565,0.5,0.769-0.434,1.196-0.575c0.102,0.199-0.052,0.488-0.047,0.707
		c0,0.26,0.067,0.445,0.303,0.612c0.507,0.381,0.713-0.255,1.097-0.469c0.074,0.158,0.017,0.57,0.021,0.759
		c0,0.321-0.005,0.646,0.225,0.901c0.601,0.65,0.706-0.341,1.099-0.516c-0.035,0.337-0.531,1.146-0.173,1.305
		c0.442,0.202,0.768-0.759,0.937-1.025c-0.121,0.448-0.406,1.223-0.055,1.63c0.344,0.406,0.764-0.031,0.991-0.479
		c-0.158,0.367-0.311,0.773-0.05,0.982c0.499,0.387,0.773-0.774,0.987-0.962c-0.107,0.373-0.367,0.968-0.193,1.339
		c0.386,0.906,0.932-0.488,1.161-0.723c-0.082,0.305-0.431,1.13-0.059,1.339c0.526,0.284,0.557-0.846,0.892-0.866
		c0.066,0.336-0.273,1.191,0.124,1.41c0.421,0.256,0.925-1.033,1.145-1.267c0.081,0.298-0.351,1.965,0.025,1.974
		c0.233,0.005,0.477-0.545,0.641-0.986c-0.134,0.36-0.235,0.779-0.101,0.936c0.436,0.555,1.088-1.042,1.12-1.257
		c-0.072,0.25-0.354,0.856-0.153,1.083c0.378,0.408,0.865-0.992,0.921-1.191c-0.093,0.372-0.407,1.267,0.229,1.216
		c0.501-0.031,0.678-0.605,0.789-1.099c-0.024,0.153-0.028,0.316,0.052,0.345c0.232,0.107,0.565-0.68,0.667-0.859
		c0.111-0.199,0.202-0.393,0.273-0.587c0.881-0.757,1.472-2.784,1.99-3.77c0.964-1.838,1.614-3.792,2.485-5.641
		c1.755-3.688,3.548-7.634,4.505-11.609c1.002-4.134,2.753-8.207,4.143-12.182c1.609-4.612,3.183-9.243,5.101-13.738
		c3.666-8.577,6.026-17.786,8.306-26.927c1.856-7.448,3.469-14.625,4.299-22.087c0.355-3.141,1.169-6.211,1.129-9.259
		c0-1.562,0.173-3.029,0.381-4.668c0.214-1.648,0.172-3.065,0.651-4.561c0.311-1.008,0.571-2.005,0.816-3.019
		c0.37-1.451,0.634-3.297,1.48-4.418c1.954-2.575,5.492-2.488,8.353-3.38C239.653,76.193,246.182,71.647,246.872,65.834z"/>
	<path d="M81.358,254.025c0.346-2.104,3.575-17.338,3.94-17.827c0.69-0.926,1.608-1.089,2.52-0.261
		c-0.441,4.604-2.284,9.183-3.437,13.787c-1.156,4.636-2.042,8.222-2.429,12.451c-1.683-0.178-1.135,0.216-2.711-0.418
		C79.281,260.952,81.11,255.504,81.358,254.025z"/>
	<path d="M100.224,255.098c-0.936,2.397-2.041,4.591-2.744,7.096c-0.579,2.072-0.676,5.092-2.297,6.429
		c0.938,0.259,1.895,0.229,2.949-0.045c1.756-4.253,2.575-9.071,4.209-13.125c0.926-2.299,1.129-4.977,1.991-7.273
		c0.741-2.004,1.89-4.214,2.131-6.691c-1.395-0.367-2.146,0.394-3.39,1.434C103.073,242.922,101.344,252.238,100.224,255.098z"/>
	<path d="M77.725,392.423c0-6.16-0.484-12.625,0.712-18.874c1.192-6.208,2.219-12.769,2.993-19.126
		c0.733-5.951,2.084-11.677,2.801-17.591c1.343-11.092,0.772-22.732,4.632-33.808c2.21-6.329,4.725-12.712,7.075-18.998
		c1.925-5.115,5.66-10.755,6.425-16.479c-0.095-0.024-0.162-0.073-0.247-0.089c0.052-0.271,0.152-0.511,0.006-0.785
		c-0.174,0.208-0.218,0.432-0.28,0.686c-0.009-0.004-0.009-0.004-0.019-0.014c0.091-0.37,0.283-1.189-0.121-1.211
		c-0.267-0.02-0.405,0.58-0.469,1.004c-0.022-0.004-0.042-0.016-0.052-0.02c0-0.404,0.158-0.821-0.042-1.214
		c-0.289-0.014-0.417,0.592-0.483,1.002c-0.015-0.016-0.035-0.024-0.054-0.035c0.009-0.584,0.109-1.603-0.145-1.767
		c-0.224-0.133-0.339,0.154-0.402,0.475c-0.023-0.469-0.215-0.942-0.708-0.962c-0.569-0.04-0.546,0.573-0.69,1.02
		c-0.021-0.023-0.036-0.033-0.062-0.058c-0.066-0.35-0.032-0.716-0.092-1.059c-0.203,0.037-0.315,0.368-0.393,0.698
		c-0.036-0.029-0.091-0.071-0.128-0.103c-0.028-0.653-0.141-1.472-0.498-1.506c-0.215-0.02-0.325,0.375-0.417,0.757
		c0,0-0.015-0.015-0.025-0.023c0.056-0.618-0.009-1.438-0.535-1.36c-0.124,0.213-0.187,0.444-0.277,0.656
		c-0.042-0.035-0.085-0.068-0.134-0.105c0.097-0.479,0.178-0.967,0.269-1.427c-0.202,0.18-0.387,0.729-0.431,0.994
		c0.12-0.474,0.421-1.569,0.004-2.003c-0.387-0.399-0.922,0.059-1.248,0.326c-0.054,0.059-0.289,0.329-0.488,0.542
		c-0.163-0.133-0.331-0.266-0.494-0.39c0.095-0.577,0.368-1.327,0.01-1.509c-0.493-0.257-0.655,0.651-0.733,0.927
		c0.115-0.385,0.207-1.253-0.426-1.224c-0.311,0.02-0.449,0.346-0.585,0.667c-0.036-0.02-0.071-0.055-0.117-0.079
		c0.061-0.343,0.091-0.699-0.05-0.962c-0.234,0.143-0.398,0.432-0.516,0.676c-0.116-0.351,0.424-1.45-0.059-1.706
		c-0.578-0.295-1.23,0.744-1.565,1.151c-0.029-0.01-0.049-0.021-0.082-0.028c0.053-0.319,0.14-0.802-0.233-0.825
		c-0.212-0.009-0.37,0.378-0.46,0.662c-0.014-0.005-0.028-0.005-0.038-0.005c0.07-0.504,0.33-1.447-0.169-1.456
		c-0.488-0.02-1.075,0.804-1.124,1.248c0.096-1.263-1.007-0.718-1.476-0.045c-0.047,0.006-0.104,0.011-0.148,0
		c0.016-0.352-0.056-0.86-0.34-0.947c-0.493-0.142-0.815,0.604-0.877,0.997l0,0c0-0.331,0.184-1.268-0.32-1.278
		c-0.383-0.016-0.637,0.775-0.679,1.071c0.011-0.455,0.252-1.436-0.446-1.182c-0.57,0.209-0.521,1.043-0.713,1.501
		c-0.183-0.557-0.005-1.492-0.905-0.927c-0.469,0.301-0.412,0.701-0.617,1.145c-0.096-0.264-0.148-1.096-0.631-0.824
		c-0.26,0.133-0.249,0.766-0.371,1.017c-0.133-0.251,0.03-1.387-0.684-0.961c-0.273,0.174-0.296,0.725-0.363,1.036
		c-0.155-0.272-0.205-1-0.714-0.862c-0.274,0.077-0.388,0.819-0.373,1.192c-0.005,0-0.015,0.005-0.025,0
		c-0.085-0.439-0.192-1.483-0.737-1.269c-0.393,0.168-0.229,0.979-0.181,1.303c-0.043-0.291-0.335-1.642-0.893-1.282
		c-0.246,0.143-0.236,0.957-0.133,1.345c-0.038,0.004-0.057,0.009-0.087,0.004c-0.203-0.326-0.332-0.794-0.747-0.826
		c-0.104,0.267,0.02,0.759,0.146,1.11c-0.072,0.01-0.141,0.01-0.215,0.01c-0.34-0.341-0.796-1.051-1.184-0.686
		c-0.271,0.253,0.152,0.927,0.416,1.174c1.101,2.225,0.238,5.24,0.195,7.473c-0.1,3.839-1.11,7.597-2.077,11.428
		c-0.947,3.762-1.568,7.632-2.062,11.491c-0.503,3.884-1.634,7.756-2.152,11.746c-1.114,8.425-1.98,16.737-2.267,25.27
		c-0.202,6.105-0.858,13.286-1.652,19.362c-1.667,12.915-4.635,24.677-3.036,36.833c0.771,5.775-3.467,10.607-5.528,15.773
		c-0.771,1.971-8.116,15.089-2.097,15.637c0.209-0.025,0.419-0.039,0.626-0.064c0.881-1.88,3.691-3.427,5.176-4.979
		c1.805-1.876,4.055-3.589,5.754-5.472c1.772-1.959,3.477-4.753,4.734-6.938c1.366-2.366,1.706-5.482,3.42-7.646
		c0.622,1.547-0.053,5.319,1.06,6.186C77.222,399.252,77.725,393.634,77.725,392.423z"/>
</g>
</svg>
