<?xml version="1.0" encoding="utf-8"?>
<!-- Generator: Adobe Illustrator 16.0.4, SVG Export Plug-In . SVG Version: 6.00 Build 0)  -->
<!DOCTYPE svg PUBLIC "-//W3C//DTD SVG 1.1//EN" "http://www.w3.org/Graphics/SVG/1.1/DTD/svg11.dtd">
<svg version="1.1" id="Ebene_1" xmlns="http://www.w3.org/2000/svg" xmlns:xlink="http://www.w3.org/1999/xlink" x="0px" y="0px"
	 width="393.22px" height="425.2px" viewBox="0 0 393.22 425.2" enable-background="new 0 0 393.22 425.2" xml:space="preserve">
<g>
	<path fill="none" stroke="#000000" stroke-width="0.7596" d="M68.174,322.75c4.175,9.199-6.983,13.11-12.862,6.709
		c-2.954-3.219-1.662-8.91-8.136-7.277c-3.636,0.918-7.637,8.668-5.791,12.33"/>
	<path fill="#FF0000" d="M32.873,335.113c0.041,0.113,0.006,0.161-0.104,0.151c-1.118-0.73-2.106-1.794-3.196-2.608
		c-0.914-0.673-1.92-1.127-2.878-1.717c-0.312-0.191-0.964-0.464-1.179-0.746c1.325-0.552,3.056-0.255,4.416-0.026
		c1.537,0.257,3.102,0.242,4.646,0.457c0.616,0.085,1.216,0.35,1.833,0.342c0.014-0.377,0.238-0.703,0.353-1.071
		c0.242-0.801,0.495-1.643,0.649-2.47c0.127-0.683,0.279-1.356,0.417-2.032c0.086-0.416,0.096-1.028,0.267-1.338
		c0.37,1.063,1.141,1.974,1.627,3c0.704,1.489,1.615,2.916,2.367,4.355c0.249,0.483,0.402,0.557,0.986,0.587
		c1.142,0.062,2.295-0.063,3.437-0.051c1.199,0.015,2.403,0.028,3.598,0.073c0.524,0.019,1.235,0.197,1.742,0.033
		c-0.921,1.197-2.877,1.522-4.004,2.502c-0.674,0.59-1.124,1.404-1.772,2.006c-0.306,0.283-0.671,0.408-1.017,0.625
		c-0.423,0.259-0.737,0.446-0.592,0.939c0.104,0.373,0.698,0.859,0.935,1.217c0.811,1.235,1.09,2.71,1.557,4.089
		c0.567,1.676,1.14,3.344,1.831,4.972c0.42,0.993,0.701,2.095,1.229,3.022c-0.736-1.921-2.858-3.37-4.092-4.968
		c-1.126-1.459-2.034-3.001-3.034-4.517c-0.357-0.539-0.379-1.046-0.987-0.678c-0.571,0.353-1.131,1.104-1.657,1.543
		c-1.55,1.29-2.983,2.687-4.688,3.775c-1.412,0.902-2.691,1.867-3.995,2.916c-0.535,0.426-1.299,0.917-1.63,1.472
		c1-0.454,1.663-1.54,2.252-2.428c1.02-1.537,2.128-2.971,3.189-4.48c0.697-0.988,1.389-1.928,2.158-2.851
		c0.239-0.285,0.857-0.814,0.581-1.221c-1.55,0.23-3.378-0.03-4.932-0.201c-1.729-0.187-3.39-0.262-5.134-0.199
		c-0.334,0.013-1.359,0.207-1.612-0.101c0.431-0.096,0.868-0.424,1.259-0.623c0.893-0.446,1.816-0.872,2.707-1.338
		c0.519-0.27,3.109-2.064,3.473-1.658"/>
	<g>
		<g>
			<path fill="#FF0000" d="M107.971,199.236l68.032,7.687l-9.81,98.741l50.387-48.822c0,0,40.879,110.718,41.15,104.397
				c0.27-6.318-9.16-102.567-9.16-102.567l105.917,53.83l-76.878-90.93l104.78-33.396l-111.525-12.184l58.693-83.167l-92.513,50
				l-0.666-104.024l-46.04,93.959l-76.512-56.479l48.436,85.098L107.971,199.236z"/>
			<path fill="#FFFFFF" d="M129.033,195.488l52.43,6.442l-9.917,93.695l48.139-47.848c0,0,31.704,88.607,31.186,87.042
				c-0.516-1.56-4.146-83.848-4.146-83.848l90.91,48.46l-68.068-81.854l92.069-26.885L261.121,179.63l50.047-70.165l-81.161,42.892
				l2.604-97.584l-38.561,84.173c0,0-71.489-52.172-70.684-51.609c0.81,0.562,49.804,73.546,49.804,73.546L129.033,195.488z"/>
			<polygon fill="#FF0000" points="138.81,193.041 184.87,199.109 175.941,285.862 221.726,242.103 247.068,316.867 
				244.998,246.485 325.104,288.861 264.39,214.681 343.462,192.52 255.967,181.636 299.296,118.831 227.141,156.447 
				228.043,76.715 198.812,145.789 137.711,102.062 180.462,162.557 			"/>
		</g>
		<g>
			<path d="M155.361,328.761c2.375-4.345,1.115-19.467-7.24-25.269c-17.028-12.61-32.36-13.552-41.288-2.702l-1.866,2.292
				l0.197,0.544c-0.063,0.146-0.143,0.297-0.212,0.446c-0.265,0.545-0.499,1.119-0.911,1.671c-1.542,2.102-2.583,4.436-3.256,7.345
				c-1.031,4.342-1.06,9.391-0.104,13.842c0.645,3.004,1.269,5.764,2.312,8.586c1.396,3.718,3.528,6.17,5.433,8.096
				c2.87,2.855,6.517,5.028,10.6,6.291c5.909,1.84,19.532-1.394,22.456-4.108C142.326,345.015,154.6,330.172,155.361,328.761z
				 M144.707,329.348c-0.964,1.79-4.123,5.417-5.122,6.357c-2.283,1.275-9.921,7.361-18.052,4.415
				c-1.266-0.388-4.273-1.958-5.921-3.609c-1.612-1.628-2.463-2.848-3.038-4.366c-0.79-2.142-1.295-4.443-1.827-6.891
				c-0.706-3.223-0.686-6.827,0-9.683c0.775-3.354,3.891-7.957,4.2-8.413c10.725-12.595,26.015,0.156,29.34,6.843
				C147.635,320.693,145.512,325.416,144.707,329.348z"/>
			<path fill="#FFFFFF" stroke="#000000" stroke-width="2.9348" stroke-miterlimit="10" d="M120.703,334.371
				c1.945,1.122,4.053,1.674,5.961,0.714c1.634-0.822,3.172-1.477,3.823-3.216c0.654-1.759-0.465-4.443-1.714-6.152
				c-2.343-3.195-7.593-5.149-9.995-2.107c-1.264,1.602-2.329,3.16-1.99,5.358C116.965,330.099,119.36,333.592,120.703,334.371z"/>
			<path d="M122.979,325.437c2.265-0.098,4.119,1.77,3.871,4.091c-0.229,2.092-1.906,3.445-3.888,2.979
				c-2.418-0.56-2.404-1.888-3.163-4.041C119.798,328.466,120.875,325.52,122.979,325.437z"/>
			<path fill="none" d="M125.072,321.775c0.051-0.018,0.042-0.308,0.08-0.595c0.134-1.011,0.432-1.987,0.725-2.959
				c0.785-2.572,1.847-5.036,2.538-7.642c0.729-2.735,1.612-5.389,2.738-7.962c-0.112,0.118-0.214,0.26-0.287,0.408"/>
			<path fill="none" stroke="#000000" stroke-width="1.1883" stroke-miterlimit="10" d="M127.237,323.91
				c0.48,0.229,1.958-0.99,2.315-1.273c2.257-1.777,4.345-3.761,6.674-5.457c1.219-0.887,2.444-1.698,3.621-2.654
				c1.021-0.826,1.994-1.756,3.042-2.545c0.516-0.391,1.059-0.9,1.613-1.202c-0.056,0.038-0.113,0.075-0.171,0.113"/>
			<path fill="none" stroke="#000000" stroke-width="1.1883" stroke-miterlimit="10" d="M125.017,321.528
				c0.034,0.1,0.069,0.1,0.104-0.002c-0.17-0.941,0.29-2.141,0.554-3.022c0.962-3.221,1.994-6.438,3.162-9.585
				c0.602-1.633,1.233-3.244,1.722-4.915c0.077-0.245,0.285-1.308,0.373-1.252"/>
			<path fill="none" stroke="#000000" stroke-width="1.1883" stroke-miterlimit="10" d="M121.673,321.743
				c0.132-0.24-0.077-0.477-0.16-0.729c-0.243-0.688-0.429-1.47-0.607-2.176c-0.906-3.546-1.936-7.084-3.009-10.58
				c-0.46-1.507-0.625-3.103-1.103-4.595c-0.096-0.29-0.286-1.145-0.558-1.288c0.059,0.146,0.136,0.298,0.233,0.426"/>
			<path fill="none" stroke="#000000" stroke-width="1.1883" stroke-miterlimit="10" d="M119.489,322.483
				c-0.029-0.401-0.846-0.872-1.094-1.147c-1.095-1.205-2.218-2.364-3.377-3.516c-1.678-1.664-3.418-3.274-5.049-4.98
				c-0.656-0.688-1.771-1.699-1.911-2.707c0.198-0.053,0.187,0.068,0.284,0.191"/>
			<path fill="none" stroke="#000000" stroke-width="1.1883" stroke-miterlimit="10" d="M117.217,325.197
				c-0.431-0.275-0.828-0.58-1.241-0.88c-1.526-1.102-3.308-1.893-4.918-2.863c-1.368-0.826-2.682-1.724-4.069-2.527
				c-0.349-0.205-1.051-0.467-1.234-0.839c0.108-0.053,0.234-0.097,0.359-0.099"/>
			<path fill="none" stroke="#000000" stroke-width="1.1883" stroke-miterlimit="10" d="M116.326,328.262
				c-0.543,0.295-1.922,0.724-2.664,1.079c-1.409,0.678-2.758,0.862-4.276,1.099c0.123-0.022,0.239-0.048,0.359-0.076"/>
			<path fill="none" stroke="#000000" stroke-width="1.1883" stroke-miterlimit="10" d="M117.824,332.108
				c-0.713,0.784-1.076,1.714-1.563,2.642c-0.389,0.743-0.708,1.528-1.064,2.287c-0.238,0.514-0.764,1.365-0.707,1.96
				c0.188-0.086,0.341-0.214,0.46-0.388"/>
			<path fill="none" stroke="#000000" stroke-width="1.1883" stroke-miterlimit="10" d="M120.83,333.926
				c-0.202,1.154-0.896,2.331-1.19,3.498c-0.33,1.306-0.762,2.787-0.819,4.141c-0.016,0.438,0.043,0.934,0.223,1.338
				c0.208-0.083,0.235-0.285,0.25-0.552"/>
			<path fill="none" stroke="#000000" stroke-width="1.1883" stroke-miterlimit="10" d="M122.816,335.836
				c0.265,0.272,0.268,0.6,0.311,0.958c0.142,1.113,0.249,2.238,0.397,3.352c0.135,1.016,0.345,3.221,1.202,3.93
				c-0.015-0.099-0.024-0.202-0.036-0.303"/>
			<path fill="none" stroke="#000000" stroke-width="1.1883" stroke-miterlimit="10" d="M126.532,335.541
				c0.617,1.026,1.171,2.094,1.756,3.143c1.057,1.898,1.773,4.414,3.281,6.024c-0.024-0.071-0.044-0.142-0.067-0.215"/>
			<path fill="none" stroke="#000000" stroke-width="1.1883" stroke-miterlimit="10" d="M130.095,332.151
				c0.886,1.198,2.29,1.828,3.307,2.906c1.732,1.823,3.248,3.832,5.062,5.575c-0.032-0.161-0.142-0.272-0.321-0.338"/>
			<path fill="none" stroke="#000000" stroke-width="1.1883" stroke-miterlimit="10" d="M131.466,329.502
				c0.559,0.436,1.358,0.668,2.03,0.856c1.315,0.368,2.762,0.771,4.122,0.897c1.63,0.151,3.247,0.346,4.87,0.56
				c1.164,0.156,2.15,0.635,3.217,1.082c-0.488-0.328-1.003-0.608-1.546-0.837"/>
			<path fill="none" stroke="#000000" stroke-width="1.1883" stroke-miterlimit="10" d="M128.794,325.653
				c0.734,0.287,1.819-0.099,2.563-0.202c2.824-0.383,5.435-1.329,8.095-2.275c3.422-1.215,6.783-2.269,10.318-3.047
				c0.092-0.019,0.086-0.019-0.015,0.005"/>
			<path fill="none" stroke="#000000" stroke-width="1.1883" stroke-miterlimit="10" d="M127.13,322.235
				c0.023,0.104,0.03,0.106,0.014,0.008c-0.071-0.017-0.161-0.081-0.281-0.105c2.47-3.954,5.346-7.794,8.258-11.496
				c1.381-1.754,2.737-3.592,3.915-5.497c0.275-0.449,1.061-1.465,1.101-2.07"/>
			<path fill="none" stroke="#000000" stroke-width="1.1883" stroke-miterlimit="10" d="M122.443,300.313
				c0.161,0.537,0.12,1.132,0.114,1.684c-0.016,1.454-0.092,2.914-0.1,4.365c-0.002,3.267,0.267,6.46,0.684,9.691
				c0.196,1.521,0.108,3.161,0.167,4.668c0.017,0.394,0.203,1.479-0.034,1.797c-0.012-0.068-0.025-0.141-0.043-0.206"/>
		</g>
		<path fill="#245977" d="M56.02,323.098c0.456,0.149,0.211-2.374,0.221-3.384c0.023-2.382,0.396-4.774,0.791-7.116
			c1.15-6.853,4.875-13.33,8.011-19.513c3.036-5.994,6.073-11.951,9.512-17.746c2.437-4.115,5.089-8.125,7.731-12.107
			c4.803-7.238,11.084-12.939,17.156-19.044c7.139-7.173,16.128-11.987,23.563-18.807c3.62-3.317,7.788-5.66,12.184-7.813
			c6.053-2.958,11.717-6.321,17.945-9.005c5.926-2.551,11.895-4.26,18.171-5.639c3.61-0.794,7.45-2.081,11.127-2.349
			c0.493,8.174,4.266,16.342,9.699,22.875c4.206,5.056,9.633,6.977,15.73,8.69c3.61,1.016,8.149,3.057,11.756,3.219
			c0.983,1.472-0.105,4.05-0.475,5.585c-0.668,2.785-1.463,5.764-2.575,8.488c-4.618,11.377-13.42,20.799-21.033,30.23
			c-5.274,6.533-10.175,13.242-16.687,18.61c-6.099,5.036-12.561,9.305-18.791,14.104c-4.416,3.402-10.373,5.672-15.213,8.491
			c-6.626,3.864-13.784,6.381-20.87,9.202c-5.055,2.011-10.478,3.03-15.551,4.908c-3.189,1.182-5.962,2.457-9.344,3.203
			c-5.999,1.318-12.601,3.123-18.52,3.09c-3.118-0.018-6.286-0.434-9.225-1.484c-3.692-1.32-5.717-5.025-8.353-7.811
			c-1.427-1.507-3.144-2.694-4.318-4.469c-0.792-1.197-2.282-4.564-1.392-5.754c0.241,0.285,0.353,0.615,0.342,0.995"/>
		<path fill="#FFFFFF" d="M111.185,235.197c1.866-1.076,20.718-10.157,23.153-11.642c-1.032,1.059-4.365,8.784-5.418,11.206
			c-1.602,3.683-4.295,8.408-4.86,12.506c3.249-1.336,23-7.586,28.543-11.112c-0.467,1.689-5.48,13.721-7.168,18.147
			c-0.994,2.606-3.859,11.296-3.707,13.067c1.295-0.136,24.25-10.351,25.782-11.613c-1.325,4.408-9.813,26.731-11.249,29.586
			c1.202,0.111,1.991-0.867,2.937-1.505c2.476-1.676,17.7-9.759,21.593-13.224c-3.02,5.006-8.562,22.81-9.889,27.275
			c6.39-1.842,12.252-6.943,16.115-7.747c-4.745,6.938-24.793,20.876-29.965,24.263c-6.893,4.512-13.7,8.859-21.53,11.299
			c-6.087,1.901-12.695,4.882-19.438,5.278c20.47-15.002,32.681-16.66,33.665-23.707c-1.545-0.126-32.885,9.275-35.318,11.261
			c4.799-2.571,20.048-23.646,20.048-23.646s-35.235,12.847-42.435,13.31c6.426-7.294,28.808-28.258,28.808-28.258
			s-30.946,16.425-37.562,18.114c2.058-1.223,20.09-37.166,20.09-37.166s-26.501,19.767-29.565,21.047
			c-0.591-2.008,10.206-22.182,12.987-26.257c2.936-4.309,20.423-19.5,22.337-19.568"/>
		<path d="M180.229,198.561c-2.737,3.855,1.361,14.484,3.536,18.063c1.578,2.589,3.207,5.6,4.961,7.975
			c1.682,2.273,4.617,4.043,6.953,5.683c5.122,3.6,11.75,5.928,17.703,7.446c2.643,0.673,6.175,1.346,7.58-1.682
			c0.779-1.673-0.765-7.851-3.594-5.956c0.259,3.188,0.408,4.736-3.326,3.586c-2.577-0.791-4.211-2.561-6.795-3.556
			c-2.307-0.889-4.551-1.326-6.67-2.442c-2.397-1.263-4.332-2.947-6.233-4.873c-3.634-3.689-6.547-7.505-8.53-12.087
			c-0.478-1.109-1.051-2.755-1.376-3.725c-0.349-1.048-1.502-3.035-1.6-4.002c-0.102-0.979,0.427-2.609,1.705-2.645
			c0.931-0.028,2.196,2.029,2.933,2.559c0.822-2.011-1.747-5.734-3.852-6.097C182.796,196.668,181.302,196.748,180.229,198.561"/>
		<path fill="none" d="M97.631,356.35c-2.088,0-5.499-3.317-7.143-4.457c-3.082-2.13-5.55-4.534-7.686-7.669
			c-2.606-3.826-4.709-9.065-4.402-13.762c0.374-5.719,2.885-11.78,5.562-16.758c2.4-4.463,4.381-8.36,8.445-11.573
			c9.285-7.35,23.171-10.57,34.815-8.615c7.03,1.182,12.539,3.748,17.65,8.867c5.668,5.671,10.478,11.919,12.184,19.765
			c1.271,5.84,1.366,10.152-0.981,15.795c-4.745,11.402-15.482,16.241-26.348,19.692c-6.249,1.983-12.184,4.456-18.593,4.249
			c-3.426-0.111-13.14-1.371-14.602-5.197c-0.875,0.038-1.781,0.205-2.626,0.481"/>
		<g>
			<path d="M134.875,341.051c2.377-4.343,1.115-19.465-7.241-25.267c-17.028-12.612-32.364-13.552-41.29-2.702l-1.86,2.289
				l0.197,0.543c-0.065,0.147-0.145,0.301-0.214,0.447c-0.266,0.546-0.5,1.121-0.916,1.674c-1.541,2.102-2.581,4.434-3.252,7.344
				c-1.028,4.342-1.061,9.388-0.104,13.842c0.646,3.004,1.27,5.764,2.315,8.584c1.391,3.723,3.53,6.17,5.434,8.098
				c2.866,2.856,6.512,5.026,10.592,6.292c5.912,1.836,19.533-1.396,22.459-4.109C121.839,357.307,134.115,342.462,134.875,341.051z
				 M124.224,341.64c-0.964,1.788-4.125,5.414-5.125,6.356c-2.278,1.276-9.923,7.363-18.05,4.416
				c-1.269-0.388-4.271-1.958-5.923-3.611c-1.612-1.626-2.462-2.844-3.036-4.365c-0.789-2.14-1.295-4.444-1.831-6.888
				c-0.702-3.224-0.682-6.831,0-9.687c0.775-3.354,3.89-7.954,4.201-8.411c10.726-12.593,26.014,0.156,29.345,6.838
				C127.15,332.982,125.026,337.706,124.224,341.64z"/>
			<path fill="#FFFFFF" stroke="#000000" stroke-width="2.9348" stroke-miterlimit="10" d="M100.216,346.664
				c1.944,1.122,4.054,1.673,5.961,0.71c1.633-0.819,3.174-1.477,3.826-3.216c0.654-1.757-0.468-4.444-1.712-6.15
				c-2.344-3.197-7.594-5.151-9.999-2.109c-1.265,1.605-2.331,3.163-1.989,5.36C96.474,342.389,98.879,345.885,100.216,346.664z"/>
			<path d="M102.493,337.729c2.265-0.099,4.118,1.769,3.873,4.088c-0.232,2.097-1.906,3.445-3.89,2.982
				c-2.417-0.561-2.406-1.891-3.163-4.041C99.312,340.758,100.39,337.812,102.493,337.729z"/>
			<path fill="none" d="M104.586,334.066c0.05-0.02,0.04-0.308,0.081-0.597c0.132-1.01,0.431-1.986,0.725-2.957
				c0.785-2.573,1.846-5.036,2.54-7.645c0.725-2.734,1.608-5.386,2.737-7.959c-0.113,0.121-0.216,0.26-0.29,0.406"/>
			<path fill="none" stroke="#000000" stroke-width="1.1883" stroke-miterlimit="10" d="M106.752,336.199
				c0.48,0.229,1.956-0.991,2.317-1.271c2.258-1.777,4.345-3.761,6.675-5.457c1.218-0.887,2.441-1.698,3.616-2.653
				c1.022-0.83,1.994-1.755,3.041-2.546c0.522-0.393,1.056-0.899,1.613-1.202c-0.057,0.038-0.113,0.075-0.169,0.113"/>
			<path fill="none" stroke="#000000" stroke-width="1.1883" stroke-miterlimit="10" d="M104.535,333.816
				c0.033,0.104,0.067,0.102,0.101-0.002c-0.168-0.94,0.288-2.14,0.555-3.024c0.959-3.219,1.991-6.432,3.159-9.58
				c0.605-1.633,1.237-3.246,1.725-4.914c0.077-0.248,0.285-1.309,0.376-1.255"/>
			<path fill="none" stroke="#000000" stroke-width="1.1883" stroke-miterlimit="10" d="M101.186,334.031
				c0.133-0.237-0.072-0.476-0.162-0.726c-0.237-0.691-0.425-1.47-0.604-2.178c-0.905-3.547-1.938-7.083-3.009-10.581
				c-0.461-1.505-0.627-3.103-1.107-4.595c-0.09-0.287-0.284-1.147-0.553-1.285c0.057,0.147,0.135,0.295,0.23,0.423"/>
			<path fill="none" stroke="#000000" stroke-width="1.1883" stroke-miterlimit="10" d="M99.003,334.772
				c-0.033-0.401-0.846-0.872-1.093-1.144c-1.096-1.207-2.218-2.367-3.379-3.516c-1.679-1.663-3.419-3.274-5.047-4.98
				c-0.659-0.688-1.777-1.698-1.913-2.707c0.203-0.053,0.187,0.068,0.286,0.192"/>
			<path fill="none" stroke="#000000" stroke-width="1.1883" stroke-miterlimit="10" d="M96.731,337.489
				c-0.434-0.274-0.824-0.582-1.244-0.88c-1.528-1.104-3.3-1.892-4.914-2.865c-1.374-0.825-2.683-1.725-4.07-2.528
				c-0.352-0.201-1.051-0.466-1.236-0.837c0.107-0.055,0.235-0.098,0.359-0.101"/>
			<path fill="none" stroke="#000000" stroke-width="1.1883" stroke-miterlimit="10" d="M95.838,340.556
				c-0.538,0.29-1.92,0.719-2.668,1.079c-1.404,0.673-2.754,0.859-4.271,1.096c0.125-0.023,0.241-0.048,0.362-0.078"/>
			<path fill="none" stroke="#000000" stroke-width="1.1883" stroke-miterlimit="10" d="M97.337,344.399
				c-0.713,0.785-1.076,1.714-1.561,2.642c-0.388,0.744-0.706,1.525-1.065,2.283c-0.239,0.514-0.762,1.369-0.704,1.961
				c0.182-0.083,0.338-0.211,0.453-0.386"/>
			<path fill="none" stroke="#000000" stroke-width="1.1883" stroke-miterlimit="10" d="M100.346,346.217
				c-0.2,1.155-0.901,2.334-1.189,3.496c-0.331,1.309-0.769,2.79-0.819,4.141c-0.019,0.438,0.042,0.938,0.226,1.341
				c0.208-0.085,0.232-0.29,0.241-0.555"/>
			<path fill="none" stroke="#000000" stroke-width="1.1883" stroke-miterlimit="10" d="M102.331,348.128
				c0.263,0.272,0.266,0.6,0.311,0.955c0.141,1.114,0.25,2.24,0.398,3.354c0.136,1.019,0.341,3.221,1.201,3.93
				c-0.011-0.098-0.023-0.202-0.035-0.303"/>
			<path fill="none" stroke="#000000" stroke-width="1.1883" stroke-miterlimit="10" d="M106.048,347.83
				c0.613,1.028,1.168,2.097,1.753,3.146c1.054,1.896,1.773,4.414,3.277,6.024c-0.021-0.073-0.038-0.144-0.063-0.217"/>
			<path fill="none" stroke="#000000" stroke-width="1.1883" stroke-miterlimit="10" d="M109.608,344.443
				c0.881,1.194,2.292,1.824,3.309,2.903c1.728,1.822,3.245,3.83,5.062,5.575c-0.041-0.159-0.146-0.272-0.325-0.335"/>
			<path fill="none" stroke="#000000" stroke-width="1.1883" stroke-miterlimit="10" d="M110.979,341.794
				c0.562,0.434,1.362,0.665,2.029,0.854c1.317,0.371,2.764,0.773,4.126,0.9c1.628,0.151,3.244,0.345,4.87,0.559
				c1.161,0.154,2.147,0.635,3.213,1.079c-0.488-0.326-1.002-0.605-1.545-0.834"/>
			<path fill="none" stroke="#000000" stroke-width="1.1883" stroke-miterlimit="10" d="M108.31,337.945
				c0.728,0.287,1.819-0.101,2.564-0.201c2.822-0.384,5.43-1.329,8.096-2.279c3.421-1.214,6.781-2.268,10.317-3.044
				c0.088-0.018,0.084-0.018-0.019,0.002"/>
			<path fill="none" stroke="#000000" stroke-width="1.1883" stroke-miterlimit="10" d="M106.646,334.527
				c0.022,0.104,0.024,0.106,0.012,0.008c-0.072-0.018-0.161-0.081-0.281-0.106c2.471-3.955,5.344-7.795,8.26-11.495
				c1.378-1.758,2.736-3.595,3.911-5.498c0.276-0.451,1.064-1.464,1.103-2.072"/>
			<path fill="none" stroke="#000000" stroke-width="1.1883" stroke-miterlimit="10" d="M101.956,312.605
				c0.163,0.537,0.121,1.129,0.117,1.681c-0.014,1.456-0.097,2.914-0.097,4.368c-0.007,3.264,0.261,6.458,0.681,9.691
				c0.197,1.517,0.105,3.16,0.165,4.665c0.018,0.393,0.204,1.483-0.033,1.797c-0.011-0.068-0.026-0.136-0.038-0.204"/>
		</g>
	</g>
	<path fill="#FFFFFF" d="M200.384,195.347c0.953,0.124-0.852-2.016-1.29-2.404c-0.833-0.736-2.224-1.167-3.287-1.104
		c-3.109,0.182-4.05,2.833-6.197,4.577c-3.456,2.808-7.7,5.62-6.405,10.681c0.671,2.634,2.17,4.925,3.32,7.236
		c1.376,2.763,2.611,4.796,5.045,6.782c3.571,2.903,6.857,5.865,11.051,8.065c2.826,1.484,5.613,1.86,8.625,2.875
		c1.283,0.431,2.44,1.109,3.744,1.344c1.198,0.214,3.15,0.368,3.634-0.802c0.518-1.252-0.394-3.377-0.683-4.703
		c-0.372-1.694-0.428-3.249-0.447-4.834c-0.032-3.03,2.709-6.112,0.472-8.98c-0.65,0.151-1.092-0.225-1.7-0.061
		c-0.386,0.106-0.901,0.746-1.25,0.917c-1.519,0.756-2.53,0.179-3.638-0.779c-2.632-2.278-2.583-5.749-3.606-8.915
		c-1.05-3.226-2.157-6.222-3.694-9.262c-0.725-1.437-1.029-2.069-2.335-2.745c-0.953-0.491-2.435-1.389-3.482-1.237"/>
	<path d="M212.979,230.466c1.075,0.582,3.295-1.754,4.729-2.074c2.543-0.57,3.658,0.796,4.715,3.11
		c0.961,2.104-1.428,10.17-4.414,9.704c-0.365-1.023-0.548-2.13-0.771-3.211c0.029,3.174-2.918,4.799-3.466,0.761
		c0.036,1.432-1.231,3.199-2.906,2.985c-0.512-1.43-0.963-3.164-0.691-4.565c0.134-0.686,0.497-1.083,0.662-1.701
		c0.176-0.668,0.047-1.404,0.193-2.001c0.694-2.828,3.985-3.942,6.783-4.59"/>
	<path fill="#FF0000" d="M193.468,196.899c0,0,0.686,2.964,2.565,4.469c0.194,0.153,0.32,0.365,0.32,0.365s-3.489,2.51-3.614,2.657
		c-0.128,0.146-1.942-2.883-2.396-4.94C190.322,199.337,193.468,196.899,193.468,196.899z"/>
	<g>
		<path fill="#FFFFFF" d="M223.337,198.135c-1.534,1.711-2.901,3.573-4.338,5.348c-1.9,2.339-4.417,4.137-6.342,6.44
			c-1.43,1.716-2.084,3.453-3.275,5.238c-1.837,2.762-5.047,4.884-4.847,8.554c0.049,0.897-0.186,4.545,0.657,5.096
			c1.086,0.71,3.346-1.454,4.158-2.049c3.216-2.361,6.294-4.895,8.94-7.757c3.42-3.708,7.305-6.624,11.309-9.621
			c4.557-3.422,8.584-6.923,13.391-9.95c4.427-2.795,23.211-15.12,27.997-18.492c3.112-2.19,6.451-5.063,9.334-7.662
			c1.691-1.522,3.651-3.015,5.261-4.57c0.521-0.507,0.837-1.288,1.311-1.877c0.607-0.754,1.858-1.395,2.246-2.141
			c0.812-1.578-0.636-3.485-0.993-4.854c-0.402-1.53,0.095-3.627-0.787-4.968c-2.103-3.186-5.952,0.101-8.509,1.215
			C274.59,157.947,230.565,190.057,223.337,198.135z"/>
		<path d="M286.287,162.416c0.819,0.065,3.517-1.961,6.107-3.098c1.203-0.529,2.434-1.384,3.875-1.22
			c1.294,0.144,2.149,1.593,3.388,1.208c0.1-0.774,0.132-1.636,0.36-2.385c0.704,0.707,1.467,0.444,2.347,0.043
			c0.311-1.434,0.476-2.986-0.14-4.289c1.295,1.119,2.464,1.108,3.987,0.521c0.623-2.883-2.605-1.401,0.087-3.271
			c1.902-1.323,23.253-15.193,25.252-16.34c-0.243-0.781-19.237,9.946-19.237,9.946l-8.695,4.093c0,0-2.963-3.078-6.451-1.129
			c-1.82,1.018-3.3,2.573-4.288,4.353c-0.922,1.656-0.916,1.668-2.837,2.576c-1.354,0.642-2.698,1.33-3.885,2.304
			c-0.246-0.131-0.609-0.295-0.839-0.495c0,0-0.631,3.002-0.442,4.501C285.072,161.233,286.287,162.416,286.287,162.416z"/>
		<path fill="#245977" d="M320.607,141.434c2.178-1.245,5.803-3.801,7.442-5.141c4.472-3.653,7.972-6.745,8.039-6.795
			c2.331-1.736-6.278-7.123-8.337-9.131c-3.577-3.496-6.934-5.225-11.689-6.49c-4.232-1.13-8.04-1.513-12.044-3.365
			c-4.853-2.248-8.843-5.292-13.057-8.64c-3.011-2.389-5.423-5.82-8.394-8.501c-1.461-1.326-2.461-3.166-3.807-4.615
			c-1.24-1.333-3.069-4.196-4.713-4.927c-0.153-0.071-0.587-0.54-0.725-0.646c-0.869,3.828,2.258,7.717,3.467,11.392
			c1.244,3.796,1.564,8.224,0.607,12.184c-3.547-1.633-7.321-2.032-11.383-2.843c-1.909-0.383-4.131-0.708-5.965-1.366
			c-1.589-0.57-3.987-3.675-5.257-3.508c0.478,2.833,2.317,5.925,3.198,8.813c1.085,3.566,1.791,7.763,3.743,10.979
			c4.478,7.403,12.703,10.551,20.462,12.753c3.26,0.925,7.295,1.209,10.475,1.822c3.201,0.615,5.971,1.036,9.033,2.205
			c4.481,1.709,9.051,5.89,12.542,9.331C314.688,144.591,319.119,142.288,320.607,141.434z"/>
		<path fill="#FFFFFF" d="M285.005,106.198c1.312-0.383,2.286-0.403,3.327,0.635c0.843,0.839,1.648,1.787,2.261,2.792
			c0.796,1.288,0.566,2.332-0.359,3.44c-1.785,2.135-4.354,3.354-7.022,3.992c-1.242,0.3-2.443,0.438-3.649,0.671
			c-1.586,0.307-4.506,0.579-5.905,1.167c0.425,0.661,1.949,1.495,2.629,1.757c0.803,0.302,5.065,1.111,5.924,1.512
			c0.725,0.346,1.595,0.912,2.359,1.092c-0.498,0.483-1.027,0.726-1.498,1.271c-0.392,0.443-0.904,1.091-1.442,1.333
			c-1.772-2.276-4.252-2.321-6.671-3.141c-1.178-0.398-2.584-0.746-3.688-1.484c-0.579-0.386-2.359-1.906-2.244-2.563
			c0.819-0.101,2.039-1.706,2.626-2.316c0.254-0.262,0.636-0.827,1.018-0.89c0.295-0.048,5.968-0.015,8.066-0.882
			c1.417-0.587,6.263-1.671,6.668-3.334c0.306-1.27-0.821-2.496-2.686-1.896c-0.949,0.306-2.607,1.258-3.351,1.966
			c-0.389-0.708-1.094-0.991-1.559-1.618c0.38-0.676,2.242-1.737,2.549-1.89C282.681,107.643,283.783,106.554,285.005,106.198z"/>
		<path fill="#FFFFFF" d="M286.972,124.437c0.386-0.565,0.791-1.117,1.172-1.674c0.893-1.303,2.246-2.811,3.443-3.823
			c1.26-1.068,2.327-2.422,3.636-3.436c1.002-0.779,2.504-1.719,3.754-1.77c3.751-0.148,4.25,3.562,3.14,6.347
			c-1.268,3.188-3.751,5.532-6.361,7.664c-1.891,1.545-4.511,2.365-6.952,1.981c-0.957-0.156-1.451-0.64-2.037-1.442
			c-0.412-0.561-1.077-2.517-0.296-2.931C286.472,125.354,286.647,124.915,286.972,124.437z M290.65,123.446
			c-0.71,0.892-0.458,2.709,1.067,3.08c1.188,0.287,2.317-0.716,3.16-1.435c1.001-0.862,2.132-1.736,2.842-2.871
			c0.554-0.882,1.562-2.281,1.452-3.329c-0.183-1.702-2.488-1.356-3.178-0.842C295.306,118.556,291.417,122.478,290.65,123.446z"/>
		<path fill="#FFFFFF" d="M307.516,118.932c-0.025,0.345-0.081,0.673-0.154,0.998c-0.068,0.323-0.379,0.781-0.29,1.096
			c0.563-0.025,1.205-0.068,1.817-0.078c0.596-0.01,1.219-0.085,1.805-0.007c-0.006,0.34-0.723,0.832-0.969,1.074
			c-0.671,0.655-1.427,1.227-2.187,1.815c-1.354,1.041-2.356,2.326-3.588,3.442c-1.028,0.93-1.9,1.931-2.849,2.894
			c-0.47,0.477-1.017,0.919-1.508,1.383c-0.308,0.29-0.716,0.572-0.991,0.895c0.653,0.129,1.271-0.043,1.91,0.081
			c0.472,0.093,0.986,0.451,1.456,0.487c0.037-0.406,0.676-0.698,0.983-0.999c0.409-0.401,0.837-0.809,1.319-1.174
			c1.643-1.235,2.746-2.823,4.362-4.104c1.747-1.394,3.23-2.984,4.873-4.456c0.624-0.56,1.105-1.157,1.675-1.747
			c0.205-0.207,0.415-0.406,0.629-0.603c0.194-0.174,0.42-0.469,0.645-0.603c-0.38-0.068-0.707-0.06-1.06-0.187
			c-0.406-0.146-0.819-0.31-1.185-0.456c-0.315-0.123-0.594-0.323-0.957-0.4c-0.431-0.091-0.353,0.108-0.74,0.194
			c-0.355,0.081-0.862,0.02-1.247,0.075c-0.446,0.063-0.892,0.134-1.306,0.182c-0.509,0.055-1.984,0.015-2.253,0.364"/>
		<path fill="#FFFFFF" d="M317.26,127.584c0,0.056,0.016,0.063,0.05,0.015c0.153-0.517,0.148-1.045,0.334-1.538
			c0.203-0.549,0.506-0.907,0.849-1.351c0.752-0.983,1.83-1.5,3.077-1.387c0.545,0.051,1.114,0.306,1.588,0.58
			c0.485,0.28,1.105,0.716,1.393,1.2c0.727,1.215,1.278,2.664,0.191,3.853c-0.413,0.446-0.91,0.85-1.404,1.203
			c-0.445,0.315-0.845,0.414-1.343,0.57c-0.405,0.126-0.821,0.139-1.231,0.214c-0.353,0.063-0.787,0.272-1.138,0.209
			c-0.186,0.531-0.558,1.003-0.754,1.564c-0.271,0.756-0.649,1.447-0.898,2.208c-0.548,1.673-1.12,3.811-2.967,4.521
			c-0.643,0.245-1.522,0.086-2.167-0.058c-1.14-0.259-2.267-0.764-3.184-1.527c-0.785-0.658-0.975-1.691-1.34-2.599
			c-0.145-0.363-0.193-0.773-0.204-1.165c-0.006-0.34-0.026-0.769,0.025-1.093c0.146-1.013,0.806-1.837,1.663-2.364
			c0.698-0.429,1.481-0.746,2.291-0.928c0.648-0.144,1.312-0.199,1.973-0.283c0.441-0.058,0.864-0.053,1.317-0.1
			c0.373-0.041,0.91,0.05,1.198-0.197c0.301-0.257,0.289-0.67,0.45-1.016c0.148-0.315,0.361-0.575,0.459-0.922 M319.174,128.136
			c-0.019,0.257,0.062,0.506,0.024,0.736c0.162-0.106,0.424-0.027,0.603-0.075c0.178-0.051,0.365-0.159,0.551-0.215
			c0.45-0.133,0.886-0.33,1.322-0.507c0.405-0.166,1.222-0.363,1.346-0.791c0.121-0.413,0.07-0.991-0.256-1.285
			c-0.751-0.678-2.038-0.59-2.708,0.101c-0.314,0.325-0.619,0.724-0.734,1.172c-0.094,0.373-0.098,0.739-0.18,1.124
			c-0.039,0.013-0.082,0.013-0.122,0 M315.181,131.746c-0.592,0.012-1.474,0.167-2.119,0.453c-0.678,0.301-1.404,0.572-1.838,1.198
			c-0.767,1.116,0.212,2.87,1.353,3.276c0.421,0.154,1.069,0.358,1.54,0.169c0.482-0.197,0.732-0.986,0.971-1.432
			c0.352-0.643,0.591-1.296,0.712-1.999c0.042-0.259,0.067-0.477,0.12-0.739c0.042-0.219,0.194-0.491,0.194-0.723
			c-0.003-0.061,0.003-0.129,0.003-0.192c-0.204-0.095-0.411,0.091-0.597,0.081c-0.257-0.01-0.469-0.105-0.736-0.126"/>
		<path fill="#FF0000" d="M282.192,156.261c0.038,0.542-0.249,0.719-0.408,1.175c-0.177,0.501-0.269,0.963-0.314,1.565
			c-0.081,1.117-0.198,1.84,0.353,2.803c0.541,0.947,3.007,4.587,4.021,2.666c-3.34-1.487-2.069-4.62-2.218-7.551
			c-0.52-0.229-0.961,0.134-1.492,0.101"/>
	</g>
	<g>
		<path fill="#FFFFFF" d="M233.087,189.478c0.779,2.891-0.981,9.254-2.373,12.271c-1.667,3.62-3.811,6.387-7.024,8.996
			c-2.952,2.399-6.368,4.652-10.139,2.596c-3.791-2.064-4.968-6.326-5.811-10.014c-2.472-10.762,2.818-19.084,11.186-25.74
			c4.241-3.375,9.83-4.179,12.318,1.931c0.698,1.716,1.745,4.41,1.971,6.124c0.304,2.319-0.901,4.9,0.563,6.891"/>
		<path d="M234.648,184.973c-0.026-1.926,0.046-3.697-0.136-5.661c-0.375-4.027-4.568-6.82-8.394-7.553
			c-3.933-0.751-7.942-1.969-11.811-2.465c-4.13-0.532-7.676,2.828-10.315,5.638c-3.132,3.337-4.388,8.073-6.177,12.239
			c-2,4.65,1.95,7.359,5.295,9.931c0.565,0.438,1.491,1.371,2.21,1.537c1.324,0.31,2.249-1.194,2.832-2.109
			c1.522-2.407,2.541-5.079,4.015-7.431c1.075-1.716,2.244-4.05,4.209-4.763c1.703-0.613,4.163-0.714,5.89-0.328
			c1.696,0.38,3.258,1.298,4.828,1.918c1.393,0.554,2.717,1.225,4.008,1.986c1.384,0.822,2.181,1.392,2.533,3.002
			c0.156,0.718,0.445,1.504,0.431,2.236c-0.013,0.746-0.269,1.409-0.223,2.084c1.542-0.171,1.388-3.753,1.297-4.809
			C235.04,189.271,234.669,186.377,234.648,184.973z"/>
		<path d="M222.093,197.346c0.095,0.411-0.047,1.001-0.155,1.386c-0.339,1.212-0.968,1.666-2.289,1.75
			c-0.416,0.027-2.563,0-3.083-0.164c-0.9-0.285-1.565-1.341-1.816-2.142c-0.679-2.178-1.025-5.122,1.933-5.356
			c2.557-0.204,4.734,3.309,4.579,3.148C221.262,195.967,221.959,196.779,222.093,197.346z"/>
		<path d="M230.218,196.59c2.793-0.537,2.997,2.243,3.257,4.212c0.178,1.358-0.214,1.766-1.653,1.917
			c-0.948,0.096-2.117,0.346-3.027,0.089c-1.421-0.399-4.424-3.476-2.442-4.862C227.073,197.441,230.218,196.59,230.218,196.59z"/>
		<path d="M221.26,198.301c1.584,0.841,3.384,1.708,5.094,1.958c1.059-1.115-2.213-1.772-3.012-2.223
			c-0.922-0.522-1.963-1.583-3.013-1.581c-0.303,0.477-0.023,0.996,0.081,1.512"/>
		<path d="M200.017,191.302c1.398,6.356,2.775,12.03,5.432,17.429c1.032,2.099,3.854,4.539,3.846,6.994
			c-0.021,3.476-4.824,3.851-7.742,3.314c-0.135,2.679,4.758,4.123,6.844,3.123c2.599-1.24,2.648-5.538,4.697-6.591
			c0.646-0.331,3.618,0.028,4.667-0.171c1.271-0.239,3.211-0.354,4.271-1.092c0.629-0.438,1.363-2.034,1.894-2.616
			c0.838-0.915,2.12-1.517,3.035-2.823c-1.359-0.161-3.334,1.238-4.82,1.682c-1.86,0.554-3.354,1.441-5.013,1.898
			c-4.55,1.245-5.564-2.846-6.841-6.296c-2.344-6.324-1.084-20.373-11.359-16.824c0.465,5.232,2.833,9.235,5.926,13.354"/>
	</g>
	<path fill="#FF0000" d="M217.958,207.273c0.276,0.128,0.648-0.038,0.938-0.101c0.3-0.063,0.717-0.348,0.999-0.311
		c0.082,0.288,0.432,0.575,0.683,0.716c0.176,0.103,0.375,0.214,0.604,0.174c0.194-0.033,0.418-0.272,0.596-0.25
		c0.325,0.04,0.555,0.676,0.832,0.875c0.288,0.205,0.685,0.297,0.948,0.436c-0.544,0.225-1.042,0.159-1.588,0.075
		c-0.528-0.08-1.083,0.061-1.59-0.02c-0.454-0.07-0.81-0.168-1.225-0.431c-0.451-0.29-0.628-0.605-0.945-1.005"/>
</g>
</svg>
