<?xml version="1.0" encoding="utf-8"?>
<!-- Generator: Adobe Illustrator 16.0.4, SVG Export Plug-In . SVG Version: 6.00 Build 0)  -->
<!DOCTYPE svg PUBLIC "-//W3C//DTD SVG 1.1//EN" "http://www.w3.org/Graphics/SVG/1.1/DTD/svg11.dtd">
<svg version="1.1" id="Ebene_1" xmlns="http://www.w3.org/2000/svg" xmlns:xlink="http://www.w3.org/1999/xlink" x="0px" y="0px"
	 width="411.784px" height="425.2px" viewBox="0 0 411.784 425.2" enable-background="new 0 0 411.784 425.2" xml:space="preserve">
<g>
	<path fill="#245977" d="M364.328,214.599c-0.513,0.788-0.151,3.318-0.279,4.674c-0.212,2.174-0.472,4.689-0.86,6.681
		c-0.789,4.077-1.613,8.431-2.543,12.44c-1.156,4.966-2.172,9.778-2.092,14.891c0.08,5.33,0.036,10.764-0.477,16.058
		c-0.221,2.225-0.309,4.507-0.537,6.717c-0.34,3.187-0.824,3.092-3.719,3.661c-6.703,1.326-13.986,1.647-20.863,2.049
		c-3.836,0.219-7.551-0.124-11.388,0.415c-3.497,0.481-7.178,0.89-10.705,0.802c-4.292-0.109-8.557-0.94-12.812-0.838
		c-1.809,0.036-6.432,0.604-7.5-1.102c-0.811-1.291-0.036-5.075,0.022-6.628c0.216-5.426,1.112-10.881,1.866-16.219
		c0.683-4.856,1.469-9.377,0.891-14.584c-0.296-2.633-1.328-4.938-2.417-7.249c-0.97-2.056-1.747-4.754-3.13-6.366
		c1-3.114,3.006-4.711,5.663-6.169c5.108-2.801,10.326-5.469,15.759-7.475c9.377-3.449,18.635-7.153,28.039-10.574
		c3.41-1.239,6.567-2.603,10.166-3.041c2.975-0.364,5.823-0.715,8.823-0.948c1.273-0.095,4.944-1.071,6.046-0.32
		c0.772,0.519,1.054,2.698,1.214,3.56c0.481,2.435,0.178,4.87,0.489,7.212"/>
	<path fill="#245977" d="M119.615,61.72c-5.721,2.855-10.833,3.672-18.472,3.417c-2.026,1.823-5.06,3.975-5.275,7.321
		c-0.238,3.537,1.403,4.39,0.325,8.189c-0.912,3.244-3.487,5.914-4.391,9.166c-0.853,3.034,0.03,5.79-1.407,8.787
		c6.932,10.246,21.805,18.173,33.159,21.199c5.669,1.51,10.836,1.021,16.666,1.852c8.114,1.145,14.793,4.391,23.004,4.266
		c4.23-0.058,7.547,1.568,11.31,3.901c1.102,0.694,11.595,9.437,11.296,9.648c2.18-1.575,3.878-3.851,5.231-6.271
		c0.886-1.582,1.433-3.77,2.833-4.907c1.409-1.146,3.236-1.312,4.639-2.633c1.248-1.159,2.188-2.684,2.884-4.295
		c2.819-6.433,2.665-16.364-1.637-22.038c-1.393-1.837-2.942-4.075-5.088-4.979c-1.88-0.796-4.024-1.335-5.968-1.875
		c-7.955-2.188-16.178-0.743-23.801-4.842c-5.104-2.756-3.463-6.308-4.821-12.084c-1.085-4.622-3.409-9.238-5.876-12.673
		c-7.934-11.056-17.458-12.229-28.272-4.937C123.677,59.463,121.605,60.71,119.615,61.72"/>
	<path d="M158.341,50.49c-0.393-1.893-1.193-5.072-2.651-6.374c-0.966-0.856-1.283,1.135-1.619,1.937
		c-0.73,1.798-2.396,1.232-3.166-0.175c-0.437-0.787-0.663-1.652-1.072-2.458c-0.619-1.231-1.246-2.319-2.136-3.391
		c-0.876-1.047-2.91-4-4.419-2.677c-1.465,1.284-0.475,3.873-1.086,5.535c-0.876,2.385-3.012,2.56-5.068,1.994
		c-2.557-0.703-11.873-4.255-11.639,1.346c0.058,1.356,0.831,2.837-0.12,4.048c-1.198,1.538-2.928,2.421-4.052,4.12
		c-1.063,1.633-0.084,3.409,1.685,3.733c1.276,0.233,2.731-0.408,3.953-0.715c2.09-0.536,4.106-0.948,6.257-1.102
		c1.495-0.109,3.106-0.306,4.615-0.152c1.339,0.131,2.663,0.722,3.906,1.246c4.02,1.671,8.753,5.987,8.713,11.092
		c-0.018,2.122-0.575,3.676-1.174,5.645c-0.974,3.187-2.884,5.725-5.147,7.935c-1.759,1.713-3.781,3.106-5.482,4.886
		c-0.8,0.845-2.712,2.471-0.91,3.237c0.467,0.197,1.024,0.16,1.495,0.336c0.401,0.139,1.107,0.854,1.491,0.699
		c0.375-0.152,0.812-1.181,1.054-1.531c0.601-0.904,1.329-1.627,2.07-2.392c2.218-2.305,4.842-5.447,8.146-3.873
		c1.293,0.613,2.246,1.451,3.194,2.567c0.912,1.072,1.561,2.07,2.866,2.545c1.094,0.409,2.297,0.803,3.471,0.693
		c0.9-0.095,2.471-0.599,2.916-1.51c0.414-0.831,0.04-1.735-0.182-2.734c-0.365-1.765-1.088-3.34-1.637-5.031
		c-0.493-1.48-0.876-2.969-1.491-4.412c-0.588-1.386-0.988-2.611-1.247-4.106c-0.248-1.385-0.643-2.858-0.767-4.259
		c-0.116-1.385-0.138-2.869-0.152-4.28c-0.008-0.518,0.102-1.079,0.146-1.604c0.058-0.933-0.176-1.786-0.242-2.697
		c-0.048-0.671,0.138-1.272,0.176-1.933C159.175,54.68,158.738,52.434,158.341,50.49"/>
	<path d="M96.586,77.781c-0.127-0.226,0.513,0.168,0.747,0.3c0.559,0.327,1.12,0.634,1.674,0.977
		c1.629,0.977,2.924,2.188,3.882,3.938c1.168,2.145,2.876,4.244,4.803,5.571c1.495,1.028,2.687,1.116,4.367,1.372
		c-0.645,0.517-1.698,0.524-2.497,0.692c-1.251,0.298-2.487,0.335-3.771,0.203c-1.09-0.108-2.409-0.386-3.405-0.962
		c-1.072-0.62-1.972-1.685-2.854-2.604c-1.561-1.633-2.297-3.857-3.88-5.396c-0.663-0.635-0.808-1.166-0.495-2.107
		c0.371-1.137,0.87-1.67,1.641-2.421"/>
	<path d="M120.21,65.53c1.054-1.123,2.854-2.231,4.239-2.728c0.847-0.306,1.677-0.415,2.509-0.765
		c0.806-0.329,1.416-0.402,2.275-0.395c4.477,0.051,9.545,1.48,12.871,4.963c0.645,0.674,1.677,1.601,2.004,2.562
		c0.335,1.014-0.064,2.159-0.421,3.1c-0.639,1.67-1.477,3.194-2.487,4.631c-0.988,1.414-1.781,2.72-3.118,3.799
		c-1.01,0.802-1.994,1.721-3.07,2.385c0.266-0.89,1.305-1.619,1.774-2.414c0.695-1.182,1.102-2.574,1.529-3.872
		c0.433-1.283,0.812-3.048,0.578-4.448c-0.349-2.093-2.646-3.807-4.213-4.718c-1.357-0.788-2.757-1.47-4.31-1.48
		c-1.278-0.019-2.495,0.025-3.765,0.219c-1.458,0.223-2.493,0.379-3.975,0.044c-0.698-0.161-2.475-0.176-2.719-1.054"/>
	<path d="M130.276,79.407c-0.78,0.613-2.152,0.103-2.956-0.219c-1.24-0.503-1.892-1.327-2.607-2.494
		c-1.292-2.136-1.495-4.258-0.373-6.461c-0.922,0.628-2.128,0.781-3.106,1.24c0.419,0.219,0.966,0.24,1.421,0.168
		c-0.627,1.182-1.138,2.398-1.611,3.624c0.102,0.08,0.146,0.116,0.27,0.161c0.304-0.336,1.05-0.912,1.467-0.649
		c-0.22,0.568-0.555,1.086-0.695,1.685c-0.167,0.663-0.072,1.326-0.142,2.005c0.603-0.102,1.918-1.203,1.741,0.052
		c-0.066,0.415-0.379,0.802-0.453,1.254c-0.094,0.562-0.15,1.685,0.074,2.195c0.354-0.197,0.707-0.992,1.064-1.35
		c0.393-0.416,0.952-0.773,1.473-0.832c0.132,1.35,0.715,2.801,1.341,3.946c0.226-0.525,0.292-3.034,1.212-2.874
		c0.254,1.32,0.717,2.29,1.647,3.188c-0.11-1.145-0.575-3.07-0.27-4.084c0.714,1.334,1.915,2.436,3.383,2.472
		c-1.006-1.123-2.237-2.151-3.168-3.485"/>
	<path d="M139.062,55.562c-0.023-0.313,4.164,1.328,5.208,1.903c1.792,0.999,4.076,1.933,5.308,3.727
		c2.695,3.924,2.928,11.397,0.687,15.511c-2.765,5.09-7.355,8.064-11.609,11.471c-1.495,1.21-11.563,10.653-6.681,12.543
		c1.918,0.75,4.405-1.83,5.623-3.078c2.006-2.062,3.471-4.769,5.312-7.036c1.98-2.443,4.847-5.316,7.851-5.937
		c2.279-0.467,3.427,0.671,5.266,1.94c1.619,1.123,3.11,3.106,4.994,3.748c2.147,0.751,3.974-0.372,6.016-0.772
		c0.705-0.147,1.517-0.277,2.204-0.066c0.659,0.212,1.319,0.146,1.976,0.291c0.467,0.11,0.926,0.285,1.372,0.387
		c1.14,0.277,2.281,0.599,3.405,0.904c0.465,0.132,2.176,1.087,2.348,0.132c0.074-0.431-0.455-0.97-0.685-1.299
		c-0.628-0.889-1.313-1.778-1.976-2.632c-1.277-1.634-2.503-3.348-3.559-5.178c-0.541-0.926-1.174-1.771-1.729-2.705
		c-0.158-0.263-0.361-0.569-0.379-0.896c-0.021-0.264,0.062-0.489,0.014-0.759c-0.102-0.744-0.357-1.487-0.547-2.202
		c-1.332-4.828-3.405-9.378-6.132-13.437c-1.014-1.513-4.579-4.933-4.172-6.8"/>
	<path fill="#FF0000" d="M200.23,111.901c-0.287-3.004-1.182-5.935-2.431-8.611c-1.345-2.909-3.128-5.608-5.357-7.773
		c-1.056-1.028-2.224-1.933-3.477-2.647c-0.583-0.328-1.19-0.627-1.809-0.838c-0.423-0.14-0.842-0.146-1.255-0.278
		c0.701-0.24,1.485-0.167,2.208-0.233c0.754-0.065,1.515-0.146,2.271-0.247c1.603-0.219,3.208-0.496,4.805-0.796
		c2.976-0.547,5.95-1.195,8.962-1.479c8.465-0.816,16.24-1.977,24.64-4.171c13.795-3.603,30.949-3.88,44.808-0.183
		c16.166,4.31,34.638,16.939,47.155,28.782c18.812,17.815,35.686,36.133,40.054,63.837c1.676,10.661,4.776,22.146,4.299,32.917
		c-0.069,1.562,0.214,3.297,0.002,4.748c-2.559,0.072-5.082-0.475-7.609-0.372c-2.844,0.116-5.622,0.758-8.429,1.182
		c-7.317,1.094-14.767,2.588-21.903,4.688c-3.348,0.984-6.273,2.472-9.604,3.368c-4.273,1.138-8.667,1.89-12.886,3.297
		c-4.014,1.341-8.276,1.567-12.28,2.909c-3.116,1.05-5.417,2.218-7.156-1.91c-1.164-2.742-0.876-6.242-1.842-9.159
		c-1.571-4.755-2.913-9.604-4.619-14.308c-4.711-12.995-8.879-28.462-16.452-39.597c3.282,10.253,8.865,18.857,11.296,29.636
		c1.575,6.985,6.858,22.271,4.229,29.096c-8.469-5.921-20.462-6.278-29.855-9.093c-4.783-1.422-12.911-4.938-15.677-9.641
		c-3.016-5.119-5.068-12.368-7.717-17.946c-11.208-23.575-32.282-39.67-47.395-58.287
		C186.072,128.484,201.544,125.582,200.23,111.901"/>
	<path d="M220.71,170c6.393-6.279,15.467-9.24,23.937-8.97c7.11,0.226,14.406,2.909,18.859,9.027
		c-0.118,0.219,0.217,0.489,0.375,0.584c0.018,0.014,0.03,0.007,0.048,0.021c0.561,0.824,1.072,1.714,1.519,2.669
		c0.026,0.051,0.062,0.08,0.096,0.095c0.261,0.605,0.529,1.203,0.794,1.809c-0.12,0-0.26-0.007-0.383-0.015
		c-0.068,0-0.124-0.007-0.19-0.007c-0.473-0.519-0.976-1.006-1.519-1.451c-6.681-5.514-15.985-4.682-23.536-2.108
		c-6.474,2.203-13.332,5.958-18.057,11.603c-1.658-3.077-3.475-6.038-5.417-8.89C218.213,172.771,219.387,171.306,220.71,170"/>
	<path d="M238.042,182.878c7.802-1.423,16.32-1.371,23.845,1.604c1.856,0.736,3.671,1.654,5.306,2.865
		c0.826,0.62,1.643,1.312,2.335,2.122c0.256,0.292,0.417,0.7,0.697,0.941c0.303,0.27,0.758,0.35,1.084,0.642
		c0.415,0.364,0.918,0.663,1.261,1.079c0.623,0.743,1.438,1.684,1.844,2.573c0.358,0.788,0.35,1.947,0.635,2.859
		c0.197,0.634,1.014,2.829,0.517,3.347c-0.451-0.095-0.587-0.779-0.944-1.072c-0.423-0.342-0.882-0.692-1.349-0.955
		c-0.481-0.27-0.733-0.619-1.218-0.882c-2.577-1.48-5.13-2.896-7.992-3.741c-7.729-2.282-16.192-2.035-23.921,0.117
		c-3.651,1.013-7.377,2.515-10.687,4.688c-1.593-3.865-3.03-8.043-4.683-11.603C228.93,185.058,233.707,183.665,238.042,182.878"/>
	<path d="M240.849,201.422c8.066-1.809,16.583,0.313,23.751,4.521c5.425,3.18,10.472,7.664,13.964,13.294
		c0,0.335-0.626,4.587-0.71,4.521c-8.473-5.921-20.47-6.271-29.863-9.086c-4.725-1.415-12.709-4.864-15.567-9.48
		C234.986,203.398,237.814,202.107,240.849,201.422"/>
	<path d="M251.554,127.5c1.597-5.805,2.743-11.776,3.33-17.814c0.892-9.188,0.635-18.792-1.856-27.682
		c2.28,0.021,4.539,0.146,6.783,0.328c0.208,0.474,0.407,0.962,0.587,1.458c4.042,10.8,3.564,23.365,1.623,34.639
		c-0.942,5.462-2.098,11.295-4.366,16.299c-2.687,5.921-6.854,10.799-9.685,16.611c-0.058,0.123-0.014,0.233,0.065,0.299
		c-0.239-0.072-0.484-0.153-0.732-0.227c-1.756-0.48-3.543-0.803-5.346-0.991c0.012-1.444,0.758-2.903,1.35-4.135
		c0.854-1.751,1.802-3.435,2.748-5.112c1.074-1.925,2.302-3.872,3.039-5.994C249.975,132.634,250.835,130.111,251.554,127.5"/>
	<path d="M276.07,85.365c4.11,1.291,8.335,3.069,12.543,5.206c-0.076,0.803-0.154,1.619-0.244,2.429
		c-0.392,3.472-1.134,6.869-2.12,10.195c-2.056,6.949-5.024,13.505-8.134,19.944c-3.018,6.271-6.467,12.324-10.683,17.705
		c-2.03,2.596-4.208,5.062-6.537,7.329c-2.148,2.086-4.587,4.011-6.242,6.6c-0.882-0.591-1.805-1.131-2.757-1.598
		c3.493-6.649,8.236-12.353,11.839-18.923c3.248-5.922,5.779-12.427,7.763-18.981C274.415,105.623,276.034,95.517,276.07,85.365"/>
	<path d="M258.077,157.165c0.054,0.021,0.12,0.021,0.182-0.021c0.335-0.212,0.665-0.438,0.996-0.656
		c5.641-3.683,11.405-7.234,16.603-11.668c5.322-4.528,9.721-10.057,13.58-16.102c5.849-9.152,10.048-19.244,13.246-29.774
		c4.2,2.866,8.222,5.921,11.927,9.028c-5.673,12.207-14.667,22.307-24.101,31.064c-2.429,2.254-4.875,4.521-7.438,6.57
		c-2.455,1.97-5.124,3.56-7.851,5.011c-5.169,2.748-10.679,5.053-15.23,8.983c-0.667-0.816-1.379-1.582-2.144-2.29
		C257.927,157.245,258.001,157.209,258.077,157.165"/>
	<path d="M318.438,137.534c-5.491,4.492-11.468,8.438-17.424,12.149c-5.984,3.712-12.164,6.912-18.552,9.713
		c-6.006,2.633-12.2,5.185-18.621,6.294c-0.058,0.007-0.102,0.043-0.136,0.072c-0.573-1.342-1.231-2.61-1.986-3.785
		c0.102-0.029,0.212-0.064,0.313-0.095c6.06-1.838,12.032-4.054,17.737-6.956c6.014-3.063,11.723-6.855,17.112-11.078
		c5.425-4.25,10.585-9.035,14.821-14.708c3.611-4.842,5.948-10.552,8.944-15.802c0.033,0.029,0.07,0.064,0.103,0.094
		c3.902,3.683,7.704,7.395,11.331,11.209C327.63,129.054,323.255,133.589,318.438,137.534"/>
	<path d="M339.38,152.521c-11.709,6.971-24.253,12.374-37.166,15.955c-6.272,1.735-12.613,3.34-18.953,4.747
		c-3.315,0.736-6.647,1.378-10.013,1.722c-1.663,0.174-3.337,0.298-5.006,0.312c-0.088,0-0.184,0-0.273-0.008
		c-0.755-1.633-1.533-3.223-2.363-4.762c0.203,0.009,0.409,0.016,0.608,0.009c1.465-0.104,3.044-0.687,4.481-1.043
		c6.741-1.649,13.509-3.544,19.984-6.199c6.675-2.734,13.322-5.637,19.841-8.795c6.163-2.989,12.106-6.278,17.664-10.479
		c4.21-3.173,8.306-6.556,12.702-9.399c2.99,3.697,5.762,7.525,8.25,11.551C345.966,148.407,342.707,150.544,339.38,152.521"/>
	<path d="M351.938,174.762c-6.908,2.275-13.935,4.207-20.921,6.206c-7.019,2.005-14.04,4.098-21.104,5.942
		c-6.838,1.772-13.763,3.114-20.611,4.879c-2.763,0.715-5.498,1.487-8.294,2.063c-1.776,0.371-3.771,0.627-5.473,1.393
		c-0.762-2.224-1.531-4.484-2.326-6.73c1.531-1.451,4.867-0.496,6.525-0.175c2.906,0.554,5.645,0.561,8.601,0.298
		c6.691-0.611,13.394-1.771,19.785-4.054c6.154-2.194,12.064-5.141,17.811-8.408c6.106-3.472,12.319-6.65,18.596-9.742
		c3.944-1.947,7.87-3.923,11.721-6.082c1.521,3.901,2.761,7.985,3.694,12.317C357.32,173.507,354.55,173.894,351.938,174.762"/>
	<path d="M361.394,211.019c-3.237,0.183-6.469,0.227-9.688,0.568c-6.807,0.736-13.548,2.071-20.229,3.654
		c-6.88,1.625-13.757,3.339-20.545,5.381c-6.29,1.896-12.561,3.901-18.803,5.973c-1.707,0.562-3.405,1.16-5.068,1.853
		c-0.335-1.087-0.675-2.057-1.022-2.808c-0.9-1.961-1.655-3.908-2.343-5.862c0.595-0.104,1.188-0.19,1.764-0.285
		c2.752-0.438,5.509-0.722,8.262-1.087c6.162-0.831,12.266-2.486,18.318-3.981c6.998-1.743,13.977-3.58,20.991-5.236
		c3.303-0.772,6.61-1.53,9.966-2.042c3.011-0.466,6.036-0.83,9.056-1.246c4.318-0.605,8.638-1.363,12.795-2.75
		c0.346,2.458,0.668,4.916,0.971,7.365C364.351,210.793,362.859,210.938,361.394,211.019"/>
	<path d="M293.633,194.815c5.609-0.657,11.264-0.897,16.847-1.882c7.098-1.246,14.154-2.713,21.22-4.149
		c6.388-1.305,12.727-2.516,19.201-3.216c3.643-0.38,7.375-0.772,10.951-1.735c0.39,2.428,0.791,4.886,1.182,7.35
		c-4.316,0.569-8.678,0.759-13.023,1.036c-6.392,0.394-12.598,1.247-18.752,3.253c-6.268,2.056-12.346,4.863-18.691,6.621
		c-3.459,0.955-6.968,1.691-10.441,2.589c-3.431,0.89-6.709,2.122-9.98,3.58c-3.056,1.356-6.154,3.069-9.352,4.011
		c-0.467,0.132-0.94,0.24-1.403,0.343c-0.802-2.618-1.626-5.271-2.611-7.992c-0.629-1.721-1.244-3.492-1.856-5.287
		C282.054,196.456,287.952,195.472,293.633,194.815"/>
	<path d="M246.941,82.128c0.188,0.583,0.355,1.174,0.511,1.771c5.962,23.014-4.42,46.648-13.987,66.601
		c-2.104,0.256-4.194,0.686-6.236,1.262c0.321-0.795,0.774-1.546,1.194-2.312c0.032-0.016,0.07-0.037,0.098-0.073
		c4.529-7.103,7.459-15.431,9.585-23.729c2.746-10.689,4.233-21.877,4.158-33.012c-0.026-3.354-0.186-6.738-0.529-10.114
		C243.452,82.347,245.192,82.215,246.941,82.128"/>
	<path d="M227.69,94.984c1.615,7.219,1.264,14.884,0.13,22.146c-1.271,8.123-3.565,16.094-6.755,23.554
		c-2.918,6.789-6.571,13.433-11.479,18.697c-0.72,0.773-1.473,1.523-2.263,2.238c-2.505-2.902-5.086-5.71-7.689-8.48
		c1.435-1.4,2.719-2.997,3.864-4.587c3.471-4.812,6.166-10.282,8.364-15.904c2.421-6.213,4.284-12.718,5.416-19.368
		c1.038-6.141,1.566-12.521,0.798-18.727c-0.299-2.414-0.789-4.827-1.587-7.125c2.457-0.408,4.908-0.875,7.397-1.414
		C225.703,88.596,226.96,91.71,227.69,94.984"/>
	<path d="M204.848,105.492c0.736,7.14-0.044,14.512-1.974,21.373c-1.809,6.389-4.685,12.886-9.333,17.349
		c-0.426,0.416-0.875,0.795-1.328,1.159c-5.253-5.483-10.406-10.917-15.002-16.582c8.862-0.307,24.334-3.209,23.021-16.89
		c-0.794-8.35-6.824-18.507-14.468-20.287c3.647,0.037,8.481-0.97,12.799-1.764C202.52,93.767,204.257,99.818,204.848,105.492"/>
	<path fill="#245977" d="M94.62,296.542c-0.725-0.51-1.447-1.027-2.162-1.561c-1.395-1.014-2.784-2.041-4.243-2.96
		c-0.891-0.569-1.962-1.007-2.743-1.772c-0.345-0.328-0.758-0.504-1.159-0.744c-0.539-0.32-1.072-0.678-1.641-0.939
		c-0.896-0.401-1.756-0.897-2.647-1.299c-0.641-0.3-1.297-0.562-1.954-0.816c-0.587-0.233-1.203-0.569-1.83-0.664
		c-0.575-0.08-1.068-0.386-1.589-0.642c-0.627-0.313-1.262-0.62-1.893-0.926c-2.329-1.131-4.75-2.166-7.237-2.786
		c-1.234-0.299-2.539-0.744-3.807-0.605c-0.541,0.072-0.996-0.044-1.509-0.219c-0.701-0.247-1.415-0.423-2.124-0.642
		c-0.663-0.204-1.312-0.263-1.998-0.351c-1.236-0.182-2.449-0.028-3.697-0.051c-1.707-0.014-3.431-0.124-5.068-0.642
		c-1.663-0.519-3.062-2.151-3.749-3.82c-0.335-0.854-0.699-2.007-0.178-2.829c0.477-0.737,1.527-1.262,2.315-1.416
		c0.379-0.072,0.715-0.007,1.104,0.008c0.295,0.008,0.639,0.087,0.9-0.146c0.162-0.131,0.374-0.466,0.202-0.67
		c-0.27-0.329-0.952-0.445-1.31-0.562c-1.505-0.504-3.246-0.883-4.354-2.21c-0.445-0.518-0.763-1.123-0.838-1.852
		c-0.044-0.481-0.08-0.948,0.221-1.35c0.355-0.488,1.019-0.387,1.521-0.364c0.665,0.036,1.301,0.284,1.962,0.415
		c0.725,0.153,1.451,0.284,2.17,0.503c0.725,0.227,1.403,0.605,2.118,0.875c0.555,0.212,2.06,0.424,2.012-0.655
		c-0.024-0.621-0.717-1.08-1.148-1.327c-0.762-0.438-1.557-0.817-2.315-1.284c-0.875-0.518-1.721-1.217-2.461-1.954
		c-0.768-0.767-1.579-1.495-2.257-2.377c-0.381-0.496-0.95-1.255-0.641-1.934c0.212-0.474,0.591-0.729,1.046-0.882
		c1.349-0.459,2.827,0.24,3.904,1.102c0.84,0.656,1.591,1.399,2.313,2.21c0.569,0.642,1.108,1.341,1.779,1.852
		c0.662,0.504,1.946,0.896,2.175-0.321c0.26-1.466-0.906-2.851-1.708-3.835c-1.481-1.816-2.571-3.909-3.479-6.126
		c-0.372-0.904-0.781-1.939-0.831-2.953c-0.022-0.452,0.152-0.868,0.487-1.167c1.094-0.97,2.575-0.102,3.515,0.671
		c0.629,0.511,1.251,0.984,1.701,1.691c0.315,0.496,0.597,0.971,0.844,1.495c0.3,0.642,0.493,1.327,0.767,1.983
		c0.277,0.693,0.685,1.219,1.108,1.787c0.322,0.431,1.156,0.912,1.389,0.096c0.26-0.904-0.12-1.956-0.345-2.838
		c-0.379-1.495-0.609-3.114-0.419-4.667c0.112-0.911,0.309-1.859,0.569-2.734c0.301-0.978,1.052-1.874,1.687-2.589
		c0.912-1.057,2.275-2.012,3.635-2.042c1.463-0.043,2.818,0.679,3.95,1.671c0.657,0.575,1.29,1.363,1.729,2.157
		c0.336,0.606,0.421,1.32,0.474,2.013c0.044,0.605-0.168,1.211-0.256,1.824c-0.112,0.794-0.08,1.574-0.07,2.362
		c0.034,1.064,0.383,2.224,0.631,3.252c0.259,1.079,0.483,2.195,0.904,3.224c0.25,0.605,0.511,1.196,0.81,1.779
		c0.22,0.451,0.34,0.911,0.613,1.349c0.67,1.065,1.469,2.042,2.421,2.821c4.204,3.436,9.21,5.011,14.074,6.841
		c1.206,0.452,2.639,1.079,3.887,1.021c1.31-0.073,2.399-1.05,3.565-1.831c1.615-1.086,5.317-2.712,5.695-4.682
		c0.228-1.239-0.367-3.507-0.451-4.85c-0.096-1.771-0.365-3.572-0.613-5.323c-0.555-4.047-1.13-7.955-1.75-12.046
		c-0.896-5.878-2.29-11.441-4.054-17.063c-1.834-5.871-2.814-11.968-4.495-17.853c-1.579-5.557-2.169-11.259-3.234-16.918
		c-1.072-5.702-2.481-11.281-3.275-17.005c-0.467-3.421-0.816-6.898-1.16-10.341c-0.332-3.472-1.028-6.818-1.261-10.312
		c-0.627-9.422,3.633-18.099,8.853-25.268c3.765-5.17,8.759-9.261,14.669-10.822c12.487-3.311,25.009,4.638,34.153,13.272
		c18.229,17.18,27.354,49.551,38.76,73.273c6.118,12.746,12.453,25.398,17.799,38.576c0.529,1.305,1.088,2.617,1.575,3.943
		c0.74,2.035,1.86,3.873,2.756,5.82c1.86,3.982,3.968,7.635,5.697,11.624c2.435,5.593,5.136,10.996,6.825,16.962
		c0.471,1.669,0.978,3.646,0.437,5.323c-0.539,1.641-1.663,2.653-2.639,3.886c-3.854,4.835-8.441,9.263-13.408,12.646
		c-3.569,2.406-6.99,4.55-10.781,6.526c-1.059,0.54-2.104,1.532-3.316,1.342c-1.668-0.248-2.551-2.253-3.167-3.733
		c-2.034-4.864-3.854-9.765-6.136-14.52c-2.483-5.162-3.986-10.588-6.196-15.867c-2.824-6.738-4.936-13.709-8.024-20.339
		c-2.708-5.819-4.313-12.192-7.352-17.8c-1.501-2.785-2.132-6.249-3.222-9.262c-1.128-3.12-2.549-6.146-3.681-9.268
		c-1.954-5.36-3.842-10.778-5.978-16.095c-4.583-11.361-10.096-22.365-14.162-33.851c-1.495-4.207-3.202-8.386-4.882-12.427
		c-0.547-1.305-0.579-2.209-1.769-2.273c-1.35-0.06-2.319,0.874-2.938,1.961c-0.85,1.466-0.431,2.333-0.445,3.938
		c-0.018,1.59-0.354,3.26-0.234,4.82c0.256,2.968,0.583,6.038,1.028,9.006c0.832,5.586,2.517,10.961,4.008,16.291
		c1.021,3.689,1.725,7.373,3.03,11.025c1.218,3.42,2.333,7.132,3.142,10.742c1.028,4.623,1.591,9.933,1.701,14.729
		c0.098,4.771,0.231,9.538-0.128,14.229c-0.352,4.513-1.26,8.954-1.339,13.513c-0.05,2.494,0.353,4.492,0.988,6.883
		c0.661,2.51,0.507,5.127,1.277,7.628c0.645,2.107,1.782,3.945,2.489,6.017c1.244,3.595,2.09,7.512,2.915,11.245
		c0.738,3.383,0.403,7.648-0.917,10.82c-1.429,3.398-3.379,4.915-5.92,6.95c-4.741,3.777-11.607,5.104-17.101,3.624
		c-2.523-0.678-5.441-2.428-7.775-3.689C98.788,300.772,97.067,298.249,94.62,296.542"/>
	<path fill="#245977" d="M202.995,187.304c4.499,7.081,9.006,14.141,13.582,21.162c2.789,4.273,5.593,8.532,8.441,12.763
		c1.417,2.121,2.85,4.229,4.284,6.329c0.974,1.43,1.663,3.128,2.665,4.506c1.653,2.261,3.361,4.391,5.002,6.658
		c0.924,1.283,1.685,2.64,2.692,3.828c0.798,0.941,1.545,1.977,2.333,2.953c0.848,1.043,1.716,2.422,1.998,3.814
		c-0.14-1.582-0.643-3.201-1.004-4.74c-0.539-2.318-1.056-4.718-1.413-7.073c-0.387-2.582-0.806-5.171-1.132-7.759
		c-0.313-2.428-0.63-4.827-0.87-7.227c-0.176-1.75-0.22-3.516-0.401-5.266c-0.251-2.523-0.27-5.009-0.564-7.475
		c-0.114-0.992-0.198-3.689,0.658-4.382c0.336-0.277,1.022-0.27,1.407-0.27c0.843,0.014,1.711-0.052,2.543-0.008
		c1.391,0.087,2.712,0.248,4.09,0.211c1.565-0.051,3.19,0.073,4.723,0.197c2.463,0.204,4.769,0.999,7.044,1.969
		c2.836,1.211,5.198,3.436,7.812,5.054c1.05,0.649,1.976,1.466,3.008,2.115c0.649,0.4,1.142,0.766,1.579,1.399
		c0.631,0.904,1.483,1.524,2.242,2.269c0.722,0.692,1.284,1.546,1.856,2.377c0.701,1.006,1.415,2.021,1.732,3.252
		c0.401,1.532,0.292,3.187,0.292,4.755c-0.008,2.493,0.347,4.98,0.433,7.467c0.048,1.466-0.164,2.917-0.226,4.391
		c-0.054,1.334,0.11,2.669-0.026,4.011c-0.186,1.896,0.351,3.69,0.503,5.629c0.149,1.94,0.339,3.895,0.497,5.827
		c0.31,3.843,0.517,7.729,0.048,11.573c-1.004,8.327-4.321,17.479-6.747,25.398c-2.286,7.431-2.234,19.179-7.304,25.166
		c-11.23,0.095-15.597-13.075-21.49-21.476c-6.234-8.89-13.246-16.772-19.43-26.165c-11.825-17.976-21.793-37.242-32.097-56.305
		c-11.406-21.081-25.52-40.573-39.596-59.278c-6.779-8.998-12.456-21.001-22.348-26.478c-7.833-4.332-17.061-7.643-24.28,0.044
		c-1.264,1.341-2.004,3.025-2.798,4.739c-0.898,1.991-1.278,5.463-3.254,6.614c-4.419,2.567-3.354-7.044-3.16-9.283
		c0.191-2.312,2.022-9.794-1.689-9.231c-2.385,0.357-5.798,4.652-7,6.628c-1.878,3.085-3.457,6.797-4.653,10.18
		c-1.335,3.778-1.743,7.074-2.184,11.137c-0.241,2.144-0.522,3.478-1.419,5.359c-0.769,1.626-1.543,2.669-2.224,0.474
		c-0.86-2.814-0.541-7.423,0.124-10.136c0.397-1.641,2.744-7.789,0.146-8.131c-2.363,3.602-3.603,8.232-5.112,12.266
		c-0.806,2.157-1.447,4.376-2.633,6.388c-1.245,2.114-2.405,2.121-2.734-0.656c-0.27-2.13-0.573-4.223,0.14-6.293
		c0.75-2.195,2.026-4.288,2.771-6.418c0.787-2.254,2.028-4.426,3.07-6.577c0.78-1.634,2.369-4.368,2.042-6.228
		c-2.99-0.671-5.761,7.803-6.849,10.063c-1.889,3.937-3.711,7.307-6.336,10.566c-3.355,4.179-2.98-2.473-2.178-4.937
		c1.164-3.604,2.831-6.979,4.489-10.429c1.691-3.529,3.273-6.774,5.557-9.786c2.122-2.815,4.31-5.527,6.745-8.146
		c2.232-2.406,4.258-5.403,6.537-7.46c1.266-1.152,2.641-2.354,4.182-3.049c2.218-0.999,4.645-0.75,6.96-1.246
		c2.199-0.467,3.445-1.641,5.178-3.026c3.467-2.829,9.104-1.991,13.144-1.437c9.619,1.349,18.669,5.921,26.69,11.77
		c6.87,5.003,13.12,11.04,18.697,17.691C173.275,148.407,189.646,166.28,202.995,187.304"/>
	<path d="M345.325,337.452c-11.583,21.694-33.141,30.344-54.335,34.827c-21.777,4.603-43.568,2.049-64.459-5.483
		c-24.841-8.94-36.546-25.107-44.928-51.527c-1.615-5.119-3.978-11.528-3.125-16.743c10.152-2.523,24.875-13.942,29.991-23.685
		c-0.147,0.276,12.039,8.802,13.125,9.538c4.675,3.194,9.495,6.169,14.567,8.524c4.719,2.181,9.713,3.879,14.839,4.273
		c5.134,0.387,9.611-1.239,14.498-2.574c2.351-0.643,4.794-1.32,7.048-2.326c3.21-1.422,5.717-3.945,7.416-7.285
		c1.912-3.763,4.026-7.357,5.893-11.252c1.05-2.188,2.373-4.39,3.214-6.688c0.451-1.254,1.668-3.719,1.457-4.973
		c21.104,5.302,43.039,6.271,64.679,7.081c1.514,0.058,6.03-1.153,6.581,0.131c0.556,1.306-0.528,5.222-0.714,6.569
		c-0.219,1.59-0.47,3.385-0.715,5.055c-0.615,4.186-1.236,8.276-2.238,12.383c-0.992,4.047-1.893,8.115-2.928,12.141
		c-0.834,3.245-1.191,6.199-1.721,9.429C352.206,322.597,348.917,330.728,345.325,337.452"/>
	<path fill="#FF0000" d="M355.414,276.948c-0.3,0.707-0.182,1.443-0.282,2.121c-1.143-0.379-2.268-0.146-3.414-0.058
		c-1.029,0.073-2.454-0.438-3.374-0.139c0.241-1.058-0.194-1.758,0.688-2.399c0.483-0.342,1.736-0.058,2.302-0.051
		c1.419,0.015,2.727-0.016,4.12-0.27c-0.204,0.095-0.401,0.108-0.609,0.065"/>
	<path fill="#FF0000" d="M341.271,277.196c-0.285,0.685-0.317,1.633-0.343,2.398c-2.262-0.823-5.5-0.495-7.723-0.474
		c0.303-0.94-0.088-1.575,0.536-2.312c2.168,0.081,4.597,0.104,6.701,0.431c-0.132-0.036-0.266-0.073-0.397-0.109"/>
	<path fill="#FF0000" d="M324.105,276.591c-0.354,0.656-0.146,1.976-0.464,2.924c-2.067-0.635-4.59,0.139-6.553-0.139
		c-0.27-2.289,0.012-2.15,1.9-2.312c1.306-0.11,3.184-0.029,4.361-0.401"/>
	<path fill="#FF0000" d="M310.181,278.034c-0.198-0.051-0.242,0.153-0.423-0.08c-0.167,0.562-0.339,1.174-0.497,1.743
		c-2.272-0.372-4.827-1.386-7.066-1.123c0.106-0.693,0.264-1.386,0.467-2.042c1.072,0.422,2.308,0.008,3.457,0.139
		c1.378,0.168,2.785,0.715,4.125,1.102"/>
	<path fill="#FF0000" d="M295.661,275.643c-0.521,0.591-0.809,1.998-1.363,2.442c-0.824,0.657-1.032,0.073-1.914-0.27
		c-1.27-0.495-3.038-0.416-4.014-1.466c1.491-3.616,4.407,1.16,6.643-0.044"/>
	<path fill="#FF0000" d="M286.553,273.359c-0.441,0.891-0.831,1.853-1.966,1.444c0.471-0.576,0.697-1.151,1.27-1.641"/>
	<path fill="#FF0000" d="M360.671,275.599c-0.053-0.248-0.305-0.7-0.473-0.94c-0.375,0.824-1.666,1.414-1.762,2.231
		c-0.062,0.518,1.088,2.881,1.375,3.238c0.182-0.635,0.719-1.511,0.828-1.984c0.16-0.685,0.115-1.326,0.371-1.882"/>
</g>
</svg>
