<?xml version="1.0" encoding="utf-8"?>
<!-- Generator: Adobe Illustrator 16.0.4, SVG Export Plug-In . SVG Version: 6.00 Build 0)  -->
<!DOCTYPE svg PUBLIC "-//W3C//DTD SVG 1.1//EN" "http://www.w3.org/Graphics/SVG/1.1/DTD/svg11.dtd">
<svg version="1.1" id="Ebene_1" xmlns="http://www.w3.org/2000/svg" xmlns:xlink="http://www.w3.org/1999/xlink" x="0px" y="0px"
	 width="411.783px" height="425.2px" viewBox="0 0 411.783 425.2" enable-background="new 0 0 411.783 425.2" xml:space="preserve">
<g>
	<g>
		<path fill="#245977" d="M117.049,382.391c-9.7-6.345-4.894-24.465-9.448-34.051c0.778-1.221,1.813-2.428,2.896-3.365
			c3.337,1.424,7.157,5.786,10.416,4.15c2.479-1.242,2.274-3.07,5.384-3.198c3.638-0.151,7.148,4.402,8.453-1.096
			c1.141-4.802,2.517-9.62,3.32-14.497c0.424-2.566,0.594-5.16,0.602-7.765c0.004-1.495-0.02-3.282,0.608-4.614
			c3.97,4.356,6.813,10.217,9.225,15.617c1.446,3.238,3.445,5.606,2.744,9.35c-0.766,4.09-1.79,8.062-2.366,12.237
			c-0.576,4.169-0.502,7.982-1.979,12.017c-0.998,2.718-2.262,5.406-3.624,7.947c-2.976,5.557-8.888,9.615-14.986,10.22
			C124.624,385.707,120.172,384.436,117.049,382.391z"/>
		<path fill="#FFFFFF" d="M128.557,365.849c-0.947-1.243-2.289-2.892-4.166-3.361c-1.94-0.491-4.596-0.496-6.41,0.376
			c1.759,2.441,3.008,5.243,6.215,6.117c1.906,0.519,4.674,0.48,6.48-0.299c-0.751-1.802-1.256-3.289-3.09-4.144"/>
		<path d="M118.167,363.067c0.823,2.101,2.337,3.86,4.139,5.104c1.492,1.033,3.965,1.945,4.95,3.598
			c0.124-0.507-0.246-1.077-0.548-1.473c1.445,0.413,2.642,1.235,3.761,2.346c-0.354-0.822-0.719-1.793-1.438-2.395
			c1.069-0.084,3.55,0.698,4.222,1.607c-1.033-0.971-1.965-1.797-3.236-2.308c1.016-0.279,2.067-0.418,3.068-0.771
			c-1.452-0.3-2.469-0.217-3.102-1.735c-0.686-1.634-1.62-2.827-3.072-3.94c-1.319-1.014-3.188-1.205-4.798-1.113
			c-1.055,0.062-3.187,0.077-3.794,1.16c2.07,0.378,4.023,0.205,6.034,0.947c1.052,0.386,2.119,0.84,2.899,1.727
			c0.656,0.744,1.324,1.763,2.098,2.4c-1.064,1.422-4.961,0.543-6.226-0.051c-0.722-0.34-5.2-3.101-4.493-3.871"/>
		<path d="M125.761,369.657c1.82,1.025,4.252-0.413,3.025-2.546c-0.929-1.607-2.995-1.968-3.611-0.355
			c-0.017,0.039-0.03,0.083-0.047,0.121c-0.45,1.322,0.374,3.225,2.04,3.076c0.593-0.049,1.774-0.647,2.018-1.175
			c0.588-1.257-2.406-3.271-3.478-2.601C124.664,366.838,124.301,368.83,125.761,369.657z"/>
		<path fill="#FF0000" d="M130.086,350.002c0.309,0.061,0.306-0.287-0.002-0.287c-0.196,0-0.38,0.143-0.507,0.282
			c-0.104,0.12-0.15,0.259-0.232,0.397c-0.076,0.134-0.183,0.238-0.282,0.352c-0.146,0.168-0.555,0.414-0.456,0.657
			c0.099,0.249,0.476,0.181,0.678,0.22c0.271,0.049,0.377,0.263,0.509,0.484c0.159,0.277,0.381,0.398,0.676,0.494
			c0.61,0.196,1.27,0.27,1.85,0.54c0.694,0.319,1.373,0.935,1.873,1.524c0.366,0.426,0.734,0.851,1.1,1.274
			c0.212,0.249,0.601,0.616,0.703,0.94c-0.061-0.534-0.316-1.092-0.512-1.582c-0.238-0.596-0.466-1.197-0.708-1.788
			c-0.361-0.888-1.143-1.647-1.847-2.234c-0.474-0.39-0.966-0.718-1.509-0.985c-0.237-0.113-0.418-0.219-0.675-0.286
			c-0.264-0.073-0.549-0.144-0.776-0.31"/>
		<path d="M110.24,365.619c-1.244-1.159-2.351-0.609-3.414,0.599c0.396-0.454,0.786-1.112,1.357-1.267
			c0.557-0.155,1.064,0.139,1.534,0.304c-0.799-1.07-2.073-0.679-2.854,0.31c0.717-0.83,2.053-2.453,3.145-1.404
			c-0.702-0.962-2.958-0.058-3.085,1.042c0.244-0.598,0.884-1.676,1.456-2.023c0.532-0.313,1.759-0.083,2.218,0.315
			c-0.287,0.543-0.574,1.808-0.344,2.412"/>
		<path d="M130.127,386.415c3.357-0.294,6.931-1.984,9.274-4.521c2.366-2.557,5.324-4.879,6.375-8.451
			c0.532-1.807,1.192-3.763,1.419-5.651c0.219-1.826-0.262-3.754,0.52-5.417c-1.51,1.768-3.414,3.299-4.868,5.239
			c-1.376,1.844-2.146,6.382-4.198,7.396c-2.455,1.218-2.222-2.856-1.415-4.265c0.548-0.957,3.388-3.53,1.679-4.459
			c0.055,0.523-0.063,0.793,0.211,1.336c-1.349,2.157-4.057,2.729-4.764,5.495c-1.096,4.263-0.084,7.722-5.635,8.154
			c-3.019,0.234-5.955,0.251-8.599-1.423c-2.145-1.357-3.938-3.271-5.789-5.018c-1.246-1.174-2.372-2.291-4.14-1.891
			c-1.493,0.336-3.371,2.35-3.391,3.959c1.68-0.913,3.595-0.012,5.008,1.293c0.807,0.744,1.035,1.516,1.692,2.272
			C117.646,385.205,124.172,386.938,130.127,386.415z"/>
	</g>
	<path d="M166.701,344.104c-0.194-0.057-0.389-0.108-0.584-0.161c-2.984-0.793-5.454-3.051-8.617-3.199
		c-3.217-0.156-6.551,1.293-8.549,3.96c-0.485,0.647-0.477,1.493-1.379,1.339c-0.677-0.115-1.309-0.527-1.923-0.827
		c-1.321-0.645-2.622-1.214-3.909-1.92c-1.263-0.694-2.574-1.319-3.818-2.007c-0.022-0.011,0.734-2.834,0.803-3.096
		c0.584-2.229,1.263-5.698,0.145-7.895c-0.432-0.85-1.42-1.878-2.036-2.624c-1.783-2.169-4.423-3.229-6.551-5.014
		c-3.089-2.583-7.381-2.397-10.503-5.17c-3.099-2.75-5.167-7.447-6.691-11.28c-1.772-4.456-3.894-8.664-5.755-13.08
		c-1.081-2.562-1.961-5.222-3.152-7.746c-1.76-3.726-1.923-7.755-3.385-11.482c-1.306-3.326-3.138-6.523-4.494-9.878
		c-4.202-10.386-8.497-20.733-13.326-30.819c-1.938-4.046-3.922-8.057-6.011-12.019c-1.864-3.536-3.807-6.974-5.93-10.349
		c-1.71-2.717-2.33-4.945-3.124-7.984c-1.658-6.326-8.26-8.823-13.759-10.087c-3.519-0.809-2.068-3.43,0.913-3.225
		c2.601,0.179,5.085,1.304,7.721,1.193c-0.729-1.733-1.728-3.524-2.661-5.144c-0.564-0.984-3.782-3.702-2.515-4.904
		c1.927-1.827,5.974,6.085,7.599,6.857c0.833-1.391-0.656-4.953-0.925-6.547c-0.414-2.476-0.696-5.01-0.5-7.523
		c4.001-0.98,3.235,10.625,6.337,12.354c0.361-3.231-0.666-11.228,1.874-13.489c1.062-0.945,2.613,4.411,2.666,4.86
		c0.2,1.719,0.157,3.488,0.097,5.215c-0.031,0.924-0.555,7.492,1.749,5.672c1.575-1.246,2.589-6.576,4.893-6.304
		c3.582,0.422-0.514,5.998-1.278,7.131c-2.447,3.63-3.192,6.834-2.313,11.087c0.901,4.371,3.14,8.135,5.141,12.036
		c2.521,4.921,5.062,9.792,7.683,14.655c1.377,2.56,2.858,5.14,4.057,7.786c3.021,6.672,5.919,13.434,9.117,20.071
		c1.707,3.544,2.976,7.266,4.759,10.803c2.659,5.279,5.124,12.357,9.647,16.245c1.705,1.463,3.993,2.242,5.998,3.146
		c3.928,1.769,6.388,0.126,10.326-0.479c4.062-0.621,7.918-2.128,12.088-1.733c4.438,0.417,10.228,3.525,13.322,6.878
		c3.119,3.378,4.481,6.707,6.399,10.784c1.522,3.232,3.118,6.368,4.104,9.844c1,3.516,0.736,6.581,0.872,10.178
		c0.06,1.568-0.263,3.457,0.086,4.981c0.304,1.324,1.513,2.552,2.352,3.556c2.005,2.402,4.398,4.369,7.021,5.984
		c4.669,2.877,9.689,5.52,15.052,6.577c3.625,0.716,8.01,2.337,11.704,1.523c3.732-0.821,7.614-3.569,10.812-5.599
		c9.532-6.055,18.088-13.171,26.42-20.867c1.15-1.061,2.585-2.078,3.466-3.41c0.911-1.378,1.195-3.195,1.624-4.775
		c0.154-0.566,0.854-4.175,1.676-3.957c0.712,0.189,0.495,4.189,0.646,4.82c0.922,3.846,3.99-6.242,5.808-3.478
		c0.862,1.312-0.737,3.527,0.049,4.86c0.862,1.463,3.897,0.371,5.138,0.127c0.73,2.385-6.738,0.904-5.918,4.306
		c1.522-0.512,3.047-0.486,4.556,0.094c1.023,0.394,3.085,1.377,1.815,2.551c-1.319,1.222-4.547,0.181-6.126,0.358
		c-1.926,0.217-0.875,1.031,0.109,2.152c0.558,0.633,2.858,2.787,1.792,3.699c-1.042,0.894-4.068-1.604-4.822-2.162
		c-1.135-0.838-2.416-2.278-3.92-1.748c-1.747,0.615-3.344,3.087-4.562,4.413c-2.67,2.909-5.33,5.824-8.076,8.655
		c-4.795,4.941-9.869,9.994-15.684,13.611c-2.025,1.26-3.697,3.195-5.796,4.273c-2.628,1.354-5.736,0.752-8.561,0.803
		c-4.585,0.086-9.068-0.531-13.605-1.087c-4.909-0.601-9.842-0.89-14.696-1.964C175.18,347.521,171.098,345.363,166.701,344.104z"/>
	<path d="M166.701,344.104c-0.194-0.057-0.389-0.108-0.584-0.161c-2.984-0.793-5.454-3.051-8.617-3.199
		c-2.504-0.121-6.229,0.531-6.598,3.705c-0.201,1.728,0.885,2.947,1.127,4.556c0.279,1.86-1.541,1.788-2.659,1.089
		c-1.034-0.648-1.901-1.572-2.883-2.302c-1.488-1.104-3.142-1.907-4.86-2.535c-1.979-0.724-4.023-1.206-6.058-1.732
		c-0.735-0.191-1.591-0.335-2.215-0.822c0.784-0.681,1.101-2.36,1.467-3.333c0.507-1.344,0.993-2.687,1.254-4.104
		c0.241-1.305,0.456-2.609,0.742-3.905c0.222-0.996,0.474-2.035-0.013-2.941c-0.268-0.502-0.656-0.9-0.957-1.377
		c-0.141-0.224-0.185-0.469-0.337-0.68c-1.253-1.721-3.641-2.373-5.229-3.7c-3.089-2.583-7.381-2.397-10.503-5.17
		c-3.099-2.75-5.167-7.447-6.691-11.28c-1.772-4.456-3.894-8.664-5.755-13.08c-1.081-2.562-1.961-5.222-3.152-7.746
		c-1.76-3.726-1.923-7.755-3.385-11.482c-1.306-3.326-3.138-6.523-4.494-9.878c-4.202-10.386-8.497-20.733-13.326-30.819
		c-1.938-4.046-3.922-8.057-6.011-12.019c-1.864-3.536-3.807-6.974-5.93-10.349c-1.71-2.717-2.33-4.945-3.124-7.984
		c-1.658-6.326-8.26-8.823-13.759-10.087c-3.519-0.809-2.068-3.43,0.913-3.225c2.601,0.179,5.085,1.304,7.721,1.193
		c-0.729-1.733-1.728-3.524-2.661-5.144c-0.564-0.984-3.782-3.702-2.515-4.904c1.927-1.827,5.974,6.085,7.599,6.857
		c0.833-1.391-0.656-4.953-0.925-6.547c-0.414-2.476-0.696-5.01-0.5-7.523c4.001-0.98,3.235,10.625,6.337,12.354
		c0.361-3.231-0.666-11.228,1.874-13.489c1.062-0.945,2.613,4.411,2.666,4.86c0.2,1.719,0.157,3.488,0.097,5.215
		c-0.031,0.924-0.555,7.492,1.749,5.672c1.575-1.246,2.589-6.576,4.893-6.304c3.582,0.422-0.514,5.998-1.278,7.131
		c-2.447,3.63-3.192,6.834-2.313,11.087c0.901,4.371,3.14,8.135,5.141,12.036c2.521,4.921,5.062,9.792,7.683,14.655
		c1.377,2.56,2.858,5.14,4.057,7.786c3.021,6.672,5.919,13.434,9.117,20.071c1.707,3.544,2.976,7.266,4.759,10.803
		c2.659,5.279,5.124,12.357,9.647,16.245c1.705,1.463,3.993,2.242,5.998,3.146c3.928,1.769,6.388,0.126,10.326-0.479
		c4.062-0.621,7.918-2.128,12.088-1.733c4.438,0.417,10.228,3.525,13.322,6.878c3.119,3.378,4.481,6.707,6.399,10.784
		c1.522,3.232,3.118,6.368,4.104,9.844c1,3.516,0.736,6.581,0.872,10.178c0.06,1.568-0.263,3.457,0.086,4.981
		c0.304,1.324,1.513,2.552,2.352,3.556c2.005,2.402,4.398,4.369,7.021,5.984c4.669,2.877,9.689,5.52,15.052,6.577
		c3.625,0.716,8.01,2.337,11.704,1.523c3.732-0.821,7.614-3.569,10.812-5.599c9.532-6.055,18.088-13.171,26.42-20.867
		c1.15-1.061,2.585-2.078,3.466-3.41c0.911-1.378,1.195-3.195,1.624-4.775c0.154-0.566,0.854-4.175,1.676-3.957
		c0.712,0.189,0.495,4.189,0.646,4.82c0.922,3.846,3.99-6.242,5.808-3.478c0.862,1.312-0.737,3.527,0.049,4.86
		c0.862,1.463,3.897,0.371,5.138,0.127c0.73,2.385-6.738,0.904-5.918,4.306c1.522-0.512,3.047-0.486,4.556,0.094
		c1.023,0.394,3.085,1.377,1.815,2.551c-1.319,1.222-4.547,0.181-6.126,0.358c-1.926,0.217-0.875,1.031,0.109,2.152
		c0.558,0.633,2.858,2.787,1.792,3.699c-1.042,0.894-4.068-1.604-4.822-2.162c-1.135-0.838-2.416-2.278-3.92-1.748
		c-1.747,0.615-3.344,3.087-4.562,4.413c-2.67,2.909-5.33,5.824-8.076,8.655c-4.795,4.941-9.869,9.994-15.684,13.611
		c-2.025,1.26-3.697,3.195-5.796,4.273c-2.628,1.354-5.736,0.752-8.561,0.803c-4.585,0.086-9.068-0.531-13.605-1.087
		c-4.909-0.601-9.842-0.89-14.696-1.964C175.18,347.521,171.098,345.363,166.701,344.104z"/>
	<path fill="#FF0000" d="M112.92,274.421c1.039,1.957,2.189,3.822,3.539,5.399c-2.535-0.136-5.114-0.009-7.769,0.295
		c-2.076,0.238-4.098,0.425-6.085,0.489c-0.509-2.111-0.918-4.236-1.665-6.283C104.919,274.453,108.935,274.286,112.92,274.421z"/>
	<path fill="#FF0000" d="M89.361,224.303c0.426,0.796,0.841,1.594,1.27,2.389c0.477,0.889,0.966,1.781,1.453,2.677
		c-1.956,3.413-4.142,6.716-5.55,10.455c-0.074,0.198-0.141,0.401-0.212,0.602c-0.773-1.718-1.575-3.421-2.375-5.125
		C85.631,231.58,87.717,228.022,89.361,224.303z"/>
	<path fill="#245977" d="M77.783,199.852c-2.787-1.372-5.863-2.113-8.901-2.086c-1.305,0.011-2.61,0.045-3.919,0.08
		c-2.857-2.796-7.085-4.224-10.811-5.079c-3.519-0.809-2.068-3.43,0.913-3.225c2.601,0.179,5.085,1.304,7.721,1.193
		c-0.729-1.733-1.728-3.524-2.661-5.144c-0.564-0.984-3.782-3.702-2.515-4.904c1.927-1.827,5.974,6.085,7.599,6.857
		c0.833-1.391-0.656-4.953-0.925-6.547c-0.414-2.476-0.696-5.01-0.5-7.523c4.001-0.98,3.235,10.625,6.337,12.354
		c0.361-3.231-0.666-11.228,1.874-13.489c1.062-0.945,2.613,4.411,2.666,4.86c0.2,1.719,0.157,3.488,0.097,5.215
		c-0.031,0.924-0.555,7.492,1.749,5.672c1.575-1.246,2.589-6.576,4.893-6.304c3.582,0.422-0.514,5.998-1.278,7.131
		C77.702,192.5,76.953,195.675,77.783,199.852z"/>
	<path fill="#245977" d="M250.658,319.809c-0.176,0.062-0.35,0.156-0.521,0.251c-1.405-1.675-2.975-3.134-4.749-4.232
		c1.012-0.875,2.114-1.763,2.845-2.866c0.911-1.378,1.195-3.195,1.624-4.775c0.154-0.566,0.854-4.175,1.676-3.957
		c0.712,0.189,0.495,4.189,0.646,4.82c0.922,3.846,3.99-6.242,5.808-3.478c0.862,1.312-0.737,3.527,0.049,4.86
		c0.862,1.463,3.897,0.371,5.138,0.127c0.73,2.385-6.738,0.904-5.918,4.306c1.522-0.512,3.047-0.486,4.556,0.094
		c1.023,0.394,3.085,1.377,1.815,2.551c-1.319,1.222-4.547,0.181-6.126,0.358c-1.926,0.217-0.875,1.031,0.109,2.152
		c0.558,0.633,2.858,2.787,1.792,3.699c-1.042,0.894-4.068-1.604-4.822-2.162C253.443,320.719,252.162,319.278,250.658,319.809z"/>
	<path fill="#FF0000" d="M218.709,336.998c0.323,3.076,0.197,6.176-0.688,9.187c-0.492,1.675-1.162,3.255-1.934,4.779
		c-1.723,0.733-3.624,0.727-5.505,0.659c2.571-3.651,4.019-8.011,4.808-12.493c1.028-0.646,2.023-1.298,2.957-1.892
		C218.469,337.16,218.588,337.076,218.709,336.998z"/>
	<path fill="#FF0000" d="M178.967,333.529c0.668,4.6,1.152,10.464,2.6,15.364c-0.632-0.115-1.261-0.24-1.889-0.38
		c-0.36-0.079-0.713-0.177-1.067-0.271c-0.265-1.896-0.401-3.661-0.513-4.902c-0.324-3.595-0.467-7.209-0.854-10.794
		c-0.013-0.121-0.024-0.251-0.037-0.377C177.776,332.646,178.364,333.099,178.967,333.529z"/>
	<path d="M222.767,274.875c0.8,0.262,1.59,0.491,2.356,0.73c1.476,0.462,2.601,0.964,4.158,1.029
		c1.146,0.048,2.879-0.293,3.886,0.476c1.733,1.319,1.959,7.575,2.359,9.681c0.995,5.227,1.413,10.628,2.318,15.894
		c2.143,12.44,4.043,24.932,8.571,36.765c3.832,10.013,6.115,20.466,10.484,30.261c2.679,6.005,4.642,12.567,5.937,19.061
		c0.781,3.919,1.03,7.916,1.663,11.859c0.63,3.921,0.939,9.377-0.803,13.017c-2.515-2.507-3.51-7.014-4.59-10.314
		c-1.978-6.047-4.805-13.35-10.019-17.177c-1.893-1.39-5.601-2.845-6.712-5.178c-0.98-2.058,2.98-7.386,5.024-8.004
		c-4.755-14.721-10.241-29.314-15.205-44.003c-1.626-4.811-3.204-9.652-4.861-14.467c-1.562-4.544-3.753-8.84-5.217-13.416
		c-2.785-8.699-5.435-17.145-8.812-25.499c-0.698-1.729-1.51-3.292-2.008-5.074c3.082,1.499,6.552,2.393,9.747,3.727
		C221.62,274.481,222.195,274.688,222.767,274.875z"/>
	<g>
		<path fill="#FF0000" d="M231.262,295.214c-1.661,3.206-3.484,6.356-4.885,9.702c-0.534,1.275-0.946,2.549-1.296,3.822
			c-0.8-1.911-1.607-3.818-2.314-5.764c0.838-2.529,1.896-4.965,3.124-7.233c2.623-4.837,6.951-8.686,9.011-13.72
			c0.155,1.025,0.271,2.054,0.375,2.939C234.341,288.553,233.006,291.85,231.262,295.214z"/>
		<path fill="#FF0000" d="M247.401,372.974c-0.113-0.351-0.233-0.7-0.349-1.052c1.672-1.24,3.241-2.597,4.563-4.211
			c1.278-1.561,2.118-3.188,2.565-4.874c0.829,2.315,1.71,4.614,2.719,6.873c2.679,6.005,4.642,12.567,5.937,19.061
			c0.781,3.919,1.03,7.916,1.663,11.859c0.63,3.921,0.939,9.377-0.803,13.017c-2.515-2.507-3.51-7.014-4.59-10.314
			c-1.978-6.047-4.805-13.35-10.019-17.177c-1.893-1.39-5.601-2.845-6.712-5.178C241.396,378.92,245.357,373.592,247.401,372.974z"
			/>
		<path fill="#FF0000" d="M234.709,336.273c-0.848-2.433-1.689-4.865-2.513-7.303l-0.076-0.229c2.495,1.855,5.478,3.266,7.699,4.473
			c1.99,1.083,3.912,2.212,5.628,3.496c0.316,0.914,0.621,1.831,0.969,2.738c0.789,2.063,1.505,4.148,2.195,6.242
			C245.182,341.51,239.382,339.352,234.709,336.273z"/>
	</g>
	<g>
		<g>
			<path fill="#245977" d="M305.862,237.938c-0.611-0.341-1.222-0.707-1.787-1.125c-0.914-0.676-0.771-1.181-0.984-2.278
				c-0.082-0.425-0.379-0.779-0.628-1.123c-0.617-0.864-1.423-1.568-2.313-2.107c-1.782-1.082-3.938-1.557-5.986-1.331
				c-3.542,0.397-7.368,2.708-10.341,4.404c-3.491,1.993-7.536,4.6-9.96,8.032c-0.544,0.768-1.127,1.652-1.459,2.46
				c-0.384,0.935-0.38,1.82-0.67,2.872c-0.622,2.24-1.992,3.492-3.614,5.061c-0.843,0.811-1.959,1.374-3.008,1.866
				c-0.845,0.392-2.147,0.915-2.937,0.135c-0.834,0.67-1.32,1.421-1.105,2.554c0.433,2.309,1.135,4.664,2.247,6.719
				c0.792,1.467,1.597,2.929,2.804,4.063c0.764,0.717,1.624,1.626,2.599,2.011c1.036,0.406,4.789-2.094,5.887-2.579
				c2.693-1.177,5.396-2.632,8.053-3.935c2.61-1.28,4.917-2.412,7.545-3.574c2.622-1.166,5.111-1.738,7.948-2.2
				c1.168-0.19,2.382-0.229,3.484-0.569c1.955-0.607,3.38-1.804,4.747-3.27c0.44-0.476,0.846-0.995,0.854-1.691
				c0.012-0.922-0.365-1.018-0.785-1.705c-0.536-0.879,0.677-1.898,0.211-2.837c-0.232-0.474-0.549-0.55-0.591-1.147
				c-0.042-0.566,0.089-0.863,0.542-1.145c1.415-0.869,2.882-1.416,4.48-1.735c0.611-0.122,1.234-0.247,1.793-0.545
				c0.243-0.13,0.459-0.124,0.659-0.341c0.254-0.273,0.503-0.553,0.736-0.845c0.304-0.374,0.533-0.784,0.73-1.224
				c0.149-0.331,0.353-0.719,0.388-1.084c0.017-0.172,0.021-0.356-0.108-0.472c-0.15-0.133-0.315-0.149-0.503-0.143
				c-0.416,0.014-0.829,0.008-1.243,0.062c-0.455,0.055-0.891,0.184-1.349,0.234c-0.406,0.042-0.819,0.105-1.227,0.127
				c-0.247,0.011-0.508,0.003-0.748-0.027c-0.33-0.042-0.729-0.082-1.026-0.227c-0.348-0.169-0.738-0.269-1.104-0.396
				C307.333,238.619,306.571,238.336,305.862,237.938z"/>
			<path d="M298.263,235.364c0.312-0.124,0.647-0.169,0.96-0.282c0.263-0.096,0.554-0.143,0.837-0.143
				c0.235,0,0.572,0.094,0.722,0.305c0.133,0.19,0.01,0.41-0.132,0.547c-0.214,0.202-0.433,0.336-0.72,0.372
				c-0.308,0.04-0.621-0.039-0.929-0.013c-0.269,0.021-0.542,0.088-0.802,0.158c-0.34,0.09-0.629,0.279-0.897,0.496
				c-0.292,0.23-0.586,0.43-0.842,0.713c-0.325,0.359-0.598,0.787-0.855,1.201c-0.15,0.243-0.243,0.639-0.503,0.769
				c-0.263,0.129-0.561,0.191-0.849,0.207c-0.39,0.022-0.755,0.084-1.134-0.058c-0.285-0.106-0.532-0.274-0.821-0.371
				c-0.206-0.068-0.404-0.145-0.584-0.271c0.431,0.212,0.861,0.193,1.329,0.088c0.428-0.096,0.807-0.335,1.134-0.631
				c0.159-0.145,0.246-0.326,0.401-0.47c0.168-0.156,0.36-0.278,0.521-0.44c0.264-0.266,0.509-0.542,0.769-0.812
				c0.222-0.226,0.466-0.438,0.729-0.605c0.147-0.095,0.306-0.167,0.452-0.268c0.172-0.117,0.364-0.181,0.565-0.23
				C297.836,235.57,298.047,235.45,298.263,235.364z"/>
			<path fill="#FFFFFF" d="M299.994,240.94c-0.182,0.059-0.366,0.101-0.547,0.128c-0.326,0.052-0.617,0.182-0.958,0.182
				c-0.326,0-0.646-0.079-0.94-0.223c-0.207-0.104-0.375-0.245-0.578-0.352c-0.115-0.058-0.209-0.096-0.292-0.191
				c-0.065-0.082-0.136-0.17-0.197-0.247c0.324-0.098,0.584-0.437,0.853-0.638c0.424-0.314,0.848-0.657,1.294-0.93
				c0.291-0.18,0.55-0.411,0.851-0.578c0.23-0.127,0.483-0.213,0.725-0.32c0.232-0.099,0.438-0.186,0.674-0.252
				c0.183-0.052,0.282-0.024,0.445,0.055c0.279,0.139,0.972,0.432,1.019,0.797c0.026,0.207-0.109,0.423-0.189,0.604
				c-0.21,0.465-0.425,0.913-0.811,1.242C300.965,240.538,300.481,240.791,299.994,240.94z"/>
			<path d="M302.037,238.6c0.042,0.175,0.033,0.383-0.049,0.632c-0.186,0.554-0.57,0.785-1.116,0.864
				c-0.626,0.093-1.233-0.168-1.432-0.83c-0.208-0.701,0.055-1.102,0.699-1.287C300.811,237.788,301.861,237.902,302.037,238.6z"/>
			<path d="M306.597,248.121c-0.381,0.037-0.755,0.471-1.071,0.686c-0.415,0.282-0.789,0.556-1.221,0.806
				c-0.673,0.388-1.534,0.473-2.151,0.88c0.255,0.465,1.206,0.517,1.674,0.504c0.644-0.014,1.224-0.055,1.874,0.029
				c0.289,0.039,0.505,0.125,0.699-0.185c0.196-0.317-0.031-0.451-0.136-0.722c-0.138-0.354-0.012-0.404,0.198-0.726
				c0.199-0.304,0.255-0.537,0.321-0.854c-0.081-0.248-0.273-0.42-0.439-0.61"/>
			<path fill="#245977" d="M127.957,155.312c0.576-2.563,1.34-5.083,2.691-7.528c1.665-3.01,3.971-6.02,6.594-8.238
				c5.807-4.912,12.865-8,20.373-8.161c5.051-0.104,10.18,0.352,15.131,1.232c2.449,0.434,4.951,0.809,7.367,1.469
				c4.472,1.217,9.07,2.065,13.527,3.31c1.301,0.362,2.464,1.25,3.788,1.463c3.624,0.592,8.421-1.674,10.939-4.254
				c2.079-2.132,3.6-6.693,6.531-7.813c0.146,0.237,0.429,0.445,0.567,0.688c0.762-0.566,1.78-3.386,2.67-3.406
				c1.801-0.042,1.056,2.565,0.757,3.34c1.399-0.554,1.244-2.361,2.986-2.398c2.828,2.533-2.719,7.188-4.291,8.704
				c-3.138,3.026-3.799,5.388-3.816,9.677c-0.005,1.491,0.269,3.816-0.322,5.106c-0.759,1.648-2.795,2.187-4.394,2.438
				c-1.828,0.285-4.053,0.679-5.672-0.446c-1.627-1.132-2.189-2.251-3.958-2.868c-2.097-0.74-4.351-1.999-6.632-2.69
				c-4.983-1.514-10.203-1.794-15.314-2.604c-3.107-0.495-6.299-1.641-9.395-1.961c-2.866-0.294-6.437,0.021-9.321,0.382
				c-2.974,0.365-5.991,2.286-8.249,4.308c-4.548,4.068-6.585,11.756-6.878,17.801c-0.312,6.445-0.896,12.979,0.178,19.385
				c1.259,7.505,3.185,15.061-1.099,21.748c-1.53,2.392-7.725,5.443-10.469,4.139c-3.214-1.523-2.59-8.175-3.186-11.115
				c-0.448-2.199-1.553-3.787-1.74-6.101c-0.24-3.011-0.02-6.051-0.314-9.06c-0.603-6.107-2.428-11.726-0.873-17.795
				C126.895,161.108,127.31,158.18,127.957,155.312z"/>
			<path fill="#245977" d="M214.571,317.869c-0.009-0.068-0.015-0.137-0.019-0.207c-0.255-3.663,3.64-7.808,5.364-10.736
				c2.452-4.168,5.658-7.83,8.202-11.96c2.181-3.544,4.205-7.188,6.332-10.767c1.877-3.154,4.353-5.928,4.838-9.671
				c0.047-0.364-3.35,0.252-3.654,0.358c-0.531,0.188-1.062,0.557-1.602,0.688c-0.579,0.142-1.33,0.199-1.935,0.25
				c-0.786,0.065-1.56,0.084-2.363,0.084c-4.514,0-9.028-0.84-13.45-1.752c-3.729-0.768-7.432-1.747-10.979-3.181
				c-1.537-0.621-3.031-1.572-4.671-1.856c-1.528-0.267-2.778-0.831-4.186-1.522c-6.855-3.362-13.761-6.629-20.461-10.327
				c-4.365-2.409-8.639-5.008-12.73-7.894c-5.419-3.824-10.383-8.242-15.501-12.427c-5.304-4.341-11.177-8.495-16.144-13.089
				c-4.516-4.18-10.623-8.841-13.791-14.271c-3.084-5.287-6.755-10.409-9.53-15.94c-3.729-7.422-4.969-14.603-6.044-22.883
				c-1.47-11.311-1.408-22.795-0.272-34.135c0.575-5.754,1.415-11.479,2.49-17.152c0.474-2.504,1.307-3.607,2.501-5.66
				c1.306-2.242,1.419-5.067,2.105-7.543c1.181-4.254,2.78-8.606,4.723-12.566c2.548-5.186,6.075-10.092,9.597-14.479
				c3.3-4.118,6.698-7.867,10.953-11.094c9.652-7.319,19.323-13.545,30.824-17.099c6.934-2.138,16.87-1.535,21.704-8.211
				c1.68-2.313,1.512-5.319,2.025-8.053c0.357-1.895,0.456-8.632,2.152-9.648c0.872-0.524,1.791-0.06,2.21,0.792
				c0.275-0.626,0.315-1.381,0.135-2.064c1.018-1.516,2.654-0.883,2.521,0.824c2.033-1.217,4.986-3.775,4.404,0.562
				c-0.367,2.722-2.3,4.661-3.163,7.128c-0.917,2.626-1.288,5.088-1.192,7.958c0.107,3.209,3.872,7.968,2.478,10.927
				c-0.515,1.089-2.13,2.181-3.222,2.23c-2.288,0.104-4.171-1.377-6.334-1.634c-1.966-0.232-4.271,0.659-6.147,1.166
				c-7.555,2.038-15.015,4.73-22.209,7.98c-6.363,2.871-12.443,6.146-17.569,11.254c-2.626,2.615-4.998,5.031-7.166,8.111
				c-2.47,3.512-4.428,7.124-6.594,10.899c-5.673,9.899-6.424,21.152-9.699,31.907c-2.912,9.547-4.529,18.384-4.241,28.402
				c0.11,3.867,0.025,7.293,1.14,11.078c1.508,5.134,3.636,10.104,5.383,15.158c1.384,3.994,2.445,8.885,4.536,12.505
				c1.049,1.815,2.483,3.334,3.625,5.075c0.852,1.295,1.171,3.168,2.706,3.623c5.04,1.48,9.955-1.332,15.006,1.04
				c6.58,3.087,13.432,3.993,19.219,8.76c4.784,3.945,8.694,9.192,12.952,13.853c6.407,7.005,14.628,11.482,22.698,16.036
				c5.123,2.888,10.467,5.526,16.113,7.083c6.564,1.805,15.226,2.33,21.951,2.296c4.195-0.022,9.457-1.269,12.996-1.196
				c0.518,0.011,1.035,0.062,1.545,0.158c1.992,0.377,3.737,1.484,5.121,3.008c0.704,0.776,1.317,1.642,1.864,2.545
				c0.285,0.469,0.552,0.948,0.806,1.435c0.213,0.407,0.392,1.148,0.866,1.266c0.154,0.038,0.322,0.023,0.483,0.023
				c0.402,0,0.785-0.019,1.18-0.069c0.319-0.041,0.354,0.123,0.546,0.416c0.405,0.622,0.689,1.316,1.015,1.984
				c1.197,2.463,2.504,4.865,3.535,7.415c0.347,0.857,0.689,1.715,0.83,2.64c0.073,0.477,0.232,1.168-0.049,1.605
				c-0.352,0.543-1.284,0.599-1.827,0.808c-0.81,0.312-1.61,0.644-2.447,0.863c-1.736,0.454-3.449,0.427-5.262,0.575
				c-1.067,0.087-1.844,0.518-2.814,0.898c-1.271,0.499-2.472,1.133-3.654,1.838c-0.947,0.564-1.913,1.538-3.016,1.729
				c-0.55,0.094-0.972-0.052-1.468,0.312c-1.105,0.812-1.641,2.468-2.398,3.583c-0.82,1.209-1.089,2.572-1.779,3.866
				c-0.791,1.491-1.869,2.799-2.753,4.228c-1.896,3.07-3.572,6.142-5.795,8.982c-4.22,5.396-11.186,10.413-9.993,18.193
				c0.607,3.957,1.678,8.086,3.268,11.85c0.948,2.246,1.797,4.521,2.709,6.793c0.704,1.756,1.537,3.489,1.344,5.429
				c-1.215-0.777-2.583-2.097-3.598-3.148c-1.615-1.671-3.455-3.218-5.197-4.799c-2.369-2.153-4.74-4.319-7.062-6.553
				C217.806,323.043,214.892,320.541,214.571,317.869z"/>
			<g>
				<path d="M122.171,196.899c3.073-2.161,6.088-4.597,9.592-5.652c1.397,3.134,3.967,5.127,7.017,6.453
					c1.973-0.983,3.31-2.353,5.131-3.831c2.373,2.269,4.335,4.744,6.815,6.514c0.997,0.118,1.963,0.229,2.876,0.342
					c7.252,0.896,16.76,4.51,20.946,11.015c3.144,4.884,4.851,10.367,8.44,14.938c1.338,1.703,2.812,2.797,4.717,3.453
					c6.495,2.247,12.548,6.201,18.945,8.858c1.313,0.546,2.563,1.196,3.846,1.808c0.624,0.299,1.258,0.579,1.891,0.874
					c1.27,0.593,2.566,1.204,3.882,1.688c0.409,0.148,0.772,0.374,1.158,0.556c0.514,0.243,1.095,0.383,1.642,0.556
					c1.844,0.584,3.758,0.821,5.658,1.114c1.591,0.244,3.223,0.316,4.827,0.316c1.627,0,3.288-0.098,4.9-0.278
					c1.871-0.21,3.759-0.237,5.652-0.237c1.834,0,3.839,0.408,5.643,0.22c1.228-0.128,2.243-0.504,3.537-0.405
					c2.396,0.184,5.174,0.823,7.271,2.099c1.401,0.852,2.569,2.279,3.888,3.268c1.14,0.854,2.427,1.927,3.229,3.146
					c-3.13-0.01-5.001-3.748-7.857-4.432c-1.403-0.336-3.448-0.202-4.895-0.078c-1.341,0.114-3.814,0.217-4.899,1.206
					c-2.611,2.381,3.186,4.306,4.6,4.773c1.938,0.641,3.876,1.162,5.724,2.052c1.7,0.818,4.032,1.582,5.17,3.058
					c0.408,0.531,0.782,1.074,1.098,1.675c0.315,0.596,0.675,1.131,0.879,1.783c0.161,0.519,0.288,1.037,0.295,1.582
					c0.012,1.071-0.046,2.281-0.467,3.271c-0.147,0.348-0.399,0.623-0.597,0.942c-0.217,0.353-0.476,0.685-0.754,0.985
					c-0.316,0.346-0.656,0.661-0.979,0.995c-0.195,0.2-0.349,0.44-0.577,0.602c-0.736,0.524-1.592,0.932-2.377,1.377
					c-0.413,0.235-0.828,0.444-1.199,0.733c-0.294,0.229-0.674,0.285-1.008,0.426c-0.393,0.164-0.808,0.271-1.211,0.396
					c-0.369,0.115-0.758,0.232-1.138,0.326c-0.284,0.07-0.627,0.169-0.867,0.329c-0.245,0.165-0.443,0.395-0.654,0.596
					c-0.177,0.166-0.749,0.438-0.916,0.113c-0.185-0.362,0.346-0.611,0.554-0.757c0.526-0.378,1.097-0.704,1.613-1.094
					c1.573-1.188,3.439-1.904,5.023-2.999c0.894-0.616,1.452-1.659,2.019-2.593c0.556-0.918,0.86-2.015,1.055-3.06
					c0.204-1.099-0.159-2.262-0.524-3.271c-0.243-0.672-0.682-1.18-1.219-1.622c-1.051-0.863-2.271-1.634-3.558-2.038
					c-1.125-0.354-2.3-0.566-3.469-0.652c-1.438-0.105-2.904-0.224-4.345-0.238c-1.368-0.015-2.732-0.08-4.102-0.08
					c-1.71,0-3.416,0.085-5.124,0.19c-2.952,0.183-5.957,0.31-8.858,0.948c-2.812,0.619-5.747,0.946-8.326,2.357
					c-1.188,0.652-2.213,1.521-2.807,2.797c-0.223,0.48-0.348,1.161-0.106,1.661c0.259,0.54,0.662,1.059,1.005,1.549
					c1.298,1.863,3.212,3.028,5.297,3.683c1.995,0.626,4.082,0.84,6.147,1.044c1.017,0.102,2.034,0.196,3.047,0.335
					c1.08,0.146,2.178,0.159,3.182,0.634c0.402,0.191,0.802,0.435,1.177,0.688c0.434,0.294,0.704,0.315,0.612,0.896
					c-0.08,0.482-0.207,0.968-0.293,1.469c-0.244,1.434-2.722,1.007-3.704,1.007c-1.495,0-2.99,0-4.484,0
					c-3.045,0-6.043-0.181-9.057-0.432c-3.035-0.251-5.983-0.817-8.955-1.622c-1.897-0.512-3.725-1.09-5.527-1.896
					c-1.457-0.654-2.891-1.42-4.394-1.961c-3.156-1.139-6.375-2.164-9.527-3.401c-1.139-0.447-2.273-0.906-3.404-1.378
					c-6.164-2.57-13.027-4.861-18.426-8.516c-6.518-4.41-11.774-10.165-18.181-14.576c-4.029-2.779-7.783-4.435-11.584-7.618
					c-3.898-3.275-7.671-7.657-10.794-11.787c-5.652-7.47-13.931-12.976-17.971-21.789
					C115.793,200.398,119.338,198.887,122.171,196.899z"/>
			</g>
			<g>
				<path fill="#FFFFFF" d="M113.636,202.042c1.728,2.301,3.82,4.938,5.586,7.44c1.372,1.942,2.849,3.748,4.316,5.595
					c0.977,1.226,2.17,2.151,3.207,3.263c0.259-0.336,0.646-0.348,0.992-0.489c-0.927-0.929-1.774-1.82-2.615-2.953
					c-1.338-1.804-2.82-3.501-4.194-5.291c-1.368-1.777-2.862-3.454-4.214-5.219c-0.472-0.612-0.64-0.981-0.878-1.696
					c-0.146-0.453-0.373-1.26-0.787-1.529c-0.398,0.324-0.787,0.9-1.245,1.082c0.069,0.063,0.126,0.162,0.2,0.212"/>
				<path fill="#FFFFFF" d="M117.01,200.017c-0.161,0.291,1.936,2.356,2.27,2.731c1.94,2.193,3.69,4.6,5.598,6.834
					c1.098,1.289,2.254,2.545,3.28,3.868c0.633,0.82,1.243,1.679,1.983,2.388c0.292-0.583,0.65-0.892,1.166-1.178
					c-1.072-0.095-1.841-2.125-2.41-2.873c-1.423-1.868-2.75-3.826-4.067-5.775c-0.922-1.362-1.854-2.809-2.592-4.294
					c-0.329-0.667-0.661-1.286-1.001-1.931c-0.211-0.391-0.264-0.944-0.646-1.201c-0.536,0.324-1.134,0.457-1.713,0.709
					c-0.549,0.237-0.947,0.703-1.561,0.734"/>
				<path fill="#FFFFFF" d="M123.045,196.502c0.011,0.285,0.473,0.767,0.655,1.075c0.485,0.846,0.823,1.838,1.27,2.727
					c1.121,2.213,2.515,4.251,3.589,6.473c1.193,2.463,2.582,4.603,4.121,6.765c0.222-0.15,0.434-0.273,0.678-0.346
					c-1.818-2.617-3.008-5.622-4.555-8.522c-1.646-3.085-3.116-6.392-4.633-9.384c-0.528,0.418-1.003,1.084-1.564,1.35
					c0.046,0.103,0.113,0.178,0.193,0.252"/>
				<path fill="#FFFFFF" d="M126.034,194.541c0.368,0.467,0.834,0.738,1.209,1.198c0.797,0.992,1.464,2.151,2.203,3.204
					c1.42,2.016,2.729,4.129,4.064,6.188c0.63,0.963,1.386,1.769,2.065,2.7c0.303,0.412,0.434,0.881,0.696,1.33
					c0.19,0.326,0.584,0.667,0.667,1.023c0.259-0.269,0.628-0.439,0.92-0.61c-0.28-1.187-1.345-2.238-1.977-3.224
					c-1.212-1.882-2.566-3.652-3.812-5.53c-1.634-2.462-3.323-4.938-4.69-7.404c-0.314,0.257-1.355,0.98-1.355,1.282"/>
				<path fill="#FFFFFF" d="M128.63,192.805c0.708,0.805,1.417,1.604,2.13,2.408c1.776,2.002,3.07,4.429,4.825,6.455
					c1.718,1.982,3.497,4.343,5.567,5.81c0.103-0.354,0.292-0.616,0.504-0.919c-2.303-3.089-5.169-5.87-7.717-8.751
					c-0.949-1.071-1.896-2.146-2.847-3.222c-0.438-0.488-0.801-0.993-1.189-1.508c-0.505-0.677-0.675-0.684-1.402-0.452
					c0.068,0.124,0.163,0.261,0.276,0.347"/>
				<path fill="#FFFFFF" d="M131.207,191.548c0.598-0.212,2.767,3.335,3.163,3.913c1.284,1.876,2.546,3.588,4.333,4.929
					c1.289,0.968,2.4,2.163,3.864,2.869c0.489,0.234,0.603,0.42,1.081,0.021c0.375-0.315,0.433-0.782,1.005-0.88
					c-0.324-0.424-1.13-0.741-1.576-1.058c-0.599-0.426-1.22-0.882-1.84-1.292c-1.489-0.988-2.801-2.237-4.229-3.313
					c-1.894-1.424-3.984-3.299-5.426-4.93"/>
				<path fill="#FFFFFF" d="M149.725,200.643c-0.907-1.033-1.659-2.224-2.381-3.398c-0.782-1.263-1.388-2.744-2.408-3.824
					c-0.302,0.303-0.709,0.391-1,0.662c0.588,0.221,0.752,1.1,1.062,1.56c0.501,0.741,1.307,1.175,1.819,1.919
					c0.772,1.116,1.608,2.256,2.598,3.207c0.184-0.172,0.425-0.26,0.679-0.225c-0.223-0.045-0.266-0.178-0.429-0.305"/>
				<path fill="#FFFFFF" d="M142.894,194.754c-0.281,0.27-0.589,0.663-0.926,0.798c1.282,1.321,2.437,2.744,3.675,4.146
					c0.425,0.478,0.899,1.318,1.535,1.364c0.085,0.006,0.223-0.104,0.312-0.104c0.158-0.009,0.313-0.029,0.545-0.021
					c0.254,0.011,0.488,0.047,0.73,0.116c-0.453-0.436-1.041-0.741-1.529-1.215c-0.578-0.57-0.959-1.228-1.397-1.885
					c-0.446-0.671-0.942-1.288-1.321-1.99c-0.227-0.425-0.792-1.555-1.226-1.595"/>
				<path fill="#FFFFFF" d="M141.604,196.465c-0.352,0.085-0.631,0.366-0.995,0.482c0.826,0.072,1.546,1.811,2.091,2.423
					c0.597,0.674,1.287,1.455,2.019,1.927c0.222-0.188,0.263-0.2,0.521-0.229c-1.342-1.421-2.407-3.318-3.753-4.747
					c-0.019,0.095,0.021,0.137,0.036,0.22"/>
				<path fill="#FFFFFF" d="M139.809,197.271c-0.111,0.085-0.337,0.223-0.526,0.345c0.413,0.101,1.05,1.282,1.315,1.182
					c0.314-0.119-0.454-1.558-0.702-1.764"/>
			</g>
			<g>
				<path fill="#FFFFFF" d="M174.565,258.966c-1.809-0.795-3.429-2.505-5.084-3.672c-1.793-1.255-3.66-2.431-5.337-3.859
					c-1.614-1.378-3.469-2.573-5.169-3.769c-0.558-0.393-1.177-0.81-1.724-1.23c-0.744-0.569-1.271-0.83-0.69-1.708
					c2.985,2.717,6.001,5.306,9.114,7.841c1.493,1.21,3.21,2.185,4.822,3.21c0.693,0.44,4.213,2.401,3.978,3.086"/>
				<path fill="#FFFFFF" d="M174.749,256.538c-0.021,0.065-0.166,0.104-0.082,0.112c-2.908-3.277-6.306-6.049-9.536-8.949
					c-2.313-2.076-4.64-4.264-7.121-5.852c0.19-0.23,0.408-0.457,0.648-0.635c2.795,2.188,5.965,4.069,8.746,6.402
					c1.672,1.405,3.309,2.861,5.011,4.256c1.007,0.822,2.227,1.59,3.033,2.651c-0.632,0.505-0.546,1.301-0.976,1.905"/>
				<path fill="#FFFFFF" d="M173.171,248.629c-1.884-1.658-3.925-3.169-5.743-4.866c-2.2-2.055-4.64-4.038-6.948-5.805
					c1.132-1.839,2.387,0.431,3.377,1.208c1.586,1.248,3.018,2.599,4.388,4.146c1.261,1.431,2.701,2.514,4.151,3.632
					c0.639,0.491,1.351,0.998,2.013,1.5c0.523,0.401,1.445,0.801,1.771,1.437c0.212,0.413-0.94,1.117-1.232,0.989
					c-0.205-0.089-0.463-0.812-0.608-1.012C174.014,249.421,173.572,248.984,173.171,248.629z"/>
				<path fill="#FFFFFF" d="M175.034,245.507c-1.97-1.89-3.851-3.907-5.852-5.743c-1.692-1.563-3.611-3.18-5.433-4.443
					c1.113-1.086,2.351-0.184,3.443,0.677c1.399,1.109,2.634,2.422,3.854,3.799c1.148,1.3,2.269,2.675,3.532,3.802
					c0.771,0.688,1.514,1.426,2.337,2.05c1.038,0.787,0.899,0.934-0.146,1.8C176.825,247.398,175.149,245.619,175.034,245.507z"/>
				<path fill="#FFFFFF" d="M176.935,241.839c-1.573-1.14-3.194-2.078-4.522-3.54c-1.61-1.768-3.547-3.41-5.24-4.944
					c0.625-0.029,1.405-0.718,1.962-0.588c0.608,0.144,1.188,0.942,1.62,1.431c1.259,1.422,2.455,3.001,3.818,4.316
					c1.132,1.095,2.497,1.892,3.612,2.914c0.517,0.476,0.925,0.975,1.459,1.406c0.31,0.246,0.813,0.311,0.81,0.807
					c-0.009,0.541-0.637,0.748-1.021,0.535c-0.259-0.145-0.534-0.819-0.778-1.056C178.15,242.631,177.502,242.248,176.935,241.839z"
					/>
				<path fill="#FFFFFF" d="M181.344,242.12c-0.979-0.501-1.801-1.437-2.719-2.106c-1.254-0.914-2.188-2.028-3.314-3.106
					c-1.74-1.665-3.477-3.562-4.893-5.558c0.611-0.193,1.434-0.664,2.062-0.646c0.807,2.411,2.979,4.561,4.673,6.475
					c0.762,0.861,1.594,1.453,2.435,2.141c0.656,0.533,1.917,1.263,2.315,2.045c-0.345,0.273-0.409,0.652-0.748,0.914
					c-0.121-0.094-0.289-0.233-0.361-0.375"/>
				<path fill="#FFFFFF" d="M182.912,240.042c-1.59-1.445-3.346-3.168-4.843-4.87c-1.489-1.682-3.226-3.315-4.525-5.153
					c0.438-0.106,0.878-0.215,1.204-0.593c1.768,1.689,3.457,3.759,4.905,5.719c0.742,1.009,1.763,1.91,2.595,2.724
					c0.229,0.216,1.082,0.909,1.176,1.12c0.304,0.69-0.449,0.699-0.616,1.344"/>
				<path fill="#FFFFFF" d="M184.957,237.695c-0.627-0.019-1.824-1.033-2.398-1.439c-1.147-0.816-2.158-1.807-3.244-2.705
					c-1.518-1.259-3.037-2.605-4.256-4.238c0.229-0.258,0.482-0.5,0.744-0.722c1.611,1.54,3.062,3.347,4.644,4.86
					c0.802,0.768,1.669,1.381,2.524,2.045c0.733,0.565,1.864,1.079,2.443,1.735c-0.084,0.233-0.137,0.065-0.257,0.081"/>
				<path fill="#FFFFFF" d="M187.09,235.448c-1.396-1.381-3.118-3-4.744-4.36c-0.903-0.758-1.871-1.5-2.85-2.15
					c-0.687-0.454-1.542-0.822-2.038-1.527c0.399-0.05,0.638-0.332,1.015-0.454c1.621,1.368,3.224,2.791,4.812,4.348
					C183.764,231.771,187.65,234.889,187.09,235.448"/>
				<path fill="#FFFFFF" d="M189,234.164c-2.011-0.758-3.705-3.085-5.367-4.458c-0.711-0.587-1.509-0.991-2.234-1.49
					c-0.497-0.341-1.485-0.856-1.771-1.451c0.367-0.089,0.618-0.454,0.924-0.7c1.298,1.58,3.091,2.914,4.545,4.34
					c0.754,0.737,1.458,1.478,2.22,2.217c0.438,0.425,1.459,1.007,1.597,1.442"/>
				<path fill="#FFFFFF" d="M190.562,232.282c-1.979-0.95-3.631-2.805-5.439-4.114c-1.19-0.855-3.026-1.317-3.869-2.592
					c0.112-0.186,0.358-0.423,0.546-0.527c1.859,1.006,3.353,2.363,4.977,3.775c0.709,0.615,1.453,1.229,2.175,1.834
					c0.551,0.463,1.513,1.493,2.215,1.572c-0.018,0.078-0.062,0.137-0.143,0.17"/>
			</g>
			<path d="M302.591,237.915c-0.466-0.046-0.935-0.59-1.501-0.622c-0.373-0.02-0.819,0.15-1.168,0.326
				c-0.809,0.402-1.51,1.17-2.483,1.158c0.108,0.184,0.433,0.137,0.644,0.187c-0.536,0.404-1.114,0.812-1.72,0.975
				c0.175,0.085,0.403,0.119,0.593,0.095c-0.134,0.2-0.352,0.227-0.484,0.428c0.58-0.039,1.18,0.594,1.746,0.762
				c0.574,0.171,1.358,0.184,1.929-0.077c1.232-0.564,1.936-1.842,2.481-3.063c-1.371,1.861-3.163,2.802-5.401,2.6
				c0.376-0.078,0.905-0.538,1.224-0.77c0.427-0.312,0.749-0.629,1.219-0.875c0.886-0.463,1.86-0.645,2.777-1.036
				c-0.023,0.051-0.05,0.103-0.072,0.154"/>
			<path fill="#245977" d="M232.312,228.481c-4.687-7.271-8.698-14.628-12.37-22.491c-2.974-6.361-5.902-12.669-9.538-18.615
				c-3.398-5.559-6.45-10.754-7.781-17.315c-0.673-3.319-1.138-6.521-1.116-9.907c0.022-3.455,1.413-6.035,1.73-9.376
				c1.176,2.733,0.389,6.685,1.12,9.744c0.622,2.594,1.812,4.912,3.245,7.038c3.417,5.059,7.392,9.763,10.351,15.279
				c3.961,7.389,6.889,15.227,10.828,22.64c2.349,4.42,4.847,8.752,7.428,13.028c2.459,4.07,5.046,7.999,7.758,11.892
				c1.55,2.229,3.18,4.401,4.92,6.472c2.875,3.419,6.186,6.383,9.128,9.721c0.54,0.614,1.479,1.606,1.299,2.518
				c-1.41-0.811-2.659-1.924-4.254-2.312c-2.349-0.571-4.73-0.816-7.133-0.972c-1.144-0.074-2.282-0.036-3.428-0.072
				c-0.906-0.027-1.796-0.248-2.698-0.343c-0.83-0.087-1.763-0.023-2.277-0.831c-0.564-0.886-0.737-2.154-1.104-3.139
				c-0.911-2.439-2.246-4.662-3.4-6.976c-0.447-0.899-0.502-1.856-0.921-2.75C233.578,230.607,232.972,229.505,232.312,228.481z"/>
		</g>
		<path d="M274.078,246.133c0.342,0.321,0.44,0.837,0.896,1.091c1.925,1.074,3.237-1.737,3.138-3.282
			c-0.09-1.393,0.21-2.432,1.115-3.534c0.828-1.011,1.395-1.189,2.552-1.119c3.243,0.192,5.286,3.714,5.01,6.98
			c-0.074,0.885-0.069,1.907-0.717,2.581c-0.421,0.439-1.28,1.145-1.838,0.723c-0.011-0.175-0.064-0.375-0.026-0.559
			c-0.382,1.602,1.62,1.912,2.472,0.943c1.154-1.312,0.945-3.336,0.717-4.956c-0.271-1.917-0.725-3.193-1.858-4.721
			c-1.067-1.436-0.767-4.556,1.318-4.777c2.091-0.222,4.19-0.116,6.2-0.876c1.13-0.429,2.003-1.326,3.16-1.714
			c1.491-0.497,3.155-0.786,4.693-1.085c0.746-0.146,1.503-0.393,1.365-1.423c-0.129-0.999-2.818-1.883-3.634-2.21
			c-1.727-0.69-3.504-1.22-5.361-1.293c-0.871-0.035-1.731,0.309-2.559,0.546c-0.736,0.212-1.319,0.132-2.044,0.208
			c-1.8,0.192-3.789,1.312-5.354,2.197c-1.906,1.078-3.615,2.586-5.429,3.796c-1.823,1.216-3.705,2.593-4.718,4.736
			c-0.8,1.689-1.698,4.082-1.444,5.989c0.049,0.37,0.122,1.046,0.422,1.297c0.38,0.315,1.147,0.097,1.587,0.254
			C273.877,245.976,273.986,246.048,274.078,246.133z"/>
	</g>
	<path d="M128.056,290.178c-0.161,1.385-0.295,2.808-0.642,4.159c-0.313,1.205-1.104,2.392-1.178,3.62
		c2.021,0.488,4.062,0.774,6.06,1.426c2.093,0.682,4.368,2.376,6.591,1.918c2.002-0.412,4.061-0.974,6.039-1.539
		c1.532-0.438,4.411-2.658,5.945-2.252c0.247,7.35,3.135,14.86,4.16,22.086c2.819-0.543,5.644-1.315,8.501-1.95
		c2.679-0.595,5.575-2.321,7.987-0.599c0.558-5.236-0.504-10.529-0.467-15.668c0.016-2.222,1.458-4.516,2.34-6.578
		c1.356-3.176,3.355-5.797,5.341-8.547c1.662-2.305,3.01-5.077,4.408-7.604c3.26-5.889,6.199-11.999,9.311-17.981
		c2.433-4.681,4.192-11.254,8.032-14.93c2.336-2.235,5.99-1.523,8.885-1.46c3.471,0.075,6.945,0.004,10.416,0.059
		c2.566,0.042,8.367,3.036,6.309-3.082c-1.027-3.045-3.169-5.333-4.827-7.966c-2.37-3.766-2.453-8.697-1.973-13.726
		c0.468-4.884,1.468-9.859,1.422-13.944c-0.109-9.97-1.265-19.923-1.855-29.868c-0.548-9.222-0.435-18.463-0.946-27.68
		c-0.497-8.938-2.334-17.709-4.034-26.46c-0.799-4.109-0.446-8.139-0.938-12.226c-0.621-5.164-0.027-10.092,1.27-15.099
		c0.776-2.993,1.803-6.261,0.896-9.353c-0.822-2.81-3.117-4.634-4.66-6.976c-4.545-6.901-0.616-14.53-2.764-21.847
		c-2.132-7.252-4.798,4.151-4.963,6.519c-0.637,9.095-1.337,18.464-1.037,27.538c0.315,9.484,1.221,18.943,1.271,28.439
		c0.081,14.936,1.731,29.707,1.104,44.687c-0.242,5.845-0.904,11.661-1.687,17.452c-0.384,2.849-0.854,5.688-1.212,8.539
		c-0.271,2.145,0.151,4.188,0.045,6.32c-0.143,2.865-0.209,5.815-0.534,8.689c-0.273,2.418-0.612,4.709-0.948,7.116
		c-0.175,1.249-0.161,3.1-0.732,4.196c-2.556-0.318-5.594,2.768-7.847,3.807c-2.968,1.367-5.84,3.078-8.853,4.284
		c-2.613,1.044-5.272,1.825-7.805,3.101c-0.943,0.477-2.439,0.909-3.163,1.718c-0.858,0.961-1.168,2.737-1.796,3.886
		c-1.975,3.617-4.589,6.741-6.483,10.406c-1.475,2.858-3.306,5.555-5.214,8.118c-3.113,4.182-6.627,8.216-10.049,12.124
		c-3.737,4.27-7.405,8.603-11.141,12.87c-1.137,1.298-2.152,2.676-3.189,4.06c-0.733,0.978-1.438,2.021-2.25,2.929
		c-0.196,0.218-2.015,1.612-2.002,1.543C128.861,286.377,128.303,288.045,128.056,290.178z"/>
	<g>
		<path fill="#FF0000" d="M212.816,108.029c-1.204-1.65-2.408-3.262-3.494-4.854c-2.692-3.943-4.979-7.961-6.15-12.694
			c-0.663-2.685-1.126-5.402-1.519-8.134c0.131-6.572,0.612-13.214,1.067-19.716c0.165-2.367,2.831-13.771,4.963-6.519
			c2.147,7.316-1.781,14.945,2.764,21.847c1.543,2.342,3.838,4.166,4.66,6.976c0.906,3.092-0.12,6.359-0.896,9.353
			C213.028,98.853,212.442,103.356,212.816,108.029z"/>
		<path fill="#FF0000" d="M219.099,222.529c-1.6-2.227-3.564-4.273-5.498-6.131c-4.11-3.952-9.988-8.443-12.749-14.056
			c0.176-2.247,0.243-4.517,0.354-6.735c0.058-1.155-0.038-2.282-0.097-3.414c2.392,6.158,6.082,11.526,10.752,16.338
			c2.899,2.99,5.712,6.009,7.612,9.383c-0.064,0.55-0.126,1.102-0.179,1.65C219.198,220.562,219.137,221.55,219.099,222.529z"/>
		<path fill="#FF0000" d="M195.602,242.538c-2.058-3.793-4.598-7.618-5.674-11.877c-0.905-3.584-0.936-7.079-0.279-10.517
			c0.498-0.249,0.994-0.498,1.495-0.729c0.118-0.055,0.24-0.117,0.362-0.184c-1.184,5.271,1.309,11.038,4.27,16.137
			c1.587,2.734,3.938,6.035,5.875,9.543c-0.416,0.217-0.807,0.484-1.166,0.827c-0.813,0.779-1.529,1.693-2.182,2.687
			C197.592,246.412,196.634,244.439,195.602,242.538z"/>
		<path fill="#FF0000" d="M169.576,280.419c-4.719-0.225-9.074-2.228-13.517-3.744c-4.021-1.371-12.633-4.571-17.73-2.702
			c1.875-2.157,3.746-4.318,5.612-6.483c6.251,0.438,13.646,3.429,17.395,4.844c4.795,1.81,9.841,4.485,15.074,4.042
			c3.95-0.336,7.383-1.905,10.23-4.328c-0.93,1.807-1.874,3.604-2.842,5.385C180.024,280.354,173.678,280.614,169.576,280.419z"/>
		<path fill="#FF0000" d="M203.373,172.319c0.21-2.085,0.394-4.17,0.524-6.261c2.349-4.658,5.304-9.054,7.915-13.639
			c2.594-4.554,4.442-9.192,5.096-14.031c0.277,1.918,0.51,3.842,0.697,5.771C216.521,155.128,209.6,163.528,203.373,172.319z"/>
	</g>
	<path fill="#245977" d="M250.322,349.336c-1.033,0.182-1.988,0.717-2.787,1.413c-0.465,0.403-1.7,2.24-2.227,1.021
		c-0.697-1.613,3.301-3.638,3.693-4.946c-0.686-0.147-1.197,0.45-1.849,0.593c-0.84,0.184-1.429-0.125-2.176-0.489
		c-1.855-0.912,0.065-1.313,1.209-1.839c0.347-0.159,1.601-0.452,1.666-0.905c0.128-0.876-1.2-0.549-1.665-0.632
		c-1.096-0.2-3.823-1.457-4.433-2.478c1.404-0.43,3.389-0.889,4.815-0.216c-0.293-1.816-2.257-1.961-3.542-2.724
		c-1.703-1.011-1.764-2.771,0.474-2.768c1.666,0.006,3.25,0.891,4.929,1.009c1.624,0.112,3.266,0.513,3.854,2.323
		c0.482,1.491-0.005,3.076,0.557,4.595c0.503,1.363,1.485,2.51,1.545,4.02c0.063,1.596-0.597,3.15-0.662,4.74
		c-0.059,1.428,1.092,3.521,0.61,4.835c-0.818,2.229-3.269-1.386-3.588-2.394c-0.292-0.922-0.204-1.86-0.329-2.807
		c-0.151-1.135-0.601-2.17-1.065-3.197"/>
	<path fill="#245977" d="M221.605,208.841c-0.117,0.213-0.28,0.302-0.49,0.263c-4.953-9.506-14.093-16.139-19.104-25.672
		c-3.857-7.346-5.663-14.627-3.991-23.005c0.849-4.26,2.237-5.397,5.583-7.521c0.475,3.814-0.287,7.57,0.34,11.47
		c0.738,4.592,3.817,6.987,6.223,10.823c2.835,4.521,6.127,8.648,9.11,13.034c1.745,2.563,3.348,5.126,3.665,8.271
		c0.234,2.347,0.283,4.073-0.197,6.327c-0.367,1.727-1.139,3.706-1.159,5.483c0.044,0.22,0.143,0.206,0.291-0.043"/>
</g>
</svg>
