<?xml version="1.0" encoding="utf-8"?>
<!-- Generator: Adobe Illustrator 16.0.4, SVG Export Plug-In . SVG Version: 6.00 Build 0)  -->
<!DOCTYPE svg PUBLIC "-//W3C//DTD SVG 1.1//EN" "http://www.w3.org/Graphics/SVG/1.1/DTD/svg11.dtd">
<svg version="1.1" id="Ebene_1" xmlns="http://www.w3.org/2000/svg" xmlns:xlink="http://www.w3.org/1999/xlink" x="0px" y="0px"
	 width="555.056px" height="969.098px" viewBox="0 0 555.056 969.098" enable-background="new 0 0 555.056 969.098"
	 xml:space="preserve">
<path fill="#245977" d="M228.836,944.163c-0.166,0.945-0.09,1.873,0.358,2.73c0.245,0.467,0.603,0.869,1.054,1.16
	c1.416,0.91,3.365,0.67,4.939,0.381c0.961-0.176,1.908-0.422,2.852-0.682c0.444-0.121,0.879-0.281,1.315-0.412
	c0.524-0.154,1.083-0.166,1.614-0.344c0.572-0.193,1.093-0.316,1.707-0.264c0.559,0.047,1.041,0.318,1.557,0.502
	c0.357,0.127,0.732,0.248,1.096,0.398c0.885,0.367,1.688,0.457,2.645,0.457c0.935,0,1.932,0.162,2.74-0.301
	c0.67-0.385,1.224-0.84,1.568-1.533c0.893-1.787-0.352-3.648-1.18-5.234c-0.629-1.205-1.249-2.43-1.977-3.586
	c-0.473-0.752-1.01-1.758-1.069-2.648c-0.056-0.826-0.162-1.643-0.224-2.467c-0.151-2.051,0.313-4.088,0.661-6.098
	c0.181-1.043,0.334-2.088,0.451-3.137c0.304-2.711,0.542-5.857-0.685-8.404c-1.164-2.422-3.68-3.018-6.244-2.574
	c-7.574,1.314-6.09,10.557-6.072,16.078c0.012,3.4-0.95,5.576-2.88,8.445C231.778,938.538,229.314,941.436,228.836,944.163"/>
<path d="M223.641,690.686c0.066,0.184,0.127,0.365,0.188,0.551c1.265,4.029,0.789,8.572,1.201,12.729
	c0.614,6.189-0.217,12.219,0.062,18.332c0.405,8.896,1.508,18.242,2.505,27.096c0.962,8.557,1.123,17.404,0.898,25.967
	c-0.75,28.338,4.271,55.252,6.715,83.402c0.967,11.168,0.92,24.209-0.42,35.641c-0.864,7.391-2.215,14.734-3.307,22.107
	c-0.854,5.77-3.232,13.059,4.443,14.381c6.113,1.057,15.557,1.02,18.449-5.4c2.287-5.07,0.789-10.922,0.74-15.998
	c-0.055-5.48-0.236-11.314,0.276-16.689c0.617-6.443-0.405-12.123-1.007-18.383c-1.246-12.945-2.842-25.846-4.428-38.826
	c-0.652-5.352-0.948-10.676-1.695-16.078c-0.721-5.209-0.396-9.314-0.057-14.404c0.41-6.088-1.93-13.043-2.481-19.137
	c-1.501-16.516-3.017-33.043-3.455-49.658c-0.112-4.303-0.381-8.705-0.108-13.016c0.192-3.006,1.142-5.697,1.16-8.729
	c0.041-7.273-0.658-14.416,1.022-21.65c0.987-4.24,2.465-8.658,5.176-12.238c1.396-1.844,3.099-3.428,5.224-4.449
	c1.971-0.947,3.93-0.742,4.342-3.248c0.647-3.922-4.577-7.988-7.455-9.908c-8.678-5.789-9.486-16.043-11.963-25.361
	c-1.168-4.398-3.099-9.27-3.57-13.682c-3.594,1.982-6.438,8.219-8.322,11.748c-2.934,5.496-7.251,10.938-8.65,16.953
	c-1.345,5.791-1.531,13.338-0.172,19.189c0.784,3.377,0.965,6.529,1.365,9.998C220.677,685.045,222.597,687.768,223.641,690.686"/>
<path fill="#245977" d="M294.749,766.165c0.822-0.254,1.709-1.189,2.209-1.842c0.787-1.027,1.646-2.021,2.369-3.068
	c0.359-0.52,0.879-0.914,1.202-1.453c0.222-0.371,0.406-0.768,0.62-1.141c0.521-0.906,0.865-1.895,1.212-2.863
	c0.621-1.721,1.009-3.498,1.338-5.275c0.663-3.586,0.535-7.371-0.062-10.918c-0.37-2.189-0.852-4.248-1.637-6.336
	c-0.297-0.781-0.674-1.541-1.022-2.301c-0.138-0.299-0.263-0.588-0.53-0.814c-0.111-0.092-0.277-0.154-0.384-0.23
	c0.763-0.033,1.903,1.697,2.258,2.25c1.29,2.012,1.415,4.742,2.115,6.973c0.927,2.953,2.071,6.174,1.259,9.223
	c-0.632,2.359-1.936,5.039-3.197,7.105c-1.377,2.25-3.234,4.188-4.791,6.326c-1.15,1.578-1.47,3.594-2.865,4.953
	c-3.77,3.67-10.29,5.107-15.377,5.947c-4.756,0.783-9.619-0.006-13.979-1.768c-0.538-0.217-1.069-0.494-1.641-0.623
	c-0.32-0.07-0.683-0.043-0.956-0.24c-0.357-0.256-0.475-0.783-0.529-1.182c-0.021-0.158,0.029-1.34-0.136-1.383
	c-0.685-0.184-1.558-0.188-2.315-0.285c-0.935-0.119-1.965-0.158-2.916-0.117c-0.382,0.018-0.925,0.107-1.287,0.215
	c-0.441,0.129-0.927,0.207-1.381,0.338c-3.641,1.064-7.783,1.477-11.585,1.309c-2.792-0.121-5.622-0.67-6.079-3.713
	c-0.597-3.939,9.168-12.027,4.639-14.875c-0.033-0.023-0.072-0.045-0.108-0.068c-0.496-0.301-1.03-0.539-1.526-0.838
	c-0.109-0.062-0.213-0.137-0.324-0.197c-0.07-0.037-0.139-0.068-0.195-0.123c-0.088-0.09-0.143-0.213-0.211-0.314
	c-0.081-0.117-0.166-0.232-0.248-0.346c-0.135-0.18-0.208-0.398-0.162-0.617c0.036-0.176,0.139-0.354,0.219-0.516
	c0.049-0.105,0.112-0.207,0.187-0.301c0.147-0.191,0.282-0.4,0.448-0.578c0.418-0.451,0.848-0.893,1.254-1.352
	c0.272-0.307,0.631-0.547,0.906-0.857c0.114-0.123,0.242-0.229,0.354-0.359c0.115-0.133,0.242-0.258,0.359-0.395
	c0.764-0.883,1.636-1.693,2.264-2.68c0.135-0.209,0.203-0.447,0.355-0.648c0.074-0.102,0.168-0.191,0.25-0.291
	c0.055-0.07,0.195-0.186,0.192-0.275c-0.067,0.016-0.136,0.078-0.2,0.105c-0.076,0.037-0.152,0.074-0.229,0.096
	c-0.178,0.047-0.348,0.109-0.514,0.178c-0.492,0.205-0.922,0.533-1.326,0.879c-0.387,0.328-0.793,0.641-1.209,0.949
	c-0.491,0.365-1.016,0.738-1.573,1.002c-0.562,0.264-1.114,0.555-1.688,0.791c-0.284,0.115-0.659,0.174-0.963,0.158
	c-0.188-0.012-0.351-0.096-0.513-0.18c-0.172-0.092-0.354-0.205-0.51-0.324c-0.346-0.266-0.65-0.572-0.941-0.887
	c-0.229-0.246-0.46-0.598-0.523-0.924c-0.123-0.607-0.25-1.199-0.432-1.791c-0.307-1.01-0.697-1.984-1.177-2.93
	c-0.534-1.055-1.546-2.799-1.513-4.074c0.037-1.445,1.244-3.178,2.194-4.354c1.159-1.432,2.925-2.908,4.369-4.086
	c1.32-1.076,2.868-2.008,3.865-3.406c0.7-0.979,1.022-2.09,1.481-3.15c0.982-2.291-0.229-4.248-0.129-6.592
	c0.885,0.445,2.778-0.623,3.59-0.938c0.609-0.24,1.189-0.443,1.804-0.715c1.286-0.564,2.196-1.062,3.618-0.895
	c1.27,0.148,2.048,0.053,3.265-0.295c1.124-0.322,1.995-0.248,2.894,0.406c1.848,1.34,3.445,2.797,5.381,4.084
	c1.97,1.311,3.819,2.861,5.873,4.006c1.166,0.652,2.332,1.029,3.602,1.441c1.15,0.373,2.396,0.438,3.514,0.893
	c1.176,0.473,2.219,0.871,3.521,1.051c3.598,0.502,7.116,0.219,10.501,1.77c1.49,0.684,3.467,1.691,4.715,2.725
	c1.816,1.504,2.447,3.602,4.097,5.168"/>
<path d="M271.963,753.057c-0.171,0.203,0.384,1.035,0.475,1.352c0.164,0.564,0.197,1.209,0.297,1.795
	c0.211,1.238-0.013,2.445-0.383,3.646c-0.25,0.814-0.639,1.588-1.238,2.258c-0.323,0.365-0.713,0.623-1.227,0.736
	c-0.288,0.062-0.652,0.15-0.947,0.133c-0.268-0.02-0.449-0.146-0.72-0.1c-0.059-0.096-0.071-0.188-0.05-0.295
	c0.895-0.135,1.736-1.492,2.17-2.168c0.686-1.064,0.504-2.609,0.307-3.742c-0.228-1.307-0.484-2.537-0.191-3.82
	c0.209-0.924,0.888-2.549,1.931-2.895c0.374,0.932-0.644,1.854-0.36,2.748"/>
<path d="M264.659,751.11c-0.115-0.039-1.043,0.379-1.269,0.521c-0.353,0.223-0.677,0.51-0.944,0.828
	c-0.582,0.701-1.078,1.379-1.184,2.246c-0.125,1.002-0.135,1.883,0.039,2.922c0.15,0.904,0.583,1.52,1.087,2.275
	c-0.653-0.178-1.31-0.455-1.998-0.555c-0.492-0.072-1.649,0.174-2.026-0.119c0.914-0.119,1.816-0.318,2.731-0.438
	c-0.312-0.266-0.875-0.307-1.261-0.445c-0.618-0.215-1.379-0.188-1.946-0.473c0.937-0.307,1.851-0.135,2.769-0.248
	c-0.436-0.229-0.896-0.318-1.336-0.482c-0.181-0.07-0.354-0.186-0.539-0.252c-0.166-0.057-0.75-0.094-0.862-0.193
	c-0.421-0.377,0.567-0.406,0.86-0.455c0.457-0.074,0.952-0.115,1.387-0.248c0.033-0.066,0.023-0.131-0.029-0.18
	c-0.414,0.086-0.945-0.18-1.355-0.275c-0.291-0.064-0.689-0.207-0.896-0.367c0.379-0.123,0.855-0.182,1.252-0.201
	c0.238-0.012,0.584,0.037,0.877-0.055c0.225-0.068,0.42-0.207,0.659-0.242c-0.173-0.205-0.865-0.336-1.175-0.461
	c-0.438-0.172-0.807-0.326-1.224-0.48c0.917-0.117,1.875-0.082,2.775-0.359c-0.011-0.496-1.761-0.639-2.077-1.076
	c0.936-0.32,1.906-0.123,2.811-0.275c0.133-0.666-1.418-1.41-1.734-1.932c0.509,0.135,2.064,1.439,2.587,1.133
	c0.464-0.268-0.067-1.451-0.058-1.896c0.308,0.418,1.009,1.176,1.551,1.316c0.785,0.199,0.71-0.855,0.916-1.314
	c0.201-0.445,0.482-1.26,0.977-1.463c-0.166,0.299-0.148,0.924-0.221,1.283c-0.094,0.449-0.268,1.006-0.166,1.449
	c-0.225,0.033-0.324,0.145-0.514,0.238c-0.077,0.039-0.434,0.16-0.248,0.127"/>
<path d="M264.487,766.547c-0.039-0.02-0.076-0.035-0.113-0.053c0.24,0.479,0.56,0.918,0.709,1.41c0.152,0.5,0.294,1.238,0.293,1.762
	c0,0.217-0.16,1.172-0.415,1.285c-0.3,0.139-1.084-0.412-1.376-0.564c0.045-0.359,0.377-0.65,0.549-0.971
	c0.179-0.324,0.254-0.707,0.301-1.062c0.072-0.561,0.146-1.449,0.01-2.008c-0.191-0.002-0.392,0.035-0.578,0.08"/>
<path d="M262.311,767.92c-0.89,0.154-1.242,0.582-1.582,1.344c-0.041-0.215-0.019-0.492,0.099-0.682
	c0.138-0.227,0.485-0.318,0.397-0.578c-0.631,0.018-1.291,0.234-1.832,0.377c0.125-0.246,0.646-0.555,0.959-0.613
	c-0.326-0.262-0.871-0.018-1.302-0.008c-0.222-0.748,3.029-0.303,3.437,0.027c-0.108-0.051-0.219-0.039-0.33-0.068"/>
<path d="M272.369,745.454c-0.354-0.332-0.586-0.818-0.888-1.203c-0.534-0.686-1.271-1.326-1.924-1.906
	c-1.309-1.168-2.779-1.982-4.367-2.736c-1.67-0.795-3.299-1.178-5.154-1.426c-1.553-0.211-2.859,0.09-4.4,0.25
	c-1.753,0.182-3.238,0.217-4.139,1.887c-0.477,0.891-0.229,2.066,0.52,2.732c0.744,0.664,2.025,1.23,3.045,1.096
	c0.816-0.107,2.119-1.062,1.571-1.949c-0.235-0.383-0.741-0.387-1.028-0.59c0.774-0.324,1.926,0.168,2.18,0.855
	c0.17,0.459,0.043,0.84-0.174,1.258c-0.291,0.562-0.506,0.676-1.123,0.893c-1.947,0.678-3.822,0.17-5.102-1.385
	c-0.39-0.471-0.623-0.771-0.66-1.396c-0.031-0.525-0.018-1.096,0.067-1.586c0.188-1.057,1.022-1.465,1.965-1.93
	c1.296-0.645,2.501-1.074,3.923-1.434c0.764-0.195,1.512-0.451,2.289-0.578c0.702-0.115,1.396-0.01,2.102,0.078
	c1.394,0.174,2.57,0.607,3.803,1.242c1.575,0.811,2.719,2.09,3.979,3.232c0.78,0.709,1.322,1.494,2.068,2.25
	c0.317,0.32,0.744,1.16,1.207,1.283c0.676,0.18,0.282-1.014,0.307-1.424c0.051-0.807-0.026-1.578-0.164-2.385
	c-0.106-0.629-0.321-1.164-0.424-1.795c-0.082-0.523-0.248-1.027-0.519-1.486c-0.296-0.496-0.604-0.877-1.224-1.01
	c-0.395-0.084-1.018-0.215-1.305,0.1c-0.465,0.508,0.172,2.484,1.045,2.037c-0.031-0.174,0.014-0.355,0.053-0.52
	c0.131,0.305-0.051,0.625-0.348,0.787c-0.406,0.225-0.818,0.014-1.132-0.238c-0.614-0.492-0.998-1.779-0.876-2.535
	c0.271-1.691,2.775-1.584,3.653-0.51c0.436,0.535,0.608,1.221,0.886,1.852c0.286,0.654,0.359,1.455,0.482,2.195
	c0.123,0.729,0.246,1.457,0.369,2.188c0.195,1.168,0.368,2.297,0.576,3.441c-0.128-0.582,0.068-1.172,0.192-1.74
	c0.21-1.002,0.198-1.926,0.1-2.936c-0.052-0.533,0.009-1.102,0.003-1.643c-0.006-0.926-0.244-1.822-0.371-2.736
	c-0.195-1.383-0.23-2.791-0.463-4.182c-0.215-1.264-0.51-3.143-1.49-4.1c-0.434-0.422-0.888-0.75-1.287-1.225
	c-0.452-0.541-0.906-1.09-1.473-1.529c-0.445-0.344-0.97-0.543-1.488-0.77c-0.926-0.408-1.961-0.555-2.9-0.062
	c-1.009,0.533-1.538,1.205-1.184,2.225c0.168,0.492,0.299,1.076,0.92,1.234c0.353,0.09,1.123,0.012,1.309-0.322
	c0.278,0.213,0.028,0.654-0.092,0.906c-0.202,0.428-0.408,0.586-0.879,0.676c-0.918,0.174-1.797-0.23-2.311-0.979
	c-0.584-0.85-0.894-2.355-0.367-3.309c0.619-1.119,1.899-1.508,3.127-1.635c2.873-0.297,4.778,2.131,6.086,4.174
	c1.373,2.146,2.311,4.508,2.998,6.922c0.359,1.262,0.453,2.543,0.649,3.842c0.099,0.65,0.113,1.256,0.079,1.916
	c-0.027,0.498-0.079,0.973-0.044,1.469c0.021,0.271,0.017,0.539,0.108,0.801c0.029,0.086,0.25,0.398,0.25,0.453
	c0.004-0.377-0.078-0.703-0.036-1.072c0.056-0.48,0.178-0.895,0.347-1.336c0.432-1.119,1.227-2.18,1.369-3.379
	c0.046-0.379-0.018-0.75-0.002-1.129c0.023-0.561,0.232-1.086,0.343-1.633c0.452-2.215,0.049-4.701-1.063-6.666
	c-0.319-0.566-0.75-1.051-1.076-1.607c-0.327-0.551-0.508-1.174-0.893-1.693c-0.291-0.395-0.531-0.822-0.834-1.191
	c-0.837-1.012-1.619-2.109-2.348-3.23c-0.643-0.99-1.018-2.102-1.488-3.105c-0.22-0.469-0.343-0.916-0.676-1.352
	c-0.221-0.287-0.477-0.561-0.744-0.807c-0.131-0.121-0.402-0.283-0.447-0.449c0.75,0.188,1.485,0.879,2.203,1.229
	c0.805,0.391,1.737,0.51,2.592,0.752c0.951,0.268,1.762,0.475,2.726,0.613c0.999,0.143,1.979,0.34,3.01,0.52
	c2.695,0.475,5.337,1.174,7.902,2.072c1.399,0.49,2.862,0.965,4.216,1.543c1.643,0.699,3.174,1.629,4.755,2.436
	c1.866,0.949,3.614,1.955,5.175,3.34c1.618,1.436,2.973,3.137,4.256,4.834c1.263,1.668,2.397,3.688,3.149,5.602
	c0.724,1.842,1.091,3.828,1.421,5.783c0.612,3.627,0.45,7.537-1.283,10.943c-0.671,1.316-1.199,2.713-1.968,3.982
	c-0.662,1.092-1.487,2.076-2.317,3.053c-0.783,0.922-1.584,2.033-2.516,2.818c-1.27,1.068-2.527,2.135-3.752,3.258
	c-1.177,1.082-2.822,1.887-4.242,2.662c-2.839,1.557-5.771,3.256-8.932,4.146c-2.092,0.59-4.053,0.941-6.195,0.775
	c-0.906-0.068-1.921-0.199-2.793-0.387c-0.818-0.174-1.923-0.527-2.77-0.381c1.97-1.002,4.131-2.285,5.688-3.928
	c1.046-1.1,2.046-2.277,2.699-3.623c0.323-0.664,0.55-1.359,0.647-2.08c0.084-0.633,0.336-1.016,0.078-1.656
	c-0.675-1.668-3.377-2.852-5.149-1.969c-1.608,0.801-1.845,3.799,0.219,4.182c0.896,0.164,0.713-0.512,0.965-1.051
	c0.361,0.686,0.449,1.441-0.569,1.752c-0.791,0.236-1.537-0.09-2.121-0.586c-1.435-1.219-1.305-3.547-0.145-4.914
	c0.619-0.729,1.495-1.596,2.467-1.85c1.215-0.316,2.153-0.027,3.194,0.518c1.79,0.936,1.474,3.061,2.036,4.682
	c0.503-0.512,0.432-1.953,0.385-2.619c-0.062-0.867-0.268-1.801-0.648-2.553c-0.467-0.926-0.728-1.951-1.452-2.723
	c-0.653-0.691-1.489-1.221-2.253-1.793c-0.598-0.445-1.217-0.889-1.791-1.377c-0.695-0.588-1.164-1.359-1.648-2.088
	c-0.503-0.752-0.831-1.646-1.169-2.461c-0.371-0.889-0.933-1.689-1.261-2.658"/>
<path fill="#FF0000" d="M239.854,744.606c-1.024,0.465-1.851,1.699-1.83,2.742c0.019,0.998,0.422,2.16,1.518,2.506
	c0.657,0.211,1.234-0.406,1.652-0.814c1.063-1.029,1.647-2.559,1.904-3.928c0.198-1.072,0.586-2.061,0.985-3.088
	c0.194-0.498,0.362-0.98,0.66-1.432c0.243-0.367,0.687-0.637,0.866-1.025c-1.096,0.83-1.819,1.938-2.641,2.971
	C242.087,743.649,241.073,744.051,239.854,744.606"/>
<path fill="#FF0000" d="M242.143,740.342c-1.276,0.361-2.447,0.158-3.715-0.084c-0.416-0.082-0.818-0.191-1.24-0.244
	c-0.215-0.027-0.438-0.041-0.656-0.016c-0.094,0.008-0.169-0.01-0.256-0.004c-0.084,0.006-0.17,0.074-0.234,0.121
	c-0.083,0.061-0.163,0.125-0.242,0.193c-0.208,0.186-0.373,0.354-0.469,0.615c-0.126,0.342-0.173,0.738-0.006,1.064
	c0.07,0.141,0.188,0.25,0.279,0.383c0.121,0.17,0.272,0.311,0.422,0.463c0.342,0.357,0.676,0.707,1.078,1
	c0.215,0.156,0.371,0.268,0.648,0.316c0.081,0.016,0.162,0.043,0.243,0.062c0.196,0.055,0.414,0.066,0.618,0.033
	c0.216-0.039,0.436-0.07,0.637-0.15c0.083-0.031,0.168-0.064,0.256-0.107c0.051-0.021,0.1-0.031,0.149-0.061
	c0.315-0.178,0.553-0.5,0.835-0.723c0.749-0.592,1.482-1.215,2.182-1.871c0.285-0.268,0.53-0.572,0.832-0.822
	c0.148-0.125,0.312-0.225,0.482-0.316c0.156-0.086,0.363-0.053,0.535-0.127c0.162-0.07,0.35-0.092,0.521-0.145
	c0.162-0.045,0.275-0.121,0.408-0.217c0.049-0.035,0.14-0.066,0.14-0.135c0.001-0.051-0.084-0.166-0.133-0.188
	c-0.142-0.068-0.349,0.08-0.463,0.137c-0.159,0.088-0.325,0.148-0.49,0.213c-0.175,0.064-0.368,0.137-0.556,0.164
	c-0.1,0.016-0.197,0.033-0.296,0.047c-0.237,0.043-0.431,0.16-0.661,0.209C242.708,740.215,242.421,740.264,242.143,740.342"/>
<path d="M261.6,669.674c-2.168-1.818-3.171,4.295-3.479,5.211c-1.006,2.988-2.09,5.988-2.598,9.078
	c-0.775,4.752,0.566,10.041,2.73,14.318c0.857,1.697,1.556,3.348,2.793,4.822c1.087,1.291,1.957,2.719,2.97,4.055
	c0.906,1.195,1.963,2.199,2.935,3.354c0.75,0.891,1.694,2.709,1.375,3.84c-1.793,0.16-3.019-0.711-4.649-1.199
	c-1.806-0.545-3.82-0.529-5.767-0.535c-2.103,0-4.423,0.197-6.449,0.67c-2.278,0.529-4.502,1.498-6.772,2.174
	c-1.563,0.465-3.673,1.789-3.618-0.609c0.038-1.609,0.51-3.354,0.789-4.877c0.69-3.775-0.328-7.758-1.053-11.389
	c-0.35-1.744-0.898-3.414-1.212-5.182c-0.353-1.982-0.505-4.16-0.669-6.195c-0.217-2.713,0.01-5.918,0.504-8.559
	c0.141-0.758,0.188-1.611,0.296-2.357c0.078-0.551,0.177-1.131,0.258-1.613c0.083-0.473-0.185-1.381,0.103-1.787
	c0.3-0.418,1.763-0.875,2.215-1.094c1.924-0.924,3.765-1.51,5.949-1.654c1.48-0.096,2.974-0.137,4.426-0.41
	c1.974-0.375,4.011-0.568,6.021-0.512"/>
<path d="M247.407,752.159c-0.062,0.381,0.527,2.123,0.536,3.051c0.009,1.166-0.408,2.771-0.957,3.795
	c-0.56,1.035-4.595,5.887-5.439,3.523c-0.235-0.652,1.046-1.943,1.416-2.479c0.651-0.939,0.939-1.812,1.409-2.791
	c0.76-1.572,2.564-4.775,1.96-6.492"/>
<path d="M231.465,634.725c2.877-9.066,6.754-17.859,10.74-26.539c1.03-2.236,1.668-4.654,2.391-6.994
	c1.619-5.266,1.674-9.957,1.141-15.342c-0.311-3.139-0.588-6.277-1.219-9.309c-0.522-2.527-1.602-4.973-2.506-7.414
	c-1.123-3.031-2.098-6.137-3.198-9.148c-2.626-7.184-5.659-14.295-9.599-20.941c-1.459-2.461-2.694-5.059-4.299-7.428
	c-1.812-2.672-2.968-5.672-4.81-8.334c-2.351-3.393-4.586-6.865-6.958-10.262c-0.949-1.363-2.381-2.73-3.113-4.141
	c2.266,0.621,4.355,1.465,6.721,1.627c2.071,0.141,3.959,1.184,5.983,1.332c1.752,0.129,3.553-0.205,5.306-0.164
	c1.65,0.037,3.318-0.02,4.906-0.574c0.301-0.105,1.247-0.426,1.492-0.621c0.718-0.572,0.376-0.855,0.4-1.697
	c0.045-1.65-0.297-3.01-0.444-4.648c-0.146-1.588-0.384-3.111-0.69-4.648c-0.14-0.699-0.191-1.246-0.537-1.84
	c-0.781-1.334-3.236-3.422-2.873-5.139c2.791-0.873,6.457-0.41,9.147,0.82c2.019,0.924,4.087,0.619,6.217,1.205
	c4.318,1.182,7.884,3.514,11.906,5.295c2.94,1.299,5.958,1.6,9.169,1.764c2.195,0.109,4.677,0.178,6.113,1.961
	c2.029,2.518,1.561,6.629,1.672,9.596c0.385,10.4,0.91,21.094,2.913,31.336c1.716,8.77,3.067,17.893,4.786,27.021
	c1.894,10.055,6.406,20.379,7.479,30.129c2.024,18.377,3.164,37.967-2.249,55.627c-2.529,8.238-5.877,15.592-10.336,22.893
	c-2.691,4.406-5.557,8.748-8.863,12.785c-1.639,1.998-3.386,3.963-5.356,5.689c-0.882,0.775-1.675,1.654-2.658,0.695
	c-0.887-0.865-1.245-2.969-1.664-4.092c-0.821-2.182-2.383-3.514-3.873-5.318c-3.038-3.686-6.213-7.332-9.401-10.945
	c-1.479-1.676-2.244-3.74-3.418-5.596c-1.49-2.348-2.315-4.695-3.222-7.332c-0.737-2.15-1.634-4.297-2.292-6.463
	c-0.408-1.352-0.898-3.125-1.72-4.354c-0.8,0.299-1.507,2.646-1.668,3.482c-0.284,1.461-0.42,2.934-0.483,4.439
	c-0.062,1.561-0.292,3.189-0.209,4.742c0.09,1.631,0.744,3.256,1.094,4.854c0.606,2.787,1.856,5.311,3.116,7.814
	c1.093,2.172,2.707,4.869,2.906,7.109c-2.17-0.811-3.396-2.809-4.915-4.549c-1.898-2.18-3.352-4.498-4.148-7.211
	c-1.037-3.555-2.223-6.844-2.78-10.449c-0.31-1.998-0.427-3.814-0.33-5.867c0.098-2.094,0.03-4.188,0.147-6.275
	c0.119-2.152,0.82-4.191,1.004-6.309C228.748,642.833,230.187,638.747,231.465,634.725"/>
<path fill="#FFFFFF" d="M257.961,692.635c-1.896-5.465-4.924-10.463-7.629-15.58c-3.283-6.215-6.436-12.551-8.391-19.283
	c-0.714-2.465-1.215-4.879-1.835-7.393c-0.513-2.08-1.562-4.5-1.474-6.635c-0.74,0.387-0.94,1.834-1.306,2.594
	c-0.521,1.084-1.209,2.15-1.782,3.193c-1.281,2.332-1.787,4.693-2.721,7.102c-0.699,1.809-0.941,3.994-1.273,5.887
	c-0.303,1.758-0.238,3.967,0.1,5.652c0.725,3.609,1.357,7.242,3.073,10.771c0.065,0.135,0.133,0.268,0.2,0.404
	c0.629,1.23,1.356,2.416,2.007,3.637c0.274,0.516,0.442,1.043,0.729,1.549c0.333,0.586,0.631,1.199,0.824,1.84
	c0.141,0.461,0.21,0.953,0.389,1.404c0.066,0.164,0.192,0.629,0.342,0.715c0.039-0.195-0.022-0.354-0.014-0.553
	c0.01-0.199,0.016-0.4,0.025-0.6c0.012-0.326,0.085-0.699,0.027-1.021c-0.041-0.242-0.101-0.443-0.104-0.693
	c-0.012-0.662-0.027-1.32-0.036-1.98c-0.018-1.324-0.019-2.648,0.036-3.973c0.062-1.494,0.334-2.658,0.555-4.08
	c0.161-1.045,0.834-2.486,0.772-3.576c1.112,0.477,1.472,2.332,2.106,3.281c0.852,1.283,1.574,2.648,2.385,3.883
	c1.824,2.771,3.531,5.568,5.234,8.318c0.684,1.104,1.323,2.232,1.938,3.371c0.315,0.58,0.622,1.162,0.927,1.744
	c0.283,0.537,0.528,1.092,0.891,1.582c0.148,0.203,0.282,0.418,0.434,0.615c0.316,0.414,0.686,0.791,0.996,1.203
	c0.285,0.381,0.629,0.76,0.962,1.109c0.321,0.33,0.622,0.666,0.944,0.99c0.465,0.461,0.953,0.908,1.395,1.389
	c0.188,0.207,0.261,0.367,0.333,0.621c0.067,0.238,0.245,0.426,0.425,0.607c0.123,0.123,0.266,0.432,0.418,0.486
	c0.245-0.404,0.458-0.869,0.477-1.35c0.01-0.258,0.021-0.514,0.031-0.771c0.014-0.271-0.062-0.496-0.14-0.762
	c-0.194-0.674-0.578-1.268-0.795-1.941c-0.128-0.396-0.312-0.781-0.46-1.174c-0.151-0.402-0.385-0.781-0.525-1.178
	C258.285,693.575,258.124,693.102,257.961,692.635"/>
<path fill="#FFFFFF" d="M334.669,461.399c-0.293,0.172-0.781,0.041-1,0.305c-0.285,0.348,0.009,1.215,0.226,1.541
	c0.625,0.936,1.93,0.434,2.728,0.023c1.983-1.023,3.522-2.719,4.987-4.322c1.682-1.836,3.256-3.764,4.711-5.77
	c1.519-2.094,3.162-4.332,4.08-6.746c0.287-0.75,0.713-1.424,0.998-2.174c0.082-0.211,0.141-0.453,0.262-0.646
	c0.096-0.148,0.249-0.234,0.289-0.402c-0.449,0.117-1.071-0.029-1.563-0.01c-0.581,0.023-1.147,0.145-1.731,0.127
	c-1.039-0.025-2.074-0.076-3.086-0.318c-1.183-0.281-2.33-0.76-3.478-1.164c-0.444-0.156-0.89-0.316-1.335-0.471
	c-0.355-0.125-0.75-0.223-1.086-0.344c-0.337-0.121-0.609-0.516-0.838-0.783c-0.107-0.125-1.633-1.713-1.75-1.453
	c-2.225,4.893-5.869,9.068-9.199,13.373c-2.33,3.014-1.376,3.152,0.827,5.783c1.374,1.639,2.511,3.152,4.045,4.654
	c-0.299-0.146-0.608-0.123-0.933,0.072"/>
<path d="M263.583,497.633c-1.408-2.09-3.179-3.594-5.08-5.34c-2.813-2.582-4.961-5.488-7.568-8.232
	c-4.863-5.119-9.801-9.279-14.907-13.982c-4.758-4.377-9.62-8.719-13.769-13.867c-3.049-3.777-5.834-7.936-9.254-11.387
	c-3.338-3.361-6.692-6.594-9.479-10.465c-7.048-9.789-15.644-19.18-24.884-27.061c4.091,1.646,7.8,4.094,12.037,5.521
	c4.203,1.418,8.453,2.775,12.678,4.227c4.956,1.701,9.875,4.119,15.029,5.281c7.578,1.707,14.725,4.795,22.091,7.186
	c7.216,2.344,14.519,4.576,21.881,6.535c4.592,1.223,9.06,2.812,13.694,3.855c3.82,0.857,7.727,2,11.49,3.09
	c3.717,1.078,7.328,2.312,11.115,3.135c3.338,0.727,6.742,1.277,10.045,2.055c4.905,1.152,9.622,2.805,14.338,4.377
	c2.889,0.961,4.914,2.242,7.963,0.973c2.927-1.219,3.406-5.111,4.131-7.898c0.375-1.439,1-2.578,1.537-3.914
	c0.373-0.93,0.24-2.311,0.843-3.1c-2.194-0.584-4.728-0.859-6.948-1.543c-3.884-1.195-7.82-2.459-11.747-3.709
	c-12.015-3.824-23.956-8.191-36.118-11.59c-11.795-3.295-23.303-7.406-35.021-10.953c-12.907-3.902-25.77-8.031-38.441-12.611
	c-4.515-1.631-9.205-2.633-13.801-3.986c-3.884-1.145-7.786-2.402-11.66-3.504c-5.988-1.701-12.018-3.041-18.029-4.676
	c-5.353-1.457-10.978-2.908-16.482-3.558c-5.896-0.697-11.494-2.43-17.309-3.316c-2.459-0.375-4.938-0.48-7.449-0.508
	c-1.42-0.014-3.248-0.266-4.609-0.021c-1.632,0.291-1.104,1.012-0.643,2.486c0.433,1.387,1.067,2.703,1.766,3.955
	c1.499,2.697,2.77,6.003,4.725,8.677c1.301,1.777,2.385,3.469,3.469,5.385c0.632,1.115,1.757,1.865,2.324,3.029
	c0.383,0.779,0.379,1.391,0.998,2.076c1.707,1.893,4.387,3.18,6.313,4.893c3.961,3.516,8.418,7.453,11.723,11.395
	c4.14,4.934,8.779,9.4,12.677,14.279c10.369,12.982,21.164,24.797,32.063,37.43c3.813,4.42,7.073,9.229,10.817,13.75
	c3.175,3.836,5.635,8.371,8.902,12.182c3.602,4.199,7.174,8.859,10.338,13.33c5.172,7.303,6.064,13.205,16.088,8.598
	c8.994-4.137,18.127-9.096,23.476-17.531c-1.013-2.234-2.409-5.732-3.959-7.572"/>
<path d="M330.783,450.418c-0.429-0.047-0.858-0.104-1.287-0.182c-0.747-0.133-1.502-0.197-2.212-0.463
	c-0.449-0.168-0.861-0.49-1.307-0.629c-0.6,0.775-0.416,1.949-0.59,2.846c-0.062,0.32-0.16,0.631-0.221,0.961
	c-0.124,0.637-0.029,1.295-0.027,1.938c0,1.113-0.168,2.217-0.15,3.324c0.029,1.746-0.029,3.553,0.65,5.188
	c0.33,0.797,0.297,1.641,0.449,2.475c0.102,0.574,0.346,1.568,1.073,1.68c0.692,0.104,1.517-0.043,2.216-0.09
	c1.643-0.105,3.295-0.02,4.94-0.104c2.125-0.109,4.257,0.055,6.38-0.055c2.969-0.156,5.845-0.578,8.773-1.004
	c1.479-0.215,2.924-0.564,4.403-0.764c0.958-0.125,1.909-0.26,2.872-0.357c0.52-0.059,1.032-0.051,1.546-0.088
	c0.278-0.018,0.554-0.104,0.83-0.068c-0.002-0.301,0.124-0.539,0.202-0.828c0.1-0.359,0.13-0.727,0.139-1.1
	c0.008-0.322-0.193-0.941,0.163-1.123c0.339-0.174,0.927,0.133,1.292,0.127c0.635-0.014,1.234,0.047,1.869,0.105
	c1.648,0.15,3.344,0.258,4.993,0.266c1.037,0.006,2.085,0.023,3.118,0.1c0.637,0.049,1.208,0.078,1.838,0.221
	c2.264,0.518,4.451,1.307,6.62,2.105c2.18,0.805,4.3,1.756,6.416,2.703c2.653,1.182,5.313,2.367,8.093,3.25
	c5.529,1.754,12.734,1.523,18.27-0.246c2.254-0.721,4.148-2.291,6.422-3.078c4.414-1.521,8.565-4.26,12.639-6.299
	c2.501-1.252,11.913-5.65,7.748-8.705c-1.639-1.203-5.02-0.447-6.79-0.611c-2.663-0.244-5.595-1.15-8.265-0.75
	c-2.457,0.371-4.778,0.82-7.317,0.961c-6.479,0.352-12.687,1.434-19.082,2.186c-5.327,0.629-10.583,1.18-15.497-0.08
	c-2.588-0.664-5.67-1.328-7.999-2.621c-2.846-1.578-3.806-4.682-5.994-7.008c-0.664,1.816-2.251,3.727-3.425,5.152
	c-0.414,0.496-7.652-4.783-8.396-5.186c-3.111-1.668-3.03-0.168-5.55,1.857c-0.829,0.666-1.752,1.221-2.722,1.668
	c-0.803,0.371-1.617,0.605-2.305,1.166c-0.641,0.521-1.297,0.68-2.116,0.826c-0.979,0.168-1.959,0.402-2.955,0.457
	c-0.696,0.037-1.378,0.154-2.079,0.109c-0.973-0.062-1.939,0.059-2.906,0.012C333.951,450.584,332.363,450.586,330.783,450.418"/>
<path d="M306.853,720.834c6.312,7.205,12.24,14.85,18.576,22.188c3.601,4.174,8.174,6.922,11.937,10.637
	c7.874,7.77,13.575,17.305,20.297,26.357c5.424,7.305,11.92,13.617,17.303,20.895c16.131,21.797,30.936,47.688,52.656,64.797
	c6.928,5.457,17.967,16.293,24.825,5.238c0.843-1.355,3.39-6.637,2.987-8.037c-0.583-2.037-5.157-3.256-7.253-4.629
	c-6.169-4.039-10.88-9.779-16.66-14.268c-7.466-5.799-12.823-13.012-19.735-19.346c-9.156-8.387-17.58-19.137-25.154-28.988
	c-4.121-5.361-7.766-11.111-11.256-16.859c-3.74-6.162-9.383-10.775-12.885-17.037c-3.576-6.398-8.141-12.098-12.826-17.877
	c-6.188-7.635-12.442-15.223-18.979-22.584c-6.521-7.342-13.111-14.76-19.078-22.629c-5.681-7.486-10.055-15.959-16.07-23.348
	c-5.066-6.221-10.81-13.117-16.916-18.494c-6.514-5.738-15.002-4.41-21.401-9.203c-5.002-3.742-13.565-2.439-13.109,5.488
	c0.991,17.127,16.165,26.24,27.448,37.412c10.312,10.207,24.258,17.889,34.002,28.824
	C305.993,719.856,306.424,720.344,306.853,720.834"/>
<path fill="#245977" d="M479.149,869.538c0.944,0.002,1.901-0.027,2.789,0.023c1.625,0.098,3.254,0.186,4.864,0.424
	c3.091,0.461,5.879,1.619,8.332,3.549c3.552,2.793,7.022,9.053,11.328,10.219c0.368,1.33,0.377,2.383-0.28,3.646
	c-6.353-0.432-9.764-9.1-16.595-8.969c-2.853,5.832,8.537,7.941,5.235,14.936c-6.51-0.23-4.988-9.967-13.899-8.736
	c-2.14,4.666,3.14,7.604,1.336,11.955c-4.012-2.025-4.526-11.836-9.545-11.209c-0.948,4.227-0.565,8.812-1.433,13.068
	c-1.308,0.381-2.438,0.301-3.672-0.26c-0.396-6.703,0.807-11-4.156-15.297c-3.612-3.127-27.766-10.754-18.584-19.047
	c4.535-4.096,8.054,0.012,11.752,2.65c0.602,0.434,1.127,0.65,1.748,0.934c2.547,1.154,5.208,1.025,7.914,1.359
	c0.892,0.109,1.666,0.596,2.555,0.666c1.177,0.092,2.45-0.535,3.289-1.332c0.994-0.945,1.738-2.816,3.253-3.041
	c0.754-0.111,1.51,0.402,1.745,1.119c0.286,0.869-0.273,1.385-0.756,1.998c-0.598,0.758-0.695,0.984,0.328,1.17
	C477.469,869.504,478.305,869.534,479.149,869.538"/>
<path fill="#FFFFFF" d="M217.424,110.904c-1.059,1.969,0.11,5.296-0.121,7.48c-0.155,1.471-0.227,2.753-0.166,4.219
	c0.037,0.931,0.158,3.098-0.465,3.842c-3.274-0.181-6.494,0.351-9.711,0.82c-3.674,0.542-3.076-1.635-4.171-4.474
	c-1.12-2.896-2.374-5.673-4.028-8.332c-1.195-1.925-2.862-3.588-3.775-5.705c-0.766-1.767-1.172-4.353-2.791-5.591
	c0.625-0.555,1.96-0.702,2.843-1.068c2.366-0.969,3.618-0.798,6.009-0.283c2.489,0.535,5.056,0.922,7.445,1.844
	c1.186,0.457,1.743,1.313,2.729,1.849c1.783,0.974,4.131,1.081,6.006,2.06c0.07,1.192,1.414,4.416,0.063,4.965"/>
<path d="M192.893,107.729c0.197-1.273,0.83-3.896,2.877-2.711c1.599,0.924,0.968,3.705,2.262,4.965
	c0.852,0.828,2.627,0.511,3.927,1.024c1.437,0.568,2.866,1.082,4.256,1.722c2.61,1.199,5.718,1.733,8.273,3.07
	c1.315,0.688,2.642,1.453,3.804,2.381c0.751,0.598,1.361,1.551,2.178,2.014c0.286,0.164,1.891-5.598,2.016-6.085
	c0.482-1.869,1.816-3.649,1.945-5.562c0.105-1.578-0.07-2.957,0.245-4.555c0.271-1.371,0.205-3.299,1.134-4.443
	c-1.321-0.447-2.197-1.543-3.213-2.363c-2.022-1.631-4.254-3.239-6.418-4.752c-3.01-2.103-6.146-4.535-8.664-7.152
	c-1.762-1.828-2.752-4.578-5.767-3.384c-1.466,0.581-2.813,1.399-4.026,0.05c-0.951-1.059-1.486-2.252-2.841-2.946
	c-1.006-0.514-2.131-0.722-3.126-1.282c-1.658-0.932-3.201-2.147-4.73-3.264c-3.976-2.904-7.254-6.904-10.76-10.305
	c-6.609-6.415-12.029-13.965-18.316-20.715c-1.385-1.487-2.874-3.081-4.361-4.459c-0.427-0.396-1.322-1.532-2.066-1.213
	c-1.248,0.539,0.082,4.359,0.446,5.236c0.935,2.257,1.992,4.632,3.148,6.861c1.159,2.229,3.177,3.865,4.647,5.967
	c2.924,4.189,6.342,8.297,9.187,12.557c1.332,1.998,3.255,3.761,4.832,5.594c1.623,1.893,2.641,3.776,4.045,5.785
	c1.192,1.705,2.483,3.233,3.63,4.949c1.094,1.639,2.514,3.118,3.591,4.768c0.89,1.365,2.025,2.977,2.652,4.462
	c0.407,0.968,0.463,2.332,1.225,3.196c-1.069,0.85-1.338,2.278-2.139,3.34c-0.7,0.935-1.835,1.646-2.726,2.404
	c-1.137,0.965-2.004,1.624-3.492,2.012c-0.822,0.216-1.791,0.187-2.551,0.541c2.139,0.798,5.226,1.651,7.494,0.813
	c1.17-0.432,5.771-6.128,6.662-3.492c-0.345,0.487-0.402,1.188-0.714,1.62c-0.503,0.703-1.328,1.165-1.913,1.809
	C190.553,106.813,191.651,107.671,192.893,107.729"/>
<path d="M228.823,523.129c-3.053,1.412-3.113-14.498-3.43-17.811c-1.039-10.885-2.934-21.775-3.702-32.721
	c-1.511-21.512-2.025-43.318-3.47-64.896c-2.817-42.065,0.578-84.886-3.57-126.895c-3.032-30.699-5.209-62.159-12.278-91.98
	c-3.019-12.738-3.983-26.185-7.041-39.03c-2.555-10.741-8.022-22.665-6.733-33.678c4.828-1.434,13.808,2.427,19.102,3.171
	c4.65,0.653,6.686-1.396,8.927,3.321c1.211,2.55-0.159,9.193-0.517,11.912c-1.917,14.63,3.816,31.221,7.432,45.912
	c8.639,35.104,14.141,72.36,17.643,108.594c1.637,16.915,1.259,33.76,1.721,50.829c0.477,17.605,3.52,34.664,3.52,52.523
	c0,34.229,2.721,69.494,0,103.598c-0.785,9.854-0.705,20.322-2.025,30.281c-4.955,1.646-12.438-3.363-16.995-5.123
	c-0.109-2.029-1.708-3.16-2.103-4.795"/>
</svg>
