<?xml version="1.0" encoding="utf-8"?>
<!-- Generator: Adobe Illustrator 16.0.4, SVG Export Plug-In . SVG Version: 6.00 Build 0)  -->
<!DOCTYPE svg PUBLIC "-//W3C//DTD SVG 1.1//EN" "http://www.w3.org/Graphics/SVG/1.1/DTD/svg11.dtd">
<svg version="1.1" id="Ebene_1" xmlns="http://www.w3.org/2000/svg" xmlns:xlink="http://www.w3.org/1999/xlink" x="0px" y="0px"
	 width="306.03px" height="417.041px" viewBox="0 0 306.03 417.041" enable-background="new 0 0 306.03 417.041"
	 xml:space="preserve">
<g>
	<path fill="#245977" d="M169.289,110.754c-0.5-1.934-1.81-3.716-2.683-5.512c-1.056-2.17-2.28-3.327-4.279-4.578
		c-3.092-1.934-7.063-3.256-10.735-3.256c-1.9,0-3.479,0.017-5.223,0.58c-1.853,0.599-3.495,1.507-5.222,2.393
		c-3.029,1.557-5.405,4.213-8.297,5.731c1.417,1.809,5.123,1.665,7.15,2.015c1.469,0.253,2.962,0.641,4.395,0.95
		c2.023,0.437,4.031,0.547,6.028,0.805c1.793,0.231,3.435,0.271,5.166,0.8c1.812,0.553,3.614,0.58,5.339,0.935
		c3.201,0.657,6.785,0.788,9.773,2.004c0.062-0.318-0.038-0.586-0.253-0.836"/>
	<path fill="#245977" d="M174.228,275.836c8.562-0.062,18.441,1.145,26.719-1.179c7.385-2.072,14.262-3.793,22.129-3.702
		c2.02,0.023,3.807-0.289,5.793-0.537c4.059-0.507,6.351-0.853,6.633,3.576c0.246,3.853-0.347,5.877-1.823,9.592
		c-1.316,3.307-1.37,7.046-2.707,10.39c-1.836,4.604-4.548,8.825-6.328,13.474c-1.98,5.174-4.927,10.352-7.677,14.901
		c-1.361,2.257-2.717,3.857-4.935,5.253c-4.196,2.638-9.649,3.525-14.456,5.011c-5.937,1.833-11.973,3.493-18.212,4.046
		c-3.224,0.285-11.909,2.056-14.975,0.004c-3.964-2.652-4.203-8.763-8.449-10.243c-5.694-1.988-12.438-2.396-18.338-3.918
		c-8.092-2.088-13.892-4.685-18.312-12.03c-4.056-6.738-7.215-12.947-6.34-20.503c0.471-4.069,2.15-8.347,3.174-12.309
		c1.178-4.549,0.719-8.083,6.058-7.438c7.75,0.938,15.521,0.888,23.253,1.926C155.315,273.473,164.07,275.909,174.228,275.836"/>
	<path fill="#245977" d="M160.272,120c-4.111-0.343-8.938,0.52-12.251,3.11c-1.762,1.376-2.28,2.847-3.114,4.784
		c-0.986,2.291-2.672,4.224-3.831,6.435c-1.253,2.386-2.155,4.89-3.434,7.277c-1.134,2.12-2.315,4.208-3.411,6.352
		c-5.722,11.187-11.834,22.131-15.91,34.039c-1.409,4.117-2.42,8.423-2.197,12.731c0.083,1.61,0.609,3.179,0.96,4.729
		c0.315,1.391,0.378,3.419,1.419,4.591c1.028,1.16,3.398,1.857,4.845,2.224c3.616,0.913,7.093,2.133,10.723,3.069
		c4.009,1.035,8.019,2.071,12.028,3.106c2.669,0.689,5.433,2.098,8.151,2.354c0.705-0.791,1.2-1.759,1.751-2.712
		c0.906-1.564,1.958-3.18,2.659-4.842c0.86-2.036,1.956-3.933,3.13-5.83c1.166-1.888,2.078-3.939,3.398-5.714
		c2.158-2.899,4.119-5.941,6.041-9.016c1.009-1.614,2.342-3.16,3.064-4.933c0.834-2.044,1.446-4.22,2.23-6.27
		c1.389-3.628,1.582-7.933,2.085-11.691c0.589-4.415,1.281-8.757,1.239-13.213c-0.072-7.636-0.739-16.337-4.17-23.324
		C172.962,121.729,165.798,120.461,160.272,120"/>
	<path fill="#FFFFFF" d="M176.942,186.627c0.584,2.143-0.291,5.98,1.103,7.446c0.858,0.903,5.208,1.958,6.555,2.229
		c3.614,0.729,6.226-0.336,8.521-3.156c2.462-3.027,3.405-7.882,7.989-7.89c3.623-0.006,6.998,2.375,10.39,3.351
		c5.014,1.442,9.845,3.192,14.629,5.332c5.796,2.59,11.712,4.932,17.331,8.002c2.678,1.464,5.297,2.634,8.053,4.033
		c1.693,0.861,3.906,2.269,5.85,2.23c0.686,1.983-1.017,5.205-1.268,7.235c-0.275,2.227,0.261,4.576,0.05,6.814
		c-0.418,4.435-1.55,9.208-2.599,13.529c-0.783,3.226-3.814,5.162-4.685,8.606c-0.79,3.129-1.673,6.243-2.482,9.375
		c-3.009,11.629-12.204,20.137-22.277,26.187c-6.129,3.681-11.481,3.61-18.54,4.346c-3.156,0.331-6.289,0.396-9.437,0.756
		c-4.493,0.51-10.479,0.495-14.882-0.543c-9.494-2.237-16.238-6.917-24.671-10.954c-6.34-3.034-14.222,0.613-20.983-3.14
		c-8.203-4.554-15.612-18.319-15.393-27.386c0.361-14.921-7.4-28.267-7.4-42.925c0-2.808-0.362-5.885-0.016-8.666
		c0.339-2.712,2.117-5.341,2.13-7.917c1.946-0.018,3.643,2.203,5.369,3.084c2.53,1.292,5.142,2.015,7.85,2.314
		c2.724,0.302,5.092,1.193,8,1.185c5.575-0.017,11.134-0.523,16.505-1.748c5.146-1.173,10.455-1.467,15.541-2.934
		c0.782-0.226,2.684-0.25,3.322-0.617c2.01-1.154,1.826-2.715,2.746-4.587c0.482,0.082,1.312-0.318,1.787-0.238
		c0.147-0.323,0.184-0.654,0.111-0.994C176.099,181.822,176.246,184.077,176.942,186.627"/>
	<path fill="#245977" d="M90.901,332.744c-4.111-2.609-8.859-6.062-9.554-11.26c-0.135-1.009-0.075-2.062-0.075-3.093
		c0-1.846,0.101-3.56,0.341-5.29c0.46-3.314,0.652-6.623,1.317-9.927c0.77-3.826,1.57-7.535,2.341-11.394
		c0.536-2.685,1.069-5.215,2.254-7.693c0.701-1.468,1.415-2.914,2.01-4.431c3.854-9.828,4.257-20.334,7.005-30.432
		c0.566-2.083,0.613-4.28,1.047-6.4c0.727-3.552,1.019-7.164,1.019-10.992c0-3.761-0.267-7.776,0.658-11.341
		c0.407-1.569,1.37-2.978,2.685-3.991c0.831-0.641,1.704-1.206,2.691-1.593c1.644-0.643,3.63-1.396,5.367-1.466
		c0.619-0.024,1.237-0.05,1.855-0.094c1.788-0.125,3.48-0.441,4.766-1.741c0.783-0.789,1.379-1.747,1.936-2.696
		c2.395-4.089,5.346-9.495,9.889-11.7c5.326-2.584,8.572,1.772,10.293,6.181c1.606,4.12,2.436,8.302,6.154,11.501
		c3.818,3.289,9.59,2.844,13.355,6.28c3.369,3.071,8.093,6.116,10.264,10.183c5.107,9.567,6.084,19.99,3.396,30.243
		c-2.481,9.462-9.955,18.675-21.019,16.725c-3.976-0.699-7.013-1.615-10.097,1.56c-3.382,3.482-5.227,8.673-1.701,12.818
		c1.802,2.119,5.344,3.357,7.77,4.544c2.01,0.982,7.164,2.522,8.587,4.194c2.128,2.501-0.958,6.572-1.698,9.137
		c-0.826,2.862-1.492,5.778-2.236,8.663c-1.496,5.79-3.836,9.846-7.058,14.574c-3.964,5.819-7.919,7.87-14.866,9.597
		c-1.427,0.354-2.521,0.949-4.084,0.824c-2.119-0.171-4.105-1.414-6.242-1.493c-4.451-0.165-8.119-0.919-12.617-2.069
		C100.886,339.2,95.786,335.847,90.901,332.744"/>
	<path d="M160.346,226.41c-0.382-2.656-1.476-5.368-3.706-6.992c-1.574-1.146-7.355-3.54-8.949-2.46
		c2.836,0.82,5.947,4.677,7.75,6.977c1.38,1.76,2.547,4.063,3.102,6.199c0.412,1.593,0.001,3.794,1.519,4.854
		c0.942-3.654,2.138-3.697,1.575-8.245"/>
	<path d="M152.28,276.184c5.139,1.504,10.07,4.479,14.768,6.985c2.225,1.187,4.948,1.849,6.802,3.585
		c3.273,3.068,5.321,9.449,5.09,13.703c-0.332,6.083-3.293,10.542-6.353,15.132c-1.432,2.144-2.47,4.751-3.981,6.89
		c-1.714,2.427-3.644,3.202-2.948,6.467c14.298,7.816,35.622-2.872,31.855-20.502c-1.222-5.721-5.604-8.607-10.219-11.591
		c-5.26-3.399-9.016-8.027-14.814-10.921c-4.691-2.343-11.16-3.362-15.303-6.791c-0.343-2.661,3.665-5.945,5.975-6.695
		c3.078-0.999,5.67,1.783,8.708,2.555c4.496,1.14,8.964,2.414,13.478,3.479c5.721,1.348,11.729-0.52,17.59,0.488
		c6.679,1.152,11.81,2.601,18.439-0.164c2.331-0.973,4.508-2.297,6.869-3.199c3.861-1.478,8.035-3.321,11.965-4.352
		c-1.117,13.441-6.729,25.973-11.713,38.497c-2.795,7.02-3.106,14.477-7.442,20.884c-2.722,4.024-5.521,8.092-9.082,11.459
		c-3.914,3.702-8.396,5.271-13.241,7.457c-9.353,4.222-19.514,6.494-28.457,11.611c-2.068,1.184-4.064,2.509-5.959,3.956
		c-1.479,1.132-2.385,2.19-4.121,2.939c-4.114,1.774-7.767,4.358-11.327,7.045c-1.157,0.873-2.536,1.278-3.593,2.317
		c-1.369,1.346-2.605,2.988-4.064,4.253c-1.787,1.55-3.885,3.625-6.001,4.423c-1.918,0.724-3.923,1.353-5.919,1.99
		c-3.479,1.11-7.425,1.424-11.1,1.416c-2.203-0.004-4.343,0.007-6.502-0.26c-2.217-0.274-4.141-1.147-6.199-2.091
		c-3.451-1.581-7.13-3.418-9.197-6.575c-1.723-2.63-3.942-4.702-6.992-5.057c-2.981-0.346-5.866-0.77-8.816-1.093
		c-3.775-0.414-7.873-1.942-9.127-5.843c-1.834-5.706-2.111-12.104-3.342-17.958c-0.833-3.966-0.303-9.128,0.661-13.053
		c0.966-3.929,1.204-7.861,1.624-11.886c0.607-5.816,0.879-11.668,2.566-17.379c1.113-3.766,2.931-7.494,4.999-10.824
		c1.616-2.6,3.448-5.033,5.065-7.713c1.086-1.802,2.271-3.545,3.451-5.287c0.496-0.731,1.213-2.738,2.176-2.606
		c0.364,1.168-0.47,3.104-0.683,4.291c-0.297,1.655-0.888,3.311-1.185,5.016c-0.584,3.354-1.08,6.825-1.799,10.199
		c-0.896,4.212-1.837,8.538-2.294,12.786c-0.402,3.744-1.015,9.038,1.985,11.883c2.375,2.252,6.342,2.021,9.345,1.611
		c4.754-0.652,9.438-1.893,13.732-3.865c1.505-0.691,2.974-1.295,4.423-2.167c1.443-0.869,2.431-1.878,3.628-3.152
		c0.976-1.038,1.539-2.268,2.264-3.497c0.62-1.053,1.62-1.913,2.048-3.078c0.586-1.597,1.098-3.187,1.847-4.751
		c1.765-3.68,3.909-7.168,6.087-10.621c1.896-3.005,3.277-6.067,5.414-8.811c1.972-2.53,3.912-4.161,6.43-6.376
		c1.99-1.753,3.803-4.664,6.525-5.411C148.293,275.39,150.29,275.601,152.28,276.184"/>
	<path d="M149.705,216.954c1.058-1.191,2.062-2.769,3.538-3.565c-0.134,1.609-0.824,3.206-0.973,4.832
		c1.013-0.077,2.305-0.073,3.27-0.349c-0.35,0.774-0.671,1.481-1.021,2.255c1.285-0.091,3.236-0.739,4.453,0.011
		c-0.967,0.906-2.53,1.7-2.552,3.146c0.735,0.117,1.657,0.754,2.379,0.851c-0.616,0.935-1.647,1.901-2.761,2.423
		c-3.266-1.866-4.606-7.381-8.758-8.216"/>
	<path d="M119.166,210.31c-0.228-0.147,0.28-1.252,0.364-1.413c0.273-0.517,0.653-0.977,1.056-1.4
		c1.154-1.216,2.551-2.176,3.818-3.271c0.525-0.452,0.916-1.037,1.432-1.469c0.348-0.291,1.295-1.124,1.808-0.788
		c0.014,0.366-0.466,0.824-0.653,1.121c-0.247,0.394-0.536,0.777-0.811,1.176c-0.364,0.525-0.786,1.002-1.079,1.567
		c-0.219,0.422-0.336,0.893-0.589,1.281c-0.276,0.43-0.556,0.854-0.81,1.295C122.649,210.231,121.481,211.814,119.166,210.31"/>
	<path d="M132.294,205.203c-0.343-0.47-0.443-1.002-0.535-1.556c-0.061-0.363-0.086-0.92-0.303-1.234
		c-0.242-0.348-0.331,0.005-0.305,0.301c0.039,0.426,0.307,0.804,0.396,1.22c0.132,0.622,0.201,1.257,0.374,1.869
		c0.178,0.624,0.386,1.238,0.572,1.855c0.189,0.63,0.272,1.253,0.418,1.887c0.206,0.895,0.466,1.62,1.021,2.363
		c0.31,0.411,0.752,1.07,1.349,1.068c0.256-0.584,0.109-1.132-0.011-1.739c-0.146-0.728-0.301-1.492-0.537-2.194
		c-0.238-0.711-0.518-1.436-0.964-2.043C133.312,206.379,132.749,205.832,132.294,205.203"/>
	<path d="M113.239,213.161c0.916-0.298,1.949-0.448,2.854-0.365c1.213,0.111,1.385,0.917,2.102,1.616
		c0.74,0.723,1.22,0.735,2.188,0.747c1.213,0.016,1.656-0.012,2.074,1.242c0.446,1.341,1.333,3.103,2.509,3.979
		c0.384,0.287,1.534,1.392,0.433,1.403c-0.824,0.007-1.671-0.576-2.454-0.815c-1.009-0.31-2.056-0.647-3.12-0.632
		c-1.455,0.021-2.846,0.304-4.27,0.053c-1.035-0.183-2.168-0.258-3.107-0.796c-0.789-0.453-1.486-1.061-2.194-1.597
		c-0.528-0.399-0.909-0.983-1.218-1.551c-0.278-0.515-0.398-1.318-0.797-1.743c-0.309-0.328-0.811-0.313-1.203-0.489
		c-0.207-0.092-0.46-0.199-0.566-0.412c-0.032-0.068-0.121-0.638,0.026-0.618c0.626,0.081,1.198,0.34,1.8,0.516
		c0.542,0.156,1.115,0.163,1.647,0.354c0.382,0.136,0.726,0.354,1.11,0.483c0.519,0.175,1.201,0.2,1.654,0.521
		c0.658,0.466,1.223,1.016,1.871,1.513c0.691,0.532,1.402,0.795,2.281,0.915c0.672,0.092,1.451-0.112,1.992,0.292
		c-0.7-0.339-1.241-0.869-2-1.175c-0.781-0.312-1.477-0.651-2.29-0.964c-0.792-0.303-1.652-0.544-2.406-0.913
		c-0.724-0.356-1.374-0.903-2.187-1.053c0.904,0.484,1.538,0.249,2.379-0.155C112.624,213.384,112.927,213.265,113.239,213.161"/>
	<path fill="#245977" d="M127.161,324.619c0.376-1.086,0.818-2.161,1.389-3.197c0.324-0.588,0.869-1.162,1.13-1.758
		c0.185-0.423,0.167-0.91,0.378-1.445c2.158-5.491,4.147-11.024,5.604-16.651c1.458-5.636,1.749-10.485,7.399-14.966
		c2.285-1.812,4.339-3.122,7.262-3.9c2.496-0.665,5.059-1.438,7.734-1.136c2.707,0.308,5.367,1.204,8.111,1.511
		c6.596,0.735,7.829,4.561,8.475,9.271c0.562,4.104-0.401,8.169-1.846,12.119c-1.325,3.617-2.127,7.241-3.795,10.824
		c-0.522,1.124-1.195,2.047-2.027,3.038c-1.027,1.219-1.873,2.632-2.723,3.958c-1.959,3.058-3.947,6.104-5.91,9.148
		c-1.001,1.554-2.395,3.046-3.654,4.493c-0.591,0.677-0.812,1.486-1.397,2.188c-0.358,0.432-0.839,0.846-1.098,1.312
		c-0.728,1.305-0.968,2.898-1.23,4.346c-0.368,2.021-0.833,4.241-1.456,6.309c-1.521,5.062-3.056,10.122-4.832,15.163
		c-0.995,2.819-2.443,5.604-3.613,8.409c-1.442,3.462-2.498,7.103-4.65,10.374c-1.838,2.797-3.881,5.518-6.045,8.196
		c-1.357,1.682-2.613,3.16-4.318,4.625c-1.645,1.412-2.422,3.109-4.504,4.276c-1.822,1.019-6.021,1.341-8.26,0.94
		c-0.947-0.169-2.366-0.881-3.084-1.424c-1.479-1.118-1.819-3.219-3.066-4.582c-1.544-1.69-2.609-3.604-3.646-5.503
		c-0.938-1.714-2.027-3.534-2.245-5.414c-0.142-1.232,0.22-2.461,0.086-3.697c-0.218-2.001-0.771-4.08-1.354-6.034
		c-0.604-2.021-1.186-4.004-2.028-6.005c-1.847-4.378-2.663-8.905-3.95-13.396c-0.72-2.514-0.711-4.969-0.743-7.567
		c-0.015-1.248,0.017-2.44,0.197-3.667c0.285-1.947,0.798-3.713,0.853-5.688c0.055-1.994,0.207-3.987,0.488-5.963
		c0.281-1.978,0.989-3.808,1.719-5.681c0.624-1.6,0.9-3.442,1.545-5.062c0.256-0.64,0.46-1.22,0.836-1.785
		c0.547-0.822,1.259-1.191,2.067-1.75c1.229-0.85,2.482-1.57,3.819-2.219c1.429-0.694,2.597-1.528,4.147-1.955
		c1.9-0.522,3.962-0.18,5.563,0.953c1.092,0.772,1.57,2.523,2.012,3.698c0.686,1.829,1.467,3.682,2.084,5.537
		c0.318,0.957,0.602,2.043,0.828,3.022c0.297,1.282,0.746,2.564,0.954,3.879c0.552,3.472,1.53,6.867,2.067,10.317
		c0.066,0.427,0.355,0.808,0.257,1.259c-0.169-1.34,0.267-2.929,0.465-4.277c0.3-2.041,0.796-4.197,1.534-6.178
		c0.055-0.143,0.106-0.288,0.157-0.431c0.866-2.455,1.365-4.974,2.181-7.438C127.071,324.885,127.115,324.752,127.161,324.619"/>
	<path fill="#FFFFFF" d="M98.447,305.075c0.158-2.936,0.442-5.96-0.012-8.883c-0.275-1.771-1.035-3.225-1.681-4.863
		c-1.663-4.222,0.603-9.657-2.232-13.412c-0.86-1.141-2.392-1.707-3.165-2.834c-0.731-1.065-0.66-2.73,0.583-3.517
		c1.268-0.801,3.189-0.117,4.339-0.801c3.394-2.02-3.927-4.836-4.782-5.858c-0.902-1.078-0.549-2.174,0.842-2.674
		c1.586-0.57,3.332,0.161,4.674,0.925c0.938,0.534,3.621,2.784,4.274,1.024c0.339-0.913-0.571-3.252-1.099-4.023
		c-1.238-1.815-4.449-4.685-4.59-6.992c-0.25-4.125,5.461,0.284,6.674,1.259c1.117,0.897,2.072,1.949,3.074,2.984
		c0.797,0.823,1.803,2.692,2.86,3.064c0.798-3.403,0.659-6.453-1.853-9.059c-1.176-1.219-5.279-5.396-2.997-7.198
		c0.562,0.425,1.521,0.489,2.239,0.866c0.907,0.478,1.844,1.067,2.676,1.657c1.951,1.386,3.583,3.355,4.667,5.5
		c1.101,2.18,2.091,4.427,3.249,6.616c1.483,2.805,2.362,3.414,5.597,3.604c1.808,0.105,4.886-0.068,5.161,2.364
		c0.258,2.282-2.722,3.049-3.932,4.416c-1.959,2.213-1.896,5.62-2.975,8.25c-1.242,3.028-0.889,6.703-0.892,9.984
		c-0.004,4.072-0.056,8.145-0.005,12.217c0.021,1.698,0.035,3.396,0.055,5.095c0.007,0.604-0.136,1.207-0.121,1.799
		c0.018,0.704,0.332,1.362,0.329,2.082c-0.007,1.33,0.165,2.618,0.159,3.937c-0.007,1.485,0.003,2.806-0.209,4.26
		c-0.231,1.584,0.475,3.31,0.678,4.876c0.196,1.518,0.398,3.149,0.794,4.585c0.437,1.584,0.952,3.018,1.321,4.607
		c0.205,0.886,0.47,1.745,0.636,2.637c0.099,0.537,0.596,1.624,0.405,2.122c-0.34-0.155-0.528-0.6-0.875-0.822
		c-0.382-0.245-0.895-0.445-1.319-0.636c-0.798-0.358-1.681-0.586-2.509-0.876c-2.261-0.792-4.953-0.503-7.356-0.511
		c-2.76-0.011-5.727,0.649-8.445,1.225c-2.15,0.454-4.333,0.722-6.429,1.407c-0.668,0.219-1.549,0.461-2.006,1.042
		c-0.426,0.54-0.308,1.239-0.562,1.826c-0.607-0.294-0.957-1.186-1.219-1.775c-0.346-0.785,0.312-1.773,0.532-2.542
		c0.334-1.174,0.671-2.338,1.069-3.494c0.81-2.352,1.698-4.693,2.109-7.153c0.002-0.01,0.005-0.02,0.007-0.03
		C97.196,317.295,98.113,311.208,98.447,305.075"/>
	<path fill="#245977" d="M110.729,272.863c0.047,0.077,0.095,0.153,0.142,0.232"/>
	<path fill="#245977" d="M80.64,278.833c0.436,0.23,0.836,0.494,1.18,0.812c0.957,0.881,1.043,1.989,1,3.081
		c-0.072,1.876-0.347,3.783-0.834,5.603c-0.842,3.161-1.6,6.29-1.942,9.628c-0.484,4.699-1.22,9.351-1.685,14.039
		c-0.181,1.837-0.609,3.635-0.803,5.486c-0.11,1.088,0.047,2.182-0.317,3.237c-0.567,1.646-1.265,3.267-1.659,4.965
		c-0.41,1.774-0.515,3.664-1.489,5.278c-1.001,1.659-0.365,3.272,0.321,4.997c0.522,1.316,1.002,2.558,1.318,3.93
		c0.67,2.898,2.05,6.206,1.372,9.106c-0.413,1.76-0.93,3.424-1.606,5.119c-0.816,2.041-1.363,4.057-2.388,6.051
		c-1.293,2.515-2.767,4.954-3.976,7.479c-0.602,1.259-1.507,2.38-2.275,3.562c-4.638,7.156-15.712,9.408-20.486,1.553
		c-2.316-3.812-4.047-7.586-5.679-11.656c-0.98-2.448-1.905-5.105-3.058-7.668c-1.065-2.37-1.827-3.562-1.52-6.021
		c0.331-2.648,1.313-4.834,2.036-7.371c3.959-13.924,12.091-27.043,19.323-39.664c2.055-3.587,4.424-7.042,6.904-10.438
		c1.256-1.721,2.544-3.429,3.828-5.135c1.174-1.562,1.994-3.28,3.035-4.904c0.446-0.694,0.993-3.119,1.827-3.476
		c1.102-0.469,3.113,0.741,4.126,1.097C78.313,277.919,79.577,278.271,80.64,278.833"/>
	<path fill="#FFFFFF" d="M80.356,297.41c0.418-1.213,0.695-2.502,1.136-3.748c0.806-2.281,1.517-4.656,2.067-7.013
		c0.318-1.373,0.47-2.761,0.782-4.122c0.512-2.232,1.353-4.377,1.928-6.601c0.778-3.011,1.653-5.926,2.739-8.833
		c1.232-3.307,2.373-6.592,3.709-9.867c0.602-1.483,1.128-2.992,1.635-4.51c0.35-1.041,0.546-2.25,1.244-3.13
		c0.695-0.876,0.5-1.968,0.559-3.018c0.047-0.828-0.205-1.701-0.325-2.507c-0.325-2.154-0.996-4.358-1.741-6.41
		c-0.346-0.952-0.654-1.917-1.021-2.862c-0.612-1.578-1.427-3.089-1.982-4.684c-0.26-0.749-0.423-1.535-0.543-2.302
		c-0.094-0.611-0.295-1.166-0.01-1.732c0.163-0.322,0.276-0.638,0.488-0.938c0.482-0.683,1.161-1.245,1.877-1.67
		c0.825-0.488,1.656-1.021,2.447-1.549c0.721-0.48,1.434-1.077,1.973-1.735c1.043-1.272,0.989-2.924,1.432-4.397
		c0.121-0.409,0.327-0.988,0.158-1.411c-0.202-0.515-0.831-0.341-1.236-0.188c-2.26,0.856-4.062,3.527-5.789,5.14
		c-1.989,1.856-4.607,3.184-7.093,4.249c0.017-0.763,1.242-1.666,1.68-2.285c0.594-0.841,1.202-1.759,1.751-2.623
		c0.674-1.06,1.136-2.057,1.229-3.302c0.057-0.776-0.053-2.287-1.155-2.149c-0.639,0.082-1.653,1.365-2.12,1.807
		c-0.858,0.809-1.672,1.627-2.404,2.527c-0.753,0.926-1.544,1.928-2.409,2.756c-0.555,0.53-1.509,1.733-2.259,1.806
		c-0.935-0.896,0.827-2.821-0.159-4.089c-0.169-0.221-1.209-1.142-1.492-1.146c-0.72-0.012-1.349,1.211-1.596,1.704
		c-1.215,2.424-1.827,4.922-2.424,7.536c-0.496,2.174,0.038,3.92,0.073,6.126c0.017,1.03,0.762,5.262-0.426,5.186
		c-0.938-0.061-2.242-2.56-2.881-3.184c-1.511-1.478-4.324-1.348-2.849,1.259c0.858,1.517,2.522,2.578,3.676,3.911
		c1.595,1.844,2.981,3.492,3.294,5.88c0.477,3.636,0.422,6.843-0.034,10.499c-0.712,5.716-2.565,11.077-5.591,16.066
		c-2.396,3.952-4.127,8.296-6.635,12.179c-0.963,1.491-1.63,3.068-2.451,4.641c-0.494,0.946-1.117,1.922-1.446,2.937
		c-0.366,1.119,0.548,1.366,1.35,2.037c0.478,0.398,1.173,1.304,1.781,1.427c-0.249-0.051,0.497-3.061,0.647-3.361
		c0.337-0.67,0.716-1.207,1.388-1.576c1.705-0.942,3.784-1.805,5.775-1.375c1.776,0.385,3.503,2.026,4.903,3.074
		c0.714,0.534,1.455,1.044,2.098,1.686c0.822,0.822,1.42,1.809,2.049,2.768c0.68,1.036,0.554,1.359,0.673,2.475
		C79.039,300.794,80.168,297.957,80.356,297.41"/>
	<path d="M158.817,222.997c0.865,0.478,2.408,0.466,3.461,0.969c1.299,0.621,2.643,1.665,3.9,2.516
		c2.918,1.978,4.905,3.618,6.435,6.787c4.095,8.489,5.691,16.918,3.337,26.032c-0.689,2.674-1.241,5.718-2.824,7.97
		c-1.922,2.737-4.078,4.628-6.736,6.652c-1.565,1.193-2.834,3.122-4.684,3.93c-0.986,0.432-1.846,0.596-2.869,1.058
		c-1.342,0.607-2.784,0.824-4.224,0.358c-3.131-1.018-6.285-3.009-8.144-5.792c-1.114-1.671-1.936-3.303-2.809-5.088
		c-0.325-0.662-0.711-1.688-1.238-2.246c-1.232-1.315-4.036-1.984-4.314-4.151c0.736-0.051,1.666,0.704,2.484,0.91
		c0.974,0.244,1.941,0.546,2.924,0.68c1.604,0.22,3.385,0.107,4.906-0.411c2.432-0.826,11.076-4.684,7.094-8.129
		c-1.719-1.487-4.875-1.18-6.986-1.175c-2.508,0.008-5.001,0.007-7.377-0.933c0.473-1.205-0.244-2.377-0.115-3.618
		c2.133,0.282,3.962,0.609,6.114,0.186c2.015-0.397,4.253-0.651,6.215-1.338c3.946-1.383,5.792-3.673,7.36-7.229
		c1.595-3.615,1.223-7.123,1.15-11.125c-0.031-1.739-0.422-3.828-1.265-5.432c-0.761-1.448-2.26-2.894-2.356-4.543"/>
	<path fill="#FFFFFF" d="M203.348,114.981c-7.105-0.692-14.147-1.336-21.23-2.125c-5.844-0.653-11.661-1.371-17.521-1.947
		c-5.538-0.543-10.896-1.989-16.483-2.595c-7.766-0.839-15.298-2.127-22.956-3.269c-3.422-0.513-6.781-0.503-10.193-0.907
		c-1.659-0.199-4.143-0.186-5.51-1.084c1.321,0.869,1.168,3.534,1.483,4.904c0.403,1.75,1.409,3.285,2.096,4.914
		c3.078,7.302,5.604,14.943,4.269,23.354c-0.604,3.801-1.389,7.778-3.42,11.387c-1.159,2.066-3.311,4.349-4.07,6.112
		c2.093-1.417,5.775-1.693,7.953-0.805c-0.536,3.472-2.255,7.366-3.521,10.744c0.655-1.756,6.329-1.471,7.729-1.648
		c2.073-0.263,4.413-0.549,6.502-0.412c2.181,0.145,3.579-0.054,5.709-0.668c1.879-0.543,3.494-1.893,5.162-2.967
		c2.56-1.646,5.378-3.342,7.379-5.693c1.077,0.414,1.698,2.027,2.838,2.574c1.509,0.725,2.961,0.462,4.541,0.439
		c1.733-0.026,3.641,0.212,5.387,0.348c2.449,0.188,4.854,0.466,7.317,0.529c7.222,0.186,14.429,0.631,21.538,1.982
		c1.613,0.311,3.215,0.658,4.802,1.049c5.345,1.326,10.337,3.391,15.362,5.428c2.572,1.039,7.332,2.255,8.93,4.455
		c0.97-0.868-0.406-3.256-0.68-4.313c-0.734-2.862-1.488-5.736-1.896-8.685c-0.932-6.783-3.077-13.272-3.987-20.03
		c-0.47-3.49-0.24-7.157-0.851-10.583c-0.269-1.52-1.183-7.529-0.022-8.205"/>
	<path fill="#FFFFFF" d="M117.671,140.165c1.01,0.118,2.019,0.259,3.018,0.423c0.582,0.098,1.295,0.943,1.94,0.335
		c0.446-0.417-0.168-2.604-0.273-3.093c-1.188-5.5-3.683-10.836-3.764-16.63c-0.027-1.847,0.509-3.521-0.046-5.296
		c-0.783-2.5-2.247-4.305-2.455-7.055c-0.141-1.834-1.271-2.918-2.509-4.113c-1.392-1.352-1.56-2.063-3.401-1.64
		c-3.265,0.748-5.761,1.526-9.169,0.921c-4.253-0.759-5.124-4.298-1.01-6.812c-2.114,1.499-4.382,2.914-6.396,4.536
		c-1.95,1.565-3.267,3.338-4.757,5.11c-3.681,4.373,2.094,5.523,5.255,7.359c-0.279-0.162-5.675,2.6-6.622,2.699
		c-2.332,0.251-3.947-0.132-6.396,0.638c-5.228,1.643-10.867,3.937-16.228,3.185c0.132,1.947,1.201,2.963,2.13,4.685
		c-3.074,1.408-5.97,0.688-8.703,3.077c0.708,1.292,2.23,2.103,2.826,3.235c-0.697,0.445-10.739,4.393-10.477,4.892
		c1.408,2.682,11.997,1.791,14.963,1.83c5.828,0.078,11.948,0.058,17.885-0.302c3.574-0.216,7.094-0.576,10.64-0.314
		c4.364,0.326,8.373,1.695,12.829,1.736C110.549,139.607,114.14,139.754,117.671,140.165"/>
	<path fill="#245977" d="M117.513,151.369c0.597-1.177,1.728-3.171,0.999-4.479c-0.728,0.981-1.011,3.027-1.264,4.301"/>
	<path d="M134.61,152.768l-5.893,3.845c-0.391-0.507-1.151-2.474-1.182-2.562c-0.035-0.205-0.035-0.56,0.032-0.758
		c0.028-0.13,0.729-0.963,0.816-1.023c0.091-0.062,0.433-0.188,0.907-0.305c0.464-0.113,0.683-0.013,0.998,0.145
		c0.523,0.279,1.252,1.308,1.252,1.308l2.382-1.33L134.61,152.768z M129.247,154.99l0.998-0.685l0.49-0.324
		c0,0-0.24-0.46-0.297-0.552c-0.068-0.086-0.389-0.502-0.434-0.521c-0.027-0.03-0.578-0.12-0.578-0.12s-0.713,0.139-0.793,0.31
		c-0.072,0.155-0.088,0.353-0.061,0.45c0.039,0.095,0.195,0.577,0.195,0.577L129.247,154.99z"/>
	<path d="M127.069,152.206c0,0-0.139-0.737-0.123-0.782c0.006-0.04,1.686-0.543,1.686-0.543l1.166-0.365c0,0,1.119-0.354,1.179-0.37
		c0.073-0.014-0.241-0.83-0.259-0.871c-0.006-0.04-0.168-0.486-0.135-0.521c0.018-0.039,0.051-0.12,0.051-0.12l0.539-0.149
		c0,0,0.537,1.203,0.588,1.313c0.037,0.108,0.348,0.759,0.348,0.759s-0.332,0.101-0.338,0.11c-0.016,0.011-0.107,0.062-0.128,0.066
		C131.628,150.739,127.069,152.206,127.069,152.206"/>
	<path d="M126.558,149.656c0,0-0.121-0.328-0.139-0.341c0-0.017-0.058-0.201-0.098-0.212c-0.02-0.016,3.271-0.971,3.314-1.004
		c0.043-0.036,0.382-0.314,0.302-0.543c-0.054-0.161-0.173-0.203-0.209-0.21c-0.022-0.005-0.119-0.025-0.119-0.025
		s-0.417,0.044-0.516,0.074c-0.085,0.03-2.359,0.603-2.359,0.603l-0.608,0.192l-0.129-0.435c0,0,2.936-0.845,3.056-0.875
		c0.118-0.03,0.703-0.092,0.805-0.074c0.101,0.019,0.5,0.162,0.569,0.236c0.082,0.074,0.363,0.395,0.38,0.467
		c0.013,0.07,0.108,0.218,0.02,0.478c-0.077,0.188-0.22,0.286-0.22,0.286l-0.335,0.172L126.558,149.656z"/>
	<path d="M128.708,146.559c0,0,0.032,0.021,0.092,0.013c0.059-0.01,0.412-0.04,0.454-0.038c0.041,0.002,0.108-0.005,0.108-0.005
		s0.264-0.245,0.303-0.379c0.047-0.134,0.015-0.618-0.047-0.691c-0.068-0.073-0.192-0.222-0.192-0.222s-0.285-0.149-0.585-0.151
		c-0.297-0.001-0.846,0.06-1.019,0.213c-0.039,0.033-0.195,0.183-0.228,0.216c-0.037,0.038-0.188,0.189-0.205,0.423
		c-0.02,0.241,0.032,0.469,0.038,0.472c0.002,0.004-0.411,0.14-0.411,0.14s-0.195-0.011-0.252-0.075
		c-0.061-0.064-0.083-0.426-0.083-0.426s0.003-0.109,0.026-0.129c0.013-0.021,0.445-0.576,0.445-0.576l-0.447-0.081
		c0,0-0.714,0.444-0.745,0.811c-0.011,0.205,0.062,0.502,0.078,0.518c0.014,0.013,0.133,0.396,0.778,0.41
		c0.658,0.013,0.785-0.11,0.794-0.116c0.017-0.005,0.312-0.223,0.356-0.321s0.15-0.333,0.152-0.347s-0.081-0.212,0.025-0.346
		c0.118-0.132,0.215-0.201,0.26-0.219c0.048-0.02,0.25-0.072,0.312-0.063c0.073,0.006,0.182,0.026,0.203,0.041
		c0.018,0.015,0.043,0.18,0.027,0.249c-0.027,0.071-0.113,0.354-0.113,0.354L128.708,146.559z"/>
	<path d="M125.879,143.922c0.208-0.235,0.784-0.396,0.913-0.412c0.12-0.015,0.951-0.001,0.951-0.001s0.62,0.086,0.645,0.094
		c0.027,0.009,0.52,0.238,0.353,0.391c-0.321,0.3-0.89,0.368-1.075,0.418c-0.184,0.052-0.618,0.07-0.714,0.078
		c-0.103,0.009-0.484-0.008-0.608-0.002c-0.114,0.001-0.564-0.185-0.564-0.185S125.665,144.166,125.879,143.922 M124.977,144.569
		c0,0,0.036,0.09,0.144,0.128c0.036,0.014,0.851,0.238,1.733,0.126c0.866-0.106,2.041-0.354,2.207-0.45
		c0.173-0.097,0.522-0.338,0.552-0.455c0.02-0.115-0.091-0.212-0.088-0.227c-0.01-0.016-0.433-0.252-0.433-0.252l1.037-0.47
		l-0.842-0.226l-0.106,0.01l-0.664,0.469c0,0-1.446-0.042-1.942,0.036c-0.511,0.082-0.724,0.129-1.188,0.354
		c0,0-0.328,0.245-0.41,0.507C124.884,144.393,124.977,144.569,124.977,144.569"/>
	<path d="M125.503,142.95c0,0-0.203,0.001-0.211-0.015c-0.005-0.017,0.017-0.131,0.031-0.141c0.004-0.008,0.33-0.085,0.33-0.085
		s0.814,0.036,0.858,0.038c0.042-0.001,0.134-0.005,0.134-0.005l0.321,0.07l-0.096,0.103L125.503,142.95z"/>
	<polygon points="127.2,141.752 130.261,141.85 130.061,142.163 126.986,142.034 	"/>
	<polygon points="127.718,141.257 127.853,141.028 130.025,141.141 130.185,140.653 130.735,140.684 130.302,141.386 	"/>
	<polygon points="130.853,140.525 130.854,140.512 131.297,139.956 130.896,139.896 130.631,140.331 130.236,140.29 130.517,139.99 
		130.031,139.934 129.768,140.236 129.29,140.184 129.59,139.763 129.282,139.739 128.648,140.326 	"/>
	<polygon points="126.396,142.083 126.255,141.821 126.74,141.67 126.521,141.581 125.891,141.804 126.159,142.14 	"/>
	<path d="M138.362,153.261c0.029,0.178,0.025,0.187-0.008,0.023c0.492-0.918-0.299-2.998-0.477-3.978
		c-0.307-1.687-0.613-3.343-1.084-4.974c-0.324-1.121-0.615-2.071-1.082-3.065c-0.472-1.017-0.514-2.279-1.17-3.184
		c0.961,0.339,1.533,1.756,2.053,2.556c0.81,1.242,1.171,2.412,1.569,3.854c0.431,1.558,0.981,3.092,1.327,4.708
		c0.277,1.298,1.203,2.732,1.166,4.061c-0.576,0.336-0.998-0.112-1.577,0.095"/>
	<path d="M144.308,152.636c0.225-0.569-0.986-2.486-1.225-3.21c-0.631-1.938-1.166-3.865-1.862-5.787
		c-0.4-1.103-1.056-2.243-1.433-3.353c-0.242-0.707-1.003-1.749-0.977-2.464c1.9,1.516,2.363,4.349,3.291,6.522
		c1.166,2.729,2.184,5.755,2.735,8.649"/>
	<path d="M147.918,151.981c-0.548-2.83-1.859-5.579-2.69-8.362c-0.415-1.399-1.025-2.698-1.605-4.035
		c-0.321-0.739-0.432-1.88-0.984-2.474c0.096,0.517,0.853,1.34,1.381,1.314c0.179,0.729,0.447,1.378,0.656,2.102
		c0.459,1.603,0.679,3.239,1.102,4.86c0.647,2.48,1.773,4.742,2.26,7.252"/>
	<path d="M155.35,153.129c-0.705-1.335-0.976-2.915-1.491-4.33c-0.565-1.546-1.03-3.2-1.51-4.789
		c-0.494-1.635-0.961-3.929-2.391-5.042c0.653,0.869,0.748,2.16,1.111,3.166c0.43,1.199,0.932,2.361,1.305,3.565
		c0.609,1.954,1.589,3.578,2.353,5.435c-0.075-0.042-0.152-0.081-0.226-0.12"/>
	<path d="M158.068,150.138c0.636-0.531-1.353-4.878-1.689-5.801c-0.447-1.231-0.844-2.476-1.253-3.704
		c-0.24-0.724-0.801-1.441-0.818-2.23c0.028,0.618,0.552,1.049,0.818,1.586c0.534,1.08,0.812,2.298,1.312,3.406
		c1.087,2.424,2.024,5.115,2.508,7.721"/>
	<path d="M163.655,147.533c0.005-1.023-0.982-2.518-1.373-3.433c-0.662-1.541-1.199-3.285-1.985-4.736
		c2.41,3.631,2.27,8.659,4.155,12.566"/>
	<path d="M128.495,130.985c0.195-0.132-0.106-2.436-0.112-3.145c-0.014-1.484-0.037-2.971-0.058-4.457
		c-0.025-2.1,0.506-4.233,0.396-6.326c-0.033-0.638-0.151-1.109-0.029-1.698c0.367,2.256,0.564,4.298,0.492,6.598
		c-0.055,1.749,0.015,3.458,0.241,5.174c0.147,1.113,0.544,3.073,0.05,4.132"/>
	<path d="M135.847,131.694c-0.011,0,0.389-0.073,0.666-0.118c0.721-0.115,1.141,0.057,1.839,0.081
		c1.404,0.047,2.81-0.243,4.202-0.498c2.202-0.403,4.244-0.414,6.391-0.489c1.801-0.064,3.785-0.035,5.626,0.132
		c1.437,0.128,3.046-0.02,4.429,0.296c-0.131-0.692-0.841-1.36-1.213-2.022c-0.495-0.88-0.971-1.787-1.521-2.676
		c-1.215-1.963-2.514-3.849-3.636-5.873c-0.905-1.636-2.052-3.338-2.713-5.003c-0.634-1.595-1.437-3.006-2.458-4.297
		c-0.489,0.529-1.907,0.586-2.576,0.895c-1.164,0.535-2.51,0.682-3.805,0.916c-1.035,0.188-2.106,0.481-3.152,0.571
		c-0.784,0.07-2.061-0.302-2.744,0.069c-0.014,2.222-0.681,4.448-0.657,6.646c0.007,0.718,0.277,1.374,0.372,2.082
		c0.135,1.037-0.033,2.089,0.016,3.132c0.084,1.834,0.229,3.551,0.557,5.353c0.027,0.16,0.027,0.15-0.007-0.032"/>
	<path fill="#FFFFFF" d="M136.841,129.471c0.07,0.037,0.14,0.075,0.209,0.111c0.206-1.049,0.07-2.071,0.12-3.092
		c0.067-1.412,0.135-2.778,0.186-4.144c0.082-2.154-0.039-4.224-0.12-6.312c0.483-0.178,0.896,0.169,1.396,0.184
		c0.595,0.014,1.03-0.313,1.524-0.521c0.993-0.416,2.041-0.592,3.13-0.789c0.872-0.159,1.915-0.625,2.622-0.033
		c0.73,0.613,1.176,2.064,1.627,2.888c1.26,2.31,2.502,4.658,4.08,6.764c1.084,1.448,2.531,2.931,3.427,4.343
		c-0.639-1.113-2.647-1.071-3.742-0.885c-1.3,0.22-2.549,0.228-3.921,0.483c-1.601,0.293-3.19,0.217-4.768,0.688
		c-1.381,0.414-2.96,0.866-4.453,0.951c-0.084-0.175-0.168-0.423-0.148-0.619"/>
	<path fill="none" stroke="#000000" stroke-width="0.887" stroke-miterlimit="10" d="M96.981,124.42
		c-2.358,1.729-4.755,3.397-6.904,5.374c-1.669,1.534-3.525,4.245-5.881,4.655"/>
	<path fill="none" stroke="#000000" stroke-width="0.887" stroke-miterlimit="10" d="M173.409,153.236
		c-0.221-2.383-1.283-5.537-2.001-7.846c-0.36-1.163-1.204-2.905-1.955-3.885"/>
	<path fill="none" stroke="#000000" stroke-width="0.887" stroke-miterlimit="10" d="M78.619,137.239
		c2.356,0.079,3.942-2.5,5.459-3.927c2.581-2.425,5.333-4.728,7.705-7.354"/>
	<path fill="none" stroke="#000000" stroke-width="0.887" stroke-miterlimit="10" d="M174.376,141.798
		c2.408,1.388,2.491,3.619,2.934,6.103c0.465,2.619,1.689,5.294,2.025,7.819"/>
	<path fill="none" stroke="#000000" stroke-width="0.887" stroke-miterlimit="10" d="M67.977,135.614
		c1.715,0.714,6.94-5.573,8.2-6.499c2.613-1.921,5.903-2.631,8.71-4.278"/>
	<path fill="none" stroke="#000000" stroke-width="0.887" stroke-miterlimit="10" d="M89.223,135.315
		c1.894-0.024,2.833-1.521,4.292-2.44c1.725-1.088,3.363-1.296,4.402-3.288"/>
	<path fill="none" stroke="#000000" stroke-width="0.887" stroke-miterlimit="10" d="M183.946,154.288
		c0.475-1.936-3.331-10.481-5.238-12.09"/>
	<path fill="none" stroke="#000000" stroke-width="0.887" stroke-miterlimit="10" d="M194.304,147.665
		c2.808,1.337,3.074,7.103,5.307,9.117"/>
	<path fill="none" stroke="#000000" stroke-width="0.887" stroke-miterlimit="10" d="M206.544,161.452
		c-2.551-5.31-5.286-12.641-9.709-16.617"/>
	<path fill="none" stroke="#000000" stroke-width="0.887" stroke-miterlimit="10" d="M114.971,133.014
		c0.325,1.204-0.337,2.477-1.247,3.191"/>
	<path fill="none" stroke="#000000" stroke-width="0.887" stroke-miterlimit="10" d="M105.814,112.739
		c-1.927,2.157-5.332,4.525-6.745,7.079c-0.435,0.178-0.82,0.074-1.156-0.309"/>
	<path fill="none" stroke="#000000" stroke-width="0.887" stroke-miterlimit="10" d="M94.942,136.648
		c1.312-0.756,1.578-2.386,2.668-3.464c1.273-1.264,3.779-1.563,3.947-3.665"/>
	<path fill="none" stroke="#000000" stroke-width="0.887" stroke-miterlimit="10" d="M102.247,119.907
		c0.294-0.046,0.513,0.039,0.658,0.25c0.513-1.75,2.623-4.729,4.504-5.338"/>
	<path fill="none" stroke="#000000" stroke-width="0.887" stroke-miterlimit="10" d="M101.733,137.192
		c0.17,0.103,0.345,0.201,0.512,0.3c1.106-2.318,2.946-4.432,4.441-6.533"/>
	<path fill="none" stroke="#000000" stroke-width="0.887" stroke-miterlimit="10" d="M106.786,121.455
		c1.307-0.468,2.37-2.945,2.911-4.085"/>
	<path fill="none" stroke="#000000" stroke-width="0.887" stroke-miterlimit="10" d="M108.526,137.74
		c1.43-0.719,2.67-3.802,3.29-5.341"/>
	<path fill="none" stroke="#000000" stroke-width="0.887" stroke-miterlimit="10" d="M110.046,122.644
		c0.275,0.031,0.541,0.105,0.787,0.228c0.953-0.967,1.423-2.344,2.33-3.166"/>
	<path fill="none" stroke="#000000" stroke-width="0.887" stroke-miterlimit="10" d="M95.31,105.16
		c0.161,1.819,0.961,2.497,1.969,3.88c0.043,0.424,0.023,0.396-0.06-0.077"/>
	<path fill="none" stroke="#000000" stroke-width="0.887" stroke-miterlimit="10" d="M70.435,125.681
		c-1.501,0.96-4.346,2.888-6.167,2.899"/>
	<path fill="none" stroke="#000000" stroke-width="0.887" stroke-miterlimit="10" d="M95.173,111.112
		c-1.646-1.796-2.223-2.464-2.703-4.844"/>
	<path fill="none" stroke="#000000" stroke-width="0.887" stroke-miterlimit="10" d="M69.22,122.345
		c1.171,1.248,7.05-0.687,8.941-1.029"/>
	<path fill="none" stroke="#000000" stroke-width="0.887" stroke-miterlimit="10" d="M192.84,119.474
		c0.725,4.01,1.686,7.79,2.858,11.671c0.438,1.444,2.137,4.294,0.855,5.441"/>
	<path fill="none" stroke="#000000" stroke-width="0.887" stroke-miterlimit="10" d="M178.011,131.651
		c0.088,0.482,0.096,0.522,0.021,0.114c-0.771-4.247-1.541-8.494-2.312-12.743"/>
	<path fill="none" stroke="#000000" stroke-width="0.887" stroke-miterlimit="10" d="M204.421,136.344
		c-0.235-2.013-1.105-3.725-1.645-5.626c-0.675-2.392-0.899-5.03-1.34-7.47"/>
	<path fill="none" stroke="#000000" stroke-width="0.887" stroke-miterlimit="10" d="M181.854,122.651
		c1.035,1.09,3.115,9.12,2.36,9.651"/>
	<path fill="none" stroke="#000000" stroke-width="0.887" stroke-miterlimit="10" d="M188.759,143.929
		c1.512,0.59,2.727,8.404,3.053,10.119"/>
	<path fill="none" stroke="#000000" stroke-width="0.887" stroke-miterlimit="10" d="M202.24,144.446
		c1.149,0.815,1.505,3.324,2.187,4.598c1.021,1.912,2.441,4.244,2.843,6.349"/>
	<path fill="none" stroke="#000000" stroke-width="0.887" stroke-miterlimit="10" d="M191.604,152.897
		c-0.46,1.081-2.11,1.021-3.358,1.114c-0.703-2.129-1.631-3.961-2.265-6.021c-0.63-2.043-1.978-4.636-1.856-6.702
		c1.954-0.252,4.836,0.711,4.738,3.215"/>
	<path fill="none" stroke="#000000" stroke-width="0.887" stroke-miterlimit="10" d="M164.432,150.715
		c1.271,0.922,6.915,2.116,8.873,1.948"/>
	<path fill="none" stroke="#000000" stroke-width="0.887" stroke-miterlimit="10" d="M169.839,150.327
		c3.209,0.089,3.484-3.44,2.523-5.704c-2.143,0.276-2.342-0.142-4.127-0.688c-1.029-0.312-2.723-0.782-3.783-0.232
		c-0.043,2.436,4.047,1.119,3.66,4.507c-1.4-0.191-2.439-1.198-3.707-1.578c-0.107,1.107,0.84,1.974,1.718,2.589
		c0.538,0.377,3.366,1.637,2.433,0.746"/>
	<path fill="#245977" d="M208.375,176.831c-1.249,3.6-7.76,8.817-6.706,12.75c0.873,3.262,8.829,7.463,11.576,9.026
		c2.689,1.529,5.184,2.666,7.733,4.518c2.036,1.478,4.266,3.074,6.484,4.167c6.854,3.378,16.786,5.835,24.55,4.698
		c0.564-2.395,1.852-5.138,2.645-7.548c0.557-1.691,1.345-3.295,1.742-5.036c0.641-2.812,1.418-5.6,1.87-8.453
		c0.181-1.143,0.691-1.831,0.954-2.829c0.336-1.271-0.352-2.905-0.301-4.222c0.128-3.354,0.412-6.772,0.66-10.128
		c0.322-4.362,1.021-8.718,1.448-13.058c0.43-4.367,0.207-8.761-0.418-13.115c-1.951-13.596-6.782-26.846-12.628-39.166
		c-1.377-2.901-3.035-5.65-4.635-8.402c-1.408-2.421-2.355-5.4-4.512-7.193c-0.706-0.587-1.65-1.208-2.517-1.524
		c-1.962-0.716-3.294,0.108-5.122,0.952c-1.928,0.889-4.162,2.218-5.64,3.705c-1.286,1.295-2.07,3.331-2.89,4.983
		c-2.102,4.238-4.643,8.535-6.286,13.017c-1.312,3.575-1.801,7.954-0.475,11.57c1.308,3.563,0.946,7.208,0.61,10.961
		c-0.659,7.389,0.023,14.618-2,21.862C212.81,164.49,210.524,170.651,208.375,176.831"/>
	<path fill="#245977" d="M206.653,89.321c3.456-1.6,7.019-3.003,10.688-4.032c1.862-0.522,3.752-0.945,5.668-1.222
		c2.209-0.318,4.521-0.588,6.734-0.751c1.297-0.095,3.472-0.74,4.674-0.029c0.869,0.515,2.119,2.229,2.688,3.096
		c0.633,0.961,1.185,1.972,1.604,3.046c1.133,2.903,1.656,6.097,2.604,9.082c0.851,2.678,2.695,5.342-0.059,7.376
		c-2.287,1.689-4.363,3.098-7.186,3.658c-6.647,1.319-12.344,5.17-18.518,7.868c-3.912,1.711-8.1,3-11.889,4.901
		c-6.045,3.035-15.437,3.423-21.533,0.378c-0.785,0.621-0.506,2.755-0.498,3.597c0.019,1.797,0.188,3.597,0.14,5.394
		c-0.12,4.506-5.751,5.743-9.403,5.48c-2.632-0.189-5.007,3.281-6.064,5.321c-1.852,3.572-5.561,5.867-8.945,7.802
		c-2.876,1.645-3.769,4.866-6.453,6.59c-1.295,0.831-3.332,0.717-4.824,0.877c-1.782,0.191-2.562-0.077-2.965-1.741
		c-0.686-2.831,1.712-4.732,4.189-5.729c0.875-0.352,3.051-0.425,3.494-1.443c0.449-1.033-1.527-1.104-2.086-1.154
		c-0.482-0.043-1.222,0.094-1.658-0.132c-0.242-0.125-1.425-1.743-1.221-1.911c0.93-0.766,6.296-0.828,4.257-3.201
		c-1.401-1.632-4.388-0.985-5.546-3.114c-1.562-2.871,1.847-2.719,3.566-2.755c0.937-0.02,1.759-0.616,1.471-1.745
		c-0.209-0.821-1.459-1.241-1.847-1.944c-1.198-2.17,1.793-2.957,3.276-2.4c0.797,0.299,0.982,0.665,1.813,0.376
		c1.146-0.4,1.659-1.715,2.346-2.586c0.86-1.093,2.054-2.073,3.149-2.959c1.134-0.917,2.143-1.922,3.202-2.907
		c1.187-1.099,2.124-2.631,3.247-3.866c0.453-0.497,0.93-0.985,1.387-1.498c0.537-0.603,1.025-1.271,1.573-1.87
		c1.019-1.112,2.112-2.222,3.28-3.183c0.596-0.489,1.28-0.961,1.956-1.337c0.402-0.224,0.873-0.386,1.245-0.567
		c0.379-0.186,0.443-0.55,0.775-0.881c0.423-0.423,1.118-0.595,1.665-0.765c0.959-0.3,1.852-0.655,2.813-0.967
		c2.197-0.715,4.317-1.401,6.168-2.856c1.065-0.842,2.096-1.702,3.09-2.61c1.908-1.746,4.113-3.06,6.035-4.779
		c1.297-1.156,2.475-2.436,3.802-3.55c0.844-0.712,1.741-1.303,2.772-1.724c0.463-0.188,0.953-0.368,1.426-0.533
		C204.189,90.922,205.285,89.952,206.653,89.321"/>
	<path fill="#245977" d="M97.811,150.384c-0.015,1.567-3.45,2.729-5.013,2.916c-4.217,0.504-7.283-3.181-7.728-7.022
		c-0.505-4.364-2.819-8.979-7.186-10.572c-0.947-0.346-2.187-0.771-3.161-0.885c-0.928-0.111-2.966,0.465-3.582-0.256
		c-0.83-0.973-0.005-2.512,0.941-2.936c1.038-0.466,2.576-0.174,3.748-0.319c0.242-0.775-3.678-2.734-0.542-2.857
		c0.821-0.032,4.186,1.016,3.43-1.111c-0.688-0.234-2.236-0.928-1.341-1.731c0.919-0.826,2.572,1.134,3.146-0.334
		c0.364-0.932-1.015-2.099-0.89-3.207c0.181-1.605,1.75-2.696,3.134-3.264c2.725-1.117,4.739,0.949,4.141,3.858
		c-0.223,1.085-0.778,2.057-0.884,3.179c-0.207,2.219,2.002,3.72,3.525,4.879c1.501,1.141,2.959,2.35,4.561,3.352
		c1.637,1.025,3.459,1.598,5.136,2.387c1.747,0.822,3.475,1.446,5.173,2.095c1.971,0.753,3.654,1.104,5.83,1.437
		c-0.004,0.957-1.782,2.244-2.502,2.93c-1.117,1.068-2.226,2.122-3.256,3.191c-1.088,1.128-2.262,2.325-3.553,3.329
		c-0.744,0.58-2.59,2.487-3.418,2.395"/>
	<path fill="#FF0000" d="M148.11,147.02c-0.497,1.008-1.4-0.325-1.117-1.117c0.461,0.06,1.061-0.074,1.413-0.305
		c0.626,0.54,0.251,1.532-0.587,1.422"/>
	<path fill="#FF0000" d="M146.659,138.896c-1.035,0.223-2.005-0.642-1.695-1.697c0.569-0.065,1.307-0.198,1.773,0.162
		c0.516,0.396,0.748,1.22,0.212,1.535"/>
	<path fill="#FF0000" d="M148.98,132.803c0.077-0.232-0.368-1.844,0.573-2.051c1.303-0.287,1.316,1.533,0.297,2.051"/>
	<path fill="#FF0000" d="M143.459,155.411c0.21,0.723,0.458,1.195,1.181,1.443c0.438,0.15,0.775,0.309,1.255,0.295
		c0.532-0.015,1.171-0.128,1.38-0.677c-0.186-0.236-0.56-0.304-0.825-0.418c-0.369-0.159-0.742-0.305-1.059-0.556
		c-0.386-0.306-0.741-0.648-1.029-1.046c-0.249-0.343-0.226-0.592-0.29-0.982c-0.396,0.344-0.82,1.397-0.778,1.904
		c0.188-0.059,0.315-0.327,0.331-0.521"/>
	<path fill="#FF0000" d="M85.506,119.255c0.04,0.042,0.104,0.055,0.163,0.104c0.084,0.07,0.131,0.191,0.174,0.289
		c0.164,0.375,0.24,0.729,0.239,1.141c-0.001,0.463-0.054,0.881-0.106,1.333c-0.025,0.216-0.068,0.45-0.041,0.666
		c0.366-0.183,0.928-0.339,1.186-0.688c0.142-0.192,0.067-0.441,0.035-0.656c-0.043-0.301-0.129-0.576-0.199-0.873
		c-0.111-0.467-0.352-0.943-0.672-1.288c-0.219-0.235-0.566-0.561-0.848-0.716c-0.063,0.431,0.301,0.82,0.262,1.265"/>
	<path fill="#FF0000" d="M77.702,125.597c0.193,0.002,0.407,0.019,0.602,0.047c0.17,0.025,0.502,0.226,0.661,0.179
		c0.072-0.185-0.415-0.377-0.536-0.416c-0.293-0.098-0.625-0.054-0.918-0.039"/>
	<path fill="#FF0000" d="M74.589,128.672c0.193-0.13,0.852-0.062,1.07,0.035c0.143-0.379-1.049-0.18-1.224-0.111"/>
	<path fill="#FF0000" d="M71.629,132.247c0.07-0.036,0.102-0.106,0.161-0.154c0.127-0.102,0.307-0.163,0.465-0.202
		c0.287-0.071,0.545-0.071,0.832-0.111c-0.033-0.168-0.506-0.239-0.65-0.226c-0.187,0.018-0.379,0.123-0.529,0.232
		c-0.152,0.11-0.422,0.462-0.586,0.461"/>
</g>
</svg>
