<svg id="Benevoles-Button-small" xmlns="http://www.w3.org/2000/svg" width="315" height="300" viewBox="0 0 315 300">
  <path id="Polygon_1" data-name="Polygon 1" d="M172.322,10.432a50.326,50.326,0,0,1,55.092,17.909l.033.043A50.326,50.326,0,0,0,251.4,45.807l.068.023a50.327,50.327,0,0,1,34,46.825l0,.159a50.327,50.327,0,0,0,9.13,28.132l.1.139a50.327,50.327,0,0,1,0,57.832l-.1.139a50.326,50.326,0,0,0-9.13,28.132l0,.159a50.327,50.327,0,0,1-34,46.825l-.068.023a50.327,50.327,0,0,0-23.953,17.423l-.033.043a50.327,50.327,0,0,1-55.092,17.909h0a50.327,50.327,0,0,0-29.645,0h0a50.326,50.326,0,0,1-55.092-17.909l-.032-.043A50.327,50.327,0,0,0,63.6,254.193l-.068-.023a50.326,50.326,0,0,1-34-46.825l0-.159a50.326,50.326,0,0,0-9.13-28.132l-.1-.139a50.326,50.326,0,0,1,0-57.832l.1-.139a50.326,50.326,0,0,0,9.13-28.132l0-.159a50.327,50.327,0,0,1,34-46.825l.068-.023A50.326,50.326,0,0,0,87.554,28.384l.033-.043a50.327,50.327,0,0,1,55.092-17.909h0a50.327,50.327,0,0,0,29.645,0Z"/>
</svg>
