<svg id="Home" xmlns="http://www.w3.org/2000/svg" xmlns:xlink="http://www.w3.org/1999/xlink" width="85" height="85.7" viewBox="0 0 85 85.7">
  <defs>
    <clipPath id="clip-path">
      <rect id="Rectangle_30" data-name="Rectangle 30" width="85" height="85.7" fill="red"/>
    </clipPath>
  </defs>
  <g id="Group_43" data-name="Group 43" clip-path="url(#clip-path)">
    <path id="Path_22" data-name="Path 22" d="M.5,42.377V85.53H31.923V42.816C40.965,31.727,42.774.1,42.774.1S37.8,23.614.5,42.377" transform="translate(-0.274 -0.056)" fill="red"/>
    <path id="Path_23" data-name="Path 23" d="M.5,42.377V85.53H31.923V42.816C40.965,31.727,42.774.1,42.774.1S37.8,23.614.5,42.377Z" transform="translate(-0.274 -0.056)" fill="red" stroke="#fff" stroke-miterlimit="10" stroke-width="1"/>
    <path id="Path_24" data-name="Path 24" d="M94,.1s1.809,31.624,10.851,42.713V85.53h31.423V42.377C98.973,23.614,94,.1,94,.1" transform="translate(-51.5 -0.056)" fill="red"/>
    <path id="Path_25" data-name="Path 25" d="M94,.1s1.809,31.624,10.851,42.713V85.53h31.423V42.377C98.973,23.614,94,.1,94,.1Z" transform="translate(-51.5 -0.056)" fill="red" stroke="#fff" stroke-miterlimit="10" stroke-width="1"/>
  </g>
</svg>
