<svg xmlns="http://www.w3.org/2000/svg" width="32.815" height="32.815" viewBox="0 0 32.815 32.815">
  <path id="Path_2083" data-name="Path 2083" d="M23.039,32.815H9.775A9.786,9.786,0,0,1,0,23.039V9.775A9.787,9.787,0,0,1,9.775,0H23.039a9.786,9.786,0,0,1,9.776,9.775V23.039a9.786,9.786,0,0,1-9.776,9.776M9.775,3.3A6.482,6.482,0,0,0,3.3,9.775V23.039a6.482,6.482,0,0,0,6.475,6.474H23.039a6.481,6.481,0,0,0,6.474-6.474V9.775A6.482,6.482,0,0,0,23.039,3.3Zm6.63,21.593a8.487,8.487,0,1,1,8.489-8.486,8.487,8.487,0,0,1-8.489,8.486Zm0-13.675A5.186,5.186,0,1,0,21.592,16.4a5.186,5.186,0,0,0-5.186-5.186Zm8.5-1.2a2.034,2.034,0,1,1,2.035-2.033,2.034,2.034,0,0,1-2.035,2.033Z" fill="currentColor"/>
</svg>
