<svg id="Group_2" data-name="Group 2" xmlns="http://www.w3.org/2000/svg" xmlns:xlink="http://www.w3.org/1999/xlink" width="1403.861" height="487.66" viewbox="0 0 1403.861 487.66">
    <g id="Group_1" data-name="Group 1" clip-path="url(#clip-path)">
        <path id="Path_1" data-name="Path 1" d="M160.886,211.9S135.8,182.5,118.5,179.9,55.359,192.01,0,225.744L105.528,433.339l31.139-23.354L96.013,320.027s46.709-22.49,59.683-41.519,14.7-38.923,5.189-66.6m-46.709,61.321c-25.084,14.8-35.464,19.122-35.464,19.122L50.169,242.179s31.139-21.624,49.3-24.22,25.948,0,25.948,0,13.84,40.47-11.244,55.267" transform="translate(0 25.965)" fill="#fff"/>
        <path id="Path_2" data-name="Path 2" d="M145.841,164.329l37.211-8.649,41.519,159.155,81.308-15.57s9.515,1.731,12.975,26.815l-123.692,32Z" transform="translate(21.084 22.506)" fill="#fff"/>
        <path id="Path_3" data-name="Path 3" d="M260.726,138.353,291,126.243s38.924,116.772,39.79,122.827,3.46,16.723,3.46,16.723,24.219,23.745,38.923,18.648,18.165-16.342,5.191-68.241-27.679-106.392-27.679-106.392l31.139-7.784s32.868,100.626,40.654,126,5.189,76.98-38.924,89.668-70.063-.287-85.633-53.051-37.194-126.287-37.194-126.287" transform="translate(37.692 14.749)" fill="#fff"/>
        <path id="Path_4" data-name="Path 4" d="M543.146,136.759l12.11-25.084S522.387,83.13,508.547,83.13s-57.089,5.189-69.2,10.38-37.194,19.894-31.139,72.658c0,0,21.624,27.1,45.843,27.388s41.519-4.035,54.494,12.4-2.659,32-27.278,28.544-52.3-10.38-52.3-10.38V254.4l26.815,18.164s68.333-.865,83.9-13.84S569.1,199.9,555.255,182.6s-44.979-30.274-51.034-30.274-55.358,5.189-55.358,5.189l-6.055-19.894s-1.731-12.975,19.03-14.705,36.329-3.46,36.329-3.46Z" transform="translate(58.879 12.018)" fill="#fff"/>
        <path id="Path_5" data-name="Path 5" d="M734.9,209.463s15.569-82.173,12.975-112.447-14.7-58.819-32-70.063-80.05-29.41-117.008,0c0,0-33.5,43.249-27.443,94.283s20.287,118.5,27.443,128.017,44.35,36.329,56.459,33.734,52.765-36.33,52.765-36.33L753.932,312.4l39.79-58.819Zm-40.654-8.649s-13.84,25.95-35.464,28.544-44.114-25.95-52.763-82.173S633.7,55.5,633.7,55.5c7.314-8.77,32.87-6.055,48.439,0s33.734,51.034,33.734,51.034c0,30.274-21.624,94.283-21.624,94.283" transform="translate(82.502 1.592)" fill="#fff"/>
        <path id="Path_6" data-name="Path 6" d="M769.775,8.65l-9.515,99.473,16.659,4.324,10.156-17.3,13.839-74.389L790.534,0Z" transform="translate(109.908 0)" fill="#fff"/>
        <path id="Path_7" data-name="Path 7" d="M871.953,89.932,917.8,99.446,875.413,313.961,831.3,300.986Z" transform="translate(120.178 13.001)" fill="#fff"/>
        <path id="Path_8" data-name="Path 8" d="M860.017,48.753l3.46,12.525,50.169-12.525,17.3,28.96,14.7-14.48-32-44.339Z" transform="translate(124.329 2.731)" fill="#fff"/>
        <path id="Path_9" data-name="Path 9" d="M980.25,123.451l39.789,10.073L980.25,296.141l91.688,12.975-13.84,43.249L931.81,314.305Z" transform="translate(134.708 17.847)" fill="#fff"/>
        <path id="Path_10" data-name="Path 10" d="M1064.063,351.675l64.009-175.59L1250.033,230.3l-8.649,27.094L1148.83,230.3l-12.109,33.582L1199,295.452l-17.3,34.6L1119.421,306.7l-10.379,27.854,89.093,30.1L1181.7,395.789Z" transform="translate(153.827 25.456)" fill="#fff"/>
        <path id="Path_11" data-name="Path 11" d="M442.623,351.622l-5.1-14.164-51.558,17,24.4,84.42h14.7l-10.766-38.527,28.329-9.065-3.966-13.031-28.295,9.914-7.4-25.213Z" transform="translate(55.798 48.785)" fill="#fff"/>
        <path id="Path_12" data-name="Path 12" d="M450.317,339.6l18.7,84.42,50.992-11.332-3.4-13.6-38.714,9.065-6.046-28.895,28.9-5.666-3.966-9.633-26.629,3.4-1.133-20.4,33.995-7.365-2.833-17Z" transform="translate(65.101 46.638)" fill="#fff"/>
        <path id="Path_13" data-name="Path 13" d="M562.093,344.995l10.2-10.184-10.2-15.877s-33.995-7.366-37.961,4.532S514.5,350.66,529.8,360.292s34.561,14.732,34.561,26.63-13.031,14.73-30.028,4.249l-14.59,4.816s14.59,15.864,34.986,13.6,23.326-21.529,23.326-21.529-.1-19.03-12-24.812-30.6-13.149-30.6-13.149-5.1-17,2.834-19.263,20.963,1.133,23.8,14.164" transform="translate(75.137 45.781)" fill="#fff"/>
        <path id="Path_14" data-name="Path 14" d="M576.545,317.324v13.018h27.3v73.089h16.895l-3.966-73.089,24.362-2.266V312.212Z" transform="translate(83.349 45.135)" fill="#fff"/>
        <path id="Path_15" data-name="Path 15" d="M657.166,312.213l-3.4,87.253H670.2V312.213Z" transform="translate(94.512 45.135)" fill="#fff"/>
        <path id="Path_16" data-name="Path 16" d="M686.932,314.87l24.929,88.561,13.032,3.4,31.727-89.506-13.031-5.112-21.813,69.122L701.663,314.87Z" transform="translate(99.307 45.135)" fill="#fff"/>
        <path id="Path_17" data-name="Path 17" d="M800.3,323.931l-16.431-3.8L745.343,398.32l12.466,7.365,7.932-19.263,31.728,2.266,5.666,20.618,17,3.744Zm-28.9,53.177,16.43-35.445,6.8,36.261Z" transform="translate(107.751 46.28)" fill="#fff"/>
        <path id="Path_18" data-name="Path 18" d="M836.026,328.053,819.6,414.172l53.258,9.065V408.161l-37.394-7.021,14.731-70.821Z" transform="translate(118.486 47.425)" fill="#fff"/>
    </g>
</svg>
