<svg xmlns="http://www.w3.org/2000/svg" width="30.353" height="23.608" viewBox="0 0 30.353 23.608">
  <path id="Path_2082" data-name="Path 2082" d="M15.177,23.608h0c-.079,0-7.931-.057-10.309-.322-.128-.03-.284-.052-.464-.078a4.256,4.256,0,0,1-2.885-1.37,8.069,8.069,0,0,1-1.2-3.327A53.657,53.657,0,0,1,0,13.093V10.57C0,7.87.311,5.125.314,5.1a7.324,7.324,0,0,1,1.2-3.327A4.134,4.134,0,0,1,4.465.384h.006L4.555.376C8.742.06,15.113,0,15.177,0S21.611.06,25.8.376l.144.011A3.862,3.862,0,0,1,28.835,1.77a8.075,8.075,0,0,1,1.2,3.327c0,.023.314,2.771.314,5.473v2.523c0,2.647-.311,5.392-.314,5.419a8.065,8.065,0,0,1-1.2,3.327,4.133,4.133,0,0,1-2.944,1.388h-.007l-.084.008c-4.189.37-10.559.375-10.623.375M11.513,6.385V18.029l9.944-5.688Z" fill="currentColor"/>
</svg>
