<?xml version="1.0" encoding="utf-8"?>
<!-- Generator: Adobe Illustrator 16.0.4, SVG Export Plug-In . SVG Version: 6.00 Build 0)  -->
<!DOCTYPE svg PUBLIC "-//W3C//DTD SVG 1.1//EN" "http://www.w3.org/Graphics/SVG/1.1/DTD/svg11.dtd">
<svg version="1.1" id="Ebene_1" xmlns="http://www.w3.org/2000/svg" xmlns:xlink="http://www.w3.org/1999/xlink" x="0px" y="0px"
	 width="283.46px" height="425.2px" viewBox="0 0 283.46 425.2" enable-background="new 0 0 283.46 425.2" xml:space="preserve">
<g>
	<path fill="#245977" d="M55.318,193.816c-2.251-2.198-4.133-4.762-6.703-6.703c-2.353-1.779-4.365-3.691-7.294-4.292
		c-1.461-0.302-2.508-0.224-3.893,0.254c-2.062,0.707-4.072,1.578-5.957,2.685c-5.333,3.127-7.682,11.004-6.87,16.742
		c0.594,4.215,1.117,8.196,2.672,12.187c3.022,7.749,6.482,16.081,10.621,23.429c1.896,3.365,3.781,6.735,5.794,10.03
		c1.829,2.993,4.393,5.873,5.804,9.08c1.04,2.365,0.417,4.294,0.526,6.746c0.131,3.002,1.35,5.623,0.598,8.676
		c-0.584,2.359-4.017,11.177,1.341,9.558c3.612-1.093,4.907-5.812,6.867-8.401c2.104-2.773,4.703-5.805,4.901-9.493
		c0.183-3.455-3.118-5.71-4.416-8.685c-2.162-4.962-3.519-11.489-4.512-16.745c-1.268-6.698-5.363-12.039-7.915-18.281
		c-1.21-2.955-2.217-5.896-3.545-8.767c-0.595-1.288-3.481-4.664-0.877-4.652c1.902,0.01,4.327,4.288,5.49,5.579
		c3.829,4.236,3.87,9.893,7.047,14.349c1.257,1.763,2.404,3.613,3.608,5.438c0.352,0.53,0.897,1.767,1.495,2.069
		c0.53,0.268,1.821,0.053,2.434-0.057c1.77-0.312,3.375-1.575,4.917-2.433c1.928-1.072,3.848-2.183,5.792-3.236
		c0.825-0.449,1.752-0.677,2.566-1.081c0.814-0.399,1.295-1.131,1.998-1.673c0.491-0.379,1.534-0.774,1.83-1.362
		c0.673-1.357-1.601-4.529-2.349-5.483c-2.31-2.957-3.988-6.273-6.402-9.125c-1.142-1.349-2.329-2.627-3.578-3.881
		c-3.237-3.251-5.735-7.747-9.505-10.379C56.902,195.278,56.086,194.571,55.318,193.816z"/>
	<g>
		<path fill="#245977" d="M41.956,338.328c0.122-0.273,0.238-0.548,0.319-0.838c0.316-1.132,0.653-2.246,1.075-3.341
			c0.341-0.888,0.514-1.835,1.056-2.638c0.426-0.629,1.165-1.362,1.839-1.725c0.598-0.319,1.208-0.566,1.79-0.929
			c1.406-0.874,2.675-1.914,3.647-3.265c1.144-1.591,2.152-4.085,2.022-6.012c-0.166-2.479-1.888-4.339-2.481-6.647
			c-0.652-2.542-0.736-5.597-0.711-8.208c0.053-5.318,1.24-10.15,2.708-15.284c1.529-5.36,3.039-10.524,2.978-16.147
			c-0.022-2.01-0.075-4.507,0.672-6.409c0.642-1.638,2.308-2.805,3.634-3.949c2.303-1.988,4.673-2.463,7.442-3.477
			c4.24-1.558,8.164-3.349,12.642-4.19c4.309-0.809,8.689-1.167,12.983-2.061c7.195-1.488,10.112,0.019,17.271,2.02
			c10.233,2.856,21.119,5.896,31.853,4.82c12.76-1.289,25.409-5.172,37.699-9.449c-6.469-2.858-13.224-7.789-14.021-15.128
			c-1.091-10.059,9.179-9.87,15.211-13.603c-2.42-0.2-4.865-0.129-7.221,0.028c-4.841,0.315-9.916-0.689-14.722-1.273
			c-8.998-1.095-17.773-0.208-26.522-0.188c-6.34,0.018-12.641-0.776-18.966-1.148c-5.116-0.303-10.772-1.066-15.438,1.508
			c-1.382,0.763-2.86,1.527-4.379,2.079c-0.872,0.319-1.597,0.863-2.375,1.385c-2.184,1.463-4.435,2.883-6.571,4.423
			c-2.644,1.909-5.175,4.103-7.873,5.92c-2.294,1.541-5.201,2.315-7.683,3.582c-2.841,1.449-5.595,3.068-8.274,4.795
			c-5.21,3.351-10.253,7.089-14.722,11.39c-2.148,2.069-4.223,4.264-4.944,7.172c-0.959,3.871-1.785,7.827-1.805,11.829
			c-0.017,2.782,0.463,5.503,0.781,8.256c0.342,2.997,0.163,6.02,0.315,9.036c0.397,7.755,0.68,15.601-0.122,23.268
			c-0.186,1.768-0.465,3.783-0.914,5.609c-0.427,1.736-0.807,3.16-1.905,4.496c-0.973,1.185-2.067,2.367-2.917,3.644
			c-0.727,1.092-1.807,1.831-2.845,2.62c-0.802,0.61-1.718,1.055-2.523,1.654c-0.931,0.692-1.939,1.183-2.886,1.835
			c-0.955,0.661-1.922,1.311-2.785,2.095c-1.234,1.12-1.707,2.136-0.292,3.254c0.558,0.442,1.519,1.014,2.275,0.997
			c1.458-0.028,1.789-1.933,3.029-2.327c2.01-0.636,0.624,2.713,0.352,3.909c-0.16,0.703-0.572,1.429-0.062,2.047
			c0.881,1.066,1.583,0.148,1.972-0.6c0.42-0.808,0.368-1.779,0.962-2.52c0.193-0.238,0.578-0.953,0.813-0.325
			c0.134,0.361-0.133,0.943-0.215,1.31c-0.085,0.377-0.153,0.803-0.063,1.179c0.081,0.336,0.307,0.846,0.735,0.805
			c0.469-0.042,0.618-0.98,0.734-1.319c0.16-0.46,0.211-1.033,0.412-1.481c0.163-0.368,0.521-0.642,0.622-0.123
			c0.176,0.891-0.323,2.012,0.302,2.791c0.312,0.389,0.903,0.676,1.134,0.094c0.187-0.473,0.185-0.98,0.3-1.457
			c0.065-0.269,0.193-1.147,0.469-1.237c0.345-0.113,0.338,0.902,0.364,1.083c0.053,0.371,0.185,1.177,0.618,1.296
			c0.547,0.148,0.915-0.328,1.118-0.733c0.218-0.431,0.342-0.932,0.636-1.319c0.2-0.265,0.461-0.453,0.627-0.749
			c0.24-0.429,0.297-0.868,0.471-1.322C41.708,338.864,41.836,338.596,41.956,338.328z"/>
		<path fill="#245977" d="M214.718,222.424c-1.43,2.447-4.718,4.818-7.091,6.267c-0.967,0.592-1.431,0.775-2.476,0.575
			c-1.707-0.327-3.269-1.373-4.658-2.153c-3.031-1.702-6.972-2.673-10.14-4.091c-3.869-1.738-7.319-1.134-10.677,1.388
			c-1.707,1.285-4.301,3.152-5.186,5.065c-1.906,4.136,0.531,8.607,2.241,12.214c0.01,0.021,0.009,0.044,0.018,0.059
			c2.336,0.889,4.667,1.762,6.98,2.63c9.381,3.513,15.46,8.236,22.688,15.149c5.997,5.732,9.406,8.898,17.991,9.144
			c4.037,0.122,8.07-0.822,11.745-2.47c3.753-1.668,7.186-4.076,9.994-7.083c2.667-2.853,4.791-6.292,5.781-10.092
			c0.422-1.61,0.629-3.271,0.6-4.931c-0.017-0.837-0.23-1.685,0.021-2.466c0.222-0.678,0.163-1.502,0.223-2.218
			c0.07-0.948,0.019-1.884-0.165-2.822c-0.36-1.796-1.104-3.188-2.201-4.648c-0.795-1.048-2.021-2.407-3.277-2.879
			c-0.392-0.144-0.82-0.135-1.184-0.355c-0.5-0.329-0.871-0.955-1.104-1.493c-0.276-0.659-0.656-1.251-0.992-1.889
			c-0.722-1.396-1.2-3.098-1.496-4.638c-0.199-1.09-0.023-2.992-1.193-3.562c-1.048-0.506-2.315,1.441-2.76,2.158
			c-0.587,0.959-0.664,3.052-2.048,3.193c-0.78,0.078-1.556-0.438-2.287-0.641c-0.479-0.132-0.989-0.468-1.113-0.985
			c-0.102-0.44,0.206-0.62,0.529-0.881c0.655-0.498,1.695-0.808,2.124-1.55c0.781-1.3-1.355-2.057-2.282-2.068
			c-0.685-0.005-1.348,0.114-1.977,0.363c-0.4,0.163-1.027,0.295-1.388,0.538c-0.341-0.376-0.503-0.753-0.488-1.27
			c0.008-0.357,0.229-0.655,0.223-1.008c-0.009-1.279-1.317-0.681-1.791-0.118c-0.378,0.459-0.487,1.044-0.821,1.514
			c-0.326,0.45-0.955,0.835-1.454,0.971c-0.71,0.187-1.092,0.014-1.754-0.203c-0.788-0.256-1.645-0.395-2.466-0.292
			c-1.535,0.201-2.598,0.684-3.672,1.803c-0.649,0.686-1.262,1.443-1.884,2.153C215.429,221.306,215.052,221.854,214.718,222.424z"
			/>
		<path d="M233.383,229.591c-0.676,1.79-1.63,1.613-1.693,3.839c-0.034,1.619-0.361,2.897,0.986,4.168
			c-0.495-1.467-0.153-7.39,1.862-7.083"/>
		<path fill="#245977" d="M201.25,241.103c-3.759-4.599-9.775-6.846-15.576-4.833c-5.615,1.942-3.762,7.69-0.377,10.876
			c3.182,3.021,6.229,5.934,9.576,8.754c2.141,1.805,4.191,3.682,6.206,5.62c1.796,1.729,2.506,2.971,3.481,5.32
			c0.787,1.896,1.199,3.948,1.992,5.818c2.159,5.11,5.81,9.407,8.503,14.157c1.185,2.09,2.168,4.569,3.548,6.489
			c1.151,1.602,3.088,1.537,4.854,0.915c2.578-0.907,3.541-3.673,4.411-6.013c1.912-5.138,5.358-9.074,8.132-13.719
			c1.743-2.912,3.476-5.741,5.411-8.413c1.055-1.459,1.697-3.219,2.085-5.048c0.446-2.113,0.423-3.59-0.337-5.615
			c-0.724-1.936-1.333-4.738-2.969-6.044c-1.338-1.071-3.982-2.422-5.793-1.771c-1.987,0.712-3.293,3.897-3.8,5.808
			c-0.657,2.478-1.78,4.959-2.4,7.478c-0.479,1.937-0.664,3.943-1.57,5.861c-0.705,1.494-2.103,5.254-3.75,3.546
			c-1.671-1.732-2.085-4.637-3.671-6.525c-2.458-2.93-5.25-5.62-7.622-8.534C207.898,250.679,205.033,245.719,201.25,241.103z"/>
		<path d="M239.509,267.69c-1.351,0.126-3.714,2.34-5.103,1.861c-2.058-0.706-0.87-3.423,0.539-4.352
			c-1.307,1.116-4.234,1.651-5.907,2.109c-2.476,0.67-4.911,2.447-7.388,1.968c-1.569-0.3-2.612-1.143-4.039-1.785
			c-1.279-0.572-3.668-0.608-4.661-1.861c-0.842-1.053-0.198-2.091-1.085-3.27c-0.496-0.664-1.472-0.953-2.006-1.528
			c1.353-0.582,3.868,0.241,5.456,0.309c1.908,0.089,3.551,0.215,5.306-0.845c1.765-1.046,1.507-2.334,2.504-3.799
			c1.542-2.244,3.966-2.123,6.149-3.209c-0.067-2.012-3.383-3.013-4.714-4.063c-0.109-0.085,5.577-1.441,6.251-1.395
			c1.735,0.112,3.586,0.539,5.31,0.898c5.422,1.112,11.22,0.147,12.735-6.102c-1.303,0.025-2.55,0.416-3.87,0.538
			c0.51-3.314,6.481-5.722,5.156-9.691c-0.416-1.25-2.696-2.193-2.474-3.667c0.498-3.378,8.083,5.005,8.886,6.114
			c1.942,2.704,2.854,5.538,3.3,8.709c0.942,6.588,0.672,11.632-2.503,17.506c-1.798,3.303-3.67,6.626-6.153,9.491
			c-2.09,2.412-5.362,4.032-7.194,6.605c-1.193,1.647-2.645,3.52-3.506,5.341c-0.821,1.703-1.39,3.554-0.614,5.297
			c0.625,1.415,2.792,3.183,1.398,4.731c-2.308-2.602-3.971-5.183-6.064-7.959c-0.873-1.163-1.711-2.579-2.848-3.336
			c-1.645-1.089-4.078-0.766-3.245-3.438c0.741-2.368,4.439-3.546,6.237-4.929C236.082,273.377,239.879,267.663,239.509,267.69z"/>
		<path fill="#FF0000" d="M172.567,254.05c0.236-2.814,1.924-5.585,2.593-8.475c0.947-4.105-2.145-3.869-5.403-5.276
			c-3.402-1.467-7.441-3.493-9.884-6.364c-1.601-1.861-4.527-5.849-3.475-8.135c1.001-2.164,4.942-2.96,6.904-3.765
			c2.942-1.209,5.898-2.111,8.944-2.935c2.403-0.648,5.353-0.566,7.894-0.345c1.452,0.126,7.613,0.454,8.297,1.975
			c0.096,0.147,0.184,0.292,0.299,0.428c-1.573,2.159-7.783,2.035-8.103,5.395c4.503,1.414,9.225,1.675,13.1,4.022
			c2.585,1.568,5.544,2.889,7.348,5.453c0.271,0.389,0.422,0.808,0.649,1.209c0.209,0.367,0.601,0.662,0.92,0.954
			c0.244,0.235,0.43,0.536,0.623,0.823c0.145,0.211,0.289,0.417,0.469,0.587c0.512,0.478,1.361,0.984,1.681,1.633
			c0.234,0.488,0.185,1.19,0.218,1.718c0.024,0.469-0.151,1.005-0.045,1.436c0.104,0.527,0.64,0.786,0.923,1.21
			c0.393,0.617,0.715,1.308,1.119,1.937c0.458,0.705,1.062,1.306,1.616,1.948c0.974,1.124,1.845,2.314,2.768,3.491
			c1.092,1.395,2.18,2.851,3.081,4.385c0.226,0.374,0.401,0.751,0.441,1.174c0.04,0.413,0.129,0.778,0.067,1.185
			c-1.912-1.599-3.221-3.327-5.92-3.7c-1.806-0.245-3.585,0.539-4.972,1.71c-3.609,3.042-2.849,7.312-0.376,10.704
			c-1.157,0.73-3.473,1.324-4.638,0.474c-1.637-1.197-1.645-4.015-2.851-5.569c-1.489-1.906-3.49-3.283-5.034-5.13
			c-0.572-0.688-1.096-1.408-1.603-2.13c-0.483-0.69-0.917-1.538-1.483-2.162c-0.159-0.176-0.269-0.246-0.487-0.366
			c-0.423-0.221-0.812-0.553-1.22-0.799c-0.911-0.538-1.765-1.031-2.829-1.193c-0.52-0.082-0.989,0.01-1.511,0.097
			c-0.703,0.111-1.389,0.101-2.104,0.192c-0.743,0.101-1.513,0.273-2.247,0.437c-0.609,0.139-0.951,0.584-1.609,0.685
			C175.295,253.167,173.941,253.555,172.567,254.05z"/>
		<path d="M176.141,242.745c-0.339,1.492-0.675,2.989-0.789,4.507c-0.067,0.78,0.046,1.548,0.016,2.324
			c-0.023,0.668,0.104,1.027,0.363,1.669c0.14,0.365,0.222,0.526,0.567,0.765c0.499,0.323,0.892,0.493,1.517,0.451
			c1.207-0.069,2.437-0.903,3.625-0.884c-0.003,0.031-0.012,0.051-0.048,0.056c0.001,0.059-0.347,0.438-0.412,0.508
			c-0.167,0.184-0.399,0.293-0.602,0.437c-0.371,0.277-0.665,0.642-1.028,0.93c-0.652,0.489-1.35,0.78-2.08,1.13
			c-1.17,0.543-2.349,1.031-3.545,1.532c-1.461,0.632-3.089,0.913-4.653,1.234c-3.078,0.628-6.401,1.088-9.551,0.995
			c-2.563-0.076-4.982-0.264-7.538,0.323c-1.9,0.433-3.73,0.656-5.654,0.837c-2.238,0.209-4.426,1.103-6.641,0.932
			c-3.843-0.302-7.732,0.427-11.609,0.287c-2.383-0.083-4.787-0.054-7.139-0.361c-0.785-0.103-1.475-0.337-2.21-0.568
			c-0.926-0.295-1.848-0.296-2.767-0.576c-1.121-0.346-2.22-0.689-3.331-1.043c-2.78-0.862-5.313-2.299-8.079-3.003
			c-2.583-0.666-5.264-0.663-7.893-1.056c-1.521-0.218-3.045-0.354-4.554-0.577c-1.54-0.229-3.131,0.55-4.637,0.807
			c-1.266,0.211-2.319,0.248-3.446,0.931c-2.647,1.61-5.123,4.081-7.154,6.406c-1.945,2.227-4.298,4.2-5.918,6.693
			c-1.315,2.026-1.401,4.591-2.169,6.836c-2.366-1.962-4.542-3.035-7.5-4.189c-3.248-1.267-5.916-3.313-9.046-4.812
			c-5.025-2.4-12.058-6.788-17.718-6.354c0.123-0.008,1.2-2.446,1.368-2.711c0.597-0.968,1.282-1.88,2.003-2.756
			c1.417-1.715,2.996-3.298,4.595-4.842c1.211-1.169,2.506-1.719,3.861-2.625c2.207-1.483,3.127-4.013,4.927-5.879
			c1.337-1.39,2.604-2.425,4.218-3.416c1.533-0.94,1.652-1.999,0.957-3.503c-0.619-1.335-1.455-2.57-2.057-3.924
			c-0.834-1.866-1.449-3.517-2.484-5.271c-0.598-1.015-1.479-1.997-1.715-3.188c-0.278-1.39,0.853-1.952,1.92-2.648
			c3.645-2.39,7.275-5.058,11.271-6.873c1.528-0.694,3.184-1.15,4.637-2.01c0.668-0.394,1.296-0.894,2.008-1.211
			c1.623-0.724,2.062-0.816,3.3,0.49c1.343,1.413,2.988,2.477,4.656,3.539c2.392,1.525,4.819,2.985,7.267,4.354
			c1.575,0.886,3.271,1.782,5.115,1.609c2.905-0.269,5.58-1.549,8.354-2.359c3.811-1.111,7.675-2.178,11.661-2.41
			c7.117-0.425,13.892-0.468,20.903,1.138c6.781,1.565,13.876,1.694,20.647,2.2c5.557,0.402,10.448,0.517,15.942,0.5
			c2.895-0.018,5.412-0.096,8.205,0.236c1.647,0.214,3.271-0.248,4.898-0.417c0.77-0.075,1.385-0.089,2.075,0.194
			c1.515,0.615,11.167,2.954,9.761,5.489c-1.745-0.464-3.201-1.187-4.967-1.234c-2.146-0.057-4.242,0.337-6.321-0.255
			c-2.254-0.643-4.141-0.417-6.474-0.183c-1.039,0.103-2.119,0.032-3.164,0.051c-1.261,0.033-2.53,0.166-3.766,0.343
			c-0.624,0.094-1.201,0.081-1.823,0.122c-1.171,0.087-2.338,0.25-3.511,0.358c-0.72,0.064-1.369,0.292-2.116,0.377
			c-0.679,0.076-1.367,0.1-2.034,0.074c-0.269,0.489,0.593,1.279,0.792,1.696c0.439,0.88,0.973,1.655,1.603,2.446
			c0.685,0.877,1.59,1.504,2.382,2.287c0.722,0.722,1.508,1.429,2.235,2.124c0.339,0.309,0.672,0.845,1.108,0.966
			c0.697,0.201,1.663,0.041,2.408,0.088c1.361,0.068,2.701,0.069,4.03-0.051c1.009-0.095,2.016-0.247,3.021-0.495
			c1.798-0.432,3.598-0.632,5.425-0.79c1.04-0.086,2.122-0.192,3.165-0.145c0.579,0.024,1.157,0.062,1.729,0.11
			c0.724,0.057,1.352-0.234,2.073-0.098c0.929,0.159,1.904,0.146,2.838,0.25c3.963,0.427,9.424,1.982,12.216,4.946
			c1.932,2.067,4.036,5.343,1.847,8.012c-0.819-1.152-0.303-2.408-1.018-3.509c-0.655-1.011-2.138-1.694-3.122-2.166
			c-2.907-1.359-6.855-2.504-9.996-3.287c-1.782-0.44-3.641-0.585-5.462-0.34c-0.729,0.102-1.515,0.28-2.137,0.5
			c-0.633,0.214-1.026,0.699-1.597,1.032c-0.995,0.583-1.937,1.228-2.941,1.787c-0.387,0.21-0.819,0.372-1.158,0.618
			c-0.424,0.301-0.782,0.751-1.1,1.168C176.447,241.114,176.332,241.905,176.141,242.745z"/>
		<path d="M232.05,213.834c-0.13-0.41,0.535-2.704,0.597-3.627c0.103-1.451,0.064-2.946-0.042-4.428
			c-0.114-1.68-1.053-5.415,0.559-6.602c0.476,2.479,0.111,5.261-0.224,7.833c-0.332,2.582-0.374,5.224-0.621,7.825"/>
		<path d="M234.07,213.987c0.979-0.576,1.712-1.867,2.419-2.73c1.092-1.345,2.352-2.437,3.53-3.671
			c1.606-1.696,3.12-3.597,5.048-4.965c0.164,0.142,0.209,0.234,0.311,0.416c-1.556,1.976-3.475,3.8-5.248,5.665
			c-1.029,1.066-2.152,2.003-3.304,2.966c-1.374,1.146-2.417,2.987-3.943,3.915"/>
		<path d="M242.769,192.853c-0.672-1.435-3.173-1.24-3.702,0.571c-0.717,2.445,2.164,1.566,3.139,0.576
			c2.416-2.49,2.711-6.966,3.942-10.17c-0.316,1.31,0.12,2.715,0.427,3.933c-0.688-0.858-0.718-1.775-0.895-2.831
			c0.111-0.108,0.248-0.119,0.391-0.07"/>
		<path d="M49.947,221.319c-0.016,0.051-0.035,0.099-0.054,0.151"/>
	</g>
</g>
</svg>
