<svg xmlns="http://www.w3.org/2000/svg" viewBox="0 0 134.49 394.89"><defs><style>.cls-1{fill:#007293;}.cls-2{fill:#1d1d1b;}.cls-3{fill:#e30613;}.cls-4{fill:#fff;}.cls-5{fill:#e63027;}</style></defs><g id="Ebene_2" data-name="Ebene 2"><g id="Ebene_1-2" data-name="Ebene 1"><path class="cls-1" d="M57,342.46a6.55,6.55,0,0,1,1.62-3.87,2.77,2.77,0,0,0-.73-3.78,8.17,8.17,0,0,0-3.83-2c-.88-.14-2.89-.64-3.7-.09s-1.26,2.56-1.15,3.54c.18,1.67-.68,2.81-1.09,4.42-.29,1.13-2.21,5-1.41,6.06.92,1.27,3.46.89,4.83,1.19a16.81,16.81,0,0,0,5.93.48C58,346.67,57,344.37,57,342.46Z"/><path class="cls-2" d="M51,367.67c-1.53,4.72-1.29,9.94-3.44,14.25-4-.91-3.54-2.13-3.08-5.69.41-3.11,1-5.76,1.09-8.94a13.11,13.11,0,0,1-3.83,2.58,18.57,18.57,0,0,0-2.36.93c-1.28.75-2.34,1.95-3.68,2.73a10.63,10.63,0,0,1-7,1.25c-3.69-.49-7.61-3.81-10.53-6C14.38,365.85,10.83,363,7.18,360,4.84,358-1,354,.14,350.22c3.26-.46,3.8-1.62,7.07,0,2.4,1.21,4.64,3,6.93,4.38,4.21,2.59,8.84,7.57,14.27,4.74,2-1.06,3.84-3.23,5.6-4.68A49.81,49.81,0,0,0,41.26,348c2.43-3,3.09-7.15,7.34-8.1,3.42-.75,9.1-1.51,10.22,3,.85,3.4-.87,7.35-2.43,10.29a39.8,39.8,0,0,0-3.2,6.88C52.4,362.53,51.79,365.13,51,367.67Z"/><path class="cls-1" d="M88.21,356.15l0-.47a27.82,27.82,0,0,0,.05-2.89,4.3,4.3,0,0,0-.14-1.24,4.49,4.49,0,0,1-.1-.64,6.1,6.1,0,0,0-.14-.72,1.57,1.57,0,0,0-.56-.87,2.43,2.43,0,0,0-1-.46,8.57,8.57,0,0,0-1.51-.29c-.88-.07-1.75-.12-2.63-.12a3.59,3.59,0,0,0-1.3.18c-.1.05-.08,0-.11.13s0,.23-.06.34a17.42,17.42,0,0,0,0,1.77,11.23,11.23,0,0,0,0,1.16c0,.19,0,.38.08.56a12.28,12.28,0,0,1,0,3.73,16.1,16.1,0,0,1-.33,1.84,3.21,3.21,0,0,1-.48,1.16c2.27-.19,5,1.28,7,2.25C87,359.62,88,358.07,88.21,356.15Z"/><path class="cls-2" d="M92.63,362.7a16.82,16.82,0,0,0-.79-2.59c-1-2.42-2.69-5.63-5.65-5.81-1.59-.09-2.77,1.27-4,2.05-2.12,1.31-3.76,1.73-4.13,4.29a17.55,17.55,0,0,1-1.48,5.63c-2.08,4.12-4.08,7.87-7.8,10.75-4,3.06-7.08,7-11.62,9.22-2.74,1.35-11.53,3.47-8.45,7.75,1,1.35,1,.84,2.63.63,1.17-.16,2.42.1,3.58-.06,1-.14,2.28-.45,3.36-.64,1.77-.32,3.53-1,5.32-1.41s4-.45,5.89-.69c1.11-.14,2.21-.3,3.32-.42s2.21-.5,3.34-.73c1.66-.33,3.29-.78,5-1a10.38,10.38,0,0,0,1.76-.26,5,5,0,0,0,2.25-1.81,11.35,11.35,0,0,1,1.7-1.48c1.8-1.46,2.05-3.71,2.43-5.84.21-1.14.17-2.33.3-3.48a14.08,14.08,0,0,0,.12-1.95,1.69,1.69,0,0,1,0-.67c0-.08.28-.44.27-.49.9,5.77.36,11.62,1.19,17.43,1.61-1.34,4.19-1.57,6.22-1.67.32-1.05-.23-2.1-.54-3.09a30.06,30.06,0,0,1-1-4.91c-.49-3.74-1.74-7.38-2.24-11.13C93.32,367.84,93.2,365.2,92.63,362.7Z"/><path class="cls-1" d="M120.54,142.4c.71,1.09.61,3,.85,4.32.63,3.37,1.36,7.05,1.69,10.44.23,2.34-.66,3.08-1.85,4.9-1.44,2.22-.9,4.68-2.17,6.87a14.12,14.12,0,0,1-5.67,4.91c-2.62,1.29-6,1.87-8.74,2.7-3.06.94-6.62,2.65-9.88,2.24a98.91,98.91,0,0,1-10.71-1.52c-2.17-.52-6.76-1.49-8.33-3-2.66-2.6-.21-7.68-.79-10.85-.32-1.75-1.49-2.88-1.74-4.66-.35-2.47.27-5.25.26-7.75,0-1.24.14-2.55-.5-3.56a14.71,14.71,0,0,0,3.82.49c2.94.18,5.61-.72,8.48-1.25,4.85-.9,9.67-.68,14.56-1.1,4.46-.38,8.87-1.85,13.33-2.11a14.72,14.72,0,0,0,3.44-.5c1.06-.31,2.84.11,3.68-.54"/><path class="cls-3" d="M77.49,148.75l4-.14c2.64-.11,5.27-.44,7.92-.44a75.6,75.6,0,0,0,10.64-.5,92.34,92.34,0,0,0,9.19-1.72,29.93,29.93,0,0,1,7.07-1.11c2.1,0,4.16-.12,6.18-.25.09-.81-.75-1.75-1.09-2.47a19.34,19.34,0,0,1-.94-2.78c-.66-2.18-1.46-4.3-2.11-6.48a63.2,63.2,0,0,0-5.54-13.49c-.6-1-1.11-2.12-1.69-3.16a20.22,20.22,0,0,1-1.83-3.36c-.38-1.07.84-1.07,1.59-1.2,1.13-.21,2.23-.55,3.37-.72a12.79,12.79,0,0,0,3.22-.65c2.06-.85,4.06-1.79,6.22-2.45a9.63,9.63,0,0,1,3-.85c-.34-1.51-1.81-3-2.77-4.24a34.69,34.69,0,0,1-3.07-4.17,104.79,104.79,0,0,0-6.72-10.06c-2.75-3.65-5.77-7.19-8.34-11-2.24-3.32-4.32-6.76-6.53-10.1-1.45-2.2-3.38-4.08-4.85-6.28-.48-.72-1-2.56-1.8-2.88a9.54,9.54,0,0,0-2.72,0H87.29c-1.41,0-2.85-.1-4.26,0-1,.07-1.92.34-2.88.44a40,40,0,0,1-4.23.22,13.76,13.76,0,0,1-1.57,0c-.36,0-1-.43-1.26-.42-.73,0-1.42,1-1.8,1.58-.92,1.35-1.35,3-2.27,4.3-2,2.89-6.6,2.63-9.54,3.24a15.39,15.39,0,0,1-5.2,0c-2.54-.3-5.2-.21-7.64-1.09-.75-.27-1-1.08-1.91-.91s-.82.79-.71,1.54c.23,1.63-.32,3.11-.54,4.72-.5,3.69-1.41,7.31-2,11A112.26,112.26,0,0,0,40,101c0,4,.66,7.88.66,11.92,0,3.08.42,6.1.68,9.16.11,1.2.2,2.43.21,3.63,0,.73.27,1.35.26,2,1.64.61,3.33,1,5,1.55a19.1,19.1,0,0,0,5.51.48,32.68,32.68,0,0,0,7.41-.39c1.74-.41,2.64-.68,3.14-2.48,0,.11.65,1.44.72,1.67a15.61,15.61,0,0,0,.59,1.53,26.24,26.24,0,0,1,.69,2.78c.58,2,1.39,4,2,6s1.34,4,2.12,6c.43,1.12,1,3.82,2,4.22a7.56,7.56,0,0,0,2.68-.05C75,148.88,76.22,148.81,77.49,148.75Z"/><path class="cls-4" d="M96.42,85.44l.17,0-.22-.48C96.33,85.15,96.28,85.47,96.42,85.44Z"/><path class="cls-4" d="M53.53,67.57c-1.61-.14-3.25-.19-4.85-.48A16.62,16.62,0,0,0,48.94,77c1.37,4.73,3.6,9.33,7.34,12.65a19.73,19.73,0,0,0,6.32,3.78A29.29,29.29,0,0,0,70,95a31.37,31.37,0,0,0,15.15-2.23A23,23,0,0,0,88.35,91a27,27,0,0,0,3-2.2,17.32,17.32,0,0,0,2.37-2.62c.38-.51.76-1,1.15-1.49a4,4,0,0,0,.83-1.4,8,8,0,0,1-.34-1.25,5.71,5.71,0,0,1,0-1.75c.1-.71.2-1.42.31-2.13a40.48,40.48,0,0,0,.45-4.4,23.31,23.31,0,0,0-.19-3.64,57.76,57.76,0,0,0-1.21-6.81,21.12,21.12,0,0,0-1.56-4.53,1.49,1.49,0,0,0-.58-.55,6.77,6.77,0,0,0-2.3,0c.37.69.74,1.38,1.08,2.08,2.37,4.81,4,10.4,2.34,15.71a18,18,0,0,1-9.44,10.57C80.19,88.48,75.6,88.76,71.18,89A24.52,24.52,0,0,1,65,88.52a23.62,23.62,0,0,1-5.9-2.06c-3.34-1.7-6.49-4.38-7.73-8A10.25,10.25,0,0,1,51,73,15,15,0,0,1,53.53,67.57Z"/><path class="cls-4" d="M44,78.66c.87,0,1.76-.13,2.63-.07h.07c-.25-.74-.49-1.48-.72-2.23a1.84,1.84,0,0,1-.47.15h0a4.93,4.93,0,0,1-1.84-.16l-.84-.22c-.16.82-.33,1.64-.49,2.46l.19,0A10.41,10.41,0,0,0,44,78.66Z"/><path class="cls-4" d="M48.27,83.21c-.28-.83-.57-1.65-.86-2.47h0a.05.05,0,0,1,0,0l-.15,0a12.77,12.77,0,0,1-1.74.24c-.82.07-1.64.12-2.45.11-.17,0-.69,0-1.2-.07-.11.59-.22,1.17-.31,1.76,0,.29-.09.58-.14.87,2.33.22,4.69-.22,7-.25C48.34,83.41,48.31,83.31,48.27,83.21Z"/><path class="cls-4" d="M45.44,74.8s0,0,0,0h0c0-.19-.09-.39-.14-.58a40.28,40.28,0,0,1-1.1-8.46c-.49.27-.34.78-.25,1.38.23,1.63-.32,3.11-.54,4.72,0,.33-.09.66-.14,1l1,1A5.14,5.14,0,0,0,45.44,74.8Z"/><path class="cls-4" d="M44.57,89.94c.69-.14,1.38-.29,2.08-.37,1.38-.15,2.77-.15,4.14-.34,0,0,0-.07.07,0a.39.39,0,0,0,.15,0L50.89,89c-.12-.22-.26-.43-.4-.64a15.21,15.21,0,0,1-.86-1.65l-.15-.32a21.07,21.07,0,0,0-5.42.41c-1.05.16-2.13.32-3.2.38-.14,1.11-.27,2.23-.37,3.35.41,0,.83-.07,1.24-.12C42.68,90.3,43.63,90.13,44.57,89.94Z"/><path class="cls-4" d="M48.36,95.27a21,21,0,0,0,5.13-1q-.57-1.42-1.26-2.79a10.46,10.46,0,0,1-3.49.17,21.46,21.46,0,0,0-2.26.16L44.29,92c-1.32.12-2.64.24-4,.29-.07.85-.12,1.7-.17,2.55A68.15,68.15,0,0,0,48.36,95.27Z"/><path class="cls-4" d="M51.86,102.51c.9-.11,1.81-.23,2.71-.29a7.08,7.08,0,0,1,1,0c.11,0,.32,0,.38.15h.09c-.39-1.54-.82-3.08-1.3-4.59a7.32,7.32,0,0,1-.93.09c-.43,0-.88,0-1.31.07-3.22.28-6.41.74-9.63,1a28.05,28.05,0,0,1-2.9,0c0,.7,0,1.41,0,2.11,0,.47,0,.94,0,1.41a19,19,0,0,0,4.51.59A50.33,50.33,0,0,0,51.86,102.51Z"/><path class="cls-4" d="M40.46,108.29a.26.26,0,0,0,0,.19c.19.3.72.36,1,.41a13.55,13.55,0,0,0,2,.11c1.71,0,3.42-.13,5.11-.29,1.29-.12,2.58-.26,3.87-.43.73-.09,1.45-.21,2.17-.32q.79-.1,1.56-.24a4.11,4.11,0,0,0,1-.25c-.17-.77-.34-1.55-.52-2.32a1.27,1.27,0,0,1-.43.09c-.29.05-.58.08-.88.12-1.23.13-2.48.19-3.71.3l-4.93.46-2.48.22c-.63,0-1.27.13-1.9.12l-1.61,0-.53,0c.06.62.11,1.24.16,1.86A0,0,0,0,1,40.46,108.29Z"/><path class="cls-4" d="M58.43,113.79a.29.29,0,0,0,.16-.07c.07-.08,0-.26,0-.37l-.21-.9c0-.15-.4-1.78-.39-1.78-1.1.28-2.21.53-3.32.74a79.91,79.91,0,0,1-9.13,1.15c-1.56.11-3.13.19-4.69.23h-.17v.12c0,1.12.06,2.23.14,3.34q.34,0,.69.06c.6,0,1.2,0,1.81,0s1.27,0,1.91-.1c1.66-.13,3.31-.37,5-.63s3.2-.48,4.79-.77a14.18,14.18,0,0,0,1.92-.48c.32-.1.63-.2.94-.32.15,0,.31-.12.46-.16Z"/><path class="cls-4" d="M60.53,122.1a1.31,1.31,0,0,0,.34-.29c-.17-.5-.34-1-.5-1.52-.24-.78-.46-1.56-.68-2.34a8,8,0,0,0-3.31.81,14.81,14.81,0,0,1-1.88.63c-.7.16-1.43.28-2.14.38a39,39,0,0,1-4.57.33q-1.17,0-2.34,0a17.91,17.91,0,0,1-2.07-.08c-.55-.07-1.11-.16-1.67-.19a5.72,5.72,0,0,0-.6,0c.07.76.15,1.51.21,2.27s.13,1.5.17,2.25a9.39,9.39,0,0,0,1.18.1c1.44.06,2.87-.05,4.31-.13,1.14-.06,2.28,0,3.41-.1a34.42,34.42,0,0,0,4.87-.57c1-.2,2.07-.45,3.09-.73.5-.14,1-.3,1.5-.49.17-.07.33-.16.49-.22Z"/><path class="cls-4" d="M55.59,100a.23.23,0,0,0,.12.1s0,0,.06,0,0,0,0,0a1.67,1.67,0,0,0,1,.59c.36.11.72.21,1.07.34a23,23,0,0,0,2.9.88,30.42,30.42,0,0,0,6.31.7c1.54,0,3.06-.1,4.59-.19s3.23-.26,4.83-.5a83.69,83.69,0,0,0,9.38-2c1.46-.39,2.91-.83,4.37-1.22a42.49,42.49,0,0,0,4.13-1.22,13.91,13.91,0,0,0,2-.88c.52-.28,1-.6,1.52-.89a14.5,14.5,0,0,0,1.5-.94,3.06,3.06,0,0,0,.94-1,42.41,42.41,0,0,1-2.08-4.36v0c0,.06-.08.09-.09,0-.05-.25-.11-.49-.17-.72s-.24-.67-.35-1a1.83,1.83,0,0,1-.25-.06,0,0,0,1,1,0-.09l.19,0-.15-.47c-.09-.22-.19-.45-.29-.67a2.69,2.69,0,0,1-.27.83,8.09,8.09,0,0,1-2.09,2.39,28.31,28.31,0,0,1-2.5,1.85,77.17,77.17,0,0,1-7.11,4.48,41,41,0,0,1-7.81,3.25,26.59,26.59,0,0,1-8.44,1.23,22.56,22.56,0,0,1-7.83-1.87A68.08,68.08,0,0,1,53.92,95c.33.87.63,1.74.92,2.62l.08,0a0,0,0,1,1,0,.09l-.07,0,.09.3c.21.65.4,1.31.59,2Z"/><path class="cls-4" d="M58.71,113.65a.43.43,0,0,0,0,.07c.07.09.23.09.33.11a9.23,9.23,0,0,0,1.15.2c6.43.94,12.86,0,19.22-1a59.34,59.34,0,0,0,16.68-4.81,39.5,39.5,0,0,0,5.27-3.06,15.09,15.09,0,0,0,2.35-1.93,3.49,3.49,0,0,0,1-1.61c-.21-.46-.44-.9-.69-1.33a.05.05,0,0,1,0-.09c-.23-.38-.46-.75-.68-1.13-.5-.84-1-1.67-1.5-2.52a5.43,5.43,0,0,1-1.49,1.25c-.72.48-1.48.9-2.21,1.37q-2.59,1.66-5.33,3.11a77,77,0,0,1-16.57,6.45,58.26,58.26,0,0,1-8.88,1.62,66.85,66.85,0,0,1-9.28.19.06.06,0,0,1,0,.09h0c.12.57.25,1.14.38,1.71.06.29.13.58.19.86A2.36,2.36,0,0,0,58.71,113.65Z"/><path class="cls-4" d="M70.58,127.16a69.12,69.12,0,0,0,7.81-1.68c2.74-.72,5.47-1.47,8.21-2.17s5.68-1.5,8.45-2.46a56.9,56.9,0,0,0,8.11-3.48,27.45,27.45,0,0,0,3.54-2.13,9.9,9.9,0,0,0,2.48-2.76s0,0,0,0L109,112c-.21-.38-.41-.77-.6-1.16h0s0,0,0-.08c-.59-1.24-1.07-2.54-1.55-3.82l-.75-2a12.87,12.87,0,0,1-1.48,1.38,36.83,36.83,0,0,1-6.45,3.91c-2.3,1.18-4.56,2.43-6.79,3.73-4.94,2.86-9.88,6-15.39,7.61a28.37,28.37,0,0,1-8.24,1.19,37.35,37.35,0,0,1-4.36-.24c-.67-.07-1.34-.16-2-.27l-.21,0a42.09,42.09,0,0,0,2.19,5.18A26.9,26.9,0,0,0,70.58,127.16Z"/><path class="cls-4" d="M66.13,136.59c.8.06,1.61,0,2.4.06,1.75,0,3.5-.06,5.24-.18a90.59,90.59,0,0,0,10.48-1.4,131.31,131.31,0,0,0,19.64-4.95q2.43-.85,4.79-1.86c1.32-.57,2.6-1.2,3.9-1.79,1-.47,2-.92,3-1.48a52.21,52.21,0,0,0-2.76-5.62c-.6-1-1.11-2.12-1.69-3.16h0a26,26,0,0,1-3.62,4.15A39.81,39.81,0,0,1,94.94,128a61.62,61.62,0,0,1-14.68,3.75,70.89,70.89,0,0,1-9.21.62c-1.33,0-2.65-.05-4-.13a12.31,12.31,0,0,1-2.4-.3,8.3,8.3,0,0,0,.22,1C65.25,134.12,65.7,135.35,66.13,136.59Z"/><path class="cls-4" d="M70.55,144.17a54,54,0,0,0,6,.16c3.88-.08,7.79-.35,11.66-.7a117.54,117.54,0,0,0,23.67-4.45c1.72-.52,3.42-1.1,5.13-1.67.87-.29,1.75-.59,2.62-.91-.42-1.24-.85-2.48-1.22-3.74-.21-.7-.42-1.39-.64-2.08-1.46.62-2.92,1.21-4.4,1.78q-4.83,1.83-9.8,3.33a171.81,171.81,0,0,1-19.78,4.71,71.71,71.71,0,0,1-8.13,1.18,15.58,15.58,0,0,1-7.87-1.17h-.32c.38,1.13.79,2.24,1.22,3.36C69.29,144.05,69.92,144.12,70.55,144.17Z"/><path class="cls-4" d="M101.93,71.6c0,.9-.14,1.8-.27,2.7a32.66,32.66,0,0,1-1.12,5.08,17.23,17.23,0,0,1-1.82,4.2,4.44,4.44,0,0,1-2,1.87l.15.33.2.44a0,0,0,0,1,.07,0v.11l.21.49a.05.05,0,0,1,0,0l.09.31c.08.18.14.36.21.53,3.26.59,5.31-2.95,6.27-5.53a19.32,19.32,0,0,0,1.14-5c0-.19,0-.38,0-.57C104.06,75,103,73.28,101.93,71.6Z"/><path class="cls-4" d="M109.25,82.28a21,21,0,0,1-1.91,4.07,19.89,19.89,0,0,1-2.9,3.86,6.28,6.28,0,0,1-3,1.94A2.29,2.29,0,0,1,99,91.08c.08.19.17.38.26.56.34.71.7,1.4,1.06,2.08l0-.06a0,0,0,1,1,.09,0,.75.75,0,0,1,0,.16c.34.63.69,1.25,1,1.87h.11a.06.06,0,0,1,.06,0l.06,0h0a.05.05,0,0,1,0,0,3.57,3.57,0,0,0,3.15-.2,8.65,8.65,0,0,0,2.76-2.66A26.38,26.38,0,0,0,110.35,88c.41-.94.78-1.88,1.13-2.84Z"/><path class="cls-4" d="M114.42,88.93c-.14.16-.27.34-.4.51-.5.7-1,1.43-1.41,2.15-1,1.7-2.06,3.43-3.24,5a7,7,0,0,1-1.54,1.71,8.45,8.45,0,0,1-3.42,1.87,0,0,0,0,1-.06,0l-.2.08c.22.39.43.77.62,1.17a1,1,0,0,0,0-.17.05.05,0,0,1,.1,0,1.36,1.36,0,0,1,0,.35c.05.12.11.24.15.36.34.8.65,1.62,1,2.44,0,.09.07.18.1.27a3.31,3.31,0,0,1,.1-.32c0-.06.13,0,.1,0a.78.78,0,0,0,0,.14l.08-.1s.11,0,.07.07a4.14,4.14,0,0,1,.58-.53,14.69,14.69,0,0,0,1.53-1.31c1.9-1.74,3.63-3.63,5.47-5.42a27.5,27.5,0,0,1,4-3.4C116.78,92.18,115.62,90.53,114.42,88.93Z"/><path class="cls-4" d="M120.83,98.57l-.47-.78-.69.46a71.24,71.24,0,0,0-6.39,4.82,36.2,36.2,0,0,0-5.43,5.57,0,0,0,0,1-.06,0,1.42,1.42,0,0,0-.08.18.05.05,0,0,1-.08,0c.17.4.33.79.5,1.18.1.23.2.46.31.69a1.62,1.62,0,0,0,.39-.21l.44-.27s.1.06,0,.09l0,0a3.94,3.94,0,0,0,2.56-.69,23.81,23.81,0,0,0,2.42-1.69,9.82,9.82,0,0,1,1.26-.88l2.14-1.12c1.43-.77,2.86-1.54,4.28-2.33l1.88-1A33.47,33.47,0,0,1,120.83,98.57Z"/><path class="cls-4" d="M56,68.21a.09.09,0,0,1,0,.05l-.15.15c-.09.12-.19.23-.29.35a6.6,6.6,0,0,0-.94,5.62,10.56,10.56,0,0,0,3.27,5.51,14.33,14.33,0,0,0,5.94,2.89,28.35,28.35,0,0,0,7,.8A45.45,45.45,0,0,0,77.31,83a16.76,16.76,0,0,0,6.4-2.48,16.49,16.49,0,0,0,5.15-5,11.58,11.58,0,0,0,1.42-3.17,11.42,11.42,0,0,0,.24-3.73A16.33,16.33,0,0,0,88.1,61a17.14,17.14,0,0,0-2.31-2.78c-.92,0-1.85,0-2.76,0s-1.92.34-2.88.44a40,40,0,0,1-4.23.22,13.76,13.76,0,0,1-1.57,0c-.36,0-1-.43-1.26-.42-.73,0-1.42,1-1.8,1.58-.92,1.35-1.35,3-2.27,4.3-2,2.89-6.6,2.63-9.54,3.24a11.26,11.26,0,0,1-3.2.17Z"/><path class="cls-1" d="M34.19,93.6c-.11-.36-.21-.73-.29-1.1a17.58,17.58,0,0,1-.32-2.16,6.59,6.59,0,0,1,0-1.66,2,2,0,0,1,.73-1.25c.28-.19.78-.47,1.13-.34s.24.37.32.56.2.53.29.8.24.7.37,1a4.65,4.65,0,0,1,.28,1,6.67,6.67,0,0,0,.16,1A10.45,10.45,0,0,1,37,92.78a21.87,21.87,0,0,0,.36,2.27c.14.61.28,1.2.47,1.81s.43,1.18.68,1.77.57,1.47.93,2.16c.2,0,.24-1.21.26-1.38.06-.7.09-1.4.18-2.09a18.58,18.58,0,0,0,0-2.36c0-.77,0-1.53-.09-2.3,0-.6-.09-1.2-.09-1.8v-.81a6.11,6.11,0,0,1,.09-.86c.06-.51,0-1,.13-1.51a12.44,12.44,0,0,1,.28-1.35,4,4,0,0,1,.61-1.47c.25-.3.93-.54,1.25-.25a3,3,0,0,1,.4.69,3.21,3.21,0,0,1,.45,1,20,20,0,0,1,.19,2.32c.15,1.79,0,3.65,0,5.45,0,1.22-.44,8.32,2,6.87a1.29,1.29,0,0,0,.63-.92,3.87,3.87,0,0,1,.59-1.14A6.13,6.13,0,0,1,48.12,97a2.41,2.41,0,0,1,1.72-.57c.53.05.41.45.29.8a5.66,5.66,0,0,1-.56,1.13A3.46,3.46,0,0,0,49,100a6.49,6.49,0,0,0,.43,1.95,3.34,3.34,0,0,0,.69,1.32c.73.71,1.72-.17,2.29-.66.74-.63,1.56-1.23,2.42-.41a3.53,3.53,0,0,1,1.08,2.18c.17,1.48.06,3.44-1,4.49-2.12,2.07-1.65-1.84-1.79-3a1,1,0,0,0-.68,0,19.73,19.73,0,0,0-.68,3.17c-.2,2,1.11,3.91,1.42,5.87a11.69,11.69,0,0,0,2.21,5c.5.75.9,1.57,1.44,2.31,1,1.38,1.83,3,2.7,4.44,1.63,2.76,4.58,7.88,1.8,10.79-.87.91-2,1.2-3,1.88-.8.54-1.3,1.27-2.31,1.37-1.65.16-2.9-1-4-2.06-1.67-1.67-2.23-4-2.84-6.18s-1.59-4.19-2.27-6.32a41.35,41.35,0,0,0-2.11-5.69c-.71-1.44-1.12-3.08-2.11-4.35-.37-.47-.73-1-1.09-1.42a13.61,13.61,0,0,1-1.09-1.44,4.6,4.6,0,0,0-1-1,8.91,8.91,0,0,0-1.24-1.06c-.37-.24-.7-.54-1-.81s-.69-.33-1-.53c-.48-.32-.91-.7-1.38-1-.29-.2-.63-.32-.92-.53a3.79,3.79,0,0,1-.4-.3,1.1,1.1,0,0,0-.34-.3,4.81,4.81,0,0,0-1.47-.15,7.59,7.59,0,0,0-1.71.1l-1.09.08a2.34,2.34,0,0,1-.95,0,1.37,1.37,0,0,1-.66-2.15,5.39,5.39,0,0,1,1.33-.93,5.78,5.78,0,0,1,1.88-.57,12.55,12.55,0,0,1,3.87,0c.43.06.86,0,1.29.08s.89.08.92-.41a4.09,4.09,0,0,0-.22-1.34c-.19-.69-.57-1.32-.73-2-.11-.47-.23-.93-.34-1.38S35.11,98,35,97.41c-.12-.73-.2-1.45-.37-2.17C34.52,94.68,34.35,94.14,34.19,93.6Z"/><path class="cls-1" d="M77.27,104.82a6.77,6.77,0,0,1,1.81.55,18.52,18.52,0,0,0,4.74,1.19c2.73.4,5,2.38,7.57,3.38a107.25,107.25,0,0,1,11,4.75c1.16.62,2.34,1.11,3.56,1.62,1.59.67,3.16,1.21,4.72,2,2.83,1.44,5.83,2.61,8.76,3.81,2.27.92,4.35,2.18,6.68,2.95,1.61.54,3.4,1.38,5.14,1.25,1.31-.1,3.33-1.13,3.28-2.72,0-.64-.42-1.2-.43-1.88a6.59,6.59,0,0,0-.4-2,10.87,10.87,0,0,0-1.95-4.2c-1.69-2-3.64-3.57-5.49-5.34a20.2,20.2,0,0,1-2.2-2.91,23.8,23.8,0,0,1-2.42-3.73,5.61,5.61,0,0,0-2.81-3,11.1,11.1,0,0,0-9.74.19,7,7,0,0,0,.82,2.77c.44.9,1.13,1.72,1.61,2.59s.75,1.6,1.1,2.41.85,1.41,1.07,2.13c-1.29-.26-2.74-1.37-4-1.88a51.64,51.64,0,0,1-5.77-2.87c-2.77-1.51-5.67-2.75-8.59-4-2-.85-3.88-1.61-5.89-2.28-2.17-.73-4.15-1.89-6.39-2.51-1.75-.48-3.41-.67-5.16-1a23.52,23.52,0,0,0-2.63-.4c-3.23-.25-6.22-1.7-9.43-2-.87-.1-1.69-.05-2.56-.18s-1.63-.15-2.44-.26a8.44,8.44,0,0,0-4.17.56,17.64,17.64,0,0,1-2,.49,21.9,21.9,0,0,0-2.43.75c-1.27.43-3,.39-4,1.35-.24.22-.45.36-.27.75s.34.2.73.29a5,5,0,0,0,1.95-.11,39.72,39.72,0,0,1,4.5,0,40.6,40.6,0,0,1,4.81,0,9.49,9.49,0,0,0,1.6.11,12.62,12.62,0,0,1-2.33.94c-.13.29-.35,1-.15,1.29s1.07.32,1.48.33c1.81,0-.09,1-.13,1.73s1,.62,1.2,1.39a2.92,2.92,0,0,0,1.08,2.11,3.35,3.35,0,0,0,3.42.47,32.83,32.83,0,0,1,4.9-1A21.74,21.74,0,0,1,77.27,104.82Z"/><path class="cls-1" d="M52.45,69.12c-2.29.43-4.17-1.13-5.91-2.44a6.66,6.66,0,0,1-2.35-5c-.07-1,.53-2,0-2.95-.33-.52-.78-1.2-1.13-1.66s0-.43-.57-.44c-.37,0-.89.45-1.24.58A2.4,2.4,0,0,1,38.15,56c-.91-1.31-.17-1.74.49-2.89.18-.3.32-.62.5-.91s.42-.65.62-1,.42-.62.63-.93A8.36,8.36,0,0,0,41,49.18c.06-.12.13-.25.18-.37s.06-.14-.08-.27c-.52-.49-1.09-.91-1.62-1.37A5,5,0,0,1,38.44,46c-.57-.95,0-2,.33-2.91l.12-.36a11.27,11.27,0,0,0,.2-3.28c0-.94.43-1.73.46-2.66a6.43,6.43,0,0,1,.09-1.91,13.54,13.54,0,0,1,1.55-2.81c.55-.89,1-1.82,1.63-2.65a8.87,8.87,0,0,1,3.83-2.54A15.61,15.61,0,0,1,50,26.09l.64-.08a9.3,9.3,0,0,1,3.82.32,13.22,13.22,0,0,1,3.93,2.53,34.19,34.19,0,0,1,6,5.9A27.64,27.64,0,0,1,69,45a37.82,37.82,0,0,1,.6,5,24.24,24.24,0,0,0,.72,4.14,6.11,6.11,0,0,0,1.93,3.13c.41.35.83.69,1.24,1a6.51,6.51,0,0,0,2,.89,4.39,4.39,0,0,0,1.56.28,16,16,0,0,1,2.18.15,11,11,0,0,0,1.63.2c.71,0,1.43,0,2.14,0a13.43,13.43,0,0,1,3.83.76c.64.21,1.73.34,2,1.08a4.77,4.77,0,0,1,0,1.51,11.92,11.92,0,0,0,0,2.07,8,8,0,0,1-1.13,4.31c-.51.91-1.12,1.77-1.67,2.67a17.14,17.14,0,0,1-2.59,2.51,13.67,13.67,0,0,1-4.67,3,14.63,14.63,0,0,1-5,1c-2.84,0-5.62,1-8.5.44A8.29,8.29,0,0,1,62,77.44,9.08,9.08,0,0,0,61,76.76a11.89,11.89,0,0,1-1.27-.68A6.83,6.83,0,0,1,57.78,74,8.83,8.83,0,0,1,57,72.54c-.17-.49.16-.88.29-1.36a4.87,4.87,0,0,0,.19-1.37c0-.57-.2-.64-.68-.84-.65-.26-1.57-.71-2.26-.39A9.23,9.23,0,0,1,52.45,69.12Z"/><path class="cls-2" d="M47.47,45.24c.29.24.87-.78,1-1s.5-.55.76-.82.33-.47.53-.68a3.92,3.92,0,0,1,4.41-1.06,8,8,0,0,1,2.48,2.83,20.4,20.4,0,0,0-2.73-.77,5.09,5.09,0,0,0-2.59.41c-1.61.63-3.41,1.12-4.06,3a1.47,1.47,0,0,1-1.54-.73.52.52,0,0,1,.3,0c-.32-.29-.77-.31-.69-.78A.7.7,0,0,1,46,46,1.34,1.34,0,0,1,46,45a.72.72,0,0,1,.54.56c-.45-.21-.44-.89-.34-1.35a.26.26,0,0,1,.33,0,2.71,2.71,0,0,1,0,.9,15.91,15.91,0,0,0,3-2.38,13.62,13.62,0,0,1,2.3-1.28A9,9,0,0,1,53,40.77c.65-.18.7.11,1.28.51a10.62,10.62,0,0,0,1.32.81,3,3,0,0,1,1,.85c.17.21.64.66.31.83s-.89-.13-1.21-.24a6.65,6.65,0,0,0-2.24-.18,7.58,7.58,0,0,0-2.95.76,15.47,15.47,0,0,0-2.08,1c-.3.19-.78.34-.81.76"/><path class="cls-2" d="M52.3,50.14a7.15,7.15,0,0,0,3-2c0,.93,0,1.88,0,2.81a3.41,3.41,0,0,0-.86-1.09c0,.83-.42,1.54-.43,2.36-.32-.54-.4-2.27-1.69-1.73A1.6,1.6,0,0,1,52,51.83c-.07-.46-.23-.89-.34-1.35-.93-.4-1.49.79-2.07,1.35.11-.34-.06-.74,0-1.06a1.23,1.23,0,0,0-1.47.45,2.13,2.13,0,0,1,.18-1.34c.06-.11.09-.08.2-.11C49.76,49.39,51,50.43,52.3,50.14Z"/><path class="cls-5" d="M49.57,61.38c-.55-.29-.88-1-1.49-1.14-.25-.06-1-.1-1,.27s.29.42.42.54a4.36,4.36,0,0,1,.63.66c.3.44.53,1,1,1.27.76.39,3.39-.38,3.11-1.5a1.2,1.2,0,0,0-1.39-.88,1.14,1.14,0,0,1-.79-.05c-.22-.11-.4-.28-.63-.38a1.22,1.22,0,0,0-.27-.09H49a1.36,1.36,0,0,0-.2,0c-.09,0-.15.06-.23.06l-.1,0s-.07,0-.08,0,.21.15.25.17a1,1,0,0,1,.27.19c.21.19.34.43.53.63a1.12,1.12,0,0,0,.58.3c.06,0,.45,0,.37.18s-.24.09-.34,0S49.72,61.46,49.57,61.38Z"/><path class="cls-2" d="M46.65,60.49c.3,0,.58.72.86.85,0-.25,0-.52.07-.78.07-.51.29-.15.47.07s.43.57.63.39,0-.55,0-.71a1.5,1.5,0,0,0,1.33.7c.09-.3-.25-.58-.3-.86a3,3,0,0,0,1,.58,2.55,2.55,0,0,0,1.32.27,6.94,6.94,0,0,1-.77-1c.17,0,.46.21.63.28a5.92,5.92,0,0,0,1.43.38,2,2,0,0,0,.81.07c.26-.07.16-.2.18-.46a.83.83,0,0,1,.68.18,3.24,3.24,0,0,0-.76-1.1,1.27,1.27,0,0,0,1.14.5c.19-.53-.89-.64-1.06-.91.31,0,.9-.08.8-.53,0,.58-2.67.38-3,.38a26.14,26.14,0,0,1-4.6-.53,11.94,11.94,0,0,0-1.8-.07,3.73,3.73,0,0,1-1.29,0,2.28,2.28,0,0,1-1.09-.76,4,4,0,0,0-.65-.88,2.19,2.19,0,0,1-.61.73c-.18.13-.35.27-.52.41a1.43,1.43,0,0,0-.26.23c.21.17.64.13.9.17,0,.14-.24.38-.33.5a1.32,1.32,0,0,0-.26.61c.13,0,.29-.13.41-.18a1.51,1.51,0,0,1,.83-.18,3.93,3.93,0,0,0-.28.58c-.17.24-.4.42-.56.66a2.29,2.29,0,0,0,.64,0c.15,0,.3-.14.44-.15a8.38,8.38,0,0,1,.07,1c.19,0,.38-.54.51-.69s.32-.49.53-.55a1,1,0,0,0,.19.53c.14.27.25.54.38.82.15,0,.26-.45.35-.58l.37-.56s.29.66.3.72,0,.52.19.64S46.21,60.43,46.65,60.49Z"/><path class="cls-2" d="M38.24,44.2c0-.27.29-.61.41-.83a8.49,8.49,0,0,1,.85-1.21,3.9,3.9,0,0,1,.68-.6c.37-.27.48-.66.73-1,.1-.13.21-.24.3-.38s.17-.31.26-.24.11.27.16.35a4.85,4.85,0,0,1,.45,1,1.66,1.66,0,0,1,.1.54c0,.18,0,.36,0,.55a3.22,3.22,0,0,1-.08.76c0,.17-.11.33-.14.5-.16,0-.15-.57-.19-.7s-.12-.34-.25-.38-.21,0-.3.08a2.55,2.55,0,0,0-.78.46c-.23.25-.38.56-.6.82-.41.49-1,.79-1.39,1.26a.69.69,0,0,0-.09.95A1.62,1.62,0,0,1,37.91,45c0-.67.53-1,.93-1.52"/><path class="cls-2" d="M41.42,47.15a1.84,1.84,0,0,0-.7,0,2.61,2.61,0,0,1-1.38-.68c0,.15.25.33.36.44a.71.71,0,0,1-.3,0c-.08.2.18.3.29.41-.16,0-.34,0-.52,0a2.92,2.92,0,0,0,.4.29s0,0,0,.07.33-.15.5-.18a1.77,1.77,0,0,1,.65.1c.42.1.88.08,1.33.14,0,.14-.3.33-.4.46s-.2.24-.3.36-.82.78-.46,1,.34-.42.47-.61c.25-.35.67-.56.87-.94.1-.17.17-.37,0-.46s-.21,0-.3-.06S41.57,47.2,41.42,47.15Z"/><path class="cls-4" d="M39.9,47.38c.1.1,0,.6,0,.79a1.81,1.81,0,0,0,.45.65c.16.15.36.27.55.09s.16-.26.26-.36a2.85,2.85,0,0,1,.26-.23,3.29,3.29,0,0,0,.52-.46c.16-.24-.15-.39-.38-.48a2.53,2.53,0,0,0-.87-.09c-.16,0-.71-.07-.79.05"/><path class="cls-2" d="M40.15,47.79l0,0s0,0,0-.07a1.2,1.2,0,0,0,.49,1.19.81.81,0,0,0,1.15-.23c.16-.33.22-.83-.17-1a3,3,0,0,0-1.29-.09"/><path class="cls-5" d="M49.86,60.45a.88.88,0,0,0,.45.17.93.93,0,0,0,.44,0c.38-.16.79-.47,1.23-.33a1.09,1.09,0,0,1,.68,1c0,.12,0,.24,0,.36a.87.87,0,0,1-.16.37,1.38,1.38,0,0,1-.27.27,2.42,2.42,0,0,1-.42.29c-.1,0-.22,0-.32.06l-.32.07a.67.67,0,0,1-.31,0l-.12-.05a.6.6,0,0,1-.11-.06c-.08-.08,0-.17,0-.26a1.35,1.35,0,0,0,.14-.63,1.83,1.83,0,0,0-.08-.61.79.79,0,0,0-.23-.32c-.07-.06-.18-.06-.25-.15"/><path class="cls-1" d="M65.09,44c1.18-.75-.7-3.66,1.31-4.69a6,6,0,0,1,3.32-.39c.7.2.89.93,1,1.6a10,10,0,0,1-.6,5.24,4.13,4.13,0,0,1-1.33,2,6.89,6.89,0,0,0-.94.66c-.24.23-.34.57-.63.79a2.42,2.42,0,0,0,.09-3.26c-.92-.92-2.93-1-1.61-2.82"/><path class="cls-2" d="M38.91,38.78C38.25,36,37.49,32.65,39,30c.85-1.51,2.36-2.34,3.53-3.51,1.46-1.45,2.6-3.13,4.48-4,3.69-1.72,8.93-1.64,13-1.3,4.77.42,6.64,4.17,9.18,7.71.5.7,1,1.4,1.43,2.12a15,15,0,0,1,1.08,1.64,13.55,13.55,0,0,1,.66,1.81c.4,1.24.7,2.55,1.1,3.8.19.59,0,1,.76,1.05a5.45,5.45,0,0,1,2.41.55c.62.37,1.39,1.32,1,2.12-.28.61-1.3.48-1.59,1a2.45,2.45,0,0,1,1.16,1.24,2.29,2.29,0,0,1-.88,2.5,12.41,12.41,0,0,1,.92,1.82c.1.44.4,2.14-.51,2A2.45,2.45,0,0,1,77.25,53a3,3,0,0,1-1.32,1.92,3.55,3.55,0,0,1-1.06.2c0,2.08-2.84,2.06-4.2,1.29-.88-.5-1.32-.83-1.36-1.9a10.89,10.89,0,0,0-.43-2,10.24,10.24,0,0,1,.79-5.74c.7-1.68,1.74-4.43.2-6a2.15,2.15,0,0,0-3.8,1.67c-.89-.69-2.38-.32-3.46-.83a20,20,0,0,0-.94-4.67c-7.4-1.09-14.93-.48-22.53-.9.77.08.32.45.57.83"/><path class="cls-2" d="M38.17,29.69a6.57,6.57,0,0,1-2.41-.82,18.93,18.93,0,0,1-4.83-2.5,17.32,17.32,0,0,1-5.62-7.57C24,15.12,22.7,11.49,23.82,7.52c.8-2.87,2.83-5.86,5.72-6.92C33-.66,35.67.22,38.82,1.74A35.41,35.41,0,0,1,48,7.7a14.84,14.84,0,0,1,4,6.53c.7,2.3,1,5.15,1.79,7.25,1.08-2.77,7.42-1.18,9.27-.23,0-2.75,1.89-5.54,3.21-7.88,2-3.59,6-7.43,9.82-8.85A26.35,26.35,0,0,1,88.08,3c3.92.5,6.7,3.71,8,7.22,3.26,8.6,1.08,18-5,24.88-3.66,4.09-9,4.54-13.94,6.32-4.16,1.51-7.43.78-11.34-.71.14-.32.32-.17.63-.21"/><path class="cls-2" d="M95.86,204.45c-1.15,4.12-1,9-1.46,13.14-.48,4.59-.79,8.76-1.63,13.31-1.59,8.65-6.32,16-8.65,24.35-.34,1.21-2.92,16.89-3.1,16.87-2.25-.2-5.33,10.48-6.53,12.53-3.13,5.38-6.62,10.55-9.27,16.18a100.22,100.22,0,0,1-5.51,10.46,79,79,0,0,0-5.45,9.41,91.51,91.51,0,0,1-5.41,9.35,12.58,12.58,0,0,0-1,1.75c-.26.62-.58,1.22-.83,1.85a8.32,8.32,0,0,1-.48,1.29c-.14.24-.53.6-.45.9a2.15,2.15,0,0,1,.71.11c.33.14.67.28,1,.39a4.23,4.23,0,0,1,1.43.74c.35-.69.49-1.48,1.25-1.84s2,0,2.9-.05c.65,0,1.29.06,2,.06a10.48,10.48,0,0,1,1.48.07.86.86,0,0,1,.67.4,5,5,0,0,1,.24,1.32c.11.74.2,1.48.3,2.19.05.37,0,.45.35.53a4.46,4.46,0,0,1,.78.26c.19.08.51.2.71.07a3.44,3.44,0,0,0,.62-1,41.61,41.61,0,0,1,2.29-3.57A19.18,19.18,0,0,0,65.49,331c.18-.49.29-1,.44-1.5a7,7,0,0,1,.86-1.73c1-1.45,2-2.87,2.84-4.4,3.56-6.51,6-13.3,10.25-19.49s8-12.84,12-19.32a53.91,53.91,0,0,0,5.88-13.34c2.07-6.57,5.82-12.75,8.54-19.08,2.87-6.67,5.53-13.44,8-20.26a95.2,95.2,0,0,0,5-18.43c.61-4.27,2.11-8.37,2.7-12.62,1-7.44,2-15,2.33-22.55.25-5.3.89-10.66.56-16-.37-6.06-.9-10.52-3.86-15.78"/><path class="cls-2" d="M91,271.78c0-11.17.33-22.34.47-33.51.07-5.93-2.68-21.17,5.55-23.26a12.39,12.39,0,0,1,4.38-.15c1.42.28,2.43,1.62,3.74,1.6-.08-2.14,1.07-4.17,1.6-6.25.87-3.44.38-6.81,1.64-10.11,2.14-5.61,3.2-11.71,4.93-17.53,1.07-3.6,2-7.25,2.89-10.9a49,49,0,0,1,4-9.85,11.08,11.08,0,0,1,2-3.06,8.64,8.64,0,0,1,3.06-1.57,6.45,6.45,0,0,1-.55-2.49,28.91,28.91,0,0,0-.52-4.33,17.26,17.26,0,0,1-.45-2.76c0-.47,0-1.18-.39-1.48-.25-.18-.69-.14-1-.26s-.71-.51-1.1-.37a10.84,10.84,0,0,1-.69,1.79c-.2.62-.39,1.21-.62,1.82a24.77,24.77,0,0,0-1.24,3.47,8.67,8.67,0,0,0-1.52.48,9.92,9.92,0,0,1-1.55.14,23.26,23.26,0,0,0-4.89,1.19,29.57,29.57,0,0,1-7.15,1c-1.67.12-3.32.25-5,.44s-3.55.18-5.33.32a56,56,0,0,1-11.35-.35c-1.26-.16-2.48-.48-3.74-.63a11.08,11.08,0,0,1-3.25-.49,3.24,3.24,0,0,1-1.08-.7c-.24-.33-.16-.72-.31-1.09-.32-.78-1.31-.63-2.08-.53a22.65,22.65,0,0,0-1,3.33c-.06.75,0,1.53,0,2.28s-.43,1.94,0,2.52,1.28.64,1.72,1c.74.57.56,1.35.56,2.24a32.88,32.88,0,0,0,.1,4.44,12.61,12.61,0,0,0,.66,2.24,10.17,10.17,0,0,1,.15,2.65c.06,1.56.13,3.13.21,4.69.48,9.24,1.3,18.47,1.3,27.72,0,21.77.55,43.63.55,65.46,0,10.28,1.13,20.3,1.09,30.55,0,6.74,1.09,13.36,1.1,20.07,0,5.16.54,10.25.54,15.5,0,2.19,0,4.37,0,6.55s-.87,3.94-.46,5.94a66.55,66.55,0,0,1,7.7,1c2.35.58,4.63,1.22,6.92,1.57.49-4.16.08-8.71.08-12.93,0-6.09.55-12,.55-18.07,0-6.77-.57-13.44-.55-20.19C92.62,291.16,90.92,281.51,91,271.78Z"/></g></g></svg>