<svg xmlns="http://www.w3.org/2000/svg" viewBox="0 0 244.34 89.64"><defs><style>.cls-1{fill:#1d1d1b;}.cls-2{fill:#007293;}.cls-3{fill:#e30613;}.cls-4{fill:#fff;}.cls-5{fill:#e63027;}</style></defs><g id="Ebene_2" data-name="Ebene 2"><g id="Ebene_1-2" data-name="Ebene 1"><path class="cls-1" d="M193,5.56c.13-.89-.79-3.06-1.27-4.2-.68-1.61-1.18-1.57-2.78-1a10.46,10.46,0,0,1,1.31,2.79A23.59,23.59,0,0,1,191.32,6c.5.24.84-.36,1.42-.2"/><path class="cls-2" d="M91.3,45.26a25.33,25.33,0,0,1,12.15,1.87,55.28,55.28,0,0,1,5.85,3c4.83,3,9.9,6.45,12.36,11.77,1,2.3,2.29,5.63,1.16,8.11a3.19,3.19,0,0,1-3.12,1.94c-1.87,0-3.7.4-5.58.56a16.65,16.65,0,0,1-4.83-.31c-2.13-.46-4.3-.56-6.44-.93-3-.52-6-.81-9-1.22s-6-1.36-9-1.83a23.58,23.58,0,0,0-5.31.21c-2.94.19-5.4-.66-8.13-1.61a3.16,3.16,0,0,0-2.17-.11c-.84.29-1.52,1-2.43,1.17a10.75,10.75,0,0,1-3.2,0A11.64,11.64,0,0,1,59.21,66a9.18,9.18,0,0,0-4.59-.77c-3.62.11-7.55-.73-11.23-.76-1.44,0-2.85-.25-4.25-.15a25.3,25.3,0,0,1-2.75-.06c-4-.17-8-.76-12-.73-2.34,0-4.65-.53-7-.49-1.94,0-4.39.09-6.11,1.08C9.83,65,8.91,66.42,7.43,67.2a3.79,3.79,0,0,0-1.62,1.4c-.55.82-.34,1.43-.63,2.32-.54,1.66-3,2.52-3.45.3a5.86,5.86,0,0,1,.42-2.76c.2-.33.9-.57.76-.95s-.67-.34-1-.32c-.56,0-.56.56-1.13.12a.84.84,0,0,1-.29-1c.12-.3.49-.43.78-.51a1.19,1.19,0,0,0,.51-.17c.1-.08.29-.23.14-.35s-.37,0-.5,0a1.7,1.7,0,0,1-.63.07c-.17,0-.32-.12-.49-.16a.31.31,0,0,1-.18-.55A1.52,1.52,0,0,1,1,64.28a.89.89,0,0,1-.82-.15A1.34,1.34,0,0,1,0,63c0-.36,0-.93.36-1.15A4.14,4.14,0,0,0,1.21,61l.32-.46A1.29,1.29,0,0,1,2,60.18a2,2,0,0,1,.67-.29l.82-.11a5.52,5.52,0,0,0,3.75-2.07,8.26,8.26,0,0,0,2.06-3.78A3.53,3.53,0,0,1,12.78,51c2,.09,3.56,1.68,5.43,2.29,3.11,1,6.62-.62,9.38-1.88,2.33-1.06,5-1.62,7.46-2.49,5.7-2,11.49-1.34,17.29.09,1.36.34,2.65.78,4,1.14,1.53.4,3.08.55,4.61.87.72.16,2.13.7,3,.48.36-.1.65-.56,1-.78a12.58,12.58,0,0,1,1.84-1.07,31.69,31.69,0,0,1,7.46-2.92,40,40,0,0,1,4.9-.87c1.5-.1,3.05,0,4.51-.19C86.17,45.4,88.74,45.45,91.3,45.26Z"/><path class="cls-3" d="M155.32,37.6c-1.09.12-2.92,1.6-3.92,2.19a28.9,28.9,0,0,0-5.13,3.29c-1.46,1.35-3,1.15-4.82.88-1.06-.15-3.08.12-4-.34a9.55,9.55,0,0,1-1.85-1.91,14.16,14.16,0,0,0-2.13-2.25c-4.92-3.89-9.91-8-16.06-9.6a25.85,25.85,0,0,0-3-.68,7.4,7.4,0,0,0-3.19.49c-1,.26-2,.65-3,.87a7,7,0,0,0-1.69.34c-1.72.82-3,2.82-4.5,3.92a23.93,23.93,0,0,0-5.51,5,7,7,0,0,0-1.06,4.84c.19,1.85-.18,3.71,0,5.57a15.62,15.62,0,0,0,.81,4.09,16.79,16.79,0,0,0,2.1,3.55,28,28,0,0,0,3.71,4.11,44.13,44.13,0,0,0,10.37,7.4A21.58,21.58,0,0,0,119,71.52a49,49,0,0,0,5.92.44c2.42.13,4.85.21,7.28.19a32.91,32.91,0,0,1,7.08.56c5.8,1.23,12,.18,17.7-1.09,2.23-.5,4.44-1.07,6.65-1.63,3.87-1,8.08-1.64,11.83-3,3.41-1.24,7.41-2,10.61-3.74-1.22-.76-3.08-1.3-4.48-2C177.1,59,173,55.58,168.8,52.89"/><path class="cls-1" d="M205.73,39.06a11.38,11.38,0,0,1,.1-2.18,5.28,5.28,0,0,1,1-1.92c.62-1.07,1.22-2.15,1.83-3.23.16-.28.32-.57.49-.85.06-.11.1-.22.16-.33a1,1,0,0,1,.31-.3,2.33,2.33,0,0,1,.34-.2c.18-.11.35-.23.54-.33a8.48,8.48,0,0,1,1.08-.45,6.81,6.81,0,0,1,1.33-.33,7.08,7.08,0,0,1,1.13-.1,10.07,10.07,0,0,1,1.1,0,2.24,2.24,0,0,1,.8.2c.15.07.39.15.35.36a.88.88,0,0,1-.3.39.73.73,0,0,1-.38.14c-.13,0-.27,0-.41,0a5,5,0,0,0-.49.12,9.44,9.44,0,0,0-1,.29,1.53,1.53,0,0,0-.37.16,1.5,1.5,0,0,0-.29.27,4.55,4.55,0,0,1,1.11-.11,2.48,2.48,0,0,1,1.45.41,1.69,1.69,0,0,1,.37.43,1.3,1.3,0,0,1,.25.53,1.67,1.67,0,0,1-.06.86.67.67,0,0,1-.53.47,1.12,1.12,0,0,1-.72-.33,2.06,2.06,0,0,0-.41-.23,5.32,5.32,0,0,0-.5-.21,1.09,1.09,0,0,0-.69,0,5.09,5.09,0,0,0-.54.22,1.15,1.15,0,0,0-.72.61,6.36,6.36,0,0,1,1.24-.12c.63.13.82.91,1,1.47s.23,1.08.41,1.58a5.51,5.51,0,0,1,.51,1.39c-.79.3-1.05-.19-1.47-.81a4,4,0,0,0-1.48-1.43,2.07,2.07,0,0,0-1.46.46,1.35,1.35,0,0,0-.56,1.19c0,.65.65,1.09.83.26s.19-1.65,1.29-1.36.16,2-.07,2.64c-.17.45-.47,1.12-.09,1.53a6.73,6.73,0,0,0,1.88,1,13.4,13.4,0,0,0,3.56.78,12.9,12.9,0,0,1,2.36.65c.74.26,1.49.45,2.22.74s1.52.58,2.3.84a18.55,18.55,0,0,1,2.11,1c.84.42,1.63.92,2.44,1.37a14,14,0,0,1,2,1.19c1.06.87,2.13,1.72,3.21,2.56,1.31,1,2.47,2.2,3.75,3.24a5.8,5.8,0,0,0,1.65,1.14,7.59,7.59,0,0,1,1.83.9c1.5.93,3.82,2.61,2.65,4.65-1.49,2.61-5.78,3.07-8.41,3.64-3.3.72-6.87.57-10.25,1a61.32,61.32,0,0,0-7.15,1.21,39.78,39.78,0,0,1-7.09,1.43c-5.19.27-10-1-15-2-1.45-.28-3.13-.19-4.66-.36-3.2-.35-6.9.76-10.18,1.6A146,146,0,0,1,164,70.35c-2.13.28-4-3.14-5.17-4.63-1.82-2.23-3.61-4.5-5.6-6.57a75.61,75.61,0,0,1-10.28-13.39c-.46-.76-.6-1,.16-1.75a8.51,8.51,0,0,1,2-1c1.73-.9,3.09-2.35,4.8-3.26a51.68,51.68,0,0,0,5.61-3.4c1.72-1.22,3.48-1.73,4.85-3.4s4.91-3.12,7.16-3.21a17.82,17.82,0,0,1,7,1.59,17.37,17.37,0,0,1,4.38,2.33,15,15,0,0,0,3.32,2.25c.45.21,1,.42,1.38.67a5.4,5.4,0,0,1,2,1.7c.49.95.25,1.94.43,2.95a5.24,5.24,0,0,0,1.6,2.61,6.1,6.1,0,0,0,3,1.39,6.89,6.89,0,0,0,1.77.1,10.45,10.45,0,0,0,1.59-.48,3.17,3.17,0,0,1,2.57.66c.84.49,1.7,1.1,2.6,1.57.63.32,1.17.81,1.81,1.15a12.64,12.64,0,0,0,1.87,1c.68.23,1.37.43,2,.64a31.3,31.3,0,0,0,3.86.74,43.78,43.78,0,0,1,8.09,2.21c1.38.54,2.71,1.29,4,2a3.37,3.37,0,0,1,1.24,1,1.1,1.1,0,0,0,.53.42c.24.08.44,0,.68-.1l.61-.16a14,14,0,0,0,2.22-.62c-1.58-.49-3.26-.66-4.87-1.05a17.73,17.73,0,0,1-2.89-1,13.8,13.8,0,0,1-1.37-.73c-.44-.26-.9-.47-1.33-.76L214.66,51a5.23,5.23,0,0,1-1-.8c-.62-.73-1.21-1.52-1.79-2.29-.81-1-1.54-2.16-2.43-3.15a5.84,5.84,0,0,0-.86-.7c-.27-.2-.51-.45-.77-.66a5.3,5.3,0,0,1-1.88-2.77A11.27,11.27,0,0,1,205.73,39.06Z"/><path class="cls-1" d="M178.61,33.65a24.09,24.09,0,0,1-6.55-3.18c-2.22-1.58-4.15-3.53-6.22-5.27-2.41-2-4.75-4.17-7.17-6.18-1.8-1.5-3.93-2.66-6-4.06a20.49,20.49,0,0,0-3.21-2.24c-1.13-.48-2.41-.73-3.58-1.1-1.89-.6-4.34-.86-5.84.66-3.77,3.79-4,9.07-4.69,13.89a61.59,61.59,0,0,0-.25,6.66,15.28,15.28,0,0,1-.53,3.68,5.25,5.25,0,0,1-.71,1.71c-.17.21-.38.33-.5.59a1.37,1.37,0,0,0-.11.8c.07.4.62.82.89,1.1a3.5,3.5,0,0,0,1,.66c.27.13.77.22.84.54s.09.49.15.73a4.08,4.08,0,0,0,.51,1.1c.21.36.5.68.69,1.06s0,.73.05,1.1,0,.5.07.74.12.4.17.61a2.88,2.88,0,0,0,.24.77,1.25,1.25,0,0,0,.67.53,1.52,1.52,0,0,0,.56.05,1.16,1.16,0,0,1,.42,0c.09.06.17.24.29.2s0-.28-.06-.4a5.93,5.93,0,0,1-.1-.72c0-.21-.1-.37-.12-.58s0-.38-.07-.57,0-.55,0-.81c0-.44.16-.8,0-1.24a3.37,3.37,0,0,1-.1-1.1c0-1,0-1.91.1-2.86a11.85,11.85,0,0,1,.16-1.46c.12-.6.31-1.2.49-1.79s.35-1.23.53-1.84c.45-1.52.83-3,1.23-4.58.1-.36.19-.73.29-1.09.46-1.7,0-3.17.25-4.77s1-3.32.55-4.86c.86.61,1.53,2.71,2.28,3.7a11.28,11.28,0,0,0,4.07,3.3,22.47,22.47,0,0,0,4,1.58c.72.23,1.46.53,2.19.69,1.08.22,1.31.08,1.94.84s1.08,2.07,1.78,3a9.24,9.24,0,0,0,3.53,3c1.84.78,3.36-.61,5-1.49a27.31,27.31,0,0,1,4.91-2.36"/><path class="cls-2" d="M86.51,46.43c.06.2.12.4.19.6,1.43,4.59,2.59,9.11,4.48,13.59a21.4,21.4,0,0,1,1.6,4.66,10.16,10.16,0,0,1,0,1.91c0,.87.35,1.76.41,2.63,0,.49,0,1,0,1.48.15,1,.46,2,.58,3s.06,2.17.19,3.26a57,57,0,0,0,.66,6.55,2.27,2.27,0,0,1-.25,1.76c-.26.45-.78.64-.91,1.14a1.32,1.32,0,0,0,.23,1.2c1,.76,1.17-1,1.94-.9-.71,1,.09,2.25,1.21,1.64,0-.86.18-2.36,1.46-1.9.17,1.28-.27,1.9,1.26,1.94,1.37,0,1.34-.25,1.76-1.43.85-2.39,2.6-.08,3.43,1.11.53.77.68,1.27,1.69.87a2.28,2.28,0,0,0,1.41-2c0-2-2.24-2.5-2.94-4.07s-.3-3.45-1.1-5c-.23-.44-.52-.87-.71-1.32a4.22,4.22,0,0,1-.19-1.32c-.07-.57-.29-1.07-.33-1.65-.11-1.59-.53-3.25-.54-4.83,0-1.87,1.21-3.54,1-5.49-.2-2.5.14-4.72.14-7.19,0-2.24-.11-4.38-.31-6.58-.22-2.37.25-4.78,0-7.18-.09-.84-.84-4.83-1.57-4.91a41.19,41.19,0,0,0-.06,5.88,36.25,36.25,0,0,1-.61,5.56c1.26.39,3-.71,4.17-1a23.14,23.14,0,0,0,6.82-2.7c2.87-1.57,4.14-4.67,5.14-7.56a15.13,15.13,0,0,0-.49-9.54,17.73,17.73,0,0,0-2.43-4.79,68.93,68.93,0,0,0-6.17-7.33c-2.57-2.4-4.4-5.49-7.08-7.81-2.45-2.13-6.37-2.38-9.5-2.38-4,0-6.35,4.37-7,8A86.74,86.74,0,0,0,83.13,30C83.12,35.4,84.88,41.24,86.51,46.43Z"/><path class="cls-2" d="M186.45,32.28a2,2,0,0,1-.57-.43c-.29-.36-.76-.72-1-1.11s-.41-1-.63-1.48a6,6,0,0,1-.4-1.36,3,3,0,0,1,0-1.48c.11-.52.13-1.07.27-1.58.2-.69,1.08-1.93,1.93-1.44a2.42,2.42,0,0,0,.25-.93c.05-.4-.06-.83,0-1.23s.37-1.08.49-1.63a4.49,4.49,0,0,1,.82-2,5.3,5.3,0,0,1,1.44-1.43,20.59,20.59,0,0,1,3.67-1.75,15.37,15.37,0,0,1,4.65-.92,15.14,15.14,0,0,1,3.8.2,4,4,0,0,1,2.27.7,7.92,7.92,0,0,1,1.33,1.72c.63,1.11,1.27,2.25,2,3.3a3.45,3.45,0,0,1,.22,3.3c-.41,1.11.7,2.16,1.68,2.41a16.2,16.2,0,0,0,4.1.55,2.58,2.58,0,0,1,1.82.37c.51.46.89,1.07.49,1.72a2,2,0,0,1-1.27.79,6.3,6.3,0,0,0-1.57.69,6.94,6.94,0,0,0-2,1.52,14.64,14.64,0,0,0-1.85,3.58,9.54,9.54,0,0,1-.93,1.76,6.07,6.07,0,0,1-2.9,2.05c-.6.2-1.19.36-1.8.52-.78.19-1.59.18-2.37.3a1.18,1.18,0,0,0-.76.28,3,3,0,0,0-.34.57,7.49,7.49,0,0,0-.32,1,16.35,16.35,0,0,1-.75,1.65c-.64,1.43-1.1,2.89-1.71,4.33-.51,1.19-.89,2.39-2.2,2.93a7.83,7.83,0,0,1-2.13.43A8.89,8.89,0,0,1,189.7,50a6,6,0,0,1-2.83-.91,12.39,12.39,0,0,1-3-2.77,14.22,14.22,0,0,1-2.21-5,4.77,4.77,0,0,1,.52-3.77,4.38,4.38,0,0,1,1.92-1.48,9.12,9.12,0,0,1,.85-.48c.4-.15.57,0,.89-.38a4.79,4.79,0,0,0,.6-.89,2.75,2.75,0,0,0,.56-1.83A5,5,0,0,1,186.45,32.28Z"/><path class="cls-4" d="M196.28,23.7a3.88,3.88,0,0,0-1.06.57,4.44,4.44,0,0,0-.86,1c-.1.14-.35.38-.38.55s.29.24.44.26.42,0,.63.1.72.13,1.08.19a7.6,7.6,0,0,0,1.07.09,3.87,3.87,0,0,1,.48,0,.88.88,0,0,0,.42-.08l.49-.21a1.42,1.42,0,0,0,.28-.22l.36-.29a1.81,1.81,0,0,0,.33-.35s.1-.12.1-.17-.06-.11-.09-.14a3.3,3.3,0,0,0-.51-.48c-.26-.21-.47-.45-.71-.67A2.12,2.12,0,0,0,196.28,23.7Z"/><path class="cls-4" d="M204.85,23.76h0a1.16,1.16,0,0,1,.18-.35l.42-.64a6.92,6.92,0,0,1,.82-1c.12-.12.78-.69.93-.31a1.14,1.14,0,0,1,0,.52c-.05.25-.08.51-.11.76A3.2,3.2,0,0,0,207,24L205.7,24c-.25,0-1,.07-.91-.39"/><path class="cls-1" d="M193.93,25.89a.64.64,0,0,1,0-.26l.21-.86c.07-.26.12-.54.17-.8a.68.68,0,0,0,0-.4c0,.32,0,.66,0,1,.26.08.39-.47.44-.63s.1-.5.18-.74a1,1,0,0,1,.06-.22c0,.18,0,.89.32.86s.3-.47.35-.61.22-.58.4-.6c.06.25-.14.59,0,.83.11,0,.15-.11.21-.19s.28-.31.43-.46.3-.35.51-.3a1.14,1.14,0,0,1,0,.41c0,.09-.07.23,0,.28.27.11.48-.42.74-.34a1.69,1.69,0,0,0,.2.51c0,.07.07.17.12.24s.18.19.23.19.23-.42.43-.49c0,.43.1,1.27.7,1,.08.1,0,.39,0,.52a.83.83,0,0,0,.15.44c-.15,0-.39-.23-.49-.32a2.4,2.4,0,0,0-.78-.51,5.86,5.86,0,0,0-1-.31,2.84,2.84,0,0,0-1.16,0,5.33,5.33,0,0,0-.85.37,3,3,0,0,0-.66.36,2.09,2.09,0,0,0-.22.28l-.22.26c-.09.11-.15.23-.24.35.46,0,.87.29,1.33.28a3.69,3.69,0,0,0,.82-.05c.29-.06.57,0,.86-.1a11.69,11.69,0,0,0,1.46-.63c.29-.12.69-.38,1-.23.08.53-.43,1-.87,1.13a3.66,3.66,0,0,1-1.11.3c-.43,0-.85,0-1.28,0s-.68-.07-1-.06a3.26,3.26,0,0,1-.69-.09c-.28-.07-.84-.24-.91-.58"/><path class="cls-1" d="M197.41,24s.08.05.13.1a1,1,0,0,1,.16.28,1.32,1.32,0,0,1,.09,1,1.85,1.85,0,0,1-1.52,1c-.53,0-.92-.73-.9-1.21a1.13,1.13,0,0,1,.65-.81,2.78,2.78,0,0,1,1.14-.43"/><path class="cls-4" d="M193.89,26.45c-.14.28-.27.57-.42.85s-.19.34-.27.51a1,1,0,0,0-.13.32c.06-.07.22,0,.28,0a3,3,0,0,0,.36.18l.11,0c0-.13,0-.23.05-.36s.08-.34.14-.51.09-.23.13-.34a1.08,1.08,0,0,1,.11-.18.42.42,0,0,1,0-.1c0-.06.13-.1.16-.17s-.17-.1-.25-.15-.2-.08-.25-.14"/><path class="cls-4" d="M195.52,26.89a2.85,2.85,0,0,1,0,.29c0,.26-.11.51-.16.77a3.52,3.52,0,0,1-.23,1c.05,0,.07,0,.11,0a.89.89,0,0,1,.23,0A1.53,1.53,0,0,1,196,29a1.61,1.61,0,0,1,0-.44,6.84,6.84,0,0,0,.12-.79,2.56,2.56,0,0,1,.1-.54.74.74,0,0,0,.05-.24,1,1,0,0,1-.29-.08,1.42,1.42,0,0,0-.22-.07c-.09,0-.14,0-.21-.06"/><path class="cls-4" d="M197.52,26.87s0,.1,0,.14,0,.38.05.56a8.86,8.86,0,0,1,0,1,3.53,3.53,0,0,0,0,.46c.26-.25.72-.12,1-.17l-.16-.39c0-.16-.07-.34-.13-.5s-.08-.26-.11-.4-.08-.38-.14-.57,0-.24-.07-.36a.92.92,0,0,0-.28,0,2.44,2.44,0,0,1-.39.07"/><path class="cls-4" d="M199.55,26.5a.28.28,0,0,0,.07.17c.08.15.18.28.27.42.18.3.26.64.42.94,0,.06,0,.1.09.09a.52.52,0,0,0,.19-.08,5.49,5.49,0,0,1,.68-.24s0,0-.05-.06l-.13-.18c-.17-.22-.34-.46-.53-.68a5.67,5.67,0,0,1-.5-.68s-.06-.13-.08-.14-.08.06-.11.09a1.27,1.27,0,0,1-.21.25c-.06,0-.22.09-.19.18"/><path class="cls-1" d="M204.78,23.83s.06-.33.07-.39c.05-.28.13-.56.17-.84a11,11,0,0,1,.19-1.42c.08,0,.16.45.18.54s.06.39.09.59c.06,0,.08-.11.11-.16s.13-.4.21-.6a1.52,1.52,0,0,1,.26-.58c0,.23,0,.48,0,.71.17-.27.32-.82.71-.86,0,.16-.1.32,0,.48.09,0,.12-.12.18-.19a2.54,2.54,0,0,1,.28-.29,4.12,4.12,0,0,1,.41-.32,1.79,1.79,0,0,1,.32-.19c0,.14-.1.41-.16.53s-.09.25-.15.37-.09.14-.08.2a.92.92,0,0,0,.51-.12,1.64,1.64,0,0,1,.63-.19c0,.21-.36.32-.52.41a2.83,2.83,0,0,0-.47.29,1.15,1.15,0,0,0-.29.36c-.05.08-.13.3-.21.34a1.53,1.53,0,0,0,.13-.43.42.42,0,0,0-.16-.41c-.23-.24-.64,0-.86.14a4.73,4.73,0,0,0-.74,1.2,2.67,2.67,0,0,1-.5.56c.14.14.47.13.66.13a1.91,1.91,0,0,0,.79-.08,1.15,1.15,0,0,0,.52-.43c.07-.18,0-.49.07-.64,0,.31.16.76,0,1.05a1.4,1.4,0,0,1-.71.54,1.13,1.13,0,0,1-.41.05,1.78,1.78,0,0,1-.45-.08.82.82,0,0,1-.43-.25c-.08-.08-.21-.13-.27-.24"/><path class="cls-1" d="M206.94,22.07a1.89,1.89,0,0,1-.07,1,1.38,1.38,0,0,1-.48.86.58.58,0,0,1-.48,0c-.15-.05-.35,0-.48-.1s-.11-.32-.11-.47a2.37,2.37,0,0,1,.27-1.17,1.46,1.46,0,0,1,.47-.52.87.87,0,0,1,.35-.13C206.74,21.47,206.86,21.81,206.94,22.07Z"/><path class="cls-1" d="M191.19,22.5a.57.57,0,0,1,.08-.24,2.4,2.4,0,0,1,.23-.38,6.61,6.61,0,0,1,.63-.77,8.07,8.07,0,0,1,.58-.59,10.23,10.23,0,0,1,1-.73,4.37,4.37,0,0,1,2.59-.74,8.75,8.75,0,0,1,1.23.28,5.64,5.64,0,0,1,1.28.63,5.18,5.18,0,0,1,1,.73c.08.07.45.3.38.46s-.2.07-.29.08a.57.57,0,0,1-.26,0c-.14,0-.28-.1-.41-.15a3,3,0,0,0-.83-.24,6.49,6.49,0,0,0-1.08,0,5.37,5.37,0,0,0-2.53.57,7.34,7.34,0,0,0-1.48,1.36,4.26,4.26,0,0,0-.57.77,2.14,2.14,0,0,1-.26.55c-.26.26-.52,0-.7-.25s-.66-.61-.66-1.05"/><path class="cls-1" d="M206,18.25a.65.65,0,0,0-.29.09,3.2,3.2,0,0,0-.56.27,4.42,4.42,0,0,0-.94,1,2.18,2.18,0,0,0-.48.9,1.73,1.73,0,0,0-.08.56,2.32,2.32,0,0,1,.44-.39,6,6,0,0,1,.63-.39A3,3,0,0,1,206,20c.18,0,.36,0,.54,0a1.17,1.17,0,0,1,.37.08c.22.06.4.17.62,0a.93.93,0,0,0,.4-.55,1.52,1.52,0,0,0-.48-1.14,1.56,1.56,0,0,0-.94-.46,2.47,2.47,0,0,0-.29.06c-.16,0-.26.18-.41.21"/><path class="cls-1" d="M201.92,35.1c-.2.23-1.41,0-1.79-.29a2.68,2.68,0,0,1-.95-1.36c.49-.67.69,0,1.15.13s1.12-.18,1.73-.1c.12.44.46.78.54,1.26l.27.06c.39,1-1.62,1.67-2.25,1.61a2.25,2.25,0,0,1-1.79-2.3"/><path class="cls-1" d="M190.2,5.83a6.45,6.45,0,0,0-1.11,1.22A7.65,7.65,0,0,0,188,9.71a31,31,0,0,0-.51,5.53c-.05.77-.26,1.47-.26,2.24,0,.29-.08.54-.1.83s0,.57-.06.85a.92.92,0,0,1,0,.16c-.24-.19.64-1.06.79-1.2a8.18,8.18,0,0,1,1-.78c.63-.42,1.33-.66,2-1a16.21,16.21,0,0,1,3.56-1.65A14.63,14.63,0,0,1,198,14a11.78,11.78,0,0,1,4.58.54,4,4,0,0,1,.57.24c.25.14.46.43.71.54s.39.07.42-.17a1,1,0,0,0-.08-.47c0-.14-.06-.28-.11-.42a2,2,0,0,0-.46-.64c-.54-.56-1.12-1.07-1.62-1.66a10.7,10.7,0,0,0-.82-.83,6.2,6.2,0,0,1-.67-.86,17.4,17.4,0,0,0-1.55-1.66c-.25-.26-.53-.44-.79-.67s-.5-.52-.77-.76-.56-.43-.82-.66-.48-.44-.73-.63a4.18,4.18,0,0,0-1.46-1,2.55,2.55,0,0,0-1.1,0c-.33.07-.68,0-1,.06A3.7,3.7,0,0,0,190.2,5.83Z"/><path class="cls-4" d="M206.46,24.29c-.32.23-.16.49-.17.84.12,0,.25-.12.38-.16.07-.25-.29-.53-.21-.73"/><path class="cls-4" d="M207.23,23.94c-.13.08.5.54.54.64a1,1,0,0,1-.25.17c-.1,0-.22-.14-.3-.19s-.36-.17-.34-.32a.94.94,0,0,1,.26-.3"/><path class="cls-4" d="M195.86,18.29c-.05,0-.19-.2-.26-.28a4.65,4.65,0,0,1-.56-.83c-.16-.28-.34-.53-.47-.82-.06-.13-.15-.38-.28-.44l0,.08a4.1,4.1,0,0,0-.49.06,1,1,0,0,0,.11.54,11.18,11.18,0,0,1,.22,1.18,6.66,6.66,0,0,1,.22,1.15,2.4,2.4,0,0,1,.89-.24c.11,0,.23,0,.34-.06s.24-.17.38-.21"/><path class="cls-4" d="M205.35,17.77a2.87,2.87,0,0,1-.33-.46,6,6,0,0,0-.33-.54,1.79,1.79,0,0,1-.22-.38l-.11-.26a1.12,1.12,0,0,0-.1-.22,1.13,1.13,0,0,0-.48,0,1.4,1.4,0,0,0,.11.35,5.83,5.83,0,0,1,.22.71c.07.35.15.7.23,1a2.7,2.7,0,0,1,.17.6,7.31,7.31,0,0,1,.8-.77"/><path class="cls-5" d="M213.07,26.63c.41-.16,1.16-.12,1.34.35.26.69-.35,1.15-1,1a.8.8,0,0,1-.64-.51A.6.6,0,0,1,213.07,26.63Z"/><path class="cls-5" d="M194,29.34c1.37.66.89,3-.82,2.64a1.09,1.09,0,0,1-.81-1.32c.16-.81,1-1.17,1.63-1.49"/><path class="cls-5" d="M165.2,42.5c0,.16.33.44.45.79a2.68,2.68,0,0,1,0,1.32,1.81,1.81,0,0,1-2.09.66,2.51,2.51,0,0,1-1.31-1.94c0-1.11,1.5-1.15,2.29-1.15"/><path class="cls-5" d="M178.68,57.48c.08.48.57.6.66,1.15a1.64,1.64,0,0,1-.29,1.33,2.2,2.2,0,0,1-2.85,0,1.67,1.67,0,0,1,.09-2.32,4.57,4.57,0,0,1,2.72-.52"/><path class="cls-1" d="M125,55.29c.78-.07.93,1,.86,1.55-.13,1.09-1.31,1.36-2.21,1.32a.87.87,0,0,1-.91-.63,1.66,1.66,0,0,1-.07-1.18,1.85,1.85,0,0,1,1-.92,2.53,2.53,0,0,1,1.15-.35"/></g></g></svg>