<svg xmlns="http://www.w3.org/2000/svg" viewBox="0 0 26.66 24.63"><defs><style>.cls-1{fill:#e1e2e7;}.cls-2{fill:#aaadb4;}.cls-3{fill:#676b6d;}</style></defs><g id="Ebene_2" data-name="Ebene 2"><g id="Ebene_1-2" data-name="Ebene 1"><path class="cls-1" d="M.06.09A.91.91,0,0,1,.34.65a2.85,2.85,0,0,0,.27.84c.35.65.77,1.24,1.09,1.92C2.11,4.29,2.76,5,3.24,5.78A25.15,25.15,0,0,1,4.41,8.1c.44,1,.86,2,1.31,3,.25.55.42,1.17.64,1.75s.44,1,.69,1.55.66,1.23,1,1.88c.23.48.44,1,.69,1.44.56,1.06,1,2.2,1.55,3.27.33.67.63,1.38.91,2.09a6.17,6.17,0,0,1,.14.77,1.73,1.73,0,0,0,.18.39c0,.11,0,.35.17.38a3.29,3.29,0,0,1,.23-.39,6.93,6.93,0,0,1,.58-.79c.3-.37.58-.77.89-1.15.63-.77,1.22-1.57,1.79-2.38,1.41-2.05,3-4,4.3-6.07.15-.25.31-.51.44-.77a1.82,1.82,0,0,1,.33-.52c.62-.66,1.25-1.32,1.9-2s1-1.13,1.6-1.66,1-1.07,1.52-1.6A5.78,5.78,0,0,0,26.64,5.4c.15-.64-.7-.52-1.1-.57s-1.09-.14-1.64-.23c-1-.18-2.06-.42-3.13-.58s-2.11-.38-3.18-.52a25.4,25.4,0,0,1-3.08-.58,22.2,22.2,0,0,0-3-.49C10.68,2.32,9.82,2.21,9,2c-.62-.14-1.31-.19-1.93-.36A17.18,17.18,0,0,1,5.2,1.21,8.94,8.94,0,0,0,3.37.73C3,.67,2.66.65,2.31.58S1.76.41,1.46.36A5,5,0,0,0,.69.29C.51.28.35.19.16.19c0,0,0,0,0-.07"/><path class="cls-2" d="M16.11,14.52c.19.26.43.48.63.72a3.71,3.71,0,0,1,.49.56,1.31,1.31,0,0,0,.19.27,1.35,1.35,0,0,1,.32.4,3.18,3.18,0,0,1,.51-.13,3.86,3.86,0,0,1,.58-.17c.42-.06.87-.18,1.3-.24s.95-.26,1.44-.35a1,1,0,0,1,.23-.06c.09,0,.18,0,.25,0a1.07,1.07,0,0,0,.26-.26c0-.11-.17-.18-.24-.23-.24-.14-.45-.31-.68-.45s-.43-.21-.64-.34a5.71,5.71,0,0,1-.76-.56,9.65,9.65,0,0,0-.81-.56,10.29,10.29,0,0,1-.94-.69,9.58,9.58,0,0,0-1.42-.92c-.23-.14-.44-.3-.66-.44-.38-.25-.73-.54-1.09-.82s-1-.78-1.51-1.14c-.32-.21-.6-.47-.93-.68S12.22,8.16,12,8c-.52-.39-1-.81-1.57-1.17a4.2,4.2,0,0,0-.91-.54A2.23,2.23,0,0,1,8.85,6c-.65-.46-1.28-1-1.94-1.4-.22-.15-.46-.29-.68-.46a6.48,6.48,0,0,0-.71-.56c-.3-.18-.59-.39-.89-.58l-1-.63C3.06,2,2.45,1.64,1.88,1.23A9.07,9.07,0,0,0,1.05.69C.77.54.52.34.24.19.56.61,1,1,1.3,1.39s.86.92,1.3,1.35c.25.24.52.46.75.72a5.86,5.86,0,0,0,1,1c.19.14.35.27.52.42s.24.26.37.38.35.29.52.43c.76.59,1.55,1.16,2.26,1.8,1.81,1.63,3.81,3,5.57,4.71A21.44,21.44,0,0,1,16.11,14.52Z"/><path class="cls-2" d="M6.06,4.74l-.18-.16C5.29,4.06,4.72,3.52,4.09,3s-1.16-.91-1.8-1.32A21.26,21.26,0,0,1,.15.2,4.73,4.73,0,0,0,1.26.73,22.75,22.75,0,0,1,3.32,1.85c.94.54,1.92,1,2.9,1.44s1.92.77,2.84,1.23c.45.22.87.47,1.32.67l.54.22A8.61,8.61,0,0,1,12.23,6c.4.23.85.4,1.28.6s1,.53,1.5.78.78.42,1.17.64,1,.44,1.39.71c1,.61,2.06,1.2,3.1,1.76a4.65,4.65,0,0,1,.93.52c.17.15.47.32.57.54s0,.61,0,.85a5,5,0,0,0,.11,1,6.07,6.07,0,0,1,.21,1,2,2,0,0,1,0,.43c0,.18-.13.24-.2.4a1.26,1.26,0,0,0,0,.37,8,8,0,0,1-.82-.83,8.23,8.23,0,0,0-1.33-1c-1-.67-2.1-1.27-3.11-2s-1.78-1.34-2.73-1.89S12.12,8.66,11.1,8L9.8,7.25a4.38,4.38,0,0,0-1.12-.57,1.87,1.87,0,0,1-.8-.36c-.37-.3-.76-.6-1.11-.92S6.29,5,6.06,4.74Z"/><path class="cls-3" d="M0,.07A8.76,8.76,0,0,1,.82.73l.92.68c.33.23.7.4,1,.63.57.4,1.16.77,1.73,1.17.28.19.53.43.81.62s.56.37.82.59c.46.39,1,.72,1.43,1.12.28.24.59.43.88.66a10.15,10.15,0,0,0,.92.7c.69.4,1.28,1,2,1.37.31.18.58.44.88.63s.62.38.94.57c.65.37,1.25.84,1.88,1.25s1.22.82,1.84,1.21,1,.77,1.58,1.1a7.32,7.32,0,0,1,.7.5c.26.18.54.33.8.52s.58.45.89.63a5.17,5.17,0,0,1,.76.49c.13.11.35.38.56.35a4.62,4.62,0,0,0-.41-.34l-.47-.38c-.35-.28-.74-.48-1.07-.79A9.22,9.22,0,0,0,19,13c-.51-.35-.95-.76-1.46-1.1l-.88-.62c-.36-.25-.76-.46-1.12-.71s-.51-.34-.76-.51-.4-.33-.62-.47c-.46-.28-.94-.53-1.39-.8-.79-.48-1.6-1-2.35-1.53-.3-.22-.61-.42-.93-.62a9,9,0,0,1-1-.76c-.71-.52-1.39-1-2.1-1.56S5,3.44,4.24,3c-.34-.21-.67-.39-1-.61s-.61-.45-.94-.65A7.13,7.13,0,0,1,1.3,1L.76.56A2,2,0,0,0,.39.28C.28.21.13.15.1,0"/></g></g></svg>