<svg xmlns="http://www.w3.org/2000/svg" viewBox="0 0 32.06 22.25"><defs><style>.cls-1{fill:#aaadb4;}.cls-2{fill:#676b6d;}.cls-3{fill:#dddfe4;}</style></defs><g id="Ebene_2" data-name="Ebene 2"><g id="Ebene_1-2" data-name="Ebene 1"><path class="cls-1" d="M23.87,12.84a3.82,3.82,0,0,1-.28.91c-.18.52-.36,1.07-.57,1.59a18.65,18.65,0,0,1-1.28,2.8c-.37.61-.71,1.26-1.07,1.89-.2.36-.33.78-.5,1.15a5.22,5.22,0,0,0-.43.85,11.22,11.22,0,0,1-.46-1.73A11.52,11.52,0,0,0,18.4,18c-.35-.77-.62-1.57-.95-2.35A7,7,0,0,0,16.5,14a18.84,18.84,0,0,0-2.86-2.79c-.87-.79-1.69-1.6-2.53-2.46S9.48,7,8.61,6.25A18.71,18.71,0,0,0,6.94,4.92c-.62-.43-1.27-.79-1.89-1.22S3.61,2.81,2.91,2.3a3.19,3.19,0,0,0-1-.68c.16-.15.57.13.74.21.42.21.83.45,1.25.66.74.36,1.47.75,2.22,1A21.21,21.21,0,0,1,8.76,4.91c.82.45,1.66.88,2.44,1.4a34.65,34.65,0,0,0,3.61,2.22c2,1,4,1.91,6,2.91.56.29,1.15.5,1.7.83.24.13.46.3.69.45s.42.34.6.33"/><path class="cls-2" d="M20,13.86c-.1.13,0,.56,0,.73a10.26,10.26,0,0,1,0,1.24c0,.82,0,1.62-.05,2.44a19.28,19.28,0,0,0,0,2.15c0,.34.05.65.06,1s.11.67,0,.86a9.82,9.82,0,0,0-1.21-1.44c-.48-.51-.94-1.07-1.4-1.6-.81-.95-1.67-1.83-2.51-2.74-.1-.1-.46-.35-.37-.54s.74-.28.84-.33A16.51,16.51,0,0,1,17,14.94c1-.38,1.93-.87,2.91-1.17a.58.58,0,0,0,.18,0c-.09,0-.12-.06-.2-.1"/><path class="cls-3" d="M19.93,13.63c-.24,0-.43-.32-.62-.46a11.37,11.37,0,0,0-1.17-.67c-.69-.38-1.35-.81-2-1.22s-1.32-.72-2-1.1S12.75,9.06,12,8.56c-.52-.36-1.09-.65-1.61-1S9.28,6.57,8.7,6.1c-1.16-1-2.41-1.74-3.58-2.68a16.38,16.38,0,0,0-1.5-1.06,13.39,13.39,0,0,1-1.41-1C1.8,1,1.32.91.93.57.71.38.31,0,0,0,0,.29.16.54.27.77a9.4,9.4,0,0,1,.39,1,21.76,21.76,0,0,0,1.1,2.74c.39.76.74,1.57,1.14,2.33s.76,1.32,1.09,2c.59,1.22,1,2.53,1.7,3.7.44.78.86,1.56,1.28,2.34.2.36.33.76.53,1.12s.46.78.65,1.19.26.59.37.88.17.29.47.16a17.88,17.88,0,0,1,1.74-.75c.7-.24,1.41-.47,2.09-.75s1.58-.51,2.37-.8l1.7-.62a5.5,5.5,0,0,0,1.16-.46,6.13,6.13,0,0,1,.95-.68c.23-.08.52-.08.7-.26"/><path class="cls-3" d="M.43.28c.1.19.34.21.55.24s.51.17.8.21c.6.1,1.17.28,1.77.38A33.51,33.51,0,0,1,8.29,2.8c1.74.58,3.52,1.09,5.22,1.79.93.38,1.93.64,2.89.93a31,31,0,0,1,2.93,1.05c.61.25,1.22.49,1.83.71.81.29,1.57.7,2.38,1,1.27.44,2.46,1.05,3.69,1.6A15.25,15.25,0,0,1,29.76,11c.37.25.74.5,1.12.74.22.15.47.24.7.37s.44.22.48.35a5.39,5.39,0,0,1-.79-.12,2.88,2.88,0,0,0-1,0,10.22,10.22,0,0,0-1.22.17,4.08,4.08,0,0,1-.93.23,15.23,15.23,0,0,0-2.4.28,9,9,0,0,1-1.74.31,1.57,1.57,0,0,1-.61-.26l-.77-.36c-.6-.29-1.19-.71-1.79-1s-1.06-.47-1.58-.76-1-.6-1.5-.85a18.54,18.54,0,0,1-2-1.06c-.55-.33-1.12-.69-1.69-1a29.24,29.24,0,0,1-3.2-1.73,34,34,0,0,0-3.36-2A27.35,27.35,0,0,1,4.32,2.48C3.75,2.1,3.09,1.73,2.5,1.37c-.31-.19-.6-.44-.91-.59A3.29,3.29,0,0,0,.71.39a.21.21,0,0,1,0-.13"/></g></g></svg>