<svg xmlns="http://www.w3.org/2000/svg" viewBox="0 0 51.95 19.38"><defs><style>.cls-1{fill:#e1e2e7;}.cls-2{fill:#aaadb4;}.cls-3{fill:#898d92;}</style></defs><g id="Ebene_2" data-name="Ebene 2"><g id="Ebene_1-2" data-name="Ebene 1"><path class="cls-1" d="M0,15.3a.42.42,0,0,0,.19,0l-.06,0Z"/><path class="cls-2" d="M42.17,5.51a12.26,12.26,0,0,1-2.69.56,18.22,18.22,0,0,0-2,.46c-1.26.3-2.58.69-3.86,1a21.56,21.56,0,0,0-4.39,1.18c-1.58.73-2.51.51-3.85.84a3.8,3.8,0,0,1-1,.22,1.79,1.79,0,0,0-.76.08c-.65.16-1.23.21-1.9.41s-1.3.38-1.94.54a29.92,29.92,0,0,1-4.21.82c-.63,0-1.37.29-2.06.42-.89.17-1.71.23-2.59.38-.33.06-.75.18-1.12.29-.81.23-1.62.58-2.39.73-.55.11-1.09.19-1.67.34s-1.07.13-1.66.26l-.29.06-.5.23L1.79,15l-.64.32a4.76,4.76,0,0,0,.91,0c.23,0,.46,0,.69,0,.72.05,1.44,0,2.16.1l1.3.17c.57.08,1.17.1,1.75.15s1.1,0,1.65.08a9,9,0,0,0,1.72,0,9.39,9.39,0,0,1,1.19-.06c.37,0,.71-.07,1.08-.06.78,0,1.55-.11,2.32-.18,1.19-.11,2.38-.17,3.58-.17.47,0,.94-.05,1.4-.06s.87,0,1.31,0c1.78-.15,3.53-.33,5.3-.64,1.08-.2,2.18-.3,3.28-.49s2.22-.37,3.33-.53a22.1,22.1,0,0,1,2.29-.31,16.23,16.23,0,0,0,2-.08,4.74,4.74,0,0,0,1.21-.44,10.44,10.44,0,0,1,1.93-.46c.68-.15,1.37-.29,2-.42a4.58,4.58,0,0,0,1-.36c.13-.07.62-.21.6-.37-.65-.1-1.28-.06-1.9-.2a3.71,3.71,0,0,0-.88-.1c-.34,0-.63.1-1,.12a1.85,1.85,0,0,0,.09-.71c0-.23.13-.5.16-.75.11-.69.11-1.39.21-2.09a5.17,5.17,0,0,1,.2-1.11c0-.14.31-.64.13-.75"/><path class="cls-1" d="M36.89,1.54c-.76-.25-1.5-.66-2.28-.85A6.06,6.06,0,0,1,33.35.33,1.26,1.26,0,0,1,33,0a15.49,15.49,0,0,0-1.38.76c-.38.22-.81.38-1.21.57a5.17,5.17,0,0,1-.88.44,5.76,5.76,0,0,0-1.25.54c-.91.45-1.81.9-2.7,1.38S23.94,4.56,23.11,5a25.28,25.28,0,0,1-2.88,1.13c-1.68.56-3.31,1.19-4.94,1.87s-3.09,1.45-4.63,2.18c-.65.31-1.38.52-2,.88s-1.18.64-1.78.93-.92.45-1.37.7-.91.6-1.37.87c-.67.41-1.4.72-2.08,1.09-.3.17-1,.32-1.15.64a2.23,2.23,0,0,0,.81-.1c.4-.1.84,0,1.24-.1l1.55-.32c.77-.16,1.58-.52,2.39-.75A9.15,9.15,0,0,1,8,13.69c.89-.16,1.7-.23,2.59-.4.69-.14,1.43-.38,2.06-.44A29.08,29.08,0,0,0,16.86,12c.63-.16,1.27-.34,1.93-.54S20,11.2,20.68,11a1.88,1.88,0,0,1,.77-.09,3.89,3.89,0,0,0,1-.22c1.33-.34,2.27-.13,3.84-.87a21.51,21.51,0,0,1,4.38-1.21c1.28-.33,2.59-.74,3.85-1a16.37,16.37,0,0,1,2-.47,15.91,15.91,0,0,0,2.09-.4c.66-.17,1.48-.53,2.17-.73.44-.12,1.85-.26,1.85-.86s-1-1.12-1.49-1.43-.72-.42-1.08-.64a8.74,8.74,0,0,0-1.34-.82C38.14,2,37.51,1.75,36.89,1.54Z"/><path class="cls-3" d="M9.58,14.8c.17.16.7.1.92.08.52-.05,1.05-.09,1.56-.15a23,23,0,0,1,2.37-.16c1.8-.05,3.63-.11,5.42-.23,1.54-.1,3.11-.42,4.63-.6,1.29-.16,2.6-.25,3.88-.48,2.42-.45,4.91-1,7.34-1.25.75-.08,1.47-.34,2.22-.43.95-.12,1.94-.3,2.89-.39.68-.06,1.32-.17,2-.17a5.64,5.64,0,0,0,.93-.08c.31,0,.56.12.84.1-.11.1-.44.11-.62.14a9.07,9.07,0,0,1-1.28.07,14.59,14.59,0,0,0-2.55.33c-1.38.25-2.75.52-4.12.75-4.6.79-9.18,1.62-13.79,2.33a43.92,43.92,0,0,1-6.78.6c-2.53,0-5,.23-7.56.23"/><path class="cls-1" d="M45.83,11.17a19.25,19.25,0,0,0-6.11.56A7,7,0,0,1,37.5,12a6.38,6.38,0,0,0-2.1.38c-.93.19-1.87.31-2.78.44-2.25.31-4.55.7-6.75.94-.85.09-1.7.22-2.53.29s-1.46.06-2.24.16c-1.61.19-2.89,0-4.53.21-.8.12-1.56.13-2.35.21s-1.7.07-2.54.1-1.62.11-2.36.09c-.56,0-1-.07-1.64,0-.8.07-1.57.09-2.33.1s-1.23,0-1.86-.06a8.58,8.58,0,0,0-1.13,0,10.15,10.15,0,0,0-1.35.3c.5,0,.89.3,1.39.3.72,0,1.43.15,2.15.21s1.53.19,2.31.31A5.05,5.05,0,0,0,8,16.12a4.84,4.84,0,0,1,1.2,0c.52.06,1.06.16,1.59.22.79.09,1.55.27,2.33.4s1.61.29,2.4.47a25.83,25.83,0,0,0,3.82.54c1.35.08,2.68.33,4,.47,1.52.15,3,.36,4.56.46,1.29.08,2.59.19,3.87.36.88.11,1.76.12,2.64.19s1.46.05,2.19.06,1.61.05,2.41.05h3.26c3.22,0,6.43,0,9.62-.2,0,0-.42-.82-.47-.9a3.7,3.7,0,0,1-.41-.82,14,14,0,0,0-.41-1.4,13.4,13.4,0,0,0-2.14-3.19,6,6,0,0,0-1.46-1.3A4,4,0,0,0,45.83,11.17Z"/></g></g></svg>