<svg xmlns="http://www.w3.org/2000/svg" viewBox="0 0 26.27 15.13"><defs><style>.cls-1{fill:#aaadb4;}.cls-2{fill:#676b6d;}.cls-3{fill:#dddfe4;}</style></defs><g id="Ebene_2" data-name="Ebene 2"><g id="Ebene_1-2" data-name="Ebene 1"><path class="cls-1" d="M24.61,4.51c-.16.13-.07.68-.05.82a2.28,2.28,0,0,0,.25,1,2.91,2.91,0,0,1,.23,1,10.28,10.28,0,0,0,.35,1.07c.23.64.31,1.32.54,2a2.43,2.43,0,0,1,.14.75c0,.11.06.3-.05.38s-.3,0-.44,0a6,6,0,0,0-1-.1c-.32,0-.65,0-1,0-.15,0-.26-.08-.4-.11a2.67,2.67,0,0,0-.69,0,8.11,8.11,0,0,1-1.22.06c-1.2-.09-2.42-.29-3.62-.42-1.8-.19-3.61-.31-5.43-.41-1,0-2.11-.19-3.17-.23a11.62,11.62,0,0,0-1.23.2c-.47,0-1,0-1.42,0s-1,.1-1.43.11-1-.08-1.42,0c-.15,0-.79.12-.82-.06.19,0,.37-.14.58-.19a5.28,5.28,0,0,1,.68-.09,17.74,17.74,0,0,0,2-.59c.65-.19,1.33-.35,2-.58a6.79,6.79,0,0,1,1-.29c.21,0,.43,0,.65-.06.73-.12,1.44-.34,2.15-.51,1.45-.36,2.9-.72,4.34-1.1.81-.22,1.67-.35,2.48-.56S20.51,6,21.4,5.69c.39-.12.78-.22,1.17-.35s.64-.22,1-.31.71-.22,1.06-.35a.28.28,0,0,0-.13,0"/><path class="cls-2" d="M21.4,9.37c-.84.11-1.66.27-2.47.45l-1.24.28a1.34,1.34,0,0,0-.34.16,2.16,2.16,0,0,1-.44.1,6.68,6.68,0,0,1-.91.2c-.18,0-1.43.08-1.4.29.14,0,.29,0,.43,0a8.7,8.7,0,0,1,1,.18,5.8,5.8,0,0,1,1.05.3,2.31,2.31,0,0,0,.54.2,4.3,4.3,0,0,0,.88,0,14.87,14.87,0,0,1,1.76-.12c1,0,1.95.13,2.9.22.33,0,.66,0,1,0s.48,0,.73,0a6.51,6.51,0,0,0,.77,0,1.27,1.27,0,0,0,.6-.15,3.45,3.45,0,0,1-.65-.46c-.23-.16-.47-.29-.68-.45l-.54-.42c-.12-.09-.21-.21-.33-.31a10.28,10.28,0,0,0-.93-.65A.38.38,0,0,0,22.9,9a1.66,1.66,0,0,0-.29.1A9.58,9.58,0,0,1,21.4,9.37Z"/><path class="cls-3" d="M24.9,5.65a1.7,1.7,0,0,1,0,.45c-.06.27-.56.29-.87.37s-.89.22-1.35.31c-1.25.26-2.51.42-3.75.67-.63.13-1.29.25-1.93.34-.34,0-.69,0-1,0s-.39.12-.6.16c-.73.13-1.5.18-2.23.3-1.19.19-2.38.42-3.55.67s-2,.54-3.1.69c-.43.06-.85.15-1.28.22s-.74.19-1.12.25c-.79.14-1.57.31-2.35.47a4.5,4.5,0,0,1-.73.15,9.14,9.14,0,0,0-1-.14,2.13,2.13,0,0,1,.69-.19c.29-.05.57-.1.83-.17l1.09-.32c.6-.19,1.17-.44,1.77-.63.39-.12.77-.28,1.15-.42s.72-.26,1.06-.4S7.37,8.12,7.77,8s.74-.28,1.11-.44l1.33-.59c.47-.21.95-.39,1.42-.59C12.45,6,13.18,5.57,14,5.23a17.14,17.14,0,0,0,1.68-.76c.37-.2.79-.34,1.2-.52s.75-.29,1.13-.43.79-.4,1.21-.58.79-.31,1.14-.5.56-.34.85-.51a18,18,0,0,1,2-.93c.36-.16.7-.36,1.06-.53.09,0,1.05-.43,1-.47a1.72,1.72,0,0,1,0,.64c-.05.3,0,.62-.09.93a4.91,4.91,0,0,0-.05.86c0,.27,0,.54,0,.82,0,.53-.15,1-.15,1.56,0,.27-.05.52-.05.78Z"/><path class="cls-3" d="M19.14,14.13c.32-.44.7-.88,1-1.33s.76-1.16,1.22-1.71.71-.9,1.09-1.34a4.4,4.4,0,0,1,.39-.35c.11-.11.19-.23.3-.33-.19,0-.39,0-.58,0C22.19,9,21.78,9,21.39,9c-.57,0-1.12-.06-1.7-.06s-1.13,0-1.67,0c-.75.06-1.51.09-2.25.17s-1.58.17-2.36.24c-1.83.16-3.65.41-5.49.55-1.24.09-2.48.25-3.72.36l-1.77.14a5.06,5.06,0,0,0-.68.1c-.24.05-.48,0-.72.05l-.3.07a1.83,1.83,0,0,1-.52,0A5.45,5.45,0,0,0,1.56,11c.66.17,1.3.39,1.95.56l2.68.68c.42.11.85.2,1.28.3,1,.26,2.12.48,3.19.68s2.32.49,3.44.8c.86.23,1.75.4,2.62.62s1.7.26,2.46.51c0-.09,0-.18,0-.27a1.18,1.18,0,0,1,.19-.37c.1-.14.24-.26.33-.41a1.4,1.4,0,0,0,.16-.84"/></g></g></svg>