<svg xmlns="http://www.w3.org/2000/svg" viewBox="0 0 46.02 19.54"><defs><style>.cls-1{fill:#a5a5ab;}.cls-2{fill:#535252;}.cls-3{fill:#d5d7dd;}</style></defs><g id="Ebene_2" data-name="Ebene 2"><g id="Ebene_1-2" data-name="Ebene 1"><path class="cls-1" d="M0,.29A18.44,18.44,0,0,1,5.24.58,10.53,10.53,0,0,1,8,1.92a11.52,11.52,0,0,0,3.94,1.23c.87.16,1.71.48,2.57.68s1.68.1,2.53.21a41.79,41.79,0,0,0,5.47.73,6.85,6.85,0,0,1,2.69.58A6.29,6.29,0,0,0,26.93,6a6.47,6.47,0,0,1,1.5.18,30.45,30.45,0,0,1,3.89,1.37c1,.48,2.54,1.54,2.48,2.85-.15,3.05-.38,6.08-.5,9.13-.73-4.88-11.41-9-14.86-10.56-3.28-1.49-6.65-2.72-10-4.06C6.29,3.64,2.85,2.37,0,.29Z"/><path class="cls-2" d="M33.61,19.14a3.09,3.09,0,0,0,.83.27c.05-.19-.21-.6-.29-.78a8.1,8.1,0,0,0-.39-.78,7.56,7.56,0,0,1-.68-1.47,13.9,13.9,0,0,0-1-2.15,20.29,20.29,0,0,0-1.39-2.46,10.79,10.79,0,0,0-1.11-1.5c-.85-.73-2.35.91-3.2,1.39-1.13.63-2.2,1.16-3.32,1.79,1.4.54,2.65,1.55,4,2.16a20,20,0,0,1,2.4,1.21c.86.51,1.75,1,2.62,1.48C32.59,18.54,33.1,18.89,33.61,19.14Z"/><path class="cls-3" d="M26.34,13.33c.62-.67,1.18-1.4,1.81-2.05a4.69,4.69,0,0,1,.47-.43l.12-.11a.36.36,0,0,0,.1-.07,1,1,0,0,1,.08-.11l.09-.08,0,0,.19-.13c.11-.06.25-.14.36-.06s-.05,0-.08-.06a.41.41,0,0,0-.11-.07,1.91,1.91,0,0,0-.27-.16l-.35-.15-.46-.17-.39-.17-.2-.07-.19-.08c-.26-.09-.51-.2-.76-.31a2.83,2.83,0,0,0-.41-.14l-.16-.05-.12-.05a1.25,1.25,0,0,0-.26-.07,1.37,1.37,0,0,1-.29-.07c-1.33-.4-2.65-.6-4-1-1.49-.4-3.12-.75-4.62-1.11a38.07,38.07,0,0,1-4.21-1.45C8.52,3.6,4,2.49.13.35A10.5,10.5,0,0,0,3.36,3.2,53.55,53.55,0,0,1,8.94,6.86a49.42,49.42,0,0,1,5,3.83c.49.51,1,1.11,1.45,1.62s1.33,1,2,1.56c1.06.94,2.07,2,3.14,2.92.69.63.57.37,1.25-.17a9.89,9.89,0,0,1,1.68-.86A11.12,11.12,0,0,0,26.34,13.33Z"/><path class="cls-3" d="M31.85,9.83a4.93,4.93,0,0,1-1.61-.7,4.89,4.89,0,0,0-1.57-.69c-.64-.22-1.25-.54-1.89-.73S25.31,7.18,24.55,7s-1.66-.5-2.5-.74c-1.18-.35-2.34-.79-3.53-1.09s-2.15-.51-3.22-.78S13.09,3.9,12,3.64c-.61-.15-1.22-.32-1.83-.49s-1.07-.23-1.59-.41C7.33,2.32,6.12,1.81,4.9,1.35,3.94,1,2.94.81,2,.52A5.25,5.25,0,0,0,1,.24,1.78,1.78,0,0,1,.3.08a6.93,6.93,0,0,1,1.93,0c.43,0,.87,0,1.29.07s.86,0,1.31.06S6,.35,6.62.41c1.49.16,2.93.2,4.44.39,3.88.46,7.81,1,11.7,1.78,2.15.42,4.32.55,6.46,1a28.86,28.86,0,0,0,7.48,1,17.34,17.34,0,0,1,2.16,0,9.91,9.91,0,0,1,1.19.31,8.36,8.36,0,0,0,2,0c.75,0,1.49,0,2.24,0a4.92,4.92,0,0,1,1.15,0,4.43,4.43,0,0,1,.58.2c0,.15-.19.3-.29.38a6.54,6.54,0,0,1-.65.53c-.31.22-.61.43-.93.62s-.76.53-1.16.73-1,.56-1.55.81-1.16.47-1.75.69l-1.85.66-.54.19a4.83,4.83,0,0,0-.62.42l-.78.48a3.93,3.93,0,0,1-.56.24.76.76,0,0,1-.18.06.8.8,0,0,1-.26-.09c-.37-.1-.74-.19-1.11-.32C33.14,10.34,32.5,10.07,31.85,9.83Z"/></g></g></svg>