<svg xmlns="http://www.w3.org/2000/svg" viewBox="0 0 292.4 161.39"><defs><style>.cls-1{fill:#a5a5ab;}.cls-2{fill:#535252;}.cls-3{fill:#007293;}.cls-4{fill:#7e8285;}.cls-5{fill:#aaadb4;}.cls-6{fill:#d5d7dd;}.cls-7{fill:#e30613;}.cls-8{fill:#1d1d1b;}.cls-9{fill:#fff;}.cls-10{fill:#e1e2e7;}.cls-11{fill:#686464;}.cls-12,.cls-13{fill:none;stroke:#1d1d1b;stroke-miterlimit:10;}.cls-12{stroke-width:0.15px;}.cls-13{stroke-width:0.16px;}</style></defs><g id="Ebene_2" data-name="Ebene 2"><g id="Ebene_1-2" data-name="Ebene 1"><path class="cls-1" d="M68,151.34h0a2.15,2.15,0,0,0-1.31.15,8.1,8.1,0,0,1-1.7.17c-.5.06-.57.57-1,.74a3,3,0,0,1-1.22.1c-.5,0,1-.42.45-.33s-1.18,0-1.78.09c-1.28.11-.59.3-1.9.26a5.34,5.34,0,0,0-1.9.32,5.55,5.55,0,0,1-1.26.38,5.47,5.47,0,0,0-1.06.08,23.75,23.75,0,0,0-2.74.78c-.75.28-1.8.91-1.77,1.72.08,1.87.23,3.73.28,5.6.55-3,8.1-5.34,10.54-6.25,1.13-.42.32-.7,1.46-1.07,1-.32.38-.07,1.25-.65A8.65,8.65,0,0,1,66,152.2c.39-.15.8-.2,1.2-.32A4.6,4.6,0,0,0,68,151.34Z"/><path class="cls-2" d="M51.57,161.08a2.69,2.69,0,0,1-.59.15c0-.12.16-.36.21-.48a5.3,5.3,0,0,1,.28-.47,4.28,4.28,0,0,0,.49-.89,7.47,7.47,0,0,1,.71-1.3,12.84,12.84,0,0,1,1-1.49,6.27,6.27,0,0,1,.8-.9c.6-.44,1.64.59,2.24.9.78.4,1.53.74,2.32,1.15-1,.31-1.88.91-2.86,1.26a16.45,16.45,0,0,0-1.7.7c-.6.31-1.24.6-1.85.87C52.29,160.72,51.93,160.93,51.57,161.08Z"/><path class="cls-3" d="M255,51.16c2.12.82,1.17-5.53,1-6.47-.43-2.15-.23-4.45,1.82-5.82,4.5-3,6,4.5,8.86,6.63,1.88,1.4,4.13,2.44,6.48,1.79s3.69-2.56,5.62-3.78c1.28-.8,2.38-.74,2.9.57.69,1.74-.19,1.89-1.21,3.09-2.58,3,2.5,2.32,3.56,3.75a2,2,0,0,1,.1,1.68,9,9,0,0,0-2.57.31,5.74,5.74,0,0,1-2.53-.16c-.45,1.26.39,1.78,1,2.69a3.31,3.31,0,0,1,.54,2.83c-2.05.47-3.13-2.68-5-2.11-.46,1.75.94,2.59,1.7,3.94,1,1.71.25,5.15-2.39,3.71-2-1.08-2.06-3.07-2.35-4.93-.36-2.41-.89-2.8-3.16-3.39-1.57-.41-3.26-1.08-4.85-1.5-2-.53-3,1-4.35,2.22-1.92,1.75-2.61,1.73-4.73.41a5.66,5.66,0,0,1-1.73-1.22c-.83-1.13-.21-1.17.2-2.35"/><path class="cls-4" d="M279,53.83c0,.12.05.12.12,0-.51-1.24-.91-2.69-1.35-4-.81-2.41-1.57-4.8-2.19-7.25A63.42,63.42,0,0,0,273.36,36c-.33-.89-.82-1.7-1.13-2.59a14.77,14.77,0,0,1-.71-2,12.5,12.5,0,0,1,2,2.55c.67.95,1.45,1.84,2,2.83,1.52,2.62,3.11,5.17,4.68,7.71a60.45,60.45,0,0,1,3.43,6.94c1.19,2.65,2.22,5.33,3.4,8a26.91,26.91,0,0,0,1.5,3.22c.33.52,1.2,1.71,1,2.36-.73.06-1.45-.08-2.17,0s-1.74.35-2.59.51-1.48.38-2.19.57c-.49.14-1.41.63-1.88.47a3.79,3.79,0,0,0-.11-1c0-.38,0-.76-.09-1.14-.09-.73-.17-1.4-.2-2.15a11.4,11.4,0,0,0-.33-2c-.08-.3-.14-.58-.2-.91a4.18,4.18,0,0,0-.2-.88c.75.07.83.07,1-.62a2.18,2.18,0,0,0,0-1.59c-.18-.34-.6-.57-.82-.9s-.34-1.08-.61-1.36"/><path class="cls-5" d="M272.07,31.77c.67.85,1.52,1.7,2.31,2.53,1.16,1.21,2.16,2.5,3.35,3.67a31.7,31.7,0,0,1,3.19,3.76c.53.7,1,1.42,1.55,2.13A20.08,20.08,0,0,0,284,45.49a11.74,11.74,0,0,1,2.49,3.41c.64,1.65.34,3.48,1,5.14.46,1.18,1.05,2.36,1.58,3.5.15.31.57,1,.26,1.28a4.78,4.78,0,0,1-1.16.1,8.82,8.82,0,0,1-2.66-.21,5.7,5.7,0,0,0-.82-1.66c-.37-.66-.71-1.33-1.1-2-.6-1-1.2-2.06-1.71-3.14s-1-2.16-1.46-3.24-.91-1.78-1.35-2.68c-.33-.66-.28-1.39-.59-2.05-.92-1.95-2.23-3.74-3.21-5.67a28.38,28.38,0,0,0-1.51-3c-.55-.82-.89-1.74-1.49-2.52"/><path class="cls-6" d="M272,31.62a5.42,5.42,0,0,1,1.82,2.31c.81,1.45,1.57,3,2.4,4.4,1,1.71,2.1,3.36,3.1,5.06a46.64,46.64,0,0,1,2.51,4.32A50.34,50.34,0,0,0,284.57,52c.61,1.06,1.35,2,2,3s1.17,1.78,1.75,2.68c.38.6.9,1.52,1.35.44.32-.77.91-1.36,1.24-2.15s.56-1.47.93-2.23a5.7,5.7,0,0,0,.42-1.15,2.71,2.71,0,0,0,.05-.56c0-.06.12-.06.07-.19s-.26-.11-.34-.16a22.7,22.7,0,0,1-2.54-1.62,42.39,42.39,0,0,1-5.38-5,34.47,34.47,0,0,1-2.59-2.82c-.36-.49-.68-1-1.06-1.43s-.79-.83-1.18-1.28c-1.44-1.66-3-3.22-4.46-4.84-.57-.63-1.06-1.29-1.6-1.93-.31-.36-1-.84-.82-1.36"/><path class="cls-3" d="M131.13,38.89c-.75-.25-1.13-.77-1.83-1a10.42,10.42,0,0,1-.2-3.86,6.71,6.71,0,0,1,1.1-2.54c.53-.68,1.72-.86,2.37-1.6a18.72,18.72,0,0,1,1.24-1.58c.78-.73,1.62-1.38,2.37-2.16,1.13-1.18,1.89-2.17,1.82-3.84a3.27,3.27,0,0,0-1.8-2.87c-.59-.19-1.34.28-1.44-.55s.51-.95,1-1.08a1.8,1.8,0,0,1,1.66.2c.49.32,1,1.26,1.59.65s0-1.23-.41-1.57-1.27-.37-1.59-.72a1.08,1.08,0,0,1,.4-1.58c.68-.35,1.28.09,1.76.55.72.69,1.38,2.85,2.6,2.62,2.23-.41-.07-3.62.07-4.72.33-2.42,2.62.85,2.84,1.76.37,1.57-.08,4.67,2.4,3.84a1.86,1.86,0,0,1,2.29.43,2.81,2.81,0,0,1,.64,3.05c-.46,1.25-2.13.62-3.17.91a5.71,5.71,0,0,0-2.75,1.75c-1.12,1.44-1.87,4.29-2.2,6.12-.42,2.3.84,4.77,2,6.6a7.17,7.17,0,0,0,1.1,1.46c-.4.75-1.51,1.3-2.23,1.83-.95.71-1.74,1.63-2.54,2.31a2.13,2.13,0,0,1-2.5.52,2.92,2.92,0,0,1-.76-.69l-.34-.48a1.1,1.1,0,0,0-.17-.25.87.87,0,0,1-.16-.3c-.06-.12-.14-.23-.2-.35a2.86,2.86,0,0,0-.45-.66,6.18,6.18,0,0,0-.95-1.08,1.55,1.55,0,0,1-.24-.19.83.83,0,0,0-.22-.2l-.52-.27a2.07,2.07,0,0,0-.58-.23,2.15,2.15,0,0,0-1.06-.14A1.6,1.6,0,0,1,131.13,38.89Z"/><path class="cls-3" d="M52.51,80.16c.39-.34.39-1.5.41-2a7.09,7.09,0,0,0-1.05-2.92,9.58,9.58,0,0,0-1.78-2.35,11,11,0,0,0-1.5-1.47,3,3,0,0,0-1.89-.6c-.25,0-.76-.14-.93,0s-.07,1.13,0,1.46c.37,1.21,1.45,2.17,2.08,3.25.36.6.88,1.25-.16,1.31a2.41,2.41,0,0,0,.64.41c.31.19.63.43,1,.65A11.64,11.64,0,0,1,51.52,80"/><path class="cls-7" d="M68.57,67.6c-.06.28,0,.38.3.32C70,67.2,70.5,65.33,71,64.23a21.52,21.52,0,0,0,1.81-5.1,18.52,18.52,0,0,0-.27-8.08,8.91,8.91,0,0,1-.15-1.43,2,2,0,0,0-.78-1.19c-.67-.64-1.49-1.09-2.18-1.69a35.16,35.16,0,0,0-5.87-3.66,31.35,31.35,0,0,0-7.49-2.65,30.19,30.19,0,0,0-7.79-1.14c-2,0-3.92.18-5.87.3a20.79,20.79,0,0,0-5.67.77c-1.49.53-2.34,1.66-3.55,2.57a19.65,19.65,0,0,1-2.38,1c-.55-.78-2.09.15-2.67.44a5.37,5.37,0,0,0-2.77,3.47c-.76,2.39,0,4.56.81,6.82.35.91.74,1.83,1.15,2.72a3.67,3.67,0,0,1,.39,2.21c-.19.78-1,1.23-1.41,1.87a2.72,2.72,0,0,0-.18,2.28c.56,1.25,2.75,2.15,4.06,2.33a15.81,15.81,0,0,1,2.35.4c1.29.39,2.17,1.55,3.46,1.93a19.67,19.67,0,0,0,2.88.32c.73.08,1.45.37,2.17.4a5.82,5.82,0,0,0,2.51-.38,7.84,7.84,0,0,0,1.56-.63c.5-.32,1.08-.92,1.72-.48"/><path class="cls-6" d="M62.54,133.13c-.12-.12-.72,0-.87,0a2.89,2.89,0,0,0-.35.11,3,3,0,0,1-.42,0l-.51.11c-.49.08-1,.23-1.45.34a36.18,36.18,0,0,1-4.16.73c-.3,0-.58.1-.89.13s-.67.12-1,.16-.4,0-.62,0-.47.09-.71.12-.66,0-1,.08l-1.23.17c-.3,0-.61,0-.9.09s-.47.17-.72.2-.72.13-1.09.17-.92.1-1.38.17A63.33,63.33,0,0,0,36.81,138c-4,1.18-8,1.58-11.79,3.31a15,15,0,0,0-2.61,1.26,5.36,5.36,0,0,1-1.46,1c-1.22.38-1.55-.72-2.39-1.46a33.78,33.78,0,0,0-6.44-4.62c-2.19-1.14-4.54-2-6.82-3C4.19,134,3.08,133.41,1.94,133c-.65-.23-1.55-.29-1.94-.82a4.84,4.84,0,0,1,2.29-1.29c1.26-.46,2.53-1.06,3.79-1.58,3.8-1.55,7.73-2.93,11.48-4.57l.26-.11c2.87-1.25,5.8-2.34,8.7-3.49,1.46-.57,2.91-1.16,4.34-1.79a5.45,5.45,0,0,0,1-.47,4.82,4.82,0,0,1,.69-.45,14.12,14.12,0,0,0,2-1.14,5,5,0,0,0,.5-.29,2,2,0,0,1,.37-.29,4.68,4.68,0,0,0,1.2.61c.63.3,1.25.63,1.89.93.88.43,1.7,1,2.57,1.41.39.19.71.46,1.08.68s.61.42.92.62c1.47.92,2.91,1.91,4.39,2.81.39.23.77.5,1.14.75a1.64,1.64,0,0,1,.47.61A3.66,3.66,0,0,0,50,126a10.51,10.51,0,0,1,1.09.91,23.33,23.33,0,0,0,3.69,3A20.91,20.91,0,0,0,59.71,132,7.45,7.45,0,0,1,62.54,133.13Z"/><path class="cls-7" d="M39.54,126.88c.13.3-1.2,1.2-1.48,1.43-.52.46-1,.94-1.58,1.36s-.88.88-1.35,1-.65.11-1,.17-.87-.05-1,.17a13.25,13.25,0,0,0,.94-1.69,5.87,5.87,0,0,1,1.7-1.52c.59-.41,1.21-.83,1.8-1.21.39-.24.4-.19.8,0a3.29,3.29,0,0,1,.87.55"/><path class="cls-3" d="M67.31,63.8c.35.16.45.76.55,1.11a14.78,14.78,0,0,0,.85,2.42,16,16,0,0,0,2.43,4A9.29,9.29,0,0,0,76.34,74c-.22,1.34,1.83.09,1.94,1,0,.19-.71,1.08-.84,1.25a17,17,0,0,0-1.09,1.44c-1.36,2.09-3.51,3.51-5,5.39-.73.93-1,.71-2,.19s-2-1.24-3-1.91a11.45,11.45,0,0,0-6-1.6l.45,0"/><path class="cls-8" d="M64.77,93.05a17.45,17.45,0,0,1-.54-2.38,18.91,18.91,0,0,1,0-3.45,25.76,25.76,0,0,1,.36-2.93,11.74,11.74,0,0,0,.49-2.09c0-.75-.57-.53-.65.08a1.55,1.55,0,0,1-.07.43c0,.14-.13.27-.18.4a6.52,6.52,0,0,1-.43.83c-.19.3-.41.57-.61.85s-.54.69-.82,1-.47.57-.73.82-.59.57-.87.87-.56.47-.84.72-.63.65-1,1a8.55,8.55,0,0,1-1.46,1.16,13.08,13.08,0,0,1-1.75.89,21.42,21.42,0,0,1-3.31,1.42c-1.26.29-2.53.62-3.84.84s-2.55.85-3.87,1.06a21.36,21.36,0,0,1-4.3-.14,20.1,20.1,0,0,0-2.8,0,13.62,13.62,0,0,1-2.38.41,8.76,8.76,0,0,0,2.4-1.44c.62-.48,1.23-1.5,2.11-1.47-.07-.6,1.53-1.48,1.94-2a19.7,19.7,0,0,1,2.9-3.49c.43-.35.89-.81,1.32-1.13.81-.6.74-.39,1.61-.1a1.82,1.82,0,0,0,2.35-.85c.6-.82,1-1.59.41-2.51,1.11-.06,1.21.83,2.05,1.08,1.68-2.59-1.27-4.79-3.4-6a25.38,25.38,0,0,0-3.77-1.48,3.48,3.48,0,0,0-3.51,1.34c-.22.44.23,1.12.15,1.41-.25.9-.68.48-1.2.55-1.63.22-.94,1.24-.43,2.42s.07.89-.75,1.43c-.66.42-.64.66-1.09,1.29-1.48,2.05-4.45,3.59-6.45,5.1a49.74,49.74,0,0,1-8.18,5.56A14,14,0,0,0,19.71,97a3.4,3.4,0,0,0-1,3.26c.15,1.47.68,1.34,2.06,1.58a32.52,32.52,0,0,0,4.3.23l4.82.25a102.66,102.66,0,0,0,10.36.19c1.66-.09,3.4.15,5,.08s3.43,0,5.17.09a41.72,41.72,0,0,1,5,.3,44.66,44.66,0,0,0,7.09.91,12.63,12.63,0,0,1,2.13,0c1.15.22,2.24.72,3.41.89.71.09,1.38.27,2.11.33-1.53-.86-2.23-2.7-2.86-4.24-.54-1.3-.9-2.67-1.37-4a30.83,30.83,0,0,1-1-3.22C64.88,93.49,64.83,93.27,64.77,93.05Z"/><path class="cls-3" d="M62.47,55.21a2.76,2.76,0,0,1,.83,1.87c.47-.38.5-.76,1.29-1a6.68,6.68,0,0,1,2-.26c1.14,0,2,1,2.59,1.89,1.58,2.47,2.36,7-1.74,7.12a6.91,6.91,0,0,1,1.15,2.47c.35,1.85-.1,3.73.23,5.56a4.48,4.48,0,0,1-.35,3.54A9.67,9.67,0,0,1,61,81.06c-.71,0-1.43,0-2.14,0-2.46-.09-5.09-.54-7-2.2-.75-.64-1.33-1.45-2.14-2S48,76.47,47,76.49a7,7,0,0,1-1-.16c-.79-.11-1.58-.28-2.42-.32a6.18,6.18,0,0,1-1.91-.28c-.51-.19-1-.47-1.52-.63-.73-.22-2-.22-2.28-1.11s1-1.68,1.48-2.23,1.34-1.3,1.92-2c.46-.58,1.37-1.39,1.08-2.19-.16-.42-.54-.71-.74-1.12a4.17,4.17,0,0,1-.32-1.26c-.18-1.19-.25-2.39-.36-3.59-.09-1-.52-1.93-.61-2.92a3.21,3.21,0,0,1,.63-2.31,9.56,9.56,0,0,1,3-2.37,22,22,0,0,1,5.49-2.5c1.8-.55,3.62-1,5.47-1.43a9.4,9.4,0,0,1,1.77-.14,6.46,6.46,0,0,1,2-.15c.94.28,1.54,1.55,1.88,2.34a12.17,12.17,0,0,0,1.32,2.34C62,54.7,62.25,55,62.47,55.21Z"/><path class="cls-8" d="M51.54,75.55c.82-.24,1.35.57,2.17.34.17-1.68.42-2.28,2.09-1.8.6.18,1.26.63,1.94.44.5-.13.83-.69,1.27-.88,0,.93-1.61,2.77-2.46,3.33a5.83,5.83,0,0,1-2.72,1,4.19,4.19,0,0,1-1.11-.16c-.49-.09-1,0-1.48-.13C51,77.66,51.54,75.69,51.54,75.55Z"/><path class="cls-7" d="M58.24,74.85c.2.08.34.25.52.34a.67.67,0,0,0,.44,0c.34,0,.6-.23.85.07s0,.62-.17.93a2.43,2.43,0,0,1-2.1.83,5.49,5.49,0,0,1-.58,0c-.21,0-.42-.1-.64-.12-.47,0-1,0-1.46,0-.18,0-.24-.13-.17-.32s.3-.29.48-.39a7.76,7.76,0,0,1,.92-.44l.49-.25c.19-.1.14-.13.22-.32a.81.81,0,0,1,.55-.47A1.27,1.27,0,0,1,58.24,74.85Z"/><path class="cls-8" d="M59.31,58.19c.13.11.13.13,0,.06-.38-.29-.49-.73-.94-1a14.81,14.81,0,0,0-1.26-.79,6.31,6.31,0,0,0-2.88-.92,2.14,2.14,0,0,0-2.19,1,4.48,4.48,0,0,0-.71,2.38c.66-.32,1.22-.76,2-1.06a5.41,5.41,0,0,1,2.45-.32c1.78.09,2.1,1.36,3.29,2.28"/><path class="cls-8" d="M44.87,61q0,.15.09.06c-.33-.45-1.38-.31-1.89-.51-.22-.09-.84-.58-1.09-.53s-.2.29-.37.47a3.83,3.83,0,0,0-.87,1.59A3.06,3.06,0,0,0,41,63.69c.15-1.37,1.17-1.35,2.19-1.65a3.23,3.23,0,0,1,1.31-.22c.4,0,1.12.25,1.11,0l-.15.23"/><path class="cls-9" d="M53.1,61.93c.46.82,3.94-.44,4.12-1.39-.65-.23-1.67.39-2.29.64a6.19,6.19,0,0,1-2.14.77c0,.1,0,.15.14.14"/><path class="cls-9" d="M42,65.92a3.08,3.08,0,0,0,2.75-1,16.54,16.54,0,0,0-2.19.26c-.57,0-1.34.13-1.95.22.67.25.74.65,1.54.7"/><path class="cls-8" d="M52.78,61.37c0,.22-.49.6-.62.71a6.31,6.31,0,0,1-1.61.88,3.63,3.63,0,0,0,1.68-.52,13.74,13.74,0,0,0,1.08-.88c0,.38-.08.95-.58.89,0-.08.14-.11.21-.14l.46-.24a3.24,3.24,0,0,0,.66-.51c.11-.12.34-.27.37-.45.17.14.09.45.12.65a3.61,3.61,0,0,1,.22-.44c.1-.15.45-.68.63-.62s0,.43,0,.63c0-.09.29-.55.38-.57s.16.27.21.39.12-.28.17-.38a.83.83,0,0,0,.13-.14c.07,0,.06,0,.11.07s.19.19.31.1a1.14,1.14,0,0,0,.17-.37c.13,0,.21.11.33.13s.14-.06.23-.1a3.26,3.26,0,0,1-.6.57,3.33,3.33,0,0,1-1.15.6c-.25.08-.49.17-.73.27s-.38.2-.61.14a3.22,3.22,0,0,0-1,0c0,.14-.21.28,0,.38l.21,0c.21,0,.43,0,.64,0a3.1,3.1,0,0,0,.86-.07,6,6,0,0,0,.8-.31A2.78,2.78,0,0,0,57,61.15a1.67,1.67,0,0,0,.45-.78c0-.31-.37-.23-.57-.22a16.5,16.5,0,0,0-1.68.31,6.72,6.72,0,0,0-1.38.51,4.68,4.68,0,0,0-.79.33.11.11,0,0,0,.08,0"/><path class="cls-8" d="M41,65.17a3.4,3.4,0,0,1-.5.42,1.48,1.48,0,0,1-1,.47,8.86,8.86,0,0,0,1.35-.23,1.29,1.29,0,0,0,.64-.36,2.36,2.36,0,0,0,.29-.48.92.92,0,0,1-.07.54c-.06.13-.27.35-.43.31s.52-.18.63-.22a1.12,1.12,0,0,0,.41-.37c.06-.09.15-.31.24-.35a.68.68,0,0,1-.25.57,2.84,2.84,0,0,1,.57-.58c0,.17,0,.57-.15.64,0-.13.36-.21.47-.28a1.52,1.52,0,0,0,.37-.39,1.61,1.61,0,0,1,0,.44c.19-.08.33-.4.52-.43,0,.1,0,.2,0,.3s.31-.17.39-.25.19-.21.24,0-.64.6-.85.7a3.38,3.38,0,0,1-1.21.31,4,4,0,0,1-1.41-.33c-.14.34.5.5.72.56a2.89,2.89,0,0,0,1.43,0,1.92,1.92,0,0,0,.88-.72,1.86,1.86,0,0,0,.37-.71,9.28,9.28,0,0,0-2.11-.23,2.24,2.24,0,0,0-1,.33c-.18.1-.41.37-.62.4,0,0,.06.06.11.08"/><path class="cls-8" d="M54.18,61.29c-.14.15-.25.16-.26.4a.9.9,0,0,0,.42.73,1,1,0,0,0,.82.08,2.17,2.17,0,0,0,.73-.36c.34-.33.5-.9,0-1.13-.22-.1-1.13-.25-1.06.23"/><path class="cls-8" d="M41.93,65c-.06.17-.12.23-.06.43a.87.87,0,0,0,.35.47,1,1,0,0,0,1.26-.08c.82-.93-1.07-1.07-1-.72"/><path class="cls-8" d="M63.77,85.23a2.9,2.9,0,0,0-.27,1.07,24.18,24.18,0,0,0-.06,2.82c.09,1.31.18,2.63.28,4a22.59,22.59,0,0,0,.91,4.44,15.7,15.7,0,0,0,.88,2.93,14.4,14.4,0,0,0,1.82,2.5,6.26,6.26,0,0,0,2.19,1.72,30.21,30.21,0,0,0,2.93,1.53c1.3.46,2.57.9,3.85,1.42,1.66.69,3.27,1.46,4.91,2.2s3.24,1.7,5,2.36a18.58,18.58,0,0,0,5.08,1.33,43.89,43.89,0,0,0,7.06.34c1.8-.14,3.57-.28,5.36-.51,2.21-.28,4.4-.73,6.6-1a49.52,49.52,0,0,0,7.38-1.86c1.48-.46,3-.81,4.44-1.38a17.46,17.46,0,0,1,3.62-1.26,22,22,0,0,0,2.79-.49,15,15,0,0,1,4.07-1c.29,0,.59,0,.88,0a8.52,8.52,0,0,1,1.75.28c.51.14,1.31.53,1.84.36.42-1-.91-3.14-1.21-4.12a99.36,99.36,0,0,1-2.19-11.07c-.44-2.42-1.93-4.37-2.76-6.66a23.68,23.68,0,0,1-1.21-4.93c-.24-1.68-.27-3.09-2.2-3.42-1.69-.29-2.93,1-4.34,1.74-1.77.92-3.6,1.06-5.47,1.65A56.45,56.45,0,0,1,110,81.94c-2.26.4-4.54.69-6.81.93a33.63,33.63,0,0,1-5.85-.05,10,10,0,0,1-2.51-.24,9.2,9.2,0,0,0-2-.62c-.44,0-.85.07-1.3,0A3.7,3.7,0,0,1,89,80.2a15.36,15.36,0,0,1-1.21-2.82,20.48,20.48,0,0,0-2-3.78,15.68,15.68,0,0,0-2.62-2.72,7.54,7.54,0,0,0-3.26-2,10.62,10.62,0,0,0-3.55-.74c-1.22.09-1.89,1-2.71,1.76a4.43,4.43,0,0,0-1.2,2c-.22,1,.74,1.09,1.35,1.79a2.47,2.47,0,0,1,.56,2.18,6.67,6.67,0,0,1-.65,1.41c-.23.45-.44.94-.69,1.39A9.1,9.1,0,0,1,71.15,81c-.57.49-1.41,1.21-2.14.89A16.25,16.25,0,0,1,67,81c-1.28-.75-2.48.29-2.7,1.62a9.88,9.88,0,0,1-.09,1.54A9,9,0,0,1,63.77,85.23Z"/><path class="cls-9" d="M92.86,82c-.37,0-.72,0-1.09,0a44.84,44.84,0,0,1-5.52,7.57,72.67,72.67,0,0,0-7.93,12.15c-1,1.85-1.91,3.73-2.8,5.62l.78.31c1.66.69,3.27,1.46,4.91,2.2s3.14,1.64,4.79,2.29c.13-1.16.31-2.33.52-3.48a106,106,0,0,1,4.06-14.41c.36-1.08.72-2.15,1.14-3.2s.89-2.17,1.31-3.27a21.66,21.66,0,0,0,1.47-5.29A6.59,6.59,0,0,0,92.86,82Z"/><path class="cls-9" d="M89,80.2a7,7,0,0,1-.44-.81,21.79,21.79,0,0,1-2.87,2.39c-.93.65-1.87,1.27-2.82,1.9S81,85,80.08,85.68a60.79,60.79,0,0,1-6.25,3.75q-1.65.85-3.3,1.68c-1.06.53-2.11,1.09-3.19,1.56s-2.34,1-3.47,1.6a26.94,26.94,0,0,0,.76,3.25,15.7,15.7,0,0,0,.88,2.93,14.4,14.4,0,0,0,1.82,2.5,6,6,0,0,0,1.82,1.52l.16-.24a37.31,37.31,0,0,1,3.12-3.88c1.32-1.47,2.61-3,4-4.42,1.68-1.76,3.46-3.42,5.22-5.08a56.41,56.41,0,0,0,8.59-9.43A4,4,0,0,1,89,80.2Z"/><path class="cls-9" d="M73.7,73.52l1.34-.4c2-.6,4.1-1.1,6.11-1.78L83,70.7a7.21,7.21,0,0,0-3.06-1.85,10.62,10.62,0,0,0-3.55-.74c-1.22.09-1.89,1-2.71,1.76a4.43,4.43,0,0,0-1.2,2C72.28,72.8,73.09,73,73.7,73.52Z"/><path class="cls-9" d="M85.8,73.58c-.63.52-1.3,1-1.93,1.41a38.52,38.52,0,0,1-6.1,3.36c-2,.88-4.19,1.63-6.35,2.42l-.27.24c-.57.49-1.41,1.21-2.14.89l-.29-.11a40.47,40.47,0,0,0-4.44,2,1.59,1.59,0,0,1-.07.38,9,9,0,0,1-.44,1,2.9,2.9,0,0,0-.27,1.07c0,.32,0,.65,0,1,4.41-1.8,8.89-3.42,13.29-5.24q3.45-1.42,6.81-3.05a41.35,41.35,0,0,0,4-2.18,23.07,23.07,0,0,0-1.77-3.21Z"/><path class="cls-9" d="M102.32,82.94a31.26,31.26,0,0,1-3.49,0A78.89,78.89,0,0,1,96.74,93c-1.78,6.75-4.1,13.58-4.92,20.56a38,38,0,0,0,6.48.29l1-.09c.42-1.22.83-2.46,1.23-3.7C103.33,101.39,105.45,91.8,102.32,82.94Z"/><path class="cls-9" d="M116.27,86.92a22.26,22.26,0,0,0-1.93-4.35c-.24-.41-.52-.86-.83-1.3-1.15.24-2.3.46-3.51.67-1,.17-1.93.32-2.9.46a30.77,30.77,0,0,1,3.3,5.69,26.9,26.9,0,0,1,1.53,12,41.64,41.64,0,0,1-2.94,12.4l1.27-.19a27.38,27.38,0,0,0,2.81-.56c.42-.83.81-1.68,1.16-2.54a40.59,40.59,0,0,0,3-11.4A26.3,26.3,0,0,0,116.27,86.92Z"/><path class="cls-9" d="M128.58,86.69a40.6,40.6,0,0,0-1.9-5,11.64,11.64,0,0,0-2.51-3.76c-.35.22-.69.45-1,.63a15.45,15.45,0,0,1-3.77,1.2l.22.27a16.06,16.06,0,0,1,2.14,3.84c2.63,6.46,2.62,13.81,1.12,20.54a41.53,41.53,0,0,1-1.4,4.92c.22-.08.44-.15.65-.24a17.46,17.46,0,0,1,3.62-1.26,22,22,0,0,0,2.79-.49l1.22-.39a44.69,44.69,0,0,0,.69-5.78A40.67,40.67,0,0,0,128.58,86.69Z"/><path class="cls-8" d="M77.33,67.74a5.44,5.44,0,0,1,1.34,0,2.28,2.28,0,0,0,.59.11,4,4,0,0,1,.59.16,8,8,0,0,0,1.2,0c.32,0,.57.12.88.15a2.59,2.59,0,0,1,1.48.74c.47.44,1,.81,1.45,1.23a4.47,4.47,0,0,1,.43.44,4.94,4.94,0,0,1,.45.6c.1.14.26.24.37.4s.2.29.3.44c.23.36.49.69.7,1.07a14.91,14.91,0,0,1,.78,2c.24.61.29,1.21.52,1.82a6.57,6.57,0,0,1,.49,1.77,9,9,0,0,0,.4,1.93c.08.3.07.59.15.89s0,.71,0,1a4.42,4.42,0,0,1,.15,1v3.3c0,.47-.15.84-.14,1.31,0,.31,0,.62,0,.94,0,1.13,0,2.27,0,3.4,0,.33-.11.65-.09,1a3.91,3.91,0,0,0,.14.68c0,.13.09.25.12.38s0,.24,0,.36a2.24,2.24,0,0,1,.06.52,10.39,10.39,0,0,0,0,1.58,50.72,50.72,0,0,1,.2,7.19v9c0,.8,0,1.61,0,2.42,0,.41.07.82.13,1.22a5.47,5.47,0,0,1,.21.91,3.53,3.53,0,0,0,0,.46,4.86,4.86,0,0,1,.07.55v.47a8,8,0,0,0,0,1.2c0,.14.07.24.08.39s0,.33,0,.49c0,.43,0,.86,0,1.28,0,.26.18.51.14.76a2.15,2.15,0,0,1-.58.91,1.93,1.93,0,0,1-.78.6,12.26,12.26,0,0,1-1.59.38c-.2,0-.39.15-.59.19s-.29,0-.45.06c-.55.14-1.12.26-1.67.45a17.87,17.87,0,0,1-2.5.61c-.4.07-.82.11-1.21.21a5,5,0,0,1-.93.21,15.54,15.54,0,0,0-2.24.34c-.71.13-1.44.25-2.16.31a16.1,16.1,0,0,0-2,.36c-1,.2-1.91.55-2.88.71s-1.95.37-2.95.45c-.37,0-.73.06-1.11.07-.54,0-1.05.15-1.59.15a2.84,2.84,0,0,0-1,.11,2.86,2.86,0,0,1-1.09,0,4.57,4.57,0,0,0-1.33.06c-.32.07-.21.38-.21.66a2,2,0,0,1-.17,1.07,8,8,0,0,1-.56.74c-.17.21-.33.29-.52.09a5.89,5.89,0,0,1-.51-.67c-.16-.21-.31-.39-.48-.58s-.1-.21-.3-.22a.68.68,0,0,0-.37.07,3.08,3.08,0,0,0-.5.37,1.19,1.19,0,0,0-.49.65,1.68,1.68,0,0,1-.33.7c-.44.46-1-.47-1.27-.72a1.54,1.54,0,0,0-.67-.48,1.09,1.09,0,0,0-.44,0c-.16.06-.15.15-.23.26-.19.27-.46.13-.7.08a1.23,1.23,0,0,1-.6-.33,4,4,0,0,1-.27-.31c-.12-.14-.33-.18-.44-.32s-.07-.17-.15-.25-.11-.06-.14-.1a2.77,2.77,0,0,1-.2-.34,2.07,2.07,0,0,1-.24-1.09,1.87,1.87,0,0,0-.21-.8,2.87,2.87,0,0,1-.3-.94,3.94,3.94,0,0,0-.16-1c0-.19-.13-.37-.18-.56s-.06-.2-.07-.29,0-.21,0-.31c-.06-.34-.17-.67-.24-1a11,11,0,0,1-.06-2.29,2,2,0,0,1,.27-1.14,3.56,3.56,0,0,1,.48-.69c.24-.22.58,0,.85,0s.59,0,.87,0,.47.4.74.22.29-.51.44-.72.49-.12.72.05.49.26.7.45.3.28.52.21.21-.26.3-.35.46.06.71.05h1.09a1.27,1.27,0,0,1,.87.22,4.68,4.68,0,0,1,.78.88c.18.24.35.44.67.42s.75-.14,1.12-.2l1.4-.19a8.22,8.22,0,0,1,1.48-.13,13.9,13.9,0,0,0,2.14-.26c.44-.06.88-.09,1.32-.15s1,0,1.44-.07.81-.06,1.21-.11a7.91,7.91,0,0,0,1-.26c1.24-.26,2.45-.51,3.67-.78.47-.1.91-.29,1.38-.41a8.36,8.36,0,0,0,1.17-.33c.79-.33,1.68-.48,2.49-.77a3,3,0,0,0,1.59-1.46,5,5,0,0,0,.37-.73,2.65,2.65,0,0,0,.14-.62c.06-.31.27-.56.28-.88a6.94,6.94,0,0,0-.16-1.19c-.11-.9-.19-1.81-.24-2.72,0-.75-.05-1.5-.1-2.25,0-.29,0-.59-.08-.89-.17-1.41-.51-2.84-.6-4.24,0-.53-.12-1.06-.11-1.6,0-.32.07-.64,0-1A17.82,17.82,0,0,0,81.37,97c-.13-.51-.33-1.06-.51-1.58-.24-.68-.44-1.38-.71-2-.13-.31-.17-.58-.3-.88a5.71,5.71,0,0,1-.3-1c0-.26-.08-.53-.14-.78s-.33-.62-.42-1c-.33-1.24-.7-2.48-1-3.74a5.25,5.25,0,0,0-.21-.91,12.35,12.35,0,0,0-.75-1.5c-.46-.93-.81-1.93-1.19-2.89s-.72-1.93-1.11-2.89c-.17-.44-.27-.89-.4-1.34a5,5,0,0,1-.19-.61c0-.28-.05-.58-.1-.85a8.27,8.27,0,0,1-.15-1.57,3.87,3.87,0,0,1,.11-.89c0-.27,0-.55,0-.81a5.16,5.16,0,0,1,.42-.92A12.93,12.93,0,0,1,75,69.55c.22-.38.61-.61.86-1a3.83,3.83,0,0,1,.7-.75,1,1,0,0,1,1.08-.14c.21.09.7.18.72.45l-.13,0"/><path class="cls-3" d="M52.39,128.28c-.22-.07-.3,0-.5.08-1.12.36-2.35.37-3.44.78s-2.18.83-3.24,1.29a12.81,12.81,0,0,1-3.71,1.07c-.53.05-1.73.42-2.13,0-.19-.21-.2-.5-.47-.71s-.51-.31-.74-.5a8.27,8.27,0,0,0-2.29-1.53c-.52-.21-.93-.32-1.18-.82-.12-.26-.44-.82-.33-1.08a2.15,2.15,0,0,1,2,.7,4.34,4.34,0,0,0,.85.7c.38.18.8.23,1.16.39.06-.39-1.14-1-1.43-1.24s-1.37-1.42-.86-2c.24-.28,1.35.08,1.71.1a5,5,0,0,0,1.46-.14c.5-.15.89-.44,1.39-.56s1.24-.32,1.88-.47,1.27,0,1.84-.22c.33-.11,1-.49.94-.93s-1-.28-1.31-.14a6.15,6.15,0,0,1-1.68.74c-.76.09-2-.71-1-1.35a6.63,6.63,0,0,1,1.73-.57,3.83,3.83,0,0,0,.58-.16,6.15,6.15,0,0,1,.71-.28,4.71,4.71,0,0,1,.92-.2l.93-.08a2,2,0,0,1,.44.05,3.23,3.23,0,0,0,.76,0c.43,0,.86-.06,1.29-.1a22.44,22.44,0,0,1,2.32-.19h.45c.09,0,.07,0,.08.13s0,.47,0,.7a10.36,10.36,0,0,0,.25,1.33c.16.67.36,1.33.51,2a18.61,18.61,0,0,0,1,4.13c0-.13,0-.27,0-.41"/><path class="cls-7" d="M47.28,120.7c-.36.84-1.33,1.42-2,2a26.34,26.34,0,0,1-2.11,1.85c-.47.34-1.09,1.22-1.65,1.29-.74.1-1.43-.67-2.11-.6a7.66,7.66,0,0,0,1.69-1.1c.61-.42,1.18-.92,1.75-1.39s1.14-.94,1.74-1.38,1.13-1.22,1.88-1.5c.22.37.88.59.91,1a.23.23,0,0,1-.19-.06"/><path class="cls-8" d="M34.18,129c-.1.16-.23.3-.34.45l-.42.66c-.18.29-.47.5-.67.79l-.23.34c-.06.07-.16.13-.18.21A13.14,13.14,0,0,1,34,131a6.77,6.77,0,0,0,.77-.22c.23-.07.46-.15.69-.21,0-.12-.23-.33-.31-.42l-.39-.48c-.12-.15-.23-.3-.34-.46a1,1,0,0,0-.12-.16c0-.06-.07-.15-.12-.18l0,0"/><path class="cls-8" d="M65.8,58.67c0-.44,0-.9.45-1s.87.44,1.08.85a9.13,9.13,0,0,1,.41,1.32,2.63,2.63,0,0,1,.11,1.39c-.38,0-.65,0-.84-.33s0-.59-.2-.77a1.71,1.71,0,0,0,.75.89c.13-.72-.31-2.9-1.43-2.64,0,.19-.08.38.06.48"/><path class="cls-7" d="M134.07,108.33c.58.58,2,.52,2.76.7,1.35.3,2.65.7,4,1,2.71.65,5.23,1.77,8,2.22,6,1,12.39.55,18.34,2a34.38,34.38,0,0,0,8.07,1.4c1.71,0,3.27-.46,5-.41,1.18,0,2.36.12,3.54.18a18.21,18.21,0,0,0,5.22-.14,27.12,27.12,0,0,1,5.18-.68c0-.18.09-.35.14-.53,1-.16,1.94-1.43,2.89-1.95s2.32-1,3-1.79c1.76-2.11-.93-6-1.37-8.32-1-5.07-3.74-8.84-6.59-13.07-2.18-3.25-3.34-7.16-5.92-10.18a118.3,118.3,0,0,1-8.19-10.44,58.27,58.27,0,0,0-8.33-9.74c-4.82-4.53-9.88-8.89-14.93-13.2a27.56,27.56,0,0,0-5.95-4.21c-2-1-4.19-2.55-6.38-2.6-1.3,0-2.45,1.17-3.45,2-.7.6-2.29,1.35-2.7,2.12-.61,1.19,1.44,2.45,2.19,3.38s1.46,2.36,2.36,3.45c1.81,2.2,4.24,3.77,6.17,5.92,2.35,2.62,5.07,4.59,7.52,7.12,3,3,6.23,5.53,8.74,9,2.34,3.22,4,7,6.19,10.38,2.31,3.55,5.42,7.84,5.91,12.13-.71-.91-3.09-.79-4.15-1a17.36,17.36,0,0,1-3.57-1,104.63,104.63,0,0,0-10.89-3.65c-2.88-.85-5.55-1.87-8.28-2.78-2.27-.75-4.78-.93-7.07-1.64A26.32,26.32,0,0,0,138,82.85a35.93,35.93,0,0,0-3.89-.19c-1-.06-2.88-.29-3.56.77-.58.91-.13,3.26.13,4.18a43,43,0,0,1,1.62,11.58c0,1.55,0,3,.08,4.49.08,1.16-.25,3.61.42,4.58"/><path class="cls-7" d="M128.2,77.16a67.22,67.22,0,0,1,7.78.38c2.12.36,4.38,1.07,6.41,1.63,3.69,1,7.53,1.68,11.29,2.62a140.4,140.4,0,0,1,14.08,4.47c2.15.78,4.34,1.4,6.54,2,1.38.4,2.56,1.14,3.9,1.59,1.89.63,4.1.44,6.07.61a53,53,0,0,1,6.4.91c5.49,1.2,11.28,1.23,16.91,1.52,2.21.11,7,1.24,8.76-.18a20.62,20.62,0,0,0,3.46-4.14c.65-.87,1.48-1.49,2-2.41a12.39,12.39,0,0,1,1.78-2.52c4.69-4.76,8-10.73,12.9-15.33s9-9.82,13.83-14.41c1.59-1.53,2.59-3.41,4.81-1.71,1,.73,1.88,1.65,2.8,2.42.75.63,2.37,1.65,2.49,2.58-2.14,1.6-3.83,5.46-4.84,7.93-2,4.75-5.51,8.39-8,12.87C244,84.69,240,91.29,236.08,97.79a59.18,59.18,0,0,1-4.23,6.45c-1.32,1.65-1.92,2.13-4,2.47a21.73,21.73,0,0,1-4.77,0l-12.25-.62c-6.07-.3-12.05-1.25-18.11-1.58-6.21-.34-12.39,0-18.57-.88-2.09-.29-4.23-.3-6.34-.4-1.21,0-2.42-.51-3.6-.51a20,20,0,0,0-3.9.44c-3.3.69-6.64.35-10,.88-2.29.36-5.53.2-7.66,1-.87-.78-1.23-2.81-1.81-3.81a54,54,0,0,0-3.22-5.15c-1.52-2-3.49-3.67-4.93-5.75-.89-1.28-1.59-3-2.71-4"/><path class="cls-5" d="M119.86,4.06A14.63,14.63,0,0,1,122,5.84c.63.54,1.25,1.14,1.92,1.62.82.58,1.54,1.27,2.34,1.87,1,.77,2,1.7,3,2.5.63.51,1.27,1,1.88,1.53.13.11.27.2.39.32a3.06,3.06,0,0,0,.36.36c.18.14.49.48.73.39s.41-.26.65-.32l.86-.24a2.84,2.84,0,0,1,.5-.06,1.7,1.7,0,0,0,.32-.1c.18,0,.39-.06.58-.09a1.56,1.56,0,0,0,.42-.08c-.31,0-.4-.21-.65-.36-.4-.26-.82-.48-1.2-.76s-.45-.39-.7-.58-.64-.5-1-.74c-.89-.64-1.77-1.29-2.67-1.91s-1.85-1.31-2.76-2a26.06,26.06,0,0,0-2.16-1.5A11.35,11.35,0,0,1,123.79,5c-.19-.14-.4-.22-.59-.34l-.66-.43c-.38-.24-.75-.51-1.13-.74s-.76-.42-1.13-.64c-.56-.31-1.1-.64-1.65-.95s-.83-.49-1.25-.69a9.49,9.49,0,0,1-1.07-.61,7.66,7.66,0,0,0,1.08,1.05,12.34,12.34,0,0,1,1.9,1.79"/><path class="cls-10" d="M115.88.06c.08,0,.27,0,.39,0s.29.08.45.1c.4,0,.78.08,1.18.09.24,0,.46.07.7.08s.56,0,.84,0c.51,0,1,0,1.52,0,1.13-.06,2.29.05,3.42,0a10.19,10.19,0,0,1,1.11,0l1.1.06a11.64,11.64,0,0,0,1.18,0c.29,0,.57-.12.87-.14a9.37,9.37,0,0,1,1.06,0c.65,0,1.28.1,1.91.13a24.31,24.31,0,0,1,3.1.24,1.2,1.2,0,0,0,.25.68,6.31,6.31,0,0,1,.42.71A6.5,6.5,0,0,0,136,3.15a4.28,4.28,0,0,0,.67.91,3.41,3.41,0,0,1,.41.36,1.34,1.34,0,0,1,.26.41l.06,0a3.09,3.09,0,0,1-.36.7,4.68,4.68,0,0,1-.27.55.38.38,0,0,1-.54.16A3.78,3.78,0,0,0,135.4,6a5.74,5.74,0,0,1-.91-.22c-.43-.14-.9-.19-1.34-.33-.62-.21-1.24-.43-1.85-.66A12.79,12.79,0,0,0,130,4.42c-.54-.15-1.09-.21-1.63-.39s-1.11-.3-1.66-.48a33.75,33.75,0,0,1-3.52-1.17A31.06,31.06,0,0,0,118.66,1c-.57-.16-1.13-.3-1.7-.47-.22-.07-.44-.14-.67-.19L116,.25a1.59,1.59,0,0,0-.3-.06.07.07,0,0,1,.06,0"/><path class="cls-5" d="M115.49,0c.16.31.49.29.77.3a5,5,0,0,1,.66.11c.41.08.82.24,1.23.32l1.62.31a7.51,7.51,0,0,1,.94.21c.31.09.63.22.94.32a8.49,8.49,0,0,0,1,.22c.78.14,1.56.33,2.34.46.36,0,.73.11,1.09.18s.79.2,1.19.29.78.2,1.18.27a4.08,4.08,0,0,1,.77.17c.17,0,.3.17.47.23.51.17,1.05.21,1.57.36a11.62,11.62,0,0,0,1.68.34c.32,0,.64.06,1,.12s.77.14,1.15.18c.54.06,1.09.19,1.63.23a1.63,1.63,0,0,1,.45.06c.12,0,.25,0,.38.07a1.36,1.36,0,0,1-.08.44,4.65,4.65,0,0,1-.44.74c-.09.17-.16.36-.25.53-.28.54-.74,1-1,1.5a4.52,4.52,0,0,0-.28.53c-.61-.24-1.29-.36-1.91-.62s-1-.37-1.5-.59-.76-.36-1.15-.5a12.14,12.14,0,0,1-1.19-.45c-.36-.17-.73-.31-1.1-.47s-.69-.3-1-.44c-1.45-.56-2.85-1.24-4.33-1.75-.76-.26-1.5-.65-2.25-.95s-1.58-.72-2.39-1.05c-.62-.25-1.18-.51-1.78-.82a9.22,9.22,0,0,0-.91-.39c-.11-.05-.69-.21-.5-.43"/><path class="cls-10" d="M115.4.3a2.69,2.69,0,0,0,.34.17c.14.09.26.19.39.28.35.27.68.55,1,.8s.61.38.91.57a5.07,5.07,0,0,1,.44.37c.17.16.36.29.54.44.81.66,1.62,1.33,2.47,1.93.24.17.5.31.73.49a10.46,10.46,0,0,0,1,.74c.57.33,1.1.76,1.67,1.1,1.14.68,2.2,1.49,3.36,2.15s2.34,1.42,3.52,2.1c.38.22.71.53,1.1.72s.78.41,1.17.64c.66.4,1.34.81,2,1.16.91.47,1.77,1.07,2.7,1.5.14.07.28.11.42.17s.23.15.35.21.38.25.47.24c.07-.31-.14-.67-.22-.95s-.23-.76-.31-1.15c-.15-.76-.52-1.47-.72-2.22s-.31-1.72-.56-2.54a1.07,1.07,0,0,0-.2-.38c-.11-.1-.31-.09-.44-.15-.3-.14-.57-.31-.86-.46-.74-.4-1.54-.73-2.3-1.09-.92-.44-1.91-.69-2.84-1.13s-1.82-.74-2.73-1.08-2-.69-2.93-1c-.53-.19-1.08-.34-1.62-.51a10.81,10.81,0,0,1-1.76-.62,8.86,8.86,0,0,0-1.37-.54L120.54,2a6,6,0,0,1-.69-.21c-.91-.37-1.89-.61-2.8-1-.31-.14-.66-.21-1-.32l-.31-.09a1.21,1.21,0,0,0-.35-.09"/><path class="cls-10" d="M80.7,146.36c0-1.05.41-2,.56-3a21.8,21.8,0,0,1,.83-4.33c.53-1.49,1.9-1.61,3.26-1.38.53.09,1.13-.08,1.58.25s.62,1,.9,1.46a2.35,2.35,0,0,0,1.55,1,3.25,3.25,0,0,0,1.6-.13c.53-.08,1-.2,1.36.24s.44,1.46.92,1.91c.24.22.43.07.68.23a8,8,0,0,1,.68.73c.27.25,1.24.95,1.25,1.37,0,.15-.39.43-.47.54-.31.41-.47.84-.8,1.25A5.57,5.57,0,0,1,92.67,148c-1.44.72-1.52,1.72-2.08,3.19-.07.18-.14.35-.2.54-.6,0-1.14.34-1.73.37a2,2,0,0,1-1.4-.69,4.87,4.87,0,0,0-1.74-.68,10,10,0,0,0-1.06-.33c-.13,0-.35,0-.44-.11.09,0,.13-.07.17-.14a6.19,6.19,0,0,0,.3-.57c.1-.2.21-.4.3-.61,0-.06.06-.14.09-.19s-.33,0-.38-.05a1.1,1.1,0,0,1-.35-.11,2,2,0,0,0-.41-.2,1.4,1.4,0,0,0-1.24.35,3,3,0,0,1-1.25.92,7.57,7.57,0,0,1-1.46.19c-1,.1-3.06.57-2.7-1.1.11-.5.44-.94.52-1.45a7,7,0,0,0-.07-1.59,2.53,2.53,0,0,1,.25-1.29c.17-.37.44-1.33.79-1.54a8.37,8.37,0,0,1,2.87.13"/><path class="cls-1" d="M84,141.89c0,.51-.4,1.08-.23,1.59s.71.47,1.14.63A5.07,5.07,0,0,1,87,145.76a2.85,2.85,0,0,0-.56-1.39c-.29-.31-.77-.37-1-.7a4.35,4.35,0,0,1-.6-2.85,7.7,7.7,0,0,0-1.11,1.63"/><path class="cls-1" d="M89.51,144.06a2.9,2.9,0,0,0,1.24.67c.21.62-1.89,2-2.41,2.42-.32.25-1.07.95-1.49,1-.63,0-1-.6-1.75-.29.07-.22.15-.42.22-.64a5,5,0,0,1,1.38.17c.19-.33.17-.65.41-.93a1.18,1.18,0,0,1,1-.46c.07,0,.38.18.53.21a1.78,1.78,0,0,0,.69,0c.36-.08.67-.42,1-.52a.77.77,0,0,0-.36-1"/><path class="cls-1" d="M82.06,148c.07.09,0,.05,0-.1,0,.35.39.49.7.39a3.22,3.22,0,0,0-1.84-.79c-.27,0-.39.24-.62,0s0-.64-.08-.9c-.49.25-.51,1.17-.47,1.68a6.34,6.34,0,0,0,1.43,0c.43,0,.95-.52,1.3-.34,0,.2.11.18.15.27"/><path class="cls-1" d="M86.94,137.7c0,.17.12.59.1.87s-.37.62-.32,1c.35,0,.5.26.8.38,0,.36,0,.74,0,1.11a.18.18,0,0,0,.23,0A3,3,0,0,0,88,139.8a2,2,0,0,1-.23-.06,4.89,4.89,0,0,1-.39-1.44"/><path class="cls-1" d="M90.34,150.48c0-.51.22-.94.22-1.44s-.26-1,.1-1.41a6.74,6.74,0,0,1,1.17-.85,1.89,1.89,0,0,1,1.44-.18c0,.18.14.24.19.36a1.21,1.21,0,0,0,.14-.76c0,.62.23,1.21-.22,1.58s-1.17.57-1.65,1a4.82,4.82,0,0,0-1,1.25c-.3.62-.12,1.26-.56,1.8a15.24,15.24,0,0,0,.25-2"/><path class="cls-1" d="M81.32,142.77c.26.18.14,1,.45,1.45-.55-.06-1.31.4-1.82.2a1.73,1.73,0,0,0-.26-.83c.28,0,.56,0,.84,0a1.44,1.44,0,0,1,.64-.81"/><path class="cls-10" d="M89.24,140.32c0-.07.06-.12.1-.18a3.15,3.15,0,0,0,.31-.41c.14-.22.29-.42.44-.62a3.4,3.4,0,0,1,.23-.3c.11-.11.22.05.3.13a6.42,6.42,0,0,0,.55.62,3.15,3.15,0,0,0,.81.51c.13.06.19.1.21.24s0,.1,0,.15.16.1.2.19"/><path class="cls-8" d="M56.42,75.71a4,4,0,0,1,1.2,0,1.45,1.45,0,0,0,1.1,0,3.46,3.46,0,0,1-1.33.07c-.24,0-.46,0-.7-.08s-.36-.11-.57.06h.12"/><path class="cls-6" d="M272.06,31.86a16.65,16.65,0,0,0,1.54,3.72c.78,1.87,1.62,3.73,2.3,5.66.82,2.31,1.67,4.58,2.5,6.88.34,1,.68,1.88,1,2.85.41,1.27.69,2.62,1.13,3.89,1.32,3.74,2.54,7.5,3.89,11.22.52,1.46,1,3,1.51,4.39.3.8.43,2.37,1.26,2.78.34-.38.19-1,.28-1.43a12.21,12.21,0,0,0,.32-1.26,13.38,13.38,0,0,1,.72-2.71c.22-.65.4-1.37.68-2a5.49,5.49,0,0,0,.58-1.13c.08-.44-.2-.48-.45-.81-.45-.56-.65-1.27-1.08-1.85a34.12,34.12,0,0,1-2.32-3.73c-1.43-2.47-2.77-5-3.95-7.59-.47-1-.82-2-1.34-3-.41-.77-.85-1.55-1.32-2.29a21.13,21.13,0,0,1-1.13-2.29c-.36-.77-.73-1.51-1.13-2.27a55.18,55.18,0,0,1-2.46-5,21.65,21.65,0,0,0-1.22-2.46,8,8,0,0,1-1.12-2.1.15.15,0,0,1,.13,0"/><path class="cls-3" d="M278.76,53.21c.11,1.17,1.68,1.82,2.05,3a3.12,3.12,0,0,1,0,1.89,1.17,1.17,0,0,1-1,.33,1,1,0,0,1-.65-.16c-.35-.22-.49-.52-.78-.78"/><path class="cls-8" d="M48.87,29.69C52.08,27,55.79,22,59.75,26.21,66,33,68.85,42.28,70.49,50.74c-1.37-2.38-5.74-3.23-8.26-3.79-3.08-.69-6-1.56-9.16-2.15-5.41-1-13-1.9-17.32,2.46a6.7,6.7,0,0,1,.6-2.84c.56-.88,1-1.82,1.57-2.7.44-.69,1-1.31,1.43-2,.59-.93,1.57-1.49,2-2.51a9.57,9.57,0,0,1,2.16-2.75A71,71,0,0,1,48.87,29.69Z"/><path class="cls-8" d="M52.52,73.26c.23-.14.39-.72.61-1a2,2,0,0,1,.95-.66,1.91,1.91,0,0,1,1.39.15,3.26,3.26,0,0,0,1.26.29A1.87,1.87,0,0,0,58,71.78c.4-.2.63-.29.7-.76a.82.82,0,0,0-.37-.85,2.3,2.3,0,0,0-.57-.11c-.17,0-.4.18-.2.32,0-.41.52-.61.86-.51a1,1,0,0,1,.62.91,1.61,1.61,0,0,1-1.57,1.74,6.18,6.18,0,0,1-1.31-.15,8.19,8.19,0,0,0-1.4-.24,2.62,2.62,0,0,0-2.12,1.3h0"/><path class="cls-8" d="M51.35,73.69c.09.11-.14,0-.23,0a3.53,3.53,0,0,0-.4-.08,3.35,3.35,0,0,0-1.18,0,2.43,2.43,0,0,0-1.07,1.21,3.08,3.08,0,0,1-.7,1.26c-.48.4-1,.66-1.46.12a1.77,1.77,0,0,0,1.42.72c.59,0,.7-.77.89-1.27a3.37,3.37,0,0,1,1-1.43,2.17,2.17,0,0,1,1.86-.48"/><path class="cls-6" d="M56.72,157.7c-.43-.42-.82-.87-1.26-1.28a2.16,2.16,0,0,0-.33-.27.27.27,0,0,0-.08-.07L55,156l0-.06a.18.18,0,0,0-.07-.05h0a.6.6,0,0,0-.13-.09c-.08,0-.18-.09-.25,0l0,0,.08,0a1.76,1.76,0,0,1,.2-.09,2.34,2.34,0,0,1,.24-.09l.33-.1c.09,0,.18-.06.27-.09l.14-.05.14,0a4.72,4.72,0,0,0,.53-.18l.29-.08.12,0,.08,0,.19,0,.2,0c.94-.23,1.87-.33,2.8-.53s.25-.31,1.31-.51.17-.08,1.16-.37a23.82,23.82,0,0,1,2.93-.95,1.87,1.87,0,0,0,1-.54,3.33,3.33,0,0,1,.68-.58c0,.08,0,.21,0,.3.45.16.58-.28.73-.58s.51-.37.94-.46c.23,0,.86-.23,1,0s0,.53-.17.68c-.3.4-.93.65-1.06,1.17-.51.17-.44-.71-.92-.5-.31.14-.16.42-.13.67s0,.5-.34.74c-.63.47-1.38.74-2,1.17-1.14.77-.67.92-1.71,1.83-.35.3-.69.66-1,1s-.94.59-1.39.92c-.75.57.49,1.08-.28,1.65-.49.37-.4.21-.87-.13a7.38,7.38,0,0,0-1.18-.55A7.87,7.87,0,0,1,56.72,157.7Z"/><path class="cls-6" d="M52.87,155.48a4,4,0,0,0,1.14-.41,3.6,3.6,0,0,1,1.11-.4c.45-.13.88-.31,1.33-.42s1-.3,1.58-.41,1.17-.28,1.76-.42c.83-.2-.29-.35.54-.51s1.52-.29,2.28-.43c.93-.19.08.09,1,0a4.63,4.63,0,0,1,.91,0,3.73,3.73,0,0,0,1.18-.3,5,5,0,0,0,1-.42,3.74,3.74,0,0,1,1.18-.55c0-.09-.25-.39-.38-.41s-.34.33-.65.2c-.08-.19,0-.41-.22-.57s-.47-.17-.59-.05.25.92-.49.72c-.17-.41,0-.91-.69-.82-.11.25.2.5-.07.69s-.43-.21-.59-.41-.61-.67-.75-.12.44.37.7.45a.28.28,0,0,1,0,.22c-1.38.12-1-.56-2.31-.41s-1.07.24-2.57.46-3,.28-4.55.55a22.85,22.85,0,0,1-5.28.51,12.71,12.71,0,0,0-1.51-.06c-.29,0-.56.13-.84.17a7.38,7.38,0,0,1-1.41,0l-1.57-.06a3.66,3.66,0,0,0-.81,0,2.75,2.75,0,0,0-.41.11c0,.1.13.19.19.24a5,5,0,0,0,.46.34c.21.14.43.27.65.39s.53.34.81.47.72.36,1.08.52.82.3,1.23.45l1.3.43.37.12a4,4,0,0,1,.44.27l.55.31a2.62,2.62,0,0,0,.39.15.28.28,0,0,0,.13,0,.61.61,0,0,0,.18-.05,7.31,7.31,0,0,0,.78-.18Z"/><path class="cls-1" d="M65.2,150.48c0,.05,0,.1,0,.14a.34.34,0,0,0,0,.17.33.33,0,0,0,.15.16c.18.12.21.41.42.48s.13,0,.18.07,0,1-.16.91c0-.11,0-.09-.08-.13s-.07,0-.07-.06.11-.11.13-.17a1.39,1.39,0,0,0-.18-.77.85.85,0,0,1-.08-.24.57.57,0,0,0,0-.26.63.63,0,0,0-.14-.27c-.07,0-.17-.07-.15.05"/><path class="cls-1" d="M66.52,150.55l0,0c0,.14,0,.29,0,.43a1.53,1.53,0,0,0-.06.56.19.19,0,0,0,.11.15s.11,0,.15,0-.06.21-.11.28.15-.06.19-.1.18-.16.27-.23a.76.76,0,0,1,.34-.16c0-.05-.07-.07-.11-.09l-.22-.16c-.08-.05-.14-.12-.22-.18s-.1-.07-.1-.11,0-.11.06-.17,0-.1,0-.15a.28.28,0,0,1-.07-.09s0-.09-.07-.11a0,0,0,0,0,0,0"/><path class="cls-1" d="M63.94,150.27c0,.09.06.15.11.21a2,2,0,0,1,.38.39.91.91,0,0,1,.19.5,1.07,1.07,0,0,1-.09.47c0,.1-.12.18-.18.28s-.07.08,0,.12.08,0,.11,0a1.66,1.66,0,0,0,.31.12.57.57,0,0,1,.26.08.87.87,0,0,0,.1-.42c0-.16.13-.44,0-.6s-.18-.15-.25-.21-.3-.21-.43-.34-.24-.36-.39-.52a.87.87,0,0,0-.21-.17c-.09-.06-.15,0-.22.06s0,0,0,0"/><path class="cls-1" d="M68.14,151V151c.13,0,.14.5.14.59a1.35,1.35,0,0,1-.08.4l-.07.18c-.06.33.53.14.52.28a2.12,2.12,0,0,0,.12-.45.67.67,0,0,0-.17-.59c-.07-.09-.18-.15-.24-.24a2.52,2.52,0,0,1-.15-.34h.05"/><path class="cls-1" d="M69.21,150.62a.56.56,0,0,1,0,.1.71.71,0,0,1,0,.25c0,.13-.16.23-.16.36,0,.29.57-.15.61.06.07-.08.15-.12.19-.23a.23.23,0,0,0-.08-.29c-.11-.07-.48-.06-.45-.27"/><path class="cls-11" d="M68.56,152.48c.09.09-.15.1-.19.1a1.47,1.47,0,0,1-.42-.06.2.2,0,0,0-.13,0s-.11,0-.15,0,0-.19,0-.27a.27.27,0,0,1,.18-.23.49.49,0,0,1,.29.08.72.72,0,0,1,.24.28.81.81,0,0,0,.12.18.7.7,0,0,0,.19.06"/><path class="cls-12" d="M19.67,141.8l0,0a1.07,1.07,0,0,0,.84.6,1.09,1.09,0,0,0,1-.65,2.52,2.52,0,0,0,.14-.54,1.3,1.3,0,0,0,0-.52,1.08,1.08,0,0,0-.35-.41c-.22-.08-.34.18-.52.13"/><path class="cls-12" d="M19.21,141.81a1.29,1.29,0,0,1,.2-.43,2,2,0,0,0,.23-.28,1.11,1.11,0,0,1,.22-.3c.14-.12.19-.26.34-.38a1.13,1.13,0,0,0,.25-.24c.05-.05,0-.12.13-.17-.21.17-.42.39-.65.54s-.5,0-.46-.24.16-.22.25-.35l.21-.33c.08-.1.17-.15.11-.29a.22.22,0,0,0-.3-.13"/><path class="cls-12" d="M19.31,139.48c0-.13-.16-.36-.27-.41s-.31,0-.42.14-.05.27.07.42.3.2.51,0a1.2,1.2,0,0,0,.26-1.06c0-.14-.06-.3-.2-.34s-.34.14-.48.24"/><path class="cls-12" d="M18.21,139.28l0-.05,0-.11a.44.44,0,0,0,.1-.19,1.2,1.2,0,0,1,.15-.24c0-.07,0-.18.09-.25s.16-.16.18-.32c-.15.06-.24.22-.38.31s-.09.08-.2,0a1.24,1.24,0,0,1-.18-.22c-.13-.15-.16-.21-.34-.19a.22.22,0,0,0-.14.4c.13.18.24,0,.37-.12a.65.65,0,0,0,.21-.39.83.83,0,0,0,0-.62s-.14-.19-.19-.2-.17.13-.22.17"/><path class="cls-12" d="M18.48,140.83c0-.33,0-.93-.31-1.13l-.05,0"/><path class="cls-12" d="M16,137c0-.19.24-.26.34-.38s.07-.14.12-.2a2.15,2.15,0,0,1,.28-.23c.18-.15.29-.33.46-.48a1.88,1.88,0,0,0,.26-.22c0-.06,0-.14.1-.18a3.89,3.89,0,0,0-.48.43,3.12,3.12,0,0,1-.34.45,1.45,1.45,0,0,0-.23.19c0,.07,0,.12-.11.19s-.3.32-.48.22-.34-.21-.31-.4a.62.62,0,0,1,.28-.43.52.52,0,0,1,.41,0c.17.07.39.38.16.5"/><path class="cls-12" d="M14.3,137.31a8,8,0,0,1,.61-1.1c.11-.17.27-.32.37-.5s0-.15.07-.19.14-.11.12-.23l0,0"/><path class="cls-12" d="M14.21,136.08c0-.12.09-.18.17-.24a.92.92,0,0,0,.23-.29c.08-.14.3-.43.15-.6l-.19-.1a.94.94,0,0,0-.28.21,3,3,0,0,0-.21.4.88.88,0,0,1-.2.24"/><path class="cls-12" d="M13.13,135.48v-.08c0,.06,0,.16.11.18s.24-.09.31-.17,0-.34,0-.55,0-.39.19-.46c.33-.13.37.37.36.55"/><path class="cls-12" d="M11.38,135.73c0,.12,0,.16.14.2a.86.86,0,0,0,.35-.06,1.78,1.78,0,0,0,.73-.71,3.24,3.24,0,0,0,.32-.83.65.65,0,0,0-.06-.41c0-.13-.06-.24-.22-.26a1,1,0,0,0-.7.29,2.12,2.12,0,0,0-.4.74,1.43,1.43,0,0,0-.19.69,1,1,0,0,0,0,.35c.06.11.21.29.31.13"/><path class="cls-12" d="M12.27,134.33c-.08-.13,0-.4,0-.56s-.09-.46,0-.61"/><path class="cls-12" d="M10.33,135.49c0-.21.47-.48.62-.61"/><path class="cls-12" d="M11.35,133.13c0-.07-.14,0-.21.08s-.09.13-.14.2a1.88,1.88,0,0,0-.16.23c-.08.1-.23.15-.22.29"/><path class="cls-12" d="M10.06,134.5l-.05,0c-.06,0-.21.09-.26,0s.17-.23.24-.29a1,1,0,0,1,.66-.18c-.11.08-.15.1-.17.23s0,.33-.07.44-.47-.19-.18-.32"/><path class="cls-12" d="M8.82,134.7a1.45,1.45,0,0,1,.18-.35,1.24,1.24,0,0,1,.18-.14,1.43,1.43,0,0,0,.23-.27c.08-.12.22-.18.3-.3a3.59,3.59,0,0,1,.52-.51l.33-.27c.15-.13.3-.21,0-.32a.57.57,0,0,1-.3-.21c-.16-.2-.18-.13-.36,0"/><path class="cls-12" d="M9.41,132.61c.06-.28-.51-.34-.54,0a.33.33,0,0,0,.51.31.64.64,0,0,0,.09-1c-.11-.07-.24,0-.36,0"/><path class="cls-12" d="M27.85,138.59a2.08,2.08,0,0,1,.38-.22c.13-.08.24-.22.36-.31a1.37,1.37,0,0,1-.46.2c-.16.05-.34.17-.52.08s0-.22.13-.32l.43-.35a1.14,1.14,0,0,1-.58.31c-.11,0-.12.07-.24,0s-.16-.15-.14-.26.22-.28.38-.32a.68.68,0,0,0,.27-.13c.08-.07.12-.26,0-.16"/><path class="cls-12" d="M26.5,137.1V137a.34.34,0,0,0,.13.34c.11.08.23,0,.35,0a.48.48,0,0,0,.32-.53c0-.15-.07-.22-.2-.22a1.65,1.65,0,0,0-.26.14.4.4,0,0,0-.2.24c0,.07,0,.3.09.21,0-.17-.4-.11-.51-.19l0-.06"/><path class="cls-12" d="M26,136.8a2.49,2.49,0,0,0,.38-.34,1.09,1.09,0,0,1,.17-.22,1,1,0,0,0,.22-.2c-.17-.15-.6.68-.9.5s0-.35.06-.5.2-.15.27-.25,0-.14.11-.19"/><path class="cls-12" d="M23.59,134.76c-.09-.09-.14,0-.12.09s.17.14.26.16a.81.81,0,0,0,.76-.17.59.59,0,0,0,.2-.8.39.39,0,0,0-.36-.16c-.13,0-.24.12-.36.09"/><path class="cls-12" d="M23,133.74v-.06a.65.65,0,0,0,.08.73.54.54,0,0,0,.79-.19.56.56,0,0,0-.1-.67c-.11-.07-.3,0-.4.08s-.3.32-.38.11"/><path class="cls-12" d="M22.66,133.76c-.05-.12,0-.28-.12-.37a.18.18,0,0,0-.29.08c-.05.13.07.23.15.32s.29.1.47,0a.8.8,0,0,0,.24-.8c-.06-.43-.47-.31-.78-.17"/><path class="cls-12" d="M21.85,133.13a1.91,1.91,0,0,0,.47-.47c.09-.17.15-.47-.07-.6a2.08,2.08,0,0,0-.49.3l-.49.41"/><path class="cls-12" d="M20.92,132.69s0,0,0,0c.4-.09.63-.57.79-.9a1.75,1.75,0,0,0-.24.23c-.08.11-.16.27-.3.33a.48.48,0,0,1-.31,0c-.14,0-.29-.21-.43-.2"/><path class="cls-12" d="M19.32,131.13a1,1,0,0,0,.18-.23,1.22,1.22,0,0,1,.27-.24l.53-.45c-.16.13-1,1-1.16.59-.06-.14.14-.39.25-.48s.25-.34.15-.48l-.06,0"/><path class="cls-12" d="M19,130.13c.11-.13-.08-.12-.14-.17s-.17-.19-.35-.08,0,.56.26.54a.57.57,0,1,0-.11-1.14"/><path class="cls-12" d="M20.22,130.75s0,0,0-.06-.61-.13-.77-.15a2.53,2.53,0,0,1-.53-.12c-.12,0-.42-.13-.49-.24a1.55,1.55,0,0,1,.61-.05c.14,0,.66.14.75,0-.29-.23-.83,0-1.13-.14.12-.19.31-.21.5-.26a2.3,2.3,0,0,0,.28-.06c.07,0,.11-.1.19-.09-.25-.13-.66.11-.88,0a2.78,2.78,0,0,1,.48-.42"/><path class="cls-12" d="M23.34,140c0-.19.17-.2.28-.25s.21-.19.34-.25.25-.07.35-.12a1.4,1.4,0,0,1,.47-.24c.24,0,.71,0,.55.32s-.37.44-.64.23-.43-.55-.74-.75a.62.62,0,0,0-.4-.15.57.57,0,0,0-.38.22.2.2,0,0,0,.08.3c.15,0,.36-.16.4-.29a.79.79,0,0,0,0-.48c-.08-.15-.35-.27-.5-.14"/><path class="cls-12" d="M21.93,138.12a.65.65,0,0,1,.06-.24c.06-.09.11-.1.15-.19a2,2,0,0,0,.13-.25c0-.1,0-.17.08-.25-.1-.14-.41.09-.55.12s-.34,0-.47.1"/><path class="cls-12" d="M21.05,137.08l0-.05c-.07-.07-.29-.19-.38-.14a.19.19,0,0,0,0,.31c.22.18.57-.16.62-.36s-.05-.54-.4-.5a1.41,1.41,0,0,0-.41.07,2.67,2.67,0,0,0-.36.32c.14-.13.7-.76.32-.91s-.58.27-.74.42c.14-.12.22-.29.37-.41s.25-.28.39-.31l.05,0"/><path class="cls-12" d="M19.25,135.5c0-.18.42-.17.54-.17s.41,0,.17.23"/><path class="cls-12" d="M22.07,138.19c0-.12,0-.13-.08-.19l-.21-.14a4.11,4.11,0,0,0-.39-.24,7,7,0,0,1-.7-.52,4.54,4.54,0,0,0-.63-.41,2.23,2.23,0,0,1-.7-.5,1.37,1.37,0,0,0,.26.2,5,5,0,0,0,.74.45l.6.33a5.26,5.26,0,0,0,.66.25,2.52,2.52,0,0,0-.5-.48c-.28-.19-.62-.38-.88-.59s-.28-.28-.43-.39-.22-.14-.27-.34"/><path class="cls-12" d="M18.32,135.06a1.1,1.1,0,0,1,.24-.6c.11-.18.33-.4.23-.62a.38.38,0,0,1-.17,0,.83.83,0,0,0-.21.17c-.13.11-.32.13-.42.25l0,0"/><path class="cls-12" d="M17.26,133.79l0,0c0,.08.09.22.15.26a.5.5,0,0,0,.36,0c.22-.07.53-.29.45-.57s-.42-.13-.59-.05a.46.46,0,0,0-.22.64"/><path class="cls-12" d="M16.9,133.82a3.07,3.07,0,0,1,.23-.39,1.32,1.32,0,0,0,.15-.29,1.67,1.67,0,0,0,.08-.2c.08-.42-.69.07-.8.23l0,.06"/><path class="cls-12" d="M15.88,132.61v-.08c-.12,0-.07.15-.08.23s-.05.22,0,.35.18.09.31,0,.31-.11.41-.27a1.06,1.06,0,0,0,.15-.67c-.12-.38-.59.12-.76.26"/><path class="cls-12" d="M15.3,133.47c.08,0,.17-.2.23-.28a2.74,2.74,0,0,0,.23-.36c.17-.31.38-.59.57-.89l0,0"/><path class="cls-12" d="M15.59,132.48a.8.8,0,0,1,.16-.35.78.78,0,0,0,.12-.22,1.12,1.12,0,0,1-.22.33.57.57,0,0,1-.47.2"/><path class="cls-12" d="M14.44,131.56s0,0,0-.06c.07.22.07.59.35.69s.42-.12.53-.24a.46.46,0,0,0-.05-.62c-.15-.12-.19,0-.32.07s-.23,0-.31.08"/><path class="cls-12" d="M14.29,131.6c.08-.06.09-.13.14-.19s.12-.11.17-.19.14-.42.27-.49"/><path class="cls-12" d="M13.9,131.36l0,0c.33-.07.35-.5.49-.73"/><path class="cls-12" d="M13.83,132.17a.11.11,0,0,1,0,0c-.08,0-.12-.06-.09-.16"/><path class="cls-12" d="M13.35,130.6l0,0c-.16.07,0,.3.14.36s.25,0,.25-.19a1.21,1.21,0,0,1,0-.6c.17-.29.43.13.37.33"/><path class="cls-12" d="M17.84,134.15a1.94,1.94,0,0,0,.24.15c0-.08-.11-.27-.15-.34a4,4,0,0,0-.44-.56,5.79,5.79,0,0,0-1-.89c-.35-.26-.72-.54-1.1-.77a8.66,8.66,0,0,1-1.24-.92,6.31,6.31,0,0,1-.53-.63l.08.09"/><path class="cls-12" d="M30,138a4.9,4.9,0,0,1,.88-.53,1.87,1.87,0,0,0,.78-.5c-.06-.11-.64.11-.77.12s-.67-.08-.66-.39a.44.44,0,0,1,.67-.39,1.94,1.94,0,0,1,.33.37s.14.12.15.17,0,.18-.12.09"/><path class="cls-12" d="M29.27,136.26a.13.13,0,0,1,0-.06c.07.53,1.08,0,.94-.36s-.73.23-.88.37a3.93,3.93,0,0,0,.45-.67"/><path class="cls-12" d="M28.32,136.69c0-.11.12-.23.17-.31a2.68,2.68,0,0,1,.45-.5,2.31,2.31,0,0,0,.29-.24c.08-.08.12-.2.21-.27l-.15.13"/><path class="cls-12" d="M29,136l0,0c-.1,0-.15-.13-.21-.2a.57.57,0,0,0-.39-.23"/><path class="cls-12" d="M26.11,134.51a1.83,1.83,0,0,1,.18-.34c.08-.1.19-.14.27-.24a1.37,1.37,0,0,1,.25-.29c.11-.09.28-.24.27-.39l0,0"/><path class="cls-12" d="M25.78,133a.14.14,0,0,0,0-.06c-.21.11-.1.55.08.6s.55-.2.62-.38,0-.36-.21-.27-.33.36-.54.44c0-.17.28-.47.2-.62"/><path class="cls-12" d="M23.44,130.66v0c-.08.12-.07.42.13.4s.39-.33.45-.47a.75.75,0,0,0,0-.49c-.11-.23-.48,0-.62,0"/><path class="cls-12" d="M22.63,131.15c.11-.11.1-.29.19-.42a2.57,2.57,0,0,0,.22-.32,2.16,2.16,0,0,1,.57-.74c-.12.1-.67.67-.78.28,0-.12.14-.33.2-.45s.13-.34.24-.38"/><path class="cls-12" d="M22,129.11l0,0c-.11.18,0,.49.24.48a.79.79,0,0,0,.64-.47c.09-.27,0-.56-.34-.38a4.35,4.35,0,0,0-.57.49,2.77,2.77,0,0,1,.22-.37c.07-.12.22-.42.35-.48"/><path class="cls-12" d="M21.76,128.88c.11-.09.13-.18.22-.28s.33-.18.34-.35c-.23.07-.61.67-.89.46.07-.26.38-.43.58-.6-.12.14-.94.51-.88.15,0-.16.25-.27.36-.37a1.37,1.37,0,0,1,.22-.19c.07,0,.13,0,.21-.06l0,0"/><path class="cls-12" d="M20.36,127.34l0,0a.34.34,0,0,0,.28.4.85.85,0,0,0,.64-.23c.09-.07.15-.09.15-.21s-.11-.16-.23-.13-.15.09-.25.15-.22.09-.33.16c-.15-.11.12-.27.19-.32a1.37,1.37,0,0,0,.22-.19c.07-.08.07-.19.17-.24"/><path class="cls-12" d="M20.17,126.66s0,0,0-.08-.14.3,0,.39.26,0,.37,0,.76-.41.61-.63-.43,0-.54,0a2.72,2.72,0,0,0-.67.45c-.34.28-.59.78-1.06.87-.12-.26.5-.68.68-.83l1-.83,0,0"/><path class="cls-12" d="M19.62,126.46c0-.18.1-.2,0-.36s-.11-.16-.24-.07-.23.17-.14.3.2,0,.31,0,.48-.21.54-.37a.28.28,0,0,0-.18-.29c-.12,0-.19.07-.31,0"/><path class="cls-12" d="M31.68,138.11c0-.14-.07-.2-.13-.31a.85.85,0,0,0-.17-.29,1.36,1.36,0,0,0-.36-.27c-.16-.11-.34-.2-.5-.33l-.6-.42c-.21-.15-.45-.24-.66-.4a2.59,2.59,0,0,1-.52-.42l-.48-.58a6.26,6.26,0,0,0-1.07-.92,3.22,3.22,0,0,1-.32-.32c-.15-.15-.3-.28-.44-.44l-.63-.76a7.21,7.21,0,0,1-.56-.66,2.4,2.4,0,0,0-.16-.27c-.06-.09-.13-.15-.19-.24a5.53,5.53,0,0,0-.6-.94c-.26-.32-.47-.67-.75-1a6.88,6.88,0,0,0-.86-.76c-.15-.12-.29-.25-.44-.36a.57.57,0,0,1-.15-.12,1.06,1.06,0,0,0-.15-.15,1.51,1.51,0,0,1-.23-.21c-.1-.13-.22-.19-.32-.3s-.26-.33-.4-.48-.19-.15-.27-.25a2.11,2.11,0,0,0-.27-.25c-.17-.14-.27-.39-.45-.5s0,0,0,.06"/><path class="cls-13" d="M33.51,137.45s0-.12.05-.18.13-.24.19-.35a1.73,1.73,0,0,0,.26-.55,4.1,4.1,0,0,1-.53.15,2.1,2.1,0,0,1-.42.15"/><path class="cls-13" d="M32.44,136.17v0a.17.17,0,0,0,.09.26c.13,0,.3-.08.41-.14s.56-.32.43-.66-.45-.22-.65-.06a.46.46,0,0,0-.1.69"/><path class="cls-13" d="M31.46,136a2.33,2.33,0,0,1,.27-.37c.15-.14.32-.27.47-.4l.69-.58-.06.06"/><path class="cls-13" d="M31.13,135.5c.09-.21.36-.37.54-.53s.51-.39.73-.61a.42.42,0,0,0,0,.1"/><path class="cls-13" d="M31.87,135.09l-.17-.2a2.25,2.25,0,0,0-.24-.21"/><path class="cls-13" d="M30.91,134.19l.88-.74"/><path class="cls-13" d="M30.63,134.76l0,0-.06,0"/><path class="cls-13" d="M30.15,133.05V133a.62.62,0,0,0-.05.27,1,1,0,0,0,.1.27c.16.22.6,0,.75-.08a.52.52,0,0,0,.19-.2.36.36,0,0,0-.18-.36c-.27-.08-.4.36-.64.36s0-.37.08-.48a1,1,0,0,1,.62-.56.75.75,0,0,1,.75.08c.21.2-.18.42-.31.53"/><path class="cls-13" d="M30,132.74v0a.18.18,0,0,0,.09,0c0-.21-.23-.58-.44-.44s-.15.12-.14.25,0,.09,0,.14a.54.54,0,0,0,.14.16c.13.06.33,0,.43-.1s.14-.16.2-.28a.49.49,0,0,0,0-.44c0-.1-.23-.31-.34-.19"/><path class="cls-13" d="M27.56,130c-.19.16-.11.29,0,.45s.25.11.45,0a.92.92,0,0,0,.27-.16c.11-.09.23-.16.22-.32s-.08-.18-.22-.16a1.28,1.28,0,0,0-.43.14c-.12.06-.2.15-.32.22s-.15.05-.2.1l.33-.28a4.21,4.21,0,0,1,.57-.4,5.1,5.1,0,0,0,.86-.6l.55-.46-.3.26"/><path class="cls-13" d="M27.22,130.05a1.92,1.92,0,0,1,.18-.22c.06-.05.15-.09.19-.15s.14-.26.07-.33-.65.4-.75.49"/><path class="cls-13" d="M26.22,128.78c-.13-.12-.14.26-.14.33a.36.36,0,0,0,.09.26c.21.22.63-.05.81-.2s.2-.15.2-.31-.05-.31-.23-.27a2,2,0,0,0-.36.17c-.16.09-.27.27-.43.34-.06-.1.2-.39.26-.49a1.25,1.25,0,0,0,.16-.24.91.91,0,0,0,.11-.25"/><path class="cls-13" d="M25.71,128.66a3.3,3.3,0,0,1,.22-.3,2.16,2.16,0,0,1,.43-.37c-.27.22-.72.61-1,.23-.17-.21,0-.37.19-.5s.12-.12.19-.17.22-.06.31-.12"/><path class="cls-13" d="M24.49,126.56l0,0a.73.73,0,0,0,.09.74c.13.18.33.14.52.07s.44-.19.5-.4.07-.29-.06-.35-.4.11-.49.17-.45.33-.69.45a5,5,0,0,0-.54.21c0-.08.27-.28.33-.33s.29-.18.43-.29.27-.23.41-.35.21-.18.14-.32-.52-.15-.63,0"/><path class="cls-13" d="M36.12,136.42c0-.21.39-.34.54-.36s.18,0,.27,0,.12,0,.19,0a.43.43,0,0,1,.28.18c.19.23,0,.53-.18.7s-.44,0-.61-.17"/><path class="cls-13" d="M35.64,136.89l0,0a.09.09,0,0,0-.13,0"/><path class="cls-13" d="M35.61,135.89a.66.66,0,0,0,0-.37.64.64,0,0,0-.22-.32c-.08,0-.28.07-.33.16a.7.7,0,0,0,0,.45.28.28,0,0,0,.29.18.89.89,0,0,0,.46-.35,1.14,1.14,0,0,0,.09-.26,1,1,0,0,0,0-.29.46.46,0,0,0-.43-.32"/><path class="cls-13" d="M34.45,133.87a.18.18,0,0,0,.07-.08c-.08-.06-.17.08-.24,0a.1.1,0,0,1,.11,0l.2-.08.28-.1a4,4,0,0,0,.93-.46,1.91,1.91,0,0,1-.56.31c-.11.06-.24.07-.35.13a1,1,0,0,1-.24.1,3,3,0,0,1-.53.18,1.53,1.53,0,0,1-.37,0c-.08,0-.11-.06-.17-.13a.51.51,0,0,1-.15-.42.45.45,0,0,1,.39-.29,1,1,0,0,1,.52.07c.12.06.4.27.19.38"/><path class="cls-13" d="M33.4,132.77l0,0c-.12-.19-.13-.39-.38-.3s-.17.09-.2.25-.09.24,0,.28.25,0,.33-.06a.92.92,0,0,0,.29-.16.58.58,0,0,0,.33-.34.29.29,0,0,0-.06-.31"/><path class="cls-13" d="M32.51,132.36v-.05a.3.3,0,0,0,.15-.07c.16-.09.34-.16.5-.25l.33-.19c.09-.06.17-.06.24-.13a.94.94,0,0,0-.44.23.69.69,0,0,1-.47.18h-.16a.59.59,0,0,1-.23-.13.71.71,0,0,1-.15-.15.32.32,0,0,1,.06-.25l0,0"/></g></g></svg>