<?xml version="1.0" encoding="utf-8"?>
<!-- Generator: Adobe Illustrator 16.0.4, SVG Export Plug-In . SVG Version: 6.00 Build 0)  -->
<!DOCTYPE svg PUBLIC "-//W3C//DTD SVG 1.1//EN" "http://www.w3.org/Graphics/SVG/1.1/DTD/svg11.dtd">
<svg version="1.1" id="Ebene_1" xmlns="http://www.w3.org/2000/svg" xmlns:xlink="http://www.w3.org/1999/xlink" x="0px" y="0px"
	 width="283.46px" height="425.2px" viewBox="0 0 283.46 425.2" enable-background="new 0 0 283.46 425.2" xml:space="preserve">
<g>
	<path fill="#245977" d="M134.116,284.862c0.095,0.668-0.773,1.927-1.062,2.614c-0.837,1.981-1.516,3.938-2.219,5.966
		c-0.604,1.742-0.922,3.533-1.57,5.26c-0.85,2.261-1.805,4.428-2.817,6.614c-1.411,3.046-3.224,5.895-5.403,8.442
		c-1.357,1.586-2.718,4.284-4.981,2.468c-2.883-2.312-3.048-6.368-3.73-9.656c-0.37-1.787-0.716-3.479-1.199-5.222
		c-0.351-1.266-0.646-2.516-0.933-3.798c-0.432-1.938-1.217-4.049-2.202-5.777c-1.707-2.991-3.997-5.877-7.042-7.598
		c-3.512-1.984-6.833-1.059-10.476-0.035c-2.494,0.701-5.088,1.839-7.71,1.914c-1.103,0.031-2.312-0.261-3.398-0.382
		c-0.87-0.098-1.758-0.374-2.617-0.55c-0.517-0.106-1.749-0.29-0.991-1.03c0.421-0.412,1.676-0.08,2.181-0.054
		c1.625,0.084,3.285,0.153,4.928,0.294c1.261,0.107,3.15,0.074,4.165-0.948c1.56-1.57-1.371-1.758-2.355-1.546
		c-1.926,0.415-4.014,0.192-5.956,0.244c-0.814,0.021-1.701,0.14-1.942-0.79c-0.26-1.005,0.588-0.98,1.374-1.054
		c1.545-0.144,3.112-0.279,4.641-0.192c0.733,0.042,4.87,0.402,4.61-1.108c-1.27-0.437-2.599-0.187-3.91-0.46
		c-0.468-0.098-1.348-0.067-1.56-0.556c-0.222-0.509,0.337-1.063,0.775-1.193c0.675-0.198,1.389,0.241,2.066,0.295
		c0.511,0.04,1.106-0.03,1.569-0.018c1.4,0.037,2.812-0.217,4.213-0.277c0.924-0.04,1.551-0.041,2.46-0.248
		c0.776-0.178,1.69-0.196,2.472-0.299c1.416-0.188,3.751-0.249,5.099,0.345c7.175,3.163,10.089,9.756,14.201,15.875
		c1.226,1.826,3.253,4.799,5.058,2.061c0.978-1.482,0.315-2.922,0.123-4.456c-0.551-4.408-1.139-11.627,1.246-15.694
		c0.491-0.837,0.65-1.003,1.608-0.815c1.385,0.272,2.482,1.157,3.565,2.043c1.285,1.052,3.001,1.794,4.112,3.006
		c1.071,1.169,1.482,2.983,3.304,3.184"/>
	<g>
		<path fill="#245977" d="M202.06,349.011c0.092-0.265,1.22-0.864,1.567-1.001c0.44-0.174,0.956-0.094,1.407-0.204
			c0.857-0.209,1.692-0.588,2.559-0.828c2.185-0.605,4.231-1.37,6.37-2.127c1.172-0.416,2.432-0.931,3.653-1.166
			c1.105-0.211,2.054,0.522,3.074,0.874c1.237,0.426,2.167-0.398,2.861-1.276c0.695-0.877,1.412-2.302,0.443-3.284
			c-0.49-0.496-1.44-0.522-2.076-0.692c-0.22-0.059-0.764-0.122-0.905-0.331c-0.236-0.352,0.202-1.008,0.295-1.442
			c0.191-0.9,0.081-2.481-0.969-2.557c-0.197,0.372-1.092,1.819-1.598,1.825c-0.805,0.008-0.107-1.714-0.251-2.245
			c-0.147-0.543-0.953-2.029-1.619-1.702c-0.371,0.182-0.365,0.752-0.437,1.108c-0.118,0.594-0.272,0.912-0.669,1.375
			c-0.808-0.533,0.57-2.253-0.957-2.578c-1.105-0.235-1.67,1.43-1.984,2.144c-0.459,1.042-0.766,2.207-1.487,3.133
			c-0.689,0.884-1.413,1.612-2.212,2.405c-1.312,1.298-2.159,2.944-3.562,4.152c-0.411,0.354-0.95,0.713-1.112,1.264
			c-0.157,0.534,0.071,1.508,0.627,1.74"/>
		<path fill="#245977" d="M73.455,249.62c-2.369,1.951-4.71,2.963-8.391,3.845c-0.74,1.034-1.915,2.339-1.6,3.781
			c0.336,1.533,1.225,1.679,1.192,3.432c-0.027,1.493-0.915,2.96-0.94,4.453c-0.024,1.393,0.748,2.448,0.44,3.904
			c4.61,3.446,12.726,4.875,18.531,4.683c2.899-0.096,5.307-0.971,8.199-1.377c0.063-0.009,0.127-0.017,0.189-0.026
			c1.842-0.244,3.686-0.334,5.527-0.561c1.066-0.132,2.158-0.313,3.21-0.539c1.623-0.347,3.251-0.874,4.906-0.994
			c1.271-0.093,2.514-0.425,3.771-0.295c0.234,0.024,0.571,0.083,0.781,0.182c0.254,0.119,0.509,0.223,0.765,0.347
			c0.644,0.315,1.23,0.668,1.933,0.815c1.08,0.225,2.322,0.199,3.369-0.104c0.521-0.151,1.032-0.326,1.544-0.512
			c0.186-0.067,0.348-0.126,0.518-0.225c0.35-0.204,0.743-0.369,0.924-0.751c0.194-0.41,0.405-0.703,0.698-1.061
			c0.654-0.799,1.212-1.667,1.584-2.635c0.351-0.914,0.538-1.878,0.718-2.844c0.235-1.269-0.087-2.39-0.566-3.562
			c-0.473-1.15-1.044-2.408-1.733-3.447c-0.566-0.857-1.256-1.96-2.152-2.48c-0.53-0.308-1.097-0.52-1.697-0.644
			c-1.211-0.249-2.358-0.4-3.581-0.128c-0.833,0.185-1.66,0.353-2.469,0.575c-0.592,0.163-1.215,0.277-1.811,0.49
			c-0.5,0.18-0.965,0.491-1.495,0.578c-0.575,0.094-1.192,0.113-1.781,0.188c-0.607,0.079-1.234,0.09-1.849,0.124
			c-1.261,0.069-2.546,0.117-3.795-0.108c-2.792-0.504-2.459-2.224-3.838-4.494c-1.104-1.818-2.798-3.476-4.41-4.611
			c-5.191-3.657-9.895-2.918-14.138,1.575C75.114,248.141,74.282,248.937,73.455,249.62"/>
		<path d="M90.545,239.843c-0.429-0.751-1.21-1.994-2.072-2.355c-0.571-0.239-0.472,0.645-0.527,1.03
			c-0.124,0.853-0.99,0.83-1.537,0.334c-0.307-0.277-0.524-0.613-0.818-0.899c-0.458-0.445-0.895-0.825-1.454-1.161
			c-0.55-0.332-1.898-1.321-2.452-0.562c-0.536,0.734,0.265,1.701,0.183,2.484c-0.119,1.122-1.115,1.479-2.173,1.504
			c-1.307,0.031-6.21-0.266-5.389,2.079c0.198,0.565,0.756,1.094,0.456,1.729c-0.38,0.806-1.098,1.405-1.416,2.268
			c-0.309,0.833,0.391,1.458,1.276,1.366c0.637-0.067,1.254-0.529,1.799-0.819c0.93-0.496,1.842-0.929,2.849-1.274
			c0.703-0.241,1.448-0.535,2.187-0.665c0.658-0.117,1.365-0.039,2.023,0.02c2.138,0.19,4.941,1.405,5.57,3.577
			c0.259,0.897,0.189,1.629,0.152,2.541c-0.062,1.479-0.655,2.799-1.457,4.03c-0.622,0.954-1.411,1.806-1.998,2.778
			c-0.278,0.463-0.984,1.4-0.026,1.49c0.246,0.023,0.508-0.064,0.758-0.051c0.209,0.01,0.637,0.222,0.799,0.104
			c0.157-0.114,0.238-0.605,0.309-0.788c0.176-0.459,0.432-0.859,0.687-1.277c0.771-1.264,1.628-2.938,3.405-2.696
			c0.695,0.094,1.258,0.32,1.853,0.67c0.571,0.336,1.01,0.674,1.691,0.708c0.575,0.029,1.199,0.043,1.743-0.159
			c0.421-0.155,1.107-0.572,1.206-1.014c0.091-0.408-0.204-0.741-0.43-1.136c-0.399-0.699-0.944-1.274-1.423-1.92
			c-0.419-0.562-0.794-1.144-1.269-1.675c-0.456-0.513-0.807-0.981-1.119-1.579c-0.292-0.556-0.669-1.128-0.901-1.707
			c-0.231-0.571-0.433-1.195-0.616-1.792c-0.069-0.223-0.085-0.47-0.136-0.699c-0.088-0.402-0.307-0.735-0.453-1.115
			c-0.107-0.277-0.098-0.554-0.159-0.838C91.475,241.509,90.983,240.613,90.545,239.843z"/>
		<path d="M64.483,259.412c-0.089-0.08,0.267,0,0.395,0.028c0.308,0.067,0.617,0.127,0.926,0.196
			c0.903,0.205,1.673,0.545,2.354,1.166c0.826,0.755,1.909,1.427,2.997,1.739c0.85,0.244,1.425,0.125,2.263,0.009
			c-0.242,0.309-0.748,0.444-1.104,0.625c-0.562,0.286-1.148,0.461-1.777,0.571c-0.537,0.096-1.2,0.147-1.746,0.035
			c-0.594-0.123-1.159-0.459-1.693-0.732c-0.958-0.49-1.592-1.341-2.544-1.786c-0.394-0.184-0.528-0.39-0.502-0.829
			c0.032-0.529,0.207-0.818,0.479-1.237"/>
		<path d="M74.225,251.159c0.36-0.611,1.082-1.314,1.68-1.706c0.367-0.24,0.749-0.394,1.104-0.648
			c0.343-0.245,0.623-0.354,1.039-0.463c2.145-0.561,4.749-0.61,6.777,0.435c0.394,0.203,1.006,0.459,1.278,0.823
			c0.293,0.389,0.247,0.926,0.192,1.369c-0.095,0.788-0.296,1.547-0.597,2.284c-0.298,0.726-0.511,1.386-1.016,2.014
			c-0.381,0.476-0.731,0.991-1.163,1.413c0.017-0.414,0.42-0.86,0.544-1.259c0.181-0.588,0.2-1.23,0.24-1.833
			c0.041-0.604,0-1.4-0.286-1.961c-0.432-0.843-1.743-1.273-2.611-1.456c-0.749-0.158-1.502-0.264-2.247-0.069
			c-0.613,0.16-1.191,0.335-1.774,0.583c-0.667,0.283-1.139,0.482-1.892,0.534c-0.354,0.024-1.2,0.248-1.434-0.094"/>
		<path d="M80.79,255.728c-0.295,0.364-1.013,0.33-1.442,0.295c-0.653-0.051-1.07-0.317-1.557-0.72
			c-0.887-0.734-1.255-1.607-0.997-2.688c-0.361,0.386-0.919,0.606-1.329,0.929c0.229,0.038,0.493-0.021,0.698-0.114
			c-0.145,0.583-0.237,1.163-0.308,1.746c0.057,0.019,0.087,0.031,0.148,0.03c0.102-0.177,0.389-0.521,0.616-0.467
			c-0.032,0.273-0.122,0.536-0.116,0.807c0.005,0.303,0.133,0.573,0.188,0.87c0.271-0.127,0.763-0.76,0.834-0.208
			c0.024,0.186-0.078,0.392-0.058,0.592c0.024,0.25,0.144,0.732,0.314,0.924c0.145-0.133,0.214-0.514,0.334-0.713
			c0.139-0.226,0.359-0.447,0.604-0.545c0.234,0.557,0.693,1.096,1.139,1.499c0.041-0.252-0.245-1.324,0.216-1.375
			c0.288,0.529,0.635,0.88,1.19,1.141c-0.194-0.472-0.665-1.23-0.647-1.698c0.512,0.476,1.225,0.785,1.93,0.611
			c-0.622-0.347-1.342-0.622-1.955-1.069"/>
		<path d="M81.972,244.49c-0.051-0.131,2.163,0.024,2.729,0.133c0.988,0.189,2.196,0.29,3.011,0.889
			c1.782,1.312,2.842,4.449,2.292,6.483c-0.681,2.517-2.493,4.372-4.096,6.367c-0.564,0.703-4.183,6.01-1.61,6.18
			c1.011,0.066,1.872-1.347,2.296-2.035c0.701-1.134,1.057-2.469,1.651-3.671c0.637-1.288,1.648-2.879,3.005-3.532
			c1.026-0.494,1.719-0.161,2.757,0.142c0.917,0.269,1.88,0.913,2.863,0.944c1.119,0.035,1.853-0.678,2.775-1.111
			c0.32-0.151,0.693-0.313,1.048-0.312c0.339,0.003,0.647-0.113,0.982-0.134c0.232-0.016,0.477,0,0.7-0.013
			c0.582-0.034,1.17-0.043,1.74-0.059c0.245-0.006,1.182,0.176,1.141-0.251c-0.018-0.19-0.34-0.352-0.492-0.461
			c-0.412-0.295-0.847-0.583-1.275-0.858c-0.816-0.526-1.624-1.096-2.355-1.73c-0.374-0.324-0.788-0.603-1.166-0.923
			c-0.111-0.094-0.245-0.194-0.299-0.332c-0.041-0.108-0.032-0.215-0.086-0.325c-0.146-0.298-0.357-0.583-0.543-0.861
			c-1.244-1.872-2.814-3.531-4.628-4.897c-0.679-0.512-2.815-1.498-2.854-2.342"/>
		<path fill="#245977" d="M57.181,282.493c-0.282-0.604-0.521-1.239-0.771-1.856c-0.258-0.637-0.477-1.308-0.773-1.927
			c-0.445-0.929-0.797-1.895-1.269-2.813c-0.324-0.631-0.666-1.259-0.988-1.88c-0.148-0.287-0.413-0.508-0.639-0.732
			c-0.227-0.227-0.384-0.518-0.623-0.73c-0.223-0.199-0.468-0.373-0.708-0.547c-0.104-0.075-0.192-0.198-0.316-0.24
			c-0.089-0.03-0.182-0.018-0.272-0.046c-0.262-0.082-0.518-0.239-0.766-0.352c-0.509-0.229-1.021-0.449-1.547-0.628
			c-1.095-0.373-2.244-0.54-3.395-0.364c-1.222,0.186-2.562,0.52-3.811,0.846c-1.246,0.327-2.636,1.184-3.955,0.542
			c-0.922-0.448-1.798-1.678-2.541-2.389c-1.115-1.067-2.19-2.103-3.185-3.16c-0.377-0.402-0.957-0.997-1.163-1.527
			c-0.267-0.687,0.039-1.284-0.116-2.008c1.332-0.646,3.326,1.778,4.303,2.569c1.625,1.313,3.102,2.485,5.273,2.657
			c0.602-1.307-2.987-3.641-3.856-4.341c-1.496-1.204-2.754-2.491-2.692-4.348c1.478-0.041,2.533,1.461,3.493,2.415
			c1.164,1.16,2.322,2.053,3.782,2.792c0.635-1.704-2.556-3.36-2.178-5.16c0.745-0.014,0.847-0.134,1.454,0.248
			c0.44,0.278,0.819,0.968,1.19,1.338c0.618,0.618,1.412,1.412,2.195,1.927c1.695,1.117,4.432,1.666,6.475,1.805
			c0.972,0.066,2.029-0.199,3.089,0.184c0.952,0.345,1.775,1.209,2.459,1.986c2.223,2.522,4.415,5.624,5.431,8.836
			c1.146,3.62,4.042,6.6,6.017,9.795c2.156,3.491,4.531,6.83,7.055,10.053c1.149,1.468,2.484,2.783,3.6,4.278
			c1.43,1.915,2.906,3.853,4.52,5.62c3.965,4.34,8.54,8.224,13.738,10.892c3.758,1.929,8.959,1.648,12.675-0.216
			c5.483-2.75,10.242-6.367,12.756-12.021c1.213-2.731,1.942-5.836,2.275-8.783c0.525-4.647,4.641-5.948,9.005-5.471
			c2.941,0.322,5.873,1.035,8.724,1.811c1.039,0.283,2.08,0.629,3.028,1.089c2.244,1.093,1.048,5.272,0.573,7.206
			c-0.761,3.102-2.109,6.054-3.706,8.821c-3.298,5.714-7.709,10.927-13.09,14.928c-3.894,2.895-9.038,4.698-13.731,5.86
			c-4.701,1.165-9.753,2.098-14.565,1.005c-1.773-0.403-2.692-1.732-4.245-2.546c-2.229-1.168-4.623-1.994-6.685-3.469
			c-1.704-1.22-3.563-2.347-5.177-3.695c-1.4-1.17-3.023-2.099-4.28-3.447c-1.635-1.752-3.482-3.329-5.21-4.975
			c-2.142-2.041-3.656-4.641-5.291-7.052c-0.29-0.426-0.576-0.854-0.874-1.274c-0.136-0.192-0.323-0.312-0.465-0.494
			c-0.197-0.255-0.363-0.544-0.537-0.816c-0.351-0.548-0.687-1.105-1.016-1.667c-0.649-1.112-1.267-2.244-1.893-3.371
			c-0.276-0.5-0.55-1.001-0.838-1.495c-0.21-0.361-0.369-0.742-0.563-1.112c-0.435-0.825-0.864-1.68-1.364-2.468
			c-0.491-0.776-0.806-1.699-1.12-2.56c-0.224-0.613-0.502-1.193-0.692-1.819c-0.095-0.309-0.236-0.602-0.337-0.909
			c-0.115-0.353-0.24-0.72-0.38-1.064c-0.497-1.228-0.899-2.488-1.467-3.691C57.194,282.521,57.188,282.507,57.181,282.493z"/>
		<path fill="#245977" d="M118.427,251.913c5.041-3.684,12.579-4.874,18.885-5.342c7.97-0.593,16.445-0.075,24.255,1.593
			c11.491,2.456,21.274,8.575,30.275,15.934c7.854,6.424,15.937,13.549,20.103,22.627c0.834,1.818,1.616,3.707,2.28,5.576
			c1.357,3.822,1.552,7.832,1.831,11.838c0.605,8.679,0.734,17.225-0.567,25.938c-1.359,9.094-3.449,18.476-9.584,25.625
			c-2.473,2.881-4.999,4.015-8.195,5.775c-4.172,2.298-7.86,5.861-11.747,8.631c2.814-1.427,4.964-2.142,8.102-2.092
			c3.08,0.048,5.804-1.844,8.795-2.357c3.068-0.528,6.105-1.772,8.986-2.926c4.932-1.975,10.183-3.104,15.033-5.188
			c4.615-1.982,9.809-3.815,14.694-5.011c1.793-0.439,3.546-0.984,5.301-1.494c2.123-0.616,2.519-0.787,3.545-2.766
			c1.617-3.118,4.146-6.813,8.352-4.709c1.478,0.739,2.323,2.65,2.815,4.109c0.494,1.469,0.211,3.862,0.884,5.018
			c0.905,1.556,1.731,2.999,2.862,4.438c1.999,2.546,4.604,2.769,7.648,2.949c1.168,0.069,4.021-0.871,4.009,1.186
			c-3.393,1.069,0.096,1.779,1.523,1.85c0.691,0.035,1.977-0.52,1.54,0.949c-0.158,0.535-1.361,0.958-1.705,1.357
			c1.15,0.425,3.569-0.118,3.605,1.521c0.026,1.2-1.876,2.03-2.794,2.574c-2.679,1.587-7.152-0.327-10.11-0.944
			c-3.704-0.772-6.23-1.866-9.204-3.991c-1.436-1.026-2.826-1.739-4.578-2.111c-5.239-1.111-10.927,2.096-15.759,3.573
			c-7.053,2.155-13.979,4.921-20.938,7.473c-7.38,2.705-15.235,4.281-22.85,6.27c-7.996,2.089-17.543,4.534-25.842,3.433
			c-6.846-0.908-15.479-9.357-12.199-15.888c1.564-3.116,4.707-5.291,7.146-7.85c2.52-2.643,4.971-5.128,7.675-7.583
			c5.138-4.665,9.325-9.635,13.846-14.54c8.368-9.078,3.555-21.567-3.739-29.853c-0.489-0.554-0.627-0.905-0.943-1.588
			c-0.333-0.716-0.811-1.285-1.252-1.945c-1.018-1.526-2.076-2.99-3.031-4.564c-1.81-2.984-3.901-5.865-5.869-8.775
			c-2.682-3.962-5.498-7.986-8.807-11.47c-1.461-1.539-3.387-2.751-5.16-3.909c-1.687-1.1-3.238-2.031-5.106-2.792
			c-1.993-0.812-4.058-1.177-6.2-0.92c-2.082,0.25-4.205,0.56-6.296,0.601c-2.134,0.041-4.188-0.454-6.292-0.9
			c-1.224-0.259-2.513-0.438-3.652-0.976c-1.172-0.553-2.098-1.628-3.071-2.457c-2.952-2.515-7.211-5.213-9.1-8.68
			c-2.224-4.084,1.775-5.576,2.017-9.582"/>
		<path fill="#245977" d="M190.653,309.562c-0.006-0.012-0.013-0.025-0.018-0.037c-0.631-1.26-1.482-2.424-2.342-3.534
			c-1.136-1.465-2.381-2.862-3.775-4.086c-0.651-0.571-1.338-1.106-2.08-1.553c-0.34-0.205-0.72-0.45-1.108-0.543
			c-0.459-0.109-0.946-0.149-1.412-0.246c-0.256-0.053-0.513-0.107-0.771-0.123c-0.307-0.019-0.919,0.278-1.004,0.592
			c-0.063,0.231,0.143,0.468,0.252,0.661c0.182,0.32,0.336,0.693,0.465,1.037c0.165,0.44,0.325,0.849,0.416,1.317
			c0.077,0.396,0.117,0.802,0.116,1.201c-0.001,0.397-0.084,0.78-0.175,1.172c-0.036,0.157-0.085,0.327-0.139,0.48
			c-0.392,1.102-1.224,2.113-1.963,3c-1.071,1.285-2.27,2.519-3.592,3.548c-6.482,5.049-13.479,9.464-20.457,13.797
			c-6.014,3.734-12.613,6.917-17.63,11.948c-3.966,3.976-8.258,12.172-3.748,17.189c6.1,6.784,13.758,2.427,20.615-0.049
			c3.439-1.243,7.222-2.492,10.807-3.035c2.398-0.362,4.799-0.535,7.273-0.821c3.914-0.454,7.513-0.875,11.396-1.119
			c0.461-0.029,0.926-0.11,1.354-0.289c1.803-0.755,2.934-2.829,3.958-4.385c0.973-1.474,2.197-3.609,1.14-5.357
			c-0.948-1.564-2.988-1.63-4.604-1.586c-2.596,0.071-5.115,0.395-7.681,0.778c-2.206,0.33-4.391,0.911-6.582,1.352
			c-1.328,0.267-2.609,0.711-3.9,1.115c-1.009,0.315-2.392,0.38-3.172,1.127c0.745-0.713,2.177-0.989,3.116-1.448
			c1.171-0.572,2.268-1.2,3.461-1.607c1.082-0.37,2.139-0.81,3.219-1.186c0.531-0.185,1.069-0.354,1.616-0.489
			c0.28-0.069,0.563-0.129,0.849-0.178c0.114-0.02,0.23-0.017,0.342-0.032c0.125-0.016,0.225-0.086,0.348-0.114
			c0.312-0.07,0.636-0.146,0.954-0.16c0.507-0.022,0.997-0.182,1.499-0.248c0.839-0.111,1.631-0.33,2.455-0.507
			c2.102-0.453,4.295-0.978,6.184-2.045c0.436-0.246,0.83-0.54,1.252-0.806c0.391-0.246,0.799-0.522,1.129-0.848
			c0.617-0.607,1.163-1.293,1.727-1.948c0.825-0.958,1.419-2.177,1.904-3.338c0.197-0.473,0.401-0.947,0.569-1.429
			c0.164-0.469,0.275-0.957,0.417-1.432c0.232-0.784,0.445-1.577,0.5-2.394c0.04-0.605,0.023-1.212-0.034-1.816
			c-0.048-0.511-0.15-0.994-0.077-1.507c0.074-0.503-0.063-1.014-0.159-1.507c-0.111-0.571-0.238-1.138-0.382-1.701
			c-0.575-2.272-1.397-4.48-2.419-6.589C190.727,309.71,190.69,309.636,190.653,309.562z"/>
		<path fill="#FF0000" d="M117.307,250.222c3.947-1.442,7.517-2.942,11.254-4.961c6.135-3.313,14.3-5.656,21.394-5.885
			c8.271-0.267,18.697,2.688,26.179,6.086c11.243,5.107,21.627,10.681,27.218,21.854c0.652,1.303,1.491,2.521,2.266,3.758
			c0.736,1.173,1.555,2.201,1.469,3.617c-0.066,1.102-1.404,1.395-2.254,1.878c-2.278,1.295-4.341,2.876-6.748,3.968
			c-2.936,1.334-5.816,2.762-8.753,4.106c-3.471,1.592-6.574,3.873-10.03,5.477c-2.088,0.97-4.281,1.869-6.298,2.959
			c-0.956,0.517-2.46,1.561-3.366,0.4c-0.33-0.423-0.312-0.945-0.463-1.435c-0.259-0.846-0.809-1.562-1.316-2.284
			c-2.316-3.29-4.873-6.416-7.508-9.47c-1.287-1.492-2.651-2.932-4.153-4.224c-2.356-2.025-1.657,1.63-1.837,3.075
			c-0.273,2.186-0.782,4.362-1.24,6.524c-0.666,3.141-1.755,6.242-3.161,9.092c-1.112,2.259-2.185,5.443-5.345,5.055
			c-5.933-0.728-11.291-3.176-16.756-5.37c-1.663-0.667-3.006-0.799-3.563-2.562c-0.373-1.175,0.212-2.612,0.569-3.757
			c0.476-1.511,1.176-3.023,1.737-4.506c0.234-0.619,0.491-1.238,0.644-1.883c0.212-0.902,0.275-1.282-0.392-1.817
			c-1.621-1.304-4.007-2.161-5.863-3.115c-3.884-1.994-7.81-3.933-11.519-6.23c4.201-1.277,11.225-4.514,8.869-10.137
			c-0.265-0.63-0.604-1.228-0.99-1.791c-0.414-0.602-0.883-1.164-1.394-1.684c-0.524-0.533-1.093-1.021-1.702-1.454
			c-0.599-0.426-1.237-0.799-1.911-1.098c-0.646-0.286-1.323-0.503-2.022-0.619c-0.264-0.043-0.53-0.072-0.797-0.084
			c-0.133-0.005-0.267-0.007-0.399-0.005c-0.065,0.001-0.124,0.005-0.185,0.02c-0.065,0.016-0.143-0.007-0.205,0.017
			c0.021-0.009,0.046-0.045,0.072-0.056c0.037-0.016,0.077-0.019,0.117-0.022c0.079-0.008,0.156-0.017,0.234-0.031
			c0.171-0.03,0.342-0.1,0.509-0.155c0.357-0.119,0.71-0.25,1.062-0.388c0.755-0.296,1.497-0.625,2.235-0.958
			c0.741-0.335,1.477-0.679,2.218-1.014c0.66-0.297,1.323-0.589,2-0.843C117.223,250.252,117.265,250.237,117.307,250.222z"/>
		<path fill="#FFFFFF" d="M150.554,281.34c-2.744-1.062-5.778-1.146-8.668-0.843c-5.436,0.57-10.628,2.301-15.705,4.174
			c0.105-0.262,0.211-0.524,0.312-0.784c1.371-1.188,2.842-2.27,4.355-3.263c2.793-1.832,5.788-3.622,9.04-4.577
			c2.705-0.793,5.59-1.186,8.429-1.004c1.836,0.117,4.628,0.365,6.091,1.78c-0.047,0.786,0.024,1.733-0.049,2.319
			c-0.175,1.39-0.443,2.776-0.734,4.158C152.761,282.47,151.735,281.798,150.554,281.34z"/>
		<path fill="#FFFFFF" d="M149.894,294.891c-2.658-1.157-5.319-2.27-8.064-3.245c-3.029-1.076-6.069-2.134-9.109-3.181
			c-2.38-0.819-4.844-1.596-7.365-1.731c0.138-0.363,0.282-0.725,0.43-1.086c3.672,0.116,7.335,0.449,10.992,0.818
			c2.458,0.248,4.929,0.456,7.374,0.823c2.433,0.365,4.925,0.833,7.202,1.788c0.253,0.107,0.507,0.221,0.762,0.343
			c-0.591,1.839-1.315,3.635-2.157,5.339C149.937,294.802,149.916,294.848,149.894,294.891z"/>
		<path fill="#FFFFFF" d="M131.225,292.257c2.663,1.298,5.363,2.508,8.085,3.682c2.562,1.104,5.133,2.202,7.677,3.351
			c-0.638,0.422-1.407,0.643-2.374,0.523c-5.933-0.728-11.291-3.176-16.756-5.37c-1.663-0.667-3.006-0.799-3.563-2.562
			c-0.247-0.775-0.073-1.664,0.175-2.508C126.801,290.129,129.024,291.185,131.225,292.257z"/>
		<g>
			<path fill="#FFFFFF" d="M144.84,260.394c0.028-2.669-0.177-5.348-0.661-7.981c-0.737-4.013-2.075-8.046-4.388-11.488
				c1.089-0.284,2.186-0.53,3.28-0.741c0.159,0.175,0.316,0.353,0.465,0.537c3.297,4.055,4.66,9.443,5.158,14.472
				c0.24,2.434,0.426,5.056-0.025,7.468c-0.533,2.858-1.906,5.464-2.526,8.293c-0.014,0.062,0.024,0.104,0.071,0.12
				c-0.126,0-0.253-0.003-0.381,0c-0.898,0.022-1.794,0.118-2.682,0.27c-0.176-0.611-0.006-1.327,0.126-1.924
				c0.185-0.85,0.426-1.687,0.663-2.523c0.271-0.954,0.611-1.94,0.695-2.935C144.735,262.774,144.825,261.588,144.84,260.394z"/>
			<path fill="#FFFFFF" d="M151.229,239.362c2.125,0.013,4.369,0.221,6.651,0.578c0.065,0.353,0.13,0.706,0.188,1.061
				c0.253,1.521,0.33,3.058,0.279,4.596c-0.104,3.21-0.694,6.373-1.363,9.504c-0.65,3.049-1.533,6.06-2.868,8.889
				c-0.644,1.362-1.37,2.688-2.199,3.951c-0.759,1.159-1.683,2.293-2.147,3.603c-0.498-0.134-1.004-0.241-1.519-0.317
				c0.83-3.269,2.372-6.306,3.264-9.555c0.805-2.928,1.192-6.012,1.31-9.045C152.999,248.156,152.494,243.665,151.229,239.362z"/>
			<path fill="#FFFFFF" d="M151.712,272.117c0.028,0.001,0.058-0.007,0.083-0.034c0.132-0.135,0.263-0.271,0.395-0.406
				c2.229-2.293,4.535-4.544,6.46-7.095c1.969-2.608,3.372-5.523,4.453-8.584c1.634-4.637,2.365-9.459,2.562-14.333
				c2.369,0.667,4.681,1.445,6.845,2.281c-1.169,5.906-4.191,11.35-7.593,16.286c-0.873,1.268-1.757,2.545-2.723,3.747
				c-0.924,1.151-1.997,2.173-3.119,3.142c-2.122,1.833-4.464,3.523-6.142,5.778c-0.423-0.259-0.862-0.488-1.313-0.692
				C151.646,272.173,151.678,272.144,151.712,272.117z"/>
			<path fill="#FFFFFF" d="M178.078,255.973c-2.059,2.616-4.413,5.063-6.791,7.404c-2.39,2.352-4.941,4.508-7.638,6.522
				c-2.541,1.897-5.176,3.778-8.105,5.08c-0.027,0.012-0.044,0.032-0.056,0.054c-0.44-0.496-0.917-0.947-1.426-1.349
				c0.045-0.027,0.091-0.053,0.136-0.08c2.663-1.564,5.238-3.277,7.599-5.249c2.485-2.076,4.734-4.421,6.777-6.912
				c2.053-2.503,3.913-5.2,5.22-8.154c1.116-2.517,1.511-5.236,2.277-7.853c0.021,0.009,0.041,0.018,0.062,0.027
				c2.327,1.058,4.616,2.136,6.835,3.278C181.396,251.188,179.882,253.68,178.078,255.973z"/>
			<path fill="#FFFFFF" d="M189.981,259.612c-4.716,4.472-10.023,8.384-15.744,11.574c-2.777,1.549-5.606,3.051-8.459,4.468
				c-1.488,0.741-3.002,1.445-4.566,2.028c-0.772,0.288-1.556,0.556-2.353,0.779c-0.045,0.013-0.09,0.023-0.134,0.037
				c-0.563-0.595-1.139-1.171-1.729-1.716c0.098-0.02,0.196-0.042,0.29-0.074c0.688-0.231,1.368-0.686,2.011-1.021
				c3.012-1.572,6.01-3.254,8.769-5.217c2.844-2.023,5.654-4.114,8.369-6.298c2.566-2.066,4.989-4.229,7.117-6.729
				c1.608-1.889,3.141-3.853,4.882-5.626c1.896,1.176,3.705,2.44,5.403,3.825C192.608,257.014,191.322,258.341,189.981,259.612z"/>
			<path fill="#FFFFFF" d="M198.797,267.402c-3.015,1.863-6.128,3.593-9.21,5.344c-3.104,1.762-6.195,3.556-9.339,5.25
				c-3.044,1.641-6.186,3.105-9.231,4.741c-1.231,0.663-2.442,1.342-3.704,1.951c-0.802,0.389-1.722,0.753-2.44,1.302
				c-0.646-0.848-1.298-1.704-1.963-2.555c0.551-0.815,2.263-0.841,3.096-0.92c1.462-0.14,2.77-0.493,4.15-0.99
				c3.12-1.124,6.176-2.483,8.942-4.277c2.666-1.728,5.114-3.745,7.449-5.872c2.483-2.264,5.048-4.415,7.656-6.54
				c1.638-1.335,3.267-2.684,4.833-4.096c1.217,1.455,2.33,3.027,3.324,4.739C201.213,266.177,199.937,266.697,198.797,267.402z"/>
			<path fill="#FFFFFF" d="M173.466,283.458c2.602-1.002,5.272-1.839,7.815-2.979c3.233-1.449,6.422-2.988,9.617-4.512
				c2.891-1.379,5.767-2.714,8.771-3.845c1.689-0.637,3.426-1.285,5.015-2.159c0.495,0.98,0.995,1.969,1.494,2.962
				c-1.99,0.802-4.051,1.447-6.094,2.125c-3.006,0.998-5.864,2.161-8.55,3.812c-2.737,1.682-5.285,3.66-8.097,5.227
				c-1.532,0.854-3.115,1.62-4.662,2.449c-1.529,0.82-2.938,1.77-4.316,2.808c-1.293,0.972-2.555,2.102-3.964,2.912
				c-0.205,0.118-0.416,0.226-0.627,0.331c-0.716-1.004-1.442-2.023-2.261-3.05c-0.517-0.649-1.034-1.318-1.554-1.998
				C168.143,285.652,170.837,284.471,173.466,283.458z"/>
			<path fill="#FFFFFF" d="M136.896,241.764c0.159,0.225,0.314,0.453,0.465,0.685c5.763,8.979,3.793,20.338,1.745,30.031
				c-0.973,0.382-1.918,0.834-2.822,1.345c0.055-0.381,0.175-0.759,0.279-1.133c0.015-0.012,0.027-0.027,0.035-0.048
				c1.268-3.59,1.615-7.502,1.581-11.292c-0.043-4.889-0.747-9.821-2.191-14.525c-0.436-1.422-0.942-2.837-1.532-4.219
				C135.257,242.308,136.071,242.027,136.896,241.764z"/>
			<path fill="#FFFFFF" d="M129.321,249.709c1.685,2.844,2.488,6.143,2.865,9.365c0.421,3.608,0.332,7.281-0.252,10.856
				c-0.532,3.252-1.439,6.541-3.119,9.41c-0.245,0.421-0.513,0.837-0.803,1.241c-1.561-0.901-3.148-1.761-4.745-2.597
				c0.51-0.778,0.922-1.622,1.268-2.444c1.049-2.486,1.648-5.155,1.983-7.824c0.372-2.946,0.439-5.945,0.14-8.909
				c-0.277-2.734-0.836-5.507-1.987-8.04c-0.445-0.978-0.991-1.942-1.659-2.81c1.122-0.49,2.235-1.006,3.354-1.561
				C127.565,247.259,128.557,248.418,129.321,249.709z"/>
			<path fill="#FFFFFF" d="M119.73,257.119c1.257,2.931,1.818,6.155,1.761,9.311c-0.053,2.94-0.606,6.067-2.262,8.563
				c-0.154,0.231-0.319,0.45-0.489,0.661c-3.206-1.642-6.356-3.275-9.271-5.08c4.201-1.277,11.225-4.514,8.869-10.137
				c-1.439-3.434-5.608-6.961-9.48-6.722c1.745-0.461,3.928-1.511,5.895-2.409C117.138,252.455,118.731,254.791,119.73,257.119z"/>
		</g>
		<path d="M196.136,343.106c-1.842-2.035-4.461-3.416-7.209-3.802c-1.064-0.149-2.174-0.458-3.186-0.055
			c-1.271,0.506-2.461,1.36-3.461,2.261c-0.369,0.332-0.863,1.398-1.288,1.483c-0.617,0.124-1.197-0.705-1.821-0.751
			c1.618-1.938,4.458-2.729,5.992-4.733c-1.513,0.376-3.263,0.139-4.856,0.334c-1.296,0.159-2.547,0.251-3.794,0.639
			c-0.849,0.263-2.57,1.218-3.484,0.961c0.964-1.539,0.918-3.742,1.15-5.497c0.363-2.77,0.51-5.321-0.056-8.098
			c-0.697-3.424-1.411-7-3.204-9.997c0.535-0.628,1.143-1.543,1.39-2.307c0.218-0.673,0.202-0.982,0.674-1.526
			c0.427-0.49,0.913-0.993,1.376-1.448c1.662-1.639,3.851-3.354,4.933-5.429c1.206,0.385,2.921-0.006,4.228-0.008
			c5.613-0.006,11.105-0.118,16.68-0.883c2.815-0.386,5.672-0.667,8.473-1.117c2.078-0.334,4.064-0.357,6.119-0.416
			c0.968-0.028,2.505-0.623,2.777,0.485c0.299,1.221-0.016,2.646-0.016,3.919c-0.002,2.054,0.288,4.181,0.586,6.201
			c0.326,2.216,1.064,4.149,1.758,6.281c1.955,6.006,2.164,10.364,0.715,16.581c-1.286,5.511-5.381,9.899-8.943,14.11
			c-2.961,3.499-6.452,7.48-10.403,10.081C202.418,355.122,199.89,347.253,196.136,343.106z"/>
		<g>
			<path fill="#FFFFFF" d="M214.697,306.739c-0.133,0.318-0.057,0.64-0.093,0.942c-0.593-0.155-1.166-0.035-1.754,0.018
				c-0.528,0.048-1.275-0.162-1.74-0.017c0.1-0.466-0.143-0.773,0.297-1.064c0.236-0.157,0.888-0.05,1.179-0.055
				c0.73-0.01,1.401-0.042,2.111-0.171c-0.101,0.042-0.204,0.054-0.312,0.035"/>
			<path fill="#FFFFFF" d="M207.431,307.038c-0.131,0.307-0.121,0.725-0.114,1.061c-1.185-0.331-2.841-0.145-3.984-0.105
				c0.132-0.417-0.084-0.692,0.217-1.02c1.118,0,2.369-0.019,3.457,0.098c-0.067-0.015-0.137-0.029-0.204-0.043"/>
			<path fill="#FFFFFF" d="M198.591,307.004c-0.169,0.294-0.025,0.871-0.167,1.295c-1.076-0.254-2.356,0.124-3.373,0.023
				c-0.195-1.006-0.046-0.947,0.919-1.042c0.669-0.066,1.635-0.053,2.232-0.236"/>
			<path fill="#FFFFFF" d="M191.466,307.825c-0.103-0.019-0.121,0.074-0.22-0.032c-0.073,0.253-0.146,0.524-0.21,0.78
				c-1.18-0.139-2.519-0.545-3.662-0.4c0.035-0.307,0.1-0.615,0.188-0.91c0.561,0.175,1.186-0.026,1.779,0.018
				c0.713,0.053,1.449,0.28,2.15,0.428"/>
			<path fill="#FFFFFF" d="M183.938,306.966c-0.253,0.268-0.365,0.892-0.641,1.095c-0.405,0.303-0.527,0.043-0.989-0.095
				c-0.665-0.199-1.573-0.142-2.103-0.589c0.674-1.615,2.295,0.45,3.416-0.11"/>
			<path fill="#FFFFFF" d="M179.197,306.084c-0.204,0.397-0.381,0.829-0.978,0.66c0.23-0.255,0.331-0.513,0.613-0.737"/>
			<path fill="#FFFFFF" d="M217.365,306.078c-0.033-0.113-0.173-0.305-0.265-0.409c-0.174,0.366-0.821,0.646-0.85,1.003
				c-0.02,0.231,0.633,1.256,0.792,1.408c0.076-0.278,0.326-0.672,0.371-0.883c0.066-0.305,0.026-0.585,0.144-0.833"/>
		</g>
		<g>
			<path fill="#FFFFFF" d="M81.354,253.756c-0.78,0.332-3.941-2.004-4.367-1.121c-0.351,0.728,0.99,1.393,1.508,1.581
				c1.02,0.372,1.65,0.009,2.632-0.188c-0.034-0.021-0.164-0.168-0.197-0.189"/>
			<path d="M81.757,254.286c-0.877,0.399-2.197,0.67-3.175,0.349c-0.599-0.198-1.796-1.309-1.725-1.971
				c0.248,1.641,3.95,2.365,5.077,1.521c-0.435,0.017-0.933-0.073-1.317-0.247c-0.143-0.064-0.291-0.109-0.437-0.18
				c-0.222-0.107-0.476-0.198-0.706-0.306c-0.258-0.122-0.487-0.274-0.766-0.36c-0.183-0.057-0.344-0.153-0.51-0.25
				c-0.328-0.193-0.716-0.154-1.066-0.27c-0.268-0.087-0.178-0.297-0.2-0.533c-0.014-0.137-0.104-0.539,0.05-0.616
				c0.122,0.075,0.285,0.208,0.388,0.316c0.1,0.103,0.183,0.376,0.337,0.392c0.329,0.034,0.028-0.588,0.12-0.735
				c0.11,0.073,0.213,0.276,0.312,0.381c0.096,0.104,0.182,0.192,0.237,0.321c0.039,0.094,0.039,0.188,0.103,0.272
				c0.159,0.212,0.223-0.018,0.258-0.187c0.039-0.188,0.084-0.375,0.116-0.564c0.074,0.16,0.052,0.354,0.1,0.529
				c0.068,0.246,0.285,0.452,0.465,0.619c0.19,0.176,0.397,0.374,0.61,0.527c0.126,0.089,0.266,0.138,0.398,0.213
				c0.229,0.129,0.444,0.238,0.692,0.34c0.081,0.033,0.349,0.182,0.439,0.121"/>
			<path d="M77.082,253.203c-0.383-0.175-0.255-0.577,0.012-0.79c0.265-0.211,0.533-0.139,0.85-0.073
				c0.431,0.09,0.757,0.164,0.749,0.683c-0.005,0.314-0.172,0.708-0.393,0.929c-0.114,0.113-0.342,0.249-0.506,0.195
				c-0.186-0.062-0.27-0.375-0.315-0.541"/>
		</g>
	</g>
	<path fill="#FF0000" d="M67.701,263.591c-0.269-0.056-0.458-0.045-0.734,0.008c-0.237,0.045-0.455,0.032-0.693,0.052
		c-0.272,0.023-0.548,0.116-0.811,0.186c-0.325,0.086-0.639,0.219-0.978,0.217c-0.164-0.001-0.426,0.033-0.552-0.085
		c-0.312-0.292,0.01-0.655,0.223-0.876c0.115-0.119,0.239-0.202,0.188-0.362c-0.05-0.155-0.202-0.281-0.209-0.453
		c-0.004-0.141,0.025-0.286,0.04-0.424c0.025-0.236,0.137-0.331,0.367-0.365c0.186-0.028,0.295,0.065,0.444,0.182
		c0.144,0.114,0.331,0.215,0.47,0.338c0.121,0.106,0.233,0.246,0.379,0.343c0.202,0.136,0.447,0.215,0.647,0.354
		c0.275,0.191,0.484,0.467,0.739,0.665c0.277,0.214,0.628,0.176,0.956,0.24"/>
	<path fill="#FD1813" d="M39.013,251.316c0.088,0.017-0.219-0.074-0.289-0.114c-0.212-0.12-0.395-0.336-0.562-0.508
		c-0.604-0.617-0.834-1.3-1.12-2.088c-0.305-0.835-0.863-1.56-1.384-2.273c-0.685-0.941-1.611-1.863-2.448-2.667
		c-0.394-0.378-1.384-1.08-1.892-0.631c-0.325,0.287-0.479,0.687-0.448,1.096c0.032,0.439,0.119,0.916,0.236,1.343
		c0.132,0.476,0.565,1.061,0.488,1.537c-0.268,0.02-0.548,0.088-0.827,0.121c-0.478,0.055-1.009-0.008-1.473,0.112
		c-0.92,0.24-2.031,1.044-2.235,2.006c-0.091,0.44,0.021,0.816,0.189,1.225c0.187,0.449,0.378,0.967,0.682,1.352
		c0.717,0.905,1.937,1.076,3.014,1.09c0.963,0.013,2.007-0.06,2.918-0.375c0.188-0.065,0.34-0.183,0.519-0.266
		c0.26-0.12,0.51-0.129,0.786-0.187c0.413-0.087,0.793-0.203,1.225-0.209c1.03-0.015,2.633-0.354,3.236,0.736
		c-0.049,0.011-0.094,0.006-0.14-0.015"/>
</g>
</svg>
