<?xml version="1.0" encoding="utf-8"?>
<!-- Generator: Adobe Illustrator 16.0.4, SVG Export Plug-In . SVG Version: 6.00 Build 0)  -->
<!DOCTYPE svg PUBLIC "-//W3C//DTD SVG 1.1//EN" "http://www.w3.org/Graphics/SVG/1.1/DTD/svg11.dtd">
<svg version="1.1" id="Ebene_1" xmlns="http://www.w3.org/2000/svg" xmlns:xlink="http://www.w3.org/1999/xlink" x="0px" y="0px"
	 width="283.46px" height="425.2px" viewBox="0 0 283.46 425.2" enable-background="new 0 0 283.46 425.2" xml:space="preserve">
<g>
	<path fill="#FF0000" d="M176.704,255.444c-0.261-0.303-0.531-0.623-0.811-0.973c-3.918-4.936-7.061-10.52-10.617-15.719
		c-3.592-5.254-6.837-10.74-10.43-15.998c-1.397-2.043-2.683-4.119-3.983-6.225c-0.718-1.163-1.526-3.472-2.502-4.241
		c0.613,0.092,1.734,1.328,2.256,1.874c1.115,1.166,2.192,2.501,3.481,3.639c4.341,3.83,8.779,7.457,12.812,11.701
		c7.33,7.717,14.632,15.207,20.799,23.854c2.089,2.928,4.278,6.236,6.998,8.613c0.767,0.672,1.639,1.211,2.462,1.805
		c0.897,0.646,1.903,1.385,2.386,2.42c0.529,1.133,0.018,2.271-0.758,3.146c-0.731,0.826-1.795,1.18-2.508,2.047
		c-0.532,0.646-1.054,1.211-1.772,1.656c-0.682,0.424-1.418,0.744-2.138,1.1c-0.752,0.373-1.598,0.479-2.43,0.373
		c-0.814-0.104-1.25-0.721-1.729-1.342c-0.917-1.189-1.757-2.416-2.547-3.693c-0.739-1.193-1.449-2.422-2.33-3.516
		c-1.718-2.137-3.055-3.85-3.98-6.465C178.723,257.69,177.794,256.708,176.704,255.444z"/>
	<path fill="#245977" d="M165.357,172.484c7.439,10.331,16.273,19.47,23.532,29.99c5.503,7.982,11.318,16.251,15.404,24.905
		c2.633,5.578,4.417,11.887,7.924,16.746c2.479,3.436,8.811,6.107,4.899,10.227c-2.854,3.008-7.075,7.314-10.743,9.078
		c-3.443,1.658-5.013,0.736-8.109-1.113c-3.762-2.246-7.272-4.941-10.993-7.295c-6.278-3.971-13.61-7.932-18.933-13.178
		c-1.692-1.67-2.681-3.822-4.16-5.666c-2.368-2.953-5.336-5.4-7.864-8.213c-4.365-4.859-8.3-10.16-12.921-14.734
		c-7.335-7.261-15.536-13.063-23.184-19.916c-5.808-5.204-12.543-10.105-19.493-13.698c-6.784-3.507-12.947-8.803-18.851-13.596
		c-2.762-2.24-6.228-4.469-7.111-8.098c-0.949-3.903,1.03-6.212,3.021-9.576c3.286-5.547,6.309-11.204,9.273-16.945
		c1.059-2.052,2.486-3.844,3.508-5.885c0.735-1.465,0.509-4.154,2.416-4.316c1.065-0.089,1.954,1.416,2.722,1.91
		c2.854,1.842,6.095,2.823,9.341,3.9c4.175,1.387,8.519,2.109,12.657,3.602c9.708,3.502,17.208,10.297,24.935,16.974
		C151.143,154.944,158.774,163.344,165.357,172.484z"/>
	<path fill="#245977" d="M201.025,228.417c5.538,4.197,12.297,8.961,19.364,4.877c3.558-2.059,6.888-5.4,11.436-5.373
		c3.699,0.023,6.832,4.148,8.466,6.883c2.401,4.016,1.759,8.189,1.209,12.809c-0.479,4.008-0.689,7.324-0.325,11.133
		c0.388,4.051,2.229,6.467-1.094,9.865c-2.986,3.053-5.361,1.684-7.321-1.602c-1.24-0.064-2.274,0.631-3.063,1.537
		c-0.367,0.422-0.812,0.928-1.035,1.445c-0.08,0.184-0.091,0.389-0.177,0.572c-0.132,0.283-0.37,0.525-0.556,0.771
		c-0.202,0.271-0.431,0.648-0.775,0.725c-0.513,0.111-1.398-0.814-1.83-0.182c-0.146,0.215-0.112,0.732-0.134,0.998
		c-0.027,0.332-0.017,0.713-0.22,1.008c-0.416,0.607-1.364,0.266-1.943,0.504c-0.787,0.32-1.495,0.799-2.313,1.051
		c-2.41,0.744-4.769-0.164-6.947-1.271c-3.977-2.02-6.747-5.01-10.259-7.652c-1.296-0.973-2.512-2.037-3.822-2.979
		c-1.172-0.844-2.467-1.393-3.711-2.139c-1.88-1.127-3.638-2.471-5.183-3.953c-0.981-0.939-3.447-2.363-3.359-3.922
		c1.654-0.799,2.709-2.881,3.681-4.324c2.782-4.133,6.364-7.992,8.216-12.646"/>
	<path d="M116.011,193.951c-0.345-0.147-0.688-0.293-1.03-0.439c-3.912-1.664-7.795-3.345-11.647-5.018
		c-1.093-0.475-2.435-1.129-2.57-2.077c-0.157-1.095,1.167-2.755,1.732-3.657c2.914-4.649,7.95-7.575,10.59-12.416
		c1.397-2.56,1.339-5.38,2.516-7.986c1.64-3.632,3.368-7.324,4.125-11.266c0.479-2.484-0.115-5.997,1.452-8.137
		c2.05-2.802,7.387-2.322,10.411-2.809c4.663-0.748,9.377-1.072,14.031-1.836c2.168-0.356,4.55-1.988,6.437-0.564
		c2.092,1.582,4.121,4.52,5.864,6.54c5.051,5.86,9.655,13.296,13.321,20.33c3.134,6.006,6.575,12.115,10.11,17.892
		c3.613,5.899,6.937,12.052,10.787,17.771c3.743,5.563,7.789,10.96,11.326,16.647c2.67,4.289,5.938,8.51,7.499,13.393
		c1.712,5.361-5.82,1.867-8.01,1.049c-3.811-1.426-7.347-2.184-11.413-1.273c-4.628,1.033-4.243,7.719-3.247,11.287
		c0.514,1.846,0.967,4.029,1.996,5.594c0.836,1.271,2.016,2.527,2.628,3.943c0.495,1.143-0.051,3.045-0.285,4.189
		c-0.24,1.178-0.512,3.947-1.579,4.758c-0.022,0.02-0.046,0.035-0.07,0.051c-1.181,0.777-3.424-1.482-4.405-2.121
		c-1.763-1.146-3.539-2.277-5.373-3.309c-1.545-0.871-3.045-1.936-4.486-2.965c-1.95-1.395-4.021-2.418-5.766-4.066
		c-1.942-1.832-3.946-3.576-5.818-5.482c-2.149-2.184-3.839-4.889-6.051-7.014c-1.906-1.836-3.875-3.764-5.409-5.971
		c-3.264-4.697-7.626-8.58-11.26-12.974c-2.249-2.719-3.75-5.888-5.847-8.699C131.63,200.698,123.398,197.094,116.011,193.951z"/>
	<path fill="#245977" d="M219.283,272.604c-0.614,0.113-1.203,0.361-1.686,0.764c-0.39,0.328-0.291,0.832-0.632,1.213
		c-0.663,0.738-1.81,0.875-2.723,1.068c-0.933,0.199-1.877,0.186-2.833,0.246c-0.593,0.039-1.31-0.072-1.898-0.172
		c-0.678-0.113-1.074-0.133-1.551,0.355c-1.697-2.502,6.802-3.324,4.05-7.141c-1.647,0.039-2.14,1.471-3.348,2.256
		c-2.852,1.855-5.148,1.766-7.793,0.121c-0.468-0.289-0.858-0.664-1.288-1.01c-0.461-0.369-0.936-0.709-1.383-1.098
		c-0.542-0.475-1.122-0.953-1.618-1.475c-0.151-0.158-0.183-0.398-0.348-0.537c-0.188-0.16-0.515-0.17-0.747-0.209
		c-0.917-0.166-1.878-0.273-2.81-0.172c-0.885,0.1-1.738,0.367-2.435,0.934c-0.62,0.506-1.753,1.467-1.635,2.385
		c0.048,0.381,0.421,0.621,0.667,0.873c0.405,0.412,0.798,0.838,1.211,1.246c0.725,0.719,1.444,1.436,2.158,2.166
		c1.06,1.08,2.236,2.08,3.504,2.906c1.408,0.92,2.804,1.818,4.292,2.607c0.764,0.406,1.568,0.693,2.371,1.004
		c0.49,0.189,1.005,0.273,1.516,0.396c0.779,0.186,1.554,0.385,2.342,0.516c0.755,0.127,1.44,0.486,2.169,0.736
		c0.904,0.311,1.938,0.414,2.87,0.607c0.921,0.189,1.847,0.381,2.759,0.602c0.259,0.062,0.55,0.158,0.817,0.156
		c0.23-0.002,0.437-0.115,0.665-0.139c0.68-0.076,1.359-0.107,2.036-0.219c1.317-0.217,2.614-0.549,3.89-0.943
		c1.511-0.465,2.794-1.164,3.685-2.477c0.508-0.752,1.611-2.607,1.117-3.451c-1.954,0.168-3.737,5.061-5.985,3.713
		c-1.114-0.668,0.786-2.09,1.403-2.672c1.269-1.197,2.085-1.816,1.865-3.539c-1.317,0.121-2.246,1.459-3.117,2.385
		c-1.043,1.109-1.659,1.746-3.222,2.02C216.266,276.212,220.831,274.983,219.283,272.604z"/>
	<path d="M239.433,248.665c-1.035-2.404-5.268-3.912-6.526-6.588c-0.959,0.115-2.349,2.504-2.698,3.385
		c1.677,0.939,3.375,1.949,4.987,3.145c0.899,0.666,1.667,1.449,2.474,2.221c0.461,0.441,1.453,1.703,2.046,1.631
		c0.078-1.049,0.721-2.496-0.125-3.283"/>
	<path fill="#FFFFFF" d="M228.389,253.841c-0.021,0.031-0.044,0.064-0.064,0.096c-0.336-0.695-0.308-1.254,0.407-1.586
		c0.799-0.369,1.565-0.186,2.4-0.057c1.443,0.225,3.867,0.67,4.373,2.316c0.19,0.625-0.314,1.5-1.001,1.59
		c-0.665,0.086-1.552-0.252-2.185-0.391c-0.865-0.193-1.684-0.33-2.487-0.721c-0.56-0.27-1.76-0.721-1.854-1.465"/>
	<path d="M234.96,256.194c-0.222,0.451-0.859,0.646-1.279,0.855c-0.761,0.379-1.605,0.756-2.453,0.877
		c-0.396,0.059-0.845,0.111-1.244,0.033c-0.352-0.07-0.662-0.275-0.922-0.521c-0.55-0.516-0.919-1.244-1.08-1.98
		c-0.098-0.457-0.146-0.941-0.172-1.408c-0.015-0.262-0.052-0.518-0.061-0.779c-0.001-0.068-0.096-0.34-0.031-0.377
		c0.036-0.02,0.271,0.098,0.287,0.107c0.204,0.092,0.406,0.189,0.609,0.287c0.514,0.242,1.048,0.477,1.523,0.789
		c0.531,0.352,1.096,0.605,1.656,0.902c0.413,0.217,0.815,0.383,1.251,0.545c0.33,0.121,0.605,0.312,0.902,0.496
		c0.188,0.115,0.363,0.203,0.568,0.285c0.083,0.033,0.192,0.117,0.282,0.121c0.27,0.006,0.385-0.361,0.442-0.561
		c0.09-0.312,0.144-0.68,0.119-1c-0.016-0.201-0.153-0.332-0.315-0.463c-0.568-0.457-1.185-0.881-1.854-1.176
		c-1.12-0.492-2.341-1.096-3.599-0.869c-0.26,0.049-0.585,0.119-0.809,0.266c-0.135,0.09-0.32,0.199-0.426,0.314
		c-0.061-0.07,0.03-0.219,0.066-0.283c0.062-0.109,0.184-0.199,0.281-0.279c0.129-0.107,0.238-0.24,0.377-0.334
		c0.181-0.121,0.383-0.215,0.586-0.291c0.358-0.133,0.742-0.193,1.123-0.182c0.293,0.008,0.589-0.004,0.883,0.02
		c0.282,0.02,0.559,0.102,0.84,0.127c0.973,0.094,1.874,0.752,2.444,1.52c0.271,0.363,0.466,0.779,0.614,1.209
		c0.071,0.207,0.141,0.422,0.177,0.639c0.066,0.391,0.01,0.748-0.085,1.133"/>
	<path d="M235.149,255.216c-0.676,1.281-2.606,1.283-3.471,0.172c-0.254-0.322-0.312-0.801-0.184-1.191
		c0.052-0.162,0.19-0.309,0.279-0.453c0.11-0.182,0.222-0.363,0.385-0.5c0.127-0.107,0.297-0.217,0.451-0.287
		c0.219-0.1,0.42-0.088,0.653-0.066c0.157,0.016,0.306-0.002,0.46-0.01c0.39-0.02,0.813,0.117,1.122,0.355
		c0.601,0.467,0.652,1.291,0.327,1.939C235.164,255.188,235.157,255.204,235.149,255.216z"/>
	<path d="M227.279,272.571c-0.117,0.244-0.341,0.309-0.57,0.16c-0.225-0.145-0.271-0.26-0.575-0.291
		c-0.122-0.014-0.491-0.131-0.576-0.066c-0.192,0.143-0.084,1.076-0.014,1.258c-0.103,0.078-0.387,0.084-0.526,0.115
		c-0.231,0.051-0.487,0.035-0.726,0.096c-0.384,0.096-0.755,0.117-1.128,0.215c-0.176-0.395-0.173-0.893-0.229-1.316
		c-0.083-0.611-0.238-1.215-0.312-1.834c-0.083-0.711-0.226-1.395-0.332-2.104c-0.108-0.719-0.432-1.406-0.516-2.125
		c0.223,0.115,0.475,0.432,0.694,0.607c0.376,0.301,0.783,0.533,1.212,0.752c0.841,0.424,1.676,0.875,2.549,1.24
		c0.325,0.135,0.681,0.297,1.041,0.307c0.211,0.006,0.431-0.1,0.642-0.053c0.767,0.174,0.401,1.02,0.15,1.451
		C227.759,271.509,227.535,272.03,227.279,272.571z"/>
	<path d="M242.025,245.187c-3.023-3.129-6.305-5.994-9.61-8.812c-1.194-1.018-2.315-1.754-3.663-2.518
		c-1.355-0.768-2.276-1.91-3.377-2.986c-0.674-0.656-1.925-1.289-2.431-2.08c0.75-1.188,3.031-2.312,4.27-2.865
		c1.642-0.734,3.185-1.029,4.872-1.043c1.923-0.018,3.821-0.16,5.655,0.52c1.965,0.729,3.708,2.193,5.36,3.48
		c3.299,2.574,5.586,5.686,5.458,9.973c-0.056,1.857-0.524,3.602-1.277,5.303c-0.646,1.461-1.611,2.846-2.19,4.279
		C243.946,247.731,242.961,246.155,242.025,245.187z"/>
	<path fill="#FFFFFF" d="M230.143,258.587c-0.477,0.066-0.925,1.117-1.193,1.455c-0.613,0.773-1.256,1.504-1.91,2.238
		c-0.958,1.078-1.753,2.35-2.546,3.553c0.225-0.238,0.389-0.604,0.568-0.877c0.297-0.451,0.625-0.896,0.87-1.379
		c0.454-0.896,1.058-1.744,1.616-2.59c0.356-0.537,0.743-1.098,1.051-1.662c0.116-0.215,0.22-0.449,0.298-0.68
		c0.072-0.219,0.078-0.508,0.25-0.678c0.112,0.141,0.246,0.311,0.384,0.434c0.132,0.119,0.304,0.166,0.412,0.307
		c0.023-0.021,0.069-0.055,0.085-0.082"/>
	<path fill="#FFFFFF" d="M229.452,251.231c-0.011,0.018-0.024,0.035-0.036,0.053c-0.172-0.355-0.289-0.789-0.437-1.16
		c-0.203-0.52-0.327-1.111-0.566-1.611c-0.165,0.027-0.35,0.086-0.501,0.156c0.083,0.457,0.379,0.861,0.559,1.275
		c0.198,0.457,0.367,0.955,0.587,1.404c0.063-0.033,0.06-0.08,0.07-0.143"/>
	<path fill="#FFFFFF" d="M231.046,250.86c-0.007-0.01,0.065-0.363,0.084-0.482c0.057-0.365,0.142-0.723,0.238-1.082
		c0.079-0.295,0.466-1.117-0.199-0.895c-0.22,0.074-0.125,0.227-0.154,0.482c-0.029,0.26-0.038,0.527-0.066,0.795
		c-0.029,0.26-0.047,0.49-0.121,0.74c-0.037,0.129-0.232,0.631,0.101,0.479"/>
	<path fill="#FFFFFF" d="M232.703,251.106c0.075-0.354,0.232-0.707,0.434-1.014c0.175-0.27,0.54-0.684,0.582-1.004
		c-0.229-0.02-0.387-0.436-0.632-0.256c0.06,0.338-0.14,0.861-0.282,1.16c-0.1,0.211-0.603,0.975-0.374,1.188
		c0.032-0.008,0.065-0.014,0.099-0.02"/>
	<path fill="#FFFFFF" d="M234.501,252.009c-0.144-0.195,0.816-1.107,1.007-1.254c0.17-0.133,0.352-0.172,0.238-0.408
		c-0.069-0.141-0.377-0.357-0.497-0.426c-0.212,0.256-0.338,0.703-0.529,1c-0.129,0.203-0.29,0.391-0.442,0.568
		c-0.246,0.289-0.08,0.182-0.043,0.477"/>
	<path fill="#FFFFFF" d="M235.88,252.788c0.078,0.047,1.477-0.9,1.612-1.062c-0.212,0.025-0.35-0.289-0.446-0.441
		c-0.268,0.219-0.49,0.52-0.764,0.756c-0.256,0.217-0.69,0.441-0.766,0.797"/>
	<path fill="#FFFFFF" d="M236.669,254.321c0.427-0.131,0.861-0.064,1.285-0.143c0.126-0.025,0.422-0.158,0.538-0.111
		c0.187,0.078,0.066,0.189,0.047,0.365c-0.021,0.182,0.039,0.281-0.138,0.369c-0.143,0.072-0.457,0.043-0.617,0.061
		c-0.387,0.041-0.758,0.092-1.143,0.158c-0.141-0.262-0.022-0.48,0.009-0.758"/>
	<path fill="#FFFFFF" d="M246.058,243.812c-0.007,0.094-0.119,0.145-0.191,0.205c-0.158,0.131-0.284,0.27-0.417,0.424
		c-0.223,0.258-0.467,0.5-0.689,0.758c-0.206,0.242-0.354,0.557-0.622,0.729c-0.048-0.248-0.412-0.34-0.563-0.523
		c0.163-0.086,0.276-0.301,0.365-0.455c0.203-0.346,0.377-0.787,0.498-1.168c0.2-0.643,0.38-1.447,0.864-1.953
		c0.143,0.297,0.174,0.65,0.312,0.953c0.065,0.137,0.447,0.752,0.379,0.826"/>
	<path fill="#FFFFFF" d="M242.686,239.948c-0.286,0.184-0.506,0.549-0.683,0.832c-0.172,0.273-0.315,0.578-0.477,0.861
		c-0.089,0.162-0.152,0.396-0.276,0.535c-0.105,0.119-0.048,0.125-0.2,0.07c-0.092-0.035-0.204-0.125-0.289-0.178
		c-0.137-0.088-0.382-0.166-0.483-0.285c0.316-0.41,0.602-0.836,0.95-1.223c0.287-0.318,0.537-0.654,0.788-1
		c0.081-0.113,0.203-0.336,0.333-0.398c0.054,0.199,0.233,0.334,0.427,0.355"/>
	<path fill="#FFFFFF" d="M239.454,237.112c-0.333,0.633-0.788,1.201-1.148,1.82c-0.133,0.229-0.272,0.469-0.374,0.715
		c-0.037,0.094-0.051,0.232-0.127,0.299c-0.216-0.148-0.474-0.238-0.669-0.412c-0.286-0.252-0.067-0.42,0.144-0.678
		c0.508-0.619,1.047-1.23,1.457-1.926c0.033-0.057,0.162-0.336,0.242-0.346c0.145-0.018,0.258,0.254,0.332,0.35"/>
	<path fill="#FFFFFF" d="M236.805,234.722c-0.151,0.062-0.205,0.26-0.277,0.4c-0.161,0.316-0.374,0.59-0.566,0.887
		c-0.145,0.221-0.318,0.42-0.462,0.641c-0.084,0.129-0.13,0.283-0.233,0.398c-0.14,0.158-0.236,0.119-0.41-0.014
		c-0.167-0.127-0.332-0.264-0.493-0.398c-0.048-0.039-0.376-0.248-0.384-0.314c-0.008-0.076,0.239-0.25,0.29-0.312
		c0.131-0.162,0.243-0.34,0.367-0.508c0.323-0.438,0.713-0.826,1.053-1.246c0.13-0.162,0.205-0.338,0.435-0.303
		c0.238,0.033,0.454,0.473,0.691,0.365"/>
	<path fill="#FFFFFF" d="M232.969,231.942c-0.019,0.174-0.149,0.346-0.233,0.49c-0.154,0.273-0.291,0.537-0.467,0.799
		c-0.245,0.363-0.426,0.781-0.675,1.137c-0.124-0.074-0.219-0.184-0.358-0.24c-0.137-0.055-0.434-0.055-0.53-0.172
		c0.38-0.344,0.661-0.916,0.912-1.355c0.172-0.303,0.316-0.662,0.522-0.943c0.082-0.109,0.188-0.168,0.207-0.322
		c0.201-0.027,0.253,0.371,0.453,0.348"/>
	<path fill="#FFFFFF" d="M229.964,229.841c-0.141,0.357-0.315,0.758-0.571,1.062c-0.194,0.234-0.408,0.447-0.563,0.713
		c-0.069,0.117-0.106,0.314-0.18,0.414c-0.095,0.133-0.134,0.055-0.281-0.025c-0.146-0.08-0.317-0.217-0.482-0.271
		c-0.016-0.086,0.097-0.189,0.147-0.262c0.192-0.266,0.407-0.518,0.599-0.783c0.365-0.5,0.658-1.047,1.013-1.557
		c0.01-0.037-0.003-0.047-0.042-0.027"/>
	<path fill="#FFFFFF" d="M227.157,227.946c-0.012,0.197-0.18,0.387-0.264,0.566c-0.155,0.334-0.321,0.674-0.506,0.99
		c-0.109,0.188-0.243,0.355-0.366,0.533c-0.072,0.102-0.117,0.238-0.199,0.322c-0.056-0.264-0.561-0.363-0.747-0.512
		c-0.275-0.219-0.165-0.291,0.043-0.545c0.457-0.555,1.086-1.035,1.246-1.77c0.021-0.096,0.011-0.316,0.109-0.359
		c0.13-0.057,0.212,0.131,0.32,0.172"/>
	<path d="M195.785,264.243c-0.058-0.021-0.219-0.285-0.262-0.348c-0.13-0.182-0.287-0.34-0.438-0.506
		c-0.352-0.393-0.676-0.803-0.986-1.225c-0.055-0.074-0.127-0.141-0.187-0.213c-0.03-0.037-0.013-0.082-0.07-0.098
		c-0.079-0.021-0.173,0.109-0.227,0.15c-0.062,0.049-0.151,0.098-0.194,0.16c-0.08,0.119,0.033,0.164,0.109,0.275
		c0.449,0.664,0.9,1.332,1.364,1.986c0.096,0.133,0.199,0.268,0.268,0.412c0.031,0.064,0.034,0.184,0.125,0.182
		c0.056,0,0.194-0.199,0.233-0.238c0.097-0.1,0.219-0.195,0.356-0.23c-0.004-0.033-0.012-0.084-0.03-0.111"/>
	<path d="M192.405,265.146c-0.007,0.008-0.013,0.018-0.018,0.027c-0.098-0.186-0.172-0.365-0.292-0.545
		c-0.325-0.488-0.634-0.98-0.947-1.477c-0.173-0.273-0.321-0.561-0.504-0.824c-0.085-0.119-0.278-0.258-0.314-0.396
		c-0.107,0-0.205-0.045-0.314-0.057c-0.073-0.008-0.269-0.004-0.327,0.041c0.002,0.119,0.147,0.318,0.196,0.418
		c0.181,0.373,0.357,0.748,0.532,1.123c0.188,0.402,0.392,0.793,0.621,1.17c0.094,0.156,0.108,0.383,0.318,0.414
		c0.144,0.021,0.323-0.059,0.477-0.051c0.172,0.01,0.379,0.049,0.545-0.021c-0.026,0.008-0.053,0.018-0.08,0.025"/>
	<path d="M189.279,265.687c-0.052-0.027-0.055-0.076-0.082-0.146c-0.055-0.139-0.136-0.236-0.225-0.35
		c-0.296-0.379-0.564-0.787-0.83-1.186c-0.177-0.268-0.357-0.547-0.558-0.799c-0.1-0.123-0.202-0.24-0.358-0.189
		c-0.158,0.053-0.253,0.225-0.37,0.336c-0.124,0.115-0.25,0.215-0.389,0.314c-0.092,0.066-0.194,0.111-0.117,0.207
		c0.012,0.014,0.099,0.049,0.117,0.059c0.113,0.068,0.202,0.152,0.304,0.234c0.552,0.441,1.008,1.031,1.426,1.6
		c0.111,0.152,0.508,0.871,0.703,0.807c0.076-0.025,0.146-0.17,0.18-0.236c0.061-0.113,0.145-0.201,0.211-0.312
		c0.146-0.246-0.15-0.473-0.246-0.697"/>
	<path d="M188.011,267.353c-0.06-0.014-0.097-0.148-0.134-0.211c-0.11-0.182-0.229-0.348-0.356-0.52
		c-0.471-0.629-1.055-1.158-1.545-1.768c-0.098-0.121-0.194-0.242-0.288-0.367c-0.035-0.047-0.105-0.148-0.173-0.133
		c-0.042,0.01-0.103,0.166-0.124,0.197c-0.061,0.094-0.121,0.186-0.195,0.27c-0.145,0.17-0.096,0.23,0.062,0.379
		c0.132,0.125,0.285,0.223,0.413,0.348c0.195,0.195,0.388,0.412,0.561,0.627c0.31,0.385,0.604,0.779,0.938,1.141
		c0.185,0.199,0.379,0.422,0.516,0.66c0.087-0.033,0.331-0.268,0.336-0.373c-0.019-0.002-0.037,0-0.054,0.012"/>
	<path d="M186.972,269.966c-0.041,0.027-0.03-0.033-0.056-0.08c-0.057-0.111-0.125-0.197-0.202-0.299
		c-0.269-0.357-0.55-0.709-0.813-1.072c-0.376-0.52-0.717-1.057-1.043-1.607c-0.095-0.16-0.379-0.473-0.234-0.639
		c0.111-0.127,0.159,0.004,0.248,0.107c0.189,0.225,0.402,0.424,0.579,0.656c0.17,0.225,0.401,0.404,0.571,0.631
		c0.168,0.225,0.38,0.432,0.567,0.645c0.287,0.32,0.637,0.604,0.858,0.979c0.042,0.07,0.149,0.188,0.16,0.266
		c0.016,0.104-0.083,0.221-0.134,0.32c-0.074,0.146-0.142,0.357-0.252,0.477c-0.013-0.033-0.045-0.045-0.059-0.07"/>
	<g>
		<path d="M94.273,175.947c0.552,5.32,1.033,10.626,1.273,15.985c0.316,7.095,1.505,13.923,1.528,21.077
			c0.022,7.083,0.417,14.056,0.815,21.124c0.536,9.533,1.412,18.879,1.601,28.412c0.293,14.57-0.831,28.922-4.024,43.113
			c-0.517,2.311-1.423,4.867-1.766,7.211c-0.184,1.26,0.206,2.748-0.109,3.941c-0.492,1.871-1.298,1.688-2.216,2.357
			c-1.91,1.393-4.202,2.34-6.384,3.123c-1.607,0.578-3.151,1.309-4.68,2.082c-2.625,1.33-3.186,1.93-4.637-0.82
			c-1.073-2.037-1.635-4.27-1.299-6.58c0.487-3.332,2.247-6.354,2.611-9.758c0.409-3.814-0.058-7.633,0.241-11.447
			c0.628-8.008,2.346-16.279,1.957-24.379c-0.202-4.277-0.163-8.621-0.029-12.908c0.151-4.875-0.795-9.566-1.346-14.371
			c-1.496-13.047-3.09-26.201-2.763-39.429c0.331-13.316-0.292-26.713-0.598-39.917c-0.159-6.782-0.943-14.229-2.148-20.702
			c-1.078-5.782-4.737-10.581-8.067-15.673C51.31,108.624,35.413,90.203,24.002,69.33c-1.514-2.768-4.997-8.79-4.762-12.151
			c0.182-2.59,3.395-3.288,5.893-3.785c0.975-0.193,1.964-0.269,2.95-0.294c0.681-0.02,1.359-0.015,2.038-0.008
			c0.155,0.001,0.315,0.016,0.47-0.006c0.097-0.016,0.19-0.049,0.289-0.063c0.308-0.046,0.607,0.021,0.909,0.057
			c0.196,0.024,0.388,0.019,0.583,0.012c0.806-0.03,1.614-0.041,2.423-0.144c3.36-0.425,6.613-1.387,9.998-1.446
			c3.627-0.062,7.235,0.403,10.865,0.187c3.145-0.188,5.808-1.592,8.889-1.373c7.771,0.552,15.361,3.071,23.003,4.355
			c9.511,1.601,18.751,4.123,28.203,5.853c8.199,1.502,16.498,2.637,24.694,4.176c14.084,2.646,28.292,4.559,42.125,8.159
			c4.678,1.219,10.175,2.051,14.408,4.178c-2.692,5.271-3.162,13.4-3.031,19.276c-1.111,0.267-2.11-0.32-3.264-0.594
			c-3.493-0.824-7.248-1.64-10.869-2.258c-6.03-1.026-11.977-2.259-17.942-3.527c-13.884-2.957-28.569-4.771-42.719-5.969
			c-5.709-0.484-11.396-0.311-17.086-0.772c-5.561-0.446-10.965-1.988-16.498-3.017c-6.914-1.282-13.848-2.342-20.759-3.661
			c-3.685-0.704-8.644-1.221-11.643-3.446c7.686,10.883,15.328,21.719,23.929,31.794c4.895,5.729,9.771,12.007,15.61,16.592
			c2.197,1.726,3.439,1.815,2.734,4.998c-0.423,1.912-1.596,3.358-2.273,5.141c-1.47,3.859-1.587,9.685-1.666,13.793
			c-0.116,6.208,0.827,12.405,1.479,18.545C93.405,167.962,93.858,171.957,94.273,175.947z"/>
		<g>
			<path fill="#245977" d="M198.047,94.662c-1.574,0.83-3.466,0.349-4.683-0.783c-0.656-0.61-1.053-1.13-1.147-2.03
				c-0.121-1.15-0.326-2.288-0.42-3.442c-0.106-1.27,0.002-2.53,0.256-3.779c0.171-0.836,0.221-1.706,0.425-2.531
				c0.215-0.866,0.366-1.596,0.807-2.399c0.27-0.495,0.515-0.998,0.846-1.459c0.237-0.331,0.351-0.538,0.767-0.531
				c0.382,0.01,0.813,0.141,1.195,0.212c1.36,0.26,2.67,0.639,4.033,0.902c1.81,0.349,3.431,1.243,5.237,1.581
				c0.884,0.165,1.812,0.384,2.654,0.694c0.808,0.297,1.602,0.464,2.443,0.658c0.949,0.221,1.915,0.517,2.881,0.652
				c0.964,0.14,1.974,0.092,2.949,0.228c1.048,0.144,2.083,0.188,3.141,0.241c0.73,0.037,1.601,0.155,2.331,0.034
				c1.575-0.262,2.883-0.947,3.871-2.198c0.466-0.59,0.887-1.204,1.367-1.779c0.485-0.582,1.23-0.824,1.948-0.943
				c0.671-0.113,1.589-0.234,2.093,0.292c0.42,0.437,0.737,1.081,0.72,1.691c-0.026,0.907-0.407,1.81-0.936,2.547
				c-0.538,0.749-1.343,1.286-2.111,1.787c-0.525,0.344-1.05,0.783-1.178,1.423c-0.092,0.463,0.141,0.688,0.585,0.742
				c0.597,0.067,2.072-0.812,2.329,0.185c0.123,0.466-0.583,0.757-0.908,0.966c-0.581,0.375-1.214,0.733-1.841,1.013
				c-0.747,0.331-1.611,0.241-2.255,0.791c0.088,0.306,0.601,0.304,0.852,0.414c0.218,0.095,0.508,0.229,0.685,0.396
				c0.877,0.822-0.047,1.782-0.821,2.292c-0.852,0.558-1.589,0.994-2.563,1.276c-0.933,0.273-1.87,0.435-2.834,0.52
				c-2.32,0.209-4.586-0.007-6.87-0.327c-3.298-0.463-6.477-1.705-9.84-1.744c-1.198-0.014-2.567,0.048-3.683,0.593
				C199.471,93.286,198.936,94.194,198.047,94.662z"/>
			<path fill="#245977" d="M79.379,324.749c1.695,1.627-0.301,5.654-0.691,7.574c-0.29,1.426-0.285,2.891-0.555,4.32
				c-0.332,1.777-1.651,2.859-2.197,4.506c-2.261,6.818,5.171,8.951,8.428,12.809c1.868,2.211,3.714,5.273,4.299,7.994
				c0.622,2.885,2.009,5.061,5.144,4.086c2.192-0.684,6.275-2.861,7.925-4.727c0.909-1.023,0.663-2.664-0.865-3.146
				c-1.128-0.355-2.404,0.822-3.448,0.514c1.348-1.283,3.773-2.213,3.879-4.318c-1.074-1.338-2.611,1.865-4.009,0.855
				c0.232-1.135,1.034-2.566,1.781-3.426c-0.501-2.395-2.361-0.678-3.823-0.559c-1.875,0.156-3.003-1.311-4.042-2.791
				c-2.192-3.129-2.75-5.922-2.861-9.785c-0.092-3.24-0.044-6.408,0.219-9.676c0.133-1.666,0.151-3.293,0.162-4.963
				c0.01-1.133,0.954-3.527-0.121-4.266c-2.66,1.023-7.372,1.9-8.259,4.869"/>
			<path fill="#FFFFFF" d="M95.171,228.798c0.025,0.086-0.023,0.146-0.028,0.232c-0.014,0.193,0.024,0.436,0.041,0.627
				c0.051,0.539,0.137,1.043,0.16,1.582c0.006,0.137,0.021,0.27,0.015,0.406c-0.002,0.021-0.012,0.191-0.012,0.191
				c-0.066,0.076-0.25-0.018-0.346,0.057c-0.086-0.057-0.041-0.178-0.044-0.262c-0.009-0.119-0.058-0.242-0.066-0.363
				c-0.027-0.379,0.029-0.76,0.001-1.143c-0.021-0.311-0.056-0.625-0.051-0.939c0.003-0.184,0.002-0.371,0.229-0.408"/>
			<path fill="#FFFFFF" d="M86.374,235.556c0.238-0.057,0.484-0.086,0.725-0.131c0.198-0.039,0.368-0.131,0.567-0.141
				c0.043-0.006,0.118-0.006,0.15-0.045c0.037-0.043,0.031-0.23,0.018-0.285c-0.053,0.027-0.145,0.012-0.204,0.018
				c-0.111,0.014-0.213,0.004-0.325,0.02c-0.115,0.016-0.227,0.023-0.341,0.027c-0.188,0.012-0.392,0-0.579,0.039
				c-0.344,0.074-0.732,0.053-1.067,0.137c0.085,0.209-0.029,0.537-0.047,0.742c0.126-0.057,0.228-0.141,0.362-0.188
				C85.87,235.667,86.129,235.616,86.374,235.556z"/>
			<path fill="#FFFFFF" d="M86.042,239.267c0.392-0.051,0.778-0.131,1.167-0.18c0.195-0.025,0.396-0.02,0.592-0.004
				c0.054,0.004,0.661,0.076,0.66,0.086c0.004-0.102-0.002-0.236-0.031-0.338c-0.037-0.137-0.201-0.1-0.33-0.105
				c-0.169-0.004-0.333-0.004-0.502-0.002c-0.161-0.002-0.366,0.02-0.515-0.035c-0.145-0.049-0.252-0.061-0.413-0.033
				c-0.264,0.045-0.533,0.062-0.786,0.094c0.075,0.146-0.034,0.49-0.115,0.629C85.854,239.304,85.939,239.278,86.042,239.267z"/>
			<path fill="#FFFFFF" d="M91.774,230.405c-0.023,0.588,0.259,1.211,0.134,1.803c-0.045,0.215-0.115,0.125-0.272,0.082
				c-0.191-0.047-0.386-0.012-0.58,0.035c-0.06-0.055-0.018-0.254-0.019-0.344c0-0.264-0.01-0.516-0.018-0.777
				c-0.005-0.326-0.008-0.666-0.049-0.988c-0.019-0.168-0.104-0.418-0.066-0.592c0.063,0.111,0.275,0.125,0.393,0.117
				c0.091-0.006,0.457-0.166,0.37,0.096"/>
			<path fill="#FFFFFF" d="M86.559,231.433c-0.004,0.043-0.008,0.088-0.013,0.131c0.653-0.295,2.611,1.279,2.943,1.725
				c-0.598,0.742-1.447,0.016-2.091-0.268c-0.864-0.381-1.441-0.627-1.861-1.502c0.248-0.203,0.568-0.541,0.883-0.303"/>
			<path fill="#FFFFFF" d="M85.866,241.853c0.053-0.051,0.34,0.174,0.381,0.211c0.114,0.109,0.143,0.236,0.217,0.367
				c0.08,0.145,0.438,0.031,0.596,0.031c0.143,0,0.269-0.031,0.414-0.021c0.138,0.01,0.268,0.008,0.402,0.014
				c0.246,0.016,0.503-0.027,0.748-0.035c0.083-0.004,0.184-0.02,0.262,0.002c0.006-0.109-0.013-0.225-0.011-0.34
				c0-0.057-0.011-0.115-0.009-0.172c0.003-0.041,0.018-0.092,0.017-0.133c-0.1,0.033-0.225,0.029-0.329,0.031
				c-0.078,0.002-0.157-0.002-0.236-0.002c-0.103,0-0.208,0.039-0.312,0.01c-0.09-0.027-0.159-0.068-0.256-0.08
				c-0.234-0.033-0.47-0.07-0.708-0.094C86.674,241.608,86.166,241.567,85.866,241.853z"/>
			<path fill="#FFFFFF" d="M86.676,246.468c0.548-0.316,1.178-0.443,1.781-0.594c0.286-0.074,0.618-0.137,0.882-0.275
				c0.117-0.061,0.077-0.148,0.077-0.264c0.001-0.146-0.03-0.182-0.18-0.172c-0.12,0.008-0.237,0.01-0.357,0.018
				c-0.073,0.006-0.16-0.012-0.231,0.018c-0.057,0.023-0.099,0.064-0.163,0.086c-0.144,0.045-0.294,0.07-0.442,0.094
				c-0.263,0.039-0.542,0.047-0.796,0.127C86.771,245.653,86.609,245.911,86.676,246.468z"/>
			<path fill="#FFFFFF" d="M89.983,247.515c-0.195,0.32-0.465,0.611-0.669,0.926c-0.318,0.488-0.552,1.176-0.987,1.582
				c0.229,0.064,1.06,0.539,1.277,0.471c0.305-0.098,0.325-1.166,0.417-1.477c0.146-0.494,0.437-0.945,0.519-1.459
				c0.011-0.078,0.04-0.191,0.024-0.268c-0.01-0.057-0.044-0.057-0.095-0.066c-0.055-0.008-0.1-0.031-0.152-0.049
				c-0.055-0.014-0.042-0.01-0.074,0.039c-0.021,0.031-0.06,0.064-0.062,0.094"/>
			<path d="M97.192,246.724c0.033,0.617,0.194,1.275,0.329,1.896c0.066,0.309,0.266,0.73-0.032,0.982
				c-0.103,0.088-0.5,0.037-0.649,0.109c0.175-0.49-0.158-0.912-0.281-1.344c-0.158-0.553,0.188-1.178-0.169-1.701
				c0.192-0.258,0.503-0.275,0.772-0.23"/>
			<path fill="#FFFFFF" d="M91.741,249.964c0.039-0.203,0.063-0.41,0.081-0.619c0.03-0.348,0.041-0.695,0.061-1.041
				c0.01-0.172,0.021-0.342,0.041-0.516c0.01-0.082,0.02-0.164,0.035-0.25c0.003-0.027,0.026-0.09,0.012-0.111
				c-0.016-0.016-0.085-0.012-0.111-0.018c-0.05-0.012-0.087-0.029-0.113,0.023c-0.012,0.025-0.007,0.059-0.02,0.084
				c-0.014,0.031-0.053,0.053-0.063,0.086c-0.008,0.021-0.006,0.051-0.01,0.076c-0.015,0.066-0.032,0.133-0.046,0.203
				c-0.028,0.131-0.049,0.264-0.071,0.396c-0.049,0.281-0.098,0.562-0.198,0.83C91.097,249.757,91.102,249.771,91.741,249.964z"/>
			<path fill="#FFFFFF" d="M94.721,247.286c-0.068,0.395,0.188,0.822,0.273,1.189c0.088,0.393,0.191,0.773,0.281,1.164
				c0.187,0.803-0.535,0.889-0.755,0.229c-0.176-0.52-0.27-1.342-0.348-1.916c-0.017-0.129-0.162-0.723-0.134-0.795
				c0.121-0.311,0.549-0.389,0.724-0.049"/>
			<path fill="#FFFFFF" d="M93.759,229.423c0.217,0.312,0.568,2.264,0.283,2.553c-0.185-0.156-0.48-0.205-0.669-0.275
				c0.213-0.398,0.144-1.725,0.014-2.162C93.478,229.397,93.599,229.386,93.759,229.423"/>
			<path fill="#FFFFFF" d="M98.259,245.976c0.071,0.049,0.148,0.092,0.208,0.154c0.033,0.033,0.067,0.088,0.1,0.033
				c0.026-0.037,0.019-0.107,0.022-0.15c0.012-0.086,0.023-0.172,0.017-0.258c-0.021-0.293-0.259-0.41-0.502-0.514
				c-0.075-0.031-0.151-0.061-0.224-0.098c-0.055-0.025-0.116-0.057-0.164,0.004c-0.041,0.051-0.045,0.135-0.071,0.195
				c-0.032,0.068-0.07,0.135-0.081,0.213c-0.007,0.043-0.009,0.027,0.032,0.053c0.043,0.023,0.09,0.041,0.134,0.064
				C97.912,245.763,98.092,245.862,98.259,245.976z"/>
			<path fill="#FFFFFF" d="M86.267,236.569c0,0.008-0.002,0.016-0.001,0.021c0.102-0.072,0.248-0.051,0.367-0.053
				c0.281-0.006,0.564-0.037,0.845-0.049c0.234-0.008,0.473,0.027,0.704,0.004c0.07-0.008,0.255-0.037,0.292,0.041
				c-0.057,0.025-0.07,0.119-0.079,0.176c-0.018,0.094-0.041,0.184-0.07,0.275c-0.021,0.074-0.01,0.094-0.081,0.104
				c-0.087,0.012-0.222-0.047-0.319-0.049c-0.405-0.008-0.803,0.078-1.207,0.039c-0.186-0.018-0.425-0.092-0.604-0.031
				c-0.072-0.053-0.081-0.389,0.002-0.43"/>
			<path fill="#FFFFFF" d="M97.16,229.565c-0.047,0.096-0.041,0.229-0.043,0.332c-0.006,0.197-0.011,0.391-0.006,0.588
				c0.005,0.203,0.014,0.414,0.003,0.615c-0.003,0.07,0.009,0.203-0.038,0.254c-0.066-0.041-0.181-0.037-0.25-0.018
				c-0.109-0.105-0.064-0.316-0.064-0.459c0-0.322,0.028-0.648,0.045-0.973c0.004-0.094-0.036-0.271,0.028-0.354
				c0.071-0.092,0.188-0.016,0.273-0.027"/>
			<path fill="#FFFFFF" d="M30.847,53.852c0.157,0.085,0.396,0.071,0.572,0.073c0.106,0.003,0.202,0.022,0.304,0.045
				c0.106,0.024,0.292,0.003,0.379,0.065c0.046,0.033,0.053,0.186,0.031,0.246c-0.047,0.121-0.158,0.017-0.264,0.008
				c-0.359-0.024-0.715,0.057-1.079,0.013c-0.109-0.015-0.208,0.011-0.23-0.113c-0.019-0.108,0.025-0.229-0.021-0.333
				c0.076-0.103,0.286,0.008,0.378,0.026"/>
			<path fill="#FFFFFF" d="M31.823,56.866c-0.081,0.033-0.211,0.006-0.295,0.003c-0.167-0.004-0.332-0.001-0.497,0.005
				c-0.206,0.005-0.373-0.038-0.567-0.067c-0.008,0.084-0.116,0.106-0.066,0.207c0.152-0.006,0.303,0.038,0.448,0.073
				c0.142,0.033,0.271,0.062,0.416,0.08c0.09,0.013,0.182,0.011,0.27,0.019c0.048,0.007,0.118,0.017,0.159,0.001
				c0.092-0.035,0.16-0.205,0.175-0.295"/>
			<path fill="#FFFFFF" d="M31.053,60.313c-0.002,0.046-0.262-0.046-0.309-0.061c-0.134-0.043-0.284-0.077-0.42-0.104
				c-0.174-0.031-0.417-0.012-0.564-0.097c0.054,0.107-0.058,0.229-0.074,0.335c0.066,0.031,0.228,0.018,0.313,0.034
				c0.177,0.034,0.368,0.022,0.54,0.083c0.129,0.042,0.251,0.084,0.383,0.121c0.067,0.018,0.063,0.045,0.102-0.006
				c0.018-0.027,0.05-0.139,0.059-0.176c-0.004-0.014-0.011-0.014-0.024-0.003"/>
			<path fill="#FFFFFF" d="M30.358,65.159C30.369,65.174,30.369,65.175,30.358,65.159c-0.049-0.077-0.103-0.148-0.168-0.218
				c-0.205-0.224-0.364-0.477-0.528-0.729c-0.089-0.137-0.195-0.266-0.325-0.366c-0.066-0.052-0.155-0.102-0.21-0.163
				c-0.067,0.032-0.128,0.073-0.189,0.097c0.053,0.14,0.171,0.271,0.251,0.394c0.127,0.193,0.252,0.393,0.4,0.57
				c0.122,0.15,0.229,0.311,0.334,0.473c0.053,0.078,0.129,0.166,0.146,0.257c0.126-0.02,0.245-0.106,0.361-0.159
				c-0.015-0.033-0.036-0.061-0.055-0.091"/>
			<path fill="#FFFFFF" d="M31.378,58.241c-0.007,0.008-0.012,0.015-0.017,0.024c-0.407-0.038-0.814-0.138-1.226-0.163
				c0.022,0.133-0.019,0.27-0.004,0.396c0.065-0.048,0.215-0.028,0.29-0.03c0.167-0.001,0.37,0.002,0.533,0.027
				c0.195,0.026,0.393,0.042,0.58,0.097c0.051-0.056-0.015-0.126,0.026-0.193"/>
			<path fill="#FFFFFF" d="M31.568,55.438c-0.034,0.046-0.117-0.024-0.167-0.042c-0.13-0.05-0.277-0.074-0.417-0.087
				c-0.139-0.016-0.287-0.016-0.426-0.015c-0.081,0-0.164-0.003-0.237-0.044c-0.011,0.069-0.024,0.132-0.062,0.193
				c0.055,0.022,0.136-0.002,0.202-0.001c0.18,0.005,0.37,0.03,0.545,0.062c0.124,0.021,0.245,0.048,0.371,0.065
				c0.086,0.012,0.201,0.015,0.271,0.07"/>
			<path fill="#FFFFFF" d="M30.995,61.91c-0.106,0.022-0.305-0.066-0.394-0.089c-0.244-0.066-0.491-0.117-0.739-0.171
				c-0.212-0.047-0.421-0.123-0.618-0.215c-0.054-0.025-0.093-0.058-0.155-0.066c0.003,0.111-0.032,0.213-0.04,0.322
				c0.346,0.113,0.712,0.192,1.07,0.279c0.216,0.055,0.422,0.127,0.635,0.188c0.072,0.021,0.273,0.121,0.348,0.085
				c-0.015-0.069-0.016-0.149-0.057-0.215"/>
			<path fill="#FFFFFF" d="M27.415,65.272c0.023-0.326,0.108-0.66,0.159-0.99c0.029-0.179,0.083-0.351,0.135-0.525
				c0.021-0.065,0.037-0.114,0.03-0.18c-0.095,0.098-0.305-0.017-0.349,0.085c-0.012,0.028,0.006,0.134,0.005,0.17
				c0.001,0.073,0.004,0.156-0.011,0.23c-0.048,0.231-0.064,0.464-0.066,0.706c-0.001,0.124,0.044,0.353-0.032,0.467
				c0.042,0.011,0.119,0.068,0.146,0.024"/>
			<path fill="#FFFFFF" d="M24.569,65.141c-0.005,0.025-0.005,0.027-0.001,0.006c0.012-0.186,0.049-0.344,0.099-0.526
				c0.064-0.236,0.074-0.491,0.109-0.732c0.011-0.086,0.058-0.203,0.048-0.285c-0.01-0.082-0.156-0.086-0.244-0.091
				c0.041,0.137-0.007,0.289-0.008,0.43c-0.002,0.176-0.033,0.345-0.053,0.518c-0.02,0.167-0.056,0.334-0.099,0.495
				c-0.017,0.059-0.111,0.226-0.058,0.269c0.058-0.04,0.127-0.027,0.194-0.031C24.563,65.175,24.568,65.158,24.569,65.141"/>
			<path fill="#FFFFFF" d="M26.084,65.006c-0.051-0.019,0.037-0.257,0.055-0.314c0.043-0.147,0.028-0.304,0.066-0.45
				c-0.065,0.035-0.169,0-0.234-0.007c-0.012,0.045,0.01,0.096,0.014,0.146c0.005,0.089-0.015,0.184-0.023,0.271
				c-0.006,0.094-0.014,0.189-0.035,0.284c-0.015,0.064-0.085,0.194-0.059,0.258c0.059-0.017,0.142-0.029,0.201-0.008
				c-0.004-0.015-0.005-0.029-0.001-0.045"/>
			<path fill="#FFFFFF" d="M23.126,65.508c0.027-0.029,0.027-0.081,0.033-0.121c0.025-0.161,0.067-0.322,0.104-0.483
				c0.051-0.224,0.076-0.433,0.1-0.659c0.004-0.051,0.014-0.092,0.031-0.135c0.016-0.042,0.034-0.047,0.04-0.103
				c0.002-0.04,0.007-0.086,0.001-0.124c-0.007-0.113-0.059-0.106-0.166-0.096c-0.016,0.139-0.047,0.276-0.064,0.414
				c-0.021,0.18-0.039,0.376-0.07,0.558c-0.015,0.089-0.194,0.664,0.012,0.659"/>
			<path fill="#FFFFFF" d="M22.004,64.953c-0.122-0.247-0.079-0.662-0.156-0.957c-0.041-0.147-0.049-0.368-0.246-0.305
				c-0.028,0.106,0.041,0.237,0.055,0.345c0.022,0.164,0.064,0.319,0.117,0.475c0.038,0.114,0.072,0.236,0.098,0.354
				c0.015,0.07,0.052,0.182,0.037,0.253c0.054,0.006,0.082-0.049,0.138-0.016"/>
			<g>
				<path fill="#FFFFFF" d="M90.86,311.608c0.034,0.17-0.014,0.383-0.053,0.562c-0.231,1.006-0.35,2.018-0.477,3.037
					c-0.07,0.566-0.14,1.135-0.208,1.699c-0.018,0.17-0.02,0.379-0.111,0.527c-0.138-0.041-0.32-0.043-0.463-0.031
					c-0.129,0.01-0.41-0.002-0.525,0.061c-0.146-0.164,0.012-0.529,0.039-0.729c0.074-0.557,0.156-1.139,0.192-1.693
					c0.061-0.934,0.291-1.84,0.458-2.758c0.055-0.295,0.007-0.766,0.278-0.959c0.118-0.084,0.891-0.359,0.938-0.158
					c-0.03,0.035-0.075,0.051-0.124,0.049"/>
				<path fill="#FFFFFF" d="M85.711,312.165c-0.051,0.088-0.025,0.217-0.04,0.312c-0.042,0.303-0.076,0.547-0.067,0.857
					c0.024,0.715,0.059,1.443,0.169,2.15c0.065,0.41,0.178,0.809,0.252,1.221c0.055,0.305,0.088,0.598,0.123,0.904
					c0.021,0.178,0.052,0.211-0.155,0.203c-0.217-0.006-0.429,0.006-0.649,0.021c-0.083,0.006-0.248,0.057-0.288-0.004
					c-0.044-0.064-0.032-0.309-0.044-0.393c-0.1-0.725-0.313-1.436-0.385-2.172c-0.053-0.527-0.037-1.057-0.079-1.588
					c-0.032-0.418-0.116-0.777-0.233-1.172c-0.021-0.07-0.078-0.229-0.04-0.303c0.061-0.119,0.23-0.086,0.344-0.084
					c0.169,0.006,0.33,0.002,0.502-0.014c0.155-0.014,0.355-0.092,0.503-0.088c0.138,0.008,0.143,0.061,0.095,0.219"/>
				<path fill="#FFFFFF" d="M80.564,313.343c0.035,0.234,0.157,0.496,0.225,0.723c0.183,0.617,0.268,1.229,0.339,1.871
					c0.089,0.795,0.309,1.576,0.347,2.373c0.013,0.23,0.019,0.367-0.231,0.441c-0.14,0.041-0.289,0.053-0.43,0.08
					c-0.082,0.018-0.164,0.037-0.247,0.047c-0.098-0.152-0.105-0.412-0.127-0.598c-0.082-0.672-0.049-1.375-0.067-2.055
					c-0.022-0.82-0.164-1.59-0.294-2.393c-0.032-0.209-0.246-0.564-0.146-0.779c0.065-0.135,0.58-0.291,0.531-0.111"/>
				<path fill="#FFFFFF" d="M76.868,314.151c-0.112,0.131-0.059,0.494-0.052,0.646c0.027,0.479,0.128,0.924,0.204,1.396
					c0.141,0.898,0.205,1.816,0.509,2.678c0.032,0.09,0.104,0.24,0.083,0.338c-0.021,0.107-0.111,0.15-0.206,0.207
					c-0.281,0.166-0.63,0.234-0.933,0.336c-0.09-0.072-0.106-0.256-0.134-0.363c-0.105-0.41-0.098-0.857-0.13-1.277
					c-0.044-0.578-0.173-1.139-0.213-1.715c-0.026-0.395,0.002-0.785,0.011-1.18c0.007-0.283-0.057-0.787,0.178-1.006
					c0.185-0.174,0.452-0.268,0.66-0.393c0.019,0.012,0.032,0.027,0.039,0.047"/>
				<path fill="#FFFFFF" d="M74.484,316.661c-0.139,0.059-0.082,0.613-0.079,0.768c0.019,0.656,0.093,1.293,0.228,1.932
					c0.106,0.518,0.214,1.035,0.27,1.561c0.01,0.096,0.022,0.184,0.05,0.273c0.028,0.094,0.13,0.229,0.089,0.322
					c-0.26-0.014-0.441,0.021-0.67,0.137c-0.305-0.355-0.193-0.951-0.233-1.393c-0.048-0.543-0.11-1.092-0.137-1.631
					c-0.02-0.354,0.019-0.705-0.016-1.053c-0.011-0.111-0.02-0.205,0.023-0.316c0.041-0.107,0.159-0.381,0.269-0.422"/>
				<path fill="#FFFFFF" d="M92.919,311.925c0.01,0.064-0.026,0.119-0.043,0.182c-0.043,0.178-0.046,0.375-0.063,0.555
					c-0.077,0.744-0.07,1.494-0.162,2.232c-0.064,0.527-0.273,1.027-0.243,1.559c0.007,0.102-0.025,0.467,0.046,0.539
					c0.08-0.057,0.202-0.102,0.289-0.119c0.137-0.025,0.222,0.053,0.345,0.061c0.127,0.01,0.111-0.004,0.127-0.135
					c0.052-0.348,0.007-0.713,0.026-1.062c0.018-0.328,0.008-0.654-0.02-0.982c-0.021-0.225,0.014-0.443,0.006-0.67
					c-0.021-0.484-0.02-0.967-0.091-1.447c-0.049-0.33-0.083-0.652-0.077-0.982c-0.006,0.012-0.01,0.021-0.014,0.033"/>
			</g>
			<path fill="#FFFFFF" d="M193.882,76.365c-0.113,0.259-2.015-0.12-2.283-0.144c-0.867-0.07-1.686-0.367-2.533-0.471
				c-0.238-0.028-0.7,0.076-0.914-0.052c-0.225-0.135-0.04-0.248,0.041-0.451c0.159-0.389-0.019-0.905,0.55-0.814
				c0.612,0.098,1.228,0.22,1.849,0.297c0.82,0.104,1.583,0.357,2.377,0.555c0.221,0.056,0.475,0.127,0.708,0.154
				c0.186,0.021,0.305-0.081,0.326,0.174c0.027,0.35-0.278,0.765-0.335,1.089c-0.025,0.026-0.046,0.021-0.062-0.018"/>
			<path fill="#FFFFFF" d="M191.971,79.723c-0.023,0.017-0.226-0.081-0.359-0.102c-0.514-0.078-1.051-0.089-1.569-0.159
				c-0.705-0.1-1.42-0.162-2.129-0.256c-0.462-0.06-0.898-0.195-1.353-0.299c-0.213-0.051-0.44-0.162-0.664-0.168
				c-0.243-0.006-0.237,0.016-0.271,0.251c-0.027,0.214-0.021,0.426-0.068,0.64c-0.04,0.173-0.155,0.375-0.11,0.543
				c0.209-0.084,0.7,0.021,0.914,0.05c0.689,0.095,1.375,0.236,2.07,0.269c0.641,0.03,1.279,0.128,1.916,0.173
				c0.441,0.031,0.894,0.052,1.334,0.104c-0.07-0.246,0.148-0.578,0.223-0.815c-0.013-0.033-0.033-0.036-0.067-0.007"/>
			<path fill="#FFFFFF" d="M189.04,83.755c0.024,0.039-0.018,0.07,0.051,0.084c-0.271,0.007-0.568-0.128-0.841-0.163
				c-0.816-0.1-1.616-0.193-2.416-0.366c-0.535-0.118-1.044-0.296-1.559-0.451c-0.181-0.057-0.43-0.276-0.608-0.204
				c0.035,0.179-0.006,0.284-0.077,0.449c-0.063,0.142-0.312,0.404-0.334,0.542c-0.033,0.196,0.146,0.203,0.305,0.225
				c0.312,0.039,0.592,0.104,0.901,0.181c1.063,0.259,2.137,0.472,3.209,0.694c0.605,0.127,1.326,0.335,1.949,0.239
				c-0.136-0.2-0.013-1.009-0.25-1.043"/>
			<path fill="#FFFFFF" d="M182.7,86.194c0.219,0.151,0.522,0.221,0.778,0.312c0.583,0.21,1.177,0.38,1.78,0.534
				c1.024,0.265,1.98,0.731,2.996,1.027c0.157,0.046,0.513,0.074,0.642,0.159c0.162,0.106,0.066,0.026,0.076,0.186
				c0.008,0.158-0.03,0.366-0.027,0.54c0.009,0.566-0.251,0.536-0.739,0.439c-0.389-0.078-0.752-0.223-1.146-0.288
				c-0.425-0.073-0.86-0.107-1.291-0.162c-0.672-0.086-1.304-0.226-1.92-0.483c-0.276-0.118-0.478-0.307-0.614-0.588
				c-0.122-0.262-0.214-0.578-0.295-0.857c-0.035-0.122-0.13-0.523-0.054-0.535"/>
			<path fill="#FFFFFF" d="M183.744,90.771c0.476,0.126,1.019,0.037,1.507,0.138c0.523,0.108,1.057,0.176,1.596,0.2
				c0.958,0.042,1.884,0.288,2.785,0.479c-0.401,0.213,0.042,0.815-0.125,1.098c-0.114,0.19-0.481,0.171-0.658,0.166
				c-0.462-0.018-0.925-0.102-1.389-0.148c-0.654-0.067-1.374-0.199-2.018-0.341c-0.324-0.071-0.653-0.108-0.973-0.194
				c-0.263-0.068-0.492-0.204-0.748-0.28c-0.205-0.059-0.454-0.042-0.542-0.27c-0.065-0.165,0.017-0.517,0.059-0.69
				c0.04-0.001,0.067,0.018,0.086,0.053"/>
			<path fill="#FFFFFF" d="M191.121,95.346c-0.094-0.214-0.84-0.28-1.092-0.319c-1.19-0.189-2.362-0.421-3.553-0.599
				c-0.285-0.043-0.568-0.058-0.85-0.132c-0.294-0.078-0.562-0.228-0.854-0.308c-0.19-0.054-0.388-0.1-0.584-0.136
				c-0.373-0.072-0.292,0.094-0.347,0.436c0.106-0.025,0.193-0.015,0.3-0.002c0.327,0.033,0.709,0.117,1.035,0.203
				c1.108,0.29,2.211,0.428,3.344,0.623c0.963,0.165,1.908,0.359,2.857,0.508c-0.06-0.015-0.068,0.025-0.119,0.042"/>
		</g>
	</g>
	<g>
		<path fill="#FF0000" d="M135.427,262.88c-5.957,6.031-11.462,12.479-17.325,18.582c-3.634,3.791-7.267,7.746-9.808,12.475
			c-0.603,1.123-5.564,8.115-1.631,9.16c1.638,0.436,3.605,0.268,5.224,0.359c1.229,0.072,2.394,0.006,3.635,0.135
			c1.925,0.203,3.734-0.197,5.642-0.182c7.58,0.074,14.849-1.555,21.77-3.49c6.681-1.869,13.627-3.006,20.658-3.969
			c3.422-0.469,6.729-1.178,10.148-1.551c1.071-0.115,2.055,0.145,3.155,0.252c0.641,0.064,2.591,0.244,2.974-0.25
			c0.701-0.902-1.188-2.578-1.747-3.492c-1.104-1.807-1.319-4.184-1.668-6.021c-0.329-1.738-0.245-3.732-2.384-3.246
			c-1.855,0.42-3.69,0.756-5.669,0.881c-2.726,0.174-5.051,0.953-7.569,1.664c-1.455,0.412-2.827,0.994-4.294,1.363
			c-2.24,0.561-4.696,0.678-7.062,0.85c-6.773,0.494-13.193,1.977-19.913,2.443c1.558-2.357,3.866-4.381,5.918-6.318
			c3.22-3.045,6.599-5.871,9.81-8.912c7.072-6.691,12.335-15.141,18.698-22.529c4.493-5.217,9.922-9.568,14.235-14.916
			c1.719-2.133,3.242-4.209,4.299-6.838c0.413-1.029,0.727-1.723,0.385-2.99c-0.445-1.654-1.515-2.297-2.541-3.602
			c-0.61-0.777-0.673-1.258-1.585-1.768c-2.1-1.174-5.037-1.146-6.842-0.316c-2.475,1.139-3.39,3.947-4.99,5.953
			c-1.597,2.002-2.833,4.482-4.548,6.359c-1.56,1.707-3.168,3.406-4.72,5.141c-1.897,2.123-3.461,4.543-5.39,6.584
			c-1.543,1.635-3.096,3.262-4.65,4.885c-1.463,1.529-3.289,2.963-4.377,4.824C141.259,257.823,138.179,260.093,135.427,262.88z"/>
		<path d="M114.272,295.312c-0.123-0.232-0.263-0.395-0.492-0.527c-0.274,0.199-0.443,0.52-0.604,0.82
			c-0.088,0.166-0.173,0.334-0.266,0.498c-0.077,0.141-0.156,0.324-0.295,0.404c-0.174,0.1-0.273,0.318-0.367,0.494
			c-0.048,0.084-0.091,0.166-0.147,0.246c-0.025,0.037-0.046,0.094-0.083,0.125c0.028,0.051,0.097,0.088,0.139,0.133
			c0.048,0.051,0.095,0.111,0.148,0.156c0.031-0.01,0.028-0.039,0.043-0.064c0.028-0.055,0.068-0.109,0.107-0.158
			c0.112-0.135,0.247-0.242,0.355-0.381c0.091-0.117,0.168-0.244,0.262-0.359c0.052-0.064,0.106-0.123,0.172-0.174
			c0.053-0.039,0.069-0.082,0.102-0.139c0.087-0.152,0.251-0.273,0.368-0.402C113.907,295.765,114.094,295.542,114.272,295.312z"/>
		<path d="M116.624,302.149c-0.022,0.303-0.246,0.477-0.509,0.555c-0.532,0.162-1.196,0.049-1.786-0.105
			c-0.297-0.078-0.58-0.207-0.873-0.305c-0.132-0.043-0.255-0.025-0.387-0.043c-0.073-0.01-0.172,0.002-0.205-0.09
			c-0.035-0.094-0.027-0.227-0.028-0.32c-0.002-0.088-0.004-0.182,0.007-0.264c0.01-0.053-0.001-0.088,0-0.139
			c0.063,0.037,0.138,0.061,0.206,0.082c0.295,0.096,0.565,0.277,0.864,0.361c0.315,0.09,0.633,0.123,0.946,0.141
			C115.435,302.054,116.032,301.987,116.624,302.149z"/>
		<path d="M117.286,298.179c-0.003,0.012-0.131,0.01-0.151,0.014c-0.053,0.006-0.107,0.016-0.159,0.025
			c-0.107,0.021-0.211,0.049-0.314,0.08c-0.218,0.066-0.43,0.148-0.641,0.23c-0.296,0.113-0.594,0.23-0.911,0.303
			c-0.312,0.068-0.642,0.057-0.968,0.068c-0.065,0-0.172-0.021-0.222,0.004c-0.062-0.041-0.055-0.176-0.056-0.232
			c0-0.076-0.002-0.186-0.059-0.262c0.022-0.035,0.107-0.029,0.149-0.043c0.118-0.029,0.238-0.055,0.358-0.08
			c0.145-0.031,0.285-0.076,0.429-0.102c0.087-0.018,0.18-0.014,0.264-0.035c0.103-0.025,0.202-0.061,0.299-0.102
			c0.203-0.084,0.395-0.189,0.585-0.297c0.416-0.232,0.943-0.588,1.519-0.35C117.418,297.573,117.34,298.042,117.286,298.179z"/>
		<path d="M108.973,296.386c-0.073-0.051-0.142-0.115-0.217-0.164c-0.052-0.033-0.109-0.043-0.162-0.074
			c-0.133-0.08,0.06-0.172,0.112-0.217c0.064-0.057,0.114-0.129,0.171-0.193c0.11-0.131,0.218-0.262,0.327-0.395
			c0.513-0.635,1.018-1.299,1.703-1.756C111.796,294.333,109.506,296.024,108.973,296.386z"/>
		<g>
			<path d="M172.64,287.745c-0.207,0.008-0.413,0.031-0.612,0.061c-0.125,0.018-0.255,0.023-0.381,0.035
				c-0.064,0.006-0.126,0.016-0.188,0.025c-0.054,0.006-0.119,0.002-0.17,0.016c-0.148,0.033,0.062,0.244,0.136,0.289
				c0.084,0.051,0.169,0.049,0.254,0.053c0.12,0.008,0.239,0.012,0.359,0.031c0.15,0.023,0.294,0.027,0.442,0.031
				c0.137,0.002,0.271,0.01,0.407,0.006c0.085-0.006,0.173,0,0.261,0.008c0.096,0.008,0.193,0.023,0.289,0.029
				c0.025,0.002,0.073,0.014,0.085-0.012c-0.026-0.031-0.029-0.102-0.035-0.137c-0.018-0.111-0.032-0.223-0.052-0.336
				c-0.016-0.086-0.074-0.127-0.154-0.135c-0.099-0.01-0.193,0.006-0.291,0.006C172.869,287.716,172.759,287.739,172.64,287.745z"/>
		</g>
		<g>
			<path d="M174.504,291.056c0.138-0.203-0.54,0.043-0.777,0.053c-0.348,0.014-0.761-0.115-1.104-0.002"/>
			<path d="M174.821,290.687c-0.124-0.154-0.357-0.197-0.513-0.191c-0.149,0.008-0.292,0.043-0.433,0.076
				c-0.104,0.025-0.206,0.051-0.269,0.055c-0.109,0.004-0.223-0.01-0.338-0.021c-0.272-0.029-0.577-0.061-0.876,0.037
				c-0.009,0.004,0.151,0.273,0.161,0.297c0.035,0.084,0.07,0.168,0.107,0.252c0.058,0.125,0.128,0.24,0.19,0.361
				c0.022,0.041,0.028,0.041,0.073,0.035c0.05-0.004,0.101-0.01,0.153-0.012c0.102,0,0.203,0.014,0.304,0.014
				c0.133,0.002,0.264-0.012,0.393-0.021c0.14-0.012,0.28-0.025,0.419-0.033c0.079-0.008,0.159-0.006,0.234-0.018
				c0.086-0.012,0.172-0.035,0.255-0.049c0.026-0.004,0.049-0.008,0.074-0.012c0.025-0.006,0.042-0.016,0.065-0.02
				c0.033-0.008,0.114,0.02,0.136-0.014c-0.018-0.016-0.016-0.029-0.02-0.049c-0.027-0.129-0.016-0.252-0.029-0.381
				c-0.007-0.084-0.011-0.186-0.063-0.27C174.838,290.71,174.83,290.698,174.821,290.687z"/>
		</g>
		<g>
			<path d="M172.479,283.29c0.235,0.002,0.265,0.018,0.086,0.047c-0.603,0.088-1.549-0.162-1.942,0.324"/>
			<path d="M172.82,283.095c-0.005-0.006-0.009-0.012-0.015-0.016c-0.024-0.018-0.105-0.02-0.131-0.021
				c-0.083-0.004-0.163-0.012-0.246-0.021c-0.136-0.012-0.273-0.006-0.409-0.006c-0.236,0-0.476-0.016-0.713-0.023
				c-0.249-0.008-0.457,0.055-0.684,0.111c-0.057,0.012-0.118,0.014-0.174,0.029c-0.102,0.021-0.155,0.084-0.217,0.162
				c0.097,0.086,0.192,0.174,0.289,0.26c0.131,0.117,0.263,0.236,0.394,0.355c0.024,0.02,0.053,0.055,0.083,0.062
				c0.038,0.014,0.067-0.01,0.099-0.02c0.112-0.031,0.24-0.047,0.359-0.062c0.268-0.035,0.545-0.043,0.817-0.059
				c0.174-0.012,0.348,0.02,0.525,0.033c0.024,0.002,0.108,0.02,0.125,0.004c0.02-0.018-0.001-0.09-0.002-0.117
				c-0.005-0.076-0.01-0.146-0.028-0.223c-0.026-0.1-0.053-0.199-0.058-0.297C172.833,283.218,172.843,283.134,172.82,283.095z"/>
		</g>
		<g>
			<path d="M177.249,293.993c0.123-0.115,0.129-0.123,0.022-0.023c-0.337,0.564-1.257,0.34-1.877,0.396"/>
			<path d="M177.638,293.767c-0.116-0.008-0.228,0.025-0.34,0.033c-0.153,0.012-0.314,0.002-0.465,0.025
				c-0.09,0.014-0.183,0.02-0.28,0.016c-0.078-0.004-0.133-0.01-0.201,0.02c-0.066,0.029-0.157,0.018-0.233,0.02
				c-0.093,0-0.188,0-0.284-0.004c-0.195-0.006-0.395-0.01-0.583,0.008l0.285,0.965c0.146-0.016,0.312-0.01,0.482-0.006
				c0.08,0.002,0.16,0.004,0.239,0.004c0.24,0.002,0.478-0.008,0.701-0.061c0.103-0.023,0.223-0.049,0.301-0.115
				c0.077-0.064,0.166-0.088,0.266-0.119c0.083-0.021,0.173-0.029,0.255-0.053c0.057-0.018,0.109-0.041,0.145-0.084
				c0.043-0.049-0.011-0.16-0.038-0.223c-0.022-0.051-0.05-0.1-0.075-0.15c-0.019-0.037-0.027-0.074-0.042-0.113
				C177.743,293.87,177.711,293.782,177.638,293.767z"/>
		</g>
		<path d="M170.646,285.319c0.027,0.008,0.043,0.055,0.056,0.078c0.038,0.066,0.052,0.133,0.07,0.205
			c0.04,0.164,0.066,0.326,0.097,0.49c0.007,0.039,0.021,0.08,0.03,0.121c0.003,0.023-0.001,0.043,0.016,0.064
			c0.041,0.047,0.127,0.049,0.174,0.057c0.209,0.035,0.408,0.014,0.618,0.045c0.272,0.041,0.55,0.074,0.816,0.08
			c0.235,0.008,0.48,0.037,0.72,0.08c0.048,0.01,0.208,0.078,0.245,0.037c0.025-0.027-0.005-0.152-0.014-0.186
			c-0.026-0.109-0.053-0.223-0.085-0.33c-0.021-0.074-0.038-0.139-0.045-0.211c-0.004-0.059-0.047-0.059-0.099-0.066
			c-0.078-0.016-0.158-0.035-0.235-0.049c-0.133-0.02-0.262-0.023-0.395-0.039c-0.259-0.027-0.517-0.049-0.777-0.082
			c-0.091-0.01-0.18-0.02-0.273-0.041c-0.117-0.029-0.239-0.068-0.359-0.086c-0.146-0.021-0.295-0.072-0.444-0.078"/>
	</g>
	<path fill="#245977" d="M184.542,290.243c-0.379-0.045-0.744-0.148-1.042-0.291c-0.703-0.334-0.75-0.164-1.528,0.043
		c-0.577,0.152-1.16,0.143-1.75,0.162c-0.62,0.018-0.884,0.199-1.481,0.404c-0.188,0.064-0.344,0.082-0.503,0.205
		c-0.114,0.086-0.228,0.182-0.353,0.256c-0.072,0.045-0.267,0.199-0.355,0.182c-0.059-0.01-0.112-0.135-0.146-0.18
		c-0.101-0.135-0.208-0.264-0.317-0.391c-0.143-0.168-0.317-0.307-0.42-0.508c-0.102-0.195-0.122-0.422-0.186-0.629
		c-0.101-0.328-0.257-0.623-0.352-0.953c-0.168-0.586-0.218-1.197-0.355-1.791c-0.102-0.438-0.182-0.9-0.087-1.342
		c0.061-0.283,0.069-0.588,0.212-0.852c0.128-0.236,0.383-0.432,0.62-0.553c0.348-0.178,0.76-0.199,1.104-0.406
		c0.379-0.229,0.619-0.639,0.97-0.904c0.324-0.246,0.626-0.527,0.926-0.801c0.596-0.545,1.171-1.113,1.785-1.639
		c1.26-1.078,2.696-1.875,4.385-1.922c0.037-0.002,0.074-0.002,0.111-0.002c1.352-0.016,3.207,0.371,4.167,1.225
		c1.284,1.139,2.237,3.002,3.523,4.242c2.562,2.471,4.708,4.928,7.724,6.697c0.392,0.23,0.789,0.463,1.223,0.602
		c0.198,0.062,0.382,0.158,0.58,0.221c0.242,0.076,0.499,0.09,0.743,0.158c0.245,0.068,0.49,0.188,0.731,0.248
		c0.099,0.025,0.204,0,0.251,0.113c0.041,0.096-0.008,0.291-0.037,0.383c-0.085,0.283-0.369,0.623-0.609,0.795
		c-0.438,0.312-1.039,0.357-1.55,0.273c-0.701-0.117-1.414-0.135-2.112-0.273c-1.499-0.299-2.792-1.045-4.229-1.482
		c-0.873-0.266-1.696-0.793-2.44-1.254c-0.723-0.447-1.637-1.32-1.996-2.107c-0.353,0.127-0.381,0.533-0.697,0.779
		c-0.272,0.213-1.026,0.441-1.329,0.5c-0.282,0.057-3.001-0.084-2.914-0.436C186.549,290.075,185.501,290.354,184.542,290.243z"/>
</g>
</svg>
