<?xml version="1.0" encoding="utf-8"?>
<!-- Generator: Adobe Illustrator 16.0.4, SVG Export Plug-In . SVG Version: 6.00 Build 0)  -->
<!DOCTYPE svg PUBLIC "-//W3C//DTD SVG 1.1//EN" "http://www.w3.org/Graphics/SVG/1.1/DTD/svg11.dtd">
<svg version="1.1" id="Ebene_1" xmlns="http://www.w3.org/2000/svg" xmlns:xlink="http://www.w3.org/1999/xlink" x="0px" y="0px"
	 width="283.46px" height="425.2px" viewBox="0 0 283.46 425.2" enable-background="new 0 0 283.46 425.2" xml:space="preserve">
<g>
	<path fill="#245977" d="M71.655,239.34c0.888,0.207,1.798,0.248,2.699,0.356c0.915,0.112,1.726,0.446,2.614,0.635
		c0.914,0.193,1.902-0.122,2.833,0.075c0.619,0.131,1.067,0.255,1.603,0.612c0.467,0.31,0.861,0.427,1.354,0.644
		c0.48,0.21,0.872,0.598,1.328,0.852c1.029,0.577,2.119,1.206,3.194,1.676c2.374,1.035,10.935,2.089,13.392,2.91
		c2.003,0.668,4.168,1.4,6.262,1.572c0.664,0.054,1.258,0.293,1.941,0.302c0.695,0.01,1.389,0.048,2.088,0.075
		c1.336,0.052,2.627-0.073,3.967-0.146c2.209-0.116,4.406-0.475,6.604-0.265c1.938,0.185,4.086,0.468,5.854-0.649
		c1.552-0.979,1.623-2.128,1.295-3.695c-0.178-0.862-0.417-0.863-0.232-1.856c0.156-0.834,0.6-1.588,0.711-2.446
		c0.205-1.594-0.016-3.263-0.02-4.864c-0.01-3.145-0.302-6.283-0.312-9.424c-0.009-2.304-0.343-4.744-0.707-7.006
		c-0.184-1.138-0.637-2.247-1.045-3.304c-0.478-1.23-0.922-2.517-1.646-3.62c-1.198-1.833-2.698-3.566-4.288-5.034
		c-0.602-0.555-1.271-1.038-1.994-1.413c-2.539-1.317-5.887-0.915-8.141,1.022c-0.89,0.765-1.17,1.908-1.34,3.038
		c-0.305,2.027-0.383,4.171-0.176,6.204c0.078,0.769,0.16,1.608,0.306,2.36c0.116,0.603,0.405,1.118,0.372,1.717
		c-0.082,1.573-0.336,3.185-0.355,4.811c-0.035,3.18,1.508,6.348,2.69,9.229c0.266,0.646,0.657,1.237,0.93,1.819
		c-0.362,0.086-0.714-0.232-1.03-0.385c-0.445-0.213-0.912-0.323-1.367-0.508c-1.16-0.463-2.4-0.678-3.6-1.08
		c-1.563-0.523-3.322-0.715-4.967-0.907c-0.731-0.088-1.488,0.055-2.203-0.083c-1.232-0.237-2.287-0.52-3.577-0.541
		c-1.368-0.024-8.901,0.076-10.265,0.221c-1.007,0.104-1.801,0.25-2.816-0.053c-2.514-0.747-5.016-2.648-6.512-4.843
		c-0.372-0.544-0.783-1.232-0.867-1.897c-0.028-0.228-0.005-0.446-0.064-0.672c-0.095-0.353-0.172-0.696-0.201-1.062
		c-0.035-0.457,0.068-0.863,0.252-1.275c0.071-0.159,0.109-0.349,0.158-0.515c0.062-0.213,0.104-0.425,0.133-0.645
		c0.037-0.288,0.057-0.533-0.094-0.794c-0.166-0.289-0.413-0.459-0.721-0.572c-0.322-0.119-0.57-0.026-0.883,0.07
		c-0.47,0.145-0.785,0.597-1.096,0.948c-0.135,0.15-0.271,0.308-0.387,0.471c-0.266,0.367-0.436,0.805-0.605,1.226
		c-0.19,0.472-0.356,0.955-0.504,1.442c-0.136,0.447-0.265,0.942-0.335,1.402c-0.046,0.306-0.021,0.452-0.302,0.572
		c-0.191,0.083-0.312,0.021-0.52-0.026c-0.459-0.104-0.936-0.081-1.397-0.17c-0.216-0.042-0.435-0.068-0.653-0.09
		c-0.223-0.021-0.371,0.049-0.578,0.137c-0.146,0.062-0.305,0.192-0.404,0.317c-0.132,0.162-0.256,0.356-0.363,0.538
		c-0.144,0.247-0.34,0.488-0.438,0.759c-0.063,0.169-0.113,0.355-0.155,0.527c-0.027,0.113-0.017,0.247-0.04,0.364
		c-0.023,0.115-0.057,0.238-0.064,0.355c-0.007,0.14-0.008,0.297-0.006,0.438c0.001,0.117-0.037,0.283,0.002,0.394
		c-0.131,0.03-0.227,0.247-0.288,0.351c-0.126,0.208-0.29,0.41-0.382,0.637c-0.26,0.646-0.33,1.273-0.189,1.951
		c0.095,0.453,0.344,0.802,0.656,1.132c0.039,0.042,0.11,0.091,0.137,0.143c0.045,0.085,0.017,0.045,0.016,0.135
		c-0.004,0.233-0.032,0.453-0.013,0.693c0.042,0.493,0.212,0.992,0.36,1.467c0.094,0.3,0.189,0.65,0.412,0.882
		c0.092,0.095,0.219,0.15,0.28,0.274c0.059,0.119,0.072,0.267,0.12,0.392c0.091,0.23,0.289,0.415,0.466,0.589
		c0.419,0.41,0.934,0.522,1.431,0.794C70.479,239.305,71.102,239.21,71.655,239.34z"/>
	<path fill="#245977" d="M238.968,268.091c-0.003-0.016-0.291,2.004-0.403,2.852c-0.271,1.75-0.268,3.559-0.268,5.395
		c-0.012,3.211-0.083,6.373-0.347,9.495c-0.525,5.987-0.934,18.044-1.433,24.046c-0.412,4.885-0.963,10.309-0.951,15.275
		c0.006,2.722-0.558,5.233-0.027,7.929c0.489,2.506,0.914,4.997,1.312,7.589c0.993,6.44-0.185,12.505-0.688,19.066
		c-0.083,1.078-0.127,2.158-0.17,3.238c-0.04,0.979,0.035,2.082-0.229,3.017c-0.528,1.869-0.357,3.559-0.217,5.478
		c0.086,1.166,0.064,2.314,0.349,3.455c0.219,0.875,0.63,1.721,0.809,2.592c0.161,0.785,0.309,1.587,0.507,2.365
		c0.166,0.652,0.42,1.3,0.484,1.959c0.103,1.057-0.082,2.135-0.473,3.118c-0.146,0.369-0.287,0.892-0.537,1.139
		c-0.296,0.291-0.709,0.511-1.02,0.847c-0.504,0.547-0.928,0.992-1.523,1.436c-0.745,0.554-1.561,1.123-2.211,1.789
		c-0.655,0.671-1.344,1.049-1.789,1.909c-0.66,1.278-0.443,2.716-0.892,4.059c-0.388,1.159-1.362,2.314-2.184,3.219
		c-0.521,0.575-1.086,1.125-1.78,1.521c-0.654,0.373-1.412,0.388-2.157,0.387c-1.657-0.003-3.386-0.047-4.884-0.806
		c-1.285-0.65-2.555-1.05-3.709-1.914c-0.382-0.286-0.686-0.466-0.979-0.83c-0.354-0.44-0.498-0.919-0.715-1.435
		c-0.441-1.048,0.025-1.493,1.07-1.696c0.695-0.135,1.301-0.097,2.004-0.026c0.342,0.034,1.237,0.263,1.357-0.063
		c-0.727-0.457-3.5-0.976-2.979-2.415c0.239-0.664,1.197-0.495,1.768-0.478c0.448,0.015,1.46,0.03,1.777,0.369
		c-0.701-0.291-1.402-1.079-1.156-1.92c0.229-0.781,1.082-0.979,1.795-0.955c0.865,0.029,1.67,0.295,2.506-0.093
		c0.389-0.181,0.854-0.383,1.143-0.742c0.274-0.342,0.396-0.728,0.521-1.073c0.334-0.935,0.354-1.919,0.632-2.87
		c0.284-0.968,0.519-2.011,0.659-3.002c0.156-1.098,0.266-2.164,0.266-3.281c0-0.462,0.047-0.874,0.093-1.319
		c0.06-0.568,0.076-1.062,0.069-1.618c-0.009-0.67,0.252-1.378,0.348-2.043c0.35-2.415,0.257-4.92,0.084-7.341
		c-0.113-1.588-0.318-3.279,0.01-4.851c0.291-1.391,0.422-2.646,0.406-4.079c-0.041-3.63-0.271-7.267-0.99-10.831
		c-0.166-0.818-0.355-1.633-0.569-2.44c-2.648-10.04-3.811-20.448-4.006-31.025c-0.211-11.705-0.935-29.503-0.943-41.252
		c0.002-0.824-0.023-1.67,0.065-2.479c2.737-1.524,6.784-2.447,10.242-2.58c1.747-0.062,3.342,0.373,4.973,0.635
		c1.424,0.225,3.775-0.033,4.988,0.646"/>
	<path fill="#FFFFFF" d="M208.009,260.107c2.957-2.443,7.297,7.653,7.793,9.116c1.216,3.603,2.861,8.169,2.379,11.93
		c2.965,0.408,6.16,0.002,9.204-0.086c2.687-0.078,5.519,0.172,8.291,0.062c2.477-0.092,5.092,0.214,5.536-2.413
		c0.528-3.105,0.395-6.035,1.418-9.019c2.078-6.129,3.639-12.472,6.509-18.284c1.604-3.268,3.796-6.188,5.373-9.465
		c1.059-2.204,3.004-4.081,3.44-6.574"/>
	<path d="M208.661,259.784c2.906-0.703,6.682,8.084,7.141,9.439c1.216,3.603,2.861,8.169,2.379,11.93
		c2.965,0.408,6.16,0.002,9.204-0.086c2.687-0.078,5.519,0.172,8.291,0.062c2.477-0.092,5.092,0.214,5.536-2.413
		c0.528-3.105,0.395-6.035,1.418-9.019c0.293-0.86,0.563-1.731,0.839-2.598c-1.845,2.39-6.396,0.463-5.153-2.812
		c0.181-0.492,0.461-0.871,0.791-1.236c1.258-2.432,4.73-1.646,5.495,0.496c1.299-4.129,2.624-8.253,4.537-12.135
		c1.604-3.268,3.796-6.188,5.373-9.465c1.059-2.204,3.004-4.081,3.44-6.574L208.661,259.784z M223.897,270.178
		c-0.375,3.793-6.42,3.232-6.047-0.56l0.051-0.493c0.371-3.792,6.414-3.231,6.044,0.561L223.897,270.178z M228.206,261.29
		c-0.157-0.178-0.306-0.358-0.466-0.536c-2.49-2.936,2.188-6.702,4.688-3.763c0.154,0.178,0.303,0.358,0.46,0.537
		C235.386,260.466,230.703,264.229,228.206,261.29z M233.106,279.94c-3.896-0.365-3.316-6.248,0.583-5.884
		C237.589,274.415,237.014,280.302,233.106,279.94z M244.424,251.416l-0.457-0.54c-2.49-2.938,2.188-6.704,4.68-3.763l0.457,0.534
		C251.6,250.595,246.921,254.358,244.424,251.416z"/>
	<path fill="#245977" d="M136.073,181.421c0.28-0.087-12.469-23.913-24.8-19.527c-6.148,2.174-9.521,7.55-11.102,12.588
		c-0.238,0.757-0.344,1.56-0.299,2.352c0.018,0.304,0.088,0.601,0.107,0.902c0.014,0.19-0.024,0.379-0.01,0.569
		c0.022,0.281,0.127,0.576,0.259,0.824c0.167,0.314,0.399,0.591,0.646,0.843c0.113,0.115,0.229,0.242,0.355,0.353
		c0.184,0.159,0.379,0.291,0.588,0.415c0.087,0.052,0.316,0.135,0.361,0.231c0.022,0.047,0.001,0.116-0.011,0.162
		c-0.024,0.094-0.063,0.19-0.093,0.285c-0.076,0.251-0.189,0.514-0.306,0.749c-0.101,0.203-0.214,0.4-0.304,0.61
		c-0.033,0.073-0.082,0.149-0.104,0.227c-0.031,0.105-0.022,0.234-0.032,0.344c-0.015,0.155-0.055,0.309-0.084,0.461
		c-0.025,0.13-0.027,0.262-0.051,0.391c-0.054,0.3-0.148,0.599-0.252,0.886c-0.106,0.293-0.201,0.604-0.326,0.89
		c-0.082,0.188-0.22,0.319-0.336,0.484c-0.158,0.224-0.213,0.508-0.291,0.766c-0.092,0.305-0.183,0.609-0.272,0.915
		c-0.118,0.407-0.231,0.816-0.336,1.228c-0.454,1.838,3.081,1.498,3.864,2.034c2.141,1.48,4.295,5.009,5.695,7.187
		c0.864,1.348,0.308,1.551,1.878,2.219c1.597,0.67,6.77-1.922,8.274-2.795c2.107-1.241,3.23,0.706,4.741-1.019"/>
	<path d="M111.096,180.812c-0.418-0.114-0.885-0.487-1.338-0.661c-0.609-0.236-1.17-0.525-1.79-0.716
		c-1.051-0.304-1.924-0.617-2.585-1.474c-0.287,0.239-0.249,0.883,0,1.17c-0.187-0.067-0.33-0.164-0.45-0.307
		c-0.123,0.507,0.241,1.193,0.73,1.273c0.562,0.094,1.302-0.06,1.866-0.03c0.652,0.037,1.072,0.211,1.608,0.521
		c0.491,0.276,1.063,0.43,1.472,0.843c0.109-0.146,0.193-0.368,0.189-0.547"/>
	<path fill="#FFFFFF" d="M105.619,182.22c-0.079,0.198-0.162,0.392-0.16,0.607c0,0.108,0.009,0.208,0.021,0.314
		c0.023,0.207-0.015,0.393,0.078,0.588c0.043,0.088,0.101,0.19,0.201,0.191c0.13,0.001,0.305-0.096,0.427-0.142
		c0.377-0.145,0.761-0.271,1.139-0.412c0.367-0.138,0.751-0.3,1.086-0.506c0.106-0.066,0.224-0.14,0.318-0.22
		c0.05-0.042,0.097-0.112,0.152-0.138c-0.139-0.108-0.299-0.195-0.454-0.277c-0.869-0.462-1.977-0.778-2.961-0.568
		c-0.04,0.051-0.045,0.097,0.016,0.134"/>
	<path d="M107.666,182.136c-0.035-0.082-0.051-0.181-0.109-0.251c-0.055-0.067-0.145-0.116-0.229-0.142
		c-0.134-0.039-0.301-0.035-0.436-0.046c-0.388-0.031-0.607,0.28-0.616,0.649c-0.005,0.259-0.007,0.48,0.106,0.715
		c0.107,0.224,0.232,0.424,0.477,0.506c0.353,0.115,0.658-0.095,0.82-0.4C107.873,182.809,107.817,182.498,107.666,182.136z"/>
	<path fill="#FF0000" d="M108.882,193.098c-0.046,0.092-0.035,0.223-0.048,0.323c-0.021,0.161-0.039,0.309-0.09,0.464
		c-0.094,0.293-0.232,0.573-0.375,0.846c-0.186,0.355-0.501,0.694-0.829,0.928c-0.061,0.044-0.183,0.148-0.271,0.118
		c-0.061-0.021-0.115-0.137-0.156-0.193c-0.152-0.202-0.34-0.371-0.505-0.566c-0.193-0.228-0.282-0.501-0.451-0.745
		c-0.06-0.086-0.295-0.257-0.304-0.354c-0.012-0.122,0.181-0.125,0.262-0.125c0.287-0.003,0.572-0.018,0.859-0.033
		c0.26-0.017,0.52-0.036,0.783-0.106c0.279-0.083,0.578-0.376,0.801-0.404"/>
	<path fill="#FF0000" d="M130.784,192.342c-0.37,0.63-0.71,1.431-1.54,1.021c-0.604-0.295-1.129-1.048-1.625-1.487
		c-0.656-0.588-1.268-1.151-1.834-1.788c-1.705-1.881-3.363-3.768-5.168-5.563c-0.729-0.725-1.316-1.485-2.124-2.122
		c-0.429-0.337-0.862-0.646-1.331-0.915c-0.496-0.283-1.059-0.422-1.56-0.698c-0.607-0.338-1.212-0.622-1.864-0.87
		c-1.606-0.613-3.144-1.279-4.686-2.055c-1.176-0.592-2.402-1.083-3.645-1.519c-1.152-0.405-2.324-0.772-3.508-1.08
		c-0.445-0.115-0.846-0.276-1.311-0.254c-0.26,0.014-0.441,0.047-0.523,0.318c-0.07,0.234-0.053,0.494-0.052,0.735
		c0.001,0.451-0.021,0.954-0.081,1.401c-0.014,0.096-0.018,0.354-0.125,0.37c-0.082,0.013-0.305-0.233-0.365-0.281
		c-0.781-0.619-1.371-1.298-1.848-2.214c-0.291-0.559-0.391-1.154-0.557-1.754c-0.166-0.601-0.361-1.172-0.369-1.803
		c-0.007-0.444,0.002-0.877,0.07-1.316c0.102-0.66,0.376-1.323,0.551-1.971c0.463-1.724,1.459-3.007,2.527-4.417
		c1.092-1.442,2.193-2.714,3.842-3.555c0.861-0.439,1.789-0.484,2.693-0.193c0.611,0.196,1.1,0.69,1.71,0.85
		c-0.058-0.917-0.499-1.733-0.5-2.709c-0.003-1.197,0.561-2.107,1.65-2.645c1.468-0.725,4.843-1.551,5.612,0.582
		c-0.068-2.986,1.895-4.744,4.902-4.862c2.278-0.091,4.42,0.839,6.229,2.189c0.763,0.57,2.186,2.136,1.371,3.183
		c-0.243-0.592,0.692-1.26,1.129-1.526c1.471-0.9,3.138-0.325,4.466,0.587c1.744,1.197,2.51,3.201,2.817,5.22
		c0.232,1.532-0.167,2.967-0.006,4.476c0.708,0.321,1.682-0.747,2.439-0.775c1.4-0.054,2.088,1.865,2.404,2.962
		c0.536,1.856,0.521,4.076,0.038,5.935c-0.172,0.661-0.817,3.243-1.646,3.373c0.546-0.277,0.379-0.597,0.988-0.32
		c1.056,0.477,1.111,2.789,0.797,3.636c-0.425,1.142-1.906,3.037-3.121,3.395c-0.755,0.222-1.398-0.048-1.391-0.907
		c0.664,0.03,0.712,1.542,0.656,2.103c-0.098,0.996-0.625,1.712-1.314,2.403c-0.492,0.495-0.799,0.785-1.179,1.344
		c-0.489,0.716-1.389,1-2.06,1.505C131.675,190.836,131.229,191.584,130.784,192.342z"/>
	<path fill="#245977" d="M263.698,105.342c0.012,0.033,0.023,0.065,0.036,0.099c0.568,1.519,1.704,2.786,2.619,4.111
		c2.428,3.521,1.109,7.773,0.164,11.604c-0.77,3.118-2.088,6.531-2.25,9.758c-0.176,3.579,0.197,20.034-0.057,21.644
		c-0.172,1.083-0.953,2.018-1.223,3.103c-0.807,3.134-1.691,6.254-2.68,9.329c-0.592,1.838-1.75,3.597-2.182,5.464
		c-0.269,1.164-0.725,2.322-0.944,3.495c-0.501,2.683-0.55,5.269-0.55,7.993c0.003,5.579,1.807,11.069,1.264,16.75
		c-0.279,2.919-0.788,5.729-1.568,8.562c-0.457,1.656-1.883,4.25-0.438,5.694c2.104,2.102,4.107-1.671,5.303-2.906
		c0.875-0.904,2.047-1.746,2.5-2.968c0.322-0.874,0.039-1.769,0.262-2.654c0.334-1.337,1.395-2.657,2.077-3.845
		c0.771-1.341,1.542-2.681,2.323-4.016c14.299-24.438,7.799-73.022,8.348-76.821c0.145-0.998,0.586-1.53,0.753-2.434
		c0.24-1.298-0.169-2.739-0.04-4.064c0.262-2.679,0.314-5.393,0.262-8.118c-0.061-3.053-0.809-6.035-1.615-8.962
		c-0.313-1.135-0.145-2.047-0.287-3.166c-0.176-1.387-0.658-2.889-1.034-4.238c-0.499-1.792-1.086-3.363-1.069-5.251
		c0.014-1.545-0.515-2.961-0.5-4.507c0.012-1.212-0.742-3.305-2.463-2.711c0.021,0.674-0.131,2.534-1.037,2.485
		c-1.15-0.062-1.068-2.528-2.762-2.035c-1.184,0.345-0.588,1.531-0.42,2.192c0.085,0.333,0.445,1.199,0.145,1.586
		c-0.351,0.448-1.205,0.188-1.713,0.289c-1.16,0.232-1.83,0.872-1.999,1.944c-0.3,1.897,0.79,1.118,1.942,1.556
		c1.084,0.41,1.201,1.517,1.55,2.451c1.116,3.002,1.812,5.729,1.451,8.998C267.445,99.575,262.133,100.937,263.698,105.342z"/>
	<path fill="#FFFFFF" d="M186.142,215.307c1.193-0.14,2.355-0.341,3.506-0.614c5.619-1.318,10.886-3.774,16.658-4.61
		c5.384-0.786,10.78,0.029,16.067-1.702c3.038-1.002,6.367-2.889,8.987-4.674c2.467-1.682,5.208-2.752,7.564-4.629
		c4.515-3.585,8.861-7.182,11.916-12.061c0.54-0.874,0.964-1.772,1.562-2.604c0.377-0.533,1.236-1.171,1.376-1.737
		c0.243-0.979-0.7-1.364-0.976-2.183c-0.374-1.091,0.252-1.986,1.092-2.716c0.381-0.32,1.85-0.703,1.963-1.009
		c0.252-0.616-1.157-1.322-0.735-2.36c0.299-0.729,0.907-0.839,1.585-0.942c-2.007-1.887-0.731-2.23,1.336-3.209
		c-0.268-1.079-1.854-0.919-1.287-2.164c0.314-0.715,1.488-1.225,2.209-1.341c1.82-0.303,4.854,1.127,6.515,1.731
		c2.05,0.754,4.234,1.287,6.367,1.667c0.934,0.169,1.966,0.302,2.929,0.314c0.812,0.006,1.717-0.415,2.516-0.134
		c-0.006,0.773,0.021,1.788-0.558,2.352c2.346,1.02,0.677,2.978-1.115,3.908c0.641,0.326,1.489,0.662,2.177,0.834
		c0.048,1.277-0.955,2.119-1.026,3.276c2.835-0.231-1.767,3.318-1.886,3.517c-0.765,1.275-0.472,4.641-0.604,6.109
		c-0.279,2.936-0.52,5.829-1.155,8.682c-2.06,9.234-4.566,18.457-9.111,26.867c-2.011,3.706-3.914,7.4-6.363,10.844
		c-1.726,2.452-3.936,4.49-5.931,6.707c-2.792,3.123-6.554,5.59-9.821,8.224c-4.777,3.864-10.768,6.767-16.473,9.122
		c-5.37,2.205-10.932,3.908-16.636,5.059c-15.931,3.179-32.431,1.672-47.701-3.645c-6.675-2.319-12.585-5.939-17.981-9.884
		c-5.436-3.95-10.217-8.499-14.148-13.457c-3.923-4.961-7.019-10.337-9.068-15.933c-1.135-3.096-1.972-6.302-2.452-9.558
		c-0.394-2.692-1.254-5.773-1.056-8.481c0.06-0.779,0.297-1.322,0.424-2.039c0.573,0.427,0.454,2.496,0.629,3.273
		c0.262,1.201,0.38,2.438,1.067,3.475c1.166,1.756,3.177,3.938,5.151,4.793c3.378,1.465,6.36,3.719,10.396,3.208
		c0.303-0.038,0.604-0.083,0.901-0.153c3.019-0.635,5.806-2.574,7.505-5.08c0.881-1.287,0.974-2.159,1.037-3.609
		c0.078-1.909,0.764-3.677,0.263-5.61c-0.686-2.651-2.678-4.566-3.921-6.95c2.145,0.877,3.642,1.105,4.811,3.172
		c1.452,2.551,3.795,3.423,6.301,4.793c4.327,2.352,8.122,5.67,12.697,7.57C170.44,214.536,178.673,216.167,186.142,215.307z"/>
	<g>
		<path d="M165.313,212.351c-0.561-0.208-1.124-0.409-1.67-0.635c-0.779-0.323-1.509-0.732-2.25-1.127
			c0.044,1.023-1.219,1.836-2.263,1.5c-1.05-0.34-1.438-1.266-1.305-2.146c-0.178-0.519-0.089-0.97,0.531-1.121
			c-2.462-1.574-4.849-3.282-7.411-4.676c-0.275-0.148-0.539-0.288-0.807-0.428c-0.038,0.054-0.038,0.116-0.086,0.17
			c-0.893,0.874-3.419,1.701-3.828-0.128c-0.095-0.403-0.021-0.856,0.148-1.275c-0.048-0.347-0.012-0.7,0.086-1.047
			c-0.679-0.569-1.316-1.206-1.814-2.085c-0.563-0.99-1.207-1.559-1.955-1.98c-0.035,0.314-0.249,0.605-0.569,0.658
			c-0.023,0-0.047,0.006-0.07,0.012L142,198.03c-0.599,0.326-1.391-0.127-1.13-0.854c0.06-0.172,0.122-0.344,0.187-0.525
			c-0.382-0.145-0.78-0.293-1.222-0.471c1.243,2.384,3.235,4.299,3.921,6.95c0.501,1.934-0.185,3.701-0.263,5.61
			c-0.063,1.45-0.156,2.322-1.037,3.609c-0.477,0.709-1.061,1.35-1.689,1.951c0.023,0.023,0.065,0.029,0.104,0.051
			c0.566,0.45,0.82,1.322,0.735,2.021c-0.098,0.75-0.481,1.447-1.316,1.578c-1.035,0.148-1.892-0.872-2.458-1.604
			c-0.92,0.475-1.875,0.869-2.88,1.083c-0.297,0.07-0.599,0.115-0.901,0.153c-0.195,0.024-0.377,0.015-0.563,0.024
			c0.211,0.682-0.287,1.271-0.987,1.518c0.145,0.472-0.088,1.041-0.712,0.92c-1.254-0.244-2.618-1.184-2.257-2.477
			c-0.021-0.157,0.003-0.341,0.013-0.51c-2.028-0.686-3.894-1.818-5.89-2.684c-1.975-0.854-3.985-3.037-5.151-4.793
			c-0.688-1.037-0.806-2.273-1.067-3.475c-0.175-0.777-0.056-2.847-0.629-3.273c-0.127,0.717-0.364,1.26-0.424,2.039
			c-0.053,0.766-0.012,1.569,0.062,2.382c0.35-0.003,0.703,0.198,0.763,0.587c0.661,0.143,0.91,0.709,0.723,1.679
			c-0.089,0.483-0.593,0.792-1.064,0.578c0.205,1.112,0.418,2.215,0.572,3.256c0.48,3.256,1.317,6.462,2.452,9.558
			c1.457,3.974,3.464,7.832,5.898,11.512c0.057-0.151,0.08-0.326,0.175-0.463c-0.021-0.151-0.047-0.309-0.041-0.447
			c0.021-0.783,1.002-0.795,1.353-0.258c0.073,0.002,0.147-0.004,0.222,0.012c0.837-0.502,1.807-0.646,2.592-0.074
			c1.35,0.99,1.433,3.891-0.492,4.272c-0.166,0.437-0.498,0.747-1.059,0.804c0.148,0.189,0.276,0.389,0.421,0.575
			c3.051,3.837,6.607,7.417,10.581,10.679c1.654-0.688,2.985,0.619,3.045,2.369c0.178,0.131,0.341,0.279,0.522,0.409
			c0.376,0.276,0.77,0.53,1.156,0.801c1.554-1.602,3.075-3.241,4.501-4.97c3.244-3.908,6.179-8.055,8.802-12.378
			c-0.043,0.036-0.068,0.086-0.123,0.122c-0.98,0.69-2.531,0.421-2.946-0.771c-0.169-0.501-0.083-1.014,0.131-1.479
			c-0.146-0.433-0.122-0.872,0.249-1.243c1.628-1.639,3.623,0.591,3.279,2.328c-0.006,0.057-0.021,0.107-0.038,0.163
			c0.951-1.612,1.865-3.247,2.724-4.91C163.549,224.728,166.56,218.355,165.313,212.351z M121.254,219.938
			c-1.233-0.492-1.156-1.862-0.622-2.826c0.059-0.104,0.13-0.187,0.209-0.252c0.017-0.029,0.017-0.068,0.037-0.101
			c0.243-0.427,0.839-0.696,1.328-0.469c1.023,0.486,2.177,1.661,1.702,2.858C123.52,220.134,122.126,220.288,121.254,219.938z
			 M126.853,227.162c-1.479-0.628-1.989-2.215-1.014-3.49c0.204-0.272,0.48-0.294,0.744-0.231c0.946-0.427,2.162-0.275,2.443,0.902
			C129.323,225.588,128.632,227.921,126.853,227.162z M134.892,229.173c-0.029-0.104-0.073-0.189-0.089-0.306l0.003-0.038
			c-0.009-0.146,0.019-0.285,0.035-0.428c0.016-0.15,0.01-0.316,0.051-0.438c0,0-0.006-0.048,0.006-0.071
			c0.019-0.053,0.065-0.053,0.08-0.098c0.674-1.462,3.103-0.939,3.512,0.955c0.083,0.412-0.065,0.771-0.294,1.088
			c-0.24,0.735-0.967,0.967-1.69,0.83c-0.018-0.006-0.038,0.006-0.038,0.006c-0.104-0.012-0.157-0.062-0.234-0.08
			c-0.092-0.026-0.178-0.05-0.261-0.092C135.375,230.261,135.014,229.774,134.892,229.173z M136.597,241.794
			c-1.269-0.686-1.915-2.277-1.551-3.624c0.127-0.489,0.581-0.552,0.946-0.383c0.312-0.202,0.651-0.347,1.059-0.323
			c0.071,0.003,0.134,0.054,0.205,0.065c0.631-0.106,1.283,0.172,1.606,1.142c0.027,0.074,0.012,0.127,0.033,0.201
			c0.229,0.416,0.4,0.854,0.427,1.249C139.396,241.481,137.84,242.47,136.597,241.794z M143.986,217.827
			c0.493-0.367,1.009-0.032,1.163,0.4c0.216-0.003,0.395,0.086,0.51,0.275c0.026,0.01,0.062,0.006,0.086,0.013
			c1.427,0.622,1.762,3.644-0.306,3.439C143.456,221.759,142.272,219.111,143.986,217.827z M145.769,224.77
			c0.383-0.181,0.691-0.007,0.878,0.258c0.042-0.006,0.068-0.024,0.11-0.024c0.77-0.02,1.034,1.009,0.957,1.688
			c0.016,0.062,0.051,0.116,0.062,0.19c0.104,0.786-0.389,1.687-1.192,1.9c-0.963,0.255-2.052-0.572-2.278-1.477
			C144.002,226.13,144.719,225.265,145.769,224.77z M147.05,235.376c-0.441,0.996-1.948,1.169-2.687,0.404
			c-0.54-0.555-0.718-1.281-0.653-2.006c0.007-0.07,0.016-0.139,0.019-0.21c0.03-0.136,0.062-0.264,0.104-0.395
			c0.035-0.128,0.078-0.255,0.141-0.364c0.043-0.074,0.055-0.157,0.1-0.229c0.15-0.255,0.364-0.314,0.593-0.291
			c0.207-0.076,0.415-0.15,0.696-0.127c0.744,0.057,1.201,0.623,1.443,1.281C147.21,233.923,147.406,234.581,147.05,235.376z
			 M148.675,212.741c-0.012-0.032-0.033-0.062-0.041-0.098c-0.4-0.255-0.581-0.807-0.077-1.127c1.085-0.696,2.054-0.471,2.49,0.232
			c0.403,0.064,0.786,0.195,1.08,0.471c0.884,0.84,0.312,2.729-1.038,2.672c-0.492-0.018-0.935-0.226-1.299-0.527
			C149.155,213.966,148.509,213.355,148.675,212.741z M149.435,246.022c-2.64,0.69-3.479-3.467-0.985-4.084
			c1.032-0.738,2.082,0.104,2.456,1.248c0.163,0.333,0.192,0.709,0.095,1.109C150.908,245.05,150.478,245.743,149.435,246.022z
			 M155.703,227.557c-0.074-0.006-0.143-0.044-0.211-0.08c-0.029-0.018-0.056-0.018-0.086-0.036
			c-0.335-0.195-0.581-0.444-0.782-0.708c-0.522,0.11-1.164-0.306-0.908-0.94c0.282-0.682,0.766-1.394,1.397-1.637
			c0.05-0.032,0.063-0.08,0.115-0.112c0.326-0.192,0.617-0.101,0.804,0.106c0.143,0.048,0.284,0.113,0.43,0.207
			c0.057,0.042,0.071,0.107,0.122,0.152c0.539,0.187,1.002,0.542,1.186,1.053C158.253,226.866,156.937,228.007,155.703,227.557z
			 M162.526,219.93c-1.877-0.032-2.651-1.657-2.343-3.282c0.112-0.596,0.753-0.715,1.171-0.504c1.172-0.849,2.639-0.042,3.241,1.239
			C165.251,218.762,163.869,219.954,162.526,219.93z"/>
		<path d="M166.755,263.966c1.162-2.022,2.266-4.072,3.244-6.168c6.328-13.555,9.281-28.693,4.563-42.965
			c-1.337-0.238-2.654-0.517-3.946-0.849c0.599,2.87,1.203,5.699,1.027,8.724c-0.239,4.141-1.046,8.215-2.445,12.135
			c-2.651,7.432-6.302,14.643-10.714,21.229c-0.887,1.32-1.817,2.596-2.761,3.87c1.744,0.824,3.511,1.602,5.364,2.245
			C162.956,262.839,164.848,263.429,166.755,263.966z"/>
		<path d="M191.144,248.942c-0.941,6.32-2.763,12.428-5.307,18.282c3.356,0.231,6.731,0.243,10.1,0.106
			c5.02-17.984,2.915-38.004-9.184-52.128c-0.198,0.026-0.4,0.08-0.611,0.104c-0.477,0.057-0.96,0.074-1.438,0.11
			C190.69,225.46,192.874,237.304,191.144,248.942z"/>
		<path d="M232.289,234.137c-1.506-5.634-4.192-10.903-8.205-15.251c-3.297-3.57-7.615-5.812-10.969-9.248
			c-1.774,0.059-3.556,0.104-5.332,0.275c2.091,1.779,4.445,3.205,6.488,5.076c2.396,2.203,4.546,4.715,6.181,7.518
			c3.359,5.75,4.896,12.013,5.207,18.604c0.323,6.612-0.119,13.291-1.762,19.734c-0.039,0.175-0.086,0.364-0.131,0.543
			c0.549-0.214,1.112-0.395,1.658-0.616c1.948-0.807,3.929-1.709,5.889-2.664C233.538,250.263,234.386,241.995,232.289,234.137z"/>
		<path d="M241.897,251.65c1.352-1.085,2.778-2.153,4.195-3.238c0.594-5.112,0.52-10.284-0.344-15.313
			c-1.989-11.499-8.332-20.748-18.178-27.098c-0.907,0.502-1.826,0.997-2.752,1.412c3.312,2.746,6.488,5.566,8.94,9.249
			c2.915,4.364,5.217,9.166,6.278,14.296c1.666,8.09,0.392,15.729-1.791,23.275C239.519,253.417,240.753,252.573,241.897,251.65z"/>
		<path d="M274.389,186.377c0.06-0.878,0.202-1.673,0.495-2.159c0.119-0.198,4.721-3.748,1.886-3.517
			c0.071-1.157,1.074-1.999,1.026-3.276c-0.688-0.172-1.536-0.508-2.177-0.834c0.297-0.157,0.584-0.347,0.857-0.551
			c-2.568-0.547-2.094-4.588,0.714-4.33c0.096-0.457,0.102-0.951,0.102-1.379c-0.799-0.281-1.703,0.14-2.516,0.134
			c-0.963-0.013-1.995-0.146-2.929-0.314c-2.133-0.38-4.317-0.913-6.367-1.667c-0.151-0.053-0.356-0.139-0.527-0.204
			c-0.338,0.776-1.089,1.358-2.206,1.254c-1.566-0.142-2.142-1.474-1.913-2.639c-0.682-0.148-1.334-0.229-1.868-0.143
			c-0.721,0.116-1.895,0.626-2.209,1.341c-0.566,1.245,1.02,1.085,1.287,2.164c-2.067,0.979-3.343,1.322-1.336,3.209
			c-0.678,0.104-1.286,0.213-1.585,0.942c-0.422,1.038,0.987,1.744,0.735,2.36c-0.113,0.306-1.582,0.688-1.963,1.009
			c-0.84,0.729-1.466,1.625-1.092,2.716c0.275,0.818,1.219,1.204,0.976,2.183c-0.14,0.566-0.999,1.204-1.376,1.737
			c-0.599,0.831-1.022,1.729-1.562,2.604c-2.844,4.543-6.829,7.978-11.008,11.328c0.036,0.006,0.08-0.012,0.125,0
			c0.519-0.041,1.038,0.131,1.385,0.646c0.237,0.35,0.37,0.795,0.453,1.252c0.033,0.086,0.039,0.166,0.039,0.246
			c0.074,0.723-0.061,1.474-0.543,2.008c-0.762,0.848-2.5,1.197-3.062-0.119c-0.196-0.454-0.211-0.958-0.141-1.456
			c-0.124-0.374-0.147-0.795-0.002-1.213c0.012-0.023,0.029-0.042,0.044-0.065c-1.832,1.299-3.816,2.257-5.717,3.413
			c2.823,1.771,6.289,2.954,9.133,4.422c0.395-0.309,0.905-0.505,1.552-0.442l0.166,0.016c1.551,0.142,2.132,1.446,1.921,2.609
			c1.682,1.108,3.307,2.301,4.807,3.665c0.729,0.664,1.389,1.402,2.047,2.135c-0.259-1.316,0.581-2.892,2.363-2.728
			c2.921,0.27,2.487,4.685-0.434,4.415c-0.264-0.024-0.46-0.116-0.667-0.198c2.291,2.911,4.077,6.221,5.191,9.69
			c0.687,2.12,1.146,4.271,1.511,6.429c1.319-2.203,2.535-4.466,3.766-6.743c-0.604-0.383-1.026-1.015-0.937-1.928l0.015-0.154
			c0.157-1.606,1.657-2.138,2.897-1.82c1.248-2.675,2.28-5.433,3.229-8.22c-0.907-1.15-0.447-3.146,1.139-3.547
			c0.914-3.066,1.729-6.165,2.453-9.275c-2.829-0.354-2.389-4.662,0.507-4.395c0.148,0.014,0.237,0.074,0.367,0.109
			c0.348-2.085,0.587-4.178,0.789-6.305c0,0-0.035,0.012-0.054,0.006l-0.166-0.012C271.106,190.517,271.519,186.175,274.389,186.377
			z M251.454,202.885c-1.022,0.131-2.024-0.702-2.396-1.565c-0.491-1.16,0.419-2.082,1.389-2.601
			c0.635-0.341,1.145,0.306,1.018,0.851c0.018,0.004,0.029,0.006,0.047,0.01c0,0,0.012,0,0.018,0.006
			c0.489,0.112,0.887,0.587,1.015,1.011C252.846,201.548,252.652,202.73,251.454,202.885z M253.427,189.034
			c-2.924-0.273-2.488-4.686,0.427-4.413C256.783,184.892,256.348,189.307,253.427,189.034z M264.896,176.185l0.163,0.016
			c2.921,0.266,2.491,4.685-0.43,4.412l-0.163-0.016C261.54,180.324,261.979,175.915,264.896,176.185z M262.399,189.902
			c2.924,0.272,2.49,4.686-0.427,4.415C259.046,194.045,259.476,189.633,262.399,189.902z M260.371,209.233
			c-0.041-0.059-0.095-0.118-0.147-0.175c-1.863-2.215,1.651-5.038,3.514-2.823c0.053,0.057,0.101,0.116,0.148,0.176
			C265.745,208.623,262.236,211.448,260.371,209.233z"/>
		<path d="M215.017,257.178c0.773-6.382,0.942-12.94-0.32-19.28c-1.157-5.786-3.227-11.275-7.209-15.818
			c-3.218-3.683-7.195-6.34-10.871-9.465c-1.136,0.371-2.277,0.741-3.419,1.092c8.122,9.459,13.06,19.532,14.785,31.934
			c0.907,6.491,1.426,13.561,0.386,20.26c0.139-0.03,0.278-0.042,0.421-0.068c1.671-0.338,3.324-0.736,4.97-1.169
			C214.337,262.153,214.726,259.606,215.017,257.178z"/>
	</g>
	<path fill="#245977" d="M141.883,197.581c0.236-1.979-2.054-3.734-3.329-4.824c-1.626-1.39-3.17-1.558-5.179-2.018
		c-1.914-0.438-3.807-0.631-5.768-0.121c-1.227,0.319-2.506,0.672-3.566,1.337c-0.453,0.284-0.885,0.615-1.324,0.922
		c-1.876,1.31-4.498,1.36-6.671,2.162c-1.333,0.492-2.659,0.866-3.996,1.411c-0.778,0.317-1.441,0.923-2.333,0.807
		c-0.719-0.094-1.447-0.387-2.162-0.472c-1.883-0.224-3.766-0.6-5.675-0.703c-4.28-0.233-8.813-0.781-13.122-0.205
		c-1.992,0.267-4.018,0.371-6.041,0.371c-1.639,0-3.21,0.166-4.838,0.166c-1.619,0-3.25-0.185-4.83-0.166
		c-1.568,0.019-3.137-0.064-4.715-0.039c-1.849,0.03-3.738-0.167-5.576-0.349c-3.658-0.361-7.338-0.437-11.012-0.499
		c-3.281-0.056-6.563-0.214-9.838-0.299c-0.569-0.015-1.157-0.282-1.713-0.409c-0.886-0.202-1.783-0.354-2.671-0.542
		c-0.819-0.175-1.626-0.426-2.423-0.692c-2.623-0.878-4.773-2.758-7.438-3.513c-1.242-0.352-2.431-0.693-3.716-0.868
		c-0.561-0.075-1.127-0.185-1.693-0.215c-0.928-0.05-1.875,0.029-2.799-0.066c-1.955-0.201-3.957,0.01-5.91,0.069
		c-1.484,0.045-2.975,0.237-4.439,0.441c-0.402,0.056-2.197,0.303-2.013,1.036c0.046,0.184,0.309,0.289,0.456,0.352
		c0.432,0.182,0.857,0.308,1.307,0.439c1.77,0.521,3.666,0.306,5.484,0.494c1.777,0.185,3.555,0.364,5.342,0.355
		c0.521-0.002,1.543-0.051,1.531,0.681c-0.012,0.65-0.758,1.249-1.22,1.6c-0.62,0.47-1.243,0.878-1.901,1.278
		c-0.258,0.156-0.529,0.379-0.514,0.709c0.02,0.386,0.322,0.682,0.625,0.876c1.033,0.664,2.249,1.111,3.501,0.883
		c0.421-0.076,2.25-0.788,2.517-0.131c0.105,0.258-0.168,0.716-0.218,0.966c-0.058,0.284-0.075,0.576-0.069,0.866
		c0.006,0.356,0.175,0.606,0.383,0.893c0.74,1.02,2.127,1.663,3.289,2.041c1.145,0.373,2.465,0.371,3.636,0.168
		c0.812-0.142,1.693-0.73,2.542-0.627c0.313,0.038,0.638,0.155,0.934,0.271c0.629,0.244,1.29,0.42,1.943,0.586
		c2.793,0.709,5.594,1.131,8.39,1.754c3.213,0.717,6.138,2.381,9.333,3.12c2.404,0.557,4.89,0.454,7.338,0.556
		c2.049,0.086,4.043,0.517,6.096,0.434c1.961-0.08,3.482,0.858,5.327,1.353c2.354,0.631,4.806,0.685,7.223,0.854
		c3.18,0.222,6.237,0.357,9.425,0.185c2.887-0.157,5.74-0.669,8.583-1.134c1.264-0.207,2.484-0.505,3.718-0.829
		c0.834-0.22,1.812-0.797,2.583-0.347c0.283,0.166,0.335,0.414,0.7,0.587c0.402,0.191,0.877,0.288,1.306,0.385
		c1.294,0.29,2.597,0.679,3.922,0.869c2.899,0.416,5.74,1.231,8.657,1.522c2.286,0.228,3.746,1.882,5.785,2.812
		c0.711,0.324,1.314,0.791,2.051,1.088c1.338,0.539,2.742,0.849,4.121,1.198c1.484,0.377,2.543,0.329,3.991-0.036
		c2.877-0.725,5.858-1.238,7.851-3.792c0.881-1.13,1.168-2.509,1.524-3.833c0.453-1.681,0.745-3.489,0.071-5.151
		c-0.549-1.353-0.902-2.797-1.275-4.22c-0.297-1.126-0.422-2.672-1.164-3.591c-0.715-0.884-1.775-1.41-2.669-2.083
		c-1.657-1.249-3.399-1.816-5.339-2.501c-2.078-0.733-4.238-0.955-6.449-0.954c-1.615,0.001-2.947,0.156-4.324,0.841
		c0.271,0.031,0.551-0.023,0.783-0.175"/>
	<path d="M104.045,191.419c-0.4-1.057-0.459-2.383-0.09-3.114c0.52-1.03,1.387-1.771,2.393-2.254
		c0.814-0.389,1.969-0.652,2.814-0.422c1.105,0.304,1.916,1.252,2.565,2.14c0.589,0.806,0.735,1.822,1.336,2.569
		c0.567,0.705,1.339,1.489,2.144,1.934c0.814,0.447,1.921,0.477,2.108-0.562c0.111-0.619-0.003-0.912-0.569-1.125
		c-0.555-0.207-0.588-0.004-1.09,0.167c-0.033,0.119-0.111,0.198-0.137,0.244c-0.193-1.165,0.656-1.846,1.803-1.543
		c0.862,0.229,1.186,1.239,1.398,1.979c0.543,1.88-1.668,3.598-3.514,2.987c-1.832-0.607-3.024-2.428-5.061-2.428
		c-1.771,0-5.096,2.735-5.865-0.348c-0.133-0.531-0.094-0.73-0.682-0.932c-0.356-0.122-0.826-0.149-1.196-0.089
		c-1.022,0.169-0.983,0.921-0.416,1.646c0.616,0.788,1.321,1.161,2.252,1.276c0.415,0.051,2-0.003,2.112-0.43"/>
	<path d="M100.025,186.367c0.039,0.031,0.078,0.062,0.117,0.093c0.348-2.441-3.318-4.532-4.861-2.345
		c-0.545,0.772-0.546,2.48,0.278,3.06c0.933,0.655,2.161,0.119,1.916-1.067c-0.101-0.037-0.245-0.055-0.35-0.031
		c0.138,0.158,0.021,0.257,0.067,0.411c-0.574,0.065-1.49-0.169-1.222-0.964c0.229-0.677,1.722-0.738,2.198-0.385
		c0.473,0.348,0.727,1.26,0.876,1.794c0.085,0.302,0.208,0.655,0.246,0.981c0.041,0.35-0.048,0.78,0.138,1.078
		c0.246-0.384,0.275-0.973,0.418-1.391c0.169-0.498,0.641-1.555,0.178-1.938"/>
	<path d="M108.878,182.397c-0.067-0.212-0.435-0.291-0.612-0.38c-0.404-0.199-0.874-0.24-1.293-0.401
		c-0.4-0.152-0.812-0.298-1.221-0.43c-0.181-0.06-0.348-0.123-0.516-0.215c-0.064-0.035-0.136-0.065-0.193-0.11
		c-0.048-0.039-0.077-0.102-0.128-0.127c-0.042,0.237,0.128,0.534,0.29,0.696c0.129,0.129,0.33,0.366,0.525,0.345
		c-0.036,0.03-0.067,0.062-0.088,0.104c0.254,0.044,0.51,0.031,0.766,0.092c0.248,0.059,0.5,0.062,0.746,0.134
		c0.338,0.1,0.674,0.196,1.014,0.287c0.183,0.05,0.369,0.075,0.537,0.133c-0.107,0.092-0.267,0.153-0.392,0.224
		c-0.28,0.157-0.581,0.318-0.885,0.427c-0.328,0.117-0.663,0.274-1.011,0.338c-0.265,0.046-0.52,0.062-0.786,0.085
		c-0.246,0.021-0.14,0.234,0.005,0.328c0.129,0.083,0.322,0.095,0.471,0.07c0.082-0.014,0.174-0.047,0.248-0.081
		c0.16-0.072,0.311-0.131,0.482-0.185c0.551-0.171,1-0.526,1.477-0.829c0.186-0.116,0.42-0.256,0.564-0.419
		c-0.008,0.017-0.018,0.03-0.029,0.044"/>
	<path d="M101.543,182.162c-0.064,0.103-0.37,0.454-0.226,0.574c0.073-0.152,0.147-0.275,0.183-0.444
		c0.023-0.112,0.059-0.124-0.015-0.206c-0.071-0.083-0.134-0.182-0.192-0.276c-0.117-0.19-0.174-0.392-0.252-0.6
		c-0.046-0.119-0.096-0.531,0.122-0.533c-0.053-0.01-0.108-0.056-0.157-0.083c-0.107-0.058-0.209-0.129-0.311-0.199
		c-0.123-0.087-0.312-0.192-0.377-0.339c-0.037-0.082-0.028-0.223-0.015-0.311c0.081,0.025,0.177,0.138,0.238,0.2
		c0.104,0.105,0.214,0.175,0.347,0.239c0.287,0.14,0.59,0.256,0.887,0.368c0.139,0.052,0.36,0.104,0.39,0.273
		c0.041,0.234-0.126,0.441-0.149,0.666c-0.025,0.232-0.043,0.462-0.225,0.634c-0.1,0.095-0.191,0.199-0.332,0.15
		c-0.145-0.049-0.223-0.208-0.268-0.341c-0.114-0.341-0.313-0.718-0.258-1.086c0.025-0.168,0.073-0.231,0.242-0.186
		c0.16,0.043,0.326,0.095,0.471,0.178c0.099,0.057,0.207,0.143,0.328,0.17c0.014,0.047-0.025,0.132-0.035,0.182
		c-0.02,0.109-0.055,0.208-0.092,0.312C101.764,181.737,101.674,181.953,101.543,182.162z"/>
</g>
</svg>
