<?xml version="1.0" encoding="utf-8"?>
<!-- Generator: Adobe Illustrator 16.0.4, SVG Export Plug-In . SVG Version: 6.00 Build 0)  -->
<!DOCTYPE svg PUBLIC "-//W3C//DTD SVG 1.1//EN" "http://www.w3.org/Graphics/SVG/1.1/DTD/svg11.dtd">
<svg version="1.1" id="Ebene_1" xmlns="http://www.w3.org/2000/svg" xmlns:xlink="http://www.w3.org/1999/xlink" x="0px" y="0px"
	 width="283.46px" height="425.2px" viewBox="0 0 283.46 425.2" enable-background="new 0 0 283.46 425.2" xml:space="preserve">
<g>
	<path fill="#FFFFFF" d="M61.183,306.441c0.928,0.195,2.135-0.661,3.049-0.823c0.617-0.11,1.146-0.23,1.733-0.425
		c0.373-0.125,1.238-0.426,1.615-0.263c0.328,1.334,0.938,2.563,1.522,3.798c0.668,1.411-0.288,1.425-1.305,2.194
		c-1.04,0.786-2.012,1.614-2.889,2.587c-0.634,0.704-1.105,1.565-1.853,2.18c-0.624,0.513-1.623,0.977-1.928,1.771
		c-0.302-0.187-0.525-0.703-0.78-1.016c-0.684-0.836-0.767-1.358-0.851-2.377c-0.087-1.059-0.244-2.134-0.163-3.199
		c0.04-0.529,0.32-0.854,0.417-1.31c0.177-0.829-0.067-1.783,0.102-2.649c0.475-0.167,1.619-1.082,2.006-0.604"/>
	<path d="M193.011,233.118c1.135,1.839,2.644,3.265,3.511,5.198c1.036,2.31,1.434,4.964,2.324,7.344
		c0.898,2.401,1.129,4.506,0.688,7.104c-2.103-0.005-5.72,1.488-7.577,0.747c0.107-1.424-0.272-3.318-0.375-4.889
		c-0.085-1.293-0.615-3.137-1.036-4.316c-1.179-3.312-2.844-6.409-4.566-9.463c-1.46-2.59-2.312-5.304-3.833-7.836
		c-3.477-5.785-7.288-11.397-11.617-16.581c-4.691-5.619-10.27-10.16-15.914-14.661c-2.958-2.359-6.146-4.722-9.17-7.146
		c-2.779-2.229-5.537-4.782-8.352-6.813c-1.23-0.888-2.869-1.257-4.147-1.826c-1.839-0.816-1.834-1.999-2.214-3.921
		c-0.706-3.577-1.306-7.118-2.694-10.56c-0.628-1.558-1.596-3.622,0.85-2.736c1.145,0.415,2.605,1.8,3.619,2.531
		c4.172,3.014,7.077,7.402,10.213,11.355c1.134,1.429,2.608,2.62,3.884,3.95c1.777,1.853,3.896,3.246,5.74,4.982
		c2.683,2.526,5.32,5.373,7.831,8.058c2.427,2.593,5.161,5.036,7.91,7.29c3.254,2.667,5.574,6.147,8.546,9.024
		c2.603,2.519,5.003,5.83,7.402,8.596C187.813,222.911,190.025,228.279,193.011,233.118z"/>
	<path fill="#245977" d="M111.156,127.821c-0.348,0.034-0.782,0.354-1.038,0.587c-0.403,0.366-0.831,0.712-1.21,1.094
		c-0.188,0.188-0.429,0.311-0.605,0.511c-0.12,0.138-0.228,0.29-0.346,0.431c-0.287,0.338-0.509,0.729-0.733,1.109
		c-0.397,0.676-0.706,1.397-0.993,2.126c-0.578,1.466-0.857,3.089-0.931,4.653c-0.045,0.964-0.034,1.884,0.097,2.841
		c0.049,0.36,0.131,0.717,0.204,1.071c0.028,0.14,0.054,0.274,0.14,0.395c0.035,0.049,0.097,0.09,0.132,0.133
		c-0.306-0.055-0.608-0.893-0.701-1.159c-0.336-0.972-0.146-2.146-0.23-3.158c-0.11-1.34-0.283-2.813,0.307-4.037
		c0.457-0.948,1.21-1.972,1.893-2.739c0.743-0.835,1.651-1.492,2.457-2.263c0.595-0.568,0.898-1.399,1.572-1.853
		c1.818-1.224,4.536-1.253,6.63-1.155c1.959,0.092,3.823,0.862,5.401,2.004c0.195,0.14,0.381,0.306,0.598,0.411
		c0.121,0.059,0.268,0.081,0.359,0.188c0.119,0.143,0.12,0.378,0.107,0.551c-0.005,0.069-0.128,0.568-0.067,0.602
		c0.257,0.14,0.603,0.22,0.896,0.328c0.361,0.135,0.767,0.242,1.148,0.31c0.153,0.027,0.377,0.038,0.531,0.025
		c0.186-0.015,0.386-0.006,0.578-0.021c1.54-0.126,3.221,0.068,4.718,0.479c1.099,0.303,2.175,0.789,2.091,2.126
		c-0.109,1.729-4.696,4.299-3.146,5.916c0.013,0.014,0.025,0.025,0.038,0.038c0.171,0.173,0.362,0.322,0.534,0.493
		c0.038,0.038,0.072,0.077,0.111,0.113c0.024,0.022,0.05,0.042,0.067,0.07c0.027,0.047,0.039,0.104,0.057,0.153
		c0.021,0.057,0.044,0.113,0.068,0.169c0.037,0.088,0.047,0.188,0.01,0.277c-0.03,0.07-0.086,0.136-0.131,0.199
		c-0.029,0.042-0.063,0.078-0.101,0.112c-0.076,0.067-0.148,0.144-0.229,0.205c-0.205,0.154-0.415,0.304-0.616,0.463
		c-0.135,0.106-0.299,0.178-0.435,0.283c-0.056,0.043-0.117,0.076-0.171,0.122c-0.058,0.046-0.119,0.088-0.178,0.135
		c-0.381,0.31-0.798,0.575-1.134,0.938c-0.072,0.077-0.12,0.172-0.198,0.245c-0.039,0.035-0.083,0.066-0.125,0.101
		c-0.029,0.025-0.095,0.062-0.102,0.1c0.028,0,0.062-0.02,0.089-0.027c0.034-0.008,0.066-0.017,0.099-0.02
		c0.076-0.004,0.149-0.016,0.22-0.029c0.213-0.044,0.413-0.145,0.603-0.255c0.183-0.105,0.372-0.202,0.564-0.296
		c0.228-0.112,0.468-0.224,0.714-0.285c0.246-0.062,0.49-0.139,0.739-0.186c0.123-0.024,0.277-0.016,0.396,0.019
		c0.074,0.021,0.131,0.071,0.188,0.122c0.061,0.055,0.124,0.119,0.175,0.183c0.114,0.144,0.208,0.303,0.296,0.463
		c0.068,0.124,0.13,0.295,0.127,0.439c-0.005,0.269-0.006,0.532,0.014,0.801c0.034,0.457,0.104,0.907,0.212,1.353
		c0.12,0.496,0.369,1.33,0.244,1.87c-0.141,0.61-0.772,1.24-1.253,1.656c-0.585,0.506-1.417,0.976-2.094,1.348
		c-0.619,0.34-1.314,0.598-1.834,1.104c-0.363,0.354-0.589,0.797-0.863,1.209c-0.592,0.888-0.281,1.829-0.526,2.816
		c-0.313-0.268-1.159,0.017-1.509,0.078c-0.263,0.047-0.511,0.083-0.779,0.142c-0.561,0.127-0.967,0.257-1.517,0.059
		c-0.491-0.177-0.809-0.206-1.322-0.166c-0.477,0.035-0.815-0.074-1.116-0.433c-0.616-0.735-1.124-1.5-1.78-2.221
		c-0.668-0.734-1.268-1.56-1.984-2.23c-0.406-0.381-0.837-0.646-1.306-0.936c-0.423-0.262-0.914-0.399-1.318-0.694
		c-0.425-0.307-0.805-0.568-1.306-0.763c-1.386-0.535-2.809-0.729-4.019-1.692c-0.533-0.425-1.23-1.03-1.635-1.581
		c-0.591-0.804-0.658-1.753-1.176-2.566"/>
	<path d="M119.064,135.44c0.086-0.072-0.062-0.478-0.07-0.618c-0.016-0.256,0.028-0.533,0.039-0.79
		c0.024-0.547,0.219-1.04,0.471-1.519c0.171-0.324,0.393-0.62,0.69-0.852c0.161-0.126,0.337-0.2,0.552-0.203
		c0.12-0.001,0.272-0.005,0.387,0.029c0.104,0.031,0.166,0.103,0.278,0.105c0.015,0.047,0.013,0.086-0.006,0.131
		c-0.367-0.021-0.82,0.479-1.052,0.729c-0.366,0.393-0.429,1.065-0.449,1.566c-0.024,0.574-0.03,1.122-0.258,1.643
		c-0.164,0.373-0.576,1.005-1.021,1.059c-0.067-0.43,0.418-0.73,0.384-1.138"/>
	<path d="M121.798,136.922c0.042,0.026,0.447-0.067,0.548-0.108c0.16-0.062,0.314-0.156,0.448-0.269
		c0.293-0.245,0.549-0.489,0.668-0.85c0.137-0.415,0.217-0.789,0.24-1.247c0.019-0.398-0.099-0.699-0.233-1.066
		c0.245,0.136,0.48,0.312,0.745,0.415c0.189,0.074,0.67,0.074,0.795,0.232c-0.374-0.031-0.75-0.027-1.123-0.058
		c0.1,0.141,0.32,0.209,0.462,0.3c0.227,0.148,0.531,0.205,0.731,0.377c-0.399,0.048-0.747-0.107-1.122-0.142
		c0.153,0.138,0.329,0.215,0.489,0.326c0.065,0.044,0.125,0.11,0.192,0.153c0.061,0.04,0.29,0.108,0.326,0.16
		c0.135,0.198-0.261,0.122-0.382,0.116c-0.188-0.009-0.388-0.036-0.573-0.018c-0.019,0.024-0.021,0.053-0.004,0.08
		c0.172-0.001,0.36,0.16,0.516,0.237c0.109,0.054,0.255,0.15,0.323,0.234c-0.162,0.02-0.356,0.002-0.515-0.024
		c-0.097-0.017-0.229-0.068-0.354-0.055c-0.096,0.009-0.186,0.05-0.284,0.045c0.051,0.101,0.314,0.219,0.427,0.299
		c0.159,0.113,0.292,0.213,0.444,0.314c-0.375-0.031-0.752-0.132-1.134-0.096c-0.04,0.213,0.644,0.431,0.731,0.646
		c-0.4,0.052-0.769-0.118-1.141-0.135c-0.113,0.271,0.44,0.728,0.52,0.978c-0.19-0.104-0.694-0.798-0.928-0.715
		c-0.208,0.074-0.101,0.624-0.143,0.813c-0.086-0.207-0.298-0.591-0.501-0.698c-0.295-0.156-0.356,0.299-0.479,0.476
		c-0.119,0.173-0.303,0.495-0.517,0.537c0.092-0.112,0.14-0.381,0.201-0.527c0.077-0.183,0.194-0.403,0.192-0.602
		c0.092,0.006,0.141-0.033,0.226-0.057c0.034-0.009,0.186-0.028,0.11-0.031"/>
	<path d="M123.216,130.367c0.014,0.011,0.027,0.021,0.041,0.033c-0.054-0.227-0.142-0.442-0.159-0.665
		c-0.017-0.227-0.008-0.553,0.038-0.775c0.019-0.094,0.167-0.484,0.277-0.512c0.131-0.031,0.395,0.274,0.498,0.365
		c-0.049,0.148-0.207,0.244-0.303,0.362c-0.1,0.124-0.163,0.279-0.212,0.428c-0.078,0.232-0.185,0.602-0.18,0.853
		c0.076,0.018,0.159,0.021,0.237,0.019"/>
	<path d="M124.201,129.978c0.368,0.014,0.545-0.138,0.748-0.432c-0.003,0.096-0.036,0.211-0.099,0.282
		c-0.075,0.084-0.222,0.091-0.21,0.21c0.252,0.049,0.534,0.017,0.762,0.004c-0.071,0.093-0.306,0.179-0.435,0.175
		c0.106,0.143,0.345,0.086,0.516,0.119c0.023,0.339-1.231-0.142-1.363-0.319c0.039,0.031,0.084,0.038,0.125,0.06"/>
	<path d="M118.238,138.64c0.112,0.173,0.162,0.4,0.248,0.592c0.153,0.339,0.389,0.678,0.597,0.983
		c0.419,0.614,0.932,1.093,1.497,1.555c0.595,0.487,1.208,0.797,1.923,1.068c0.599,0.229,1.145,0.218,1.771,0.287
		c0.712,0.079,1.306,0.198,1.809-0.433c0.269-0.337,0.273-0.858,0.033-1.21c-0.237-0.349-0.696-0.705-1.113-0.738
		c-0.335-0.027-0.936,0.263-0.796,0.688c0.061,0.185,0.261,0.231,0.357,0.343c-0.335,0.069-0.75-0.242-0.792-0.558
		c-0.027-0.211,0.057-0.361,0.18-0.521c0.165-0.213,0.26-0.241,0.524-0.278c0.833-0.115,1.533,0.27,1.906,1.045
		c0.114,0.235,0.18,0.385,0.141,0.653c-0.034,0.227-0.089,0.468-0.166,0.669c-0.167,0.434-0.534,0.532-0.949,0.647
		c-0.572,0.156-1.088,0.231-1.685,0.258c-0.32,0.014-0.64,0.057-0.96,0.041c-0.289-0.015-0.555-0.121-0.827-0.222
		c-0.539-0.199-0.97-0.488-1.403-0.868c-0.554-0.487-0.898-1.134-1.299-1.732c-0.248-0.371-0.395-0.755-0.625-1.143
		c-0.098-0.165-0.194-0.561-0.368-0.653c-0.253-0.137-0.2,0.405-0.247,0.577c-0.091,0.338-0.127,0.675-0.144,1.029
		c-0.013,0.278,0.026,0.524,0.011,0.802c-0.013,0.23,0.009,0.46,0.077,0.68c0.074,0.238,0.163,0.429,0.397,0.539
		c0.15,0.071,0.386,0.183,0.529,0.074c0.228-0.174,0.148-1.073-0.238-0.961c-0.003,0.078-0.035,0.151-0.067,0.216
		c-0.024-0.141,0.075-0.261,0.208-0.303c0.181-0.06,0.326,0.068,0.429,0.203c0.201,0.265,0.24,0.846,0.126,1.157
		c-0.256,0.694-1.242,0.425-1.496-0.109c-0.127-0.268-0.136-0.573-0.19-0.867c-0.057-0.305-0.015-0.651,0-0.979
		c0.015-0.322,0.03-0.643,0.045-0.964c0.024-0.515,0.054-1.011,0.072-1.517c0,0.26-0.13,0.492-0.228,0.726
		c-0.172,0.405-0.249,0.8-0.297,1.238c-0.026,0.232-0.1,0.469-0.145,0.698c-0.079,0.396-0.062,0.798-0.091,1.198
		c-0.044,0.606-0.153,1.21-0.182,1.822c-0.026,0.557-0.073,1.383,0.233,1.878c0.135,0.219,0.287,0.398,0.404,0.636
		c0.132,0.271,0.266,0.546,0.453,0.783c0.146,0.186,0.336,0.317,0.523,0.46c0.333,0.257,0.731,0.413,1.147,0.287
		c0.448-0.137,0.717-0.376,0.666-0.841c-0.024-0.225-0.025-0.484-0.258-0.607c-0.132-0.069-0.445-0.105-0.548,0.021
		c-0.092-0.116,0.046-0.282,0.116-0.378c0.118-0.164,0.213-0.213,0.409-0.209c0.379,0.008,0.693,0.258,0.832,0.623
		c0.157,0.413,0.149,1.083-0.144,1.441c-0.344,0.42-0.887,0.472-1.386,0.416c-1.168-0.132-1.713-1.335-2.053-2.322
		c-0.357-1.037-0.524-2.126-0.586-3.214c-0.032-0.569,0.042-1.122,0.078-1.692c0.018-0.286,0.065-0.546,0.136-0.824
		c0.054-0.209,0.116-0.406,0.146-0.621c0.016-0.116,0.041-0.23,0.028-0.349c-0.004-0.041-0.065-0.193-0.06-0.216
		c-0.035,0.159-0.031,0.307-0.08,0.459c-0.064,0.199-0.149,0.365-0.254,0.536c-0.269,0.439-0.679,0.819-0.841,1.318
		c-0.05,0.156-0.057,0.32-0.097,0.479c-0.059,0.236-0.187,0.442-0.28,0.665c-0.373,0.901-0.431,1.996-0.16,2.933
		c0.078,0.269,0.206,0.515,0.287,0.78c0.081,0.264,0.099,0.545,0.207,0.801c0.082,0.194,0.139,0.397,0.228,0.582
		c0.243,0.504,0.458,1.042,0.649,1.584c0.169,0.479,0.221,0.986,0.32,1.456c0.047,0.219,0.057,0.42,0.151,0.636
		c0.062,0.142,0.14,0.28,0.225,0.409c0.041,0.062,0.135,0.157,0.139,0.231c-0.282-0.147-0.514-0.507-0.769-0.719
		c-0.285-0.239-0.646-0.374-0.965-0.554c-0.354-0.198-0.658-0.358-1.029-0.505c-0.385-0.149-0.757-0.322-1.15-0.491
		c-1.03-0.441-2.019-0.977-2.959-1.589c-0.513-0.334-1.053-0.667-1.541-1.033c-0.591-0.445-1.118-0.978-1.676-1.463
		c-0.658-0.57-1.265-1.154-1.764-1.884c-0.518-0.756-0.907-1.602-1.268-2.438c-0.355-0.823-0.63-1.784-0.761-2.666
		c-0.126-0.849-0.099-1.727-0.059-2.588c0.075-1.6,0.48-3.25,1.468-4.544c0.382-0.499,0.713-1.046,1.13-1.519
		c0.358-0.405,0.772-0.75,1.188-1.092c0.392-0.322,0.808-0.724,1.246-0.976c0.598-0.341,1.191-0.682,1.776-1.05
		c0.562-0.354,1.287-0.551,1.918-0.754c1.264-0.408,2.579-0.868,3.913-0.965c0.883-0.064,1.692-0.039,2.529,0.224
		c0.354,0.111,0.746,0.258,1.076,0.414c0.311,0.148,0.718,0.397,1.067,0.412c-0.87,0.249-1.84,0.602-2.604,1.161
		c-0.511,0.375-1.012,0.786-1.39,1.301c-0.187,0.253-0.337,0.529-0.438,0.827c-0.09,0.264-0.223,0.402-0.177,0.698
		c0.122,0.771,1.092,1.516,1.874,1.298c0.709-0.196,1.065-1.451,0.279-1.798c-0.342-0.151-0.328,0.153-0.476,0.359
		c-0.083-0.323-0.052-0.653,0.38-0.693c0.335-0.031,0.603,0.176,0.792,0.438c0.463,0.647,0.208,1.626-0.373,2.105
		c-0.31,0.254-0.733,0.545-1.141,0.566c-0.511,0.026-0.858-0.182-1.225-0.507c-0.629-0.559-0.318-1.435-0.4-2.175
		c-0.244,0.173-0.342,0.793-0.381,1.081c-0.051,0.373-0.051,0.79,0.034,1.144c0.104,0.436,0.119,0.896,0.339,1.29
		c0.198,0.352,0.485,0.652,0.739,0.965c0.198,0.242,0.405,0.486,0.591,0.745c0.224,0.312,0.343,0.682,0.472,1.036
		c0.133,0.365,0.186,0.776,0.25,1.152c0.069,0.412,0.222,0.803,0.268,1.245"/>
	<path fill="#FF0000" d="M131.086,141.91c0.448-0.106,0.883-0.557,0.967-1.004c0.08-0.426,0.021-0.957-0.383-1.202
		c-0.243-0.148-0.527,0.062-0.729,0.198c-0.513,0.343-0.878,0.942-1.1,1.502c-0.173,0.438-0.414,0.825-0.663,1.227
		c-0.12,0.193-0.23,0.385-0.387,0.55c-0.129,0.134-0.329,0.21-0.434,0.358c0.507-0.254,0.893-0.661,1.309-1.027
		C130.115,142.117,130.553,142.037,131.086,141.91z"/>
	<path fill="#FF0000" d="M129.804,143.519c0.538-0.038,0.986,0.153,1.469,0.37c0.158,0.071,0.309,0.154,0.471,0.215
		c0.084,0.029,0.17,0.057,0.259,0.065c0.038,0.003,0.066,0.019,0.102,0.023c0.034,0.006,0.074-0.017,0.104-0.029
		c0.038-0.018,0.076-0.039,0.113-0.062c0.1-0.061,0.179-0.117,0.24-0.221c0.08-0.133,0.134-0.297,0.096-0.451
		c-0.016-0.066-0.053-0.124-0.078-0.188c-0.032-0.083-0.081-0.156-0.126-0.235c-0.104-0.182-0.207-0.361-0.341-0.521
		c-0.071-0.086-0.125-0.147-0.229-0.192c-0.031-0.015-0.062-0.032-0.092-0.049c-0.073-0.041-0.158-0.064-0.242-0.068
		c-0.089-0.004-0.18-0.011-0.267,0.006c-0.036,0.006-0.073,0.014-0.111,0.021c-0.021,0.006-0.043,0.007-0.064,0.013
		c-0.141,0.049-0.264,0.164-0.395,0.234c-0.35,0.185-0.696,0.384-1.031,0.602c-0.137,0.088-0.261,0.195-0.403,0.275
		c-0.07,0.039-0.143,0.067-0.219,0.091c-0.069,0.023-0.149-0.011-0.224,0.006c-0.07,0.016-0.147,0.009-0.22,0.015
		c-0.068,0.006-0.121,0.027-0.181,0.056c-0.022,0.012-0.062,0.018-0.067,0.046c-0.004,0.021,0.019,0.077,0.037,0.092
		c0.051,0.042,0.146-0.003,0.196-0.018c0.07-0.021,0.142-0.034,0.213-0.046c0.075-0.013,0.158-0.024,0.235-0.021
		c0.041,0.002,0.081,0.004,0.122,0.005c0.098,0.006,0.186-0.028,0.281-0.028C129.567,143.523,129.686,143.527,129.804,143.519z"/>
	<path d="M119.376,171.648c0.873,0.806,1.305-1.853,1.433-2.249c0.421-1.295,0.873-2.596,1.089-3.938
		c0.334-2.064-0.19-4.377-1.053-6.254c-0.342-0.744-0.619-1.466-1.117-2.116c-0.436-0.57-0.784-1.196-1.19-1.785
		c-0.363-0.527-0.789-0.972-1.179-1.48c-0.3-0.393-0.678-1.19-0.543-1.68c0.729-0.059,1.224,0.327,1.883,0.551
		c0.732,0.248,1.551,0.255,2.341,0.268c0.854,0.014,1.797-0.057,2.622-0.25c0.928-0.217,1.835-0.626,2.759-0.905
		c0.637-0.193,1.5-0.757,1.467,0.288c-0.021,0.701-0.219,1.458-0.338,2.12c-0.295,1.641,0.104,3.381,0.384,4.965
		c0.135,0.763,0.352,1.494,0.472,2.265c0.136,0.867,0.189,1.816,0.248,2.704c0.078,1.184-0.027,2.576-0.237,3.725
		c-0.061,0.33-0.083,0.7-0.129,1.025c-0.034,0.239-0.077,0.491-0.112,0.701c-0.035,0.206,0.071,0.604-0.048,0.777
		c-0.124,0.18-0.719,0.37-0.904,0.462c-0.785,0.392-1.536,0.635-2.423,0.685c-0.601,0.033-1.209,0.041-1.799,0.152
		c-0.804,0.149-1.632,0.223-2.448,0.184"/>
	<path d="M128.745,138.019c0.058-0.156-0.024-0.951,0.054-1.345c0.098-0.498,0.404-1.145,0.712-1.53
		c0.312-0.391,2.341-2.095,2.47-1.013c0.036,0.298-0.586,0.732-0.78,0.928c-0.34,0.342-0.531,0.688-0.804,1.062
		c-0.44,0.601-1.438,1.804-1.348,2.588"/>
	<path d="M131.483,187.059c-2.042,6.665-5.546,13.376-7.603,19.982c-1.96,6.294-3.397,12.775-4.325,19.414
		c-0.453,3.247-0.826,6.611-0.987,10.053c-0.079,1.682-0.146,3.363-0.236,5.045c-0.075,1.416,0.758,3.276,0.192,4.508
		c-1.222-0.646-3.387-0.812-4.25-1.778c-0.861-0.966-0.703-3.987-0.775-5.091c-0.291-4.449-0.279-8.691-1.042-13.107
		c-0.663-3.831-1.176-7.812-1.84-11.801c-0.73-4.391-2.523-8.915-2.922-13.169c-0.75-8.019-1.138-16.557,1.13-24.216
		c1.058-3.574,2.446-6.756,4.286-9.908c1.111-1.903,2.292-3.776,3.65-5.514c0.673-0.861,1.391-1.706,2.198-2.445
		c0.362-0.332,0.687-0.711,1.083-0.287c0.357,0.382,0.494,1.301,0.661,1.793c0.324,0.955,0.955,1.546,1.552,2.34
		c1.22,1.624,2.495,3.233,3.777,4.827c0.594,0.738,0.896,1.644,1.367,2.459c0.595,1.031,0.922,2.057,1.279,3.213
		c0.291,0.94,0.648,1.882,0.907,2.83c0.161,0.591,0.353,1.364,0.682,1.906c0.326-0.126,0.622-1.144,0.691-1.507
		c0.121-0.635,0.182-1.275,0.213-1.932c0.031-0.678,0.131-1.385,0.103-2.062c-0.03-0.712-0.29-1.422-0.425-2.121
		c-0.236-1.218-0.733-2.325-1.235-3.424c-0.436-0.952-1.081-2.139-1.153-3.114c0.878,0.365,1.368,1.243,1.979,2.012
		c0.763,0.961,1.345,1.979,1.656,3.166c0.409,1.555,0.877,2.995,1.09,4.568c0.118,0.873,0.159,1.665,0.111,2.56
		c-0.048,0.909-0.029,1.822-0.084,2.732c-0.057,0.936-0.35,1.82-0.433,2.74C132.618,183.544,132.017,185.315,131.483,187.059z"/>
	<path fill="#FFFFFF" d="M120.943,161.67c0.749,2.391,1.959,4.586,3.038,6.833c1.311,2.727,2.567,5.506,3.334,8.451
		c0.281,1.078,0.475,2.133,0.717,3.231c0.2,0.909,0.618,1.97,0.573,2.898c0.303-0.164,0.39-0.793,0.541-1.121
		c0.216-0.469,0.5-0.929,0.737-1.38c0.529-1.008,0.744-2.033,1.132-3.076c0.292-0.784,0.398-1.735,0.54-2.556
		c0.132-0.765,0.113-1.727-0.018-2.463c-0.279-1.577-0.523-3.164-1.207-4.712c-0.026-0.06-0.053-0.117-0.08-0.177
		c-0.251-0.54-0.542-1.061-0.801-1.597c-0.11-0.227-0.176-0.456-0.291-0.68c-0.133-0.258-0.25-0.525-0.327-0.806
		c-0.055-0.203-0.082-0.418-0.153-0.614c-0.026-0.072-0.075-0.275-0.136-0.314c-0.017,0.087,0.008,0.155,0.003,0.242
		s-0.008,0.173-0.012,0.26c-0.007,0.143-0.037,0.305-0.015,0.445c0.016,0.105,0.039,0.192,0.04,0.303
		c0.002,0.287,0.005,0.575,0.006,0.863c0.002,0.576-0.002,1.153-0.03,1.729c-0.031,0.652-0.146,1.156-0.241,1.774
		c-0.07,0.455-0.349,1.079-0.329,1.554c-0.449-0.214-0.589-1.025-0.842-1.442c-0.341-0.564-0.63-1.163-0.955-1.705
		c-0.73-1.219-1.413-2.448-2.094-3.657c-0.273-0.484-0.528-0.98-0.774-1.479c-0.125-0.255-0.249-0.51-0.37-0.767
		c-0.112-0.235-0.21-0.479-0.355-0.694c-0.06-0.088-0.113-0.182-0.174-0.27c-0.127-0.182-0.276-0.35-0.4-0.532
		c-0.115-0.167-0.253-0.335-0.387-0.487c-0.128-0.146-0.25-0.294-0.38-0.438c-0.187-0.205-0.383-0.401-0.561-0.613
		c-0.076-0.091-0.105-0.162-0.133-0.272c-0.026-0.105-0.098-0.188-0.169-0.268c-0.05-0.055-0.107-0.189-0.168-0.216
		c-0.101,0.174-0.189,0.377-0.199,0.586c-0.006,0.111-0.01,0.224-0.016,0.335c-0.006,0.118,0.024,0.217,0.054,0.334
		c0.076,0.295,0.23,0.556,0.315,0.85c0.049,0.173,0.124,0.343,0.182,0.515c0.06,0.178,0.153,0.342,0.209,0.516
		C120.815,161.258,120.878,161.464,120.943,161.67z"/>
	<path d="M121.377,208.654c-1.372,0.601,3.207,8.423,3.885,9.906c2.136,4.674,4.72,9.074,7.018,13.673
		c4.276,8.557,10.472,15.796,15.271,23.976c1.989,3.392,3.923,6.85,5.697,10.406c1.781,3.572,3.988,6.867,5.807,10.455
		c1.232,2.428,2.624,4.635,3.901,7.04c2.688,5.057-0.35,7.366-4.663,9.267c-2.359,1.04-5.024,2.049-7.522,2.641
		c-4.745,1.125-9.353,2.356-14.111,3.668c-2.754,0.759-5.533,0.597-8.289,0.942c-2.477,0.311-4.961,0.699-7.363,0.907
		c-3.681,0.317-7.206,1.5-10.871,1.959c-3.641,0.457-6.546,1.507-10.069,2.45c-5.297,1.417-10.93,2.104-16.308,2.841
		c-2.521,0.347-4.65,1.347-7.033,2.261c-1.372,0.526-4.958,2.614-6.191,2.506c-2.148-0.188-3.329-5.267-3.722-6.985
		c-0.503-2.195-0.311-2.79,1.831-3.454c3.936-1.221,7.985-1.496,11.969-2.744c4.403-1.381,8.822-2.575,13.213-3.51
		c3.991-0.85,7.973-1.05,11.952-1.806c4.351-0.826,8.57-2.115,12.911-2.391c1.82-0.113,3.525-0.875,5.409-0.893
		c2.387-0.023,4.779-0.612,7.165-0.916c2.156-0.273,4.314-0.139,6.508-0.097c1.741,0.033,3.268-0.515,4.982-0.591
		c1.732-0.08,3.664,0.525,5.36,0.165c1.701-0.36,3.209-1.091,4.958-1.408c0.74-2.159-1.218-3.821-2.295-5.4
		c-1.049-1.537-1.73-3.146-2.945-4.634c-4.106-5.029-7.462-10.604-10.834-16.146c-1.419-2.333-2.792-4.375-4.52-6.439
		c-1.875-2.238-2.959-5.163-4.728-7.52c-1.166-1.554-2.483-3.152-3.836-4.547c-1.087-1.121-2.874-1.981-3.743-3.323
		c-0.523-0.808-0.837-2.224-1.3-3.153c-0.672-1.353-1.048-2.838-1.146-4.393c-0.285-4.496,0.27-8.986,0.762-13.447
		c0.396-3.596,0.521-7.32,1.724-10.763"/>
	<path d="M117.189,234.484c-0.397,1.827,0.055,5.264,0.368,7.116c0.333,1.974,1.022,3.817,1.396,5.806
		c0.999,5.319,1.852,10.662,2.707,15.932c1.439,8.867,2.944,17.692,4.788,26.494c1.307,6.237,3.103,12.16,4.015,18.138
		c1.099,7.196,0.982,14.494,0.462,21.735c-0.469,6.534,0.483,12.502,0.356,19.025c-0.172,8.787,1.539,17.605,2.406,26.328
		c0.234,2.353,0.325,5.533,3.056,6.271c1.074,0.291,4.008-0.085,4.597-1.064c0.448-0.744-0.206-2.744-0.347-3.55
		c-0.228-1.308-0.372-2.544-0.504-3.876c-1.033-10.414,0.033-21.645,0.538-32.451c0.224-4.801,1.012-9.329,1.215-14.212
		c0.236-5.677,2.112-11.021,1.769-16.902c-0.222-3.8-1.351-7.996-2.215-11.771c-1.363-5.957-2.499-12.037-3.842-18.228
		c-1.548-7.129-2.86-14.339-4.179-21.524c-1.04-5.661-1.737-11.415-3.425-16.936c-0.807-2.64-1.007-3.741-3.418-4.72
		c-2.612-1.062-5.39-1.174-8.074-1.946"/>
	<path d="M110.242,145.54c-1.563-3.786-2.924-7.709-4.48-11.552c-0.884-2.187-2.322-3.902-3.326-5.918
		c-2.101-4.215-3.14-8.895-4.635-13.499c-1.207-3.717-2.952-7.155-4.146-10.855c-2.088-6.468-4.53-13.016-6.139-19.593
		c-1.562-6.385-1.412-13.039-1.104-19.556c0.102-2.166,0.391-4.15,0.696-6.264c0.149-1.031,0.32-2.157,0.561-3.174
		c0.124-0.522,0.774-1.254,0.82-1.695c0.228-2.183-1.792-2.014-3.521-2.138c-1.693-0.121-3.122-0.705-4.865-0.578
		c-0.531,3.025-0.024,6.067-0.071,9.02c-0.051,3.208-0.151,6.409,0.391,9.513c0.476,2.727,0.774,5.511,0.928,8.393
		c0.393,7.327,2.446,14.106,4.299,21.166c1.786,6.806,3.236,13.721,6.169,20.095c1.733,3.767,2.854,7.938,4.391,11.848
		c1.541,3.92,3.216,7.756,4.835,11.604c1.626,3.868,3.272,7.778,4.621,11.797c1.284,3.823,1.938,7.894,3.364,11.719
		c1.201,3.222,2.582,6.809,4.291,9.809c1.823,3.2,5.285,3.71,7.18,6.504c1.481,2.184,4.969,2.713,5.769-0.644
		c1.727-7.244-3.045-12.934-6.051-18.989c-2.747-5.536-7.217-10.476-9.656-16.243C110.455,146.053,110.348,145.796,110.242,145.54z"
		/>
	<path fill="#245977" d="M81.69,50.73c0.313,0.062,0.435-0.028,0.363-0.271c-1.565-2.143-1.174-3.574-4.29-4.038
		c-2.418-0.361-4.538,0.253-6.537-1.237c-1.804-1.345-2.104-3.248-2.261-5.349c-0.089-1.201,0.147-2.52,0.196-3.728
		c0.054-1.332,0.721-2.387,0.655-3.633c3.359-0.047-0.491,6.27,2.868,6.222c0.263-1.365-0.464-7.96,1.979-6.81
		c0.105,1.306-0.947,7.462,1.759,6.561c0.318-1.836,0.065-3.801,0.387-5.636c0.436-0.143,1.104-0.111,1.524,0.071
		c0.157,1.959-1.497,7.581,1.816,7.062c0.862-0.136,1.892-1.983,2.845-1.465c1.174,0.64,0.418,3.192-0.812,3.262
		c-0.791,2.8,1.953,2.568,3.132,4.506c0.999,1.641,0.674,4.766,0.34,6.671c-2.827,0.468-3.785-2.199-3.437-4.64"/>
	<path fill="#245977" d="M198.368,251.643c-0.701,2.53,1.316,3.144,3.152,3.441c1.816,0.294,4.11,1.508,5.382-0.566
		c0.409-0.667,1.242-6.581,3.224-4.51c1.11,1.16-1.458,4.529-1.165,6.206c1.342,0.11,1.556-1.548,2.611-2.197
		c1.12-0.689,2.623-0.507,3.976-0.271c0.615,3.719-5.17,2.942-4.278,5.869c1.235,0.217,6.321,0.029,5.114,2.708
		c-1.21,0.219-5.331-0.365-6.169,0.258c-1.746,1.295,2.721,3.155,2.222,4.934c-1.436,0.163-2.703,0.146-3.727-0.826
		c-0.802-0.761-1.079-2.761-2.623-2.235c-0.266,1.475,0.004,2.477-0.968,3.709c-0.864,1.095-1.309,1.518-1.745-0.174
		c-0.326-1.266-0.062-2.333-0.954-3.47c-0.688-0.878-1.51-1.354-2.489-1.678c-1.953-0.644-4.044-1.233-4.919-3.409
		c-0.455-1.129-0.563-2.543-0.545-3.843c0.014-1.068,0.917-3.589,0.604-4.1"/>
	<path d="M56.359,305.881c-1.002,0.615-2.533-0.293-3.608-0.013c-1.433,0.373-0.429,1.842-0.236,2.725
		c0.406,1.864,0.319,3.94,0.476,5.845c0.178,2.164,0.479,4.418,0.996,6.515c0.406,1.645,0.833,3.37,1.148,5.037
		c0.382,2.016,0.231,4.171,0.324,6.206c0.175,3.84-0.348,7.688-0.371,11.539c-0.005,0.847-0.008,1.759,0.05,2.601
		c0.017,0.243-0.038,0.845,0.286,0.959c0.541,0.188,1.241-1.357,1.385-1.73c0.368-0.954,0.731-1.982,1.022-2.993
		c0.292-1.012,0.144-2.084,0.302-3.145c0.314-2.113,0.454-4.34,0.815-6.45c0.17-0.989,0.088-2.075,0.136-3.083
		c0.048-1.04,0.282-1.905,0.434-2.92c0.128-0.86,0.174-1.693,0.319-2.544c0.139-0.812,0.131-1.668,0.279-2.479
		c0.122-0.671,0.24-1.485,0.479-2.118c0.155-0.412,0.535-0.845,0.551-1.326c0.576,0.043,1.075-0.317,1.63-0.417
		c0.488-0.086,1.045,0.019,1.541,0.039c0.631,0.026,1.091,0.071,1.663,0.376c0.316,0.167,0.606,0.45,0.943,0.557
		c-0.427-0.851-1.131-1.988-2.076-2.375c-0.486-0.199-3.562,0.239-3.071-0.822c0.248-0.05,0.469-0.248,0.691-0.293
		c0.36-0.072,0.75,0.021,1.117-0.011c-0.133-0.494-0.232-1.031-0.584-1.44c-0.627,0.599-1.394,1.105-1.853,0.177
		c-0.449-0.909-0.298-1.898-0.354-2.901c-0.055-0.982-0.036-1.527,0.273-2.441c0.312-0.924,0.57-1.466,0.618-2.488
		c0.015-0.312,0.197-1.071,0.075-1.342c-0.196-0.436-0.896-0.418-1.328-0.393c-1.255,0.072-2.371-0.002-3.628-0.203
		c-0.935-0.15-2.066-0.326-2.872,0.438c-0.625,0.594-1.344,2.287-0.852,3.104"/>
	<path fill="#FFFFFF" d="M137.974,380.584c-0.679-0.031-1.735-0.14-2.35,0.205c-0.689,0.385-0.243,1.418-0.104,2.188
		c0.112,0.618,0.197,1.335,0.082,2.012c-0.089,0.519-0.51,1.449-0.244,1.999c0.177,0.365,1.229,0.84,1.596,0.916
		c1.27,0.263,2.944-0.616,4.104-0.951c0.581-0.166,1.207-0.161,1.819-0.286c0.61-0.124,1.18-0.312,1.836-0.449
		c0.058-0.473-0.791-1.044-1.123-1.357c-0.458-0.433-0.985-0.804-1.405-1.27c-0.712-0.79-1.136-1.627-1.73-2.466
		C139.884,380.317,138.86,380.625,137.974,380.584z"/>
	<path d="M144.257,393.251c2.336,0.175,4.53,1.274,6.501,2.481c1.107,0.678,2.465,0.952,3.679,1.339
		c1.204,0.384,2.391,0.758,3.625,1.051c1.155,0.274,2.348,0.671,3.523,0.792c0.977,0.1,2.012-0.037,2.976,0.135
		c1.758,0.316,3.541,0.2,5.301-0.073c0.849-0.132,3.676-0.291,4.054-1.129c-0.533-0.112-0.816-0.109-1.294-0.378
		c-0.499-0.28-0.928-0.538-1.436-0.782c-1.355-0.651-2.684-1.415-4.073-1.987c-1.525-0.629-2.862-1.467-4.378-2.123
		c-1.675-0.727-3.324-1.112-5.061-1.567c-1.401-0.366-2.682-0.706-4.071-0.993c-1-0.207-1.727-0.458-2.642-0.917
		c-2.463-1.237,0.882-4.348,0.6-6.014c-0.756-0.34-1.084,1.187-1.339,1.621c-0.49,0.834-1.409,1.284-2.149,1.874
		c-0.33,0.263-0.523,0.575-0.83,0.838c-0.508,0.436-0.459,0.287-1.01,0.028c-1.066-0.499-1.038-0.756-0.941-1.945
		c-0.455,0.776-1.83,0.572-2.527,1.03c-1.022,0.671-1.722,1.019-2.917,0.668c-0.927-0.272-1.97-0.244-2.992-0.312
		c-0.811-0.054-2.152-0.712-2.924-0.465c-1.07,0.342,0.207,1.125,0.404,1.687c0.429,1.214,0.116,2.575,0.807,3.71
		c0.432,0.708,1.128,1.52,1.917,1.833C139.316,394.545,141.942,393.076,144.257,393.251z"/>
</g>
</svg>
