<?xml version="1.0" encoding="utf-8"?>
<!-- Generator: Adobe Illustrator 16.0.4, SVG Export Plug-In . SVG Version: 6.00 Build 0)  -->
<!DOCTYPE svg PUBLIC "-//W3C//DTD SVG 1.1//EN" "http://www.w3.org/Graphics/SVG/1.1/DTD/svg11.dtd">
<svg version="1.1" id="Ebene_1" xmlns="http://www.w3.org/2000/svg" xmlns:xlink="http://www.w3.org/1999/xlink" x="0px" y="0px"
	 width="283.46px" height="425.2px" viewBox="0 0 283.46 425.2" enable-background="new 0 0 283.46 425.2" xml:space="preserve">
<g>
	<path fill="#245977" d="M153.956,367.332c0.931,2.794,1.816,5.547,2.833,8.302c0.512,1.383,2.906,4.256,1.95,5.784
		c-0.649,1.038-2.196,0.999-3.231,1.269c-0.947,0.248-1.481,0.817-2.344,1.173c-2.59,1.065-5.001,1.282-7.827,0.841
		c-2.145-0.334-2.133-1.26-1.692-3.039c0.667-2.697,2.072-5.496,1.632-8.344c-0.451-2.931-2.211-5.625-3.161-8.413
		c-1.594-4.677-3.146-9.268-4.953-13.906c-1.246-3.204-2.816-6.255-3.836-9.551c-1.147-3.71-2.341-7.84-4.21-11.246
		c-1.599-2.912-1.484-6.511-3.683-9.182c-1.115-1.355-1.958-2.921-2.731-4.506c-1.091-2.233-0.92-4.264-0.504-6.631
		c0.357-2.041-0.483-3.965-0.965-5.887c-0.654-2.601-1.027-5.305-1.486-7.947c-0.903-5.203-1.728-10.423-2.81-15.594
		c-0.729-3.476-2.529-7.03-2.86-10.532c-0.312-3.31-1.299-6.49-2.523-9.604c-0.312-0.795,4.462-2.085,4.976-2.149
		c1.86-0.233,3.9,0.036,5.456,1.15c1.729,1.238,2.987,3.576,3.1,5.707c0.136,2.553,0.287,4.84,0.961,7.381
		c0.569,2.143,1.224,4.335,1.418,6.56c0.465,5.314,2.018,10.328,3.478,15.297c1.067,3.635,2.042,7.339,2.682,11.122
		c0.096,0.572,0.134,1.689,0.399,2.185c0.348,0.651,1.267,1.188,1.735,1.76c1.272,1.556,2.03,3.153,2.067,5.16
		c0.041,2.224-0.288,4.646,0.046,6.834c0.124,0.813,0.456,1.797,0.814,2.63c0.939,2.185,1.49,4.521,2.419,6.701
		c0.755,1.77,1.782,3.141,2.381,5.04c1.527,4.847,2.869,9.749,4.238,14.642c0.679,2.417,2.314,4.263,3.078,6.651
		C151.902,360.42,152.817,363.909,153.956,367.332"/>
	<path d="M151.594,123.772c-0.303-1.013-0.706-1.998-1.052-2.998c-0.229-0.66-0.359-1.361-0.551-2.034
		c-0.159-0.559-0.312-1.118-0.446-1.684c-0.109-0.451-0.223-0.932-0.218-1.396c0.008-0.697-0.046-1.421,0.202-2.083
		c0.062-0.168,0.091-0.258,0.218-0.386c0.089-0.089,0.186-0.165,0.265-0.263c0.179-0.22,0.324-0.438,0.45-0.683
		c0.058-0.112,0.058-0.221,0.115-0.337c0.045-0.091,0.114-0.166,0.152-0.261c0.052-0.123,0.096-0.274,0.148-0.412
		c0.083-0.219,0.149-0.488,0.184-0.72c0.037-0.263,0.097-0.528,0.145-0.789c0.08-0.417,0.122-0.861,0.239-1.27
		c0.082-0.292,0.146-0.588,0.217-0.883c0.03-0.122,0.085-0.263,0.067-0.395c-0.044-0.325-0.447-0.193-0.683-0.146
		c-0.204,0.04-0.412,0-0.618,0.011c-0.165,0.01-0.315,0.064-0.48,0.073c-0.177,0.008-0.357-0.01-0.535-0.007
		c-0.337,0.007-0.671,0.067-1.009,0.073c-0.894,0.015-1.774,0.13-2.671,0.131c-0.338,0-0.695,0.036-1.031-0.015
		c-0.15-0.022-0.484-0.124-0.643-0.058c-0.098,0.042-0.098,0.176-0.125,0.266c-0.078,0.25-0.151,0.526-0.188,0.785
		c-0.042,0.304-0.098,0.61-0.136,0.914c-0.022,0.176,0.003,0.349-0.025,0.523c-0.063,0.387-0.069,0.783-0.134,1.169
		c-0.048,0.287-0.102,0.588-0.186,0.866c-0.022,0.074-0.042,0.141-0.068,0.215c-0.004,0.013-0.049,0.139-0.051,0.147
		c-0.03,0.152-0.035,0.254,0.069,0.369c0.087,0.093,0.175,0.129,0.054,0.218c-0.217,0.161-0.607,0.217-0.861,0.282
		c-0.181,0.047-0.348,0.128-0.526,0.182c-0.289,0.088-0.597,0.135-0.892,0.204c-0.969,0.23-1.947,0.419-2.917,0.646
		c-0.246,0.057-0.5,0.047-0.737,0.098c-0.295,0.065-0.532,0.161-0.84,0.179c-0.342,0.019-0.686,0.036-1.027,0.051
		c-0.684,0.029-1.368,0.05-2.052,0.068c-2.187,0.058-4.377,0.086-6.561,0.25c-1.806,0.136-3.637,0.726-5.429,1.059
		c-0.612,0.115-1.224,0.291-1.827,0.442c-0.314,0.079-0.367-0.11-0.428-0.39c-0.049-0.226-0.061-0.458-0.111-0.683
		c-0.066-0.309-0.093-0.606-0.197-0.909c-0.105-0.308-0.187-0.621-0.269-0.936c-0.082-0.31-0.159-0.625-0.249-0.932
		c-0.06-0.205-0.137-0.405-0.199-0.612c-0.033-0.111-0.042-0.229-0.067-0.337c-0.028-0.125,0.017-0.122-0.132-0.133
		c-0.106-0.008-0.168,0.055-0.268,0.072c-0.082,0.014-0.184-0.003-0.266-0.003c-0.204-0.001-0.426-0.051-0.626-0.03
		c-0.262,0.029-0.53,0.123-0.79,0.178c-0.531,0.112-1.065,0.211-1.601,0.299c-1.038,0.171-2.081,0.303-3.124,0.421
		c-0.53,0.061-1.06,0.117-1.59,0.174c-0.268,0.029-0.535,0.058-0.802,0.087c-0.076,0.008-0.757,0.122-0.775,0.086
		c0.387,0.784,3.156,2.002,4.099,2.555c-3.437,1.688-6.946,1.298-10.674,1.625c0.039,1.489,0.471,2.943,0.861,4.368
		c0.342,1.249,0.361,2.406,0.584,3.661c0.144,0.813,0.137,1.633,0.137,2.479c0,2.432,0.054,4.728-0.105,7.159
		c-0.491,7.489-2.428,14.895-3.377,22.362c-0.424,3.334-1.329,6.618-2.027,9.9c-1.046,4.91-2.247,9.76-3.617,14.589
		c-2.328,8.207-4.478,16.456-6.972,24.611c-0.616,2.01-1.203,4.043-1.944,5.999c-0.238,0.625-0.352,1.117-0.443,1.746
		c-0.126,0.893-0.643,2.77-0.105,3.556c0.48,0.706,1.982,1.009,2.723,1.374c2.096,1.032,4.473,1.116,6.65,1.9
		c1.084,0.391,1.884,0.905,3.026,1.082c1.395,0.216,2.784,0.438,4.186,0.614c5.55,0.694,11.144,0.951,16.729,1.164
		c16.552,0.631,33.375,2.155,49.907,0.52c2.508-0.249,5.015-0.511,7.52-0.793c6.764-0.764,13.514-1.672,20.223-2.823
		c1.265-0.217,3.119-0.23,4.18-1.054c1.211-0.94,0.131-1.926-0.508-2.888c-1.782-2.687-3.696-5.302-5.407-8.035
		c-0.906-1.452-1.661-2.994-2.377-4.547c-0.367-0.794-0.721-1.594-1.082-2.392c-0.298-0.655-0.773-1.21-1.027-1.883
		c-0.286-0.758-0.572-1.548-0.963-2.265c-0.991-1.812-1.944-3.632-2.957-5.436c-0.584-1.042-1.228-2.06-1.764-3.126
		c-0.629-1.256-1.169-2.55-1.836-3.786c-0.619-1.146-1.114-2.372-1.666-3.554c-0.743-1.598-1.436-3.223-2.024-4.886
		c-1.873-5.287-3.766-10.583-6.185-15.643c-0.776-1.623-1.511-3.256-2.349-4.844c-0.695-1.316-1.151-2.749-1.813-4.078
		c-0.927-1.859-1.771-3.729-2.779-5.546c-1.228-2.213-2.354-4.479-3.537-6.718c-1.34-2.534-2.691-5.114-4.206-7.521
		c-0.005,0.057,0.012,0.11,0.052,0.158"/>
	<path fill="#245977" d="M110.177,60.026c0.027-0.919,0.048-1.839,0.046-2.76c-0.01-3.444,0.697-6.951,2.14-10.084
		c0.41-0.894,0.999-1.747,1.548-2.561c0.748-1.112,1.364-1.494,2.388-2.237c1.319-0.954,2.751-1.812,4.267-2.399
		c2.002-0.774,4.251-1.626,6.349-2.061c3.854-0.799,7.811-1.07,11.661-0.163c2.819,0.663,5.498,1.904,7.674,3.838
		c0.933,0.828,2.028,1.817,2.429,3.03c0.429,1.297,0.757,2.634,1.216,3.928c1.449,4.078,1.838,8.232,1.805,12.56
		c-0.07,9.617-1.132,19.078-3.116,28.485c-0.91,4.31-1.746,8.647-2.577,12.963c-0.357,1.86-0.664,3.751-1.118,5.59
		c-0.493,2.007-1.069,3.908-1.028,5.977c0.046,2.328-0.687,4.806-1.102,7.088c-0.468,2.578-0.878,5.048-2.601,7.134
		c-1.47,1.784-3.034,1.861-5.246,2.138c-1.805,0.226-3.636,0.003-5.295-0.756c-1.128-0.518-1.962-1.307-2.958-2.017
		c-1.339-0.952-2.614-1.607-3.658-2.928c-0.978-1.238-1.723-2.64-2.497-4.008c-1.64-2.892-1.953-6.535-2.744-9.755
		c-0.412-1.693-0.535-3.433-0.946-5.121c-0.215-0.884-0.653-1.821-0.983-2.685c-0.582-1.524-1.169-3.167-1.453-4.711
		c-0.484-2.62-1.263-5.406-1.57-8.141c-0.227-2.008-0.606-4.024-0.928-6.032c-0.52-3.235-0.75-6.502-1.064-9.757
		c-0.273-2.814-0.406-5.619-0.614-8.434C110.047,64.108,110.119,62.067,110.177,60.026"/>
	<path fill="#FFFFFF" d="M133.985,69.599c-0.347-0.552-0.106-1.433,0.222-1.927c0.541-0.813,0.903-1.198,1.906-1.211
		c1.926-0.025,2.907,1.046,4.125,2.352c0.207,0.222,0.536,0.621,0.671,0.905c0.241,0.504,0.187,0.243-0.061,0.785
		c-0.403,0.889-1.142,1.682-2.183,1.79c-2.034,0.211-4.729-1.24-4.903-3.365"/>
	<path d="M137.259,71.26c1.395,0.175,2.435-1.035,1.632-2.203c-0.639-0.93-2.213-1.955-2.979-0.514
		C135.27,69.749,135.86,71.083,137.259,71.26"/>
	<path d="M133.375,69.53c0.3-0.352,0.328-1.197,0.504-1.699c0.204-0.575,0.47-1.098,0.882-1.548c0.744-0.812,1.829-1.235,2.891-1.32
		c1.217-0.099,2.115,0.736,2.836,1.617c0.573,0.699,1.206,2.359,0.935,3.256c-0.587-0.467-1.09-1.31-1.735-1.823
		c-0.531-0.419-1.221-0.992-1.876-1.221c-1.834-0.64-3.72,0.682-4.01,2.525c-0.25,1.587,2.007,2.955,3.291,3.371
		c1.009,0.326,1.845,0,2.647-0.632c0.77-0.605,0.951-1.315,1.488-2c0.069-0.087,0.086-0.177,0.112-0.28
		c-0.039,1.832-1.635,4.03-3.694,3.892c-1.254-0.083-2.261-0.779-3.001-1.786c-0.672-0.915-0.625-1.717-0.633-2.779"/>
	<path fill="#FFFFFF" d="M116.388,70.485c-0.139-1.624,2.117-4.298,3.929-4.46c1.856-0.167,4.326,1.493,4.521,3.438
		c0.204,2.042-0.133,4.418-2.286,5.133c-1.472,0.491-3.072-0.096-4.208-1.065c-0.801-0.683-2.627-1.849-2.086-3.151
		c0.009-0.035,0.017-0.071,0.024-0.106"/>
	<path d="M116.07,70.485c-0.454-1.963,2.773-5.919,5.096-5.603c1.405,0.192,2.624,0.966,3.397,2.183
		c0.502,0.79,1.329,2.408,0.767,3.306c-0.357-1.89-1.894-3.276-3.742-3.596c-0.906-0.157-1.751-0.238-2.567,0.284
		c-0.919,0.59-1.517,1.446-1.991,2.368c-0.436,0.843-0.702,1.309-0.188,2.226c0.453,0.805,1.034,1.301,1.826,1.806
		c1.321,0.843,2.988,1.298,4.334,0.273c0.481-0.366,0.975-0.772,1.284-1.293c0.174-0.289,1.046-1.971,0.831-2.263
		c0.489,0.668-0.244,2.536-0.698,3.082c-0.874,1.052-2.104,2.319-3.574,2.429c-1.339,0.102-3.052-0.85-3.794-1.939
		c-0.372-0.549-0.551-1.129-0.66-1.778c-0.047-0.293-0.172-0.604-0.132-0.93c0.043-0.35,0.098-0.37,0.342-0.767"/>
	<path d="M118.618,70.172c-0.156,1.202,0.824,1.947,1.91,2.12c1.228,0.195,1.692-0.721,1.699-1.786
		c0.004-0.684-0.391-1.752-1.003-2.1C119.788,67.59,118.794,68.817,118.618,70.172"/>
	<path d="M133.685,98.41c2.709,0.227,5.432,0.278,8.15,0.226c0.678-0.014,1.356-0.034,2.036-0.059
		c0.505-0.018,1.526,0.136,1.974-0.087c1.239-0.618,0.27-2.365,1.706-2.772c1.719-0.486,3-1.366,4.503-2.316
		c-0.256,0.7-1.18,1.973-0.918,2.728c0.308,0.894,1.847,0.693,2.525,0.556c0.935-0.19,1.776-0.131,2.529,0.539
		c1.287,1.144,1.48,3.127,1.916,4.689c0.308,1.104,0.566,2.236,0.733,3.365c0.105,0.698,0.326,1.512,0.222,2.217
		c-0.327,0.096-0.477-0.091-0.74-0.236c-0.815-0.448-1.631-1.328-2.322-1.972c-1.157-1.078-2.158-2.678-3.477-3.512
		c-0.396,1.119-0.709,5.985-2.977,5.002c-0.463-0.201-0.922-0.906-1.249-1.235c-0.548-0.552-1.094-1.095-1.648-1.641
		c-0.646-0.64-1.323-1.477-2.197-1.794c-0.408,0.573-0.39,1.889-0.654,2.549c-0.265,0.655-0.61,1.823-1.521,1.694
		c-0.883-0.126-1.752-1.577-2.306-2.129c-0.309-0.31-1.488-1.857-2.126-1.787c-0.704,0.081-0.777,2.206-0.956,2.853
		c-0.237,0.851-0.746,2.709-1.801,2.766c-1.743,0.095-2.361-3.314-3.274-4.202c-0.137,0.742-0.521,3.977-1.803,2.611
		c-0.487-0.521-1.478-3.532-2.364-3.206c-0.323,0.118-0.829,1.73-1.055,2.078c-0.428,0.664-1.03,1.478-1.923,1.448
		c-1.135-0.035-1.4-1.315-1.807-2.144c-0.223-0.455-0.686-1.711-1.244-1.901c-0.191,1.532-1.877,5.075-3.784,4.748
		c-1.356-0.232-2.193-2.056-2.952-3.059c-0.272-0.358-0.696-1.14-1.227-1.044c-0.17,1.309-0.969,3.904-2.573,3.921
		c-1.843,0.018-1.48-2.651-2.027-3.809c-0.342,0.312-1.061,2.333-1.707,2.298c-0.614-0.034-0.242-2.088-0.188-2.479
		c0.138-1.025,0.024-1.202-1.14-1.113c-1.535,0.115-3.011,0.909-4.568,1.066c1.158,0.049,2.108-0.687,3.061-1.266
		c1.147-0.699,0.528-0.791-0.54-1.154c-1.331-0.453-2.509-1.055-3.74-1.726c-0.805-0.438-1.479-1.076-2.248-1.523
		c1.269,0.981,3.162,1.032,4.709,0.873c0.225-1.091-1.439-2.226-2.012-2.965c-0.552-0.712-1.114-1.657-1.257-2.521
		c0.646-0.118,1.84,0.634,2.434,0.833c1.017,0.339,2.215,0.751,3.286,0.726c-0.395-0.975-1.124-1.828-1.597-2.769
		c-0.45-0.899-0.479-1.863-0.406-2.848c0.37,0.138,0.58,0.592,0.855,0.875c0.433,0.446,0.937,0.808,1.361,1.243
		c0.739,0.758,1.357,1.666,2.068,2.449c0.791,0.867,2.096,1.674,3.326,1.612c0.27,0.76,0.126,1.239,0.977,1.472
		c1.443,0.396,3.229,0.338,4.725,0.449c1.896,0.141,3.794,0.287,5.688,0.437C125.989,97.769,129.837,98.089,133.685,98.41"/>
	<path d="M114.67,60.212c2.769-1.534,5.014-7.587,9.025-5.647c4.018,1.943,5.976,7.924,6.295,11.978
		c0.317,4.045,0.244,8.133,0.244,12.216c0,2.525-0.023,5.088,0.188,7.596c0.201,2.358,0.006,4.804,0.2,7.184
		c0.064,0.79,0.243,1.525,0.179,2.36c-1.858,0.599-1.166-3.092-1.166-4.16c0-2.488-0.404-4.905-0.398-7.392
		c0.007-3.892-0.338-7.732-0.609-11.564c-0.277-3.9-0.578-7.471-2.919-10.76c-0.953-1.339-2.274-3.324-3.811-4.06
		c-1.555-0.745-3.115,0.479-4.624,1.097c-0.969,0.397-2.727,0.321-3.401,1.153"/>
	<path fill="#245977" d="M87.934,64.401c0.223,2.364-1.419,5.237-2.139,7.43c-0.83,2.524-1.045,5.097-1.403,7.677
		c-0.973,6.985-2.385,14.915-0.703,21.9c2.175,9.028,3.959,17.882,7.616,26.436c3.614,8.45,9.553,15.829,16.264,21.983
		c2.945,2.7,6.228,5.312,9.371,7.792c2.821,2.225,5.604,4.642,8.66,6.559c7.508,4.711,16.064,9.214,25.175,9.368
		c2.163,0.036,4.442,0.191,6.567-0.234c2.925-0.584,5.78-1.724,8.565-2.756c7.993-2.966,14.973-8.353,20.349-14.926
		c2.235-2.734,4.763-5.617,6.166-8.867c1.097-2.537,2.425-5.737,2.67-8.499c0.278-3.145-0.12-6.619-0.858-9.651
		c-2.596-10.68-12.586-20.914-24.098-20.912c-4.195,0.001-7.513,2.452-10.565,5.134c-0.655,0.574-1.897,1.277-2.354,2.05
		c-0.506,0.857-0.06,1.502,0.166,2.394c0.284,1.127,0.286,4.67,1.176,5.402c0.013,0.052,0.027,0.102,0.039,0.155
		c0.912,0.257,1.839-0.717,2.568-1.122c1.098-0.608,2.25-1.009,3.481-1.241c2.938-0.558,6.385-1.336,9.359-0.564
		c7.394,1.919,8.707,10.075,8.707,16.646c0,3.843-0.707,7.072-2.442,10.499c-1.861,3.677-4.335,6.086-7.337,8.724
		c-4.076,3.584-9.398,4.512-14.586,5.188c-5.628,0.734-11.073,1.028-16.594-0.637c-3.243-0.979-5.87-2.483-8.787-4.143
		c-4.027-2.292-8.465-4.431-12.174-7.191c-3.14-2.335-6.22-4.523-9.097-7.16c-4.165-3.819-7.019-8.165-10.202-12.788
		c-4.319-6.276-6.993-13.702-9.025-21c-1.447-5.2-2.142-10.541-2.142-15.916c0-5.314,0.03-9.402,3.202-13.764
		c0.601-0.827,2.38-2.268,2.639-3.135c0.261-0.871-1.242-3.011-1.854-3.801c-0.989-1.276-2.241-2.118-3.387-3.242
		c-0.613-0.602-2.24-2.111-2.395-2.59"/>
	<path fill="#245977" d="M154.621,142.963c-1.308-0.6-1.609,0.145-2.217,1.089c-0.336,0.525-0.777,1.029-1.185,1.5
		c-0.503,0.581-2.107,2.547-2.951,2.359c1.429,0.427,3.121,0.604,4.492,1.386c0.739,0.422,1.479,1.058,2.126,1.617
		c3.249,2.804,5.731,5.754,7.477,9.821c3.631,8.462,2.27,18.725-2.339,26.59c-1.748,2.985-4.127,5.279-6.568,7.687
		c-3.227,3.184-6.451,6.216-10.611,8.127c-2.92,1.341-5.788,2.63-8.969,3.133c-3.609,0.571-7.53,0.557-11.193,0.404
		c-8.184-0.341-16.744-4.079-23.896-7.822c-6.927-3.626-13.62-7.732-18.697-13.79c-3.914-4.668-7.668-9.065-9.66-14.95
		c-1.487-4.393-2.248-8.53-2.248-13.178c0-4.801,0.813-9.325,2.742-13.722c1.896-4.32,4.084-8.052,7.837-10.978
		c2.785-2.174,5.854-2.715,9.178-2.984c1.03-0.084,2.259-0.132,3.361-0.238c-0.612-2.293-2.577-4.338-3.401-6.715
		c-1.191-0.134-3.188,0.551-4.305,1.007c-1.605,0.655-3.147,1.35-4.643,2.311c-2.174,1.399-4.758,2.62-6.579,4.628
		c-1.946,2.145-3.824,4.55-5.439,6.974c-3.973,5.961-5.336,13.534-5.336,20.646c0,4.031,0.326,7.687,1.148,11.633
		c0.64,3.067,1.293,6.084,2.492,8.999c0.554,1.344,1.393,2.598,2.246,3.775c1.179,1.626,2.296,3.386,3.602,4.919
		c2.448,2.877,5.393,5.289,8.082,7.912c2.72,2.654,6.595,4.21,9.819,6.174c3.753,2.286,7.789,3.926,11.748,5.802
		c6.438,3.05,13.555,4.633,20.412,6.32c2.327,0.573,4.99,0.443,7.266-0.287c2.279-0.733,4.444-0.814,6.832-1.006
		c5.687-0.456,11.436-1.42,16.583-3.991c4.962-2.475,9.193-5.041,12.722-9.371c2.66-3.265,5.365-6.56,6.751-10.63
		c1.162-3.418,1.888-7.339,2.188-10.99c0.164-1.971,0.234-4.279-0.105-6.21c-1.31-7.449-4.283-15.148-9.387-20.883
		c-1.402-1.574-3.07-2.684-4.818-3.869C157.659,145.135,156.268,143.717,154.621,142.963"/>
	<path fill="#FF0000" d="M142.768,123.78c0.199-1.428,0.496-2.753,0.838-3.682c0.735-1.995,2.693-4.174,0.694-6.362
		c-1.277-1.398-3.319,3.276-3.481,3.798c-0.465,1.489-0.543,3.728-2.365,4.231c-1.137,0.314-3.598,0.018-4.802-0.126
		c-3.327-0.395-7.293-1.868-9.644-4.332c-0.61-0.638-0.923-1.721-1.794-2.105c-1.965-0.863-3.31,0.607-2.854,2.56
		c0.421,1.796,2.345,3.055,3.585,4.264c1.69,1.644,3.837,3.345,5.24,5.21c-0.162,0.234-0.278,0.498-0.336,0.778
		c-0.206,0.993-0.85,0.971-0.307,2.222c0.206,0.469,1.414,1.322,1.778,1.631c-0.634-0.541-0.699,1.575-0.646,1.766
		c0.208,0.729,1.411,1.553,1.97,2.004c2.146,1.73,5.167,1.446,6.907,3.511c1.3,1.542,1.569,4.056,1.876,5.96
		c0.263,1.641,0.217,9.308,3.179,8.802c1.72-0.295,2.71-2.289,3.671-3.404c1.795-2.08,3.682-4.055,5.508-6.097
		c2.782-3.109,5.912-6.549,8.24-10.002c-3.452,0.118-6.521-0.207-9.837-0.791c-2.89-0.507-6.481,0.055-7.379-3.324
		C142.383,128.692,142.445,126.1,142.768,123.78"/>
	<path fill="#FF0000" d="M102.647,48.688c1.184-2.238,2.372-4.557,4.024-6.526c1.962-2.336,4.288-2.908,7.047-1.549
		c1.317,0.65,2.432,1.763,3.445,2.837c1.032,1.096,2.057,2.438,1.495,3.991c-0.369,1.027-1.704,2.541-2.961,2.166
		c-0.129-1.516,0.366-4.958-2.025-4.972c-3.958-0.027-2.086,3.947-0.952,5.791c0.669,1.086,0.375,1.417,0.155,2.604
		c-0.209,1.11-0.528,5.252-2.395,4.39c-1.68-0.778-0.521-4.891-2.733-4.998c4.193,0.238,0.062,10.478-3.309,7.646
		c-1.395-1.172-0.199-3.19,1.415-2.676c-0.282-0.09,0.234-1.686-1.099-1.339c-0.607,4.192-2.924,8.536-4.615,12.399
		c-1.209,2.761-1.75,5.527-2.542,8.426c-0.764-0.176-1.206-1.867-1.565-2.45c-1.104-1.784-2.189-3.648-3.448-5.329
		c-1.01-1.349-2.062-2.94-3.355-4.011c-0.793-0.657-1.685-1.23-2.461-1.882c-1.196-1.007-0.208-1.119,0.769-1.434
		c1.794-0.578,3.464-1.346,5.091-2.315c1.644-0.98,3.545-1.87,5.033-3.086C99.993,54.47,101.28,51.281,102.647,48.688"/>
	<path d="M73.915,122.946c1.281,2.13,2.965,4.065,4.24,6.239c1.181,2.005,1.958,4.319,2.844,6.45
		c0.476,1.144,0.841,2.604,1.598,3.56c2.305-1.028,4.271-3.27,6.514-4.51c4.088-2.256,8.436-3.85,12.999-4.593
		c0.851-0.139,2.429-0.083,3.188-0.438c0.99-0.463,0.553-1.911,0.639-2.981c0.083-1.04,0.151-2.083,0.076-3.125
		c-0.036-0.493-0.195-1.015-0.162-1.507c0.023-0.341,0.17-0.618,0.141-0.972c-0.024-0.279-0.068-0.557-0.117-0.832
		c-0.044-0.247-0.136-0.485-0.202-0.726c-0.093-0.335-0.13-0.672-0.198-1.009c-0.032-0.159-0.124-0.302-0.168-0.458
		c-0.042-0.146-0.058-0.26-0.08-0.402c-0.046-0.28-0.245-0.559-0.385-0.797c-0.105-0.179-0.265-0.426-0.481-0.471
		c-0.385-0.08-0.788-0.061-1.188-0.063c-0.216-0.001-0.401,0.049-0.613,0.07c-0.119,0.012-0.233-0.01-0.354,0.012
		c-0.116,0.02-0.187,0.051-0.311,0.053c-0.242,0.002-0.449,0.017-0.687,0.051c-0.226,0.032-0.449-0.001-0.677,0.012
		c-0.146,0.009-0.28,0.063-0.425,0.072c-0.089,0.006-0.195-0.025-0.282-0.007c-0.072,0.016-0.121,0.06-0.193,0.075
		c-0.086,0.018-0.193-0.002-0.285,0.01c-0.515,0.073-1.022,0.231-1.534,0.32c-1.174,0.204-2.369,0.395-3.552,0.616
		c-0.569,0.107-1.129,0.213-1.701,0.299c-0.33,0.049-0.679,0.086-1.011,0.083c-0.276-0.004-0.522,0.072-0.796,0.068
		c-0.327-0.005-0.638,0.062-0.961,0.066c-0.32,0.003-0.655-0.037-0.972,0.013c-0.268,0.042-0.507,0.042-0.781,0.049
		c-0.181,0.006-0.348,0.06-0.526,0.073c-0.18,0.013-0.369-0.002-0.551-0.002c-0.68-0.002-1.328,0.176-2.002,0.202
		c-0.22,0.008-0.443-0.031-0.66,0.011c-0.209,0.041-0.39,0.045-0.602,0.049c-0.545,0.008-1.089,0.123-1.634,0.135
		c-0.448,0.009-0.891,0.143-1.339,0.135c-0.248-0.004-0.46,0.055-0.7,0.07c-0.19,0.012-0.385-0.017-0.576-0.007
		c-0.449,0.023-0.886,0.07-1.337,0.07h-0.896h-1.507c-0.219,0-0.438,0.002-0.656,0c-0.187,0-0.298,0.063-0.474,0.065
		c-0.251,0.002-0.485,0.093-0.732,0.125c-0.249,0.031-0.491-0.001-0.741,0.05c-0.31,0.062-0.541,0.218-0.57,0.552
		c-0.032,0.344,0.11,0.704,0.232,1.019c0.167,0.435,0.373,0.854,0.597,1.264C73.536,122.309,73.725,122.628,73.915,122.946"/>
	<path d="M159.519,108.3c1.432-0.649,2.839-1.393,4.246-2.151c0.326-0.176,2.179-1.713,2.385-1.664
		c0.777,0.183,0.962,4.379,1.192,5.248c0.65,2.452,1.252,4.936,1.651,7.425c0.296,1.855,0.678,3.635,1.093,5.452
		c0.235,1.031,1.039,2.372,0.822,3.417c-0.04,0.193-8.914,1.055-9.788,1.251c-2.612,0.586-5.181,1.492-7.417,2.984
		c-1.123,0.749-4.243,3.522-5.267,1.73c-0.723-1.263-1.092-3.345-1.586-4.782c-0.487-1.42-0.66-2.843-0.654-4.335
		c0.01-2.028,0.034-3.99,0.201-5.996c0.049-0.589-0.012-1.846,0.237-2.399c0.718-1.595,3.166-2.666,4.707-3.166
		C154.106,110.42,156.871,109.502,159.519,108.3"/>
	<path d="M163.763,171.446c0.104,0.103,0.577-0.157,0.719-0.219c0.23-0.1,0.453-0.237,0.676-0.354
		c0.716-0.375,1.449-0.727,2.181-1.089c0.583-0.289,1.199-0.511,1.784-0.794c0.556-0.271,1.092-0.578,1.647-0.85
		c0.349-0.17,0.696-0.358,1.054-0.532c0.306-0.148,0.633-0.267,0.936-0.406c0.256-0.118,0.502-0.374,0.799-0.358
		c0.086,0.005,0.013,0.645-0.055,0.733c-0.149,0.194-0.49,0.363-0.718,0.438c-0.312,0.102-0.623,0.214-0.926,0.353
		c-0.351,0.16-0.688,0.365-1.002,0.591c-0.324,0.237-0.689,0.374-1.059,0.531c-0.95,0.406-1.896,0.826-2.861,1.196
		c-0.708,0.27-1.398,0.579-2.117,0.82c-0.377,0.126-0.799,0.329-1.173,0.391c-0.02-0.11,0.031-0.214,0.029-0.324
		c0.026-0.008,0.056-0.009,0.086-0.004"/>
	<path d="M161.682,160.156c0.199,0.124,0.748-0.021,0.991-0.043c0.361-0.033,0.788-0.123,1.144-0.231
		c0.871-0.262,1.697-0.628,2.589-0.837c0.919-0.215,2.208-0.35,2.853-1.116c0.065-0.077,0.205-0.19,0.161-0.283
		c-0.076-0.161-0.32,0.051-0.41,0.106c-0.522,0.328-1.017,0.558-1.589,0.787c-0.638,0.253-1.289,0.559-1.955,0.708
		c-0.5,0.11-1.008,0.214-1.506,0.317c-0.482,0.098-0.957,0.259-1.437,0.338c-0.34,0.056-0.75,0.163-1.086,0.154
		c0.04,0.06,0.079,0.133,0.11,0.199c0.038,0.009,0.095,0.019,0.135,0.008"/>
	<path fill="#FF0000" d="M104.284,217.462c0.865,1.462,0.398,4,0.398,5.725c0,5.119,0.303,10.327,0.01,15.434
		c-0.257,4.467-0.408,8.93-0.408,13.45c0,2-0.659,6.042,0.378,7.711c0.497,0.802,1.345,1.381,2.148,1.841
		c0.75,0.429,1.478,0.562,2.277,0.862c0.691,0.258,1.382,0.515,2.068,0.79c0.489,0.196,1.085,0.367,1.481,0.737
		c0.209,0.197,0.263,0.558,0.499,0.705c-0.036-0.77,0.467-1.955,0.994-2.507c0.709-0.749,1.551-1.271,2.562-1.527
		c3.05-0.776,6.249,0.442,7.99,3.06c0.13,0.199,0.282,0.424,0.365,0.658c0.05,0.142,0.069,0.626,0.188,0.697
		c0.173,0.104,0.649-0.107,0.841-0.122c0.281-0.021,0.562-0.041,0.839-0.065c0.638-0.052,1.306,0.018,1.924,0.068
		c0.359,0.029,3.742,0.389,3.708,0.721c0.5-4.846,0.069-10,0.069-14.886c0.001-4.75,0.689-9.416,0.859-14.136
		c1.338,0.089,2.474-0.59,3.619-0.769c1.369-0.217,2.844,0.036,4.213-0.178c2.443-0.384,4.772-1.453,7.27-1.93
		c3.402-0.65,4.059,1.38,5.688,4.424c2.149,4.008,4.443,8.004,6.795,11.991c2.107,3.573,4.707,6.766,6.792,10.365
		c0.962,1.657,2.376,5.031,4.649,5.196c1.276,0.092,3.057-1.169,4.323-1.525c2.688-0.753,5.262-1.356,7.919-2.316
		c3.993-1.442,8.221-2.583,12.062-4.248c-0.482-2.595-2.952-5.378-4.231-7.902c-2.258-4.451-4.652-8.843-6.993-13.188
		c-2.034-3.783-4.179-7.455-6.385-11.155c-1.647-2.764-2.63-6.599-5.876-7.182c-4.442-0.8-9.401,0.397-13.854,0.398
		c-7.405,0.002-14.627,0.29-21.958,0.808c-9.259,0.651-18.99,2.416-28.348,1.498c-1.388-0.136-2.985-0.671-4.33-1.048
		c0.332,0.172,0.443,0.567,0.648,0.737"/>
	<path fill="#245977" d="M168.377,339.372c-0.17,2.98,3.163,4.653,4.861,6.557c1.702,1.908,1.997,4.483,4.187,6.148
		c1.266,0.961,1.697,0.589,3.06,0.623c0.233-2.845-0.018-6.015,1.195-8.674c0.753-1.646,2.08-3.45,3.226-4.839
		c0.535-0.648,1.069-1.27,1.878-1.433c2.161-0.435,3.939-2.304,5.817-3.54c1.57-1.032,3.192-1.979,4.771-2.996
		c1.29-0.832,2.307-2.118,3.443-3.153c1.933-1.758,4.025-3.373,6.074-5c5.042-4.006,9.463-8.769,14.119-13.17
		c1.353-1.279,2.564-2.797,3.805-4.165c0.766-0.846,1.631-1.608,2.362-2.472c1.915-2.266-0.287-4.523-1.543-6.489
		c-1.274-1.994-2.636-4.021-4.15-5.845c-1.317-1.587-2.493-3.328-3.926-4.813c-2.316-2.402-4.541-4.949-6.933-7.291
		c-2.051-2.008-3.667-4.322-5.611-6.435c-3.938-4.282-7.979-8.547-11.802-12.916c-0.763-0.873-1.698-2.693-2.856-3.14
		c-1.069-0.413-2.823,0.432-3.851,0.656c-1.579,0.347-2.822,1.152-4.151,2.01c-1.193,0.768-3.061,1.537-3.967,2.656
		c-1.068,1.32,0.23,3.219,0.996,4.341c2.163,3.179,5.166,5.652,7.566,8.637c1.971,2.447,4.015,4.771,6.122,7.095
		c1.238,1.368,2.733,2.392,4.031,3.693c0.971,0.971,1.866,2.024,2.888,2.944c1.969,1.773,3.863,3.62,5.825,5.397
		c1.317,1.194,2.382,2.562,3.618,3.833c1.087,1.117,2.343,2.134,3.117,3.511c-0.527,0.495-0.889,1.292-1.361,1.875
		c-0.588,0.726-1.228,1.407-1.765,2.172c-0.963,1.377-1.867,2.769-2.848,4.13c-1.077,1.492-2.113,2.884-3.412,4.213
		c-0.866,0.887-1.716,1.848-2.695,2.609c-3.393,2.638-6.962,4.912-10.443,7.391c-5.081,3.62-10.875,7.669-16.503,10.397
		c-1.261,0.61-2.921,0.465-3.935,1.644C168.788,336.461,168.444,338.199,168.377,339.372"/>
	<path d="M153.336,378.948c0.933-0.445,1.845-0.948,2.743-1.484c0.477-0.285,1.932-1.745,2.394-1.694
		c0.845,0.095,2.061,3.929,2.266,4.688c0.313,1.163,0.722,2.31,1.124,3.435c0.291,0.811,2.273,4.572,0.474,4.476
		c0.128,2.17-9.11,3.621-10.649,3.044c-2.949,2.974-6.065,5.263-9.543,7.642c-2.969,2.032-6.35,3.155-9.274,5.127
		c-1.875,1.263-3.836,2.605-5.778,3.736c-2.502,1.459-2.03-2.592-1.408-4.011c1.425-3.243,3.799-5.897,5.916-8.677
		c1.598-2.1,2.755-4.421,4.108-6.649c1.716-2.829,4.207-5.155,4.704-8.586c0.175-1.211,0.02-2.71-0.332-3.764
		c0.939,0.199,2.103,0.51,3.048,0.581c1.2,0.09,2.126-0.272,2.942,0.609c0.641,0.69,0.728,1.875,1.316,2.573
		c0.773,0.917,1.317,0.603,2.422,0.297C151.027,379.954,152.196,379.492,153.336,378.948"/>
	<path d="M178.454,365.826c0.075,0.222,0.152,0.444,0.236,0.664c0.77,2.017,1.945,3.833,3.217,5.588
		c0.882,1.219,4.111,8.066,5.534,3.726c0.713-2.181,0.561-4.388,0.561-6.687c0-2.555-0.645-4.924-1.158-7.385
		c-0.524-2.519-0.764-4.987-1.639-7.422c-0.362-1.005-0.519-2.073-0.99-3.042c-0.39-0.804-1.381-1.77-1.209-2.734
		c0.446-0.132,4.373-0.193,4.521,0.116c-0.432-0.902-1.021-1.712-1.499-2.599c-0.32-0.595-0.867-2.28-1.411-2.644
		c-0.756-0.508-1.509,0.377-2.335,0.068c-0.637-0.238-1.688-1.404-2.17-1.872c-2.076-2.007-2.844-4.985-3.541-7.69
		c-0.289-1.119-0.26-2.86-1.659-2.796c-1.108,0.05-3.332,1.552-4.31,2.132c-1.749,1.037-3.184,2.516-4.664,3.857
		c-2.436,2.209,0.064,5.967,1.281,8.387c0.646,1.289,1.229,2.688,1.809,3.986c0.406,0.91,0.423,1.447,1.372,1.628
		c0.751,0.142,1.387-0.458,2.18-0.156c1.544,0.584,1.51,2.262,1.885,3.552c0.609,2.091,1.939,3.955,2.566,6.071
		C177.55,362.334,177.884,364.128,178.454,365.826"/>
	<path d="M107.302,33.978c0.032,0.031,0.064,0.061,0.096,0.092c-0.201-0.084-0.38-0.302-0.577-0.361
		c-0.204-0.06-0.388,0.009-0.586-0.026c-0.199-0.036-0.361-0.132-0.566-0.166c-1.409-0.224-2.413-1.531-3.828-1.667
		c-0.826-0.08-1.639,0.645-1.685,1.479c-0.027,0.485-0.022,0.987,0.122,1.442c0.077,0.244,0.222,0.888,0.439,1.018
		c-0.368-0.706-1.322-1.228-2.026-1.509c-0.621-0.249-2.311-1.021-2.942-0.459c-0.451,0.401-0.336,1.173-0.174,1.678
		c0.098,0.305,0.168,0.617,0.299,0.91c0.154,0.35,0.293,0.672,0.164,1.066c-0.313,0.95-1.931,0.599-2.694,0.608
		c-0.695,0.007-1.38-0.22-2.061-0.349c-0.37-0.069-0.693-0.081-1.063-0.106c-0.229-0.017-0.89-0.319-1.085-0.136
		c-0.26,0.242,0.224,0.944,0.338,1.133c0.421,0.699,1.142,1.409,1.764,1.946c0.652,0.563,1.203,1.217,1.86,1.785
		c0.873,0.753,1.617,1.648,2.698,2.101c0.769,0.322,1.422,0.46,2.246,0.453c0.762-0.007,1.521,0.001,2.281,0.001
		c1.063,0,2.949-0.349,3.576,0.82c0.638,1.187-0.006,2.774-0.543,3.855c-0.214,0.43-0.449,0.806-0.609,1.257
		c-0.163,0.457-0.162,0.871-0.149,1.362c0.013,0.445,0.187,0.719,0.378,1.13c0.241,0.511,0.425,0.679,0.828,1.018
		c0.51,0.425,1.496,1.025,2.244,0.707c0.274-0.117,0.591-0.479,0.8-0.699c0.301-0.316,0.381-0.432,0.726-0.041
		c0.353,0.401,1.035,1.4,1.707,1.193c0.485-0.148,0.49-0.965,0.566-1.347c0.1-0.519,0.168-1.043,0.3-1.548
		c0.272-1.037,0.79-1.787,1.853-2.057c1.179-0.299,2.368-0.218,3.521,0.122c0.367,0.108,0.659,0.15,1.043,0.148
		c0.146-0.001,0.315,0.023,0.459,0.003c0.333-0.046,0.235,0.004,0.304-0.304c0.141-0.625-0.34-1.741,0.289-2.13
		c0.767-0.474,1.715,0.036,2.469,0.192c0.577,0.119,1.431,0.25,1.913,0.603c0.544,0.4,0.87,1.065,1.402,1.493
		c0.334,0.269,0.525,0.571,0.797,0.911c0.298,0.369,0.59,0.651,0.941,0.97c0.337,0.305,0.72,0.921,1.143,1.12
		c0.459,0.217,0.83,0.155,1.294,0.06c0.323-0.065,0.66-0.163,0.984-0.188c0.498-0.038,0.83,0.109,1.287,0.306
		c2.556,1.094,3.859,2.781,5.757,4.663c1.421,1.408,3.132,2.432,4.525,3.902c1.396,1.473,2.902,2.593,4.767,3.438
		c1.957,0.888,6.585,0.808,5.983,4.142c-0.062,0.343-0.401,0.782-0.468,1.289c0.042,1.055-0.61,3.408,0.036,4.28
		c0.751,1.016,3.25,0.609,4.291,0.406c2.598-0.505,4.865-2.358,5.073-5.125c0.263-3.485-3.033-5.883-2.999-9.364
		c0.034-3.448,2.83-6.126,3.085-9.536c0.193-2.584-0.217-5.792-1.071-8.269c-1.659-4.809-8.041-6.199-12.402-6.972
		c-1.348-0.239-2.8-0.289-4.17-0.319c-4.266-0.096-8.845,1.475-12.887-0.415c-1.422-0.664-2.747-1.603-4.03-2.498
		c-1.025-0.717-2.079-1.394-3.109-2.102c-1.285-0.881-2.645-1.962-4.154-2.437c-0.444-0.14-0.914-0.163-1.363-0.287
		c-0.415-0.115-0.726-0.159-1.154-0.152c-1.44,0.023-2.952-0.108-4.302,0.493c-1.062,0.473-2.056,0.688-3.203,0.843
		c-1.129,0.153-2.267,0.276-3.391,0.456c-0.664,0.106-1.363,0.022-2.032,0.026c-1.098,0.008-1.51,0.78-2.003,1.677"/>
	<path fill="#FF0000" d="M160.932,52.395c1.931,3.045,4.581,6.349,3.957,10.115c-0.433,2.611-1.157,4.392-3.98,4.653
		c-4.648,0.428-10.198-2.445-14.078-4.753c-10.838-6.448-21.936-12.068-30.747-21.238c-1.931-2.007-4.443-4.377-5.562-7.039
		c-1.087-2.58-1.512-6.527,0.084-9.058c1.519-2.409,4.985-2.886,7.656-3.102c9.014-0.727,18.28,3.353,24.794,9.413
		C149.782,37.646,156.021,44.643,160.932,52.395"/>
	<path fill="#FF0000" d="M121.726,34.209c-0.384-0.489-0.97-1.141-1.136-1.753c-0.059-0.218,0-0.443-0.06-0.665
		c-0.068-0.256-0.228-0.455-0.414-0.64c-0.078-0.08-0.159-0.193-0.25-0.257c-0.105-0.076-0.28-0.076-0.306-0.218
		c-0.006-0.032,0.156-0.334,0.176-0.381c0.266-0.663,0.507-1.265,0.924-1.841c0.538-0.74,1.054-1.493,1.605-2.223
		c1.114-1.478,2.29-2.909,3.511-4.3c3.552-4.048,7.127-7.997,11.245-11.496c2.892-2.458,5.317-3.486,9.108-3.733
		c3.206-0.208,7.619,0.464,10.693,1.475c4.581,1.503,8.458,5.079,11.639,8.624c2.628,2.93,3.227,6.396,3.261,10.195
		c0.047,5.135-0.781,10.694-3.339,15.28c-1.466,2.629-3.378,5.083-4.973,7.594c-0.812,1.277-1.699,3.211-2.966,4.089
		c-1.288,0.89-1.923,0.469-3.265-0.092c-2.204-0.921-4.203-1.724-6.583-2.233c-5.015-1.073-9.53-1.656-13.998-4.208
		c-3.514-2.008-6.747-5.194-9.747-8.052C125.03,37.634,123.279,36.195,121.726,34.209"/>
	<path d="M124.588,20.231c0,2.281-0.31,4.803-0.013,7.059c0.338,2.571,1.391,4.693,2.818,7.03c2.698,4.421,5.882,8.143,9.652,11.728
		c3.054,2.902,7.009,5.304,10.996,6.492c1.08,0.321,2.311,0.425,3.423,0.699c0.731,0.179,1.876,0.762,2.609,0.915
		c1.093,0.226,2.255,0.13,3.393,0.13c1.078,0.001,3.036,0.389,3.993-0.117c0.573-0.303,1.634-1.625,1.772-2.229
		c0.438-1.896-1.099-0.873-2.273-1.146c-0.938-0.217-1.885-0.833-2.903-1.076c-1.239-0.295-2.174-0.538-3.396-0.844
		c-0.943-0.237-2.151-0.811-3.194-1.206c-1.325-0.503-2.651-0.519-3.979-1.017c-2.117-0.792-4.143-1.465-5.726-3.078
		c-2.874-2.924-5.698-5.575-8.22-8.778c-1.237-1.572-1.931-3.937-2.641-5.739c-0.895-2.268-1.463-4.148-2.071-6.474
		c-0.513-1.958,0.711-5.512-2.039-3.083c-0.69,0.609-1.384,0.836-2.052,1.47c-1.2,1.142-0.324,1.363-0.149,2.786"/>
	<path d="M152.183,48.412c0.016,0.125,0.031,0.249,0.046,0.374c-0.252-0.563-0.774-0.679-1.106-1.109
		c-0.352-0.454-0.435-0.976-0.849-1.465c-0.743-0.88-1.305-1.289-1.759-2.352c-0.443-1.042-1.432-7.406,1.188-6.499
		c1.826,0.632,2.255,4.333,2.608,5.77c0.679,2.753,0.458,5.718,0.458,8.627c0-0.95-0.305-2.479-0.028-3.374
		c0.302-0.973,1.351-1.911,1.788-2.94c0.316-0.743,1.03-1.509,1.206-2.286c0.263-1.16-0.033-2.762-0.027-3.962
		c-0.203,1.227,0.534,2.159,0.598,3.346c0.064,1.162-0.013,2.356-0.013,3.522c0,2.464,0.431,4.477-1.54,6.271
		c0.202-1.052,3.398-2.614,4.358-2.041c1.762,1.054,1.271,4.047,1.291,5.75c0.011,0.996,0.422,3.069-1.192,3.005
		c-0.632-0.024-2.001-1.271-2.489-1.686c-1.54-1.308-2.074-2.893-2.291-4.797c-1.395-0.006-2.089,2.976-3.408,3.652
		c-1.321,0.679-3.978,1.716-5.338,0.587c-1.81-1.503,2.046-1.684,3.137-2.362c0.9-0.559,3.76-1.867,3.889-2.979
		c-1.994-0.57-4.141,0.524-5.985,0.927c-1.038,0.227-2.13,0.115-3.215,0.129c-1.297,0.017-1.853-0.654-3.008-0.718
		c0.482-1.504,3.723-2.735,5.224-2.816c1.287-0.07,2.359-0.034,3.535,0.457c1.061,0.442,1.738,0.755,2.923,0.731"/>
	<path fill="#FFFFFF" d="M117.566,83.43c-0.435-0.718-1.057-0.615-1.589-0.032c-1.229,1.347-1.278,3.38,0.453,4.338
		c1.055,0.583,3.215,0.503,3.729-0.835c0.261-0.681-0.016-1.53-0.348-2.128c-0.357-0.642-1.099-1.928-1.984-2.021"/>
	<path fill="#FFFFFF" d="M144.696,81.865c-1.359-0.668-2.514,0.255-3.344,1.288c-1.188,1.477-1.265,3.529,0.689,4.371
		c1.715,0.738,3.883-0.03,4.48-1.907c0.457-1.438-0.279-4.623-2.243-4.378"/>
</g>
</svg>
